<?xml version="1.0" encoding="utf-8" standalone="no"?>
<!DOCTYPE svg PUBLIC "-//W3C//DTD SVG 1.1//EN"
  "http://www.w3.org/Graphics/SVG/1.1/DTD/svg11.dtd">
<svg xmlns:xlink="http://www.w3.org/1999/xlink" width="604.25093pt" height="319.68pt" viewBox="0 0 604.25093 319.68" xmlns="http://www.w3.org/2000/svg" version="1.1">
 <metadata>
  <rdf:RDF xmlns:dc="http://purl.org/dc/elements/1.1/" xmlns:cc="http://creativecommons.org/ns#" xmlns:rdf="http://www.w3.org/1999/02/22-rdf-syntax-ns#">
   <cc:Work>
    <dc:type rdf:resource="http://purl.org/dc/dcmitype/StillImage"/>
    <dc:date>2026-06-17T18:15:31.937966</dc:date>
    <dc:format>image/svg+xml</dc:format>
    <dc:creator>
     <cc:Agent>
      <dc:title>Matplotlib v3.11.0, https://matplotlib.org/</dc:title>
     </cc:Agent>
    </dc:creator>
   </cc:Work>
  </rdf:RDF>
 </metadata>
 <defs>
  <style type="text/css">*{stroke-linejoin: round; stroke-linecap: butt}</style>
 </defs>
 <g id="figure_1">
  <g id="patch_1">
   <path d="M 0 319.68 
L 604.25093 319.68 
L 604.25093 0 
L 0 0 
z
" style="fill: #ffffff"/>
  </g>
  <g id="axes_1">
   <g id="line2d_1">
    <path d="M 197.38 168.56 
L 197.287797 165.640733 
L 197.011556 162.733104 
L 196.552377 159.848702 
L 195.912092 156.999026 
L 195.093252 154.195436 
L 194.099122 151.449107 
L 192.933665 148.770987 
L 191.601526 146.171751 
L 190.108015 143.661762 
L 188.459088 141.251025 
L 186.661315 138.949149 
L 184.721865 136.76531 
L 182.648467 134.708215 
L 180.449388 132.786063 
L 178.133393 131.006516 
L 175.709716 129.376668 
L 173.188016 127.903017 
L 170.578346 126.591436 
L 167.89111 125.447154 
L 165.13702 124.474733 
L 162.327053 123.678049 
L 159.472412 123.060277 
L 156.584476 122.62388 
L 153.674756 122.370598 
L 150.754853 122.301441 
L 147.836405 122.416684 
L 144.931047 122.715868 
L 142.050359 123.1978 
L 139.205826 123.860559 
L 136.408786 124.701503 
L 133.67039 125.717279 
L 131.001552 126.90384 
L 128.412913 128.256454 
L 125.914791 129.76973 
L 123.517144 131.437635 
L 121.229531 133.253521 
L 119.061069 135.210149 
L 117.020404 137.299719 
L 115.11567 139.513902 
L 113.354459 141.843871 
L 111.743793 144.280339 
L 110.290092 146.813592 
L 108.999152 149.433533 
L 107.876117 152.129718 
L 106.925465 154.891398 
L 106.150985 157.707566 
L 105.555766 160.566994 
L 105.142178 163.458285 
L 104.911872 166.369913 
L 104.865764 169.290272 
L 105.00404 172.207719 
L 105.326148 175.110625 
L 105.830803 177.987419 
L 106.515994 180.826632 
L 107.37899 183.616947 
L 108.41635 186.34724 
L 109.62394 189.006628 
L 110.996945 191.58451 
L 112.529892 194.07061 
L 114.216671 196.455016 
L 116.050558 198.728225 
L 118.024241 200.881175 
L 120.129854 202.905283 
L 122.359003 204.79248 
L 124.702801 206.535245 
L 127.151906 208.126628 
L 129.696555 209.560288 
L 132.326604 210.830508 
L 135.031569 211.932226 
L 137.800668 212.86105 
L 140.622861 213.613276 
L 143.486899 214.185907 
L 146.381364 214.576659 
L 149.294719 214.783976 
L 152.21535 214.80703 
L 155.131615 214.64573 
L 158.031889 214.300719 
L 160.904609 213.773372 
L 163.738325 213.065791 
L 166.521741 212.180797 
L 169.243761 211.121918 
L 171.893535 209.893375 
L 174.460499 208.500064 
L 176.934421 206.947541 
L 179.305439 205.241993 
L 181.564101 203.390221 
L 183.701405 201.399605 
L 185.708829 199.278081 
L 187.578373 197.034105 
L 189.302582 194.676623 
L 190.874585 192.215033 
L 192.288114 189.659147 
L 193.537535 187.019154 
L 194.617867 184.305576 
L 195.524804 181.529233 
L 196.25473 178.70119 
L 196.804736 175.832722 
L 197.172629 172.935262 
L 197.356944 170.020361 
L 197.38 168.56 
L 197.38 168.56 
" clip-path="url(#pf6ce23501f)" style="fill: none; stroke: #1a7f37; stroke-width: 1.7; stroke-linecap: square"/>
   </g>
   <g id="line2d_2">
    <path d="M 228.22 168.56 
L 228.066328 163.694556 
L 227.605926 158.848507 
L 226.840629 154.041171 
L 225.773486 149.291711 
L 224.408753 144.61906 
L 222.75187 140.041844 
L 220.809441 135.578311 
L 218.589209 131.246252 
L 216.100026 127.062937 
L 213.351813 123.045041 
L 210.355525 119.208581 
L 207.123108 115.568851 
L 203.667445 112.140358 
L 200.002314 108.936771 
L 196.142322 105.97086 
L 192.102859 103.254447 
L 187.900026 100.798361 
L 183.550577 98.612393 
L 179.07185 96.705257 
L 174.481699 95.084555 
L 169.798422 93.756748 
L 165.040686 92.727128 
L 160.227459 91.9998 
L 155.377927 91.577664 
L 150.511421 91.462402 
L 145.647342 91.654473 
L 140.805078 92.153113 
L 136.003932 92.956333 
L 131.263044 94.060931 
L 126.601311 95.462504 
L 122.037316 97.155466 
L 117.589254 99.133067 
L 113.274855 101.387424 
L 109.111318 103.90955 
L 105.11524 106.689392 
L 101.302551 109.715869 
L 97.688448 112.976915 
L 94.28734 116.459532 
L 91.112783 120.149837 
L 88.177432 124.033119 
L 85.492989 128.093898 
L 83.070154 132.315987 
L 80.918586 136.682555 
L 79.046862 141.176196 
L 77.462442 145.778997 
L 76.171642 150.47261 
L 75.179609 155.238324 
L 74.490297 160.057142 
L 74.106453 164.909855 
L 74.029607 169.777119 
L 74.260067 174.639531 
L 74.796913 179.477708 
L 75.638005 184.272364 
L 76.77999 189.004386 
L 78.218317 193.654911 
L 79.947251 198.2054 
L 81.9599 202.637714 
L 84.248242 206.934183 
L 86.803154 211.077683 
L 89.614452 215.051694 
L 92.670929 218.840375 
L 95.960402 222.428625 
L 99.469757 225.802138 
L 103.185004 228.947467 
L 107.091335 231.852074 
L 111.173177 234.504381 
L 115.414259 236.893813 
L 119.797674 239.010847 
L 124.305949 240.847044 
L 128.921113 242.395083 
L 133.624768 243.648793 
L 138.398164 244.603178 
L 143.222273 245.254432 
L 148.077865 245.59996 
L 152.945584 245.638384 
L 157.806026 245.369551 
L 162.639814 244.794532 
L 167.427682 243.91562 
L 172.150542 242.736319 
L 176.789569 241.261329 
L 181.326269 239.49653 
L 185.742558 237.448958 
L 190.020831 235.126773 
L 194.144034 232.539235 
L 198.095731 229.696656 
L 201.860169 226.610368 
L 205.422342 223.292675 
L 208.768049 219.756801 
L 211.883954 216.016842 
L 214.757637 212.087706 
L 217.377641 207.985055 
L 219.733523 203.725245 
L 221.815891 199.325256 
L 223.616445 194.802627 
L 225.128006 190.175388 
L 226.34455 185.461984 
L 227.261227 180.681203 
L 227.874382 175.852103 
L 228.181573 170.993935 
L 228.22 168.56 
L 228.22 168.56 
" clip-path="url(#pf6ce23501f)" style="fill: none; stroke: #1a7f37; stroke-width: 1.7; stroke-linecap: square"/>
   </g>
   <g id="line2d_3">
    <path d="M 259.06 168.56 
L 258.84486 161.748378 
L 258.200297 154.963909 
L 257.12888 148.233639 
L 255.634881 141.584395 
L 253.724255 135.042684 
L 251.404618 128.634582 
L 248.685217 122.385635 
L 245.576893 116.320753 
L 242.092036 110.464112 
L 238.244538 104.839057 
L 234.049735 99.468014 
L 229.524351 94.372391 
L 224.686424 89.572502 
L 219.555239 85.08748 
L 214.151251 80.935204 
L 208.496003 77.132226 
L 202.612037 73.693706 
L 196.522808 70.633351 
L 190.252591 67.96336 
L 183.826379 65.694377 
L 177.26979 63.835447 
L 170.608961 62.393979 
L 163.870443 61.37572 
L 157.081098 60.78473 
L 150.26799 60.623363 
L 143.458279 60.892263 
L 136.679109 61.590358 
L 129.957505 62.714866 
L 123.320261 64.261303 
L 116.793835 66.223506 
L 110.404243 68.593652 
L 104.176956 71.362293 
L 98.136798 74.518393 
L 92.307846 78.04937 
L 86.713337 81.941149 
L 81.375571 86.178216 
L 76.315828 90.743682 
L 71.554275 95.619345 
L 67.109896 100.785772 
L 63.000405 106.222367 
L 59.242184 111.907458 
L 55.850216 117.818382 
L 52.838021 123.931577 
L 50.217606 130.222675 
L 47.999418 136.666596 
L 46.192299 143.237653 
L 44.803453 149.909653 
L 43.838416 156.655999 
L 43.301034 163.449798 
L 43.19345 170.263967 
L 43.516094 177.071344 
L 44.267678 183.844792 
L 45.445207 190.55731 
L 47.043986 197.182141 
L 49.057643 203.692875 
L 51.478151 210.06356 
L 54.29586 216.268799 
L 57.499539 222.283857 
L 61.076416 228.084756 
L 65.012233 233.648371 
L 69.291301 238.952526 
L 73.896563 243.976075 
L 78.809659 248.698993 
L 84.011006 253.102454 
L 89.479869 257.168904 
L 95.194448 260.882133 
L 101.131962 264.227339 
L 107.268743 267.191186 
L 113.580329 269.761861 
L 120.041558 271.929116 
L 126.626675 273.68431 
L 133.30943 275.020449 
L 140.063183 275.932205 
L 146.861012 276.415944 
L 153.675818 276.469737 
L 160.480436 276.093371 
L 167.24774 275.288345 
L 173.950755 274.057868 
L 180.562759 272.406846 
L 187.057396 270.341861 
L 193.408777 267.871142 
L 199.591581 265.004541 
L 205.581164 261.753483 
L 211.353648 258.130928 
L 216.886024 254.151318 
L 222.156237 249.830516 
L 227.143278 245.185745 
L 231.827269 240.235522 
L 236.189536 234.999579 
L 240.212692 229.498788 
L 243.880698 223.755078 
L 247.178932 217.791343 
L 250.094248 211.631358 
L 252.615023 205.299678 
L 254.731209 198.821543 
L 256.43437 192.222777 
L 257.717718 185.529684 
L 258.576135 178.768944 
L 259.006202 171.967509 
L 259.06 168.56 
L 259.06 168.56 
" clip-path="url(#pf6ce23501f)" style="fill: none; stroke: #1a7f37; stroke-width: 1.7; stroke-linecap: square"/>
   </g>
   <g id="text_1">
    <!-- 電流 $I$（出紙面） -->
    <g style="fill: #222831" transform="translate(108.935 200.428) scale(0.11 -0.11)">
     <defs>
      <path id="NotoSansCJKjp-Regular-a9c5" d="M 1261 3635 
L 1261 3334 
L 2618 3334 
L 2618 3635 
L 1261 3635 
z
M 1133 2982 
L 1133 2675 
L 2618 2675 
L 2618 2982 
L 1133 2982 
z
M 3757 2982 
L 3757 2675 
L 5293 2675 
L 5293 2982 
L 3757 2982 
z
M 3757 3635 
L 3757 3334 
L 5133 3334 
L 5133 3635 
L 3757 3635 
z
M 4915 1184 
L 4915 742 
L 3392 742 
L 3392 1184 
L 4915 1184 
z
M 4915 1504 
L 3392 1504 
L 3392 1946 
L 4915 1946 
L 4915 1504 
z
M 2925 1184 
L 2925 742 
L 1504 742 
L 1504 1184 
L 2925 1184 
z
M 2925 1504 
L 1504 1504 
L 1504 1946 
L 2925 1946 
L 2925 1504 
z
M 1043 2298 
L 1043 58 
L 1504 58 
L 1504 390 
L 2925 390 
L 2925 192 
C 2925 -333 3130 -461 3846 -461 
C 4006 -461 5171 -461 5338 -461 
C 5939 -461 6093 -256 6157 525 
C 6029 550 5843 614 5741 685 
C 5709 38 5645 -70 5306 -70 
C 5050 -70 4064 -70 3872 -70 
C 3469 -70 3392 -26 3392 192 
L 3392 390 
L 5389 390 
L 5389 2298 
L 1043 2298 
z
M 486 4339 
L 486 3085 
L 922 3085 
L 922 3987 
L 2944 3987 
L 2944 2515 
L 3418 2515 
L 3418 3987 
L 5472 3987 
L 5472 3085 
L 5920 3085 
L 5920 4339 
L 3418 4339 
L 3418 4730 
L 5536 4730 
L 5536 5101 
L 858 5101 
L 858 4730 
L 2944 4730 
L 2944 4339 
L 486 4339 
z
" transform="scale(0.015625)"/>
      <path id="NotoSansCJKjp-Regular-5b71" d="M 3712 2310 
L 3712 -237 
L 4147 -237 
L 4147 2310 
L 3712 2310 
z
M 2592 2349 
L 2592 1683 
C 2592 1088 2509 358 1722 -186 
C 1837 -256 1997 -403 2061 -499 
C 2925 122 3027 960 3027 1670 
L 3027 2349 
L 2592 2349 
z
M 582 4973 
C 992 4787 1485 4480 1728 4243 
L 2003 4640 
C 1754 4864 1254 5146 845 5318 
L 582 4973 
z
M 243 3238 
C 659 3059 1158 2771 1408 2554 
L 1683 2957 
C 1427 3168 915 3443 506 3597 
L 243 3238 
z
M 429 -115 
L 845 -422 
C 1197 179 1619 986 1939 1664 
L 1574 1965 
C 1222 1229 755 384 429 -115 
z
M 4851 2349 
L 4851 275 
C 4851 -115 4883 -218 4973 -301 
C 5062 -378 5203 -416 5325 -416 
C 5395 -416 5568 -416 5645 -416 
C 5754 -416 5882 -390 5952 -346 
C 6035 -294 6093 -211 6125 -96 
C 6157 26 6176 358 6189 640 
C 6074 678 5933 749 5850 826 
C 5843 518 5837 282 5824 179 
C 5805 77 5786 26 5760 6 
C 5728 -19 5677 -26 5619 -26 
C 5568 -26 5478 -26 5440 -26 
C 5395 -26 5350 -13 5338 6 
C 5299 32 5299 96 5299 230 
L 5299 2349 
L 4851 2349 
z
M 2093 3053 
L 2150 2598 
C 3008 2630 4237 2694 5421 2758 
C 5549 2598 5651 2445 5728 2317 
L 6118 2547 
C 5894 2938 5376 3494 4915 3885 
L 4550 3680 
C 4723 3526 4909 3341 5082 3155 
L 3334 3091 
C 3520 3398 3725 3770 3898 4109 
L 6086 4109 
L 6086 4544 
L 4198 4544 
L 4198 5376 
L 3712 5376 
L 3712 4544 
L 2016 4544 
L 2016 4109 
L 3354 4109 
C 3213 3776 3014 3379 2835 3078 
L 2093 3053 
z
" transform="scale(0.015625)"/>
      <path id="NotoSansCJKjp-Regular-1" transform="scale(0.015625)"/>
      <path id="Cmmi10-7b" d="M 269 0 
Q 206 0 206 84 
Q 231 225 288 225 
Q 666 225 800 250 
Q 947 284 984 441 
L 1863 3956 
Q 1875 4019 1875 4038 
Q 1875 4078 1854 4095 
Q 1834 4113 1791 4122 
Q 1663 4147 1306 4147 
Q 1241 4147 1241 4231 
Q 1263 4313 1275 4342 
Q 1288 4372 1350 4372 
L 3138 4372 
Q 3200 4372 3200 4288 
Q 3197 4272 3187 4234 
Q 3178 4197 3162 4172 
Q 3147 4147 3116 4147 
Q 2741 4147 2597 4122 
Q 2456 4088 2419 3928 
L 1544 416 
Q 1528 338 1528 331 
Q 1528 316 1533 302 
Q 1538 288 1552 277 
Q 1566 266 1580 261 
Q 1594 256 1613 250 
Q 1734 225 2100 225 
Q 2163 225 2163 141 
Q 2141 50 2128 25 
Q 2116 0 2053 0 
L 269 0 
z
" transform="scale(0.015625)"/>
      <path id="NotoSansCJKjp-Regular-e6ae" d="M 4448 2432 
C 4448 1184 4954 166 5722 -614 
L 6106 -416 
C 5370 346 4915 1293 4915 2432 
C 4915 3571 5370 4518 6106 5280 
L 5722 5478 
C 4954 4698 4448 3680 4448 2432 
z
" transform="scale(0.015625)"/>
      <path id="NotoSansCJKjp-Regular-2b73" d="M 966 4768 
L 966 2560 
L 2918 2560 
L 2918 365 
L 1203 365 
L 1203 2144 
L 723 2144 
L 723 -512 
L 1203 -512 
L 1203 -109 
L 5222 -109 
L 5222 -499 
L 5715 -499 
L 5715 2144 
L 5222 2144 
L 5222 365 
L 3418 365 
L 3418 2560 
L 5459 2560 
L 5459 4768 
L 4960 4768 
L 4960 3021 
L 3418 3021 
L 3418 5344 
L 2918 5344 
L 2918 3021 
L 1446 3021 
L 1446 4768 
L 966 4768 
z
" transform="scale(0.015625)"/>
      <path id="NotoSansCJKjp-Regular-788a" d="M 1997 1626 
C 2170 1248 2336 749 2394 429 
L 2790 563 
C 2726 883 2547 1370 2368 1747 
L 1997 1626 
z
M 595 1722 
C 518 1165 397 589 192 198 
C 294 160 486 70 570 13 
C 768 422 922 1043 1005 1651 
L 595 1722 
z
M 5542 5382 
C 5030 5139 4122 4922 3315 4774 
L 3046 4864 
L 3046 141 
L 2554 45 
L 2733 -410 
C 3315 -275 4064 -96 4774 83 
L 4723 493 
L 3507 237 
L 3507 2490 
L 4544 2490 
C 4659 909 4890 -262 5478 -448 
C 5862 -646 6157 -333 6259 678 
C 6157 736 5990 851 5901 947 
C 5856 346 5779 -51 5677 -19 
C 5286 77 5088 1101 4992 2490 
L 6157 2490 
L 6157 2950 
L 4966 2950 
C 4934 3494 4922 4090 4915 4691 
C 5286 4787 5638 4896 5920 5011 
L 5542 5382 
z
M 3507 4397 
C 3814 4448 4141 4512 4461 4582 
C 4474 4013 4493 3462 4518 2950 
L 3507 2950 
L 3507 4397 
z
M 186 2502 
L 250 2067 
L 1325 2163 
L 1325 -506 
L 1760 -506 
L 1760 2202 
L 2394 2266 
C 2464 2118 2515 1984 2554 1869 
L 2925 2048 
C 2810 2400 2509 2938 2214 3341 
L 1862 3181 
C 1978 3014 2093 2829 2202 2637 
L 1152 2560 
C 1594 3117 2093 3853 2464 4448 
L 2054 4640 
C 1869 4282 1613 3846 1338 3430 
C 1235 3571 1094 3731 941 3891 
C 1184 4250 1466 4774 1696 5210 
L 1267 5382 
C 1126 5024 890 4525 672 4154 
L 480 4320 
L 243 4000 
C 550 3731 896 3354 1082 3066 
C 947 2874 813 2688 678 2534 
L 186 2502 
z
" transform="scale(0.015625)"/>
      <path id="NotoSansCJKjp-Regular-aaab" d="M 2490 2138 
L 3846 2138 
L 3846 1414 
L 2490 1414 
L 2490 2138 
z
M 2490 2528 
L 2490 3238 
L 3846 3238 
L 3846 2528 
L 2490 2528 
z
M 2490 1024 
L 3846 1024 
L 3846 275 
L 2490 275 
L 2490 1024 
z
M 371 4954 
L 371 4493 
L 2842 4493 
C 2797 4230 2726 3930 2662 3686 
L 666 3686 
L 666 -512 
L 1126 -512 
L 1126 -173 
L 5248 -173 
L 5248 -512 
L 5734 -512 
L 5734 3686 
L 3155 3686 
L 3405 4493 
L 6048 4493 
L 6048 4954 
L 371 4954 
z
M 1126 275 
L 1126 3238 
L 2048 3238 
L 2048 275 
L 1126 275 
z
M 5248 275 
L 4288 275 
L 4288 3238 
L 5248 3238 
L 5248 275 
z
" transform="scale(0.015625)"/>
      <path id="NotoSansCJKjp-Regular-e6af" d="M 1952 2432 
C 1952 3680 1446 4698 678 5478 
L 294 5280 
C 1030 4518 1485 3571 1485 2432 
C 1485 1293 1030 346 294 -416 
L 678 -614 
C 1446 166 1952 1184 1952 2432 
z
" transform="scale(0.015625)"/>
     </defs>
     <use xlink:href="#NotoSansCJKjp-Regular-a9c5" transform="translate(0 0.40625)"/>
     <use xlink:href="#NotoSansCJKjp-Regular-5b71" transform="translate(99.999908 0.40625)"/>
     <use xlink:href="#NotoSansCJKjp-Regular-1" transform="translate(199.999817 0.40625)"/>
     <use xlink:href="#Cmmi10-7b" transform="translate(222.399796 0.40625)"/>
     <use xlink:href="#NotoSansCJKjp-Regular-e6ae" transform="translate(266.29628 0.40625)"/>
     <use xlink:href="#NotoSansCJKjp-Regular-2b73" transform="translate(366.296188 0.40625)"/>
     <use xlink:href="#NotoSansCJKjp-Regular-788a" transform="translate(466.296097 0.40625)"/>
     <use xlink:href="#NotoSansCJKjp-Regular-aaab" transform="translate(566.296005 0.40625)"/>
     <use xlink:href="#NotoSansCJKjp-Regular-e6af" transform="translate(666.295914 0.40625)"/>
    </g>
   </g>
   <g id="patch_2">
    <path d="M 188.276499 141.00311 
Q 186.493448 138.878153 185.716519 137.952245 
" clip-path="url(#pf6ce23501f)" style="fill: none; stroke: #1a7f37; stroke-width: 1.4; stroke-linecap: round"/>
    <path d="M 187.067299 143.606923 
L 185.716519 137.952245 
L 191.05073 140.264428 
z
" clip-path="url(#pf6ce23501f)" style="fill: #1a7f37; stroke: #1a7f37; stroke-width: 1.4; stroke-linecap: round"/>
   </g>
   <g id="patch_3">
    <path d="M 213.047498 122.63185 
Q 210.075747 119.090255 208.110117 116.747708 
" clip-path="url(#pf6ce23501f)" style="fill: none; stroke: #1a7f37; stroke-width: 1.4; stroke-linecap: round"/>
    <path d="M 209.460897 122.402387 
L 208.110117 116.747708 
L 213.444328 119.059891 
z
" clip-path="url(#pf6ce23501f)" style="fill: #1a7f37; stroke: #1a7f37; stroke-width: 1.4; stroke-linecap: round"/>
   </g>
   <g id="patch_4">
    <path d="M 237.818498 104.26059 
Q 233.658046 99.302356 230.503715 95.543172 
" clip-path="url(#pf6ce23501f)" style="fill: none; stroke: #1a7f37; stroke-width: 1.4; stroke-linecap: round"/>
    <path d="M 231.854495 101.197851 
L 230.503715 95.543172 
L 235.837926 97.855355 
z
" clip-path="url(#pf6ce23501f)" style="fill: #1a7f37; stroke: #1a7f37; stroke-width: 1.4; stroke-linecap: round"/>
   </g>
   <g id="text_2">
    <!-- 磁場 $B$ -->
    <g style="fill: #1a7f37" transform="translate(250.325 54.76) scale(0.11 -0.11)">
     <defs>
      <path id="NotoSansCJKjp-Regular-6fb7" d="M 5178 5344 
C 5082 5037 4896 4595 4742 4314 
L 4813 4288 
L 3603 4288 
L 3744 4346 
C 3661 4614 3456 5018 3238 5325 
L 2848 5178 
C 3027 4909 3200 4557 3290 4288 
L 2355 4288 
L 2355 3872 
L 6144 3872 
L 6144 4288 
L 5184 4288 
C 5338 4544 5517 4890 5670 5197 
L 5178 5344 
z
M 5600 2835 
C 5472 2502 5299 2112 5114 1722 
C 5011 1882 4877 2067 4723 2253 
C 4934 2650 5178 3226 5370 3699 
L 4947 3808 
C 4832 3437 4646 2944 4461 2547 
L 4333 2675 
L 4109 2342 
C 4403 2035 4730 1600 4896 1286 
C 4672 851 4435 442 4224 115 
C 4141 480 4006 902 3859 1254 
L 3507 1107 
C 3597 870 3686 595 3757 326 
L 2893 218 
C 3328 934 3821 1920 4186 2714 
L 3789 2867 
C 3661 2534 3494 2157 3315 1773 
C 3206 1933 3066 2118 2912 2304 
C 3130 2688 3373 3245 3565 3706 
L 3142 3821 
C 3027 3456 2835 2976 2656 2598 
L 2515 2739 
L 2291 2400 
C 2586 2086 2912 1664 3104 1344 
C 2880 909 2650 493 2438 160 
L 2118 122 
L 2208 -301 
L 3853 -64 
C 3878 -186 3891 -301 3904 -403 
L 4269 -256 
L 4282 -314 
L 5766 -70 
C 5798 -211 5830 -346 5850 -461 
L 6234 -294 
C 6163 134 5946 781 5696 1280 
L 5338 1120 
C 5453 877 5562 595 5651 320 
L 4691 179 
C 5133 890 5645 1888 6003 2688 
L 5600 2835 
z
M 282 4954 
L 282 4512 
L 998 4512 
C 858 3411 614 2374 173 1690 
C 262 1587 403 1376 461 1274 
C 563 1427 653 1600 736 1786 
L 736 -269 
L 1133 -269 
L 1133 230 
L 2278 230 
L 2278 3034 
L 1165 3034 
C 1280 3501 1376 4000 1446 4512 
L 2406 4512 
L 2406 4954 
L 282 4954 
z
M 1133 2605 
L 1869 2605 
L 1869 653 
L 1133 653 
L 1133 2605 
z
" transform="scale(0.015625)"/>
      <path id="NotoSansCJKjp-Regular-3559" d="M 3181 3974 
L 5242 3974 
L 5242 3469 
L 3181 3469 
L 3181 3974 
z
M 3181 4826 
L 5242 4826 
L 5242 4320 
L 3181 4320 
L 3181 4826 
z
M 2746 5184 
L 2746 3104 
L 5690 3104 
L 5690 5184 
L 2746 5184 
z
M 2118 2746 
L 2118 2330 
L 3014 2330 
C 2707 1805 2240 1350 1734 1043 
C 1837 979 1997 826 2067 749 
C 2355 947 2650 1197 2906 1485 
L 3552 1485 
C 3200 902 2637 326 2106 38 
C 2221 -38 2349 -160 2426 -262 
C 3021 115 3654 819 3994 1485 
L 4614 1485 
C 4346 794 3872 90 3347 -262 
C 3475 -326 3622 -442 3706 -538 
C 4256 -115 4755 710 5011 1485 
L 5510 1485 
C 5427 474 5338 64 5222 -51 
C 5178 -109 5120 -122 5030 -122 
C 4941 -122 4723 -115 4486 -90 
C 4550 -198 4589 -371 4595 -486 
C 4845 -499 5094 -499 5229 -486 
C 5382 -474 5498 -442 5600 -326 
C 5773 -141 5875 358 5978 1690 
C 5984 1754 5990 1882 5990 1882 
L 3219 1882 
C 3322 2022 3411 2176 3494 2330 
L 6150 2330 
L 6150 2746 
L 2118 2746 
z
M 218 1139 
L 403 659 
C 941 922 1645 1267 2298 1594 
L 2195 2016 
L 1542 1722 
L 1542 3533 
L 2234 3533 
L 2234 3994 
L 1542 3994 
L 1542 5325 
L 1088 5325 
L 1088 3994 
L 339 3994 
L 339 3533 
L 1088 3533 
L 1088 1517 
C 755 1370 454 1235 218 1139 
z
" transform="scale(0.015625)"/>
      <path id="Cmmi10-34" d="M 319 0 
Q 256 0 256 84 
Q 259 100 268 137 
Q 278 175 293 200 
Q 309 225 341 225 
Q 522 225 656 234 
Q 791 244 884 269 
Q 959 297 1006 441 
L 1881 3956 
Q 1894 4019 1894 4044 
Q 1894 4113 1819 4122 
Q 1697 4147 1356 4147 
Q 1294 4147 1294 4231 
Q 1297 4247 1306 4286 
Q 1316 4325 1333 4348 
Q 1350 4372 1375 4372 
L 3669 4372 
Q 3878 4372 4083 4320 
Q 4288 4269 4461 4156 
Q 4634 4044 4736 3876 
Q 4838 3709 4838 3488 
Q 4838 3247 4714 3040 
Q 4591 2834 4395 2681 
Q 4200 2528 3973 2429 
Q 3747 2331 3500 2284 
Q 3675 2284 3854 2215 
Q 4034 2147 4175 2028 
Q 4316 1909 4402 1743 
Q 4488 1578 4488 1388 
Q 4488 1003 4219 684 
Q 3950 366 3542 183 
Q 3134 0 2753 0 
L 319 0 
z
M 1497 275 
Q 1497 225 1716 225 
L 2631 225 
Q 2944 225 3231 398 
Q 3519 572 3692 859 
Q 3866 1147 3866 1459 
Q 3866 1650 3786 1820 
Q 3706 1991 3556 2089 
Q 3406 2188 3213 2188 
L 1966 2188 
L 1522 416 
Q 1497 328 1497 275 
z
M 2009 2356 
L 2981 2356 
Q 3288 2356 3577 2512 
Q 3866 2669 4048 2937 
Q 4231 3206 4231 3506 
Q 4231 3784 4057 3965 
Q 3884 4147 3609 4147 
L 2731 4147 
Q 2559 4147 2500 4115 
Q 2441 4084 2400 3928 
L 2009 2356 
z
" transform="scale(0.015625)"/>
     </defs>
     <use xlink:href="#NotoSansCJKjp-Regular-6fb7" transform="translate(0 0.5)"/>
     <use xlink:href="#NotoSansCJKjp-Regular-3559" transform="translate(99.999908 0.5)"/>
     <use xlink:href="#NotoSansCJKjp-Regular-1" transform="translate(199.999817 0.5)"/>
     <use xlink:href="#Cmmi10-34" transform="translate(222.399796 0.5)"/>
    </g>
    <!-- （同心圓） -->
    <g style="fill: #1a7f37" transform="translate(239.27 65.76) scale(0.11 -0.11)">
     <defs>
      <path id="NotoSansCJKjp-Regular-2eb1" d="M 1587 3917 
L 1587 3501 
L 4838 3501 
L 4838 3917 
L 1587 3917 
z
M 2355 2419 
L 4045 2419 
L 4045 1203 
L 2355 1203 
L 2355 2419 
z
M 1914 2829 
L 1914 326 
L 2355 326 
L 2355 794 
L 4493 794 
L 4493 2829 
L 1914 2829 
z
M 563 5043 
L 563 -525 
L 1030 -525 
L 1030 4589 
L 5376 4589 
L 5376 102 
C 5376 -13 5338 -51 5222 -58 
C 5114 -58 4742 -64 4339 -51 
C 4416 -173 4486 -390 4512 -518 
C 5062 -518 5389 -506 5581 -429 
C 5779 -352 5850 -198 5850 96 
L 5850 5043 
L 563 5043 
z
" transform="scale(0.015625)"/>
      <path id="NotoSansCJKjp-Regular-444f" d="M 1952 3590 
L 1952 378 
C 1952 -250 2144 -429 2829 -429 
C 2970 -429 3923 -429 4077 -429 
C 4774 -429 4928 -70 4998 1139 
C 4858 1178 4659 1267 4544 1357 
C 4493 250 4435 19 4051 19 
C 3834 19 3034 19 2867 19 
C 2515 19 2445 70 2445 371 
L 2445 3590 
L 1952 3590 
z
M 2003 4979 
C 2771 4704 3706 4224 4198 3859 
L 4512 4282 
C 4006 4621 3072 5088 2304 5350 
L 2003 4979 
z
M 883 3072 
C 787 2240 582 1306 154 742 
L 589 486 
C 1043 1101 1248 2118 1344 2976 
L 883 3072 
z
M 4614 3072 
C 5152 2349 5632 1350 5779 678 
L 6253 902 
C 6099 1581 5619 2554 5043 3283 
L 4614 3072 
z
" transform="scale(0.015625)"/>
      <path id="NotoSansCJKjp-Regular-33a8" d="M 2330 4013 
L 4051 4013 
L 4051 3648 
L 2330 3648 
L 2330 4013 
z
M 1926 4282 
L 1926 3373 
L 4474 3373 
L 4474 4282 
L 1926 4282 
z
M 2061 2304 
L 4301 2304 
L 4301 2003 
L 2061 2003 
L 2061 2304 
z
M 2061 1741 
L 4301 1741 
L 4301 1427 
L 2061 1427 
L 2061 1741 
z
M 2061 2861 
L 4301 2861 
L 4301 2566 
L 2061 2566 
L 2061 2861 
z
M 3482 966 
C 3923 800 4390 570 4653 390 
L 5050 582 
C 4749 768 4237 992 3782 1158 
L 4730 1158 
L 4730 3130 
L 1651 3130 
L 1651 1158 
L 2509 1158 
C 2221 966 1760 800 1338 678 
C 1421 608 1568 467 1632 397 
C 2048 544 2560 800 2886 1043 
L 2541 1158 
L 3757 1158 
L 3482 966 
z
M 525 5082 
L 525 -531 
L 986 -531 
L 986 -230 
L 5402 -230 
L 5402 -531 
L 5875 -531 
L 5875 5082 
L 525 5082 
z
M 986 205 
L 986 4640 
L 5402 4640 
L 5402 205 
L 986 205 
z
" transform="scale(0.015625)"/>
     </defs>
     <use xlink:href="#NotoSansCJKjp-Regular-e6ae"/>
     <use xlink:href="#NotoSansCJKjp-Regular-2eb1" transform="translate(100 0)"/>
     <use xlink:href="#NotoSansCJKjp-Regular-444f" transform="translate(200 0)"/>
     <use xlink:href="#NotoSansCJKjp-Regular-33a8" transform="translate(300 0)"/>
     <use xlink:href="#NotoSansCJKjp-Regular-e6af" transform="translate(400 0)"/>
    </g>
   </g>
   <g id="text_3">
    <!-- 直導線周圍的磁場 -->
    <g style="fill: #222831" transform="translate(99.12 18.64) scale(0.13 -0.13)">
     <defs>
      <path id="NotoSansCJKjp-Regular-6ce1" d="M 2374 2586 
L 4832 2586 
L 4832 2061 
L 2374 2061 
L 2374 2586 
z
M 2374 1715 
L 4832 1715 
L 4832 1178 
L 2374 1178 
L 2374 1715 
z
M 2374 3456 
L 4832 3456 
L 4832 2931 
L 2374 2931 
L 2374 3456 
z
M 736 3635 
L 736 -518 
L 1203 -518 
L 1203 -179 
L 6080 -179 
L 6080 269 
L 1203 269 
L 1203 3635 
L 736 3635 
z
M 3053 5395 
L 3008 4787 
L 397 4787 
L 397 4339 
L 2963 4339 
L 2899 3814 
L 1914 3814 
L 1914 813 
L 5306 813 
L 5306 3814 
L 3379 3814 
L 3469 4339 
L 6029 4339 
L 6029 4787 
L 3533 4787 
L 3603 5363 
L 3053 5395 
z
" transform="scale(0.015625)"/>
      <path id="NotoSansCJKjp-Regular-3d75" d="M 512 4986 
C 838 4749 1210 4403 1376 4154 
L 1715 4454 
C 1542 4698 1158 5030 838 5248 
L 512 4986 
z
M 2861 3322 
L 5075 3322 
L 5075 3040 
L 2861 3040 
L 2861 3322 
z
M 2861 2778 
L 5075 2778 
L 5075 2490 
L 2861 2490 
L 2861 2778 
z
M 2861 3859 
L 5075 3859 
L 5075 3578 
L 2861 3578 
L 2861 3859 
z
M 1613 3706 
L 326 3706 
L 326 3322 
L 1171 3322 
L 1171 2413 
C 877 2221 557 2042 288 1907 
L 474 1504 
C 813 1722 1139 1933 1446 2150 
C 1779 1760 2266 1594 2938 1568 
C 3264 1562 3744 1555 4243 1555 
L 4243 1171 
L 294 1171 
L 294 787 
L 4243 787 
L 4243 6 
C 4243 -77 4218 -96 4109 -102 
C 4006 -109 3642 -115 3238 -96 
C 3296 -218 3366 -390 3392 -512 
C 3917 -512 4250 -512 4448 -442 
C 4653 -378 4704 -250 4704 0 
L 4704 787 
L 6112 787 
L 6112 1171 
L 4704 1171 
L 4704 1562 
C 5210 1562 5690 1574 6029 1587 
C 6048 1702 6112 1882 6157 1978 
C 5338 1926 3667 1914 2931 1933 
C 2342 1952 1862 2125 1613 2490 
L 1613 3706 
z
M 1395 506 
C 1734 294 2150 -26 2330 -262 
L 2682 45 
C 2483 275 2067 582 1722 787 
L 1395 506 
z
M 4883 5389 
C 4806 5216 4640 4973 4518 4794 
L 3443 4794 
C 3373 4966 3232 5210 3078 5376 
L 2688 5280 
C 2790 5139 2906 4954 2982 4794 
L 1901 4794 
L 1901 4442 
L 3667 4442 
L 3590 4122 
L 2413 4122 
L 2413 2227 
L 5542 2227 
L 5542 4122 
L 4006 4122 
L 4122 4442 
L 6074 4442 
L 6074 4794 
L 4979 4794 
C 5094 4934 5222 5107 5338 5286 
L 4883 5389 
z
" transform="scale(0.015625)"/>
      <path id="NotoSansCJKjp-Regular-7a17" d="M 3258 3405 
L 5414 3405 
L 5414 2848 
L 3258 2848 
L 3258 3405 
z
M 3258 4326 
L 5414 4326 
L 5414 3770 
L 3258 3770 
L 3258 4326 
z
M 1894 1632 
C 2048 1267 2182 781 2208 474 
L 2586 589 
C 2541 902 2406 1370 2246 1734 
L 1894 1632 
z
M 570 1715 
C 493 1158 378 582 166 192 
C 269 154 454 70 538 13 
C 736 422 890 1043 973 1651 
L 570 1715 
z
M 2816 4717 
L 2816 2451 
L 4109 2451 
L 4109 6 
C 4109 -64 4090 -83 4006 -90 
C 3930 -90 3674 -90 3386 -83 
C 3443 -211 3501 -384 3520 -506 
C 3917 -506 4173 -499 4339 -435 
C 4506 -358 4544 -237 4544 6 
L 4544 1325 
C 4819 717 5254 109 5952 -250 
C 6016 -128 6157 51 6246 141 
C 5754 358 5382 698 5114 1088 
C 5427 1306 5798 1613 6106 1894 
L 5715 2176 
C 5523 1946 5203 1645 4922 1408 
C 4742 1734 4627 2074 4544 2400 
L 4544 2451 
L 5875 2451 
L 5875 4717 
L 4365 4717 
C 4467 4890 4570 5088 4659 5280 
L 4128 5382 
C 4077 5190 3968 4934 3872 4717 
L 2816 4717 
z
M 2573 1901 
L 2573 1491 
L 3443 1491 
C 3219 826 2803 352 2291 77 
C 2381 13 2534 -154 2592 -250 
C 3226 115 3738 787 3962 1805 
L 3699 1914 
L 3622 1901 
L 2573 1901 
z
M 179 2547 
L 237 2118 
L 1248 2182 
L 1248 -512 
L 1670 -512 
L 1670 2208 
L 2176 2240 
C 2234 2086 2285 1946 2310 1824 
L 2694 2003 
C 2598 2349 2342 2906 2074 3322 
L 1722 3181 
C 1824 3014 1920 2829 2010 2637 
L 1088 2592 
C 1517 3136 2010 3866 2374 4454 
L 1971 4646 
C 1792 4301 1549 3878 1286 3475 
C 1190 3610 1075 3750 941 3898 
C 1178 4256 1459 4781 1677 5216 
L 1254 5376 
C 1120 5018 890 4531 685 4166 
L 486 4346 
L 237 4038 
C 525 3763 845 3398 1037 3104 
C 896 2912 762 2726 634 2566 
L 179 2547 
z
" transform="scale(0.015625)"/>
      <path id="NotoSansCJKjp-Regular-2f3d" d="M 947 5069 
L 947 2995 
C 947 2003 883 691 211 -243 
C 320 -301 512 -454 595 -550 
C 1318 442 1421 1933 1421 2995 
L 1421 4621 
L 5152 4621 
L 5152 96 
C 5152 -13 5107 -51 4992 -58 
C 4883 -64 4486 -70 4070 -51 
C 4141 -173 4211 -384 4230 -506 
C 4806 -506 5152 -499 5350 -422 
C 5555 -346 5632 -205 5632 96 
L 5632 5069 
L 947 5069 
z
M 2989 4493 
L 2989 3936 
L 1843 3936 
L 1843 3552 
L 2989 3552 
L 2989 2925 
L 1683 2925 
L 1683 2528 
L 4819 2528 
L 4819 2925 
L 3450 2925 
L 3450 3552 
L 4659 3552 
L 4659 3936 
L 3450 3936 
L 3450 4493 
L 2989 4493 
z
M 1997 1990 
L 1997 -51 
L 2438 -51 
L 2438 307 
L 4486 307 
L 4486 1990 
L 1997 1990 
z
M 2438 1600 
L 4038 1600 
L 4038 691 
L 2438 691 
L 2438 1600 
z
" transform="scale(0.015625)"/>
      <path id="NotoSansCJKjp-Regular-339e" d="M 2214 2758 
L 4173 2758 
L 4173 2342 
L 2214 2342 
L 2214 2758 
z
M 1747 4230 
L 1747 3949 
L 2592 3949 
L 2464 3565 
L 1357 3565 
L 1357 3270 
L 5062 3270 
L 5062 3565 
L 4448 3565 
L 4448 4230 
L 3098 4230 
L 3181 4538 
L 2771 4589 
L 2675 4230 
L 1747 4230 
z
M 2893 3565 
L 3014 3949 
L 4045 3949 
L 4045 3565 
L 2893 3565 
z
M 1766 1446 
C 1728 1190 1658 896 1594 685 
L 1965 640 
L 2010 826 
L 3251 826 
L 3251 346 
L 3686 346 
L 3686 826 
L 5043 826 
L 5043 1126 
L 3686 1126 
L 3686 1510 
L 4826 1510 
L 4826 1805 
L 3686 1805 
L 3686 2080 
L 4602 2080 
L 4602 3021 
L 1798 3021 
L 1798 2080 
L 3251 2080 
L 3251 1805 
L 1510 1805 
L 1510 1510 
L 3251 1510 
L 3251 1126 
L 2086 1126 
L 2144 1408 
L 1766 1446 
z
M 525 5094 
L 525 -512 
L 979 -512 
L 979 -243 
L 5402 -243 
L 5402 -512 
L 5875 -512 
L 5875 5094 
L 525 5094 
z
M 979 192 
L 979 4659 
L 5402 4659 
L 5402 192 
L 979 192 
z
" transform="scale(0.015625)"/>
      <path id="NotoSansCJKjp-Regular-6c33" d="M 3533 2707 
C 3885 2240 4320 1600 4512 1210 
L 4922 1466 
C 4710 1843 4269 2464 3904 2918 
L 3533 2707 
z
M 1536 5389 
C 1485 5082 1376 4659 1274 4346 
L 557 4346 
L 557 -346 
L 998 -346 
L 998 160 
L 2784 160 
L 2784 4346 
L 1715 4346 
C 1824 4621 1946 4979 2054 5299 
L 1536 5389 
z
M 998 3917 
L 2342 3917 
L 2342 2566 
L 998 2566 
L 998 3917 
z
M 998 595 
L 998 2144 
L 2342 2144 
L 2342 595 
L 998 595 
z
M 3827 5402 
C 3622 4518 3277 3635 2835 3066 
C 2950 3002 3149 2867 3238 2790 
C 3456 3098 3661 3488 3840 3923 
L 5478 3923 
C 5402 1357 5299 371 5094 154 
C 5018 64 4947 45 4819 45 
C 4672 45 4288 51 3866 83 
C 3955 -38 4013 -243 4026 -378 
C 4384 -397 4762 -410 4979 -390 
C 5210 -365 5350 -314 5498 -122 
C 5754 192 5843 1184 5939 4122 
C 5946 4186 5946 4365 5946 4365 
L 4013 4365 
C 4115 4666 4211 4986 4288 5299 
L 3827 5402 
z
" transform="scale(0.015625)"/>
     </defs>
     <use xlink:href="#NotoSansCJKjp-Regular-6ce1"/>
     <use xlink:href="#NotoSansCJKjp-Regular-3d75" transform="translate(100 0)"/>
     <use xlink:href="#NotoSansCJKjp-Regular-7a17" transform="translate(200 0)"/>
     <use xlink:href="#NotoSansCJKjp-Regular-2f3d" transform="translate(300 0)"/>
     <use xlink:href="#NotoSansCJKjp-Regular-339e" transform="translate(400 0)"/>
     <use xlink:href="#NotoSansCJKjp-Regular-6c33" transform="translate(500 0)"/>
     <use xlink:href="#NotoSansCJKjp-Regular-6fb7" transform="translate(600 0)"/>
     <use xlink:href="#NotoSansCJKjp-Regular-3559" transform="translate(700 0)"/>
    </g>
   </g>
   <g id="patch_5">
    <path d="M 151.12 186.036 
C 155.754689 186.036 160.200178 184.194618 163.477398 180.917398 
C 166.754618 177.640178 168.596 173.194689 168.596 168.56 
C 168.596 163.925311 166.754618 159.479822 163.477398 156.202602 
C 160.200178 152.925382 155.754689 151.084 151.12 151.084 
C 146.485311 151.084 142.039822 152.925382 138.762602 156.202602 
C 135.485382 159.479822 133.644 163.925311 133.644 168.56 
C 133.644 173.194689 135.485382 177.640178 138.762602 180.917398 
C 142.039822 184.194618 146.485311 186.036 151.12 186.036 
z
" clip-path="url(#pf6ce23501f)" style="fill: #dbe7ff; stroke: #222831; stroke-width: 1.6; stroke-linejoin: miter"/>
   </g>
   <g id="patch_6">
    <path d="M 151.12 173.7 
C 152.483144 173.7 153.790641 173.158417 154.754529 172.194529 
C 155.718417 171.230641 156.26 169.923144 156.26 168.56 
C 156.26 167.196856 155.718417 165.889359 154.754529 164.925471 
C 153.790641 163.961583 152.483144 163.42 151.12 163.42 
C 149.756856 163.42 148.449359 163.961583 147.485471 164.925471 
C 146.521583 165.889359 145.98 167.196856 145.98 168.56 
C 145.98 169.923144 146.521583 171.230641 147.485471 172.194529 
C 148.449359 173.158417 149.756856 173.7 151.12 173.7 
z
" clip-path="url(#pf6ce23501f)" style="fill: #222831; stroke: #222831; stroke-linejoin: miter"/>
   </g>
  </g>
  <g id="axes_2">
   <g id="line2d_4">
    <path d="M 557.196161 215.057231 
L 557.044595 213.793358 
L 556.590509 212.534574 
L 555.835731 211.285948 
L 554.783299 210.052508 
L 553.437453 208.83922 
L 551.80361 207.65097 
L 549.888351 206.492542 
L 547.699386 205.368601 
L 545.245531 204.283673 
L 542.536666 203.242126 
L 539.583698 202.248155 
L 536.398519 201.305761 
L 532.993953 200.418739 
L 529.383711 199.590662 
L 525.582328 198.824862 
L 521.605112 198.124425 
L 517.468078 197.492171 
L 513.187883 196.930644 
L 508.781764 196.442107 
L 504.267461 196.028527 
L 499.663153 195.691568 
L 494.987378 195.432588 
L 490.258966 195.252629 
L 485.496955 195.152417 
L 480.720521 195.132354 
L 475.948896 195.192522 
L 471.201294 195.332678 
L 466.496832 195.552258 
L 461.854453 195.850377 
L 457.292851 196.225836 
L 452.830393 196.677122 
L 448.485049 197.202418 
L 444.274314 197.799609 
L 440.215146 198.466291 
L 436.323887 199.199779 
L 432.616208 199.997118 
L 429.107037 200.8551 
L 425.810505 201.770268 
L 422.739885 202.738939 
L 419.907543 203.757211 
L 417.324883 204.820984 
L 415.002303 205.925975 
L 412.949158 207.067734 
L 411.173713 208.241664 
L 409.683118 209.443038 
L 408.483375 210.667018 
L 407.579315 211.908676 
L 406.974578 213.163012 
L 406.6716 214.424976 
L 406.6716 215.689486 
L 406.974578 216.951449 
L 407.579315 218.205785 
L 408.483375 219.447443 
L 409.683118 220.671424 
L 411.173713 221.872798 
L 412.949158 223.046728 
L 415.002303 224.188487 
L 417.324883 225.293478 
L 419.907543 226.357251 
L 422.739885 227.375523 
L 425.810505 228.344193 
L 429.107037 229.259362 
L 432.616208 230.117343 
L 436.323887 230.914683 
L 440.215146 231.64817 
L 444.274314 232.314852 
L 448.485049 232.912043 
L 452.830393 233.43734 
L 457.292851 233.888626 
L 461.854453 234.264084 
L 466.496832 234.562204 
L 471.201294 234.781783 
L 475.948896 234.921939 
L 480.720521 234.982107 
L 485.496955 234.962044 
L 490.258966 234.861832 
L 494.987378 234.681874 
L 499.663153 234.422894 
L 504.267461 234.085935 
L 508.781764 233.672354 
L 513.187883 233.183817 
L 517.468078 232.622291 
L 521.605112 231.990036 
L 525.582328 231.289599 
L 529.383711 230.5238 
L 532.993953 229.695722 
L 536.398519 228.808701 
L 539.583698 227.866307 
L 542.536666 226.872335 
L 545.245531 225.830788 
L 547.699386 224.74586 
L 549.888351 223.621919 
L 551.80361 222.463491 
L 553.437453 221.275241 
L 554.783299 220.061953 
L 555.835731 218.828513 
L 556.590509 217.579887 
L 557.044595 216.321104 
L 557.196161 215.057231 
" clip-path="url(#p22a21116cc)" style="fill: none; stroke: #1a7f37; stroke-width: 1.6; stroke-linecap: square"/>
   </g>
   <g id="line2d_5">
    <path d="M 566.052776 157.489231 
L 565.883379 156.225358 
L 565.375871 154.966574 
L 564.532296 153.717948 
L 563.356049 152.484508 
L 561.851867 151.27122 
L 560.025808 150.08297 
L 557.885224 148.924542 
L 555.438734 147.800601 
L 552.69619 146.715673 
L 549.668635 145.674126 
L 546.368259 144.680155 
L 542.808353 143.737761 
L 539.00325 142.850739 
L 534.968273 142.022662 
L 530.719669 141.256862 
L 526.274545 140.556425 
L 521.650801 139.924171 
L 516.867054 139.362644 
L 511.942568 138.874107 
L 506.897171 138.460527 
L 501.751179 138.123568 
L 496.525314 137.864588 
L 491.240617 137.684629 
L 485.91837 137.584417 
L 480.580002 137.564354 
L 475.247009 137.624522 
L 469.940866 137.764678 
L 464.682938 137.984258 
L 459.494397 138.282377 
L 454.396136 138.657836 
L 449.408683 139.109122 
L 444.552122 139.634418 
L 439.846007 140.231609 
L 435.309289 140.898291 
L 430.960235 141.631779 
L 426.816358 142.429118 
L 422.894344 143.2871 
L 419.209984 144.202268 
L 415.778116 145.170939 
L 412.612556 146.189211 
L 409.726053 147.252984 
L 407.13023 148.357975 
L 404.835537 149.499734 
L 402.851217 150.673664 
L 401.185258 151.875038 
L 399.844369 153.099018 
L 398.833949 154.340676 
L 398.158066 155.595012 
L 397.819444 156.856976 
L 397.819444 158.121486 
L 398.158066 159.383449 
L 398.833949 160.637785 
L 399.844369 161.879443 
L 401.185258 163.103424 
L 402.851217 164.304798 
L 404.835537 165.478728 
L 407.13023 166.620487 
L 409.726053 167.725478 
L 412.612556 168.789251 
L 415.778116 169.807523 
L 419.209984 170.776193 
L 422.894344 171.691362 
L 426.816358 172.549343 
L 430.960235 173.346683 
L 435.309289 174.08017 
L 439.846007 174.746852 
L 444.552122 175.344043 
L 449.408683 175.86934 
L 454.396136 176.320626 
L 459.494397 176.696084 
L 464.682938 176.994204 
L 469.940866 177.213783 
L 475.247009 177.353939 
L 480.580002 177.414107 
L 485.91837 177.394044 
L 491.240617 177.293832 
L 496.525314 177.113874 
L 501.751179 176.854894 
L 506.897171 176.517935 
L 511.942568 176.104354 
L 516.867054 175.615817 
L 521.650801 175.054291 
L 526.274545 174.422036 
L 530.719669 173.721599 
L 534.968273 172.9558 
L 539.00325 172.127722 
L 542.808353 171.240701 
L 546.368259 170.298307 
L 549.668635 169.304335 
L 552.69619 168.262788 
L 555.438734 167.17786 
L 557.885224 166.053919 
L 560.025808 164.895491 
L 561.851867 163.707241 
L 563.356049 162.493953 
L 564.532296 161.260513 
L 565.375871 160.011887 
L 565.883379 158.753104 
L 566.052776 157.489231 
" clip-path="url(#p22a21116cc)" style="fill: none; stroke: #1a7f37; stroke-width: 1.6; stroke-linecap: square"/>
   </g>
   <g id="line2d_6">
    <path d="M 557.196161 99.921231 
L 557.044595 98.657358 
L 556.590509 97.398574 
L 555.835731 96.149948 
L 554.783299 94.916508 
L 553.437453 93.70322 
L 551.80361 92.51497 
L 549.888351 91.356542 
L 547.699386 90.232601 
L 545.245531 89.147673 
L 542.536666 88.106126 
L 539.583698 87.112155 
L 536.398519 86.169761 
L 532.993953 85.282739 
L 529.383711 84.454662 
L 525.582328 83.688862 
L 521.605112 82.988425 
L 517.468078 82.356171 
L 513.187883 81.794644 
L 508.781764 81.306107 
L 504.267461 80.892527 
L 499.663153 80.555568 
L 494.987378 80.296588 
L 490.258966 80.116629 
L 485.496955 80.016417 
L 480.720521 79.996354 
L 475.948896 80.056522 
L 471.201294 80.196678 
L 466.496832 80.416258 
L 461.854453 80.714377 
L 457.292851 81.089836 
L 452.830393 81.541122 
L 448.485049 82.066418 
L 444.274314 82.663609 
L 440.215146 83.330291 
L 436.323887 84.063779 
L 432.616208 84.861118 
L 429.107037 85.7191 
L 425.810505 86.634268 
L 422.739885 87.602939 
L 419.907543 88.621211 
L 417.324883 89.684984 
L 415.002303 90.789975 
L 412.949158 91.931734 
L 411.173713 93.105664 
L 409.683118 94.307038 
L 408.483375 95.531018 
L 407.579315 96.772676 
L 406.974578 98.027012 
L 406.6716 99.288976 
L 406.6716 100.553486 
L 406.974578 101.815449 
L 407.579315 103.069785 
L 408.483375 104.311443 
L 409.683118 105.535424 
L 411.173713 106.736798 
L 412.949158 107.910728 
L 415.002303 109.052487 
L 417.324883 110.157478 
L 419.907543 111.221251 
L 422.739885 112.239523 
L 425.810505 113.208193 
L 429.107037 114.123362 
L 432.616208 114.981343 
L 436.323887 115.778683 
L 440.215146 116.51217 
L 444.274314 117.178852 
L 448.485049 117.776043 
L 452.830393 118.30134 
L 457.292851 118.752626 
L 461.854453 119.128084 
L 466.496832 119.426204 
L 471.201294 119.645783 
L 475.948896 119.785939 
L 480.720521 119.846107 
L 485.496955 119.826044 
L 490.258966 119.725832 
L 494.987378 119.545874 
L 499.663153 119.286894 
L 504.267461 118.949935 
L 508.781764 118.536354 
L 513.187883 118.047817 
L 517.468078 117.486291 
L 521.605112 116.854036 
L 525.582328 116.153599 
L 529.383711 115.3878 
L 532.993953 114.559722 
L 536.398519 113.672701 
L 539.583698 112.730307 
L 542.536666 111.736335 
L 545.245531 110.694788 
L 547.699386 109.60986 
L 549.888351 108.485919 
L 551.80361 107.327491 
L 553.437453 106.139241 
L 554.783299 104.925953 
L 555.835731 103.692513 
L 556.590509 102.443887 
L 557.044595 101.185104 
L 557.196161 99.921231 
" clip-path="url(#p22a21116cc)" style="fill: none; stroke: #1a7f37; stroke-width: 1.6; stroke-linecap: square"/>
   </g>
   <g id="text_4">
    <!-- 電流 $I$ -->
    <g style="fill: #d1242f" transform="translate(489.885884 51.209846) scale(0.12 -0.12)">
     <use xlink:href="#NotoSansCJKjp-Regular-a9c5"/>
     <use xlink:href="#NotoSansCJKjp-Regular-5b71" transform="translate(99.999908 0)"/>
     <use xlink:href="#NotoSansCJKjp-Regular-1" transform="translate(199.999817 0)"/>
     <use xlink:href="#Cmmi10-7b" transform="translate(222.399796 0)"/>
    </g>
   </g>
   <g id="patch_7">
    <path d="M 555.695548 219.016191 
Q 556.398813 216.538734 556.674646 215.567033 
" clip-path="url(#p22a21116cc)" style="fill: none; stroke: #1a7f37; stroke-width: 1.4; stroke-linecap: round"/>
    <path d="M 553.055097 219.529212 
L 556.674646 215.567033 
L 557.672659 220.83998 
z
" clip-path="url(#p22a21116cc)" style="fill: #1a7f37; stroke: #1a7f37; stroke-width: 1.4; stroke-linecap: round"/>
   </g>
   <g id="patch_8">
    <path d="M 564.375621 161.448191 
Q 565.161623 158.970734 565.474284 157.985238 
" clip-path="url(#p22a21116cc)" style="fill: none; stroke: #1a7f37; stroke-width: 1.4; stroke-linecap: round"/>
    <path d="M 561.7351 161.834719 
L 565.474284 157.985238 
L 566.310358 163.286273 
z
" clip-path="url(#p22a21116cc)" style="fill: #1a7f37; stroke: #1a7f37; stroke-width: 1.4; stroke-linecap: round"/>
   </g>
   <g id="patch_9">
    <path d="M 555.695548 103.880191 
Q 556.398813 101.402734 556.674646 100.431033 
" clip-path="url(#p22a21116cc)" style="fill: none; stroke: #1a7f37; stroke-width: 1.4; stroke-linecap: round"/>
    <path d="M 553.055097 104.393212 
L 556.674646 100.431033 
L 557.672659 105.70398 
z
" clip-path="url(#p22a21116cc)" style="fill: #1a7f37; stroke: #1a7f37; stroke-width: 1.4; stroke-linecap: round"/>
   </g>
   <g id="text_5">
    <!-- $B$ -->
    <g style="fill: #1a7f37" transform="translate(572.695238 157.489231) scale(0.13 -0.13)">
     <use xlink:href="#Cmmi10-34" transform="translate(0 0.6875)"/>
    </g>
   </g>
   <g id="text_6">
    <!-- 右手握住導線：拇指指電流， -->
    <g style="fill: #222831" transform="translate(410.41493 279.338462) scale(0.11 -0.11)">
     <defs>
      <path id="NotoSansCJKjp-Regular-2e93" d="M 2637 5376 
C 2554 4979 2445 4576 2310 4179 
L 416 4179 
L 416 3712 
L 2138 3712 
C 1728 2688 1114 1754 198 1133 
C 301 1037 448 864 525 749 
C 992 1082 1382 1485 1715 1939 
L 1715 -518 
L 2195 -518 
L 2195 -160 
L 5043 -160 
L 5043 -486 
L 5542 -486 
L 5542 2470 
L 2067 2470 
C 2298 2861 2496 3277 2662 3712 
L 6010 3712 
L 6010 4179 
L 2829 4179 
C 2944 4544 3046 4909 3136 5280 
L 2637 5376 
z
M 2195 307 
L 2195 2003 
L 5043 2003 
L 5043 307 
L 2195 307 
z
" transform="scale(0.015625)"/>
      <path id="NotoSansCJKjp-Regular-48c6" d="M 320 2061 
L 320 1587 
L 2963 1587 
L 2963 160 
C 2963 32 2906 -13 2765 -19 
C 2618 -19 2112 -26 1574 -13 
C 1651 -141 1741 -352 1779 -486 
C 2451 -493 2874 -486 3117 -403 
C 3354 -326 3456 -186 3456 160 
L 3456 1587 
L 6099 1587 
L 6099 2061 
L 3456 2061 
L 3456 3098 
L 5734 3098 
L 5734 3558 
L 3456 3558 
L 3456 4602 
C 4211 4691 4915 4819 5459 4979 
L 5107 5370 
C 4128 5062 2266 4896 742 4819 
C 787 4717 845 4525 858 4403 
C 1523 4429 2253 4474 2963 4544 
L 2963 3558 
L 749 3558 
L 749 3098 
L 2963 3098 
L 2963 2061 
L 320 2061 
z
" transform="scale(0.015625)"/>
      <path id="NotoSansCJKjp-Regular-4b42" d="M 2637 58 
L 2637 -326 
L 6157 -326 
L 6157 58 
L 4589 58 
L 4589 717 
L 5811 717 
L 5811 1094 
L 4589 1094 
L 4589 1696 
L 5568 1741 
C 5664 1632 5741 1530 5798 1440 
L 6125 1638 
C 5926 1939 5491 2374 5133 2688 
L 4826 2509 
C 4973 2381 5120 2234 5267 2086 
L 3840 2042 
C 3968 2259 4102 2522 4224 2771 
L 6054 2771 
L 6054 3162 
L 2886 3162 
L 2886 3206 
L 2886 3597 
L 5939 3597 
L 5939 5088 
L 2451 5088 
L 2451 3206 
C 2451 2189 2400 787 1792 -211 
C 1894 -256 2086 -390 2157 -480 
C 2714 435 2854 1741 2880 2771 
L 3757 2771 
C 3661 2522 3539 2246 3424 2029 
L 2893 2016 
L 2938 1619 
L 4154 1677 
L 4154 1094 
L 2976 1094 
L 2976 717 
L 4154 717 
L 4154 58 
L 2637 58 
z
M 2886 4685 
L 5478 4685 
L 5478 4000 
L 2886 4000 
L 2886 4685 
z
M 1069 5370 
L 1069 4083 
L 269 4083 
L 269 3635 
L 1069 3635 
L 1069 2323 
L 179 2054 
L 301 1594 
L 1069 1843 
L 1069 45 
C 1069 -45 1037 -70 960 -70 
C 883 -77 634 -77 358 -64 
C 416 -198 480 -397 493 -512 
C 902 -518 1146 -499 1299 -422 
C 1459 -352 1517 -218 1517 45 
L 1517 1990 
L 2221 2221 
L 2150 2662 
L 1517 2464 
L 1517 3635 
L 2208 3635 
L 2208 4083 
L 1517 4083 
L 1517 5370 
L 1069 5370 
z
" transform="scale(0.015625)"/>
      <path id="NotoSansCJKjp-Regular-26e8" d="M 3034 5056 
C 3494 4787 4064 4390 4371 4102 
L 2170 4102 
L 2170 3642 
L 3872 3642 
L 3872 2234 
L 2387 2234 
L 2387 1779 
L 3872 1779 
L 3872 166 
L 2010 166 
L 2010 -288 
L 6163 -288 
L 6163 166 
L 4352 166 
L 4352 1779 
L 5875 1779 
L 5875 2234 
L 4352 2234 
L 4352 3642 
L 6067 3642 
L 6067 4102 
L 4493 4102 
L 4774 4422 
C 4461 4710 3834 5120 3354 5389 
L 3034 5056 
z
M 1773 5357 
C 1395 4390 774 3437 128 2822 
C 211 2714 346 2458 397 2349 
C 640 2592 877 2880 1107 3194 
L 1107 -493 
L 1568 -493 
L 1568 3898 
C 1818 4320 2042 4768 2221 5216 
L 1773 5357 
z
" transform="scale(0.015625)"/>
      <path id="NotoSansCJKjp-Regular-e6c0" d="M 3200 3482 
C 3456 3482 3686 3667 3686 3962 
C 3686 4256 3456 4442 3200 4442 
C 2944 4442 2714 4256 2714 3962 
C 2714 3667 2944 3482 3200 3482 
z
M 3200 346 
C 3456 346 3686 538 3686 826 
C 3686 1120 3456 1312 3200 1312 
C 2944 1312 2714 1120 2714 826 
C 2714 538 2944 346 3200 346 
z
" transform="scale(0.015625)"/>
      <path id="NotoSansCJKjp-Regular-4979" d="M 3629 4160 
C 3923 3891 4262 3507 4422 3251 
L 4736 3488 
C 4589 3738 4230 4109 3930 4365 
L 3629 4160 
z
M 3507 2093 
C 3840 1830 4218 1466 4403 1210 
L 4704 1472 
C 4525 1722 4128 2080 3795 2330 
L 3507 2093 
z
M 3238 4589 
L 5274 4589 
L 5235 3021 
L 3136 3021 
C 3174 3558 3213 4090 3238 4589 
z
M 2150 3021 
L 2150 2605 
L 2656 2605 
C 2579 1722 2496 864 2413 250 
L 2880 224 
L 2925 595 
L 5101 595 
C 5062 294 5018 128 4960 51 
C 4896 -51 4838 -70 4723 -70 
C 4595 -70 4326 -70 4013 -45 
C 4083 -166 4134 -358 4141 -486 
C 4435 -506 4736 -512 4934 -486 
C 5126 -461 5261 -403 5389 -205 
C 5472 -83 5536 154 5587 595 
L 6067 595 
L 6067 1024 
L 5619 1024 
C 5651 1427 5677 1939 5696 2605 
L 6189 2605 
L 6189 3021 
L 5709 3021 
L 5747 4730 
C 5747 4800 5747 5005 5747 5005 
L 2810 5005 
C 2784 4410 2739 3712 2688 3021 
L 2150 3021 
z
M 3104 2605 
L 5222 2605 
C 5203 1926 5178 1408 5146 1024 
L 2963 1024 
C 3014 1504 3059 2048 3104 2605 
z
M 1152 5370 
L 1152 4083 
L 282 4083 
L 282 3635 
L 1152 3635 
L 1152 2240 
L 173 1971 
L 288 1504 
L 1152 1766 
L 1152 70 
C 1152 -19 1120 -51 1037 -51 
C 954 -51 691 -51 397 -45 
C 461 -179 525 -384 544 -506 
C 966 -512 1222 -493 1389 -416 
C 1555 -339 1613 -198 1613 77 
L 1613 1914 
L 2291 2125 
L 2234 2554 
L 1613 2374 
L 1613 3635 
L 2234 3635 
L 2234 4083 
L 1613 4083 
L 1613 5370 
L 1152 5370 
z
" transform="scale(0.015625)"/>
      <path id="NotoSansCJKjp-Regular-49d7" d="M 5357 4998 
C 4870 4781 4058 4557 3296 4397 
L 3296 5350 
L 2822 5350 
L 2822 3533 
C 2822 2976 3021 2835 3763 2835 
C 3917 2835 5094 2835 5254 2835 
C 5888 2835 6048 3046 6118 3904 
C 5984 3930 5779 4006 5677 4077 
C 5638 3386 5581 3270 5229 3270 
C 4973 3270 3981 3270 3789 3270 
C 3373 3270 3296 3315 3296 3533 
L 3296 4000 
C 4128 4160 5075 4378 5722 4640 
L 5357 4998 
z
M 3277 858 
L 5363 858 
L 5363 186 
L 3277 186 
L 3277 858 
z
M 3277 1248 
L 3277 1888 
L 5363 1888 
L 5363 1248 
L 3277 1248 
z
M 2822 2298 
L 2822 -506 
L 3277 -506 
L 3277 -211 
L 5363 -211 
L 5363 -480 
L 5837 -480 
L 5837 2298 
L 2822 2298 
z
M 1178 5376 
L 1178 4083 
L 282 4083 
L 282 3629 
L 1178 3629 
L 1178 2253 
L 198 1984 
L 339 1517 
L 1178 1766 
L 1178 51 
C 1178 -38 1139 -64 1056 -70 
C 973 -70 710 -70 416 -64 
C 474 -192 544 -390 563 -506 
C 992 -512 1248 -493 1421 -422 
C 1587 -346 1645 -218 1645 58 
L 1645 1907 
L 2496 2170 
L 2438 2618 
L 1645 2387 
L 1645 3629 
L 2406 3629 
L 2406 4083 
L 1645 4083 
L 1645 5376 
L 1178 5376 
z
" transform="scale(0.015625)"/>
      <path id="NotoSansCJKjp-Regular-e6b2" d="M 1005 -685 
C 1677 -448 2112 77 2112 768 
C 2112 1216 1920 1504 1568 1504 
C 1306 1504 1082 1344 1082 1043 
C 1082 742 1299 589 1562 589 
L 1670 602 
C 1638 160 1357 -141 864 -346 
L 1005 -685 
z
" transform="scale(0.015625)"/>
     </defs>
     <use xlink:href="#NotoSansCJKjp-Regular-2e93"/>
     <use xlink:href="#NotoSansCJKjp-Regular-48c6" transform="translate(100 0)"/>
     <use xlink:href="#NotoSansCJKjp-Regular-4b42" transform="translate(200 0)"/>
     <use xlink:href="#NotoSansCJKjp-Regular-26e8" transform="translate(300 0)"/>
     <use xlink:href="#NotoSansCJKjp-Regular-3d75" transform="translate(400 0)"/>
     <use xlink:href="#NotoSansCJKjp-Regular-7a17" transform="translate(500 0)"/>
     <use xlink:href="#NotoSansCJKjp-Regular-e6c0" transform="translate(600 0)"/>
     <use xlink:href="#NotoSansCJKjp-Regular-4979" transform="translate(700 0)"/>
     <use xlink:href="#NotoSansCJKjp-Regular-49d7" transform="translate(800 0)"/>
     <use xlink:href="#NotoSansCJKjp-Regular-49d7" transform="translate(900 0)"/>
     <use xlink:href="#NotoSansCJKjp-Regular-a9c5" transform="translate(1000 0)"/>
     <use xlink:href="#NotoSansCJKjp-Regular-5b71" transform="translate(1100 0)"/>
     <use xlink:href="#NotoSansCJKjp-Regular-e6b2" transform="translate(1200 0)"/>
    </g>
    <!-- 四指環繞方向就是磁場方向 -->
    <g style="fill: #222831" transform="translate(415.91493 290.338462) scale(0.11 -0.11)">
     <defs>
      <path id="NotoSansCJKjp-Regular-334b" d="M 576 4787 
L 576 -326 
L 1062 -326 
L 1062 128 
L 5344 128 
L 5344 -275 
L 5843 -275 
L 5843 4787 
L 576 4787 
z
M 1062 595 
L 1062 4326 
L 2259 4326 
C 2202 3130 2035 2234 1158 1741 
C 1267 1658 1402 1498 1459 1389 
C 2451 1965 2656 2970 2726 4326 
L 3571 4326 
L 3571 2483 
C 3571 2093 3616 1984 3731 1907 
C 3834 1824 4006 1792 4154 1792 
C 4243 1792 4499 1792 4589 1792 
C 4723 1792 4890 1811 4986 1850 
C 5088 1894 5165 1965 5203 2080 
C 5242 2195 5261 2502 5274 2765 
C 5152 2803 4992 2880 4902 2963 
C 4896 2682 4890 2470 4870 2374 
C 4851 2278 4813 2240 4774 2214 
C 4736 2202 4640 2195 4557 2195 
C 4474 2195 4320 2195 4262 2195 
C 4186 2195 4128 2202 4090 2221 
C 4051 2246 4038 2317 4038 2445 
L 4038 4326 
L 5344 4326 
L 5344 595 
L 1062 595 
z
" transform="scale(0.015625)"/>
      <path id="NotoSansCJKjp-Regular-68aa" d="M 2221 3482 
L 2221 3085 
L 6157 3085 
L 6157 3482 
L 2221 3482 
z
M 3053 2362 
L 5261 2362 
L 5261 1715 
L 3053 1715 
L 3053 2362 
z
M 4813 4813 
L 5434 4813 
L 5434 4186 
L 4813 4186 
L 4813 4813 
z
M 3853 4813 
L 4474 4813 
L 4474 4186 
L 3853 4186 
L 3853 4813 
z
M 2925 4813 
L 3520 4813 
L 3520 4186 
L 2925 4186 
L 2925 4813 
z
M 2522 5165 
L 2522 3840 
L 5850 3840 
L 5850 5165 
L 2522 5165 
z
M 218 909 
L 326 448 
C 915 621 1683 851 2413 1075 
L 2355 1504 
L 1523 1261 
L 1523 2643 
L 2189 2643 
L 2189 3078 
L 1523 3078 
L 1523 4493 
L 2285 4493 
L 2285 4928 
L 288 4928 
L 288 4493 
L 1082 4493 
L 1082 3078 
L 352 3078 
L 352 2643 
L 1082 2643 
L 1082 1139 
L 218 909 
z
M 5658 1293 
C 5446 1126 5088 883 4813 723 
C 4646 915 4506 1126 4397 1344 
L 5709 1344 
L 5709 2726 
L 2624 2726 
L 2624 1344 
L 3789 1344 
C 3251 870 2451 435 1766 218 
C 1862 128 1990 -26 2054 -134 
C 2528 45 3059 326 3526 659 
L 3526 -512 
L 3981 -512 
L 3981 1018 
L 4096 1120 
C 4454 371 5062 -230 5837 -512 
C 5901 -397 6042 -224 6144 -134 
C 5728 -13 5363 198 5056 474 
C 5350 621 5715 832 5997 1030 
L 5658 1293 
z
" transform="scale(0.015625)"/>
      <path id="NotoSansCJKjp-Regular-7b37" d="M 1811 1638 
C 1965 1267 2086 781 2112 461 
L 2477 576 
C 2438 890 2310 1370 2157 1741 
L 1811 1638 
z
M 570 1715 
C 493 1158 378 582 166 192 
C 269 154 448 70 525 19 
C 723 429 877 1043 960 1651 
L 570 1715 
z
M 2528 4026 
L 2528 3648 
L 6035 3648 
L 6035 4026 
L 4499 4026 
L 4499 4525 
L 5754 4525 
L 5754 4896 
L 4499 4896 
L 4499 5376 
L 4045 5376 
L 4045 4896 
L 2874 4896 
L 2874 4525 
L 4045 4525 
L 4045 4026 
L 2528 4026 
z
M 179 2547 
L 237 2118 
L 1210 2176 
L 1210 -512 
L 1626 -512 
L 1626 2202 
L 2106 2240 
C 2157 2086 2195 1939 2214 1824 
L 2554 1965 
L 2605 1760 
C 3066 1830 3629 1926 4192 2016 
L 4179 2368 
L 3578 2285 
L 3578 2726 
L 4102 2726 
L 4102 3085 
L 3578 3085 
L 3578 3526 
L 3181 3526 
L 3181 3085 
L 2643 3085 
L 2643 2726 
L 3181 2726 
L 3181 2227 
L 2541 2138 
C 2445 2490 2240 2957 2035 3328 
L 1696 3194 
C 1786 3021 1875 2829 1952 2637 
L 1094 2592 
C 1510 3136 1978 3866 2330 4467 
L 1933 4646 
C 1766 4301 1530 3878 1280 3475 
C 1190 3603 1075 3744 947 3885 
C 1178 4243 1446 4774 1670 5216 
L 1254 5376 
C 1126 5018 896 4525 691 4154 
L 486 4352 
L 237 4051 
C 531 3776 858 3398 1043 3104 
C 915 2906 787 2726 666 2566 
L 179 2547 
z
M 4294 2246 
L 4294 1888 
L 6086 1888 
L 6086 2246 
L 5344 2246 
L 5344 2733 
L 5997 2733 
L 5997 3091 
L 5344 3091 
L 5344 3526 
L 4941 3526 
L 4941 3091 
L 4365 3091 
L 4365 2733 
L 4941 2733 
L 4941 2246 
L 4294 2246 
z
M 2534 1523 
L 2534 1126 
L 3450 1126 
C 3360 429 3104 64 2163 -147 
C 2253 -224 2374 -403 2419 -506 
C 3482 -230 3802 250 3904 1126 
L 4563 1126 
L 4563 51 
C 4563 -378 4666 -499 5114 -499 
C 5197 -499 5587 -499 5677 -499 
C 6029 -499 6144 -326 6182 384 
C 6067 410 5888 480 5798 550 
C 5786 -32 5754 -115 5626 -115 
C 5542 -115 5235 -115 5171 -115 
C 5037 -115 5011 -90 5011 51 
L 5011 1126 
L 6106 1126 
L 6106 1523 
L 2534 1523 
z
" transform="scale(0.015625)"/>
      <path id="NotoSansCJKjp-Regular-4ea0" d="M 2931 5395 
L 2931 4269 
L 339 4269 
L 339 3808 
L 2310 3808 
C 2240 2330 2054 666 269 -147 
C 397 -243 544 -416 621 -538 
C 1926 90 2438 1152 2669 2298 
L 4787 2298 
C 4685 819 4557 186 4371 19 
C 4294 -51 4211 -58 4064 -58 
C 3898 -58 3443 -51 2982 -13 
C 3078 -147 3142 -346 3155 -480 
C 3584 -506 4013 -512 4230 -499 
C 4480 -486 4634 -435 4781 -282 
C 5030 -26 5165 685 5293 2522 
C 5306 2598 5312 2758 5312 2758 
L 2746 2758 
C 2790 3110 2822 3462 2842 3808 
L 6067 3808 
L 6067 4269 
L 3424 4269 
L 3424 5395 
L 2931 5395 
z
" transform="scale(0.015625)"/>
      <path id="NotoSansCJKjp-Regular-2eb8" d="M 2803 5389 
C 2714 5062 2554 4614 2394 4269 
L 634 4269 
L 634 -512 
L 1107 -512 
L 1107 3802 
L 5325 3802 
L 5325 128 
C 5325 13 5286 -26 5158 -26 
C 5024 -32 4582 -38 4122 -13 
C 4192 -154 4262 -378 4288 -512 
C 4877 -512 5274 -506 5504 -429 
C 5728 -346 5805 -192 5805 128 
L 5805 4269 
L 2925 4269 
C 3085 4576 3258 4947 3398 5293 
L 2803 5389 
z
M 2387 2522 
L 4006 2522 
L 4006 1267 
L 2387 1267 
L 2387 2522 
z
M 1946 2950 
L 1946 371 
L 2387 371 
L 2387 832 
L 4454 832 
L 4454 2950 
L 1946 2950 
z
" transform="scale(0.015625)"/>
      <path id="NotoSansCJKjp-Regular-3da8" d="M 1126 3206 
L 2624 3206 
L 2624 2349 
L 1126 2349 
L 1126 3206 
z
M 800 1594 
C 685 1088 480 582 211 237 
C 314 179 499 38 576 -38 
C 864 346 1107 928 1248 1504 
L 800 1594 
z
M 2451 1510 
C 2630 1171 2822 717 2899 416 
L 3296 570 
C 3219 864 3034 1312 2835 1651 
L 2451 1510 
z
M 4928 4998 
C 5242 4685 5542 4243 5664 3930 
L 6067 4134 
C 5933 4442 5632 4877 5306 5184 
L 4928 4998 
z
M 339 4557 
L 339 4122 
L 3386 4122 
L 3386 4557 
L 2125 4557 
L 2125 5376 
L 1638 5376 
L 1638 4557 
L 339 4557 
z
M 4269 5382 
L 4269 4032 
L 4262 3686 
L 3334 3686 
L 3334 3226 
L 4243 3226 
C 4173 2093 3878 755 2778 -243 
C 2906 -301 3098 -435 3187 -525 
C 4000 237 4390 1184 4576 2118 
L 4576 166 
C 4576 -160 4602 -269 4717 -358 
C 4832 -442 4986 -474 5133 -474 
C 5216 -474 5446 -474 5542 -474 
C 5677 -474 5830 -448 5926 -397 
C 6029 -339 6099 -243 6138 -102 
C 6170 38 6195 429 6208 768 
C 6086 806 5920 890 5830 973 
C 5837 614 5824 307 5805 186 
C 5792 109 5754 51 5709 26 
C 5670 -6 5581 -13 5510 -13 
C 5427 -13 5306 -13 5242 -13 
C 5171 -13 5120 0 5075 26 
C 5037 45 5018 90 5018 147 
L 5018 2912 
L 4691 2912 
L 4717 3226 
L 6118 3226 
L 6118 3686 
L 4730 3686 
L 4736 4038 
L 4736 5382 
L 4269 5382 
z
M 685 3616 
L 685 1939 
L 1658 1939 
L 1658 38 
C 1658 -26 1638 -51 1562 -58 
C 1478 -58 1235 -58 941 -51 
C 1005 -173 1075 -358 1094 -493 
C 1478 -493 1741 -486 1907 -416 
C 2080 -333 2125 -205 2125 32 
L 2125 1939 
L 3091 1939 
L 3091 3616 
L 685 3616 
z
" transform="scale(0.015625)"/>
      <path id="NotoSansCJKjp-Regular-4f6d" d="M 1510 3885 
L 4845 3885 
L 4845 3360 
L 1510 3360 
L 1510 3885 
z
M 1510 4749 
L 4845 4749 
L 4845 4230 
L 1510 4230 
L 1510 4749 
z
M 1050 5114 
L 1050 2995 
L 5331 2995 
L 5331 5114 
L 1050 5114 
z
M 1478 1914 
C 1312 979 902 256 224 -186 
C 333 -256 518 -435 589 -518 
C 1011 -218 1344 192 1587 698 
C 2112 -186 2938 -384 4230 -384 
L 5984 -384 
C 6010 -250 6086 -38 6163 77 
C 5830 70 4493 64 4250 70 
C 3981 70 3725 77 3494 102 
L 3494 986 
L 5619 986 
L 5619 1408 
L 3494 1408 
L 3494 2125 
L 6035 2125 
L 6035 2554 
L 378 2554 
L 378 2125 
L 3014 2125 
L 3014 186 
C 2458 326 2048 627 1798 1216 
C 1862 1414 1914 1626 1958 1850 
L 1478 1914 
z
" transform="scale(0.015625)"/>
     </defs>
     <use xlink:href="#NotoSansCJKjp-Regular-334b"/>
     <use xlink:href="#NotoSansCJKjp-Regular-49d7" transform="translate(100 0)"/>
     <use xlink:href="#NotoSansCJKjp-Regular-68aa" transform="translate(200 0)"/>
     <use xlink:href="#NotoSansCJKjp-Regular-7b37" transform="translate(300 0)"/>
     <use xlink:href="#NotoSansCJKjp-Regular-4ea0" transform="translate(400 0)"/>
     <use xlink:href="#NotoSansCJKjp-Regular-2eb8" transform="translate(500 0)"/>
     <use xlink:href="#NotoSansCJKjp-Regular-3da8" transform="translate(600 0)"/>
     <use xlink:href="#NotoSansCJKjp-Regular-4f6d" transform="translate(700 0)"/>
     <use xlink:href="#NotoSansCJKjp-Regular-6fb7" transform="translate(800 0)"/>
     <use xlink:href="#NotoSansCJKjp-Regular-3559" transform="translate(900 0)"/>
     <use xlink:href="#NotoSansCJKjp-Regular-4ea0" transform="translate(1000 0)"/>
     <use xlink:href="#NotoSansCJKjp-Regular-2eb8" transform="translate(1100 0)"/>
    </g>
   </g>
   <g id="text_7">
    <!-- 安培右手定則 -->
    <g style="fill: #222831" transform="translate(442.91493 18.64) scale(0.13 -0.13)">
     <defs>
      <path id="NotoSansCJKjp-Regular-3c66" d="M 544 4698 
L 544 3322 
L 1030 3322 
L 1030 4250 
L 5382 4250 
L 5382 3322 
L 5888 3322 
L 5888 4698 
L 3437 4698 
L 3437 5382 
L 2931 5382 
L 2931 4698 
L 544 4698 
z
M 365 2925 
L 365 2470 
L 1939 2470 
C 1638 1901 1331 1344 1082 941 
L 1581 806 
L 1741 1088 
C 2150 960 2579 806 3002 640 
C 2368 256 1542 38 512 -90 
C 608 -198 755 -410 800 -525 
C 1920 -346 2829 -64 3520 429 
C 4256 115 4934 -224 5382 -525 
L 5741 -128 
C 5286 160 4634 480 3923 768 
C 4358 1197 4678 1747 4877 2470 
L 6048 2470 
L 6048 2925 
L 2714 2925 
L 3174 3853 
L 2682 3962 
C 2534 3648 2355 3290 2170 2925 
L 365 2925 
z
M 2483 2470 
L 4333 2470 
C 4154 1824 3859 1331 3437 960 
C 2931 1152 2419 1325 1946 1466 
L 2483 2470 
z
" transform="scale(0.015625)"/>
      <path id="NotoSansCJKjp-Regular-34f7" d="M 2118 2989 
L 2118 2554 
L 6157 2554 
L 6157 2989 
L 2118 2989 
z
M 5062 4166 
C 4986 3853 4819 3392 4698 3117 
L 5107 2995 
C 5242 3258 5402 3667 5549 4032 
L 5062 4166 
z
M 2918 4038 
C 3066 3712 3194 3283 3219 2995 
L 3674 3117 
C 3642 3398 3507 3827 3347 4141 
L 2918 4038 
z
M 3942 5363 
L 3942 4614 
L 2342 4614 
L 2342 4179 
L 6035 4179 
L 6035 4614 
L 4422 4614 
L 4422 5363 
L 3942 5363 
z
M 2707 1946 
L 2707 -506 
L 3162 -506 
L 3162 -179 
L 5254 -179 
L 5254 -486 
L 5734 -486 
L 5734 1946 
L 2707 1946 
z
M 3162 262 
L 3162 1510 
L 5254 1510 
L 5254 262 
L 3162 262 
z
M 218 986 
L 378 506 
C 966 736 1734 1043 2458 1350 
L 2362 1792 
L 1568 1485 
L 1568 3379 
L 2278 3379 
L 2278 3834 
L 1568 3834 
L 1568 5331 
L 1107 5331 
L 1107 3834 
L 333 3834 
L 333 3379 
L 1107 3379 
L 1107 1312 
L 218 986 
z
" transform="scale(0.015625)"/>
      <path id="NotoSansCJKjp-Regular-3c8a" d="M 1421 2413 
C 1286 1248 934 333 224 -218 
C 339 -294 538 -461 621 -544 
C 1037 -179 1350 307 1574 896 
C 2163 -198 3117 -422 4454 -422 
L 5952 -422 
C 5971 -282 6061 -51 6131 64 
C 5818 58 4717 58 4480 58 
C 4109 58 3757 77 3443 134 
L 3443 1440 
L 5350 1440 
L 5350 1888 
L 3443 1888 
L 3443 2957 
L 5088 2957 
L 5088 3418 
L 1350 3418 
L 1350 2957 
L 2944 2957 
L 2944 269 
C 2419 461 2016 832 1760 1504 
C 1824 1766 1882 2054 1920 2355 
L 1421 2413 
z
M 525 4640 
L 525 3245 
L 998 3245 
L 998 4186 
L 5382 4186 
L 5382 3245 
L 5875 3245 
L 5875 4640 
L 3443 4640 
L 3443 5376 
L 2938 5376 
L 2938 4640 
L 525 4640 
z
" transform="scale(0.015625)"/>
      <path id="NotoSansCJKjp-Regular-2bde" d="M 3808 4608 
L 3808 1056 
L 4275 1056 
L 4275 4608 
L 3808 4608 
z
M 5376 5254 
L 5376 128 
C 5376 6 5331 -32 5210 -38 
C 5082 -45 4685 -45 4224 -32 
C 4301 -166 4378 -390 4403 -518 
C 4992 -518 5357 -506 5568 -429 
C 5766 -346 5856 -205 5856 128 
L 5856 5254 
L 5376 5254 
z
M 1069 896 
C 883 474 563 58 224 -230 
C 339 -294 538 -442 627 -525 
C 966 -211 1331 282 1542 768 
L 1069 896 
z
M 2176 710 
C 2458 371 2758 -109 2886 -422 
L 3328 -205 
C 3187 102 2880 557 2592 890 
L 2176 710 
z
M 1069 3514 
L 2630 3514 
L 2630 2714 
L 1069 2714 
L 1069 3514 
z
M 1069 2317 
L 2630 2317 
L 2630 1517 
L 1069 1517 
L 1069 2317 
z
M 1069 4698 
L 2630 4698 
L 2630 3904 
L 1069 3904 
L 1069 4698 
z
M 614 5126 
L 614 1082 
L 3110 1082 
L 3110 5126 
L 614 5126 
z
" transform="scale(0.015625)"/>
     </defs>
     <use xlink:href="#NotoSansCJKjp-Regular-3c66"/>
     <use xlink:href="#NotoSansCJKjp-Regular-34f7" transform="translate(100 0)"/>
     <use xlink:href="#NotoSansCJKjp-Regular-2e93" transform="translate(200 0)"/>
     <use xlink:href="#NotoSansCJKjp-Regular-48c6" transform="translate(300 0)"/>
     <use xlink:href="#NotoSansCJKjp-Regular-3c8a" transform="translate(400 0)"/>
     <use xlink:href="#NotoSansCJKjp-Regular-2bde" transform="translate(500 0)"/>
    </g>
   </g>
   <g id="line2d_7">
    <path d="M 481.91493 263.768615 
L 481.91493 51.209846 
" clip-path="url(#p22a21116cc)" style="fill: none; stroke: #d1242f; stroke-width: 3; stroke-linecap: square"/>
   </g>
   <g id="patch_10">
    <path d="M 481.91493 77.779692 
Q 481.91493 62.280615 481.91493 50.13564 
" clip-path="url(#p22a21116cc)" style="fill: none; stroke: #d1242f; stroke-width: 3; stroke-linecap: round"/>
    <path d="M 477.91493 58.13564 
L 481.91493 50.13564 
L 485.91493 58.13564 
z
" clip-path="url(#p22a21116cc)" style="fill: #d1242f; stroke: #d1242f; stroke-width: 3; stroke-linecap: round"/>
   </g>
  </g>
 </g>
 <defs>
  <clipPath id="pf6ce23501f">
   <rect x="7.2" y="24.64" width="287.84" height="287.84"/>
  </clipPath>
  <clipPath id="p22a21116cc">
   <rect x="366.77893" y="24.64" width="230.272" height="287.84"/>
  </clipPath>
 </defs>
</svg>
