<?xml version="1.0" encoding="utf-8" standalone="no"?>
<!DOCTYPE svg PUBLIC "-//W3C//DTD SVG 1.1//EN"
  "http://www.w3.org/Graphics/SVG/1.1/DTD/svg11.dtd">
<svg xmlns:xlink="http://www.w3.org/1999/xlink" width="751.68pt" height="240.183529pt" viewBox="0 0 751.68 240.183529" xmlns="http://www.w3.org/2000/svg" version="1.1">
 <metadata>
  <rdf:RDF xmlns:dc="http://purl.org/dc/elements/1.1/" xmlns:cc="http://creativecommons.org/ns#" xmlns:rdf="http://www.w3.org/1999/02/22-rdf-syntax-ns#">
   <cc:Work>
    <dc:type rdf:resource="http://purl.org/dc/dcmitype/StillImage"/>
    <dc:date>2026-06-17T18:15:31.764737</dc:date>
    <dc:format>image/svg+xml</dc:format>
    <dc:creator>
     <cc:Agent>
      <dc:title>Matplotlib v3.11.0, https://matplotlib.org/</dc:title>
     </cc:Agent>
    </dc:creator>
   </cc:Work>
  </rdf:RDF>
 </metadata>
 <defs>
  <style type="text/css">*{stroke-linejoin: round; stroke-linecap: butt}</style>
 </defs>
 <g id="figure_1">
  <g id="patch_1">
   <path d="M 0 240.183529 
L 751.68 240.183529 
L 751.68 0 
L 0 0 
z
" style="fill: #ffffff"/>
  </g>
  <g id="axes_1">
   <g id="line2d_1">
    <path d="M 137.964706 128.371765 
L 334.983529 128.371765 
L 334.983529 128.371765 
" clip-path="url(#p481392248c)" style="fill: none; stroke: #d1242f; stroke-width: 1.6; stroke-linecap: square"/>
   </g>
   <g id="line2d_2">
    <path d="M 136.329585 122.269412 
L 307.707862 23.324118 
L 307.707862 23.324118 
" clip-path="url(#p481392248c)" style="fill: none; stroke: #d1242f; stroke-width: 1.6; stroke-linecap: square"/>
   </g>
   <g id="line2d_3">
    <path d="M 131.862353 117.802179 
L 200.452823 -1 
L 200.452823 -1 
" clip-path="url(#p481392248c)" style="fill: none; stroke: #d1242f; stroke-width: 1.6; stroke-linecap: square"/>
   </g>
   <g id="line2d_4">
    <path d="M 125.76 116.167059 
L 125.76 -1 
L 125.76 -1 
" clip-path="url(#p481392248c)" style="fill: none; stroke: #d1242f; stroke-width: 1.6; stroke-linecap: square"/>
   </g>
   <g id="line2d_5">
    <path d="M 119.657647 117.802179 
L 51.067177 -1 
L 51.067177 -1 
" clip-path="url(#p481392248c)" style="fill: none; stroke: #d1242f; stroke-width: 1.6; stroke-linecap: square"/>
   </g>
   <g id="line2d_6">
    <path d="M 115.190415 122.269412 
L -1 55.186845 
L -1 55.186845 
" clip-path="url(#p481392248c)" style="fill: none; stroke: #d1242f; stroke-width: 1.6; stroke-linecap: square"/>
   </g>
   <g id="line2d_7">
    <path d="M 113.555294 128.371765 
L -1 128.371765 
L -1 128.371765 
" clip-path="url(#p481392248c)" style="fill: none; stroke: #d1242f; stroke-width: 1.6; stroke-linecap: square"/>
   </g>
   <g id="line2d_8">
    <path d="M 115.190415 134.474118 
L -1 201.556685 
L -1 201.556685 
" clip-path="url(#p481392248c)" style="fill: none; stroke: #d1242f; stroke-width: 1.6; stroke-linecap: square"/>
   </g>
   <g id="line2d_9">
    <path d="M 119.657647 138.94135 
L 60.628097 241.183529 
L 60.628097 241.183529 
" clip-path="url(#p481392248c)" style="fill: none; stroke: #d1242f; stroke-width: 1.6; stroke-linecap: square"/>
   </g>
   <g id="line2d_10">
    <path d="M 125.76 140.576471 
L 125.76 241.183529 
L 125.76 241.183529 
" clip-path="url(#p481392248c)" style="fill: none; stroke: #d1242f; stroke-width: 1.6; stroke-linecap: square"/>
   </g>
   <g id="line2d_11">
    <path d="M 131.862353 138.94135 
L 190.891903 241.183529 
L 190.891903 241.183529 
" clip-path="url(#p481392248c)" style="fill: none; stroke: #d1242f; stroke-width: 1.6; stroke-linecap: square"/>
   </g>
   <g id="line2d_12">
    <path d="M 136.329585 134.474118 
L 307.707862 233.419412 
L 307.707862 233.419412 
" clip-path="url(#p481392248c)" style="fill: none; stroke: #d1242f; stroke-width: 1.6; stroke-linecap: square"/>
   </g>
   <g id="patch_2">
    <path d="M 235.602353 128.371765 
Q 236.474118 128.371765 235.780635 128.371765 
" clip-path="url(#p481392248c)" style="fill: none; stroke: #d1242f; stroke-width: 1.4; stroke-linecap: round"/>
    <path d="M 230.980635 125.971765 
L 235.780635 128.371765 
L 230.980635 130.771765 
z
" clip-path="url(#p481392248c)" style="fill: #d1242f; stroke: #d1242f; stroke-width: 1.4; stroke-linecap: round"/>
   </g>
   <g id="patch_3">
    <path d="M 221.641238 73.014706 
Q 222.396209 72.578824 221.795635 72.925565 
" clip-path="url(#p481392248c)" style="fill: none; stroke: #d1242f; stroke-width: 1.4; stroke-linecap: round"/>
    <path d="M 216.438713 73.247104 
L 221.795635 72.925565 
L 218.838713 77.404026 
z
" clip-path="url(#p481392248c)" style="fill: #d1242f; stroke: #d1242f; stroke-width: 1.4; stroke-linecap: round"/>
   </g>
   <g id="patch_4">
    <path d="M 181.117059 32.490526 
Q 181.552941 31.735556 181.2062 32.33613 
" clip-path="url(#p481392248c)" style="fill: none; stroke: #d1242f; stroke-width: 1.4; stroke-linecap: round"/>
    <path d="M 176.727739 35.293052 
L 181.2062 32.33613 
L 180.884661 37.693052 
z
" clip-path="url(#p481392248c)" style="fill: #d1242f; stroke: #d1242f; stroke-width: 1.4; stroke-linecap: round"/>
   </g>
   <g id="patch_5">
    <path d="M 125.76 18.529412 
Q 125.76 17.657647 125.76 18.35113 
" clip-path="url(#p481392248c)" style="fill: none; stroke: #d1242f; stroke-width: 1.4; stroke-linecap: round"/>
    <path d="M 123.36 23.15113 
L 125.76 18.35113 
L 128.16 23.15113 
z
" clip-path="url(#p481392248c)" style="fill: #d1242f; stroke: #d1242f; stroke-width: 1.4; stroke-linecap: round"/>
   </g>
   <g id="patch_6">
    <path d="M 70.402941 32.490526 
Q 69.967059 31.735556 70.3138 32.33613 
" clip-path="url(#p481392248c)" style="fill: none; stroke: #d1242f; stroke-width: 1.4; stroke-linecap: round"/>
    <path d="M 70.635339 37.693052 
L 70.3138 32.33613 
L 74.792261 35.293052 
z
" clip-path="url(#p481392248c)" style="fill: #d1242f; stroke: #d1242f; stroke-width: 1.4; stroke-linecap: round"/>
   </g>
   <g id="patch_7">
    <path d="M 29.878762 73.014706 
Q 29.123791 72.578824 29.724365 72.925565 
" clip-path="url(#p481392248c)" style="fill: none; stroke: #d1242f; stroke-width: 1.4; stroke-linecap: round"/>
    <path d="M 32.681287 77.404026 
L 29.724365 72.925565 
L 35.081287 73.247104 
z
" clip-path="url(#p481392248c)" style="fill: #d1242f; stroke: #d1242f; stroke-width: 1.4; stroke-linecap: round"/>
   </g>
   <g id="patch_8">
    <path d="M 15.917647 128.371765 
Q 15.045882 128.371765 15.739365 128.371765 
" clip-path="url(#p481392248c)" style="fill: none; stroke: #d1242f; stroke-width: 1.4; stroke-linecap: round"/>
    <path d="M 20.539365 130.771765 
L 15.739365 128.371765 
L 20.539365 125.971765 
z
" clip-path="url(#p481392248c)" style="fill: #d1242f; stroke: #d1242f; stroke-width: 1.4; stroke-linecap: round"/>
   </g>
   <g id="patch_9">
    <path d="M 29.878762 183.728824 
Q 29.123791 184.164706 29.724365 183.817964 
" clip-path="url(#p481392248c)" style="fill: none; stroke: #d1242f; stroke-width: 1.4; stroke-linecap: round"/>
    <path d="M 35.081287 183.496425 
L 29.724365 183.817964 
L 32.681287 179.339503 
z
" clip-path="url(#p481392248c)" style="fill: #d1242f; stroke: #d1242f; stroke-width: 1.4; stroke-linecap: round"/>
   </g>
   <g id="patch_10">
    <path d="M 70.402941 224.253003 
Q 69.967059 225.007974 70.3138 224.4074 
" clip-path="url(#p481392248c)" style="fill: none; stroke: #d1242f; stroke-width: 1.4; stroke-linecap: round"/>
    <path d="M 74.792261 221.450478 
L 70.3138 224.4074 
L 70.635339 219.050478 
z
" clip-path="url(#p481392248c)" style="fill: #d1242f; stroke: #d1242f; stroke-width: 1.4; stroke-linecap: round"/>
   </g>
   <g id="patch_11">
    <path d="M 125.76 238.214118 
Q 125.76 239.085882 125.76 238.392399 
" clip-path="url(#p481392248c)" style="fill: none; stroke: #d1242f; stroke-width: 1.4; stroke-linecap: round"/>
    <path d="M 128.16 233.592399 
L 125.76 238.392399 
L 123.36 233.592399 
z
" clip-path="url(#p481392248c)" style="fill: #d1242f; stroke: #d1242f; stroke-width: 1.4; stroke-linecap: round"/>
   </g>
   <g id="patch_12">
    <path d="M 181.117059 224.253003 
Q 181.552941 225.007974 181.2062 224.4074 
" clip-path="url(#p481392248c)" style="fill: none; stroke: #d1242f; stroke-width: 1.4; stroke-linecap: round"/>
    <path d="M 180.884661 219.050478 
L 181.2062 224.4074 
L 176.727739 221.450478 
z
" clip-path="url(#p481392248c)" style="fill: #d1242f; stroke: #d1242f; stroke-width: 1.4; stroke-linecap: round"/>
   </g>
   <g id="patch_13">
    <path d="M 221.641238 183.728824 
Q 222.396209 184.164706 221.795635 183.817964 
" clip-path="url(#p481392248c)" style="fill: none; stroke: #d1242f; stroke-width: 1.4; stroke-linecap: round"/>
    <path d="M 218.838713 179.339503 
L 221.795635 183.817964 
L 216.438713 183.496425 
z
" clip-path="url(#p481392248c)" style="fill: #d1242f; stroke: #d1242f; stroke-width: 1.4; stroke-linecap: round"/>
   </g>
   <g id="text_1">
    <!-- 正電荷：電力線向外 -->
    <g style="fill: #222831" transform="translate(71.76 17.76) scale(0.12 -0.12)">
     <defs>
      <path id="NotoSansCJKjp-Regular-585c" d="M 1203 3264 
L 1203 243 
L 333 243 
L 333 -224 
L 6080 -224 
L 6080 243 
L 3616 243 
L 3616 2259 
L 5619 2259 
L 5619 2726 
L 3616 2726 
L 3616 4435 
L 5869 4435 
L 5869 4909 
L 576 4909 
L 576 4435 
L 3110 4435 
L 3110 243 
L 1696 243 
L 1696 3264 
L 1203 3264 
z
" transform="scale(0.015625)"/>
      <path id="NotoSansCJKjp-Regular-a9c5" d="M 1261 3635 
L 1261 3334 
L 2618 3334 
L 2618 3635 
L 1261 3635 
z
M 1133 2982 
L 1133 2675 
L 2618 2675 
L 2618 2982 
L 1133 2982 
z
M 3757 2982 
L 3757 2675 
L 5293 2675 
L 5293 2982 
L 3757 2982 
z
M 3757 3635 
L 3757 3334 
L 5133 3334 
L 5133 3635 
L 3757 3635 
z
M 4915 1184 
L 4915 742 
L 3392 742 
L 3392 1184 
L 4915 1184 
z
M 4915 1504 
L 3392 1504 
L 3392 1946 
L 4915 1946 
L 4915 1504 
z
M 2925 1184 
L 2925 742 
L 1504 742 
L 1504 1184 
L 2925 1184 
z
M 2925 1504 
L 1504 1504 
L 1504 1946 
L 2925 1946 
L 2925 1504 
z
M 1043 2298 
L 1043 58 
L 1504 58 
L 1504 390 
L 2925 390 
L 2925 192 
C 2925 -333 3130 -461 3846 -461 
C 4006 -461 5171 -461 5338 -461 
C 5939 -461 6093 -256 6157 525 
C 6029 550 5843 614 5741 685 
C 5709 38 5645 -70 5306 -70 
C 5050 -70 4064 -70 3872 -70 
C 3469 -70 3392 -26 3392 192 
L 3392 390 
L 5389 390 
L 5389 2298 
L 1043 2298 
z
M 486 4339 
L 486 3085 
L 922 3085 
L 922 3987 
L 2944 3987 
L 2944 2515 
L 3418 2515 
L 3418 3987 
L 5472 3987 
L 5472 3085 
L 5920 3085 
L 5920 4339 
L 3418 4339 
L 3418 4730 
L 5536 4730 
L 5536 5101 
L 858 5101 
L 858 4730 
L 2944 4730 
L 2944 4339 
L 486 4339 
z
" transform="scale(0.015625)"/>
      <path id="NotoSansCJKjp-Regular-8554" d="M 2246 3539 
L 2246 3091 
L 4986 3091 
L 4986 102 
C 4986 0 4947 -32 4826 -38 
C 4710 -38 4301 -38 3866 -26 
C 3936 -154 4013 -352 4038 -480 
C 4595 -480 4954 -474 5171 -403 
C 5382 -326 5453 -192 5453 96 
L 5453 3091 
L 6086 3091 
L 6086 3539 
L 2246 3539 
z
M 1677 3853 
C 1338 3117 774 2419 179 1958 
C 275 1856 435 1638 493 1542 
C 710 1722 922 1933 1126 2170 
L 1126 -506 
L 1600 -506 
L 1600 2778 
C 1805 3078 1984 3392 2138 3706 
L 1677 3853 
z
M 2323 2496 
L 2323 301 
L 2771 301 
L 2771 685 
L 4358 685 
L 4358 2496 
L 2323 2496 
z
M 2771 2093 
L 3917 2093 
L 3917 1088 
L 2771 1088 
L 2771 2093 
z
M 4070 5376 
L 4070 4864 
L 2317 4864 
L 2317 5376 
L 1850 5376 
L 1850 4864 
L 397 4864 
L 397 4422 
L 1850 4422 
L 1850 3834 
L 2317 3834 
L 2317 4422 
L 4070 4422 
L 4070 3834 
L 4550 3834 
L 4550 4422 
L 6042 4422 
L 6042 4864 
L 4550 4864 
L 4550 5376 
L 4070 5376 
z
" transform="scale(0.015625)"/>
      <path id="NotoSansCJKjp-Regular-e6c0" d="M 3200 3482 
C 3456 3482 3686 3667 3686 3962 
C 3686 4256 3456 4442 3200 4442 
C 2944 4442 2714 4256 2714 3962 
C 2714 3667 2944 3482 3200 3482 
z
M 3200 346 
C 3456 346 3686 538 3686 826 
C 3686 1120 3456 1312 3200 1312 
C 2944 1312 2714 1120 2714 826 
C 2714 538 2944 346 3200 346 
z
" transform="scale(0.015625)"/>
      <path id="NotoSansCJKjp-Regular-2c71" d="M 2624 5363 
L 2624 4256 
L 2624 3981 
L 531 3981 
L 531 3488 
L 2598 3488 
C 2502 2285 2080 877 339 -160 
C 461 -243 634 -422 710 -538 
C 2573 595 3008 2157 3098 3488 
L 5293 3488 
C 5165 1229 5024 320 4794 102 
C 4717 19 4634 0 4499 0 
C 4339 0 3930 6 3488 45 
C 3584 -96 3642 -307 3654 -448 
C 4051 -467 4461 -480 4678 -461 
C 4928 -435 5075 -390 5229 -198 
C 5517 115 5645 1075 5792 3725 
C 5798 3795 5805 3981 5805 3981 
L 3123 3981 
L 3123 4256 
L 3123 5363 
L 2624 5363 
z
" transform="scale(0.015625)"/>
      <path id="NotoSansCJKjp-Regular-7a17" d="M 3258 3405 
L 5414 3405 
L 5414 2848 
L 3258 2848 
L 3258 3405 
z
M 3258 4326 
L 5414 4326 
L 5414 3770 
L 3258 3770 
L 3258 4326 
z
M 1894 1632 
C 2048 1267 2182 781 2208 474 
L 2586 589 
C 2541 902 2406 1370 2246 1734 
L 1894 1632 
z
M 570 1715 
C 493 1158 378 582 166 192 
C 269 154 454 70 538 13 
C 736 422 890 1043 973 1651 
L 570 1715 
z
M 2816 4717 
L 2816 2451 
L 4109 2451 
L 4109 6 
C 4109 -64 4090 -83 4006 -90 
C 3930 -90 3674 -90 3386 -83 
C 3443 -211 3501 -384 3520 -506 
C 3917 -506 4173 -499 4339 -435 
C 4506 -358 4544 -237 4544 6 
L 4544 1325 
C 4819 717 5254 109 5952 -250 
C 6016 -128 6157 51 6246 141 
C 5754 358 5382 698 5114 1088 
C 5427 1306 5798 1613 6106 1894 
L 5715 2176 
C 5523 1946 5203 1645 4922 1408 
C 4742 1734 4627 2074 4544 2400 
L 4544 2451 
L 5875 2451 
L 5875 4717 
L 4365 4717 
C 4467 4890 4570 5088 4659 5280 
L 4128 5382 
C 4077 5190 3968 4934 3872 4717 
L 2816 4717 
z
M 2573 1901 
L 2573 1491 
L 3443 1491 
C 3219 826 2803 352 2291 77 
C 2381 13 2534 -154 2592 -250 
C 3226 115 3738 787 3962 1805 
L 3699 1914 
L 3622 1901 
L 2573 1901 
z
M 179 2547 
L 237 2118 
L 1248 2182 
L 1248 -512 
L 1670 -512 
L 1670 2208 
L 2176 2240 
C 2234 2086 2285 1946 2310 1824 
L 2694 2003 
C 2598 2349 2342 2906 2074 3322 
L 1722 3181 
C 1824 3014 1920 2829 2010 2637 
L 1088 2592 
C 1517 3136 2010 3866 2374 4454 
L 1971 4646 
C 1792 4301 1549 3878 1286 3475 
C 1190 3610 1075 3750 941 3898 
C 1178 4256 1459 4781 1677 5216 
L 1254 5376 
C 1120 5018 890 4531 685 4166 
L 486 4346 
L 237 4038 
C 525 3763 845 3398 1037 3104 
C 896 2912 762 2726 634 2566 
L 179 2547 
z
" transform="scale(0.015625)"/>
      <path id="NotoSansCJKjp-Regular-2eb8" d="M 2803 5389 
C 2714 5062 2554 4614 2394 4269 
L 634 4269 
L 634 -512 
L 1107 -512 
L 1107 3802 
L 5325 3802 
L 5325 128 
C 5325 13 5286 -26 5158 -26 
C 5024 -32 4582 -38 4122 -13 
C 4192 -154 4262 -378 4288 -512 
C 4877 -512 5274 -506 5504 -429 
C 5728 -346 5805 -192 5805 128 
L 5805 4269 
L 2925 4269 
C 3085 4576 3258 4947 3398 5293 
L 2803 5389 
z
M 2387 2522 
L 4006 2522 
L 4006 1267 
L 2387 1267 
L 2387 2522 
z
M 1946 2950 
L 1946 371 
L 2387 371 
L 2387 832 
L 4454 832 
L 4454 2950 
L 1946 2950 
z
" transform="scale(0.015625)"/>
      <path id="NotoSansCJKjp-Regular-36d9" d="M 1715 3942 
L 2963 3942 
C 2848 3290 2669 2714 2438 2208 
C 2131 2477 1664 2803 1242 3046 
C 1414 3322 1574 3622 1715 3942 
z
M 3661 3859 
L 3418 3763 
C 3450 3942 3488 4122 3514 4307 
L 3200 4416 
L 3110 4397 
L 1901 4397 
C 2010 4678 2106 4979 2189 5280 
L 1715 5382 
C 1414 4224 883 3162 166 2502 
C 288 2432 493 2278 576 2195 
C 723 2342 864 2509 992 2688 
C 1440 2413 1926 2054 2221 1766 
C 1734 902 1082 282 320 -122 
C 435 -192 614 -371 698 -480 
C 1914 205 2893 1491 3360 3520 
C 3622 3078 3955 2650 4320 2259 
L 4320 -499 
L 4813 -499 
L 4813 1786 
C 5184 1459 5574 1184 5965 986 
C 6042 1114 6189 1299 6304 1395 
C 5792 1626 5274 1984 4813 2413 
L 4813 5370 
L 4320 5370 
L 4320 2925 
C 4058 3219 3834 3539 3661 3859 
z
" transform="scale(0.015625)"/>
     </defs>
     <use xlink:href="#NotoSansCJKjp-Regular-585c"/>
     <use xlink:href="#NotoSansCJKjp-Regular-a9c5" transform="translate(100 0)"/>
     <use xlink:href="#NotoSansCJKjp-Regular-8554" transform="translate(200 0)"/>
     <use xlink:href="#NotoSansCJKjp-Regular-e6c0" transform="translate(300 0)"/>
     <use xlink:href="#NotoSansCJKjp-Regular-a9c5" transform="translate(400 0)"/>
     <use xlink:href="#NotoSansCJKjp-Regular-2c71" transform="translate(500 0)"/>
     <use xlink:href="#NotoSansCJKjp-Regular-7a17" transform="translate(600 0)"/>
     <use xlink:href="#NotoSansCJKjp-Regular-2eb8" transform="translate(700 0)"/>
     <use xlink:href="#NotoSansCJKjp-Regular-36d9" transform="translate(800 0)"/>
    </g>
   </g>
   <g id="patch_14">
    <path d="M 125.76 138.832941 
C 128.534336 138.832941 131.195417 137.730686 133.157169 135.768934 
C 135.118921 133.807181 136.221176 131.146101 136.221176 128.371765 
C 136.221176 125.597428 135.118921 122.936348 133.157169 120.974596 
C 131.195417 119.012844 128.534336 117.910588 125.76 117.910588 
C 122.985664 117.910588 120.324583 119.012844 118.362831 120.974596 
C 116.401079 122.936348 115.298824 125.597428 115.298824 128.371765 
C 115.298824 131.146101 116.401079 133.807181 118.362831 135.768934 
C 120.324583 137.730686 122.985664 138.832941 125.76 138.832941 
z
" clip-path="url(#p481392248c)" style="fill: #d1242f; stroke: #d1242f; stroke-linejoin: miter"/>
   </g>
   <g id="text_2">
    <!-- + -->
    <g style="fill: #ffffff" transform="translate(121.04 134.451765) scale(0.16 -0.16)">
     <defs>
      <path id="NotoSansCJKjp-Bold-c" d="M 1536 704 
L 2234 704 
L 2234 2061 
L 3526 2061 
L 3526 2733 
L 2234 2733 
L 2234 4096 
L 1536 4096 
L 1536 2733 
L 250 2733 
L 250 2061 
L 1536 2061 
L 1536 704 
z
" transform="scale(0.015625)"/>
     </defs>
     <use xlink:href="#NotoSansCJKjp-Bold-c"/>
    </g>
   </g>
  </g>
  <g id="axes_2">
   <g id="line2d_13">
    <path d="M 466.503529 128.371765 
L 465.631765 128.371765 
L 464.76 128.371765 
L 463.888235 128.371765 
L 463.016471 128.371765 
L 462.144706 128.371765 
L 461.272941 128.371765 
L 460.401176 128.371765 
L 459.529412 128.371765 
L 458.657647 128.371765 
L 457.785882 128.371765 
L 456.914118 128.371765 
L 456.042353 128.371765 
L 455.170588 128.371765 
L 454.298824 128.371765 
L 453.427059 128.371765 
L 452.555294 128.371765 
L 451.683529 128.371765 
L 450.811765 128.371765 
L 449.94 128.371765 
L 449.068235 128.371765 
L 448.196471 128.371765 
L 447.324706 128.371765 
L 446.452941 128.371765 
L 445.581176 128.371765 
L 444.709412 128.371765 
L 443.837647 128.371765 
L 442.965882 128.371765 
L 442.094118 128.371765 
L 441.222353 128.371765 
L 440.350588 128.371765 
L 439.478824 128.371765 
L 438.607059 128.371765 
L 437.735294 128.371765 
L 436.863529 128.371765 
L 435.991765 128.371765 
L 435.12 128.371765 
L 434.248235 128.371765 
L 433.376471 128.371765 
L 432.504706 128.371765 
L 431.632941 128.371765 
L 430.761176 128.371765 
L 429.889412 128.371765 
L 429.017647 128.371765 
L 428.145882 128.371765 
L 427.274118 128.371765 
L 426.402353 128.371765 
L 425.530588 128.371765 
L 424.658824 128.371765 
L 423.787059 128.371765 
L 422.915294 128.371765 
L 422.043529 128.371765 
L 421.171765 128.371765 
L 420.3 128.371765 
L 419.428235 128.371765 
L 418.556471 128.371765 
L 417.684706 128.371765 
L 416.812941 128.371765 
L 415.941176 128.371765 
L 415.069412 128.371765 
L 414.197647 128.371765 
L 413.325882 128.371765 
L 412.454118 128.371765 
L 411.582353 128.371765 
L 410.710588 128.371765 
L 409.838824 128.371765 
L 408.967059 128.371765 
L 408.095294 128.371765 
L 407.223529 128.371765 
L 406.351765 128.371765 
L 405.48 128.371765 
L 404.608235 128.371765 
L 403.736471 128.371765 
L 402.864706 128.371765 
L 401.992941 128.371765 
L 401.121176 128.371765 
L 400.249412 128.371765 
L 399.377647 128.371765 
L 398.505882 128.371765 
L 397.634118 128.371765 
L 396.762353 128.371765 
L 395.890588 128.371765 
L 395.018824 128.371765 
L 394.147059 128.371765 
L 393.275294 128.371765 
L 392.403529 128.371765 
L 391.531765 128.371765 
L 390.66 128.371765 
L 389.788235 128.371765 
L 388.916471 128.371765 
L 388.044706 128.371765 
L 387.172941 128.371765 
L 386.301176 128.371765 
L 385.429412 128.371765 
L 384.557647 128.371765 
L 383.685882 128.371765 
L 382.814118 128.371765 
L 381.942353 128.371765 
L 381.070588 128.371765 
L 380.198824 128.371765 
L 380.198824 128.371765 
" clip-path="url(#pbfae55c0f3)" style="fill: none; stroke: #1f6feb; stroke-width: 1.6; stroke-linecap: square"/>
   </g>
   <g id="line2d_14">
    <path d="M 454.35692 83.04 
L 453.601949 83.475882 
L 452.846979 83.911765 
L 452.092009 84.347647 
L 451.337038 84.783529 
L 450.582068 85.219412 
L 449.827097 85.655294 
L 449.072127 86.091176 
L 448.317157 86.527059 
L 447.562186 86.962941 
L 446.807216 87.398824 
L 446.052245 87.834706 
L 445.297275 88.270588 
L 444.542305 88.706471 
L 443.787334 89.142353 
L 443.032364 89.578235 
L 442.277394 90.014118 
L 441.522423 90.45 
L 440.767453 90.885882 
L 440.012482 91.321765 
L 439.257512 91.757647 
L 438.502542 92.193529 
L 437.747571 92.629412 
L 436.992601 93.065294 
L 436.237631 93.501176 
L 435.48266 93.937059 
L 434.72769 94.372941 
L 433.972719 94.808824 
L 433.217749 95.244706 
L 432.462779 95.680588 
L 431.707808 96.116471 
L 430.952838 96.552353 
L 430.197867 96.988235 
L 429.442897 97.424118 
L 428.687927 97.86 
L 427.932956 98.295882 
L 427.177986 98.731765 
L 426.423016 99.167647 
L 425.668045 99.603529 
L 424.913075 100.039412 
L 424.158104 100.475294 
L 423.403134 100.911176 
L 422.648164 101.347059 
L 421.893193 101.782941 
L 421.138223 102.218824 
L 420.383253 102.654706 
L 419.628282 103.090588 
L 418.873312 103.526471 
L 418.118341 103.962353 
L 417.363371 104.398235 
L 416.608401 104.834118 
L 415.85343 105.27 
L 415.09846 105.705882 
L 414.343489 106.141765 
L 413.588519 106.577647 
L 412.833549 107.013529 
L 412.078578 107.449412 
L 411.323608 107.885294 
L 410.568638 108.321176 
L 409.813667 108.757059 
L 409.058697 109.192941 
L 408.303726 109.628824 
L 407.548756 110.064706 
L 406.793786 110.500588 
L 406.038815 110.936471 
L 405.283845 111.372353 
L 404.528874 111.808235 
L 403.773904 112.244118 
L 403.018934 112.68 
L 402.263963 113.115882 
L 401.508993 113.551765 
L 400.754023 113.987647 
L 399.999052 114.423529 
L 399.244082 114.859412 
L 398.489111 115.295294 
L 397.734141 115.731176 
L 396.979171 116.167059 
L 396.2242 116.602941 
L 395.46923 117.038824 
L 394.71426 117.474706 
L 393.959289 117.910588 
L 393.204319 118.346471 
L 392.449348 118.782353 
L 391.694378 119.218235 
L 390.939408 119.654118 
L 390.184437 120.09 
L 389.429467 120.525882 
L 388.674496 120.961765 
L 387.919526 121.397647 
L 387.164556 121.833529 
L 386.409585 122.269412 
L 385.654615 122.705294 
L 384.899645 123.141176 
L 384.144674 123.577059 
L 383.389704 124.012941 
L 382.634733 124.448824 
L 381.879763 124.884706 
L 381.124793 125.320588 
L 380.369822 125.756471 
L 379.614852 126.192353 
L 379.614852 126.192353 
" clip-path="url(#pbfae55c0f3)" style="fill: none; stroke: #1f6feb; stroke-width: 1.6; stroke-linecap: square"/>
   </g>
   <g id="line2d_15">
    <path d="M 421.171765 49.854845 
L 420.735882 50.609815 
L 420.3 51.364786 
L 419.864118 52.119756 
L 419.428235 52.874727 
L 418.992353 53.629697 
L 418.556471 54.384667 
L 418.120588 55.139638 
L 417.684706 55.894608 
L 417.248824 56.649578 
L 416.812941 57.404549 
L 416.377059 58.159519 
L 415.941176 58.91449 
L 415.505294 59.66946 
L 415.069412 60.42443 
L 414.633529 61.179401 
L 414.197647 61.934371 
L 413.761765 62.689342 
L 413.325882 63.444312 
L 412.89 64.199282 
L 412.454118 64.954253 
L 412.018235 65.709223 
L 411.582353 66.464193 
L 411.146471 67.219164 
L 410.710588 67.974134 
L 410.274706 68.729105 
L 409.838824 69.484075 
L 409.402941 70.239045 
L 408.967059 70.994016 
L 408.531176 71.748986 
L 408.095294 72.503956 
L 407.659412 73.258927 
L 407.223529 74.013897 
L 406.787647 74.768868 
L 406.351765 75.523838 
L 405.915882 76.278808 
L 405.48 77.033779 
L 405.044118 77.788749 
L 404.608235 78.54372 
L 404.172353 79.29869 
L 403.736471 80.05366 
L 403.300588 80.808631 
L 402.864706 81.563601 
L 402.428824 82.318571 
L 401.992941 83.073542 
L 401.557059 83.828512 
L 401.121176 84.583483 
L 400.685294 85.338453 
L 400.249412 86.093423 
L 399.813529 86.848394 
L 399.377647 87.603364 
L 398.941765 88.358334 
L 398.505882 89.113305 
L 398.07 89.868275 
L 397.634118 90.623246 
L 397.198235 91.378216 
L 396.762353 92.133186 
L 396.326471 92.888157 
L 395.890588 93.643127 
L 395.454706 94.398098 
L 395.018824 95.153068 
L 394.582941 95.908038 
L 394.147059 96.663009 
L 393.711176 97.417979 
L 393.275294 98.172949 
L 392.839412 98.92792 
L 392.403529 99.68289 
L 391.967647 100.437861 
L 391.531765 101.192831 
L 391.095882 101.947801 
L 390.66 102.702772 
L 390.224118 103.457742 
L 389.788235 104.212713 
L 389.352353 104.967683 
L 388.916471 105.722653 
L 388.480588 106.477624 
L 388.044706 107.232594 
L 387.608824 107.987564 
L 387.172941 108.742535 
L 386.737059 109.497505 
L 386.301176 110.252476 
L 385.865294 111.007446 
L 385.429412 111.762416 
L 384.993529 112.517387 
L 384.557647 113.272357 
L 384.121765 114.027327 
L 383.685882 114.782298 
L 383.25 115.537268 
L 382.814118 116.292239 
L 382.378235 117.047209 
L 381.942353 117.802179 
L 381.506471 118.55715 
L 381.070588 119.31212 
L 380.634706 120.067091 
L 380.198824 120.822061 
L 379.762941 121.577031 
L 379.327059 122.332002 
L 378.891176 123.086972 
L 378.455294 123.841942 
L 378.019412 124.596913 
L 378.019412 124.596913 
" clip-path="url(#pbfae55c0f3)" style="fill: none; stroke: #1f6feb; stroke-width: 1.6; stroke-linecap: square"/>
   </g>
   <g id="line2d_16">
    <path d="M 375.84 37.708235 
L 375.84 38.58 
L 375.84 39.451765 
L 375.84 40.323529 
L 375.84 41.195294 
L 375.84 42.067059 
L 375.84 42.938824 
L 375.84 43.810588 
L 375.84 44.682353 
L 375.84 45.554118 
L 375.84 46.425882 
L 375.84 47.297647 
L 375.84 48.169412 
L 375.84 49.041176 
L 375.84 49.912941 
L 375.84 50.784706 
L 375.84 51.656471 
L 375.84 52.528235 
L 375.84 53.4 
L 375.84 54.271765 
L 375.84 55.143529 
L 375.84 56.015294 
L 375.84 56.887059 
L 375.84 57.758824 
L 375.84 58.630588 
L 375.84 59.502353 
L 375.84 60.374118 
L 375.84 61.245882 
L 375.84 62.117647 
L 375.84 62.989412 
L 375.84 63.861176 
L 375.84 64.732941 
L 375.84 65.604706 
L 375.84 66.476471 
L 375.84 67.348235 
L 375.84 68.22 
L 375.84 69.091765 
L 375.84 69.963529 
L 375.84 70.835294 
L 375.84 71.707059 
L 375.84 72.578824 
L 375.84 73.450588 
L 375.84 74.322353 
L 375.84 75.194118 
L 375.84 76.065882 
L 375.84 76.937647 
L 375.84 77.809412 
L 375.84 78.681176 
L 375.84 79.552941 
L 375.84 80.424706 
L 375.84 81.296471 
L 375.84 82.168235 
L 375.84 83.04 
L 375.84 83.911765 
L 375.84 84.783529 
L 375.84 85.655294 
L 375.84 86.527059 
L 375.84 87.398824 
L 375.84 88.270588 
L 375.84 89.142353 
L 375.84 90.014118 
L 375.84 90.885882 
L 375.84 91.757647 
L 375.84 92.629412 
L 375.84 93.501176 
L 375.84 94.372941 
L 375.84 95.244706 
L 375.84 96.116471 
L 375.84 96.988235 
L 375.84 97.86 
L 375.84 98.731765 
L 375.84 99.603529 
L 375.84 100.475294 
L 375.84 101.347059 
L 375.84 102.218824 
L 375.84 103.090588 
L 375.84 103.962353 
L 375.84 104.834118 
L 375.84 105.705882 
L 375.84 106.577647 
L 375.84 107.449412 
L 375.84 108.321176 
L 375.84 109.192941 
L 375.84 110.064706 
L 375.84 110.936471 
L 375.84 111.808235 
L 375.84 112.68 
L 375.84 113.551765 
L 375.84 114.423529 
L 375.84 115.295294 
L 375.84 116.167059 
L 375.84 117.038824 
L 375.84 117.910588 
L 375.84 118.782353 
L 375.84 119.654118 
L 375.84 120.525882 
L 375.84 121.397647 
L 375.84 122.269412 
L 375.84 123.141176 
L 375.84 124.012941 
L 375.84 124.012941 
" clip-path="url(#pbfae55c0f3)" style="fill: none; stroke: #1f6feb; stroke-width: 1.6; stroke-linecap: square"/>
   </g>
   <g id="line2d_17">
    <path d="M 330.508235 49.854845 
L 330.944118 50.609815 
L 331.38 51.364786 
L 331.815882 52.119756 
L 332.251765 52.874727 
L 332.687647 53.629697 
L 333.123529 54.384667 
L 333.559412 55.139638 
L 333.995294 55.894608 
L 334.431176 56.649578 
L 334.867059 57.404549 
L 335.302941 58.159519 
L 335.738824 58.91449 
L 336.174706 59.66946 
L 336.610588 60.42443 
L 337.046471 61.179401 
L 337.482353 61.934371 
L 337.918235 62.689342 
L 338.354118 63.444312 
L 338.79 64.199282 
L 339.225882 64.954253 
L 339.661765 65.709223 
L 340.097647 66.464193 
L 340.533529 67.219164 
L 340.969412 67.974134 
L 341.405294 68.729105 
L 341.841176 69.484075 
L 342.277059 70.239045 
L 342.712941 70.994016 
L 343.148824 71.748986 
L 343.584706 72.503956 
L 344.020588 73.258927 
L 344.456471 74.013897 
L 344.892353 74.768868 
L 345.328235 75.523838 
L 345.764118 76.278808 
L 346.2 77.033779 
L 346.635882 77.788749 
L 347.071765 78.54372 
L 347.507647 79.29869 
L 347.943529 80.05366 
L 348.379412 80.808631 
L 348.815294 81.563601 
L 349.251176 82.318571 
L 349.687059 83.073542 
L 350.122941 83.828512 
L 350.558824 84.583483 
L 350.994706 85.338453 
L 351.430588 86.093423 
L 351.866471 86.848394 
L 352.302353 87.603364 
L 352.738235 88.358334 
L 353.174118 89.113305 
L 353.61 89.868275 
L 354.045882 90.623246 
L 354.481765 91.378216 
L 354.917647 92.133186 
L 355.353529 92.888157 
L 355.789412 93.643127 
L 356.225294 94.398098 
L 356.661176 95.153068 
L 357.097059 95.908038 
L 357.532941 96.663009 
L 357.968824 97.417979 
L 358.404706 98.172949 
L 358.840588 98.92792 
L 359.276471 99.68289 
L 359.712353 100.437861 
L 360.148235 101.192831 
L 360.584118 101.947801 
L 361.02 102.702772 
L 361.455882 103.457742 
L 361.891765 104.212713 
L 362.327647 104.967683 
L 362.763529 105.722653 
L 363.199412 106.477624 
L 363.635294 107.232594 
L 364.071176 107.987564 
L 364.507059 108.742535 
L 364.942941 109.497505 
L 365.378824 110.252476 
L 365.814706 111.007446 
L 366.250588 111.762416 
L 366.686471 112.517387 
L 367.122353 113.272357 
L 367.558235 114.027327 
L 367.994118 114.782298 
L 368.43 115.537268 
L 368.865882 116.292239 
L 369.301765 117.047209 
L 369.737647 117.802179 
L 370.173529 118.55715 
L 370.609412 119.31212 
L 371.045294 120.067091 
L 371.481176 120.822061 
L 371.917059 121.577031 
L 372.352941 122.332002 
L 372.788824 123.086972 
L 373.224706 123.841942 
L 373.660588 124.596913 
L 373.660588 124.596913 
" clip-path="url(#pbfae55c0f3)" style="fill: none; stroke: #1f6feb; stroke-width: 1.6; stroke-linecap: square"/>
   </g>
   <g id="line2d_18">
    <path d="M 297.32308 83.04 
L 298.078051 83.475882 
L 298.833021 83.911765 
L 299.587991 84.347647 
L 300.342962 84.783529 
L 301.097932 85.219412 
L 301.852903 85.655294 
L 302.607873 86.091176 
L 303.362843 86.527059 
L 304.117814 86.962941 
L 304.872784 87.398824 
L 305.627755 87.834706 
L 306.382725 88.270588 
L 307.137695 88.706471 
L 307.892666 89.142353 
L 308.647636 89.578235 
L 309.402606 90.014118 
L 310.157577 90.45 
L 310.912547 90.885882 
L 311.667518 91.321765 
L 312.422488 91.757647 
L 313.177458 92.193529 
L 313.932429 92.629412 
L 314.687399 93.065294 
L 315.442369 93.501176 
L 316.19734 93.937059 
L 316.95231 94.372941 
L 317.707281 94.808824 
L 318.462251 95.244706 
L 319.217221 95.680588 
L 319.972192 96.116471 
L 320.727162 96.552353 
L 321.482133 96.988235 
L 322.237103 97.424118 
L 322.992073 97.86 
L 323.747044 98.295882 
L 324.502014 98.731765 
L 325.256984 99.167647 
L 326.011955 99.603529 
L 326.766925 100.039412 
L 327.521896 100.475294 
L 328.276866 100.911176 
L 329.031836 101.347059 
L 329.786807 101.782941 
L 330.541777 102.218824 
L 331.296747 102.654706 
L 332.051718 103.090588 
L 332.806688 103.526471 
L 333.561659 103.962353 
L 334.316629 104.398235 
L 335.071599 104.834118 
L 335.82657 105.27 
L 336.58154 105.705882 
L 337.336511 106.141765 
L 338.091481 106.577647 
L 338.846451 107.013529 
L 339.601422 107.449412 
L 340.356392 107.885294 
L 341.111362 108.321176 
L 341.866333 108.757059 
L 342.621303 109.192941 
L 343.376274 109.628824 
L 344.131244 110.064706 
L 344.886214 110.500588 
L 345.641185 110.936471 
L 346.396155 111.372353 
L 347.151126 111.808235 
L 347.906096 112.244118 
L 348.661066 112.68 
L 349.416037 113.115882 
L 350.171007 113.551765 
L 350.925977 113.987647 
L 351.680948 114.423529 
L 352.435918 114.859412 
L 353.190889 115.295294 
L 353.945859 115.731176 
L 354.700829 116.167059 
L 355.4558 116.602941 
L 356.21077 117.038824 
L 356.96574 117.474706 
L 357.720711 117.910588 
L 358.475681 118.346471 
L 359.230652 118.782353 
L 359.985622 119.218235 
L 360.740592 119.654118 
L 361.495563 120.09 
L 362.250533 120.525882 
L 363.005504 120.961765 
L 363.760474 121.397647 
L 364.515444 121.833529 
L 365.270415 122.269412 
L 366.025385 122.705294 
L 366.780355 123.141176 
L 367.535326 123.577059 
L 368.290296 124.012941 
L 369.045267 124.448824 
L 369.800237 124.884706 
L 370.555207 125.320588 
L 371.310178 125.756471 
L 372.065148 126.192353 
L 372.065148 126.192353 
" clip-path="url(#pbfae55c0f3)" style="fill: none; stroke: #1f6feb; stroke-width: 1.6; stroke-linecap: square"/>
   </g>
   <g id="line2d_19">
    <path d="M 285.176471 128.371765 
L 286.048235 128.371765 
L 286.92 128.371765 
L 287.791765 128.371765 
L 288.663529 128.371765 
L 289.535294 128.371765 
L 290.407059 128.371765 
L 291.278824 128.371765 
L 292.150588 128.371765 
L 293.022353 128.371765 
L 293.894118 128.371765 
L 294.765882 128.371765 
L 295.637647 128.371765 
L 296.509412 128.371765 
L 297.381176 128.371765 
L 298.252941 128.371765 
L 299.124706 128.371765 
L 299.996471 128.371765 
L 300.868235 128.371765 
L 301.74 128.371765 
L 302.611765 128.371765 
L 303.483529 128.371765 
L 304.355294 128.371765 
L 305.227059 128.371765 
L 306.098824 128.371765 
L 306.970588 128.371765 
L 307.842353 128.371765 
L 308.714118 128.371765 
L 309.585882 128.371765 
L 310.457647 128.371765 
L 311.329412 128.371765 
L 312.201176 128.371765 
L 313.072941 128.371765 
L 313.944706 128.371765 
L 314.816471 128.371765 
L 315.688235 128.371765 
L 316.56 128.371765 
L 317.431765 128.371765 
L 318.303529 128.371765 
L 319.175294 128.371765 
L 320.047059 128.371765 
L 320.918824 128.371765 
L 321.790588 128.371765 
L 322.662353 128.371765 
L 323.534118 128.371765 
L 324.405882 128.371765 
L 325.277647 128.371765 
L 326.149412 128.371765 
L 327.021176 128.371765 
L 327.892941 128.371765 
L 328.764706 128.371765 
L 329.636471 128.371765 
L 330.508235 128.371765 
L 331.38 128.371765 
L 332.251765 128.371765 
L 333.123529 128.371765 
L 333.995294 128.371765 
L 334.867059 128.371765 
L 335.738824 128.371765 
L 336.610588 128.371765 
L 337.482353 128.371765 
L 338.354118 128.371765 
L 339.225882 128.371765 
L 340.097647 128.371765 
L 340.969412 128.371765 
L 341.841176 128.371765 
L 342.712941 128.371765 
L 343.584706 128.371765 
L 344.456471 128.371765 
L 345.328235 128.371765 
L 346.2 128.371765 
L 347.071765 128.371765 
L 347.943529 128.371765 
L 348.815294 128.371765 
L 349.687059 128.371765 
L 350.558824 128.371765 
L 351.430588 128.371765 
L 352.302353 128.371765 
L 353.174118 128.371765 
L 354.045882 128.371765 
L 354.917647 128.371765 
L 355.789412 128.371765 
L 356.661176 128.371765 
L 357.532941 128.371765 
L 358.404706 128.371765 
L 359.276471 128.371765 
L 360.148235 128.371765 
L 361.02 128.371765 
L 361.891765 128.371765 
L 362.763529 128.371765 
L 363.635294 128.371765 
L 364.507059 128.371765 
L 365.378824 128.371765 
L 366.250588 128.371765 
L 367.122353 128.371765 
L 367.994118 128.371765 
L 368.865882 128.371765 
L 369.737647 128.371765 
L 370.609412 128.371765 
L 371.481176 128.371765 
L 371.481176 128.371765 
" clip-path="url(#pbfae55c0f3)" style="fill: none; stroke: #1f6feb; stroke-width: 1.6; stroke-linecap: square"/>
   </g>
   <g id="line2d_20">
    <path d="M 297.32308 173.703529 
L 298.078051 173.267647 
L 298.833021 172.831765 
L 299.587991 172.395882 
L 300.342962 171.96 
L 301.097932 171.524118 
L 301.852903 171.088235 
L 302.607873 170.652353 
L 303.362843 170.216471 
L 304.117814 169.780588 
L 304.872784 169.344706 
L 305.627755 168.908824 
L 306.382725 168.472941 
L 307.137695 168.037059 
L 307.892666 167.601176 
L 308.647636 167.165294 
L 309.402606 166.729412 
L 310.157577 166.293529 
L 310.912547 165.857647 
L 311.667518 165.421765 
L 312.422488 164.985882 
L 313.177458 164.55 
L 313.932429 164.114118 
L 314.687399 163.678235 
L 315.442369 163.242353 
L 316.19734 162.806471 
L 316.95231 162.370588 
L 317.707281 161.934706 
L 318.462251 161.498824 
L 319.217221 161.062941 
L 319.972192 160.627059 
L 320.727162 160.191176 
L 321.482133 159.755294 
L 322.237103 159.319412 
L 322.992073 158.883529 
L 323.747044 158.447647 
L 324.502014 158.011765 
L 325.256984 157.575882 
L 326.011955 157.14 
L 326.766925 156.704118 
L 327.521896 156.268235 
L 328.276866 155.832353 
L 329.031836 155.396471 
L 329.786807 154.960588 
L 330.541777 154.524706 
L 331.296747 154.088824 
L 332.051718 153.652941 
L 332.806688 153.217059 
L 333.561659 152.781176 
L 334.316629 152.345294 
L 335.071599 151.909412 
L 335.82657 151.473529 
L 336.58154 151.037647 
L 337.336511 150.601765 
L 338.091481 150.165882 
L 338.846451 149.73 
L 339.601422 149.294118 
L 340.356392 148.858235 
L 341.111362 148.422353 
L 341.866333 147.986471 
L 342.621303 147.550588 
L 343.376274 147.114706 
L 344.131244 146.678824 
L 344.886214 146.242941 
L 345.641185 145.807059 
L 346.396155 145.371176 
L 347.151126 144.935294 
L 347.906096 144.499412 
L 348.661066 144.063529 
L 349.416037 143.627647 
L 350.171007 143.191765 
L 350.925977 142.755882 
L 351.680948 142.32 
L 352.435918 141.884118 
L 353.190889 141.448235 
L 353.945859 141.012353 
L 354.700829 140.576471 
L 355.4558 140.140588 
L 356.21077 139.704706 
L 356.96574 139.268824 
L 357.720711 138.832941 
L 358.475681 138.397059 
L 359.230652 137.961176 
L 359.985622 137.525294 
L 360.740592 137.089412 
L 361.495563 136.653529 
L 362.250533 136.217647 
L 363.005504 135.781765 
L 363.760474 135.345882 
L 364.515444 134.91 
L 365.270415 134.474118 
L 366.025385 134.038235 
L 366.780355 133.602353 
L 367.535326 133.166471 
L 368.290296 132.730588 
L 369.045267 132.294706 
L 369.800237 131.858824 
L 370.555207 131.422941 
L 371.310178 130.987059 
L 372.065148 130.551176 
L 372.065148 130.551176 
" clip-path="url(#pbfae55c0f3)" style="fill: none; stroke: #1f6feb; stroke-width: 1.6; stroke-linecap: square"/>
   </g>
   <g id="line2d_21">
    <path d="M 330.508235 206.888684 
L 330.944118 206.133714 
L 331.38 205.378744 
L 331.815882 204.623773 
L 332.251765 203.868803 
L 332.687647 203.113832 
L 333.123529 202.358862 
L 333.559412 201.603892 
L 333.995294 200.848921 
L 334.431176 200.093951 
L 334.867059 199.338981 
L 335.302941 198.58401 
L 335.738824 197.82904 
L 336.174706 197.074069 
L 336.610588 196.319099 
L 337.046471 195.564129 
L 337.482353 194.809158 
L 337.918235 194.054188 
L 338.354118 193.299218 
L 338.79 192.544247 
L 339.225882 191.789277 
L 339.661765 191.034306 
L 340.097647 190.279336 
L 340.533529 189.524366 
L 340.969412 188.769395 
L 341.405294 188.014425 
L 341.841176 187.259454 
L 342.277059 186.504484 
L 342.712941 185.749514 
L 343.148824 184.994543 
L 343.584706 184.239573 
L 344.020588 183.484603 
L 344.456471 182.729632 
L 344.892353 181.974662 
L 345.328235 181.219691 
L 345.764118 180.464721 
L 346.2 179.709751 
L 346.635882 178.95478 
L 347.071765 178.19981 
L 347.507647 177.444839 
L 347.943529 176.689869 
L 348.379412 175.934899 
L 348.815294 175.179928 
L 349.251176 174.424958 
L 349.687059 173.669988 
L 350.122941 172.915017 
L 350.558824 172.160047 
L 350.994706 171.405076 
L 351.430588 170.650106 
L 351.866471 169.895136 
L 352.302353 169.140165 
L 352.738235 168.385195 
L 353.174118 167.630225 
L 353.61 166.875254 
L 354.045882 166.120284 
L 354.481765 165.365313 
L 354.917647 164.610343 
L 355.353529 163.855373 
L 355.789412 163.100402 
L 356.225294 162.345432 
L 356.661176 161.590461 
L 357.097059 160.835491 
L 357.532941 160.080521 
L 357.968824 159.32555 
L 358.404706 158.57058 
L 358.840588 157.81561 
L 359.276471 157.060639 
L 359.712353 156.305669 
L 360.148235 155.550698 
L 360.584118 154.795728 
L 361.02 154.040758 
L 361.455882 153.285787 
L 361.891765 152.530817 
L 362.327647 151.775847 
L 362.763529 151.020876 
L 363.199412 150.265906 
L 363.635294 149.510935 
L 364.071176 148.755965 
L 364.507059 148.000995 
L 364.942941 147.246024 
L 365.378824 146.491054 
L 365.814706 145.736083 
L 366.250588 144.981113 
L 366.686471 144.226143 
L 367.122353 143.471172 
L 367.558235 142.716202 
L 367.994118 141.961232 
L 368.43 141.206261 
L 368.865882 140.451291 
L 369.301765 139.69632 
L 369.737647 138.94135 
L 370.173529 138.18638 
L 370.609412 137.431409 
L 371.045294 136.676439 
L 371.481176 135.921469 
L 371.917059 135.166498 
L 372.352941 134.411528 
L 372.788824 133.656557 
L 373.224706 132.901587 
L 373.660588 132.146617 
L 373.660588 132.146617 
" clip-path="url(#pbfae55c0f3)" style="fill: none; stroke: #1f6feb; stroke-width: 1.6; stroke-linecap: square"/>
   </g>
   <g id="line2d_22">
    <path d="M 375.84 219.035294 
L 375.84 218.163529 
L 375.84 217.291765 
L 375.84 216.42 
L 375.84 215.548235 
L 375.84 214.676471 
L 375.84 213.804706 
L 375.84 212.932941 
L 375.84 212.061176 
L 375.84 211.189412 
L 375.84 210.317647 
L 375.84 209.445882 
L 375.84 208.574118 
L 375.84 207.702353 
L 375.84 206.830588 
L 375.84 205.958824 
L 375.84 205.087059 
L 375.84 204.215294 
L 375.84 203.343529 
L 375.84 202.471765 
L 375.84 201.6 
L 375.84 200.728235 
L 375.84 199.856471 
L 375.84 198.984706 
L 375.84 198.112941 
L 375.84 197.241176 
L 375.84 196.369412 
L 375.84 195.497647 
L 375.84 194.625882 
L 375.84 193.754118 
L 375.84 192.882353 
L 375.84 192.010588 
L 375.84 191.138824 
L 375.84 190.267059 
L 375.84 189.395294 
L 375.84 188.523529 
L 375.84 187.651765 
L 375.84 186.78 
L 375.84 185.908235 
L 375.84 185.036471 
L 375.84 184.164706 
L 375.84 183.292941 
L 375.84 182.421176 
L 375.84 181.549412 
L 375.84 180.677647 
L 375.84 179.805882 
L 375.84 178.934118 
L 375.84 178.062353 
L 375.84 177.190588 
L 375.84 176.318824 
L 375.84 175.447059 
L 375.84 174.575294 
L 375.84 173.703529 
L 375.84 172.831765 
L 375.84 171.96 
L 375.84 171.088235 
L 375.84 170.216471 
L 375.84 169.344706 
L 375.84 168.472941 
L 375.84 167.601176 
L 375.84 166.729412 
L 375.84 165.857647 
L 375.84 164.985882 
L 375.84 164.114118 
L 375.84 163.242353 
L 375.84 162.370588 
L 375.84 161.498824 
L 375.84 160.627059 
L 375.84 159.755294 
L 375.84 158.883529 
L 375.84 158.011765 
L 375.84 157.14 
L 375.84 156.268235 
L 375.84 155.396471 
L 375.84 154.524706 
L 375.84 153.652941 
L 375.84 152.781176 
L 375.84 151.909412 
L 375.84 151.037647 
L 375.84 150.165882 
L 375.84 149.294118 
L 375.84 148.422353 
L 375.84 147.550588 
L 375.84 146.678824 
L 375.84 145.807059 
L 375.84 144.935294 
L 375.84 144.063529 
L 375.84 143.191765 
L 375.84 142.32 
L 375.84 141.448235 
L 375.84 140.576471 
L 375.84 139.704706 
L 375.84 138.832941 
L 375.84 137.961176 
L 375.84 137.089412 
L 375.84 136.217647 
L 375.84 135.345882 
L 375.84 134.474118 
L 375.84 133.602353 
L 375.84 132.730588 
L 375.84 132.730588 
" clip-path="url(#pbfae55c0f3)" style="fill: none; stroke: #1f6feb; stroke-width: 1.6; stroke-linecap: square"/>
   </g>
   <g id="line2d_23">
    <path d="M 421.171765 206.888684 
L 420.735882 206.133714 
L 420.3 205.378744 
L 419.864118 204.623773 
L 419.428235 203.868803 
L 418.992353 203.113832 
L 418.556471 202.358862 
L 418.120588 201.603892 
L 417.684706 200.848921 
L 417.248824 200.093951 
L 416.812941 199.338981 
L 416.377059 198.58401 
L 415.941176 197.82904 
L 415.505294 197.074069 
L 415.069412 196.319099 
L 414.633529 195.564129 
L 414.197647 194.809158 
L 413.761765 194.054188 
L 413.325882 193.299218 
L 412.89 192.544247 
L 412.454118 191.789277 
L 412.018235 191.034306 
L 411.582353 190.279336 
L 411.146471 189.524366 
L 410.710588 188.769395 
L 410.274706 188.014425 
L 409.838824 187.259454 
L 409.402941 186.504484 
L 408.967059 185.749514 
L 408.531176 184.994543 
L 408.095294 184.239573 
L 407.659412 183.484603 
L 407.223529 182.729632 
L 406.787647 181.974662 
L 406.351765 181.219691 
L 405.915882 180.464721 
L 405.48 179.709751 
L 405.044118 178.95478 
L 404.608235 178.19981 
L 404.172353 177.444839 
L 403.736471 176.689869 
L 403.300588 175.934899 
L 402.864706 175.179928 
L 402.428824 174.424958 
L 401.992941 173.669988 
L 401.557059 172.915017 
L 401.121176 172.160047 
L 400.685294 171.405076 
L 400.249412 170.650106 
L 399.813529 169.895136 
L 399.377647 169.140165 
L 398.941765 168.385195 
L 398.505882 167.630225 
L 398.07 166.875254 
L 397.634118 166.120284 
L 397.198235 165.365313 
L 396.762353 164.610343 
L 396.326471 163.855373 
L 395.890588 163.100402 
L 395.454706 162.345432 
L 395.018824 161.590461 
L 394.582941 160.835491 
L 394.147059 160.080521 
L 393.711176 159.32555 
L 393.275294 158.57058 
L 392.839412 157.81561 
L 392.403529 157.060639 
L 391.967647 156.305669 
L 391.531765 155.550698 
L 391.095882 154.795728 
L 390.66 154.040758 
L 390.224118 153.285787 
L 389.788235 152.530817 
L 389.352353 151.775847 
L 388.916471 151.020876 
L 388.480588 150.265906 
L 388.044706 149.510935 
L 387.608824 148.755965 
L 387.172941 148.000995 
L 386.737059 147.246024 
L 386.301176 146.491054 
L 385.865294 145.736083 
L 385.429412 144.981113 
L 384.993529 144.226143 
L 384.557647 143.471172 
L 384.121765 142.716202 
L 383.685882 141.961232 
L 383.25 141.206261 
L 382.814118 140.451291 
L 382.378235 139.69632 
L 381.942353 138.94135 
L 381.506471 138.18638 
L 381.070588 137.431409 
L 380.634706 136.676439 
L 380.198824 135.921469 
L 379.762941 135.166498 
L 379.327059 134.411528 
L 378.891176 133.656557 
L 378.455294 132.901587 
L 378.019412 132.146617 
L 378.019412 132.146617 
" clip-path="url(#pbfae55c0f3)" style="fill: none; stroke: #1f6feb; stroke-width: 1.6; stroke-linecap: square"/>
   </g>
   <g id="line2d_24">
    <path d="M 454.35692 173.703529 
L 453.601949 173.267647 
L 452.846979 172.831765 
L 452.092009 172.395882 
L 451.337038 171.96 
L 450.582068 171.524118 
L 449.827097 171.088235 
L 449.072127 170.652353 
L 448.317157 170.216471 
L 447.562186 169.780588 
L 446.807216 169.344706 
L 446.052245 168.908824 
L 445.297275 168.472941 
L 444.542305 168.037059 
L 443.787334 167.601176 
L 443.032364 167.165294 
L 442.277394 166.729412 
L 441.522423 166.293529 
L 440.767453 165.857647 
L 440.012482 165.421765 
L 439.257512 164.985882 
L 438.502542 164.55 
L 437.747571 164.114118 
L 436.992601 163.678235 
L 436.237631 163.242353 
L 435.48266 162.806471 
L 434.72769 162.370588 
L 433.972719 161.934706 
L 433.217749 161.498824 
L 432.462779 161.062941 
L 431.707808 160.627059 
L 430.952838 160.191176 
L 430.197867 159.755294 
L 429.442897 159.319412 
L 428.687927 158.883529 
L 427.932956 158.447647 
L 427.177986 158.011765 
L 426.423016 157.575882 
L 425.668045 157.14 
L 424.913075 156.704118 
L 424.158104 156.268235 
L 423.403134 155.832353 
L 422.648164 155.396471 
L 421.893193 154.960588 
L 421.138223 154.524706 
L 420.383253 154.088824 
L 419.628282 153.652941 
L 418.873312 153.217059 
L 418.118341 152.781176 
L 417.363371 152.345294 
L 416.608401 151.909412 
L 415.85343 151.473529 
L 415.09846 151.037647 
L 414.343489 150.601765 
L 413.588519 150.165882 
L 412.833549 149.73 
L 412.078578 149.294118 
L 411.323608 148.858235 
L 410.568638 148.422353 
L 409.813667 147.986471 
L 409.058697 147.550588 
L 408.303726 147.114706 
L 407.548756 146.678824 
L 406.793786 146.242941 
L 406.038815 145.807059 
L 405.283845 145.371176 
L 404.528874 144.935294 
L 403.773904 144.499412 
L 403.018934 144.063529 
L 402.263963 143.627647 
L 401.508993 143.191765 
L 400.754023 142.755882 
L 399.999052 142.32 
L 399.244082 141.884118 
L 398.489111 141.448235 
L 397.734141 141.012353 
L 396.979171 140.576471 
L 396.2242 140.140588 
L 395.46923 139.704706 
L 394.71426 139.268824 
L 393.959289 138.832941 
L 393.204319 138.397059 
L 392.449348 137.961176 
L 391.694378 137.525294 
L 390.939408 137.089412 
L 390.184437 136.653529 
L 389.429467 136.217647 
L 388.674496 135.781765 
L 387.919526 135.345882 
L 387.164556 134.91 
L 386.409585 134.474118 
L 385.654615 134.038235 
L 384.899645 133.602353 
L 384.144674 133.166471 
L 383.389704 132.730588 
L 382.634733 132.294706 
L 381.879763 131.858824 
L 381.124793 131.422941 
L 380.369822 130.987059 
L 379.614852 130.551176 
L 379.614852 130.551176 
" clip-path="url(#pbfae55c0f3)" style="fill: none; stroke: #1f6feb; stroke-width: 1.6; stroke-linecap: square"/>
   </g>
   <g id="patch_15">
    <path d="M 423.787059 128.371765 
Q 422.915294 128.371765 423.608777 128.371765 
" clip-path="url(#pbfae55c0f3)" style="fill: none; stroke: #1f6feb; stroke-width: 1.4; stroke-linecap: round"/>
    <path d="M 428.408777 130.771765 
L 423.608777 128.371765 
L 428.408777 125.971765 
z
" clip-path="url(#pbfae55c0f3)" style="fill: #1f6feb; stroke: #1f6feb; stroke-width: 1.4; stroke-linecap: round"/>
   </g>
   <g id="patch_16">
    <path d="M 417.363371 104.398235 
Q 416.608401 104.834118 417.208974 104.487376 
" clip-path="url(#pbfae55c0f3)" style="fill: none; stroke: #1f6feb; stroke-width: 1.4; stroke-linecap: round"/>
    <path d="M 422.565896 104.165837 
L 417.208974 104.487376 
L 420.165896 100.008915 
z
" clip-path="url(#pbfae55c0f3)" style="fill: #1f6feb; stroke: #1f6feb; stroke-width: 1.4; stroke-linecap: round"/>
   </g>
   <g id="patch_17">
    <path d="M 399.813529 86.848394 
Q 399.377647 87.603364 399.724388 87.00279 
" clip-path="url(#pbfae55c0f3)" style="fill: none; stroke: #1f6feb; stroke-width: 1.4; stroke-linecap: round"/>
    <path d="M 404.202849 84.045868 
L 399.724388 87.00279 
L 400.045928 81.645868 
z
" clip-path="url(#pbfae55c0f3)" style="fill: #1f6feb; stroke: #1f6feb; stroke-width: 1.4; stroke-linecap: round"/>
   </g>
   <g id="patch_18">
    <path d="M 375.84 80.424706 
Q 375.84 81.296471 375.84 80.602988 
" clip-path="url(#pbfae55c0f3)" style="fill: none; stroke: #1f6feb; stroke-width: 1.4; stroke-linecap: round"/>
    <path d="M 378.24 75.802988 
L 375.84 80.602988 
L 373.44 75.802988 
z
" clip-path="url(#pbfae55c0f3)" style="fill: #1f6feb; stroke: #1f6feb; stroke-width: 1.4; stroke-linecap: round"/>
   </g>
   <g id="patch_19">
    <path d="M 351.866471 86.848394 
Q 352.302353 87.603364 351.955612 87.00279 
" clip-path="url(#pbfae55c0f3)" style="fill: none; stroke: #1f6feb; stroke-width: 1.4; stroke-linecap: round"/>
    <path d="M 351.634072 81.645868 
L 351.955612 87.00279 
L 347.477151 84.045868 
z
" clip-path="url(#pbfae55c0f3)" style="fill: #1f6feb; stroke: #1f6feb; stroke-width: 1.4; stroke-linecap: round"/>
   </g>
   <g id="patch_20">
    <path d="M 334.316629 104.398235 
Q 335.071599 104.834118 334.471026 104.487376 
" clip-path="url(#pbfae55c0f3)" style="fill: none; stroke: #1f6feb; stroke-width: 1.4; stroke-linecap: round"/>
    <path d="M 331.514104 100.008915 
L 334.471026 104.487376 
L 329.114104 104.165837 
z
" clip-path="url(#pbfae55c0f3)" style="fill: #1f6feb; stroke: #1f6feb; stroke-width: 1.4; stroke-linecap: round"/>
   </g>
   <g id="patch_21">
    <path d="M 327.892941 128.371765 
Q 328.764706 128.371765 328.071223 128.371765 
" clip-path="url(#pbfae55c0f3)" style="fill: none; stroke: #1f6feb; stroke-width: 1.4; stroke-linecap: round"/>
    <path d="M 323.271223 125.971765 
L 328.071223 128.371765 
L 323.271223 130.771765 
z
" clip-path="url(#pbfae55c0f3)" style="fill: #1f6feb; stroke: #1f6feb; stroke-width: 1.4; stroke-linecap: round"/>
   </g>
   <g id="patch_22">
    <path d="M 334.316629 152.345294 
Q 335.071599 151.909412 334.471026 152.256153 
" clip-path="url(#pbfae55c0f3)" style="fill: none; stroke: #1f6feb; stroke-width: 1.4; stroke-linecap: round"/>
    <path d="M 329.114104 152.577692 
L 334.471026 152.256153 
L 331.514104 156.734614 
z
" clip-path="url(#pbfae55c0f3)" style="fill: #1f6feb; stroke: #1f6feb; stroke-width: 1.4; stroke-linecap: round"/>
   </g>
   <g id="patch_23">
    <path d="M 351.866471 169.895136 
Q 352.302353 169.140165 351.955612 169.740739 
" clip-path="url(#pbfae55c0f3)" style="fill: none; stroke: #1f6feb; stroke-width: 1.4; stroke-linecap: round"/>
    <path d="M 347.477151 172.697661 
L 351.955612 169.740739 
L 351.634072 175.097661 
z
" clip-path="url(#pbfae55c0f3)" style="fill: #1f6feb; stroke: #1f6feb; stroke-width: 1.4; stroke-linecap: round"/>
   </g>
   <g id="patch_24">
    <path d="M 375.84 176.318824 
Q 375.84 175.447059 375.84 176.140542 
" clip-path="url(#pbfae55c0f3)" style="fill: none; stroke: #1f6feb; stroke-width: 1.4; stroke-linecap: round"/>
    <path d="M 373.44 180.940542 
L 375.84 176.140542 
L 378.24 180.940542 
z
" clip-path="url(#pbfae55c0f3)" style="fill: #1f6feb; stroke: #1f6feb; stroke-width: 1.4; stroke-linecap: round"/>
   </g>
   <g id="patch_25">
    <path d="M 399.813529 169.895136 
Q 399.377647 169.140165 399.724388 169.740739 
" clip-path="url(#pbfae55c0f3)" style="fill: none; stroke: #1f6feb; stroke-width: 1.4; stroke-linecap: round"/>
    <path d="M 400.045928 175.097661 
L 399.724388 169.740739 
L 404.202849 172.697661 
z
" clip-path="url(#pbfae55c0f3)" style="fill: #1f6feb; stroke: #1f6feb; stroke-width: 1.4; stroke-linecap: round"/>
   </g>
   <g id="patch_26">
    <path d="M 417.363371 152.345294 
Q 416.608401 151.909412 417.208974 152.256153 
" clip-path="url(#pbfae55c0f3)" style="fill: none; stroke: #1f6feb; stroke-width: 1.4; stroke-linecap: round"/>
    <path d="M 420.165896 156.734614 
L 417.208974 152.256153 
L 422.565896 152.577692 
z
" clip-path="url(#pbfae55c0f3)" style="fill: #1f6feb; stroke: #1f6feb; stroke-width: 1.4; stroke-linecap: round"/>
   </g>
   <g id="text_3">
    <!-- 負電荷：電力線向內 -->
    <g style="fill: #222831" transform="translate(321.84 17.76) scale(0.12 -0.12)">
     <defs>
      <path id="NotoSansCJKjp-Regular-9777" d="M 1606 2560 
L 4883 2560 
L 4883 1958 
L 1606 1958 
L 1606 2560 
z
M 1606 1594 
L 4883 1594 
L 4883 992 
L 1606 992 
L 1606 1594 
z
M 1606 3514 
L 4883 3514 
L 4883 2925 
L 1606 2925 
L 1606 3514 
z
M 3776 237 
C 4448 -6 5133 -301 5530 -525 
L 6035 -256 
C 5581 -32 4832 275 4147 506 
L 3776 237 
z
M 2214 512 
C 1760 250 1005 0 365 -154 
C 480 -243 653 -435 730 -538 
C 1357 -346 2163 -26 2669 301 
L 2214 512 
z
M 2074 4512 
L 3635 4512 
C 3507 4307 3341 4083 3168 3910 
L 1510 3910 
C 1715 4102 1907 4307 2074 4512 
z
M 2080 5370 
C 1760 4794 1152 4096 314 3584 
C 435 3514 595 3360 672 3245 
C 832 3347 986 3462 1126 3578 
L 1126 595 
L 5376 595 
L 5376 3910 
L 3744 3910 
C 3955 4160 4166 4448 4314 4710 
L 3987 4922 
L 3910 4902 
L 2368 4902 
C 2451 5024 2534 5146 2605 5267 
L 2080 5370 
z
" transform="scale(0.015625)"/>
      <path id="NotoSansCJKjp-Regular-2a90" d="M 1824 5088 
L 1824 4659 
L 2976 4659 
C 2995 4410 3021 4173 3053 3942 
L 704 3942 
L 704 -512 
L 1184 -512 
L 1184 3469 
L 2854 3469 
C 2630 2458 2112 1773 1242 1344 
C 1344 1261 1504 1075 1568 966 
C 2426 1408 2950 2118 3226 3098 
C 3501 2138 4000 1421 4838 998 
C 4915 1126 5075 1318 5184 1414 
C 4339 1779 3859 2483 3610 3469 
L 5254 3469 
L 5254 115 
C 5254 19 5222 -19 5107 -19 
C 4986 -26 4576 -32 4154 -13 
C 4230 -154 4307 -371 4326 -506 
C 4864 -506 5235 -506 5459 -422 
C 5670 -346 5734 -192 5734 115 
L 5734 3942 
L 3507 3942 
C 3450 4294 3411 4678 3392 5088 
L 1824 5088 
z
" transform="scale(0.015625)"/>
     </defs>
     <use xlink:href="#NotoSansCJKjp-Regular-9777"/>
     <use xlink:href="#NotoSansCJKjp-Regular-a9c5" transform="translate(100 0)"/>
     <use xlink:href="#NotoSansCJKjp-Regular-8554" transform="translate(200 0)"/>
     <use xlink:href="#NotoSansCJKjp-Regular-e6c0" transform="translate(300 0)"/>
     <use xlink:href="#NotoSansCJKjp-Regular-a9c5" transform="translate(400 0)"/>
     <use xlink:href="#NotoSansCJKjp-Regular-2c71" transform="translate(500 0)"/>
     <use xlink:href="#NotoSansCJKjp-Regular-7a17" transform="translate(600 0)"/>
     <use xlink:href="#NotoSansCJKjp-Regular-2eb8" transform="translate(700 0)"/>
     <use xlink:href="#NotoSansCJKjp-Regular-2a90" transform="translate(800 0)"/>
    </g>
   </g>
   <g id="patch_27">
    <path d="M 375.84 138.832941 
C 378.614336 138.832941 381.275417 137.730686 383.237169 135.768934 
C 385.198921 133.807181 386.301176 131.146101 386.301176 128.371765 
C 386.301176 125.597428 385.198921 122.936348 383.237169 120.974596 
C 381.275417 119.012844 378.614336 117.910588 375.84 117.910588 
C 373.065664 117.910588 370.404583 119.012844 368.442831 120.974596 
C 366.481079 122.936348 365.378824 125.597428 365.378824 128.371765 
C 365.378824 131.146101 366.481079 133.807181 368.442831 135.768934 
C 370.404583 137.730686 373.065664 138.832941 375.84 138.832941 
z
" clip-path="url(#pbfae55c0f3)" style="fill: #1f6feb; stroke: #1f6feb; stroke-linejoin: miter"/>
   </g>
   <g id="text_4">
    <!-- − -->
    <g style="fill: #ffffff" transform="translate(371.12 134.451765) scale(0.16 -0.16)">
     <defs>
      <path id="NotoSansCJKjp-Bold-33f" d="M 250 2061 
L 3526 2061 
L 3526 2733 
L 250 2733 
L 250 2061 
z
" transform="scale(0.015625)"/>
     </defs>
     <use xlink:href="#NotoSansCJKjp-Bold-33f"/>
    </g>
   </g>
  </g>
  <g id="axes_3">
   <g id="line2d_25">
    <path d="M 592.7139 125.122703 
L 593.557614 124.903338 
L 594.401716 124.685473 
L 595.246244 124.469265 
L 596.091237 124.25488 
L 596.936733 124.042491 
L 597.782774 123.832281 
L 598.629401 123.624441 
L 599.476653 123.419168 
L 600.324573 123.216671 
L 601.173202 123.017163 
L 602.022579 122.820868 
L 602.872745 122.628015 
L 603.723737 122.438843 
L 604.575592 122.253596 
L 605.428345 122.072524 
L 606.282026 121.895884 
L 607.136666 121.723939 
L 607.992288 121.556953 
L 608.848914 121.395197 
L 609.706561 121.238942 
L 610.56524 121.088462 
L 611.424957 120.94403 
L 612.285712 120.805919 
L 613.147498 120.6744 
L 614.010304 120.549739 
L 614.874108 120.432196 
L 615.738883 120.322026 
L 616.604595 120.219474 
L 617.471201 120.124775 
L 618.338651 120.038153 
L 619.206889 119.959817 
L 620.075851 119.889961 
L 620.945465 119.828764 
L 621.815654 119.776384 
L 622.686337 119.732961 
L 623.557425 119.698615 
L 624.428826 119.673442 
L 625.300445 119.657517 
L 626.172185 119.65089 
L 627.043945 119.653589 
L 627.915627 119.665617 
L 628.787131 119.686951 
L 629.658358 119.717547 
L 630.529214 119.757336 
L 631.399607 119.806225 
L 632.269449 119.864102 
L 633.138656 119.930831 
L 634.007151 120.006257 
L 634.874864 120.090207 
L 635.741731 120.182491 
L 636.607693 120.282903 
L 637.472702 120.391224 
L 638.336715 120.507221 
L 639.199697 120.630653 
L 640.061622 120.761267 
L 640.922468 120.898806 
L 641.782224 121.043004 
L 642.640884 121.193594 
L 643.498448 121.350304 
L 644.354922 121.512861 
L 645.21032 121.680994 
L 646.064658 121.85443 
L 646.917959 122.032902 
L 647.770248 122.216141 
L 648.621556 122.403888 
L 649.471915 122.595885 
L 650.321361 122.79188 
L 651.169933 122.991629 
L 652.01767 123.194894 
L 652.864612 123.401442 
L 653.710803 123.61105 
L 654.556284 123.823501 
L 655.401098 124.038589 
L 656.245288 124.256111 
L 657.088898 124.475877 
L 657.931968 124.697702 
L 658.77454 124.921411 
L 659.616655 125.146836 
L 660.458352 125.373817 
L 661.299668 125.602203 
L 662.140642 125.831849 
L 662.981307 126.062619 
L 663.821699 126.294384 
L 664.66185 126.527022 
L 665.50179 126.760419 
L 666.34155 126.994466 
L 667.181156 127.229062 
L 667.181156 127.229062 
" clip-path="url(#pcea52af981)" style="fill: none; stroke: #8250df; stroke-width: 1.6; stroke-linecap: square"/>
   </g>
   <g id="line2d_26">
    <path d="M 589.464838 119.495162 
L 590.092193 118.889853 
L 590.722012 118.287108 
L 591.354512 117.687176 
L 591.989908 117.090314 
L 592.628424 116.496789 
L 593.270284 115.906883 
L 593.915715 115.320886 
L 594.564945 114.739101 
L 595.218205 114.161843 
L 595.875723 113.589443 
L 596.537731 113.022239 
L 597.204455 112.460587 
L 597.876121 111.904856 
L 598.552953 111.355426 
L 599.235167 110.812694 
L 599.922976 110.277071 
L 600.616586 109.748982 
L 601.316195 109.228865 
L 602.021991 108.717176 
L 602.734152 108.214384 
L 603.452844 107.720971 
L 604.178217 107.237435 
L 604.910409 106.764287 
L 605.649539 106.302052 
L 606.395707 105.851268 
L 607.148994 105.412482 
L 607.909457 104.986255 
L 608.67713 104.573156 
L 609.452022 104.17376 
L 610.234112 103.788652 
L 611.023353 103.418418 
L 611.819663 103.063646 
L 612.622933 102.724926 
L 613.433017 102.402841 
L 614.249734 102.097971 
L 615.072871 101.810883 
L 615.902176 101.542132 
L 616.737362 101.292257 
L 617.578107 101.061775 
L 618.424052 100.851178 
L 619.274804 100.66093 
L 620.129938 100.491462 
L 620.988998 100.343169 
L 621.851496 100.216404 
L 622.716924 100.111478 
L 623.584745 100.028654 
L 624.454407 99.968146 
L 625.325342 99.930116 
L 626.19697 99.914672 
L 627.068705 99.921867 
L 627.939959 99.9517 
L 628.810147 100.004111 
L 629.67869 100.07899 
L 630.545021 100.17617 
L 631.408589 100.295432 
L 632.268863 100.43651 
L 633.125334 100.599089 
L 633.977519 100.782811 
L 634.824966 100.987279 
L 635.667253 101.212059 
L 636.503992 101.456683 
L 637.33483 101.720658 
L 638.159448 102.003462 
L 638.977565 102.304558 
L 639.788936 102.623387 
L 640.59335 102.95938 
L 641.390634 103.311959 
L 642.180648 103.68054 
L 642.963286 104.064533 
L 643.738475 104.463351 
L 644.506172 104.876408 
L 645.266361 105.303122 
L 646.019058 105.742919 
L 646.7643 106.195233 
L 647.502151 106.659506 
L 648.232696 107.135192 
L 648.956041 107.621758 
L 649.672309 108.118682 
L 650.381642 108.625457 
L 651.084195 109.14159 
L 651.780138 109.666601 
L 652.469654 110.200025 
L 653.152935 110.741413 
L 653.830183 111.29033 
L 654.501607 111.846354 
L 655.167424 112.409081 
L 655.827855 112.978119 
L 656.483128 113.553089 
L 657.133472 114.13363 
L 657.779118 114.719389 
L 658.420301 115.310032 
L 659.057254 115.905233 
L 659.690212 116.504681 
L 660.319408 117.108077 
L 660.945072 117.715133 
L 661.567435 118.325574 
L 662.186723 118.939134 
L 662.803159 119.555559 
L 663.416963 120.174606 
L 664.02835 120.79604 
L 664.637529 121.419638 
L 665.244707 122.045184 
L 665.850083 122.672475 
L 666.453852 123.301313 
L 667.056202 123.93151 
L 667.657315 124.562887 
L 668.257366 125.195272 
L 668.257366 125.195272 
" clip-path="url(#pcea52af981)" style="fill: none; stroke: #8250df; stroke-width: 1.6; stroke-linecap: square"/>
   </g>
   <g id="line2d_27">
    <path d="M 583.837297 116.2461 
L 585.618213 110.409727 
L 587.339898 105.471019 
L 588.953221 101.422125 
L 590.760439 97.45613 
L 592.789138 93.598916 
L 594.588445 90.612409 
L 596.556691 87.734542 
L 598.703091 84.987112 
L 601.034331 82.394827 
L 603.55382 79.985277 
L 606.260794 77.788668 
L 608.410716 76.30028 
L 610.658154 74.963771 
L 612.996212 73.793095 
L 615.415697 72.801697 
L 617.905082 72.001984 
L 620.450607 71.404733 
L 623.036552 71.01851 
L 625.645675 70.849152 
L 628.259801 70.899391 
L 630.860514 71.168659 
L 633.429871 71.653127 
L 635.951069 72.345953 
L 638.408993 73.237711 
L 640.790608 74.316943 
L 643.085173 75.570747 
L 645.284297 76.985363 
L 647.381861 78.546691 
L 650.013963 80.832519 
L 652.454151 83.322375 
L 654.702889 85.986569 
L 656.764544 88.798169 
L 658.646513 91.733196 
L 660.358515 94.770603 
L 662.277118 98.683761 
L 663.973455 102.698443 
L 665.475185 106.790044 
L 667.06186 111.773769 
L 668.683283 117.656445 
L 670.139817 123.582314 
L 670.139817 123.582314 
" clip-path="url(#pcea52af981)" style="fill: none; stroke: #8250df; stroke-width: 1.6; stroke-linecap: square"/>
   </g>
   <g id="line2d_28">
    <path d="M 577.339173 116.2461 
L 575.730117 109.460409 
L 574.517434 103.48007 
L 573.532714 97.458119 
L 572.898911 92.26641 
L 572.481759 87.052885 
L 572.300757 81.825897 
L 572.373947 76.596356 
L 572.641293 72.246082 
L 573.106046 67.912487 
L 573.776893 63.606017 
L 574.662018 59.338474 
L 575.769063 55.123092 
L 577.105033 50.974626 
L 578.676172 46.909451 
L 580.487783 42.945651 
L 582.113029 39.860901 
L 583.896289 36.864753 
L 585.838285 33.969002 
L 587.938881 31.186197 
L 590.196928 28.529601 
L 592.610099 26.013124 
L 595.174703 23.651219 
L 597.885513 21.458722 
L 600.735587 19.450651 
L 603.716117 17.641935 
L 606.81632 16.0471 
L 610.023382 14.679888 
L 613.322486 13.55285 
L 616.696927 12.676916 
L 620.128341 12.060983 
L 623.597024 11.711544 
L 627.082359 11.632406 
L 630.563298 11.824506 
L 634.018878 12.285872 
L 637.428742 13.011705 
L 640.773601 13.994599 
L 644.03563 15.224854 
L 647.198761 16.690863 
L 650.248875 18.379542 
L 653.173884 20.276752 
L 655.963734 22.367705 
L 658.610322 24.637326 
L 661.107371 27.070557 
L 663.450267 29.652601 
L 665.635875 32.369118 
L 667.66236 35.206358 
L 669.529004 38.151255 
L 671.236046 41.191482 
L 673.147059 45.108288 
L 674.813849 49.135156 
L 676.241201 53.253042 
L 677.434936 57.44467 
L 678.401697 61.694437 
L 679.14879 65.988311 
L 679.684078 70.313736 
L 680.015903 74.659544 
L 680.153062 79.015876 
L 680.073743 84.245345 
L 679.744346 89.465097 
L 679.182939 94.665079 
L 678.409019 99.837768 
L 677.26605 105.831713 
L 675.90074 111.779077 
L 674.124211 118.522876 
L 672.438293 124.387657 
L 672.438293 124.387657 
" clip-path="url(#pcea52af981)" style="fill: none; stroke: #8250df; stroke-width: 1.6; stroke-linecap: square"/>
   </g>
   <g id="line2d_29">
    <path d="M 571.711633 119.495162 
L 565.075652 112.57304 
L 559.216651 106.118252 
L 554.114073 100.158609 
L 549.191972 94.04911 
L 544.979967 88.490865 
L 540.930367 82.813221 
L 537.050472 77.018295 
L 533.346771 71.109213 
L 529.825146 65.089852 
L 526.491032 58.964645 
L 523.34952 52.738466 
L 520.405444 46.41654 
L 517.663443 40.004388 
L 515.128008 33.507791 
L 512.803518 26.932773 
L 510.694267 20.285585 
L 508.804489 13.572708 
L 507.138372 6.800859 
L 505.700067 -0.023001 
L 505.513974 -1 
L 505.513974 -1 
" clip-path="url(#pcea52af981)" style="fill: none; stroke: #8250df; stroke-width: 1.6; stroke-linecap: square"/>
   </g>
   <g id="line2d_30">
    <path d="M 568.462571 125.122703 
L 553.34595 120.913769 
L 539.966602 116.971365 
L 526.651048 112.818642 
L 513.404441 108.450987 
L 500.230077 103.870022 
L 487.130233 99.0801 
L 474.106574 94.086729 
L 461.160378 88.895812 
L 447.491056 83.170638 
L 433.91133 77.236057 
L 423.587816 72.560669 
L 423.587816 72.560669 
" clip-path="url(#pcea52af981)" style="fill: none; stroke: #8250df; stroke-width: 1.6; stroke-linecap: square"/>
   </g>
   <g id="line2d_31">
    <path d="M 568.462571 131.620827 
L 553.34595 135.82976 
L 539.966602 139.772164 
L 526.651048 143.924887 
L 513.404441 148.292542 
L 500.230077 152.873508 
L 487.130233 157.66343 
L 474.106574 162.6568 
L 461.160378 167.847718 
L 447.491056 173.572891 
L 433.91133 179.507473 
L 423.587816 184.18286 
L 423.587816 184.18286 
" clip-path="url(#pcea52af981)" style="fill: none; stroke: #8250df; stroke-width: 1.6; stroke-linecap: square"/>
   </g>
   <g id="line2d_32">
    <path d="M 571.711633 137.248367 
L 565.075652 144.17049 
L 559.216651 150.625278 
L 554.114073 156.58492 
L 549.191972 162.694419 
L 544.979967 168.252664 
L 540.930367 173.930308 
L 537.050472 179.725235 
L 533.346771 185.634316 
L 529.825146 191.653678 
L 526.491032 197.778884 
L 523.34952 204.005063 
L 520.405444 210.326989 
L 517.663443 216.739142 
L 515.128008 223.235738 
L 512.803518 229.810757 
L 510.694267 236.457945 
L 509.339486 241.183529 
L 509.339486 241.183529 
" clip-path="url(#pcea52af981)" style="fill: none; stroke: #8250df; stroke-width: 1.6; stroke-linecap: square"/>
   </g>
   <g id="line2d_33">
    <path d="M 577.339173 140.497429 
L 575.730117 147.28312 
L 574.517434 153.263459 
L 573.532714 159.28541 
L 572.898911 164.477119 
L 572.481759 169.690645 
L 572.300757 174.917633 
L 572.373947 180.147174 
L 572.641293 184.497447 
L 573.106046 188.831043 
L 573.776893 193.137513 
L 574.662018 197.405056 
L 575.769063 201.620438 
L 577.105033 205.768903 
L 578.676172 209.834079 
L 580.487783 213.797878 
L 582.113029 216.882628 
L 583.896289 219.878777 
L 585.838285 222.774528 
L 587.938881 225.557333 
L 590.196928 228.213929 
L 592.610099 230.730405 
L 595.174703 233.09231 
L 597.885513 235.284807 
L 600.735587 237.292879 
L 603.716117 239.101594 
L 606.81632 240.696429 
L 607.890962 241.183529 
M 644.813652 241.183529 
L 647.198761 240.052666 
L 650.248875 238.363988 
L 653.173884 236.466778 
L 655.963734 234.375824 
L 658.610322 232.106203 
L 661.107371 229.672973 
L 663.450267 227.090928 
L 665.635875 224.374411 
L 667.66236 221.537171 
L 669.529004 218.592274 
L 671.236046 215.552047 
L 673.147059 211.635242 
L 674.813849 207.608374 
L 676.241201 203.490487 
L 677.434936 199.298859 
L 678.401697 195.049093 
L 679.14879 190.755219 
L 679.684078 186.429793 
L 680.015903 182.083986 
L 680.153062 177.727653 
L 680.073743 172.498185 
L 679.744346 167.278433 
L 679.182939 162.07845 
L 678.409019 156.905761 
L 677.26605 150.911817 
L 675.90074 144.964452 
L 674.124211 138.220653 
L 672.438293 132.355873 
L 672.438293 132.355873 
" clip-path="url(#pcea52af981)" style="fill: none; stroke: #8250df; stroke-width: 1.6; stroke-linecap: square"/>
   </g>
   <g id="line2d_34">
    <path d="M 583.837297 140.497429 
L 585.618213 146.333803 
L 587.339898 151.27251 
L 588.953221 155.321404 
L 590.760439 159.2874 
L 592.789138 163.144614 
L 594.588445 166.13112 
L 596.556691 169.008987 
L 598.703091 171.756417 
L 601.034331 174.348703 
L 603.55382 176.758252 
L 606.260794 178.954862 
L 608.410716 180.443249 
L 610.658154 181.779758 
L 612.996212 182.950435 
L 615.415697 183.941833 
L 617.905082 184.741546 
L 620.450607 185.338797 
L 623.036552 185.72502 
L 625.645675 185.894377 
L 628.259801 185.844138 
L 630.860514 185.57487 
L 633.429871 185.090402 
L 635.951069 184.397577 
L 638.408993 183.505818 
L 640.790608 182.426587 
L 643.085173 181.172783 
L 645.284297 179.758166 
L 647.381861 178.196838 
L 650.013963 175.911011 
L 652.454151 173.421155 
L 654.702889 170.756961 
L 656.764544 167.94536 
L 658.646513 165.010333 
L 660.358515 161.972926 
L 662.277118 158.059768 
L 663.973455 154.045086 
L 665.475185 149.953485 
L 667.06186 144.96976 
L 668.683283 139.087085 
L 670.139817 133.161215 
L 670.139817 133.161215 
" clip-path="url(#pcea52af981)" style="fill: none; stroke: #8250df; stroke-width: 1.6; stroke-linecap: square"/>
   </g>
   <g id="line2d_35">
    <path d="M 589.464838 137.248367 
L 590.092193 137.853677 
L 590.722012 138.456421 
L 591.354512 139.056353 
L 591.989908 139.653216 
L 592.628424 140.24674 
L 593.270284 140.836647 
L 593.915715 141.422644 
L 594.564945 142.004429 
L 595.218205 142.581686 
L 595.875723 143.154087 
L 596.537731 143.72129 
L 597.204455 144.282942 
L 597.876121 144.838674 
L 598.552953 145.388103 
L 599.235167 145.930835 
L 599.922976 146.466458 
L 600.616586 146.994548 
L 601.316195 147.514664 
L 602.021991 148.026353 
L 602.734152 148.529146 
L 603.452844 149.022559 
L 604.178217 149.506095 
L 604.910409 149.979243 
L 605.649539 150.441477 
L 606.395707 150.892262 
L 607.148994 151.331047 
L 607.909457 151.757274 
L 608.67713 152.170374 
L 609.452022 152.569769 
L 610.234112 152.954878 
L 611.023353 153.325112 
L 611.819663 153.679883 
L 612.622933 154.018604 
L 613.433017 154.340688 
L 614.249734 154.645559 
L 615.072871 154.932647 
L 615.902176 155.201397 
L 616.737362 155.451273 
L 617.578107 155.681755 
L 618.424052 155.892352 
L 619.274804 156.082599 
L 620.129938 156.252067 
L 620.988998 156.400361 
L 621.851496 156.527126 
L 622.716924 156.632052 
L 623.584745 156.714875 
L 624.454407 156.775383 
L 625.325342 156.813413 
L 626.19697 156.828857 
L 627.068705 156.821662 
L 627.939959 156.79183 
L 628.810147 156.739418 
L 629.67869 156.664539 
L 630.545021 156.56736 
L 631.408589 156.448097 
L 632.268863 156.30702 
L 633.125334 156.144441 
L 633.977519 155.960718 
L 634.824966 155.75625 
L 635.667253 155.53147 
L 636.503992 155.286846 
L 637.33483 155.022872 
L 638.159448 154.740067 
L 638.977565 154.438972 
L 639.788936 154.120143 
L 640.59335 153.784149 
L 641.390634 153.43157 
L 642.180648 153.06299 
L 642.963286 152.678997 
L 643.738475 152.280179 
L 644.506172 151.867122 
L 645.266361 151.440407 
L 646.019058 151.00061 
L 646.7643 150.548296 
L 647.502151 150.084023 
L 648.232696 149.608337 
L 648.956041 149.121771 
L 649.672309 148.624847 
L 650.381642 148.118072 
L 651.084195 147.601939 
L 651.780138 147.076929 
L 652.469654 146.543504 
L 653.152935 146.002116 
L 653.830183 145.4532 
L 654.501607 144.897175 
L 655.167424 144.334448 
L 655.827855 143.765411 
L 656.483128 143.19044 
L 657.133472 142.6099 
L 657.779118 142.02414 
L 658.420301 141.433498 
L 659.057254 140.838297 
L 659.690212 140.238849 
L 660.319408 139.635453 
L 660.945072 139.028396 
L 661.567435 138.417956 
L 662.186723 137.804395 
L 662.803159 137.18797 
L 663.416963 136.568924 
L 664.02835 135.947489 
L 664.637529 135.323892 
L 665.244707 134.698345 
L 665.850083 134.071054 
L 666.453852 133.442217 
L 667.056202 132.81202 
L 667.657315 132.180643 
L 668.257366 131.548257 
L 668.257366 131.548257 
" clip-path="url(#pcea52af981)" style="fill: none; stroke: #8250df; stroke-width: 1.6; stroke-linecap: square"/>
   </g>
   <g id="line2d_36">
    <path d="M 592.7139 131.620827 
L 593.557614 131.840191 
L 594.401716 132.058056 
L 595.246244 132.274264 
L 596.091237 132.48865 
L 596.936733 132.701039 
L 597.782774 132.911248 
L 598.629401 133.119089 
L 599.476653 133.324361 
L 600.324573 133.526859 
L 601.173202 133.726366 
L 602.022579 133.922662 
L 602.872745 134.115514 
L 603.723737 134.304686 
L 604.575592 134.489934 
L 605.428345 134.671005 
L 606.282026 134.847645 
L 607.136666 135.019591 
L 607.992288 135.186576 
L 608.848914 135.348333 
L 609.706561 135.504588 
L 610.56524 135.655068 
L 611.424957 135.799499 
L 612.285712 135.93761 
L 613.147498 136.069129 
L 614.010304 136.193791 
L 614.874108 136.311333 
L 615.738883 136.421503 
L 616.604595 136.524055 
L 617.471201 136.618754 
L 618.338651 136.705377 
L 619.206889 136.783713 
L 620.075851 136.853568 
L 620.945465 136.914766 
L 621.815654 136.967146 
L 622.686337 137.010568 
L 623.557425 137.044915 
L 624.428826 137.070087 
L 625.300445 137.086013 
L 626.172185 137.092639 
L 627.043945 137.08994 
L 627.915627 137.077913 
L 628.787131 137.056578 
L 629.658358 137.025982 
L 630.529214 136.986194 
L 631.399607 136.937304 
L 632.269449 136.879427 
L 633.138656 136.812699 
L 634.007151 136.737273 
L 634.874864 136.653323 
L 635.741731 136.561039 
L 636.607693 136.460626 
L 637.472702 136.352306 
L 638.336715 136.236308 
L 639.199697 136.112877 
L 640.061622 135.982262 
L 640.922468 135.844724 
L 641.782224 135.700525 
L 642.640884 135.549936 
L 643.498448 135.393226 
L 644.354922 135.230668 
L 645.21032 135.062535 
L 646.064658 134.889099 
L 646.917959 134.710628 
L 647.770248 134.527388 
L 648.621556 134.339641 
L 649.471915 134.147645 
L 650.321361 133.951649 
L 651.169933 133.7519 
L 652.01767 133.548636 
L 652.864612 133.342088 
L 653.710803 133.13248 
L 654.556284 132.920028 
L 655.401098 132.704941 
L 656.245288 132.487418 
L 657.088898 132.267652 
L 657.931968 132.045827 
L 658.77454 131.822118 
L 659.616655 131.596693 
L 660.458352 131.369712 
L 661.299668 131.141327 
L 662.140642 130.911681 
L 662.981307 130.680911 
L 663.821699 130.449145 
L 664.66185 130.216507 
L 665.50179 129.98311 
L 666.34155 129.749063 
L 667.181156 129.514468 
L 667.181156 129.514468 
" clip-path="url(#pcea52af981)" style="fill: none; stroke: #8250df; stroke-width: 1.6; stroke-linecap: square"/>
   </g>
   <g id="patch_28">
    <path d="M 629.658358 119.717547 
Q 630.528983 119.761886 629.836386 119.726614 
" clip-path="url(#pcea52af981)" style="fill: none; stroke: #8250df; stroke-width: 1.4; stroke-linecap: round"/>
    <path d="M 625.164667 117.085582 
L 629.836386 119.726614 
L 624.920529 121.87937 
z
" clip-path="url(#pcea52af981)" style="fill: #8250df; stroke: #8250df; stroke-width: 1.4; stroke-linecap: round"/>
   </g>
   <g id="patch_29">
    <path d="M 629.67869 100.07899 
Q 630.54364 100.187211 629.855451 100.101106 
" clip-path="url(#pcea52af981)" style="fill: none; stroke: #8250df; stroke-width: 1.4; stroke-linecap: round"/>
    <path d="M 625.390547 97.123753 
L 629.855451 100.101106 
L 624.794626 101.886618 
z
" clip-path="url(#pcea52af981)" style="fill: #8250df; stroke: #8250df; stroke-width: 1.4; stroke-linecap: round"/>
   </g>
   <g id="patch_30">
    <path d="M 629.996225 71.054738 
Q 630.858767 71.180627 630.172472 71.080461 
" clip-path="url(#pcea52af981)" style="fill: none; stroke: #8250df; stroke-width: 1.4; stroke-linecap: round"/>
    <path d="M 625.769405 68.012399 
L 630.172472 71.080461 
L 625.076182 72.762077 
z
" clip-path="url(#pcea52af981)" style="fill: #8250df; stroke: #8250df; stroke-width: 1.4; stroke-linecap: round"/>
   </g>
   <g id="patch_31">
    <path d="M 630.563298 11.824506 
Q 631.429424 11.923136 630.740353 11.844668 
" clip-path="url(#pcea52af981)" style="fill: none; stroke: #8250df; stroke-width: 1.4; stroke-linecap: round"/>
    <path d="M 626.242721 8.91699 
L 630.740353 11.844668 
L 625.699631 13.686167 
z
" clip-path="url(#pcea52af981)" style="fill: #8250df; stroke: #8250df; stroke-width: 1.4; stroke-linecap: round"/>
   </g>
   <g id="patch_32">
    <path d="M 520.762496 47.211831 
Q 520.407023 46.415835 520.689801 47.049047 
" clip-path="url(#pcea52af981)" style="fill: none; stroke: #8250df; stroke-width: 1.4; stroke-linecap: round"/>
    <path d="M 520.455656 52.4105 
L 520.689801 47.049047 
L 524.838476 50.453235 
z
" clip-path="url(#pcea52af981)" style="fill: #8250df; stroke: #8250df; stroke-width: 1.4; stroke-linecap: round"/>
   </g>
   <g id="patch_33">
    <path d="M 495.308803 102.098007 
Q 494.489764 101.799429 495.141304 102.036946 
" clip-path="url(#pcea52af981)" style="fill: none; stroke: #8250df; stroke-width: 1.4; stroke-linecap: round"/>
    <path d="M 498.828997 105.935781 
L 495.141304 102.036946 
L 500.472988 101.426093 
z
" clip-path="url(#pcea52af981)" style="fill: #8250df; stroke: #8250df; stroke-width: 1.4; stroke-linecap: round"/>
   </g>
   <g id="patch_34">
    <path d="M 495.308803 154.645522 
Q 494.489764 154.9441 495.141304 154.706583 
" clip-path="url(#pcea52af981)" style="fill: none; stroke: #8250df; stroke-width: 1.4; stroke-linecap: round"/>
    <path d="M 500.472988 155.317437 
L 495.141304 154.706583 
L 498.828997 150.807748 
z
" clip-path="url(#pcea52af981)" style="fill: #8250df; stroke: #8250df; stroke-width: 1.4; stroke-linecap: round"/>
   </g>
   <g id="patch_35">
    <path d="M 520.762496 209.531698 
Q 520.407023 210.327694 520.689801 209.694482 
" clip-path="url(#pcea52af981)" style="fill: none; stroke: #8250df; stroke-width: 1.4; stroke-linecap: round"/>
    <path d="M 524.838476 206.290295 
L 520.689801 209.694482 
L 520.455656 204.333029 
z
" clip-path="url(#pcea52af981)" style="fill: #8250df; stroke: #8250df; stroke-width: 1.4; stroke-linecap: round"/>
   </g>
   <g id="patch_36">
    <path d="M 630.563298 244.919023 
Q 631.429424 244.820393 630.740353 244.898861 
" clip-path="url(#pcea52af981)" style="fill: none; stroke: #8250df; stroke-width: 1.4; stroke-linecap: round"/>
    <path d="M 625.699631 243.057362 
L 630.740353 244.898861 
L 626.242721 247.82654 
z
" clip-path="url(#pcea52af981)" style="fill: #8250df; stroke: #8250df; stroke-width: 1.4; stroke-linecap: round"/>
   </g>
   <g id="patch_37">
    <path d="M 629.996225 185.688792 
Q 630.858767 185.562902 630.172472 185.663068 
" clip-path="url(#pcea52af981)" style="fill: none; stroke: #8250df; stroke-width: 1.4; stroke-linecap: round"/>
    <path d="M 625.076182 183.981453 
L 630.172472 185.663068 
L 625.769405 188.731131 
z
" clip-path="url(#pcea52af981)" style="fill: #8250df; stroke: #8250df; stroke-width: 1.4; stroke-linecap: round"/>
   </g>
   <g id="patch_38">
    <path d="M 629.67869 156.664539 
Q 630.54364 156.556318 629.855451 156.642423 
" clip-path="url(#pcea52af981)" style="fill: none; stroke: #8250df; stroke-width: 1.4; stroke-linecap: round"/>
    <path d="M 624.794626 154.856912 
L 629.855451 156.642423 
L 625.390547 159.619776 
z
" clip-path="url(#pcea52af981)" style="fill: #8250df; stroke: #8250df; stroke-width: 1.4; stroke-linecap: round"/>
   </g>
   <g id="patch_39">
    <path d="M 629.658358 137.025982 
Q 630.528983 136.981643 629.836386 137.016916 
" clip-path="url(#pcea52af981)" style="fill: none; stroke: #8250df; stroke-width: 1.4; stroke-linecap: round"/>
    <path d="M 624.920529 134.86416 
L 629.836386 137.016916 
L 625.164667 139.657947 
z
" clip-path="url(#pcea52af981)" style="fill: #8250df; stroke: #8250df; stroke-width: 1.4; stroke-linecap: round"/>
   </g>
   <g id="text_5">
    <!-- 一對正負電荷（電力線正→負） -->
    <g style="fill: #222831" transform="translate(541.92 17.76) scale(0.12 -0.12)">
     <defs>
      <path id="NotoSansCJKjp-Regular-2509" d="M 282 2758 
L 282 2234 
L 6144 2234 
L 6144 2758 
L 282 2758 
z
" transform="scale(0.015625)"/>
      <path id="NotoSansCJKjp-Regular-3d73" d="M 3693 2554 
C 3955 2086 4192 1472 4256 1082 
L 4691 1242 
C 4627 1632 4371 2234 4102 2694 
L 3693 2554 
z
M 339 5037 
C 531 4730 717 4320 781 4058 
L 1152 4230 
C 1088 4493 890 4890 685 5190 
L 339 5037 
z
M 3168 5222 
C 3053 4922 2829 4467 2662 4192 
L 2989 4045 
C 3174 4307 3398 4710 3590 5056 
L 3168 5222 
z
M 294 224 
L 358 -230 
C 1184 -122 2387 45 3514 205 
L 3501 627 
L 2138 448 
L 2138 1152 
L 3194 1152 
L 3194 1555 
L 2138 1555 
L 2138 2208 
L 3328 2208 
L 3328 2618 
L 2643 2618 
C 2778 2842 2925 3181 3066 3482 
L 2637 3603 
L 3494 3603 
L 3494 3206 
L 5005 3206 
L 5005 83 
C 5005 -32 4960 -64 4845 -70 
C 4749 -70 4397 -77 4006 -64 
C 4077 -192 4154 -397 4179 -518 
C 4704 -518 5011 -506 5203 -429 
C 5389 -352 5466 -218 5466 83 
L 5466 3206 
L 6150 3206 
L 6150 3654 
L 5466 3654 
L 5466 5338 
L 5005 5338 
L 5005 3654 
L 3558 3654 
L 3558 4013 
L 2554 4013 
L 2554 5344 
L 2157 5344 
L 2157 4013 
L 1670 4013 
L 1670 5344 
L 1274 5344 
L 1274 4013 
L 269 4013 
L 269 3603 
L 2618 3603 
C 2547 3334 2381 2957 2259 2714 
L 2592 2618 
L 1184 2618 
L 1542 2746 
C 1498 2976 1350 3328 1184 3597 
L 800 3469 
C 954 3200 1088 2848 1126 2618 
L 506 2618 
L 506 2208 
L 1690 2208 
L 1690 1555 
L 672 1555 
L 672 1152 
L 1690 1152 
L 1690 390 
L 294 224 
z
" transform="scale(0.015625)"/>
      <path id="NotoSansCJKjp-Regular-e6ae" d="M 4448 2432 
C 4448 1184 4954 166 5722 -614 
L 6106 -416 
C 5370 346 4915 1293 4915 2432 
C 4915 3571 5370 4518 6106 5280 
L 5722 5478 
C 4954 4698 4448 3680 4448 2432 
z
" transform="scale(0.015625)"/>
      <path id="NotoSansCJKjp-Regular-31c" d="M 5190 2650 
L 256 2650 
L 256 2214 
L 5190 2214 
C 4864 1965 4442 1562 4154 1165 
L 4538 941 
C 4966 1504 5606 2067 6176 2432 
C 5606 2797 4966 3360 4538 3923 
L 4154 3699 
C 4442 3302 4864 2899 5190 2650 
z
" transform="scale(0.015625)"/>
      <path id="NotoSansCJKjp-Regular-e6af" d="M 1952 2432 
C 1952 3680 1446 4698 678 5478 
L 294 5280 
C 1030 4518 1485 3571 1485 2432 
C 1485 1293 1030 346 294 -416 
L 678 -614 
C 1446 166 1952 1184 1952 2432 
z
" transform="scale(0.015625)"/>
     </defs>
     <use xlink:href="#NotoSansCJKjp-Regular-2509"/>
     <use xlink:href="#NotoSansCJKjp-Regular-3d73" transform="translate(100 0)"/>
     <use xlink:href="#NotoSansCJKjp-Regular-585c" transform="translate(200 0)"/>
     <use xlink:href="#NotoSansCJKjp-Regular-9777" transform="translate(300 0)"/>
     <use xlink:href="#NotoSansCJKjp-Regular-a9c5" transform="translate(400 0)"/>
     <use xlink:href="#NotoSansCJKjp-Regular-8554" transform="translate(500 0)"/>
     <use xlink:href="#NotoSansCJKjp-Regular-e6ae" transform="translate(600 0)"/>
     <use xlink:href="#NotoSansCJKjp-Regular-a9c5" transform="translate(700 0)"/>
     <use xlink:href="#NotoSansCJKjp-Regular-2c71" transform="translate(800 0)"/>
     <use xlink:href="#NotoSansCJKjp-Regular-7a17" transform="translate(900 0)"/>
     <use xlink:href="#NotoSansCJKjp-Regular-585c" transform="translate(1000 0)"/>
     <use xlink:href="#NotoSansCJKjp-Regular-31c" transform="translate(1100 0)"/>
     <use xlink:href="#NotoSansCJKjp-Regular-9777" transform="translate(1200 0)"/>
     <use xlink:href="#NotoSansCJKjp-Regular-e6af" transform="translate(1300 0)"/>
    </g>
   </g>
   <g id="patch_40">
    <path d="M 580.588235 138.832941 
C 583.362572 138.832941 586.023652 137.730686 587.985404 135.768934 
C 589.947156 133.807181 591.049412 131.146101 591.049412 128.371765 
C 591.049412 125.597428 589.947156 122.936348 587.985404 120.974596 
C 586.023652 119.012844 583.362572 117.910588 580.588235 117.910588 
C 577.813899 117.910588 575.152819 119.012844 573.191066 120.974596 
C 571.229314 122.936348 570.127059 125.597428 570.127059 128.371765 
C 570.127059 131.146101 571.229314 133.807181 573.191066 135.768934 
C 575.152819 137.730686 577.813899 138.832941 580.588235 138.832941 
z
" clip-path="url(#pcea52af981)" style="fill: #d1242f; stroke: #d1242f; stroke-linejoin: miter"/>
   </g>
   <g id="patch_41">
    <path d="M 671.251765 138.832941 
C 674.026101 138.832941 676.687181 137.730686 678.648934 135.768934 
C 680.610686 133.807181 681.712941 131.146101 681.712941 128.371765 
C 681.712941 125.597428 680.610686 122.936348 678.648934 120.974596 
C 676.687181 119.012844 674.026101 117.910588 671.251765 117.910588 
C 668.477428 117.910588 665.816348 119.012844 663.854596 120.974596 
C 661.892844 122.936348 660.790588 125.597428 660.790588 128.371765 
C 660.790588 131.146101 661.892844 133.807181 663.854596 135.768934 
C 665.816348 137.730686 668.477428 138.832941 671.251765 138.832941 
z
" clip-path="url(#pcea52af981)" style="fill: #1f6feb; stroke: #1f6feb; stroke-linejoin: miter"/>
   </g>
   <g id="text_6">
    <!-- + -->
    <g style="fill: #ffffff" transform="translate(576.163235 134.071765) scale(0.15 -0.15)">
     <use xlink:href="#NotoSansCJKjp-Bold-c"/>
    </g>
   </g>
   <g id="text_7">
    <!-- − -->
    <g style="fill: #ffffff" transform="translate(666.826765 134.071765) scale(0.15 -0.15)">
     <use xlink:href="#NotoSansCJKjp-Bold-33f"/>
    </g>
   </g>
  </g>
 </g>
 <defs>
  <clipPath id="p481392248c">
   <rect x="7.2" y="23.76" width="237.12" height="209.223529"/>
  </clipPath>
  <clipPath id="pbfae55c0f3">
   <rect x="257.28" y="23.76" width="237.12" height="209.223529"/>
  </clipPath>
  <clipPath id="pcea52af981">
   <rect x="507.36" y="23.76" width="237.12" height="209.223529"/>
  </clipPath>
 </defs>
</svg>
