<?xml version="1.0" encoding="utf-8" standalone="no"?>
<!DOCTYPE svg PUBLIC "-//W3C//DTD SVG 1.1//EN"
  "http://www.w3.org/Graphics/SVG/1.1/DTD/svg11.dtd">
<svg xmlns:xlink="http://www.w3.org/1999/xlink" width="410.628pt" height="297.952pt" viewBox="0 0 410.628 297.952" xmlns="http://www.w3.org/2000/svg" version="1.1">
 <metadata>
  <rdf:RDF xmlns:dc="http://purl.org/dc/elements/1.1/" xmlns:cc="http://creativecommons.org/ns#" xmlns:rdf="http://www.w3.org/1999/02/22-rdf-syntax-ns#">
   <cc:Work>
    <dc:type rdf:resource="http://purl.org/dc/dcmitype/StillImage"/>
    <dc:date>2026-06-19T00:09:26.890928</dc:date>
    <dc:format>image/svg+xml</dc:format>
    <dc:creator>
     <cc:Agent>
      <dc:title>Matplotlib v3.11.0, https://matplotlib.org/</dc:title>
     </cc:Agent>
    </dc:creator>
   </cc:Work>
  </rdf:RDF>
 </metadata>
 <defs>
  <style type="text/css">*{stroke-linejoin: round; stroke-linecap: butt}</style>
 </defs>
 <g id="figure_1">
  <g id="patch_1">
   <path d="M 0 297.952 
L 410.628 297.952 
L 410.628 0 
L 0 0 
z
" style="fill: #ffffff"/>
  </g>
  <g id="axes_1">
   <g id="line2d_1">
    <path d="M 229.506 181.888 
L 229.397554 179.599925 
L 229.073189 177.332364 
L 228.535812 175.105646 
L 227.790241 172.939735 
L 226.843161 170.854049 
L 225.703063 168.867287 
L 224.380168 166.997262 
L 222.886337 165.260738 
L 221.234962 163.673285 
L 219.440849 162.249135 
L 217.520082 161.001056 
L 215.489882 159.940237 
L 213.368452 159.07619 
L 211.174809 158.41666 
L 208.928622 157.967562 
L 206.650028 157.73292 
L 204.359456 157.714839 
L 202.077442 157.913481 
L 199.824445 158.327065 
L 197.620665 158.951883 
L 195.485858 159.782333 
L 193.439166 160.810971 
L 191.498936 162.028572 
L 189.682564 163.424223 
L 188.006335 164.985409 
L 186.485276 166.698134 
L 185.133025 168.547043 
L 183.961706 170.51556 
L 182.981819 172.586035 
L 182.20215 174.739906 
L 181.629688 176.957864 
L 181.269567 179.220022 
L 181.125015 181.506099 
L 181.197327 183.795601 
L 181.485856 186.068 
L 181.988014 188.302923 
L 182.6993 190.480334 
L 183.613337 192.580711 
L 184.721929 194.585224 
L 186.015139 196.4759 
L 187.481371 198.235789 
L 189.10748 199.849113 
L 190.878888 201.301408 
L 192.779713 202.579653 
L 194.792913 203.672389 
L 196.900439 204.569818 
L 199.083397 205.263895 
L 201.322215 205.748396 
L 203.59682 206.018979 
L 205.886821 206.073217 
L 208.171687 205.910625 
L 210.430932 205.532658 
L 212.644301 204.942708 
L 214.791951 204.146061 
L 216.854628 203.149862 
L 218.813837 201.963041 
L 220.652015 200.596238 
L 222.35268 199.061708 
L 223.900587 197.373208 
L 225.281856 195.545876 
L 226.484105 193.596096 
L 227.496555 191.541347 
L 228.310129 189.400052 
L 228.917532 187.191408 
L 229.313319 184.935217 
L 229.493942 182.651706 
L 229.506 181.888 
L 229.506 181.888 
" clip-path="url(#p81d70e94bf)" style="fill: none; stroke: #1f6feb; stroke-width: 1.5; stroke-linecap: square"/>
   </g>
   <g id="line2d_2">
    <path d="M 253.698 181.888 
L 253.601564 178.834697 
L 253.312639 175.793566 
L 252.832377 172.776728 
L 252.162694 169.796211 
L 251.306257 166.863896 
L 250.266482 163.99147 
L 249.047514 161.190386 
L 247.65421 158.471808 
L 246.092127 155.846575 
L 244.367489 153.325149 
L 242.487173 150.917584 
L 240.458674 148.633476 
L 238.290078 146.481931 
L 235.990029 144.471524 
L 233.567697 142.61027 
L 231.032737 140.905589 
L 228.395255 139.364276 
L 225.665765 137.992475 
L 222.855146 136.795654 
L 219.974603 135.778585 
L 217.035618 134.945321 
L 214.049908 134.299184 
L 211.029374 133.842751 
L 207.986056 133.57784 
L 204.932087 133.505507 
L 201.879641 133.626042 
L 198.840885 133.938962 
L 195.827932 134.443022 
L 192.852794 135.136211 
L 189.92733 136.015766 
L 187.063201 137.078182 
L 184.271826 138.319222 
L 181.564331 139.733941 
L 178.951509 141.316698 
L 176.443776 143.061184 
L 174.051128 144.960446 
L 171.783103 147.006911 
L 169.648741 149.192423 
L 167.656552 151.508268 
L 165.814477 153.945217 
L 164.129858 156.493553 
L 162.609412 159.143119 
L 161.259198 161.883353 
L 160.0846 164.703331 
L 159.0903 167.591813 
L 158.28026 170.537283 
L 157.657711 173.528 
L 157.225134 176.552043 
L 156.984253 179.597357 
L 156.936029 182.651802 
L 157.080654 185.703202 
L 157.417551 188.739393 
L 157.945377 191.748273 
L 158.662028 194.717847 
L 159.564648 197.636277 
L 160.649638 200.49193 
L 161.912673 203.273423 
L 163.348719 205.969667 
L 164.952051 208.569914 
L 166.716277 211.063799 
L 168.634365 213.441381 
L 170.698669 215.693182 
L 172.90096 217.810226 
L 175.232459 219.784073 
L 177.683871 221.606855 
L 180.245426 223.271306 
L 182.906911 224.770791 
L 185.657717 226.099333 
L 188.486879 227.251636 
L 191.383119 228.223105 
L 194.334891 229.00987 
L 197.330429 229.608793 
L 200.357792 230.017486 
L 203.404913 230.234322 
L 206.459643 230.258435 
L 209.509806 230.089729 
L 212.543244 229.728877 
L 215.547864 229.177317 
L 218.511688 228.437248 
L 221.422903 227.51162 
L 224.269903 226.404123 
L 227.041339 225.119172 
L 229.726164 223.661888 
L 232.313674 222.038082 
L 234.793556 220.254225 
L 237.155924 218.31743 
L 239.39136 216.235416 
L 241.490955 214.016483 
L 243.446337 211.669476 
L 245.249712 209.203752 
L 246.893892 206.62914 
L 248.372323 203.955902 
L 249.67911 201.194695 
L 250.809045 198.356525 
L 251.757624 195.452707 
L 252.521064 192.494817 
L 253.096323 189.494644 
L 253.481108 186.464149 
L 253.673885 183.415413 
L 253.698 181.888 
L 253.698 181.888 
" clip-path="url(#p81d70e94bf)" style="fill: none; stroke: #1f6feb; stroke-width: 1.5; stroke-linecap: square"/>
   </g>
   <g id="line2d_3">
    <path d="M 277.89 181.888 
L 277.745345 177.308046 
L 277.311958 172.746348 
L 276.591566 168.221092 
L 275.587041 163.750317 
L 274.302386 159.351843 
L 272.742724 155.043206 
L 270.914271 150.841579 
L 268.824316 146.763713 
L 266.48119 142.825862 
L 263.894234 139.043724 
L 261.07376 135.432377 
L 258.031011 132.006215 
L 254.778117 128.778896 
L 251.328044 125.763286 
L 247.694546 122.971405 
L 243.892106 120.414384 
L 239.935883 118.102414 
L 235.841647 116.044712 
L 231.625719 114.249481 
L 227.304904 112.723877 
L 222.896427 111.473981 
L 218.417862 110.504777 
L 213.88706 109.820126 
L 209.322084 109.42276 
L 204.741131 109.314261 
L 200.162461 109.495062 
L 195.604327 109.964443 
L 191.084898 110.720532 
L 186.622191 111.760316 
L 182.233995 113.079649 
L 177.937802 114.673273 
L 173.750739 116.534834 
L 169.689497 118.656912 
L 165.770264 121.031047 
L 162.008664 123.647777 
L 158.419692 126.496668 
L 155.017654 129.566366 
L 151.816112 132.844634 
L 148.827829 136.318402 
L 146.064716 139.973825 
L 143.537788 143.796329 
L 141.257118 147.770679 
L 139.231797 151.881029 
L 137.4699 156.110997 
L 135.978449 160.443719 
L 134.76339 164.861924 
L 133.829567 169.348 
L 133.180701 173.884065 
L 132.81938 178.452035 
L 132.747044 183.033702 
L 132.963981 187.610802 
L 133.469326 192.16509 
L 134.261065 196.678409 
L 135.336042 201.13277 
L 136.689972 205.510416 
L 138.317457 209.793895 
L 140.21201 213.966134 
L 142.366079 218.0105 
L 144.771076 221.910871 
L 147.417416 225.651699 
L 150.294548 229.218072 
L 153.391004 232.595773 
L 156.69444 235.771339 
L 160.191688 238.732109 
L 163.868807 241.466283 
L 167.711138 243.962959 
L 171.703366 246.212187 
L 175.829575 248.205 
L 180.073318 249.933454 
L 184.417678 251.390658 
L 188.845336 252.570805 
L 193.338644 253.469189 
L 197.879689 254.08223 
L 202.450369 254.407483 
L 207.032464 254.443652 
L 211.607709 254.190593 
L 216.157866 253.649315 
L 220.664795 252.821975 
L 225.110532 251.711872 
L 229.477355 250.32343 
L 233.747854 248.662184 
L 237.905009 246.734757 
L 241.932246 244.548832 
L 245.813511 242.113122 
L 249.533334 239.437338 
L 253.076886 236.532144 
L 256.430041 233.409123 
L 259.579432 230.080724 
L 262.512505 226.560215 
L 265.217569 222.861629 
L 267.683839 218.99971 
L 269.901484 214.989853 
L 271.861665 210.848042 
L 273.556568 206.590788 
L 274.979435 202.235061 
L 276.124596 197.798225 
L 276.987485 193.297966 
L 277.564662 188.752224 
L 277.853827 184.179119 
L 277.89 181.888 
L 277.89 181.888 
" clip-path="url(#p81d70e94bf)" style="fill: none; stroke: #1f6feb; stroke-width: 1.5; stroke-linecap: square"/>
   </g>
   <g id="line2d_4">
    <path d="M 302.082 181.888 
L 301.889127 175.781394 
L 301.311278 169.699131 
L 300.350755 163.665457 
L 299.011387 157.704422 
L 297.298515 151.839791 
L 295.218965 146.094941 
L 292.781028 140.492772 
L 289.994421 135.055617 
L 286.870253 129.805149 
L 283.420979 124.762299 
L 279.660347 119.947169 
L 275.603348 115.378953 
L 271.266156 111.075861 
L 266.666059 107.055048 
L 261.821394 103.332541 
L 256.751475 99.923178 
L 251.476511 96.840552 
L 246.017529 94.09695 
L 240.396291 91.703308 
L 234.635205 89.669169 
L 228.757236 88.002642 
L 222.785816 86.710369 
L 216.744747 85.797502 
L 210.658113 85.26768 
L 204.550175 85.123015 
L 198.445282 85.364083 
L 192.367769 85.989924 
L 186.341864 86.998043 
L 180.391588 88.384421 
L 174.54066 90.143532 
L 168.812403 92.268364 
L 163.229652 94.750445 
L 157.814662 97.579882 
L 152.589018 100.745396 
L 147.573552 104.234369 
L 142.788255 108.032891 
L 138.252205 112.125822 
L 133.983483 116.496845 
L 129.999105 121.128537 
L 126.314954 126.002433 
L 122.945717 131.099106 
L 119.904824 136.398238 
L 117.204397 141.878706 
L 114.8552 147.518662 
L 112.866599 153.295625 
L 111.24652 159.186566 
L 110.001422 165.168001 
L 109.136268 171.216086 
L 108.654507 177.306714 
L 108.558058 183.415603 
L 108.847307 189.518403 
L 109.521101 195.590786 
L 110.576753 201.608546 
L 112.010056 207.547694 
L 113.815296 213.384554 
L 115.985276 219.095861 
L 118.511347 224.658845 
L 121.383438 230.051333 
L 124.590102 235.251828 
L 128.118554 240.239598 
L 131.954731 244.994762 
L 136.083339 249.498364 
L 140.48792 253.732451 
L 145.150918 257.680146 
L 150.053743 261.32571 
L 155.176851 264.654612 
L 160.499821 267.653583 
L 166.001434 270.310667 
L 171.659758 272.615272 
L 177.452237 274.558211 
L 183.355782 276.13174 
L 189.346859 277.329585 
L 195.401585 278.146973 
L 201.495825 278.580644 
L 207.605286 278.62887 
L 213.705612 278.291458 
L 219.772488 277.569754 
L 225.781727 276.466634 
L 231.709377 274.986496 
L 237.531806 273.13524 
L 243.225806 270.920246 
L 248.768678 268.350343 
L 254.138327 265.435776 
L 259.313348 262.188163 
L 264.273112 258.62045 
L 268.997848 254.746859 
L 273.468721 250.582831 
L 277.667909 246.144966 
L 281.578674 241.450953 
L 285.185425 236.519505 
L 288.473785 231.37028 
L 291.430646 226.023803 
L 294.04422 220.501389 
L 296.30409 214.82505 
L 298.201247 209.017415 
L 299.728128 203.101634 
L 300.878647 197.101289 
L 301.648216 191.040299 
L 302.03377 184.942825 
L 302.082 181.888 
L 302.082 181.888 
" clip-path="url(#p81d70e94bf)" style="fill: none; stroke: #1f6feb; stroke-width: 1.5; stroke-linecap: square"/>
   </g>
   <g id="line2d_5">
    <path d="M 326.274 181.888 
L 326.213712 178.069468 
L 326.032909 174.254743 
L 325.731771 170.447626 
L 325.310597 166.651914 
L 324.769808 162.871389 
L 324.109943 159.109821 
L 323.33166 155.370958 
L 322.435734 151.658528 
L 321.423059 147.976231 
L 320.294644 144.327739 
L 319.051613 140.716687 
L 317.695206 137.146676 
L 316.226776 133.621264 
L 314.647785 130.143965 
L 312.959807 126.718246 
L 311.164526 123.347521 
L 309.263731 120.03515 
L 307.259317 116.784436 
L 305.153281 113.598619 
L 302.947723 110.480874 
L 300.644842 107.434309 
L 298.246933 104.461961 
L 295.756387 101.566793 
L 293.175685 98.751691 
L 290.507401 96.019461 
L 287.754195 93.372827 
L 284.91881 90.814426 
L 282.004073 88.34681 
L 279.01289 85.972437 
L 275.948243 83.693676 
L 272.813186 81.512796 
L 269.610844 79.431973 
L 266.344409 77.45328 
L 263.017138 75.57869 
L 259.632348 73.810071 
L 256.193411 72.149187 
L 252.703757 70.597693 
L 249.166864 69.157135 
L 245.586258 67.82895 
L 241.965507 66.614462 
L 238.308221 65.51488 
L 234.618045 64.531302 
L 230.898659 63.664708 
L 227.15377 62.915961 
L 223.38711 62.285808 
L 219.602434 61.774877 
L 215.803516 61.383678 
L 211.994141 61.1126 
L 208.178107 60.961913 
L 204.359218 60.931768 
L 200.541281 61.022195 
L 196.728102 61.233104 
L 192.923481 61.564284 
L 189.131212 62.015405 
L 185.355073 62.586018 
L 181.59883 63.275554 
L 177.866227 64.083325 
L 174.160985 65.008527 
L 170.486797 66.050236 
L 166.847325 67.207415 
L 163.246197 68.478911 
L 159.687004 69.863454 
L 156.173292 71.359667 
L 152.708565 72.966056 
L 149.296277 74.681021 
L 145.939828 76.502853 
L 142.642564 78.429734 
L 139.407773 80.459746 
L 136.238678 82.590862 
L 133.138439 84.820961 
L 130.110147 87.147818 
L 127.156819 89.569114 
L 124.2814 92.082436 
L 121.486756 94.685277 
L 118.775673 97.375045 
L 116.150853 100.149056 
L 113.614913 103.004547 
L 111.170381 105.938671 
L 108.819693 108.948502 
L 106.565193 112.031041 
L 104.409127 115.183216 
L 102.353646 118.401882 
L 100.400798 121.683834 
L 98.55253 125.025798 
L 96.810683 128.424443 
L 95.176996 131.876382 
L 93.653095 135.378174 
L 92.2405 138.926328 
L 90.94062 142.517307 
L 89.754749 146.147532 
L 88.68407 149.813383 
L 87.729651 153.511207 
L 86.892442 157.237318 
L 86.173278 160.988001 
L 85.572876 164.759517 
L 85.091835 168.548108 
L 84.730634 172.349996 
L 84.489633 176.161392 
L 84.369073 179.978496 
L 84.369073 183.797504 
L 84.489633 187.614608 
L 84.730634 191.426004 
L 85.091835 195.227892 
L 85.572876 199.016483 
L 86.173278 202.787999 
L 86.892442 206.538682 
L 87.729651 210.264793 
L 88.68407 213.962617 
L 89.754749 217.628468 
L 90.94062 221.258693 
L 92.2405 224.849672 
L 93.653095 228.397826 
L 95.176996 231.899618 
L 96.810683 235.351557 
L 98.55253 238.750202 
L 100.400798 242.092166 
L 102.353646 245.374118 
L 104.409127 248.592784 
L 106.565193 251.744959 
L 108.819693 254.827498 
L 111.170381 257.837329 
L 113.614913 260.771453 
L 116.150853 263.626944 
L 118.775673 266.400955 
L 121.486756 269.090723 
L 124.2814 271.693564 
L 127.156819 274.206886 
L 130.110147 276.628182 
L 133.138439 278.955039 
L 136.238678 281.185138 
L 139.407773 283.316254 
L 142.642564 285.346266 
L 145.939828 287.273147 
L 149.296277 289.094979 
L 152.708565 290.809944 
L 156.173292 292.416333 
L 159.687004 293.912546 
L 163.246197 295.297089 
L 166.847325 296.568585 
L 170.486797 297.725764 
L 174.899977 298.952 
M 235.716185 298.952 
L 238.308221 298.26112 
L 241.965507 297.161538 
L 245.586258 295.94705 
L 249.166864 294.618865 
L 252.703757 293.178307 
L 256.193411 291.626813 
L 259.632348 289.965929 
L 263.017138 288.19731 
L 266.344409 286.32272 
L 269.610844 284.344027 
L 272.813186 282.263204 
L 275.948243 280.082324 
L 279.01289 277.803563 
L 282.004073 275.42919 
L 284.91881 272.961574 
L 287.754195 270.403173 
L 290.507401 267.756539 
L 293.175685 265.024309 
L 295.756387 262.209207 
L 298.246933 259.314039 
L 300.644842 256.341691 
L 302.947723 253.295126 
L 305.153281 250.177381 
L 307.259317 246.991564 
L 309.263731 243.74085 
L 311.164526 240.428479 
L 312.959807 237.057754 
L 314.647785 233.632035 
L 316.226776 230.154736 
L 317.695206 226.629324 
L 319.051613 223.059313 
L 320.294644 219.448261 
L 321.423059 215.799769 
L 322.435734 212.117472 
L 323.33166 208.405042 
L 324.109943 204.666179 
L 324.769808 200.904611 
L 325.310597 197.124086 
L 325.731771 193.328374 
L 326.032909 189.521257 
L 326.213712 185.706532 
L 326.274 181.888 
L 326.274 181.888 
" clip-path="url(#p81d70e94bf)" style="fill: none; stroke: #1f6feb; stroke-width: 1.5; stroke-linecap: square"/>
   </g>
   <g id="text_1">
    <!-- 波源不動 -->
    <g style="fill: #d1242f" transform="translate(183.314 206.688) scale(0.11 -0.11)">
     <defs>
      <path id="NotoSansCJKjp-Regular-5ae7" d="M 589 4973 
C 966 4768 1453 4454 1696 4237 
L 1978 4621 
C 1734 4832 1242 5126 864 5312 
L 589 4973 
z
M 243 3238 
C 634 3053 1133 2758 1376 2547 
L 1651 2944 
C 1402 3142 896 3424 512 3597 
L 243 3238 
z
M 397 -134 
L 819 -429 
C 1152 166 1536 966 1824 1638 
L 1446 1926 
C 1133 1203 704 358 397 -134 
z
M 3821 4000 
L 3821 2867 
L 2726 2867 
L 2726 4000 
L 3821 4000 
z
M 2266 4448 
L 2266 2829 
C 2266 1901 2195 627 1498 -269 
C 1613 -314 1811 -429 1894 -506 
C 2528 314 2688 1491 2720 2438 
L 2886 2438 
C 3130 1773 3469 1197 3910 717 
C 3462 339 2931 64 2355 -128 
C 2458 -211 2605 -410 2669 -525 
C 3245 -320 3776 -19 4243 384 
C 4698 -13 5242 -320 5875 -512 
C 5946 -384 6080 -198 6189 -102 
C 5568 64 5030 346 4576 717 
C 5062 1242 5446 1914 5670 2752 
L 5370 2886 
L 5280 2867 
L 4288 2867 
L 4288 4000 
L 5498 4000 
C 5395 3706 5274 3411 5165 3206 
L 5581 3072 
C 5760 3398 5965 3917 6125 4378 
L 5779 4467 
L 5696 4448 
L 4288 4448 
L 4288 5382 
L 3821 5382 
L 3821 4448 
L 2266 4448 
z
M 3341 2438 
L 5075 2438 
C 4883 1882 4595 1414 4237 1030 
C 3853 1427 3552 1907 3341 2438 
z
" transform="scale(0.015625)"/>
      <path id="NotoSansCJKjp-Regular-5d8e" d="M 3437 2650 
L 5395 2650 
L 5395 2080 
L 3437 2080 
L 3437 2650 
z
M 3437 3558 
L 5395 3558 
L 5395 3002 
L 3437 3002 
L 3437 3558 
z
M 3232 1357 
C 3053 896 2771 429 2451 109 
C 2560 51 2746 -77 2835 -147 
C 3142 198 3462 730 3661 1248 
L 3232 1357 
z
M 5043 1242 
C 5344 832 5658 282 5773 -64 
L 6214 134 
C 6080 486 5754 1018 5453 1408 
L 5043 1242 
z
M 557 4973 
C 941 4781 1395 4467 1619 4237 
L 1907 4621 
C 1683 4851 1216 5133 832 5312 
L 557 4973 
z
M 243 3245 
C 634 3072 1094 2784 1318 2566 
L 1600 2950 
C 1370 3162 896 3437 512 3597 
L 243 3245 
z
M 378 -154 
L 806 -422 
C 1114 179 1472 973 1734 1651 
L 1350 1920 
C 1062 1190 659 346 378 -154 
z
M 3002 3930 
L 3002 1709 
L 4154 1709 
L 4154 0 
C 4154 -70 4128 -96 4051 -102 
C 3968 -102 3686 -102 3386 -96 
C 3443 -218 3501 -390 3520 -506 
C 3942 -512 4224 -512 4397 -442 
C 4570 -371 4614 -250 4614 -13 
L 4614 1709 
L 5843 1709 
L 5843 3930 
L 4499 3930 
L 4704 4621 
L 4672 4627 
L 6086 4627 
L 6086 5062 
L 2163 5062 
L 2163 3309 
C 2163 2253 2093 800 1370 -230 
C 1478 -282 1683 -403 1766 -486 
C 2528 589 2630 2189 2630 3309 
L 2630 4627 
L 4166 4627 
C 4141 4416 4083 4147 4032 3930 
L 3002 3930 
z
" transform="scale(0.015625)"/>
      <path id="NotoSansCJKjp-Regular-2518" d="M 3578 3059 
C 4339 2547 5299 1792 5754 1299 
L 6144 1670 
C 5664 2163 4691 2880 3936 3366 
L 3578 3059 
z
M 442 4928 
L 442 4435 
L 3290 4435 
C 2656 3341 1555 2259 282 1632 
C 384 1523 531 1331 608 1210 
C 1498 1677 2291 2336 2938 3078 
L 2938 -499 
L 3456 -499 
L 3456 3738 
C 3622 3962 3770 4198 3904 4435 
L 5958 4435 
L 5958 4928 
L 442 4928 
z
" transform="scale(0.015625)"/>
      <path id="NotoSansCJKjp-Regular-2cc2" d="M 4192 5293 
C 4192 4806 4192 4333 4179 3878 
L 3418 3878 
L 3418 3437 
L 4166 3437 
C 4109 2227 3942 1184 3386 422 
L 3386 448 
L 2099 314 
L 2099 826 
L 3360 826 
L 3360 1197 
L 2099 1197 
L 2099 1587 
L 3347 1587 
L 3347 3501 
L 2099 3501 
L 2099 3904 
L 3469 3904 
L 3469 4282 
L 2099 4282 
L 2099 4755 
C 2566 4806 3008 4864 3354 4941 
L 3117 5312 
C 2451 5158 1286 5043 339 4998 
C 384 4896 435 4742 454 4640 
C 832 4653 1248 4678 1658 4710 
L 1658 4282 
L 269 4282 
L 269 3904 
L 1658 3904 
L 1658 3501 
L 461 3501 
L 461 1587 
L 1658 1587 
L 1658 1197 
L 442 1197 
L 442 826 
L 1658 826 
L 1658 269 
L 269 141 
L 333 -282 
C 1056 -205 2054 -90 3034 26 
C 2950 -51 2854 -128 2758 -198 
C 2874 -275 3040 -435 3110 -544 
C 4256 307 4544 1722 4627 3437 
L 5536 3437 
C 5472 1094 5395 243 5242 51 
C 5184 -32 5120 -45 5018 -45 
C 4896 -45 4608 -45 4294 -19 
C 4371 -147 4422 -346 4435 -480 
C 4736 -493 5037 -499 5222 -474 
C 5414 -454 5542 -403 5651 -230 
C 5869 38 5933 934 6003 3642 
C 6003 3699 6003 3878 6003 3878 
L 4640 3878 
C 4653 4333 4659 4806 4659 5293 
L 4192 5293 
z
M 858 2387 
L 1658 2387 
L 1658 1920 
L 858 1920 
L 858 2387 
z
M 2099 2387 
L 2938 2387 
L 2938 1920 
L 2099 1920 
L 2099 2387 
z
M 858 3168 
L 1658 3168 
L 1658 2707 
L 858 2707 
L 858 3168 
z
M 2099 3168 
L 2938 3168 
L 2938 2707 
L 2099 2707 
L 2099 3168 
z
" transform="scale(0.015625)"/>
     </defs>
     <use xlink:href="#NotoSansCJKjp-Regular-5ae7"/>
     <use xlink:href="#NotoSansCJKjp-Regular-5d8e" transform="translate(100 0)"/>
     <use xlink:href="#NotoSansCJKjp-Regular-2518" transform="translate(200 0)"/>
     <use xlink:href="#NotoSansCJKjp-Regular-2cc2" transform="translate(300 0)"/>
    </g>
   </g>
   <g id="text_2">
    <!-- 波長不變 -->
    <g style="fill: #1f6feb" transform="translate(184.314 32.536) scale(0.105 -0.105)">
     <defs>
      <path id="NotoSansCJKjp-Regular-a74e" d="M 1466 5120 
L 1466 2304 
L 339 2304 
L 339 1875 
L 1466 1875 
L 1466 96 
L 646 -26 
L 762 -474 
C 1536 -339 2637 -154 3661 32 
L 3642 461 
L 1958 179 
L 1958 1875 
L 2874 1875 
C 3411 621 4397 -186 5862 -531 
C 5933 -397 6067 -205 6170 -102 
C 5440 38 4826 307 4333 685 
C 4800 915 5357 1242 5779 1555 
L 5389 1824 
C 5050 1542 4493 1197 4026 947 
C 3757 1216 3533 1523 3360 1875 
L 6067 1875 
L 6067 2304 
L 1958 2304 
L 1958 2861 
L 5242 2861 
L 5242 3251 
L 1958 3251 
L 1958 3789 
L 5242 3789 
L 5242 4173 
L 1958 4173 
L 1958 4710 
L 5440 4710 
L 5440 5120 
L 1466 5120 
z
" transform="scale(0.015625)"/>
      <path id="NotoSansCJKjp-Regular-95ec" d="M 1664 2874 
C 1798 2650 1933 2342 1984 2150 
L 2291 2285 
C 2240 2470 2099 2765 1965 2982 
L 1664 2874 
z
M 640 2970 
C 563 2624 442 2259 262 2003 
C 358 1958 512 1869 582 1818 
C 755 2093 909 2502 998 2886 
L 640 2970 
z
M 5376 2848 
C 5568 2560 5760 2170 5830 1926 
L 6150 2080 
C 6067 2317 5869 2694 5677 2976 
L 5376 2848 
z
M 4275 2963 
C 4198 2630 4077 2298 3898 2048 
C 3987 2010 4141 1926 4211 1882 
C 4384 2138 4538 2522 4627 2886 
L 4275 2963 
z
M 2477 5203 
L 2477 4922 
L 3853 4922 
L 3853 5203 
L 2477 5203 
z
M 2464 4077 
L 2464 3802 
L 3866 3802 
L 3866 4077 
L 2464 4077 
z
M 2464 3533 
L 2464 3251 
L 3866 3251 
L 3866 3533 
L 2464 3533 
z
M 2803 2688 
L 3520 2688 
L 3520 2214 
L 2803 2214 
L 2803 2688 
z
M 1709 4832 
C 1587 4653 1427 4435 1254 4218 
C 1184 4294 1094 4384 998 4474 
C 1178 4691 1376 4973 1542 5242 
L 1197 5382 
C 1094 5178 928 4896 774 4672 
L 614 4800 
L 390 4550 
C 608 4371 858 4134 1018 3942 
C 902 3808 787 3680 678 3571 
L 307 3571 
L 346 3200 
L 1152 3232 
L 1152 1728 
L 1530 1728 
L 1530 3251 
L 2029 3270 
L 2125 3085 
L 2406 3251 
C 2304 3469 2067 3795 1856 4038 
L 1581 3891 
C 1658 3802 1741 3699 1818 3590 
L 1094 3578 
C 1414 3904 1773 4307 2054 4659 
L 1709 4832 
z
M 2208 4659 
L 2208 4352 
L 4064 4352 
L 4064 4474 
C 4269 4320 4499 4109 4653 3936 
C 4531 3802 4416 3680 4301 3571 
L 3942 3571 
L 3987 3200 
L 4813 3232 
L 4813 1728 
L 5190 1728 
L 5190 3251 
L 5734 3277 
C 5792 3187 5843 3110 5875 3040 
L 6163 3226 
C 6042 3462 5754 3814 5504 4077 
L 5235 3917 
C 5325 3821 5421 3706 5510 3590 
L 4730 3578 
C 5075 3910 5459 4339 5766 4704 
L 5421 4883 
C 5286 4685 5094 4442 4896 4211 
C 4819 4288 4723 4378 4621 4461 
C 4800 4678 5018 4966 5190 5242 
L 4838 5382 
C 4736 5171 4550 4877 4390 4653 
L 4250 4755 
L 4064 4538 
L 4064 4659 
L 2208 4659 
z
M 4269 1171 
C 3987 902 3622 685 3194 506 
C 2707 691 2278 909 1965 1171 
L 4269 1171 
z
M 2451 2963 
L 2451 2054 
L 2189 2131 
C 1824 1549 1120 1069 397 781 
C 499 704 666 531 736 448 
C 1030 589 1331 755 1606 960 
C 1901 710 2253 493 2650 307 
C 1933 90 1101 -45 256 -122 
C 339 -224 461 -422 499 -538 
C 1453 -416 2400 -237 3206 77 
C 4026 -230 4966 -422 5914 -525 
C 5971 -403 6080 -218 6176 -115 
C 5338 -45 4493 102 3757 320 
C 4198 544 4582 826 4870 1171 
L 5920 1171 
L 5920 1562 
L 2291 1562 
C 2394 1683 2496 1805 2579 1939 
L 3878 1939 
L 3878 2963 
L 2451 2963 
z
" transform="scale(0.015625)"/>
     </defs>
     <use xlink:href="#NotoSansCJKjp-Regular-5ae7"/>
     <use xlink:href="#NotoSansCJKjp-Regular-a74e" transform="translate(100 0)"/>
     <use xlink:href="#NotoSansCJKjp-Regular-2518" transform="translate(200 0)"/>
     <use xlink:href="#NotoSansCJKjp-Regular-95ec" transform="translate(300 0)"/>
    </g>
    <!-- （同心圓等間距） -->
    <g style="fill: #1f6feb" transform="translate(163.314 43.036) scale(0.105 -0.105)">
     <defs>
      <path id="NotoSansCJKjp-Regular-e6ae" d="M 4448 2432 
C 4448 1184 4954 166 5722 -614 
L 6106 -416 
C 5370 346 4915 1293 4915 2432 
C 4915 3571 5370 4518 6106 5280 
L 5722 5478 
C 4954 4698 4448 3680 4448 2432 
z
" transform="scale(0.015625)"/>
      <path id="NotoSansCJKjp-Regular-2eb1" d="M 1587 3917 
L 1587 3501 
L 4838 3501 
L 4838 3917 
L 1587 3917 
z
M 2355 2419 
L 4045 2419 
L 4045 1203 
L 2355 1203 
L 2355 2419 
z
M 1914 2829 
L 1914 326 
L 2355 326 
L 2355 794 
L 4493 794 
L 4493 2829 
L 1914 2829 
z
M 563 5043 
L 563 -525 
L 1030 -525 
L 1030 4589 
L 5376 4589 
L 5376 102 
C 5376 -13 5338 -51 5222 -58 
C 5114 -58 4742 -64 4339 -51 
C 4416 -173 4486 -390 4512 -518 
C 5062 -518 5389 -506 5581 -429 
C 5779 -352 5850 -198 5850 96 
L 5850 5043 
L 563 5043 
z
" transform="scale(0.015625)"/>
      <path id="NotoSansCJKjp-Regular-444f" d="M 1952 3590 
L 1952 378 
C 1952 -250 2144 -429 2829 -429 
C 2970 -429 3923 -429 4077 -429 
C 4774 -429 4928 -70 4998 1139 
C 4858 1178 4659 1267 4544 1357 
C 4493 250 4435 19 4051 19 
C 3834 19 3034 19 2867 19 
C 2515 19 2445 70 2445 371 
L 2445 3590 
L 1952 3590 
z
M 2003 4979 
C 2771 4704 3706 4224 4198 3859 
L 4512 4282 
C 4006 4621 3072 5088 2304 5350 
L 2003 4979 
z
M 883 3072 
C 787 2240 582 1306 154 742 
L 589 486 
C 1043 1101 1248 2118 1344 2976 
L 883 3072 
z
M 4614 3072 
C 5152 2349 5632 1350 5779 678 
L 6253 902 
C 6099 1581 5619 2554 5043 3283 
L 4614 3072 
z
" transform="scale(0.015625)"/>
      <path id="NotoSansCJKjp-Regular-33a8" d="M 2330 4013 
L 4051 4013 
L 4051 3648 
L 2330 3648 
L 2330 4013 
z
M 1926 4282 
L 1926 3373 
L 4474 3373 
L 4474 4282 
L 1926 4282 
z
M 2061 2304 
L 4301 2304 
L 4301 2003 
L 2061 2003 
L 2061 2304 
z
M 2061 1741 
L 4301 1741 
L 4301 1427 
L 2061 1427 
L 2061 1741 
z
M 2061 2861 
L 4301 2861 
L 4301 2566 
L 2061 2566 
L 2061 2861 
z
M 3482 966 
C 3923 800 4390 570 4653 390 
L 5050 582 
C 4749 768 4237 992 3782 1158 
L 4730 1158 
L 4730 3130 
L 1651 3130 
L 1651 1158 
L 2509 1158 
C 2221 966 1760 800 1338 678 
C 1421 608 1568 467 1632 397 
C 2048 544 2560 800 2886 1043 
L 2541 1158 
L 3757 1158 
L 3482 966 
z
M 525 5082 
L 525 -531 
L 986 -531 
L 986 -230 
L 5402 -230 
L 5402 -531 
L 5875 -531 
L 5875 5082 
L 525 5082 
z
M 986 205 
L 986 4640 
L 5402 4640 
L 5402 205 
L 986 205 
z
" transform="scale(0.015625)"/>
      <path id="NotoSansCJKjp-Regular-74a1" d="M 3699 5408 
C 3514 4864 3168 4352 2771 4019 
L 2944 3910 
L 2944 3469 
L 941 3469 
L 941 3066 
L 2944 3066 
L 2944 2490 
L 307 2490 
L 307 2067 
L 4256 2067 
L 4256 1504 
L 512 1504 
L 512 1082 
L 4256 1082 
L 4256 64 
C 4256 -26 4224 -51 4109 -58 
C 3994 -64 3616 -64 3181 -51 
C 3251 -179 3334 -371 3360 -506 
C 3885 -506 4243 -499 4461 -435 
C 4678 -358 4742 -224 4742 58 
L 4742 1082 
L 5946 1082 
L 5946 1504 
L 4742 1504 
L 4742 2067 
L 6118 2067 
L 6118 2490 
L 3437 2490 
L 3437 3066 
L 5510 3066 
L 5510 3469 
L 3437 3469 
L 3437 3910 
L 3334 3910 
C 3475 4064 3610 4237 3731 4429 
L 4166 4429 
C 4358 4179 4544 3878 4621 3667 
L 5037 3846 
C 4966 4013 4832 4224 4685 4429 
L 6048 4429 
L 6048 4838 
L 3962 4838 
C 4038 4986 4102 5139 4160 5299 
L 3699 5408 
z
M 1427 806 
C 1843 531 2304 122 2515 -179 
L 2886 122 
C 2669 422 2195 819 1779 1082 
L 1427 806 
z
M 1190 5408 
C 973 4838 614 4282 211 3904 
C 326 3846 525 3712 614 3635 
C 826 3846 1030 4122 1222 4429 
L 1478 4429 
C 1600 4179 1715 3891 1754 3699 
L 2182 3859 
C 2144 4006 2054 4224 1958 4429 
L 3123 4429 
L 3123 4838 
L 1446 4838 
C 1517 4986 1587 5133 1645 5286 
L 1190 5408 
z
" transform="scale(0.015625)"/>
      <path id="NotoSansCJKjp-Regular-a774" d="M 3936 1082 
L 3936 461 
L 2432 461 
L 2432 1082 
L 3936 1082 
z
M 3936 1453 
L 2432 1453 
L 2432 2042 
L 3936 2042 
L 3936 1453 
z
M 1997 2419 
L 1997 -243 
L 2432 -243 
L 2432 83 
L 4384 83 
L 4384 2419 
L 1997 2419 
z
M 2451 3840 
L 2451 3270 
L 1056 3270 
L 1056 3840 
L 2451 3840 
z
M 2451 4192 
L 1056 4192 
L 1056 4730 
L 2451 4730 
L 2451 4192 
z
M 5376 3840 
L 5376 3264 
L 3936 3264 
L 3936 3840 
L 5376 3840 
z
M 5376 4192 
L 3936 4192 
L 3936 4730 
L 5376 4730 
L 5376 4192 
z
M 5619 5101 
L 3482 5101 
L 3482 2893 
L 5376 2893 
L 5376 128 
C 5376 13 5338 -19 5229 -26 
C 5114 -26 4723 -32 4333 -19 
C 4403 -154 4474 -378 4499 -512 
C 5030 -512 5376 -506 5581 -422 
C 5792 -339 5862 -186 5862 122 
L 5862 5101 
L 5619 5101 
z
M 576 5101 
L 576 -518 
L 1056 -518 
L 1056 2906 
L 2899 2906 
L 2899 5101 
L 576 5101 
z
" transform="scale(0.015625)"/>
      <path id="NotoSansCJKjp-Regular-9943" d="M 998 4685 
L 2246 4685 
L 2246 3558 
L 998 3558 
L 998 4685 
z
M 3155 5120 
L 3155 -506 
L 3629 -506 
L 3629 -205 
L 6157 -205 
L 6157 250 
L 3629 250 
L 3629 1331 
L 5798 1331 
L 5798 3603 
L 3629 3603 
L 3629 4672 
L 6074 4672 
L 6074 5120 
L 3155 5120 
z
M 3629 3155 
L 5331 3155 
L 5331 1779 
L 3629 1779 
L 3629 3155 
z
M 218 269 
L 307 -198 
C 1018 -26 2003 211 2931 442 
L 2886 870 
L 1888 634 
L 1888 1786 
L 2829 1786 
L 2829 2214 
L 1888 2214 
L 1888 3136 
L 2694 3136 
L 2694 5107 
L 570 5107 
L 570 3136 
L 1453 3136 
L 1453 538 
L 979 429 
L 979 2534 
L 570 2534 
L 570 339 
L 218 269 
z
" transform="scale(0.015625)"/>
      <path id="NotoSansCJKjp-Regular-e6af" d="M 1952 2432 
C 1952 3680 1446 4698 678 5478 
L 294 5280 
C 1030 4518 1485 3571 1485 2432 
C 1485 1293 1030 346 294 -416 
L 678 -614 
C 1446 166 1952 1184 1952 2432 
z
" transform="scale(0.015625)"/>
     </defs>
     <use xlink:href="#NotoSansCJKjp-Regular-e6ae"/>
     <use xlink:href="#NotoSansCJKjp-Regular-2eb1" transform="translate(100 0)"/>
     <use xlink:href="#NotoSansCJKjp-Regular-444f" transform="translate(200 0)"/>
     <use xlink:href="#NotoSansCJKjp-Regular-33a8" transform="translate(300 0)"/>
     <use xlink:href="#NotoSansCJKjp-Regular-74a1" transform="translate(400 0)"/>
     <use xlink:href="#NotoSansCJKjp-Regular-a774" transform="translate(500 0)"/>
     <use xlink:href="#NotoSansCJKjp-Regular-9943" transform="translate(600 0)"/>
     <use xlink:href="#NotoSansCJKjp-Regular-e6af" transform="translate(700 0)"/>
    </g>
   </g>
   <g id="text_3">
    <!-- 迎面前進去「接」波 -->
    <g style="fill: #1a7f37" transform="translate(269.178 211.856) scale(0.1 -0.1)">
     <defs>
      <path id="NotoSansCJKjp-Regular-9c9b" d="M 320 4986 
C 691 4672 1107 4205 1280 3885 
L 1683 4160 
C 1498 4480 1075 4928 691 5229 
L 320 4986 
z
M 1530 2848 
L 288 2848 
L 288 2400 
L 1075 2400 
L 1075 730 
C 794 467 480 192 218 0 
L 467 -461 
C 774 -173 1062 102 1338 384 
C 1734 -128 2323 -352 3174 -384 
C 3898 -410 5299 -397 6029 -371 
C 6048 -230 6118 -19 6176 90 
C 5395 38 3885 19 3162 45 
C 2406 77 1837 294 1530 774 
L 1530 2848 
z
M 3962 4902 
L 3962 307 
L 4403 307 
L 4403 4486 
L 5434 4486 
L 5434 1600 
C 5434 1523 5408 1498 5331 1498 
C 5254 1491 5005 1485 4717 1498 
C 4781 1382 4845 1197 4870 1082 
C 5254 1082 5517 1088 5670 1158 
C 5837 1235 5882 1357 5882 1594 
L 5882 4902 
L 3962 4902 
z
M 1818 1427 
L 1946 998 
C 2458 1146 3130 1338 3757 1530 
L 3706 1946 
L 2682 1658 
L 2682 4467 
C 3098 4627 3546 4826 3898 5037 
L 3539 5389 
C 3296 5203 2886 4986 2509 4819 
L 2240 4890 
L 2240 1536 
L 1818 1427 
z
" transform="scale(0.015625)"/>
      <path id="NotoSansCJKjp-Regular-aaab" d="M 2490 2138 
L 3846 2138 
L 3846 1414 
L 2490 1414 
L 2490 2138 
z
M 2490 2528 
L 2490 3238 
L 3846 3238 
L 3846 2528 
L 2490 2528 
z
M 2490 1024 
L 3846 1024 
L 3846 275 
L 2490 275 
L 2490 1024 
z
M 371 4954 
L 371 4493 
L 2842 4493 
C 2797 4230 2726 3930 2662 3686 
L 666 3686 
L 666 -512 
L 1126 -512 
L 1126 -173 
L 5248 -173 
L 5248 -512 
L 5734 -512 
L 5734 3686 
L 3155 3686 
L 3405 4493 
L 6048 4493 
L 6048 4954 
L 371 4954 
z
M 1126 275 
L 1126 3238 
L 2048 3238 
L 2048 275 
L 1126 275 
z
M 5248 275 
L 4288 275 
L 4288 3238 
L 5248 3238 
L 5248 275 
z
" transform="scale(0.015625)"/>
      <path id="NotoSansCJKjp-Regular-2be5" d="M 3866 3290 
L 3866 666 
L 4314 666 
L 4314 3290 
L 3866 3290 
z
M 5165 3482 
L 5165 90 
C 5165 -6 5133 -32 5030 -32 
C 4922 -38 4576 -38 4186 -26 
C 4256 -154 4333 -358 4358 -486 
C 4851 -493 5178 -480 5370 -403 
C 5568 -326 5638 -192 5638 83 
L 5638 3482 
L 5165 3482 
z
M 4627 5408 
C 4486 5094 4243 4672 4026 4365 
L 2106 4365 
L 2419 4480 
C 2298 4736 2022 5114 1779 5382 
L 1331 5222 
C 1562 4960 1798 4614 1920 4365 
L 339 4365 
L 339 3923 
L 6061 3923 
L 6061 4365 
L 4570 4365 
C 4755 4627 4960 4947 5139 5242 
L 4627 5408 
z
M 2618 1926 
L 2618 1280 
L 1197 1280 
L 1197 1926 
L 2618 1926 
z
M 2618 2304 
L 1197 2304 
L 1197 2938 
L 2618 2938 
L 2618 2304 
z
M 742 3347 
L 742 -480 
L 1197 -480 
L 1197 902 
L 2618 902 
L 2618 45 
C 2618 -38 2592 -64 2502 -64 
C 2419 -70 2125 -70 1798 -58 
C 1862 -179 1933 -365 1965 -486 
C 2394 -486 2682 -480 2854 -403 
C 3034 -333 3085 -205 3085 38 
L 3085 3347 
L 742 3347 
z
" transform="scale(0.015625)"/>
      <path id="NotoSansCJKjp-Regular-9d9f" d="M 358 4947 
C 749 4640 1184 4186 1370 3866 
L 1760 4166 
C 1568 4480 1114 4922 723 5216 
L 358 4947 
z
M 1574 2848 
L 294 2848 
L 294 2400 
L 1107 2400 
L 1107 742 
C 819 474 499 205 230 13 
L 480 -461 
C 794 -179 1088 96 1370 371 
C 1773 -134 2355 -358 3200 -390 
C 3917 -416 5286 -403 6003 -378 
C 6022 -230 6099 -13 6157 96 
C 5382 45 3904 26 3194 58 
C 2438 90 1875 307 1574 781 
L 1574 2848 
z
M 2995 5363 
C 2675 4550 2125 3782 1498 3296 
C 1606 3206 1792 3021 1869 2925 
C 2061 3091 2253 3290 2432 3501 
L 2432 691 
L 6016 691 
L 6016 1107 
L 4480 1107 
L 4480 1805 
L 5734 1805 
L 5734 2208 
L 4480 2208 
L 4480 2886 
L 5747 2886 
L 5747 3290 
L 4480 3290 
L 4480 3955 
L 5914 3955 
L 5914 4378 
L 4544 4378 
C 4678 4634 4819 4928 4941 5203 
L 4429 5312 
C 4352 5037 4205 4678 4070 4378 
L 3053 4378 
C 3213 4646 3354 4934 3475 5222 
L 2995 5363 
z
M 2899 2886 
L 4019 2886 
L 4019 2208 
L 2899 2208 
L 2899 2886 
z
M 2899 3290 
L 2899 3955 
L 4019 3955 
L 4019 3290 
L 2899 3290 
z
M 2899 1805 
L 4019 1805 
L 4019 1107 
L 2899 1107 
L 2899 1805 
z
" transform="scale(0.015625)"/>
      <path id="NotoSansCJKjp-Regular-2e3b" d="M 4096 1510 
C 4371 1197 4672 813 4928 442 
L 2016 314 
C 2336 883 2682 1619 2963 2240 
L 6086 2240 
L 6086 2720 
L 3437 2720 
L 3437 3930 
L 5613 3930 
L 5613 4410 
L 3437 4410 
L 3437 5382 
L 2931 5382 
L 2931 4410 
L 832 4410 
L 832 3930 
L 2931 3930 
L 2931 2720 
L 339 2720 
L 339 2240 
L 2349 2240 
C 2125 1626 1779 851 1466 294 
L 563 262 
L 634 -243 
C 1798 -198 3565 -109 5235 -13 
C 5363 -218 5472 -403 5549 -563 
L 6022 -314 
C 5734 256 5114 1094 4538 1722 
L 4096 1510 
z
" transform="scale(0.015625)"/>
      <path id="NotoSansCJKjp-Regular-580" d="M 4160 5414 
L 4160 1274 
L 4634 1274 
L 4634 4973 
L 6182 4973 
L 6182 5414 
L 4160 5414 
z
" transform="scale(0.015625)"/>
      <path id="NotoSansCJKjp-Regular-4ad8" d="M 1152 5370 
L 1152 4083 
L 282 4083 
L 282 3635 
L 1152 3635 
L 1152 2240 
L 173 1971 
L 288 1504 
L 1152 1766 
L 1152 70 
C 1152 -19 1120 -51 1037 -51 
C 954 -51 691 -51 397 -45 
C 461 -179 525 -384 544 -506 
C 966 -512 1222 -493 1389 -416 
C 1555 -339 1613 -198 1613 77 
L 1613 1914 
L 2176 2086 
L 2176 1722 
L 3123 1722 
C 2938 1331 2752 954 2592 672 
L 3014 531 
L 3110 704 
C 3373 621 3648 518 3923 403 
C 3475 134 2854 -26 2016 -109 
C 2093 -205 2170 -378 2208 -506 
C 3187 -378 3898 -160 4397 198 
C 4915 -32 5382 -288 5690 -518 
L 5990 -154 
C 5690 64 5242 301 4755 518 
C 5043 832 5229 1229 5344 1722 
L 6112 1722 
L 6112 2144 
L 3827 2144 
L 4115 2771 
L 6138 2771 
L 6138 3194 
L 4966 3194 
C 5101 3482 5248 3885 5376 4250 
L 5184 4275 
L 5952 4275 
L 5952 4698 
L 4397 4698 
L 4397 5376 
L 3917 5376 
L 3917 4698 
L 2394 4698 
L 2394 4275 
L 3290 4275 
L 3002 4218 
C 3123 3898 3226 3475 3258 3194 
L 2138 3194 
L 2138 2771 
L 3597 2771 
L 3322 2144 
L 2291 2144 
L 2234 2554 
L 1613 2374 
L 1613 3635 
L 2234 3635 
L 2234 4083 
L 1613 4083 
L 1613 5370 
L 1152 5370 
z
M 3430 4275 
L 4890 4275 
C 4806 3955 4659 3507 4538 3219 
L 4685 3194 
L 3526 3194 
L 3706 3238 
C 3680 3501 3558 3936 3430 4275 
z
M 3622 1722 
L 4858 1722 
C 4749 1306 4576 966 4314 704 
C 3968 845 3622 966 3296 1062 
L 3622 1722 
z
" transform="scale(0.015625)"/>
      <path id="NotoSansCJKjp-Regular-581" d="M 2240 -550 
L 2240 3590 
L 1766 3590 
L 1766 -109 
L 218 -109 
L 218 -550 
L 2240 -550 
z
" transform="scale(0.015625)"/>
     </defs>
     <use xlink:href="#NotoSansCJKjp-Regular-9c9b"/>
     <use xlink:href="#NotoSansCJKjp-Regular-aaab" transform="translate(100 0)"/>
     <use xlink:href="#NotoSansCJKjp-Regular-2be5" transform="translate(200 0)"/>
     <use xlink:href="#NotoSansCJKjp-Regular-9d9f" transform="translate(300 0)"/>
     <use xlink:href="#NotoSansCJKjp-Regular-2e3b" transform="translate(400 0)"/>
     <use xlink:href="#NotoSansCJKjp-Regular-580" transform="translate(500 0)"/>
     <use xlink:href="#NotoSansCJKjp-Regular-4ad8" transform="translate(600 0)"/>
     <use xlink:href="#NotoSansCJKjp-Regular-581" transform="translate(700 0)"/>
     <use xlink:href="#NotoSansCJKjp-Regular-5ae7" transform="translate(800 0)"/>
    </g>
    <!-- 單位時間多遇波前 $\to$ 頻率變高（藍移） -->
    <g style="fill: #1a7f37" transform="translate(224.928 221.856) scale(0.1 -0.1)">
     <defs>
      <path id="NotoSansCJKjp-Regular-3132" d="M 1280 4800 
L 2502 4800 
L 2502 4198 
L 1280 4198 
L 1280 4800 
z
M 845 5126 
L 845 3878 
L 2957 3878 
L 2957 5126 
L 845 5126 
z
M 3904 4800 
L 5152 4800 
L 5152 4198 
L 3904 4198 
L 3904 4800 
z
M 3475 5126 
L 3475 3878 
L 5606 3878 
L 5606 5126 
L 3475 5126 
z
M 1485 2253 
L 2931 2253 
L 2931 1696 
L 1485 1696 
L 1485 2253 
z
M 3430 2253 
L 4966 2253 
L 4966 1696 
L 3430 1696 
L 3430 2253 
z
M 1485 3168 
L 2931 3168 
L 2931 2618 
L 1485 2618 
L 1485 3168 
z
M 3430 3168 
L 4966 3168 
L 4966 2618 
L 3430 2618 
L 3430 3168 
z
M 371 819 
L 371 390 
L 2931 390 
L 2931 -512 
L 3430 -512 
L 3430 390 
L 6048 390 
L 6048 819 
L 3430 819 
L 3430 1306 
L 5453 1306 
L 5453 3552 
L 1011 3552 
L 1011 1306 
L 2931 1306 
L 2931 819 
L 371 819 
z
" transform="scale(0.015625)"/>
      <path id="NotoSansCJKjp-Regular-26e3" d="M 2630 3155 
C 2867 2304 3066 1190 3110 544 
L 3578 646 
C 3526 1280 3302 2381 3059 3232 
L 2630 3155 
z
M 2106 4115 
L 2106 3661 
L 6016 3661 
L 6016 4115 
L 4250 4115 
L 4250 5299 
L 3770 5299 
L 3770 4115 
L 2106 4115 
z
M 1946 243 
L 1946 -211 
L 6176 -211 
L 6176 243 
L 4634 243 
C 4928 1043 5261 2246 5485 3194 
L 4966 3283 
C 4800 2362 4461 1056 4166 243 
L 1946 243 
z
M 1773 5357 
C 1395 4390 774 3443 128 2835 
C 211 2720 352 2470 397 2355 
C 640 2598 877 2880 1107 3194 
L 1107 -493 
L 1568 -493 
L 1568 3891 
C 1818 4314 2048 4762 2227 5216 
L 1773 5357 
z
" transform="scale(0.015625)"/>
      <path id="NotoSansCJKjp-Regular-4f87" d="M 2848 1338 
C 3174 998 3520 525 3661 211 
L 4070 461 
C 3923 781 3558 1235 3232 1562 
L 2848 1338 
z
M 4038 5382 
L 4038 4614 
L 2694 4614 
L 2694 4186 
L 4038 4186 
L 4038 3373 
L 2426 3373 
L 2426 2938 
L 4883 2938 
L 4883 2214 
L 2458 2214 
L 2458 1786 
L 4883 1786 
L 4883 64 
C 4883 -32 4851 -58 4749 -58 
C 4646 -64 4282 -64 3891 -51 
C 3962 -186 4032 -378 4051 -506 
C 4570 -506 4890 -499 5094 -422 
C 5293 -352 5357 -218 5357 58 
L 5357 1786 
L 6106 1786 
L 6106 2214 
L 5357 2214 
L 5357 2938 
L 6170 2938 
L 6170 3373 
L 4512 3373 
L 4512 4186 
L 5901 4186 
L 5901 4614 
L 4512 4614 
L 4512 5382 
L 4038 5382 
z
M 1862 2662 
L 1862 1184 
L 934 1184 
L 934 2662 
L 1862 2662 
z
M 1862 3098 
L 934 3098 
L 934 4518 
L 1862 4518 
L 1862 3098 
z
M 486 4960 
L 486 224 
L 934 224 
L 934 749 
L 2317 749 
L 2317 4960 
L 486 4960 
z
" transform="scale(0.015625)"/>
      <path id="NotoSansCJKjp-Regular-36e1" d="M 2899 5389 
C 2458 4845 1619 4243 461 3840 
C 570 3763 723 3597 794 3482 
C 1120 3610 1427 3757 1709 3910 
C 2106 3706 2554 3424 2835 3187 
C 2086 2778 1222 2483 416 2336 
C 499 2227 602 2035 640 1907 
C 2336 2278 4224 3181 5056 4672 
L 4749 4858 
L 4666 4838 
L 3014 4838 
C 3174 4979 3315 5126 3443 5274 
L 2899 5389 
z
M 3251 3437 
C 2989 3661 2528 3942 2118 4154 
C 2259 4243 2394 4333 2522 4429 
L 4352 4429 
C 4070 4058 3686 3725 3251 3437 
z
M 3936 3194 
C 3443 2586 2464 1920 1114 1498 
C 1216 1414 1350 1242 1408 1126 
C 1798 1267 2157 1421 2490 1587 
C 2925 1344 3418 998 3712 723 
C 2893 288 1901 32 896 -90 
C 979 -198 1069 -390 1107 -525 
C 3194 -224 5190 582 6003 2445 
L 5690 2618 
L 5600 2598 
L 4006 2598 
C 4179 2752 4333 2912 4474 3072 
L 3936 3194 
z
M 4147 973 
C 3853 1242 3360 1574 2925 1818 
C 3123 1933 3309 2054 3488 2182 
L 5325 2182 
C 5043 1696 4634 1293 4147 973 
z
" transform="scale(0.015625)"/>
      <path id="NotoSansCJKjp-Regular-9dd4" d="M 358 4979 
C 749 4672 1184 4218 1370 3898 
L 1760 4198 
C 1568 4518 1114 4954 723 5248 
L 358 4979 
z
M 1574 2861 
L 294 2861 
L 294 2413 
L 1107 2413 
L 1107 742 
C 819 474 499 205 230 13 
L 480 -461 
C 794 -179 1088 96 1370 371 
C 1773 -134 2355 -358 3200 -390 
C 3917 -416 5286 -403 6003 -378 
C 6022 -230 6099 -13 6157 96 
C 5382 45 3904 26 3194 58 
C 2438 90 1875 307 1574 781 
L 1574 2861 
z
M 2778 1504 
L 2822 1107 
L 4832 1261 
C 4864 1158 4890 1056 4909 973 
L 5229 1062 
C 5171 1338 4986 1786 4806 2112 
L 4499 2042 
C 4570 1907 4640 1760 4698 1613 
L 4128 1581 
L 4128 2285 
L 5414 2285 
L 5414 781 
C 5414 717 5395 698 5312 691 
C 5229 685 4966 685 4659 698 
C 4717 595 4774 454 4800 346 
C 5216 346 5491 346 5651 410 
C 5824 467 5869 570 5869 787 
L 5869 2682 
L 4154 2682 
L 4154 3085 
L 5555 3085 
L 5555 5165 
L 2387 5165 
L 2387 3085 
L 3725 3085 
L 3725 2682 
L 2131 2682 
L 2131 435 
L 2573 435 
L 2573 2285 
L 3712 2285 
L 3712 1555 
L 2778 1504 
z
M 2810 3962 
L 3725 3962 
L 3725 3443 
L 2810 3443 
L 2810 3962 
z
M 4154 3962 
L 5114 3962 
L 5114 3443 
L 4154 3443 
L 4154 3962 
z
M 2810 4819 
L 3725 4819 
L 3725 4301 
L 2810 4301 
L 2810 4819 
z
M 4154 4819 
L 5114 4819 
L 5114 4301 
L 4154 4301 
L 4154 4819 
z
" transform="scale(0.015625)"/>
      <path id="NotoSansCJKjp-Regular-1" transform="scale(0.015625)"/>
      <path id="Cmsy10-c" d="M 481 1472 
Q 428 1472 393 1512 
Q 359 1553 359 1600 
Q 359 1647 393 1687 
Q 428 1728 481 1728 
L 5338 1728 
Q 5094 1903 4906 2133 
Q 4719 2363 4594 2627 
Q 4469 2891 4416 3188 
Q 4416 3272 4481 3272 
L 4609 3272 
Q 4631 3272 4648 3253 
Q 4666 3234 4672 3213 
Q 4725 2938 4839 2702 
Q 4953 2466 5125 2262 
Q 5297 2059 5509 1912 
Q 5722 1766 5991 1672 
Q 6034 1644 6034 1600 
Q 6034 1550 5991 1538 
Q 5656 1422 5378 1192 
Q 5100 963 4919 652 
Q 4738 341 4672 -13 
Q 4666 -34 4647 -53 
Q 4628 -72 4609 -72 
L 4481 -72 
Q 4416 -72 4416 13 
Q 4497 450 4740 836 
Q 4984 1222 5338 1472 
L 481 1472 
z
" transform="scale(0.015625)"/>
      <path id="NotoSansCJKjp-Regular-ac12" d="M 826 2752 
C 704 2298 493 1830 230 1523 
C 333 1472 525 1370 608 1299 
C 864 1638 1107 2157 1248 2656 
L 826 2752 
z
M 3821 2688 
L 5523 2688 
L 5523 2067 
L 3821 2067 
L 3821 2688 
z
M 3821 1709 
L 5523 1709 
L 5523 1082 
L 3821 1082 
L 3821 1709 
z
M 3821 3667 
L 5523 3667 
L 5523 3053 
L 3821 3053 
L 3821 3667 
z
M 3974 595 
C 3725 314 3206 -26 2746 -211 
C 2848 -301 2995 -435 3072 -525 
C 3526 -333 4070 19 4390 346 
L 3974 595 
z
M 4870 326 
C 5222 77 5658 -288 5869 -518 
L 6246 -256 
C 6022 -19 5581 326 5229 563 
L 4870 326 
z
M 717 4870 
L 717 3450 
L 262 3450 
L 262 3014 
L 1638 3014 
L 1638 1472 
C 1638 1408 1619 1395 1562 1395 
C 1498 1382 1306 1389 1088 1395 
C 1139 1280 1190 1120 1203 998 
C 1530 998 1741 1005 1888 1069 
C 2035 1133 2067 1248 2067 1466 
L 2067 3014 
L 3251 3014 
L 3251 3450 
L 2067 3450 
L 2067 4160 
L 3085 4160 
L 3085 4576 
L 2067 4576 
L 2067 5344 
L 1638 5344 
L 1638 3450 
L 1114 3450 
L 1114 4870 
L 717 4870 
z
M 2419 2643 
C 2611 2336 2790 1939 2874 1658 
L 2592 1747 
C 2253 774 1498 160 339 -147 
C 442 -250 563 -410 608 -538 
C 1843 -154 2637 531 3008 1619 
L 2982 1626 
L 3290 1747 
C 3206 2022 2995 2451 2790 2771 
L 2419 2643 
z
M 3398 4045 
L 3398 704 
L 5958 704 
L 5958 4045 
L 4723 4045 
L 4902 4659 
L 6106 4659 
L 6106 5075 
L 3194 5075 
L 3194 4659 
L 4403 4659 
C 4371 4461 4326 4237 4282 4045 
L 3398 4045 
z
" transform="scale(0.015625)"/>
      <path id="NotoSansCJKjp-Regular-66cd" d="M 5376 4038 
C 5139 3782 4704 3437 4384 3226 
L 4736 3014 
C 5056 3226 5472 3520 5798 3821 
L 5376 4038 
z
M 320 1997 
L 557 1613 
C 986 1798 1517 2048 2022 2291 
L 1933 2656 
C 1338 2406 730 2150 320 1997 
z
M 544 3680 
C 902 3482 1344 3174 1555 2957 
L 1888 3258 
C 1670 3469 1222 3757 864 3949 
L 544 3680 
z
M 4262 2458 
C 4768 2202 5408 1811 5715 1542 
L 6067 1850 
C 5734 2112 5094 2490 4595 2733 
L 4262 2458 
z
M 3526 2707 
C 3654 2566 3782 2400 3904 2227 
L 2810 2176 
C 3264 2618 3763 3168 4147 3642 
L 3770 3827 
C 3590 3571 3347 3270 3091 2976 
C 2957 3098 2784 3226 2598 3347 
C 2810 3578 3046 3878 3251 4154 
L 3110 4211 
L 5882 4211 
L 5882 4659 
L 3424 4659 
L 3424 5376 
L 2938 5376 
L 2938 4659 
L 538 4659 
L 538 4211 
L 2771 4211 
C 2643 4000 2470 3750 2310 3546 
L 2131 3654 
L 1894 3373 
C 2202 3174 2579 2906 2822 2682 
C 2650 2490 2470 2310 2304 2150 
L 1811 2131 
L 1882 1715 
L 4128 1882 
C 4211 1747 4275 1626 4320 1517 
L 4691 1709 
C 4550 2035 4192 2515 3872 2874 
L 3526 2707 
z
M 346 1222 
L 346 774 
L 2938 774 
L 2938 -531 
L 3424 -531 
L 3424 774 
L 6061 774 
L 6061 1222 
L 3424 1222 
L 3424 1722 
L 2938 1722 
L 2938 1222 
L 346 1222 
z
" transform="scale(0.015625)"/>
      <path id="NotoSansCJKjp-Regular-b0d5" d="M 1939 3635 
L 4448 3635 
L 4448 3021 
L 1939 3021 
L 1939 3635 
z
M 1478 3987 
L 1478 2662 
L 4928 2662 
L 4928 3987 
L 1478 3987 
z
M 2918 5382 
L 2918 4768 
L 416 4768 
L 416 4346 
L 5978 4346 
L 5978 4768 
L 3411 4768 
L 3411 5382 
L 2918 5382 
z
M 704 2266 
L 704 -512 
L 1171 -512 
L 1171 1856 
L 5261 1856 
L 5261 70 
C 5261 -19 5235 -45 5120 -51 
C 5018 -58 4653 -58 4237 -45 
C 4301 -179 4371 -365 4390 -499 
C 4922 -499 5267 -499 5478 -422 
C 5683 -346 5741 -205 5741 64 
L 5741 2266 
L 704 2266 
z
M 2406 1088 
L 3994 1088 
L 3994 435 
L 2406 435 
L 2406 1088 
z
M 1984 1440 
L 1984 -243 
L 2406 -243 
L 2406 83 
L 4422 83 
L 4422 1440 
L 1984 1440 
z
" transform="scale(0.015625)"/>
      <path id="NotoSansCJKjp-Regular-8ab9" d="M 3731 2310 
L 3731 1920 
L 5837 1920 
L 5837 2310 
L 3731 2310 
z
M 4026 5376 
L 4026 4960 
L 2349 4960 
L 2349 5376 
L 1875 5376 
L 1875 4960 
L 365 4960 
L 365 4544 
L 1875 4544 
L 1875 4166 
L 2349 4166 
L 2349 4544 
L 4026 4544 
L 4026 4166 
L 4499 4166 
L 4499 4544 
L 6061 4544 
L 6061 4960 
L 4499 4960 
L 4499 5376 
L 4026 5376 
z
M 3981 4141 
C 3814 3603 3520 3078 3155 2733 
C 3264 2675 3456 2541 3533 2470 
C 3699 2650 3866 2880 4013 3130 
L 5984 3130 
L 5984 3526 
L 4218 3526 
C 4294 3693 4365 3866 4422 4045 
L 3981 4141 
z
M 1798 3392 
L 1062 3392 
L 1062 3744 
L 1798 3744 
L 1798 3392 
z
M 3264 4064 
L 659 4064 
L 659 1690 
L 3315 1690 
L 3315 2010 
L 2214 2010 
L 2214 2374 
L 3110 2374 
L 3110 3392 
L 2214 3392 
L 2214 3744 
L 3264 3744 
L 3264 4064 
z
M 1798 2374 
L 1798 2010 
L 1062 2010 
L 1062 2374 
L 1798 2374 
z
M 1030 1408 
L 1030 90 
L 339 90 
L 339 -314 
L 6080 -314 
L 6080 90 
L 5459 90 
L 5459 1408 
L 1030 1408 
z
M 1478 90 
L 1478 1037 
L 2362 1037 
L 2362 90 
L 1478 90 
z
M 2778 90 
L 2778 1037 
L 3674 1037 
L 3674 90 
L 2778 90 
z
M 4083 90 
L 4083 1037 
L 4986 1037 
L 4986 90 
L 4083 90 
z
M 1062 3091 
L 2714 3091 
L 2714 2669 
L 1062 2669 
L 1062 3091 
z
" transform="scale(0.015625)"/>
      <path id="NotoSansCJKjp-Regular-71ef" d="M 3910 4416 
L 5197 4416 
C 5024 4083 4774 3795 4486 3546 
C 4275 3750 3949 3994 3654 4179 
L 3910 4416 
z
M 4109 5376 
C 3827 4883 3277 4307 2477 3910 
C 2573 3834 2720 3680 2784 3578 
C 2982 3686 3168 3808 3341 3930 
C 3629 3750 3949 3494 4154 3290 
C 3686 2970 3136 2739 2586 2605 
C 2675 2515 2790 2336 2835 2221 
C 4122 2586 5325 3347 5824 4691 
L 5523 4838 
L 5434 4819 
L 4269 4819 
C 4390 4973 4499 5126 4589 5286 
L 4109 5376 
z
M 4211 1952 
L 5536 1952 
C 5350 1555 5088 1222 4768 941 
C 4531 1165 4166 1427 3840 1626 
C 3974 1728 4096 1837 4211 1952 
z
M 4454 2963 
C 4141 2400 3501 1760 2560 1325 
C 2656 1254 2797 1094 2861 992 
C 3085 1107 3296 1229 3488 1363 
C 3821 1165 4173 890 4410 659 
C 3846 282 3168 32 2451 -102 
C 2541 -205 2650 -397 2694 -512 
C 4243 -166 5613 621 6157 2246 
L 5850 2381 
L 5760 2362 
L 4576 2362 
C 4717 2534 4832 2707 4934 2880 
L 4454 2963 
z
M 2310 5286 
C 1837 5069 992 4883 275 4762 
C 333 4659 397 4499 416 4397 
C 717 4435 1037 4493 1357 4557 
L 1357 3571 
L 314 3571 
L 314 3123 
L 1293 3123 
C 1037 2387 595 1555 179 1101 
C 262 986 378 794 429 659 
C 755 1056 1094 1690 1357 2336 
L 1357 -499 
L 1830 -499 
L 1830 2259 
C 2048 1990 2304 1645 2413 1466 
L 2701 1843 
C 2573 1990 2016 2566 1830 2726 
L 1830 3123 
L 2630 3123 
L 2630 3571 
L 1830 3571 
L 1830 4666 
C 2131 4736 2413 4819 2643 4915 
L 2310 5286 
z
" transform="scale(0.015625)"/>
     </defs>
     <use xlink:href="#NotoSansCJKjp-Regular-3132" transform="translate(0 0.40625)"/>
     <use xlink:href="#NotoSansCJKjp-Regular-26e3" transform="translate(99.999908 0.40625)"/>
     <use xlink:href="#NotoSansCJKjp-Regular-4f87" transform="translate(199.999817 0.40625)"/>
     <use xlink:href="#NotoSansCJKjp-Regular-a774" transform="translate(299.999725 0.40625)"/>
     <use xlink:href="#NotoSansCJKjp-Regular-36e1" transform="translate(399.999634 0.40625)"/>
     <use xlink:href="#NotoSansCJKjp-Regular-9dd4" transform="translate(499.999542 0.40625)"/>
     <use xlink:href="#NotoSansCJKjp-Regular-5ae7" transform="translate(599.999451 0.40625)"/>
     <use xlink:href="#NotoSansCJKjp-Regular-2be5" transform="translate(699.999359 0.40625)"/>
     <use xlink:href="#NotoSansCJKjp-Regular-1" transform="translate(799.999268 0.40625)"/>
     <use xlink:href="#Cmsy10-c" transform="translate(842.399303 0.40625)"/>
     <use xlink:href="#NotoSansCJKjp-Regular-1" transform="translate(962.399361 0.40625)"/>
     <use xlink:href="#NotoSansCJKjp-Regular-ac12" transform="translate(984.799339 0.40625)"/>
     <use xlink:href="#NotoSansCJKjp-Regular-66cd" transform="translate(1084.799248 0.40625)"/>
     <use xlink:href="#NotoSansCJKjp-Regular-95ec" transform="translate(1184.799156 0.40625)"/>
     <use xlink:href="#NotoSansCJKjp-Regular-b0d5" transform="translate(1284.799065 0.40625)"/>
     <use xlink:href="#NotoSansCJKjp-Regular-e6ae" transform="translate(1384.798973 0.40625)"/>
     <use xlink:href="#NotoSansCJKjp-Regular-8ab9" transform="translate(1484.798882 0.40625)"/>
     <use xlink:href="#NotoSansCJKjp-Regular-71ef" transform="translate(1584.79879 0.40625)"/>
     <use xlink:href="#NotoSansCJKjp-Regular-e6af" transform="translate(1684.798698 0.40625)"/>
    </g>
   </g>
   <g id="text_4">
    <!-- 順向遠離、波前要追上他 -->
    <g style="fill: #bf8700" transform="translate(41.45 211.856) scale(0.1 -0.1)">
     <defs>
      <path id="NotoSansCJKjp-Regular-abc2" d="M 2323 5165 
L 2323 -288 
L 2726 -288 
L 2726 5165 
L 2323 5165 
z
M 1453 4691 
L 1453 410 
L 1818 410 
L 1818 4691 
L 1453 4691 
z
M 582 5146 
L 582 2560 
C 582 1517 538 576 166 -211 
C 269 -275 422 -410 493 -493 
C 934 371 979 1389 979 2560 
L 979 5146 
L 582 5146 
z
M 3667 2694 
L 5434 2694 
L 5434 2067 
L 3667 2067 
L 3667 2694 
z
M 3667 1715 
L 5434 1715 
L 5434 1075 
L 3667 1075 
L 3667 1715 
z
M 3667 3674 
L 5434 3674 
L 5434 3053 
L 3667 3053 
L 3667 3674 
z
M 3904 570 
C 3661 301 3168 -19 2739 -211 
C 2842 -294 2976 -429 3046 -525 
C 3475 -333 3987 6 4314 326 
L 3904 570 
z
M 4806 320 
C 5178 70 5645 -282 5862 -518 
L 6234 -250 
C 5997 -13 5523 326 5165 557 
L 4806 320 
z
M 3226 4045 
L 3226 704 
L 5894 704 
L 5894 4045 
L 4646 4045 
L 4838 4653 
L 6067 4653 
L 6067 5075 
L 3021 5075 
L 3021 4653 
L 4320 4653 
C 4288 4454 4237 4237 4192 4045 
L 3226 4045 
z
" transform="scale(0.015625)"/>
      <path id="NotoSansCJKjp-Regular-2eb8" d="M 2803 5389 
C 2714 5062 2554 4614 2394 4269 
L 634 4269 
L 634 -512 
L 1107 -512 
L 1107 3802 
L 5325 3802 
L 5325 128 
C 5325 13 5286 -26 5158 -26 
C 5024 -32 4582 -38 4122 -13 
C 4192 -154 4262 -378 4288 -512 
C 4877 -512 5274 -506 5504 -429 
C 5728 -346 5805 -192 5805 128 
L 5805 4269 
L 2925 4269 
C 3085 4576 3258 4947 3398 5293 
L 2803 5389 
z
M 2387 2522 
L 4006 2522 
L 4006 1267 
L 2387 1267 
L 2387 2522 
z
M 1946 2950 
L 1946 371 
L 2387 371 
L 2387 832 
L 4454 832 
L 4454 2950 
L 1946 2950 
z
" transform="scale(0.015625)"/>
      <path id="NotoSansCJKjp-Regular-9e1c" d="M 358 4947 
C 749 4640 1184 4186 1370 3866 
L 1760 4166 
C 1568 4480 1114 4922 723 5216 
L 358 4947 
z
M 2861 2995 
L 5005 2995 
L 5005 2355 
L 2861 2355 
L 2861 2995 
z
M 1574 2848 
L 294 2848 
L 294 2400 
L 1107 2400 
L 1107 742 
C 819 474 499 205 230 13 
L 480 -461 
C 794 -179 1088 96 1370 371 
C 1773 -134 2355 -358 3200 -390 
C 3917 -416 5286 -403 6003 -378 
C 6022 -230 6099 -13 6157 96 
C 5382 45 3904 26 3194 58 
C 2438 90 1875 307 1574 781 
L 1574 2848 
z
M 5562 2112 
L 5466 2029 
L 5466 3347 
L 2413 3347 
L 2413 2003 
L 3501 2003 
C 3104 1568 2470 1222 1856 992 
C 1946 902 2086 710 2144 621 
C 2682 851 3232 1184 3667 1587 
L 3667 320 
L 4128 320 
L 4128 1440 
C 4544 986 5126 627 5760 442 
C 5818 563 5933 723 6035 806 
C 5651 902 5280 1056 4960 1254 
C 5267 1421 5632 1658 5926 1882 
L 5562 2112 
z
M 5434 2003 
C 5216 1824 4922 1613 4672 1453 
C 4461 1619 4282 1805 4147 2003 
L 5434 2003 
z
M 3680 5370 
L 3680 4883 
L 2234 4883 
L 2234 4518 
L 3680 4518 
L 3680 4064 
L 1882 4064 
L 1882 3693 
L 6010 3693 
L 6010 4064 
L 4147 4064 
L 4147 4518 
L 5626 4518 
L 5626 4883 
L 4147 4883 
L 4147 5370 
L 3680 5370 
z
" transform="scale(0.015625)"/>
      <path id="NotoSansCJKjp-Regular-a995" d="M 1587 5376 
L 1587 4826 
L 275 4826 
L 275 4429 
L 3373 4429 
L 3373 4826 
L 2054 4826 
L 2054 5376 
L 1587 5376 
z
M 5203 5312 
C 5126 4973 4979 4499 4838 4154 
L 4147 4154 
C 4288 4512 4416 4896 4518 5274 
L 4083 5376 
C 3859 4493 3501 3603 3066 3002 
L 3066 4166 
L 2688 4166 
L 2688 2739 
L 934 2739 
L 934 4166 
L 582 4166 
L 582 2387 
L 1587 2387 
L 1530 1958 
L 403 1958 
L 403 -518 
L 806 -518 
L 806 1587 
L 1466 1587 
C 1414 1286 1350 986 1293 742 
L 960 730 
L 998 378 
L 2342 480 
C 2381 371 2406 269 2426 179 
L 2720 282 
C 2675 557 2496 998 2310 1331 
L 2029 1248 
C 2099 1107 2170 954 2234 800 
L 1645 762 
C 1715 1005 1779 1293 1843 1587 
L 2822 1587 
L 2822 -45 
C 2822 -115 2803 -128 2726 -134 
C 2650 -141 2400 -141 2118 -134 
C 2170 -237 2234 -397 2253 -506 
C 2637 -506 2880 -506 3040 -442 
C 3194 -371 3238 -256 3238 -51 
L 3238 1958 
L 1920 1958 
L 2003 2387 
L 3066 2387 
L 3066 2912 
C 3168 2835 3315 2714 3379 2650 
C 3475 2784 3571 2938 3661 3098 
L 3661 -518 
L 4102 -518 
L 4102 -179 
L 6157 -179 
L 6157 262 
L 5261 262 
L 5261 1152 
L 6035 1152 
L 6035 1568 
L 5261 1568 
L 5261 2445 
L 6035 2445 
L 6035 2854 
L 5261 2854 
L 5261 3718 
L 6093 3718 
L 6093 4154 
L 5267 4154 
C 5402 4467 5542 4858 5664 5203 
L 5203 5312 
z
M 2099 4262 
C 2022 4090 1926 3917 1818 3763 
C 1645 3872 1472 3974 1306 4058 
L 1107 3834 
C 1274 3744 1453 3635 1619 3520 
C 1446 3315 1248 3142 1037 2995 
C 1120 2944 1254 2835 1306 2771 
C 1510 2925 1709 3110 1888 3328 
C 2080 3187 2246 3046 2362 2925 
L 2573 3181 
C 2458 3302 2285 3437 2086 3578 
C 2221 3770 2342 3968 2438 4179 
L 2099 4262 
z
M 4102 2445 
L 4845 2445 
L 4845 1568 
L 4102 1568 
L 4102 2445 
z
M 4102 2854 
L 4102 3718 
L 4845 3718 
L 4845 2854 
L 4102 2854 
z
M 4102 1152 
L 4845 1152 
L 4845 262 
L 4102 262 
L 4102 1152 
z
" transform="scale(0.015625)"/>
      <path id="NotoSansCJKjp-Regular-575" d="M 1747 -358 
L 2182 13 
C 1786 480 1210 1062 749 1434 
L 333 1069 
C 787 698 1338 147 1747 -358 
z
" transform="scale(0.015625)"/>
      <path id="NotoSansCJKjp-Regular-91d0" d="M 762 4128 
L 762 2470 
L 2458 2470 
L 2074 1882 
L 294 1882 
L 294 1478 
L 1792 1478 
C 1549 1133 1306 800 1107 550 
L 1562 390 
L 1696 563 
C 2086 486 2470 403 2848 314 
C 2214 90 1395 -32 378 -83 
C 461 -192 538 -371 570 -506 
C 1837 -416 2816 -224 3546 141 
C 4358 -70 5082 -307 5626 -525 
L 5920 -134 
C 5421 58 4768 262 4038 454 
C 4384 723 4653 1056 4838 1478 
L 6112 1478 
L 6112 1882 
L 2624 1882 
L 2982 2426 
L 2810 2470 
L 5683 2470 
L 5683 4128 
L 4141 4128 
L 4141 4672 
L 5952 4672 
L 5952 5101 
L 442 5101 
L 442 4672 
L 2189 4672 
L 2189 4128 
L 762 4128 
z
M 2355 1478 
L 4307 1478 
C 4102 1114 3821 819 3450 595 
C 2963 710 2458 819 1952 915 
L 2355 1478 
z
M 2643 4672 
L 3686 4672 
L 3686 4128 
L 2643 4128 
L 2643 4672 
z
M 1216 3731 
L 2189 3731 
L 2189 2861 
L 1216 2861 
L 1216 3731 
z
M 2643 3731 
L 3686 3731 
L 3686 2861 
L 2643 2861 
L 2643 3731 
z
M 4141 3731 
L 5210 3731 
L 5210 2861 
L 4141 2861 
L 4141 3731 
z
" transform="scale(0.015625)"/>
      <path id="NotoSansCJKjp-Regular-9d11" d="M 384 4934 
C 794 4646 1274 4218 1478 3904 
L 1862 4224 
C 1632 4531 1152 4947 730 5222 
L 384 4934 
z
M 1677 2848 
L 314 2848 
L 314 2400 
L 1210 2400 
L 1210 768 
C 890 499 518 230 230 32 
L 480 -461 
C 826 -173 1152 102 1459 378 
C 1869 -128 2445 -358 3283 -390 
C 3994 -416 5318 -403 6016 -371 
C 6035 -224 6118 6 6176 115 
C 5414 64 3981 45 3283 77 
C 2541 102 1978 326 1677 794 
L 1677 2848 
z
M 2387 4710 
L 2387 602 
L 5715 602 
L 5715 2419 
L 2861 2419 
L 2861 3027 
L 5459 3027 
L 5459 4710 
L 3968 4710 
L 4218 5306 
L 3667 5395 
C 3622 5197 3546 4934 3462 4710 
L 2387 4710 
z
M 2861 4301 
L 4992 4301 
L 4992 3437 
L 2861 3437 
L 2861 4301 
z
M 2861 2010 
L 5248 2010 
L 5248 1011 
L 2861 1011 
L 2861 2010 
z
" transform="scale(0.015625)"/>
      <path id="NotoSansCJKjp-Regular-2515" d="M 2733 5280 
L 2733 275 
L 326 275 
L 326 -205 
L 6080 -205 
L 6080 275 
L 3238 275 
L 3238 2822 
L 5638 2822 
L 5638 3302 
L 3238 3302 
L 3238 5280 
L 2733 5280 
z
" transform="scale(0.015625)"/>
      <path id="NotoSansCJKjp-Regular-263d" d="M 2547 4736 
L 2547 3046 
L 1734 2733 
L 1920 2304 
L 2547 2547 
L 2547 461 
C 2547 -243 2771 -429 3546 -429 
C 3718 -429 5037 -429 5216 -429 
C 5926 -429 6086 -141 6163 749 
C 6022 781 5830 864 5715 941 
C 5664 186 5600 13 5203 13 
C 4922 13 3782 13 3558 13 
C 3104 13 3021 90 3021 461 
L 3021 2733 
L 3968 3104 
L 3968 915 
L 4422 915 
L 4422 3277 
L 5421 3667 
C 5414 2662 5402 1997 5357 1824 
C 5312 1658 5248 1632 5133 1632 
C 5056 1632 4819 1626 4646 1638 
C 4704 1523 4749 1331 4762 1190 
C 4960 1184 5235 1190 5414 1235 
C 5613 1286 5747 1408 5798 1702 
C 5856 1978 5875 2899 5875 4064 
L 5901 4147 
L 5568 4282 
L 5478 4211 
L 5421 4160 
L 4422 3776 
L 4422 5363 
L 3968 5363 
L 3968 3597 
L 3021 3232 
L 3021 4736 
L 2547 4736 
z
M 1702 5350 
C 1344 4378 749 3418 115 2797 
C 205 2688 339 2445 384 2336 
C 602 2566 819 2829 1024 3117 
L 1024 -499 
L 1498 -499 
L 1498 3859 
C 1747 4294 1971 4755 2150 5216 
L 1702 5350 
z
" transform="scale(0.015625)"/>
     </defs>
     <use xlink:href="#NotoSansCJKjp-Regular-abc2"/>
     <use xlink:href="#NotoSansCJKjp-Regular-2eb8" transform="translate(100 0)"/>
     <use xlink:href="#NotoSansCJKjp-Regular-9e1c" transform="translate(200 0)"/>
     <use xlink:href="#NotoSansCJKjp-Regular-a995" transform="translate(300 0)"/>
     <use xlink:href="#NotoSansCJKjp-Regular-575" transform="translate(400 0)"/>
     <use xlink:href="#NotoSansCJKjp-Regular-5ae7" transform="translate(500 0)"/>
     <use xlink:href="#NotoSansCJKjp-Regular-2be5" transform="translate(600 0)"/>
     <use xlink:href="#NotoSansCJKjp-Regular-91d0" transform="translate(700 0)"/>
     <use xlink:href="#NotoSansCJKjp-Regular-9d11" transform="translate(800 0)"/>
     <use xlink:href="#NotoSansCJKjp-Regular-2515" transform="translate(900 0)"/>
     <use xlink:href="#NotoSansCJKjp-Regular-263d" transform="translate(1000 0)"/>
    </g>
    <!-- 單位時間少遇波前 $\to$ 頻率變低（紅移） -->
    <g style="fill: #bf8700" transform="translate(7.2 221.856) scale(0.1 -0.1)">
     <defs>
      <path id="NotoSansCJKjp-Regular-3d7c" d="M 2950 5370 
L 2950 2125 
C 2950 2022 2918 1997 2810 1997 
C 2694 1997 2304 1990 1875 1997 
C 1952 1862 2029 1651 2054 1510 
C 2592 1510 2944 1517 3155 1600 
C 3373 1677 3443 1824 3443 2118 
L 3443 5370 
L 2950 5370 
z
M 4339 4403 
C 4890 3738 5478 2835 5696 2253 
L 6176 2515 
C 5933 3110 5331 3981 4774 4627 
L 4339 4403 
z
M 4762 2656 
C 4211 1011 2989 243 723 -51 
C 819 -179 928 -378 979 -525 
C 3354 -160 4659 698 5261 2502 
L 4762 2656 
z
M 1536 4563 
C 1299 3859 806 3002 243 2464 
C 371 2394 563 2266 672 2176 
C 1242 2758 1747 3661 2061 4435 
L 1536 4563 
z
" transform="scale(0.015625)"/>
      <path id="NotoSansCJKjp-Regular-26e5" d="M 2093 83 
L 2093 -346 
L 4819 -346 
L 4819 83 
L 2093 83 
z
M 1901 902 
L 2010 448 
C 2650 563 3501 730 4307 883 
L 4282 1312 
C 3776 1216 3264 1126 2803 1043 
L 2803 2694 
L 4211 2694 
C 4429 992 4896 -262 5619 -262 
C 6029 -262 6195 -26 6259 845 
C 6144 890 5978 992 5875 1094 
C 5850 467 5792 205 5658 205 
C 5267 205 4877 1222 4685 2694 
L 6138 2694 
L 6138 3136 
L 4634 3136 
C 4595 3565 4570 4019 4563 4493 
C 5037 4582 5472 4685 5837 4794 
L 5466 5165 
C 4819 4941 3686 4742 2669 4621 
L 2336 4730 
L 2336 966 
L 1901 902 
z
M 2803 4230 
C 3219 4282 3661 4339 4090 4410 
C 4102 3974 4128 3546 4166 3136 
L 2803 3136 
L 2803 4230 
z
M 1690 5350 
C 1331 4378 736 3418 102 2797 
C 192 2688 326 2438 371 2323 
C 595 2554 813 2822 1024 3117 
L 1024 -499 
L 1485 -499 
L 1485 3840 
C 1734 4282 1965 4749 2144 5216 
L 1690 5350 
z
" transform="scale(0.015625)"/>
      <path id="NotoSansCJKjp-Regular-785e" d="M 2278 1632 
C 2477 1216 2682 678 2758 320 
L 3174 474 
C 3098 826 2886 1357 2675 1766 
L 2278 1632 
z
M 685 1728 
C 602 1165 448 589 218 205 
C 326 154 531 58 627 -6 
C 851 403 1030 1030 1133 1645 
L 685 1728 
z
M 2682 179 
L 2682 -282 
L 6150 -282 
L 6150 179 
L 4717 179 
L 4717 4237 
L 6048 4237 
L 6048 4691 
L 2944 4691 
L 2944 4237 
L 4218 4237 
L 4218 179 
L 2682 179 
z
M 237 2573 
L 288 2112 
L 1485 2189 
L 1485 -512 
L 1958 -512 
L 1958 2221 
L 2746 2272 
C 2822 2125 2893 1984 2938 1869 
L 3315 2080 
C 3168 2432 2816 2976 2496 3379 
L 2144 3200 
C 2266 3040 2387 2861 2502 2675 
L 1280 2618 
C 1754 3155 2291 3866 2694 4461 
L 2253 4678 
C 2048 4326 1773 3904 1485 3507 
C 1363 3648 1203 3802 1037 3955 
C 1306 4301 1626 4787 1875 5203 
L 1421 5382 
C 1267 5030 998 4563 755 4211 
L 499 4416 
L 262 4096 
C 595 3827 973 3450 1216 3155 
C 1056 2950 902 2758 749 2592 
L 237 2573 
z
" transform="scale(0.015625)"/>
     </defs>
     <use xlink:href="#NotoSansCJKjp-Regular-3132" transform="translate(0 0.40625)"/>
     <use xlink:href="#NotoSansCJKjp-Regular-26e3" transform="translate(99.999908 0.40625)"/>
     <use xlink:href="#NotoSansCJKjp-Regular-4f87" transform="translate(199.999817 0.40625)"/>
     <use xlink:href="#NotoSansCJKjp-Regular-a774" transform="translate(299.999725 0.40625)"/>
     <use xlink:href="#NotoSansCJKjp-Regular-3d7c" transform="translate(399.999634 0.40625)"/>
     <use xlink:href="#NotoSansCJKjp-Regular-9dd4" transform="translate(499.999542 0.40625)"/>
     <use xlink:href="#NotoSansCJKjp-Regular-5ae7" transform="translate(599.999451 0.40625)"/>
     <use xlink:href="#NotoSansCJKjp-Regular-2be5" transform="translate(699.999359 0.40625)"/>
     <use xlink:href="#NotoSansCJKjp-Regular-1" transform="translate(799.999268 0.40625)"/>
     <use xlink:href="#Cmsy10-c" transform="translate(842.399303 0.40625)"/>
     <use xlink:href="#NotoSansCJKjp-Regular-1" transform="translate(962.399361 0.40625)"/>
     <use xlink:href="#NotoSansCJKjp-Regular-ac12" transform="translate(984.799339 0.40625)"/>
     <use xlink:href="#NotoSansCJKjp-Regular-66cd" transform="translate(1084.799248 0.40625)"/>
     <use xlink:href="#NotoSansCJKjp-Regular-95ec" transform="translate(1184.799156 0.40625)"/>
     <use xlink:href="#NotoSansCJKjp-Regular-26e5" transform="translate(1284.799065 0.40625)"/>
     <use xlink:href="#NotoSansCJKjp-Regular-e6ae" transform="translate(1384.798973 0.40625)"/>
     <use xlink:href="#NotoSansCJKjp-Regular-785e" transform="translate(1484.798882 0.40625)"/>
     <use xlink:href="#NotoSansCJKjp-Regular-71ef" transform="translate(1584.79879 0.40625)"/>
     <use xlink:href="#NotoSansCJKjp-Regular-e6af" transform="translate(1684.798698 0.40625)"/>
    </g>
   </g>
   <g id="text_5">
    <!-- 都卜勒效應：波源不動、觀察者移動（波長不變） -->
    <g style="fill: #222831" transform="translate(62.314 18.64) scale(0.13 -0.13)">
     <defs>
      <path id="NotoSansCJKjp-Regular-9f49" d="M 3251 5158 
C 3123 4851 2976 4563 2810 4288 
L 2810 4634 
L 2003 4634 
L 2003 5325 
L 1555 5325 
L 1555 4634 
L 570 4634 
L 570 4205 
L 1555 4205 
L 1555 3437 
L 275 3437 
L 275 3008 
L 1811 3008 
C 1318 2522 755 2118 134 1811 
C 224 1722 378 1523 435 1421 
C 614 1517 787 1619 954 1734 
L 954 -480 
L 1389 -480 
L 1389 -102 
L 2835 -102 
L 2835 -390 
L 3296 -390 
L 3296 2387 
L 1798 2387 
C 2016 2579 2221 2790 2413 3008 
L 3584 3008 
L 3584 3437 
L 2758 3437 
C 3123 3917 3430 4448 3686 5024 
L 3251 5158 
z
M 2003 4205 
L 2758 4205 
C 2592 3936 2406 3680 2202 3437 
L 2003 3437 
L 2003 4205 
z
M 1389 301 
L 1389 979 
L 2835 979 
L 2835 301 
L 1389 301 
z
M 1389 1363 
L 1389 1990 
L 2835 1990 
L 2835 1363 
L 1389 1363 
z
M 3859 5011 
L 3859 -512 
L 4333 -512 
L 4333 4557 
L 5530 4557 
C 5318 4045 5030 3354 4742 2810 
C 5414 2253 5619 1766 5619 1357 
C 5626 1126 5574 941 5427 851 
C 5344 806 5242 781 5126 781 
C 4986 768 4794 774 4582 794 
C 4666 659 4717 454 4723 320 
C 4928 307 5152 307 5325 326 
C 5491 346 5638 397 5760 474 
C 5990 621 6086 922 6086 1318 
C 6086 1773 5914 2278 5235 2874 
C 5549 3469 5901 4205 6163 4813 
L 5818 5030 
L 5741 5011 
L 3859 5011 
z
" transform="scale(0.015625)"/>
      <path id="NotoSansCJKjp-Regular-2da8" d="M 2368 5363 
L 2368 -506 
L 2906 -506 
L 2906 2938 
C 3776 2522 4890 1933 5453 1555 
L 5760 2022 
C 5146 2419 3923 3014 3059 3392 
L 2906 3174 
L 2906 5363 
L 2368 5363 
z
" transform="scale(0.015625)"/>
      <path id="NotoSansCJKjp-Regular-2cbe" d="M 4179 5350 
C 4179 4851 4179 4365 4166 3898 
L 3245 3898 
L 3245 3450 
L 4147 3450 
C 4077 1894 3814 602 2816 -166 
C 2931 -237 3098 -410 3168 -512 
C 4243 346 4525 1766 4608 3450 
L 5498 3450 
C 5440 1094 5370 250 5216 58 
C 5158 -26 5101 -45 4992 -38 
C 4864 -38 4563 -38 4237 -13 
C 4307 -134 4358 -333 4371 -461 
C 4685 -480 4998 -486 5190 -467 
C 5382 -448 5510 -397 5632 -224 
C 5830 45 5894 947 5958 3661 
C 5958 3725 5958 3898 5958 3898 
L 4621 3898 
C 4634 4365 4640 4851 4640 5350 
L 4179 5350 
z
M 518 3040 
L 518 1568 
L 1658 1568 
L 1658 1050 
L 262 1050 
L 262 634 
L 1658 634 
L 1658 -512 
L 2112 -512 
L 2112 634 
L 3437 634 
L 3437 1050 
L 2112 1050 
L 2112 1568 
L 3264 1568 
L 3264 3040 
L 2112 3040 
L 2112 3450 
L 2803 3450 
L 2803 4365 
L 3418 4365 
L 3418 4749 
L 2803 4749 
L 2803 5363 
L 2381 5363 
L 2381 4749 
L 1395 4749 
L 1395 5363 
L 986 5363 
L 986 4749 
L 320 4749 
L 320 4365 
L 986 4365 
L 986 3450 
L 1658 3450 
L 1658 3040 
L 518 3040 
z
M 2381 4365 
L 2381 3834 
L 1395 3834 
L 1395 4365 
L 2381 4365 
z
M 922 2656 
L 1670 2656 
L 1670 1952 
L 922 1952 
L 922 2656 
z
M 2093 2656 
L 2848 2656 
L 2848 1952 
L 2093 1952 
L 2093 2656 
z
" transform="scale(0.015625)"/>
      <path id="NotoSansCJKjp-Regular-4ddd" d="M 1050 3859 
C 864 3392 557 2925 218 2598 
C 326 2534 518 2394 602 2317 
C 934 2669 1286 3213 1504 3744 
L 1050 3859 
z
M 2195 3661 
C 2470 3354 2771 2918 2893 2643 
L 3277 2874 
C 3149 3155 2842 3565 2560 3866 
L 2195 3661 
z
M 1626 5350 
L 1626 4506 
L 275 4506 
L 275 4070 
L 3482 4070 
L 3482 4506 
L 2093 4506 
L 2093 5350 
L 1626 5350 
z
M 774 2182 
C 1075 1933 1389 1632 1677 1331 
C 1312 717 845 211 269 -147 
C 378 -237 563 -422 634 -518 
C 1171 -134 1632 365 2010 966 
C 2278 659 2509 358 2656 109 
L 3046 435 
C 2867 717 2586 1062 2259 1408 
C 2445 1773 2605 2170 2733 2592 
L 2259 2701 
C 2163 2368 2048 2054 1907 1760 
C 1651 2016 1382 2253 1126 2464 
L 774 2182 
z
M 4166 3738 
L 5261 3738 
C 5146 2931 4966 2246 4691 1677 
C 4442 2266 4262 2944 4141 3661 
L 4166 3738 
z
M 4064 5376 
C 3885 4256 3571 3162 3053 2470 
C 3168 2400 3360 2227 3437 2144 
C 3590 2368 3731 2624 3859 2912 
C 4000 2278 4179 1696 4416 1184 
C 4051 634 3558 205 2886 -109 
C 2982 -211 3123 -416 3168 -525 
C 3795 -198 4282 211 4659 717 
C 4973 198 5357 -224 5843 -518 
C 5920 -390 6067 -211 6176 -122 
C 5664 154 5261 595 4947 1158 
C 5338 1850 5581 2694 5741 3738 
L 6150 3738 
L 6150 4186 
L 4294 4186 
C 4390 4544 4467 4922 4538 5306 
L 4064 5376 
z
" transform="scale(0.015625)"/>
      <path id="NotoSansCJKjp-Regular-47d4" d="M 2630 998 
L 2630 96 
C 2630 -346 2771 -467 3347 -467 
C 3469 -467 4262 -467 4384 -467 
C 4826 -467 4966 -314 5011 326 
C 4896 352 4710 416 4614 486 
C 4595 0 4550 -64 4339 -64 
C 4166 -64 3520 -64 3386 -64 
C 3117 -64 3072 -38 3072 102 
L 3072 998 
L 2630 998 
z
M 2976 1267 
C 3360 1082 3827 787 4058 576 
L 4352 883 
C 4115 1088 3635 1363 3251 1530 
L 2976 1267 
z
M 4813 896 
C 5184 512 5574 -19 5728 -378 
L 6138 -166 
C 5971 198 5562 710 5184 1082 
L 4813 896 
z
M 1856 1018 
C 1734 589 1478 134 1120 -122 
L 1485 -365 
C 1875 -70 2099 422 2253 877 
L 1856 1018 
z
M 4275 2899 
L 4275 2547 
L 3482 2547 
L 3482 2899 
L 4275 2899 
z
M 3411 4435 
C 3174 3878 2790 3322 2381 2950 
C 2483 2886 2650 2752 2720 2675 
C 2835 2790 2950 2925 3066 3072 
L 3066 1568 
L 5990 1568 
L 5990 1894 
L 4685 1894 
L 4685 2266 
L 5722 2266 
L 5722 2547 
L 4685 2547 
L 4685 2899 
L 5722 2899 
L 5722 3181 
L 4685 3181 
L 4685 3526 
L 5882 3526 
L 5882 3846 
L 4736 3846 
C 4819 3974 4909 4128 4992 4275 
L 4557 4397 
C 4499 4243 4390 4019 4301 3846 
L 3584 3846 
C 3667 4000 3750 4160 3821 4320 
L 3411 4435 
z
M 4275 3181 
L 3482 3181 
L 3482 3526 
L 4275 3526 
L 4275 3181 
z
M 4275 2266 
L 4275 1894 
L 3482 1894 
L 3482 2266 
L 4275 2266 
z
M 698 4877 
L 698 2950 
C 698 2010 659 698 186 -237 
C 288 -288 480 -435 557 -518 
C 1037 422 1133 1798 1139 2790 
C 1222 2714 1325 2605 1376 2547 
C 1536 2694 1702 2867 1862 3059 
L 1862 1434 
L 2278 1434 
L 2278 3610 
C 2432 3834 2566 4070 2682 4307 
L 2278 4422 
C 2010 3866 1587 3309 1139 2918 
L 1139 2950 
L 1139 4474 
L 6093 4474 
L 6093 4877 
L 3635 4877 
L 3635 5376 
L 3142 5376 
L 3142 4877 
L 698 4877 
z
" transform="scale(0.015625)"/>
      <path id="NotoSansCJKjp-Regular-e6c0" d="M 3200 3482 
C 3456 3482 3686 3667 3686 3962 
C 3686 4256 3456 4442 3200 4442 
C 2944 4442 2714 4256 2714 3962 
C 2714 3667 2944 3482 3200 3482 
z
M 3200 346 
C 3456 346 3686 538 3686 826 
C 3686 1120 3456 1312 3200 1312 
C 2944 1312 2714 1120 2714 826 
C 2714 538 2944 346 3200 346 
z
" transform="scale(0.015625)"/>
      <path id="NotoSansCJKjp-Regular-9234" d="M 813 3718 
L 1350 3718 
L 1350 3174 
L 813 3174 
L 813 3718 
z
M 2323 3718 
L 2906 3718 
L 2906 3174 
L 2323 3174 
L 2323 3718 
z
M 4019 3674 
L 5440 3674 
L 5440 3021 
L 4019 3021 
L 4019 3674 
z
M 4019 2637 
L 5440 2637 
L 5440 1978 
L 4019 1978 
L 4019 2637 
z
M 4019 4704 
L 5440 4704 
L 5440 4058 
L 4019 4058 
L 4019 4704 
z
M 1792 1286 
L 1792 909 
L 1107 909 
L 1107 1286 
L 1792 1286 
z
M 3597 5126 
L 3597 1562 
L 4006 1562 
C 3968 819 3834 320 3322 0 
L 3322 211 
L 2202 211 
L 2202 589 
L 3168 589 
L 3168 909 
L 2202 909 
L 2202 1286 
L 3168 1286 
L 3168 1606 
L 2202 1606 
L 2202 1978 
L 3302 1978 
L 3302 2323 
L 2266 2323 
L 2483 2765 
L 2144 2854 
L 3264 2854 
L 3264 4038 
L 1990 4038 
L 1990 2854 
L 2067 2854 
C 2022 2701 1958 2496 1882 2323 
L 1178 2323 
C 1248 2477 1312 2637 1363 2797 
L 1139 2854 
L 1702 2854 
L 1702 4038 
L 467 4038 
L 467 2854 
L 979 2854 
C 794 2304 486 1779 141 1414 
C 218 1338 346 1165 397 1088 
C 506 1203 608 1338 710 1485 
L 710 -454 
L 1107 -454 
L 1107 -147 
L 3021 -147 
L 2989 -160 
C 3085 -237 3200 -403 3258 -512 
C 4141 -128 4358 518 4422 1562 
L 4845 1562 
L 4845 154 
C 4845 -275 4934 -403 5318 -403 
C 5395 -403 5645 -403 5728 -403 
C 6067 -403 6170 -192 6202 666 
C 6086 698 5914 762 5824 838 
C 5818 90 5792 -6 5677 -6 
C 5619 -6 5427 -6 5382 -6 
C 5286 -6 5267 19 5267 154 
L 5267 1562 
L 5882 1562 
L 5882 5126 
L 3597 5126 
z
M 1792 1606 
L 1107 1606 
L 1107 1978 
L 1792 1978 
L 1792 1606 
z
M 1792 589 
L 1792 211 
L 1107 211 
L 1107 589 
L 1792 589 
z
M 2285 5363 
L 2285 4947 
L 1434 4947 
L 1434 5363 
L 1011 5363 
L 1011 4947 
L 314 4947 
L 314 4582 
L 1011 4582 
L 1011 4173 
L 1434 4173 
L 1434 4582 
L 2285 4582 
L 2285 4173 
L 2701 4173 
L 2701 4582 
L 3366 4582 
L 3366 4947 
L 2701 4947 
L 2701 5363 
L 2285 5363 
z
" transform="scale(0.015625)"/>
      <path id="NotoSansCJKjp-Regular-3d14" d="M 1862 960 
C 1510 557 890 192 307 -45 
C 410 -128 570 -301 640 -390 
C 1222 -115 1888 333 2285 806 
L 1862 960 
z
M 4038 666 
C 4602 352 5318 -109 5683 -397 
L 6022 -64 
C 5638 224 4902 659 4352 947 
L 4038 666 
z
M 1702 3571 
L 2630 3571 
C 2534 3360 2406 3168 2266 2982 
C 2086 3136 1830 3315 1594 3450 
L 1702 3571 
z
M 461 4877 
L 461 3853 
L 896 3853 
L 896 4474 
L 5485 4474 
L 5485 3859 
L 5370 3930 
L 5286 3904 
L 3917 3904 
L 3917 3520 
L 5024 3520 
C 4864 3270 4666 3014 4461 2803 
C 4019 3206 3693 3712 3488 4294 
L 3110 4192 
C 3354 3488 3725 2899 4218 2445 
L 2317 2445 
C 2675 2816 2970 3264 3162 3789 
L 2899 3917 
L 2816 3898 
L 1965 3898 
C 2042 4013 2112 4122 2176 4237 
L 1760 4307 
C 1510 3846 1018 3315 282 2938 
C 371 2880 493 2752 544 2662 
L 781 2797 
C 1024 2624 1286 2406 1459 2227 
C 1088 1965 672 1766 262 1638 
C 346 1562 454 1402 499 1293 
C 666 1357 838 1427 1005 1504 
L 1005 1114 
L 2963 1114 
L 2963 -13 
C 2963 -90 2938 -115 2848 -115 
C 2752 -122 2445 -122 2086 -109 
C 2144 -237 2214 -397 2234 -518 
C 2694 -518 2995 -525 3187 -454 
C 3379 -390 3430 -269 3430 -26 
L 3430 1114 
L 5376 1114 
L 5376 1523 
L 1043 1523 
C 1434 1715 1811 1971 2144 2278 
L 2144 2042 
L 4339 2042 
L 4339 2336 
C 4768 1978 5280 1702 5882 1536 
C 5939 1658 6067 1830 6170 1920 
C 5632 2054 5158 2272 4762 2560 
C 5094 2886 5427 3334 5651 3757 
L 5498 3853 
L 5933 3853 
L 5933 4877 
L 3430 4877 
L 3430 5376 
L 2950 5376 
L 2950 4877 
L 461 4877 
z
M 1357 3226 
C 1600 3072 1869 2880 2035 2726 
C 1946 2630 1850 2534 1747 2451 
C 1581 2618 1312 2829 1069 2995 
C 1171 3066 1267 3142 1357 3226 
z
" transform="scale(0.015625)"/>
      <path id="NotoSansCJKjp-Regular-7e16" d="M 5357 5158 
C 5133 4864 4890 4576 4621 4307 
L 4621 4570 
L 3027 4570 
L 3027 5376 
L 2554 5376 
L 2554 4570 
L 909 4570 
L 909 4147 
L 2554 4147 
L 2554 3322 
L 346 3322 
L 346 2886 
L 2854 2886 
C 2042 2362 1139 1933 205 1613 
C 301 1510 448 1312 512 1210 
C 909 1363 1306 1530 1690 1722 
L 1690 -512 
L 2170 -512 
L 2170 -301 
L 4774 -301 
L 4774 -486 
L 5267 -486 
L 5267 2214 
L 2611 2214 
C 2963 2426 3309 2650 3642 2886 
L 6054 2886 
L 6054 3322 
L 4205 3322 
C 4787 3808 5318 4346 5766 4934 
L 5357 5158 
z
M 3027 3322 
L 3027 4147 
L 4461 4147 
C 4160 3853 3834 3578 3482 3322 
L 3027 3322 
z
M 2170 787 
L 4774 787 
L 4774 115 
L 2170 115 
L 2170 787 
z
M 2170 1171 
L 2170 1805 
L 4774 1805 
L 4774 1171 
L 2170 1171 
z
" transform="scale(0.015625)"/>
     </defs>
     <use xlink:href="#NotoSansCJKjp-Regular-9f49"/>
     <use xlink:href="#NotoSansCJKjp-Regular-2da8" transform="translate(100 0)"/>
     <use xlink:href="#NotoSansCJKjp-Regular-2cbe" transform="translate(200 0)"/>
     <use xlink:href="#NotoSansCJKjp-Regular-4ddd" transform="translate(300 0)"/>
     <use xlink:href="#NotoSansCJKjp-Regular-47d4" transform="translate(400 0)"/>
     <use xlink:href="#NotoSansCJKjp-Regular-e6c0" transform="translate(500 0)"/>
     <use xlink:href="#NotoSansCJKjp-Regular-5ae7" transform="translate(600 0)"/>
     <use xlink:href="#NotoSansCJKjp-Regular-5d8e" transform="translate(700 0)"/>
     <use xlink:href="#NotoSansCJKjp-Regular-2518" transform="translate(800 0)"/>
     <use xlink:href="#NotoSansCJKjp-Regular-2cc2" transform="translate(900 0)"/>
     <use xlink:href="#NotoSansCJKjp-Regular-575" transform="translate(1000 0)"/>
     <use xlink:href="#NotoSansCJKjp-Regular-9234" transform="translate(1100 0)"/>
     <use xlink:href="#NotoSansCJKjp-Regular-3d14" transform="translate(1200 0)"/>
     <use xlink:href="#NotoSansCJKjp-Regular-7e16" transform="translate(1300 0)"/>
     <use xlink:href="#NotoSansCJKjp-Regular-71ef" transform="translate(1400 0)"/>
     <use xlink:href="#NotoSansCJKjp-Regular-2cc2" transform="translate(1500 0)"/>
     <use xlink:href="#NotoSansCJKjp-Regular-e6ae" transform="translate(1600 0)"/>
     <use xlink:href="#NotoSansCJKjp-Regular-5ae7" transform="translate(1700 0)"/>
     <use xlink:href="#NotoSansCJKjp-Regular-a74e" transform="translate(1800 0)"/>
     <use xlink:href="#NotoSansCJKjp-Regular-2518" transform="translate(1900 0)"/>
     <use xlink:href="#NotoSansCJKjp-Regular-95ec" transform="translate(2000 0)"/>
     <use xlink:href="#NotoSansCJKjp-Regular-e6af" transform="translate(2100 0)"/>
    </g>
   </g>
   <g id="patch_2">
    <path d="M 205.314 186.7264 
C 206.597159 186.7264 207.827935 186.216596 208.735265 185.309265 
C 209.642596 184.401935 210.1524 183.171159 210.1524 181.888 
C 210.1524 180.604841 209.642596 179.374065 208.735265 178.466735 
C 207.827935 177.559404 206.597159 177.0496 205.314 177.0496 
C 204.030841 177.0496 202.800065 177.559404 201.892735 178.466735 
C 200.985404 179.374065 200.4756 180.604841 200.4756 181.888 
C 200.4756 183.171159 200.985404 184.401935 201.892735 185.309265 
C 202.800065 186.216596 204.030841 186.7264 205.314 186.7264 
z
" clip-path="url(#p81d70e94bf)" style="fill: #d1242f; stroke: #d1242f; stroke-linejoin: miter"/>
   </g>
   <g id="patch_3">
    <path d="M 314.178 187.3312 
C 315.621554 187.3312 317.006177 186.75767 318.026924 185.736924 
C 319.04767 184.716177 319.6212 183.331554 319.6212 181.888 
C 319.6212 180.444446 319.04767 179.059823 318.026924 178.039076 
C 317.006177 177.01833 315.621554 176.4448 314.178 176.4448 
C 312.734446 176.4448 311.349823 177.01833 310.329076 178.039076 
C 309.30833 179.059823 308.7348 180.444446 308.7348 181.888 
C 308.7348 183.331554 309.30833 184.716177 310.329076 185.736924 
C 311.349823 186.75767 312.734446 187.3312 314.178 187.3312 
z
" clip-path="url(#p81d70e94bf)" style="fill: #ffe9b0; stroke: #222831; stroke-width: 1.4; stroke-linejoin: miter"/>
   </g>
   <g id="patch_4">
    <path d="M 314.178 181.888 
Q 299.058 181.888 286.397675 181.888 
" clip-path="url(#p81d70e94bf)" style="fill: none; stroke: #1a7f37; stroke-width: 2.2; stroke-linecap: round"/>
    <path d="M 292.797675 185.088 
L 286.397675 181.888 
L 292.797675 178.688 
z
" clip-path="url(#p81d70e94bf)" style="fill: #1a7f37; stroke: #1a7f37; stroke-width: 2.2; stroke-linecap: round"/>
   </g>
   <g id="patch_5">
    <path d="M 96.45 187.3312 
C 97.893554 187.3312 99.278177 186.75767 100.298924 185.736924 
C 101.31967 184.716177 101.8932 183.331554 101.8932 181.888 
C 101.8932 180.444446 101.31967 179.059823 100.298924 178.039076 
C 99.278177 177.01833 97.893554 176.4448 96.45 176.4448 
C 95.006446 176.4448 93.621823 177.01833 92.601076 178.039076 
C 91.58033 179.059823 91.0068 180.444446 91.0068 181.888 
C 91.0068 183.331554 91.58033 184.716177 92.601076 185.736924 
C 93.621823 186.75767 95.006446 187.3312 96.45 187.3312 
z
" clip-path="url(#p81d70e94bf)" style="fill: #ffe9b0; stroke: #222831; stroke-width: 1.4; stroke-linejoin: miter"/>
   </g>
   <g id="patch_6">
    <path d="M 96.45 181.888 
Q 81.33 181.888 68.669675 181.888 
" clip-path="url(#p81d70e94bf)" style="fill: none; stroke: #bf8700; stroke-width: 2.2; stroke-linecap: round"/>
    <path d="M 75.069675 185.088 
L 68.669675 181.888 
L 75.069675 178.688 
z
" clip-path="url(#p81d70e94bf)" style="fill: #bf8700; stroke: #bf8700; stroke-width: 2.2; stroke-linecap: round"/>
   </g>
  </g>
 </g>
 <defs>
  <clipPath id="p81d70e94bf">
   <rect x="35.97" y="24.64" width="338.688" height="266.112"/>
  </clipPath>
 </defs>
</svg>
