<?xml version="1.0" encoding="utf-8" standalone="no"?>
<!DOCTYPE svg PUBLIC "-//W3C//DTD SVG 1.1//EN"
  "http://www.w3.org/Graphics/SVG/1.1/DTD/svg11.dtd">
<svg xmlns:xlink="http://www.w3.org/1999/xlink" width="417.57pt" height="387.096pt" viewBox="0 0 417.57 387.096" xmlns="http://www.w3.org/2000/svg" version="1.1">
 <metadata>
  <rdf:RDF xmlns:dc="http://purl.org/dc/elements/1.1/" xmlns:cc="http://creativecommons.org/ns#" xmlns:rdf="http://www.w3.org/1999/02/22-rdf-syntax-ns#">
   <cc:Work>
    <dc:type rdf:resource="http://purl.org/dc/dcmitype/StillImage"/>
    <dc:date>2026-06-18T09:42:04.061665</dc:date>
    <dc:format>image/svg+xml</dc:format>
    <dc:creator>
     <cc:Agent>
      <dc:title>Matplotlib v3.11.0, https://matplotlib.org/</dc:title>
     </cc:Agent>
    </dc:creator>
   </cc:Work>
  </rdf:RDF>
 </metadata>
 <defs>
  <style type="text/css">*{stroke-linejoin: round; stroke-linecap: butt}</style>
 </defs>
 <g id="figure_1">
  <g id="patch_1">
   <path d="M 0 387.096 
L 417.57 387.096 
L 417.57 0 
L 0 0 
z
" style="fill: #ffffff"/>
  </g>
  <g id="axes_1">
   <g id="line2d_1">
    <path d="M 7.2 296.409882 
L 386.64 296.409882 
" clip-path="url(#pdef34e5a53)" style="fill: none; stroke: #d8dde3; stroke-width: 0.9; stroke-linecap: square"/>
   </g>
   <g id="line2d_2">
    <path d="M 96.48 379.896 
L 96.48 25.08 
" clip-path="url(#pdef34e5a53)" style="fill: none; stroke: #d8dde3; stroke-width: 0.9; stroke-linecap: square"/>
   </g>
   <g id="line2d_3">
    <path d="M 18.36 369.460235 
L 375.48 35.515765 
" clip-path="url(#pdef34e5a53)" style="fill: none; stroke-dasharray: 5.18,2.24; stroke-dashoffset: 0; stroke: #9aa0a6; stroke-width: 1.4"/>
   </g>
   <g id="patch_2">
    <path d="M 9.200374 296.409882 
Q 196.919514 296.409882 383.073406 296.409882 
" style="fill: none; stroke: #222831; stroke-width: 1.4; stroke-linecap: round"/>
    <path d="M 378.273406 294.009882 
L 383.073406 296.409882 
L 378.273406 298.809882 
z
" style="fill: #222831; stroke: #222831; stroke-width: 1.4; stroke-linecap: round"/>
   </g>
   <g id="patch_3">
    <path d="M 96.48 377.895504 
Q 96.48 202.487744 96.48 28.645232 
" style="fill: none; stroke: #222831; stroke-width: 1.4; stroke-linecap: round"/>
    <path d="M 94.08 33.445232 
L 96.48 28.645232 
L 98.88 33.445232 
z
" style="fill: #222831; stroke: #222831; stroke-width: 1.4; stroke-linecap: round"/>
   </g>
   <g id="text_1">
    <!-- $x$ -->
    <g style="fill: #222831" transform="translate(372.984 318.797082) scale(0.12 -0.12)">
     <defs>
      <path id="Cmmi10-3f" d="M 500 184 
Q 613 97 819 97 
Q 1019 97 1172 289 
Q 1325 481 1381 709 
L 1672 1844 
Q 1741 2153 1741 2266 
Q 1741 2425 1652 2544 
Q 1563 2663 1403 2663 
Q 1200 2663 1022 2536 
Q 844 2409 722 2214 
Q 600 2019 550 1819 
Q 538 1778 500 1778 
L 422 1778 
Q 372 1778 372 1838 
L 372 1856 
Q 434 2094 584 2320 
Q 734 2547 951 2687 
Q 1169 2828 1416 2828 
Q 1650 2828 1839 2703 
Q 2028 2578 2106 2363 
Q 2216 2559 2386 2693 
Q 2556 2828 2759 2828 
Q 2897 2828 3040 2779 
Q 3184 2731 3275 2631 
Q 3366 2531 3366 2381 
Q 3366 2219 3261 2101 
Q 3156 1984 2994 1984 
Q 2891 1984 2822 2050 
Q 2753 2116 2753 2216 
Q 2753 2350 2845 2451 
Q 2938 2553 3066 2572 
Q 2950 2663 2747 2663 
Q 2541 2663 2389 2472 
Q 2238 2281 2175 2047 
L 1894 916 
Q 1825 659 1825 494 
Q 1825 331 1917 214 
Q 2009 97 2163 97 
Q 2463 97 2698 361 
Q 2934 625 3009 941 
Q 3022 978 3059 978 
L 3138 978 
Q 3163 978 3178 961 
Q 3194 944 3194 922 
Q 3194 916 3188 903 
Q 3097 522 2806 225 
Q 2516 -72 2150 -72 
Q 1916 -72 1727 54 
Q 1538 181 1459 397 
Q 1359 209 1182 68 
Q 1006 -72 806 -72 
Q 669 -72 523 -23 
Q 378 25 287 125 
Q 197 225 197 378 
Q 197 528 301 651 
Q 406 775 563 775 
Q 669 775 741 711 
Q 813 647 813 544 
Q 813 409 723 309 
Q 634 209 500 184 
z
" transform="scale(0.015625)"/>
     </defs>
     <use xlink:href="#Cmmi10-3f" transform="translate(0 0.8125)"/>
    </g>
   </g>
   <g id="text_2">
    <!-- $y$ -->
    <g style="fill: #222831" transform="translate(100.2744 40.857882) scale(0.12 -0.12)">
     <defs>
      <path id="Cmmi10-72" d="M 538 -916 
Q 672 -1147 1006 -1147 
Q 1309 -1147 1531 -934 
Q 1753 -722 1889 -420 
Q 2025 -119 2100 197 
Q 1816 -72 1484 -72 
Q 1231 -72 1053 15 
Q 875 103 776 276 
Q 678 450 678 697 
Q 678 906 734 1126 
Q 791 1347 892 1617 
Q 994 1888 1069 2088 
Q 1153 2322 1153 2472 
Q 1153 2663 1013 2663 
Q 759 2663 595 2402 
Q 431 2141 353 1819 
Q 341 1778 300 1778 
L 225 1778 
Q 172 1778 172 1838 
L 172 1856 
Q 275 2238 487 2533 
Q 700 2828 1025 2828 
Q 1253 2828 1411 2678 
Q 1569 2528 1569 2297 
Q 1569 2178 1516 2047 
Q 1488 1969 1388 1706 
Q 1288 1444 1234 1272 
Q 1181 1100 1147 934 
Q 1113 769 1113 603 
Q 1113 391 1203 244 
Q 1294 97 1491 97 
Q 1888 97 2203 581 
L 2688 2553 
Q 2709 2638 2787 2698 
Q 2866 2759 2956 2759 
Q 3034 2759 3092 2709 
Q 3150 2659 3150 2578 
Q 3150 2541 3144 2528 
L 2509 -19 
Q 2425 -347 2200 -647 
Q 1975 -947 1658 -1130 
Q 1341 -1313 997 -1313 
Q 831 -1313 668 -1248 
Q 506 -1184 406 -1056 
Q 306 -928 306 -756 
Q 306 -581 409 -453 
Q 513 -325 684 -325 
Q 788 -325 858 -389 
Q 928 -453 928 -556 
Q 928 -703 818 -812 
Q 709 -922 563 -922 
Q 556 -919 550 -917 
Q 544 -916 538 -916 
z
" transform="scale(0.015625)"/>
     </defs>
     <use xlink:href="#Cmmi10-72" transform="translate(0 0.8125)"/>
    </g>
   </g>
   <g id="text_3">
    <!-- $y=x$ -->
    <g style="fill: #9aa0a6" transform="translate(330.84 58.996235) scale(0.12 -0.12)">
     <defs>
      <path id="Cmr10-29" d="M 481 850 
Q 428 850 393 890 
Q 359 931 359 978 
Q 359 1031 393 1068 
Q 428 1106 481 1106 
L 4500 1106 
Q 4547 1106 4581 1068 
Q 4616 1031 4616 978 
Q 4616 931 4581 890 
Q 4547 850 4500 850 
L 481 850 
z
M 481 2094 
Q 428 2094 393 2131 
Q 359 2169 359 2222 
Q 359 2269 393 2309 
Q 428 2350 481 2350 
L 4500 2350 
Q 4547 2350 4581 2309 
Q 4616 2269 4616 2222 
Q 4616 2169 4581 2131 
Q 4547 2094 4500 2094 
L 481 2094 
z
" transform="scale(0.015625)"/>
     </defs>
     <use xlink:href="#Cmmi10-72" transform="translate(0 0.8125)"/>
     <use xlink:href="#Cmr10-29" transform="translate(69.023495 0.8125)"/>
     <use xlink:href="#Cmmi10-3f" transform="translate(166.709099 0.8125)"/>
    </g>
   </g>
   <g id="line2d_4">
    <path d="M 12.78 277.961882 
L 21.40194 275.876384 
L 30.02388 273.555125 
L 37.927324 271.197485 
L 45.830769 268.596637 
L 53.015719 266.000118 
L 60.200669 263.161199 
L 66.667124 260.380261 
L 73.133579 257.366724 
L 79.600033 254.101133 
L 86.066488 250.562405 
L 91.814448 247.169145 
L 97.562408 243.524742 
L 103.310368 239.61061 
L 109.058328 235.406786 
L 114.087793 231.473984 
L 119.117258 227.287639 
L 124.146722 222.831405 
L 129.176187 218.087883 
L 134.205652 213.038551 
L 139.235117 207.663694 
L 144.264582 201.942327 
L 149.294047 195.852109 
L 154.323512 189.369261 
L 159.352977 182.468472 
L 163.663946 176.200484 
L 167.974916 169.58769 
L 172.285886 162.611122 
L 176.596856 155.250769 
L 180.907826 147.485518 
L 185.218796 139.293096 
L 189.529766 130.650004 
L 193.840736 121.53145 
L 198.151706 111.911278 
L 202.462676 101.761895 
L 206.773645 91.054188 
L 211.084615 79.757444 
L 215.395585 67.839258 
L 219.706555 55.265446 
L 224.017525 41.99994 
L 227.61 30.389586 
L 227.61 30.389586 
" clip-path="url(#pdef34e5a53)" style="fill: none; stroke-dasharray: 1.8,2.97; stroke-dashoffset: 0; stroke: #1f6feb; stroke-opacity: 0.7; stroke-width: 1.8"/>
   </g>
   <g id="text_4">
    <!-- $y=2^{x}$ -->
    <g style="fill: #1f6feb" transform="translate(210.87 51.169412) scale(0.12 -0.12)">
     <defs>
      <path id="Cmr10-31" d="M 319 0 
L 319 172 
Q 319 188 331 206 
L 1325 1306 
Q 1550 1550 1690 1715 
Q 1831 1881 1968 2097 
Q 2106 2313 2186 2536 
Q 2266 2759 2266 3009 
Q 2266 3272 2169 3511 
Q 2072 3750 1880 3894 
Q 1688 4038 1416 4038 
Q 1138 4038 916 3870 
Q 694 3703 603 3438 
Q 628 3444 672 3444 
Q 816 3444 917 3347 
Q 1019 3250 1019 3097 
Q 1019 2950 917 2848 
Q 816 2747 672 2747 
Q 522 2747 420 2851 
Q 319 2956 319 3097 
Q 319 3338 409 3548 
Q 500 3759 670 3923 
Q 841 4088 1055 4175 
Q 1269 4263 1509 4263 
Q 1875 4263 2190 4108 
Q 2506 3953 2690 3670 
Q 2875 3388 2875 3009 
Q 2875 2731 2753 2481 
Q 2631 2231 2440 2026 
Q 2250 1822 1953 1562 
Q 1656 1303 1563 1216 
L 838 519 
L 1453 519 
Q 1906 519 2211 526 
Q 2516 534 2534 550 
Q 2609 631 2688 1141 
L 2875 1141 
L 2694 0 
L 319 0 
z
" transform="scale(0.015625)"/>
     </defs>
     <use xlink:href="#Cmmi10-72" transform="translate(0 0.779516)"/>
     <use xlink:href="#Cmr10-29" transform="translate(69.023495 0.779516)"/>
     <use xlink:href="#Cmr10-31" transform="translate(166.709099 0.779516)"/>
     <use xlink:href="#Cmmi10-3f" transform="translate(220.71339 42.06875) scale(0.7)"/>
    </g>
   </g>
   <g id="text_5">
    <!-- $y=\log_{2}x$ -->
    <g style="fill: #1f6feb" transform="translate(347.58 215.532706) scale(0.13 -0.13)">
     <defs>
      <path id="Cmr10-6a" d="M 197 0 
L 197 225 
Q 416 225 556 259 
Q 697 294 697 428 
L 697 3788 
Q 697 3959 645 4036 
Q 594 4113 497 4130 
Q 400 4147 197 4147 
L 197 4372 
L 1147 4441 
L 1147 428 
Q 1147 294 1287 259 
Q 1428 225 1644 225 
L 1644 0 
L 197 0 
z
" transform="scale(0.015625)"/>
      <path id="Cmr10-42" d="M 1600 -72 
Q 1216 -72 887 123 
Q 559 319 368 647 
Q 178 975 178 1363 
Q 178 1656 283 1928 
Q 388 2200 583 2414 
Q 778 2628 1037 2748 
Q 1297 2869 1600 2869 
Q 1994 2869 2317 2661 
Q 2641 2453 2828 2104 
Q 3016 1756 3016 1363 
Q 3016 978 2825 648 
Q 2634 319 2307 123 
Q 1981 -72 1600 -72 
z
M 1600 116 
Q 2113 116 2284 487 
Q 2456 859 2456 1434 
Q 2456 1756 2422 1967 
Q 2388 2178 2272 2350 
Q 2200 2456 2089 2536 
Q 1978 2616 1854 2658 
Q 1731 2700 1600 2700 
Q 1400 2700 1220 2609 
Q 1041 2519 922 2350 
Q 803 2169 770 1951 
Q 738 1734 738 1434 
Q 738 1075 800 789 
Q 863 503 1052 309 
Q 1241 116 1600 116 
z
" transform="scale(0.015625)"/>
      <path id="Cmr10-1b" d="M 178 -500 
Q 178 -272 343 -101 
Q 509 69 738 141 
Q 609 238 542 384 
Q 475 531 475 697 
Q 475 997 666 1228 
Q 372 1516 372 1888 
Q 372 2088 458 2263 
Q 544 2438 697 2566 
Q 850 2694 1037 2761 
Q 1225 2828 1422 2828 
Q 1803 2828 2106 2606 
Q 2238 2747 2417 2823 
Q 2597 2900 2791 2900 
Q 2928 2900 3015 2801 
Q 3103 2703 3103 2566 
Q 3103 2488 3043 2428 
Q 2984 2369 2906 2369 
Q 2825 2369 2765 2428 
Q 2706 2488 2706 2566 
Q 2706 2684 2784 2731 
Q 2453 2731 2216 2503 
Q 2331 2388 2401 2220 
Q 2472 2053 2472 1888 
Q 2472 1616 2322 1398 
Q 2172 1181 1926 1061 
Q 1681 941 1422 941 
Q 1072 941 781 1131 
Q 691 1006 691 850 
Q 691 681 802 554 
Q 913 428 1081 428 
L 1606 428 
Q 1988 428 2294 359 
Q 2600 291 2808 84 
Q 3016 -122 3016 -500 
Q 3016 -781 2778 -967 
Q 2541 -1153 2211 -1236 
Q 1881 -1319 1600 -1319 
Q 1316 -1319 984 -1236 
Q 653 -1153 415 -967 
Q 178 -781 178 -500 
z
M 538 -500 
Q 538 -716 713 -861 
Q 888 -1006 1134 -1076 
Q 1381 -1147 1600 -1147 
Q 1816 -1147 2062 -1076 
Q 2309 -1006 2482 -861 
Q 2656 -716 2656 -500 
Q 2656 -166 2350 -67 
Q 2044 31 1606 31 
L 1081 31 
Q 934 31 811 -39 
Q 688 -109 613 -236 
Q 538 -363 538 -500 
z
M 1422 1113 
Q 1966 1113 1966 1888 
Q 1966 2222 1850 2439 
Q 1734 2656 1422 2656 
Q 1109 2656 993 2439 
Q 878 2222 878 1888 
Q 878 1675 922 1503 
Q 966 1331 1084 1222 
Q 1203 1113 1422 1113 
z
" transform="scale(0.015625)"/>
     </defs>
     <use xlink:href="#Cmmi10-72" transform="translate(0 0.609375)"/>
     <use xlink:href="#Cmr10-29" transform="translate(69.023495 0.609375)"/>
     <use xlink:href="#Cmr10-6a" transform="translate(166.709099 0.609375)"/>
     <use xlink:href="#Cmr10-42" transform="translate(194.394646 0.609375)"/>
     <use xlink:href="#Cmr10-1b" transform="translate(244.394646 0.609375)"/>
     <use xlink:href="#Cmr10-31" transform="translate(298.398937 -14.390587) scale(0.7)"/>
     <use xlink:href="#Cmmi10-3f" transform="translate(355.7864 0.609375)"/>
    </g>
   </g>
   <g id="text_6">
    <!-- $y=\log_{1/2}x$ -->
    <g style="fill: #d1242f" transform="translate(347.58 356.415529) scale(0.13 -0.13)">
     <defs>
      <path id="Cmr10-64" d="M 594 0 
L 594 225 
Q 1394 225 1394 428 
L 1394 3788 
Q 1063 3628 556 3628 
L 556 3853 
Q 1341 3853 1741 4263 
L 1831 4263 
Q 1853 4263 1873 4245 
Q 1894 4228 1894 4206 
L 1894 428 
Q 1894 225 2694 225 
L 2694 0 
L 594 0 
z
" transform="scale(0.015625)"/>
      <path id="Cmmi10-62" d="M 359 -1472 
Q 359 -1453 366 -1447 
L 2591 4722 
Q 2603 4759 2634 4779 
Q 2666 4800 2706 4800 
Q 2763 4800 2798 4765 
Q 2834 4731 2834 4672 
L 2834 4647 
L 609 -1522 
Q 572 -1600 488 -1600 
Q 434 -1600 396 -1562 
Q 359 -1525 359 -1472 
z
" transform="scale(0.015625)"/>
     </defs>
     <use xlink:href="#Cmmi10-72" transform="translate(0 0.609375)"/>
     <use xlink:href="#Cmr10-29" transform="translate(69.023495 0.609375)"/>
     <use xlink:href="#Cmr10-6a" transform="translate(166.709099 0.609375)"/>
     <use xlink:href="#Cmr10-42" transform="translate(194.394646 0.609375)"/>
     <use xlink:href="#Cmr10-1b" transform="translate(244.394646 0.609375)"/>
     <use xlink:href="#Cmr10-64" transform="translate(298.398937 -17.446198) scale(0.7)"/>
     <use xlink:href="#Cmmi10-62" transform="translate(333.398937 -17.446198) scale(0.7)"/>
     <use xlink:href="#Cmr10-31" transform="translate(368.398937 -17.446198) scale(0.7)"/>
     <use xlink:href="#Cmmi10-3f" transform="translate(425.7864 0.609375)"/>
    </g>
   </g>
   <g id="text_7">
    <!-- $(1,\,0)$ -->
    <g style="fill: #222831" transform="translate(155.07 318.324988) scale(0.12 -0.12)">
     <defs>
      <path id="Cmr10-77" d="M 1984 -1588 
Q 1628 -1306 1370 -942 
Q 1113 -578 948 -165 
Q 784 247 703 697 
Q 622 1147 622 1600 
Q 622 2059 703 2509 
Q 784 2959 951 3375 
Q 1119 3791 1378 4153 
Q 1638 4516 1984 4788 
Q 1984 4800 2016 4800 
L 2075 4800 
Q 2094 4800 2109 4783 
Q 2125 4766 2125 4744 
Q 2125 4716 2113 4703 
Q 1800 4397 1592 4047 
Q 1384 3697 1257 3301 
Q 1131 2906 1075 2482 
Q 1019 2059 1019 1600 
Q 1019 -434 2106 -1491 
Q 2125 -1509 2125 -1544 
Q 2125 -1559 2108 -1579 
Q 2091 -1600 2075 -1600 
L 2016 -1600 
Q 1984 -1600 1984 -1588 
z
" transform="scale(0.015625)"/>
      <path id="Cmmi10-2c" d="M 634 -1153 
Q 634 -1125 659 -1100 
Q 891 -878 1019 -587 
Q 1147 -297 1147 25 
L 1147 103 
Q 1044 0 891 0 
Q 744 0 641 103 
Q 538 206 538 353 
Q 538 503 641 603 
Q 744 703 891 703 
Q 1119 703 1216 492 
Q 1313 281 1313 25 
Q 1313 -331 1170 -651 
Q 1028 -972 769 -1228 
Q 744 -1241 728 -1241 
Q 697 -1241 665 -1212 
Q 634 -1184 634 -1153 
z
" transform="scale(0.015625)"/>
      <path id="Cmr10-28" d="M 1600 -141 
Q 816 -141 533 504 
Q 250 1150 250 2041 
Q 250 2597 351 3087 
Q 453 3578 754 3920 
Q 1056 4263 1600 4263 
Q 2022 4263 2290 4056 
Q 2559 3850 2700 3523 
Q 2841 3197 2892 2823 
Q 2944 2450 2944 2041 
Q 2944 1491 2842 1011 
Q 2741 531 2444 195 
Q 2147 -141 1600 -141 
z
M 1600 25 
Q 1956 25 2131 390 
Q 2306 756 2347 1200 
Q 2388 1644 2388 2144 
Q 2388 2625 2347 3031 
Q 2306 3438 2132 3767 
Q 1959 4097 1600 4097 
Q 1238 4097 1063 3765 
Q 888 3434 847 3029 
Q 806 2625 806 2144 
Q 806 1788 823 1472 
Q 841 1156 916 820 
Q 991 484 1158 254 
Q 1325 25 1600 25 
z
" transform="scale(0.015625)"/>
      <path id="Cmr10-44" d="M 416 -1600 
Q 359 -1600 359 -1544 
Q 359 -1516 372 -1503 
Q 1466 -434 1466 1600 
Q 1466 3634 384 4691 
Q 359 4706 359 4744 
Q 359 4766 376 4783 
Q 394 4800 416 4800 
L 475 4800 
Q 494 4800 506 4788 
Q 966 4425 1272 3906 
Q 1578 3388 1720 2800 
Q 1863 2213 1863 1600 
Q 1863 1147 1786 708 
Q 1709 269 1542 -157 
Q 1375 -584 1119 -945 
Q 863 -1306 506 -1588 
Q 494 -1600 475 -1600 
L 416 -1600 
z
" transform="scale(0.015625)"/>
     </defs>
     <use xlink:href="#Cmr10-77"/>
     <use xlink:href="#Cmr10-64" transform="translate(38.818359 0)"/>
     <use xlink:href="#Cmmi10-2c" transform="translate(88.818359 0)"/>
     <use xlink:href="#Cmr10-28" transform="translate(153.171011 0)"/>
     <use xlink:href="#Cmr10-44" transform="translate(203.171011 0)"/>
    </g>
   </g>
   <g id="text_8">
    <!-- 對 y = x 對稱（互為反函數） -->
    <g style="fill: #444444" transform="translate(15.57 40.733647) scale(0.115 -0.115)">
     <defs>
      <path id="NotoSansCJKjp-Regular-3d73" d="M 3693 2554 
C 3955 2086 4192 1472 4256 1082 
L 4691 1242 
C 4627 1632 4371 2234 4102 2694 
L 3693 2554 
z
M 339 5037 
C 531 4730 717 4320 781 4058 
L 1152 4230 
C 1088 4493 890 4890 685 5190 
L 339 5037 
z
M 3168 5222 
C 3053 4922 2829 4467 2662 4192 
L 2989 4045 
C 3174 4307 3398 4710 3590 5056 
L 3168 5222 
z
M 294 224 
L 358 -230 
C 1184 -122 2387 45 3514 205 
L 3501 627 
L 2138 448 
L 2138 1152 
L 3194 1152 
L 3194 1555 
L 2138 1555 
L 2138 2208 
L 3328 2208 
L 3328 2618 
L 2643 2618 
C 2778 2842 2925 3181 3066 3482 
L 2637 3603 
L 3494 3603 
L 3494 3206 
L 5005 3206 
L 5005 83 
C 5005 -32 4960 -64 4845 -70 
C 4749 -70 4397 -77 4006 -64 
C 4077 -192 4154 -397 4179 -518 
C 4704 -518 5011 -506 5203 -429 
C 5389 -352 5466 -218 5466 83 
L 5466 3206 
L 6150 3206 
L 6150 3654 
L 5466 3654 
L 5466 5338 
L 5005 5338 
L 5005 3654 
L 3558 3654 
L 3558 4013 
L 2554 4013 
L 2554 5344 
L 2157 5344 
L 2157 4013 
L 1670 4013 
L 1670 5344 
L 1274 5344 
L 1274 4013 
L 269 4013 
L 269 3603 
L 2618 3603 
C 2547 3334 2381 2957 2259 2714 
L 2592 2618 
L 1184 2618 
L 1542 2746 
C 1498 2976 1350 3328 1184 3597 
L 800 3469 
C 954 3200 1088 2848 1126 2618 
L 506 2618 
L 506 2208 
L 1690 2208 
L 1690 1555 
L 672 1555 
L 672 1152 
L 1690 1152 
L 1690 390 
L 294 224 
z
" transform="scale(0.015625)"/>
      <path id="NotoSansCJKjp-Regular-1" transform="scale(0.015625)"/>
      <path id="NotoSansCJKjp-Regular-5a" d="M 646 -1498 
C 1338 -1498 1702 -973 1946 -294 
L 3251 3475 
L 2682 3475 
L 2054 1549 
C 1965 1235 1862 883 1773 563 
L 1741 563 
C 1619 890 1504 1242 1395 1549 
L 691 3475 
L 83 3475 
L 1478 -6 
L 1402 -269 
C 1254 -698 1011 -1018 621 -1018 
C 525 -1018 422 -986 352 -960 
L 237 -1427 
C 346 -1472 486 -1498 646 -1498 
z
" transform="scale(0.015625)"/>
      <path id="NotoSansCJKjp-Regular-1e" d="M 243 2912 
L 3315 2912 
L 3315 3347 
L 243 3347 
L 243 2912 
z
M 243 1376 
L 3315 1376 
L 3315 1811 
L 243 1811 
L 243 1376 
z
" transform="scale(0.015625)"/>
      <path id="NotoSansCJKjp-Regular-59" d="M 96 0 
L 710 0 
L 1178 813 
C 1299 1024 1408 1235 1530 1434 
L 1562 1434 
C 1696 1235 1824 1024 1939 813 
L 2451 0 
L 3091 0 
L 1946 1754 
L 3002 3475 
L 2394 3475 
L 1965 2714 
C 1856 2515 1760 2330 1658 2131 
L 1626 2131 
C 1510 2330 1389 2515 1286 2714 
L 819 3475 
L 186 3475 
L 1242 1811 
L 96 0 
z
" transform="scale(0.015625)"/>
      <path id="NotoSansCJKjp-Regular-7251" d="M 3885 4454 
C 4019 4173 4134 3795 4160 3558 
L 4582 3674 
C 4550 3923 4435 4282 4288 4557 
L 3885 4454 
z
M 5088 4582 
C 5350 4205 5626 3686 5741 3347 
L 6157 3533 
C 6035 3866 5754 4365 5478 4742 
L 5088 4582 
z
M 4058 1760 
L 4058 1152 
L 3219 1152 
L 3219 1760 
L 4058 1760 
z
M 4058 2138 
L 3219 2138 
L 3219 2733 
L 4058 2733 
L 4058 2138 
z
M 4499 1760 
L 5402 1760 
L 5402 1152 
L 4499 1152 
L 4499 1760 
z
M 4499 2138 
L 4499 2733 
L 5402 2733 
L 5402 2138 
L 4499 2138 
z
M 2771 3123 
L 2771 1152 
L 2317 1152 
L 2317 742 
L 2771 742 
L 2771 -506 
L 3219 -506 
L 3219 742 
L 5402 742 
L 5402 13 
C 5402 -64 5370 -90 5293 -96 
C 5210 -96 4934 -96 4634 -83 
C 4698 -205 4774 -390 4800 -512 
C 5203 -512 5466 -506 5632 -429 
C 5798 -358 5850 -230 5850 6 
L 5850 742 
L 6208 742 
L 6208 1152 
L 5850 1152 
L 5850 3123 
L 4499 3123 
L 4499 3539 
L 4058 3539 
L 4058 3123 
L 2771 3123 
z
M 2112 5235 
C 1690 5030 922 4851 256 4730 
C 307 4640 371 4480 397 4378 
C 659 4416 941 4467 1222 4525 
L 1222 3526 
L 288 3526 
L 288 3085 
L 1152 3085 
C 934 2355 563 1517 211 1050 
C 288 934 403 749 454 614 
C 730 998 1005 1613 1222 2234 
L 1222 -525 
L 1677 -525 
L 1677 2304 
C 1882 2042 2125 1709 2227 1536 
L 2509 1901 
C 2387 2048 1850 2611 1677 2765 
L 1677 3085 
L 2464 3085 
L 2464 3469 
C 2579 3411 2707 3334 2778 3290 
C 3008 3616 3226 4090 3386 4589 
C 4179 4659 5075 4781 5715 4941 
L 5357 5286 
C 4890 5158 4115 5043 3392 4966 
L 3021 5037 
C 2886 4474 2656 3910 2355 3526 
L 1677 3526 
L 1677 4634 
C 1971 4710 2246 4800 2477 4896 
L 2112 5235 
z
" transform="scale(0.015625)"/>
      <path id="NotoSansCJKjp-Regular-e6ae" d="M 4448 2432 
C 4448 1184 4954 166 5722 -614 
L 6106 -416 
C 5370 346 4915 1293 4915 2432 
C 4915 3571 5370 4518 6106 5280 
L 5722 5478 
C 4954 4698 4448 3680 4448 2432 
z
" transform="scale(0.015625)"/>
      <path id="NotoSansCJKjp-Regular-25cd" d="M 333 224 
L 333 -224 
L 6086 -224 
L 6086 224 
L 4493 224 
C 4634 1114 4800 2515 4909 3578 
L 2304 3578 
L 2490 4512 
L 5894 4512 
L 5894 4966 
L 544 4966 
L 544 4512 
L 1971 4512 
C 1779 3392 1459 1914 1216 1024 
L 1728 979 
L 1811 1312 
L 4141 1312 
C 4090 915 4032 538 3981 224 
L 333 224 
z
M 2214 3142 
L 4365 3142 
C 4320 2701 4262 2214 4198 1747 
L 1914 1747 
C 2010 2176 2118 2656 2214 3142 
z
" transform="scale(0.015625)"/>
      <path id="NotoSansCJKjp-Regular-61a1" d="M 4083 1197 
C 4275 934 4474 563 4550 326 
L 4902 474 
C 4826 704 4621 1069 4416 1325 
L 4083 1197 
z
M 1312 5184 
C 1562 4915 1830 4544 1946 4294 
L 2387 4499 
C 2259 4742 1978 5107 1734 5357 
L 1312 5184 
z
M 2182 1043 
C 2298 627 2368 96 2349 -250 
L 2771 -186 
C 2771 160 2707 685 2579 1094 
L 2182 1043 
z
M 3130 1101 
C 3283 742 3437 275 3482 -26 
L 3885 83 
C 3827 378 3674 838 3501 1184 
L 3130 1101 
z
M 1363 1184 
C 1242 691 992 122 640 -218 
L 1011 -474 
C 1395 -90 1619 525 1766 1056 
L 1363 1184 
z
M 3251 5382 
C 3142 5011 3008 4640 2848 4282 
L 525 4282 
L 525 3840 
L 2637 3840 
C 2086 2765 1280 1798 192 1178 
C 275 1075 397 890 454 774 
C 832 998 1178 1254 1491 1542 
L 5472 1542 
C 5370 525 5267 96 5126 -32 
C 5069 -90 5005 -96 4890 -96 
C 4768 -102 4461 -96 4134 -64 
C 4211 -192 4269 -378 4275 -506 
C 4608 -525 4922 -525 5088 -512 
C 5280 -499 5402 -461 5523 -333 
C 5728 -128 5843 410 5965 1760 
C 5971 1824 5984 1965 5984 1965 
L 5286 1965 
C 5370 2298 5459 2746 5530 3123 
L 4800 3123 
C 4883 3456 4979 3898 5050 4282 
L 3373 4282 
C 3507 4602 3629 4928 3738 5261 
L 3251 5382 
z
M 1914 1965 
C 2125 2195 2323 2445 2502 2701 
L 5005 2701 
C 4960 2445 4896 2182 4838 1965 
L 1914 1965 
z
M 3168 3840 
L 4518 3840 
C 4467 3584 4410 3328 4352 3123 
L 2778 3123 
C 2918 3354 3046 3597 3168 3840 
z
" transform="scale(0.015625)"/>
      <path id="NotoSansCJKjp-Regular-2e5a" d="M 1088 4973 
L 1088 3226 
C 1088 2202 1030 787 326 -218 
C 442 -269 646 -416 730 -499 
C 1389 448 1549 1830 1568 2886 
L 1990 2886 
C 2285 2048 2694 1357 3245 806 
C 2688 397 2042 102 1363 -70 
C 1459 -179 1581 -384 1645 -512 
C 2362 -294 3034 19 3622 474 
C 4192 19 4890 -314 5728 -525 
C 5792 -390 5933 -186 6048 -77 
C 5242 96 4570 397 4013 806 
C 4659 1408 5158 2208 5440 3238 
L 5107 3379 
L 5011 3354 
L 1574 3354 
L 1574 4499 
L 5792 4499 
L 5792 4973 
L 1088 4973 
z
M 4800 2886 
C 4544 2176 4134 1594 3629 1126 
C 3130 1600 2752 2189 2496 2886 
L 4800 2886 
z
" transform="scale(0.015625)"/>
      <path id="NotoSansCJKjp-Regular-2b78" d="M 3635 1843 
C 4096 1530 4646 1062 4915 768 
L 5203 1114 
C 4928 1402 4378 1837 3904 2144 
L 3635 1843 
z
M 1344 3277 
C 1664 3008 2022 2605 2189 2336 
L 2515 2618 
C 2342 2874 1984 3251 1645 3520 
L 1344 3277 
z
M 1178 1242 
L 1414 845 
C 1811 1114 2304 1434 2771 1747 
L 2650 2112 
C 2099 1779 1549 1440 1178 1242 
z
M 4659 3603 
C 4467 3290 4115 2835 3853 2560 
L 4166 2374 
C 4442 2643 4774 3034 5056 3392 
L 4659 3603 
z
M 5370 3827 
L 5370 294 
L 1062 294 
L 1062 3827 
L 602 3827 
L 602 -506 
L 1062 -506 
L 1062 -147 
L 5370 -147 
L 5370 -486 
L 5843 -486 
L 5843 3827 
L 5370 3827 
z
M 378 4992 
L 378 4531 
L 2458 4531 
C 2368 4090 2253 3597 2157 3264 
L 2598 3206 
L 2650 3398 
L 3238 3398 
C 3187 1690 3123 1075 3008 928 
C 2957 858 2906 845 2816 845 
C 2720 845 2483 845 2227 870 
C 2291 762 2336 595 2342 474 
C 2605 461 2861 461 3008 474 
C 3174 486 3290 538 3392 666 
C 3552 877 3616 1574 3674 3584 
C 3674 3648 3680 3789 3680 3789 
L 2746 3789 
L 2912 4531 
L 6029 4531 
L 6029 4992 
L 378 4992 
z
" transform="scale(0.015625)"/>
      <path id="NotoSansCJKjp-Regular-4e26" d="M 4352 3744 
L 5318 3744 
C 5216 2957 5062 2266 4826 1677 
C 4595 2266 4442 2944 4333 3661 
L 4352 3744 
z
M 256 4301 
L 256 3936 
L 698 3936 
L 698 3245 
L 1741 3245 
L 1741 2950 
L 538 2950 
L 538 1882 
L 1485 1882 
L 1274 1478 
L 262 1472 
L 275 1088 
L 1069 1094 
C 928 845 787 608 666 422 
L 1062 307 
L 1171 486 
C 1389 403 1606 314 1818 218 
C 1459 32 998 -83 416 -154 
C 493 -256 570 -410 602 -538 
C 1293 -416 1837 -250 2246 13 
C 2522 -128 2765 -275 2957 -410 
L 3264 -102 
C 3078 19 2848 154 2586 282 
C 2816 512 2976 794 3072 1133 
L 3750 1152 
L 3763 1510 
L 1734 1485 
L 1939 1882 
L 3424 1882 
L 3424 2419 
C 3526 2336 3648 2221 3706 2157 
C 3834 2362 3949 2592 4051 2848 
C 4179 2221 4346 1645 4563 1146 
C 4256 614 3853 192 3309 -134 
C 3392 -224 3539 -429 3584 -525 
C 4090 -198 4486 192 4794 666 
C 5075 166 5414 -237 5850 -518 
C 5920 -403 6067 -224 6176 -141 
C 5709 141 5350 582 5062 1133 
C 5421 1843 5638 2707 5779 3744 
L 6144 3744 
L 6144 4186 
L 4467 4186 
C 4550 4544 4621 4922 4678 5306 
L 4211 5376 
C 4070 4339 3827 3315 3424 2618 
L 3424 2950 
L 2163 2950 
L 2163 3245 
L 3277 3245 
L 3277 3936 
L 3731 3936 
L 3731 4301 
L 3277 4301 
L 3277 4986 
L 2163 4986 
L 2163 5376 
L 1741 5376 
L 1741 4986 
L 698 4986 
L 698 4301 
L 256 4301 
z
M 1101 4646 
L 1741 4646 
L 1741 4282 
L 1101 4282 
L 1101 4646 
z
M 1741 3578 
L 1101 3578 
L 1101 3955 
L 1741 3955 
L 1741 3578 
z
M 2163 4646 
L 2848 4646 
L 2848 4282 
L 2163 4282 
L 2163 4646 
z
M 2163 3578 
L 2163 3955 
L 2848 3955 
L 2848 3578 
L 2163 3578 
z
M 947 2624 
L 1741 2624 
L 1741 2202 
L 947 2202 
L 947 2624 
z
M 2163 2624 
L 3002 2624 
L 3002 2202 
L 2163 2202 
L 2163 2624 
z
M 1530 1107 
L 2630 1126 
C 2534 864 2387 646 2189 467 
C 1920 589 1632 704 1357 800 
L 1530 1107 
z
" transform="scale(0.015625)"/>
      <path id="NotoSansCJKjp-Regular-e6af" d="M 1952 2432 
C 1952 3680 1446 4698 678 5478 
L 294 5280 
C 1030 4518 1485 3571 1485 2432 
C 1485 1293 1030 346 294 -416 
L 678 -614 
C 1446 166 1952 1184 1952 2432 
z
" transform="scale(0.015625)"/>
     </defs>
     <use xlink:href="#NotoSansCJKjp-Regular-3d73"/>
     <use xlink:href="#NotoSansCJKjp-Regular-1" transform="translate(100 0)"/>
     <use xlink:href="#NotoSansCJKjp-Regular-5a" transform="translate(122.40625 0)"/>
     <use xlink:href="#NotoSansCJKjp-Regular-1" transform="translate(174.5 0)"/>
     <use xlink:href="#NotoSansCJKjp-Regular-1e" transform="translate(196.90625 0)"/>
     <use xlink:href="#NotoSansCJKjp-Regular-1" transform="translate(252.40625 0)"/>
     <use xlink:href="#NotoSansCJKjp-Regular-59" transform="translate(274.8125 0)"/>
     <use xlink:href="#NotoSansCJKjp-Regular-1" transform="translate(324.609375 0)"/>
     <use xlink:href="#NotoSansCJKjp-Regular-3d73" transform="translate(347.015625 0)"/>
     <use xlink:href="#NotoSansCJKjp-Regular-7251" transform="translate(447.015625 0)"/>
     <use xlink:href="#NotoSansCJKjp-Regular-e6ae" transform="translate(547.015625 0)"/>
     <use xlink:href="#NotoSansCJKjp-Regular-25cd" transform="translate(647.015625 0)"/>
     <use xlink:href="#NotoSansCJKjp-Regular-61a1" transform="translate(747.015625 0)"/>
     <use xlink:href="#NotoSansCJKjp-Regular-2e5a" transform="translate(847.015625 0)"/>
     <use xlink:href="#NotoSansCJKjp-Regular-2b78" transform="translate(947.015625 0)"/>
     <use xlink:href="#NotoSansCJKjp-Regular-4e26" transform="translate(1047.015625 0)"/>
     <use xlink:href="#NotoSansCJKjp-Regular-e6af" transform="translate(1147.015625 0)"/>
    </g>
   </g>
   <g id="text_9">
    <!-- 對數函數 $y=\log_{a}x$，與 $y=a^{x}$ 對 $y=x$ 對稱 -->
    <g style="fill: #222831" transform="translate(66.78 19.08) scale(0.135 -0.135)">
     <defs>
      <path id="Cmmi10-79" d="M 1113 -72 
Q 709 -72 476 233 
Q 244 538 244 953 
Q 244 1363 456 1803 
Q 669 2244 1030 2536 
Q 1391 2828 1806 2828 
Q 1997 2828 2147 2725 
Q 2297 2622 2381 2444 
Q 2453 2700 2663 2700 
Q 2744 2700 2798 2651 
Q 2853 2603 2853 2522 
Q 2853 2503 2851 2493 
Q 2850 2484 2847 2472 
L 2400 684 
Q 2356 494 2356 372 
Q 2356 97 2541 97 
Q 2741 97 2845 351 
Q 2950 606 3022 941 
Q 3034 978 3072 978 
L 3150 978 
Q 3175 978 3190 956 
Q 3206 934 3206 916 
Q 3094 469 2961 198 
Q 2828 -72 2528 -72 
Q 2313 -72 2147 54 
Q 1981 181 1941 391 
Q 1528 -72 1113 -72 
z
M 1119 97 
Q 1350 97 1567 270 
Q 1784 444 1941 678 
Q 1947 684 1947 697 
L 2291 2088 
L 2297 2106 
Q 2259 2334 2132 2498 
Q 2006 2663 1791 2663 
Q 1575 2663 1389 2486 
Q 1203 2309 1075 2069 
Q 950 1813 836 1366 
Q 722 919 722 672 
Q 722 450 817 273 
Q 913 97 1119 97 
z
" transform="scale(0.015625)"/>
      <path id="NotoSansCJKjp-Regular-e6b2" d="M 1005 -685 
C 1677 -448 2112 77 2112 768 
C 2112 1216 1920 1504 1568 1504 
C 1306 1504 1082 1344 1082 1043 
C 1082 742 1299 589 1562 589 
L 1670 602 
C 1638 160 1357 -141 864 -346 
L 1005 -685 
z
" transform="scale(0.015625)"/>
      <path id="NotoSansCJKjp-Regular-8241" d="M 3795 563 
C 4480 218 5210 -211 5638 -531 
L 6093 -198 
C 5619 115 4845 544 4141 883 
L 3795 563 
z
M 2125 870 
C 1722 512 954 70 339 -186 
C 454 -275 621 -429 704 -525 
C 1306 -250 2067 179 2573 576 
L 2125 870 
z
M 288 1414 
L 288 966 
L 6131 966 
L 6131 1414 
L 5459 1414 
C 5517 2355 5549 3853 5555 4973 
L 4186 4973 
L 4186 4544 
L 5114 4544 
L 5107 3795 
L 4256 3795 
L 4256 3386 
L 5094 3386 
L 5069 2598 
L 4237 2598 
L 4237 2189 
L 5056 2189 
L 5011 1414 
L 3936 1414 
L 3936 3584 
L 2925 3584 
L 2925 4256 
L 4058 4256 
L 4058 4666 
L 2925 4666 
L 2925 5318 
L 2502 5318 
L 2502 3194 
L 3514 3194 
L 3514 1414 
L 2893 1414 
L 2893 2912 
L 2496 2912 
L 2496 1414 
L 1382 1414 
L 1357 2195 
L 2182 2195 
L 2182 2598 
L 1344 2598 
L 1318 3386 
L 2176 3386 
L 2176 3795 
L 1306 3795 
L 1280 4474 
C 1645 4614 2048 4800 2381 4973 
L 2003 5318 
C 1792 5171 1466 4986 1146 4832 
L 826 4928 
L 947 1414 
L 288 1414 
z
" transform="scale(0.015625)"/>
     </defs>
     <use xlink:href="#NotoSansCJKjp-Regular-3d73"/>
     <use xlink:href="#NotoSansCJKjp-Regular-4e26" transform="translate(99.999908 0)"/>
     <use xlink:href="#NotoSansCJKjp-Regular-2b78" transform="translate(199.999817 0)"/>
     <use xlink:href="#NotoSansCJKjp-Regular-4e26" transform="translate(299.999725 0)"/>
     <use xlink:href="#NotoSansCJKjp-Regular-1" transform="translate(399.999634 0)"/>
     <use xlink:href="#Cmmi10-72" transform="translate(422.399612 0)"/>
     <use xlink:href="#Cmr10-29" transform="translate(491.423107 0)"/>
     <use xlink:href="#Cmr10-6a" transform="translate(589.108711 0)"/>
     <use xlink:href="#Cmr10-42" transform="translate(616.794258 0)"/>
     <use xlink:href="#Cmr10-1b" transform="translate(666.794258 0)"/>
     <use xlink:href="#Cmmi10-79" transform="translate(720.798549 -14.999962) scale(0.7)"/>
     <use xlink:href="#Cmmi10-3f" transform="translate(780.134254 0)"/>
     <use xlink:href="#NotoSansCJKjp-Regular-e6b2" transform="translate(837.214332 0)"/>
     <use xlink:href="#NotoSansCJKjp-Regular-8241" transform="translate(937.214241 0)"/>
     <use xlink:href="#NotoSansCJKjp-Regular-1" transform="translate(1037.214149 0)"/>
     <use xlink:href="#Cmmi10-72" transform="translate(1059.614128 0)"/>
     <use xlink:href="#Cmr10-29" transform="translate(1128.637623 0)"/>
     <use xlink:href="#Cmmi10-79" transform="translate(1226.323227 0)"/>
     <use xlink:href="#Cmmi10-3f" transform="translate(1290.366612 41.289234) scale(0.7)"/>
     <use xlink:href="#NotoSansCJKjp-Regular-1" transform="translate(1336.043082 0)"/>
     <use xlink:href="#NotoSansCJKjp-Regular-3d73" transform="translate(1358.443061 0)"/>
     <use xlink:href="#NotoSansCJKjp-Regular-1" transform="translate(1458.442969 0)"/>
     <use xlink:href="#Cmmi10-72" transform="translate(1480.842948 0)"/>
     <use xlink:href="#Cmr10-29" transform="translate(1549.866442 0)"/>
     <use xlink:href="#Cmmi10-3f" transform="translate(1647.552046 0)"/>
     <use xlink:href="#NotoSansCJKjp-Regular-1" transform="translate(1704.632125 0)"/>
     <use xlink:href="#NotoSansCJKjp-Regular-3d73" transform="translate(1727.032103 0)"/>
     <use xlink:href="#NotoSansCJKjp-Regular-7251" transform="translate(1827.032012 0)"/>
    </g>
   </g>
   <g id="line2d_5">
    <path d="M 112.989567 388.096 
L 114.987699 379.485852 
L 117.110617 371.311445 
L 119.233534 363.938385 
L 121.356451 357.223489 
L 124.187008 349.111236 
L 127.017564 341.788769 
L 129.84812 335.115857 
L 132.678677 328.986591 
L 135.509233 323.319024 
L 139.047429 316.786505 
L 142.585624 310.77588 
L 146.12382 305.209893 
L 149.662015 300.027267 
L 153.90785 294.245222 
L 158.153684 288.875787 
L 162.399519 283.863975 
L 166.645353 279.16511 
L 171.598827 274.029894 
L 176.552301 269.222725 
L 181.505774 264.704197 
L 187.166887 259.851894 
L 192.828 255.293512 
L 199.196752 250.475066 
L 205.565504 245.946575 
L 211.934256 241.675114 
L 219.010647 237.197061 
L 226.087038 232.970502 
L 233.871068 228.579959 
L 242.362737 224.065397 
L 250.854406 219.806331 
L 260.053714 215.449016 
L 269.253023 211.330174 
L 279.15997 207.132884 
L 289.774556 202.881221 
L 301.096782 198.596115 
L 313.126647 194.295566 
L 325.156511 190.227481 
L 337.894015 186.147032 
L 351.339158 182.06713 
L 365.49194 177.998747 
L 380.352361 173.951122 
L 381.06 173.763701 
L 381.06 173.763701 
" clip-path="url(#pdef34e5a53)" style="fill: none; stroke: #1f6feb; stroke-width: 2.6; stroke-linecap: square"/>
   </g>
   <g id="line2d_6">
    <path d="M 98.712 54.09893 
L 99.419639 74.829682 
L 100.127278 91.066751 
L 101.542556 115.749725 
L 102.957835 134.306892 
L 104.373113 149.182174 
L 105.788391 161.59747 
L 107.203669 172.25212 
L 108.618947 181.584026 
L 110.741865 193.716609 
L 112.864782 204.162489 
L 114.987699 213.333913 
L 117.110617 221.508319 
L 119.233534 228.88138 
L 121.356451 235.596276 
L 124.187008 243.708529 
L 127.017564 251.030996 
L 129.84812 257.703907 
L 132.678677 263.833173 
L 135.509233 269.500741 
L 139.047429 276.03326 
L 142.585624 282.043885 
L 146.12382 287.609871 
L 149.662015 292.792498 
L 153.90785 298.574543 
L 158.153684 303.943978 
L 162.399519 308.955789 
L 166.645353 313.654655 
L 171.598827 318.789871 
L 176.552301 323.597039 
L 181.505774 328.115568 
L 187.166887 332.967871 
L 192.828 337.526252 
L 199.196752 342.344699 
L 205.565504 346.87319 
L 211.934256 351.14465 
L 219.010647 355.622704 
L 226.087038 359.849263 
L 233.871068 364.239806 
L 242.362737 368.754368 
L 250.854406 373.013434 
L 260.053714 377.370749 
L 269.253023 381.48959 
L 279.15997 385.68688 
L 285.101134 388.096 
L 285.101134 388.096 
" clip-path="url(#pdef34e5a53)" style="fill: none; stroke: #d1242f; stroke-width: 2.6; stroke-linecap: square"/>
   </g>
   <g id="patch_4">
    <path d="M 152.28 301.627765 
C 153.759833 301.627765 155.179256 301.077976 156.225656 300.099482 
C 157.272056 299.120989 157.86 297.793681 157.86 296.409882 
C 157.86 295.026084 157.272056 293.698776 156.225656 292.720282 
C 155.179256 291.741789 153.759833 291.192 152.28 291.192 
C 150.800167 291.192 149.380744 291.741789 148.334344 292.720282 
C 147.287944 293.698776 146.7 295.026084 146.7 296.409882 
C 146.7 297.793681 147.287944 299.120989 148.334344 300.099482 
C 149.380744 301.077976 150.800167 301.627765 152.28 301.627765 
z
" clip-path="url(#pdef34e5a53)" style="fill: #222831; stroke: #222831; stroke-linejoin: miter"/>
   </g>
  </g>
 </g>
 <defs>
  <clipPath id="pdef34e5a53">
   <rect x="7.2" y="25.08" width="379.44" height="354.816"/>
  </clipPath>
 </defs>
</svg>
