<?xml version="1.0" encoding="utf-8" standalone="no"?>
<!DOCTYPE svg PUBLIC "-//W3C//DTD SVG 1.1//EN"
  "http://www.w3.org/Graphics/SVG/1.1/DTD/svg11.dtd">
<svg xmlns:xlink="http://www.w3.org/1999/xlink" width="794.88pt" height="362.88pt" viewBox="0 0 794.88 362.88" xmlns="http://www.w3.org/2000/svg" version="1.1">
 <metadata>
  <rdf:RDF xmlns:dc="http://purl.org/dc/elements/1.1/" xmlns:cc="http://creativecommons.org/ns#" xmlns:rdf="http://www.w3.org/1999/02/22-rdf-syntax-ns#">
   <cc:Work>
    <dc:type rdf:resource="http://purl.org/dc/dcmitype/StillImage"/>
    <dc:format>image/svg+xml</dc:format>
    <dc:creator>
     <cc:Agent>
      <dc:title>Matplotlib v3.11.0, https://matplotlib.org/</dc:title>
     </cc:Agent>
    </dc:creator>
   </cc:Work>
  </rdf:RDF>
 </metadata>
 <defs>
  <style type="text/css">*{stroke-linejoin: round; stroke-linecap: butt}</style>
 </defs>
 <g id="figure_1">
  <g id="patch_1">
   <path d="M 0 362.88
L 794.88 362.88
L 794.88 0
L 0 0
z
" style="fill: #ffffff"/>
  </g>
  <g id="axes_1">
   <g id="patch_2">
    <path d="M 80.37 127.157538
L 167.477143 127.157538
Q 170.264571 127.157538 170.264571 124.476923
L 170.264571 80.916923
Q 170.264571 78.236308 167.477143 78.236308
L 80.37 78.236308
Q 77.582571 78.236308 77.582571 80.916923
L 77.582571 124.476923
Q 77.582571 127.157538 80.37 127.157538
z
" clip-path="url(#pc15c78ad54)" style="fill: #eaf2ff; stroke: #1f6feb; stroke-width: 1.6; stroke-linejoin: miter"/>
   </g>
   <g id="patch_3">
    <path d="M 209.288571 127.157538
L 296.395714 127.157538
Q 299.183143 127.157538 299.183143 124.476923
L 299.183143 80.916923
Q 299.183143 78.236308 296.395714 78.236308
L 209.288571 78.236308
Q 206.501143 78.236308 206.501143 80.916923
L 206.501143 124.476923
Q 206.501143 127.157538 209.288571 127.157538
z
" clip-path="url(#pc15c78ad54)" style="fill: #fff1c7; stroke: #bf8700; stroke-width: 1.6; stroke-linejoin: miter"/>
   </g>
   <g id="patch_4">
    <path d="M 338.207143 127.157538
L 425.314286 127.157538
Q 428.101714 127.157538 428.101714 124.476923
L 428.101714 80.916923
Q 428.101714 78.236308 425.314286 78.236308
L 338.207143 78.236308
Q 335.419714 78.236308 335.419714 80.916923
L 335.419714 124.476923
Q 335.419714 127.157538 338.207143 127.157538
z
" clip-path="url(#pc15c78ad54)" style="fill: #eaf2ff; stroke: #1f6feb; stroke-width: 1.6; stroke-linejoin: miter"/>
   </g>
   <g id="patch_5">
    <path d="M 467.125714 127.157538
L 554.232857 127.157538
Q 557.020286 127.157538 557.020286 124.476923
L 557.020286 80.916923
Q 557.020286 78.236308 554.232857 78.236308
L 467.125714 78.236308
Q 464.338286 78.236308 464.338286 80.916923
L 464.338286 124.476923
Q 464.338286 127.157538 467.125714 127.157538
z
" clip-path="url(#pc15c78ad54)" style="fill: #eaf2ff; stroke: #1f6feb; stroke-width: 1.6; stroke-linejoin: miter"/>
   </g>
   <g id="patch_6">
    <path d="M 596.044286 127.157538
L 683.151429 127.157538
Q 685.938857 127.157538 685.938857 124.476923
L 685.938857 80.916923
Q 685.938857 78.236308 683.151429 78.236308
L 596.044286 78.236308
Q 593.256857 78.236308 593.256857 80.916923
L 593.256857 124.476923
Q 593.256857 127.157538 596.044286 127.157538
z
" clip-path="url(#pc15c78ad54)" style="fill: #fff1c7; stroke: #bf8700; stroke-width: 1.6; stroke-linejoin: miter"/>
   </g>
   <g id="patch_7">
    <path d="M 76.885714 207.576
L 153.54 207.576
Q 156.327429 207.576 156.327429 204.895385
L 156.327429 174.068308
Q 156.327429 171.387692 153.54 171.387692
L 76.885714 171.387692
Q 74.098286 171.387692 74.098286 174.068308
L 74.098286 204.895385
Q 74.098286 207.576 76.885714 207.576
z
" clip-path="url(#pc15c78ad54)" style="fill: #f5f0ff; stroke: #8250df; stroke-width: 1.6; stroke-linejoin: miter"/>
   </g>
   <g id="patch_8">
    <path d="M 205.804286 207.576
L 282.458571 207.576
Q 285.246 207.576 285.246 204.895385
L 285.246 174.068308
Q 285.246 171.387692 282.458571 171.387692
L 205.804286 171.387692
Q 203.016857 171.387692 203.016857 174.068308
L 203.016857 204.895385
Q 203.016857 207.576 205.804286 207.576
z
" clip-path="url(#pc15c78ad54)" style="fill: #f5f0ff; stroke: #8250df; stroke-width: 1.6; stroke-linejoin: miter"/>
   </g>
   <g id="patch_9">
    <path d="M 334.722857 207.576
L 411.377143 207.576
Q 414.164571 207.576 414.164571 204.895385
L 414.164571 174.068308
Q 414.164571 171.387692 411.377143 171.387692
L 334.722857 171.387692
Q 331.935429 171.387692 331.935429 174.068308
L 331.935429 204.895385
Q 331.935429 207.576 334.722857 207.576
z
" clip-path="url(#pc15c78ad54)" style="fill: #f5f0ff; stroke: #8250df; stroke-width: 1.6; stroke-linejoin: miter"/>
   </g>
   <g id="patch_10">
    <path d="M 463.641429 207.576
L 540.295714 207.576
Q 543.083143 207.576 543.083143 204.895385
L 543.083143 174.068308
Q 543.083143 171.387692 540.295714 171.387692
L 463.641429 171.387692
Q 460.854 171.387692 460.854 174.068308
L 460.854 204.895385
Q 460.854 207.576 463.641429 207.576
z
" clip-path="url(#pc15c78ad54)" style="fill: #f5f0ff; stroke: #8250df; stroke-width: 1.6; stroke-linejoin: miter"/>
   </g>
   <g id="patch_11">
    <path d="M 592.56 207.576
L 669.214286 207.576
Q 672.001714 207.576 672.001714 204.895385
L 672.001714 174.068308
Q 672.001714 171.387692 669.214286 171.387692
L 592.56 171.387692
Q 589.772571 171.387692 589.772571 174.068308
L 589.772571 204.895385
Q 589.772571 207.576 592.56 207.576
z
" clip-path="url(#pc15c78ad54)" style="fill: #f5f0ff; stroke: #8250df; stroke-width: 1.6; stroke-linejoin: miter"/>
   </g>
   <g id="patch_12">
    <path d="M 76.885714 257.837538
L 153.54 257.837538
Q 156.327429 257.837538 156.327429 255.156923
L 156.327429 224.329846
Q 156.327429 221.649231 153.54 221.649231
L 76.885714 221.649231
Q 74.098286 221.649231 74.098286 224.329846
L 74.098286 255.156923
Q 74.098286 257.837538 76.885714 257.837538
z
" clip-path="url(#pc15c78ad54)" style="fill: #f5f0ff; stroke: #8250df; stroke-width: 1.6; stroke-linejoin: miter"/>
   </g>
   <g id="patch_13">
    <path d="M 205.804286 257.837538
L 282.458571 257.837538
Q 285.246 257.837538 285.246 255.156923
L 285.246 224.329846
Q 285.246 221.649231 282.458571 221.649231
L 205.804286 221.649231
Q 203.016857 221.649231 203.016857 224.329846
L 203.016857 255.156923
Q 203.016857 257.837538 205.804286 257.837538
z
" clip-path="url(#pc15c78ad54)" style="fill: #f5f0ff; stroke: #8250df; stroke-width: 1.6; stroke-linejoin: miter"/>
   </g>
   <g id="patch_14">
    <path d="M 334.722857 257.837538
L 411.377143 257.837538
Q 414.164571 257.837538 414.164571 255.156923
L 414.164571 224.329846
Q 414.164571 221.649231 411.377143 221.649231
L 334.722857 221.649231
Q 331.935429 221.649231 331.935429 224.329846
L 331.935429 255.156923
Q 331.935429 257.837538 334.722857 257.837538
z
" clip-path="url(#pc15c78ad54)" style="fill: #f5f0ff; stroke: #8250df; stroke-width: 1.6; stroke-linejoin: miter"/>
   </g>
   <g id="patch_15">
    <path d="M 463.641429 257.837538
L 540.295714 257.837538
Q 543.083143 257.837538 543.083143 255.156923
L 543.083143 224.329846
Q 543.083143 221.649231 540.295714 221.649231
L 463.641429 221.649231
Q 460.854 221.649231 460.854 224.329846
L 460.854 255.156923
Q 460.854 257.837538 463.641429 257.837538
z
" clip-path="url(#pc15c78ad54)" style="fill: #f5f0ff; stroke: #8250df; stroke-width: 1.6; stroke-linejoin: miter"/>
   </g>
   <g id="patch_16">
    <path d="M 592.56 257.837538
L 669.214286 257.837538
Q 672.001714 257.837538 672.001714 255.156923
L 672.001714 224.329846
Q 672.001714 221.649231 669.214286 221.649231
L 592.56 221.649231
Q 589.772571 221.649231 589.772571 224.329846
L 589.772571 255.156923
Q 589.772571 257.837538 592.56 257.837538
z
" clip-path="url(#pc15c78ad54)" style="fill: #f5f0ff; stroke: #8250df; stroke-width: 1.6; stroke-linejoin: miter"/>
   </g>
   <g id="text_1">
    <!-- 在 $(x+y)^5$ 中形成 $x^3y^2$：選 2 個因子提供 $y$ -->
    <g style="fill: #222831" transform="translate(264.72 44.058462) scale(0.14 -0.14)">
     <defs>
      <path id="NotoSansCJKtc-Regular-33c7" d="M 2502 5376
C 2413 5050 2298 4710 2163 4384
L 403 4384
L 403 3923
L 1952 3923
C 1542 3104 979 2342 243 1830
C 320 1722 442 1517 493 1389
C 762 1581 1011 1798 1235 2035
L 1235 -486
L 1715 -486
L 1715 2605
C 2016 3014 2278 3462 2496 3923
L 6010 3923
L 6010 4384
L 2694 4384
C 2810 4672 2912 4966 3002 5254
L 2502 5376
z
M 3827 3590
L 3827 2355
L 2387 2355
L 2387 1907
L 3827 1907
L 3827 90
L 2131 90
L 2131 -358
L 6003 -358
L 6003 90
L 4307 90
L 4307 1907
L 5760 1907
L 5760 2355
L 4307 2355
L 4307 3590
L 3827 3590
z
" transform="scale(0.015625)"/>
      <path id="NotoSansCJKtc-Regular-1" transform="scale(0.015625)"/>
      <path id="Cmr10-77" d="M 1984 -1588
Q 1628 -1306 1370 -942
Q 1113 -578 948 -165
Q 784 247 703 697
Q 622 1147 622 1600
Q 622 2059 703 2509
Q 784 2959 951 3375
Q 1119 3791 1378 4153
Q 1638 4516 1984 4788
Q 1984 4800 2016 4800
L 2075 4800
Q 2094 4800 2109 4783
Q 2125 4766 2125 4744
Q 2125 4716 2113 4703
Q 1800 4397 1592 4047
Q 1384 3697 1257 3301
Q 1131 2906 1075 2482
Q 1019 2059 1019 1600
Q 1019 -434 2106 -1491
Q 2125 -1509 2125 -1544
Q 2125 -1559 2108 -1579
Q 2091 -1600 2075 -1600
L 2016 -1600
Q 1984 -1600 1984 -1588
z
" transform="scale(0.015625)"/>
      <path id="Cmmi10-3f" d="M 500 184
Q 613 97 819 97
Q 1019 97 1172 289
Q 1325 481 1381 709
L 1672 1844
Q 1741 2153 1741 2266
Q 1741 2425 1652 2544
Q 1563 2663 1403 2663
Q 1200 2663 1022 2536
Q 844 2409 722 2214
Q 600 2019 550 1819
Q 538 1778 500 1778
L 422 1778
Q 372 1778 372 1838
L 372 1856
Q 434 2094 584 2320
Q 734 2547 951 2687
Q 1169 2828 1416 2828
Q 1650 2828 1839 2703
Q 2028 2578 2106 2363
Q 2216 2559 2386 2693
Q 2556 2828 2759 2828
Q 2897 2828 3040 2779
Q 3184 2731 3275 2631
Q 3366 2531 3366 2381
Q 3366 2219 3261 2101
Q 3156 1984 2994 1984
Q 2891 1984 2822 2050
Q 2753 2116 2753 2216
Q 2753 2350 2845 2451
Q 2938 2553 3066 2572
Q 2950 2663 2747 2663
Q 2541 2663 2389 2472
Q 2238 2281 2175 2047
L 1894 916
Q 1825 659 1825 494
Q 1825 331 1917 214
Q 2009 97 2163 97
Q 2463 97 2698 361
Q 2934 625 3009 941
Q 3022 978 3059 978
L 3138 978
Q 3163 978 3178 961
Q 3194 944 3194 922
Q 3194 916 3188 903
Q 3097 522 2806 225
Q 2516 -72 2150 -72
Q 1916 -72 1727 54
Q 1538 181 1459 397
Q 1359 209 1182 68
Q 1006 -72 806 -72
Q 669 -72 523 -23
Q 378 25 287 125
Q 197 225 197 378
Q 197 528 301 651
Q 406 775 563 775
Q 669 775 741 711
Q 813 647 813 544
Q 813 409 723 309
Q 634 209 500 184
z
" transform="scale(0.015625)"/>
      <path id="Cmr10-4c" d="M 481 1472
Q 428 1472 393 1512
Q 359 1553 359 1600
Q 359 1647 393 1687
Q 428 1728 481 1728
L 2363 1728
L 2363 3616
Q 2363 3666 2400 3698
Q 2438 3731 2491 3731
Q 2538 3731 2578 3698
Q 2619 3666 2619 3616
L 2619 1728
L 4500 1728
Q 4547 1728 4581 1687
Q 4616 1647 4616 1600
Q 4616 1553 4581 1512
Q 4547 1472 4500 1472
L 2619 1472
L 2619 -416
Q 2619 -466 2578 -498
Q 2538 -531 2491 -531
Q 2438 -531 2400 -498
Q 2363 -466 2363 -416
L 2363 1472
L 481 1472
z
" transform="scale(0.015625)"/>
      <path id="Cmmi10-72" d="M 538 -916
Q 672 -1147 1006 -1147
Q 1309 -1147 1531 -934
Q 1753 -722 1889 -420
Q 2025 -119 2100 197
Q 1816 -72 1484 -72
Q 1231 -72 1053 15
Q 875 103 776 276
Q 678 450 678 697
Q 678 906 734 1126
Q 791 1347 892 1617
Q 994 1888 1069 2088
Q 1153 2322 1153 2472
Q 1153 2663 1013 2663
Q 759 2663 595 2402
Q 431 2141 353 1819
Q 341 1778 300 1778
L 225 1778
Q 172 1778 172 1838
L 172 1856
Q 275 2238 487 2533
Q 700 2828 1025 2828
Q 1253 2828 1411 2678
Q 1569 2528 1569 2297
Q 1569 2178 1516 2047
Q 1488 1969 1388 1706
Q 1288 1444 1234 1272
Q 1181 1100 1147 934
Q 1113 769 1113 603
Q 1113 391 1203 244
Q 1294 97 1491 97
Q 1888 97 2203 581
L 2688 2553
Q 2709 2638 2787 2698
Q 2866 2759 2956 2759
Q 3034 2759 3092 2709
Q 3150 2659 3150 2578
Q 3150 2541 3144 2528
L 2509 -19
Q 2425 -347 2200 -647
Q 1975 -947 1658 -1130
Q 1341 -1313 997 -1313
Q 831 -1313 668 -1248
Q 506 -1184 406 -1056
Q 306 -928 306 -756
Q 306 -581 409 -453
Q 513 -325 684 -325
Q 788 -325 858 -389
Q 928 -453 928 -556
Q 928 -703 818 -812
Q 709 -922 563 -922
Q 556 -919 550 -917
Q 544 -916 538 -916
z
" transform="scale(0.015625)"/>
      <path id="Cmr10-44" d="M 416 -1600
Q 359 -1600 359 -1544
Q 359 -1516 372 -1503
Q 1466 -434 1466 1600
Q 1466 3634 384 4691
Q 359 4706 359 4744
Q 359 4766 376 4783
Q 394 4800 416 4800
L 475 4800
Q 494 4800 506 4788
Q 966 4425 1272 3906
Q 1578 3388 1720 2800
Q 1863 2213 1863 1600
Q 1863 1147 1786 708
Q 1709 269 1542 -157
Q 1375 -584 1119 -945
Q 863 -1306 506 -1588
Q 494 -1600 475 -1600
L 416 -1600
z
" transform="scale(0.015625)"/>
      <path id="Cmr10-78" d="M 556 728
Q 622 541 758 387
Q 894 234 1080 148
Q 1266 63 1466 63
Q 1928 63 2103 422
Q 2278 781 2278 1294
Q 2278 1516 2270 1667
Q 2263 1819 2228 1959
Q 2169 2184 2020 2353
Q 1872 2522 1656 2522
Q 1441 2522 1286 2456
Q 1131 2391 1034 2303
Q 938 2216 863 2119
Q 788 2022 769 2016
L 697 2016
Q 681 2016 657 2036
Q 634 2056 634 2075
L 634 4213
Q 634 4228 654 4245
Q 675 4263 697 4263
L 716 4263
Q 1147 4056 1631 4056
Q 2106 4056 2547 4263
L 2566 4263
Q 2588 4263 2606 4247
Q 2625 4231 2625 4213
L 2625 4153
Q 2625 4122 2613 4122
Q 2394 3831 2064 3668
Q 1734 3506 1381 3506
Q 1125 3506 856 3578
L 856 2369
Q 1069 2541 1236 2614
Q 1403 2688 1663 2688
Q 2016 2688 2295 2484
Q 2575 2281 2725 1954
Q 2875 1628 2875 1288
Q 2875 903 2686 575
Q 2497 247 2172 53
Q 1847 -141 1466 -141
Q 1150 -141 886 21
Q 622 184 470 459
Q 319 734 319 1044
Q 319 1188 412 1278
Q 506 1369 647 1369
Q 788 1369 883 1276
Q 978 1184 978 1044
Q 978 906 883 811
Q 788 716 647 716
Q 625 716 597 720
Q 569 725 556 728
z
" transform="scale(0.015625)"/>
      <path id="NotoSansCJKtc-Regular-2548" d="M 2931 5376
L 2931 4230
L 614 4230
L 614 1190
L 1094 1190
L 1094 1587
L 2931 1587
L 2931 -506
L 3437 -506
L 3437 1587
L 5280 1587
L 5280 1222
L 5773 1222
L 5773 4230
L 3437 4230
L 3437 5376
L 2931 5376
z
M 1094 2061
L 1094 3763
L 2931 3763
L 2931 2061
L 1094 2061
z
M 5280 2061
L 3437 2061
L 3437 3763
L 5280 3763
L 5280 2061
z
" transform="scale(0.015625)"/>
      <path id="NotoSansCJKtc-Regular-43ac" d="M 5414 5274
C 5018 4755 4288 4211 3674 3904
C 3795 3814 3936 3674 4019 3565
C 4672 3923 5389 4499 5862 5088
L 5414 5274
z
M 5600 3507
C 5171 2950 4397 2374 3738 2042
C 3859 1946 4000 1798 4083 1702
C 4768 2080 5542 2701 6035 3328
L 5600 3507
z
M 5747 1779
C 5267 979 4358 269 3405 -122
C 3533 -224 3674 -390 3750 -506
C 4736 -51 5651 710 6195 1600
L 5747 1779
z
M 2586 4531
L 2586 2874
L 1555 2874
L 1555 4531
L 2586 4531
z
M 262 2874
L 262 2426
L 1094 2426
C 1069 1472 928 531 237 -230
C 352 -294 518 -448 595 -550
C 1363 288 1523 1350 1549 2426
L 2586 2426
L 2586 -506
L 3059 -506
L 3059 2426
L 3750 2426
L 3750 2874
L 3059 2874
L 3059 4531
L 3667 4531
L 3667 4979
L 371 4979
L 371 4531
L 1101 4531
L 1101 2874
L 262 2874
z
" transform="scale(0.015625)"/>
      <path id="NotoSansCJKtc-Regular-4857" d="M 3482 5370
C 3482 5005 3494 4640 3514 4288
L 819 4288
L 819 2490
C 819 1658 762 550 230 -237
C 346 -294 550 -461 634 -557
C 1222 288 1318 1581 1318 2483
L 1318 2528
L 2490 2528
C 2464 1427 2432 1018 2349 922
C 2298 864 2240 851 2144 851
C 2035 851 1760 851 1466 883
C 1542 762 1594 570 1600 435
C 1914 416 2208 416 2374 429
C 2547 448 2656 493 2758 614
C 2893 787 2925 1331 2957 2771
C 2957 2835 2963 2976 2963 2976
L 1318 2976
L 1318 3821
L 3546 3821
C 3622 2784 3776 1837 4019 1101
C 3597 614 3104 218 2534 -83
C 2637 -179 2810 -378 2886 -480
C 3379 -186 3821 166 4211 589
C 4506 -70 4890 -467 5382 -467
C 5875 -467 6054 -147 6138 947
C 6010 992 5830 1101 5722 1210
C 5683 358 5606 26 5421 26
C 5094 26 4806 390 4570 1018
C 5043 1632 5421 2362 5696 3200
L 5216 3322
C 5011 2675 4736 2093 4390 1581
C 4224 2202 4102 2963 4032 3821
L 6086 3821
L 6086 4288
L 4006 4288
C 3987 4640 3981 4998 3981 5370
L 3482 5370
z
M 4294 5056
C 4704 4845 5197 4518 5440 4288
L 5741 4621
C 5491 4838 4986 5152 4582 5350
L 4294 5056
z
" transform="scale(0.015625)"/>
      <path id="Cmr10-6e" d="M 609 494
Q 759 275 1012 169
Q 1266 63 1556 63
Q 1928 63 2084 380
Q 2241 697 2241 1100
Q 2241 1281 2208 1462
Q 2175 1644 2097 1800
Q 2019 1956 1883 2050
Q 1747 2144 1550 2144
L 1125 2144
Q 1069 2144 1069 2203
L 1069 2259
Q 1069 2309 1125 2309
L 1478 2338
Q 1703 2338 1851 2506
Q 2000 2675 2069 2917
Q 2138 3159 2138 3378
Q 2138 3684 1994 3881
Q 1850 4078 1556 4078
Q 1313 4078 1091 3986
Q 869 3894 738 3706
Q 750 3709 759 3711
Q 769 3713 781 3713
Q 925 3713 1022 3613
Q 1119 3513 1119 3372
Q 1119 3234 1022 3134
Q 925 3034 781 3034
Q 641 3034 541 3134
Q 441 3234 441 3372
Q 441 3647 606 3850
Q 772 4053 1033 4158
Q 1294 4263 1556 4263
Q 1750 4263 1965 4205
Q 2181 4147 2356 4039
Q 2531 3931 2642 3762
Q 2753 3594 2753 3378
Q 2753 3109 2633 2881
Q 2513 2653 2303 2487
Q 2094 2322 1844 2241
Q 2122 2188 2372 2031
Q 2622 1875 2773 1631
Q 2925 1388 2925 1106
Q 2925 753 2731 467
Q 2538 181 2222 20
Q 1906 -141 1556 -141
Q 1256 -141 954 -26
Q 653 88 461 316
Q 269 544 269 863
Q 269 1022 375 1128
Q 481 1234 641 1234
Q 744 1234 830 1186
Q 916 1138 964 1050
Q 1013 963 1013 863
Q 1013 706 903 600
Q 794 494 641 494
L 609 494
z
" transform="scale(0.015625)"/>
      <path id="Cmr10-31" d="M 319 0
L 319 172
Q 319 188 331 206
L 1325 1306
Q 1550 1550 1690 1715
Q 1831 1881 1968 2097
Q 2106 2313 2186 2536
Q 2266 2759 2266 3009
Q 2266 3272 2169 3511
Q 2072 3750 1880 3894
Q 1688 4038 1416 4038
Q 1138 4038 916 3870
Q 694 3703 603 3438
Q 628 3444 672 3444
Q 816 3444 917 3347
Q 1019 3250 1019 3097
Q 1019 2950 917 2848
Q 816 2747 672 2747
Q 522 2747 420 2851
Q 319 2956 319 3097
Q 319 3338 409 3548
Q 500 3759 670 3923
Q 841 4088 1055 4175
Q 1269 4263 1509 4263
Q 1875 4263 2190 4108
Q 2506 3953 2690 3670
Q 2875 3388 2875 3009
Q 2875 2731 2753 2481
Q 2631 2231 2440 2026
Q 2250 1822 1953 1562
Q 1656 1303 1563 1216
L 838 519
L 1453 519
Q 1906 519 2211 526
Q 2516 534 2534 550
Q 2609 631 2688 1141
L 2875 1141
L 2694 0
L 319 0
z
" transform="scale(0.015625)"/>
      <path id="NotoSansCJKtc-Regular-e6c0" d="M 3200 3482
C 3456 3482 3686 3667 3686 3962
C 3686 4256 3456 4442 3200 4442
C 2944 4442 2714 4256 2714 3962
C 2714 3667 2944 3482 3200 3482
z
M 3200 346
C 3456 346 3686 538 3686 826
C 3686 1120 3456 1312 3200 1312
C 2944 1312 2714 1120 2714 826
C 2714 538 2944 346 3200 346
z
" transform="scale(0.015625)"/>
      <path id="NotoSansCJKtc-Regular-9e61" d="M 4320 1037
C 4787 813 5267 518 5536 275
L 5965 493
C 5651 736 5120 1030 4640 1254
L 4320 1037
z
M 3245 1254
C 2944 986 2458 730 2003 550
C 2118 486 2291 339 2374 256
C 2816 461 3334 781 3680 1101
L 3245 1254
z
M 429 5126
C 717 4806 1069 4365 1242 4096
L 1613 4358
C 1434 4614 1082 5024 787 5338
L 429 5126
z
M 4480 3110
L 4480 2650
L 3482 2650
L 3482 3110
L 3034 3110
L 3034 2650
L 2144 2650
L 2144 2278
L 3034 2278
L 3034 1677
L 1875 1677
L 1875 1306
L 6074 1306
L 6074 1677
L 4928 1677
L 4928 2278
L 5862 2278
L 5862 2650
L 4928 2650
L 4928 3110
L 4480 3110
z
M 3482 2278
L 4480 2278
L 4480 1677
L 3482 1677
L 3482 2278
z
M 2106 3059
C 2214 3123 2406 3162 3834 3418
C 3834 3501 3846 3654 3872 3757
L 2496 3546
L 2496 4038
L 3808 4038
L 3808 5126
L 2106 5126
L 2106 3808
C 2106 3565 2016 3488 1933 3443
C 1997 3347 2080 3168 2106 3059
z
M 2496 4794
L 3398 4794
L 3398 4371
L 2496 4371
L 2496 4794
z
M 4141 5120
L 4141 3821
C 4141 3379 4250 3226 4691 3226
C 4794 3226 5453 3226 5594 3226
C 5766 3226 5946 3232 6035 3258
C 6022 3347 6010 3494 5997 3603
C 5894 3578 5696 3571 5581 3571
C 5453 3571 4845 3571 4710 3571
C 4563 3571 4538 3629 4538 3808
L 4538 4032
L 5888 4032
L 5888 5120
L 4141 5120
z
M 4538 4787
L 5466 4787
L 5466 4365
L 4538 4365
L 4538 4787
z
M 410 1818
C 454 1869 621 1914 774 1914
L 1350 1914
C 1158 922 749 205 186 -198
C 288 -262 442 -422 512 -525
C 813 -294 1082 26 1299 442
C 1805 -288 2611 -416 3930 -416
C 4640 -416 5453 -403 6054 -365
C 6080 -230 6144 -6 6221 102
C 5555 38 4614 6 3930 6
C 2720 13 1901 109 1478 832
C 1638 1229 1760 1696 1837 2227
L 1600 2310
L 1517 2304
L 896 2304
C 1197 2739 1594 3430 1811 3802
L 1491 3930
L 1402 3891
L 301 3891
L 301 3488
L 1158 3488
C 941 3091 634 2573 518 2438
C 422 2317 326 2278 230 2246
C 282 2157 384 1933 410 1818
z
" transform="scale(0.015625)"/>
      <path id="NotoSansCJKtc-Regular-13" d="M 282 0
L 3232 0
L 3232 506
L 1933 506
C 1696 506 1408 480 1165 461
C 2266 1504 3008 2458 3008 3398
C 3008 4230 2477 4774 1638 4774
C 1043 4774 634 4506 256 4090
L 595 3757
C 858 4070 1184 4301 1568 4301
C 2150 4301 2432 3910 2432 3373
C 2432 2566 1754 1632 282 346
L 282 0
z
" transform="scale(0.015625)"/>
      <path id="NotoSansCJKtc-Regular-2815" d="M 3533 2195
L 4614 2195
L 4614 1197
L 3533 1197
L 3533 2195
z
M 2189 4992
L 2189 -506
L 2630 -506
L 2630 -128
L 5472 -128
L 5472 -461
L 5933 -461
L 5933 4992
L 2189 4992
z
M 2630 307
L 2630 4563
L 5472 4563
L 5472 307
L 2630 307
z
M 3162 2554
L 3162 838
L 4998 838
L 4998 2554
L 4256 2554
L 4256 3258
L 5254 3258
L 5254 3629
L 4256 3629
L 4256 4358
L 3866 4358
L 3866 3629
L 2899 3629
L 2899 3258
L 3866 3258
L 3866 2554
L 3162 2554
z
M 1523 5344
C 1203 4378 685 3411 109 2784
C 192 2662 320 2400 365 2291
C 582 2541 787 2829 986 3142
L 986 -518
L 1446 -518
L 1446 3968
C 1645 4371 1824 4794 1965 5216
L 1523 5344
z
" transform="scale(0.015625)"/>
      <path id="NotoSansCJKtc-Regular-3355" d="M 3027 4403
C 3014 4038 3002 3686 2963 3360
L 1357 3360
L 1357 2918
L 2906 2918
C 2752 1978 2368 1235 1363 800
C 1466 723 1606 544 1664 422
C 2515 819 2963 1414 3206 2163
C 3782 1613 4390 934 4698 486
L 5043 774
C 4691 1274 3974 2035 3315 2592
L 3379 2918
L 5043 2918
L 5043 3360
L 3430 3360
C 3462 3693 3482 4038 3494 4403
L 3027 4403
z
M 525 5114
L 525 -506
L 979 -506
L 979 -192
L 5421 -192
L 5421 -506
L 5888 -506
L 5888 5114
L 525 5114
z
M 979 218
L 979 4678
L 5421 4678
L 5421 218
L 979 218
z
" transform="scale(0.015625)"/>
      <path id="NotoSansCJKtc-Regular-3bf9" d="M 2976 3456
L 2976 2528
L 326 2528
L 326 2048
L 2976 2048
L 2976 128
C 2976 13 2931 -19 2803 -26
C 2662 -32 2189 -38 1670 -13
C 1747 -154 1837 -371 1875 -512
C 2490 -512 2906 -499 3142 -422
C 3392 -346 3475 -198 3475 122
L 3475 2048
L 6099 2048
L 6099 2528
L 3475 2528
L 3475 3206
C 4205 3584 5030 4160 5587 4698
L 5222 4973
L 5114 4941
L 966 4941
L 966 4467
L 4582 4467
C 4128 4096 3507 3706 2976 3456
z
" transform="scale(0.015625)"/>
      <path id="NotoSansCJKtc-Regular-4b20" d="M 3059 3949
L 5197 3949
L 5197 3443
L 3059 3443
L 3059 3949
z
M 3059 4800
L 5197 4800
L 5197 4294
L 3059 4294
L 3059 4800
z
M 2618 5165
L 2618 3072
L 5658 3072
L 5658 5165
L 2618 5165
z
M 2746 1901
C 2643 954 2355 230 1786 -224
C 1888 -288 2074 -435 2144 -512
C 2483 -211 2739 179 2918 666
C 3334 -237 4013 -416 4947 -416
L 6067 -416
C 6086 -288 6150 -90 6214 19
C 5990 13 5126 13 4966 13
C 4749 13 4544 19 4352 51
L 4352 1056
L 5696 1056
L 5696 1453
L 4352 1453
L 4352 2208
L 6010 2208
L 6010 2611
L 2330 2611
L 2330 2208
L 3898 2208
L 3898 173
C 3533 333 3251 621 3066 1158
C 3117 1376 3155 1606 3187 1850
L 2746 1901
z
M 1050 5370
L 1050 4083
L 256 4083
L 256 3635
L 1050 3635
L 1050 2227
C 723 2125 422 2042 186 1978
L 307 1504
L 1050 1747
L 1050 90
C 1050 0 1018 -26 941 -26
C 864 -32 614 -32 339 -26
C 397 -154 461 -352 474 -467
C 877 -474 1126 -454 1280 -378
C 1440 -307 1498 -173 1498 90
L 1498 1894
L 2208 2131
L 2144 2566
L 1498 2368
L 1498 3635
L 2208 3635
L 2208 4083
L 1498 4083
L 1498 5370
L 1050 5370
z
" transform="scale(0.015625)"/>
      <path id="NotoSansCJKtc-Regular-2760" d="M 3098 1139
C 2829 640 2381 141 1939 -192
C 2054 -262 2234 -416 2323 -493
C 2758 -128 3245 442 3558 992
L 3098 1139
z
M 4557 902
C 4979 474 5453 -122 5670 -512
L 6074 -256
C 5850 128 5370 698 4934 1120
L 4557 902
z
M 1722 5363
C 1357 4390 762 3424 134 2810
C 218 2694 358 2445 403 2330
C 621 2554 832 2816 1037 3098
L 1037 -499
L 1510 -499
L 1510 3840
C 1766 4282 1990 4749 2176 5222
L 1722 5363
z
M 4685 5312
L 4685 4006
L 3437 4006
L 3437 5306
L 2970 5306
L 2970 4006
L 2144 4006
L 2144 3546
L 2970 3546
L 2970 1965
L 1984 1965
L 1984 1498
L 6144 1498
L 6144 1965
L 5158 1965
L 5158 3546
L 6074 3546
L 6074 4006
L 5158 4006
L 5158 5312
L 4685 5312
z
M 3437 3546
L 4685 3546
L 4685 1965
L 3437 1965
L 3437 3546
z
" transform="scale(0.015625)"/>
     </defs>
     <use xlink:href="#NotoSansCJKtc-Regular-33c7" transform="translate(0 0.084203)"/>
     <use xlink:href="#NotoSansCJKtc-Regular-1" transform="translate(99.999908 0.084203)"/>
     <use xlink:href="#Cmr10-77" transform="translate(122.399887 0.084203)"/>
     <use xlink:href="#Cmmi10-3f" transform="translate(161.218246 0.084203)"/>
     <use xlink:href="#Cmr10-4c" transform="translate(238.298382 0.084203)"/>
     <use xlink:href="#Cmmi10-72" transform="translate(335.983986 0.084203)"/>
     <use xlink:href="#Cmr10-44" transform="translate(385.007423 0.084203)"/>
     <use xlink:href="#Cmr10-78" transform="translate(427.830074 41.373437) scale(0.7)"/>
     <use xlink:href="#NotoSansCJKtc-Regular-1" transform="translate(468.550489 0.084203)"/>
     <use xlink:href="#NotoSansCJKtc-Regular-2548" transform="translate(490.950468 0.084203)"/>
     <use xlink:href="#NotoSansCJKtc-Regular-43ac" transform="translate(590.950376 0.084203)"/>
     <use xlink:href="#NotoSansCJKtc-Regular-4857" transform="translate(690.950285 0.084203)"/>
     <use xlink:href="#NotoSansCJKtc-Regular-1" transform="translate(790.950193 0.084203)"/>
     <use xlink:href="#Cmmi10-3f" transform="translate(813.350172 0.084203)"/>
     <use xlink:href="#Cmr10-6e" transform="translate(881.690432 41.373437) scale(0.7)"/>
     <use xlink:href="#Cmmi10-72" transform="translate(922.410847 0.084203)"/>
     <use xlink:href="#Cmr10-31" transform="translate(982.694467 41.373437) scale(0.7)"/>
     <use xlink:href="#NotoSansCJKtc-Regular-e6c0" transform="translate(1023.414882 0.084203)"/>
     <use xlink:href="#NotoSansCJKtc-Regular-9e61" transform="translate(1123.41479 0.084203)"/>
     <use xlink:href="#NotoSansCJKtc-Regular-1" transform="translate(1223.414699 0.084203)"/>
     <use xlink:href="#NotoSansCJKtc-Regular-13" transform="translate(1245.814678 0.084203)"/>
     <use xlink:href="#NotoSansCJKtc-Regular-1" transform="translate(1301.314632 0.084203)"/>
     <use xlink:href="#NotoSansCJKtc-Regular-2815" transform="translate(1323.71461 0.084203)"/>
     <use xlink:href="#NotoSansCJKtc-Regular-3355" transform="translate(1423.714519 0.084203)"/>
     <use xlink:href="#NotoSansCJKtc-Regular-3bf9" transform="translate(1523.714427 0.084203)"/>
     <use xlink:href="#NotoSansCJKtc-Regular-4b20" transform="translate(1623.714336 0.084203)"/>
     <use xlink:href="#NotoSansCJKtc-Regular-2760" transform="translate(1723.714244 0.084203)"/>
     <use xlink:href="#NotoSansCJKtc-Regular-1" transform="translate(1823.714153 0.084203)"/>
     <use xlink:href="#Cmmi10-72" transform="translate(1846.114131 0.084203)"/>
    </g>
   </g>
   <g id="text_2">
    <!-- 因子 1 -->
    <g style="fill: #222831" transform="translate(110.028259 101.496923) scale(0.1 -0.1)">
     <defs>
      <path id="NotoSansCJKtc-Regular-12" d="M 563 0
L 3136 0
L 3136 486
L 2195 486
L 2195 4691
L 1747 4691
C 1491 4544 1190 4435 774 4358
L 774 3987
L 1613 3987
L 1613 486
L 563 486
L 563 0
z
" transform="scale(0.015625)"/>
     </defs>
     <use xlink:href="#NotoSansCJKtc-Regular-3355"/>
     <use xlink:href="#NotoSansCJKtc-Regular-3bf9" transform="translate(100 0)"/>
     <use xlink:href="#NotoSansCJKtc-Regular-1" transform="translate(200 0)"/>
     <use xlink:href="#NotoSansCJKtc-Regular-12" transform="translate(222.40625 0)"/>
    </g>
    <!-- 取 x -->
    <g style="fill: #222831" transform="translate(115.313415 111.496923) scale(0.1 -0.1)">
     <defs>
      <path id="NotoSansCJKtc-Regular-2e66" d="M 3853 4000
L 3392 3910
C 3603 2854 3904 1926 4346 1165
C 3968 634 3507 237 3002 -26
C 3110 -122 3245 -301 3315 -422
C 3808 -134 4256 243 4634 723
C 4986 243 5408 -154 5920 -442
C 5997 -320 6144 -134 6253 -45
C 5722 230 5286 640 4928 1152
C 5446 1971 5811 3046 5971 4429
L 5664 4512
L 5581 4493
L 3270 4493
L 3270 4026
L 5440 4026
C 5286 3078 5011 2272 4640 1619
C 4275 2304 4019 3110 3853 4000
z
M 173 787
L 262 314
C 870 403 1702 531 2515 666
L 2515 -499
L 2982 -499
L 2982 4525
L 3430 4525
L 3430 4979
L 307 4979
L 307 4525
L 800 4525
L 800 870
L 173 787
z
M 1261 4525
L 2515 4525
L 2515 3674
L 1261 3674
L 1261 4525
z
M 1261 3238
L 2515 3238
L 2515 2342
L 1261 2342
L 1261 3238
z
M 1261 1907
L 2515 1907
L 2515 1114
L 1261 934
L 1261 1907
z
" transform="scale(0.015625)"/>
      <path id="NotoSansCJKtc-Regular-59" d="M 96 0
L 710 0
L 1178 813
C 1299 1024 1408 1235 1530 1434
L 1562 1434
C 1696 1235 1824 1024 1939 813
L 2451 0
L 3091 0
L 1946 1754
L 3002 3475
L 2394 3475
L 1965 2714
C 1856 2515 1760 2330 1658 2131
L 1626 2131
C 1510 2330 1389 2515 1286 2714
L 819 3475
L 186 3475
L 1242 1811
L 96 0
z
" transform="scale(0.015625)"/>
     </defs>
     <use xlink:href="#NotoSansCJKtc-Regular-2e66"/>
     <use xlink:href="#NotoSansCJKtc-Regular-1" transform="translate(100 0)"/>
     <use xlink:href="#NotoSansCJKtc-Regular-59" transform="translate(122.40625 0)"/>
    </g>
   </g>
   <g id="text_3">
    <!-- 因子 2 -->
    <g style="fill: #222831" transform="translate(238.94683 100.926611) scale(0.1 -0.1)">
     <use xlink:href="#NotoSansCJKtc-Regular-3355"/>
     <use xlink:href="#NotoSansCJKtc-Regular-3bf9" transform="translate(100 0)"/>
     <use xlink:href="#NotoSansCJKtc-Regular-1" transform="translate(200 0)"/>
     <use xlink:href="#NotoSansCJKtc-Regular-13" transform="translate(222.40625 0)"/>
    </g>
    <!-- 取 y -->
    <g style="fill: #222831" transform="translate(244.117143 110.926611) scale(0.1 -0.1)">
     <defs>
      <path id="NotoSansCJKtc-Regular-5a" d="M 646 -1498
C 1338 -1498 1702 -973 1946 -294
L 3251 3475
L 2682 3475
L 2054 1549
C 1965 1235 1862 883 1773 563
L 1741 563
C 1619 890 1504 1242 1395 1549
L 691 3475
L 83 3475
L 1478 -6
L 1402 -269
C 1254 -698 1011 -1018 621 -1018
C 525 -1018 422 -986 352 -960
L 237 -1427
C 346 -1472 486 -1498 646 -1498
z
" transform="scale(0.015625)"/>
     </defs>
     <use xlink:href="#NotoSansCJKtc-Regular-2e66"/>
     <use xlink:href="#NotoSansCJKtc-Regular-1" transform="translate(100 0)"/>
     <use xlink:href="#NotoSansCJKtc-Regular-5a" transform="translate(122.40625 0)"/>
    </g>
   </g>
   <g id="text_4">
    <!-- 因子 3 -->
    <g style="fill: #222831" transform="translate(367.865402 101.496923) scale(0.1 -0.1)">
     <defs>
      <path id="NotoSansCJKtc-Regular-14" d="M 1683 -83
C 2522 -83 3194 416 3194 1254
C 3194 1901 2752 2310 2202 2445
L 2202 2477
C 2701 2650 3034 3034 3034 3603
C 3034 4346 2458 4774 1664 4774
C 1126 4774 710 4538 358 4218
L 672 3846
C 941 4115 1267 4301 1645 4301
C 2138 4301 2438 4006 2438 3558
C 2438 3053 2112 2662 1139 2662
L 1139 2214
C 2227 2214 2598 1843 2598 1274
C 2598 736 2208 403 1645 403
C 1114 403 762 659 486 941
L 186 563
C 493 224 954 -83 1683 -83
z
" transform="scale(0.015625)"/>
     </defs>
     <use xlink:href="#NotoSansCJKtc-Regular-3355"/>
     <use xlink:href="#NotoSansCJKtc-Regular-3bf9" transform="translate(100 0)"/>
     <use xlink:href="#NotoSansCJKtc-Regular-1" transform="translate(200 0)"/>
     <use xlink:href="#NotoSansCJKtc-Regular-14" transform="translate(222.40625 0)"/>
    </g>
    <!-- 取 x -->
    <g style="fill: #222831" transform="translate(373.150558 111.496923) scale(0.1 -0.1)">
     <use xlink:href="#NotoSansCJKtc-Regular-2e66"/>
     <use xlink:href="#NotoSansCJKtc-Regular-1" transform="translate(100 0)"/>
     <use xlink:href="#NotoSansCJKtc-Regular-59" transform="translate(122.40625 0)"/>
    </g>
   </g>
   <g id="text_5">
    <!-- 因子 4 -->
    <g style="fill: #222831" transform="translate(496.783973 101.496923) scale(0.1 -0.1)">
     <defs>
      <path id="NotoSansCJKtc-Regular-15" d="M 2176 0
L 2726 0
L 2726 1293
L 3354 1293
L 3354 1760
L 2726 1760
L 2726 4691
L 2080 4691
L 128 1677
L 128 1293
L 2176 1293
L 2176 0
z
M 2176 1760
L 736 1760
L 1805 3360
C 1939 3590 2067 3827 2182 4051
L 2208 4051
C 2195 3814 2176 3430 2176 3200
L 2176 1760
z
" transform="scale(0.015625)"/>
     </defs>
     <use xlink:href="#NotoSansCJKtc-Regular-3355"/>
     <use xlink:href="#NotoSansCJKtc-Regular-3bf9" transform="translate(100 0)"/>
     <use xlink:href="#NotoSansCJKtc-Regular-1" transform="translate(200 0)"/>
     <use xlink:href="#NotoSansCJKtc-Regular-15" transform="translate(222.40625 0)"/>
    </g>
    <!-- 取 x -->
    <g style="fill: #222831" transform="translate(502.069129 111.496923) scale(0.1 -0.1)">
     <use xlink:href="#NotoSansCJKtc-Regular-2e66"/>
     <use xlink:href="#NotoSansCJKtc-Regular-1" transform="translate(100 0)"/>
     <use xlink:href="#NotoSansCJKtc-Regular-59" transform="translate(122.40625 0)"/>
    </g>
   </g>
   <g id="text_6">
    <!-- 因子 5 -->
    <g style="fill: #222831" transform="translate(625.702545 100.926611) scale(0.1 -0.1)">
     <defs>
      <path id="NotoSansCJKtc-Regular-16" d="M 1677 -83
C 2464 -83 3213 499 3213 1523
C 3213 2560 2573 3021 1798 3021
C 1517 3021 1306 2950 1094 2835
L 1216 4192
L 2982 4192
L 2982 4691
L 704 4691
L 550 2502
L 864 2304
C 1133 2483 1331 2579 1645 2579
C 2234 2579 2618 2182 2618 1510
C 2618 826 2176 403 1619 403
C 1075 403 730 653 467 922
L 173 538
C 493 224 941 -83 1677 -83
z
" transform="scale(0.015625)"/>
     </defs>
     <use xlink:href="#NotoSansCJKtc-Regular-3355"/>
     <use xlink:href="#NotoSansCJKtc-Regular-3bf9" transform="translate(100 0)"/>
     <use xlink:href="#NotoSansCJKtc-Regular-1" transform="translate(200 0)"/>
     <use xlink:href="#NotoSansCJKtc-Regular-16" transform="translate(222.40625 0)"/>
    </g>
    <!-- 取 y -->
    <g style="fill: #222831" transform="translate(630.872857 110.926611) scale(0.1 -0.1)">
     <use xlink:href="#NotoSansCJKtc-Regular-2e66"/>
     <use xlink:href="#NotoSansCJKtc-Regular-1" transform="translate(100 0)"/>
     <use xlink:href="#NotoSansCJKtc-Regular-5a" transform="translate(122.40625 0)"/>
    </g>
   </g>
   <g id="text_7">
    <!-- 1,2 -->
    <g style="fill: #222831" transform="translate(108.273013 192.931846) scale(0.1 -0.1)">
     <defs>
      <path id="NotoSansCJKtc-Regular-d" d="M 480 -1216
C 1056 -973 1414 -493 1414 122
C 1414 550 1229 806 922 806
C 685 806 480 653 480 397
C 480 141 678 -13 909 -13
L 979 -6
C 973 -390 736 -698 339 -870
L 480 -1216
z
" transform="scale(0.015625)"/>
     </defs>
     <use xlink:href="#NotoSansCJKtc-Regular-12"/>
     <use xlink:href="#NotoSansCJKtc-Regular-d" transform="translate(55.5 0)"/>
     <use xlink:href="#NotoSansCJKtc-Regular-13" transform="translate(83.296875 0)"/>
    </g>
   </g>
   <g id="text_8">
    <!-- 1,3 -->
    <g style="fill: #222831" transform="translate(237.191585 192.931846) scale(0.1 -0.1)">
     <use xlink:href="#NotoSansCJKtc-Regular-12"/>
     <use xlink:href="#NotoSansCJKtc-Regular-d" transform="translate(55.5 0)"/>
     <use xlink:href="#NotoSansCJKtc-Regular-14" transform="translate(83.296875 0)"/>
    </g>
   </g>
   <g id="text_9">
    <!-- 1,4 -->
    <g style="fill: #222831" transform="translate(366.110156 192.931846) scale(0.1 -0.1)">
     <use xlink:href="#NotoSansCJKtc-Regular-12"/>
     <use xlink:href="#NotoSansCJKtc-Regular-d" transform="translate(55.5 0)"/>
     <use xlink:href="#NotoSansCJKtc-Regular-15" transform="translate(83.296875 0)"/>
    </g>
   </g>
   <g id="text_10">
    <!-- 1,5 -->
    <g style="fill: #222831" transform="translate(495.028728 192.931846) scale(0.1 -0.1)">
     <use xlink:href="#NotoSansCJKtc-Regular-12"/>
     <use xlink:href="#NotoSansCJKtc-Regular-d" transform="translate(55.5 0)"/>
     <use xlink:href="#NotoSansCJKtc-Regular-16" transform="translate(83.296875 0)"/>
    </g>
   </g>
   <g id="text_11">
    <!-- 2,3 -->
    <g style="fill: #222831" transform="translate(623.947299 192.931846) scale(0.1 -0.1)">
     <use xlink:href="#NotoSansCJKtc-Regular-13"/>
     <use xlink:href="#NotoSansCJKtc-Regular-d" transform="translate(55.5 0)"/>
     <use xlink:href="#NotoSansCJKtc-Regular-14" transform="translate(83.296875 0)"/>
    </g>
   </g>
   <g id="text_12">
    <!-- 2,4 -->
    <g style="fill: #222831" transform="translate(108.273013 243.193385) scale(0.1 -0.1)">
     <use xlink:href="#NotoSansCJKtc-Regular-13"/>
     <use xlink:href="#NotoSansCJKtc-Regular-d" transform="translate(55.5 0)"/>
     <use xlink:href="#NotoSansCJKtc-Regular-15" transform="translate(83.296875 0)"/>
    </g>
   </g>
   <g id="text_13">
    <!-- 2,5 -->
    <g style="fill: #222831" transform="translate(237.191585 243.193385) scale(0.1 -0.1)">
     <use xlink:href="#NotoSansCJKtc-Regular-13"/>
     <use xlink:href="#NotoSansCJKtc-Regular-d" transform="translate(55.5 0)"/>
     <use xlink:href="#NotoSansCJKtc-Regular-16" transform="translate(83.296875 0)"/>
    </g>
   </g>
   <g id="text_14">
    <!-- 3,4 -->
    <g style="fill: #222831" transform="translate(366.110156 243.193385) scale(0.1 -0.1)">
     <use xlink:href="#NotoSansCJKtc-Regular-14"/>
     <use xlink:href="#NotoSansCJKtc-Regular-d" transform="translate(55.5 0)"/>
     <use xlink:href="#NotoSansCJKtc-Regular-15" transform="translate(83.296875 0)"/>
    </g>
   </g>
   <g id="text_15">
    <!-- 3,5 -->
    <g style="fill: #222831" transform="translate(495.028728 243.193385) scale(0.1 -0.1)">
     <use xlink:href="#NotoSansCJKtc-Regular-14"/>
     <use xlink:href="#NotoSansCJKtc-Regular-d" transform="translate(55.5 0)"/>
     <use xlink:href="#NotoSansCJKtc-Regular-16" transform="translate(83.296875 0)"/>
    </g>
   </g>
   <g id="text_16">
    <!-- 4,5 -->
    <g style="fill: #222831" transform="translate(623.947299 243.193385) scale(0.1 -0.1)">
     <use xlink:href="#NotoSansCJKtc-Regular-15"/>
     <use xlink:href="#NotoSansCJKtc-Regular-d" transform="translate(55.5 0)"/>
     <use xlink:href="#NotoSansCJKtc-Regular-16" transform="translate(83.296875 0)"/>
    </g>
   </g>
   <g id="text_17">
    <!-- 兩個位置的選法共有 $\binom{5}{2}=10$，所以 $x^3y^2$ 的係數是 10 -->
    <g style="fill: #222831" transform="translate(243.845 335.575385) scale(0.13 -0.13)">
     <defs>
      <path id="NotoSansCJKtc-Regular-2a94" d="M 1568 2784
L 1568 2445
L 1971 2445
C 1875 1683 1651 1050 1222 634
C 1299 589 1440 480 1498 429
C 1779 723 1990 1114 2138 1581
C 2221 1171 2381 774 2662 435
C 2720 506 2854 608 2931 653
C 2374 1293 2330 2112 2330 2784
L 1568 2784
z
M 442 4992
L 442 4518
L 2938 4518
L 2938 3718
L 672 3718
L 672 -499
L 1133 -499
L 1133 3264
L 2938 3264
L 2938 -480
L 3398 -480
L 3398 3264
L 5299 3264
L 5299 58
C 5299 -38 5267 -70 5171 -70
C 5069 -77 4736 -77 4384 -64
C 4448 -186 4525 -371 4550 -499
C 5005 -499 5325 -493 5517 -416
C 5709 -346 5766 -211 5766 51
L 5766 3718
L 3398 3718
L 3398 4518
L 5990 4518
L 5990 4992
L 442 4992
z
M 3802 2784
L 3802 2445
L 4218 2445
C 4115 1709 3891 1088 3482 678
C 3571 634 3706 525 3763 467
C 4038 768 4243 1158 4384 1626
C 4474 1203 4640 794 4947 454
C 5011 518 5146 621 5229 659
C 4640 1293 4589 2112 4589 2784
L 3802 2784
z
" transform="scale(0.015625)"/>
      <path id="NotoSansCJKtc-Regular-26e4" d="M 2362 4211
L 2362 3744
L 5850 3744
L 5850 4211
L 2362 4211
z
M 2784 3258
C 2976 2368 3168 1184 3219 512
L 3693 653
C 3629 1306 3430 2458 3219 3360
L 2784 3258
z
M 3648 5299
C 3770 4979 3898 4557 3949 4282
L 4429 4422
C 4365 4698 4224 5101 4102 5421
L 3648 5299
z
M 2086 218
L 2086 -243
L 6112 -243
L 6112 218
L 4787 218
C 5024 1075 5286 2336 5459 3322
L 4954 3405
C 4838 2445 4582 1082 4339 218
L 2086 218
z
M 1830 5350
C 1472 4378 870 3418 243 2797
C 326 2688 467 2438 518 2323
C 736 2547 947 2810 1152 3098
L 1152 -499
L 1632 -499
L 1632 3846
C 1882 4282 2106 4749 2285 5216
L 1830 5350
z
" transform="scale(0.015625)"/>
      <path id="NotoSansCJKtc-Regular-7ccc" d="M 4166 4787
L 5248 4787
L 5248 4211
L 4166 4211
L 4166 4787
z
M 2669 4787
L 3725 4787
L 3725 4211
L 2669 4211
L 2669 4787
z
M 1210 4787
L 2227 4787
L 2227 4211
L 1210 4211
L 1210 4787
z
M 1216 2733
L 1216 38
L 365 38
L 365 -320
L 6048 -320
L 6048 38
L 5171 38
L 5171 2733
L 3168 2733
L 3258 3110
L 5901 3110
L 5901 3488
L 3328 3488
L 3398 3859
L 5728 3859
L 5728 5133
L 749 5133
L 749 3859
L 2906 3859
L 2854 3488
L 435 3488
L 435 3110
L 2790 3110
L 2714 2733
L 1216 2733
z
M 1677 38
L 1677 435
L 4698 435
L 4698 38
L 1677 38
z
M 1677 1760
L 4698 1760
L 4698 1389
L 1677 1389
L 1677 1760
z
M 1677 2048
L 1677 2406
L 4698 2406
L 4698 2048
L 1677 2048
z
M 1677 1101
L 4698 1101
L 4698 723
L 1677 723
L 1677 1101
z
" transform="scale(0.015625)"/>
      <path id="NotoSansCJKtc-Regular-6c33" d="M 3533 2707
C 3885 2240 4320 1600 4512 1210
L 4922 1466
C 4710 1843 4269 2464 3904 2918
L 3533 2707
z
M 1536 5389
C 1485 5082 1376 4659 1274 4346
L 557 4346
L 557 -346
L 998 -346
L 998 160
L 2784 160
L 2784 4346
L 1715 4346
C 1824 4621 1946 4979 2054 5299
L 1536 5389
z
M 998 3917
L 2342 3917
L 2342 2566
L 998 2566
L 998 3917
z
M 998 595
L 998 2144
L 2342 2144
L 2342 595
L 998 595
z
M 3827 5402
C 3622 4518 3277 3635 2835 3066
C 2950 3002 3149 2867 3238 2790
C 3456 3098 3661 3488 3840 3923
L 5478 3923
C 5402 1357 5299 371 5094 154
C 5018 64 4947 45 4819 45
C 4672 45 4288 51 3866 83
C 3955 -38 4013 -243 4026 -378
C 4384 -397 4762 -410 4979 -390
C 5210 -365 5350 -314 5498 -122
C 5754 192 5843 1184 5939 4122
C 5946 4186 5946 4365 5946 4365
L 4013 4365
C 4115 4666 4211 4986 4288 5299
L 3827 5402
z
" transform="scale(0.015625)"/>
      <path id="NotoSansCJKtc-Regular-5acf" d="M 608 4960
C 1037 4768 1562 4461 1824 4237
L 2099 4640
C 1830 4851 1293 5139 877 5306
L 608 4960
z
M 269 3219
C 685 3040 1197 2739 1453 2528
L 1722 2925
C 1459 3136 934 3411 531 3578
L 269 3219
z
M 486 -102
L 890 -429
C 1267 166 1715 966 2054 1645
L 1702 1958
C 1331 1235 826 390 486 -102
z
M 2470 -288
C 2643 -211 2912 -166 5306 134
C 5434 -102 5536 -326 5600 -506
L 6022 -288
C 5830 211 5344 973 4890 1536
L 4506 1350
C 4698 1101 4896 813 5075 525
L 3046 301
C 3443 838 3846 1523 4179 2208
L 5997 2208
L 5997 2662
L 4307 2662
L 4307 3821
L 5734 3821
L 5734 4275
L 4307 4275
L 4307 5376
L 3827 5376
L 3827 4275
L 2451 4275
L 2451 3821
L 3827 3821
L 3827 2662
L 2170 2662
L 2170 2208
L 3603 2208
C 3283 1485 2854 800 2714 608
C 2554 371 2432 224 2304 192
C 2362 58 2445 -186 2470 -288
z
" transform="scale(0.015625)"/>
      <path id="NotoSansCJKtc-Regular-2aa6" d="M 3757 960
C 4365 512 5146 -128 5530 -512
L 5984 -218
C 5568 173 4768 781 4179 1210
L 3757 960
z
M 2106 1197
C 1747 717 1024 160 397 -179
C 506 -262 678 -416 774 -518
C 1421 -147 2144 448 2605 1005
L 2106 1197
z
M 570 4019
L 570 3558
L 1792 3558
L 1792 2035
L 307 2035
L 307 1568
L 6118 1568
L 6118 2035
L 4608 2035
L 4608 3558
L 5888 3558
L 5888 4019
L 4608 4019
L 4608 5318
L 4115 5318
L 4115 4019
L 2285 4019
L 2285 5318
L 1792 5318
L 1792 4019
L 570 4019
z
M 2285 2035
L 2285 3558
L 4115 3558
L 4115 2035
L 2285 2035
z
" transform="scale(0.015625)"/>
      <path id="NotoSansCJKtc-Regular-50d8" d="M 2502 5376
C 2426 5101 2330 4819 2221 4544
L 403 4544
L 403 4096
L 2016 4096
C 1613 3270 1024 2502 275 1990
C 371 1894 518 1728 589 1619
C 979 1894 1325 2234 1626 2605
L 1626 1658
C 1626 1056 1568 339 1037 -173
C 1126 -243 1312 -442 1370 -544
C 1754 -192 1939 288 2029 762
L 4787 762
L 4787 96
C 4787 0 4755 -38 4646 -38
C 4525 -45 4134 -51 3712 -32
C 3776 -166 3846 -365 3872 -493
C 4422 -493 4774 -493 4986 -422
C 5197 -339 5261 -192 5261 90
L 5261 3354
L 2144 3354
C 2291 3590 2419 3840 2541 4096
L 6010 4096
L 6010 4544
L 2733 4544
C 2829 4781 2912 5024 2989 5261
L 2502 5376
z
M 4787 1850
L 4787 1178
L 2086 1178
C 2099 1344 2106 1504 2106 1651
L 2106 1850
L 4787 1850
z
M 4787 2259
L 2106 2259
L 2106 2918
L 4787 2918
L 4787 2259
z
" transform="scale(0.015625)"/>
      <path id="Cmex10-44" d="M 2503 -7406
Q 1713 -6744 1342 -5734
Q 972 -4725 972 -3584
Q 972 -2434 1342 -1423
Q 1713 -413 2503 244
Q 2503 256 2534 256
L 2613 256
Q 2631 256 2647 236
Q 2663 216 2663 197
Q 2663 172 2650 159
Q 2303 -200 2067 -640
Q 1831 -1081 1695 -1554
Q 1559 -2028 1500 -2543
Q 1441 -3059 1441 -3591
Q 1441 -6072 2650 -7322
Q 2663 -7334 2663 -7359
Q 2663 -7378 2645 -7398
Q 2628 -7419 2613 -7419
L 2534 -7419
Q 2503 -7419 2503 -7406
z
" transform="scale(0.015625)"/>
      <path id="Cmex10-69" d="M 319 -7419
Q 263 -7419 263 -7359
Q 263 -7334 275 -7322
Q 734 -6844 1001 -6236
Q 1269 -5628 1376 -4961
Q 1484 -4294 1484 -3578
Q 1484 -1091 275 159
Q 263 172 263 197
Q 263 256 319 256
L 397 256
Q 416 256 428 244
Q 1216 -413 1584 -1423
Q 1953 -2434 1953 -3584
Q 1953 -4725 1586 -5734
Q 1219 -6744 428 -7406
Q 416 -7419 397 -7419
L 319 -7419
z
" transform="scale(0.015625)"/>
      <path id="Cmr10-29" d="M 481 850
Q 428 850 393 890
Q 359 931 359 978
Q 359 1031 393 1068
Q 428 1106 481 1106
L 4500 1106
Q 4547 1106 4581 1068
Q 4616 1031 4616 978
Q 4616 931 4581 890
Q 4547 850 4500 850
L 481 850
z
M 481 2094
Q 428 2094 393 2131
Q 359 2169 359 2222
Q 359 2269 393 2309
Q 428 2350 481 2350
L 4500 2350
Q 4547 2350 4581 2309
Q 4616 2269 4616 2222
Q 4616 2169 4581 2131
Q 4547 2094 4500 2094
L 481 2094
z
" transform="scale(0.015625)"/>
      <path id="Cmr10-64" d="M 594 0
L 594 225
Q 1394 225 1394 428
L 1394 3788
Q 1063 3628 556 3628
L 556 3853
Q 1341 3853 1741 4263
L 1831 4263
Q 1853 4263 1873 4245
Q 1894 4228 1894 4206
L 1894 428
Q 1894 225 2694 225
L 2694 0
L 594 0
z
" transform="scale(0.015625)"/>
      <path id="Cmr10-28" d="M 1600 -141
Q 816 -141 533 504
Q 250 1150 250 2041
Q 250 2597 351 3087
Q 453 3578 754 3920
Q 1056 4263 1600 4263
Q 2022 4263 2290 4056
Q 2559 3850 2700 3523
Q 2841 3197 2892 2823
Q 2944 2450 2944 2041
Q 2944 1491 2842 1011
Q 2741 531 2444 195
Q 2147 -141 1600 -141
z
M 1600 25
Q 1956 25 2131 390
Q 2306 756 2347 1200
Q 2388 1644 2388 2144
Q 2388 2625 2347 3031
Q 2306 3438 2132 3767
Q 1959 4097 1600 4097
Q 1238 4097 1063 3765
Q 888 3434 847 3029
Q 806 2625 806 2144
Q 806 1788 823 1472
Q 841 1156 916 820
Q 991 484 1158 254
Q 1325 25 1600 25
z
" transform="scale(0.015625)"/>
      <path id="NotoSansCJKtc-Regular-f6ac" d="M 2675 1203
C 3347 1440 3782 1965 3782 2656
C 3782 3104 3590 3392 3238 3392
C 2976 3392 2752 3232 2752 2931
C 2752 2630 2970 2477 3232 2477
L 3341 2490
C 3309 2048 3027 1747 2534 1542
L 2675 1203
z
" transform="scale(0.015625)"/>
      <path id="NotoSansCJKtc-Regular-48a6" d="M 3418 4730
L 3418 2598
C 3418 1709 3347 582 2586 -205
C 2688 -269 2886 -429 2957 -525
C 3782 307 3910 1632 3910 2598
L 3910 2746
L 4902 2746
L 4902 -493
L 5382 -493
L 5382 2746
L 6131 2746
L 6131 3206
L 3910 3206
L 3910 4378
C 4646 4493 5466 4659 6010 4890
L 5683 5299
C 5158 5056 4218 4851 3418 4730
z
M 1101 2310
L 1101 2502
L 1101 3334
L 2368 3334
L 2368 2310
L 1101 2310
z
M 2822 5242
C 2317 5011 1395 4838 627 4742
L 627 2502
C 627 1670 595 563 186 -218
C 288 -275 493 -435 576 -525
C 941 141 1056 1069 1088 1875
L 2829 1875
L 2829 3770
L 1101 3770
L 1101 4384
C 1818 4474 2611 4614 3130 4838
L 2822 5242
z
" transform="scale(0.015625)"/>
      <path id="NotoSansCJKtc-Regular-2653" d="M 2336 4371
C 2739 3898 3155 3238 3322 2797
L 3782 3040
C 3603 3482 3187 4109 2765 4576
L 2336 4371
z
M 1005 5030
L 1114 1043
C 781 902 480 781 230 685
L 403 186
C 1107 493 2086 922 2976 1325
L 2867 1792
L 1600 1248
L 1498 5050
L 1005 5030
z
M 4954 5050
C 4672 2259 3994 698 1779 -115
C 1894 -218 2093 -422 2163 -531
C 3168 -109 3872 448 4371 1210
C 4915 634 5510 -45 5805 -493
L 6214 -115
C 5882 358 5203 1075 4634 1658
C 5075 2522 5325 3616 5478 4998
L 4954 5050
z
" transform="scale(0.015625)"/>
      <path id="NotoSansCJKtc-Regular-27a1" d="M 4838 5478
C 4218 5069 3104 4672 2112 4390
C 2163 4288 2234 4122 2259 4019
C 3277 4294 4429 4672 5184 5107
L 4838 5478
z
M 4736 1261
C 5107 858 5510 301 5677 -64
L 6080 160
C 5907 518 5485 1062 5114 1459
L 4736 1261
z
M 2682 1389
C 2490 960 2106 429 1747 90
C 1850 26 2003 -83 2099 -166
C 2477 205 2880 762 3130 1248
L 2682 1389
z
M 4723 2682
C 4864 2528 5011 2355 5152 2176
L 3123 2003
C 3942 2490 4768 3104 5555 3795
L 5203 4058
C 4947 3814 4672 3578 4397 3360
L 3098 3283
C 3552 3578 4013 3949 4448 4346
L 4051 4550
C 3558 4038 2886 3546 2675 3418
C 2490 3296 2330 3206 2202 3194
C 2246 3078 2317 2874 2336 2784
C 2451 2829 2630 2861 3866 2950
C 3386 2592 2970 2317 2778 2208
C 2445 2010 2202 1875 2022 1850
C 2074 1734 2138 1530 2157 1434
C 2298 1498 2496 1523 3706 1645
L 3706 19
C 3706 -51 3674 -70 3597 -70
C 3533 -70 3251 -77 2989 -64
C 3046 -186 3110 -358 3130 -480
C 3539 -480 3795 -480 3968 -410
C 4141 -339 4186 -218 4186 13
L 4186 1690
L 5440 1805
C 5549 1658 5645 1510 5715 1395
L 6093 1645
C 5882 1978 5440 2509 5075 2893
L 4723 2682
z
M 1619 5338
C 1299 4358 762 3386 186 2752
C 269 2643 410 2394 454 2278
C 659 2515 858 2784 1050 3085
L 1050 -499
L 1517 -499
L 1517 3910
C 1728 4326 1914 4768 2061 5210
L 1619 5338
z
" transform="scale(0.015625)"/>
      <path id="NotoSansCJKtc-Regular-4e28" d="M 4339 3680
L 5222 3680
C 5139 2918 5005 2266 4781 1715
C 4563 2278 4416 2918 4314 3603
L 4339 3680
z
M 282 1466
L 282 1114
L 1107 1114
C 979 902 845 710 723 550
C 1018 474 1331 365 1645 250
C 1306 83 851 -64 237 -186
C 314 -262 410 -416 448 -506
C 1190 -352 1715 -154 2086 64
C 2406 -70 2694 -218 2906 -339
L 3059 -198
C 3142 -288 3245 -442 3283 -518
C 3923 -186 4397 243 4755 781
C 5043 243 5414 -192 5888 -486
C 5952 -365 6099 -192 6202 -109
C 5690 166 5299 627 5005 1210
C 5338 1875 5536 2688 5658 3680
L 6150 3680
L 6150 4109
L 4467 4109
C 4576 4493 4672 4896 4749 5299
L 4333 5376
C 4147 4339 3846 3290 3424 2592
L 3424 2925
L 2163 2925
L 2163 3200
L 3290 3200
L 3290 3930
L 3654 3930
L 3654 4294
L 3290 4294
L 3290 4960
L 2163 4960
L 2163 5376
L 1779 5376
L 1779 4960
L 717 4960
L 717 4294
L 282 4294
L 282 3930
L 717 3930
L 717 3200
L 1779 3200
L 1779 2925
L 570 2925
L 570 1875
L 1523 1875
C 1459 1741 1389 1606 1312 1466
L 282 1466
z
M 2566 1728
L 2566 1510
L 2566 1466
L 1760 1466
C 1830 1600 1901 1741 1965 1875
L 3424 1875
L 3424 2470
C 3520 2394 3654 2272 3712 2208
C 3840 2419 3955 2662 4064 2931
C 4186 2304 4339 1728 4550 1229
C 4237 678 3802 250 3206 -64
L 3219 -51
C 3014 64 2739 192 2445 320
C 2739 576 2867 851 2918 1114
L 3603 1114
L 3603 1466
L 2957 1466
L 2957 1504
L 2957 1728
L 2566 1728
z
M 1101 4627
L 1779 4627
L 1779 4275
L 1101 4275
L 1101 4627
z
M 1779 3539
L 1101 3539
L 1101 3949
L 1779 3949
L 1779 3539
z
M 2163 4627
L 2899 4627
L 2899 4275
L 2163 4275
L 2163 4627
z
M 2163 3539
L 2163 3949
L 2899 3949
L 2899 3539
L 2163 3539
z
M 986 2618
L 1779 2618
L 1779 2189
L 986 2189
L 986 2618
z
M 2163 2618
L 2995 2618
L 2995 2189
L 2163 2189
L 2163 2618
z
M 1318 730
L 1555 1114
L 2515 1114
C 2451 909 2317 691 2035 486
C 1798 576 1555 659 1318 730
z
" transform="scale(0.015625)"/>
      <path id="NotoSansCJKtc-Regular-4f6d" d="M 1510 3885
L 4845 3885
L 4845 3360
L 1510 3360
L 1510 3885
z
M 1510 4749
L 4845 4749
L 4845 4230
L 1510 4230
L 1510 4749
z
M 1050 5114
L 1050 2995
L 5331 2995
L 5331 5114
L 1050 5114
z
M 1478 1914
C 1312 979 902 256 224 -186
C 333 -256 518 -435 589 -518
C 1011 -218 1344 192 1587 698
C 2112 -186 2938 -384 4230 -384
L 5984 -384
C 6010 -250 6086 -38 6163 77
C 5830 70 4493 64 4250 70
C 3981 70 3725 77 3494 102
L 3494 986
L 5619 986
L 5619 1408
L 3494 1408
L 3494 2125
L 6035 2125
L 6035 2554
L 378 2554
L 378 2125
L 3014 2125
L 3014 186
C 2458 326 2048 627 1798 1216
C 1862 1414 1914 1626 1958 1850
L 1478 1914
z
" transform="scale(0.015625)"/>
      <path id="NotoSansCJKtc-Regular-11" d="M 1779 -83
C 2669 -83 3238 723 3238 2362
C 3238 3987 2669 4774 1779 4774
C 883 4774 320 3987 320 2362
C 320 723 883 -83 1779 -83
z
M 1779 390
C 1248 390 883 986 883 2362
C 883 3731 1248 4314 1779 4314
C 2310 4314 2675 3731 2675 2362
C 2675 986 2310 390 1779 390
z
" transform="scale(0.015625)"/>
     </defs>
     <use xlink:href="#NotoSansCJKtc-Regular-2a94" transform="translate(0 0.084203)"/>
     <use xlink:href="#NotoSansCJKtc-Regular-2815" transform="translate(99.999908 0.084203)"/>
     <use xlink:href="#NotoSansCJKtc-Regular-26e4" transform="translate(199.999817 0.084203)"/>
     <use xlink:href="#NotoSansCJKtc-Regular-7ccc" transform="translate(299.999725 0.084203)"/>
     <use xlink:href="#NotoSansCJKtc-Regular-6c33" transform="translate(399.999634 0.084203)"/>
     <use xlink:href="#NotoSansCJKtc-Regular-9e61" transform="translate(499.999542 0.084203)"/>
     <use xlink:href="#NotoSansCJKtc-Regular-5acf" transform="translate(599.999451 0.084203)"/>
     <use xlink:href="#NotoSansCJKtc-Regular-2aa6" transform="translate(699.999359 0.084203)"/>
     <use xlink:href="#NotoSansCJKtc-Regular-50d8" transform="translate(799.999268 0.084203)"/>
     <use xlink:href="#NotoSansCJKtc-Regular-1" transform="translate(899.999176 0.084203)"/>
     <use xlink:href="#Cmex10-44" transform="translate(922.399155 79.820364) scale(0.946827)"/>
     <use xlink:href="#Cmr10-78" transform="translate(972.009613 37.004739) scale(0.7)"/>
     <use xlink:href="#Cmr10-31" transform="translate(972.009613 -29.914011) scale(0.7)"/>
     <use xlink:href="#Cmex10-69" transform="translate(1013.259613 79.820364) scale(0.946827)"/>
     <use xlink:href="#Cmr10-29" transform="translate(1076.620129 0.084203)"/>
     <use xlink:href="#Cmr10-64" transform="translate(1174.305733 0.084203)"/>
     <use xlink:href="#Cmr10-28" transform="translate(1224.305733 0.084203)"/>
     <use xlink:href="#NotoSansCJKtc-Regular-f6ac" transform="translate(1274.305733 0.084203)"/>
     <use xlink:href="#NotoSansCJKtc-Regular-48a6" transform="translate(1374.305641 0.084203)"/>
     <use xlink:href="#NotoSansCJKtc-Regular-2653" transform="translate(1474.30555 0.084203)"/>
     <use xlink:href="#NotoSansCJKtc-Regular-1" transform="translate(1574.305458 0.084203)"/>
     <use xlink:href="#Cmmi10-3f" transform="translate(1596.705437 0.084203)"/>
     <use xlink:href="#Cmr10-6e" transform="translate(1665.045697 41.373437) scale(0.7)"/>
     <use xlink:href="#Cmmi10-72" transform="translate(1705.766112 0.084203)"/>
     <use xlink:href="#Cmr10-31" transform="translate(1766.049732 41.373437) scale(0.7)"/>
     <use xlink:href="#NotoSansCJKtc-Regular-1" transform="translate(1806.770147 0.084203)"/>
     <use xlink:href="#NotoSansCJKtc-Regular-6c33" transform="translate(1829.170126 0.084203)"/>
     <use xlink:href="#NotoSansCJKtc-Regular-27a1" transform="translate(1929.170034 0.084203)"/>
     <use xlink:href="#NotoSansCJKtc-Regular-4e28" transform="translate(2029.169943 0.084203)"/>
     <use xlink:href="#NotoSansCJKtc-Regular-4f6d" transform="translate(2129.169851 0.084203)"/>
     <use xlink:href="#NotoSansCJKtc-Regular-1" transform="translate(2229.169759 0.084203)"/>
     <use xlink:href="#NotoSansCJKtc-Regular-12" transform="translate(2251.569738 0.084203)"/>
     <use xlink:href="#NotoSansCJKtc-Regular-11" transform="translate(2307.069692 0.084203)"/>
    </g>
   </g>
  </g>
 </g>
 <defs>
  <clipPath id="pc15c78ad54">
   <rect x="7.2" y="7.2" width="780.48" height="348.48"/>
  </clipPath>
 </defs>
</svg>
