<?xml version="1.0" encoding="utf-8" standalone="no"?>
<!DOCTYPE svg PUBLIC "-//W3C//DTD SVG 1.1//EN"
  "http://www.w3.org/Graphics/SVG/1.1/DTD/svg11.dtd">
<svg xmlns:xlink="http://www.w3.org/1999/xlink" width="757.371429pt" height="298.08pt" viewBox="0 0 757.371429 298.08" xmlns="http://www.w3.org/2000/svg" version="1.1">
 <metadata>
  <rdf:RDF xmlns:dc="http://purl.org/dc/elements/1.1/" xmlns:cc="http://creativecommons.org/ns#" xmlns:rdf="http://www.w3.org/1999/02/22-rdf-syntax-ns#">
   <cc:Work>
    <dc:type rdf:resource="http://purl.org/dc/dcmitype/StillImage"/>
    <dc:format>image/svg+xml</dc:format>
    <dc:creator>
     <cc:Agent>
      <dc:title>Matplotlib v3.11.0, https://matplotlib.org/</dc:title>
     </cc:Agent>
    </dc:creator>
   </cc:Work>
  </rdf:RDF>
 </metadata>
 <defs>
  <style type="text/css">*{stroke-linejoin: round; stroke-linecap: butt}</style>
 </defs>
 <g id="figure_1">
  <g id="patch_1">
   <path d="M 0 298.08
L 757.371429 298.08
L 757.371429 0
L 0 0
z
" style="fill: #ffffff"/>
  </g>
  <g id="axes_1">
   <g id="patch_2">
    <path d="M 123.373714 188.890286
L 174.706286 188.890286
Q 177.408 188.890286 177.408 186.188571
L 177.408 137.557714
Q 177.408 134.856 174.706286 134.856
L 123.373714 134.856
Q 120.672 134.856 120.672 137.557714
L 120.672 186.188571
Q 120.672 188.890286 123.373714 188.890286
z
" clip-path="url(#p583d11887d)" style="fill: #f4f7fb; stroke: #1f6feb; stroke-width: 1.6; stroke-linejoin: miter"/>
   </g>
   <g id="patch_3">
    <path d="M 271.968 188.890286
L 323.300571 188.890286
Q 326.002286 188.890286 326.002286 186.188571
L 326.002286 137.557714
Q 326.002286 134.856 323.300571 134.856
L 271.968 134.856
Q 269.266286 134.856 269.266286 137.557714
L 269.266286 186.188571
Q 269.266286 188.890286 271.968 188.890286
z
" clip-path="url(#p583d11887d)" style="fill: #f4f7fb; stroke: #1f6feb; stroke-width: 1.6; stroke-linejoin: miter"/>
   </g>
   <g id="patch_4">
    <path d="M 420.562286 188.890286
L 471.894857 188.890286
Q 474.596571 188.890286 474.596571 186.188571
L 474.596571 137.557714
Q 474.596571 134.856 471.894857 134.856
L 420.562286 134.856
Q 417.860571 134.856 417.860571 137.557714
L 417.860571 186.188571
Q 417.860571 188.890286 420.562286 188.890286
z
" clip-path="url(#p583d11887d)" style="fill: #f4f7fb; stroke: #1f6feb; stroke-width: 1.6; stroke-linejoin: miter"/>
   </g>
   <g id="patch_5">
    <path d="M 569.156571 188.890286
L 620.489143 188.890286
Q 623.190857 188.890286 623.190857 186.188571
L 623.190857 137.557714
Q 623.190857 134.856 620.489143 134.856
L 569.156571 134.856
Q 566.454857 134.856 566.454857 137.557714
L 566.454857 186.188571
Q 566.454857 188.890286 569.156571 188.890286
z
" clip-path="url(#p583d11887d)" style="fill: #f4f7fb; stroke: #1f6feb; stroke-width: 1.6; stroke-linejoin: miter"/>
   </g>
   <g id="line2d_1">
    <path d="M 71.365714 204.425143
L 71.365714 118.645714
" clip-path="url(#p583d11887d)" style="fill: none; stroke: #bf8700; stroke-width: 2.4; stroke-linecap: square"/>
   </g>
   <g id="line2d_2">
    <path d="M 223.337143 204.425143
L 223.337143 118.645714
" clip-path="url(#p583d11887d)" style="fill: none; stroke: #bf8700; stroke-width: 2.4; stroke-linecap: square"/>
   </g>
   <g id="line2d_3">
    <path d="M 371.931429 204.425143
L 371.931429 118.645714
" clip-path="url(#p583d11887d)" style="fill: none; stroke: #bf8700; stroke-width: 2.4; stroke-linecap: square"/>
   </g>
   <g id="line2d_4">
    <path d="M 520.525714 204.425143
L 520.525714 118.645714
" clip-path="url(#p583d11887d)" style="fill: none; stroke: #bf8700; stroke-width: 2.4; stroke-linecap: square"/>
   </g>
   <g id="line2d_5">
    <path d="M 672.497143 204.425143
L 672.497143 118.645714
" clip-path="url(#p583d11887d)" style="fill: none; stroke: #bf8700; stroke-width: 2.4; stroke-linecap: square"/>
   </g>
   <g id="text_1">
    <!-- 男1 -->
    <g style="fill: #222831" transform="translate(140.4875 166.053143) scale(0.11 -0.11)">
     <defs>
      <path id="NotoSansCJKtc-Regular-69c0" d="M 1453 3558
L 2938 3558
L 2938 2867
L 1453 2867
L 1453 3558
z
M 3418 3558
L 4928 3558
L 4928 2867
L 3418 2867
L 3418 3558
z
M 1453 4627
L 2938 4627
L 2938 3942
L 1453 3942
L 1453 4627
z
M 3418 4627
L 4928 4627
L 4928 3942
L 3418 3942
L 3418 4627
z
M 461 1830
L 461 1389
L 2566 1389
C 2266 704 1651 192 275 -96
C 371 -198 493 -390 531 -512
C 2099 -160 2771 506 3091 1389
L 5114 1389
C 5024 506 4915 115 4774 -6
C 4710 -64 4634 -70 4493 -70
C 4346 -70 3923 -64 3507 -26
C 3584 -147 3648 -333 3654 -467
C 4070 -486 4461 -493 4666 -486
C 4890 -467 5037 -435 5178 -307
C 5382 -102 5504 397 5626 1619
C 5632 1683 5645 1830 5645 1830
L 3226 1830
C 3270 2029 3309 2234 3334 2451
L 5427 2451
L 5427 5037
L 979 5037
L 979 2451
L 2835 2451
C 2810 2234 2771 2029 2720 1830
L 461 1830
z
" transform="scale(0.015625)"/>
      <path id="NotoSansCJKtc-Regular-12" d="M 563 0
L 3136 0
L 3136 486
L 2195 486
L 2195 4691
L 1747 4691
C 1491 4544 1190 4435 774 4358
L 774 3987
L 1613 3987
L 1613 486
L 563 486
L 563 0
z
" transform="scale(0.015625)"/>
     </defs>
     <use xlink:href="#NotoSansCJKtc-Regular-69c0"/>
     <use xlink:href="#NotoSansCJKtc-Regular-12" transform="translate(100 0)"/>
    </g>
   </g>
   <g id="text_2">
    <!-- 男2 -->
    <g style="fill: #222831" transform="translate(289.081786 166.053143) scale(0.11 -0.11)">
     <defs>
      <path id="NotoSansCJKtc-Regular-13" d="M 282 0
L 3232 0
L 3232 506
L 1933 506
C 1696 506 1408 480 1165 461
C 2266 1504 3008 2458 3008 3398
C 3008 4230 2477 4774 1638 4774
C 1043 4774 634 4506 256 4090
L 595 3757
C 858 4070 1184 4301 1568 4301
C 2150 4301 2432 3910 2432 3373
C 2432 2566 1754 1632 282 346
L 282 0
z
" transform="scale(0.015625)"/>
     </defs>
     <use xlink:href="#NotoSansCJKtc-Regular-69c0"/>
     <use xlink:href="#NotoSansCJKtc-Regular-13" transform="translate(100 0)"/>
    </g>
   </g>
   <g id="text_3">
    <!-- 男3 -->
    <g style="fill: #222831" transform="translate(437.676071 166.053143) scale(0.11 -0.11)">
     <defs>
      <path id="NotoSansCJKtc-Regular-14" d="M 1683 -83
C 2522 -83 3194 416 3194 1254
C 3194 1901 2752 2310 2202 2445
L 2202 2477
C 2701 2650 3034 3034 3034 3603
C 3034 4346 2458 4774 1664 4774
C 1126 4774 710 4538 358 4218
L 672 3846
C 941 4115 1267 4301 1645 4301
C 2138 4301 2438 4006 2438 3558
C 2438 3053 2112 2662 1139 2662
L 1139 2214
C 2227 2214 2598 1843 2598 1274
C 2598 736 2208 403 1645 403
C 1114 403 762 659 486 941
L 186 563
C 493 224 954 -83 1683 -83
z
" transform="scale(0.015625)"/>
     </defs>
     <use xlink:href="#NotoSansCJKtc-Regular-69c0"/>
     <use xlink:href="#NotoSansCJKtc-Regular-14" transform="translate(100 0)"/>
    </g>
   </g>
   <g id="text_4">
    <!-- 男4 -->
    <g style="fill: #222831" transform="translate(586.270357 166.053143) scale(0.11 -0.11)">
     <defs>
      <path id="NotoSansCJKtc-Regular-15" d="M 2176 0
L 2726 0
L 2726 1293
L 3354 1293
L 3354 1760
L 2726 1760
L 2726 4691
L 2080 4691
L 128 1677
L 128 1293
L 2176 1293
L 2176 0
z
M 2176 1760
L 736 1760
L 1805 3360
C 1939 3590 2067 3827 2182 4051
L 2208 4051
C 2195 3814 2176 3430 2176 3200
L 2176 1760
z
" transform="scale(0.015625)"/>
     </defs>
     <use xlink:href="#NotoSansCJKtc-Regular-69c0"/>
     <use xlink:href="#NotoSansCJKtc-Regular-15" transform="translate(100 0)"/>
    </g>
   </g>
   <g id="text_5">
    <!-- 空隙1 -->
    <g style="fill: #bf8700" transform="translate(58.590714 103.110857) scale(0.1 -0.1)">
     <defs>
      <path id="NotoSansCJKtc-Regular-72de" d="M 474 90
L 474 -371
L 5958 -371
L 5958 90
L 3469 90
L 3469 1472
L 5350 1472
L 5350 1920
L 1050 1920
L 1050 1472
L 2970 1472
L 2970 90
L 474 90
z
M 2682 5274
C 2790 5082 2906 4845 2995 4640
L 486 4640
L 486 3194
L 960 3194
L 960 4192
L 2362 4192
C 2278 3264 1997 2848 570 2643
C 653 2547 768 2374 794 2259
C 2387 2522 2746 3059 2854 4192
L 3667 4192
L 3667 3168
C 3667 2662 3814 2490 4352 2490
C 4480 2490 5299 2490 5478 2490
C 5696 2490 5920 2496 6029 2528
C 6010 2637 5990 2822 5984 2957
C 5862 2925 5613 2918 5459 2918
C 5286 2918 4518 2918 4358 2918
C 4173 2918 4141 2976 4141 3162
L 4141 4192
L 5402 4192
L 5402 3347
L 5894 3347
L 5894 4640
L 3578 4640
C 3482 4870 3322 5184 3181 5414
L 2682 5274
z
" transform="scale(0.015625)"/>
      <path id="NotoSansCJKtc-Regular-a8fe" d="M 3098 2272
L 5286 2272
L 5286 1741
L 3098 1741
L 3098 2272
z
M 3098 3142
L 5286 3142
L 5286 2611
L 3098 2611
L 3098 3142
z
M 3130 5018
C 2950 4666 2662 4294 2355 4038
C 2464 3981 2643 3872 2733 3802
C 3027 4077 3354 4499 3546 4902
L 3130 5018
z
M 4749 4877
C 5101 4550 5498 4090 5677 3789
L 6035 4026
C 5856 4333 5446 4774 5088 5082
L 4749 4877
z
M 2970 1075
C 2771 627 2445 186 2086 -109
C 2189 -173 2368 -307 2451 -378
C 2803 -51 3174 461 3392 966
L 2970 1075
z
M 4896 928
C 5235 538 5600 6 5747 -333
L 6150 -141
C 5990 211 5619 723 5280 1101
L 4896 928
z
M 3520 4013
C 3437 3859 3302 3661 3168 3494
L 2656 3494
L 2656 1382
L 3955 1382
L 3955 -13
C 3955 -77 3930 -102 3859 -102
C 3789 -102 3533 -102 3258 -96
C 3315 -218 3373 -378 3392 -493
C 3776 -493 4032 -493 4198 -429
C 4365 -365 4403 -250 4403 -19
L 4403 1382
L 5747 1382
L 5747 3494
L 3699 3494
C 3795 3610 3891 3738 3987 3872
L 4403 3872
L 4403 5370
L 3955 5370
L 3955 3885
L 3520 4013
z
M 518 5101
L 518 -512
L 947 -512
L 947 4666
L 1818 4666
C 1683 4237 1491 3674 1306 3219
C 1773 2707 1888 2266 1888 1914
C 1888 1722 1850 1536 1754 1466
C 1696 1434 1632 1414 1549 1408
C 1446 1402 1325 1408 1178 1421
C 1248 1293 1293 1107 1299 992
C 1440 986 1600 986 1728 1005
C 1862 1018 1971 1056 2061 1120
C 2240 1254 2317 1523 2317 1869
C 2317 2272 2208 2733 1741 3270
C 1958 3782 2195 4410 2381 4934
L 2067 5120
L 1997 5101
L 518 5101
z
" transform="scale(0.015625)"/>
     </defs>
     <use xlink:href="#NotoSansCJKtc-Regular-72de"/>
     <use xlink:href="#NotoSansCJKtc-Regular-a8fe" transform="translate(100 0)"/>
     <use xlink:href="#NotoSansCJKtc-Regular-12" transform="translate(200 0)"/>
    </g>
   </g>
   <g id="text_6">
    <!-- 空隙2 -->
    <g style="fill: #bf8700" transform="translate(210.562143 103.110857) scale(0.1 -0.1)">
     <use xlink:href="#NotoSansCJKtc-Regular-72de"/>
     <use xlink:href="#NotoSansCJKtc-Regular-a8fe" transform="translate(100 0)"/>
     <use xlink:href="#NotoSansCJKtc-Regular-13" transform="translate(200 0)"/>
    </g>
   </g>
   <g id="text_7">
    <!-- 空隙3 -->
    <g style="fill: #bf8700" transform="translate(359.156429 103.110857) scale(0.1 -0.1)">
     <use xlink:href="#NotoSansCJKtc-Regular-72de"/>
     <use xlink:href="#NotoSansCJKtc-Regular-a8fe" transform="translate(100 0)"/>
     <use xlink:href="#NotoSansCJKtc-Regular-14" transform="translate(200 0)"/>
    </g>
   </g>
   <g id="text_8">
    <!-- 空隙4 -->
    <g style="fill: #bf8700" transform="translate(507.750714 103.110857) scale(0.1 -0.1)">
     <use xlink:href="#NotoSansCJKtc-Regular-72de"/>
     <use xlink:href="#NotoSansCJKtc-Regular-a8fe" transform="translate(100 0)"/>
     <use xlink:href="#NotoSansCJKtc-Regular-15" transform="translate(200 0)"/>
    </g>
   </g>
   <g id="text_9">
    <!-- 空隙5 -->
    <g style="fill: #bf8700" transform="translate(659.722143 103.110857) scale(0.1 -0.1)">
     <defs>
      <path id="NotoSansCJKtc-Regular-16" d="M 1677 -83
C 2464 -83 3213 499 3213 1523
C 3213 2560 2573 3021 1798 3021
C 1517 3021 1306 2950 1094 2835
L 1216 4192
L 2982 4192
L 2982 4691
L 704 4691
L 550 2502
L 864 2304
C 1133 2483 1331 2579 1645 2579
C 2234 2579 2618 2182 2618 1510
C 2618 826 2176 403 1619 403
C 1075 403 730 653 467 922
L 173 538
C 493 224 941 -83 1677 -83
z
" transform="scale(0.015625)"/>
     </defs>
     <use xlink:href="#NotoSansCJKtc-Regular-72de"/>
     <use xlink:href="#NotoSansCJKtc-Regular-a8fe" transform="translate(100 0)"/>
     <use xlink:href="#NotoSansCJKtc-Regular-16" transform="translate(200 0)"/>
    </g>
   </g>
   <g id="text_10">
    <!-- 先排 4 位男生：$4!$；再從 5 個空隙選 3 個並排列女生 -->
    <g style="fill: #222831" transform="translate(229.250714 51.102857) scale(0.13 -0.13)">
     <defs>
      <path id="NotoSansCJKtc-Regular-2a5d" d="M 2957 5376
L 2957 4378
L 1824 4378
C 1914 4634 1997 4890 2061 5126
L 1574 5229
C 1414 4557 1094 3706 653 3162
C 774 3117 960 3008 1069 2938
C 1286 3206 1478 3552 1638 3917
L 2957 3917
L 2957 2624
L 390 2624
L 390 2157
L 2061 2157
C 1952 1101 1664 282 301 -141
C 416 -237 550 -422 608 -544
C 2067 -38 2426 902 2560 2157
L 3782 2157
L 3782 275
C 3782 -256 3923 -410 4499 -410
C 4614 -410 5280 -410 5402 -410
C 5920 -410 6054 -160 6106 813
C 5971 851 5766 928 5664 1011
C 5638 179 5600 51 5363 51
C 5216 51 4666 51 4550 51
C 4307 51 4262 83 4262 275
L 4262 2157
L 6016 2157
L 6016 2624
L 3443 2624
L 3443 3917
L 5555 3917
L 5555 4378
L 3443 4378
L 3443 5376
L 2957 5376
z
" transform="scale(0.015625)"/>
      <path id="NotoSansCJKtc-Regular-4ab6" d="M 1984 1274
L 2170 858
L 3200 1235
C 3046 685 2739 198 2138 -198
C 2240 -275 2400 -422 2477 -518
C 3642 269 3789 1395 3789 2675
L 3789 5376
L 3347 5376
L 3347 4282
L 2298 4282
L 2298 3840
L 3347 3840
L 3347 2944
L 2342 2944
L 2342 2509
L 3347 2509
C 3341 2221 3328 1939 3290 1677
C 2803 1517 2330 1363 1984 1274
z
M 4454 5376
L 4454 -506
L 4909 -506
L 4909 1107
L 6144 1107
L 6144 1549
L 4909 1549
L 4909 2509
L 5971 2509
L 5971 2944
L 4909 2944
L 4909 3840
L 6035 3840
L 6035 4282
L 4909 4282
L 4909 5376
L 4454 5376
z
M 1069 5370
L 1069 4083
L 269 4083
L 269 3635
L 1069 3635
L 1069 2323
L 179 2054
L 301 1594
L 1069 1843
L 1069 45
C 1069 -45 1037 -70 960 -70
C 883 -77 634 -77 358 -64
C 416 -198 480 -397 493 -512
C 902 -518 1146 -499 1299 -422
C 1459 -352 1517 -218 1517 45
L 1517 1990
L 2221 2221
L 2150 2662
L 1517 2464
L 1517 3635
L 2208 3635
L 2208 4083
L 1517 4083
L 1517 5370
L 1069 5370
z
" transform="scale(0.015625)"/>
      <path id="NotoSansCJKtc-Regular-1" transform="scale(0.015625)"/>
      <path id="NotoSansCJKtc-Regular-26e4" d="M 2362 4211
L 2362 3744
L 5850 3744
L 5850 4211
L 2362 4211
z
M 2784 3258
C 2976 2368 3168 1184 3219 512
L 3693 653
C 3629 1306 3430 2458 3219 3360
L 2784 3258
z
M 3648 5299
C 3770 4979 3898 4557 3949 4282
L 4429 4422
C 4365 4698 4224 5101 4102 5421
L 3648 5299
z
M 2086 218
L 2086 -243
L 6112 -243
L 6112 218
L 4787 218
C 5024 1075 5286 2336 5459 3322
L 4954 3405
C 4838 2445 4582 1082 4339 218
L 2086 218
z
M 1830 5350
C 1472 4378 870 3418 243 2797
C 326 2688 467 2438 518 2323
C 736 2547 947 2810 1152 3098
L 1152 -499
L 1632 -499
L 1632 3846
C 1882 4282 2106 4749 2285 5216
L 1830 5350
z
" transform="scale(0.015625)"/>
      <path id="NotoSansCJKtc-Regular-699f" d="M 1530 5274
C 1286 4358 870 3469 346 2899
C 467 2835 678 2694 774 2611
C 1018 2899 1242 3264 1446 3667
L 2963 3667
L 2963 2253
L 1056 2253
L 1056 1792
L 2963 1792
L 2963 160
L 352 160
L 352 -307
L 6074 -307
L 6074 160
L 3462 160
L 3462 1792
L 5536 1792
L 5536 2253
L 3462 2253
L 3462 3667
L 5766 3667
L 5766 4134
L 3462 4134
L 3462 5376
L 2963 5376
L 2963 4134
L 1658 4134
C 1798 4461 1920 4813 2016 5165
L 1530 5274
z
" transform="scale(0.015625)"/>
      <path id="NotoSansCJKtc-Regular-e6c0" d="M 3200 3482
C 3456 3482 3686 3667 3686 3962
C 3686 4256 3456 4442 3200 4442
C 2944 4442 2714 4256 2714 3962
C 2714 3667 2944 3482 3200 3482
z
M 3200 346
C 3456 346 3686 538 3686 826
C 3686 1120 3456 1312 3200 1312
C 2944 1312 2714 1120 2714 826
C 2714 538 2944 346 3200 346
z
" transform="scale(0.015625)"/>
      <path id="Cmr10-3b" d="M 178 1056
L 178 1281
L 2156 4231
Q 2178 4263 2222 4263
L 2316 4263
Q 2388 4263 2388 4191
L 2388 1281
L 3016 1281
L 3016 1056
L 2388 1056
L 2388 428
Q 2388 297 2575 261
Q 2763 225 3009 225
L 3009 0
L 1247 0
L 1247 225
Q 1494 225 1681 261
Q 1869 297 1869 428
L 1869 1056
L 178 1056
z
M 391 1281
L 1906 1281
L 1906 3547
L 391 1281
z
" transform="scale(0.015625)"/>
      <path id="Cmr10-1d" d="M 538 353
Q 538 497 644 600
Q 750 703 891 703
Q 978 703 1062 656
Q 1147 609 1194 525
Q 1241 441 1241 353
Q 1241 213 1137 106
Q 1034 0 891 0
Q 750 0 644 106
Q 538 213 538 353
z
M 800 1275
L 538 4225
L 538 4263
Q 538 4397 645 4489
Q 753 4581 891 4581
Q 1031 4581 1136 4489
Q 1241 4397 1241 4263
L 1241 4225
L 984 1275
Q 984 1253 965 1234
Q 947 1216 928 1216
L 850 1216
Q 834 1216 817 1236
Q 800 1256 800 1275
z
" transform="scale(0.015625)"/>
      <path id="NotoSansCJKtc-Regular-e6c1" d="M 3200 3482
C 3456 3482 3686 3667 3686 3962
C 3686 4256 3456 4442 3200 4442
C 2944 4442 2714 4256 2714 3962
C 2714 3667 2944 3482 3200 3482
z
M 2682 -659
C 3366 -397 3789 141 3789 883
C 3789 1363 3590 1664 3238 1664
C 2982 1664 2752 1504 2752 1203
C 2752 896 2970 742 3232 742
L 3347 755
C 3328 256 3053 -83 2534 -320
L 2682 -659
z
" transform="scale(0.015625)"/>
      <path id="NotoSansCJKtc-Regular-2acb" d="M 1011 3910
L 1011 1485
L 256 1485
L 256 1037
L 1011 1037
L 1011 -525
L 1485 -525
L 1485 1037
L 4909 1037
L 4909 83
C 4909 -26 4870 -58 4749 -64
C 4640 -70 4224 -77 3802 -58
C 3878 -186 3949 -390 3981 -518
C 4531 -518 4890 -512 5101 -435
C 5312 -358 5382 -218 5382 77
L 5382 1037
L 6157 1037
L 6157 1485
L 5382 1485
L 5382 3910
L 3418 3910
L 3418 4538
L 5920 4538
L 5920 4986
L 493 4986
L 493 4538
L 2931 4538
L 2931 3910
L 1011 3910
z
M 4909 1485
L 3418 1485
L 3418 2278
L 4909 2278
L 4909 1485
z
M 1485 1485
L 1485 2278
L 2931 2278
L 2931 1485
L 1485 1485
z
M 4909 2701
L 3418 2701
L 3418 3469
L 4909 3469
L 4909 2701
z
M 1485 2701
L 1485 3469
L 2931 3469
L 2931 2701
L 1485 2701
z
" transform="scale(0.015625)"/>
      <path id="NotoSansCJKtc-Regular-440d" d="M 1562 5376
C 1280 4922 710 4371 211 4032
C 288 3949 416 3776 474 3680
C 1024 4070 1619 4666 1997 5203
L 1562 5376
z
M 2694 2400
C 2637 1229 2400 352 1747 -186
C 1850 -256 2048 -416 2118 -499
C 2470 -173 2720 237 2880 736
C 3309 -211 3981 -448 4934 -448
L 6003 -448
C 6022 -326 6093 -115 6157 -6
C 5952 -6 5107 -13 4966 -6
C 4762 -6 4576 6 4397 38
L 4397 1370
L 5824 1370
L 5824 1786
L 4397 1786
L 4397 2861
L 4147 2861
C 4454 3130 4698 3462 4890 3853
C 5261 3507 5651 3091 5850 2816
L 6189 3136
C 5958 3443 5472 3910 5062 4269
C 5178 4582 5261 4934 5318 5312
L 4851 5370
C 4717 4371 4358 3584 3706 3110
C 3795 3053 3942 2944 4032 2861
L 3949 2861
L 3949 173
C 3546 365 3238 736 3053 1408
C 3104 1702 3142 2022 3162 2362
L 2694 2400
z
M 3130 5376
C 2950 4403 2566 3571 1965 3053
C 2067 2976 2253 2810 2317 2720
C 2656 3034 2938 3443 3155 3923
C 3405 3718 3661 3475 3802 3309
L 4032 3680
C 3878 3853 3584 4109 3315 4314
C 3430 4621 3526 4954 3597 5299
L 3130 5376
z
M 1715 4070
C 1338 3392 723 2726 134 2285
C 218 2189 358 1958 410 1862
C 646 2054 896 2291 1133 2547
L 1133 -531
L 1587 -531
L 1587 3085
C 1798 3354 1984 3635 2144 3917
L 1715 4070
z
" transform="scale(0.015625)"/>
      <path id="NotoSansCJKtc-Regular-2815" d="M 3533 2195
L 4614 2195
L 4614 1197
L 3533 1197
L 3533 2195
z
M 2189 4992
L 2189 -506
L 2630 -506
L 2630 -128
L 5472 -128
L 5472 -461
L 5933 -461
L 5933 4992
L 2189 4992
z
M 2630 307
L 2630 4563
L 5472 4563
L 5472 307
L 2630 307
z
M 3162 2554
L 3162 838
L 4998 838
L 4998 2554
L 4256 2554
L 4256 3258
L 5254 3258
L 5254 3629
L 4256 3629
L 4256 4358
L 3866 4358
L 3866 3629
L 2899 3629
L 2899 3258
L 3866 3258
L 3866 2554
L 3162 2554
z
M 1523 5344
C 1203 4378 685 3411 109 2784
C 192 2662 320 2400 365 2291
C 582 2541 787 2829 986 3142
L 986 -518
L 1446 -518
L 1446 3968
C 1645 4371 1824 4794 1965 5216
L 1523 5344
z
" transform="scale(0.015625)"/>
      <path id="NotoSansCJKtc-Regular-9e61" d="M 4320 1037
C 4787 813 5267 518 5536 275
L 5965 493
C 5651 736 5120 1030 4640 1254
L 4320 1037
z
M 3245 1254
C 2944 986 2458 730 2003 550
C 2118 486 2291 339 2374 256
C 2816 461 3334 781 3680 1101
L 3245 1254
z
M 429 5126
C 717 4806 1069 4365 1242 4096
L 1613 4358
C 1434 4614 1082 5024 787 5338
L 429 5126
z
M 4480 3110
L 4480 2650
L 3482 2650
L 3482 3110
L 3034 3110
L 3034 2650
L 2144 2650
L 2144 2278
L 3034 2278
L 3034 1677
L 1875 1677
L 1875 1306
L 6074 1306
L 6074 1677
L 4928 1677
L 4928 2278
L 5862 2278
L 5862 2650
L 4928 2650
L 4928 3110
L 4480 3110
z
M 3482 2278
L 4480 2278
L 4480 1677
L 3482 1677
L 3482 2278
z
M 2106 3059
C 2214 3123 2406 3162 3834 3418
C 3834 3501 3846 3654 3872 3757
L 2496 3546
L 2496 4038
L 3808 4038
L 3808 5126
L 2106 5126
L 2106 3808
C 2106 3565 2016 3488 1933 3443
C 1997 3347 2080 3168 2106 3059
z
M 2496 4794
L 3398 4794
L 3398 4371
L 2496 4371
L 2496 4794
z
M 4141 5120
L 4141 3821
C 4141 3379 4250 3226 4691 3226
C 4794 3226 5453 3226 5594 3226
C 5766 3226 5946 3232 6035 3258
C 6022 3347 6010 3494 5997 3603
C 5894 3578 5696 3571 5581 3571
C 5453 3571 4845 3571 4710 3571
C 4563 3571 4538 3629 4538 3808
L 4538 4032
L 5888 4032
L 5888 5120
L 4141 5120
z
M 4538 4787
L 5466 4787
L 5466 4365
L 4538 4365
L 4538 4787
z
M 410 1818
C 454 1869 621 1914 774 1914
L 1350 1914
C 1158 922 749 205 186 -198
C 288 -262 442 -422 512 -525
C 813 -294 1082 26 1299 442
C 1805 -288 2611 -416 3930 -416
C 4640 -416 5453 -403 6054 -365
C 6080 -230 6144 -6 6221 102
C 5555 38 4614 6 3930 6
C 2720 13 1901 109 1478 832
C 1638 1229 1760 1696 1837 2227
L 1600 2310
L 1517 2304
L 896 2304
C 1197 2739 1594 3430 1811 3802
L 1491 3930
L 1402 3891
L 301 3891
L 301 3488
L 1158 3488
C 941 3091 634 2573 518 2438
C 422 2317 326 2278 230 2246
C 282 2157 384 1933 410 1818
z
" transform="scale(0.015625)"/>
      <path id="NotoSansCJKtc-Regular-253e" d="M 5120 3072
C 4966 2426 4666 1530 4416 973
L 4838 851
C 5101 1389 5408 2240 5632 2938
L 5120 3072
z
M 813 2893
C 1120 2253 1370 1408 1427 858
L 1888 973
C 1824 1536 1568 2362 1248 3002
L 813 2893
z
M 1370 5197
C 1619 4864 1875 4403 1984 4096
L 512 4096
L 512 3622
L 2266 3622
L 2266 256
L 346 256
L 346 -230
L 6061 -230
L 6061 256
L 4109 256
L 4109 3622
L 5901 3622
L 5901 4096
L 4416 4096
C 4640 4403 4902 4826 5114 5222
L 4602 5376
C 4454 5018 4173 4506 3942 4186
L 4192 4096
L 2035 4096
L 2438 4269
C 2330 4576 2061 5024 1792 5363
L 1370 5197
z
M 2739 3622
L 3622 3622
L 3622 256
L 2739 256
L 2739 3622
z
" transform="scale(0.015625)"/>
      <path id="NotoSansCJKtc-Regular-2b9b" d="M 3814 4646
L 3814 1139
L 4288 1139
L 4288 4646
L 3814 4646
z
M 5376 5254
L 5376 115
C 5376 -6 5331 -45 5210 -45
C 5088 -51 4698 -58 4256 -45
C 4333 -179 4403 -384 4429 -518
C 5011 -518 5357 -506 5568 -429
C 5766 -352 5850 -205 5850 115
L 5850 5254
L 5376 5254
z
M 2816 3206
C 2714 2694 2560 2234 2374 1824
C 2074 2054 1606 2355 1203 2592
C 1318 2790 1421 2995 1510 3206
L 2816 3206
z
M 384 5043
L 384 4595
L 1491 4595
C 1267 3654 826 2598 141 1952
C 243 1875 397 1728 480 1638
C 659 1811 826 2010 973 2227
C 1382 1978 1856 1651 2157 1408
C 1734 691 1184 166 538 -173
C 646 -250 826 -422 902 -531
C 2080 147 3008 1472 3360 3558
L 3059 3667
L 2976 3648
L 1690 3648
C 1805 3962 1901 4282 1984 4595
L 3571 4595
L 3571 5043
L 384 5043
z
" transform="scale(0.015625)"/>
      <path id="NotoSansCJKtc-Regular-3777" d="M 4371 3334
C 4134 2509 3802 1850 3309 1331
C 2835 1549 2349 1760 1862 1952
C 2061 2349 2278 2829 2490 3334
L 4371 3334
z
M 1133 1728
C 1734 1498 2336 1235 2899 973
C 2285 499 1478 179 390 -26
C 506 -147 627 -352 685 -486
C 1882 -237 2765 147 3424 717
C 4250 301 4979 -128 5510 -506
L 5907 -77
C 5370 288 4634 698 3808 1094
C 4320 1677 4666 2413 4909 3334
L 6042 3334
L 6042 3846
L 5030 3846
L 5120 4333
L 4614 4461
C 4576 4250 4538 4045 4499 3846
L 2694 3846
C 2893 4365 3072 4890 3200 5370
L 2682 5440
C 2547 4947 2355 4397 2138 3846
L 384 3846
L 384 3334
L 1920 3334
C 1658 2726 1382 2157 1133 1728
z
" transform="scale(0.015625)"/>
     </defs>
     <use xlink:href="#NotoSansCJKtc-Regular-2a5d"/>
     <use xlink:href="#NotoSansCJKtc-Regular-4ab6" transform="translate(99.999908 0)"/>
     <use xlink:href="#NotoSansCJKtc-Regular-1" transform="translate(199.999817 0)"/>
     <use xlink:href="#NotoSansCJKtc-Regular-15" transform="translate(222.399796 0)"/>
     <use xlink:href="#NotoSansCJKtc-Regular-1" transform="translate(277.89975 0)"/>
     <use xlink:href="#NotoSansCJKtc-Regular-26e4" transform="translate(300.299728 0)"/>
     <use xlink:href="#NotoSansCJKtc-Regular-69c0" transform="translate(400.299637 0)"/>
     <use xlink:href="#NotoSansCJKtc-Regular-699f" transform="translate(500.299545 0)"/>
     <use xlink:href="#NotoSansCJKtc-Regular-e6c0" transform="translate(600.299454 0)"/>
     <use xlink:href="#Cmr10-3b" transform="translate(700.299362 0)"/>
     <use xlink:href="#Cmr10-1d" transform="translate(750.299362 0)"/>
     <use xlink:href="#NotoSansCJKtc-Regular-e6c1" transform="translate(797.984966 0)"/>
     <use xlink:href="#NotoSansCJKtc-Regular-2acb" transform="translate(897.984875 0)"/>
     <use xlink:href="#NotoSansCJKtc-Regular-440d" transform="translate(997.984783 0)"/>
     <use xlink:href="#NotoSansCJKtc-Regular-1" transform="translate(1097.984692 0)"/>
     <use xlink:href="#NotoSansCJKtc-Regular-16" transform="translate(1120.38467 0)"/>
     <use xlink:href="#NotoSansCJKtc-Regular-1" transform="translate(1175.884624 0)"/>
     <use xlink:href="#NotoSansCJKtc-Regular-2815" transform="translate(1198.284603 0)"/>
     <use xlink:href="#NotoSansCJKtc-Regular-72de" transform="translate(1298.284512 0)"/>
     <use xlink:href="#NotoSansCJKtc-Regular-a8fe" transform="translate(1398.28442 0)"/>
     <use xlink:href="#NotoSansCJKtc-Regular-9e61" transform="translate(1498.284328 0)"/>
     <use xlink:href="#NotoSansCJKtc-Regular-1" transform="translate(1598.284237 0)"/>
     <use xlink:href="#NotoSansCJKtc-Regular-14" transform="translate(1620.684216 0)"/>
     <use xlink:href="#NotoSansCJKtc-Regular-1" transform="translate(1676.18417 0)"/>
     <use xlink:href="#NotoSansCJKtc-Regular-2815" transform="translate(1698.584148 0)"/>
     <use xlink:href="#NotoSansCJKtc-Regular-253e" transform="translate(1798.584057 0)"/>
     <use xlink:href="#NotoSansCJKtc-Regular-4ab6" transform="translate(1898.583965 0)"/>
     <use xlink:href="#NotoSansCJKtc-Regular-2b9b" transform="translate(1998.583874 0)"/>
     <use xlink:href="#NotoSansCJKtc-Regular-3777" transform="translate(2098.583782 0)"/>
     <use xlink:href="#NotoSansCJKtc-Regular-699f" transform="translate(2198.583691 0)"/>
    </g>
   </g>
   <g id="text_11">
    <!-- $4!\binom{5}{3}3!=1440$ 種，女生自然兩兩不相鄰 -->
    <g style="fill: #222831" transform="translate(263.570714 242.249143) scale(0.13 -0.13)">
     <defs>
      <path id="Cmex10-44" d="M 2503 -7406
Q 1713 -6744 1342 -5734
Q 972 -4725 972 -3584
Q 972 -2434 1342 -1423
Q 1713 -413 2503 244
Q 2503 256 2534 256
L 2613 256
Q 2631 256 2647 236
Q 2663 216 2663 197
Q 2663 172 2650 159
Q 2303 -200 2067 -640
Q 1831 -1081 1695 -1554
Q 1559 -2028 1500 -2543
Q 1441 -3059 1441 -3591
Q 1441 -6072 2650 -7322
Q 2663 -7334 2663 -7359
Q 2663 -7378 2645 -7398
Q 2628 -7419 2613 -7419
L 2534 -7419
Q 2503 -7419 2503 -7406
z
" transform="scale(0.015625)"/>
      <path id="Cmr10-78" d="M 556 728
Q 622 541 758 387
Q 894 234 1080 148
Q 1266 63 1466 63
Q 1928 63 2103 422
Q 2278 781 2278 1294
Q 2278 1516 2270 1667
Q 2263 1819 2228 1959
Q 2169 2184 2020 2353
Q 1872 2522 1656 2522
Q 1441 2522 1286 2456
Q 1131 2391 1034 2303
Q 938 2216 863 2119
Q 788 2022 769 2016
L 697 2016
Q 681 2016 657 2036
Q 634 2056 634 2075
L 634 4213
Q 634 4228 654 4245
Q 675 4263 697 4263
L 716 4263
Q 1147 4056 1631 4056
Q 2106 4056 2547 4263
L 2566 4263
Q 2588 4263 2606 4247
Q 2625 4231 2625 4213
L 2625 4153
Q 2625 4122 2613 4122
Q 2394 3831 2064 3668
Q 1734 3506 1381 3506
Q 1125 3506 856 3578
L 856 2369
Q 1069 2541 1236 2614
Q 1403 2688 1663 2688
Q 2016 2688 2295 2484
Q 2575 2281 2725 1954
Q 2875 1628 2875 1288
Q 2875 903 2686 575
Q 2497 247 2172 53
Q 1847 -141 1466 -141
Q 1150 -141 886 21
Q 622 184 470 459
Q 319 734 319 1044
Q 319 1188 412 1278
Q 506 1369 647 1369
Q 788 1369 883 1276
Q 978 1184 978 1044
Q 978 906 883 811
Q 788 716 647 716
Q 625 716 597 720
Q 569 725 556 728
z
" transform="scale(0.015625)"/>
      <path id="Cmr10-6e" d="M 609 494
Q 759 275 1012 169
Q 1266 63 1556 63
Q 1928 63 2084 380
Q 2241 697 2241 1100
Q 2241 1281 2208 1462
Q 2175 1644 2097 1800
Q 2019 1956 1883 2050
Q 1747 2144 1550 2144
L 1125 2144
Q 1069 2144 1069 2203
L 1069 2259
Q 1069 2309 1125 2309
L 1478 2338
Q 1703 2338 1851 2506
Q 2000 2675 2069 2917
Q 2138 3159 2138 3378
Q 2138 3684 1994 3881
Q 1850 4078 1556 4078
Q 1313 4078 1091 3986
Q 869 3894 738 3706
Q 750 3709 759 3711
Q 769 3713 781 3713
Q 925 3713 1022 3613
Q 1119 3513 1119 3372
Q 1119 3234 1022 3134
Q 925 3034 781 3034
Q 641 3034 541 3134
Q 441 3234 441 3372
Q 441 3647 606 3850
Q 772 4053 1033 4158
Q 1294 4263 1556 4263
Q 1750 4263 1965 4205
Q 2181 4147 2356 4039
Q 2531 3931 2642 3762
Q 2753 3594 2753 3378
Q 2753 3109 2633 2881
Q 2513 2653 2303 2487
Q 2094 2322 1844 2241
Q 2122 2188 2372 2031
Q 2622 1875 2773 1631
Q 2925 1388 2925 1106
Q 2925 753 2731 467
Q 2538 181 2222 20
Q 1906 -141 1556 -141
Q 1256 -141 954 -26
Q 653 88 461 316
Q 269 544 269 863
Q 269 1022 375 1128
Q 481 1234 641 1234
Q 744 1234 830 1186
Q 916 1138 964 1050
Q 1013 963 1013 863
Q 1013 706 903 600
Q 794 494 641 494
L 609 494
z
" transform="scale(0.015625)"/>
      <path id="Cmex10-69" d="M 319 -7419
Q 263 -7419 263 -7359
Q 263 -7334 275 -7322
Q 734 -6844 1001 -6236
Q 1269 -5628 1376 -4961
Q 1484 -4294 1484 -3578
Q 1484 -1091 275 159
Q 263 172 263 197
Q 263 256 319 256
L 397 256
Q 416 256 428 244
Q 1216 -413 1584 -1423
Q 1953 -2434 1953 -3584
Q 1953 -4725 1586 -5734
Q 1219 -6744 428 -7406
Q 416 -7419 397 -7419
L 319 -7419
z
" transform="scale(0.015625)"/>
      <path id="Cmr10-29" d="M 481 850
Q 428 850 393 890
Q 359 931 359 978
Q 359 1031 393 1068
Q 428 1106 481 1106
L 4500 1106
Q 4547 1106 4581 1068
Q 4616 1031 4616 978
Q 4616 931 4581 890
Q 4547 850 4500 850
L 481 850
z
M 481 2094
Q 428 2094 393 2131
Q 359 2169 359 2222
Q 359 2269 393 2309
Q 428 2350 481 2350
L 4500 2350
Q 4547 2350 4581 2309
Q 4616 2269 4616 2222
Q 4616 2169 4581 2131
Q 4547 2094 4500 2094
L 481 2094
z
" transform="scale(0.015625)"/>
      <path id="Cmr10-64" d="M 594 0
L 594 225
Q 1394 225 1394 428
L 1394 3788
Q 1063 3628 556 3628
L 556 3853
Q 1341 3853 1741 4263
L 1831 4263
Q 1853 4263 1873 4245
Q 1894 4228 1894 4206
L 1894 428
Q 1894 225 2694 225
L 2694 0
L 594 0
z
" transform="scale(0.015625)"/>
      <path id="Cmr10-28" d="M 1600 -141
Q 816 -141 533 504
Q 250 1150 250 2041
Q 250 2597 351 3087
Q 453 3578 754 3920
Q 1056 4263 1600 4263
Q 2022 4263 2290 4056
Q 2559 3850 2700 3523
Q 2841 3197 2892 2823
Q 2944 2450 2944 2041
Q 2944 1491 2842 1011
Q 2741 531 2444 195
Q 2147 -141 1600 -141
z
M 1600 25
Q 1956 25 2131 390
Q 2306 756 2347 1200
Q 2388 1644 2388 2144
Q 2388 2625 2347 3031
Q 2306 3438 2132 3767
Q 1959 4097 1600 4097
Q 1238 4097 1063 3765
Q 888 3434 847 3029
Q 806 2625 806 2144
Q 806 1788 823 1472
Q 841 1156 916 820
Q 991 484 1158 254
Q 1325 25 1600 25
z
" transform="scale(0.015625)"/>
      <path id="NotoSansCJKtc-Regular-724a" d="M 2771 3424
L 2771 1370
L 4102 1370
L 4102 909
L 2701 909
L 2701 525
L 4102 525
L 4102 19
L 2336 19
L 2336 -378
L 6176 -378
L 6176 19
L 4563 19
L 4563 525
L 5958 525
L 5958 909
L 4563 909
L 4563 1370
L 5926 1370
L 5926 3424
L 4563 3424
L 4563 3853
L 6054 3853
L 6054 4250
L 4563 4250
L 4563 4723
C 5114 4774 5638 4845 6042 4934
L 5747 5299
C 5024 5133 3693 5030 2618 4986
C 2662 4883 2720 4723 2733 4614
C 3162 4627 3635 4653 4102 4685
L 4102 4250
L 2502 4250
L 2502 3853
L 4102 3853
L 4102 3424
L 2771 3424
z
M 3200 2240
L 4102 2240
L 4102 1728
L 3200 1728
L 3200 2240
z
M 4563 2240
L 5485 2240
L 5485 1728
L 4563 1728
L 4563 2240
z
M 3200 3066
L 4102 3066
L 4102 2560
L 3200 2560
L 3200 3066
z
M 4563 3066
L 5485 3066
L 5485 2560
L 4563 2560
L 4563 3066
z
M 2310 5286
C 1837 5069 992 4883 275 4762
C 333 4659 397 4499 416 4397
C 717 4435 1037 4493 1357 4557
L 1357 3571
L 314 3571
L 314 3123
L 1293 3123
C 1037 2387 595 1555 179 1101
C 262 986 378 794 429 659
C 755 1056 1094 1690 1357 2336
L 1357 -499
L 1830 -499
L 1830 2259
C 2048 1990 2304 1645 2413 1466
L 2701 1843
C 2573 1990 2016 2566 1830 2726
L 1830 3123
L 2630 3123
L 2630 3571
L 1830 3571
L 1830 4666
C 2131 4736 2413 4819 2643 4915
L 2310 5286
z
" transform="scale(0.015625)"/>
      <path id="NotoSansCJKtc-Regular-f6ac" d="M 2675 1203
C 3347 1440 3782 1965 3782 2656
C 3782 3104 3590 3392 3238 3392
C 2976 3392 2752 3232 2752 2931
C 2752 2630 2970 2477 3232 2477
L 3341 2490
C 3309 2048 3027 1747 2534 1542
L 2675 1203
z
" transform="scale(0.015625)"/>
      <path id="NotoSansCJKtc-Regular-8205" d="M 1530 2630
L 4954 2630
L 4954 1690
L 1530 1690
L 1530 2630
z
M 1530 3085
L 1530 4038
L 4954 4038
L 4954 3085
L 1530 3085
z
M 1530 1242
L 4954 1242
L 4954 294
L 1530 294
L 1530 1242
z
M 2912 5389
C 2861 5133 2758 4781 2662 4499
L 1043 4499
L 1043 -518
L 1530 -518
L 1530 -160
L 4954 -160
L 4954 -486
L 5459 -486
L 5459 4499
L 3149 4499
C 3258 4742 3366 5037 3469 5312
L 2912 5389
z
" transform="scale(0.015625)"/>
      <path id="NotoSansCJKtc-Regular-6287" d="M 4896 5030
C 5152 4768 5446 4397 5574 4154
L 5946 4384
C 5805 4627 5504 4979 5248 5235
L 4896 5030
z
M 2208 723
C 2285 339 2330 -160 2336 -461
L 2810 -390
C 2803 -102 2733 390 2650 768
L 2208 723
z
M 3526 736
C 3693 358 3853 -147 3910 -448
L 4384 -346
C 4320 -45 4141 448 3968 819
L 3526 736
z
M 4851 768
C 5171 371 5536 -179 5690 -525
L 6138 -314
C 5971 26 5594 563 5274 947
L 4851 768
z
M 1101 902
C 883 467 550 -32 262 -333
L 710 -512
C 1005 -179 1325 339 1542 781
L 1101 902
z
M 384 2707
L 506 2330
C 890 2445 1318 2579 1766 2720
L 1715 3034
C 1216 2906 736 2784 384 2707
z
M 4269 5299
L 4269 4595
C 4269 4422 4262 4224 4243 4019
L 3206 4019
L 3206 3558
L 4166 3558
C 4000 2829 3590 2022 2598 1357
C 2720 1274 2880 1139 2963 1050
C 3910 1690 4358 2464 4563 3206
C 5030 2509 5504 1670 5715 1133
L 6144 1344
C 5907 1926 5357 2835 4845 3558
L 6080 3558
L 6080 4019
L 4698 4019
C 4717 4224 4723 4416 4723 4595
L 4723 5299
L 4269 5299
z
M 1606 5434
C 1370 4717 877 3866 275 3354
C 346 3258 448 3059 493 2957
C 806 3219 1094 3558 1344 3923
C 1670 3680 2029 3366 2253 3123
C 1792 2355 1133 1824 365 1498
C 474 1421 634 1235 698 1126
C 1933 1696 2925 2822 3309 4704
L 3021 4819
L 2931 4806
L 1850 4806
C 1926 4973 1997 5139 2061 5299
L 1606 5434
z
M 1536 4224
L 1638 4410
L 2771 4410
C 2688 4070 2573 3763 2438 3482
C 2202 3712 1843 4000 1536 4224
z
" transform="scale(0.015625)"/>
      <path id="NotoSansCJKtc-Regular-2a94" d="M 1568 2784
L 1568 2445
L 1971 2445
C 1875 1683 1651 1050 1222 634
C 1299 589 1440 480 1498 429
C 1779 723 1990 1114 2138 1581
C 2221 1171 2381 774 2662 435
C 2720 506 2854 608 2931 653
C 2374 1293 2330 2112 2330 2784
L 1568 2784
z
M 442 4992
L 442 4518
L 2938 4518
L 2938 3718
L 672 3718
L 672 -499
L 1133 -499
L 1133 3264
L 2938 3264
L 2938 -480
L 3398 -480
L 3398 3264
L 5299 3264
L 5299 58
C 5299 -38 5267 -70 5171 -70
C 5069 -77 4736 -77 4384 -64
C 4448 -186 4525 -371 4550 -499
C 5005 -499 5325 -493 5517 -416
C 5709 -346 5766 -211 5766 51
L 5766 3718
L 3398 3718
L 3398 4518
L 5990 4518
L 5990 4992
L 442 4992
z
M 3802 2784
L 3802 2445
L 4218 2445
C 4115 1709 3891 1088 3482 678
C 3571 634 3706 525 3763 467
C 4038 768 4243 1158 4384 1626
C 4474 1203 4640 794 4947 454
C 5011 518 5146 621 5229 659
C 4640 1293 4589 2112 4589 2784
L 3802 2784
z
" transform="scale(0.015625)"/>
      <path id="NotoSansCJKtc-Regular-2518" d="M 3578 3059
C 4339 2547 5299 1792 5754 1299
L 6144 1670
C 5664 2163 4691 2880 3936 3366
L 3578 3059
z
M 442 4928
L 442 4435
L 3290 4435
C 2656 3341 1555 2259 282 1632
C 384 1523 531 1331 608 1210
C 1498 1677 2291 2336 2938 3078
L 2938 -499
L 3456 -499
L 3456 3738
C 3622 3962 3770 4198 3904 4435
L 5958 4435
L 5958 4928
L 442 4928
z
" transform="scale(0.015625)"/>
      <path id="NotoSansCJKtc-Regular-6ce8" d="M 3494 3034
L 5440 3034
L 5440 1920
L 3494 1920
L 3494 3034
z
M 3494 3469
L 3494 4544
L 5440 4544
L 5440 3469
L 3494 3469
z
M 3494 1478
L 5440 1478
L 5440 365
L 3494 365
L 3494 1478
z
M 3027 4998
L 3027 -467
L 3494 -467
L 3494 -77
L 5440 -77
L 5440 -448
L 5926 -448
L 5926 4998
L 3027 4998
z
M 1370 5376
L 1370 4006
L 333 4006
L 333 3546
L 1312 3546
C 1088 2662 634 1651 186 1120
C 262 1005 384 813 435 685
C 781 1126 1120 1837 1370 2573
L 1370 -506
L 1837 -506
L 1837 2419
C 2080 2106 2368 1709 2490 1498
L 2784 1888
C 2643 2061 2061 2746 1837 2970
L 1837 3546
L 2752 3546
L 2752 4006
L 1837 4006
L 1837 5376
L 1370 5376
z
" transform="scale(0.015625)"/>
      <path id="NotoSansCJKtc-Regular-9faa" d="M 653 5069
C 838 4819 1062 4474 1171 4269
L 1510 4480
C 1402 4678 1171 5005 979 5248
L 653 5069
z
M 3174 5267
C 3040 5011 2797 4646 2611 4416
L 2899 4275
C 3098 4480 3341 4800 3558 5088
L 3174 5267
z
M 2534 3482
C 2893 3238 3322 2880 3533 2650
L 3814 2912
C 3597 3142 3155 3482 2810 3712
L 2534 3482
z
M 1261 3725
C 1037 3430 614 3117 237 2970
C 326 2893 461 2746 525 2650
C 909 2848 1363 3238 1594 3590
L 1261 3725
z
M 1542 1766
C 1466 1466 1357 1190 1229 941
C 1120 1101 979 1286 845 1446
C 890 1549 934 1658 979 1766
L 1542 1766
z
M 858 2656
C 742 2067 538 1498 230 1120
C 307 1062 448 934 499 870
C 563 947 621 1037 678 1126
C 806 954 947 768 1037 608
C 800 250 512 -32 198 -211
C 288 -282 390 -422 435 -506
C 1158 -64 1747 819 1978 2086
L 1741 2157
L 1677 2144
L 1101 2144
C 1146 2291 1178 2438 1210 2586
L 858 2656
z
M 2803 1786
L 2803 832
L 2394 832
C 2458 1126 2522 1472 2573 1786
L 2803 1786
z
M 2061 2144
L 2061 1786
L 2227 1786
C 2157 1331 2048 800 1958 442
L 2803 442
L 2803 -518
L 3181 -518
L 3181 442
L 3840 442
L 3840 832
L 3181 832
L 3181 1786
L 3718 1786
L 3718 2144
L 3181 2144
L 3181 2637
L 2803 2637
L 2803 2144
L 2061 2144
z
M 358 4243
L 358 3872
L 1882 3872
L 1882 2509
L 2304 2509
L 2304 3872
L 3770 3872
L 3770 4243
L 2304 4243
L 2304 5376
L 1882 5376
L 1882 4243
L 358 4243
z
M 4179 5037
L 4179 -499
L 4621 -499
L 4621 4595
L 5504 4595
C 5338 4083 5107 3405 4883 2861
C 5427 2298 5574 1811 5574 1414
C 5574 1190 5536 979 5427 902
C 5363 864 5286 845 5197 838
C 5094 832 4960 832 4806 851
C 4883 723 4928 531 4934 410
C 5082 397 5248 403 5376 416
C 5523 435 5638 474 5741 544
C 5933 685 6010 986 6010 1370
C 6010 1818 5882 2330 5338 2925
C 5594 3514 5869 4256 6080 4851
L 5760 5056
L 5690 5037
L 4179 5037
z
" transform="scale(0.015625)"/>
     </defs>
     <use xlink:href="#Cmr10-3b"/>
     <use xlink:href="#Cmr10-1d" transform="translate(50 0)"/>
     <use xlink:href="#Cmex10-44" transform="translate(97.685604 79.693973) scale(0.959687)"/>
     <use xlink:href="#Cmr10-78" transform="translate(147.882885 36.920536) scale(0.7)"/>
     <use xlink:href="#Cmr10-6e" transform="translate(147.882885 -29.998214) scale(0.7)"/>
     <use xlink:href="#Cmex10-69" transform="translate(189.132885 79.693973) scale(0.959687)"/>
     <use xlink:href="#Cmr10-6e" transform="translate(233.080166 0)"/>
     <use xlink:href="#Cmr10-1d" transform="translate(283.080166 0)"/>
     <use xlink:href="#Cmr10-29" transform="translate(350.765827 0)"/>
     <use xlink:href="#Cmr10-64" transform="translate(448.451431 0)"/>
     <use xlink:href="#Cmr10-3b" transform="translate(498.451431 0)"/>
     <use xlink:href="#Cmr10-3b" transform="translate(548.451431 0)"/>
     <use xlink:href="#Cmr10-28" transform="translate(598.451431 0)"/>
     <use xlink:href="#NotoSansCJKtc-Regular-1" transform="translate(648.451431 0)"/>
     <use xlink:href="#NotoSansCJKtc-Regular-724a" transform="translate(670.85141 0)"/>
     <use xlink:href="#NotoSansCJKtc-Regular-f6ac" transform="translate(770.851318 0)"/>
     <use xlink:href="#NotoSansCJKtc-Regular-3777" transform="translate(870.851227 0)"/>
     <use xlink:href="#NotoSansCJKtc-Regular-699f" transform="translate(970.851135 0)"/>
     <use xlink:href="#NotoSansCJKtc-Regular-8205" transform="translate(1070.851044 0)"/>
     <use xlink:href="#NotoSansCJKtc-Regular-6287" transform="translate(1170.850952 0)"/>
     <use xlink:href="#NotoSansCJKtc-Regular-2a94" transform="translate(1270.850861 0)"/>
     <use xlink:href="#NotoSansCJKtc-Regular-2a94" transform="translate(1370.850769 0)"/>
     <use xlink:href="#NotoSansCJKtc-Regular-2518" transform="translate(1470.850677 0)"/>
     <use xlink:href="#NotoSansCJKtc-Regular-6ce8" transform="translate(1570.850586 0)"/>
     <use xlink:href="#NotoSansCJKtc-Regular-9faa" transform="translate(1670.850494 0)"/>
    </g>
   </g>
  </g>
 </g>
 <defs>
  <clipPath id="p583d11887d">
   <rect x="7.2" y="7.2" width="742.971429" height="283.68"/>
  </clipPath>
 </defs>
</svg>
