<?xml version="1.0" encoding="utf-8" standalone="no"?>
<!DOCTYPE svg PUBLIC "-//W3C//DTD SVG 1.1//EN"
  "http://www.w3.org/Graphics/SVG/1.1/DTD/svg11.dtd">
<svg xmlns:xlink="http://www.w3.org/1999/xlink" width="606.171308pt" height="340.128pt" viewBox="0 0 606.171308 340.128" xmlns="http://www.w3.org/2000/svg" version="1.1">
 <metadata>
  <rdf:RDF xmlns:dc="http://purl.org/dc/elements/1.1/" xmlns:cc="http://creativecommons.org/ns#" xmlns:rdf="http://www.w3.org/1999/02/22-rdf-syntax-ns#">
   <cc:Work>
    <dc:type rdf:resource="http://purl.org/dc/dcmitype/StillImage"/>
    <dc:format>image/svg+xml</dc:format>
    <dc:creator>
     <cc:Agent>
      <dc:title>Matplotlib v3.11.0, https://matplotlib.org/</dc:title>
     </cc:Agent>
    </dc:creator>
   </cc:Work>
  </rdf:RDF>
 </metadata>
 <defs>
  <style type="text/css">*{stroke-linejoin: round; stroke-linecap: butt}</style>
 </defs>
 <g id="figure_1">
  <g id="patch_1">
   <path d="M 0 340.128
L 606.171308 340.128
L 606.171308 0
L 0 0
z
" style="fill: #ffffff"/>
  </g>
  <g id="axes_1">
   <g id="patch_2">
    <path d="M 30.305131 298.270304
L 203.593612 298.270304
L 203.593612 124.981823
z
" clip-path="url(#pd8ab36bc9f)" style="fill: #dbeafe; stroke: #1f6feb; stroke-width: 2.4; stroke-linejoin: miter"/>
   </g>
   <g id="text_1">
    <!-- 1 -->
    <g style="fill: #222831" transform="translate(113.619371 318.487293) scale(0.12 -0.12)">
     <defs>
      <path id="NotoSansCJKtc-Regular-12" d="M 563 0
L 3136 0
L 3136 486
L 2195 486
L 2195 4691
L 1747 4691
C 1491 4544 1190 4435 774 4358
L 774 3987
L 1613 3987
L 1613 486
L 563 486
L 563 0
z
" transform="scale(0.015625)"/>
     </defs>
     <use xlink:href="#NotoSansCJKtc-Regular-12"/>
    </g>
   </g>
   <g id="text_2">
    <!-- 1 -->
    <g style="fill: #222831" transform="translate(213.990921 216.186063) scale(0.12 -0.12)">
     <use xlink:href="#NotoSansCJKtc-Regular-12"/>
    </g>
   </g>
   <g id="text_3">
    <!-- $\sqrt{2}$ -->
    <g style="fill: #222831" transform="translate(111.333357 197.607123) rotate(-45) scale(0.12 -0.12)">
     <defs>
      <path id="Cmex10-30" d="M 2713 -7425
L 1269 -4063
L 819 -4409
L 703 -4294
L 1619 -3584
L 2969 -6725
L 6291 197
Q 6322 256 6400 256
Q 6453 256 6490 218
Q 6528 181 6528 128
Q 6528 97 6522 84
L 2950 -7366
Q 2925 -7425 2853 -7425
L 2713 -7425
z
" transform="scale(0.015625)"/>
      <path id="Cmr10-31" d="M 319 0
L 319 172
Q 319 188 331 206
L 1325 1306
Q 1550 1550 1690 1715
Q 1831 1881 1968 2097
Q 2106 2313 2186 2536
Q 2266 2759 2266 3009
Q 2266 3272 2169 3511
Q 2072 3750 1880 3894
Q 1688 4038 1416 4038
Q 1138 4038 916 3870
Q 694 3703 603 3438
Q 628 3444 672 3444
Q 816 3444 917 3347
Q 1019 3250 1019 3097
Q 1019 2950 917 2848
Q 816 2747 672 2747
Q 522 2747 420 2851
Q 319 2956 319 3097
Q 319 3338 409 3548
Q 500 3759 670 3923
Q 841 4088 1055 4175
Q 1269 4263 1509 4263
Q 1875 4263 2190 4108
Q 2506 3953 2690 3670
Q 2875 3388 2875 3009
Q 2875 2731 2753 2481
Q 2631 2231 2440 2026
Q 2250 1822 1953 1562
Q 1656 1303 1563 1216
L 838 519
L 1453 519
Q 1906 519 2211 526
Q 2516 534 2534 550
Q 2609 631 2688 1141
L 2875 1141
L 2694 0
L 319 0
z
" transform="scale(0.015625)"/>
     </defs>
     <use xlink:href="#Cmex10-30" transform="translate(0 94.734375) scale(0.815389)"/>
     <use xlink:href="#Cmr10-31" transform="translate(94.03125 0.140625)"/>
     <path d="M 81.53125 97.75
L 81.53125 104
L 156.53125 104
L 156.53125 97.75
L 81.53125 97.75
z
"/>
    </g>
   </g>
   <g id="text_4">
    <!-- $45^\circ$ -->
    <g style="fill: #bf8700" transform="translate(52.255005 287.872995) scale(0.12 -0.12)">
     <defs>
      <path id="Cmr10-3b" d="M 178 1056
L 178 1281
L 2156 4231
Q 2178 4263 2222 4263
L 2316 4263
Q 2388 4263 2388 4191
L 2388 1281
L 3016 1281
L 3016 1056
L 2388 1056
L 2388 428
Q 2388 297 2575 261
Q 2763 225 3009 225
L 3009 0
L 1247 0
L 1247 225
Q 1494 225 1681 261
Q 1869 297 1869 428
L 1869 1056
L 178 1056
z
M 391 1281
L 1906 1281
L 1906 3547
L 391 1281
z
" transform="scale(0.015625)"/>
      <path id="Cmr10-78" d="M 556 728
Q 622 541 758 387
Q 894 234 1080 148
Q 1266 63 1466 63
Q 1928 63 2103 422
Q 2278 781 2278 1294
Q 2278 1516 2270 1667
Q 2263 1819 2228 1959
Q 2169 2184 2020 2353
Q 1872 2522 1656 2522
Q 1441 2522 1286 2456
Q 1131 2391 1034 2303
Q 938 2216 863 2119
Q 788 2022 769 2016
L 697 2016
Q 681 2016 657 2036
Q 634 2056 634 2075
L 634 4213
Q 634 4228 654 4245
Q 675 4263 697 4263
L 716 4263
Q 1147 4056 1631 4056
Q 2106 4056 2547 4263
L 2566 4263
Q 2588 4263 2606 4247
Q 2625 4231 2625 4213
L 2625 4153
Q 2625 4122 2613 4122
Q 2394 3831 2064 3668
Q 1734 3506 1381 3506
Q 1125 3506 856 3578
L 856 2369
Q 1069 2541 1236 2614
Q 1403 2688 1663 2688
Q 2016 2688 2295 2484
Q 2575 2281 2725 1954
Q 2875 1628 2875 1288
Q 2875 903 2686 575
Q 2497 247 2172 53
Q 1847 -141 1466 -141
Q 1150 -141 886 21
Q 622 184 470 459
Q 319 734 319 1044
Q 319 1188 412 1278
Q 506 1369 647 1369
Q 788 1369 883 1276
Q 978 1184 978 1044
Q 978 906 883 811
Q 788 716 647 716
Q 625 716 597 720
Q 569 725 556 728
z
" transform="scale(0.015625)"/>
      <path id="Cmsy10-48" d="M 1600 359
Q 1269 359 983 526
Q 697 694 528 984
Q 359 1275 359 1600
Q 359 1925 528 2215
Q 697 2506 983 2673
Q 1269 2841 1600 2841
Q 1931 2841 2215 2672
Q 2500 2503 2667 2214
Q 2834 1925 2834 1600
Q 2834 1275 2667 986
Q 2500 697 2215 528
Q 1931 359 1600 359
z
M 1600 616
Q 2000 616 2289 908
Q 2578 1200 2578 1600
Q 2578 1856 2445 2086
Q 2313 2316 2088 2450
Q 1863 2584 1600 2584
Q 1403 2584 1225 2507
Q 1047 2431 906 2290
Q 766 2150 691 1973
Q 616 1797 616 1600
Q 616 1200 905 908
Q 1194 616 1600 616
z
" transform="scale(0.015625)"/>
     </defs>
     <use xlink:href="#Cmr10-3b" transform="translate(0 0.637328)"/>
     <use xlink:href="#Cmr10-78" transform="translate(50 0.637328)"/>
     <use xlink:href="#Cmsy10-48" transform="translate(118.004331 41.926563) scale(0.7)"/>
    </g>
   </g>
   <g id="text_5">
    <!-- $45^\circ$：$1:1:\sqrt{2}$ -->
    <g style="fill: #222831" transform="translate(79.500654 90.100409) scale(0.13 -0.13)">
     <defs>
      <path id="NotoSansCJKtc-Regular-e6c0" d="M 3200 3482
C 3456 3482 3686 3667 3686 3962
C 3686 4256 3456 4442 3200 4442
C 2944 4442 2714 4256 2714 3962
C 2714 3667 2944 3482 3200 3482
z
M 3200 346
C 3456 346 3686 538 3686 826
C 3686 1120 3456 1312 3200 1312
C 2944 1312 2714 1120 2714 826
C 2714 538 2944 346 3200 346
z
" transform="scale(0.015625)"/>
      <path id="Cmr10-64" d="M 594 0
L 594 225
Q 1394 225 1394 428
L 1394 3788
Q 1063 3628 556 3628
L 556 3853
Q 1341 3853 1741 4263
L 1831 4263
Q 1853 4263 1873 4245
Q 1894 4228 1894 4206
L 1894 428
Q 1894 225 2694 225
L 2694 0
L 594 0
z
" transform="scale(0.015625)"/>
      <path id="Cmr10-55" d="M 538 353
Q 538 497 644 600
Q 750 703 891 703
Q 978 703 1062 656
Q 1147 609 1194 525
Q 1241 441 1241 353
Q 1241 213 1137 106
Q 1034 0 891 0
Q 750 0 644 106
Q 538 213 538 353
z
M 538 2406
Q 538 2497 584 2578
Q 631 2659 714 2709
Q 797 2759 891 2759
Q 981 2759 1064 2709
Q 1147 2659 1194 2578
Q 1241 2497 1241 2406
Q 1241 2263 1139 2158
Q 1038 2053 891 2053
Q 747 2053 642 2158
Q 538 2263 538 2406
z
" transform="scale(0.015625)"/>
     </defs>
     <use xlink:href="#Cmr10-3b" transform="translate(0 0.140625)"/>
     <use xlink:href="#Cmr10-78" transform="translate(50 0.140625)"/>
     <use xlink:href="#Cmsy10-48" transform="translate(118.004331 41.429859) scale(0.7)"/>
     <use xlink:href="#NotoSansCJKtc-Regular-e6c0" transform="translate(172.724786 0.140625)"/>
     <use xlink:href="#Cmr10-64" transform="translate(272.724695 0.140625)"/>
     <use xlink:href="#Cmr10-55" transform="translate(342.724752 0.140625)"/>
     <use xlink:href="#Cmr10-64" transform="translate(390.410356 0.140625)"/>
     <use xlink:href="#Cmr10-55" transform="translate(460.410413 0.140625)"/>
     <use xlink:href="#Cmex10-30" transform="translate(508.096018 94.734375) scale(0.815389)"/>
     <use xlink:href="#Cmr10-31" transform="translate(602.127268 0.140625)"/>
     <path d="M 589.627268 97.75
L 589.627268 104
L 664.627268 104
L 664.627268 97.75
L 589.627268 97.75
z
"/>
    </g>
   </g>
  </g>
  <g id="axes_2">
   <g id="patch_3">
    <path d="M 391.025131 298.270304
L 561.106988 298.270304
L 561.106988 200.073498
z
" clip-path="url(#pa52deffd04)" style="fill: #dcfce7; stroke: #1a7f37; stroke-width: 2.4; stroke-linejoin: miter"/>
   </g>
   <g id="text_6">
    <!-- $\sqrt{3}$ -->
    <g style="fill: #222831" transform="translate(466.526059 318.487293) scale(0.12 -0.12)">
     <defs>
      <path id="Cmr10-6e" d="M 609 494
Q 759 275 1012 169
Q 1266 63 1556 63
Q 1928 63 2084 380
Q 2241 697 2241 1100
Q 2241 1281 2208 1462
Q 2175 1644 2097 1800
Q 2019 1956 1883 2050
Q 1747 2144 1550 2144
L 1125 2144
Q 1069 2144 1069 2203
L 1069 2259
Q 1069 2309 1125 2309
L 1478 2338
Q 1703 2338 1851 2506
Q 2000 2675 2069 2917
Q 2138 3159 2138 3378
Q 2138 3684 1994 3881
Q 1850 4078 1556 4078
Q 1313 4078 1091 3986
Q 869 3894 738 3706
Q 750 3709 759 3711
Q 769 3713 781 3713
Q 925 3713 1022 3613
Q 1119 3513 1119 3372
Q 1119 3234 1022 3134
Q 925 3034 781 3034
Q 641 3034 541 3134
Q 441 3234 441 3372
Q 441 3647 606 3850
Q 772 4053 1033 4158
Q 1294 4263 1556 4263
Q 1750 4263 1965 4205
Q 2181 4147 2356 4039
Q 2531 3931 2642 3762
Q 2753 3594 2753 3378
Q 2753 3109 2633 2881
Q 2513 2653 2303 2487
Q 2094 2322 1844 2241
Q 2122 2188 2372 2031
Q 2622 1875 2773 1631
Q 2925 1388 2925 1106
Q 2925 753 2731 467
Q 2538 181 2222 20
Q 1906 -141 1556 -141
Q 1256 -141 954 -26
Q 653 88 461 316
Q 269 544 269 863
Q 269 1022 375 1128
Q 481 1234 641 1234
Q 744 1234 830 1186
Q 916 1138 964 1050
Q 1013 963 1013 863
Q 1013 706 903 600
Q 794 494 641 494
L 609 494
z
" transform="scale(0.015625)"/>
     </defs>
     <use xlink:href="#Cmex10-30" transform="translate(0 94.65625) scale(0.833746)"/>
     <use xlink:href="#Cmr10-6e" transform="translate(95.859375 0.140625)"/>
     <path d="M 83.359375 97.75
L 83.359375 104
L 158.359375 104
L 158.359375 97.75
L 83.359375 97.75
z
"/>
    </g>
   </g>
   <g id="text_7">
    <!-- 1 -->
    <g style="fill: #222831" transform="translate(570.34904 253.731901) scale(0.12 -0.12)">
     <use xlink:href="#NotoSansCJKtc-Regular-12"/>
    </g>
   </g>
   <g id="text_8">
    <!-- 2 -->
    <g style="fill: #222831" transform="translate(468.508665 236.079374) rotate(-30) scale(0.12 -0.12)">
     <defs>
      <path id="NotoSansCJKtc-Regular-13" d="M 282 0
L 3232 0
L 3232 506
L 1933 506
C 1696 506 1408 480 1165 461
C 2266 1504 3008 2458 3008 3398
C 3008 4230 2477 4774 1638 4774
C 1043 4774 634 4506 256 4090
L 595 3757
C 858 4070 1184 4301 1568 4301
C 2150 4301 2432 3910 2432 3373
C 2432 2566 1754 1632 282 346
L 282 0
z
" transform="scale(0.015625)"/>
     </defs>
     <use xlink:href="#NotoSansCJKtc-Regular-13"/>
    </g>
   </g>
   <g id="text_9">
    <!-- $30^\circ$ -->
    <g style="fill: #bf8700" transform="translate(417.018403 289.60588) scale(0.12 -0.12)">
     <defs>
      <path id="Cmr10-28" d="M 1600 -141
Q 816 -141 533 504
Q 250 1150 250 2041
Q 250 2597 351 3087
Q 453 3578 754 3920
Q 1056 4263 1600 4263
Q 2022 4263 2290 4056
Q 2559 3850 2700 3523
Q 2841 3197 2892 2823
Q 2944 2450 2944 2041
Q 2944 1491 2842 1011
Q 2741 531 2444 195
Q 2147 -141 1600 -141
z
M 1600 25
Q 1956 25 2131 390
Q 2306 756 2347 1200
Q 2388 1644 2388 2144
Q 2388 2625 2347 3031
Q 2306 3438 2132 3767
Q 1959 4097 1600 4097
Q 1238 4097 1063 3765
Q 888 3434 847 3029
Q 806 2625 806 2144
Q 806 1788 823 1472
Q 841 1156 916 820
Q 991 484 1158 254
Q 1325 25 1600 25
z
" transform="scale(0.015625)"/>
     </defs>
     <use xlink:href="#Cmr10-6e" transform="translate(0 0.637328)"/>
     <use xlink:href="#Cmr10-28" transform="translate(50 0.637328)"/>
     <use xlink:href="#Cmsy10-48" transform="translate(118.004331 41.926563) scale(0.7)"/>
    </g>
   </g>
   <g id="text_10">
    <!-- $30^\circ$：$1:\sqrt{3}:2$ -->
    <g style="fill: #222831" transform="translate(440.090654 90.100409) scale(0.13 -0.13)">
     <use xlink:href="#Cmr10-6e" transform="translate(0 0.15625)"/>
     <use xlink:href="#Cmr10-28" transform="translate(50 0.15625)"/>
     <use xlink:href="#Cmsy10-48" transform="translate(118.004331 41.445484) scale(0.7)"/>
     <use xlink:href="#NotoSansCJKtc-Regular-e6c0" transform="translate(172.724786 0.15625)"/>
     <use xlink:href="#Cmr10-64" transform="translate(272.724695 0.15625)"/>
     <use xlink:href="#Cmr10-55" transform="translate(342.724752 0.15625)"/>
     <use xlink:href="#Cmex10-30" transform="translate(390.410356 94.65625) scale(0.833746)"/>
     <use xlink:href="#Cmr10-6e" transform="translate(486.269731 0.140625)"/>
     <use xlink:href="#Cmr10-55" transform="translate(568.769788 0.15625)"/>
     <use xlink:href="#Cmr10-31" transform="translate(616.455393 0.15625)"/>
     <path d="M 473.769731 97.75
L 473.769731 104
L 548.769731 104
L 548.769731 97.75
L 473.769731 97.75
z
"/>
    </g>
   </g>
  </g>
  <g id="text_11">
   <!-- 特殊角的三角比來自兩個可重建的邊長比例 -->
   <g style="fill: #222831" transform="translate(151.085654 21.28) scale(0.16 -0.16)">
    <defs>
     <path id="NotoSansCJKtc-Regular-6512" d="M 3078 1344
C 3379 1024 3725 576 3878 294
L 4269 538
C 4102 819 3744 1248 3450 1562
L 3078 1344
z
M 659 4909
C 582 4109 442 3283 192 2739
C 288 2707 474 2637 550 2592
C 666 2867 768 3213 845 3597
L 1395 3597
L 1395 1978
C 979 1875 595 1792 301 1728
L 429 1242
L 1395 1491
L 1395 -512
L 1862 -512
L 1862 1619
L 2554 1805
L 2502 2246
L 1862 2093
L 1862 3597
L 2509 3597
L 2509 4058
L 1862 4058
L 1862 5370
L 1395 5370
L 1395 4058
L 934 4058
C 979 4314 1011 4582 1043 4851
L 659 4909
z
M 4102 5382
L 4102 4685
L 2752 4685
L 2752 4237
L 4102 4237
L 4102 3430
L 3021 3430
L 3021 2976
L 5779 2976
L 5779 3430
L 4576 3430
L 4576 4237
L 5965 4237
L 5965 4685
L 4576 4685
L 4576 5382
L 4102 5382
z
M 4890 2803
L 4890 2202
L 2682 2202
L 2682 1754
L 4890 1754
L 4890 90
C 4890 6 4864 -19 4768 -19
C 4666 -26 4339 -26 3981 -13
C 4045 -154 4115 -352 4141 -493
C 4595 -493 4915 -486 5107 -410
C 5312 -333 5370 -192 5370 83
L 5370 1754
L 6099 1754
L 6099 2202
L 5370 2202
L 5370 2803
L 4890 2803
z
" transform="scale(0.015625)"/>
     <path id="NotoSansCJKtc-Regular-58a4" d="M 314 5082
L 314 4640
L 1114 4640
C 928 3629 614 2688 141 2080
C 243 2010 435 1850 512 1766
C 614 1907 710 2061 794 2227
C 1101 2022 1421 1773 1638 1549
C 1318 781 883 205 352 -179
C 454 -243 621 -410 685 -512
C 1542 134 2189 1325 2496 3078
C 2611 3027 2790 2912 2874 2848
C 3046 3091 3200 3398 3328 3744
L 4122 3744
L 4122 2624
L 2598 2624
L 2598 2189
L 3885 2189
C 3475 1434 2803 710 2138 339
C 2246 250 2394 90 2470 -32
C 3085 358 3693 1030 4122 1786
L 4122 -544
L 4576 -544
L 4576 1888
C 4922 1158 5427 461 5926 58
C 6003 179 6157 346 6266 429
C 5722 794 5171 1485 4832 2189
L 6086 2189
L 6086 2624
L 4576 2624
L 4576 3744
L 5850 3744
L 5850 4186
L 4576 4186
L 4576 5338
L 4122 5338
L 4122 4186
L 3475 4186
C 3546 4442 3610 4704 3661 4979
L 3219 5050
C 3085 4307 2861 3584 2502 3110
C 2534 3296 2560 3494 2586 3699
L 2310 3782
L 2227 3763
L 1382 3763
C 1459 4045 1523 4339 1581 4640
L 2797 4640
L 2797 5082
L 314 5082
z
M 1254 3328
L 2093 3328
C 2029 2848 1926 2413 1805 2016
C 1574 2221 1267 2445 986 2611
C 1082 2835 1171 3078 1254 3328
z
" transform="scale(0.015625)"/>
     <path id="NotoSansCJKtc-Regular-9248" d="M 1696 3482
L 3110 3482
L 3110 2630
L 1696 2630
L 1696 3482
z
M 1696 3910
L 1683 3910
C 1888 4134 2074 4365 2234 4595
L 3795 4595
C 3667 4365 3501 4109 3341 3910
L 1696 3910
z
M 5101 3482
L 5101 2630
L 3571 2630
L 3571 3482
L 5101 3482
z
M 2157 5395
C 1837 4749 1222 3955 358 3373
C 474 3302 627 3149 704 3034
C 890 3168 1062 3309 1222 3450
L 1222 2310
C 1222 1498 1120 506 211 -198
C 307 -269 480 -442 550 -544
C 1062 -147 1357 371 1517 902
L 5101 902
L 5101 102
C 5101 -19 5062 -58 4922 -64
C 4774 -70 4275 -70 3757 -58
C 3827 -186 3917 -390 3942 -525
C 4595 -525 5011 -518 5254 -442
C 5491 -365 5574 -218 5574 96
L 5574 3910
L 3872 3910
C 4096 4192 4314 4518 4461 4813
L 4134 5024
L 4058 4998
L 2502 4998
L 2675 5299
L 2157 5395
z
M 1696 2214
L 3110 2214
L 3110 1325
L 1613 1325
C 1670 1632 1690 1933 1696 2214
z
M 5101 2214
L 5101 1325
L 3571 1325
L 3571 2214
L 5101 2214
z
" transform="scale(0.015625)"/>
     <path id="NotoSansCJKtc-Regular-6c33" d="M 3533 2707
C 3885 2240 4320 1600 4512 1210
L 4922 1466
C 4710 1843 4269 2464 3904 2918
L 3533 2707
z
M 1536 5389
C 1485 5082 1376 4659 1274 4346
L 557 4346
L 557 -346
L 998 -346
L 998 160
L 2784 160
L 2784 4346
L 1715 4346
C 1824 4621 1946 4979 2054 5299
L 1536 5389
z
M 998 3917
L 2342 3917
L 2342 2566
L 998 2566
L 998 3917
z
M 998 595
L 998 2144
L 2342 2144
L 2342 595
L 998 595
z
M 3827 5402
C 3622 4518 3277 3635 2835 3066
C 2950 3002 3149 2867 3238 2790
C 3456 3098 3661 3488 3840 3923
L 5478 3923
C 5402 1357 5299 371 5094 154
C 5018 64 4947 45 4819 45
C 4672 45 4288 51 3866 83
C 3955 -38 4013 -243 4026 -378
C 4384 -397 4762 -410 4979 -390
C 5210 -365 5350 -314 5498 -122
C 5754 192 5843 1184 5939 4122
C 5946 4186 5946 4365 5946 4365
L 4013 4365
C 4115 4666 4211 4986 4288 5299
L 3827 5402
z
" transform="scale(0.015625)"/>
     <path id="NotoSansCJKtc-Regular-2514" d="M 787 4755
L 787 4269
L 5626 4269
L 5626 4755
L 787 4755
z
M 1197 2662
L 1197 2182
L 5126 2182
L 5126 2662
L 1197 2662
z
M 416 442
L 416 -45
L 5978 -45
L 5978 442
L 416 442
z
" transform="scale(0.015625)"/>
     <path id="NotoSansCJKtc-Regular-5944" d="M 870 -314
C 1024 -218 1267 -141 3110 358
C 3091 467 3066 672 3066 813
L 1389 390
L 1389 2925
L 3021 2925
L 3021 3398
L 1389 3398
L 1389 5376
L 896 5376
L 896 582
C 896 307 742 160 640 90
C 717 0 832 -198 870 -314
z
M 3482 5376
L 3482 518
C 3482 -179 3654 -365 4282 -365
C 4410 -365 5222 -365 5357 -365
C 5965 -365 6099 -6 6163 1043
C 6022 1075 5830 1158 5709 1254
C 5670 326 5632 90 5331 90
C 5152 90 4467 90 4333 90
C 4026 90 3974 154 3974 506
L 3974 2925
L 5702 2925
L 5702 3398
L 3974 3398
L 3974 5376
L 3482 5376
z
" transform="scale(0.015625)"/>
     <path id="NotoSansCJKtc-Regular-273f" d="M 2931 5370
L 2931 4480
L 461 4480
L 461 4013
L 2931 4013
L 2931 2438
C 2349 1504 1280 614 237 186
C 346 90 499 -96 576 -218
C 1427 179 2298 877 2931 1696
L 2931 -512
L 3430 -512
L 3430 1709
C 4058 877 4934 160 5818 -237
C 5894 -102 6048 90 6170 198
C 5082 608 3994 1517 3430 2483
L 3430 4013
L 5984 4013
L 5984 4480
L 3430 4480
L 3430 5370
L 2931 5370
z
M 1581 3866
C 1389 3034 992 2336 410 1901
C 518 1830 704 1677 787 1587
C 1101 1850 1376 2195 1600 2598
C 1830 2381 2067 2144 2202 1978
L 2528 2310
C 2368 2496 2067 2771 1798 3014
C 1901 3251 1990 3507 2054 3776
L 1581 3866
z
M 4614 3866
C 4474 3142 4166 2522 3706 2125
C 3821 2067 4019 1939 4109 1862
C 4326 2067 4512 2330 4672 2624
C 5050 2304 5459 1946 5677 1702
L 6016 2035
C 5760 2291 5267 2707 4858 3027
C 4954 3264 5024 3514 5082 3782
L 4614 3866
z
" transform="scale(0.015625)"/>
     <path id="NotoSansCJKtc-Regular-8205" d="M 1530 2630
L 4954 2630
L 4954 1690
L 1530 1690
L 1530 2630
z
M 1530 3085
L 1530 4038
L 4954 4038
L 4954 3085
L 1530 3085
z
M 1530 1242
L 4954 1242
L 4954 294
L 1530 294
L 1530 1242
z
M 2912 5389
C 2861 5133 2758 4781 2662 4499
L 1043 4499
L 1043 -518
L 1530 -518
L 1530 -160
L 4954 -160
L 4954 -486
L 5459 -486
L 5459 4499
L 3149 4499
C 3258 4742 3366 5037 3469 5312
L 2912 5389
z
" transform="scale(0.015625)"/>
     <path id="NotoSansCJKtc-Regular-2a94" d="M 1568 2784
L 1568 2445
L 1971 2445
C 1875 1683 1651 1050 1222 634
C 1299 589 1440 480 1498 429
C 1779 723 1990 1114 2138 1581
C 2221 1171 2381 774 2662 435
C 2720 506 2854 608 2931 653
C 2374 1293 2330 2112 2330 2784
L 1568 2784
z
M 442 4992
L 442 4518
L 2938 4518
L 2938 3718
L 672 3718
L 672 -499
L 1133 -499
L 1133 3264
L 2938 3264
L 2938 -480
L 3398 -480
L 3398 3264
L 5299 3264
L 5299 58
C 5299 -38 5267 -70 5171 -70
C 5069 -77 4736 -77 4384 -64
C 4448 -186 4525 -371 4550 -499
C 5005 -499 5325 -493 5517 -416
C 5709 -346 5766 -211 5766 51
L 5766 3718
L 3398 3718
L 3398 4518
L 5990 4518
L 5990 4992
L 442 4992
z
M 3802 2784
L 3802 2445
L 4218 2445
C 4115 1709 3891 1088 3482 678
C 3571 634 3706 525 3763 467
C 4038 768 4243 1158 4384 1626
C 4474 1203 4640 794 4947 454
C 5011 518 5146 621 5229 659
C 4640 1293 4589 2112 4589 2784
L 3802 2784
z
" transform="scale(0.015625)"/>
     <path id="NotoSansCJKtc-Regular-2815" d="M 3533 2195
L 4614 2195
L 4614 1197
L 3533 1197
L 3533 2195
z
M 2189 4992
L 2189 -506
L 2630 -506
L 2630 -128
L 5472 -128
L 5472 -461
L 5933 -461
L 5933 4992
L 2189 4992
z
M 2630 307
L 2630 4563
L 5472 4563
L 5472 307
L 2630 307
z
M 3162 2554
L 3162 838
L 4998 838
L 4998 2554
L 4256 2554
L 4256 3258
L 5254 3258
L 5254 3629
L 4256 3629
L 4256 4358
L 3866 4358
L 3866 3629
L 2899 3629
L 2899 3258
L 3866 3258
L 3866 2554
L 3162 2554
z
M 1523 5344
C 1203 4378 685 3411 109 2784
C 192 2662 320 2400 365 2291
C 582 2541 787 2829 986 3142
L 986 -518
L 1446 -518
L 1446 3968
C 1645 4371 1824 4794 1965 5216
L 1523 5344
z
" transform="scale(0.015625)"/>
     <path id="NotoSansCJKtc-Regular-2e8e" d="M 358 4922
L 358 4442
L 4781 4442
L 4781 186
C 4781 51 4736 13 4595 0
C 4442 0 3917 -6 3405 19
C 3482 -122 3571 -358 3603 -499
C 4237 -499 4685 -499 4941 -416
C 5190 -333 5280 -166 5280 179
L 5280 4442
L 6067 4442
L 6067 4922
L 358 4922
z
M 1478 3040
L 3162 3040
L 3162 1568
L 1478 1568
L 1478 3040
z
M 1011 3501
L 1011 595
L 1478 595
L 1478 1107
L 3635 1107
L 3635 3501
L 1011 3501
z
" transform="scale(0.015625)"/>
     <path id="NotoSansCJKtc-Regular-a106" d="M 1018 3456
L 1018 1466
L 2938 1466
L 2938 1024
L 813 1024
L 813 640
L 2938 640
L 2938 83
L 333 83
L 333 -307
L 6074 -307
L 6074 83
L 3418 83
L 3418 640
L 5670 640
L 5670 1024
L 3418 1024
L 3418 1466
L 5427 1466
L 5427 3456
L 3418 3456
L 3418 3846
L 6042 3846
L 6042 4243
L 3418 4243
L 3418 4736
C 4166 4794 4870 4870 5421 4966
L 5165 5338
C 4154 5158 2342 5037 851 4998
C 896 4902 947 4730 954 4621
C 1581 4634 2266 4659 2938 4698
L 2938 4243
L 371 4243
L 371 3846
L 2938 3846
L 2938 3456
L 1018 3456
z
M 1485 2304
L 2938 2304
L 2938 1818
L 1485 1818
L 1485 2304
z
M 3418 2304
L 4941 2304
L 4941 1818
L 3418 1818
L 3418 2304
z
M 1485 3110
L 2938 3110
L 2938 2630
L 1485 2630
L 1485 3110
z
M 3418 3110
L 4941 3110
L 4941 2630
L 3418 2630
L 3418 3110
z
" transform="scale(0.015625)"/>
     <path id="NotoSansCJKtc-Regular-42e7" d="M 2522 4832
L 2522 4448
L 3718 4448
L 3718 3968
L 2112 3968
L 2112 3590
L 3718 3590
L 3718 3091
L 2477 3091
L 2477 2701
L 3718 2701
L 3718 2208
L 2426 2208
L 2426 1843
L 3718 1843
L 3718 1338
L 2157 1338
L 2157 954
L 3718 954
L 3718 314
L 4173 314
L 4173 954
L 5997 954
L 5997 1338
L 4173 1338
L 4173 1843
L 5754 1843
L 5754 2208
L 4173 2208
L 4173 2701
L 5606 2701
L 5606 3590
L 6048 3590
L 6048 3968
L 5606 3968
L 5606 4832
L 4173 4832
L 4173 5376
L 3718 5376
L 3718 4832
L 2522 4832
z
M 4173 3590
L 5178 3590
L 5178 3091
L 4173 3091
L 4173 3590
z
M 4173 3968
L 4173 4448
L 5178 4448
L 5178 3968
L 4173 3968
z
M 621 2515
C 621 2586 768 2669 864 2720
L 1651 2720
C 1574 2150 1446 1658 1280 1235
C 1107 1491 966 1811 858 2195
L 499 2061
C 653 1542 845 1133 1082 806
C 858 384 570 51 237 -192
C 339 -256 518 -422 589 -512
C 896 -275 1171 45 1395 448
C 2067 -192 3002 -352 4179 -352
L 5971 -352
C 5997 -224 6086 -13 6157 90
C 5830 83 4442 83 4186 83
C 3104 83 2221 224 1594 845
C 1856 1440 2042 2189 2138 3091
L 1869 3155
L 1779 3149
L 1229 3149
C 1549 3629 1875 4230 2163 4851
L 1856 5050
L 1702 4979
L 410 4979
L 410 4550
L 1517 4550
C 1261 3981 941 3456 826 3296
C 698 3091 538 2931 422 2906
C 486 2810 582 2611 621 2515
z
" transform="scale(0.015625)"/>
     <path id="NotoSansCJKtc-Regular-9e95" d="M 2829 4243
L 5056 4243
L 5056 3974
L 2829 3974
L 2829 4243
z
M 2829 3731
L 5056 3731
L 5056 3456
L 2829 3456
L 2829 3731
z
M 2829 4749
L 5056 4749
L 5056 4480
L 2829 4480
L 2829 4749
z
M 531 5165
C 794 4845 1126 4403 1286 4128
L 1664 4378
C 1504 4646 1178 5056 896 5376
L 531 5165
z
M 1920 2938
L 1920 2291
L 2349 2291
L 2349 2656
L 3258 2656
C 3085 2355 2701 2195 1978 2099
C 2048 2035 2144 1914 2182 1837
C 3053 1971 3501 2182 3706 2656
L 4371 2656
L 4371 2355
C 4371 2086 4422 1933 4749 1933
C 4864 1933 5357 1933 5485 1933
C 5632 1933 5811 1939 5888 1958
C 5869 2061 5869 2125 5856 2221
C 5773 2202 5568 2195 5466 2195
C 5370 2195 4998 2195 4915 2195
C 4787 2195 4774 2234 4774 2349
L 4774 2656
L 5536 2656
L 5536 2336
L 5978 2336
L 5978 2938
L 4211 2938
C 4179 3021 4128 3117 4083 3206
L 5517 3206
L 5517 4992
L 3962 4992
C 4038 5088 4115 5203 4186 5318
L 3686 5389
C 3648 5286 3578 5126 3507 4992
L 2381 4992
L 2381 3206
L 3590 3206
L 3712 2938
L 1920 2938
z
M 403 1818
C 454 1869 621 1914 787 1914
L 1363 1914
C 1171 922 762 211 198 -192
C 294 -256 454 -422 525 -518
C 832 -288 1101 38 1318 461
C 1824 -275 2637 -410 3942 -410
C 4646 -410 5459 -397 6061 -358
C 6086 -230 6144 -6 6221 96
C 5562 32 4621 6 3949 6
C 3290 13 2746 38 2323 186
C 2880 346 3206 589 3405 915
L 4890 915
C 4832 691 4781 576 4710 525
C 4666 493 4614 486 4518 486
C 4422 486 4173 486 3904 512
C 3955 429 3994 301 4000 218
C 4275 192 4544 192 4672 198
C 4826 198 4934 224 5037 301
C 5165 397 5254 614 5344 1043
C 5357 1101 5363 1210 5363 1210
L 3546 1210
L 3610 1434
L 5914 1434
L 5914 1741
L 4198 1741
C 4141 1882 4051 2054 3974 2189
L 3584 2093
L 3744 1741
L 2029 1741
L 2029 1434
L 3187 1434
C 3066 992 2778 678 2067 499
C 2144 435 2246 288 2298 192
C 1946 320 1683 518 1498 851
C 1651 1248 1773 1702 1850 2227
L 1651 2304
L 1632 2310
L 1549 2304
L 909 2304
C 1242 2746 1683 3424 1926 3802
L 1606 3936
L 1523 3898
L 294 3898
L 294 3494
L 1248 3494
C 998 3098 659 2586 525 2445
C 422 2323 320 2278 230 2246
C 282 2157 378 1933 403 1818
z
" transform="scale(0.015625)"/>
     <path id="NotoSansCJKtc-Regular-a74f" d="M 1466 5120
L 1466 2291
L 339 2291
L 339 1856
L 1382 1856
L 1382 416
C 1382 154 1190 19 1069 -45
C 1152 -160 1254 -397 1286 -518
L 1312 -499
C 1453 -416 1754 -339 3571 128
C 3571 230 3578 422 3597 550
L 1856 141
L 1856 1856
L 2886 1856
C 3443 640 4442 -141 5914 -467
C 5978 -339 6112 -141 6214 -38
C 5498 96 4883 339 4390 691
C 4845 928 5370 1242 5779 1542
L 5389 1805
C 5056 1536 4525 1203 4070 954
C 3789 1216 3558 1517 3379 1856
L 6067 1856
L 6067 2291
L 1958 2291
L 1958 2842
L 5242 2842
L 5242 3232
L 1958 3232
L 1958 3770
L 5242 3770
L 5242 4160
L 1958 4160
L 1958 4710
L 5440 4710
L 5440 5120
L 1466 5120
z
" transform="scale(0.015625)"/>
     <path id="NotoSansCJKtc-Regular-2746" d="M 4320 4653
L 4320 954
L 4755 954
L 4755 4653
L 4320 4653
z
M 5491 5274
L 5491 90
C 5491 -19 5453 -45 5350 -51
C 5242 -58 4902 -58 4512 -45
C 4582 -179 4646 -390 4672 -518
C 5178 -518 5491 -506 5683 -422
C 5869 -346 5939 -211 5939 96
L 5939 5274
L 5491 5274
z
M 1958 5050
L 1958 4621
L 2547 4621
C 2413 3680 2131 2573 1562 1894
C 1651 1818 1792 1658 1856 1568
C 2016 1754 2157 1971 2285 2208
C 2579 1997 2906 1722 3110 1510
C 2790 762 2349 205 1818 -160
C 1920 -237 2067 -416 2138 -525
C 3117 179 3827 1549 4077 3635
L 3795 3731
L 3718 3712
L 2822 3712
C 2899 4019 2963 4326 3014 4621
L 4288 4621
L 4288 5050
L 1958 5050
z
M 2707 3283
L 3584 3283
C 3514 2797 3411 2355 3277 1958
C 3072 2157 2752 2406 2464 2592
C 2554 2810 2637 3046 2707 3283
z
M 1491 5350
C 1184 4365 672 3392 115 2752
C 198 2630 320 2374 371 2266
C 582 2509 781 2797 973 3110
L 973 -512
L 1421 -512
L 1421 3942
C 1619 4358 1792 4794 1933 5222
L 1491 5350
z
" transform="scale(0.015625)"/>
    </defs>
    <use xlink:href="#NotoSansCJKtc-Regular-6512"/>
    <use xlink:href="#NotoSansCJKtc-Regular-58a4" transform="translate(100 0)"/>
    <use xlink:href="#NotoSansCJKtc-Regular-9248" transform="translate(200 0)"/>
    <use xlink:href="#NotoSansCJKtc-Regular-6c33" transform="translate(300 0)"/>
    <use xlink:href="#NotoSansCJKtc-Regular-2514" transform="translate(400 0)"/>
    <use xlink:href="#NotoSansCJKtc-Regular-9248" transform="translate(500 0)"/>
    <use xlink:href="#NotoSansCJKtc-Regular-5944" transform="translate(600 0)"/>
    <use xlink:href="#NotoSansCJKtc-Regular-273f" transform="translate(700 0)"/>
    <use xlink:href="#NotoSansCJKtc-Regular-8205" transform="translate(800 0)"/>
    <use xlink:href="#NotoSansCJKtc-Regular-2a94" transform="translate(900 0)"/>
    <use xlink:href="#NotoSansCJKtc-Regular-2815" transform="translate(1000 0)"/>
    <use xlink:href="#NotoSansCJKtc-Regular-2e8e" transform="translate(1100 0)"/>
    <use xlink:href="#NotoSansCJKtc-Regular-a106" transform="translate(1200 0)"/>
    <use xlink:href="#NotoSansCJKtc-Regular-42e7" transform="translate(1300 0)"/>
    <use xlink:href="#NotoSansCJKtc-Regular-6c33" transform="translate(1400 0)"/>
    <use xlink:href="#NotoSansCJKtc-Regular-9e95" transform="translate(1500 0)"/>
    <use xlink:href="#NotoSansCJKtc-Regular-a74f" transform="translate(1600 0)"/>
    <use xlink:href="#NotoSansCJKtc-Regular-5944" transform="translate(1700 0)"/>
    <use xlink:href="#NotoSansCJKtc-Regular-2746" transform="translate(1800 0)"/>
   </g>
  </g>
 </g>
 <defs>
  <clipPath id="pd8ab36bc9f">
   <rect x="7.2" y="96.100409" width="231.051308" height="236.827591"/>
  </clipPath>
  <clipPath id="pa52deffd04">
   <rect x="367.92" y="96.100409" width="231.051308" height="236.827591"/>
  </clipPath>
 </defs>
</svg>
