<?xml version="1.0" encoding="utf-8" standalone="no"?>
<!DOCTYPE svg PUBLIC "-//W3C//DTD SVG 1.1//EN"
  "http://www.w3.org/Graphics/SVG/1.1/DTD/svg11.dtd">
<svg xmlns:xlink="http://www.w3.org/1999/xlink" width="639.9681pt" height="304.48pt" viewBox="0 0 639.9681 304.48" xmlns="http://www.w3.org/2000/svg" version="1.1">
 <metadata>
  <rdf:RDF xmlns:dc="http://purl.org/dc/elements/1.1/" xmlns:cc="http://creativecommons.org/ns#" xmlns:rdf="http://www.w3.org/1999/02/22-rdf-syntax-ns#">
   <cc:Work>
    <dc:type rdf:resource="http://purl.org/dc/dcmitype/StillImage"/>
    <dc:date>2026-06-17T23:23:44.360199</dc:date>
    <dc:format>image/svg+xml</dc:format>
    <dc:creator>
     <cc:Agent>
      <dc:title>Matplotlib v3.11.0, https://matplotlib.org/</dc:title>
     </cc:Agent>
    </dc:creator>
   </cc:Work>
  </rdf:RDF>
 </metadata>
 <defs>
  <style type="text/css">*{stroke-linejoin: round; stroke-linecap: butt}</style>
 </defs>
 <g id="figure_1">
  <g id="patch_1">
   <path d="M 0 304.48 
L 639.9681 304.48 
L 639.9681 0 
L 0 0 
z
" style="fill: #ffffff"/>
  </g>
  <g id="axes_1">
   <g id="patch_2">
    <path d="M 114.810566 154.669434 
C 121.94523 154.669434 128.788637 151.834802 133.833606 146.789833 
C 138.878576 141.744863 141.713208 134.901456 141.713208 127.766792 
C 141.713208 120.632129 138.878576 113.788721 133.833606 108.743752 
C 128.788637 103.698783 121.94523 100.864151 114.810566 100.864151 
C 107.675902 100.864151 100.832495 103.698783 95.787526 108.743752 
C 90.742557 113.788721 87.907925 120.632129 87.907925 127.766792 
C 87.907925 134.901456 90.742557 141.744863 95.787526 146.789833 
C 100.832495 151.834802 107.675902 154.669434 114.810566 154.669434 
z
" clip-path="url(#p49f43b2247)" style="fill: #cfe3ff; stroke: #222831; stroke-width: 1.6; stroke-linejoin: miter"/>
   </g>
   <g id="line2d_1">
    <path d="M 200.002264 127.766792 
L 199.927036 124.18741 
L 199.701484 120.614349 
L 199.326007 117.05392 
L 198.801268 113.512411 
L 198.128194 109.996077 
L 197.307973 106.511127 
L 196.342054 103.063717 
L 195.232143 99.659935 
L 193.980199 96.305791 
L 192.588435 93.007211 
L 191.059308 89.77002 
L 189.395519 86.599935 
L 187.600006 83.502553 
L 185.67594 80.483347 
L 183.626719 77.547648 
L 181.455963 74.70064 
L 179.167504 71.947352 
L 176.765385 69.292646 
L 174.253849 66.741211 
L 171.63733 64.297553 
L 168.920449 61.965987 
L 166.108006 59.750632 
L 163.204966 57.655399 
L 160.216458 55.68399 
L 157.147759 53.839886 
L 154.004288 52.126343 
L 150.791597 50.546388 
L 147.515361 49.102812 
L 144.181365 47.798164 
L 140.795497 46.634747 
L 137.363738 45.614617 
L 133.892148 44.739576 
L 130.386857 44.011168 
L 126.854058 43.430681 
L 123.299989 42.999139 
L 119.730926 42.717304 
L 116.153174 42.585675 
L 112.573051 42.604483 
L 108.996879 42.773696 
L 105.430975 43.093014 
L 101.881636 43.561875 
L 98.35513 44.179449 
L 94.857687 44.944645 
L 91.395482 45.856114 
L 87.97463 46.912244 
L 84.601174 48.111171 
L 81.281069 49.450777 
L 78.020181 50.928696 
L 74.824268 52.542319 
L 71.698975 54.288795 
L 68.64982 56.16504 
L 65.68219 58.16774 
L 62.801325 60.293358 
L 60.012313 62.538141 
L 57.32008 64.898124 
L 54.729381 67.369139 
L 52.24479 69.946821 
L 49.870696 72.626619 
L 47.611292 75.403799 
L 45.470569 78.273458 
L 43.452306 81.230526 
L 41.560068 84.269781 
L 39.797198 87.385856 
L 38.166808 90.573248 
L 36.671778 93.826327 
L 35.314748 97.139348 
L 34.098115 100.50646 
L 33.024028 103.921716 
L 32.094384 107.379085 
L 31.310824 110.87246 
L 30.674732 114.395672 
L 30.187232 117.942499 
L 29.849184 121.506676 
L 29.661187 125.08191 
L 29.62357 128.661885 
L 29.736402 132.240279 
L 29.999483 135.810773 
L 30.412348 139.367061 
L 30.974268 142.902861 
L 31.684251 146.411929 
L 32.541042 149.888069 
L 33.543129 153.32514 
L 34.688742 156.717073 
L 35.975857 160.057877 
L 37.402202 163.341652 
L 38.965257 166.562598 
L 40.662262 169.715028 
L 42.49022 172.793373 
L 44.445902 175.792197 
L 46.525854 178.706203 
L 48.726404 181.530246 
L 51.043664 184.259338 
L 53.473543 186.888658 
L 56.011748 189.413564 
L 58.653798 191.829596 
L 61.395026 194.132488 
L 64.23059 196.318171 
L 67.155484 198.382786 
L 70.16454 200.322687 
L 73.252446 202.134447 
L 76.413747 203.814868 
L 79.642861 205.36098 
L 82.934084 206.770054 
L 86.281603 208.0396 
L 89.679508 209.167378 
L 93.121796 210.151395 
L 96.602389 210.989912 
L 100.115139 211.681451 
L 103.653842 212.224788 
L 107.212249 212.618964 
L 110.784076 212.863284 
L 114.363014 212.957315 
L 117.942742 212.900892 
L 121.516938 212.694114 
L 125.079291 212.337347 
L 128.623507 211.831221 
L 132.143329 211.176628 
L 135.63254 210.374727 
L 139.084977 209.426932 
L 142.494543 208.334918 
L 145.855217 207.100613 
L 149.161063 205.726197 
L 152.406243 204.214098 
L 155.585026 202.566985 
L 158.691797 200.787769 
L 161.721069 198.879591 
L 164.667494 196.845821 
L 167.525866 194.690051 
L 170.291139 192.416088 
L 172.958427 190.027949 
L 175.523021 187.529851 
L 177.980392 184.926206 
L 180.326198 182.221612 
L 182.556298 179.420846 
L 184.666753 176.528854 
L 186.653835 173.550743 
L 188.514035 170.491774 
L 190.244068 167.357349 
L 191.840879 164.153003 
L 193.301647 160.884395 
L 194.623793 157.557299 
L 195.804981 154.17759 
L 196.843125 150.751238 
L 197.736392 147.284292 
L 198.483205 143.782877 
L 199.082244 140.253176 
L 199.532451 136.701423 
L 199.833032 133.13389 
L 199.983455 129.556879 
L 200.002264 127.766792 
L 200.002264 127.766792 
" clip-path="url(#p49f43b2247)" style="fill: none; stroke-dasharray: 5.92,2.56; stroke-dashoffset: 0; stroke: #1f6feb; stroke-width: 1.6"/>
   </g>
   <g id="text_1">
    <!-- $M$ -->
    <g style="fill: #222831" transform="translate(108.440566 132.706792) scale(0.13 -0.13)">
     <defs>
      <path id="Cmmi10-2d" d="M 325 0 
Q 263 0 263 84 
Q 266 100 275 137 
Q 284 175 300 200 
Q 316 225 347 225 
Q 956 225 1056 616 
L 1888 3956 
Q 1900 4019 1900 4044 
Q 1900 4113 1825 4122 
Q 1703 4147 1363 4147 
Q 1300 4147 1300 4231 
Q 1303 4247 1312 4286 
Q 1322 4325 1339 4348 
Q 1356 4372 1381 4372 
L 2509 4372 
Q 2581 4372 2591 4300 
L 3091 634 
L 5422 4300 
Q 5466 4372 5544 4372 
L 6631 4372 
Q 6694 4372 6694 4288 
Q 6691 4272 6681 4233 
Q 6672 4194 6655 4170 
Q 6638 4147 6613 4147 
Q 6222 4147 6069 4103 
Q 5984 4075 5947 3928 
L 5069 416 
Q 5056 353 5056 325 
Q 5056 300 5064 283 
Q 5072 266 5086 261 
Q 5100 256 5131 250 
Q 5253 225 5594 225 
Q 5656 225 5656 141 
Q 5634 50 5621 25 
Q 5609 0 5550 0 
L 3878 0 
Q 3816 0 3816 84 
Q 3819 100 3828 139 
Q 3838 178 3855 201 
Q 3872 225 3897 225 
Q 4288 225 4441 269 
Q 4525 297 4563 441 
L 5484 4147 
L 2900 72 
Q 2863 0 2772 0 
Q 2691 0 2681 72 
L 2138 4097 
L 1259 588 
Q 1253 572 1250 548 
Q 1247 525 1241 494 
Q 1241 328 1386 276 
Q 1531 225 1741 225 
Q 1806 225 1806 141 
Q 1784 56 1770 28 
Q 1756 0 1697 0 
L 325 0 
z
" transform="scale(0.015625)"/>
     </defs>
     <use xlink:href="#Cmmi10-2d" transform="translate(0 0.6875)"/>
    </g>
   </g>
   <g id="patch_3">
    <path d="M 162.527777 59.619553 
Q 139.242191 92.874815 115.956606 126.130077 
" style="fill: none; stroke-dasharray: 4.07,1.76; stroke-dashoffset: 0; stroke: #6b7280; stroke-width: 1.1; stroke-linecap: round"/>
   </g>
   <g id="text_2">
    <!-- $r$ -->
    <g style="fill: #6b7280" transform="translate(131.171749 87.493787) scale(0.12 -0.12)">
     <defs>
      <path id="Cmmi10-84" d="M 494 109 
Q 494 147 500 166 
L 978 2075 
Q 1025 2253 1025 2388 
Q 1025 2663 838 2663 
Q 638 2663 541 2423 
Q 444 2184 353 1819 
Q 353 1800 334 1789 
Q 316 1778 300 1778 
L 225 1778 
Q 203 1778 187 1801 
Q 172 1825 172 1844 
Q 241 2122 305 2315 
Q 369 2509 505 2668 
Q 641 2828 844 2828 
Q 1066 2828 1233 2700 
Q 1400 2572 1441 2363 
Q 1603 2575 1811 2701 
Q 2019 2828 2266 2828 
Q 2469 2828 2623 2709 
Q 2778 2591 2778 2388 
Q 2778 2225 2676 2104 
Q 2575 1984 2406 1984 
Q 2303 1984 2233 2048 
Q 2163 2113 2163 2216 
Q 2163 2356 2266 2467 
Q 2369 2578 2503 2578 
Q 2400 2663 2253 2663 
Q 1978 2663 1775 2467 
Q 1572 2272 1409 1972 
L 953 141 
Q 931 53 854 -9 
Q 778 -72 684 -72 
Q 606 -72 550 -22 
Q 494 28 494 109 
z
" transform="scale(0.015625)"/>
     </defs>
     <use xlink:href="#Cmmi10-84" transform="translate(0 0.8125)"/>
    </g>
   </g>
   <g id="text_3">
    <!-- $\dfrac{GMm}{r^{2}}=\dfrac{4\pi^{2}}{T^{2}}mr$ -->
    <g style="fill: #222831" transform="translate(69.440566 227.414245) scale(0.13 -0.13)">
     <defs>
      <path id="Cmmi10-74" d="M 934 1403 
Q 934 1006 1092 707 
Q 1250 409 1547 246 
Q 1844 84 2234 84 
Q 2616 84 2959 264 
Q 3303 444 3391 781 
L 3531 1331 
Q 3534 1350 3537 1370 
Q 3541 1391 3541 1403 
Q 3541 1469 3500 1478 
Q 3341 1522 2859 1522 
Q 2797 1522 2797 1606 
Q 2816 1684 2831 1715 
Q 2847 1747 2906 1747 
L 4556 1747 
Q 4622 1747 4622 1663 
Q 4619 1647 4609 1609 
Q 4600 1572 4584 1547 
Q 4569 1522 4538 1522 
Q 4325 1522 4226 1487 
Q 4128 1453 4091 1306 
L 3950 756 
L 3769 44 
Q 3759 0 3713 0 
Q 3659 0 3559 144 
Q 3459 288 3419 384 
Q 3197 122 2825 -9 
Q 2453 -141 2059 -141 
Q 1563 -141 1164 84 
Q 766 309 545 709 
Q 325 1109 325 1613 
Q 325 2150 564 2673 
Q 803 3197 1212 3611 
Q 1622 4025 2142 4269 
Q 2663 4513 3194 4513 
Q 3406 4513 3601 4447 
Q 3797 4381 3964 4251 
Q 4131 4122 4238 3950 
L 4744 4500 
Q 4744 4513 4775 4513 
L 4813 4513 
Q 4838 4513 4855 4492 
Q 4872 4472 4872 4447 
L 4434 2719 
Q 4434 2675 4384 2675 
L 4269 2675 
Q 4219 2675 4219 2747 
Q 4244 2888 4244 3078 
Q 4244 3394 4137 3672 
Q 4031 3950 3806 4119 
Q 3581 4288 3256 4288 
Q 2741 4288 2303 4027 
Q 1866 3766 1562 3337 
Q 1259 2909 1096 2396 
Q 934 1884 934 1403 
z
" transform="scale(0.015625)"/>
      <path id="Cmmi10-45" d="M 494 109 
Q 494 147 500 166 
L 978 2075 
Q 1025 2253 1025 2388 
Q 1025 2663 838 2663 
Q 638 2663 541 2423 
Q 444 2184 353 1819 
Q 353 1800 334 1789 
Q 316 1778 300 1778 
L 225 1778 
Q 203 1778 187 1801 
Q 172 1825 172 1844 
Q 241 2122 305 2315 
Q 369 2509 505 2668 
Q 641 2828 844 2828 
Q 1084 2828 1268 2676 
Q 1453 2525 1453 2291 
Q 1644 2541 1900 2684 
Q 2156 2828 2444 2828 
Q 2747 2828 2967 2673 
Q 3188 2519 3188 2234 
Q 3384 2513 3648 2670 
Q 3913 2828 4225 2828 
Q 4556 2828 4757 2648 
Q 4959 2469 4959 2138 
Q 4959 1875 4842 1503 
Q 4725 1131 4550 672 
Q 4459 450 4459 288 
Q 4459 97 4609 97 
Q 4859 97 5025 365 
Q 5191 634 5259 941 
Q 5278 978 5313 978 
L 5388 978 
Q 5413 978 5430 961 
Q 5447 944 5447 922 
Q 5447 916 5441 903 
Q 5353 541 5136 234 
Q 4919 -72 4594 -72 
Q 4369 -72 4209 83 
Q 4050 238 4050 459 
Q 4050 572 4103 709 
Q 4284 1191 4404 1569 
Q 4525 1947 4525 2234 
Q 4525 2413 4453 2538 
Q 4381 2663 4213 2663 
Q 3863 2663 3606 2448 
Q 3350 2234 3163 1881 
Q 3150 1819 3144 1784 
L 2731 141 
Q 2709 53 2632 -9 
Q 2556 -72 2463 -72 
Q 2388 -72 2330 -22 
Q 2272 28 2272 109 
Q 2272 147 2278 166 
L 2688 1797 
Q 2753 2059 2753 2234 
Q 2753 2413 2679 2538 
Q 2606 2663 2431 2663 
Q 2197 2663 2000 2559 
Q 1803 2456 1656 2286 
Q 1509 2116 1388 1881 
L 953 141 
Q 931 53 854 -9 
Q 778 -72 684 -72 
Q 606 -72 550 -22 
Q 494 28 494 109 
z
" transform="scale(0.015625)"/>
      <path id="Cmr10-31" d="M 319 0 
L 319 172 
Q 319 188 331 206 
L 1325 1306 
Q 1550 1550 1690 1715 
Q 1831 1881 1968 2097 
Q 2106 2313 2186 2536 
Q 2266 2759 2266 3009 
Q 2266 3272 2169 3511 
Q 2072 3750 1880 3894 
Q 1688 4038 1416 4038 
Q 1138 4038 916 3870 
Q 694 3703 603 3438 
Q 628 3444 672 3444 
Q 816 3444 917 3347 
Q 1019 3250 1019 3097 
Q 1019 2950 917 2848 
Q 816 2747 672 2747 
Q 522 2747 420 2851 
Q 319 2956 319 3097 
Q 319 3338 409 3548 
Q 500 3759 670 3923 
Q 841 4088 1055 4175 
Q 1269 4263 1509 4263 
Q 1875 4263 2190 4108 
Q 2506 3953 2690 3670 
Q 2875 3388 2875 3009 
Q 2875 2731 2753 2481 
Q 2631 2231 2440 2026 
Q 2250 1822 1953 1562 
Q 1656 1303 1563 1216 
L 838 519 
L 1453 519 
Q 1906 519 2211 526 
Q 2516 534 2534 550 
Q 2609 631 2688 1141 
L 2875 1141 
L 2694 0 
L 319 0 
z
" transform="scale(0.015625)"/>
      <path id="Cmr10-29" d="M 481 850 
Q 428 850 393 890 
Q 359 931 359 978 
Q 359 1031 393 1068 
Q 428 1106 481 1106 
L 4500 1106 
Q 4547 1106 4581 1068 
Q 4616 1031 4616 978 
Q 4616 931 4581 890 
Q 4547 850 4500 850 
L 481 850 
z
M 481 2094 
Q 428 2094 393 2131 
Q 359 2169 359 2222 
Q 359 2269 393 2309 
Q 428 2350 481 2350 
L 4500 2350 
Q 4547 2350 4581 2309 
Q 4616 2269 4616 2222 
Q 4616 2169 4581 2131 
Q 4547 2094 4500 2094 
L 481 2094 
z
" transform="scale(0.015625)"/>
      <path id="Cmr10-3b" d="M 178 1056 
L 178 1281 
L 2156 4231 
Q 2178 4263 2222 4263 
L 2316 4263 
Q 2388 4263 2388 4191 
L 2388 1281 
L 3016 1281 
L 3016 1056 
L 2388 1056 
L 2388 428 
Q 2388 297 2575 261 
Q 2763 225 3009 225 
L 3009 0 
L 1247 0 
L 1247 225 
Q 1494 225 1681 261 
Q 1869 297 1869 428 
L 1869 1056 
L 178 1056 
z
M 391 1281 
L 1906 1281 
L 1906 3547 
L 391 1281 
z
" transform="scale(0.015625)"/>
      <path id="Cmmi10-24" d="M 647 109 
Q 647 144 672 213 
Q 850 584 1004 942 
Q 1159 1300 1282 1639 
Q 1406 1978 1509 2363 
L 1100 2363 
Q 866 2363 662 2216 
Q 459 2069 325 1844 
Q 313 1819 288 1819 
L 213 1819 
Q 153 1819 153 1881 
Q 153 1894 166 1919 
Q 375 2275 614 2517 
Q 853 2759 1153 2759 
L 3475 2759 
Q 3541 2759 3587 2715 
Q 3634 2672 3634 2597 
Q 3634 2503 3567 2433 
Q 3500 2363 3406 2363 
L 2591 2363 
Q 2488 1859 2478 1381 
Q 2478 766 2694 269 
Q 2713 231 2713 191 
Q 2713 122 2672 62 
Q 2631 3 2567 -34 
Q 2503 -72 2431 -72 
Q 2263 -72 2200 203 
Q 2138 478 2138 738 
Q 2138 1103 2200 1442 
Q 2263 1781 2400 2363 
L 1703 2363 
Q 1197 313 1094 103 
Q 1003 -72 844 -72 
Q 766 -72 706 -20 
Q 647 31 647 109 
z
" transform="scale(0.015625)"/>
      <path id="Cmmi10-78" d="M 294 84 
Q 297 100 308 140 
Q 319 181 336 203 
Q 353 225 384 225 
Q 934 225 1113 256 
Q 1284 300 1319 441 
L 2194 3956 
Q 2222 4034 2222 4097 
Q 2222 4147 1997 4147 
L 1625 4147 
Q 1197 4147 964 4015 
Q 731 3884 622 3668 
Q 513 3453 341 2963 
Q 319 2906 275 2906 
L 219 2906 
Q 153 2906 153 2988 
L 609 4313 
Q 622 4372 672 4372 
L 4453 4372 
Q 4519 4372 4519 4288 
L 4306 2963 
Q 4306 2944 4284 2925 
Q 4263 2906 4244 2906 
L 4184 2906 
Q 4122 2906 4122 2988 
Q 4191 3441 4191 3628 
Q 4191 3853 4097 3968 
Q 4003 4084 3853 4115 
Q 3703 4147 3463 4147 
L 3084 4147 
Q 2913 4147 2853 4115 
Q 2794 4084 2753 3928 
L 1875 416 
Q 1872 403 1870 390 
Q 1869 378 1863 359 
Q 1863 278 1959 256 
Q 2125 225 2669 225 
Q 2731 225 2731 141 
Q 2709 50 2696 25 
Q 2684 0 2625 0 
L 359 0 
Q 294 0 294 84 
z
" transform="scale(0.015625)"/>
     </defs>
     <use xlink:href="#Cmmi10-74" transform="translate(6.25 68.084203)"/>
     <use xlink:href="#Cmmi10-2d" transform="translate(84.863281 68.084203)"/>
     <use xlink:href="#Cmmi10-45" transform="translate(181.884766 68.084203)"/>
     <use xlink:href="#Cmmi10-84" transform="translate(89.25 -84.357388)"/>
     <use xlink:href="#Cmr10-31" transform="translate(145.627369 -43.068154) scale(0.7)"/>
     <use xlink:href="#Cmr10-29" transform="translate(295.927792 0.433408)"/>
     <use xlink:href="#Cmr10-3b" transform="translate(399.863396 68.084203)"/>
     <use xlink:href="#Cmmi10-24" transform="translate(449.863396 68.084203)"/>
     <use xlink:href="#Cmr10-31" transform="translate(517.879593 109.373437) scale(0.7)"/>
     <use xlink:href="#Cmmi10-78" transform="translate(421.863396 -84.357388)"/>
     <use xlink:href="#Cmr10-31" transform="translate(496.588265 -43.068154) scale(0.7)"/>
     <use xlink:href="#Cmmi10-45" transform="translate(564.850009 0.433408)"/>
     <use xlink:href="#Cmmi10-84" transform="translate(652.642977 0.433408)"/>
     <path d="M 6.25 22.308408 
L 6.25 28.558408 
L 269.677734 28.558408 
L 269.677734 22.308408 
L 6.25 22.308408 
z
"/>
     <path d="M 399.863396 22.308408 
L 399.863396 28.558408 
L 558.600009 28.558408 
L 558.600009 22.308408 
L 399.863396 22.308408 
z
"/>
    </g>
    <!-- $\Rightarrow\ T^{2}=\dfrac{4\pi^{2}}{GM}\,r^{3}$ -->
    <g style="fill: #222831" transform="translate(68.725566 258.874245) scale(0.13 -0.13)">
     <defs>
      <path id="Cmsy10-70" d="M 481 850 
Q 428 850 393 890 
Q 359 931 359 978 
Q 359 1031 393 1068 
Q 428 1106 481 1106 
L 4634 1106 
Q 5009 1416 5453 1600 
Q 5009 1784 4634 2094 
L 481 2094 
Q 428 2094 393 2131 
Q 359 2169 359 2222 
Q 359 2269 393 2309 
Q 428 2350 481 2350 
L 4353 2350 
Q 4194 2516 3950 2850 
Q 3706 3184 3706 3291 
Q 3706 3319 3723 3339 
Q 3741 3359 3769 3359 
L 3897 3359 
Q 3938 3359 3950 3322 
Q 4109 3009 4314 2750 
Q 4519 2491 4787 2272 
Q 5056 2053 5353 1906 
Q 5650 1759 5991 1672 
Q 6034 1644 6034 1600 
Q 6034 1550 5991 1538 
Q 5325 1369 4792 934 
Q 4259 500 3950 -122 
Q 3938 -159 3897 -159 
L 3769 -159 
Q 3706 -159 3706 -91 
Q 3706 -16 3832 179 
Q 3959 375 4111 567 
Q 4263 759 4353 850 
L 481 850 
z
" transform="scale(0.015625)"/>
      <path id="Cmr10-6e" d="M 609 494 
Q 759 275 1012 169 
Q 1266 63 1556 63 
Q 1928 63 2084 380 
Q 2241 697 2241 1100 
Q 2241 1281 2208 1462 
Q 2175 1644 2097 1800 
Q 2019 1956 1883 2050 
Q 1747 2144 1550 2144 
L 1125 2144 
Q 1069 2144 1069 2203 
L 1069 2259 
Q 1069 2309 1125 2309 
L 1478 2338 
Q 1703 2338 1851 2506 
Q 2000 2675 2069 2917 
Q 2138 3159 2138 3378 
Q 2138 3684 1994 3881 
Q 1850 4078 1556 4078 
Q 1313 4078 1091 3986 
Q 869 3894 738 3706 
Q 750 3709 759 3711 
Q 769 3713 781 3713 
Q 925 3713 1022 3613 
Q 1119 3513 1119 3372 
Q 1119 3234 1022 3134 
Q 925 3034 781 3034 
Q 641 3034 541 3134 
Q 441 3234 441 3372 
Q 441 3647 606 3850 
Q 772 4053 1033 4158 
Q 1294 4263 1556 4263 
Q 1750 4263 1965 4205 
Q 2181 4147 2356 4039 
Q 2531 3931 2642 3762 
Q 2753 3594 2753 3378 
Q 2753 3109 2633 2881 
Q 2513 2653 2303 2487 
Q 2094 2322 1844 2241 
Q 2122 2188 2372 2031 
Q 2622 1875 2773 1631 
Q 2925 1388 2925 1106 
Q 2925 753 2731 467 
Q 2538 181 2222 20 
Q 1906 -141 1556 -141 
Q 1256 -141 954 -26 
Q 653 88 461 316 
Q 269 544 269 863 
Q 269 1022 375 1128 
Q 481 1234 641 1234 
Q 744 1234 830 1186 
Q 916 1138 964 1050 
Q 1013 963 1013 863 
Q 1013 706 903 600 
Q 794 494 641 494 
L 609 494 
z
" transform="scale(0.015625)"/>
     </defs>
     <use xlink:href="#Cmsy10-70" transform="translate(20.000057 0.433408)"/>
     <use xlink:href="#Cmmi10-78" transform="translate(173.33321 0.433408)"/>
     <use xlink:href="#Cmr10-31" transform="translate(248.058079 41.722643) scale(0.7)"/>
     <use xlink:href="#Cmr10-29" transform="translate(308.778552 0.433408)"/>
     <use xlink:href="#Cmr10-3b" transform="translate(420.714156 68.084203)"/>
     <use xlink:href="#Cmmi10-24" transform="translate(470.714156 68.084203)"/>
     <use xlink:href="#Cmr10-31" transform="translate(538.730353 109.373437) scale(0.7)"/>
     <use xlink:href="#Cmmi10-74" transform="translate(412.714156 -68.161715)"/>
     <use xlink:href="#Cmmi10-2d" transform="translate(491.327437 -68.161715)"/>
     <use xlink:href="#Cmmi10-84" transform="translate(611.265969 0.433408)"/>
     <use xlink:href="#Cmr10-6e" transform="translate(667.643339 41.722643) scale(0.7)"/>
     <path d="M 412.714156 22.308408 
L 412.714156 28.558408 
L 588.348922 28.558408 
L 588.348922 22.308408 
L 412.714156 22.308408 
z
"/>
    </g>
   </g>
   <g id="text_4">
    <!-- 圓軌道：引力＝向心力 -->
    <g style="fill: #222831" transform="translate(49.810566 18.64) scale(0.13 -0.13)">
     <defs>
      <path id="NotoSansCJKjp-Regular-33a8" d="M 2330 4013 
L 4051 4013 
L 4051 3648 
L 2330 3648 
L 2330 4013 
z
M 1926 4282 
L 1926 3373 
L 4474 3373 
L 4474 4282 
L 1926 4282 
z
M 2061 2304 
L 4301 2304 
L 4301 2003 
L 2061 2003 
L 2061 2304 
z
M 2061 1741 
L 4301 1741 
L 4301 1427 
L 2061 1427 
L 2061 1741 
z
M 2061 2861 
L 4301 2861 
L 4301 2566 
L 2061 2566 
L 2061 2861 
z
M 3482 966 
C 3923 800 4390 570 4653 390 
L 5050 582 
C 4749 768 4237 992 3782 1158 
L 4730 1158 
L 4730 3130 
L 1651 3130 
L 1651 1158 
L 2509 1158 
C 2221 966 1760 800 1338 678 
C 1421 608 1568 467 1632 397 
C 2048 544 2560 800 2886 1043 
L 2541 1158 
L 3757 1158 
L 3482 966 
z
M 525 5082 
L 525 -531 
L 986 -531 
L 986 -230 
L 5402 -230 
L 5402 -531 
L 5875 -531 
L 5875 5082 
L 525 5082 
z
M 986 205 
L 986 4640 
L 5402 4640 
L 5402 205 
L 986 205 
z
" transform="scale(0.015625)"/>
      <path id="NotoSansCJKjp-Regular-9aec" d="M 3840 5363 
L 3840 3987 
L 3142 3987 
L 3142 3552 
L 3840 3552 
L 3840 3354 
C 3840 2112 3738 787 2637 -243 
C 2758 -307 2925 -448 3008 -538 
C 4166 563 4288 2003 4288 3354 
L 4288 3552 
L 4966 3552 
L 4966 192 
C 4966 -141 4992 -250 5082 -346 
C 5171 -442 5306 -467 5434 -467 
C 5498 -467 5638 -467 5722 -467 
C 5830 -467 5946 -442 6029 -384 
C 6112 -320 6170 -224 6202 -70 
C 6227 70 6246 480 6253 813 
C 6138 851 5990 928 5894 1005 
C 5901 646 5888 339 5882 211 
C 5869 134 5843 70 5818 38 
C 5792 6 5741 0 5696 0 
C 5645 0 5587 0 5555 0 
C 5510 0 5472 19 5446 38 
C 5427 64 5414 109 5414 154 
L 5414 3987 
L 4288 3987 
L 4288 5363 
L 3840 5363 
z
M 499 3776 
L 499 1549 
L 1504 1549 
L 1504 1030 
L 256 1030 
L 256 602 
L 1504 602 
L 1504 -512 
L 1952 -512 
L 1952 602 
L 3168 602 
L 3168 1030 
L 1952 1030 
L 1952 1549 
L 2995 1549 
L 2995 3776 
L 1952 3776 
L 1952 4262 
L 3091 4262 
L 3091 4685 
L 1952 4685 
L 1952 5376 
L 1504 5376 
L 1504 4685 
L 352 4685 
L 352 4262 
L 1504 4262 
L 1504 3776 
L 499 3776 
z
M 890 2496 
L 1536 2496 
L 1536 1907 
L 890 1907 
L 890 2496 
z
M 1914 2496 
L 2592 2496 
L 2592 1907 
L 1914 1907 
L 1914 2496 
z
M 890 3418 
L 1536 3418 
L 1536 2835 
L 890 2835 
L 890 3418 
z
M 1914 3418 
L 2592 3418 
L 2592 2835 
L 1914 2835 
L 1914 3418 
z
" transform="scale(0.015625)"/>
      <path id="NotoSansCJKjp-Regular-9df9" d="M 384 4934 
C 794 4646 1274 4218 1478 3904 
L 1862 4224 
C 1632 4531 1152 4947 730 5222 
L 384 4934 
z
M 2957 2400 
L 5088 2400 
L 5088 1869 
L 2957 1869 
L 2957 2400 
z
M 2957 1517 
L 5088 1517 
L 5088 979 
L 2957 979 
L 2957 1517 
z
M 2957 3277 
L 5088 3277 
L 5088 2752 
L 2957 2752 
L 2957 3277 
z
M 2502 3648 
L 2502 602 
L 5562 602 
L 5562 3648 
L 4045 3648 
L 4224 4160 
L 6061 4160 
L 6061 4563 
L 4896 4563 
C 5037 4762 5197 5018 5344 5261 
L 4851 5376 
C 4755 5146 4563 4794 4416 4563 
L 3341 4563 
L 3520 4640 
C 3450 4845 3251 5152 3046 5363 
L 2669 5216 
C 2842 5024 3002 4762 3085 4563 
L 1990 4563 
L 1990 4160 
L 3706 4160 
C 3674 3994 3635 3808 3597 3648 
L 2502 3648 
z
M 1677 2848 
L 314 2848 
L 314 2400 
L 1210 2400 
L 1210 768 
C 890 499 518 230 230 32 
L 480 -461 
C 826 -173 1152 102 1459 378 
C 1869 -128 2445 -358 3283 -390 
C 3994 -416 5318 -403 6016 -371 
C 6035 -224 6118 6 6176 115 
C 5414 64 3981 45 3283 77 
C 2541 102 1978 326 1677 794 
L 1677 2848 
z
" transform="scale(0.015625)"/>
      <path id="NotoSansCJKjp-Regular-e6c0" d="M 3200 3482 
C 3456 3482 3686 3667 3686 3962 
C 3686 4256 3456 4442 3200 4442 
C 2944 4442 2714 4256 2714 3962 
C 2714 3667 2944 3482 3200 3482 
z
M 3200 346 
C 3456 346 3686 538 3686 826 
C 3686 1120 3456 1312 3200 1312 
C 2944 1312 2714 1120 2714 826 
C 2714 538 2944 346 3200 346 
z
" transform="scale(0.015625)"/>
      <path id="NotoSansCJKjp-Regular-4315" d="M 4954 5312 
L 4954 -512 
L 5434 -512 
L 5434 5312 
L 4954 5312 
z
M 838 3635 
C 749 2989 595 2131 461 1600 
L 941 1523 
L 1005 1830 
L 2707 1830 
C 2611 672 2502 179 2349 38 
C 2278 -19 2208 -32 2067 -32 
C 1914 -32 1485 -26 1056 13 
C 1152 -122 1216 -333 1229 -486 
C 1638 -499 2042 -512 2246 -493 
C 2483 -474 2624 -435 2765 -288 
C 2982 -58 3098 544 3213 2054 
C 3219 2125 3226 2278 3226 2278 
L 1094 2278 
L 1254 3187 
L 3194 3187 
L 3194 5107 
L 621 5107 
L 621 4659 
L 2726 4659 
L 2726 3635 
L 838 3635 
z
" transform="scale(0.015625)"/>
      <path id="NotoSansCJKjp-Regular-2c71" d="M 2624 5363 
L 2624 4256 
L 2624 3981 
L 531 3981 
L 531 3488 
L 2598 3488 
C 2502 2285 2080 877 339 -160 
C 461 -243 634 -422 710 -538 
C 2573 595 3008 2157 3098 3488 
L 5293 3488 
C 5165 1229 5024 320 4794 102 
C 4717 19 4634 0 4499 0 
C 4339 0 3930 6 3488 45 
C 3584 -96 3642 -307 3654 -448 
C 4051 -467 4461 -480 4678 -461 
C 4928 -435 5075 -390 5229 -198 
C 5517 115 5645 1075 5792 3725 
C 5798 3795 5805 3981 5805 3981 
L 3123 3981 
L 3123 4256 
L 3123 5363 
L 2624 5363 
z
" transform="scale(0.015625)"/>
      <path id="NotoSansCJKjp-Regular-e6c3" d="M 5523 3386 
L 877 3386 
L 877 2944 
L 5523 2944 
L 5523 3386 
z
M 877 1939 
L 877 1498 
L 5523 1498 
L 5523 1939 
L 877 1939 
z
" transform="scale(0.015625)"/>
      <path id="NotoSansCJKjp-Regular-2eb8" d="M 2803 5389 
C 2714 5062 2554 4614 2394 4269 
L 634 4269 
L 634 -512 
L 1107 -512 
L 1107 3802 
L 5325 3802 
L 5325 128 
C 5325 13 5286 -26 5158 -26 
C 5024 -32 4582 -38 4122 -13 
C 4192 -154 4262 -378 4288 -512 
C 4877 -512 5274 -506 5504 -429 
C 5728 -346 5805 -192 5805 128 
L 5805 4269 
L 2925 4269 
C 3085 4576 3258 4947 3398 5293 
L 2803 5389 
z
M 2387 2522 
L 4006 2522 
L 4006 1267 
L 2387 1267 
L 2387 2522 
z
M 1946 2950 
L 1946 371 
L 2387 371 
L 2387 832 
L 4454 832 
L 4454 2950 
L 1946 2950 
z
" transform="scale(0.015625)"/>
      <path id="NotoSansCJKjp-Regular-444f" d="M 1952 3590 
L 1952 378 
C 1952 -250 2144 -429 2829 -429 
C 2970 -429 3923 -429 4077 -429 
C 4774 -429 4928 -70 4998 1139 
C 4858 1178 4659 1267 4544 1357 
C 4493 250 4435 19 4051 19 
C 3834 19 3034 19 2867 19 
C 2515 19 2445 70 2445 371 
L 2445 3590 
L 1952 3590 
z
M 2003 4979 
C 2771 4704 3706 4224 4198 3859 
L 4512 4282 
C 4006 4621 3072 5088 2304 5350 
L 2003 4979 
z
M 883 3072 
C 787 2240 582 1306 154 742 
L 589 486 
C 1043 1101 1248 2118 1344 2976 
L 883 3072 
z
M 4614 3072 
C 5152 2349 5632 1350 5779 678 
L 6253 902 
C 6099 1581 5619 2554 5043 3283 
L 4614 3072 
z
" transform="scale(0.015625)"/>
     </defs>
     <use xlink:href="#NotoSansCJKjp-Regular-33a8"/>
     <use xlink:href="#NotoSansCJKjp-Regular-9aec" transform="translate(100 0)"/>
     <use xlink:href="#NotoSansCJKjp-Regular-9df9" transform="translate(200 0)"/>
     <use xlink:href="#NotoSansCJKjp-Regular-e6c0" transform="translate(300 0)"/>
     <use xlink:href="#NotoSansCJKjp-Regular-4315" transform="translate(400 0)"/>
     <use xlink:href="#NotoSansCJKjp-Regular-2c71" transform="translate(500 0)"/>
     <use xlink:href="#NotoSansCJKjp-Regular-e6c3" transform="translate(600 0)"/>
     <use xlink:href="#NotoSansCJKjp-Regular-2eb8" transform="translate(700 0)"/>
     <use xlink:href="#NotoSansCJKjp-Regular-444f" transform="translate(800 0)"/>
     <use xlink:href="#NotoSansCJKjp-Regular-2c71" transform="translate(900 0)"/>
    </g>
   </g>
   <g id="patch_4">
    <path d="M 163.674517 63.810744 
C 165.22036 63.810744 166.703099 63.196574 167.796175 62.103498 
C 168.889252 61.010421 169.503422 59.527683 169.503422 57.981839 
C 169.503422 56.435995 168.889252 54.953257 167.796175 53.86018 
C 166.703099 52.767103 165.22036 52.152933 163.674517 52.152933 
C 162.128673 52.152933 160.645935 52.767103 159.552858 53.86018 
C 158.459781 54.953257 157.845611 56.435995 157.845611 57.981839 
C 157.845611 59.527683 158.459781 61.010421 159.552858 62.103498 
C 160.645935 63.196574 162.128673 63.810744 163.674517 63.810744 
z
" clip-path="url(#p49f43b2247)" style="fill: #1f6feb; stroke: #222831; stroke-width: 1.2; stroke-linejoin: miter"/>
   </g>
   <g id="patch_5">
    <path d="M 163.674517 57.981839 
Q 153.387369 72.673408 144.382778 85.533298 
" clip-path="url(#p49f43b2247)" style="fill: none; stroke: #d1242f; stroke-width: 2; stroke-linecap: round"/>
    <path d="M 149.49517 82.765006 
L 144.382778 85.533298 
L 145.23558 79.782408 
z
" clip-path="url(#p49f43b2247)" style="fill: #d1242f; stroke: #d1242f; stroke-width: 2; stroke-linecap: round"/>
   </g>
   <g id="patch_6">
    <path d="M 163.674517 57.981839 
Q 147.146501 46.408798 132.450166 36.118313 
" clip-path="url(#p49f43b2247)" style="fill: none; stroke: #1f6feb; stroke-width: 2; stroke-linecap: round"/>
    <path d="M 135.218458 41.230706 
L 132.450166 36.118313 
L 138.201055 36.971115 
z
" clip-path="url(#p49f43b2247)" style="fill: #1f6feb; stroke: #1f6feb; stroke-width: 2; stroke-linecap: round"/>
   </g>
  </g>
  <g id="axes_2">
   <g id="patch_7">
    <path d="M 315.274482 262.28 
L 631.84278 262.28 
L 631.84278 24.64 
L 315.274482 24.64 
z
" style="fill: #ffffff"/>
   </g>
   <g id="matplotlib.axis_1">
    <g id="xtick_1">
     <g id="line2d_2">
      <path d="M 315.274482 262.28 
L 315.274482 24.64 
" clip-path="url(#p24a2592829)" style="fill: none; stroke: #d8dde3; stroke-width: 0.9; stroke-linecap: square"/>
     </g>
     <g id="line2d_3">
      <defs>
       <path id="m9542f1c357" d="M 0 0 
L 0 3.5 
" style="stroke: #222831; stroke-width: 0.8"/>
      </defs>
      <g>
       <use xlink:href="#m9542f1c357" x="315.274482" y="262.28" style="fill: #222831; stroke: #222831; stroke-width: 0.8"/>
      </g>
     </g>
     <g id="text_5">
      <!-- 0 -->
      <g style="fill: #222831" transform="translate(311.944482 279.84) scale(0.12 -0.12)">
       <defs>
        <path id="NotoSansCJKjp-Regular-11" d="M 1779 -83 
C 2669 -83 3238 723 3238 2362 
C 3238 3987 2669 4774 1779 4774 
C 883 4774 320 3987 320 2362 
C 320 723 883 -83 1779 -83 
z
M 1779 390 
C 1248 390 883 986 883 2362 
C 883 3731 1248 4314 1779 4314 
C 2310 4314 2675 3731 2675 2362 
C 2675 986 2310 390 1779 390 
z
" transform="scale(0.015625)"/>
       </defs>
       <use xlink:href="#NotoSansCJKjp-Regular-11"/>
      </g>
     </g>
    </g>
    <g id="xtick_2">
     <g id="line2d_4">
      <path d="M 383.85671 262.28 
L 383.85671 24.64 
" clip-path="url(#p24a2592829)" style="fill: none; stroke: #d8dde3; stroke-width: 0.9; stroke-linecap: square"/>
     </g>
     <g id="line2d_5">
      <g>
       <use xlink:href="#m9542f1c357" x="383.85671" y="262.28" style="fill: #222831; stroke: #222831; stroke-width: 0.8"/>
      </g>
     </g>
     <g id="text_6">
      <!-- 200 -->
      <g style="fill: #222831" transform="translate(373.86671 279.84) scale(0.12 -0.12)">
       <defs>
        <path id="NotoSansCJKjp-Regular-13" d="M 282 0 
L 3232 0 
L 3232 506 
L 1933 506 
C 1696 506 1408 480 1165 461 
C 2266 1504 3008 2458 3008 3398 
C 3008 4230 2477 4774 1638 4774 
C 1043 4774 634 4506 256 4090 
L 595 3757 
C 858 4070 1184 4301 1568 4301 
C 2150 4301 2432 3910 2432 3373 
C 2432 2566 1754 1632 282 346 
L 282 0 
z
" transform="scale(0.015625)"/>
       </defs>
       <use xlink:href="#NotoSansCJKjp-Regular-13"/>
       <use xlink:href="#NotoSansCJKjp-Regular-11" transform="translate(55.5 0)"/>
       <use xlink:href="#NotoSansCJKjp-Regular-11" transform="translate(111 0)"/>
      </g>
     </g>
    </g>
    <g id="xtick_3">
     <g id="line2d_6">
      <path d="M 452.438938 262.28 
L 452.438938 24.64 
" clip-path="url(#p24a2592829)" style="fill: none; stroke: #d8dde3; stroke-width: 0.9; stroke-linecap: square"/>
     </g>
     <g id="line2d_7">
      <g>
       <use xlink:href="#m9542f1c357" x="452.438938" y="262.28" style="fill: #222831; stroke: #222831; stroke-width: 0.8"/>
      </g>
     </g>
     <g id="text_7">
      <!-- 400 -->
      <g style="fill: #222831" transform="translate(442.448938 279.84) scale(0.12 -0.12)">
       <defs>
        <path id="NotoSansCJKjp-Regular-15" d="M 2176 0 
L 2726 0 
L 2726 1293 
L 3354 1293 
L 3354 1760 
L 2726 1760 
L 2726 4691 
L 2080 4691 
L 128 1677 
L 128 1293 
L 2176 1293 
L 2176 0 
z
M 2176 1760 
L 736 1760 
L 1805 3360 
C 1939 3590 2067 3827 2182 4051 
L 2208 4051 
C 2195 3814 2176 3430 2176 3200 
L 2176 1760 
z
" transform="scale(0.015625)"/>
       </defs>
       <use xlink:href="#NotoSansCJKjp-Regular-15"/>
       <use xlink:href="#NotoSansCJKjp-Regular-11" transform="translate(55.5 0)"/>
       <use xlink:href="#NotoSansCJKjp-Regular-11" transform="translate(111 0)"/>
      </g>
     </g>
    </g>
    <g id="xtick_4">
     <g id="line2d_8">
      <path d="M 521.021167 262.28 
L 521.021167 24.64 
" clip-path="url(#p24a2592829)" style="fill: none; stroke: #d8dde3; stroke-width: 0.9; stroke-linecap: square"/>
     </g>
     <g id="line2d_9">
      <g>
       <use xlink:href="#m9542f1c357" x="521.021167" y="262.28" style="fill: #222831; stroke: #222831; stroke-width: 0.8"/>
      </g>
     </g>
     <g id="text_8">
      <!-- 600 -->
      <g style="fill: #222831" transform="translate(511.031167 279.84) scale(0.12 -0.12)">
       <defs>
        <path id="NotoSansCJKjp-Regular-17" d="M 1926 -83 
C 2656 -83 3277 531 3277 1440 
C 3277 2426 2765 2912 1971 2912 
C 1606 2912 1197 2701 909 2349 
C 934 3802 1466 4294 2118 4294 
C 2400 4294 2682 4154 2861 3936 
L 3194 4294 
C 2931 4576 2579 4774 2093 4774 
C 1184 4774 358 4077 358 2240 
C 358 691 1030 -83 1926 -83 
z
M 922 1882 
C 1229 2317 1587 2477 1875 2477 
C 2445 2477 2720 2074 2720 1440 
C 2720 800 2374 378 1926 378 
C 1338 378 986 909 922 1882 
z
" transform="scale(0.015625)"/>
       </defs>
       <use xlink:href="#NotoSansCJKjp-Regular-17"/>
       <use xlink:href="#NotoSansCJKjp-Regular-11" transform="translate(55.5 0)"/>
       <use xlink:href="#NotoSansCJKjp-Regular-11" transform="translate(111 0)"/>
      </g>
     </g>
    </g>
    <g id="xtick_5">
     <g id="line2d_10">
      <path d="M 589.603395 262.28 
L 589.603395 24.64 
" clip-path="url(#p24a2592829)" style="fill: none; stroke: #d8dde3; stroke-width: 0.9; stroke-linecap: square"/>
     </g>
     <g id="line2d_11">
      <g>
       <use xlink:href="#m9542f1c357" x="589.603395" y="262.28" style="fill: #222831; stroke: #222831; stroke-width: 0.8"/>
      </g>
     </g>
     <g id="text_9">
      <!-- 800 -->
      <g style="fill: #222831" transform="translate(579.613395 279.84) scale(0.12 -0.12)">
       <defs>
        <path id="NotoSansCJKjp-Regular-19" d="M 1792 -83 
C 2669 -83 3258 448 3258 1126 
C 3258 1773 2880 2125 2470 2362 
L 2470 2394 
C 2746 2611 3091 3034 3091 3526 
C 3091 4250 2605 4762 1805 4762 
C 1075 4762 518 4282 518 3571 
C 518 3078 813 2726 1152 2490 
L 1152 2464 
C 723 2234 294 1792 294 1165 
C 294 442 922 -83 1792 -83 
z
M 2112 2547 
C 1555 2765 1050 3014 1050 3571 
C 1050 4026 1363 4326 1798 4326 
C 2298 4326 2592 3962 2592 3494 
C 2592 3149 2426 2829 2112 2547 
z
M 1798 352 
C 1235 352 813 717 813 1216 
C 813 1664 1082 2035 1459 2278 
C 2125 2010 2701 1779 2701 1146 
C 2701 678 2342 352 1798 352 
z
" transform="scale(0.015625)"/>
       </defs>
       <use xlink:href="#NotoSansCJKjp-Regular-19"/>
       <use xlink:href="#NotoSansCJKjp-Regular-11" transform="translate(55.5 0)"/>
       <use xlink:href="#NotoSansCJKjp-Regular-11" transform="translate(111 0)"/>
      </g>
     </g>
    </g>
    <g id="text_10">
     <!-- $r^{3}$（$\mathrm{AU}^{3}$） -->
     <g style="fill: #222831" transform="translate(444.038631 295.84) scale(0.12 -0.12)">
      <defs>
       <path id="NotoSansCJKjp-Regular-e6ae" d="M 4448 2432 
C 4448 1184 4954 166 5722 -614 
L 6106 -416 
C 5370 346 4915 1293 4915 2432 
C 4915 3571 5370 4518 6106 5280 
L 5722 5478 
C 4954 4698 4448 3680 4448 2432 
z
" transform="scale(0.015625)"/>
       <path id="Cmr10-56" d="M 206 0 
L 206 225 
Q 778 225 909 603 
L 2253 4513 
Q 2272 4581 2356 4581 
L 2438 4581 
Q 2522 4581 2541 4513 
L 3944 428 
Q 4003 294 4170 259 
Q 4338 225 4588 225 
L 4588 0 
L 2803 0 
L 2803 225 
Q 3334 225 3334 397 
L 3334 428 
L 2988 1428 
L 1434 1428 
L 1147 603 
Q 1141 581 1141 538 
Q 1141 378 1292 301 
Q 1444 225 1619 225 
L 1619 0 
L 206 0 
z
M 1509 1650 
L 2913 1650 
L 2209 3694 
L 1509 1650 
z
" transform="scale(0.015625)"/>
       <path id="Cmr10-3d" d="M 856 1447 
L 856 3944 
Q 856 4147 197 4147 
L 197 4372 
L 2113 4372 
L 2113 4147 
Q 1453 4147 1453 3944 
L 1453 1472 
Q 1453 1116 1551 798 
Q 1650 481 1883 282 
Q 2116 84 2491 84 
Q 2856 84 3134 276 
Q 3413 469 3563 787 
Q 3713 1106 3713 1472 
L 3713 3769 
Q 3713 4147 3053 4147 
L 3053 4372 
L 4594 4372 
L 4594 4147 
Q 3938 4147 3938 3769 
L 3938 1447 
Q 3938 1150 3833 865 
Q 3728 581 3529 351 
Q 3331 122 3062 -9 
Q 2794 -141 2491 -141 
Q 2066 -141 1686 71 
Q 1306 284 1081 650 
Q 856 1016 856 1447 
z
" transform="scale(0.015625)"/>
       <path id="NotoSansCJKjp-Regular-e6af" d="M 1952 2432 
C 1952 3680 1446 4698 678 5478 
L 294 5280 
C 1030 4518 1485 3571 1485 2432 
C 1485 1293 1030 346 294 -416 
L 678 -614 
C 1446 166 1952 1184 1952 2432 
z
" transform="scale(0.015625)"/>
      </defs>
      <use xlink:href="#Cmmi10-84" transform="translate(0 0.084203)"/>
      <use xlink:href="#Cmr10-6e" transform="translate(56.377369 41.373437) scale(0.7)"/>
      <use xlink:href="#NotoSansCJKjp-Regular-e6ae" transform="translate(97.097785 0.084203)"/>
      <use xlink:href="#Cmr10-56" transform="translate(197.097693 0.084203)"/>
      <use xlink:href="#Cmr10-3d" transform="translate(272.097693 0.084203)"/>
      <use xlink:href="#Cmr10-6e" transform="translate(351.101984 41.373437) scale(0.7)"/>
      <use xlink:href="#NotoSansCJKjp-Regular-e6af" transform="translate(391.8224 0.084203)"/>
     </g>
    </g>
   </g>
   <g id="matplotlib.axis_2">
    <g id="ytick_1">
     <g id="line2d_12">
      <path d="M 315.274482 262.28 
L 631.84278 262.28 
" clip-path="url(#p24a2592829)" style="fill: none; stroke: #d8dde3; stroke-width: 0.9; stroke-linecap: square"/>
     </g>
     <g id="line2d_13">
      <defs>
       <path id="m9f79aae264" d="M 0 0 
L -3.5 0 
" style="stroke: #222831; stroke-width: 0.8"/>
      </defs>
      <g>
       <use xlink:href="#m9f79aae264" x="315.274482" y="262.28" style="fill: #222831; stroke: #222831; stroke-width: 0.8"/>
      </g>
     </g>
     <g id="text_11">
      <!-- 0 -->
      <g style="fill: #222831" transform="translate(301.614482 267.56) scale(0.12 -0.12)">
       <use xlink:href="#NotoSansCJKjp-Regular-11"/>
      </g>
     </g>
    </g>
    <g id="ytick_2">
     <g id="line2d_14">
      <path d="M 315.274482 210.797016 
L 631.84278 210.797016 
" clip-path="url(#p24a2592829)" style="fill: none; stroke: #d8dde3; stroke-width: 0.9; stroke-linecap: square"/>
     </g>
     <g id="line2d_15">
      <g>
       <use xlink:href="#m9f79aae264" x="315.274482" y="210.797016" style="fill: #222831; stroke: #222831; stroke-width: 0.8"/>
      </g>
     </g>
     <g id="text_12">
      <!-- 200 -->
      <g style="fill: #222831" transform="translate(288.294482 216.077016) scale(0.12 -0.12)">
       <use xlink:href="#NotoSansCJKjp-Regular-13"/>
       <use xlink:href="#NotoSansCJKjp-Regular-11" transform="translate(55.5 0)"/>
       <use xlink:href="#NotoSansCJKjp-Regular-11" transform="translate(111 0)"/>
      </g>
     </g>
    </g>
    <g id="ytick_3">
     <g id="line2d_16">
      <path d="M 315.274482 159.314032 
L 631.84278 159.314032 
" clip-path="url(#p24a2592829)" style="fill: none; stroke: #d8dde3; stroke-width: 0.9; stroke-linecap: square"/>
     </g>
     <g id="line2d_17">
      <g>
       <use xlink:href="#m9f79aae264" x="315.274482" y="159.314032" style="fill: #222831; stroke: #222831; stroke-width: 0.8"/>
      </g>
     </g>
     <g id="text_13">
      <!-- 400 -->
      <g style="fill: #222831" transform="translate(288.294482 164.594032) scale(0.12 -0.12)">
       <use xlink:href="#NotoSansCJKjp-Regular-15"/>
       <use xlink:href="#NotoSansCJKjp-Regular-11" transform="translate(55.5 0)"/>
       <use xlink:href="#NotoSansCJKjp-Regular-11" transform="translate(111 0)"/>
      </g>
     </g>
    </g>
    <g id="ytick_4">
     <g id="line2d_18">
      <path d="M 315.274482 107.831047 
L 631.84278 107.831047 
" clip-path="url(#p24a2592829)" style="fill: none; stroke: #d8dde3; stroke-width: 0.9; stroke-linecap: square"/>
     </g>
     <g id="line2d_19">
      <g>
       <use xlink:href="#m9f79aae264" x="315.274482" y="107.831047" style="fill: #222831; stroke: #222831; stroke-width: 0.8"/>
      </g>
     </g>
     <g id="text_14">
      <!-- 600 -->
      <g style="fill: #222831" transform="translate(288.294482 113.111047) scale(0.12 -0.12)">
       <use xlink:href="#NotoSansCJKjp-Regular-17"/>
       <use xlink:href="#NotoSansCJKjp-Regular-11" transform="translate(55.5 0)"/>
       <use xlink:href="#NotoSansCJKjp-Regular-11" transform="translate(111 0)"/>
      </g>
     </g>
    </g>
    <g id="ytick_5">
     <g id="line2d_20">
      <path d="M 315.274482 56.348063 
L 631.84278 56.348063 
" clip-path="url(#p24a2592829)" style="fill: none; stroke: #d8dde3; stroke-width: 0.9; stroke-linecap: square"/>
     </g>
     <g id="line2d_21">
      <g>
       <use xlink:href="#m9f79aae264" x="315.274482" y="56.348063" style="fill: #222831; stroke: #222831; stroke-width: 0.8"/>
      </g>
     </g>
     <g id="text_15">
      <!-- 800 -->
      <g style="fill: #222831" transform="translate(288.294482 61.628063) scale(0.12 -0.12)">
       <use xlink:href="#NotoSansCJKjp-Regular-19"/>
       <use xlink:href="#NotoSansCJKjp-Regular-11" transform="translate(55.5 0)"/>
       <use xlink:href="#NotoSansCJKjp-Regular-11" transform="translate(111 0)"/>
      </g>
     </g>
    </g>
    <g id="text_16">
     <!-- $T^{2}$（年$^{2}$） -->
     <g style="fill: #222831" transform="translate(282.854482 171.12) rotate(-90) scale(0.12 -0.12)">
      <defs>
       <path id="NotoSansCJKjp-Regular-41d7" d="M 307 1427 
L 307 966 
L 3277 966 
L 3277 -512 
L 3770 -512 
L 3770 966 
L 6106 966 
L 6106 1427 
L 3770 1427 
L 3770 2701 
L 5658 2701 
L 5658 3155 
L 3770 3155 
L 3770 4141 
L 5805 4141 
L 5805 4602 
L 1965 4602 
C 2074 4819 2170 5043 2259 5274 
L 1773 5402 
C 1466 4531 934 3699 320 3174 
C 442 3104 646 2944 736 2867 
C 1082 3200 1421 3642 1715 4141 
L 3277 4141 
L 3277 3155 
L 1363 3155 
L 1363 1427 
L 307 1427 
z
M 1843 1427 
L 1843 2701 
L 3277 2701 
L 3277 1427 
L 1843 1427 
z
" transform="scale(0.015625)"/>
      </defs>
      <use xlink:href="#Cmmi10-78" transform="translate(0 0.084203)"/>
      <use xlink:href="#Cmr10-31" transform="translate(74.724869 41.373437) scale(0.7)"/>
      <use xlink:href="#NotoSansCJKjp-Regular-e6ae" transform="translate(115.445285 0.084203)"/>
      <use xlink:href="#NotoSansCJKjp-Regular-41d7" transform="translate(215.445193 0.084203)"/>
      <use xlink:href="#Cmr10-31" transform="translate(319.449393 41.373437) scale(0.7)"/>
      <use xlink:href="#NotoSansCJKjp-Regular-e6af" transform="translate(360.169808 0.084203)"/>
     </g>
    </g>
   </g>
   <g id="line2d_22">
    <path d="M 315.274482 262.28 
L 321.73506 257.430204 
L 328.195637 252.580408 
L 334.656215 247.730612 
L 341.116792 242.880816 
L 347.57737 238.03102 
L 354.037947 233.181224 
L 360.498525 228.331429 
L 366.959102 223.481633 
L 373.41968 218.631837 
L 379.880257 213.782041 
L 386.340835 208.932245 
L 392.801412 204.082449 
L 399.26199 199.232653 
L 405.722567 194.382857 
L 412.183145 189.533061 
L 418.643722 184.683265 
L 425.1043 179.833469 
L 431.564877 174.983673 
L 438.025455 170.133878 
L 444.486032 165.284082 
L 450.94661 160.434286 
L 457.407187 155.58449 
L 463.867765 150.734694 
L 470.328342 145.884898 
L 476.78892 141.035102 
L 483.249497 136.185306 
L 489.710075 131.33551 
L 496.170653 126.485714 
L 502.63123 121.635918 
L 509.091808 116.786122 
L 515.552385 111.936327 
L 522.012963 107.086531 
L 528.47354 102.236735 
L 534.934118 97.386939 
L 541.394695 92.537143 
L 547.855273 87.687347 
L 554.31585 82.837551 
L 560.776428 77.987755 
L 567.237005 73.137959 
L 573.697583 68.288163 
L 580.15816 63.438367 
L 586.618738 58.588571 
L 593.079315 53.738776 
L 599.539893 48.88898 
L 606.00047 44.039184 
L 612.461048 39.189388 
L 618.921625 34.339592 
L 625.382203 29.489796 
L 631.84278 24.64 
" clip-path="url(#p24a2592829)" style="fill: none; stroke: #1f6feb; stroke-width: 2.2; stroke-linecap: square"/>
   </g>
   <g id="patch_8">
    <path d="M 315.274482 262.28 
L 315.274482 24.64 
" style="fill: none; stroke: #222831; stroke-width: 1.1; stroke-linejoin: miter; stroke-linecap: square"/>
   </g>
   <g id="patch_9">
    <path d="M 315.274482 262.28 
L 631.84278 262.28 
" style="fill: none; stroke: #222831; stroke-width: 1.1; stroke-linejoin: miter; stroke-linecap: square"/>
   </g>
   <g id="text_17">
    <!-- 水 -->
    <g style="fill: #222831" transform="translate(321.294823 272.26473) scale(0.1 -0.1)">
     <defs>
      <path id="NotoSansCJKjp-Regular-59e1" d="M 352 3738 
L 352 3251 
L 2029 3251 
C 1709 1971 1030 1011 186 486 
C 307 416 493 224 576 109 
C 1517 742 2298 1946 2624 3629 
L 2298 3757 
L 2208 3738 
L 352 3738 
z
M 5523 4339 
C 5146 3827 4525 3187 4000 2739 
C 3782 3194 3603 3686 3462 4192 
L 3462 5363 
L 2957 5363 
L 2957 166 
C 2957 45 2912 6 2784 0 
C 2656 -6 2246 -6 1779 6 
C 1856 -134 1952 -378 1978 -518 
C 2573 -518 2938 -499 3155 -416 
C 3373 -326 3462 -173 3462 166 
L 3462 2925 
C 3974 1606 4742 525 5850 -19 
C 5939 122 6099 320 6221 416 
C 5370 787 4704 1485 4205 2349 
C 4762 2790 5453 3462 5965 4026 
L 5523 4339 
z
" transform="scale(0.015625)"/>
     </defs>
     <use xlink:href="#NotoSansCJKjp-Regular-59e1"/>
    </g>
   </g>
   <g id="text_18">
    <!-- 金 -->
    <g style="fill: #222831" transform="translate(321.402473 272.18392) scale(0.1 -0.1)">
     <defs>
      <path id="NotoSansCJKjp-Regular-a10b" d="M 1293 1389 
C 1549 1024 1805 531 1882 211 
L 2298 390 
C 2214 710 1946 1190 1683 1542 
L 1293 1389 
z
M 4646 1555 
C 4480 1197 4186 685 3955 365 
L 4314 211 
C 4557 506 4851 973 5101 1376 
L 4646 1555 
z
M 467 115 
L 467 -307 
L 5939 -307 
L 5939 115 
L 3424 115 
L 3424 1715 
L 5632 1715 
L 5632 2138 
L 3424 2138 
L 3424 2995 
L 4800 2995 
L 4800 3392 
C 5152 3136 5517 2906 5869 2726 
C 5952 2867 6074 3040 6189 3155 
C 5184 3597 4077 4461 3392 5382 
L 2906 5382 
C 2406 4582 1344 3635 237 3078 
C 346 2976 474 2803 538 2694 
C 902 2886 1261 3117 1594 3366 
L 1594 2995 
L 2918 2995 
L 2918 2138 
L 762 2138 
L 762 1715 
L 2918 1715 
L 2918 115 
L 467 115 
z
M 3174 4915 
C 3552 4416 4128 3878 4755 3424 
L 1677 3424 
C 2298 3898 2835 4429 3174 4915 
z
" transform="scale(0.015625)"/>
     </defs>
     <use xlink:href="#NotoSansCJKjp-Regular-a10b"/>
    </g>
   </g>
   <g id="text_19">
    <!-- 地 -->
    <g style="fill: #222831" transform="translate(321.617393 272.022585) scale(0.1 -0.1)">
     <defs>
      <path id="NotoSansCJKjp-Regular-33d0" d="M 2746 4781 
L 2746 3027 
L 2054 2739 
L 2234 2310 
L 2746 2528 
L 2746 506 
C 2746 -192 2957 -365 3693 -365 
C 3859 -365 5094 -365 5274 -365 
C 5939 -365 6099 -83 6170 800 
C 6042 819 5850 896 5741 979 
C 5696 243 5632 70 5254 70 
C 4998 70 3923 70 3712 70 
C 3283 70 3206 141 3206 493 
L 3206 2726 
L 4064 3091 
L 4064 915 
L 4518 915 
L 4518 3283 
L 5414 3667 
C 5414 2637 5402 1926 5370 1773 
C 5338 1626 5280 1600 5178 1600 
C 5114 1600 4902 1600 4749 1613 
C 4806 1504 4845 1318 4864 1190 
C 5043 1190 5299 1190 5466 1242 
C 5658 1286 5779 1402 5818 1664 
C 5862 1914 5875 2874 5875 4077 
L 5901 4166 
L 5562 4294 
L 5472 4224 
L 5376 4134 
L 4518 3776 
L 4518 5376 
L 4064 5376 
L 4064 3584 
L 3206 3226 
L 3206 4781 
L 2746 4781 
z
M 211 986 
L 403 506 
C 966 755 1696 1082 2381 1402 
L 2272 1830 
L 1542 1523 
L 1542 3379 
L 2298 3379 
L 2298 3834 
L 1542 3834 
L 1542 5299 
L 1088 5299 
L 1088 3834 
L 269 3834 
L 269 3379 
L 1088 3379 
L 1088 1331 
C 755 1197 454 1075 211 986 
z
" transform="scale(0.015625)"/>
     </defs>
     <use xlink:href="#NotoSansCJKjp-Regular-33d0"/>
    </g>
   </g>
   <g id="text_20">
    <!-- 火 -->
    <g style="fill: #222831" transform="translate(322.47872 271.376008) scale(0.1 -0.1)">
     <defs>
      <path id="NotoSansCJKjp-Regular-6101" d="M 1286 4077 
C 1190 3366 966 2662 448 2278 
L 864 1997 
C 1434 2432 1651 3213 1766 3974 
L 1286 4077 
z
M 5306 4090 
C 5088 3526 4691 2758 4371 2285 
L 4774 2093 
C 5107 2554 5517 3283 5824 3885 
L 5306 4090 
z
M 3174 5286 
L 2912 5286 
L 2912 3206 
C 2912 2464 2470 704 314 -115 
C 416 -224 576 -416 640 -518 
C 2458 230 3046 1651 3168 2278 
C 3296 1658 3923 186 5779 -518 
C 5850 -384 6003 -186 6106 -77 
C 3885 710 3430 2477 3430 3213 
L 3430 5286 
L 3174 5286 
z
" transform="scale(0.015625)"/>
     </defs>
     <use xlink:href="#NotoSansCJKjp-Regular-6101"/>
    </g>
   </g>
   <g id="text_21">
    <!-- 木 -->
    <g style="fill: #222831" transform="translate(369.490532 236.085403) scale(0.1 -0.1)">
     <defs>
      <path id="NotoSansCJKjp-Regular-5112" d="M 2944 5370 
L 2944 3802 
L 429 3802 
L 429 3322 
L 2720 3322 
C 2144 2208 1165 1114 179 576 
C 294 480 454 294 538 173 
C 1446 723 2330 1709 2944 2803 
L 2944 -512 
L 3450 -512 
L 3450 2810 
C 4077 1747 4960 742 5843 186 
C 5926 320 6093 506 6208 602 
C 5242 1139 4243 2234 3661 3322 
L 5984 3322 
L 5984 3802 
L 3450 3802 
L 3450 5370 
L 2944 5370 
z
" transform="scale(0.015625)"/>
     </defs>
     <use xlink:href="#NotoSansCJKjp-Regular-5112"/>
    </g>
   </g>
   <g id="text_22">
    <!-- 土 -->
    <g style="fill: #222831" transform="translate(622.7681 45.95619) scale(0.1 -0.1)">
     <defs>
      <path id="NotoSansCJKjp-Regular-33bb" d="M 2931 5357 
L 2931 3315 
L 742 3315 
L 742 2848 
L 2931 2848 
L 2931 243 
L 333 243 
L 333 -224 
L 6074 -224 
L 6074 243 
L 3443 243 
L 3443 2848 
L 5664 2848 
L 5664 3315 
L 3443 3315 
L 3443 5357 
L 2931 5357 
z
" transform="scale(0.015625)"/>
     </defs>
     <use xlink:href="#NotoSansCJKjp-Regular-33bb"/>
    </g>
   </g>
   <g id="text_23">
    <!-- $T^{2}=k\,r^{3}$（斜率 $=k$） -->
    <g style="fill: #1f6feb" transform="translate(356.423819 82.089555) scale(0.12 -0.12)">
     <defs>
      <path id="Cmmi10-3e" d="M 341 116 
Q 341 153 347 172 
L 1275 3872 
Q 1300 3981 1306 4044 
Q 1306 4147 891 4147 
Q 825 4147 825 4231 
Q 828 4247 839 4287 
Q 850 4328 867 4350 
Q 884 4372 916 4372 
L 1778 4441 
L 1797 4441 
Q 1797 4434 1819 4423 
Q 1841 4413 1844 4409 
Q 1856 4378 1856 4359 
L 1184 1684 
Q 1416 1781 1767 2145 
Q 2119 2509 2317 2668 
Q 2516 2828 2816 2828 
Q 2994 2828 3119 2706 
Q 3244 2584 3244 2406 
Q 3244 2294 3197 2198 
Q 3150 2103 3065 2043 
Q 2981 1984 2869 1984 
Q 2766 1984 2695 2048 
Q 2625 2113 2625 2216 
Q 2625 2369 2733 2473 
Q 2841 2578 2994 2578 
Q 2931 2663 2803 2663 
Q 2613 2663 2436 2553 
Q 2259 2444 2054 2239 
Q 1850 2034 1681 1864 
Q 1513 1694 1369 1606 
Q 1747 1563 2025 1408 
Q 2303 1253 2303 934 
Q 2303 869 2278 769 
Q 2222 528 2222 384 
Q 2222 97 2419 97 
Q 2650 97 2770 350 
Q 2891 603 2969 941 
Q 2981 978 3022 978 
L 3097 978 
Q 3122 978 3139 962 
Q 3156 947 3156 922 
Q 3156 916 3150 903 
Q 2909 -72 2406 -72 
Q 2225 -72 2086 12 
Q 1947 97 1872 242 
Q 1797 388 1797 569 
Q 1797 672 1825 781 
Q 1844 856 1844 922 
Q 1844 1169 1625 1297 
Q 1406 1425 1125 1453 
L 800 147 
Q 775 50 703 -11 
Q 631 -72 538 -72 
Q 456 -72 398 -17 
Q 341 38 341 116 
z
" transform="scale(0.015625)"/>
      <path id="NotoSansCJKjp-Regular-4e67" d="M 2438 1606 
C 2669 1184 2899 627 2976 275 
L 3373 448 
C 3290 787 3053 1331 2816 1747 
L 2438 1606 
z
M 794 1734 
C 672 1216 454 678 186 314 
C 294 262 480 147 563 77 
C 832 467 1082 1069 1229 1638 
L 794 1734 
z
M 3379 3059 
C 3770 2816 4224 2432 4429 2163 
L 4755 2477 
C 4544 2746 4077 3110 3693 3341 
L 3379 3059 
z
M 3603 4659 
C 3974 4390 4397 3987 4589 3706 
L 4934 4006 
C 4736 4282 4307 4666 3930 4922 
L 3603 4659 
z
M 1581 5376 
C 1318 4768 813 4000 96 3430 
C 198 3360 346 3200 416 3098 
C 557 3213 691 3341 813 3462 
L 813 3232 
L 1664 3232 
L 1664 2541 
L 326 2541 
L 326 2106 
L 1664 2106 
L 1664 26 
C 1664 -58 1638 -77 1555 -83 
C 1472 -83 1210 -83 915 -77 
C 979 -205 1050 -390 1069 -518 
C 1485 -518 1741 -506 1901 -429 
C 2067 -358 2125 -230 2125 19 
L 2125 2106 
L 3283 2106 
L 3283 2541 
L 2125 2541 
L 2125 3232 
L 2957 3232 
L 2957 3661 
L 998 3661 
C 1376 4083 1664 4518 1875 4896 
C 2291 4538 2746 4026 2970 3699 
L 3334 4090 
C 3053 4461 2496 4998 2042 5376 
L 1581 5376 
z
M 3290 1331 
L 3392 883 
L 5069 1242 
L 5069 -499 
L 5542 -499 
L 5542 1344 
L 6227 1491 
L 6131 1933 
L 5542 1811 
L 5542 5370 
L 5069 5370 
L 5069 1709 
L 3290 1331 
z
" transform="scale(0.015625)"/>
      <path id="NotoSansCJKjp-Regular-66cd" d="M 5376 4038 
C 5139 3782 4704 3437 4384 3226 
L 4736 3014 
C 5056 3226 5472 3520 5798 3821 
L 5376 4038 
z
M 320 1997 
L 557 1613 
C 986 1798 1517 2048 2022 2291 
L 1933 2656 
C 1338 2406 730 2150 320 1997 
z
M 544 3680 
C 902 3482 1344 3174 1555 2957 
L 1888 3258 
C 1670 3469 1222 3757 864 3949 
L 544 3680 
z
M 4262 2458 
C 4768 2202 5408 1811 5715 1542 
L 6067 1850 
C 5734 2112 5094 2490 4595 2733 
L 4262 2458 
z
M 3526 2707 
C 3654 2566 3782 2400 3904 2227 
L 2810 2176 
C 3264 2618 3763 3168 4147 3642 
L 3770 3827 
C 3590 3571 3347 3270 3091 2976 
C 2957 3098 2784 3226 2598 3347 
C 2810 3578 3046 3878 3251 4154 
L 3110 4211 
L 5882 4211 
L 5882 4659 
L 3424 4659 
L 3424 5376 
L 2938 5376 
L 2938 4659 
L 538 4659 
L 538 4211 
L 2771 4211 
C 2643 4000 2470 3750 2310 3546 
L 2131 3654 
L 1894 3373 
C 2202 3174 2579 2906 2822 2682 
C 2650 2490 2470 2310 2304 2150 
L 1811 2131 
L 1882 1715 
L 4128 1882 
C 4211 1747 4275 1626 4320 1517 
L 4691 1709 
C 4550 2035 4192 2515 3872 2874 
L 3526 2707 
z
M 346 1222 
L 346 774 
L 2938 774 
L 2938 -531 
L 3424 -531 
L 3424 774 
L 6061 774 
L 6061 1222 
L 3424 1222 
L 3424 1722 
L 2938 1722 
L 2938 1222 
L 346 1222 
z
" transform="scale(0.015625)"/>
      <path id="NotoSansCJKjp-Regular-1" transform="scale(0.015625)"/>
     </defs>
     <use xlink:href="#Cmmi10-78" transform="translate(0 0.084203)"/>
     <use xlink:href="#Cmr10-31" transform="translate(74.724869 41.373437) scale(0.7)"/>
     <use xlink:href="#Cmr10-29" transform="translate(135.445342 0.084203)"/>
     <use xlink:href="#Cmmi10-3e" transform="translate(233.130946 0.084203)"/>
     <use xlink:href="#Cmmi10-84" transform="translate(301.799947 0.084203)"/>
     <use xlink:href="#Cmr10-6e" transform="translate(358.177316 41.373437) scale(0.7)"/>
     <use xlink:href="#NotoSansCJKjp-Regular-e6ae" transform="translate(398.897732 0.084203)"/>
     <use xlink:href="#NotoSansCJKjp-Regular-4e67" transform="translate(498.89764 0.084203)"/>
     <use xlink:href="#NotoSansCJKjp-Regular-66cd" transform="translate(598.897549 0.084203)"/>
     <use xlink:href="#NotoSansCJKjp-Regular-1" transform="translate(698.897457 0.084203)"/>
     <use xlink:href="#Cmr10-29" transform="translate(741.297493 0.084203)"/>
     <use xlink:href="#Cmmi10-3e" transform="translate(838.983097 0.084203)"/>
     <use xlink:href="#NotoSansCJKjp-Regular-e6af" transform="translate(890.98505 0.084203)"/>
    </g>
   </g>
   <g id="text_24">
    <!-- 太陽系：$T^{2}$ 正比於 $r^{3}$ -->
    <g style="fill: #222831" transform="translate(411.288631 18.64) scale(0.13 -0.13)">
     <defs>
      <path id="NotoSansCJKjp-Regular-3700" d="M 2458 928 
C 2912 544 3469 -6 3725 -365 
L 4154 -26 
C 3885 320 3315 851 2861 1210 
L 2458 928 
z
M 2893 5370 
C 2886 4883 2893 4294 2822 3674 
L 390 3674 
L 390 3187 
L 2752 3187 
C 2522 1914 1907 602 230 -115 
C 365 -218 518 -384 595 -512 
C 2285 256 2950 1613 3219 2950 
C 3706 1350 4538 102 5850 -525 
C 5926 -384 6086 -186 6208 -83 
C 4928 467 4083 1690 3642 3187 
L 6042 3187 
L 6042 3674 
L 3334 3674 
C 3398 4288 3405 4877 3411 5370 
L 2893 5370 
z
" transform="scale(0.015625)"/>
      <path id="NotoSansCJKjp-Regular-a8ca" d="M 3290 3917 
L 5165 3917 
L 5165 3405 
L 3290 3405 
L 3290 3917 
z
M 3290 4755 
L 5165 4755 
L 5165 4262 
L 3290 4262 
L 3290 4755 
z
M 2848 5120 
L 2848 3040 
L 5632 3040 
L 5632 5120 
L 2848 5120 
z
M 2285 2656 
L 2285 2259 
L 3130 2259 
C 2874 1722 2470 1267 1997 960 
C 2086 883 2246 736 2310 653 
C 2586 858 2854 1114 3085 1414 
L 3622 1414 
C 3302 806 2797 275 2246 -77 
C 2336 -147 2477 -307 2534 -390 
C 3136 38 3712 678 4064 1414 
L 4608 1414 
C 4378 749 3981 166 3488 -218 
C 3584 -282 3738 -429 3808 -493 
C 4333 -45 4774 634 5037 1414 
L 5466 1414 
C 5408 435 5325 51 5229 -58 
C 5184 -109 5133 -122 5050 -122 
C 4966 -122 4774 -115 4557 -96 
C 4614 -205 4659 -378 4672 -499 
C 4896 -518 5126 -512 5254 -499 
C 5402 -486 5504 -448 5600 -339 
C 5754 -160 5843 320 5920 1613 
C 5926 1677 5939 1805 5939 1805 
L 3347 1805 
C 3437 1952 3514 2099 3584 2259 
L 6150 2259 
L 6150 2656 
L 2285 2656 
z
M 518 5101 
L 518 -512 
L 947 -512 
L 947 4666 
L 1786 4666 
C 1651 4230 1459 3648 1274 3181 
C 1734 2682 1856 2253 1856 1901 
C 1856 1709 1818 1536 1722 1466 
C 1670 1427 1600 1414 1517 1408 
C 1414 1402 1293 1408 1146 1414 
C 1216 1293 1261 1107 1267 992 
C 1408 986 1568 992 1696 1005 
C 1830 1018 1939 1056 2029 1120 
C 2208 1242 2285 1510 2285 1856 
C 2285 2253 2176 2707 1709 3238 
C 1926 3750 2163 4403 2349 4934 
L 2035 5120 
L 1965 5101 
L 518 5101 
z
" transform="scale(0.015625)"/>
      <path id="NotoSansCJKjp-Regular-784c" d="M 1715 1222 
C 1363 749 787 262 243 -51 
C 371 -128 582 -288 678 -378 
C 1197 -32 1805 512 2208 1043 
L 1715 1222 
z
M 4109 986 
C 4666 582 5350 -6 5677 -371 
L 6093 -64 
C 5741 301 5037 864 4493 1248 
L 4109 986 
z
M 5286 5286 
C 4179 5062 2208 4928 557 4883 
C 602 4768 659 4576 672 4448 
C 1235 4461 1843 4486 2445 4525 
C 2195 4198 1882 3840 1594 3565 
L 1158 3827 
L 832 3533 
C 1344 3232 1939 2790 2310 2445 
C 2125 2291 1933 2150 1760 2016 
L 358 2003 
L 403 1517 
L 2938 1581 
L 2938 -512 
L 3443 -512 
L 3443 1594 
L 5293 1645 
C 5466 1459 5613 1286 5715 1139 
L 6138 1427 
C 5811 1862 5126 2509 4563 2957 
L 4173 2707 
C 4403 2522 4646 2298 4883 2074 
L 2464 2029 
C 3226 2618 4083 3398 4730 4077 
L 4269 4326 
C 3853 3846 3270 3270 2682 2765 
C 2490 2938 2227 3136 1952 3328 
C 2317 3661 2739 4122 3072 4525 
L 3002 4563 
C 3974 4634 4915 4736 5632 4877 
L 5286 5286 
z
" transform="scale(0.015625)"/>
      <path id="NotoSansCJKjp-Regular-585c" d="M 1203 3264 
L 1203 243 
L 333 243 
L 333 -224 
L 6080 -224 
L 6080 243 
L 3616 243 
L 3616 2259 
L 5619 2259 
L 5619 2726 
L 3616 2726 
L 3616 4435 
L 5869 4435 
L 5869 4909 
L 576 4909 
L 576 4435 
L 3110 4435 
L 3110 243 
L 1696 243 
L 1696 3264 
L 1203 3264 
z
" transform="scale(0.015625)"/>
      <path id="NotoSansCJKjp-Regular-5942" d="M 250 128 
L 397 -371 
C 1197 -179 2278 77 3290 326 
L 3245 787 
C 2694 659 2125 525 1600 410 
L 1600 2925 
L 3046 2925 
L 3046 3398 
L 1600 3398 
L 1600 5344 
L 1107 5344 
L 1107 301 
L 250 128 
z
M 3520 5344 
L 3520 512 
C 3520 -186 3693 -371 4320 -371 
C 4448 -371 5261 -371 5395 -371 
C 6003 -371 6138 -13 6202 1037 
C 6061 1069 5869 1152 5747 1248 
C 5709 320 5670 83 5370 83 
C 5190 83 4506 83 4371 83 
C 4064 83 4013 147 4013 499 
L 4013 2586 
C 4691 2874 5414 3219 5952 3571 
L 5594 3974 
C 5216 3674 4608 3328 4013 3046 
L 4013 5344 
L 3520 5344 
z
" transform="scale(0.015625)"/>
      <path id="NotoSansCJKjp-Regular-4ea4" d="M 4454 4826 
C 4749 4013 5318 3130 5958 2605 
C 6029 2752 6125 2944 6214 3066 
C 5606 3507 5011 4435 4678 5370 
L 4186 5370 
C 3942 4506 3379 3533 2739 3027 
C 2822 2918 2938 2726 2982 2592 
C 3642 3130 4192 4045 4454 4826 
z
M 3757 2605 
C 4198 2323 4704 1907 4934 1606 
L 5274 1952 
C 5030 2246 4506 2643 4070 2906 
L 3757 2605 
z
M 3238 870 
C 4019 512 4960 -77 5408 -512 
L 5715 -96 
C 5261 339 4301 896 3526 1242 
L 3238 870 
z
M 1414 5363 
L 1414 4333 
L 282 4333 
L 282 3878 
L 986 3878 
C 960 2234 890 672 186 -198 
C 307 -275 474 -429 550 -538 
C 1126 186 1331 1299 1408 2554 
L 2234 2554 
C 2195 774 2144 147 2035 6 
C 1990 -70 1933 -83 1843 -83 
C 1741 -83 1504 -83 1235 -58 
C 1306 -179 1357 -371 1363 -499 
C 1632 -512 1901 -512 2061 -499 
C 2227 -480 2342 -435 2445 -288 
C 2611 -70 2650 653 2694 2778 
C 2701 2842 2701 3002 2701 3002 
L 1427 3002 
L 1453 3878 
L 3008 3878 
L 3008 4333 
L 1894 4333 
L 1894 5363 
L 1414 5363 
z
" transform="scale(0.015625)"/>
     </defs>
     <use xlink:href="#NotoSansCJKjp-Regular-3700" transform="translate(0 0.084203)"/>
     <use xlink:href="#NotoSansCJKjp-Regular-a8ca" transform="translate(99.999908 0.084203)"/>
     <use xlink:href="#NotoSansCJKjp-Regular-784c" transform="translate(199.999817 0.084203)"/>
     <use xlink:href="#NotoSansCJKjp-Regular-e6c0" transform="translate(299.999725 0.084203)"/>
     <use xlink:href="#Cmmi10-78" transform="translate(399.999634 0.084203)"/>
     <use xlink:href="#Cmr10-31" transform="translate(474.724503 41.373437) scale(0.7)"/>
     <use xlink:href="#NotoSansCJKjp-Regular-1" transform="translate(515.444919 0.084203)"/>
     <use xlink:href="#NotoSansCJKjp-Regular-585c" transform="translate(537.844897 0.084203)"/>
     <use xlink:href="#NotoSansCJKjp-Regular-5942" transform="translate(637.844806 0.084203)"/>
     <use xlink:href="#NotoSansCJKjp-Regular-4ea4" transform="translate(737.844714 0.084203)"/>
     <use xlink:href="#NotoSansCJKjp-Regular-1" transform="translate(837.844623 0.084203)"/>
     <use xlink:href="#Cmmi10-84" transform="translate(860.244601 0.084203)"/>
     <use xlink:href="#Cmr10-6e" transform="translate(916.621971 41.373437) scale(0.7)"/>
    </g>
   </g>
   <g id="line2d_23">
    <defs>
     <path id="m512c0a2d83" d="M 0 4 
C 1.060812 4 2.078319 3.578535 2.828427 2.828427 
C 3.578535 2.078319 4 1.060812 4 0 
C 4 -1.060812 3.578535 -2.078319 2.828427 -2.828427 
C 2.078319 -3.578535 1.060812 -4 0 -4 
C -1.060812 -4 -2.078319 -3.578535 -2.828427 -2.828427 
C -3.578535 -2.078319 -4 -1.060812 -4 0 
C -4 1.060812 -3.578535 2.078319 -2.828427 2.828427 
C -2.078319 3.578535 -1.060812 4 0 4 
z
" style="stroke: #d1242f"/>
    </defs>
    <g clip-path="url(#p24a2592829)">
     <use xlink:href="#m512c0a2d83" x="315.294823" y="262.26473" style="fill: #d1242f; stroke: #d1242f"/>
     <use xlink:href="#m512c0a2d83" x="315.402473" y="262.18392" style="fill: #d1242f; stroke: #d1242f"/>
     <use xlink:href="#m512c0a2d83" x="315.617393" y="262.022585" style="fill: #d1242f; stroke: #d1242f"/>
     <use xlink:href="#m512c0a2d83" x="316.47872" y="261.376008" style="fill: #d1242f; stroke: #d1242f"/>
     <use xlink:href="#m512c0a2d83" x="363.490532" y="226.085403" style="fill: #d1242f; stroke: #d1242f"/>
     <use xlink:href="#m512c0a2d83" x="616.7681" y="35.95619" style="fill: #d1242f; stroke: #d1242f"/>
    </g>
   </g>
  </g>
 </g>
 <defs>
  <clipPath id="p49f43b2247">
   <rect x="7.2" y="24.64" width="215.221132" height="237.64"/>
  </clipPath>
  <clipPath id="p24a2592829">
   <rect x="315.274482" y="24.64" width="316.568298" height="237.64"/>
  </clipPath>
 </defs>
</svg>
