<?xml version="1.0" encoding="utf-8" standalone="no"?>
<!DOCTYPE svg PUBLIC "-//W3C//DTD SVG 1.1//EN"
  "http://www.w3.org/Graphics/SVG/1.1/DTD/svg11.dtd">
<svg xmlns:xlink="http://www.w3.org/1999/xlink" width="442.88pt" height="328.196pt" viewBox="0 0 442.88 328.196" xmlns="http://www.w3.org/2000/svg" version="1.1">
 <metadata>
  <rdf:RDF xmlns:dc="http://purl.org/dc/elements/1.1/" xmlns:cc="http://creativecommons.org/ns#" xmlns:rdf="http://www.w3.org/1999/02/22-rdf-syntax-ns#">
   <cc:Work>
    <dc:type rdf:resource="http://purl.org/dc/dcmitype/StillImage"/>
    <dc:date>2026-06-17T23:23:44.113580</dc:date>
    <dc:format>image/svg+xml</dc:format>
    <dc:creator>
     <cc:Agent>
      <dc:title>Matplotlib v3.11.0, https://matplotlib.org/</dc:title>
     </cc:Agent>
    </dc:creator>
   </cc:Work>
  </rdf:RDF>
 </metadata>
 <defs>
  <style type="text/css">*{stroke-linejoin: round; stroke-linecap: butt}</style>
 </defs>
 <g id="figure_1">
  <g id="patch_1">
   <path d="M 0 328.196 
L 442.88 328.196 
L 442.88 0 
L 0 0 
z
" style="fill: #ffffff"/>
  </g>
  <g id="axes_1">
   <g id="patch_2">
    <path d="M 45.08 285.996 
L 435.68 285.996 
L 435.68 42.06 
L 45.08 42.06 
z
" style="fill: #ffffff"/>
   </g>
   <g id="matplotlib.axis_1">
    <g id="xtick_1">
     <g id="line2d_1">
      <path d="M 45.08 285.996 
L 45.08 42.06 
" clip-path="url(#p3fadcb45b3)" style="fill: none; stroke: #d8dde3; stroke-width: 0.9; stroke-linecap: square"/>
     </g>
     <g id="line2d_2">
      <defs>
       <path id="m7951cd021d" d="M 0 0 
L 0 3.5 
" style="stroke: #222831; stroke-width: 0.8"/>
      </defs>
      <g>
       <use xlink:href="#m7951cd021d" x="45.08" y="285.996" style="fill: #222831; stroke: #222831; stroke-width: 0.8"/>
      </g>
     </g>
     <g id="text_1">
      <!-- 0 -->
      <g style="fill: #222831" transform="translate(41.75 303.556) scale(0.12 -0.12)">
       <defs>
        <path id="NotoSansCJKjp-Regular-11" d="M 1779 -83 
C 2669 -83 3238 723 3238 2362 
C 3238 3987 2669 4774 1779 4774 
C 883 4774 320 3987 320 2362 
C 320 723 883 -83 1779 -83 
z
M 1779 390 
C 1248 390 883 986 883 2362 
C 883 3731 1248 4314 1779 4314 
C 2310 4314 2675 3731 2675 2362 
C 2675 986 2310 390 1779 390 
z
" transform="scale(0.015625)"/>
       </defs>
       <use xlink:href="#NotoSansCJKjp-Regular-11"/>
      </g>
     </g>
    </g>
    <g id="xtick_2">
     <g id="line2d_3">
      <path d="M 106.11125 285.996 
L 106.11125 42.06 
" clip-path="url(#p3fadcb45b3)" style="fill: none; stroke: #d8dde3; stroke-width: 0.9; stroke-linecap: square"/>
     </g>
     <g id="line2d_4">
      <g>
       <use xlink:href="#m7951cd021d" x="106.11125" y="285.996" style="fill: #222831; stroke: #222831; stroke-width: 0.8"/>
      </g>
     </g>
     <g id="text_2">
      <!-- 5 -->
      <g style="fill: #222831" transform="translate(102.78125 303.556) scale(0.12 -0.12)">
       <defs>
        <path id="NotoSansCJKjp-Regular-16" d="M 1677 -83 
C 2464 -83 3213 499 3213 1523 
C 3213 2560 2573 3021 1798 3021 
C 1517 3021 1306 2950 1094 2835 
L 1216 4192 
L 2982 4192 
L 2982 4691 
L 704 4691 
L 550 2502 
L 864 2304 
C 1133 2483 1331 2579 1645 2579 
C 2234 2579 2618 2182 2618 1510 
C 2618 826 2176 403 1619 403 
C 1075 403 730 653 467 922 
L 173 538 
C 493 224 941 -83 1677 -83 
z
" transform="scale(0.015625)"/>
       </defs>
       <use xlink:href="#NotoSansCJKjp-Regular-16"/>
      </g>
     </g>
    </g>
    <g id="xtick_3">
     <g id="line2d_5">
      <path d="M 167.1425 285.996 
L 167.1425 42.06 
" clip-path="url(#p3fadcb45b3)" style="fill: none; stroke: #d8dde3; stroke-width: 0.9; stroke-linecap: square"/>
     </g>
     <g id="line2d_6">
      <g>
       <use xlink:href="#m7951cd021d" x="167.1425" y="285.996" style="fill: #222831; stroke: #222831; stroke-width: 0.8"/>
      </g>
     </g>
     <g id="text_3">
      <!-- 10 -->
      <g style="fill: #222831" transform="translate(160.4825 303.556) scale(0.12 -0.12)">
       <defs>
        <path id="NotoSansCJKjp-Regular-12" d="M 563 0 
L 3136 0 
L 3136 486 
L 2195 486 
L 2195 4691 
L 1747 4691 
C 1491 4544 1190 4435 774 4358 
L 774 3987 
L 1613 3987 
L 1613 486 
L 563 486 
L 563 0 
z
" transform="scale(0.015625)"/>
       </defs>
       <use xlink:href="#NotoSansCJKjp-Regular-12"/>
       <use xlink:href="#NotoSansCJKjp-Regular-11" transform="translate(55.5 0)"/>
      </g>
     </g>
    </g>
    <g id="xtick_4">
     <g id="line2d_7">
      <path d="M 228.17375 285.996 
L 228.17375 42.06 
" clip-path="url(#p3fadcb45b3)" style="fill: none; stroke: #d8dde3; stroke-width: 0.9; stroke-linecap: square"/>
     </g>
     <g id="line2d_8">
      <g>
       <use xlink:href="#m7951cd021d" x="228.17375" y="285.996" style="fill: #222831; stroke: #222831; stroke-width: 0.8"/>
      </g>
     </g>
     <g id="text_4">
      <!-- 15 -->
      <g style="fill: #222831" transform="translate(221.51375 303.556) scale(0.12 -0.12)">
       <use xlink:href="#NotoSansCJKjp-Regular-12"/>
       <use xlink:href="#NotoSansCJKjp-Regular-16" transform="translate(55.5 0)"/>
      </g>
     </g>
    </g>
    <g id="xtick_5">
     <g id="line2d_9">
      <path d="M 289.205 285.996 
L 289.205 42.06 
" clip-path="url(#p3fadcb45b3)" style="fill: none; stroke: #d8dde3; stroke-width: 0.9; stroke-linecap: square"/>
     </g>
     <g id="line2d_10">
      <g>
       <use xlink:href="#m7951cd021d" x="289.205" y="285.996" style="fill: #222831; stroke: #222831; stroke-width: 0.8"/>
      </g>
     </g>
     <g id="text_5">
      <!-- 20 -->
      <g style="fill: #222831" transform="translate(282.545 303.556) scale(0.12 -0.12)">
       <defs>
        <path id="NotoSansCJKjp-Regular-13" d="M 282 0 
L 3232 0 
L 3232 506 
L 1933 506 
C 1696 506 1408 480 1165 461 
C 2266 1504 3008 2458 3008 3398 
C 3008 4230 2477 4774 1638 4774 
C 1043 4774 634 4506 256 4090 
L 595 3757 
C 858 4070 1184 4301 1568 4301 
C 2150 4301 2432 3910 2432 3373 
C 2432 2566 1754 1632 282 346 
L 282 0 
z
" transform="scale(0.015625)"/>
       </defs>
       <use xlink:href="#NotoSansCJKjp-Regular-13"/>
       <use xlink:href="#NotoSansCJKjp-Regular-11" transform="translate(55.5 0)"/>
      </g>
     </g>
    </g>
    <g id="xtick_6">
     <g id="line2d_11">
      <path d="M 350.23625 285.996 
L 350.23625 42.06 
" clip-path="url(#p3fadcb45b3)" style="fill: none; stroke: #d8dde3; stroke-width: 0.9; stroke-linecap: square"/>
     </g>
     <g id="line2d_12">
      <g>
       <use xlink:href="#m7951cd021d" x="350.23625" y="285.996" style="fill: #222831; stroke: #222831; stroke-width: 0.8"/>
      </g>
     </g>
     <g id="text_6">
      <!-- 25 -->
      <g style="fill: #222831" transform="translate(343.57625 303.556) scale(0.12 -0.12)">
       <use xlink:href="#NotoSansCJKjp-Regular-13"/>
       <use xlink:href="#NotoSansCJKjp-Regular-16" transform="translate(55.5 0)"/>
      </g>
     </g>
    </g>
    <g id="xtick_7">
     <g id="line2d_13">
      <path d="M 411.2675 285.996 
L 411.2675 42.06 
" clip-path="url(#p3fadcb45b3)" style="fill: none; stroke: #d8dde3; stroke-width: 0.9; stroke-linecap: square"/>
     </g>
     <g id="line2d_14">
      <g>
       <use xlink:href="#m7951cd021d" x="411.2675" y="285.996" style="fill: #222831; stroke: #222831; stroke-width: 0.8"/>
      </g>
     </g>
     <g id="text_7">
      <!-- 30 -->
      <g style="fill: #222831" transform="translate(404.6075 303.556) scale(0.12 -0.12)">
       <defs>
        <path id="NotoSansCJKjp-Regular-14" d="M 1683 -83 
C 2522 -83 3194 416 3194 1254 
C 3194 1901 2752 2310 2202 2445 
L 2202 2477 
C 2701 2650 3034 3034 3034 3603 
C 3034 4346 2458 4774 1664 4774 
C 1126 4774 710 4538 358 4218 
L 672 3846 
C 941 4115 1267 4301 1645 4301 
C 2138 4301 2438 4006 2438 3558 
C 2438 3053 2112 2662 1139 2662 
L 1139 2214 
C 2227 2214 2598 1843 2598 1274 
C 2598 736 2208 403 1645 403 
C 1114 403 762 659 486 941 
L 186 563 
C 493 224 954 -83 1683 -83 
z
" transform="scale(0.015625)"/>
       </defs>
       <use xlink:href="#NotoSansCJKjp-Regular-14"/>
       <use xlink:href="#NotoSansCJKjp-Regular-11" transform="translate(55.5 0)"/>
      </g>
     </g>
    </g>
    <g id="text_8">
     <!-- 離地表高度 $h$（$\times10^{6}$ m，地球半徑約 6.37） -->
     <g style="fill: #222831" transform="translate(124.28 319.556) scale(0.12 -0.12)">
      <defs>
       <path id="NotoSansCJKjp-Regular-a995" d="M 1587 5376 
L 1587 4826 
L 275 4826 
L 275 4429 
L 3373 4429 
L 3373 4826 
L 2054 4826 
L 2054 5376 
L 1587 5376 
z
M 5203 5312 
C 5126 4973 4979 4499 4838 4154 
L 4147 4154 
C 4288 4512 4416 4896 4518 5274 
L 4083 5376 
C 3859 4493 3501 3603 3066 3002 
L 3066 4166 
L 2688 4166 
L 2688 2739 
L 934 2739 
L 934 4166 
L 582 4166 
L 582 2387 
L 1587 2387 
L 1530 1958 
L 403 1958 
L 403 -518 
L 806 -518 
L 806 1587 
L 1466 1587 
C 1414 1286 1350 986 1293 742 
L 960 730 
L 998 378 
L 2342 480 
C 2381 371 2406 269 2426 179 
L 2720 282 
C 2675 557 2496 998 2310 1331 
L 2029 1248 
C 2099 1107 2170 954 2234 800 
L 1645 762 
C 1715 1005 1779 1293 1843 1587 
L 2822 1587 
L 2822 -45 
C 2822 -115 2803 -128 2726 -134 
C 2650 -141 2400 -141 2118 -134 
C 2170 -237 2234 -397 2253 -506 
C 2637 -506 2880 -506 3040 -442 
C 3194 -371 3238 -256 3238 -51 
L 3238 1958 
L 1920 1958 
L 2003 2387 
L 3066 2387 
L 3066 2912 
C 3168 2835 3315 2714 3379 2650 
C 3475 2784 3571 2938 3661 3098 
L 3661 -518 
L 4102 -518 
L 4102 -179 
L 6157 -179 
L 6157 262 
L 5261 262 
L 5261 1152 
L 6035 1152 
L 6035 1568 
L 5261 1568 
L 5261 2445 
L 6035 2445 
L 6035 2854 
L 5261 2854 
L 5261 3718 
L 6093 3718 
L 6093 4154 
L 5267 4154 
C 5402 4467 5542 4858 5664 5203 
L 5203 5312 
z
M 2099 4262 
C 2022 4090 1926 3917 1818 3763 
C 1645 3872 1472 3974 1306 4058 
L 1107 3834 
C 1274 3744 1453 3635 1619 3520 
C 1446 3315 1248 3142 1037 2995 
C 1120 2944 1254 2835 1306 2771 
C 1510 2925 1709 3110 1888 3328 
C 2080 3187 2246 3046 2362 2925 
L 2573 3181 
C 2458 3302 2285 3437 2086 3578 
C 2221 3770 2342 3968 2438 4179 
L 2099 4262 
z
M 4102 2445 
L 4845 2445 
L 4845 1568 
L 4102 1568 
L 4102 2445 
z
M 4102 2854 
L 4102 3718 
L 4845 3718 
L 4845 2854 
L 4102 2854 
z
M 4102 1152 
L 4845 1152 
L 4845 262 
L 4102 262 
L 4102 1152 
z
" transform="scale(0.015625)"/>
       <path id="NotoSansCJKjp-Regular-33d0" d="M 2746 4781 
L 2746 3027 
L 2054 2739 
L 2234 2310 
L 2746 2528 
L 2746 506 
C 2746 -192 2957 -365 3693 -365 
C 3859 -365 5094 -365 5274 -365 
C 5939 -365 6099 -83 6170 800 
C 6042 819 5850 896 5741 979 
C 5696 243 5632 70 5254 70 
C 4998 70 3923 70 3712 70 
C 3283 70 3206 141 3206 493 
L 3206 2726 
L 4064 3091 
L 4064 915 
L 4518 915 
L 4518 3283 
L 5414 3667 
C 5414 2637 5402 1926 5370 1773 
C 5338 1626 5280 1600 5178 1600 
C 5114 1600 4902 1600 4749 1613 
C 4806 1504 4845 1318 4864 1190 
C 5043 1190 5299 1190 5466 1242 
C 5658 1286 5779 1402 5818 1664 
C 5862 1914 5875 2874 5875 4077 
L 5901 4166 
L 5562 4294 
L 5472 4224 
L 5376 4134 
L 4518 3776 
L 4518 5376 
L 4064 5376 
L 4064 3584 
L 3206 3226 
L 3206 4781 
L 2746 4781 
z
M 211 986 
L 403 506 
C 966 755 1696 1082 2381 1402 
L 2272 1830 
L 1542 1523 
L 1542 3379 
L 2298 3379 
L 2298 3834 
L 1542 3834 
L 1542 5299 
L 1088 5299 
L 1088 3834 
L 269 3834 
L 269 3379 
L 1088 3379 
L 1088 1331 
C 755 1197 454 1075 211 986 
z
" transform="scale(0.015625)"/>
       <path id="NotoSansCJKjp-Regular-8f90" d="M 896 -64 
L 1050 -512 
C 1811 -320 2912 -45 3923 224 
L 3872 653 
L 2272 256 
L 2272 1715 
C 2637 1946 2970 2208 3232 2470 
C 3680 1005 4512 -26 5875 -493 
C 5946 -358 6086 -166 6195 -70 
C 5472 147 4896 538 4461 1062 
C 4896 1312 5421 1664 5824 1990 
L 5446 2285 
C 5133 1997 4640 1638 4224 1376 
C 4000 1709 3821 2086 3686 2502 
L 5997 2502 
L 5997 2918 
L 3430 2918 
L 3430 3501 
L 5523 3501 
L 5523 3898 
L 3430 3898 
L 3430 4422 
L 5773 4422 
L 5773 4845 
L 3430 4845 
L 3430 5376 
L 2944 5376 
L 2944 4845 
L 640 4845 
L 640 4422 
L 2944 4422 
L 2944 3898 
L 928 3898 
L 928 3501 
L 2944 3501 
L 2944 2918 
L 403 2918 
L 403 2502 
L 2630 2502 
C 1990 1971 1024 1491 179 1254 
C 282 1152 422 979 493 858 
C 909 998 1363 1197 1798 1434 
L 1798 141 
L 896 -64 
z
" transform="scale(0.015625)"/>
       <path id="NotoSansCJKjp-Regular-b0d5" d="M 1939 3635 
L 4448 3635 
L 4448 3021 
L 1939 3021 
L 1939 3635 
z
M 1478 3987 
L 1478 2662 
L 4928 2662 
L 4928 3987 
L 1478 3987 
z
M 2918 5382 
L 2918 4768 
L 416 4768 
L 416 4346 
L 5978 4346 
L 5978 4768 
L 3411 4768 
L 3411 5382 
L 2918 5382 
z
M 704 2266 
L 704 -512 
L 1171 -512 
L 1171 1856 
L 5261 1856 
L 5261 70 
C 5261 -19 5235 -45 5120 -51 
C 5018 -58 4653 -58 4237 -45 
C 4301 -179 4371 -365 4390 -499 
C 4922 -499 5267 -499 5478 -422 
C 5683 -346 5741 -205 5741 64 
L 5741 2266 
L 704 2266 
z
M 2406 1088 
L 3994 1088 
L 3994 435 
L 2406 435 
L 2406 1088 
z
M 1984 1440 
L 1984 -243 
L 2406 -243 
L 2406 83 
L 4422 83 
L 4422 1440 
L 1984 1440 
z
" transform="scale(0.015625)"/>
       <path id="NotoSansCJKjp-Regular-4231" d="M 2470 4141 
L 2470 3584 
L 1440 3584 
L 1440 3187 
L 2470 3187 
L 2470 2125 
L 4960 2125 
L 4960 3187 
L 5997 3187 
L 5997 3584 
L 4960 3584 
L 4960 4141 
L 4486 4141 
L 4486 3584 
L 2931 3584 
L 2931 4141 
L 2470 4141 
z
M 4486 3187 
L 4486 2509 
L 2931 2509 
L 2931 3187 
L 4486 3187 
z
M 4851 1318 
C 4582 986 4211 717 3770 506 
C 3334 723 2970 992 2720 1318 
L 4851 1318 
z
M 1530 1715 
L 1530 1318 
L 2502 1318 
L 2259 1222 
C 2515 858 2861 550 3270 301 
C 2662 90 1978 -38 1280 -109 
C 1357 -211 1453 -397 1485 -512 
C 2291 -416 3072 -243 3757 45 
C 4365 -237 5088 -422 5869 -525 
C 5933 -403 6048 -211 6150 -109 
C 5466 -38 4819 96 4269 294 
C 4813 608 5261 1024 5549 1574 
L 5248 1734 
L 5165 1715 
L 1530 1715 
z
M 774 4742 
L 774 2893 
C 774 1965 730 659 198 -256 
C 314 -307 512 -435 595 -518 
C 1152 448 1235 1901 1235 2893 
L 1235 4307 
L 6035 4307 
L 6035 4742 
L 3635 4742 
L 3635 5376 
L 3142 5376 
L 3142 4742 
L 774 4742 
z
" transform="scale(0.015625)"/>
       <path id="NotoSansCJKjp-Regular-1" transform="scale(0.015625)"/>
       <path id="Cmmi10-5f" d="M 341 116 
Q 341 153 347 172 
L 1275 3872 
Q 1300 3981 1306 4044 
Q 1306 4147 891 4147 
Q 825 4147 825 4231 
Q 828 4247 839 4287 
Q 850 4328 867 4350 
Q 884 4372 916 4372 
L 1778 4441 
L 1797 4441 
Q 1797 4434 1819 4423 
Q 1841 4413 1844 4409 
Q 1856 4378 1856 4359 
L 1356 2363 
Q 1750 2828 2291 2828 
Q 2516 2828 2680 2750 
Q 2844 2672 2936 2514 
Q 3028 2356 3028 2138 
Q 3028 1875 2911 1503 
Q 2794 1131 2619 672 
Q 2528 463 2528 288 
Q 2528 97 2675 97 
Q 2925 97 3092 364 
Q 3259 631 3328 941 
Q 3341 978 3378 978 
L 3456 978 
Q 3481 978 3497 961 
Q 3513 944 3513 922 
Q 3513 916 3506 903 
Q 3450 672 3339 448 
Q 3228 225 3059 76 
Q 2891 -72 2663 -72 
Q 2438 -72 2278 83 
Q 2119 238 2119 459 
Q 2119 578 2169 709 
Q 2350 1191 2470 1569 
Q 2591 1947 2591 2234 
Q 2591 2419 2519 2541 
Q 2447 2663 2278 2663 
Q 1934 2663 1678 2452 
Q 1422 2241 1234 1894 
L 800 147 
Q 775 50 703 -11 
Q 631 -72 538 -72 
Q 456 -72 398 -17 
Q 341 38 341 116 
z
" transform="scale(0.015625)"/>
       <path id="NotoSansCJKjp-Regular-e6ae" d="M 4448 2432 
C 4448 1184 4954 166 5722 -614 
L 6106 -416 
C 5370 346 4915 1293 4915 2432 
C 4915 3571 5370 4518 6106 5280 
L 5722 5478 
C 4954 4698 4448 3680 4448 2432 
z
" transform="scale(0.015625)"/>
       <path id="Cmsy10-d" d="M 941 184 
Q 941 234 972 275 
L 2303 1600 
L 972 2931 
Q 941 2963 941 3016 
Q 941 3063 978 3103 
Q 1016 3144 1069 3144 
Q 1113 3144 1166 3103 
L 2491 1778 
L 3809 3103 
Q 3863 3144 3903 3144 
Q 3956 3144 3993 3106 
Q 4031 3069 4031 3016 
Q 4031 2963 4000 2931 
L 2669 1600 
L 4000 275 
Q 4031 234 4031 184 
Q 4031 131 3993 93 
Q 3956 56 3903 56 
Q 3856 56 3809 103 
L 2491 1422 
L 1166 103 
Q 1119 56 1069 56 
Q 1016 56 978 97 
Q 941 138 941 184 
z
" transform="scale(0.015625)"/>
       <path id="Cmr10-64" d="M 594 0 
L 594 225 
Q 1394 225 1394 428 
L 1394 3788 
Q 1063 3628 556 3628 
L 556 3853 
Q 1341 3853 1741 4263 
L 1831 4263 
Q 1853 4263 1873 4245 
Q 1894 4228 1894 4206 
L 1894 428 
Q 1894 225 2694 225 
L 2694 0 
L 594 0 
z
" transform="scale(0.015625)"/>
       <path id="Cmr10-28" d="M 1600 -141 
Q 816 -141 533 504 
Q 250 1150 250 2041 
Q 250 2597 351 3087 
Q 453 3578 754 3920 
Q 1056 4263 1600 4263 
Q 2022 4263 2290 4056 
Q 2559 3850 2700 3523 
Q 2841 3197 2892 2823 
Q 2944 2450 2944 2041 
Q 2944 1491 2842 1011 
Q 2741 531 2444 195 
Q 2147 -141 1600 -141 
z
M 1600 25 
Q 1956 25 2131 390 
Q 2306 756 2347 1200 
Q 2388 1644 2388 2144 
Q 2388 2625 2347 3031 
Q 2306 3438 2132 3767 
Q 1959 4097 1600 4097 
Q 1238 4097 1063 3765 
Q 888 3434 847 3029 
Q 806 2625 806 2144 
Q 806 1788 823 1472 
Q 841 1156 916 820 
Q 991 484 1158 254 
Q 1325 25 1600 25 
z
" transform="scale(0.015625)"/>
       <path id="Cmr10-45" d="M 1600 -141 
Q 1203 -141 937 70 
Q 672 281 526 617 
Q 381 953 325 1322 
Q 269 1691 269 2069 
Q 269 2575 466 3084 
Q 663 3594 1045 3928 
Q 1428 4263 1953 4263 
Q 2172 4263 2361 4180 
Q 2550 4097 2658 3936 
Q 2766 3775 2766 3547 
Q 2766 3416 2677 3327 
Q 2588 3238 2456 3238 
Q 2331 3238 2240 3328 
Q 2150 3419 2150 3547 
Q 2150 3672 2240 3762 
Q 2331 3853 2456 3853 
L 2491 3853 
Q 2409 3969 2261 4023 
Q 2113 4078 1953 4078 
Q 1759 4078 1595 3993 
Q 1431 3909 1300 3765 
Q 1169 3622 1081 3448 
Q 994 3275 945 3053 
Q 897 2831 884 2637 
Q 872 2444 872 2150 
Q 984 2413 1190 2580 
Q 1397 2747 1656 2747 
Q 1941 2747 2175 2631 
Q 2409 2516 2578 2311 
Q 2747 2106 2836 1843 
Q 2925 1581 2925 1313 
Q 2925 938 2758 598 
Q 2591 259 2287 59 
Q 1984 -141 1600 -141 
z
M 1600 63 
Q 1847 63 1997 175 
Q 2147 288 2217 473 
Q 2288 659 2305 848 
Q 2322 1038 2322 1313 
Q 2322 1675 2287 1931 
Q 2253 2188 2100 2383 
Q 1947 2578 1631 2578 
Q 1372 2578 1205 2403 
Q 1038 2228 961 1961 
Q 884 1694 884 1447 
Q 884 1363 891 1319 
Q 891 1309 889 1303 
Q 888 1297 884 1288 
Q 884 1013 940 731 
Q 997 450 1156 256 
Q 1316 63 1600 63 
z
" transform="scale(0.015625)"/>
       <path id="NotoSansCJKjp-Regular-4e" d="M 589 0 
L 1178 0 
L 1178 2522 
C 1491 2880 1786 3053 2048 3053 
C 2490 3053 2694 2778 2694 2125 
L 2694 0 
L 3277 0 
L 3277 2522 
C 3603 2880 3885 3053 4154 3053 
C 4595 3053 4800 2778 4800 2125 
L 4800 0 
L 5382 0 
L 5382 2202 
C 5382 3085 5043 3565 4333 3565 
C 3904 3565 3546 3290 3181 2899 
C 3040 3309 2758 3565 2221 3565 
C 1805 3565 1446 3302 1139 2970 
L 1126 2970 
L 1069 3475 
L 589 3475 
L 589 0 
z
" transform="scale(0.015625)"/>
       <path id="NotoSansCJKjp-Regular-e6b2" d="M 1005 -685 
C 1677 -448 2112 77 2112 768 
C 2112 1216 1920 1504 1568 1504 
C 1306 1504 1082 1344 1082 1043 
C 1082 742 1299 589 1562 589 
L 1670 602 
C 1638 160 1357 -141 864 -346 
L 1005 -685 
z
" transform="scale(0.015625)"/>
       <path id="NotoSansCJKjp-Regular-6776" d="M 1888 582 
L 2144 154 
C 2605 454 3194 851 3725 1229 
L 3578 1626 
C 2963 1229 2317 819 1888 582 
z
M 2406 3213 
C 2694 2842 2995 2342 3117 2022 
L 3507 2214 
C 3386 2541 3072 3027 2784 3379 
L 2406 3213 
z
M 5670 3450 
C 5466 3078 5107 2554 4838 2240 
L 5178 2042 
C 5459 2342 5811 2816 6093 3219 
L 5670 3450 
z
M 4806 5056 
C 5146 4858 5542 4550 5741 4326 
L 6022 4621 
C 5824 4838 5408 5133 5069 5318 
L 4806 5056 
z
M 205 768 
L 339 307 
C 928 506 1715 774 2451 1037 
L 2387 1459 
L 1555 1190 
L 1555 2586 
L 2278 2586 
L 2278 3034 
L 1555 3034 
L 1555 4384 
L 2374 4384 
L 2374 4832 
L 294 4832 
L 294 4384 
L 1088 4384 
L 1088 3034 
L 371 3034 
L 371 2586 
L 1088 2586 
L 1088 1043 
L 205 768 
z
M 3917 5382 
L 3917 4237 
L 2253 4237 
L 2253 3795 
L 3917 3795 
L 3917 96 
C 3917 -13 3872 -45 3770 -51 
C 3667 -51 3341 -58 2970 -45 
C 3040 -173 3123 -384 3142 -506 
C 3648 -506 3942 -493 4128 -416 
C 4301 -333 4378 -192 4378 96 
L 4378 1920 
C 4698 1101 5178 486 5958 -70 
C 6022 58 6150 211 6266 301 
C 5120 1069 4634 1971 4378 3584 
L 4378 3795 
L 6176 3795 
L 6176 4237 
L 4378 4237 
L 4378 5382 
L 3917 5382 
z
" transform="scale(0.015625)"/>
       <path id="NotoSansCJKjp-Regular-2d90" d="M 941 5037 
C 1242 4582 1555 3968 1677 3590 
L 2138 3789 
C 2010 4173 1683 4768 1376 5210 
L 941 5037 
z
M 4986 5229 
C 4800 4774 4467 4141 4198 3757 
L 4621 3590 
C 4890 3968 5229 4550 5491 5050 
L 4986 5229 
z
M 2931 5382 
L 2931 3302 
L 755 3302 
L 755 2829 
L 2931 2829 
L 2931 1798 
L 339 1798 
L 339 1318 
L 2931 1318 
L 2931 -499 
L 3430 -499 
L 3430 1318 
L 6067 1318 
L 6067 1798 
L 3430 1798 
L 3430 2829 
L 5696 2829 
L 5696 3302 
L 3430 3302 
L 3430 5382 
L 2931 5382 
z
" transform="scale(0.015625)"/>
       <path id="NotoSansCJKjp-Regular-43fa" d="M 2259 5043 
L 2259 4608 
L 6080 4608 
L 6080 5043 
L 2259 5043 
z
M 2918 4378 
C 2771 4070 2477 3590 2202 3200 
C 2547 2758 2861 2259 3008 1926 
L 3430 2061 
C 3283 2368 2976 2829 2682 3206 
C 2906 3526 3168 3917 3354 4269 
L 2918 4378 
z
M 4122 4371 
C 3955 4064 3648 3584 3366 3194 
C 3731 2752 4070 2259 4230 1920 
L 4653 2067 
C 4493 2368 4166 2829 3853 3200 
C 4083 3526 4358 3910 4550 4262 
L 4122 4371 
z
M 5338 4371 
C 5165 4070 4845 3584 4550 3194 
C 4947 2752 5331 2259 5510 1920 
L 5933 2074 
C 5747 2368 5382 2842 5037 3206 
C 5286 3533 5562 3904 5766 4256 
L 5338 4371 
z
M 1562 5376 
C 1280 4922 710 4371 211 4032 
C 288 3949 416 3776 474 3680 
C 1024 4070 1619 4666 1997 5203 
L 1562 5376 
z
M 1914 90 
L 1914 -352 
L 6150 -352 
L 6150 90 
L 4320 90 
L 4320 1267 
L 5837 1267 
L 5837 1690 
L 2336 1690 
L 2336 1267 
L 3840 1267 
L 3840 90 
L 1914 90 
z
M 1715 4070 
C 1338 3392 723 2726 134 2285 
C 218 2189 358 1958 410 1862 
C 646 2054 896 2291 1133 2547 
L 1133 -506 
L 1587 -506 
L 1587 3085 
C 1798 3354 1984 3635 2144 3917 
L 1715 4070 
z
" transform="scale(0.015625)"/>
       <path id="NotoSansCJKjp-Regular-785c" d="M 3277 2630 
C 3635 2163 4006 1530 4141 1126 
L 4570 1350 
C 4416 1760 4026 2374 3667 2829 
L 3277 2630 
z
M 1984 1626 
C 2157 1235 2330 717 2387 378 
L 2784 512 
C 2714 845 2528 1357 2342 1747 
L 1984 1626 
z
M 582 1715 
C 506 1152 378 582 160 192 
C 269 154 454 64 544 6 
C 749 416 909 1037 992 1645 
L 582 1715 
z
M 3552 5382 
C 3309 4531 2906 3686 2400 3149 
C 2522 3085 2739 2938 2835 2861 
C 3046 3110 3245 3418 3424 3763 
L 5536 3763 
C 5440 1254 5331 275 5120 58 
C 5050 -26 4973 -45 4838 -45 
C 4685 -45 4288 -38 3859 -6 
C 3949 -141 4006 -346 4013 -486 
C 4397 -506 4794 -512 5011 -493 
C 5248 -467 5389 -422 5536 -230 
C 5805 83 5901 1082 6010 3974 
C 6016 4038 6016 4218 6016 4218 
L 3648 4218 
C 3802 4557 3930 4909 4038 5274 
L 3552 5382 
z
M 230 2515 
L 269 2080 
L 1318 2138 
L 1318 -525 
L 1754 -525 
L 1754 2163 
L 2310 2195 
C 2362 2061 2406 1933 2438 1824 
L 2816 2003 
C 2720 2355 2445 2899 2176 3315 
L 1818 3162 
C 1926 2989 2035 2784 2131 2586 
L 1107 2547 
C 1555 3098 2061 3853 2445 4467 
L 2022 4646 
C 1843 4301 1600 3878 1331 3469 
C 1235 3603 1094 3763 947 3910 
C 1184 4269 1459 4781 1677 5210 
L 1248 5376 
C 1114 5018 883 4538 678 4173 
L 480 4346 
L 243 4026 
C 544 3757 883 3392 1082 3098 
C 941 2893 794 2694 653 2528 
L 230 2515 
z
" transform="scale(0.015625)"/>
       <path id="NotoSansCJKjp-Regular-17" d="M 1926 -83 
C 2656 -83 3277 531 3277 1440 
C 3277 2426 2765 2912 1971 2912 
C 1606 2912 1197 2701 909 2349 
C 934 3802 1466 4294 2118 4294 
C 2400 4294 2682 4154 2861 3936 
L 3194 4294 
C 2931 4576 2579 4774 2093 4774 
C 1184 4774 358 4077 358 2240 
C 358 691 1030 -83 1926 -83 
z
M 922 1882 
C 1229 2317 1587 2477 1875 2477 
C 2445 2477 2720 2074 2720 1440 
C 2720 800 2374 378 1926 378 
C 1338 378 986 909 922 1882 
z
" transform="scale(0.015625)"/>
       <path id="NotoSansCJKjp-Regular-f" d="M 890 -83 
C 1120 -83 1312 96 1312 358 
C 1312 627 1120 806 890 806 
C 653 806 467 627 467 358 
C 467 96 653 -83 890 -83 
z
" transform="scale(0.015625)"/>
       <path id="NotoSansCJKjp-Regular-18" d="M 1267 0 
L 1875 0 
C 1952 1837 2150 2931 3251 4339 
L 3251 4691 
L 314 4691 
L 314 4192 
L 2592 4192 
C 1670 2912 1350 1779 1267 0 
z
" transform="scale(0.015625)"/>
       <path id="NotoSansCJKjp-Regular-e6af" d="M 1952 2432 
C 1952 3680 1446 4698 678 5478 
L 294 5280 
C 1030 4518 1485 3571 1485 2432 
C 1485 1293 1030 346 294 -416 
L 678 -614 
C 1446 166 1952 1184 1952 2432 
z
" transform="scale(0.015625)"/>
      </defs>
      <use xlink:href="#NotoSansCJKjp-Regular-a995" transform="translate(0 0.084203)"/>
      <use xlink:href="#NotoSansCJKjp-Regular-33d0" transform="translate(99.999908 0.084203)"/>
      <use xlink:href="#NotoSansCJKjp-Regular-8f90" transform="translate(199.999817 0.084203)"/>
      <use xlink:href="#NotoSansCJKjp-Regular-b0d5" transform="translate(299.999725 0.084203)"/>
      <use xlink:href="#NotoSansCJKjp-Regular-4231" transform="translate(399.999634 0.084203)"/>
      <use xlink:href="#NotoSansCJKjp-Regular-1" transform="translate(499.999542 0.084203)"/>
      <use xlink:href="#Cmmi10-5f" transform="translate(522.399521 0.084203)"/>
      <use xlink:href="#NotoSansCJKjp-Regular-e6ae" transform="translate(580.016708 0.084203)"/>
      <use xlink:href="#Cmsy10-d" transform="translate(680.016617 0.084203)"/>
      <use xlink:href="#Cmr10-64" transform="translate(757.702164 0.084203)"/>
      <use xlink:href="#Cmr10-28" transform="translate(807.702164 0.084203)"/>
      <use xlink:href="#Cmr10-45" transform="translate(861.706455 41.373437) scale(0.7)"/>
      <use xlink:href="#NotoSansCJKjp-Regular-1" transform="translate(902.42687 0.084203)"/>
      <use xlink:href="#NotoSansCJKjp-Regular-4e" transform="translate(924.826849 0.084203)"/>
      <use xlink:href="#NotoSansCJKjp-Regular-e6b2" transform="translate(1017.426763 0.084203)"/>
      <use xlink:href="#NotoSansCJKjp-Regular-33d0" transform="translate(1117.426672 0.084203)"/>
      <use xlink:href="#NotoSansCJKjp-Regular-6776" transform="translate(1217.42658 0.084203)"/>
      <use xlink:href="#NotoSansCJKjp-Regular-2d90" transform="translate(1317.426489 0.084203)"/>
      <use xlink:href="#NotoSansCJKjp-Regular-43fa" transform="translate(1417.426397 0.084203)"/>
      <use xlink:href="#NotoSansCJKjp-Regular-785c" transform="translate(1517.426305 0.084203)"/>
      <use xlink:href="#NotoSansCJKjp-Regular-1" transform="translate(1617.426214 0.084203)"/>
      <use xlink:href="#NotoSansCJKjp-Regular-17" transform="translate(1639.826193 0.084203)"/>
      <use xlink:href="#NotoSansCJKjp-Regular-f" transform="translate(1695.326147 0.084203)"/>
      <use xlink:href="#NotoSansCJKjp-Regular-14" transform="translate(1723.126119 0.084203)"/>
      <use xlink:href="#NotoSansCJKjp-Regular-18" transform="translate(1778.626074 0.084203)"/>
      <use xlink:href="#NotoSansCJKjp-Regular-e6af" transform="translate(1834.126028 0.084203)"/>
     </g>
    </g>
   </g>
   <g id="matplotlib.axis_2">
    <g id="ytick_1">
     <g id="line2d_15">
      <path d="M 45.08 285.996 
L 435.68 285.996 
" clip-path="url(#p3fadcb45b3)" style="fill: none; stroke: #d8dde3; stroke-width: 0.9; stroke-linecap: square"/>
     </g>
     <g id="line2d_16">
      <defs>
       <path id="m69624ccb93" d="M 0 0 
L -3.5 0 
" style="stroke: #222831; stroke-width: 0.8"/>
      </defs>
      <g>
       <use xlink:href="#m69624ccb93" x="45.08" y="285.996" style="fill: #222831; stroke: #222831; stroke-width: 0.8"/>
      </g>
     </g>
     <g id="text_9">
      <!-- 0 -->
      <g style="fill: #222831" transform="translate(31.42 291.276) scale(0.12 -0.12)">
       <use xlink:href="#NotoSansCJKjp-Regular-11"/>
      </g>
     </g>
    </g>
    <g id="ytick_2">
     <g id="line2d_17">
      <path d="M 45.08 241.644 
L 435.68 241.644 
" clip-path="url(#p3fadcb45b3)" style="fill: none; stroke: #d8dde3; stroke-width: 0.9; stroke-linecap: square"/>
     </g>
     <g id="line2d_18">
      <g>
       <use xlink:href="#m69624ccb93" x="45.08" y="241.644" style="fill: #222831; stroke: #222831; stroke-width: 0.8"/>
      </g>
     </g>
     <g id="text_10">
      <!-- 2 -->
      <g style="fill: #222831" transform="translate(31.42 246.924) scale(0.12 -0.12)">
       <use xlink:href="#NotoSansCJKjp-Regular-13"/>
      </g>
     </g>
    </g>
    <g id="ytick_3">
     <g id="line2d_19">
      <path d="M 45.08 197.292 
L 435.68 197.292 
" clip-path="url(#p3fadcb45b3)" style="fill: none; stroke: #d8dde3; stroke-width: 0.9; stroke-linecap: square"/>
     </g>
     <g id="line2d_20">
      <g>
       <use xlink:href="#m69624ccb93" x="45.08" y="197.292" style="fill: #222831; stroke: #222831; stroke-width: 0.8"/>
      </g>
     </g>
     <g id="text_11">
      <!-- 4 -->
      <g style="fill: #222831" transform="translate(31.42 202.572) scale(0.12 -0.12)">
       <defs>
        <path id="NotoSansCJKjp-Regular-15" d="M 2176 0 
L 2726 0 
L 2726 1293 
L 3354 1293 
L 3354 1760 
L 2726 1760 
L 2726 4691 
L 2080 4691 
L 128 1677 
L 128 1293 
L 2176 1293 
L 2176 0 
z
M 2176 1760 
L 736 1760 
L 1805 3360 
C 1939 3590 2067 3827 2182 4051 
L 2208 4051 
C 2195 3814 2176 3430 2176 3200 
L 2176 1760 
z
" transform="scale(0.015625)"/>
       </defs>
       <use xlink:href="#NotoSansCJKjp-Regular-15"/>
      </g>
     </g>
    </g>
    <g id="ytick_4">
     <g id="line2d_21">
      <path d="M 45.08 152.94 
L 435.68 152.94 
" clip-path="url(#p3fadcb45b3)" style="fill: none; stroke: #d8dde3; stroke-width: 0.9; stroke-linecap: square"/>
     </g>
     <g id="line2d_22">
      <g>
       <use xlink:href="#m69624ccb93" x="45.08" y="152.94" style="fill: #222831; stroke: #222831; stroke-width: 0.8"/>
      </g>
     </g>
     <g id="text_12">
      <!-- 6 -->
      <g style="fill: #222831" transform="translate(31.42 158.22) scale(0.12 -0.12)">
       <use xlink:href="#NotoSansCJKjp-Regular-17"/>
      </g>
     </g>
    </g>
    <g id="ytick_5">
     <g id="line2d_23">
      <path d="M 45.08 108.588 
L 435.68 108.588 
" clip-path="url(#p3fadcb45b3)" style="fill: none; stroke: #d8dde3; stroke-width: 0.9; stroke-linecap: square"/>
     </g>
     <g id="line2d_24">
      <g>
       <use xlink:href="#m69624ccb93" x="45.08" y="108.588" style="fill: #222831; stroke: #222831; stroke-width: 0.8"/>
      </g>
     </g>
     <g id="text_13">
      <!-- 8 -->
      <g style="fill: #222831" transform="translate(31.42 113.868) scale(0.12 -0.12)">
       <defs>
        <path id="NotoSansCJKjp-Regular-19" d="M 1792 -83 
C 2669 -83 3258 448 3258 1126 
C 3258 1773 2880 2125 2470 2362 
L 2470 2394 
C 2746 2611 3091 3034 3091 3526 
C 3091 4250 2605 4762 1805 4762 
C 1075 4762 518 4282 518 3571 
C 518 3078 813 2726 1152 2490 
L 1152 2464 
C 723 2234 294 1792 294 1165 
C 294 442 922 -83 1792 -83 
z
M 2112 2547 
C 1555 2765 1050 3014 1050 3571 
C 1050 4026 1363 4326 1798 4326 
C 2298 4326 2592 3962 2592 3494 
C 2592 3149 2426 2829 2112 2547 
z
M 1798 352 
C 1235 352 813 717 813 1216 
C 813 1664 1082 2035 1459 2278 
C 2125 2010 2701 1779 2701 1146 
C 2701 678 2342 352 1798 352 
z
" transform="scale(0.015625)"/>
       </defs>
       <use xlink:href="#NotoSansCJKjp-Regular-19"/>
      </g>
     </g>
    </g>
    <g id="ytick_6">
     <g id="line2d_25">
      <path d="M 45.08 64.236 
L 435.68 64.236 
" clip-path="url(#p3fadcb45b3)" style="fill: none; stroke: #d8dde3; stroke-width: 0.9; stroke-linecap: square"/>
     </g>
     <g id="line2d_26">
      <g>
       <use xlink:href="#m69624ccb93" x="45.08" y="64.236" style="fill: #222831; stroke: #222831; stroke-width: 0.8"/>
      </g>
     </g>
     <g id="text_14">
      <!-- 10 -->
      <g style="fill: #222831" transform="translate(24.76 69.516) scale(0.12 -0.12)">
       <use xlink:href="#NotoSansCJKjp-Regular-12"/>
       <use xlink:href="#NotoSansCJKjp-Regular-11" transform="translate(55.5 0)"/>
      </g>
     </g>
    </g>
    <g id="text_15">
     <!-- 重力加速度 $g$（$\mathrm{m/s^2}$） -->
     <g style="fill: #222831" transform="translate(17.76 223.308) rotate(-90) scale(0.12 -0.12)">
      <defs>
       <path id="NotoSansCJKjp-Regular-a106" d="M 1018 3456 
L 1018 1466 
L 2938 1466 
L 2938 1024 
L 813 1024 
L 813 640 
L 2938 640 
L 2938 83 
L 333 83 
L 333 -307 
L 6074 -307 
L 6074 83 
L 3418 83 
L 3418 640 
L 5670 640 
L 5670 1024 
L 3418 1024 
L 3418 1466 
L 5427 1466 
L 5427 3456 
L 3418 3456 
L 3418 3846 
L 6042 3846 
L 6042 4243 
L 3418 4243 
L 3418 4736 
C 4166 4794 4870 4870 5421 4966 
L 5165 5338 
C 4154 5158 2342 5037 851 4998 
C 896 4902 947 4730 954 4621 
C 1581 4634 2266 4659 2938 4698 
L 2938 4243 
L 371 4243 
L 371 3846 
L 2938 3846 
L 2938 3456 
L 1018 3456 
z
M 1485 2304 
L 2938 2304 
L 2938 1818 
L 1485 1818 
L 1485 2304 
z
M 3418 2304 
L 4941 2304 
L 4941 1818 
L 3418 1818 
L 3418 2304 
z
M 1485 3110 
L 2938 3110 
L 2938 2630 
L 1485 2630 
L 1485 3110 
z
M 3418 3110 
L 4941 3110 
L 4941 2630 
L 3418 2630 
L 3418 3110 
z
" transform="scale(0.015625)"/>
       <path id="NotoSansCJKjp-Regular-2c71" d="M 2624 5363 
L 2624 4256 
L 2624 3981 
L 531 3981 
L 531 3488 
L 2598 3488 
C 2502 2285 2080 877 339 -160 
C 461 -243 634 -422 710 -538 
C 2573 595 3008 2157 3098 3488 
L 5293 3488 
C 5165 1229 5024 320 4794 102 
C 4717 19 4634 0 4499 0 
C 4339 0 3930 6 3488 45 
C 3584 -96 3642 -307 3654 -448 
C 4051 -467 4461 -480 4678 -461 
C 4928 -435 5075 -390 5229 -198 
C 5517 115 5645 1075 5792 3725 
C 5798 3795 5805 3981 5805 3981 
L 3123 3981 
L 3123 4256 
L 3123 5363 
L 2624 5363 
z
" transform="scale(0.015625)"/>
       <path id="NotoSansCJKjp-Regular-2c76" d="M 3661 4582 
L 3661 -416 
L 4122 -416 
L 4122 58 
L 5363 58 
L 5363 -365 
L 5843 -365 
L 5843 4582 
L 3661 4582 
z
M 4122 518 
L 4122 4115 
L 5363 4115 
L 5363 518 
L 4122 518 
z
M 1248 5293 
L 1242 4160 
L 339 4160 
L 339 3693 
L 1229 3693 
C 1184 2080 986 659 179 -186 
C 301 -262 474 -410 550 -518 
C 1414 422 1638 1958 1696 3693 
L 2669 3693 
C 2618 1229 2560 352 2426 166 
C 2368 83 2304 58 2208 64 
C 2093 64 1818 64 1517 90 
C 1600 -45 1645 -250 1658 -390 
C 1946 -410 2240 -416 2419 -390 
C 2605 -365 2726 -307 2842 -141 
C 3040 134 3085 1069 3136 3917 
C 3136 3987 3136 4160 3136 4160 
L 1709 4160 
L 1722 5293 
L 1248 5293 
z
" transform="scale(0.015625)"/>
       <path id="NotoSansCJKjp-Regular-9d6d" d="M 384 4934 
C 794 4646 1274 4218 1478 3904 
L 1862 4224 
C 1632 4531 1152 4947 730 5222 
L 384 4934 
z
M 1677 2848 
L 314 2848 
L 314 2400 
L 1210 2400 
L 1210 768 
C 890 499 518 230 230 32 
L 480 -461 
C 826 -173 1152 102 1459 378 
C 1869 -128 2445 -358 3283 -390 
C 3994 -416 5318 -403 6016 -371 
C 6035 -224 6118 6 6176 115 
C 5414 64 3981 45 3283 77 
C 2541 102 1978 326 1677 794 
L 1677 2848 
z
M 2752 3379 
L 3757 3379 
L 3757 2560 
L 2752 2560 
L 2752 3379 
z
M 4224 3379 
L 5286 3379 
L 5286 2560 
L 4224 2560 
L 4224 3379 
z
M 3757 5370 
L 3757 4710 
L 2035 4710 
L 2035 4294 
L 3757 4294 
L 3757 3763 
L 2304 3763 
L 2304 2176 
L 3501 2176 
C 3130 1638 2502 1120 1920 870 
C 2022 781 2163 621 2227 506 
C 2778 787 3360 1306 3757 1875 
L 3757 314 
L 4224 314 
L 4224 1850 
C 4640 1318 5235 800 5754 525 
C 5824 640 5971 806 6080 896 
C 5510 1146 4845 1658 4442 2176 
L 5754 2176 
L 5754 3763 
L 4224 3763 
L 4224 4294 
L 6048 4294 
L 6048 4710 
L 4224 4710 
L 4224 5370 
L 3757 5370 
z
" transform="scale(0.015625)"/>
       <path id="Cmmi10-2f" d="M 91 -916 
Q 91 -759 198 -642 
Q 306 -525 459 -525 
Q 563 -525 633 -589 
Q 703 -653 703 -756 
Q 703 -872 637 -964 
Q 572 -1056 469 -1094 
Q 641 -1147 1006 -1147 
Q 1300 -1147 1544 -920 
Q 1788 -694 1863 -397 
L 2047 353 
Q 1700 0 1325 0 
Q 1050 0 854 140 
Q 659 281 556 515 
Q 453 750 453 1013 
Q 453 1306 573 1628 
Q 694 1950 911 2225 
Q 1128 2500 1409 2664 
Q 1691 2828 2003 2828 
Q 2191 2828 2341 2725 
Q 2491 2622 2578 2450 
Q 2641 2700 2853 2700 
Q 2934 2700 2990 2651 
Q 3047 2603 3047 2522 
Q 3047 2503 3045 2493 
Q 3044 2484 3041 2472 
L 2309 -434 
Q 2259 -634 2125 -800 
Q 1991 -966 1809 -1077 
Q 1628 -1188 1412 -1250 
Q 1197 -1313 997 -1313 
Q 631 -1313 361 -1242 
Q 91 -1172 91 -916 
z
M 1338 166 
Q 1747 166 2144 728 
L 2497 2125 
Q 2453 2347 2322 2505 
Q 2191 2663 1991 2663 
Q 1778 2663 1589 2489 
Q 1400 2316 1275 2075 
Q 1156 1844 1045 1411 
Q 934 978 934 728 
Q 934 509 1034 337 
Q 1134 166 1338 166 
z
" transform="scale(0.015625)"/>
       <path id="Cmr10-38" d="M 191 0 
L 191 225 
Q 409 225 550 259 
Q 691 294 691 428 
L 691 2175 
Q 691 2347 639 2423 
Q 588 2500 491 2517 
Q 394 2534 191 2534 
L 191 2759 
L 1119 2828 
L 1119 2203 
Q 1247 2478 1498 2653 
Q 1750 2828 2047 2828 
Q 2784 2828 2913 2228 
Q 3041 2497 3287 2662 
Q 3534 2828 3828 2828 
Q 4119 2828 4317 2734 
Q 4516 2641 4616 2448 
Q 4716 2256 4716 1966 
L 4716 428 
Q 4716 294 4858 259 
Q 5000 225 5216 225 
L 5216 0 
L 3750 0 
L 3750 225 
Q 3969 225 4109 259 
Q 4250 294 4250 428 
L 4250 1947 
Q 4250 2269 4159 2466 
Q 4069 2663 3788 2663 
Q 3419 2663 3178 2366 
Q 2938 2069 2938 1691 
L 2938 428 
Q 2938 294 3078 259 
Q 3219 225 3438 225 
L 3438 0 
L 1972 0 
L 1972 225 
Q 2191 225 2331 259 
Q 2472 294 2472 428 
L 2472 1947 
Q 2472 2259 2381 2461 
Q 2291 2663 2009 2663 
Q 1638 2663 1398 2366 
Q 1159 2069 1159 1691 
L 1159 428 
Q 1159 294 1300 259 
Q 1441 225 1656 225 
L 1656 0 
L 191 0 
z
" transform="scale(0.015625)"/>
       <path id="Cmmi10-62" d="M 359 -1472 
Q 359 -1453 366 -1447 
L 2591 4722 
Q 2603 4759 2634 4779 
Q 2666 4800 2706 4800 
Q 2763 4800 2798 4765 
Q 2834 4731 2834 4672 
L 2834 4647 
L 609 -1522 
Q 572 -1600 488 -1600 
Q 434 -1600 396 -1562 
Q 359 -1525 359 -1472 
z
" transform="scale(0.015625)"/>
       <path id="Cmr10-52" d="M 213 -19 
L 213 1025 
Q 213 1075 269 1075 
L 347 1075 
Q 384 1075 397 1025 
Q 575 97 1259 97 
Q 1563 97 1767 234 
Q 1972 372 1972 659 
Q 1972 866 1812 1011 
Q 1653 1156 1434 1209 
L 1006 1294 
Q 791 1341 614 1437 
Q 438 1534 325 1695 
Q 213 1856 213 2069 
Q 213 2350 361 2529 
Q 509 2709 746 2789 
Q 984 2869 1259 2869 
Q 1588 2869 1831 2694 
L 2016 2853 
Q 2016 2869 2047 2869 
L 2094 2869 
Q 2113 2869 2128 2851 
Q 2144 2834 2144 2816 
L 2144 1978 
Q 2144 1919 2094 1919 
L 2016 1919 
Q 1959 1919 1959 1978 
Q 1959 2313 1773 2516 
Q 1588 2719 1253 2719 
Q 966 2719 755 2612 
Q 544 2506 544 2247 
Q 544 2069 695 1955 
Q 847 1841 1050 1791 
L 1484 1709 
Q 1703 1659 1892 1540 
Q 2081 1422 2192 1240 
Q 2303 1059 2303 831 
Q 2303 600 2223 429 
Q 2144 259 2001 146 
Q 1859 34 1665 -19 
Q 1472 -72 1259 -72 
Q 859 -72 575 197 
L 341 -56 
Q 341 -72 306 -72 
L 269 -72 
Q 213 -72 213 -19 
z
" transform="scale(0.015625)"/>
       <path id="Cmr10-31" d="M 319 0 
L 319 172 
Q 319 188 331 206 
L 1325 1306 
Q 1550 1550 1690 1715 
Q 1831 1881 1968 2097 
Q 2106 2313 2186 2536 
Q 2266 2759 2266 3009 
Q 2266 3272 2169 3511 
Q 2072 3750 1880 3894 
Q 1688 4038 1416 4038 
Q 1138 4038 916 3870 
Q 694 3703 603 3438 
Q 628 3444 672 3444 
Q 816 3444 917 3347 
Q 1019 3250 1019 3097 
Q 1019 2950 917 2848 
Q 816 2747 672 2747 
Q 522 2747 420 2851 
Q 319 2956 319 3097 
Q 319 3338 409 3548 
Q 500 3759 670 3923 
Q 841 4088 1055 4175 
Q 1269 4263 1509 4263 
Q 1875 4263 2190 4108 
Q 2506 3953 2690 3670 
Q 2875 3388 2875 3009 
Q 2875 2731 2753 2481 
Q 2631 2231 2440 2026 
Q 2250 1822 1953 1562 
Q 1656 1303 1563 1216 
L 838 519 
L 1453 519 
Q 1906 519 2211 526 
Q 2516 534 2534 550 
Q 2609 631 2688 1141 
L 2875 1141 
L 2694 0 
L 319 0 
z
" transform="scale(0.015625)"/>
      </defs>
      <use xlink:href="#NotoSansCJKjp-Regular-a106" transform="translate(0 0.084203)"/>
      <use xlink:href="#NotoSansCJKjp-Regular-2c71" transform="translate(99.999908 0.084203)"/>
      <use xlink:href="#NotoSansCJKjp-Regular-2c76" transform="translate(199.999817 0.084203)"/>
      <use xlink:href="#NotoSansCJKjp-Regular-9d6d" transform="translate(299.999725 0.084203)"/>
      <use xlink:href="#NotoSansCJKjp-Regular-4231" transform="translate(399.999634 0.084203)"/>
      <use xlink:href="#NotoSansCJKjp-Regular-1" transform="translate(499.999542 0.084203)"/>
      <use xlink:href="#Cmmi10-2f" transform="translate(522.399521 0.084203)"/>
      <use xlink:href="#NotoSansCJKjp-Regular-e6ae" transform="translate(570.104599 0.084203)"/>
      <use xlink:href="#Cmr10-38" transform="translate(670.104507 0.084203)"/>
      <use xlink:href="#Cmmi10-62" transform="translate(753.405289 0.084203)"/>
      <use xlink:href="#Cmr10-52" transform="translate(803.405289 0.084203)"/>
      <use xlink:href="#Cmr10-31" transform="translate(846.813876 41.373437) scale(0.7)"/>
      <use xlink:href="#NotoSansCJKjp-Regular-e6af" transform="translate(887.534292 0.084203)"/>
     </g>
    </g>
   </g>
   <g id="line2d_27">
    <path d="M 45.08 68.153986 
L 47.417289 80.682978 
L 49.754578 92.161361 
L 52.091867 102.703399 
L 54.429156 112.408232 
L 56.766445 121.36222 
L 59.103734 129.640867 
L 62.220119 139.741867 
L 65.336504 148.894741 
L 68.45289 157.214541 
L 71.569275 164.799383 
L 74.68566 171.733351 
L 77.802045 178.08884 
L 80.918431 183.928453 
L 84.034816 189.306548 
L 87.151201 194.270507 
L 90.267586 198.861784 
L 93.383972 203.116773 
L 97.279453 208.01108 
L 101.174935 212.48431 
L 105.070416 216.583417 
L 108.965898 220.348987 
L 112.86138 223.816249 
L 116.756861 227.015898 
L 121.431439 230.539794 
L 126.106017 233.757059 
L 130.780595 236.702261 
L 135.455173 239.405235 
L 140.908847 242.286851 
L 146.362521 244.909166 
L 151.816196 247.302383 
L 158.048966 249.790054 
L 164.281737 252.045311 
L 171.293603 254.33946 
L 178.30547 256.408695 
L 186.096433 258.478529 
L 194.666493 260.51408 
L 204.015649 262.487377 
L 214.143901 264.37716 
L 225.051249 266.168328 
L 236.737694 267.851177 
L 249.203235 269.42054 
L 263.226969 270.954443 
L 278.808895 272.421709 
L 295.949014 273.800782 
L 314.647326 275.078515 
L 335.682926 276.289832 
L 359.834912 277.447569 
L 387.103283 278.522095 
L 418.267136 279.519421 
L 433.849063 279.944833 
L 433.849063 279.944833 
" clip-path="url(#p3fadcb45b3)" style="fill: none; stroke: #1f6feb; stroke-width: 2.8; stroke-linecap: square"/>
   </g>
   <g id="line2d_28">
    <path d="M 45.08 68.44944 
L 435.68 68.44944 
" clip-path="url(#p3fadcb45b3)" style="fill: none; stroke-dasharray: 3.7,1.6; stroke-dashoffset: 0; stroke: #bcc4cf"/>
   </g>
   <g id="line2d_29">
    <defs>
     <path id="md634972d11" d="M 0 3.5 
C 0.928211 3.5 1.81853 3.131218 2.474874 2.474874 
C 3.131218 1.81853 3.5 0.928211 3.5 0 
C 3.5 -0.928211 3.131218 -1.81853 2.474874 -2.474874 
C 1.81853 -3.131218 0.928211 -3.5 0 -3.5 
C -0.928211 -3.5 -1.81853 -3.131218 -2.474874 -2.474874 
C -3.131218 -1.81853 -3.5 -0.928211 -3.5 0 
C -3.5 0.928211 -3.131218 1.81853 -2.474874 2.474874 
C -1.81853 3.131218 -0.928211 3.5 0 3.5 
z
" style="stroke: #d1242f"/>
    </defs>
    <g clip-path="url(#p3fadcb45b3)">
     <use xlink:href="#md634972d11" x="45.08" y="68.44944" style="fill: #d1242f; stroke: #d1242f"/>
    </g>
   </g>
   <g id="line2d_30">
    <defs>
     <path id="m2593a55aec" d="M 0 3.5 
C 0.928211 3.5 1.81853 3.131218 2.474874 2.474874 
C 3.131218 1.81853 3.5 0.928211 3.5 0 
C 3.5 -0.928211 3.131218 -1.81853 2.474874 -2.474874 
C 1.81853 -3.131218 0.928211 -3.5 0 -3.5 
C -0.928211 -3.5 -1.81853 -3.131218 -2.474874 -2.474874 
C -3.131218 -1.81853 -3.5 -0.928211 -3.5 0 
C -3.5 0.928211 -3.131218 1.81853 -2.474874 2.474874 
C -1.81853 3.131218 -0.928211 3.5 0 3.5 
z
" style="stroke: #1a7f37"/>
    </defs>
    <g clip-path="url(#p3fadcb45b3)">
     <use xlink:href="#m2593a55aec" x="122.833813" y="231.535497" style="fill: #1a7f37; stroke: #1a7f37"/>
    </g>
   </g>
   <g id="patch_3">
    <path d="M 45.08 285.996 
L 45.08 42.06 
" style="fill: none; stroke: #222831; stroke-width: 1.1; stroke-linejoin: miter; stroke-linecap: square"/>
   </g>
   <g id="patch_4">
    <path d="M 45.08 285.996 
L 435.68 285.996 
" style="fill: none; stroke: #222831; stroke-width: 1.1; stroke-linejoin: miter; stroke-linecap: square"/>
   </g>
   <g id="patch_5">
    <path d="M 158.602164 87.703824 
Q 102.82671 78.243803 48.153547 68.970741 
" style="fill: none; stroke: #d1242f; stroke-linecap: round"/>
    <path d="M 52.123707 71.875536 
L 48.153547 68.970741 
L 52.859479 67.53749 
" style="fill: none; stroke: #d1242f; stroke-linecap: round"/>
   </g>
   <g id="text_16">
    <!-- 地表 $g\approx 9.8\ \mathrm{m/s^2}$（$r=R$） -->
    <g style="fill: #d1242f" transform="translate(142.73 99.7176) scale(0.11 -0.11)">
     <defs>
      <path id="Cmsy10-17" d="M 447 359 
Q 378 359 359 519 
L 359 556 
Q 359 847 501 1087 
Q 644 1328 891 1464 
Q 1138 1600 1422 1600 
Q 1766 1600 2130 1379 
Q 2494 1159 2853 937 
Q 3213 716 3553 716 
Q 3881 716 4157 919 
Q 4434 1122 4434 1441 
Q 4453 1600 4525 1600 
Q 4597 1600 4616 1441 
L 4616 1403 
Q 4616 1113 4472 872 
Q 4328 631 4083 495 
Q 3838 359 3553 359 
Q 3284 359 3048 470 
Q 2813 581 2495 795 
Q 2178 1009 1937 1125 
Q 1697 1241 1422 1241 
Q 1219 1241 1009 1150 
Q 800 1059 669 895 
Q 538 731 538 519 
Q 519 359 447 359 
z
M 447 1850 
Q 378 1850 359 2009 
L 359 2047 
Q 359 2338 501 2578 
Q 644 2819 891 2955 
Q 1138 3091 1422 3091 
Q 1766 3091 2130 2870 
Q 2494 2650 2853 2429 
Q 3213 2209 3553 2209 
Q 3881 2209 4157 2412 
Q 4434 2616 4434 2931 
Q 4453 3091 4525 3091 
Q 4597 3091 4616 2931 
L 4616 2894 
Q 4616 2603 4472 2362 
Q 4328 2122 4083 1986 
Q 3838 1850 3553 1850 
Q 3284 1850 3048 1961 
Q 2813 2072 2495 2286 
Q 2178 2500 1937 2615 
Q 1697 2731 1422 2731 
Q 1219 2731 1009 2640 
Q 800 2550 669 2386 
Q 538 2222 538 2009 
Q 519 1850 447 1850 
z
" transform="scale(0.015625)"/>
      <path id="Cmr10-16" d="M 722 269 
Q 897 63 1331 63 
Q 1575 63 1786 228 
Q 1997 394 2113 634 
Q 2247 906 2284 1214 
Q 2322 1522 2322 1978 
Q 2213 1719 2008 1553 
Q 1803 1388 1538 1388 
Q 1166 1388 873 1589 
Q 581 1791 425 2120 
Q 269 2450 269 2822 
Q 269 3206 444 3539 
Q 619 3872 928 4067 
Q 1238 4263 1631 4263 
Q 2019 4263 2280 4052 
Q 2541 3841 2678 3508 
Q 2816 3175 2870 2803 
Q 2925 2431 2925 2069 
Q 2925 1575 2744 1061 
Q 2563 547 2202 203 
Q 1841 -141 1331 -141 
Q 953 -141 690 37 
Q 428 216 428 575 
Q 428 706 517 795 
Q 606 884 738 884 
Q 866 884 955 795 
Q 1044 706 1044 575 
Q 1044 450 953 359 
Q 863 269 738 269 
L 722 269 
z
M 1563 1556 
Q 1825 1556 1992 1732 
Q 2159 1909 2234 2171 
Q 2309 2434 2309 2694 
L 2309 2816 
L 2309 2841 
Q 2309 3322 2168 3700 
Q 2028 4078 1631 4078 
Q 1378 4078 1220 3967 
Q 1063 3856 988 3672 
Q 913 3488 892 3278 
Q 872 3069 872 2822 
Q 872 2459 906 2203 
Q 941 1947 1094 1751 
Q 1247 1556 1563 1556 
z
" transform="scale(0.015625)"/>
      <path id="Cmmi10-33" d="M 538 353 
Q 538 497 644 600 
Q 750 703 891 703 
Q 978 703 1062 656 
Q 1147 609 1194 525 
Q 1241 441 1241 353 
Q 1241 213 1137 106 
Q 1034 0 891 0 
Q 750 0 644 106 
Q 538 213 538 353 
z
" transform="scale(0.015625)"/>
      <path id="Cmr10-4d" d="M 269 972 
Q 269 1356 522 1651 
Q 775 1947 1172 2144 
L 934 2297 
Q 716 2441 578 2680 
Q 441 2919 441 3181 
Q 441 3488 602 3734 
Q 763 3981 1030 4122 
Q 1297 4263 1600 4263 
Q 1884 4263 2148 4147 
Q 2413 4031 2583 3815 
Q 2753 3600 2753 3303 
Q 2753 3088 2651 2903 
Q 2550 2719 2373 2572 
Q 2197 2425 1997 2322 
L 2363 2088 
Q 2616 1922 2770 1653 
Q 2925 1384 2925 1088 
Q 2925 741 2739 456 
Q 2553 172 2247 15 
Q 1941 -141 1600 -141 
Q 1269 -141 961 -6 
Q 653 128 461 383 
Q 269 638 269 972 
z
M 616 972 
Q 616 719 755 509 
Q 894 300 1122 181 
Q 1350 63 1600 63 
Q 1972 63 2275 280 
Q 2578 497 2578 856 
Q 2578 978 2529 1098 
Q 2481 1219 2395 1317 
Q 2309 1416 2203 1478 
L 1344 2034 
Q 1144 1928 976 1765 
Q 809 1603 712 1400 
Q 616 1197 616 972 
z
M 1056 2925 
L 1831 2425 
Q 2100 2581 2272 2803 
Q 2444 3025 2444 3303 
Q 2444 3519 2323 3698 
Q 2203 3878 2009 3978 
Q 1816 4078 1594 4078 
Q 1400 4078 1203 4003 
Q 1006 3928 878 3779 
Q 750 3631 750 3431 
Q 750 3131 1056 2925 
z
" transform="scale(0.015625)"/>
      <path id="Cmmi10-84" d="M 494 109 
Q 494 147 500 166 
L 978 2075 
Q 1025 2253 1025 2388 
Q 1025 2663 838 2663 
Q 638 2663 541 2423 
Q 444 2184 353 1819 
Q 353 1800 334 1789 
Q 316 1778 300 1778 
L 225 1778 
Q 203 1778 187 1801 
Q 172 1825 172 1844 
Q 241 2122 305 2315 
Q 369 2509 505 2668 
Q 641 2828 844 2828 
Q 1066 2828 1233 2700 
Q 1400 2572 1441 2363 
Q 1603 2575 1811 2701 
Q 2019 2828 2266 2828 
Q 2469 2828 2623 2709 
Q 2778 2591 2778 2388 
Q 2778 2225 2676 2104 
Q 2575 1984 2406 1984 
Q 2303 1984 2233 2048 
Q 2163 2113 2163 2216 
Q 2163 2356 2266 2467 
Q 2369 2578 2503 2578 
Q 2400 2663 2253 2663 
Q 1978 2663 1775 2467 
Q 1572 2272 1409 1972 
L 953 141 
Q 931 53 854 -9 
Q 778 -72 684 -72 
Q 606 -72 550 -22 
Q 494 28 494 109 
z
" transform="scale(0.015625)"/>
      <path id="Cmr10-29" d="M 481 850 
Q 428 850 393 890 
Q 359 931 359 978 
Q 359 1031 393 1068 
Q 428 1106 481 1106 
L 4500 1106 
Q 4547 1106 4581 1068 
Q 4616 1031 4616 978 
Q 4616 931 4581 890 
Q 4547 850 4500 850 
L 481 850 
z
M 481 2094 
Q 428 2094 393 2131 
Q 359 2169 359 2222 
Q 359 2269 393 2309 
Q 428 2350 481 2350 
L 4500 2350 
Q 4547 2350 4581 2309 
Q 4616 2269 4616 2222 
Q 4616 2169 4581 2131 
Q 4547 2094 4500 2094 
L 481 2094 
z
" transform="scale(0.015625)"/>
      <path id="Cmmi10-70" d="M 313 0 
Q 250 0 250 84 
Q 253 100 262 139 
Q 272 178 289 201 
Q 306 225 331 225 
Q 722 225 878 269 
Q 959 297 997 441 
L 1875 3956 
Q 1888 4019 1888 4044 
Q 1888 4113 1813 4122 
Q 1691 4147 1350 4147 
Q 1288 4147 1288 4231 
Q 1291 4247 1300 4286 
Q 1309 4325 1326 4348 
Q 1344 4372 1369 4372 
L 3309 4372 
Q 3541 4372 3791 4319 
Q 4041 4266 4250 4152 
Q 4459 4038 4593 3848 
Q 4728 3659 4728 3406 
Q 4728 3084 4515 2831 
Q 4303 2578 3978 2408 
Q 3653 2238 3347 2169 
Q 3597 2078 3756 1879 
Q 3916 1681 3916 1422 
Q 3916 1388 3914 1370 
Q 3913 1353 3909 1331 
L 3859 763 
Q 3853 638 3847 550 
Q 3841 463 3841 409 
Q 3841 234 3892 129 
Q 3944 25 4097 25 
Q 4297 25 4448 211 
Q 4600 397 4647 616 
Q 4675 672 4709 672 
L 4769 672 
Q 4831 672 4831 588 
Q 4784 403 4682 237 
Q 4581 72 4426 -34 
Q 4272 -141 4091 -141 
Q 3716 -141 3452 26 
Q 3188 194 3188 550 
Q 3188 684 3213 788 
L 3353 1356 
Q 3378 1434 3378 1538 
Q 3378 1803 3198 1954 
Q 3019 2106 2747 2106 
L 1959 2106 
L 1538 416 
Q 1522 363 1522 325 
Q 1522 259 1600 250 
Q 1722 225 2059 225 
Q 2125 225 2125 141 
Q 2103 50 2090 25 
Q 2078 0 2016 0 
L 313 0 
z
M 1997 2272 
L 2706 2272 
Q 3403 2272 3756 2625 
Q 3919 2788 4014 3039 
Q 4109 3291 4109 3541 
Q 4109 3778 3970 3912 
Q 3831 4047 3626 4097 
Q 3422 4147 3175 4147 
L 2747 4147 
Q 2572 4147 2515 4117 
Q 2459 4088 2413 3928 
L 1997 2272 
z
" transform="scale(0.015625)"/>
     </defs>
     <use xlink:href="#NotoSansCJKjp-Regular-33d0" transform="translate(0 0.084203)"/>
     <use xlink:href="#NotoSansCJKjp-Regular-8f90" transform="translate(99.999908 0.084203)"/>
     <use xlink:href="#NotoSansCJKjp-Regular-1" transform="translate(199.999817 0.084203)"/>
     <use xlink:href="#Cmmi10-2f" transform="translate(222.399796 0.084203)"/>
     <use xlink:href="#Cmsy10-17" transform="translate(290.104931 0.084203)"/>
     <use xlink:href="#Cmr10-16" transform="translate(387.790535 0.084203)"/>
     <use xlink:href="#Cmmi10-33" transform="translate(437.790535 0.084203)"/>
     <use xlink:href="#Cmr10-4d" transform="translate(465.476082 0.084203)"/>
     <use xlink:href="#Cmr10-38" transform="translate(548.809177 0.084203)"/>
     <use xlink:href="#Cmmi10-62" transform="translate(632.109958 0.084203)"/>
     <use xlink:href="#Cmr10-52" transform="translate(682.109958 0.084203)"/>
     <use xlink:href="#Cmr10-31" transform="translate(725.518546 41.373437) scale(0.7)"/>
     <use xlink:href="#NotoSansCJKjp-Regular-e6ae" transform="translate(766.238962 0.084203)"/>
     <use xlink:href="#Cmmi10-84" transform="translate(866.23887 0.084203)"/>
     <use xlink:href="#Cmr10-29" transform="translate(931.356115 0.084203)"/>
     <use xlink:href="#Cmmi10-70" transform="translate(1029.041719 0.084203)"/>
     <use xlink:href="#NotoSansCJKjp-Regular-e6af" transform="translate(1104.920625 0.084203)"/>
    </g>
   </g>
   <g id="patch_6">
    <path d="M 233.858001 189.014061 
Q 179.279353 209.917276 125.744784 230.420616 
" style="fill: none; stroke: #1a7f37; stroke-linecap: round"/>
    <path d="M 130.640583 230.901394 
L 125.744784 230.420616 
L 129.066886 226.792444 
" style="fill: none; stroke: #1a7f37; stroke-linecap: round"/>
   </g>
   <g id="text_17">
    <!-- 離地約一個地球半徑高 -->
    <g style="fill: #1a7f37" transform="translate(215.9675 172.9864) scale(0.11 -0.11)">
     <defs>
      <path id="NotoSansCJKjp-Regular-2509" d="M 282 2758 
L 282 2234 
L 6144 2234 
L 6144 2758 
L 282 2758 
z
" transform="scale(0.015625)"/>
      <path id="NotoSansCJKjp-Regular-2815" d="M 3533 2195 
L 4614 2195 
L 4614 1197 
L 3533 1197 
L 3533 2195 
z
M 2189 4992 
L 2189 -506 
L 2630 -506 
L 2630 -128 
L 5472 -128 
L 5472 -461 
L 5933 -461 
L 5933 4992 
L 2189 4992 
z
M 2630 307 
L 2630 4563 
L 5472 4563 
L 5472 307 
L 2630 307 
z
M 3162 2554 
L 3162 838 
L 4998 838 
L 4998 2554 
L 4256 2554 
L 4256 3258 
L 5254 3258 
L 5254 3629 
L 4256 3629 
L 4256 4358 
L 3866 4358 
L 3866 3629 
L 2899 3629 
L 2899 3258 
L 3866 3258 
L 3866 2554 
L 3162 2554 
z
M 1523 5344 
C 1203 4378 685 3411 109 2784 
C 192 2662 320 2400 365 2291 
C 582 2541 787 2829 986 3142 
L 986 -518 
L 1446 -518 
L 1446 3968 
C 1645 4371 1824 4794 1965 5216 
L 1523 5344 
z
" transform="scale(0.015625)"/>
     </defs>
     <use xlink:href="#NotoSansCJKjp-Regular-a995"/>
     <use xlink:href="#NotoSansCJKjp-Regular-33d0" transform="translate(100 0)"/>
     <use xlink:href="#NotoSansCJKjp-Regular-785c" transform="translate(200 0)"/>
     <use xlink:href="#NotoSansCJKjp-Regular-2509" transform="translate(300 0)"/>
     <use xlink:href="#NotoSansCJKjp-Regular-2815" transform="translate(400 0)"/>
     <use xlink:href="#NotoSansCJKjp-Regular-33d0" transform="translate(500 0)"/>
     <use xlink:href="#NotoSansCJKjp-Regular-6776" transform="translate(600 0)"/>
     <use xlink:href="#NotoSansCJKjp-Regular-2d90" transform="translate(700 0)"/>
     <use xlink:href="#NotoSansCJKjp-Regular-43fa" transform="translate(800 0)"/>
     <use xlink:href="#NotoSansCJKjp-Regular-b0d5" transform="translate(900 0)"/>
    </g>
    <!-- $g$ 約剩 1/4（$r=2R$） -->
    <g style="fill: #1a7f37" transform="translate(215.9675 183.9864) scale(0.11 -0.11)">
     <defs>
      <path id="NotoSansCJKjp-Regular-2c11" d="M 4410 4608 
L 4410 1056 
L 4845 1056 
L 4845 4608 
L 4410 4608 
z
M 5421 5312 
L 5421 102 
C 5421 -6 5382 -38 5274 -45 
C 5171 -51 4838 -51 4467 -38 
C 4538 -173 4602 -371 4621 -499 
C 5139 -499 5440 -486 5626 -416 
C 5811 -333 5888 -198 5888 102 
L 5888 5312 
L 5421 5312 
z
M 358 2042 
L 467 1683 
L 1242 1901 
L 1242 1498 
L 1619 1498 
L 1619 3533 
L 1242 3533 
L 1242 3072 
L 461 3072 
L 461 2720 
L 1242 2720 
L 1242 2240 
C 902 2157 608 2093 358 2042 
z
M 3488 5350 
C 2829 5133 1568 5005 531 4941 
C 589 4838 640 4666 659 4563 
C 1088 4582 1549 4614 2003 4659 
L 2003 4122 
L 352 4122 
L 352 3712 
L 2003 3712 
L 2003 1786 
C 1594 1114 877 416 269 58 
C 371 -19 518 -186 589 -301 
C 1062 19 1587 544 2003 1114 
L 2003 -480 
L 2458 -480 
L 2458 1184 
C 2899 851 3494 365 3738 141 
L 4006 538 
C 3763 717 2867 1357 2458 1626 
L 2458 3712 
L 4122 3712 
L 4122 4122 
L 2458 4122 
L 2458 4717 
C 2976 4781 3456 4877 3827 4998 
L 3488 5350 
z
M 2822 3533 
L 2822 2003 
C 2822 1632 2906 1536 3264 1536 
C 3328 1536 3642 1536 3712 1536 
C 3981 1536 4083 1677 4115 2182 
C 4013 2202 3872 2253 3802 2317 
C 3789 1914 3763 1862 3661 1862 
C 3597 1862 3360 1862 3315 1862 
C 3206 1862 3187 1875 3187 2003 
L 3187 2515 
C 3462 2624 3776 2784 4026 2944 
L 3744 3219 
C 3610 3098 3398 2970 3187 2861 
L 3187 3533 
L 2822 3533 
z
" transform="scale(0.015625)"/>
      <path id="NotoSansCJKjp-Regular-10" d="M 70 -1146 
L 499 -1146 
L 2413 5082 
L 1990 5082 
L 70 -1146 
z
" transform="scale(0.015625)"/>
     </defs>
     <use xlink:href="#Cmmi10-2f" transform="translate(0 0.40625)"/>
     <use xlink:href="#NotoSansCJKjp-Regular-1" transform="translate(47.705078 0.40625)"/>
     <use xlink:href="#NotoSansCJKjp-Regular-785c" transform="translate(70.105057 0.40625)"/>
     <use xlink:href="#NotoSansCJKjp-Regular-2c11" transform="translate(170.104965 0.40625)"/>
     <use xlink:href="#NotoSansCJKjp-Regular-1" transform="translate(270.104874 0.40625)"/>
     <use xlink:href="#NotoSansCJKjp-Regular-12" transform="translate(292.504852 0.40625)"/>
     <use xlink:href="#NotoSansCJKjp-Regular-10" transform="translate(348.004807 0.40625)"/>
     <use xlink:href="#NotoSansCJKjp-Regular-15" transform="translate(387.204773 0.40625)"/>
     <use xlink:href="#NotoSansCJKjp-Regular-e6ae" transform="translate(442.704727 0.40625)"/>
     <use xlink:href="#Cmmi10-84" transform="translate(542.704636 0.40625)"/>
     <use xlink:href="#Cmr10-29" transform="translate(607.82188 0.40625)"/>
     <use xlink:href="#Cmr10-31" transform="translate(705.507484 0.40625)"/>
     <use xlink:href="#Cmmi10-70" transform="translate(755.507484 0.40625)"/>
     <use xlink:href="#NotoSansCJKjp-Regular-e6af" transform="translate(831.386391 0.40625)"/>
    </g>
   </g>
   <g id="text_18">
    <!-- 地表重力加速度隨高度遞減：$g=\dfrac{GM}{(R+h)^{2}}$ -->
    <g style="fill: #222831" transform="translate(110.74 26.66) scale(0.14 -0.14)">
     <defs>
      <path id="NotoSansCJKjp-Regular-a918" d="M 2246 4986 
C 2470 4723 2714 4365 2810 4128 
L 3174 4365 
C 3072 4602 2822 4947 2598 5197 
L 2246 4986 
z
M 2048 3610 
C 2291 3360 2560 3008 2675 2771 
L 3021 3027 
C 2906 3258 2630 3590 2374 3827 
L 2048 3610 
z
M 4064 5382 
C 4026 5190 3981 5011 3923 4832 
L 3194 4832 
L 3194 4480 
L 3802 4480 
C 3610 4006 3347 3597 3008 3302 
C 3104 3238 3277 3104 3341 3034 
C 3635 3322 3885 3693 4083 4122 
L 4083 3821 
L 4723 3821 
L 4723 3405 
L 3731 3405 
L 3731 3085 
L 6131 3085 
L 6131 3405 
L 5146 3405 
L 5146 3821 
L 5869 3821 
L 5869 4134 
L 4090 4134 
C 4141 4243 4186 4358 4230 4480 
L 6093 4480 
L 6093 4832 
L 4352 4832 
C 4397 4986 4435 5146 4474 5312 
L 4064 5382 
z
M 4064 1754 
L 5376 1754 
L 5376 1414 
L 4064 1414 
L 4064 1754 
z
M 4064 2061 
L 4064 2400 
L 5376 2400 
L 5376 2061 
L 4064 2061 
z
M 3648 2733 
L 3648 307 
L 4064 307 
L 4064 1094 
L 5376 1094 
L 5376 698 
C 5376 646 5357 627 5293 627 
C 5235 627 5050 621 4832 627 
C 4883 531 4934 397 4954 294 
C 5280 294 5491 294 5632 352 
C 5760 416 5798 512 5798 704 
L 5798 2733 
L 3648 2733 
z
M 3098 2253 
L 2144 2253 
L 2144 1850 
L 2682 1850 
L 2682 678 
C 2413 410 2106 141 1850 -64 
L 2086 -480 
C 2374 -198 2643 70 2899 346 
C 3194 -109 3629 -384 4250 -410 
C 4730 -429 5600 -422 6086 -397 
C 6106 -269 6170 -70 6221 32 
C 5690 -6 4736 -19 4262 0 
C 3718 26 3309 294 3098 717 
L 3098 2253 
z
M 506 5101 
L 506 -512 
L 934 -512 
L 934 4666 
L 1587 4666 
C 1478 4224 1331 3635 1171 3168 
C 1555 2637 1638 2189 1638 1830 
C 1638 1626 1606 1434 1530 1370 
C 1485 1331 1427 1312 1363 1312 
C 1286 1306 1184 1312 1075 1318 
C 1139 1197 1178 1030 1178 915 
C 1299 909 1427 915 1530 922 
C 1638 941 1741 973 1818 1037 
C 1971 1158 2042 1440 2042 1779 
C 2042 2189 1958 2662 1568 3213 
C 1747 3738 1946 4410 2099 4947 
L 1805 5120 
L 1741 5101 
L 506 5101 
z
" transform="scale(0.015625)"/>
      <path id="NotoSansCJKjp-Regular-9e18" d="M 4762 2029 
L 4762 986 
C 4762 678 4794 582 4877 512 
C 4960 442 5101 416 5216 416 
C 5280 416 5472 416 5549 416 
C 5638 416 5760 429 5830 454 
C 5907 480 5971 538 6003 608 
C 6042 685 6061 883 6074 1062 
C 5965 1094 5830 1158 5760 1229 
C 5754 1050 5747 915 5728 851 
C 5709 800 5683 768 5651 755 
C 5626 742 5562 736 5504 736 
C 5440 736 5344 736 5293 736 
C 5242 736 5203 742 5178 762 
C 5146 787 5146 838 5146 934 
L 5146 2029 
L 4762 2029 
z
M 3910 2029 
C 3872 1274 3718 800 3072 538 
C 3149 474 3258 333 3302 250 
C 4051 576 4243 1139 4301 2029 
L 3910 2029 
z
M 525 5018 
C 877 4806 1286 4480 1466 4237 
L 1811 4550 
C 1606 4787 1190 5094 845 5293 
L 525 5018 
z
M 301 3686 
C 678 3488 1120 3174 1331 2938 
L 1658 3264 
C 1440 3494 986 3795 614 3981 
L 301 3686 
z
M 5427 5376 
C 4762 5171 3571 4992 2502 4883 
L 2163 4966 
L 2163 3424 
C 2163 2656 2099 1658 1542 902 
C 1645 851 1805 710 1856 614 
C 2477 1453 2573 2598 2573 3418 
L 2573 4538 
C 3066 4582 3590 4640 4096 4717 
L 4096 3859 
L 3008 3859 
L 3008 2835 
C 3008 2170 2925 1286 2362 634 
C 2451 589 2611 467 2688 390 
C 3290 1088 3398 2099 3398 2829 
L 3398 3546 
L 4109 3546 
L 4109 3136 
L 3514 3091 
L 3546 2797 
L 4109 2848 
L 4109 2707 
C 4109 2342 4218 2253 4672 2253 
C 4755 2253 5331 2253 5434 2253 
C 5734 2253 5843 2349 5888 2707 
C 5779 2733 5638 2778 5555 2835 
C 5542 2592 5517 2566 5376 2566 
C 5267 2566 4794 2566 4710 2566 
C 4512 2566 4486 2579 4486 2707 
L 4486 2880 
L 5382 2963 
L 5350 3238 
L 4486 3168 
L 4486 3546 
L 5594 3546 
L 5485 3206 
L 5830 3091 
C 5914 3270 5997 3546 6067 3795 
L 5792 3878 
L 5722 3859 
L 4506 3859 
L 4506 4160 
L 5734 4160 
L 5734 4454 
L 4506 4454 
L 4506 4781 
C 4992 4864 5446 4960 5818 5069 
L 5427 5376 
z
M 1472 2400 
L 269 2400 
L 269 1958 
L 1024 1958 
L 1024 698 
C 762 435 461 179 218 -13 
L 461 -467 
C 749 -186 1024 83 1280 352 
C 1696 -141 2298 -365 3149 -390 
C 3885 -416 5306 -410 6042 -378 
C 6061 -237 6138 -26 6189 77 
C 5408 26 3872 6 3142 38 
C 2381 64 1792 275 1472 742 
L 1472 2400 
z
" transform="scale(0.015625)"/>
      <path id="NotoSansCJKjp-Regular-5cce" d="M 4915 5101 
C 5235 4896 5594 4595 5766 4384 
L 6042 4659 
C 5869 4877 5498 5165 5184 5350 
L 4915 5101 
z
M 2669 3411 
L 2669 3040 
L 4205 3040 
L 4205 3411 
L 2669 3411 
z
M 544 4973 
C 922 4787 1370 4499 1594 4288 
L 1882 4678 
C 1651 4890 1190 5152 819 5318 
L 544 4973 
z
M 243 3238 
C 621 3078 1075 2803 1299 2598 
L 1581 2995 
C 1344 3194 883 3443 506 3590 
L 243 3238 
z
M 339 -141 
L 768 -390 
C 1056 218 1382 1050 1626 1747 
L 1242 2003 
C 979 1248 602 378 339 -141 
z
M 2707 2534 
L 2707 416 
L 3053 416 
L 3053 800 
L 4173 800 
L 4173 2534 
L 2707 2534 
z
M 3053 2163 
L 3821 2163 
L 3821 1178 
L 3053 1178 
L 3053 2163 
z
M 4282 5312 
L 4320 4352 
L 1971 4352 
L 1971 2630 
C 1971 1754 1907 576 1338 -275 
C 1434 -320 1626 -448 1702 -525 
C 2304 371 2400 1690 2400 2630 
L 2400 3917 
L 4339 3917 
C 4403 2835 4499 1875 4646 1133 
C 4294 608 3853 179 3309 -147 
C 3405 -224 3571 -384 3635 -467 
C 4077 -173 4454 179 4781 595 
C 4979 -96 5261 -499 5638 -512 
C 5875 -518 6112 -237 6240 806 
C 6157 838 5965 954 5888 1043 
C 5837 410 5760 45 5638 51 
C 5434 64 5254 448 5114 1082 
C 5491 1696 5766 2419 5965 3270 
L 5536 3354 
C 5408 2752 5229 2208 4992 1728 
C 4896 2349 4826 3098 4781 3917 
L 6067 3917 
L 6067 4352 
L 4755 4352 
L 4730 5312 
L 4282 5312 
z
" transform="scale(0.015625)"/>
      <path id="NotoSansCJKjp-Regular-e6c0" d="M 3200 3482 
C 3456 3482 3686 3667 3686 3962 
C 3686 4256 3456 4442 3200 4442 
C 2944 4442 2714 4256 2714 3962 
C 2714 3667 2944 3482 3200 3482 
z
M 3200 346 
C 3456 346 3686 538 3686 826 
C 3686 1120 3456 1312 3200 1312 
C 2944 1312 2714 1120 2714 826 
C 2714 538 2944 346 3200 346 
z
" transform="scale(0.015625)"/>
      <path id="Cmmi10-74" d="M 934 1403 
Q 934 1006 1092 707 
Q 1250 409 1547 246 
Q 1844 84 2234 84 
Q 2616 84 2959 264 
Q 3303 444 3391 781 
L 3531 1331 
Q 3534 1350 3537 1370 
Q 3541 1391 3541 1403 
Q 3541 1469 3500 1478 
Q 3341 1522 2859 1522 
Q 2797 1522 2797 1606 
Q 2816 1684 2831 1715 
Q 2847 1747 2906 1747 
L 4556 1747 
Q 4622 1747 4622 1663 
Q 4619 1647 4609 1609 
Q 4600 1572 4584 1547 
Q 4569 1522 4538 1522 
Q 4325 1522 4226 1487 
Q 4128 1453 4091 1306 
L 3950 756 
L 3769 44 
Q 3759 0 3713 0 
Q 3659 0 3559 144 
Q 3459 288 3419 384 
Q 3197 122 2825 -9 
Q 2453 -141 2059 -141 
Q 1563 -141 1164 84 
Q 766 309 545 709 
Q 325 1109 325 1613 
Q 325 2150 564 2673 
Q 803 3197 1212 3611 
Q 1622 4025 2142 4269 
Q 2663 4513 3194 4513 
Q 3406 4513 3601 4447 
Q 3797 4381 3964 4251 
Q 4131 4122 4238 3950 
L 4744 4500 
Q 4744 4513 4775 4513 
L 4813 4513 
Q 4838 4513 4855 4492 
Q 4872 4472 4872 4447 
L 4434 2719 
Q 4434 2675 4384 2675 
L 4269 2675 
Q 4219 2675 4219 2747 
Q 4244 2888 4244 3078 
Q 4244 3394 4137 3672 
Q 4031 3950 3806 4119 
Q 3581 4288 3256 4288 
Q 2741 4288 2303 4027 
Q 1866 3766 1562 3337 
Q 1259 2909 1096 2396 
Q 934 1884 934 1403 
z
" transform="scale(0.015625)"/>
      <path id="Cmmi10-2d" d="M 325 0 
Q 263 0 263 84 
Q 266 100 275 137 
Q 284 175 300 200 
Q 316 225 347 225 
Q 956 225 1056 616 
L 1888 3956 
Q 1900 4019 1900 4044 
Q 1900 4113 1825 4122 
Q 1703 4147 1363 4147 
Q 1300 4147 1300 4231 
Q 1303 4247 1312 4286 
Q 1322 4325 1339 4348 
Q 1356 4372 1381 4372 
L 2509 4372 
Q 2581 4372 2591 4300 
L 3091 634 
L 5422 4300 
Q 5466 4372 5544 4372 
L 6631 4372 
Q 6694 4372 6694 4288 
Q 6691 4272 6681 4233 
Q 6672 4194 6655 4170 
Q 6638 4147 6613 4147 
Q 6222 4147 6069 4103 
Q 5984 4075 5947 3928 
L 5069 416 
Q 5056 353 5056 325 
Q 5056 300 5064 283 
Q 5072 266 5086 261 
Q 5100 256 5131 250 
Q 5253 225 5594 225 
Q 5656 225 5656 141 
Q 5634 50 5621 25 
Q 5609 0 5550 0 
L 3878 0 
Q 3816 0 3816 84 
Q 3819 100 3828 139 
Q 3838 178 3855 201 
Q 3872 225 3897 225 
Q 4288 225 4441 269 
Q 4525 297 4563 441 
L 5484 4147 
L 2900 72 
Q 2863 0 2772 0 
Q 2691 0 2681 72 
L 2138 4097 
L 1259 588 
Q 1253 572 1250 548 
Q 1247 525 1241 494 
Q 1241 328 1386 276 
Q 1531 225 1741 225 
Q 1806 225 1806 141 
Q 1784 56 1770 28 
Q 1756 0 1697 0 
L 325 0 
z
" transform="scale(0.015625)"/>
      <path id="Cmr10-77" d="M 1984 -1588 
Q 1628 -1306 1370 -942 
Q 1113 -578 948 -165 
Q 784 247 703 697 
Q 622 1147 622 1600 
Q 622 2059 703 2509 
Q 784 2959 951 3375 
Q 1119 3791 1378 4153 
Q 1638 4516 1984 4788 
Q 1984 4800 2016 4800 
L 2075 4800 
Q 2094 4800 2109 4783 
Q 2125 4766 2125 4744 
Q 2125 4716 2113 4703 
Q 1800 4397 1592 4047 
Q 1384 3697 1257 3301 
Q 1131 2906 1075 2482 
Q 1019 2059 1019 1600 
Q 1019 -434 2106 -1491 
Q 2125 -1509 2125 -1544 
Q 2125 -1559 2108 -1579 
Q 2091 -1600 2075 -1600 
L 2016 -1600 
Q 1984 -1600 1984 -1588 
z
" transform="scale(0.015625)"/>
      <path id="Cmr10-4c" d="M 481 1472 
Q 428 1472 393 1512 
Q 359 1553 359 1600 
Q 359 1647 393 1687 
Q 428 1728 481 1728 
L 2363 1728 
L 2363 3616 
Q 2363 3666 2400 3698 
Q 2438 3731 2491 3731 
Q 2538 3731 2578 3698 
Q 2619 3666 2619 3616 
L 2619 1728 
L 4500 1728 
Q 4547 1728 4581 1687 
Q 4616 1647 4616 1600 
Q 4616 1553 4581 1512 
Q 4547 1472 4500 1472 
L 2619 1472 
L 2619 -416 
Q 2619 -466 2578 -498 
Q 2538 -531 2491 -531 
Q 2438 -531 2400 -498 
Q 2363 -466 2363 -416 
L 2363 1472 
L 481 1472 
z
" transform="scale(0.015625)"/>
      <path id="Cmr10-44" d="M 416 -1600 
Q 359 -1600 359 -1544 
Q 359 -1516 372 -1503 
Q 1466 -434 1466 1600 
Q 1466 3634 384 4691 
Q 359 4706 359 4744 
Q 359 4766 376 4783 
Q 394 4800 416 4800 
L 475 4800 
Q 494 4800 506 4788 
Q 966 4425 1272 3906 
Q 1578 3388 1720 2800 
Q 1863 2213 1863 1600 
Q 1863 1147 1786 708 
Q 1709 269 1542 -157 
Q 1375 -584 1119 -945 
Q 863 -1306 506 -1588 
Q 494 -1600 475 -1600 
L 416 -1600 
z
" transform="scale(0.015625)"/>
     </defs>
     <use xlink:href="#NotoSansCJKjp-Regular-33d0" transform="translate(0 0.83358)"/>
     <use xlink:href="#NotoSansCJKjp-Regular-8f90" transform="translate(99.999908 0.83358)"/>
     <use xlink:href="#NotoSansCJKjp-Regular-a106" transform="translate(199.999817 0.83358)"/>
     <use xlink:href="#NotoSansCJKjp-Regular-2c71" transform="translate(299.999725 0.83358)"/>
     <use xlink:href="#NotoSansCJKjp-Regular-2c76" transform="translate(399.999634 0.83358)"/>
     <use xlink:href="#NotoSansCJKjp-Regular-9d6d" transform="translate(499.999542 0.83358)"/>
     <use xlink:href="#NotoSansCJKjp-Regular-4231" transform="translate(599.999451 0.83358)"/>
     <use xlink:href="#NotoSansCJKjp-Regular-a918" transform="translate(699.999359 0.83358)"/>
     <use xlink:href="#NotoSansCJKjp-Regular-b0d5" transform="translate(799.999268 0.83358)"/>
     <use xlink:href="#NotoSansCJKjp-Regular-4231" transform="translate(899.999176 0.83358)"/>
     <use xlink:href="#NotoSansCJKjp-Regular-9e18" transform="translate(999.999084 0.83358)"/>
     <use xlink:href="#NotoSansCJKjp-Regular-5cce" transform="translate(1099.998993 0.83358)"/>
     <use xlink:href="#NotoSansCJKjp-Regular-e6c0" transform="translate(1199.998901 0.83358)"/>
     <use xlink:href="#Cmmi10-2f" transform="translate(1299.99881 0.83358)"/>
     <use xlink:href="#Cmr10-29" transform="translate(1367.703945 0.83358)"/>
     <use xlink:href="#Cmmi10-74" transform="translate(1570.639549 68.484375)"/>
     <use xlink:href="#Cmmi10-2d" transform="translate(1649.252831 68.484375)"/>
     <use xlink:href="#Cmr10-77" transform="translate(1471.639549 -83.957217)"/>
     <use xlink:href="#Cmmi10-70" transform="translate(1510.457909 -83.957217)"/>
     <use xlink:href="#Cmr10-4c" transform="translate(1606.336872 -83.957217)"/>
     <use xlink:href="#Cmmi10-5f" transform="translate(1704.022476 -83.957217)"/>
     <use xlink:href="#Cmr10-44" transform="translate(1761.639664 -83.957217)"/>
     <use xlink:href="#Cmr10-31" transform="translate(1804.462314 -42.667982) scale(0.7)"/>
     <path d="M 1471.639549 22.70858 
L 1471.639549 28.95858 
L 1845.182729 28.95858 
L 1845.182729 22.70858 
L 1471.639549 22.70858 
z
"/>
    </g>
   </g>
  </g>
 </g>
 <defs>
  <clipPath id="p3fadcb45b3">
   <rect x="45.08" y="42.06" width="390.6" height="243.936"/>
  </clipPath>
 </defs>
</svg>
