<?xml version="1.0" encoding="utf-8" standalone="no"?>
<!DOCTYPE svg PUBLIC "-//W3C//DTD SVG 1.1//EN"
  "http://www.w3.org/Graphics/SVG/1.1/DTD/svg11.dtd">
<svg xmlns:xlink="http://www.w3.org/1999/xlink" width="343.872pt" height="387.536pt" viewBox="0 0 343.872 387.536" xmlns="http://www.w3.org/2000/svg" version="1.1">
 <metadata>
  <rdf:RDF xmlns:dc="http://purl.org/dc/elements/1.1/" xmlns:cc="http://creativecommons.org/ns#" xmlns:rdf="http://www.w3.org/1999/02/22-rdf-syntax-ns#">
   <cc:Work>
    <dc:type rdf:resource="http://purl.org/dc/dcmitype/StillImage"/>
    <dc:date>2026-06-20T18:00:56.328314</dc:date>
    <dc:format>image/svg+xml</dc:format>
    <dc:creator>
     <cc:Agent>
      <dc:title>Matplotlib v3.11.0, https://matplotlib.org/</dc:title>
     </cc:Agent>
    </dc:creator>
   </cc:Work>
  </rdf:RDF>
 </metadata>
 <defs>
  <style type="text/css">*{stroke-linejoin: round; stroke-linecap: butt}</style>
 </defs>
 <g id="figure_1">
  <g id="patch_1">
   <path d="M 0 387.536 
L 343.872 387.536 
L 343.872 0 
L 0 0 
z
" style="fill: #ffffff"/>
  </g>
  <g id="axes_1">
   <g id="patch_2">
    <path d="M 150.816 270.512 
C 173.220358 270.512 194.710107 261.610654 210.552381 245.768381 
C 226.394654 229.926107 235.296 208.436358 235.296 186.032 
C 235.296 163.627642 226.394654 142.137893 210.552381 126.295619 
C 194.710107 110.453346 173.220358 101.552 150.816 101.552 
C 128.411642 101.552 106.921893 110.453346 91.079619 126.295619 
C 75.237346 142.137893 66.336 163.627642 66.336 186.032 
C 66.336 208.436358 75.237346 229.926107 91.079619 245.768381 
C 106.921893 261.610654 128.411642 270.512 150.816 270.512 
z
" clip-path="url(#p34140f665c)" style="fill: #cfe3ff; stroke: #222831; stroke-width: 1.8; stroke-linejoin: miter"/>
   </g>
   <g id="text_1">
    <!-- 地球 -->
    <g style="fill: #222831" transform="translate(137.816 216.316) scale(0.13 -0.13)">
     <defs>
      <path id="NotoSansCJKjp-Regular-33d0" d="M 2746 4781 
L 2746 3027 
L 2054 2739 
L 2234 2310 
L 2746 2528 
L 2746 506 
C 2746 -192 2957 -365 3693 -365 
C 3859 -365 5094 -365 5274 -365 
C 5939 -365 6099 -83 6170 800 
C 6042 819 5850 896 5741 979 
C 5696 243 5632 70 5254 70 
C 4998 70 3923 70 3712 70 
C 3283 70 3206 141 3206 493 
L 3206 2726 
L 4064 3091 
L 4064 915 
L 4518 915 
L 4518 3283 
L 5414 3667 
C 5414 2637 5402 1926 5370 1773 
C 5338 1626 5280 1600 5178 1600 
C 5114 1600 4902 1600 4749 1613 
C 4806 1504 4845 1318 4864 1190 
C 5043 1190 5299 1190 5466 1242 
C 5658 1286 5779 1402 5818 1664 
C 5862 1914 5875 2874 5875 4077 
L 5901 4166 
L 5562 4294 
L 5472 4224 
L 5376 4134 
L 4518 3776 
L 4518 5376 
L 4064 5376 
L 4064 3584 
L 3206 3226 
L 3206 4781 
L 2746 4781 
z
M 211 986 
L 403 506 
C 966 755 1696 1082 2381 1402 
L 2272 1830 
L 1542 1523 
L 1542 3379 
L 2298 3379 
L 2298 3834 
L 1542 3834 
L 1542 5299 
L 1088 5299 
L 1088 3834 
L 269 3834 
L 269 3379 
L 1088 3379 
L 1088 1331 
C 755 1197 454 1075 211 986 
z
" transform="scale(0.015625)"/>
      <path id="NotoSansCJKjp-Regular-6776" d="M 1888 582 
L 2144 154 
C 2605 454 3194 851 3725 1229 
L 3578 1626 
C 2963 1229 2317 819 1888 582 
z
M 2406 3213 
C 2694 2842 2995 2342 3117 2022 
L 3507 2214 
C 3386 2541 3072 3027 2784 3379 
L 2406 3213 
z
M 5670 3450 
C 5466 3078 5107 2554 4838 2240 
L 5178 2042 
C 5459 2342 5811 2816 6093 3219 
L 5670 3450 
z
M 4806 5056 
C 5146 4858 5542 4550 5741 4326 
L 6022 4621 
C 5824 4838 5408 5133 5069 5318 
L 4806 5056 
z
M 205 768 
L 339 307 
C 928 506 1715 774 2451 1037 
L 2387 1459 
L 1555 1190 
L 1555 2586 
L 2278 2586 
L 2278 3034 
L 1555 3034 
L 1555 4384 
L 2374 4384 
L 2374 4832 
L 294 4832 
L 294 4384 
L 1088 4384 
L 1088 3034 
L 371 3034 
L 371 2586 
L 1088 2586 
L 1088 1043 
L 205 768 
z
M 3917 5382 
L 3917 4237 
L 2253 4237 
L 2253 3795 
L 3917 3795 
L 3917 96 
C 3917 -13 3872 -45 3770 -51 
C 3667 -51 3341 -58 2970 -45 
C 3040 -173 3123 -384 3142 -506 
C 3648 -506 3942 -493 4128 -416 
C 4301 -333 4378 -192 4378 96 
L 4378 1920 
C 4698 1101 5178 486 5958 -70 
C 6022 58 6150 211 6266 301 
C 5120 1069 4634 1971 4378 3584 
L 4378 3795 
L 6176 3795 
L 6176 4237 
L 4378 4237 
L 4378 5382 
L 3917 5382 
z
" transform="scale(0.015625)"/>
     </defs>
     <use xlink:href="#NotoSansCJKjp-Regular-33d0"/>
     <use xlink:href="#NotoSansCJKjp-Regular-6776" transform="translate(100 0)"/>
    </g>
   </g>
   <g id="text_2">
    <!-- 山頂的砲（水平發射） -->
    <g style="fill: #222831" transform="translate(95.816 72.8288) scale(0.11 -0.11)">
     <defs>
      <path id="NotoSansCJKjp-Regular-3e13" d="M 5261 3853 
L 5261 576 
L 3424 576 
L 3424 5242 
L 2925 5242 
L 2925 576 
L 1158 576 
L 1158 3846 
L 672 3846 
L 672 -435 
L 1158 -435 
L 1158 83 
L 5261 83 
L 5261 -410 
L 5747 -410 
L 5747 3853 
L 5261 3853 
z
" transform="scale(0.015625)"/>
      <path id="NotoSansCJKjp-Regular-abbc" d="M 3302 2694 
L 5434 2694 
L 5434 2074 
L 3302 2074 
L 3302 2694 
z
M 3302 1715 
L 5434 1715 
L 5434 1082 
L 3302 1082 
L 3302 1715 
z
M 3302 3667 
L 5434 3667 
L 5434 3053 
L 3302 3053 
L 3302 3667 
z
M 3552 602 
C 3232 326 2579 13 2035 -166 
C 2131 -256 2266 -410 2336 -506 
C 2893 -320 3558 13 3968 339 
L 3552 602 
z
M 4602 314 
C 5043 77 5600 -282 5869 -525 
L 6253 -230 
C 5958 13 5395 358 4966 576 
L 4602 314 
z
M 250 4960 
L 250 4506 
L 1280 4506 
L 1280 294 
C 1280 198 1242 166 1139 160 
C 1037 154 691 154 320 166 
C 390 32 454 -173 474 -301 
C 979 -307 1299 -294 1491 -218 
C 1677 -134 1747 0 1747 294 
L 1747 4506 
L 2534 4506 
L 2534 4960 
L 250 4960 
z
M 2848 4038 
L 2848 710 
L 5907 710 
L 5907 4038 
L 4390 4038 
L 4602 4659 
L 6138 4659 
L 6138 5075 
L 2637 5075 
L 2637 4659 
L 4058 4659 
C 4019 4454 3962 4230 3910 4038 
L 2848 4038 
z
" transform="scale(0.015625)"/>
      <path id="NotoSansCJKjp-Regular-6c33" d="M 3533 2707 
C 3885 2240 4320 1600 4512 1210 
L 4922 1466 
C 4710 1843 4269 2464 3904 2918 
L 3533 2707 
z
M 1536 5389 
C 1485 5082 1376 4659 1274 4346 
L 557 4346 
L 557 -346 
L 998 -346 
L 998 160 
L 2784 160 
L 2784 4346 
L 1715 4346 
C 1824 4621 1946 4979 2054 5299 
L 1536 5389 
z
M 998 3917 
L 2342 3917 
L 2342 2566 
L 998 2566 
L 998 3917 
z
M 998 595 
L 998 2144 
L 2342 2144 
L 2342 595 
L 998 595 
z
M 3827 5402 
C 3622 4518 3277 3635 2835 3066 
C 2950 3002 3149 2867 3238 2790 
C 3456 3098 3661 3488 3840 3923 
L 5478 3923 
C 5402 1357 5299 371 5094 154 
C 5018 64 4947 45 4819 45 
C 4672 45 4288 51 3866 83 
C 3955 -38 4013 -243 4026 -378 
C 4384 -397 4762 -410 4979 -390 
C 5210 -365 5350 -314 5498 -122 
C 5754 192 5843 1184 5939 4122 
C 5946 4186 5946 4365 5946 4365 
L 4013 4365 
C 4115 4666 4211 4986 4288 5299 
L 3827 5402 
z
" transform="scale(0.015625)"/>
      <path id="NotoSansCJKjp-Regular-6eeb" d="M 3398 5382 
C 3194 4614 2835 3859 2387 3373 
C 2496 3290 2682 3098 2758 3002 
C 2867 3123 2970 3264 3066 3418 
L 3066 3014 
L 4384 3014 
L 4384 2035 
L 2970 2035 
L 2970 256 
C 2970 -307 3181 -442 3885 -442 
C 4038 -442 5158 -442 5318 -442 
C 5965 -442 6112 -205 6182 749 
C 6054 774 5856 851 5747 928 
C 5715 122 5658 -6 5293 -6 
C 5043 -6 4102 -6 3910 -6 
C 3507 -6 3430 38 3430 256 
L 3430 1613 
L 4826 1613 
L 4826 3430 
L 3072 3430 
C 3213 3642 3341 3885 3462 4134 
L 5542 4134 
C 5510 2291 5478 1658 5376 1510 
C 5338 1440 5286 1421 5197 1421 
C 5094 1421 4870 1427 4621 1446 
C 4691 1331 4736 1146 4742 1011 
C 5005 998 5254 998 5414 1018 
C 5581 1037 5690 1088 5792 1229 
C 5939 1446 5971 2170 6010 4358 
C 6010 4422 6010 4582 6010 4582 
L 3654 4582 
C 3744 4806 3821 5030 3885 5261 
L 3398 5382 
z
M 774 3251 
L 774 3238 
C 621 2669 416 2157 147 1766 
C 243 1664 390 1440 442 1338 
C 563 1517 672 1715 774 1926 
L 774 -141 
L 1197 -141 
L 1197 339 
L 2483 339 
L 2483 3251 
L 1235 3251 
C 1344 3680 1440 4141 1510 4608 
L 2682 4608 
L 2682 5050 
L 294 5050 
L 294 4608 
L 1043 4608 
C 979 4134 890 3674 774 3251 
z
M 1197 2822 
L 2061 2822 
L 2061 762 
L 1197 762 
L 1197 2822 
z
" transform="scale(0.015625)"/>
      <path id="NotoSansCJKjp-Regular-e6ae" d="M 4448 2432 
C 4448 1184 4954 166 5722 -614 
L 6106 -416 
C 5370 346 4915 1293 4915 2432 
C 4915 3571 5370 4518 6106 5280 
L 5722 5478 
C 4954 4698 4448 3680 4448 2432 
z
" transform="scale(0.015625)"/>
      <path id="NotoSansCJKjp-Regular-59e1" d="M 352 3738 
L 352 3251 
L 2029 3251 
C 1709 1971 1030 1011 186 486 
C 307 416 493 224 576 109 
C 1517 742 2298 1946 2624 3629 
L 2298 3757 
L 2208 3738 
L 352 3738 
z
M 5523 4339 
C 5146 3827 4525 3187 4000 2739 
C 3782 3194 3603 3686 3462 4192 
L 3462 5363 
L 2957 5363 
L 2957 166 
C 2957 45 2912 6 2784 0 
C 2656 -6 2246 -6 1779 6 
C 1856 -134 1952 -378 1978 -518 
C 2573 -518 2938 -499 3155 -416 
C 3373 -326 3462 -173 3462 166 
L 3462 2925 
C 3974 1606 4742 525 5850 -19 
C 5939 122 6099 320 6221 416 
C 5370 787 4704 1485 4205 2349 
C 4762 2790 5453 3462 5965 4026 
L 5523 4339 
z
" transform="scale(0.015625)"/>
      <path id="NotoSansCJKjp-Regular-41d6" d="M 1114 4032 
C 1363 3558 1613 2938 1702 2554 
L 2157 2714 
C 2067 3085 1805 3699 1549 4160 
L 1114 4032 
z
M 4832 4192 
C 4672 3725 4378 3072 4134 2669 
L 4550 2534 
C 4800 2918 5101 3533 5338 4051 
L 4832 4192 
z
M 333 2227 
L 333 1747 
L 2938 1747 
L 2938 -506 
L 3437 -506 
L 3437 1747 
L 6074 1747 
L 6074 2227 
L 3437 2227 
L 3437 4467 
L 5715 4467 
L 5715 4947 
L 672 4947 
L 672 4467 
L 2938 4467 
L 2938 2227 
L 333 2227 
z
" transform="scale(0.015625)"/>
      <path id="NotoSansCJKjp-Regular-6c29" d="M 3270 3456 
L 3270 2957 
C 3270 2643 3181 2298 2669 2022 
C 2758 1965 2918 1805 2982 1722 
C 3552 2048 3680 2528 3680 2944 
L 3680 3072 
L 4550 3072 
L 4550 2490 
C 4550 2182 4582 2086 4666 2010 
C 4755 1933 4896 1907 5018 1907 
C 5088 1907 5261 1907 5338 1907 
C 5421 1907 5549 1920 5619 1946 
C 5702 1971 5773 2016 5811 2093 
C 5850 2163 5869 2349 5882 2515 
C 5766 2547 5613 2624 5530 2694 
C 5523 2534 5517 2419 5504 2362 
C 5485 2310 5459 2285 5427 2272 
C 5408 2259 5344 2259 5293 2259 
C 5235 2259 5146 2259 5101 2259 
C 5050 2259 5018 2266 4998 2278 
C 4973 2304 4966 2362 4966 2458 
L 4966 3309 
C 5254 3149 5562 3014 5888 2912 
C 5952 3034 6080 3200 6176 3296 
C 5786 3398 5421 3552 5088 3744 
C 5382 3936 5715 4198 5984 4442 
L 5632 4691 
C 5421 4467 5056 4166 4768 3949 
C 4595 4070 4442 4198 4294 4339 
C 4589 4544 4941 4826 5216 5082 
L 4864 5331 
C 4666 5114 4333 4819 4051 4602 
C 3853 4838 3680 5101 3552 5376 
L 3168 5254 
C 3507 4518 4045 3898 4730 3456 
L 3270 3456 
z
M 4947 1248 
C 4787 954 4570 710 4307 512 
C 4026 717 3802 966 3654 1248 
L 4947 1248 
z
M 3034 1600 
L 3034 1248 
L 3526 1248 
L 3264 1171 
C 3424 826 3654 525 3942 275 
C 3565 70 3130 -77 2669 -160 
C 2746 -256 2835 -416 2880 -518 
C 3398 -403 3878 -230 4288 19 
C 4685 -230 5165 -410 5715 -512 
C 5773 -390 5901 -211 5997 -109 
C 5498 -38 5043 96 4672 288 
C 5037 602 5331 998 5510 1510 
L 5242 1613 
L 5165 1600 
L 3034 1600 
z
M 717 4346 
C 960 4192 1254 3968 1434 3789 
C 1043 3520 608 3315 179 3181 
C 262 3098 384 2931 442 2822 
C 659 2899 877 2989 1088 3098 
L 1088 3046 
L 2221 3046 
L 2221 2374 
L 922 2374 
C 845 1907 717 1306 614 922 
L 1011 851 
L 1056 1030 
L 2202 1030 
C 2131 346 2061 45 1958 -51 
C 1907 -96 1843 -102 1722 -102 
C 1594 -102 1248 -102 890 -64 
C 973 -179 1024 -352 1037 -480 
C 1382 -499 1722 -499 1894 -493 
C 2086 -480 2208 -448 2317 -333 
C 2490 -173 2566 237 2650 1210 
C 2662 1274 2669 1402 2669 1402 
L 1139 1402 
L 1261 1997 
L 2221 1997 
L 2221 1894 
L 2650 1894 
L 2650 3430 
L 1658 3430 
C 2234 3821 2726 4333 3008 4973 
L 2707 5126 
L 2630 5107 
L 883 5107 
L 883 4710 
L 2374 4710 
C 2214 4467 2003 4237 1766 4038 
C 1581 4218 1261 4448 992 4602 
L 717 4346 
z
" transform="scale(0.015625)"/>
      <path id="NotoSansCJKjp-Regular-3d63" d="M 3494 2528 
C 3776 2061 4038 1440 4122 1050 
L 4563 1229 
C 4474 1626 4192 2227 3898 2688 
L 3494 2528 
z
M 1222 3366 
L 2496 3366 
L 2496 2816 
L 1222 2816 
L 1222 3366 
z
M 1222 3731 
L 1222 4275 
L 2496 4275 
L 2496 3731 
L 1222 3731 
z
M 1222 2451 
L 2496 2451 
L 2496 2189 
L 2349 1984 
L 1222 1843 
L 1222 2451 
z
M 250 1728 
L 320 1293 
C 787 1357 1363 1440 1958 1530 
C 1440 986 813 531 147 205 
C 243 122 410 -58 474 -154 
C 1216 250 1920 806 2496 1485 
L 2496 51 
C 2496 -45 2464 -70 2368 -77 
C 2272 -83 1971 -90 1638 -77 
C 1702 -192 1773 -390 1792 -512 
C 2246 -512 2534 -506 2714 -429 
C 2880 -352 2944 -218 2944 45 
L 2944 2074 
C 3053 2234 3155 2406 3251 2579 
L 2944 2682 
L 2944 4659 
L 1914 4659 
C 2010 4851 2106 5082 2195 5299 
L 1651 5382 
C 1606 5171 1510 4883 1421 4659 
L 787 4659 
L 787 1792 
L 250 1728 
z
M 4973 5344 
L 4973 3802 
L 3187 3802 
L 3187 3354 
L 4973 3354 
L 4973 102 
C 4973 -13 4928 -45 4813 -51 
C 4710 -51 4352 -58 3949 -45 
C 4019 -173 4102 -384 4128 -506 
C 4666 -512 4979 -499 5178 -416 
C 5370 -339 5446 -198 5446 102 
L 5446 3354 
L 6144 3354 
L 6144 3802 
L 5446 3802 
L 5446 5344 
L 4973 5344 
z
" transform="scale(0.015625)"/>
      <path id="NotoSansCJKjp-Regular-e6af" d="M 1952 2432 
C 1952 3680 1446 4698 678 5478 
L 294 5280 
C 1030 4518 1485 3571 1485 2432 
C 1485 1293 1030 346 294 -416 
L 678 -614 
C 1446 166 1952 1184 1952 2432 
z
" transform="scale(0.015625)"/>
     </defs>
     <use xlink:href="#NotoSansCJKjp-Regular-3e13"/>
     <use xlink:href="#NotoSansCJKjp-Regular-abbc" transform="translate(100 0)"/>
     <use xlink:href="#NotoSansCJKjp-Regular-6c33" transform="translate(200 0)"/>
     <use xlink:href="#NotoSansCJKjp-Regular-6eeb" transform="translate(300 0)"/>
     <use xlink:href="#NotoSansCJKjp-Regular-e6ae" transform="translate(400 0)"/>
     <use xlink:href="#NotoSansCJKjp-Regular-59e1" transform="translate(500 0)"/>
     <use xlink:href="#NotoSansCJKjp-Regular-41d6" transform="translate(600 0)"/>
     <use xlink:href="#NotoSansCJKjp-Regular-6c29" transform="translate(700 0)"/>
     <use xlink:href="#NotoSansCJKjp-Regular-3d63" transform="translate(800 0)"/>
     <use xlink:href="#NotoSansCJKjp-Regular-e6af" transform="translate(900 0)"/>
    </g>
   </g>
   <g id="text_3">
    <!-- 初速小： -->
    <g style="fill: #1a7f37" transform="translate(211.072 66.208) scale(0.1 -0.1)">
     <defs>
      <path id="NotoSansCJKjp-Regular-2ba3" d="M 2650 4787 
L 2650 4333 
L 3738 4333 
C 3706 2656 3590 781 2176 -160 
C 2304 -243 2464 -397 2547 -518 
C 4026 531 4173 2509 4224 4333 
L 5523 4333 
C 5459 1421 5376 358 5178 128 
C 5114 45 5050 19 4928 19 
C 4787 19 4448 19 4064 58 
C 4154 -90 4211 -301 4218 -442 
C 4563 -461 4915 -467 5133 -442 
C 5350 -416 5491 -352 5626 -154 
C 5869 166 5939 1248 6010 4518 
C 6016 4589 6016 4787 6016 4787 
L 2650 4787 
z
M 2541 2995 
C 2432 2803 2221 2515 2054 2310 
L 1818 2541 
C 2157 3008 2445 3520 2650 4038 
L 2381 4224 
L 2291 4198 
L 1754 4198 
L 1754 5376 
L 1280 5376 
L 1280 4198 
L 346 4198 
L 346 3763 
L 2054 3763 
C 1632 2880 877 1997 166 1504 
C 250 1421 384 1197 435 1082 
C 717 1293 1005 1568 1280 1875 
L 1280 -512 
L 1754 -512 
L 1754 2099 
C 2016 1798 2336 1408 2477 1203 
L 2771 1568 
L 2278 2080 
C 2451 2266 2656 2509 2861 2739 
L 2541 2995 
z
" transform="scale(0.015625)"/>
      <path id="NotoSansCJKjp-Regular-9d6d" d="M 384 4934 
C 794 4646 1274 4218 1478 3904 
L 1862 4224 
C 1632 4531 1152 4947 730 5222 
L 384 4934 
z
M 1677 2848 
L 314 2848 
L 314 2400 
L 1210 2400 
L 1210 768 
C 890 499 518 230 230 32 
L 480 -461 
C 826 -173 1152 102 1459 378 
C 1869 -128 2445 -358 3283 -390 
C 3994 -416 5318 -403 6016 -371 
C 6035 -224 6118 6 6176 115 
C 5414 64 3981 45 3283 77 
C 2541 102 1978 326 1677 794 
L 1677 2848 
z
M 2752 3379 
L 3757 3379 
L 3757 2560 
L 2752 2560 
L 2752 3379 
z
M 4224 3379 
L 5286 3379 
L 5286 2560 
L 4224 2560 
L 4224 3379 
z
M 3757 5370 
L 3757 4710 
L 2035 4710 
L 2035 4294 
L 3757 4294 
L 3757 3763 
L 2304 3763 
L 2304 2176 
L 3501 2176 
C 3130 1638 2502 1120 1920 870 
C 2022 781 2163 621 2227 506 
C 2778 787 3360 1306 3757 1875 
L 3757 314 
L 4224 314 
L 4224 1850 
C 4640 1318 5235 800 5754 525 
C 5824 640 5971 806 6080 896 
C 5510 1146 4845 1658 4442 2176 
L 5754 2176 
L 5754 3763 
L 4224 3763 
L 4224 4294 
L 6048 4294 
L 6048 4710 
L 4224 4710 
L 4224 5370 
L 3757 5370 
z
" transform="scale(0.015625)"/>
      <path id="NotoSansCJKjp-Regular-3d78" d="M 2970 5286 
L 2970 154 
C 2970 26 2918 -13 2790 -19 
C 2656 -26 2195 -32 1728 -13 
C 1805 -147 1894 -378 1926 -512 
C 2528 -518 2925 -506 3162 -422 
C 3392 -346 3488 -198 3488 154 
L 3488 5286 
L 2970 5286 
z
M 4512 3654 
C 5062 2733 5581 1536 5728 774 
L 6246 986 
C 6080 1754 5536 2931 4973 3827 
L 4512 3654 
z
M 1293 3782 
C 1133 2925 774 1818 205 1139 
C 339 1082 550 966 659 883 
C 1242 1594 1619 2752 1830 3693 
L 1293 3782 
z
" transform="scale(0.015625)"/>
      <path id="NotoSansCJKjp-Regular-e6c0" d="M 3200 3482 
C 3456 3482 3686 3667 3686 3962 
C 3686 4256 3456 4442 3200 4442 
C 2944 4442 2714 4256 2714 3962 
C 2714 3667 2944 3482 3200 3482 
z
M 3200 346 
C 3456 346 3686 538 3686 826 
C 3686 1120 3456 1312 3200 1312 
C 2944 1312 2714 1120 2714 826 
C 2714 538 2944 346 3200 346 
z
" transform="scale(0.015625)"/>
     </defs>
     <use xlink:href="#NotoSansCJKjp-Regular-2ba3"/>
     <use xlink:href="#NotoSansCJKjp-Regular-9d6d" transform="translate(100 0)"/>
     <use xlink:href="#NotoSansCJKjp-Regular-3d78" transform="translate(200 0)"/>
     <use xlink:href="#NotoSansCJKjp-Regular-e6c0" transform="translate(300 0)"/>
    </g>
    <!-- 很快落地 -->
    <g style="fill: #1a7f37" transform="translate(211.072 76.208) scale(0.1 -0.1)">
     <defs>
      <path id="NotoSansCJKjp-Regular-43ec" d="M 1651 5370 
C 1357 4902 762 4352 230 4006 
C 307 3910 435 3718 486 3616 
C 1082 4000 1715 4621 2106 5190 
L 1651 5370 
z
M 3142 4646 
L 5274 4646 
L 5274 3853 
L 3142 3853 
L 3142 4646 
z
M 3142 2650 
L 3142 3437 
L 5274 3437 
L 5274 2650 
L 3142 2650 
z
M 5715 2003 
C 5466 1760 5075 1459 4736 1229 
C 4563 1530 4422 1862 4320 2221 
L 5754 2221 
L 5754 5075 
L 2656 5075 
L 2656 147 
L 2035 51 
L 2170 -403 
C 2822 -288 3731 -128 4576 32 
L 4544 461 
L 3142 224 
L 3142 2221 
L 3878 2221 
C 4218 941 4858 -51 5901 -518 
C 5965 -384 6112 -198 6221 -102 
C 5702 102 5280 448 4954 896 
C 5306 1126 5734 1434 6061 1728 
L 5715 2003 
z
M 1862 4109 
C 1453 3411 781 2726 147 2285 
C 230 2182 371 1952 422 1850 
C 678 2042 934 2272 1190 2528 
L 1190 -506 
L 1658 -506 
L 1658 3046 
C 1901 3334 2118 3635 2298 3942 
L 1862 4109 
z
" transform="scale(0.015625)"/>
      <path id="NotoSansCJKjp-Regular-448d" d="M 1088 5376 
L 1088 -506 
L 1568 -506 
L 1568 5376 
L 1088 5376 
z
M 512 4141 
C 467 3622 352 2918 179 2496 
L 557 2362 
C 730 2829 845 3571 877 4090 
L 512 4141 
z
M 1581 4198 
C 1773 3814 1978 3309 2054 3002 
L 2413 3181 
C 2336 3482 2118 3974 1920 4346 
L 1581 4198 
z
M 5152 2438 
L 4160 2438 
C 4186 2714 4192 2982 4192 3245 
L 4192 3904 
L 5152 3904 
L 5152 2438 
z
M 3712 5376 
L 3712 4358 
L 2458 4358 
L 2458 3904 
L 3712 3904 
L 3712 3245 
C 3712 2989 3706 2714 3680 2438 
L 2112 2438 
L 2112 1971 
L 3616 1971 
C 3450 1184 3027 397 1901 -166 
C 2010 -256 2176 -435 2240 -538 
C 3315 58 3802 851 4019 1664 
C 4390 659 4986 -134 5888 -531 
C 5958 -390 6118 -186 6234 -83 
C 5338 243 4723 1024 4378 1971 
L 6176 1971 
L 6176 2438 
L 5626 2438 
L 5626 4358 
L 4192 4358 
L 4192 5376 
L 3712 5376 
z
" transform="scale(0.015625)"/>
      <path id="NotoSansCJKjp-Regular-86fd" d="M 397 -115 
L 742 -486 
C 1139 -13 1600 614 1965 1152 
L 1670 1491 
C 1267 915 749 269 397 -115 
z
M 698 3706 
C 1056 3520 1542 3219 1779 3027 
L 2067 3392 
C 1824 3584 1331 3859 973 4032 
L 698 3706 
z
M 262 2464 
C 646 2291 1120 2003 1357 1805 
L 1645 2170 
C 1408 2374 915 2643 544 2797 
L 262 2464 
z
M 3328 4166 
C 3053 3686 2547 3078 1882 2637 
C 1990 2573 2138 2438 2221 2342 
C 2483 2534 2720 2746 2931 2963 
C 3162 2739 3437 2515 3738 2317 
C 3162 2003 2509 1766 1907 1632 
C 1997 1536 2106 1357 2150 1235 
L 2579 1363 
L 2579 -512 
L 3034 -512 
L 3034 -237 
L 5062 -237 
L 5062 -512 
L 5536 -512 
L 5536 1402 
L 2701 1402 
C 3194 1568 3686 1786 4147 2061 
C 4717 1722 5344 1453 5933 1286 
C 6003 1402 6131 1581 6234 1683 
C 5677 1824 5088 2048 4550 2323 
C 5024 2656 5427 3059 5702 3520 
L 5402 3706 
L 5318 3686 
L 3539 3686 
C 3635 3814 3725 3942 3802 4070 
L 3328 4166 
z
M 3034 147 
L 3034 1018 
L 5062 1018 
L 5062 147 
L 3034 147 
z
M 5018 3309 
C 4787 3034 4486 2778 4141 2554 
C 3776 2771 3450 3021 3213 3270 
L 3245 3309 
L 5018 3309 
z
M 390 4928 
L 390 4499 
L 1843 4499 
L 1843 3955 
L 2310 3955 
L 2310 4499 
L 4051 4499 
L 4051 3955 
L 4518 3955 
L 4518 4499 
L 6022 4499 
L 6022 4928 
L 4518 4928 
L 4518 5376 
L 4051 5376 
L 4051 4928 
L 2310 4928 
L 2310 5376 
L 1843 5376 
L 1843 4928 
L 390 4928 
z
" transform="scale(0.015625)"/>
     </defs>
     <use xlink:href="#NotoSansCJKjp-Regular-43ec"/>
     <use xlink:href="#NotoSansCJKjp-Regular-448d" transform="translate(100 0)"/>
     <use xlink:href="#NotoSansCJKjp-Regular-86fd" transform="translate(200 0)"/>
     <use xlink:href="#NotoSansCJKjp-Regular-33d0" transform="translate(300 0)"/>
    </g>
   </g>
   <g id="text_4">
    <!-- 初速較大： -->
    <g style="fill: #bf8700" transform="translate(276.1904 146.464) scale(0.1 -0.1)">
     <defs>
      <path id="NotoSansCJKjp-Regular-9b33" d="M 4954 3789 
C 5280 3366 5645 2803 5792 2438 
L 6202 2662 
C 6042 3021 5664 3571 5331 3981 
L 4954 3789 
z
M 3763 3955 
C 3558 3469 3238 2989 2867 2662 
C 2982 2598 3168 2464 3258 2387 
C 3616 2746 3981 3290 4211 3840 
L 3763 3955 
z
M 3014 4538 
L 3014 4102 
L 6125 4102 
L 6125 4538 
L 4806 4538 
L 4806 5382 
L 4339 5382 
L 4339 4538 
L 3014 4538 
z
M 5133 2720 
C 5018 2195 4826 1728 4557 1325 
C 4288 1741 4083 2208 3936 2707 
L 3520 2605 
C 3706 1990 3955 1427 4269 947 
C 3866 474 3341 109 2688 -166 
C 2784 -250 2931 -422 2995 -531 
C 3622 -250 4134 115 4544 570 
C 4922 96 5376 -282 5907 -531 
C 5978 -410 6118 -230 6227 -141 
C 5683 83 5216 461 4838 934 
C 5178 1408 5427 1971 5587 2624 
L 5133 2720 
z
M 461 3782 
L 461 1555 
L 1414 1555 
L 1414 1030 
L 250 1030 
L 250 608 
L 1414 608 
L 1414 -518 
L 1850 -518 
L 1850 608 
L 3046 608 
L 3046 1030 
L 1850 1030 
L 1850 1555 
L 2822 1555 
L 2822 3782 
L 1850 3782 
L 1850 4256 
L 2912 4256 
L 2912 4678 
L 1850 4678 
L 1850 5376 
L 1414 5376 
L 1414 4678 
L 320 4678 
L 320 4256 
L 1414 4256 
L 1414 3782 
L 461 3782 
z
M 832 2502 
L 1453 2502 
L 1453 1914 
L 832 1914 
L 832 2502 
z
M 1811 2502 
L 2438 2502 
L 2438 1914 
L 1811 1914 
L 1811 2502 
z
M 832 3424 
L 1453 3424 
L 1453 2848 
L 832 2848 
L 832 3424 
z
M 1811 3424 
L 2438 3424 
L 2438 2848 
L 1811 2848 
L 1811 3424 
z
" transform="scale(0.015625)"/>
      <path id="NotoSansCJKjp-Regular-36fb" d="M 2950 5370 
C 2944 4864 2950 4218 2854 3539 
L 397 3539 
L 397 3046 
L 2771 3046 
C 2515 1830 1875 589 275 -102 
C 410 -205 563 -378 640 -499 
C 2202 218 2893 1446 3206 2682 
C 3706 1222 4531 90 5773 -499 
C 5856 -358 6010 -160 6131 -51 
C 4890 467 4051 1632 3603 3046 
L 6029 3046 
L 6029 3539 
L 3366 3539 
C 3456 4211 3462 4851 3469 5370 
L 2950 5370 
z
" transform="scale(0.015625)"/>
     </defs>
     <use xlink:href="#NotoSansCJKjp-Regular-2ba3"/>
     <use xlink:href="#NotoSansCJKjp-Regular-9d6d" transform="translate(100 0)"/>
     <use xlink:href="#NotoSansCJKjp-Regular-9b33" transform="translate(200 0)"/>
     <use xlink:href="#NotoSansCJKjp-Regular-36fb" transform="translate(300 0)"/>
     <use xlink:href="#NotoSansCJKjp-Regular-e6c0" transform="translate(400 0)"/>
    </g>
    <!-- 落得更遠 -->
    <g style="fill: #bf8700" transform="translate(281.1904 156.464) scale(0.1 -0.1)">
     <defs>
      <path id="NotoSansCJKjp-Regular-4402" d="M 3085 3949 
L 5203 3949 
L 5203 3424 
L 3085 3424 
L 3085 3949 
z
M 3085 4813 
L 5203 4813 
L 5203 4301 
L 3085 4301 
L 3085 4813 
z
M 2618 5178 
L 2618 3059 
L 5683 3059 
L 5683 5178 
L 2618 5178 
z
M 2630 922 
C 2918 640 3264 243 3424 -13 
L 3789 250 
C 3622 499 3270 877 2970 1146 
L 2630 922 
z
M 1606 5363 
C 1325 4909 749 4371 243 4045 
C 320 3949 442 3757 499 3648 
C 1069 4032 1683 4627 2061 5184 
L 1606 5363 
z
M 2074 1664 
L 2074 1248 
L 4659 1248 
L 4659 26 
C 4659 -58 4634 -77 4531 -83 
C 4435 -96 4122 -96 3757 -83 
C 3821 -211 3891 -384 3917 -518 
C 4390 -518 4698 -512 4890 -442 
C 5088 -371 5139 -243 5139 19 
L 5139 1248 
L 6099 1248 
L 6099 1664 
L 5139 1664 
L 5139 2214 
L 5990 2214 
L 5990 2624 
L 2221 2624 
L 2221 2214 
L 4659 2214 
L 4659 1664 
L 2074 1664 
z
M 1722 3949 
C 1338 3290 723 2630 141 2208 
C 218 2093 352 1843 390 1741 
C 640 1939 896 2182 1146 2445 
L 1146 -506 
L 1613 -506 
L 1613 2995 
C 1811 3251 1990 3514 2144 3782 
L 1722 3949 
z
" transform="scale(0.015625)"/>
      <path id="NotoSansCJKjp-Regular-50ac" d="M 1613 1523 
L 1203 1357 
C 1421 986 1690 691 2003 454 
C 1613 230 1062 45 301 -96 
C 403 -205 531 -410 589 -518 
C 1421 -339 2016 -102 2445 179 
C 3328 -288 4506 -435 5997 -493 
C 6022 -333 6112 -128 6202 -19 
C 4768 19 3661 115 2835 486 
C 3168 813 3341 1184 3418 1581 
L 5587 1581 
L 5587 4058 
L 3488 4058 
L 3488 4602 
L 5984 4602 
L 5984 5037 
L 416 5037 
L 416 4602 
L 2989 4602 
L 2989 4058 
L 998 4058 
L 998 1581 
L 2912 1581 
C 2835 1274 2688 986 2394 730 
C 2086 934 1824 1190 1613 1523 
z
M 1459 2630 
L 2989 2630 
L 2989 2374 
C 2989 2240 2989 2106 2976 1978 
L 1459 1978 
L 1459 2630 
z
M 3475 1978 
C 3482 2106 3488 2234 3488 2368 
L 3488 2630 
L 5107 2630 
L 5107 1978 
L 3475 1978 
z
M 1459 3654 
L 2989 3654 
L 2989 3014 
L 1459 3014 
L 1459 3654 
z
M 3488 3654 
L 5107 3654 
L 5107 3014 
L 3488 3014 
L 3488 3654 
z
" transform="scale(0.015625)"/>
      <path id="NotoSansCJKjp-Regular-9e1c" d="M 358 4947 
C 749 4640 1184 4186 1370 3866 
L 1760 4166 
C 1568 4480 1114 4922 723 5216 
L 358 4947 
z
M 2861 2995 
L 5005 2995 
L 5005 2355 
L 2861 2355 
L 2861 2995 
z
M 1574 2848 
L 294 2848 
L 294 2400 
L 1107 2400 
L 1107 742 
C 819 474 499 205 230 13 
L 480 -461 
C 794 -179 1088 96 1370 371 
C 1773 -134 2355 -358 3200 -390 
C 3917 -416 5286 -403 6003 -378 
C 6022 -230 6099 -13 6157 96 
C 5382 45 3904 26 3194 58 
C 2438 90 1875 307 1574 781 
L 1574 2848 
z
M 5562 2112 
L 5466 2029 
L 5466 3347 
L 2413 3347 
L 2413 2003 
L 3501 2003 
C 3104 1568 2470 1222 1856 992 
C 1946 902 2086 710 2144 621 
C 2682 851 3232 1184 3667 1587 
L 3667 320 
L 4128 320 
L 4128 1440 
C 4544 986 5126 627 5760 442 
C 5818 563 5933 723 6035 806 
C 5651 902 5280 1056 4960 1254 
C 5267 1421 5632 1658 5926 1882 
L 5562 2112 
z
M 5434 2003 
C 5216 1824 4922 1613 4672 1453 
C 4461 1619 4282 1805 4147 2003 
L 5434 2003 
z
M 3680 5370 
L 3680 4883 
L 2234 4883 
L 2234 4518 
L 3680 4518 
L 3680 4064 
L 1882 4064 
L 1882 3693 
L 6010 3693 
L 6010 4064 
L 4147 4064 
L 4147 4518 
L 5626 4518 
L 5626 4883 
L 4147 4883 
L 4147 5370 
L 3680 5370 
z
" transform="scale(0.015625)"/>
     </defs>
     <use xlink:href="#NotoSansCJKjp-Regular-86fd"/>
     <use xlink:href="#NotoSansCJKjp-Regular-4402" transform="translate(100 0)"/>
     <use xlink:href="#NotoSansCJKjp-Regular-50ac" transform="translate(200 0)"/>
     <use xlink:href="#NotoSansCJKjp-Regular-9e1c" transform="translate(300 0)"/>
    </g>
   </g>
   <g id="text_5">
    <!-- 再大： -->
    <g style="fill: #d1242f" transform="translate(266.76 264.736) scale(0.1 -0.1)">
     <defs>
      <path id="NotoSansCJKjp-Regular-2acb" d="M 1011 3910 
L 1011 1485 
L 256 1485 
L 256 1037 
L 1011 1037 
L 1011 -525 
L 1485 -525 
L 1485 1037 
L 4909 1037 
L 4909 83 
C 4909 -26 4870 -58 4749 -64 
C 4640 -70 4224 -77 3802 -58 
C 3878 -186 3949 -390 3981 -518 
C 4531 -518 4890 -512 5101 -435 
C 5312 -358 5382 -218 5382 77 
L 5382 1037 
L 6157 1037 
L 6157 1485 
L 5382 1485 
L 5382 3910 
L 3418 3910 
L 3418 4538 
L 5920 4538 
L 5920 4986 
L 493 4986 
L 493 4538 
L 2931 4538 
L 2931 3910 
L 1011 3910 
z
M 4909 1485 
L 3418 1485 
L 3418 2278 
L 4909 2278 
L 4909 1485 
z
M 1485 1485 
L 1485 2278 
L 2931 2278 
L 2931 1485 
L 1485 1485 
z
M 4909 2701 
L 3418 2701 
L 3418 3469 
L 4909 3469 
L 4909 2701 
z
M 1485 2701 
L 1485 3469 
L 2931 3469 
L 2931 2701 
L 1485 2701 
z
" transform="scale(0.015625)"/>
     </defs>
     <use xlink:href="#NotoSansCJKjp-Regular-2acb"/>
     <use xlink:href="#NotoSansCJKjp-Regular-36fb" transform="translate(100 0)"/>
     <use xlink:href="#NotoSansCJKjp-Regular-e6c0" transform="translate(200 0)"/>
    </g>
    <!-- 射程更遠 -->
    <g style="fill: #d1242f" transform="translate(261.76 274.736) scale(0.1 -0.1)">
     <defs>
      <path id="NotoSansCJKjp-Regular-720a" d="M 3405 4691 
L 5338 4691 
L 5338 3514 
L 3405 3514 
L 3405 4691 
z
M 2957 5107 
L 2957 3098 
L 5805 3098 
L 5805 5107 
L 2957 5107 
z
M 2867 1338 
L 2867 922 
L 4122 922 
L 4122 83 
L 2438 83 
L 2438 -339 
L 6163 -339 
L 6163 83 
L 4595 83 
L 4595 922 
L 5882 922 
L 5882 1338 
L 4595 1338 
L 4595 2112 
L 6022 2112 
L 6022 2534 
L 2720 2534 
L 2720 2112 
L 4122 2112 
L 4122 1338 
L 2867 1338 
z
M 2310 5286 
C 1837 5069 992 4883 275 4762 
C 333 4659 397 4499 416 4397 
C 717 4435 1037 4493 1357 4557 
L 1357 3571 
L 314 3571 
L 314 3123 
L 1293 3123 
C 1037 2387 595 1555 179 1101 
C 262 986 378 794 429 659 
C 755 1056 1094 1690 1357 2336 
L 1357 -499 
L 1830 -499 
L 1830 2259 
C 2048 1990 2304 1645 2413 1466 
L 2701 1843 
C 2573 1990 2016 2566 1830 2726 
L 1830 3123 
L 2630 3123 
L 2630 3571 
L 1830 3571 
L 1830 4666 
C 2131 4736 2413 4819 2643 4915 
L 2310 5286 
z
" transform="scale(0.015625)"/>
     </defs>
     <use xlink:href="#NotoSansCJKjp-Regular-3d63"/>
     <use xlink:href="#NotoSansCJKjp-Regular-720a" transform="translate(100 0)"/>
     <use xlink:href="#NotoSansCJKjp-Regular-50ac" transform="translate(200 0)"/>
     <use xlink:href="#NotoSansCJKjp-Regular-9e1c" transform="translate(300 0)"/>
    </g>
   </g>
   <g id="text_6">
    <!-- 初速達 $v_1\approx 7.9$ km/s：下墜弧線與地表一樣彎， -->
    <g style="fill: #1f6feb" transform="translate(34.546 333.0668) scale(0.11 -0.11)">
     <defs>
      <path id="NotoSansCJKjp-Regular-9dfc" d="M 358 4947 
C 749 4640 1184 4186 1370 3866 
L 1760 4166 
C 1568 4480 1114 4922 723 5216 
L 358 4947 
z
M 1574 2848 
L 294 2848 
L 294 2400 
L 1107 2400 
L 1107 742 
C 819 474 499 205 230 13 
L 480 -461 
C 794 -179 1088 96 1370 371 
C 1773 -134 2355 -358 3200 -390 
C 3917 -416 5286 -403 6003 -378 
C 6022 -230 6099 -13 6157 96 
C 5382 45 3904 26 3194 58 
C 2438 90 1875 307 1574 781 
L 1574 2848 
z
M 3699 5376 
L 3699 4890 
L 2298 4890 
L 2298 4531 
L 3699 4531 
L 3699 4051 
L 1869 4051 
L 1869 3674 
L 2976 3674 
L 2688 3603 
C 2810 3411 2931 3155 2970 2976 
L 2016 2976 
L 2016 2611 
L 3699 2611 
L 3699 2189 
L 2259 2189 
L 2259 1824 
L 3699 1824 
L 3699 1344 
L 1939 1344 
L 1939 973 
L 3699 973 
L 3699 371 
L 4173 371 
L 4173 973 
L 6016 973 
L 6016 1344 
L 4173 1344 
L 4173 1824 
L 5722 1824 
L 5722 2189 
L 4173 2189 
L 4173 2611 
L 5984 2611 
L 5984 2976 
L 4858 2976 
C 4960 3149 5088 3379 5210 3597 
L 4928 3674 
L 6067 3674 
L 6067 4051 
L 4173 4051 
L 4173 4531 
L 5632 4531 
L 5632 4890 
L 4173 4890 
L 4173 5376 
L 3699 5376 
z
M 3155 2976 
L 3424 3046 
C 3379 3226 3258 3475 3123 3674 
L 4723 3674 
C 4659 3482 4538 3213 4435 3040 
L 4640 2976 
L 3155 2976 
z
" transform="scale(0.015625)"/>
      <path id="NotoSansCJKjp-Regular-1" transform="scale(0.015625)"/>
      <path id="Cmmi10-38" d="M 684 722 
Q 684 866 718 1037 
Q 753 1209 787 1320 
Q 822 1431 944 1753 
Q 1066 2075 1069 2088 
Q 1153 2322 1153 2472 
Q 1153 2663 1013 2663 
Q 759 2663 595 2402 
Q 431 2141 353 1819 
Q 341 1778 300 1778 
L 225 1778 
Q 172 1778 172 1838 
L 172 1856 
Q 275 2238 487 2533 
Q 700 2828 1025 2828 
Q 1253 2828 1411 2678 
Q 1569 2528 1569 2297 
Q 1569 2178 1516 2047 
Q 1391 1722 1319 1526 
Q 1247 1331 1186 1089 
Q 1125 847 1125 641 
Q 1125 400 1236 248 
Q 1347 97 1581 97 
Q 2025 97 2381 781 
Q 2494 1003 2594 1303 
Q 2694 1603 2694 1791 
Q 2694 1984 2631 2092 
Q 2569 2200 2469 2317 
Q 2369 2434 2369 2503 
Q 2369 2628 2472 2731 
Q 2575 2834 2700 2834 
Q 2853 2834 2920 2693 
Q 2988 2553 2988 2375 
Q 2988 2163 2927 1869 
Q 2866 1575 2758 1259 
Q 2650 944 2559 763 
Q 2138 -72 1575 -72 
Q 1172 -72 928 129 
Q 684 331 684 722 
z
" transform="scale(0.015625)"/>
      <path id="Cmr10-64" d="M 594 0 
L 594 225 
Q 1394 225 1394 428 
L 1394 3788 
Q 1063 3628 556 3628 
L 556 3853 
Q 1341 3853 1741 4263 
L 1831 4263 
Q 1853 4263 1873 4245 
Q 1894 4228 1894 4206 
L 1894 428 
Q 1894 225 2694 225 
L 2694 0 
L 594 0 
z
" transform="scale(0.015625)"/>
      <path id="Cmsy10-17" d="M 447 359 
Q 378 359 359 519 
L 359 556 
Q 359 847 501 1087 
Q 644 1328 891 1464 
Q 1138 1600 1422 1600 
Q 1766 1600 2130 1379 
Q 2494 1159 2853 937 
Q 3213 716 3553 716 
Q 3881 716 4157 919 
Q 4434 1122 4434 1441 
Q 4453 1600 4525 1600 
Q 4597 1600 4616 1441 
L 4616 1403 
Q 4616 1113 4472 872 
Q 4328 631 4083 495 
Q 3838 359 3553 359 
Q 3284 359 3048 470 
Q 2813 581 2495 795 
Q 2178 1009 1937 1125 
Q 1697 1241 1422 1241 
Q 1219 1241 1009 1150 
Q 800 1059 669 895 
Q 538 731 538 519 
Q 519 359 447 359 
z
M 447 1850 
Q 378 1850 359 2009 
L 359 2047 
Q 359 2338 501 2578 
Q 644 2819 891 2955 
Q 1138 3091 1422 3091 
Q 1766 3091 2130 2870 
Q 2494 2650 2853 2429 
Q 3213 2209 3553 2209 
Q 3881 2209 4157 2412 
Q 4434 2616 4434 2931 
Q 4453 3091 4525 3091 
Q 4597 3091 4616 2931 
L 4616 2894 
Q 4616 2603 4472 2362 
Q 4328 2122 4083 1986 
Q 3838 1850 3553 1850 
Q 3284 1850 3048 1961 
Q 2813 2072 2495 2286 
Q 2178 2500 1937 2615 
Q 1697 2731 1422 2731 
Q 1219 2731 1009 2640 
Q 800 2550 669 2386 
Q 538 2222 538 2009 
Q 519 1850 447 1850 
z
" transform="scale(0.015625)"/>
      <path id="Cmr10-7f" d="M 1113 166 
Q 1113 522 1175 862 
Q 1238 1203 1358 1536 
Q 1478 1869 1648 2189 
Q 1819 2509 2022 2791 
L 2606 3603 
L 1875 3603 
Q 738 3603 703 3572 
Q 619 3469 544 2981 
L 359 2981 
L 569 4325 
L 756 4325 
L 756 4306 
Q 756 4191 1147 4156 
Q 1538 4122 1913 4122 
L 3103 4122 
L 3103 3956 
Q 3103 3950 3101 3947 
Q 3100 3944 3097 3938 
L 2216 2700 
Q 1891 2219 1809 1631 
Q 1728 1044 1728 166 
Q 1728 41 1637 -50 
Q 1547 -141 1422 -141 
Q 1294 -141 1203 -50 
Q 1113 41 1113 166 
z
" transform="scale(0.015625)"/>
      <path id="Cmmi10-33" d="M 538 353 
Q 538 497 644 600 
Q 750 703 891 703 
Q 978 703 1062 656 
Q 1147 609 1194 525 
Q 1241 441 1241 353 
Q 1241 213 1137 106 
Q 1034 0 891 0 
Q 750 0 644 106 
Q 538 213 538 353 
z
" transform="scale(0.015625)"/>
      <path id="Cmr10-16" d="M 722 269 
Q 897 63 1331 63 
Q 1575 63 1786 228 
Q 1997 394 2113 634 
Q 2247 906 2284 1214 
Q 2322 1522 2322 1978 
Q 2213 1719 2008 1553 
Q 1803 1388 1538 1388 
Q 1166 1388 873 1589 
Q 581 1791 425 2120 
Q 269 2450 269 2822 
Q 269 3206 444 3539 
Q 619 3872 928 4067 
Q 1238 4263 1631 4263 
Q 2019 4263 2280 4052 
Q 2541 3841 2678 3508 
Q 2816 3175 2870 2803 
Q 2925 2431 2925 2069 
Q 2925 1575 2744 1061 
Q 2563 547 2202 203 
Q 1841 -141 1331 -141 
Q 953 -141 690 37 
Q 428 216 428 575 
Q 428 706 517 795 
Q 606 884 738 884 
Q 866 884 955 795 
Q 1044 706 1044 575 
Q 1044 450 953 359 
Q 863 269 738 269 
L 722 269 
z
M 1563 1556 
Q 1825 1556 1992 1732 
Q 2159 1909 2234 2171 
Q 2309 2434 2309 2694 
L 2309 2816 
L 2309 2841 
Q 2309 3322 2168 3700 
Q 2028 4078 1631 4078 
Q 1378 4078 1220 3967 
Q 1063 3856 988 3672 
Q 913 3488 892 3278 
Q 872 3069 872 2822 
Q 872 2459 906 2203 
Q 941 1947 1094 1751 
Q 1247 1556 1563 1556 
z
" transform="scale(0.015625)"/>
      <path id="NotoSansCJKjp-Regular-4c" d="M 589 0 
L 1165 0 
L 1165 915 
L 1818 1677 
L 2835 0 
L 3469 0 
L 2157 2074 
L 3315 3475 
L 2662 3475 
L 1190 1645 
L 1165 1645 
L 1165 5094 
L 589 5094 
L 589 0 
z
" transform="scale(0.015625)"/>
      <path id="NotoSansCJKjp-Regular-4e" d="M 589 0 
L 1178 0 
L 1178 2522 
C 1491 2880 1786 3053 2048 3053 
C 2490 3053 2694 2778 2694 2125 
L 2694 0 
L 3277 0 
L 3277 2522 
C 3603 2880 3885 3053 4154 3053 
C 4595 3053 4800 2778 4800 2125 
L 4800 0 
L 5382 0 
L 5382 2202 
C 5382 3085 5043 3565 4333 3565 
C 3904 3565 3546 3290 3181 2899 
C 3040 3309 2758 3565 2221 3565 
C 1805 3565 1446 3302 1139 2970 
L 1126 2970 
L 1069 3475 
L 589 3475 
L 589 0 
z
" transform="scale(0.015625)"/>
      <path id="NotoSansCJKjp-Regular-10" d="M 70 -1146 
L 499 -1146 
L 2413 5082 
L 1990 5082 
L 70 -1146 
z
" transform="scale(0.015625)"/>
      <path id="NotoSansCJKjp-Regular-54" d="M 1498 -83 
C 2317 -83 2758 384 2758 947 
C 2758 1606 2208 1811 1702 2003 
C 1312 2150 954 2278 954 2605 
C 954 2880 1158 3110 1600 3110 
C 1907 3110 2150 2976 2387 2803 
L 2669 3168 
C 2406 3386 2022 3565 1594 3565 
C 832 3565 397 3130 397 2579 
C 397 1984 922 1754 1408 1574 
C 1792 1434 2202 1267 2202 915 
C 2202 614 1978 371 1517 371 
C 1101 371 794 538 486 787 
L 205 397 
C 531 122 1005 -83 1498 -83 
z
" transform="scale(0.015625)"/>
      <path id="NotoSansCJKjp-Regular-2516" d="M 352 4902 
L 352 4422 
L 2822 4422 
L 2822 -506 
L 3328 -506 
L 3328 2886 
C 4064 2490 4922 1958 5370 1600 
L 5709 2035 
C 5197 2426 4179 3002 3418 3373 
L 3328 3270 
L 3328 4422 
L 6054 4422 
L 6054 4902 
L 352 4902 
z
" transform="scale(0.015625)"/>
      <path id="NotoSansCJKjp-Regular-3609" d="M 2944 1587 
L 2944 1152 
L 1005 1152 
L 1005 755 
L 2944 755 
L 2944 102 
L 339 102 
L 339 -301 
L 6067 -301 
L 6067 102 
L 3430 102 
L 3430 755 
L 5459 755 
L 5459 1152 
L 3430 1152 
L 3430 1523 
C 3558 1510 3686 1510 3782 1510 
C 3994 1510 4128 1549 4288 1683 
C 4717 2010 4717 3213 3763 3955 
C 3949 4064 4109 4186 4243 4314 
L 4262 4314 
C 4550 3194 5088 2214 5856 1715 
C 5920 1824 6048 1978 6150 2054 
C 5728 2298 5376 2694 5101 3187 
C 5376 3347 5715 3584 5971 3802 
L 5670 4090 
C 5491 3917 5197 3680 4941 3507 
C 4819 3757 4723 4032 4646 4314 
L 6067 4314 
L 6067 4685 
L 5005 4685 
C 5120 4845 5254 5056 5382 5267 
L 4941 5376 
C 4858 5197 4704 4922 4582 4736 
L 4774 4685 
L 3475 4685 
L 3686 4749 
C 3629 4922 3475 5184 3334 5370 
L 2950 5261 
C 3072 5082 3194 4851 3264 4685 
L 2330 4685 
L 2330 4314 
L 3718 4314 
C 3341 4051 2771 3840 2278 3712 
C 2342 3642 2445 3507 2490 3418 
C 2810 3507 3149 3635 3456 3789 
C 3546 3718 3622 3642 3699 3565 
C 3386 3322 2867 3085 2438 2970 
C 2515 2906 2624 2778 2675 2694 
C 3072 2822 3552 3072 3885 3322 
C 3942 3238 3994 3155 4032 3066 
C 3629 2650 2906 2266 2266 2093 
C 2349 2022 2451 1888 2509 1798 
C 3066 1984 3699 2336 4141 2733 
C 4218 2381 4147 2074 4006 1958 
C 3930 1875 3827 1869 3706 1869 
C 3597 1869 3450 1869 3283 1888 
C 3341 1805 3373 1683 3386 1587 
L 2944 1587 
z
M 589 5120 
L 589 1338 
L 1011 1338 
L 1011 4730 
L 1805 4730 
C 1683 4390 1530 3981 1376 3629 
C 1786 3251 1907 2931 1907 2669 
C 1914 2522 1875 2387 1792 2336 
C 1741 2304 1690 2291 1619 2285 
C 1530 2285 1421 2285 1286 2298 
C 1357 2195 1395 2035 1402 1920 
C 1536 1914 1677 1914 1792 1926 
C 1894 1939 1997 1971 2080 2029 
C 2240 2138 2323 2349 2317 2630 
C 2317 2944 2202 3290 1792 3680 
C 1971 4083 2182 4582 2342 4986 
L 2054 5139 
L 1984 5120 
L 589 5120 
z
" transform="scale(0.015625)"/>
      <path id="NotoSansCJKjp-Regular-433a" d="M 5504 5363 
C 4915 5126 3872 4896 2950 4736 
L 2605 4870 
L 2605 3034 
C 2605 2067 2547 781 1990 -211 
C 2099 -269 2259 -410 2323 -512 
C 2938 563 3027 2022 3027 3027 
L 3027 4352 
C 3686 4448 4410 4582 5037 4742 
C 5114 2528 5267 570 5901 -499 
C 5984 -378 6150 -205 6259 -128 
C 5651 813 5491 2765 5421 4851 
C 5587 4896 5741 4947 5888 4998 
L 5504 5363 
z
M 3795 4384 
L 3795 429 
L 2906 320 
L 2982 -128 
L 4928 160 
C 4966 -38 5005 -230 5024 -390 
L 5357 -288 
C 5286 205 5088 954 4890 1536 
L 4576 1434 
C 4666 1165 4755 864 4832 563 
L 4211 480 
L 4211 4384 
L 3795 4384 
z
M 486 3635 
C 454 3021 365 2208 282 1709 
L 710 1632 
L 749 1926 
L 1645 1926 
C 1581 640 1504 141 1382 19 
C 1325 -45 1267 -58 1158 -51 
C 1037 -51 736 -51 416 -26 
C 493 -154 550 -352 563 -493 
C 870 -512 1178 -512 1344 -493 
C 1536 -480 1651 -442 1766 -301 
C 1946 -90 2022 518 2099 2138 
C 2106 2202 2106 2349 2106 2349 
L 800 2349 
L 883 3194 
L 2106 3194 
L 2106 5043 
L 384 5043 
L 384 4608 
L 1645 4608 
L 1645 3635 
L 486 3635 
z
" transform="scale(0.015625)"/>
      <path id="NotoSansCJKjp-Regular-7a17" d="M 3258 3405 
L 5414 3405 
L 5414 2848 
L 3258 2848 
L 3258 3405 
z
M 3258 4326 
L 5414 4326 
L 5414 3770 
L 3258 3770 
L 3258 4326 
z
M 1894 1632 
C 2048 1267 2182 781 2208 474 
L 2586 589 
C 2541 902 2406 1370 2246 1734 
L 1894 1632 
z
M 570 1715 
C 493 1158 378 582 166 192 
C 269 154 454 70 538 13 
C 736 422 890 1043 973 1651 
L 570 1715 
z
M 2816 4717 
L 2816 2451 
L 4109 2451 
L 4109 6 
C 4109 -64 4090 -83 4006 -90 
C 3930 -90 3674 -90 3386 -83 
C 3443 -211 3501 -384 3520 -506 
C 3917 -506 4173 -499 4339 -435 
C 4506 -358 4544 -237 4544 6 
L 4544 1325 
C 4819 717 5254 109 5952 -250 
C 6016 -128 6157 51 6246 141 
C 5754 358 5382 698 5114 1088 
C 5427 1306 5798 1613 6106 1894 
L 5715 2176 
C 5523 1946 5203 1645 4922 1408 
C 4742 1734 4627 2074 4544 2400 
L 4544 2451 
L 5875 2451 
L 5875 4717 
L 4365 4717 
C 4467 4890 4570 5088 4659 5280 
L 4128 5382 
C 4077 5190 3968 4934 3872 4717 
L 2816 4717 
z
M 2573 1901 
L 2573 1491 
L 3443 1491 
C 3219 826 2803 352 2291 77 
C 2381 13 2534 -154 2592 -250 
C 3226 115 3738 787 3962 1805 
L 3699 1914 
L 3622 1901 
L 2573 1901 
z
M 179 2547 
L 237 2118 
L 1248 2182 
L 1248 -512 
L 1670 -512 
L 1670 2208 
L 2176 2240 
C 2234 2086 2285 1946 2310 1824 
L 2694 2003 
C 2598 2349 2342 2906 2074 3322 
L 1722 3181 
C 1824 3014 1920 2829 2010 2637 
L 1088 2592 
C 1517 3136 2010 3866 2374 4454 
L 1971 4646 
C 1792 4301 1549 3878 1286 3475 
C 1190 3610 1075 3750 941 3898 
C 1178 4256 1459 4781 1677 5216 
L 1254 5376 
C 1120 5018 890 4531 685 4166 
L 486 4346 
L 237 4038 
C 525 3763 845 3398 1037 3104 
C 896 2912 762 2726 634 2566 
L 179 2547 
z
" transform="scale(0.015625)"/>
      <path id="NotoSansCJKjp-Regular-8241" d="M 3795 563 
C 4480 218 5210 -211 5638 -531 
L 6093 -198 
C 5619 115 4845 544 4141 883 
L 3795 563 
z
M 2125 870 
C 1722 512 954 70 339 -186 
C 454 -275 621 -429 704 -525 
C 1306 -250 2067 179 2573 576 
L 2125 870 
z
M 288 1414 
L 288 966 
L 6131 966 
L 6131 1414 
L 5459 1414 
C 5517 2355 5549 3853 5555 4973 
L 4186 4973 
L 4186 4544 
L 5114 4544 
L 5107 3795 
L 4256 3795 
L 4256 3386 
L 5094 3386 
L 5069 2598 
L 4237 2598 
L 4237 2189 
L 5056 2189 
L 5011 1414 
L 3936 1414 
L 3936 3584 
L 2925 3584 
L 2925 4256 
L 4058 4256 
L 4058 4666 
L 2925 4666 
L 2925 5318 
L 2502 5318 
L 2502 3194 
L 3514 3194 
L 3514 1414 
L 2893 1414 
L 2893 2912 
L 2496 2912 
L 2496 1414 
L 1382 1414 
L 1357 2195 
L 2182 2195 
L 2182 2598 
L 1344 2598 
L 1318 3386 
L 2176 3386 
L 2176 3795 
L 1306 3795 
L 1280 4474 
C 1645 4614 2048 4800 2381 4973 
L 2003 5318 
C 1792 5171 1466 4986 1146 4832 
L 826 4928 
L 947 1414 
L 288 1414 
z
" transform="scale(0.015625)"/>
      <path id="NotoSansCJKjp-Regular-8f90" d="M 896 -64 
L 1050 -512 
C 1811 -320 2912 -45 3923 224 
L 3872 653 
L 2272 256 
L 2272 1715 
C 2637 1946 2970 2208 3232 2470 
C 3680 1005 4512 -26 5875 -493 
C 5946 -358 6086 -166 6195 -70 
C 5472 147 4896 538 4461 1062 
C 4896 1312 5421 1664 5824 1990 
L 5446 2285 
C 5133 1997 4640 1638 4224 1376 
C 4000 1709 3821 2086 3686 2502 
L 5997 2502 
L 5997 2918 
L 3430 2918 
L 3430 3501 
L 5523 3501 
L 5523 3898 
L 3430 3898 
L 3430 4422 
L 5773 4422 
L 5773 4845 
L 3430 4845 
L 3430 5376 
L 2944 5376 
L 2944 4845 
L 640 4845 
L 640 4422 
L 2944 4422 
L 2944 3898 
L 928 3898 
L 928 3501 
L 2944 3501 
L 2944 2918 
L 403 2918 
L 403 2502 
L 2630 2502 
C 1990 1971 1024 1491 179 1254 
C 282 1152 422 979 493 858 
C 909 998 1363 1197 1798 1434 
L 1798 141 
L 896 -64 
z
" transform="scale(0.015625)"/>
      <path id="NotoSansCJKjp-Regular-2509" d="M 282 2758 
L 282 2234 
L 6144 2234 
L 6144 2758 
L 282 2758 
z
" transform="scale(0.015625)"/>
      <path id="NotoSansCJKjp-Regular-561a" d="M 2355 1331 
L 2355 979 
L 3283 979 
C 3046 506 2611 141 2157 -45 
C 2240 -122 2362 -269 2419 -365 
C 3027 -83 3571 454 3808 1235 
L 3539 1344 
L 3469 1331 
L 2355 1331 
z
M 5664 1856 
C 5459 1626 5114 1318 4826 1094 
C 4691 1280 4576 1472 4486 1683 
L 4486 2048 
L 2861 2048 
L 2861 1690 
L 4038 1690 
L 4038 -26 
C 4038 -96 4019 -122 3936 -122 
C 3859 -122 3597 -122 3315 -115 
C 3373 -230 3424 -403 3443 -518 
C 3846 -518 4109 -518 4275 -448 
C 4448 -378 4486 -262 4486 -32 
L 4486 960 
C 4845 390 5350 -70 5933 -326 
C 6003 -211 6138 -51 6234 32 
C 5779 198 5370 480 5043 832 
C 5344 1037 5715 1325 6022 1587 
L 5664 1856 
z
M 5082 5382 
C 4986 5178 4826 4877 4691 4678 
L 4794 4640 
L 3635 4640 
L 3802 4717 
C 3725 4896 3546 5178 3392 5376 
L 3027 5229 
C 3155 5050 3296 4819 3386 4640 
L 2554 4640 
L 2554 4275 
L 4032 4275 
L 4032 3878 
L 2816 3878 
L 2816 3520 
L 4032 3520 
L 4032 3104 
L 2394 3104 
L 2394 2726 
L 3712 2726 
L 3520 2502 
C 4019 2355 4640 2099 4966 1907 
L 5216 2221 
C 4928 2387 4410 2586 3962 2726 
L 6106 2726 
L 6106 3104 
L 4493 3104 
L 4493 3520 
L 5830 3520 
L 5830 3878 
L 4493 3878 
L 4493 4275 
L 6029 4275 
L 6029 4640 
L 5094 4640 
C 5222 4813 5370 5024 5504 5242 
L 5082 5382 
z
M 1235 5376 
L 1235 3987 
L 339 3987 
L 339 3539 
L 1184 3539 
C 998 2669 608 1658 205 1120 
C 282 1011 397 832 448 704 
C 742 1120 1018 1792 1235 2483 
L 1235 -506 
L 1677 -506 
L 1677 2566 
C 1862 2240 2086 1843 2182 1632 
L 2451 1990 
C 2342 2163 1850 2912 1677 3136 
L 1677 3539 
L 2413 3539 
L 2413 3987 
L 1677 3987 
L 1677 5376 
L 1235 5376 
z
" transform="scale(0.015625)"/>
      <path id="NotoSansCJKjp-Regular-4386" d="M 1664 3085 
C 1792 2861 1926 2560 1978 2368 
L 2285 2496 
C 2234 2688 2099 2982 1965 3194 
L 1664 3085 
z
M 640 3187 
C 557 2861 435 2541 250 2291 
C 339 2253 493 2170 570 2118 
C 736 2368 896 2752 992 3110 
L 640 3187 
z
M 5421 3053 
C 5587 2790 5766 2419 5830 2195 
L 6150 2342 
C 6080 2566 5894 2918 5715 3181 
L 5421 3053 
z
M 4307 3174 
C 4230 2867 4102 2560 3923 2336 
C 4013 2291 4166 2208 4237 2163 
C 4403 2400 4563 2765 4659 3098 
L 4307 3174 
z
M 2464 5203 
L 2464 4934 
L 3853 4934 
L 3853 5203 
L 2464 5203 
z
M 2451 4141 
L 2451 3878 
L 3872 3878 
L 3872 4141 
L 2451 4141 
z
M 2451 3622 
L 2451 3354 
L 3872 3354 
L 3872 3622 
L 2451 3622 
z
M 2803 2829 
L 3520 2829 
L 3520 2419 
L 2803 2419 
L 2803 2829 
z
M 2451 3091 
L 2451 2157 
L 3878 2157 
L 3878 3091 
L 2451 3091 
z
M 1274 1306 
C 1165 947 1018 518 883 211 
L 1318 134 
L 1402 352 
L 5088 352 
C 5005 64 4928 -90 4832 -154 
C 4762 -192 4698 -198 4538 -198 
C 4371 -198 3885 -192 3424 -147 
C 3488 -243 3533 -390 3546 -486 
C 4006 -512 4474 -518 4685 -512 
C 4902 -512 5050 -493 5184 -410 
C 5350 -288 5478 -32 5594 474 
C 5613 531 5626 672 5626 672 
L 1523 672 
L 1626 986 
L 5139 986 
L 5139 1952 
L 928 1952 
L 928 1632 
L 4685 1632 
L 4685 1306 
L 1274 1306 
z
M 1670 4870 
C 1549 4691 1382 4480 1203 4275 
C 1139 4346 1056 4422 966 4499 
C 1139 4704 1344 4979 1523 5242 
L 1178 5382 
C 1082 5184 896 4902 736 4691 
L 589 4806 
L 365 4570 
C 576 4410 813 4186 973 4013 
L 678 3712 
L 282 3712 
L 314 3347 
L 1152 3379 
L 1152 2086 
L 1530 2086 
L 1530 3392 
L 2003 3411 
L 2106 3232 
L 2381 3418 
C 2278 3616 2048 3936 1837 4160 
L 1568 4006 
L 1786 3731 
L 1094 3718 
C 1402 4013 1741 4390 2016 4710 
L 1670 4870 
z
M 2208 4685 
L 2208 4390 
L 4064 4390 
L 4064 4563 
C 4275 4403 4512 4192 4678 4026 
C 4570 3910 4461 3808 4358 3712 
L 3955 3712 
L 3987 3347 
L 4826 3379 
L 4826 2086 
L 5210 2086 
L 5210 3398 
L 5760 3424 
L 5882 3219 
L 6170 3411 
C 6048 3622 5786 3942 5562 4166 
L 5293 4013 
C 5370 3930 5453 3834 5530 3731 
L 4787 3718 
C 5114 4019 5478 4410 5766 4742 
L 5427 4902 
C 5293 4717 5114 4499 4915 4282 
C 4845 4358 4755 4442 4653 4525 
C 4826 4723 5018 4992 5190 5242 
L 4845 5382 
C 4749 5190 4570 4922 4416 4710 
L 4237 4832 
L 4064 4634 
L 4064 4685 
L 2208 4685 
z
" transform="scale(0.015625)"/>
      <path id="NotoSansCJKjp-Regular-e6b2" d="M 1005 -685 
C 1677 -448 2112 77 2112 768 
C 2112 1216 1920 1504 1568 1504 
C 1306 1504 1082 1344 1082 1043 
C 1082 742 1299 589 1562 589 
L 1670 602 
C 1638 160 1357 -141 864 -346 
L 1005 -685 
z
" transform="scale(0.015625)"/>
     </defs>
     <use xlink:href="#NotoSansCJKjp-Regular-2ba3" transform="translate(0 0.90625)"/>
     <use xlink:href="#NotoSansCJKjp-Regular-9d6d" transform="translate(99.999908 0.90625)"/>
     <use xlink:href="#NotoSansCJKjp-Regular-9dfc" transform="translate(199.999817 0.90625)"/>
     <use xlink:href="#NotoSansCJKjp-Regular-1" transform="translate(299.999725 0.90625)"/>
     <use xlink:href="#Cmmi10-38" transform="translate(322.399704 0.90625)"/>
     <use xlink:href="#Cmr10-64" transform="translate(370.788376 -14.093712) scale(0.7)"/>
     <use xlink:href="#Cmsy10-17" transform="translate(431.508849 0.90625)"/>
     <use xlink:href="#Cmr10-7f" transform="translate(529.194453 0.90625)"/>
     <use xlink:href="#Cmmi10-33" transform="translate(579.194453 0.90625)"/>
     <use xlink:href="#Cmr10-16" transform="translate(606.88 0.90625)"/>
     <use xlink:href="#NotoSansCJKjp-Regular-1" transform="translate(656.88 0.90625)"/>
     <use xlink:href="#NotoSansCJKjp-Regular-4c" transform="translate(679.279978 0.90625)"/>
     <use xlink:href="#NotoSansCJKjp-Regular-4e" transform="translate(734.479929 0.90625)"/>
     <use xlink:href="#NotoSansCJKjp-Regular-10" transform="translate(827.079844 0.90625)"/>
     <use xlink:href="#NotoSansCJKjp-Regular-54" transform="translate(866.27981 0.90625)"/>
     <use xlink:href="#NotoSansCJKjp-Regular-e6c0" transform="translate(913.079768 0.90625)"/>
     <use xlink:href="#NotoSansCJKjp-Regular-2516" transform="translate(1013.079676 0.90625)"/>
     <use xlink:href="#NotoSansCJKjp-Regular-3609" transform="translate(1113.079584 0.90625)"/>
     <use xlink:href="#NotoSansCJKjp-Regular-433a" transform="translate(1213.079493 0.90625)"/>
     <use xlink:href="#NotoSansCJKjp-Regular-7a17" transform="translate(1313.079401 0.90625)"/>
     <use xlink:href="#NotoSansCJKjp-Regular-8241" transform="translate(1413.07931 0.90625)"/>
     <use xlink:href="#NotoSansCJKjp-Regular-33d0" transform="translate(1513.079218 0.90625)"/>
     <use xlink:href="#NotoSansCJKjp-Regular-8f90" transform="translate(1613.079127 0.90625)"/>
     <use xlink:href="#NotoSansCJKjp-Regular-2509" transform="translate(1713.079035 0.90625)"/>
     <use xlink:href="#NotoSansCJKjp-Regular-561a" transform="translate(1813.078944 0.90625)"/>
     <use xlink:href="#NotoSansCJKjp-Regular-4386" transform="translate(1913.078852 0.90625)"/>
     <use xlink:href="#NotoSansCJKjp-Regular-e6b2" transform="translate(2013.078761 0.90625)"/>
    </g>
    <!-- 不再落地 → 持續環繞（這就是衛星） -->
    <g style="fill: #1f6feb" transform="translate(60.351312 344.7268) scale(0.11 -0.11)">
     <defs>
      <path id="NotoSansCJKjp-Regular-2518" d="M 3578 3059 
C 4339 2547 5299 1792 5754 1299 
L 6144 1670 
C 5664 2163 4691 2880 3936 3366 
L 3578 3059 
z
M 442 4928 
L 442 4435 
L 3290 4435 
C 2656 3341 1555 2259 282 1632 
C 384 1523 531 1331 608 1210 
C 1498 1677 2291 2336 2938 3078 
L 2938 -499 
L 3456 -499 
L 3456 3738 
C 3622 3962 3770 4198 3904 4435 
L 5958 4435 
L 5958 4928 
L 442 4928 
z
" transform="scale(0.015625)"/>
      <path id="NotoSansCJKjp-Regular-31c" d="M 5190 2650 
L 256 2650 
L 256 2214 
L 5190 2214 
C 4864 1965 4442 1562 4154 1165 
L 4538 941 
C 4966 1504 5606 2067 6176 2432 
C 5606 2797 4966 3360 4538 3923 
L 4154 3699 
C 4442 3302 4864 2899 5190 2650 
z
" transform="scale(0.015625)"/>
      <path id="NotoSansCJKjp-Regular-49cf" d="M 2867 1306 
C 3142 960 3450 474 3571 166 
L 3968 416 
C 3834 723 3514 1184 3238 1517 
L 2867 1306 
z
M 4006 5344 
L 4006 4544 
L 2643 4544 
L 2643 4109 
L 4006 4109 
L 4006 3296 
L 2317 3296 
L 2317 2854 
L 4851 2854 
L 4851 2138 
L 2387 2138 
L 2387 1696 
L 4851 1696 
L 4851 70 
C 4851 -13 4826 -45 4730 -45 
C 4634 -51 4294 -58 3936 -38 
C 4000 -173 4064 -371 4083 -506 
C 4557 -506 4870 -499 5056 -429 
C 5254 -352 5312 -218 5312 70 
L 5312 1696 
L 6106 1696 
L 6106 2138 
L 5312 2138 
L 5312 2854 
L 6144 2854 
L 6144 3296 
L 4467 3296 
L 4467 4109 
L 5837 4109 
L 5837 4544 
L 4467 4544 
L 4467 5344 
L 4006 5344 
z
M 1094 5370 
L 1094 4083 
L 269 4083 
L 269 3635 
L 1094 3635 
L 1094 2246 
C 749 2138 429 2048 179 1978 
L 301 1504 
L 1094 1760 
L 1094 70 
C 1094 -26 1062 -51 986 -51 
C 909 -51 659 -51 384 -45 
C 442 -179 506 -378 518 -493 
C 922 -499 1171 -480 1325 -403 
C 1485 -326 1542 -198 1542 64 
L 1542 1907 
L 2240 2138 
L 2176 2579 
L 1542 2381 
L 1542 3635 
L 2221 3635 
L 2221 4083 
L 1542 4083 
L 1542 5370 
L 1094 5370 
z
" transform="scale(0.015625)"/>
      <path id="NotoSansCJKjp-Regular-7b9a" d="M 3264 1466 
L 5325 1466 
L 5325 1178 
L 3264 1178 
L 3264 1466 
z
M 3264 928 
L 5325 928 
L 5325 627 
L 3264 627 
L 3264 928 
z
M 3264 2003 
L 5325 2003 
L 5325 1722 
L 3264 1722 
L 3264 2003 
z
M 2643 3802 
L 2643 2566 
L 5952 2566 
L 5952 3802 
L 2643 3802 
z
M 1830 1645 
C 1958 1312 2080 877 2125 589 
L 2477 704 
C 2432 979 2304 1414 2170 1741 
L 1830 1645 
z
M 557 1715 
C 486 1158 378 582 173 192 
C 269 154 454 70 538 19 
C 730 429 870 1043 954 1651 
L 557 1715 
z
M 4563 109 
C 5018 -83 5498 -333 5766 -525 
L 6182 -262 
C 5882 -70 5350 173 4896 352 
L 5766 352 
L 5766 2278 
L 2835 2278 
L 2835 352 
L 3558 352 
C 3251 141 2656 -90 2150 -218 
C 2253 -294 2400 -429 2470 -512 
C 2957 -384 3571 -134 3955 128 
L 3578 352 
L 4870 352 
L 4563 109 
z
M 2758 4365 
L 2758 4051 
L 5856 4051 
L 5856 4365 
L 4486 4365 
L 4486 4659 
L 6061 4659 
L 6061 4992 
L 4486 4992 
L 4486 5376 
L 4019 5376 
L 4019 4992 
L 2458 4992 
L 2458 4659 
L 4019 4659 
L 4019 4365 
L 2758 4365 
z
M 3027 3520 
L 3731 3520 
C 3667 3296 3482 3200 3059 3136 
C 3123 3085 3200 2989 3232 2918 
C 3770 3021 3987 3187 4064 3520 
L 4467 3520 
L 4467 3386 
C 4467 3091 4557 3034 4934 3034 
C 5005 3034 5434 3034 5498 3034 
L 5549 3034 
L 5549 2848 
L 3027 2848 
L 3027 3520 
z
M 4826 3520 
L 5549 3520 
L 5549 3283 
C 5536 3264 5504 3264 5440 3264 
C 5363 3264 5037 3264 4973 3264 
C 4845 3264 4826 3277 4826 3373 
L 4826 3520 
z
M 230 2522 
L 282 2099 
L 1222 2157 
L 1222 -512 
L 1638 -512 
L 1638 2182 
L 2099 2214 
C 2138 2086 2170 1971 2189 1875 
L 2554 2022 
C 2477 2368 2246 2918 1997 3334 
L 1664 3213 
C 1766 3027 1869 2810 1952 2598 
L 1094 2554 
C 1504 3104 1965 3866 2317 4474 
L 1907 4646 
C 1747 4301 1523 3878 1286 3482 
C 1197 3616 1069 3763 934 3910 
C 1171 4269 1446 4787 1664 5222 
L 1242 5376 
C 1114 5024 883 4544 678 4179 
L 506 4339 
L 256 4032 
C 544 3757 864 3373 1043 3085 
C 915 2886 787 2701 666 2534 
L 230 2522 
z
" transform="scale(0.015625)"/>
      <path id="NotoSansCJKjp-Regular-68aa" d="M 2221 3482 
L 2221 3085 
L 6157 3085 
L 6157 3482 
L 2221 3482 
z
M 3053 2362 
L 5261 2362 
L 5261 1715 
L 3053 1715 
L 3053 2362 
z
M 4813 4813 
L 5434 4813 
L 5434 4186 
L 4813 4186 
L 4813 4813 
z
M 3853 4813 
L 4474 4813 
L 4474 4186 
L 3853 4186 
L 3853 4813 
z
M 2925 4813 
L 3520 4813 
L 3520 4186 
L 2925 4186 
L 2925 4813 
z
M 2522 5165 
L 2522 3840 
L 5850 3840 
L 5850 5165 
L 2522 5165 
z
M 218 909 
L 326 448 
C 915 621 1683 851 2413 1075 
L 2355 1504 
L 1523 1261 
L 1523 2643 
L 2189 2643 
L 2189 3078 
L 1523 3078 
L 1523 4493 
L 2285 4493 
L 2285 4928 
L 288 4928 
L 288 4493 
L 1082 4493 
L 1082 3078 
L 352 3078 
L 352 2643 
L 1082 2643 
L 1082 1139 
L 218 909 
z
M 5658 1293 
C 5446 1126 5088 883 4813 723 
C 4646 915 4506 1126 4397 1344 
L 5709 1344 
L 5709 2726 
L 2624 2726 
L 2624 1344 
L 3789 1344 
C 3251 870 2451 435 1766 218 
C 1862 128 1990 -26 2054 -134 
C 2528 45 3059 326 3526 659 
L 3526 -512 
L 3981 -512 
L 3981 1018 
L 4096 1120 
C 4454 371 5062 -230 5837 -512 
C 5901 -397 6042 -224 6144 -134 
C 5728 -13 5363 198 5056 474 
C 5350 621 5715 832 5997 1030 
L 5658 1293 
z
" transform="scale(0.015625)"/>
      <path id="NotoSansCJKjp-Regular-7b37" d="M 1811 1638 
C 1965 1267 2086 781 2112 461 
L 2477 576 
C 2438 890 2310 1370 2157 1741 
L 1811 1638 
z
M 570 1715 
C 493 1158 378 582 166 192 
C 269 154 448 70 525 19 
C 723 429 877 1043 960 1651 
L 570 1715 
z
M 2528 4026 
L 2528 3648 
L 6035 3648 
L 6035 4026 
L 4499 4026 
L 4499 4525 
L 5754 4525 
L 5754 4896 
L 4499 4896 
L 4499 5376 
L 4045 5376 
L 4045 4896 
L 2874 4896 
L 2874 4525 
L 4045 4525 
L 4045 4026 
L 2528 4026 
z
M 179 2547 
L 237 2118 
L 1210 2176 
L 1210 -512 
L 1626 -512 
L 1626 2202 
L 2106 2240 
C 2157 2086 2195 1939 2214 1824 
L 2554 1965 
L 2605 1760 
C 3066 1830 3629 1926 4192 2016 
L 4179 2368 
L 3578 2285 
L 3578 2726 
L 4102 2726 
L 4102 3085 
L 3578 3085 
L 3578 3526 
L 3181 3526 
L 3181 3085 
L 2643 3085 
L 2643 2726 
L 3181 2726 
L 3181 2227 
L 2541 2138 
C 2445 2490 2240 2957 2035 3328 
L 1696 3194 
C 1786 3021 1875 2829 1952 2637 
L 1094 2592 
C 1510 3136 1978 3866 2330 4467 
L 1933 4646 
C 1766 4301 1530 3878 1280 3475 
C 1190 3603 1075 3744 947 3885 
C 1178 4243 1446 4774 1670 5216 
L 1254 5376 
C 1126 5018 896 4525 691 4154 
L 486 4352 
L 237 4051 
C 531 3776 858 3398 1043 3104 
C 915 2906 787 2726 666 2566 
L 179 2547 
z
M 4294 2246 
L 4294 1888 
L 6086 1888 
L 6086 2246 
L 5344 2246 
L 5344 2733 
L 5997 2733 
L 5997 3091 
L 5344 3091 
L 5344 3526 
L 4941 3526 
L 4941 3091 
L 4365 3091 
L 4365 2733 
L 4941 2733 
L 4941 2246 
L 4294 2246 
z
M 2534 1523 
L 2534 1126 
L 3450 1126 
C 3360 429 3104 64 2163 -147 
C 2253 -224 2374 -403 2419 -506 
C 3482 -230 3802 250 3904 1126 
L 4563 1126 
L 4563 51 
C 4563 -378 4666 -499 5114 -499 
C 5197 -499 5587 -499 5677 -499 
C 6029 -499 6144 -326 6182 384 
C 6067 410 5888 480 5798 550 
C 5786 -32 5754 -115 5626 -115 
C 5542 -115 5235 -115 5171 -115 
C 5037 -115 5011 -90 5011 51 
L 5011 1126 
L 6106 1126 
L 6106 1523 
L 2534 1523 
z
" transform="scale(0.015625)"/>
      <path id="NotoSansCJKjp-Regular-9d5c" d="M 576 4998 
C 960 4787 1408 4448 1619 4198 
L 1958 4525 
C 1741 4774 1280 5094 896 5299 
L 576 4998 
z
M 326 3699 
C 730 3494 1210 3174 1434 2925 
L 1766 3270 
C 1530 3514 1043 3821 640 4013 
L 326 3699 
z
M 1984 4307 
L 1984 3949 
L 6131 3949 
L 6131 4307 
L 1984 4307 
z
M 2477 2778 
L 2477 2432 
L 5683 2432 
L 5683 2778 
L 2477 2778 
z
M 2477 3539 
L 2477 3194 
L 5683 3194 
L 5683 3539 
L 2477 3539 
z
M 2566 5075 
L 2566 4736 
L 5606 4736 
L 5606 5075 
L 2566 5075 
z
M 2899 1658 
L 5248 1658 
L 5248 896 
L 2899 896 
L 2899 1658 
z
M 2458 2003 
L 2458 544 
L 5702 544 
L 5702 2003 
L 2458 2003 
z
M 1606 2400 
L 294 2400 
L 294 1952 
L 1139 1952 
L 1139 749 
C 832 480 493 218 211 19 
L 461 -461 
C 794 -179 1107 96 1402 371 
C 1811 -134 2394 -358 3238 -390 
C 3955 -416 5299 -403 6010 -371 
C 6035 -230 6112 -6 6170 109 
C 5402 58 3942 38 3232 64 
C 2483 96 1920 314 1606 781 
L 1606 2400 
z
" transform="scale(0.015625)"/>
      <path id="NotoSansCJKjp-Regular-3da8" d="M 1126 3206 
L 2624 3206 
L 2624 2349 
L 1126 2349 
L 1126 3206 
z
M 800 1594 
C 685 1088 480 582 211 237 
C 314 179 499 38 576 -38 
C 864 346 1107 928 1248 1504 
L 800 1594 
z
M 2451 1510 
C 2630 1171 2822 717 2899 416 
L 3296 570 
C 3219 864 3034 1312 2835 1651 
L 2451 1510 
z
M 4928 4998 
C 5242 4685 5542 4243 5664 3930 
L 6067 4134 
C 5933 4442 5632 4877 5306 5184 
L 4928 4998 
z
M 339 4557 
L 339 4122 
L 3386 4122 
L 3386 4557 
L 2125 4557 
L 2125 5376 
L 1638 5376 
L 1638 4557 
L 339 4557 
z
M 4269 5382 
L 4269 4032 
L 4262 3686 
L 3334 3686 
L 3334 3226 
L 4243 3226 
C 4173 2093 3878 755 2778 -243 
C 2906 -301 3098 -435 3187 -525 
C 4000 237 4390 1184 4576 2118 
L 4576 166 
C 4576 -160 4602 -269 4717 -358 
C 4832 -442 4986 -474 5133 -474 
C 5216 -474 5446 -474 5542 -474 
C 5677 -474 5830 -448 5926 -397 
C 6029 -339 6099 -243 6138 -102 
C 6170 38 6195 429 6208 768 
C 6086 806 5920 890 5830 973 
C 5837 614 5824 307 5805 186 
C 5792 109 5754 51 5709 26 
C 5670 -6 5581 -13 5510 -13 
C 5427 -13 5306 -13 5242 -13 
C 5171 -13 5120 0 5075 26 
C 5037 45 5018 90 5018 147 
L 5018 2912 
L 4691 2912 
L 4717 3226 
L 6118 3226 
L 6118 3686 
L 4730 3686 
L 4736 4038 
L 4736 5382 
L 4269 5382 
z
M 685 3616 
L 685 1939 
L 1658 1939 
L 1658 38 
C 1658 -26 1638 -51 1562 -58 
C 1478 -58 1235 -58 941 -51 
C 1005 -173 1075 -358 1094 -493 
C 1478 -493 1741 -486 1907 -416 
C 2080 -333 2125 -205 2125 32 
L 2125 1939 
L 3091 1939 
L 3091 3616 
L 685 3616 
z
" transform="scale(0.015625)"/>
      <path id="NotoSansCJKjp-Regular-4f6d" d="M 1510 3885 
L 4845 3885 
L 4845 3360 
L 1510 3360 
L 1510 3885 
z
M 1510 4749 
L 4845 4749 
L 4845 4230 
L 1510 4230 
L 1510 4749 
z
M 1050 5114 
L 1050 2995 
L 5331 2995 
L 5331 5114 
L 1050 5114 
z
M 1478 1914 
C 1312 979 902 256 224 -186 
C 333 -256 518 -435 589 -518 
C 1011 -218 1344 192 1587 698 
C 2112 -186 2938 -384 4230 -384 
L 5984 -384 
C 6010 -250 6086 -38 6163 77 
C 5830 70 4493 64 4250 70 
C 3981 70 3725 77 3494 102 
L 3494 986 
L 5619 986 
L 5619 1408 
L 3494 1408 
L 3494 2125 
L 6035 2125 
L 6035 2554 
L 378 2554 
L 378 2125 
L 3014 2125 
L 3014 186 
C 2458 326 2048 627 1798 1216 
C 1862 1414 1914 1626 1958 1850 
L 1478 1914 
z
" transform="scale(0.015625)"/>
      <path id="NotoSansCJKjp-Regular-8f7c" d="M 2426 2912 
L 3885 2912 
L 3885 2304 
L 2426 2304 
L 2426 2912 
z
M 4557 4979 
L 4557 4544 
L 6054 4544 
L 6054 4979 
L 4557 4979 
z
M 1267 5376 
C 1037 4954 582 4435 179 4102 
C 256 4019 378 3840 435 3738 
C 896 4122 1389 4698 1709 5216 
L 1267 5376 
z
M 2054 3251 
L 2054 1965 
L 3200 1965 
L 3200 1568 
L 1907 1568 
L 1907 1197 
L 2176 1197 
L 2176 608 
L 1677 608 
L 1677 243 
L 3200 243 
L 3200 -512 
L 3635 -512 
L 3635 243 
L 4499 243 
L 4499 608 
L 3635 608 
L 3635 1197 
L 4410 1197 
L 4410 1568 
L 3635 1568 
L 3635 1965 
L 4282 1965 
L 4282 3251 
L 2054 3251 
z
M 2566 1197 
L 3200 1197 
L 3200 608 
L 2566 608 
L 2566 1197 
z
M 3789 3962 
L 2938 3962 
L 3046 4518 
L 3789 4518 
L 3789 3962 
z
M 1402 4096 
C 1088 3418 589 2739 109 2278 
C 192 2176 333 1958 384 1862 
C 570 2048 755 2266 941 2509 
L 941 -499 
L 1382 -499 
L 1382 3149 
C 1542 3405 1696 3674 1824 3936 
L 1824 3578 
L 4576 3578 
L 4576 3962 
L 4192 3962 
L 4192 4883 
L 3110 4883 
L 3181 5344 
L 2765 5382 
L 2688 4883 
L 2035 4883 
L 2035 4518 
L 2630 4518 
L 2515 3962 
L 1824 3962 
L 1824 3949 
L 1402 4096 
z
M 4448 3264 
L 4448 2822 
L 5152 2822 
L 5152 51 
C 5152 -26 5133 -51 5050 -51 
C 4960 -58 4685 -58 4371 -45 
C 4422 -186 4486 -378 4506 -512 
C 4922 -512 5210 -499 5382 -422 
C 5562 -352 5606 -211 5606 51 
L 5606 2822 
L 6163 2822 
L 6163 3264 
L 4448 3264 
z
" transform="scale(0.015625)"/>
      <path id="NotoSansCJKjp-Regular-4f54" d="M 1549 3802 
L 4851 3802 
L 4851 3226 
L 1549 3226 
L 1549 3802 
z
M 1549 4730 
L 4851 4730 
L 4851 4166 
L 1549 4166 
L 1549 4730 
z
M 1082 5114 
L 1082 2842 
L 5344 2842 
L 5344 5114 
L 1082 5114 
z
M 1491 2835 
C 1235 2272 787 1715 320 1357 
C 435 1286 634 1146 723 1056 
C 947 1248 1178 1498 1389 1773 
L 2957 1773 
L 2957 1165 
L 1165 1165 
L 1165 774 
L 2957 774 
L 2957 77 
L 416 77 
L 416 -346 
L 5997 -346 
L 5997 77 
L 3456 77 
L 3456 774 
L 5325 774 
L 5325 1165 
L 3456 1165 
L 3456 1773 
L 5594 1773 
L 5594 2182 
L 3456 2182 
L 3456 2701 
L 2957 2701 
L 2957 2182 
L 1677 2182 
C 1786 2349 1882 2528 1965 2701 
L 1491 2835 
z
" transform="scale(0.015625)"/>
     </defs>
     <use xlink:href="#NotoSansCJKjp-Regular-2518"/>
     <use xlink:href="#NotoSansCJKjp-Regular-2acb" transform="translate(100 0)"/>
     <use xlink:href="#NotoSansCJKjp-Regular-86fd" transform="translate(200 0)"/>
     <use xlink:href="#NotoSansCJKjp-Regular-33d0" transform="translate(300 0)"/>
     <use xlink:href="#NotoSansCJKjp-Regular-1" transform="translate(400 0)"/>
     <use xlink:href="#NotoSansCJKjp-Regular-31c" transform="translate(422.40625 0)"/>
     <use xlink:href="#NotoSansCJKjp-Regular-1" transform="translate(522.40625 0)"/>
     <use xlink:href="#NotoSansCJKjp-Regular-49cf" transform="translate(544.8125 0)"/>
     <use xlink:href="#NotoSansCJKjp-Regular-7b9a" transform="translate(644.8125 0)"/>
     <use xlink:href="#NotoSansCJKjp-Regular-68aa" transform="translate(744.8125 0)"/>
     <use xlink:href="#NotoSansCJKjp-Regular-7b37" transform="translate(844.8125 0)"/>
     <use xlink:href="#NotoSansCJKjp-Regular-e6ae" transform="translate(944.8125 0)"/>
     <use xlink:href="#NotoSansCJKjp-Regular-9d5c" transform="translate(1044.8125 0)"/>
     <use xlink:href="#NotoSansCJKjp-Regular-3da8" transform="translate(1144.8125 0)"/>
     <use xlink:href="#NotoSansCJKjp-Regular-4f6d" transform="translate(1244.8125 0)"/>
     <use xlink:href="#NotoSansCJKjp-Regular-8f7c" transform="translate(1344.8125 0)"/>
     <use xlink:href="#NotoSansCJKjp-Regular-4f54" transform="translate(1444.8125 0)"/>
     <use xlink:href="#NotoSansCJKjp-Regular-e6af" transform="translate(1544.8125 0)"/>
    </g>
   </g>
   <g id="text_7">
    <!-- 牛頓大砲：為什麼衛星「掉不下來」 -->
    <g style="fill: #222831" transform="translate(59.936 19.52) scale(0.14 -0.14)">
     <defs>
      <path id="NotoSansCJKjp-Regular-64e7" d="M 3021 5376 
L 3021 4205 
L 1664 4205 
C 1786 4493 1888 4800 1978 5107 
L 1485 5203 
C 1248 4333 838 3475 333 2931 
C 461 2880 685 2752 787 2675 
C 1024 2970 1248 3328 1453 3738 
L 3021 3738 
L 3021 2208 
L 333 2208 
L 333 1734 
L 3021 1734 
L 3021 -506 
L 3526 -506 
L 3526 1734 
L 6080 1734 
L 6080 2208 
L 3526 2208 
L 3526 3738 
L 5722 3738 
L 5722 4205 
L 3526 4205 
L 3526 5376 
L 3021 5376 
z
" transform="scale(0.015625)"/>
      <path id="NotoSansCJKjp-Regular-abd4" d="M 3731 2682 
L 5466 2682 
L 5466 2067 
L 3731 2067 
L 3731 2682 
z
M 3731 1709 
L 5466 1709 
L 5466 1082 
L 3731 1082 
L 3731 1709 
z
M 3731 3661 
L 5466 3661 
L 5466 3046 
L 3731 3046 
L 3731 3661 
z
M 3878 589 
C 3622 307 3098 -19 2630 -205 
C 2739 -282 2874 -429 2950 -525 
C 3424 -326 3968 13 4294 346 
L 3878 589 
z
M 4819 320 
C 5190 77 5670 -288 5894 -518 
L 6266 -256 
C 6016 -13 5542 326 5165 563 
L 4819 320 
z
M 1363 5363 
L 1363 4595 
C 986 4512 582 4442 205 4390 
C 262 4288 326 4128 346 4019 
C 672 4064 1024 4115 1363 4179 
L 1363 1914 
L 851 1914 
L 851 3680 
L 467 3680 
L 467 1043 
L 851 1043 
L 851 1491 
L 1363 1491 
L 1363 621 
C 1363 96 1466 -38 1882 -38 
C 1971 -38 2362 -38 2451 -38 
C 2803 -38 2918 179 2957 806 
C 2829 832 2675 909 2579 979 
C 2566 486 2547 358 2426 358 
C 2342 358 2010 358 1946 358 
C 1805 358 1779 397 1779 614 
L 1779 1491 
L 2336 1491 
L 2336 1203 
L 2720 1203 
L 2720 3680 
L 2336 3680 
L 2336 1914 
L 1779 1914 
L 1779 4262 
C 2195 4352 2586 4454 2906 4570 
L 2573 4934 
C 2362 4851 2086 4768 1779 4691 
L 1779 5363 
L 1363 5363 
z
M 3296 4038 
L 3296 704 
L 5920 704 
L 5920 4038 
L 4602 4038 
C 4672 4224 4742 4442 4806 4653 
L 6144 4653 
L 6144 5075 
L 3027 5075 
L 3027 4653 
L 4288 4653 
C 4256 4454 4205 4230 4154 4038 
L 3296 4038 
z
" transform="scale(0.015625)"/>
      <path id="NotoSansCJKjp-Regular-61a1" d="M 4083 1197 
C 4275 934 4474 563 4550 326 
L 4902 474 
C 4826 704 4621 1069 4416 1325 
L 4083 1197 
z
M 1312 5184 
C 1562 4915 1830 4544 1946 4294 
L 2387 4499 
C 2259 4742 1978 5107 1734 5357 
L 1312 5184 
z
M 2182 1043 
C 2298 627 2368 96 2349 -250 
L 2771 -186 
C 2771 160 2707 685 2579 1094 
L 2182 1043 
z
M 3130 1101 
C 3283 742 3437 275 3482 -26 
L 3885 83 
C 3827 378 3674 838 3501 1184 
L 3130 1101 
z
M 1363 1184 
C 1242 691 992 122 640 -218 
L 1011 -474 
C 1395 -90 1619 525 1766 1056 
L 1363 1184 
z
M 3251 5382 
C 3142 5011 3008 4640 2848 4282 
L 525 4282 
L 525 3840 
L 2637 3840 
C 2086 2765 1280 1798 192 1178 
C 275 1075 397 890 454 774 
C 832 998 1178 1254 1491 1542 
L 5472 1542 
C 5370 525 5267 96 5126 -32 
C 5069 -90 5005 -96 4890 -96 
C 4768 -102 4461 -96 4134 -64 
C 4211 -192 4269 -378 4275 -506 
C 4608 -525 4922 -525 5088 -512 
C 5280 -499 5402 -461 5523 -333 
C 5728 -128 5843 410 5965 1760 
C 5971 1824 5984 1965 5984 1965 
L 5286 1965 
C 5370 2298 5459 2746 5530 3123 
L 4800 3123 
C 4883 3456 4979 3898 5050 4282 
L 3373 4282 
C 3507 4602 3629 4928 3738 5261 
L 3251 5382 
z
M 1914 1965 
C 2125 2195 2323 2445 2502 2701 
L 5005 2701 
C 4960 2445 4896 2182 4838 1965 
L 1914 1965 
z
M 3168 3840 
L 4518 3840 
C 4467 3584 4410 3328 4352 3123 
L 2778 3123 
C 2918 3354 3046 3597 3168 3840 
z
" transform="scale(0.015625)"/>
      <path id="NotoSansCJKjp-Regular-261c" d="M 1862 5350 
C 1491 4365 877 3386 230 2758 
C 320 2643 461 2394 506 2285 
C 749 2534 986 2822 1210 3142 
L 1210 -499 
L 1677 -499 
L 1677 3885 
C 1920 4307 2138 4762 2310 5216 
L 1862 5350 
z
M 3885 5312 
L 3885 3162 
L 2093 3162 
L 2093 2688 
L 3885 2688 
L 3885 -512 
L 4384 -512 
L 4384 2688 
L 6112 2688 
L 6112 3162 
L 4384 3162 
L 4384 5312 
L 3885 5312 
z
" transform="scale(0.015625)"/>
      <path id="NotoSansCJKjp-Regular-b775" d="M 3021 3334 
L 3021 2336 
L 3328 2336 
L 3328 3334 
L 3021 3334 
z
M 1670 3328 
L 1670 3085 
C 1670 2797 1626 2413 1357 2157 
C 1440 2118 1562 2022 1619 1952 
C 1926 2278 1965 2707 1965 3072 
L 1965 3328 
L 1670 3328 
z
M 3866 3341 
L 3866 3110 
C 3866 2848 3827 2483 3571 2259 
C 3654 2214 3776 2118 3834 2054 
C 4128 2355 4173 2758 4173 3098 
L 4173 3341 
L 3866 3341 
z
M 5242 3347 
L 5242 2522 
C 5242 2259 5261 2182 5318 2112 
C 5376 2061 5485 2035 5581 2035 
C 5626 2035 5741 2035 5792 2035 
C 5856 2035 5933 2042 5984 2074 
C 6042 2093 6086 2138 6118 2208 
C 6144 2272 6157 2458 6170 2624 
C 6086 2650 5984 2701 5920 2746 
C 5920 2586 5914 2464 5901 2406 
C 5882 2355 5875 2330 5850 2310 
C 5837 2304 5798 2298 5760 2298 
C 5722 2298 5670 2298 5645 2298 
C 5613 2298 5587 2304 5568 2323 
C 5562 2342 5555 2387 5555 2477 
L 5555 3347 
L 5242 3347 
z
M 4397 736 
C 4627 557 4870 339 5094 122 
L 3040 77 
C 3642 493 4307 1030 4819 1498 
L 4416 1728 
C 4122 1421 3718 1062 3296 730 
C 3142 851 2944 992 2733 1133 
C 3014 1357 3328 1645 3590 1914 
L 3200 2131 
C 3008 1888 2701 1568 2426 1325 
L 2067 1536 
L 1760 1254 
C 2150 1030 2624 698 2931 448 
C 2739 307 2560 179 2381 64 
L 1382 51 
L 1414 -358 
C 2438 -339 3974 -288 5446 -243 
C 5536 -346 5619 -442 5683 -531 
L 6086 -314 
C 5811 51 5248 570 4781 928 
L 4397 736 
z
M 2298 4365 
L 2298 3904 
L 1472 3904 
L 1472 3546 
L 2298 3546 
L 2298 2022 
L 2675 2022 
L 2675 3546 
L 3475 3546 
L 3475 3904 
L 2675 3904 
L 2675 4365 
L 2298 4365 
z
M 4512 4365 
L 4512 3904 
L 3693 3904 
L 3693 3546 
L 4512 3546 
L 4512 1997 
L 4890 1997 
L 4890 3546 
L 5939 3546 
L 5939 3904 
L 4890 3904 
L 4890 4365 
L 4512 4365 
z
M 704 4832 
L 704 2861 
C 704 1933 666 653 205 -256 
C 307 -301 506 -448 582 -531 
C 1075 435 1146 1875 1146 2861 
L 1146 4422 
L 6074 4422 
L 6074 4832 
L 3635 4832 
L 3635 5376 
L 3142 5376 
L 3142 4832 
L 704 4832 
z
" transform="scale(0.015625)"/>
      <path id="NotoSansCJKjp-Regular-580" d="M 4160 5414 
L 4160 1274 
L 4634 1274 
L 4634 4973 
L 6182 4973 
L 6182 5414 
L 4160 5414 
z
" transform="scale(0.015625)"/>
      <path id="NotoSansCJKjp-Regular-4aa8" d="M 2925 2502 
L 5222 2502 
L 5222 1914 
L 2925 1914 
L 2925 2502 
z
M 2925 3456 
L 5222 3456 
L 5222 2874 
L 2925 2874 
L 2925 3456 
z
M 1062 5376 
L 1062 4096 
L 282 4096 
L 282 3642 
L 1062 3642 
L 1062 2234 
L 224 1990 
L 352 1523 
L 1062 1754 
L 1062 83 
C 1062 -6 1030 -38 941 -38 
C 858 -45 582 -45 282 -38 
C 339 -160 410 -358 429 -480 
C 870 -480 1139 -467 1306 -397 
C 1472 -320 1542 -192 1542 83 
L 1542 1907 
L 2278 2157 
L 2234 2598 
L 1542 2381 
L 1542 3642 
L 2246 3642 
L 2246 4096 
L 1542 4096 
L 1542 5376 
L 1062 5376 
z
M 2464 3840 
L 2464 1530 
L 3853 1530 
L 3853 979 
L 2067 979 
L 2067 550 
L 3853 550 
L 3853 -512 
L 4326 -512 
L 4326 550 
L 6131 550 
L 6131 979 
L 4326 979 
L 4326 1530 
L 5696 1530 
L 5696 3840 
L 4320 3840 
L 4320 4416 
L 6067 4416 
L 6067 4832 
L 4320 4832 
L 4320 5376 
L 3846 5376 
L 3846 3840 
L 2464 3840 
z
" transform="scale(0.015625)"/>
      <path id="NotoSansCJKjp-Regular-273f" d="M 2931 5370 
L 2931 4480 
L 461 4480 
L 461 4013 
L 2931 4013 
L 2931 2438 
C 2349 1504 1280 614 237 186 
C 346 90 499 -96 576 -218 
C 1427 179 2298 877 2931 1696 
L 2931 -512 
L 3430 -512 
L 3430 1709 
C 4058 877 4934 160 5818 -237 
C 5894 -102 6048 90 6170 198 
C 5082 608 3994 1517 3430 2483 
L 3430 4013 
L 5984 4013 
L 5984 4480 
L 3430 4480 
L 3430 5370 
L 2931 5370 
z
M 1581 3866 
C 1389 3034 992 2336 410 1901 
C 518 1830 704 1677 787 1587 
C 1101 1850 1376 2195 1600 2598 
C 1830 2381 2067 2144 2202 1978 
L 2528 2310 
C 2368 2496 2067 2771 1798 3014 
C 1901 3251 1990 3507 2054 3776 
L 1581 3866 
z
M 4614 3866 
C 4474 3142 4166 2522 3706 2125 
C 3821 2067 4019 1939 4109 1862 
C 4326 2067 4512 2330 4672 2624 
C 5050 2304 5459 1946 5677 1702 
L 6016 2035 
C 5760 2291 5267 2707 4858 3027 
C 4954 3264 5024 3514 5082 3782 
L 4614 3866 
z
" transform="scale(0.015625)"/>
      <path id="NotoSansCJKjp-Regular-581" d="M 2240 -550 
L 2240 3590 
L 1766 3590 
L 1766 -109 
L 218 -109 
L 218 -550 
L 2240 -550 
z
" transform="scale(0.015625)"/>
     </defs>
     <use xlink:href="#NotoSansCJKjp-Regular-64e7"/>
     <use xlink:href="#NotoSansCJKjp-Regular-abd4" transform="translate(100 0)"/>
     <use xlink:href="#NotoSansCJKjp-Regular-36fb" transform="translate(200 0)"/>
     <use xlink:href="#NotoSansCJKjp-Regular-6eeb" transform="translate(300 0)"/>
     <use xlink:href="#NotoSansCJKjp-Regular-e6c0" transform="translate(400 0)"/>
     <use xlink:href="#NotoSansCJKjp-Regular-61a1" transform="translate(500 0)"/>
     <use xlink:href="#NotoSansCJKjp-Regular-261c" transform="translate(600 0)"/>
     <use xlink:href="#NotoSansCJKjp-Regular-b775" transform="translate(700 0)"/>
     <use xlink:href="#NotoSansCJKjp-Regular-8f7c" transform="translate(800 0)"/>
     <use xlink:href="#NotoSansCJKjp-Regular-4f54" transform="translate(900 0)"/>
     <use xlink:href="#NotoSansCJKjp-Regular-580" transform="translate(1000 0)"/>
     <use xlink:href="#NotoSansCJKjp-Regular-4aa8" transform="translate(1100 0)"/>
     <use xlink:href="#NotoSansCJKjp-Regular-2518" transform="translate(1200 0)"/>
     <use xlink:href="#NotoSansCJKjp-Regular-2516" transform="translate(1300 0)"/>
     <use xlink:href="#NotoSansCJKjp-Regular-273f" transform="translate(1400 0)"/>
     <use xlink:href="#NotoSansCJKjp-Regular-581" transform="translate(1500 0)"/>
    </g>
   </g>
   <g id="line2d_1">
    <path d="M 150.816 89.7248 
L 152.951453 89.849648 
L 155.081693 90.209014 
L 157.201429 90.804134 
L 159.305201 91.637073 
L 161.3873 92.710756 
L 163.441663 94.029031 
L 165.461758 95.596746 
L 167.440446 97.419847 
L 169.369816 99.505512 
L 171.240971 101.862316 
L 173.043762 104.500454 
L 173.161241 104.686617 
L 173.161241 104.686617 
" clip-path="url(#p34140f665c)" style="fill: none; stroke-dasharray: 7.4,3.2; stroke-dashoffset: 0; stroke: #1a7f37; stroke-width: 2"/>
   </g>
   <g id="line2d_2">
    <path d="M 150.816 89.7248 
L 154.137816 89.849628 
L 157.451537 90.208686 
L 160.748993 90.802465 
L 164.021868 91.631759 
L 167.261621 92.697666 
L 170.24771 93.907225 
L 173.189747 95.325507 
L 176.07987 96.95413 
L 178.909772 98.79495 
L 181.67062 100.850055 
L 184.352955 103.121766 
L 186.94658 105.612626 
L 189.44043 108.325395 
L 191.822419 111.263025 
L 193.128275 113.043826 
L 193.128275 113.043826 
" clip-path="url(#p34140f665c)" style="fill: none; stroke-dasharray: 7.4,3.2; stroke-dashoffset: 0; stroke: #bf8700; stroke-width: 2"/>
   </g>
   <g id="line2d_3">
    <path d="M 150.816 89.7248 
L 154.991997 89.849608 
L 159.157834 90.208362 
L 163.30332 90.800823 
L 167.418208 91.626561 
L 171.492171 92.684944 
L 175.514774 93.975134 
L 179.213546 95.38752 
L 182.849659 96.999859 
L 186.41426 98.810899 
L 189.898339 100.819173 
L 193.292715 103.022977 
L 196.588013 105.420343 
L 199.77465 108.009018 
L 202.84282 110.786427 
L 205.782477 113.74964 
L 208.583318 116.895333 
L 211.234778 120.21974 
L 213.726012 123.718605 
L 216.045893 127.387124 
L 218.036664 130.940792 
L 219.860488 134.631223 
L 221.507797 138.453 
L 222.756571 141.784946 
L 222.756571 141.784946 
" clip-path="url(#p34140f665c)" style="fill: none; stroke-dasharray: 7.4,3.2; stroke-dashoffset: 0; stroke: #d1242f; stroke-width: 2"/>
   </g>
   <g id="line2d_4">
    <path d="M 247.1232 186.032 
L 247.038156 181.985593 
L 246.783175 177.946332 
L 246.358708 173.921351 
L 245.765502 169.917759 
L 245.004608 165.942626 
L 244.077367 162.002973 
L 242.985419 158.105757 
L 241.73069 154.257862 
L 240.315398 150.466082 
L 238.742042 146.737116 
L 237.0134 143.077547 
L 235.132526 139.493841 
L 233.10274 135.992325 
L 230.927629 132.579183 
L 228.611034 129.260444 
L 226.157045 126.04197 
L 223.569997 122.929442 
L 220.854458 119.92836 
L 218.015225 117.044023 
L 215.057312 114.281526 
L 211.985943 111.645746 
L 208.806543 109.141339 
L 205.524725 106.772728 
L 202.146287 104.544097 
L 198.677195 102.45938 
L 195.123576 100.522261 
L 191.491705 98.736159 
L 187.787997 97.10423 
L 184.018994 95.629356 
L 180.19135 94.314141 
L 176.311827 93.160909 
L 172.387277 92.171695 
L 168.424629 91.348248 
L 164.430883 90.69202 
L 160.413092 90.204172 
L 156.378351 89.885565 
L 152.333787 89.736761 
L 148.286542 89.758023 
L 144.243764 89.949314 
L 140.212594 90.310296 
L 136.20015 90.840332 
L 132.213519 91.538484 
L 128.259742 92.403521 
L 124.345801 93.433915 
L 120.478609 94.627845 
L 116.664996 95.983204 
L 112.911697 97.497597 
L 109.22534 99.16835 
L 105.612436 100.992512 
L 102.079366 102.966861 
L 98.632369 105.087912 
L 95.277533 107.351917 
L 92.020783 109.754879 
L 88.867871 112.292553 
L 85.824365 114.960457 
L 82.895641 117.753881 
L 80.08687 120.66789 
L 77.403013 123.697338 
L 74.84881 126.836875 
L 72.428773 130.080955 
L 70.147174 133.423851 
L 68.008044 136.859657 
L 66.015161 140.382307 
L 64.172044 143.985578 
L 62.481948 147.663107 
L 60.947858 151.408398 
L 59.572483 155.214839 
L 58.358253 159.075705 
L 57.307312 162.984178 
L 56.421516 166.933357 
L 55.702429 170.916265 
L 55.151322 174.925869 
L 54.769167 178.955087 
L 54.55664 182.996804 
L 54.514116 187.043881 
L 54.64167 191.089171 
L 54.939076 195.12553 
L 55.40581 199.145829 
L 56.041048 203.142967 
L 56.843666 207.109886 
L 57.812249 211.03958 
L 58.945084 214.925107 
L 60.240173 218.759607 
L 61.695226 222.536307 
L 63.307675 226.248537 
L 65.074672 229.889741 
L 66.993096 233.453488 
L 69.059559 236.933484 
L 71.270411 240.323584 
L 73.621748 243.617799 
L 76.109418 246.810313 
L 78.729026 249.895486 
L 81.475946 252.867871 
L 84.345327 255.722218 
L 87.332102 258.453485 
L 90.430995 261.056849 
L 93.636534 263.527712 
L 96.943056 265.861711 
L 100.344724 268.054723 
L 103.835528 270.102875 
L 107.409304 272.00255 
L 111.059741 273.750394 
L 114.78039 275.343318 
L 118.564682 276.778511 
L 122.405933 278.053437 
L 126.297358 279.165844 
L 130.232086 280.113769 
L 134.203167 280.895536 
L 138.203587 281.509766 
L 142.226283 281.955373 
L 146.264148 282.231571 
L 150.310053 282.337871 
L 154.356851 282.274086 
L 158.397395 282.040329 
L 162.42455 281.637012 
L 166.431204 281.064848 
L 170.410279 280.324847 
L 174.354749 279.418316 
L 178.257648 278.346857 
L 182.112082 277.11236 
L 185.911244 275.717008 
L 189.648425 274.163263 
L 193.317024 272.453871 
L 196.910562 270.591849 
L 200.422694 268.580487 
L 203.847215 266.423337 
L 207.178078 264.124208 
L 210.4094 261.687161 
L 213.535475 259.1165 
L 216.550782 256.416765 
L 219.449995 253.592725 
L 222.227994 250.649365 
L 224.879873 247.591886 
L 227.400948 244.425686 
L 229.786767 241.156357 
L 232.033116 237.789673 
L 234.136029 234.331581 
L 236.091791 230.788187 
L 237.896947 227.16575 
L 239.548311 223.470667 
L 241.042965 219.709463 
L 242.37827 215.888782 
L 243.551868 212.015372 
L 244.561685 208.096072 
L 245.405939 204.137805 
L 246.083139 200.147561 
L 246.592087 196.132388 
L 246.931887 192.099377 
L 247.101937 188.05565 
L 247.1232 186.032 
L 247.1232 186.032 
" clip-path="url(#p34140f665c)" style="fill: none; stroke: #1f6feb; stroke-width: 2.4; stroke-linecap: square"/>
   </g>
   <g id="patch_3">
    <path d="M 150.816 89.7248 
Q 177.0048 89.7248 201.181139 89.7248 
" clip-path="url(#p34140f665c)" style="fill: none; stroke: #222831; stroke-width: 1.8; stroke-linecap: round"/>
    <path d="M 195.981139 87.1248 
L 201.181139 89.7248 
L 195.981139 92.3248 
z
" clip-path="url(#p34140f665c)" style="fill: #222831; stroke: #222831; stroke-width: 1.8; stroke-linecap: round"/>
   </g>
   <g id="line2d_5">
    <defs>
     <path id="m95b46db5d0" d="M 0 3 
C 0.795609 3 1.55874 2.683901 2.12132 2.12132 
C 2.683901 1.55874 3 0.795609 3 0 
C 3 -0.795609 2.683901 -1.55874 2.12132 -2.12132 
C 1.55874 -2.683901 0.795609 -3 0 -3 
C -0.795609 -3 -1.55874 -2.683901 -2.12132 -2.12132 
C -2.683901 -1.55874 -3 -0.795609 -3 0 
C -3 0.795609 -2.683901 1.55874 -2.12132 2.12132 
C -1.55874 2.683901 -0.795609 3 0 3 
z
" style="stroke: #1a7f37"/>
    </defs>
    <g clip-path="url(#p34140f665c)">
     <use xlink:href="#m95b46db5d0" x="173.161241" y="104.686617" style="fill: #1a7f37; stroke: #1a7f37"/>
    </g>
   </g>
   <g id="line2d_6">
    <defs>
     <path id="m244764add6" d="M 0 3 
C 0.795609 3 1.55874 2.683901 2.12132 2.12132 
C 2.683901 1.55874 3 0.795609 3 0 
C 3 -0.795609 2.683901 -1.55874 2.12132 -2.12132 
C 1.55874 -2.683901 0.795609 -3 0 -3 
C -0.795609 -3 -1.55874 -2.683901 -2.12132 -2.12132 
C -2.683901 -1.55874 -3 -0.795609 -3 0 
C -3 0.795609 -2.683901 1.55874 -2.12132 2.12132 
C -1.55874 2.683901 -0.795609 3 0 3 
z
" style="stroke: #bf8700"/>
    </defs>
    <g clip-path="url(#p34140f665c)">
     <use xlink:href="#m244764add6" x="193.128275" y="113.043826" style="fill: #bf8700; stroke: #bf8700"/>
    </g>
   </g>
   <g id="line2d_7">
    <defs>
     <path id="m4e3ff2fe63" d="M 0 3 
C 0.795609 3 1.55874 2.683901 2.12132 2.12132 
C 2.683901 1.55874 3 0.795609 3 0 
C 3 -0.795609 2.683901 -1.55874 2.12132 -2.12132 
C 1.55874 -2.683901 0.795609 -3 0 -3 
C -0.795609 -3 -1.55874 -2.683901 -2.12132 -2.12132 
C -2.683901 -1.55874 -3 -0.795609 -3 0 
C -3 0.795609 -2.683901 1.55874 -2.12132 2.12132 
C -1.55874 2.683901 -0.795609 3 0 3 
z
" style="stroke: #d1242f"/>
    </defs>
    <g clip-path="url(#p34140f665c)">
     <use xlink:href="#m4e3ff2fe63" x="222.756571" y="141.784946" style="fill: #d1242f; stroke: #d1242f"/>
    </g>
   </g>
   <g id="patch_4">
    <path d="M 150.816 93.5264 
C 151.824196 93.5264 152.791235 93.125839 153.504137 92.412937 
C 154.217039 91.700035 154.6176 90.732996 154.6176 89.7248 
C 154.6176 88.716604 154.217039 87.749565 153.504137 87.036663 
C 152.791235 86.323761 151.824196 85.9232 150.816 85.9232 
C 149.807804 85.9232 148.840765 86.323761 148.127863 87.036663 
C 147.414961 87.749565 147.0144 88.716604 147.0144 89.7248 
C 147.0144 90.732996 147.414961 91.700035 148.127863 92.412937 
C 148.840765 93.125839 149.807804 93.5264 150.816 93.5264 
z
" clip-path="url(#p34140f665c)" style="fill: #222831; stroke: #222831; stroke-linejoin: miter"/>
   </g>
  </g>
 </g>
 <defs>
  <clipPath id="p34140f665c">
   <rect x="7.2" y="25.52" width="329.472" height="354.816"/>
  </clipPath>
 </defs>
</svg>
