<?xml version="1.0" encoding="utf-8" standalone="no"?>
<!DOCTYPE svg PUBLIC "-//W3C//DTD SVG 1.1//EN"
  "http://www.w3.org/Graphics/SVG/1.1/DTD/svg11.dtd">
<svg xmlns:xlink="http://www.w3.org/1999/xlink" width="731.802663pt" height="310.073143pt" viewBox="0 0 731.802663 310.073143" xmlns="http://www.w3.org/2000/svg" version="1.1">
 <metadata>
  <rdf:RDF xmlns:dc="http://purl.org/dc/elements/1.1/" xmlns:cc="http://creativecommons.org/ns#" xmlns:rdf="http://www.w3.org/1999/02/22-rdf-syntax-ns#">
   <cc:Work>
    <dc:type rdf:resource="http://purl.org/dc/dcmitype/StillImage"/>
    <dc:date>2026-06-20T18:20:33.971697</dc:date>
    <dc:format>image/svg+xml</dc:format>
    <dc:creator>
     <cc:Agent>
      <dc:title>Matplotlib v3.11.0, https://matplotlib.org/</dc:title>
     </cc:Agent>
    </dc:creator>
   </cc:Work>
  </rdf:RDF>
 </metadata>
 <defs>
  <style type="text/css">*{stroke-linejoin: round; stroke-linecap: butt}</style>
 </defs>
 <g id="figure_1">
  <g id="patch_1">
   <path d="M 0 310.073143 
L 731.802663 310.073143 
L 731.802663 0 
L 0 0 
z
" style="fill: #ffffff"/>
  </g>
  <g id="axes_1">
   <g id="patch_2">
    <path d="M 20.86 283.873143 
L 323.298667 283.873143 
L 323.298667 24.64 
L 20.86 24.64 
z
" style="fill: #ffffff"/>
   </g>
   <g id="matplotlib.axis_1">
    <g id="xtick_1">
     <g id="line2d_1">
      <path d="M 42.462762 283.873143 
L 42.462762 24.64 
" clip-path="url(#p5f85db1636)" style="fill: none; stroke: #d8dde3; stroke-width: 0.9; stroke-linecap: square"/>
     </g>
     <g id="line2d_2">
      <defs>
       <path id="m0666ea66c6" d="M 0 0 
L 0 3.5 
" style="stroke: #222831; stroke-width: 0.8"/>
      </defs>
      <g>
       <use xlink:href="#m0666ea66c6" x="42.462762" y="283.873143" style="fill: #222831; stroke: #222831; stroke-width: 0.8"/>
      </g>
     </g>
     <g id="text_1">
      <!-- -1 -->
      <g style="fill: #222831" transform="translate(37.050574 301.433143) scale(0.12 -0.12)">
       <defs>
        <path id="NotoSansCJKjp-Regular-e" d="M 294 1568 
L 1933 1568 
L 1933 2016 
L 294 2016 
L 294 1568 
z
" transform="scale(0.015625)"/>
        <path id="NotoSansCJKjp-Regular-12" d="M 563 0 
L 3136 0 
L 3136 486 
L 2195 486 
L 2195 4691 
L 1747 4691 
C 1491 4544 1190 4435 774 4358 
L 774 3987 
L 1613 3987 
L 1613 486 
L 563 486 
L 563 0 
z
" transform="scale(0.015625)"/>
       </defs>
       <use xlink:href="#NotoSansCJKjp-Regular-e"/>
       <use xlink:href="#NotoSansCJKjp-Regular-12" transform="translate(34.703125 0)"/>
      </g>
     </g>
    </g>
    <g id="xtick_2">
     <g id="line2d_3">
      <path d="M 96.469667 283.873143 
L 96.469667 24.64 
" clip-path="url(#p5f85db1636)" style="fill: none; stroke: #d8dde3; stroke-width: 0.9; stroke-linecap: square"/>
     </g>
     <g id="line2d_4">
      <g>
       <use xlink:href="#m0666ea66c6" x="96.469667" y="283.873143" style="fill: #222831; stroke: #222831; stroke-width: 0.8"/>
      </g>
     </g>
     <g id="text_2">
      <!-- 0 -->
      <g style="fill: #222831" transform="translate(93.139667 301.433143) scale(0.12 -0.12)">
       <defs>
        <path id="NotoSansCJKjp-Regular-11" d="M 1779 -83 
C 2669 -83 3238 723 3238 2362 
C 3238 3987 2669 4774 1779 4774 
C 883 4774 320 3987 320 2362 
C 320 723 883 -83 1779 -83 
z
M 1779 390 
C 1248 390 883 986 883 2362 
C 883 3731 1248 4314 1779 4314 
C 2310 4314 2675 3731 2675 2362 
C 2675 986 2310 390 1779 390 
z
" transform="scale(0.015625)"/>
       </defs>
       <use xlink:href="#NotoSansCJKjp-Regular-11"/>
      </g>
     </g>
    </g>
    <g id="xtick_3">
     <g id="line2d_5">
      <path d="M 150.476571 283.873143 
L 150.476571 24.64 
" clip-path="url(#p5f85db1636)" style="fill: none; stroke: #d8dde3; stroke-width: 0.9; stroke-linecap: square"/>
     </g>
     <g id="line2d_6">
      <g>
       <use xlink:href="#m0666ea66c6" x="150.476571" y="283.873143" style="fill: #222831; stroke: #222831; stroke-width: 0.8"/>
      </g>
     </g>
     <g id="text_3">
      <!-- 1 -->
      <g style="fill: #222831" transform="translate(147.146571 301.433143) scale(0.12 -0.12)">
       <use xlink:href="#NotoSansCJKjp-Regular-12"/>
      </g>
     </g>
    </g>
    <g id="xtick_4">
     <g id="line2d_7">
      <path d="M 204.483476 283.873143 
L 204.483476 24.64 
" clip-path="url(#p5f85db1636)" style="fill: none; stroke: #d8dde3; stroke-width: 0.9; stroke-linecap: square"/>
     </g>
     <g id="line2d_8">
      <g>
       <use xlink:href="#m0666ea66c6" x="204.483476" y="283.873143" style="fill: #222831; stroke: #222831; stroke-width: 0.8"/>
      </g>
     </g>
     <g id="text_4">
      <!-- 2 -->
      <g style="fill: #222831" transform="translate(201.153476 301.433143) scale(0.12 -0.12)">
       <defs>
        <path id="NotoSansCJKjp-Regular-13" d="M 282 0 
L 3232 0 
L 3232 506 
L 1933 506 
C 1696 506 1408 480 1165 461 
C 2266 1504 3008 2458 3008 3398 
C 3008 4230 2477 4774 1638 4774 
C 1043 4774 634 4506 256 4090 
L 595 3757 
C 858 4070 1184 4301 1568 4301 
C 2150 4301 2432 3910 2432 3373 
C 2432 2566 1754 1632 282 346 
L 282 0 
z
" transform="scale(0.015625)"/>
       </defs>
       <use xlink:href="#NotoSansCJKjp-Regular-13"/>
      </g>
     </g>
    </g>
    <g id="xtick_5">
     <g id="line2d_9">
      <path d="M 258.490381 283.873143 
L 258.490381 24.64 
" clip-path="url(#p5f85db1636)" style="fill: none; stroke: #d8dde3; stroke-width: 0.9; stroke-linecap: square"/>
     </g>
     <g id="line2d_10">
      <g>
       <use xlink:href="#m0666ea66c6" x="258.490381" y="283.873143" style="fill: #222831; stroke: #222831; stroke-width: 0.8"/>
      </g>
     </g>
     <g id="text_5">
      <!-- 3 -->
      <g style="fill: #222831" transform="translate(255.160381 301.433143) scale(0.12 -0.12)">
       <defs>
        <path id="NotoSansCJKjp-Regular-14" d="M 1683 -83 
C 2522 -83 3194 416 3194 1254 
C 3194 1901 2752 2310 2202 2445 
L 2202 2477 
C 2701 2650 3034 3034 3034 3603 
C 3034 4346 2458 4774 1664 4774 
C 1126 4774 710 4538 358 4218 
L 672 3846 
C 941 4115 1267 4301 1645 4301 
C 2138 4301 2438 4006 2438 3558 
C 2438 3053 2112 2662 1139 2662 
L 1139 2214 
C 2227 2214 2598 1843 2598 1274 
C 2598 736 2208 403 1645 403 
C 1114 403 762 659 486 941 
L 186 563 
C 493 224 954 -83 1683 -83 
z
" transform="scale(0.015625)"/>
       </defs>
       <use xlink:href="#NotoSansCJKjp-Regular-14"/>
      </g>
     </g>
    </g>
    <g id="xtick_6">
     <g id="line2d_11">
      <path d="M 312.497286 283.873143 
L 312.497286 24.64 
" clip-path="url(#p5f85db1636)" style="fill: none; stroke: #d8dde3; stroke-width: 0.9; stroke-linecap: square"/>
     </g>
     <g id="line2d_12">
      <g>
       <use xlink:href="#m0666ea66c6" x="312.497286" y="283.873143" style="fill: #222831; stroke: #222831; stroke-width: 0.8"/>
      </g>
     </g>
     <g id="text_6">
      <!-- 4 -->
      <g style="fill: #222831" transform="translate(309.167286 301.433143) scale(0.12 -0.12)">
       <defs>
        <path id="NotoSansCJKjp-Regular-15" d="M 2176 0 
L 2726 0 
L 2726 1293 
L 3354 1293 
L 3354 1760 
L 2726 1760 
L 2726 4691 
L 2080 4691 
L 128 1677 
L 128 1293 
L 2176 1293 
L 2176 0 
z
M 2176 1760 
L 736 1760 
L 1805 3360 
C 1939 3590 2067 3827 2182 4051 
L 2208 4051 
C 2195 3814 2176 3430 2176 3200 
L 2176 1760 
z
" transform="scale(0.015625)"/>
       </defs>
       <use xlink:href="#NotoSansCJKjp-Regular-15"/>
      </g>
     </g>
    </g>
   </g>
   <g id="matplotlib.axis_2">
    <g id="ytick_1">
     <g id="line2d_13">
      <path d="M 20.86 251.469 
L 323.298667 251.469 
" clip-path="url(#p5f85db1636)" style="fill: none; stroke: #d8dde3; stroke-width: 0.9; stroke-linecap: square"/>
     </g>
     <g id="line2d_14">
      <defs>
       <path id="m1b7dc13ee7" d="M 0 0 
L -3.5 0 
" style="stroke: #222831; stroke-width: 0.8"/>
      </defs>
      <g>
       <use xlink:href="#m1b7dc13ee7" x="20.86" y="251.469" style="fill: #222831; stroke: #222831; stroke-width: 0.8"/>
      </g>
     </g>
     <g id="text_7">
      <!-- 0 -->
      <g style="fill: #222831" transform="translate(7.2 256.749) scale(0.12 -0.12)">
       <use xlink:href="#NotoSansCJKjp-Regular-11"/>
      </g>
     </g>
    </g>
    <g id="ytick_2">
     <g id="line2d_15">
      <path d="M 20.86 197.462095 
L 323.298667 197.462095 
" clip-path="url(#p5f85db1636)" style="fill: none; stroke: #d8dde3; stroke-width: 0.9; stroke-linecap: square"/>
     </g>
     <g id="line2d_16">
      <g>
       <use xlink:href="#m1b7dc13ee7" x="20.86" y="197.462095" style="fill: #222831; stroke: #222831; stroke-width: 0.8"/>
      </g>
     </g>
     <g id="text_8">
      <!-- 1 -->
      <g style="fill: #222831" transform="translate(7.2 202.742095) scale(0.12 -0.12)">
       <use xlink:href="#NotoSansCJKjp-Regular-12"/>
      </g>
     </g>
    </g>
    <g id="ytick_3">
     <g id="line2d_17">
      <path d="M 20.86 143.45519 
L 323.298667 143.45519 
" clip-path="url(#p5f85db1636)" style="fill: none; stroke: #d8dde3; stroke-width: 0.9; stroke-linecap: square"/>
     </g>
     <g id="line2d_18">
      <g>
       <use xlink:href="#m1b7dc13ee7" x="20.86" y="143.45519" style="fill: #222831; stroke: #222831; stroke-width: 0.8"/>
      </g>
     </g>
     <g id="text_9">
      <!-- 2 -->
      <g style="fill: #222831" transform="translate(7.2 148.73519) scale(0.12 -0.12)">
       <use xlink:href="#NotoSansCJKjp-Regular-13"/>
      </g>
     </g>
    </g>
    <g id="ytick_4">
     <g id="line2d_19">
      <path d="M 20.86 89.448286 
L 323.298667 89.448286 
" clip-path="url(#p5f85db1636)" style="fill: none; stroke: #d8dde3; stroke-width: 0.9; stroke-linecap: square"/>
     </g>
     <g id="line2d_20">
      <g>
       <use xlink:href="#m1b7dc13ee7" x="20.86" y="89.448286" style="fill: #222831; stroke: #222831; stroke-width: 0.8"/>
      </g>
     </g>
     <g id="text_10">
      <!-- 3 -->
      <g style="fill: #222831" transform="translate(7.2 94.728286) scale(0.12 -0.12)">
       <use xlink:href="#NotoSansCJKjp-Regular-14"/>
      </g>
     </g>
    </g>
    <g id="ytick_5">
     <g id="line2d_21">
      <path d="M 20.86 35.441381 
L 323.298667 35.441381 
" clip-path="url(#p5f85db1636)" style="fill: none; stroke: #d8dde3; stroke-width: 0.9; stroke-linecap: square"/>
     </g>
     <g id="line2d_22">
      <g>
       <use xlink:href="#m1b7dc13ee7" x="20.86" y="35.441381" style="fill: #222831; stroke: #222831; stroke-width: 0.8"/>
      </g>
     </g>
     <g id="text_11">
      <!-- 4 -->
      <g style="fill: #222831" transform="translate(7.2 40.721381) scale(0.12 -0.12)">
       <use xlink:href="#NotoSansCJKjp-Regular-15"/>
      </g>
     </g>
    </g>
   </g>
   <g id="patch_3">
    <path d="M 117.743711 247.714757 
L 113.989468 226.440712 
L 92.715423 230.194955 
" clip-path="url(#p5f85db1636)" style="fill: none; stroke: #222831; stroke-width: 1.2; stroke-linejoin: miter"/>
   </g>
   <g id="patch_4">
    <path d="M 20.86 283.873143 
L 20.86 24.64 
" style="fill: none; stroke: #222831; stroke-width: 1.1; stroke-linejoin: miter; stroke-linecap: square"/>
   </g>
   <g id="patch_5">
    <path d="M 20.86 283.873143 
L 323.298667 283.873143 
" style="fill: none; stroke: #222831; stroke-width: 1.1; stroke-linejoin: miter; stroke-linecap: square"/>
   </g>
   <g id="text_12">
    <!-- a -->
    <g style="fill: #1f6feb" transform="translate(212.044443 253.629276) scale(0.15 -0.15)">
     <defs>
      <path id="NotoSansCJKjp-Regular-42" d="M 1389 -83 
C 1818 -83 2208 141 2541 416 
L 2560 416 
L 2611 0 
L 3091 0 
L 3091 2138 
C 3091 3002 2739 3565 1888 3565 
C 1325 3565 838 3315 525 3110 
L 749 2707 
C 1024 2893 1389 3078 1792 3078 
C 2362 3078 2509 2650 2509 2202 
C 1030 2035 378 1658 378 902 
C 378 275 806 -83 1389 -83 
z
M 1555 390 
C 1210 390 941 544 941 941 
C 941 1389 1338 1677 2509 1811 
L 2509 845 
C 2170 544 1888 390 1555 390 
z
" transform="scale(0.015625)"/>
     </defs>
     <use xlink:href="#NotoSansCJKjp-Regular-42"/>
    </g>
   </g>
   <g id="text_13">
    <!-- b -->
    <g style="fill: #1a7f37" transform="translate(50.023729 141.294914) scale(0.15 -0.15)">
     <defs>
      <path id="NotoSansCJKjp-Regular-43" d="M 2118 -83 
C 2912 -83 3629 602 3629 1792 
C 3629 2867 3142 3565 2246 3565 
C 1856 3565 1472 3347 1152 3078 
L 1178 3699 
L 1178 5094 
L 589 5094 
L 589 0 
L 1056 0 
L 1107 358 
L 1133 358 
C 1434 83 1798 -83 2118 -83 
z
M 2022 410 
C 1792 410 1478 499 1178 768 
L 1178 2598 
C 1504 2906 1811 3072 2099 3072 
C 2765 3072 3021 2560 3021 1786 
C 3021 928 2598 410 2022 410 
z
" transform="scale(0.015625)"/>
     </defs>
     <use xlink:href="#NotoSansCJKjp-Regular-43"/>
    </g>
   </g>
   <g id="text_14">
    <!-- 垂直 ⇔ a·b = 0 -->
    <g style="fill: #d1242f" transform="translate(133.617211 62.444833) scale(0.13 -0.13)">
     <defs>
      <path id="NotoSansCJKjp-Regular-3448" d="M 5222 5312 
C 4186 5088 2285 4954 723 4909 
C 774 4800 826 4614 832 4493 
C 1498 4512 2227 4544 2938 4595 
L 2938 3910 
L 666 3910 
L 666 3475 
L 1440 3475 
L 1440 2656 
L 339 2656 
L 339 2214 
L 1440 2214 
L 1440 1357 
L 621 1357 
L 621 922 
L 2938 922 
L 2938 128 
L 448 128 
L 448 -307 
L 5971 -307 
L 5971 128 
L 3418 128 
L 3418 922 
L 5805 922 
L 5805 1357 
L 4973 1357 
L 4973 2214 
L 6067 2214 
L 6067 2656 
L 4973 2656 
L 4973 3475 
L 5747 3475 
L 5747 3910 
L 3418 3910 
L 3418 4634 
C 4218 4704 4979 4800 5568 4922 
L 5222 5312 
z
M 2938 2214 
L 2938 1357 
L 1907 1357 
L 1907 2214 
L 2938 2214 
z
M 3418 2214 
L 4493 2214 
L 4493 1357 
L 3418 1357 
L 3418 2214 
z
M 2938 2656 
L 1907 2656 
L 1907 3475 
L 2938 3475 
L 2938 2656 
z
M 3418 2656 
L 3418 3475 
L 4493 3475 
L 4493 2656 
L 3418 2656 
z
" transform="scale(0.015625)"/>
      <path id="NotoSansCJKjp-Regular-6ce1" d="M 2374 2586 
L 4832 2586 
L 4832 2061 
L 2374 2061 
L 2374 2586 
z
M 2374 1715 
L 4832 1715 
L 4832 1178 
L 2374 1178 
L 2374 1715 
z
M 2374 3456 
L 4832 3456 
L 4832 2931 
L 2374 2931 
L 2374 3456 
z
M 736 3635 
L 736 -518 
L 1203 -518 
L 1203 -179 
L 6080 -179 
L 6080 269 
L 1203 269 
L 1203 3635 
L 736 3635 
z
M 3053 5395 
L 3008 4787 
L 397 4787 
L 397 4339 
L 2963 4339 
L 2899 3814 
L 1914 3814 
L 1914 813 
L 5306 813 
L 5306 3814 
L 3379 3814 
L 3469 4339 
L 6029 4339 
L 6029 4787 
L 3533 4787 
L 3603 5363 
L 3053 5395 
z
" transform="scale(0.015625)"/>
      <path id="NotoSansCJKjp-Regular-1" transform="scale(0.015625)"/>
      <path id="NotoSansCJKjp-Regular-32d" d="M 2477 4307 
L 2106 4525 
C 1645 3744 864 2886 154 2406 
C 864 1920 1645 1062 2106 282 
L 2477 499 
C 2336 749 2131 1030 1914 1293 
L 4486 1293 
C 4269 1030 4064 749 3923 499 
L 4294 282 
C 4755 1062 5536 1920 6246 2406 
C 5536 2886 4755 3744 4294 4525 
L 3923 4307 
C 4064 4058 4269 3776 4486 3514 
L 1914 3514 
C 2131 3776 2336 4058 2477 4307 
z
M 1562 3072 
L 4838 3072 
C 5082 2810 5331 2573 5562 2406 
C 5331 2234 5082 1997 4838 1734 
L 1562 1734 
C 1318 1997 1069 2234 838 2406 
C 1069 2573 1318 2810 1562 3072 
z
" transform="scale(0.015625)"/>
      <path id="NotoSansCJKjp-Regular-75" d="M 1766 1875 
C 1997 1875 2195 2067 2195 2323 
C 2195 2592 1997 2778 1766 2778 
C 1536 2778 1350 2592 1350 2323 
C 1350 2067 1536 1875 1766 1875 
z
" transform="scale(0.015625)"/>
      <path id="NotoSansCJKjp-Regular-1e" d="M 243 2912 
L 3315 2912 
L 3315 3347 
L 243 3347 
L 243 2912 
z
M 243 1376 
L 3315 1376 
L 3315 1811 
L 243 1811 
L 243 1376 
z
" transform="scale(0.015625)"/>
      <path id="NotoSansCJKjp-Regular-f6b1" d="M 1779 -83 
C 2688 -83 3238 768 3238 2298 
C 3238 3821 2688 4646 1779 4646 
C 864 4646 320 3827 320 2298 
C 320 768 864 -83 1779 -83 
z
M 1779 390 
C 1248 390 883 960 883 2298 
C 883 3635 1248 4179 1779 4179 
C 2310 4179 2675 3635 2675 2298 
C 2675 960 2310 390 1779 390 
z
" transform="scale(0.015625)"/>
     </defs>
     <use xlink:href="#NotoSansCJKjp-Regular-3448"/>
     <use xlink:href="#NotoSansCJKjp-Regular-6ce1" transform="translate(100 0)"/>
     <use xlink:href="#NotoSansCJKjp-Regular-1" transform="translate(200 0)"/>
     <use xlink:href="#NotoSansCJKjp-Regular-32d" transform="translate(222.40625 0)"/>
     <use xlink:href="#NotoSansCJKjp-Regular-1" transform="translate(322.40625 0)"/>
     <use xlink:href="#NotoSansCJKjp-Regular-42" transform="translate(344.8125 0)"/>
     <use xlink:href="#NotoSansCJKjp-Regular-75" transform="translate(401.109375 0)"/>
     <use xlink:href="#NotoSansCJKjp-Regular-43" transform="translate(457.203125 0)"/>
     <use xlink:href="#NotoSansCJKjp-Regular-1" transform="translate(519 0)"/>
     <use xlink:href="#NotoSansCJKjp-Regular-1e" transform="translate(541.40625 0)"/>
     <use xlink:href="#NotoSansCJKjp-Regular-1" transform="translate(596.90625 0)"/>
     <use xlink:href="#NotoSansCJKjp-Regular-f6b1" transform="translate(619.3125 0)"/>
    </g>
   </g>
   <g id="text_15">
    <!-- （內積為零） -->
    <g style="fill: #222831" transform="translate(144.480024 89.448286) scale(0.11 -0.11)">
     <defs>
      <path id="NotoSansCJKjp-Regular-e6ae" d="M 4448 2432 
C 4448 1184 4954 166 5722 -614 
L 6106 -416 
C 5370 346 4915 1293 4915 2432 
C 4915 3571 5370 4518 6106 5280 
L 5722 5478 
C 4954 4698 4448 3680 4448 2432 
z
" transform="scale(0.015625)"/>
      <path id="NotoSansCJKjp-Regular-2a90" d="M 1824 5088 
L 1824 4659 
L 2976 4659 
C 2995 4410 3021 4173 3053 3942 
L 704 3942 
L 704 -512 
L 1184 -512 
L 1184 3469 
L 2854 3469 
C 2630 2458 2112 1773 1242 1344 
C 1344 1261 1504 1075 1568 966 
C 2426 1408 2950 2118 3226 3098 
C 3501 2138 4000 1421 4838 998 
C 4915 1126 5075 1318 5184 1414 
C 4339 1779 3859 2483 3610 3469 
L 5254 3469 
L 5254 115 
C 5254 19 5222 -19 5107 -19 
C 4986 -26 4576 -32 4154 -13 
C 4230 -154 4307 -371 4326 -506 
C 4864 -506 5235 -506 5459 -422 
C 5670 -346 5734 -192 5734 115 
L 5734 3942 
L 3507 3942 
C 3450 4294 3411 4678 3392 5088 
L 1824 5088 
z
" transform="scale(0.015625)"/>
      <path id="NotoSansCJKjp-Regular-7289" d="M 3341 1997 
L 5318 1997 
L 5318 1581 
L 3341 1581 
L 3341 1997 
z
M 3341 1267 
L 5318 1267 
L 5318 845 
L 3341 845 
L 3341 1267 
z
M 3341 2720 
L 5318 2720 
L 5318 2310 
L 3341 2310 
L 3341 2720 
z
M 2899 3053 
L 2899 512 
L 5773 512 
L 5773 3053 
L 2899 3053 
z
M 4640 224 
C 5056 -19 5510 -320 5773 -518 
L 6195 -282 
C 5894 -70 5395 224 4966 467 
L 4640 224 
z
M 3622 486 
C 3322 224 2714 -70 2189 -224 
C 2285 -307 2426 -448 2502 -538 
C 3021 -371 3648 -64 4032 243 
L 3622 486 
z
M 2477 3712 
L 2477 3597 
L 1779 3597 
L 1779 4672 
C 2080 4742 2355 4819 2586 4915 
L 2253 5286 
C 1798 5082 986 4909 288 4806 
C 346 4698 410 4538 429 4435 
C 710 4467 1011 4518 1312 4570 
L 1312 3597 
L 320 3597 
L 320 3149 
L 1267 3149 
C 1011 2406 570 1562 154 1101 
C 230 986 352 794 403 659 
C 723 1050 1050 1677 1312 2317 
L 1312 -499 
L 1779 -499 
L 1779 2266 
C 1990 2003 2240 1670 2336 1498 
L 2624 1875 
C 2502 2022 1978 2560 1779 2746 
L 1779 3149 
L 2502 3149 
L 2502 3373 
L 6138 3373 
L 6138 3712 
L 4518 3712 
L 4518 4051 
L 5818 4051 
L 5818 4365 
L 4518 4365 
L 4518 4691 
L 5984 4691 
L 5984 5024 
L 4518 5024 
L 4518 5376 
L 4045 5376 
L 4045 5024 
L 2669 5024 
L 2669 4691 
L 4045 4691 
L 4045 4365 
L 2816 4365 
L 2816 4051 
L 4045 4051 
L 4045 3712 
L 2477 3712 
z
" transform="scale(0.015625)"/>
      <path id="NotoSansCJKjp-Regular-61a1" d="M 4083 1197 
C 4275 934 4474 563 4550 326 
L 4902 474 
C 4826 704 4621 1069 4416 1325 
L 4083 1197 
z
M 1312 5184 
C 1562 4915 1830 4544 1946 4294 
L 2387 4499 
C 2259 4742 1978 5107 1734 5357 
L 1312 5184 
z
M 2182 1043 
C 2298 627 2368 96 2349 -250 
L 2771 -186 
C 2771 160 2707 685 2579 1094 
L 2182 1043 
z
M 3130 1101 
C 3283 742 3437 275 3482 -26 
L 3885 83 
C 3827 378 3674 838 3501 1184 
L 3130 1101 
z
M 1363 1184 
C 1242 691 992 122 640 -218 
L 1011 -474 
C 1395 -90 1619 525 1766 1056 
L 1363 1184 
z
M 3251 5382 
C 3142 5011 3008 4640 2848 4282 
L 525 4282 
L 525 3840 
L 2637 3840 
C 2086 2765 1280 1798 192 1178 
C 275 1075 397 890 454 774 
C 832 998 1178 1254 1491 1542 
L 5472 1542 
C 5370 525 5267 96 5126 -32 
C 5069 -90 5005 -96 4890 -96 
C 4768 -102 4461 -96 4134 -64 
C 4211 -192 4269 -378 4275 -506 
C 4608 -525 4922 -525 5088 -512 
C 5280 -499 5402 -461 5523 -333 
C 5728 -128 5843 410 5965 1760 
C 5971 1824 5984 1965 5984 1965 
L 5286 1965 
C 5370 2298 5459 2746 5530 3123 
L 4800 3123 
C 4883 3456 4979 3898 5050 4282 
L 3373 4282 
C 3507 4602 3629 4928 3738 5261 
L 3251 5382 
z
M 1914 1965 
C 2125 2195 2323 2445 2502 2701 
L 5005 2701 
C 4960 2445 4896 2182 4838 1965 
L 1914 1965 
z
M 3168 3840 
L 4518 3840 
C 4467 3584 4410 3328 4352 3123 
L 2778 3123 
C 2918 3354 3046 3597 3168 3840 
z
" transform="scale(0.015625)"/>
      <path id="NotoSansCJKjp-Regular-a9ba" d="M 1235 3718 
L 1235 3418 
L 2624 3418 
L 2624 3718 
L 1235 3718 
z
M 1094 3078 
L 1094 2765 
L 2630 2765 
L 2630 3078 
L 1094 3078 
z
M 3738 3078 
L 3738 2765 
L 5318 2765 
L 5318 3078 
L 3738 3078 
z
M 3738 3718 
L 3738 3418 
L 5158 3418 
L 5158 3718 
L 3738 3718 
z
M 486 4390 
L 486 3270 
L 922 3270 
L 922 4058 
L 2944 4058 
L 2944 3066 
L 3418 3066 
L 3418 4058 
L 5472 4058 
L 5472 3270 
L 5920 3270 
L 5920 4390 
L 3418 4390 
L 3418 4755 
L 5536 4755 
L 5536 5120 
L 858 5120 
L 858 4755 
L 2944 4755 
L 2944 4390 
L 486 4390 
z
M 2035 1843 
L 2035 1568 
L 4378 1568 
L 4378 1843 
C 4890 1600 5453 1402 5946 1286 
C 6003 1395 6099 1568 6195 1677 
C 5203 1875 4096 2323 3366 2950 
L 2931 2950 
C 2381 2400 1325 1882 237 1600 
C 314 1510 410 1344 454 1229 
C 998 1389 1549 1600 2035 1843 
z
M 3174 2592 
C 3456 2349 3834 2112 4250 1907 
L 2157 1907 
C 2566 2125 2918 2355 3174 2592 
z
M 966 1165 
L 966 819 
L 2515 819 
L 2515 -512 
L 2976 -512 
L 2976 819 
L 4749 819 
L 4749 288 
C 4749 211 4723 192 4634 186 
C 4544 186 4256 179 3891 192 
C 3955 77 4032 -70 4058 -192 
C 4506 -192 4794 -192 4979 -128 
C 5171 -64 5216 51 5216 282 
L 5216 1165 
L 966 1165 
z
" transform="scale(0.015625)"/>
      <path id="NotoSansCJKjp-Regular-e6af" d="M 1952 2432 
C 1952 3680 1446 4698 678 5478 
L 294 5280 
C 1030 4518 1485 3571 1485 2432 
C 1485 1293 1030 346 294 -416 
L 678 -614 
C 1446 166 1952 1184 1952 2432 
z
" transform="scale(0.015625)"/>
     </defs>
     <use xlink:href="#NotoSansCJKjp-Regular-e6ae"/>
     <use xlink:href="#NotoSansCJKjp-Regular-2a90" transform="translate(100 0)"/>
     <use xlink:href="#NotoSansCJKjp-Regular-7289" transform="translate(200 0)"/>
     <use xlink:href="#NotoSansCJKjp-Regular-61a1" transform="translate(300 0)"/>
     <use xlink:href="#NotoSansCJKjp-Regular-a9ba" transform="translate(400 0)"/>
     <use xlink:href="#NotoSansCJKjp-Regular-e6af" transform="translate(500 0)"/>
    </g>
   </g>
   <g id="text_16">
    <!-- 垂直判定：用內積 -->
    <g style="fill: #222831" transform="translate(120.079333 18.64) scale(0.13 -0.13)">
     <defs>
      <path id="NotoSansCJKjp-Regular-2bad" d="M 5363 5254 
L 5363 128 
C 5363 6 5318 -32 5197 -38 
C 5069 -45 4672 -45 4218 -32 
C 4288 -166 4365 -390 4397 -518 
C 4986 -518 5344 -506 5555 -429 
C 5754 -346 5843 -205 5843 128 
L 5843 5254 
L 5363 5254 
z
M 435 4896 
C 634 4486 838 3936 909 3584 
L 1325 3725 
C 1248 4070 1043 4608 832 5011 
L 435 4896 
z
M 3795 4608 
L 3795 1056 
L 4262 1056 
L 4262 4608 
L 3795 4608 
z
M 3008 5056 
C 2886 4646 2650 4051 2458 3693 
L 2835 3565 
C 3040 3923 3283 4467 3475 4934 
L 3008 5056 
z
M 1677 5370 
L 1677 3309 
L 435 3309 
L 435 2867 
L 1677 2867 
L 1677 1946 
L 250 1946 
L 250 1491 
L 1677 1491 
L 1677 -512 
L 2144 -512 
L 2144 1491 
L 3552 1491 
L 3552 1946 
L 2144 1946 
L 2144 2867 
L 3392 2867 
L 3392 3309 
L 2144 3309 
L 2144 5370 
L 1677 5370 
z
" transform="scale(0.015625)"/>
      <path id="NotoSansCJKjp-Regular-3c8a" d="M 1421 2413 
C 1286 1248 934 333 224 -218 
C 339 -294 538 -461 621 -544 
C 1037 -179 1350 307 1574 896 
C 2163 -198 3117 -422 4454 -422 
L 5952 -422 
C 5971 -282 6061 -51 6131 64 
C 5818 58 4717 58 4480 58 
C 4109 58 3757 77 3443 134 
L 3443 1440 
L 5350 1440 
L 5350 1888 
L 3443 1888 
L 3443 2957 
L 5088 2957 
L 5088 3418 
L 1350 3418 
L 1350 2957 
L 2944 2957 
L 2944 269 
C 2419 461 2016 832 1760 1504 
C 1824 1766 1882 2054 1920 2355 
L 1421 2413 
z
M 525 4640 
L 525 3245 
L 998 3245 
L 998 4186 
L 5382 4186 
L 5382 3245 
L 5875 3245 
L 5875 4640 
L 3443 4640 
L 3443 5376 
L 2938 5376 
L 2938 4640 
L 525 4640 
z
" transform="scale(0.015625)"/>
      <path id="NotoSansCJKjp-Regular-e6c0" d="M 3200 3482 
C 3456 3482 3686 3667 3686 3962 
C 3686 4256 3456 4442 3200 4442 
C 2944 4442 2714 4256 2714 3962 
C 2714 3667 2944 3482 3200 3482 
z
M 3200 346 
C 3456 346 3686 538 3686 826 
C 3686 1120 3456 1312 3200 1312 
C 2944 1312 2714 1120 2714 826 
C 2714 538 2944 346 3200 346 
z
" transform="scale(0.015625)"/>
      <path id="NotoSansCJKjp-Regular-69ab" d="M 979 4928 
L 979 2605 
C 979 1702 915 570 205 -230 
C 314 -288 506 -448 576 -544 
C 1069 0 1286 736 1382 1453 
L 2989 1453 
L 2989 -454 
L 3475 -454 
L 3475 1453 
L 5203 1453 
L 5203 141 
C 5203 26 5158 -13 5030 -19 
C 4909 -26 4474 -32 4026 -13 
C 4090 -141 4166 -352 4192 -474 
C 4794 -480 5165 -474 5382 -397 
C 5600 -320 5677 -173 5677 141 
L 5677 4928 
L 979 4928 
z
M 1453 4467 
L 2989 4467 
L 2989 3437 
L 1453 3437 
L 1453 4467 
z
M 5203 4467 
L 5203 3437 
L 3475 3437 
L 3475 4467 
L 5203 4467 
z
M 1453 2982 
L 2989 2982 
L 2989 1907 
L 1427 1907 
C 1446 2150 1453 2387 1453 2605 
L 1453 2982 
z
M 5203 2982 
L 5203 1907 
L 3475 1907 
L 3475 2982 
L 5203 2982 
z
" transform="scale(0.015625)"/>
     </defs>
     <use xlink:href="#NotoSansCJKjp-Regular-3448"/>
     <use xlink:href="#NotoSansCJKjp-Regular-6ce1" transform="translate(100 0)"/>
     <use xlink:href="#NotoSansCJKjp-Regular-2bad" transform="translate(200 0)"/>
     <use xlink:href="#NotoSansCJKjp-Regular-3c8a" transform="translate(300 0)"/>
     <use xlink:href="#NotoSansCJKjp-Regular-e6c0" transform="translate(400 0)"/>
     <use xlink:href="#NotoSansCJKjp-Regular-69ab" transform="translate(500 0)"/>
     <use xlink:href="#NotoSansCJKjp-Regular-2a90" transform="translate(600 0)"/>
     <use xlink:href="#NotoSansCJKjp-Regular-7289" transform="translate(700 0)"/>
    </g>
   </g>
   <g id="patch_6">
    <path d="M 96.469667 251.469 
Q 188.281405 235.266929 277.010283 219.608891 
" clip-path="url(#p5f85db1636)" style="fill: none; stroke: #1f6feb; stroke-width: 2.8; stroke-linecap: round"/>
    <path d="M 269.294214 217.314925 
L 277.010283 219.608891 
L 270.545468 224.405367 
z
" clip-path="url(#p5f85db1636)" style="fill: #1f6feb; stroke: #1f6feb; stroke-width: 2.8; stroke-linecap: round"/>
   </g>
   <g id="patch_7">
    <path d="M 96.469667 251.469 
Q 80.267595 159.657262 64.609558 70.928384 
" clip-path="url(#p5f85db1636)" style="fill: none; stroke: #1a7f37; stroke-width: 2.8; stroke-linecap: round"/>
    <path d="M 62.315592 78.644453 
L 64.609558 70.928384 
L 69.406033 77.393198 
z
" clip-path="url(#p5f85db1636)" style="fill: #1a7f37; stroke: #1a7f37; stroke-width: 2.8; stroke-linecap: round"/>
   </g>
  </g>
  <g id="axes_2">
   <g id="patch_8">
    <path d="M 402.796003 283.873143 
L 724.602663 283.873143 
L 724.602663 24.64 
L 402.796003 24.64 
z
" style="fill: #ffffff"/>
   </g>
   <g id="matplotlib.axis_3">
    <g id="xtick_7">
     <g id="line2d_23">
      <path d="M 402.796003 283.873143 
L 402.796003 24.64 
" clip-path="url(#p547c28515f)" style="fill: none; stroke: #d8dde3; stroke-width: 0.9; stroke-linecap: square"/>
     </g>
     <g id="line2d_24">
      <g>
       <use xlink:href="#m0666ea66c6" x="402.796003" y="283.873143" style="fill: #222831; stroke: #222831; stroke-width: 0.8"/>
      </g>
     </g>
     <g id="text_17">
      <!-- -3 -->
      <g style="fill: #222831" transform="translate(397.383816 301.433143) scale(0.12 -0.12)">
       <use xlink:href="#NotoSansCJKjp-Regular-e"/>
       <use xlink:href="#NotoSansCJKjp-Regular-14" transform="translate(34.703125 0)"/>
      </g>
     </g>
    </g>
    <g id="xtick_8">
     <g id="line2d_25">
      <path d="M 447.491373 283.873143 
L 447.491373 24.64 
" clip-path="url(#p547c28515f)" style="fill: none; stroke: #d8dde3; stroke-width: 0.9; stroke-linecap: square"/>
     </g>
     <g id="line2d_26">
      <g>
       <use xlink:href="#m0666ea66c6" x="447.491373" y="283.873143" style="fill: #222831; stroke: #222831; stroke-width: 0.8"/>
      </g>
     </g>
     <g id="text_18">
      <!-- -2 -->
      <g style="fill: #222831" transform="translate(442.079185 301.433143) scale(0.12 -0.12)">
       <use xlink:href="#NotoSansCJKjp-Regular-e"/>
       <use xlink:href="#NotoSansCJKjp-Regular-13" transform="translate(34.703125 0)"/>
      </g>
     </g>
    </g>
    <g id="xtick_9">
     <g id="line2d_27">
      <path d="M 492.186742 283.873143 
L 492.186742 24.64 
" clip-path="url(#p547c28515f)" style="fill: none; stroke: #d8dde3; stroke-width: 0.9; stroke-linecap: square"/>
     </g>
     <g id="line2d_28">
      <g>
       <use xlink:href="#m0666ea66c6" x="492.186742" y="283.873143" style="fill: #222831; stroke: #222831; stroke-width: 0.8"/>
      </g>
     </g>
     <g id="text_19">
      <!-- -1 -->
      <g style="fill: #222831" transform="translate(486.774555 301.433143) scale(0.12 -0.12)">
       <use xlink:href="#NotoSansCJKjp-Regular-e"/>
       <use xlink:href="#NotoSansCJKjp-Regular-12" transform="translate(34.703125 0)"/>
      </g>
     </g>
    </g>
    <g id="xtick_10">
     <g id="line2d_29">
      <path d="M 536.882112 283.873143 
L 536.882112 24.64 
" clip-path="url(#p547c28515f)" style="fill: none; stroke: #d8dde3; stroke-width: 0.9; stroke-linecap: square"/>
     </g>
     <g id="line2d_30">
      <g>
       <use xlink:href="#m0666ea66c6" x="536.882112" y="283.873143" style="fill: #222831; stroke: #222831; stroke-width: 0.8"/>
      </g>
     </g>
     <g id="text_20">
      <!-- 0 -->
      <g style="fill: #222831" transform="translate(533.552112 301.433143) scale(0.12 -0.12)">
       <use xlink:href="#NotoSansCJKjp-Regular-11"/>
      </g>
     </g>
    </g>
    <g id="xtick_11">
     <g id="line2d_31">
      <path d="M 581.577481 283.873143 
L 581.577481 24.64 
" clip-path="url(#p547c28515f)" style="fill: none; stroke: #d8dde3; stroke-width: 0.9; stroke-linecap: square"/>
     </g>
     <g id="line2d_32">
      <g>
       <use xlink:href="#m0666ea66c6" x="581.577481" y="283.873143" style="fill: #222831; stroke: #222831; stroke-width: 0.8"/>
      </g>
     </g>
     <g id="text_21">
      <!-- 1 -->
      <g style="fill: #222831" transform="translate(578.247481 301.433143) scale(0.12 -0.12)">
       <use xlink:href="#NotoSansCJKjp-Regular-12"/>
      </g>
     </g>
    </g>
    <g id="xtick_12">
     <g id="line2d_33">
      <path d="M 626.272851 283.873143 
L 626.272851 24.64 
" clip-path="url(#p547c28515f)" style="fill: none; stroke: #d8dde3; stroke-width: 0.9; stroke-linecap: square"/>
     </g>
     <g id="line2d_34">
      <g>
       <use xlink:href="#m0666ea66c6" x="626.272851" y="283.873143" style="fill: #222831; stroke: #222831; stroke-width: 0.8"/>
      </g>
     </g>
     <g id="text_22">
      <!-- 2 -->
      <g style="fill: #222831" transform="translate(622.942851 301.433143) scale(0.12 -0.12)">
       <use xlink:href="#NotoSansCJKjp-Regular-13"/>
      </g>
     </g>
    </g>
    <g id="xtick_13">
     <g id="line2d_35">
      <path d="M 670.96822 283.873143 
L 670.96822 24.64 
" clip-path="url(#p547c28515f)" style="fill: none; stroke: #d8dde3; stroke-width: 0.9; stroke-linecap: square"/>
     </g>
     <g id="line2d_36">
      <g>
       <use xlink:href="#m0666ea66c6" x="670.96822" y="283.873143" style="fill: #222831; stroke: #222831; stroke-width: 0.8"/>
      </g>
     </g>
     <g id="text_23">
      <!-- 3 -->
      <g style="fill: #222831" transform="translate(667.63822 301.433143) scale(0.12 -0.12)">
       <use xlink:href="#NotoSansCJKjp-Regular-14"/>
      </g>
     </g>
    </g>
    <g id="xtick_14">
     <g id="line2d_37">
      <path d="M 715.663589 283.873143 
L 715.663589 24.64 
" clip-path="url(#p547c28515f)" style="fill: none; stroke: #d8dde3; stroke-width: 0.9; stroke-linecap: square"/>
     </g>
     <g id="line2d_38">
      <g>
       <use xlink:href="#m0666ea66c6" x="715.663589" y="283.873143" style="fill: #222831; stroke: #222831; stroke-width: 0.8"/>
      </g>
     </g>
     <g id="text_24">
      <!-- 4 -->
      <g style="fill: #222831" transform="translate(712.333589 301.433143) scale(0.12 -0.12)">
       <use xlink:href="#NotoSansCJKjp-Regular-15"/>
      </g>
     </g>
    </g>
   </g>
   <g id="matplotlib.axis_4">
    <g id="ytick_6">
     <g id="line2d_39">
      <path d="M 402.796003 283.873143 
L 724.602663 283.873143 
" clip-path="url(#p547c28515f)" style="fill: none; stroke: #d8dde3; stroke-width: 0.9; stroke-linecap: square"/>
     </g>
     <g id="line2d_40">
      <g>
       <use xlink:href="#m1b7dc13ee7" x="402.796003" y="283.873143" style="fill: #222831; stroke: #222831; stroke-width: 0.8"/>
      </g>
     </g>
     <g id="text_25">
      <!-- -2 -->
      <g style="fill: #222831" transform="translate(384.971628 289.153143) scale(0.12 -0.12)">
       <use xlink:href="#NotoSansCJKjp-Regular-e"/>
       <use xlink:href="#NotoSansCJKjp-Regular-13" transform="translate(34.703125 0)"/>
      </g>
     </g>
    </g>
    <g id="ytick_7">
     <g id="line2d_41">
      <path d="M 402.796003 239.177773 
L 724.602663 239.177773 
" clip-path="url(#p547c28515f)" style="fill: none; stroke: #d8dde3; stroke-width: 0.9; stroke-linecap: square"/>
     </g>
     <g id="line2d_42">
      <g>
       <use xlink:href="#m1b7dc13ee7" x="402.796003" y="239.177773" style="fill: #222831; stroke: #222831; stroke-width: 0.8"/>
      </g>
     </g>
     <g id="text_26">
      <!-- -1 -->
      <g style="fill: #222831" transform="translate(384.971628 244.457773) scale(0.12 -0.12)">
       <use xlink:href="#NotoSansCJKjp-Regular-e"/>
       <use xlink:href="#NotoSansCJKjp-Regular-12" transform="translate(34.703125 0)"/>
      </g>
     </g>
    </g>
    <g id="ytick_8">
     <g id="line2d_43">
      <path d="M 402.796003 194.482404 
L 724.602663 194.482404 
" clip-path="url(#p547c28515f)" style="fill: none; stroke: #d8dde3; stroke-width: 0.9; stroke-linecap: square"/>
     </g>
     <g id="line2d_44">
      <g>
       <use xlink:href="#m1b7dc13ee7" x="402.796003" y="194.482404" style="fill: #222831; stroke: #222831; stroke-width: 0.8"/>
      </g>
     </g>
     <g id="text_27">
      <!-- 0 -->
      <g style="fill: #222831" transform="translate(389.136003 199.762404) scale(0.12 -0.12)">
       <use xlink:href="#NotoSansCJKjp-Regular-11"/>
      </g>
     </g>
    </g>
    <g id="ytick_9">
     <g id="line2d_45">
      <path d="M 402.796003 149.787034 
L 724.602663 149.787034 
" clip-path="url(#p547c28515f)" style="fill: none; stroke: #d8dde3; stroke-width: 0.9; stroke-linecap: square"/>
     </g>
     <g id="line2d_46">
      <g>
       <use xlink:href="#m1b7dc13ee7" x="402.796003" y="149.787034" style="fill: #222831; stroke: #222831; stroke-width: 0.8"/>
      </g>
     </g>
     <g id="text_28">
      <!-- 1 -->
      <g style="fill: #222831" transform="translate(389.136003 155.067034) scale(0.12 -0.12)">
       <use xlink:href="#NotoSansCJKjp-Regular-12"/>
      </g>
     </g>
    </g>
    <g id="ytick_10">
     <g id="line2d_47">
      <path d="M 402.796003 105.091665 
L 724.602663 105.091665 
" clip-path="url(#p547c28515f)" style="fill: none; stroke: #d8dde3; stroke-width: 0.9; stroke-linecap: square"/>
     </g>
     <g id="line2d_48">
      <g>
       <use xlink:href="#m1b7dc13ee7" x="402.796003" y="105.091665" style="fill: #222831; stroke: #222831; stroke-width: 0.8"/>
      </g>
     </g>
     <g id="text_29">
      <!-- 2 -->
      <g style="fill: #222831" transform="translate(389.136003 110.371665) scale(0.12 -0.12)">
       <use xlink:href="#NotoSansCJKjp-Regular-13"/>
      </g>
     </g>
    </g>
    <g id="ytick_11">
     <g id="line2d_49">
      <path d="M 402.796003 60.396296 
L 724.602663 60.396296 
" clip-path="url(#p547c28515f)" style="fill: none; stroke: #d8dde3; stroke-width: 0.9; stroke-linecap: square"/>
     </g>
     <g id="line2d_50">
      <g>
       <use xlink:href="#m1b7dc13ee7" x="402.796003" y="60.396296" style="fill: #222831; stroke: #222831; stroke-width: 0.8"/>
      </g>
     </g>
     <g id="text_30">
      <!-- 3 -->
      <g style="fill: #222831" transform="translate(389.136003 65.676296) scale(0.12 -0.12)">
       <use xlink:href="#NotoSansCJKjp-Regular-14"/>
      </g>
     </g>
    </g>
   </g>
   <g id="line2d_51">
    <path d="M 361.113882 260.39549 
L 732.802663 121.012197 
" clip-path="url(#p547c28515f)" style="fill: none; stroke-dasharray: 3.7,1.6; stroke-dashoffset: 0; stroke: #222831; stroke-opacity: 0.6"/>
   </g>
   <g id="patch_9">
    <path d="M 402.796003 283.873143 
L 402.796003 24.64 
" style="fill: none; stroke: #222831; stroke-width: 1.1; stroke-linejoin: miter; stroke-linecap: square"/>
   </g>
   <g id="patch_10">
    <path d="M 402.796003 283.873143 
L 724.602663 283.873143 
" style="fill: none; stroke: #222831; stroke-width: 1.1; stroke-linejoin: miter; stroke-linecap: square"/>
   </g>
   <g id="text_31">
    <!-- a -->
    <g style="fill: #1f6feb" transform="translate(627.166758 151.127896) scale(0.15 -0.15)">
     <use xlink:href="#NotoSansCJKjp-Regular-42"/>
    </g>
   </g>
   <g id="text_32">
    <!-- b -->
    <g style="fill: #1a7f37" transform="translate(478.778131 234.708236) scale(0.15 -0.15)">
     <use xlink:href="#NotoSansCJKjp-Regular-43"/>
    </g>
   </g>
   <g id="text_33">
    <!-- 平行 ⇔ $a_1 b_2 - a_2 b_1 = 0$ -->
    <g style="fill: #d1242f" transform="translate(481.796186 46.987685) scale(0.13 -0.13)">
     <defs>
      <path id="NotoSansCJKjp-Regular-41d6" d="M 1114 4032 
C 1363 3558 1613 2938 1702 2554 
L 2157 2714 
C 2067 3085 1805 3699 1549 4160 
L 1114 4032 
z
M 4832 4192 
C 4672 3725 4378 3072 4134 2669 
L 4550 2534 
C 4800 2918 5101 3533 5338 4051 
L 4832 4192 
z
M 333 2227 
L 333 1747 
L 2938 1747 
L 2938 -506 
L 3437 -506 
L 3437 1747 
L 6074 1747 
L 6074 2227 
L 3437 2227 
L 3437 4467 
L 5715 4467 
L 5715 4947 
L 672 4947 
L 672 4467 
L 2938 4467 
L 2938 2227 
L 333 2227 
z
" transform="scale(0.015625)"/>
      <path id="NotoSansCJKjp-Regular-8f66" d="M 2784 4992 
L 2784 4531 
L 5933 4531 
L 5933 4992 
L 2784 4992 
z
M 1709 5382 
C 1382 4915 762 4346 224 3981 
C 307 3891 442 3706 506 3597 
C 1082 4006 1741 4634 2170 5190 
L 1709 5382 
z
M 2502 3226 
L 2502 2765 
L 4659 2765 
L 4659 109 
C 4659 6 4614 -26 4493 -32 
C 4378 -38 3942 -38 3488 -19 
C 3558 -160 3629 -358 3648 -493 
C 4275 -493 4640 -493 4858 -422 
C 5069 -339 5146 -192 5146 102 
L 5146 2765 
L 6112 2765 
L 6112 3226 
L 2502 3226 
z
M 1965 4006 
C 1523 3277 819 2534 160 2061 
C 256 1965 429 1754 499 1658 
C 736 1850 986 2080 1229 2330 
L 1229 -531 
L 1702 -531 
L 1702 2854 
C 1971 3174 2214 3507 2419 3840 
L 1965 4006 
z
" transform="scale(0.015625)"/>
      <path id="Cmmi10-79" d="M 1113 -72 
Q 709 -72 476 233 
Q 244 538 244 953 
Q 244 1363 456 1803 
Q 669 2244 1030 2536 
Q 1391 2828 1806 2828 
Q 1997 2828 2147 2725 
Q 2297 2622 2381 2444 
Q 2453 2700 2663 2700 
Q 2744 2700 2798 2651 
Q 2853 2603 2853 2522 
Q 2853 2503 2851 2493 
Q 2850 2484 2847 2472 
L 2400 684 
Q 2356 494 2356 372 
Q 2356 97 2541 97 
Q 2741 97 2845 351 
Q 2950 606 3022 941 
Q 3034 978 3072 978 
L 3150 978 
Q 3175 978 3190 956 
Q 3206 934 3206 916 
Q 3094 469 2961 198 
Q 2828 -72 2528 -72 
Q 2313 -72 2147 54 
Q 1981 181 1941 391 
Q 1528 -72 1113 -72 
z
M 1119 97 
Q 1350 97 1567 270 
Q 1784 444 1941 678 
Q 1947 684 1947 697 
L 2291 2088 
L 2297 2106 
Q 2259 2334 2132 2498 
Q 2006 2663 1791 2663 
Q 1575 2663 1389 2486 
Q 1203 2309 1075 2069 
Q 950 1813 836 1366 
Q 722 919 722 672 
Q 722 450 817 273 
Q 913 97 1119 97 
z
" transform="scale(0.015625)"/>
      <path id="Cmr10-64" d="M 594 0 
L 594 225 
Q 1394 225 1394 428 
L 1394 3788 
Q 1063 3628 556 3628 
L 556 3853 
Q 1341 3853 1741 4263 
L 1831 4263 
Q 1853 4263 1873 4245 
Q 1894 4228 1894 4206 
L 1894 428 
Q 1894 225 2694 225 
L 2694 0 
L 594 0 
z
" transform="scale(0.015625)"/>
      <path id="Cmmi10-4b" d="M 1106 -72 
Q 719 -72 503 231 
Q 288 534 288 941 
Q 288 1000 317 1173 
Q 347 1347 347 1388 
L 966 3872 
Q 991 3981 997 4044 
Q 997 4147 581 4147 
Q 519 4147 519 4231 
Q 522 4247 533 4287 
Q 544 4328 561 4350 
Q 578 4372 609 4372 
L 1472 4441 
Q 1550 4441 1550 4359 
L 1075 2472 
Q 1438 2828 1806 2828 
Q 2078 2828 2273 2684 
Q 2469 2541 2566 2306 
Q 2663 2072 2663 1806 
Q 2663 1497 2542 1167 
Q 2422 838 2209 555 
Q 1997 272 1712 100 
Q 1428 -72 1106 -72 
z
M 1119 97 
Q 1338 97 1528 280 
Q 1719 463 1838 691 
Q 1966 947 2077 1386 
Q 2188 1825 2188 2088 
Q 2188 2316 2092 2489 
Q 1997 2663 1791 2663 
Q 1559 2663 1348 2492 
Q 1138 2322 978 2088 
L 800 1363 
Q 697 959 691 716 
Q 691 475 795 286 
Q 900 97 1119 97 
z
" transform="scale(0.015625)"/>
      <path id="Cmr10-31" d="M 319 0 
L 319 172 
Q 319 188 331 206 
L 1325 1306 
Q 1550 1550 1690 1715 
Q 1831 1881 1968 2097 
Q 2106 2313 2186 2536 
Q 2266 2759 2266 3009 
Q 2266 3272 2169 3511 
Q 2072 3750 1880 3894 
Q 1688 4038 1416 4038 
Q 1138 4038 916 3870 
Q 694 3703 603 3438 
Q 628 3444 672 3444 
Q 816 3444 917 3347 
Q 1019 3250 1019 3097 
Q 1019 2950 917 2848 
Q 816 2747 672 2747 
Q 522 2747 420 2851 
Q 319 2956 319 3097 
Q 319 3338 409 3548 
Q 500 3759 670 3923 
Q 841 4088 1055 4175 
Q 1269 4263 1509 4263 
Q 1875 4263 2190 4108 
Q 2506 3953 2690 3670 
Q 2875 3388 2875 3009 
Q 2875 2731 2753 2481 
Q 2631 2231 2440 2026 
Q 2250 1822 1953 1562 
Q 1656 1303 1563 1216 
L 838 519 
L 1453 519 
Q 1906 519 2211 526 
Q 2516 534 2534 550 
Q 2609 631 2688 1141 
L 2875 1141 
L 2694 0 
L 319 0 
z
" transform="scale(0.015625)"/>
      <path id="Cmsy10-11" d="M 653 1472 
Q 600 1472 565 1512 
Q 531 1553 531 1600 
Q 531 1647 565 1687 
Q 600 1728 653 1728 
L 4325 1728 
Q 4375 1728 4408 1687 
Q 4441 1647 4441 1600 
Q 4441 1553 4408 1512 
Q 4375 1472 4325 1472 
L 653 1472 
z
" transform="scale(0.015625)"/>
      <path id="Cmr10-29" d="M 481 850 
Q 428 850 393 890 
Q 359 931 359 978 
Q 359 1031 393 1068 
Q 428 1106 481 1106 
L 4500 1106 
Q 4547 1106 4581 1068 
Q 4616 1031 4616 978 
Q 4616 931 4581 890 
Q 4547 850 4500 850 
L 481 850 
z
M 481 2094 
Q 428 2094 393 2131 
Q 359 2169 359 2222 
Q 359 2269 393 2309 
Q 428 2350 481 2350 
L 4500 2350 
Q 4547 2350 4581 2309 
Q 4616 2269 4616 2222 
Q 4616 2169 4581 2131 
Q 4547 2094 4500 2094 
L 481 2094 
z
" transform="scale(0.015625)"/>
      <path id="Cmr10-28" d="M 1600 -141 
Q 816 -141 533 504 
Q 250 1150 250 2041 
Q 250 2597 351 3087 
Q 453 3578 754 3920 
Q 1056 4263 1600 4263 
Q 2022 4263 2290 4056 
Q 2559 3850 2700 3523 
Q 2841 3197 2892 2823 
Q 2944 2450 2944 2041 
Q 2944 1491 2842 1011 
Q 2741 531 2444 195 
Q 2147 -141 1600 -141 
z
M 1600 25 
Q 1956 25 2131 390 
Q 2306 756 2347 1200 
Q 2388 1644 2388 2144 
Q 2388 2625 2347 3031 
Q 2306 3438 2132 3767 
Q 1959 4097 1600 4097 
Q 1238 4097 1063 3765 
Q 888 3434 847 3029 
Q 806 2625 806 2144 
Q 806 1788 823 1472 
Q 841 1156 916 820 
Q 991 484 1158 254 
Q 1325 25 1600 25 
z
" transform="scale(0.015625)"/>
     </defs>
     <use xlink:href="#NotoSansCJKjp-Regular-41d6" transform="translate(0 0.90625)"/>
     <use xlink:href="#NotoSansCJKjp-Regular-8f66" transform="translate(99.999908 0.90625)"/>
     <use xlink:href="#NotoSansCJKjp-Regular-1" transform="translate(199.999817 0.90625)"/>
     <use xlink:href="#NotoSansCJKjp-Regular-32d" transform="translate(222.399796 0.90625)"/>
     <use xlink:href="#NotoSansCJKjp-Regular-1" transform="translate(322.399704 0.90625)"/>
     <use xlink:href="#Cmmi10-79" transform="translate(344.799683 0.90625)"/>
     <use xlink:href="#Cmr10-64" transform="translate(397.582886 -14.093712) scale(0.7)"/>
     <use xlink:href="#Cmmi10-4b" transform="translate(438.303301 0.90625)"/>
     <use xlink:href="#Cmr10-31" transform="translate(481.223223 -14.093712) scale(0.7)"/>
     <use xlink:href="#Cmsy10-11" transform="translate(541.943696 0.90625)"/>
     <use xlink:href="#Cmmi10-79" transform="translate(639.6293 0.90625)"/>
     <use xlink:href="#Cmr10-31" transform="translate(692.412503 -14.093712) scale(0.7)"/>
     <use xlink:href="#Cmmi10-4b" transform="translate(733.132918 0.90625)"/>
     <use xlink:href="#Cmr10-64" transform="translate(776.05284 -14.093712) scale(0.7)"/>
     <use xlink:href="#Cmr10-29" transform="translate(836.773313 0.90625)"/>
     <use xlink:href="#Cmr10-28" transform="translate(934.458917 0.90625)"/>
    </g>
   </g>
   <g id="text_34">
    <!-- （行列式為零） -->
    <g style="fill: #222831" transform="translate(507.321186 69.335369) scale(0.11 -0.11)">
     <defs>
      <path id="NotoSansCJKjp-Regular-2b9b" d="M 3814 4646 
L 3814 1139 
L 4288 1139 
L 4288 4646 
L 3814 4646 
z
M 5376 5254 
L 5376 115 
C 5376 -6 5331 -45 5210 -45 
C 5088 -51 4698 -58 4256 -45 
C 4333 -179 4403 -384 4429 -518 
C 5011 -518 5357 -506 5568 -429 
C 5766 -352 5850 -205 5850 115 
L 5850 5254 
L 5376 5254 
z
M 2816 3206 
C 2714 2694 2560 2234 2374 1824 
C 2074 2054 1606 2355 1203 2592 
C 1318 2790 1421 2995 1510 3206 
L 2816 3206 
z
M 384 5043 
L 384 4595 
L 1491 4595 
C 1267 3654 826 2598 141 1952 
C 243 1875 397 1728 480 1638 
C 659 1811 826 2010 973 2227 
C 1382 1978 1856 1651 2157 1408 
C 1734 691 1184 166 538 -173 
C 646 -250 826 -422 902 -531 
C 2080 147 3008 1472 3360 3558 
L 3059 3667 
L 2976 3648 
L 1690 3648 
C 1805 3962 1901 4282 1984 4595 
L 3571 4595 
L 3571 5043 
L 384 5043 
z
" transform="scale(0.015625)"/>
      <path id="NotoSansCJKjp-Regular-430b" d="M 4538 5062 
C 4870 4832 5267 4486 5459 4256 
L 5792 4557 
C 5600 4781 5190 5107 4864 5331 
L 4538 5062 
z
M 3616 5350 
C 3616 4954 3629 4563 3648 4179 
L 352 4179 
L 352 3712 
L 3680 3712 
C 3846 1331 4384 -525 5434 -525 
C 5926 -525 6106 -198 6189 922 
C 6054 973 5875 1082 5766 1190 
C 5722 333 5651 -26 5472 -26 
C 4838 -26 4339 1542 4179 3712 
L 6061 3712 
L 6061 4179 
L 4154 4179 
C 4134 4557 4128 4947 4128 5350 
L 3616 5350 
z
M 378 154 
L 531 -320 
C 1350 -141 2528 128 3616 384 
L 3578 819 
L 2208 525 
L 2208 2291 
L 3405 2291 
L 3405 2758 
L 576 2758 
L 576 2291 
L 1728 2291 
L 1728 429 
L 378 154 
z
" transform="scale(0.015625)"/>
     </defs>
     <use xlink:href="#NotoSansCJKjp-Regular-e6ae"/>
     <use xlink:href="#NotoSansCJKjp-Regular-8f66" transform="translate(100 0)"/>
     <use xlink:href="#NotoSansCJKjp-Regular-2b9b" transform="translate(200 0)"/>
     <use xlink:href="#NotoSansCJKjp-Regular-430b" transform="translate(300 0)"/>
     <use xlink:href="#NotoSansCJKjp-Regular-61a1" transform="translate(400 0)"/>
     <use xlink:href="#NotoSansCJKjp-Regular-a9ba" transform="translate(500 0)"/>
     <use xlink:href="#NotoSansCJKjp-Regular-e6af" transform="translate(600 0)"/>
    </g>
   </g>
   <g id="text_35">
    <!-- 平行判定：用行列式 -->
    <g style="fill: #222831" transform="translate(505.199333 18.64) scale(0.13 -0.13)">
     <use xlink:href="#NotoSansCJKjp-Regular-41d6"/>
     <use xlink:href="#NotoSansCJKjp-Regular-8f66" transform="translate(100 0)"/>
     <use xlink:href="#NotoSansCJKjp-Regular-2bad" transform="translate(200 0)"/>
     <use xlink:href="#NotoSansCJKjp-Regular-3c8a" transform="translate(300 0)"/>
     <use xlink:href="#NotoSansCJKjp-Regular-e6c0" transform="translate(400 0)"/>
     <use xlink:href="#NotoSansCJKjp-Regular-69ab" transform="translate(500 0)"/>
     <use xlink:href="#NotoSansCJKjp-Regular-8f66" transform="translate(600 0)"/>
     <use xlink:href="#NotoSansCJKjp-Regular-2b9b" transform="translate(700 0)"/>
     <use xlink:href="#NotoSansCJKjp-Regular-430b" transform="translate(800 0)"/>
    </g>
   </g>
   <g id="patch_11">
    <path d="M 536.882112 194.482404 
Q 608.394703 167.665182 676.97612 141.947151 
" clip-path="url(#p547c28515f)" style="fill: none; stroke: #1f6feb; stroke-width: 2.8; stroke-linecap: round"/>
    <path d="M 668.970505 141.104455 
L 676.97612 141.947151 
L 671.498594 147.846025 
z
" clip-path="url(#p547c28515f)" style="fill: #1f6feb; stroke: #1f6feb; stroke-width: 2.8; stroke-linecap: round"/>
   </g>
   <g id="patch_12">
    <path d="M 536.882112 194.482404 
Q 492.186742 211.243167 450.422547 226.904741 
" clip-path="url(#p547c28515f)" style="fill: none; stroke: #1a7f37; stroke-width: 2.8; stroke-linecap: round"/>
    <path d="M 458.428161 227.747437 
L 450.422547 226.904741 
L 455.900072 221.005867 
z
" clip-path="url(#p547c28515f)" style="fill: #1a7f37; stroke: #1a7f37; stroke-width: 2.8; stroke-linecap: round"/>
   </g>
  </g>
 </g>
 <defs>
  <clipPath id="p5f85db1636">
   <rect x="20.86" y="24.64" width="302.438667" height="259.233143"/>
  </clipPath>
  <clipPath id="p547c28515f">
   <rect x="402.796003" y="24.64" width="321.80666" height="259.233143"/>
  </clipPath>
 </defs>
</svg>
