<?xml version="1.0" encoding="utf-8" standalone="no"?>
<!DOCTYPE svg PUBLIC "-//W3C//DTD SVG 1.1//EN"
  "http://www.w3.org/Graphics/SVG/1.1/DTD/svg11.dtd">
<svg xmlns:xlink="http://www.w3.org/1999/xlink" width="358.128pt" height="375.568pt" viewBox="0 0 358.128 375.568" xmlns="http://www.w3.org/2000/svg" version="1.1">
 <metadata>
  <rdf:RDF xmlns:dc="http://purl.org/dc/elements/1.1/" xmlns:cc="http://creativecommons.org/ns#" xmlns:rdf="http://www.w3.org/1999/02/22-rdf-syntax-ns#">
   <cc:Work>
    <dc:type rdf:resource="http://purl.org/dc/dcmitype/StillImage"/>
    <dc:date>2026-06-20T18:20:34.691849</dc:date>
    <dc:format>image/svg+xml</dc:format>
    <dc:creator>
     <cc:Agent>
      <dc:title>Matplotlib v3.11.0, https://matplotlib.org/</dc:title>
     </cc:Agent>
    </dc:creator>
   </cc:Work>
  </rdf:RDF>
 </metadata>
 <defs>
  <style type="text/css">*{stroke-linejoin: round; stroke-linecap: butt}</style>
 </defs>
 <g id="figure_1">
  <g id="patch_1">
   <path d="M 0 375.568 
L 358.128 375.568 
L 358.128 0 
L 0 0 
z
" style="fill: #ffffff"/>
  </g>
  <g id="patch_2">
   <path d="M 7.2 368.368 
L 350.928 368.368 
L 350.928 24.64 
L 7.2 24.64 
z
" style="fill: #ffffff"/>
  </g>
  <g id="pane3d_1"/>
  <g id="pane3d_2"/>
  <g id="pane3d_3"/>
  <g id="axis3d_1">
   <g id="line2d_1">
    <path d="M 42.628958 299.253346 
L 218.217114 337.329058 
" style="fill: none; stroke: #222831; stroke-width: 1.1; stroke-linecap: square"/>
   </g>
  </g>
  <g id="axis3d_2">
   <g id="line2d_2">
    <path d="M 320.189303 278.381831 
L 218.217114 337.329058 
" style="fill: none; stroke: #222831; stroke-width: 1.1; stroke-linecap: square"/>
   </g>
  </g>
  <g id="axis3d_3">
   <g id="line2d_3">
    <path d="M 320.189303 278.381831 
L 324.32149 84.820582 
" style="fill: none; stroke: #222831; stroke-width: 1.1; stroke-linecap: square"/>
   </g>
  </g>
  <g id="axes_1">
   <g id="line2d_4">
    <path d="M 215.090304 164.166097 
L 214.476098 291.528518 
" clip-path="url(#p8c227be44f)" style="fill: none; stroke-dasharray: 4.81,2.08; stroke-dashoffset: 0; stroke: #1a7f37; stroke-width: 1.3"/>
   </g>
   <g id="line2d_5">
    <path d="M 214.476098 291.528518 
L 154.821923 323.58202 
" clip-path="url(#p8c227be44f)" style="fill: none; stroke-dasharray: 4.07,1.76; stroke-dashoffset: 0; stroke: #1a7f37; stroke-width: 1.1"/>
   </g>
   <g id="line2d_6">
    <path d="M 214.476098 291.528518 
L 105.423723 269.451355 
" clip-path="url(#p8c227be44f)" style="fill: none; stroke-dasharray: 4.07,1.76; stroke-dashoffset: 0; stroke: #1a7f37; stroke-width: 1.1"/>
   </g>
   <g id="line2d_7">
    <path d="M 42.628958 299.253346 
L 154.821923 323.58202 
" clip-path="url(#p8c227be44f)" style="fill: none; stroke-dasharray: 1,1.65; stroke-dashoffset: 0; stroke: #1f6feb"/>
   </g>
   <g id="line2d_8">
    <path d="M 154.821923 323.58202 
L 214.476098 291.528518 
" clip-path="url(#p8c227be44f)" style="fill: none; stroke-dasharray: 1,1.65; stroke-dashoffset: 0; stroke: #1f6feb"/>
   </g>
   <g id="line2d_9">
    <path d="M 215.090304 164.166097 
L 166.179025 215.749393 
" clip-path="url(#p8c227be44f)" style="fill: none; stroke: #bf8700; stroke-width: 2.2; stroke-linecap: square"/>
   </g>
   <g id="patch_3">
    <path d="M 44.584422 299.677382 
Q 126.390605 317.416782 206.667093 334.824474 
" clip-path="url(#p8c227be44f)" style="fill: none; stroke: #222831; stroke-width: 1.4; stroke-linecap: round"/>
    <path d="M 202.484728 331.461763 
L 206.667093 334.824474 
L 201.467505 336.152739 
z
" clip-path="url(#p8c227be44f)" style="fill: #222831; stroke: #222831; stroke-width: 1.4; stroke-linecap: round"/>
   </g>
   <g id="Path3DCollection_1">
    <defs>
     <path id="m0aa63950e0" d="M 0 3.162278 
C 0.838646 3.162278 1.643056 2.82908 2.236068 2.236068 
C 2.82908 1.643056 3.162278 0.838646 3.162278 0 
C 3.162278 -0.838646 2.82908 -1.643056 2.236068 -2.236068 
C 1.643056 -2.82908 0.838646 -3.162278 0 -3.162278 
C -0.838646 -3.162278 -1.643056 -2.82908 -2.236068 -2.236068 
C -2.82908 -1.643056 -3.162278 -0.838646 -3.162278 0 
C -3.162278 0.838646 -2.82908 1.643056 -2.236068 2.236068 
C -1.643056 2.82908 -0.838646 3.162278 0 3.162278 
z
" style="stroke: #8250df"/>
    </defs>
    <g clip-path="url(#p8c227be44f)">
     <use xlink:href="#m0aa63950e0" x="166.179025" y="215.749393" style="fill: #8250df; stroke: #8250df"/>
    </g>
   </g>
   <g id="text_1">
    <!-- x -->
    <g style="fill: #222831" transform="translate(218.217114 337.329058) scale(0.12 -0.12)">
     <defs>
      <path id="NotoSansCJKjp-Regular-59" d="M 96 0 
L 710 0 
L 1178 813 
C 1299 1024 1408 1235 1530 1434 
L 1562 1434 
C 1696 1235 1824 1024 1939 813 
L 2451 0 
L 3091 0 
L 1946 1754 
L 3002 3475 
L 2394 3475 
L 1965 2714 
C 1856 2515 1760 2330 1658 2131 
L 1626 2131 
C 1510 2330 1389 2515 1286 2714 
L 819 3475 
L 186 3475 
L 1242 1811 
L 96 0 
z
" transform="scale(0.015625)"/>
     </defs>
     <use xlink:href="#NotoSansCJKjp-Regular-59"/>
    </g>
   </g>
   <g id="text_2">
    <!-- y -->
    <g style="fill: #222831" transform="translate(153.82307 246.481337) scale(0.12 -0.12)">
     <defs>
      <path id="NotoSansCJKjp-Regular-5a" d="M 646 -1498 
C 1338 -1498 1702 -973 1946 -294 
L 3251 3475 
L 2682 3475 
L 2054 1549 
C 1965 1235 1862 883 1773 563 
L 1741 563 
C 1619 890 1504 1242 1395 1549 
L 691 3475 
L 83 3475 
L 1478 -6 
L 1402 -269 
C 1254 -698 1011 -1018 621 -1018 
C 525 -1018 422 -986 352 -960 
L 237 -1427 
C 346 -1472 486 -1498 646 -1498 
z
" transform="scale(0.015625)"/>
     </defs>
     <use xlink:href="#NotoSansCJKjp-Regular-5a"/>
    </g>
   </g>
   <g id="text_3">
    <!-- z -->
    <g style="fill: #222831" transform="translate(38.209039 99.618172) scale(0.12 -0.12)">
     <defs>
      <path id="NotoSansCJKjp-Regular-5b" d="M 224 0 
L 2854 0 
L 2854 474 
L 960 474 
L 2797 3162 
L 2797 3475 
L 422 3475 
L 422 3002 
L 2054 3002 
L 224 314 
L 224 0 
z
" transform="scale(0.015625)"/>
     </defs>
     <use xlink:href="#NotoSansCJKjp-Regular-5b"/>
    </g>
   </g>
   <g id="text_4">
    <!-- P(a, b, c) -->
    <g style="fill: #d1242f" transform="translate(223.23401 153.261569) scale(0.12 -0.12)">
     <defs>
      <path id="NotoSansCJKjp-Regular-31" d="M 646 0 
L 1235 0 
L 1235 1869 
L 2010 1869 
C 3040 1869 3738 2323 3738 3315 
C 3738 4339 3034 4691 1984 4691 
L 646 4691 
L 646 0 
z
M 1235 2349 
L 1235 4211 
L 1907 4211 
C 2733 4211 3149 4000 3149 3315 
C 3149 2643 2758 2349 1933 2349 
L 1235 2349 
z
" transform="scale(0.015625)"/>
      <path id="NotoSansCJKjp-Regular-9" d="M 1530 -1254 
L 1888 -1094 
C 1338 -186 1075 902 1075 1990 
C 1075 3072 1338 4154 1888 5069 
L 1530 5235 
C 941 4275 589 3245 589 1990 
C 589 730 941 -301 1530 -1254 
z
" transform="scale(0.015625)"/>
      <path id="NotoSansCJKjp-Regular-42" d="M 1389 -83 
C 1818 -83 2208 141 2541 416 
L 2560 416 
L 2611 0 
L 3091 0 
L 3091 2138 
C 3091 3002 2739 3565 1888 3565 
C 1325 3565 838 3315 525 3110 
L 749 2707 
C 1024 2893 1389 3078 1792 3078 
C 2362 3078 2509 2650 2509 2202 
C 1030 2035 378 1658 378 902 
C 378 275 806 -83 1389 -83 
z
M 1555 390 
C 1210 390 941 544 941 941 
C 941 1389 1338 1677 2509 1811 
L 2509 845 
C 2170 544 1888 390 1555 390 
z
" transform="scale(0.015625)"/>
      <path id="NotoSansCJKjp-Regular-d" d="M 480 -1216 
C 1056 -973 1414 -493 1414 122 
C 1414 550 1229 806 922 806 
C 685 806 480 653 480 397 
C 480 141 678 -13 909 -13 
L 979 -6 
C 973 -390 736 -698 339 -870 
L 480 -1216 
z
" transform="scale(0.015625)"/>
      <path id="NotoSansCJKjp-Regular-1" transform="scale(0.015625)"/>
      <path id="NotoSansCJKjp-Regular-43" d="M 2118 -83 
C 2912 -83 3629 602 3629 1792 
C 3629 2867 3142 3565 2246 3565 
C 1856 3565 1472 3347 1152 3078 
L 1178 3699 
L 1178 5094 
L 589 5094 
L 589 0 
L 1056 0 
L 1107 358 
L 1133 358 
C 1434 83 1798 -83 2118 -83 
z
M 2022 410 
C 1792 410 1478 499 1178 768 
L 1178 2598 
C 1504 2906 1811 3072 2099 3072 
C 2765 3072 3021 2560 3021 1786 
C 3021 928 2598 410 2022 410 
z
" transform="scale(0.015625)"/>
      <path id="NotoSansCJKjp-Regular-44" d="M 1958 -83 
C 2374 -83 2771 83 3085 352 
L 2829 749 
C 2611 557 2330 403 2010 403 
C 1370 403 934 934 934 1734 
C 934 2534 1395 3072 2029 3072 
C 2298 3072 2522 2950 2720 2771 
L 3014 3155 
C 2771 3373 2458 3565 2003 3565 
C 1107 3565 333 2893 333 1734 
C 333 582 1037 -83 1958 -83 
z
" transform="scale(0.015625)"/>
      <path id="NotoSansCJKjp-Regular-a" d="M 634 -1254 
C 1222 -301 1574 730 1574 1990 
C 1574 3245 1222 4275 634 5235 
L 269 5069 
C 819 4154 1094 3072 1094 1990 
C 1094 902 819 -186 269 -1094 
L 634 -1254 
z
" transform="scale(0.015625)"/>
     </defs>
     <use xlink:href="#NotoSansCJKjp-Regular-31"/>
     <use xlink:href="#NotoSansCJKjp-Regular-9" transform="translate(63.296875 0)"/>
     <use xlink:href="#NotoSansCJKjp-Regular-42" transform="translate(97.09375 0)"/>
     <use xlink:href="#NotoSansCJKjp-Regular-d" transform="translate(153.390625 0)"/>
     <use xlink:href="#NotoSansCJKjp-Regular-1" transform="translate(181.1875 0)"/>
     <use xlink:href="#NotoSansCJKjp-Regular-43" transform="translate(203.59375 0)"/>
     <use xlink:href="#NotoSansCJKjp-Regular-d" transform="translate(264.296875 0)"/>
     <use xlink:href="#NotoSansCJKjp-Regular-1" transform="translate(292.09375 0)"/>
     <use xlink:href="#NotoSansCJKjp-Regular-44" transform="translate(314.5 0)"/>
     <use xlink:href="#NotoSansCJKjp-Regular-a" transform="translate(365.5 0)"/>
    </g>
   </g>
   <g id="text_5">
    <!-- P′（xy 平面投影） -->
    <g style="fill: #1a7f37" transform="translate(220.473406 297.304398) scale(0.1 -0.1)">
     <defs>
      <path id="NotoSansCJKjp-Regular-2e1" d="M 589 3226 
L 966 3213 
L 1216 4282 
L 1312 4928 
L 742 4934 
L 589 3226 
z
" transform="scale(0.015625)"/>
      <path id="NotoSansCJKjp-Regular-e6ae" d="M 4448 2432 
C 4448 1184 4954 166 5722 -614 
L 6106 -416 
C 5370 346 4915 1293 4915 2432 
C 4915 3571 5370 4518 6106 5280 
L 5722 5478 
C 4954 4698 4448 3680 4448 2432 
z
" transform="scale(0.015625)"/>
      <path id="NotoSansCJKjp-Regular-41d6" d="M 1114 4032 
C 1363 3558 1613 2938 1702 2554 
L 2157 2714 
C 2067 3085 1805 3699 1549 4160 
L 1114 4032 
z
M 4832 4192 
C 4672 3725 4378 3072 4134 2669 
L 4550 2534 
C 4800 2918 5101 3533 5338 4051 
L 4832 4192 
z
M 333 2227 
L 333 1747 
L 2938 1747 
L 2938 -506 
L 3437 -506 
L 3437 1747 
L 6074 1747 
L 6074 2227 
L 3437 2227 
L 3437 4467 
L 5715 4467 
L 5715 4947 
L 672 4947 
L 672 4467 
L 2938 4467 
L 2938 2227 
L 333 2227 
z
" transform="scale(0.015625)"/>
      <path id="NotoSansCJKjp-Regular-aaab" d="M 2490 2138 
L 3846 2138 
L 3846 1414 
L 2490 1414 
L 2490 2138 
z
M 2490 2528 
L 2490 3238 
L 3846 3238 
L 3846 2528 
L 2490 2528 
z
M 2490 1024 
L 3846 1024 
L 3846 275 
L 2490 275 
L 2490 1024 
z
M 371 4954 
L 371 4493 
L 2842 4493 
C 2797 4230 2726 3930 2662 3686 
L 666 3686 
L 666 -512 
L 1126 -512 
L 1126 -173 
L 5248 -173 
L 5248 -512 
L 5734 -512 
L 5734 3686 
L 3155 3686 
L 3405 4493 
L 6048 4493 
L 6048 4954 
L 371 4954 
z
M 1126 275 
L 1126 3238 
L 2048 3238 
L 2048 275 
L 1126 275 
z
M 5248 275 
L 4288 275 
L 4288 3238 
L 5248 3238 
L 5248 275 
z
" transform="scale(0.015625)"/>
      <path id="NotoSansCJKjp-Regular-4937" d="M 3059 5120 
L 3059 4480 
C 3059 4032 2950 3488 2317 3085 
C 2406 3021 2579 2835 2637 2739 
C 3347 3206 3514 3904 3514 4467 
L 3514 4672 
L 4717 4672 
L 4717 3584 
C 4717 3130 4826 3008 5235 3008 
C 5318 3008 5619 3008 5709 3008 
C 6067 3008 6182 3206 6221 3994 
C 6099 4026 5907 4096 5811 4173 
C 5798 3514 5779 3418 5658 3418 
C 5594 3418 5357 3418 5306 3418 
C 5197 3418 5171 3443 5171 3584 
L 5171 5120 
L 3059 5120 
z
M 5126 2170 
C 4909 1677 4589 1261 4198 922 
C 3821 1267 3526 1690 3334 2170 
L 5126 2170 
z
M 2675 2605 
L 2675 2170 
L 3238 2170 
L 2886 2061 
C 3110 1504 3424 1024 3814 634 
C 3309 288 2714 51 2099 -90 
C 2189 -192 2304 -390 2355 -518 
C 3014 -346 3642 -77 4179 307 
C 4659 -70 5242 -346 5920 -512 
C 5990 -384 6131 -186 6240 -83 
C 5594 58 5037 294 4570 621 
C 5101 1094 5510 1709 5754 2496 
L 5446 2624 
L 5357 2605 
L 2675 2605 
z
M 1222 5376 
L 1222 4109 
L 288 4109 
L 288 3661 
L 1222 3661 
L 1222 2234 
C 838 2118 480 2010 205 1939 
L 365 1446 
L 1222 1741 
L 1222 51 
C 1222 -38 1184 -64 1101 -70 
C 1018 -70 749 -70 461 -64 
C 525 -192 589 -390 608 -506 
C 1037 -512 1299 -493 1466 -422 
C 1632 -346 1696 -218 1696 58 
L 1696 1907 
L 2413 2157 
L 2349 2573 
L 1696 2374 
L 1696 3661 
L 2413 3661 
L 2413 4109 
L 1696 4109 
L 1696 5376 
L 1222 5376 
z
" transform="scale(0.015625)"/>
      <path id="NotoSansCJKjp-Regular-43c5" d="M 1203 1939 
L 3078 1939 
L 3078 1344 
L 1203 1344 
L 1203 1939 
z
M 1165 4141 
L 3117 4141 
L 3117 3738 
L 1165 3738 
L 1165 4141 
z
M 1165 4826 
L 3117 4826 
L 3117 4435 
L 1165 4435 
L 1165 4826 
z
M 979 838 
C 819 499 557 154 262 -83 
C 365 -141 544 -262 621 -326 
C 909 -64 1210 339 1389 736 
L 979 838 
z
M 5421 5267 
C 5062 4774 4397 4250 3840 3949 
C 3962 3859 4102 3712 4186 3610 
C 4781 3955 5446 4518 5875 5082 
L 5421 5267 
z
M 5594 3494 
C 5197 2976 4474 2426 3872 2106 
C 3994 2016 4134 1869 4218 1766 
C 4858 2131 5574 2714 6035 3302 
L 5594 3494 
z
M 730 5133 
L 730 3430 
L 1901 3430 
L 1901 3040 
L 294 3040 
L 294 2656 
L 3942 2656 
L 3942 3040 
L 2342 3040 
L 2342 3430 
L 3571 3430 
L 3571 5133 
L 730 5133 
z
M 781 2278 
L 781 1005 
L 1901 1005 
L 1901 -45 
C 1901 -109 1888 -128 1805 -128 
C 1722 -141 1485 -134 1197 -128 
C 1261 -237 1344 -397 1376 -512 
C 1734 -512 1971 -512 2138 -442 
C 2298 -378 2342 -269 2342 -51 
L 2342 1005 
L 3520 1005 
L 3520 2278 
L 781 2278 
z
M 5760 1683 
C 5357 979 4595 346 3795 -32 
C 3661 211 3366 570 3117 832 
L 2752 646 
C 3002 378 3290 0 3424 -243 
L 3629 -128 
C 3744 -237 3878 -397 3955 -506 
C 4877 -64 5722 659 6227 1510 
L 5760 1683 
z
" transform="scale(0.015625)"/>
      <path id="NotoSansCJKjp-Regular-e6af" d="M 1952 2432 
C 1952 3680 1446 4698 678 5478 
L 294 5280 
C 1030 4518 1485 3571 1485 2432 
C 1485 1293 1030 346 294 -416 
L 678 -614 
C 1446 166 1952 1184 1952 2432 
z
" transform="scale(0.015625)"/>
     </defs>
     <use xlink:href="#NotoSansCJKjp-Regular-31"/>
     <use xlink:href="#NotoSansCJKjp-Regular-2e1" transform="translate(63.296875 0)"/>
     <use xlink:href="#NotoSansCJKjp-Regular-e6ae" transform="translate(91.09375 0)"/>
     <use xlink:href="#NotoSansCJKjp-Regular-59" transform="translate(191.09375 0)"/>
     <use xlink:href="#NotoSansCJKjp-Regular-5a" transform="translate(240.890625 0)"/>
     <use xlink:href="#NotoSansCJKjp-Regular-1" transform="translate(292.984375 0)"/>
     <use xlink:href="#NotoSansCJKjp-Regular-41d6" transform="translate(315.390625 0)"/>
     <use xlink:href="#NotoSansCJKjp-Regular-aaab" transform="translate(415.390625 0)"/>
     <use xlink:href="#NotoSansCJKjp-Regular-4937" transform="translate(515.390625 0)"/>
     <use xlink:href="#NotoSansCJKjp-Regular-43c5" transform="translate(615.390625 0)"/>
     <use xlink:href="#NotoSansCJKjp-Regular-e6af" transform="translate(715.390625 0)"/>
    </g>
   </g>
   <g id="text_6">
    <!-- a -->
    <g style="fill: #1f6feb" transform="translate(86.057858 321.391884) scale(0.11 -0.11)">
     <use xlink:href="#NotoSansCJKjp-Regular-42"/>
    </g>
   </g>
   <g id="text_7">
    <!-- b -->
    <g style="fill: #1f6feb" transform="translate(191.127431 312.621405) scale(0.11 -0.11)">
     <use xlink:href="#NotoSansCJKjp-Regular-43"/>
    </g>
   </g>
   <g id="text_8">
    <!-- c -->
    <g style="fill: #1a7f37" transform="translate(221.638704 228.96226) scale(0.11 -0.11)">
     <use xlink:href="#NotoSansCJKjp-Regular-44"/>
    </g>
   </g>
   <g id="text_9">
    <!-- Q -->
    <g style="fill: #8250df" transform="translate(163.578456 204.320829) scale(0.12 -0.12)">
     <defs>
      <path id="NotoSansCJKjp-Regular-32" d="M 2374 410 
C 1530 410 979 1165 979 2362 
C 979 3533 1530 4256 2374 4256 
C 3219 4256 3770 3533 3770 2362 
C 3770 1165 3219 410 2374 410 
z
M 3808 -1178 
C 4090 -1178 4339 -1133 4480 -1069 
L 4365 -614 
C 4243 -653 4083 -685 3872 -685 
C 3366 -685 2931 -474 2720 -58 
C 3712 115 4378 1011 4378 2362 
C 4378 3866 3552 4774 2374 4774 
C 1197 4774 371 3866 371 2362 
C 371 986 1062 77 2086 -64 
C 2349 -704 2944 -1178 3808 -1178 
z
" transform="scale(0.015625)"/>
     </defs>
     <use xlink:href="#NotoSansCJKjp-Regular-32"/>
    </g>
   </g>
   <g id="text_10">
    <!-- PQ -->
    <g style="fill: #bf8700" transform="translate(190.841724 177.587129) scale(0.11 -0.11)">
     <use xlink:href="#NotoSansCJKjp-Regular-31"/>
     <use xlink:href="#NotoSansCJKjp-Regular-32" transform="translate(63.296875 0)"/>
    </g>
   </g>
   <g id="text_11">
    <!-- 空間直角坐標系：點的坐標、投影與兩點距離 -->
    <g style="fill: #222831" transform="translate(49.064 18.64) scale(0.13 -0.13)">
     <defs>
      <path id="NotoSansCJKjp-Regular-72dc" d="M 499 4710 
L 499 3418 
L 973 3418 
L 973 4269 
L 2221 4269 
C 2112 3334 1805 2803 422 2534 
C 525 2438 646 2246 685 2125 
C 2202 2470 2586 3136 2720 4269 
L 3654 4269 
L 3654 2995 
C 3654 2522 3789 2394 4358 2394 
C 4474 2394 5152 2394 5280 2394 
C 5709 2394 5843 2554 5894 3162 
C 5766 3194 5574 3258 5472 3334 
C 5453 2880 5414 2816 5229 2816 
C 5082 2816 4518 2816 4403 2816 
C 4166 2816 4128 2842 4128 2995 
L 4128 4269 
L 5427 4269 
L 5427 3558 
L 5920 3558 
L 5920 4710 
L 3430 4710 
L 3430 5376 
L 2938 5376 
L 2938 4710 
L 499 4710 
z
M 384 122 
L 384 -320 
L 6022 -320 
L 6022 122 
L 3430 122 
L 3430 1414 
L 5466 1414 
L 5466 1856 
L 1056 1856 
L 1056 1414 
L 2938 1414 
L 2938 122 
L 384 122 
z
" transform="scale(0.015625)"/>
      <path id="NotoSansCJKjp-Regular-a774" d="M 3936 1082 
L 3936 461 
L 2432 461 
L 2432 1082 
L 3936 1082 
z
M 3936 1453 
L 2432 1453 
L 2432 2042 
L 3936 2042 
L 3936 1453 
z
M 1997 2419 
L 1997 -243 
L 2432 -243 
L 2432 83 
L 4384 83 
L 4384 2419 
L 1997 2419 
z
M 2451 3840 
L 2451 3270 
L 1056 3270 
L 1056 3840 
L 2451 3840 
z
M 2451 4192 
L 1056 4192 
L 1056 4730 
L 2451 4730 
L 2451 4192 
z
M 5376 3840 
L 5376 3264 
L 3936 3264 
L 3936 3840 
L 5376 3840 
z
M 5376 4192 
L 3936 4192 
L 3936 4730 
L 5376 4730 
L 5376 4192 
z
M 5619 5101 
L 3482 5101 
L 3482 2893 
L 5376 2893 
L 5376 128 
C 5376 13 5338 -19 5229 -26 
C 5114 -26 4723 -32 4333 -19 
C 4403 -154 4474 -378 4499 -512 
C 5030 -512 5376 -506 5581 -422 
C 5792 -339 5862 -186 5862 122 
L 5862 5101 
L 5619 5101 
z
M 576 5101 
L 576 -518 
L 1056 -518 
L 1056 2906 
L 2899 2906 
L 2899 5101 
L 576 5101 
z
" transform="scale(0.015625)"/>
      <path id="NotoSansCJKjp-Regular-6ce1" d="M 2374 2586 
L 4832 2586 
L 4832 2061 
L 2374 2061 
L 2374 2586 
z
M 2374 1715 
L 4832 1715 
L 4832 1178 
L 2374 1178 
L 2374 1715 
z
M 2374 3456 
L 4832 3456 
L 4832 2931 
L 2374 2931 
L 2374 3456 
z
M 736 3635 
L 736 -518 
L 1203 -518 
L 1203 -179 
L 6080 -179 
L 6080 269 
L 1203 269 
L 1203 3635 
L 736 3635 
z
M 3053 5395 
L 3008 4787 
L 397 4787 
L 397 4339 
L 2963 4339 
L 2899 3814 
L 1914 3814 
L 1914 813 
L 5306 813 
L 5306 3814 
L 3379 3814 
L 3469 4339 
L 6029 4339 
L 6029 4787 
L 3533 4787 
L 3603 5363 
L 3053 5395 
z
" transform="scale(0.015625)"/>
      <path id="NotoSansCJKjp-Regular-9248" d="M 1696 3482 
L 3110 3482 
L 3110 2630 
L 1696 2630 
L 1696 3482 
z
M 1696 3910 
L 1683 3910 
C 1888 4134 2074 4365 2234 4595 
L 3795 4595 
C 3667 4365 3501 4109 3341 3910 
L 1696 3910 
z
M 5101 3482 
L 5101 2630 
L 3571 2630 
L 3571 3482 
L 5101 3482 
z
M 2157 5395 
C 1837 4749 1222 3955 358 3373 
C 474 3302 627 3149 704 3034 
C 890 3168 1062 3309 1222 3450 
L 1222 2310 
C 1222 1498 1120 506 211 -198 
C 307 -269 480 -442 550 -544 
C 1062 -147 1357 371 1517 902 
L 5101 902 
L 5101 102 
C 5101 -19 5062 -58 4922 -64 
C 4774 -70 4275 -70 3757 -58 
C 3827 -186 3917 -390 3942 -525 
C 4595 -525 5011 -518 5254 -442 
C 5491 -365 5574 -218 5574 96 
L 5574 3910 
L 3872 3910 
C 4096 4192 4314 4518 4461 4813 
L 4134 5024 
L 4058 4998 
L 2502 4998 
L 2675 5299 
L 2157 5395 
z
M 1696 2214 
L 3110 2214 
L 3110 1325 
L 1613 1325 
C 1670 1632 1690 1933 1696 2214 
z
M 5101 2214 
L 5101 1325 
L 3571 1325 
L 3571 2214 
L 5101 2214 
z
" transform="scale(0.015625)"/>
      <path id="NotoSansCJKjp-Regular-33ff" d="M 4698 5062 
C 4499 4070 4077 3232 3430 2714 
L 3430 5299 
L 2944 5299 
L 2944 1882 
L 800 1882 
L 800 1421 
L 2944 1421 
L 2944 192 
L 339 192 
L 339 -262 
L 6080 -262 
L 6080 192 
L 3430 192 
L 3430 1421 
L 5638 1421 
L 5638 1882 
L 3430 1882 
L 3430 2643 
C 3539 2560 3693 2413 3763 2336 
C 4109 2630 4397 3008 4634 3456 
C 5050 3040 5498 2547 5728 2221 
L 6067 2566 
C 5805 2912 5274 3450 4832 3872 
C 4973 4211 5088 4582 5171 4979 
L 4698 5062 
z
M 1562 5082 
C 1344 4000 915 3091 237 2528 
C 346 2451 538 2285 614 2189 
C 992 2534 1306 2982 1555 3507 
C 1888 3162 2246 2765 2432 2502 
L 2765 2848 
C 2547 3136 2106 3584 1741 3942 
C 1862 4269 1965 4627 2042 5005 
L 1562 5082 
z
" transform="scale(0.015625)"/>
      <path id="NotoSansCJKjp-Regular-5605" d="M 2810 2330 
L 2810 1958 
L 5818 1958 
L 5818 2330 
L 2810 2330 
z
M 4947 710 
C 5267 403 5651 -26 5830 -294 
L 6189 -38 
C 6003 237 5613 640 5286 934 
L 4947 710 
z
M 3149 954 
C 2938 634 2541 243 2170 0 
C 2272 -77 2400 -198 2470 -288 
C 2861 -26 3264 365 3514 749 
L 3149 954 
z
M 2643 4250 
L 2643 2714 
L 5984 2714 
L 5984 4250 
L 4966 4250 
L 4966 4698 
L 6144 4698 
L 6144 5094 
L 2438 5094 
L 2438 4698 
L 3590 4698 
L 3590 4250 
L 2643 4250 
z
M 3981 4698 
L 4570 4698 
L 4570 4250 
L 3981 4250 
L 3981 4698 
z
M 2406 1498 
L 2406 1094 
L 4038 1094 
L 4038 -32 
C 4038 -96 4019 -115 3936 -122 
C 3859 -128 3622 -128 3309 -115 
C 3373 -237 3437 -397 3456 -518 
C 3859 -518 4115 -512 4282 -448 
C 4448 -378 4486 -256 4486 -38 
L 4486 1094 
L 6144 1094 
L 6144 1498 
L 2406 1498 
z
M 3046 3872 
L 3622 3872 
L 3622 3085 
L 3046 3085 
L 3046 3872 
z
M 3974 3872 
L 4570 3872 
L 4570 3085 
L 3974 3085 
L 3974 3872 
z
M 4928 3872 
L 5562 3872 
L 5562 3085 
L 4928 3085 
L 4928 3872 
z
M 1229 5376 
L 1229 3987 
L 333 3987 
L 333 3539 
L 1178 3539 
C 992 2669 602 1658 198 1120 
C 275 1011 390 832 442 704 
C 736 1120 1011 1792 1229 2483 
L 1229 -506 
L 1670 -506 
L 1670 2528 
C 1862 2214 2086 1818 2176 1606 
L 2438 1965 
C 2330 2144 1843 2874 1670 3098 
L 1670 3539 
L 2394 3539 
L 2394 3987 
L 1670 3987 
L 1670 5376 
L 1229 5376 
z
" transform="scale(0.015625)"/>
      <path id="NotoSansCJKjp-Regular-784c" d="M 1715 1222 
C 1363 749 787 262 243 -51 
C 371 -128 582 -288 678 -378 
C 1197 -32 1805 512 2208 1043 
L 1715 1222 
z
M 4109 986 
C 4666 582 5350 -6 5677 -371 
L 6093 -64 
C 5741 301 5037 864 4493 1248 
L 4109 986 
z
M 5286 5286 
C 4179 5062 2208 4928 557 4883 
C 602 4768 659 4576 672 4448 
C 1235 4461 1843 4486 2445 4525 
C 2195 4198 1882 3840 1594 3565 
L 1158 3827 
L 832 3533 
C 1344 3232 1939 2790 2310 2445 
C 2125 2291 1933 2150 1760 2016 
L 358 2003 
L 403 1517 
L 2938 1581 
L 2938 -512 
L 3443 -512 
L 3443 1594 
L 5293 1645 
C 5466 1459 5613 1286 5715 1139 
L 6138 1427 
C 5811 1862 5126 2509 4563 2957 
L 4173 2707 
C 4403 2522 4646 2298 4883 2074 
L 2464 2029 
C 3226 2618 4083 3398 4730 4077 
L 4269 4326 
C 3853 3846 3270 3270 2682 2765 
C 2490 2938 2227 3136 1952 3328 
C 2317 3661 2739 4122 3072 4525 
L 3002 4563 
C 3974 4634 4915 4736 5632 4877 
L 5286 5286 
z
" transform="scale(0.015625)"/>
      <path id="NotoSansCJKjp-Regular-e6c0" d="M 3200 3482 
C 3456 3482 3686 3667 3686 3962 
C 3686 4256 3456 4442 3200 4442 
C 2944 4442 2714 4256 2714 3962 
C 2714 3667 2944 3482 3200 3482 
z
M 3200 346 
C 3456 346 3686 538 3686 826 
C 3686 1120 3456 1312 3200 1312 
C 2944 1312 2714 1120 2714 826 
C 2714 538 2944 346 3200 346 
z
" transform="scale(0.015625)"/>
      <path id="NotoSansCJKjp-Regular-b7c4" d="M 966 4474 
C 1069 4166 1152 3757 1165 3494 
L 1421 3565 
C 1402 3821 1312 4230 1203 4538 
L 966 4474 
z
M 1178 813 
C 1267 454 1338 0 1331 -307 
L 1664 -262 
C 1664 38 1594 499 1498 851 
L 1178 813 
z
M 1792 851 
C 1939 518 2067 90 2106 -192 
L 2432 -115 
C 2387 166 2246 589 2099 915 
L 1792 851 
z
M 2406 934 
C 2618 634 2848 224 2938 -45 
L 3258 96 
C 3162 365 2931 762 2701 1056 
L 2406 934 
z
M 634 838 
C 582 390 454 -70 205 -333 
L 538 -512 
C 806 -224 915 269 973 742 
L 634 838 
z
M 2272 4557 
C 2214 4262 2086 3808 1997 3533 
L 2202 3456 
C 2317 3706 2445 4122 2554 4454 
L 2272 4557 
z
M 4314 5363 
L 4314 2330 
L 3379 2330 
L 3379 -506 
L 3827 -506 
L 3827 -211 
L 5440 -211 
L 5440 -480 
L 5901 -480 
L 5901 2330 
L 4781 2330 
L 4781 3526 
L 6150 3526 
L 6150 3974 
L 4781 3974 
L 4781 5363 
L 4314 5363 
z
M 3827 237 
L 3827 1894 
L 5440 1894 
L 5440 237 
L 3827 237 
z
M 877 4794 
L 1568 4794 
L 1568 3245 
L 877 3245 
L 877 4794 
z
M 1894 4794 
L 2637 4794 
L 2637 3245 
L 1894 3245 
L 1894 4794 
z
M 448 2451 
L 448 2067 
L 1517 2067 
L 1517 1568 
L 314 1510 
L 333 1088 
C 1075 1133 2138 1203 3155 1274 
L 3168 1658 
L 1946 1594 
L 1946 2067 
L 3072 2067 
L 3072 2451 
L 1946 2451 
L 1946 2893 
L 3027 2893 
L 3027 5146 
L 493 5146 
L 493 2893 
L 1517 2893 
L 1517 2451 
L 448 2451 
z
" transform="scale(0.015625)"/>
      <path id="NotoSansCJKjp-Regular-6c33" d="M 3533 2707 
C 3885 2240 4320 1600 4512 1210 
L 4922 1466 
C 4710 1843 4269 2464 3904 2918 
L 3533 2707 
z
M 1536 5389 
C 1485 5082 1376 4659 1274 4346 
L 557 4346 
L 557 -346 
L 998 -346 
L 998 160 
L 2784 160 
L 2784 4346 
L 1715 4346 
C 1824 4621 1946 4979 2054 5299 
L 1536 5389 
z
M 998 3917 
L 2342 3917 
L 2342 2566 
L 998 2566 
L 998 3917 
z
M 998 595 
L 998 2144 
L 2342 2144 
L 2342 595 
L 998 595 
z
M 3827 5402 
C 3622 4518 3277 3635 2835 3066 
C 2950 3002 3149 2867 3238 2790 
C 3456 3098 3661 3488 3840 3923 
L 5478 3923 
C 5402 1357 5299 371 5094 154 
C 5018 64 4947 45 4819 45 
C 4672 45 4288 51 3866 83 
C 3955 -38 4013 -243 4026 -378 
C 4384 -397 4762 -410 4979 -390 
C 5210 -365 5350 -314 5498 -122 
C 5754 192 5843 1184 5939 4122 
C 5946 4186 5946 4365 5946 4365 
L 4013 4365 
C 4115 4666 4211 4986 4288 5299 
L 3827 5402 
z
" transform="scale(0.015625)"/>
      <path id="NotoSansCJKjp-Regular-575" d="M 1747 -358 
L 2182 13 
C 1786 480 1210 1062 749 1434 
L 333 1069 
C 787 698 1338 147 1747 -358 
z
" transform="scale(0.015625)"/>
      <path id="NotoSansCJKjp-Regular-8241" d="M 3795 563 
C 4480 218 5210 -211 5638 -531 
L 6093 -198 
C 5619 115 4845 544 4141 883 
L 3795 563 
z
M 2125 870 
C 1722 512 954 70 339 -186 
C 454 -275 621 -429 704 -525 
C 1306 -250 2067 179 2573 576 
L 2125 870 
z
M 288 1414 
L 288 966 
L 6131 966 
L 6131 1414 
L 5459 1414 
C 5517 2355 5549 3853 5555 4973 
L 4186 4973 
L 4186 4544 
L 5114 4544 
L 5107 3795 
L 4256 3795 
L 4256 3386 
L 5094 3386 
L 5069 2598 
L 4237 2598 
L 4237 2189 
L 5056 2189 
L 5011 1414 
L 3936 1414 
L 3936 3584 
L 2925 3584 
L 2925 4256 
L 4058 4256 
L 4058 4666 
L 2925 4666 
L 2925 5318 
L 2502 5318 
L 2502 3194 
L 3514 3194 
L 3514 1414 
L 2893 1414 
L 2893 2912 
L 2496 2912 
L 2496 1414 
L 1382 1414 
L 1357 2195 
L 2182 2195 
L 2182 2598 
L 1344 2598 
L 1318 3386 
L 2176 3386 
L 2176 3795 
L 1306 3795 
L 1280 4474 
C 1645 4614 2048 4800 2381 4973 
L 2003 5318 
C 1792 5171 1466 4986 1146 4832 
L 826 4928 
L 947 1414 
L 288 1414 
z
" transform="scale(0.015625)"/>
      <path id="NotoSansCJKjp-Regular-2a94" d="M 1568 2784 
L 1568 2445 
L 1971 2445 
C 1875 1683 1651 1050 1222 634 
C 1299 589 1440 480 1498 429 
C 1779 723 1990 1114 2138 1581 
C 2221 1171 2381 774 2662 435 
C 2720 506 2854 608 2931 653 
C 2374 1293 2330 2112 2330 2784 
L 1568 2784 
z
M 442 4992 
L 442 4518 
L 2938 4518 
L 2938 3718 
L 672 3718 
L 672 -499 
L 1133 -499 
L 1133 3264 
L 2938 3264 
L 2938 -480 
L 3398 -480 
L 3398 3264 
L 5299 3264 
L 5299 58 
C 5299 -38 5267 -70 5171 -70 
C 5069 -77 4736 -77 4384 -64 
C 4448 -186 4525 -371 4550 -499 
C 5005 -499 5325 -493 5517 -416 
C 5709 -346 5766 -211 5766 51 
L 5766 3718 
L 3398 3718 
L 3398 4518 
L 5990 4518 
L 5990 4992 
L 442 4992 
z
M 3802 2784 
L 3802 2445 
L 4218 2445 
C 4115 1709 3891 1088 3482 678 
C 3571 634 3706 525 3763 467 
C 4038 768 4243 1158 4384 1626 
C 4474 1203 4640 794 4947 454 
C 5011 518 5146 621 5229 659 
C 4640 1293 4589 2112 4589 2784 
L 3802 2784 
z
" transform="scale(0.015625)"/>
      <path id="NotoSansCJKjp-Regular-9943" d="M 998 4685 
L 2246 4685 
L 2246 3558 
L 998 3558 
L 998 4685 
z
M 3155 5120 
L 3155 -506 
L 3629 -506 
L 3629 -205 
L 6157 -205 
L 6157 250 
L 3629 250 
L 3629 1331 
L 5798 1331 
L 5798 3603 
L 3629 3603 
L 3629 4672 
L 6074 4672 
L 6074 5120 
L 3155 5120 
z
M 3629 3155 
L 5331 3155 
L 5331 1779 
L 3629 1779 
L 3629 3155 
z
M 218 269 
L 307 -198 
C 1018 -26 2003 211 2931 442 
L 2886 870 
L 1888 634 
L 1888 1786 
L 2829 1786 
L 2829 2214 
L 1888 2214 
L 1888 3136 
L 2694 3136 
L 2694 5107 
L 570 5107 
L 570 3136 
L 1453 3136 
L 1453 538 
L 979 429 
L 979 2534 
L 570 2534 
L 570 339 
L 218 269 
z
" transform="scale(0.015625)"/>
      <path id="NotoSansCJKjp-Regular-a995" d="M 1587 5376 
L 1587 4826 
L 275 4826 
L 275 4429 
L 3373 4429 
L 3373 4826 
L 2054 4826 
L 2054 5376 
L 1587 5376 
z
M 5203 5312 
C 5126 4973 4979 4499 4838 4154 
L 4147 4154 
C 4288 4512 4416 4896 4518 5274 
L 4083 5376 
C 3859 4493 3501 3603 3066 3002 
L 3066 4166 
L 2688 4166 
L 2688 2739 
L 934 2739 
L 934 4166 
L 582 4166 
L 582 2387 
L 1587 2387 
L 1530 1958 
L 403 1958 
L 403 -518 
L 806 -518 
L 806 1587 
L 1466 1587 
C 1414 1286 1350 986 1293 742 
L 960 730 
L 998 378 
L 2342 480 
C 2381 371 2406 269 2426 179 
L 2720 282 
C 2675 557 2496 998 2310 1331 
L 2029 1248 
C 2099 1107 2170 954 2234 800 
L 1645 762 
C 1715 1005 1779 1293 1843 1587 
L 2822 1587 
L 2822 -45 
C 2822 -115 2803 -128 2726 -134 
C 2650 -141 2400 -141 2118 -134 
C 2170 -237 2234 -397 2253 -506 
C 2637 -506 2880 -506 3040 -442 
C 3194 -371 3238 -256 3238 -51 
L 3238 1958 
L 1920 1958 
L 2003 2387 
L 3066 2387 
L 3066 2912 
C 3168 2835 3315 2714 3379 2650 
C 3475 2784 3571 2938 3661 3098 
L 3661 -518 
L 4102 -518 
L 4102 -179 
L 6157 -179 
L 6157 262 
L 5261 262 
L 5261 1152 
L 6035 1152 
L 6035 1568 
L 5261 1568 
L 5261 2445 
L 6035 2445 
L 6035 2854 
L 5261 2854 
L 5261 3718 
L 6093 3718 
L 6093 4154 
L 5267 4154 
C 5402 4467 5542 4858 5664 5203 
L 5203 5312 
z
M 2099 4262 
C 2022 4090 1926 3917 1818 3763 
C 1645 3872 1472 3974 1306 4058 
L 1107 3834 
C 1274 3744 1453 3635 1619 3520 
C 1446 3315 1248 3142 1037 2995 
C 1120 2944 1254 2835 1306 2771 
C 1510 2925 1709 3110 1888 3328 
C 2080 3187 2246 3046 2362 2925 
L 2573 3181 
C 2458 3302 2285 3437 2086 3578 
C 2221 3770 2342 3968 2438 4179 
L 2099 4262 
z
M 4102 2445 
L 4845 2445 
L 4845 1568 
L 4102 1568 
L 4102 2445 
z
M 4102 2854 
L 4102 3718 
L 4845 3718 
L 4845 2854 
L 4102 2854 
z
M 4102 1152 
L 4845 1152 
L 4845 262 
L 4102 262 
L 4102 1152 
z
" transform="scale(0.015625)"/>
     </defs>
     <use xlink:href="#NotoSansCJKjp-Regular-72dc"/>
     <use xlink:href="#NotoSansCJKjp-Regular-a774" transform="translate(100 0)"/>
     <use xlink:href="#NotoSansCJKjp-Regular-6ce1" transform="translate(200 0)"/>
     <use xlink:href="#NotoSansCJKjp-Regular-9248" transform="translate(300 0)"/>
     <use xlink:href="#NotoSansCJKjp-Regular-33ff" transform="translate(400 0)"/>
     <use xlink:href="#NotoSansCJKjp-Regular-5605" transform="translate(500 0)"/>
     <use xlink:href="#NotoSansCJKjp-Regular-784c" transform="translate(600 0)"/>
     <use xlink:href="#NotoSansCJKjp-Regular-e6c0" transform="translate(700 0)"/>
     <use xlink:href="#NotoSansCJKjp-Regular-b7c4" transform="translate(800 0)"/>
     <use xlink:href="#NotoSansCJKjp-Regular-6c33" transform="translate(900 0)"/>
     <use xlink:href="#NotoSansCJKjp-Regular-33ff" transform="translate(1000 0)"/>
     <use xlink:href="#NotoSansCJKjp-Regular-5605" transform="translate(1100 0)"/>
     <use xlink:href="#NotoSansCJKjp-Regular-575" transform="translate(1200 0)"/>
     <use xlink:href="#NotoSansCJKjp-Regular-4937" transform="translate(1300 0)"/>
     <use xlink:href="#NotoSansCJKjp-Regular-43c5" transform="translate(1400 0)"/>
     <use xlink:href="#NotoSansCJKjp-Regular-8241" transform="translate(1500 0)"/>
     <use xlink:href="#NotoSansCJKjp-Regular-2a94" transform="translate(1600 0)"/>
     <use xlink:href="#NotoSansCJKjp-Regular-b7c4" transform="translate(1700 0)"/>
     <use xlink:href="#NotoSansCJKjp-Regular-9943" transform="translate(1800 0)"/>
     <use xlink:href="#NotoSansCJKjp-Regular-a995" transform="translate(1900 0)"/>
    </g>
   </g>
   <g id="patch_4">
    <path d="M 44.436877 298.395319 
Q 95.999339 273.924107 146.147725 250.124006 
" clip-path="url(#p8c227be44f)" style="fill: none; stroke: #222831; stroke-width: 1.4; stroke-linecap: round"/>
    <path d="M 140.782293 250.013833 
L 146.147725 250.124006 
L 142.840327 254.350248 
z
" clip-path="url(#p8c227be44f)" style="fill: #222831; stroke: #222831; stroke-width: 1.4; stroke-linecap: round"/>
   </g>
   <g id="Path3DCollection_2">
    <defs>
     <path id="m564d04e177" d="M 0 2.236068 
C 0.593012 2.236068 1.161816 2.000462 1.581139 1.581139 
C 2.000462 1.161816 2.236068 0.593012 2.236068 0 
C 2.236068 -0.593012 2.000462 -1.161816 1.581139 -1.581139 
C 1.161816 -2.000462 0.593012 -2.236068 0 -2.236068 
C -0.593012 -2.236068 -1.161816 -2.000462 -1.581139 -1.581139 
C -2.000462 -1.161816 -2.236068 -0.593012 -2.236068 0 
C -2.236068 0.593012 -2.000462 1.161816 -1.581139 1.581139 
C -1.161816 2.000462 -0.593012 2.236068 0 2.236068 
z
" style="stroke: #1a7f37"/>
    </defs>
    <g clip-path="url(#p8c227be44f)">
     <use xlink:href="#m564d04e177" x="214.476098" y="291.528518" style="fill: #1a7f37; stroke: #1a7f37"/>
    </g>
   </g>
   <g id="patch_5">
    <path d="M 42.5847 297.254324 
Q 40.517982 203.90657 38.485911 112.123681 
" clip-path="url(#p8c227be44f)" style="fill: none; stroke: #222831; stroke-width: 1.4; stroke-linecap: round"/>
    <path d="M 36.192745 116.975628 
L 38.485911 112.123681 
L 40.991569 116.869382 
z
" clip-path="url(#p8c227be44f)" style="fill: #222831; stroke: #222831; stroke-width: 1.4; stroke-linecap: round"/>
   </g>
   <g id="Path3DCollection_3">
    <defs>
     <path id="mb59d7d22bd" d="M 0 3.24037 
C 0.859356 3.24037 1.683631 2.898944 2.291288 2.291288 
C 2.898944 1.683631 3.24037 0.859356 3.24037 0 
C 3.24037 -0.859356 2.898944 -1.683631 2.291288 -2.291288 
C 1.683631 -2.898944 0.859356 -3.24037 0 -3.24037 
C -0.859356 -3.24037 -1.683631 -2.898944 -2.291288 -2.291288 
C -2.898944 -1.683631 -3.24037 -0.859356 -3.24037 0 
C -3.24037 0.859356 -2.898944 1.683631 -2.291288 2.291288 
C -1.683631 2.898944 -0.859356 3.24037 0 3.24037 
z
" style="stroke: #d1242f"/>
    </defs>
    <g clip-path="url(#p8c227be44f)">
     <use xlink:href="#mb59d7d22bd" x="215.090304" y="164.166097" style="fill: #d1242f; stroke: #d1242f"/>
    </g>
   </g>
  </g>
 </g>
 <defs>
  <clipPath id="p8c227be44f">
   <rect x="7.2" y="24.64" width="343.728" height="343.728"/>
  </clipPath>
 </defs>
</svg>
