<?xml version="1.0" encoding="utf-8" standalone="no"?>
<!DOCTYPE svg PUBLIC "-//W3C//DTD SVG 1.1//EN"
  "http://www.w3.org/Graphics/SVG/1.1/DTD/svg11.dtd">
<svg xmlns:xlink="http://www.w3.org/1999/xlink" width="794.938125pt" height="324.54225pt" viewBox="0 0 794.938125 324.54225" xmlns="http://www.w3.org/2000/svg" version="1.1">
 <metadata>
  <rdf:RDF xmlns:dc="http://purl.org/dc/elements/1.1/" xmlns:cc="http://creativecommons.org/ns#" xmlns:rdf="http://www.w3.org/1999/02/22-rdf-syntax-ns#">
   <cc:Work>
    <dc:type rdf:resource="http://purl.org/dc/dcmitype/StillImage"/>
    <dc:date>2026-06-20T18:20:31.053957</dc:date>
    <dc:format>image/svg+xml</dc:format>
    <dc:creator>
     <cc:Agent>
      <dc:title>Matplotlib v3.11.0, https://matplotlib.org/</dc:title>
     </cc:Agent>
    </dc:creator>
   </cc:Work>
  </rdf:RDF>
 </metadata>
 <defs>
  <style type="text/css">*{stroke-linejoin: round; stroke-linecap: butt}</style>
 </defs>
 <g id="figure_1">
  <g id="patch_1">
   <path d="M 0 324.54225 
L 794.938125 324.54225 
L 794.938125 0 
L 0 0 
z
" style="fill: #ffffff"/>
  </g>
  <g id="axes_1">
   <g id="patch_2">
    <path d="M 43.52 282.34225 
L 407.399063 282.34225 
L 407.399063 70.72475 
L 43.52 70.72475 
z
" style="fill: #ffffff"/>
   </g>
   <g id="matplotlib.axis_1">
    <g id="xtick_1">
     <g id="line2d_1">
      <path d="M 85.276614 282.34225 
L 85.276614 70.72475 
" clip-path="url(#p3402d8dc3b)" style="fill: none; stroke: #d8dde3; stroke-width: 0.9; stroke-linecap: square"/>
     </g>
     <g id="line2d_2">
      <defs>
       <path id="ma6f5656046" d="M 0 0 
L 0 3.5 
" style="stroke: #222831; stroke-width: 0.8"/>
      </defs>
      <g>
       <use xlink:href="#ma6f5656046" x="85.276614" y="282.34225" style="fill: #222831; stroke: #222831; stroke-width: 0.8"/>
      </g>
     </g>
     <g id="text_1">
      <!-- 1 -->
      <g style="fill: #222831" transform="translate(81.946614 299.90225) scale(0.12 -0.12)">
       <defs>
        <path id="NotoSansCJKjp-Regular-12" d="M 563 0 
L 3136 0 
L 3136 486 
L 2195 486 
L 2195 4691 
L 1747 4691 
C 1491 4544 1190 4435 774 4358 
L 774 3987 
L 1613 3987 
L 1613 486 
L 563 486 
L 563 0 
z
" transform="scale(0.015625)"/>
       </defs>
       <use xlink:href="#NotoSansCJKjp-Regular-12"/>
      </g>
     </g>
    </g>
    <g id="xtick_2">
     <g id="line2d_3">
      <path d="M 144.928919 282.34225 
L 144.928919 70.72475 
" clip-path="url(#p3402d8dc3b)" style="fill: none; stroke: #d8dde3; stroke-width: 0.9; stroke-linecap: square"/>
     </g>
     <g id="line2d_4">
      <g>
       <use xlink:href="#ma6f5656046" x="144.928919" y="282.34225" style="fill: #222831; stroke: #222831; stroke-width: 0.8"/>
      </g>
     </g>
     <g id="text_2">
      <!-- 2 -->
      <g style="fill: #222831" transform="translate(141.598919 299.90225) scale(0.12 -0.12)">
       <defs>
        <path id="NotoSansCJKjp-Regular-13" d="M 282 0 
L 3232 0 
L 3232 506 
L 1933 506 
C 1696 506 1408 480 1165 461 
C 2266 1504 3008 2458 3008 3398 
C 3008 4230 2477 4774 1638 4774 
C 1043 4774 634 4506 256 4090 
L 595 3757 
C 858 4070 1184 4301 1568 4301 
C 2150 4301 2432 3910 2432 3373 
C 2432 2566 1754 1632 282 346 
L 282 0 
z
" transform="scale(0.015625)"/>
       </defs>
       <use xlink:href="#NotoSansCJKjp-Regular-13"/>
      </g>
     </g>
    </g>
    <g id="xtick_3">
     <g id="line2d_5">
      <path d="M 204.581224 282.34225 
L 204.581224 70.72475 
" clip-path="url(#p3402d8dc3b)" style="fill: none; stroke: #d8dde3; stroke-width: 0.9; stroke-linecap: square"/>
     </g>
     <g id="line2d_6">
      <g>
       <use xlink:href="#ma6f5656046" x="204.581224" y="282.34225" style="fill: #222831; stroke: #222831; stroke-width: 0.8"/>
      </g>
     </g>
     <g id="text_3">
      <!-- 3 -->
      <g style="fill: #222831" transform="translate(201.251224 299.90225) scale(0.12 -0.12)">
       <defs>
        <path id="NotoSansCJKjp-Regular-14" d="M 1683 -83 
C 2522 -83 3194 416 3194 1254 
C 3194 1901 2752 2310 2202 2445 
L 2202 2477 
C 2701 2650 3034 3034 3034 3603 
C 3034 4346 2458 4774 1664 4774 
C 1126 4774 710 4538 358 4218 
L 672 3846 
C 941 4115 1267 4301 1645 4301 
C 2138 4301 2438 4006 2438 3558 
C 2438 3053 2112 2662 1139 2662 
L 1139 2214 
C 2227 2214 2598 1843 2598 1274 
C 2598 736 2208 403 1645 403 
C 1114 403 762 659 486 941 
L 186 563 
C 493 224 954 -83 1683 -83 
z
" transform="scale(0.015625)"/>
       </defs>
       <use xlink:href="#NotoSansCJKjp-Regular-14"/>
      </g>
     </g>
    </g>
    <g id="xtick_4">
     <g id="line2d_7">
      <path d="M 264.23353 282.34225 
L 264.23353 70.72475 
" clip-path="url(#p3402d8dc3b)" style="fill: none; stroke: #d8dde3; stroke-width: 0.9; stroke-linecap: square"/>
     </g>
     <g id="line2d_8">
      <g>
       <use xlink:href="#ma6f5656046" x="264.23353" y="282.34225" style="fill: #222831; stroke: #222831; stroke-width: 0.8"/>
      </g>
     </g>
     <g id="text_4">
      <!-- 4 -->
      <g style="fill: #222831" transform="translate(260.90353 299.90225) scale(0.12 -0.12)">
       <defs>
        <path id="NotoSansCJKjp-Regular-15" d="M 2176 0 
L 2726 0 
L 2726 1293 
L 3354 1293 
L 3354 1760 
L 2726 1760 
L 2726 4691 
L 2080 4691 
L 128 1677 
L 128 1293 
L 2176 1293 
L 2176 0 
z
M 2176 1760 
L 736 1760 
L 1805 3360 
C 1939 3590 2067 3827 2182 4051 
L 2208 4051 
C 2195 3814 2176 3430 2176 3200 
L 2176 1760 
z
" transform="scale(0.015625)"/>
       </defs>
       <use xlink:href="#NotoSansCJKjp-Regular-15"/>
      </g>
     </g>
    </g>
    <g id="xtick_5">
     <g id="line2d_9">
      <path d="M 323.885835 282.34225 
L 323.885835 70.72475 
" clip-path="url(#p3402d8dc3b)" style="fill: none; stroke: #d8dde3; stroke-width: 0.9; stroke-linecap: square"/>
     </g>
     <g id="line2d_10">
      <g>
       <use xlink:href="#ma6f5656046" x="323.885835" y="282.34225" style="fill: #222831; stroke: #222831; stroke-width: 0.8"/>
      </g>
     </g>
     <g id="text_5">
      <!-- 5 -->
      <g style="fill: #222831" transform="translate(320.555835 299.90225) scale(0.12 -0.12)">
       <defs>
        <path id="NotoSansCJKjp-Regular-16" d="M 1677 -83 
C 2464 -83 3213 499 3213 1523 
C 3213 2560 2573 3021 1798 3021 
C 1517 3021 1306 2950 1094 2835 
L 1216 4192 
L 2982 4192 
L 2982 4691 
L 704 4691 
L 550 2502 
L 864 2304 
C 1133 2483 1331 2579 1645 2579 
C 2234 2579 2618 2182 2618 1510 
C 2618 826 2176 403 1619 403 
C 1075 403 730 653 467 922 
L 173 538 
C 493 224 941 -83 1677 -83 
z
" transform="scale(0.015625)"/>
       </defs>
       <use xlink:href="#NotoSansCJKjp-Regular-16"/>
      </g>
     </g>
    </g>
    <g id="text_6">
     <!-- 資料編號 -->
     <g style="fill: #222831" transform="translate(201.459531 315.90225) scale(0.12 -0.12)">
      <defs>
       <path id="NotoSansCJKjp-Regular-97b2" d="M 614 4902 
C 1069 4768 1664 4531 1965 4365 
L 2176 4742 
C 1862 4902 1274 5114 832 5235 
L 614 4902 
z
M 294 3552 
L 486 3136 
C 966 3283 1574 3475 2150 3661 
L 2099 4045 
C 1434 3859 762 3667 294 3552 
z
M 1626 2035 
L 4851 2035 
L 4851 1594 
L 1626 1594 
L 1626 2035 
z
M 1626 1286 
L 4851 1286 
L 4851 838 
L 1626 838 
L 1626 1286 
z
M 1626 2778 
L 4851 2778 
L 4851 2349 
L 1626 2349 
L 1626 2778 
z
M 1158 3104 
L 1158 518 
L 5331 518 
L 5331 3104 
L 1158 3104 
z
M 3738 186 
C 4435 -45 5126 -320 5530 -525 
L 6067 -282 
C 5600 -70 4826 211 4128 429 
L 3738 186 
z
M 2227 448 
C 1766 198 998 -32 339 -173 
C 448 -256 621 -435 698 -531 
C 1338 -358 2150 -58 2669 250 
L 2227 448 
z
M 3149 5376 
C 2976 4998 2656 4557 2176 4224 
C 2291 4179 2451 4077 2541 3987 
C 2765 4160 2950 4346 3110 4544 
L 3795 4544 
C 3642 3962 3251 3635 2202 3456 
C 2278 3373 2387 3206 2432 3110 
C 3347 3290 3821 3590 4064 4070 
C 4307 3603 4774 3187 5875 2995 
C 5920 3117 6035 3296 6125 3392 
C 4806 3584 4435 4045 4294 4544 
L 5325 4544 
C 5210 4358 5069 4179 4941 4051 
L 5325 3917 
C 5549 4134 5792 4499 5971 4832 
L 5645 4928 
L 5568 4909 
L 3366 4909 
C 3443 5043 3514 5178 3578 5312 
L 3149 5376 
z
" transform="scale(0.015625)"/>
       <path id="NotoSansCJKjp-Regular-4e62" d="M 346 4877 
C 512 4429 666 3840 691 3456 
L 1075 3552 
C 1030 3936 883 4525 698 4973 
L 346 4877 
z
M 2413 4992 
C 2323 4557 2138 3923 1990 3539 
L 2304 3437 
C 2470 3802 2675 4403 2835 4883 
L 2413 4992 
z
M 3302 4589 
C 3674 4365 4115 4013 4314 3770 
L 4570 4134 
C 4358 4378 3917 4704 3546 4922 
L 3302 4589 
z
M 2976 2976 
C 3354 2771 3821 2438 4045 2208 
L 4282 2592 
C 4058 2822 3584 3123 3200 3315 
L 2976 2976 
z
M 301 3226 
L 301 2778 
L 1203 2778 
C 973 2067 570 1222 198 774 
C 282 653 397 448 448 307 
C 762 736 1088 1440 1331 2131 
L 1331 -506 
L 1779 -506 
L 1779 2138 
C 2016 1766 2310 1280 2426 1037 
L 2746 1414 
C 2605 1626 1965 2483 1779 2688 
L 1779 2778 
L 2829 2778 
L 2829 3226 
L 1779 3226 
L 1779 5357 
L 1331 5357 
L 1331 3226 
L 301 3226 
z
M 2816 1299 
L 2899 858 
L 4896 1222 
L 4896 -506 
L 5357 -506 
L 5357 1306 
L 6182 1453 
L 6106 1894 
L 5357 1760 
L 5357 5376 
L 4896 5376 
L 4896 1677 
L 2816 1299 
z
" transform="scale(0.015625)"/>
       <path id="NotoSansCJKjp-Regular-7a34" d="M 2509 4986 
L 2509 4563 
L 6035 4563 
L 6035 4986 
L 2509 4986 
z
M 570 1715 
C 493 1158 378 582 166 192 
C 269 154 448 70 525 19 
C 723 429 877 1043 960 1651 
L 570 1715 
z
M 1811 1638 
C 1965 1267 2086 781 2112 461 
L 2451 570 
C 2355 314 2227 70 2067 -154 
C 2170 -198 2349 -339 2426 -422 
C 2816 115 3008 800 3104 1459 
L 3104 -512 
L 3462 -512 
L 3462 736 
L 3936 736 
L 3936 -454 
L 4262 -454 
L 4262 736 
L 4762 736 
L 4762 -454 
L 5088 -454 
L 5088 736 
L 5606 736 
L 5606 -51 
C 5606 -102 5594 -115 5542 -122 
C 5491 -122 5363 -122 5203 -115 
C 5254 -230 5318 -397 5338 -512 
C 5574 -512 5747 -499 5862 -435 
C 5984 -365 6010 -243 6010 -58 
L 6010 2227 
L 3174 2227 
L 3187 2662 
L 5875 2662 
L 5875 4147 
L 2758 4147 
L 2758 2739 
C 2758 2118 2720 1331 2470 627 
C 2426 941 2304 1389 2157 1741 
L 1811 1638 
z
M 3936 1107 
L 3462 1107 
L 3462 1850 
L 3936 1850 
L 3936 1107 
z
M 4262 1107 
L 4262 1850 
L 4762 1850 
L 4762 1107 
L 4262 1107 
z
M 5088 1107 
L 5088 1850 
L 5606 1850 
L 5606 1107 
L 5088 1107 
z
M 3187 3750 
L 5408 3750 
L 5408 3059 
L 3187 3059 
L 3187 3750 
z
M 179 2547 
L 237 2118 
L 1210 2176 
L 1210 -512 
L 1626 -512 
L 1626 2202 
L 2106 2240 
C 2157 2086 2195 1939 2214 1824 
L 2579 1978 
C 2509 2336 2272 2899 2035 3328 
L 1696 3194 
C 1786 3021 1875 2829 1952 2637 
L 1094 2592 
C 1510 3136 1978 3866 2330 4467 
L 1933 4646 
C 1766 4301 1530 3878 1280 3475 
C 1190 3603 1075 3744 947 3885 
C 1178 4243 1446 4774 1670 5216 
L 1254 5376 
C 1126 5018 896 4525 691 4154 
L 486 4352 
L 237 4051 
C 531 3776 858 3398 1043 3104 
C 915 2906 787 2726 666 2566 
L 179 2547 
z
" transform="scale(0.015625)"/>
       <path id="NotoSansCJKjp-Regular-8c1b" d="M 986 4736 
L 1946 4736 
L 1946 3757 
L 986 3757 
L 986 4736 
z
M 557 5133 
L 557 3354 
L 2394 3354 
L 2394 5133 
L 557 5133 
z
M 3802 1728 
C 3757 794 3616 166 2918 -192 
C 3021 -262 3149 -429 3200 -531 
C 3987 -102 4166 640 4218 1728 
L 3802 1728 
z
M 4736 1734 
L 4736 166 
C 4736 -128 4762 -224 4870 -307 
C 4960 -390 5114 -410 5254 -410 
C 5325 -410 5530 -410 5613 -410 
C 5734 -410 5882 -390 5958 -352 
C 6054 -294 6125 -224 6163 -102 
C 6195 13 6221 326 6227 634 
C 6106 672 5952 755 5862 832 
C 5869 538 5856 294 5843 192 
C 5824 122 5792 70 5754 51 
C 5722 32 5645 26 5581 26 
C 5510 26 5402 26 5350 26 
C 5286 26 5235 32 5203 58 
C 5171 70 5158 115 5158 160 
L 5158 1734 
L 4736 1734 
z
M 256 2899 
L 256 2477 
L 813 2477 
C 717 2035 595 1523 486 1178 
L 922 1094 
L 1024 1498 
L 1901 1498 
C 1824 480 1741 64 1619 -51 
C 1568 -102 1504 -115 1408 -115 
C 1306 -115 1056 -115 787 -90 
C 864 -205 909 -384 922 -506 
C 1184 -525 1446 -525 1587 -512 
C 1760 -499 1875 -461 1984 -346 
C 2163 -154 2253 371 2355 1709 
C 2362 1779 2368 1907 2368 1907 
L 1126 1907 
L 1248 2477 
L 2669 2477 
L 2669 2899 
L 256 2899 
z
M 2848 4109 
L 2848 2470 
C 2848 1638 2784 525 2234 -282 
C 2336 -326 2522 -461 2598 -544 
C 3187 307 3283 1568 3283 2470 
L 3283 3712 
L 5690 3712 
C 5651 3450 5600 3187 5555 3002 
L 5933 2912 
C 6010 3200 6106 3661 6182 4051 
L 5882 4128 
L 5811 4109 
L 4570 4109 
L 4570 4538 
L 5862 4538 
L 5862 4934 
L 4570 4934 
L 4570 5376 
L 4109 5376 
L 4109 4109 
L 2848 4109 
z
M 4128 3667 
L 4128 3117 
L 3430 3046 
L 3475 2701 
L 4128 2771 
L 4128 2522 
C 4128 2112 4243 2010 4710 2010 
C 4806 2010 5312 2010 5414 2010 
C 5760 2010 5875 2138 5920 2630 
C 5805 2662 5638 2714 5542 2778 
C 5530 2419 5504 2368 5357 2368 
C 5254 2368 4845 2368 4762 2368 
C 4582 2368 4557 2387 4557 2522 
L 4557 2816 
L 5376 2899 
L 5331 3238 
L 4557 3162 
L 4557 3667 
L 4128 3667 
z
" transform="scale(0.015625)"/>
      </defs>
      <use xlink:href="#NotoSansCJKjp-Regular-97b2"/>
      <use xlink:href="#NotoSansCJKjp-Regular-4e62" transform="translate(100 0)"/>
      <use xlink:href="#NotoSansCJKjp-Regular-7a34" transform="translate(200 0)"/>
      <use xlink:href="#NotoSansCJKjp-Regular-8c1b" transform="translate(300 0)"/>
     </g>
    </g>
   </g>
   <g id="matplotlib.axis_2">
    <g id="ytick_1">
     <g id="line2d_11">
      <path d="M 43.52 282.34225 
L 407.399063 282.34225 
" clip-path="url(#p3402d8dc3b)" style="fill: none; stroke: #d8dde3; stroke-width: 0.9; stroke-linecap: square"/>
     </g>
     <g id="line2d_12">
      <defs>
       <path id="m32d77f8573" d="M 0 0 
L -3.5 0 
" style="stroke: #222831; stroke-width: 0.8"/>
      </defs>
      <g>
       <use xlink:href="#m32d77f8573" x="43.52" y="282.34225" style="fill: #222831; stroke: #222831; stroke-width: 0.8"/>
      </g>
     </g>
     <g id="text_7">
      <!-- 20 -->
      <g style="fill: #222831" transform="translate(23.2 287.62225) scale(0.12 -0.12)">
       <defs>
        <path id="NotoSansCJKjp-Regular-11" d="M 1779 -83 
C 2669 -83 3238 723 3238 2362 
C 3238 3987 2669 4774 1779 4774 
C 883 4774 320 3987 320 2362 
C 320 723 883 -83 1779 -83 
z
M 1779 390 
C 1248 390 883 986 883 2362 
C 883 3731 1248 4314 1779 4314 
C 2310 4314 2675 3731 2675 2362 
C 2675 986 2310 390 1779 390 
z
" transform="scale(0.015625)"/>
       </defs>
       <use xlink:href="#NotoSansCJKjp-Regular-13"/>
       <use xlink:href="#NotoSansCJKjp-Regular-11" transform="translate(55.5 0)"/>
      </g>
     </g>
    </g>
    <g id="ytick_2">
     <g id="line2d_13">
      <path d="M 43.52 247.072667 
L 407.399063 247.072667 
" clip-path="url(#p3402d8dc3b)" style="fill: none; stroke: #d8dde3; stroke-width: 0.9; stroke-linecap: square"/>
     </g>
     <g id="line2d_14">
      <g>
       <use xlink:href="#m32d77f8573" x="43.52" y="247.072667" style="fill: #222831; stroke: #222831; stroke-width: 0.8"/>
      </g>
     </g>
     <g id="text_8">
      <!-- 30 -->
      <g style="fill: #222831" transform="translate(23.2 252.352667) scale(0.12 -0.12)">
       <use xlink:href="#NotoSansCJKjp-Regular-14"/>
       <use xlink:href="#NotoSansCJKjp-Regular-11" transform="translate(55.5 0)"/>
      </g>
     </g>
    </g>
    <g id="ytick_3">
     <g id="line2d_15">
      <path d="M 43.52 211.803083 
L 407.399063 211.803083 
" clip-path="url(#p3402d8dc3b)" style="fill: none; stroke: #d8dde3; stroke-width: 0.9; stroke-linecap: square"/>
     </g>
     <g id="line2d_16">
      <g>
       <use xlink:href="#m32d77f8573" x="43.52" y="211.803083" style="fill: #222831; stroke: #222831; stroke-width: 0.8"/>
      </g>
     </g>
     <g id="text_9">
      <!-- 40 -->
      <g style="fill: #222831" transform="translate(23.2 217.083083) scale(0.12 -0.12)">
       <use xlink:href="#NotoSansCJKjp-Regular-15"/>
       <use xlink:href="#NotoSansCJKjp-Regular-11" transform="translate(55.5 0)"/>
      </g>
     </g>
    </g>
    <g id="ytick_4">
     <g id="line2d_17">
      <path d="M 43.52 176.5335 
L 407.399063 176.5335 
" clip-path="url(#p3402d8dc3b)" style="fill: none; stroke: #d8dde3; stroke-width: 0.9; stroke-linecap: square"/>
     </g>
     <g id="line2d_18">
      <g>
       <use xlink:href="#m32d77f8573" x="43.52" y="176.5335" style="fill: #222831; stroke: #222831; stroke-width: 0.8"/>
      </g>
     </g>
     <g id="text_10">
      <!-- 50 -->
      <g style="fill: #222831" transform="translate(23.2 181.8135) scale(0.12 -0.12)">
       <use xlink:href="#NotoSansCJKjp-Regular-16"/>
       <use xlink:href="#NotoSansCJKjp-Regular-11" transform="translate(55.5 0)"/>
      </g>
     </g>
    </g>
    <g id="ytick_5">
     <g id="line2d_19">
      <path d="M 43.52 141.263917 
L 407.399063 141.263917 
" clip-path="url(#p3402d8dc3b)" style="fill: none; stroke: #d8dde3; stroke-width: 0.9; stroke-linecap: square"/>
     </g>
     <g id="line2d_20">
      <g>
       <use xlink:href="#m32d77f8573" x="43.52" y="141.263917" style="fill: #222831; stroke: #222831; stroke-width: 0.8"/>
      </g>
     </g>
     <g id="text_11">
      <!-- 60 -->
      <g style="fill: #222831" transform="translate(23.2 146.543917) scale(0.12 -0.12)">
       <defs>
        <path id="NotoSansCJKjp-Regular-17" d="M 1926 -83 
C 2656 -83 3277 531 3277 1440 
C 3277 2426 2765 2912 1971 2912 
C 1606 2912 1197 2701 909 2349 
C 934 3802 1466 4294 2118 4294 
C 2400 4294 2682 4154 2861 3936 
L 3194 4294 
C 2931 4576 2579 4774 2093 4774 
C 1184 4774 358 4077 358 2240 
C 358 691 1030 -83 1926 -83 
z
M 922 1882 
C 1229 2317 1587 2477 1875 2477 
C 2445 2477 2720 2074 2720 1440 
C 2720 800 2374 378 1926 378 
C 1338 378 986 909 922 1882 
z
" transform="scale(0.015625)"/>
       </defs>
       <use xlink:href="#NotoSansCJKjp-Regular-17"/>
       <use xlink:href="#NotoSansCJKjp-Regular-11" transform="translate(55.5 0)"/>
      </g>
     </g>
    </g>
    <g id="ytick_6">
     <g id="line2d_21">
      <path d="M 43.52 105.994333 
L 407.399063 105.994333 
" clip-path="url(#p3402d8dc3b)" style="fill: none; stroke: #d8dde3; stroke-width: 0.9; stroke-linecap: square"/>
     </g>
     <g id="line2d_22">
      <g>
       <use xlink:href="#m32d77f8573" x="43.52" y="105.994333" style="fill: #222831; stroke: #222831; stroke-width: 0.8"/>
      </g>
     </g>
     <g id="text_12">
      <!-- 70 -->
      <g style="fill: #222831" transform="translate(23.2 111.274333) scale(0.12 -0.12)">
       <defs>
        <path id="NotoSansCJKjp-Regular-18" d="M 1267 0 
L 1875 0 
C 1952 1837 2150 2931 3251 4339 
L 3251 4691 
L 314 4691 
L 314 4192 
L 2592 4192 
C 1670 2912 1350 1779 1267 0 
z
" transform="scale(0.015625)"/>
       </defs>
       <use xlink:href="#NotoSansCJKjp-Regular-18"/>
       <use xlink:href="#NotoSansCJKjp-Regular-11" transform="translate(55.5 0)"/>
      </g>
     </g>
    </g>
    <g id="ytick_7">
     <g id="line2d_23">
      <path d="M 43.52 70.72475 
L 407.399063 70.72475 
" clip-path="url(#p3402d8dc3b)" style="fill: none; stroke: #d8dde3; stroke-width: 0.9; stroke-linecap: square"/>
     </g>
     <g id="line2d_24">
      <g>
       <use xlink:href="#m32d77f8573" x="43.52" y="70.72475" style="fill: #222831; stroke: #222831; stroke-width: 0.8"/>
      </g>
     </g>
     <g id="text_13">
      <!-- 80 -->
      <g style="fill: #222831" transform="translate(23.2 76.00475) scale(0.12 -0.12)">
       <defs>
        <path id="NotoSansCJKjp-Regular-19" d="M 1792 -83 
C 2669 -83 3258 448 3258 1126 
C 3258 1773 2880 2125 2470 2362 
L 2470 2394 
C 2746 2611 3091 3034 3091 3526 
C 3091 4250 2605 4762 1805 4762 
C 1075 4762 518 4282 518 3571 
C 518 3078 813 2726 1152 2490 
L 1152 2464 
C 723 2234 294 1792 294 1165 
C 294 442 922 -83 1792 -83 
z
M 2112 2547 
C 1555 2765 1050 3014 1050 3571 
C 1050 4026 1363 4326 1798 4326 
C 2298 4326 2592 3962 2592 3494 
C 2592 3149 2426 2829 2112 2547 
z
M 1798 352 
C 1235 352 813 717 813 1216 
C 813 1664 1082 2035 1459 2278 
C 2125 2010 2701 1779 2701 1146 
C 2701 678 2342 352 1798 352 
z
" transform="scale(0.015625)"/>
       </defs>
       <use xlink:href="#NotoSansCJKjp-Regular-19"/>
       <use xlink:href="#NotoSansCJKjp-Regular-11" transform="translate(55.5 0)"/>
      </g>
     </g>
    </g>
    <g id="text_14">
     <!-- 數值 -->
     <g style="fill: #222831" transform="translate(17.76 188.5335) rotate(-90) scale(0.12 -0.12)">
      <defs>
       <path id="NotoSansCJKjp-Regular-4e26" d="M 4352 3744 
L 5318 3744 
C 5216 2957 5062 2266 4826 1677 
C 4595 2266 4442 2944 4333 3661 
L 4352 3744 
z
M 256 4301 
L 256 3936 
L 698 3936 
L 698 3245 
L 1741 3245 
L 1741 2950 
L 538 2950 
L 538 1882 
L 1485 1882 
L 1274 1478 
L 262 1472 
L 275 1088 
L 1069 1094 
C 928 845 787 608 666 422 
L 1062 307 
L 1171 486 
C 1389 403 1606 314 1818 218 
C 1459 32 998 -83 416 -154 
C 493 -256 570 -410 602 -538 
C 1293 -416 1837 -250 2246 13 
C 2522 -128 2765 -275 2957 -410 
L 3264 -102 
C 3078 19 2848 154 2586 282 
C 2816 512 2976 794 3072 1133 
L 3750 1152 
L 3763 1510 
L 1734 1485 
L 1939 1882 
L 3424 1882 
L 3424 2419 
C 3526 2336 3648 2221 3706 2157 
C 3834 2362 3949 2592 4051 2848 
C 4179 2221 4346 1645 4563 1146 
C 4256 614 3853 192 3309 -134 
C 3392 -224 3539 -429 3584 -525 
C 4090 -198 4486 192 4794 666 
C 5075 166 5414 -237 5850 -518 
C 5920 -403 6067 -224 6176 -141 
C 5709 141 5350 582 5062 1133 
C 5421 1843 5638 2707 5779 3744 
L 6144 3744 
L 6144 4186 
L 4467 4186 
C 4550 4544 4621 4922 4678 5306 
L 4211 5376 
C 4070 4339 3827 3315 3424 2618 
L 3424 2950 
L 2163 2950 
L 2163 3245 
L 3277 3245 
L 3277 3936 
L 3731 3936 
L 3731 4301 
L 3277 4301 
L 3277 4986 
L 2163 4986 
L 2163 5376 
L 1741 5376 
L 1741 4986 
L 698 4986 
L 698 4301 
L 256 4301 
z
M 1101 4646 
L 1741 4646 
L 1741 4282 
L 1101 4282 
L 1101 4646 
z
M 1741 3578 
L 1101 3578 
L 1101 3955 
L 1741 3955 
L 1741 3578 
z
M 2163 4646 
L 2848 4646 
L 2848 4282 
L 2163 4282 
L 2163 4646 
z
M 2163 3578 
L 2163 3955 
L 2848 3955 
L 2848 3578 
L 2163 3578 
z
M 947 2624 
L 1741 2624 
L 1741 2202 
L 947 2202 
L 947 2624 
z
M 2163 2624 
L 3002 2624 
L 3002 2202 
L 2163 2202 
L 2163 2624 
z
M 1530 1107 
L 2630 1126 
C 2534 864 2387 646 2189 467 
C 1920 589 1632 704 1357 800 
L 1530 1107 
z
" transform="scale(0.015625)"/>
       <path id="NotoSansCJKjp-Regular-286c" d="M 3834 5376 
C 3814 5184 3782 4954 3750 4723 
L 2106 4723 
L 2106 4294 
L 3674 4294 
C 3635 4077 3597 3872 3552 3699 
L 2445 3699 
L 2445 90 
L 1830 90 
L 1830 -326 
L 6131 -326 
L 6131 90 
L 5562 90 
L 5562 3699 
L 3987 3699 
C 4038 3872 4090 4077 4134 4294 
L 5939 4294 
L 5939 4723 
L 4230 4723 
L 4346 5344 
L 3834 5376 
z
M 2880 90 
L 2880 621 
L 5114 621 
L 5114 90 
L 2880 90 
z
M 2880 2426 
L 5114 2426 
L 5114 1875 
L 2880 1875 
L 2880 2426 
z
M 2880 2784 
L 2880 3322 
L 5114 3322 
L 5114 2784 
L 2880 2784 
z
M 2880 1530 
L 5114 1530 
L 5114 973 
L 2880 973 
L 2880 1530 
z
M 1690 5370 
C 1350 4397 794 3443 205 2816 
C 288 2701 422 2451 474 2342 
C 659 2547 845 2784 1018 3040 
L 1018 -512 
L 1466 -512 
L 1466 3770 
C 1722 4230 1946 4730 2131 5229 
L 1690 5370 
z
" transform="scale(0.015625)"/>
      </defs>
      <use xlink:href="#NotoSansCJKjp-Regular-4e26"/>
      <use xlink:href="#NotoSansCJKjp-Regular-286c" transform="translate(100 0)"/>
     </g>
    </g>
   </g>
   <g id="patch_3">
    <path d="M 43.52 181.521372 
L 407.399063 181.521372 
L 407.399063 171.545628 
L 43.52 171.545628 
z
" clip-path="url(#p3402d8dc3b)" style="fill: #1f6feb; opacity: 0.1; stroke: #1f6feb; stroke-linejoin: miter"/>
   </g>
   <g id="patch_4">
    <path d="M 68.87223 352.881417 
L 101.680998 352.881417 
L 101.680998 183.587417 
L 68.87223 183.587417 
z
" clip-path="url(#p3402d8dc3b)" style="fill: #1f6feb; opacity: 0.3"/>
   </g>
   <g id="patch_5">
    <path d="M 128.524535 352.881417 
L 161.333303 352.881417 
L 161.333303 180.060458 
L 128.524535 180.060458 
z
" clip-path="url(#p3402d8dc3b)" style="fill: #1f6feb; opacity: 0.3"/>
   </g>
   <g id="patch_6">
    <path d="M 188.17684 352.881417 
L 220.985608 352.881417 
L 220.985608 176.5335 
L 188.17684 176.5335 
z
" clip-path="url(#p3402d8dc3b)" style="fill: #1f6feb; opacity: 0.3"/>
   </g>
   <g id="patch_7">
    <path d="M 247.829146 352.881417 
L 280.637914 352.881417 
L 280.637914 173.006542 
L 247.829146 173.006542 
z
" clip-path="url(#p3402d8dc3b)" style="fill: #1f6feb; opacity: 0.3"/>
   </g>
   <g id="patch_8">
    <path d="M 307.481451 352.881417 
L 340.290219 352.881417 
L 340.290219 169.479583 
L 307.481451 169.479583 
z
" clip-path="url(#p3402d8dc3b)" style="fill: #1f6feb; opacity: 0.3"/>
   </g>
   <g id="patch_9">
    <path d="M 43.52 282.34225 
L 43.52 70.72475 
" style="fill: none; stroke: #222831; stroke-width: 1.1; stroke-linejoin: miter; stroke-linecap: square"/>
   </g>
   <g id="patch_10">
    <path d="M 43.52 282.34225 
L 407.399063 282.34225 
" style="fill: none; stroke: #222831; stroke-width: 1.1; stroke-linejoin: miter; stroke-linecap: square"/>
   </g>
   <g id="line2d_25">
    <path d="M 43.52 176.5335 
L 407.399063 176.5335 
" clip-path="url(#p3402d8dc3b)" style="fill: none; stroke: #222831; stroke-width: 1.8; stroke-linecap: square"/>
   </g>
   <g id="text_15">
    <!-- 平均 50 -->
    <g style="fill: #222831" transform="translate(344.764142 180.7135) scale(0.11 -0.11)">
     <defs>
      <path id="NotoSansCJKjp-Regular-41d6" d="M 1114 4032 
C 1363 3558 1613 2938 1702 2554 
L 2157 2714 
C 2067 3085 1805 3699 1549 4160 
L 1114 4032 
z
M 4832 4192 
C 4672 3725 4378 3072 4134 2669 
L 4550 2534 
C 4800 2918 5101 3533 5338 4051 
L 4832 4192 
z
M 333 2227 
L 333 1747 
L 2938 1747 
L 2938 -506 
L 3437 -506 
L 3437 1747 
L 6074 1747 
L 6074 2227 
L 3437 2227 
L 3437 4467 
L 5715 4467 
L 5715 4947 
L 672 4947 
L 672 4467 
L 2938 4467 
L 2938 2227 
L 333 2227 
z
" transform="scale(0.015625)"/>
      <path id="NotoSansCJKjp-Regular-33ef" d="M 2803 3021 
L 2803 2579 
L 4794 2579 
L 4794 3021 
L 2803 3021 
z
M 2509 954 
L 2707 506 
C 3334 742 4173 1075 4954 1389 
L 4870 1805 
C 4000 1478 3091 1146 2509 954 
z
M 3245 5376 
C 3002 4480 2586 3610 2054 3053 
C 2176 2982 2381 2835 2477 2746 
C 2726 3046 2970 3430 3181 3853 
L 5542 3853 
C 5459 1254 5357 269 5152 51 
C 5075 -32 5005 -58 4877 -51 
C 4723 -51 4326 -51 3898 -13 
C 3981 -154 4045 -358 4058 -499 
C 4442 -518 4838 -531 5062 -506 
C 5293 -486 5440 -429 5587 -237 
C 5843 77 5939 1101 6029 4058 
C 6035 4128 6035 4314 6035 4314 
L 3392 4314 
C 3526 4621 3635 4941 3731 5267 
L 3245 5376 
z
M 218 1030 
L 390 550 
C 986 794 1773 1126 2509 1440 
L 2406 1894 
L 1606 1568 
L 1606 3430 
L 2362 3430 
L 2362 3885 
L 1606 3885 
L 1606 5338 
L 1139 5338 
L 1139 3885 
L 333 3885 
L 333 3430 
L 1139 3430 
L 1139 1382 
C 794 1248 474 1120 218 1030 
z
" transform="scale(0.015625)"/>
      <path id="NotoSansCJKjp-Regular-1" transform="scale(0.015625)"/>
     </defs>
     <use xlink:href="#NotoSansCJKjp-Regular-41d6"/>
     <use xlink:href="#NotoSansCJKjp-Regular-33ef" transform="translate(100 0)"/>
     <use xlink:href="#NotoSansCJKjp-Regular-1" transform="translate(200 0)"/>
     <use xlink:href="#NotoSansCJKjp-Regular-16" transform="translate(222.40625 0)"/>
     <use xlink:href="#NotoSansCJKjp-Regular-11" transform="translate(277.90625 0)"/>
    </g>
   </g>
   <g id="line2d_26">
    <path d="M 43.52 171.545628 
L 407.399063 171.545628 
" clip-path="url(#p3402d8dc3b)" style="fill: none; stroke-dasharray: 4.44,1.92; stroke-dashoffset: 0; stroke: #1f6feb; stroke-width: 1.2"/>
   </g>
   <g id="line2d_27">
    <path d="M 43.52 181.521372 
L 407.399063 181.521372 
" clip-path="url(#p3402d8dc3b)" style="fill: none; stroke-dasharray: 4.44,1.92; stroke-dashoffset: 0; stroke: #1f6feb; stroke-width: 1.2"/>
   </g>
   <g id="text_16">
    <!-- 標準差 σ = 1.4 -->
    <g style="fill: #1f6feb" transform="translate(61.415692 164.87519) scale(0.115 -0.115)">
     <defs>
      <path id="NotoSansCJKjp-Regular-5605" d="M 2810 2330 
L 2810 1958 
L 5818 1958 
L 5818 2330 
L 2810 2330 
z
M 4947 710 
C 5267 403 5651 -26 5830 -294 
L 6189 -38 
C 6003 237 5613 640 5286 934 
L 4947 710 
z
M 3149 954 
C 2938 634 2541 243 2170 0 
C 2272 -77 2400 -198 2470 -288 
C 2861 -26 3264 365 3514 749 
L 3149 954 
z
M 2643 4250 
L 2643 2714 
L 5984 2714 
L 5984 4250 
L 4966 4250 
L 4966 4698 
L 6144 4698 
L 6144 5094 
L 2438 5094 
L 2438 4698 
L 3590 4698 
L 3590 4250 
L 2643 4250 
z
M 3981 4698 
L 4570 4698 
L 4570 4250 
L 3981 4250 
L 3981 4698 
z
M 2406 1498 
L 2406 1094 
L 4038 1094 
L 4038 -32 
C 4038 -96 4019 -115 3936 -122 
C 3859 -128 3622 -128 3309 -115 
C 3373 -237 3437 -397 3456 -518 
C 3859 -518 4115 -512 4282 -448 
C 4448 -378 4486 -256 4486 -38 
L 4486 1094 
L 6144 1094 
L 6144 1498 
L 2406 1498 
z
M 3046 3872 
L 3622 3872 
L 3622 3085 
L 3046 3085 
L 3046 3872 
z
M 3974 3872 
L 4570 3872 
L 4570 3085 
L 3974 3085 
L 3974 3872 
z
M 4928 3872 
L 5562 3872 
L 5562 3085 
L 4928 3085 
L 4928 3872 
z
M 1229 5376 
L 1229 3987 
L 333 3987 
L 333 3539 
L 1178 3539 
C 992 2669 602 1658 198 1120 
C 275 1011 390 832 442 704 
C 736 1120 1011 1792 1229 2483 
L 1229 -506 
L 1670 -506 
L 1670 2528 
C 1862 2214 2086 1818 2176 1606 
L 2438 1965 
C 2330 2144 1843 2874 1670 3098 
L 1670 3539 
L 2394 3539 
L 2394 3987 
L 1670 3987 
L 1670 5376 
L 1229 5376 
z
" transform="scale(0.015625)"/>
      <path id="NotoSansCJKjp-Regular-5d96" d="M 736 5011 
C 1082 4870 1530 4646 1760 4480 
L 2010 4858 
C 1779 5011 1331 5222 979 5344 
L 736 5011 
z
M 256 3942 
C 608 3821 1062 3616 1299 3469 
L 1536 3846 
C 1299 3994 845 4179 493 4282 
L 256 3942 
z
M 435 1907 
L 774 1536 
C 1165 1952 1594 2451 1958 2899 
L 1702 3226 
C 1286 2739 781 2221 435 1907 
z
M 339 1184 
L 339 742 
L 2931 742 
L 2931 -518 
L 3424 -518 
L 3424 742 
L 6086 742 
L 6086 1184 
L 3424 1184 
L 3424 1709 
L 2931 1709 
L 2931 1184 
L 339 1184 
z
M 4224 5376 
C 4147 5171 4019 4902 3891 4672 
L 3002 4672 
C 3123 4864 3232 5062 3328 5267 
L 2867 5408 
C 2579 4774 2086 4160 1568 3763 
C 1677 3686 1869 3520 1946 3430 
C 2086 3552 2234 3693 2374 3846 
L 2374 1747 
L 5978 1747 
L 5978 2144 
L 4339 2144 
L 4339 2624 
L 5626 2624 
L 5626 2989 
L 4339 2989 
L 4339 3450 
L 5613 3450 
L 5613 3814 
L 4339 3814 
L 4339 4282 
L 5798 4282 
L 5798 4672 
L 4378 4672 
C 4499 4858 4621 5069 4742 5274 
L 4224 5376 
z
M 2842 4282 
L 3885 4282 
L 3885 3814 
L 2842 3814 
L 2842 4282 
z
M 2842 2144 
L 2842 2624 
L 3885 2624 
L 3885 2144 
L 2842 2144 
z
M 2842 3450 
L 3885 3450 
L 3885 2989 
L 2842 2989 
L 2842 3450 
z
" transform="scale(0.015625)"/>
      <path id="NotoSansCJKjp-Regular-4110" d="M 4422 5389 
C 4320 5133 4115 4768 3949 4538 
L 4019 4512 
L 2349 4512 
L 2451 4557 
C 2362 4787 2144 5114 1933 5357 
L 1523 5190 
C 1683 4992 1850 4723 1952 4512 
L 646 4512 
L 646 4090 
L 2944 4090 
L 2944 3526 
L 960 3526 
L 960 3117 
L 2944 3117 
L 2944 2541 
L 358 2541 
L 358 2106 
L 1658 2106 
C 1421 1114 954 314 250 -179 
C 365 -256 563 -429 653 -518 
C 1382 64 1901 960 2182 2106 
L 6042 2106 
L 6042 2541 
L 3437 2541 
L 3437 3117 
L 5478 3117 
L 5478 3526 
L 3437 3526 
L 3437 4090 
L 5798 4090 
L 5798 4512 
L 4442 4512 
C 4595 4717 4774 4986 4928 5235 
L 4422 5389 
z
M 2163 1619 
L 2163 1197 
L 3462 1197 
L 3462 70 
L 1549 70 
L 1549 -352 
L 5914 -352 
L 5914 70 
L 3949 70 
L 3949 1197 
L 5485 1197 
L 5485 1619 
L 2163 1619 
z
" transform="scale(0.015625)"/>
      <path id="NotoSansCJKjp-Regular-12b" d="M 1888 -83 
C 2739 -83 3405 544 3405 1626 
C 3405 2278 3142 2765 2720 3008 
L 2720 3034 
C 3104 3027 3424 3008 3814 2976 
L 3814 3475 
L 1914 3475 
C 1094 3475 333 2918 333 1696 
C 333 550 1043 -83 1888 -83 
z
M 1888 403 
C 1338 403 934 896 934 1696 
C 934 2573 1350 2989 1901 2989 
C 2496 2989 2835 2374 2835 1670 
C 2835 890 2445 403 1888 403 
z
" transform="scale(0.015625)"/>
      <path id="NotoSansCJKjp-Regular-1e" d="M 243 2912 
L 3315 2912 
L 3315 3347 
L 243 3347 
L 243 2912 
z
M 243 1376 
L 3315 1376 
L 3315 1811 
L 243 1811 
L 243 1376 
z
" transform="scale(0.015625)"/>
      <path id="NotoSansCJKjp-Regular-f6b2" d="M 563 0 
L 3136 0 
L 3136 486 
L 2195 486 
L 2195 4563 
L 1747 4563 
C 1491 4410 1190 4301 774 4224 
L 774 3853 
L 1613 3853 
L 1613 486 
L 563 486 
L 563 0 
z
" transform="scale(0.015625)"/>
      <path id="NotoSansCJKjp-Regular-f" d="M 890 -83 
C 1120 -83 1312 96 1312 358 
C 1312 627 1120 806 890 806 
C 653 806 467 627 467 358 
C 467 96 653 -83 890 -83 
z
" transform="scale(0.015625)"/>
      <path id="NotoSansCJKjp-Regular-f6b5" d="M 2176 0 
L 2726 0 
L 2726 1261 
L 3354 1261 
L 3354 1728 
L 2726 1728 
L 2726 4563 
L 2080 4563 
L 128 1645 
L 128 1261 
L 2176 1261 
L 2176 0 
z
M 2176 1728 
L 736 1728 
L 1805 3290 
C 1939 3520 2067 3718 2182 3936 
L 2208 3936 
C 2195 3699 2176 3296 2176 3066 
L 2176 1728 
z
" transform="scale(0.015625)"/>
     </defs>
     <use xlink:href="#NotoSansCJKjp-Regular-5605"/>
     <use xlink:href="#NotoSansCJKjp-Regular-5d96" transform="translate(100 0)"/>
     <use xlink:href="#NotoSansCJKjp-Regular-4110" transform="translate(200 0)"/>
     <use xlink:href="#NotoSansCJKjp-Regular-1" transform="translate(300 0)"/>
     <use xlink:href="#NotoSansCJKjp-Regular-12b" transform="translate(322.40625 0)"/>
     <use xlink:href="#NotoSansCJKjp-Regular-1" transform="translate(383.3125 0)"/>
     <use xlink:href="#NotoSansCJKjp-Regular-1e" transform="translate(405.71875 0)"/>
     <use xlink:href="#NotoSansCJKjp-Regular-1" transform="translate(461.21875 0)"/>
     <use xlink:href="#NotoSansCJKjp-Regular-f6b2" transform="translate(483.625 0)"/>
     <use xlink:href="#NotoSansCJKjp-Regular-f" transform="translate(539.125 0)"/>
     <use xlink:href="#NotoSansCJKjp-Regular-f6b5" transform="translate(566.921875 0)"/>
    </g>
   </g>
   <g id="text_17">
    <!-- 甲組：集中 -->
    <g style="fill: #1f6feb" transform="translate(194.209531 64.72475) scale(0.125 -0.125)">
     <defs>
      <path id="NotoSansCJKjp-Regular-69bb" d="M 2957 4512 
L 2957 3450 
L 1299 3450 
L 1299 4512 
L 2957 4512 
z
M 3462 4512 
L 5101 4512 
L 5101 3450 
L 3462 3450 
L 3462 4512 
z
M 2957 2995 
L 2957 1952 
L 1299 1952 
L 1299 2995 
L 2957 2995 
z
M 3462 2995 
L 5101 2995 
L 5101 1952 
L 3462 1952 
L 3462 2995 
z
M 806 4973 
L 806 1139 
L 1299 1139 
L 1299 1491 
L 2957 1491 
L 2957 -512 
L 3462 -512 
L 3462 1491 
L 5101 1491 
L 5101 1158 
L 5613 1158 
L 5613 4973 
L 806 4973 
z
" transform="scale(0.015625)"/>
      <path id="NotoSansCJKjp-Regular-78dd" d="M 1984 1626 
C 2157 1235 2330 717 2387 378 
L 2784 512 
C 2714 845 2528 1357 2342 1747 
L 1984 1626 
z
M 582 1715 
C 506 1152 378 582 160 192 
C 269 154 454 64 544 6 
C 749 416 909 1037 992 1645 
L 582 1715 
z
M 3578 2957 
L 5216 2957 
L 5216 1779 
L 3578 1779 
L 3578 2957 
z
M 3578 3398 
L 3578 4576 
L 5216 4576 
L 5216 3398 
L 3578 3398 
z
M 3578 1338 
L 5216 1338 
L 5216 109 
L 3578 109 
L 3578 1338 
z
M 2438 109 
L 2438 -326 
L 6189 -326 
L 6189 109 
L 5696 109 
L 5696 5018 
L 3117 5018 
L 3117 109 
L 2438 109 
z
M 230 2515 
L 269 2080 
L 1318 2138 
L 1318 -525 
L 1754 -525 
L 1754 2163 
L 2310 2195 
C 2362 2061 2406 1933 2438 1824 
L 2816 2003 
C 2720 2355 2445 2899 2176 3315 
L 1818 3162 
C 1926 2989 2035 2784 2131 2586 
L 1107 2547 
C 1555 3098 2061 3853 2445 4467 
L 2022 4646 
C 1843 4301 1600 3878 1331 3469 
C 1235 3603 1094 3763 947 3910 
C 1184 4269 1459 4781 1677 5210 
L 1248 5376 
C 1114 5018 883 4538 678 4173 
L 480 4346 
L 243 4026 
C 544 3757 883 3392 1082 3098 
C 941 2893 794 2694 653 2528 
L 230 2515 
z
" transform="scale(0.015625)"/>
      <path id="NotoSansCJKjp-Regular-e6c0" d="M 3200 3482 
C 3456 3482 3686 3667 3686 3962 
C 3686 4256 3456 4442 3200 4442 
C 2944 4442 2714 4256 2714 3962 
C 2714 3667 2944 3482 3200 3482 
z
M 3200 346 
C 3456 346 3686 538 3686 826 
C 3686 1120 3456 1312 3200 1312 
C 2944 1312 2714 1120 2714 826 
C 2714 538 2944 346 3200 346 
z
" transform="scale(0.015625)"/>
      <path id="NotoSansCJKjp-Regular-a957" d="M 1696 5389 
C 1414 4800 890 4058 173 3494 
C 282 3424 442 3283 518 3174 
C 736 3354 934 3546 1114 3744 
L 1114 1856 
L 2944 1856 
L 2944 1459 
L 346 1459 
L 346 1056 
L 2541 1056 
C 1926 589 992 166 186 -38 
C 294 -141 429 -320 506 -442 
C 1325 -186 2285 301 2944 864 
L 2944 -506 
L 3424 -506 
L 3424 883 
C 4077 333 5050 -147 5888 -390 
C 5958 -269 6093 -96 6195 6 
C 5389 198 4461 602 3846 1056 
L 6061 1056 
L 6061 1459 
L 3424 1459 
L 3424 1856 
L 5888 1856 
L 5888 2240 
L 3533 2240 
L 3533 2682 
L 5395 2682 
L 5395 3027 
L 3533 3027 
L 3533 3456 
L 5376 3456 
L 5376 3802 
L 3533 3802 
L 3533 4224 
L 5638 4224 
L 5638 4621 
L 3526 4621 
C 3654 4826 3789 5069 3904 5306 
L 3366 5376 
C 3296 5158 3162 4864 3034 4621 
L 1798 4621 
C 1946 4851 2080 5075 2195 5293 
L 1696 5389 
z
M 3072 3456 
L 3072 3027 
L 1574 3027 
L 1574 3456 
L 3072 3456 
z
M 3072 3802 
L 1574 3802 
L 1574 4224 
L 3072 4224 
L 3072 3802 
z
M 3072 2682 
L 3072 2240 
L 1574 2240 
L 1574 2682 
L 3072 2682 
z
" transform="scale(0.015625)"/>
      <path id="NotoSansCJKjp-Regular-2548" d="M 2931 5376 
L 2931 4230 
L 614 4230 
L 614 1190 
L 1094 1190 
L 1094 1587 
L 2931 1587 
L 2931 -506 
L 3437 -506 
L 3437 1587 
L 5280 1587 
L 5280 1222 
L 5773 1222 
L 5773 4230 
L 3437 4230 
L 3437 5376 
L 2931 5376 
z
M 1094 2061 
L 1094 3763 
L 2931 3763 
L 2931 2061 
L 1094 2061 
z
M 5280 2061 
L 3437 2061 
L 3437 3763 
L 5280 3763 
L 5280 2061 
z
" transform="scale(0.015625)"/>
     </defs>
     <use xlink:href="#NotoSansCJKjp-Regular-69bb"/>
     <use xlink:href="#NotoSansCJKjp-Regular-78dd" transform="translate(100 0)"/>
     <use xlink:href="#NotoSansCJKjp-Regular-e6c0" transform="translate(200 0)"/>
     <use xlink:href="#NotoSansCJKjp-Regular-a957" transform="translate(300 0)"/>
     <use xlink:href="#NotoSansCJKjp-Regular-2548" transform="translate(400 0)"/>
    </g>
   </g>
   <g id="PathCollection_1">
    <defs>
     <path id="md21370a6e6" d="M 0 3.708099 
C 0.983399 3.708099 1.926654 3.317391 2.622022 2.622022 
C 3.317391 1.926654 3.708099 0.983399 3.708099 0 
C 3.708099 -0.983399 3.317391 -1.926654 2.622022 -2.622022 
C 1.926654 -3.317391 0.983399 -3.708099 0 -3.708099 
C -0.983399 -3.708099 -1.926654 -3.317391 -2.622022 -2.622022 
C -3.317391 -1.926654 -3.708099 -0.983399 -3.708099 0 
C -3.708099 0.983399 -3.317391 1.926654 -2.622022 2.622022 
C -1.926654 3.317391 -0.983399 3.708099 0 3.708099 
z
" style="stroke: #1f6feb"/>
    </defs>
    <g clip-path="url(#p3402d8dc3b)">
     <use xlink:href="#md21370a6e6" x="85.276614" y="183.587417" style="fill: #1f6feb; stroke: #1f6feb"/>
     <use xlink:href="#md21370a6e6" x="144.928919" y="180.060458" style="fill: #1f6feb; stroke: #1f6feb"/>
     <use xlink:href="#md21370a6e6" x="204.581224" y="176.5335" style="fill: #1f6feb; stroke: #1f6feb"/>
     <use xlink:href="#md21370a6e6" x="264.23353" y="173.006542" style="fill: #1f6feb; stroke: #1f6feb"/>
     <use xlink:href="#md21370a6e6" x="323.885835" y="169.479583" style="fill: #1f6feb; stroke: #1f6feb"/>
    </g>
   </g>
  </g>
  <g id="axes_2">
   <g id="patch_11">
    <path d="M 423.859062 282.34225 
L 787.738125 282.34225 
L 787.738125 70.72475 
L 423.859062 70.72475 
z
" style="fill: #ffffff"/>
   </g>
   <g id="matplotlib.axis_3">
    <g id="xtick_6">
     <g id="line2d_28">
      <path d="M 465.615676 282.34225 
L 465.615676 70.72475 
" clip-path="url(#p838653f827)" style="fill: none; stroke: #d8dde3; stroke-width: 0.9; stroke-linecap: square"/>
     </g>
     <g id="line2d_29">
      <g>
       <use xlink:href="#ma6f5656046" x="465.615676" y="282.34225" style="fill: #222831; stroke: #222831; stroke-width: 0.8"/>
      </g>
     </g>
     <g id="text_18">
      <!-- 1 -->
      <g style="fill: #222831" transform="translate(462.285676 299.90225) scale(0.12 -0.12)">
       <use xlink:href="#NotoSansCJKjp-Regular-12"/>
      </g>
     </g>
    </g>
    <g id="xtick_7">
     <g id="line2d_30">
      <path d="M 525.267982 282.34225 
L 525.267982 70.72475 
" clip-path="url(#p838653f827)" style="fill: none; stroke: #d8dde3; stroke-width: 0.9; stroke-linecap: square"/>
     </g>
     <g id="line2d_31">
      <g>
       <use xlink:href="#ma6f5656046" x="525.267982" y="282.34225" style="fill: #222831; stroke: #222831; stroke-width: 0.8"/>
      </g>
     </g>
     <g id="text_19">
      <!-- 2 -->
      <g style="fill: #222831" transform="translate(521.937982 299.90225) scale(0.12 -0.12)">
       <use xlink:href="#NotoSansCJKjp-Regular-13"/>
      </g>
     </g>
    </g>
    <g id="xtick_8">
     <g id="line2d_32">
      <path d="M 584.920287 282.34225 
L 584.920287 70.72475 
" clip-path="url(#p838653f827)" style="fill: none; stroke: #d8dde3; stroke-width: 0.9; stroke-linecap: square"/>
     </g>
     <g id="line2d_33">
      <g>
       <use xlink:href="#ma6f5656046" x="584.920287" y="282.34225" style="fill: #222831; stroke: #222831; stroke-width: 0.8"/>
      </g>
     </g>
     <g id="text_20">
      <!-- 3 -->
      <g style="fill: #222831" transform="translate(581.590287 299.90225) scale(0.12 -0.12)">
       <use xlink:href="#NotoSansCJKjp-Regular-14"/>
      </g>
     </g>
    </g>
    <g id="xtick_9">
     <g id="line2d_34">
      <path d="M 644.572592 282.34225 
L 644.572592 70.72475 
" clip-path="url(#p838653f827)" style="fill: none; stroke: #d8dde3; stroke-width: 0.9; stroke-linecap: square"/>
     </g>
     <g id="line2d_35">
      <g>
       <use xlink:href="#ma6f5656046" x="644.572592" y="282.34225" style="fill: #222831; stroke: #222831; stroke-width: 0.8"/>
      </g>
     </g>
     <g id="text_21">
      <!-- 4 -->
      <g style="fill: #222831" transform="translate(641.242592 299.90225) scale(0.12 -0.12)">
       <use xlink:href="#NotoSansCJKjp-Regular-15"/>
      </g>
     </g>
    </g>
    <g id="xtick_10">
     <g id="line2d_36">
      <path d="M 704.224898 282.34225 
L 704.224898 70.72475 
" clip-path="url(#p838653f827)" style="fill: none; stroke: #d8dde3; stroke-width: 0.9; stroke-linecap: square"/>
     </g>
     <g id="line2d_37">
      <g>
       <use xlink:href="#ma6f5656046" x="704.224898" y="282.34225" style="fill: #222831; stroke: #222831; stroke-width: 0.8"/>
      </g>
     </g>
     <g id="text_22">
      <!-- 5 -->
      <g style="fill: #222831" transform="translate(700.894898 299.90225) scale(0.12 -0.12)">
       <use xlink:href="#NotoSansCJKjp-Regular-16"/>
      </g>
     </g>
    </g>
    <g id="text_23">
     <!-- 資料編號 -->
     <g style="fill: #222831" transform="translate(581.798594 315.90225) scale(0.12 -0.12)">
      <use xlink:href="#NotoSansCJKjp-Regular-97b2"/>
      <use xlink:href="#NotoSansCJKjp-Regular-4e62" transform="translate(100 0)"/>
      <use xlink:href="#NotoSansCJKjp-Regular-7a34" transform="translate(200 0)"/>
      <use xlink:href="#NotoSansCJKjp-Regular-8c1b" transform="translate(300 0)"/>
     </g>
    </g>
   </g>
   <g id="matplotlib.axis_4">
    <g id="ytick_8">
     <g id="line2d_38">
      <path d="M 423.859062 282.34225 
L 787.738125 282.34225 
" clip-path="url(#p838653f827)" style="fill: none; stroke: #d8dde3; stroke-width: 0.9; stroke-linecap: square"/>
     </g>
     <g id="line2d_39">
      <g>
       <use xlink:href="#m32d77f8573" x="423.859062" y="282.34225" style="fill: #222831; stroke: #222831; stroke-width: 0.8"/>
      </g>
     </g>
    </g>
    <g id="ytick_9">
     <g id="line2d_40">
      <path d="M 423.859062 247.072667 
L 787.738125 247.072667 
" clip-path="url(#p838653f827)" style="fill: none; stroke: #d8dde3; stroke-width: 0.9; stroke-linecap: square"/>
     </g>
     <g id="line2d_41">
      <g>
       <use xlink:href="#m32d77f8573" x="423.859062" y="247.072667" style="fill: #222831; stroke: #222831; stroke-width: 0.8"/>
      </g>
     </g>
    </g>
    <g id="ytick_10">
     <g id="line2d_42">
      <path d="M 423.859062 211.803083 
L 787.738125 211.803083 
" clip-path="url(#p838653f827)" style="fill: none; stroke: #d8dde3; stroke-width: 0.9; stroke-linecap: square"/>
     </g>
     <g id="line2d_43">
      <g>
       <use xlink:href="#m32d77f8573" x="423.859062" y="211.803083" style="fill: #222831; stroke: #222831; stroke-width: 0.8"/>
      </g>
     </g>
    </g>
    <g id="ytick_11">
     <g id="line2d_44">
      <path d="M 423.859062 176.5335 
L 787.738125 176.5335 
" clip-path="url(#p838653f827)" style="fill: none; stroke: #d8dde3; stroke-width: 0.9; stroke-linecap: square"/>
     </g>
     <g id="line2d_45">
      <g>
       <use xlink:href="#m32d77f8573" x="423.859062" y="176.5335" style="fill: #222831; stroke: #222831; stroke-width: 0.8"/>
      </g>
     </g>
    </g>
    <g id="ytick_12">
     <g id="line2d_46">
      <path d="M 423.859062 141.263917 
L 787.738125 141.263917 
" clip-path="url(#p838653f827)" style="fill: none; stroke: #d8dde3; stroke-width: 0.9; stroke-linecap: square"/>
     </g>
     <g id="line2d_47">
      <g>
       <use xlink:href="#m32d77f8573" x="423.859062" y="141.263917" style="fill: #222831; stroke: #222831; stroke-width: 0.8"/>
      </g>
     </g>
    </g>
    <g id="ytick_13">
     <g id="line2d_48">
      <path d="M 423.859062 105.994333 
L 787.738125 105.994333 
" clip-path="url(#p838653f827)" style="fill: none; stroke: #d8dde3; stroke-width: 0.9; stroke-linecap: square"/>
     </g>
     <g id="line2d_49">
      <g>
       <use xlink:href="#m32d77f8573" x="423.859062" y="105.994333" style="fill: #222831; stroke: #222831; stroke-width: 0.8"/>
      </g>
     </g>
    </g>
    <g id="ytick_14">
     <g id="line2d_50">
      <path d="M 423.859062 70.72475 
L 787.738125 70.72475 
" clip-path="url(#p838653f827)" style="fill: none; stroke: #d8dde3; stroke-width: 0.9; stroke-linecap: square"/>
     </g>
     <g id="line2d_51">
      <g>
       <use xlink:href="#m32d77f8573" x="423.859062" y="70.72475" style="fill: #222831; stroke: #222831; stroke-width: 0.8"/>
      </g>
     </g>
    </g>
   </g>
   <g id="patch_12">
    <path d="M 423.859062 226.412223 
L 787.738125 226.412223 
L 787.738125 126.654777 
L 423.859062 126.654777 
z
" clip-path="url(#p838653f827)" style="fill: #d1242f; opacity: 0.1; stroke: #d1242f; stroke-linejoin: miter"/>
   </g>
   <g id="patch_13">
    <path d="M 449.211292 352.881417 
L 482.02006 352.881417 
L 482.02006 247.072667 
L 449.211292 247.072667 
z
" clip-path="url(#p838653f827)" style="fill: #d1242f; opacity: 0.3"/>
   </g>
   <g id="patch_14">
    <path d="M 508.863598 352.881417 
L 541.672366 352.881417 
L 541.672366 211.803083 
L 508.863598 211.803083 
z
" clip-path="url(#p838653f827)" style="fill: #d1242f; opacity: 0.3"/>
   </g>
   <g id="patch_15">
    <path d="M 568.515903 352.881417 
L 601.324671 352.881417 
L 601.324671 176.5335 
L 568.515903 176.5335 
z
" clip-path="url(#p838653f827)" style="fill: #d1242f; opacity: 0.3"/>
   </g>
   <g id="patch_16">
    <path d="M 628.168208 352.881417 
L 660.976976 352.881417 
L 660.976976 141.263917 
L 628.168208 141.263917 
z
" clip-path="url(#p838653f827)" style="fill: #d1242f; opacity: 0.3"/>
   </g>
   <g id="patch_17">
    <path d="M 687.820514 352.881417 
L 720.629282 352.881417 
L 720.629282 105.994333 
L 687.820514 105.994333 
z
" clip-path="url(#p838653f827)" style="fill: #d1242f; opacity: 0.3"/>
   </g>
   <g id="patch_18">
    <path d="M 423.859062 282.34225 
L 423.859062 70.72475 
" style="fill: none; stroke: #222831; stroke-width: 1.1; stroke-linejoin: miter; stroke-linecap: square"/>
   </g>
   <g id="patch_19">
    <path d="M 423.859062 282.34225 
L 787.738125 282.34225 
" style="fill: none; stroke: #222831; stroke-width: 1.1; stroke-linejoin: miter; stroke-linecap: square"/>
   </g>
   <g id="line2d_52">
    <path d="M 423.859062 176.5335 
L 787.738125 176.5335 
" clip-path="url(#p838653f827)" style="fill: none; stroke: #222831; stroke-width: 1.8; stroke-linecap: square"/>
   </g>
   <g id="text_24">
    <!-- 平均 50 -->
    <g style="fill: #222831" transform="translate(725.103204 180.7135) scale(0.11 -0.11)">
     <use xlink:href="#NotoSansCJKjp-Regular-41d6"/>
     <use xlink:href="#NotoSansCJKjp-Regular-33ef" transform="translate(100 0)"/>
     <use xlink:href="#NotoSansCJKjp-Regular-1" transform="translate(200 0)"/>
     <use xlink:href="#NotoSansCJKjp-Regular-16" transform="translate(222.40625 0)"/>
     <use xlink:href="#NotoSansCJKjp-Regular-11" transform="translate(277.90625 0)"/>
    </g>
   </g>
   <g id="line2d_53">
    <path d="M 423.859062 126.654777 
L 787.738125 126.654777 
" clip-path="url(#p838653f827)" style="fill: none; stroke-dasharray: 4.44,1.92; stroke-dashoffset: 0; stroke: #d1242f; stroke-width: 1.2"/>
   </g>
   <g id="line2d_54">
    <path d="M 423.859062 226.412223 
L 787.738125 226.412223 
" clip-path="url(#p838653f827)" style="fill: none; stroke-dasharray: 4.44,1.92; stroke-dashoffset: 0; stroke: #d1242f; stroke-width: 1.2"/>
   </g>
   <g id="text_25">
    <!-- 標準差 σ = 14.1 -->
    <g style="fill: #d1242f" transform="translate(441.754754 119.984339) scale(0.115 -0.115)">
     <use xlink:href="#NotoSansCJKjp-Regular-5605"/>
     <use xlink:href="#NotoSansCJKjp-Regular-5d96" transform="translate(100 0)"/>
     <use xlink:href="#NotoSansCJKjp-Regular-4110" transform="translate(200 0)"/>
     <use xlink:href="#NotoSansCJKjp-Regular-1" transform="translate(300 0)"/>
     <use xlink:href="#NotoSansCJKjp-Regular-12b" transform="translate(322.40625 0)"/>
     <use xlink:href="#NotoSansCJKjp-Regular-1" transform="translate(383.3125 0)"/>
     <use xlink:href="#NotoSansCJKjp-Regular-1e" transform="translate(405.71875 0)"/>
     <use xlink:href="#NotoSansCJKjp-Regular-1" transform="translate(461.21875 0)"/>
     <use xlink:href="#NotoSansCJKjp-Regular-f6b2" transform="translate(483.625 0)"/>
     <use xlink:href="#NotoSansCJKjp-Regular-f6b5" transform="translate(539.125 0)"/>
     <use xlink:href="#NotoSansCJKjp-Regular-f" transform="translate(594.625 0)"/>
     <use xlink:href="#NotoSansCJKjp-Regular-f6b2" transform="translate(622.421875 0)"/>
    </g>
   </g>
   <g id="text_26">
    <!-- 乙組：分散 -->
    <g style="fill: #d1242f" transform="translate(574.548594 64.72475) scale(0.125 -0.125)">
     <defs>
      <path id="NotoSansCJKjp-Regular-2581" d="M 608 4851 
L 608 4358 
L 4051 4358 
C 742 1606 576 1126 576 646 
C 576 83 1024 -256 1965 -256 
L 4851 -256 
C 5658 -256 5920 51 6003 1389 
C 5862 1421 5651 1491 5517 1562 
C 5472 467 5350 237 4890 237 
L 1907 237 
C 1414 237 1094 371 1094 685 
C 1094 1024 1312 1491 5088 4563 
C 5133 4589 5165 4614 5190 4640 
L 4851 4877 
L 4736 4851 
L 608 4851 
z
" transform="scale(0.015625)"/>
      <path id="NotoSansCJKjp-Regular-2b86" d="M 2074 5248 
C 1677 4256 966 3373 147 2829 
C 262 2739 474 2554 563 2451 
C 1363 3059 2118 4019 2586 5101 
L 2074 5248 
z
M 4307 5261 
L 3846 5075 
C 4326 4122 5139 3085 5850 2509 
C 5939 2643 6118 2829 6253 2931 
C 5549 3424 4723 4397 4307 5261 
z
M 1197 2957 
L 1197 2490 
L 2509 2490 
C 2368 1402 2010 378 486 -122 
C 595 -224 736 -416 800 -544 
C 2445 51 2854 1216 3027 2490 
L 4685 2490 
C 4608 864 4512 224 4346 58 
C 4282 -6 4205 -26 4077 -26 
C 3923 -26 3533 -19 3110 19 
C 3200 -115 3258 -320 3270 -461 
C 3674 -486 4070 -493 4288 -474 
C 4506 -454 4653 -410 4781 -243 
C 5005 0 5094 736 5190 2726 
C 5197 2790 5197 2957 5197 2957 
L 1197 2957 
z
" transform="scale(0.015625)"/>
      <path id="NotoSansCJKjp-Regular-4e06" d="M 2272 5325 
L 2272 4602 
L 1446 4602 
L 1446 5325 
L 1005 5325 
L 1005 4602 
L 358 4602 
L 358 4198 
L 1005 4198 
L 1005 3437 
L 256 3437 
L 256 3021 
L 3386 3021 
L 3386 3437 
L 2720 3437 
L 2720 4198 
L 3373 4198 
L 3373 4602 
L 2720 4602 
L 2720 5325 
L 2272 5325 
z
M 1446 4198 
L 2272 4198 
L 2272 3437 
L 1446 3437 
L 1446 4198 
z
M 1158 1395 
L 2560 1395 
L 2560 941 
L 1158 941 
L 1158 1395 
z
M 1158 1766 
L 1158 2214 
L 2560 2214 
L 2560 1766 
L 1158 1766 
z
M 710 2592 
L 710 -512 
L 1158 -512 
L 1158 570 
L 2560 570 
L 2560 -6 
C 2560 -77 2541 -102 2464 -102 
C 2387 -109 2138 -109 1862 -96 
C 1920 -211 1984 -384 2003 -499 
C 2394 -499 2650 -499 2810 -435 
C 2970 -358 3014 -237 3014 -13 
L 3014 2592 
L 710 2592 
z
M 4154 3738 
L 5242 3738 
C 5133 2938 4966 2246 4704 1670 
C 4448 2266 4262 2950 4141 3686 
L 4154 3738 
z
M 4026 5376 
C 3872 4294 3590 3232 3130 2547 
C 3232 2458 3398 2253 3462 2150 
C 3616 2381 3757 2650 3878 2944 
C 4019 2298 4205 1696 4442 1178 
C 4109 634 3654 211 3040 -109 
C 3130 -211 3277 -416 3322 -525 
C 3898 -198 4346 205 4691 704 
C 4998 192 5376 -230 5856 -518 
C 5933 -384 6086 -198 6195 -109 
C 5683 166 5280 602 4966 1152 
C 5344 1850 5568 2701 5722 3738 
L 6150 3738 
L 6150 4186 
L 4275 4186 
C 4365 4550 4442 4922 4499 5306 
L 4026 5376 
z
" transform="scale(0.015625)"/>
     </defs>
     <use xlink:href="#NotoSansCJKjp-Regular-2581"/>
     <use xlink:href="#NotoSansCJKjp-Regular-78dd" transform="translate(100 0)"/>
     <use xlink:href="#NotoSansCJKjp-Regular-e6c0" transform="translate(200 0)"/>
     <use xlink:href="#NotoSansCJKjp-Regular-2b86" transform="translate(300 0)"/>
     <use xlink:href="#NotoSansCJKjp-Regular-4e06" transform="translate(400 0)"/>
    </g>
   </g>
   <g id="PathCollection_2">
    <defs>
     <path id="me3b3e9f534" d="M 0 3.708099 
C 0.983399 3.708099 1.926654 3.317391 2.622022 2.622022 
C 3.317391 1.926654 3.708099 0.983399 3.708099 0 
C 3.708099 -0.983399 3.317391 -1.926654 2.622022 -2.622022 
C 1.926654 -3.317391 0.983399 -3.708099 0 -3.708099 
C -0.983399 -3.708099 -1.926654 -3.317391 -2.622022 -2.622022 
C -3.317391 -1.926654 -3.708099 -0.983399 -3.708099 0 
C -3.708099 0.983399 -3.317391 1.926654 -2.622022 2.622022 
C -1.926654 3.317391 -0.983399 3.708099 0 3.708099 
z
" style="stroke: #d1242f"/>
    </defs>
    <g clip-path="url(#p838653f827)">
     <use xlink:href="#me3b3e9f534" x="465.615676" y="247.072667" style="fill: #d1242f; stroke: #d1242f"/>
     <use xlink:href="#me3b3e9f534" x="525.267982" y="211.803083" style="fill: #d1242f; stroke: #d1242f"/>
     <use xlink:href="#me3b3e9f534" x="584.920287" y="176.5335" style="fill: #d1242f; stroke: #d1242f"/>
     <use xlink:href="#me3b3e9f534" x="644.572592" y="141.263917" style="fill: #d1242f; stroke: #d1242f"/>
     <use xlink:href="#me3b3e9f534" x="704.224898" y="105.994333" style="fill: #d1242f; stroke: #d1242f"/>
    </g>
   </g>
  </g>
  <g id="text_27">
   <!-- 平均數相同，標準差量「離散程度」 -->
   <g style="fill: #222831" transform="translate(285.498125 19.52) scale(0.14 -0.14)">
    <defs>
     <path id="NotoSansCJKjp-Regular-6ce8" d="M 3494 3034 
L 5440 3034 
L 5440 1920 
L 3494 1920 
L 3494 3034 
z
M 3494 3469 
L 3494 4544 
L 5440 4544 
L 5440 3469 
L 3494 3469 
z
M 3494 1478 
L 5440 1478 
L 5440 365 
L 3494 365 
L 3494 1478 
z
M 3027 4998 
L 3027 -467 
L 3494 -467 
L 3494 -77 
L 5440 -77 
L 5440 -448 
L 5926 -448 
L 5926 4998 
L 3027 4998 
z
M 1370 5376 
L 1370 4006 
L 333 4006 
L 333 3546 
L 1312 3546 
C 1088 2662 634 1651 186 1120 
C 262 1005 384 813 435 685 
C 781 1126 1120 1837 1370 2573 
L 1370 -506 
L 1837 -506 
L 1837 2419 
C 2080 2106 2368 1709 2490 1498 
L 2784 1888 
C 2643 2061 2061 2746 1837 2970 
L 1837 3546 
L 2752 3546 
L 2752 4006 
L 1837 4006 
L 1837 5376 
L 1370 5376 
z
" transform="scale(0.015625)"/>
     <path id="NotoSansCJKjp-Regular-2eb1" d="M 1587 3917 
L 1587 3501 
L 4838 3501 
L 4838 3917 
L 1587 3917 
z
M 2355 2419 
L 4045 2419 
L 4045 1203 
L 2355 1203 
L 2355 2419 
z
M 1914 2829 
L 1914 326 
L 2355 326 
L 2355 794 
L 4493 794 
L 4493 2829 
L 1914 2829 
z
M 563 5043 
L 563 -525 
L 1030 -525 
L 1030 4589 
L 5376 4589 
L 5376 102 
C 5376 -13 5338 -51 5222 -58 
C 5114 -58 4742 -64 4339 -51 
C 4416 -173 4486 -390 4512 -518 
C 5062 -518 5389 -506 5581 -429 
C 5779 -352 5850 -198 5850 96 
L 5850 5043 
L 563 5043 
z
" transform="scale(0.015625)"/>
     <path id="NotoSansCJKjp-Regular-e6b2" d="M 1005 -685 
C 1677 -448 2112 77 2112 768 
C 2112 1216 1920 1504 1568 1504 
C 1306 1504 1082 1344 1082 1043 
C 1082 742 1299 589 1562 589 
L 1670 602 
C 1638 160 1357 -141 864 -346 
L 1005 -685 
z
" transform="scale(0.015625)"/>
     <path id="NotoSansCJKjp-Regular-a108" d="M 1600 4256 
L 4781 4256 
L 4781 3904 
L 1600 3904 
L 1600 4256 
z
M 1600 4883 
L 4781 4883 
L 4781 4538 
L 1600 4538 
L 1600 4883 
z
M 1133 5171 
L 1133 3616 
L 5261 3616 
L 5261 5171 
L 1133 5171 
z
M 333 3341 
L 333 2976 
L 6074 2976 
L 6074 3341 
L 333 3341 
z
M 1472 1747 
L 2957 1747 
L 2957 1376 
L 1472 1376 
L 1472 1747 
z
M 3424 1747 
L 4973 1747 
L 4973 1376 
L 3424 1376 
L 3424 1747 
z
M 1472 2387 
L 2957 2387 
L 2957 2029 
L 1472 2029 
L 1472 2387 
z
M 3424 2387 
L 4973 2387 
L 4973 2029 
L 3424 2029 
L 3424 2387 
z
M 301 19 
L 301 -352 
L 6112 -352 
L 6112 19 
L 3424 19 
L 3424 390 
L 5587 390 
L 5587 730 
L 3424 730 
L 3424 1082 
L 5446 1082 
L 5446 2688 
L 1018 2688 
L 1018 1082 
L 2957 1082 
L 2957 730 
L 838 730 
L 838 390 
L 2957 390 
L 2957 19 
L 301 19 
z
" transform="scale(0.015625)"/>
     <path id="NotoSansCJKjp-Regular-580" d="M 4160 5414 
L 4160 1274 
L 4634 1274 
L 4634 4973 
L 6182 4973 
L 6182 5414 
L 4160 5414 
z
" transform="scale(0.015625)"/>
     <path id="NotoSansCJKjp-Regular-a995" d="M 1587 5376 
L 1587 4826 
L 275 4826 
L 275 4429 
L 3373 4429 
L 3373 4826 
L 2054 4826 
L 2054 5376 
L 1587 5376 
z
M 5203 5312 
C 5126 4973 4979 4499 4838 4154 
L 4147 4154 
C 4288 4512 4416 4896 4518 5274 
L 4083 5376 
C 3859 4493 3501 3603 3066 3002 
L 3066 4166 
L 2688 4166 
L 2688 2739 
L 934 2739 
L 934 4166 
L 582 4166 
L 582 2387 
L 1587 2387 
L 1530 1958 
L 403 1958 
L 403 -518 
L 806 -518 
L 806 1587 
L 1466 1587 
C 1414 1286 1350 986 1293 742 
L 960 730 
L 998 378 
L 2342 480 
C 2381 371 2406 269 2426 179 
L 2720 282 
C 2675 557 2496 998 2310 1331 
L 2029 1248 
C 2099 1107 2170 954 2234 800 
L 1645 762 
C 1715 1005 1779 1293 1843 1587 
L 2822 1587 
L 2822 -45 
C 2822 -115 2803 -128 2726 -134 
C 2650 -141 2400 -141 2118 -134 
C 2170 -237 2234 -397 2253 -506 
C 2637 -506 2880 -506 3040 -442 
C 3194 -371 3238 -256 3238 -51 
L 3238 1958 
L 1920 1958 
L 2003 2387 
L 3066 2387 
L 3066 2912 
C 3168 2835 3315 2714 3379 2650 
C 3475 2784 3571 2938 3661 3098 
L 3661 -518 
L 4102 -518 
L 4102 -179 
L 6157 -179 
L 6157 262 
L 5261 262 
L 5261 1152 
L 6035 1152 
L 6035 1568 
L 5261 1568 
L 5261 2445 
L 6035 2445 
L 6035 2854 
L 5261 2854 
L 5261 3718 
L 6093 3718 
L 6093 4154 
L 5267 4154 
C 5402 4467 5542 4858 5664 5203 
L 5203 5312 
z
M 2099 4262 
C 2022 4090 1926 3917 1818 3763 
C 1645 3872 1472 3974 1306 4058 
L 1107 3834 
C 1274 3744 1453 3635 1619 3520 
C 1446 3315 1248 3142 1037 2995 
C 1120 2944 1254 2835 1306 2771 
C 1510 2925 1709 3110 1888 3328 
C 2080 3187 2246 3046 2362 2925 
L 2573 3181 
C 2458 3302 2285 3437 2086 3578 
C 2221 3770 2342 3968 2438 4179 
L 2099 4262 
z
M 4102 2445 
L 4845 2445 
L 4845 1568 
L 4102 1568 
L 4102 2445 
z
M 4102 2854 
L 4102 3718 
L 4845 3718 
L 4845 2854 
L 4102 2854 
z
M 4102 1152 
L 4845 1152 
L 4845 262 
L 4102 262 
L 4102 1152 
z
" transform="scale(0.015625)"/>
     <path id="NotoSansCJKjp-Regular-720a" d="M 3405 4691 
L 5338 4691 
L 5338 3514 
L 3405 3514 
L 3405 4691 
z
M 2957 5107 
L 2957 3098 
L 5805 3098 
L 5805 5107 
L 2957 5107 
z
M 2867 1338 
L 2867 922 
L 4122 922 
L 4122 83 
L 2438 83 
L 2438 -339 
L 6163 -339 
L 6163 83 
L 4595 83 
L 4595 922 
L 5882 922 
L 5882 1338 
L 4595 1338 
L 4595 2112 
L 6022 2112 
L 6022 2534 
L 2720 2534 
L 2720 2112 
L 4122 2112 
L 4122 1338 
L 2867 1338 
z
M 2310 5286 
C 1837 5069 992 4883 275 4762 
C 333 4659 397 4499 416 4397 
C 717 4435 1037 4493 1357 4557 
L 1357 3571 
L 314 3571 
L 314 3123 
L 1293 3123 
C 1037 2387 595 1555 179 1101 
C 262 986 378 794 429 659 
C 755 1056 1094 1690 1357 2336 
L 1357 -499 
L 1830 -499 
L 1830 2259 
C 2048 1990 2304 1645 2413 1466 
L 2701 1843 
C 2573 1990 2016 2566 1830 2726 
L 1830 3123 
L 2630 3123 
L 2630 3571 
L 1830 3571 
L 1830 4666 
C 2131 4736 2413 4819 2643 4915 
L 2310 5286 
z
" transform="scale(0.015625)"/>
     <path id="NotoSansCJKjp-Regular-4231" d="M 2470 4141 
L 2470 3584 
L 1440 3584 
L 1440 3187 
L 2470 3187 
L 2470 2125 
L 4960 2125 
L 4960 3187 
L 5997 3187 
L 5997 3584 
L 4960 3584 
L 4960 4141 
L 4486 4141 
L 4486 3584 
L 2931 3584 
L 2931 4141 
L 2470 4141 
z
M 4486 3187 
L 4486 2509 
L 2931 2509 
L 2931 3187 
L 4486 3187 
z
M 4851 1318 
C 4582 986 4211 717 3770 506 
C 3334 723 2970 992 2720 1318 
L 4851 1318 
z
M 1530 1715 
L 1530 1318 
L 2502 1318 
L 2259 1222 
C 2515 858 2861 550 3270 301 
C 2662 90 1978 -38 1280 -109 
C 1357 -211 1453 -397 1485 -512 
C 2291 -416 3072 -243 3757 45 
C 4365 -237 5088 -422 5869 -525 
C 5933 -403 6048 -211 6150 -109 
C 5466 -38 4819 96 4269 294 
C 4813 608 5261 1024 5549 1574 
L 5248 1734 
L 5165 1715 
L 1530 1715 
z
M 774 4742 
L 774 2893 
C 774 1965 730 659 198 -256 
C 314 -307 512 -435 595 -518 
C 1152 448 1235 1901 1235 2893 
L 1235 4307 
L 6035 4307 
L 6035 4742 
L 3635 4742 
L 3635 5376 
L 3142 5376 
L 3142 4742 
L 774 4742 
z
" transform="scale(0.015625)"/>
     <path id="NotoSansCJKjp-Regular-581" d="M 2240 -550 
L 2240 3590 
L 1766 3590 
L 1766 -109 
L 218 -109 
L 218 -550 
L 2240 -550 
z
" transform="scale(0.015625)"/>
    </defs>
    <use xlink:href="#NotoSansCJKjp-Regular-41d6"/>
    <use xlink:href="#NotoSansCJKjp-Regular-33ef" transform="translate(100 0)"/>
    <use xlink:href="#NotoSansCJKjp-Regular-4e26" transform="translate(200 0)"/>
    <use xlink:href="#NotoSansCJKjp-Regular-6ce8" transform="translate(300 0)"/>
    <use xlink:href="#NotoSansCJKjp-Regular-2eb1" transform="translate(400 0)"/>
    <use xlink:href="#NotoSansCJKjp-Regular-e6b2" transform="translate(500 0)"/>
    <use xlink:href="#NotoSansCJKjp-Regular-5605" transform="translate(600 0)"/>
    <use xlink:href="#NotoSansCJKjp-Regular-5d96" transform="translate(700 0)"/>
    <use xlink:href="#NotoSansCJKjp-Regular-4110" transform="translate(800 0)"/>
    <use xlink:href="#NotoSansCJKjp-Regular-a108" transform="translate(900 0)"/>
    <use xlink:href="#NotoSansCJKjp-Regular-580" transform="translate(1000 0)"/>
    <use xlink:href="#NotoSansCJKjp-Regular-a995" transform="translate(1100 0)"/>
    <use xlink:href="#NotoSansCJKjp-Regular-4e06" transform="translate(1200 0)"/>
    <use xlink:href="#NotoSansCJKjp-Regular-720a" transform="translate(1300 0)"/>
    <use xlink:href="#NotoSansCJKjp-Regular-4231" transform="translate(1400 0)"/>
    <use xlink:href="#NotoSansCJKjp-Regular-581" transform="translate(1500 0)"/>
   </g>
  </g>
 </g>
 <defs>
  <clipPath id="p3402d8dc3b">
   <rect x="43.52" y="70.72475" width="363.879063" height="211.6175"/>
  </clipPath>
  <clipPath id="p838653f827">
   <rect x="423.859062" y="70.72475" width="363.879062" height="211.6175"/>
  </clipPath>
 </defs>
</svg>
