<?xml version="1.0" encoding="utf-8" standalone="no"?>
<!DOCTYPE svg PUBLIC "-//W3C//DTD SVG 1.1//EN"
  "http://www.w3.org/Graphics/SVG/1.1/DTD/svg11.dtd">
<svg xmlns:xlink="http://www.w3.org/1999/xlink" width="885.46875pt" height="315.936pt" viewBox="0 0 885.46875 315.936" xmlns="http://www.w3.org/2000/svg" version="1.1">
 <metadata>
  <rdf:RDF xmlns:dc="http://purl.org/dc/elements/1.1/" xmlns:cc="http://creativecommons.org/ns#" xmlns:rdf="http://www.w3.org/1999/02/22-rdf-syntax-ns#">
   <cc:Work>
    <dc:type rdf:resource="http://purl.org/dc/dcmitype/StillImage"/>
    <dc:date>2026-06-20T18:20:31.238548</dc:date>
    <dc:format>image/svg+xml</dc:format>
    <dc:creator>
     <cc:Agent>
      <dc:title>Matplotlib v3.11.0, https://matplotlib.org/</dc:title>
     </cc:Agent>
    </dc:creator>
   </cc:Work>
  </rdf:RDF>
 </metadata>
 <defs>
  <style type="text/css">*{stroke-linejoin: round; stroke-linecap: butt}</style>
 </defs>
 <g id="figure_1">
  <g id="patch_1">
   <path d="M 0 315.936 
L 885.46875 315.936 
L 885.46875 0 
L 0 0 
z
" style="fill: #ffffff"/>
  </g>
  <g id="axes_1">
   <g id="patch_2">
    <path d="M 44.88875 273.736 
L 305.08875 273.736 
L 305.08875 87.964125 
L 44.88875 87.964125 
z
" style="fill: #ffffff"/>
   </g>
   <g id="matplotlib.axis_1">
    <g id="xtick_1">
     <g id="line2d_1">
      <path d="M 44.88875 273.736 
L 44.88875 87.964125 
" clip-path="url(#pa24ab48a32)" style="fill: none; stroke: #d8dde3; stroke-width: 0.9; stroke-linecap: square"/>
     </g>
     <g id="line2d_2">
      <defs>
       <path id="m4f478532df" d="M 0 0 
L 0 3.5 
" style="stroke: #222831; stroke-width: 0.8"/>
      </defs>
      <g>
       <use xlink:href="#m4f478532df" x="44.88875" y="273.736" style="fill: #222831; stroke: #222831; stroke-width: 0.8"/>
      </g>
     </g>
     <g id="text_1">
      <!-- 0 -->
      <g style="fill: #222831" transform="translate(41.55875 291.296) scale(0.12 -0.12)">
       <defs>
        <path id="NotoSansCJKjp-Regular-11" d="M 1779 -83 
C 2669 -83 3238 723 3238 2362 
C 3238 3987 2669 4774 1779 4774 
C 883 4774 320 3987 320 2362 
C 320 723 883 -83 1779 -83 
z
M 1779 390 
C 1248 390 883 986 883 2362 
C 883 3731 1248 4314 1779 4314 
C 2310 4314 2675 3731 2675 2362 
C 2675 986 2310 390 1779 390 
z
" transform="scale(0.015625)"/>
       </defs>
       <use xlink:href="#NotoSansCJKjp-Regular-11"/>
      </g>
     </g>
    </g>
    <g id="xtick_2">
     <g id="line2d_3">
      <path d="M 109.93875 273.736 
L 109.93875 87.964125 
" clip-path="url(#pa24ab48a32)" style="fill: none; stroke: #d8dde3; stroke-width: 0.9; stroke-linecap: square"/>
     </g>
     <g id="line2d_4">
      <g>
       <use xlink:href="#m4f478532df" x="109.93875" y="273.736" style="fill: #222831; stroke: #222831; stroke-width: 0.8"/>
      </g>
     </g>
     <g id="text_2">
      <!-- 5 -->
      <g style="fill: #222831" transform="translate(106.60875 291.296) scale(0.12 -0.12)">
       <defs>
        <path id="NotoSansCJKjp-Regular-16" d="M 1677 -83 
C 2464 -83 3213 499 3213 1523 
C 3213 2560 2573 3021 1798 3021 
C 1517 3021 1306 2950 1094 2835 
L 1216 4192 
L 2982 4192 
L 2982 4691 
L 704 4691 
L 550 2502 
L 864 2304 
C 1133 2483 1331 2579 1645 2579 
C 2234 2579 2618 2182 2618 1510 
C 2618 826 2176 403 1619 403 
C 1075 403 730 653 467 922 
L 173 538 
C 493 224 941 -83 1677 -83 
z
" transform="scale(0.015625)"/>
       </defs>
       <use xlink:href="#NotoSansCJKjp-Regular-16"/>
      </g>
     </g>
    </g>
    <g id="xtick_3">
     <g id="line2d_5">
      <path d="M 174.98875 273.736 
L 174.98875 87.964125 
" clip-path="url(#pa24ab48a32)" style="fill: none; stroke: #d8dde3; stroke-width: 0.9; stroke-linecap: square"/>
     </g>
     <g id="line2d_6">
      <g>
       <use xlink:href="#m4f478532df" x="174.98875" y="273.736" style="fill: #222831; stroke: #222831; stroke-width: 0.8"/>
      </g>
     </g>
     <g id="text_3">
      <!-- 10 -->
      <g style="fill: #222831" transform="translate(168.32875 291.296) scale(0.12 -0.12)">
       <defs>
        <path id="NotoSansCJKjp-Regular-12" d="M 563 0 
L 3136 0 
L 3136 486 
L 2195 486 
L 2195 4691 
L 1747 4691 
C 1491 4544 1190 4435 774 4358 
L 774 3987 
L 1613 3987 
L 1613 486 
L 563 486 
L 563 0 
z
" transform="scale(0.015625)"/>
       </defs>
       <use xlink:href="#NotoSansCJKjp-Regular-12"/>
       <use xlink:href="#NotoSansCJKjp-Regular-11" transform="translate(55.5 0)"/>
      </g>
     </g>
    </g>
    <g id="xtick_4">
     <g id="line2d_7">
      <path d="M 240.03875 273.736 
L 240.03875 87.964125 
" clip-path="url(#pa24ab48a32)" style="fill: none; stroke: #d8dde3; stroke-width: 0.9; stroke-linecap: square"/>
     </g>
     <g id="line2d_8">
      <g>
       <use xlink:href="#m4f478532df" x="240.03875" y="273.736" style="fill: #222831; stroke: #222831; stroke-width: 0.8"/>
      </g>
     </g>
     <g id="text_4">
      <!-- 15 -->
      <g style="fill: #222831" transform="translate(233.37875 291.296) scale(0.12 -0.12)">
       <use xlink:href="#NotoSansCJKjp-Regular-12"/>
       <use xlink:href="#NotoSansCJKjp-Regular-16" transform="translate(55.5 0)"/>
      </g>
     </g>
    </g>
    <g id="xtick_5">
     <g id="line2d_9">
      <path d="M 305.08875 273.736 
L 305.08875 87.964125 
" clip-path="url(#pa24ab48a32)" style="fill: none; stroke: #d8dde3; stroke-width: 0.9; stroke-linecap: square"/>
     </g>
     <g id="line2d_10">
      <g>
       <use xlink:href="#m4f478532df" x="305.08875" y="273.736" style="fill: #222831; stroke: #222831; stroke-width: 0.8"/>
      </g>
     </g>
     <g id="text_5">
      <!-- 20 -->
      <g style="fill: #222831" transform="translate(298.42875 291.296) scale(0.12 -0.12)">
       <defs>
        <path id="NotoSansCJKjp-Regular-13" d="M 282 0 
L 3232 0 
L 3232 506 
L 1933 506 
C 1696 506 1408 480 1165 461 
C 2266 1504 3008 2458 3008 3398 
C 3008 4230 2477 4774 1638 4774 
C 1043 4774 634 4506 256 4090 
L 595 3757 
C 858 4070 1184 4301 1568 4301 
C 2150 4301 2432 3910 2432 3373 
C 2432 2566 1754 1632 282 346 
L 282 0 
z
" transform="scale(0.015625)"/>
       </defs>
       <use xlink:href="#NotoSansCJKjp-Regular-13"/>
       <use xlink:href="#NotoSansCJKjp-Regular-11" transform="translate(55.5 0)"/>
      </g>
     </g>
    </g>
    <g id="text_6">
     <!-- x -->
     <g style="fill: #222831" transform="translate(172.000937 307.296) scale(0.12 -0.12)">
      <defs>
       <path id="NotoSansCJKjp-Regular-59" d="M 96 0 
L 710 0 
L 1178 813 
C 1299 1024 1408 1235 1530 1434 
L 1562 1434 
C 1696 1235 1824 1024 1939 813 
L 2451 0 
L 3091 0 
L 1946 1754 
L 3002 3475 
L 2394 3475 
L 1965 2714 
C 1856 2515 1760 2330 1658 2131 
L 1626 2131 
C 1510 2330 1389 2515 1286 2714 
L 819 3475 
L 186 3475 
L 1242 1811 
L 96 0 
z
" transform="scale(0.015625)"/>
      </defs>
      <use xlink:href="#NotoSansCJKjp-Regular-59"/>
     </g>
    </g>
   </g>
   <g id="matplotlib.axis_2">
    <g id="ytick_1">
     <g id="line2d_11">
      <path d="M 44.88875 273.736 
L 305.08875 273.736 
" clip-path="url(#pa24ab48a32)" style="fill: none; stroke: #d8dde3; stroke-width: 0.9; stroke-linecap: square"/>
     </g>
     <g id="line2d_12">
      <defs>
       <path id="m0ec4f5f8ee" d="M 0 0 
L -3.5 0 
" style="stroke: #222831; stroke-width: 0.8"/>
      </defs>
      <g>
       <use xlink:href="#m0ec4f5f8ee" x="44.88875" y="273.736" style="fill: #222831; stroke: #222831; stroke-width: 0.8"/>
      </g>
     </g>
     <g id="text_7">
      <!-- 0 -->
      <g style="fill: #222831" transform="translate(31.22875 279.016) scale(0.12 -0.12)">
       <use xlink:href="#NotoSansCJKjp-Regular-11"/>
      </g>
     </g>
    </g>
    <g id="ytick_2">
     <g id="line2d_13">
      <path d="M 44.88875 231.515119 
L 305.08875 231.515119 
" clip-path="url(#pa24ab48a32)" style="fill: none; stroke: #d8dde3; stroke-width: 0.9; stroke-linecap: square"/>
     </g>
     <g id="line2d_14">
      <g>
       <use xlink:href="#m0ec4f5f8ee" x="44.88875" y="231.515119" style="fill: #222831; stroke: #222831; stroke-width: 0.8"/>
      </g>
     </g>
     <g id="text_8">
      <!-- 5 -->
      <g style="fill: #222831" transform="translate(31.22875 236.795119) scale(0.12 -0.12)">
       <use xlink:href="#NotoSansCJKjp-Regular-16"/>
      </g>
     </g>
    </g>
    <g id="ytick_3">
     <g id="line2d_15">
      <path d="M 44.88875 189.294239 
L 305.08875 189.294239 
" clip-path="url(#pa24ab48a32)" style="fill: none; stroke: #d8dde3; stroke-width: 0.9; stroke-linecap: square"/>
     </g>
     <g id="line2d_16">
      <g>
       <use xlink:href="#m0ec4f5f8ee" x="44.88875" y="189.294239" style="fill: #222831; stroke: #222831; stroke-width: 0.8"/>
      </g>
     </g>
     <g id="text_9">
      <!-- 10 -->
      <g style="fill: #222831" transform="translate(24.56875 194.574239) scale(0.12 -0.12)">
       <use xlink:href="#NotoSansCJKjp-Regular-12"/>
       <use xlink:href="#NotoSansCJKjp-Regular-11" transform="translate(55.5 0)"/>
      </g>
     </g>
    </g>
    <g id="ytick_4">
     <g id="line2d_17">
      <path d="M 44.88875 147.073358 
L 305.08875 147.073358 
" clip-path="url(#pa24ab48a32)" style="fill: none; stroke: #d8dde3; stroke-width: 0.9; stroke-linecap: square"/>
     </g>
     <g id="line2d_18">
      <g>
       <use xlink:href="#m0ec4f5f8ee" x="44.88875" y="147.073358" style="fill: #222831; stroke: #222831; stroke-width: 0.8"/>
      </g>
     </g>
     <g id="text_10">
      <!-- 15 -->
      <g style="fill: #222831" transform="translate(24.56875 152.353358) scale(0.12 -0.12)">
       <use xlink:href="#NotoSansCJKjp-Regular-12"/>
       <use xlink:href="#NotoSansCJKjp-Regular-16" transform="translate(55.5 0)"/>
      </g>
     </g>
    </g>
    <g id="ytick_5">
     <g id="line2d_19">
      <path d="M 44.88875 104.852477 
L 305.08875 104.852477 
" clip-path="url(#pa24ab48a32)" style="fill: none; stroke: #d8dde3; stroke-width: 0.9; stroke-linecap: square"/>
     </g>
     <g id="line2d_20">
      <g>
       <use xlink:href="#m0ec4f5f8ee" x="44.88875" y="104.852477" style="fill: #222831; stroke: #222831; stroke-width: 0.8"/>
      </g>
     </g>
     <g id="text_11">
      <!-- 20 -->
      <g style="fill: #222831" transform="translate(24.56875 110.132477) scale(0.12 -0.12)">
       <use xlink:href="#NotoSansCJKjp-Regular-13"/>
       <use xlink:href="#NotoSansCJKjp-Regular-11" transform="translate(55.5 0)"/>
      </g>
     </g>
    </g>
    <g id="text_12">
     <!-- y -->
     <g style="fill: #222831" transform="translate(17.76 183.975687) rotate(-90) scale(0.12 -0.12)">
      <defs>
       <path id="NotoSansCJKjp-Regular-5a" d="M 646 -1498 
C 1338 -1498 1702 -973 1946 -294 
L 3251 3475 
L 2682 3475 
L 2054 1549 
C 1965 1235 1862 883 1773 563 
L 1741 563 
C 1619 890 1504 1242 1395 1549 
L 691 3475 
L 83 3475 
L 1478 -6 
L 1402 -269 
C 1254 -698 1011 -1018 621 -1018 
C 525 -1018 422 -986 352 -960 
L 237 -1427 
C 346 -1472 486 -1498 646 -1498 
z
" transform="scale(0.015625)"/>
      </defs>
      <use xlink:href="#NotoSansCJKjp-Regular-5a"/>
     </g>
    </g>
   </g>
   <g id="patch_3">
    <path d="M 44.88875 273.736 
L 44.88875 87.964125 
" style="fill: none; stroke: #222831; stroke-width: 1.1; stroke-linejoin: miter; stroke-linecap: square"/>
   </g>
   <g id="patch_4">
    <path d="M 44.88875 273.736 
L 305.08875 273.736 
" style="fill: none; stroke: #222831; stroke-width: 1.1; stroke-linejoin: miter; stroke-linecap: square"/>
   </g>
   <g id="text_13">
    <!-- 正相關 r &gt; 0 -->
    <g style="fill: #1f6feb" transform="translate(143.967812 69.964125) scale(0.12 -0.12)">
     <defs>
      <path id="NotoSansCJKjp-Regular-585c" d="M 1203 3264 
L 1203 243 
L 333 243 
L 333 -224 
L 6080 -224 
L 6080 243 
L 3616 243 
L 3616 2259 
L 5619 2259 
L 5619 2726 
L 3616 2726 
L 3616 4435 
L 5869 4435 
L 5869 4909 
L 576 4909 
L 576 4435 
L 3110 4435 
L 3110 243 
L 1696 243 
L 1696 3264 
L 1203 3264 
z
" transform="scale(0.015625)"/>
      <path id="NotoSansCJKjp-Regular-6ce8" d="M 3494 3034 
L 5440 3034 
L 5440 1920 
L 3494 1920 
L 3494 3034 
z
M 3494 3469 
L 3494 4544 
L 5440 4544 
L 5440 3469 
L 3494 3469 
z
M 3494 1478 
L 5440 1478 
L 5440 365 
L 3494 365 
L 3494 1478 
z
M 3027 4998 
L 3027 -467 
L 3494 -467 
L 3494 -77 
L 5440 -77 
L 5440 -448 
L 5926 -448 
L 5926 4998 
L 3027 4998 
z
M 1370 5376 
L 1370 4006 
L 333 4006 
L 333 3546 
L 1312 3546 
C 1088 2662 634 1651 186 1120 
C 262 1005 384 813 435 685 
C 781 1126 1120 1837 1370 2573 
L 1370 -506 
L 1837 -506 
L 1837 2419 
C 2080 2106 2368 1709 2490 1498 
L 2784 1888 
C 2643 2061 2061 2746 1837 2970 
L 1837 3546 
L 2752 3546 
L 2752 4006 
L 1837 4006 
L 1837 5376 
L 1370 5376 
z
" transform="scale(0.015625)"/>
      <path id="NotoSansCJKjp-Regular-a7ee" d="M 557 5101 
L 557 -518 
L 1018 -518 
L 1018 3136 
L 2246 3136 
C 2150 2982 2010 2790 1888 2637 
L 1709 2771 
L 1510 2579 
C 1728 2419 1978 2189 2118 2003 
L 1843 1722 
L 1434 1702 
L 1472 1395 
L 2867 1491 
L 2931 1312 
L 3200 1414 
C 3149 1613 2989 1901 2822 2112 
L 2560 2022 
C 2618 1946 2675 1856 2726 1773 
L 2195 1741 
C 2470 1997 2778 2330 3021 2618 
L 2739 2752 
C 2630 2598 2477 2406 2310 2221 
C 2253 2298 2170 2387 2080 2470 
C 2240 2630 2419 2854 2579 3066 
L 2413 3136 
L 2906 3136 
L 2906 5101 
L 557 5101 
z
M 4371 1216 
L 4371 614 
L 3744 614 
L 3744 1306 
L 3392 1306 
L 3392 -397 
L 3744 -397 
L 3744 307 
L 4698 307 
L 4698 1216 
L 4371 1216 
z
M 5651 5101 
L 3475 5101 
L 3475 3136 
L 3827 3136 
C 3731 2982 3597 2784 3469 2630 
L 3277 2778 
L 3072 2592 
C 3290 2426 3539 2189 3686 1997 
C 3578 1894 3475 1798 3379 1715 
L 3149 1702 
L 3219 1402 
C 3635 1434 4122 1453 4627 1498 
C 4666 1421 4691 1350 4710 1286 
L 4986 1395 
C 4922 1606 4742 1920 4557 2144 
L 4288 2061 
C 4352 1971 4416 1875 4480 1773 
L 3763 1734 
C 4051 1990 4365 2317 4621 2598 
L 4333 2733 
C 4218 2586 4064 2400 3898 2221 
C 3834 2291 3750 2374 3667 2458 
C 3827 2630 4019 2861 4186 3078 
L 4051 3136 
L 5414 3136 
L 5414 96 
C 5414 6 5389 -19 5306 -26 
C 5222 -26 4954 -26 4666 -19 
C 4736 -147 4794 -365 4819 -493 
C 5216 -493 5491 -486 5658 -410 
C 5830 -326 5882 -179 5882 96 
L 5882 5101 
L 5651 5101 
z
M 2624 1306 
L 2624 742 
L 2618 614 
L 2016 614 
L 2016 1216 
L 1683 1216 
L 1683 307 
L 2541 307 
C 2445 115 2240 -58 1824 -186 
C 1901 -256 2010 -384 2054 -474 
C 2854 -186 2970 256 2970 730 
L 2970 1306 
L 2624 1306 
z
M 2451 3949 
L 2451 3488 
L 1018 3488 
L 1018 3949 
L 2451 3949 
z
M 2451 4275 
L 1018 4275 
L 1018 4749 
L 2451 4749 
L 2451 4275 
z
M 5414 3949 
L 5414 3488 
L 3936 3488 
L 3936 3949 
L 5414 3949 
z
M 5414 4275 
L 3936 4275 
L 3936 4749 
L 5414 4749 
L 5414 4275 
z
" transform="scale(0.015625)"/>
      <path id="NotoSansCJKjp-Regular-1" transform="scale(0.015625)"/>
      <path id="NotoSansCJKjp-Regular-53" d="M 589 0 
L 1178 0 
L 1178 2234 
C 1408 2822 1760 3040 2048 3040 
C 2195 3040 2272 3021 2387 2982 
L 2496 3488 
C 2387 3546 2278 3565 2125 3565 
C 1741 3565 1382 3283 1139 2842 
L 1126 2842 
L 1069 3475 
L 589 3475 
L 589 0 
z
" transform="scale(0.015625)"/>
      <path id="NotoSansCJKjp-Regular-1f" d="M 243 934 
L 3315 2144 
L 3315 2605 
L 243 3814 
L 243 3309 
L 1754 2746 
L 2714 2387 
L 2714 2362 
L 1754 2003 
L 243 1446 
L 243 934 
z
" transform="scale(0.015625)"/>
      <path id="NotoSansCJKjp-Regular-f6b1" d="M 1779 -83 
C 2688 -83 3238 768 3238 2298 
C 3238 3821 2688 4646 1779 4646 
C 864 4646 320 3827 320 2298 
C 320 768 864 -83 1779 -83 
z
M 1779 390 
C 1248 390 883 960 883 2298 
C 883 3635 1248 4179 1779 4179 
C 2310 4179 2675 3635 2675 2298 
C 2675 960 2310 390 1779 390 
z
" transform="scale(0.015625)"/>
     </defs>
     <use xlink:href="#NotoSansCJKjp-Regular-585c"/>
     <use xlink:href="#NotoSansCJKjp-Regular-6ce8" transform="translate(100 0)"/>
     <use xlink:href="#NotoSansCJKjp-Regular-a7ee" transform="translate(200 0)"/>
     <use xlink:href="#NotoSansCJKjp-Regular-1" transform="translate(300 0)"/>
     <use xlink:href="#NotoSansCJKjp-Regular-53" transform="translate(322.40625 0)"/>
     <use xlink:href="#NotoSansCJKjp-Regular-1" transform="translate(361.203125 0)"/>
     <use xlink:href="#NotoSansCJKjp-Regular-1f" transform="translate(383.609375 0)"/>
     <use xlink:href="#NotoSansCJKjp-Regular-1" transform="translate(439.109375 0)"/>
     <use xlink:href="#NotoSansCJKjp-Regular-f6b1" transform="translate(461.515625 0)"/>
    </g>
    <!-- x 增大，y 傾向增大 -->
    <g style="fill: #1f6feb" transform="translate(124.186562 81.964125) scale(0.12 -0.12)">
     <defs>
      <path id="NotoSansCJKjp-Regular-360c" d="M 2995 3405 
C 3110 3174 3219 2861 3264 2662 
L 3571 2765 
C 3533 2957 3411 3264 3290 3488 
L 2995 3405 
z
M 4768 3494 
C 4710 3290 4582 2970 4486 2758 
L 4742 2662 
C 4858 2854 4986 3123 5107 3386 
L 4768 3494 
z
M 3002 5030 
C 2765 4576 2374 4128 1978 3808 
L 1427 3808 
L 1427 5286 
L 960 5286 
L 960 3808 
L 282 3808 
L 282 3354 
L 960 3354 
L 960 1293 
L 179 986 
L 352 512 
C 896 742 1581 1050 2240 1338 
L 2125 1773 
L 1427 1485 
L 1427 3354 
L 1997 3354 
L 1997 3616 
C 2074 3539 2157 3450 2202 3392 
L 2368 3533 
L 2368 2182 
L 5805 2182 
L 5805 3571 
L 5952 3462 
C 6029 3578 6170 3744 6266 3834 
C 5786 4122 5235 4672 4934 5210 
L 3539 5210 
L 3539 4787 
L 4685 4787 
C 4864 4512 5088 4243 5331 4000 
L 2816 4000 
C 3053 4282 3270 4589 3430 4902 
L 3002 5030 
z
M 2675 1824 
L 2675 -512 
L 3130 -512 
L 3130 -269 
L 5030 -269 
L 5030 -493 
L 5504 -493 
L 5504 1824 
L 2675 1824 
z
M 3130 102 
L 3130 614 
L 5030 614 
L 5030 102 
L 3130 102 
z
M 3130 954 
L 3130 1453 
L 5030 1453 
L 5030 954 
L 3130 954 
z
M 2752 3635 
L 3872 3635 
L 3872 2554 
L 2752 2554 
L 2752 3635 
z
M 4237 3635 
L 5395 3635 
L 5395 2554 
L 4237 2554 
L 4237 3635 
z
" transform="scale(0.015625)"/>
      <path id="NotoSansCJKjp-Regular-36fb" d="M 2950 5370 
C 2944 4864 2950 4218 2854 3539 
L 397 3539 
L 397 3046 
L 2771 3046 
C 2515 1830 1875 589 275 -102 
C 410 -205 563 -378 640 -499 
C 2202 218 2893 1446 3206 2682 
C 3706 1222 4531 90 5773 -499 
C 5856 -358 6010 -160 6131 -51 
C 4890 467 4051 1632 3603 3046 
L 6029 3046 
L 6029 3539 
L 3366 3539 
C 3456 4211 3462 4851 3469 5370 
L 2950 5370 
z
" transform="scale(0.015625)"/>
      <path id="NotoSansCJKjp-Regular-e6b2" d="M 1005 -685 
C 1677 -448 2112 77 2112 768 
C 2112 1216 1920 1504 1568 1504 
C 1306 1504 1082 1344 1082 1043 
C 1082 742 1299 589 1562 589 
L 1670 602 
C 1638 160 1357 -141 864 -346 
L 1005 -685 
z
" transform="scale(0.015625)"/>
      <path id="NotoSansCJKjp-Regular-295d" d="M 3789 2746 
L 5491 2746 
L 5491 2106 
L 3789 2106 
L 3789 2746 
z
M 3789 1747 
L 5491 1747 
L 5491 1101 
L 3789 1101 
L 3789 1747 
z
M 3789 3738 
L 5491 3738 
L 5491 3110 
L 3789 3110 
L 3789 3738 
z
M 3930 582 
C 3667 301 3130 -38 2656 -224 
C 2758 -307 2906 -448 2976 -538 
C 3456 -346 4006 6 4346 339 
L 3930 582 
z
M 4870 320 
C 5222 70 5658 -294 5875 -525 
L 6246 -262 
C 6029 -26 5581 320 5235 557 
L 4870 320 
z
M 1882 4717 
L 1882 1133 
C 1882 640 1978 493 2374 493 
C 2458 493 2746 493 2829 493 
C 3194 493 3296 768 3328 1645 
C 3206 1677 3034 1747 2938 1830 
C 2925 1069 2906 909 2784 909 
C 2726 909 2496 909 2438 909 
C 2330 909 2310 941 2310 1133 
L 2310 2630 
C 2618 2874 3008 3226 3315 3539 
L 2989 3846 
C 2816 3635 2560 3360 2310 3123 
L 2310 4717 
L 1882 4717 
z
M 1389 5338 
C 1101 4352 634 3379 109 2739 
C 186 2618 307 2362 346 2246 
C 550 2496 749 2797 934 3123 
L 934 -525 
L 1370 -525 
L 1370 3994 
C 1542 4390 1696 4806 1824 5222 
L 1389 5338 
z
M 3366 4115 
L 3366 723 
L 5933 723 
L 5933 4115 
L 4691 4115 
L 4890 4653 
L 6144 4653 
L 6144 5069 
L 3066 5069 
L 3066 4653 
L 4390 4653 
C 4352 4480 4294 4288 4243 4115 
L 3366 4115 
z
" transform="scale(0.015625)"/>
      <path id="NotoSansCJKjp-Regular-2eb8" d="M 2803 5389 
C 2714 5062 2554 4614 2394 4269 
L 634 4269 
L 634 -512 
L 1107 -512 
L 1107 3802 
L 5325 3802 
L 5325 128 
C 5325 13 5286 -26 5158 -26 
C 5024 -32 4582 -38 4122 -13 
C 4192 -154 4262 -378 4288 -512 
C 4877 -512 5274 -506 5504 -429 
C 5728 -346 5805 -192 5805 128 
L 5805 4269 
L 2925 4269 
C 3085 4576 3258 4947 3398 5293 
L 2803 5389 
z
M 2387 2522 
L 4006 2522 
L 4006 1267 
L 2387 1267 
L 2387 2522 
z
M 1946 2950 
L 1946 371 
L 2387 371 
L 2387 832 
L 4454 832 
L 4454 2950 
L 1946 2950 
z
" transform="scale(0.015625)"/>
     </defs>
     <use xlink:href="#NotoSansCJKjp-Regular-59"/>
     <use xlink:href="#NotoSansCJKjp-Regular-1" transform="translate(49.796875 0)"/>
     <use xlink:href="#NotoSansCJKjp-Regular-360c" transform="translate(72.203125 0)"/>
     <use xlink:href="#NotoSansCJKjp-Regular-36fb" transform="translate(172.203125 0)"/>
     <use xlink:href="#NotoSansCJKjp-Regular-e6b2" transform="translate(272.203125 0)"/>
     <use xlink:href="#NotoSansCJKjp-Regular-5a" transform="translate(372.203125 0)"/>
     <use xlink:href="#NotoSansCJKjp-Regular-1" transform="translate(424.296875 0)"/>
     <use xlink:href="#NotoSansCJKjp-Regular-295d" transform="translate(446.703125 0)"/>
     <use xlink:href="#NotoSansCJKjp-Regular-2eb8" transform="translate(546.703125 0)"/>
     <use xlink:href="#NotoSansCJKjp-Regular-360c" transform="translate(646.703125 0)"/>
     <use xlink:href="#NotoSansCJKjp-Regular-36fb" transform="translate(746.703125 0)"/>
    </g>
   </g>
   <g id="PathCollection_1">
    <defs>
     <path id="mf382868eea" d="M 0 3.24037 
C 0.859356 3.24037 1.683631 2.898944 2.291288 2.291288 
C 2.898944 1.683631 3.24037 0.859356 3.24037 0 
C 3.24037 -0.859356 2.898944 -1.683631 2.291288 -2.291288 
C 1.683631 -2.898944 0.859356 -3.24037 0 -3.24037 
C -0.859356 -3.24037 -1.683631 -2.898944 -2.291288 -2.291288 
C -2.898944 -1.683631 -3.24037 -0.859356 -3.24037 0 
C -3.24037 0.859356 -2.898944 1.683631 -2.291288 2.291288 
C -1.683631 2.898944 -0.859356 3.24037 0 3.24037 
z
" style="stroke: #1f6feb; stroke-opacity: 0.85"/>
    </defs>
    <g clip-path="url(#pa24ab48a32)">
     <use xlink:href="#mf382868eea" x="201.028622" y="186.312115" style="fill: #1f6feb; fill-opacity: 0.85; stroke: #1f6feb; stroke-opacity: 0.85"/>
     <use xlink:href="#mf382868eea" x="257.672775" y="139.005171" style="fill: #1f6feb; fill-opacity: 0.85; stroke: #1f6feb; stroke-opacity: 0.85"/>
     <use xlink:href="#mf382868eea" x="232.375483" y="160.548208" style="fill: #1f6feb; fill-opacity: 0.85; stroke: #1f6feb; stroke-opacity: 0.85"/>
     <use xlink:href="#mf382868eea" x="117.787879" y="225.191749" style="fill: #1f6feb; fill-opacity: 0.85; stroke: #1f6feb; stroke-opacity: 0.85"/>
     <use xlink:href="#mf382868eea" x="133.391364" y="190.815606" style="fill: #1f6feb; fill-opacity: 0.85; stroke: #1f6feb; stroke-opacity: 0.85"/>
     <use xlink:href="#mf382868eea" x="252.747635" y="146.337751" style="fill: #1f6feb; fill-opacity: 0.85; stroke: #1f6feb; stroke-opacity: 0.85"/>
     <use xlink:href="#mf382868eea" x="72.004776" y="241.44728" style="fill: #1f6feb; fill-opacity: 0.85; stroke: #1f6feb; stroke-opacity: 0.85"/>
     <use xlink:href="#mf382868eea" x="241.855658" y="129.841218" style="fill: #1f6feb; fill-opacity: 0.85; stroke: #1f6feb; stroke-opacity: 0.85"/>
     <use xlink:href="#mf382868eea" x="236.826722" y="152.612407" style="fill: #1f6feb; fill-opacity: 0.85; stroke: #1f6feb; stroke-opacity: 0.85"/>
     <use xlink:href="#mf382868eea" x="168.31409" y="186.258218" style="fill: #1f6feb; fill-opacity: 0.85; stroke: #1f6feb; stroke-opacity: 0.85"/>
     <use xlink:href="#mf382868eea" x="133.98798" y="203.308112" style="fill: #1f6feb; fill-opacity: 0.85; stroke: #1f6feb; stroke-opacity: 0.85"/>
     <use xlink:href="#mf382868eea" x="128.865825" y="206.930917" style="fill: #1f6feb; fill-opacity: 0.85; stroke: #1f6feb; stroke-opacity: 0.85"/>
     <use xlink:href="#mf382868eea" x="123.962403" y="227.208313" style="fill: #1f6feb; fill-opacity: 0.85; stroke: #1f6feb; stroke-opacity: 0.85"/>
     <use xlink:href="#mf382868eea" x="163.555834" y="186.499865" style="fill: #1f6feb; fill-opacity: 0.85; stroke: #1f6feb; stroke-opacity: 0.85"/>
     <use xlink:href="#mf382868eea" x="175.935516" y="161.938381" style="fill: #1f6feb; fill-opacity: 0.85; stroke: #1f6feb; stroke-opacity: 0.85"/>
     <use xlink:href="#mf382868eea" x="186.124759" y="195.247971" style="fill: #1f6feb; fill-opacity: 0.85; stroke: #1f6feb; stroke-opacity: 0.85"/>
     <use xlink:href="#mf382868eea" x="278.132089" y="108.988296" style="fill: #1f6feb; fill-opacity: 0.85; stroke: #1f6feb; stroke-opacity: 0.85"/>
     <use xlink:href="#mf382868eea" x="235.909255" y="143.65095" style="fill: #1f6feb; fill-opacity: 0.85; stroke: #1f6feb; stroke-opacity: 0.85"/>
     <use xlink:href="#mf382868eea" x="200.421578" y="174.660243" style="fill: #1f6feb; fill-opacity: 0.85; stroke: #1f6feb; stroke-opacity: 0.85"/>
     <use xlink:href="#mf382868eea" x="276.770694" y="94.367406" style="fill: #1f6feb; fill-opacity: 0.85; stroke: #1f6feb; stroke-opacity: 0.85"/>
     <use xlink:href="#mf382868eea" x="115.727409" y="205.168776" style="fill: #1f6feb; fill-opacity: 0.85; stroke: #1f6feb; stroke-opacity: 0.85"/>
     <use xlink:href="#mf382868eea" x="104.258487" y="238.370177" style="fill: #1f6feb; fill-opacity: 0.85; stroke: #1f6feb; stroke-opacity: 0.85"/>
     <use xlink:href="#mf382868eea" x="198.414994" y="166.158916" style="fill: #1f6feb; fill-opacity: 0.85; stroke: #1f6feb; stroke-opacity: 0.85"/>
     <use xlink:href="#mf382868eea" x="80.055718" y="228.513483" style="fill: #1f6feb; fill-opacity: 0.85; stroke: #1f6feb; stroke-opacity: 0.85"/>
     <use xlink:href="#mf382868eea" x="78.335957" y="239.860122" style="fill: #1f6feb; fill-opacity: 0.85; stroke: #1f6feb; stroke-opacity: 0.85"/>
     <use xlink:href="#mf382868eea" x="178.088007" y="169.813056" style="fill: #1f6feb; fill-opacity: 0.85; stroke: #1f6feb; stroke-opacity: 0.85"/>
     <use xlink:href="#mf382868eea" x="167.954196" y="185.857974" style="fill: #1f6feb; fill-opacity: 0.85; stroke: #1f6feb; stroke-opacity: 0.85"/>
     <use xlink:href="#mf382868eea" x="261.826394" y="121.109104" style="fill: #1f6feb; fill-opacity: 0.85; stroke: #1f6feb; stroke-opacity: 0.85"/>
     <use xlink:href="#mf382868eea" x="201.888487" y="145.701228" style="fill: #1f6feb; fill-opacity: 0.85; stroke: #1f6feb; stroke-opacity: 0.85"/>
     <use xlink:href="#mf382868eea" x="177.927479" y="188.262069" style="fill: #1f6feb; fill-opacity: 0.85; stroke: #1f6feb; stroke-opacity: 0.85"/>
    </g>
   </g>
  </g>
  <g id="axes_2">
   <g id="patch_5">
    <path d="M 328.14875 273.736 
L 588.34875 273.736 
L 588.34875 87.964125 
L 328.14875 87.964125 
z
" style="fill: #ffffff"/>
   </g>
   <g id="matplotlib.axis_3">
    <g id="xtick_6">
     <g id="line2d_21">
      <path d="M 328.14875 273.736 
L 328.14875 87.964125 
" clip-path="url(#p7dcd38b740)" style="fill: none; stroke: #d8dde3; stroke-width: 0.9; stroke-linecap: square"/>
     </g>
     <g id="line2d_22">
      <g>
       <use xlink:href="#m4f478532df" x="328.14875" y="273.736" style="fill: #222831; stroke: #222831; stroke-width: 0.8"/>
      </g>
     </g>
     <g id="text_14">
      <!-- 0 -->
      <g style="fill: #222831" transform="translate(324.81875 291.296) scale(0.12 -0.12)">
       <use xlink:href="#NotoSansCJKjp-Regular-11"/>
      </g>
     </g>
    </g>
    <g id="xtick_7">
     <g id="line2d_23">
      <path d="M 393.19875 273.736 
L 393.19875 87.964125 
" clip-path="url(#p7dcd38b740)" style="fill: none; stroke: #d8dde3; stroke-width: 0.9; stroke-linecap: square"/>
     </g>
     <g id="line2d_24">
      <g>
       <use xlink:href="#m4f478532df" x="393.19875" y="273.736" style="fill: #222831; stroke: #222831; stroke-width: 0.8"/>
      </g>
     </g>
     <g id="text_15">
      <!-- 5 -->
      <g style="fill: #222831" transform="translate(389.86875 291.296) scale(0.12 -0.12)">
       <use xlink:href="#NotoSansCJKjp-Regular-16"/>
      </g>
     </g>
    </g>
    <g id="xtick_8">
     <g id="line2d_25">
      <path d="M 458.24875 273.736 
L 458.24875 87.964125 
" clip-path="url(#p7dcd38b740)" style="fill: none; stroke: #d8dde3; stroke-width: 0.9; stroke-linecap: square"/>
     </g>
     <g id="line2d_26">
      <g>
       <use xlink:href="#m4f478532df" x="458.24875" y="273.736" style="fill: #222831; stroke: #222831; stroke-width: 0.8"/>
      </g>
     </g>
     <g id="text_16">
      <!-- 10 -->
      <g style="fill: #222831" transform="translate(451.58875 291.296) scale(0.12 -0.12)">
       <use xlink:href="#NotoSansCJKjp-Regular-12"/>
       <use xlink:href="#NotoSansCJKjp-Regular-11" transform="translate(55.5 0)"/>
      </g>
     </g>
    </g>
    <g id="xtick_9">
     <g id="line2d_27">
      <path d="M 523.29875 273.736 
L 523.29875 87.964125 
" clip-path="url(#p7dcd38b740)" style="fill: none; stroke: #d8dde3; stroke-width: 0.9; stroke-linecap: square"/>
     </g>
     <g id="line2d_28">
      <g>
       <use xlink:href="#m4f478532df" x="523.29875" y="273.736" style="fill: #222831; stroke: #222831; stroke-width: 0.8"/>
      </g>
     </g>
     <g id="text_17">
      <!-- 15 -->
      <g style="fill: #222831" transform="translate(516.63875 291.296) scale(0.12 -0.12)">
       <use xlink:href="#NotoSansCJKjp-Regular-12"/>
       <use xlink:href="#NotoSansCJKjp-Regular-16" transform="translate(55.5 0)"/>
      </g>
     </g>
    </g>
    <g id="xtick_10">
     <g id="line2d_29">
      <path d="M 588.34875 273.736 
L 588.34875 87.964125 
" clip-path="url(#p7dcd38b740)" style="fill: none; stroke: #d8dde3; stroke-width: 0.9; stroke-linecap: square"/>
     </g>
     <g id="line2d_30">
      <g>
       <use xlink:href="#m4f478532df" x="588.34875" y="273.736" style="fill: #222831; stroke: #222831; stroke-width: 0.8"/>
      </g>
     </g>
     <g id="text_18">
      <!-- 20 -->
      <g style="fill: #222831" transform="translate(581.68875 291.296) scale(0.12 -0.12)">
       <use xlink:href="#NotoSansCJKjp-Regular-13"/>
       <use xlink:href="#NotoSansCJKjp-Regular-11" transform="translate(55.5 0)"/>
      </g>
     </g>
    </g>
    <g id="text_19">
     <!-- x -->
     <g style="fill: #222831" transform="translate(455.260937 307.296) scale(0.12 -0.12)">
      <use xlink:href="#NotoSansCJKjp-Regular-59"/>
     </g>
    </g>
   </g>
   <g id="matplotlib.axis_4">
    <g id="ytick_6">
     <g id="line2d_31">
      <path d="M 328.14875 273.736 
L 588.34875 273.736 
" clip-path="url(#p7dcd38b740)" style="fill: none; stroke: #d8dde3; stroke-width: 0.9; stroke-linecap: square"/>
     </g>
     <g id="line2d_32">
      <g>
       <use xlink:href="#m0ec4f5f8ee" x="328.14875" y="273.736" style="fill: #222831; stroke: #222831; stroke-width: 0.8"/>
      </g>
     </g>
    </g>
    <g id="ytick_7">
     <g id="line2d_33">
      <path d="M 328.14875 231.515119 
L 588.34875 231.515119 
" clip-path="url(#p7dcd38b740)" style="fill: none; stroke: #d8dde3; stroke-width: 0.9; stroke-linecap: square"/>
     </g>
     <g id="line2d_34">
      <g>
       <use xlink:href="#m0ec4f5f8ee" x="328.14875" y="231.515119" style="fill: #222831; stroke: #222831; stroke-width: 0.8"/>
      </g>
     </g>
    </g>
    <g id="ytick_8">
     <g id="line2d_35">
      <path d="M 328.14875 189.294239 
L 588.34875 189.294239 
" clip-path="url(#p7dcd38b740)" style="fill: none; stroke: #d8dde3; stroke-width: 0.9; stroke-linecap: square"/>
     </g>
     <g id="line2d_36">
      <g>
       <use xlink:href="#m0ec4f5f8ee" x="328.14875" y="189.294239" style="fill: #222831; stroke: #222831; stroke-width: 0.8"/>
      </g>
     </g>
    </g>
    <g id="ytick_9">
     <g id="line2d_37">
      <path d="M 328.14875 147.073358 
L 588.34875 147.073358 
" clip-path="url(#p7dcd38b740)" style="fill: none; stroke: #d8dde3; stroke-width: 0.9; stroke-linecap: square"/>
     </g>
     <g id="line2d_38">
      <g>
       <use xlink:href="#m0ec4f5f8ee" x="328.14875" y="147.073358" style="fill: #222831; stroke: #222831; stroke-width: 0.8"/>
      </g>
     </g>
    </g>
    <g id="ytick_10">
     <g id="line2d_39">
      <path d="M 328.14875 104.852477 
L 588.34875 104.852477 
" clip-path="url(#p7dcd38b740)" style="fill: none; stroke: #d8dde3; stroke-width: 0.9; stroke-linecap: square"/>
     </g>
     <g id="line2d_40">
      <g>
       <use xlink:href="#m0ec4f5f8ee" x="328.14875" y="104.852477" style="fill: #222831; stroke: #222831; stroke-width: 0.8"/>
      </g>
     </g>
    </g>
   </g>
   <g id="patch_6">
    <path d="M 328.14875 273.736 
L 328.14875 87.964125 
" style="fill: none; stroke: #222831; stroke-width: 1.1; stroke-linejoin: miter; stroke-linecap: square"/>
   </g>
   <g id="patch_7">
    <path d="M 328.14875 273.736 
L 588.34875 273.736 
" style="fill: none; stroke: #222831; stroke-width: 1.1; stroke-linejoin: miter; stroke-linecap: square"/>
   </g>
   <g id="text_20">
    <!-- 負相關 r &lt; 0 -->
    <g style="fill: #d1242f" transform="translate(427.227812 69.964125) scale(0.12 -0.12)">
     <defs>
      <path id="NotoSansCJKjp-Regular-9777" d="M 1606 2560 
L 4883 2560 
L 4883 1958 
L 1606 1958 
L 1606 2560 
z
M 1606 1594 
L 4883 1594 
L 4883 992 
L 1606 992 
L 1606 1594 
z
M 1606 3514 
L 4883 3514 
L 4883 2925 
L 1606 2925 
L 1606 3514 
z
M 3776 237 
C 4448 -6 5133 -301 5530 -525 
L 6035 -256 
C 5581 -32 4832 275 4147 506 
L 3776 237 
z
M 2214 512 
C 1760 250 1005 0 365 -154 
C 480 -243 653 -435 730 -538 
C 1357 -346 2163 -26 2669 301 
L 2214 512 
z
M 2074 4512 
L 3635 4512 
C 3507 4307 3341 4083 3168 3910 
L 1510 3910 
C 1715 4102 1907 4307 2074 4512 
z
M 2080 5370 
C 1760 4794 1152 4096 314 3584 
C 435 3514 595 3360 672 3245 
C 832 3347 986 3462 1126 3578 
L 1126 595 
L 5376 595 
L 5376 3910 
L 3744 3910 
C 3955 4160 4166 4448 4314 4710 
L 3987 4922 
L 3910 4902 
L 2368 4902 
C 2451 5024 2534 5146 2605 5267 
L 2080 5370 
z
" transform="scale(0.015625)"/>
      <path id="NotoSansCJKjp-Regular-1d" d="M 3315 934 
L 3315 1446 
L 1798 2003 
L 838 2362 
L 838 2387 
L 1798 2746 
L 3315 3309 
L 3315 3814 
L 243 2605 
L 243 2144 
L 3315 934 
z
" transform="scale(0.015625)"/>
     </defs>
     <use xlink:href="#NotoSansCJKjp-Regular-9777"/>
     <use xlink:href="#NotoSansCJKjp-Regular-6ce8" transform="translate(100 0)"/>
     <use xlink:href="#NotoSansCJKjp-Regular-a7ee" transform="translate(200 0)"/>
     <use xlink:href="#NotoSansCJKjp-Regular-1" transform="translate(300 0)"/>
     <use xlink:href="#NotoSansCJKjp-Regular-53" transform="translate(322.40625 0)"/>
     <use xlink:href="#NotoSansCJKjp-Regular-1" transform="translate(361.203125 0)"/>
     <use xlink:href="#NotoSansCJKjp-Regular-1d" transform="translate(383.609375 0)"/>
     <use xlink:href="#NotoSansCJKjp-Regular-1" transform="translate(439.109375 0)"/>
     <use xlink:href="#NotoSansCJKjp-Regular-f6b1" transform="translate(461.515625 0)"/>
    </g>
    <!-- x 增大，y 傾向減小 -->
    <g style="fill: #d1242f" transform="translate(407.446562 81.964125) scale(0.12 -0.12)">
     <defs>
      <path id="NotoSansCJKjp-Regular-5cce" d="M 4915 5101 
C 5235 4896 5594 4595 5766 4384 
L 6042 4659 
C 5869 4877 5498 5165 5184 5350 
L 4915 5101 
z
M 2669 3411 
L 2669 3040 
L 4205 3040 
L 4205 3411 
L 2669 3411 
z
M 544 4973 
C 922 4787 1370 4499 1594 4288 
L 1882 4678 
C 1651 4890 1190 5152 819 5318 
L 544 4973 
z
M 243 3238 
C 621 3078 1075 2803 1299 2598 
L 1581 2995 
C 1344 3194 883 3443 506 3590 
L 243 3238 
z
M 339 -141 
L 768 -390 
C 1056 218 1382 1050 1626 1747 
L 1242 2003 
C 979 1248 602 378 339 -141 
z
M 2707 2534 
L 2707 416 
L 3053 416 
L 3053 800 
L 4173 800 
L 4173 2534 
L 2707 2534 
z
M 3053 2163 
L 3821 2163 
L 3821 1178 
L 3053 1178 
L 3053 2163 
z
M 4282 5312 
L 4320 4352 
L 1971 4352 
L 1971 2630 
C 1971 1754 1907 576 1338 -275 
C 1434 -320 1626 -448 1702 -525 
C 2304 371 2400 1690 2400 2630 
L 2400 3917 
L 4339 3917 
C 4403 2835 4499 1875 4646 1133 
C 4294 608 3853 179 3309 -147 
C 3405 -224 3571 -384 3635 -467 
C 4077 -173 4454 179 4781 595 
C 4979 -96 5261 -499 5638 -512 
C 5875 -518 6112 -237 6240 806 
C 6157 838 5965 954 5888 1043 
C 5837 410 5760 45 5638 51 
C 5434 64 5254 448 5114 1082 
C 5491 1696 5766 2419 5965 3270 
L 5536 3354 
C 5408 2752 5229 2208 4992 1728 
C 4896 2349 4826 3098 4781 3917 
L 6067 3917 
L 6067 4352 
L 4755 4352 
L 4730 5312 
L 4282 5312 
z
" transform="scale(0.015625)"/>
      <path id="NotoSansCJKjp-Regular-3d78" d="M 2970 5286 
L 2970 154 
C 2970 26 2918 -13 2790 -19 
C 2656 -26 2195 -32 1728 -13 
C 1805 -147 1894 -378 1926 -512 
C 2528 -518 2925 -506 3162 -422 
C 3392 -346 3488 -198 3488 154 
L 3488 5286 
L 2970 5286 
z
M 4512 3654 
C 5062 2733 5581 1536 5728 774 
L 6246 986 
C 6080 1754 5536 2931 4973 3827 
L 4512 3654 
z
M 1293 3782 
C 1133 2925 774 1818 205 1139 
C 339 1082 550 966 659 883 
C 1242 1594 1619 2752 1830 3693 
L 1293 3782 
z
" transform="scale(0.015625)"/>
     </defs>
     <use xlink:href="#NotoSansCJKjp-Regular-59"/>
     <use xlink:href="#NotoSansCJKjp-Regular-1" transform="translate(49.796875 0)"/>
     <use xlink:href="#NotoSansCJKjp-Regular-360c" transform="translate(72.203125 0)"/>
     <use xlink:href="#NotoSansCJKjp-Regular-36fb" transform="translate(172.203125 0)"/>
     <use xlink:href="#NotoSansCJKjp-Regular-e6b2" transform="translate(272.203125 0)"/>
     <use xlink:href="#NotoSansCJKjp-Regular-5a" transform="translate(372.203125 0)"/>
     <use xlink:href="#NotoSansCJKjp-Regular-1" transform="translate(424.296875 0)"/>
     <use xlink:href="#NotoSansCJKjp-Regular-295d" transform="translate(446.703125 0)"/>
     <use xlink:href="#NotoSansCJKjp-Regular-2eb8" transform="translate(546.703125 0)"/>
     <use xlink:href="#NotoSansCJKjp-Regular-5cce" transform="translate(646.703125 0)"/>
     <use xlink:href="#NotoSansCJKjp-Regular-3d78" transform="translate(746.703125 0)"/>
    </g>
   </g>
   <g id="PathCollection_2">
    <defs>
     <path id="m34ba5d648c" d="M 0 3.24037 
C 0.859356 3.24037 1.683631 2.898944 2.291288 2.291288 
C 2.898944 1.683631 3.24037 0.859356 3.24037 0 
C 3.24037 -0.859356 2.898944 -1.683631 2.291288 -2.291288 
C 1.683631 -2.898944 0.859356 -3.24037 0 -3.24037 
C -0.859356 -3.24037 -1.683631 -2.898944 -2.291288 -2.291288 
C -2.898944 -1.683631 -3.24037 -0.859356 -3.24037 0 
C -3.24037 0.859356 -2.898944 1.683631 -2.291288 2.291288 
C -1.683631 2.898944 -0.859356 3.24037 0 3.24037 
z
" style="stroke: #d1242f; stroke-opacity: 0.85"/>
    </defs>
    <g clip-path="url(#p7dcd38b740)">
     <use xlink:href="#m34ba5d648c" x="484.288622" y="193.316647" style="fill: #d1242f; fill-opacity: 0.85; stroke: #d1242f; stroke-opacity: 0.85"/>
     <use xlink:href="#m34ba5d648c" x="540.932775" y="235.409327" style="fill: #d1242f; fill-opacity: 0.85; stroke: #d1242f; stroke-opacity: 0.85"/>
     <use xlink:href="#m34ba5d648c" x="515.635483" y="212.652894" style="fill: #d1242f; fill-opacity: 0.85; stroke: #d1242f; stroke-opacity: 0.85"/>
     <use xlink:href="#m34ba5d648c" x="401.047879" y="163.476126" style="fill: #d1242f; fill-opacity: 0.85; stroke: #d1242f; stroke-opacity: 0.85"/>
     <use xlink:href="#m34ba5d648c" x="416.651364" y="164.377814" style="fill: #d1242f; fill-opacity: 0.85; stroke: #d1242f; stroke-opacity: 0.85"/>
     <use xlink:href="#m34ba5d648c" x="536.007635" y="228.92346" style="fill: #d1242f; fill-opacity: 0.85; stroke: #d1242f; stroke-opacity: 0.85"/>
     <use xlink:href="#m34ba5d648c" x="355.264776" y="108.549322" style="fill: #d1242f; fill-opacity: 0.85; stroke: #d1242f; stroke-opacity: 0.85"/>
     <use xlink:href="#m34ba5d648c" x="525.115658" y="204.437467" style="fill: #d1242f; fill-opacity: 0.85; stroke: #d1242f; stroke-opacity: 0.85"/>
     <use xlink:href="#m34ba5d648c" x="520.086722" y="234.85432" style="fill: #d1242f; fill-opacity: 0.85; stroke: #d1242f; stroke-opacity: 0.85"/>
     <use xlink:href="#m34ba5d648c" x="451.57409" y="187.687237" style="fill: #d1242f; fill-opacity: 0.85; stroke: #d1242f; stroke-opacity: 0.85"/>
     <use xlink:href="#m34ba5d648c" x="417.24798" y="148.15946" style="fill: #d1242f; fill-opacity: 0.85; stroke: #d1242f; stroke-opacity: 0.85"/>
     <use xlink:href="#m34ba5d648c" x="412.125825" y="180.826423" style="fill: #d1242f; fill-opacity: 0.85; stroke: #d1242f; stroke-opacity: 0.85"/>
     <use xlink:href="#m34ba5d648c" x="407.222403" y="157.300892" style="fill: #d1242f; fill-opacity: 0.85; stroke: #d1242f; stroke-opacity: 0.85"/>
     <use xlink:href="#m34ba5d648c" x="446.815834" y="175.485966" style="fill: #d1242f; fill-opacity: 0.85; stroke: #d1242f; stroke-opacity: 0.85"/>
     <use xlink:href="#m34ba5d648c" x="459.195516" y="164.419984" style="fill: #d1242f; fill-opacity: 0.85; stroke: #d1242f; stroke-opacity: 0.85"/>
     <use xlink:href="#m34ba5d648c" x="469.384759" y="178.040817" style="fill: #d1242f; fill-opacity: 0.85; stroke: #d1242f; stroke-opacity: 0.85"/>
     <use xlink:href="#m34ba5d648c" x="561.392089" y="245.521859" style="fill: #d1242f; fill-opacity: 0.85; stroke: #d1242f; stroke-opacity: 0.85"/>
     <use xlink:href="#m34ba5d648c" x="519.169255" y="221.416333" style="fill: #d1242f; fill-opacity: 0.85; stroke: #d1242f; stroke-opacity: 0.85"/>
     <use xlink:href="#m34ba5d648c" x="483.681578" y="199.086895" style="fill: #d1242f; fill-opacity: 0.85; stroke: #d1242f; stroke-opacity: 0.85"/>
     <use xlink:href="#m34ba5d648c" x="560.030694" y="219.721806" style="fill: #d1242f; fill-opacity: 0.85; stroke: #d1242f; stroke-opacity: 0.85"/>
     <use xlink:href="#m34ba5d648c" x="398.987409" y="152.015609" style="fill: #d1242f; fill-opacity: 0.85; stroke: #d1242f; stroke-opacity: 0.85"/>
     <use xlink:href="#m34ba5d648c" x="387.518487" y="143.636088" style="fill: #d1242f; fill-opacity: 0.85; stroke: #d1242f; stroke-opacity: 0.85"/>
     <use xlink:href="#m34ba5d648c" x="481.674994" y="189.770725" style="fill: #d1242f; fill-opacity: 0.85; stroke: #d1242f; stroke-opacity: 0.85"/>
     <use xlink:href="#m34ba5d648c" x="363.315718" y="127.026864" style="fill: #d1242f; fill-opacity: 0.85; stroke: #d1242f; stroke-opacity: 0.85"/>
     <use xlink:href="#m34ba5d648c" x="361.595957" y="127.056023" style="fill: #d1242f; fill-opacity: 0.85; stroke: #d1242f; stroke-opacity: 0.85"/>
     <use xlink:href="#m34ba5d648c" x="461.348007" y="197.712292" style="fill: #d1242f; fill-opacity: 0.85; stroke: #d1242f; stroke-opacity: 0.85"/>
     <use xlink:href="#m34ba5d648c" x="451.214196" y="176.896509" style="fill: #d1242f; fill-opacity: 0.85; stroke: #d1242f; stroke-opacity: 0.85"/>
     <use xlink:href="#m34ba5d648c" x="545.086394" y="237.569137" style="fill: #d1242f; fill-opacity: 0.85; stroke: #d1242f; stroke-opacity: 0.85"/>
     <use xlink:href="#m34ba5d648c" x="485.148487" y="180.808294" style="fill: #d1242f; fill-opacity: 0.85; stroke: #d1242f; stroke-opacity: 0.85"/>
     <use xlink:href="#m34ba5d648c" x="461.187479" y="173.743043" style="fill: #d1242f; fill-opacity: 0.85; stroke: #d1242f; stroke-opacity: 0.85"/>
    </g>
   </g>
  </g>
  <g id="axes_3">
   <g id="patch_8">
    <path d="M 611.40875 273.736 
L 871.60875 273.736 
L 871.60875 87.964125 
L 611.40875 87.964125 
z
" style="fill: #ffffff"/>
   </g>
   <g id="matplotlib.axis_5">
    <g id="xtick_11">
     <g id="line2d_41">
      <path d="M 611.40875 273.736 
L 611.40875 87.964125 
" clip-path="url(#p59f4a6ffbb)" style="fill: none; stroke: #d8dde3; stroke-width: 0.9; stroke-linecap: square"/>
     </g>
     <g id="line2d_42">
      <g>
       <use xlink:href="#m4f478532df" x="611.40875" y="273.736" style="fill: #222831; stroke: #222831; stroke-width: 0.8"/>
      </g>
     </g>
     <g id="text_21">
      <!-- 0 -->
      <g style="fill: #222831" transform="translate(608.07875 291.296) scale(0.12 -0.12)">
       <use xlink:href="#NotoSansCJKjp-Regular-11"/>
      </g>
     </g>
    </g>
    <g id="xtick_12">
     <g id="line2d_43">
      <path d="M 676.45875 273.736 
L 676.45875 87.964125 
" clip-path="url(#p59f4a6ffbb)" style="fill: none; stroke: #d8dde3; stroke-width: 0.9; stroke-linecap: square"/>
     </g>
     <g id="line2d_44">
      <g>
       <use xlink:href="#m4f478532df" x="676.45875" y="273.736" style="fill: #222831; stroke: #222831; stroke-width: 0.8"/>
      </g>
     </g>
     <g id="text_22">
      <!-- 5 -->
      <g style="fill: #222831" transform="translate(673.12875 291.296) scale(0.12 -0.12)">
       <use xlink:href="#NotoSansCJKjp-Regular-16"/>
      </g>
     </g>
    </g>
    <g id="xtick_13">
     <g id="line2d_45">
      <path d="M 741.50875 273.736 
L 741.50875 87.964125 
" clip-path="url(#p59f4a6ffbb)" style="fill: none; stroke: #d8dde3; stroke-width: 0.9; stroke-linecap: square"/>
     </g>
     <g id="line2d_46">
      <g>
       <use xlink:href="#m4f478532df" x="741.50875" y="273.736" style="fill: #222831; stroke: #222831; stroke-width: 0.8"/>
      </g>
     </g>
     <g id="text_23">
      <!-- 10 -->
      <g style="fill: #222831" transform="translate(734.84875 291.296) scale(0.12 -0.12)">
       <use xlink:href="#NotoSansCJKjp-Regular-12"/>
       <use xlink:href="#NotoSansCJKjp-Regular-11" transform="translate(55.5 0)"/>
      </g>
     </g>
    </g>
    <g id="xtick_14">
     <g id="line2d_47">
      <path d="M 806.55875 273.736 
L 806.55875 87.964125 
" clip-path="url(#p59f4a6ffbb)" style="fill: none; stroke: #d8dde3; stroke-width: 0.9; stroke-linecap: square"/>
     </g>
     <g id="line2d_48">
      <g>
       <use xlink:href="#m4f478532df" x="806.55875" y="273.736" style="fill: #222831; stroke: #222831; stroke-width: 0.8"/>
      </g>
     </g>
     <g id="text_24">
      <!-- 15 -->
      <g style="fill: #222831" transform="translate(799.89875 291.296) scale(0.12 -0.12)">
       <use xlink:href="#NotoSansCJKjp-Regular-12"/>
       <use xlink:href="#NotoSansCJKjp-Regular-16" transform="translate(55.5 0)"/>
      </g>
     </g>
    </g>
    <g id="xtick_15">
     <g id="line2d_49">
      <path d="M 871.60875 273.736 
L 871.60875 87.964125 
" clip-path="url(#p59f4a6ffbb)" style="fill: none; stroke: #d8dde3; stroke-width: 0.9; stroke-linecap: square"/>
     </g>
     <g id="line2d_50">
      <g>
       <use xlink:href="#m4f478532df" x="871.60875" y="273.736" style="fill: #222831; stroke: #222831; stroke-width: 0.8"/>
      </g>
     </g>
     <g id="text_25">
      <!-- 20 -->
      <g style="fill: #222831" transform="translate(864.94875 291.296) scale(0.12 -0.12)">
       <use xlink:href="#NotoSansCJKjp-Regular-13"/>
       <use xlink:href="#NotoSansCJKjp-Regular-11" transform="translate(55.5 0)"/>
      </g>
     </g>
    </g>
    <g id="text_26">
     <!-- x -->
     <g style="fill: #222831" transform="translate(738.520937 307.296) scale(0.12 -0.12)">
      <use xlink:href="#NotoSansCJKjp-Regular-59"/>
     </g>
    </g>
   </g>
   <g id="matplotlib.axis_6">
    <g id="ytick_11">
     <g id="line2d_51">
      <path d="M 611.40875 273.736 
L 871.60875 273.736 
" clip-path="url(#p59f4a6ffbb)" style="fill: none; stroke: #d8dde3; stroke-width: 0.9; stroke-linecap: square"/>
     </g>
     <g id="line2d_52">
      <g>
       <use xlink:href="#m0ec4f5f8ee" x="611.40875" y="273.736" style="fill: #222831; stroke: #222831; stroke-width: 0.8"/>
      </g>
     </g>
    </g>
    <g id="ytick_12">
     <g id="line2d_53">
      <path d="M 611.40875 231.515119 
L 871.60875 231.515119 
" clip-path="url(#p59f4a6ffbb)" style="fill: none; stroke: #d8dde3; stroke-width: 0.9; stroke-linecap: square"/>
     </g>
     <g id="line2d_54">
      <g>
       <use xlink:href="#m0ec4f5f8ee" x="611.40875" y="231.515119" style="fill: #222831; stroke: #222831; stroke-width: 0.8"/>
      </g>
     </g>
    </g>
    <g id="ytick_13">
     <g id="line2d_55">
      <path d="M 611.40875 189.294239 
L 871.60875 189.294239 
" clip-path="url(#p59f4a6ffbb)" style="fill: none; stroke: #d8dde3; stroke-width: 0.9; stroke-linecap: square"/>
     </g>
     <g id="line2d_56">
      <g>
       <use xlink:href="#m0ec4f5f8ee" x="611.40875" y="189.294239" style="fill: #222831; stroke: #222831; stroke-width: 0.8"/>
      </g>
     </g>
    </g>
    <g id="ytick_14">
     <g id="line2d_57">
      <path d="M 611.40875 147.073358 
L 871.60875 147.073358 
" clip-path="url(#p59f4a6ffbb)" style="fill: none; stroke: #d8dde3; stroke-width: 0.9; stroke-linecap: square"/>
     </g>
     <g id="line2d_58">
      <g>
       <use xlink:href="#m0ec4f5f8ee" x="611.40875" y="147.073358" style="fill: #222831; stroke: #222831; stroke-width: 0.8"/>
      </g>
     </g>
    </g>
    <g id="ytick_15">
     <g id="line2d_59">
      <path d="M 611.40875 104.852477 
L 871.60875 104.852477 
" clip-path="url(#p59f4a6ffbb)" style="fill: none; stroke: #d8dde3; stroke-width: 0.9; stroke-linecap: square"/>
     </g>
     <g id="line2d_60">
      <g>
       <use xlink:href="#m0ec4f5f8ee" x="611.40875" y="104.852477" style="fill: #222831; stroke: #222831; stroke-width: 0.8"/>
      </g>
     </g>
    </g>
   </g>
   <g id="patch_9">
    <path d="M 611.40875 273.736 
L 611.40875 87.964125 
" style="fill: none; stroke: #222831; stroke-width: 1.1; stroke-linejoin: miter; stroke-linecap: square"/>
   </g>
   <g id="patch_10">
    <path d="M 611.40875 273.736 
L 871.60875 273.736 
" style="fill: none; stroke: #222831; stroke-width: 1.1; stroke-linejoin: miter; stroke-linecap: square"/>
   </g>
   <g id="text_27">
    <!-- 近乎無相關 r ≈ 0 -->
    <g style="fill: #bf8700" transform="translate(695.817812 69.964125) scale(0.12 -0.12)">
     <defs>
      <path id="NotoSansCJKjp-Regular-9ca3" d="M 384 4934 
C 794 4646 1274 4218 1478 3904 
L 1862 4224 
C 1632 4531 1152 4947 730 5222 
L 384 4934 
z
M 5331 5350 
C 4806 5158 3885 4986 3040 4864 
L 2656 4947 
L 2656 3456 
C 2656 2662 2573 1645 1869 890 
C 1984 826 2157 659 2221 557 
C 2886 1267 3072 2240 3110 3040 
L 4429 3040 
L 4429 390 
L 4902 390 
L 4902 3040 
L 6093 3040 
L 6093 3488 
L 3123 3488 
L 3123 4461 
C 4026 4576 5043 4755 5747 4992 
L 5331 5350 
z
M 1677 2848 
L 314 2848 
L 314 2400 
L 1210 2400 
L 1210 768 
C 890 499 518 230 230 32 
L 480 -461 
C 826 -173 1152 102 1459 378 
C 1869 -128 2445 -358 3283 -390 
C 3994 -416 5318 -403 6016 -371 
C 6035 -224 6118 6 6176 115 
C 5414 64 3981 45 3283 77 
C 2541 102 1978 326 1677 794 
L 1677 2848 
z
" transform="scale(0.015625)"/>
      <path id="NotoSansCJKjp-Regular-2572" d="M 1056 4013 
C 1306 3558 1568 2963 1658 2592 
L 2106 2765 
C 2003 3130 1734 3718 1472 4154 
L 1056 4013 
z
M 5005 4269 
C 4845 3808 4550 3162 4307 2765 
L 4704 2605 
C 4954 2982 5267 3590 5517 4096 
L 5005 4269 
z
M 346 2355 
L 346 1862 
L 3002 1862 
L 3002 141 
C 3002 6 2950 -32 2803 -38 
C 2656 -45 2157 -51 1619 -26 
C 1702 -166 1792 -384 1824 -518 
C 2502 -518 2925 -512 3162 -435 
C 3411 -358 3514 -211 3514 141 
L 3514 1862 
L 6067 1862 
L 6067 2355 
L 3514 2355 
L 3514 4531 
C 4256 4608 4954 4710 5491 4851 
L 5242 5286 
C 4192 5011 2304 4851 762 4794 
C 806 4678 864 4493 870 4365 
C 1542 4384 2285 4416 3002 4480 
L 3002 2355 
L 346 2355 
z
" transform="scale(0.015625)"/>
      <path id="NotoSansCJKjp-Regular-625b" d="M 2208 723 
C 2291 346 2336 -154 2342 -454 
L 2810 -390 
C 2803 -96 2733 390 2650 768 
L 2208 723 
z
M 3514 723 
C 3680 346 3840 -154 3904 -461 
L 4378 -358 
C 4314 -58 4134 435 3962 806 
L 3514 723 
z
M 4819 768 
C 5139 371 5504 -179 5664 -525 
L 6138 -352 
C 5971 -6 5594 531 5274 915 
L 4819 768 
z
M 1088 890 
C 934 422 634 -64 301 -333 
L 749 -518 
C 1094 -211 1382 294 1549 774 
L 1088 890 
z
M 442 1600 
L 442 1158 
L 5978 1158 
L 5978 1600 
L 5158 1600 
L 5158 2688 
L 6061 2688 
L 6061 3130 
L 5158 3130 
L 5158 4205 
L 5824 4205 
L 5824 4640 
L 1760 4640 
C 1888 4838 2003 5037 2106 5242 
L 1638 5376 
C 1331 4730 813 4102 269 3699 
C 384 3629 576 3469 659 3386 
C 851 3546 1050 3738 1242 3955 
L 1242 3130 
L 346 3130 
L 346 2688 
L 1242 2688 
L 1242 1600 
L 442 1600 
z
M 2381 4205 
L 2381 3130 
L 1670 3130 
L 1670 4205 
L 2381 4205 
z
M 2803 4205 
L 3539 4205 
L 3539 3130 
L 2803 3130 
L 2803 4205 
z
M 3955 4205 
L 4710 4205 
L 4710 3130 
L 3955 3130 
L 3955 4205 
z
M 2381 2688 
L 2381 1600 
L 1670 1600 
L 1670 2688 
L 2381 2688 
z
M 2803 2688 
L 3539 2688 
L 3539 1600 
L 2803 1600 
L 2803 2688 
z
M 3955 2688 
L 4710 2688 
L 4710 1600 
L 3955 1600 
L 3955 2688 
z
" transform="scale(0.015625)"/>
      <path id="NotoSansCJKjp-Regular-358" d="M 3290 1875 
C 2970 2106 2656 2266 2259 2266 
C 1677 2266 1152 1933 806 1350 
L 1171 1088 
C 1434 1568 1850 1830 2259 1830 
C 2579 1830 2810 1677 3091 1478 
C 3418 1254 3725 1088 4128 1088 
C 4710 1088 5229 1421 5574 2010 
L 5216 2266 
C 4954 1792 4538 1530 4128 1530 
C 3802 1530 3571 1683 3290 1875 
z
M 3290 3386 
C 2970 3610 2656 3776 2259 3776 
C 1677 3776 1152 3443 806 2854 
L 1171 2598 
C 1434 3072 1850 3334 2259 3334 
C 2579 3334 2810 3181 3091 2989 
C 3418 2758 3725 2598 4128 2598 
C 4710 2598 5229 2931 5574 3514 
L 5216 3776 
C 4954 3296 4538 3034 4128 3034 
C 3802 3034 3571 3187 3290 3386 
z
" transform="scale(0.015625)"/>
     </defs>
     <use xlink:href="#NotoSansCJKjp-Regular-9ca3"/>
     <use xlink:href="#NotoSansCJKjp-Regular-2572" transform="translate(100 0)"/>
     <use xlink:href="#NotoSansCJKjp-Regular-625b" transform="translate(200 0)"/>
     <use xlink:href="#NotoSansCJKjp-Regular-6ce8" transform="translate(300 0)"/>
     <use xlink:href="#NotoSansCJKjp-Regular-a7ee" transform="translate(400 0)"/>
     <use xlink:href="#NotoSansCJKjp-Regular-1" transform="translate(500 0)"/>
     <use xlink:href="#NotoSansCJKjp-Regular-53" transform="translate(522.40625 0)"/>
     <use xlink:href="#NotoSansCJKjp-Regular-1" transform="translate(561.203125 0)"/>
     <use xlink:href="#NotoSansCJKjp-Regular-358" transform="translate(583.609375 0)"/>
     <use xlink:href="#NotoSansCJKjp-Regular-1" transform="translate(683.609375 0)"/>
     <use xlink:href="#NotoSansCJKjp-Regular-f6b1" transform="translate(706.015625 0)"/>
    </g>
    <!-- 看不出隨 x 的趨勢 -->
    <g style="fill: #bf8700" transform="translate(693.832187 81.964125) scale(0.12 -0.12)">
     <defs>
      <path id="NotoSansCJKjp-Regular-6d07" d="M 2125 1370 
L 4915 1370 
L 4915 922 
L 2125 922 
L 2125 1370 
z
M 2125 1709 
L 2125 2144 
L 4915 2144 
L 4915 1709 
L 2125 1709 
z
M 2125 589 
L 4915 589 
L 4915 115 
L 2125 115 
L 2125 589 
z
M 5286 5325 
C 4262 5120 2317 5024 755 5011 
C 800 4909 845 4749 851 4640 
C 1408 4640 2010 4653 2611 4678 
C 2566 4531 2522 4384 2470 4237 
L 845 4237 
L 845 3853 
L 2330 3853 
C 2266 3693 2195 3533 2112 3373 
L 378 3373 
L 378 2976 
L 1894 2976 
C 1491 2298 941 1709 211 1293 
C 314 1197 454 1024 518 915 
C 960 1178 1338 1498 1664 1862 
L 1664 -525 
L 2125 -525 
L 2125 -269 
L 4915 -269 
L 4915 -525 
L 5395 -525 
L 5395 2528 
L 2176 2528 
C 2272 2675 2362 2822 2445 2976 
L 6022 2976 
L 6022 3373 
L 2643 3373 
C 2720 3533 2790 3693 2854 3853 
L 5651 3853 
L 5651 4237 
L 2995 4237 
L 3142 4704 
C 4064 4762 4947 4851 5594 4979 
L 5286 5325 
z
" transform="scale(0.015625)"/>
      <path id="NotoSansCJKjp-Regular-2518" d="M 3578 3059 
C 4339 2547 5299 1792 5754 1299 
L 6144 1670 
C 5664 2163 4691 2880 3936 3366 
L 3578 3059 
z
M 442 4928 
L 442 4435 
L 3290 4435 
C 2656 3341 1555 2259 282 1632 
C 384 1523 531 1331 608 1210 
C 1498 1677 2291 2336 2938 3078 
L 2938 -499 
L 3456 -499 
L 3456 3738 
C 3622 3962 3770 4198 3904 4435 
L 5958 4435 
L 5958 4928 
L 442 4928 
z
" transform="scale(0.015625)"/>
      <path id="NotoSansCJKjp-Regular-2b73" d="M 966 4768 
L 966 2560 
L 2918 2560 
L 2918 365 
L 1203 365 
L 1203 2144 
L 723 2144 
L 723 -512 
L 1203 -512 
L 1203 -109 
L 5222 -109 
L 5222 -499 
L 5715 -499 
L 5715 2144 
L 5222 2144 
L 5222 365 
L 3418 365 
L 3418 2560 
L 5459 2560 
L 5459 4768 
L 4960 4768 
L 4960 3021 
L 3418 3021 
L 3418 5344 
L 2918 5344 
L 2918 3021 
L 1446 3021 
L 1446 4768 
L 966 4768 
z
" transform="scale(0.015625)"/>
      <path id="NotoSansCJKjp-Regular-a918" d="M 2246 4986 
C 2470 4723 2714 4365 2810 4128 
L 3174 4365 
C 3072 4602 2822 4947 2598 5197 
L 2246 4986 
z
M 2048 3610 
C 2291 3360 2560 3008 2675 2771 
L 3021 3027 
C 2906 3258 2630 3590 2374 3827 
L 2048 3610 
z
M 4064 5382 
C 4026 5190 3981 5011 3923 4832 
L 3194 4832 
L 3194 4480 
L 3802 4480 
C 3610 4006 3347 3597 3008 3302 
C 3104 3238 3277 3104 3341 3034 
C 3635 3322 3885 3693 4083 4122 
L 4083 3821 
L 4723 3821 
L 4723 3405 
L 3731 3405 
L 3731 3085 
L 6131 3085 
L 6131 3405 
L 5146 3405 
L 5146 3821 
L 5869 3821 
L 5869 4134 
L 4090 4134 
C 4141 4243 4186 4358 4230 4480 
L 6093 4480 
L 6093 4832 
L 4352 4832 
C 4397 4986 4435 5146 4474 5312 
L 4064 5382 
z
M 4064 1754 
L 5376 1754 
L 5376 1414 
L 4064 1414 
L 4064 1754 
z
M 4064 2061 
L 4064 2400 
L 5376 2400 
L 5376 2061 
L 4064 2061 
z
M 3648 2733 
L 3648 307 
L 4064 307 
L 4064 1094 
L 5376 1094 
L 5376 698 
C 5376 646 5357 627 5293 627 
C 5235 627 5050 621 4832 627 
C 4883 531 4934 397 4954 294 
C 5280 294 5491 294 5632 352 
C 5760 416 5798 512 5798 704 
L 5798 2733 
L 3648 2733 
z
M 3098 2253 
L 2144 2253 
L 2144 1850 
L 2682 1850 
L 2682 678 
C 2413 410 2106 141 1850 -64 
L 2086 -480 
C 2374 -198 2643 70 2899 346 
C 3194 -109 3629 -384 4250 -410 
C 4730 -429 5600 -422 6086 -397 
C 6106 -269 6170 -70 6221 32 
C 5690 -6 4736 -19 4262 0 
C 3718 26 3309 294 3098 717 
L 3098 2253 
z
M 506 5101 
L 506 -512 
L 934 -512 
L 934 4666 
L 1587 4666 
C 1478 4224 1331 3635 1171 3168 
C 1555 2637 1638 2189 1638 1830 
C 1638 1626 1606 1434 1530 1370 
C 1485 1331 1427 1312 1363 1312 
C 1286 1306 1184 1312 1075 1318 
C 1139 1197 1178 1030 1178 915 
C 1299 909 1427 915 1530 922 
C 1638 941 1741 973 1818 1037 
C 1971 1158 2042 1440 2042 1779 
C 2042 2189 1958 2662 1568 3213 
C 1747 3738 1946 4410 2099 4947 
L 1805 5120 
L 1741 5101 
L 506 5101 
z
" transform="scale(0.015625)"/>
      <path id="NotoSansCJKjp-Regular-6c33" d="M 3533 2707 
C 3885 2240 4320 1600 4512 1210 
L 4922 1466 
C 4710 1843 4269 2464 3904 2918 
L 3533 2707 
z
M 1536 5389 
C 1485 5082 1376 4659 1274 4346 
L 557 4346 
L 557 -346 
L 998 -346 
L 998 160 
L 2784 160 
L 2784 4346 
L 1715 4346 
C 1824 4621 1946 4979 2054 5299 
L 1536 5389 
z
M 998 3917 
L 2342 3917 
L 2342 2566 
L 998 2566 
L 998 3917 
z
M 998 595 
L 998 2144 
L 2342 2144 
L 2342 595 
L 998 595 
z
M 3827 5402 
C 3622 4518 3277 3635 2835 3066 
C 2950 3002 3149 2867 3238 2790 
C 3456 3098 3661 3488 3840 3923 
L 5478 3923 
C 5402 1357 5299 371 5094 154 
C 5018 64 4947 45 4819 45 
C 4672 45 4288 51 3866 83 
C 3955 -38 4013 -243 4026 -378 
C 4384 -397 4762 -410 4979 -390 
C 5210 -365 5350 -314 5498 -122 
C 5754 192 5843 1184 5939 4122 
C 5946 4186 5946 4365 5946 4365 
L 4013 4365 
C 4115 4666 4211 4986 4288 5299 
L 3827 5402 
z
" transform="scale(0.015625)"/>
      <path id="NotoSansCJKjp-Regular-98f8" d="M 627 2483 
C 646 1632 602 550 154 -224 
C 250 -269 403 -403 467 -499 
C 704 -102 845 358 928 838 
C 1408 -122 2195 -346 3597 -346 
L 5984 -346 
C 6010 -205 6099 19 6176 128 
C 5792 115 3898 115 3597 115 
C 2886 115 2342 179 1933 390 
L 1933 1747 
L 2592 1747 
L 2579 1734 
C 2682 1677 2861 1549 2944 1478 
L 3098 1638 
L 3098 1024 
L 3795 1024 
C 3661 838 3386 659 2835 544 
C 2918 474 3008 358 3053 275 
C 3782 461 4090 730 4205 1024 
L 5107 1024 
L 5107 1914 
L 4762 1914 
L 4762 1350 
L 4275 1350 
L 4275 1408 
L 4275 2042 
L 3910 2042 
L 3910 1408 
L 3910 1350 
L 3437 1350 
L 3437 1914 
L 3328 1914 
C 3405 2016 3482 2125 3558 2240 
L 5562 2240 
C 5498 1254 5440 877 5344 768 
C 5299 717 5242 704 5152 710 
C 5069 710 4858 710 4614 736 
C 4672 640 4710 493 4717 390 
C 4966 378 5216 378 5338 390 
C 5498 397 5606 429 5690 538 
C 5843 704 5920 1165 5990 2413 
C 5997 2470 5997 2592 5997 2592 
L 3757 2592 
C 3814 2701 3866 2810 3910 2918 
L 3731 2963 
C 4038 3110 4192 3290 4256 3482 
L 5120 3482 
L 5120 4326 
L 4774 4326 
L 4774 3789 
L 4301 3789 
L 4301 4448 
L 3962 4448 
L 3962 3789 
L 3494 3789 
L 3494 4326 
L 3405 4326 
C 3475 4429 3552 4531 3616 4640 
L 5542 4640 
C 5485 3725 5421 3366 5331 3264 
C 5286 3213 5235 3206 5152 3206 
C 5069 3206 4858 3206 4621 3232 
C 4672 3142 4710 3002 4717 2906 
C 4966 2886 5203 2893 5331 2899 
C 5485 2912 5594 2944 5677 3046 
C 5824 3206 5894 3642 5958 4813 
C 5965 4870 5971 4992 5971 4992 
L 3821 4992 
C 3872 5094 3917 5203 3962 5306 
L 3546 5408 
C 3347 4915 3008 4429 2630 4102 
C 2733 4045 2912 3923 2989 3859 
L 3168 4045 
L 3168 3482 
L 3885 3482 
C 3763 3290 3494 3117 2893 3008 
C 2963 2938 3046 2829 3078 2752 
C 3200 2778 3309 2803 3405 2835 
C 3238 2483 3002 2144 2739 1882 
L 2739 2176 
L 1933 2176 
L 1933 2982 
L 2816 2982 
L 2816 3418 
L 1811 3418 
L 1811 4173 
L 2650 4173 
L 2650 4595 
L 1811 4595 
L 1811 5376 
L 1370 5376 
L 1370 4595 
L 474 4595 
L 474 4173 
L 1370 4173 
L 1370 3418 
L 314 3418 
L 314 2982 
L 1504 2982 
L 1504 717 
C 1293 941 1133 1254 1011 1677 
C 1024 1946 1030 2208 1024 2458 
L 627 2483 
z
" transform="scale(0.015625)"/>
      <path id="NotoSansCJKjp-Regular-2cd9" d="M 582 2995 
L 582 2669 
L 1562 2669 
L 1562 2234 
L 301 2157 
L 333 1786 
C 1062 1843 2093 1926 3098 2003 
L 3104 2349 
L 2003 2266 
L 2003 2669 
L 3008 2669 
L 3008 2995 
L 2003 2995 
L 2003 3354 
L 1562 3354 
L 1562 2995 
L 582 2995 
z
M 1562 5376 
L 1562 5005 
L 602 5005 
L 602 4678 
L 1562 4678 
L 1562 4339 
L 346 4339 
L 346 4000 
L 1139 4000 
C 1043 3667 730 3494 314 3398 
C 384 3322 480 3174 512 3091 
C 1037 3245 1421 3520 1523 4000 
L 2010 4000 
L 2010 3706 
C 2010 3373 2093 3302 2445 3302 
C 2515 3302 2797 3302 2861 3302 
C 3110 3302 3213 3392 3238 3706 
C 3142 3725 2995 3763 2925 3821 
C 2912 3616 2893 3590 2803 3590 
C 2746 3590 2541 3590 2496 3590 
C 2400 3590 2387 3603 2387 3706 
L 2387 4000 
L 3245 4000 
L 3245 4339 
L 2003 4339 
L 2003 4678 
L 2976 4678 
L 2976 5005 
L 2003 5005 
L 2003 5376 
L 1562 5376 
z
M 2918 1773 
C 2899 1632 2874 1504 2842 1382 
L 717 1382 
L 717 998 
L 2701 998 
C 2406 410 1792 51 365 -128 
C 442 -230 550 -410 582 -525 
C 2227 -288 2906 192 3219 998 
L 5062 998 
C 4986 346 4902 58 4794 -38 
C 4736 -90 4672 -96 4538 -96 
C 4410 -96 4045 -90 3680 -58 
C 3757 -179 3814 -358 3821 -493 
C 4192 -512 4544 -512 4730 -506 
C 4928 -493 5056 -454 5184 -346 
C 5357 -173 5466 230 5568 1178 
C 5581 1242 5587 1382 5587 1382 
L 3334 1382 
C 3366 1504 3392 1638 3411 1773 
L 2918 1773 
z
M 4122 5376 
L 4102 4614 
L 3392 4614 
L 3392 4211 
L 4077 4211 
C 4058 3968 4032 3744 3987 3539 
C 3821 3635 3654 3725 3494 3802 
L 3283 3494 
C 3475 3398 3686 3283 3885 3155 
C 3744 2726 3501 2394 3104 2138 
C 3200 2074 3334 1920 3386 1830 
C 3808 2106 4070 2464 4243 2925 
C 4467 2765 4659 2605 4794 2464 
L 5018 2822 
C 4864 2976 4627 3149 4358 3322 
C 4422 3590 4461 3885 4493 4211 
L 5146 4211 
C 5158 2726 5203 1702 5798 1702 
C 6131 1702 6208 1965 6246 2662 
C 6157 2720 6042 2822 5952 2918 
C 5946 2464 5920 2118 5837 2125 
C 5574 2125 5574 3187 5581 4614 
L 4518 4614 
L 4544 5376 
L 4122 5376 
z
" transform="scale(0.015625)"/>
     </defs>
     <use xlink:href="#NotoSansCJKjp-Regular-6d07"/>
     <use xlink:href="#NotoSansCJKjp-Regular-2518" transform="translate(100 0)"/>
     <use xlink:href="#NotoSansCJKjp-Regular-2b73" transform="translate(200 0)"/>
     <use xlink:href="#NotoSansCJKjp-Regular-a918" transform="translate(300 0)"/>
     <use xlink:href="#NotoSansCJKjp-Regular-1" transform="translate(400 0)"/>
     <use xlink:href="#NotoSansCJKjp-Regular-59" transform="translate(422.40625 0)"/>
     <use xlink:href="#NotoSansCJKjp-Regular-1" transform="translate(472.203125 0)"/>
     <use xlink:href="#NotoSansCJKjp-Regular-6c33" transform="translate(494.609375 0)"/>
     <use xlink:href="#NotoSansCJKjp-Regular-98f8" transform="translate(594.609375 0)"/>
     <use xlink:href="#NotoSansCJKjp-Regular-2cd9" transform="translate(694.609375 0)"/>
    </g>
   </g>
   <g id="PathCollection_3">
    <defs>
     <path id="m497b59e1f4" d="M 0 3.24037 
C 0.859356 3.24037 1.683631 2.898944 2.291288 2.291288 
C 2.898944 1.683631 3.24037 0.859356 3.24037 0 
C 3.24037 -0.859356 2.898944 -1.683631 2.291288 -2.291288 
C 1.683631 -2.898944 0.859356 -3.24037 0 -3.24037 
C -0.859356 -3.24037 -1.683631 -2.898944 -2.291288 -2.291288 
C -2.898944 -1.683631 -3.24037 -0.859356 -3.24037 0 
C -3.24037 0.859356 -2.898944 1.683631 -2.291288 2.291288 
C -1.683631 2.898944 -0.859356 3.24037 0 3.24037 
z
" style="stroke: #bf8700; stroke-opacity: 0.85"/>
    </defs>
    <g clip-path="url(#p59f4a6ffbb)">
     <use xlink:href="#m497b59e1f4" x="767.548622" y="138.464513" style="fill: #bf8700; fill-opacity: 0.85; stroke: #bf8700; stroke-opacity: 0.85"/>
     <use xlink:href="#m497b59e1f4" x="824.192775" y="193.654106" style="fill: #bf8700; fill-opacity: 0.85; stroke: #bf8700; stroke-opacity: 0.85"/>
     <use xlink:href="#m497b59e1f4" x="798.895483" y="182.858398" style="fill: #bf8700; fill-opacity: 0.85; stroke: #bf8700; stroke-opacity: 0.85"/>
     <use xlink:href="#m497b59e1f4" x="684.307879" y="213.321188" style="fill: #bf8700; fill-opacity: 0.85; stroke: #bf8700; stroke-opacity: 0.85"/>
     <use xlink:href="#m497b59e1f4" x="699.911364" y="155.338528" style="fill: #bf8700; fill-opacity: 0.85; stroke: #bf8700; stroke-opacity: 0.85"/>
     <use xlink:href="#m497b59e1f4" x="819.267635" y="253.443379" style="fill: #bf8700; fill-opacity: 0.85; stroke: #bf8700; stroke-opacity: 0.85"/>
     <use xlink:href="#m497b59e1f4" x="638.524776" y="206.56288" style="fill: #bf8700; fill-opacity: 0.85; stroke: #bf8700; stroke-opacity: 0.85"/>
     <use xlink:href="#m497b59e1f4" x="808.375658" y="252.747116" style="fill: #bf8700; fill-opacity: 0.85; stroke: #bf8700; stroke-opacity: 0.85"/>
     <use xlink:href="#m497b59e1f4" x="803.346722" y="240.244087" style="fill: #bf8700; fill-opacity: 0.85; stroke: #bf8700; stroke-opacity: 0.85"/>
     <use xlink:href="#m497b59e1f4" x="734.83409" y="126.179327" style="fill: #bf8700; fill-opacity: 0.85; stroke: #bf8700; stroke-opacity: 0.85"/>
     <use xlink:href="#m497b59e1f4" x="700.50798" y="167.979688" style="fill: #bf8700; fill-opacity: 0.85; stroke: #bf8700; stroke-opacity: 0.85"/>
     <use xlink:href="#m497b59e1f4" x="695.385825" y="198.992173" style="fill: #bf8700; fill-opacity: 0.85; stroke: #bf8700; stroke-opacity: 0.85"/>
     <use xlink:href="#m497b59e1f4" x="690.482403" y="186.086788" style="fill: #bf8700; fill-opacity: 0.85; stroke: #bf8700; stroke-opacity: 0.85"/>
     <use xlink:href="#m497b59e1f4" x="730.075834" y="138.925173" style="fill: #bf8700; fill-opacity: 0.85; stroke: #bf8700; stroke-opacity: 0.85"/>
     <use xlink:href="#m497b59e1f4" x="742.455516" y="210.34244" style="fill: #bf8700; fill-opacity: 0.85; stroke: #bf8700; stroke-opacity: 0.85"/>
     <use xlink:href="#m497b59e1f4" x="752.644759" y="177.095311" style="fill: #bf8700; fill-opacity: 0.85; stroke: #bf8700; stroke-opacity: 0.85"/>
     <use xlink:href="#m497b59e1f4" x="844.652089" y="164.477227" style="fill: #bf8700; fill-opacity: 0.85; stroke: #bf8700; stroke-opacity: 0.85"/>
     <use xlink:href="#m497b59e1f4" x="802.429255" y="208.828823" style="fill: #bf8700; fill-opacity: 0.85; stroke: #bf8700; stroke-opacity: 0.85"/>
     <use xlink:href="#m497b59e1f4" x="766.941578" y="186.713903" style="fill: #bf8700; fill-opacity: 0.85; stroke: #bf8700; stroke-opacity: 0.85"/>
     <use xlink:href="#m497b59e1f4" x="843.290694" y="153.457509" style="fill: #bf8700; fill-opacity: 0.85; stroke: #bf8700; stroke-opacity: 0.85"/>
     <use xlink:href="#m497b59e1f4" x="682.247409" y="134.011323" style="fill: #bf8700; fill-opacity: 0.85; stroke: #bf8700; stroke-opacity: 0.85"/>
     <use xlink:href="#m497b59e1f4" x="670.778487" y="236.438104" style="fill: #bf8700; fill-opacity: 0.85; stroke: #bf8700; stroke-opacity: 0.85"/>
     <use xlink:href="#m497b59e1f4" x="764.934994" y="130.736324" style="fill: #bf8700; fill-opacity: 0.85; stroke: #bf8700; stroke-opacity: 0.85"/>
     <use xlink:href="#m497b59e1f4" x="646.575718" y="256.147948" style="fill: #bf8700; fill-opacity: 0.85; stroke: #bf8700; stroke-opacity: 0.85"/>
     <use xlink:href="#m497b59e1f4" x="644.855957" y="155.115253" style="fill: #bf8700; fill-opacity: 0.85; stroke: #bf8700; stroke-opacity: 0.85"/>
     <use xlink:href="#m497b59e1f4" x="744.608007" y="147.339947" style="fill: #bf8700; fill-opacity: 0.85; stroke: #bf8700; stroke-opacity: 0.85"/>
     <use xlink:href="#m497b59e1f4" x="734.474196" y="238.369892" style="fill: #bf8700; fill-opacity: 0.85; stroke: #bf8700; stroke-opacity: 0.85"/>
     <use xlink:href="#m497b59e1f4" x="828.346394" y="200.250908" style="fill: #bf8700; fill-opacity: 0.85; stroke: #bf8700; stroke-opacity: 0.85"/>
     <use xlink:href="#m497b59e1f4" x="768.408487" y="146.700966" style="fill: #bf8700; fill-opacity: 0.85; stroke: #bf8700; stroke-opacity: 0.85"/>
     <use xlink:href="#m497b59e1f4" x="744.447479" y="254.919513" style="fill: #bf8700; fill-opacity: 0.85; stroke: #bf8700; stroke-opacity: 0.85"/>
    </g>
   </g>
  </g>
  <g id="text_28">
   <!-- 散布圖：點的「整體走向」就是相關的方向 -->
   <g style="fill: #222831" transform="translate(304.56875 19.52) scale(0.14 -0.14)">
    <defs>
     <path id="NotoSansCJKjp-Regular-4e06" d="M 2272 5325 
L 2272 4602 
L 1446 4602 
L 1446 5325 
L 1005 5325 
L 1005 4602 
L 358 4602 
L 358 4198 
L 1005 4198 
L 1005 3437 
L 256 3437 
L 256 3021 
L 3386 3021 
L 3386 3437 
L 2720 3437 
L 2720 4198 
L 3373 4198 
L 3373 4602 
L 2720 4602 
L 2720 5325 
L 2272 5325 
z
M 1446 4198 
L 2272 4198 
L 2272 3437 
L 1446 3437 
L 1446 4198 
z
M 1158 1395 
L 2560 1395 
L 2560 941 
L 1158 941 
L 1158 1395 
z
M 1158 1766 
L 1158 2214 
L 2560 2214 
L 2560 1766 
L 1158 1766 
z
M 710 2592 
L 710 -512 
L 1158 -512 
L 1158 570 
L 2560 570 
L 2560 -6 
C 2560 -77 2541 -102 2464 -102 
C 2387 -109 2138 -109 1862 -96 
C 1920 -211 1984 -384 2003 -499 
C 2394 -499 2650 -499 2810 -435 
C 2970 -358 3014 -237 3014 -13 
L 3014 2592 
L 710 2592 
z
M 4154 3738 
L 5242 3738 
C 5133 2938 4966 2246 4704 1670 
C 4448 2266 4262 2950 4141 3686 
L 4154 3738 
z
M 4026 5376 
C 3872 4294 3590 3232 3130 2547 
C 3232 2458 3398 2253 3462 2150 
C 3616 2381 3757 2650 3878 2944 
C 4019 2298 4205 1696 4442 1178 
C 4109 634 3654 211 3040 -109 
C 3130 -211 3277 -416 3322 -525 
C 3898 -198 4346 205 4691 704 
C 4998 192 5376 -230 5856 -518 
C 5933 -384 6086 -198 6195 -109 
C 5683 166 5280 602 4966 1152 
C 5344 1850 5568 2701 5722 3738 
L 6150 3738 
L 6150 4186 
L 4275 4186 
C 4365 4550 4442 4922 4499 5306 
L 4026 5376 
z
" transform="scale(0.015625)"/>
     <path id="NotoSansCJKjp-Regular-412d" d="M 2554 5382 
C 2464 5056 2349 4723 2214 4397 
L 390 4397 
L 390 3930 
L 2003 3930 
C 1574 3078 979 2291 198 1760 
C 288 1658 416 1472 486 1350 
C 832 1594 1146 1882 1421 2195 
L 1421 83 
L 1901 83 
L 1901 2304 
L 3258 2304 
L 3258 -518 
L 3744 -518 
L 3744 2304 
L 5190 2304 
L 5190 698 
C 5190 608 5158 582 5050 576 
C 4947 576 4576 570 4166 582 
C 4230 461 4307 282 4326 147 
C 4877 147 5216 147 5414 224 
C 5613 301 5670 435 5670 691 
L 5670 2758 
L 5190 2758 
L 3744 2758 
L 3744 3622 
L 3258 3622 
L 3258 2758 
L 1862 2758 
C 2118 3130 2342 3520 2534 3930 
L 6022 3930 
L 6022 4397 
L 2739 4397 
C 2854 4685 2957 4979 3046 5267 
L 2554 5382 
z
" transform="scale(0.015625)"/>
     <path id="NotoSansCJKjp-Regular-33ac" d="M 2317 4122 
L 4058 4122 
L 4058 3699 
L 2317 3699 
L 2317 4122 
z
M 2099 2234 
L 4275 2234 
L 4275 806 
L 2099 806 
L 2099 2234 
z
M 1715 2534 
L 1715 506 
L 4678 506 
L 4678 2534 
L 1715 2534 
z
M 2810 1709 
L 3552 1709 
L 3552 1331 
L 2810 1331 
L 2810 1709 
z
M 2509 1965 
L 2509 1082 
L 3872 1082 
L 3872 1965 
L 2509 1965 
z
M 1280 3117 
L 1280 2816 
L 5133 2816 
L 5133 3117 
L 3386 3117 
L 3386 3411 
L 4474 3411 
L 4474 4403 
L 1920 4403 
L 1920 3411 
L 2970 3411 
L 2970 3117 
L 1280 3117 
z
M 525 5114 
L 525 -506 
L 979 -506 
L 979 -250 
L 5421 -250 
L 5421 -506 
L 5888 -506 
L 5888 5114 
L 525 5114 
z
M 979 154 
L 979 4710 
L 5421 4710 
L 5421 154 
L 979 154 
z
" transform="scale(0.015625)"/>
     <path id="NotoSansCJKjp-Regular-e6c0" d="M 3200 3482 
C 3456 3482 3686 3667 3686 3962 
C 3686 4256 3456 4442 3200 4442 
C 2944 4442 2714 4256 2714 3962 
C 2714 3667 2944 3482 3200 3482 
z
M 3200 346 
C 3456 346 3686 538 3686 826 
C 3686 1120 3456 1312 3200 1312 
C 2944 1312 2714 1120 2714 826 
C 2714 538 2944 346 3200 346 
z
" transform="scale(0.015625)"/>
     <path id="NotoSansCJKjp-Regular-b7c4" d="M 966 4474 
C 1069 4166 1152 3757 1165 3494 
L 1421 3565 
C 1402 3821 1312 4230 1203 4538 
L 966 4474 
z
M 1178 813 
C 1267 454 1338 0 1331 -307 
L 1664 -262 
C 1664 38 1594 499 1498 851 
L 1178 813 
z
M 1792 851 
C 1939 518 2067 90 2106 -192 
L 2432 -115 
C 2387 166 2246 589 2099 915 
L 1792 851 
z
M 2406 934 
C 2618 634 2848 224 2938 -45 
L 3258 96 
C 3162 365 2931 762 2701 1056 
L 2406 934 
z
M 634 838 
C 582 390 454 -70 205 -333 
L 538 -512 
C 806 -224 915 269 973 742 
L 634 838 
z
M 2272 4557 
C 2214 4262 2086 3808 1997 3533 
L 2202 3456 
C 2317 3706 2445 4122 2554 4454 
L 2272 4557 
z
M 4314 5363 
L 4314 2330 
L 3379 2330 
L 3379 -506 
L 3827 -506 
L 3827 -211 
L 5440 -211 
L 5440 -480 
L 5901 -480 
L 5901 2330 
L 4781 2330 
L 4781 3526 
L 6150 3526 
L 6150 3974 
L 4781 3974 
L 4781 5363 
L 4314 5363 
z
M 3827 237 
L 3827 1894 
L 5440 1894 
L 5440 237 
L 3827 237 
z
M 877 4794 
L 1568 4794 
L 1568 3245 
L 877 3245 
L 877 4794 
z
M 1894 4794 
L 2637 4794 
L 2637 3245 
L 1894 3245 
L 1894 4794 
z
M 448 2451 
L 448 2067 
L 1517 2067 
L 1517 1568 
L 314 1510 
L 333 1088 
C 1075 1133 2138 1203 3155 1274 
L 3168 1658 
L 1946 1594 
L 1946 2067 
L 3072 2067 
L 3072 2451 
L 1946 2451 
L 1946 2893 
L 3027 2893 
L 3027 5146 
L 493 5146 
L 493 2893 
L 1517 2893 
L 1517 2451 
L 448 2451 
z
" transform="scale(0.015625)"/>
     <path id="NotoSansCJKjp-Regular-580" d="M 4160 5414 
L 4160 1274 
L 4634 1274 
L 4634 4973 
L 6182 4973 
L 6182 5414 
L 4160 5414 
z
" transform="scale(0.015625)"/>
     <path id="NotoSansCJKjp-Regular-4e1d" d="M 1357 1139 
L 1357 32 
L 301 32 
L 301 -371 
L 6118 -371 
L 6118 32 
L 3430 32 
L 3430 563 
L 5274 563 
L 5274 934 
L 3430 934 
L 3430 1427 
L 5696 1427 
L 5696 1824 
L 730 1824 
L 730 1427 
L 2957 1427 
L 2957 32 
L 1818 32 
L 1818 1139 
L 1357 1139 
z
M 4109 5376 
C 3930 4742 3597 4154 3162 3770 
L 3162 4282 
L 2054 4282 
L 2054 4608 
L 3315 4608 
L 3315 4960 
L 2054 4960 
L 2054 5376 
L 1626 5376 
L 1626 4960 
L 365 4960 
L 365 4608 
L 1626 4608 
L 1626 4282 
L 550 4282 
L 550 3110 
L 1440 3110 
C 1126 2790 646 2470 256 2304 
C 346 2234 474 2093 538 1997 
C 883 2176 1306 2496 1626 2822 
L 1626 1997 
L 2054 1997 
L 2054 2784 
C 2368 2611 2790 2362 2970 2227 
L 3206 2547 
C 3027 2650 2349 2989 2086 3110 
L 3162 3110 
L 3162 3725 
C 3264 3642 3411 3494 3462 3411 
C 3603 3546 3744 3699 3866 3878 
C 4000 3590 4186 3296 4416 3021 
C 4064 2714 3629 2490 3104 2330 
C 3200 2253 3341 2074 3392 1978 
C 3904 2163 4339 2400 4704 2714 
C 5030 2406 5434 2138 5926 1958 
C 5990 2067 6112 2246 6202 2336 
C 5715 2483 5318 2720 4998 3002 
C 5299 3347 5530 3757 5677 4269 
L 6093 4269 
L 6093 4659 
L 4314 4659 
C 4403 4858 4480 5069 4544 5280 
L 4109 5376 
z
M 947 3962 
L 1626 3962 
L 1626 3430 
L 947 3430 
L 947 3962 
z
M 2054 3962 
L 2752 3962 
L 2752 3430 
L 2054 3430 
L 2054 3962 
z
M 4122 4269 
L 5216 4269 
C 5101 3891 4928 3571 4698 3302 
C 4435 3603 4243 3930 4109 4250 
L 4122 4269 
z
" transform="scale(0.015625)"/>
     <path id="NotoSansCJKjp-Regular-b0c7" d="M 2963 2598 
L 2963 2246 
L 6112 2246 
L 6112 2598 
L 2963 2598 
z
M 3686 1619 
L 5363 1619 
L 5363 1062 
L 3686 1062 
L 3686 1619 
z
M 5075 742 
C 5011 525 4883 198 4774 -13 
L 4832 -32 
L 4128 -32 
L 4218 0 
C 4179 205 4070 512 3930 730 
L 3584 614 
C 3693 422 3789 166 3834 -32 
L 2848 -32 
L 2848 -390 
L 6157 -390 
L 6157 -32 
L 5146 -32 
L 5478 627 
L 5075 742 
z
M 3162 4787 
L 3162 2918 
L 5901 2918 
L 5901 4787 
L 5101 4787 
L 5101 5376 
L 4742 5376 
L 4742 4787 
L 4282 4787 
L 4282 5376 
L 3923 5376 
L 3923 4787 
L 3162 4787 
z
M 3283 1939 
L 3283 742 
L 5779 742 
L 5779 1939 
L 3283 1939 
z
M 3533 3693 
L 3981 3693 
L 3981 3251 
L 3533 3251 
L 3533 3693 
z
M 4282 3693 
L 4742 3693 
L 4742 3251 
L 4282 3251 
L 4282 3693 
z
M 5043 3693 
L 5510 3693 
L 5510 3251 
L 5043 3251 
L 5043 3693 
z
M 3533 4454 
L 3981 4454 
L 3981 4019 
L 3533 4019 
L 3533 4454 
z
M 4282 4454 
L 4742 4454 
L 4742 4019 
L 4282 4019 
L 4282 4454 
z
M 5043 4454 
L 5510 4454 
L 5510 4019 
L 5043 4019 
L 5043 4454 
z
M 1178 1440 
L 2138 1440 
L 2138 973 
L 1178 973 
L 1178 1440 
z
M 1178 1792 
L 1178 2246 
L 2138 2246 
L 2138 1792 
L 1178 1792 
z
M 390 3373 
L 390 2445 
L 762 2445 
L 762 -512 
L 1178 -512 
L 1178 621 
L 2138 621 
L 2138 -51 
C 2138 -115 2118 -134 2048 -141 
C 1990 -141 1792 -141 1562 -134 
C 1619 -243 1677 -403 1690 -512 
C 2035 -512 2240 -506 2381 -442 
C 2522 -378 2554 -262 2554 -58 
L 2554 2592 
L 762 2592 
L 762 3021 
L 2560 3021 
L 2560 2445 
L 2944 2445 
L 2944 3373 
L 2566 3373 
L 2566 5152 
L 762 5152 
L 762 3373 
L 390 3373 
z
M 1466 4371 
L 1466 3373 
L 1126 3373 
L 1126 4787 
L 2182 4787 
L 2182 4371 
L 1466 4371 
z
M 2182 3373 
L 1766 3373 
L 1766 4064 
L 2182 4064 
L 2182 3373 
z
" transform="scale(0.015625)"/>
     <path id="NotoSansCJKjp-Regular-98a6" d="M 1402 2458 
C 1306 1517 998 384 218 -211 
C 326 -288 493 -435 576 -525 
C 1030 -166 1338 358 1549 934 
C 2189 -186 3232 -429 4608 -429 
L 5990 -429 
C 6016 -294 6099 -77 6170 38 
C 5888 32 4838 32 4627 32 
C 4198 32 3795 58 3430 134 
L 3430 1395 
L 5574 1395 
L 5574 1830 
L 3430 1830 
L 3430 2848 
L 5990 2848 
L 5990 3296 
L 3430 3296 
L 3430 4179 
L 5523 4179 
L 5523 4627 
L 3430 4627 
L 3430 5370 
L 2938 5370 
L 2938 4627 
L 960 4627 
L 960 4179 
L 2938 4179 
L 2938 3296 
L 403 3296 
L 403 2848 
L 2938 2848 
L 2938 282 
C 2413 493 2003 870 1728 1517 
C 1805 1811 1862 2106 1901 2394 
L 1402 2458 
z
" transform="scale(0.015625)"/>
     <path id="NotoSansCJKjp-Regular-581" d="M 2240 -550 
L 2240 3590 
L 1766 3590 
L 1766 -109 
L 218 -109 
L 218 -550 
L 2240 -550 
z
" transform="scale(0.015625)"/>
     <path id="NotoSansCJKjp-Regular-3da8" d="M 1126 3206 
L 2624 3206 
L 2624 2349 
L 1126 2349 
L 1126 3206 
z
M 800 1594 
C 685 1088 480 582 211 237 
C 314 179 499 38 576 -38 
C 864 346 1107 928 1248 1504 
L 800 1594 
z
M 2451 1510 
C 2630 1171 2822 717 2899 416 
L 3296 570 
C 3219 864 3034 1312 2835 1651 
L 2451 1510 
z
M 4928 4998 
C 5242 4685 5542 4243 5664 3930 
L 6067 4134 
C 5933 4442 5632 4877 5306 5184 
L 4928 4998 
z
M 339 4557 
L 339 4122 
L 3386 4122 
L 3386 4557 
L 2125 4557 
L 2125 5376 
L 1638 5376 
L 1638 4557 
L 339 4557 
z
M 4269 5382 
L 4269 4032 
L 4262 3686 
L 3334 3686 
L 3334 3226 
L 4243 3226 
C 4173 2093 3878 755 2778 -243 
C 2906 -301 3098 -435 3187 -525 
C 4000 237 4390 1184 4576 2118 
L 4576 166 
C 4576 -160 4602 -269 4717 -358 
C 4832 -442 4986 -474 5133 -474 
C 5216 -474 5446 -474 5542 -474 
C 5677 -474 5830 -448 5926 -397 
C 6029 -339 6099 -243 6138 -102 
C 6170 38 6195 429 6208 768 
C 6086 806 5920 890 5830 973 
C 5837 614 5824 307 5805 186 
C 5792 109 5754 51 5709 26 
C 5670 -6 5581 -13 5510 -13 
C 5427 -13 5306 -13 5242 -13 
C 5171 -13 5120 0 5075 26 
C 5037 45 5018 90 5018 147 
L 5018 2912 
L 4691 2912 
L 4717 3226 
L 6118 3226 
L 6118 3686 
L 4730 3686 
L 4736 4038 
L 4736 5382 
L 4269 5382 
z
M 685 3616 
L 685 1939 
L 1658 1939 
L 1658 38 
C 1658 -26 1638 -51 1562 -58 
C 1478 -58 1235 -58 941 -51 
C 1005 -173 1075 -358 1094 -493 
C 1478 -493 1741 -486 1907 -416 
C 2080 -333 2125 -205 2125 32 
L 2125 1939 
L 3091 1939 
L 3091 3616 
L 685 3616 
z
" transform="scale(0.015625)"/>
     <path id="NotoSansCJKjp-Regular-4f6d" d="M 1510 3885 
L 4845 3885 
L 4845 3360 
L 1510 3360 
L 1510 3885 
z
M 1510 4749 
L 4845 4749 
L 4845 4230 
L 1510 4230 
L 1510 4749 
z
M 1050 5114 
L 1050 2995 
L 5331 2995 
L 5331 5114 
L 1050 5114 
z
M 1478 1914 
C 1312 979 902 256 224 -186 
C 333 -256 518 -435 589 -518 
C 1011 -218 1344 192 1587 698 
C 2112 -186 2938 -384 4230 -384 
L 5984 -384 
C 6010 -250 6086 -38 6163 77 
C 5830 70 4493 64 4250 70 
C 3981 70 3725 77 3494 102 
L 3494 986 
L 5619 986 
L 5619 1408 
L 3494 1408 
L 3494 2125 
L 6035 2125 
L 6035 2554 
L 378 2554 
L 378 2125 
L 3014 2125 
L 3014 186 
C 2458 326 2048 627 1798 1216 
C 1862 1414 1914 1626 1958 1850 
L 1478 1914 
z
" transform="scale(0.015625)"/>
     <path id="NotoSansCJKjp-Regular-4ea0" d="M 2931 5395 
L 2931 4269 
L 339 4269 
L 339 3808 
L 2310 3808 
C 2240 2330 2054 666 269 -147 
C 397 -243 544 -416 621 -538 
C 1926 90 2438 1152 2669 2298 
L 4787 2298 
C 4685 819 4557 186 4371 19 
C 4294 -51 4211 -58 4064 -58 
C 3898 -58 3443 -51 2982 -13 
C 3078 -147 3142 -346 3155 -480 
C 3584 -506 4013 -512 4230 -499 
C 4480 -486 4634 -435 4781 -282 
C 5030 -26 5165 685 5293 2522 
C 5306 2598 5312 2758 5312 2758 
L 2746 2758 
C 2790 3110 2822 3462 2842 3808 
L 6067 3808 
L 6067 4269 
L 3424 4269 
L 3424 5395 
L 2931 5395 
z
" transform="scale(0.015625)"/>
    </defs>
    <use xlink:href="#NotoSansCJKjp-Regular-4e06"/>
    <use xlink:href="#NotoSansCJKjp-Regular-412d" transform="translate(100 0)"/>
    <use xlink:href="#NotoSansCJKjp-Regular-33ac" transform="translate(200 0)"/>
    <use xlink:href="#NotoSansCJKjp-Regular-e6c0" transform="translate(300 0)"/>
    <use xlink:href="#NotoSansCJKjp-Regular-b7c4" transform="translate(400 0)"/>
    <use xlink:href="#NotoSansCJKjp-Regular-6c33" transform="translate(500 0)"/>
    <use xlink:href="#NotoSansCJKjp-Regular-580" transform="translate(600 0)"/>
    <use xlink:href="#NotoSansCJKjp-Regular-4e1d" transform="translate(700 0)"/>
    <use xlink:href="#NotoSansCJKjp-Regular-b0c7" transform="translate(800 0)"/>
    <use xlink:href="#NotoSansCJKjp-Regular-98a6" transform="translate(900 0)"/>
    <use xlink:href="#NotoSansCJKjp-Regular-2eb8" transform="translate(1000 0)"/>
    <use xlink:href="#NotoSansCJKjp-Regular-581" transform="translate(1100 0)"/>
    <use xlink:href="#NotoSansCJKjp-Regular-3da8" transform="translate(1200 0)"/>
    <use xlink:href="#NotoSansCJKjp-Regular-4f6d" transform="translate(1300 0)"/>
    <use xlink:href="#NotoSansCJKjp-Regular-6ce8" transform="translate(1400 0)"/>
    <use xlink:href="#NotoSansCJKjp-Regular-a7ee" transform="translate(1500 0)"/>
    <use xlink:href="#NotoSansCJKjp-Regular-6c33" transform="translate(1600 0)"/>
    <use xlink:href="#NotoSansCJKjp-Regular-4ea0" transform="translate(1700 0)"/>
    <use xlink:href="#NotoSansCJKjp-Regular-2eb8" transform="translate(1800 0)"/>
   </g>
  </g>
 </g>
 <defs>
  <clipPath id="pa24ab48a32">
   <rect x="44.88875" y="87.964125" width="260.2" height="185.771875"/>
  </clipPath>
  <clipPath id="p7dcd38b740">
   <rect x="328.14875" y="87.964125" width="260.2" height="185.771875"/>
  </clipPath>
  <clipPath id="p59f4a6ffbb">
   <rect x="611.40875" y="87.964125" width="260.2" height="185.771875"/>
  </clipPath>
 </defs>
</svg>
