<?xml version="1.0" encoding="utf-8" standalone="no"?>
<!DOCTYPE svg PUBLIC "-//W3C//DTD SVG 1.1//EN"
  "http://www.w3.org/Graphics/SVG/1.1/DTD/svg11.dtd">
<svg xmlns:xlink="http://www.w3.org/1999/xlink" width="457.17875pt" height="356.008pt" viewBox="0 0 457.17875 356.008" xmlns="http://www.w3.org/2000/svg" version="1.1">
 <metadata>
  <rdf:RDF xmlns:dc="http://purl.org/dc/elements/1.1/" xmlns:cc="http://creativecommons.org/ns#" xmlns:rdf="http://www.w3.org/1999/02/22-rdf-syntax-ns#">
   <cc:Work>
    <dc:type rdf:resource="http://purl.org/dc/dcmitype/StillImage"/>
    <dc:date>2026-06-20T18:20:31.367136</dc:date>
    <dc:format>image/svg+xml</dc:format>
    <dc:creator>
     <cc:Agent>
      <dc:title>Matplotlib v3.11.0, https://matplotlib.org/</dc:title>
     </cc:Agent>
    </dc:creator>
   </cc:Work>
  </rdf:RDF>
 </metadata>
 <defs>
  <style type="text/css">*{stroke-linejoin: round; stroke-linecap: butt}</style>
 </defs>
 <g id="figure_1">
  <g id="patch_1">
   <path d="M 0 356.008 
L 457.17875 356.008 
L 457.17875 0 
L 0 0 
z
" style="fill: #ffffff"/>
  </g>
  <g id="axes_1">
   <g id="patch_2">
    <path d="M 44.88875 313.808 
L 446.64875 313.808 
L 446.64875 25.52 
L 44.88875 25.52 
z
" style="fill: #ffffff"/>
   </g>
   <g id="matplotlib.axis_1">
    <g id="xtick_1">
     <g id="line2d_1">
      <path d="M 44.88875 313.808 
L 44.88875 25.52 
" clip-path="url(#pfad7616d1d)" style="fill: none; stroke: #d8dde3; stroke-width: 0.9; stroke-linecap: square"/>
     </g>
     <g id="line2d_2">
      <defs>
       <path id="m5f4d58e8ee" d="M 0 0 
L 0 3.5 
" style="stroke: #222831; stroke-width: 0.8"/>
      </defs>
      <g>
       <use xlink:href="#m5f4d58e8ee" x="44.88875" y="313.808" style="fill: #222831; stroke: #222831; stroke-width: 0.8"/>
      </g>
     </g>
     <g id="text_1">
      <!-- 0 -->
      <g style="fill: #222831" transform="translate(41.55875 331.368) scale(0.12 -0.12)">
       <defs>
        <path id="NotoSansCJKjp-Regular-11" d="M 1779 -83 
C 2669 -83 3238 723 3238 2362 
C 3238 3987 2669 4774 1779 4774 
C 883 4774 320 3987 320 2362 
C 320 723 883 -83 1779 -83 
z
M 1779 390 
C 1248 390 883 986 883 2362 
C 883 3731 1248 4314 1779 4314 
C 2310 4314 2675 3731 2675 2362 
C 2675 986 2310 390 1779 390 
z
" transform="scale(0.015625)"/>
       </defs>
       <use xlink:href="#NotoSansCJKjp-Regular-11"/>
      </g>
     </g>
    </g>
    <g id="xtick_2">
     <g id="line2d_3">
      <path d="M 89.52875 313.808 
L 89.52875 25.52 
" clip-path="url(#pfad7616d1d)" style="fill: none; stroke: #d8dde3; stroke-width: 0.9; stroke-linecap: square"/>
     </g>
     <g id="line2d_4">
      <g>
       <use xlink:href="#m5f4d58e8ee" x="89.52875" y="313.808" style="fill: #222831; stroke: #222831; stroke-width: 0.8"/>
      </g>
     </g>
     <g id="text_2">
      <!-- 1 -->
      <g style="fill: #222831" transform="translate(86.19875 331.368) scale(0.12 -0.12)">
       <defs>
        <path id="NotoSansCJKjp-Regular-12" d="M 563 0 
L 3136 0 
L 3136 486 
L 2195 486 
L 2195 4691 
L 1747 4691 
C 1491 4544 1190 4435 774 4358 
L 774 3987 
L 1613 3987 
L 1613 486 
L 563 486 
L 563 0 
z
" transform="scale(0.015625)"/>
       </defs>
       <use xlink:href="#NotoSansCJKjp-Regular-12"/>
      </g>
     </g>
    </g>
    <g id="xtick_3">
     <g id="line2d_5">
      <path d="M 134.16875 313.808 
L 134.16875 25.52 
" clip-path="url(#pfad7616d1d)" style="fill: none; stroke: #d8dde3; stroke-width: 0.9; stroke-linecap: square"/>
     </g>
     <g id="line2d_6">
      <g>
       <use xlink:href="#m5f4d58e8ee" x="134.16875" y="313.808" style="fill: #222831; stroke: #222831; stroke-width: 0.8"/>
      </g>
     </g>
     <g id="text_3">
      <!-- 2 -->
      <g style="fill: #222831" transform="translate(130.83875 331.368) scale(0.12 -0.12)">
       <defs>
        <path id="NotoSansCJKjp-Regular-13" d="M 282 0 
L 3232 0 
L 3232 506 
L 1933 506 
C 1696 506 1408 480 1165 461 
C 2266 1504 3008 2458 3008 3398 
C 3008 4230 2477 4774 1638 4774 
C 1043 4774 634 4506 256 4090 
L 595 3757 
C 858 4070 1184 4301 1568 4301 
C 2150 4301 2432 3910 2432 3373 
C 2432 2566 1754 1632 282 346 
L 282 0 
z
" transform="scale(0.015625)"/>
       </defs>
       <use xlink:href="#NotoSansCJKjp-Regular-13"/>
      </g>
     </g>
    </g>
    <g id="xtick_4">
     <g id="line2d_7">
      <path d="M 178.80875 313.808 
L 178.80875 25.52 
" clip-path="url(#pfad7616d1d)" style="fill: none; stroke: #d8dde3; stroke-width: 0.9; stroke-linecap: square"/>
     </g>
     <g id="line2d_8">
      <g>
       <use xlink:href="#m5f4d58e8ee" x="178.80875" y="313.808" style="fill: #222831; stroke: #222831; stroke-width: 0.8"/>
      </g>
     </g>
     <g id="text_4">
      <!-- 3 -->
      <g style="fill: #222831" transform="translate(175.47875 331.368) scale(0.12 -0.12)">
       <defs>
        <path id="NotoSansCJKjp-Regular-14" d="M 1683 -83 
C 2522 -83 3194 416 3194 1254 
C 3194 1901 2752 2310 2202 2445 
L 2202 2477 
C 2701 2650 3034 3034 3034 3603 
C 3034 4346 2458 4774 1664 4774 
C 1126 4774 710 4538 358 4218 
L 672 3846 
C 941 4115 1267 4301 1645 4301 
C 2138 4301 2438 4006 2438 3558 
C 2438 3053 2112 2662 1139 2662 
L 1139 2214 
C 2227 2214 2598 1843 2598 1274 
C 2598 736 2208 403 1645 403 
C 1114 403 762 659 486 941 
L 186 563 
C 493 224 954 -83 1683 -83 
z
" transform="scale(0.015625)"/>
       </defs>
       <use xlink:href="#NotoSansCJKjp-Regular-14"/>
      </g>
     </g>
    </g>
    <g id="xtick_5">
     <g id="line2d_9">
      <path d="M 223.44875 313.808 
L 223.44875 25.52 
" clip-path="url(#pfad7616d1d)" style="fill: none; stroke: #d8dde3; stroke-width: 0.9; stroke-linecap: square"/>
     </g>
     <g id="line2d_10">
      <g>
       <use xlink:href="#m5f4d58e8ee" x="223.44875" y="313.808" style="fill: #222831; stroke: #222831; stroke-width: 0.8"/>
      </g>
     </g>
     <g id="text_5">
      <!-- 4 -->
      <g style="fill: #222831" transform="translate(220.11875 331.368) scale(0.12 -0.12)">
       <defs>
        <path id="NotoSansCJKjp-Regular-15" d="M 2176 0 
L 2726 0 
L 2726 1293 
L 3354 1293 
L 3354 1760 
L 2726 1760 
L 2726 4691 
L 2080 4691 
L 128 1677 
L 128 1293 
L 2176 1293 
L 2176 0 
z
M 2176 1760 
L 736 1760 
L 1805 3360 
C 1939 3590 2067 3827 2182 4051 
L 2208 4051 
C 2195 3814 2176 3430 2176 3200 
L 2176 1760 
z
" transform="scale(0.015625)"/>
       </defs>
       <use xlink:href="#NotoSansCJKjp-Regular-15"/>
      </g>
     </g>
    </g>
    <g id="xtick_6">
     <g id="line2d_11">
      <path d="M 268.08875 313.808 
L 268.08875 25.52 
" clip-path="url(#pfad7616d1d)" style="fill: none; stroke: #d8dde3; stroke-width: 0.9; stroke-linecap: square"/>
     </g>
     <g id="line2d_12">
      <g>
       <use xlink:href="#m5f4d58e8ee" x="268.08875" y="313.808" style="fill: #222831; stroke: #222831; stroke-width: 0.8"/>
      </g>
     </g>
     <g id="text_6">
      <!-- 5 -->
      <g style="fill: #222831" transform="translate(264.75875 331.368) scale(0.12 -0.12)">
       <defs>
        <path id="NotoSansCJKjp-Regular-16" d="M 1677 -83 
C 2464 -83 3213 499 3213 1523 
C 3213 2560 2573 3021 1798 3021 
C 1517 3021 1306 2950 1094 2835 
L 1216 4192 
L 2982 4192 
L 2982 4691 
L 704 4691 
L 550 2502 
L 864 2304 
C 1133 2483 1331 2579 1645 2579 
C 2234 2579 2618 2182 2618 1510 
C 2618 826 2176 403 1619 403 
C 1075 403 730 653 467 922 
L 173 538 
C 493 224 941 -83 1677 -83 
z
" transform="scale(0.015625)"/>
       </defs>
       <use xlink:href="#NotoSansCJKjp-Regular-16"/>
      </g>
     </g>
    </g>
    <g id="xtick_7">
     <g id="line2d_13">
      <path d="M 312.72875 313.808 
L 312.72875 25.52 
" clip-path="url(#pfad7616d1d)" style="fill: none; stroke: #d8dde3; stroke-width: 0.9; stroke-linecap: square"/>
     </g>
     <g id="line2d_14">
      <g>
       <use xlink:href="#m5f4d58e8ee" x="312.72875" y="313.808" style="fill: #222831; stroke: #222831; stroke-width: 0.8"/>
      </g>
     </g>
     <g id="text_7">
      <!-- 6 -->
      <g style="fill: #222831" transform="translate(309.39875 331.368) scale(0.12 -0.12)">
       <defs>
        <path id="NotoSansCJKjp-Regular-17" d="M 1926 -83 
C 2656 -83 3277 531 3277 1440 
C 3277 2426 2765 2912 1971 2912 
C 1606 2912 1197 2701 909 2349 
C 934 3802 1466 4294 2118 4294 
C 2400 4294 2682 4154 2861 3936 
L 3194 4294 
C 2931 4576 2579 4774 2093 4774 
C 1184 4774 358 4077 358 2240 
C 358 691 1030 -83 1926 -83 
z
M 922 1882 
C 1229 2317 1587 2477 1875 2477 
C 2445 2477 2720 2074 2720 1440 
C 2720 800 2374 378 1926 378 
C 1338 378 986 909 922 1882 
z
" transform="scale(0.015625)"/>
       </defs>
       <use xlink:href="#NotoSansCJKjp-Regular-17"/>
      </g>
     </g>
    </g>
    <g id="xtick_8">
     <g id="line2d_15">
      <path d="M 357.36875 313.808 
L 357.36875 25.52 
" clip-path="url(#pfad7616d1d)" style="fill: none; stroke: #d8dde3; stroke-width: 0.9; stroke-linecap: square"/>
     </g>
     <g id="line2d_16">
      <g>
       <use xlink:href="#m5f4d58e8ee" x="357.36875" y="313.808" style="fill: #222831; stroke: #222831; stroke-width: 0.8"/>
      </g>
     </g>
     <g id="text_8">
      <!-- 7 -->
      <g style="fill: #222831" transform="translate(354.03875 331.368) scale(0.12 -0.12)">
       <defs>
        <path id="NotoSansCJKjp-Regular-18" d="M 1267 0 
L 1875 0 
C 1952 1837 2150 2931 3251 4339 
L 3251 4691 
L 314 4691 
L 314 4192 
L 2592 4192 
C 1670 2912 1350 1779 1267 0 
z
" transform="scale(0.015625)"/>
       </defs>
       <use xlink:href="#NotoSansCJKjp-Regular-18"/>
      </g>
     </g>
    </g>
    <g id="xtick_9">
     <g id="line2d_17">
      <path d="M 402.00875 313.808 
L 402.00875 25.52 
" clip-path="url(#pfad7616d1d)" style="fill: none; stroke: #d8dde3; stroke-width: 0.9; stroke-linecap: square"/>
     </g>
     <g id="line2d_18">
      <g>
       <use xlink:href="#m5f4d58e8ee" x="402.00875" y="313.808" style="fill: #222831; stroke: #222831; stroke-width: 0.8"/>
      </g>
     </g>
     <g id="text_9">
      <!-- 8 -->
      <g style="fill: #222831" transform="translate(398.67875 331.368) scale(0.12 -0.12)">
       <defs>
        <path id="NotoSansCJKjp-Regular-19" d="M 1792 -83 
C 2669 -83 3258 448 3258 1126 
C 3258 1773 2880 2125 2470 2362 
L 2470 2394 
C 2746 2611 3091 3034 3091 3526 
C 3091 4250 2605 4762 1805 4762 
C 1075 4762 518 4282 518 3571 
C 518 3078 813 2726 1152 2490 
L 1152 2464 
C 723 2234 294 1792 294 1165 
C 294 442 922 -83 1792 -83 
z
M 2112 2547 
C 1555 2765 1050 3014 1050 3571 
C 1050 4026 1363 4326 1798 4326 
C 2298 4326 2592 3962 2592 3494 
C 2592 3149 2426 2829 2112 2547 
z
M 1798 352 
C 1235 352 813 717 813 1216 
C 813 1664 1082 2035 1459 2278 
C 2125 2010 2701 1779 2701 1146 
C 2701 678 2342 352 1798 352 
z
" transform="scale(0.015625)"/>
       </defs>
       <use xlink:href="#NotoSansCJKjp-Regular-19"/>
      </g>
     </g>
    </g>
    <g id="xtick_10">
     <g id="line2d_19">
      <path d="M 446.64875 313.808 
L 446.64875 25.52 
" clip-path="url(#pfad7616d1d)" style="fill: none; stroke: #d8dde3; stroke-width: 0.9; stroke-linecap: square"/>
     </g>
     <g id="line2d_20">
      <g>
       <use xlink:href="#m5f4d58e8ee" x="446.64875" y="313.808" style="fill: #222831; stroke: #222831; stroke-width: 0.8"/>
      </g>
     </g>
     <g id="text_10">
      <!-- 9 -->
      <g style="fill: #222831" transform="translate(443.31875 331.368) scale(0.12 -0.12)">
       <defs>
        <path id="NotoSansCJKjp-Regular-1a" d="M 1504 -83 
C 2381 -83 3206 646 3206 2547 
C 3206 4038 2528 4774 1626 4774 
C 896 4774 282 4166 282 3251 
C 282 2285 794 1779 1574 1779 
C 1965 1779 2368 2003 2656 2349 
C 2611 896 2086 403 1485 403 
C 1178 403 896 538 691 762 
L 371 397 
C 634 122 992 -83 1504 -83 
z
M 2650 2842 
C 2336 2394 1984 2214 1670 2214 
C 1114 2214 832 2624 832 3251 
C 832 3898 1178 4320 1632 4320 
C 2227 4320 2586 3808 2650 2842 
z
" transform="scale(0.015625)"/>
       </defs>
       <use xlink:href="#NotoSansCJKjp-Regular-1a"/>
      </g>
     </g>
    </g>
    <g id="text_11">
     <!-- x -->
     <g style="fill: #222831" transform="translate(242.780938 347.368) scale(0.12 -0.12)">
      <defs>
       <path id="NotoSansCJKjp-Regular-59" d="M 96 0 
L 710 0 
L 1178 813 
C 1299 1024 1408 1235 1530 1434 
L 1562 1434 
C 1696 1235 1824 1024 1939 813 
L 2451 0 
L 3091 0 
L 1946 1754 
L 3002 3475 
L 2394 3475 
L 1965 2714 
C 1856 2515 1760 2330 1658 2131 
L 1626 2131 
C 1510 2330 1389 2515 1286 2714 
L 819 3475 
L 186 3475 
L 1242 1811 
L 96 0 
z
" transform="scale(0.015625)"/>
      </defs>
      <use xlink:href="#NotoSansCJKjp-Regular-59"/>
     </g>
    </g>
   </g>
   <g id="matplotlib.axis_2">
    <g id="ytick_1">
     <g id="line2d_21">
      <path d="M 44.88875 313.808 
L 446.64875 313.808 
" clip-path="url(#pfad7616d1d)" style="fill: none; stroke: #d8dde3; stroke-width: 0.9; stroke-linecap: square"/>
     </g>
     <g id="line2d_22">
      <defs>
       <path id="m2a2a3c0206" d="M 0 0 
L -3.5 0 
" style="stroke: #222831; stroke-width: 0.8"/>
      </defs>
      <g>
       <use xlink:href="#m2a2a3c0206" x="44.88875" y="313.808" style="fill: #222831; stroke: #222831; stroke-width: 0.8"/>
      </g>
     </g>
     <g id="text_12">
      <!-- 0 -->
      <g style="fill: #222831" transform="translate(31.22875 319.088) scale(0.12 -0.12)">
       <use xlink:href="#NotoSansCJKjp-Regular-11"/>
      </g>
     </g>
    </g>
    <g id="ytick_2">
     <g id="line2d_23">
      <path d="M 44.88875 261.392 
L 446.64875 261.392 
" clip-path="url(#pfad7616d1d)" style="fill: none; stroke: #d8dde3; stroke-width: 0.9; stroke-linecap: square"/>
     </g>
     <g id="line2d_24">
      <g>
       <use xlink:href="#m2a2a3c0206" x="44.88875" y="261.392" style="fill: #222831; stroke: #222831; stroke-width: 0.8"/>
      </g>
     </g>
     <g id="text_13">
      <!-- 2 -->
      <g style="fill: #222831" transform="translate(31.22875 266.672) scale(0.12 -0.12)">
       <use xlink:href="#NotoSansCJKjp-Regular-13"/>
      </g>
     </g>
    </g>
    <g id="ytick_3">
     <g id="line2d_25">
      <path d="M 44.88875 208.976 
L 446.64875 208.976 
" clip-path="url(#pfad7616d1d)" style="fill: none; stroke: #d8dde3; stroke-width: 0.9; stroke-linecap: square"/>
     </g>
     <g id="line2d_26">
      <g>
       <use xlink:href="#m2a2a3c0206" x="44.88875" y="208.976" style="fill: #222831; stroke: #222831; stroke-width: 0.8"/>
      </g>
     </g>
     <g id="text_14">
      <!-- 4 -->
      <g style="fill: #222831" transform="translate(31.22875 214.256) scale(0.12 -0.12)">
       <use xlink:href="#NotoSansCJKjp-Regular-15"/>
      </g>
     </g>
    </g>
    <g id="ytick_4">
     <g id="line2d_27">
      <path d="M 44.88875 156.56 
L 446.64875 156.56 
" clip-path="url(#pfad7616d1d)" style="fill: none; stroke: #d8dde3; stroke-width: 0.9; stroke-linecap: square"/>
     </g>
     <g id="line2d_28">
      <g>
       <use xlink:href="#m2a2a3c0206" x="44.88875" y="156.56" style="fill: #222831; stroke: #222831; stroke-width: 0.8"/>
      </g>
     </g>
     <g id="text_15">
      <!-- 6 -->
      <g style="fill: #222831" transform="translate(31.22875 161.84) scale(0.12 -0.12)">
       <use xlink:href="#NotoSansCJKjp-Regular-17"/>
      </g>
     </g>
    </g>
    <g id="ytick_5">
     <g id="line2d_29">
      <path d="M 44.88875 104.144 
L 446.64875 104.144 
" clip-path="url(#pfad7616d1d)" style="fill: none; stroke: #d8dde3; stroke-width: 0.9; stroke-linecap: square"/>
     </g>
     <g id="line2d_30">
      <g>
       <use xlink:href="#m2a2a3c0206" x="44.88875" y="104.144" style="fill: #222831; stroke: #222831; stroke-width: 0.8"/>
      </g>
     </g>
     <g id="text_16">
      <!-- 8 -->
      <g style="fill: #222831" transform="translate(31.22875 109.424) scale(0.12 -0.12)">
       <use xlink:href="#NotoSansCJKjp-Regular-19"/>
      </g>
     </g>
    </g>
    <g id="ytick_6">
     <g id="line2d_31">
      <path d="M 44.88875 51.728 
L 446.64875 51.728 
" clip-path="url(#pfad7616d1d)" style="fill: none; stroke: #d8dde3; stroke-width: 0.9; stroke-linecap: square"/>
     </g>
     <g id="line2d_32">
      <g>
       <use xlink:href="#m2a2a3c0206" x="44.88875" y="51.728" style="fill: #222831; stroke: #222831; stroke-width: 0.8"/>
      </g>
     </g>
     <g id="text_17">
      <!-- 10 -->
      <g style="fill: #222831" transform="translate(24.56875 57.008) scale(0.12 -0.12)">
       <use xlink:href="#NotoSansCJKjp-Regular-12"/>
       <use xlink:href="#NotoSansCJKjp-Regular-11" transform="translate(55.5 0)"/>
      </g>
     </g>
    </g>
    <g id="text_18">
     <!-- y -->
     <g style="fill: #222831" transform="translate(17.76 172.789625) rotate(-90) scale(0.12 -0.12)">
      <defs>
       <path id="NotoSansCJKjp-Regular-5a" d="M 646 -1498 
C 1338 -1498 1702 -973 1946 -294 
L 3251 3475 
L 2682 3475 
L 2054 1549 
C 1965 1235 1862 883 1773 563 
L 1741 563 
C 1619 890 1504 1242 1395 1549 
L 691 3475 
L 83 3475 
L 1478 -6 
L 1402 -269 
C 1254 -698 1011 -1018 621 -1018 
C 525 -1018 422 -986 352 -960 
L 237 -1427 
C 346 -1472 486 -1498 646 -1498 
z
" transform="scale(0.015625)"/>
      </defs>
      <use xlink:href="#NotoSansCJKjp-Regular-5a"/>
     </g>
    </g>
   </g>
   <g id="line2d_33">
    <path d="M 89.52875 258.7712 
L 89.52875 249.38 
" clip-path="url(#pfad7616d1d)" style="fill: none; stroke-dasharray: 1.3,2.145; stroke-dashoffset: 0; stroke: #bf8700; stroke-width: 1.3"/>
   </g>
   <g id="line2d_34">
    <path d="M 134.16875 211.5968 
L 134.16875 223.1408 
" clip-path="url(#pfad7616d1d)" style="fill: none; stroke-dasharray: 1.3,2.145; stroke-dashoffset: 0; stroke: #bf8700; stroke-width: 1.3"/>
   </g>
   <g id="line2d_35">
    <path d="M 178.80875 203.7344 
L 178.80875 196.9016 
" clip-path="url(#pfad7616d1d)" style="fill: none; stroke-dasharray: 1.3,2.145; stroke-dashoffset: 0; stroke: #bf8700; stroke-width: 1.3"/>
   </g>
   <g id="line2d_36">
    <path d="M 223.44875 153.9392 
L 223.44875 170.6624 
" clip-path="url(#pfad7616d1d)" style="fill: none; stroke-dasharray: 1.3,2.145; stroke-dashoffset: 0; stroke: #bf8700; stroke-width: 1.3"/>
   </g>
   <g id="line2d_37">
    <path d="M 268.08875 161.8016 
L 268.08875 144.4232 
" clip-path="url(#pfad7616d1d)" style="fill: none; stroke-dasharray: 1.3,2.145; stroke-dashoffset: 0; stroke: #bf8700; stroke-width: 1.3"/>
   </g>
   <g id="line2d_38">
    <path d="M 312.72875 106.7648 
L 312.72875 118.184 
" clip-path="url(#pfad7616d1d)" style="fill: none; stroke-dasharray: 1.3,2.145; stroke-dashoffset: 0; stroke: #bf8700; stroke-width: 1.3"/>
   </g>
   <g id="line2d_39">
    <path d="M 357.36875 98.9024 
L 357.36875 91.9448 
" clip-path="url(#pfad7616d1d)" style="fill: none; stroke-dasharray: 1.3,2.145; stroke-dashoffset: 0; stroke: #bf8700; stroke-width: 1.3"/>
   </g>
   <g id="line2d_40">
    <path d="M 402.00875 64.832 
L 402.00875 65.7056 
" clip-path="url(#pfad7616d1d)" style="fill: none; stroke-dasharray: 1.3,2.145; stroke-dashoffset: 0; stroke: #bf8700; stroke-width: 1.3"/>
   </g>
   <g id="patch_3">
    <path d="M 44.88875 313.808 
L 44.88875 25.52 
" style="fill: none; stroke: #222831; stroke-width: 1.1; stroke-linejoin: miter; stroke-linecap: square"/>
   </g>
   <g id="patch_4">
    <path d="M 44.88875 313.808 
L 446.64875 313.808 
" style="fill: none; stroke: #222831; stroke-width: 1.1; stroke-linejoin: miter; stroke-linecap: square"/>
   </g>
   <g id="text_19">
    <!-- 平均點 -->
    <g style="fill: #222831" transform="translate(252.46475 175.8884) scale(0.11 -0.11)">
     <defs>
      <path id="NotoSansCJKjp-Regular-41d6" d="M 1114 4032 
C 1363 3558 1613 2938 1702 2554 
L 2157 2714 
C 2067 3085 1805 3699 1549 4160 
L 1114 4032 
z
M 4832 4192 
C 4672 3725 4378 3072 4134 2669 
L 4550 2534 
C 4800 2918 5101 3533 5338 4051 
L 4832 4192 
z
M 333 2227 
L 333 1747 
L 2938 1747 
L 2938 -506 
L 3437 -506 
L 3437 1747 
L 6074 1747 
L 6074 2227 
L 3437 2227 
L 3437 4467 
L 5715 4467 
L 5715 4947 
L 672 4947 
L 672 4467 
L 2938 4467 
L 2938 2227 
L 333 2227 
z
" transform="scale(0.015625)"/>
      <path id="NotoSansCJKjp-Regular-33ef" d="M 2803 3021 
L 2803 2579 
L 4794 2579 
L 4794 3021 
L 2803 3021 
z
M 2509 954 
L 2707 506 
C 3334 742 4173 1075 4954 1389 
L 4870 1805 
C 4000 1478 3091 1146 2509 954 
z
M 3245 5376 
C 3002 4480 2586 3610 2054 3053 
C 2176 2982 2381 2835 2477 2746 
C 2726 3046 2970 3430 3181 3853 
L 5542 3853 
C 5459 1254 5357 269 5152 51 
C 5075 -32 5005 -58 4877 -51 
C 4723 -51 4326 -51 3898 -13 
C 3981 -154 4045 -358 4058 -499 
C 4442 -518 4838 -531 5062 -506 
C 5293 -486 5440 -429 5587 -237 
C 5843 77 5939 1101 6029 4058 
C 6035 4128 6035 4314 6035 4314 
L 3392 4314 
C 3526 4621 3635 4941 3731 5267 
L 3245 5376 
z
M 218 1030 
L 390 550 
C 986 794 1773 1126 2509 1440 
L 2406 1894 
L 1606 1568 
L 1606 3430 
L 2362 3430 
L 2362 3885 
L 1606 3885 
L 1606 5338 
L 1139 5338 
L 1139 3885 
L 333 3885 
L 333 3430 
L 1139 3430 
L 1139 1382 
C 794 1248 474 1120 218 1030 
z
" transform="scale(0.015625)"/>
      <path id="NotoSansCJKjp-Regular-b7c4" d="M 966 4474 
C 1069 4166 1152 3757 1165 3494 
L 1421 3565 
C 1402 3821 1312 4230 1203 4538 
L 966 4474 
z
M 1178 813 
C 1267 454 1338 0 1331 -307 
L 1664 -262 
C 1664 38 1594 499 1498 851 
L 1178 813 
z
M 1792 851 
C 1939 518 2067 90 2106 -192 
L 2432 -115 
C 2387 166 2246 589 2099 915 
L 1792 851 
z
M 2406 934 
C 2618 634 2848 224 2938 -45 
L 3258 96 
C 3162 365 2931 762 2701 1056 
L 2406 934 
z
M 634 838 
C 582 390 454 -70 205 -333 
L 538 -512 
C 806 -224 915 269 973 742 
L 634 838 
z
M 2272 4557 
C 2214 4262 2086 3808 1997 3533 
L 2202 3456 
C 2317 3706 2445 4122 2554 4454 
L 2272 4557 
z
M 4314 5363 
L 4314 2330 
L 3379 2330 
L 3379 -506 
L 3827 -506 
L 3827 -211 
L 5440 -211 
L 5440 -480 
L 5901 -480 
L 5901 2330 
L 4781 2330 
L 4781 3526 
L 6150 3526 
L 6150 3974 
L 4781 3974 
L 4781 5363 
L 4314 5363 
z
M 3827 237 
L 3827 1894 
L 5440 1894 
L 5440 237 
L 3827 237 
z
M 877 4794 
L 1568 4794 
L 1568 3245 
L 877 3245 
L 877 4794 
z
M 1894 4794 
L 2637 4794 
L 2637 3245 
L 1894 3245 
L 1894 4794 
z
M 448 2451 
L 448 2067 
L 1517 2067 
L 1517 1568 
L 314 1510 
L 333 1088 
C 1075 1133 2138 1203 3155 1274 
L 3168 1658 
L 1946 1594 
L 1946 2067 
L 3072 2067 
L 3072 2451 
L 1946 2451 
L 1946 2893 
L 3027 2893 
L 3027 5146 
L 493 5146 
L 493 2893 
L 1517 2893 
L 1517 2451 
L 448 2451 
z
" transform="scale(0.015625)"/>
     </defs>
     <use xlink:href="#NotoSansCJKjp-Regular-41d6"/>
     <use xlink:href="#NotoSansCJKjp-Regular-33ef" transform="translate(100 0)"/>
     <use xlink:href="#NotoSansCJKjp-Regular-b7c4" transform="translate(200 0)"/>
    </g>
   </g>
   <g id="text_20">
    <g id="patch_5">
     <path d="M 71.67275 96.939806 
L 161.516969 96.939806 
Q 165.416969 96.939806 165.416969 93.039806 
L 165.416969 78.556994 
Q 165.416969 74.656994 161.516969 74.656994 
L 71.67275 74.656994 
Q 67.77275 74.656994 67.77275 78.556994 
L 67.77275 93.039806 
Q 67.77275 96.939806 71.67275 96.939806 
z
" style="fill: #ffffff; stroke: #d1242f; stroke-width: 1.3; stroke-linejoin: miter"/>
    </g>
    <!-- y = 1.46 + 1.00x -->
    <g style="fill: #d1242f" transform="translate(71.67275 89.996994) scale(0.13 -0.13)">
     <defs>
      <path id="NotoSansCJKjp-Regular-1" transform="scale(0.015625)"/>
      <path id="NotoSansCJKjp-Regular-1e" d="M 243 2912 
L 3315 2912 
L 3315 3347 
L 243 3347 
L 243 2912 
z
M 243 1376 
L 3315 1376 
L 3315 1811 
L 243 1811 
L 243 1376 
z
" transform="scale(0.015625)"/>
      <path id="NotoSansCJKjp-Regular-f6b2" d="M 563 0 
L 3136 0 
L 3136 486 
L 2195 486 
L 2195 4563 
L 1747 4563 
C 1491 4410 1190 4301 774 4224 
L 774 3853 
L 1613 3853 
L 1613 486 
L 563 486 
L 563 0 
z
" transform="scale(0.015625)"/>
      <path id="NotoSansCJKjp-Regular-f" d="M 890 -83 
C 1120 -83 1312 96 1312 358 
C 1312 627 1120 806 890 806 
C 653 806 467 627 467 358 
C 467 96 653 -83 890 -83 
z
" transform="scale(0.015625)"/>
      <path id="NotoSansCJKjp-Regular-f6b5" d="M 2176 0 
L 2726 0 
L 2726 1261 
L 3354 1261 
L 3354 1728 
L 2726 1728 
L 2726 4563 
L 2080 4563 
L 128 1645 
L 128 1261 
L 2176 1261 
L 2176 0 
z
M 2176 1728 
L 736 1728 
L 1805 3290 
C 1939 3520 2067 3718 2182 3936 
L 2208 3936 
C 2195 3699 2176 3296 2176 3066 
L 2176 1728 
z
" transform="scale(0.015625)"/>
      <path id="NotoSansCJKjp-Regular-f6b7" d="M 1920 -83 
C 2650 -83 3264 506 3264 1376 
C 3264 2310 2752 2784 1958 2784 
C 1594 2784 1184 2566 896 2202 
C 922 3661 1459 4160 2106 4160 
C 2394 4160 2675 4026 2854 3802 
L 3181 4166 
C 2925 4442 2573 4646 2080 4646 
C 1171 4646 346 3942 346 2112 
C 346 646 1018 -83 1920 -83 
z
M 909 1741 
C 1222 2189 1574 2349 1869 2349 
C 2432 2349 2720 1971 2720 1376 
C 2720 774 2368 378 1914 378 
C 1338 378 986 851 909 1741 
z
" transform="scale(0.015625)"/>
      <path id="NotoSansCJKjp-Regular-c" d="M 1542 742 
L 2010 742 
L 2010 2144 
L 3315 2144 
L 3315 2579 
L 2010 2579 
L 2010 3981 
L 1542 3981 
L 1542 2579 
L 243 2579 
L 243 2144 
L 1542 2144 
L 1542 742 
z
" transform="scale(0.015625)"/>
      <path id="NotoSansCJKjp-Regular-f6b1" d="M 1779 -83 
C 2688 -83 3238 768 3238 2298 
C 3238 3821 2688 4646 1779 4646 
C 864 4646 320 3827 320 2298 
C 320 768 864 -83 1779 -83 
z
M 1779 390 
C 1248 390 883 960 883 2298 
C 883 3635 1248 4179 1779 4179 
C 2310 4179 2675 3635 2675 2298 
C 2675 960 2310 390 1779 390 
z
" transform="scale(0.015625)"/>
     </defs>
     <use xlink:href="#NotoSansCJKjp-Regular-5a"/>
     <use xlink:href="#NotoSansCJKjp-Regular-1" transform="translate(52.09375 0)"/>
     <use xlink:href="#NotoSansCJKjp-Regular-1e" transform="translate(74.5 0)"/>
     <use xlink:href="#NotoSansCJKjp-Regular-1" transform="translate(130 0)"/>
     <use xlink:href="#NotoSansCJKjp-Regular-f6b2" transform="translate(152.40625 0)"/>
     <use xlink:href="#NotoSansCJKjp-Regular-f" transform="translate(207.90625 0)"/>
     <use xlink:href="#NotoSansCJKjp-Regular-f6b5" transform="translate(235.703125 0)"/>
     <use xlink:href="#NotoSansCJKjp-Regular-f6b7" transform="translate(291.203125 0)"/>
     <use xlink:href="#NotoSansCJKjp-Regular-1" transform="translate(346.703125 0)"/>
     <use xlink:href="#NotoSansCJKjp-Regular-c" transform="translate(369.109375 0)"/>
     <use xlink:href="#NotoSansCJKjp-Regular-1" transform="translate(424.609375 0)"/>
     <use xlink:href="#NotoSansCJKjp-Regular-f6b2" transform="translate(447.015625 0)"/>
     <use xlink:href="#NotoSansCJKjp-Regular-f" transform="translate(502.515625 0)"/>
     <use xlink:href="#NotoSansCJKjp-Regular-f6b1" transform="translate(530.3125 0)"/>
     <use xlink:href="#NotoSansCJKjp-Regular-f6b1" transform="translate(585.8125 0)"/>
     <use xlink:href="#NotoSansCJKjp-Regular-59" transform="translate(641.3125 0)"/>
    </g>
   </g>
   <g id="text_21">
    <!-- 橘色虛線 = 殘差 -->
    <g style="fill: #bf8700" transform="translate(277.01675 259.733328) scale(0.105 -0.105)">
     <defs>
      <path id="NotoSansCJKjp-Regular-5674" d="M 3277 4384 
C 3642 4294 4090 4166 4454 4045 
L 2528 4045 
L 2528 3680 
L 3699 3680 
C 3315 3360 2784 3059 2330 2899 
C 2426 2822 2534 2675 2592 2579 
C 3123 2810 3776 3232 4173 3635 
L 4173 2886 
C 4173 2822 4147 2803 4077 2803 
C 4006 2797 3763 2797 3488 2803 
C 3539 2714 3603 2573 3629 2470 
C 4013 2470 4250 2470 4410 2528 
C 4563 2586 4608 2688 4608 2886 
L 4608 3680 
L 5504 3680 
C 5382 3469 5235 3258 5094 3110 
L 5440 2950 
C 5677 3200 5926 3597 6106 3955 
L 5798 4064 
L 5728 4045 
L 5094 4045 
L 5184 4147 
C 5056 4192 4896 4250 4723 4301 
C 5088 4486 5446 4723 5709 4973 
L 5440 5178 
L 5350 5158 
L 2835 5158 
L 2835 4800 
L 4902 4800 
C 4710 4666 4486 4538 4262 4435 
C 4000 4506 3731 4576 3494 4627 
L 3277 4384 
z
M 3462 1069 
L 3462 -288 
L 3821 -288 
L 3821 -38 
L 5075 -38 
L 5075 1069 
L 3462 1069 
z
M 3821 768 
L 4723 768 
L 4723 262 
L 3821 262 
L 3821 768 
z
M 5517 2035 
L 5517 1600 
C 5504 1581 5478 1574 5402 1574 
C 5325 1574 4998 1574 4941 1574 
C 4813 1574 4794 1587 4794 1690 
L 4794 2035 
L 5517 2035 
z
M 2541 2387 
L 2541 -518 
L 2976 -518 
L 2976 1331 
C 3046 1261 3123 1133 3155 1050 
C 3770 1203 3949 1478 3994 2035 
L 4435 2035 
L 4435 1696 
C 4435 1350 4525 1274 4902 1274 
C 4973 1274 5389 1274 5459 1274 
L 5517 1274 
L 5517 -45 
C 5517 -109 5498 -128 5427 -128 
C 5363 -134 5146 -134 4890 -128 
C 4947 -237 5018 -403 5043 -525 
C 5395 -525 5619 -512 5773 -442 
C 5926 -378 5965 -256 5965 -45 
L 5965 2387 
L 2541 2387 
z
M 2976 1344 
L 2976 2035 
L 3635 2035 
C 3597 1619 3456 1446 2976 1344 
z
M 1190 5376 
L 1190 3987 
L 333 3987 
L 333 3539 
L 1146 3539 
C 966 2669 582 1658 198 1120 
C 275 1011 390 826 442 704 
C 723 1114 986 1773 1190 2458 
L 1190 -506 
L 1626 -506 
L 1626 2502 
C 1811 2182 2029 1786 2112 1581 
L 2374 1933 
C 2266 2106 1792 2829 1626 3046 
L 1626 3539 
L 2336 3539 
L 2336 3987 
L 1626 3987 
L 1626 5376 
L 1190 5376 
z
" transform="scale(0.015625)"/>
      <path id="NotoSansCJKjp-Regular-8347" d="M 3008 2182 
L 1485 2182 
L 1485 3354 
L 3008 3354 
L 3008 2182 
z
M 3494 2182 
L 3494 3354 
L 5126 3354 
L 5126 2182 
L 3494 2182 
z
M 2093 5395 
C 1741 4755 1094 3962 224 3366 
C 339 3290 499 3130 582 3021 
C 730 3130 870 3238 1005 3354 
L 1005 512 
C 1005 -262 1325 -442 2362 -442 
C 2598 -442 4602 -442 4858 -442 
C 5811 -442 6010 -166 6118 781 
C 5978 806 5766 877 5645 960 
C 5568 173 5466 6 4851 6 
C 4416 6 2669 6 2330 6 
C 1626 6 1485 102 1485 506 
L 1485 1741 
L 5126 1741 
L 5126 1459 
L 5613 1459 
L 5613 3789 
L 3795 3789 
C 4019 4090 4243 4435 4410 4762 
L 4077 4979 
L 3987 4947 
L 2400 4947 
L 2624 5299 
L 2093 5395 
z
M 1485 3789 
L 1466 3789 
C 1702 4026 1914 4275 2099 4525 
L 3725 4525 
C 3584 4269 3405 4000 3232 3789 
L 1485 3789 
z
" transform="scale(0.015625)"/>
      <path id="NotoSansCJKjp-Regular-8c12" d="M 845 4096 
L 845 2566 
C 845 1747 800 602 275 -218 
C 384 -269 576 -410 659 -486 
C 1210 378 1306 1677 1306 2566 
L 1306 3706 
L 2893 3706 
L 2893 3200 
L 1632 3091 
L 1664 2739 
L 2893 2854 
L 2893 2669 
C 2893 2214 3078 2106 3776 2106 
C 3923 2106 5075 2106 5235 2106 
C 5741 2106 5882 2240 5933 2758 
C 5818 2784 5638 2835 5536 2899 
C 5510 2528 5459 2470 5190 2470 
C 4947 2470 3981 2470 3795 2470 
C 3411 2470 3341 2502 3341 2669 
L 3341 2893 
L 4928 3040 
L 4896 3379 
L 3341 3245 
L 3341 3706 
L 5427 3706 
C 5370 3501 5299 3302 5235 3155 
L 5638 3040 
C 5760 3290 5901 3680 5997 4026 
L 5670 4115 
L 5587 4096 
L 3386 4096 
L 3386 4512 
L 5606 4512 
L 5606 4890 
L 3386 4890 
L 3386 5376 
L 2906 5376 
L 2906 4096 
L 845 4096 
z
M 5082 1805 
L 5082 966 
L 4358 966 
L 4358 1894 
L 3936 1894 
L 3936 70 
L 3226 70 
L 3226 1894 
L 2803 1894 
L 2803 966 
L 2157 966 
L 2157 1805 
L 1773 1805 
L 1773 595 
L 2803 595 
L 2803 70 
L 1216 70 
L 1216 -346 
L 5990 -346 
L 5990 70 
L 4358 70 
L 4358 595 
L 5466 595 
L 5466 1805 
L 5082 1805 
z
" transform="scale(0.015625)"/>
      <path id="NotoSansCJKjp-Regular-7a17" d="M 3258 3405 
L 5414 3405 
L 5414 2848 
L 3258 2848 
L 3258 3405 
z
M 3258 4326 
L 5414 4326 
L 5414 3770 
L 3258 3770 
L 3258 4326 
z
M 1894 1632 
C 2048 1267 2182 781 2208 474 
L 2586 589 
C 2541 902 2406 1370 2246 1734 
L 1894 1632 
z
M 570 1715 
C 493 1158 378 582 166 192 
C 269 154 454 70 538 13 
C 736 422 890 1043 973 1651 
L 570 1715 
z
M 2816 4717 
L 2816 2451 
L 4109 2451 
L 4109 6 
C 4109 -64 4090 -83 4006 -90 
C 3930 -90 3674 -90 3386 -83 
C 3443 -211 3501 -384 3520 -506 
C 3917 -506 4173 -499 4339 -435 
C 4506 -358 4544 -237 4544 6 
L 4544 1325 
C 4819 717 5254 109 5952 -250 
C 6016 -128 6157 51 6246 141 
C 5754 358 5382 698 5114 1088 
C 5427 1306 5798 1613 6106 1894 
L 5715 2176 
C 5523 1946 5203 1645 4922 1408 
C 4742 1734 4627 2074 4544 2400 
L 4544 2451 
L 5875 2451 
L 5875 4717 
L 4365 4717 
C 4467 4890 4570 5088 4659 5280 
L 4128 5382 
C 4077 5190 3968 4934 3872 4717 
L 2816 4717 
z
M 2573 1901 
L 2573 1491 
L 3443 1491 
C 3219 826 2803 352 2291 77 
C 2381 13 2534 -154 2592 -250 
C 3226 115 3738 787 3962 1805 
L 3699 1914 
L 3622 1901 
L 2573 1901 
z
M 179 2547 
L 237 2118 
L 1248 2182 
L 1248 -512 
L 1670 -512 
L 1670 2208 
L 2176 2240 
C 2234 2086 2285 1946 2310 1824 
L 2694 2003 
C 2598 2349 2342 2906 2074 3322 
L 1722 3181 
C 1824 3014 1920 2829 2010 2637 
L 1088 2592 
C 1517 3136 2010 3866 2374 4454 
L 1971 4646 
C 1792 4301 1549 3878 1286 3475 
C 1190 3610 1075 3750 941 3898 
C 1178 4256 1459 4781 1677 5216 
L 1254 5376 
C 1120 5018 890 4531 685 4166 
L 486 4346 
L 237 4038 
C 525 3763 845 3398 1037 3104 
C 896 2912 762 2726 634 2566 
L 179 2547 
z
" transform="scale(0.015625)"/>
      <path id="NotoSansCJKjp-Regular-58c2" d="M 4499 5107 
C 4819 4979 5203 4781 5408 4634 
L 5645 4954 
C 5434 5094 5037 5280 4736 5389 
L 4499 5107 
z
M 4429 2266 
C 4781 2150 5222 1958 5453 1824 
L 5690 2144 
C 5453 2278 5005 2451 4666 2547 
L 4429 2266 
z
M 5254 4090 
C 5082 3885 4851 3699 4582 3539 
C 4461 3699 4346 3891 4256 4109 
L 6029 4262 
L 5997 4659 
L 4115 4506 
C 4032 4774 3981 5062 3962 5376 
L 3533 5376 
C 3552 5056 3603 4749 3680 4467 
L 2650 4384 
L 2688 3974 
L 3808 4070 
C 3910 3795 4045 3546 4192 3334 
C 3744 3123 3226 2957 2714 2835 
C 2803 2758 2944 2579 2995 2483 
C 3482 2618 3987 2797 4442 3027 
C 4774 2682 5165 2483 5568 2483 
C 5946 2483 6099 2662 6176 3302 
C 6067 3334 5926 3398 5830 3482 
C 5805 3046 5754 2899 5587 2899 
C 5338 2893 5075 3021 4832 3245 
C 5158 3450 5446 3680 5664 3949 
L 5254 4090 
z
M 5254 1242 
C 5056 998 4774 781 4454 595 
C 4307 787 4186 1018 4077 1274 
L 6144 1434 
L 6112 1830 
L 3942 1670 
C 3872 1939 3821 2227 3802 2534 
L 3360 2534 
C 3379 2221 3430 1920 3501 1638 
L 2515 1562 
L 2554 1152 
L 3629 1235 
C 3744 922 3885 640 4058 397 
C 3546 160 2957 -19 2368 -141 
C 2464 -230 2598 -429 2656 -518 
C 3219 -371 3795 -179 4314 77 
C 4672 -301 5094 -518 5555 -518 
C 5965 -518 6131 -326 6202 384 
C 6093 422 5946 493 5850 570 
C 5818 77 5766 -96 5574 -96 
C 5280 -102 4979 38 4717 294 
C 5094 518 5427 781 5677 1082 
L 5254 1242 
z
M 314 5082 
L 314 4640 
L 1114 4640 
C 928 3629 614 2688 141 2080 
C 243 2010 435 1850 512 1766 
C 614 1907 710 2061 794 2227 
C 1114 2016 1440 1754 1658 1530 
C 1350 762 922 192 397 -186 
C 499 -256 666 -416 730 -525 
C 1683 198 2368 1594 2611 3699 
L 2336 3782 
L 2253 3763 
L 1382 3763 
C 1459 4045 1523 4339 1581 4640 
L 2797 4640 
L 2797 5082 
L 314 5082 
z
M 1254 3328 
L 2118 3328 
C 2054 2842 1952 2394 1830 1997 
C 1594 2202 1280 2438 986 2611 
C 1082 2835 1171 3078 1254 3328 
z
" transform="scale(0.015625)"/>
      <path id="NotoSansCJKjp-Regular-4110" d="M 4422 5389 
C 4320 5133 4115 4768 3949 4538 
L 4019 4512 
L 2349 4512 
L 2451 4557 
C 2362 4787 2144 5114 1933 5357 
L 1523 5190 
C 1683 4992 1850 4723 1952 4512 
L 646 4512 
L 646 4090 
L 2944 4090 
L 2944 3526 
L 960 3526 
L 960 3117 
L 2944 3117 
L 2944 2541 
L 358 2541 
L 358 2106 
L 1658 2106 
C 1421 1114 954 314 250 -179 
C 365 -256 563 -429 653 -518 
C 1382 64 1901 960 2182 2106 
L 6042 2106 
L 6042 2541 
L 3437 2541 
L 3437 3117 
L 5478 3117 
L 5478 3526 
L 3437 3526 
L 3437 4090 
L 5798 4090 
L 5798 4512 
L 4442 4512 
C 4595 4717 4774 4986 4928 5235 
L 4422 5389 
z
M 2163 1619 
L 2163 1197 
L 3462 1197 
L 3462 70 
L 1549 70 
L 1549 -352 
L 5914 -352 
L 5914 70 
L 3949 70 
L 3949 1197 
L 5485 1197 
L 5485 1619 
L 2163 1619 
z
" transform="scale(0.015625)"/>
     </defs>
     <use xlink:href="#NotoSansCJKjp-Regular-5674"/>
     <use xlink:href="#NotoSansCJKjp-Regular-8347" transform="translate(100 0)"/>
     <use xlink:href="#NotoSansCJKjp-Regular-8c12" transform="translate(200 0)"/>
     <use xlink:href="#NotoSansCJKjp-Regular-7a17" transform="translate(300 0)"/>
     <use xlink:href="#NotoSansCJKjp-Regular-1" transform="translate(400 0)"/>
     <use xlink:href="#NotoSansCJKjp-Regular-1e" transform="translate(422.40625 0)"/>
     <use xlink:href="#NotoSansCJKjp-Regular-1" transform="translate(477.90625 0)"/>
     <use xlink:href="#NotoSansCJKjp-Regular-58c2" transform="translate(500.3125 0)"/>
     <use xlink:href="#NotoSansCJKjp-Regular-4110" transform="translate(600.3125 0)"/>
    </g>
    <!-- (點到直線的鉛直距離) -->
    <g style="fill: #bf8700" transform="translate(277.01675 270.233328) scale(0.105 -0.105)">
     <defs>
      <path id="NotoSansCJKjp-Regular-9" d="M 1530 -1254 
L 1888 -1094 
C 1338 -186 1075 902 1075 1990 
C 1075 3072 1338 4154 1888 5069 
L 1530 5235 
C 941 4275 589 3245 589 1990 
C 589 730 941 -301 1530 -1254 
z
" transform="scale(0.015625)"/>
      <path id="NotoSansCJKjp-Regular-2bbc" d="M 3885 4608 
L 3885 1056 
L 4352 1056 
L 4352 4608 
L 3885 4608 
z
M 5402 5197 
L 5402 134 
C 5402 19 5370 -13 5254 -19 
C 5126 -19 4723 -26 4294 -13 
C 4371 -154 4442 -378 4467 -512 
C 4986 -512 5370 -499 5587 -422 
C 5792 -346 5869 -198 5869 134 
L 5869 5197 
L 5402 5197 
z
M 2349 3994 
C 2522 3795 2701 3565 2861 3334 
L 1382 3264 
C 1562 3648 1747 4115 1914 4518 
L 3610 4518 
L 3610 4960 
L 326 4960 
L 326 4518 
L 1370 4518 
C 1248 4115 1069 3622 896 3245 
L 307 3219 
L 346 2765 
L 3136 2925 
C 3226 2778 3296 2643 3354 2528 
L 3731 2758 
C 3546 3149 3098 3750 2714 4192 
L 2349 3994 
z
M 256 160 
L 326 -320 
C 1184 -205 2445 -19 3635 147 
L 3622 595 
L 2208 410 
L 2208 1472 
L 3424 1472 
L 3424 1907 
L 2208 1907 
L 2208 2675 
L 1734 2675 
L 1734 1907 
L 512 1907 
L 512 1472 
L 1734 1472 
L 1734 346 
L 256 160 
z
" transform="scale(0.015625)"/>
      <path id="NotoSansCJKjp-Regular-6ce1" d="M 2374 2586 
L 4832 2586 
L 4832 2061 
L 2374 2061 
L 2374 2586 
z
M 2374 1715 
L 4832 1715 
L 4832 1178 
L 2374 1178 
L 2374 1715 
z
M 2374 3456 
L 4832 3456 
L 4832 2931 
L 2374 2931 
L 2374 3456 
z
M 736 3635 
L 736 -518 
L 1203 -518 
L 1203 -179 
L 6080 -179 
L 6080 269 
L 1203 269 
L 1203 3635 
L 736 3635 
z
M 3053 5395 
L 3008 4787 
L 397 4787 
L 397 4339 
L 2963 4339 
L 2899 3814 
L 1914 3814 
L 1914 813 
L 5306 813 
L 5306 3814 
L 3379 3814 
L 3469 4339 
L 6029 4339 
L 6029 4787 
L 3533 4787 
L 3603 5363 
L 3053 5395 
z
" transform="scale(0.015625)"/>
      <path id="NotoSansCJKjp-Regular-6c33" d="M 3533 2707 
C 3885 2240 4320 1600 4512 1210 
L 4922 1466 
C 4710 1843 4269 2464 3904 2918 
L 3533 2707 
z
M 1536 5389 
C 1485 5082 1376 4659 1274 4346 
L 557 4346 
L 557 -346 
L 998 -346 
L 998 160 
L 2784 160 
L 2784 4346 
L 1715 4346 
C 1824 4621 1946 4979 2054 5299 
L 1536 5389 
z
M 998 3917 
L 2342 3917 
L 2342 2566 
L 998 2566 
L 998 3917 
z
M 998 595 
L 998 2144 
L 2342 2144 
L 2342 595 
L 998 595 
z
M 3827 5402 
C 3622 4518 3277 3635 2835 3066 
C 2950 3002 3149 2867 3238 2790 
C 3456 3098 3661 3488 3840 3923 
L 5478 3923 
C 5402 1357 5299 371 5094 154 
C 5018 64 4947 45 4819 45 
C 4672 45 4288 51 3866 83 
C 3955 -38 4013 -243 4026 -378 
C 4384 -397 4762 -410 4979 -390 
C 5210 -365 5350 -314 5498 -122 
C 5754 192 5843 1184 5939 4122 
C 5946 4186 5946 4365 5946 4365 
L 4013 4365 
C 4115 4666 4211 4986 4288 5299 
L 3827 5402 
z
" transform="scale(0.015625)"/>
      <path id="NotoSansCJKjp-Regular-a209" d="M 3738 5280 
C 3590 4275 3296 3379 2771 2810 
C 2886 2739 3091 2598 3168 2522 
C 3699 3149 4032 4109 4205 5216 
L 3738 5280 
z
M 5184 5312 
L 4768 5222 
C 4979 4160 5363 3098 5888 2534 
C 5971 2656 6131 2835 6246 2918 
C 5760 3398 5376 4378 5184 5312 
z
M 518 1830 
C 653 1446 755 960 774 634 
L 1139 730 
C 1107 1050 998 1536 858 1914 
L 518 1830 
z
M 2381 1990 
C 2317 1645 2189 1126 2080 813 
L 2394 717 
C 2509 1018 2650 1491 2771 1882 
L 2381 1990 
z
M 3213 2272 
L 3213 -506 
L 3654 -506 
L 3654 -134 
L 5389 -134 
L 5389 -480 
L 5850 -480 
L 5850 2272 
L 3213 2272 
z
M 3654 307 
L 3654 1830 
L 5389 1830 
L 5389 307 
L 3654 307 
z
M 1395 5376 
C 1171 4864 749 4211 141 3725 
C 237 3661 378 3514 448 3411 
L 710 3648 
L 710 3379 
L 1434 3379 
L 1434 2701 
L 384 2701 
L 384 2278 
L 1434 2278 
L 1434 326 
L 282 115 
L 397 -320 
C 1075 -186 2029 6 2918 192 
L 2893 602 
L 1862 403 
L 1862 2278 
L 2816 2278 
L 2816 2701 
L 1862 2701 
L 1862 3379 
L 2650 3379 
L 2650 3795 
L 851 3795 
C 1216 4179 1485 4589 1683 4934 
C 2061 4595 2470 4115 2682 3808 
L 3008 4179 
C 2765 4512 2246 5024 1830 5376 
L 1395 5376 
z
" transform="scale(0.015625)"/>
      <path id="NotoSansCJKjp-Regular-9943" d="M 998 4685 
L 2246 4685 
L 2246 3558 
L 998 3558 
L 998 4685 
z
M 3155 5120 
L 3155 -506 
L 3629 -506 
L 3629 -205 
L 6157 -205 
L 6157 250 
L 3629 250 
L 3629 1331 
L 5798 1331 
L 5798 3603 
L 3629 3603 
L 3629 4672 
L 6074 4672 
L 6074 5120 
L 3155 5120 
z
M 3629 3155 
L 5331 3155 
L 5331 1779 
L 3629 1779 
L 3629 3155 
z
M 218 269 
L 307 -198 
C 1018 -26 2003 211 2931 442 
L 2886 870 
L 1888 634 
L 1888 1786 
L 2829 1786 
L 2829 2214 
L 1888 2214 
L 1888 3136 
L 2694 3136 
L 2694 5107 
L 570 5107 
L 570 3136 
L 1453 3136 
L 1453 538 
L 979 429 
L 979 2534 
L 570 2534 
L 570 339 
L 218 269 
z
" transform="scale(0.015625)"/>
      <path id="NotoSansCJKjp-Regular-a995" d="M 1587 5376 
L 1587 4826 
L 275 4826 
L 275 4429 
L 3373 4429 
L 3373 4826 
L 2054 4826 
L 2054 5376 
L 1587 5376 
z
M 5203 5312 
C 5126 4973 4979 4499 4838 4154 
L 4147 4154 
C 4288 4512 4416 4896 4518 5274 
L 4083 5376 
C 3859 4493 3501 3603 3066 3002 
L 3066 4166 
L 2688 4166 
L 2688 2739 
L 934 2739 
L 934 4166 
L 582 4166 
L 582 2387 
L 1587 2387 
L 1530 1958 
L 403 1958 
L 403 -518 
L 806 -518 
L 806 1587 
L 1466 1587 
C 1414 1286 1350 986 1293 742 
L 960 730 
L 998 378 
L 2342 480 
C 2381 371 2406 269 2426 179 
L 2720 282 
C 2675 557 2496 998 2310 1331 
L 2029 1248 
C 2099 1107 2170 954 2234 800 
L 1645 762 
C 1715 1005 1779 1293 1843 1587 
L 2822 1587 
L 2822 -45 
C 2822 -115 2803 -128 2726 -134 
C 2650 -141 2400 -141 2118 -134 
C 2170 -237 2234 -397 2253 -506 
C 2637 -506 2880 -506 3040 -442 
C 3194 -371 3238 -256 3238 -51 
L 3238 1958 
L 1920 1958 
L 2003 2387 
L 3066 2387 
L 3066 2912 
C 3168 2835 3315 2714 3379 2650 
C 3475 2784 3571 2938 3661 3098 
L 3661 -518 
L 4102 -518 
L 4102 -179 
L 6157 -179 
L 6157 262 
L 5261 262 
L 5261 1152 
L 6035 1152 
L 6035 1568 
L 5261 1568 
L 5261 2445 
L 6035 2445 
L 6035 2854 
L 5261 2854 
L 5261 3718 
L 6093 3718 
L 6093 4154 
L 5267 4154 
C 5402 4467 5542 4858 5664 5203 
L 5203 5312 
z
M 2099 4262 
C 2022 4090 1926 3917 1818 3763 
C 1645 3872 1472 3974 1306 4058 
L 1107 3834 
C 1274 3744 1453 3635 1619 3520 
C 1446 3315 1248 3142 1037 2995 
C 1120 2944 1254 2835 1306 2771 
C 1510 2925 1709 3110 1888 3328 
C 2080 3187 2246 3046 2362 2925 
L 2573 3181 
C 2458 3302 2285 3437 2086 3578 
C 2221 3770 2342 3968 2438 4179 
L 2099 4262 
z
M 4102 2445 
L 4845 2445 
L 4845 1568 
L 4102 1568 
L 4102 2445 
z
M 4102 2854 
L 4102 3718 
L 4845 3718 
L 4845 2854 
L 4102 2854 
z
M 4102 1152 
L 4845 1152 
L 4845 262 
L 4102 262 
L 4102 1152 
z
" transform="scale(0.015625)"/>
      <path id="NotoSansCJKjp-Regular-a" d="M 634 -1254 
C 1222 -301 1574 730 1574 1990 
C 1574 3245 1222 4275 634 5235 
L 269 5069 
C 819 4154 1094 3072 1094 1990 
C 1094 902 819 -186 269 -1094 
L 634 -1254 
z
" transform="scale(0.015625)"/>
     </defs>
     <use xlink:href="#NotoSansCJKjp-Regular-9"/>
     <use xlink:href="#NotoSansCJKjp-Regular-b7c4" transform="translate(33.796875 0)"/>
     <use xlink:href="#NotoSansCJKjp-Regular-2bbc" transform="translate(133.796875 0)"/>
     <use xlink:href="#NotoSansCJKjp-Regular-6ce1" transform="translate(233.796875 0)"/>
     <use xlink:href="#NotoSansCJKjp-Regular-7a17" transform="translate(333.796875 0)"/>
     <use xlink:href="#NotoSansCJKjp-Regular-6c33" transform="translate(433.796875 0)"/>
     <use xlink:href="#NotoSansCJKjp-Regular-a209" transform="translate(533.796875 0)"/>
     <use xlink:href="#NotoSansCJKjp-Regular-6ce1" transform="translate(633.796875 0)"/>
     <use xlink:href="#NotoSansCJKjp-Regular-9943" transform="translate(733.796875 0)"/>
     <use xlink:href="#NotoSansCJKjp-Regular-a995" transform="translate(833.796875 0)"/>
     <use xlink:href="#NotoSansCJKjp-Regular-a" transform="translate(933.796875 0)"/>
    </g>
   </g>
   <g id="text_22">
    <!-- 最適直線：使「殘差平方和」最小 -->
    <g style="fill: #222831" transform="translate(140.76875 19.52) scale(0.14 -0.14)">
     <defs>
      <path id="NotoSansCJKjp-Regular-50c3" d="M 1600 4064 
L 4813 4064 
L 4813 3610 
L 1600 3610 
L 1600 4064 
z
M 1600 4832 
L 4813 4832 
L 4813 4384 
L 1600 4384 
L 1600 4832 
z
M 1139 5171 
L 1139 3270 
L 5293 3270 
L 5293 5171 
L 1139 5171 
z
M 2534 2509 
L 2534 2074 
L 1370 2074 
L 1370 2509 
L 2534 2509 
z
M 314 282 
L 358 -147 
L 2534 115 
L 2534 -512 
L 2995 -512 
L 2995 -109 
C 3091 -198 3200 -365 3251 -474 
C 3699 -320 4141 -96 4531 205 
C 4909 -115 5363 -358 5875 -506 
C 5939 -397 6061 -218 6163 -134 
C 5664 -6 5229 205 4858 486 
C 5280 883 5613 1389 5811 2010 
L 5517 2131 
L 5434 2112 
L 3219 2112 
L 3219 1722 
L 3776 1722 
L 3501 1638 
C 3674 1216 3910 832 4205 512 
C 3840 237 3418 32 2995 -90 
L 2995 2509 
L 6016 2509 
L 6016 2912 
L 371 2912 
L 371 2509 
L 928 2509 
L 928 339 
L 314 282 
z
M 3898 1722 
L 5222 1722 
C 5056 1363 4813 1050 4531 781 
C 4262 1050 4045 1370 3898 1722 
z
M 2534 1709 
L 2534 1261 
L 1370 1261 
L 1370 1709 
L 2534 1709 
z
M 2534 902 
L 2534 518 
L 1370 384 
L 1370 902 
L 2534 902 
z
" transform="scale(0.015625)"/>
      <path id="NotoSansCJKjp-Regular-9e35" d="M 358 4947 
C 749 4640 1184 4186 1370 3866 
L 1760 4166 
C 1568 4480 1114 4922 723 5216 
L 358 4947 
z
M 1574 2848 
L 294 2848 
L 294 2400 
L 1107 2400 
L 1107 742 
C 819 474 499 205 230 13 
L 480 -461 
C 794 -179 1088 96 1370 371 
C 1773 -134 2355 -358 3200 -390 
C 3917 -416 5286 -403 6003 -378 
C 6022 -230 6099 -13 6157 96 
C 5382 45 3904 26 3194 58 
C 2438 90 1875 307 1574 781 
L 1574 2848 
z
M 2739 4390 
C 2848 4211 2950 3974 2995 3795 
L 2170 3795 
L 2170 435 
L 2611 435 
L 2611 3405 
L 3789 3405 
L 3789 2970 
L 2835 2970 
L 2835 2643 
L 3789 2643 
L 3789 2182 
L 3123 2182 
L 3123 774 
L 3475 774 
L 3475 1018 
L 4845 1018 
L 4845 2182 
L 4154 2182 
L 4154 2643 
L 5120 2643 
L 5120 2970 
L 4154 2970 
L 4154 3405 
L 5382 3405 
L 5382 954 
C 5382 877 5363 858 5286 851 
C 5197 851 4947 851 4659 858 
C 4723 742 4787 570 4806 448 
C 5190 448 5453 448 5626 518 
C 5786 602 5830 717 5830 954 
L 5830 3795 
L 4890 3795 
C 4998 3968 5114 4192 5229 4410 
L 5082 4448 
L 6061 4448 
L 6061 4838 
L 4186 4838 
L 4186 5376 
L 3718 5376 
L 3718 4838 
L 1933 4838 
L 1933 4448 
L 2963 4448 
L 2739 4390 
z
M 4755 4448 
C 4678 4250 4550 3981 4454 3802 
L 4480 3795 
L 3347 3795 
L 3443 3821 
C 3405 4000 3290 4256 3168 4448 
L 4755 4448 
z
M 3475 1875 
L 4493 1875 
L 4493 1325 
L 3475 1325 
L 3475 1875 
z
" transform="scale(0.015625)"/>
      <path id="NotoSansCJKjp-Regular-e6c0" d="M 3200 3482 
C 3456 3482 3686 3667 3686 3962 
C 3686 4256 3456 4442 3200 4442 
C 2944 4442 2714 4256 2714 3962 
C 2714 3667 2944 3482 3200 3482 
z
M 3200 346 
C 3456 346 3686 538 3686 826 
C 3686 1120 3456 1312 3200 1312 
C 2944 1312 2714 1120 2714 826 
C 2714 538 2944 346 3200 346 
z
" transform="scale(0.015625)"/>
      <path id="NotoSansCJKjp-Regular-2733" d="M 3834 5350 
L 3834 4666 
L 2054 4666 
L 2054 4224 
L 3834 4224 
L 3834 3597 
L 2240 3597 
L 2240 1824 
L 3802 1824 
C 3757 1472 3661 1139 3456 838 
C 3117 1075 2842 1363 2643 1696 
L 2240 1562 
C 2477 1152 2790 806 3168 518 
C 2874 250 2438 26 1818 -134 
C 1920 -237 2054 -422 2112 -531 
C 2778 -333 3238 -64 3565 250 
C 4211 -141 5018 -397 5933 -525 
C 5997 -384 6118 -198 6221 -90 
C 5299 13 4493 237 3846 589 
C 4102 966 4218 1382 4269 1824 
L 5946 1824 
L 5946 3597 
L 4301 3597 
L 4301 4224 
L 6157 4224 
L 6157 4666 
L 4301 4666 
L 4301 5350 
L 3834 5350 
z
M 2688 3194 
L 3834 3194 
L 3834 2522 
L 3827 2234 
L 2688 2234 
L 2688 3194 
z
M 4301 3194 
L 5485 3194 
L 5485 2234 
L 4294 2234 
L 4301 2522 
L 4301 3194 
z
M 1779 5389 
C 1402 4416 781 3469 134 2854 
C 218 2739 352 2490 403 2381 
C 646 2624 883 2906 1107 3219 
L 1107 -538 
L 1568 -538 
L 1568 3917 
C 1818 4346 2048 4794 2227 5248 
L 1779 5389 
z
" transform="scale(0.015625)"/>
      <path id="NotoSansCJKjp-Regular-580" d="M 4160 5414 
L 4160 1274 
L 4634 1274 
L 4634 4973 
L 6182 4973 
L 6182 5414 
L 4160 5414 
z
" transform="scale(0.015625)"/>
      <path id="NotoSansCJKjp-Regular-4ea0" d="M 2931 5395 
L 2931 4269 
L 339 4269 
L 339 3808 
L 2310 3808 
C 2240 2330 2054 666 269 -147 
C 397 -243 544 -416 621 -538 
C 1926 90 2438 1152 2669 2298 
L 4787 2298 
C 4685 819 4557 186 4371 19 
C 4294 -51 4211 -58 4064 -58 
C 3898 -58 3443 -51 2982 -13 
C 3078 -147 3142 -346 3155 -480 
C 3584 -506 4013 -512 4230 -499 
C 4480 -486 4634 -435 4781 -282 
C 5030 -26 5165 685 5293 2522 
C 5306 2598 5312 2758 5312 2758 
L 2746 2758 
C 2790 3110 2822 3462 2842 3808 
L 6067 3808 
L 6067 4269 
L 3424 4269 
L 3424 5395 
L 2931 5395 
z
" transform="scale(0.015625)"/>
      <path id="NotoSansCJKjp-Regular-2f70" d="M 3398 4781 
L 3398 -224 
L 3866 -224 
L 3866 301 
L 5293 301 
L 5293 -179 
L 5779 -179 
L 5779 4781 
L 3398 4781 
z
M 3866 762 
L 3866 4320 
L 5293 4320 
L 5293 762 
L 3866 762 
z
M 2810 5318 
C 2246 5088 1235 4896 384 4781 
C 435 4672 499 4506 518 4397 
C 858 4435 1222 4486 1581 4550 
L 1581 3482 
L 320 3482 
L 320 3034 
L 1459 3034 
C 1165 2227 653 1350 166 858 
C 250 736 371 550 429 410 
C 845 851 1267 1587 1581 2342 
L 1581 -499 
L 2054 -499 
L 2054 2323 
C 2330 1958 2688 1472 2835 1229 
L 3130 1626 
C 2976 1824 2291 2630 2054 2874 
L 2054 3034 
L 3174 3034 
L 3174 3482 
L 2054 3482 
L 2054 4646 
C 2458 4730 2829 4826 3130 4941 
L 2810 5318 
z
" transform="scale(0.015625)"/>
      <path id="NotoSansCJKjp-Regular-581" d="M 2240 -550 
L 2240 3590 
L 1766 3590 
L 1766 -109 
L 218 -109 
L 218 -550 
L 2240 -550 
z
" transform="scale(0.015625)"/>
      <path id="NotoSansCJKjp-Regular-3d78" d="M 2970 5286 
L 2970 154 
C 2970 26 2918 -13 2790 -19 
C 2656 -26 2195 -32 1728 -13 
C 1805 -147 1894 -378 1926 -512 
C 2528 -518 2925 -506 3162 -422 
C 3392 -346 3488 -198 3488 154 
L 3488 5286 
L 2970 5286 
z
M 4512 3654 
C 5062 2733 5581 1536 5728 774 
L 6246 986 
C 6080 1754 5536 2931 4973 3827 
L 4512 3654 
z
M 1293 3782 
C 1133 2925 774 1818 205 1139 
C 339 1082 550 966 659 883 
C 1242 1594 1619 2752 1830 3693 
L 1293 3782 
z
" transform="scale(0.015625)"/>
     </defs>
     <use xlink:href="#NotoSansCJKjp-Regular-50c3"/>
     <use xlink:href="#NotoSansCJKjp-Regular-9e35" transform="translate(100 0)"/>
     <use xlink:href="#NotoSansCJKjp-Regular-6ce1" transform="translate(200 0)"/>
     <use xlink:href="#NotoSansCJKjp-Regular-7a17" transform="translate(300 0)"/>
     <use xlink:href="#NotoSansCJKjp-Regular-e6c0" transform="translate(400 0)"/>
     <use xlink:href="#NotoSansCJKjp-Regular-2733" transform="translate(500 0)"/>
     <use xlink:href="#NotoSansCJKjp-Regular-580" transform="translate(600 0)"/>
     <use xlink:href="#NotoSansCJKjp-Regular-58c2" transform="translate(700 0)"/>
     <use xlink:href="#NotoSansCJKjp-Regular-4110" transform="translate(800 0)"/>
     <use xlink:href="#NotoSansCJKjp-Regular-41d6" transform="translate(900 0)"/>
     <use xlink:href="#NotoSansCJKjp-Regular-4ea0" transform="translate(1000 0)"/>
     <use xlink:href="#NotoSansCJKjp-Regular-2f70" transform="translate(1100 0)"/>
     <use xlink:href="#NotoSansCJKjp-Regular-581" transform="translate(1200 0)"/>
     <use xlink:href="#NotoSansCJKjp-Regular-50c3" transform="translate(1300 0)"/>
     <use xlink:href="#NotoSansCJKjp-Regular-3d78" transform="translate(1400 0)"/>
    </g>
   </g>
   <g id="line2d_41">
    <path d="M 62.74475 265.12352 
L 428.79275 49.96208 
" clip-path="url(#pfad7616d1d)" style="fill: none; stroke: #d1242f; stroke-width: 2.4; stroke-linecap: square"/>
   </g>
   <g id="PathCollection_1">
    <defs>
     <path id="m1a25003050" d="M 0 3.807887 
C 1.009863 3.807887 1.978501 3.406664 2.692582 2.692582 
C 3.406664 1.978501 3.807887 1.009863 3.807887 0 
C 3.807887 -1.009863 3.406664 -1.978501 2.692582 -2.692582 
C 1.978501 -3.406664 1.009863 -3.807887 0 -3.807887 
C -1.009863 -3.807887 -1.978501 -3.406664 -2.692582 -2.692582 
C -3.406664 -1.978501 -3.807887 -1.009863 -3.807887 0 
C -3.807887 1.009863 -3.406664 1.978501 -2.692582 2.692582 
C -1.978501 3.406664 -1.009863 3.807887 0 3.807887 
z
" style="stroke: #1f6feb"/>
    </defs>
    <g clip-path="url(#pfad7616d1d)">
     <use xlink:href="#m1a25003050" x="89.52875" y="258.7712" style="fill: #1f6feb; stroke: #1f6feb"/>
     <use xlink:href="#m1a25003050" x="134.16875" y="211.5968" style="fill: #1f6feb; stroke: #1f6feb"/>
     <use xlink:href="#m1a25003050" x="178.80875" y="203.7344" style="fill: #1f6feb; stroke: #1f6feb"/>
     <use xlink:href="#m1a25003050" x="223.44875" y="153.9392" style="fill: #1f6feb; stroke: #1f6feb"/>
     <use xlink:href="#m1a25003050" x="268.08875" y="161.8016" style="fill: #1f6feb; stroke: #1f6feb"/>
     <use xlink:href="#m1a25003050" x="312.72875" y="106.7648" style="fill: #1f6feb; stroke: #1f6feb"/>
     <use xlink:href="#m1a25003050" x="357.36875" y="98.9024" style="fill: #1f6feb; stroke: #1f6feb"/>
     <use xlink:href="#m1a25003050" x="402.00875" y="64.832" style="fill: #1f6feb; stroke: #1f6feb"/>
    </g>
   </g>
   <g id="legend_1">
    <g id="PathCollection_2">
     <g>
      <use xlink:href="#m1a25003050" x="372.94875" y="283.2005" style="fill: #1f6feb; stroke: #1f6feb"/>
     </g>
    </g>
    <g id="text_23">
     <!-- 資料點 -->
     <g style="fill: #222831" transform="translate(392.74875 286.088) scale(0.11 -0.11)">
      <defs>
       <path id="NotoSansCJKjp-Regular-97b2" d="M 614 4902 
C 1069 4768 1664 4531 1965 4365 
L 2176 4742 
C 1862 4902 1274 5114 832 5235 
L 614 4902 
z
M 294 3552 
L 486 3136 
C 966 3283 1574 3475 2150 3661 
L 2099 4045 
C 1434 3859 762 3667 294 3552 
z
M 1626 2035 
L 4851 2035 
L 4851 1594 
L 1626 1594 
L 1626 2035 
z
M 1626 1286 
L 4851 1286 
L 4851 838 
L 1626 838 
L 1626 1286 
z
M 1626 2778 
L 4851 2778 
L 4851 2349 
L 1626 2349 
L 1626 2778 
z
M 1158 3104 
L 1158 518 
L 5331 518 
L 5331 3104 
L 1158 3104 
z
M 3738 186 
C 4435 -45 5126 -320 5530 -525 
L 6067 -282 
C 5600 -70 4826 211 4128 429 
L 3738 186 
z
M 2227 448 
C 1766 198 998 -32 339 -173 
C 448 -256 621 -435 698 -531 
C 1338 -358 2150 -58 2669 250 
L 2227 448 
z
M 3149 5376 
C 2976 4998 2656 4557 2176 4224 
C 2291 4179 2451 4077 2541 3987 
C 2765 4160 2950 4346 3110 4544 
L 3795 4544 
C 3642 3962 3251 3635 2202 3456 
C 2278 3373 2387 3206 2432 3110 
C 3347 3290 3821 3590 4064 4070 
C 4307 3603 4774 3187 5875 2995 
C 5920 3117 6035 3296 6125 3392 
C 4806 3584 4435 4045 4294 4544 
L 5325 4544 
C 5210 4358 5069 4179 4941 4051 
L 5325 3917 
C 5549 4134 5792 4499 5971 4832 
L 5645 4928 
L 5568 4909 
L 3366 4909 
C 3443 5043 3514 5178 3578 5312 
L 3149 5376 
z
" transform="scale(0.015625)"/>
       <path id="NotoSansCJKjp-Regular-4e62" d="M 346 4877 
C 512 4429 666 3840 691 3456 
L 1075 3552 
C 1030 3936 883 4525 698 4973 
L 346 4877 
z
M 2413 4992 
C 2323 4557 2138 3923 1990 3539 
L 2304 3437 
C 2470 3802 2675 4403 2835 4883 
L 2413 4992 
z
M 3302 4589 
C 3674 4365 4115 4013 4314 3770 
L 4570 4134 
C 4358 4378 3917 4704 3546 4922 
L 3302 4589 
z
M 2976 2976 
C 3354 2771 3821 2438 4045 2208 
L 4282 2592 
C 4058 2822 3584 3123 3200 3315 
L 2976 2976 
z
M 301 3226 
L 301 2778 
L 1203 2778 
C 973 2067 570 1222 198 774 
C 282 653 397 448 448 307 
C 762 736 1088 1440 1331 2131 
L 1331 -506 
L 1779 -506 
L 1779 2138 
C 2016 1766 2310 1280 2426 1037 
L 2746 1414 
C 2605 1626 1965 2483 1779 2688 
L 1779 2778 
L 2829 2778 
L 2829 3226 
L 1779 3226 
L 1779 5357 
L 1331 5357 
L 1331 3226 
L 301 3226 
z
M 2816 1299 
L 2899 858 
L 4896 1222 
L 4896 -506 
L 5357 -506 
L 5357 1306 
L 6182 1453 
L 6106 1894 
L 5357 1760 
L 5357 5376 
L 4896 5376 
L 4896 1677 
L 2816 1299 
z
" transform="scale(0.015625)"/>
      </defs>
      <use xlink:href="#NotoSansCJKjp-Regular-97b2"/>
      <use xlink:href="#NotoSansCJKjp-Regular-4e62" transform="translate(100 0)"/>
      <use xlink:href="#NotoSansCJKjp-Regular-b7c4" transform="translate(200 0)"/>
     </g>
    </g>
    <g id="line2d_42">
     <path d="M 361.94875 298.738 
L 372.94875 298.738 
L 383.94875 298.738 
" style="fill: none; stroke: #d1242f; stroke-width: 2.4; stroke-linecap: square"/>
    </g>
    <g id="text_24">
     <!-- 最適直線 -->
     <g style="fill: #222831" transform="translate(392.74875 302.588) scale(0.11 -0.11)">
      <use xlink:href="#NotoSansCJKjp-Regular-50c3"/>
      <use xlink:href="#NotoSansCJKjp-Regular-9e35" transform="translate(100 0)"/>
      <use xlink:href="#NotoSansCJKjp-Regular-6ce1" transform="translate(200 0)"/>
      <use xlink:href="#NotoSansCJKjp-Regular-7a17" transform="translate(300 0)"/>
     </g>
    </g>
   </g>
   <g id="PathCollection_3">
    <defs>
     <path id="m7dbed37e63" d="M -2.09165 4.1833 
L 0 2.09165 
L 2.09165 4.1833 
L 4.1833 2.09165 
L 2.09165 0 
L 4.1833 -2.09165 
L 2.09165 -4.1833 
L 0 -2.09165 
L -2.09165 -4.1833 
L -4.1833 -2.09165 
L -2.09165 0 
L -4.1833 2.09165 
z
" style="stroke: #222831"/>
    </defs>
    <g clip-path="url(#pfad7616d1d)">
     <use xlink:href="#m7dbed37e63" x="245.76875" y="157.5428" style="fill: #222831; stroke: #222831"/>
    </g>
   </g>
  </g>
 </g>
 <defs>
  <clipPath id="pfad7616d1d">
   <rect x="44.88875" y="25.52" width="401.76" height="288.288"/>
  </clipPath>
 </defs>
</svg>
