<?xml version="1.0" encoding="utf-8" standalone="no"?>
<!DOCTYPE svg PUBLIC "-//W3C//DTD SVG 1.1//EN"
  "http://www.w3.org/Graphics/SVG/1.1/DTD/svg11.dtd">
<svg xmlns:xlink="http://www.w3.org/1999/xlink" width="679.77pt" height="386.290125pt" viewBox="0 0 679.77 386.290125" xmlns="http://www.w3.org/2000/svg" version="1.1">
 <metadata>
  <rdf:RDF xmlns:dc="http://purl.org/dc/elements/1.1/" xmlns:cc="http://creativecommons.org/ns#" xmlns:rdf="http://www.w3.org/1999/02/22-rdf-syntax-ns#">
   <cc:Work>
    <dc:type rdf:resource="http://purl.org/dc/dcmitype/StillImage"/>
    <dc:date>2026-06-20T18:20:31.733661</dc:date>
    <dc:format>image/svg+xml</dc:format>
    <dc:creator>
     <cc:Agent>
      <dc:title>Matplotlib v3.11.0, https://matplotlib.org/</dc:title>
     </cc:Agent>
    </dc:creator>
   </cc:Work>
  </rdf:RDF>
 </metadata>
 <defs>
  <style type="text/css">*{stroke-linejoin: round; stroke-linecap: butt}</style>
 </defs>
 <g id="figure_1">
  <g id="patch_1">
   <path d="M 0 386.290125 
L 679.77 386.290125 
L 679.77 0 
L 0 0 
z
" style="fill: #ffffff"/>
  </g>
  <g id="axes_1">
   <g id="patch_2">
    <path d="M 10.53 133.842625 
L 665.91 133.842625 
L 665.91 61.8195 
L 10.53 61.8195 
z
" style="fill: #ffffff"/>
   </g>
   <g id="line2d_1">
    <path d="M 10.53 95.83042 
L 665.91 95.83042 
" clip-path="url(#pa60cd65449)" style="fill: none; stroke: #d8dde3; stroke-width: 0.8; stroke-linecap: square"/>
   </g>
   <g id="matplotlib.axis_1">
    <g id="xtick_1">
     <g id="line2d_2">
      <defs>
       <path id="m5010483901" d="M 0 0 
L 0 3.5 
" style="stroke: #222831; stroke-width: 0.8"/>
      </defs>
      <g>
       <use xlink:href="#m5010483901" x="10.53" y="133.842625" style="fill: #222831; stroke: #222831; stroke-width: 0.8"/>
      </g>
     </g>
    </g>
    <g id="xtick_2">
     <g id="line2d_3">
      <g>
       <use xlink:href="#m5010483901" x="92.4525" y="133.842625" style="fill: #222831; stroke: #222831; stroke-width: 0.8"/>
      </g>
     </g>
    </g>
    <g id="xtick_3">
     <g id="line2d_4">
      <g>
       <use xlink:href="#m5010483901" x="174.375" y="133.842625" style="fill: #222831; stroke: #222831; stroke-width: 0.8"/>
      </g>
     </g>
    </g>
    <g id="xtick_4">
     <g id="line2d_5">
      <g>
       <use xlink:href="#m5010483901" x="256.2975" y="133.842625" style="fill: #222831; stroke: #222831; stroke-width: 0.8"/>
      </g>
     </g>
    </g>
    <g id="xtick_5">
     <g id="line2d_6">
      <g>
       <use xlink:href="#m5010483901" x="338.22" y="133.842625" style="fill: #222831; stroke: #222831; stroke-width: 0.8"/>
      </g>
     </g>
    </g>
    <g id="xtick_6">
     <g id="line2d_7">
      <g>
       <use xlink:href="#m5010483901" x="420.1425" y="133.842625" style="fill: #222831; stroke: #222831; stroke-width: 0.8"/>
      </g>
     </g>
    </g>
    <g id="xtick_7">
     <g id="line2d_8">
      <g>
       <use xlink:href="#m5010483901" x="502.065" y="133.842625" style="fill: #222831; stroke: #222831; stroke-width: 0.8"/>
      </g>
     </g>
    </g>
    <g id="xtick_8">
     <g id="line2d_9">
      <g>
       <use xlink:href="#m5010483901" x="583.9875" y="133.842625" style="fill: #222831; stroke: #222831; stroke-width: 0.8"/>
      </g>
     </g>
    </g>
    <g id="xtick_9">
     <g id="line2d_10">
      <g>
       <use xlink:href="#m5010483901" x="665.91" y="133.842625" style="fill: #222831; stroke: #222831; stroke-width: 0.8"/>
      </g>
     </g>
    </g>
   </g>
   <g id="matplotlib.axis_2"/>
   <g id="patch_3">
    <path d="M 10.53 133.842625 
L 665.91 133.842625 
" style="fill: none; stroke: #222831; stroke-width: 1.1; stroke-linejoin: miter; stroke-linecap: square"/>
   </g>
   <g id="patch_4">
    <path d="M 129.962745 83.026309 
Q 112.935548 83.026309 95.908351 83.026309 
" style="fill: none; stroke: #d8dde3; stroke-width: 1.3; stroke-linecap: round"/>
    <path d="M 125.162745 80.626309 
L 129.962745 83.026309 
L 125.162745 85.426309 
" style="fill: none; stroke: #d8dde3; stroke-width: 1.3; stroke-linecap: round"/>
    <path d="M 100.708351 85.426309 
L 95.908351 83.026309 
L 100.708351 80.626309 
" style="fill: none; stroke: #d8dde3; stroke-width: 1.3; stroke-linecap: round"/>
   </g>
   <g id="text_1">
    <!-- 1 -->
    <g style="fill: #222831" transform="translate(110.158125 77.825024) scale(0.1 -0.1)">
     <defs>
      <path id="NotoSansCJKjp-Regular-12" d="M 563 0 
L 3136 0 
L 3136 486 
L 2195 486 
L 2195 4691 
L 1747 4691 
C 1491 4544 1190 4435 774 4358 
L 774 3987 
L 1613 3987 
L 1613 486 
L 563 486 
L 563 0 
z
" transform="scale(0.015625)"/>
     </defs>
     <use xlink:href="#NotoSansCJKjp-Regular-12"/>
    </g>
   </g>
   <g id="patch_5">
    <path d="M 211.885245 83.026309 
Q 174.373818 83.026309 136.862391 83.026309 
" style="fill: none; stroke: #d8dde3; stroke-width: 1.3; stroke-linecap: round"/>
    <path d="M 207.085245 80.626309 
L 211.885245 83.026309 
L 207.085245 85.426309 
" style="fill: none; stroke: #d8dde3; stroke-width: 1.3; stroke-linecap: round"/>
    <path d="M 141.662391 85.426309 
L 136.862391 83.026309 
L 141.662391 80.626309 
" style="fill: none; stroke: #d8dde3; stroke-width: 1.3; stroke-linecap: round"/>
   </g>
   <g id="text_2">
    <!-- 2 -->
    <g style="fill: #222831" transform="translate(171.6 77.825024) scale(0.1 -0.1)">
     <defs>
      <path id="NotoSansCJKjp-Regular-13" d="M 282 0 
L 3232 0 
L 3232 506 
L 1933 506 
C 1696 506 1408 480 1165 461 
C 2266 1504 3008 2458 3008 3398 
C 3008 4230 2477 4774 1638 4774 
C 1043 4774 634 4506 256 4090 
L 595 3757 
C 858 4070 1184 4301 1568 4301 
C 2150 4301 2432 3910 2432 3373 
C 2432 2566 1754 1632 282 346 
L 282 0 
z
" transform="scale(0.015625)"/>
     </defs>
     <use xlink:href="#NotoSansCJKjp-Regular-13"/>
    </g>
   </g>
   <g id="patch_6">
    <path d="M 252.846495 83.026309 
Q 235.819298 83.026309 218.792101 83.026309 
" style="fill: none; stroke: #d8dde3; stroke-width: 1.3; stroke-linecap: round"/>
    <path d="M 248.046495 80.626309 
L 252.846495 83.026309 
L 248.046495 85.426309 
" style="fill: none; stroke: #d8dde3; stroke-width: 1.3; stroke-linecap: round"/>
    <path d="M 223.592101 85.426309 
L 218.792101 83.026309 
L 223.592101 80.626309 
" style="fill: none; stroke: #d8dde3; stroke-width: 1.3; stroke-linecap: round"/>
   </g>
   <g id="text_3">
    <!-- 1 -->
    <g style="fill: #222831" transform="translate(233.041875 77.825024) scale(0.1 -0.1)">
     <use xlink:href="#NotoSansCJKjp-Regular-12"/>
    </g>
   </g>
   <g id="line2d_11">
    <path d="M 174.375 133.842625 
L 174.375 61.8195 
" clip-path="url(#pa60cd65449)" style="fill: none; stroke-dasharray: 5.92,2.56; stroke-dashoffset: 0; stroke: #222831; stroke-width: 1.6"/>
   </g>
   <g id="text_4">
    <!-- 平均 4 -->
    <g style="fill: #222831" transform="translate(159.784922 129.878385) scale(0.105 -0.105)">
     <defs>
      <path id="NotoSansCJKjp-Regular-41d6" d="M 1114 4032 
C 1363 3558 1613 2938 1702 2554 
L 2157 2714 
C 2067 3085 1805 3699 1549 4160 
L 1114 4032 
z
M 4832 4192 
C 4672 3725 4378 3072 4134 2669 
L 4550 2534 
C 4800 2918 5101 3533 5338 4051 
L 4832 4192 
z
M 333 2227 
L 333 1747 
L 2938 1747 
L 2938 -506 
L 3437 -506 
L 3437 1747 
L 6074 1747 
L 6074 2227 
L 3437 2227 
L 3437 4467 
L 5715 4467 
L 5715 4947 
L 672 4947 
L 672 4467 
L 2938 4467 
L 2938 2227 
L 333 2227 
z
" transform="scale(0.015625)"/>
      <path id="NotoSansCJKjp-Regular-33ef" d="M 2803 3021 
L 2803 2579 
L 4794 2579 
L 4794 3021 
L 2803 3021 
z
M 2509 954 
L 2707 506 
C 3334 742 4173 1075 4954 1389 
L 4870 1805 
C 4000 1478 3091 1146 2509 954 
z
M 3245 5376 
C 3002 4480 2586 3610 2054 3053 
C 2176 2982 2381 2835 2477 2746 
C 2726 3046 2970 3430 3181 3853 
L 5542 3853 
C 5459 1254 5357 269 5152 51 
C 5075 -32 5005 -58 4877 -51 
C 4723 -51 4326 -51 3898 -13 
C 3981 -154 4045 -358 4058 -499 
C 4442 -518 4838 -531 5062 -506 
C 5293 -486 5440 -429 5587 -237 
C 5843 77 5939 1101 6029 4058 
C 6035 4128 6035 4314 6035 4314 
L 3392 4314 
C 3526 4621 3635 4941 3731 5267 
L 3245 5376 
z
M 218 1030 
L 390 550 
C 986 794 1773 1126 2509 1440 
L 2406 1894 
L 1606 1568 
L 1606 3430 
L 2362 3430 
L 2362 3885 
L 1606 3885 
L 1606 5338 
L 1139 5338 
L 1139 3885 
L 333 3885 
L 333 3430 
L 1139 3430 
L 1139 1382 
C 794 1248 474 1120 218 1030 
z
" transform="scale(0.015625)"/>
      <path id="NotoSansCJKjp-Regular-1" transform="scale(0.015625)"/>
      <path id="NotoSansCJKjp-Regular-15" d="M 2176 0 
L 2726 0 
L 2726 1293 
L 3354 1293 
L 3354 1760 
L 2726 1760 
L 2726 4691 
L 2080 4691 
L 128 1677 
L 128 1293 
L 2176 1293 
L 2176 0 
z
M 2176 1760 
L 736 1760 
L 1805 3360 
C 1939 3590 2067 3827 2182 4051 
L 2208 4051 
C 2195 3814 2176 3430 2176 3200 
L 2176 1760 
z
" transform="scale(0.015625)"/>
     </defs>
     <use xlink:href="#NotoSansCJKjp-Regular-41d6"/>
     <use xlink:href="#NotoSansCJKjp-Regular-33ef" transform="translate(100 0)"/>
     <use xlink:href="#NotoSansCJKjp-Regular-1" transform="translate(200 0)"/>
     <use xlink:href="#NotoSansCJKjp-Regular-15" transform="translate(222.40625 0)"/>
    </g>
   </g>
   <g id="text_5">
    <!-- 原始資料：間距 1、2、1，平均 = 4 -->
    <g style="fill: #222831" transform="translate(10.53 55.8195) scale(0.12 -0.12)">
     <defs>
      <path id="NotoSansCJKjp-Regular-2e09" d="M 2362 2624 
L 5024 2624 
L 5024 2029 
L 2362 2029 
L 2362 2624 
z
M 2362 3571 
L 5024 3571 
L 5024 2989 
L 2362 2989 
L 2362 3571 
z
M 4474 1107 
C 4954 723 5510 166 5754 -211 
L 6150 51 
C 5888 435 5325 966 4838 1338 
L 4474 1107 
z
M 2374 1318 
C 2080 838 1606 352 1126 45 
C 1242 -26 1434 -160 1523 -237 
C 1990 109 2496 646 2835 1184 
L 2374 1318 
z
M 1888 3955 
L 1888 1645 
L 3450 1645 
L 3450 13 
C 3450 -64 3424 -90 3328 -96 
C 3232 -96 2899 -96 2522 -90 
C 2586 -211 2650 -390 2669 -512 
C 3168 -512 3482 -512 3674 -442 
C 3866 -371 3917 -243 3917 6 
L 3917 1645 
L 5510 1645 
L 5510 3955 
L 3750 3955 
C 3814 4147 3885 4365 3949 4576 
L 6035 4576 
L 6035 5024 
L 838 5024 
L 838 3168 
C 838 2163 787 749 224 -256 
C 339 -301 550 -422 640 -499 
C 1229 550 1312 2106 1312 3168 
L 1312 4576 
L 3386 4576 
C 3347 4390 3296 4154 3238 3955 
L 1888 3955 
z
" transform="scale(0.015625)"/>
      <path id="NotoSansCJKjp-Regular-384e" d="M 3136 2086 
L 3136 -518 
L 3597 -518 
L 3597 -230 
L 5389 -230 
L 5389 -493 
L 5869 -493 
L 5869 2086 
L 3136 2086 
z
M 3597 211 
L 3597 1645 
L 5389 1645 
L 5389 211 
L 3597 211 
z
M 3942 5382 
C 3782 4723 3482 3808 3213 3181 
L 2694 3155 
L 2752 2682 
L 5632 2893 
C 5709 2726 5779 2573 5824 2438 
L 6240 2669 
C 6074 3136 5632 3853 5203 4384 
L 4819 4192 
C 5018 3923 5222 3616 5402 3315 
L 3686 3206 
C 3955 3808 4250 4608 4474 5267 
L 3942 5382 
z
M 1254 5382 
C 1178 4979 1082 4518 979 4051 
L 282 4051 
L 282 3603 
L 883 3603 
C 698 2803 499 2016 339 1466 
L 742 1254 
L 819 1536 
C 1043 1395 1267 1235 1485 1075 
C 1178 512 787 109 314 -141 
C 416 -237 550 -416 614 -531 
C 1120 -224 1536 198 1862 774 
C 2131 544 2368 320 2528 122 
L 2816 506 
C 2643 717 2374 960 2067 1197 
C 2381 1920 2579 2835 2662 4006 
L 2374 4070 
L 2291 4051 
L 1434 4051 
C 1536 4499 1632 4934 1709 5325 
L 1254 5382 
z
M 1331 3603 
L 2176 3603 
C 2093 2765 1926 2061 1683 1485 
C 1434 1658 1178 1818 928 1958 
C 1062 2464 1197 3034 1331 3603 
z
" transform="scale(0.015625)"/>
      <path id="NotoSansCJKjp-Regular-97b2" d="M 614 4902 
C 1069 4768 1664 4531 1965 4365 
L 2176 4742 
C 1862 4902 1274 5114 832 5235 
L 614 4902 
z
M 294 3552 
L 486 3136 
C 966 3283 1574 3475 2150 3661 
L 2099 4045 
C 1434 3859 762 3667 294 3552 
z
M 1626 2035 
L 4851 2035 
L 4851 1594 
L 1626 1594 
L 1626 2035 
z
M 1626 1286 
L 4851 1286 
L 4851 838 
L 1626 838 
L 1626 1286 
z
M 1626 2778 
L 4851 2778 
L 4851 2349 
L 1626 2349 
L 1626 2778 
z
M 1158 3104 
L 1158 518 
L 5331 518 
L 5331 3104 
L 1158 3104 
z
M 3738 186 
C 4435 -45 5126 -320 5530 -525 
L 6067 -282 
C 5600 -70 4826 211 4128 429 
L 3738 186 
z
M 2227 448 
C 1766 198 998 -32 339 -173 
C 448 -256 621 -435 698 -531 
C 1338 -358 2150 -58 2669 250 
L 2227 448 
z
M 3149 5376 
C 2976 4998 2656 4557 2176 4224 
C 2291 4179 2451 4077 2541 3987 
C 2765 4160 2950 4346 3110 4544 
L 3795 4544 
C 3642 3962 3251 3635 2202 3456 
C 2278 3373 2387 3206 2432 3110 
C 3347 3290 3821 3590 4064 4070 
C 4307 3603 4774 3187 5875 2995 
C 5920 3117 6035 3296 6125 3392 
C 4806 3584 4435 4045 4294 4544 
L 5325 4544 
C 5210 4358 5069 4179 4941 4051 
L 5325 3917 
C 5549 4134 5792 4499 5971 4832 
L 5645 4928 
L 5568 4909 
L 3366 4909 
C 3443 5043 3514 5178 3578 5312 
L 3149 5376 
z
" transform="scale(0.015625)"/>
      <path id="NotoSansCJKjp-Regular-4e62" d="M 346 4877 
C 512 4429 666 3840 691 3456 
L 1075 3552 
C 1030 3936 883 4525 698 4973 
L 346 4877 
z
M 2413 4992 
C 2323 4557 2138 3923 1990 3539 
L 2304 3437 
C 2470 3802 2675 4403 2835 4883 
L 2413 4992 
z
M 3302 4589 
C 3674 4365 4115 4013 4314 3770 
L 4570 4134 
C 4358 4378 3917 4704 3546 4922 
L 3302 4589 
z
M 2976 2976 
C 3354 2771 3821 2438 4045 2208 
L 4282 2592 
C 4058 2822 3584 3123 3200 3315 
L 2976 2976 
z
M 301 3226 
L 301 2778 
L 1203 2778 
C 973 2067 570 1222 198 774 
C 282 653 397 448 448 307 
C 762 736 1088 1440 1331 2131 
L 1331 -506 
L 1779 -506 
L 1779 2138 
C 2016 1766 2310 1280 2426 1037 
L 2746 1414 
C 2605 1626 1965 2483 1779 2688 
L 1779 2778 
L 2829 2778 
L 2829 3226 
L 1779 3226 
L 1779 5357 
L 1331 5357 
L 1331 3226 
L 301 3226 
z
M 2816 1299 
L 2899 858 
L 4896 1222 
L 4896 -506 
L 5357 -506 
L 5357 1306 
L 6182 1453 
L 6106 1894 
L 5357 1760 
L 5357 5376 
L 4896 5376 
L 4896 1677 
L 2816 1299 
z
" transform="scale(0.015625)"/>
      <path id="NotoSansCJKjp-Regular-e6c0" d="M 3200 3482 
C 3456 3482 3686 3667 3686 3962 
C 3686 4256 3456 4442 3200 4442 
C 2944 4442 2714 4256 2714 3962 
C 2714 3667 2944 3482 3200 3482 
z
M 3200 346 
C 3456 346 3686 538 3686 826 
C 3686 1120 3456 1312 3200 1312 
C 2944 1312 2714 1120 2714 826 
C 2714 538 2944 346 3200 346 
z
" transform="scale(0.015625)"/>
      <path id="NotoSansCJKjp-Regular-a774" d="M 3936 1082 
L 3936 461 
L 2432 461 
L 2432 1082 
L 3936 1082 
z
M 3936 1453 
L 2432 1453 
L 2432 2042 
L 3936 2042 
L 3936 1453 
z
M 1997 2419 
L 1997 -243 
L 2432 -243 
L 2432 83 
L 4384 83 
L 4384 2419 
L 1997 2419 
z
M 2451 3840 
L 2451 3270 
L 1056 3270 
L 1056 3840 
L 2451 3840 
z
M 2451 4192 
L 1056 4192 
L 1056 4730 
L 2451 4730 
L 2451 4192 
z
M 5376 3840 
L 5376 3264 
L 3936 3264 
L 3936 3840 
L 5376 3840 
z
M 5376 4192 
L 3936 4192 
L 3936 4730 
L 5376 4730 
L 5376 4192 
z
M 5619 5101 
L 3482 5101 
L 3482 2893 
L 5376 2893 
L 5376 128 
C 5376 13 5338 -19 5229 -26 
C 5114 -26 4723 -32 4333 -19 
C 4403 -154 4474 -378 4499 -512 
C 5030 -512 5376 -506 5581 -422 
C 5792 -339 5862 -186 5862 122 
L 5862 5101 
L 5619 5101 
z
M 576 5101 
L 576 -518 
L 1056 -518 
L 1056 2906 
L 2899 2906 
L 2899 5101 
L 576 5101 
z
" transform="scale(0.015625)"/>
      <path id="NotoSansCJKjp-Regular-9943" d="M 998 4685 
L 2246 4685 
L 2246 3558 
L 998 3558 
L 998 4685 
z
M 3155 5120 
L 3155 -506 
L 3629 -506 
L 3629 -205 
L 6157 -205 
L 6157 250 
L 3629 250 
L 3629 1331 
L 5798 1331 
L 5798 3603 
L 3629 3603 
L 3629 4672 
L 6074 4672 
L 6074 5120 
L 3155 5120 
z
M 3629 3155 
L 5331 3155 
L 5331 1779 
L 3629 1779 
L 3629 3155 
z
M 218 269 
L 307 -198 
C 1018 -26 2003 211 2931 442 
L 2886 870 
L 1888 634 
L 1888 1786 
L 2829 1786 
L 2829 2214 
L 1888 2214 
L 1888 3136 
L 2694 3136 
L 2694 5107 
L 570 5107 
L 570 3136 
L 1453 3136 
L 1453 538 
L 979 429 
L 979 2534 
L 570 2534 
L 570 339 
L 218 269 
z
" transform="scale(0.015625)"/>
      <path id="NotoSansCJKjp-Regular-575" d="M 1747 -358 
L 2182 13 
C 1786 480 1210 1062 749 1434 
L 333 1069 
C 787 698 1338 147 1747 -358 
z
" transform="scale(0.015625)"/>
      <path id="NotoSansCJKjp-Regular-e6b2" d="M 1005 -685 
C 1677 -448 2112 77 2112 768 
C 2112 1216 1920 1504 1568 1504 
C 1306 1504 1082 1344 1082 1043 
C 1082 742 1299 589 1562 589 
L 1670 602 
C 1638 160 1357 -141 864 -346 
L 1005 -685 
z
" transform="scale(0.015625)"/>
      <path id="NotoSansCJKjp-Regular-1e" d="M 243 2912 
L 3315 2912 
L 3315 3347 
L 243 3347 
L 243 2912 
z
M 243 1376 
L 3315 1376 
L 3315 1811 
L 243 1811 
L 243 1376 
z
" transform="scale(0.015625)"/>
     </defs>
     <use xlink:href="#NotoSansCJKjp-Regular-2e09"/>
     <use xlink:href="#NotoSansCJKjp-Regular-384e" transform="translate(100 0)"/>
     <use xlink:href="#NotoSansCJKjp-Regular-97b2" transform="translate(200 0)"/>
     <use xlink:href="#NotoSansCJKjp-Regular-4e62" transform="translate(300 0)"/>
     <use xlink:href="#NotoSansCJKjp-Regular-e6c0" transform="translate(400 0)"/>
     <use xlink:href="#NotoSansCJKjp-Regular-a774" transform="translate(500 0)"/>
     <use xlink:href="#NotoSansCJKjp-Regular-9943" transform="translate(600 0)"/>
     <use xlink:href="#NotoSansCJKjp-Regular-1" transform="translate(700 0)"/>
     <use xlink:href="#NotoSansCJKjp-Regular-12" transform="translate(722.40625 0)"/>
     <use xlink:href="#NotoSansCJKjp-Regular-575" transform="translate(777.90625 0)"/>
     <use xlink:href="#NotoSansCJKjp-Regular-13" transform="translate(877.90625 0)"/>
     <use xlink:href="#NotoSansCJKjp-Regular-575" transform="translate(933.40625 0)"/>
     <use xlink:href="#NotoSansCJKjp-Regular-12" transform="translate(1033.40625 0)"/>
     <use xlink:href="#NotoSansCJKjp-Regular-e6b2" transform="translate(1088.90625 0)"/>
     <use xlink:href="#NotoSansCJKjp-Regular-41d6" transform="translate(1188.90625 0)"/>
     <use xlink:href="#NotoSansCJKjp-Regular-33ef" transform="translate(1288.90625 0)"/>
     <use xlink:href="#NotoSansCJKjp-Regular-1" transform="translate(1388.90625 0)"/>
     <use xlink:href="#NotoSansCJKjp-Regular-1e" transform="translate(1411.3125 0)"/>
     <use xlink:href="#NotoSansCJKjp-Regular-1" transform="translate(1466.8125 0)"/>
     <use xlink:href="#NotoSansCJKjp-Regular-15" transform="translate(1489.21875 0)"/>
    </g>
   </g>
   <g id="PathCollection_1">
    <defs>
     <path id="mb8d47d0383" d="M 0 4.472136 
C 1.186024 4.472136 2.323632 4.000923 3.162278 3.162278 
C 4.000923 2.323632 4.472136 1.186024 4.472136 0 
C 4.472136 -1.186024 4.000923 -2.323632 3.162278 -3.162278 
C 2.323632 -4.000923 1.186024 -4.472136 0 -4.472136 
C -1.186024 -4.472136 -2.323632 -4.000923 -3.162278 -3.162278 
C -4.000923 -2.323632 -4.472136 -1.186024 -4.472136 0 
C -4.472136 1.186024 -4.000923 2.323632 -3.162278 3.162278 
C -2.323632 4.000923 -1.186024 4.472136 0 4.472136 
z
" style="stroke: #222831"/>
    </defs>
    <g clip-path="url(#pa60cd65449)">
     <use xlink:href="#mb8d47d0383" x="92.4525" y="95.83042" style="fill: #222831; stroke: #222831"/>
     <use xlink:href="#mb8d47d0383" x="133.41375" y="95.83042" style="fill: #222831; stroke: #222831"/>
     <use xlink:href="#mb8d47d0383" x="215.33625" y="95.83042" style="fill: #222831; stroke: #222831"/>
     <use xlink:href="#mb8d47d0383" x="256.2975" y="95.83042" style="fill: #222831; stroke: #222831"/>
    </g>
   </g>
  </g>
  <g id="axes_2">
   <g id="patch_7">
    <path d="M 10.53 238.966375 
L 665.91 238.966375 
L 665.91 166.94325 
L 10.53 166.94325 
z
" style="fill: #ffffff"/>
   </g>
   <g id="line2d_12">
    <path d="M 10.53 200.95417 
L 665.91 200.95417 
" clip-path="url(#p6bb324b6c0)" style="fill: none; stroke: #d8dde3; stroke-width: 0.8; stroke-linecap: square"/>
   </g>
   <g id="matplotlib.axis_3">
    <g id="xtick_10">
     <g id="line2d_13">
      <g>
       <use xlink:href="#m5010483901" x="10.53" y="238.966375" style="fill: #222831; stroke: #222831; stroke-width: 0.8"/>
      </g>
     </g>
    </g>
    <g id="xtick_11">
     <g id="line2d_14">
      <g>
       <use xlink:href="#m5010483901" x="92.4525" y="238.966375" style="fill: #222831; stroke: #222831; stroke-width: 0.8"/>
      </g>
     </g>
    </g>
    <g id="xtick_12">
     <g id="line2d_15">
      <g>
       <use xlink:href="#m5010483901" x="174.375" y="238.966375" style="fill: #222831; stroke: #222831; stroke-width: 0.8"/>
      </g>
     </g>
    </g>
    <g id="xtick_13">
     <g id="line2d_16">
      <g>
       <use xlink:href="#m5010483901" x="256.2975" y="238.966375" style="fill: #222831; stroke: #222831; stroke-width: 0.8"/>
      </g>
     </g>
    </g>
    <g id="xtick_14">
     <g id="line2d_17">
      <g>
       <use xlink:href="#m5010483901" x="338.22" y="238.966375" style="fill: #222831; stroke: #222831; stroke-width: 0.8"/>
      </g>
     </g>
    </g>
    <g id="xtick_15">
     <g id="line2d_18">
      <g>
       <use xlink:href="#m5010483901" x="420.1425" y="238.966375" style="fill: #222831; stroke: #222831; stroke-width: 0.8"/>
      </g>
     </g>
    </g>
    <g id="xtick_16">
     <g id="line2d_19">
      <g>
       <use xlink:href="#m5010483901" x="502.065" y="238.966375" style="fill: #222831; stroke: #222831; stroke-width: 0.8"/>
      </g>
     </g>
    </g>
    <g id="xtick_17">
     <g id="line2d_20">
      <g>
       <use xlink:href="#m5010483901" x="583.9875" y="238.966375" style="fill: #222831; stroke: #222831; stroke-width: 0.8"/>
      </g>
     </g>
    </g>
    <g id="xtick_18">
     <g id="line2d_21">
      <g>
       <use xlink:href="#m5010483901" x="665.91" y="238.966375" style="fill: #222831; stroke: #222831; stroke-width: 0.8"/>
      </g>
     </g>
    </g>
   </g>
   <g id="matplotlib.axis_4"/>
   <g id="patch_8">
    <path d="M 10.53 238.966375 
L 665.91 238.966375 
" style="fill: none; stroke: #222831; stroke-width: 1.1; stroke-linejoin: miter; stroke-linecap: square"/>
   </g>
   <g id="patch_9">
    <path d="M 457.652745 188.150059 
Q 440.625548 188.150059 423.598351 188.150059 
" style="fill: none; stroke: #d8dde3; stroke-width: 1.3; stroke-linecap: round"/>
    <path d="M 452.852745 185.750059 
L 457.652745 188.150059 
L 452.852745 190.550059 
" style="fill: none; stroke: #d8dde3; stroke-width: 1.3; stroke-linecap: round"/>
    <path d="M 428.398351 190.550059 
L 423.598351 188.150059 
L 428.398351 185.750059 
" style="fill: none; stroke: #d8dde3; stroke-width: 1.3; stroke-linecap: round"/>
   </g>
   <g id="text_6">
    <!-- 1 -->
    <g style="fill: #222831" transform="translate(437.848125 182.948774) scale(0.1 -0.1)">
     <use xlink:href="#NotoSansCJKjp-Regular-12"/>
    </g>
   </g>
   <g id="patch_10">
    <path d="M 539.575245 188.150059 
Q 502.063818 188.150059 464.552391 188.150059 
" style="fill: none; stroke: #d8dde3; stroke-width: 1.3; stroke-linecap: round"/>
    <path d="M 534.775245 185.750059 
L 539.575245 188.150059 
L 534.775245 190.550059 
" style="fill: none; stroke: #d8dde3; stroke-width: 1.3; stroke-linecap: round"/>
    <path d="M 469.352391 190.550059 
L 464.552391 188.150059 
L 469.352391 185.750059 
" style="fill: none; stroke: #d8dde3; stroke-width: 1.3; stroke-linecap: round"/>
   </g>
   <g id="text_7">
    <!-- 2 -->
    <g style="fill: #222831" transform="translate(499.29 182.948774) scale(0.1 -0.1)">
     <use xlink:href="#NotoSansCJKjp-Regular-13"/>
    </g>
   </g>
   <g id="patch_11">
    <path d="M 580.536495 188.150059 
Q 563.509298 188.150059 546.482101 188.150059 
" style="fill: none; stroke: #d8dde3; stroke-width: 1.3; stroke-linecap: round"/>
    <path d="M 575.736495 185.750059 
L 580.536495 188.150059 
L 575.736495 190.550059 
" style="fill: none; stroke: #d8dde3; stroke-width: 1.3; stroke-linecap: round"/>
    <path d="M 551.282101 190.550059 
L 546.482101 188.150059 
L 551.282101 185.750059 
" style="fill: none; stroke: #d8dde3; stroke-width: 1.3; stroke-linecap: round"/>
   </g>
   <g id="text_8">
    <!-- 1 -->
    <g style="fill: #222831" transform="translate(560.731875 182.948774) scale(0.1 -0.1)">
     <use xlink:href="#NotoSansCJKjp-Regular-12"/>
    </g>
   </g>
   <g id="line2d_22">
    <path d="M 502.065 238.966375 
L 502.065 166.94325 
" clip-path="url(#p6bb324b6c0)" style="fill: none; stroke-dasharray: 5.92,2.56; stroke-dashoffset: 0; stroke: #222831; stroke-width: 1.6"/>
   </g>
   <g id="text_9">
    <!-- 平均 12 -->
    <g style="fill: #222831" transform="translate(484.561172 235.002135) scale(0.105 -0.105)">
     <use xlink:href="#NotoSansCJKjp-Regular-41d6"/>
     <use xlink:href="#NotoSansCJKjp-Regular-33ef" transform="translate(100 0)"/>
     <use xlink:href="#NotoSansCJKjp-Regular-1" transform="translate(200 0)"/>
     <use xlink:href="#NotoSansCJKjp-Regular-12" transform="translate(222.40625 0)"/>
     <use xlink:href="#NotoSansCJKjp-Regular-13" transform="translate(277.90625 0)"/>
    </g>
   </g>
   <g id="text_10">
    <!-- 平移 +8（整體搬家）：間距仍是 1、2、1 → 標準差不變，只有平均跟著 +8 -->
    <g style="fill: #1f6feb" transform="translate(10.53 160.94325) scale(0.12 -0.12)">
     <defs>
      <path id="NotoSansCJKjp-Regular-71ef" d="M 3910 4416 
L 5197 4416 
C 5024 4083 4774 3795 4486 3546 
C 4275 3750 3949 3994 3654 4179 
L 3910 4416 
z
M 4109 5376 
C 3827 4883 3277 4307 2477 3910 
C 2573 3834 2720 3680 2784 3578 
C 2982 3686 3168 3808 3341 3930 
C 3629 3750 3949 3494 4154 3290 
C 3686 2970 3136 2739 2586 2605 
C 2675 2515 2790 2336 2835 2221 
C 4122 2586 5325 3347 5824 4691 
L 5523 4838 
L 5434 4819 
L 4269 4819 
C 4390 4973 4499 5126 4589 5286 
L 4109 5376 
z
M 4211 1952 
L 5536 1952 
C 5350 1555 5088 1222 4768 941 
C 4531 1165 4166 1427 3840 1626 
C 3974 1728 4096 1837 4211 1952 
z
M 4454 2963 
C 4141 2400 3501 1760 2560 1325 
C 2656 1254 2797 1094 2861 992 
C 3085 1107 3296 1229 3488 1363 
C 3821 1165 4173 890 4410 659 
C 3846 282 3168 32 2451 -102 
C 2541 -205 2650 -397 2694 -512 
C 4243 -166 5613 621 6157 2246 
L 5850 2381 
L 5760 2362 
L 4576 2362 
C 4717 2534 4832 2707 4934 2880 
L 4454 2963 
z
M 2310 5286 
C 1837 5069 992 4883 275 4762 
C 333 4659 397 4499 416 4397 
C 717 4435 1037 4493 1357 4557 
L 1357 3571 
L 314 3571 
L 314 3123 
L 1293 3123 
C 1037 2387 595 1555 179 1101 
C 262 986 378 794 429 659 
C 755 1056 1094 1690 1357 2336 
L 1357 -499 
L 1830 -499 
L 1830 2259 
C 2048 1990 2304 1645 2413 1466 
L 2701 1843 
C 2573 1990 2016 2566 1830 2726 
L 1830 3123 
L 2630 3123 
L 2630 3571 
L 1830 3571 
L 1830 4666 
C 2131 4736 2413 4819 2643 4915 
L 2310 5286 
z
" transform="scale(0.015625)"/>
      <path id="NotoSansCJKjp-Regular-c" d="M 1542 742 
L 2010 742 
L 2010 2144 
L 3315 2144 
L 3315 2579 
L 2010 2579 
L 2010 3981 
L 1542 3981 
L 1542 2579 
L 243 2579 
L 243 2144 
L 1542 2144 
L 1542 742 
z
" transform="scale(0.015625)"/>
      <path id="NotoSansCJKjp-Regular-19" d="M 1792 -83 
C 2669 -83 3258 448 3258 1126 
C 3258 1773 2880 2125 2470 2362 
L 2470 2394 
C 2746 2611 3091 3034 3091 3526 
C 3091 4250 2605 4762 1805 4762 
C 1075 4762 518 4282 518 3571 
C 518 3078 813 2726 1152 2490 
L 1152 2464 
C 723 2234 294 1792 294 1165 
C 294 442 922 -83 1792 -83 
z
M 2112 2547 
C 1555 2765 1050 3014 1050 3571 
C 1050 4026 1363 4326 1798 4326 
C 2298 4326 2592 3962 2592 3494 
C 2592 3149 2426 2829 2112 2547 
z
M 1798 352 
C 1235 352 813 717 813 1216 
C 813 1664 1082 2035 1459 2278 
C 2125 2010 2701 1779 2701 1146 
C 2701 678 2342 352 1798 352 
z
" transform="scale(0.015625)"/>
      <path id="NotoSansCJKjp-Regular-e6ae" d="M 4448 2432 
C 4448 1184 4954 166 5722 -614 
L 6106 -416 
C 5370 346 4915 1293 4915 2432 
C 4915 3571 5370 4518 6106 5280 
L 5722 5478 
C 4954 4698 4448 3680 4448 2432 
z
" transform="scale(0.015625)"/>
      <path id="NotoSansCJKjp-Regular-4e1d" d="M 1357 1139 
L 1357 32 
L 301 32 
L 301 -371 
L 6118 -371 
L 6118 32 
L 3430 32 
L 3430 563 
L 5274 563 
L 5274 934 
L 3430 934 
L 3430 1427 
L 5696 1427 
L 5696 1824 
L 730 1824 
L 730 1427 
L 2957 1427 
L 2957 32 
L 1818 32 
L 1818 1139 
L 1357 1139 
z
M 4109 5376 
C 3930 4742 3597 4154 3162 3770 
L 3162 4282 
L 2054 4282 
L 2054 4608 
L 3315 4608 
L 3315 4960 
L 2054 4960 
L 2054 5376 
L 1626 5376 
L 1626 4960 
L 365 4960 
L 365 4608 
L 1626 4608 
L 1626 4282 
L 550 4282 
L 550 3110 
L 1440 3110 
C 1126 2790 646 2470 256 2304 
C 346 2234 474 2093 538 1997 
C 883 2176 1306 2496 1626 2822 
L 1626 1997 
L 2054 1997 
L 2054 2784 
C 2368 2611 2790 2362 2970 2227 
L 3206 2547 
C 3027 2650 2349 2989 2086 3110 
L 3162 3110 
L 3162 3725 
C 3264 3642 3411 3494 3462 3411 
C 3603 3546 3744 3699 3866 3878 
C 4000 3590 4186 3296 4416 3021 
C 4064 2714 3629 2490 3104 2330 
C 3200 2253 3341 2074 3392 1978 
C 3904 2163 4339 2400 4704 2714 
C 5030 2406 5434 2138 5926 1958 
C 5990 2067 6112 2246 6202 2336 
C 5715 2483 5318 2720 4998 3002 
C 5299 3347 5530 3757 5677 4269 
L 6093 4269 
L 6093 4659 
L 4314 4659 
C 4403 4858 4480 5069 4544 5280 
L 4109 5376 
z
M 947 3962 
L 1626 3962 
L 1626 3430 
L 947 3430 
L 947 3962 
z
M 2054 3962 
L 2752 3962 
L 2752 3430 
L 2054 3430 
L 2054 3962 
z
M 4122 4269 
L 5216 4269 
C 5101 3891 4928 3571 4698 3302 
C 4435 3603 4243 3930 4109 4250 
L 4122 4269 
z
" transform="scale(0.015625)"/>
      <path id="NotoSansCJKjp-Regular-b0c7" d="M 2963 2598 
L 2963 2246 
L 6112 2246 
L 6112 2598 
L 2963 2598 
z
M 3686 1619 
L 5363 1619 
L 5363 1062 
L 3686 1062 
L 3686 1619 
z
M 5075 742 
C 5011 525 4883 198 4774 -13 
L 4832 -32 
L 4128 -32 
L 4218 0 
C 4179 205 4070 512 3930 730 
L 3584 614 
C 3693 422 3789 166 3834 -32 
L 2848 -32 
L 2848 -390 
L 6157 -390 
L 6157 -32 
L 5146 -32 
L 5478 627 
L 5075 742 
z
M 3162 4787 
L 3162 2918 
L 5901 2918 
L 5901 4787 
L 5101 4787 
L 5101 5376 
L 4742 5376 
L 4742 4787 
L 4282 4787 
L 4282 5376 
L 3923 5376 
L 3923 4787 
L 3162 4787 
z
M 3283 1939 
L 3283 742 
L 5779 742 
L 5779 1939 
L 3283 1939 
z
M 3533 3693 
L 3981 3693 
L 3981 3251 
L 3533 3251 
L 3533 3693 
z
M 4282 3693 
L 4742 3693 
L 4742 3251 
L 4282 3251 
L 4282 3693 
z
M 5043 3693 
L 5510 3693 
L 5510 3251 
L 5043 3251 
L 5043 3693 
z
M 3533 4454 
L 3981 4454 
L 3981 4019 
L 3533 4019 
L 3533 4454 
z
M 4282 4454 
L 4742 4454 
L 4742 4019 
L 4282 4019 
L 4282 4454 
z
M 5043 4454 
L 5510 4454 
L 5510 4019 
L 5043 4019 
L 5043 4454 
z
M 1178 1440 
L 2138 1440 
L 2138 973 
L 1178 973 
L 1178 1440 
z
M 1178 1792 
L 1178 2246 
L 2138 2246 
L 2138 1792 
L 1178 1792 
z
M 390 3373 
L 390 2445 
L 762 2445 
L 762 -512 
L 1178 -512 
L 1178 621 
L 2138 621 
L 2138 -51 
C 2138 -115 2118 -134 2048 -141 
C 1990 -141 1792 -141 1562 -134 
C 1619 -243 1677 -403 1690 -512 
C 2035 -512 2240 -506 2381 -442 
C 2522 -378 2554 -262 2554 -58 
L 2554 2592 
L 762 2592 
L 762 3021 
L 2560 3021 
L 2560 2445 
L 2944 2445 
L 2944 3373 
L 2566 3373 
L 2566 5152 
L 762 5152 
L 762 3373 
L 390 3373 
z
M 1466 4371 
L 1466 3373 
L 1126 3373 
L 1126 4787 
L 2182 4787 
L 2182 4371 
L 1466 4371 
z
M 2182 3373 
L 1766 3373 
L 1766 4064 
L 2182 4064 
L 2182 3373 
z
" transform="scale(0.015625)"/>
      <path id="NotoSansCJKjp-Regular-4bc8" d="M 2573 3744 
C 2720 3456 2874 3066 2925 2822 
L 3194 2976 
C 3142 3206 2989 3584 2835 3866 
L 2573 3744 
z
M 2739 1869 
L 2739 339 
L 3014 339 
L 3014 1869 
L 2739 1869 
z
M 954 5370 
L 954 4077 
L 282 4077 
L 282 3629 
L 954 3629 
L 954 2419 
L 198 2131 
L 346 1696 
L 954 1946 
L 954 13 
C 954 -70 928 -90 851 -90 
C 787 -96 576 -96 339 -90 
C 397 -205 454 -397 467 -506 
C 826 -512 1037 -493 1184 -422 
C 1318 -352 1376 -230 1376 13 
L 1376 2125 
L 1664 2246 
L 1702 1978 
L 2074 2022 
C 2054 1254 1971 358 1600 -314 
C 1683 -352 1850 -461 1907 -531 
C 2317 192 2426 1222 2451 2067 
L 3373 2182 
L 3373 -32 
C 3373 -109 3347 -128 3277 -128 
C 3213 -134 2976 -134 2733 -128 
C 2784 -237 2835 -410 2848 -512 
C 3200 -512 3418 -512 3558 -442 
C 3699 -371 3744 -250 3744 -32 
L 3744 2234 
L 3987 2266 
L 3974 2650 
L 3744 2624 
L 3744 4506 
L 2970 4506 
C 3059 4742 3149 5018 3232 5274 
L 2778 5376 
C 2739 5126 2669 4781 2592 4506 
L 2080 4506 
L 2080 2458 
L 2080 2438 
L 1882 2419 
L 1805 2758 
L 1376 2586 
L 1376 3629 
L 1811 3629 
L 1811 4077 
L 1376 4077 
L 1376 5370 
L 954 5370 
z
M 2458 4115 
L 3373 4115 
L 3373 2579 
L 2458 2477 
L 2458 4115 
z
M 4211 5069 
L 4211 4192 
C 4211 3789 4173 3296 3853 2906 
C 3942 2861 4096 2733 4154 2662 
C 4512 3091 4582 3718 4582 4186 
L 4582 4685 
L 5139 4685 
L 5139 3430 
C 5139 3066 5158 2976 5235 2899 
C 5306 2829 5421 2797 5523 2797 
C 5574 2797 5683 2797 5747 2797 
C 5830 2797 5920 2816 5978 2854 
C 6048 2893 6099 2957 6131 3059 
C 6157 3155 6176 3450 6182 3712 
C 6080 3738 5952 3795 5875 3866 
C 5869 3597 5869 3398 5856 3296 
C 5843 3213 5818 3174 5805 3149 
C 5792 3136 5754 3123 5715 3123 
C 5683 3123 5632 3123 5600 3123 
C 5568 3123 5549 3130 5530 3149 
C 5517 3174 5517 3258 5517 3386 
L 5517 5069 
L 4211 5069 
z
M 5408 2067 
C 5306 1658 5158 1286 4966 966 
C 4781 1286 4640 1658 4544 2067 
L 5408 2067 
z
M 4051 2477 
L 4051 2067 
L 4518 2067 
L 4173 1984 
C 4301 1459 4480 992 4723 595 
C 4461 256 4154 -6 3827 -173 
C 3923 -256 4032 -416 4083 -512 
C 4410 -326 4710 -77 4973 243 
C 5235 -83 5555 -339 5939 -518 
C 5997 -410 6125 -250 6227 -166 
C 5824 -6 5491 256 5222 589 
C 5530 1075 5766 1683 5888 2413 
L 5632 2490 
L 5555 2477 
L 4051 2477 
z
" transform="scale(0.015625)"/>
      <path id="NotoSansCJKjp-Regular-3cc3" d="M 557 4800 
L 557 3533 
L 1030 3533 
L 1030 4365 
L 5395 4365 
L 5395 3533 
L 5882 3533 
L 5882 4800 
L 3437 4800 
L 3437 5376 
L 2950 5376 
L 2950 4800 
L 557 4800 
z
M 5427 3085 
C 5133 2822 4672 2477 4269 2227 
C 4102 2560 3962 2918 3859 3302 
L 4986 3302 
L 4986 3718 
L 1376 3718 
L 1376 3302 
L 2758 3302 
C 2144 2912 1299 2598 518 2413 
C 595 2323 730 2125 774 2029 
C 1299 2182 1862 2387 2368 2643 
C 2477 2554 2573 2451 2662 2355 
C 2163 1971 1248 1555 563 1357 
C 653 1261 762 1094 813 986 
C 1478 1222 2336 1658 2886 2061 
C 2976 1926 3046 1792 3110 1658 
C 2470 1056 1299 448 333 186 
C 429 83 531 -96 589 -211 
C 1478 77 2547 653 3245 1235 
C 3373 685 3270 211 3027 45 
C 2899 -64 2765 -83 2592 -83 
C 2445 -83 2227 -70 1990 -51 
C 2074 -186 2118 -378 2125 -512 
C 2330 -525 2528 -531 2682 -525 
C 2976 -525 3155 -480 3373 -314 
C 4000 128 3994 1786 2752 2848 
C 2995 2989 3213 3142 3405 3302 
L 3430 3302 
C 3827 1773 4576 550 5792 -6 
C 5862 122 6016 307 6125 403 
C 5427 678 4877 1197 4474 1862 
C 4896 2106 5414 2445 5798 2765 
L 5427 3085 
z
" transform="scale(0.015625)"/>
      <path id="NotoSansCJKjp-Regular-e6af" d="M 1952 2432 
C 1952 3680 1446 4698 678 5478 
L 294 5280 
C 1030 4518 1485 3571 1485 2432 
C 1485 1293 1030 346 294 -416 
L 678 -614 
C 1446 166 1952 1184 1952 2432 
z
" transform="scale(0.015625)"/>
      <path id="NotoSansCJKjp-Regular-2630" d="M 2221 4915 
L 2221 4474 
L 2957 4474 
C 2931 2835 2835 845 1722 -205 
C 1850 -282 2010 -416 2093 -531 
C 3270 627 3411 2707 3450 4474 
L 4634 4474 
C 4576 3744 4493 2906 4416 2368 
L 4877 2330 
L 4928 2765 
L 5594 2765 
C 5504 934 5395 224 5216 45 
C 5152 -26 5075 -38 4947 -38 
C 4800 -38 4435 -38 4032 0 
C 4115 -128 4173 -326 4179 -474 
C 4570 -486 4941 -493 5139 -480 
C 5363 -454 5498 -416 5632 -256 
C 5862 6 5965 813 6074 2976 
C 6080 3046 6086 3200 6086 3200 
L 4979 3200 
C 5030 3757 5082 4390 5120 4915 
L 2221 4915 
z
M 1773 5357 
C 1395 4390 774 3437 128 2822 
C 211 2714 346 2458 397 2349 
C 640 2592 877 2880 1107 3194 
L 1107 -499 
L 1568 -499 
L 1568 3898 
C 1818 4320 2042 4768 2221 5216 
L 1773 5357 
z
" transform="scale(0.015625)"/>
      <path id="NotoSansCJKjp-Regular-4f6d" d="M 1510 3885 
L 4845 3885 
L 4845 3360 
L 1510 3360 
L 1510 3885 
z
M 1510 4749 
L 4845 4749 
L 4845 4230 
L 1510 4230 
L 1510 4749 
z
M 1050 5114 
L 1050 2995 
L 5331 2995 
L 5331 5114 
L 1050 5114 
z
M 1478 1914 
C 1312 979 902 256 224 -186 
C 333 -256 518 -435 589 -518 
C 1011 -218 1344 192 1587 698 
C 2112 -186 2938 -384 4230 -384 
L 5984 -384 
C 6010 -250 6086 -38 6163 77 
C 5830 70 4493 64 4250 70 
C 3981 70 3725 77 3494 102 
L 3494 986 
L 5619 986 
L 5619 1408 
L 3494 1408 
L 3494 2125 
L 6035 2125 
L 6035 2554 
L 378 2554 
L 378 2125 
L 3014 2125 
L 3014 186 
C 2458 326 2048 627 1798 1216 
C 1862 1414 1914 1626 1958 1850 
L 1478 1914 
z
" transform="scale(0.015625)"/>
      <path id="NotoSansCJKjp-Regular-31c" d="M 5190 2650 
L 256 2650 
L 256 2214 
L 5190 2214 
C 4864 1965 4442 1562 4154 1165 
L 4538 941 
C 4966 1504 5606 2067 6176 2432 
C 5606 2797 4966 3360 4538 3923 
L 4154 3699 
C 4442 3302 4864 2899 5190 2650 
z
" transform="scale(0.015625)"/>
      <path id="NotoSansCJKjp-Regular-5605" d="M 2810 2330 
L 2810 1958 
L 5818 1958 
L 5818 2330 
L 2810 2330 
z
M 4947 710 
C 5267 403 5651 -26 5830 -294 
L 6189 -38 
C 6003 237 5613 640 5286 934 
L 4947 710 
z
M 3149 954 
C 2938 634 2541 243 2170 0 
C 2272 -77 2400 -198 2470 -288 
C 2861 -26 3264 365 3514 749 
L 3149 954 
z
M 2643 4250 
L 2643 2714 
L 5984 2714 
L 5984 4250 
L 4966 4250 
L 4966 4698 
L 6144 4698 
L 6144 5094 
L 2438 5094 
L 2438 4698 
L 3590 4698 
L 3590 4250 
L 2643 4250 
z
M 3981 4698 
L 4570 4698 
L 4570 4250 
L 3981 4250 
L 3981 4698 
z
M 2406 1498 
L 2406 1094 
L 4038 1094 
L 4038 -32 
C 4038 -96 4019 -115 3936 -122 
C 3859 -128 3622 -128 3309 -115 
C 3373 -237 3437 -397 3456 -518 
C 3859 -518 4115 -512 4282 -448 
C 4448 -378 4486 -256 4486 -38 
L 4486 1094 
L 6144 1094 
L 6144 1498 
L 2406 1498 
z
M 3046 3872 
L 3622 3872 
L 3622 3085 
L 3046 3085 
L 3046 3872 
z
M 3974 3872 
L 4570 3872 
L 4570 3085 
L 3974 3085 
L 3974 3872 
z
M 4928 3872 
L 5562 3872 
L 5562 3085 
L 4928 3085 
L 4928 3872 
z
M 1229 5376 
L 1229 3987 
L 333 3987 
L 333 3539 
L 1178 3539 
C 992 2669 602 1658 198 1120 
C 275 1011 390 832 442 704 
C 736 1120 1011 1792 1229 2483 
L 1229 -506 
L 1670 -506 
L 1670 2528 
C 1862 2214 2086 1818 2176 1606 
L 2438 1965 
C 2330 2144 1843 2874 1670 3098 
L 1670 3539 
L 2394 3539 
L 2394 3987 
L 1670 3987 
L 1670 5376 
L 1229 5376 
z
" transform="scale(0.015625)"/>
      <path id="NotoSansCJKjp-Regular-5d96" d="M 736 5011 
C 1082 4870 1530 4646 1760 4480 
L 2010 4858 
C 1779 5011 1331 5222 979 5344 
L 736 5011 
z
M 256 3942 
C 608 3821 1062 3616 1299 3469 
L 1536 3846 
C 1299 3994 845 4179 493 4282 
L 256 3942 
z
M 435 1907 
L 774 1536 
C 1165 1952 1594 2451 1958 2899 
L 1702 3226 
C 1286 2739 781 2221 435 1907 
z
M 339 1184 
L 339 742 
L 2931 742 
L 2931 -518 
L 3424 -518 
L 3424 742 
L 6086 742 
L 6086 1184 
L 3424 1184 
L 3424 1709 
L 2931 1709 
L 2931 1184 
L 339 1184 
z
M 4224 5376 
C 4147 5171 4019 4902 3891 4672 
L 3002 4672 
C 3123 4864 3232 5062 3328 5267 
L 2867 5408 
C 2579 4774 2086 4160 1568 3763 
C 1677 3686 1869 3520 1946 3430 
C 2086 3552 2234 3693 2374 3846 
L 2374 1747 
L 5978 1747 
L 5978 2144 
L 4339 2144 
L 4339 2624 
L 5626 2624 
L 5626 2989 
L 4339 2989 
L 4339 3450 
L 5613 3450 
L 5613 3814 
L 4339 3814 
L 4339 4282 
L 5798 4282 
L 5798 4672 
L 4378 4672 
C 4499 4858 4621 5069 4742 5274 
L 4224 5376 
z
M 2842 4282 
L 3885 4282 
L 3885 3814 
L 2842 3814 
L 2842 4282 
z
M 2842 2144 
L 2842 2624 
L 3885 2624 
L 3885 2144 
L 2842 2144 
z
M 2842 3450 
L 3885 3450 
L 3885 2989 
L 2842 2989 
L 2842 3450 
z
" transform="scale(0.015625)"/>
      <path id="NotoSansCJKjp-Regular-4110" d="M 4422 5389 
C 4320 5133 4115 4768 3949 4538 
L 4019 4512 
L 2349 4512 
L 2451 4557 
C 2362 4787 2144 5114 1933 5357 
L 1523 5190 
C 1683 4992 1850 4723 1952 4512 
L 646 4512 
L 646 4090 
L 2944 4090 
L 2944 3526 
L 960 3526 
L 960 3117 
L 2944 3117 
L 2944 2541 
L 358 2541 
L 358 2106 
L 1658 2106 
C 1421 1114 954 314 250 -179 
C 365 -256 563 -429 653 -518 
C 1382 64 1901 960 2182 2106 
L 6042 2106 
L 6042 2541 
L 3437 2541 
L 3437 3117 
L 5478 3117 
L 5478 3526 
L 3437 3526 
L 3437 4090 
L 5798 4090 
L 5798 4512 
L 4442 4512 
C 4595 4717 4774 4986 4928 5235 
L 4422 5389 
z
M 2163 1619 
L 2163 1197 
L 3462 1197 
L 3462 70 
L 1549 70 
L 1549 -352 
L 5914 -352 
L 5914 70 
L 3949 70 
L 3949 1197 
L 5485 1197 
L 5485 1619 
L 2163 1619 
z
" transform="scale(0.015625)"/>
      <path id="NotoSansCJKjp-Regular-2518" d="M 3578 3059 
C 4339 2547 5299 1792 5754 1299 
L 6144 1670 
C 5664 2163 4691 2880 3936 3366 
L 3578 3059 
z
M 442 4928 
L 442 4435 
L 3290 4435 
C 2656 3341 1555 2259 282 1632 
C 384 1523 531 1331 608 1210 
C 1498 1677 2291 2336 2938 3078 
L 2938 -499 
L 3456 -499 
L 3456 3738 
C 3622 3962 3770 4198 3904 4435 
L 5958 4435 
L 5958 4928 
L 442 4928 
z
" transform="scale(0.015625)"/>
      <path id="NotoSansCJKjp-Regular-95ec" d="M 1664 2874 
C 1798 2650 1933 2342 1984 2150 
L 2291 2285 
C 2240 2470 2099 2765 1965 2982 
L 1664 2874 
z
M 640 2970 
C 563 2624 442 2259 262 2003 
C 358 1958 512 1869 582 1818 
C 755 2093 909 2502 998 2886 
L 640 2970 
z
M 5376 2848 
C 5568 2560 5760 2170 5830 1926 
L 6150 2080 
C 6067 2317 5869 2694 5677 2976 
L 5376 2848 
z
M 4275 2963 
C 4198 2630 4077 2298 3898 2048 
C 3987 2010 4141 1926 4211 1882 
C 4384 2138 4538 2522 4627 2886 
L 4275 2963 
z
M 2477 5203 
L 2477 4922 
L 3853 4922 
L 3853 5203 
L 2477 5203 
z
M 2464 4077 
L 2464 3802 
L 3866 3802 
L 3866 4077 
L 2464 4077 
z
M 2464 3533 
L 2464 3251 
L 3866 3251 
L 3866 3533 
L 2464 3533 
z
M 2803 2688 
L 3520 2688 
L 3520 2214 
L 2803 2214 
L 2803 2688 
z
M 1709 4832 
C 1587 4653 1427 4435 1254 4218 
C 1184 4294 1094 4384 998 4474 
C 1178 4691 1376 4973 1542 5242 
L 1197 5382 
C 1094 5178 928 4896 774 4672 
L 614 4800 
L 390 4550 
C 608 4371 858 4134 1018 3942 
C 902 3808 787 3680 678 3571 
L 307 3571 
L 346 3200 
L 1152 3232 
L 1152 1728 
L 1530 1728 
L 1530 3251 
L 2029 3270 
L 2125 3085 
L 2406 3251 
C 2304 3469 2067 3795 1856 4038 
L 1581 3891 
C 1658 3802 1741 3699 1818 3590 
L 1094 3578 
C 1414 3904 1773 4307 2054 4659 
L 1709 4832 
z
M 2208 4659 
L 2208 4352 
L 4064 4352 
L 4064 4474 
C 4269 4320 4499 4109 4653 3936 
C 4531 3802 4416 3680 4301 3571 
L 3942 3571 
L 3987 3200 
L 4813 3232 
L 4813 1728 
L 5190 1728 
L 5190 3251 
L 5734 3277 
C 5792 3187 5843 3110 5875 3040 
L 6163 3226 
C 6042 3462 5754 3814 5504 4077 
L 5235 3917 
C 5325 3821 5421 3706 5510 3590 
L 4730 3578 
C 5075 3910 5459 4339 5766 4704 
L 5421 4883 
C 5286 4685 5094 4442 4896 4211 
C 4819 4288 4723 4378 4621 4461 
C 4800 4678 5018 4966 5190 5242 
L 4838 5382 
C 4736 5171 4550 4877 4390 4653 
L 4250 4755 
L 4064 4538 
L 4064 4659 
L 2208 4659 
z
M 4269 1171 
C 3987 902 3622 685 3194 506 
C 2707 691 2278 909 1965 1171 
L 4269 1171 
z
M 2451 2963 
L 2451 2054 
L 2189 2131 
C 1824 1549 1120 1069 397 781 
C 499 704 666 531 736 448 
C 1030 589 1331 755 1606 960 
C 1901 710 2253 493 2650 307 
C 1933 90 1101 -45 256 -122 
C 339 -224 461 -422 499 -538 
C 1453 -416 2400 -237 3206 77 
C 4026 -230 4966 -422 5914 -525 
C 5971 -403 6080 -218 6176 -115 
C 5338 -45 4493 102 3757 320 
C 4198 544 4582 826 4870 1171 
L 5920 1171 
L 5920 1562 
L 2291 1562 
C 2394 1683 2496 1805 2579 1939 
L 3878 1939 
L 3878 2963 
L 2451 2963 
z
" transform="scale(0.015625)"/>
      <path id="NotoSansCJKjp-Regular-2e85" d="M 3776 1011 
C 4410 557 5184 -102 5549 -531 
L 5971 -230 
C 5581 205 4787 838 4160 1267 
L 3776 1011 
z
M 2163 1280 
C 1792 768 1043 186 371 -179 
C 486 -262 659 -416 755 -518 
C 1440 -134 2195 493 2675 1082 
L 2163 1280 
z
M 1062 4941 
L 1062 1491 
L 1542 1491 
L 1542 1722 
L 4973 1722 
L 4973 1523 
L 5472 1523 
L 5472 4941 
L 1062 4941 
z
M 1542 2182 
L 1542 4474 
L 4973 4474 
L 4973 2182 
L 1542 2182 
z
" transform="scale(0.015625)"/>
      <path id="NotoSansCJKjp-Regular-50d7" d="M 2502 5376 
C 2426 5101 2336 4819 2221 4544 
L 403 4544 
L 403 4096 
L 2022 4096 
C 1613 3251 1024 2470 256 1946 
C 346 1856 499 1683 563 1574 
C 966 1862 1325 2208 1632 2598 
L 1632 -506 
L 2106 -506 
L 2106 762 
L 4787 762 
L 4787 96 
C 4787 0 4755 -38 4646 -38 
C 4525 -45 4134 -51 3712 -32 
C 3776 -166 3846 -365 3872 -493 
C 4422 -493 4774 -493 4986 -422 
C 5197 -339 5261 -192 5261 90 
L 5261 3354 
L 2150 3354 
C 2298 3597 2426 3840 2541 4096 
L 6010 4096 
L 6010 4544 
L 2733 4544 
C 2829 4781 2912 5024 2989 5261 
L 2502 5376 
z
M 2106 1850 
L 4787 1850 
L 4787 1178 
L 2106 1178 
L 2106 1850 
z
M 2106 2259 
L 2106 2918 
L 4787 2918 
L 4787 2259 
L 2106 2259 
z
" transform="scale(0.015625)"/>
      <path id="NotoSansCJKjp-Regular-9946" d="M 973 4678 
L 2125 4678 
L 2125 3546 
L 973 3546 
L 973 4678 
z
M 230 269 
L 346 -186 
C 1024 6 1952 275 2829 531 
L 2771 934 
L 1830 685 
L 1830 1824 
L 2733 1824 
L 2733 2246 
L 1830 2246 
L 1830 3130 
L 2566 3130 
L 2566 5094 
L 550 5094 
L 550 3130 
L 1402 3130 
L 1402 570 
L 960 454 
L 960 2534 
L 557 2534 
L 557 352 
L 230 269 
z
M 3546 4666 
L 5325 4666 
L 5325 3891 
L 3546 3891 
L 3546 4666 
z
M 3546 2662 
L 3546 3469 
L 5325 3469 
L 5325 2662 
L 3546 2662 
z
M 5754 2061 
C 5530 1843 5171 1555 4864 1344 
C 4736 1619 4640 1914 4563 2234 
L 5792 2234 
L 5792 5094 
L 3078 5094 
L 3078 154 
L 2560 38 
L 2675 -410 
C 3238 -269 4006 -83 4730 102 
L 4685 531 
L 3546 262 
L 3546 2234 
L 4115 2234 
C 4403 954 4934 -32 5894 -512 
C 5965 -384 6106 -198 6214 -102 
C 5715 115 5331 493 5043 979 
C 5376 1190 5773 1466 6093 1734 
L 5754 2061 
z
" transform="scale(0.015625)"/>
      <path id="NotoSansCJKjp-Regular-8737" d="M 5299 4115 
C 5088 3872 4845 3642 4582 3424 
L 4582 3750 
L 3021 3750 
L 3021 4224 
L 2547 4224 
L 2547 3750 
L 909 3750 
L 909 3341 
L 2547 3341 
L 2547 2765 
L 371 2765 
L 371 2336 
L 2880 2336 
C 2048 1926 1139 1600 211 1363 
C 301 1261 429 1050 474 947 
C 858 1062 1248 1184 1626 1331 
L 1626 -512 
L 2099 -512 
L 2099 -314 
L 4960 -314 
L 4960 -506 
L 5434 -506 
L 5434 1830 
L 2816 1830 
C 3142 1984 3462 2157 3763 2336 
L 6042 2336 
L 6042 2765 
L 4429 2765 
C 4902 3098 5331 3475 5696 3885 
L 5299 4115 
z
M 3021 2765 
L 3021 3341 
L 4480 3341 
C 4224 3136 3949 2944 3654 2765 
L 3021 2765 
z
M 2099 614 
L 4960 614 
L 4960 70 
L 2099 70 
L 2099 614 
z
M 2099 947 
L 2099 1453 
L 4960 1453 
L 4960 947 
L 2099 947 
z
M 384 4902 
L 384 4474 
L 1843 4474 
L 1843 4000 
L 2310 4000 
L 2310 4474 
L 4051 4474 
L 4051 4000 
L 4518 4000 
L 4518 4474 
L 6010 4474 
L 6010 4902 
L 4518 4902 
L 4518 5376 
L 4051 5376 
L 4051 4902 
L 2310 4902 
L 2310 5376 
L 1843 5376 
L 1843 4902 
L 384 4902 
z
" transform="scale(0.015625)"/>
     </defs>
     <use xlink:href="#NotoSansCJKjp-Regular-41d6"/>
     <use xlink:href="#NotoSansCJKjp-Regular-71ef" transform="translate(100 0)"/>
     <use xlink:href="#NotoSansCJKjp-Regular-1" transform="translate(200 0)"/>
     <use xlink:href="#NotoSansCJKjp-Regular-c" transform="translate(222.40625 0)"/>
     <use xlink:href="#NotoSansCJKjp-Regular-19" transform="translate(277.90625 0)"/>
     <use xlink:href="#NotoSansCJKjp-Regular-e6ae" transform="translate(333.40625 0)"/>
     <use xlink:href="#NotoSansCJKjp-Regular-4e1d" transform="translate(433.40625 0)"/>
     <use xlink:href="#NotoSansCJKjp-Regular-b0c7" transform="translate(533.40625 0)"/>
     <use xlink:href="#NotoSansCJKjp-Regular-4bc8" transform="translate(633.40625 0)"/>
     <use xlink:href="#NotoSansCJKjp-Regular-3cc3" transform="translate(733.40625 0)"/>
     <use xlink:href="#NotoSansCJKjp-Regular-e6af" transform="translate(833.40625 0)"/>
     <use xlink:href="#NotoSansCJKjp-Regular-e6c0" transform="translate(933.40625 0)"/>
     <use xlink:href="#NotoSansCJKjp-Regular-a774" transform="translate(1033.40625 0)"/>
     <use xlink:href="#NotoSansCJKjp-Regular-9943" transform="translate(1133.40625 0)"/>
     <use xlink:href="#NotoSansCJKjp-Regular-2630" transform="translate(1233.40625 0)"/>
     <use xlink:href="#NotoSansCJKjp-Regular-4f6d" transform="translate(1333.40625 0)"/>
     <use xlink:href="#NotoSansCJKjp-Regular-1" transform="translate(1433.40625 0)"/>
     <use xlink:href="#NotoSansCJKjp-Regular-12" transform="translate(1455.8125 0)"/>
     <use xlink:href="#NotoSansCJKjp-Regular-575" transform="translate(1511.3125 0)"/>
     <use xlink:href="#NotoSansCJKjp-Regular-13" transform="translate(1611.3125 0)"/>
     <use xlink:href="#NotoSansCJKjp-Regular-575" transform="translate(1666.8125 0)"/>
     <use xlink:href="#NotoSansCJKjp-Regular-12" transform="translate(1766.8125 0)"/>
     <use xlink:href="#NotoSansCJKjp-Regular-1" transform="translate(1822.3125 0)"/>
     <use xlink:href="#NotoSansCJKjp-Regular-31c" transform="translate(1844.71875 0)"/>
     <use xlink:href="#NotoSansCJKjp-Regular-1" transform="translate(1944.71875 0)"/>
     <use xlink:href="#NotoSansCJKjp-Regular-5605" transform="translate(1967.125 0)"/>
     <use xlink:href="#NotoSansCJKjp-Regular-5d96" transform="translate(2067.125 0)"/>
     <use xlink:href="#NotoSansCJKjp-Regular-4110" transform="translate(2167.125 0)"/>
     <use xlink:href="#NotoSansCJKjp-Regular-2518" transform="translate(2267.125 0)"/>
     <use xlink:href="#NotoSansCJKjp-Regular-95ec" transform="translate(2367.125 0)"/>
     <use xlink:href="#NotoSansCJKjp-Regular-e6b2" transform="translate(2467.125 0)"/>
     <use xlink:href="#NotoSansCJKjp-Regular-2e85" transform="translate(2567.125 0)"/>
     <use xlink:href="#NotoSansCJKjp-Regular-50d7" transform="translate(2667.125 0)"/>
     <use xlink:href="#NotoSansCJKjp-Regular-41d6" transform="translate(2767.125 0)"/>
     <use xlink:href="#NotoSansCJKjp-Regular-33ef" transform="translate(2867.125 0)"/>
     <use xlink:href="#NotoSansCJKjp-Regular-9946" transform="translate(2967.125 0)"/>
     <use xlink:href="#NotoSansCJKjp-Regular-8737" transform="translate(3067.125 0)"/>
     <use xlink:href="#NotoSansCJKjp-Regular-1" transform="translate(3167.125 0)"/>
     <use xlink:href="#NotoSansCJKjp-Regular-c" transform="translate(3189.53125 0)"/>
     <use xlink:href="#NotoSansCJKjp-Regular-19" transform="translate(3245.03125 0)"/>
    </g>
   </g>
   <g id="PathCollection_2">
    <defs>
     <path id="mb620cde984" d="M 0 4.472136 
C 1.186024 4.472136 2.323632 4.000923 3.162278 3.162278 
C 4.000923 2.323632 4.472136 1.186024 4.472136 0 
C 4.472136 -1.186024 4.000923 -2.323632 3.162278 -3.162278 
C 2.323632 -4.000923 1.186024 -4.472136 0 -4.472136 
C -1.186024 -4.472136 -2.323632 -4.000923 -3.162278 -3.162278 
C -4.000923 -2.323632 -4.472136 -1.186024 -4.472136 0 
C -4.472136 1.186024 -4.000923 2.323632 -3.162278 3.162278 
C -2.323632 4.000923 -1.186024 4.472136 0 4.472136 
z
" style="stroke: #1f6feb"/>
    </defs>
    <g clip-path="url(#p6bb324b6c0)">
     <use xlink:href="#mb620cde984" x="420.1425" y="200.95417" style="fill: #1f6feb; stroke: #1f6feb"/>
     <use xlink:href="#mb620cde984" x="461.10375" y="200.95417" style="fill: #1f6feb; stroke: #1f6feb"/>
     <use xlink:href="#mb620cde984" x="543.02625" y="200.95417" style="fill: #1f6feb; stroke: #1f6feb"/>
     <use xlink:href="#mb620cde984" x="583.9875" y="200.95417" style="fill: #1f6feb; stroke: #1f6feb"/>
    </g>
   </g>
  </g>
  <g id="axes_3">
   <g id="patch_12">
    <path d="M 10.53 344.090125 
L 665.91 344.090125 
L 665.91 272.067 
L 10.53 272.067 
z
" style="fill: #ffffff"/>
   </g>
   <g id="line2d_23">
    <path d="M 10.53 306.07792 
L 665.91 306.07792 
" clip-path="url(#pb21e009dda)" style="fill: none; stroke: #d8dde3; stroke-width: 0.8; stroke-linecap: square"/>
   </g>
   <g id="matplotlib.axis_5">
    <g id="xtick_19">
     <g id="line2d_24">
      <g>
       <use xlink:href="#m5010483901" x="10.53" y="344.090125" style="fill: #222831; stroke: #222831; stroke-width: 0.8"/>
      </g>
     </g>
     <g id="text_11">
      <!-- 0 -->
      <g style="fill: #222831" transform="translate(7.2 361.650125) scale(0.12 -0.12)">
       <defs>
        <path id="NotoSansCJKjp-Regular-11" d="M 1779 -83 
C 2669 -83 3238 723 3238 2362 
C 3238 3987 2669 4774 1779 4774 
C 883 4774 320 3987 320 2362 
C 320 723 883 -83 1779 -83 
z
M 1779 390 
C 1248 390 883 986 883 2362 
C 883 3731 1248 4314 1779 4314 
C 2310 4314 2675 3731 2675 2362 
C 2675 986 2310 390 1779 390 
z
" transform="scale(0.015625)"/>
       </defs>
       <use xlink:href="#NotoSansCJKjp-Regular-11"/>
      </g>
     </g>
    </g>
    <g id="xtick_20">
     <g id="line2d_25">
      <g>
       <use xlink:href="#m5010483901" x="92.4525" y="344.090125" style="fill: #222831; stroke: #222831; stroke-width: 0.8"/>
      </g>
     </g>
     <g id="text_12">
      <!-- 2 -->
      <g style="fill: #222831" transform="translate(89.1225 361.650125) scale(0.12 -0.12)">
       <use xlink:href="#NotoSansCJKjp-Regular-13"/>
      </g>
     </g>
    </g>
    <g id="xtick_21">
     <g id="line2d_26">
      <g>
       <use xlink:href="#m5010483901" x="174.375" y="344.090125" style="fill: #222831; stroke: #222831; stroke-width: 0.8"/>
      </g>
     </g>
     <g id="text_13">
      <!-- 4 -->
      <g style="fill: #222831" transform="translate(171.045 361.650125) scale(0.12 -0.12)">
       <use xlink:href="#NotoSansCJKjp-Regular-15"/>
      </g>
     </g>
    </g>
    <g id="xtick_22">
     <g id="line2d_27">
      <g>
       <use xlink:href="#m5010483901" x="256.2975" y="344.090125" style="fill: #222831; stroke: #222831; stroke-width: 0.8"/>
      </g>
     </g>
     <g id="text_14">
      <!-- 6 -->
      <g style="fill: #222831" transform="translate(252.9675 361.650125) scale(0.12 -0.12)">
       <defs>
        <path id="NotoSansCJKjp-Regular-17" d="M 1926 -83 
C 2656 -83 3277 531 3277 1440 
C 3277 2426 2765 2912 1971 2912 
C 1606 2912 1197 2701 909 2349 
C 934 3802 1466 4294 2118 4294 
C 2400 4294 2682 4154 2861 3936 
L 3194 4294 
C 2931 4576 2579 4774 2093 4774 
C 1184 4774 358 4077 358 2240 
C 358 691 1030 -83 1926 -83 
z
M 922 1882 
C 1229 2317 1587 2477 1875 2477 
C 2445 2477 2720 2074 2720 1440 
C 2720 800 2374 378 1926 378 
C 1338 378 986 909 922 1882 
z
" transform="scale(0.015625)"/>
       </defs>
       <use xlink:href="#NotoSansCJKjp-Regular-17"/>
      </g>
     </g>
    </g>
    <g id="xtick_23">
     <g id="line2d_28">
      <g>
       <use xlink:href="#m5010483901" x="338.22" y="344.090125" style="fill: #222831; stroke: #222831; stroke-width: 0.8"/>
      </g>
     </g>
     <g id="text_15">
      <!-- 8 -->
      <g style="fill: #222831" transform="translate(334.89 361.650125) scale(0.12 -0.12)">
       <use xlink:href="#NotoSansCJKjp-Regular-19"/>
      </g>
     </g>
    </g>
    <g id="xtick_24">
     <g id="line2d_29">
      <g>
       <use xlink:href="#m5010483901" x="420.1425" y="344.090125" style="fill: #222831; stroke: #222831; stroke-width: 0.8"/>
      </g>
     </g>
     <g id="text_16">
      <!-- 10 -->
      <g style="fill: #222831" transform="translate(413.4825 361.650125) scale(0.12 -0.12)">
       <use xlink:href="#NotoSansCJKjp-Regular-12"/>
       <use xlink:href="#NotoSansCJKjp-Regular-11" transform="translate(55.5 0)"/>
      </g>
     </g>
    </g>
    <g id="xtick_25">
     <g id="line2d_30">
      <g>
       <use xlink:href="#m5010483901" x="502.065" y="344.090125" style="fill: #222831; stroke: #222831; stroke-width: 0.8"/>
      </g>
     </g>
     <g id="text_17">
      <!-- 12 -->
      <g style="fill: #222831" transform="translate(495.405 361.650125) scale(0.12 -0.12)">
       <use xlink:href="#NotoSansCJKjp-Regular-12"/>
       <use xlink:href="#NotoSansCJKjp-Regular-13" transform="translate(55.5 0)"/>
      </g>
     </g>
    </g>
    <g id="xtick_26">
     <g id="line2d_31">
      <g>
       <use xlink:href="#m5010483901" x="583.9875" y="344.090125" style="fill: #222831; stroke: #222831; stroke-width: 0.8"/>
      </g>
     </g>
     <g id="text_18">
      <!-- 14 -->
      <g style="fill: #222831" transform="translate(577.3275 361.650125) scale(0.12 -0.12)">
       <use xlink:href="#NotoSansCJKjp-Regular-12"/>
       <use xlink:href="#NotoSansCJKjp-Regular-15" transform="translate(55.5 0)"/>
      </g>
     </g>
    </g>
    <g id="xtick_27">
     <g id="line2d_32">
      <g>
       <use xlink:href="#m5010483901" x="665.91" y="344.090125" style="fill: #222831; stroke: #222831; stroke-width: 0.8"/>
      </g>
     </g>
     <g id="text_19">
      <!-- 16 -->
      <g style="fill: #222831" transform="translate(659.25 361.650125) scale(0.12 -0.12)">
       <use xlink:href="#NotoSansCJKjp-Regular-12"/>
       <use xlink:href="#NotoSansCJKjp-Regular-17" transform="translate(55.5 0)"/>
      </g>
     </g>
    </g>
    <g id="text_20">
     <!-- 數值 -->
     <g style="fill: #222831" transform="translate(326.22 377.650125) scale(0.12 -0.12)">
      <defs>
       <path id="NotoSansCJKjp-Regular-4e26" d="M 4352 3744 
L 5318 3744 
C 5216 2957 5062 2266 4826 1677 
C 4595 2266 4442 2944 4333 3661 
L 4352 3744 
z
M 256 4301 
L 256 3936 
L 698 3936 
L 698 3245 
L 1741 3245 
L 1741 2950 
L 538 2950 
L 538 1882 
L 1485 1882 
L 1274 1478 
L 262 1472 
L 275 1088 
L 1069 1094 
C 928 845 787 608 666 422 
L 1062 307 
L 1171 486 
C 1389 403 1606 314 1818 218 
C 1459 32 998 -83 416 -154 
C 493 -256 570 -410 602 -538 
C 1293 -416 1837 -250 2246 13 
C 2522 -128 2765 -275 2957 -410 
L 3264 -102 
C 3078 19 2848 154 2586 282 
C 2816 512 2976 794 3072 1133 
L 3750 1152 
L 3763 1510 
L 1734 1485 
L 1939 1882 
L 3424 1882 
L 3424 2419 
C 3526 2336 3648 2221 3706 2157 
C 3834 2362 3949 2592 4051 2848 
C 4179 2221 4346 1645 4563 1146 
C 4256 614 3853 192 3309 -134 
C 3392 -224 3539 -429 3584 -525 
C 4090 -198 4486 192 4794 666 
C 5075 166 5414 -237 5850 -518 
C 5920 -403 6067 -224 6176 -141 
C 5709 141 5350 582 5062 1133 
C 5421 1843 5638 2707 5779 3744 
L 6144 3744 
L 6144 4186 
L 4467 4186 
C 4550 4544 4621 4922 4678 5306 
L 4211 5376 
C 4070 4339 3827 3315 3424 2618 
L 3424 2950 
L 2163 2950 
L 2163 3245 
L 3277 3245 
L 3277 3936 
L 3731 3936 
L 3731 4301 
L 3277 4301 
L 3277 4986 
L 2163 4986 
L 2163 5376 
L 1741 5376 
L 1741 4986 
L 698 4986 
L 698 4301 
L 256 4301 
z
M 1101 4646 
L 1741 4646 
L 1741 4282 
L 1101 4282 
L 1101 4646 
z
M 1741 3578 
L 1101 3578 
L 1101 3955 
L 1741 3955 
L 1741 3578 
z
M 2163 4646 
L 2848 4646 
L 2848 4282 
L 2163 4282 
L 2163 4646 
z
M 2163 3578 
L 2163 3955 
L 2848 3955 
L 2848 3578 
L 2163 3578 
z
M 947 2624 
L 1741 2624 
L 1741 2202 
L 947 2202 
L 947 2624 
z
M 2163 2624 
L 3002 2624 
L 3002 2202 
L 2163 2202 
L 2163 2624 
z
M 1530 1107 
L 2630 1126 
C 2534 864 2387 646 2189 467 
C 1920 589 1632 704 1357 800 
L 1530 1107 
z
" transform="scale(0.015625)"/>
       <path id="NotoSansCJKjp-Regular-286c" d="M 3834 5376 
C 3814 5184 3782 4954 3750 4723 
L 2106 4723 
L 2106 4294 
L 3674 4294 
C 3635 4077 3597 3872 3552 3699 
L 2445 3699 
L 2445 90 
L 1830 90 
L 1830 -326 
L 6131 -326 
L 6131 90 
L 5562 90 
L 5562 3699 
L 3987 3699 
C 4038 3872 4090 4077 4134 4294 
L 5939 4294 
L 5939 4723 
L 4230 4723 
L 4346 5344 
L 3834 5376 
z
M 2880 90 
L 2880 621 
L 5114 621 
L 5114 90 
L 2880 90 
z
M 2880 2426 
L 5114 2426 
L 5114 1875 
L 2880 1875 
L 2880 2426 
z
M 2880 2784 
L 2880 3322 
L 5114 3322 
L 5114 2784 
L 2880 2784 
z
M 2880 1530 
L 5114 1530 
L 5114 973 
L 2880 973 
L 2880 1530 
z
M 1690 5370 
C 1350 4397 794 3443 205 2816 
C 288 2701 422 2451 474 2342 
C 659 2547 845 2784 1018 3040 
L 1018 -512 
L 1466 -512 
L 1466 3770 
C 1722 4230 1946 4730 2131 5229 
L 1690 5370 
z
" transform="scale(0.015625)"/>
      </defs>
      <use xlink:href="#NotoSansCJKjp-Regular-4e26"/>
      <use xlink:href="#NotoSansCJKjp-Regular-286c" transform="translate(100 0)"/>
     </g>
    </g>
   </g>
   <g id="matplotlib.axis_6"/>
   <g id="patch_13">
    <path d="M 10.53 344.090125 
L 665.91 344.090125 
" style="fill: none; stroke: #222831; stroke-width: 1.1; stroke-linejoin: miter; stroke-linecap: square"/>
   </g>
   <g id="patch_14">
    <path d="M 252.846495 293.273809 
Q 215.335068 293.273809 177.823641 293.273809 
" style="fill: none; stroke: #d8dde3; stroke-width: 1.3; stroke-linecap: round"/>
    <path d="M 248.046495 290.873809 
L 252.846495 293.273809 
L 248.046495 295.673809 
" style="fill: none; stroke: #d8dde3; stroke-width: 1.3; stroke-linecap: round"/>
    <path d="M 182.623641 295.673809 
L 177.823641 293.273809 
L 182.623641 290.873809 
" style="fill: none; stroke: #d8dde3; stroke-width: 1.3; stroke-linecap: round"/>
   </g>
   <g id="text_21">
    <!-- 2 -->
    <g style="fill: #222831" transform="translate(212.56125 288.072524) scale(0.1 -0.1)">
     <use xlink:href="#NotoSansCJKjp-Regular-13"/>
    </g>
   </g>
   <g id="patch_15">
    <path d="M 416.691495 293.273809 
Q 338.221406 293.273809 259.751317 293.273809 
" style="fill: none; stroke: #d8dde3; stroke-width: 1.3; stroke-linecap: round"/>
    <path d="M 411.891495 290.873809 
L 416.691495 293.273809 
L 411.891495 295.673809 
" style="fill: none; stroke: #d8dde3; stroke-width: 1.3; stroke-linecap: round"/>
    <path d="M 264.551317 295.673809 
L 259.751317 293.273809 
L 264.551317 290.873809 
" style="fill: none; stroke: #d8dde3; stroke-width: 1.3; stroke-linecap: round"/>
   </g>
   <g id="text_22">
    <!-- 4 -->
    <g style="fill: #222831" transform="translate(335.445 288.072524) scale(0.1 -0.1)">
     <use xlink:href="#NotoSansCJKjp-Regular-15"/>
    </g>
   </g>
   <g id="patch_16">
    <path d="M 498.613995 293.273809 
Q 461.102568 293.273809 423.591141 293.273809 
" style="fill: none; stroke: #d8dde3; stroke-width: 1.3; stroke-linecap: round"/>
    <path d="M 493.813995 290.873809 
L 498.613995 293.273809 
L 493.813995 295.673809 
" style="fill: none; stroke: #d8dde3; stroke-width: 1.3; stroke-linecap: round"/>
    <path d="M 428.391141 295.673809 
L 423.591141 293.273809 
L 428.391141 290.873809 
" style="fill: none; stroke: #d8dde3; stroke-width: 1.3; stroke-linecap: round"/>
   </g>
   <g id="text_23">
    <!-- 2 -->
    <g style="fill: #222831" transform="translate(458.32875 288.072524) scale(0.1 -0.1)">
     <use xlink:href="#NotoSansCJKjp-Regular-13"/>
    </g>
   </g>
   <g id="line2d_33">
    <path d="M 338.22 344.090125 
L 338.22 272.067 
" clip-path="url(#pb21e009dda)" style="fill: none; stroke-dasharray: 5.92,2.56; stroke-dashoffset: 0; stroke: #222831; stroke-width: 1.6"/>
   </g>
   <g id="text_24">
    <!-- 平均 8 -->
    <g style="fill: #222831" transform="translate(323.629922 340.125885) scale(0.105 -0.105)">
     <use xlink:href="#NotoSansCJKjp-Regular-41d6"/>
     <use xlink:href="#NotoSansCJKjp-Regular-33ef" transform="translate(100 0)"/>
     <use xlink:href="#NotoSansCJKjp-Regular-1" transform="translate(200 0)"/>
     <use xlink:href="#NotoSansCJKjp-Regular-19" transform="translate(222.40625 0)"/>
    </g>
   </g>
   <g id="text_25">
    <!-- 伸縮 ×2（間距放大）：間距變成 2、4、2 → 標準差變 2 倍 -->
    <g style="fill: #d1242f" transform="translate(10.53 266.067) scale(0.12 -0.12)">
     <defs>
      <path id="NotoSansCJKjp-Regular-26c8" d="M 3789 3923 
L 3789 3040 
L 2541 3040 
L 2541 3923 
L 3789 3923 
z
M 2086 4365 
L 2086 934 
L 2541 934 
L 2541 1274 
L 3789 1274 
L 3789 -506 
L 4256 -506 
L 4256 1274 
L 5542 1274 
L 5542 986 
L 6016 986 
L 6016 4365 
L 4256 4365 
L 4256 5344 
L 3789 5344 
L 3789 4365 
L 2086 4365 
z
M 4256 3923 
L 5542 3923 
L 5542 3040 
L 4256 3040 
L 4256 3923 
z
M 3789 2611 
L 3789 1709 
L 2541 1709 
L 2541 2611 
L 3789 2611 
z
M 4256 2611 
L 5542 2611 
L 5542 1709 
L 4256 1709 
L 4256 2611 
z
M 1690 5350 
C 1331 4378 736 3418 102 2797 
C 192 2688 326 2438 371 2323 
C 595 2554 813 2822 1024 3117 
L 1024 -499 
L 1485 -499 
L 1485 3840 
C 1734 4282 1965 4749 2144 5216 
L 1690 5350 
z
" transform="scale(0.015625)"/>
      <path id="NotoSansCJKjp-Regular-7aca" d="M 1811 1645 
C 1965 1274 2086 787 2112 467 
L 2477 576 
C 2438 896 2310 1376 2157 1747 
L 1811 1645 
z
M 570 1715 
C 493 1158 378 582 166 192 
C 269 154 448 70 525 19 
C 723 429 877 1043 960 1651 
L 570 1715 
z
M 2515 4755 
L 2515 3699 
L 2950 3699 
L 2950 4352 
L 5587 4352 
L 5587 3789 
L 6035 3789 
L 6035 4755 
L 4486 4755 
L 4486 5389 
L 4006 5389 
L 4006 4755 
L 2515 4755 
z
M 3795 2586 
L 3795 -506 
L 4205 -506 
L 4205 -224 
L 5517 -224 
L 5517 -474 
L 5939 -474 
L 5939 2586 
L 4909 2586 
L 5088 3232 
L 6086 3232 
L 6086 3629 
L 3667 3629 
L 3667 3232 
L 4608 3232 
C 4576 3021 4525 2784 4474 2586 
L 3795 2586 
z
M 179 2547 
L 237 2118 
L 1210 2176 
L 1210 -512 
L 1626 -512 
L 1626 2202 
L 2118 2240 
C 2150 2131 2176 2035 2189 1952 
L 2458 2074 
C 2400 1990 2342 1907 2278 1837 
C 2362 1760 2477 1606 2541 1517 
C 2669 1658 2784 1818 2893 1990 
L 2893 -512 
L 3296 -512 
L 3296 2758 
C 3450 3104 3571 3462 3667 3795 
L 3245 3898 
C 3117 3354 2867 2694 2534 2182 
C 2458 2509 2266 2982 2061 3354 
L 1722 3219 
C 1818 3040 1907 2842 1984 2643 
L 1094 2592 
C 1510 3136 1978 3866 2330 4467 
L 1933 4646 
C 1766 4301 1530 3878 1280 3475 
C 1190 3603 1075 3744 947 3885 
C 1178 4243 1446 4774 1670 5216 
L 1254 5376 
C 1126 5018 896 4525 691 4154 
L 486 4352 
L 237 4051 
C 531 3776 858 3398 1043 3104 
C 915 2906 787 2726 666 2566 
L 179 2547 
z
M 4205 1011 
L 5517 1011 
L 5517 166 
L 4205 166 
L 4205 1011 
z
M 4205 1395 
L 4205 2189 
L 5517 2189 
L 5517 1395 
L 4205 1395 
z
" transform="scale(0.015625)"/>
      <path id="NotoSansCJKjp-Regular-95" d="M 4954 346 
L 5261 653 
L 3514 2406 
L 5261 4160 
L 4954 4467 
L 3200 2714 
L 1453 4467 
L 1139 4154 
L 2893 2406 
L 1139 653 
L 1453 346 
L 3200 2099 
L 4954 346 
z
" transform="scale(0.015625)"/>
      <path id="NotoSansCJKjp-Regular-4dd1" d="M 1453 5363 
L 1453 4339 
L 282 4339 
L 282 3891 
L 1037 3891 
L 1037 2560 
C 1037 1651 941 640 160 -192 
C 275 -275 435 -403 518 -506 
C 1370 403 1498 1491 1498 2554 
L 1498 2592 
L 2374 2592 
C 2330 800 2285 166 2176 26 
C 2125 -51 2074 -64 1978 -64 
C 1882 -64 1638 -58 1370 -38 
C 1446 -160 1491 -352 1498 -486 
C 1773 -493 2042 -493 2195 -480 
C 2368 -461 2477 -410 2579 -269 
C 2752 -51 2784 678 2829 2816 
C 2835 2886 2835 3040 2835 3040 
L 1498 3040 
L 1498 3891 
L 3123 3891 
L 3123 4339 
L 1926 4339 
L 1926 5363 
L 1453 5363 
z
M 3974 3731 
L 5203 3731 
C 5069 2912 4870 2214 4570 1638 
C 4282 2221 4077 2899 3942 3635 
L 3974 3731 
z
M 3872 5382 
C 3686 4275 3354 3200 2848 2528 
C 2963 2451 3174 2298 3258 2214 
C 3405 2419 3533 2662 3654 2918 
C 3814 2272 4019 1683 4282 1171 
C 3898 627 3379 205 2688 -102 
C 2778 -205 2918 -416 2963 -525 
C 3629 -198 4141 218 4544 730 
C 4890 205 5325 -211 5869 -499 
C 5939 -371 6093 -186 6202 -90 
C 5632 179 5184 608 4832 1158 
C 5248 1850 5510 2694 5683 3731 
L 6157 3731 
L 6157 4179 
L 4109 4179 
C 4211 4538 4294 4922 4365 5306 
L 3872 5382 
z
" transform="scale(0.015625)"/>
      <path id="NotoSansCJKjp-Regular-36fb" d="M 2950 5370 
C 2944 4864 2950 4218 2854 3539 
L 397 3539 
L 397 3046 
L 2771 3046 
C 2515 1830 1875 589 275 -102 
C 410 -205 563 -378 640 -499 
C 2202 218 2893 1446 3206 2682 
C 3706 1222 4531 90 5773 -499 
C 5856 -358 6010 -160 6131 -51 
C 4890 467 4051 1632 3603 3046 
L 6029 3046 
L 6029 3539 
L 3366 3539 
C 3456 4211 3462 4851 3469 5370 
L 2950 5370 
z
" transform="scale(0.015625)"/>
      <path id="NotoSansCJKjp-Regular-4857" d="M 3482 5370 
C 3482 5005 3494 4640 3514 4288 
L 819 4288 
L 819 2490 
C 819 1658 762 550 230 -237 
C 346 -294 550 -461 634 -557 
C 1222 288 1318 1581 1318 2483 
L 1318 2528 
L 2490 2528 
C 2464 1427 2432 1018 2349 922 
C 2298 864 2240 851 2144 851 
C 2035 851 1760 851 1466 883 
C 1542 762 1594 570 1600 435 
C 1914 416 2208 416 2374 429 
C 2547 448 2656 493 2758 614 
C 2893 787 2925 1331 2957 2771 
C 2957 2835 2963 2976 2963 2976 
L 1318 2976 
L 1318 3821 
L 3546 3821 
C 3622 2784 3776 1837 4019 1101 
C 3597 614 3104 218 2534 -83 
C 2637 -179 2810 -378 2886 -480 
C 3379 -186 3821 166 4211 589 
C 4506 -70 4890 -467 5382 -467 
C 5875 -467 6054 -147 6138 947 
C 6010 992 5830 1101 5722 1210 
C 5683 358 5606 26 5421 26 
C 5094 26 4806 390 4570 1018 
C 5043 1632 5421 2362 5696 3200 
L 5216 3322 
C 5011 2675 4736 2093 4390 1581 
C 4224 2202 4102 2963 4032 3821 
L 6086 3821 
L 6086 4288 
L 4006 4288 
C 3987 4640 3981 4998 3981 5370 
L 3482 5370 
z
M 4294 5056 
C 4704 4845 5197 4518 5440 4288 
L 5741 4621 
C 5491 4838 4986 5152 4582 5350 
L 4294 5056 
z
" transform="scale(0.015625)"/>
      <path id="NotoSansCJKjp-Regular-2818" d="M 1875 2950 
L 1875 2502 
L 6176 2502 
L 6176 2950 
L 1875 2950 
z
M 2675 4051 
C 2829 3706 2970 3264 3002 2989 
L 3450 3117 
C 3411 3386 3258 3821 3091 4154 
L 2675 4051 
z
M 4979 4160 
C 4890 3840 4730 3366 4589 3078 
L 5011 2982 
C 5152 3258 5318 3674 5459 4058 
L 4979 4160 
z
M 2144 4653 
L 2144 4211 
L 6042 4211 
L 6042 4653 
L 4307 4653 
L 4307 5376 
L 3821 5376 
L 3821 4653 
L 2144 4653 
z
M 2477 1901 
L 2477 -518 
L 2950 -518 
L 2950 -218 
L 5216 -218 
L 5216 -480 
L 5702 -480 
L 5702 1901 
L 2477 1901 
z
M 2950 230 
L 2950 1459 
L 5216 1459 
L 5216 230 
L 2950 230 
z
M 1690 5350 
C 1331 4378 736 3418 102 2797 
C 192 2688 326 2438 371 2323 
C 595 2554 813 2822 1024 3117 
L 1024 -499 
L 1485 -499 
L 1485 3840 
C 1734 4282 1965 4749 2144 5216 
L 1690 5350 
z
" transform="scale(0.015625)"/>
     </defs>
     <use xlink:href="#NotoSansCJKjp-Regular-26c8"/>
     <use xlink:href="#NotoSansCJKjp-Regular-7aca" transform="translate(100 0)"/>
     <use xlink:href="#NotoSansCJKjp-Regular-1" transform="translate(200 0)"/>
     <use xlink:href="#NotoSansCJKjp-Regular-95" transform="translate(222.40625 0)"/>
     <use xlink:href="#NotoSansCJKjp-Regular-13" transform="translate(322.40625 0)"/>
     <use xlink:href="#NotoSansCJKjp-Regular-e6ae" transform="translate(377.90625 0)"/>
     <use xlink:href="#NotoSansCJKjp-Regular-a774" transform="translate(477.90625 0)"/>
     <use xlink:href="#NotoSansCJKjp-Regular-9943" transform="translate(577.90625 0)"/>
     <use xlink:href="#NotoSansCJKjp-Regular-4dd1" transform="translate(677.90625 0)"/>
     <use xlink:href="#NotoSansCJKjp-Regular-36fb" transform="translate(777.90625 0)"/>
     <use xlink:href="#NotoSansCJKjp-Regular-e6af" transform="translate(877.90625 0)"/>
     <use xlink:href="#NotoSansCJKjp-Regular-e6c0" transform="translate(977.90625 0)"/>
     <use xlink:href="#NotoSansCJKjp-Regular-a774" transform="translate(1077.90625 0)"/>
     <use xlink:href="#NotoSansCJKjp-Regular-9943" transform="translate(1177.90625 0)"/>
     <use xlink:href="#NotoSansCJKjp-Regular-95ec" transform="translate(1277.90625 0)"/>
     <use xlink:href="#NotoSansCJKjp-Regular-4857" transform="translate(1377.90625 0)"/>
     <use xlink:href="#NotoSansCJKjp-Regular-1" transform="translate(1477.90625 0)"/>
     <use xlink:href="#NotoSansCJKjp-Regular-13" transform="translate(1500.3125 0)"/>
     <use xlink:href="#NotoSansCJKjp-Regular-575" transform="translate(1555.8125 0)"/>
     <use xlink:href="#NotoSansCJKjp-Regular-15" transform="translate(1655.8125 0)"/>
     <use xlink:href="#NotoSansCJKjp-Regular-575" transform="translate(1711.3125 0)"/>
     <use xlink:href="#NotoSansCJKjp-Regular-13" transform="translate(1811.3125 0)"/>
     <use xlink:href="#NotoSansCJKjp-Regular-1" transform="translate(1866.8125 0)"/>
     <use xlink:href="#NotoSansCJKjp-Regular-31c" transform="translate(1889.21875 0)"/>
     <use xlink:href="#NotoSansCJKjp-Regular-1" transform="translate(1989.21875 0)"/>
     <use xlink:href="#NotoSansCJKjp-Regular-5605" transform="translate(2011.625 0)"/>
     <use xlink:href="#NotoSansCJKjp-Regular-5d96" transform="translate(2111.625 0)"/>
     <use xlink:href="#NotoSansCJKjp-Regular-4110" transform="translate(2211.625 0)"/>
     <use xlink:href="#NotoSansCJKjp-Regular-95ec" transform="translate(2311.625 0)"/>
     <use xlink:href="#NotoSansCJKjp-Regular-1" transform="translate(2411.625 0)"/>
     <use xlink:href="#NotoSansCJKjp-Regular-13" transform="translate(2434.03125 0)"/>
     <use xlink:href="#NotoSansCJKjp-Regular-1" transform="translate(2489.53125 0)"/>
     <use xlink:href="#NotoSansCJKjp-Regular-2818" transform="translate(2511.9375 0)"/>
    </g>
   </g>
   <g id="PathCollection_3">
    <defs>
     <path id="m2e047bf5e7" d="M 0 4.472136 
C 1.186024 4.472136 2.323632 4.000923 3.162278 3.162278 
C 4.000923 2.323632 4.472136 1.186024 4.472136 0 
C 4.472136 -1.186024 4.000923 -2.323632 3.162278 -3.162278 
C 2.323632 -4.000923 1.186024 -4.472136 0 -4.472136 
C -1.186024 -4.472136 -2.323632 -4.000923 -3.162278 -3.162278 
C -4.000923 -2.323632 -4.472136 -1.186024 -4.472136 0 
C -4.472136 1.186024 -4.000923 2.323632 -3.162278 3.162278 
C -2.323632 4.000923 -1.186024 4.472136 0 4.472136 
z
" style="stroke: #d1242f"/>
    </defs>
    <g clip-path="url(#pb21e009dda)">
     <use xlink:href="#m2e047bf5e7" x="174.375" y="306.07792" style="fill: #d1242f; stroke: #d1242f"/>
     <use xlink:href="#m2e047bf5e7" x="256.2975" y="306.07792" style="fill: #d1242f; stroke: #d1242f"/>
     <use xlink:href="#m2e047bf5e7" x="420.1425" y="306.07792" style="fill: #d1242f; stroke: #d1242f"/>
     <use xlink:href="#m2e047bf5e7" x="502.065" y="306.07792" style="fill: #d1242f; stroke: #d1242f"/>
    </g>
   </g>
  </g>
  <g id="text_26">
   <!-- 線性變換 y = ax + b：平移不動離散、伸縮放大離散 -->
   <g style="fill: #222831" transform="translate(182.858906 19.52) scale(0.14 -0.14)">
    <defs>
     <path id="NotoSansCJKjp-Regular-7a17" d="M 3258 3405 
L 5414 3405 
L 5414 2848 
L 3258 2848 
L 3258 3405 
z
M 3258 4326 
L 5414 4326 
L 5414 3770 
L 3258 3770 
L 3258 4326 
z
M 1894 1632 
C 2048 1267 2182 781 2208 474 
L 2586 589 
C 2541 902 2406 1370 2246 1734 
L 1894 1632 
z
M 570 1715 
C 493 1158 378 582 166 192 
C 269 154 454 70 538 13 
C 736 422 890 1043 973 1651 
L 570 1715 
z
M 2816 4717 
L 2816 2451 
L 4109 2451 
L 4109 6 
C 4109 -64 4090 -83 4006 -90 
C 3930 -90 3674 -90 3386 -83 
C 3443 -211 3501 -384 3520 -506 
C 3917 -506 4173 -499 4339 -435 
C 4506 -358 4544 -237 4544 6 
L 4544 1325 
C 4819 717 5254 109 5952 -250 
C 6016 -128 6157 51 6246 141 
C 5754 358 5382 698 5114 1088 
C 5427 1306 5798 1613 6106 1894 
L 5715 2176 
C 5523 1946 5203 1645 4922 1408 
C 4742 1734 4627 2074 4544 2400 
L 4544 2451 
L 5875 2451 
L 5875 4717 
L 4365 4717 
C 4467 4890 4570 5088 4659 5280 
L 4128 5382 
C 4077 5190 3968 4934 3872 4717 
L 2816 4717 
z
M 2573 1901 
L 2573 1491 
L 3443 1491 
C 3219 826 2803 352 2291 77 
C 2381 13 2534 -154 2592 -250 
C 3226 115 3738 787 3962 1805 
L 3699 1914 
L 3622 1901 
L 2573 1901 
z
M 179 2547 
L 237 2118 
L 1248 2182 
L 1248 -512 
L 1670 -512 
L 1670 2208 
L 2176 2240 
C 2234 2086 2285 1946 2310 1824 
L 2694 2003 
C 2598 2349 2342 2906 2074 3322 
L 1722 3181 
C 1824 3014 1920 2829 2010 2637 
L 1088 2592 
C 1517 3136 2010 3866 2374 4454 
L 1971 4646 
C 1792 4301 1549 3878 1286 3475 
C 1190 3610 1075 3750 941 3898 
C 1178 4256 1459 4781 1677 5216 
L 1254 5376 
C 1120 5018 890 4531 685 4166 
L 486 4346 
L 237 4038 
C 525 3763 845 3398 1037 3104 
C 896 2912 762 2726 634 2566 
L 179 2547 
z
" transform="scale(0.015625)"/>
     <path id="NotoSansCJKjp-Regular-44ea" d="M 1101 5376 
L 1101 -506 
L 1581 -506 
L 1581 5376 
L 1101 5376 
z
M 512 4160 
C 467 3642 352 2938 179 2509 
L 557 2381 
C 723 2848 838 3584 877 4109 
L 512 4160 
z
M 1626 4198 
C 1811 3846 2003 3379 2067 3091 
L 2426 3277 
C 2355 3546 2157 4000 1965 4346 
L 1626 4198 
z
M 2138 173 
L 2138 -282 
L 6074 -282 
L 6074 173 
L 4461 173 
L 4461 1779 
L 5779 1779 
L 5779 2227 
L 4461 2227 
L 4461 3558 
L 5920 3558 
L 5920 4019 
L 4461 4019 
L 4461 5350 
L 3974 5350 
L 3974 4019 
L 3181 4019 
C 3264 4333 3341 4672 3405 5005 
L 2938 5082 
C 2790 4211 2534 3341 2163 2784 
C 2278 2733 2496 2624 2592 2560 
C 2758 2835 2906 3174 3034 3558 
L 3974 3558 
L 3974 2227 
L 2618 2227 
L 2618 1779 
L 3974 1779 
L 3974 173 
L 2138 173 
z
" transform="scale(0.015625)"/>
     <path id="NotoSansCJKjp-Regular-4b35" d="M 2912 3866 
L 2854 3866 
C 3046 4070 3213 4282 3347 4499 
L 4429 4499 
C 4326 4282 4205 4051 4083 3866 
L 2912 3866 
z
M 1069 5370 
L 1069 4083 
L 269 4083 
L 269 3635 
L 1069 3635 
L 1069 2323 
L 179 2054 
L 301 1594 
L 1069 1843 
L 1069 45 
C 1069 -45 1037 -70 960 -70 
C 883 -77 634 -77 358 -64 
C 416 -198 480 -397 493 -512 
C 902 -518 1146 -499 1299 -422 
C 1459 -352 1517 -218 1517 45 
L 1517 1990 
L 2221 2221 
L 2150 2662 
L 1517 2464 
L 1517 3635 
L 2176 3635 
C 2253 3571 2330 3494 2374 3430 
L 2502 3533 
L 2502 1754 
L 2912 1754 
L 2912 2496 
C 2989 2438 3085 2317 3130 2227 
C 3674 2470 3846 2854 3904 3469 
L 4346 3469 
L 4346 2861 
C 4346 2502 4435 2419 4819 2419 
C 4896 2419 5280 2419 5350 2419 
L 5414 2419 
L 5414 1773 
L 5837 1773 
L 5837 3866 
L 4550 3866 
C 4723 4122 4902 4429 5024 4710 
L 4717 4902 
L 4646 4883 
L 3571 4883 
C 3642 5024 3706 5171 3763 5312 
L 3302 5382 
C 3130 4883 2765 4301 2208 3853 
L 2208 4083 
L 1517 4083 
L 1517 5370 
L 1069 5370 
z
M 2912 2502 
L 2912 3469 
L 3539 3469 
C 3501 2982 3347 2688 2912 2502 
z
M 4717 3469 
L 5414 3469 
L 5414 2797 
C 5408 2758 5382 2752 5293 2752 
C 5216 2752 4922 2752 4864 2752 
C 4730 2752 4717 2765 4717 2861 
L 4717 3469 
z
M 3904 2093 
C 3885 1888 3866 1696 3834 1517 
L 2138 1517 
L 2138 1107 
L 3725 1107 
C 3507 474 3021 70 1920 -160 
C 2010 -250 2118 -416 2163 -525 
C 3302 -262 3840 186 4109 870 
C 4448 166 5018 -282 5894 -493 
C 5952 -371 6074 -192 6176 -96 
C 5325 64 4768 474 4467 1107 
L 6086 1107 
L 6086 1517 
L 4282 1517 
C 4314 1696 4333 1888 4352 2093 
L 3904 2093 
z
" transform="scale(0.015625)"/>
     <path id="NotoSansCJKjp-Regular-5a" d="M 646 -1498 
C 1338 -1498 1702 -973 1946 -294 
L 3251 3475 
L 2682 3475 
L 2054 1549 
C 1965 1235 1862 883 1773 563 
L 1741 563 
C 1619 890 1504 1242 1395 1549 
L 691 3475 
L 83 3475 
L 1478 -6 
L 1402 -269 
C 1254 -698 1011 -1018 621 -1018 
C 525 -1018 422 -986 352 -960 
L 237 -1427 
C 346 -1472 486 -1498 646 -1498 
z
" transform="scale(0.015625)"/>
     <path id="NotoSansCJKjp-Regular-42" d="M 1389 -83 
C 1818 -83 2208 141 2541 416 
L 2560 416 
L 2611 0 
L 3091 0 
L 3091 2138 
C 3091 3002 2739 3565 1888 3565 
C 1325 3565 838 3315 525 3110 
L 749 2707 
C 1024 2893 1389 3078 1792 3078 
C 2362 3078 2509 2650 2509 2202 
C 1030 2035 378 1658 378 902 
C 378 275 806 -83 1389 -83 
z
M 1555 390 
C 1210 390 941 544 941 941 
C 941 1389 1338 1677 2509 1811 
L 2509 845 
C 2170 544 1888 390 1555 390 
z
" transform="scale(0.015625)"/>
     <path id="NotoSansCJKjp-Regular-59" d="M 96 0 
L 710 0 
L 1178 813 
C 1299 1024 1408 1235 1530 1434 
L 1562 1434 
C 1696 1235 1824 1024 1939 813 
L 2451 0 
L 3091 0 
L 1946 1754 
L 3002 3475 
L 2394 3475 
L 1965 2714 
C 1856 2515 1760 2330 1658 2131 
L 1626 2131 
C 1510 2330 1389 2515 1286 2714 
L 819 3475 
L 186 3475 
L 1242 1811 
L 96 0 
z
" transform="scale(0.015625)"/>
     <path id="NotoSansCJKjp-Regular-43" d="M 2118 -83 
C 2912 -83 3629 602 3629 1792 
C 3629 2867 3142 3565 2246 3565 
C 1856 3565 1472 3347 1152 3078 
L 1178 3699 
L 1178 5094 
L 589 5094 
L 589 0 
L 1056 0 
L 1107 358 
L 1133 358 
C 1434 83 1798 -83 2118 -83 
z
M 2022 410 
C 1792 410 1478 499 1178 768 
L 1178 2598 
C 1504 2906 1811 3072 2099 3072 
C 2765 3072 3021 2560 3021 1786 
C 3021 928 2598 410 2022 410 
z
" transform="scale(0.015625)"/>
     <path id="NotoSansCJKjp-Regular-2cc2" d="M 4192 5293 
C 4192 4806 4192 4333 4179 3878 
L 3418 3878 
L 3418 3437 
L 4166 3437 
C 4109 2227 3942 1184 3386 422 
L 3386 448 
L 2099 314 
L 2099 826 
L 3360 826 
L 3360 1197 
L 2099 1197 
L 2099 1587 
L 3347 1587 
L 3347 3501 
L 2099 3501 
L 2099 3904 
L 3469 3904 
L 3469 4282 
L 2099 4282 
L 2099 4755 
C 2566 4806 3008 4864 3354 4941 
L 3117 5312 
C 2451 5158 1286 5043 339 4998 
C 384 4896 435 4742 454 4640 
C 832 4653 1248 4678 1658 4710 
L 1658 4282 
L 269 4282 
L 269 3904 
L 1658 3904 
L 1658 3501 
L 461 3501 
L 461 1587 
L 1658 1587 
L 1658 1197 
L 442 1197 
L 442 826 
L 1658 826 
L 1658 269 
L 269 141 
L 333 -282 
C 1056 -205 2054 -90 3034 26 
C 2950 -51 2854 -128 2758 -198 
C 2874 -275 3040 -435 3110 -544 
C 4256 307 4544 1722 4627 3437 
L 5536 3437 
C 5472 1094 5395 243 5242 51 
C 5184 -32 5120 -45 5018 -45 
C 4896 -45 4608 -45 4294 -19 
C 4371 -147 4422 -346 4435 -480 
C 4736 -493 5037 -499 5222 -474 
C 5414 -454 5542 -403 5651 -230 
C 5869 38 5933 934 6003 3642 
C 6003 3699 6003 3878 6003 3878 
L 4640 3878 
C 4653 4333 4659 4806 4659 5293 
L 4192 5293 
z
M 858 2387 
L 1658 2387 
L 1658 1920 
L 858 1920 
L 858 2387 
z
M 2099 2387 
L 2938 2387 
L 2938 1920 
L 2099 1920 
L 2099 2387 
z
M 858 3168 
L 1658 3168 
L 1658 2707 
L 858 2707 
L 858 3168 
z
M 2099 3168 
L 2938 3168 
L 2938 2707 
L 2099 2707 
L 2099 3168 
z
" transform="scale(0.015625)"/>
     <path id="NotoSansCJKjp-Regular-a995" d="M 1587 5376 
L 1587 4826 
L 275 4826 
L 275 4429 
L 3373 4429 
L 3373 4826 
L 2054 4826 
L 2054 5376 
L 1587 5376 
z
M 5203 5312 
C 5126 4973 4979 4499 4838 4154 
L 4147 4154 
C 4288 4512 4416 4896 4518 5274 
L 4083 5376 
C 3859 4493 3501 3603 3066 3002 
L 3066 4166 
L 2688 4166 
L 2688 2739 
L 934 2739 
L 934 4166 
L 582 4166 
L 582 2387 
L 1587 2387 
L 1530 1958 
L 403 1958 
L 403 -518 
L 806 -518 
L 806 1587 
L 1466 1587 
C 1414 1286 1350 986 1293 742 
L 960 730 
L 998 378 
L 2342 480 
C 2381 371 2406 269 2426 179 
L 2720 282 
C 2675 557 2496 998 2310 1331 
L 2029 1248 
C 2099 1107 2170 954 2234 800 
L 1645 762 
C 1715 1005 1779 1293 1843 1587 
L 2822 1587 
L 2822 -45 
C 2822 -115 2803 -128 2726 -134 
C 2650 -141 2400 -141 2118 -134 
C 2170 -237 2234 -397 2253 -506 
C 2637 -506 2880 -506 3040 -442 
C 3194 -371 3238 -256 3238 -51 
L 3238 1958 
L 1920 1958 
L 2003 2387 
L 3066 2387 
L 3066 2912 
C 3168 2835 3315 2714 3379 2650 
C 3475 2784 3571 2938 3661 3098 
L 3661 -518 
L 4102 -518 
L 4102 -179 
L 6157 -179 
L 6157 262 
L 5261 262 
L 5261 1152 
L 6035 1152 
L 6035 1568 
L 5261 1568 
L 5261 2445 
L 6035 2445 
L 6035 2854 
L 5261 2854 
L 5261 3718 
L 6093 3718 
L 6093 4154 
L 5267 4154 
C 5402 4467 5542 4858 5664 5203 
L 5203 5312 
z
M 2099 4262 
C 2022 4090 1926 3917 1818 3763 
C 1645 3872 1472 3974 1306 4058 
L 1107 3834 
C 1274 3744 1453 3635 1619 3520 
C 1446 3315 1248 3142 1037 2995 
C 1120 2944 1254 2835 1306 2771 
C 1510 2925 1709 3110 1888 3328 
C 2080 3187 2246 3046 2362 2925 
L 2573 3181 
C 2458 3302 2285 3437 2086 3578 
C 2221 3770 2342 3968 2438 4179 
L 2099 4262 
z
M 4102 2445 
L 4845 2445 
L 4845 1568 
L 4102 1568 
L 4102 2445 
z
M 4102 2854 
L 4102 3718 
L 4845 3718 
L 4845 2854 
L 4102 2854 
z
M 4102 1152 
L 4845 1152 
L 4845 262 
L 4102 262 
L 4102 1152 
z
" transform="scale(0.015625)"/>
     <path id="NotoSansCJKjp-Regular-4e06" d="M 2272 5325 
L 2272 4602 
L 1446 4602 
L 1446 5325 
L 1005 5325 
L 1005 4602 
L 358 4602 
L 358 4198 
L 1005 4198 
L 1005 3437 
L 256 3437 
L 256 3021 
L 3386 3021 
L 3386 3437 
L 2720 3437 
L 2720 4198 
L 3373 4198 
L 3373 4602 
L 2720 4602 
L 2720 5325 
L 2272 5325 
z
M 1446 4198 
L 2272 4198 
L 2272 3437 
L 1446 3437 
L 1446 4198 
z
M 1158 1395 
L 2560 1395 
L 2560 941 
L 1158 941 
L 1158 1395 
z
M 1158 1766 
L 1158 2214 
L 2560 2214 
L 2560 1766 
L 1158 1766 
z
M 710 2592 
L 710 -512 
L 1158 -512 
L 1158 570 
L 2560 570 
L 2560 -6 
C 2560 -77 2541 -102 2464 -102 
C 2387 -109 2138 -109 1862 -96 
C 1920 -211 1984 -384 2003 -499 
C 2394 -499 2650 -499 2810 -435 
C 2970 -358 3014 -237 3014 -13 
L 3014 2592 
L 710 2592 
z
M 4154 3738 
L 5242 3738 
C 5133 2938 4966 2246 4704 1670 
C 4448 2266 4262 2950 4141 3686 
L 4154 3738 
z
M 4026 5376 
C 3872 4294 3590 3232 3130 2547 
C 3232 2458 3398 2253 3462 2150 
C 3616 2381 3757 2650 3878 2944 
C 4019 2298 4205 1696 4442 1178 
C 4109 634 3654 211 3040 -109 
C 3130 -211 3277 -416 3322 -525 
C 3898 -198 4346 205 4691 704 
C 4998 192 5376 -230 5856 -518 
C 5933 -384 6086 -198 6195 -109 
C 5683 166 5280 602 4966 1152 
C 5344 1850 5568 2701 5722 3738 
L 6150 3738 
L 6150 4186 
L 4275 4186 
C 4365 4550 4442 4922 4499 5306 
L 4026 5376 
z
" transform="scale(0.015625)"/>
    </defs>
    <use xlink:href="#NotoSansCJKjp-Regular-7a17"/>
    <use xlink:href="#NotoSansCJKjp-Regular-44ea" transform="translate(100 0)"/>
    <use xlink:href="#NotoSansCJKjp-Regular-95ec" transform="translate(200 0)"/>
    <use xlink:href="#NotoSansCJKjp-Regular-4b35" transform="translate(300 0)"/>
    <use xlink:href="#NotoSansCJKjp-Regular-1" transform="translate(400 0)"/>
    <use xlink:href="#NotoSansCJKjp-Regular-5a" transform="translate(422.40625 0)"/>
    <use xlink:href="#NotoSansCJKjp-Regular-1" transform="translate(474.5 0)"/>
    <use xlink:href="#NotoSansCJKjp-Regular-1e" transform="translate(496.90625 0)"/>
    <use xlink:href="#NotoSansCJKjp-Regular-1" transform="translate(552.40625 0)"/>
    <use xlink:href="#NotoSansCJKjp-Regular-42" transform="translate(574.8125 0)"/>
    <use xlink:href="#NotoSansCJKjp-Regular-59" transform="translate(631.109375 0)"/>
    <use xlink:href="#NotoSansCJKjp-Regular-1" transform="translate(680.90625 0)"/>
    <use xlink:href="#NotoSansCJKjp-Regular-c" transform="translate(703.3125 0)"/>
    <use xlink:href="#NotoSansCJKjp-Regular-1" transform="translate(758.8125 0)"/>
    <use xlink:href="#NotoSansCJKjp-Regular-43" transform="translate(781.21875 0)"/>
    <use xlink:href="#NotoSansCJKjp-Regular-e6c0" transform="translate(843.015625 0)"/>
    <use xlink:href="#NotoSansCJKjp-Regular-41d6" transform="translate(943.015625 0)"/>
    <use xlink:href="#NotoSansCJKjp-Regular-71ef" transform="translate(1043.015625 0)"/>
    <use xlink:href="#NotoSansCJKjp-Regular-2518" transform="translate(1143.015625 0)"/>
    <use xlink:href="#NotoSansCJKjp-Regular-2cc2" transform="translate(1243.015625 0)"/>
    <use xlink:href="#NotoSansCJKjp-Regular-a995" transform="translate(1343.015625 0)"/>
    <use xlink:href="#NotoSansCJKjp-Regular-4e06" transform="translate(1443.015625 0)"/>
    <use xlink:href="#NotoSansCJKjp-Regular-575" transform="translate(1543.015625 0)"/>
    <use xlink:href="#NotoSansCJKjp-Regular-26c8" transform="translate(1643.015625 0)"/>
    <use xlink:href="#NotoSansCJKjp-Regular-7aca" transform="translate(1743.015625 0)"/>
    <use xlink:href="#NotoSansCJKjp-Regular-4dd1" transform="translate(1843.015625 0)"/>
    <use xlink:href="#NotoSansCJKjp-Regular-36fb" transform="translate(1943.015625 0)"/>
    <use xlink:href="#NotoSansCJKjp-Regular-a995" transform="translate(2043.015625 0)"/>
    <use xlink:href="#NotoSansCJKjp-Regular-4e06" transform="translate(2143.015625 0)"/>
   </g>
  </g>
 </g>
 <defs>
  <clipPath id="pa60cd65449">
   <rect x="10.53" y="61.8195" width="655.38" height="72.023125"/>
  </clipPath>
  <clipPath id="p6bb324b6c0">
   <rect x="10.53" y="166.94325" width="655.38" height="72.023125"/>
  </clipPath>
  <clipPath id="pb21e009dda">
   <rect x="10.53" y="272.067" width="655.38" height="72.023125"/>
  </clipPath>
 </defs>
</svg>
