<?xml version="1.0" encoding="utf-8" standalone="no"?>
<!DOCTYPE svg PUBLIC "-//W3C//DTD SVG 1.1//EN"
  "http://www.w3.org/Graphics/SVG/1.1/DTD/svg11.dtd">
<svg xmlns:xlink="http://www.w3.org/1999/xlink" width="793.060708pt" height="305.28pt" viewBox="0 0 793.060708 305.28" xmlns="http://www.w3.org/2000/svg" version="1.1">
 <metadata>
  <rdf:RDF xmlns:dc="http://purl.org/dc/elements/1.1/" xmlns:cc="http://creativecommons.org/ns#" xmlns:rdf="http://www.w3.org/1999/02/22-rdf-syntax-ns#">
   <cc:Work>
    <dc:type rdf:resource="http://purl.org/dc/dcmitype/StillImage"/>
    <dc:date>2026-06-20T18:20:29.357577</dc:date>
    <dc:format>image/svg+xml</dc:format>
    <dc:creator>
     <cc:Agent>
      <dc:title>Matplotlib v3.11.0, https://matplotlib.org/</dc:title>
     </cc:Agent>
    </dc:creator>
   </cc:Work>
  </rdf:RDF>
 </metadata>
 <defs>
  <style type="text/css">*{stroke-linejoin: round; stroke-linecap: butt}</style>
 </defs>
 <g id="figure_1">
  <g id="patch_1">
   <path d="M 0 305.28 
L 793.060708 305.28 
L 793.060708 0 
L 0 0 
z
" style="fill: #ffffff"/>
  </g>
  <g id="axes_1">
   <g id="patch_2">
    <path d="M 75.697548 97.278968 
L 114.637935 97.278968 
Q 118.391226 97.278968 118.391226 93.525677 
L 118.391226 66.314323 
Q 118.391226 62.561032 114.637935 62.561032 
L 75.697548 62.561032 
Q 71.944258 62.561032 71.944258 66.314323 
L 71.944258 93.525677 
Q 71.944258 97.278968 75.697548 97.278968 
z
" clip-path="url(#pf0c2fda05e)" style="fill: #ffffff; stroke: #1f6feb; stroke-width: 1.8; stroke-linejoin: miter"/>
   </g>
   <g id="patch_3">
    <path d="M 125.897806 97.278968 
L 164.838194 97.278968 
Q 168.591484 97.278968 168.591484 93.525677 
L 168.591484 66.314323 
Q 168.591484 62.561032 164.838194 62.561032 
L 125.897806 62.561032 
Q 122.144516 62.561032 122.144516 66.314323 
L 122.144516 93.525677 
Q 122.144516 97.278968 125.897806 97.278968 
z
" clip-path="url(#pf0c2fda05e)" style="fill: #ffffff; stroke: #1f6feb; stroke-width: 1.8; stroke-linejoin: miter"/>
   </g>
   <g id="patch_4">
    <path d="M 176.098065 97.278968 
L 215.038452 97.278968 
Q 218.791742 97.278968 218.791742 93.525677 
L 218.791742 66.314323 
Q 218.791742 62.561032 215.038452 62.561032 
L 176.098065 62.561032 
Q 172.344774 62.561032 172.344774 66.314323 
L 172.344774 93.525677 
Q 172.344774 97.278968 176.098065 97.278968 
z
" clip-path="url(#pf0c2fda05e)" style="fill: #ffffff; stroke: #1f6feb; stroke-width: 1.8; stroke-linejoin: miter"/>
   </g>
   <g id="patch_5">
    <path d="M 226.298323 97.278968 
L 265.23871 97.278968 
Q 268.992 97.278968 268.992 93.525677 
L 268.992 66.314323 
Q 268.992 62.561032 265.23871 62.561032 
L 226.298323 62.561032 
Q 222.545032 62.561032 222.545032 66.314323 
L 222.545032 93.525677 
Q 222.545032 97.278968 226.298323 97.278968 
z
" clip-path="url(#pf0c2fda05e)" style="fill: #ffffff; stroke: #1f6feb; stroke-width: 1.8; stroke-linejoin: miter"/>
   </g>
   <g id="patch_6">
    <path d="M 276.498581 97.278968 
L 315.438968 97.278968 
Q 319.192258 97.278968 319.192258 93.525677 
L 319.192258 66.314323 
Q 319.192258 62.561032 315.438968 62.561032 
L 276.498581 62.561032 
Q 272.74529 62.561032 272.74529 66.314323 
L 272.74529 93.525677 
Q 272.74529 97.278968 276.498581 97.278968 
z
" clip-path="url(#pf0c2fda05e)" style="fill: #ffffff; stroke: #1f6feb; stroke-width: 1.8; stroke-linejoin: miter"/>
   </g>
   <g id="patch_7">
    <path d="M 326.698839 97.278968 
L 365.639226 97.278968 
Q 369.392516 97.278968 369.392516 93.525677 
L 369.392516 66.314323 
Q 369.392516 62.561032 365.639226 62.561032 
L 326.698839 62.561032 
Q 322.945548 62.561032 322.945548 66.314323 
L 322.945548 93.525677 
Q 322.945548 97.278968 326.698839 97.278968 
z
" clip-path="url(#pf0c2fda05e)" style="fill: #ffffff; stroke: #1f6feb; stroke-width: 1.8; stroke-linejoin: miter"/>
   </g>
   <g id="patch_8">
    <path d="M 75.697548 172.344774 
L 114.637935 172.344774 
Q 118.391226 172.344774 118.391226 168.591484 
L 118.391226 141.380129 
Q 118.391226 137.626839 114.637935 137.626839 
L 75.697548 137.626839 
Q 71.944258 137.626839 71.944258 141.380129 
L 71.944258 168.591484 
Q 71.944258 172.344774 75.697548 172.344774 
z
" clip-path="url(#pf0c2fda05e)" style="fill: #ffffff; stroke: #d1242f; stroke-width: 1.8; stroke-linejoin: miter"/>
   </g>
   <g id="patch_9">
    <path d="M 125.897806 172.344774 
L 164.838194 172.344774 
Q 168.591484 172.344774 168.591484 168.591484 
L 168.591484 141.380129 
Q 168.591484 137.626839 164.838194 137.626839 
L 125.897806 137.626839 
Q 122.144516 137.626839 122.144516 141.380129 
L 122.144516 168.591484 
Q 122.144516 172.344774 125.897806 172.344774 
z
" clip-path="url(#pf0c2fda05e)" style="fill: #ffffff; stroke: #d1242f; stroke-width: 1.8; stroke-linejoin: miter"/>
   </g>
   <g id="patch_10">
    <path d="M 176.098065 172.344774 
L 215.038452 172.344774 
Q 218.791742 172.344774 218.791742 168.591484 
L 218.791742 141.380129 
Q 218.791742 137.626839 215.038452 137.626839 
L 176.098065 137.626839 
Q 172.344774 137.626839 172.344774 141.380129 
L 172.344774 168.591484 
Q 172.344774 172.344774 176.098065 172.344774 
z
" clip-path="url(#pf0c2fda05e)" style="fill: #ffffff; stroke: #d1242f; stroke-width: 1.8; stroke-linejoin: miter"/>
   </g>
   <g id="patch_11">
    <path d="M 226.298323 172.344774 
L 265.23871 172.344774 
Q 268.992 172.344774 268.992 168.591484 
L 268.992 141.380129 
Q 268.992 137.626839 265.23871 137.626839 
L 226.298323 137.626839 
Q 222.545032 137.626839 222.545032 141.380129 
L 222.545032 168.591484 
Q 222.545032 172.344774 226.298323 172.344774 
z
" clip-path="url(#pf0c2fda05e)" style="fill: #ffffff; stroke: #d1242f; stroke-width: 1.8; stroke-linejoin: miter"/>
   </g>
   <g id="patch_12">
    <path d="M 276.498581 172.344774 
L 315.438968 172.344774 
Q 319.192258 172.344774 319.192258 168.591484 
L 319.192258 141.380129 
Q 319.192258 137.626839 315.438968 137.626839 
L 276.498581 137.626839 
Q 272.74529 137.626839 272.74529 141.380129 
L 272.74529 168.591484 
Q 272.74529 172.344774 276.498581 172.344774 
z
" clip-path="url(#pf0c2fda05e)" style="fill: #ffffff; stroke: #d1242f; stroke-width: 1.8; stroke-linejoin: miter"/>
   </g>
   <g id="patch_13">
    <path d="M 326.698839 172.344774 
L 365.639226 172.344774 
Q 369.392516 172.344774 369.392516 168.591484 
L 369.392516 141.380129 
Q 369.392516 137.626839 365.639226 137.626839 
L 326.698839 137.626839 
Q 322.945548 137.626839 322.945548 141.380129 
L 322.945548 168.591484 
Q 322.945548 172.344774 326.698839 172.344774 
z
" clip-path="url(#pf0c2fda05e)" style="fill: #ffffff; stroke: #d1242f; stroke-width: 1.8; stroke-linejoin: miter"/>
   </g>
   <g id="text_1">
    <!-- 正 -->
    <g style="fill: #1f6feb" transform="translate(34.07871 84.86) scale(0.13 -0.13)">
     <defs>
      <path id="NotoSansCJKjp-Regular-585c" d="M 1203 3264 
L 1203 243 
L 333 243 
L 333 -224 
L 6080 -224 
L 6080 243 
L 3616 243 
L 3616 2259 
L 5619 2259 
L 5619 2726 
L 3616 2726 
L 3616 4435 
L 5869 4435 
L 5869 4909 
L 576 4909 
L 576 4435 
L 3110 4435 
L 3110 243 
L 1696 243 
L 1696 3264 
L 1203 3264 
z
" transform="scale(0.015625)"/>
     </defs>
     <use xlink:href="#NotoSansCJKjp-Regular-585c"/>
    </g>
   </g>
   <g id="text_2">
    <!-- 反 -->
    <g style="fill: #d1242f" transform="translate(34.07871 159.925806) scale(0.13 -0.13)">
     <defs>
      <path id="NotoSansCJKjp-Regular-2e5a" d="M 1088 4973 
L 1088 3226 
C 1088 2202 1030 787 326 -218 
C 442 -269 646 -416 730 -499 
C 1389 448 1549 1830 1568 2886 
L 1990 2886 
C 2285 2048 2694 1357 3245 806 
C 2688 397 2042 102 1363 -70 
C 1459 -179 1581 -384 1645 -512 
C 2362 -294 3034 19 3622 474 
C 4192 19 4890 -314 5728 -525 
C 5792 -390 5933 -186 6048 -77 
C 5242 96 4570 397 4013 806 
C 4659 1408 5158 2208 5440 3238 
L 5107 3379 
L 5011 3354 
L 1574 3354 
L 1574 4499 
L 5792 4499 
L 5792 4973 
L 1088 4973 
z
M 4800 2886 
C 4544 2176 4134 1594 3629 1126 
C 3130 1600 2752 2189 2496 2886 
L 4800 2886 
z
" transform="scale(0.015625)"/>
     </defs>
     <use xlink:href="#NotoSansCJKjp-Regular-2e5a"/>
    </g>
   </g>
   <g id="text_3">
    <!-- 和 -->
    <g style="fill: #1a7f37" transform="translate(34.07871 197.45871) scale(0.13 -0.13)">
     <defs>
      <path id="NotoSansCJKjp-Regular-2f70" d="M 3398 4781 
L 3398 -224 
L 3866 -224 
L 3866 301 
L 5293 301 
L 5293 -179 
L 5779 -179 
L 5779 4781 
L 3398 4781 
z
M 3866 762 
L 3866 4320 
L 5293 4320 
L 5293 762 
L 3866 762 
z
M 2810 5318 
C 2246 5088 1235 4896 384 4781 
C 435 4672 499 4506 518 4397 
C 858 4435 1222 4486 1581 4550 
L 1581 3482 
L 320 3482 
L 320 3034 
L 1459 3034 
C 1165 2227 653 1350 166 858 
C 250 736 371 550 429 410 
C 845 851 1267 1587 1581 2342 
L 1581 -499 
L 2054 -499 
L 2054 2323 
C 2330 1958 2688 1472 2835 1229 
L 3130 1626 
C 2976 1824 2291 2630 2054 2874 
L 2054 3034 
L 3174 3034 
L 3174 3482 
L 2054 3482 
L 2054 4646 
C 2458 4730 2829 4826 3130 4941 
L 2810 5318 
z
" transform="scale(0.015625)"/>
     </defs>
     <use xlink:href="#NotoSansCJKjp-Regular-2f70"/>
    </g>
   </g>
   <g id="text_4">
    <!-- 每行都是 1+6 = 7，共 6 行 -->
    <g style="fill: #222831" transform="translate(151.966512 228.611613) scale(0.12 -0.12)">
     <defs>
      <path id="NotoSansCJKjp-Regular-5936" d="M 2502 2931 
C 2906 2746 3386 2445 3635 2208 
L 1722 2208 
L 1856 3219 
L 4800 3219 
L 4762 2208 
L 3674 2208 
L 3942 2490 
C 3693 2726 3187 3021 2778 3200 
L 2502 2931 
z
M 275 2221 
L 275 1786 
L 1190 1786 
C 1094 1158 992 550 902 109 
L 1389 77 
L 1434 320 
L 4608 320 
C 4570 128 4525 13 4480 -45 
C 4422 -122 4365 -141 4250 -141 
C 4122 -141 3827 -134 3507 -109 
C 3571 -218 3616 -384 3622 -493 
C 3936 -512 4262 -518 4448 -506 
C 4646 -486 4781 -435 4902 -269 
C 4979 -173 5037 6 5088 320 
L 5914 320 
L 5914 749 
L 5139 749 
C 5171 1024 5190 1363 5216 1786 
L 6138 1786 
L 6138 2221 
L 5235 2221 
L 5280 3411 
C 5280 3475 5286 3648 5286 3648 
L 1427 3648 
C 1382 3219 1318 2720 1254 2221 
L 275 2221 
z
M 4666 749 
L 3603 749 
L 3834 998 
C 3571 1254 3059 1581 2618 1792 
L 4742 1792 
C 4717 1357 4698 1018 4666 749 
z
M 2336 1523 
C 2746 1318 3226 1005 3494 749 
L 1504 749 
L 1664 1792 
L 2598 1792 
L 2336 1523 
z
M 1734 5414 
C 1402 4602 845 3776 262 3264 
C 384 3194 608 3046 710 2963 
C 1030 3290 1363 3718 1658 4192 
L 5901 4192 
L 5901 4634 
L 1920 4634 
C 2029 4845 2138 5056 2234 5274 
L 1734 5414 
z
" transform="scale(0.015625)"/>
      <path id="NotoSansCJKjp-Regular-8f66" d="M 2784 4992 
L 2784 4531 
L 5933 4531 
L 5933 4992 
L 2784 4992 
z
M 1709 5382 
C 1382 4915 762 4346 224 3981 
C 307 3891 442 3706 506 3597 
C 1082 4006 1741 4634 2170 5190 
L 1709 5382 
z
M 2502 3226 
L 2502 2765 
L 4659 2765 
L 4659 109 
C 4659 6 4614 -26 4493 -32 
C 4378 -38 3942 -38 3488 -19 
C 3558 -160 3629 -358 3648 -493 
C 4275 -493 4640 -493 4858 -422 
C 5069 -339 5146 -192 5146 102 
L 5146 2765 
L 6112 2765 
L 6112 3226 
L 2502 3226 
z
M 1965 4006 
C 1523 3277 819 2534 160 2061 
C 256 1965 429 1754 499 1658 
C 736 1850 986 2080 1229 2330 
L 1229 -531 
L 1702 -531 
L 1702 2854 
C 1971 3174 2214 3507 2419 3840 
L 1965 4006 
z
" transform="scale(0.015625)"/>
      <path id="NotoSansCJKjp-Regular-9f49" d="M 3251 5158 
C 3123 4851 2976 4563 2810 4288 
L 2810 4634 
L 2003 4634 
L 2003 5325 
L 1555 5325 
L 1555 4634 
L 570 4634 
L 570 4205 
L 1555 4205 
L 1555 3437 
L 275 3437 
L 275 3008 
L 1811 3008 
C 1318 2522 755 2118 134 1811 
C 224 1722 378 1523 435 1421 
C 614 1517 787 1619 954 1734 
L 954 -480 
L 1389 -480 
L 1389 -102 
L 2835 -102 
L 2835 -390 
L 3296 -390 
L 3296 2387 
L 1798 2387 
C 2016 2579 2221 2790 2413 3008 
L 3584 3008 
L 3584 3437 
L 2758 3437 
C 3123 3917 3430 4448 3686 5024 
L 3251 5158 
z
M 2003 4205 
L 2758 4205 
C 2592 3936 2406 3680 2202 3437 
L 2003 3437 
L 2003 4205 
z
M 1389 301 
L 1389 979 
L 2835 979 
L 2835 301 
L 1389 301 
z
M 1389 1363 
L 1389 1990 
L 2835 1990 
L 2835 1363 
L 1389 1363 
z
M 3859 5011 
L 3859 -512 
L 4333 -512 
L 4333 4557 
L 5530 4557 
C 5318 4045 5030 3354 4742 2810 
C 5414 2253 5619 1766 5619 1357 
C 5626 1126 5574 941 5427 851 
C 5344 806 5242 781 5126 781 
C 4986 768 4794 774 4582 794 
C 4666 659 4717 454 4723 320 
C 4928 307 5152 307 5325 326 
C 5491 346 5638 397 5760 474 
C 5990 621 6086 922 6086 1318 
C 6086 1773 5914 2278 5235 2874 
C 5549 3469 5901 4205 6163 4813 
L 5818 5030 
L 5741 5011 
L 3859 5011 
z
" transform="scale(0.015625)"/>
      <path id="NotoSansCJKjp-Regular-4f6d" d="M 1510 3885 
L 4845 3885 
L 4845 3360 
L 1510 3360 
L 1510 3885 
z
M 1510 4749 
L 4845 4749 
L 4845 4230 
L 1510 4230 
L 1510 4749 
z
M 1050 5114 
L 1050 2995 
L 5331 2995 
L 5331 5114 
L 1050 5114 
z
M 1478 1914 
C 1312 979 902 256 224 -186 
C 333 -256 518 -435 589 -518 
C 1011 -218 1344 192 1587 698 
C 2112 -186 2938 -384 4230 -384 
L 5984 -384 
C 6010 -250 6086 -38 6163 77 
C 5830 70 4493 64 4250 70 
C 3981 70 3725 77 3494 102 
L 3494 986 
L 5619 986 
L 5619 1408 
L 3494 1408 
L 3494 2125 
L 6035 2125 
L 6035 2554 
L 378 2554 
L 378 2125 
L 3014 2125 
L 3014 186 
C 2458 326 2048 627 1798 1216 
C 1862 1414 1914 1626 1958 1850 
L 1478 1914 
z
" transform="scale(0.015625)"/>
      <path id="NotoSansCJKjp-Regular-1" transform="scale(0.015625)"/>
      <path id="NotoSansCJKjp-Regular-12" d="M 563 0 
L 3136 0 
L 3136 486 
L 2195 486 
L 2195 4691 
L 1747 4691 
C 1491 4544 1190 4435 774 4358 
L 774 3987 
L 1613 3987 
L 1613 486 
L 563 486 
L 563 0 
z
" transform="scale(0.015625)"/>
      <path id="NotoSansCJKjp-Regular-c" d="M 1542 742 
L 2010 742 
L 2010 2144 
L 3315 2144 
L 3315 2579 
L 2010 2579 
L 2010 3981 
L 1542 3981 
L 1542 2579 
L 243 2579 
L 243 2144 
L 1542 2144 
L 1542 742 
z
" transform="scale(0.015625)"/>
      <path id="NotoSansCJKjp-Regular-17" d="M 1926 -83 
C 2656 -83 3277 531 3277 1440 
C 3277 2426 2765 2912 1971 2912 
C 1606 2912 1197 2701 909 2349 
C 934 3802 1466 4294 2118 4294 
C 2400 4294 2682 4154 2861 3936 
L 3194 4294 
C 2931 4576 2579 4774 2093 4774 
C 1184 4774 358 4077 358 2240 
C 358 691 1030 -83 1926 -83 
z
M 922 1882 
C 1229 2317 1587 2477 1875 2477 
C 2445 2477 2720 2074 2720 1440 
C 2720 800 2374 378 1926 378 
C 1338 378 986 909 922 1882 
z
" transform="scale(0.015625)"/>
      <path id="NotoSansCJKjp-Regular-1e" d="M 243 2912 
L 3315 2912 
L 3315 3347 
L 243 3347 
L 243 2912 
z
M 243 1376 
L 3315 1376 
L 3315 1811 
L 243 1811 
L 243 1376 
z
" transform="scale(0.015625)"/>
      <path id="NotoSansCJKjp-Regular-18" d="M 1267 0 
L 1875 0 
C 1952 1837 2150 2931 3251 4339 
L 3251 4691 
L 314 4691 
L 314 4192 
L 2592 4192 
C 1670 2912 1350 1779 1267 0 
z
" transform="scale(0.015625)"/>
      <path id="NotoSansCJKjp-Regular-e6b2" d="M 1005 -685 
C 1677 -448 2112 77 2112 768 
C 2112 1216 1920 1504 1568 1504 
C 1306 1504 1082 1344 1082 1043 
C 1082 742 1299 589 1562 589 
L 1670 602 
C 1638 160 1357 -141 864 -346 
L 1005 -685 
z
" transform="scale(0.015625)"/>
      <path id="NotoSansCJKjp-Regular-2aa6" d="M 3757 960 
C 4365 512 5146 -128 5530 -512 
L 5984 -218 
C 5568 173 4768 781 4179 1210 
L 3757 960 
z
M 2106 1197 
C 1747 717 1024 160 397 -179 
C 506 -262 678 -416 774 -518 
C 1421 -147 2144 448 2605 1005 
L 2106 1197 
z
M 570 4019 
L 570 3558 
L 1792 3558 
L 1792 2035 
L 307 2035 
L 307 1568 
L 6118 1568 
L 6118 2035 
L 4608 2035 
L 4608 3558 
L 5888 3558 
L 5888 4019 
L 4608 4019 
L 4608 5318 
L 4115 5318 
L 4115 4019 
L 2285 4019 
L 2285 5318 
L 1792 5318 
L 1792 4019 
L 570 4019 
z
M 2285 2035 
L 2285 3558 
L 4115 3558 
L 4115 2035 
L 2285 2035 
z
" transform="scale(0.015625)"/>
     </defs>
     <use xlink:href="#NotoSansCJKjp-Regular-5936"/>
     <use xlink:href="#NotoSansCJKjp-Regular-8f66" transform="translate(100 0)"/>
     <use xlink:href="#NotoSansCJKjp-Regular-9f49" transform="translate(200 0)"/>
     <use xlink:href="#NotoSansCJKjp-Regular-4f6d" transform="translate(300 0)"/>
     <use xlink:href="#NotoSansCJKjp-Regular-1" transform="translate(400 0)"/>
     <use xlink:href="#NotoSansCJKjp-Regular-12" transform="translate(422.40625 0)"/>
     <use xlink:href="#NotoSansCJKjp-Regular-c" transform="translate(477.90625 0)"/>
     <use xlink:href="#NotoSansCJKjp-Regular-17" transform="translate(533.40625 0)"/>
     <use xlink:href="#NotoSansCJKjp-Regular-1" transform="translate(588.90625 0)"/>
     <use xlink:href="#NotoSansCJKjp-Regular-1e" transform="translate(611.3125 0)"/>
     <use xlink:href="#NotoSansCJKjp-Regular-1" transform="translate(666.8125 0)"/>
     <use xlink:href="#NotoSansCJKjp-Regular-18" transform="translate(689.21875 0)"/>
     <use xlink:href="#NotoSansCJKjp-Regular-e6b2" transform="translate(744.71875 0)"/>
     <use xlink:href="#NotoSansCJKjp-Regular-2aa6" transform="translate(844.71875 0)"/>
     <use xlink:href="#NotoSansCJKjp-Regular-1" transform="translate(944.71875 0)"/>
     <use xlink:href="#NotoSansCJKjp-Regular-17" transform="translate(967.125 0)"/>
     <use xlink:href="#NotoSansCJKjp-Regular-1" transform="translate(1022.625 0)"/>
     <use xlink:href="#NotoSansCJKjp-Regular-8f66" transform="translate(1045.03125 0)"/>
    </g>
    <!-- → 2S = 6×7，故 S = 21 -->
    <g style="fill: #222831" transform="translate(158.140887 240.611613) scale(0.12 -0.12)">
     <defs>
      <path id="NotoSansCJKjp-Regular-31c" d="M 5190 2650 
L 256 2650 
L 256 2214 
L 5190 2214 
C 4864 1965 4442 1562 4154 1165 
L 4538 941 
C 4966 1504 5606 2067 6176 2432 
C 5606 2797 4966 3360 4538 3923 
L 4154 3699 
C 4442 3302 4864 2899 5190 2650 
z
" transform="scale(0.015625)"/>
      <path id="NotoSansCJKjp-Regular-f6b3" d="M 282 0 
L 3232 0 
L 3232 506 
L 1907 506 
C 1670 506 1382 480 1139 461 
C 2221 1594 3008 2451 3008 3309 
C 3008 4115 2477 4646 1638 4646 
C 1043 4646 634 4378 256 3955 
L 595 3629 
C 858 3930 1184 4173 1568 4173 
C 2150 4173 2432 3802 2432 3283 
C 2432 2534 1658 1715 282 346 
L 282 0 
z
" transform="scale(0.015625)"/>
      <path id="NotoSansCJKjp-Regular-34" d="M 1946 -83 
C 2925 -83 3539 506 3539 1248 
C 3539 1946 3117 2266 2573 2502 
L 1907 2790 
C 1542 2944 1126 3117 1126 3578 
C 1126 3994 1472 4256 2003 4256 
C 2438 4256 2784 4090 3072 3821 
L 3379 4198 
C 3053 4538 2560 4774 2003 4774 
C 1152 4774 525 4256 525 3533 
C 525 2848 1043 2515 1478 2330 
L 2150 2035 
C 2598 1837 2938 1683 2938 1197 
C 2938 742 2573 435 1952 435 
C 1466 435 992 666 659 1018 
L 307 608 
C 710 186 1280 -83 1946 -83 
z
" transform="scale(0.015625)"/>
      <path id="NotoSansCJKjp-Regular-f6b7" d="M 1920 -83 
C 2650 -83 3264 506 3264 1376 
C 3264 2310 2752 2784 1958 2784 
C 1594 2784 1184 2566 896 2202 
C 922 3661 1459 4160 2106 4160 
C 2394 4160 2675 4026 2854 3802 
L 3181 4166 
C 2925 4442 2573 4646 2080 4646 
C 1171 4646 346 3942 346 2112 
C 346 646 1018 -83 1920 -83 
z
M 909 1741 
C 1222 2189 1574 2349 1869 2349 
C 2432 2349 2720 1971 2720 1376 
C 2720 774 2368 378 1914 378 
C 1338 378 986 851 909 1741 
z
" transform="scale(0.015625)"/>
      <path id="NotoSansCJKjp-Regular-95" d="M 4954 346 
L 5261 653 
L 3514 2406 
L 5261 4160 
L 4954 4467 
L 3200 2714 
L 1453 4467 
L 1139 4154 
L 2893 2406 
L 1139 653 
L 1453 346 
L 3200 2099 
L 4954 346 
z
" transform="scale(0.015625)"/>
      <path id="NotoSansCJKjp-Regular-f6b8" d="M 1267 0 
L 1875 0 
C 1952 1779 2176 2822 3251 4205 
L 3251 4563 
L 314 4563 
L 314 4058 
L 2592 4058 
C 1690 2810 1350 1722 1267 0 
z
" transform="scale(0.015625)"/>
      <path id="NotoSansCJKjp-Regular-4dda" d="M 3834 3738 
L 5184 3738 
C 5050 2880 4838 2170 4506 1587 
C 4192 2202 3968 2925 3821 3706 
L 3834 3738 
z
M 544 2502 
L 544 -230 
L 992 -230 
L 992 211 
L 2829 211 
L 2829 2490 
C 2925 2419 3027 2336 3078 2291 
C 3238 2502 3392 2746 3526 3014 
C 3693 2317 3917 1683 4211 1139 
C 3802 608 3258 205 2522 -90 
C 2605 -192 2752 -403 2797 -518 
C 3501 -198 4051 198 4474 717 
C 4838 192 5293 -230 5856 -512 
C 5933 -384 6080 -198 6195 -109 
C 5606 154 5139 582 4774 1126 
C 5216 1818 5491 2669 5670 3738 
L 6150 3738 
L 6150 4192 
L 3987 4192 
C 4096 4544 4192 4915 4269 5299 
L 3789 5376 
C 3584 4288 3219 3251 2669 2598 
L 2810 2502 
L 1926 2502 
L 1926 3680 
L 3078 3680 
L 3078 4128 
L 1926 4128 
L 1926 5376 
L 1446 5376 
L 1446 4128 
L 269 4128 
L 269 3680 
L 1446 3680 
L 1446 2502 
L 544 2502 
z
M 992 2054 
L 2368 2054 
L 2368 659 
L 992 659 
L 992 2054 
z
" transform="scale(0.015625)"/>
      <path id="NotoSansCJKjp-Regular-f6b2" d="M 563 0 
L 3136 0 
L 3136 486 
L 2195 486 
L 2195 4563 
L 1747 4563 
C 1491 4410 1190 4301 774 4224 
L 774 3853 
L 1613 3853 
L 1613 486 
L 563 486 
L 563 0 
z
" transform="scale(0.015625)"/>
     </defs>
     <use xlink:href="#NotoSansCJKjp-Regular-31c"/>
     <use xlink:href="#NotoSansCJKjp-Regular-1" transform="translate(100 0)"/>
     <use xlink:href="#NotoSansCJKjp-Regular-f6b3" transform="translate(122.40625 0)"/>
     <use xlink:href="#NotoSansCJKjp-Regular-34" transform="translate(177.90625 0)"/>
     <use xlink:href="#NotoSansCJKjp-Regular-1" transform="translate(237.5 0)"/>
     <use xlink:href="#NotoSansCJKjp-Regular-1e" transform="translate(259.90625 0)"/>
     <use xlink:href="#NotoSansCJKjp-Regular-1" transform="translate(315.40625 0)"/>
     <use xlink:href="#NotoSansCJKjp-Regular-f6b7" transform="translate(337.8125 0)"/>
     <use xlink:href="#NotoSansCJKjp-Regular-95" transform="translate(393.3125 0)"/>
     <use xlink:href="#NotoSansCJKjp-Regular-f6b8" transform="translate(493.3125 0)"/>
     <use xlink:href="#NotoSansCJKjp-Regular-e6b2" transform="translate(548.8125 0)"/>
     <use xlink:href="#NotoSansCJKjp-Regular-4dda" transform="translate(648.8125 0)"/>
     <use xlink:href="#NotoSansCJKjp-Regular-1" transform="translate(748.8125 0)"/>
     <use xlink:href="#NotoSansCJKjp-Regular-34" transform="translate(771.21875 0)"/>
     <use xlink:href="#NotoSansCJKjp-Regular-1" transform="translate(830.8125 0)"/>
     <use xlink:href="#NotoSansCJKjp-Regular-1e" transform="translate(853.21875 0)"/>
     <use xlink:href="#NotoSansCJKjp-Regular-1" transform="translate(908.71875 0)"/>
     <use xlink:href="#NotoSansCJKjp-Regular-f6b3" transform="translate(931.125 0)"/>
     <use xlink:href="#NotoSansCJKjp-Regular-f6b2" transform="translate(986.625 0)"/>
    </g>
   </g>
   <g id="text_5">
    <!-- 等差：高斯配對 -->
    <g style="fill: #222831" transform="translate(176.918387 33.849677) scale(0.125 -0.125)">
     <defs>
      <path id="NotoSansCJKjp-Regular-74a1" d="M 3699 5408 
C 3514 4864 3168 4352 2771 4019 
L 2944 3910 
L 2944 3469 
L 941 3469 
L 941 3066 
L 2944 3066 
L 2944 2490 
L 307 2490 
L 307 2067 
L 4256 2067 
L 4256 1504 
L 512 1504 
L 512 1082 
L 4256 1082 
L 4256 64 
C 4256 -26 4224 -51 4109 -58 
C 3994 -64 3616 -64 3181 -51 
C 3251 -179 3334 -371 3360 -506 
C 3885 -506 4243 -499 4461 -435 
C 4678 -358 4742 -224 4742 58 
L 4742 1082 
L 5946 1082 
L 5946 1504 
L 4742 1504 
L 4742 2067 
L 6118 2067 
L 6118 2490 
L 3437 2490 
L 3437 3066 
L 5510 3066 
L 5510 3469 
L 3437 3469 
L 3437 3910 
L 3334 3910 
C 3475 4064 3610 4237 3731 4429 
L 4166 4429 
C 4358 4179 4544 3878 4621 3667 
L 5037 3846 
C 4966 4013 4832 4224 4685 4429 
L 6048 4429 
L 6048 4838 
L 3962 4838 
C 4038 4986 4102 5139 4160 5299 
L 3699 5408 
z
M 1427 806 
C 1843 531 2304 122 2515 -179 
L 2886 122 
C 2669 422 2195 819 1779 1082 
L 1427 806 
z
M 1190 5408 
C 973 4838 614 4282 211 3904 
C 326 3846 525 3712 614 3635 
C 826 3846 1030 4122 1222 4429 
L 1478 4429 
C 1600 4179 1715 3891 1754 3699 
L 2182 3859 
C 2144 4006 2054 4224 1958 4429 
L 3123 4429 
L 3123 4838 
L 1446 4838 
C 1517 4986 1587 5133 1645 5286 
L 1190 5408 
z
" transform="scale(0.015625)"/>
      <path id="NotoSansCJKjp-Regular-4110" d="M 4422 5389 
C 4320 5133 4115 4768 3949 4538 
L 4019 4512 
L 2349 4512 
L 2451 4557 
C 2362 4787 2144 5114 1933 5357 
L 1523 5190 
C 1683 4992 1850 4723 1952 4512 
L 646 4512 
L 646 4090 
L 2944 4090 
L 2944 3526 
L 960 3526 
L 960 3117 
L 2944 3117 
L 2944 2541 
L 358 2541 
L 358 2106 
L 1658 2106 
C 1421 1114 954 314 250 -179 
C 365 -256 563 -429 653 -518 
C 1382 64 1901 960 2182 2106 
L 6042 2106 
L 6042 2541 
L 3437 2541 
L 3437 3117 
L 5478 3117 
L 5478 3526 
L 3437 3526 
L 3437 4090 
L 5798 4090 
L 5798 4512 
L 4442 4512 
C 4595 4717 4774 4986 4928 5235 
L 4422 5389 
z
M 2163 1619 
L 2163 1197 
L 3462 1197 
L 3462 70 
L 1549 70 
L 1549 -352 
L 5914 -352 
L 5914 70 
L 3949 70 
L 3949 1197 
L 5485 1197 
L 5485 1619 
L 2163 1619 
z
" transform="scale(0.015625)"/>
      <path id="NotoSansCJKjp-Regular-e6c0" d="M 3200 3482 
C 3456 3482 3686 3667 3686 3962 
C 3686 4256 3456 4442 3200 4442 
C 2944 4442 2714 4256 2714 3962 
C 2714 3667 2944 3482 3200 3482 
z
M 3200 346 
C 3456 346 3686 538 3686 826 
C 3686 1120 3456 1312 3200 1312 
C 2944 1312 2714 1120 2714 826 
C 2714 538 2944 346 3200 346 
z
" transform="scale(0.015625)"/>
      <path id="NotoSansCJKjp-Regular-b0d5" d="M 1939 3635 
L 4448 3635 
L 4448 3021 
L 1939 3021 
L 1939 3635 
z
M 1478 3987 
L 1478 2662 
L 4928 2662 
L 4928 3987 
L 1478 3987 
z
M 2918 5382 
L 2918 4768 
L 416 4768 
L 416 4346 
L 5978 4346 
L 5978 4768 
L 3411 4768 
L 3411 5382 
L 2918 5382 
z
M 704 2266 
L 704 -512 
L 1171 -512 
L 1171 1856 
L 5261 1856 
L 5261 70 
C 5261 -19 5235 -45 5120 -51 
C 5018 -58 4653 -58 4237 -45 
C 4301 -179 4371 -365 4390 -499 
C 4922 -499 5267 -499 5478 -422 
C 5683 -346 5741 -205 5741 64 
L 5741 2266 
L 704 2266 
z
M 2406 1088 
L 3994 1088 
L 3994 435 
L 2406 435 
L 2406 1088 
z
M 1984 1440 
L 1984 -243 
L 2406 -243 
L 2406 83 
L 4422 83 
L 4422 1440 
L 1984 1440 
z
" transform="scale(0.015625)"/>
      <path id="NotoSansCJKjp-Regular-4e8a" d="M 1146 915 
C 960 506 627 96 282 -179 
C 397 -243 582 -390 672 -467 
C 1018 -160 1382 320 1606 787 
L 1146 915 
z
M 2157 723 
C 2406 442 2701 51 2835 -198 
L 3027 -83 
L 2950 -186 
C 3059 -243 3219 -403 3283 -499 
C 4000 390 4096 1658 4096 2566 
L 4096 2797 
L 5069 2797 
L 5069 -512 
L 5523 -512 
L 5523 2797 
L 6144 2797 
L 6144 3238 
L 4096 3238 
L 4096 4275 
C 4781 4448 5536 4678 6067 4941 
L 5658 5286 
C 5267 5062 4614 4838 3994 4666 
L 3648 4774 
L 3648 2579 
C 3648 1818 3597 883 3162 128 
C 3008 371 2746 691 2522 928 
L 2157 723 
z
M 2522 5306 
L 2522 4525 
L 1306 4525 
L 1306 5306 
L 864 5306 
L 864 4525 
L 339 4525 
L 339 4096 
L 864 4096 
L 864 1478 
L 243 1478 
L 243 1050 
L 3430 1050 
L 3430 1478 
L 2963 1478 
L 2963 4096 
L 3386 4096 
L 3386 4525 
L 2963 4525 
L 2963 5306 
L 2522 5306 
z
M 1306 4096 
L 2522 4096 
L 2522 3507 
L 1306 3507 
L 1306 4096 
z
M 1306 3123 
L 2522 3123 
L 2522 2522 
L 1306 2522 
L 1306 3123 
z
M 1306 2131 
L 2522 2131 
L 2522 1478 
L 1306 1478 
L 1306 2131 
z
" transform="scale(0.015625)"/>
      <path id="NotoSansCJKjp-Regular-9fe5" d="M 3546 5088 
L 3546 4627 
L 5491 4627 
L 5491 3072 
L 3565 3072 
L 3565 294 
C 3565 -294 3744 -448 4339 -448 
C 4461 -448 5280 -448 5414 -448 
C 5997 -448 6138 -154 6195 890 
C 6061 922 5862 1011 5747 1094 
C 5715 173 5670 6 5382 6 
C 5203 6 4525 6 4390 6 
C 4096 6 4038 51 4038 294 
L 4038 2611 
L 5491 2611 
L 5491 2176 
L 5952 2176 
L 5952 5088 
L 3546 5088 
z
M 915 1011 
L 2688 1011 
L 2688 346 
L 915 346 
L 915 1011 
z
M 915 1370 
L 915 3539 
L 1350 3539 
L 1350 3034 
C 1350 2688 1286 2272 915 1946 
C 979 1907 1082 1811 1126 1754 
C 1530 2125 1619 2637 1619 3027 
L 1619 3539 
L 1978 3539 
L 1978 2330 
C 1978 2022 2054 1965 2310 1965 
C 2355 1965 2573 1965 2624 1965 
L 2688 1965 
L 2688 1370 
L 915 1370 
z
M 365 5126 
L 365 4698 
L 1286 4698 
L 1286 3955 
L 525 3955 
L 525 -486 
L 915 -486 
L 915 -45 
L 2688 -45 
L 2688 -397 
L 3085 -397 
L 3085 3955 
L 2362 3955 
L 2362 4698 
L 3232 4698 
L 3232 5126 
L 365 5126 
z
M 1632 3955 
L 1632 4698 
L 2010 4698 
L 2010 3955 
L 1632 3955 
z
M 2253 3539 
L 2688 3539 
L 2688 2246 
L 2669 2259 
C 2656 2246 2643 2240 2573 2240 
C 2528 2240 2368 2240 2336 2240 
C 2259 2240 2253 2253 2253 2336 
L 2253 3539 
z
" transform="scale(0.015625)"/>
      <path id="NotoSansCJKjp-Regular-3d73" d="M 3693 2554 
C 3955 2086 4192 1472 4256 1082 
L 4691 1242 
C 4627 1632 4371 2234 4102 2694 
L 3693 2554 
z
M 339 5037 
C 531 4730 717 4320 781 4058 
L 1152 4230 
C 1088 4493 890 4890 685 5190 
L 339 5037 
z
M 3168 5222 
C 3053 4922 2829 4467 2662 4192 
L 2989 4045 
C 3174 4307 3398 4710 3590 5056 
L 3168 5222 
z
M 294 224 
L 358 -230 
C 1184 -122 2387 45 3514 205 
L 3501 627 
L 2138 448 
L 2138 1152 
L 3194 1152 
L 3194 1555 
L 2138 1555 
L 2138 2208 
L 3328 2208 
L 3328 2618 
L 2643 2618 
C 2778 2842 2925 3181 3066 3482 
L 2637 3603 
L 3494 3603 
L 3494 3206 
L 5005 3206 
L 5005 83 
C 5005 -32 4960 -64 4845 -70 
C 4749 -70 4397 -77 4006 -64 
C 4077 -192 4154 -397 4179 -518 
C 4704 -518 5011 -506 5203 -429 
C 5389 -352 5466 -218 5466 83 
L 5466 3206 
L 6150 3206 
L 6150 3654 
L 5466 3654 
L 5466 5338 
L 5005 5338 
L 5005 3654 
L 3558 3654 
L 3558 4013 
L 2554 4013 
L 2554 5344 
L 2157 5344 
L 2157 4013 
L 1670 4013 
L 1670 5344 
L 1274 5344 
L 1274 4013 
L 269 4013 
L 269 3603 
L 2618 3603 
C 2547 3334 2381 2957 2259 2714 
L 2592 2618 
L 1184 2618 
L 1542 2746 
C 1498 2976 1350 3328 1184 3597 
L 800 3469 
C 954 3200 1088 2848 1126 2618 
L 506 2618 
L 506 2208 
L 1690 2208 
L 1690 1555 
L 672 1555 
L 672 1152 
L 1690 1152 
L 1690 390 
L 294 224 
z
" transform="scale(0.015625)"/>
     </defs>
     <use xlink:href="#NotoSansCJKjp-Regular-74a1"/>
     <use xlink:href="#NotoSansCJKjp-Regular-4110" transform="translate(100 0)"/>
     <use xlink:href="#NotoSansCJKjp-Regular-e6c0" transform="translate(200 0)"/>
     <use xlink:href="#NotoSansCJKjp-Regular-b0d5" transform="translate(300 0)"/>
     <use xlink:href="#NotoSansCJKjp-Regular-4e8a" transform="translate(400 0)"/>
     <use xlink:href="#NotoSansCJKjp-Regular-9fe5" transform="translate(500 0)"/>
     <use xlink:href="#NotoSansCJKjp-Regular-3d73" transform="translate(600 0)"/>
    </g>
    <!-- （正著寫一遍、反著再寫一遍） -->
    <g style="fill: #222831" transform="translate(133.168387 46.349677) scale(0.125 -0.125)">
     <defs>
      <path id="NotoSansCJKjp-Regular-e6ae" d="M 4448 2432 
C 4448 1184 4954 166 5722 -614 
L 6106 -416 
C 5370 346 4915 1293 4915 2432 
C 4915 3571 5370 4518 6106 5280 
L 5722 5478 
C 4954 4698 4448 3680 4448 2432 
z
" transform="scale(0.015625)"/>
      <path id="NotoSansCJKjp-Regular-8737" d="M 5299 4115 
C 5088 3872 4845 3642 4582 3424 
L 4582 3750 
L 3021 3750 
L 3021 4224 
L 2547 4224 
L 2547 3750 
L 909 3750 
L 909 3341 
L 2547 3341 
L 2547 2765 
L 371 2765 
L 371 2336 
L 2880 2336 
C 2048 1926 1139 1600 211 1363 
C 301 1261 429 1050 474 947 
C 858 1062 1248 1184 1626 1331 
L 1626 -512 
L 2099 -512 
L 2099 -314 
L 4960 -314 
L 4960 -506 
L 5434 -506 
L 5434 1830 
L 2816 1830 
C 3142 1984 3462 2157 3763 2336 
L 6042 2336 
L 6042 2765 
L 4429 2765 
C 4902 3098 5331 3475 5696 3885 
L 5299 4115 
z
M 3021 2765 
L 3021 3341 
L 4480 3341 
C 4224 3136 3949 2944 3654 2765 
L 3021 2765 
z
M 2099 614 
L 4960 614 
L 4960 70 
L 2099 70 
L 2099 614 
z
M 2099 947 
L 2099 1453 
L 4960 1453 
L 4960 947 
L 2099 947 
z
M 384 4902 
L 384 4474 
L 1843 4474 
L 1843 4000 
L 2310 4000 
L 2310 4474 
L 4051 4474 
L 4051 4000 
L 4518 4000 
L 4518 4474 
L 6010 4474 
L 6010 4902 
L 4518 4902 
L 4518 5376 
L 4051 5376 
L 4051 4902 
L 2310 4902 
L 2310 5376 
L 1843 5376 
L 1843 4902 
L 384 4902 
z
" transform="scale(0.015625)"/>
      <path id="NotoSansCJKjp-Regular-3d34" d="M 2112 813 
C 2240 454 2336 -19 2330 -314 
L 2726 -256 
C 2726 38 2624 499 2490 858 
L 2112 813 
z
M 3014 845 
C 3206 538 3373 128 3430 -147 
L 3795 -32 
C 3744 237 3558 640 3360 947 
L 3014 845 
z
M 3898 883 
C 4122 672 4352 371 4448 160 
L 4781 333 
C 4685 544 4448 832 4224 1037 
L 3898 883 
z
M 480 4858 
L 480 3725 
L 922 3725 
L 922 4435 
L 5466 4435 
L 5466 3725 
L 5926 3725 
L 5926 4858 
L 3430 4858 
L 3430 5376 
L 2950 5376 
L 2950 4858 
L 480 4858 
z
M 3482 3130 
L 3482 2778 
L 4723 2778 
L 4723 2342 
L 1696 2342 
L 1696 2778 
L 2925 2778 
L 2925 3130 
L 1696 3130 
L 1696 3533 
C 2150 3622 2662 3763 3040 3917 
L 2739 4230 
C 2451 4096 1984 3949 1562 3846 
L 1267 3910 
L 1267 1990 
L 2003 1990 
C 1600 1485 934 1075 282 819 
C 371 730 512 531 570 435 
C 826 550 1082 691 1325 851 
C 1229 448 1050 32 749 -218 
L 1107 -435 
C 1453 -147 1632 352 1734 806 
L 1408 909 
C 1536 992 1658 1082 1773 1178 
L 5248 1178 
C 5190 378 5126 58 5030 -38 
C 4979 -96 4922 -102 4813 -96 
C 4704 -96 4410 -96 4102 -64 
C 4179 -179 4224 -358 4237 -486 
C 4557 -506 4864 -512 5024 -493 
C 5197 -480 5318 -448 5427 -333 
C 5587 -160 5658 275 5728 1382 
C 5734 1446 5741 1574 5741 1574 
L 2202 1574 
C 2323 1709 2432 1843 2528 1990 
L 5171 1990 
L 5171 3910 
L 3392 3910 
L 3392 3558 
L 4723 3558 
L 4723 3130 
L 3482 3130 
z
" transform="scale(0.015625)"/>
      <path id="NotoSansCJKjp-Regular-2509" d="M 282 2758 
L 282 2234 
L 6144 2234 
L 6144 2758 
L 282 2758 
z
" transform="scale(0.015625)"/>
      <path id="NotoSansCJKjp-Regular-9de4" d="M 320 4986 
C 691 4672 1107 4205 1280 3885 
L 1683 4160 
C 1498 4480 1075 4928 691 5229 
L 320 4986 
z
M 1882 5133 
L 1882 4730 
L 6054 4730 
L 6054 5133 
L 1882 5133 
z
M 1530 2848 
L 288 2848 
L 288 2400 
L 1075 2400 
L 1075 730 
C 794 467 480 192 218 0 
L 467 -461 
C 774 -173 1062 102 1338 384 
C 1734 -128 2323 -352 3174 -384 
C 3898 -410 5299 -397 6029 -371 
C 6048 -230 6118 -19 6176 90 
C 5395 38 3885 19 3162 45 
C 2406 77 1837 294 1530 774 
L 1530 2848 
z
M 2291 4358 
L 2291 3418 
C 2291 2662 2214 1619 1638 845 
C 1741 794 1926 653 1997 563 
C 2368 1056 2554 1670 2650 2266 
L 2650 320 
L 3059 320 
L 3059 1402 
L 3603 1402 
L 3603 397 
L 3949 397 
L 3949 1402 
L 4512 1402 
L 4512 397 
L 4858 397 
L 4858 1402 
L 5427 1402 
L 5427 768 
C 5427 717 5414 704 5363 704 
C 5318 698 5184 698 5024 704 
C 5075 602 5133 448 5139 339 
C 5395 339 5568 339 5696 403 
C 5818 474 5850 570 5850 762 
L 5850 2694 
L 2701 2694 
L 2726 3098 
L 5690 3098 
L 5690 4358 
L 2291 4358 
z
M 3603 1760 
L 3059 1760 
L 3059 2330 
L 3603 2330 
L 3603 1760 
z
M 3949 1760 
L 3949 2330 
L 4512 2330 
L 4512 1760 
L 3949 1760 
z
M 4858 1760 
L 4858 2330 
L 5427 2330 
L 5427 1760 
L 4858 1760 
z
M 2733 4013 
L 5242 4013 
L 5242 3456 
L 2733 3456 
L 2733 4013 
z
" transform="scale(0.015625)"/>
      <path id="NotoSansCJKjp-Regular-575" d="M 1747 -358 
L 2182 13 
C 1786 480 1210 1062 749 1434 
L 333 1069 
C 787 698 1338 147 1747 -358 
z
" transform="scale(0.015625)"/>
      <path id="NotoSansCJKjp-Regular-2acb" d="M 1011 3910 
L 1011 1485 
L 256 1485 
L 256 1037 
L 1011 1037 
L 1011 -525 
L 1485 -525 
L 1485 1037 
L 4909 1037 
L 4909 83 
C 4909 -26 4870 -58 4749 -64 
C 4640 -70 4224 -77 3802 -58 
C 3878 -186 3949 -390 3981 -518 
C 4531 -518 4890 -512 5101 -435 
C 5312 -358 5382 -218 5382 77 
L 5382 1037 
L 6157 1037 
L 6157 1485 
L 5382 1485 
L 5382 3910 
L 3418 3910 
L 3418 4538 
L 5920 4538 
L 5920 4986 
L 493 4986 
L 493 4538 
L 2931 4538 
L 2931 3910 
L 1011 3910 
z
M 4909 1485 
L 3418 1485 
L 3418 2278 
L 4909 2278 
L 4909 1485 
z
M 1485 1485 
L 1485 2278 
L 2931 2278 
L 2931 1485 
L 1485 1485 
z
M 4909 2701 
L 3418 2701 
L 3418 3469 
L 4909 3469 
L 4909 2701 
z
M 1485 2701 
L 1485 3469 
L 2931 3469 
L 2931 2701 
L 1485 2701 
z
" transform="scale(0.015625)"/>
      <path id="NotoSansCJKjp-Regular-e6af" d="M 1952 2432 
C 1952 3680 1446 4698 678 5478 
L 294 5280 
C 1030 4518 1485 3571 1485 2432 
C 1485 1293 1030 346 294 -416 
L 678 -614 
C 1446 166 1952 1184 1952 2432 
z
" transform="scale(0.015625)"/>
     </defs>
     <use xlink:href="#NotoSansCJKjp-Regular-e6ae"/>
     <use xlink:href="#NotoSansCJKjp-Regular-585c" transform="translate(100 0)"/>
     <use xlink:href="#NotoSansCJKjp-Regular-8737" transform="translate(200 0)"/>
     <use xlink:href="#NotoSansCJKjp-Regular-3d34" transform="translate(300 0)"/>
     <use xlink:href="#NotoSansCJKjp-Regular-2509" transform="translate(400 0)"/>
     <use xlink:href="#NotoSansCJKjp-Regular-9de4" transform="translate(500 0)"/>
     <use xlink:href="#NotoSansCJKjp-Regular-575" transform="translate(600 0)"/>
     <use xlink:href="#NotoSansCJKjp-Regular-2e5a" transform="translate(700 0)"/>
     <use xlink:href="#NotoSansCJKjp-Regular-8737" transform="translate(800 0)"/>
     <use xlink:href="#NotoSansCJKjp-Regular-2acb" transform="translate(900 0)"/>
     <use xlink:href="#NotoSansCJKjp-Regular-3d34" transform="translate(1000 0)"/>
     <use xlink:href="#NotoSansCJKjp-Regular-2509" transform="translate(1100 0)"/>
     <use xlink:href="#NotoSansCJKjp-Regular-9de4" transform="translate(1200 0)"/>
     <use xlink:href="#NotoSansCJKjp-Regular-e6af" transform="translate(1300 0)"/>
    </g>
   </g>
   <g id="text_6">
    <!-- 1 -->
    <g style="fill: #1f6feb" transform="translate(91.282742 85.24) scale(0.14 -0.14)">
     <use xlink:href="#NotoSansCJKjp-Regular-12"/>
    </g>
   </g>
   <g id="text_7">
    <!-- 2 -->
    <g style="fill: #1f6feb" transform="translate(141.483 85.24) scale(0.14 -0.14)">
     <defs>
      <path id="NotoSansCJKjp-Regular-13" d="M 282 0 
L 3232 0 
L 3232 506 
L 1933 506 
C 1696 506 1408 480 1165 461 
C 2266 1504 3008 2458 3008 3398 
C 3008 4230 2477 4774 1638 4774 
C 1043 4774 634 4506 256 4090 
L 595 3757 
C 858 4070 1184 4301 1568 4301 
C 2150 4301 2432 3910 2432 3373 
C 2432 2566 1754 1632 282 346 
L 282 0 
z
" transform="scale(0.015625)"/>
     </defs>
     <use xlink:href="#NotoSansCJKjp-Regular-13"/>
    </g>
   </g>
   <g id="text_8">
    <!-- 3 -->
    <g style="fill: #1f6feb" transform="translate(191.683258 85.24) scale(0.14 -0.14)">
     <defs>
      <path id="NotoSansCJKjp-Regular-14" d="M 1683 -83 
C 2522 -83 3194 416 3194 1254 
C 3194 1901 2752 2310 2202 2445 
L 2202 2477 
C 2701 2650 3034 3034 3034 3603 
C 3034 4346 2458 4774 1664 4774 
C 1126 4774 710 4538 358 4218 
L 672 3846 
C 941 4115 1267 4301 1645 4301 
C 2138 4301 2438 4006 2438 3558 
C 2438 3053 2112 2662 1139 2662 
L 1139 2214 
C 2227 2214 2598 1843 2598 1274 
C 2598 736 2208 403 1645 403 
C 1114 403 762 659 486 941 
L 186 563 
C 493 224 954 -83 1683 -83 
z
" transform="scale(0.015625)"/>
     </defs>
     <use xlink:href="#NotoSansCJKjp-Regular-14"/>
    </g>
   </g>
   <g id="text_9">
    <!-- 4 -->
    <g style="fill: #1f6feb" transform="translate(241.883516 85.24) scale(0.14 -0.14)">
     <defs>
      <path id="NotoSansCJKjp-Regular-15" d="M 2176 0 
L 2726 0 
L 2726 1293 
L 3354 1293 
L 3354 1760 
L 2726 1760 
L 2726 4691 
L 2080 4691 
L 128 1677 
L 128 1293 
L 2176 1293 
L 2176 0 
z
M 2176 1760 
L 736 1760 
L 1805 3360 
C 1939 3590 2067 3827 2182 4051 
L 2208 4051 
C 2195 3814 2176 3430 2176 3200 
L 2176 1760 
z
" transform="scale(0.015625)"/>
     </defs>
     <use xlink:href="#NotoSansCJKjp-Regular-15"/>
    </g>
   </g>
   <g id="text_10">
    <!-- 5 -->
    <g style="fill: #1f6feb" transform="translate(292.083774 85.24) scale(0.14 -0.14)">
     <defs>
      <path id="NotoSansCJKjp-Regular-16" d="M 1677 -83 
C 2464 -83 3213 499 3213 1523 
C 3213 2560 2573 3021 1798 3021 
C 1517 3021 1306 2950 1094 2835 
L 1216 4192 
L 2982 4192 
L 2982 4691 
L 704 4691 
L 550 2502 
L 864 2304 
C 1133 2483 1331 2579 1645 2579 
C 2234 2579 2618 2182 2618 1510 
C 2618 826 2176 403 1619 403 
C 1075 403 730 653 467 922 
L 173 538 
C 493 224 941 -83 1677 -83 
z
" transform="scale(0.015625)"/>
     </defs>
     <use xlink:href="#NotoSansCJKjp-Regular-16"/>
    </g>
   </g>
   <g id="text_11">
    <!-- 6 -->
    <g style="fill: #1f6feb" transform="translate(342.284032 85.24) scale(0.14 -0.14)">
     <use xlink:href="#NotoSansCJKjp-Regular-17"/>
    </g>
   </g>
   <g id="text_12">
    <!-- 6 -->
    <g style="fill: #d1242f" transform="translate(91.282742 160.305806) scale(0.14 -0.14)">
     <use xlink:href="#NotoSansCJKjp-Regular-17"/>
    </g>
   </g>
   <g id="text_13">
    <!-- 5 -->
    <g style="fill: #d1242f" transform="translate(141.483 160.305806) scale(0.14 -0.14)">
     <use xlink:href="#NotoSansCJKjp-Regular-16"/>
    </g>
   </g>
   <g id="text_14">
    <!-- 4 -->
    <g style="fill: #d1242f" transform="translate(191.683258 160.305806) scale(0.14 -0.14)">
     <use xlink:href="#NotoSansCJKjp-Regular-15"/>
    </g>
   </g>
   <g id="text_15">
    <!-- 3 -->
    <g style="fill: #d1242f" transform="translate(241.883516 160.305806) scale(0.14 -0.14)">
     <use xlink:href="#NotoSansCJKjp-Regular-14"/>
    </g>
   </g>
   <g id="text_16">
    <!-- 2 -->
    <g style="fill: #d1242f" transform="translate(292.083774 160.305806) scale(0.14 -0.14)">
     <use xlink:href="#NotoSansCJKjp-Regular-13"/>
    </g>
   </g>
   <g id="text_17">
    <!-- 1 -->
    <g style="fill: #d1242f" transform="translate(342.284032 160.305806) scale(0.14 -0.14)">
     <use xlink:href="#NotoSansCJKjp-Regular-12"/>
    </g>
   </g>
   <g id="text_18">
    <!-- 7 -->
    <g style="fill: #1a7f37" transform="translate(91.282742 197.83871) scale(0.14 -0.14)">
     <use xlink:href="#NotoSansCJKjp-Regular-18"/>
    </g>
   </g>
   <g id="text_19">
    <!-- 7 -->
    <g style="fill: #1a7f37" transform="translate(141.483 197.83871) scale(0.14 -0.14)">
     <use xlink:href="#NotoSansCJKjp-Regular-18"/>
    </g>
   </g>
   <g id="text_20">
    <!-- 7 -->
    <g style="fill: #1a7f37" transform="translate(191.683258 197.83871) scale(0.14 -0.14)">
     <use xlink:href="#NotoSansCJKjp-Regular-18"/>
    </g>
   </g>
   <g id="text_21">
    <!-- 7 -->
    <g style="fill: #1a7f37" transform="translate(241.883516 197.83871) scale(0.14 -0.14)">
     <use xlink:href="#NotoSansCJKjp-Regular-18"/>
    </g>
   </g>
   <g id="text_22">
    <!-- 7 -->
    <g style="fill: #1a7f37" transform="translate(292.083774 197.83871) scale(0.14 -0.14)">
     <use xlink:href="#NotoSansCJKjp-Regular-18"/>
    </g>
   </g>
   <g id="text_23">
    <!-- 7 -->
    <g style="fill: #1a7f37" transform="translate(342.284032 197.83871) scale(0.14 -0.14)">
     <use xlink:href="#NotoSansCJKjp-Regular-18"/>
    </g>
   </g>
  </g>
  <g id="axes_2">
   <g id="patch_14">
    <path d="M 511.021885 102.163765 
L 550.804002 102.163765 
Q 554.22612 102.163765 554.22612 98.741647 
L 554.22612 73.931294 
Q 554.22612 70.509176 550.804002 70.509176 
L 511.021885 70.509176 
Q 507.599767 70.509176 507.599767 73.931294 
L 507.599767 98.741647 
Q 507.599767 102.163765 511.021885 102.163765 
z
" clip-path="url(#p558bef7070)" style="fill: #ffffff; stroke: #1f6feb; stroke-width: 1.8; stroke-linejoin: miter"/>
   </g>
   <g id="patch_15">
    <path d="M 561.925885 102.163765 
L 601.708002 102.163765 
Q 605.13012 102.163765 605.13012 98.741647 
L 605.13012 73.931294 
Q 605.13012 70.509176 601.708002 70.509176 
L 561.925885 70.509176 
Q 558.503767 70.509176 558.503767 73.931294 
L 558.503767 98.741647 
Q 558.503767 102.163765 561.925885 102.163765 
z
" clip-path="url(#p558bef7070)" style="fill: #ffffff; stroke: #1f6feb; stroke-width: 1.8; stroke-linejoin: miter"/>
   </g>
   <g id="patch_16">
    <path d="M 612.829885 102.163765 
L 652.612002 102.163765 
Q 656.03412 102.163765 656.03412 98.741647 
L 656.03412 73.931294 
Q 656.03412 70.509176 652.612002 70.509176 
L 612.829885 70.509176 
Q 609.407767 70.509176 609.407767 73.931294 
L 609.407767 98.741647 
Q 609.407767 102.163765 612.829885 102.163765 
z
" clip-path="url(#p558bef7070)" style="fill: #ffffff; stroke: #1f6feb; stroke-width: 1.8; stroke-linejoin: miter"/>
   </g>
   <g id="patch_17">
    <path d="M 663.733885 102.163765 
L 703.516002 102.163765 
Q 706.93812 102.163765 706.93812 98.741647 
L 706.93812 73.931294 
Q 706.93812 70.509176 703.516002 70.509176 
L 663.733885 70.509176 
Q 660.311767 70.509176 660.311767 73.931294 
L 660.311767 98.741647 
Q 660.311767 102.163765 663.733885 102.163765 
z
" clip-path="url(#p558bef7070)" style="fill: #ffffff; stroke: #1f6feb; stroke-width: 1.8; stroke-linejoin: miter"/>
   </g>
   <g id="patch_18">
    <path d="M 561.925885 166.328471 
L 601.708002 166.328471 
Q 605.13012 166.328471 605.13012 162.906353 
L 605.13012 138.096 
Q 605.13012 134.673882 601.708002 134.673882 
L 561.925885 134.673882 
Q 558.503767 134.673882 558.503767 138.096 
L 558.503767 162.906353 
Q 558.503767 166.328471 561.925885 166.328471 
z
" clip-path="url(#p558bef7070)" style="fill: #ffffff; stroke: #1a7f37; stroke-width: 1.8; stroke-linejoin: miter"/>
   </g>
   <g id="patch_19">
    <path d="M 612.829885 166.328471 
L 652.612002 166.328471 
Q 656.03412 166.328471 656.03412 162.906353 
L 656.03412 138.096 
Q 656.03412 134.673882 652.612002 134.673882 
L 612.829885 134.673882 
Q 609.407767 134.673882 609.407767 138.096 
L 609.407767 162.906353 
Q 609.407767 166.328471 612.829885 166.328471 
z
" clip-path="url(#p558bef7070)" style="fill: #ffffff; stroke: #1a7f37; stroke-width: 1.8; stroke-linejoin: miter"/>
   </g>
   <g id="patch_20">
    <path d="M 663.733885 166.328471 
L 703.516002 166.328471 
Q 706.93812 166.328471 706.93812 162.906353 
L 706.93812 138.096 
Q 706.93812 134.673882 703.516002 134.673882 
L 663.733885 134.673882 
Q 660.311767 134.673882 660.311767 138.096 
L 660.311767 162.906353 
Q 660.311767 166.328471 663.733885 166.328471 
z
" clip-path="url(#p558bef7070)" style="fill: #ffffff; stroke: #1a7f37; stroke-width: 1.8; stroke-linejoin: miter"/>
   </g>
   <g id="patch_21">
    <path d="M 714.637885 166.328471 
L 754.420002 166.328471 
Q 757.84212 166.328471 757.84212 162.906353 
L 757.84212 138.096 
Q 757.84212 134.673882 754.420002 134.673882 
L 714.637885 134.673882 
Q 711.215767 134.673882 711.215767 138.096 
L 711.215767 162.906353 
Q 711.215767 166.328471 714.637885 166.328471 
z
" clip-path="url(#p558bef7070)" style="fill: #ffffff; stroke: #1a7f37; stroke-width: 1.8; stroke-linejoin: miter"/>
   </g>
   <g id="text_24">
    <!-- $S$ -->
    <g style="fill: #1f6feb" transform="translate(476.248238 91.656471) scale(0.14 -0.14)">
     <defs>
      <path id="Cmmi10-43" d="M 391 -141 
Q 372 -141 356 -119 
Q 341 -97 341 -78 
L 709 1416 
Q 722 1453 763 1453 
L 838 1453 
Q 863 1453 877 1434 
Q 891 1416 891 1388 
Q 838 1169 838 997 
Q 838 534 1156 309 
Q 1475 84 1959 84 
Q 2169 84 2372 187 
Q 2575 291 2726 456 
Q 2878 622 2968 826 
Q 3059 1031 3059 1241 
Q 3059 1466 2940 1642 
Q 2822 1819 2613 1869 
L 1831 2075 
Q 1516 2159 1328 2414 
Q 1141 2669 1141 2988 
Q 1141 3372 1369 3728 
Q 1597 4084 1964 4298 
Q 2331 4513 2713 4513 
Q 3006 4513 3251 4405 
Q 3497 4297 3628 4063 
L 3994 4494 
Q 4031 4513 4038 4513 
L 4078 4513 
Q 4103 4513 4118 4491 
Q 4134 4469 4134 4447 
L 3763 2963 
Q 3753 2919 3713 2919 
L 3634 2919 
Q 3578 2919 3578 2988 
Q 3609 3191 3609 3341 
Q 3609 3638 3507 3858 
Q 3406 4078 3201 4192 
Q 2997 4306 2694 4306 
Q 2438 4306 2184 4159 
Q 1931 4013 1775 3769 
Q 1619 3525 1619 3263 
Q 1619 3056 1739 2897 
Q 1859 2738 2059 2681 
L 2841 2478 
Q 3053 2422 3211 2280 
Q 3369 2138 3450 1942 
Q 3531 1747 3531 1516 
Q 3531 1213 3403 917 
Q 3275 622 3045 378 
Q 2816 134 2525 -3 
Q 2234 -141 1931 -141 
Q 1169 -141 838 306 
L 481 -122 
Q 444 -141 434 -141 
L 391 -141 
z
" transform="scale(0.015625)"/>
     </defs>
     <use xlink:href="#Cmmi10-43" transform="translate(0 0.484375)"/>
    </g>
   </g>
   <g id="text_25">
    <!-- $rS$ -->
    <g style="fill: #1a7f37" transform="translate(469.948238 155.821176) scale(0.14 -0.14)">
     <defs>
      <path id="Cmmi10-84" d="M 494 109 
Q 494 147 500 166 
L 978 2075 
Q 1025 2253 1025 2388 
Q 1025 2663 838 2663 
Q 638 2663 541 2423 
Q 444 2184 353 1819 
Q 353 1800 334 1789 
Q 316 1778 300 1778 
L 225 1778 
Q 203 1778 187 1801 
Q 172 1825 172 1844 
Q 241 2122 305 2315 
Q 369 2509 505 2668 
Q 641 2828 844 2828 
Q 1066 2828 1233 2700 
Q 1400 2572 1441 2363 
Q 1603 2575 1811 2701 
Q 2019 2828 2266 2828 
Q 2469 2828 2623 2709 
Q 2778 2591 2778 2388 
Q 2778 2225 2676 2104 
Q 2575 1984 2406 1984 
Q 2303 1984 2233 2048 
Q 2163 2113 2163 2216 
Q 2163 2356 2266 2467 
Q 2369 2578 2503 2578 
Q 2400 2663 2253 2663 
Q 1978 2663 1775 2467 
Q 1572 2272 1409 1972 
L 953 141 
Q 931 53 854 -9 
Q 778 -72 684 -72 
Q 606 -72 550 -22 
Q 494 28 494 109 
z
" transform="scale(0.015625)"/>
     </defs>
     <use xlink:href="#Cmmi10-84" transform="translate(0 0.484375)"/>
     <use xlink:href="#Cmmi10-43" transform="translate(45.117188 0.484375)"/>
    </g>
   </g>
   <g id="text_26">
    <!-- 中段上下對齊、相減全部抵消 -->
    <g style="fill: #bf8700" transform="translate(557.970943 60.762941) scale(0.115 -0.115)">
     <defs>
      <path id="NotoSansCJKjp-Regular-2548" d="M 2931 5376 
L 2931 4230 
L 614 4230 
L 614 1190 
L 1094 1190 
L 1094 1587 
L 2931 1587 
L 2931 -506 
L 3437 -506 
L 3437 1587 
L 5280 1587 
L 5280 1222 
L 5773 1222 
L 5773 4230 
L 3437 4230 
L 3437 5376 
L 2931 5376 
z
M 1094 2061 
L 1094 3763 
L 2931 3763 
L 2931 2061 
L 1094 2061 
z
M 5280 2061 
L 3437 2061 
L 3437 3763 
L 5280 3763 
L 5280 2061 
z
" transform="scale(0.015625)"/>
      <path id="NotoSansCJKjp-Regular-58ff" d="M 5254 2099 
C 5062 1638 4781 1248 4435 922 
C 4115 1254 3866 1651 3699 2099 
L 5254 2099 
z
M 3002 2534 
L 3002 2099 
L 3597 2099 
L 3264 2003 
C 3462 1472 3738 1011 4083 627 
C 3622 288 3078 45 2509 -102 
C 2598 -205 2720 -397 2771 -525 
C 3373 -346 3936 -83 4422 294 
C 4832 -64 5318 -333 5882 -506 
C 5952 -378 6086 -186 6195 -83 
C 5651 58 5178 294 4787 608 
C 5267 1069 5638 1670 5862 2432 
L 5555 2554 
L 5466 2534 
L 3002 2534 
z
M 2528 5370 
C 2176 5171 1568 4960 998 4806 
L 742 4890 
L 742 979 
L 218 902 
L 301 429 
L 742 506 
L 742 -506 
L 1203 -506 
L 1203 589 
L 2918 902 
L 2899 1344 
L 1203 1056 
L 1203 2035 
L 2733 2035 
L 2733 2483 
L 1203 2483 
L 1203 3264 
L 2675 3264 
L 2675 3712 
L 1203 3712 
L 1203 4448 
C 1805 4595 2458 4794 2938 5030 
L 2528 5370 
z
M 3366 5107 
L 3366 4198 
C 3366 3776 3290 3309 2707 2950 
C 2803 2893 2976 2720 3040 2624 
C 3693 3034 3814 3661 3814 4186 
L 3814 4685 
L 4826 4685 
L 4826 3558 
C 4826 3194 4858 3091 4954 3008 
C 5043 2931 5184 2899 5312 2899 
C 5382 2899 5555 2899 5638 2899 
C 5741 2899 5869 2918 5939 2957 
C 6035 3002 6099 3066 6131 3174 
C 6170 3277 6189 3565 6202 3814 
C 6074 3853 5920 3930 5830 4006 
C 5824 3744 5818 3546 5805 3456 
C 5786 3379 5766 3328 5734 3309 
C 5709 3296 5651 3290 5600 3290 
C 5542 3290 5459 3290 5414 3290 
C 5370 3290 5331 3296 5312 3309 
C 5280 3334 5280 3405 5280 3526 
L 5280 5107 
L 3366 5107 
z
" transform="scale(0.015625)"/>
      <path id="NotoSansCJKjp-Regular-2515" d="M 2733 5280 
L 2733 275 
L 326 275 
L 326 -205 
L 6080 -205 
L 6080 275 
L 3238 275 
L 3238 2822 
L 5638 2822 
L 5638 3302 
L 3238 3302 
L 3238 5280 
L 2733 5280 
z
" transform="scale(0.015625)"/>
      <path id="NotoSansCJKjp-Regular-2516" d="M 352 4902 
L 352 4422 
L 2822 4422 
L 2822 -506 
L 3328 -506 
L 3328 2886 
C 4064 2490 4922 1958 5370 1600 
L 5709 2035 
C 5197 2426 4179 3002 3418 3373 
L 3328 3270 
L 3328 4422 
L 6054 4422 
L 6054 4902 
L 352 4902 
z
" transform="scale(0.015625)"/>
      <path id="NotoSansCJKjp-Regular-b8b5" d="M 2349 4224 
C 2522 4019 2707 3738 2797 3552 
L 3123 3718 
C 3040 3898 2842 4166 2669 4358 
L 2349 4224 
z
M 3699 4390 
C 3603 4192 3430 3885 3302 3693 
L 3616 3571 
C 3757 3750 3923 4000 4077 4262 
L 3699 4390 
z
M 2944 3597 
L 2944 2304 
L 3379 2304 
L 3379 3597 
L 2944 3597 
z
M 5472 4243 
C 5203 4109 4730 3974 4294 3878 
L 4045 3942 
L 4045 2733 
L 3725 2701 
L 3776 2323 
C 4205 2374 4704 2445 5222 2515 
L 5216 2854 
L 4448 2778 
L 4448 3584 
L 4909 3680 
C 5088 3034 5414 2496 5920 2221 
C 5978 2323 6099 2470 6189 2541 
C 5722 2765 5408 3219 5242 3770 
C 5440 3827 5632 3891 5792 3962 
L 5472 4243 
z
M 4742 1459 
L 4742 928 
L 1702 928 
C 1728 1107 1741 1286 1741 1459 
L 4742 1459 
z
M 1261 2234 
L 1261 1517 
C 1261 954 1171 288 397 -205 
C 506 -288 659 -461 723 -576 
C 1229 -256 1485 141 1619 550 
L 4742 550 
L 4742 -531 
L 5222 -531 
L 5222 2234 
L 4742 2234 
L 4742 1837 
L 1741 1837 
L 1741 2234 
L 1261 2234 
z
M 474 4013 
L 474 3654 
L 1043 3654 
C 954 3142 742 2726 237 2477 
C 326 2419 442 2285 493 2189 
C 1101 2496 1344 3008 1446 3654 
L 2029 3654 
C 1990 3046 1952 2810 1894 2746 
C 1856 2701 1811 2694 1734 2694 
C 1664 2694 1485 2694 1286 2714 
C 1344 2618 1382 2458 1389 2349 
C 1594 2336 1798 2336 1907 2349 
C 2048 2355 2131 2394 2208 2483 
C 2330 2618 2374 2963 2426 3840 
C 2432 3898 2432 4013 2432 4013 
L 474 4013 
z
M 2944 5389 
L 2944 4813 
L 390 4813 
L 390 4429 
L 6010 4429 
L 6010 4813 
L 3424 4813 
L 3424 5389 
L 2944 5389 
z
" transform="scale(0.015625)"/>
      <path id="NotoSansCJKjp-Regular-6ce8" d="M 3494 3034 
L 5440 3034 
L 5440 1920 
L 3494 1920 
L 3494 3034 
z
M 3494 3469 
L 3494 4544 
L 5440 4544 
L 5440 3469 
L 3494 3469 
z
M 3494 1478 
L 5440 1478 
L 5440 365 
L 3494 365 
L 3494 1478 
z
M 3027 4998 
L 3027 -467 
L 3494 -467 
L 3494 -77 
L 5440 -77 
L 5440 -448 
L 5926 -448 
L 5926 4998 
L 3027 4998 
z
M 1370 5376 
L 1370 4006 
L 333 4006 
L 333 3546 
L 1312 3546 
C 1088 2662 634 1651 186 1120 
C 262 1005 384 813 435 685 
C 781 1126 1120 1837 1370 2573 
L 1370 -506 
L 1837 -506 
L 1837 2419 
C 2080 2106 2368 1709 2490 1498 
L 2784 1888 
C 2643 2061 2061 2746 1837 2970 
L 1837 3546 
L 2752 3546 
L 2752 4006 
L 1837 4006 
L 1837 5376 
L 1370 5376 
z
" transform="scale(0.015625)"/>
      <path id="NotoSansCJKjp-Regular-5cce" d="M 4915 5101 
C 5235 4896 5594 4595 5766 4384 
L 6042 4659 
C 5869 4877 5498 5165 5184 5350 
L 4915 5101 
z
M 2669 3411 
L 2669 3040 
L 4205 3040 
L 4205 3411 
L 2669 3411 
z
M 544 4973 
C 922 4787 1370 4499 1594 4288 
L 1882 4678 
C 1651 4890 1190 5152 819 5318 
L 544 4973 
z
M 243 3238 
C 621 3078 1075 2803 1299 2598 
L 1581 2995 
C 1344 3194 883 3443 506 3590 
L 243 3238 
z
M 339 -141 
L 768 -390 
C 1056 218 1382 1050 1626 1747 
L 1242 2003 
C 979 1248 602 378 339 -141 
z
M 2707 2534 
L 2707 416 
L 3053 416 
L 3053 800 
L 4173 800 
L 4173 2534 
L 2707 2534 
z
M 3053 2163 
L 3821 2163 
L 3821 1178 
L 3053 1178 
L 3053 2163 
z
M 4282 5312 
L 4320 4352 
L 1971 4352 
L 1971 2630 
C 1971 1754 1907 576 1338 -275 
C 1434 -320 1626 -448 1702 -525 
C 2304 371 2400 1690 2400 2630 
L 2400 3917 
L 4339 3917 
C 4403 2835 4499 1875 4646 1133 
C 4294 608 3853 179 3309 -147 
C 3405 -224 3571 -384 3635 -467 
C 4077 -173 4454 179 4781 595 
C 4979 -96 5261 -499 5638 -512 
C 5875 -518 6112 -237 6240 806 
C 6157 838 5965 954 5888 1043 
C 5837 410 5760 45 5638 51 
C 5434 64 5254 448 5114 1082 
C 5491 1696 5766 2419 5965 3270 
L 5536 3354 
C 5408 2752 5229 2208 4992 1728 
C 4896 2349 4826 3098 4781 3917 
L 6067 3917 
L 6067 4352 
L 4755 4352 
L 4730 5312 
L 4282 5312 
z
" transform="scale(0.015625)"/>
      <path id="NotoSansCJKjp-Regular-2a92" d="M 3174 4909 
C 3750 4102 4877 3155 5862 2579 
C 5952 2720 6067 2880 6182 3002 
C 5184 3501 4064 4442 3392 5389 
L 2906 5389 
C 2413 4550 1344 3533 237 2925 
C 346 2829 480 2656 544 2547 
C 1619 3174 2656 4128 3174 4909 
z
M 486 102 
L 486 -333 
L 5946 -333 
L 5946 102 
L 3430 102 
L 3430 1158 
L 5376 1158 
L 5376 1587 
L 3430 1587 
L 3430 2586 
L 5133 2586 
L 5133 3014 
L 1299 3014 
L 1299 2586 
L 2931 2586 
L 2931 1587 
L 1011 1587 
L 1011 1158 
L 2931 1158 
L 2931 102 
L 486 102 
z
" transform="scale(0.015625)"/>
      <path id="NotoSansCJKjp-Regular-9f27" d="M 269 2893 
L 269 2458 
L 3578 2458 
L 3578 2893 
L 269 2893 
z
M 832 4019 
C 960 3686 1075 3258 1101 2970 
L 1530 3078 
C 1491 3354 1376 3782 1229 4102 
L 832 4019 
z
M 2662 4147 
C 2586 3827 2432 3354 2304 3059 
L 2694 2950 
C 2829 3232 2982 3661 3123 4038 
L 2662 4147 
z
M 3840 4998 
L 3840 -512 
L 4307 -512 
L 4307 4544 
L 5523 4544 
C 5318 4032 5043 3334 4768 2797 
C 5421 2234 5606 1747 5613 1350 
C 5613 1114 5562 928 5427 838 
C 5350 794 5254 774 5146 768 
C 5024 762 4838 762 4646 781 
C 4730 640 4774 442 4781 307 
C 4973 294 5178 294 5344 314 
C 5504 333 5645 378 5760 454 
C 5984 602 6080 902 6080 1299 
C 6074 1754 5914 2259 5267 2861 
C 5568 3443 5901 4186 6157 4794 
L 5811 5018 
L 5728 4998 
L 3840 4998 
z
M 1715 5350 
L 1715 4666 
L 429 4666 
L 429 4237 
L 3488 4237 
L 3488 4666 
L 2182 4666 
L 2182 5350 
L 1715 5350 
z
M 698 1894 
L 698 -518 
L 1146 -518 
L 1146 -141 
L 2752 -141 
L 2752 -486 
L 3219 -486 
L 3219 1894 
L 698 1894 
z
M 1146 288 
L 1146 1472 
L 2752 1472 
L 2752 288 
L 1146 288 
z
" transform="scale(0.015625)"/>
      <path id="NotoSansCJKjp-Regular-495f" d="M 2163 141 
L 2163 -294 
L 4698 -294 
L 4698 141 
L 2163 141 
z
M 2074 992 
L 2182 538 
C 2790 646 3616 787 4397 922 
L 4365 1350 
L 3142 1152 
L 3142 2758 
L 4416 2758 
C 4570 922 4902 -326 5638 -352 
C 5882 -352 6106 -83 6234 883 
C 6144 922 5958 1037 5875 1126 
C 5830 544 5754 211 5638 218 
C 5261 237 4998 1274 4870 2758 
L 6048 2758 
L 6048 3206 
L 4838 3206 
C 4806 3642 4787 4109 4781 4595 
C 5158 4666 5510 4742 5811 4832 
L 5466 5216 
C 4896 5030 3930 4864 3053 4755 
L 2675 4877 
L 2675 1082 
L 2074 992 
z
M 3142 3206 
L 3142 4365 
C 3526 4403 3930 4454 4320 4518 
C 4333 4058 4352 3622 4378 3206 
L 3142 3206 
z
M 1197 5376 
L 1197 4083 
L 282 4083 
L 282 3629 
L 1197 3629 
L 1197 2259 
L 179 1984 
L 320 1517 
L 1197 1779 
L 1197 51 
C 1197 -38 1158 -64 1075 -70 
C 992 -70 723 -70 435 -64 
C 499 -192 563 -390 582 -506 
C 1011 -512 1267 -493 1440 -422 
C 1600 -346 1664 -218 1664 58 
L 1664 1920 
L 2477 2170 
L 2419 2618 
L 1664 2394 
L 1664 3629 
L 2406 3629 
L 2406 4083 
L 1664 4083 
L 1664 5376 
L 1197 5376 
z
" transform="scale(0.015625)"/>
      <path id="NotoSansCJKjp-Regular-5bd5" d="M 5523 5197 
C 5363 4819 5069 4307 4845 3981 
L 5254 3808 
C 5485 4122 5760 4589 5984 5018 
L 5523 5197 
z
M 2246 4979 
C 2522 4608 2790 4102 2893 3776 
L 3322 3987 
C 3219 4314 2925 4800 2650 5165 
L 2246 4979 
z
M 544 4979 
C 941 4768 1421 4435 1651 4198 
L 1946 4570 
C 1709 4800 1222 5114 832 5306 
L 544 4979 
z
M 243 3264 
C 646 3059 1139 2726 1382 2496 
L 1664 2874 
C 1421 3104 922 3411 518 3603 
L 243 3264 
z
M 442 -134 
L 858 -448 
C 1197 160 1594 966 1888 1651 
L 1530 1939 
C 1203 1210 755 358 442 -134 
z
M 2899 1997 
L 5261 1997 
L 5261 1299 
L 2899 1299 
L 2899 1997 
z
M 2899 2413 
L 2899 3098 
L 5261 3098 
L 5261 2413 
L 2899 2413 
z
M 3866 5382 
L 3866 3552 
L 2426 3552 
L 2426 -512 
L 2899 -512 
L 2899 890 
L 5261 890 
L 5261 96 
C 5261 6 5229 -19 5133 -26 
C 5030 -32 4691 -32 4326 -19 
C 4390 -147 4461 -346 4480 -474 
C 4966 -474 5286 -474 5485 -397 
C 5670 -320 5728 -173 5728 90 
L 5728 3552 
L 4346 3552 
L 4346 5382 
L 3866 5382 
z
" transform="scale(0.015625)"/>
     </defs>
     <use xlink:href="#NotoSansCJKjp-Regular-2548"/>
     <use xlink:href="#NotoSansCJKjp-Regular-58ff" transform="translate(100 0)"/>
     <use xlink:href="#NotoSansCJKjp-Regular-2515" transform="translate(200 0)"/>
     <use xlink:href="#NotoSansCJKjp-Regular-2516" transform="translate(300 0)"/>
     <use xlink:href="#NotoSansCJKjp-Regular-3d73" transform="translate(400 0)"/>
     <use xlink:href="#NotoSansCJKjp-Regular-b8b5" transform="translate(500 0)"/>
     <use xlink:href="#NotoSansCJKjp-Regular-575" transform="translate(600 0)"/>
     <use xlink:href="#NotoSansCJKjp-Regular-6ce8" transform="translate(700 0)"/>
     <use xlink:href="#NotoSansCJKjp-Regular-5cce" transform="translate(800 0)"/>
     <use xlink:href="#NotoSansCJKjp-Regular-2a92" transform="translate(900 0)"/>
     <use xlink:href="#NotoSansCJKjp-Regular-9f27" transform="translate(1000 0)"/>
     <use xlink:href="#NotoSansCJKjp-Regular-495f" transform="translate(1100 0)"/>
     <use xlink:href="#NotoSansCJKjp-Regular-5bd5" transform="translate(1200 0)"/>
    </g>
   </g>
   <g id="patch_22">
    <path d="M 530.912943 124.97837 
Q 530.912943 117.993282 530.912943 112.685246 
" style="fill: none; stroke: #d1242f; stroke-width: 1.5; stroke-linecap: round"/>
    <path d="M 528.512943 117.485246 
L 530.912943 112.685246 
L 533.312943 117.485246 
z
" style="fill: #d1242f; stroke: #d1242f; stroke-width: 1.5; stroke-linecap: round"/>
   </g>
   <g id="text_27">
    <!-- 留下 -->
    <g style="fill: #d1242f" transform="translate(519.912943 136.183235) scale(0.11 -0.11)">
     <defs>
      <path id="NotoSansCJKjp-Regular-69f3" d="M 1568 774 
L 2957 774 
L 2957 122 
L 1568 122 
L 1568 774 
z
M 1568 1152 
L 1568 1779 
L 2957 1779 
L 2957 1152 
L 1568 1152 
z
M 4864 774 
L 4864 122 
L 3418 122 
L 3418 774 
L 4864 774 
z
M 4864 1152 
L 3418 1152 
L 3418 1779 
L 4864 1779 
L 4864 1152 
z
M 1107 2176 
L 1107 -512 
L 1568 -512 
L 1568 -275 
L 4864 -275 
L 4864 -486 
L 5344 -486 
L 5344 2176 
L 1107 2176 
z
M 3206 5024 
L 3206 4614 
L 3962 4614 
C 3872 3744 3635 3072 2784 2701 
C 2886 2624 3014 2464 3072 2355 
C 4032 2803 4307 3584 4416 4614 
L 5389 4614 
C 5344 3533 5286 3123 5184 3014 
C 5139 2957 5082 2944 4986 2950 
C 4883 2950 4627 2950 4346 2976 
C 4416 2861 4467 2688 4474 2554 
C 4762 2541 5043 2534 5197 2547 
C 5370 2566 5478 2611 5587 2733 
C 5741 2912 5798 3424 5862 4819 
C 5869 4883 5869 5024 5869 5024 
L 3206 5024 
z
M 1888 3987 
C 2054 3814 2214 3610 2362 3398 
L 1299 3136 
L 1242 4499 
C 1837 4627 2496 4806 2982 5005 
L 2643 5357 
C 2298 5184 1715 4998 1171 4864 
L 755 4986 
L 832 3021 
L 262 2893 
L 384 2432 
L 2592 3021 
C 2656 2906 2707 2797 2739 2701 
L 3162 2925 
C 3014 3296 2637 3814 2278 4186 
L 1888 3987 
z
" transform="scale(0.015625)"/>
     </defs>
     <use xlink:href="#NotoSansCJKjp-Regular-69f3"/>
     <use xlink:href="#NotoSansCJKjp-Regular-2516" transform="translate(100 0)"/>
    </g>
    <!-- $a_1$ -->
    <g style="fill: #d1242f" transform="translate(525.742943 147.183235) scale(0.11 -0.11)">
     <defs>
      <path id="Cmmi10-79" d="M 1113 -72 
Q 709 -72 476 233 
Q 244 538 244 953 
Q 244 1363 456 1803 
Q 669 2244 1030 2536 
Q 1391 2828 1806 2828 
Q 1997 2828 2147 2725 
Q 2297 2622 2381 2444 
Q 2453 2700 2663 2700 
Q 2744 2700 2798 2651 
Q 2853 2603 2853 2522 
Q 2853 2503 2851 2493 
Q 2850 2484 2847 2472 
L 2400 684 
Q 2356 494 2356 372 
Q 2356 97 2541 97 
Q 2741 97 2845 351 
Q 2950 606 3022 941 
Q 3034 978 3072 978 
L 3150 978 
Q 3175 978 3190 956 
Q 3206 934 3206 916 
Q 3094 469 2961 198 
Q 2828 -72 2528 -72 
Q 2313 -72 2147 54 
Q 1981 181 1941 391 
Q 1528 -72 1113 -72 
z
M 1119 97 
Q 1350 97 1567 270 
Q 1784 444 1941 678 
Q 1947 684 1947 697 
L 2291 2088 
L 2297 2106 
Q 2259 2334 2132 2498 
Q 2006 2663 1791 2663 
Q 1575 2663 1389 2486 
Q 1203 2309 1075 2069 
Q 950 1813 836 1366 
Q 722 919 722 672 
Q 722 450 817 273 
Q 913 97 1119 97 
z
" transform="scale(0.015625)"/>
      <path id="Cmr10-64" d="M 594 0 
L 594 225 
Q 1394 225 1394 428 
L 1394 3788 
Q 1063 3628 556 3628 
L 556 3853 
Q 1341 3853 1741 4263 
L 1831 4263 
Q 1853 4263 1873 4245 
Q 1894 4228 1894 4206 
L 1894 428 
Q 1894 225 2694 225 
L 2694 0 
L 594 0 
z
" transform="scale(0.015625)"/>
     </defs>
     <use xlink:href="#Cmmi10-79" transform="translate(0 0.8125)"/>
     <use xlink:href="#Cmr10-64" transform="translate(52.783203 -14.187462) scale(0.7)"/>
    </g>
   </g>
   <g id="patch_23">
    <path d="M 734.528943 189.143076 
Q 734.528943 182.157988 734.528943 176.849952 
" style="fill: none; stroke: #d1242f; stroke-width: 1.5; stroke-linecap: round"/>
    <path d="M 732.128943 181.649952 
L 734.528943 176.849952 
L 736.928943 181.649952 
z
" style="fill: #d1242f; stroke: #d1242f; stroke-width: 1.5; stroke-linecap: round"/>
   </g>
   <g id="text_28">
    <!-- 留下 -->
    <g style="fill: #d1242f" transform="translate(723.528943 200.347941) scale(0.11 -0.11)">
     <use xlink:href="#NotoSansCJKjp-Regular-69f3"/>
     <use xlink:href="#NotoSansCJKjp-Regular-2516" transform="translate(100 0)"/>
    </g>
    <!-- $a_1r^4$ -->
    <g style="fill: #d1242f" transform="translate(724.023943 211.347941) scale(0.11 -0.11)">
     <defs>
      <path id="Cmr10-3b" d="M 178 1056 
L 178 1281 
L 2156 4231 
Q 2178 4263 2222 4263 
L 2316 4263 
Q 2388 4263 2388 4191 
L 2388 1281 
L 3016 1281 
L 3016 1056 
L 2388 1056 
L 2388 428 
Q 2388 297 2575 261 
Q 2763 225 3009 225 
L 3009 0 
L 1247 0 
L 1247 225 
Q 1494 225 1681 261 
Q 1869 297 1869 428 
L 1869 1056 
L 178 1056 
z
M 391 1281 
L 1906 1281 
L 1906 3547 
L 391 1281 
z
" transform="scale(0.015625)"/>
     </defs>
     <use xlink:href="#Cmmi10-79" transform="translate(0 0.084203)"/>
     <use xlink:href="#Cmr10-64" transform="translate(52.783203 -14.915759) scale(0.7)"/>
     <use xlink:href="#Cmmi10-84" transform="translate(93.503619 0.084203)"/>
     <use xlink:href="#Cmr10-3b" transform="translate(149.880988 41.373437) scale(0.7)"/>
    </g>
   </g>
   <g id="text_29">
    <!-- 等比：錯位相減 -->
    <g style="fill: #222831" transform="translate(577.74212 27.088235) scale(0.125 -0.125)">
     <defs>
      <path id="NotoSansCJKjp-Regular-5942" d="M 250 128 
L 397 -371 
C 1197 -179 2278 77 3290 326 
L 3245 787 
C 2694 659 2125 525 1600 410 
L 1600 2925 
L 3046 2925 
L 3046 3398 
L 1600 3398 
L 1600 5344 
L 1107 5344 
L 1107 301 
L 250 128 
z
M 3520 5344 
L 3520 512 
C 3520 -186 3693 -371 4320 -371 
C 4448 -371 5261 -371 5395 -371 
C 6003 -371 6138 -13 6202 1037 
C 6061 1069 5869 1152 5747 1248 
C 5709 320 5670 83 5370 83 
C 5190 83 4506 83 4371 83 
C 4064 83 4013 147 4013 499 
L 4013 2586 
C 4691 2874 5414 3219 5952 3571 
L 5594 3974 
C 5216 3674 4608 3328 4013 3046 
L 4013 5344 
L 3520 5344 
z
" transform="scale(0.015625)"/>
      <path id="NotoSansCJKjp-Regular-a3ac" d="M 480 1830 
C 614 1446 717 960 736 634 
L 1101 730 
C 1069 1050 954 1536 819 1914 
L 480 1830 
z
M 2304 1990 
C 2246 1638 2112 1120 2010 800 
L 2310 698 
C 2432 998 2566 1478 2694 1882 
L 2304 1990 
z
M 4858 5376 
L 4858 4582 
L 4006 4582 
L 4006 5376 
L 3565 5376 
L 3565 4582 
L 2957 4582 
L 2957 4160 
L 3565 4160 
L 3565 3213 
L 2714 3213 
L 2714 2790 
L 6150 2790 
L 6150 3213 
L 5306 3213 
L 5306 4160 
L 6010 4160 
L 6010 4582 
L 5306 4582 
L 5306 5376 
L 4858 5376 
z
M 4006 4160 
L 4858 4160 
L 4858 3213 
L 4006 3213 
L 4006 4160 
z
M 3648 832 
L 5312 832 
L 5312 186 
L 3648 186 
L 3648 832 
z
M 3648 1210 
L 3648 1830 
L 5312 1830 
L 5312 1210 
L 3648 1210 
z
M 3206 2227 
L 3206 -512 
L 3648 -512 
L 3648 -224 
L 5312 -224 
L 5312 -499 
L 5773 -499 
L 5773 2227 
L 3206 2227 
z
M 1338 5376 
C 1120 4864 730 4211 160 3725 
C 256 3661 397 3514 467 3411 
L 672 3610 
L 672 3379 
L 1370 3379 
L 1370 2701 
L 346 2701 
L 346 2278 
L 1370 2278 
L 1370 314 
L 275 115 
L 390 -320 
C 1062 -192 1984 0 2854 179 
L 2829 589 
L 1798 397 
L 1798 2278 
L 2733 2278 
L 2733 2701 
L 1798 2701 
L 1798 3379 
L 2534 3379 
L 2534 3795 
L 845 3795 
C 1184 4179 1440 4582 1626 4928 
C 1990 4589 2394 4102 2598 3789 
L 2925 4154 
C 2682 4499 2176 5011 1766 5376 
L 1338 5376 
z
" transform="scale(0.015625)"/>
      <path id="NotoSansCJKjp-Regular-26e3" d="M 2630 3155 
C 2867 2304 3066 1190 3110 544 
L 3578 646 
C 3526 1280 3302 2381 3059 3232 
L 2630 3155 
z
M 2106 4115 
L 2106 3661 
L 6016 3661 
L 6016 4115 
L 4250 4115 
L 4250 5299 
L 3770 5299 
L 3770 4115 
L 2106 4115 
z
M 1946 243 
L 1946 -211 
L 6176 -211 
L 6176 243 
L 4634 243 
C 4928 1043 5261 2246 5485 3194 
L 4966 3283 
C 4800 2362 4461 1056 4166 243 
L 1946 243 
z
M 1773 5357 
C 1395 4390 774 3443 128 2835 
C 211 2720 352 2470 397 2355 
C 640 2598 877 2880 1107 3194 
L 1107 -493 
L 1568 -493 
L 1568 3891 
C 1818 4314 2048 4762 2227 5216 
L 1773 5357 
z
" transform="scale(0.015625)"/>
     </defs>
     <use xlink:href="#NotoSansCJKjp-Regular-74a1"/>
     <use xlink:href="#NotoSansCJKjp-Regular-5942" transform="translate(100 0)"/>
     <use xlink:href="#NotoSansCJKjp-Regular-e6c0" transform="translate(200 0)"/>
     <use xlink:href="#NotoSansCJKjp-Regular-a3ac" transform="translate(300 0)"/>
     <use xlink:href="#NotoSansCJKjp-Regular-26e3" transform="translate(400 0)"/>
     <use xlink:href="#NotoSansCJKjp-Regular-6ce8" transform="translate(500 0)"/>
     <use xlink:href="#NotoSansCJKjp-Regular-5cce" transform="translate(600 0)"/>
    </g>
    <!-- （整式乘 r 後往右錯一格，再相減） -->
    <g style="fill: #222831" transform="translate(522.516534 39.588235) scale(0.125 -0.125)">
     <defs>
      <path id="NotoSansCJKjp-Regular-4e1d" d="M 1357 1139 
L 1357 32 
L 301 32 
L 301 -371 
L 6118 -371 
L 6118 32 
L 3430 32 
L 3430 563 
L 5274 563 
L 5274 934 
L 3430 934 
L 3430 1427 
L 5696 1427 
L 5696 1824 
L 730 1824 
L 730 1427 
L 2957 1427 
L 2957 32 
L 1818 32 
L 1818 1139 
L 1357 1139 
z
M 4109 5376 
C 3930 4742 3597 4154 3162 3770 
L 3162 4282 
L 2054 4282 
L 2054 4608 
L 3315 4608 
L 3315 4960 
L 2054 4960 
L 2054 5376 
L 1626 5376 
L 1626 4960 
L 365 4960 
L 365 4608 
L 1626 4608 
L 1626 4282 
L 550 4282 
L 550 3110 
L 1440 3110 
C 1126 2790 646 2470 256 2304 
C 346 2234 474 2093 538 1997 
C 883 2176 1306 2496 1626 2822 
L 1626 1997 
L 2054 1997 
L 2054 2784 
C 2368 2611 2790 2362 2970 2227 
L 3206 2547 
C 3027 2650 2349 2989 2086 3110 
L 3162 3110 
L 3162 3725 
C 3264 3642 3411 3494 3462 3411 
C 3603 3546 3744 3699 3866 3878 
C 4000 3590 4186 3296 4416 3021 
C 4064 2714 3629 2490 3104 2330 
C 3200 2253 3341 2074 3392 1978 
C 3904 2163 4339 2400 4704 2714 
C 5030 2406 5434 2138 5926 1958 
C 5990 2067 6112 2246 6202 2336 
C 5715 2483 5318 2720 4998 3002 
C 5299 3347 5530 3757 5677 4269 
L 6093 4269 
L 6093 4659 
L 4314 4659 
C 4403 4858 4480 5069 4544 5280 
L 4109 5376 
z
M 947 3962 
L 1626 3962 
L 1626 3430 
L 947 3430 
L 947 3962 
z
M 2054 3962 
L 2752 3962 
L 2752 3430 
L 2054 3430 
L 2054 3962 
z
M 4122 4269 
L 5216 4269 
C 5101 3891 4928 3571 4698 3302 
C 4435 3603 4243 3930 4109 4250 
L 4122 4269 
z
" transform="scale(0.015625)"/>
      <path id="NotoSansCJKjp-Regular-430b" d="M 4538 5062 
C 4870 4832 5267 4486 5459 4256 
L 5792 4557 
C 5600 4781 5190 5107 4864 5331 
L 4538 5062 
z
M 3616 5350 
C 3616 4954 3629 4563 3648 4179 
L 352 4179 
L 352 3712 
L 3680 3712 
C 3846 1331 4384 -525 5434 -525 
C 5926 -525 6106 -198 6189 922 
C 6054 973 5875 1082 5766 1190 
C 5722 333 5651 -26 5472 -26 
C 4838 -26 4339 1542 4179 3712 
L 6061 3712 
L 6061 4179 
L 4154 4179 
C 4134 4557 4128 4947 4128 5350 
L 3616 5350 
z
M 378 154 
L 531 -320 
C 1350 -141 2528 128 3616 384 
L 3578 819 
L 2208 525 
L 2208 2291 
L 3405 2291 
L 3405 2758 
L 576 2758 
L 576 2291 
L 1728 2291 
L 1728 429 
L 378 154 
z
" transform="scale(0.015625)"/>
      <path id="NotoSansCJKjp-Regular-257f" d="M 5197 5344 
C 4154 5126 2310 4992 819 4941 
C 864 4832 922 4646 928 4531 
C 1562 4544 2266 4576 2944 4627 
L 2944 4032 
L 416 4032 
L 416 3590 
L 2944 3590 
L 2944 2106 
C 2400 1216 1350 429 218 109 
C 326 6 467 -173 538 -288 
C 1472 26 2336 653 2944 1427 
L 2944 -506 
L 3443 -506 
L 3443 1453 
C 4045 659 4915 6 5856 -320 
C 5926 -192 6067 -13 6170 83 
C 5043 410 3987 1222 3443 2118 
L 3443 3590 
L 5984 3590 
L 5984 4032 
L 3443 4032 
L 3443 4666 
C 4179 4730 4877 4819 5414 4928 
L 5197 5344 
z
M 397 1779 
L 506 1370 
L 1818 1619 
L 1818 1318 
L 2266 1318 
L 2266 3411 
L 1818 3411 
L 1818 2963 
L 589 2963 
L 589 2573 
L 1818 2573 
L 1818 1997 
L 397 1779 
z
M 5478 3174 
C 5242 3046 4902 2893 4563 2765 
L 4563 3418 
L 4115 3418 
L 4115 1850 
C 4115 1389 4237 1267 4723 1267 
C 4826 1267 5357 1267 5459 1267 
C 5837 1267 5958 1414 6010 1990 
C 5882 2016 5702 2080 5606 2157 
C 5594 1734 5562 1677 5414 1677 
C 5299 1677 4864 1677 4774 1677 
C 4589 1677 4563 1702 4563 1850 
L 4563 2368 
C 4960 2496 5414 2656 5773 2816 
L 5478 3174 
z
" transform="scale(0.015625)"/>
      <path id="NotoSansCJKjp-Regular-53" d="M 589 0 
L 1178 0 
L 1178 2234 
C 1408 2822 1760 3040 2048 3040 
C 2195 3040 2272 3021 2387 2982 
L 2496 3488 
C 2387 3546 2278 3565 2125 3565 
C 1741 3565 1382 3283 1139 2842 
L 1126 2842 
L 1069 3475 
L 589 3475 
L 589 0 
z
" transform="scale(0.015625)"/>
      <path id="NotoSansCJKjp-Regular-43f2" d="M 1562 5376 
C 1280 4922 710 4371 211 4032 
C 288 3949 416 3776 474 3680 
C 1024 4070 1619 4666 1997 5203 
L 1562 5376 
z
M 1933 2944 
L 1978 2509 
L 3456 2554 
C 3072 1984 2470 1485 1862 1152 
C 1965 1069 2125 883 2189 787 
C 2451 947 2714 1139 2963 1357 
C 3168 1062 3418 794 3699 557 
C 3142 230 2490 13 1843 -115 
C 1933 -218 2035 -410 2080 -531 
C 2784 -365 3482 -109 4083 269 
C 4614 -90 5248 -358 5939 -518 
C 6003 -397 6125 -211 6234 -109 
C 5581 19 4979 243 4467 544 
C 4934 909 5318 1363 5562 1926 
L 5254 2074 
L 5171 2054 
L 3629 2054 
C 3763 2221 3885 2394 3994 2573 
L 5542 2624 
C 5664 2451 5760 2291 5824 2157 
L 6227 2394 
C 6029 2784 5568 3366 5165 3782 
L 4787 3584 
C 4947 3411 5114 3213 5261 3014 
L 3539 2976 
C 4141 3469 4794 4102 5306 4653 
L 4870 4890 
C 4570 4512 4147 4064 3712 3654 
C 3565 3808 3360 3981 3142 4154 
C 3437 4435 3776 4813 4058 5158 
L 3629 5376 
C 3430 5082 3110 4691 2822 4390 
L 2445 4653 
L 2150 4339 
C 2579 4058 3072 3661 3379 3347 
C 3226 3206 3072 3078 2931 2963 
L 1933 2944 
z
M 3258 1638 
L 3290 1670 
L 4915 1670 
C 4704 1338 4416 1043 4077 800 
C 3744 1043 3469 1325 3258 1638 
z
M 1715 4070 
C 1338 3392 723 2726 134 2285 
C 218 2189 358 1958 410 1862 
C 646 2054 896 2291 1133 2547 
L 1133 -531 
L 1587 -531 
L 1587 3085 
C 1798 3354 1984 3635 2144 3917 
L 1715 4070 
z
" transform="scale(0.015625)"/>
      <path id="NotoSansCJKjp-Regular-43e1" d="M 3162 5056 
C 3667 4800 4282 4384 4576 4090 
L 4934 4442 
C 4621 4742 3994 5133 3494 5376 
L 3162 5056 
z
M 1651 5370 
C 1357 4902 762 4352 230 4006 
C 307 3910 435 3718 486 3616 
C 1082 4000 1715 4621 2106 5190 
L 1651 5370 
z
M 2086 160 
L 2086 -301 
L 6150 -301 
L 6150 160 
L 4403 160 
L 4403 1715 
L 5811 1715 
L 5811 2170 
L 4403 2170 
L 4403 3616 
L 5926 3616 
L 5926 4070 
L 2426 4070 
L 2426 3616 
L 3898 3616 
L 3898 2170 
L 2522 2170 
L 2522 1715 
L 3898 1715 
L 3898 160 
L 2086 160 
z
M 1862 4070 
C 1453 3379 781 2688 147 2246 
C 230 2150 371 1914 422 1805 
C 678 1997 934 2234 1190 2490 
L 1190 -512 
L 1658 -512 
L 1658 3002 
C 1901 3290 2118 3597 2298 3898 
L 1862 4070 
z
" transform="scale(0.015625)"/>
      <path id="NotoSansCJKjp-Regular-2e93" d="M 2637 5376 
C 2554 4979 2445 4576 2310 4179 
L 416 4179 
L 416 3712 
L 2138 3712 
C 1728 2688 1114 1754 198 1133 
C 301 1037 448 864 525 749 
C 992 1082 1382 1485 1715 1939 
L 1715 -518 
L 2195 -518 
L 2195 -160 
L 5043 -160 
L 5043 -486 
L 5542 -486 
L 5542 2470 
L 2067 2470 
C 2298 2861 2496 3277 2662 3712 
L 6010 3712 
L 6010 4179 
L 2829 4179 
C 2944 4544 3046 4909 3136 5280 
L 2637 5376 
z
M 2195 307 
L 2195 2003 
L 5043 2003 
L 5043 307 
L 2195 307 
z
" transform="scale(0.015625)"/>
      <path id="NotoSansCJKjp-Regular-52b2" d="M 3680 4269 
L 5082 4269 
C 4890 3866 4627 3494 4320 3174 
C 4013 3488 3776 3821 3603 4147 
L 3680 4269 
z
M 1293 5376 
L 1293 4006 
L 333 4006 
L 333 3552 
L 1235 3552 
C 1037 2669 608 1664 179 1120 
C 262 1011 384 826 429 698 
C 749 1120 1056 1818 1293 2541 
L 1293 -506 
L 1747 -506 
L 1747 2720 
C 1946 2438 2170 2093 2272 1914 
L 2560 2278 
C 2445 2445 1920 3078 1747 3270 
L 1747 3552 
L 2477 3552 
L 2323 3424 
C 2432 3347 2618 3181 2701 3098 
C 2918 3290 3136 3520 3334 3776 
C 3507 3475 3731 3168 4006 2880 
C 3462 2413 2822 2067 2182 1862 
C 2278 1766 2400 1587 2458 1472 
C 2624 1536 2790 1600 2957 1677 
L 2957 -518 
L 3405 -518 
L 3405 -237 
L 5190 -237 
L 5190 -493 
L 5658 -493 
L 5658 1728 
L 5952 1613 
C 6022 1734 6157 1920 6253 2016 
C 5619 2208 5082 2509 4646 2874 
C 5094 3341 5459 3904 5690 4563 
L 5389 4704 
L 5299 4685 
L 3917 4685 
C 4019 4870 4109 5062 4186 5261 
L 3725 5382 
C 3475 4730 3059 4102 2579 3648 
L 2579 4006 
L 1747 4006 
L 1747 5376 
L 1293 5376 
z
M 3405 186 
L 3405 1421 
L 5190 1421 
L 5190 186 
L 3405 186 
z
M 3270 1837 
C 3648 2035 4000 2278 4326 2566 
C 4640 2291 5005 2042 5421 1837 
L 3270 1837 
z
" transform="scale(0.015625)"/>
     </defs>
     <use xlink:href="#NotoSansCJKjp-Regular-e6ae"/>
     <use xlink:href="#NotoSansCJKjp-Regular-4e1d" transform="translate(100 0)"/>
     <use xlink:href="#NotoSansCJKjp-Regular-430b" transform="translate(200 0)"/>
     <use xlink:href="#NotoSansCJKjp-Regular-257f" transform="translate(300 0)"/>
     <use xlink:href="#NotoSansCJKjp-Regular-1" transform="translate(400 0)"/>
     <use xlink:href="#NotoSansCJKjp-Regular-53" transform="translate(422.40625 0)"/>
     <use xlink:href="#NotoSansCJKjp-Regular-1" transform="translate(461.203125 0)"/>
     <use xlink:href="#NotoSansCJKjp-Regular-43f2" transform="translate(483.609375 0)"/>
     <use xlink:href="#NotoSansCJKjp-Regular-43e1" transform="translate(583.609375 0)"/>
     <use xlink:href="#NotoSansCJKjp-Regular-2e93" transform="translate(683.609375 0)"/>
     <use xlink:href="#NotoSansCJKjp-Regular-a3ac" transform="translate(783.609375 0)"/>
     <use xlink:href="#NotoSansCJKjp-Regular-2509" transform="translate(883.609375 0)"/>
     <use xlink:href="#NotoSansCJKjp-Regular-52b2" transform="translate(983.609375 0)"/>
     <use xlink:href="#NotoSansCJKjp-Regular-e6b2" transform="translate(1083.609375 0)"/>
     <use xlink:href="#NotoSansCJKjp-Regular-2acb" transform="translate(1183.609375 0)"/>
     <use xlink:href="#NotoSansCJKjp-Regular-6ce8" transform="translate(1283.609375 0)"/>
     <use xlink:href="#NotoSansCJKjp-Regular-5cce" transform="translate(1383.609375 0)"/>
     <use xlink:href="#NotoSansCJKjp-Regular-e6af" transform="translate(1483.609375 0)"/>
    </g>
   </g>
   <g id="text_30">
    <!-- S − rS = $a_1$ − $a_1r^n$　→　S = $a_1(1-r^n)/(1-r)$　($r\neq1$) -->
    <g style="fill: #222831" transform="translate(485.50462 235.398971) scale(0.115 -0.115)">
     <defs>
      <path id="NotoSansCJKjp-Regular-33f" d="M 243 2144 
L 3315 2144 
L 3315 2579 
L 243 2579 
L 243 2144 
z
" transform="scale(0.015625)"/>
      <path id="Cmmi10-7a" d="M 494 109 
Q 494 147 500 166 
L 978 2075 
Q 1025 2253 1025 2388 
Q 1025 2663 838 2663 
Q 638 2663 541 2423 
Q 444 2184 353 1819 
Q 353 1800 334 1789 
Q 316 1778 300 1778 
L 225 1778 
Q 203 1778 187 1801 
Q 172 1825 172 1844 
Q 241 2122 305 2315 
Q 369 2509 505 2668 
Q 641 2828 844 2828 
Q 1084 2828 1268 2676 
Q 1453 2525 1453 2291 
Q 1644 2541 1900 2684 
Q 2156 2828 2444 2828 
Q 2672 2828 2837 2750 
Q 3003 2672 3095 2514 
Q 3188 2356 3188 2138 
Q 3188 1875 3070 1503 
Q 2953 1131 2778 672 
Q 2688 463 2688 288 
Q 2688 97 2834 97 
Q 3084 97 3251 365 
Q 3419 634 3488 941 
Q 3500 978 3541 978 
L 3616 978 
Q 3641 978 3658 962 
Q 3675 947 3675 922 
Q 3675 916 3669 903 
Q 3581 541 3364 234 
Q 3147 -72 2822 -72 
Q 2597 -72 2437 83 
Q 2278 238 2278 459 
Q 2278 578 2328 709 
Q 2409 919 2514 1209 
Q 2619 1500 2686 1765 
Q 2753 2031 2753 2234 
Q 2753 2413 2679 2538 
Q 2606 2663 2431 2663 
Q 2197 2663 2000 2559 
Q 1803 2456 1656 2286 
Q 1509 2116 1388 1881 
L 953 141 
Q 931 53 854 -9 
Q 778 -72 684 -72 
Q 606 -72 550 -22 
Q 494 28 494 109 
z
" transform="scale(0.015625)"/>
      <path id="NotoSansCJKjp-Regular-574" transform="scale(0.015625)"/>
      <path id="Cmr10-77" d="M 1984 -1588 
Q 1628 -1306 1370 -942 
Q 1113 -578 948 -165 
Q 784 247 703 697 
Q 622 1147 622 1600 
Q 622 2059 703 2509 
Q 784 2959 951 3375 
Q 1119 3791 1378 4153 
Q 1638 4516 1984 4788 
Q 1984 4800 2016 4800 
L 2075 4800 
Q 2094 4800 2109 4783 
Q 2125 4766 2125 4744 
Q 2125 4716 2113 4703 
Q 1800 4397 1592 4047 
Q 1384 3697 1257 3301 
Q 1131 2906 1075 2482 
Q 1019 2059 1019 1600 
Q 1019 -434 2106 -1491 
Q 2125 -1509 2125 -1544 
Q 2125 -1559 2108 -1579 
Q 2091 -1600 2075 -1600 
L 2016 -1600 
Q 1984 -1600 1984 -1588 
z
" transform="scale(0.015625)"/>
      <path id="Cmsy10-11" d="M 653 1472 
Q 600 1472 565 1512 
Q 531 1553 531 1600 
Q 531 1647 565 1687 
Q 600 1728 653 1728 
L 4325 1728 
Q 4375 1728 4408 1687 
Q 4441 1647 4441 1600 
Q 4441 1553 4408 1512 
Q 4375 1472 4325 1472 
L 653 1472 
z
" transform="scale(0.015625)"/>
      <path id="Cmr10-44" d="M 416 -1600 
Q 359 -1600 359 -1544 
Q 359 -1516 372 -1503 
Q 1466 -434 1466 1600 
Q 1466 3634 384 4691 
Q 359 4706 359 4744 
Q 359 4766 376 4783 
Q 394 4800 416 4800 
L 475 4800 
Q 494 4800 506 4788 
Q 966 4425 1272 3906 
Q 1578 3388 1720 2800 
Q 1863 2213 1863 1600 
Q 1863 1147 1786 708 
Q 1709 269 1542 -157 
Q 1375 -584 1119 -945 
Q 863 -1306 506 -1588 
Q 494 -1600 475 -1600 
L 416 -1600 
z
" transform="scale(0.015625)"/>
      <path id="Cmmi10-62" d="M 359 -1472 
Q 359 -1453 366 -1447 
L 2591 4722 
Q 2603 4759 2634 4779 
Q 2666 4800 2706 4800 
Q 2763 4800 2798 4765 
Q 2834 4731 2834 4672 
L 2834 4647 
L 609 -1522 
Q 572 -1600 488 -1600 
Q 434 -1600 396 -1562 
Q 359 -1525 359 -1472 
z
" transform="scale(0.015625)"/>
      <path id="NotoSansCJKjp-Regular-9" d="M 1530 -1254 
L 1888 -1094 
C 1338 -186 1075 902 1075 1990 
C 1075 3072 1338 4154 1888 5069 
L 1530 5235 
C 941 4275 589 3245 589 1990 
C 589 730 941 -301 1530 -1254 
z
" transform="scale(0.015625)"/>
      <path id="STIXGeneral-Regular-473" d="M 4077 768 
L 1990 768 
L 1222 -998 
L 877 -998 
L 1645 768 
L 307 768 
L 307 1190 
L 1830 1190 
L 2208 2048 
L 307 2048 
L 307 2470 
L 2394 2470 
L 3162 4237 
L 3507 4237 
L 2733 2470 
L 4077 2470 
L 4077 2048 
L 2554 2048 
L 2176 1190 
L 4077 1190 
L 4077 768 
z
" transform="scale(0.015625)"/>
      <path id="NotoSansCJKjp-Regular-a" d="M 634 -1254 
C 1222 -301 1574 730 1574 1990 
C 1574 3245 1222 4275 634 5235 
L 269 5069 
C 819 4154 1094 3072 1094 1990 
C 1094 902 819 -186 269 -1094 
L 634 -1254 
z
" transform="scale(0.015625)"/>
     </defs>
     <use xlink:href="#NotoSansCJKjp-Regular-34" transform="translate(0 0.203125)"/>
     <use xlink:href="#NotoSansCJKjp-Regular-1" transform="translate(59.599945 0.203125)"/>
     <use xlink:href="#NotoSansCJKjp-Regular-33f" transform="translate(81.999924 0.203125)"/>
     <use xlink:href="#NotoSansCJKjp-Regular-1" transform="translate(137.499878 0.203125)"/>
     <use xlink:href="#NotoSansCJKjp-Regular-53" transform="translate(159.899857 0.203125)"/>
     <use xlink:href="#NotoSansCJKjp-Regular-34" transform="translate(198.699814 0.203125)"/>
     <use xlink:href="#NotoSansCJKjp-Regular-1" transform="translate(258.299759 0.203125)"/>
     <use xlink:href="#NotoSansCJKjp-Regular-1e" transform="translate(280.699738 0.203125)"/>
     <use xlink:href="#NotoSansCJKjp-Regular-1" transform="translate(336.199692 0.203125)"/>
     <use xlink:href="#Cmmi10-79" transform="translate(358.59967 0.203125)"/>
     <use xlink:href="#Cmr10-64" transform="translate(411.382874 -14.796837) scale(0.7)"/>
     <use xlink:href="#NotoSansCJKjp-Regular-1" transform="translate(452.103289 0.203125)"/>
     <use xlink:href="#NotoSansCJKjp-Regular-33f" transform="translate(474.503268 0.203125)"/>
     <use xlink:href="#NotoSansCJKjp-Regular-1" transform="translate(530.003222 0.203125)"/>
     <use xlink:href="#Cmmi10-79" transform="translate(552.403201 0.203125)"/>
     <use xlink:href="#Cmr10-64" transform="translate(605.186404 -14.796837) scale(0.7)"/>
     <use xlink:href="#Cmmi10-84" transform="translate(645.906819 0.203125)"/>
     <use xlink:href="#Cmmi10-7a" transform="translate(702.284188 41.492359) scale(0.7)"/>
     <use xlink:href="#NotoSansCJKjp-Regular-574" transform="translate(750.01144 0.203125)"/>
     <use xlink:href="#NotoSansCJKjp-Regular-31c" transform="translate(850.011348 0.203125)"/>
     <use xlink:href="#NotoSansCJKjp-Regular-574" transform="translate(950.011257 0.203125)"/>
     <use xlink:href="#NotoSansCJKjp-Regular-34" transform="translate(1050.011165 0.203125)"/>
     <use xlink:href="#NotoSansCJKjp-Regular-1" transform="translate(1109.61111 0.203125)"/>
     <use xlink:href="#NotoSansCJKjp-Regular-1e" transform="translate(1132.011089 0.203125)"/>
     <use xlink:href="#NotoSansCJKjp-Regular-1" transform="translate(1187.511043 0.203125)"/>
     <use xlink:href="#Cmmi10-79" transform="translate(1209.911022 0.203125)"/>
     <use xlink:href="#Cmr10-64" transform="translate(1262.694225 -14.796837) scale(0.7)"/>
     <use xlink:href="#Cmr10-77" transform="translate(1303.41464 0.203125)"/>
     <use xlink:href="#Cmr10-64" transform="translate(1342.233 0.203125)"/>
     <use xlink:href="#Cmsy10-11" transform="translate(1412.233057 0.203125)"/>
     <use xlink:href="#Cmmi10-84" transform="translate(1509.918661 0.203125)"/>
     <use xlink:href="#Cmmi10-7a" transform="translate(1566.29603 41.492359) scale(0.7)"/>
     <use xlink:href="#Cmr10-44" transform="translate(1614.023282 0.203125)"/>
     <use xlink:href="#Cmmi10-62" transform="translate(1652.841641 0.203125)"/>
     <use xlink:href="#Cmr10-77" transform="translate(1702.841641 0.203125)"/>
     <use xlink:href="#Cmr10-64" transform="translate(1741.660001 0.203125)"/>
     <use xlink:href="#Cmsy10-11" transform="translate(1811.660058 0.203125)"/>
     <use xlink:href="#Cmmi10-84" transform="translate(1909.345662 0.203125)"/>
     <use xlink:href="#Cmr10-44" transform="translate(1954.462849 0.203125)"/>
     <use xlink:href="#NotoSansCJKjp-Regular-574" transform="translate(1993.281209 0.203125)"/>
     <use xlink:href="#NotoSansCJKjp-Regular-9" transform="translate(2093.281117 0.203125)"/>
     <use xlink:href="#Cmmi10-84" transform="translate(2127.08109 0.203125)"/>
     <use xlink:href="#STIXGeneral-Regular-473" transform="translate(2192.198335 0.203125)"/>
     <use xlink:href="#Cmr10-64" transform="translate(2280.698331 0.203125)"/>
     <use xlink:href="#NotoSansCJKjp-Regular-a" transform="translate(2330.698331 0.203125)"/>
    </g>
   </g>
   <g id="text_31">
    <!-- $a_1$ -->
    <g style="fill: #1f6feb" transform="translate(525.037943 90.898971) scale(0.125 -0.125)">
     <use xlink:href="#Cmmi10-79" transform="translate(0 0.8125)"/>
     <use xlink:href="#Cmr10-64" transform="translate(52.783203 -14.187462) scale(0.7)"/>
    </g>
   </g>
   <g id="text_32">
    <!-- $a_1r$ -->
    <g style="fill: #1f6feb" transform="translate(573.129443 90.898971) scale(0.125 -0.125)">
     <use xlink:href="#Cmmi10-79" transform="translate(0 0.8125)"/>
     <use xlink:href="#Cmr10-64" transform="translate(52.783203 -14.187462) scale(0.7)"/>
     <use xlink:href="#Cmmi10-84" transform="translate(93.503619 0.8125)"/>
    </g>
   </g>
   <g id="text_33">
    <!-- $a_1r^2$ -->
    <g style="fill: #1f6feb" transform="translate(620.783443 90.898971) scale(0.125 -0.125)">
     <defs>
      <path id="Cmr10-31" d="M 319 0 
L 319 172 
Q 319 188 331 206 
L 1325 1306 
Q 1550 1550 1690 1715 
Q 1831 1881 1968 2097 
Q 2106 2313 2186 2536 
Q 2266 2759 2266 3009 
Q 2266 3272 2169 3511 
Q 2072 3750 1880 3894 
Q 1688 4038 1416 4038 
Q 1138 4038 916 3870 
Q 694 3703 603 3438 
Q 628 3444 672 3444 
Q 816 3444 917 3347 
Q 1019 3250 1019 3097 
Q 1019 2950 917 2848 
Q 816 2747 672 2747 
Q 522 2747 420 2851 
Q 319 2956 319 3097 
Q 319 3338 409 3548 
Q 500 3759 670 3923 
Q 841 4088 1055 4175 
Q 1269 4263 1509 4263 
Q 1875 4263 2190 4108 
Q 2506 3953 2690 3670 
Q 2875 3388 2875 3009 
Q 2875 2731 2753 2481 
Q 2631 2231 2440 2026 
Q 2250 1822 1953 1562 
Q 1656 1303 1563 1216 
L 838 519 
L 1453 519 
Q 1906 519 2211 526 
Q 2516 534 2534 550 
Q 2609 631 2688 1141 
L 2875 1141 
L 2694 0 
L 319 0 
z
" transform="scale(0.015625)"/>
     </defs>
     <use xlink:href="#Cmmi10-79" transform="translate(0 0.084203)"/>
     <use xlink:href="#Cmr10-64" transform="translate(52.783203 -14.915759) scale(0.7)"/>
     <use xlink:href="#Cmmi10-84" transform="translate(93.503619 0.084203)"/>
     <use xlink:href="#Cmr10-31" transform="translate(149.880988 41.373437) scale(0.7)"/>
    </g>
   </g>
   <g id="text_34">
    <!-- $a_1r^3$ -->
    <g style="fill: #1f6feb" transform="translate(671.687443 90.898971) scale(0.125 -0.125)">
     <defs>
      <path id="Cmr10-6e" d="M 609 494 
Q 759 275 1012 169 
Q 1266 63 1556 63 
Q 1928 63 2084 380 
Q 2241 697 2241 1100 
Q 2241 1281 2208 1462 
Q 2175 1644 2097 1800 
Q 2019 1956 1883 2050 
Q 1747 2144 1550 2144 
L 1125 2144 
Q 1069 2144 1069 2203 
L 1069 2259 
Q 1069 2309 1125 2309 
L 1478 2338 
Q 1703 2338 1851 2506 
Q 2000 2675 2069 2917 
Q 2138 3159 2138 3378 
Q 2138 3684 1994 3881 
Q 1850 4078 1556 4078 
Q 1313 4078 1091 3986 
Q 869 3894 738 3706 
Q 750 3709 759 3711 
Q 769 3713 781 3713 
Q 925 3713 1022 3613 
Q 1119 3513 1119 3372 
Q 1119 3234 1022 3134 
Q 925 3034 781 3034 
Q 641 3034 541 3134 
Q 441 3234 441 3372 
Q 441 3647 606 3850 
Q 772 4053 1033 4158 
Q 1294 4263 1556 4263 
Q 1750 4263 1965 4205 
Q 2181 4147 2356 4039 
Q 2531 3931 2642 3762 
Q 2753 3594 2753 3378 
Q 2753 3109 2633 2881 
Q 2513 2653 2303 2487 
Q 2094 2322 1844 2241 
Q 2122 2188 2372 2031 
Q 2622 1875 2773 1631 
Q 2925 1388 2925 1106 
Q 2925 753 2731 467 
Q 2538 181 2222 20 
Q 1906 -141 1556 -141 
Q 1256 -141 954 -26 
Q 653 88 461 316 
Q 269 544 269 863 
Q 269 1022 375 1128 
Q 481 1234 641 1234 
Q 744 1234 830 1186 
Q 916 1138 964 1050 
Q 1013 963 1013 863 
Q 1013 706 903 600 
Q 794 494 641 494 
L 609 494 
z
" transform="scale(0.015625)"/>
     </defs>
     <use xlink:href="#Cmmi10-79" transform="translate(0 0.084203)"/>
     <use xlink:href="#Cmr10-64" transform="translate(52.783203 -14.915759) scale(0.7)"/>
     <use xlink:href="#Cmmi10-84" transform="translate(93.503619 0.084203)"/>
     <use xlink:href="#Cmr10-6e" transform="translate(149.880988 41.373437) scale(0.7)"/>
    </g>
   </g>
   <g id="text_35">
    <!-- $a_1r$ -->
    <g style="fill: #1a7f37" transform="translate(573.129443 155.063676) scale(0.125 -0.125)">
     <use xlink:href="#Cmmi10-79" transform="translate(0 0.8125)"/>
     <use xlink:href="#Cmr10-64" transform="translate(52.783203 -14.187462) scale(0.7)"/>
     <use xlink:href="#Cmmi10-84" transform="translate(93.503619 0.8125)"/>
    </g>
   </g>
   <g id="text_36">
    <!-- $a_1r^2$ -->
    <g style="fill: #1a7f37" transform="translate(620.783443 155.063676) scale(0.125 -0.125)">
     <use xlink:href="#Cmmi10-79" transform="translate(0 0.084203)"/>
     <use xlink:href="#Cmr10-64" transform="translate(52.783203 -14.915759) scale(0.7)"/>
     <use xlink:href="#Cmmi10-84" transform="translate(93.503619 0.084203)"/>
     <use xlink:href="#Cmr10-31" transform="translate(149.880988 41.373437) scale(0.7)"/>
    </g>
   </g>
   <g id="text_37">
    <!-- $a_1r^3$ -->
    <g style="fill: #1a7f37" transform="translate(671.687443 155.063676) scale(0.125 -0.125)">
     <use xlink:href="#Cmmi10-79" transform="translate(0 0.084203)"/>
     <use xlink:href="#Cmr10-64" transform="translate(52.783203 -14.915759) scale(0.7)"/>
     <use xlink:href="#Cmmi10-84" transform="translate(93.503619 0.084203)"/>
     <use xlink:href="#Cmr10-6e" transform="translate(149.880988 41.373437) scale(0.7)"/>
    </g>
   </g>
   <g id="text_38">
    <!-- $a_1r^4$ -->
    <g style="fill: #1a7f37" transform="translate(722.591443 155.063676) scale(0.125 -0.125)">
     <use xlink:href="#Cmmi10-79" transform="translate(0 0.084203)"/>
     <use xlink:href="#Cmr10-64" transform="translate(52.783203 -14.915759) scale(0.7)"/>
     <use xlink:href="#Cmmi10-84" transform="translate(93.503619 0.084203)"/>
     <use xlink:href="#Cmr10-3b" transform="translate(149.880988 41.373437) scale(0.7)"/>
    </g>
   </g>
   <g id="patch_24">
    <path d="M 556.792708 170.606118 
L 708.649179 170.606118 
L 708.649179 71.364706 
L 556.792708 71.364706 
L 556.792708 170.606118 
z
" clip-path="url(#p558bef7070)" style="fill: none; stroke-dasharray: 5.92,2.56; stroke-dashoffset: 0; stroke: #bf8700; stroke-width: 1.6; stroke-linejoin: miter"/>
   </g>
  </g>
 </g>
 <defs>
  <clipPath id="pf0c2fda05e">
   <rect x="7.2" y="7.2" width="380.020645" height="290.88"/>
  </clipPath>
  <clipPath id="p558bef7070">
   <rect x="457.123532" y="7.2" width="328.737176" height="290.88"/>
  </clipPath>
 </defs>
</svg>
