<?xml version="1.0" encoding="utf-8" standalone="no"?>
<!DOCTYPE svg PUBLIC "-//W3C//DTD SVG 1.1//EN"
  "http://www.w3.org/Graphics/SVG/1.1/DTD/svg11.dtd">
<svg xmlns:xlink="http://www.w3.org/1999/xlink" width="423.072pt" height="297.512pt" viewBox="0 0 423.072 297.512" xmlns="http://www.w3.org/2000/svg" version="1.1">
 <metadata>
  <rdf:RDF xmlns:dc="http://purl.org/dc/elements/1.1/" xmlns:cc="http://creativecommons.org/ns#" xmlns:rdf="http://www.w3.org/1999/02/22-rdf-syntax-ns#">
   <cc:Work>
    <dc:type rdf:resource="http://purl.org/dc/dcmitype/StillImage"/>
    <dc:date>2026-06-19T00:14:33.780962</dc:date>
    <dc:format>image/svg+xml</dc:format>
    <dc:creator>
     <cc:Agent>
      <dc:title>Matplotlib v3.11.0, https://matplotlib.org/</dc:title>
     </cc:Agent>
    </dc:creator>
   </cc:Work>
  </rdf:RDF>
 </metadata>
 <defs>
  <style type="text/css">*{stroke-linejoin: round; stroke-linecap: butt}</style>
 </defs>
 <g id="figure_1">
  <g id="patch_1">
   <path d="M 0 297.512 
L 423.072 297.512 
L 423.072 0 
L 0 0 
z
" style="fill: #ffffff"/>
  </g>
  <g id="axes_1">
   <g id="patch_2">
    <path d="M 26.208 132.0704 
L 387.36 132.0704 
L 387.36 112.112 
L 26.208 112.112 
z
" clip-path="url(#pd98b5c2d4b)" style="fill: url(#h8ba0600804); stroke: #222831; stroke-width: 1.1; stroke-linejoin: miter"/>
   </g>
   <g id="line2d_1">
    <path d="M 26.208 112.112 
L 387.36 112.112 
" clip-path="url(#pd98b5c2d4b)" style="fill: none; stroke: #222831; stroke-width: 1.4; stroke-linecap: square"/>
   </g>
   <g id="patch_3">
    <path d="M 149.76 112.112 
L 221.04 112.112 
L 221.04 59.84 
L 149.76 59.84 
z
" clip-path="url(#pd98b5c2d4b)" style="fill: #dbe7ff; stroke: #222831; stroke-width: 1.6; stroke-linejoin: miter"/>
   </g>
   <g id="patch_4">
    <path d="M 221.04 112.112 
L 273.312 112.112 
L 273.312 59.84 
L 221.04 59.84 
z
" clip-path="url(#pd98b5c2d4b)" style="fill: #ffe3e3; stroke: #222831; stroke-width: 1.6; stroke-linejoin: miter"/>
   </g>
   <g id="text_1">
    <!-- 整體：外力 F 推動兩相貼木塊一起前進 -->
    <g style="fill: #222831" transform="translate(109.033102 152.504) scale(0.115 -0.115)">
     <defs>
      <path id="NotoSansCJKjp-Regular-4e1d" d="M 1357 1139 
L 1357 32 
L 301 32 
L 301 -371 
L 6118 -371 
L 6118 32 
L 3430 32 
L 3430 563 
L 5274 563 
L 5274 934 
L 3430 934 
L 3430 1427 
L 5696 1427 
L 5696 1824 
L 730 1824 
L 730 1427 
L 2957 1427 
L 2957 32 
L 1818 32 
L 1818 1139 
L 1357 1139 
z
M 4109 5376 
C 3930 4742 3597 4154 3162 3770 
L 3162 4282 
L 2054 4282 
L 2054 4608 
L 3315 4608 
L 3315 4960 
L 2054 4960 
L 2054 5376 
L 1626 5376 
L 1626 4960 
L 365 4960 
L 365 4608 
L 1626 4608 
L 1626 4282 
L 550 4282 
L 550 3110 
L 1440 3110 
C 1126 2790 646 2470 256 2304 
C 346 2234 474 2093 538 1997 
C 883 2176 1306 2496 1626 2822 
L 1626 1997 
L 2054 1997 
L 2054 2784 
C 2368 2611 2790 2362 2970 2227 
L 3206 2547 
C 3027 2650 2349 2989 2086 3110 
L 3162 3110 
L 3162 3725 
C 3264 3642 3411 3494 3462 3411 
C 3603 3546 3744 3699 3866 3878 
C 4000 3590 4186 3296 4416 3021 
C 4064 2714 3629 2490 3104 2330 
C 3200 2253 3341 2074 3392 1978 
C 3904 2163 4339 2400 4704 2714 
C 5030 2406 5434 2138 5926 1958 
C 5990 2067 6112 2246 6202 2336 
C 5715 2483 5318 2720 4998 3002 
C 5299 3347 5530 3757 5677 4269 
L 6093 4269 
L 6093 4659 
L 4314 4659 
C 4403 4858 4480 5069 4544 5280 
L 4109 5376 
z
M 947 3962 
L 1626 3962 
L 1626 3430 
L 947 3430 
L 947 3962 
z
M 2054 3962 
L 2752 3962 
L 2752 3430 
L 2054 3430 
L 2054 3962 
z
M 4122 4269 
L 5216 4269 
C 5101 3891 4928 3571 4698 3302 
C 4435 3603 4243 3930 4109 4250 
L 4122 4269 
z
" transform="scale(0.015625)"/>
      <path id="NotoSansCJKjp-Regular-b0c7" d="M 2963 2598 
L 2963 2246 
L 6112 2246 
L 6112 2598 
L 2963 2598 
z
M 3686 1619 
L 5363 1619 
L 5363 1062 
L 3686 1062 
L 3686 1619 
z
M 5075 742 
C 5011 525 4883 198 4774 -13 
L 4832 -32 
L 4128 -32 
L 4218 0 
C 4179 205 4070 512 3930 730 
L 3584 614 
C 3693 422 3789 166 3834 -32 
L 2848 -32 
L 2848 -390 
L 6157 -390 
L 6157 -32 
L 5146 -32 
L 5478 627 
L 5075 742 
z
M 3162 4787 
L 3162 2918 
L 5901 2918 
L 5901 4787 
L 5101 4787 
L 5101 5376 
L 4742 5376 
L 4742 4787 
L 4282 4787 
L 4282 5376 
L 3923 5376 
L 3923 4787 
L 3162 4787 
z
M 3283 1939 
L 3283 742 
L 5779 742 
L 5779 1939 
L 3283 1939 
z
M 3533 3693 
L 3981 3693 
L 3981 3251 
L 3533 3251 
L 3533 3693 
z
M 4282 3693 
L 4742 3693 
L 4742 3251 
L 4282 3251 
L 4282 3693 
z
M 5043 3693 
L 5510 3693 
L 5510 3251 
L 5043 3251 
L 5043 3693 
z
M 3533 4454 
L 3981 4454 
L 3981 4019 
L 3533 4019 
L 3533 4454 
z
M 4282 4454 
L 4742 4454 
L 4742 4019 
L 4282 4019 
L 4282 4454 
z
M 5043 4454 
L 5510 4454 
L 5510 4019 
L 5043 4019 
L 5043 4454 
z
M 1178 1440 
L 2138 1440 
L 2138 973 
L 1178 973 
L 1178 1440 
z
M 1178 1792 
L 1178 2246 
L 2138 2246 
L 2138 1792 
L 1178 1792 
z
M 390 3373 
L 390 2445 
L 762 2445 
L 762 -512 
L 1178 -512 
L 1178 621 
L 2138 621 
L 2138 -51 
C 2138 -115 2118 -134 2048 -141 
C 1990 -141 1792 -141 1562 -134 
C 1619 -243 1677 -403 1690 -512 
C 2035 -512 2240 -506 2381 -442 
C 2522 -378 2554 -262 2554 -58 
L 2554 2592 
L 762 2592 
L 762 3021 
L 2560 3021 
L 2560 2445 
L 2944 2445 
L 2944 3373 
L 2566 3373 
L 2566 5152 
L 762 5152 
L 762 3373 
L 390 3373 
z
M 1466 4371 
L 1466 3373 
L 1126 3373 
L 1126 4787 
L 2182 4787 
L 2182 4371 
L 1466 4371 
z
M 2182 3373 
L 1766 3373 
L 1766 4064 
L 2182 4064 
L 2182 3373 
z
" transform="scale(0.015625)"/>
      <path id="NotoSansCJKjp-Regular-e6c0" d="M 3200 3482 
C 3456 3482 3686 3667 3686 3962 
C 3686 4256 3456 4442 3200 4442 
C 2944 4442 2714 4256 2714 3962 
C 2714 3667 2944 3482 3200 3482 
z
M 3200 346 
C 3456 346 3686 538 3686 826 
C 3686 1120 3456 1312 3200 1312 
C 2944 1312 2714 1120 2714 826 
C 2714 538 2944 346 3200 346 
z
" transform="scale(0.015625)"/>
      <path id="NotoSansCJKjp-Regular-36d9" d="M 1715 3942 
L 2963 3942 
C 2848 3290 2669 2714 2438 2208 
C 2131 2477 1664 2803 1242 3046 
C 1414 3322 1574 3622 1715 3942 
z
M 3661 3859 
L 3418 3763 
C 3450 3942 3488 4122 3514 4307 
L 3200 4416 
L 3110 4397 
L 1901 4397 
C 2010 4678 2106 4979 2189 5280 
L 1715 5382 
C 1414 4224 883 3162 166 2502 
C 288 2432 493 2278 576 2195 
C 723 2342 864 2509 992 2688 
C 1440 2413 1926 2054 2221 1766 
C 1734 902 1082 282 320 -122 
C 435 -192 614 -371 698 -480 
C 1914 205 2893 1491 3360 3520 
C 3622 3078 3955 2650 4320 2259 
L 4320 -499 
L 4813 -499 
L 4813 1786 
C 5184 1459 5574 1184 5965 986 
C 6042 1114 6189 1299 6304 1395 
C 5792 1626 5274 1984 4813 2413 
L 4813 5370 
L 4320 5370 
L 4320 2925 
C 4058 3219 3834 3539 3661 3859 
z
" transform="scale(0.015625)"/>
      <path id="NotoSansCJKjp-Regular-2c71" d="M 2624 5363 
L 2624 4256 
L 2624 3981 
L 531 3981 
L 531 3488 
L 2598 3488 
C 2502 2285 2080 877 339 -160 
C 461 -243 634 -422 710 -538 
C 2573 595 3008 2157 3098 3488 
L 5293 3488 
C 5165 1229 5024 320 4794 102 
C 4717 19 4634 0 4499 0 
C 4339 0 3930 6 3488 45 
C 3584 -96 3642 -307 3654 -448 
C 4051 -467 4461 -480 4678 -461 
C 4928 -435 5075 -390 5229 -198 
C 5517 115 5645 1075 5792 3725 
C 5798 3795 5805 3981 5805 3981 
L 3123 3981 
L 3123 4256 
L 3123 5363 
L 2624 5363 
z
" transform="scale(0.015625)"/>
      <path id="NotoSansCJKjp-Regular-1" transform="scale(0.015625)"/>
      <path id="NotoSansCJKjp-Regular-27" d="M 646 0 
L 1235 0 
L 1235 2106 
L 3027 2106 
L 3027 2605 
L 1235 2605 
L 1235 4192 
L 3347 4192 
L 3347 4691 
L 646 4691 
L 646 0 
z
" transform="scale(0.015625)"/>
      <path id="NotoSansCJKjp-Regular-4adf" d="M 4275 2458 
L 4275 1581 
L 3238 1581 
L 3238 2458 
L 4275 2458 
z
M 3245 5389 
C 2982 4454 2534 3571 1971 3008 
C 2074 2906 2234 2701 2298 2605 
C 2464 2784 2624 2989 2771 3213 
L 2771 -506 
L 3238 -506 
L 3238 -179 
L 6144 -179 
L 6144 269 
L 4730 269 
L 4730 1165 
L 5882 1165 
L 5882 1581 
L 4730 1581 
L 4730 2458 
L 5882 2458 
L 5882 2874 
L 4730 2874 
L 4730 3738 
L 6035 3738 
L 6035 4166 
L 4755 4166 
C 4915 4493 5082 4890 5222 5242 
L 4723 5363 
C 4627 5011 4448 4538 4282 4166 
L 3296 4166 
C 3462 4518 3597 4896 3712 5274 
L 3245 5389 
z
M 4275 2874 
L 3238 2874 
L 3238 3738 
L 4275 3738 
L 4275 2874 
z
M 4275 1165 
L 4275 269 
L 3238 269 
L 3238 1165 
L 4275 1165 
z
M 1152 5370 
L 1152 4083 
L 282 4083 
L 282 3635 
L 1152 3635 
L 1152 2240 
L 173 1971 
L 288 1504 
L 1152 1766 
L 1152 70 
C 1152 -19 1120 -51 1037 -51 
C 954 -51 691 -51 397 -45 
C 461 -179 525 -384 544 -506 
C 966 -512 1222 -493 1389 -416 
C 1555 -339 1613 -198 1613 77 
L 1613 1914 
L 2291 2125 
L 2234 2554 
L 1613 2374 
L 1613 3635 
L 2234 3635 
L 2234 4083 
L 1613 4083 
L 1613 5370 
L 1152 5370 
z
" transform="scale(0.015625)"/>
      <path id="NotoSansCJKjp-Regular-2cc2" d="M 4192 5293 
C 4192 4806 4192 4333 4179 3878 
L 3418 3878 
L 3418 3437 
L 4166 3437 
C 4109 2227 3942 1184 3386 422 
L 3386 448 
L 2099 314 
L 2099 826 
L 3360 826 
L 3360 1197 
L 2099 1197 
L 2099 1587 
L 3347 1587 
L 3347 3501 
L 2099 3501 
L 2099 3904 
L 3469 3904 
L 3469 4282 
L 2099 4282 
L 2099 4755 
C 2566 4806 3008 4864 3354 4941 
L 3117 5312 
C 2451 5158 1286 5043 339 4998 
C 384 4896 435 4742 454 4640 
C 832 4653 1248 4678 1658 4710 
L 1658 4282 
L 269 4282 
L 269 3904 
L 1658 3904 
L 1658 3501 
L 461 3501 
L 461 1587 
L 1658 1587 
L 1658 1197 
L 442 1197 
L 442 826 
L 1658 826 
L 1658 269 
L 269 141 
L 333 -282 
C 1056 -205 2054 -90 3034 26 
C 2950 -51 2854 -128 2758 -198 
C 2874 -275 3040 -435 3110 -544 
C 4256 307 4544 1722 4627 3437 
L 5536 3437 
C 5472 1094 5395 243 5242 51 
C 5184 -32 5120 -45 5018 -45 
C 4896 -45 4608 -45 4294 -19 
C 4371 -147 4422 -346 4435 -480 
C 4736 -493 5037 -499 5222 -474 
C 5414 -454 5542 -403 5651 -230 
C 5869 38 5933 934 6003 3642 
C 6003 3699 6003 3878 6003 3878 
L 4640 3878 
C 4653 4333 4659 4806 4659 5293 
L 4192 5293 
z
M 858 2387 
L 1658 2387 
L 1658 1920 
L 858 1920 
L 858 2387 
z
M 2099 2387 
L 2938 2387 
L 2938 1920 
L 2099 1920 
L 2099 2387 
z
M 858 3168 
L 1658 3168 
L 1658 2707 
L 858 2707 
L 858 3168 
z
M 2099 3168 
L 2938 3168 
L 2938 2707 
L 2099 2707 
L 2099 3168 
z
" transform="scale(0.015625)"/>
      <path id="NotoSansCJKjp-Regular-2a94" d="M 1568 2784 
L 1568 2445 
L 1971 2445 
C 1875 1683 1651 1050 1222 634 
C 1299 589 1440 480 1498 429 
C 1779 723 1990 1114 2138 1581 
C 2221 1171 2381 774 2662 435 
C 2720 506 2854 608 2931 653 
C 2374 1293 2330 2112 2330 2784 
L 1568 2784 
z
M 442 4992 
L 442 4518 
L 2938 4518 
L 2938 3718 
L 672 3718 
L 672 -499 
L 1133 -499 
L 1133 3264 
L 2938 3264 
L 2938 -480 
L 3398 -480 
L 3398 3264 
L 5299 3264 
L 5299 58 
C 5299 -38 5267 -70 5171 -70 
C 5069 -77 4736 -77 4384 -64 
C 4448 -186 4525 -371 4550 -499 
C 5005 -499 5325 -493 5517 -416 
C 5709 -346 5766 -211 5766 51 
L 5766 3718 
L 3398 3718 
L 3398 4518 
L 5990 4518 
L 5990 4992 
L 442 4992 
z
M 3802 2784 
L 3802 2445 
L 4218 2445 
C 4115 1709 3891 1088 3482 678 
C 3571 634 3706 525 3763 467 
C 4038 768 4243 1158 4384 1626 
C 4474 1203 4640 794 4947 454 
C 5011 518 5146 621 5229 659 
C 4640 1293 4589 2112 4589 2784 
L 3802 2784 
z
" transform="scale(0.015625)"/>
      <path id="NotoSansCJKjp-Regular-6ce8" d="M 3494 3034 
L 5440 3034 
L 5440 1920 
L 3494 1920 
L 3494 3034 
z
M 3494 3469 
L 3494 4544 
L 5440 4544 
L 5440 3469 
L 3494 3469 
z
M 3494 1478 
L 5440 1478 
L 5440 365 
L 3494 365 
L 3494 1478 
z
M 3027 4998 
L 3027 -467 
L 3494 -467 
L 3494 -77 
L 5440 -77 
L 5440 -448 
L 5926 -448 
L 5926 4998 
L 3027 4998 
z
M 1370 5376 
L 1370 4006 
L 333 4006 
L 333 3546 
L 1312 3546 
C 1088 2662 634 1651 186 1120 
C 262 1005 384 813 435 685 
C 781 1126 1120 1837 1370 2573 
L 1370 -506 
L 1837 -506 
L 1837 2419 
C 2080 2106 2368 1709 2490 1498 
L 2784 1888 
C 2643 2061 2061 2746 1837 2970 
L 1837 3546 
L 2752 3546 
L 2752 4006 
L 1837 4006 
L 1837 5376 
L 1370 5376 
z
" transform="scale(0.015625)"/>
      <path id="NotoSansCJKjp-Regular-979f" d="M 941 966 
C 794 512 525 64 211 -237 
C 326 -301 512 -442 595 -518 
C 915 -179 1216 339 1395 858 
L 941 966 
z
M 1818 800 
C 2054 480 2317 45 2426 -243 
L 2835 -32 
C 2714 243 2451 666 2202 979 
L 1818 800 
z
M 992 3533 
L 2182 3533 
L 2182 2714 
L 992 2714 
L 992 3533 
z
M 992 2336 
L 2182 2336 
L 2182 1504 
L 992 1504 
L 992 2336 
z
M 992 4730 
L 2182 4730 
L 2182 3910 
L 992 3910 
L 992 4730 
z
M 550 5126 
L 550 1107 
L 2637 1107 
L 2637 5126 
L 550 5126 
z
M 4122 5376 
L 4122 2298 
L 3072 2298 
L 3072 -512 
L 3526 -512 
L 3526 -211 
L 5370 -211 
L 5370 -486 
L 5837 -486 
L 5837 2298 
L 4595 2298 
L 4595 3526 
L 6150 3526 
L 6150 3968 
L 4595 3968 
L 4595 5376 
L 4122 5376 
z
M 3526 230 
L 3526 1869 
L 5370 1869 
L 5370 230 
L 3526 230 
z
" transform="scale(0.015625)"/>
      <path id="NotoSansCJKjp-Regular-5112" d="M 2944 5370 
L 2944 3802 
L 429 3802 
L 429 3322 
L 2720 3322 
C 2144 2208 1165 1114 179 576 
C 294 480 454 294 538 173 
C 1446 723 2330 1709 2944 2803 
L 2944 -512 
L 3450 -512 
L 3450 2810 
C 4077 1747 4960 742 5843 186 
C 5926 320 6093 506 6208 602 
C 5242 1139 4243 2234 3661 3322 
L 5984 3322 
L 5984 3802 
L 3450 3802 
L 3450 5370 
L 2944 5370 
z
" transform="scale(0.015625)"/>
      <path id="NotoSansCJKjp-Regular-3574" d="M 2400 4723 
L 2400 2093 
L 3059 2093 
C 2989 902 2790 230 1606 -141 
C 1709 -230 1837 -416 1888 -538 
C 3187 -90 3456 723 3526 2093 
L 3994 2093 
L 3994 198 
C 3994 -294 4134 -422 4672 -422 
C 4787 -422 5453 -422 5574 -422 
C 5990 -422 6125 -262 6176 339 
C 6048 371 5862 435 5766 512 
C 5747 70 5715 6 5530 6 
C 5389 6 4826 6 4723 6 
C 4480 6 4448 38 4448 205 
L 4448 2093 
L 5862 2093 
L 5862 4723 
L 4128 4723 
C 4224 4902 4333 5114 4429 5325 
L 3872 5382 
C 3821 5190 3725 4934 3635 4723 
L 2400 4723 
z
M 2854 3219 
L 3872 3219 
L 3872 2502 
L 2854 2502 
L 2854 3219 
z
M 4326 3219 
L 5389 3219 
L 5389 2502 
L 4326 2502 
L 4326 3219 
z
M 2854 4307 
L 3872 4307 
L 3872 3603 
L 2854 3603 
L 2854 4307 
z
M 4326 4307 
L 5389 4307 
L 5389 3603 
L 4326 3603 
L 4326 4307 
z
M 5414 1517 
C 5485 1382 5562 1235 5626 1088 
L 5037 1024 
C 5126 1293 5222 1638 5306 1939 
L 4934 1997 
C 4896 1709 4787 1293 4704 992 
L 4506 973 
L 4582 614 
L 5747 787 
L 5818 576 
L 6112 710 
C 6048 947 5869 1331 5696 1626 
L 5414 1517 
z
M 218 1171 
L 378 685 
C 941 915 1683 1216 2374 1510 
L 2278 1958 
L 1549 1670 
L 1549 3494 
L 2221 3494 
L 2221 3949 
L 1549 3949 
L 1549 5357 
L 1094 5357 
L 1094 3949 
L 333 3949 
L 333 3494 
L 1094 3494 
L 1094 1491 
C 762 1363 461 1254 218 1171 
z
" transform="scale(0.015625)"/>
      <path id="NotoSansCJKjp-Regular-2509" d="M 282 2758 
L 282 2234 
L 6144 2234 
L 6144 2758 
L 282 2758 
z
" transform="scale(0.015625)"/>
      <path id="NotoSansCJKjp-Regular-98af" d="M 634 2477 
C 614 1338 544 307 166 -339 
C 282 -390 493 -506 576 -563 
C 762 -211 883 237 960 742 
C 1421 -134 2189 -346 3552 -346 
L 6016 -346 
C 6048 -205 6131 19 6214 128 
C 5811 109 3859 109 3546 115 
C 2944 115 2470 160 2099 301 
L 2099 1606 
L 3142 1606 
L 3142 2029 
L 2099 2029 
L 2099 2982 
L 3206 2982 
L 3206 3418 
L 1997 3418 
L 1997 4224 
L 3046 4224 
L 3046 4653 
L 1997 4653 
L 1997 5370 
L 1542 5370 
L 1542 4653 
L 474 4653 
L 474 4224 
L 1542 4224 
L 1542 3418 
L 307 3418 
L 307 2982 
L 1658 2982 
L 1658 544 
C 1382 762 1190 1088 1043 1562 
C 1062 1843 1082 2138 1088 2445 
L 634 2477 
z
M 3507 3302 
L 3507 1210 
C 3507 666 3686 525 4288 525 
C 4416 525 5274 525 5414 525 
C 5958 525 6099 762 6157 1670 
C 6029 1702 5830 1779 5728 1862 
C 5696 1088 5658 960 5382 960 
C 5184 960 4474 960 4333 960 
C 4026 960 3968 998 3968 1210 
L 3968 2874 
L 5331 2874 
L 5331 2714 
L 5792 2714 
L 5792 5069 
L 3443 5069 
L 3443 4646 
L 5331 4646 
L 5331 3302 
L 3507 3302 
z
" transform="scale(0.015625)"/>
      <path id="NotoSansCJKjp-Regular-2be5" d="M 3866 3290 
L 3866 666 
L 4314 666 
L 4314 3290 
L 3866 3290 
z
M 5165 3482 
L 5165 90 
C 5165 -6 5133 -32 5030 -32 
C 4922 -38 4576 -38 4186 -26 
C 4256 -154 4333 -358 4358 -486 
C 4851 -493 5178 -480 5370 -403 
C 5568 -326 5638 -192 5638 83 
L 5638 3482 
L 5165 3482 
z
M 4627 5408 
C 4486 5094 4243 4672 4026 4365 
L 2106 4365 
L 2419 4480 
C 2298 4736 2022 5114 1779 5382 
L 1331 5222 
C 1562 4960 1798 4614 1920 4365 
L 339 4365 
L 339 3923 
L 6061 3923 
L 6061 4365 
L 4570 4365 
C 4755 4627 4960 4947 5139 5242 
L 4627 5408 
z
M 2618 1926 
L 2618 1280 
L 1197 1280 
L 1197 1926 
L 2618 1926 
z
M 2618 2304 
L 1197 2304 
L 1197 2938 
L 2618 2938 
L 2618 2304 
z
M 742 3347 
L 742 -480 
L 1197 -480 
L 1197 902 
L 2618 902 
L 2618 45 
C 2618 -38 2592 -64 2502 -64 
C 2419 -70 2125 -70 1798 -58 
C 1862 -179 1933 -365 1965 -486 
C 2394 -486 2682 -480 2854 -403 
C 3034 -333 3085 -205 3085 38 
L 3085 3347 
L 742 3347 
z
" transform="scale(0.015625)"/>
      <path id="NotoSansCJKjp-Regular-9d9f" d="M 358 4947 
C 749 4640 1184 4186 1370 3866 
L 1760 4166 
C 1568 4480 1114 4922 723 5216 
L 358 4947 
z
M 1574 2848 
L 294 2848 
L 294 2400 
L 1107 2400 
L 1107 742 
C 819 474 499 205 230 13 
L 480 -461 
C 794 -179 1088 96 1370 371 
C 1773 -134 2355 -358 3200 -390 
C 3917 -416 5286 -403 6003 -378 
C 6022 -230 6099 -13 6157 96 
C 5382 45 3904 26 3194 58 
C 2438 90 1875 307 1574 781 
L 1574 2848 
z
M 2995 5363 
C 2675 4550 2125 3782 1498 3296 
C 1606 3206 1792 3021 1869 2925 
C 2061 3091 2253 3290 2432 3501 
L 2432 691 
L 6016 691 
L 6016 1107 
L 4480 1107 
L 4480 1805 
L 5734 1805 
L 5734 2208 
L 4480 2208 
L 4480 2886 
L 5747 2886 
L 5747 3290 
L 4480 3290 
L 4480 3955 
L 5914 3955 
L 5914 4378 
L 4544 4378 
C 4678 4634 4819 4928 4941 5203 
L 4429 5312 
C 4352 5037 4205 4678 4070 4378 
L 3053 4378 
C 3213 4646 3354 4934 3475 5222 
L 2995 5363 
z
M 2899 2886 
L 4019 2886 
L 4019 2208 
L 2899 2208 
L 2899 2886 
z
M 2899 3290 
L 2899 3955 
L 4019 3955 
L 4019 3290 
L 2899 3290 
z
M 2899 1805 
L 4019 1805 
L 4019 1107 
L 2899 1107 
L 2899 1805 
z
" transform="scale(0.015625)"/>
     </defs>
     <use xlink:href="#NotoSansCJKjp-Regular-4e1d"/>
     <use xlink:href="#NotoSansCJKjp-Regular-b0c7" transform="translate(100 0)"/>
     <use xlink:href="#NotoSansCJKjp-Regular-e6c0" transform="translate(200 0)"/>
     <use xlink:href="#NotoSansCJKjp-Regular-36d9" transform="translate(300 0)"/>
     <use xlink:href="#NotoSansCJKjp-Regular-2c71" transform="translate(400 0)"/>
     <use xlink:href="#NotoSansCJKjp-Regular-1" transform="translate(500 0)"/>
     <use xlink:href="#NotoSansCJKjp-Regular-27" transform="translate(522.40625 0)"/>
     <use xlink:href="#NotoSansCJKjp-Regular-1" transform="translate(577.609375 0)"/>
     <use xlink:href="#NotoSansCJKjp-Regular-4adf" transform="translate(600.015625 0)"/>
     <use xlink:href="#NotoSansCJKjp-Regular-2cc2" transform="translate(700.015625 0)"/>
     <use xlink:href="#NotoSansCJKjp-Regular-2a94" transform="translate(800.015625 0)"/>
     <use xlink:href="#NotoSansCJKjp-Regular-6ce8" transform="translate(900.015625 0)"/>
     <use xlink:href="#NotoSansCJKjp-Regular-979f" transform="translate(1000.015625 0)"/>
     <use xlink:href="#NotoSansCJKjp-Regular-5112" transform="translate(1100.015625 0)"/>
     <use xlink:href="#NotoSansCJKjp-Regular-3574" transform="translate(1200.015625 0)"/>
     <use xlink:href="#NotoSansCJKjp-Regular-2509" transform="translate(1300.015625 0)"/>
     <use xlink:href="#NotoSansCJKjp-Regular-98af" transform="translate(1400.015625 0)"/>
     <use xlink:href="#NotoSansCJKjp-Regular-2be5" transform="translate(1500.015625 0)"/>
     <use xlink:href="#NotoSansCJKjp-Regular-9d9f" transform="translate(1600.015625 0)"/>
    </g>
   </g>
   <g id="patch_5">
    <path d="M 254.304 261.8 
L 306.576 261.8 
L 306.576 209.528 
L 254.304 209.528 
z
" clip-path="url(#pd98b5c2d4b)" style="fill: #ffe3e3; stroke: #222831; stroke-width: 1.6; stroke-linejoin: miter"/>
   </g>
   <g id="text_2">
    <!-- 隔離 m2：水平只有接觸力 → F(1→2) = m2·a -->
    <g style="fill: #222831" transform="translate(164.870391 287.936) scale(0.115 -0.115)">
     <defs>
      <path id="NotoSansCJKjp-Regular-a8f4" d="M 3283 3923 
L 5126 3923 
L 5126 3258 
L 3283 3258 
L 3283 3923 
z
M 2829 4269 
L 2829 2912 
L 5613 2912 
L 5613 4269 
L 2829 4269 
z
M 2464 5030 
L 2464 4627 
L 6003 4627 
L 6003 5030 
L 2464 5030 
z
M 3251 992 
L 3251 646 
L 3981 646 
L 3981 -384 
L 4378 -384 
L 4378 646 
L 5158 646 
L 5158 992 
L 3251 992 
z
M 5530 2150 
L 5530 1626 
L 5517 1632 
C 5504 1613 5478 1606 5382 1606 
C 5299 1606 4954 1606 4890 1606 
C 4742 1606 4723 1619 4723 1722 
L 4723 2150 
L 5530 2150 
z
M 2419 2534 
L 2419 -512 
L 2854 -512 
L 2854 2150 
L 3610 2150 
C 3546 1747 3360 1510 2880 1376 
C 2944 1325 3040 1203 3072 1120 
C 3654 1306 3872 1619 3949 2150 
L 4403 2150 
L 4403 1722 
C 4403 1382 4499 1306 4858 1306 
C 4928 1306 5376 1306 5440 1306 
L 5530 1312 
L 5530 -13 
C 5530 -77 5504 -102 5434 -102 
C 5370 -102 5146 -102 4896 -96 
C 4954 -211 5018 -384 5037 -499 
C 5395 -499 5626 -499 5779 -429 
C 5933 -358 5971 -237 5971 -19 
L 5971 2534 
L 2419 2534 
z
M 512 5101 
L 512 -512 
L 934 -512 
L 934 4666 
L 1715 4666 
C 1587 4230 1408 3648 1242 3181 
C 1670 2675 1773 2240 1779 1894 
C 1779 1702 1747 1523 1658 1453 
C 1606 1414 1542 1402 1466 1402 
C 1376 1389 1261 1395 1133 1408 
C 1197 1286 1242 1107 1242 986 
C 1382 979 1530 986 1638 998 
C 1766 1018 1869 1050 1958 1107 
C 2131 1235 2202 1510 2202 1843 
C 2202 2240 2099 2701 1664 3232 
C 1862 3750 2086 4410 2259 4934 
L 1952 5120 
L 1882 5101 
L 512 5101 
z
" transform="scale(0.015625)"/>
      <path id="NotoSansCJKjp-Regular-a995" d="M 1587 5376 
L 1587 4826 
L 275 4826 
L 275 4429 
L 3373 4429 
L 3373 4826 
L 2054 4826 
L 2054 5376 
L 1587 5376 
z
M 5203 5312 
C 5126 4973 4979 4499 4838 4154 
L 4147 4154 
C 4288 4512 4416 4896 4518 5274 
L 4083 5376 
C 3859 4493 3501 3603 3066 3002 
L 3066 4166 
L 2688 4166 
L 2688 2739 
L 934 2739 
L 934 4166 
L 582 4166 
L 582 2387 
L 1587 2387 
L 1530 1958 
L 403 1958 
L 403 -518 
L 806 -518 
L 806 1587 
L 1466 1587 
C 1414 1286 1350 986 1293 742 
L 960 730 
L 998 378 
L 2342 480 
C 2381 371 2406 269 2426 179 
L 2720 282 
C 2675 557 2496 998 2310 1331 
L 2029 1248 
C 2099 1107 2170 954 2234 800 
L 1645 762 
C 1715 1005 1779 1293 1843 1587 
L 2822 1587 
L 2822 -45 
C 2822 -115 2803 -128 2726 -134 
C 2650 -141 2400 -141 2118 -134 
C 2170 -237 2234 -397 2253 -506 
C 2637 -506 2880 -506 3040 -442 
C 3194 -371 3238 -256 3238 -51 
L 3238 1958 
L 1920 1958 
L 2003 2387 
L 3066 2387 
L 3066 2912 
C 3168 2835 3315 2714 3379 2650 
C 3475 2784 3571 2938 3661 3098 
L 3661 -518 
L 4102 -518 
L 4102 -179 
L 6157 -179 
L 6157 262 
L 5261 262 
L 5261 1152 
L 6035 1152 
L 6035 1568 
L 5261 1568 
L 5261 2445 
L 6035 2445 
L 6035 2854 
L 5261 2854 
L 5261 3718 
L 6093 3718 
L 6093 4154 
L 5267 4154 
C 5402 4467 5542 4858 5664 5203 
L 5203 5312 
z
M 2099 4262 
C 2022 4090 1926 3917 1818 3763 
C 1645 3872 1472 3974 1306 4058 
L 1107 3834 
C 1274 3744 1453 3635 1619 3520 
C 1446 3315 1248 3142 1037 2995 
C 1120 2944 1254 2835 1306 2771 
C 1510 2925 1709 3110 1888 3328 
C 2080 3187 2246 3046 2362 2925 
L 2573 3181 
C 2458 3302 2285 3437 2086 3578 
C 2221 3770 2342 3968 2438 4179 
L 2099 4262 
z
M 4102 2445 
L 4845 2445 
L 4845 1568 
L 4102 1568 
L 4102 2445 
z
M 4102 2854 
L 4102 3718 
L 4845 3718 
L 4845 2854 
L 4102 2854 
z
M 4102 1152 
L 4845 1152 
L 4845 262 
L 4102 262 
L 4102 1152 
z
" transform="scale(0.015625)"/>
      <path id="NotoSansCJKjp-Regular-4e" d="M 589 0 
L 1178 0 
L 1178 2522 
C 1491 2880 1786 3053 2048 3053 
C 2490 3053 2694 2778 2694 2125 
L 2694 0 
L 3277 0 
L 3277 2522 
C 3603 2880 3885 3053 4154 3053 
C 4595 3053 4800 2778 4800 2125 
L 4800 0 
L 5382 0 
L 5382 2202 
C 5382 3085 5043 3565 4333 3565 
C 3904 3565 3546 3290 3181 2899 
C 3040 3309 2758 3565 2221 3565 
C 1805 3565 1446 3302 1139 2970 
L 1126 2970 
L 1069 3475 
L 589 3475 
L 589 0 
z
" transform="scale(0.015625)"/>
      <path id="NotoSansCJKjp-Regular-f6b3" d="M 282 0 
L 3232 0 
L 3232 506 
L 1907 506 
C 1670 506 1382 480 1139 461 
C 2221 1594 3008 2451 3008 3309 
C 3008 4115 2477 4646 1638 4646 
C 1043 4646 634 4378 256 3955 
L 595 3629 
C 858 3930 1184 4173 1568 4173 
C 2150 4173 2432 3802 2432 3283 
C 2432 2534 1658 1715 282 346 
L 282 0 
z
" transform="scale(0.015625)"/>
      <path id="NotoSansCJKjp-Regular-59e1" d="M 352 3738 
L 352 3251 
L 2029 3251 
C 1709 1971 1030 1011 186 486 
C 307 416 493 224 576 109 
C 1517 742 2298 1946 2624 3629 
L 2298 3757 
L 2208 3738 
L 352 3738 
z
M 5523 4339 
C 5146 3827 4525 3187 4000 2739 
C 3782 3194 3603 3686 3462 4192 
L 3462 5363 
L 2957 5363 
L 2957 166 
C 2957 45 2912 6 2784 0 
C 2656 -6 2246 -6 1779 6 
C 1856 -134 1952 -378 1978 -518 
C 2573 -518 2938 -499 3155 -416 
C 3373 -326 3462 -173 3462 166 
L 3462 2925 
C 3974 1606 4742 525 5850 -19 
C 5939 122 6099 320 6221 416 
C 5370 787 4704 1485 4205 2349 
C 4762 2790 5453 3462 5965 4026 
L 5523 4339 
z
" transform="scale(0.015625)"/>
      <path id="NotoSansCJKjp-Regular-41d6" d="M 1114 4032 
C 1363 3558 1613 2938 1702 2554 
L 2157 2714 
C 2067 3085 1805 3699 1549 4160 
L 1114 4032 
z
M 4832 4192 
C 4672 3725 4378 3072 4134 2669 
L 4550 2534 
C 4800 2918 5101 3533 5338 4051 
L 4832 4192 
z
M 333 2227 
L 333 1747 
L 2938 1747 
L 2938 -506 
L 3437 -506 
L 3437 1747 
L 6074 1747 
L 6074 2227 
L 3437 2227 
L 3437 4467 
L 5715 4467 
L 5715 4947 
L 672 4947 
L 672 4467 
L 2938 4467 
L 2938 2227 
L 333 2227 
z
" transform="scale(0.015625)"/>
      <path id="NotoSansCJKjp-Regular-2e85" d="M 3776 1011 
C 4410 557 5184 -102 5549 -531 
L 5971 -230 
C 5581 205 4787 838 4160 1267 
L 3776 1011 
z
M 2163 1280 
C 1792 768 1043 186 371 -179 
C 486 -262 659 -416 755 -518 
C 1440 -134 2195 493 2675 1082 
L 2163 1280 
z
M 1062 4941 
L 1062 1491 
L 1542 1491 
L 1542 1722 
L 4973 1722 
L 4973 1523 
L 5472 1523 
L 5472 4941 
L 1062 4941 
z
M 1542 2182 
L 1542 4474 
L 4973 4474 
L 4973 2182 
L 1542 2182 
z
" transform="scale(0.015625)"/>
      <path id="NotoSansCJKjp-Regular-50d7" d="M 2502 5376 
C 2426 5101 2336 4819 2221 4544 
L 403 4544 
L 403 4096 
L 2022 4096 
C 1613 3251 1024 2470 256 1946 
C 346 1856 499 1683 563 1574 
C 966 1862 1325 2208 1632 2598 
L 1632 -506 
L 2106 -506 
L 2106 762 
L 4787 762 
L 4787 96 
C 4787 0 4755 -38 4646 -38 
C 4525 -45 4134 -51 3712 -32 
C 3776 -166 3846 -365 3872 -493 
C 4422 -493 4774 -493 4986 -422 
C 5197 -339 5261 -192 5261 90 
L 5261 3354 
L 2150 3354 
C 2298 3597 2426 3840 2541 4096 
L 6010 4096 
L 6010 4544 
L 2733 4544 
C 2829 4781 2912 5024 2989 5261 
L 2502 5376 
z
M 2106 1850 
L 4787 1850 
L 4787 1178 
L 2106 1178 
L 2106 1850 
z
M 2106 2259 
L 2106 2918 
L 4787 2918 
L 4787 2259 
L 2106 2259 
z
" transform="scale(0.015625)"/>
      <path id="NotoSansCJKjp-Regular-4ad8" d="M 1152 5370 
L 1152 4083 
L 282 4083 
L 282 3635 
L 1152 3635 
L 1152 2240 
L 173 1971 
L 288 1504 
L 1152 1766 
L 1152 70 
C 1152 -19 1120 -51 1037 -51 
C 954 -51 691 -51 397 -45 
C 461 -179 525 -384 544 -506 
C 966 -512 1222 -493 1389 -416 
C 1555 -339 1613 -198 1613 77 
L 1613 1914 
L 2176 2086 
L 2176 1722 
L 3123 1722 
C 2938 1331 2752 954 2592 672 
L 3014 531 
L 3110 704 
C 3373 621 3648 518 3923 403 
C 3475 134 2854 -26 2016 -109 
C 2093 -205 2170 -378 2208 -506 
C 3187 -378 3898 -160 4397 198 
C 4915 -32 5382 -288 5690 -518 
L 5990 -154 
C 5690 64 5242 301 4755 518 
C 5043 832 5229 1229 5344 1722 
L 6112 1722 
L 6112 2144 
L 3827 2144 
L 4115 2771 
L 6138 2771 
L 6138 3194 
L 4966 3194 
C 5101 3482 5248 3885 5376 4250 
L 5184 4275 
L 5952 4275 
L 5952 4698 
L 4397 4698 
L 4397 5376 
L 3917 5376 
L 3917 4698 
L 2394 4698 
L 2394 4275 
L 3290 4275 
L 3002 4218 
C 3123 3898 3226 3475 3258 3194 
L 2138 3194 
L 2138 2771 
L 3597 2771 
L 3322 2144 
L 2291 2144 
L 2234 2554 
L 1613 2374 
L 1613 3635 
L 2234 3635 
L 2234 4083 
L 1613 4083 
L 1613 5370 
L 1152 5370 
z
M 3430 4275 
L 4890 4275 
C 4806 3955 4659 3507 4538 3219 
L 4685 3194 
L 3526 3194 
L 3706 3238 
C 3680 3501 3558 3936 3430 4275 
z
M 3622 1722 
L 4858 1722 
C 4749 1306 4576 966 4314 704 
C 3968 845 3622 966 3296 1062 
L 3622 1722 
z
" transform="scale(0.015625)"/>
      <path id="NotoSansCJKjp-Regular-9295" d="M 5030 4742 
L 5587 4742 
L 5587 4058 
L 5030 4058 
L 5030 4742 
z
M 4134 4742 
L 4678 4742 
L 4678 4058 
L 4134 4058 
L 4134 4742 
z
M 3264 4742 
L 3782 4742 
L 3782 4058 
L 3264 4058 
L 3264 4742 
z
M 1491 3379 
L 1491 2662 
L 1030 2662 
L 1030 3379 
L 1491 3379 
z
M 1818 3379 
L 2278 3379 
L 2278 2662 
L 1818 2662 
L 1818 3379 
z
M 954 3750 
C 1069 3962 1178 4192 1274 4435 
L 1875 4435 
C 1792 4198 1690 3942 1587 3750 
L 954 3750 
z
M 2880 5101 
L 2880 3693 
L 3488 3693 
C 3290 3264 2995 2854 2669 2560 
L 2669 3750 
L 1997 3750 
C 2144 4032 2291 4365 2406 4659 
L 2138 4838 
L 2054 4813 
L 1414 4813 
C 1466 4966 1510 5126 1555 5286 
L 1126 5376 
C 934 4595 589 3840 154 3347 
C 250 3283 435 3142 499 3072 
L 653 3270 
L 653 2035 
C 653 1312 614 358 205 -326 
C 294 -365 461 -467 531 -531 
C 819 -51 941 582 998 1184 
L 2278 1184 
L 2278 -19 
C 2278 -102 2259 -128 2170 -134 
C 2086 -134 1818 -134 1504 -128 
C 1562 -230 1632 -410 1645 -518 
C 2067 -518 2310 -512 2464 -442 
C 2618 -371 2669 -243 2669 -26 
L 2669 2349 
L 2874 2150 
C 3078 2336 3277 2566 3462 2829 
L 5581 2829 
C 5536 794 5485 96 5382 -64 
C 5338 -141 5293 -154 5216 -154 
C 5126 -154 4960 -154 4762 -134 
C 4819 -237 4858 -397 4870 -506 
C 5075 -512 5274 -518 5402 -499 
C 5555 -480 5664 -442 5754 -294 
C 5907 -77 5952 659 6010 3002 
C 6010 3053 6010 3206 6010 3206 
L 3699 3206 
C 3789 3366 3872 3526 3942 3693 
L 5984 3693 
L 5984 5101 
L 2880 5101 
z
M 1491 2304 
L 1491 1562 
L 1018 1562 
L 1030 2035 
L 1030 2304 
L 1491 2304 
z
M 1818 2304 
L 2278 2304 
L 2278 1562 
L 1818 1562 
L 1818 2304 
z
M 3347 1914 
L 3866 1914 
L 3866 1299 
L 3347 1299 
L 3347 1914 
z
M 4224 1914 
L 4762 1914 
L 4762 1299 
L 4224 1299 
L 4224 1914 
z
M 4518 781 
L 4685 454 
L 4224 416 
L 4224 986 
L 5120 986 
L 5120 2221 
L 4224 2221 
L 4224 2714 
L 3866 2714 
L 3866 2221 
L 3002 2221 
L 3002 986 
L 3866 986 
L 3866 390 
L 2797 307 
L 2867 -58 
L 4826 154 
L 4915 -96 
L 5229 19 
C 5152 250 4973 608 4806 870 
L 4518 781 
z
" transform="scale(0.015625)"/>
      <path id="NotoSansCJKjp-Regular-31c" d="M 5190 2650 
L 256 2650 
L 256 2214 
L 5190 2214 
C 4864 1965 4442 1562 4154 1165 
L 4538 941 
C 4966 1504 5606 2067 6176 2432 
C 5606 2797 4966 3360 4538 3923 
L 4154 3699 
C 4442 3302 4864 2899 5190 2650 
z
" transform="scale(0.015625)"/>
      <path id="NotoSansCJKjp-Regular-9" d="M 1530 -1254 
L 1888 -1094 
C 1338 -186 1075 902 1075 1990 
C 1075 3072 1338 4154 1888 5069 
L 1530 5235 
C 941 4275 589 3245 589 1990 
C 589 730 941 -301 1530 -1254 
z
" transform="scale(0.015625)"/>
      <path id="NotoSansCJKjp-Regular-f6b2" d="M 563 0 
L 3136 0 
L 3136 486 
L 2195 486 
L 2195 4563 
L 1747 4563 
C 1491 4410 1190 4301 774 4224 
L 774 3853 
L 1613 3853 
L 1613 486 
L 563 486 
L 563 0 
z
" transform="scale(0.015625)"/>
      <path id="NotoSansCJKjp-Regular-a" d="M 634 -1254 
C 1222 -301 1574 730 1574 1990 
C 1574 3245 1222 4275 634 5235 
L 269 5069 
C 819 4154 1094 3072 1094 1990 
C 1094 902 819 -186 269 -1094 
L 634 -1254 
z
" transform="scale(0.015625)"/>
      <path id="NotoSansCJKjp-Regular-1e" d="M 243 2912 
L 3315 2912 
L 3315 3347 
L 243 3347 
L 243 2912 
z
M 243 1376 
L 3315 1376 
L 3315 1811 
L 243 1811 
L 243 1376 
z
" transform="scale(0.015625)"/>
      <path id="NotoSansCJKjp-Regular-75" d="M 1766 1875 
C 1997 1875 2195 2067 2195 2323 
C 2195 2592 1997 2778 1766 2778 
C 1536 2778 1350 2592 1350 2323 
C 1350 2067 1536 1875 1766 1875 
z
" transform="scale(0.015625)"/>
      <path id="NotoSansCJKjp-Regular-42" d="M 1389 -83 
C 1818 -83 2208 141 2541 416 
L 2560 416 
L 2611 0 
L 3091 0 
L 3091 2138 
C 3091 3002 2739 3565 1888 3565 
C 1325 3565 838 3315 525 3110 
L 749 2707 
C 1024 2893 1389 3078 1792 3078 
C 2362 3078 2509 2650 2509 2202 
C 1030 2035 378 1658 378 902 
C 378 275 806 -83 1389 -83 
z
M 1555 390 
C 1210 390 941 544 941 941 
C 941 1389 1338 1677 2509 1811 
L 2509 845 
C 2170 544 1888 390 1555 390 
z
" transform="scale(0.015625)"/>
     </defs>
     <use xlink:href="#NotoSansCJKjp-Regular-a8f4"/>
     <use xlink:href="#NotoSansCJKjp-Regular-a995" transform="translate(100 0)"/>
     <use xlink:href="#NotoSansCJKjp-Regular-1" transform="translate(200 0)"/>
     <use xlink:href="#NotoSansCJKjp-Regular-4e" transform="translate(222.40625 0)"/>
     <use xlink:href="#NotoSansCJKjp-Regular-f6b3" transform="translate(315 0)"/>
     <use xlink:href="#NotoSansCJKjp-Regular-e6c0" transform="translate(370.5 0)"/>
     <use xlink:href="#NotoSansCJKjp-Regular-59e1" transform="translate(470.5 0)"/>
     <use xlink:href="#NotoSansCJKjp-Regular-41d6" transform="translate(570.5 0)"/>
     <use xlink:href="#NotoSansCJKjp-Regular-2e85" transform="translate(670.5 0)"/>
     <use xlink:href="#NotoSansCJKjp-Regular-50d7" transform="translate(770.5 0)"/>
     <use xlink:href="#NotoSansCJKjp-Regular-4ad8" transform="translate(870.5 0)"/>
     <use xlink:href="#NotoSansCJKjp-Regular-9295" transform="translate(970.5 0)"/>
     <use xlink:href="#NotoSansCJKjp-Regular-2c71" transform="translate(1070.5 0)"/>
     <use xlink:href="#NotoSansCJKjp-Regular-1" transform="translate(1170.5 0)"/>
     <use xlink:href="#NotoSansCJKjp-Regular-31c" transform="translate(1192.90625 0)"/>
     <use xlink:href="#NotoSansCJKjp-Regular-1" transform="translate(1292.90625 0)"/>
     <use xlink:href="#NotoSansCJKjp-Regular-27" transform="translate(1315.3125 0)"/>
     <use xlink:href="#NotoSansCJKjp-Regular-9" transform="translate(1370.515625 0)"/>
     <use xlink:href="#NotoSansCJKjp-Regular-f6b2" transform="translate(1404.3125 0)"/>
     <use xlink:href="#NotoSansCJKjp-Regular-31c" transform="translate(1459.8125 0)"/>
     <use xlink:href="#NotoSansCJKjp-Regular-f6b3" transform="translate(1559.8125 0)"/>
     <use xlink:href="#NotoSansCJKjp-Regular-a" transform="translate(1615.3125 0)"/>
     <use xlink:href="#NotoSansCJKjp-Regular-1" transform="translate(1649.109375 0)"/>
     <use xlink:href="#NotoSansCJKjp-Regular-1e" transform="translate(1671.515625 0)"/>
     <use xlink:href="#NotoSansCJKjp-Regular-1" transform="translate(1727.015625 0)"/>
     <use xlink:href="#NotoSansCJKjp-Regular-4e" transform="translate(1749.421875 0)"/>
     <use xlink:href="#NotoSansCJKjp-Regular-f6b3" transform="translate(1842.015625 0)"/>
     <use xlink:href="#NotoSansCJKjp-Regular-75" transform="translate(1897.515625 0)"/>
     <use xlink:href="#NotoSansCJKjp-Regular-42" transform="translate(1953.609375 0)"/>
    </g>
   </g>
   <g id="text_3">
    <!-- 隔離法 -->
    <g style="fill: #bf8700" transform="translate(45.216 237.848) scale(0.12 -0.12)">
     <defs>
      <path id="NotoSansCJKjp-Bold-a8f4" d="M 3507 3763 
L 4954 3763 
L 4954 3322 
L 3507 3322 
L 3507 3763 
z
M 2778 4262 
L 2778 2816 
L 5728 2816 
L 5728 4262 
L 2778 4262 
z
M 2477 5152 
L 2477 4525 
L 6016 4525 
L 6016 5152 
L 2477 5152 
z
M 3334 986 
L 3334 480 
L 3910 480 
L 3910 -422 
L 4512 -422 
L 4512 480 
L 5107 480 
L 5107 986 
L 3334 986 
z
M 5344 1971 
L 5344 1632 
L 5331 1638 
C 5312 1619 5293 1613 5216 1613 
C 5158 1613 4973 1613 4928 1613 
C 4832 1613 4819 1619 4819 1728 
L 4819 1971 
L 5344 1971 
z
M 2400 2547 
L 2400 -576 
L 3085 -576 
L 3085 1382 
C 3174 1293 3270 1152 3309 1056 
C 3827 1222 4019 1510 4083 1971 
L 4365 1971 
L 4365 1728 
C 4365 1299 4461 1184 4864 1184 
C 4941 1184 5210 1184 5286 1184 
L 5344 1184 
L 5344 147 
C 5344 83 5325 64 5261 64 
C 5203 64 5018 64 4845 70 
C 4922 -102 5018 -371 5043 -557 
C 5376 -557 5619 -550 5811 -448 
C 6003 -339 6048 -166 6048 134 
L 6048 2547 
L 2400 2547 
z
M 3085 1440 
L 3085 1971 
L 3597 1971 
C 3546 1709 3418 1549 3085 1440 
z
M 448 5158 
L 448 -576 
L 1101 -576 
L 1101 4480 
L 1587 4480 
C 1485 4038 1350 3475 1222 3072 
C 1587 2637 1664 2234 1670 1933 
C 1670 1754 1638 1619 1562 1562 
C 1517 1523 1453 1510 1389 1510 
C 1325 1510 1235 1510 1139 1517 
C 1235 1338 1293 1056 1293 877 
C 1434 870 1581 877 1690 890 
C 1830 909 1946 954 2042 1024 
C 2240 1165 2330 1434 2330 1837 
C 2330 2214 2253 2656 1862 3149 
C 2042 3654 2253 4358 2413 4909 
L 1920 5190 
L 1818 5158 
L 448 5158 
z
" transform="scale(0.015625)"/>
      <path id="NotoSansCJKjp-Bold-a995" d="M 1421 5440 
L 1421 4922 
L 198 4922 
L 198 4314 
L 3405 4314 
L 3405 4922 
L 2163 4922 
L 2163 5440 
L 1421 5440 
z
M 5158 5370 
C 5094 5030 4960 4595 4832 4243 
L 4365 4243 
C 4499 4582 4614 4928 4710 5274 
L 4026 5440 
C 3834 4659 3514 3866 3130 3290 
L 3130 4147 
L 2579 4147 
L 2579 2848 
L 1491 2848 
C 1626 2957 1754 3085 1882 3232 
C 2016 3130 2131 3034 2221 2950 
L 2528 3322 
C 2438 3405 2310 3507 2163 3603 
C 2272 3770 2374 3942 2451 4115 
L 1965 4237 
C 1907 4109 1837 3981 1760 3866 
C 1632 3942 1504 4013 1382 4070 
L 1088 3738 
C 1210 3667 1344 3590 1478 3507 
C 1344 3360 1197 3232 1043 3123 
C 1146 3059 1312 2938 1408 2848 
L 1018 2848 
L 1018 4147 
L 486 4147 
L 486 2330 
L 1478 2330 
L 1440 2016 
L 339 2016 
L 339 -582 
L 954 -582 
L 954 1459 
L 1370 1459 
C 1338 1242 1299 1024 1261 838 
L 1024 826 
L 1075 326 
L 2195 422 
L 2234 186 
L 2637 314 
L 2637 77 
C 2637 13 2611 -6 2534 -6 
C 2464 -6 2221 -13 1997 0 
C 2074 -160 2157 -403 2189 -576 
C 2566 -576 2829 -570 3021 -480 
C 3226 -378 3277 -218 3277 70 
L 3277 2016 
L 2035 2016 
L 2093 2330 
L 3130 2330 
L 3130 2899 
C 3270 2790 3418 2650 3501 2566 
L 3629 2752 
L 3629 -582 
L 4320 -582 
L 4320 -275 
L 6208 -275 
L 6208 416 
L 5485 416 
L 5485 1056 
L 6074 1056 
L 6074 1702 
L 5485 1702 
L 5485 2317 
L 6074 2317 
L 6074 2963 
L 5485 2963 
L 5485 3558 
L 6144 3558 
L 6144 4243 
L 5510 4243 
C 5632 4538 5760 4883 5875 5210 
L 5158 5370 
z
M 1965 1190 
L 2074 883 
L 1792 864 
L 1926 1459 
L 2637 1459 
L 2637 454 
C 2586 704 2477 1030 2362 1293 
L 1965 1190 
z
M 4320 2317 
L 4838 2317 
L 4838 1702 
L 4320 1702 
L 4320 2317 
z
M 4320 2963 
L 4320 3558 
L 4838 3558 
L 4838 2963 
L 4320 2963 
z
M 4320 1056 
L 4838 1056 
L 4838 416 
L 4320 416 
L 4320 1056 
z
" transform="scale(0.015625)"/>
      <path id="NotoSansCJKjp-Bold-5ace" d="M 550 4845 
C 973 4672 1498 4358 1754 4134 
L 2202 4762 
C 1926 4986 1389 5261 973 5414 
L 550 4845 
z
M 186 3104 
C 608 2938 1146 2656 1402 2438 
L 1824 3085 
C 1542 3290 998 3546 582 3686 
L 186 3104 
z
M 358 6 
L 1024 -486 
C 1382 134 1760 864 2074 1536 
L 1498 2029 
C 1139 1286 678 493 358 6 
z
M 4435 1344 
C 4608 1120 4787 864 4947 608 
L 3296 518 
C 3539 1005 3789 1594 3994 2131 
L 3942 2144 
L 6131 2144 
L 6131 2874 
L 4429 2874 
L 4429 3782 
L 5824 3782 
L 5824 4518 
L 4429 4518 
L 4429 5440 
L 3635 5440 
L 3635 4518 
L 2298 4518 
L 2298 3782 
L 3635 3782 
L 3635 2874 
L 1978 2874 
L 1978 2144 
L 3078 2144 
C 2925 1606 2694 966 2470 480 
L 1984 461 
L 2080 -320 
C 2957 -256 4179 -166 5338 -64 
C 5427 -250 5504 -422 5555 -576 
L 6285 -179 
C 6086 365 5568 1126 5094 1696 
L 4435 1344 
z
" transform="scale(0.015625)"/>
     </defs>
     <use xlink:href="#NotoSansCJKjp-Bold-a8f4"/>
     <use xlink:href="#NotoSansCJKjp-Bold-a995" transform="translate(100 0)"/>
     <use xlink:href="#NotoSansCJKjp-Bold-5ace" transform="translate(200 0)"/>
    </g>
   </g>
   <g id="text_4">
    <!-- 接觸推擠型連接體（整體法求 a、隔離法求接觸力） -->
    <g style="fill: #222831" transform="translate(69.117055 18.2) scale(0.125 -0.125)">
     <defs>
      <path id="NotoSansCJKjp-Regular-4d0d" d="M 3930 3674 
L 3930 2310 
L 4301 2310 
L 4301 3674 
L 3930 3674 
z
M 1050 5376 
L 1050 4083 
L 269 4083 
L 269 3635 
L 1050 3635 
L 1050 2374 
C 717 2253 416 2144 173 2067 
L 301 1606 
L 1050 1882 
L 1050 38 
C 1050 -51 1018 -77 941 -77 
C 864 -83 614 -83 339 -77 
C 397 -205 454 -397 474 -512 
C 877 -518 1126 -499 1274 -429 
C 1434 -352 1491 -224 1491 38 
L 1491 2054 
L 2106 2291 
L 2074 2490 
C 2138 2419 2214 2310 2246 2253 
C 2643 2541 2835 2982 2918 3565 
L 3270 3565 
C 3251 3002 3238 2790 3194 2726 
C 3162 2682 3130 2675 3078 2682 
C 3027 2682 2918 2682 2784 2694 
C 2829 2605 2861 2470 2867 2368 
C 2995 2368 3136 2368 3219 2374 
C 3341 2387 3411 2419 3482 2496 
C 3571 2611 3597 2931 3622 3744 
L 3622 3866 
C 3667 3782 3699 3693 3725 3622 
L 4026 3770 
C 3962 3942 3814 4211 3661 4410 
L 3379 4282 
C 3462 4166 3539 4032 3610 3898 
L 2202 3898 
L 2202 3565 
L 2573 3565 
C 2509 3117 2368 2771 2067 2547 
L 2035 2733 
L 1491 2534 
L 1491 3635 
L 2080 3635 
L 2080 4083 
L 1491 4083 
L 1491 5376 
L 1050 5376 
z
M 3891 5382 
L 3891 4813 
L 2099 4813 
L 2099 4416 
L 4563 4416 
C 4493 4224 4339 3930 4224 3750 
L 4499 3635 
C 4627 3814 4774 4070 4922 4314 
L 4627 4416 
L 6099 4416 
L 6099 4813 
L 4358 4813 
L 4358 5382 
L 3891 5382 
z
M 5197 1466 
L 5197 934 
L 3098 934 
C 3117 1094 3123 1248 3123 1389 
L 3123 1466 
L 5197 1466 
z
M 2669 2266 
L 2669 1395 
C 2669 896 2586 205 1978 -269 
C 2086 -326 2253 -448 2330 -525 
C 2714 -230 2918 154 3021 544 
L 5197 544 
L 5197 -512 
L 5651 -512 
L 5651 2272 
L 5197 2272 
L 5197 1850 
L 3123 1850 
L 3123 2266 
L 2669 2266 
z
M 4698 3891 
L 4698 2726 
L 4499 2701 
L 4576 2381 
C 4890 2432 5203 2502 5549 2573 
L 5530 2867 
L 5030 2784 
L 5030 3514 
L 5382 3616 
C 5485 3104 5670 2611 5965 2342 
C 6022 2438 6131 2560 6214 2630 
C 5939 2835 5760 3270 5664 3718 
C 5805 3770 5939 3827 6054 3891 
L 5754 4141 
C 5568 4026 5267 3898 4966 3802 
L 4698 3891 
z
" transform="scale(0.015625)"/>
      <path id="NotoSansCJKjp-Regular-3454" d="M 4064 5011 
L 4064 2867 
L 4506 2867 
L 4506 5011 
L 4064 5011 
z
M 5261 5338 
L 5261 2477 
C 5261 2394 5235 2368 5133 2362 
C 5037 2355 4717 2355 4352 2368 
C 4422 2240 4486 2054 4512 1926 
C 4966 1926 5280 1933 5472 2010 
C 5664 2080 5715 2202 5715 2470 
L 5715 5338 
L 5261 5338 
z
M 2483 4691 
L 2483 3808 
L 1690 3808 
L 1690 3846 
L 1690 4691 
L 2483 4691 
z
M 429 3808 
L 429 3379 
L 1210 3379 
C 1139 2950 928 2515 378 2176 
C 467 2112 627 1933 691 1843 
C 1344 2246 1587 2822 1658 3379 
L 2483 3379 
L 2483 2003 
L 2938 2003 
L 2938 3379 
L 3667 3379 
L 3667 3808 
L 2938 3808 
L 2938 4691 
L 3533 4691 
L 3533 5114 
L 640 5114 
L 640 4691 
L 1248 4691 
L 1248 3853 
L 1248 3808 
L 429 3808 
z
M 2989 2125 
L 2989 1414 
L 966 1414 
L 966 973 
L 2989 973 
L 2989 160 
L 301 160 
L 301 -288 
L 6093 -288 
L 6093 160 
L 3482 160 
L 3482 973 
L 5427 973 
L 5427 1414 
L 3482 1414 
L 3482 2125 
L 2989 2125 
z
" transform="scale(0.015625)"/>
      <path id="NotoSansCJKjp-Regular-9d7d" d="M 358 4947 
C 749 4640 1184 4186 1370 3866 
L 1760 4166 
C 1568 4480 1114 4922 723 5216 
L 358 4947 
z
M 1574 2848 
L 294 2848 
L 294 2400 
L 1107 2400 
L 1107 742 
C 819 474 499 205 230 13 
L 480 -461 
C 794 -179 1088 96 1370 371 
C 1773 -134 2355 -358 3200 -390 
C 3917 -416 5286 -403 6003 -378 
C 6022 -230 6099 -13 6157 96 
C 5382 45 3904 26 3194 58 
C 2438 90 1875 307 1574 781 
L 1574 2848 
z
M 2240 3962 
L 2240 1882 
L 3674 1882 
L 3674 1427 
L 1843 1427 
L 1843 1018 
L 3674 1018 
L 3674 288 
L 4141 288 
L 4141 1018 
L 6054 1018 
L 6054 1427 
L 4141 1427 
L 4141 1882 
L 5626 1882 
L 5626 3962 
L 4141 3962 
L 4141 4397 
L 5958 4397 
L 5958 4800 
L 4141 4800 
L 4141 5376 
L 3674 5376 
L 3674 4800 
L 1939 4800 
L 1939 4397 
L 3674 4397 
L 3674 3962 
L 2240 3962 
z
M 2688 2752 
L 3674 2752 
L 3674 2240 
L 2688 2240 
L 2688 2752 
z
M 4141 2752 
L 5165 2752 
L 5165 2240 
L 4141 2240 
L 4141 2752 
z
M 2688 3603 
L 3674 3603 
L 3674 3098 
L 2688 3098 
L 2688 3603 
z
M 4141 3603 
L 5165 3603 
L 5165 3098 
L 4141 3098 
L 4141 3603 
z
" transform="scale(0.015625)"/>
      <path id="NotoSansCJKjp-Regular-e6ae" d="M 4448 2432 
C 4448 1184 4954 166 5722 -614 
L 6106 -416 
C 5370 346 4915 1293 4915 2432 
C 4915 3571 5370 4518 6106 5280 
L 5722 5478 
C 4954 4698 4448 3680 4448 2432 
z
" transform="scale(0.015625)"/>
      <path id="NotoSansCJKjp-Regular-5ace" d="M 589 4979 
C 1030 4800 1574 4499 1837 4275 
L 2118 4672 
C 1843 4896 1293 5171 851 5331 
L 589 4979 
z
M 250 3213 
C 691 3059 1242 2784 1517 2579 
L 1779 2989 
C 1491 3194 934 3443 493 3578 
L 250 3213 
z
M 467 -115 
L 883 -435 
C 1242 166 1664 960 1984 1638 
L 1626 1946 
C 1280 1222 800 378 467 -115 
z
M 4550 1363 
C 4781 1088 5018 768 5222 448 
L 3027 320 
C 3309 877 3616 1606 3846 2227 
L 6080 2227 
L 6080 2688 
L 4250 2688 
L 4250 3872 
L 5779 3872 
L 5779 4326 
L 4250 4326 
L 4250 5376 
L 3763 5376 
L 3763 4326 
L 2291 4326 
L 2291 3872 
L 3763 3872 
L 3763 2688 
L 1971 2688 
L 1971 2227 
L 3283 2227 
C 3091 1613 2784 838 2515 294 
L 1978 269 
L 2042 -218 
C 2938 -160 4230 -70 5472 26 
C 5587 -173 5677 -365 5741 -525 
L 6189 -275 
C 5978 243 5446 1011 4966 1581 
L 4550 1363 
z
" transform="scale(0.015625)"/>
      <path id="NotoSansCJKjp-Regular-59f2" d="M 762 3213 
C 1152 2854 1600 2349 1792 2010 
L 2176 2291 
C 1978 2630 1523 3117 1126 3456 
L 762 3213 
z
M 237 544 
L 538 109 
C 1107 435 1862 883 2554 1306 
L 2400 1734 
C 1619 1286 781 813 237 544 
z
M 2944 5363 
L 2944 4301 
L 416 4301 
L 416 3834 
L 2944 3834 
L 2944 141 
C 2944 13 2899 -19 2778 -26 
C 2650 -26 2234 -32 1792 -13 
C 1869 -160 1939 -384 1971 -525 
C 2534 -525 2918 -512 3136 -429 
C 3347 -346 3437 -198 3437 141 
L 3437 2669 
C 3987 1472 4794 474 5843 -38 
C 5926 96 6080 282 6195 384 
C 5478 698 4858 1248 4365 1926 
C 4800 2291 5331 2822 5728 3277 
L 5312 3571 
C 5018 3168 4531 2650 4128 2285 
C 3840 2739 3610 3232 3437 3750 
L 3437 3834 
L 6010 3834 
L 6010 4301 
L 5222 4301 
L 5517 4634 
C 5248 4845 4723 5152 4326 5350 
L 4038 5050 
C 4435 4845 4941 4525 5197 4301 
L 3437 4301 
L 3437 5363 
L 2944 5363 
z
" transform="scale(0.015625)"/>
      <path id="NotoSansCJKjp-Regular-575" d="M 1747 -358 
L 2182 13 
C 1786 480 1210 1062 749 1434 
L 333 1069 
C 787 698 1338 147 1747 -358 
z
" transform="scale(0.015625)"/>
      <path id="NotoSansCJKjp-Regular-e6af" d="M 1952 2432 
C 1952 3680 1446 4698 678 5478 
L 294 5280 
C 1030 4518 1485 3571 1485 2432 
C 1485 1293 1030 346 294 -416 
L 678 -614 
C 1446 166 1952 1184 1952 2432 
z
" transform="scale(0.015625)"/>
     </defs>
     <use xlink:href="#NotoSansCJKjp-Regular-4ad8"/>
     <use xlink:href="#NotoSansCJKjp-Regular-9295" transform="translate(100 0)"/>
     <use xlink:href="#NotoSansCJKjp-Regular-4adf" transform="translate(200 0)"/>
     <use xlink:href="#NotoSansCJKjp-Regular-4d0d" transform="translate(300 0)"/>
     <use xlink:href="#NotoSansCJKjp-Regular-3454" transform="translate(400 0)"/>
     <use xlink:href="#NotoSansCJKjp-Regular-9d7d" transform="translate(500 0)"/>
     <use xlink:href="#NotoSansCJKjp-Regular-4ad8" transform="translate(600 0)"/>
     <use xlink:href="#NotoSansCJKjp-Regular-b0c7" transform="translate(700 0)"/>
     <use xlink:href="#NotoSansCJKjp-Regular-e6ae" transform="translate(800 0)"/>
     <use xlink:href="#NotoSansCJKjp-Regular-4e1d" transform="translate(900 0)"/>
     <use xlink:href="#NotoSansCJKjp-Regular-b0c7" transform="translate(1000 0)"/>
     <use xlink:href="#NotoSansCJKjp-Regular-5ace" transform="translate(1100 0)"/>
     <use xlink:href="#NotoSansCJKjp-Regular-59f2" transform="translate(1200 0)"/>
     <use xlink:href="#NotoSansCJKjp-Regular-1" transform="translate(1300 0)"/>
     <use xlink:href="#NotoSansCJKjp-Regular-42" transform="translate(1322.40625 0)"/>
     <use xlink:href="#NotoSansCJKjp-Regular-575" transform="translate(1378.703125 0)"/>
     <use xlink:href="#NotoSansCJKjp-Regular-a8f4" transform="translate(1478.703125 0)"/>
     <use xlink:href="#NotoSansCJKjp-Regular-a995" transform="translate(1578.703125 0)"/>
     <use xlink:href="#NotoSansCJKjp-Regular-5ace" transform="translate(1678.703125 0)"/>
     <use xlink:href="#NotoSansCJKjp-Regular-59f2" transform="translate(1778.703125 0)"/>
     <use xlink:href="#NotoSansCJKjp-Regular-4ad8" transform="translate(1878.703125 0)"/>
     <use xlink:href="#NotoSansCJKjp-Regular-9295" transform="translate(1978.703125 0)"/>
     <use xlink:href="#NotoSansCJKjp-Regular-2c71" transform="translate(2078.703125 0)"/>
     <use xlink:href="#NotoSansCJKjp-Regular-e6af" transform="translate(2178.703125 0)"/>
    </g>
   </g>
   <g id="line2d_2">
    <path d="M 221.04 109.736 
L 221.04 62.216 
" clip-path="url(#pd98b5c2d4b)" style="fill: none; stroke-dasharray: 1,1.65; stroke-dashoffset: 0; stroke: #222831"/>
   </g>
   <g id="patch_6">
    <path d="M 85.608 85.976 
Q 117.684 85.976 146.629505 85.976 
" clip-path="url(#pd98b5c2d4b)" style="fill: none; stroke: #8250df; stroke-width: 2.8; stroke-linecap: round"/>
    <path d="M 139.429505 82.376 
L 146.629505 85.976 
L 139.429505 89.576 
z
" clip-path="url(#pd98b5c2d4b)" style="fill: #8250df; stroke: #8250df; stroke-width: 2.8; stroke-linecap: round"/>
   </g>
   <g id="patch_7">
    <path d="M 289.944 44.6336 
Q 308.952 44.6336 326.171146 44.6336 
" clip-path="url(#pd98b5c2d4b)" style="fill: none; stroke: #222831; stroke-width: 1.6; stroke-linecap: round"/>
    <path d="M 318.971146 41.0336 
L 326.171146 44.6336 
L 318.971146 48.2336 
z
" clip-path="url(#pd98b5c2d4b)" style="fill: #222831; stroke: #222831; stroke-width: 1.6; stroke-linecap: round"/>
   </g>
   <g id="patch_8">
    <path d="M 280.44 235.664 
Q 318.456 235.664 353.341505 235.664 
" clip-path="url(#pd98b5c2d4b)" style="fill: none; stroke: #1f6feb; stroke-width: 2.8; stroke-linecap: round"/>
    <path d="M 346.141505 232.064 
L 353.341505 235.664 
L 346.141505 239.264 
z
" clip-path="url(#pd98b5c2d4b)" style="fill: #1f6feb; stroke: #1f6feb; stroke-width: 2.8; stroke-linecap: round"/>
   </g>
   <g id="patch_9">
    <path d="M 204.408 235.664 
Q 221.04 235.664 235.883146 235.664 
" clip-path="url(#pd98b5c2d4b)" style="fill: none; stroke: #222831; stroke-width: 1.6; stroke-linecap: round"/>
    <path d="M 228.683146 232.064 
L 235.883146 235.664 
L 228.683146 239.264 
z
" clip-path="url(#pd98b5c2d4b)" style="fill: #222831; stroke: #222831; stroke-width: 1.6; stroke-linecap: round"/>
   </g>
   <g id="text_5">
    <!-- $m_1$ -->
    <g style="fill: #222831" transform="translate(176.37 91.086) scale(0.14 -0.14)">
     <defs>
      <path id="Cmmi10-45" d="M 494 109 
Q 494 147 500 166 
L 978 2075 
Q 1025 2253 1025 2388 
Q 1025 2663 838 2663 
Q 638 2663 541 2423 
Q 444 2184 353 1819 
Q 353 1800 334 1789 
Q 316 1778 300 1778 
L 225 1778 
Q 203 1778 187 1801 
Q 172 1825 172 1844 
Q 241 2122 305 2315 
Q 369 2509 505 2668 
Q 641 2828 844 2828 
Q 1084 2828 1268 2676 
Q 1453 2525 1453 2291 
Q 1644 2541 1900 2684 
Q 2156 2828 2444 2828 
Q 2747 2828 2967 2673 
Q 3188 2519 3188 2234 
Q 3384 2513 3648 2670 
Q 3913 2828 4225 2828 
Q 4556 2828 4757 2648 
Q 4959 2469 4959 2138 
Q 4959 1875 4842 1503 
Q 4725 1131 4550 672 
Q 4459 450 4459 288 
Q 4459 97 4609 97 
Q 4859 97 5025 365 
Q 5191 634 5259 941 
Q 5278 978 5313 978 
L 5388 978 
Q 5413 978 5430 961 
Q 5447 944 5447 922 
Q 5447 916 5441 903 
Q 5353 541 5136 234 
Q 4919 -72 4594 -72 
Q 4369 -72 4209 83 
Q 4050 238 4050 459 
Q 4050 572 4103 709 
Q 4284 1191 4404 1569 
Q 4525 1947 4525 2234 
Q 4525 2413 4453 2538 
Q 4381 2663 4213 2663 
Q 3863 2663 3606 2448 
Q 3350 2234 3163 1881 
Q 3150 1819 3144 1784 
L 2731 141 
Q 2709 53 2632 -9 
Q 2556 -72 2463 -72 
Q 2388 -72 2330 -22 
Q 2272 28 2272 109 
Q 2272 147 2278 166 
L 2688 1797 
Q 2753 2059 2753 2234 
Q 2753 2413 2679 2538 
Q 2606 2663 2431 2663 
Q 2197 2663 2000 2559 
Q 1803 2456 1656 2286 
Q 1509 2116 1388 1881 
L 953 141 
Q 931 53 854 -9 
Q 778 -72 684 -72 
Q 606 -72 550 -22 
Q 494 28 494 109 
z
" transform="scale(0.015625)"/>
      <path id="Cmr10-64" d="M 594 0 
L 594 225 
Q 1394 225 1394 428 
L 1394 3788 
Q 1063 3628 556 3628 
L 556 3853 
Q 1341 3853 1741 4263 
L 1831 4263 
Q 1853 4263 1873 4245 
Q 1894 4228 1894 4206 
L 1894 428 
Q 1894 225 2694 225 
L 2694 0 
L 594 0 
z
" transform="scale(0.015625)"/>
     </defs>
     <use xlink:href="#Cmmi10-45" transform="translate(0 0.8125)"/>
     <use xlink:href="#Cmr10-64" transform="translate(87.792969 -14.187462) scale(0.7)"/>
    </g>
   </g>
   <g id="text_6">
    <!-- $m_2$ -->
    <g style="fill: #222831" transform="translate(238.146 91.086) scale(0.14 -0.14)">
     <defs>
      <path id="Cmr10-31" d="M 319 0 
L 319 172 
Q 319 188 331 206 
L 1325 1306 
Q 1550 1550 1690 1715 
Q 1831 1881 1968 2097 
Q 2106 2313 2186 2536 
Q 2266 2759 2266 3009 
Q 2266 3272 2169 3511 
Q 2072 3750 1880 3894 
Q 1688 4038 1416 4038 
Q 1138 4038 916 3870 
Q 694 3703 603 3438 
Q 628 3444 672 3444 
Q 816 3444 917 3347 
Q 1019 3250 1019 3097 
Q 1019 2950 917 2848 
Q 816 2747 672 2747 
Q 522 2747 420 2851 
Q 319 2956 319 3097 
Q 319 3338 409 3548 
Q 500 3759 670 3923 
Q 841 4088 1055 4175 
Q 1269 4263 1509 4263 
Q 1875 4263 2190 4108 
Q 2506 3953 2690 3670 
Q 2875 3388 2875 3009 
Q 2875 2731 2753 2481 
Q 2631 2231 2440 2026 
Q 2250 1822 1953 1562 
Q 1656 1303 1563 1216 
L 838 519 
L 1453 519 
Q 1906 519 2211 526 
Q 2516 534 2534 550 
Q 2609 631 2688 1141 
L 2875 1141 
L 2694 0 
L 319 0 
z
" transform="scale(0.015625)"/>
     </defs>
     <use xlink:href="#Cmmi10-45" transform="translate(0 0.8125)"/>
     <use xlink:href="#Cmr10-31" transform="translate(87.792969 -14.187462) scale(0.7)"/>
    </g>
   </g>
   <g id="text_7">
    <!-- $F$ -->
    <g style="fill: #8250df" transform="translate(69.38 91.296) scale(0.14 -0.14)">
     <defs>
      <path id="Cmmi10-42" d="M 300 0 
Q 238 0 238 84 
Q 241 100 250 139 
Q 259 178 276 201 
Q 294 225 319 225 
Q 709 225 863 269 
Q 947 297 984 441 
L 1863 3956 
Q 1875 4019 1875 4044 
Q 1875 4113 1797 4122 
Q 1678 4147 1338 4147 
Q 1275 4147 1275 4231 
Q 1278 4247 1287 4286 
Q 1297 4325 1314 4348 
Q 1331 4372 1356 4372 
L 4738 4372 
Q 4800 4372 4800 4288 
L 4647 2963 
Q 4647 2944 4625 2925 
Q 4603 2906 4581 2906 
L 4525 2906 
Q 4459 2906 4459 2988 
Q 4500 3278 4500 3463 
Q 4500 3781 4362 3931 
Q 4225 4081 4015 4114 
Q 3806 4147 3438 4147 
L 2753 4147 
Q 2578 4147 2522 4117 
Q 2466 4088 2419 3928 
L 2009 2297 
L 2491 2297 
Q 2728 2297 2875 2322 
Q 3022 2347 3119 2419 
Q 3216 2491 3280 2627 
Q 3344 2763 3397 2988 
Q 3416 3047 3463 3047 
L 3519 3047 
Q 3584 3047 3584 2963 
L 3194 1381 
Q 3166 1325 3128 1325 
L 3072 1325 
Q 3009 1325 3009 1409 
Q 3025 1475 3034 1519 
Q 3044 1563 3058 1645 
Q 3072 1728 3072 1791 
Q 3072 1975 2909 2025 
Q 2747 2075 2484 2075 
L 1959 2075 
L 1544 416 
Q 1528 353 1528 353 
Q 1528 278 1575 269 
Q 1741 225 2228 225 
Q 2291 225 2291 141 
Q 2269 50 2256 25 
Q 2244 0 2181 0 
L 300 0 
z
" transform="scale(0.015625)"/>
     </defs>
     <use xlink:href="#Cmmi10-42" transform="translate(0 0.6875)"/>
    </g>
   </g>
   <g id="text_8">
    <!-- $a$ -->
    <g style="fill: #222831" transform="translate(305.507 35.3176) scale(0.13 -0.13)">
     <defs>
      <path id="Cmmi10-79" d="M 1113 -72 
Q 709 -72 476 233 
Q 244 538 244 953 
Q 244 1363 456 1803 
Q 669 2244 1030 2536 
Q 1391 2828 1806 2828 
Q 1997 2828 2147 2725 
Q 2297 2622 2381 2444 
Q 2453 2700 2663 2700 
Q 2744 2700 2798 2651 
Q 2853 2603 2853 2522 
Q 2853 2503 2851 2493 
Q 2850 2484 2847 2472 
L 2400 684 
Q 2356 494 2356 372 
Q 2356 97 2541 97 
Q 2741 97 2845 351 
Q 2950 606 3022 941 
Q 3034 978 3072 978 
L 3150 978 
Q 3175 978 3190 956 
Q 3206 934 3206 916 
Q 3094 469 2961 198 
Q 2828 -72 2528 -72 
Q 2313 -72 2147 54 
Q 1981 181 1941 391 
Q 1528 -72 1113 -72 
z
M 1119 97 
Q 1350 97 1567 270 
Q 1784 444 1941 678 
Q 1947 684 1947 697 
L 2291 2088 
L 2297 2106 
Q 2259 2334 2132 2498 
Q 2006 2663 1791 2663 
Q 1575 2663 1389 2486 
Q 1203 2309 1075 2069 
Q 950 1813 836 1366 
Q 722 919 722 672 
Q 722 450 817 273 
Q 913 97 1119 97 
z
" transform="scale(0.015625)"/>
     </defs>
     <use xlink:href="#Cmmi10-79" transform="translate(0 0.8125)"/>
    </g>
   </g>
   <g id="text_9">
    <!-- $m_2$ -->
    <g style="fill: #222831" transform="translate(271.41 240.774) scale(0.14 -0.14)">
     <use xlink:href="#Cmmi10-45" transform="translate(0 0.8125)"/>
     <use xlink:href="#Cmr10-31" transform="translate(87.792969 -14.187462) scale(0.7)"/>
    </g>
   </g>
   <g id="patch_10">
    <path d="M 280.44 237.8024 
C 281.00711 237.8024 281.55107 237.577085 281.952077 237.176077 
C 282.353085 236.77507 282.5784 236.23111 282.5784 235.664 
C 282.5784 235.09689 282.353085 234.55293 281.952077 234.151923 
C 281.55107 233.750915 281.00711 233.5256 280.44 233.5256 
C 279.87289 233.5256 279.32893 233.750915 278.927923 234.151923 
C 278.526915 234.55293 278.3016 235.09689 278.3016 235.664 
C 278.3016 236.23111 278.526915 236.77507 278.927923 237.176077 
C 279.32893 237.577085 279.87289 237.8024 280.44 237.8024 
z
" clip-path="url(#pd98b5c2d4b)" style="fill: #222831; stroke: #222831; stroke-linejoin: miter"/>
   </g>
   <g id="text_10">
    <!-- $F_{1\to 2}$ -->
    <g style="fill: #1f6feb" transform="translate(365.0256 240.344) scale(0.13 -0.13)">
     <defs>
      <path id="Cmsy10-c" d="M 481 1472 
Q 428 1472 393 1512 
Q 359 1553 359 1600 
Q 359 1647 393 1687 
Q 428 1728 481 1728 
L 5338 1728 
Q 5094 1903 4906 2133 
Q 4719 2363 4594 2627 
Q 4469 2891 4416 3188 
Q 4416 3272 4481 3272 
L 4609 3272 
Q 4631 3272 4648 3253 
Q 4666 3234 4672 3213 
Q 4725 2938 4839 2702 
Q 4953 2466 5125 2262 
Q 5297 2059 5509 1912 
Q 5722 1766 5991 1672 
Q 6034 1644 6034 1600 
Q 6034 1550 5991 1538 
Q 5656 1422 5378 1192 
Q 5100 963 4919 652 
Q 4738 341 4672 -13 
Q 4666 -34 4647 -53 
Q 4628 -72 4609 -72 
L 4481 -72 
Q 4416 -72 4416 13 
Q 4497 450 4740 836 
Q 4984 1222 5338 1472 
L 481 1472 
z
" transform="scale(0.015625)"/>
     </defs>
     <use xlink:href="#Cmmi10-42" transform="translate(0 0.6875)"/>
     <use xlink:href="#Cmr10-64" transform="translate(64.306641 -14.312462) scale(0.7)"/>
     <use xlink:href="#Cmsy10-c" transform="translate(113.306681 -14.312462) scale(0.7)"/>
     <use xlink:href="#Cmr10-31" transform="translate(197.306721 -14.312462) scale(0.7)"/>
    </g>
   </g>
   <g id="text_11">
    <!-- $a$ -->
    <g style="fill: #222831" transform="translate(190.39 240.604) scale(0.13 -0.13)">
     <use xlink:href="#Cmmi10-79" transform="translate(0 0.8125)"/>
    </g>
   </g>
  </g>
 </g>
 <defs>
  <clipPath id="pd98b5c2d4b">
   <rect x="7.2" y="24.2" width="408.672" height="266.112"/>
  </clipPath>
 </defs>
 <defs>
  <pattern id="h8ba0600804" patternUnits="userSpaceOnUse" x="0" y="0" width="72" height="72">
   <rect x="0" y="0" width="73" height="73" fill="#eef1f5"/>
   <path d="M -36 36 
L 36 -36 
M -33 39 
L 39 -33 
M -30 42 
L 42 -30 
M -27 45 
L 45 -27 
M -24 48 
L 48 -24 
M -21 51 
L 51 -21 
M -18 54 
L 54 -18 
M -15 57 
L 57 -15 
M -12 60 
L 60 -12 
M -9 63 
L 63 -9 
M -6 66 
L 66 -6 
M -3 69 
L 69 -3 
M 0 72 
L 72 0 
M 3 75 
L 75 3 
M 6 78 
L 78 6 
M 9 81 
L 81 9 
M 12 84 
L 84 12 
M 15 87 
L 87 15 
M 18 90 
L 90 18 
M 21 93 
L 93 21 
M 24 96 
L 96 24 
M 27 99 
L 99 27 
M 30 102 
L 102 30 
M 33 105 
L 105 33 
M 36 108 
L 108 36 
" style="fill: #222831; stroke: #222831; stroke-width: 1.0; stroke-linecap: butt; stroke-linejoin: miter"/>
  </pattern>
 </defs>
</svg>
