<?xml version="1.0" encoding="utf-8" standalone="no"?>
<!DOCTYPE svg PUBLIC "-//W3C//DTD SVG 1.1//EN"
  "http://www.w3.org/Graphics/SVG/1.1/DTD/svg11.dtd">
<svg xmlns:xlink="http://www.w3.org/1999/xlink" width="382.68pt" height="295.056438pt" viewBox="0 0 382.68 295.056438" xmlns="http://www.w3.org/2000/svg" version="1.1">
 <metadata>
  <rdf:RDF xmlns:dc="http://purl.org/dc/elements/1.1/" xmlns:cc="http://creativecommons.org/ns#" xmlns:rdf="http://www.w3.org/1999/02/22-rdf-syntax-ns#">
   <cc:Work>
    <dc:type rdf:resource="http://purl.org/dc/dcmitype/StillImage"/>
    <dc:date>2026-06-17T23:23:23.566316</dc:date>
    <dc:format>image/svg+xml</dc:format>
    <dc:creator>
     <cc:Agent>
      <dc:title>Matplotlib v3.11.0, https://matplotlib.org/</dc:title>
     </cc:Agent>
    </dc:creator>
   </cc:Work>
  </rdf:RDF>
 </metadata>
 <defs>
  <style type="text/css">*{stroke-linejoin: round; stroke-linecap: butt}</style>
 </defs>
 <g id="figure_1">
  <g id="patch_1">
   <path d="M 0 295.056438 
L 382.68 295.056438 
L 382.68 0 
L 0 0 
z
" style="fill: #ffffff"/>
  </g>
  <g id="axes_1">
   <g id="line2d_1">
    <path d="M 229.176986 207.137534 
L 284.671233 65.879452 
" clip-path="url(#pfa9aeeba7a)" style="fill: none; stroke-dasharray: 5.18,2.24; stroke-dashoffset: 0; stroke: #d8dde3; stroke-width: 1.4"/>
   </g>
   <g id="line2d_2">
    <path d="M 113.143562 96.149041 
L 284.671233 65.879452 
" clip-path="url(#pfa9aeeba7a)" style="fill: none; stroke-dasharray: 5.18,2.24; stroke-dashoffset: 0; stroke: #d8dde3; stroke-width: 1.4"/>
   </g>
   <g id="text_1">
    <!-- 力的合成（平行四邊形法） -->
    <g style="fill: #222831" transform="translate(107.34 19.52) scale(0.14 -0.14)">
     <defs>
      <path id="NotoSansCJKjp-Regular-2c71" d="M 2624 5363 
L 2624 4256 
L 2624 3981 
L 531 3981 
L 531 3488 
L 2598 3488 
C 2502 2285 2080 877 339 -160 
C 461 -243 634 -422 710 -538 
C 2573 595 3008 2157 3098 3488 
L 5293 3488 
C 5165 1229 5024 320 4794 102 
C 4717 19 4634 0 4499 0 
C 4339 0 3930 6 3488 45 
C 3584 -96 3642 -307 3654 -448 
C 4051 -467 4461 -480 4678 -461 
C 4928 -435 5075 -390 5229 -198 
C 5517 115 5645 1075 5792 3725 
C 5798 3795 5805 3981 5805 3981 
L 3123 3981 
L 3123 4256 
L 3123 5363 
L 2624 5363 
z
" transform="scale(0.015625)"/>
      <path id="NotoSansCJKjp-Regular-6c33" d="M 3533 2707 
C 3885 2240 4320 1600 4512 1210 
L 4922 1466 
C 4710 1843 4269 2464 3904 2918 
L 3533 2707 
z
M 1536 5389 
C 1485 5082 1376 4659 1274 4346 
L 557 4346 
L 557 -346 
L 998 -346 
L 998 160 
L 2784 160 
L 2784 4346 
L 1715 4346 
C 1824 4621 1946 4979 2054 5299 
L 1536 5389 
z
M 998 3917 
L 2342 3917 
L 2342 2566 
L 998 2566 
L 998 3917 
z
M 998 595 
L 998 2144 
L 2342 2144 
L 2342 595 
L 998 595 
z
M 3827 5402 
C 3622 4518 3277 3635 2835 3066 
C 2950 3002 3149 2867 3238 2790 
C 3456 3098 3661 3488 3840 3923 
L 5478 3923 
C 5402 1357 5299 371 5094 154 
C 5018 64 4947 45 4819 45 
C 4672 45 4288 51 3866 83 
C 3955 -38 4013 -243 4026 -378 
C 4384 -397 4762 -410 4979 -390 
C 5210 -365 5350 -314 5498 -122 
C 5754 192 5843 1184 5939 4122 
C 5946 4186 5946 4365 5946 4365 
L 4013 4365 
C 4115 4666 4211 4986 4288 5299 
L 3827 5402 
z
" transform="scale(0.015625)"/>
      <path id="NotoSansCJKjp-Regular-2eac" d="M 1587 3283 
L 1587 2854 
L 4819 2854 
L 4819 3283 
L 1587 3283 
z
M 3187 4890 
C 3789 4070 4915 3168 5914 2637 
C 5997 2778 6118 2944 6234 3066 
C 5216 3520 4090 4410 3405 5363 
L 2912 5363 
C 2413 4531 1338 3552 218 2982 
C 320 2880 454 2714 518 2605 
C 1613 3194 2656 4109 3187 4890 
z
M 1254 2048 
L 1254 -518 
L 1728 -518 
L 1728 -250 
L 4685 -250 
L 4685 -518 
L 5171 -518 
L 5171 2048 
L 1254 2048 
z
M 1728 179 
L 1728 1613 
L 4685 1613 
L 4685 179 
L 1728 179 
z
" transform="scale(0.015625)"/>
      <path id="NotoSansCJKjp-Regular-4857" d="M 3482 5370 
C 3482 5005 3494 4640 3514 4288 
L 819 4288 
L 819 2490 
C 819 1658 762 550 230 -237 
C 346 -294 550 -461 634 -557 
C 1222 288 1318 1581 1318 2483 
L 1318 2528 
L 2490 2528 
C 2464 1427 2432 1018 2349 922 
C 2298 864 2240 851 2144 851 
C 2035 851 1760 851 1466 883 
C 1542 762 1594 570 1600 435 
C 1914 416 2208 416 2374 429 
C 2547 448 2656 493 2758 614 
C 2893 787 2925 1331 2957 2771 
C 2957 2835 2963 2976 2963 2976 
L 1318 2976 
L 1318 3821 
L 3546 3821 
C 3622 2784 3776 1837 4019 1101 
C 3597 614 3104 218 2534 -83 
C 2637 -179 2810 -378 2886 -480 
C 3379 -186 3821 166 4211 589 
C 4506 -70 4890 -467 5382 -467 
C 5875 -467 6054 -147 6138 947 
C 6010 992 5830 1101 5722 1210 
C 5683 358 5606 26 5421 26 
C 5094 26 4806 390 4570 1018 
C 5043 1632 5421 2362 5696 3200 
L 5216 3322 
C 5011 2675 4736 2093 4390 1581 
C 4224 2202 4102 2963 4032 3821 
L 6086 3821 
L 6086 4288 
L 4006 4288 
C 3987 4640 3981 4998 3981 5370 
L 3482 5370 
z
M 4294 5056 
C 4704 4845 5197 4518 5440 4288 
L 5741 4621 
C 5491 4838 4986 5152 4582 5350 
L 4294 5056 
z
" transform="scale(0.015625)"/>
      <path id="NotoSansCJKjp-Regular-e6ae" d="M 4448 2432 
C 4448 1184 4954 166 5722 -614 
L 6106 -416 
C 5370 346 4915 1293 4915 2432 
C 4915 3571 5370 4518 6106 5280 
L 5722 5478 
C 4954 4698 4448 3680 4448 2432 
z
" transform="scale(0.015625)"/>
      <path id="NotoSansCJKjp-Regular-41d6" d="M 1114 4032 
C 1363 3558 1613 2938 1702 2554 
L 2157 2714 
C 2067 3085 1805 3699 1549 4160 
L 1114 4032 
z
M 4832 4192 
C 4672 3725 4378 3072 4134 2669 
L 4550 2534 
C 4800 2918 5101 3533 5338 4051 
L 4832 4192 
z
M 333 2227 
L 333 1747 
L 2938 1747 
L 2938 -506 
L 3437 -506 
L 3437 1747 
L 6074 1747 
L 6074 2227 
L 3437 2227 
L 3437 4467 
L 5715 4467 
L 5715 4947 
L 672 4947 
L 672 4467 
L 2938 4467 
L 2938 2227 
L 333 2227 
z
" transform="scale(0.015625)"/>
      <path id="NotoSansCJKjp-Regular-8f66" d="M 2784 4992 
L 2784 4531 
L 5933 4531 
L 5933 4992 
L 2784 4992 
z
M 1709 5382 
C 1382 4915 762 4346 224 3981 
C 307 3891 442 3706 506 3597 
C 1082 4006 1741 4634 2170 5190 
L 1709 5382 
z
M 2502 3226 
L 2502 2765 
L 4659 2765 
L 4659 109 
C 4659 6 4614 -26 4493 -32 
C 4378 -38 3942 -38 3488 -19 
C 3558 -160 3629 -358 3648 -493 
C 4275 -493 4640 -493 4858 -422 
C 5069 -339 5146 -192 5146 102 
L 5146 2765 
L 6112 2765 
L 6112 3226 
L 2502 3226 
z
M 1965 4006 
C 1523 3277 819 2534 160 2061 
C 256 1965 429 1754 499 1658 
C 736 1850 986 2080 1229 2330 
L 1229 -531 
L 1702 -531 
L 1702 2854 
C 1971 3174 2214 3507 2419 3840 
L 1965 4006 
z
" transform="scale(0.015625)"/>
      <path id="NotoSansCJKjp-Regular-334b" d="M 576 4787 
L 576 -326 
L 1062 -326 
L 1062 128 
L 5344 128 
L 5344 -275 
L 5843 -275 
L 5843 4787 
L 576 4787 
z
M 1062 595 
L 1062 4326 
L 2259 4326 
C 2202 3130 2035 2234 1158 1741 
C 1267 1658 1402 1498 1459 1389 
C 2451 1965 2656 2970 2726 4326 
L 3571 4326 
L 3571 2483 
C 3571 2093 3616 1984 3731 1907 
C 3834 1824 4006 1792 4154 1792 
C 4243 1792 4499 1792 4589 1792 
C 4723 1792 4890 1811 4986 1850 
C 5088 1894 5165 1965 5203 2080 
C 5242 2195 5261 2502 5274 2765 
C 5152 2803 4992 2880 4902 2963 
C 4896 2682 4890 2470 4870 2374 
C 4851 2278 4813 2240 4774 2214 
C 4736 2202 4640 2195 4557 2195 
C 4474 2195 4320 2195 4262 2195 
C 4186 2195 4128 2202 4090 2221 
C 4051 2246 4038 2317 4038 2445 
L 4038 4326 
L 5344 4326 
L 5344 595 
L 1062 595 
z
" transform="scale(0.015625)"/>
      <path id="NotoSansCJKjp-Regular-9e93" d="M 531 5005 
C 902 4794 1338 4467 1530 4218 
L 1869 4544 
C 1664 4787 1222 5101 851 5299 
L 531 5005 
z
M 307 3699 
C 698 3501 1152 3174 1363 2938 
L 1683 3270 
C 1466 3514 1005 3814 621 4006 
L 307 3699 
z
M 2880 4314 
L 5043 4314 
L 5043 4045 
L 2880 4045 
L 2880 4314 
z
M 2880 3802 
L 5043 3802 
L 5043 3520 
L 2880 3520 
L 2880 3802 
z
M 2880 4819 
L 5043 4819 
L 5043 4550 
L 2880 4550 
L 2880 4819 
z
M 1542 2400 
L 275 2400 
L 275 1952 
L 1075 1952 
L 1075 717 
C 794 454 474 198 211 0 
L 461 -467 
C 774 -186 1069 90 1344 365 
C 1754 -141 2342 -365 3200 -397 
C 3923 -422 5299 -410 6016 -378 
C 6035 -237 6112 -19 6170 90 
C 5395 38 3910 19 3194 51 
C 2432 77 1856 294 1542 768 
L 1542 2400 
z
M 1946 3008 
L 1946 2355 
L 2368 2355 
L 2368 2733 
L 3213 2733 
C 3098 2419 2790 2266 2118 2176 
C 2189 2112 2285 1978 2317 1894 
C 3091 2035 3443 2266 3571 2733 
L 4115 2733 
L 4115 2496 
C 4115 2170 4205 2093 4589 2093 
C 4659 2093 5056 2093 5126 2093 
C 5382 2093 5485 2176 5517 2496 
C 5421 2522 5280 2560 5210 2611 
C 5197 2400 5171 2374 5069 2374 
C 4992 2374 4691 2374 4634 2374 
C 4499 2374 4486 2387 4486 2496 
L 4486 2733 
L 5562 2733 
L 5562 2355 
L 5997 2355 
L 5997 3008 
L 4134 3008 
L 4134 3277 
L 5510 3277 
L 5510 5062 
L 4064 5062 
C 4115 5139 4173 5229 4224 5325 
L 3731 5389 
C 3706 5299 3654 5178 3603 5062 
L 2426 5062 
L 2426 3277 
L 3686 3277 
L 3686 3008 
L 1946 3008 
z
M 1926 1843 
L 1926 1542 
L 3219 1542 
C 3091 1062 2765 762 1952 589 
C 2042 518 2150 352 2189 256 
C 2835 416 3206 659 3424 1005 
L 4922 1005 
C 4858 749 4800 614 4730 557 
C 4678 518 4627 518 4518 518 
C 4410 512 4128 518 3840 550 
C 3885 461 3923 333 3930 256 
C 4237 230 4525 224 4666 230 
C 4826 237 4934 256 5043 333 
C 5184 442 5274 666 5363 1133 
C 5382 1190 5389 1293 5389 1293 
L 3565 1293 
C 3597 1370 3622 1453 3642 1542 
L 6054 1542 
L 6054 1843 
L 4134 1843 
L 4134 2234 
L 3693 2234 
L 3693 1843 
L 1926 1843 
z
" transform="scale(0.015625)"/>
      <path id="NotoSansCJKjp-Regular-43ac" d="M 5414 5274 
C 5018 4755 4288 4211 3674 3904 
C 3795 3814 3936 3674 4019 3565 
C 4672 3923 5389 4499 5862 5088 
L 5414 5274 
z
M 5600 3507 
C 5171 2950 4397 2374 3738 2042 
C 3859 1946 4000 1798 4083 1702 
C 4768 2080 5542 2701 6035 3328 
L 5600 3507 
z
M 5747 1779 
C 5267 979 4358 269 3405 -122 
C 3533 -224 3674 -390 3750 -506 
C 4736 -51 5651 710 6195 1600 
L 5747 1779 
z
M 2586 4531 
L 2586 2874 
L 1555 2874 
L 1555 4531 
L 2586 4531 
z
M 262 2874 
L 262 2426 
L 1094 2426 
C 1069 1472 928 531 237 -230 
C 352 -294 518 -448 595 -550 
C 1363 288 1523 1350 1549 2426 
L 2586 2426 
L 2586 -506 
L 3059 -506 
L 3059 2426 
L 3750 2426 
L 3750 2874 
L 3059 2874 
L 3059 4531 
L 3667 4531 
L 3667 4979 
L 371 4979 
L 371 4531 
L 1101 4531 
L 1101 2874 
L 262 2874 
z
" transform="scale(0.015625)"/>
      <path id="NotoSansCJKjp-Regular-5ace" d="M 589 4979 
C 1030 4800 1574 4499 1837 4275 
L 2118 4672 
C 1843 4896 1293 5171 851 5331 
L 589 4979 
z
M 250 3213 
C 691 3059 1242 2784 1517 2579 
L 1779 2989 
C 1491 3194 934 3443 493 3578 
L 250 3213 
z
M 467 -115 
L 883 -435 
C 1242 166 1664 960 1984 1638 
L 1626 1946 
C 1280 1222 800 378 467 -115 
z
M 4550 1363 
C 4781 1088 5018 768 5222 448 
L 3027 320 
C 3309 877 3616 1606 3846 2227 
L 6080 2227 
L 6080 2688 
L 4250 2688 
L 4250 3872 
L 5779 3872 
L 5779 4326 
L 4250 4326 
L 4250 5376 
L 3763 5376 
L 3763 4326 
L 2291 4326 
L 2291 3872 
L 3763 3872 
L 3763 2688 
L 1971 2688 
L 1971 2227 
L 3283 2227 
C 3091 1613 2784 838 2515 294 
L 1978 269 
L 2042 -218 
C 2938 -160 4230 -70 5472 26 
C 5587 -173 5677 -365 5741 -525 
L 6189 -275 
C 5978 243 5446 1011 4966 1581 
L 4550 1363 
z
" transform="scale(0.015625)"/>
      <path id="NotoSansCJKjp-Regular-e6af" d="M 1952 2432 
C 1952 3680 1446 4698 678 5478 
L 294 5280 
C 1030 4518 1485 3571 1485 2432 
C 1485 1293 1030 346 294 -416 
L 678 -614 
C 1446 166 1952 1184 1952 2432 
z
" transform="scale(0.015625)"/>
     </defs>
     <use xlink:href="#NotoSansCJKjp-Regular-2c71"/>
     <use xlink:href="#NotoSansCJKjp-Regular-6c33" transform="translate(100 0)"/>
     <use xlink:href="#NotoSansCJKjp-Regular-2eac" transform="translate(200 0)"/>
     <use xlink:href="#NotoSansCJKjp-Regular-4857" transform="translate(300 0)"/>
     <use xlink:href="#NotoSansCJKjp-Regular-e6ae" transform="translate(400 0)"/>
     <use xlink:href="#NotoSansCJKjp-Regular-41d6" transform="translate(500 0)"/>
     <use xlink:href="#NotoSansCJKjp-Regular-8f66" transform="translate(600 0)"/>
     <use xlink:href="#NotoSansCJKjp-Regular-334b" transform="translate(700 0)"/>
     <use xlink:href="#NotoSansCJKjp-Regular-9e93" transform="translate(800 0)"/>
     <use xlink:href="#NotoSansCJKjp-Regular-43ac" transform="translate(900 0)"/>
     <use xlink:href="#NotoSansCJKjp-Regular-5ace" transform="translate(1000 0)"/>
     <use xlink:href="#NotoSansCJKjp-Regular-e6af" transform="translate(1100 0)"/>
    </g>
   </g>
   <g id="patch_2">
    <path d="M 57.649315 237.407123 
Q 143.413151 222.272329 226.534535 207.603849 
" clip-path="url(#pfa9aeeba7a)" style="fill: none; stroke: #1f6feb; stroke-width: 2.4; stroke-linecap: round"/>
    <path d="M 218.818466 205.309883 
L 226.534535 207.603849 
L 220.06972 212.400324 
z
" clip-path="url(#pfa9aeeba7a)" style="fill: #1f6feb; stroke: #1f6feb; stroke-width: 2.4; stroke-linecap: round"/>
   </g>
   <g id="patch_3">
    <path d="M 57.649315 237.407123 
Q 85.396438 166.778082 112.162413 98.646509 
" clip-path="url(#pfa9aeeba7a)" style="fill: none; stroke: #1a7f37; stroke-width: 2.4; stroke-linecap: round"/>
    <path d="M 106.179011 104.031572 
L 112.162413 98.646509 
L 112.880422 106.664269 
z
" clip-path="url(#pfa9aeeba7a)" style="fill: #1a7f37; stroke: #1a7f37; stroke-width: 2.4; stroke-linecap: round"/>
   </g>
   <g id="patch_4">
    <path d="M 57.649315 237.407123 
Q 171.160274 151.643288 282.173513 67.766618 
" clip-path="url(#pfa9aeeba7a)" style="fill: none; stroke: #d1242f; stroke-width: 2.8; stroke-linecap: round"/>
    <path d="M 274.258669 69.234694 
L 282.173513 67.766618 
L 278.599067 74.979339 
z
" clip-path="url(#pfa9aeeba7a)" style="fill: #d1242f; stroke: #d1242f; stroke-width: 2.8; stroke-linecap: round"/>
   </g>
   <g id="text_2">
    <!-- $\vec F_1$ -->
    <g style="fill: #1f6feb" transform="translate(236.744384 228.871315) scale(0.13 -0.13)">
     <defs>
      <path id="Cmmi10-6e" d="M 1281 3809 
Q 1231 3809 1198 3846 
Q 1166 3884 1166 3938 
Q 1166 3984 1198 4023 
Q 1231 4063 1281 4063 
L 3547 4063 
Q 3378 4291 3378 4441 
Q 3378 4497 3417 4533 
Q 3456 4569 3506 4569 
Q 3613 4569 3634 4469 
Q 3697 4194 3938 4044 
Q 4000 4003 4000 3938 
Q 4000 3859 3938 3828 
Q 3575 3647 3353 3347 
Q 3328 3303 3256 3303 
Q 3209 3303 3168 3340 
Q 3128 3378 3128 3431 
Q 3128 3547 3438 3809 
L 1281 3809 
z
" transform="scale(0.015625)"/>
      <path id="Cmmi10-42" d="M 300 0 
Q 238 0 238 84 
Q 241 100 250 139 
Q 259 178 276 201 
Q 294 225 319 225 
Q 709 225 863 269 
Q 947 297 984 441 
L 1863 3956 
Q 1875 4019 1875 4044 
Q 1875 4113 1797 4122 
Q 1678 4147 1338 4147 
Q 1275 4147 1275 4231 
Q 1278 4247 1287 4286 
Q 1297 4325 1314 4348 
Q 1331 4372 1356 4372 
L 4738 4372 
Q 4800 4372 4800 4288 
L 4647 2963 
Q 4647 2944 4625 2925 
Q 4603 2906 4581 2906 
L 4525 2906 
Q 4459 2906 4459 2988 
Q 4500 3278 4500 3463 
Q 4500 3781 4362 3931 
Q 4225 4081 4015 4114 
Q 3806 4147 3438 4147 
L 2753 4147 
Q 2578 4147 2522 4117 
Q 2466 4088 2419 3928 
L 2009 2297 
L 2491 2297 
Q 2728 2297 2875 2322 
Q 3022 2347 3119 2419 
Q 3216 2491 3280 2627 
Q 3344 2763 3397 2988 
Q 3416 3047 3463 3047 
L 3519 3047 
Q 3584 3047 3584 2963 
L 3194 1381 
Q 3166 1325 3128 1325 
L 3072 1325 
Q 3009 1325 3009 1409 
Q 3025 1475 3034 1519 
Q 3044 1563 3058 1645 
Q 3072 1728 3072 1791 
Q 3072 1975 2909 2025 
Q 2747 2075 2484 2075 
L 1959 2075 
L 1544 416 
Q 1528 353 1528 353 
Q 1528 278 1575 269 
Q 1741 225 2228 225 
Q 2291 225 2291 141 
Q 2269 50 2256 25 
Q 2244 0 2181 0 
L 300 0 
z
" transform="scale(0.015625)"/>
      <path id="Cmr10-64" d="M 594 0 
L 594 225 
Q 1394 225 1394 428 
L 1394 3788 
Q 1063 3628 556 3628 
L 556 3853 
Q 1341 3853 1741 4263 
L 1831 4263 
Q 1853 4263 1873 4245 
Q 1894 4228 1894 4206 
L 1894 428 
Q 1894 225 2694 225 
L 2694 0 
L 594 0 
z
" transform="scale(0.015625)"/>
     </defs>
     <use xlink:href="#Cmmi10-6e" transform="translate(4.601562 29.609375)"/>
     <use xlink:href="#Cmmi10-42" transform="translate(0 0.40625)"/>
     <use xlink:href="#Cmr10-64" transform="translate(75.285541 -14.593712) scale(0.7)"/>
    </g>
   </g>
   <g id="text_3">
    <!-- $\vec F_2$ -->
    <g style="fill: #1a7f37" transform="translate(76.744849 96.69411) scale(0.13 -0.13)">
     <defs>
      <path id="Cmr10-31" d="M 319 0 
L 319 172 
Q 319 188 331 206 
L 1325 1306 
Q 1550 1550 1690 1715 
Q 1831 1881 1968 2097 
Q 2106 2313 2186 2536 
Q 2266 2759 2266 3009 
Q 2266 3272 2169 3511 
Q 2072 3750 1880 3894 
Q 1688 4038 1416 4038 
Q 1138 4038 916 3870 
Q 694 3703 603 3438 
Q 628 3444 672 3444 
Q 816 3444 917 3347 
Q 1019 3250 1019 3097 
Q 1019 2950 917 2848 
Q 816 2747 672 2747 
Q 522 2747 420 2851 
Q 319 2956 319 3097 
Q 319 3338 409 3548 
Q 500 3759 670 3923 
Q 841 4088 1055 4175 
Q 1269 4263 1509 4263 
Q 1875 4263 2190 4108 
Q 2506 3953 2690 3670 
Q 2875 3388 2875 3009 
Q 2875 2731 2753 2481 
Q 2631 2231 2440 2026 
Q 2250 1822 1953 1562 
Q 1656 1303 1563 1216 
L 838 519 
L 1453 519 
Q 1906 519 2211 526 
Q 2516 534 2534 550 
Q 2609 631 2688 1141 
L 2875 1141 
L 2694 0 
L 319 0 
z
" transform="scale(0.015625)"/>
     </defs>
     <use xlink:href="#Cmmi10-6e" transform="translate(4.601562 29.609375)"/>
     <use xlink:href="#Cmmi10-42" transform="translate(0 0.40625)"/>
     <use xlink:href="#Cmr10-31" transform="translate(75.285541 -14.593712) scale(0.7)"/>
    </g>
   </g>
   <g id="text_4">
    <!-- $\vec R=\vec F_1+\vec F_2$ -->
    <g style="fill: #d1242f" transform="translate(294.761096 62.388575) scale(0.13 -0.13)">
     <defs>
      <path id="Cmmi10-70" d="M 313 0 
Q 250 0 250 84 
Q 253 100 262 139 
Q 272 178 289 201 
Q 306 225 331 225 
Q 722 225 878 269 
Q 959 297 997 441 
L 1875 3956 
Q 1888 4019 1888 4044 
Q 1888 4113 1813 4122 
Q 1691 4147 1350 4147 
Q 1288 4147 1288 4231 
Q 1291 4247 1300 4286 
Q 1309 4325 1326 4348 
Q 1344 4372 1369 4372 
L 3309 4372 
Q 3541 4372 3791 4319 
Q 4041 4266 4250 4152 
Q 4459 4038 4593 3848 
Q 4728 3659 4728 3406 
Q 4728 3084 4515 2831 
Q 4303 2578 3978 2408 
Q 3653 2238 3347 2169 
Q 3597 2078 3756 1879 
Q 3916 1681 3916 1422 
Q 3916 1388 3914 1370 
Q 3913 1353 3909 1331 
L 3859 763 
Q 3853 638 3847 550 
Q 3841 463 3841 409 
Q 3841 234 3892 129 
Q 3944 25 4097 25 
Q 4297 25 4448 211 
Q 4600 397 4647 616 
Q 4675 672 4709 672 
L 4769 672 
Q 4831 672 4831 588 
Q 4784 403 4682 237 
Q 4581 72 4426 -34 
Q 4272 -141 4091 -141 
Q 3716 -141 3452 26 
Q 3188 194 3188 550 
Q 3188 684 3213 788 
L 3353 1356 
Q 3378 1434 3378 1538 
Q 3378 1803 3198 1954 
Q 3019 2106 2747 2106 
L 1959 2106 
L 1538 416 
Q 1522 363 1522 325 
Q 1522 259 1600 250 
Q 1722 225 2059 225 
Q 2125 225 2125 141 
Q 2103 50 2090 25 
Q 2078 0 2016 0 
L 313 0 
z
M 1997 2272 
L 2706 2272 
Q 3403 2272 3756 2625 
Q 3919 2788 4014 3039 
Q 4109 3291 4109 3541 
Q 4109 3778 3970 3912 
Q 3831 4047 3626 4097 
Q 3422 4147 3175 4147 
L 2747 4147 
Q 2572 4147 2515 4117 
Q 2459 4088 2413 3928 
L 1997 2272 
z
" transform="scale(0.015625)"/>
      <path id="Cmr10-29" d="M 481 850 
Q 428 850 393 890 
Q 359 931 359 978 
Q 359 1031 393 1068 
Q 428 1106 481 1106 
L 4500 1106 
Q 4547 1106 4581 1068 
Q 4616 1031 4616 978 
Q 4616 931 4581 890 
Q 4547 850 4500 850 
L 481 850 
z
M 481 2094 
Q 428 2094 393 2131 
Q 359 2169 359 2222 
Q 359 2269 393 2309 
Q 428 2350 481 2350 
L 4500 2350 
Q 4547 2350 4581 2309 
Q 4616 2269 4616 2222 
Q 4616 2169 4581 2131 
Q 4547 2094 4500 2094 
L 481 2094 
z
" transform="scale(0.015625)"/>
      <path id="Cmr10-4c" d="M 481 1472 
Q 428 1472 393 1512 
Q 359 1553 359 1600 
Q 359 1647 393 1687 
Q 428 1728 481 1728 
L 2363 1728 
L 2363 3616 
Q 2363 3666 2400 3698 
Q 2438 3731 2491 3731 
Q 2538 3731 2578 3698 
Q 2619 3666 2619 3616 
L 2619 1728 
L 4500 1728 
Q 4547 1728 4581 1687 
Q 4616 1647 4616 1600 
Q 4616 1553 4581 1512 
Q 4547 1472 4500 1472 
L 2619 1472 
L 2619 -416 
Q 2619 -466 2578 -498 
Q 2538 -531 2491 -531 
Q 2438 -531 2400 -498 
Q 2363 -466 2363 -416 
L 2363 1472 
L 481 1472 
z
" transform="scale(0.015625)"/>
     </defs>
     <use xlink:href="#Cmmi10-6e" transform="translate(4.675781 29.609375)"/>
     <use xlink:href="#Cmmi10-70" transform="translate(0 0.40625)"/>
     <use xlink:href="#Cmr10-29" transform="translate(95.878963 0.40625)"/>
     <use xlink:href="#Cmmi10-6e" transform="translate(198.16613 29.609375)"/>
     <use xlink:href="#Cmmi10-42" transform="translate(193.564568 0.40625)"/>
     <use xlink:href="#Cmr10-64" transform="translate(268.850108 -14.593712) scale(0.7)"/>
     <use xlink:href="#Cmr10-4c" transform="translate(329.570581 0.40625)"/>
     <use xlink:href="#Cmmi10-6e" transform="translate(431.857748 29.609375)"/>
     <use xlink:href="#Cmmi10-42" transform="translate(427.256185 0.40625)"/>
     <use xlink:href="#Cmr10-31" transform="translate(502.541726 -14.593712) scale(0.7)"/>
    </g>
   </g>
   <g id="text_5">
    <!-- 起點 O -->
    <g style="fill: #222831" transform="translate(41.335799 264.289315) scale(0.11 -0.11)">
     <defs>
      <path id="NotoSansCJKjp-Regular-98af" d="M 634 2477 
C 614 1338 544 307 166 -339 
C 282 -390 493 -506 576 -563 
C 762 -211 883 237 960 742 
C 1421 -134 2189 -346 3552 -346 
L 6016 -346 
C 6048 -205 6131 19 6214 128 
C 5811 109 3859 109 3546 115 
C 2944 115 2470 160 2099 301 
L 2099 1606 
L 3142 1606 
L 3142 2029 
L 2099 2029 
L 2099 2982 
L 3206 2982 
L 3206 3418 
L 1997 3418 
L 1997 4224 
L 3046 4224 
L 3046 4653 
L 1997 4653 
L 1997 5370 
L 1542 5370 
L 1542 4653 
L 474 4653 
L 474 4224 
L 1542 4224 
L 1542 3418 
L 307 3418 
L 307 2982 
L 1658 2982 
L 1658 544 
C 1382 762 1190 1088 1043 1562 
C 1062 1843 1082 2138 1088 2445 
L 634 2477 
z
M 3507 3302 
L 3507 1210 
C 3507 666 3686 525 4288 525 
C 4416 525 5274 525 5414 525 
C 5958 525 6099 762 6157 1670 
C 6029 1702 5830 1779 5728 1862 
C 5696 1088 5658 960 5382 960 
C 5184 960 4474 960 4333 960 
C 4026 960 3968 998 3968 1210 
L 3968 2874 
L 5331 2874 
L 5331 2714 
L 5792 2714 
L 5792 5069 
L 3443 5069 
L 3443 4646 
L 5331 4646 
L 5331 3302 
L 3507 3302 
z
" transform="scale(0.015625)"/>
      <path id="NotoSansCJKjp-Regular-b7c4" d="M 966 4474 
C 1069 4166 1152 3757 1165 3494 
L 1421 3565 
C 1402 3821 1312 4230 1203 4538 
L 966 4474 
z
M 1178 813 
C 1267 454 1338 0 1331 -307 
L 1664 -262 
C 1664 38 1594 499 1498 851 
L 1178 813 
z
M 1792 851 
C 1939 518 2067 90 2106 -192 
L 2432 -115 
C 2387 166 2246 589 2099 915 
L 1792 851 
z
M 2406 934 
C 2618 634 2848 224 2938 -45 
L 3258 96 
C 3162 365 2931 762 2701 1056 
L 2406 934 
z
M 634 838 
C 582 390 454 -70 205 -333 
L 538 -512 
C 806 -224 915 269 973 742 
L 634 838 
z
M 2272 4557 
C 2214 4262 2086 3808 1997 3533 
L 2202 3456 
C 2317 3706 2445 4122 2554 4454 
L 2272 4557 
z
M 4314 5363 
L 4314 2330 
L 3379 2330 
L 3379 -506 
L 3827 -506 
L 3827 -211 
L 5440 -211 
L 5440 -480 
L 5901 -480 
L 5901 2330 
L 4781 2330 
L 4781 3526 
L 6150 3526 
L 6150 3974 
L 4781 3974 
L 4781 5363 
L 4314 5363 
z
M 3827 237 
L 3827 1894 
L 5440 1894 
L 5440 237 
L 3827 237 
z
M 877 4794 
L 1568 4794 
L 1568 3245 
L 877 3245 
L 877 4794 
z
M 1894 4794 
L 2637 4794 
L 2637 3245 
L 1894 3245 
L 1894 4794 
z
M 448 2451 
L 448 2067 
L 1517 2067 
L 1517 1568 
L 314 1510 
L 333 1088 
C 1075 1133 2138 1203 3155 1274 
L 3168 1658 
L 1946 1594 
L 1946 2067 
L 3072 2067 
L 3072 2451 
L 1946 2451 
L 1946 2893 
L 3027 2893 
L 3027 5146 
L 493 5146 
L 493 2893 
L 1517 2893 
L 1517 2451 
L 448 2451 
z
" transform="scale(0.015625)"/>
      <path id="NotoSansCJKjp-Regular-1" transform="scale(0.015625)"/>
      <path id="NotoSansCJKjp-Regular-30" d="M 2374 -83 
C 3552 -83 4378 858 4378 2362 
C 4378 3866 3552 4774 2374 4774 
C 1197 4774 371 3866 371 2362 
C 371 858 1197 -83 2374 -83 
z
M 2374 435 
C 1530 435 979 1190 979 2362 
C 979 3533 1530 4256 2374 4256 
C 3219 4256 3770 3533 3770 2362 
C 3770 1190 3219 435 2374 435 
z
" transform="scale(0.015625)"/>
     </defs>
     <use xlink:href="#NotoSansCJKjp-Regular-98af"/>
     <use xlink:href="#NotoSansCJKjp-Regular-b7c4" transform="translate(100 0)"/>
     <use xlink:href="#NotoSansCJKjp-Regular-1" transform="translate(200 0)"/>
     <use xlink:href="#NotoSansCJKjp-Regular-30" transform="translate(222.40625 0)"/>
    </g>
   </g>
  </g>
 </g>
 <defs>
  <clipPath id="pfa9aeeba7a">
   <rect x="7.2" y="25.52" width="368.28" height="262.336438"/>
  </clipPath>
 </defs>
</svg>
