<?xml version="1.0" encoding="utf-8" standalone="no"?>
<!DOCTYPE svg PUBLIC "-//W3C//DTD SVG 1.1//EN"
  "http://www.w3.org/Graphics/SVG/1.1/DTD/svg11.dtd">
<svg xmlns:xlink="http://www.w3.org/1999/xlink" width="382.68pt" height="293.852414pt" viewBox="0 0 382.68 293.852414" xmlns="http://www.w3.org/2000/svg" version="1.1">
 <metadata>
  <rdf:RDF xmlns:dc="http://purl.org/dc/elements/1.1/" xmlns:cc="http://creativecommons.org/ns#" xmlns:rdf="http://www.w3.org/1999/02/22-rdf-syntax-ns#">
   <cc:Work>
    <dc:type rdf:resource="http://purl.org/dc/dcmitype/StillImage"/>
    <dc:date>2026-06-17T23:23:23.708082</dc:date>
    <dc:format>image/svg+xml</dc:format>
    <dc:creator>
     <cc:Agent>
      <dc:title>Matplotlib v3.11.0, https://matplotlib.org/</dc:title>
     </cc:Agent>
    </dc:creator>
   </cc:Work>
  </rdf:RDF>
 </metadata>
 <defs>
  <style type="text/css">*{stroke-linejoin: round; stroke-linecap: butt}</style>
 </defs>
 <g id="figure_1">
  <g id="patch_1">
   <path d="M 0 293.852414 
L 382.68 293.852414 
L 382.68 0 
L 0 0 
z
" style="fill: #ffffff"/>
  </g>
  <g id="axes_1">
   <g id="patch_2">
    <path d="M 41.064828 248.554483 
L 320.449655 248.554483 
L 320.449655 73.975467 
z
" clip-path="url(#pf42ee4acf0)" style="fill: url(#h1499469e5e); stroke: #222831; stroke-width: 1.6; stroke-linejoin: miter"/>
   </g>
   <g id="patch_3">
    <path d="M 79.162759 248.554483 
C 79.162759 245.002415 78.665992 241.467737 77.686909 238.05327 
C 76.707827 234.638803 75.256015 231.37798 73.373705 228.365655 
" clip-path="url(#pf42ee4acf0)" style="fill: none; stroke: #222831; stroke-width: 1.4; stroke-linejoin: miter"/>
   </g>
   <g id="patch_4">
    <path d="M 158.99442 166.378202 
L 194.893173 143.946171 
L 180.088033 120.252994 
L 144.189279 142.685025 
z
" clip-path="url(#pf42ee4acf0)" style="fill: #dbe7ff; stroke: #222831; stroke-width: 1.6; stroke-linejoin: miter"/>
   </g>
   <g id="text_1">
    <!-- $\theta$ -->
    <g style="fill: #222831" transform="translate(92.70869 235.008552) scale(0.14 -0.14)">
     <defs>
      <path id="Cmmi10-12" d="M 1031 -72 
Q 741 -72 566 140 
Q 391 353 323 653 
Q 256 953 256 1247 
L 256 1253 
Q 256 1572 317 1915 
Q 378 2259 493 2601 
Q 609 2944 744 3213 
Q 838 3400 986 3631 
Q 1134 3863 1317 4064 
Q 1500 4266 1711 4389 
Q 1922 4513 2138 4513 
L 2144 4513 
Q 2375 4513 2529 4384 
Q 2684 4256 2770 4056 
Q 2856 3856 2890 3628 
Q 2925 3400 2925 3194 
Q 2925 2709 2794 2204 
Q 2663 1700 2431 1228 
Q 2344 1050 2189 809 
Q 2034 569 1861 378 
Q 1688 188 1472 58 
Q 1256 -72 1038 -72 
L 1031 -72 
z
M 1044 97 
Q 1256 97 1451 323 
Q 1647 550 1794 873 
Q 1941 1197 2052 1536 
Q 2163 1875 2216 2113 
L 909 2113 
Q 809 1709 753 1417 
Q 697 1125 697 844 
Q 697 97 1044 97 
z
M 959 2338 
L 2272 2338 
Q 2341 2619 2381 2808 
Q 2422 2997 2450 3206 
Q 2478 3416 2478 3597 
Q 2478 4347 2138 4347 
Q 1731 4347 1436 3692 
Q 1141 3038 959 2338 
z
" transform="scale(0.015625)"/>
     </defs>
     <use xlink:href="#Cmmi10-12" transform="translate(0 0.484375)"/>
    </g>
   </g>
   <g id="text_2">
    <!-- 斜面上的自由體圖（重力分解 + 正向力 + 摩擦） -->
    <g style="fill: #222831" transform="translate(60.050938 18.2) scale(0.125 -0.125)">
     <defs>
      <path id="NotoSansCJKjp-Regular-4e67" d="M 2438 1606 
C 2669 1184 2899 627 2976 275 
L 3373 448 
C 3290 787 3053 1331 2816 1747 
L 2438 1606 
z
M 794 1734 
C 672 1216 454 678 186 314 
C 294 262 480 147 563 77 
C 832 467 1082 1069 1229 1638 
L 794 1734 
z
M 3379 3059 
C 3770 2816 4224 2432 4429 2163 
L 4755 2477 
C 4544 2746 4077 3110 3693 3341 
L 3379 3059 
z
M 3603 4659 
C 3974 4390 4397 3987 4589 3706 
L 4934 4006 
C 4736 4282 4307 4666 3930 4922 
L 3603 4659 
z
M 1581 5376 
C 1318 4768 813 4000 96 3430 
C 198 3360 346 3200 416 3098 
C 557 3213 691 3341 813 3462 
L 813 3232 
L 1664 3232 
L 1664 2541 
L 326 2541 
L 326 2106 
L 1664 2106 
L 1664 26 
C 1664 -58 1638 -77 1555 -83 
C 1472 -83 1210 -83 915 -77 
C 979 -205 1050 -390 1069 -518 
C 1485 -518 1741 -506 1901 -429 
C 2067 -358 2125 -230 2125 19 
L 2125 2106 
L 3283 2106 
L 3283 2541 
L 2125 2541 
L 2125 3232 
L 2957 3232 
L 2957 3661 
L 998 3661 
C 1376 4083 1664 4518 1875 4896 
C 2291 4538 2746 4026 2970 3699 
L 3334 4090 
C 3053 4461 2496 4998 2042 5376 
L 1581 5376 
z
M 3290 1331 
L 3392 883 
L 5069 1242 
L 5069 -499 
L 5542 -499 
L 5542 1344 
L 6227 1491 
L 6131 1933 
L 5542 1811 
L 5542 5370 
L 5069 5370 
L 5069 1709 
L 3290 1331 
z
" transform="scale(0.015625)"/>
      <path id="NotoSansCJKjp-Regular-aaab" d="M 2490 2138 
L 3846 2138 
L 3846 1414 
L 2490 1414 
L 2490 2138 
z
M 2490 2528 
L 2490 3238 
L 3846 3238 
L 3846 2528 
L 2490 2528 
z
M 2490 1024 
L 3846 1024 
L 3846 275 
L 2490 275 
L 2490 1024 
z
M 371 4954 
L 371 4493 
L 2842 4493 
C 2797 4230 2726 3930 2662 3686 
L 666 3686 
L 666 -512 
L 1126 -512 
L 1126 -173 
L 5248 -173 
L 5248 -512 
L 5734 -512 
L 5734 3686 
L 3155 3686 
L 3405 4493 
L 6048 4493 
L 6048 4954 
L 371 4954 
z
M 1126 275 
L 1126 3238 
L 2048 3238 
L 2048 275 
L 1126 275 
z
M 5248 275 
L 4288 275 
L 4288 3238 
L 5248 3238 
L 5248 275 
z
" transform="scale(0.015625)"/>
      <path id="NotoSansCJKjp-Regular-2515" d="M 2733 5280 
L 2733 275 
L 326 275 
L 326 -205 
L 6080 -205 
L 6080 275 
L 3238 275 
L 3238 2822 
L 5638 2822 
L 5638 3302 
L 3238 3302 
L 3238 5280 
L 2733 5280 
z
" transform="scale(0.015625)"/>
      <path id="NotoSansCJKjp-Regular-6c33" d="M 3533 2707 
C 3885 2240 4320 1600 4512 1210 
L 4922 1466 
C 4710 1843 4269 2464 3904 2918 
L 3533 2707 
z
M 1536 5389 
C 1485 5082 1376 4659 1274 4346 
L 557 4346 
L 557 -346 
L 998 -346 
L 998 160 
L 2784 160 
L 2784 4346 
L 1715 4346 
C 1824 4621 1946 4979 2054 5299 
L 1536 5389 
z
M 998 3917 
L 2342 3917 
L 2342 2566 
L 998 2566 
L 998 3917 
z
M 998 595 
L 998 2144 
L 2342 2144 
L 2342 595 
L 998 595 
z
M 3827 5402 
C 3622 4518 3277 3635 2835 3066 
C 2950 3002 3149 2867 3238 2790 
C 3456 3098 3661 3488 3840 3923 
L 5478 3923 
C 5402 1357 5299 371 5094 154 
C 5018 64 4947 45 4819 45 
C 4672 45 4288 51 3866 83 
C 3955 -38 4013 -243 4026 -378 
C 4384 -397 4762 -410 4979 -390 
C 5210 -365 5350 -314 5498 -122 
C 5754 192 5843 1184 5939 4122 
C 5946 4186 5946 4365 5946 4365 
L 4013 4365 
C 4115 4666 4211 4986 4288 5299 
L 3827 5402 
z
" transform="scale(0.015625)"/>
      <path id="NotoSansCJKjp-Regular-8205" d="M 1530 2630 
L 4954 2630 
L 4954 1690 
L 1530 1690 
L 1530 2630 
z
M 1530 3085 
L 1530 4038 
L 4954 4038 
L 4954 3085 
L 1530 3085 
z
M 1530 1242 
L 4954 1242 
L 4954 294 
L 1530 294 
L 1530 1242 
z
M 2912 5389 
C 2861 5133 2758 4781 2662 4499 
L 1043 4499 
L 1043 -518 
L 1530 -518 
L 1530 -160 
L 4954 -160 
L 4954 -486 
L 5459 -486 
L 5459 4499 
L 3149 4499 
C 3258 4742 3366 5037 3469 5312 
L 2912 5389 
z
" transform="scale(0.015625)"/>
      <path id="NotoSansCJKjp-Regular-69ba" d="M 1210 1786 
L 2938 1786 
L 2938 365 
L 1210 365 
L 1210 1786 
z
M 5184 1786 
L 5184 365 
L 3424 365 
L 3424 1786 
L 5184 1786 
z
M 1210 2259 
L 1210 3654 
L 2938 3654 
L 2938 2259 
L 1210 2259 
z
M 5184 2259 
L 3424 2259 
L 3424 3654 
L 5184 3654 
L 5184 2259 
z
M 2938 5376 
L 2938 4134 
L 730 4134 
L 730 -512 
L 1210 -512 
L 1210 -115 
L 5184 -115 
L 5184 -486 
L 5683 -486 
L 5683 4134 
L 3424 4134 
L 3424 5376 
L 2938 5376 
z
" transform="scale(0.015625)"/>
      <path id="NotoSansCJKjp-Regular-b0c7" d="M 2963 2598 
L 2963 2246 
L 6112 2246 
L 6112 2598 
L 2963 2598 
z
M 3686 1619 
L 5363 1619 
L 5363 1062 
L 3686 1062 
L 3686 1619 
z
M 5075 742 
C 5011 525 4883 198 4774 -13 
L 4832 -32 
L 4128 -32 
L 4218 0 
C 4179 205 4070 512 3930 730 
L 3584 614 
C 3693 422 3789 166 3834 -32 
L 2848 -32 
L 2848 -390 
L 6157 -390 
L 6157 -32 
L 5146 -32 
L 5478 627 
L 5075 742 
z
M 3162 4787 
L 3162 2918 
L 5901 2918 
L 5901 4787 
L 5101 4787 
L 5101 5376 
L 4742 5376 
L 4742 4787 
L 4282 4787 
L 4282 5376 
L 3923 5376 
L 3923 4787 
L 3162 4787 
z
M 3283 1939 
L 3283 742 
L 5779 742 
L 5779 1939 
L 3283 1939 
z
M 3533 3693 
L 3981 3693 
L 3981 3251 
L 3533 3251 
L 3533 3693 
z
M 4282 3693 
L 4742 3693 
L 4742 3251 
L 4282 3251 
L 4282 3693 
z
M 5043 3693 
L 5510 3693 
L 5510 3251 
L 5043 3251 
L 5043 3693 
z
M 3533 4454 
L 3981 4454 
L 3981 4019 
L 3533 4019 
L 3533 4454 
z
M 4282 4454 
L 4742 4454 
L 4742 4019 
L 4282 4019 
L 4282 4454 
z
M 5043 4454 
L 5510 4454 
L 5510 4019 
L 5043 4019 
L 5043 4454 
z
M 1178 1440 
L 2138 1440 
L 2138 973 
L 1178 973 
L 1178 1440 
z
M 1178 1792 
L 1178 2246 
L 2138 2246 
L 2138 1792 
L 1178 1792 
z
M 390 3373 
L 390 2445 
L 762 2445 
L 762 -512 
L 1178 -512 
L 1178 621 
L 2138 621 
L 2138 -51 
C 2138 -115 2118 -134 2048 -141 
C 1990 -141 1792 -141 1562 -134 
C 1619 -243 1677 -403 1690 -512 
C 2035 -512 2240 -506 2381 -442 
C 2522 -378 2554 -262 2554 -58 
L 2554 2592 
L 762 2592 
L 762 3021 
L 2560 3021 
L 2560 2445 
L 2944 2445 
L 2944 3373 
L 2566 3373 
L 2566 5152 
L 762 5152 
L 762 3373 
L 390 3373 
z
M 1466 4371 
L 1466 3373 
L 1126 3373 
L 1126 4787 
L 2182 4787 
L 2182 4371 
L 1466 4371 
z
M 2182 3373 
L 1766 3373 
L 1766 4064 
L 2182 4064 
L 2182 3373 
z
" transform="scale(0.015625)"/>
      <path id="NotoSansCJKjp-Regular-33ac" d="M 2317 4122 
L 4058 4122 
L 4058 3699 
L 2317 3699 
L 2317 4122 
z
M 2099 2234 
L 4275 2234 
L 4275 806 
L 2099 806 
L 2099 2234 
z
M 1715 2534 
L 1715 506 
L 4678 506 
L 4678 2534 
L 1715 2534 
z
M 2810 1709 
L 3552 1709 
L 3552 1331 
L 2810 1331 
L 2810 1709 
z
M 2509 1965 
L 2509 1082 
L 3872 1082 
L 3872 1965 
L 2509 1965 
z
M 1280 3117 
L 1280 2816 
L 5133 2816 
L 5133 3117 
L 3386 3117 
L 3386 3411 
L 4474 3411 
L 4474 4403 
L 1920 4403 
L 1920 3411 
L 2970 3411 
L 2970 3117 
L 1280 3117 
z
M 525 5114 
L 525 -506 
L 979 -506 
L 979 -250 
L 5421 -250 
L 5421 -506 
L 5888 -506 
L 5888 5114 
L 525 5114 
z
M 979 154 
L 979 4710 
L 5421 4710 
L 5421 154 
L 979 154 
z
" transform="scale(0.015625)"/>
      <path id="NotoSansCJKjp-Regular-e6ae" d="M 4448 2432 
C 4448 1184 4954 166 5722 -614 
L 6106 -416 
C 5370 346 4915 1293 4915 2432 
C 4915 3571 5370 4518 6106 5280 
L 5722 5478 
C 4954 4698 4448 3680 4448 2432 
z
" transform="scale(0.015625)"/>
      <path id="NotoSansCJKjp-Regular-a106" d="M 1018 3456 
L 1018 1466 
L 2938 1466 
L 2938 1024 
L 813 1024 
L 813 640 
L 2938 640 
L 2938 83 
L 333 83 
L 333 -307 
L 6074 -307 
L 6074 83 
L 3418 83 
L 3418 640 
L 5670 640 
L 5670 1024 
L 3418 1024 
L 3418 1466 
L 5427 1466 
L 5427 3456 
L 3418 3456 
L 3418 3846 
L 6042 3846 
L 6042 4243 
L 3418 4243 
L 3418 4736 
C 4166 4794 4870 4870 5421 4966 
L 5165 5338 
C 4154 5158 2342 5037 851 4998 
C 896 4902 947 4730 954 4621 
C 1581 4634 2266 4659 2938 4698 
L 2938 4243 
L 371 4243 
L 371 3846 
L 2938 3846 
L 2938 3456 
L 1018 3456 
z
M 1485 2304 
L 2938 2304 
L 2938 1818 
L 1485 1818 
L 1485 2304 
z
M 3418 2304 
L 4941 2304 
L 4941 1818 
L 3418 1818 
L 3418 2304 
z
M 1485 3110 
L 2938 3110 
L 2938 2630 
L 1485 2630 
L 1485 3110 
z
M 3418 3110 
L 4941 3110 
L 4941 2630 
L 3418 2630 
L 3418 3110 
z
" transform="scale(0.015625)"/>
      <path id="NotoSansCJKjp-Regular-2c71" d="M 2624 5363 
L 2624 4256 
L 2624 3981 
L 531 3981 
L 531 3488 
L 2598 3488 
C 2502 2285 2080 877 339 -160 
C 461 -243 634 -422 710 -538 
C 2573 595 3008 2157 3098 3488 
L 5293 3488 
C 5165 1229 5024 320 4794 102 
C 4717 19 4634 0 4499 0 
C 4339 0 3930 6 3488 45 
C 3584 -96 3642 -307 3654 -448 
C 4051 -467 4461 -480 4678 -461 
C 4928 -435 5075 -390 5229 -198 
C 5517 115 5645 1075 5792 3725 
C 5798 3795 5805 3981 5805 3981 
L 3123 3981 
L 3123 4256 
L 3123 5363 
L 2624 5363 
z
" transform="scale(0.015625)"/>
      <path id="NotoSansCJKjp-Regular-2b86" d="M 2074 5248 
C 1677 4256 966 3373 147 2829 
C 262 2739 474 2554 563 2451 
C 1363 3059 2118 4019 2586 5101 
L 2074 5248 
z
M 4307 5261 
L 3846 5075 
C 4326 4122 5139 3085 5850 2509 
C 5939 2643 6118 2829 6253 2931 
C 5549 3424 4723 4397 4307 5261 
z
M 1197 2957 
L 1197 2490 
L 2509 2490 
C 2368 1402 2010 378 486 -122 
C 595 -224 736 -416 800 -544 
C 2445 51 2854 1216 3027 2490 
L 4685 2490 
C 4608 864 4512 224 4346 58 
C 4282 -6 4205 -26 4077 -26 
C 3923 -26 3533 -19 3110 19 
C 3200 -115 3258 -320 3270 -461 
C 3674 -486 4070 -493 4288 -474 
C 4506 -454 4653 -410 4781 -243 
C 5005 0 5094 736 5190 2726 
C 5197 2790 5197 2957 5197 2957 
L 1197 2957 
z
" transform="scale(0.015625)"/>
      <path id="NotoSansCJKjp-Regular-926e" d="M 1677 3379 
L 1677 2662 
L 1101 2662 
L 1101 3379 
L 1677 3379 
z
M 2029 3379 
L 2605 3379 
L 2605 2662 
L 2029 2662 
L 2029 3379 
z
M 1037 3750 
C 1152 3962 1261 4186 1357 4422 
L 2067 4422 
C 1984 4192 1875 3942 1779 3750 
L 1037 3750 
z
M 1210 5382 
C 1011 4595 659 3834 205 3341 
C 307 3277 493 3130 563 3053 
L 698 3219 
L 698 2048 
C 698 1325 653 371 218 -307 
C 314 -346 493 -454 563 -525 
C 864 -58 1005 576 1062 1171 
L 2605 1171 
L 2605 19 
C 2605 -70 2573 -96 2483 -96 
C 2400 -102 2106 -102 1779 -96 
C 1837 -205 1907 -390 1926 -506 
C 2374 -506 2630 -499 2797 -429 
C 2957 -352 3014 -218 3014 13 
L 3014 3219 
C 3110 3142 3219 2995 3270 2906 
C 4070 3258 4384 3885 4518 4646 
L 5536 4646 
C 5498 3898 5446 3597 5376 3514 
C 5331 3462 5280 3456 5184 3456 
C 5101 3456 4864 3462 4608 3482 
C 4672 3373 4710 3206 4723 3085 
C 4986 3066 5254 3066 5389 3078 
C 5549 3091 5651 3136 5734 3238 
C 5875 3392 5933 3802 5978 4870 
C 5984 4934 5990 5050 5990 5050 
L 3200 5050 
L 3200 4646 
L 4070 4646 
C 3955 4045 3699 3526 3014 3238 
L 3014 3750 
L 2202 3750 
C 2355 4026 2509 4352 2611 4646 
L 2330 4826 
L 2259 4806 
L 1504 4806 
C 1555 4966 1606 5126 1651 5286 
L 1210 5382 
z
M 1677 2298 
L 1677 1555 
L 1088 1555 
L 1101 2048 
L 1101 2298 
L 1677 2298 
z
M 2029 2298 
L 2605 2298 
L 2605 1555 
L 2029 1555 
L 2029 2298 
z
M 3642 2944 
C 3533 2406 3334 1869 3053 1504 
C 3162 1459 3347 1363 3430 1306 
C 3552 1478 3661 1690 3763 1926 
L 4480 1926 
L 4480 1152 
L 3123 1152 
L 3123 723 
L 4480 723 
L 4480 -486 
L 4934 -486 
L 4934 723 
L 6163 723 
L 6163 1152 
L 4934 1152 
L 4934 1926 
L 6048 1926 
L 6048 2349 
L 4934 2349 
L 4934 3002 
L 4480 3002 
L 4480 2349 
L 3917 2349 
C 3968 2515 4019 2694 4058 2867 
L 3642 2944 
z
" transform="scale(0.015625)"/>
      <path id="NotoSansCJKjp-Regular-1" transform="scale(0.015625)"/>
      <path id="NotoSansCJKjp-Regular-c" d="M 1542 742 
L 2010 742 
L 2010 2144 
L 3315 2144 
L 3315 2579 
L 2010 2579 
L 2010 3981 
L 1542 3981 
L 1542 2579 
L 243 2579 
L 243 2144 
L 1542 2144 
L 1542 742 
z
" transform="scale(0.015625)"/>
      <path id="NotoSansCJKjp-Regular-585c" d="M 1203 3264 
L 1203 243 
L 333 243 
L 333 -224 
L 6080 -224 
L 6080 243 
L 3616 243 
L 3616 2259 
L 5619 2259 
L 5619 2726 
L 3616 2726 
L 3616 4435 
L 5869 4435 
L 5869 4909 
L 576 4909 
L 576 4435 
L 3110 4435 
L 3110 243 
L 1696 243 
L 1696 3264 
L 1203 3264 
z
" transform="scale(0.015625)"/>
      <path id="NotoSansCJKjp-Regular-2eb8" d="M 2803 5389 
C 2714 5062 2554 4614 2394 4269 
L 634 4269 
L 634 -512 
L 1107 -512 
L 1107 3802 
L 5325 3802 
L 5325 128 
C 5325 13 5286 -26 5158 -26 
C 5024 -32 4582 -38 4122 -13 
C 4192 -154 4262 -378 4288 -512 
C 4877 -512 5274 -506 5504 -429 
C 5728 -346 5805 -192 5805 128 
L 5805 4269 
L 2925 4269 
C 3085 4576 3258 4947 3398 5293 
L 2803 5389 
z
M 2387 2522 
L 4006 2522 
L 4006 1267 
L 2387 1267 
L 2387 2522 
z
M 1946 2950 
L 1946 371 
L 2387 371 
L 2387 832 
L 4454 832 
L 4454 2950 
L 1946 2950 
z
" transform="scale(0.015625)"/>
      <path id="NotoSansCJKjp-Regular-4c35" d="M 5184 2483 
C 4410 2323 2912 2221 1696 2189 
C 1734 2112 1779 1978 1786 1888 
C 2317 1894 2893 1920 3450 1958 
L 3450 1562 
L 1594 1562 
L 1594 1229 
L 3450 1229 
L 3450 800 
L 1254 800 
L 1254 454 
L 3450 454 
L 3450 -26 
C 3450 -115 3418 -141 3309 -154 
C 3200 -154 2790 -154 2381 -141 
C 2438 -256 2502 -410 2528 -518 
C 3085 -518 3430 -518 3642 -461 
C 3859 -403 3923 -294 3923 -32 
L 3923 454 
L 6099 454 
L 6099 800 
L 3923 800 
L 3923 1229 
L 5805 1229 
L 5805 1562 
L 3923 1562 
L 3923 1990 
C 4512 2042 5062 2112 5491 2208 
L 5184 2483 
z
M 2355 4410 
L 2355 3968 
L 1440 3968 
L 1440 3616 
L 2246 3616 
C 1997 3283 1619 2963 1267 2803 
C 1344 2739 1459 2618 1517 2528 
C 1805 2688 2112 2963 2355 3264 
L 2355 2451 
L 2726 2451 
L 2726 3219 
C 2950 3053 3219 2848 3328 2739 
L 3578 3014 
C 3450 3104 2925 3424 2726 3539 
L 2726 3616 
L 3616 3616 
L 3616 3968 
L 2726 3968 
L 2726 4410 
L 2355 4410 
z
M 4659 4410 
L 4659 3968 
L 3782 3968 
L 3782 3616 
L 4525 3616 
C 4282 3296 3917 2989 3571 2835 
C 3654 2771 3763 2650 3821 2566 
C 4109 2720 4416 2989 4659 3290 
L 4659 2509 
L 5037 2509 
L 5037 3309 
C 5286 3008 5613 2714 5888 2547 
C 5952 2637 6067 2765 6157 2829 
C 5824 2995 5440 3309 5190 3616 
L 6010 3616 
L 6010 3968 
L 5037 3968 
L 5037 4410 
L 4659 4410 
z
M 736 4870 
L 736 2867 
C 736 1933 691 666 186 -237 
C 288 -288 480 -442 557 -531 
C 1101 435 1184 1875 1184 2867 
L 1184 4461 
L 6086 4461 
L 6086 4870 
L 3622 4870 
L 3622 5376 
L 3130 5376 
L 3130 4870 
L 736 4870 
z
" transform="scale(0.015625)"/>
      <path id="NotoSansCJKjp-Regular-4d19" d="M 4845 653 
C 5152 358 5510 -64 5677 -333 
L 6035 -109 
C 5862 147 5498 550 5184 838 
L 4845 653 
z
M 2899 806 
C 2714 474 2413 128 2106 -115 
C 2208 -166 2387 -282 2464 -346 
C 2771 -90 3104 320 3309 704 
L 2899 806 
z
M 3008 3507 
L 3629 3507 
C 3571 3347 3501 3194 3418 3046 
C 3290 3162 3104 3283 2925 3379 
L 3008 3507 
z
M 1050 5376 
L 1050 4083 
L 269 4083 
L 269 3635 
L 1050 3635 
L 1050 2266 
L 173 1997 
L 294 1530 
L 1050 1786 
L 1050 38 
C 1050 -51 1018 -77 941 -77 
C 864 -83 614 -83 339 -77 
C 397 -205 454 -397 474 -512 
C 877 -518 1126 -499 1274 -429 
C 1434 -352 1491 -224 1491 38 
L 1491 1933 
L 2182 2170 
L 2125 2534 
L 2131 2528 
C 2214 2592 2298 2656 2368 2720 
C 2547 2605 2733 2451 2854 2330 
C 2598 2080 2304 1882 2010 1754 
C 2093 1683 2195 1530 2246 1434 
C 2650 1632 3027 1920 3347 2298 
L 3347 1997 
L 4954 1997 
L 4954 2355 
C 5235 2010 5574 1734 5958 1536 
C 6022 1645 6144 1792 6234 1869 
C 5875 2029 5562 2266 5299 2566 
C 5562 2848 5862 3270 6029 3680 
L 5766 3821 
L 5702 3802 
L 4755 3802 
L 4755 3488 
L 5523 3488 
C 5402 3270 5235 3034 5069 2854 
C 4806 3232 4602 3674 4467 4160 
L 4109 4070 
C 4288 3411 4570 2829 4941 2368 
L 3405 2368 
C 3706 2746 3942 3206 4083 3744 
L 3846 3840 
L 3776 3821 
L 3168 3821 
C 3213 3930 3258 4032 3296 4141 
L 2918 4192 
C 2765 3718 2419 3168 1856 2771 
C 1920 2739 2010 2669 2074 2598 
L 1491 2406 
L 1491 3635 
L 2080 3635 
L 2080 4083 
L 1491 4083 
L 1491 5376 
L 1050 5376 
z
M 2490 1466 
L 2490 1082 
L 3891 1082 
L 3891 -83 
C 3891 -147 3872 -166 3802 -173 
C 3731 -173 3501 -173 3226 -166 
C 3283 -269 3341 -410 3360 -518 
C 3731 -518 3974 -518 4128 -454 
C 4288 -403 4326 -301 4326 -90 
L 4326 1082 
L 5747 1082 
L 5747 1466 
L 2490 1466 
z
M 3827 5382 
L 3827 4806 
L 2221 4806 
L 2221 3872 
L 2643 3872 
L 2643 4422 
L 5600 4422 
L 5600 3898 
L 6035 3898 
L 6035 4806 
L 4288 4806 
L 4288 5382 
L 3827 5382 
z
M 2778 3168 
C 2957 3059 3136 2925 3264 2803 
C 3200 2707 3130 2624 3059 2541 
C 2931 2656 2746 2803 2566 2912 
C 2643 2995 2714 3078 2778 3168 
z
" transform="scale(0.015625)"/>
      <path id="NotoSansCJKjp-Regular-e6af" d="M 1952 2432 
C 1952 3680 1446 4698 678 5478 
L 294 5280 
C 1030 4518 1485 3571 1485 2432 
C 1485 1293 1030 346 294 -416 
L 678 -614 
C 1446 166 1952 1184 1952 2432 
z
" transform="scale(0.015625)"/>
     </defs>
     <use xlink:href="#NotoSansCJKjp-Regular-4e67"/>
     <use xlink:href="#NotoSansCJKjp-Regular-aaab" transform="translate(100 0)"/>
     <use xlink:href="#NotoSansCJKjp-Regular-2515" transform="translate(200 0)"/>
     <use xlink:href="#NotoSansCJKjp-Regular-6c33" transform="translate(300 0)"/>
     <use xlink:href="#NotoSansCJKjp-Regular-8205" transform="translate(400 0)"/>
     <use xlink:href="#NotoSansCJKjp-Regular-69ba" transform="translate(500 0)"/>
     <use xlink:href="#NotoSansCJKjp-Regular-b0c7" transform="translate(600 0)"/>
     <use xlink:href="#NotoSansCJKjp-Regular-33ac" transform="translate(700 0)"/>
     <use xlink:href="#NotoSansCJKjp-Regular-e6ae" transform="translate(800 0)"/>
     <use xlink:href="#NotoSansCJKjp-Regular-a106" transform="translate(900 0)"/>
     <use xlink:href="#NotoSansCJKjp-Regular-2c71" transform="translate(1000 0)"/>
     <use xlink:href="#NotoSansCJKjp-Regular-2b86" transform="translate(1100 0)"/>
     <use xlink:href="#NotoSansCJKjp-Regular-926e" transform="translate(1200 0)"/>
     <use xlink:href="#NotoSansCJKjp-Regular-1" transform="translate(1300 0)"/>
     <use xlink:href="#NotoSansCJKjp-Regular-c" transform="translate(1322.40625 0)"/>
     <use xlink:href="#NotoSansCJKjp-Regular-1" transform="translate(1377.90625 0)"/>
     <use xlink:href="#NotoSansCJKjp-Regular-585c" transform="translate(1400.3125 0)"/>
     <use xlink:href="#NotoSansCJKjp-Regular-2eb8" transform="translate(1500.3125 0)"/>
     <use xlink:href="#NotoSansCJKjp-Regular-2c71" transform="translate(1600.3125 0)"/>
     <use xlink:href="#NotoSansCJKjp-Regular-1" transform="translate(1700.3125 0)"/>
     <use xlink:href="#NotoSansCJKjp-Regular-c" transform="translate(1722.71875 0)"/>
     <use xlink:href="#NotoSansCJKjp-Regular-1" transform="translate(1778.21875 0)"/>
     <use xlink:href="#NotoSansCJKjp-Regular-4c35" transform="translate(1800.625 0)"/>
     <use xlink:href="#NotoSansCJKjp-Regular-4d19" transform="translate(1900.625 0)"/>
     <use xlink:href="#NotoSansCJKjp-Regular-e6af" transform="translate(2000.625 0)"/>
    </g>
   </g>
   <g id="patch_5">
    <path d="M 169.541226 143.315598 
Q 169.541226 187.763184 169.541226 229.527489 
" clip-path="url(#pf42ee4acf0)" style="fill: none; stroke: #d1242f; stroke-width: 2.4; stroke-linecap: round"/>
    <path d="M 173.141226 222.327489 
L 169.541226 229.527489 
L 165.941226 222.327489 
z
" clip-path="url(#pf42ee4acf0)" style="fill: #d1242f; stroke: #d1242f; stroke-width: 2.4; stroke-linecap: round"/>
   </g>
   <g id="patch_6">
    <path d="M 169.541226 143.315598 
Q 149.352398 111.00672 130.585493 80.973394 
" clip-path="url(#pf42ee4acf0)" style="fill: none; stroke: #1f6feb; stroke-width: 2.4; stroke-linecap: round"/>
    <path d="M 131.347939 88.98705 
L 130.585493 80.973394 
L 137.453885 85.171631 
z
" clip-path="url(#pf42ee4acf0)" style="fill: #1f6feb; stroke: #1f6feb; stroke-width: 2.4; stroke-linecap: round"/>
   </g>
   <g id="patch_7">
    <path d="M 169.541226 143.315598 
Q 198.260229 125.369974 224.703679 108.846272 
" clip-path="url(#pf42ee4acf0)" style="fill: none; stroke: #bf8700; stroke-width: 2.4; stroke-linecap: round"/>
    <path d="M 216.690024 109.608717 
L 224.703679 108.846272 
L 220.505442 115.714663 
z
" clip-path="url(#pf42ee4acf0)" style="fill: #bf8700; stroke: #bf8700; stroke-width: 2.4; stroke-linecap: round"/>
   </g>
   <g id="patch_8">
    <path d="M 169.541226 143.315598 
Q 141.719692 160.700422 116.17371 176.663323 
" clip-path="url(#pf42ee4acf0)" style="fill: none; stroke-dasharray: 8.88,3.84; stroke-dashoffset: 0; stroke: #6b7280; stroke-width: 2.4; stroke-linecap: round"/>
    <path d="M 124.187366 175.900877 
L 116.17371 176.663323 
L 120.371947 169.794931 
z
" clip-path="url(#pf42ee4acf0)" style="fill: #6b7280; stroke-dasharray: 8.88,3.84; stroke-dashoffset: 0; stroke: #6b7280; stroke-width: 2.4; stroke-linecap: round"/>
   </g>
   <g id="patch_9">
    <path d="M 169.541226 143.315598 
Q 186.365249 170.239663 201.767349 194.888176 
" clip-path="url(#pf42ee4acf0)" style="fill: none; stroke-dasharray: 8.88,3.84; stroke-dashoffset: 0; stroke: #6b7280; stroke-width: 2.4; stroke-linecap: round"/>
    <path d="M 201.004904 186.87452 
L 201.767349 194.888176 
L 194.898958 190.689939 
z
" clip-path="url(#pf42ee4acf0)" style="fill: #6b7280; stroke-dasharray: 8.88,3.84; stroke-dashoffset: 0; stroke: #6b7280; stroke-width: 2.4; stroke-linecap: round"/>
   </g>
   <g id="patch_10">
    <path d="M 169.541226 145.43215 
C 170.102542 145.43215 170.640944 145.209137 171.037854 144.812226 
C 171.434765 144.415316 171.657778 143.876914 171.657778 143.315598 
C 171.657778 142.754282 171.434765 142.21588 171.037854 141.81897 
C 170.640944 141.42206 170.102542 141.199046 169.541226 141.199046 
C 168.97991 141.199046 168.441508 141.42206 168.044598 141.81897 
C 167.647688 142.21588 167.424674 142.754282 167.424674 143.315598 
C 167.424674 143.876914 167.647688 144.415316 168.044598 144.812226 
C 168.441508 145.209137 168.97991 145.43215 169.541226 145.43215 
z
" clip-path="url(#pf42ee4acf0)" style="fill: #222831; stroke: #222831; stroke-linejoin: miter"/>
   </g>
   <g id="text_3">
    <!-- $mg$ -->
    <g style="fill: #d1242f" transform="translate(178.854054 247.148529) scale(0.13 -0.13)">
     <defs>
      <path id="Cmmi10-45" d="M 494 109 
Q 494 147 500 166 
L 978 2075 
Q 1025 2253 1025 2388 
Q 1025 2663 838 2663 
Q 638 2663 541 2423 
Q 444 2184 353 1819 
Q 353 1800 334 1789 
Q 316 1778 300 1778 
L 225 1778 
Q 203 1778 187 1801 
Q 172 1825 172 1844 
Q 241 2122 305 2315 
Q 369 2509 505 2668 
Q 641 2828 844 2828 
Q 1084 2828 1268 2676 
Q 1453 2525 1453 2291 
Q 1644 2541 1900 2684 
Q 2156 2828 2444 2828 
Q 2747 2828 2967 2673 
Q 3188 2519 3188 2234 
Q 3384 2513 3648 2670 
Q 3913 2828 4225 2828 
Q 4556 2828 4757 2648 
Q 4959 2469 4959 2138 
Q 4959 1875 4842 1503 
Q 4725 1131 4550 672 
Q 4459 450 4459 288 
Q 4459 97 4609 97 
Q 4859 97 5025 365 
Q 5191 634 5259 941 
Q 5278 978 5313 978 
L 5388 978 
Q 5413 978 5430 961 
Q 5447 944 5447 922 
Q 5447 916 5441 903 
Q 5353 541 5136 234 
Q 4919 -72 4594 -72 
Q 4369 -72 4209 83 
Q 4050 238 4050 459 
Q 4050 572 4103 709 
Q 4284 1191 4404 1569 
Q 4525 1947 4525 2234 
Q 4525 2413 4453 2538 
Q 4381 2663 4213 2663 
Q 3863 2663 3606 2448 
Q 3350 2234 3163 1881 
Q 3150 1819 3144 1784 
L 2731 141 
Q 2709 53 2632 -9 
Q 2556 -72 2463 -72 
Q 2388 -72 2330 -22 
Q 2272 28 2272 109 
Q 2272 147 2278 166 
L 2688 1797 
Q 2753 2059 2753 2234 
Q 2753 2413 2679 2538 
Q 2606 2663 2431 2663 
Q 2197 2663 2000 2559 
Q 1803 2456 1656 2286 
Q 1509 2116 1388 1881 
L 953 141 
Q 931 53 854 -9 
Q 778 -72 684 -72 
Q 606 -72 550 -22 
Q 494 28 494 109 
z
" transform="scale(0.015625)"/>
      <path id="Cmmi10-2f" d="M 91 -916 
Q 91 -759 198 -642 
Q 306 -525 459 -525 
Q 563 -525 633 -589 
Q 703 -653 703 -756 
Q 703 -872 637 -964 
Q 572 -1056 469 -1094 
Q 641 -1147 1006 -1147 
Q 1300 -1147 1544 -920 
Q 1788 -694 1863 -397 
L 2047 353 
Q 1700 0 1325 0 
Q 1050 0 854 140 
Q 659 281 556 515 
Q 453 750 453 1013 
Q 453 1306 573 1628 
Q 694 1950 911 2225 
Q 1128 2500 1409 2664 
Q 1691 2828 2003 2828 
Q 2191 2828 2341 2725 
Q 2491 2622 2578 2450 
Q 2641 2700 2853 2700 
Q 2934 2700 2990 2651 
Q 3047 2603 3047 2522 
Q 3047 2503 3045 2493 
Q 3044 2484 3041 2472 
L 2309 -434 
Q 2259 -634 2125 -800 
Q 1991 -966 1809 -1077 
Q 1628 -1188 1412 -1250 
Q 1197 -1313 997 -1313 
Q 631 -1313 361 -1242 
Q 91 -1172 91 -916 
z
M 1338 166 
Q 1747 166 2144 728 
L 2497 2125 
Q 2453 2347 2322 2505 
Q 2191 2663 1991 2663 
Q 1778 2663 1589 2489 
Q 1400 2316 1275 2075 
Q 1156 1844 1045 1411 
Q 934 978 934 728 
Q 934 509 1034 337 
Q 1134 166 1338 166 
z
" transform="scale(0.015625)"/>
     </defs>
     <use xlink:href="#Cmmi10-45" transform="translate(0 0.8125)"/>
     <use xlink:href="#Cmmi10-2f" transform="translate(87.792969 0.8125)"/>
    </g>
   </g>
   <g id="text_4">
    <!-- $N$ -->
    <g style="fill: #1f6feb" transform="translate(118.290563 74.663154) scale(0.13 -0.13)">
     <defs>
      <path id="Cmmi10-5d" d="M 300 0 
Q 238 0 238 84 
Q 241 100 250 139 
Q 259 178 276 201 
Q 294 225 319 225 
Q 931 225 1031 616 
L 1900 4116 
Q 1722 4147 1338 4147 
Q 1275 4147 1275 4231 
Q 1278 4247 1287 4286 
Q 1297 4325 1314 4348 
Q 1331 4372 1356 4372 
L 2463 4372 
Q 2509 4372 2522 4331 
L 3944 947 
L 4653 3781 
Q 4666 3850 4666 3878 
Q 4666 4147 4172 4147 
Q 4109 4147 4109 4231 
Q 4131 4313 4143 4342 
Q 4156 4372 4219 4372 
L 5588 4372 
Q 5650 4372 5650 4288 
Q 5647 4272 5637 4233 
Q 5628 4194 5611 4170 
Q 5594 4147 5569 4147 
Q 4956 4147 4856 3756 
L 3938 56 
Q 3916 0 3872 0 
L 3794 0 
Q 3750 0 3738 44 
L 2106 3916 
L 2094 3956 
Q 2081 3969 2081 3975 
L 1234 588 
Q 1228 572 1225 548 
Q 1222 525 1216 494 
Q 1216 328 1359 276 
Q 1503 225 1716 225 
Q 1778 225 1778 141 
Q 1756 53 1740 26 
Q 1725 0 1672 0 
L 300 0 
z
" transform="scale(0.015625)"/>
     </defs>
     <use xlink:href="#Cmmi10-5d" transform="translate(0 0.6875)"/>
    </g>
   </g>
   <g id="text_5">
    <g id="patch_11">
     <path d="M 232.768919 108.34479 
L 239.138919 108.34479 
Q 240.698919 108.34479 240.698919 106.78479 
L 240.698919 92.61479 
Q 240.698919 91.05479 239.138919 91.05479 
L 232.768919 91.05479 
Q 231.208919 91.05479 231.208919 92.61479 
L 231.208919 106.78479 
Q 231.208919 108.34479 232.768919 108.34479 
z
" style="fill: #ffffff; opacity: 0.9"/>
    </g>
    <!-- $f$ -->
    <g style="fill: #bf8700" transform="translate(232.768919 104.05479) scale(0.13 -0.13)">
     <defs>
      <path id="Cmmi10-57" d="M 622 -1056 
Q 741 -1147 909 -1147 
Q 1138 -1147 1281 -641 
Q 1341 -397 1606 966 
L 1900 2534 
L 1350 2534 
Q 1288 2534 1288 2619 
Q 1313 2759 1369 2759 
L 1941 2759 
L 2016 3175 
Q 2053 3369 2084 3508 
Q 2116 3647 2152 3765 
Q 2188 3884 2259 4031 
Q 2369 4241 2555 4377 
Q 2741 4513 2956 4513 
Q 3097 4513 3230 4461 
Q 3363 4409 3447 4306 
Q 3531 4203 3531 4063 
Q 3531 3900 3423 3779 
Q 3316 3659 3163 3659 
Q 3059 3659 2986 3723 
Q 2913 3788 2913 3891 
Q 2913 4031 3008 4136 
Q 3103 4241 3244 4256 
Q 3125 4347 2950 4347 
Q 2853 4347 2767 4256 
Q 2681 4166 2656 4063 
Q 2616 3900 2478 3181 
L 2400 2759 
L 3059 2759 
Q 3122 2759 3122 2675 
Q 3119 2659 3109 2620 
Q 3100 2581 3083 2557 
Q 3066 2534 3041 2534 
L 2356 2534 
L 2059 972 
Q 2003 631 1929 279 
Q 1856 -72 1723 -442 
Q 1591 -813 1384 -1063 
Q 1178 -1313 897 -1313 
Q 681 -1313 511 -1189 
Q 341 -1066 341 -863 
Q 341 -700 445 -579 
Q 550 -459 709 -459 
Q 816 -459 887 -523 
Q 959 -588 959 -691 
Q 959 -828 857 -942 
Q 756 -1056 622 -1056 
z
" transform="scale(0.015625)"/>
     </defs>
     <use xlink:href="#Cmmi10-57" transform="translate(0 0.484375)"/>
    </g>
   </g>
   <g id="text_6">
    <g id="patch_12">
     <path d="M 83.808533 200.414441 
L 122.448533 200.414441 
Q 123.888533 200.414441 123.888533 198.974441 
L 123.888533 185.894441 
Q 123.888533 184.454441 122.448533 184.454441 
L 83.808533 184.454441 
Q 82.368533 184.454441 82.368533 185.894441 
L 82.368533 198.974441 
Q 82.368533 200.414441 83.808533 200.414441 
z
" style="fill: #ffffff; opacity: 0.9"/>
    </g>
    <!-- $mg\sin\theta$ -->
    <g style="fill: #6b7280" transform="translate(83.808533 196.454441) scale(0.12 -0.12)">
     <defs>
      <path id="Cmr10-52" d="M 213 -19 
L 213 1025 
Q 213 1075 269 1075 
L 347 1075 
Q 384 1075 397 1025 
Q 575 97 1259 97 
Q 1563 97 1767 234 
Q 1972 372 1972 659 
Q 1972 866 1812 1011 
Q 1653 1156 1434 1209 
L 1006 1294 
Q 791 1341 614 1437 
Q 438 1534 325 1695 
Q 213 1856 213 2069 
Q 213 2350 361 2529 
Q 509 2709 746 2789 
Q 984 2869 1259 2869 
Q 1588 2869 1831 2694 
L 2016 2853 
Q 2016 2869 2047 2869 
L 2094 2869 
Q 2113 2869 2128 2851 
Q 2144 2834 2144 2816 
L 2144 1978 
Q 2144 1919 2094 1919 
L 2016 1919 
Q 1959 1919 1959 1978 
Q 1959 2313 1773 2516 
Q 1588 2719 1253 2719 
Q 966 2719 755 2612 
Q 544 2506 544 2247 
Q 544 2069 695 1955 
Q 847 1841 1050 1791 
L 1484 1709 
Q 1703 1659 1892 1540 
Q 2081 1422 2192 1240 
Q 2303 1059 2303 831 
Q 2303 600 2223 429 
Q 2144 259 2001 146 
Q 1859 34 1665 -19 
Q 1472 -72 1259 -72 
Q 859 -72 575 197 
L 341 -56 
Q 341 -72 306 -72 
L 269 -72 
Q 213 -72 213 -19 
z
" transform="scale(0.015625)"/>
      <path id="Cmr10-24" d="M 197 0 
L 197 225 
Q 416 225 556 259 
Q 697 294 697 428 
L 697 2175 
Q 697 2422 601 2478 
Q 506 2534 225 2534 
L 225 2759 
L 1147 2828 
L 1147 428 
Q 1147 294 1269 259 
Q 1391 225 1594 225 
L 1594 0 
L 197 0 
z
M 469 3928 
Q 469 4069 575 4175 
Q 681 4281 819 4281 
Q 909 4281 993 4234 
Q 1078 4188 1125 4103 
Q 1172 4019 1172 3928 
Q 1172 3791 1065 3684 
Q 959 3578 819 3578 
Q 681 3578 575 3684 
Q 469 3791 469 3928 
z
" transform="scale(0.015625)"/>
      <path id="Cmr10-74" d="M 191 0 
L 191 225 
Q 409 225 550 259 
Q 691 294 691 428 
L 691 2175 
Q 691 2347 639 2423 
Q 588 2500 491 2517 
Q 394 2534 191 2534 
L 191 2759 
L 1119 2828 
L 1119 2203 
Q 1247 2478 1498 2653 
Q 1750 2828 2047 2828 
Q 2491 2828 2714 2615 
Q 2938 2403 2938 1966 
L 2938 428 
Q 2938 294 3078 259 
Q 3219 225 3438 225 
L 3438 0 
L 1972 0 
L 1972 225 
Q 2191 225 2331 259 
Q 2472 294 2472 428 
L 2472 1947 
Q 2472 2259 2381 2461 
Q 2291 2663 2009 2663 
Q 1638 2663 1398 2366 
Q 1159 2069 1159 1691 
L 1159 428 
Q 1159 294 1300 259 
Q 1441 225 1656 225 
L 1656 0 
L 191 0 
z
" transform="scale(0.015625)"/>
     </defs>
     <use xlink:href="#Cmmi10-45" transform="translate(0 0.484375)"/>
     <use xlink:href="#Cmmi10-2f" transform="translate(87.792969 0.484375)"/>
     <use xlink:href="#Cmr10-52" transform="translate(135.498047 0.484375)"/>
     <use xlink:href="#Cmr10-24" transform="translate(174.902344 0.484375)"/>
     <use xlink:href="#Cmr10-74" transform="translate(202.587891 0.484375)"/>
     <use xlink:href="#Cmmi10-12" transform="translate(274.772516 0.484375)"/>
    </g>
   </g>
   <g id="text_7">
    <g id="patch_13">
     <path d="M 235.064199 207.886983 
L 275.024199 207.886983 
Q 276.464199 207.886983 276.464199 206.446983 
L 276.464199 193.366983 
Q 276.464199 191.926983 275.024199 191.926983 
L 235.064199 191.926983 
Q 233.624199 191.926983 233.624199 193.366983 
L 233.624199 206.446983 
Q 233.624199 207.886983 235.064199 207.886983 
z
" style="fill: #ffffff; opacity: 0.9"/>
    </g>
    <!-- $mg\cos\theta$ -->
    <g style="fill: #6b7280" transform="translate(235.064199 203.926983) scale(0.12 -0.12)">
     <defs>
      <path id="Cmr10-7b" d="M 1594 -72 
Q 1206 -72 890 129 
Q 575 331 394 667 
Q 213 1003 213 1381 
Q 213 1759 392 2106 
Q 572 2453 889 2661 
Q 1206 2869 1594 2869 
Q 1969 2869 2276 2722 
Q 2584 2575 2584 2241 
Q 2584 2116 2495 2023 
Q 2406 1931 2278 1931 
Q 2150 1931 2061 2023 
Q 1972 2116 1972 2241 
Q 1972 2353 2044 2436 
Q 2116 2519 2222 2541 
Q 2000 2681 1600 2681 
Q 1294 2681 1106 2478 
Q 919 2275 844 1975 
Q 769 1675 769 1381 
Q 769 1072 861 783 
Q 953 494 1158 305 
Q 1363 116 1672 116 
Q 1975 116 2187 302 
Q 2400 488 2478 788 
Q 2478 825 2528 825 
L 2606 825 
Q 2625 825 2640 808 
Q 2656 791 2656 769 
L 2656 750 
Q 2559 372 2271 150 
Q 1984 -72 1594 -72 
z
" transform="scale(0.015625)"/>
      <path id="Cmr10-42" d="M 1600 -72 
Q 1216 -72 887 123 
Q 559 319 368 647 
Q 178 975 178 1363 
Q 178 1656 283 1928 
Q 388 2200 583 2414 
Q 778 2628 1037 2748 
Q 1297 2869 1600 2869 
Q 1994 2869 2317 2661 
Q 2641 2453 2828 2104 
Q 3016 1756 3016 1363 
Q 3016 978 2825 648 
Q 2634 319 2307 123 
Q 1981 -72 1600 -72 
z
M 1600 116 
Q 2113 116 2284 487 
Q 2456 859 2456 1434 
Q 2456 1756 2422 1967 
Q 2388 2178 2272 2350 
Q 2200 2456 2089 2536 
Q 1978 2616 1854 2658 
Q 1731 2700 1600 2700 
Q 1400 2700 1220 2609 
Q 1041 2519 922 2350 
Q 803 2169 770 1951 
Q 738 1734 738 1434 
Q 738 1075 800 789 
Q 863 503 1052 309 
Q 1241 116 1600 116 
z
" transform="scale(0.015625)"/>
     </defs>
     <use xlink:href="#Cmmi10-45" transform="translate(0 0.484375)"/>
     <use xlink:href="#Cmmi10-2f" transform="translate(87.792969 0.484375)"/>
     <use xlink:href="#Cmr10-7b" transform="translate(135.498047 0.484375)"/>
     <use xlink:href="#Cmr10-42" transform="translate(179.882812 0.484375)"/>
     <use xlink:href="#Cmr10-52" transform="translate(229.882812 0.484375)"/>
     <use xlink:href="#Cmmi10-12" transform="translate(285.954157 0.484375)"/>
    </g>
   </g>
  </g>
 </g>
 <defs>
  <clipPath id="pf42ee4acf0">
   <rect x="7.2" y="24.2" width="368.28" height="262.452414"/>
  </clipPath>
 </defs>
 <defs>
  <pattern id="h1499469e5e" patternUnits="userSpaceOnUse" x="0" y="0" width="72" height="72">
   <rect x="0" y="0" width="73" height="73" fill="#eef1f5"/>
   <path d="M -36 36 
L 36 108 
M -32 32 
L 40 104 
M -28 28 
L 44 100 
M -24 24 
L 48 96 
M -20 20 
L 52 92 
M -16 16 
L 56 88 
M -12 12 
L 60 84 
M -8 8 
L 64 80 
M -4 4 
L 68 76 
M 0 0 
L 72 72 
M 4 -4 
L 76 68 
M 8 -8 
L 80 64 
M 12 -12 
L 84 60 
M 16 -16 
L 88 56 
M 20 -20 
L 92 52 
M 24 -24 
L 96 48 
M 28 -28 
L 100 44 
M 32 -32 
L 104 40 
M 36 -36 
L 108 36 
" style="fill: #222831; stroke: #222831; stroke-width: 1.0; stroke-linecap: butt; stroke-linejoin: miter"/>
  </pattern>
 </defs>
</svg>
