<?xml version="1.0" encoding="utf-8" standalone="no"?>
<!DOCTYPE svg PUBLIC "-//W3C//DTD SVG 1.1//EN"
  "http://www.w3.org/Graphics/SVG/1.1/DTD/svg11.dtd">
<svg xmlns:xlink="http://www.w3.org/1999/xlink" width="737.304375pt" height="319.28pt" viewBox="0 0 737.304375 319.28" xmlns="http://www.w3.org/2000/svg" version="1.1">
 <metadata>
  <rdf:RDF xmlns:dc="http://purl.org/dc/elements/1.1/" xmlns:cc="http://creativecommons.org/ns#" xmlns:rdf="http://www.w3.org/1999/02/22-rdf-syntax-ns#">
   <cc:Work>
    <dc:type rdf:resource="http://purl.org/dc/dcmitype/StillImage"/>
    <dc:date>2026-06-20T18:20:28.043334</dc:date>
    <dc:format>image/svg+xml</dc:format>
    <dc:creator>
     <cc:Agent>
      <dc:title>Matplotlib v3.11.0, https://matplotlib.org/</dc:title>
     </cc:Agent>
    </dc:creator>
   </cc:Work>
  </rdf:RDF>
 </metadata>
 <defs>
  <style type="text/css">*{stroke-linejoin: round; stroke-linecap: butt}</style>
 </defs>
 <g id="figure_1">
  <g id="patch_1">
   <path d="M 0 319.28 
L 737.304375 319.28 
L 737.304375 0 
L 0 0 
z
" style="fill: #ffffff"/>
  </g>
  <g id="axes_1">
   <g id="patch_2">
    <path d="M 25.024375 293.08 
L 353.784375 293.08 
L 353.784375 24.2 
L 25.024375 24.2 
z
" style="fill: #ffffff"/>
   </g>
   <g id="matplotlib.axis_1">
    <g id="xtick_1">
     <g id="line2d_1">
      <path d="M 71.990089 293.08 
L 71.990089 24.2 
" clip-path="url(#pb7bdf1158a)" style="fill: none; stroke: #d8dde3; stroke-width: 0.8; stroke-linecap: square"/>
     </g>
     <g id="line2d_2">
      <defs>
       <path id="m1ee1092a25" d="M 0 0 
L 0 3.5 
" style="stroke: #222831; stroke-width: 0.8"/>
      </defs>
      <g>
       <use xlink:href="#m1ee1092a25" x="71.990089" y="293.08" style="fill: #222831; stroke: #222831; stroke-width: 0.8"/>
      </g>
     </g>
     <g id="text_1">
      <!-- -2 -->
      <g style="fill: #222831" transform="translate(66.577902 310.64) scale(0.12 -0.12)">
       <defs>
        <path id="NotoSansCJKjp-Regular-e" d="M 294 1568 
L 1933 1568 
L 1933 2016 
L 294 2016 
L 294 1568 
z
" transform="scale(0.015625)"/>
        <path id="NotoSansCJKjp-Regular-13" d="M 282 0 
L 3232 0 
L 3232 506 
L 1933 506 
C 1696 506 1408 480 1165 461 
C 2266 1504 3008 2458 3008 3398 
C 3008 4230 2477 4774 1638 4774 
C 1043 4774 634 4506 256 4090 
L 595 3757 
C 858 4070 1184 4301 1568 4301 
C 2150 4301 2432 3910 2432 3373 
C 2432 2566 1754 1632 282 346 
L 282 0 
z
" transform="scale(0.015625)"/>
       </defs>
       <use xlink:href="#NotoSansCJKjp-Regular-e"/>
       <use xlink:href="#NotoSansCJKjp-Regular-13" transform="translate(34.703125 0)"/>
      </g>
     </g>
    </g>
    <g id="xtick_2">
     <g id="line2d_3">
      <path d="M 130.697232 293.08 
L 130.697232 24.2 
" clip-path="url(#pb7bdf1158a)" style="fill: none; stroke: #d8dde3; stroke-width: 0.8; stroke-linecap: square"/>
     </g>
     <g id="line2d_4">
      <g>
       <use xlink:href="#m1ee1092a25" x="130.697232" y="293.08" style="fill: #222831; stroke: #222831; stroke-width: 0.8"/>
      </g>
     </g>
     <g id="text_2">
      <!-- -1 -->
      <g style="fill: #222831" transform="translate(125.285045 310.64) scale(0.12 -0.12)">
       <defs>
        <path id="NotoSansCJKjp-Regular-12" d="M 563 0 
L 3136 0 
L 3136 486 
L 2195 486 
L 2195 4691 
L 1747 4691 
C 1491 4544 1190 4435 774 4358 
L 774 3987 
L 1613 3987 
L 1613 486 
L 563 486 
L 563 0 
z
" transform="scale(0.015625)"/>
       </defs>
       <use xlink:href="#NotoSansCJKjp-Regular-e"/>
       <use xlink:href="#NotoSansCJKjp-Regular-12" transform="translate(34.703125 0)"/>
      </g>
     </g>
    </g>
    <g id="xtick_3">
     <g id="line2d_5">
      <path d="M 189.404375 293.08 
L 189.404375 24.2 
" clip-path="url(#pb7bdf1158a)" style="fill: none; stroke: #d8dde3; stroke-width: 0.8; stroke-linecap: square"/>
     </g>
     <g id="line2d_6">
      <g>
       <use xlink:href="#m1ee1092a25" x="189.404375" y="293.08" style="fill: #222831; stroke: #222831; stroke-width: 0.8"/>
      </g>
     </g>
     <g id="text_3">
      <!-- 0 -->
      <g style="fill: #222831" transform="translate(186.074375 310.64) scale(0.12 -0.12)">
       <defs>
        <path id="NotoSansCJKjp-Regular-11" d="M 1779 -83 
C 2669 -83 3238 723 3238 2362 
C 3238 3987 2669 4774 1779 4774 
C 883 4774 320 3987 320 2362 
C 320 723 883 -83 1779 -83 
z
M 1779 390 
C 1248 390 883 986 883 2362 
C 883 3731 1248 4314 1779 4314 
C 2310 4314 2675 3731 2675 2362 
C 2675 986 2310 390 1779 390 
z
" transform="scale(0.015625)"/>
       </defs>
       <use xlink:href="#NotoSansCJKjp-Regular-11"/>
      </g>
     </g>
    </g>
    <g id="xtick_4">
     <g id="line2d_7">
      <path d="M 248.111518 293.08 
L 248.111518 24.2 
" clip-path="url(#pb7bdf1158a)" style="fill: none; stroke: #d8dde3; stroke-width: 0.8; stroke-linecap: square"/>
     </g>
     <g id="line2d_8">
      <g>
       <use xlink:href="#m1ee1092a25" x="248.111518" y="293.08" style="fill: #222831; stroke: #222831; stroke-width: 0.8"/>
      </g>
     </g>
     <g id="text_4">
      <!-- 1 -->
      <g style="fill: #222831" transform="translate(244.781518 310.64) scale(0.12 -0.12)">
       <use xlink:href="#NotoSansCJKjp-Regular-12"/>
      </g>
     </g>
    </g>
    <g id="xtick_5">
     <g id="line2d_9">
      <path d="M 306.818661 293.08 
L 306.818661 24.2 
" clip-path="url(#pb7bdf1158a)" style="fill: none; stroke: #d8dde3; stroke-width: 0.8; stroke-linecap: square"/>
     </g>
     <g id="line2d_10">
      <g>
       <use xlink:href="#m1ee1092a25" x="306.818661" y="293.08" style="fill: #222831; stroke: #222831; stroke-width: 0.8"/>
      </g>
     </g>
     <g id="text_5">
      <!-- 2 -->
      <g style="fill: #222831" transform="translate(303.488661 310.64) scale(0.12 -0.12)">
       <use xlink:href="#NotoSansCJKjp-Regular-13"/>
      </g>
     </g>
    </g>
   </g>
   <g id="matplotlib.axis_2">
    <g id="ytick_1">
     <g id="line2d_11">
      <path d="M 25.024375 286.678095 
L 353.784375 286.678095 
" clip-path="url(#pb7bdf1158a)" style="fill: none; stroke: #d8dde3; stroke-width: 0.8; stroke-linecap: square"/>
     </g>
     <g id="line2d_12">
      <defs>
       <path id="m5ff5be2b11" d="M 0 0 
L -3.5 0 
" style="stroke: #222831; stroke-width: 0.8"/>
      </defs>
      <g>
       <use xlink:href="#m5ff5be2b11" x="25.024375" y="286.678095" style="fill: #222831; stroke: #222831; stroke-width: 0.8"/>
      </g>
     </g>
     <g id="text_6">
      <!-- -4 -->
      <g style="fill: #222831" transform="translate(7.2 291.958095) scale(0.12 -0.12)">
       <defs>
        <path id="NotoSansCJKjp-Regular-15" d="M 2176 0 
L 2726 0 
L 2726 1293 
L 3354 1293 
L 3354 1760 
L 2726 1760 
L 2726 4691 
L 2080 4691 
L 128 1677 
L 128 1293 
L 2176 1293 
L 2176 0 
z
M 2176 1760 
L 736 1760 
L 1805 3360 
C 1939 3590 2067 3827 2182 4051 
L 2208 4051 
C 2195 3814 2176 3430 2176 3200 
L 2176 1760 
z
" transform="scale(0.015625)"/>
       </defs>
       <use xlink:href="#NotoSansCJKjp-Regular-e"/>
       <use xlink:href="#NotoSansCJKjp-Regular-15" transform="translate(34.703125 0)"/>
      </g>
     </g>
    </g>
    <g id="ytick_2">
     <g id="line2d_13">
      <path d="M 25.024375 254.668571 
L 353.784375 254.668571 
" clip-path="url(#pb7bdf1158a)" style="fill: none; stroke: #d8dde3; stroke-width: 0.8; stroke-linecap: square"/>
     </g>
     <g id="line2d_14">
      <g>
       <use xlink:href="#m5ff5be2b11" x="25.024375" y="254.668571" style="fill: #222831; stroke: #222831; stroke-width: 0.8"/>
      </g>
     </g>
     <g id="text_7">
      <!-- -3 -->
      <g style="fill: #222831" transform="translate(7.2 259.948571) scale(0.12 -0.12)">
       <defs>
        <path id="NotoSansCJKjp-Regular-14" d="M 1683 -83 
C 2522 -83 3194 416 3194 1254 
C 3194 1901 2752 2310 2202 2445 
L 2202 2477 
C 2701 2650 3034 3034 3034 3603 
C 3034 4346 2458 4774 1664 4774 
C 1126 4774 710 4538 358 4218 
L 672 3846 
C 941 4115 1267 4301 1645 4301 
C 2138 4301 2438 4006 2438 3558 
C 2438 3053 2112 2662 1139 2662 
L 1139 2214 
C 2227 2214 2598 1843 2598 1274 
C 2598 736 2208 403 1645 403 
C 1114 403 762 659 486 941 
L 186 563 
C 493 224 954 -83 1683 -83 
z
" transform="scale(0.015625)"/>
       </defs>
       <use xlink:href="#NotoSansCJKjp-Regular-e"/>
       <use xlink:href="#NotoSansCJKjp-Regular-14" transform="translate(34.703125 0)"/>
      </g>
     </g>
    </g>
    <g id="ytick_3">
     <g id="line2d_15">
      <path d="M 25.024375 222.659048 
L 353.784375 222.659048 
" clip-path="url(#pb7bdf1158a)" style="fill: none; stroke: #d8dde3; stroke-width: 0.8; stroke-linecap: square"/>
     </g>
     <g id="line2d_16">
      <g>
       <use xlink:href="#m5ff5be2b11" x="25.024375" y="222.659048" style="fill: #222831; stroke: #222831; stroke-width: 0.8"/>
      </g>
     </g>
     <g id="text_8">
      <!-- -2 -->
      <g style="fill: #222831" transform="translate(7.2 227.939048) scale(0.12 -0.12)">
       <use xlink:href="#NotoSansCJKjp-Regular-e"/>
       <use xlink:href="#NotoSansCJKjp-Regular-13" transform="translate(34.703125 0)"/>
      </g>
     </g>
    </g>
    <g id="ytick_4">
     <g id="line2d_17">
      <path d="M 25.024375 190.649524 
L 353.784375 190.649524 
" clip-path="url(#pb7bdf1158a)" style="fill: none; stroke: #d8dde3; stroke-width: 0.8; stroke-linecap: square"/>
     </g>
     <g id="line2d_18">
      <g>
       <use xlink:href="#m5ff5be2b11" x="25.024375" y="190.649524" style="fill: #222831; stroke: #222831; stroke-width: 0.8"/>
      </g>
     </g>
     <g id="text_9">
      <!-- -1 -->
      <g style="fill: #222831" transform="translate(7.2 195.929524) scale(0.12 -0.12)">
       <use xlink:href="#NotoSansCJKjp-Regular-e"/>
       <use xlink:href="#NotoSansCJKjp-Regular-12" transform="translate(34.703125 0)"/>
      </g>
     </g>
    </g>
    <g id="ytick_5">
     <g id="line2d_19">
      <path d="M 25.024375 158.64 
L 353.784375 158.64 
" clip-path="url(#pb7bdf1158a)" style="fill: none; stroke: #d8dde3; stroke-width: 0.8; stroke-linecap: square"/>
     </g>
     <g id="line2d_20">
      <g>
       <use xlink:href="#m5ff5be2b11" x="25.024375" y="158.64" style="fill: #222831; stroke: #222831; stroke-width: 0.8"/>
      </g>
     </g>
     <g id="text_10">
      <!-- 0 -->
      <g style="fill: #222831" transform="translate(11.364375 163.92) scale(0.12 -0.12)">
       <use xlink:href="#NotoSansCJKjp-Regular-11"/>
      </g>
     </g>
    </g>
    <g id="ytick_6">
     <g id="line2d_21">
      <path d="M 25.024375 126.630476 
L 353.784375 126.630476 
" clip-path="url(#pb7bdf1158a)" style="fill: none; stroke: #d8dde3; stroke-width: 0.8; stroke-linecap: square"/>
     </g>
     <g id="line2d_22">
      <g>
       <use xlink:href="#m5ff5be2b11" x="25.024375" y="126.630476" style="fill: #222831; stroke: #222831; stroke-width: 0.8"/>
      </g>
     </g>
     <g id="text_11">
      <!-- 1 -->
      <g style="fill: #222831" transform="translate(11.364375 131.910476) scale(0.12 -0.12)">
       <use xlink:href="#NotoSansCJKjp-Regular-12"/>
      </g>
     </g>
    </g>
    <g id="ytick_7">
     <g id="line2d_23">
      <path d="M 25.024375 94.620952 
L 353.784375 94.620952 
" clip-path="url(#pb7bdf1158a)" style="fill: none; stroke: #d8dde3; stroke-width: 0.8; stroke-linecap: square"/>
     </g>
     <g id="line2d_24">
      <g>
       <use xlink:href="#m5ff5be2b11" x="25.024375" y="94.620952" style="fill: #222831; stroke: #222831; stroke-width: 0.8"/>
      </g>
     </g>
     <g id="text_12">
      <!-- 2 -->
      <g style="fill: #222831" transform="translate(11.364375 99.900952) scale(0.12 -0.12)">
       <use xlink:href="#NotoSansCJKjp-Regular-13"/>
      </g>
     </g>
    </g>
    <g id="ytick_8">
     <g id="line2d_25">
      <path d="M 25.024375 62.611429 
L 353.784375 62.611429 
" clip-path="url(#pb7bdf1158a)" style="fill: none; stroke: #d8dde3; stroke-width: 0.8; stroke-linecap: square"/>
     </g>
     <g id="line2d_26">
      <g>
       <use xlink:href="#m5ff5be2b11" x="25.024375" y="62.611429" style="fill: #222831; stroke: #222831; stroke-width: 0.8"/>
      </g>
     </g>
     <g id="text_13">
      <!-- 3 -->
      <g style="fill: #222831" transform="translate(11.364375 67.891429) scale(0.12 -0.12)">
       <use xlink:href="#NotoSansCJKjp-Regular-14"/>
      </g>
     </g>
    </g>
    <g id="ytick_9">
     <g id="line2d_27">
      <path d="M 25.024375 30.601905 
L 353.784375 30.601905 
" clip-path="url(#pb7bdf1158a)" style="fill: none; stroke: #d8dde3; stroke-width: 0.8; stroke-linecap: square"/>
     </g>
     <g id="line2d_28">
      <g>
       <use xlink:href="#m5ff5be2b11" x="25.024375" y="30.601905" style="fill: #222831; stroke: #222831; stroke-width: 0.8"/>
      </g>
     </g>
     <g id="text_14">
      <!-- 4 -->
      <g style="fill: #222831" transform="translate(11.364375 35.881905) scale(0.12 -0.12)">
       <use xlink:href="#NotoSansCJKjp-Regular-15"/>
      </g>
     </g>
    </g>
   </g>
   <g id="line2d_29">
    <path d="M 25.024375 158.64 
L 353.784375 158.64 
" clip-path="url(#pb7bdf1158a)" style="fill: none; stroke: #222831; stroke-width: 1.3; stroke-linecap: square"/>
   </g>
   <g id="line2d_30">
    <path d="M 189.404375 293.08 
L 189.404375 24.2 
" clip-path="url(#pb7bdf1158a)" style="fill: none; stroke: #222831; stroke-width: 1.3; stroke-linecap: square"/>
   </g>
   <g id="line2d_31">
    <path d="M 55.379259 320.28 
L 58.953867 296.450486 
L 62.779395 272.708596 
L 65.839817 254.984097 
L 68.90024 238.358135 
L 71.960662 222.8035 
L 75.021085 208.292984 
L 78.081507 194.79938 
L 81.14193 182.295478 
L 84.202352 170.754071 
L 87.262775 160.14795 
L 90.323197 150.449907 
L 93.38362 141.632733 
L 96.444042 133.66922 
L 98.739359 128.240433 
L 101.034676 123.265047 
L 103.329993 118.731584 
L 105.625309 114.628566 
L 107.920626 110.944512 
L 110.215943 107.667946 
L 112.51126 104.787389 
L 114.806577 102.291362 
L 117.101894 100.168386 
L 119.397211 98.406984 
L 121.692528 96.995676 
L 123.987844 95.922984 
L 126.283161 95.17743 
L 128.578478 94.747535 
L 130.873795 94.62182 
L 133.169112 94.788808 
L 135.464429 95.237019 
L 137.759746 95.954974 
L 140.055062 96.931197 
L 142.350379 98.154207 
L 144.645696 99.612527 
L 146.941013 101.294678 
L 150.001436 103.865888 
L 153.061858 106.787406 
L 156.12228 110.032022 
L 159.182703 113.572528 
L 163.008231 118.372807 
L 166.833759 123.539761 
L 171.424393 130.149293 
L 176.780132 138.308537 
L 183.666083 149.283641 
L 203.558829 181.344126 
L 208.914568 189.378381 
L 213.505202 195.84762 
L 217.33073 200.874281 
L 221.156258 205.513011 
L 224.216681 208.908973 
L 227.277103 211.995441 
L 230.337526 214.745205 
L 233.397948 217.131059 
L 235.693265 218.665265 
L 237.988582 219.967987 
L 240.283899 221.027747 
L 242.579216 221.833068 
L 244.874533 222.372469 
L 247.169849 222.634473 
L 249.465166 222.607601 
L 251.760483 222.280375 
L 254.0558 221.641316 
L 256.351117 220.678945 
L 258.646434 219.381785 
L 260.941751 217.738356 
L 263.237067 215.73718 
L 265.532384 213.366779 
L 267.827701 210.615673 
L 270.123018 207.472386 
L 272.418335 203.925437 
L 274.713652 199.963349 
L 277.008969 195.574643 
L 279.304285 190.74784 
L 281.599602 185.471462 
L 283.894919 179.734031 
L 286.190236 173.524067 
L 289.250659 164.489227 
L 292.311081 154.566715 
L 295.371504 143.729323 
L 298.431926 131.949843 
L 301.492349 119.201067 
L 304.552771 105.455785 
L 307.613193 90.686791 
L 310.673616 74.866874 
L 313.734038 57.968829 
L 316.794461 39.965445 
L 319.854883 20.829514 
L 323.138484 -1 
L 323.138484 -1 
" clip-path="url(#pb7bdf1158a)" style="fill: none; stroke: #1f6feb; stroke-width: 2.8; stroke-linecap: square"/>
   </g>
   <g id="line2d_32">
    <path d="M 248.111518 222.659048 
L 130.697232 94.620952 
" clip-path="url(#pb7bdf1158a)" style="fill: none; stroke-dasharray: 1.3,2.145; stroke-dashoffset: 0; stroke: #1a7f37; stroke-width: 1.3"/>
   </g>
   <g id="text_15">
    <!-- 對稱中心 $(0,0)$ -->
    <g style="fill: #d1242f" transform="translate(199.971661 142.635238) scale(0.12 -0.12)">
     <defs>
      <path id="NotoSansCJKjp-Regular-3d73" d="M 3693 2554 
C 3955 2086 4192 1472 4256 1082 
L 4691 1242 
C 4627 1632 4371 2234 4102 2694 
L 3693 2554 
z
M 339 5037 
C 531 4730 717 4320 781 4058 
L 1152 4230 
C 1088 4493 890 4890 685 5190 
L 339 5037 
z
M 3168 5222 
C 3053 4922 2829 4467 2662 4192 
L 2989 4045 
C 3174 4307 3398 4710 3590 5056 
L 3168 5222 
z
M 294 224 
L 358 -230 
C 1184 -122 2387 45 3514 205 
L 3501 627 
L 2138 448 
L 2138 1152 
L 3194 1152 
L 3194 1555 
L 2138 1555 
L 2138 2208 
L 3328 2208 
L 3328 2618 
L 2643 2618 
C 2778 2842 2925 3181 3066 3482 
L 2637 3603 
L 3494 3603 
L 3494 3206 
L 5005 3206 
L 5005 83 
C 5005 -32 4960 -64 4845 -70 
C 4749 -70 4397 -77 4006 -64 
C 4077 -192 4154 -397 4179 -518 
C 4704 -518 5011 -506 5203 -429 
C 5389 -352 5466 -218 5466 83 
L 5466 3206 
L 6150 3206 
L 6150 3654 
L 5466 3654 
L 5466 5338 
L 5005 5338 
L 5005 3654 
L 3558 3654 
L 3558 4013 
L 2554 4013 
L 2554 5344 
L 2157 5344 
L 2157 4013 
L 1670 4013 
L 1670 5344 
L 1274 5344 
L 1274 4013 
L 269 4013 
L 269 3603 
L 2618 3603 
C 2547 3334 2381 2957 2259 2714 
L 2592 2618 
L 1184 2618 
L 1542 2746 
C 1498 2976 1350 3328 1184 3597 
L 800 3469 
C 954 3200 1088 2848 1126 2618 
L 506 2618 
L 506 2208 
L 1690 2208 
L 1690 1555 
L 672 1555 
L 672 1152 
L 1690 1152 
L 1690 390 
L 294 224 
z
" transform="scale(0.015625)"/>
      <path id="NotoSansCJKjp-Regular-7251" d="M 3885 4454 
C 4019 4173 4134 3795 4160 3558 
L 4582 3674 
C 4550 3923 4435 4282 4288 4557 
L 3885 4454 
z
M 5088 4582 
C 5350 4205 5626 3686 5741 3347 
L 6157 3533 
C 6035 3866 5754 4365 5478 4742 
L 5088 4582 
z
M 4058 1760 
L 4058 1152 
L 3219 1152 
L 3219 1760 
L 4058 1760 
z
M 4058 2138 
L 3219 2138 
L 3219 2733 
L 4058 2733 
L 4058 2138 
z
M 4499 1760 
L 5402 1760 
L 5402 1152 
L 4499 1152 
L 4499 1760 
z
M 4499 2138 
L 4499 2733 
L 5402 2733 
L 5402 2138 
L 4499 2138 
z
M 2771 3123 
L 2771 1152 
L 2317 1152 
L 2317 742 
L 2771 742 
L 2771 -506 
L 3219 -506 
L 3219 742 
L 5402 742 
L 5402 13 
C 5402 -64 5370 -90 5293 -96 
C 5210 -96 4934 -96 4634 -83 
C 4698 -205 4774 -390 4800 -512 
C 5203 -512 5466 -506 5632 -429 
C 5798 -358 5850 -230 5850 6 
L 5850 742 
L 6208 742 
L 6208 1152 
L 5850 1152 
L 5850 3123 
L 4499 3123 
L 4499 3539 
L 4058 3539 
L 4058 3123 
L 2771 3123 
z
M 2112 5235 
C 1690 5030 922 4851 256 4730 
C 307 4640 371 4480 397 4378 
C 659 4416 941 4467 1222 4525 
L 1222 3526 
L 288 3526 
L 288 3085 
L 1152 3085 
C 934 2355 563 1517 211 1050 
C 288 934 403 749 454 614 
C 730 998 1005 1613 1222 2234 
L 1222 -525 
L 1677 -525 
L 1677 2304 
C 1882 2042 2125 1709 2227 1536 
L 2509 1901 
C 2387 2048 1850 2611 1677 2765 
L 1677 3085 
L 2464 3085 
L 2464 3469 
C 2579 3411 2707 3334 2778 3290 
C 3008 3616 3226 4090 3386 4589 
C 4179 4659 5075 4781 5715 4941 
L 5357 5286 
C 4890 5158 4115 5043 3392 4966 
L 3021 5037 
C 2886 4474 2656 3910 2355 3526 
L 1677 3526 
L 1677 4634 
C 1971 4710 2246 4800 2477 4896 
L 2112 5235 
z
" transform="scale(0.015625)"/>
      <path id="NotoSansCJKjp-Regular-2548" d="M 2931 5376 
L 2931 4230 
L 614 4230 
L 614 1190 
L 1094 1190 
L 1094 1587 
L 2931 1587 
L 2931 -506 
L 3437 -506 
L 3437 1587 
L 5280 1587 
L 5280 1222 
L 5773 1222 
L 5773 4230 
L 3437 4230 
L 3437 5376 
L 2931 5376 
z
M 1094 2061 
L 1094 3763 
L 2931 3763 
L 2931 2061 
L 1094 2061 
z
M 5280 2061 
L 3437 2061 
L 3437 3763 
L 5280 3763 
L 5280 2061 
z
" transform="scale(0.015625)"/>
      <path id="NotoSansCJKjp-Regular-444f" d="M 1952 3590 
L 1952 378 
C 1952 -250 2144 -429 2829 -429 
C 2970 -429 3923 -429 4077 -429 
C 4774 -429 4928 -70 4998 1139 
C 4858 1178 4659 1267 4544 1357 
C 4493 250 4435 19 4051 19 
C 3834 19 3034 19 2867 19 
C 2515 19 2445 70 2445 371 
L 2445 3590 
L 1952 3590 
z
M 2003 4979 
C 2771 4704 3706 4224 4198 3859 
L 4512 4282 
C 4006 4621 3072 5088 2304 5350 
L 2003 4979 
z
M 883 3072 
C 787 2240 582 1306 154 742 
L 589 486 
C 1043 1101 1248 2118 1344 2976 
L 883 3072 
z
M 4614 3072 
C 5152 2349 5632 1350 5779 678 
L 6253 902 
C 6099 1581 5619 2554 5043 3283 
L 4614 3072 
z
" transform="scale(0.015625)"/>
      <path id="NotoSansCJKjp-Regular-1" transform="scale(0.015625)"/>
      <path id="Cmr10-77" d="M 1984 -1588 
Q 1628 -1306 1370 -942 
Q 1113 -578 948 -165 
Q 784 247 703 697 
Q 622 1147 622 1600 
Q 622 2059 703 2509 
Q 784 2959 951 3375 
Q 1119 3791 1378 4153 
Q 1638 4516 1984 4788 
Q 1984 4800 2016 4800 
L 2075 4800 
Q 2094 4800 2109 4783 
Q 2125 4766 2125 4744 
Q 2125 4716 2113 4703 
Q 1800 4397 1592 4047 
Q 1384 3697 1257 3301 
Q 1131 2906 1075 2482 
Q 1019 2059 1019 1600 
Q 1019 -434 2106 -1491 
Q 2125 -1509 2125 -1544 
Q 2125 -1559 2108 -1579 
Q 2091 -1600 2075 -1600 
L 2016 -1600 
Q 1984 -1600 1984 -1588 
z
" transform="scale(0.015625)"/>
      <path id="Cmr10-28" d="M 1600 -141 
Q 816 -141 533 504 
Q 250 1150 250 2041 
Q 250 2597 351 3087 
Q 453 3578 754 3920 
Q 1056 4263 1600 4263 
Q 2022 4263 2290 4056 
Q 2559 3850 2700 3523 
Q 2841 3197 2892 2823 
Q 2944 2450 2944 2041 
Q 2944 1491 2842 1011 
Q 2741 531 2444 195 
Q 2147 -141 1600 -141 
z
M 1600 25 
Q 1956 25 2131 390 
Q 2306 756 2347 1200 
Q 2388 1644 2388 2144 
Q 2388 2625 2347 3031 
Q 2306 3438 2132 3767 
Q 1959 4097 1600 4097 
Q 1238 4097 1063 3765 
Q 888 3434 847 3029 
Q 806 2625 806 2144 
Q 806 1788 823 1472 
Q 841 1156 916 820 
Q 991 484 1158 254 
Q 1325 25 1600 25 
z
" transform="scale(0.015625)"/>
      <path id="Cmmi10-2c" d="M 634 -1153 
Q 634 -1125 659 -1100 
Q 891 -878 1019 -587 
Q 1147 -297 1147 25 
L 1147 103 
Q 1044 0 891 0 
Q 744 0 641 103 
Q 538 206 538 353 
Q 538 503 641 603 
Q 744 703 891 703 
Q 1119 703 1216 492 
Q 1313 281 1313 25 
Q 1313 -331 1170 -651 
Q 1028 -972 769 -1228 
Q 744 -1241 728 -1241 
Q 697 -1241 665 -1212 
Q 634 -1184 634 -1153 
z
" transform="scale(0.015625)"/>
      <path id="Cmr10-44" d="M 416 -1600 
Q 359 -1600 359 -1544 
Q 359 -1516 372 -1503 
Q 1466 -434 1466 1600 
Q 1466 3634 384 4691 
Q 359 4706 359 4744 
Q 359 4766 376 4783 
Q 394 4800 416 4800 
L 475 4800 
Q 494 4800 506 4788 
Q 966 4425 1272 3906 
Q 1578 3388 1720 2800 
Q 1863 2213 1863 1600 
Q 1863 1147 1786 708 
Q 1709 269 1542 -157 
Q 1375 -584 1119 -945 
Q 863 -1306 506 -1588 
Q 494 -1600 475 -1600 
L 416 -1600 
z
" transform="scale(0.015625)"/>
     </defs>
     <use xlink:href="#NotoSansCJKjp-Regular-3d73"/>
     <use xlink:href="#NotoSansCJKjp-Regular-7251" transform="translate(99.999908 0)"/>
     <use xlink:href="#NotoSansCJKjp-Regular-2548" transform="translate(199.999817 0)"/>
     <use xlink:href="#NotoSansCJKjp-Regular-444f" transform="translate(299.999725 0)"/>
     <use xlink:href="#NotoSansCJKjp-Regular-1" transform="translate(399.999634 0)"/>
     <use xlink:href="#Cmr10-77" transform="translate(422.399612 0)"/>
     <use xlink:href="#Cmr10-28" transform="translate(461.217972 0)"/>
     <use xlink:href="#Cmmi10-2c" transform="translate(511.217972 0)"/>
     <use xlink:href="#Cmr10-28" transform="translate(558.903576 0)"/>
     <use xlink:href="#Cmr10-44" transform="translate(608.903576 0)"/>
    </g>
   </g>
   <g id="text_16">
    <!-- $(1,-2)$ -->
    <g style="fill: #1a7f37" transform="translate(251.046875 243.542381) scale(0.11 -0.11)">
     <defs>
      <path id="Cmr10-64" d="M 594 0 
L 594 225 
Q 1394 225 1394 428 
L 1394 3788 
Q 1063 3628 556 3628 
L 556 3853 
Q 1341 3853 1741 4263 
L 1831 4263 
Q 1853 4263 1873 4245 
Q 1894 4228 1894 4206 
L 1894 428 
Q 1894 225 2694 225 
L 2694 0 
L 594 0 
z
" transform="scale(0.015625)"/>
      <path id="Cmsy10-11" d="M 653 1472 
Q 600 1472 565 1512 
Q 531 1553 531 1600 
Q 531 1647 565 1687 
Q 600 1728 653 1728 
L 4325 1728 
Q 4375 1728 4408 1687 
Q 4441 1647 4441 1600 
Q 4441 1553 4408 1512 
Q 4375 1472 4325 1472 
L 653 1472 
z
" transform="scale(0.015625)"/>
      <path id="Cmr10-31" d="M 319 0 
L 319 172 
Q 319 188 331 206 
L 1325 1306 
Q 1550 1550 1690 1715 
Q 1831 1881 1968 2097 
Q 2106 2313 2186 2536 
Q 2266 2759 2266 3009 
Q 2266 3272 2169 3511 
Q 2072 3750 1880 3894 
Q 1688 4038 1416 4038 
Q 1138 4038 916 3870 
Q 694 3703 603 3438 
Q 628 3444 672 3444 
Q 816 3444 917 3347 
Q 1019 3250 1019 3097 
Q 1019 2950 917 2848 
Q 816 2747 672 2747 
Q 522 2747 420 2851 
Q 319 2956 319 3097 
Q 319 3338 409 3548 
Q 500 3759 670 3923 
Q 841 4088 1055 4175 
Q 1269 4263 1509 4263 
Q 1875 4263 2190 4108 
Q 2506 3953 2690 3670 
Q 2875 3388 2875 3009 
Q 2875 2731 2753 2481 
Q 2631 2231 2440 2026 
Q 2250 1822 1953 1562 
Q 1656 1303 1563 1216 
L 838 519 
L 1453 519 
Q 1906 519 2211 526 
Q 2516 534 2534 550 
Q 2609 631 2688 1141 
L 2875 1141 
L 2694 0 
L 319 0 
z
" transform="scale(0.015625)"/>
     </defs>
     <use xlink:href="#Cmr10-77"/>
     <use xlink:href="#Cmr10-64" transform="translate(38.818359 0)"/>
     <use xlink:href="#Cmmi10-2c" transform="translate(88.818359 0)"/>
     <use xlink:href="#Cmsy10-11" transform="translate(156.504021 0)"/>
     <use xlink:href="#Cmr10-31" transform="translate(254.189625 0)"/>
     <use xlink:href="#Cmr10-44" transform="translate(304.189625 0)"/>
    </g>
   </g>
   <g id="text_17">
    <!-- $(-1,2)$ -->
    <g style="fill: #1a7f37" transform="translate(94.321875 80.667619) scale(0.11 -0.11)">
     <use xlink:href="#Cmr10-77"/>
     <use xlink:href="#Cmsy10-11" transform="translate(38.818359 0)"/>
     <use xlink:href="#Cmr10-64" transform="translate(116.503906 0)"/>
     <use xlink:href="#Cmmi10-2c" transform="translate(166.503906 0)"/>
     <use xlink:href="#Cmr10-31" transform="translate(214.18951 0)"/>
     <use xlink:href="#Cmr10-44" transform="translate(264.18951 0)"/>
    </g>
   </g>
   <g id="text_18">
    <!-- 整體：關於中心點對稱（$f(x)=x^3-3x$） -->
    <g style="fill: #222831" transform="translate(74.654375 18.2) scale(0.125 -0.125)">
     <defs>
      <path id="NotoSansCJKjp-Regular-4e1d" d="M 1357 1139 
L 1357 32 
L 301 32 
L 301 -371 
L 6118 -371 
L 6118 32 
L 3430 32 
L 3430 563 
L 5274 563 
L 5274 934 
L 3430 934 
L 3430 1427 
L 5696 1427 
L 5696 1824 
L 730 1824 
L 730 1427 
L 2957 1427 
L 2957 32 
L 1818 32 
L 1818 1139 
L 1357 1139 
z
M 4109 5376 
C 3930 4742 3597 4154 3162 3770 
L 3162 4282 
L 2054 4282 
L 2054 4608 
L 3315 4608 
L 3315 4960 
L 2054 4960 
L 2054 5376 
L 1626 5376 
L 1626 4960 
L 365 4960 
L 365 4608 
L 1626 4608 
L 1626 4282 
L 550 4282 
L 550 3110 
L 1440 3110 
C 1126 2790 646 2470 256 2304 
C 346 2234 474 2093 538 1997 
C 883 2176 1306 2496 1626 2822 
L 1626 1997 
L 2054 1997 
L 2054 2784 
C 2368 2611 2790 2362 2970 2227 
L 3206 2547 
C 3027 2650 2349 2989 2086 3110 
L 3162 3110 
L 3162 3725 
C 3264 3642 3411 3494 3462 3411 
C 3603 3546 3744 3699 3866 3878 
C 4000 3590 4186 3296 4416 3021 
C 4064 2714 3629 2490 3104 2330 
C 3200 2253 3341 2074 3392 1978 
C 3904 2163 4339 2400 4704 2714 
C 5030 2406 5434 2138 5926 1958 
C 5990 2067 6112 2246 6202 2336 
C 5715 2483 5318 2720 4998 3002 
C 5299 3347 5530 3757 5677 4269 
L 6093 4269 
L 6093 4659 
L 4314 4659 
C 4403 4858 4480 5069 4544 5280 
L 4109 5376 
z
M 947 3962 
L 1626 3962 
L 1626 3430 
L 947 3430 
L 947 3962 
z
M 2054 3962 
L 2752 3962 
L 2752 3430 
L 2054 3430 
L 2054 3962 
z
M 4122 4269 
L 5216 4269 
C 5101 3891 4928 3571 4698 3302 
C 4435 3603 4243 3930 4109 4250 
L 4122 4269 
z
" transform="scale(0.015625)"/>
      <path id="NotoSansCJKjp-Regular-b0c7" d="M 2963 2598 
L 2963 2246 
L 6112 2246 
L 6112 2598 
L 2963 2598 
z
M 3686 1619 
L 5363 1619 
L 5363 1062 
L 3686 1062 
L 3686 1619 
z
M 5075 742 
C 5011 525 4883 198 4774 -13 
L 4832 -32 
L 4128 -32 
L 4218 0 
C 4179 205 4070 512 3930 730 
L 3584 614 
C 3693 422 3789 166 3834 -32 
L 2848 -32 
L 2848 -390 
L 6157 -390 
L 6157 -32 
L 5146 -32 
L 5478 627 
L 5075 742 
z
M 3162 4787 
L 3162 2918 
L 5901 2918 
L 5901 4787 
L 5101 4787 
L 5101 5376 
L 4742 5376 
L 4742 4787 
L 4282 4787 
L 4282 5376 
L 3923 5376 
L 3923 4787 
L 3162 4787 
z
M 3283 1939 
L 3283 742 
L 5779 742 
L 5779 1939 
L 3283 1939 
z
M 3533 3693 
L 3981 3693 
L 3981 3251 
L 3533 3251 
L 3533 3693 
z
M 4282 3693 
L 4742 3693 
L 4742 3251 
L 4282 3251 
L 4282 3693 
z
M 5043 3693 
L 5510 3693 
L 5510 3251 
L 5043 3251 
L 5043 3693 
z
M 3533 4454 
L 3981 4454 
L 3981 4019 
L 3533 4019 
L 3533 4454 
z
M 4282 4454 
L 4742 4454 
L 4742 4019 
L 4282 4019 
L 4282 4454 
z
M 5043 4454 
L 5510 4454 
L 5510 4019 
L 5043 4019 
L 5043 4454 
z
M 1178 1440 
L 2138 1440 
L 2138 973 
L 1178 973 
L 1178 1440 
z
M 1178 1792 
L 1178 2246 
L 2138 2246 
L 2138 1792 
L 1178 1792 
z
M 390 3373 
L 390 2445 
L 762 2445 
L 762 -512 
L 1178 -512 
L 1178 621 
L 2138 621 
L 2138 -51 
C 2138 -115 2118 -134 2048 -141 
C 1990 -141 1792 -141 1562 -134 
C 1619 -243 1677 -403 1690 -512 
C 2035 -512 2240 -506 2381 -442 
C 2522 -378 2554 -262 2554 -58 
L 2554 2592 
L 762 2592 
L 762 3021 
L 2560 3021 
L 2560 2445 
L 2944 2445 
L 2944 3373 
L 2566 3373 
L 2566 5152 
L 762 5152 
L 762 3373 
L 390 3373 
z
M 1466 4371 
L 1466 3373 
L 1126 3373 
L 1126 4787 
L 2182 4787 
L 2182 4371 
L 1466 4371 
z
M 2182 3373 
L 1766 3373 
L 1766 4064 
L 2182 4064 
L 2182 3373 
z
" transform="scale(0.015625)"/>
      <path id="NotoSansCJKjp-Regular-e6c0" d="M 3200 3482 
C 3456 3482 3686 3667 3686 3962 
C 3686 4256 3456 4442 3200 4442 
C 2944 4442 2714 4256 2714 3962 
C 2714 3667 2944 3482 3200 3482 
z
M 3200 346 
C 3456 346 3686 538 3686 826 
C 3686 1120 3456 1312 3200 1312 
C 2944 1312 2714 1120 2714 826 
C 2714 538 2944 346 3200 346 
z
" transform="scale(0.015625)"/>
      <path id="NotoSansCJKjp-Regular-a7ee" d="M 557 5101 
L 557 -518 
L 1018 -518 
L 1018 3136 
L 2246 3136 
C 2150 2982 2010 2790 1888 2637 
L 1709 2771 
L 1510 2579 
C 1728 2419 1978 2189 2118 2003 
L 1843 1722 
L 1434 1702 
L 1472 1395 
L 2867 1491 
L 2931 1312 
L 3200 1414 
C 3149 1613 2989 1901 2822 2112 
L 2560 2022 
C 2618 1946 2675 1856 2726 1773 
L 2195 1741 
C 2470 1997 2778 2330 3021 2618 
L 2739 2752 
C 2630 2598 2477 2406 2310 2221 
C 2253 2298 2170 2387 2080 2470 
C 2240 2630 2419 2854 2579 3066 
L 2413 3136 
L 2906 3136 
L 2906 5101 
L 557 5101 
z
M 4371 1216 
L 4371 614 
L 3744 614 
L 3744 1306 
L 3392 1306 
L 3392 -397 
L 3744 -397 
L 3744 307 
L 4698 307 
L 4698 1216 
L 4371 1216 
z
M 5651 5101 
L 3475 5101 
L 3475 3136 
L 3827 3136 
C 3731 2982 3597 2784 3469 2630 
L 3277 2778 
L 3072 2592 
C 3290 2426 3539 2189 3686 1997 
C 3578 1894 3475 1798 3379 1715 
L 3149 1702 
L 3219 1402 
C 3635 1434 4122 1453 4627 1498 
C 4666 1421 4691 1350 4710 1286 
L 4986 1395 
C 4922 1606 4742 1920 4557 2144 
L 4288 2061 
C 4352 1971 4416 1875 4480 1773 
L 3763 1734 
C 4051 1990 4365 2317 4621 2598 
L 4333 2733 
C 4218 2586 4064 2400 3898 2221 
C 3834 2291 3750 2374 3667 2458 
C 3827 2630 4019 2861 4186 3078 
L 4051 3136 
L 5414 3136 
L 5414 96 
C 5414 6 5389 -19 5306 -26 
C 5222 -26 4954 -26 4666 -19 
C 4736 -147 4794 -365 4819 -493 
C 5216 -493 5491 -486 5658 -410 
C 5830 -326 5882 -179 5882 96 
L 5882 5101 
L 5651 5101 
z
M 2624 1306 
L 2624 742 
L 2618 614 
L 2016 614 
L 2016 1216 
L 1683 1216 
L 1683 307 
L 2541 307 
C 2445 115 2240 -58 1824 -186 
C 1901 -256 2010 -384 2054 -474 
C 2854 -186 2970 256 2970 730 
L 2970 1306 
L 2624 1306 
z
M 2451 3949 
L 2451 3488 
L 1018 3488 
L 1018 3949 
L 2451 3949 
z
M 2451 4275 
L 1018 4275 
L 1018 4749 
L 2451 4749 
L 2451 4275 
z
M 5414 3949 
L 5414 3488 
L 3936 3488 
L 3936 3949 
L 5414 3949 
z
M 5414 4275 
L 3936 4275 
L 3936 4749 
L 5414 4749 
L 5414 4275 
z
" transform="scale(0.015625)"/>
      <path id="NotoSansCJKjp-Regular-4ea4" d="M 4454 4826 
C 4749 4013 5318 3130 5958 2605 
C 6029 2752 6125 2944 6214 3066 
C 5606 3507 5011 4435 4678 5370 
L 4186 5370 
C 3942 4506 3379 3533 2739 3027 
C 2822 2918 2938 2726 2982 2592 
C 3642 3130 4192 4045 4454 4826 
z
M 3757 2605 
C 4198 2323 4704 1907 4934 1606 
L 5274 1952 
C 5030 2246 4506 2643 4070 2906 
L 3757 2605 
z
M 3238 870 
C 4019 512 4960 -77 5408 -512 
L 5715 -96 
C 5261 339 4301 896 3526 1242 
L 3238 870 
z
M 1414 5363 
L 1414 4333 
L 282 4333 
L 282 3878 
L 986 3878 
C 960 2234 890 672 186 -198 
C 307 -275 474 -429 550 -538 
C 1126 186 1331 1299 1408 2554 
L 2234 2554 
C 2195 774 2144 147 2035 6 
C 1990 -70 1933 -83 1843 -83 
C 1741 -83 1504 -83 1235 -58 
C 1306 -179 1357 -371 1363 -499 
C 1632 -512 1901 -512 2061 -499 
C 2227 -480 2342 -435 2445 -288 
C 2611 -70 2650 653 2694 2778 
C 2701 2842 2701 3002 2701 3002 
L 1427 3002 
L 1453 3878 
L 3008 3878 
L 3008 4333 
L 1894 4333 
L 1894 5363 
L 1414 5363 
z
" transform="scale(0.015625)"/>
      <path id="NotoSansCJKjp-Regular-b7c4" d="M 966 4474 
C 1069 4166 1152 3757 1165 3494 
L 1421 3565 
C 1402 3821 1312 4230 1203 4538 
L 966 4474 
z
M 1178 813 
C 1267 454 1338 0 1331 -307 
L 1664 -262 
C 1664 38 1594 499 1498 851 
L 1178 813 
z
M 1792 851 
C 1939 518 2067 90 2106 -192 
L 2432 -115 
C 2387 166 2246 589 2099 915 
L 1792 851 
z
M 2406 934 
C 2618 634 2848 224 2938 -45 
L 3258 96 
C 3162 365 2931 762 2701 1056 
L 2406 934 
z
M 634 838 
C 582 390 454 -70 205 -333 
L 538 -512 
C 806 -224 915 269 973 742 
L 634 838 
z
M 2272 4557 
C 2214 4262 2086 3808 1997 3533 
L 2202 3456 
C 2317 3706 2445 4122 2554 4454 
L 2272 4557 
z
M 4314 5363 
L 4314 2330 
L 3379 2330 
L 3379 -506 
L 3827 -506 
L 3827 -211 
L 5440 -211 
L 5440 -480 
L 5901 -480 
L 5901 2330 
L 4781 2330 
L 4781 3526 
L 6150 3526 
L 6150 3974 
L 4781 3974 
L 4781 5363 
L 4314 5363 
z
M 3827 237 
L 3827 1894 
L 5440 1894 
L 5440 237 
L 3827 237 
z
M 877 4794 
L 1568 4794 
L 1568 3245 
L 877 3245 
L 877 4794 
z
M 1894 4794 
L 2637 4794 
L 2637 3245 
L 1894 3245 
L 1894 4794 
z
M 448 2451 
L 448 2067 
L 1517 2067 
L 1517 1568 
L 314 1510 
L 333 1088 
C 1075 1133 2138 1203 3155 1274 
L 3168 1658 
L 1946 1594 
L 1946 2067 
L 3072 2067 
L 3072 2451 
L 1946 2451 
L 1946 2893 
L 3027 2893 
L 3027 5146 
L 493 5146 
L 493 2893 
L 1517 2893 
L 1517 2451 
L 448 2451 
z
" transform="scale(0.015625)"/>
      <path id="NotoSansCJKjp-Regular-e6ae" d="M 4448 2432 
C 4448 1184 4954 166 5722 -614 
L 6106 -416 
C 5370 346 4915 1293 4915 2432 
C 4915 3571 5370 4518 6106 5280 
L 5722 5478 
C 4954 4698 4448 3680 4448 2432 
z
" transform="scale(0.015625)"/>
      <path id="Cmmi10-57" d="M 622 -1056 
Q 741 -1147 909 -1147 
Q 1138 -1147 1281 -641 
Q 1341 -397 1606 966 
L 1900 2534 
L 1350 2534 
Q 1288 2534 1288 2619 
Q 1313 2759 1369 2759 
L 1941 2759 
L 2016 3175 
Q 2053 3369 2084 3508 
Q 2116 3647 2152 3765 
Q 2188 3884 2259 4031 
Q 2369 4241 2555 4377 
Q 2741 4513 2956 4513 
Q 3097 4513 3230 4461 
Q 3363 4409 3447 4306 
Q 3531 4203 3531 4063 
Q 3531 3900 3423 3779 
Q 3316 3659 3163 3659 
Q 3059 3659 2986 3723 
Q 2913 3788 2913 3891 
Q 2913 4031 3008 4136 
Q 3103 4241 3244 4256 
Q 3125 4347 2950 4347 
Q 2853 4347 2767 4256 
Q 2681 4166 2656 4063 
Q 2616 3900 2478 3181 
L 2400 2759 
L 3059 2759 
Q 3122 2759 3122 2675 
Q 3119 2659 3109 2620 
Q 3100 2581 3083 2557 
Q 3066 2534 3041 2534 
L 2356 2534 
L 2059 972 
Q 2003 631 1929 279 
Q 1856 -72 1723 -442 
Q 1591 -813 1384 -1063 
Q 1178 -1313 897 -1313 
Q 681 -1313 511 -1189 
Q 341 -1066 341 -863 
Q 341 -700 445 -579 
Q 550 -459 709 -459 
Q 816 -459 887 -523 
Q 959 -588 959 -691 
Q 959 -828 857 -942 
Q 756 -1056 622 -1056 
z
" transform="scale(0.015625)"/>
      <path id="Cmmi10-3f" d="M 500 184 
Q 613 97 819 97 
Q 1019 97 1172 289 
Q 1325 481 1381 709 
L 1672 1844 
Q 1741 2153 1741 2266 
Q 1741 2425 1652 2544 
Q 1563 2663 1403 2663 
Q 1200 2663 1022 2536 
Q 844 2409 722 2214 
Q 600 2019 550 1819 
Q 538 1778 500 1778 
L 422 1778 
Q 372 1778 372 1838 
L 372 1856 
Q 434 2094 584 2320 
Q 734 2547 951 2687 
Q 1169 2828 1416 2828 
Q 1650 2828 1839 2703 
Q 2028 2578 2106 2363 
Q 2216 2559 2386 2693 
Q 2556 2828 2759 2828 
Q 2897 2828 3040 2779 
Q 3184 2731 3275 2631 
Q 3366 2531 3366 2381 
Q 3366 2219 3261 2101 
Q 3156 1984 2994 1984 
Q 2891 1984 2822 2050 
Q 2753 2116 2753 2216 
Q 2753 2350 2845 2451 
Q 2938 2553 3066 2572 
Q 2950 2663 2747 2663 
Q 2541 2663 2389 2472 
Q 2238 2281 2175 2047 
L 1894 916 
Q 1825 659 1825 494 
Q 1825 331 1917 214 
Q 2009 97 2163 97 
Q 2463 97 2698 361 
Q 2934 625 3009 941 
Q 3022 978 3059 978 
L 3138 978 
Q 3163 978 3178 961 
Q 3194 944 3194 922 
Q 3194 916 3188 903 
Q 3097 522 2806 225 
Q 2516 -72 2150 -72 
Q 1916 -72 1727 54 
Q 1538 181 1459 397 
Q 1359 209 1182 68 
Q 1006 -72 806 -72 
Q 669 -72 523 -23 
Q 378 25 287 125 
Q 197 225 197 378 
Q 197 528 301 651 
Q 406 775 563 775 
Q 669 775 741 711 
Q 813 647 813 544 
Q 813 409 723 309 
Q 634 209 500 184 
z
" transform="scale(0.015625)"/>
      <path id="Cmr10-29" d="M 481 850 
Q 428 850 393 890 
Q 359 931 359 978 
Q 359 1031 393 1068 
Q 428 1106 481 1106 
L 4500 1106 
Q 4547 1106 4581 1068 
Q 4616 1031 4616 978 
Q 4616 931 4581 890 
Q 4547 850 4500 850 
L 481 850 
z
M 481 2094 
Q 428 2094 393 2131 
Q 359 2169 359 2222 
Q 359 2269 393 2309 
Q 428 2350 481 2350 
L 4500 2350 
Q 4547 2350 4581 2309 
Q 4616 2269 4616 2222 
Q 4616 2169 4581 2131 
Q 4547 2094 4500 2094 
L 481 2094 
z
" transform="scale(0.015625)"/>
      <path id="Cmr10-6e" d="M 609 494 
Q 759 275 1012 169 
Q 1266 63 1556 63 
Q 1928 63 2084 380 
Q 2241 697 2241 1100 
Q 2241 1281 2208 1462 
Q 2175 1644 2097 1800 
Q 2019 1956 1883 2050 
Q 1747 2144 1550 2144 
L 1125 2144 
Q 1069 2144 1069 2203 
L 1069 2259 
Q 1069 2309 1125 2309 
L 1478 2338 
Q 1703 2338 1851 2506 
Q 2000 2675 2069 2917 
Q 2138 3159 2138 3378 
Q 2138 3684 1994 3881 
Q 1850 4078 1556 4078 
Q 1313 4078 1091 3986 
Q 869 3894 738 3706 
Q 750 3709 759 3711 
Q 769 3713 781 3713 
Q 925 3713 1022 3613 
Q 1119 3513 1119 3372 
Q 1119 3234 1022 3134 
Q 925 3034 781 3034 
Q 641 3034 541 3134 
Q 441 3234 441 3372 
Q 441 3647 606 3850 
Q 772 4053 1033 4158 
Q 1294 4263 1556 4263 
Q 1750 4263 1965 4205 
Q 2181 4147 2356 4039 
Q 2531 3931 2642 3762 
Q 2753 3594 2753 3378 
Q 2753 3109 2633 2881 
Q 2513 2653 2303 2487 
Q 2094 2322 1844 2241 
Q 2122 2188 2372 2031 
Q 2622 1875 2773 1631 
Q 2925 1388 2925 1106 
Q 2925 753 2731 467 
Q 2538 181 2222 20 
Q 1906 -141 1556 -141 
Q 1256 -141 954 -26 
Q 653 88 461 316 
Q 269 544 269 863 
Q 269 1022 375 1128 
Q 481 1234 641 1234 
Q 744 1234 830 1186 
Q 916 1138 964 1050 
Q 1013 963 1013 863 
Q 1013 706 903 600 
Q 794 494 641 494 
L 609 494 
z
" transform="scale(0.015625)"/>
      <path id="NotoSansCJKjp-Regular-e6af" d="M 1952 2432 
C 1952 3680 1446 4698 678 5478 
L 294 5280 
C 1030 4518 1485 3571 1485 2432 
C 1485 1293 1030 346 294 -416 
L 678 -614 
C 1446 166 1952 1184 1952 2432 
z
" transform="scale(0.015625)"/>
     </defs>
     <use xlink:href="#NotoSansCJKjp-Regular-4e1d" transform="translate(0 0.084203)"/>
     <use xlink:href="#NotoSansCJKjp-Regular-b0c7" transform="translate(99.999908 0.084203)"/>
     <use xlink:href="#NotoSansCJKjp-Regular-e6c0" transform="translate(199.999817 0.084203)"/>
     <use xlink:href="#NotoSansCJKjp-Regular-a7ee" transform="translate(299.999725 0.084203)"/>
     <use xlink:href="#NotoSansCJKjp-Regular-4ea4" transform="translate(399.999634 0.084203)"/>
     <use xlink:href="#NotoSansCJKjp-Regular-2548" transform="translate(499.999542 0.084203)"/>
     <use xlink:href="#NotoSansCJKjp-Regular-444f" transform="translate(599.999451 0.084203)"/>
     <use xlink:href="#NotoSansCJKjp-Regular-b7c4" transform="translate(699.999359 0.084203)"/>
     <use xlink:href="#NotoSansCJKjp-Regular-3d73" transform="translate(799.999268 0.084203)"/>
     <use xlink:href="#NotoSansCJKjp-Regular-7251" transform="translate(899.999176 0.084203)"/>
     <use xlink:href="#NotoSansCJKjp-Regular-e6ae" transform="translate(999.999084 0.084203)"/>
     <use xlink:href="#Cmmi10-57" transform="translate(1099.998993 0.084203)"/>
     <use xlink:href="#Cmr10-77" transform="translate(1148.875946 0.084203)"/>
     <use xlink:href="#Cmmi10-3f" transform="translate(1187.694305 0.084203)"/>
     <use xlink:href="#Cmr10-44" transform="translate(1244.774384 0.084203)"/>
     <use xlink:href="#Cmr10-29" transform="translate(1303.5928 0.084203)"/>
     <use xlink:href="#Cmmi10-3f" transform="translate(1401.278404 0.084203)"/>
     <use xlink:href="#Cmr10-6e" transform="translate(1469.618664 41.373437) scale(0.7)"/>
     <use xlink:href="#Cmsy10-11" transform="translate(1530.339137 0.084203)"/>
     <use xlink:href="#Cmr10-6e" transform="translate(1628.024741 0.084203)"/>
     <use xlink:href="#Cmmi10-3f" transform="translate(1678.024741 0.084203)"/>
     <use xlink:href="#NotoSansCJKjp-Regular-e6af" transform="translate(1735.104819 0.084203)"/>
    </g>
   </g>
   <g id="patch_3">
    <path d="M 189.404375 162.161048 
C 191.117 162.161048 192.75971 161.790048 193.970719 161.129757 
C 195.181728 160.469465 195.862161 159.573793 195.862161 158.64 
C 195.862161 157.706207 195.181728 156.810535 193.970719 156.150243 
C 192.75971 155.489952 191.117 155.118952 189.404375 155.118952 
C 187.69175 155.118952 186.04904 155.489952 184.838031 156.150243 
C 183.627022 156.810535 182.946589 157.706207 182.946589 158.64 
C 182.946589 159.573793 183.627022 160.469465 184.838031 161.129757 
C 186.04904 161.790048 187.69175 162.161048 189.404375 162.161048 
z
" clip-path="url(#pb7bdf1158a)" style="fill: #d1242f; stroke: #d1242f; stroke-linejoin: miter"/>
   </g>
   <g id="patch_4">
    <path d="M 248.111518 225.539905 
C 249.512756 225.539905 250.856792 225.236359 251.847618 224.696121 
C 252.838443 224.155883 253.395161 223.42306 253.395161 222.659048 
C 253.395161 221.895035 252.838443 221.162212 251.847618 220.621974 
C 250.856792 220.081736 249.512756 219.77819 248.111518 219.77819 
C 246.710279 219.77819 245.366243 220.081736 244.375418 220.621974 
C 243.384593 221.162212 242.827875 221.895035 242.827875 222.659048 
C 242.827875 223.42306 243.384593 224.155883 244.375418 224.696121 
C 245.366243 225.236359 246.710279 225.539905 248.111518 225.539905 
z
" clip-path="url(#pb7bdf1158a)" style="fill: #1a7f37; stroke: #1a7f37; stroke-linejoin: miter"/>
   </g>
   <g id="patch_5">
    <path d="M 130.697232 97.50181 
C 132.098471 97.50181 133.442507 97.198264 134.433332 96.658026 
C 135.424157 96.117788 135.980875 95.384965 135.980875 94.620952 
C 135.980875 93.85694 135.424157 93.124117 134.433332 92.583879 
C 133.442507 92.043641 132.098471 91.740095 130.697232 91.740095 
C 129.295994 91.740095 127.951958 92.043641 126.961132 92.583879 
C 125.970307 93.124117 125.413589 93.85694 125.413589 94.620952 
C 125.413589 95.384965 125.970307 96.117788 126.961132 96.658026 
C 127.951958 97.198264 129.295994 97.50181 130.697232 97.50181 
z
" clip-path="url(#pb7bdf1158a)" style="fill: #1a7f37; stroke: #1a7f37; stroke-linejoin: miter"/>
   </g>
  </g>
  <g id="axes_2">
   <g id="patch_6">
    <path d="M 401.344375 293.08 
L 730.104375 293.08 
L 730.104375 24.2 
L 401.344375 24.2 
z
" style="fill: #ffffff"/>
   </g>
   <g id="matplotlib.axis_3">
    <g id="xtick_6">
     <g id="line2d_33">
      <path d="M 428.741042 293.08 
L 428.741042 24.2 
" clip-path="url(#p59500bb3bc)" style="fill: none; stroke: #d8dde3; stroke-width: 0.8; stroke-linecap: square"/>
     </g>
     <g id="line2d_34">
      <g>
       <use xlink:href="#m1ee1092a25" x="428.741042" y="293.08" style="fill: #222831; stroke: #222831; stroke-width: 0.8"/>
      </g>
     </g>
     <g id="text_19">
      <!-- -3 -->
      <g style="fill: #222831" transform="translate(423.328854 310.64) scale(0.12 -0.12)">
       <use xlink:href="#NotoSansCJKjp-Regular-e"/>
       <use xlink:href="#NotoSansCJKjp-Regular-14" transform="translate(34.703125 0)"/>
      </g>
     </g>
    </g>
    <g id="xtick_7">
     <g id="line2d_35">
      <path d="M 474.402153 293.08 
L 474.402153 24.2 
" clip-path="url(#p59500bb3bc)" style="fill: none; stroke: #d8dde3; stroke-width: 0.8; stroke-linecap: square"/>
     </g>
     <g id="line2d_36">
      <g>
       <use xlink:href="#m1ee1092a25" x="474.402153" y="293.08" style="fill: #222831; stroke: #222831; stroke-width: 0.8"/>
      </g>
     </g>
     <g id="text_20">
      <!-- -2 -->
      <g style="fill: #222831" transform="translate(468.989965 310.64) scale(0.12 -0.12)">
       <use xlink:href="#NotoSansCJKjp-Regular-e"/>
       <use xlink:href="#NotoSansCJKjp-Regular-13" transform="translate(34.703125 0)"/>
      </g>
     </g>
    </g>
    <g id="xtick_8">
     <g id="line2d_37">
      <path d="M 520.063264 293.08 
L 520.063264 24.2 
" clip-path="url(#p59500bb3bc)" style="fill: none; stroke: #d8dde3; stroke-width: 0.8; stroke-linecap: square"/>
     </g>
     <g id="line2d_38">
      <g>
       <use xlink:href="#m1ee1092a25" x="520.063264" y="293.08" style="fill: #222831; stroke: #222831; stroke-width: 0.8"/>
      </g>
     </g>
     <g id="text_21">
      <!-- -1 -->
      <g style="fill: #222831" transform="translate(514.651076 310.64) scale(0.12 -0.12)">
       <use xlink:href="#NotoSansCJKjp-Regular-e"/>
       <use xlink:href="#NotoSansCJKjp-Regular-12" transform="translate(34.703125 0)"/>
      </g>
     </g>
    </g>
    <g id="xtick_9">
     <g id="line2d_39">
      <path d="M 565.724375 293.08 
L 565.724375 24.2 
" clip-path="url(#p59500bb3bc)" style="fill: none; stroke: #d8dde3; stroke-width: 0.8; stroke-linecap: square"/>
     </g>
     <g id="line2d_40">
      <g>
       <use xlink:href="#m1ee1092a25" x="565.724375" y="293.08" style="fill: #222831; stroke: #222831; stroke-width: 0.8"/>
      </g>
     </g>
     <g id="text_22">
      <!-- 0 -->
      <g style="fill: #222831" transform="translate(562.394375 310.64) scale(0.12 -0.12)">
       <use xlink:href="#NotoSansCJKjp-Regular-11"/>
      </g>
     </g>
    </g>
    <g id="xtick_10">
     <g id="line2d_41">
      <path d="M 611.385486 293.08 
L 611.385486 24.2 
" clip-path="url(#p59500bb3bc)" style="fill: none; stroke: #d8dde3; stroke-width: 0.8; stroke-linecap: square"/>
     </g>
     <g id="line2d_42">
      <g>
       <use xlink:href="#m1ee1092a25" x="611.385486" y="293.08" style="fill: #222831; stroke: #222831; stroke-width: 0.8"/>
      </g>
     </g>
     <g id="text_23">
      <!-- 1 -->
      <g style="fill: #222831" transform="translate(608.055486 310.64) scale(0.12 -0.12)">
       <use xlink:href="#NotoSansCJKjp-Regular-12"/>
      </g>
     </g>
    </g>
    <g id="xtick_11">
     <g id="line2d_43">
      <path d="M 657.046597 293.08 
L 657.046597 24.2 
" clip-path="url(#p59500bb3bc)" style="fill: none; stroke: #d8dde3; stroke-width: 0.8; stroke-linecap: square"/>
     </g>
     <g id="line2d_44">
      <g>
       <use xlink:href="#m1ee1092a25" x="657.046597" y="293.08" style="fill: #222831; stroke: #222831; stroke-width: 0.8"/>
      </g>
     </g>
     <g id="text_24">
      <!-- 2 -->
      <g style="fill: #222831" transform="translate(653.716597 310.64) scale(0.12 -0.12)">
       <use xlink:href="#NotoSansCJKjp-Regular-13"/>
      </g>
     </g>
    </g>
    <g id="xtick_12">
     <g id="line2d_45">
      <path d="M 702.707708 293.08 
L 702.707708 24.2 
" clip-path="url(#p59500bb3bc)" style="fill: none; stroke: #d8dde3; stroke-width: 0.8; stroke-linecap: square"/>
     </g>
     <g id="line2d_46">
      <g>
       <use xlink:href="#m1ee1092a25" x="702.707708" y="293.08" style="fill: #222831; stroke: #222831; stroke-width: 0.8"/>
      </g>
     </g>
     <g id="text_25">
      <!-- 3 -->
      <g style="fill: #222831" transform="translate(699.377708 310.64) scale(0.12 -0.12)">
       <use xlink:href="#NotoSansCJKjp-Regular-14"/>
      </g>
     </g>
    </g>
   </g>
   <g id="matplotlib.axis_4">
    <g id="ytick_10">
     <g id="line2d_47">
      <path d="M 401.344375 280.858182 
L 730.104375 280.858182 
" clip-path="url(#p59500bb3bc)" style="fill: none; stroke: #d8dde3; stroke-width: 0.8; stroke-linecap: square"/>
     </g>
     <g id="line2d_48">
      <g>
       <use xlink:href="#m5ff5be2b11" x="401.344375" y="280.858182" style="fill: #222831; stroke: #222831; stroke-width: 0.8"/>
      </g>
     </g>
     <g id="text_26">
      <!-- -10.0 -->
      <g style="fill: #222831" transform="translate(366.864375 286.138182) scale(0.12 -0.12)">
       <defs>
        <path id="NotoSansCJKjp-Regular-f" d="M 890 -83 
C 1120 -83 1312 96 1312 358 
C 1312 627 1120 806 890 806 
C 653 806 467 627 467 358 
C 467 96 653 -83 890 -83 
z
" transform="scale(0.015625)"/>
       </defs>
       <use xlink:href="#NotoSansCJKjp-Regular-e"/>
       <use xlink:href="#NotoSansCJKjp-Regular-12" transform="translate(34.703125 0)"/>
       <use xlink:href="#NotoSansCJKjp-Regular-11" transform="translate(90.203125 0)"/>
       <use xlink:href="#NotoSansCJKjp-Regular-f" transform="translate(145.703125 0)"/>
       <use xlink:href="#NotoSansCJKjp-Regular-11" transform="translate(173.5 0)"/>
      </g>
     </g>
    </g>
    <g id="ytick_11">
     <g id="line2d_49">
      <path d="M 401.344375 250.303636 
L 730.104375 250.303636 
" clip-path="url(#p59500bb3bc)" style="fill: none; stroke: #d8dde3; stroke-width: 0.8; stroke-linecap: square"/>
     </g>
     <g id="line2d_50">
      <g>
       <use xlink:href="#m5ff5be2b11" x="401.344375" y="250.303636" style="fill: #222831; stroke: #222831; stroke-width: 0.8"/>
      </g>
     </g>
     <g id="text_27">
      <!-- -7.5 -->
      <g style="fill: #222831" transform="translate(373.524375 255.583636) scale(0.12 -0.12)">
       <defs>
        <path id="NotoSansCJKjp-Regular-18" d="M 1267 0 
L 1875 0 
C 1952 1837 2150 2931 3251 4339 
L 3251 4691 
L 314 4691 
L 314 4192 
L 2592 4192 
C 1670 2912 1350 1779 1267 0 
z
" transform="scale(0.015625)"/>
        <path id="NotoSansCJKjp-Regular-16" d="M 1677 -83 
C 2464 -83 3213 499 3213 1523 
C 3213 2560 2573 3021 1798 3021 
C 1517 3021 1306 2950 1094 2835 
L 1216 4192 
L 2982 4192 
L 2982 4691 
L 704 4691 
L 550 2502 
L 864 2304 
C 1133 2483 1331 2579 1645 2579 
C 2234 2579 2618 2182 2618 1510 
C 2618 826 2176 403 1619 403 
C 1075 403 730 653 467 922 
L 173 538 
C 493 224 941 -83 1677 -83 
z
" transform="scale(0.015625)"/>
       </defs>
       <use xlink:href="#NotoSansCJKjp-Regular-e"/>
       <use xlink:href="#NotoSansCJKjp-Regular-18" transform="translate(34.703125 0)"/>
       <use xlink:href="#NotoSansCJKjp-Regular-f" transform="translate(90.203125 0)"/>
       <use xlink:href="#NotoSansCJKjp-Regular-16" transform="translate(118 0)"/>
      </g>
     </g>
    </g>
    <g id="ytick_12">
     <g id="line2d_51">
      <path d="M 401.344375 219.749091 
L 730.104375 219.749091 
" clip-path="url(#p59500bb3bc)" style="fill: none; stroke: #d8dde3; stroke-width: 0.8; stroke-linecap: square"/>
     </g>
     <g id="line2d_52">
      <g>
       <use xlink:href="#m5ff5be2b11" x="401.344375" y="219.749091" style="fill: #222831; stroke: #222831; stroke-width: 0.8"/>
      </g>
     </g>
     <g id="text_28">
      <!-- -5.0 -->
      <g style="fill: #222831" transform="translate(373.524375 225.029091) scale(0.12 -0.12)">
       <use xlink:href="#NotoSansCJKjp-Regular-e"/>
       <use xlink:href="#NotoSansCJKjp-Regular-16" transform="translate(34.703125 0)"/>
       <use xlink:href="#NotoSansCJKjp-Regular-f" transform="translate(90.203125 0)"/>
       <use xlink:href="#NotoSansCJKjp-Regular-11" transform="translate(118 0)"/>
      </g>
     </g>
    </g>
    <g id="ytick_13">
     <g id="line2d_53">
      <path d="M 401.344375 189.194545 
L 730.104375 189.194545 
" clip-path="url(#p59500bb3bc)" style="fill: none; stroke: #d8dde3; stroke-width: 0.8; stroke-linecap: square"/>
     </g>
     <g id="line2d_54">
      <g>
       <use xlink:href="#m5ff5be2b11" x="401.344375" y="189.194545" style="fill: #222831; stroke: #222831; stroke-width: 0.8"/>
      </g>
     </g>
     <g id="text_29">
      <!-- -2.5 -->
      <g style="fill: #222831" transform="translate(373.524375 194.474545) scale(0.12 -0.12)">
       <use xlink:href="#NotoSansCJKjp-Regular-e"/>
       <use xlink:href="#NotoSansCJKjp-Regular-13" transform="translate(34.703125 0)"/>
       <use xlink:href="#NotoSansCJKjp-Regular-f" transform="translate(90.203125 0)"/>
       <use xlink:href="#NotoSansCJKjp-Regular-16" transform="translate(118 0)"/>
      </g>
     </g>
    </g>
    <g id="ytick_14">
     <g id="line2d_55">
      <path d="M 401.344375 158.64 
L 730.104375 158.64 
" clip-path="url(#p59500bb3bc)" style="fill: none; stroke: #d8dde3; stroke-width: 0.8; stroke-linecap: square"/>
     </g>
     <g id="line2d_56">
      <g>
       <use xlink:href="#m5ff5be2b11" x="401.344375" y="158.64" style="fill: #222831; stroke: #222831; stroke-width: 0.8"/>
      </g>
     </g>
     <g id="text_30">
      <!-- 0.0 -->
      <g style="fill: #222831" transform="translate(377.68875 163.92) scale(0.12 -0.12)">
       <use xlink:href="#NotoSansCJKjp-Regular-11"/>
       <use xlink:href="#NotoSansCJKjp-Regular-f" transform="translate(55.5 0)"/>
       <use xlink:href="#NotoSansCJKjp-Regular-11" transform="translate(83.296875 0)"/>
      </g>
     </g>
    </g>
    <g id="ytick_15">
     <g id="line2d_57">
      <path d="M 401.344375 128.085455 
L 730.104375 128.085455 
" clip-path="url(#p59500bb3bc)" style="fill: none; stroke: #d8dde3; stroke-width: 0.8; stroke-linecap: square"/>
     </g>
     <g id="line2d_58">
      <g>
       <use xlink:href="#m5ff5be2b11" x="401.344375" y="128.085455" style="fill: #222831; stroke: #222831; stroke-width: 0.8"/>
      </g>
     </g>
     <g id="text_31">
      <!-- 2.5 -->
      <g style="fill: #222831" transform="translate(377.68875 133.365455) scale(0.12 -0.12)">
       <use xlink:href="#NotoSansCJKjp-Regular-13"/>
       <use xlink:href="#NotoSansCJKjp-Regular-f" transform="translate(55.5 0)"/>
       <use xlink:href="#NotoSansCJKjp-Regular-16" transform="translate(83.296875 0)"/>
      </g>
     </g>
    </g>
    <g id="ytick_16">
     <g id="line2d_59">
      <path d="M 401.344375 97.530909 
L 730.104375 97.530909 
" clip-path="url(#p59500bb3bc)" style="fill: none; stroke: #d8dde3; stroke-width: 0.8; stroke-linecap: square"/>
     </g>
     <g id="line2d_60">
      <g>
       <use xlink:href="#m5ff5be2b11" x="401.344375" y="97.530909" style="fill: #222831; stroke: #222831; stroke-width: 0.8"/>
      </g>
     </g>
     <g id="text_32">
      <!-- 5.0 -->
      <g style="fill: #222831" transform="translate(377.68875 102.810909) scale(0.12 -0.12)">
       <use xlink:href="#NotoSansCJKjp-Regular-16"/>
       <use xlink:href="#NotoSansCJKjp-Regular-f" transform="translate(55.5 0)"/>
       <use xlink:href="#NotoSansCJKjp-Regular-11" transform="translate(83.296875 0)"/>
      </g>
     </g>
    </g>
    <g id="ytick_17">
     <g id="line2d_61">
      <path d="M 401.344375 66.976364 
L 730.104375 66.976364 
" clip-path="url(#p59500bb3bc)" style="fill: none; stroke: #d8dde3; stroke-width: 0.8; stroke-linecap: square"/>
     </g>
     <g id="line2d_62">
      <g>
       <use xlink:href="#m5ff5be2b11" x="401.344375" y="66.976364" style="fill: #222831; stroke: #222831; stroke-width: 0.8"/>
      </g>
     </g>
     <g id="text_33">
      <!-- 7.5 -->
      <g style="fill: #222831" transform="translate(377.68875 72.256364) scale(0.12 -0.12)">
       <use xlink:href="#NotoSansCJKjp-Regular-18"/>
       <use xlink:href="#NotoSansCJKjp-Regular-f" transform="translate(55.5 0)"/>
       <use xlink:href="#NotoSansCJKjp-Regular-16" transform="translate(83.296875 0)"/>
      </g>
     </g>
    </g>
    <g id="ytick_18">
     <g id="line2d_63">
      <path d="M 401.344375 36.421818 
L 730.104375 36.421818 
" clip-path="url(#p59500bb3bc)" style="fill: none; stroke: #d8dde3; stroke-width: 0.8; stroke-linecap: square"/>
     </g>
     <g id="line2d_64">
      <g>
       <use xlink:href="#m5ff5be2b11" x="401.344375" y="36.421818" style="fill: #222831; stroke: #222831; stroke-width: 0.8"/>
      </g>
     </g>
     <g id="text_34">
      <!-- 10.0 -->
      <g style="fill: #222831" transform="translate(371.02875 41.701818) scale(0.12 -0.12)">
       <use xlink:href="#NotoSansCJKjp-Regular-12"/>
       <use xlink:href="#NotoSansCJKjp-Regular-11" transform="translate(55.5 0)"/>
       <use xlink:href="#NotoSansCJKjp-Regular-f" transform="translate(111 0)"/>
       <use xlink:href="#NotoSansCJKjp-Regular-11" transform="translate(138.796875 0)"/>
      </g>
     </g>
    </g>
   </g>
   <g id="line2d_65">
    <path d="M 401.344375 158.64 
L 730.104375 158.64 
" clip-path="url(#p59500bb3bc)" style="fill: none; stroke: #222831; stroke-width: 1.3; stroke-linecap: square"/>
   </g>
   <g id="line2d_66">
    <path d="M 565.724375 293.08 
L 565.724375 24.2 
" clip-path="url(#p59500bb3bc)" style="fill: none; stroke: #222831; stroke-width: 1.3; stroke-linecap: square"/>
   </g>
   <g id="line2d_67">
    <path d="M 438.605197 320.28 
L 442.382156 300.49448 
L 446.273077 281.532629 
L 449.385815 267.368269 
L 452.498552 254.072181 
L 455.61129 241.621136 
L 458.724027 229.9919 
L 461.836764 219.161243 
L 464.949502 209.105934 
L 468.062239 199.802741 
L 471.174977 191.228432 
L 474.287714 183.359777 
L 477.400451 176.173544 
L 480.513189 169.646501 
L 483.625926 163.755418 
L 485.960479 159.740478 
L 488.295032 156.060397 
L 490.629585 152.705374 
L 492.964138 149.665608 
L 495.298691 146.931299 
L 497.633244 144.492645 
L 499.967797 142.339846 
L 502.30235 140.463101 
L 504.636904 138.85261 
L 506.971457 137.498571 
L 509.30601 136.391185 
L 511.640563 135.520649 
L 513.975116 134.877164 
L 516.309669 134.450929 
L 518.644222 134.232143 
L 520.978775 134.211005 
L 523.313328 134.377715 
L 525.647881 134.722471 
L 528.760618 135.442168 
L 531.873356 136.437738 
L 534.986093 137.68595 
L 538.098831 139.163571 
L 541.989752 141.297813 
L 545.880674 143.708836 
L 550.54978 146.903527 
L 555.997071 150.947225 
L 563.00073 156.455532 
L 576.229864 166.926963 
L 581.677154 170.928734 
L 586.34626 174.073333 
L 590.237182 176.432629 
L 594.128104 178.506071 
L 597.240841 179.928518 
L 600.353579 181.115747 
L 603.466316 182.044527 
L 606.579053 182.691626 
L 608.913606 182.978122 
L 611.248159 183.083305 
L 613.582713 182.997373 
L 615.917266 182.710526 
L 618.251819 182.212964 
L 620.586372 181.494884 
L 622.920925 180.546487 
L 625.255478 179.357972 
L 627.590031 177.919539 
L 629.924584 176.221385 
L 632.259137 174.253711 
L 634.59369 172.006716 
L 636.928243 169.4706 
L 639.262796 166.63556 
L 641.597349 163.491797 
L 643.931902 160.029511 
L 646.266455 156.238899 
L 648.601008 152.110162 
L 650.935561 147.633499 
L 654.048299 141.106456 
L 657.161036 133.920223 
L 660.273773 126.051568 
L 663.386511 117.477259 
L 666.499248 108.174066 
L 669.611986 98.118757 
L 672.724723 87.2881 
L 675.83746 75.658864 
L 678.950198 63.207819 
L 682.062935 49.911731 
L 685.175673 35.747371 
L 688.28841 20.691506 
L 691.401147 4.720906 
L 692.47275 -1 
L 692.47275 -1 
" clip-path="url(#p59500bb3bc)" style="fill: none; stroke: #1f6feb; stroke-width: 2.6; stroke-linecap: square"/>
   </g>
   <g id="line2d_68">
    <path d="M 457.743592 320.28 
L 461.05858 305.840987 
L 464.171317 293.094519 
L 467.284055 281.105976 
L 470.396792 269.852124 
L 473.50953 259.309734 
L 476.622267 249.455573 
L 479.735004 240.266411 
L 482.847742 231.719016 
L 485.960479 223.790157 
L 489.073217 216.456602 
L 492.185954 209.695119 
L 495.298691 203.482478 
L 498.411429 197.795448 
L 501.524166 192.610795 
L 504.636904 187.905291 
L 507.749641 183.655702 
L 510.862378 179.838797 
L 513.975116 176.431346 
L 517.087853 173.410117 
L 520.200591 170.751877 
L 523.313328 168.433397 
L 526.426065 166.431445 
L 529.538803 164.722789 
L 532.65154 163.284197 
L 535.764278 162.092439 
L 538.877015 161.124284 
L 541.989752 160.356498 
L 545.880674 159.643147 
L 549.771596 159.161201 
L 554.440702 158.824437 
L 559.887992 158.665523 
L 578.564417 158.368234 
L 583.233523 157.950885 
L 587.124445 157.381822 
L 591.015366 156.563203 
L 594.128104 155.698137 
L 597.240841 154.621084 
L 600.353579 153.308813 
L 603.466316 151.738093 
L 606.579053 149.885693 
L 609.691791 147.728381 
L 612.804528 145.242925 
L 615.917266 142.406094 
L 619.030003 139.194658 
L 622.14274 135.585384 
L 625.255478 131.555041 
L 628.368215 127.080398 
L 631.480953 122.138224 
L 634.59369 116.705286 
L 637.706427 110.758354 
L 640.819165 104.274197 
L 643.931902 97.229582 
L 647.04464 89.601278 
L 650.157377 81.366055 
L 653.270114 72.50068 
L 656.382852 62.981923 
L 659.495589 52.786552 
L 662.608327 41.891335 
L 665.721064 30.273041 
L 668.833801 17.908439 
L 671.946539 4.774298 
L 673.257815 -1 
L 673.257815 -1 
" clip-path="url(#p59500bb3bc)" style="fill: none; stroke-dasharray: 6.66,2.88; stroke-dashoffset: 0; stroke: #9aa4b2; stroke-width: 1.8"/>
   </g>
   <g id="line2d_69">
    <path d="M 520.063264 121.974545 
L 521.926983 123.471095 
L 523.790702 124.967644 
L 525.65442 126.464193 
L 527.518139 127.960742 
L 529.381858 129.457291 
L 531.245577 130.95384 
L 533.109296 132.45039 
L 534.973014 133.946939 
L 536.836733 135.443488 
L 538.700452 136.940037 
L 540.564171 138.436586 
L 542.42789 139.933135 
L 544.291609 141.429685 
L 546.155327 142.926234 
L 548.019046 144.422783 
L 549.882765 145.919332 
L 551.746484 147.415881 
L 553.610203 148.91243 
L 555.473921 150.40898 
L 557.33764 151.905529 
L 559.201359 153.402078 
L 561.065078 154.898627 
L 562.928797 156.395176 
L 564.792516 157.891725 
L 566.656234 159.388275 
L 568.519953 160.884824 
L 570.383672 162.381373 
L 572.247391 163.877922 
L 574.11111 165.374471 
L 575.974829 166.87102 
L 577.838547 168.36757 
L 579.702266 169.864119 
L 581.565985 171.360668 
L 583.429704 172.857217 
L 585.293423 174.353766 
L 587.157141 175.850315 
L 589.02086 177.346865 
L 590.884579 178.843414 
L 592.748298 180.339963 
L 594.612017 181.836512 
L 596.475736 183.333061 
L 598.339454 184.82961 
L 600.203173 186.32616 
L 602.066892 187.822709 
L 603.930611 189.319258 
L 605.79433 190.815807 
L 607.658048 192.312356 
L 609.521767 193.808905 
L 611.385486 195.305455 
" clip-path="url(#p59500bb3bc)" style="fill: none; stroke: #bf8700; stroke-width: 2.2; stroke-linecap: square"/>
   </g>
   <g id="text_35">
    <!-- 大域：由 $x^3$ 決定 -->
    <g style="fill: #6b7280" transform="translate(597.312153 66.976364) scale(0.11 -0.11)">
     <defs>
      <path id="NotoSansCJKjp-Regular-36fb" d="M 2950 5370 
C 2944 4864 2950 4218 2854 3539 
L 397 3539 
L 397 3046 
L 2771 3046 
C 2515 1830 1875 589 275 -102 
C 410 -205 563 -378 640 -499 
C 2202 218 2893 1446 3206 2682 
C 3706 1222 4531 90 5773 -499 
C 5856 -358 6010 -160 6131 -51 
C 4890 467 4051 1632 3603 3046 
L 6029 3046 
L 6029 3539 
L 3366 3539 
C 3456 4211 3462 4851 3469 5370 
L 2950 5370 
z
" transform="scale(0.015625)"/>
      <path id="NotoSansCJKjp-Regular-34ca" d="M 1882 659 
L 2003 198 
C 2618 371 3430 608 4198 832 
L 4154 1235 
C 3315 1018 2451 787 1882 659 
z
M 2656 2995 
L 3494 2995 
L 3494 1914 
L 2656 1914 
L 2656 2995 
z
M 2285 3386 
L 2285 1523 
L 3885 1523 
L 3885 3386 
L 2285 3386 
z
M 230 826 
L 410 352 
C 915 595 1542 915 2131 1222 
L 1997 1651 
L 1402 1363 
L 1402 3360 
L 1984 3360 
L 1984 3814 
L 1402 3814 
L 1402 5299 
L 954 5299 
L 954 3814 
L 275 3814 
L 275 3360 
L 954 3360 
L 954 1152 
C 685 1024 435 909 230 826 
z
M 5517 3386 
C 5363 2778 5158 2221 4902 1728 
C 4813 2362 4749 3130 4717 3987 
L 6074 3987 
L 6074 4429 
L 5728 4429 
L 6016 4704 
C 5850 4896 5510 5171 5229 5363 
L 4954 5120 
C 5235 4915 5555 4627 5715 4429 
L 4704 4429 
L 4698 5370 
L 4237 5370 
L 4250 4429 
L 2093 4429 
L 2093 3987 
L 4262 3987 
C 4307 2893 4390 1907 4544 1133 
C 4186 621 3744 192 3226 -141 
C 3328 -211 3514 -371 3578 -454 
C 3987 -166 4352 186 4672 582 
C 4870 -96 5146 -506 5536 -506 
C 5939 -506 6074 -230 6150 621 
C 6048 666 5901 768 5805 870 
C 5779 205 5722 -51 5594 -51 
C 5363 -51 5165 365 5018 1069 
C 5421 1702 5728 2451 5952 3296 
L 5517 3386 
z
" transform="scale(0.015625)"/>
      <path id="NotoSansCJKjp-Regular-69ba" d="M 1210 1786 
L 2938 1786 
L 2938 365 
L 1210 365 
L 1210 1786 
z
M 5184 1786 
L 5184 365 
L 3424 365 
L 3424 1786 
L 5184 1786 
z
M 1210 2259 
L 1210 3654 
L 2938 3654 
L 2938 2259 
L 1210 2259 
z
M 5184 2259 
L 3424 2259 
L 3424 3654 
L 5184 3654 
L 5184 2259 
z
M 2938 5376 
L 2938 4134 
L 730 4134 
L 730 -512 
L 1210 -512 
L 1210 -115 
L 5184 -115 
L 5184 -486 
L 5683 -486 
L 5683 4134 
L 3424 4134 
L 3424 5376 
L 2938 5376 
z
" transform="scale(0.015625)"/>
      <path id="NotoSansCJKjp-Regular-5a4a" d="M 582 4973 
C 992 4787 1485 4480 1728 4243 
L 2003 4640 
C 1754 4864 1254 5146 845 5318 
L 582 4973 
z
M 243 3238 
C 659 3059 1158 2771 1408 2554 
L 1683 2957 
C 1427 3168 915 3443 506 3597 
L 243 3238 
z
M 422 -115 
L 832 -422 
C 1178 179 1587 986 1894 1664 
L 1523 1965 
C 1190 1229 736 384 422 -115 
z
M 5146 2445 
L 4038 2445 
C 4058 2688 4064 2938 4064 3181 
L 4064 3898 
L 5146 3898 
L 5146 2445 
z
M 3584 5370 
L 3584 4352 
L 2317 4352 
L 2317 3898 
L 3584 3898 
L 3584 3187 
C 3584 2938 3578 2688 3552 2445 
L 1965 2445 
L 1965 1990 
L 3482 1990 
C 3309 1165 2854 403 1670 -179 
C 1792 -262 1971 -422 2054 -525 
C 3258 90 3750 915 3942 1805 
C 4294 704 4915 -109 5862 -525 
C 5939 -397 6086 -211 6202 -115 
C 5280 243 4672 998 4358 1990 
L 6150 1990 
L 6150 2445 
L 5613 2445 
L 5613 4352 
L 4064 4352 
L 4064 5370 
L 3584 5370 
z
" transform="scale(0.015625)"/>
      <path id="NotoSansCJKjp-Regular-3c8a" d="M 1421 2413 
C 1286 1248 934 333 224 -218 
C 339 -294 538 -461 621 -544 
C 1037 -179 1350 307 1574 896 
C 2163 -198 3117 -422 4454 -422 
L 5952 -422 
C 5971 -282 6061 -51 6131 64 
C 5818 58 4717 58 4480 58 
C 4109 58 3757 77 3443 134 
L 3443 1440 
L 5350 1440 
L 5350 1888 
L 3443 1888 
L 3443 2957 
L 5088 2957 
L 5088 3418 
L 1350 3418 
L 1350 2957 
L 2944 2957 
L 2944 269 
C 2419 461 2016 832 1760 1504 
C 1824 1766 1882 2054 1920 2355 
L 1421 2413 
z
M 525 4640 
L 525 3245 
L 998 3245 
L 998 4186 
L 5382 4186 
L 5382 3245 
L 5875 3245 
L 5875 4640 
L 3443 4640 
L 3443 5376 
L 2938 5376 
L 2938 4640 
L 525 4640 
z
" transform="scale(0.015625)"/>
     </defs>
     <use xlink:href="#NotoSansCJKjp-Regular-36fb" transform="translate(0 0.084203)"/>
     <use xlink:href="#NotoSansCJKjp-Regular-34ca" transform="translate(99.999908 0.084203)"/>
     <use xlink:href="#NotoSansCJKjp-Regular-e6c0" transform="translate(199.999817 0.084203)"/>
     <use xlink:href="#NotoSansCJKjp-Regular-69ba" transform="translate(299.999725 0.084203)"/>
     <use xlink:href="#NotoSansCJKjp-Regular-1" transform="translate(399.999634 0.084203)"/>
     <use xlink:href="#Cmmi10-3f" transform="translate(422.399612 0.084203)"/>
     <use xlink:href="#Cmr10-6e" transform="translate(490.739872 41.373437) scale(0.7)"/>
     <use xlink:href="#NotoSansCJKjp-Regular-1" transform="translate(531.460288 0.084203)"/>
     <use xlink:href="#NotoSansCJKjp-Regular-5a4a" transform="translate(553.860267 0.084203)"/>
     <use xlink:href="#NotoSansCJKjp-Regular-3c8a" transform="translate(653.860175 0.084203)"/>
    </g>
   </g>
   <g id="text_36">
    <!-- 局部：近似一直線 -->
    <g style="fill: #bf8700" transform="translate(444.100486 250.303636) scale(0.11 -0.11)">
     <defs>
      <path id="NotoSansCJKjp-Regular-3dc0" d="M 979 5043 
L 979 3514 
C 979 2470 902 998 179 -38 
C 282 -96 486 -256 563 -346 
C 1107 435 1325 1478 1408 2413 
L 5350 2413 
C 5280 774 5203 160 5062 13 
C 5005 -58 4941 -70 4826 -70 
C 4704 -70 4390 -64 4051 -38 
C 4128 -166 4179 -352 4186 -486 
C 4531 -512 4864 -512 5043 -493 
C 5242 -474 5363 -429 5485 -288 
C 5677 -58 5754 659 5837 2618 
C 5843 2688 5843 2842 5843 2842 
L 1440 2842 
L 1453 3392 
L 5395 3392 
L 5395 5043 
L 979 5043 
z
M 1453 4627 
L 4915 4627 
L 4915 3808 
L 1453 3808 
L 1453 4627 
z
M 1971 1907 
L 1971 -122 
L 2419 -122 
L 2419 250 
L 4416 250 
L 4416 1907 
L 1971 1907 
z
M 2419 1510 
L 3968 1510 
L 3968 646 
L 2419 646 
L 2419 1510 
z
" transform="scale(0.015625)"/>
      <path id="NotoSansCJKjp-Regular-9f27" d="M 269 2893 
L 269 2458 
L 3578 2458 
L 3578 2893 
L 269 2893 
z
M 832 4019 
C 960 3686 1075 3258 1101 2970 
L 1530 3078 
C 1491 3354 1376 3782 1229 4102 
L 832 4019 
z
M 2662 4147 
C 2586 3827 2432 3354 2304 3059 
L 2694 2950 
C 2829 3232 2982 3661 3123 4038 
L 2662 4147 
z
M 3840 4998 
L 3840 -512 
L 4307 -512 
L 4307 4544 
L 5523 4544 
C 5318 4032 5043 3334 4768 2797 
C 5421 2234 5606 1747 5613 1350 
C 5613 1114 5562 928 5427 838 
C 5350 794 5254 774 5146 768 
C 5024 762 4838 762 4646 781 
C 4730 640 4774 442 4781 307 
C 4973 294 5178 294 5344 314 
C 5504 333 5645 378 5760 454 
C 5984 602 6080 902 6080 1299 
C 6074 1754 5914 2259 5267 2861 
C 5568 3443 5901 4186 6157 4794 
L 5811 5018 
L 5728 4998 
L 3840 4998 
z
M 1715 5350 
L 1715 4666 
L 429 4666 
L 429 4237 
L 3488 4237 
L 3488 4666 
L 2182 4666 
L 2182 5350 
L 1715 5350 
z
M 698 1894 
L 698 -518 
L 1146 -518 
L 1146 -141 
L 2752 -141 
L 2752 -486 
L 3219 -486 
L 3219 1894 
L 698 1894 
z
M 1146 288 
L 1146 1472 
L 2752 1472 
L 2752 288 
L 1146 288 
z
" transform="scale(0.015625)"/>
      <path id="NotoSansCJKjp-Regular-9ca3" d="M 384 4934 
C 794 4646 1274 4218 1478 3904 
L 1862 4224 
C 1632 4531 1152 4947 730 5222 
L 384 4934 
z
M 5331 5350 
C 4806 5158 3885 4986 3040 4864 
L 2656 4947 
L 2656 3456 
C 2656 2662 2573 1645 1869 890 
C 1984 826 2157 659 2221 557 
C 2886 1267 3072 2240 3110 3040 
L 4429 3040 
L 4429 390 
L 4902 390 
L 4902 3040 
L 6093 3040 
L 6093 3488 
L 3123 3488 
L 3123 4461 
C 4026 4576 5043 4755 5747 4992 
L 5331 5350 
z
M 1677 2848 
L 314 2848 
L 314 2400 
L 1210 2400 
L 1210 768 
C 890 499 518 230 230 32 
L 480 -461 
C 826 -173 1152 102 1459 378 
C 1869 -128 2445 -358 3283 -390 
C 3994 -416 5318 -403 6016 -371 
C 6035 -224 6118 6 6176 115 
C 5414 64 3981 45 3283 77 
C 2541 102 1978 326 1677 794 
L 1677 2848 
z
" transform="scale(0.015625)"/>
      <path id="NotoSansCJKjp-Regular-26cd" d="M 3373 4371 
C 3699 3898 4051 3245 4186 2842 
L 4614 3046 
C 4474 3450 4115 4077 3770 4550 
L 3373 4371 
z
M 2406 5005 
L 2445 1197 
L 1766 973 
L 1965 493 
C 2592 736 3392 1056 4147 1363 
L 4058 1779 
L 2906 1363 
L 2867 5011 
L 2406 5005 
z
M 5376 5114 
C 5261 2093 4813 595 2477 -134 
C 2579 -237 2739 -454 2790 -557 
C 3757 -211 4416 256 4870 890 
C 5254 403 5677 -160 5894 -518 
L 6266 -173 
C 6029 205 5542 813 5126 1299 
C 5613 2214 5792 3437 5862 5094 
L 5376 5114 
z
M 1690 5350 
C 1331 4378 736 3418 102 2797 
C 192 2688 326 2438 371 2323 
C 595 2554 813 2822 1024 3117 
L 1024 -499 
L 1485 -499 
L 1485 3840 
C 1734 4282 1965 4749 2144 5216 
L 1690 5350 
z
" transform="scale(0.015625)"/>
      <path id="NotoSansCJKjp-Regular-2509" d="M 282 2758 
L 282 2234 
L 6144 2234 
L 6144 2758 
L 282 2758 
z
" transform="scale(0.015625)"/>
      <path id="NotoSansCJKjp-Regular-6ce1" d="M 2374 2586 
L 4832 2586 
L 4832 2061 
L 2374 2061 
L 2374 2586 
z
M 2374 1715 
L 4832 1715 
L 4832 1178 
L 2374 1178 
L 2374 1715 
z
M 2374 3456 
L 4832 3456 
L 4832 2931 
L 2374 2931 
L 2374 3456 
z
M 736 3635 
L 736 -518 
L 1203 -518 
L 1203 -179 
L 6080 -179 
L 6080 269 
L 1203 269 
L 1203 3635 
L 736 3635 
z
M 3053 5395 
L 3008 4787 
L 397 4787 
L 397 4339 
L 2963 4339 
L 2899 3814 
L 1914 3814 
L 1914 813 
L 5306 813 
L 5306 3814 
L 3379 3814 
L 3469 4339 
L 6029 4339 
L 6029 4787 
L 3533 4787 
L 3603 5363 
L 3053 5395 
z
" transform="scale(0.015625)"/>
      <path id="NotoSansCJKjp-Regular-7a17" d="M 3258 3405 
L 5414 3405 
L 5414 2848 
L 3258 2848 
L 3258 3405 
z
M 3258 4326 
L 5414 4326 
L 5414 3770 
L 3258 3770 
L 3258 4326 
z
M 1894 1632 
C 2048 1267 2182 781 2208 474 
L 2586 589 
C 2541 902 2406 1370 2246 1734 
L 1894 1632 
z
M 570 1715 
C 493 1158 378 582 166 192 
C 269 154 454 70 538 13 
C 736 422 890 1043 973 1651 
L 570 1715 
z
M 2816 4717 
L 2816 2451 
L 4109 2451 
L 4109 6 
C 4109 -64 4090 -83 4006 -90 
C 3930 -90 3674 -90 3386 -83 
C 3443 -211 3501 -384 3520 -506 
C 3917 -506 4173 -499 4339 -435 
C 4506 -358 4544 -237 4544 6 
L 4544 1325 
C 4819 717 5254 109 5952 -250 
C 6016 -128 6157 51 6246 141 
C 5754 358 5382 698 5114 1088 
C 5427 1306 5798 1613 6106 1894 
L 5715 2176 
C 5523 1946 5203 1645 4922 1408 
C 4742 1734 4627 2074 4544 2400 
L 4544 2451 
L 5875 2451 
L 5875 4717 
L 4365 4717 
C 4467 4890 4570 5088 4659 5280 
L 4128 5382 
C 4077 5190 3968 4934 3872 4717 
L 2816 4717 
z
M 2573 1901 
L 2573 1491 
L 3443 1491 
C 3219 826 2803 352 2291 77 
C 2381 13 2534 -154 2592 -250 
C 3226 115 3738 787 3962 1805 
L 3699 1914 
L 3622 1901 
L 2573 1901 
z
M 179 2547 
L 237 2118 
L 1248 2182 
L 1248 -512 
L 1670 -512 
L 1670 2208 
L 2176 2240 
C 2234 2086 2285 1946 2310 1824 
L 2694 2003 
C 2598 2349 2342 2906 2074 3322 
L 1722 3181 
C 1824 3014 1920 2829 2010 2637 
L 1088 2592 
C 1517 3136 2010 3866 2374 4454 
L 1971 4646 
C 1792 4301 1549 3878 1286 3475 
C 1190 3610 1075 3750 941 3898 
C 1178 4256 1459 4781 1677 5216 
L 1254 5376 
C 1120 5018 890 4531 685 4166 
L 486 4346 
L 237 4038 
C 525 3763 845 3398 1037 3104 
C 896 2912 762 2726 634 2566 
L 179 2547 
z
" transform="scale(0.015625)"/>
     </defs>
     <use xlink:href="#NotoSansCJKjp-Regular-3dc0"/>
     <use xlink:href="#NotoSansCJKjp-Regular-9f27" transform="translate(100 0)"/>
     <use xlink:href="#NotoSansCJKjp-Regular-e6c0" transform="translate(200 0)"/>
     <use xlink:href="#NotoSansCJKjp-Regular-9ca3" transform="translate(300 0)"/>
     <use xlink:href="#NotoSansCJKjp-Regular-26cd" transform="translate(400 0)"/>
     <use xlink:href="#NotoSansCJKjp-Regular-2509" transform="translate(500 0)"/>
     <use xlink:href="#NotoSansCJKjp-Regular-6ce1" transform="translate(600 0)"/>
     <use xlink:href="#NotoSansCJKjp-Regular-7a17" transform="translate(700 0)"/>
    </g>
   </g>
   <g id="text_37">
    <!-- 大域看最高次項，局部近似直線 -->
    <g style="fill: #222831" transform="translate(478.224375 18.2) scale(0.125 -0.125)">
     <defs>
      <path id="NotoSansCJKjp-Regular-6d07" d="M 2125 1370 
L 4915 1370 
L 4915 922 
L 2125 922 
L 2125 1370 
z
M 2125 1709 
L 2125 2144 
L 4915 2144 
L 4915 1709 
L 2125 1709 
z
M 2125 589 
L 4915 589 
L 4915 115 
L 2125 115 
L 2125 589 
z
M 5286 5325 
C 4262 5120 2317 5024 755 5011 
C 800 4909 845 4749 851 4640 
C 1408 4640 2010 4653 2611 4678 
C 2566 4531 2522 4384 2470 4237 
L 845 4237 
L 845 3853 
L 2330 3853 
C 2266 3693 2195 3533 2112 3373 
L 378 3373 
L 378 2976 
L 1894 2976 
C 1491 2298 941 1709 211 1293 
C 314 1197 454 1024 518 915 
C 960 1178 1338 1498 1664 1862 
L 1664 -525 
L 2125 -525 
L 2125 -269 
L 4915 -269 
L 4915 -525 
L 5395 -525 
L 5395 2528 
L 2176 2528 
C 2272 2675 2362 2822 2445 2976 
L 6022 2976 
L 6022 3373 
L 2643 3373 
C 2720 3533 2790 3693 2854 3853 
L 5651 3853 
L 5651 4237 
L 2995 4237 
L 3142 4704 
C 4064 4762 4947 4851 5594 4979 
L 5286 5325 
z
" transform="scale(0.015625)"/>
      <path id="NotoSansCJKjp-Regular-50c3" d="M 1600 4064 
L 4813 4064 
L 4813 3610 
L 1600 3610 
L 1600 4064 
z
M 1600 4832 
L 4813 4832 
L 4813 4384 
L 1600 4384 
L 1600 4832 
z
M 1139 5171 
L 1139 3270 
L 5293 3270 
L 5293 5171 
L 1139 5171 
z
M 2534 2509 
L 2534 2074 
L 1370 2074 
L 1370 2509 
L 2534 2509 
z
M 314 282 
L 358 -147 
L 2534 115 
L 2534 -512 
L 2995 -512 
L 2995 -109 
C 3091 -198 3200 -365 3251 -474 
C 3699 -320 4141 -96 4531 205 
C 4909 -115 5363 -358 5875 -506 
C 5939 -397 6061 -218 6163 -134 
C 5664 -6 5229 205 4858 486 
C 5280 883 5613 1389 5811 2010 
L 5517 2131 
L 5434 2112 
L 3219 2112 
L 3219 1722 
L 3776 1722 
L 3501 1638 
C 3674 1216 3910 832 4205 512 
C 3840 237 3418 32 2995 -90 
L 2995 2509 
L 6016 2509 
L 6016 2912 
L 371 2912 
L 371 2509 
L 928 2509 
L 928 339 
L 314 282 
z
M 3898 1722 
L 5222 1722 
C 5056 1363 4813 1050 4531 781 
C 4262 1050 4045 1370 3898 1722 
z
M 2534 1709 
L 2534 1261 
L 1370 1261 
L 1370 1709 
L 2534 1709 
z
M 2534 902 
L 2534 518 
L 1370 384 
L 1370 902 
L 2534 902 
z
" transform="scale(0.015625)"/>
      <path id="NotoSansCJKjp-Regular-b0d5" d="M 1939 3635 
L 4448 3635 
L 4448 3021 
L 1939 3021 
L 1939 3635 
z
M 1478 3987 
L 1478 2662 
L 4928 2662 
L 4928 3987 
L 1478 3987 
z
M 2918 5382 
L 2918 4768 
L 416 4768 
L 416 4346 
L 5978 4346 
L 5978 4768 
L 3411 4768 
L 3411 5382 
L 2918 5382 
z
M 704 2266 
L 704 -512 
L 1171 -512 
L 1171 1856 
L 5261 1856 
L 5261 70 
C 5261 -19 5235 -45 5120 -51 
C 5018 -58 4653 -58 4237 -45 
C 4301 -179 4371 -365 4390 -499 
C 4922 -499 5267 -499 5478 -422 
C 5683 -346 5741 -205 5741 64 
L 5741 2266 
L 704 2266 
z
M 2406 1088 
L 3994 1088 
L 3994 435 
L 2406 435 
L 2406 1088 
z
M 1984 1440 
L 1984 -243 
L 2406 -243 
L 2406 83 
L 4422 83 
L 4422 1440 
L 1984 1440 
z
" transform="scale(0.015625)"/>
      <path id="NotoSansCJKjp-Regular-57df" d="M 243 806 
L 557 410 
C 986 826 1530 1382 2003 1901 
L 1734 2310 
C 1197 1741 614 1158 243 806 
z
M 448 4602 
C 858 4314 1363 3891 1606 3610 
L 1965 4006 
C 1715 4282 1197 4685 787 4947 
L 448 4602 
z
M 2854 5363 
C 2630 4339 2240 3334 1696 2707 
C 1824 2650 2054 2515 2157 2438 
C 2426 2797 2662 3245 2874 3750 
L 3654 3750 
L 3654 2931 
C 3654 2330 3322 653 1370 -115 
C 1459 -211 1606 -403 1664 -512 
C 3206 141 3795 1427 3904 2029 
C 4000 1434 4544 102 5894 -512 
C 5965 -397 6112 -198 6208 -83 
C 4461 672 4147 2368 4154 2931 
L 4154 3750 
L 5485 3750 
C 5350 3322 5152 2848 4986 2547 
C 5101 2502 5286 2400 5389 2349 
C 5626 2778 5926 3443 6099 4058 
L 5747 4250 
L 5651 4224 
L 3053 4224 
C 3168 4557 3270 4915 3354 5274 
L 2854 5363 
z
" transform="scale(0.015625)"/>
      <path id="NotoSansCJKjp-Regular-abc1" d="M 3309 2675 
L 5440 2675 
L 5440 2048 
L 3309 2048 
L 3309 2675 
z
M 3309 1696 
L 5440 1696 
L 5440 1062 
L 3309 1062 
L 3309 1696 
z
M 3309 3648 
L 5440 3648 
L 5440 3027 
L 3309 3027 
L 3309 3648 
z
M 3552 589 
C 3232 314 2573 0 2022 -179 
C 2118 -269 2259 -416 2323 -518 
C 2886 -333 3552 0 3968 320 
L 3552 589 
z
M 4608 307 
C 5050 70 5613 -288 5888 -525 
L 6266 -237 
C 5971 6 5402 352 4973 570 
L 4608 307 
z
M 205 1165 
L 397 704 
C 1024 928 1869 1235 2669 1523 
L 2586 1946 
L 1658 1632 
L 1658 4179 
L 2515 4179 
L 2515 4634 
L 339 4634 
L 339 4179 
L 1178 4179 
L 1178 1478 
L 205 1165 
z
M 2854 4026 
L 2854 691 
L 5914 691 
L 5914 4026 
L 4397 4026 
L 4602 4653 
L 6157 4653 
L 6157 5069 
L 2541 5069 
L 2541 4653 
L 4058 4653 
C 4019 4448 3968 4224 3917 4026 
L 2854 4026 
z
" transform="scale(0.015625)"/>
      <path id="NotoSansCJKjp-Regular-e6b2" d="M 1005 -685 
C 1677 -448 2112 77 2112 768 
C 2112 1216 1920 1504 1568 1504 
C 1306 1504 1082 1344 1082 1043 
C 1082 742 1299 589 1562 589 
L 1670 602 
C 1638 160 1357 -141 864 -346 
L 1005 -685 
z
" transform="scale(0.015625)"/>
     </defs>
     <use xlink:href="#NotoSansCJKjp-Regular-36fb"/>
     <use xlink:href="#NotoSansCJKjp-Regular-34ca" transform="translate(100 0)"/>
     <use xlink:href="#NotoSansCJKjp-Regular-6d07" transform="translate(200 0)"/>
     <use xlink:href="#NotoSansCJKjp-Regular-50c3" transform="translate(300 0)"/>
     <use xlink:href="#NotoSansCJKjp-Regular-b0d5" transform="translate(400 0)"/>
     <use xlink:href="#NotoSansCJKjp-Regular-57df" transform="translate(500 0)"/>
     <use xlink:href="#NotoSansCJKjp-Regular-abc1" transform="translate(600 0)"/>
     <use xlink:href="#NotoSansCJKjp-Regular-e6b2" transform="translate(700 0)"/>
     <use xlink:href="#NotoSansCJKjp-Regular-3dc0" transform="translate(800 0)"/>
     <use xlink:href="#NotoSansCJKjp-Regular-9f27" transform="translate(900 0)"/>
     <use xlink:href="#NotoSansCJKjp-Regular-9ca3" transform="translate(1000 0)"/>
     <use xlink:href="#NotoSansCJKjp-Regular-26cd" transform="translate(1100 0)"/>
     <use xlink:href="#NotoSansCJKjp-Regular-6ce1" transform="translate(1200 0)"/>
     <use xlink:href="#NotoSansCJKjp-Regular-7a17" transform="translate(1300 0)"/>
    </g>
   </g>
   <g id="legend_1">
    <g id="patch_7">
     <path d="M 408.344375 79 
L 527.944375 79 
Q 529.944375 79 529.944375 77 
L 529.944375 31.2 
Q 529.944375 29.2 527.944375 29.2 
L 408.344375 29.2 
Q 406.344375 29.2 406.344375 31.2 
L 406.344375 77 
Q 406.344375 79 408.344375 79 
z
" style="fill: #ffffff; opacity: 0.9; stroke: #cccccc; stroke-linejoin: miter"/>
    </g>
    <g id="line2d_70">
     <path d="M 410.344375 38.5 
L 420.344375 38.5 
L 430.344375 38.5 
" style="fill: none; stroke: #1f6feb; stroke-width: 2.6; stroke-linecap: square"/>
    </g>
    <g id="text_38">
     <!-- 三次函數 -->
     <g style="fill: #222831" transform="translate(438.344375 42) scale(0.1 -0.1)">
      <defs>
       <path id="NotoSansCJKjp-Regular-2514" d="M 787 4755 
L 787 4269 
L 5626 4269 
L 5626 4755 
L 787 4755 
z
M 1197 2662 
L 1197 2182 
L 5126 2182 
L 5126 2662 
L 1197 2662 
z
M 416 442 
L 416 -45 
L 5978 -45 
L 5978 442 
L 416 442 
z
" transform="scale(0.015625)"/>
       <path id="NotoSansCJKjp-Regular-2b78" d="M 3635 1843 
C 4096 1530 4646 1062 4915 768 
L 5203 1114 
C 4928 1402 4378 1837 3904 2144 
L 3635 1843 
z
M 1344 3277 
C 1664 3008 2022 2605 2189 2336 
L 2515 2618 
C 2342 2874 1984 3251 1645 3520 
L 1344 3277 
z
M 1178 1242 
L 1414 845 
C 1811 1114 2304 1434 2771 1747 
L 2650 2112 
C 2099 1779 1549 1440 1178 1242 
z
M 4659 3603 
C 4467 3290 4115 2835 3853 2560 
L 4166 2374 
C 4442 2643 4774 3034 5056 3392 
L 4659 3603 
z
M 5370 3827 
L 5370 294 
L 1062 294 
L 1062 3827 
L 602 3827 
L 602 -506 
L 1062 -506 
L 1062 -147 
L 5370 -147 
L 5370 -486 
L 5843 -486 
L 5843 3827 
L 5370 3827 
z
M 378 4992 
L 378 4531 
L 2458 4531 
C 2368 4090 2253 3597 2157 3264 
L 2598 3206 
L 2650 3398 
L 3238 3398 
C 3187 1690 3123 1075 3008 928 
C 2957 858 2906 845 2816 845 
C 2720 845 2483 845 2227 870 
C 2291 762 2336 595 2342 474 
C 2605 461 2861 461 3008 474 
C 3174 486 3290 538 3392 666 
C 3552 877 3616 1574 3674 3584 
C 3674 3648 3680 3789 3680 3789 
L 2746 3789 
L 2912 4531 
L 6029 4531 
L 6029 4992 
L 378 4992 
z
" transform="scale(0.015625)"/>
       <path id="NotoSansCJKjp-Regular-4e26" d="M 4352 3744 
L 5318 3744 
C 5216 2957 5062 2266 4826 1677 
C 4595 2266 4442 2944 4333 3661 
L 4352 3744 
z
M 256 4301 
L 256 3936 
L 698 3936 
L 698 3245 
L 1741 3245 
L 1741 2950 
L 538 2950 
L 538 1882 
L 1485 1882 
L 1274 1478 
L 262 1472 
L 275 1088 
L 1069 1094 
C 928 845 787 608 666 422 
L 1062 307 
L 1171 486 
C 1389 403 1606 314 1818 218 
C 1459 32 998 -83 416 -154 
C 493 -256 570 -410 602 -538 
C 1293 -416 1837 -250 2246 13 
C 2522 -128 2765 -275 2957 -410 
L 3264 -102 
C 3078 19 2848 154 2586 282 
C 2816 512 2976 794 3072 1133 
L 3750 1152 
L 3763 1510 
L 1734 1485 
L 1939 1882 
L 3424 1882 
L 3424 2419 
C 3526 2336 3648 2221 3706 2157 
C 3834 2362 3949 2592 4051 2848 
C 4179 2221 4346 1645 4563 1146 
C 4256 614 3853 192 3309 -134 
C 3392 -224 3539 -429 3584 -525 
C 4090 -198 4486 192 4794 666 
C 5075 166 5414 -237 5850 -518 
C 5920 -403 6067 -224 6176 -141 
C 5709 141 5350 582 5062 1133 
C 5421 1843 5638 2707 5779 3744 
L 6144 3744 
L 6144 4186 
L 4467 4186 
C 4550 4544 4621 4922 4678 5306 
L 4211 5376 
C 4070 4339 3827 3315 3424 2618 
L 3424 2950 
L 2163 2950 
L 2163 3245 
L 3277 3245 
L 3277 3936 
L 3731 3936 
L 3731 4301 
L 3277 4301 
L 3277 4986 
L 2163 4986 
L 2163 5376 
L 1741 5376 
L 1741 4986 
L 698 4986 
L 698 4301 
L 256 4301 
z
M 1101 4646 
L 1741 4646 
L 1741 4282 
L 1101 4282 
L 1101 4646 
z
M 1741 3578 
L 1101 3578 
L 1101 3955 
L 1741 3955 
L 1741 3578 
z
M 2163 4646 
L 2848 4646 
L 2848 4282 
L 2163 4282 
L 2163 4646 
z
M 2163 3578 
L 2163 3955 
L 2848 3955 
L 2848 3578 
L 2163 3578 
z
M 947 2624 
L 1741 2624 
L 1741 2202 
L 947 2202 
L 947 2624 
z
M 2163 2624 
L 3002 2624 
L 3002 2202 
L 2163 2202 
L 2163 2624 
z
M 1530 1107 
L 2630 1126 
C 2534 864 2387 646 2189 467 
C 1920 589 1632 704 1357 800 
L 1530 1107 
z
" transform="scale(0.015625)"/>
      </defs>
      <use xlink:href="#NotoSansCJKjp-Regular-2514"/>
      <use xlink:href="#NotoSansCJKjp-Regular-57df" transform="translate(100 0)"/>
      <use xlink:href="#NotoSansCJKjp-Regular-2b78" transform="translate(200 0)"/>
      <use xlink:href="#NotoSansCJKjp-Regular-4e26" transform="translate(300 0)"/>
     </g>
    </g>
    <g id="line2d_71">
     <path d="M 410.344375 53.5 
L 420.344375 53.5 
L 430.344375 53.5 
" style="fill: none; stroke-dasharray: 6.66,2.88; stroke-dashoffset: 0; stroke: #9aa4b2; stroke-width: 1.8"/>
    </g>
    <g id="text_39">
     <!-- $y=x^3$（大域趨勢） -->
     <g style="fill: #222831" transform="translate(438.344375 57) scale(0.1 -0.1)">
      <defs>
       <path id="Cmmi10-72" d="M 538 -916 
Q 672 -1147 1006 -1147 
Q 1309 -1147 1531 -934 
Q 1753 -722 1889 -420 
Q 2025 -119 2100 197 
Q 1816 -72 1484 -72 
Q 1231 -72 1053 15 
Q 875 103 776 276 
Q 678 450 678 697 
Q 678 906 734 1126 
Q 791 1347 892 1617 
Q 994 1888 1069 2088 
Q 1153 2322 1153 2472 
Q 1153 2663 1013 2663 
Q 759 2663 595 2402 
Q 431 2141 353 1819 
Q 341 1778 300 1778 
L 225 1778 
Q 172 1778 172 1838 
L 172 1856 
Q 275 2238 487 2533 
Q 700 2828 1025 2828 
Q 1253 2828 1411 2678 
Q 1569 2528 1569 2297 
Q 1569 2178 1516 2047 
Q 1488 1969 1388 1706 
Q 1288 1444 1234 1272 
Q 1181 1100 1147 934 
Q 1113 769 1113 603 
Q 1113 391 1203 244 
Q 1294 97 1491 97 
Q 1888 97 2203 581 
L 2688 2553 
Q 2709 2638 2787 2698 
Q 2866 2759 2956 2759 
Q 3034 2759 3092 2709 
Q 3150 2659 3150 2578 
Q 3150 2541 3144 2528 
L 2509 -19 
Q 2425 -347 2200 -647 
Q 1975 -947 1658 -1130 
Q 1341 -1313 997 -1313 
Q 831 -1313 668 -1248 
Q 506 -1184 406 -1056 
Q 306 -928 306 -756 
Q 306 -581 409 -453 
Q 513 -325 684 -325 
Q 788 -325 858 -389 
Q 928 -453 928 -556 
Q 928 -703 818 -812 
Q 709 -922 563 -922 
Q 556 -919 550 -917 
Q 544 -916 538 -916 
z
" transform="scale(0.015625)"/>
       <path id="NotoSansCJKjp-Regular-98f8" d="M 627 2483 
C 646 1632 602 550 154 -224 
C 250 -269 403 -403 467 -499 
C 704 -102 845 358 928 838 
C 1408 -122 2195 -346 3597 -346 
L 5984 -346 
C 6010 -205 6099 19 6176 128 
C 5792 115 3898 115 3597 115 
C 2886 115 2342 179 1933 390 
L 1933 1747 
L 2592 1747 
L 2579 1734 
C 2682 1677 2861 1549 2944 1478 
L 3098 1638 
L 3098 1024 
L 3795 1024 
C 3661 838 3386 659 2835 544 
C 2918 474 3008 358 3053 275 
C 3782 461 4090 730 4205 1024 
L 5107 1024 
L 5107 1914 
L 4762 1914 
L 4762 1350 
L 4275 1350 
L 4275 1408 
L 4275 2042 
L 3910 2042 
L 3910 1408 
L 3910 1350 
L 3437 1350 
L 3437 1914 
L 3328 1914 
C 3405 2016 3482 2125 3558 2240 
L 5562 2240 
C 5498 1254 5440 877 5344 768 
C 5299 717 5242 704 5152 710 
C 5069 710 4858 710 4614 736 
C 4672 640 4710 493 4717 390 
C 4966 378 5216 378 5338 390 
C 5498 397 5606 429 5690 538 
C 5843 704 5920 1165 5990 2413 
C 5997 2470 5997 2592 5997 2592 
L 3757 2592 
C 3814 2701 3866 2810 3910 2918 
L 3731 2963 
C 4038 3110 4192 3290 4256 3482 
L 5120 3482 
L 5120 4326 
L 4774 4326 
L 4774 3789 
L 4301 3789 
L 4301 4448 
L 3962 4448 
L 3962 3789 
L 3494 3789 
L 3494 4326 
L 3405 4326 
C 3475 4429 3552 4531 3616 4640 
L 5542 4640 
C 5485 3725 5421 3366 5331 3264 
C 5286 3213 5235 3206 5152 3206 
C 5069 3206 4858 3206 4621 3232 
C 4672 3142 4710 3002 4717 2906 
C 4966 2886 5203 2893 5331 2899 
C 5485 2912 5594 2944 5677 3046 
C 5824 3206 5894 3642 5958 4813 
C 5965 4870 5971 4992 5971 4992 
L 3821 4992 
C 3872 5094 3917 5203 3962 5306 
L 3546 5408 
C 3347 4915 3008 4429 2630 4102 
C 2733 4045 2912 3923 2989 3859 
L 3168 4045 
L 3168 3482 
L 3885 3482 
C 3763 3290 3494 3117 2893 3008 
C 2963 2938 3046 2829 3078 2752 
C 3200 2778 3309 2803 3405 2835 
C 3238 2483 3002 2144 2739 1882 
L 2739 2176 
L 1933 2176 
L 1933 2982 
L 2816 2982 
L 2816 3418 
L 1811 3418 
L 1811 4173 
L 2650 4173 
L 2650 4595 
L 1811 4595 
L 1811 5376 
L 1370 5376 
L 1370 4595 
L 474 4595 
L 474 4173 
L 1370 4173 
L 1370 3418 
L 314 3418 
L 314 2982 
L 1504 2982 
L 1504 717 
C 1293 941 1133 1254 1011 1677 
C 1024 1946 1030 2208 1024 2458 
L 627 2483 
z
" transform="scale(0.015625)"/>
       <path id="NotoSansCJKjp-Regular-2cd9" d="M 582 2995 
L 582 2669 
L 1562 2669 
L 1562 2234 
L 301 2157 
L 333 1786 
C 1062 1843 2093 1926 3098 2003 
L 3104 2349 
L 2003 2266 
L 2003 2669 
L 3008 2669 
L 3008 2995 
L 2003 2995 
L 2003 3354 
L 1562 3354 
L 1562 2995 
L 582 2995 
z
M 1562 5376 
L 1562 5005 
L 602 5005 
L 602 4678 
L 1562 4678 
L 1562 4339 
L 346 4339 
L 346 4000 
L 1139 4000 
C 1043 3667 730 3494 314 3398 
C 384 3322 480 3174 512 3091 
C 1037 3245 1421 3520 1523 4000 
L 2010 4000 
L 2010 3706 
C 2010 3373 2093 3302 2445 3302 
C 2515 3302 2797 3302 2861 3302 
C 3110 3302 3213 3392 3238 3706 
C 3142 3725 2995 3763 2925 3821 
C 2912 3616 2893 3590 2803 3590 
C 2746 3590 2541 3590 2496 3590 
C 2400 3590 2387 3603 2387 3706 
L 2387 4000 
L 3245 4000 
L 3245 4339 
L 2003 4339 
L 2003 4678 
L 2976 4678 
L 2976 5005 
L 2003 5005 
L 2003 5376 
L 1562 5376 
z
M 2918 1773 
C 2899 1632 2874 1504 2842 1382 
L 717 1382 
L 717 998 
L 2701 998 
C 2406 410 1792 51 365 -128 
C 442 -230 550 -410 582 -525 
C 2227 -288 2906 192 3219 998 
L 5062 998 
C 4986 346 4902 58 4794 -38 
C 4736 -90 4672 -96 4538 -96 
C 4410 -96 4045 -90 3680 -58 
C 3757 -179 3814 -358 3821 -493 
C 4192 -512 4544 -512 4730 -506 
C 4928 -493 5056 -454 5184 -346 
C 5357 -173 5466 230 5568 1178 
C 5581 1242 5587 1382 5587 1382 
L 3334 1382 
C 3366 1504 3392 1638 3411 1773 
L 2918 1773 
z
M 4122 5376 
L 4102 4614 
L 3392 4614 
L 3392 4211 
L 4077 4211 
C 4058 3968 4032 3744 3987 3539 
C 3821 3635 3654 3725 3494 3802 
L 3283 3494 
C 3475 3398 3686 3283 3885 3155 
C 3744 2726 3501 2394 3104 2138 
C 3200 2074 3334 1920 3386 1830 
C 3808 2106 4070 2464 4243 2925 
C 4467 2765 4659 2605 4794 2464 
L 5018 2822 
C 4864 2976 4627 3149 4358 3322 
C 4422 3590 4461 3885 4493 4211 
L 5146 4211 
C 5158 2726 5203 1702 5798 1702 
C 6131 1702 6208 1965 6246 2662 
C 6157 2720 6042 2822 5952 2918 
C 5946 2464 5920 2118 5837 2125 
C 5574 2125 5574 3187 5581 4614 
L 4518 4614 
L 4544 5376 
L 4122 5376 
z
" transform="scale(0.015625)"/>
      </defs>
      <use xlink:href="#Cmmi10-72" transform="translate(0 0.084203)"/>
      <use xlink:href="#Cmr10-29" transform="translate(69.023495 0.084203)"/>
      <use xlink:href="#Cmmi10-3f" transform="translate(166.709099 0.084203)"/>
      <use xlink:href="#Cmr10-6e" transform="translate(235.049359 41.373437) scale(0.7)"/>
      <use xlink:href="#NotoSansCJKjp-Regular-e6ae" transform="translate(275.769774 0.084203)"/>
      <use xlink:href="#NotoSansCJKjp-Regular-36fb" transform="translate(375.769683 0.084203)"/>
      <use xlink:href="#NotoSansCJKjp-Regular-34ca" transform="translate(475.769591 0.084203)"/>
      <use xlink:href="#NotoSansCJKjp-Regular-98f8" transform="translate(575.7695 0.084203)"/>
      <use xlink:href="#NotoSansCJKjp-Regular-2cd9" transform="translate(675.769408 0.084203)"/>
      <use xlink:href="#NotoSansCJKjp-Regular-e6af" transform="translate(775.769317 0.084203)"/>
     </g>
    </g>
    <g id="line2d_72">
     <path d="M 410.344375 69.4 
L 420.344375 69.4 
L 430.344375 69.4 
" style="fill: none; stroke: #bf8700; stroke-width: 2.2; stroke-linecap: square"/>
    </g>
    <g id="text_40">
     <!-- 局部切線 $y=-3x$ -->
     <g style="fill: #222831" transform="translate(438.344375 72.9) scale(0.1 -0.1)">
      <defs>
       <path id="NotoSansCJKjp-Regular-2b89" d="M 2566 4813 
L 2566 4352 
L 3693 4352 
C 3661 2490 3558 730 1971 -160 
C 2099 -243 2253 -410 2323 -538 
C 3987 448 4128 2349 4173 4352 
L 5523 4352 
C 5446 1440 5357 371 5165 134 
C 5094 45 5030 19 4909 19 
C 4762 19 4429 19 4051 51 
C 4141 -83 4198 -301 4205 -442 
C 4544 -461 4902 -467 5114 -442 
C 5325 -416 5472 -358 5613 -154 
C 5862 166 5933 1261 6016 4544 
C 6016 4614 6016 4813 6016 4813 
L 2566 4813 
z
M 960 5197 
L 960 3482 
L 186 3315 
L 269 2880 
L 960 3027 
L 960 1440 
C 960 864 1088 710 1568 710 
C 1664 710 2144 710 2246 710 
C 2688 710 2797 986 2848 1875 
C 2720 1907 2528 1990 2419 2080 
C 2400 1331 2374 1165 2208 1165 
C 2106 1165 1715 1165 1638 1165 
C 1466 1165 1434 1203 1434 1434 
L 1434 3130 
L 2970 3456 
L 2886 3885 
L 1434 3578 
L 1434 5197 
L 960 5197 
z
" transform="scale(0.015625)"/>
      </defs>
      <use xlink:href="#NotoSansCJKjp-Regular-3dc0" transform="translate(0 0.90625)"/>
      <use xlink:href="#NotoSansCJKjp-Regular-9f27" transform="translate(99.999908 0.90625)"/>
      <use xlink:href="#NotoSansCJKjp-Regular-2b89" transform="translate(199.999817 0.90625)"/>
      <use xlink:href="#NotoSansCJKjp-Regular-7a17" transform="translate(299.999725 0.90625)"/>
      <use xlink:href="#NotoSansCJKjp-Regular-1" transform="translate(399.999634 0.90625)"/>
      <use xlink:href="#Cmmi10-72" transform="translate(422.399612 0.90625)"/>
      <use xlink:href="#Cmr10-29" transform="translate(491.423107 0.90625)"/>
      <use xlink:href="#Cmsy10-11" transform="translate(589.108711 0.90625)"/>
      <use xlink:href="#Cmr10-6e" transform="translate(666.794258 0.90625)"/>
      <use xlink:href="#Cmmi10-3f" transform="translate(716.794258 0.90625)"/>
     </g>
    </g>
   </g>
  </g>
 </g>
 <defs>
  <clipPath id="pb7bdf1158a">
   <rect x="25.024375" y="24.2" width="328.76" height="268.88"/>
  </clipPath>
  <clipPath id="p59500bb3bc">
   <rect x="401.344375" y="24.2" width="328.76" height="268.88"/>
  </clipPath>
 </defs>
</svg>
