<?xml version="1.0" encoding="utf-8" standalone="no"?>
<!DOCTYPE svg PUBLIC "-//W3C//DTD SVG 1.1//EN"
  "http://www.w3.org/Graphics/SVG/1.1/DTD/svg11.dtd">
<svg xmlns:xlink="http://www.w3.org/1999/xlink" width="593.28pt" height="190.08pt" viewBox="0 0 593.28 190.08" xmlns="http://www.w3.org/2000/svg" version="1.1">
 <metadata>
  <rdf:RDF xmlns:dc="http://purl.org/dc/elements/1.1/" xmlns:cc="http://creativecommons.org/ns#" xmlns:rdf="http://www.w3.org/1999/02/22-rdf-syntax-ns#">
   <cc:Work>
    <dc:type rdf:resource="http://purl.org/dc/dcmitype/StillImage"/>
    <dc:date>2026-06-20T18:20:28.708208</dc:date>
    <dc:format>image/svg+xml</dc:format>
    <dc:creator>
     <cc:Agent>
      <dc:title>Matplotlib v3.11.0, https://matplotlib.org/</dc:title>
     </cc:Agent>
    </dc:creator>
   </cc:Work>
  </rdf:RDF>
 </metadata>
 <defs>
  <style type="text/css">*{stroke-linejoin: round; stroke-linecap: butt}</style>
 </defs>
 <g id="figure_1">
  <g id="patch_1">
   <path d="M 0 190.08 
L 593.28 190.08 
L 593.28 0 
L 0 0 
z
" style="fill: #ffffff"/>
  </g>
  <g id="axes_1">
   <g id="line2d_1">
    <path d="M 142.682553 60.507733 
L 327.431489 60.507733 
" clip-path="url(#p80e6a80ae7)" style="fill: none; stroke: #1a7f37; stroke-width: 5"/>
   </g>
   <g id="line2d_2">
    <path d="M 450.597447 60.507733 
L 573.763404 60.507733 
" clip-path="url(#p80e6a80ae7)" style="fill: none; stroke: #1a7f37; stroke-width: 5"/>
   </g>
   <g id="text_1">
    <!-- -2 -->
    <g style="fill: #d1242f" transform="translate(136.81935 126.804267) scale(0.13 -0.13)">
     <defs>
      <path id="NotoSansCJKjp-Regular-e" d="M 294 1568 
L 1933 1568 
L 1933 2016 
L 294 2016 
L 294 1568 
z
" transform="scale(0.015625)"/>
      <path id="NotoSansCJKjp-Regular-13" d="M 282 0 
L 3232 0 
L 3232 506 
L 1933 506 
C 1696 506 1408 480 1165 461 
C 2266 1504 3008 2458 3008 3398 
C 3008 4230 2477 4774 1638 4774 
C 1043 4774 634 4506 256 4090 
L 595 3757 
C 858 4070 1184 4301 1568 4301 
C 2150 4301 2432 3910 2432 3373 
C 2432 2566 1754 1632 282 346 
L 282 0 
z
" transform="scale(0.015625)"/>
     </defs>
     <use xlink:href="#NotoSansCJKjp-Regular-e"/>
     <use xlink:href="#NotoSansCJKjp-Regular-13" transform="translate(34.703125 0)"/>
    </g>
   </g>
   <g id="text_2">
    <!-- 1 -->
    <g style="fill: #d1242f" transform="translate(323.823989 126.804267) scale(0.13 -0.13)">
     <defs>
      <path id="NotoSansCJKjp-Regular-12" d="M 563 0 
L 3136 0 
L 3136 486 
L 2195 486 
L 2195 4691 
L 1747 4691 
C 1491 4544 1190 4435 774 4358 
L 774 3987 
L 1613 3987 
L 1613 486 
L 563 486 
L 563 0 
z
" transform="scale(0.015625)"/>
     </defs>
     <use xlink:href="#NotoSansCJKjp-Regular-12"/>
    </g>
   </g>
   <g id="text_3">
    <!-- 3 -->
    <g style="fill: #d1242f" transform="translate(446.989947 126.804267) scale(0.13 -0.13)">
     <defs>
      <path id="NotoSansCJKjp-Regular-14" d="M 1683 -83 
C 2522 -83 3194 416 3194 1254 
C 3194 1901 2752 2310 2202 2445 
L 2202 2477 
C 2701 2650 3034 3034 3034 3603 
C 3034 4346 2458 4774 1664 4774 
C 1126 4774 710 4538 358 4218 
L 672 3846 
C 941 4115 1267 4301 1645 4301 
C 2138 4301 2438 4006 2438 3558 
C 2438 3053 2112 2662 1139 2662 
L 1139 2214 
C 2227 2214 2598 1843 2598 1274 
C 2598 736 2208 403 1645 403 
C 1114 403 762 659 486 941 
L 186 563 
C 493 224 954 -83 1683 -83 
z
" transform="scale(0.015625)"/>
     </defs>
     <use xlink:href="#NotoSansCJKjp-Regular-14"/>
    </g>
   </g>
   <g id="text_4">
    <!-- − -->
    <g style="fill: #d1242f" transform="translate(68.836277 84.691733) scale(0.22 -0.22)">
     <defs>
      <path id="NotoSansCJKjp-Regular-33f" d="M 243 2144 
L 3315 2144 
L 3315 2579 
L 243 2579 
L 243 2144 
z
" transform="scale(0.015625)"/>
     </defs>
     <use xlink:href="#NotoSansCJKjp-Regular-33f"/>
    </g>
   </g>
   <g id="text_5">
    <!-- + -->
    <g style="fill: #1a7f37" transform="translate(228.952021 84.691733) scale(0.22 -0.22)">
     <defs>
      <path id="NotoSansCJKjp-Regular-c" d="M 1542 742 
L 2010 742 
L 2010 2144 
L 3315 2144 
L 3315 2579 
L 2010 2579 
L 2010 3981 
L 1542 3981 
L 1542 2579 
L 243 2579 
L 243 2144 
L 1542 2144 
L 1542 742 
z
" transform="scale(0.015625)"/>
     </defs>
     <use xlink:href="#NotoSansCJKjp-Regular-c"/>
    </g>
   </g>
   <g id="text_6">
    <!-- 取 -->
    <g style="fill: #1a7f37" transform="translate(229.057021 52.936) scale(0.12 -0.12)">
     <defs>
      <path id="NotoSansCJKjp-Regular-2e66" d="M 3853 4000 
L 3392 3910 
C 3603 2854 3904 1926 4346 1165 
C 3968 634 3507 237 3002 -26 
C 3110 -122 3245 -301 3315 -422 
C 3808 -134 4256 243 4634 723 
C 4986 243 5408 -154 5920 -442 
C 5997 -320 6144 -134 6253 -45 
C 5722 230 5286 640 4928 1152 
C 5446 1971 5811 3046 5971 4429 
L 5664 4512 
L 5581 4493 
L 3270 4493 
L 3270 4026 
L 5440 4026 
C 5286 3078 5011 2272 4640 1619 
C 4275 2304 4019 3110 3853 4000 
z
M 173 787 
L 262 314 
C 870 403 1702 531 2515 666 
L 2515 -499 
L 2982 -499 
L 2982 4525 
L 3430 4525 
L 3430 4979 
L 307 4979 
L 307 4525 
L 800 4525 
L 800 870 
L 173 787 
z
M 1261 4525 
L 2515 4525 
L 2515 3674 
L 1261 3674 
L 1261 4525 
z
M 1261 3238 
L 2515 3238 
L 2515 2342 
L 1261 2342 
L 1261 3238 
z
M 1261 1907 
L 2515 1907 
L 2515 1114 
L 1261 934 
L 1261 1907 
z
" transform="scale(0.015625)"/>
     </defs>
     <use xlink:href="#NotoSansCJKjp-Regular-2e66"/>
    </g>
   </g>
   <g id="text_7">
    <!-- − -->
    <g style="fill: #d1242f" transform="translate(382.909468 84.691733) scale(0.22 -0.22)">
     <use xlink:href="#NotoSansCJKjp-Regular-33f"/>
    </g>
   </g>
   <g id="text_8">
    <!-- + -->
    <g style="fill: #1a7f37" transform="translate(512.233723 84.691733) scale(0.22 -0.22)">
     <use xlink:href="#NotoSansCJKjp-Regular-c"/>
    </g>
   </g>
   <g id="text_9">
    <!-- 取 -->
    <g style="fill: #1a7f37" transform="translate(512.338723 52.936) scale(0.12 -0.12)">
     <use xlink:href="#NotoSansCJKjp-Regular-2e66"/>
    </g>
   </g>
   <g id="text_10">
    <!-- 單根逐段變號；取乘積 &gt; 0 者：-2 &lt; x &lt; 1 或 x &gt; 3 -->
    <g style="fill: #222831" transform="translate(163.842148 164.418667) scale(0.125 -0.125)">
     <defs>
      <path id="NotoSansCJKjp-Regular-3132" d="M 1280 4800 
L 2502 4800 
L 2502 4198 
L 1280 4198 
L 1280 4800 
z
M 845 5126 
L 845 3878 
L 2957 3878 
L 2957 5126 
L 845 5126 
z
M 3904 4800 
L 5152 4800 
L 5152 4198 
L 3904 4198 
L 3904 4800 
z
M 3475 5126 
L 3475 3878 
L 5606 3878 
L 5606 5126 
L 3475 5126 
z
M 1485 2253 
L 2931 2253 
L 2931 1696 
L 1485 1696 
L 1485 2253 
z
M 3430 2253 
L 4966 2253 
L 4966 1696 
L 3430 1696 
L 3430 2253 
z
M 1485 3168 
L 2931 3168 
L 2931 2618 
L 1485 2618 
L 1485 3168 
z
M 3430 3168 
L 4966 3168 
L 4966 2618 
L 3430 2618 
L 3430 3168 
z
M 371 819 
L 371 390 
L 2931 390 
L 2931 -512 
L 3430 -512 
L 3430 390 
L 6048 390 
L 6048 819 
L 3430 819 
L 3430 1306 
L 5453 1306 
L 5453 3552 
L 1011 3552 
L 1011 1306 
L 2931 1306 
L 2931 819 
L 371 819 
z
" transform="scale(0.015625)"/>
      <path id="NotoSansCJKjp-Regular-52ae" d="M 5280 3469 
L 5280 2746 
L 3398 2746 
L 3398 3469 
L 5280 3469 
z
M 5280 3891 
L 3398 3891 
L 3398 4614 
L 5280 4614 
L 5280 3891 
z
M 5760 2106 
C 5510 1862 5120 1530 4781 1286 
C 4614 1606 4486 1952 4390 2323 
L 5741 2323 
L 5741 5037 
L 2938 5037 
L 2938 166 
L 2419 70 
L 2554 -390 
C 3142 -262 3923 -102 4666 70 
L 4627 499 
L 3398 256 
L 3398 2323 
L 3962 2323 
C 4282 1011 4877 -26 5875 -531 
C 5946 -397 6093 -218 6208 -128 
C 5696 96 5286 474 4973 954 
C 5331 1178 5741 1478 6080 1747 
L 5760 2106 
z
M 1293 5376 
L 1293 4006 
L 333 4006 
L 333 3552 
L 1235 3552 
C 1030 2669 602 1664 173 1120 
C 256 1011 378 819 429 691 
C 749 1120 1062 1824 1293 2554 
L 1293 -506 
L 1747 -506 
L 1747 2438 
C 1965 2118 2221 1722 2336 1504 
L 2630 1882 
C 2502 2061 1933 2790 1747 2995 
L 1747 3552 
L 2592 3552 
L 2592 4006 
L 1747 4006 
L 1747 5376 
L 1293 5376 
z
" transform="scale(0.015625)"/>
      <path id="NotoSansCJKjp-Regular-9d43" d="M 358 4947 
C 749 4640 1184 4186 1370 3866 
L 1760 4166 
C 1568 4480 1114 4922 723 5216 
L 358 4947 
z
M 1574 2848 
L 294 2848 
L 294 2400 
L 1107 2400 
L 1107 742 
C 819 474 499 205 230 13 
L 480 -461 
C 794 -179 1088 96 1370 371 
C 1773 -134 2355 -358 3200 -390 
C 3917 -416 5286 -403 6003 -378 
C 6022 -230 6099 -13 6157 96 
C 5382 45 3904 26 3194 58 
C 2438 90 1875 307 1574 781 
L 1574 2848 
z
M 5466 4237 
C 5210 3930 4787 3526 4429 3232 
C 4262 3539 4051 3834 3770 4077 
C 3949 4237 4115 4403 4262 4576 
L 6042 4576 
L 6042 4986 
L 1914 4986 
L 1914 4576 
L 3686 4576 
C 3206 4090 2509 3686 1824 3424 
C 1926 3341 2093 3155 2157 3066 
C 2592 3264 3053 3526 3462 3834 
C 3584 3725 3686 3610 3776 3488 
C 3366 3066 2630 2630 2061 2419 
C 2150 2342 2278 2189 2349 2086 
C 2867 2323 3526 2739 3981 3168 
C 4070 3014 4141 2848 4192 2688 
C 3693 2048 2733 1446 1856 1178 
C 1952 1088 2074 934 2138 826 
C 2906 1101 3744 1626 4307 2234 
C 4403 1683 4320 1197 4109 1011 
C 3994 877 3866 864 3686 864 
C 3558 864 3366 870 3168 896 
C 3245 762 3283 582 3283 461 
C 3475 448 3654 442 3789 448 
C 4064 448 4256 499 4454 685 
C 4781 979 4890 1715 4704 2483 
C 5178 2080 5626 1613 5862 1267 
L 6189 1594 
C 5894 2003 5293 2573 4723 3002 
C 5094 3277 5536 3654 5888 3994 
L 5466 4237 
z
" transform="scale(0.015625)"/>
      <path id="NotoSansCJKjp-Regular-58ff" d="M 5254 2099 
C 5062 1638 4781 1248 4435 922 
C 4115 1254 3866 1651 3699 2099 
L 5254 2099 
z
M 3002 2534 
L 3002 2099 
L 3597 2099 
L 3264 2003 
C 3462 1472 3738 1011 4083 627 
C 3622 288 3078 45 2509 -102 
C 2598 -205 2720 -397 2771 -525 
C 3373 -346 3936 -83 4422 294 
C 4832 -64 5318 -333 5882 -506 
C 5952 -378 6086 -186 6195 -83 
C 5651 58 5178 294 4787 608 
C 5267 1069 5638 1670 5862 2432 
L 5555 2554 
L 5466 2534 
L 3002 2534 
z
M 2528 5370 
C 2176 5171 1568 4960 998 4806 
L 742 4890 
L 742 979 
L 218 902 
L 301 429 
L 742 506 
L 742 -506 
L 1203 -506 
L 1203 589 
L 2918 902 
L 2899 1344 
L 1203 1056 
L 1203 2035 
L 2733 2035 
L 2733 2483 
L 1203 2483 
L 1203 3264 
L 2675 3264 
L 2675 3712 
L 1203 3712 
L 1203 4448 
C 1805 4595 2458 4794 2938 5030 
L 2528 5370 
z
M 3366 5107 
L 3366 4198 
C 3366 3776 3290 3309 2707 2950 
C 2803 2893 2976 2720 3040 2624 
C 3693 3034 3814 3661 3814 4186 
L 3814 4685 
L 4826 4685 
L 4826 3558 
C 4826 3194 4858 3091 4954 3008 
C 5043 2931 5184 2899 5312 2899 
C 5382 2899 5555 2899 5638 2899 
C 5741 2899 5869 2918 5939 2957 
C 6035 3002 6099 3066 6131 3174 
C 6170 3277 6189 3565 6202 3814 
C 6074 3853 5920 3930 5830 4006 
C 5824 3744 5818 3546 5805 3456 
C 5786 3379 5766 3328 5734 3309 
C 5709 3296 5651 3290 5600 3290 
C 5542 3290 5459 3290 5414 3290 
C 5370 3290 5331 3296 5312 3309 
C 5280 3334 5280 3405 5280 3526 
L 5280 5107 
L 3366 5107 
z
" transform="scale(0.015625)"/>
      <path id="NotoSansCJKjp-Regular-95ec" d="M 1664 2874 
C 1798 2650 1933 2342 1984 2150 
L 2291 2285 
C 2240 2470 2099 2765 1965 2982 
L 1664 2874 
z
M 640 2970 
C 563 2624 442 2259 262 2003 
C 358 1958 512 1869 582 1818 
C 755 2093 909 2502 998 2886 
L 640 2970 
z
M 5376 2848 
C 5568 2560 5760 2170 5830 1926 
L 6150 2080 
C 6067 2317 5869 2694 5677 2976 
L 5376 2848 
z
M 4275 2963 
C 4198 2630 4077 2298 3898 2048 
C 3987 2010 4141 1926 4211 1882 
C 4384 2138 4538 2522 4627 2886 
L 4275 2963 
z
M 2477 5203 
L 2477 4922 
L 3853 4922 
L 3853 5203 
L 2477 5203 
z
M 2464 4077 
L 2464 3802 
L 3866 3802 
L 3866 4077 
L 2464 4077 
z
M 2464 3533 
L 2464 3251 
L 3866 3251 
L 3866 3533 
L 2464 3533 
z
M 2803 2688 
L 3520 2688 
L 3520 2214 
L 2803 2214 
L 2803 2688 
z
M 1709 4832 
C 1587 4653 1427 4435 1254 4218 
C 1184 4294 1094 4384 998 4474 
C 1178 4691 1376 4973 1542 5242 
L 1197 5382 
C 1094 5178 928 4896 774 4672 
L 614 4800 
L 390 4550 
C 608 4371 858 4134 1018 3942 
C 902 3808 787 3680 678 3571 
L 307 3571 
L 346 3200 
L 1152 3232 
L 1152 1728 
L 1530 1728 
L 1530 3251 
L 2029 3270 
L 2125 3085 
L 2406 3251 
C 2304 3469 2067 3795 1856 4038 
L 1581 3891 
C 1658 3802 1741 3699 1818 3590 
L 1094 3578 
C 1414 3904 1773 4307 2054 4659 
L 1709 4832 
z
M 2208 4659 
L 2208 4352 
L 4064 4352 
L 4064 4474 
C 4269 4320 4499 4109 4653 3936 
C 4531 3802 4416 3680 4301 3571 
L 3942 3571 
L 3987 3200 
L 4813 3232 
L 4813 1728 
L 5190 1728 
L 5190 3251 
L 5734 3277 
C 5792 3187 5843 3110 5875 3040 
L 6163 3226 
C 6042 3462 5754 3814 5504 4077 
L 5235 3917 
C 5325 3821 5421 3706 5510 3590 
L 4730 3578 
C 5075 3910 5459 4339 5766 4704 
L 5421 4883 
C 5286 4685 5094 4442 4896 4211 
C 4819 4288 4723 4378 4621 4461 
C 4800 4678 5018 4966 5190 5242 
L 4838 5382 
C 4736 5171 4550 4877 4390 4653 
L 4250 4755 
L 4064 4538 
L 4064 4659 
L 2208 4659 
z
M 4269 1171 
C 3987 902 3622 685 3194 506 
C 2707 691 2278 909 1965 1171 
L 4269 1171 
z
M 2451 2963 
L 2451 2054 
L 2189 2131 
C 1824 1549 1120 1069 397 781 
C 499 704 666 531 736 448 
C 1030 589 1331 755 1606 960 
C 1901 710 2253 493 2650 307 
C 1933 90 1101 -45 256 -122 
C 339 -224 461 -422 499 -538 
C 1453 -416 2400 -237 3206 77 
C 4026 -230 4966 -422 5914 -525 
C 5971 -403 6080 -218 6176 -115 
C 5338 -45 4493 102 3757 320 
C 4198 544 4582 826 4870 1171 
L 5920 1171 
L 5920 1562 
L 2291 1562 
C 2394 1683 2496 1805 2579 1939 
L 3878 1939 
L 3878 2963 
L 2451 2963 
z
" transform="scale(0.015625)"/>
      <path id="NotoSansCJKjp-Regular-8c1b" d="M 986 4736 
L 1946 4736 
L 1946 3757 
L 986 3757 
L 986 4736 
z
M 557 5133 
L 557 3354 
L 2394 3354 
L 2394 5133 
L 557 5133 
z
M 3802 1728 
C 3757 794 3616 166 2918 -192 
C 3021 -262 3149 -429 3200 -531 
C 3987 -102 4166 640 4218 1728 
L 3802 1728 
z
M 4736 1734 
L 4736 166 
C 4736 -128 4762 -224 4870 -307 
C 4960 -390 5114 -410 5254 -410 
C 5325 -410 5530 -410 5613 -410 
C 5734 -410 5882 -390 5958 -352 
C 6054 -294 6125 -224 6163 -102 
C 6195 13 6221 326 6227 634 
C 6106 672 5952 755 5862 832 
C 5869 538 5856 294 5843 192 
C 5824 122 5792 70 5754 51 
C 5722 32 5645 26 5581 26 
C 5510 26 5402 26 5350 26 
C 5286 26 5235 32 5203 58 
C 5171 70 5158 115 5158 160 
L 5158 1734 
L 4736 1734 
z
M 256 2899 
L 256 2477 
L 813 2477 
C 717 2035 595 1523 486 1178 
L 922 1094 
L 1024 1498 
L 1901 1498 
C 1824 480 1741 64 1619 -51 
C 1568 -102 1504 -115 1408 -115 
C 1306 -115 1056 -115 787 -90 
C 864 -205 909 -384 922 -506 
C 1184 -525 1446 -525 1587 -512 
C 1760 -499 1875 -461 1984 -346 
C 2163 -154 2253 371 2355 1709 
C 2362 1779 2368 1907 2368 1907 
L 1126 1907 
L 1248 2477 
L 2669 2477 
L 2669 2899 
L 256 2899 
z
M 2848 4109 
L 2848 2470 
C 2848 1638 2784 525 2234 -282 
C 2336 -326 2522 -461 2598 -544 
C 3187 307 3283 1568 3283 2470 
L 3283 3712 
L 5690 3712 
C 5651 3450 5600 3187 5555 3002 
L 5933 2912 
C 6010 3200 6106 3661 6182 4051 
L 5882 4128 
L 5811 4109 
L 4570 4109 
L 4570 4538 
L 5862 4538 
L 5862 4934 
L 4570 4934 
L 4570 5376 
L 4109 5376 
L 4109 4109 
L 2848 4109 
z
M 4128 3667 
L 4128 3117 
L 3430 3046 
L 3475 2701 
L 4128 2771 
L 4128 2522 
C 4128 2112 4243 2010 4710 2010 
C 4806 2010 5312 2010 5414 2010 
C 5760 2010 5875 2138 5920 2630 
C 5805 2662 5638 2714 5542 2778 
C 5530 2419 5504 2368 5357 2368 
C 5254 2368 4845 2368 4762 2368 
C 4582 2368 4557 2387 4557 2522 
L 4557 2816 
L 5376 2899 
L 5331 3238 
L 4557 3162 
L 4557 3667 
L 4128 3667 
z
" transform="scale(0.015625)"/>
      <path id="NotoSansCJKjp-Regular-e6c1" d="M 3200 3482 
C 3456 3482 3686 3667 3686 3962 
C 3686 4256 3456 4442 3200 4442 
C 2944 4442 2714 4256 2714 3962 
C 2714 3667 2944 3482 3200 3482 
z
M 2682 -659 
C 3366 -397 3789 141 3789 883 
C 3789 1363 3590 1664 3238 1664 
C 2982 1664 2752 1504 2752 1203 
C 2752 896 2970 742 3232 742 
L 3347 755 
C 3328 256 3053 -83 2534 -320 
L 2682 -659 
z
" transform="scale(0.015625)"/>
      <path id="NotoSansCJKjp-Regular-257f" d="M 5197 5344 
C 4154 5126 2310 4992 819 4941 
C 864 4832 922 4646 928 4531 
C 1562 4544 2266 4576 2944 4627 
L 2944 4032 
L 416 4032 
L 416 3590 
L 2944 3590 
L 2944 2106 
C 2400 1216 1350 429 218 109 
C 326 6 467 -173 538 -288 
C 1472 26 2336 653 2944 1427 
L 2944 -506 
L 3443 -506 
L 3443 1453 
C 4045 659 4915 6 5856 -320 
C 5926 -192 6067 -13 6170 83 
C 5043 410 3987 1222 3443 2118 
L 3443 3590 
L 5984 3590 
L 5984 4032 
L 3443 4032 
L 3443 4666 
C 4179 4730 4877 4819 5414 4928 
L 5197 5344 
z
M 397 1779 
L 506 1370 
L 1818 1619 
L 1818 1318 
L 2266 1318 
L 2266 3411 
L 1818 3411 
L 1818 2963 
L 589 2963 
L 589 2573 
L 1818 2573 
L 1818 1997 
L 397 1779 
z
M 5478 3174 
C 5242 3046 4902 2893 4563 2765 
L 4563 3418 
L 4115 3418 
L 4115 1850 
C 4115 1389 4237 1267 4723 1267 
C 4826 1267 5357 1267 5459 1267 
C 5837 1267 5958 1414 6010 1990 
C 5882 2016 5702 2080 5606 2157 
C 5594 1734 5562 1677 5414 1677 
C 5299 1677 4864 1677 4774 1677 
C 4589 1677 4563 1702 4563 1850 
L 4563 2368 
C 4960 2496 5414 2656 5773 2816 
L 5478 3174 
z
" transform="scale(0.015625)"/>
      <path id="NotoSansCJKjp-Regular-7289" d="M 3341 1997 
L 5318 1997 
L 5318 1581 
L 3341 1581 
L 3341 1997 
z
M 3341 1267 
L 5318 1267 
L 5318 845 
L 3341 845 
L 3341 1267 
z
M 3341 2720 
L 5318 2720 
L 5318 2310 
L 3341 2310 
L 3341 2720 
z
M 2899 3053 
L 2899 512 
L 5773 512 
L 5773 3053 
L 2899 3053 
z
M 4640 224 
C 5056 -19 5510 -320 5773 -518 
L 6195 -282 
C 5894 -70 5395 224 4966 467 
L 4640 224 
z
M 3622 486 
C 3322 224 2714 -70 2189 -224 
C 2285 -307 2426 -448 2502 -538 
C 3021 -371 3648 -64 4032 243 
L 3622 486 
z
M 2477 3712 
L 2477 3597 
L 1779 3597 
L 1779 4672 
C 2080 4742 2355 4819 2586 4915 
L 2253 5286 
C 1798 5082 986 4909 288 4806 
C 346 4698 410 4538 429 4435 
C 710 4467 1011 4518 1312 4570 
L 1312 3597 
L 320 3597 
L 320 3149 
L 1267 3149 
C 1011 2406 570 1562 154 1101 
C 230 986 352 794 403 659 
C 723 1050 1050 1677 1312 2317 
L 1312 -499 
L 1779 -499 
L 1779 2266 
C 1990 2003 2240 1670 2336 1498 
L 2624 1875 
C 2502 2022 1978 2560 1779 2746 
L 1779 3149 
L 2502 3149 
L 2502 3373 
L 6138 3373 
L 6138 3712 
L 4518 3712 
L 4518 4051 
L 5818 4051 
L 5818 4365 
L 4518 4365 
L 4518 4691 
L 5984 4691 
L 5984 5024 
L 4518 5024 
L 4518 5376 
L 4045 5376 
L 4045 5024 
L 2669 5024 
L 2669 4691 
L 4045 4691 
L 4045 4365 
L 2816 4365 
L 2816 4051 
L 4045 4051 
L 4045 3712 
L 2477 3712 
z
" transform="scale(0.015625)"/>
      <path id="NotoSansCJKjp-Regular-1" transform="scale(0.015625)"/>
      <path id="NotoSansCJKjp-Regular-1f" d="M 243 934 
L 3315 2144 
L 3315 2605 
L 243 3814 
L 243 3309 
L 1754 2746 
L 2714 2387 
L 2714 2362 
L 1754 2003 
L 243 1446 
L 243 934 
z
" transform="scale(0.015625)"/>
      <path id="NotoSansCJKjp-Regular-11" d="M 1779 -83 
C 2669 -83 3238 723 3238 2362 
C 3238 3987 2669 4774 1779 4774 
C 883 4774 320 3987 320 2362 
C 320 723 883 -83 1779 -83 
z
M 1779 390 
C 1248 390 883 986 883 2362 
C 883 3731 1248 4314 1779 4314 
C 2310 4314 2675 3731 2675 2362 
C 2675 986 2310 390 1779 390 
z
" transform="scale(0.015625)"/>
      <path id="NotoSansCJKjp-Regular-7e16" d="M 5357 5158 
C 5133 4864 4890 4576 4621 4307 
L 4621 4570 
L 3027 4570 
L 3027 5376 
L 2554 5376 
L 2554 4570 
L 909 4570 
L 909 4147 
L 2554 4147 
L 2554 3322 
L 346 3322 
L 346 2886 
L 2854 2886 
C 2042 2362 1139 1933 205 1613 
C 301 1510 448 1312 512 1210 
C 909 1363 1306 1530 1690 1722 
L 1690 -512 
L 2170 -512 
L 2170 -301 
L 4774 -301 
L 4774 -486 
L 5267 -486 
L 5267 2214 
L 2611 2214 
C 2963 2426 3309 2650 3642 2886 
L 6054 2886 
L 6054 3322 
L 4205 3322 
C 4787 3808 5318 4346 5766 4934 
L 5357 5158 
z
M 3027 3322 
L 3027 4147 
L 4461 4147 
C 4160 3853 3834 3578 3482 3322 
L 3027 3322 
z
M 2170 787 
L 4774 787 
L 4774 115 
L 2170 115 
L 2170 787 
z
M 2170 1171 
L 2170 1805 
L 4774 1805 
L 4774 1171 
L 2170 1171 
z
" transform="scale(0.015625)"/>
      <path id="NotoSansCJKjp-Regular-e6c0" d="M 3200 3482 
C 3456 3482 3686 3667 3686 3962 
C 3686 4256 3456 4442 3200 4442 
C 2944 4442 2714 4256 2714 3962 
C 2714 3667 2944 3482 3200 3482 
z
M 3200 346 
C 3456 346 3686 538 3686 826 
C 3686 1120 3456 1312 3200 1312 
C 2944 1312 2714 1120 2714 826 
C 2714 538 2944 346 3200 346 
z
" transform="scale(0.015625)"/>
      <path id="NotoSansCJKjp-Regular-1d" d="M 3315 934 
L 3315 1446 
L 1798 2003 
L 838 2362 
L 838 2387 
L 1798 2746 
L 3315 3309 
L 3315 3814 
L 243 2605 
L 243 2144 
L 3315 934 
z
" transform="scale(0.015625)"/>
      <path id="NotoSansCJKjp-Regular-59" d="M 96 0 
L 710 0 
L 1178 813 
C 1299 1024 1408 1235 1530 1434 
L 1562 1434 
C 1696 1235 1824 1024 1939 813 
L 2451 0 
L 3091 0 
L 1946 1754 
L 3002 3475 
L 2394 3475 
L 1965 2714 
C 1856 2515 1760 2330 1658 2131 
L 1626 2131 
C 1510 2330 1389 2515 1286 2714 
L 819 3475 
L 186 3475 
L 1242 1811 
L 96 0 
z
" transform="scale(0.015625)"/>
      <path id="NotoSansCJKjp-Regular-f6b2" d="M 563 0 
L 3136 0 
L 3136 486 
L 2195 486 
L 2195 4563 
L 1747 4563 
C 1491 4410 1190 4301 774 4224 
L 774 3853 
L 1613 3853 
L 1613 486 
L 563 486 
L 563 0 
z
" transform="scale(0.015625)"/>
      <path id="NotoSansCJKjp-Regular-485d" d="M 4429 5062 
C 4819 4870 5293 4576 5523 4358 
L 5818 4691 
C 5581 4909 5101 5190 4710 5357 
L 4429 5062 
z
M 397 422 
L 493 -70 
C 1235 90 2285 320 3270 538 
L 3232 992 
C 2189 774 1094 550 397 422 
z
M 1248 2893 
L 2554 2893 
L 2554 1779 
L 1248 1779 
L 1248 2893 
z
M 800 3315 
L 800 1363 
L 3021 1363 
L 3021 3315 
L 800 3315 
z
M 435 4352 
L 435 3878 
L 3590 3878 
C 3667 2835 3814 1875 4045 1120 
C 3616 602 3098 179 2502 -141 
C 2611 -230 2797 -416 2874 -512 
C 3379 -211 3834 160 4230 602 
C 4518 -96 4902 -518 5395 -518 
C 5888 -518 6067 -198 6157 902 
C 6022 954 5843 1062 5734 1178 
C 5696 320 5619 -19 5440 -19 
C 5120 -19 4832 378 4602 1050 
C 5075 1683 5459 2438 5741 3302 
L 5261 3418 
C 5056 2752 4774 2157 4429 1632 
C 4269 2259 4154 3027 4096 3878 
L 5990 3878 
L 5990 4352 
L 4064 4352 
C 4051 4678 4045 5018 4045 5363 
L 3533 5363 
C 3533 5024 3546 4685 3565 4352 
L 435 4352 
z
" transform="scale(0.015625)"/>
      <path id="NotoSansCJKjp-Regular-f6b4" d="M 1683 -83 
C 2522 -83 3194 403 3194 1216 
C 3194 1843 2752 2246 2202 2381 
L 2202 2406 
C 2694 2586 3034 2938 3034 3494 
C 3034 4224 2458 4646 1664 4646 
C 1126 4646 710 4403 358 4077 
L 672 3706 
C 941 3981 1267 4173 1645 4173 
C 2138 4173 2438 3891 2438 3450 
C 2438 2970 2112 2598 1139 2598 
L 1139 2144 
C 2227 2144 2598 1786 2598 1242 
C 2598 723 2208 403 1645 403 
C 1114 403 762 659 486 941 
L 186 563 
C 493 224 954 -83 1683 -83 
z
" transform="scale(0.015625)"/>
     </defs>
     <use xlink:href="#NotoSansCJKjp-Regular-3132"/>
     <use xlink:href="#NotoSansCJKjp-Regular-52ae" transform="translate(100 0)"/>
     <use xlink:href="#NotoSansCJKjp-Regular-9d43" transform="translate(200 0)"/>
     <use xlink:href="#NotoSansCJKjp-Regular-58ff" transform="translate(300 0)"/>
     <use xlink:href="#NotoSansCJKjp-Regular-95ec" transform="translate(400 0)"/>
     <use xlink:href="#NotoSansCJKjp-Regular-8c1b" transform="translate(500 0)"/>
     <use xlink:href="#NotoSansCJKjp-Regular-e6c1" transform="translate(600 0)"/>
     <use xlink:href="#NotoSansCJKjp-Regular-2e66" transform="translate(700 0)"/>
     <use xlink:href="#NotoSansCJKjp-Regular-257f" transform="translate(800 0)"/>
     <use xlink:href="#NotoSansCJKjp-Regular-7289" transform="translate(900 0)"/>
     <use xlink:href="#NotoSansCJKjp-Regular-1" transform="translate(1000 0)"/>
     <use xlink:href="#NotoSansCJKjp-Regular-1f" transform="translate(1022.40625 0)"/>
     <use xlink:href="#NotoSansCJKjp-Regular-1" transform="translate(1077.90625 0)"/>
     <use xlink:href="#NotoSansCJKjp-Regular-11" transform="translate(1100.3125 0)"/>
     <use xlink:href="#NotoSansCJKjp-Regular-1" transform="translate(1155.8125 0)"/>
     <use xlink:href="#NotoSansCJKjp-Regular-7e16" transform="translate(1178.21875 0)"/>
     <use xlink:href="#NotoSansCJKjp-Regular-e6c0" transform="translate(1278.21875 0)"/>
     <use xlink:href="#NotoSansCJKjp-Regular-e" transform="translate(1378.21875 0)"/>
     <use xlink:href="#NotoSansCJKjp-Regular-13" transform="translate(1412.921875 0)"/>
     <use xlink:href="#NotoSansCJKjp-Regular-1" transform="translate(1468.421875 0)"/>
     <use xlink:href="#NotoSansCJKjp-Regular-1d" transform="translate(1490.828125 0)"/>
     <use xlink:href="#NotoSansCJKjp-Regular-1" transform="translate(1546.328125 0)"/>
     <use xlink:href="#NotoSansCJKjp-Regular-59" transform="translate(1568.734375 0)"/>
     <use xlink:href="#NotoSansCJKjp-Regular-1" transform="translate(1618.53125 0)"/>
     <use xlink:href="#NotoSansCJKjp-Regular-1d" transform="translate(1640.9375 0)"/>
     <use xlink:href="#NotoSansCJKjp-Regular-1" transform="translate(1696.4375 0)"/>
     <use xlink:href="#NotoSansCJKjp-Regular-f6b2" transform="translate(1718.84375 0)"/>
     <use xlink:href="#NotoSansCJKjp-Regular-1" transform="translate(1774.34375 0)"/>
     <use xlink:href="#NotoSansCJKjp-Regular-485d" transform="translate(1796.75 0)"/>
     <use xlink:href="#NotoSansCJKjp-Regular-1" transform="translate(1896.75 0)"/>
     <use xlink:href="#NotoSansCJKjp-Regular-59" transform="translate(1919.15625 0)"/>
     <use xlink:href="#NotoSansCJKjp-Regular-1" transform="translate(1968.953125 0)"/>
     <use xlink:href="#NotoSansCJKjp-Regular-1f" transform="translate(1991.359375 0)"/>
     <use xlink:href="#NotoSansCJKjp-Regular-1" transform="translate(2046.859375 0)"/>
     <use xlink:href="#NotoSansCJKjp-Regular-f6b4" transform="translate(2069.265625 0)"/>
    </g>
   </g>
   <g id="text_11">
    <!-- 數線分段定號：(x-1)(x+2)(x-3) &gt; 0 -->
    <g style="fill: #222831" transform="translate(199.374609 18.64) scale(0.13 -0.13)">
     <defs>
      <path id="NotoSansCJKjp-Regular-4e26" d="M 4352 3744 
L 5318 3744 
C 5216 2957 5062 2266 4826 1677 
C 4595 2266 4442 2944 4333 3661 
L 4352 3744 
z
M 256 4301 
L 256 3936 
L 698 3936 
L 698 3245 
L 1741 3245 
L 1741 2950 
L 538 2950 
L 538 1882 
L 1485 1882 
L 1274 1478 
L 262 1472 
L 275 1088 
L 1069 1094 
C 928 845 787 608 666 422 
L 1062 307 
L 1171 486 
C 1389 403 1606 314 1818 218 
C 1459 32 998 -83 416 -154 
C 493 -256 570 -410 602 -538 
C 1293 -416 1837 -250 2246 13 
C 2522 -128 2765 -275 2957 -410 
L 3264 -102 
C 3078 19 2848 154 2586 282 
C 2816 512 2976 794 3072 1133 
L 3750 1152 
L 3763 1510 
L 1734 1485 
L 1939 1882 
L 3424 1882 
L 3424 2419 
C 3526 2336 3648 2221 3706 2157 
C 3834 2362 3949 2592 4051 2848 
C 4179 2221 4346 1645 4563 1146 
C 4256 614 3853 192 3309 -134 
C 3392 -224 3539 -429 3584 -525 
C 4090 -198 4486 192 4794 666 
C 5075 166 5414 -237 5850 -518 
C 5920 -403 6067 -224 6176 -141 
C 5709 141 5350 582 5062 1133 
C 5421 1843 5638 2707 5779 3744 
L 6144 3744 
L 6144 4186 
L 4467 4186 
C 4550 4544 4621 4922 4678 5306 
L 4211 5376 
C 4070 4339 3827 3315 3424 2618 
L 3424 2950 
L 2163 2950 
L 2163 3245 
L 3277 3245 
L 3277 3936 
L 3731 3936 
L 3731 4301 
L 3277 4301 
L 3277 4986 
L 2163 4986 
L 2163 5376 
L 1741 5376 
L 1741 4986 
L 698 4986 
L 698 4301 
L 256 4301 
z
M 1101 4646 
L 1741 4646 
L 1741 4282 
L 1101 4282 
L 1101 4646 
z
M 1741 3578 
L 1101 3578 
L 1101 3955 
L 1741 3955 
L 1741 3578 
z
M 2163 4646 
L 2848 4646 
L 2848 4282 
L 2163 4282 
L 2163 4646 
z
M 2163 3578 
L 2163 3955 
L 2848 3955 
L 2848 3578 
L 2163 3578 
z
M 947 2624 
L 1741 2624 
L 1741 2202 
L 947 2202 
L 947 2624 
z
M 2163 2624 
L 3002 2624 
L 3002 2202 
L 2163 2202 
L 2163 2624 
z
M 1530 1107 
L 2630 1126 
C 2534 864 2387 646 2189 467 
C 1920 589 1632 704 1357 800 
L 1530 1107 
z
" transform="scale(0.015625)"/>
      <path id="NotoSansCJKjp-Regular-7a17" d="M 3258 3405 
L 5414 3405 
L 5414 2848 
L 3258 2848 
L 3258 3405 
z
M 3258 4326 
L 5414 4326 
L 5414 3770 
L 3258 3770 
L 3258 4326 
z
M 1894 1632 
C 2048 1267 2182 781 2208 474 
L 2586 589 
C 2541 902 2406 1370 2246 1734 
L 1894 1632 
z
M 570 1715 
C 493 1158 378 582 166 192 
C 269 154 454 70 538 13 
C 736 422 890 1043 973 1651 
L 570 1715 
z
M 2816 4717 
L 2816 2451 
L 4109 2451 
L 4109 6 
C 4109 -64 4090 -83 4006 -90 
C 3930 -90 3674 -90 3386 -83 
C 3443 -211 3501 -384 3520 -506 
C 3917 -506 4173 -499 4339 -435 
C 4506 -358 4544 -237 4544 6 
L 4544 1325 
C 4819 717 5254 109 5952 -250 
C 6016 -128 6157 51 6246 141 
C 5754 358 5382 698 5114 1088 
C 5427 1306 5798 1613 6106 1894 
L 5715 2176 
C 5523 1946 5203 1645 4922 1408 
C 4742 1734 4627 2074 4544 2400 
L 4544 2451 
L 5875 2451 
L 5875 4717 
L 4365 4717 
C 4467 4890 4570 5088 4659 5280 
L 4128 5382 
C 4077 5190 3968 4934 3872 4717 
L 2816 4717 
z
M 2573 1901 
L 2573 1491 
L 3443 1491 
C 3219 826 2803 352 2291 77 
C 2381 13 2534 -154 2592 -250 
C 3226 115 3738 787 3962 1805 
L 3699 1914 
L 3622 1901 
L 2573 1901 
z
M 179 2547 
L 237 2118 
L 1248 2182 
L 1248 -512 
L 1670 -512 
L 1670 2208 
L 2176 2240 
C 2234 2086 2285 1946 2310 1824 
L 2694 2003 
C 2598 2349 2342 2906 2074 3322 
L 1722 3181 
C 1824 3014 1920 2829 2010 2637 
L 1088 2592 
C 1517 3136 2010 3866 2374 4454 
L 1971 4646 
C 1792 4301 1549 3878 1286 3475 
C 1190 3610 1075 3750 941 3898 
C 1178 4256 1459 4781 1677 5216 
L 1254 5376 
C 1120 5018 890 4531 685 4166 
L 486 4346 
L 237 4038 
C 525 3763 845 3398 1037 3104 
C 896 2912 762 2726 634 2566 
L 179 2547 
z
" transform="scale(0.015625)"/>
      <path id="NotoSansCJKjp-Regular-2b86" d="M 2074 5248 
C 1677 4256 966 3373 147 2829 
C 262 2739 474 2554 563 2451 
C 1363 3059 2118 4019 2586 5101 
L 2074 5248 
z
M 4307 5261 
L 3846 5075 
C 4326 4122 5139 3085 5850 2509 
C 5939 2643 6118 2829 6253 2931 
C 5549 3424 4723 4397 4307 5261 
z
M 1197 2957 
L 1197 2490 
L 2509 2490 
C 2368 1402 2010 378 486 -122 
C 595 -224 736 -416 800 -544 
C 2445 51 2854 1216 3027 2490 
L 4685 2490 
C 4608 864 4512 224 4346 58 
C 4282 -6 4205 -26 4077 -26 
C 3923 -26 3533 -19 3110 19 
C 3200 -115 3258 -320 3270 -461 
C 3674 -486 4070 -493 4288 -474 
C 4506 -454 4653 -410 4781 -243 
C 5005 0 5094 736 5190 2726 
C 5197 2790 5197 2957 5197 2957 
L 1197 2957 
z
" transform="scale(0.015625)"/>
      <path id="NotoSansCJKjp-Regular-3c8a" d="M 1421 2413 
C 1286 1248 934 333 224 -218 
C 339 -294 538 -461 621 -544 
C 1037 -179 1350 307 1574 896 
C 2163 -198 3117 -422 4454 -422 
L 5952 -422 
C 5971 -282 6061 -51 6131 64 
C 5818 58 4717 58 4480 58 
C 4109 58 3757 77 3443 134 
L 3443 1440 
L 5350 1440 
L 5350 1888 
L 3443 1888 
L 3443 2957 
L 5088 2957 
L 5088 3418 
L 1350 3418 
L 1350 2957 
L 2944 2957 
L 2944 269 
C 2419 461 2016 832 1760 1504 
C 1824 1766 1882 2054 1920 2355 
L 1421 2413 
z
M 525 4640 
L 525 3245 
L 998 3245 
L 998 4186 
L 5382 4186 
L 5382 3245 
L 5875 3245 
L 5875 4640 
L 3443 4640 
L 3443 5376 
L 2938 5376 
L 2938 4640 
L 525 4640 
z
" transform="scale(0.015625)"/>
      <path id="NotoSansCJKjp-Regular-9" d="M 1530 -1254 
L 1888 -1094 
C 1338 -186 1075 902 1075 1990 
C 1075 3072 1338 4154 1888 5069 
L 1530 5235 
C 941 4275 589 3245 589 1990 
C 589 730 941 -301 1530 -1254 
z
" transform="scale(0.015625)"/>
      <path id="NotoSansCJKjp-Regular-a" d="M 634 -1254 
C 1222 -301 1574 730 1574 1990 
C 1574 3245 1222 4275 634 5235 
L 269 5069 
C 819 4154 1094 3072 1094 1990 
C 1094 902 819 -186 269 -1094 
L 634 -1254 
z
" transform="scale(0.015625)"/>
      <path id="NotoSansCJKjp-Regular-f6b3" d="M 282 0 
L 3232 0 
L 3232 506 
L 1907 506 
C 1670 506 1382 480 1139 461 
C 2221 1594 3008 2451 3008 3309 
C 3008 4115 2477 4646 1638 4646 
C 1043 4646 634 4378 256 3955 
L 595 3629 
C 858 3930 1184 4173 1568 4173 
C 2150 4173 2432 3802 2432 3283 
C 2432 2534 1658 1715 282 346 
L 282 0 
z
" transform="scale(0.015625)"/>
     </defs>
     <use xlink:href="#NotoSansCJKjp-Regular-4e26"/>
     <use xlink:href="#NotoSansCJKjp-Regular-7a17" transform="translate(100 0)"/>
     <use xlink:href="#NotoSansCJKjp-Regular-2b86" transform="translate(200 0)"/>
     <use xlink:href="#NotoSansCJKjp-Regular-58ff" transform="translate(300 0)"/>
     <use xlink:href="#NotoSansCJKjp-Regular-3c8a" transform="translate(400 0)"/>
     <use xlink:href="#NotoSansCJKjp-Regular-8c1b" transform="translate(500 0)"/>
     <use xlink:href="#NotoSansCJKjp-Regular-e6c0" transform="translate(600 0)"/>
     <use xlink:href="#NotoSansCJKjp-Regular-9" transform="translate(700 0)"/>
     <use xlink:href="#NotoSansCJKjp-Regular-59" transform="translate(733.796875 0)"/>
     <use xlink:href="#NotoSansCJKjp-Regular-e" transform="translate(782.09375 0)"/>
     <use xlink:href="#NotoSansCJKjp-Regular-f6b2" transform="translate(816.796875 0)"/>
     <use xlink:href="#NotoSansCJKjp-Regular-a" transform="translate(872.296875 0)"/>
     <use xlink:href="#NotoSansCJKjp-Regular-9" transform="translate(906.09375 0)"/>
     <use xlink:href="#NotoSansCJKjp-Regular-59" transform="translate(939.890625 0)"/>
     <use xlink:href="#NotoSansCJKjp-Regular-c" transform="translate(989.6875 0)"/>
     <use xlink:href="#NotoSansCJKjp-Regular-f6b3" transform="translate(1045.1875 0)"/>
     <use xlink:href="#NotoSansCJKjp-Regular-a" transform="translate(1100.6875 0)"/>
     <use xlink:href="#NotoSansCJKjp-Regular-9" transform="translate(1134.484375 0)"/>
     <use xlink:href="#NotoSansCJKjp-Regular-59" transform="translate(1168.28125 0)"/>
     <use xlink:href="#NotoSansCJKjp-Regular-e" transform="translate(1216.578125 0)"/>
     <use xlink:href="#NotoSansCJKjp-Regular-f6b4" transform="translate(1251.28125 0)"/>
     <use xlink:href="#NotoSansCJKjp-Regular-a" transform="translate(1306.78125 0)"/>
     <use xlink:href="#NotoSansCJKjp-Regular-1" transform="translate(1340.578125 0)"/>
     <use xlink:href="#NotoSansCJKjp-Regular-1f" transform="translate(1362.984375 0)"/>
     <use xlink:href="#NotoSansCJKjp-Regular-1" transform="translate(1418.484375 0)"/>
     <use xlink:href="#NotoSansCJKjp-Regular-11" transform="translate(1440.890625 0)"/>
    </g>
   </g>
   <g id="patch_2">
    <path d="M 7.2 98.485333 
Q 296.64 98.485333 584.291146 98.485333 
" clip-path="url(#p80e6a80ae7)" style="fill: none; stroke: #222831; stroke-width: 1.6; stroke-linecap: round"/>
    <path d="M 577.091146 94.885333 
L 584.291146 98.485333 
L 577.091146 102.085333 
z
" clip-path="url(#p80e6a80ae7)" style="fill: #222831; stroke: #222831; stroke-width: 1.6; stroke-linecap: round"/>
   </g>
   <g id="patch_3">
    <path d="M 142.682553 103.76 
C 144.315753 103.76 145.882281 103.204228 147.037127 102.215086 
C 148.191974 101.225944 148.840851 99.884191 148.840851 98.485333 
C 148.840851 97.086475 148.191974 95.744723 147.037127 94.755581 
C 145.882281 93.766439 144.315753 93.210667 142.682553 93.210667 
C 141.049354 93.210667 139.482826 93.766439 138.327979 94.755581 
C 137.173132 95.744723 136.524255 97.086475 136.524255 98.485333 
C 136.524255 99.884191 137.173132 101.225944 138.327979 102.215086 
C 139.482826 103.204228 141.049354 103.76 142.682553 103.76 
z
" clip-path="url(#p80e6a80ae7)" style="fill: #d1242f; stroke: #d1242f; stroke-linejoin: miter"/>
   </g>
   <g id="patch_4">
    <path d="M 327.431489 103.76 
C 329.064689 103.76 330.631217 103.204228 331.786064 102.215086 
C 332.94091 101.225944 333.589787 99.884191 333.589787 98.485333 
C 333.589787 97.086475 332.94091 95.744723 331.786064 94.755581 
C 330.631217 93.766439 329.064689 93.210667 327.431489 93.210667 
C 325.79829 93.210667 324.231762 93.766439 323.076915 94.755581 
C 321.922069 95.744723 321.273191 97.086475 321.273191 98.485333 
C 321.273191 99.884191 321.922069 101.225944 323.076915 102.215086 
C 324.231762 103.204228 325.79829 103.76 327.431489 103.76 
z
" clip-path="url(#p80e6a80ae7)" style="fill: #d1242f; stroke: #d1242f; stroke-linejoin: miter"/>
   </g>
   <g id="patch_5">
    <path d="M 450.597447 103.76 
C 452.230646 103.76 453.797174 103.204228 454.952021 102.215086 
C 456.106868 101.225944 456.755745 99.884191 456.755745 98.485333 
C 456.755745 97.086475 456.106868 95.744723 454.952021 94.755581 
C 453.797174 93.766439 452.230646 93.210667 450.597447 93.210667 
C 448.964247 93.210667 447.397719 93.766439 446.242873 94.755581 
C 445.088026 95.744723 444.439149 97.086475 444.439149 98.485333 
C 444.439149 99.884191 445.088026 101.225944 446.242873 102.215086 
C 447.397719 103.204228 448.964247 103.76 450.597447 103.76 
z
" clip-path="url(#p80e6a80ae7)" style="fill: #d1242f; stroke: #d1242f; stroke-linejoin: miter"/>
   </g>
   <g id="patch_6">
    <path d="M 142.682553 66.309867 
C 144.479073 66.309867 146.202254 65.698517 147.472585 64.610461 
C 148.742916 63.522405 149.456681 62.046477 149.456681 60.507733 
C 149.456681 58.96899 148.742916 57.493062 147.472585 56.405006 
C 146.202254 55.316949 144.479073 54.7056 142.682553 54.7056 
C 140.886034 54.7056 139.162853 55.316949 137.892522 56.405006 
C 136.62219 57.493062 135.908426 58.96899 135.908426 60.507733 
C 135.908426 62.046477 136.62219 63.522405 137.892522 64.610461 
C 139.162853 65.698517 140.886034 66.309867 142.682553 66.309867 
L 142.682553 66.309867 
z
" clip-path="url(#p80e6a80ae7)" style="fill: none; stroke: #1a7f37; stroke-width: 2; stroke-linejoin: miter"/>
   </g>
   <g id="patch_7">
    <path d="M 327.431489 66.309867 
C 329.228009 66.309867 330.95119 65.698517 332.221521 64.610461 
C 333.491852 63.522405 334.205617 62.046477 334.205617 60.507733 
C 334.205617 58.96899 333.491852 57.493062 332.221521 56.405006 
C 330.95119 55.316949 329.228009 54.7056 327.431489 54.7056 
C 325.63497 54.7056 323.911789 55.316949 322.641458 56.405006 
C 321.371127 57.493062 320.657362 58.96899 320.657362 60.507733 
C 320.657362 62.046477 321.371127 63.522405 322.641458 64.610461 
C 323.911789 65.698517 325.63497 66.309867 327.431489 66.309867 
L 327.431489 66.309867 
z
" clip-path="url(#p80e6a80ae7)" style="fill: none; stroke: #1a7f37; stroke-width: 2; stroke-linejoin: miter"/>
   </g>
   <g id="patch_8">
    <path d="M 450.597447 66.309867 
C 452.393966 66.309867 454.117147 65.698517 455.387478 64.610461 
C 456.65781 63.522405 457.371574 62.046477 457.371574 60.507733 
C 457.371574 58.96899 456.65781 57.493062 455.387478 56.405006 
C 454.117147 55.316949 452.393966 54.7056 450.597447 54.7056 
C 448.800927 54.7056 447.077746 55.316949 445.807415 56.405006 
C 444.537084 57.493062 443.823319 58.96899 443.823319 60.507733 
C 443.823319 62.046477 444.537084 63.522405 445.807415 64.610461 
C 447.077746 65.698517 448.800927 66.309867 450.597447 66.309867 
L 450.597447 66.309867 
z
" clip-path="url(#p80e6a80ae7)" style="fill: none; stroke: #1a7f37; stroke-width: 2; stroke-linejoin: miter"/>
   </g>
  </g>
 </g>
 <defs>
  <clipPath id="p80e6a80ae7">
   <rect x="7.2" y="24.64" width="578.88" height="158.24"/>
  </clipPath>
 </defs>
</svg>
