<?xml version="1.0" encoding="utf-8" standalone="no"?>
<!DOCTYPE svg PUBLIC "-//W3C//DTD SVG 1.1//EN"
  "http://www.w3.org/Graphics/SVG/1.1/DTD/svg11.dtd">
<svg xmlns:xlink="http://www.w3.org/1999/xlink" width="535.68pt" height="276.484062pt" viewBox="0 0 535.68 276.484062" xmlns="http://www.w3.org/2000/svg" version="1.1">
 <metadata>
  <rdf:RDF xmlns:dc="http://purl.org/dc/elements/1.1/" xmlns:cc="http://creativecommons.org/ns#" xmlns:rdf="http://www.w3.org/1999/02/22-rdf-syntax-ns#">
   <cc:Work>
    <dc:type rdf:resource="http://purl.org/dc/dcmitype/StillImage"/>
    <dc:date>2026-06-20T18:20:28.644197</dc:date>
    <dc:format>image/svg+xml</dc:format>
    <dc:creator>
     <cc:Agent>
      <dc:title>Matplotlib v3.11.0, https://matplotlib.org/</dc:title>
     </cc:Agent>
    </dc:creator>
   </cc:Work>
  </rdf:RDF>
 </metadata>
 <defs>
  <style type="text/css">*{stroke-linejoin: round; stroke-linecap: butt}</style>
 </defs>
 <g id="figure_1">
  <g id="patch_1">
   <path d="M 0 276.484062 
L 535.68 276.484062 
L 535.68 0 
L 0 0 
z
" style="fill: #ffffff"/>
  </g>
  <g id="axes_1">
   <g id="patch_2">
    <path d="M 33.264 94.465222 
L 77.161263 94.465222 
L 77.161263 52.899903 
L 33.264 52.899903 
L 33.264 94.465222 
z
" clip-path="url(#pb4c5bfbd0c)" style="fill: none; stroke: #d1242f; stroke-width: 1.6; stroke-linejoin: miter"/>
   </g>
   <g id="line2d_1">
    <path d="M 92.936842 214.271141 
L 92.936842 46.176102 
" clip-path="url(#pb4c5bfbd0c)" style="fill: none; stroke: #222831; stroke-width: 1.4; stroke-linecap: square"/>
   </g>
   <g id="line2d_2">
    <path d="M 92.936842 156.201945 
L 466.749474 156.201945 
" clip-path="url(#pb4c5bfbd0c)" style="fill: none; stroke: #222831; stroke-width: 1.4; stroke-linecap: square"/>
   </g>
   <g id="text_1">
    <!-- 2 -->
    <g style="fill: #d1242f" transform="translate(50.217632 80.522562) scale(0.18 -0.18)">
     <defs>
      <path id="NotoSansCJKjp-Regular-13" d="M 282 0 
L 3232 0 
L 3232 506 
L 1933 506 
C 1696 506 1408 480 1165 461 
C 2266 1504 3008 2458 3008 3398 
C 3008 4230 2477 4774 1638 4774 
C 1043 4774 634 4506 256 4090 
L 595 3757 
C 858 4070 1184 4301 1568 4301 
C 2150 4301 2432 3910 2432 3373 
C 2432 2566 1754 1632 282 346 
L 282 0 
z
" transform="scale(0.015625)"/>
     </defs>
     <use xlink:href="#NotoSansCJKjp-Regular-13"/>
    </g>
   </g>
   <g id="text_2">
    <!-- 除數 a -->
    <g style="fill: #d1242f" transform="translate(38.490444 35.784772) scale(0.12 -0.12)">
     <defs>
      <path id="NotoSansCJKjp-Regular-a89c" d="M 4128 4922 
C 4544 4301 5286 3597 5952 3181 
C 6022 3302 6131 3482 6221 3584 
C 5536 3955 4794 4653 4326 5363 
L 3891 5363 
C 3546 4710 2829 3955 2099 3526 
C 2182 3430 2291 3264 2342 3149 
C 3072 3603 3763 4320 4128 4922 
z
M 2912 1536 
C 2720 1018 2413 512 2054 173 
C 2150 109 2323 -32 2400 -109 
C 2765 269 3123 851 3334 1434 
L 2912 1536 
z
M 4838 1370 
C 5171 915 5555 307 5709 -77 
L 6106 128 
C 5939 512 5555 1107 5203 1549 
L 4838 1370 
z
M 2490 2298 
L 2490 1882 
L 3910 1882 
L 3910 38 
C 3910 -45 3891 -64 3808 -70 
C 3718 -70 3456 -70 3155 -64 
C 3219 -192 3296 -390 3315 -512 
C 3718 -512 3981 -506 4147 -429 
C 4320 -352 4371 -218 4371 32 
L 4371 1882 
L 5901 1882 
L 5901 2298 
L 4371 2298 
L 4371 3098 
L 5402 3098 
L 5402 3507 
L 2918 3507 
L 2918 3098 
L 3910 3098 
L 3910 2298 
L 2490 2298 
z
M 518 5101 
L 518 -512 
L 947 -512 
L 947 4666 
L 1786 4666 
C 1651 4230 1459 3648 1274 3181 
C 1734 2682 1856 2253 1856 1901 
C 1856 1709 1818 1536 1722 1466 
C 1670 1427 1600 1414 1517 1408 
C 1414 1402 1293 1408 1146 1414 
C 1216 1293 1261 1107 1267 992 
C 1408 986 1568 992 1696 1005 
C 1830 1018 1939 1056 2029 1120 
C 2208 1242 2285 1510 2285 1856 
C 2285 2253 2176 2707 1709 3238 
C 1926 3750 2163 4403 2349 4934 
L 2035 5120 
L 1965 5101 
L 518 5101 
z
" transform="scale(0.015625)"/>
      <path id="NotoSansCJKjp-Regular-4e26" d="M 4352 3744 
L 5318 3744 
C 5216 2957 5062 2266 4826 1677 
C 4595 2266 4442 2944 4333 3661 
L 4352 3744 
z
M 256 4301 
L 256 3936 
L 698 3936 
L 698 3245 
L 1741 3245 
L 1741 2950 
L 538 2950 
L 538 1882 
L 1485 1882 
L 1274 1478 
L 262 1472 
L 275 1088 
L 1069 1094 
C 928 845 787 608 666 422 
L 1062 307 
L 1171 486 
C 1389 403 1606 314 1818 218 
C 1459 32 998 -83 416 -154 
C 493 -256 570 -410 602 -538 
C 1293 -416 1837 -250 2246 13 
C 2522 -128 2765 -275 2957 -410 
L 3264 -102 
C 3078 19 2848 154 2586 282 
C 2816 512 2976 794 3072 1133 
L 3750 1152 
L 3763 1510 
L 1734 1485 
L 1939 1882 
L 3424 1882 
L 3424 2419 
C 3526 2336 3648 2221 3706 2157 
C 3834 2362 3949 2592 4051 2848 
C 4179 2221 4346 1645 4563 1146 
C 4256 614 3853 192 3309 -134 
C 3392 -224 3539 -429 3584 -525 
C 4090 -198 4486 192 4794 666 
C 5075 166 5414 -237 5850 -518 
C 5920 -403 6067 -224 6176 -141 
C 5709 141 5350 582 5062 1133 
C 5421 1843 5638 2707 5779 3744 
L 6144 3744 
L 6144 4186 
L 4467 4186 
C 4550 4544 4621 4922 4678 5306 
L 4211 5376 
C 4070 4339 3827 3315 3424 2618 
L 3424 2950 
L 2163 2950 
L 2163 3245 
L 3277 3245 
L 3277 3936 
L 3731 3936 
L 3731 4301 
L 3277 4301 
L 3277 4986 
L 2163 4986 
L 2163 5376 
L 1741 5376 
L 1741 4986 
L 698 4986 
L 698 4301 
L 256 4301 
z
M 1101 4646 
L 1741 4646 
L 1741 4282 
L 1101 4282 
L 1101 4646 
z
M 1741 3578 
L 1101 3578 
L 1101 3955 
L 1741 3955 
L 1741 3578 
z
M 2163 4646 
L 2848 4646 
L 2848 4282 
L 2163 4282 
L 2163 4646 
z
M 2163 3578 
L 2163 3955 
L 2848 3955 
L 2848 3578 
L 2163 3578 
z
M 947 2624 
L 1741 2624 
L 1741 2202 
L 947 2202 
L 947 2624 
z
M 2163 2624 
L 3002 2624 
L 3002 2202 
L 2163 2202 
L 2163 2624 
z
M 1530 1107 
L 2630 1126 
C 2534 864 2387 646 2189 467 
C 1920 589 1632 704 1357 800 
L 1530 1107 
z
" transform="scale(0.015625)"/>
      <path id="NotoSansCJKjp-Regular-1" transform="scale(0.015625)"/>
      <path id="NotoSansCJKjp-Regular-42" d="M 1389 -83 
C 1818 -83 2208 141 2541 416 
L 2560 416 
L 2611 0 
L 3091 0 
L 3091 2138 
C 3091 3002 2739 3565 1888 3565 
C 1325 3565 838 3315 525 3110 
L 749 2707 
C 1024 2893 1389 3078 1792 3078 
C 2362 3078 2509 2650 2509 2202 
C 1030 2035 378 1658 378 902 
C 378 275 806 -83 1389 -83 
z
M 1555 390 
C 1210 390 941 544 941 941 
C 941 1389 1338 1677 2509 1811 
L 2509 845 
C 2170 544 1888 390 1555 390 
z
" transform="scale(0.015625)"/>
     </defs>
     <use xlink:href="#NotoSansCJKjp-Regular-a89c"/>
     <use xlink:href="#NotoSansCJKjp-Regular-4e26" transform="translate(100 0)"/>
     <use xlink:href="#NotoSansCJKjp-Regular-1" transform="translate(200 0)"/>
     <use xlink:href="#NotoSansCJKjp-Regular-42" transform="translate(222.40625 0)"/>
    </g>
   </g>
   <g id="text_3">
    <!-- 2 -->
    <g style="fill: #222831" transform="translate(132.525 80.522562) scale(0.18 -0.18)">
     <use xlink:href="#NotoSansCJKjp-Regular-13"/>
    </g>
   </g>
   <g id="text_4">
    <!-- 2 -->
    <g style="fill: #1f6feb" transform="translate(132.525 190.548406) scale(0.18 -0.18)">
     <use xlink:href="#NotoSansCJKjp-Regular-13"/>
    </g>
   </g>
   <g id="text_5">
    <!-- -3 -->
    <g style="fill: #222831" transform="translate(225.426982 80.522562) scale(0.18 -0.18)">
     <defs>
      <path id="NotoSansCJKjp-Regular-e" d="M 294 1568 
L 1933 1568 
L 1933 2016 
L 294 2016 
L 294 1568 
z
" transform="scale(0.015625)"/>
      <path id="NotoSansCJKjp-Regular-14" d="M 1683 -83 
C 2522 -83 3194 416 3194 1254 
C 3194 1901 2752 2310 2202 2445 
L 2202 2477 
C 2701 2650 3034 3034 3034 3603 
C 3034 4346 2458 4774 1664 4774 
C 1126 4774 710 4538 358 4218 
L 672 3846 
C 941 4115 1267 4301 1645 4301 
C 2138 4301 2438 4006 2438 3558 
C 2438 3053 2112 2662 1139 2662 
L 1139 2214 
C 2227 2214 2598 1843 2598 1274 
C 2598 736 2208 403 1645 403 
C 1114 403 762 659 486 941 
L 186 563 
C 493 224 954 -83 1683 -83 
z
" transform="scale(0.015625)"/>
     </defs>
     <use xlink:href="#NotoSansCJKjp-Regular-e"/>
     <use xlink:href="#NotoSansCJKjp-Regular-14" transform="translate(34.703125 0)"/>
    </g>
   </g>
   <g id="text_6">
    <!-- 4 -->
    <g style="fill: #1a7f37" transform="translate(228.827763 135.155484) scale(0.17 -0.17)">
     <defs>
      <path id="NotoSansCJKjp-Regular-15" d="M 2176 0 
L 2726 0 
L 2726 1293 
L 3354 1293 
L 3354 1760 
L 2726 1760 
L 2726 4691 
L 2080 4691 
L 128 1677 
L 128 1293 
L 2176 1293 
L 2176 0 
z
M 2176 1760 
L 736 1760 
L 1805 3360 
C 1939 3590 2067 3827 2182 4051 
L 2208 4051 
C 2195 3814 2176 3430 2176 3200 
L 2176 1760 
z
" transform="scale(0.015625)"/>
     </defs>
     <use xlink:href="#NotoSansCJKjp-Regular-15"/>
    </g>
   </g>
   <g id="text_7">
    <!-- 1 -->
    <g style="fill: #1f6feb" transform="translate(228.550263 190.548406) scale(0.18 -0.18)">
     <defs>
      <path id="NotoSansCJKjp-Regular-12" d="M 563 0 
L 3136 0 
L 3136 486 
L 2195 486 
L 2195 4691 
L 1747 4691 
C 1491 4544 1190 4435 774 4358 
L 774 3987 
L 1613 3987 
L 1613 486 
L 563 486 
L 563 0 
z
" transform="scale(0.015625)"/>
     </defs>
     <use xlink:href="#NotoSansCJKjp-Regular-12"/>
    </g>
   </g>
   <g id="text_8">
    <!-- 0 -->
    <g style="fill: #222831" transform="translate(324.575526 80.522562) scale(0.18 -0.18)">
     <defs>
      <path id="NotoSansCJKjp-Regular-11" d="M 1779 -83 
C 2669 -83 3238 723 3238 2362 
C 3238 3987 2669 4774 1779 4774 
C 883 4774 320 3987 320 2362 
C 320 723 883 -83 1779 -83 
z
M 1779 390 
C 1248 390 883 986 883 2362 
C 883 3731 1248 4314 1779 4314 
C 2310 4314 2675 3731 2675 2362 
C 2675 986 2310 390 1779 390 
z
" transform="scale(0.015625)"/>
     </defs>
     <use xlink:href="#NotoSansCJKjp-Regular-11"/>
    </g>
   </g>
   <g id="text_9">
    <!-- 2 -->
    <g style="fill: #1a7f37" transform="translate(324.853026 135.155484) scale(0.17 -0.17)">
     <use xlink:href="#NotoSansCJKjp-Regular-13"/>
    </g>
   </g>
   <g id="text_10">
    <!-- 2 -->
    <g style="fill: #1f6feb" transform="translate(324.575526 190.548406) scale(0.18 -0.18)">
     <use xlink:href="#NotoSansCJKjp-Regular-13"/>
    </g>
   </g>
   <g id="text_11">
    <!-- 5 -->
    <g style="fill: #222831" transform="translate(420.600789 80.522562) scale(0.18 -0.18)">
     <defs>
      <path id="NotoSansCJKjp-Regular-16" d="M 1677 -83 
C 2464 -83 3213 499 3213 1523 
C 3213 2560 2573 3021 1798 3021 
C 1517 3021 1306 2950 1094 2835 
L 1216 4192 
L 2982 4192 
L 2982 4691 
L 704 4691 
L 550 2502 
L 864 2304 
C 1133 2483 1331 2579 1645 2579 
C 2234 2579 2618 2182 2618 1510 
C 2618 826 2176 403 1619 403 
C 1075 403 730 653 467 922 
L 173 538 
C 493 224 941 -83 1677 -83 
z
" transform="scale(0.015625)"/>
     </defs>
     <use xlink:href="#NotoSansCJKjp-Regular-16"/>
    </g>
   </g>
   <g id="text_12">
    <!-- 4 -->
    <g style="fill: #1a7f37" transform="translate(420.878289 135.155484) scale(0.17 -0.17)">
     <use xlink:href="#NotoSansCJKjp-Regular-15"/>
    </g>
   </g>
   <g id="text_13">
    <!-- 9 -->
    <g style="fill: #bf8700" transform="translate(420.600789 190.548406) scale(0.18 -0.18)">
     <defs>
      <path id="NotoSansCJKjp-Regular-1a" d="M 1504 -83 
C 2381 -83 3206 646 3206 2547 
C 3206 4038 2528 4774 1626 4774 
C 896 4774 282 4166 282 3251 
C 282 2285 794 1779 1574 1779 
C 1965 1779 2368 2003 2656 2349 
C 2611 896 2086 403 1485 403 
C 1178 403 896 538 691 762 
L 371 397 
C 634 122 992 -83 1504 -83 
z
M 2650 2842 
C 2336 2394 1984 2214 1670 2214 
C 1114 2214 832 2624 832 3251 
C 832 3898 1178 4320 1632 4320 
C 2227 4320 2586 3808 2650 2842 
z
" transform="scale(0.015625)"/>
     </defs>
     <use xlink:href="#NotoSansCJKjp-Regular-1a"/>
    </g>
   </g>
   <g id="text_14">
    <!-- 綠箭頭：乘以 a 後斜放到下一欄 -->
    <g style="fill: #1a7f37" transform="translate(135.907405 235.665055) scale(0.11 -0.11)">
     <defs>
      <path id="NotoSansCJKjp-Regular-7997" d="M 2739 2074 
C 3021 1824 3334 1459 3475 1216 
L 3821 1510 
C 3674 1754 3347 2093 3066 2330 
L 2739 2074 
z
M 2362 230 
L 2611 -192 
C 3021 90 3507 435 3962 774 
L 3814 1133 
C 3283 787 2726 435 2362 230 
z
M 1894 1632 
C 2048 1261 2182 774 2214 454 
L 2592 576 
C 2547 890 2413 1370 2246 1734 
L 1894 1632 
z
M 570 1715 
C 493 1158 378 582 166 192 
C 269 154 454 70 538 13 
C 736 422 890 1043 973 1651 
L 570 1715 
z
M 3392 5376 
C 3264 4755 3046 3917 2880 3405 
L 3334 3334 
L 3398 3546 
L 4883 3546 
L 4781 3078 
L 2560 3078 
L 2560 2656 
L 4090 2656 
L 4090 -13 
C 4090 -90 4070 -109 3994 -115 
C 3917 -115 3667 -122 3392 -109 
C 3450 -230 3514 -403 3533 -525 
C 3910 -525 4160 -518 4320 -448 
C 4486 -378 4531 -262 4531 -19 
L 4531 1453 
C 4794 806 5216 166 5914 -218 
C 5978 -96 6125 90 6214 179 
C 5696 422 5325 806 5062 1248 
C 5376 1478 5747 1805 6048 2099 
L 5690 2387 
C 5491 2150 5158 1830 4877 1594 
C 4717 1939 4608 2310 4538 2656 
L 6080 2656 
L 6080 3078 
L 5235 3078 
C 5363 3642 5498 4326 5574 4838 
L 5242 4890 
L 5165 4864 
L 3744 4864 
L 3853 5318 
L 3392 5376 
z
M 3654 4486 
L 5056 4486 
L 4954 3923 
L 3507 3923 
L 3654 4486 
z
M 179 2547 
L 237 2118 
L 1248 2182 
L 1248 -512 
L 1670 -512 
L 1670 2208 
L 2176 2240 
C 2234 2086 2285 1946 2310 1824 
L 2694 2003 
C 2598 2349 2342 2906 2074 3322 
L 1722 3181 
C 1824 3014 1920 2829 2010 2637 
L 1088 2592 
C 1517 3136 2010 3866 2374 4454 
L 1971 4646 
C 1792 4301 1549 3878 1286 3475 
C 1190 3610 1075 3750 941 3898 
C 1178 4256 1459 4781 1677 5216 
L 1254 5376 
C 1120 5018 890 4531 685 4166 
L 486 4346 
L 237 4038 
C 525 3763 845 3398 1037 3104 
C 896 2912 762 2726 634 2566 
L 179 2547 
z
" transform="scale(0.015625)"/>
      <path id="NotoSansCJKjp-Regular-756a" d="M 1331 1805 
C 1613 1638 1958 1395 2131 1229 
L 2394 1453 
C 2214 1613 1862 1850 1587 2003 
L 1331 1805 
z
M 1293 934 
C 1587 762 1939 499 2099 320 
L 2374 544 
C 2195 730 1843 979 1555 1139 
L 1293 934 
z
M 3629 2477 
L 3629 352 
L 4090 352 
L 4090 2477 
L 3629 2477 
z
M 5152 2598 
L 5152 38 
C 5152 -45 5126 -70 5024 -77 
C 4922 -83 4582 -83 4198 -70 
C 4269 -192 4365 -384 4390 -512 
C 4845 -512 5165 -512 5357 -435 
C 5562 -358 5619 -230 5619 32 
L 5619 2598 
L 5152 2598 
z
M 3712 5408 
C 3507 4877 3130 4384 2701 4058 
C 2816 4006 3021 3891 3117 3814 
C 3328 3994 3539 4230 3725 4493 
L 4141 4493 
C 4301 4294 4461 4058 4544 3885 
C 4422 3699 4269 3501 4147 3354 
L 2202 3354 
L 2298 3392 
C 2195 3590 1971 3891 1773 4102 
L 1363 3942 
C 1517 3770 1677 3539 1786 3354 
L 294 3354 
L 294 2963 
L 6125 2963 
L 6125 3354 
L 4672 3354 
C 4826 3526 4992 3738 5146 3955 
L 4973 4013 
C 4909 4147 4787 4326 4659 4493 
L 6016 4493 
L 6016 4890 
L 3981 4890 
C 4051 5018 4115 5158 4173 5293 
L 3712 5408 
z
M 819 2573 
L 819 -512 
L 1267 -512 
L 1267 2214 
L 2496 2214 
L 2496 -13 
C 2496 -83 2477 -102 2400 -109 
C 2323 -115 2099 -115 1830 -102 
C 1888 -224 1952 -397 1965 -518 
C 2336 -518 2592 -512 2752 -442 
C 2912 -371 2957 -250 2957 -13 
L 2957 2573 
L 819 2573 
z
M 1184 5408 
C 979 4890 614 4371 218 4032 
C 333 3974 538 3853 627 3782 
C 826 3974 1024 4218 1203 4493 
L 1574 4493 
C 1741 4282 1907 4032 1990 3859 
L 2394 4026 
C 2330 4154 2208 4326 2086 4493 
L 3117 4493 
L 3117 4890 
L 1440 4890 
C 1510 5018 1574 5152 1632 5286 
L 1184 5408 
z
" transform="scale(0.015625)"/>
      <path id="NotoSansCJKjp-Regular-abfd" d="M 339 5030 
L 339 4582 
L 2861 4582 
L 2861 5030 
L 339 5030 
z
M 934 3571 
L 2272 3571 
L 2272 2643 
L 934 2643 
L 934 3571 
z
M 512 3968 
L 512 2246 
L 2707 2246 
L 2707 3968 
L 512 3968 
z
M 666 1914 
C 800 1530 902 1037 909 710 
L 1325 813 
C 1312 1139 1210 1632 1056 2010 
L 666 1914 
z
M 3674 2694 
L 5459 2694 
L 5459 2067 
L 3674 2067 
L 3674 2694 
z
M 3674 1715 
L 5459 1715 
L 5459 1075 
L 3674 1075 
L 3674 1715 
z
M 3674 3674 
L 5459 3674 
L 5459 3053 
L 3674 3053 
L 3674 3674 
z
M 3834 570 
C 3571 301 3008 -26 2522 -198 
C 2624 -288 2771 -429 2842 -518 
C 3334 -333 3904 0 4250 326 
L 3834 570 
z
M 4787 301 
C 5165 64 5645 -288 5875 -518 
L 6259 -262 
C 6010 -26 5530 314 5158 538 
L 4787 301 
z
M 243 294 
L 358 -166 
C 1062 -6 2029 211 2944 422 
L 2906 832 
L 2163 678 
C 2278 1011 2413 1517 2528 1946 
L 2061 2061 
C 2010 1677 1888 1107 1779 762 
L 2112 666 
C 1402 518 730 378 243 294 
z
M 3226 4045 
L 3226 704 
L 5920 704 
L 5920 4045 
L 4595 4045 
L 4781 4653 
L 6125 4653 
L 6125 5069 
L 3027 5069 
L 3027 4653 
L 4243 4653 
C 4211 4454 4166 4237 4122 4045 
L 3226 4045 
z
" transform="scale(0.015625)"/>
      <path id="NotoSansCJKjp-Regular-e6c0" d="M 3200 3482 
C 3456 3482 3686 3667 3686 3962 
C 3686 4256 3456 4442 3200 4442 
C 2944 4442 2714 4256 2714 3962 
C 2714 3667 2944 3482 3200 3482 
z
M 3200 346 
C 3456 346 3686 538 3686 826 
C 3686 1120 3456 1312 3200 1312 
C 2944 1312 2714 1120 2714 826 
C 2714 538 2944 346 3200 346 
z
" transform="scale(0.015625)"/>
      <path id="NotoSansCJKjp-Regular-257f" d="M 5197 5344 
C 4154 5126 2310 4992 819 4941 
C 864 4832 922 4646 928 4531 
C 1562 4544 2266 4576 2944 4627 
L 2944 4032 
L 416 4032 
L 416 3590 
L 2944 3590 
L 2944 2106 
C 2400 1216 1350 429 218 109 
C 326 6 467 -173 538 -288 
C 1472 26 2336 653 2944 1427 
L 2944 -506 
L 3443 -506 
L 3443 1453 
C 4045 659 4915 6 5856 -320 
C 5926 -192 6067 -13 6170 83 
C 5043 410 3987 1222 3443 2118 
L 3443 3590 
L 5984 3590 
L 5984 4032 
L 3443 4032 
L 3443 4666 
C 4179 4730 4877 4819 5414 4928 
L 5197 5344 
z
M 397 1779 
L 506 1370 
L 1818 1619 
L 1818 1318 
L 2266 1318 
L 2266 3411 
L 1818 3411 
L 1818 2963 
L 589 2963 
L 589 2573 
L 1818 2573 
L 1818 1997 
L 397 1779 
z
M 5478 3174 
C 5242 3046 4902 2893 4563 2765 
L 4563 3418 
L 4115 3418 
L 4115 1850 
C 4115 1389 4237 1267 4723 1267 
C 4826 1267 5357 1267 5459 1267 
C 5837 1267 5958 1414 6010 1990 
C 5882 2016 5702 2080 5606 2157 
C 5594 1734 5562 1677 5414 1677 
C 5299 1677 4864 1677 4774 1677 
C 4589 1677 4563 1702 4563 1850 
L 4563 2368 
C 4960 2496 5414 2656 5773 2816 
L 5478 3174 
z
" transform="scale(0.015625)"/>
      <path id="NotoSansCJKjp-Regular-2653" d="M 2336 4371 
C 2739 3898 3155 3238 3322 2797 
L 3782 3040 
C 3603 3482 3187 4109 2765 4576 
L 2336 4371 
z
M 1005 5030 
L 1114 1043 
C 781 902 480 781 230 685 
L 403 186 
C 1107 493 2086 922 2976 1325 
L 2867 1792 
L 1600 1248 
L 1498 5050 
L 1005 5030 
z
M 4954 5050 
C 4672 2259 3994 698 1779 -115 
C 1894 -218 2093 -422 2163 -531 
C 3168 -109 3872 448 4371 1210 
C 4915 634 5510 -45 5805 -493 
L 6214 -115 
C 5882 358 5203 1075 4634 1658 
C 5075 2522 5325 3616 5478 4998 
L 4954 5050 
z
" transform="scale(0.015625)"/>
      <path id="NotoSansCJKjp-Regular-43f2" d="M 1562 5376 
C 1280 4922 710 4371 211 4032 
C 288 3949 416 3776 474 3680 
C 1024 4070 1619 4666 1997 5203 
L 1562 5376 
z
M 1933 2944 
L 1978 2509 
L 3456 2554 
C 3072 1984 2470 1485 1862 1152 
C 1965 1069 2125 883 2189 787 
C 2451 947 2714 1139 2963 1357 
C 3168 1062 3418 794 3699 557 
C 3142 230 2490 13 1843 -115 
C 1933 -218 2035 -410 2080 -531 
C 2784 -365 3482 -109 4083 269 
C 4614 -90 5248 -358 5939 -518 
C 6003 -397 6125 -211 6234 -109 
C 5581 19 4979 243 4467 544 
C 4934 909 5318 1363 5562 1926 
L 5254 2074 
L 5171 2054 
L 3629 2054 
C 3763 2221 3885 2394 3994 2573 
L 5542 2624 
C 5664 2451 5760 2291 5824 2157 
L 6227 2394 
C 6029 2784 5568 3366 5165 3782 
L 4787 3584 
C 4947 3411 5114 3213 5261 3014 
L 3539 2976 
C 4141 3469 4794 4102 5306 4653 
L 4870 4890 
C 4570 4512 4147 4064 3712 3654 
C 3565 3808 3360 3981 3142 4154 
C 3437 4435 3776 4813 4058 5158 
L 3629 5376 
C 3430 5082 3110 4691 2822 4390 
L 2445 4653 
L 2150 4339 
C 2579 4058 3072 3661 3379 3347 
C 3226 3206 3072 3078 2931 2963 
L 1933 2944 
z
M 3258 1638 
L 3290 1670 
L 4915 1670 
C 4704 1338 4416 1043 4077 800 
C 3744 1043 3469 1325 3258 1638 
z
M 1715 4070 
C 1338 3392 723 2726 134 2285 
C 218 2189 358 1958 410 1862 
C 646 2054 896 2291 1133 2547 
L 1133 -531 
L 1587 -531 
L 1587 3085 
C 1798 3354 1984 3635 2144 3917 
L 1715 4070 
z
" transform="scale(0.015625)"/>
      <path id="NotoSansCJKjp-Regular-4e67" d="M 2438 1606 
C 2669 1184 2899 627 2976 275 
L 3373 448 
C 3290 787 3053 1331 2816 1747 
L 2438 1606 
z
M 794 1734 
C 672 1216 454 678 186 314 
C 294 262 480 147 563 77 
C 832 467 1082 1069 1229 1638 
L 794 1734 
z
M 3379 3059 
C 3770 2816 4224 2432 4429 2163 
L 4755 2477 
C 4544 2746 4077 3110 3693 3341 
L 3379 3059 
z
M 3603 4659 
C 3974 4390 4397 3987 4589 3706 
L 4934 4006 
C 4736 4282 4307 4666 3930 4922 
L 3603 4659 
z
M 1581 5376 
C 1318 4768 813 4000 96 3430 
C 198 3360 346 3200 416 3098 
C 557 3213 691 3341 813 3462 
L 813 3232 
L 1664 3232 
L 1664 2541 
L 326 2541 
L 326 2106 
L 1664 2106 
L 1664 26 
C 1664 -58 1638 -77 1555 -83 
C 1472 -83 1210 -83 915 -77 
C 979 -205 1050 -390 1069 -518 
C 1485 -518 1741 -506 1901 -429 
C 2067 -358 2125 -230 2125 19 
L 2125 2106 
L 3283 2106 
L 3283 2541 
L 2125 2541 
L 2125 3232 
L 2957 3232 
L 2957 3661 
L 998 3661 
C 1376 4083 1664 4518 1875 4896 
C 2291 4538 2746 4026 2970 3699 
L 3334 4090 
C 3053 4461 2496 4998 2042 5376 
L 1581 5376 
z
M 3290 1331 
L 3392 883 
L 5069 1242 
L 5069 -499 
L 5542 -499 
L 5542 1344 
L 6227 1491 
L 6131 1933 
L 5542 1811 
L 5542 5370 
L 5069 5370 
L 5069 1709 
L 3290 1331 
z
" transform="scale(0.015625)"/>
      <path id="NotoSansCJKjp-Regular-4dd1" d="M 1453 5363 
L 1453 4339 
L 282 4339 
L 282 3891 
L 1037 3891 
L 1037 2560 
C 1037 1651 941 640 160 -192 
C 275 -275 435 -403 518 -506 
C 1370 403 1498 1491 1498 2554 
L 1498 2592 
L 2374 2592 
C 2330 800 2285 166 2176 26 
C 2125 -51 2074 -64 1978 -64 
C 1882 -64 1638 -58 1370 -38 
C 1446 -160 1491 -352 1498 -486 
C 1773 -493 2042 -493 2195 -480 
C 2368 -461 2477 -410 2579 -269 
C 2752 -51 2784 678 2829 2816 
C 2835 2886 2835 3040 2835 3040 
L 1498 3040 
L 1498 3891 
L 3123 3891 
L 3123 4339 
L 1926 4339 
L 1926 5363 
L 1453 5363 
z
M 3974 3731 
L 5203 3731 
C 5069 2912 4870 2214 4570 1638 
C 4282 2221 4077 2899 3942 3635 
L 3974 3731 
z
M 3872 5382 
C 3686 4275 3354 3200 2848 2528 
C 2963 2451 3174 2298 3258 2214 
C 3405 2419 3533 2662 3654 2918 
C 3814 2272 4019 1683 4282 1171 
C 3898 627 3379 205 2688 -102 
C 2778 -205 2918 -416 2963 -525 
C 3629 -198 4141 218 4544 730 
C 4890 205 5325 -211 5869 -499 
C 5939 -371 6093 -186 6202 -90 
C 5632 179 5184 608 4832 1158 
C 5248 1850 5510 2694 5683 3731 
L 6157 3731 
L 6157 4179 
L 4109 4179 
C 4211 4538 4294 4922 4365 5306 
L 3872 5382 
z
" transform="scale(0.015625)"/>
      <path id="NotoSansCJKjp-Regular-2bbc" d="M 3885 4608 
L 3885 1056 
L 4352 1056 
L 4352 4608 
L 3885 4608 
z
M 5402 5197 
L 5402 134 
C 5402 19 5370 -13 5254 -19 
C 5126 -19 4723 -26 4294 -13 
C 4371 -154 4442 -378 4467 -512 
C 4986 -512 5370 -499 5587 -422 
C 5792 -346 5869 -198 5869 134 
L 5869 5197 
L 5402 5197 
z
M 2349 3994 
C 2522 3795 2701 3565 2861 3334 
L 1382 3264 
C 1562 3648 1747 4115 1914 4518 
L 3610 4518 
L 3610 4960 
L 326 4960 
L 326 4518 
L 1370 4518 
C 1248 4115 1069 3622 896 3245 
L 307 3219 
L 346 2765 
L 3136 2925 
C 3226 2778 3296 2643 3354 2528 
L 3731 2758 
C 3546 3149 3098 3750 2714 4192 
L 2349 3994 
z
M 256 160 
L 326 -320 
C 1184 -205 2445 -19 3635 147 
L 3622 595 
L 2208 410 
L 2208 1472 
L 3424 1472 
L 3424 1907 
L 2208 1907 
L 2208 2675 
L 1734 2675 
L 1734 1907 
L 512 1907 
L 512 1472 
L 1734 1472 
L 1734 346 
L 256 160 
z
" transform="scale(0.015625)"/>
      <path id="NotoSansCJKjp-Regular-2516" d="M 352 4902 
L 352 4422 
L 2822 4422 
L 2822 -506 
L 3328 -506 
L 3328 2886 
C 4064 2490 4922 1958 5370 1600 
L 5709 2035 
C 5197 2426 4179 3002 3418 3373 
L 3328 3270 
L 3328 4422 
L 6054 4422 
L 6054 4902 
L 352 4902 
z
" transform="scale(0.015625)"/>
      <path id="NotoSansCJKjp-Regular-2509" d="M 282 2758 
L 282 2234 
L 6144 2234 
L 6144 2758 
L 282 2758 
z
" transform="scale(0.015625)"/>
      <path id="NotoSansCJKjp-Regular-57a8" d="M 2330 5158 
L 2330 -518 
L 2746 -518 
L 2746 3206 
L 3962 3206 
L 3962 5158 
L 2330 5158 
z
M 2746 4794 
L 3571 4794 
L 3571 4365 
L 2746 4365 
L 2746 4794 
z
M 2746 3578 
L 2746 4032 
L 3571 4032 
L 3571 3578 
L 2746 3578 
z
M 4672 4032 
L 5523 4032 
L 5523 3578 
L 4672 3578 
L 4672 4032 
z
M 4672 4358 
L 4672 4794 
L 5523 4794 
L 5523 4358 
L 4672 4358 
z
M 3149 2240 
L 3149 877 
L 3808 877 
C 3565 550 3187 224 2842 64 
C 2925 0 3034 -128 3098 -218 
C 3386 -45 3706 243 3949 557 
L 3949 -358 
L 4320 -358 
L 4320 608 
C 4518 339 4774 64 5011 -115 
L 4941 -109 
C 4998 -224 5056 -416 5075 -525 
C 5421 -525 5626 -512 5773 -442 
C 5914 -371 5958 -243 5958 -19 
L 5958 5158 
L 4288 5158 
L 4288 3206 
L 5523 3206 
L 5523 -13 
C 5523 -90 5498 -115 5427 -122 
L 5152 -115 
C 5210 -38 5299 45 5363 96 
C 5056 256 4710 576 4480 877 
L 5158 877 
L 5158 2240 
L 4307 2240 
L 4307 2496 
L 5299 2496 
L 5299 2784 
L 4307 2784 
L 4307 3098 
L 3955 3098 
L 3955 2784 
L 3002 2784 
L 3002 2496 
L 3955 2496 
L 3955 2240 
L 3149 2240 
z
M 3462 1427 
L 3981 1427 
L 3981 1152 
L 3462 1152 
L 3462 1427 
z
M 4288 1427 
L 4838 1427 
L 4838 1152 
L 4288 1152 
L 4288 1427 
z
M 3462 1971 
L 3981 1971 
L 3981 1696 
L 3462 1696 
L 3462 1971 
z
M 4288 1971 
L 4838 1971 
L 4838 1696 
L 4288 1696 
L 4288 1971 
z
M 1139 5376 
L 1139 3987 
L 333 3987 
L 333 3539 
L 1094 3539 
C 915 2669 563 1658 198 1120 
C 275 1018 384 838 435 717 
C 698 1126 947 1779 1139 2458 
L 1139 -506 
L 1574 -506 
L 1574 2522 
C 1754 2202 1965 1786 2048 1581 
L 2298 1926 
C 2202 2106 1728 2848 1574 3059 
L 1574 3539 
L 2227 3539 
L 2227 3987 
L 1574 3987 
L 1574 5376 
L 1139 5376 
z
" transform="scale(0.015625)"/>
     </defs>
     <use xlink:href="#NotoSansCJKjp-Regular-7997"/>
     <use xlink:href="#NotoSansCJKjp-Regular-756a" transform="translate(100 0)"/>
     <use xlink:href="#NotoSansCJKjp-Regular-abfd" transform="translate(200 0)"/>
     <use xlink:href="#NotoSansCJKjp-Regular-e6c0" transform="translate(300 0)"/>
     <use xlink:href="#NotoSansCJKjp-Regular-257f" transform="translate(400 0)"/>
     <use xlink:href="#NotoSansCJKjp-Regular-2653" transform="translate(500 0)"/>
     <use xlink:href="#NotoSansCJKjp-Regular-1" transform="translate(600 0)"/>
     <use xlink:href="#NotoSansCJKjp-Regular-42" transform="translate(622.40625 0)"/>
     <use xlink:href="#NotoSansCJKjp-Regular-1" transform="translate(678.703125 0)"/>
     <use xlink:href="#NotoSansCJKjp-Regular-43f2" transform="translate(701.109375 0)"/>
     <use xlink:href="#NotoSansCJKjp-Regular-4e67" transform="translate(801.109375 0)"/>
     <use xlink:href="#NotoSansCJKjp-Regular-4dd1" transform="translate(901.109375 0)"/>
     <use xlink:href="#NotoSansCJKjp-Regular-2bbc" transform="translate(1001.109375 0)"/>
     <use xlink:href="#NotoSansCJKjp-Regular-2516" transform="translate(1101.109375 0)"/>
     <use xlink:href="#NotoSansCJKjp-Regular-2509" transform="translate(1201.109375 0)"/>
     <use xlink:href="#NotoSansCJKjp-Regular-57a8" transform="translate(1301.109375 0)"/>
    </g>
   </g>
   <g id="text_15">
    <!-- （再上下相加） -->
    <g style="fill: #222831" transform="translate(373.377895 235.665055) scale(0.11 -0.11)">
     <defs>
      <path id="NotoSansCJKjp-Regular-e6ae" d="M 4448 2432 
C 4448 1184 4954 166 5722 -614 
L 6106 -416 
C 5370 346 4915 1293 4915 2432 
C 4915 3571 5370 4518 6106 5280 
L 5722 5478 
C 4954 4698 4448 3680 4448 2432 
z
" transform="scale(0.015625)"/>
      <path id="NotoSansCJKjp-Regular-2acb" d="M 1011 3910 
L 1011 1485 
L 256 1485 
L 256 1037 
L 1011 1037 
L 1011 -525 
L 1485 -525 
L 1485 1037 
L 4909 1037 
L 4909 83 
C 4909 -26 4870 -58 4749 -64 
C 4640 -70 4224 -77 3802 -58 
C 3878 -186 3949 -390 3981 -518 
C 4531 -518 4890 -512 5101 -435 
C 5312 -358 5382 -218 5382 77 
L 5382 1037 
L 6157 1037 
L 6157 1485 
L 5382 1485 
L 5382 3910 
L 3418 3910 
L 3418 4538 
L 5920 4538 
L 5920 4986 
L 493 4986 
L 493 4538 
L 2931 4538 
L 2931 3910 
L 1011 3910 
z
M 4909 1485 
L 3418 1485 
L 3418 2278 
L 4909 2278 
L 4909 1485 
z
M 1485 1485 
L 1485 2278 
L 2931 2278 
L 2931 1485 
L 1485 1485 
z
M 4909 2701 
L 3418 2701 
L 3418 3469 
L 4909 3469 
L 4909 2701 
z
M 1485 2701 
L 1485 3469 
L 2931 3469 
L 2931 2701 
L 1485 2701 
z
" transform="scale(0.015625)"/>
      <path id="NotoSansCJKjp-Regular-2515" d="M 2733 5280 
L 2733 275 
L 326 275 
L 326 -205 
L 6080 -205 
L 6080 275 
L 3238 275 
L 3238 2822 
L 5638 2822 
L 5638 3302 
L 3238 3302 
L 3238 5280 
L 2733 5280 
z
" transform="scale(0.015625)"/>
      <path id="NotoSansCJKjp-Regular-6ce8" d="M 3494 3034 
L 5440 3034 
L 5440 1920 
L 3494 1920 
L 3494 3034 
z
M 3494 3469 
L 3494 4544 
L 5440 4544 
L 5440 3469 
L 3494 3469 
z
M 3494 1478 
L 5440 1478 
L 5440 365 
L 3494 365 
L 3494 1478 
z
M 3027 4998 
L 3027 -467 
L 3494 -467 
L 3494 -77 
L 5440 -77 
L 5440 -448 
L 5926 -448 
L 5926 4998 
L 3027 4998 
z
M 1370 5376 
L 1370 4006 
L 333 4006 
L 333 3546 
L 1312 3546 
C 1088 2662 634 1651 186 1120 
C 262 1005 384 813 435 685 
C 781 1126 1120 1837 1370 2573 
L 1370 -506 
L 1837 -506 
L 1837 2419 
C 2080 2106 2368 1709 2490 1498 
L 2784 1888 
C 2643 2061 2061 2746 1837 2970 
L 1837 3546 
L 2752 3546 
L 2752 4006 
L 1837 4006 
L 1837 5376 
L 1370 5376 
z
" transform="scale(0.015625)"/>
      <path id="NotoSansCJKjp-Regular-2c76" d="M 3661 4582 
L 3661 -416 
L 4122 -416 
L 4122 58 
L 5363 58 
L 5363 -365 
L 5843 -365 
L 5843 4582 
L 3661 4582 
z
M 4122 518 
L 4122 4115 
L 5363 4115 
L 5363 518 
L 4122 518 
z
M 1248 5293 
L 1242 4160 
L 339 4160 
L 339 3693 
L 1229 3693 
C 1184 2080 986 659 179 -186 
C 301 -262 474 -410 550 -518 
C 1414 422 1638 1958 1696 3693 
L 2669 3693 
C 2618 1229 2560 352 2426 166 
C 2368 83 2304 58 2208 64 
C 2093 64 1818 64 1517 90 
C 1600 -45 1645 -250 1658 -390 
C 1946 -410 2240 -416 2419 -390 
C 2605 -365 2726 -307 2842 -141 
C 3040 134 3085 1069 3136 3917 
C 3136 3987 3136 4160 3136 4160 
L 1709 4160 
L 1722 5293 
L 1248 5293 
z
" transform="scale(0.015625)"/>
      <path id="NotoSansCJKjp-Regular-e6af" d="M 1952 2432 
C 1952 3680 1446 4698 678 5478 
L 294 5280 
C 1030 4518 1485 3571 1485 2432 
C 1485 1293 1030 346 294 -416 
L 678 -614 
C 1446 166 1952 1184 1952 2432 
z
" transform="scale(0.015625)"/>
     </defs>
     <use xlink:href="#NotoSansCJKjp-Regular-e6ae"/>
     <use xlink:href="#NotoSansCJKjp-Regular-2acb" transform="translate(100 0)"/>
     <use xlink:href="#NotoSansCJKjp-Regular-2515" transform="translate(200 0)"/>
     <use xlink:href="#NotoSansCJKjp-Regular-2516" transform="translate(300 0)"/>
     <use xlink:href="#NotoSansCJKjp-Regular-6ce8" transform="translate(400 0)"/>
     <use xlink:href="#NotoSansCJKjp-Regular-2c76" transform="translate(500 0)"/>
     <use xlink:href="#NotoSansCJKjp-Regular-e6af" transform="translate(600 0)"/>
    </g>
   </g>
   <g id="text_16">
    <!-- 商的係數 2, 1, 2 -->
    <g style="fill: #1f6feb" transform="translate(193.909794 217.327414) scale(0.115 -0.115)">
     <defs>
      <path id="NotoSansCJKjp-Regular-3088" d="M 710 3648 
L 710 -506 
L 1171 -506 
L 1171 3226 
L 2310 3226 
C 2253 2630 2016 2336 1210 2170 
C 1293 2093 1402 1933 1440 1830 
C 2387 2054 2669 2458 2752 3226 
L 3514 3226 
L 3514 2586 
C 3514 2189 3622 2080 4077 2080 
C 4166 2080 4646 2080 4742 2080 
C 5082 2080 5197 2214 5242 2726 
C 5126 2752 4954 2810 4870 2874 
C 4851 2496 4826 2451 4691 2451 
C 4589 2451 4205 2451 4128 2451 
C 3962 2451 3942 2470 3942 2592 
L 3942 3226 
L 5286 3226 
L 5286 83 
C 5286 -13 5261 -45 5146 -51 
C 5030 -58 4646 -58 4224 -45 
C 4294 -173 4365 -384 4390 -512 
C 4915 -512 5274 -506 5485 -429 
C 5690 -352 5754 -198 5754 83 
L 5754 3648 
L 4390 3648 
C 4512 3840 4640 4083 4762 4326 
L 5978 4326 
L 5978 4768 
L 3424 4768 
L 3424 5376 
L 2931 5376 
L 2931 4768 
L 442 4768 
L 442 4326 
L 1677 4326 
C 1792 4122 1907 3853 1971 3648 
L 710 3648 
z
M 2189 4326 
L 4198 4326 
C 4109 4109 3974 3834 3866 3648 
L 2496 3648 
C 2438 3840 2317 4102 2189 4326 
z
M 2445 1376 
L 4006 1376 
L 4006 557 
L 2445 557 
L 2445 1376 
z
M 2010 1754 
L 2010 -218 
L 2445 -218 
L 2445 179 
L 4448 179 
L 4448 1754 
L 2010 1754 
z
" transform="scale(0.015625)"/>
      <path id="NotoSansCJKjp-Regular-6c33" d="M 3533 2707 
C 3885 2240 4320 1600 4512 1210 
L 4922 1466 
C 4710 1843 4269 2464 3904 2918 
L 3533 2707 
z
M 1536 5389 
C 1485 5082 1376 4659 1274 4346 
L 557 4346 
L 557 -346 
L 998 -346 
L 998 160 
L 2784 160 
L 2784 4346 
L 1715 4346 
C 1824 4621 1946 4979 2054 5299 
L 1536 5389 
z
M 998 3917 
L 2342 3917 
L 2342 2566 
L 998 2566 
L 998 3917 
z
M 998 595 
L 998 2144 
L 2342 2144 
L 2342 595 
L 998 595 
z
M 3827 5402 
C 3622 4518 3277 3635 2835 3066 
C 2950 3002 3149 2867 3238 2790 
C 3456 3098 3661 3488 3840 3923 
L 5478 3923 
C 5402 1357 5299 371 5094 154 
C 5018 64 4947 45 4819 45 
C 4672 45 4288 51 3866 83 
C 3955 -38 4013 -243 4026 -378 
C 4384 -397 4762 -410 4979 -390 
C 5210 -365 5350 -314 5498 -122 
C 5754 192 5843 1184 5939 4122 
C 5946 4186 5946 4365 5946 4365 
L 4013 4365 
C 4115 4666 4211 4986 4288 5299 
L 3827 5402 
z
" transform="scale(0.015625)"/>
      <path id="NotoSansCJKjp-Regular-279f" d="M 4787 1088 
C 5152 691 5555 134 5722 -230 
L 6125 -13 
C 5952 352 5536 890 5165 1280 
L 4787 1088 
z
M 2726 1274 
C 2534 851 2157 339 1805 0 
C 1907 -58 2067 -166 2157 -243 
C 2534 115 2925 659 3168 1133 
L 2726 1274 
z
M 2093 3507 
C 2541 3232 3072 2835 3379 2515 
L 2963 2118 
L 1843 2093 
L 1907 1632 
L 3731 1696 
L 3731 -512 
L 4198 -512 
L 4198 1715 
L 5600 1773 
C 5696 1619 5786 1472 5843 1344 
L 6253 1542 
C 6048 1958 5587 2560 5158 2995 
L 4774 2822 
C 4954 2630 5139 2406 5306 2189 
L 3558 2131 
C 4134 2669 4774 3354 5261 3942 
L 4819 4154 
C 4525 3757 4115 3277 3699 2842 
C 3546 2995 3328 3168 3104 3334 
C 3398 3654 3750 4096 4038 4474 
L 4013 4486 
C 4685 4576 5325 4691 5818 4832 
L 5485 5210 
C 4691 4979 3258 4794 2067 4691 
C 2118 4595 2176 4416 2195 4307 
C 2586 4333 3002 4371 3424 4416 
C 3232 4128 3002 3808 2784 3558 
C 2643 3648 2502 3738 2368 3814 
L 2093 3507 
z
M 1619 5338 
C 1274 4358 704 3386 96 2752 
C 179 2643 314 2394 358 2278 
C 589 2528 819 2829 1030 3149 
L 1030 -512 
L 1498 -512 
L 1498 3942 
C 1715 4352 1901 4774 2061 5203 
L 1619 5338 
z
" transform="scale(0.015625)"/>
      <path id="NotoSansCJKjp-Regular-d" d="M 480 -1216 
C 1056 -973 1414 -493 1414 122 
C 1414 550 1229 806 922 806 
C 685 806 480 653 480 397 
C 480 141 678 -13 909 -13 
L 979 -6 
C 973 -390 736 -698 339 -870 
L 480 -1216 
z
" transform="scale(0.015625)"/>
     </defs>
     <use xlink:href="#NotoSansCJKjp-Regular-3088"/>
     <use xlink:href="#NotoSansCJKjp-Regular-6c33" transform="translate(100 0)"/>
     <use xlink:href="#NotoSansCJKjp-Regular-279f" transform="translate(200 0)"/>
     <use xlink:href="#NotoSansCJKjp-Regular-4e26" transform="translate(300 0)"/>
     <use xlink:href="#NotoSansCJKjp-Regular-1" transform="translate(400 0)"/>
     <use xlink:href="#NotoSansCJKjp-Regular-13" transform="translate(422.40625 0)"/>
     <use xlink:href="#NotoSansCJKjp-Regular-d" transform="translate(477.90625 0)"/>
     <use xlink:href="#NotoSansCJKjp-Regular-1" transform="translate(505.703125 0)"/>
     <use xlink:href="#NotoSansCJKjp-Regular-12" transform="translate(528.109375 0)"/>
     <use xlink:href="#NotoSansCJKjp-Regular-d" transform="translate(583.609375 0)"/>
     <use xlink:href="#NotoSansCJKjp-Regular-1" transform="translate(611.40625 0)"/>
     <use xlink:href="#NotoSansCJKjp-Regular-13" transform="translate(633.8125 0)"/>
    </g>
   </g>
   <g id="text_17">
    <!-- 餘式 9 -->
    <g style="fill: #bf8700" transform="translate(409.61618 217.327414) scale(0.115 -0.115)">
     <defs>
      <path id="NotoSansCJKjp-Regular-ad9e" d="M 4416 4890 
C 4762 4282 5376 3546 5958 3085 
C 6029 3226 6138 3398 6234 3520 
C 5645 3917 5018 4666 4627 5370 
L 4173 5370 
C 3891 4710 3277 3917 2650 3469 
C 2746 3360 2854 3187 2906 3059 
C 3533 3546 4109 4282 4416 4890 
z
M 5101 1453 
C 5370 992 5638 371 5728 -6 
L 6150 154 
C 6048 538 5766 1139 5491 1594 
L 5101 1453 
z
M 2880 2298 
L 2880 1882 
L 4218 1882 
L 4218 6 
C 4218 -70 4192 -96 4115 -96 
C 4038 -102 3795 -102 3514 -96 
C 3578 -211 3642 -390 3667 -512 
C 4058 -512 4307 -506 4461 -435 
C 4621 -358 4672 -237 4672 0 
L 4672 1882 
L 6042 1882 
L 6042 2298 
L 4672 2298 
L 4672 3008 
L 5562 3008 
L 5562 3424 
L 3341 3424 
L 3341 3008 
L 4218 3008 
L 4218 2298 
L 2880 2298 
z
M 640 3501 
L 640 -506 
L 1056 -506 
L 1056 0 
L 2746 0 
L 2746 192 
C 2848 134 2982 45 3046 -6 
C 3328 358 3578 909 3731 1453 
L 3315 1542 
C 3200 1094 3002 640 2746 301 
L 2746 384 
L 1056 384 
L 1056 819 
L 2650 819 
L 2650 1203 
L 1056 1203 
L 1056 1632 
L 2618 1632 
L 2618 3501 
L 640 3501 
z
M 1056 2406 
L 2214 2406 
L 2214 1971 
L 1056 1971 
L 1056 2406 
z
M 1056 2739 
L 1056 3162 
L 2214 3162 
L 2214 2739 
L 1056 2739 
z
M 1344 5376 
C 1126 4883 704 4269 115 3808 
C 218 3750 352 3616 422 3520 
C 666 3718 877 3936 1062 4154 
L 1062 3872 
L 2310 3872 
L 2310 4218 
L 1114 4218 
C 1338 4486 1517 4755 1651 4992 
C 2003 4672 2381 4192 2579 3904 
L 2880 4230 
C 2662 4557 2202 5037 1824 5376 
L 1344 5376 
z
" transform="scale(0.015625)"/>
      <path id="NotoSansCJKjp-Regular-430b" d="M 4538 5062 
C 4870 4832 5267 4486 5459 4256 
L 5792 4557 
C 5600 4781 5190 5107 4864 5331 
L 4538 5062 
z
M 3616 5350 
C 3616 4954 3629 4563 3648 4179 
L 352 4179 
L 352 3712 
L 3680 3712 
C 3846 1331 4384 -525 5434 -525 
C 5926 -525 6106 -198 6189 922 
C 6054 973 5875 1082 5766 1190 
C 5722 333 5651 -26 5472 -26 
C 4838 -26 4339 1542 4179 3712 
L 6061 3712 
L 6061 4179 
L 4154 4179 
C 4134 4557 4128 4947 4128 5350 
L 3616 5350 
z
M 378 154 
L 531 -320 
C 1350 -141 2528 128 3616 384 
L 3578 819 
L 2208 525 
L 2208 2291 
L 3405 2291 
L 3405 2758 
L 576 2758 
L 576 2291 
L 1728 2291 
L 1728 429 
L 378 154 
z
" transform="scale(0.015625)"/>
     </defs>
     <use xlink:href="#NotoSansCJKjp-Regular-ad9e"/>
     <use xlink:href="#NotoSansCJKjp-Regular-430b" transform="translate(100 0)"/>
     <use xlink:href="#NotoSansCJKjp-Regular-1" transform="translate(200 0)"/>
     <use xlink:href="#NotoSansCJKjp-Regular-1a" transform="translate(222.40625 0)"/>
    </g>
   </g>
   <g id="text_18">
    <!-- 綜合除法：2x³-3x²+5 除以 x-2（落、乘、加） -->
    <g style="fill: #222831" transform="translate(136.423203 18.782187) scale(0.13 -0.13)">
     <defs>
      <path id="NotoSansCJKjp-Regular-798c" d="M 3219 3520 
L 3219 3098 
L 5517 3098 
L 5517 3520 
L 3219 3520 
z
M 3168 1581 
C 3014 1082 2765 570 2458 230 
C 2566 166 2752 38 2835 -32 
C 3142 346 3430 915 3603 1478 
L 3168 1581 
z
M 5037 1434 
C 5312 992 5619 390 5747 6 
L 6170 198 
C 6029 576 5715 1158 5427 1600 
L 5037 1434 
z
M 1907 1651 
C 2067 1286 2234 813 2291 506 
L 2656 634 
C 2598 941 2432 1408 2259 1760 
L 1907 1651 
z
M 582 1715 
C 506 1152 378 582 160 192 
C 269 154 454 64 544 6 
C 749 416 909 1037 992 1645 
L 582 1715 
z
M 2765 2413 
L 2765 1971 
L 4102 1971 
L 4102 19 
C 4102 -58 4077 -70 4000 -77 
C 3910 -83 3648 -83 3347 -70 
C 3411 -205 3475 -384 3494 -512 
C 3898 -512 4166 -506 4339 -442 
C 4518 -365 4563 -237 4563 13 
L 4563 1971 
L 6042 1971 
L 6042 2413 
L 2765 2413 
z
M 2669 4646 
L 2669 3539 
L 3110 3539 
L 3110 4230 
L 5594 4230 
L 5594 3539 
L 6048 3539 
L 6048 4646 
L 4550 4646 
L 4550 5376 
L 4070 5376 
L 4070 4646 
L 2669 4646 
z
M 218 2509 
L 262 2074 
L 1267 2138 
L 1267 -525 
L 1696 -525 
L 1696 2163 
L 2202 2195 
C 2259 2054 2298 1926 2323 1818 
L 2688 1978 
C 2598 2330 2342 2880 2080 3296 
L 1741 3155 
C 1850 2982 1952 2778 2042 2579 
L 1088 2541 
C 1523 3104 2010 3853 2374 4461 
L 1971 4646 
C 1798 4301 1568 3891 1312 3494 
C 1216 3622 1082 3770 941 3917 
C 1178 4269 1453 4781 1670 5203 
L 1248 5376 
C 1114 5018 883 4538 678 4179 
L 486 4346 
L 243 4026 
C 538 3763 870 3398 1069 3117 
C 928 2899 781 2694 646 2522 
L 218 2509 
z
" transform="scale(0.015625)"/>
      <path id="NotoSansCJKjp-Regular-2eac" d="M 1587 3283 
L 1587 2854 
L 4819 2854 
L 4819 3283 
L 1587 3283 
z
M 3187 4890 
C 3789 4070 4915 3168 5914 2637 
C 5997 2778 6118 2944 6234 3066 
C 5216 3520 4090 4410 3405 5363 
L 2912 5363 
C 2413 4531 1338 3552 218 2982 
C 320 2880 454 2714 518 2605 
C 1613 3194 2656 4109 3187 4890 
z
M 1254 2048 
L 1254 -518 
L 1728 -518 
L 1728 -250 
L 4685 -250 
L 4685 -518 
L 5171 -518 
L 5171 2048 
L 1254 2048 
z
M 1728 179 
L 1728 1613 
L 4685 1613 
L 4685 179 
L 1728 179 
z
" transform="scale(0.015625)"/>
      <path id="NotoSansCJKjp-Regular-5ace" d="M 589 4979 
C 1030 4800 1574 4499 1837 4275 
L 2118 4672 
C 1843 4896 1293 5171 851 5331 
L 589 4979 
z
M 250 3213 
C 691 3059 1242 2784 1517 2579 
L 1779 2989 
C 1491 3194 934 3443 493 3578 
L 250 3213 
z
M 467 -115 
L 883 -435 
C 1242 166 1664 960 1984 1638 
L 1626 1946 
C 1280 1222 800 378 467 -115 
z
M 4550 1363 
C 4781 1088 5018 768 5222 448 
L 3027 320 
C 3309 877 3616 1606 3846 2227 
L 6080 2227 
L 6080 2688 
L 4250 2688 
L 4250 3872 
L 5779 3872 
L 5779 4326 
L 4250 4326 
L 4250 5376 
L 3763 5376 
L 3763 4326 
L 2291 4326 
L 2291 3872 
L 3763 3872 
L 3763 2688 
L 1971 2688 
L 1971 2227 
L 3283 2227 
C 3091 1613 2784 838 2515 294 
L 1978 269 
L 2042 -218 
C 2938 -160 4230 -70 5472 26 
C 5587 -173 5677 -365 5741 -525 
L 6189 -275 
C 5978 243 5446 1011 4966 1581 
L 4550 1363 
z
" transform="scale(0.015625)"/>
      <path id="NotoSansCJKjp-Regular-59" d="M 96 0 
L 710 0 
L 1178 813 
C 1299 1024 1408 1235 1530 1434 
L 1562 1434 
C 1696 1235 1824 1024 1939 813 
L 2451 0 
L 3091 0 
L 1946 1754 
L 3002 3475 
L 2394 3475 
L 1965 2714 
C 1856 2515 1760 2330 1658 2131 
L 1626 2131 
C 1510 2330 1389 2515 1286 2714 
L 819 3475 
L 186 3475 
L 1242 1811 
L 96 0 
z
" transform="scale(0.015625)"/>
      <path id="NotoSansCJKjp-Regular-71" d="M 1286 2739 
C 1830 2739 2278 3059 2278 3578 
C 2278 3942 1997 4179 1677 4269 
C 1965 4397 2170 4621 2170 4954 
C 2170 5414 1766 5702 1274 5702 
C 890 5702 602 5517 371 5242 
L 646 4998 
C 800 5197 1005 5338 1210 5338 
C 1517 5338 1715 5158 1715 4890 
C 1715 4608 1434 4390 954 4390 
L 954 4096 
C 1510 4096 1824 3930 1824 3597 
C 1824 3283 1574 3104 1267 3104 
C 973 3104 730 3258 557 3514 
L 256 3283 
C 467 2970 838 2739 1286 2739 
z
" transform="scale(0.015625)"/>
      <path id="NotoSansCJKjp-Regular-f6b4" d="M 1683 -83 
C 2522 -83 3194 403 3194 1216 
C 3194 1843 2752 2246 2202 2381 
L 2202 2406 
C 2694 2586 3034 2938 3034 3494 
C 3034 4224 2458 4646 1664 4646 
C 1126 4646 710 4403 358 4077 
L 672 3706 
C 941 3981 1267 4173 1645 4173 
C 2138 4173 2438 3891 2438 3450 
C 2438 2970 2112 2598 1139 2598 
L 1139 2144 
C 2227 2144 2598 1786 2598 1242 
C 2598 723 2208 403 1645 403 
C 1114 403 762 659 486 941 
L 186 563 
C 493 224 954 -83 1683 -83 
z
" transform="scale(0.015625)"/>
      <path id="NotoSansCJKjp-Regular-70" d="M 378 2822 
L 2291 2822 
L 2291 3213 
L 1107 3213 
C 1702 3821 2144 4262 2144 4794 
C 2144 5389 1773 5702 1216 5702 
C 838 5702 499 5478 288 5158 
L 557 4909 
C 710 5139 922 5318 1158 5318 
C 1491 5318 1696 5088 1696 4730 
C 1696 4307 1242 3866 378 3085 
L 378 2822 
z
" transform="scale(0.015625)"/>
      <path id="NotoSansCJKjp-Regular-c" d="M 1542 742 
L 2010 742 
L 2010 2144 
L 3315 2144 
L 3315 2579 
L 2010 2579 
L 2010 3981 
L 1542 3981 
L 1542 2579 
L 243 2579 
L 243 2144 
L 1542 2144 
L 1542 742 
z
" transform="scale(0.015625)"/>
      <path id="NotoSansCJKjp-Regular-f6b6" d="M 1677 -83 
C 2464 -83 3213 474 3213 1459 
C 3213 2445 2573 2886 1798 2886 
C 1517 2886 1306 2822 1094 2701 
L 1216 4058 
L 2982 4058 
L 2982 4563 
L 704 4563 
L 550 2368 
L 864 2170 
C 1133 2349 1331 2451 1645 2451 
C 2234 2451 2618 2074 2618 1440 
C 2618 806 2176 403 1619 403 
C 1075 403 730 653 467 922 
L 173 538 
C 493 224 941 -83 1677 -83 
z
" transform="scale(0.015625)"/>
      <path id="NotoSansCJKjp-Regular-f6b3" d="M 282 0 
L 3232 0 
L 3232 506 
L 1907 506 
C 1670 506 1382 480 1139 461 
C 2221 1594 3008 2451 3008 3309 
C 3008 4115 2477 4646 1638 4646 
C 1043 4646 634 4378 256 3955 
L 595 3629 
C 858 3930 1184 4173 1568 4173 
C 2150 4173 2432 3802 2432 3283 
C 2432 2534 1658 1715 282 346 
L 282 0 
z
" transform="scale(0.015625)"/>
      <path id="NotoSansCJKjp-Regular-86fd" d="M 397 -115 
L 742 -486 
C 1139 -13 1600 614 1965 1152 
L 1670 1491 
C 1267 915 749 269 397 -115 
z
M 698 3706 
C 1056 3520 1542 3219 1779 3027 
L 2067 3392 
C 1824 3584 1331 3859 973 4032 
L 698 3706 
z
M 262 2464 
C 646 2291 1120 2003 1357 1805 
L 1645 2170 
C 1408 2374 915 2643 544 2797 
L 262 2464 
z
M 3328 4166 
C 3053 3686 2547 3078 1882 2637 
C 1990 2573 2138 2438 2221 2342 
C 2483 2534 2720 2746 2931 2963 
C 3162 2739 3437 2515 3738 2317 
C 3162 2003 2509 1766 1907 1632 
C 1997 1536 2106 1357 2150 1235 
L 2579 1363 
L 2579 -512 
L 3034 -512 
L 3034 -237 
L 5062 -237 
L 5062 -512 
L 5536 -512 
L 5536 1402 
L 2701 1402 
C 3194 1568 3686 1786 4147 2061 
C 4717 1722 5344 1453 5933 1286 
C 6003 1402 6131 1581 6234 1683 
C 5677 1824 5088 2048 4550 2323 
C 5024 2656 5427 3059 5702 3520 
L 5402 3706 
L 5318 3686 
L 3539 3686 
C 3635 3814 3725 3942 3802 4070 
L 3328 4166 
z
M 3034 147 
L 3034 1018 
L 5062 1018 
L 5062 147 
L 3034 147 
z
M 5018 3309 
C 4787 3034 4486 2778 4141 2554 
C 3776 2771 3450 3021 3213 3270 
L 3245 3309 
L 5018 3309 
z
M 390 4928 
L 390 4499 
L 1843 4499 
L 1843 3955 
L 2310 3955 
L 2310 4499 
L 4051 4499 
L 4051 3955 
L 4518 3955 
L 4518 4499 
L 6022 4499 
L 6022 4928 
L 4518 4928 
L 4518 5376 
L 4051 5376 
L 4051 4928 
L 2310 4928 
L 2310 5376 
L 1843 5376 
L 1843 4928 
L 390 4928 
z
" transform="scale(0.015625)"/>
      <path id="NotoSansCJKjp-Regular-575" d="M 1747 -358 
L 2182 13 
C 1786 480 1210 1062 749 1434 
L 333 1069 
C 787 698 1338 147 1747 -358 
z
" transform="scale(0.015625)"/>
     </defs>
     <use xlink:href="#NotoSansCJKjp-Regular-798c"/>
     <use xlink:href="#NotoSansCJKjp-Regular-2eac" transform="translate(100 0)"/>
     <use xlink:href="#NotoSansCJKjp-Regular-a89c" transform="translate(200 0)"/>
     <use xlink:href="#NotoSansCJKjp-Regular-5ace" transform="translate(300 0)"/>
     <use xlink:href="#NotoSansCJKjp-Regular-e6c0" transform="translate(400 0)"/>
     <use xlink:href="#NotoSansCJKjp-Regular-13" transform="translate(500 0)"/>
     <use xlink:href="#NotoSansCJKjp-Regular-59" transform="translate(555.5 0)"/>
     <use xlink:href="#NotoSansCJKjp-Regular-71" transform="translate(605.296875 0)"/>
     <use xlink:href="#NotoSansCJKjp-Regular-e" transform="translate(646.390625 0)"/>
     <use xlink:href="#NotoSansCJKjp-Regular-f6b4" transform="translate(681.09375 0)"/>
     <use xlink:href="#NotoSansCJKjp-Regular-59" transform="translate(736.59375 0)"/>
     <use xlink:href="#NotoSansCJKjp-Regular-70" transform="translate(786.390625 0)"/>
     <use xlink:href="#NotoSansCJKjp-Regular-c" transform="translate(827.484375 0)"/>
     <use xlink:href="#NotoSansCJKjp-Regular-f6b6" transform="translate(882.984375 0)"/>
     <use xlink:href="#NotoSansCJKjp-Regular-1" transform="translate(938.484375 0)"/>
     <use xlink:href="#NotoSansCJKjp-Regular-a89c" transform="translate(960.890625 0)"/>
     <use xlink:href="#NotoSansCJKjp-Regular-2653" transform="translate(1060.890625 0)"/>
     <use xlink:href="#NotoSansCJKjp-Regular-1" transform="translate(1160.890625 0)"/>
     <use xlink:href="#NotoSansCJKjp-Regular-59" transform="translate(1183.296875 0)"/>
     <use xlink:href="#NotoSansCJKjp-Regular-e" transform="translate(1231.59375 0)"/>
     <use xlink:href="#NotoSansCJKjp-Regular-f6b3" transform="translate(1266.296875 0)"/>
     <use xlink:href="#NotoSansCJKjp-Regular-e6ae" transform="translate(1321.796875 0)"/>
     <use xlink:href="#NotoSansCJKjp-Regular-86fd" transform="translate(1421.796875 0)"/>
     <use xlink:href="#NotoSansCJKjp-Regular-575" transform="translate(1521.796875 0)"/>
     <use xlink:href="#NotoSansCJKjp-Regular-257f" transform="translate(1621.796875 0)"/>
     <use xlink:href="#NotoSansCJKjp-Regular-575" transform="translate(1721.796875 0)"/>
     <use xlink:href="#NotoSansCJKjp-Regular-2c76" transform="translate(1821.796875 0)"/>
     <use xlink:href="#NotoSansCJKjp-Regular-e6af" transform="translate(1921.796875 0)"/>
    </g>
   </g>
   <g id="patch_3">
    <path d="M 137.52 93.242712 
Q 137.52 129.306739 137.52 163.358304 
" clip-path="url(#pb4c5bfbd0c)" style="fill: none; stroke: #222831; stroke-width: 1.8; stroke-linecap: round"/>
    <path d="M 141.12 156.158304 
L 137.52 163.358304 
L 133.92 156.158304 
z
" clip-path="url(#pb4c5bfbd0c)" style="fill: #222831; stroke: #222831; stroke-width: 1.8; stroke-linecap: round"/>
   </g>
   <g id="patch_4">
    <path d="M 156.725053 172.705822 
Q 185.532632 156.201945 212.788035 140.587311 
" clip-path="url(#pb4c5bfbd0c)" style="fill: none; stroke: #1a7f37; stroke-width: 1.6; stroke-linecap: round"/>
    <path d="M 204.751084 141.042748 
L 212.788035 140.587311 
L 208.330215 147.290134 
z
" clip-path="url(#pb4c5bfbd0c)" style="fill: #1a7f37; stroke: #1a7f37; stroke-width: 1.6; stroke-linecap: round"/>
   </g>
   <g id="patch_5">
    <path d="M 252.750316 172.705822 
Q 281.557895 156.201945 308.813298 140.587311 
" clip-path="url(#pb4c5bfbd0c)" style="fill: none; stroke: #1a7f37; stroke-width: 1.6; stroke-linecap: round"/>
    <path d="M 300.776348 141.042748 
L 308.813298 140.587311 
L 304.355478 147.290134 
z
" clip-path="url(#pb4c5bfbd0c)" style="fill: #1a7f37; stroke: #1a7f37; stroke-width: 1.6; stroke-linecap: round"/>
   </g>
   <g id="patch_6">
    <path d="M 348.775579 172.705822 
Q 377.583158 156.201945 404.838561 140.587311 
" clip-path="url(#pb4c5bfbd0c)" style="fill: none; stroke: #1a7f37; stroke-width: 1.6; stroke-linecap: round"/>
    <path d="M 396.801611 141.042748 
L 404.838561 140.587311 
L 400.380741 147.290134 
z
" clip-path="url(#pb4c5bfbd0c)" style="fill: #1a7f37; stroke: #1a7f37; stroke-width: 1.6; stroke-linecap: round"/>
   </g>
   <g id="patch_7">
    <path d="M 233.545263 110.357844 
Q 233.545263 137.864305 233.545263 163.581911 
" clip-path="url(#pb4c5bfbd0c)" style="fill: none; stroke: #222831; stroke-width: 1.6; stroke-linecap: round"/>
    <path d="M 237.145263 156.381911 
L 233.545263 163.581911 
L 229.945263 156.381911 
z
" clip-path="url(#pb4c5bfbd0c)" style="fill: #222831; stroke: #222831; stroke-width: 1.6; stroke-linecap: round"/>
   </g>
   <g id="patch_8">
    <path d="M 329.570526 110.357844 
Q 329.570526 137.864305 329.570526 163.581911 
" clip-path="url(#pb4c5bfbd0c)" style="fill: none; stroke: #222831; stroke-width: 1.6; stroke-linecap: round"/>
    <path d="M 333.170526 156.381911 
L 329.570526 163.581911 
L 325.970526 156.381911 
z
" clip-path="url(#pb4c5bfbd0c)" style="fill: #222831; stroke: #222831; stroke-width: 1.6; stroke-linecap: round"/>
   </g>
   <g id="patch_9">
    <path d="M 425.595789 110.357844 
Q 425.595789 137.864305 425.595789 163.581911 
" clip-path="url(#pb4c5bfbd0c)" style="fill: none; stroke: #222831; stroke-width: 1.6; stroke-linecap: round"/>
    <path d="M 429.195789 156.381911 
L 425.595789 163.581911 
L 421.995789 156.381911 
z
" clip-path="url(#pb4c5bfbd0c)" style="fill: #222831; stroke: #222831; stroke-width: 1.6; stroke-linecap: round"/>
   </g>
  </g>
 </g>
 <defs>
  <clipPath id="pb4c5bfbd0c">
   <rect x="7.2" y="24.782187" width="521.28" height="244.501875"/>
  </clipPath>
 </defs>
</svg>
