<?xml version="1.0" encoding="utf-8" standalone="no"?>
<!DOCTYPE svg PUBLIC "-//W3C//DTD SVG 1.1//EN"
  "http://www.w3.org/Graphics/SVG/1.1/DTD/svg11.dtd">
<svg xmlns:xlink="http://www.w3.org/1999/xlink" width="463.8pt" height="362.32pt" viewBox="0 0 463.8 362.32" xmlns="http://www.w3.org/2000/svg" version="1.1">
 <metadata>
  <rdf:RDF xmlns:dc="http://purl.org/dc/elements/1.1/" xmlns:cc="http://creativecommons.org/ns#" xmlns:rdf="http://www.w3.org/1999/02/22-rdf-syntax-ns#">
   <cc:Work>
    <dc:type rdf:resource="http://purl.org/dc/dcmitype/StillImage"/>
    <dc:date>2026-06-18T00:33:33.496776</dc:date>
    <dc:format>image/svg+xml</dc:format>
    <dc:creator>
     <cc:Agent>
      <dc:title>Matplotlib v3.11.0, https://matplotlib.org/</dc:title>
     </cc:Agent>
    </dc:creator>
   </cc:Work>
  </rdf:RDF>
 </metadata>
 <defs>
  <style type="text/css">*{stroke-linejoin: round; stroke-linecap: butt}</style>
 </defs>
 <g id="figure_1">
  <g id="patch_1">
   <path d="M 0 362.32 
L 463.8 362.32 
L 463.8 0 
L 0 0 
z
" style="fill: #ffffff"/>
  </g>
  <g id="axes_1">
   <g id="patch_2">
    <path d="M 27.52 336.12 
L 456.6 336.12 
L 456.6 24.64 
L 27.52 24.64 
z
" style="fill: #ffffff"/>
   </g>
   <g id="matplotlib.axis_1">
    <g id="xtick_1">
     <g id="line2d_1">
      <path d="M 35.771538 336.12 
L 35.771538 24.64 
" clip-path="url(#p33e3ae6966)" style="fill: none; stroke: #d8dde3; stroke-width: 0.8; stroke-linecap: square"/>
     </g>
     <g id="line2d_2">
      <defs>
       <path id="mefd7c6bf47" d="M 0 0 
L 0 3.5 
" style="stroke: #222831; stroke-width: 0.8"/>
      </defs>
      <g>
       <use xlink:href="#mefd7c6bf47" x="35.771538" y="336.12" style="fill: #222831; stroke: #222831; stroke-width: 0.8"/>
      </g>
     </g>
     <g id="text_1">
      <!-- -4 -->
      <g style="fill: #222831" transform="translate(30.359351 353.68) scale(0.12 -0.12)">
       <defs>
        <path id="NotoSansCJKjp-Regular-e" d="M 294 1568 
L 1933 1568 
L 1933 2016 
L 294 2016 
L 294 1568 
z
" transform="scale(0.015625)"/>
        <path id="NotoSansCJKjp-Regular-15" d="M 2176 0 
L 2726 0 
L 2726 1293 
L 3354 1293 
L 3354 1760 
L 2726 1760 
L 2726 4691 
L 2080 4691 
L 128 1677 
L 128 1293 
L 2176 1293 
L 2176 0 
z
M 2176 1760 
L 736 1760 
L 1805 3360 
C 1939 3590 2067 3827 2182 4051 
L 2208 4051 
C 2195 3814 2176 3430 2176 3200 
L 2176 1760 
z
" transform="scale(0.015625)"/>
       </defs>
       <use xlink:href="#NotoSansCJKjp-Regular-e"/>
       <use xlink:href="#NotoSansCJKjp-Regular-15" transform="translate(34.703125 0)"/>
      </g>
     </g>
    </g>
    <g id="xtick_2">
     <g id="line2d_3">
      <path d="M 118.286923 336.12 
L 118.286923 24.64 
" clip-path="url(#p33e3ae6966)" style="fill: none; stroke: #d8dde3; stroke-width: 0.8; stroke-linecap: square"/>
     </g>
     <g id="line2d_4">
      <g>
       <use xlink:href="#mefd7c6bf47" x="118.286923" y="336.12" style="fill: #222831; stroke: #222831; stroke-width: 0.8"/>
      </g>
     </g>
     <g id="text_2">
      <!-- -2 -->
      <g style="fill: #222831" transform="translate(112.874736 353.68) scale(0.12 -0.12)">
       <defs>
        <path id="NotoSansCJKjp-Regular-13" d="M 282 0 
L 3232 0 
L 3232 506 
L 1933 506 
C 1696 506 1408 480 1165 461 
C 2266 1504 3008 2458 3008 3398 
C 3008 4230 2477 4774 1638 4774 
C 1043 4774 634 4506 256 4090 
L 595 3757 
C 858 4070 1184 4301 1568 4301 
C 2150 4301 2432 3910 2432 3373 
C 2432 2566 1754 1632 282 346 
L 282 0 
z
" transform="scale(0.015625)"/>
       </defs>
       <use xlink:href="#NotoSansCJKjp-Regular-e"/>
       <use xlink:href="#NotoSansCJKjp-Regular-13" transform="translate(34.703125 0)"/>
      </g>
     </g>
    </g>
    <g id="xtick_3">
     <g id="line2d_5">
      <path d="M 200.802308 336.12 
L 200.802308 24.64 
" clip-path="url(#p33e3ae6966)" style="fill: none; stroke: #d8dde3; stroke-width: 0.8; stroke-linecap: square"/>
     </g>
     <g id="line2d_6">
      <g>
       <use xlink:href="#mefd7c6bf47" x="200.802308" y="336.12" style="fill: #222831; stroke: #222831; stroke-width: 0.8"/>
      </g>
     </g>
     <g id="text_3">
      <!-- 0 -->
      <g style="fill: #222831" transform="translate(197.472308 353.68) scale(0.12 -0.12)">
       <defs>
        <path id="NotoSansCJKjp-Regular-11" d="M 1779 -83 
C 2669 -83 3238 723 3238 2362 
C 3238 3987 2669 4774 1779 4774 
C 883 4774 320 3987 320 2362 
C 320 723 883 -83 1779 -83 
z
M 1779 390 
C 1248 390 883 986 883 2362 
C 883 3731 1248 4314 1779 4314 
C 2310 4314 2675 3731 2675 2362 
C 2675 986 2310 390 1779 390 
z
" transform="scale(0.015625)"/>
       </defs>
       <use xlink:href="#NotoSansCJKjp-Regular-11"/>
      </g>
     </g>
    </g>
    <g id="xtick_4">
     <g id="line2d_7">
      <path d="M 283.317692 336.12 
L 283.317692 24.64 
" clip-path="url(#p33e3ae6966)" style="fill: none; stroke: #d8dde3; stroke-width: 0.8; stroke-linecap: square"/>
     </g>
     <g id="line2d_8">
      <g>
       <use xlink:href="#mefd7c6bf47" x="283.317692" y="336.12" style="fill: #222831; stroke: #222831; stroke-width: 0.8"/>
      </g>
     </g>
     <g id="text_4">
      <!-- 2 -->
      <g style="fill: #222831" transform="translate(279.987692 353.68) scale(0.12 -0.12)">
       <use xlink:href="#NotoSansCJKjp-Regular-13"/>
      </g>
     </g>
    </g>
    <g id="xtick_5">
     <g id="line2d_9">
      <path d="M 365.833077 336.12 
L 365.833077 24.64 
" clip-path="url(#p33e3ae6966)" style="fill: none; stroke: #d8dde3; stroke-width: 0.8; stroke-linecap: square"/>
     </g>
     <g id="line2d_10">
      <g>
       <use xlink:href="#mefd7c6bf47" x="365.833077" y="336.12" style="fill: #222831; stroke: #222831; stroke-width: 0.8"/>
      </g>
     </g>
     <g id="text_5">
      <!-- 4 -->
      <g style="fill: #222831" transform="translate(362.503077 353.68) scale(0.12 -0.12)">
       <use xlink:href="#NotoSansCJKjp-Regular-15"/>
      </g>
     </g>
    </g>
    <g id="xtick_6">
     <g id="line2d_11">
      <path d="M 448.348462 336.12 
L 448.348462 24.64 
" clip-path="url(#p33e3ae6966)" style="fill: none; stroke: #d8dde3; stroke-width: 0.8; stroke-linecap: square"/>
     </g>
     <g id="line2d_12">
      <g>
       <use xlink:href="#mefd7c6bf47" x="448.348462" y="336.12" style="fill: #222831; stroke: #222831; stroke-width: 0.8"/>
      </g>
     </g>
     <g id="text_6">
      <!-- 6 -->
      <g style="fill: #222831" transform="translate(445.018462 353.68) scale(0.12 -0.12)">
       <defs>
        <path id="NotoSansCJKjp-Regular-17" d="M 1926 -83 
C 2656 -83 3277 531 3277 1440 
C 3277 2426 2765 2912 1971 2912 
C 1606 2912 1197 2701 909 2349 
C 934 3802 1466 4294 2118 4294 
C 2400 4294 2682 4154 2861 3936 
L 3194 4294 
C 2931 4576 2579 4774 2093 4774 
C 1184 4774 358 4077 358 2240 
C 358 691 1030 -83 1926 -83 
z
M 922 1882 
C 1229 2317 1587 2477 1875 2477 
C 2445 2477 2720 2074 2720 1440 
C 2720 800 2374 378 1926 378 
C 1338 378 986 909 922 1882 
z
" transform="scale(0.015625)"/>
       </defs>
       <use xlink:href="#NotoSansCJKjp-Regular-17"/>
      </g>
     </g>
    </g>
   </g>
   <g id="matplotlib.axis_2">
    <g id="ytick_1">
     <g id="line2d_13">
      <path d="M 27.52 331.732958 
L 456.6 331.732958 
" clip-path="url(#p33e3ae6966)" style="fill: none; stroke: #d8dde3; stroke-width: 0.8; stroke-linecap: square"/>
     </g>
     <g id="line2d_14">
      <defs>
       <path id="m7004354bb9" d="M 0 0 
L -3.5 0 
" style="stroke: #222831; stroke-width: 0.8"/>
      </defs>
      <g>
       <use xlink:href="#m7004354bb9" x="27.52" y="331.732958" style="fill: #222831; stroke: #222831; stroke-width: 0.8"/>
      </g>
     </g>
     <g id="text_7">
      <!-- -4 -->
      <g style="fill: #222831" transform="translate(9.695625 337.012958) scale(0.12 -0.12)">
       <use xlink:href="#NotoSansCJKjp-Regular-e"/>
       <use xlink:href="#NotoSansCJKjp-Regular-15" transform="translate(34.703125 0)"/>
      </g>
     </g>
    </g>
    <g id="ytick_2">
     <g id="line2d_15">
      <path d="M 27.52 287.862535 
L 456.6 287.862535 
" clip-path="url(#p33e3ae6966)" style="fill: none; stroke: #d8dde3; stroke-width: 0.8; stroke-linecap: square"/>
     </g>
     <g id="line2d_16">
      <g>
       <use xlink:href="#m7004354bb9" x="27.52" y="287.862535" style="fill: #222831; stroke: #222831; stroke-width: 0.8"/>
      </g>
     </g>
     <g id="text_8">
      <!-- -2 -->
      <g style="fill: #222831" transform="translate(9.695625 293.142535) scale(0.12 -0.12)">
       <use xlink:href="#NotoSansCJKjp-Regular-e"/>
       <use xlink:href="#NotoSansCJKjp-Regular-13" transform="translate(34.703125 0)"/>
      </g>
     </g>
    </g>
    <g id="ytick_3">
     <g id="line2d_17">
      <path d="M 27.52 243.992113 
L 456.6 243.992113 
" clip-path="url(#p33e3ae6966)" style="fill: none; stroke: #d8dde3; stroke-width: 0.8; stroke-linecap: square"/>
     </g>
     <g id="line2d_18">
      <g>
       <use xlink:href="#m7004354bb9" x="27.52" y="243.992113" style="fill: #222831; stroke: #222831; stroke-width: 0.8"/>
      </g>
     </g>
     <g id="text_9">
      <!-- 0 -->
      <g style="fill: #222831" transform="translate(13.86 249.272113) scale(0.12 -0.12)">
       <use xlink:href="#NotoSansCJKjp-Regular-11"/>
      </g>
     </g>
    </g>
    <g id="ytick_4">
     <g id="line2d_19">
      <path d="M 27.52 200.12169 
L 456.6 200.12169 
" clip-path="url(#p33e3ae6966)" style="fill: none; stroke: #d8dde3; stroke-width: 0.8; stroke-linecap: square"/>
     </g>
     <g id="line2d_20">
      <g>
       <use xlink:href="#m7004354bb9" x="27.52" y="200.12169" style="fill: #222831; stroke: #222831; stroke-width: 0.8"/>
      </g>
     </g>
     <g id="text_10">
      <!-- 2 -->
      <g style="fill: #222831" transform="translate(13.86 205.40169) scale(0.12 -0.12)">
       <use xlink:href="#NotoSansCJKjp-Regular-13"/>
      </g>
     </g>
    </g>
    <g id="ytick_5">
     <g id="line2d_21">
      <path d="M 27.52 156.251268 
L 456.6 156.251268 
" clip-path="url(#p33e3ae6966)" style="fill: none; stroke: #d8dde3; stroke-width: 0.8; stroke-linecap: square"/>
     </g>
     <g id="line2d_22">
      <g>
       <use xlink:href="#m7004354bb9" x="27.52" y="156.251268" style="fill: #222831; stroke: #222831; stroke-width: 0.8"/>
      </g>
     </g>
     <g id="text_11">
      <!-- 4 -->
      <g style="fill: #222831" transform="translate(13.86 161.531268) scale(0.12 -0.12)">
       <use xlink:href="#NotoSansCJKjp-Regular-15"/>
      </g>
     </g>
    </g>
    <g id="ytick_6">
     <g id="line2d_23">
      <path d="M 27.52 112.380845 
L 456.6 112.380845 
" clip-path="url(#p33e3ae6966)" style="fill: none; stroke: #d8dde3; stroke-width: 0.8; stroke-linecap: square"/>
     </g>
     <g id="line2d_24">
      <g>
       <use xlink:href="#m7004354bb9" x="27.52" y="112.380845" style="fill: #222831; stroke: #222831; stroke-width: 0.8"/>
      </g>
     </g>
     <g id="text_12">
      <!-- 6 -->
      <g style="fill: #222831" transform="translate(13.86 117.660845) scale(0.12 -0.12)">
       <use xlink:href="#NotoSansCJKjp-Regular-17"/>
      </g>
     </g>
    </g>
    <g id="ytick_7">
     <g id="line2d_25">
      <path d="M 27.52 68.510423 
L 456.6 68.510423 
" clip-path="url(#p33e3ae6966)" style="fill: none; stroke: #d8dde3; stroke-width: 0.8; stroke-linecap: square"/>
     </g>
     <g id="line2d_26">
      <g>
       <use xlink:href="#m7004354bb9" x="27.52" y="68.510423" style="fill: #222831; stroke: #222831; stroke-width: 0.8"/>
      </g>
     </g>
     <g id="text_13">
      <!-- 8 -->
      <g style="fill: #222831" transform="translate(13.86 73.790423) scale(0.12 -0.12)">
       <defs>
        <path id="NotoSansCJKjp-Regular-19" d="M 1792 -83 
C 2669 -83 3258 448 3258 1126 
C 3258 1773 2880 2125 2470 2362 
L 2470 2394 
C 2746 2611 3091 3034 3091 3526 
C 3091 4250 2605 4762 1805 4762 
C 1075 4762 518 4282 518 3571 
C 518 3078 813 2726 1152 2490 
L 1152 2464 
C 723 2234 294 1792 294 1165 
C 294 442 922 -83 1792 -83 
z
M 2112 2547 
C 1555 2765 1050 3014 1050 3571 
C 1050 4026 1363 4326 1798 4326 
C 2298 4326 2592 3962 2592 3494 
C 2592 3149 2426 2829 2112 2547 
z
M 1798 352 
C 1235 352 813 717 813 1216 
C 813 1664 1082 2035 1459 2278 
C 2125 2010 2701 1779 2701 1146 
C 2701 678 2342 352 1798 352 
z
" transform="scale(0.015625)"/>
       </defs>
       <use xlink:href="#NotoSansCJKjp-Regular-19"/>
      </g>
     </g>
    </g>
    <g id="ytick_8">
     <g id="line2d_27">
      <path d="M 27.52 24.64 
L 456.6 24.64 
" clip-path="url(#p33e3ae6966)" style="fill: none; stroke: #d8dde3; stroke-width: 0.8; stroke-linecap: square"/>
     </g>
     <g id="line2d_28">
      <g>
       <use xlink:href="#m7004354bb9" x="27.52" y="24.64" style="fill: #222831; stroke: #222831; stroke-width: 0.8"/>
      </g>
     </g>
     <g id="text_14">
      <!-- 10 -->
      <g style="fill: #222831" transform="translate(7.2 29.92) scale(0.12 -0.12)">
       <defs>
        <path id="NotoSansCJKjp-Regular-12" d="M 563 0 
L 3136 0 
L 3136 486 
L 2195 486 
L 2195 4691 
L 1747 4691 
C 1491 4544 1190 4435 774 4358 
L 774 3987 
L 1613 3987 
L 1613 486 
L 563 486 
L 563 0 
z
" transform="scale(0.015625)"/>
       </defs>
       <use xlink:href="#NotoSansCJKjp-Regular-12"/>
       <use xlink:href="#NotoSansCJKjp-Regular-11" transform="translate(55.5 0)"/>
      </g>
     </g>
    </g>
   </g>
   <g id="line2d_29">
    <path d="M 27.52 243.992113 
L 456.6 243.992113 
" clip-path="url(#p33e3ae6966)" style="fill: none; stroke: #222831; stroke-width: 1.3; stroke-linecap: square"/>
   </g>
   <g id="line2d_30">
    <path d="M 200.802308 336.12 
L 200.802308 24.64 
" clip-path="url(#p33e3ae6966)" style="fill: none; stroke: #222831; stroke-width: 1.3; stroke-linecap: square"/>
   </g>
   <g id="line2d_31">
    <path d="M 62.919829 -1 
L 67.309373 14.351596 
L 72.686316 32.478344 
L 78.063258 49.859961 
L 83.440201 66.496447 
L 88.817143 82.387801 
L 94.194085 97.534024 
L 99.571028 111.935117 
L 104.94797 125.591078 
L 109.249524 135.979352 
L 113.551078 145.890743 
L 117.852632 155.325249 
L 122.154185 164.282872 
L 126.455739 172.763611 
L 130.757293 180.767465 
L 135.058847 188.294436 
L 139.360401 195.344523 
L 143.661955 201.917726 
L 147.963509 208.014045 
L 152.265063 213.63348 
L 155.491228 217.535102 
L 158.717393 221.168476 
L 161.943559 224.533603 
L 165.169724 227.630482 
L 168.39589 230.459115 
L 171.622055 233.0195 
L 174.848221 235.311638 
L 178.074386 237.335529 
L 181.300551 239.091172 
L 184.526717 240.578569 
L 187.752882 241.797718 
L 190.979048 242.74862 
L 194.205213 243.431275 
L 197.431378 243.845682 
L 200.657544 243.991843 
L 203.883709 243.869756 
L 207.109875 243.479422 
L 210.33604 242.82084 
L 213.562206 241.894012 
L 216.788371 240.698936 
L 220.014536 239.235613 
L 223.240702 237.504043 
L 226.466867 235.504226 
L 229.693033 233.236161 
L 232.919198 230.699849 
L 236.145363 227.89529 
L 239.371529 224.822484 
L 242.597694 221.481431 
L 245.82386 217.87213 
L 249.050025 213.994582 
L 252.27619 209.848787 
L 256.577744 203.903787 
L 260.879298 197.481903 
L 265.180852 190.583135 
L 269.482406 183.207483 
L 273.78396 175.354947 
L 278.085514 167.025528 
L 282.387068 158.219224 
L 286.688622 148.936036 
L 290.990175 139.175965 
L 295.291729 128.939009 
L 299.593283 118.22517 
L 304.970226 104.162253 
L 310.347168 89.354204 
L 315.72411 73.801024 
L 321.101053 57.502714 
L 326.477995 40.459272 
L 331.854937 22.670699 
L 337.23188 4.136995 
L 338.684146 -1 
L 338.684146 -1 
" clip-path="url(#p33e3ae6966)" style="fill: none; stroke-dasharray: 7.4,3.2; stroke-dashoffset: 0; stroke: #9aa4b2; stroke-width: 2"/>
   </g>
   <g id="line2d_32">
    <path d="M 128.01808 -1 
L 133.983459 22.421604 
L 139.360401 42.743622 
L 144.737343 62.32051 
L 150.114286 81.152267 
L 155.491228 99.238892 
L 160.86817 116.580387 
L 166.245113 133.17675 
L 171.622055 149.027982 
L 176.998997 164.134083 
L 182.37594 178.495052 
L 187.752882 192.110891 
L 192.054436 202.467068 
L 196.35599 212.34636 
L 200.657544 221.748769 
L 204.959098 230.674293 
L 209.260652 239.122934 
L 213.562206 247.094691 
L 217.863759 254.589564 
L 222.165313 261.607553 
L 226.466867 268.148658 
L 230.768421 274.212879 
L 235.069975 279.800216 
L 238.29614 283.677764 
L 241.522306 287.287065 
L 244.748471 290.628118 
L 247.974637 293.700924 
L 251.200802 296.505483 
L 254.426967 299.041795 
L 257.653133 301.30986 
L 260.879298 303.309677 
L 264.105464 305.041247 
L 267.331629 306.50457 
L 270.557794 307.699646 
L 273.78396 308.626474 
L 277.010125 309.285055 
L 280.236291 309.67539 
L 283.462456 309.797476 
L 286.688622 309.651316 
L 289.914787 309.236909 
L 293.140952 308.554254 
L 296.367118 307.603352 
L 299.593283 306.384203 
L 302.819449 304.896806 
L 306.045614 303.141163 
L 309.271779 301.117272 
L 312.497945 298.825134 
L 315.72411 296.264749 
L 318.950276 293.436116 
L 322.176441 290.339236 
L 325.402607 286.97411 
L 328.628772 283.340736 
L 331.854937 279.439114 
L 336.156491 273.819679 
L 340.458045 267.72336 
L 344.759599 261.150157 
L 349.061153 254.10007 
L 353.362707 246.573099 
L 357.664261 238.569244 
L 361.965815 230.088506 
L 366.267368 221.130883 
L 370.568922 211.696376 
L 374.870476 201.784986 
L 379.17203 191.396712 
L 383.473584 180.531553 
L 388.850526 166.279487 
L 394.227469 151.28229 
L 399.604411 135.539962 
L 404.981353 119.052502 
L 410.358296 101.819912 
L 415.735238 83.84219 
L 421.11218 65.119337 
L 426.489123 45.651353 
L 431.866065 25.438238 
L 437.243008 4.479992 
L 438.61748 -1 
L 438.61748 -1 
" clip-path="url(#p33e3ae6966)" style="fill: none; stroke: #1f6feb; stroke-width: 2.8; stroke-linecap: square"/>
   </g>
   <g id="line2d_33">
    <path d="M 283.317692 318.571831 
L 283.317692 33.414085 
" clip-path="url(#p33e3ae6966)" style="fill: none; stroke-dasharray: 1.6,2.64; stroke-dashoffset: 0; stroke: #bf8700; stroke-width: 1.6"/>
   </g>
   <g id="text_15">
    <!-- 對稱軸 $x=2$ -->
    <g style="fill: #bf8700" transform="translate(288.268615 55.349296) scale(0.12 -0.12)">
     <defs>
      <path id="NotoSansCJKjp-Regular-3d73" d="M 3693 2554 
C 3955 2086 4192 1472 4256 1082 
L 4691 1242 
C 4627 1632 4371 2234 4102 2694 
L 3693 2554 
z
M 339 5037 
C 531 4730 717 4320 781 4058 
L 1152 4230 
C 1088 4493 890 4890 685 5190 
L 339 5037 
z
M 3168 5222 
C 3053 4922 2829 4467 2662 4192 
L 2989 4045 
C 3174 4307 3398 4710 3590 5056 
L 3168 5222 
z
M 294 224 
L 358 -230 
C 1184 -122 2387 45 3514 205 
L 3501 627 
L 2138 448 
L 2138 1152 
L 3194 1152 
L 3194 1555 
L 2138 1555 
L 2138 2208 
L 3328 2208 
L 3328 2618 
L 2643 2618 
C 2778 2842 2925 3181 3066 3482 
L 2637 3603 
L 3494 3603 
L 3494 3206 
L 5005 3206 
L 5005 83 
C 5005 -32 4960 -64 4845 -70 
C 4749 -70 4397 -77 4006 -64 
C 4077 -192 4154 -397 4179 -518 
C 4704 -518 5011 -506 5203 -429 
C 5389 -352 5466 -218 5466 83 
L 5466 3206 
L 6150 3206 
L 6150 3654 
L 5466 3654 
L 5466 5338 
L 5005 5338 
L 5005 3654 
L 3558 3654 
L 3558 4013 
L 2554 4013 
L 2554 5344 
L 2157 5344 
L 2157 4013 
L 1670 4013 
L 1670 5344 
L 1274 5344 
L 1274 4013 
L 269 4013 
L 269 3603 
L 2618 3603 
C 2547 3334 2381 2957 2259 2714 
L 2592 2618 
L 1184 2618 
L 1542 2746 
C 1498 2976 1350 3328 1184 3597 
L 800 3469 
C 954 3200 1088 2848 1126 2618 
L 506 2618 
L 506 2208 
L 1690 2208 
L 1690 1555 
L 672 1555 
L 672 1152 
L 1690 1152 
L 1690 390 
L 294 224 
z
" transform="scale(0.015625)"/>
      <path id="NotoSansCJKjp-Regular-7251" d="M 3885 4454 
C 4019 4173 4134 3795 4160 3558 
L 4582 3674 
C 4550 3923 4435 4282 4288 4557 
L 3885 4454 
z
M 5088 4582 
C 5350 4205 5626 3686 5741 3347 
L 6157 3533 
C 6035 3866 5754 4365 5478 4742 
L 5088 4582 
z
M 4058 1760 
L 4058 1152 
L 3219 1152 
L 3219 1760 
L 4058 1760 
z
M 4058 2138 
L 3219 2138 
L 3219 2733 
L 4058 2733 
L 4058 2138 
z
M 4499 1760 
L 5402 1760 
L 5402 1152 
L 4499 1152 
L 4499 1760 
z
M 4499 2138 
L 4499 2733 
L 5402 2733 
L 5402 2138 
L 4499 2138 
z
M 2771 3123 
L 2771 1152 
L 2317 1152 
L 2317 742 
L 2771 742 
L 2771 -506 
L 3219 -506 
L 3219 742 
L 5402 742 
L 5402 13 
C 5402 -64 5370 -90 5293 -96 
C 5210 -96 4934 -96 4634 -83 
C 4698 -205 4774 -390 4800 -512 
C 5203 -512 5466 -506 5632 -429 
C 5798 -358 5850 -230 5850 6 
L 5850 742 
L 6208 742 
L 6208 1152 
L 5850 1152 
L 5850 3123 
L 4499 3123 
L 4499 3539 
L 4058 3539 
L 4058 3123 
L 2771 3123 
z
M 2112 5235 
C 1690 5030 922 4851 256 4730 
C 307 4640 371 4480 397 4378 
C 659 4416 941 4467 1222 4525 
L 1222 3526 
L 288 3526 
L 288 3085 
L 1152 3085 
C 934 2355 563 1517 211 1050 
C 288 934 403 749 454 614 
C 730 998 1005 1613 1222 2234 
L 1222 -525 
L 1677 -525 
L 1677 2304 
C 1882 2042 2125 1709 2227 1536 
L 2509 1901 
C 2387 2048 1850 2611 1677 2765 
L 1677 3085 
L 2464 3085 
L 2464 3469 
C 2579 3411 2707 3334 2778 3290 
C 3008 3616 3226 4090 3386 4589 
C 4179 4659 5075 4781 5715 4941 
L 5357 5286 
C 4890 5158 4115 5043 3392 4966 
L 3021 5037 
C 2886 4474 2656 3910 2355 3526 
L 1677 3526 
L 1677 4634 
C 1971 4710 2246 4800 2477 4896 
L 2112 5235 
z
" transform="scale(0.015625)"/>
      <path id="NotoSansCJKjp-Regular-9b28" d="M 3597 1773 
L 4326 1773 
L 4326 282 
L 3597 282 
L 3597 1773 
z
M 3597 2202 
L 3597 3578 
L 4326 3578 
L 4326 2202 
L 3597 2202 
z
M 5530 1773 
L 5530 282 
L 4749 282 
L 4749 1773 
L 5530 1773 
z
M 5530 2202 
L 4749 2202 
L 4749 3578 
L 5530 3578 
L 5530 2202 
z
M 4314 5376 
L 4314 4013 
L 3174 4013 
L 3174 -512 
L 3597 -512 
L 3597 -154 
L 5530 -154 
L 5530 -474 
L 5965 -474 
L 5965 4013 
L 4762 4013 
L 4762 5376 
L 4314 5376 
z
M 493 3782 
L 493 1555 
L 1434 1555 
L 1434 1030 
L 250 1030 
L 250 608 
L 1434 608 
L 1434 -518 
L 1869 -518 
L 1869 608 
L 3046 608 
L 3046 1030 
L 1869 1030 
L 1869 1555 
L 2848 1555 
L 2848 3782 
L 1869 3782 
L 1869 4256 
L 2970 4256 
L 2970 4678 
L 1869 4678 
L 1869 5376 
L 1434 5376 
L 1434 4678 
L 320 4678 
L 320 4256 
L 1434 4256 
L 1434 3782 
L 493 3782 
z
M 864 2502 
L 1478 2502 
L 1478 1914 
L 864 1914 
L 864 2502 
z
M 1830 2502 
L 2470 2502 
L 2470 1914 
L 1830 1914 
L 1830 2502 
z
M 864 3424 
L 1478 3424 
L 1478 2848 
L 864 2848 
L 864 3424 
z
M 1830 3424 
L 2470 3424 
L 2470 2848 
L 1830 2848 
L 1830 3424 
z
" transform="scale(0.015625)"/>
      <path id="NotoSansCJKjp-Regular-1" transform="scale(0.015625)"/>
      <path id="Cmmi10-3f" d="M 500 184 
Q 613 97 819 97 
Q 1019 97 1172 289 
Q 1325 481 1381 709 
L 1672 1844 
Q 1741 2153 1741 2266 
Q 1741 2425 1652 2544 
Q 1563 2663 1403 2663 
Q 1200 2663 1022 2536 
Q 844 2409 722 2214 
Q 600 2019 550 1819 
Q 538 1778 500 1778 
L 422 1778 
Q 372 1778 372 1838 
L 372 1856 
Q 434 2094 584 2320 
Q 734 2547 951 2687 
Q 1169 2828 1416 2828 
Q 1650 2828 1839 2703 
Q 2028 2578 2106 2363 
Q 2216 2559 2386 2693 
Q 2556 2828 2759 2828 
Q 2897 2828 3040 2779 
Q 3184 2731 3275 2631 
Q 3366 2531 3366 2381 
Q 3366 2219 3261 2101 
Q 3156 1984 2994 1984 
Q 2891 1984 2822 2050 
Q 2753 2116 2753 2216 
Q 2753 2350 2845 2451 
Q 2938 2553 3066 2572 
Q 2950 2663 2747 2663 
Q 2541 2663 2389 2472 
Q 2238 2281 2175 2047 
L 1894 916 
Q 1825 659 1825 494 
Q 1825 331 1917 214 
Q 2009 97 2163 97 
Q 2463 97 2698 361 
Q 2934 625 3009 941 
Q 3022 978 3059 978 
L 3138 978 
Q 3163 978 3178 961 
Q 3194 944 3194 922 
Q 3194 916 3188 903 
Q 3097 522 2806 225 
Q 2516 -72 2150 -72 
Q 1916 -72 1727 54 
Q 1538 181 1459 397 
Q 1359 209 1182 68 
Q 1006 -72 806 -72 
Q 669 -72 523 -23 
Q 378 25 287 125 
Q 197 225 197 378 
Q 197 528 301 651 
Q 406 775 563 775 
Q 669 775 741 711 
Q 813 647 813 544 
Q 813 409 723 309 
Q 634 209 500 184 
z
" transform="scale(0.015625)"/>
      <path id="Cmr10-29" d="M 481 850 
Q 428 850 393 890 
Q 359 931 359 978 
Q 359 1031 393 1068 
Q 428 1106 481 1106 
L 4500 1106 
Q 4547 1106 4581 1068 
Q 4616 1031 4616 978 
Q 4616 931 4581 890 
Q 4547 850 4500 850 
L 481 850 
z
M 481 2094 
Q 428 2094 393 2131 
Q 359 2169 359 2222 
Q 359 2269 393 2309 
Q 428 2350 481 2350 
L 4500 2350 
Q 4547 2350 4581 2309 
Q 4616 2269 4616 2222 
Q 4616 2169 4581 2131 
Q 4547 2094 4500 2094 
L 481 2094 
z
" transform="scale(0.015625)"/>
      <path id="Cmr10-31" d="M 319 0 
L 319 172 
Q 319 188 331 206 
L 1325 1306 
Q 1550 1550 1690 1715 
Q 1831 1881 1968 2097 
Q 2106 2313 2186 2536 
Q 2266 2759 2266 3009 
Q 2266 3272 2169 3511 
Q 2072 3750 1880 3894 
Q 1688 4038 1416 4038 
Q 1138 4038 916 3870 
Q 694 3703 603 3438 
Q 628 3444 672 3444 
Q 816 3444 917 3347 
Q 1019 3250 1019 3097 
Q 1019 2950 917 2848 
Q 816 2747 672 2747 
Q 522 2747 420 2851 
Q 319 2956 319 3097 
Q 319 3338 409 3548 
Q 500 3759 670 3923 
Q 841 4088 1055 4175 
Q 1269 4263 1509 4263 
Q 1875 4263 2190 4108 
Q 2506 3953 2690 3670 
Q 2875 3388 2875 3009 
Q 2875 2731 2753 2481 
Q 2631 2231 2440 2026 
Q 2250 1822 1953 1562 
Q 1656 1303 1563 1216 
L 838 519 
L 1453 519 
Q 1906 519 2211 526 
Q 2516 534 2534 550 
Q 2609 631 2688 1141 
L 2875 1141 
L 2694 0 
L 319 0 
z
" transform="scale(0.015625)"/>
     </defs>
     <use xlink:href="#NotoSansCJKjp-Regular-3d73"/>
     <use xlink:href="#NotoSansCJKjp-Regular-7251" transform="translate(99.999908 0)"/>
     <use xlink:href="#NotoSansCJKjp-Regular-9b28" transform="translate(199.999817 0)"/>
     <use xlink:href="#NotoSansCJKjp-Regular-1" transform="translate(299.999725 0)"/>
     <use xlink:href="#Cmmi10-3f" transform="translate(322.399704 0)"/>
     <use xlink:href="#Cmr10-29" transform="translate(399.479839 0)"/>
     <use xlink:href="#Cmr10-31" transform="translate(497.165443 0)"/>
    </g>
   </g>
   <g id="text_16">
    <!-- 頂點 $(2,\,-3)$ -->
    <g style="fill: #d1242f" transform="translate(293.632115 323.648028) scale(0.12 -0.12)">
     <defs>
      <path id="NotoSansCJKjp-Regular-abbc" d="M 3302 2694 
L 5434 2694 
L 5434 2074 
L 3302 2074 
L 3302 2694 
z
M 3302 1715 
L 5434 1715 
L 5434 1082 
L 3302 1082 
L 3302 1715 
z
M 3302 3667 
L 5434 3667 
L 5434 3053 
L 3302 3053 
L 3302 3667 
z
M 3552 602 
C 3232 326 2579 13 2035 -166 
C 2131 -256 2266 -410 2336 -506 
C 2893 -320 3558 13 3968 339 
L 3552 602 
z
M 4602 314 
C 5043 77 5600 -282 5869 -525 
L 6253 -230 
C 5958 13 5395 358 4966 576 
L 4602 314 
z
M 250 4960 
L 250 4506 
L 1280 4506 
L 1280 294 
C 1280 198 1242 166 1139 160 
C 1037 154 691 154 320 166 
C 390 32 454 -173 474 -301 
C 979 -307 1299 -294 1491 -218 
C 1677 -134 1747 0 1747 294 
L 1747 4506 
L 2534 4506 
L 2534 4960 
L 250 4960 
z
M 2848 4038 
L 2848 710 
L 5907 710 
L 5907 4038 
L 4390 4038 
L 4602 4659 
L 6138 4659 
L 6138 5075 
L 2637 5075 
L 2637 4659 
L 4058 4659 
C 4019 4454 3962 4230 3910 4038 
L 2848 4038 
z
" transform="scale(0.015625)"/>
      <path id="NotoSansCJKjp-Regular-b7c4" d="M 966 4474 
C 1069 4166 1152 3757 1165 3494 
L 1421 3565 
C 1402 3821 1312 4230 1203 4538 
L 966 4474 
z
M 1178 813 
C 1267 454 1338 0 1331 -307 
L 1664 -262 
C 1664 38 1594 499 1498 851 
L 1178 813 
z
M 1792 851 
C 1939 518 2067 90 2106 -192 
L 2432 -115 
C 2387 166 2246 589 2099 915 
L 1792 851 
z
M 2406 934 
C 2618 634 2848 224 2938 -45 
L 3258 96 
C 3162 365 2931 762 2701 1056 
L 2406 934 
z
M 634 838 
C 582 390 454 -70 205 -333 
L 538 -512 
C 806 -224 915 269 973 742 
L 634 838 
z
M 2272 4557 
C 2214 4262 2086 3808 1997 3533 
L 2202 3456 
C 2317 3706 2445 4122 2554 4454 
L 2272 4557 
z
M 4314 5363 
L 4314 2330 
L 3379 2330 
L 3379 -506 
L 3827 -506 
L 3827 -211 
L 5440 -211 
L 5440 -480 
L 5901 -480 
L 5901 2330 
L 4781 2330 
L 4781 3526 
L 6150 3526 
L 6150 3974 
L 4781 3974 
L 4781 5363 
L 4314 5363 
z
M 3827 237 
L 3827 1894 
L 5440 1894 
L 5440 237 
L 3827 237 
z
M 877 4794 
L 1568 4794 
L 1568 3245 
L 877 3245 
L 877 4794 
z
M 1894 4794 
L 2637 4794 
L 2637 3245 
L 1894 3245 
L 1894 4794 
z
M 448 2451 
L 448 2067 
L 1517 2067 
L 1517 1568 
L 314 1510 
L 333 1088 
C 1075 1133 2138 1203 3155 1274 
L 3168 1658 
L 1946 1594 
L 1946 2067 
L 3072 2067 
L 3072 2451 
L 1946 2451 
L 1946 2893 
L 3027 2893 
L 3027 5146 
L 493 5146 
L 493 2893 
L 1517 2893 
L 1517 2451 
L 448 2451 
z
" transform="scale(0.015625)"/>
      <path id="Cmr10-77" d="M 1984 -1588 
Q 1628 -1306 1370 -942 
Q 1113 -578 948 -165 
Q 784 247 703 697 
Q 622 1147 622 1600 
Q 622 2059 703 2509 
Q 784 2959 951 3375 
Q 1119 3791 1378 4153 
Q 1638 4516 1984 4788 
Q 1984 4800 2016 4800 
L 2075 4800 
Q 2094 4800 2109 4783 
Q 2125 4766 2125 4744 
Q 2125 4716 2113 4703 
Q 1800 4397 1592 4047 
Q 1384 3697 1257 3301 
Q 1131 2906 1075 2482 
Q 1019 2059 1019 1600 
Q 1019 -434 2106 -1491 
Q 2125 -1509 2125 -1544 
Q 2125 -1559 2108 -1579 
Q 2091 -1600 2075 -1600 
L 2016 -1600 
Q 1984 -1600 1984 -1588 
z
" transform="scale(0.015625)"/>
      <path id="Cmmi10-2c" d="M 634 -1153 
Q 634 -1125 659 -1100 
Q 891 -878 1019 -587 
Q 1147 -297 1147 25 
L 1147 103 
Q 1044 0 891 0 
Q 744 0 641 103 
Q 538 206 538 353 
Q 538 503 641 603 
Q 744 703 891 703 
Q 1119 703 1216 492 
Q 1313 281 1313 25 
Q 1313 -331 1170 -651 
Q 1028 -972 769 -1228 
Q 744 -1241 728 -1241 
Q 697 -1241 665 -1212 
Q 634 -1184 634 -1153 
z
" transform="scale(0.015625)"/>
      <path id="Cmsy10-11" d="M 653 1472 
Q 600 1472 565 1512 
Q 531 1553 531 1600 
Q 531 1647 565 1687 
Q 600 1728 653 1728 
L 4325 1728 
Q 4375 1728 4408 1687 
Q 4441 1647 4441 1600 
Q 4441 1553 4408 1512 
Q 4375 1472 4325 1472 
L 653 1472 
z
" transform="scale(0.015625)"/>
      <path id="Cmr10-6e" d="M 609 494 
Q 759 275 1012 169 
Q 1266 63 1556 63 
Q 1928 63 2084 380 
Q 2241 697 2241 1100 
Q 2241 1281 2208 1462 
Q 2175 1644 2097 1800 
Q 2019 1956 1883 2050 
Q 1747 2144 1550 2144 
L 1125 2144 
Q 1069 2144 1069 2203 
L 1069 2259 
Q 1069 2309 1125 2309 
L 1478 2338 
Q 1703 2338 1851 2506 
Q 2000 2675 2069 2917 
Q 2138 3159 2138 3378 
Q 2138 3684 1994 3881 
Q 1850 4078 1556 4078 
Q 1313 4078 1091 3986 
Q 869 3894 738 3706 
Q 750 3709 759 3711 
Q 769 3713 781 3713 
Q 925 3713 1022 3613 
Q 1119 3513 1119 3372 
Q 1119 3234 1022 3134 
Q 925 3034 781 3034 
Q 641 3034 541 3134 
Q 441 3234 441 3372 
Q 441 3647 606 3850 
Q 772 4053 1033 4158 
Q 1294 4263 1556 4263 
Q 1750 4263 1965 4205 
Q 2181 4147 2356 4039 
Q 2531 3931 2642 3762 
Q 2753 3594 2753 3378 
Q 2753 3109 2633 2881 
Q 2513 2653 2303 2487 
Q 2094 2322 1844 2241 
Q 2122 2188 2372 2031 
Q 2622 1875 2773 1631 
Q 2925 1388 2925 1106 
Q 2925 753 2731 467 
Q 2538 181 2222 20 
Q 1906 -141 1556 -141 
Q 1256 -141 954 -26 
Q 653 88 461 316 
Q 269 544 269 863 
Q 269 1022 375 1128 
Q 481 1234 641 1234 
Q 744 1234 830 1186 
Q 916 1138 964 1050 
Q 1013 963 1013 863 
Q 1013 706 903 600 
Q 794 494 641 494 
L 609 494 
z
" transform="scale(0.015625)"/>
      <path id="Cmr10-44" d="M 416 -1600 
Q 359 -1600 359 -1544 
Q 359 -1516 372 -1503 
Q 1466 -434 1466 1600 
Q 1466 3634 384 4691 
Q 359 4706 359 4744 
Q 359 4766 376 4783 
Q 394 4800 416 4800 
L 475 4800 
Q 494 4800 506 4788 
Q 966 4425 1272 3906 
Q 1578 3388 1720 2800 
Q 1863 2213 1863 1600 
Q 1863 1147 1786 708 
Q 1709 269 1542 -157 
Q 1375 -584 1119 -945 
Q 863 -1306 506 -1588 
Q 494 -1600 475 -1600 
L 416 -1600 
z
" transform="scale(0.015625)"/>
     </defs>
     <use xlink:href="#NotoSansCJKjp-Regular-abbc" transform="translate(0 0.203125)"/>
     <use xlink:href="#NotoSansCJKjp-Regular-b7c4" transform="translate(99.999908 0.203125)"/>
     <use xlink:href="#NotoSansCJKjp-Regular-1" transform="translate(199.999817 0.203125)"/>
     <use xlink:href="#Cmr10-77" transform="translate(222.399796 0.203125)"/>
     <use xlink:href="#Cmr10-31" transform="translate(261.218155 0.203125)"/>
     <use xlink:href="#Cmmi10-2c" transform="translate(311.218155 0.203125)"/>
     <use xlink:href="#Cmsy10-11" transform="translate(395.570864 0.203125)"/>
     <use xlink:href="#Cmr10-6e" transform="translate(493.256468 0.203125)"/>
     <use xlink:href="#Cmr10-44" transform="translate(543.256468 0.203125)"/>
    </g>
   </g>
   <g id="text_17">
    <!-- 右移 2、下移 3 -->
    <g style="fill: #1a7f37" transform="translate(223.494038 285.841972) scale(0.12 -0.12)">
     <defs>
      <path id="NotoSansCJKjp-Regular-2e93" d="M 2637 5376 
C 2554 4979 2445 4576 2310 4179 
L 416 4179 
L 416 3712 
L 2138 3712 
C 1728 2688 1114 1754 198 1133 
C 301 1037 448 864 525 749 
C 992 1082 1382 1485 1715 1939 
L 1715 -518 
L 2195 -518 
L 2195 -160 
L 5043 -160 
L 5043 -486 
L 5542 -486 
L 5542 2470 
L 2067 2470 
C 2298 2861 2496 3277 2662 3712 
L 6010 3712 
L 6010 4179 
L 2829 4179 
C 2944 4544 3046 4909 3136 5280 
L 2637 5376 
z
M 2195 307 
L 2195 2003 
L 5043 2003 
L 5043 307 
L 2195 307 
z
" transform="scale(0.015625)"/>
      <path id="NotoSansCJKjp-Regular-71ef" d="M 3910 4416 
L 5197 4416 
C 5024 4083 4774 3795 4486 3546 
C 4275 3750 3949 3994 3654 4179 
L 3910 4416 
z
M 4109 5376 
C 3827 4883 3277 4307 2477 3910 
C 2573 3834 2720 3680 2784 3578 
C 2982 3686 3168 3808 3341 3930 
C 3629 3750 3949 3494 4154 3290 
C 3686 2970 3136 2739 2586 2605 
C 2675 2515 2790 2336 2835 2221 
C 4122 2586 5325 3347 5824 4691 
L 5523 4838 
L 5434 4819 
L 4269 4819 
C 4390 4973 4499 5126 4589 5286 
L 4109 5376 
z
M 4211 1952 
L 5536 1952 
C 5350 1555 5088 1222 4768 941 
C 4531 1165 4166 1427 3840 1626 
C 3974 1728 4096 1837 4211 1952 
z
M 4454 2963 
C 4141 2400 3501 1760 2560 1325 
C 2656 1254 2797 1094 2861 992 
C 3085 1107 3296 1229 3488 1363 
C 3821 1165 4173 890 4410 659 
C 3846 282 3168 32 2451 -102 
C 2541 -205 2650 -397 2694 -512 
C 4243 -166 5613 621 6157 2246 
L 5850 2381 
L 5760 2362 
L 4576 2362 
C 4717 2534 4832 2707 4934 2880 
L 4454 2963 
z
M 2310 5286 
C 1837 5069 992 4883 275 4762 
C 333 4659 397 4499 416 4397 
C 717 4435 1037 4493 1357 4557 
L 1357 3571 
L 314 3571 
L 314 3123 
L 1293 3123 
C 1037 2387 595 1555 179 1101 
C 262 986 378 794 429 659 
C 755 1056 1094 1690 1357 2336 
L 1357 -499 
L 1830 -499 
L 1830 2259 
C 2048 1990 2304 1645 2413 1466 
L 2701 1843 
C 2573 1990 2016 2566 1830 2726 
L 1830 3123 
L 2630 3123 
L 2630 3571 
L 1830 3571 
L 1830 4666 
C 2131 4736 2413 4819 2643 4915 
L 2310 5286 
z
" transform="scale(0.015625)"/>
      <path id="NotoSansCJKjp-Regular-575" d="M 1747 -358 
L 2182 13 
C 1786 480 1210 1062 749 1434 
L 333 1069 
C 787 698 1338 147 1747 -358 
z
" transform="scale(0.015625)"/>
      <path id="NotoSansCJKjp-Regular-2516" d="M 352 4902 
L 352 4422 
L 2822 4422 
L 2822 -506 
L 3328 -506 
L 3328 2886 
C 4064 2490 4922 1958 5370 1600 
L 5709 2035 
C 5197 2426 4179 3002 3418 3373 
L 3328 3270 
L 3328 4422 
L 6054 4422 
L 6054 4902 
L 352 4902 
z
" transform="scale(0.015625)"/>
      <path id="NotoSansCJKjp-Regular-14" d="M 1683 -83 
C 2522 -83 3194 416 3194 1254 
C 3194 1901 2752 2310 2202 2445 
L 2202 2477 
C 2701 2650 3034 3034 3034 3603 
C 3034 4346 2458 4774 1664 4774 
C 1126 4774 710 4538 358 4218 
L 672 3846 
C 941 4115 1267 4301 1645 4301 
C 2138 4301 2438 4006 2438 3558 
C 2438 3053 2112 2662 1139 2662 
L 1139 2214 
C 2227 2214 2598 1843 2598 1274 
C 2598 736 2208 403 1645 403 
C 1114 403 762 659 486 941 
L 186 563 
C 493 224 954 -83 1683 -83 
z
" transform="scale(0.015625)"/>
     </defs>
     <use xlink:href="#NotoSansCJKjp-Regular-2e93"/>
     <use xlink:href="#NotoSansCJKjp-Regular-71ef" transform="translate(100 0)"/>
     <use xlink:href="#NotoSansCJKjp-Regular-1" transform="translate(200 0)"/>
     <use xlink:href="#NotoSansCJKjp-Regular-13" transform="translate(222.40625 0)"/>
     <use xlink:href="#NotoSansCJKjp-Regular-575" transform="translate(277.90625 0)"/>
     <use xlink:href="#NotoSansCJKjp-Regular-2516" transform="translate(377.90625 0)"/>
     <use xlink:href="#NotoSansCJKjp-Regular-71ef" transform="translate(477.90625 0)"/>
     <use xlink:href="#NotoSansCJKjp-Regular-1" transform="translate(577.90625 0)"/>
     <use xlink:href="#NotoSansCJKjp-Regular-14" transform="translate(600.3125 0)"/>
    </g>
   </g>
   <g id="text_18">
    <!-- 配方法：把二次函數化為頂點式 $y=a(x-h)^2+k$ -->
    <g style="fill: #222831" transform="translate(101.205 18.64) scale(0.13 -0.13)">
     <defs>
      <path id="NotoSansCJKjp-Regular-9fe5" d="M 3546 5088 
L 3546 4627 
L 5491 4627 
L 5491 3072 
L 3565 3072 
L 3565 294 
C 3565 -294 3744 -448 4339 -448 
C 4461 -448 5280 -448 5414 -448 
C 5997 -448 6138 -154 6195 890 
C 6061 922 5862 1011 5747 1094 
C 5715 173 5670 6 5382 6 
C 5203 6 4525 6 4390 6 
C 4096 6 4038 51 4038 294 
L 4038 2611 
L 5491 2611 
L 5491 2176 
L 5952 2176 
L 5952 5088 
L 3546 5088 
z
M 915 1011 
L 2688 1011 
L 2688 346 
L 915 346 
L 915 1011 
z
M 915 1370 
L 915 3539 
L 1350 3539 
L 1350 3034 
C 1350 2688 1286 2272 915 1946 
C 979 1907 1082 1811 1126 1754 
C 1530 2125 1619 2637 1619 3027 
L 1619 3539 
L 1978 3539 
L 1978 2330 
C 1978 2022 2054 1965 2310 1965 
C 2355 1965 2573 1965 2624 1965 
L 2688 1965 
L 2688 1370 
L 915 1370 
z
M 365 5126 
L 365 4698 
L 1286 4698 
L 1286 3955 
L 525 3955 
L 525 -486 
L 915 -486 
L 915 -45 
L 2688 -45 
L 2688 -397 
L 3085 -397 
L 3085 3955 
L 2362 3955 
L 2362 4698 
L 3232 4698 
L 3232 5126 
L 365 5126 
z
M 1632 3955 
L 1632 4698 
L 2010 4698 
L 2010 3955 
L 1632 3955 
z
M 2253 3539 
L 2688 3539 
L 2688 2246 
L 2669 2259 
C 2656 2246 2643 2240 2573 2240 
C 2528 2240 2368 2240 2336 2240 
C 2259 2240 2253 2253 2253 2336 
L 2253 3539 
z
" transform="scale(0.015625)"/>
      <path id="NotoSansCJKjp-Regular-4ea0" d="M 2931 5395 
L 2931 4269 
L 339 4269 
L 339 3808 
L 2310 3808 
C 2240 2330 2054 666 269 -147 
C 397 -243 544 -416 621 -538 
C 1926 90 2438 1152 2669 2298 
L 4787 2298 
C 4685 819 4557 186 4371 19 
C 4294 -51 4211 -58 4064 -58 
C 3898 -58 3443 -51 2982 -13 
C 3078 -147 3142 -346 3155 -480 
C 3584 -506 4013 -512 4230 -499 
C 4480 -486 4634 -435 4781 -282 
C 5030 -26 5165 685 5293 2522 
C 5306 2598 5312 2758 5312 2758 
L 2746 2758 
C 2790 3110 2822 3462 2842 3808 
L 6067 3808 
L 6067 4269 
L 3424 4269 
L 3424 5395 
L 2931 5395 
z
" transform="scale(0.015625)"/>
      <path id="NotoSansCJKjp-Regular-5ace" d="M 589 4979 
C 1030 4800 1574 4499 1837 4275 
L 2118 4672 
C 1843 4896 1293 5171 851 5331 
L 589 4979 
z
M 250 3213 
C 691 3059 1242 2784 1517 2579 
L 1779 2989 
C 1491 3194 934 3443 493 3578 
L 250 3213 
z
M 467 -115 
L 883 -435 
C 1242 166 1664 960 1984 1638 
L 1626 1946 
C 1280 1222 800 378 467 -115 
z
M 4550 1363 
C 4781 1088 5018 768 5222 448 
L 3027 320 
C 3309 877 3616 1606 3846 2227 
L 6080 2227 
L 6080 2688 
L 4250 2688 
L 4250 3872 
L 5779 3872 
L 5779 4326 
L 4250 4326 
L 4250 5376 
L 3763 5376 
L 3763 4326 
L 2291 4326 
L 2291 3872 
L 3763 3872 
L 3763 2688 
L 1971 2688 
L 1971 2227 
L 3283 2227 
C 3091 1613 2784 838 2515 294 
L 1978 269 
L 2042 -218 
C 2938 -160 4230 -70 5472 26 
C 5587 -173 5677 -365 5741 -525 
L 6189 -275 
C 5978 243 5446 1011 4966 1581 
L 4550 1363 
z
" transform="scale(0.015625)"/>
      <path id="NotoSansCJKjp-Regular-e6c0" d="M 3200 3482 
C 3456 3482 3686 3667 3686 3962 
C 3686 4256 3456 4442 3200 4442 
C 2944 4442 2714 4256 2714 3962 
C 2714 3667 2944 3482 3200 3482 
z
M 3200 346 
C 3456 346 3686 538 3686 826 
C 3686 1120 3456 1312 3200 1312 
C 2944 1312 2714 1120 2714 826 
C 2714 538 2944 346 3200 346 
z
" transform="scale(0.015625)"/>
      <path id="NotoSansCJKjp-Regular-4927" d="M 3078 4570 
L 3987 4570 
L 3987 2534 
L 3078 2534 
L 3078 4570 
z
M 2592 5043 
L 2592 563 
C 2592 -166 2822 -346 3584 -346 
C 3763 -346 5062 -346 5248 -346 
C 5965 -346 6131 -32 6208 870 
C 6067 896 5862 979 5741 1062 
C 5690 301 5626 109 5235 109 
C 4966 109 3827 109 3610 109 
C 3162 109 3078 192 3078 557 
L 3078 2080 
L 5357 2080 
L 5357 1658 
L 5850 1658 
L 5850 5043 
L 2592 5043 
z
M 5357 2534 
L 4435 2534 
L 4435 4570 
L 5357 4570 
L 5357 2534 
z
M 1094 5376 
L 1094 4083 
L 326 4083 
L 326 3629 
L 1094 3629 
L 1094 2214 
C 768 2125 474 2042 230 1984 
L 365 1517 
L 1094 1734 
L 1094 38 
C 1094 -38 1069 -64 992 -64 
C 922 -70 698 -70 448 -64 
C 512 -192 570 -390 589 -506 
C 966 -512 1203 -493 1357 -416 
C 1510 -346 1574 -218 1574 45 
L 1574 1882 
L 2355 2112 
L 2291 2560 
L 1574 2355 
L 1574 3629 
L 2234 3629 
L 2234 4083 
L 1574 4083 
L 1574 5376 
L 1094 5376 
z
" transform="scale(0.015625)"/>
      <path id="NotoSansCJKjp-Regular-25c5" d="M 902 4461 
L 902 3942 
L 5504 3942 
L 5504 4461 
L 902 4461 
z
M 365 666 
L 365 128 
L 6048 128 
L 6048 666 
L 365 666 
z
" transform="scale(0.015625)"/>
      <path id="NotoSansCJKjp-Regular-57df" d="M 243 806 
L 557 410 
C 986 826 1530 1382 2003 1901 
L 1734 2310 
C 1197 1741 614 1158 243 806 
z
M 448 4602 
C 858 4314 1363 3891 1606 3610 
L 1965 4006 
C 1715 4282 1197 4685 787 4947 
L 448 4602 
z
M 2854 5363 
C 2630 4339 2240 3334 1696 2707 
C 1824 2650 2054 2515 2157 2438 
C 2426 2797 2662 3245 2874 3750 
L 3654 3750 
L 3654 2931 
C 3654 2330 3322 653 1370 -115 
C 1459 -211 1606 -403 1664 -512 
C 3206 141 3795 1427 3904 2029 
C 4000 1434 4544 102 5894 -512 
C 5965 -397 6112 -198 6208 -83 
C 4461 672 4147 2368 4154 2931 
L 4154 3750 
L 5485 3750 
C 5350 3322 5152 2848 4986 2547 
C 5101 2502 5286 2400 5389 2349 
C 5626 2778 5926 3443 6099 4058 
L 5747 4250 
L 5651 4224 
L 3053 4224 
C 3168 4557 3270 4915 3354 5274 
L 2854 5363 
z
" transform="scale(0.015625)"/>
      <path id="NotoSansCJKjp-Regular-2b78" d="M 3635 1843 
C 4096 1530 4646 1062 4915 768 
L 5203 1114 
C 4928 1402 4378 1837 3904 2144 
L 3635 1843 
z
M 1344 3277 
C 1664 3008 2022 2605 2189 2336 
L 2515 2618 
C 2342 2874 1984 3251 1645 3520 
L 1344 3277 
z
M 1178 1242 
L 1414 845 
C 1811 1114 2304 1434 2771 1747 
L 2650 2112 
C 2099 1779 1549 1440 1178 1242 
z
M 4659 3603 
C 4467 3290 4115 2835 3853 2560 
L 4166 2374 
C 4442 2643 4774 3034 5056 3392 
L 4659 3603 
z
M 5370 3827 
L 5370 294 
L 1062 294 
L 1062 3827 
L 602 3827 
L 602 -506 
L 1062 -506 
L 1062 -147 
L 5370 -147 
L 5370 -486 
L 5843 -486 
L 5843 3827 
L 5370 3827 
z
M 378 4992 
L 378 4531 
L 2458 4531 
C 2368 4090 2253 3597 2157 3264 
L 2598 3206 
L 2650 3398 
L 3238 3398 
C 3187 1690 3123 1075 3008 928 
C 2957 858 2906 845 2816 845 
C 2720 845 2483 845 2227 870 
C 2291 762 2336 595 2342 474 
C 2605 461 2861 461 3008 474 
C 3174 486 3290 538 3392 666 
C 3552 877 3616 1574 3674 3584 
C 3674 3648 3680 3789 3680 3789 
L 2746 3789 
L 2912 4531 
L 6029 4531 
L 6029 4992 
L 378 4992 
z
" transform="scale(0.015625)"/>
      <path id="NotoSansCJKjp-Regular-4e26" d="M 4352 3744 
L 5318 3744 
C 5216 2957 5062 2266 4826 1677 
C 4595 2266 4442 2944 4333 3661 
L 4352 3744 
z
M 256 4301 
L 256 3936 
L 698 3936 
L 698 3245 
L 1741 3245 
L 1741 2950 
L 538 2950 
L 538 1882 
L 1485 1882 
L 1274 1478 
L 262 1472 
L 275 1088 
L 1069 1094 
C 928 845 787 608 666 422 
L 1062 307 
L 1171 486 
C 1389 403 1606 314 1818 218 
C 1459 32 998 -83 416 -154 
C 493 -256 570 -410 602 -538 
C 1293 -416 1837 -250 2246 13 
C 2522 -128 2765 -275 2957 -410 
L 3264 -102 
C 3078 19 2848 154 2586 282 
C 2816 512 2976 794 3072 1133 
L 3750 1152 
L 3763 1510 
L 1734 1485 
L 1939 1882 
L 3424 1882 
L 3424 2419 
C 3526 2336 3648 2221 3706 2157 
C 3834 2362 3949 2592 4051 2848 
C 4179 2221 4346 1645 4563 1146 
C 4256 614 3853 192 3309 -134 
C 3392 -224 3539 -429 3584 -525 
C 4090 -198 4486 192 4794 666 
C 5075 166 5414 -237 5850 -518 
C 5920 -403 6067 -224 6176 -141 
C 5709 141 5350 582 5062 1133 
C 5421 1843 5638 2707 5779 3744 
L 6144 3744 
L 6144 4186 
L 4467 4186 
C 4550 4544 4621 4922 4678 5306 
L 4211 5376 
C 4070 4339 3827 3315 3424 2618 
L 3424 2950 
L 2163 2950 
L 2163 3245 
L 3277 3245 
L 3277 3936 
L 3731 3936 
L 3731 4301 
L 3277 4301 
L 3277 4986 
L 2163 4986 
L 2163 5376 
L 1741 5376 
L 1741 4986 
L 698 4986 
L 698 4301 
L 256 4301 
z
M 1101 4646 
L 1741 4646 
L 1741 4282 
L 1101 4282 
L 1101 4646 
z
M 1741 3578 
L 1101 3578 
L 1101 3955 
L 1741 3955 
L 1741 3578 
z
M 2163 4646 
L 2848 4646 
L 2848 4282 
L 2163 4282 
L 2163 4646 
z
M 2163 3578 
L 2163 3955 
L 2848 3955 
L 2848 3578 
L 2163 3578 
z
M 947 2624 
L 1741 2624 
L 1741 2202 
L 947 2202 
L 947 2624 
z
M 2163 2624 
L 3002 2624 
L 3002 2202 
L 2163 2202 
L 2163 2624 
z
M 1530 1107 
L 2630 1126 
C 2534 864 2387 646 2189 467 
C 1920 589 1632 704 1357 800 
L 1530 1107 
z
" transform="scale(0.015625)"/>
      <path id="NotoSansCJKjp-Regular-2d2b" d="M 5517 4160 
C 5050 3725 4314 3232 3597 2829 
L 3597 5222 
L 3110 5222 
L 3110 480 
C 3110 -230 3315 -416 3987 -416 
C 4134 -416 5146 -416 5306 -416 
C 5978 -416 6112 -51 6189 998 
C 6048 1024 5856 1114 5734 1203 
C 5690 269 5638 32 5280 32 
C 5069 32 4192 32 4026 32 
C 3667 32 3597 109 3597 467 
L 3597 2342 
C 4390 2758 5254 3251 5862 3750 
L 5517 4160 
z
M 2003 5280 
C 1581 4262 870 3290 134 2675 
C 224 2560 371 2310 422 2189 
C 710 2451 998 2758 1267 3104 
L 1267 -499 
L 1747 -499 
L 1747 3776 
C 2022 4205 2272 4659 2470 5120 
L 2003 5280 
z
" transform="scale(0.015625)"/>
      <path id="NotoSansCJKjp-Regular-61a1" d="M 4083 1197 
C 4275 934 4474 563 4550 326 
L 4902 474 
C 4826 704 4621 1069 4416 1325 
L 4083 1197 
z
M 1312 5184 
C 1562 4915 1830 4544 1946 4294 
L 2387 4499 
C 2259 4742 1978 5107 1734 5357 
L 1312 5184 
z
M 2182 1043 
C 2298 627 2368 96 2349 -250 
L 2771 -186 
C 2771 160 2707 685 2579 1094 
L 2182 1043 
z
M 3130 1101 
C 3283 742 3437 275 3482 -26 
L 3885 83 
C 3827 378 3674 838 3501 1184 
L 3130 1101 
z
M 1363 1184 
C 1242 691 992 122 640 -218 
L 1011 -474 
C 1395 -90 1619 525 1766 1056 
L 1363 1184 
z
M 3251 5382 
C 3142 5011 3008 4640 2848 4282 
L 525 4282 
L 525 3840 
L 2637 3840 
C 2086 2765 1280 1798 192 1178 
C 275 1075 397 890 454 774 
C 832 998 1178 1254 1491 1542 
L 5472 1542 
C 5370 525 5267 96 5126 -32 
C 5069 -90 5005 -96 4890 -96 
C 4768 -102 4461 -96 4134 -64 
C 4211 -192 4269 -378 4275 -506 
C 4608 -525 4922 -525 5088 -512 
C 5280 -499 5402 -461 5523 -333 
C 5728 -128 5843 410 5965 1760 
C 5971 1824 5984 1965 5984 1965 
L 5286 1965 
C 5370 2298 5459 2746 5530 3123 
L 4800 3123 
C 4883 3456 4979 3898 5050 4282 
L 3373 4282 
C 3507 4602 3629 4928 3738 5261 
L 3251 5382 
z
M 1914 1965 
C 2125 2195 2323 2445 2502 2701 
L 5005 2701 
C 4960 2445 4896 2182 4838 1965 
L 1914 1965 
z
M 3168 3840 
L 4518 3840 
C 4467 3584 4410 3328 4352 3123 
L 2778 3123 
C 2918 3354 3046 3597 3168 3840 
z
" transform="scale(0.015625)"/>
      <path id="NotoSansCJKjp-Regular-430b" d="M 4538 5062 
C 4870 4832 5267 4486 5459 4256 
L 5792 4557 
C 5600 4781 5190 5107 4864 5331 
L 4538 5062 
z
M 3616 5350 
C 3616 4954 3629 4563 3648 4179 
L 352 4179 
L 352 3712 
L 3680 3712 
C 3846 1331 4384 -525 5434 -525 
C 5926 -525 6106 -198 6189 922 
C 6054 973 5875 1082 5766 1190 
C 5722 333 5651 -26 5472 -26 
C 4838 -26 4339 1542 4179 3712 
L 6061 3712 
L 6061 4179 
L 4154 4179 
C 4134 4557 4128 4947 4128 5350 
L 3616 5350 
z
M 378 154 
L 531 -320 
C 1350 -141 2528 128 3616 384 
L 3578 819 
L 2208 525 
L 2208 2291 
L 3405 2291 
L 3405 2758 
L 576 2758 
L 576 2291 
L 1728 2291 
L 1728 429 
L 378 154 
z
" transform="scale(0.015625)"/>
      <path id="Cmmi10-72" d="M 538 -916 
Q 672 -1147 1006 -1147 
Q 1309 -1147 1531 -934 
Q 1753 -722 1889 -420 
Q 2025 -119 2100 197 
Q 1816 -72 1484 -72 
Q 1231 -72 1053 15 
Q 875 103 776 276 
Q 678 450 678 697 
Q 678 906 734 1126 
Q 791 1347 892 1617 
Q 994 1888 1069 2088 
Q 1153 2322 1153 2472 
Q 1153 2663 1013 2663 
Q 759 2663 595 2402 
Q 431 2141 353 1819 
Q 341 1778 300 1778 
L 225 1778 
Q 172 1778 172 1838 
L 172 1856 
Q 275 2238 487 2533 
Q 700 2828 1025 2828 
Q 1253 2828 1411 2678 
Q 1569 2528 1569 2297 
Q 1569 2178 1516 2047 
Q 1488 1969 1388 1706 
Q 1288 1444 1234 1272 
Q 1181 1100 1147 934 
Q 1113 769 1113 603 
Q 1113 391 1203 244 
Q 1294 97 1491 97 
Q 1888 97 2203 581 
L 2688 2553 
Q 2709 2638 2787 2698 
Q 2866 2759 2956 2759 
Q 3034 2759 3092 2709 
Q 3150 2659 3150 2578 
Q 3150 2541 3144 2528 
L 2509 -19 
Q 2425 -347 2200 -647 
Q 1975 -947 1658 -1130 
Q 1341 -1313 997 -1313 
Q 831 -1313 668 -1248 
Q 506 -1184 406 -1056 
Q 306 -928 306 -756 
Q 306 -581 409 -453 
Q 513 -325 684 -325 
Q 788 -325 858 -389 
Q 928 -453 928 -556 
Q 928 -703 818 -812 
Q 709 -922 563 -922 
Q 556 -919 550 -917 
Q 544 -916 538 -916 
z
" transform="scale(0.015625)"/>
      <path id="Cmmi10-79" d="M 1113 -72 
Q 709 -72 476 233 
Q 244 538 244 953 
Q 244 1363 456 1803 
Q 669 2244 1030 2536 
Q 1391 2828 1806 2828 
Q 1997 2828 2147 2725 
Q 2297 2622 2381 2444 
Q 2453 2700 2663 2700 
Q 2744 2700 2798 2651 
Q 2853 2603 2853 2522 
Q 2853 2503 2851 2493 
Q 2850 2484 2847 2472 
L 2400 684 
Q 2356 494 2356 372 
Q 2356 97 2541 97 
Q 2741 97 2845 351 
Q 2950 606 3022 941 
Q 3034 978 3072 978 
L 3150 978 
Q 3175 978 3190 956 
Q 3206 934 3206 916 
Q 3094 469 2961 198 
Q 2828 -72 2528 -72 
Q 2313 -72 2147 54 
Q 1981 181 1941 391 
Q 1528 -72 1113 -72 
z
M 1119 97 
Q 1350 97 1567 270 
Q 1784 444 1941 678 
Q 1947 684 1947 697 
L 2291 2088 
L 2297 2106 
Q 2259 2334 2132 2498 
Q 2006 2663 1791 2663 
Q 1575 2663 1389 2486 
Q 1203 2309 1075 2069 
Q 950 1813 836 1366 
Q 722 919 722 672 
Q 722 450 817 273 
Q 913 97 1119 97 
z
" transform="scale(0.015625)"/>
      <path id="Cmmi10-5f" d="M 341 116 
Q 341 153 347 172 
L 1275 3872 
Q 1300 3981 1306 4044 
Q 1306 4147 891 4147 
Q 825 4147 825 4231 
Q 828 4247 839 4287 
Q 850 4328 867 4350 
Q 884 4372 916 4372 
L 1778 4441 
L 1797 4441 
Q 1797 4434 1819 4423 
Q 1841 4413 1844 4409 
Q 1856 4378 1856 4359 
L 1356 2363 
Q 1750 2828 2291 2828 
Q 2516 2828 2680 2750 
Q 2844 2672 2936 2514 
Q 3028 2356 3028 2138 
Q 3028 1875 2911 1503 
Q 2794 1131 2619 672 
Q 2528 463 2528 288 
Q 2528 97 2675 97 
Q 2925 97 3092 364 
Q 3259 631 3328 941 
Q 3341 978 3378 978 
L 3456 978 
Q 3481 978 3497 961 
Q 3513 944 3513 922 
Q 3513 916 3506 903 
Q 3450 672 3339 448 
Q 3228 225 3059 76 
Q 2891 -72 2663 -72 
Q 2438 -72 2278 83 
Q 2119 238 2119 459 
Q 2119 578 2169 709 
Q 2350 1191 2470 1569 
Q 2591 1947 2591 2234 
Q 2591 2419 2519 2541 
Q 2447 2663 2278 2663 
Q 1934 2663 1678 2452 
Q 1422 2241 1234 1894 
L 800 147 
Q 775 50 703 -11 
Q 631 -72 538 -72 
Q 456 -72 398 -17 
Q 341 38 341 116 
z
" transform="scale(0.015625)"/>
      <path id="Cmr10-4c" d="M 481 1472 
Q 428 1472 393 1512 
Q 359 1553 359 1600 
Q 359 1647 393 1687 
Q 428 1728 481 1728 
L 2363 1728 
L 2363 3616 
Q 2363 3666 2400 3698 
Q 2438 3731 2491 3731 
Q 2538 3731 2578 3698 
Q 2619 3666 2619 3616 
L 2619 1728 
L 4500 1728 
Q 4547 1728 4581 1687 
Q 4616 1647 4616 1600 
Q 4616 1553 4581 1512 
Q 4547 1472 4500 1472 
L 2619 1472 
L 2619 -416 
Q 2619 -466 2578 -498 
Q 2538 -531 2491 -531 
Q 2438 -531 2400 -498 
Q 2363 -466 2363 -416 
L 2363 1472 
L 481 1472 
z
" transform="scale(0.015625)"/>
      <path id="Cmmi10-3e" d="M 341 116 
Q 341 153 347 172 
L 1275 3872 
Q 1300 3981 1306 4044 
Q 1306 4147 891 4147 
Q 825 4147 825 4231 
Q 828 4247 839 4287 
Q 850 4328 867 4350 
Q 884 4372 916 4372 
L 1778 4441 
L 1797 4441 
Q 1797 4434 1819 4423 
Q 1841 4413 1844 4409 
Q 1856 4378 1856 4359 
L 1184 1684 
Q 1416 1781 1767 2145 
Q 2119 2509 2317 2668 
Q 2516 2828 2816 2828 
Q 2994 2828 3119 2706 
Q 3244 2584 3244 2406 
Q 3244 2294 3197 2198 
Q 3150 2103 3065 2043 
Q 2981 1984 2869 1984 
Q 2766 1984 2695 2048 
Q 2625 2113 2625 2216 
Q 2625 2369 2733 2473 
Q 2841 2578 2994 2578 
Q 2931 2663 2803 2663 
Q 2613 2663 2436 2553 
Q 2259 2444 2054 2239 
Q 1850 2034 1681 1864 
Q 1513 1694 1369 1606 
Q 1747 1563 2025 1408 
Q 2303 1253 2303 934 
Q 2303 869 2278 769 
Q 2222 528 2222 384 
Q 2222 97 2419 97 
Q 2650 97 2770 350 
Q 2891 603 2969 941 
Q 2981 978 3022 978 
L 3097 978 
Q 3122 978 3139 962 
Q 3156 947 3156 922 
Q 3156 916 3150 903 
Q 2909 -72 2406 -72 
Q 2225 -72 2086 12 
Q 1947 97 1872 242 
Q 1797 388 1797 569 
Q 1797 672 1825 781 
Q 1844 856 1844 922 
Q 1844 1169 1625 1297 
Q 1406 1425 1125 1453 
L 800 147 
Q 775 50 703 -11 
Q 631 -72 538 -72 
Q 456 -72 398 -17 
Q 341 38 341 116 
z
" transform="scale(0.015625)"/>
     </defs>
     <use xlink:href="#NotoSansCJKjp-Regular-9fe5" transform="translate(0 0.084203)"/>
     <use xlink:href="#NotoSansCJKjp-Regular-4ea0" transform="translate(99.999908 0.084203)"/>
     <use xlink:href="#NotoSansCJKjp-Regular-5ace" transform="translate(199.999817 0.084203)"/>
     <use xlink:href="#NotoSansCJKjp-Regular-e6c0" transform="translate(299.999725 0.084203)"/>
     <use xlink:href="#NotoSansCJKjp-Regular-4927" transform="translate(399.999634 0.084203)"/>
     <use xlink:href="#NotoSansCJKjp-Regular-25c5" transform="translate(499.999542 0.084203)"/>
     <use xlink:href="#NotoSansCJKjp-Regular-57df" transform="translate(599.999451 0.084203)"/>
     <use xlink:href="#NotoSansCJKjp-Regular-2b78" transform="translate(699.999359 0.084203)"/>
     <use xlink:href="#NotoSansCJKjp-Regular-4e26" transform="translate(799.999268 0.084203)"/>
     <use xlink:href="#NotoSansCJKjp-Regular-2d2b" transform="translate(899.999176 0.084203)"/>
     <use xlink:href="#NotoSansCJKjp-Regular-61a1" transform="translate(999.999084 0.084203)"/>
     <use xlink:href="#NotoSansCJKjp-Regular-abbc" transform="translate(1099.998993 0.084203)"/>
     <use xlink:href="#NotoSansCJKjp-Regular-b7c4" transform="translate(1199.998901 0.084203)"/>
     <use xlink:href="#NotoSansCJKjp-Regular-430b" transform="translate(1299.99881 0.084203)"/>
     <use xlink:href="#NotoSansCJKjp-Regular-1" transform="translate(1399.998718 0.084203)"/>
     <use xlink:href="#Cmmi10-72" transform="translate(1422.398697 0.084203)"/>
     <use xlink:href="#Cmr10-29" transform="translate(1491.422192 0.084203)"/>
     <use xlink:href="#Cmmi10-79" transform="translate(1589.107796 0.084203)"/>
     <use xlink:href="#Cmr10-77" transform="translate(1641.890999 0.084203)"/>
     <use xlink:href="#Cmmi10-3f" transform="translate(1680.709358 0.084203)"/>
     <use xlink:href="#Cmsy10-11" transform="translate(1757.789494 0.084203)"/>
     <use xlink:href="#Cmmi10-5f" transform="translate(1855.475098 0.084203)"/>
     <use xlink:href="#Cmr10-44" transform="translate(1913.092285 0.084203)"/>
     <use xlink:href="#Cmr10-31" transform="translate(1955.914935 41.373437) scale(0.7)"/>
     <use xlink:href="#Cmr10-4c" transform="translate(2016.635408 0.084203)"/>
     <use xlink:href="#Cmmi10-3e" transform="translate(2114.321012 0.084203)"/>
    </g>
   </g>
   <g id="patch_3">
    <path d="M 206.643515 245.361758 
Q 255.93704 258.026746 278.700968 300.664801 
" clip-path="url(#p33e3ae6966)" style="fill: none; stroke: #1a7f37; stroke-width: 2; stroke-linecap: round"/>
    <path d="M 278.485732 292.617834 
L 278.700968 300.664801 
L 272.134253 296.00881 
z
" clip-path="url(#p33e3ae6966)" style="fill: #1a7f37; stroke: #1a7f37; stroke-width: 2; stroke-linecap: round"/>
   </g>
   <g id="legend_1">
    <g id="patch_4">
     <path d="M 35.22 68.86 
L 145.44 68.86 
Q 147.64 68.86 147.64 66.66 
L 147.64 32.34 
Q 147.64 30.14 145.44 30.14 
L 35.22 30.14 
Q 33.02 30.14 33.02 32.34 
L 33.02 66.66 
Q 33.02 68.86 35.22 68.86 
z
" style="fill: #ffffff; opacity: 0.9; stroke: #cccccc; stroke-linejoin: miter"/>
    </g>
    <g id="line2d_34">
     <path d="M 37.42 40.37 
L 48.42 40.37 
L 59.42 40.37 
" style="fill: none; stroke-dasharray: 7.4,3.2; stroke-dashoffset: 0; stroke: #9aa4b2; stroke-width: 2"/>
    </g>
    <g id="text_19">
     <!-- $y=x^2$（基準） -->
     <g style="fill: #222831" transform="translate(68.22 44.22) scale(0.11 -0.11)">
      <defs>
       <path id="NotoSansCJKjp-Regular-e6ae" d="M 4448 2432 
C 4448 1184 4954 166 5722 -614 
L 6106 -416 
C 5370 346 4915 1293 4915 2432 
C 4915 3571 5370 4518 6106 5280 
L 5722 5478 
C 4954 4698 4448 3680 4448 2432 
z
" transform="scale(0.015625)"/>
       <path id="NotoSansCJKjp-Regular-34f9" d="M 4378 5370 
L 4378 4755 
L 2048 4755 
L 2048 5376 
L 1568 5376 
L 1568 4755 
L 589 4755 
L 589 4352 
L 1568 4352 
L 1568 2298 
L 294 2298 
L 294 1888 
L 1690 1888 
C 1318 1434 755 1030 230 819 
C 333 730 474 563 544 448 
C 1165 742 1818 1286 2214 1888 
L 4237 1888 
C 4627 1318 5254 787 5869 525 
C 5946 640 6086 813 6189 902 
C 5651 1094 5107 1466 4742 1888 
L 6112 1888 
L 6112 2298 
L 4864 2298 
L 4864 4352 
L 5830 4352 
L 5830 4755 
L 4864 4755 
L 4864 5370 
L 4378 5370 
z
M 2048 4352 
L 4378 4352 
L 4378 3923 
L 2048 3923 
L 2048 4352 
z
M 2944 1683 
L 2944 1146 
L 1632 1146 
L 1632 749 
L 2944 749 
L 2944 70 
L 794 70 
L 794 -339 
L 5645 -339 
L 5645 70 
L 3430 70 
L 3430 749 
L 4774 749 
L 4774 1146 
L 3430 1146 
L 3430 1683 
L 2944 1683 
z
M 2048 3565 
L 4378 3565 
L 4378 3117 
L 2048 3117 
L 2048 3565 
z
M 2048 2752 
L 4378 2752 
L 4378 2298 
L 2048 2298 
L 2048 2752 
z
" transform="scale(0.015625)"/>
       <path id="NotoSansCJKjp-Regular-5d96" d="M 736 5011 
C 1082 4870 1530 4646 1760 4480 
L 2010 4858 
C 1779 5011 1331 5222 979 5344 
L 736 5011 
z
M 256 3942 
C 608 3821 1062 3616 1299 3469 
L 1536 3846 
C 1299 3994 845 4179 493 4282 
L 256 3942 
z
M 435 1907 
L 774 1536 
C 1165 1952 1594 2451 1958 2899 
L 1702 3226 
C 1286 2739 781 2221 435 1907 
z
M 339 1184 
L 339 742 
L 2931 742 
L 2931 -518 
L 3424 -518 
L 3424 742 
L 6086 742 
L 6086 1184 
L 3424 1184 
L 3424 1709 
L 2931 1709 
L 2931 1184 
L 339 1184 
z
M 4224 5376 
C 4147 5171 4019 4902 3891 4672 
L 3002 4672 
C 3123 4864 3232 5062 3328 5267 
L 2867 5408 
C 2579 4774 2086 4160 1568 3763 
C 1677 3686 1869 3520 1946 3430 
C 2086 3552 2234 3693 2374 3846 
L 2374 1747 
L 5978 1747 
L 5978 2144 
L 4339 2144 
L 4339 2624 
L 5626 2624 
L 5626 2989 
L 4339 2989 
L 4339 3450 
L 5613 3450 
L 5613 3814 
L 4339 3814 
L 4339 4282 
L 5798 4282 
L 5798 4672 
L 4378 4672 
C 4499 4858 4621 5069 4742 5274 
L 4224 5376 
z
M 2842 4282 
L 3885 4282 
L 3885 3814 
L 2842 3814 
L 2842 4282 
z
M 2842 2144 
L 2842 2624 
L 3885 2624 
L 3885 2144 
L 2842 2144 
z
M 2842 3450 
L 3885 3450 
L 3885 2989 
L 2842 2989 
L 2842 3450 
z
" transform="scale(0.015625)"/>
       <path id="NotoSansCJKjp-Regular-e6af" d="M 1952 2432 
C 1952 3680 1446 4698 678 5478 
L 294 5280 
C 1030 4518 1485 3571 1485 2432 
C 1485 1293 1030 346 294 -416 
L 678 -614 
C 1446 166 1952 1184 1952 2432 
z
" transform="scale(0.015625)"/>
      </defs>
      <use xlink:href="#Cmmi10-72" transform="translate(0 0.084203)"/>
      <use xlink:href="#Cmr10-29" transform="translate(69.023495 0.084203)"/>
      <use xlink:href="#Cmmi10-3f" transform="translate(166.709099 0.084203)"/>
      <use xlink:href="#Cmr10-31" transform="translate(235.049359 41.373437) scale(0.7)"/>
      <use xlink:href="#NotoSansCJKjp-Regular-e6ae" transform="translate(275.769774 0.084203)"/>
      <use xlink:href="#NotoSansCJKjp-Regular-34f9" transform="translate(375.769683 0.084203)"/>
      <use xlink:href="#NotoSansCJKjp-Regular-5d96" transform="translate(475.769591 0.084203)"/>
      <use xlink:href="#NotoSansCJKjp-Regular-e6af" transform="translate(575.7695 0.084203)"/>
     </g>
    </g>
    <g id="line2d_35">
     <path d="M 37.42 57.86 
L 48.42 57.86 
L 59.42 57.86 
" style="fill: none; stroke: #1f6feb; stroke-width: 2.8; stroke-linecap: square"/>
    </g>
    <g id="text_20">
     <!-- $y=(x-2)^2-3$ -->
     <g style="fill: #222831" transform="translate(68.22 61.71) scale(0.11 -0.11)">
      <use xlink:href="#Cmmi10-72" transform="translate(0 0.084203)"/>
      <use xlink:href="#Cmr10-29" transform="translate(69.023495 0.084203)"/>
      <use xlink:href="#Cmr10-77" transform="translate(166.709099 0.084203)"/>
      <use xlink:href="#Cmmi10-3f" transform="translate(205.527458 0.084203)"/>
      <use xlink:href="#Cmsy10-11" transform="translate(282.607594 0.084203)"/>
      <use xlink:href="#Cmr10-31" transform="translate(380.293198 0.084203)"/>
      <use xlink:href="#Cmr10-44" transform="translate(430.293198 0.084203)"/>
      <use xlink:href="#Cmr10-31" transform="translate(473.115848 41.373437) scale(0.7)"/>
      <use xlink:href="#Cmsy10-11" transform="translate(533.836321 0.084203)"/>
      <use xlink:href="#Cmr10-6e" transform="translate(631.521925 0.084203)"/>
     </g>
    </g>
   </g>
   <g id="patch_5">
    <path d="M 283.317692 312.429972 
C 284.630692 312.429972 285.890092 312.152624 286.818524 311.659011 
C 287.746955 311.165398 288.268615 310.495821 288.268615 309.797746 
C 288.268615 309.099672 287.746955 308.430095 286.818524 307.936482 
C 285.890092 307.442869 284.630692 307.165521 283.317692 307.165521 
C 282.004692 307.165521 280.745292 307.442869 279.816861 307.936482 
C 278.88843 308.430095 278.366769 309.099672 278.366769 309.797746 
C 278.366769 310.495821 278.88843 311.165398 279.816861 311.659011 
C 280.745292 312.152624 282.004692 312.429972 283.317692 312.429972 
z
" clip-path="url(#p33e3ae6966)" style="fill: #d1242f; stroke: #d1242f; stroke-linejoin: miter"/>
   </g>
   <g id="patch_6">
    <path d="M 200.802308 246.185634 
C 201.896474 246.185634 202.945974 245.954511 203.719667 245.543166 
C 204.49336 245.131822 204.928077 244.573841 204.928077 243.992113 
C 204.928077 243.410384 204.49336 242.852403 203.719667 242.441059 
C 202.945974 242.029715 201.896474 241.798592 200.802308 241.798592 
C 199.708141 241.798592 198.658641 242.029715 197.884948 242.441059 
C 197.111256 242.852403 196.676538 243.410384 196.676538 243.992113 
C 196.676538 244.573841 197.111256 245.131822 197.884948 245.543166 
C 198.658641 245.954511 199.708141 246.185634 200.802308 246.185634 
z
" clip-path="url(#p33e3ae6966)" style="fill: #6b7280; stroke: #6b7280; stroke-linejoin: miter"/>
   </g>
  </g>
 </g>
 <defs>
  <clipPath id="p33e3ae6966">
   <rect x="27.52" y="24.64" width="429.08" height="311.48"/>
  </clipPath>
 </defs>
</svg>
