<?xml version="1.0" encoding="utf-8" standalone="no"?>
<!DOCTYPE svg PUBLIC "-//W3C//DTD SVG 1.1//EN"
  "http://www.w3.org/Graphics/SVG/1.1/DTD/svg11.dtd">
<svg xmlns:xlink="http://www.w3.org/1999/xlink" width="535.704375pt" height="305.28pt" viewBox="0 0 535.704375 305.28" xmlns="http://www.w3.org/2000/svg" version="1.1">
 <metadata>
  <rdf:RDF xmlns:dc="http://purl.org/dc/elements/1.1/" xmlns:cc="http://creativecommons.org/ns#" xmlns:rdf="http://www.w3.org/1999/02/22-rdf-syntax-ns#">
   <cc:Work>
    <dc:type rdf:resource="http://purl.org/dc/dcmitype/StillImage"/>
    <dc:date>2026-06-20T17:59:27.042409</dc:date>
    <dc:format>image/svg+xml</dc:format>
    <dc:creator>
     <cc:Agent>
      <dc:title>Matplotlib v3.11.0, https://matplotlib.org/</dc:title>
     </cc:Agent>
    </dc:creator>
   </cc:Work>
  </rdf:RDF>
 </metadata>
 <defs>
  <style type="text/css">*{stroke-linejoin: round; stroke-linecap: butt}</style>
 </defs>
 <g id="figure_1">
  <g id="patch_1">
   <path d="M 0 305.28 
L 535.704375 305.28 
L 535.704375 0 
L 0 0 
z
" style="fill: #ffffff"/>
  </g>
  <g id="axes_1">
   <g id="patch_2">
    <path d="M 41.984375 262.12 
L 528.504375 262.12 
L 528.504375 24.64 
L 41.984375 24.64 
z
" style="fill: #ffffff"/>
   </g>
   <g id="matplotlib.axis_1">
    <g id="xtick_1">
     <g id="line2d_1">
      <path d="M 41.984375 262.12 
L 41.984375 24.64 
" clip-path="url(#p39acf8b1b4)" style="fill: none; stroke: #d8dde3; stroke-width: 0.9; stroke-linecap: square"/>
     </g>
     <g id="line2d_2">
      <defs>
       <path id="mf6a6e26aa3" d="M 0 0 
L 0 3.5 
" style="stroke: #222831; stroke-width: 0.8"/>
      </defs>
      <g>
       <use xlink:href="#mf6a6e26aa3" x="41.984375" y="262.12" style="fill: #222831; stroke: #222831; stroke-width: 0.8"/>
      </g>
     </g>
     <g id="text_1">
      <!-- 0 -->
      <g style="fill: #222831" transform="translate(38.654375 279.68) scale(0.12 -0.12)">
       <defs>
        <path id="NotoSansCJKjp-Regular-11" d="M 1779 -83 
C 2669 -83 3238 723 3238 2362 
C 3238 3987 2669 4774 1779 4774 
C 883 4774 320 3987 320 2362 
C 320 723 883 -83 1779 -83 
z
M 1779 390 
C 1248 390 883 986 883 2362 
C 883 3731 1248 4314 1779 4314 
C 2310 4314 2675 3731 2675 2362 
C 2675 986 2310 390 1779 390 
z
" transform="scale(0.015625)"/>
       </defs>
       <use xlink:href="#NotoSansCJKjp-Regular-11"/>
      </g>
     </g>
    </g>
    <g id="xtick_2">
     <g id="line2d_3">
      <path d="M 132.080671 262.12 
L 132.080671 24.64 
" clip-path="url(#p39acf8b1b4)" style="fill: none; stroke: #d8dde3; stroke-width: 0.9; stroke-linecap: square"/>
     </g>
     <g id="line2d_4">
      <g>
       <use xlink:href="#mf6a6e26aa3" x="132.080671" y="262.12" style="fill: #222831; stroke: #222831; stroke-width: 0.8"/>
      </g>
     </g>
     <g id="text_2">
      <!-- 1 -->
      <g style="fill: #222831" transform="translate(128.750671 279.68) scale(0.12 -0.12)">
       <defs>
        <path id="NotoSansCJKjp-Regular-12" d="M 563 0 
L 3136 0 
L 3136 486 
L 2195 486 
L 2195 4691 
L 1747 4691 
C 1491 4544 1190 4435 774 4358 
L 774 3987 
L 1613 3987 
L 1613 486 
L 563 486 
L 563 0 
z
" transform="scale(0.015625)"/>
       </defs>
       <use xlink:href="#NotoSansCJKjp-Regular-12"/>
      </g>
     </g>
    </g>
    <g id="xtick_3">
     <g id="line2d_5">
      <path d="M 222.176968 262.12 
L 222.176968 24.64 
" clip-path="url(#p39acf8b1b4)" style="fill: none; stroke: #d8dde3; stroke-width: 0.9; stroke-linecap: square"/>
     </g>
     <g id="line2d_6">
      <g>
       <use xlink:href="#mf6a6e26aa3" x="222.176968" y="262.12" style="fill: #222831; stroke: #222831; stroke-width: 0.8"/>
      </g>
     </g>
     <g id="text_3">
      <!-- 2 -->
      <g style="fill: #222831" transform="translate(218.846968 279.68) scale(0.12 -0.12)">
       <defs>
        <path id="NotoSansCJKjp-Regular-13" d="M 282 0 
L 3232 0 
L 3232 506 
L 1933 506 
C 1696 506 1408 480 1165 461 
C 2266 1504 3008 2458 3008 3398 
C 3008 4230 2477 4774 1638 4774 
C 1043 4774 634 4506 256 4090 
L 595 3757 
C 858 4070 1184 4301 1568 4301 
C 2150 4301 2432 3910 2432 3373 
C 2432 2566 1754 1632 282 346 
L 282 0 
z
" transform="scale(0.015625)"/>
       </defs>
       <use xlink:href="#NotoSansCJKjp-Regular-13"/>
      </g>
     </g>
    </g>
    <g id="xtick_4">
     <g id="line2d_7">
      <path d="M 312.273264 262.12 
L 312.273264 24.64 
" clip-path="url(#p39acf8b1b4)" style="fill: none; stroke: #d8dde3; stroke-width: 0.9; stroke-linecap: square"/>
     </g>
     <g id="line2d_8">
      <g>
       <use xlink:href="#mf6a6e26aa3" x="312.273264" y="262.12" style="fill: #222831; stroke: #222831; stroke-width: 0.8"/>
      </g>
     </g>
     <g id="text_4">
      <!-- 3 -->
      <g style="fill: #222831" transform="translate(308.943264 279.68) scale(0.12 -0.12)">
       <defs>
        <path id="NotoSansCJKjp-Regular-14" d="M 1683 -83 
C 2522 -83 3194 416 3194 1254 
C 3194 1901 2752 2310 2202 2445 
L 2202 2477 
C 2701 2650 3034 3034 3034 3603 
C 3034 4346 2458 4774 1664 4774 
C 1126 4774 710 4538 358 4218 
L 672 3846 
C 941 4115 1267 4301 1645 4301 
C 2138 4301 2438 4006 2438 3558 
C 2438 3053 2112 2662 1139 2662 
L 1139 2214 
C 2227 2214 2598 1843 2598 1274 
C 2598 736 2208 403 1645 403 
C 1114 403 762 659 486 941 
L 186 563 
C 493 224 954 -83 1683 -83 
z
" transform="scale(0.015625)"/>
       </defs>
       <use xlink:href="#NotoSansCJKjp-Regular-14"/>
      </g>
     </g>
    </g>
    <g id="xtick_5">
     <g id="line2d_9">
      <path d="M 402.36956 262.12 
L 402.36956 24.64 
" clip-path="url(#p39acf8b1b4)" style="fill: none; stroke: #d8dde3; stroke-width: 0.9; stroke-linecap: square"/>
     </g>
     <g id="line2d_10">
      <g>
       <use xlink:href="#mf6a6e26aa3" x="402.36956" y="262.12" style="fill: #222831; stroke: #222831; stroke-width: 0.8"/>
      </g>
     </g>
     <g id="text_5">
      <!-- 4 -->
      <g style="fill: #222831" transform="translate(399.03956 279.68) scale(0.12 -0.12)">
       <defs>
        <path id="NotoSansCJKjp-Regular-15" d="M 2176 0 
L 2726 0 
L 2726 1293 
L 3354 1293 
L 3354 1760 
L 2726 1760 
L 2726 4691 
L 2080 4691 
L 128 1677 
L 128 1293 
L 2176 1293 
L 2176 0 
z
M 2176 1760 
L 736 1760 
L 1805 3360 
C 1939 3590 2067 3827 2182 4051 
L 2208 4051 
C 2195 3814 2176 3430 2176 3200 
L 2176 1760 
z
" transform="scale(0.015625)"/>
       </defs>
       <use xlink:href="#NotoSansCJKjp-Regular-15"/>
      </g>
     </g>
    </g>
    <g id="xtick_6">
     <g id="line2d_11">
      <path d="M 492.465856 262.12 
L 492.465856 24.64 
" clip-path="url(#p39acf8b1b4)" style="fill: none; stroke: #d8dde3; stroke-width: 0.9; stroke-linecap: square"/>
     </g>
     <g id="line2d_12">
      <g>
       <use xlink:href="#mf6a6e26aa3" x="492.465856" y="262.12" style="fill: #222831; stroke: #222831; stroke-width: 0.8"/>
      </g>
     </g>
     <g id="text_6">
      <!-- 5 -->
      <g style="fill: #222831" transform="translate(489.135856 279.68) scale(0.12 -0.12)">
       <defs>
        <path id="NotoSansCJKjp-Regular-16" d="M 1677 -83 
C 2464 -83 3213 499 3213 1523 
C 3213 2560 2573 3021 1798 3021 
C 1517 3021 1306 2950 1094 2835 
L 1216 4192 
L 2982 4192 
L 2982 4691 
L 704 4691 
L 550 2502 
L 864 2304 
C 1133 2483 1331 2579 1645 2579 
C 2234 2579 2618 2182 2618 1510 
C 2618 826 2176 403 1619 403 
C 1075 403 730 653 467 922 
L 173 538 
C 493 224 941 -83 1677 -83 
z
" transform="scale(0.015625)"/>
       </defs>
       <use xlink:href="#NotoSansCJKjp-Regular-16"/>
      </g>
     </g>
    </g>
    <g id="text_7">
     <!-- 位置 $x$ (m) -->
     <g style="fill: #222831" transform="translate(257.464375 295.68) scale(0.12 -0.12)">
      <defs>
       <path id="NotoSansCJKjp-Regular-26e3" d="M 2630 3155 
C 2867 2304 3066 1190 3110 544 
L 3578 646 
C 3526 1280 3302 2381 3059 3232 
L 2630 3155 
z
M 2106 4115 
L 2106 3661 
L 6016 3661 
L 6016 4115 
L 4250 4115 
L 4250 5299 
L 3770 5299 
L 3770 4115 
L 2106 4115 
z
M 1946 243 
L 1946 -211 
L 6176 -211 
L 6176 243 
L 4634 243 
C 4928 1043 5261 2246 5485 3194 
L 4966 3283 
C 4800 2362 4461 1056 4166 243 
L 1946 243 
z
M 1773 5357 
C 1395 4390 774 3443 128 2835 
C 211 2720 352 2470 397 2355 
C 640 2598 877 2880 1107 3194 
L 1107 -493 
L 1568 -493 
L 1568 3891 
C 1818 4314 2048 4762 2227 5216 
L 1773 5357 
z
" transform="scale(0.015625)"/>
       <path id="NotoSansCJKjp-Regular-7ccb" d="M 4154 4762 
L 5235 4762 
L 5235 4186 
L 4154 4186 
L 4154 4762 
z
M 2656 4762 
L 3712 4762 
L 3712 4186 
L 2656 4186 
L 2656 4762 
z
M 1197 4762 
L 2214 4762 
L 2214 4186 
L 1197 4186 
L 1197 4762 
z
M 2374 1798 
L 4979 1798 
L 4979 1440 
L 2374 1440 
L 2374 1798 
z
M 2374 1152 
L 4979 1152 
L 4979 794 
L 2374 794 
L 2374 1152 
z
M 2374 2432 
L 4979 2432 
L 4979 2086 
L 2374 2086 
L 2374 2432 
z
M 1920 2726 
L 1920 499 
L 5440 499 
L 5440 2726 
L 3347 2726 
L 3418 3104 
L 5971 3104 
L 5971 3482 
L 3482 3482 
L 3533 3834 
L 5715 3834 
L 5715 5107 
L 736 5107 
L 736 3834 
L 3046 3834 
L 3002 3482 
L 435 3482 
L 435 3104 
L 2944 3104 
L 2880 2726 
L 1920 2726 
z
M 787 2630 
L 787 -518 
L 1274 -518 
L 1274 -243 
L 6138 -243 
L 6138 141 
L 1274 141 
L 1274 2630 
L 787 2630 
z
" transform="scale(0.015625)"/>
       <path id="NotoSansCJKjp-Regular-1" transform="scale(0.015625)"/>
       <path id="Cmmi10-3f" d="M 500 184 
Q 613 97 819 97 
Q 1019 97 1172 289 
Q 1325 481 1381 709 
L 1672 1844 
Q 1741 2153 1741 2266 
Q 1741 2425 1652 2544 
Q 1563 2663 1403 2663 
Q 1200 2663 1022 2536 
Q 844 2409 722 2214 
Q 600 2019 550 1819 
Q 538 1778 500 1778 
L 422 1778 
Q 372 1778 372 1838 
L 372 1856 
Q 434 2094 584 2320 
Q 734 2547 951 2687 
Q 1169 2828 1416 2828 
Q 1650 2828 1839 2703 
Q 2028 2578 2106 2363 
Q 2216 2559 2386 2693 
Q 2556 2828 2759 2828 
Q 2897 2828 3040 2779 
Q 3184 2731 3275 2631 
Q 3366 2531 3366 2381 
Q 3366 2219 3261 2101 
Q 3156 1984 2994 1984 
Q 2891 1984 2822 2050 
Q 2753 2116 2753 2216 
Q 2753 2350 2845 2451 
Q 2938 2553 3066 2572 
Q 2950 2663 2747 2663 
Q 2541 2663 2389 2472 
Q 2238 2281 2175 2047 
L 1894 916 
Q 1825 659 1825 494 
Q 1825 331 1917 214 
Q 2009 97 2163 97 
Q 2463 97 2698 361 
Q 2934 625 3009 941 
Q 3022 978 3059 978 
L 3138 978 
Q 3163 978 3178 961 
Q 3194 944 3194 922 
Q 3194 916 3188 903 
Q 3097 522 2806 225 
Q 2516 -72 2150 -72 
Q 1916 -72 1727 54 
Q 1538 181 1459 397 
Q 1359 209 1182 68 
Q 1006 -72 806 -72 
Q 669 -72 523 -23 
Q 378 25 287 125 
Q 197 225 197 378 
Q 197 528 301 651 
Q 406 775 563 775 
Q 669 775 741 711 
Q 813 647 813 544 
Q 813 409 723 309 
Q 634 209 500 184 
z
" transform="scale(0.015625)"/>
       <path id="NotoSansCJKjp-Regular-9" d="M 1530 -1254 
L 1888 -1094 
C 1338 -186 1075 902 1075 1990 
C 1075 3072 1338 4154 1888 5069 
L 1530 5235 
C 941 4275 589 3245 589 1990 
C 589 730 941 -301 1530 -1254 
z
" transform="scale(0.015625)"/>
       <path id="NotoSansCJKjp-Regular-4e" d="M 589 0 
L 1178 0 
L 1178 2522 
C 1491 2880 1786 3053 2048 3053 
C 2490 3053 2694 2778 2694 2125 
L 2694 0 
L 3277 0 
L 3277 2522 
C 3603 2880 3885 3053 4154 3053 
C 4595 3053 4800 2778 4800 2125 
L 4800 0 
L 5382 0 
L 5382 2202 
C 5382 3085 5043 3565 4333 3565 
C 3904 3565 3546 3290 3181 2899 
C 3040 3309 2758 3565 2221 3565 
C 1805 3565 1446 3302 1139 2970 
L 1126 2970 
L 1069 3475 
L 589 3475 
L 589 0 
z
" transform="scale(0.015625)"/>
       <path id="NotoSansCJKjp-Regular-a" d="M 634 -1254 
C 1222 -301 1574 730 1574 1990 
C 1574 3245 1222 4275 634 5235 
L 269 5069 
C 819 4154 1094 3072 1094 1990 
C 1094 902 819 -186 269 -1094 
L 634 -1254 
z
" transform="scale(0.015625)"/>
      </defs>
      <use xlink:href="#NotoSansCJKjp-Regular-26e3" transform="translate(0 0.296875)"/>
      <use xlink:href="#NotoSansCJKjp-Regular-7ccb" transform="translate(99.999908 0.296875)"/>
      <use xlink:href="#NotoSansCJKjp-Regular-1" transform="translate(199.999817 0.296875)"/>
      <use xlink:href="#Cmmi10-3f" transform="translate(222.399796 0.296875)"/>
      <use xlink:href="#NotoSansCJKjp-Regular-1" transform="translate(279.479874 0.296875)"/>
      <use xlink:href="#NotoSansCJKjp-Regular-9" transform="translate(301.879852 0.296875)"/>
      <use xlink:href="#NotoSansCJKjp-Regular-4e" transform="translate(335.679825 0.296875)"/>
      <use xlink:href="#NotoSansCJKjp-Regular-a" transform="translate(428.279739 0.296875)"/>
     </g>
    </g>
   </g>
   <g id="matplotlib.axis_2">
    <g id="ytick_1">
     <g id="line2d_13">
      <path d="M 41.984375 262.12 
L 528.504375 262.12 
" clip-path="url(#p39acf8b1b4)" style="fill: none; stroke: #d8dde3; stroke-width: 0.9; stroke-linecap: square"/>
     </g>
     <g id="line2d_14">
      <defs>
       <path id="md081f45f70" d="M 0 0 
L -3.5 0 
" style="stroke: #222831; stroke-width: 0.8"/>
      </defs>
      <g>
       <use xlink:href="#md081f45f70" x="41.984375" y="262.12" style="fill: #222831; stroke: #222831; stroke-width: 0.8"/>
      </g>
     </g>
     <g id="text_8">
      <!-- -3 -->
      <g style="fill: #222831" transform="translate(24.16 267.4) scale(0.12 -0.12)">
       <defs>
        <path id="NotoSansCJKjp-Regular-e" d="M 294 1568 
L 1933 1568 
L 1933 2016 
L 294 2016 
L 294 1568 
z
" transform="scale(0.015625)"/>
       </defs>
       <use xlink:href="#NotoSansCJKjp-Regular-e"/>
       <use xlink:href="#NotoSansCJKjp-Regular-14" transform="translate(34.703125 0)"/>
      </g>
     </g>
    </g>
    <g id="ytick_2">
     <g id="line2d_15">
      <path d="M 41.984375 226.138182 
L 528.504375 226.138182 
" clip-path="url(#p39acf8b1b4)" style="fill: none; stroke: #d8dde3; stroke-width: 0.9; stroke-linecap: square"/>
     </g>
     <g id="line2d_16">
      <g>
       <use xlink:href="#md081f45f70" x="41.984375" y="226.138182" style="fill: #222831; stroke: #222831; stroke-width: 0.8"/>
      </g>
     </g>
     <g id="text_9">
      <!-- -2 -->
      <g style="fill: #222831" transform="translate(24.16 231.418182) scale(0.12 -0.12)">
       <use xlink:href="#NotoSansCJKjp-Regular-e"/>
       <use xlink:href="#NotoSansCJKjp-Regular-13" transform="translate(34.703125 0)"/>
      </g>
     </g>
    </g>
    <g id="ytick_3">
     <g id="line2d_17">
      <path d="M 41.984375 190.156364 
L 528.504375 190.156364 
" clip-path="url(#p39acf8b1b4)" style="fill: none; stroke: #d8dde3; stroke-width: 0.9; stroke-linecap: square"/>
     </g>
     <g id="line2d_18">
      <g>
       <use xlink:href="#md081f45f70" x="41.984375" y="190.156364" style="fill: #222831; stroke: #222831; stroke-width: 0.8"/>
      </g>
     </g>
     <g id="text_10">
      <!-- -1 -->
      <g style="fill: #222831" transform="translate(24.16 195.436364) scale(0.12 -0.12)">
       <use xlink:href="#NotoSansCJKjp-Regular-e"/>
       <use xlink:href="#NotoSansCJKjp-Regular-12" transform="translate(34.703125 0)"/>
      </g>
     </g>
    </g>
    <g id="ytick_4">
     <g id="line2d_19">
      <path d="M 41.984375 154.174545 
L 528.504375 154.174545 
" clip-path="url(#p39acf8b1b4)" style="fill: none; stroke: #d8dde3; stroke-width: 0.9; stroke-linecap: square"/>
     </g>
     <g id="line2d_20">
      <g>
       <use xlink:href="#md081f45f70" x="41.984375" y="154.174545" style="fill: #222831; stroke: #222831; stroke-width: 0.8"/>
      </g>
     </g>
     <g id="text_11">
      <!-- 0 -->
      <g style="fill: #222831" transform="translate(28.324375 159.454545) scale(0.12 -0.12)">
       <use xlink:href="#NotoSansCJKjp-Regular-11"/>
      </g>
     </g>
    </g>
    <g id="ytick_5">
     <g id="line2d_21">
      <path d="M 41.984375 118.192727 
L 528.504375 118.192727 
" clip-path="url(#p39acf8b1b4)" style="fill: none; stroke: #d8dde3; stroke-width: 0.9; stroke-linecap: square"/>
     </g>
     <g id="line2d_22">
      <g>
       <use xlink:href="#md081f45f70" x="41.984375" y="118.192727" style="fill: #222831; stroke: #222831; stroke-width: 0.8"/>
      </g>
     </g>
     <g id="text_12">
      <!-- 1 -->
      <g style="fill: #222831" transform="translate(28.324375 123.472727) scale(0.12 -0.12)">
       <use xlink:href="#NotoSansCJKjp-Regular-12"/>
      </g>
     </g>
    </g>
    <g id="ytick_6">
     <g id="line2d_23">
      <path d="M 41.984375 82.210909 
L 528.504375 82.210909 
" clip-path="url(#p39acf8b1b4)" style="fill: none; stroke: #d8dde3; stroke-width: 0.9; stroke-linecap: square"/>
     </g>
     <g id="line2d_24">
      <g>
       <use xlink:href="#md081f45f70" x="41.984375" y="82.210909" style="fill: #222831; stroke: #222831; stroke-width: 0.8"/>
      </g>
     </g>
     <g id="text_13">
      <!-- 2 -->
      <g style="fill: #222831" transform="translate(28.324375 87.490909) scale(0.12 -0.12)">
       <use xlink:href="#NotoSansCJKjp-Regular-13"/>
      </g>
     </g>
    </g>
    <g id="ytick_7">
     <g id="line2d_25">
      <path d="M 41.984375 46.229091 
L 528.504375 46.229091 
" clip-path="url(#p39acf8b1b4)" style="fill: none; stroke: #d8dde3; stroke-width: 0.9; stroke-linecap: square"/>
     </g>
     <g id="line2d_26">
      <g>
       <use xlink:href="#md081f45f70" x="41.984375" y="46.229091" style="fill: #222831; stroke: #222831; stroke-width: 0.8"/>
      </g>
     </g>
     <g id="text_14">
      <!-- 3 -->
      <g style="fill: #222831" transform="translate(28.324375 51.509091) scale(0.12 -0.12)">
       <use xlink:href="#NotoSansCJKjp-Regular-14"/>
      </g>
     </g>
    </g>
    <g id="text_15">
     <!-- 力 $F$ (N) -->
     <g style="fill: #222831" transform="translate(17.76 164.38) rotate(-90) scale(0.12 -0.12)">
      <defs>
       <path id="NotoSansCJKjp-Regular-2c71" d="M 2624 5363 
L 2624 4256 
L 2624 3981 
L 531 3981 
L 531 3488 
L 2598 3488 
C 2502 2285 2080 877 339 -160 
C 461 -243 634 -422 710 -538 
C 2573 595 3008 2157 3098 3488 
L 5293 3488 
C 5165 1229 5024 320 4794 102 
C 4717 19 4634 0 4499 0 
C 4339 0 3930 6 3488 45 
C 3584 -96 3642 -307 3654 -448 
C 4051 -467 4461 -480 4678 -461 
C 4928 -435 5075 -390 5229 -198 
C 5517 115 5645 1075 5792 3725 
C 5798 3795 5805 3981 5805 3981 
L 3123 3981 
L 3123 4256 
L 3123 5363 
L 2624 5363 
z
" transform="scale(0.015625)"/>
       <path id="Cmmi10-42" d="M 300 0 
Q 238 0 238 84 
Q 241 100 250 139 
Q 259 178 276 201 
Q 294 225 319 225 
Q 709 225 863 269 
Q 947 297 984 441 
L 1863 3956 
Q 1875 4019 1875 4044 
Q 1875 4113 1797 4122 
Q 1678 4147 1338 4147 
Q 1275 4147 1275 4231 
Q 1278 4247 1287 4286 
Q 1297 4325 1314 4348 
Q 1331 4372 1356 4372 
L 4738 4372 
Q 4800 4372 4800 4288 
L 4647 2963 
Q 4647 2944 4625 2925 
Q 4603 2906 4581 2906 
L 4525 2906 
Q 4459 2906 4459 2988 
Q 4500 3278 4500 3463 
Q 4500 3781 4362 3931 
Q 4225 4081 4015 4114 
Q 3806 4147 3438 4147 
L 2753 4147 
Q 2578 4147 2522 4117 
Q 2466 4088 2419 3928 
L 2009 2297 
L 2491 2297 
Q 2728 2297 2875 2322 
Q 3022 2347 3119 2419 
Q 3216 2491 3280 2627 
Q 3344 2763 3397 2988 
Q 3416 3047 3463 3047 
L 3519 3047 
Q 3584 3047 3584 2963 
L 3194 1381 
Q 3166 1325 3128 1325 
L 3072 1325 
Q 3009 1325 3009 1409 
Q 3025 1475 3034 1519 
Q 3044 1563 3058 1645 
Q 3072 1728 3072 1791 
Q 3072 1975 2909 2025 
Q 2747 2075 2484 2075 
L 1959 2075 
L 1544 416 
Q 1528 353 1528 353 
Q 1528 278 1575 269 
Q 1741 225 2228 225 
Q 2291 225 2291 141 
Q 2269 50 2256 25 
Q 2244 0 2181 0 
L 300 0 
z
" transform="scale(0.015625)"/>
       <path id="NotoSansCJKjp-Regular-2f" d="M 646 0 
L 1203 0 
L 1203 2464 
C 1203 2957 1158 3456 1133 3930 
L 1158 3930 
L 1664 2963 
L 3373 0 
L 3981 0 
L 3981 4691 
L 3418 4691 
L 3418 2253 
C 3418 1766 3462 1235 3501 768 
L 3469 768 
L 2963 1734 
L 1248 4691 
L 646 4691 
L 646 0 
z
" transform="scale(0.015625)"/>
      </defs>
      <use xlink:href="#NotoSansCJKjp-Regular-2c71" transform="translate(0 0.203125)"/>
      <use xlink:href="#NotoSansCJKjp-Regular-1" transform="translate(99.999908 0.203125)"/>
      <use xlink:href="#Cmmi10-42" transform="translate(122.399887 0.203125)"/>
      <use xlink:href="#NotoSansCJKjp-Regular-1" transform="translate(186.706528 0.203125)"/>
      <use xlink:href="#NotoSansCJKjp-Regular-9" transform="translate(209.106506 0.203125)"/>
      <use xlink:href="#NotoSansCJKjp-Regular-2f" transform="translate(242.906479 0.203125)"/>
      <use xlink:href="#NotoSansCJKjp-Regular-a" transform="translate(315.206406 0.203125)"/>
     </g>
    </g>
   </g>
   <g id="FillBetweenPolyCollection_1">
    <defs>
     <path id="mc26b655c46" d="M 41.984375 -151.105455 
L 41.984375 -151.105455 
L 44.25571 -151.105455 
L 46.527045 -151.105455 
L 48.798381 -151.105455 
L 51.069716 -151.105455 
L 53.341051 -151.105455 
L 55.612386 -151.105455 
L 57.883721 -151.105455 
L 60.155057 -151.105455 
L 62.426392 -151.105455 
L 64.697727 -151.105455 
L 66.969062 -151.105455 
L 69.240397 -151.105455 
L 71.511733 -151.105455 
L 73.783068 -151.105455 
L 76.054403 -151.105455 
L 78.325738 -151.105455 
L 80.597073 -151.105455 
L 82.868409 -151.105455 
L 85.139744 -151.105455 
L 87.411079 -151.105455 
L 89.682414 -151.105455 
L 91.953749 -151.105455 
L 94.225085 -151.105455 
L 96.49642 -151.105455 
L 98.767755 -151.105455 
L 101.03909 -151.105455 
L 103.310425 -151.105455 
L 105.581761 -151.105455 
L 107.853096 -151.105455 
L 110.124431 -151.105455 
L 112.395766 -151.105455 
L 114.667101 -151.105455 
L 116.938437 -151.105455 
L 119.209772 -151.105455 
L 121.481107 -151.105455 
L 123.752442 -151.105455 
L 126.023777 -151.105455 
L 128.295113 -151.105455 
L 130.566448 -151.105455 
L 132.837783 -151.105455 
L 135.109118 -151.105455 
L 137.380453 -151.105455 
L 139.651789 -151.105455 
L 141.923124 -151.105455 
L 144.194459 -151.105455 
L 146.465794 -151.105455 
L 148.737129 -151.105455 
L 151.008465 -151.105455 
L 153.2798 -151.105455 
L 155.551135 -151.105455 
L 157.82247 -151.105455 
L 160.093805 -151.105455 
L 162.365141 -151.105455 
L 164.636476 -151.105455 
L 166.907811 -151.105455 
L 169.179146 -151.105455 
L 171.450481 -151.105455 
L 173.721817 -151.105455 
L 175.993152 -151.105455 
L 178.264487 -151.105455 
L 180.535822 -151.105455 
L 182.807157 -151.105455 
L 185.078493 -151.105455 
L 187.349828 -151.105455 
L 189.621163 -151.105455 
L 191.892498 -151.105455 
L 194.163833 -151.105455 
L 196.435169 -151.105455 
L 198.706504 -151.105455 
L 200.977839 -151.105455 
L 203.249174 -151.105455 
L 205.520509 -151.105455 
L 207.791845 -151.105455 
L 210.06318 -151.105455 
L 212.334515 -151.105455 
L 214.60585 -151.105455 
L 216.877185 -151.105455 
L 219.148521 -151.105455 
L 221.419856 -151.105455 
L 223.691191 -151.105455 
L 225.962526 -151.105455 
L 228.233861 -151.105455 
L 230.505197 -151.105455 
L 232.776532 -151.105455 
L 235.047867 -151.105455 
L 237.319202 -151.105455 
L 239.590537 -151.105455 
L 241.861873 -151.105455 
L 244.133208 -151.105455 
L 246.404543 -151.105455 
L 248.675878 -151.105455 
L 250.947213 -151.105455 
L 253.218549 -151.105455 
L 255.489884 -151.105455 
L 257.761219 -151.105455 
L 260.032554 -151.105455 
L 262.303889 -151.105455 
L 264.575225 -151.105455 
L 266.84656 -151.105455 
L 269.117895 -151.105455 
L 271.38923 -151.105455 
L 273.660565 -151.105455 
L 275.931901 -151.105455 
L 278.203236 -151.105455 
L 280.474571 -151.105455 
L 282.745906 -151.105455 
L 285.017241 -151.105455 
L 287.288577 -151.105455 
L 289.559912 -151.105455 
L 291.831247 -151.105455 
L 294.102582 -151.105455 
L 296.373917 -151.105455 
L 298.645253 -151.105455 
L 300.916588 -151.105455 
L 303.187923 -151.105455 
L 305.459258 -151.105455 
L 307.730593 -151.105455 
L 310.001929 -151.105455 
L 312.273264 -151.105455 
L 312.273264 -151.105455 
L 312.273264 -151.105455 
L 310.001929 -153.954877 
L 307.730593 -156.802313 
L 305.459258 -159.64578 
L 303.187923 -162.483294 
L 300.916588 -165.312879 
L 298.645253 -168.132563 
L 296.373917 -170.94038 
L 294.102582 -173.734374 
L 291.831247 -176.512597 
L 289.559912 -179.273114 
L 287.288577 -182.014 
L 285.017241 -184.733346 
L 282.745906 -187.429255 
L 280.474571 -190.09985 
L 278.203236 -192.74327 
L 275.931901 -195.357671 
L 273.660565 -197.941232 
L 271.38923 -200.492152 
L 269.117895 -203.008655 
L 266.84656 -205.488985 
L 264.575225 -207.931414 
L 262.303889 -210.33424 
L 260.032554 -212.695789 
L 257.761219 -215.014414 
L 255.489884 -217.2885 
L 253.218549 -219.516462 
L 250.947213 -221.696748 
L 248.675878 -223.827837 
L 246.404543 -225.908245 
L 244.133208 -227.936521 
L 241.861873 -229.911253 
L 239.590537 -231.831064 
L 237.319202 -233.694615 
L 235.047867 -235.500609 
L 232.776532 -237.247787 
L 230.505197 -238.93493 
L 228.233861 -240.560864 
L 225.962526 -242.124455 
L 223.691191 -243.624613 
L 221.419856 -245.060294 
L 219.148521 -246.430495 
L 216.877185 -247.734263 
L 214.60585 -248.970689 
L 212.334515 -250.138911 
L 210.06318 -251.238114 
L 207.791845 -252.267534 
L 205.520509 -253.226452 
L 203.249174 -254.114201 
L 200.977839 -254.930161 
L 198.706504 -255.673764 
L 196.435169 -256.344491 
L 194.163833 -256.941876 
L 191.892498 -257.465501 
L 189.621163 -257.915003 
L 187.349828 -258.290067 
L 185.078493 -258.590433 
L 182.807157 -258.81589 
L 180.535822 -258.966283 
L 178.264487 -259.041505 
L 175.993152 -259.041505 
L 173.721817 -258.966283 
L 171.450481 -258.81589 
L 169.179146 -258.590433 
L 166.907811 -258.290067 
L 164.636476 -257.915003 
L 162.365141 -257.465501 
L 160.093805 -256.941876 
L 157.82247 -256.344491 
L 155.551135 -255.673764 
L 153.2798 -254.930161 
L 151.008465 -254.114201 
L 148.737129 -253.226452 
L 146.465794 -252.267534 
L 144.194459 -251.238114 
L 141.923124 -250.138911 
L 139.651789 -248.970689 
L 137.380453 -247.734263 
L 135.109118 -246.430495 
L 132.837783 -245.060294 
L 130.566448 -243.624613 
L 128.295113 -242.124455 
L 126.023777 -240.560864 
L 123.752442 -238.93493 
L 121.481107 -237.247787 
L 119.209772 -235.500609 
L 116.938437 -233.694615 
L 114.667101 -231.831064 
L 112.395766 -229.911253 
L 110.124431 -227.936521 
L 107.853096 -225.908245 
L 105.581761 -223.827837 
L 103.310425 -221.696748 
L 101.03909 -219.516462 
L 98.767755 -217.2885 
L 96.49642 -215.014414 
L 94.225085 -212.695789 
L 91.953749 -210.33424 
L 89.682414 -207.931414 
L 87.411079 -205.488985 
L 85.139744 -203.008655 
L 82.868409 -200.492152 
L 80.597073 -197.941232 
L 78.325738 -195.357671 
L 76.054403 -192.74327 
L 73.783068 -190.09985 
L 71.511733 -187.429255 
L 69.240397 -184.733346 
L 66.969062 -182.014 
L 64.697727 -179.273114 
L 62.426392 -176.512597 
L 60.155057 -173.734374 
L 57.883721 -170.94038 
L 55.612386 -168.132563 
L 53.341051 -165.312879 
L 51.069716 -162.483294 
L 48.798381 -159.64578 
L 46.527045 -156.802313 
L 44.25571 -153.954877 
L 41.984375 -151.105455 
z
" style="stroke: #1f6feb; stroke-opacity: 0.16"/>
    </defs>
    <g clip-path="url(#p39acf8b1b4)">
     <use xlink:href="#mc26b655c46" x="0" y="305.28" style="fill: #1f6feb; fill-opacity: 0.16; stroke: #1f6feb; stroke-opacity: 0.16"/>
    </g>
   </g>
   <g id="FillBetweenPolyCollection_2">
    <defs>
     <path id="m4c7c298876" d="M 312.273264 -151.105455 
L 312.273264 -151.105455 
L 314.093391 -151.105455 
L 315.913518 -151.105455 
L 317.733645 -151.105455 
L 319.553773 -151.105455 
L 321.3739 -151.105455 
L 323.194027 -151.105455 
L 325.014154 -151.105455 
L 326.834281 -151.105455 
L 328.654409 -151.105455 
L 330.474536 -151.105455 
L 332.294663 -151.105455 
L 334.11479 -151.105455 
L 335.934917 -151.105455 
L 337.755045 -151.105455 
L 339.575172 -151.105455 
L 341.395299 -151.105455 
L 343.215426 -151.105455 
L 345.035553 -151.105455 
L 346.855681 -151.105455 
L 348.675808 -151.105455 
L 350.495935 -151.105455 
L 352.316062 -151.105455 
L 354.136189 -151.105455 
L 355.956317 -151.105455 
L 357.776444 -151.105455 
L 359.596571 -151.105455 
L 361.416698 -151.105455 
L 363.236825 -151.105455 
L 365.056953 -151.105455 
L 366.87708 -151.105455 
L 368.697207 -151.105455 
L 370.517334 -151.105455 
L 372.337461 -151.105455 
L 374.157589 -151.105455 
L 375.977716 -151.105455 
L 377.797843 -151.105455 
L 379.61797 -151.105455 
L 381.438097 -151.105455 
L 383.258225 -151.105455 
L 385.078352 -151.105455 
L 386.898479 -151.105455 
L 388.718606 -151.105455 
L 390.538733 -151.105455 
L 392.358861 -151.105455 
L 394.178988 -151.105455 
L 395.999115 -151.105455 
L 397.819242 -151.105455 
L 399.639369 -151.105455 
L 401.459497 -151.105455 
L 403.279624 -151.105455 
L 405.099751 -151.105455 
L 406.919878 -151.105455 
L 408.740005 -151.105455 
L 410.560133 -151.105455 
L 412.38026 -151.105455 
L 414.200387 -151.105455 
L 416.020514 -151.105455 
L 417.840641 -151.105455 
L 419.660769 -151.105455 
L 421.480896 -151.105455 
L 423.301023 -151.105455 
L 425.12115 -151.105455 
L 426.941277 -151.105455 
L 428.761405 -151.105455 
L 430.581532 -151.105455 
L 432.401659 -151.105455 
L 434.221786 -151.105455 
L 436.041913 -151.105455 
L 437.862041 -151.105455 
L 439.682168 -151.105455 
L 441.502295 -151.105455 
L 443.322422 -151.105455 
L 445.142549 -151.105455 
L 446.962677 -151.105455 
L 448.782804 -151.105455 
L 450.602931 -151.105455 
L 452.423058 -151.105455 
L 454.243185 -151.105455 
L 456.063313 -151.105455 
L 457.88344 -151.105455 
L 459.703567 -151.105455 
L 461.523694 -151.105455 
L 463.343821 -151.105455 
L 465.163949 -151.105455 
L 466.984076 -151.105455 
L 468.804203 -151.105455 
L 470.62433 -151.105455 
L 472.444457 -151.105455 
L 474.264585 -151.105455 
L 476.084712 -151.105455 
L 477.904839 -151.105455 
L 479.724966 -151.105455 
L 481.545093 -151.105455 
L 483.36522 -151.105455 
L 485.185348 -151.105455 
L 487.005475 -151.105455 
L 488.825602 -151.105455 
L 490.645729 -151.105455 
L 492.465856 -151.105455 
L 492.465856 -151.105455 
L 492.465856 -151.105455 
L 490.645729 -148.593871 
L 488.825602 -146.084817 
L 487.005475 -143.580818 
L 485.185348 -141.084396 
L 483.36522 -138.598064 
L 481.545093 -136.124326 
L 479.724966 -133.665673 
L 477.904839 -131.22458 
L 476.084712 -128.803505 
L 474.264585 -126.404887 
L 472.444457 -124.03114 
L 470.62433 -121.684655 
L 468.804203 -119.367793 
L 466.984076 -117.082889 
L 465.163949 -114.832243 
L 463.343821 -112.618121 
L 461.523694 -110.442752 
L 459.703567 -108.308327 
L 457.88344 -106.216996 
L 456.063313 -104.170863 
L 454.243185 -102.171989 
L 452.423058 -100.222387 
L 450.602931 -98.32402 
L 448.782804 -96.4788 
L 446.962677 -94.688584 
L 445.142549 -92.955175 
L 443.322422 -91.280318 
L 441.502295 -89.6657 
L 439.682168 -88.112947 
L 437.862041 -86.623622 
L 436.041913 -85.199225 
L 434.221786 -83.84119 
L 432.401659 -82.550884 
L 430.581532 -81.329606 
L 428.761405 -80.178587 
L 426.941277 -79.098986 
L 425.12115 -78.091889 
L 423.301023 -77.15831 
L 421.480896 -76.29919 
L 419.660769 -75.515393 
L 417.840641 -74.807709 
L 416.020514 -74.176851 
L 414.200387 -73.623453 
L 412.38026 -73.148073 
L 410.560133 -72.751189 
L 408.740005 -72.433202 
L 406.919878 -72.19443 
L 405.099751 -72.035116 
L 403.279624 -71.955419 
L 401.459497 -71.955419 
L 399.639369 -72.035116 
L 397.819242 -72.19443 
L 395.999115 -72.433202 
L 394.178988 -72.751189 
L 392.358861 -73.148073 
L 390.538733 -73.623453 
L 388.718606 -74.176851 
L 386.898479 -74.807709 
L 385.078352 -75.515393 
L 383.258225 -76.29919 
L 381.438097 -77.15831 
L 379.61797 -78.091889 
L 377.797843 -79.098986 
L 375.977716 -80.178587 
L 374.157589 -81.329606 
L 372.337461 -82.550884 
L 370.517334 -83.84119 
L 368.697207 -85.199225 
L 366.87708 -86.623622 
L 365.056953 -88.112947 
L 363.236825 -89.6657 
L 361.416698 -91.280318 
L 359.596571 -92.955175 
L 357.776444 -94.688584 
L 355.956317 -96.4788 
L 354.136189 -98.32402 
L 352.316062 -100.222387 
L 350.495935 -102.171989 
L 348.675808 -104.170863 
L 346.855681 -106.216996 
L 345.035553 -108.308327 
L 343.215426 -110.442752 
L 341.395299 -112.618121 
L 339.575172 -114.832243 
L 337.755045 -117.082889 
L 335.934917 -119.367793 
L 334.11479 -121.684655 
L 332.294663 -124.03114 
L 330.474536 -126.404887 
L 328.654409 -128.803505 
L 326.834281 -131.22458 
L 325.014154 -133.665673 
L 323.194027 -136.124326 
L 321.3739 -138.598064 
L 319.553773 -141.084396 
L 317.733645 -143.580818 
L 315.913518 -146.084817 
L 314.093391 -148.593871 
L 312.273264 -151.105455 
z
" style="stroke: #d1242f; stroke-opacity: 0.16"/>
    </defs>
    <g clip-path="url(#p39acf8b1b4)">
     <use xlink:href="#m4c7c298876" x="0" y="305.28" style="fill: #d1242f; fill-opacity: 0.16; stroke: #d1242f; stroke-opacity: 0.16"/>
    </g>
   </g>
   <g id="line2d_27">
    <path d="M 41.984375 154.174545 
L 44.25571 151.325123 
L 46.527045 148.477687 
L 48.798381 145.63422 
L 51.069716 142.796706 
L 53.341051 139.967121 
L 55.612386 137.147437 
L 57.883721 134.33962 
L 60.155057 131.545626 
L 62.426392 128.767403 
L 64.697727 126.006886 
L 66.969062 123.266 
L 69.240397 120.546654 
L 71.511733 117.850745 
L 73.783068 115.18015 
L 76.054403 112.53673 
L 78.325738 109.922329 
L 80.597073 107.338768 
L 82.868409 104.787848 
L 85.139744 102.271345 
L 87.411079 99.791015 
L 89.682414 97.348586 
L 91.953749 94.94576 
L 94.225085 92.584211 
L 96.49642 90.265586 
L 98.767755 87.9915 
L 101.03909 85.763538 
L 103.310425 83.583252 
L 105.581761 81.452163 
L 107.853096 79.371755 
L 110.124431 77.343479 
L 112.395766 75.368747 
L 114.667101 73.448936 
L 116.938437 71.585385 
L 119.209772 69.779391 
L 121.481107 68.032213 
L 123.752442 66.34507 
L 126.023777 64.719136 
L 128.295113 63.155545 
L 130.566448 61.655387 
L 132.837783 60.219706 
L 135.109118 58.849505 
L 137.380453 57.545737 
L 139.651789 56.309311 
L 141.923124 55.141089 
L 144.194459 54.041886 
L 146.465794 53.012466 
L 148.737129 52.053548 
L 151.008465 51.165799 
L 153.2798 50.349839 
L 155.551135 49.606236 
L 157.82247 48.935509 
L 160.093805 48.338124 
L 162.365141 47.814499 
L 164.636476 47.364997 
L 166.907811 46.989933 
L 169.179146 46.689567 
L 171.450481 46.46411 
L 173.721817 46.313717 
L 175.993152 46.238495 
L 178.264487 46.238495 
L 180.535822 46.313717 
L 182.807157 46.46411 
L 185.078493 46.689567 
L 187.349828 46.989933 
L 189.621163 47.364997 
L 191.892498 47.814499 
L 194.163833 48.338124 
L 196.435169 48.935509 
L 198.706504 49.606236 
L 200.977839 50.349839 
L 203.249174 51.165799 
L 205.520509 52.053548 
L 207.791845 53.012466 
L 210.06318 54.041886 
L 212.334515 55.141089 
L 214.60585 56.309311 
L 216.877185 57.545737 
L 219.148521 58.849505 
L 221.419856 60.219706 
L 223.691191 61.655387 
L 225.962526 63.155545 
L 228.233861 64.719136 
L 230.505197 66.34507 
L 232.776532 68.032213 
L 235.047867 69.779391 
L 237.319202 71.585385 
L 239.590537 73.448936 
L 241.861873 75.368747 
L 244.133208 77.343479 
L 246.404543 79.371755 
L 248.675878 81.452163 
L 250.947213 83.583252 
L 253.218549 85.763538 
L 255.489884 87.9915 
L 257.761219 90.265586 
L 260.032554 92.584211 
L 262.303889 94.94576 
L 264.575225 97.348586 
L 266.84656 99.791015 
L 269.117895 102.271345 
L 271.38923 104.787848 
L 273.660565 107.338768 
L 275.931901 109.922329 
L 278.203236 112.53673 
L 280.474571 115.18015 
L 282.745906 117.850745 
L 285.017241 120.546654 
L 287.288577 123.266 
L 289.559912 126.006886 
L 291.831247 128.767403 
L 294.102582 131.545626 
L 296.373917 134.33962 
L 298.645253 137.147437 
L 300.916588 139.967121 
L 303.187923 142.796706 
L 305.459258 145.63422 
L 307.730593 148.477687 
L 310.001929 151.325123 
L 312.273264 154.174545 
" clip-path="url(#p39acf8b1b4)" style="fill: none; stroke: #1f6feb; stroke-width: 2.6; stroke-linecap: square"/>
   </g>
   <g id="line2d_28">
    <path d="M 312.273264 154.174545 
L 314.093391 156.686129 
L 315.913518 159.195183 
L 317.733645 161.699182 
L 319.553773 164.195604 
L 321.3739 166.681936 
L 323.194027 169.155674 
L 325.014154 171.614327 
L 326.834281 174.05542 
L 328.654409 176.476495 
L 330.474536 178.875113 
L 332.294663 181.24886 
L 334.11479 183.595345 
L 335.934917 185.912207 
L 337.755045 188.197111 
L 339.575172 190.447757 
L 341.395299 192.661879 
L 343.215426 194.837248 
L 345.035553 196.971673 
L 346.855681 199.063004 
L 348.675808 201.109137 
L 350.495935 203.108011 
L 352.316062 205.057613 
L 354.136189 206.95598 
L 355.956317 208.8012 
L 357.776444 210.591416 
L 359.596571 212.324825 
L 361.416698 213.999682 
L 363.236825 215.6143 
L 365.056953 217.167053 
L 366.87708 218.656378 
L 368.697207 220.080775 
L 370.517334 221.43881 
L 372.337461 222.729116 
L 374.157589 223.950394 
L 375.977716 225.101413 
L 377.797843 226.181014 
L 379.61797 227.188111 
L 381.438097 228.12169 
L 383.258225 228.98081 
L 385.078352 229.764607 
L 386.898479 230.472291 
L 388.718606 231.103149 
L 390.538733 231.656547 
L 392.358861 232.131927 
L 394.178988 232.528811 
L 395.999115 232.846798 
L 397.819242 233.08557 
L 399.639369 233.244884 
L 401.459497 233.324581 
L 403.279624 233.324581 
L 405.099751 233.244884 
L 406.919878 233.08557 
L 408.740005 232.846798 
L 410.560133 232.528811 
L 412.38026 232.131927 
L 414.200387 231.656547 
L 416.020514 231.103149 
L 417.840641 230.472291 
L 419.660769 229.764607 
L 421.480896 228.98081 
L 423.301023 228.12169 
L 425.12115 227.188111 
L 426.941277 226.181014 
L 428.761405 225.101413 
L 430.581532 223.950394 
L 432.401659 222.729116 
L 434.221786 221.43881 
L 436.041913 220.080775 
L 437.862041 218.656378 
L 439.682168 217.167053 
L 441.502295 215.6143 
L 443.322422 213.999682 
L 445.142549 212.324825 
L 446.962677 210.591416 
L 448.782804 208.8012 
L 450.602931 206.95598 
L 452.423058 205.057613 
L 454.243185 203.108011 
L 456.063313 201.109137 
L 457.88344 199.063004 
L 459.703567 196.971673 
L 461.523694 194.837248 
L 463.343821 192.661879 
L 465.163949 190.447757 
L 466.984076 188.197111 
L 468.804203 185.912207 
L 470.62433 183.595345 
L 472.444457 181.24886 
L 474.264585 178.875113 
L 476.084712 176.476495 
L 477.904839 174.05542 
L 479.724966 171.614327 
L 481.545093 169.155674 
L 483.36522 166.681936 
L 485.185348 164.195604 
L 487.005475 161.699182 
L 488.825602 159.195183 
L 490.645729 156.686129 
L 492.465856 154.174545 
" clip-path="url(#p39acf8b1b4)" style="fill: none; stroke: #d1242f; stroke-width: 2.6; stroke-linecap: square"/>
   </g>
   <g id="line2d_29">
    <path d="M 41.984375 154.174545 
L 528.504375 154.174545 
" clip-path="url(#p39acf8b1b4)" style="fill: none; stroke: #222831; stroke-width: 1.3; stroke-linecap: square"/>
   </g>
   <g id="patch_3">
    <path d="M 41.984375 262.12 
L 41.984375 24.64 
" style="fill: none; stroke: #222831; stroke-width: 1.1; stroke-linejoin: miter; stroke-linecap: square"/>
   </g>
   <g id="patch_4">
    <path d="M 41.984375 262.12 
L 528.504375 262.12 
" style="fill: none; stroke: #222831; stroke-width: 1.1; stroke-linejoin: miter; stroke-linecap: square"/>
   </g>
   <g id="text_16">
    <!-- 上方面積 -->
    <g style="fill: #1f6feb" transform="translate(153.128819 98.996364) scale(0.12 -0.12)">
     <defs>
      <path id="NotoSansCJKjp-Regular-2515" d="M 2733 5280 
L 2733 275 
L 326 275 
L 326 -205 
L 6080 -205 
L 6080 275 
L 3238 275 
L 3238 2822 
L 5638 2822 
L 5638 3302 
L 3238 3302 
L 3238 5280 
L 2733 5280 
z
" transform="scale(0.015625)"/>
      <path id="NotoSansCJKjp-Regular-4ea0" d="M 2931 5395 
L 2931 4269 
L 339 4269 
L 339 3808 
L 2310 3808 
C 2240 2330 2054 666 269 -147 
C 397 -243 544 -416 621 -538 
C 1926 90 2438 1152 2669 2298 
L 4787 2298 
C 4685 819 4557 186 4371 19 
C 4294 -51 4211 -58 4064 -58 
C 3898 -58 3443 -51 2982 -13 
C 3078 -147 3142 -346 3155 -480 
C 3584 -506 4013 -512 4230 -499 
C 4480 -486 4634 -435 4781 -282 
C 5030 -26 5165 685 5293 2522 
C 5306 2598 5312 2758 5312 2758 
L 2746 2758 
C 2790 3110 2822 3462 2842 3808 
L 6067 3808 
L 6067 4269 
L 3424 4269 
L 3424 5395 
L 2931 5395 
z
" transform="scale(0.015625)"/>
      <path id="NotoSansCJKjp-Regular-aaab" d="M 2490 2138 
L 3846 2138 
L 3846 1414 
L 2490 1414 
L 2490 2138 
z
M 2490 2528 
L 2490 3238 
L 3846 3238 
L 3846 2528 
L 2490 2528 
z
M 2490 1024 
L 3846 1024 
L 3846 275 
L 2490 275 
L 2490 1024 
z
M 371 4954 
L 371 4493 
L 2842 4493 
C 2797 4230 2726 3930 2662 3686 
L 666 3686 
L 666 -512 
L 1126 -512 
L 1126 -173 
L 5248 -173 
L 5248 -512 
L 5734 -512 
L 5734 3686 
L 3155 3686 
L 3405 4493 
L 6048 4493 
L 6048 4954 
L 371 4954 
z
M 1126 275 
L 1126 3238 
L 2048 3238 
L 2048 275 
L 1126 275 
z
M 5248 275 
L 4288 275 
L 4288 3238 
L 5248 3238 
L 5248 275 
z
" transform="scale(0.015625)"/>
      <path id="NotoSansCJKjp-Regular-7289" d="M 3341 1997 
L 5318 1997 
L 5318 1581 
L 3341 1581 
L 3341 1997 
z
M 3341 1267 
L 5318 1267 
L 5318 845 
L 3341 845 
L 3341 1267 
z
M 3341 2720 
L 5318 2720 
L 5318 2310 
L 3341 2310 
L 3341 2720 
z
M 2899 3053 
L 2899 512 
L 5773 512 
L 5773 3053 
L 2899 3053 
z
M 4640 224 
C 5056 -19 5510 -320 5773 -518 
L 6195 -282 
C 5894 -70 5395 224 4966 467 
L 4640 224 
z
M 3622 486 
C 3322 224 2714 -70 2189 -224 
C 2285 -307 2426 -448 2502 -538 
C 3021 -371 3648 -64 4032 243 
L 3622 486 
z
M 2477 3712 
L 2477 3597 
L 1779 3597 
L 1779 4672 
C 2080 4742 2355 4819 2586 4915 
L 2253 5286 
C 1798 5082 986 4909 288 4806 
C 346 4698 410 4538 429 4435 
C 710 4467 1011 4518 1312 4570 
L 1312 3597 
L 320 3597 
L 320 3149 
L 1267 3149 
C 1011 2406 570 1562 154 1101 
C 230 986 352 794 403 659 
C 723 1050 1050 1677 1312 2317 
L 1312 -499 
L 1779 -499 
L 1779 2266 
C 1990 2003 2240 1670 2336 1498 
L 2624 1875 
C 2502 2022 1978 2560 1779 2746 
L 1779 3149 
L 2502 3149 
L 2502 3373 
L 6138 3373 
L 6138 3712 
L 4518 3712 
L 4518 4051 
L 5818 4051 
L 5818 4365 
L 4518 4365 
L 4518 4691 
L 5984 4691 
L 5984 5024 
L 4518 5024 
L 4518 5376 
L 4045 5376 
L 4045 5024 
L 2669 5024 
L 2669 4691 
L 4045 4691 
L 4045 4365 
L 2816 4365 
L 2816 4051 
L 4045 4051 
L 4045 3712 
L 2477 3712 
z
" transform="scale(0.015625)"/>
     </defs>
     <use xlink:href="#NotoSansCJKjp-Regular-2515"/>
     <use xlink:href="#NotoSansCJKjp-Regular-4ea0" transform="translate(100 0)"/>
     <use xlink:href="#NotoSansCJKjp-Regular-aaab" transform="translate(200 0)"/>
     <use xlink:href="#NotoSansCJKjp-Regular-7289" transform="translate(300 0)"/>
    </g>
    <!-- 為正功 $W_1&gt;0$ -->
    <g style="fill: #1f6feb" transform="translate(139.568819 110.996364) scale(0.12 -0.12)">
     <defs>
      <path id="NotoSansCJKjp-Regular-61a1" d="M 4083 1197 
C 4275 934 4474 563 4550 326 
L 4902 474 
C 4826 704 4621 1069 4416 1325 
L 4083 1197 
z
M 1312 5184 
C 1562 4915 1830 4544 1946 4294 
L 2387 4499 
C 2259 4742 1978 5107 1734 5357 
L 1312 5184 
z
M 2182 1043 
C 2298 627 2368 96 2349 -250 
L 2771 -186 
C 2771 160 2707 685 2579 1094 
L 2182 1043 
z
M 3130 1101 
C 3283 742 3437 275 3482 -26 
L 3885 83 
C 3827 378 3674 838 3501 1184 
L 3130 1101 
z
M 1363 1184 
C 1242 691 992 122 640 -218 
L 1011 -474 
C 1395 -90 1619 525 1766 1056 
L 1363 1184 
z
M 3251 5382 
C 3142 5011 3008 4640 2848 4282 
L 525 4282 
L 525 3840 
L 2637 3840 
C 2086 2765 1280 1798 192 1178 
C 275 1075 397 890 454 774 
C 832 998 1178 1254 1491 1542 
L 5472 1542 
C 5370 525 5267 96 5126 -32 
C 5069 -90 5005 -96 4890 -96 
C 4768 -102 4461 -96 4134 -64 
C 4211 -192 4269 -378 4275 -506 
C 4608 -525 4922 -525 5088 -512 
C 5280 -499 5402 -461 5523 -333 
C 5728 -128 5843 410 5965 1760 
C 5971 1824 5984 1965 5984 1965 
L 5286 1965 
C 5370 2298 5459 2746 5530 3123 
L 4800 3123 
C 4883 3456 4979 3898 5050 4282 
L 3373 4282 
C 3507 4602 3629 4928 3738 5261 
L 3251 5382 
z
M 1914 1965 
C 2125 2195 2323 2445 2502 2701 
L 5005 2701 
C 4960 2445 4896 2182 4838 1965 
L 1914 1965 
z
M 3168 3840 
L 4518 3840 
C 4467 3584 4410 3328 4352 3123 
L 2778 3123 
C 2918 3354 3046 3597 3168 3840 
z
" transform="scale(0.015625)"/>
      <path id="NotoSansCJKjp-Regular-585c" d="M 1203 3264 
L 1203 243 
L 333 243 
L 333 -224 
L 6080 -224 
L 6080 243 
L 3616 243 
L 3616 2259 
L 5619 2259 
L 5619 2726 
L 3616 2726 
L 3616 4435 
L 5869 4435 
L 5869 4909 
L 576 4909 
L 576 4435 
L 3110 4435 
L 3110 243 
L 1696 243 
L 1696 3264 
L 1203 3264 
z
" transform="scale(0.015625)"/>
      <path id="NotoSansCJKjp-Regular-2c75" d="M 243 1165 
L 358 672 
C 1043 858 1965 1120 2835 1370 
L 2778 1824 
L 1747 1549 
L 1747 4160 
L 2682 4160 
L 2682 4621 
L 326 4621 
L 326 4160 
L 1274 4160 
L 1274 1421 
C 883 1318 525 1229 243 1165 
z
M 3821 5274 
C 3821 4806 3814 4352 3802 3910 
L 2726 3910 
L 2726 3450 
L 3782 3450 
C 3686 1888 3334 595 1965 -141 
C 2086 -230 2246 -397 2310 -518 
C 3776 301 4154 1747 4256 3450 
L 5536 3450 
C 5446 1171 5338 301 5152 102 
C 5082 19 5018 0 4883 0 
C 4742 0 4384 6 3987 38 
C 4077 -90 4128 -294 4141 -435 
C 4506 -454 4877 -461 5082 -442 
C 5299 -422 5440 -371 5581 -192 
C 5824 102 5914 1024 6016 3674 
C 6016 3738 6016 3910 6016 3910 
L 4282 3910 
C 4294 4352 4301 4806 4301 5274 
L 3821 5274 
z
" transform="scale(0.015625)"/>
      <path id="Cmmi10-50" d="M 1141 -72 
L 844 4006 
Q 822 4100 703 4123 
Q 584 4147 409 4147 
Q 347 4147 347 4231 
Q 369 4313 381 4342 
Q 394 4372 453 4372 
L 1978 4372 
Q 2041 4372 2041 4288 
Q 2016 4147 1959 4147 
Q 1447 4147 1416 3969 
L 1644 738 
L 3244 3525 
L 3213 4006 
Q 3191 4100 3072 4123 
Q 2953 4147 2778 4147 
Q 2713 4147 2713 4231 
Q 2734 4313 2746 4342 
Q 2759 4372 2822 4372 
L 4347 4372 
Q 4409 4372 4409 4288 
Q 4406 4272 4397 4234 
Q 4388 4197 4372 4172 
Q 4356 4147 4325 4147 
Q 3809 4147 3781 3969 
L 3781 3922 
L 4013 738 
L 5753 3775 
Q 5791 3844 5791 3909 
Q 5791 4041 5662 4094 
Q 5534 4147 5375 4147 
Q 5313 4147 5313 4231 
Q 5325 4281 5333 4309 
Q 5341 4338 5361 4355 
Q 5381 4372 5422 4372 
L 6644 4372 
Q 6706 4372 6706 4288 
Q 6703 4272 6693 4233 
Q 6684 4194 6667 4170 
Q 6650 4147 6625 4147 
Q 6169 4147 5931 3731 
Q 5913 3713 5913 3713 
L 3744 -72 
Q 3709 -141 3634 -141 
L 3584 -141 
Q 3506 -141 3506 -72 
L 3263 3225 
L 1381 -72 
Q 1334 -141 1269 -141 
L 1216 -141 
Q 1141 -141 1141 -72 
z
" transform="scale(0.015625)"/>
      <path id="Cmr10-64" d="M 594 0 
L 594 225 
Q 1394 225 1394 428 
L 1394 3788 
Q 1063 3628 556 3628 
L 556 3853 
Q 1341 3853 1741 4263 
L 1831 4263 
Q 1853 4263 1873 4245 
Q 1894 4228 1894 4206 
L 1894 428 
Q 1894 225 2694 225 
L 2694 0 
L 594 0 
z
" transform="scale(0.015625)"/>
      <path id="Cmmi10-6b" d="M 531 -128 
Q 531 -47 616 -6 
L 4013 1600 
L 594 3219 
Q 531 3238 531 3328 
Q 531 3372 567 3414 
Q 603 3456 659 3456 
Q 672 3456 709 3444 
L 4384 1709 
Q 4441 1681 4441 1600 
Q 4441 1516 4366 1484 
L 709 -244 
Q 672 -256 659 -256 
Q 603 -256 567 -214 
Q 531 -172 531 -128 
z
" transform="scale(0.015625)"/>
      <path id="Cmr10-28" d="M 1600 -141 
Q 816 -141 533 504 
Q 250 1150 250 2041 
Q 250 2597 351 3087 
Q 453 3578 754 3920 
Q 1056 4263 1600 4263 
Q 2022 4263 2290 4056 
Q 2559 3850 2700 3523 
Q 2841 3197 2892 2823 
Q 2944 2450 2944 2041 
Q 2944 1491 2842 1011 
Q 2741 531 2444 195 
Q 2147 -141 1600 -141 
z
M 1600 25 
Q 1956 25 2131 390 
Q 2306 756 2347 1200 
Q 2388 1644 2388 2144 
Q 2388 2625 2347 3031 
Q 2306 3438 2132 3767 
Q 1959 4097 1600 4097 
Q 1238 4097 1063 3765 
Q 888 3434 847 3029 
Q 806 2625 806 2144 
Q 806 1788 823 1472 
Q 841 1156 916 820 
Q 991 484 1158 254 
Q 1325 25 1600 25 
z
" transform="scale(0.015625)"/>
     </defs>
     <use xlink:href="#NotoSansCJKjp-Regular-61a1" transform="translate(0 0.90625)"/>
     <use xlink:href="#NotoSansCJKjp-Regular-585c" transform="translate(99.999908 0.90625)"/>
     <use xlink:href="#NotoSansCJKjp-Regular-2c75" transform="translate(199.999817 0.90625)"/>
     <use xlink:href="#NotoSansCJKjp-Regular-1" transform="translate(299.999725 0.90625)"/>
     <use xlink:href="#Cmmi10-50" transform="translate(322.399704 0.90625)"/>
     <use xlink:href="#Cmr10-64" transform="translate(416.78447 -14.093712) scale(0.7)"/>
     <use xlink:href="#Cmmi10-6b" transform="translate(477.504942 0.90625)"/>
     <use xlink:href="#Cmr10-28" transform="translate(575.190546 0.90625)"/>
    </g>
   </g>
   <g id="text_17">
    <!-- 下方面積 -->
    <g style="fill: #d1242f" transform="translate(378.36956 185.352727) scale(0.12 -0.12)">
     <defs>
      <path id="NotoSansCJKjp-Regular-2516" d="M 352 4902 
L 352 4422 
L 2822 4422 
L 2822 -506 
L 3328 -506 
L 3328 2886 
C 4064 2490 4922 1958 5370 1600 
L 5709 2035 
C 5197 2426 4179 3002 3418 3373 
L 3328 3270 
L 3328 4422 
L 6054 4422 
L 6054 4902 
L 352 4902 
z
" transform="scale(0.015625)"/>
     </defs>
     <use xlink:href="#NotoSansCJKjp-Regular-2516"/>
     <use xlink:href="#NotoSansCJKjp-Regular-4ea0" transform="translate(100 0)"/>
     <use xlink:href="#NotoSansCJKjp-Regular-aaab" transform="translate(200 0)"/>
     <use xlink:href="#NotoSansCJKjp-Regular-7289" transform="translate(300 0)"/>
    </g>
    <!-- 為負功 $W_2&lt;0$ -->
    <g style="fill: #d1242f" transform="translate(364.80956 197.352727) scale(0.12 -0.12)">
     <defs>
      <path id="NotoSansCJKjp-Regular-9777" d="M 1606 2560 
L 4883 2560 
L 4883 1958 
L 1606 1958 
L 1606 2560 
z
M 1606 1594 
L 4883 1594 
L 4883 992 
L 1606 992 
L 1606 1594 
z
M 1606 3514 
L 4883 3514 
L 4883 2925 
L 1606 2925 
L 1606 3514 
z
M 3776 237 
C 4448 -6 5133 -301 5530 -525 
L 6035 -256 
C 5581 -32 4832 275 4147 506 
L 3776 237 
z
M 2214 512 
C 1760 250 1005 0 365 -154 
C 480 -243 653 -435 730 -538 
C 1357 -346 2163 -26 2669 301 
L 2214 512 
z
M 2074 4512 
L 3635 4512 
C 3507 4307 3341 4083 3168 3910 
L 1510 3910 
C 1715 4102 1907 4307 2074 4512 
z
M 2080 5370 
C 1760 4794 1152 4096 314 3584 
C 435 3514 595 3360 672 3245 
C 832 3347 986 3462 1126 3578 
L 1126 595 
L 5376 595 
L 5376 3910 
L 3744 3910 
C 3955 4160 4166 4448 4314 4710 
L 3987 4922 
L 3910 4902 
L 2368 4902 
C 2451 5024 2534 5146 2605 5267 
L 2080 5370 
z
" transform="scale(0.015625)"/>
      <path id="Cmr10-31" d="M 319 0 
L 319 172 
Q 319 188 331 206 
L 1325 1306 
Q 1550 1550 1690 1715 
Q 1831 1881 1968 2097 
Q 2106 2313 2186 2536 
Q 2266 2759 2266 3009 
Q 2266 3272 2169 3511 
Q 2072 3750 1880 3894 
Q 1688 4038 1416 4038 
Q 1138 4038 916 3870 
Q 694 3703 603 3438 
Q 628 3444 672 3444 
Q 816 3444 917 3347 
Q 1019 3250 1019 3097 
Q 1019 2950 917 2848 
Q 816 2747 672 2747 
Q 522 2747 420 2851 
Q 319 2956 319 3097 
Q 319 3338 409 3548 
Q 500 3759 670 3923 
Q 841 4088 1055 4175 
Q 1269 4263 1509 4263 
Q 1875 4263 2190 4108 
Q 2506 3953 2690 3670 
Q 2875 3388 2875 3009 
Q 2875 2731 2753 2481 
Q 2631 2231 2440 2026 
Q 2250 1822 1953 1562 
Q 1656 1303 1563 1216 
L 838 519 
L 1453 519 
Q 1906 519 2211 526 
Q 2516 534 2534 550 
Q 2609 631 2688 1141 
L 2875 1141 
L 2694 0 
L 319 0 
z
" transform="scale(0.015625)"/>
      <path id="Cmmi10-63" d="M 594 1491 
Q 531 1519 531 1600 
Q 531 1681 616 1722 
L 4269 3444 
Q 4294 3456 4313 3456 
Q 4369 3456 4405 3417 
Q 4441 3378 4441 3328 
Q 4441 3250 4366 3206 
L 959 1600 
L 4384 -19 
Q 4441 -38 4441 -128 
Q 4441 -178 4405 -217 
Q 4369 -256 4313 -256 
Q 4294 -256 4269 -244 
L 594 1491 
z
" transform="scale(0.015625)"/>
     </defs>
     <use xlink:href="#NotoSansCJKjp-Regular-61a1" transform="translate(0 0.90625)"/>
     <use xlink:href="#NotoSansCJKjp-Regular-9777" transform="translate(99.999908 0.90625)"/>
     <use xlink:href="#NotoSansCJKjp-Regular-2c75" transform="translate(199.999817 0.90625)"/>
     <use xlink:href="#NotoSansCJKjp-Regular-1" transform="translate(299.999725 0.90625)"/>
     <use xlink:href="#Cmmi10-50" transform="translate(322.399704 0.90625)"/>
     <use xlink:href="#Cmr10-31" transform="translate(416.78447 -14.093712) scale(0.7)"/>
     <use xlink:href="#Cmmi10-63" transform="translate(477.504942 0.90625)"/>
     <use xlink:href="#Cmr10-28" transform="translate(575.190546 0.90625)"/>
    </g>
   </g>
   <g id="patch_5">
    <path d="M 119.399045 42.938127 
Q 147.307289 51.486935 174.146529 59.708288 
" style="fill: none; stroke: #1f6feb; stroke-linecap: round"/>
    <path d="M 170.583828 56.316067 
L 174.146529 59.708288 
L 169.295131 60.523116 
" style="fill: none; stroke: #1f6feb; stroke-linecap: round"/>
   </g>
   <g id="text_18">
    <!-- 力沿運動方向 -->
    <g style="fill: #1f6feb" transform="translate(60.003634 39.032727) scale(0.11 -0.11)">
     <defs>
      <path id="NotoSansCJKjp-Regular-5aae" d="M 3098 5318 
C 2906 4275 2509 3366 1888 2803 
C 2010 2726 2221 2560 2304 2470 
C 2931 3104 3366 4083 3610 5235 
L 3098 5318 
z
M 4864 5325 
L 4422 5203 
C 4704 4128 5216 3066 5843 2490 
C 5933 2624 6099 2803 6221 2893 
C 5619 3379 5114 4358 4864 5325 
z
M 595 4979 
C 1030 4794 1549 4493 1805 4256 
L 2086 4659 
C 1824 4883 1286 5165 858 5331 
L 595 4979 
z
M 250 3232 
C 691 3072 1229 2797 1491 2586 
L 1754 2995 
C 1478 3200 928 3456 499 3597 
L 250 3232 
z
M 461 -109 
L 870 -429 
C 1242 166 1683 966 2016 1645 
L 1664 1958 
C 1299 1229 800 384 461 -109 
z
M 2502 2298 
L 2502 -512 
L 2970 -512 
L 2970 -224 
L 5184 -224 
L 5184 -480 
L 5664 -480 
L 5664 2298 
L 2502 2298 
z
M 2970 224 
L 2970 1850 
L 5184 1850 
L 5184 224 
L 2970 224 
z
" transform="scale(0.015625)"/>
      <path id="NotoSansCJKjp-Regular-9dde" d="M 358 4947 
C 749 4640 1184 4186 1370 3866 
L 1760 4166 
C 1568 4480 1114 4922 723 5216 
L 358 4947 
z
M 1984 5152 
L 1984 4320 
L 2419 4320 
L 2419 4787 
L 5504 4787 
L 5504 4320 
L 5958 4320 
L 5958 5152 
L 1984 5152 
z
M 1574 2848 
L 294 2848 
L 294 2400 
L 1107 2400 
L 1107 742 
C 819 474 499 205 230 13 
L 480 -461 
C 794 -179 1088 96 1370 371 
C 1773 -134 2355 -358 3200 -390 
C 3917 -416 5286 -403 6003 -378 
C 6022 -230 6099 -13 6157 96 
C 5382 45 3904 26 3194 58 
C 2438 90 1875 307 1574 781 
L 1574 2848 
z
M 2746 2368 
L 3718 2368 
L 3718 1933 
L 2746 1933 
L 2746 2368 
z
M 4186 2368 
L 5178 2368 
L 5178 1933 
L 4186 1933 
L 4186 2368 
z
M 2746 3104 
L 3718 3104 
L 3718 2682 
L 2746 2682 
L 2746 3104 
z
M 4186 3104 
L 5178 3104 
L 5178 2682 
L 4186 2682 
L 4186 3104 
z
M 1882 1216 
L 1882 845 
L 3718 845 
L 3718 237 
L 4186 237 
L 4186 845 
L 6067 845 
L 6067 1216 
L 4186 1216 
L 4186 1606 
L 5619 1606 
L 5619 3430 
L 4186 3430 
L 4186 3821 
L 5798 3821 
L 5798 4179 
L 4186 4179 
L 4186 4627 
L 3718 4627 
L 3718 4179 
L 2125 4179 
L 2125 3821 
L 3718 3821 
L 3718 3430 
L 2323 3430 
L 2323 1606 
L 3718 1606 
L 3718 1216 
L 1882 1216 
z
" transform="scale(0.015625)"/>
      <path id="NotoSansCJKjp-Regular-2cc2" d="M 4192 5293 
C 4192 4806 4192 4333 4179 3878 
L 3418 3878 
L 3418 3437 
L 4166 3437 
C 4109 2227 3942 1184 3386 422 
L 3386 448 
L 2099 314 
L 2099 826 
L 3360 826 
L 3360 1197 
L 2099 1197 
L 2099 1587 
L 3347 1587 
L 3347 3501 
L 2099 3501 
L 2099 3904 
L 3469 3904 
L 3469 4282 
L 2099 4282 
L 2099 4755 
C 2566 4806 3008 4864 3354 4941 
L 3117 5312 
C 2451 5158 1286 5043 339 4998 
C 384 4896 435 4742 454 4640 
C 832 4653 1248 4678 1658 4710 
L 1658 4282 
L 269 4282 
L 269 3904 
L 1658 3904 
L 1658 3501 
L 461 3501 
L 461 1587 
L 1658 1587 
L 1658 1197 
L 442 1197 
L 442 826 
L 1658 826 
L 1658 269 
L 269 141 
L 333 -282 
C 1056 -205 2054 -90 3034 26 
C 2950 -51 2854 -128 2758 -198 
C 2874 -275 3040 -435 3110 -544 
C 4256 307 4544 1722 4627 3437 
L 5536 3437 
C 5472 1094 5395 243 5242 51 
C 5184 -32 5120 -45 5018 -45 
C 4896 -45 4608 -45 4294 -19 
C 4371 -147 4422 -346 4435 -480 
C 4736 -493 5037 -499 5222 -474 
C 5414 -454 5542 -403 5651 -230 
C 5869 38 5933 934 6003 3642 
C 6003 3699 6003 3878 6003 3878 
L 4640 3878 
C 4653 4333 4659 4806 4659 5293 
L 4192 5293 
z
M 858 2387 
L 1658 2387 
L 1658 1920 
L 858 1920 
L 858 2387 
z
M 2099 2387 
L 2938 2387 
L 2938 1920 
L 2099 1920 
L 2099 2387 
z
M 858 3168 
L 1658 3168 
L 1658 2707 
L 858 2707 
L 858 3168 
z
M 2099 3168 
L 2938 3168 
L 2938 2707 
L 2099 2707 
L 2099 3168 
z
" transform="scale(0.015625)"/>
      <path id="NotoSansCJKjp-Regular-2eb8" d="M 2803 5389 
C 2714 5062 2554 4614 2394 4269 
L 634 4269 
L 634 -512 
L 1107 -512 
L 1107 3802 
L 5325 3802 
L 5325 128 
C 5325 13 5286 -26 5158 -26 
C 5024 -32 4582 -38 4122 -13 
C 4192 -154 4262 -378 4288 -512 
C 4877 -512 5274 -506 5504 -429 
C 5728 -346 5805 -192 5805 128 
L 5805 4269 
L 2925 4269 
C 3085 4576 3258 4947 3398 5293 
L 2803 5389 
z
M 2387 2522 
L 4006 2522 
L 4006 1267 
L 2387 1267 
L 2387 2522 
z
M 1946 2950 
L 1946 371 
L 2387 371 
L 2387 832 
L 4454 832 
L 4454 2950 
L 1946 2950 
z
" transform="scale(0.015625)"/>
     </defs>
     <use xlink:href="#NotoSansCJKjp-Regular-2c71"/>
     <use xlink:href="#NotoSansCJKjp-Regular-5aae" transform="translate(100 0)"/>
     <use xlink:href="#NotoSansCJKjp-Regular-9dde" transform="translate(200 0)"/>
     <use xlink:href="#NotoSansCJKjp-Regular-2cc2" transform="translate(300 0)"/>
     <use xlink:href="#NotoSansCJKjp-Regular-4ea0" transform="translate(400 0)"/>
     <use xlink:href="#NotoSansCJKjp-Regular-2eb8" transform="translate(500 0)"/>
    </g>
   </g>
   <g id="patch_6">
    <path d="M 413.714342 238.031398 
Q 408.633287 231.093173 404.212806 225.056968 
" style="fill: none; stroke: #d1242f; stroke-linecap: round"/>
    <path d="M 405.037543 229.906691 
L 404.212806 225.056968 
L 408.587426 227.307013 
" style="fill: none; stroke: #d1242f; stroke-linecap: round"/>
   </g>
   <g id="text_19">
    <!-- 力逆運動方向 -->
    <g style="fill: #d1242f" transform="translate(387.388819 251.325455) scale(0.11 -0.11)">
     <defs>
      <path id="NotoSansCJKjp-Regular-9d2b" d="M 365 4941 
C 762 4646 1210 4198 1402 3885 
L 1779 4192 
C 1581 4506 1120 4934 723 5222 
L 365 4941 
z
M 1594 2848 
L 314 2848 
L 314 2400 
L 1126 2400 
L 1126 768 
C 826 499 493 230 211 32 
L 467 -461 
C 794 -173 1094 102 1389 378 
C 1805 -134 2394 -358 3258 -390 
C 3968 -416 5299 -403 6010 -371 
C 6029 -224 6106 6 6163 115 
C 5402 64 3955 45 3258 77 
C 2490 102 1907 320 1594 794 
L 1594 2848 
z
M 2528 5184 
C 2739 4915 2950 4557 3046 4294 
L 1958 4294 
L 1958 3853 
L 3750 3853 
L 3750 2240 
L 3744 2042 
L 2771 2042 
L 2771 3462 
L 2336 3462 
L 2336 1587 
L 3686 1587 
C 3578 1139 3302 723 2611 506 
C 2707 416 2842 250 2893 141 
C 3725 448 4051 998 4160 1587 
L 5696 1587 
L 5696 3462 
L 5248 3462 
L 5248 2042 
L 4211 2042 
L 4218 2240 
L 4218 3853 
L 6048 3853 
L 6048 4294 
L 4858 4294 
C 5056 4538 5286 4902 5485 5242 
L 4986 5376 
C 4864 5094 4627 4672 4448 4416 
L 4832 4294 
L 3162 4294 
L 3475 4435 
C 3392 4698 3155 5082 2925 5350 
L 2528 5184 
z
" transform="scale(0.015625)"/>
     </defs>
     <use xlink:href="#NotoSansCJKjp-Regular-2c71"/>
     <use xlink:href="#NotoSansCJKjp-Regular-9d2b" transform="translate(100 0)"/>
     <use xlink:href="#NotoSansCJKjp-Regular-9dde" transform="translate(200 0)"/>
     <use xlink:href="#NotoSansCJKjp-Regular-2cc2" transform="translate(300 0)"/>
     <use xlink:href="#NotoSansCJKjp-Regular-4ea0" transform="translate(400 0)"/>
     <use xlink:href="#NotoSansCJKjp-Regular-2eb8" transform="translate(500 0)"/>
    </g>
   </g>
   <g id="text_20">
    <!-- 淨功 $W=W_1+W_2$（代數相加，含正負） -->
    <g style="fill: #222831" transform="translate(175.864375 37.233636) scale(0.12 -0.12)">
     <defs>
      <path id="NotoSansCJKjp-Regular-5c7a" d="M 3558 4422 
C 3693 4122 3814 3725 3846 3469 
L 4282 3603 
C 4237 3859 4115 4250 3962 4544 
L 3558 4422 
z
M 4890 4582 
C 5216 4198 5562 3661 5709 3309 
L 6106 3533 
C 5952 3885 5606 4397 5261 4781 
L 4890 4582 
z
M 570 4973 
C 960 4781 1427 4474 1658 4243 
L 1939 4640 
C 1709 4864 1229 5146 845 5318 
L 570 4973 
z
M 243 3245 
C 640 3072 1114 2784 1344 2573 
L 1619 2963 
C 1382 3174 902 3450 512 3603 
L 243 3245 
z
M 416 -134 
L 838 -429 
C 1165 166 1549 966 1837 1638 
L 1459 1926 
C 1146 1203 717 358 416 -134 
z
M 2432 3411 
L 2432 3002 
L 3674 3002 
L 3674 2374 
L 1856 2374 
L 1856 1952 
L 3674 1952 
L 3674 1306 
L 2387 1306 
L 2387 902 
L 3674 902 
L 3674 38 
C 3674 -58 3635 -83 3539 -83 
C 3437 -90 3078 -96 2707 -77 
C 2765 -205 2835 -390 2854 -512 
C 3354 -512 3680 -506 3872 -435 
C 4070 -365 4134 -237 4134 32 
L 4134 902 
L 5165 902 
L 5165 672 
L 5632 672 
L 5632 1952 
L 6150 1952 
L 6150 2374 
L 5632 2374 
L 5632 3411 
L 2432 3411 
z
M 5165 1306 
L 4134 1306 
L 4134 1952 
L 5165 1952 
L 5165 1306 
z
M 5165 2374 
L 4134 2374 
L 4134 3002 
L 5165 3002 
L 5165 2374 
z
M 2579 5011 
C 2406 4448 2125 3866 1818 3475 
C 1933 3418 2144 3296 2234 3219 
C 2483 3565 2733 4051 2925 4557 
C 3866 4646 4934 4806 5664 5037 
L 5286 5376 
C 4736 5197 3789 5030 2912 4934 
L 2579 5011 
z
" transform="scale(0.015625)"/>
      <path id="Cmr10-29" d="M 481 850 
Q 428 850 393 890 
Q 359 931 359 978 
Q 359 1031 393 1068 
Q 428 1106 481 1106 
L 4500 1106 
Q 4547 1106 4581 1068 
Q 4616 1031 4616 978 
Q 4616 931 4581 890 
Q 4547 850 4500 850 
L 481 850 
z
M 481 2094 
Q 428 2094 393 2131 
Q 359 2169 359 2222 
Q 359 2269 393 2309 
Q 428 2350 481 2350 
L 4500 2350 
Q 4547 2350 4581 2309 
Q 4616 2269 4616 2222 
Q 4616 2169 4581 2131 
Q 4547 2094 4500 2094 
L 481 2094 
z
" transform="scale(0.015625)"/>
      <path id="Cmr10-4c" d="M 481 1472 
Q 428 1472 393 1512 
Q 359 1553 359 1600 
Q 359 1647 393 1687 
Q 428 1728 481 1728 
L 2363 1728 
L 2363 3616 
Q 2363 3666 2400 3698 
Q 2438 3731 2491 3731 
Q 2538 3731 2578 3698 
Q 2619 3666 2619 3616 
L 2619 1728 
L 4500 1728 
Q 4547 1728 4581 1687 
Q 4616 1647 4616 1600 
Q 4616 1553 4581 1512 
Q 4547 1472 4500 1472 
L 2619 1472 
L 2619 -416 
Q 2619 -466 2578 -498 
Q 2538 -531 2491 -531 
Q 2438 -531 2400 -498 
Q 2363 -466 2363 -416 
L 2363 1472 
L 481 1472 
z
" transform="scale(0.015625)"/>
      <path id="NotoSansCJKjp-Regular-e6ae" d="M 4448 2432 
C 4448 1184 4954 166 5722 -614 
L 6106 -416 
C 5370 346 4915 1293 4915 2432 
C 4915 3571 5370 4518 6106 5280 
L 5722 5478 
C 4954 4698 4448 3680 4448 2432 
z
" transform="scale(0.015625)"/>
      <path id="NotoSansCJKjp-Regular-264f" d="M 4576 5011 
C 4954 4691 5402 4243 5613 3955 
L 5984 4211 
C 5766 4499 5306 4934 4922 5242 
L 4576 5011 
z
M 3507 5286 
C 3533 4608 3578 3968 3635 3379 
L 2074 3181 
L 2144 2726 
L 3686 2918 
C 3930 909 4442 -429 5504 -506 
C 5843 -525 6099 -192 6240 915 
C 6144 960 5933 1075 5837 1171 
C 5773 429 5670 51 5485 58 
C 4800 128 4378 1280 4160 2982 
L 6112 3226 
L 6042 3680 
L 4109 3437 
C 4045 4006 4006 4634 3987 5286 
L 3507 5286 
z
M 2003 5312 
C 1581 4294 870 3315 134 2688 
C 218 2579 365 2336 416 2227 
C 710 2490 998 2810 1274 3162 
L 1274 -499 
L 1766 -499 
L 1766 3866 
C 2029 4275 2266 4717 2458 5165 
L 2003 5312 
z
" transform="scale(0.015625)"/>
      <path id="NotoSansCJKjp-Regular-4e26" d="M 4352 3744 
L 5318 3744 
C 5216 2957 5062 2266 4826 1677 
C 4595 2266 4442 2944 4333 3661 
L 4352 3744 
z
M 256 4301 
L 256 3936 
L 698 3936 
L 698 3245 
L 1741 3245 
L 1741 2950 
L 538 2950 
L 538 1882 
L 1485 1882 
L 1274 1478 
L 262 1472 
L 275 1088 
L 1069 1094 
C 928 845 787 608 666 422 
L 1062 307 
L 1171 486 
C 1389 403 1606 314 1818 218 
C 1459 32 998 -83 416 -154 
C 493 -256 570 -410 602 -538 
C 1293 -416 1837 -250 2246 13 
C 2522 -128 2765 -275 2957 -410 
L 3264 -102 
C 3078 19 2848 154 2586 282 
C 2816 512 2976 794 3072 1133 
L 3750 1152 
L 3763 1510 
L 1734 1485 
L 1939 1882 
L 3424 1882 
L 3424 2419 
C 3526 2336 3648 2221 3706 2157 
C 3834 2362 3949 2592 4051 2848 
C 4179 2221 4346 1645 4563 1146 
C 4256 614 3853 192 3309 -134 
C 3392 -224 3539 -429 3584 -525 
C 4090 -198 4486 192 4794 666 
C 5075 166 5414 -237 5850 -518 
C 5920 -403 6067 -224 6176 -141 
C 5709 141 5350 582 5062 1133 
C 5421 1843 5638 2707 5779 3744 
L 6144 3744 
L 6144 4186 
L 4467 4186 
C 4550 4544 4621 4922 4678 5306 
L 4211 5376 
C 4070 4339 3827 3315 3424 2618 
L 3424 2950 
L 2163 2950 
L 2163 3245 
L 3277 3245 
L 3277 3936 
L 3731 3936 
L 3731 4301 
L 3277 4301 
L 3277 4986 
L 2163 4986 
L 2163 5376 
L 1741 5376 
L 1741 4986 
L 698 4986 
L 698 4301 
L 256 4301 
z
M 1101 4646 
L 1741 4646 
L 1741 4282 
L 1101 4282 
L 1101 4646 
z
M 1741 3578 
L 1101 3578 
L 1101 3955 
L 1741 3955 
L 1741 3578 
z
M 2163 4646 
L 2848 4646 
L 2848 4282 
L 2163 4282 
L 2163 4646 
z
M 2163 3578 
L 2163 3955 
L 2848 3955 
L 2848 3578 
L 2163 3578 
z
M 947 2624 
L 1741 2624 
L 1741 2202 
L 947 2202 
L 947 2624 
z
M 2163 2624 
L 3002 2624 
L 3002 2202 
L 2163 2202 
L 2163 2624 
z
M 1530 1107 
L 2630 1126 
C 2534 864 2387 646 2189 467 
C 1920 589 1632 704 1357 800 
L 1530 1107 
z
" transform="scale(0.015625)"/>
      <path id="NotoSansCJKjp-Regular-6ce8" d="M 3494 3034 
L 5440 3034 
L 5440 1920 
L 3494 1920 
L 3494 3034 
z
M 3494 3469 
L 3494 4544 
L 5440 4544 
L 5440 3469 
L 3494 3469 
z
M 3494 1478 
L 5440 1478 
L 5440 365 
L 3494 365 
L 3494 1478 
z
M 3027 4998 
L 3027 -467 
L 3494 -467 
L 3494 -77 
L 5440 -77 
L 5440 -448 
L 5926 -448 
L 5926 4998 
L 3027 4998 
z
M 1370 5376 
L 1370 4006 
L 333 4006 
L 333 3546 
L 1312 3546 
C 1088 2662 634 1651 186 1120 
C 262 1005 384 813 435 685 
C 781 1126 1120 1837 1370 2573 
L 1370 -506 
L 1837 -506 
L 1837 2419 
C 2080 2106 2368 1709 2490 1498 
L 2784 1888 
C 2643 2061 2061 2746 1837 2970 
L 1837 3546 
L 2752 3546 
L 2752 4006 
L 1837 4006 
L 1837 5376 
L 1370 5376 
z
" transform="scale(0.015625)"/>
      <path id="NotoSansCJKjp-Regular-2c76" d="M 3661 4582 
L 3661 -416 
L 4122 -416 
L 4122 58 
L 5363 58 
L 5363 -365 
L 5843 -365 
L 5843 4582 
L 3661 4582 
z
M 4122 518 
L 4122 4115 
L 5363 4115 
L 5363 518 
L 4122 518 
z
M 1248 5293 
L 1242 4160 
L 339 4160 
L 339 3693 
L 1229 3693 
C 1184 2080 986 659 179 -186 
C 301 -262 474 -410 550 -518 
C 1414 422 1638 1958 1696 3693 
L 2669 3693 
C 2618 1229 2560 352 2426 166 
C 2368 83 2304 58 2208 64 
C 2093 64 1818 64 1517 90 
C 1600 -45 1645 -250 1658 -390 
C 1946 -410 2240 -416 2419 -390 
C 2605 -365 2726 -307 2842 -141 
C 3040 134 3085 1069 3136 3917 
C 3136 3987 3136 4160 3136 4160 
L 1709 4160 
L 1722 5293 
L 1248 5293 
z
" transform="scale(0.015625)"/>
      <path id="NotoSansCJKjp-Regular-e6b2" d="M 1005 -685 
C 1677 -448 2112 77 2112 768 
C 2112 1216 1920 1504 1568 1504 
C 1306 1504 1082 1344 1082 1043 
C 1082 742 1299 589 1562 589 
L 1670 602 
C 1638 160 1357 -141 864 -346 
L 1005 -685 
z
" transform="scale(0.015625)"/>
      <path id="NotoSansCJKjp-Regular-2ee0" d="M 1984 4006 
L 1984 3635 
L 4467 3635 
L 4467 3981 
C 4941 3693 5446 3443 5907 3270 
C 5984 3398 6093 3571 6195 3680 
C 5203 4000 4096 4640 3379 5389 
L 2918 5389 
C 2387 4730 1318 4019 230 3610 
C 320 3507 442 3334 493 3226 
C 1011 3437 1523 3706 1984 4006 
z
M 3174 4986 
C 3482 4659 3904 4339 4371 4045 
L 2042 4045 
C 2502 4352 2899 4678 3174 4986 
z
M 1222 1734 
L 1222 -518 
L 1690 -518 
L 1690 -269 
L 4736 -269 
L 4736 -518 
L 5222 -518 
L 5222 1734 
L 4397 1734 
C 4653 2138 4922 2598 5120 3002 
L 4762 3130 
L 4672 3104 
L 1101 3104 
L 1101 2675 
L 4397 2675 
C 4230 2381 4032 2029 3846 1741 
L 3866 1734 
L 1222 1734 
z
M 1690 154 
L 1690 1312 
L 4736 1312 
L 4736 154 
L 1690 154 
z
" transform="scale(0.015625)"/>
      <path id="NotoSansCJKjp-Regular-e6af" d="M 1952 2432 
C 1952 3680 1446 4698 678 5478 
L 294 5280 
C 1030 4518 1485 3571 1485 2432 
C 1485 1293 1030 346 294 -416 
L 678 -614 
C 1446 166 1952 1184 1952 2432 
z
" transform="scale(0.015625)"/>
     </defs>
     <use xlink:href="#NotoSansCJKjp-Regular-5c7a" transform="translate(0 0.40625)"/>
     <use xlink:href="#NotoSansCJKjp-Regular-2c75" transform="translate(99.999908 0.40625)"/>
     <use xlink:href="#NotoSansCJKjp-Regular-1" transform="translate(199.999817 0.40625)"/>
     <use xlink:href="#Cmmi10-50" transform="translate(222.399796 0.40625)"/>
     <use xlink:href="#Cmr10-29" transform="translate(336.784618 0.40625)"/>
     <use xlink:href="#Cmmi10-50" transform="translate(434.470222 0.40625)"/>
     <use xlink:href="#Cmr10-64" transform="translate(528.854988 -14.593712) scale(0.7)"/>
     <use xlink:href="#Cmr10-4c" transform="translate(589.575461 0.40625)"/>
     <use xlink:href="#Cmmi10-50" transform="translate(687.261065 0.40625)"/>
     <use xlink:href="#Cmr10-31" transform="translate(781.645831 -14.593712) scale(0.7)"/>
     <use xlink:href="#NotoSansCJKjp-Regular-e6ae" transform="translate(822.366246 0.40625)"/>
     <use xlink:href="#NotoSansCJKjp-Regular-264f" transform="translate(922.366154 0.40625)"/>
     <use xlink:href="#NotoSansCJKjp-Regular-4e26" transform="translate(1022.366063 0.40625)"/>
     <use xlink:href="#NotoSansCJKjp-Regular-6ce8" transform="translate(1122.365971 0.40625)"/>
     <use xlink:href="#NotoSansCJKjp-Regular-2c76" transform="translate(1222.36588 0.40625)"/>
     <use xlink:href="#NotoSansCJKjp-Regular-e6b2" transform="translate(1322.365788 0.40625)"/>
     <use xlink:href="#NotoSansCJKjp-Regular-2ee0" transform="translate(1422.365697 0.40625)"/>
     <use xlink:href="#NotoSansCJKjp-Regular-585c" transform="translate(1522.365605 0.40625)"/>
     <use xlink:href="#NotoSansCJKjp-Regular-9777" transform="translate(1622.365514 0.40625)"/>
     <use xlink:href="#NotoSansCJKjp-Regular-e6af" transform="translate(1722.365422 0.40625)"/>
    </g>
   </g>
   <g id="text_21">
    <!-- 變力作功：x 軸上方面積為正功、下方為負功 -->
    <g style="fill: #222831" transform="translate(157.051172 18.64) scale(0.13 -0.13)">
     <defs>
      <path id="NotoSansCJKjp-Regular-95ec" d="M 1664 2874 
C 1798 2650 1933 2342 1984 2150 
L 2291 2285 
C 2240 2470 2099 2765 1965 2982 
L 1664 2874 
z
M 640 2970 
C 563 2624 442 2259 262 2003 
C 358 1958 512 1869 582 1818 
C 755 2093 909 2502 998 2886 
L 640 2970 
z
M 5376 2848 
C 5568 2560 5760 2170 5830 1926 
L 6150 2080 
C 6067 2317 5869 2694 5677 2976 
L 5376 2848 
z
M 4275 2963 
C 4198 2630 4077 2298 3898 2048 
C 3987 2010 4141 1926 4211 1882 
C 4384 2138 4538 2522 4627 2886 
L 4275 2963 
z
M 2477 5203 
L 2477 4922 
L 3853 4922 
L 3853 5203 
L 2477 5203 
z
M 2464 4077 
L 2464 3802 
L 3866 3802 
L 3866 4077 
L 2464 4077 
z
M 2464 3533 
L 2464 3251 
L 3866 3251 
L 3866 3533 
L 2464 3533 
z
M 2803 2688 
L 3520 2688 
L 3520 2214 
L 2803 2214 
L 2803 2688 
z
M 1709 4832 
C 1587 4653 1427 4435 1254 4218 
C 1184 4294 1094 4384 998 4474 
C 1178 4691 1376 4973 1542 5242 
L 1197 5382 
C 1094 5178 928 4896 774 4672 
L 614 4800 
L 390 4550 
C 608 4371 858 4134 1018 3942 
C 902 3808 787 3680 678 3571 
L 307 3571 
L 346 3200 
L 1152 3232 
L 1152 1728 
L 1530 1728 
L 1530 3251 
L 2029 3270 
L 2125 3085 
L 2406 3251 
C 2304 3469 2067 3795 1856 4038 
L 1581 3891 
C 1658 3802 1741 3699 1818 3590 
L 1094 3578 
C 1414 3904 1773 4307 2054 4659 
L 1709 4832 
z
M 2208 4659 
L 2208 4352 
L 4064 4352 
L 4064 4474 
C 4269 4320 4499 4109 4653 3936 
C 4531 3802 4416 3680 4301 3571 
L 3942 3571 
L 3987 3200 
L 4813 3232 
L 4813 1728 
L 5190 1728 
L 5190 3251 
L 5734 3277 
C 5792 3187 5843 3110 5875 3040 
L 6163 3226 
C 6042 3462 5754 3814 5504 4077 
L 5235 3917 
C 5325 3821 5421 3706 5510 3590 
L 4730 3578 
C 5075 3910 5459 4339 5766 4704 
L 5421 4883 
C 5286 4685 5094 4442 4896 4211 
C 4819 4288 4723 4378 4621 4461 
C 4800 4678 5018 4966 5190 5242 
L 4838 5382 
C 4736 5171 4550 4877 4390 4653 
L 4250 4755 
L 4064 4538 
L 4064 4659 
L 2208 4659 
z
M 4269 1171 
C 3987 902 3622 685 3194 506 
C 2707 691 2278 909 1965 1171 
L 4269 1171 
z
M 2451 2963 
L 2451 2054 
L 2189 2131 
C 1824 1549 1120 1069 397 781 
C 499 704 666 531 736 448 
C 1030 589 1331 755 1606 960 
C 1901 710 2253 493 2650 307 
C 1933 90 1101 -45 256 -122 
C 339 -224 461 -422 499 -538 
C 1453 -416 2400 -237 3206 77 
C 4026 -230 4966 -422 5914 -525 
C 5971 -403 6080 -218 6176 -115 
C 5338 -45 4493 102 3757 320 
C 4198 544 4582 826 4870 1171 
L 5920 1171 
L 5920 1562 
L 2291 1562 
C 2394 1683 2496 1805 2579 1939 
L 3878 1939 
L 3878 2963 
L 2451 2963 
z
" transform="scale(0.015625)"/>
      <path id="NotoSansCJKjp-Regular-26fc" d="M 3366 5299 
C 3046 4358 2528 3430 1952 2829 
C 2061 2752 2246 2586 2323 2502 
C 2650 2861 2963 3328 3238 3846 
L 3680 3846 
L 3680 -506 
L 4166 -506 
L 4166 1050 
L 6093 1050 
L 6093 1504 
L 4166 1504 
L 4166 2477 
L 6010 2477 
L 6010 2918 
L 4166 2918 
L 4166 3846 
L 6157 3846 
L 6157 4307 
L 3469 4307 
C 3603 4589 3725 4883 3827 5178 
L 3366 5299 
z
M 1824 5350 
C 1466 4378 864 3418 230 2797 
C 320 2688 461 2426 512 2317 
C 730 2541 941 2797 1146 3078 
L 1146 -499 
L 1626 -499 
L 1626 3834 
C 1875 4269 2106 4742 2285 5210 
L 1824 5350 
z
" transform="scale(0.015625)"/>
      <path id="NotoSansCJKjp-Regular-e6c0" d="M 3200 3482 
C 3456 3482 3686 3667 3686 3962 
C 3686 4256 3456 4442 3200 4442 
C 2944 4442 2714 4256 2714 3962 
C 2714 3667 2944 3482 3200 3482 
z
M 3200 346 
C 3456 346 3686 538 3686 826 
C 3686 1120 3456 1312 3200 1312 
C 2944 1312 2714 1120 2714 826 
C 2714 538 2944 346 3200 346 
z
" transform="scale(0.015625)"/>
      <path id="NotoSansCJKjp-Regular-59" d="M 96 0 
L 710 0 
L 1178 813 
C 1299 1024 1408 1235 1530 1434 
L 1562 1434 
C 1696 1235 1824 1024 1939 813 
L 2451 0 
L 3091 0 
L 1946 1754 
L 3002 3475 
L 2394 3475 
L 1965 2714 
C 1856 2515 1760 2330 1658 2131 
L 1626 2131 
C 1510 2330 1389 2515 1286 2714 
L 819 3475 
L 186 3475 
L 1242 1811 
L 96 0 
z
" transform="scale(0.015625)"/>
      <path id="NotoSansCJKjp-Regular-9b28" d="M 3597 1773 
L 4326 1773 
L 4326 282 
L 3597 282 
L 3597 1773 
z
M 3597 2202 
L 3597 3578 
L 4326 3578 
L 4326 2202 
L 3597 2202 
z
M 5530 1773 
L 5530 282 
L 4749 282 
L 4749 1773 
L 5530 1773 
z
M 5530 2202 
L 4749 2202 
L 4749 3578 
L 5530 3578 
L 5530 2202 
z
M 4314 5376 
L 4314 4013 
L 3174 4013 
L 3174 -512 
L 3597 -512 
L 3597 -154 
L 5530 -154 
L 5530 -474 
L 5965 -474 
L 5965 4013 
L 4762 4013 
L 4762 5376 
L 4314 5376 
z
M 493 3782 
L 493 1555 
L 1434 1555 
L 1434 1030 
L 250 1030 
L 250 608 
L 1434 608 
L 1434 -518 
L 1869 -518 
L 1869 608 
L 3046 608 
L 3046 1030 
L 1869 1030 
L 1869 1555 
L 2848 1555 
L 2848 3782 
L 1869 3782 
L 1869 4256 
L 2970 4256 
L 2970 4678 
L 1869 4678 
L 1869 5376 
L 1434 5376 
L 1434 4678 
L 320 4678 
L 320 4256 
L 1434 4256 
L 1434 3782 
L 493 3782 
z
M 864 2502 
L 1478 2502 
L 1478 1914 
L 864 1914 
L 864 2502 
z
M 1830 2502 
L 2470 2502 
L 2470 1914 
L 1830 1914 
L 1830 2502 
z
M 864 3424 
L 1478 3424 
L 1478 2848 
L 864 2848 
L 864 3424 
z
M 1830 3424 
L 2470 3424 
L 2470 2848 
L 1830 2848 
L 1830 3424 
z
" transform="scale(0.015625)"/>
      <path id="NotoSansCJKjp-Regular-575" d="M 1747 -358 
L 2182 13 
C 1786 480 1210 1062 749 1434 
L 333 1069 
C 787 698 1338 147 1747 -358 
z
" transform="scale(0.015625)"/>
     </defs>
     <use xlink:href="#NotoSansCJKjp-Regular-95ec"/>
     <use xlink:href="#NotoSansCJKjp-Regular-2c71" transform="translate(100 0)"/>
     <use xlink:href="#NotoSansCJKjp-Regular-26fc" transform="translate(200 0)"/>
     <use xlink:href="#NotoSansCJKjp-Regular-2c75" transform="translate(300 0)"/>
     <use xlink:href="#NotoSansCJKjp-Regular-e6c0" transform="translate(400 0)"/>
     <use xlink:href="#NotoSansCJKjp-Regular-59" transform="translate(500 0)"/>
     <use xlink:href="#NotoSansCJKjp-Regular-1" transform="translate(549.796875 0)"/>
     <use xlink:href="#NotoSansCJKjp-Regular-9b28" transform="translate(572.203125 0)"/>
     <use xlink:href="#NotoSansCJKjp-Regular-2515" transform="translate(672.203125 0)"/>
     <use xlink:href="#NotoSansCJKjp-Regular-4ea0" transform="translate(772.203125 0)"/>
     <use xlink:href="#NotoSansCJKjp-Regular-aaab" transform="translate(872.203125 0)"/>
     <use xlink:href="#NotoSansCJKjp-Regular-7289" transform="translate(972.203125 0)"/>
     <use xlink:href="#NotoSansCJKjp-Regular-61a1" transform="translate(1072.203125 0)"/>
     <use xlink:href="#NotoSansCJKjp-Regular-585c" transform="translate(1172.203125 0)"/>
     <use xlink:href="#NotoSansCJKjp-Regular-2c75" transform="translate(1272.203125 0)"/>
     <use xlink:href="#NotoSansCJKjp-Regular-575" transform="translate(1372.203125 0)"/>
     <use xlink:href="#NotoSansCJKjp-Regular-2516" transform="translate(1472.203125 0)"/>
     <use xlink:href="#NotoSansCJKjp-Regular-4ea0" transform="translate(1572.203125 0)"/>
     <use xlink:href="#NotoSansCJKjp-Regular-61a1" transform="translate(1672.203125 0)"/>
     <use xlink:href="#NotoSansCJKjp-Regular-9777" transform="translate(1772.203125 0)"/>
     <use xlink:href="#NotoSansCJKjp-Regular-2c75" transform="translate(1872.203125 0)"/>
    </g>
   </g>
  </g>
 </g>
 <defs>
  <clipPath id="p39acf8b1b4">
   <rect x="41.984375" y="24.64" width="486.52" height="237.48"/>
  </clipPath>
 </defs>
</svg>
