<?xml version="1.0" encoding="utf-8" standalone="no"?>
<!DOCTYPE svg PUBLIC "-//W3C//DTD SVG 1.1//EN"
  "http://www.w3.org/Graphics/SVG/1.1/DTD/svg11.dtd">
<svg xmlns:xlink="http://www.w3.org/1999/xlink" width="399.262761pt" height="320.128pt" viewBox="0 0 399.262761 320.128" xmlns="http://www.w3.org/2000/svg" version="1.1">
 <metadata>
  <rdf:RDF xmlns:dc="http://purl.org/dc/elements/1.1/" xmlns:cc="http://creativecommons.org/ns#" xmlns:rdf="http://www.w3.org/1999/02/22-rdf-syntax-ns#">
   <cc:Work>
    <dc:type rdf:resource="http://purl.org/dc/dcmitype/StillImage"/>
    <dc:date>2026-06-19T00:15:56.104800</dc:date>
    <dc:format>image/svg+xml</dc:format>
    <dc:creator>
     <cc:Agent>
      <dc:title>Matplotlib v3.11.0, https://matplotlib.org/</dc:title>
     </cc:Agent>
    </dc:creator>
   </cc:Work>
  </rdf:RDF>
 </metadata>
 <defs>
  <style type="text/css">*{stroke-linejoin: round; stroke-linecap: butt}</style>
 </defs>
 <g id="figure_1">
  <g id="patch_1">
   <path d="M 0 320.128 
L 399.262761 320.128 
L 399.262761 0 
L 0 0 
z
" style="fill: #ffffff"/>
  </g>
  <g id="axes_1">
   <g id="patch_2">
    <path d="M 164.559121 162.693408 
L 187.29733 162.693408 
L 187.29733 53.062761 
L 164.559121 53.062761 
z
" clip-path="url(#p443a3ddeb5)" style="fill: #1f6feb; opacity: 0.12"/>
   </g>
   <g id="patch_3">
    <path d="M 164.559121 272.324056 
L 187.29733 272.324056 
L 187.29733 162.693408 
L 164.559121 162.693408 
z
" clip-path="url(#p443a3ddeb5)" style="fill: #d1242f; opacity: 0.12"/>
   </g>
   <g id="line2d_1">
    <path d="M 175.928225 272.324056 
L 175.928225 53.062761 
" clip-path="url(#p443a3ddeb5)" style="fill: none; stroke: #222831; stroke-width: 2; stroke-linecap: square"/>
   </g>
   <g id="line2d_2">
    <path d="M 106.901521 162.693408 
L 281.498479 162.693408 
" clip-path="url(#p443a3ddeb5)" style="fill: none; stroke-dasharray: 5.92,2.56; stroke-dashoffset: 0; stroke: #222831; stroke-width: 1.6"/>
   </g>
   <g id="text_1">
    <!-- 零點 -->
    <g style="fill: #222831" transform="translate(82.871324 160.383408) scale(0.11 -0.11)">
     <defs>
      <path id="NotoSansCJKjp-Regular-a9ba" d="M 1235 3718 
L 1235 3418 
L 2624 3418 
L 2624 3718 
L 1235 3718 
z
M 1094 3078 
L 1094 2765 
L 2630 2765 
L 2630 3078 
L 1094 3078 
z
M 3738 3078 
L 3738 2765 
L 5318 2765 
L 5318 3078 
L 3738 3078 
z
M 3738 3718 
L 3738 3418 
L 5158 3418 
L 5158 3718 
L 3738 3718 
z
M 486 4390 
L 486 3270 
L 922 3270 
L 922 4058 
L 2944 4058 
L 2944 3066 
L 3418 3066 
L 3418 4058 
L 5472 4058 
L 5472 3270 
L 5920 3270 
L 5920 4390 
L 3418 4390 
L 3418 4755 
L 5536 4755 
L 5536 5120 
L 858 5120 
L 858 4755 
L 2944 4755 
L 2944 4390 
L 486 4390 
z
M 2035 1843 
L 2035 1568 
L 4378 1568 
L 4378 1843 
C 4890 1600 5453 1402 5946 1286 
C 6003 1395 6099 1568 6195 1677 
C 5203 1875 4096 2323 3366 2950 
L 2931 2950 
C 2381 2400 1325 1882 237 1600 
C 314 1510 410 1344 454 1229 
C 998 1389 1549 1600 2035 1843 
z
M 3174 2592 
C 3456 2349 3834 2112 4250 1907 
L 2157 1907 
C 2566 2125 2918 2355 3174 2592 
z
M 966 1165 
L 966 819 
L 2515 819 
L 2515 -512 
L 2976 -512 
L 2976 819 
L 4749 819 
L 4749 288 
C 4749 211 4723 192 4634 186 
C 4544 186 4256 179 3891 192 
C 3955 77 4032 -70 4058 -192 
C 4506 -192 4794 -192 4979 -128 
C 5171 -64 5216 51 5216 282 
L 5216 1165 
L 966 1165 
z
" transform="scale(0.015625)"/>
      <path id="NotoSansCJKjp-Regular-b7c4" d="M 966 4474 
C 1069 4166 1152 3757 1165 3494 
L 1421 3565 
C 1402 3821 1312 4230 1203 4538 
L 966 4474 
z
M 1178 813 
C 1267 454 1338 0 1331 -307 
L 1664 -262 
C 1664 38 1594 499 1498 851 
L 1178 813 
z
M 1792 851 
C 1939 518 2067 90 2106 -192 
L 2432 -115 
C 2387 166 2246 589 2099 915 
L 1792 851 
z
M 2406 934 
C 2618 634 2848 224 2938 -45 
L 3258 96 
C 3162 365 2931 762 2701 1056 
L 2406 934 
z
M 634 838 
C 582 390 454 -70 205 -333 
L 538 -512 
C 806 -224 915 269 973 742 
L 634 838 
z
M 2272 4557 
C 2214 4262 2086 3808 1997 3533 
L 2202 3456 
C 2317 3706 2445 4122 2554 4454 
L 2272 4557 
z
M 4314 5363 
L 4314 2330 
L 3379 2330 
L 3379 -506 
L 3827 -506 
L 3827 -211 
L 5440 -211 
L 5440 -480 
L 5901 -480 
L 5901 2330 
L 4781 2330 
L 4781 3526 
L 6150 3526 
L 6150 3974 
L 4781 3974 
L 4781 5363 
L 4314 5363 
z
M 3827 237 
L 3827 1894 
L 5440 1894 
L 5440 237 
L 3827 237 
z
M 877 4794 
L 1568 4794 
L 1568 3245 
L 877 3245 
L 877 4794 
z
M 1894 4794 
L 2637 4794 
L 2637 3245 
L 1894 3245 
L 1894 4794 
z
M 448 2451 
L 448 2067 
L 1517 2067 
L 1517 1568 
L 314 1510 
L 333 1088 
C 1075 1133 2138 1203 3155 1274 
L 3168 1658 
L 1946 1594 
L 1946 2067 
L 3072 2067 
L 3072 2451 
L 1946 2451 
L 1946 2893 
L 3027 2893 
L 3027 5146 
L 493 5146 
L 493 2893 
L 1517 2893 
L 1517 2451 
L 448 2451 
z
" transform="scale(0.015625)"/>
     </defs>
     <use xlink:href="#NotoSansCJKjp-Regular-a9ba"/>
     <use xlink:href="#NotoSansCJKjp-Regular-b7c4" transform="translate(100 0)"/>
    </g>
    <!-- $h=0$，$U_g=0$ -->
    <g style="fill: #222831" transform="translate(38.761324 171.383408) scale(0.11 -0.11)">
     <defs>
      <path id="Cmmi10-5f" d="M 341 116 
Q 341 153 347 172 
L 1275 3872 
Q 1300 3981 1306 4044 
Q 1306 4147 891 4147 
Q 825 4147 825 4231 
Q 828 4247 839 4287 
Q 850 4328 867 4350 
Q 884 4372 916 4372 
L 1778 4441 
L 1797 4441 
Q 1797 4434 1819 4423 
Q 1841 4413 1844 4409 
Q 1856 4378 1856 4359 
L 1356 2363 
Q 1750 2828 2291 2828 
Q 2516 2828 2680 2750 
Q 2844 2672 2936 2514 
Q 3028 2356 3028 2138 
Q 3028 1875 2911 1503 
Q 2794 1131 2619 672 
Q 2528 463 2528 288 
Q 2528 97 2675 97 
Q 2925 97 3092 364 
Q 3259 631 3328 941 
Q 3341 978 3378 978 
L 3456 978 
Q 3481 978 3497 961 
Q 3513 944 3513 922 
Q 3513 916 3506 903 
Q 3450 672 3339 448 
Q 3228 225 3059 76 
Q 2891 -72 2663 -72 
Q 2438 -72 2278 83 
Q 2119 238 2119 459 
Q 2119 578 2169 709 
Q 2350 1191 2470 1569 
Q 2591 1947 2591 2234 
Q 2591 2419 2519 2541 
Q 2447 2663 2278 2663 
Q 1934 2663 1678 2452 
Q 1422 2241 1234 1894 
L 800 147 
Q 775 50 703 -11 
Q 631 -72 538 -72 
Q 456 -72 398 -17 
Q 341 38 341 116 
z
" transform="scale(0.015625)"/>
      <path id="Cmr10-29" d="M 481 850 
Q 428 850 393 890 
Q 359 931 359 978 
Q 359 1031 393 1068 
Q 428 1106 481 1106 
L 4500 1106 
Q 4547 1106 4581 1068 
Q 4616 1031 4616 978 
Q 4616 931 4581 890 
Q 4547 850 4500 850 
L 481 850 
z
M 481 2094 
Q 428 2094 393 2131 
Q 359 2169 359 2222 
Q 359 2269 393 2309 
Q 428 2350 481 2350 
L 4500 2350 
Q 4547 2350 4581 2309 
Q 4616 2269 4616 2222 
Q 4616 2169 4581 2131 
Q 4547 2094 4500 2094 
L 481 2094 
z
" transform="scale(0.015625)"/>
      <path id="Cmr10-28" d="M 1600 -141 
Q 816 -141 533 504 
Q 250 1150 250 2041 
Q 250 2597 351 3087 
Q 453 3578 754 3920 
Q 1056 4263 1600 4263 
Q 2022 4263 2290 4056 
Q 2559 3850 2700 3523 
Q 2841 3197 2892 2823 
Q 2944 2450 2944 2041 
Q 2944 1491 2842 1011 
Q 2741 531 2444 195 
Q 2147 -141 1600 -141 
z
M 1600 25 
Q 1956 25 2131 390 
Q 2306 756 2347 1200 
Q 2388 1644 2388 2144 
Q 2388 2625 2347 3031 
Q 2306 3438 2132 3767 
Q 1959 4097 1600 4097 
Q 1238 4097 1063 3765 
Q 888 3434 847 3029 
Q 806 2625 806 2144 
Q 806 1788 823 1472 
Q 841 1156 916 820 
Q 991 484 1158 254 
Q 1325 25 1600 25 
z
" transform="scale(0.015625)"/>
      <path id="NotoSansCJKjp-Regular-e6b2" d="M 1005 -685 
C 1677 -448 2112 77 2112 768 
C 2112 1216 1920 1504 1568 1504 
C 1306 1504 1082 1344 1082 1043 
C 1082 742 1299 589 1562 589 
L 1670 602 
C 1638 160 1357 -141 864 -346 
L 1005 -685 
z
" transform="scale(0.015625)"/>
      <path id="Cmmi10-4a" d="M 941 891 
Q 941 656 1033 472 
Q 1125 288 1300 186 
Q 1475 84 1709 84 
Q 1984 84 2245 196 
Q 2506 309 2715 509 
Q 2925 709 3073 965 
Q 3222 1222 3284 1472 
L 3859 3781 
Q 3872 3850 3872 3878 
Q 3872 4147 3378 4147 
Q 3316 4147 3316 4231 
Q 3338 4313 3350 4342 
Q 3363 4372 3425 4372 
L 4813 4372 
Q 4841 4372 4859 4344 
Q 4878 4316 4878 4288 
Q 4878 4284 4865 4239 
Q 4853 4194 4836 4170 
Q 4819 4147 4794 4147 
Q 4181 4147 4084 3756 
L 3506 1447 
Q 3434 1147 3264 864 
Q 3094 581 2845 351 
Q 2597 122 2298 -9 
Q 2000 -141 1691 -141 
Q 1338 -141 1045 14 
Q 753 169 587 447 
Q 422 725 422 1088 
Q 422 1297 469 1472 
L 1088 3956 
Q 1100 4019 1100 4044 
Q 1100 4113 1025 4122 
Q 903 4147 563 4147 
Q 500 4147 500 4231 
Q 522 4313 534 4342 
Q 547 4372 609 4372 
L 2328 4372 
Q 2394 4372 2394 4288 
Q 2391 4272 2381 4234 
Q 2372 4197 2356 4172 
Q 2341 4147 2309 4147 
Q 1919 4147 1766 4103 
Q 1681 4072 1644 3928 
L 1025 1447 
Q 941 1109 941 891 
z
" transform="scale(0.015625)"/>
      <path id="Cmmi10-2f" d="M 91 -916 
Q 91 -759 198 -642 
Q 306 -525 459 -525 
Q 563 -525 633 -589 
Q 703 -653 703 -756 
Q 703 -872 637 -964 
Q 572 -1056 469 -1094 
Q 641 -1147 1006 -1147 
Q 1300 -1147 1544 -920 
Q 1788 -694 1863 -397 
L 2047 353 
Q 1700 0 1325 0 
Q 1050 0 854 140 
Q 659 281 556 515 
Q 453 750 453 1013 
Q 453 1306 573 1628 
Q 694 1950 911 2225 
Q 1128 2500 1409 2664 
Q 1691 2828 2003 2828 
Q 2191 2828 2341 2725 
Q 2491 2622 2578 2450 
Q 2641 2700 2853 2700 
Q 2934 2700 2990 2651 
Q 3047 2603 3047 2522 
Q 3047 2503 3045 2493 
Q 3044 2484 3041 2472 
L 2309 -434 
Q 2259 -634 2125 -800 
Q 1991 -966 1809 -1077 
Q 1628 -1188 1412 -1250 
Q 1197 -1313 997 -1313 
Q 631 -1313 361 -1242 
Q 91 -1172 91 -916 
z
M 1338 166 
Q 1747 166 2144 728 
L 2497 2125 
Q 2453 2347 2322 2505 
Q 2191 2663 1991 2663 
Q 1778 2663 1589 2489 
Q 1400 2316 1275 2075 
Q 1156 1844 1045 1411 
Q 934 978 934 728 
Q 934 509 1034 337 
Q 1134 166 1338 166 
z
" transform="scale(0.015625)"/>
     </defs>
     <use xlink:href="#Cmmi10-5f" transform="translate(0 0.609375)"/>
     <use xlink:href="#Cmr10-29" transform="translate(77.617245 0.609375)"/>
     <use xlink:href="#Cmr10-28" transform="translate(175.302849 0.609375)"/>
     <use xlink:href="#NotoSansCJKjp-Regular-e6b2" transform="translate(225.302849 0.609375)"/>
     <use xlink:href="#Cmmi10-4a" transform="translate(325.302757 0.609375)"/>
     <use xlink:href="#Cmmi10-2f" transform="translate(393.515648 -14.390587) scale(0.7)"/>
     <use xlink:href="#Cmr10-29" transform="translate(452.629675 0.609375)"/>
     <use xlink:href="#Cmr10-28" transform="translate(550.315279 0.609375)"/>
    </g>
   </g>
   <g id="text_2">
    <!-- 零點上方：$h&gt;0$，$U_g=mgh&gt;0$ -->
    <g style="fill: #1f6feb" transform="translate(222.622761 84.965521) scale(0.12 -0.12)">
     <defs>
      <path id="NotoSansCJKjp-Regular-2515" d="M 2733 5280 
L 2733 275 
L 326 275 
L 326 -205 
L 6080 -205 
L 6080 275 
L 3238 275 
L 3238 2822 
L 5638 2822 
L 5638 3302 
L 3238 3302 
L 3238 5280 
L 2733 5280 
z
" transform="scale(0.015625)"/>
      <path id="NotoSansCJKjp-Regular-4ea0" d="M 2931 5395 
L 2931 4269 
L 339 4269 
L 339 3808 
L 2310 3808 
C 2240 2330 2054 666 269 -147 
C 397 -243 544 -416 621 -538 
C 1926 90 2438 1152 2669 2298 
L 4787 2298 
C 4685 819 4557 186 4371 19 
C 4294 -51 4211 -58 4064 -58 
C 3898 -58 3443 -51 2982 -13 
C 3078 -147 3142 -346 3155 -480 
C 3584 -506 4013 -512 4230 -499 
C 4480 -486 4634 -435 4781 -282 
C 5030 -26 5165 685 5293 2522 
C 5306 2598 5312 2758 5312 2758 
L 2746 2758 
C 2790 3110 2822 3462 2842 3808 
L 6067 3808 
L 6067 4269 
L 3424 4269 
L 3424 5395 
L 2931 5395 
z
" transform="scale(0.015625)"/>
      <path id="NotoSansCJKjp-Regular-e6c0" d="M 3200 3482 
C 3456 3482 3686 3667 3686 3962 
C 3686 4256 3456 4442 3200 4442 
C 2944 4442 2714 4256 2714 3962 
C 2714 3667 2944 3482 3200 3482 
z
M 3200 346 
C 3456 346 3686 538 3686 826 
C 3686 1120 3456 1312 3200 1312 
C 2944 1312 2714 1120 2714 826 
C 2714 538 2944 346 3200 346 
z
" transform="scale(0.015625)"/>
      <path id="Cmmi10-6b" d="M 531 -128 
Q 531 -47 616 -6 
L 4013 1600 
L 594 3219 
Q 531 3238 531 3328 
Q 531 3372 567 3414 
Q 603 3456 659 3456 
Q 672 3456 709 3444 
L 4384 1709 
Q 4441 1681 4441 1600 
Q 4441 1516 4366 1484 
L 709 -244 
Q 672 -256 659 -256 
Q 603 -256 567 -214 
Q 531 -172 531 -128 
z
" transform="scale(0.015625)"/>
      <path id="Cmmi10-45" d="M 494 109 
Q 494 147 500 166 
L 978 2075 
Q 1025 2253 1025 2388 
Q 1025 2663 838 2663 
Q 638 2663 541 2423 
Q 444 2184 353 1819 
Q 353 1800 334 1789 
Q 316 1778 300 1778 
L 225 1778 
Q 203 1778 187 1801 
Q 172 1825 172 1844 
Q 241 2122 305 2315 
Q 369 2509 505 2668 
Q 641 2828 844 2828 
Q 1084 2828 1268 2676 
Q 1453 2525 1453 2291 
Q 1644 2541 1900 2684 
Q 2156 2828 2444 2828 
Q 2747 2828 2967 2673 
Q 3188 2519 3188 2234 
Q 3384 2513 3648 2670 
Q 3913 2828 4225 2828 
Q 4556 2828 4757 2648 
Q 4959 2469 4959 2138 
Q 4959 1875 4842 1503 
Q 4725 1131 4550 672 
Q 4459 450 4459 288 
Q 4459 97 4609 97 
Q 4859 97 5025 365 
Q 5191 634 5259 941 
Q 5278 978 5313 978 
L 5388 978 
Q 5413 978 5430 961 
Q 5447 944 5447 922 
Q 5447 916 5441 903 
Q 5353 541 5136 234 
Q 4919 -72 4594 -72 
Q 4369 -72 4209 83 
Q 4050 238 4050 459 
Q 4050 572 4103 709 
Q 4284 1191 4404 1569 
Q 4525 1947 4525 2234 
Q 4525 2413 4453 2538 
Q 4381 2663 4213 2663 
Q 3863 2663 3606 2448 
Q 3350 2234 3163 1881 
Q 3150 1819 3144 1784 
L 2731 141 
Q 2709 53 2632 -9 
Q 2556 -72 2463 -72 
Q 2388 -72 2330 -22 
Q 2272 28 2272 109 
Q 2272 147 2278 166 
L 2688 1797 
Q 2753 2059 2753 2234 
Q 2753 2413 2679 2538 
Q 2606 2663 2431 2663 
Q 2197 2663 2000 2559 
Q 1803 2456 1656 2286 
Q 1509 2116 1388 1881 
L 953 141 
Q 931 53 854 -9 
Q 778 -72 684 -72 
Q 606 -72 550 -22 
Q 494 28 494 109 
z
" transform="scale(0.015625)"/>
     </defs>
     <use xlink:href="#NotoSansCJKjp-Regular-a9ba" transform="translate(0 0.703125)"/>
     <use xlink:href="#NotoSansCJKjp-Regular-b7c4" transform="translate(99.999908 0.703125)"/>
     <use xlink:href="#NotoSansCJKjp-Regular-2515" transform="translate(199.999817 0.703125)"/>
     <use xlink:href="#NotoSansCJKjp-Regular-4ea0" transform="translate(299.999725 0.703125)"/>
     <use xlink:href="#NotoSansCJKjp-Regular-e6c0" transform="translate(399.999634 0.703125)"/>
     <use xlink:href="#Cmmi10-5f" transform="translate(499.999542 0.703125)"/>
     <use xlink:href="#Cmmi10-6b" transform="translate(577.616787 0.703125)"/>
     <use xlink:href="#Cmr10-28" transform="translate(675.302391 0.703125)"/>
     <use xlink:href="#NotoSansCJKjp-Regular-e6b2" transform="translate(725.302391 0.703125)"/>
     <use xlink:href="#Cmmi10-4a" transform="translate(825.302299 0.703125)"/>
     <use xlink:href="#Cmmi10-2f" transform="translate(893.51519 -14.296837) scale(0.7)"/>
     <use xlink:href="#Cmr10-29" transform="translate(952.629218 0.703125)"/>
     <use xlink:href="#Cmmi10-45" transform="translate(1050.314822 0.703125)"/>
     <use xlink:href="#Cmmi10-2f" transform="translate(1138.10779 0.703125)"/>
     <use xlink:href="#Cmmi10-5f" transform="translate(1185.812868 0.703125)"/>
     <use xlink:href="#Cmmi10-6b" transform="translate(1263.430113 0.703125)"/>
     <use xlink:href="#Cmr10-28" transform="translate(1361.115717 0.703125)"/>
    </g>
   </g>
   <g id="text_3">
    <!-- 零點下方：$h&lt;0$，$U_g=mgh&lt;0$ -->
    <g style="fill: #d1242f" transform="translate(222.622761 247.381296) scale(0.12 -0.12)">
     <defs>
      <path id="NotoSansCJKjp-Regular-2516" d="M 352 4902 
L 352 4422 
L 2822 4422 
L 2822 -506 
L 3328 -506 
L 3328 2886 
C 4064 2490 4922 1958 5370 1600 
L 5709 2035 
C 5197 2426 4179 3002 3418 3373 
L 3328 3270 
L 3328 4422 
L 6054 4422 
L 6054 4902 
L 352 4902 
z
" transform="scale(0.015625)"/>
      <path id="Cmmi10-63" d="M 594 1491 
Q 531 1519 531 1600 
Q 531 1681 616 1722 
L 4269 3444 
Q 4294 3456 4313 3456 
Q 4369 3456 4405 3417 
Q 4441 3378 4441 3328 
Q 4441 3250 4366 3206 
L 959 1600 
L 4384 -19 
Q 4441 -38 4441 -128 
Q 4441 -178 4405 -217 
Q 4369 -256 4313 -256 
Q 4294 -256 4269 -244 
L 594 1491 
z
" transform="scale(0.015625)"/>
     </defs>
     <use xlink:href="#NotoSansCJKjp-Regular-a9ba" transform="translate(0 0.703125)"/>
     <use xlink:href="#NotoSansCJKjp-Regular-b7c4" transform="translate(99.999908 0.703125)"/>
     <use xlink:href="#NotoSansCJKjp-Regular-2516" transform="translate(199.999817 0.703125)"/>
     <use xlink:href="#NotoSansCJKjp-Regular-4ea0" transform="translate(299.999725 0.703125)"/>
     <use xlink:href="#NotoSansCJKjp-Regular-e6c0" transform="translate(399.999634 0.703125)"/>
     <use xlink:href="#Cmmi10-5f" transform="translate(499.999542 0.703125)"/>
     <use xlink:href="#Cmmi10-63" transform="translate(577.616787 0.703125)"/>
     <use xlink:href="#Cmr10-28" transform="translate(675.302391 0.703125)"/>
     <use xlink:href="#NotoSansCJKjp-Regular-e6b2" transform="translate(725.302391 0.703125)"/>
     <use xlink:href="#Cmmi10-4a" transform="translate(825.302299 0.703125)"/>
     <use xlink:href="#Cmmi10-2f" transform="translate(893.51519 -14.296837) scale(0.7)"/>
     <use xlink:href="#Cmr10-29" transform="translate(952.629218 0.703125)"/>
     <use xlink:href="#Cmmi10-45" transform="translate(1050.314822 0.703125)"/>
     <use xlink:href="#Cmmi10-2f" transform="translate(1138.10779 0.703125)"/>
     <use xlink:href="#Cmmi10-5f" transform="translate(1185.812868 0.703125)"/>
     <use xlink:href="#Cmmi10-63" transform="translate(1263.430113 0.703125)"/>
     <use xlink:href="#Cmr10-28" transform="translate(1361.115717 0.703125)"/>
    </g>
   </g>
   <g id="text_4">
    <!-- 高度座標 $h$ -->
    <g style="fill: #6b7280" transform="translate(94.657901 92.346704) scale(0.11 -0.11)">
     <defs>
      <path id="NotoSansCJKjp-Regular-b0d5" d="M 1939 3635 
L 4448 3635 
L 4448 3021 
L 1939 3021 
L 1939 3635 
z
M 1478 3987 
L 1478 2662 
L 4928 2662 
L 4928 3987 
L 1478 3987 
z
M 2918 5382 
L 2918 4768 
L 416 4768 
L 416 4346 
L 5978 4346 
L 5978 4768 
L 3411 4768 
L 3411 5382 
L 2918 5382 
z
M 704 2266 
L 704 -512 
L 1171 -512 
L 1171 1856 
L 5261 1856 
L 5261 70 
C 5261 -19 5235 -45 5120 -51 
C 5018 -58 4653 -58 4237 -45 
C 4301 -179 4371 -365 4390 -499 
C 4922 -499 5267 -499 5478 -422 
C 5683 -346 5741 -205 5741 64 
L 5741 2266 
L 704 2266 
z
M 2406 1088 
L 3994 1088 
L 3994 435 
L 2406 435 
L 2406 1088 
z
M 1984 1440 
L 1984 -243 
L 2406 -243 
L 2406 83 
L 4422 83 
L 4422 1440 
L 1984 1440 
z
" transform="scale(0.015625)"/>
      <path id="NotoSansCJKjp-Regular-4231" d="M 2470 4141 
L 2470 3584 
L 1440 3584 
L 1440 3187 
L 2470 3187 
L 2470 2125 
L 4960 2125 
L 4960 3187 
L 5997 3187 
L 5997 3584 
L 4960 3584 
L 4960 4141 
L 4486 4141 
L 4486 3584 
L 2931 3584 
L 2931 4141 
L 2470 4141 
z
M 4486 3187 
L 4486 2509 
L 2931 2509 
L 2931 3187 
L 4486 3187 
z
M 4851 1318 
C 4582 986 4211 717 3770 506 
C 3334 723 2970 992 2720 1318 
L 4851 1318 
z
M 1530 1715 
L 1530 1318 
L 2502 1318 
L 2259 1222 
C 2515 858 2861 550 3270 301 
C 2662 90 1978 -38 1280 -109 
C 1357 -211 1453 -397 1485 -512 
C 2291 -416 3072 -243 3757 45 
C 4365 -237 5088 -422 5869 -525 
C 5933 -403 6048 -211 6150 -109 
C 5466 -38 4819 96 4269 294 
C 4813 608 5261 1024 5549 1574 
L 5248 1734 
L 5165 1715 
L 1530 1715 
z
M 774 4742 
L 774 2893 
C 774 1965 730 659 198 -256 
C 314 -307 512 -435 595 -518 
C 1152 448 1235 1901 1235 2893 
L 1235 4307 
L 6035 4307 
L 6035 4742 
L 3635 4742 
L 3635 5376 
L 3142 5376 
L 3142 4742 
L 774 4742 
z
" transform="scale(0.015625)"/>
      <path id="NotoSansCJKjp-Regular-4233" d="M 4832 3878 
C 4704 3104 4397 2496 3872 2112 
L 3872 3987 
L 3405 3987 
L 3405 1459 
L 1632 1459 
L 1632 1030 
L 3405 1030 
L 3405 77 
L 1216 77 
L 1216 -346 
L 6099 -346 
L 6099 77 
L 3872 77 
L 3872 1030 
L 5702 1030 
L 5702 1459 
L 3872 1459 
L 3872 2086 
C 3974 2016 4141 1875 4198 1805 
C 4480 2029 4710 2310 4890 2650 
C 5235 2349 5600 1997 5805 1766 
L 6106 2093 
C 5882 2349 5440 2733 5062 3040 
C 5152 3283 5222 3546 5267 3827 
L 4832 3878 
z
M 2253 3878 
C 2131 3066 1837 2413 1286 2010 
C 1389 1946 1574 1798 1645 1722 
C 1933 1958 2170 2266 2342 2630 
C 2605 2381 2867 2099 3014 1901 
L 3302 2221 
C 3136 2438 2803 2765 2509 3027 
C 2592 3277 2656 3546 2701 3840 
L 2253 3878 
z
M 717 4698 
L 717 2918 
C 717 1990 672 698 173 -224 
C 288 -275 493 -410 582 -493 
C 1107 486 1190 1933 1190 2918 
L 1190 4250 
L 6074 4250 
L 6074 4698 
L 3635 4698 
L 3635 5376 
L 3142 5376 
L 3142 4698 
L 717 4698 
z
" transform="scale(0.015625)"/>
      <path id="NotoSansCJKjp-Regular-5605" d="M 2810 2330 
L 2810 1958 
L 5818 1958 
L 5818 2330 
L 2810 2330 
z
M 4947 710 
C 5267 403 5651 -26 5830 -294 
L 6189 -38 
C 6003 237 5613 640 5286 934 
L 4947 710 
z
M 3149 954 
C 2938 634 2541 243 2170 0 
C 2272 -77 2400 -198 2470 -288 
C 2861 -26 3264 365 3514 749 
L 3149 954 
z
M 2643 4250 
L 2643 2714 
L 5984 2714 
L 5984 4250 
L 4966 4250 
L 4966 4698 
L 6144 4698 
L 6144 5094 
L 2438 5094 
L 2438 4698 
L 3590 4698 
L 3590 4250 
L 2643 4250 
z
M 3981 4698 
L 4570 4698 
L 4570 4250 
L 3981 4250 
L 3981 4698 
z
M 2406 1498 
L 2406 1094 
L 4038 1094 
L 4038 -32 
C 4038 -96 4019 -115 3936 -122 
C 3859 -128 3622 -128 3309 -115 
C 3373 -237 3437 -397 3456 -518 
C 3859 -518 4115 -512 4282 -448 
C 4448 -378 4486 -256 4486 -38 
L 4486 1094 
L 6144 1094 
L 6144 1498 
L 2406 1498 
z
M 3046 3872 
L 3622 3872 
L 3622 3085 
L 3046 3085 
L 3046 3872 
z
M 3974 3872 
L 4570 3872 
L 4570 3085 
L 3974 3085 
L 3974 3872 
z
M 4928 3872 
L 5562 3872 
L 5562 3085 
L 4928 3085 
L 4928 3872 
z
M 1229 5376 
L 1229 3987 
L 333 3987 
L 333 3539 
L 1178 3539 
C 992 2669 602 1658 198 1120 
C 275 1011 390 832 442 704 
C 736 1120 1011 1792 1229 2483 
L 1229 -506 
L 1670 -506 
L 1670 2528 
C 1862 2214 2086 1818 2176 1606 
L 2438 1965 
C 2330 2144 1843 2874 1670 3098 
L 1670 3539 
L 2394 3539 
L 2394 3987 
L 1670 3987 
L 1670 5376 
L 1229 5376 
z
" transform="scale(0.015625)"/>
      <path id="NotoSansCJKjp-Regular-1" transform="scale(0.015625)"/>
     </defs>
     <use xlink:href="#NotoSansCJKjp-Regular-b0d5" transform="translate(0 0.90625)"/>
     <use xlink:href="#NotoSansCJKjp-Regular-4231" transform="translate(99.999908 0.90625)"/>
     <use xlink:href="#NotoSansCJKjp-Regular-4233" transform="translate(199.999817 0.90625)"/>
     <use xlink:href="#NotoSansCJKjp-Regular-5605" transform="translate(299.999725 0.90625)"/>
     <use xlink:href="#NotoSansCJKjp-Regular-1" transform="translate(399.999634 0.90625)"/>
     <use xlink:href="#Cmmi10-5f" transform="translate(422.399612 0.90625)"/>
    </g>
   </g>
   <g id="text_5">
    <!-- 零點可任意選；換零點只改變各處位能的數值，不改變物理上有意義的位能差 -->
    <g style="fill: #222831" transform="translate(7.2 298.71662) scale(0.11 -0.11)">
     <defs>
      <path id="NotoSansCJKjp-Regular-2e8e" d="M 358 4922 
L 358 4442 
L 4781 4442 
L 4781 186 
C 4781 51 4736 13 4595 0 
C 4442 0 3917 -6 3405 19 
C 3482 -122 3571 -358 3603 -499 
C 4237 -499 4685 -499 4941 -416 
C 5190 -333 5280 -166 5280 179 
L 5280 4442 
L 6067 4442 
L 6067 4922 
L 358 4922 
z
M 1478 3040 
L 3162 3040 
L 3162 1568 
L 1478 1568 
L 1478 3040 
z
M 1011 3501 
L 1011 595 
L 1478 595 
L 1478 1107 
L 3635 1107 
L 3635 3501 
L 1011 3501 
z
" transform="scale(0.015625)"/>
      <path id="NotoSansCJKjp-Regular-2673" d="M 2195 198 
L 2195 -262 
L 6042 -262 
L 6042 198 
L 4333 198 
L 4333 2176 
L 6144 2176 
L 6144 2637 
L 4333 2637 
L 4333 4422 
C 4909 4531 5453 4666 5888 4813 
L 5530 5216 
C 4742 4928 3347 4678 2157 4518 
C 2208 4410 2278 4230 2298 4115 
C 2797 4173 3328 4243 3846 4333 
L 3846 2637 
L 1946 2637 
L 1946 2176 
L 3846 2176 
L 3846 198 
L 2195 198 
z
M 1888 5376 
C 1485 4371 832 3386 141 2758 
C 230 2643 384 2394 435 2278 
C 691 2528 947 2822 1190 3149 
L 1190 -512 
L 1664 -512 
L 1664 3859 
C 1926 4294 2163 4762 2349 5229 
L 1888 5376 
z
" transform="scale(0.015625)"/>
      <path id="NotoSansCJKjp-Regular-466b" d="M 1645 1651 
L 1645 2080 
L 4787 2080 
L 4787 1651 
L 1645 1651 
z
M 1645 2400 
L 1645 2829 
L 4787 2829 
L 4787 2400 
L 1645 2400 
z
M 1581 851 
L 1178 998 
C 1018 576 717 141 269 -109 
L 646 -365 
C 1120 -83 1395 384 1581 851 
z
M 5005 1056 
L 4634 832 
C 5069 506 5549 19 5754 -326 
L 6150 -77 
C 5926 269 5434 736 5005 1056 
z
M 2374 128 
L 2374 954 
L 1907 954 
L 1907 128 
C 1907 -333 2074 -454 2726 -454 
C 2861 -454 3795 -454 3936 -454 
C 4461 -454 4602 -288 4659 435 
C 4531 461 4346 525 4237 595 
C 4211 26 4166 -51 3898 -51 
C 3686 -51 2912 -51 2765 -51 
C 2432 -51 2374 -26 2374 128 
z
M 5261 3155 
L 1190 3155 
L 1190 1318 
L 2842 1318 
L 2586 1075 
C 2950 870 3398 570 3622 371 
L 3904 659 
C 3674 858 3226 1139 2861 1318 
L 5261 1318 
L 5261 3155 
z
M 4051 3872 
L 2272 3872 
L 2464 3923 
C 2419 4096 2310 4346 2189 4557 
L 4218 4557 
C 4141 4352 4006 4090 3904 3910 
L 4051 3872 
z
M 5638 4954 
L 3430 4954 
L 3430 5376 
L 2950 5376 
L 2950 4954 
L 755 4954 
L 755 4557 
L 1914 4557 
L 1722 4512 
C 1837 4320 1939 4064 1984 3872 
L 467 3872 
L 467 3482 
L 5971 3482 
L 5971 3872 
L 4371 3872 
C 4480 4051 4614 4275 4736 4506 
L 4518 4557 
L 5638 4557 
L 5638 4954 
z
" transform="scale(0.015625)"/>
      <path id="NotoSansCJKjp-Regular-9e5f" d="M 320 4979 
C 691 4666 1107 4198 1280 3885 
L 1683 4154 
C 1498 4474 1075 4922 691 5222 
L 320 4979 
z
M 4352 1018 
C 4794 787 5261 486 5523 250 
L 5990 454 
C 5690 698 5158 1005 4698 1229 
L 4352 1018 
z
M 3174 1242 
C 2886 986 2413 736 1978 570 
C 2080 499 2253 346 2330 269 
C 2758 467 3270 781 3603 1094 
L 3174 1242 
z
M 1530 2848 
L 288 2848 
L 288 2400 
L 1075 2400 
L 1075 730 
C 794 467 480 192 218 0 
L 467 -461 
C 774 -173 1062 102 1338 384 
C 1734 -128 2323 -352 3174 -384 
C 3898 -410 5299 -397 6029 -371 
C 6048 -230 6118 -19 6176 90 
C 5395 38 3885 19 3162 45 
C 2406 77 1837 294 1530 774 
L 1530 2848 
z
M 4461 3136 
L 4461 2669 
L 3411 2669 
L 3411 3136 
L 2957 3136 
L 2957 2669 
L 2010 2669 
L 2010 2298 
L 2957 2298 
L 2957 1690 
L 1805 1690 
L 1805 1312 
L 6093 1312 
L 6093 1690 
L 4922 1690 
L 4922 2298 
L 5894 2298 
L 5894 2669 
L 4922 2669 
L 4922 3136 
L 4461 3136 
z
M 3411 2298 
L 4461 2298 
L 4461 1690 
L 3411 1690 
L 3411 2298 
z
M 2035 4378 
L 2035 3706 
C 2035 3315 2163 3219 2637 3219 
C 2733 3219 3334 3219 3437 3219 
C 3770 3219 3891 3328 3936 3744 
C 3814 3770 3661 3821 3578 3878 
C 3558 3597 3533 3558 3379 3558 
C 3258 3558 2771 3558 2682 3558 
C 2477 3558 2445 3584 2445 3706 
L 2445 4038 
L 3712 4038 
L 3712 5126 
L 1926 5126 
L 1926 4794 
L 3296 4794 
L 3296 4378 
L 2035 4378 
z
M 4141 4378 
L 4141 3712 
C 4141 3315 4275 3219 4755 3219 
C 4858 3219 5510 3219 5619 3219 
C 5958 3219 6086 3334 6125 3763 
C 6010 3795 5856 3840 5773 3904 
C 5747 3603 5722 3558 5562 3558 
C 5427 3558 4902 3558 4800 3558 
C 4589 3558 4550 3584 4550 3712 
L 4550 4038 
L 5805 4038 
L 5805 5126 
L 4019 5126 
L 4019 4794 
L 5382 4794 
L 5382 4378 
L 4141 4378 
z
" transform="scale(0.015625)"/>
      <path id="NotoSansCJKjp-Regular-e6c1" d="M 3200 3482 
C 3456 3482 3686 3667 3686 3962 
C 3686 4256 3456 4442 3200 4442 
C 2944 4442 2714 4256 2714 3962 
C 2714 3667 2944 3482 3200 3482 
z
M 2682 -659 
C 3366 -397 3789 141 3789 883 
C 3789 1363 3590 1664 3238 1664 
C 2982 1664 2752 1504 2752 1203 
C 2752 896 2970 742 3232 742 
L 3347 755 
C 3328 256 3053 -83 2534 -320 
L 2682 -659 
z
" transform="scale(0.015625)"/>
      <path id="NotoSansCJKjp-Regular-4b35" d="M 2912 3866 
L 2854 3866 
C 3046 4070 3213 4282 3347 4499 
L 4429 4499 
C 4326 4282 4205 4051 4083 3866 
L 2912 3866 
z
M 1069 5370 
L 1069 4083 
L 269 4083 
L 269 3635 
L 1069 3635 
L 1069 2323 
L 179 2054 
L 301 1594 
L 1069 1843 
L 1069 45 
C 1069 -45 1037 -70 960 -70 
C 883 -77 634 -77 358 -64 
C 416 -198 480 -397 493 -512 
C 902 -518 1146 -499 1299 -422 
C 1459 -352 1517 -218 1517 45 
L 1517 1990 
L 2221 2221 
L 2150 2662 
L 1517 2464 
L 1517 3635 
L 2176 3635 
C 2253 3571 2330 3494 2374 3430 
L 2502 3533 
L 2502 1754 
L 2912 1754 
L 2912 2496 
C 2989 2438 3085 2317 3130 2227 
C 3674 2470 3846 2854 3904 3469 
L 4346 3469 
L 4346 2861 
C 4346 2502 4435 2419 4819 2419 
C 4896 2419 5280 2419 5350 2419 
L 5414 2419 
L 5414 1773 
L 5837 1773 
L 5837 3866 
L 4550 3866 
C 4723 4122 4902 4429 5024 4710 
L 4717 4902 
L 4646 4883 
L 3571 4883 
C 3642 5024 3706 5171 3763 5312 
L 3302 5382 
C 3130 4883 2765 4301 2208 3853 
L 2208 4083 
L 1517 4083 
L 1517 5370 
L 1069 5370 
z
M 2912 2502 
L 2912 3469 
L 3539 3469 
C 3501 2982 3347 2688 2912 2502 
z
M 4717 3469 
L 5414 3469 
L 5414 2797 
C 5408 2758 5382 2752 5293 2752 
C 5216 2752 4922 2752 4864 2752 
C 4730 2752 4717 2765 4717 2861 
L 4717 3469 
z
M 3904 2093 
C 3885 1888 3866 1696 3834 1517 
L 2138 1517 
L 2138 1107 
L 3725 1107 
C 3507 474 3021 70 1920 -160 
C 2010 -250 2118 -416 2163 -525 
C 3302 -262 3840 186 4109 870 
C 4448 166 5018 -282 5894 -493 
C 5952 -371 6074 -192 6176 -96 
C 5325 64 4768 474 4467 1107 
L 6086 1107 
L 6086 1517 
L 4282 1517 
C 4314 1696 4333 1888 4352 2093 
L 3904 2093 
z
" transform="scale(0.015625)"/>
      <path id="NotoSansCJKjp-Regular-2e85" d="M 3776 1011 
C 4410 557 5184 -102 5549 -531 
L 5971 -230 
C 5581 205 4787 838 4160 1267 
L 3776 1011 
z
M 2163 1280 
C 1792 768 1043 186 371 -179 
C 486 -262 659 -416 755 -518 
C 1440 -134 2195 493 2675 1082 
L 2163 1280 
z
M 1062 4941 
L 1062 1491 
L 1542 1491 
L 1542 1722 
L 4973 1722 
L 4973 1523 
L 5472 1523 
L 5472 4941 
L 1062 4941 
z
M 1542 2182 
L 1542 4474 
L 4973 4474 
L 4973 2182 
L 1542 2182 
z
" transform="scale(0.015625)"/>
      <path id="NotoSansCJKjp-Regular-4dc9" d="M 3693 5376 
C 3494 4365 3136 3411 2624 2778 
L 2624 4813 
L 442 4813 
L 442 4365 
L 2157 4365 
L 2157 3104 
L 448 3104 
L 448 1050 
C 448 506 608 371 1178 371 
C 1299 371 2042 371 2170 371 
C 2662 371 2803 576 2861 1382 
C 2726 1421 2528 1498 2426 1574 
C 2400 928 2362 826 2131 826 
C 1965 826 1344 826 1222 826 
C 960 826 909 858 909 1056 
L 909 2662 
L 2157 2662 
L 2157 2419 
L 2624 2419 
L 2624 2630 
C 2746 2554 2893 2445 2963 2381 
C 3130 2579 3277 2816 3418 3078 
C 3597 2355 3834 1709 4154 1158 
C 3712 595 3117 186 2304 -109 
C 2394 -211 2547 -422 2598 -538 
C 3373 -218 3968 192 4429 730 
C 4813 198 5299 -224 5901 -506 
C 5971 -378 6125 -186 6234 -90 
C 5613 173 5120 595 4736 1139 
C 5184 1818 5466 2675 5645 3744 
L 6157 3744 
L 6157 4205 
L 3898 4205 
C 4013 4550 4109 4915 4192 5286 
L 3693 5376 
z
M 3725 3744 
L 5146 3744 
C 5005 2880 4787 2170 4454 1594 
C 4115 2208 3878 2938 3725 3738 
L 3725 3744 
z
" transform="scale(0.015625)"/>
      <path id="NotoSansCJKjp-Regular-95ec" d="M 1664 2874 
C 1798 2650 1933 2342 1984 2150 
L 2291 2285 
C 2240 2470 2099 2765 1965 2982 
L 1664 2874 
z
M 640 2970 
C 563 2624 442 2259 262 2003 
C 358 1958 512 1869 582 1818 
C 755 2093 909 2502 998 2886 
L 640 2970 
z
M 5376 2848 
C 5568 2560 5760 2170 5830 1926 
L 6150 2080 
C 6067 2317 5869 2694 5677 2976 
L 5376 2848 
z
M 4275 2963 
C 4198 2630 4077 2298 3898 2048 
C 3987 2010 4141 1926 4211 1882 
C 4384 2138 4538 2522 4627 2886 
L 4275 2963 
z
M 2477 5203 
L 2477 4922 
L 3853 4922 
L 3853 5203 
L 2477 5203 
z
M 2464 4077 
L 2464 3802 
L 3866 3802 
L 3866 4077 
L 2464 4077 
z
M 2464 3533 
L 2464 3251 
L 3866 3251 
L 3866 3533 
L 2464 3533 
z
M 2803 2688 
L 3520 2688 
L 3520 2214 
L 2803 2214 
L 2803 2688 
z
M 1709 4832 
C 1587 4653 1427 4435 1254 4218 
C 1184 4294 1094 4384 998 4474 
C 1178 4691 1376 4973 1542 5242 
L 1197 5382 
C 1094 5178 928 4896 774 4672 
L 614 4800 
L 390 4550 
C 608 4371 858 4134 1018 3942 
C 902 3808 787 3680 678 3571 
L 307 3571 
L 346 3200 
L 1152 3232 
L 1152 1728 
L 1530 1728 
L 1530 3251 
L 2029 3270 
L 2125 3085 
L 2406 3251 
C 2304 3469 2067 3795 1856 4038 
L 1581 3891 
C 1658 3802 1741 3699 1818 3590 
L 1094 3578 
C 1414 3904 1773 4307 2054 4659 
L 1709 4832 
z
M 2208 4659 
L 2208 4352 
L 4064 4352 
L 4064 4474 
C 4269 4320 4499 4109 4653 3936 
C 4531 3802 4416 3680 4301 3571 
L 3942 3571 
L 3987 3200 
L 4813 3232 
L 4813 1728 
L 5190 1728 
L 5190 3251 
L 5734 3277 
C 5792 3187 5843 3110 5875 3040 
L 6163 3226 
C 6042 3462 5754 3814 5504 4077 
L 5235 3917 
C 5325 3821 5421 3706 5510 3590 
L 4730 3578 
C 5075 3910 5459 4339 5766 4704 
L 5421 4883 
C 5286 4685 5094 4442 4896 4211 
C 4819 4288 4723 4378 4621 4461 
C 4800 4678 5018 4966 5190 5242 
L 4838 5382 
C 4736 5171 4550 4877 4390 4653 
L 4250 4755 
L 4064 4538 
L 4064 4659 
L 2208 4659 
z
M 4269 1171 
C 3987 902 3622 685 3194 506 
C 2707 691 2278 909 1965 1171 
L 4269 1171 
z
M 2451 2963 
L 2451 2054 
L 2189 2131 
C 1824 1549 1120 1069 397 781 
C 499 704 666 531 736 448 
C 1030 589 1331 755 1606 960 
C 1901 710 2253 493 2650 307 
C 1933 90 1101 -45 256 -122 
C 339 -224 461 -422 499 -538 
C 1453 -416 2400 -237 3206 77 
C 4026 -230 4966 -422 5914 -525 
C 5971 -403 6080 -218 6176 -115 
C 5338 -45 4493 102 3757 320 
C 4198 544 4582 826 4870 1171 
L 5920 1171 
L 5920 1562 
L 2291 1562 
C 2394 1683 2496 1805 2579 1939 
L 3878 1939 
L 3878 2963 
L 2451 2963 
z
" transform="scale(0.015625)"/>
      <path id="NotoSansCJKjp-Regular-2ea8" d="M 1299 1779 
L 1299 -538 
L 1779 -538 
L 1779 -237 
L 4589 -237 
L 4589 -518 
L 5094 -518 
L 5094 1779 
L 1299 1779 
z
M 1779 192 
L 1779 1338 
L 4589 1338 
L 4589 192 
L 1779 192 
z
M 2394 5427 
C 1939 4640 1165 3923 358 3475 
C 467 3398 646 3213 723 3123 
C 1069 3341 1421 3610 1747 3923 
C 2048 3578 2406 3264 2797 2982 
C 1978 2541 1037 2214 186 2042 
C 269 1939 378 1741 422 1613 
C 1350 1824 2355 2189 3238 2694 
C 4032 2208 4947 1850 5888 1638 
C 5958 1766 6093 1971 6202 2074 
C 5312 2246 4435 2560 3680 2970 
C 4326 3398 4877 3917 5254 4512 
L 4922 4730 
L 4838 4704 
L 2464 4704 
C 2605 4883 2739 5075 2854 5267 
L 2394 5427 
z
M 2054 4224 
L 2106 4282 
L 4480 4282 
C 4160 3891 3725 3546 3232 3238 
C 2771 3533 2368 3866 2054 4224 
z
" transform="scale(0.015625)"/>
      <path id="NotoSansCJKjp-Regular-8c09" d="M 2106 2528 
C 1914 1933 1555 1395 1133 1030 
C 1222 1594 1248 2163 1248 2618 
L 1248 3808 
L 2893 3808 
L 2893 3379 
L 1594 3296 
L 1613 2963 
L 2893 3046 
L 2893 2874 
C 2893 2432 3078 2330 3770 2330 
C 3917 2330 5069 2330 5222 2330 
C 5715 2330 5862 2451 5907 2944 
C 5792 2963 5613 3014 5517 3078 
C 5491 2739 5440 2682 5171 2682 
C 4934 2682 3968 2682 3795 2682 
C 3405 2682 3341 2714 3341 2880 
L 3341 3078 
L 4973 3187 
L 4947 3507 
L 3341 3405 
L 3341 3808 
L 5434 3808 
C 5357 3584 5267 3354 5184 3200 
L 5587 3078 
C 5734 3341 5901 3757 6029 4122 
L 5696 4211 
L 5613 4192 
L 3366 4192 
L 3366 4608 
L 5568 4608 
L 5568 4973 
L 3366 4973 
L 3366 5376 
L 2893 5376 
L 2893 4192 
L 794 4192 
L 794 2624 
C 794 1779 742 602 237 -237 
C 339 -288 531 -435 608 -525 
C 870 -96 1030 435 1120 973 
C 1210 902 1331 774 1389 710 
C 1536 845 1683 1005 1824 1184 
C 1926 896 2042 653 2182 454 
C 1862 141 1472 -77 1037 -205 
C 1114 -288 1216 -442 1254 -538 
C 1702 -384 2106 -160 2438 160 
C 2938 -326 3622 -442 4499 -442 
L 6010 -442 
C 6035 -320 6106 -128 6170 -32 
C 5901 -38 4717 -38 4518 -32 
C 3776 -32 3162 58 2701 448 
C 3008 832 3238 1331 3366 1958 
L 3117 2029 
L 3040 2016 
L 2323 2016 
C 2387 2150 2445 2291 2490 2432 
L 2106 2528 
z
M 2138 1658 
L 2893 1658 
C 2784 1299 2630 998 2438 742 
C 2285 947 2163 1210 2061 1530 
L 2138 1658 
z
M 3744 2022 
L 3744 1517 
C 3744 1178 3674 781 3238 467 
C 3322 410 3482 269 3539 192 
C 4032 557 4141 1075 4141 1498 
L 4141 1645 
L 4832 1645 
L 4832 909 
C 4832 582 4858 486 4947 410 
C 5024 333 5165 307 5274 307 
C 5338 307 5491 307 5562 307 
C 5651 307 5773 320 5837 358 
C 5914 390 5965 461 6003 557 
C 6035 640 6054 902 6061 1139 
C 5958 1171 5824 1235 5747 1299 
C 5741 1069 5734 896 5722 806 
C 5702 736 5677 691 5651 678 
C 5632 666 5581 659 5536 659 
C 5485 659 5408 659 5370 659 
C 5325 659 5299 666 5274 678 
C 5254 704 5248 768 5248 883 
L 5248 2022 
L 3744 2022 
z
" transform="scale(0.015625)"/>
      <path id="NotoSansCJKjp-Regular-26e3" d="M 2630 3155 
C 2867 2304 3066 1190 3110 544 
L 3578 646 
C 3526 1280 3302 2381 3059 3232 
L 2630 3155 
z
M 2106 4115 
L 2106 3661 
L 6016 3661 
L 6016 4115 
L 4250 4115 
L 4250 5299 
L 3770 5299 
L 3770 4115 
L 2106 4115 
z
M 1946 243 
L 1946 -211 
L 6176 -211 
L 6176 243 
L 4634 243 
C 4928 1043 5261 2246 5485 3194 
L 4966 3283 
C 4800 2362 4461 1056 4166 243 
L 1946 243 
z
M 1773 5357 
C 1395 4390 774 3443 128 2835 
C 211 2720 352 2470 397 2355 
C 640 2598 877 2880 1107 3194 
L 1107 -493 
L 1568 -493 
L 1568 3891 
C 1818 4314 2048 4762 2227 5216 
L 1773 5357 
z
" transform="scale(0.015625)"/>
      <path id="NotoSansCJKjp-Regular-8006" d="M 2131 4774 
C 2278 4576 2432 4339 2560 4109 
L 1248 4058 
C 1446 4422 1651 4864 1824 5261 
L 1331 5382 
C 1197 4979 966 4442 742 4038 
L 256 4019 
L 294 3552 
C 960 3590 1882 3635 2784 3693 
C 2854 3552 2912 3424 2950 3309 
L 3366 3494 
C 3226 3891 2867 4486 2528 4928 
L 2131 4774 
z
M 2451 2688 
L 2451 2138 
L 1088 2138 
L 1088 2688 
L 2451 2688 
z
M 640 3098 
L 640 -506 
L 1088 -506 
L 1088 800 
L 2451 800 
L 2451 51 
C 2451 -32 2432 -58 2349 -58 
C 2253 -64 1984 -64 1683 -51 
C 1747 -179 1818 -365 1843 -493 
C 2246 -493 2522 -486 2701 -416 
C 2874 -339 2925 -205 2925 45 
L 2925 3098 
L 640 3098 
z
M 1088 1760 
L 2451 1760 
L 2451 1178 
L 1088 1178 
L 1088 1760 
z
M 5491 4896 
C 5126 4704 4550 4474 4006 4288 
L 4006 5363 
L 3526 5363 
L 3526 3238 
C 3526 2707 3686 2566 4307 2566 
C 4429 2566 5267 2566 5408 2566 
C 5920 2566 6061 2771 6118 3558 
C 5984 3590 5786 3661 5683 3744 
C 5658 3110 5613 3002 5363 3002 
C 5184 3002 4480 3002 4352 3002 
C 4058 3002 4006 3040 4006 3245 
L 4006 3904 
C 4621 4083 5306 4307 5811 4538 
L 5491 4896 
z
M 5568 2042 
C 5197 1805 4582 1555 4000 1363 
L 4000 2387 
L 3526 2387 
L 3526 224 
C 3526 -314 3693 -454 4320 -454 
C 4454 -454 5318 -454 5459 -454 
C 5997 -454 6138 -224 6195 634 
C 6061 666 5875 742 5760 819 
C 5734 96 5690 -26 5421 -26 
C 5229 -26 4506 -26 4365 -26 
C 4058 -26 4000 13 4000 224 
L 4000 966 
C 4646 1146 5382 1395 5882 1683 
L 5568 2042 
z
" transform="scale(0.015625)"/>
      <path id="NotoSansCJKjp-Regular-6c33" d="M 3533 2707 
C 3885 2240 4320 1600 4512 1210 
L 4922 1466 
C 4710 1843 4269 2464 3904 2918 
L 3533 2707 
z
M 1536 5389 
C 1485 5082 1376 4659 1274 4346 
L 557 4346 
L 557 -346 
L 998 -346 
L 998 160 
L 2784 160 
L 2784 4346 
L 1715 4346 
C 1824 4621 1946 4979 2054 5299 
L 1536 5389 
z
M 998 3917 
L 2342 3917 
L 2342 2566 
L 998 2566 
L 998 3917 
z
M 998 595 
L 998 2144 
L 2342 2144 
L 2342 595 
L 998 595 
z
M 3827 5402 
C 3622 4518 3277 3635 2835 3066 
C 2950 3002 3149 2867 3238 2790 
C 3456 3098 3661 3488 3840 3923 
L 5478 3923 
C 5402 1357 5299 371 5094 154 
C 5018 64 4947 45 4819 45 
C 4672 45 4288 51 3866 83 
C 3955 -38 4013 -243 4026 -378 
C 4384 -397 4762 -410 4979 -390 
C 5210 -365 5350 -314 5498 -122 
C 5754 192 5843 1184 5939 4122 
C 5946 4186 5946 4365 5946 4365 
L 4013 4365 
C 4115 4666 4211 4986 4288 5299 
L 3827 5402 
z
" transform="scale(0.015625)"/>
      <path id="NotoSansCJKjp-Regular-4e26" d="M 4352 3744 
L 5318 3744 
C 5216 2957 5062 2266 4826 1677 
C 4595 2266 4442 2944 4333 3661 
L 4352 3744 
z
M 256 4301 
L 256 3936 
L 698 3936 
L 698 3245 
L 1741 3245 
L 1741 2950 
L 538 2950 
L 538 1882 
L 1485 1882 
L 1274 1478 
L 262 1472 
L 275 1088 
L 1069 1094 
C 928 845 787 608 666 422 
L 1062 307 
L 1171 486 
C 1389 403 1606 314 1818 218 
C 1459 32 998 -83 416 -154 
C 493 -256 570 -410 602 -538 
C 1293 -416 1837 -250 2246 13 
C 2522 -128 2765 -275 2957 -410 
L 3264 -102 
C 3078 19 2848 154 2586 282 
C 2816 512 2976 794 3072 1133 
L 3750 1152 
L 3763 1510 
L 1734 1485 
L 1939 1882 
L 3424 1882 
L 3424 2419 
C 3526 2336 3648 2221 3706 2157 
C 3834 2362 3949 2592 4051 2848 
C 4179 2221 4346 1645 4563 1146 
C 4256 614 3853 192 3309 -134 
C 3392 -224 3539 -429 3584 -525 
C 4090 -198 4486 192 4794 666 
C 5075 166 5414 -237 5850 -518 
C 5920 -403 6067 -224 6176 -141 
C 5709 141 5350 582 5062 1133 
C 5421 1843 5638 2707 5779 3744 
L 6144 3744 
L 6144 4186 
L 4467 4186 
C 4550 4544 4621 4922 4678 5306 
L 4211 5376 
C 4070 4339 3827 3315 3424 2618 
L 3424 2950 
L 2163 2950 
L 2163 3245 
L 3277 3245 
L 3277 3936 
L 3731 3936 
L 3731 4301 
L 3277 4301 
L 3277 4986 
L 2163 4986 
L 2163 5376 
L 1741 5376 
L 1741 4986 
L 698 4986 
L 698 4301 
L 256 4301 
z
M 1101 4646 
L 1741 4646 
L 1741 4282 
L 1101 4282 
L 1101 4646 
z
M 1741 3578 
L 1101 3578 
L 1101 3955 
L 1741 3955 
L 1741 3578 
z
M 2163 4646 
L 2848 4646 
L 2848 4282 
L 2163 4282 
L 2163 4646 
z
M 2163 3578 
L 2163 3955 
L 2848 3955 
L 2848 3578 
L 2163 3578 
z
M 947 2624 
L 1741 2624 
L 1741 2202 
L 947 2202 
L 947 2624 
z
M 2163 2624 
L 3002 2624 
L 3002 2202 
L 2163 2202 
L 2163 2624 
z
M 1530 1107 
L 2630 1126 
C 2534 864 2387 646 2189 467 
C 1920 589 1632 704 1357 800 
L 1530 1107 
z
" transform="scale(0.015625)"/>
      <path id="NotoSansCJKjp-Regular-286c" d="M 3834 5376 
C 3814 5184 3782 4954 3750 4723 
L 2106 4723 
L 2106 4294 
L 3674 4294 
C 3635 4077 3597 3872 3552 3699 
L 2445 3699 
L 2445 90 
L 1830 90 
L 1830 -326 
L 6131 -326 
L 6131 90 
L 5562 90 
L 5562 3699 
L 3987 3699 
C 4038 3872 4090 4077 4134 4294 
L 5939 4294 
L 5939 4723 
L 4230 4723 
L 4346 5344 
L 3834 5376 
z
M 2880 90 
L 2880 621 
L 5114 621 
L 5114 90 
L 2880 90 
z
M 2880 2426 
L 5114 2426 
L 5114 1875 
L 2880 1875 
L 2880 2426 
z
M 2880 2784 
L 2880 3322 
L 5114 3322 
L 5114 2784 
L 2880 2784 
z
M 2880 1530 
L 5114 1530 
L 5114 973 
L 2880 973 
L 2880 1530 
z
M 1690 5370 
C 1350 4397 794 3443 205 2816 
C 288 2701 422 2451 474 2342 
C 659 2547 845 2784 1018 3040 
L 1018 -512 
L 1466 -512 
L 1466 3770 
C 1722 4230 1946 4730 2131 5229 
L 1690 5370 
z
" transform="scale(0.015625)"/>
      <path id="NotoSansCJKjp-Regular-2518" d="M 3578 3059 
C 4339 2547 5299 1792 5754 1299 
L 6144 1670 
C 5664 2163 4691 2880 3936 3366 
L 3578 3059 
z
M 442 4928 
L 442 4435 
L 3290 4435 
C 2656 3341 1555 2259 282 1632 
C 384 1523 531 1331 608 1210 
C 1498 1677 2291 2336 2938 3078 
L 2938 -499 
L 3456 -499 
L 3456 3738 
C 3622 3962 3770 4198 3904 4435 
L 5958 4435 
L 5958 4928 
L 442 4928 
z
" transform="scale(0.015625)"/>
      <path id="NotoSansCJKjp-Regular-64fb" d="M 3418 5376 
C 3206 4403 2822 3488 2285 2906 
C 2394 2842 2579 2707 2656 2630 
C 2938 2957 3181 3379 3392 3853 
L 3942 3853 
C 3648 2822 3078 1747 2400 1210 
C 2528 1139 2682 1024 2778 928 
C 3482 1542 4064 2746 4358 3853 
L 4883 3853 
C 4550 2234 3859 640 2803 -115 
C 2938 -179 3110 -307 3206 -403 
C 4269 442 4979 2163 5306 3853 
L 5606 3853 
C 5478 1299 5338 346 5133 115 
C 5062 32 4998 13 4890 13 
C 4768 13 4512 19 4224 45 
C 4301 -90 4346 -294 4358 -435 
C 4640 -454 4915 -454 5088 -435 
C 5280 -410 5408 -358 5536 -179 
C 5792 134 5933 1139 6074 4058 
C 6080 4122 6086 4301 6086 4301 
L 3571 4301 
C 3680 4614 3782 4954 3859 5293 
L 3418 5376 
z
M 627 5005 
C 550 4218 422 3405 186 2867 
C 288 2822 474 2707 550 2650 
C 659 2912 755 3245 832 3603 
L 1421 3603 
L 1421 2157 
C 973 2029 550 1907 224 1824 
L 352 1363 
L 1421 1696 
L 1421 -512 
L 1869 -512 
L 1869 1837 
L 2675 2093 
L 2611 2515 
L 1869 2291 
L 1869 3603 
L 2528 3603 
L 2528 4064 
L 1869 4064 
L 1869 5370 
L 1421 5370 
L 1421 4064 
L 922 4064 
C 966 4352 1011 4646 1043 4941 
L 627 5005 
z
" transform="scale(0.015625)"/>
      <path id="NotoSansCJKjp-Regular-677c" d="M 3046 3456 
L 4026 3456 
L 4026 2630 
L 3046 2630 
L 3046 3456 
z
M 4442 3456 
L 5421 3456 
L 5421 2630 
L 4442 2630 
L 4442 3456 
z
M 3046 4659 
L 4026 4659 
L 4026 3846 
L 3046 3846 
L 3046 4659 
z
M 4442 4659 
L 5421 4659 
L 5421 3846 
L 4442 3846 
L 4442 4659 
z
M 2035 141 
L 2035 -301 
L 6189 -301 
L 6189 141 
L 4480 141 
L 4480 1024 
L 5971 1024 
L 5971 1459 
L 4480 1459 
L 4480 2214 
L 5882 2214 
L 5882 5082 
L 2605 5082 
L 2605 2214 
L 3987 2214 
L 3987 1459 
L 2528 1459 
L 2528 1024 
L 3987 1024 
L 3987 141 
L 2035 141 
z
M 224 640 
L 346 154 
C 909 339 1645 589 2336 819 
L 2253 1286 
L 1549 1050 
L 1549 2643 
L 2195 2643 
L 2195 3091 
L 1549 3091 
L 1549 4493 
L 2291 4493 
L 2291 4941 
L 294 4941 
L 294 4493 
L 1088 4493 
L 1088 3091 
L 358 3091 
L 358 2643 
L 1088 2643 
L 1088 902 
C 762 800 467 710 224 640 
z
" transform="scale(0.015625)"/>
      <path id="NotoSansCJKjp-Regular-50d7" d="M 2502 5376 
C 2426 5101 2336 4819 2221 4544 
L 403 4544 
L 403 4096 
L 2022 4096 
C 1613 3251 1024 2470 256 1946 
C 346 1856 499 1683 563 1574 
C 966 1862 1325 2208 1632 2598 
L 1632 -506 
L 2106 -506 
L 2106 762 
L 4787 762 
L 4787 96 
C 4787 0 4755 -38 4646 -38 
C 4525 -45 4134 -51 3712 -32 
C 3776 -166 3846 -365 3872 -493 
C 4422 -493 4774 -493 4986 -422 
C 5197 -339 5261 -192 5261 90 
L 5261 3354 
L 2150 3354 
C 2298 3597 2426 3840 2541 4096 
L 6010 4096 
L 6010 4544 
L 2733 4544 
C 2829 4781 2912 5024 2989 5261 
L 2502 5376 
z
M 2106 1850 
L 4787 1850 
L 4787 1178 
L 2106 1178 
L 2106 1850 
z
M 2106 2259 
L 2106 2918 
L 4787 2918 
L 4787 2259 
L 2106 2259 
z
" transform="scale(0.015625)"/>
      <path id="NotoSansCJKjp-Regular-7d36" d="M 4397 2394 
C 4768 2246 5210 1990 5427 1798 
L 5702 2118 
C 5478 2310 5030 2547 4666 2682 
L 4397 2394 
z
M 1600 5222 
C 1728 5069 1856 4877 1952 4704 
L 634 4704 
L 634 4320 
L 2944 4320 
L 2944 3923 
L 973 3923 
L 973 3565 
L 2944 3565 
L 2944 3155 
L 352 3155 
L 352 2771 
L 6054 2771 
L 6054 3155 
L 3437 3155 
L 3437 3565 
L 5434 3565 
L 5434 3923 
L 3437 3923 
L 3437 4320 
L 5779 4320 
L 5779 4704 
L 4454 4704 
C 4576 4864 4717 5062 4838 5261 
L 4326 5389 
C 4243 5197 4083 4902 3955 4704 
L 2438 4704 
L 2470 4717 
C 2387 4909 2202 5178 2016 5376 
L 1600 5222 
z
M 5152 1280 
C 4979 1056 4742 851 4467 672 
C 4346 870 4243 1101 4154 1357 
L 6067 1357 
L 6067 1734 
L 4051 1734 
C 3981 2022 3936 2342 3923 2675 
L 3456 2675 
C 3475 2342 3514 2029 3578 1734 
L 2176 1734 
L 2176 2227 
C 2566 2278 2925 2342 3219 2413 
L 2925 2714 
C 2349 2566 1299 2451 429 2406 
C 474 2317 525 2176 544 2086 
C 915 2106 1312 2138 1709 2176 
L 1709 1734 
L 352 1734 
L 352 1357 
L 1709 1357 
L 1709 890 
L 320 794 
L 371 403 
L 1709 525 
L 1709 -26 
C 1709 -109 1683 -134 1587 -134 
C 1491 -141 1152 -147 800 -128 
C 864 -243 928 -403 954 -512 
C 1440 -512 1741 -512 1926 -448 
C 2118 -390 2176 -282 2176 -32 
L 2176 563 
L 3322 672 
L 3328 1018 
L 2176 928 
L 2176 1357 
L 3674 1357 
C 3776 1011 3910 704 4070 435 
C 3629 205 3117 19 2618 -109 
C 2701 -205 2822 -403 2867 -493 
C 3360 -339 3859 -141 4307 109 
C 4640 -282 5050 -512 5504 -512 
C 5914 -506 6080 -333 6157 352 
C 6035 384 5882 461 5786 544 
C 5754 83 5709 -64 5523 -70 
C 5235 -70 4954 77 4710 352 
C 5043 576 5344 838 5568 1133 
L 5152 1280 
z
" transform="scale(0.015625)"/>
      <path id="NotoSansCJKjp-Regular-4110" d="M 4422 5389 
C 4320 5133 4115 4768 3949 4538 
L 4019 4512 
L 2349 4512 
L 2451 4557 
C 2362 4787 2144 5114 1933 5357 
L 1523 5190 
C 1683 4992 1850 4723 1952 4512 
L 646 4512 
L 646 4090 
L 2944 4090 
L 2944 3526 
L 960 3526 
L 960 3117 
L 2944 3117 
L 2944 2541 
L 358 2541 
L 358 2106 
L 1658 2106 
C 1421 1114 954 314 250 -179 
C 365 -256 563 -429 653 -518 
C 1382 64 1901 960 2182 2106 
L 6042 2106 
L 6042 2541 
L 3437 2541 
L 3437 3117 
L 5478 3117 
L 5478 3526 
L 3437 3526 
L 3437 4090 
L 5798 4090 
L 5798 4512 
L 4442 4512 
C 4595 4717 4774 4986 4928 5235 
L 4422 5389 
z
M 2163 1619 
L 2163 1197 
L 3462 1197 
L 3462 70 
L 1549 70 
L 1549 -352 
L 5914 -352 
L 5914 70 
L 3949 70 
L 3949 1197 
L 5485 1197 
L 5485 1619 
L 2163 1619 
z
" transform="scale(0.015625)"/>
     </defs>
     <use xlink:href="#NotoSansCJKjp-Regular-a9ba"/>
     <use xlink:href="#NotoSansCJKjp-Regular-b7c4" transform="translate(100 0)"/>
     <use xlink:href="#NotoSansCJKjp-Regular-2e8e" transform="translate(200 0)"/>
     <use xlink:href="#NotoSansCJKjp-Regular-2673" transform="translate(300 0)"/>
     <use xlink:href="#NotoSansCJKjp-Regular-466b" transform="translate(400 0)"/>
     <use xlink:href="#NotoSansCJKjp-Regular-9e5f" transform="translate(500 0)"/>
     <use xlink:href="#NotoSansCJKjp-Regular-e6c1" transform="translate(600 0)"/>
     <use xlink:href="#NotoSansCJKjp-Regular-4b35" transform="translate(700 0)"/>
     <use xlink:href="#NotoSansCJKjp-Regular-a9ba" transform="translate(800 0)"/>
     <use xlink:href="#NotoSansCJKjp-Regular-b7c4" transform="translate(900 0)"/>
     <use xlink:href="#NotoSansCJKjp-Regular-2e85" transform="translate(1000 0)"/>
     <use xlink:href="#NotoSansCJKjp-Regular-4dc9" transform="translate(1100 0)"/>
     <use xlink:href="#NotoSansCJKjp-Regular-95ec" transform="translate(1200 0)"/>
     <use xlink:href="#NotoSansCJKjp-Regular-2ea8" transform="translate(1300 0)"/>
     <use xlink:href="#NotoSansCJKjp-Regular-8c09" transform="translate(1400 0)"/>
     <use xlink:href="#NotoSansCJKjp-Regular-26e3" transform="translate(1500 0)"/>
     <use xlink:href="#NotoSansCJKjp-Regular-8006" transform="translate(1600 0)"/>
     <use xlink:href="#NotoSansCJKjp-Regular-6c33" transform="translate(1700 0)"/>
     <use xlink:href="#NotoSansCJKjp-Regular-4e26" transform="translate(1800 0)"/>
     <use xlink:href="#NotoSansCJKjp-Regular-286c" transform="translate(1900 0)"/>
     <use xlink:href="#NotoSansCJKjp-Regular-e6b2" transform="translate(2000 0)"/>
     <use xlink:href="#NotoSansCJKjp-Regular-2518" transform="translate(2100 0)"/>
     <use xlink:href="#NotoSansCJKjp-Regular-4dc9" transform="translate(2200 0)"/>
     <use xlink:href="#NotoSansCJKjp-Regular-95ec" transform="translate(2300 0)"/>
     <use xlink:href="#NotoSansCJKjp-Regular-64fb" transform="translate(2400 0)"/>
     <use xlink:href="#NotoSansCJKjp-Regular-677c" transform="translate(2500 0)"/>
     <use xlink:href="#NotoSansCJKjp-Regular-2515" transform="translate(2600 0)"/>
     <use xlink:href="#NotoSansCJKjp-Regular-50d7" transform="translate(2700 0)"/>
     <use xlink:href="#NotoSansCJKjp-Regular-466b" transform="translate(2800 0)"/>
     <use xlink:href="#NotoSansCJKjp-Regular-7d36" transform="translate(2900 0)"/>
     <use xlink:href="#NotoSansCJKjp-Regular-6c33" transform="translate(3000 0)"/>
     <use xlink:href="#NotoSansCJKjp-Regular-26e3" transform="translate(3100 0)"/>
     <use xlink:href="#NotoSansCJKjp-Regular-8006" transform="translate(3200 0)"/>
     <use xlink:href="#NotoSansCJKjp-Regular-4110" transform="translate(3300 0)"/>
    </g>
   </g>
   <g id="text_6">
    <!-- 重力位能可正可負：零點上方為正、下方為負 -->
    <g style="fill: #222831" transform="translate(86.532169 18.64) scale(0.13 -0.13)">
     <defs>
      <path id="NotoSansCJKjp-Regular-a106" d="M 1018 3456 
L 1018 1466 
L 2938 1466 
L 2938 1024 
L 813 1024 
L 813 640 
L 2938 640 
L 2938 83 
L 333 83 
L 333 -307 
L 6074 -307 
L 6074 83 
L 3418 83 
L 3418 640 
L 5670 640 
L 5670 1024 
L 3418 1024 
L 3418 1466 
L 5427 1466 
L 5427 3456 
L 3418 3456 
L 3418 3846 
L 6042 3846 
L 6042 4243 
L 3418 4243 
L 3418 4736 
C 4166 4794 4870 4870 5421 4966 
L 5165 5338 
C 4154 5158 2342 5037 851 4998 
C 896 4902 947 4730 954 4621 
C 1581 4634 2266 4659 2938 4698 
L 2938 4243 
L 371 4243 
L 371 3846 
L 2938 3846 
L 2938 3456 
L 1018 3456 
z
M 1485 2304 
L 2938 2304 
L 2938 1818 
L 1485 1818 
L 1485 2304 
z
M 3418 2304 
L 4941 2304 
L 4941 1818 
L 3418 1818 
L 3418 2304 
z
M 1485 3110 
L 2938 3110 
L 2938 2630 
L 1485 2630 
L 1485 3110 
z
M 3418 3110 
L 4941 3110 
L 4941 2630 
L 3418 2630 
L 3418 3110 
z
" transform="scale(0.015625)"/>
      <path id="NotoSansCJKjp-Regular-2c71" d="M 2624 5363 
L 2624 4256 
L 2624 3981 
L 531 3981 
L 531 3488 
L 2598 3488 
C 2502 2285 2080 877 339 -160 
C 461 -243 634 -422 710 -538 
C 2573 595 3008 2157 3098 3488 
L 5293 3488 
C 5165 1229 5024 320 4794 102 
C 4717 19 4634 0 4499 0 
C 4339 0 3930 6 3488 45 
C 3584 -96 3642 -307 3654 -448 
C 4051 -467 4461 -480 4678 -461 
C 4928 -435 5075 -390 5229 -198 
C 5517 115 5645 1075 5792 3725 
C 5798 3795 5805 3981 5805 3981 
L 3123 3981 
L 3123 4256 
L 3123 5363 
L 2624 5363 
z
" transform="scale(0.015625)"/>
      <path id="NotoSansCJKjp-Regular-585c" d="M 1203 3264 
L 1203 243 
L 333 243 
L 333 -224 
L 6080 -224 
L 6080 243 
L 3616 243 
L 3616 2259 
L 5619 2259 
L 5619 2726 
L 3616 2726 
L 3616 4435 
L 5869 4435 
L 5869 4909 
L 576 4909 
L 576 4435 
L 3110 4435 
L 3110 243 
L 1696 243 
L 1696 3264 
L 1203 3264 
z
" transform="scale(0.015625)"/>
      <path id="NotoSansCJKjp-Regular-9777" d="M 1606 2560 
L 4883 2560 
L 4883 1958 
L 1606 1958 
L 1606 2560 
z
M 1606 1594 
L 4883 1594 
L 4883 992 
L 1606 992 
L 1606 1594 
z
M 1606 3514 
L 4883 3514 
L 4883 2925 
L 1606 2925 
L 1606 3514 
z
M 3776 237 
C 4448 -6 5133 -301 5530 -525 
L 6035 -256 
C 5581 -32 4832 275 4147 506 
L 3776 237 
z
M 2214 512 
C 1760 250 1005 0 365 -154 
C 480 -243 653 -435 730 -538 
C 1357 -346 2163 -26 2669 301 
L 2214 512 
z
M 2074 4512 
L 3635 4512 
C 3507 4307 3341 4083 3168 3910 
L 1510 3910 
C 1715 4102 1907 4307 2074 4512 
z
M 2080 5370 
C 1760 4794 1152 4096 314 3584 
C 435 3514 595 3360 672 3245 
C 832 3347 986 3462 1126 3578 
L 1126 595 
L 5376 595 
L 5376 3910 
L 3744 3910 
C 3955 4160 4166 4448 4314 4710 
L 3987 4922 
L 3910 4902 
L 2368 4902 
C 2451 5024 2534 5146 2605 5267 
L 2080 5370 
z
" transform="scale(0.015625)"/>
      <path id="NotoSansCJKjp-Regular-61a1" d="M 4083 1197 
C 4275 934 4474 563 4550 326 
L 4902 474 
C 4826 704 4621 1069 4416 1325 
L 4083 1197 
z
M 1312 5184 
C 1562 4915 1830 4544 1946 4294 
L 2387 4499 
C 2259 4742 1978 5107 1734 5357 
L 1312 5184 
z
M 2182 1043 
C 2298 627 2368 96 2349 -250 
L 2771 -186 
C 2771 160 2707 685 2579 1094 
L 2182 1043 
z
M 3130 1101 
C 3283 742 3437 275 3482 -26 
L 3885 83 
C 3827 378 3674 838 3501 1184 
L 3130 1101 
z
M 1363 1184 
C 1242 691 992 122 640 -218 
L 1011 -474 
C 1395 -90 1619 525 1766 1056 
L 1363 1184 
z
M 3251 5382 
C 3142 5011 3008 4640 2848 4282 
L 525 4282 
L 525 3840 
L 2637 3840 
C 2086 2765 1280 1798 192 1178 
C 275 1075 397 890 454 774 
C 832 998 1178 1254 1491 1542 
L 5472 1542 
C 5370 525 5267 96 5126 -32 
C 5069 -90 5005 -96 4890 -96 
C 4768 -102 4461 -96 4134 -64 
C 4211 -192 4269 -378 4275 -506 
C 4608 -525 4922 -525 5088 -512 
C 5280 -499 5402 -461 5523 -333 
C 5728 -128 5843 410 5965 1760 
C 5971 1824 5984 1965 5984 1965 
L 5286 1965 
C 5370 2298 5459 2746 5530 3123 
L 4800 3123 
C 4883 3456 4979 3898 5050 4282 
L 3373 4282 
C 3507 4602 3629 4928 3738 5261 
L 3251 5382 
z
M 1914 1965 
C 2125 2195 2323 2445 2502 2701 
L 5005 2701 
C 4960 2445 4896 2182 4838 1965 
L 1914 1965 
z
M 3168 3840 
L 4518 3840 
C 4467 3584 4410 3328 4352 3123 
L 2778 3123 
C 2918 3354 3046 3597 3168 3840 
z
" transform="scale(0.015625)"/>
      <path id="NotoSansCJKjp-Regular-575" d="M 1747 -358 
L 2182 13 
C 1786 480 1210 1062 749 1434 
L 333 1069 
C 787 698 1338 147 1747 -358 
z
" transform="scale(0.015625)"/>
     </defs>
     <use xlink:href="#NotoSansCJKjp-Regular-a106"/>
     <use xlink:href="#NotoSansCJKjp-Regular-2c71" transform="translate(100 0)"/>
     <use xlink:href="#NotoSansCJKjp-Regular-26e3" transform="translate(200 0)"/>
     <use xlink:href="#NotoSansCJKjp-Regular-8006" transform="translate(300 0)"/>
     <use xlink:href="#NotoSansCJKjp-Regular-2e8e" transform="translate(400 0)"/>
     <use xlink:href="#NotoSansCJKjp-Regular-585c" transform="translate(500 0)"/>
     <use xlink:href="#NotoSansCJKjp-Regular-2e8e" transform="translate(600 0)"/>
     <use xlink:href="#NotoSansCJKjp-Regular-9777" transform="translate(700 0)"/>
     <use xlink:href="#NotoSansCJKjp-Regular-e6c0" transform="translate(800 0)"/>
     <use xlink:href="#NotoSansCJKjp-Regular-a9ba" transform="translate(900 0)"/>
     <use xlink:href="#NotoSansCJKjp-Regular-b7c4" transform="translate(1000 0)"/>
     <use xlink:href="#NotoSansCJKjp-Regular-2515" transform="translate(1100 0)"/>
     <use xlink:href="#NotoSansCJKjp-Regular-4ea0" transform="translate(1200 0)"/>
     <use xlink:href="#NotoSansCJKjp-Regular-61a1" transform="translate(1300 0)"/>
     <use xlink:href="#NotoSansCJKjp-Regular-585c" transform="translate(1400 0)"/>
     <use xlink:href="#NotoSansCJKjp-Regular-575" transform="translate(1500 0)"/>
     <use xlink:href="#NotoSansCJKjp-Regular-2516" transform="translate(1600 0)"/>
     <use xlink:href="#NotoSansCJKjp-Regular-4ea0" transform="translate(1700 0)"/>
     <use xlink:href="#NotoSansCJKjp-Regular-61a1" transform="translate(1800 0)"/>
     <use xlink:href="#NotoSansCJKjp-Regular-9777" transform="translate(1900 0)"/>
    </g>
   </g>
   <g id="line2d_3">
    <path d="M 170.243673 243.901296 
L 181.612777 243.901296 
" clip-path="url(#p443a3ddeb5)" style="fill: none; stroke: #222831; stroke-width: 1.2; stroke-linecap: square"/>
   </g>
   <g id="line2d_4">
    <path d="M 170.243673 203.297352 
L 181.612777 203.297352 
" clip-path="url(#p443a3ddeb5)" style="fill: none; stroke: #222831; stroke-width: 1.2; stroke-linecap: square"/>
   </g>
   <g id="line2d_5">
    <path d="M 170.243673 122.089465 
L 181.612777 122.089465 
" clip-path="url(#p443a3ddeb5)" style="fill: none; stroke: #222831; stroke-width: 1.2; stroke-linecap: square"/>
   </g>
   <g id="line2d_6">
    <path d="M 170.243673 81.485521 
L 181.612777 81.485521 
" clip-path="url(#p443a3ddeb5)" style="fill: none; stroke: #222831; stroke-width: 1.2; stroke-linecap: square"/>
   </g>
   <g id="patch_4">
    <path d="M 196.230197 90.418389 
L 216.532169 90.418389 
L 216.532169 72.552654 
L 196.230197 72.552654 
z
" clip-path="url(#p443a3ddeb5)" style="fill: #dbe7ff; stroke: #222831; stroke-width: 1.4; stroke-linejoin: miter"/>
   </g>
   <g id="patch_5">
    <path d="M 187.29733 81.485521 
Q 190.951685 81.485521 193.040792 81.485521 
" clip-path="url(#p443a3ddeb5)" style="fill: none; stroke: #222831; stroke-width: 1.4; stroke-linecap: round"/>
    <path d="M 188.240792 79.085521 
L 193.040792 81.485521 
L 188.240792 83.885521 
z
" clip-path="url(#p443a3ddeb5)" style="fill: #222831; stroke: #222831; stroke-width: 1.4; stroke-linecap: round"/>
   </g>
   <g id="patch_6">
    <path d="M 196.230197 252.834163 
L 216.532169 252.834163 
L 216.532169 234.968428 
L 196.230197 234.968428 
z
" clip-path="url(#p443a3ddeb5)" style="fill: #ffe0e0; stroke: #222831; stroke-width: 1.4; stroke-linejoin: miter"/>
   </g>
   <g id="patch_7">
    <path d="M 187.29733 243.901296 
Q 190.951685 243.901296 193.040792 243.901296 
" clip-path="url(#p443a3ddeb5)" style="fill: none; stroke: #222831; stroke-width: 1.4; stroke-linecap: round"/>
    <path d="M 188.240792 241.501296 
L 193.040792 243.901296 
L 188.240792 246.301296 
z
" clip-path="url(#p443a3ddeb5)" style="fill: #222831; stroke: #222831; stroke-width: 1.4; stroke-linecap: round"/>
   </g>
   <g id="patch_8">
    <path d="M 127.203493 227.659718 
Q 127.203493 162.693408 127.203493 99.515953 
" clip-path="url(#p443a3ddeb5)" style="fill: none; stroke: #6b7280; stroke-width: 1.6; stroke-linecap: round"/>
    <path d="M 124.403493 105.115953 
L 127.203493 99.515953 
L 130.003493 105.115953 
z
" clip-path="url(#p443a3ddeb5)" style="fill: #6b7280; stroke: #6b7280; stroke-width: 1.6; stroke-linecap: round"/>
   </g>
  </g>
 </g>
 <defs>
  <clipPath id="p443a3ddeb5">
   <rect x="70.357972" y="24.64" width="292.348394" height="288.288"/>
  </clipPath>
 </defs>
</svg>
