<?xml version="1.0" encoding="utf-8" standalone="no"?>
<!DOCTYPE svg PUBLIC "-//W3C//DTD SVG 1.1//EN"
  "http://www.w3.org/Graphics/SVG/1.1/DTD/svg11.dtd">
<svg xmlns:xlink="http://www.w3.org/1999/xlink" width="665.165625pt" height="276.434375pt" viewBox="0 0 665.165625 276.434375" xmlns="http://www.w3.org/2000/svg" version="1.1">
 <metadata>
  <rdf:RDF xmlns:dc="http://purl.org/dc/elements/1.1/" xmlns:cc="http://creativecommons.org/ns#" xmlns:rdf="http://www.w3.org/1999/02/22-rdf-syntax-ns#">
   <cc:Work>
    <dc:type rdf:resource="http://purl.org/dc/dcmitype/StillImage"/>
    <dc:date>2026-06-17T23:56:36.385117</dc:date>
    <dc:format>image/svg+xml</dc:format>
    <dc:creator>
     <cc:Agent>
      <dc:title>Matplotlib v3.11.0, https://matplotlib.org/</dc:title>
     </cc:Agent>
    </dc:creator>
   </cc:Work>
  </rdf:RDF>
 </metadata>
 <defs>
  <style type="text/css">*{stroke-linejoin: round; stroke-linecap: butt}</style>
 </defs>
 <g id="figure_1">
  <g id="patch_1">
   <path d="M 0 276.434375 
L 665.165625 276.434375 
L 665.165625 0 
L 0 0 
z
" style="fill: #ffffff"/>
  </g>
  <g id="axes_1">
   <g id="patch_2">
    <path d="M 47.815625 233.274375 
L 322.715625 233.274375 
L 322.715625 25.52 
L 47.815625 25.52 
z
" style="fill: #ffffff"/>
   </g>
   <g id="matplotlib.axis_1">
    <g id="xtick_1">
     <g id="line2d_1">
      <path d="M 47.815625 233.274375 
L 47.815625 25.52 
" clip-path="url(#pf90f474788)" style="fill: none; stroke: #d8dde3; stroke-width: 0.9; stroke-linecap: square"/>
     </g>
     <g id="line2d_2">
      <defs>
       <path id="me7d937e1e7" d="M 0 0 
L 0 3.5 
" style="stroke: #222831; stroke-width: 0.8"/>
      </defs>
      <g>
       <use xlink:href="#me7d937e1e7" x="47.815625" y="233.274375" style="fill: #222831; stroke: #222831; stroke-width: 0.8"/>
      </g>
     </g>
     <g id="text_1">
      <!-- 0 -->
      <g style="fill: #222831" transform="translate(44.485625 250.834375) scale(0.12 -0.12)">
       <defs>
        <path id="NotoSansCJKjp-Regular-11" d="M 1779 -83 
C 2669 -83 3238 723 3238 2362 
C 3238 3987 2669 4774 1779 4774 
C 883 4774 320 3987 320 2362 
C 320 723 883 -83 1779 -83 
z
M 1779 390 
C 1248 390 883 986 883 2362 
C 883 3731 1248 4314 1779 4314 
C 2310 4314 2675 3731 2675 2362 
C 2675 986 2310 390 1779 390 
z
" transform="scale(0.015625)"/>
       </defs>
       <use xlink:href="#NotoSansCJKjp-Regular-11"/>
      </g>
     </g>
    </g>
    <g id="xtick_2">
     <g id="line2d_3">
      <path d="M 102.795625 233.274375 
L 102.795625 25.52 
" clip-path="url(#pf90f474788)" style="fill: none; stroke: #d8dde3; stroke-width: 0.9; stroke-linecap: square"/>
     </g>
     <g id="line2d_4">
      <g>
       <use xlink:href="#me7d937e1e7" x="102.795625" y="233.274375" style="fill: #222831; stroke: #222831; stroke-width: 0.8"/>
      </g>
     </g>
     <g id="text_2">
      <!-- 1 -->
      <g style="fill: #222831" transform="translate(99.465625 250.834375) scale(0.12 -0.12)">
       <defs>
        <path id="NotoSansCJKjp-Regular-12" d="M 563 0 
L 3136 0 
L 3136 486 
L 2195 486 
L 2195 4691 
L 1747 4691 
C 1491 4544 1190 4435 774 4358 
L 774 3987 
L 1613 3987 
L 1613 486 
L 563 486 
L 563 0 
z
" transform="scale(0.015625)"/>
       </defs>
       <use xlink:href="#NotoSansCJKjp-Regular-12"/>
      </g>
     </g>
    </g>
    <g id="xtick_3">
     <g id="line2d_5">
      <path d="M 157.775625 233.274375 
L 157.775625 25.52 
" clip-path="url(#pf90f474788)" style="fill: none; stroke: #d8dde3; stroke-width: 0.9; stroke-linecap: square"/>
     </g>
     <g id="line2d_6">
      <g>
       <use xlink:href="#me7d937e1e7" x="157.775625" y="233.274375" style="fill: #222831; stroke: #222831; stroke-width: 0.8"/>
      </g>
     </g>
     <g id="text_3">
      <!-- 2 -->
      <g style="fill: #222831" transform="translate(154.445625 250.834375) scale(0.12 -0.12)">
       <defs>
        <path id="NotoSansCJKjp-Regular-13" d="M 282 0 
L 3232 0 
L 3232 506 
L 1933 506 
C 1696 506 1408 480 1165 461 
C 2266 1504 3008 2458 3008 3398 
C 3008 4230 2477 4774 1638 4774 
C 1043 4774 634 4506 256 4090 
L 595 3757 
C 858 4070 1184 4301 1568 4301 
C 2150 4301 2432 3910 2432 3373 
C 2432 2566 1754 1632 282 346 
L 282 0 
z
" transform="scale(0.015625)"/>
       </defs>
       <use xlink:href="#NotoSansCJKjp-Regular-13"/>
      </g>
     </g>
    </g>
    <g id="xtick_4">
     <g id="line2d_7">
      <path d="M 212.755625 233.274375 
L 212.755625 25.52 
" clip-path="url(#pf90f474788)" style="fill: none; stroke: #d8dde3; stroke-width: 0.9; stroke-linecap: square"/>
     </g>
     <g id="line2d_8">
      <g>
       <use xlink:href="#me7d937e1e7" x="212.755625" y="233.274375" style="fill: #222831; stroke: #222831; stroke-width: 0.8"/>
      </g>
     </g>
     <g id="text_4">
      <!-- 3 -->
      <g style="fill: #222831" transform="translate(209.425625 250.834375) scale(0.12 -0.12)">
       <defs>
        <path id="NotoSansCJKjp-Regular-14" d="M 1683 -83 
C 2522 -83 3194 416 3194 1254 
C 3194 1901 2752 2310 2202 2445 
L 2202 2477 
C 2701 2650 3034 3034 3034 3603 
C 3034 4346 2458 4774 1664 4774 
C 1126 4774 710 4538 358 4218 
L 672 3846 
C 941 4115 1267 4301 1645 4301 
C 2138 4301 2438 4006 2438 3558 
C 2438 3053 2112 2662 1139 2662 
L 1139 2214 
C 2227 2214 2598 1843 2598 1274 
C 2598 736 2208 403 1645 403 
C 1114 403 762 659 486 941 
L 186 563 
C 493 224 954 -83 1683 -83 
z
" transform="scale(0.015625)"/>
       </defs>
       <use xlink:href="#NotoSansCJKjp-Regular-14"/>
      </g>
     </g>
    </g>
    <g id="xtick_5">
     <g id="line2d_9">
      <path d="M 267.735625 233.274375 
L 267.735625 25.52 
" clip-path="url(#pf90f474788)" style="fill: none; stroke: #d8dde3; stroke-width: 0.9; stroke-linecap: square"/>
     </g>
     <g id="line2d_10">
      <g>
       <use xlink:href="#me7d937e1e7" x="267.735625" y="233.274375" style="fill: #222831; stroke: #222831; stroke-width: 0.8"/>
      </g>
     </g>
     <g id="text_5">
      <!-- 4 -->
      <g style="fill: #222831" transform="translate(264.405625 250.834375) scale(0.12 -0.12)">
       <defs>
        <path id="NotoSansCJKjp-Regular-15" d="M 2176 0 
L 2726 0 
L 2726 1293 
L 3354 1293 
L 3354 1760 
L 2726 1760 
L 2726 4691 
L 2080 4691 
L 128 1677 
L 128 1293 
L 2176 1293 
L 2176 0 
z
M 2176 1760 
L 736 1760 
L 1805 3360 
C 1939 3590 2067 3827 2182 4051 
L 2208 4051 
C 2195 3814 2176 3430 2176 3200 
L 2176 1760 
z
" transform="scale(0.015625)"/>
       </defs>
       <use xlink:href="#NotoSansCJKjp-Regular-15"/>
      </g>
     </g>
    </g>
    <g id="xtick_6">
     <g id="line2d_11">
      <path d="M 322.715625 233.274375 
L 322.715625 25.52 
" clip-path="url(#pf90f474788)" style="fill: none; stroke: #d8dde3; stroke-width: 0.9; stroke-linecap: square"/>
     </g>
     <g id="line2d_12">
      <g>
       <use xlink:href="#me7d937e1e7" x="322.715625" y="233.274375" style="fill: #222831; stroke: #222831; stroke-width: 0.8"/>
      </g>
     </g>
     <g id="text_6">
      <!-- 5 -->
      <g style="fill: #222831" transform="translate(319.385625 250.834375) scale(0.12 -0.12)">
       <defs>
        <path id="NotoSansCJKjp-Regular-16" d="M 1677 -83 
C 2464 -83 3213 499 3213 1523 
C 3213 2560 2573 3021 1798 3021 
C 1517 3021 1306 2950 1094 2835 
L 1216 4192 
L 2982 4192 
L 2982 4691 
L 704 4691 
L 550 2502 
L 864 2304 
C 1133 2483 1331 2579 1645 2579 
C 2234 2579 2618 2182 2618 1510 
C 2618 826 2176 403 1619 403 
C 1075 403 730 653 467 922 
L 173 538 
C 493 224 941 -83 1677 -83 
z
" transform="scale(0.015625)"/>
       </defs>
       <use xlink:href="#NotoSansCJKjp-Regular-16"/>
      </g>
     </g>
    </g>
    <g id="text_7">
     <!-- 位置 $x$ (m) -->
     <g style="fill: #222831" transform="translate(157.485625 266.834375) scale(0.12 -0.12)">
      <defs>
       <path id="NotoSansCJKjp-Regular-26e3" d="M 2630 3155 
C 2867 2304 3066 1190 3110 544 
L 3578 646 
C 3526 1280 3302 2381 3059 3232 
L 2630 3155 
z
M 2106 4115 
L 2106 3661 
L 6016 3661 
L 6016 4115 
L 4250 4115 
L 4250 5299 
L 3770 5299 
L 3770 4115 
L 2106 4115 
z
M 1946 243 
L 1946 -211 
L 6176 -211 
L 6176 243 
L 4634 243 
C 4928 1043 5261 2246 5485 3194 
L 4966 3283 
C 4800 2362 4461 1056 4166 243 
L 1946 243 
z
M 1773 5357 
C 1395 4390 774 3443 128 2835 
C 211 2720 352 2470 397 2355 
C 640 2598 877 2880 1107 3194 
L 1107 -493 
L 1568 -493 
L 1568 3891 
C 1818 4314 2048 4762 2227 5216 
L 1773 5357 
z
" transform="scale(0.015625)"/>
       <path id="NotoSansCJKjp-Regular-7ccb" d="M 4154 4762 
L 5235 4762 
L 5235 4186 
L 4154 4186 
L 4154 4762 
z
M 2656 4762 
L 3712 4762 
L 3712 4186 
L 2656 4186 
L 2656 4762 
z
M 1197 4762 
L 2214 4762 
L 2214 4186 
L 1197 4186 
L 1197 4762 
z
M 2374 1798 
L 4979 1798 
L 4979 1440 
L 2374 1440 
L 2374 1798 
z
M 2374 1152 
L 4979 1152 
L 4979 794 
L 2374 794 
L 2374 1152 
z
M 2374 2432 
L 4979 2432 
L 4979 2086 
L 2374 2086 
L 2374 2432 
z
M 1920 2726 
L 1920 499 
L 5440 499 
L 5440 2726 
L 3347 2726 
L 3418 3104 
L 5971 3104 
L 5971 3482 
L 3482 3482 
L 3533 3834 
L 5715 3834 
L 5715 5107 
L 736 5107 
L 736 3834 
L 3046 3834 
L 3002 3482 
L 435 3482 
L 435 3104 
L 2944 3104 
L 2880 2726 
L 1920 2726 
z
M 787 2630 
L 787 -518 
L 1274 -518 
L 1274 -243 
L 6138 -243 
L 6138 141 
L 1274 141 
L 1274 2630 
L 787 2630 
z
" transform="scale(0.015625)"/>
       <path id="NotoSansCJKjp-Regular-1" transform="scale(0.015625)"/>
       <path id="Cmmi10-3f" d="M 500 184 
Q 613 97 819 97 
Q 1019 97 1172 289 
Q 1325 481 1381 709 
L 1672 1844 
Q 1741 2153 1741 2266 
Q 1741 2425 1652 2544 
Q 1563 2663 1403 2663 
Q 1200 2663 1022 2536 
Q 844 2409 722 2214 
Q 600 2019 550 1819 
Q 538 1778 500 1778 
L 422 1778 
Q 372 1778 372 1838 
L 372 1856 
Q 434 2094 584 2320 
Q 734 2547 951 2687 
Q 1169 2828 1416 2828 
Q 1650 2828 1839 2703 
Q 2028 2578 2106 2363 
Q 2216 2559 2386 2693 
Q 2556 2828 2759 2828 
Q 2897 2828 3040 2779 
Q 3184 2731 3275 2631 
Q 3366 2531 3366 2381 
Q 3366 2219 3261 2101 
Q 3156 1984 2994 1984 
Q 2891 1984 2822 2050 
Q 2753 2116 2753 2216 
Q 2753 2350 2845 2451 
Q 2938 2553 3066 2572 
Q 2950 2663 2747 2663 
Q 2541 2663 2389 2472 
Q 2238 2281 2175 2047 
L 1894 916 
Q 1825 659 1825 494 
Q 1825 331 1917 214 
Q 2009 97 2163 97 
Q 2463 97 2698 361 
Q 2934 625 3009 941 
Q 3022 978 3059 978 
L 3138 978 
Q 3163 978 3178 961 
Q 3194 944 3194 922 
Q 3194 916 3188 903 
Q 3097 522 2806 225 
Q 2516 -72 2150 -72 
Q 1916 -72 1727 54 
Q 1538 181 1459 397 
Q 1359 209 1182 68 
Q 1006 -72 806 -72 
Q 669 -72 523 -23 
Q 378 25 287 125 
Q 197 225 197 378 
Q 197 528 301 651 
Q 406 775 563 775 
Q 669 775 741 711 
Q 813 647 813 544 
Q 813 409 723 309 
Q 634 209 500 184 
z
" transform="scale(0.015625)"/>
       <path id="NotoSansCJKjp-Regular-9" d="M 1530 -1254 
L 1888 -1094 
C 1338 -186 1075 902 1075 1990 
C 1075 3072 1338 4154 1888 5069 
L 1530 5235 
C 941 4275 589 3245 589 1990 
C 589 730 941 -301 1530 -1254 
z
" transform="scale(0.015625)"/>
       <path id="NotoSansCJKjp-Regular-4e" d="M 589 0 
L 1178 0 
L 1178 2522 
C 1491 2880 1786 3053 2048 3053 
C 2490 3053 2694 2778 2694 2125 
L 2694 0 
L 3277 0 
L 3277 2522 
C 3603 2880 3885 3053 4154 3053 
C 4595 3053 4800 2778 4800 2125 
L 4800 0 
L 5382 0 
L 5382 2202 
C 5382 3085 5043 3565 4333 3565 
C 3904 3565 3546 3290 3181 2899 
C 3040 3309 2758 3565 2221 3565 
C 1805 3565 1446 3302 1139 2970 
L 1126 2970 
L 1069 3475 
L 589 3475 
L 589 0 
z
" transform="scale(0.015625)"/>
       <path id="NotoSansCJKjp-Regular-a" d="M 634 -1254 
C 1222 -301 1574 730 1574 1990 
C 1574 3245 1222 4275 634 5235 
L 269 5069 
C 819 4154 1094 3072 1094 1990 
C 1094 902 819 -186 269 -1094 
L 634 -1254 
z
" transform="scale(0.015625)"/>
      </defs>
      <use xlink:href="#NotoSansCJKjp-Regular-26e3" transform="translate(0 0.296875)"/>
      <use xlink:href="#NotoSansCJKjp-Regular-7ccb" transform="translate(99.999908 0.296875)"/>
      <use xlink:href="#NotoSansCJKjp-Regular-1" transform="translate(199.999817 0.296875)"/>
      <use xlink:href="#Cmmi10-3f" transform="translate(222.399796 0.296875)"/>
      <use xlink:href="#NotoSansCJKjp-Regular-1" transform="translate(279.479874 0.296875)"/>
      <use xlink:href="#NotoSansCJKjp-Regular-9" transform="translate(301.879852 0.296875)"/>
      <use xlink:href="#NotoSansCJKjp-Regular-4e" transform="translate(335.679825 0.296875)"/>
      <use xlink:href="#NotoSansCJKjp-Regular-a" transform="translate(428.279739 0.296875)"/>
     </g>
    </g>
   </g>
   <g id="matplotlib.axis_2">
    <g id="ytick_1">
     <g id="line2d_13">
      <path d="M 47.815625 233.274375 
L 322.715625 233.274375 
" clip-path="url(#pf90f474788)" style="fill: none; stroke: #d8dde3; stroke-width: 0.9; stroke-linecap: square"/>
     </g>
     <g id="line2d_14">
      <defs>
       <path id="m1afc7b2ab2" d="M 0 0 
L -3.5 0 
" style="stroke: #222831; stroke-width: 0.8"/>
      </defs>
      <g>
       <use xlink:href="#m1afc7b2ab2" x="47.815625" y="233.274375" style="fill: #222831; stroke: #222831; stroke-width: 0.8"/>
      </g>
     </g>
     <g id="text_8">
      <!-- 0.0 -->
      <g style="fill: #222831" transform="translate(24.16 238.554375) scale(0.12 -0.12)">
       <defs>
        <path id="NotoSansCJKjp-Regular-f" d="M 890 -83 
C 1120 -83 1312 96 1312 358 
C 1312 627 1120 806 890 806 
C 653 806 467 627 467 358 
C 467 96 653 -83 890 -83 
z
" transform="scale(0.015625)"/>
       </defs>
       <use xlink:href="#NotoSansCJKjp-Regular-11"/>
       <use xlink:href="#NotoSansCJKjp-Regular-f" transform="translate(55.5 0)"/>
       <use xlink:href="#NotoSansCJKjp-Regular-11" transform="translate(83.296875 0)"/>
      </g>
     </g>
    </g>
    <g id="ytick_2">
     <g id="line2d_15">
      <path d="M 47.815625 204.419601 
L 322.715625 204.419601 
" clip-path="url(#pf90f474788)" style="fill: none; stroke: #d8dde3; stroke-width: 0.9; stroke-linecap: square"/>
     </g>
     <g id="line2d_16">
      <g>
       <use xlink:href="#m1afc7b2ab2" x="47.815625" y="204.419601" style="fill: #222831; stroke: #222831; stroke-width: 0.8"/>
      </g>
     </g>
     <g id="text_9">
      <!-- 0.5 -->
      <g style="fill: #222831" transform="translate(24.16 209.699601) scale(0.12 -0.12)">
       <use xlink:href="#NotoSansCJKjp-Regular-11"/>
       <use xlink:href="#NotoSansCJKjp-Regular-f" transform="translate(55.5 0)"/>
       <use xlink:href="#NotoSansCJKjp-Regular-16" transform="translate(83.296875 0)"/>
      </g>
     </g>
    </g>
    <g id="ytick_3">
     <g id="line2d_17">
      <path d="M 47.815625 175.564826 
L 322.715625 175.564826 
" clip-path="url(#pf90f474788)" style="fill: none; stroke: #d8dde3; stroke-width: 0.9; stroke-linecap: square"/>
     </g>
     <g id="line2d_18">
      <g>
       <use xlink:href="#m1afc7b2ab2" x="47.815625" y="175.564826" style="fill: #222831; stroke: #222831; stroke-width: 0.8"/>
      </g>
     </g>
     <g id="text_10">
      <!-- 1.0 -->
      <g style="fill: #222831" transform="translate(24.16 180.844826) scale(0.12 -0.12)">
       <use xlink:href="#NotoSansCJKjp-Regular-12"/>
       <use xlink:href="#NotoSansCJKjp-Regular-f" transform="translate(55.5 0)"/>
       <use xlink:href="#NotoSansCJKjp-Regular-11" transform="translate(83.296875 0)"/>
      </g>
     </g>
    </g>
    <g id="ytick_4">
     <g id="line2d_19">
      <path d="M 47.815625 146.710052 
L 322.715625 146.710052 
" clip-path="url(#pf90f474788)" style="fill: none; stroke: #d8dde3; stroke-width: 0.9; stroke-linecap: square"/>
     </g>
     <g id="line2d_20">
      <g>
       <use xlink:href="#m1afc7b2ab2" x="47.815625" y="146.710052" style="fill: #222831; stroke: #222831; stroke-width: 0.8"/>
      </g>
     </g>
     <g id="text_11">
      <!-- 1.5 -->
      <g style="fill: #222831" transform="translate(24.16 151.990052) scale(0.12 -0.12)">
       <use xlink:href="#NotoSansCJKjp-Regular-12"/>
       <use xlink:href="#NotoSansCJKjp-Regular-f" transform="translate(55.5 0)"/>
       <use xlink:href="#NotoSansCJKjp-Regular-16" transform="translate(83.296875 0)"/>
      </g>
     </g>
    </g>
    <g id="ytick_5">
     <g id="line2d_21">
      <path d="M 47.815625 117.855278 
L 322.715625 117.855278 
" clip-path="url(#pf90f474788)" style="fill: none; stroke: #d8dde3; stroke-width: 0.9; stroke-linecap: square"/>
     </g>
     <g id="line2d_22">
      <g>
       <use xlink:href="#m1afc7b2ab2" x="47.815625" y="117.855278" style="fill: #222831; stroke: #222831; stroke-width: 0.8"/>
      </g>
     </g>
     <g id="text_12">
      <!-- 2.0 -->
      <g style="fill: #222831" transform="translate(24.16 123.135278) scale(0.12 -0.12)">
       <use xlink:href="#NotoSansCJKjp-Regular-13"/>
       <use xlink:href="#NotoSansCJKjp-Regular-f" transform="translate(55.5 0)"/>
       <use xlink:href="#NotoSansCJKjp-Regular-11" transform="translate(83.296875 0)"/>
      </g>
     </g>
    </g>
    <g id="ytick_6">
     <g id="line2d_23">
      <path d="M 47.815625 89.000503 
L 322.715625 89.000503 
" clip-path="url(#pf90f474788)" style="fill: none; stroke: #d8dde3; stroke-width: 0.9; stroke-linecap: square"/>
     </g>
     <g id="line2d_24">
      <g>
       <use xlink:href="#m1afc7b2ab2" x="47.815625" y="89.000503" style="fill: #222831; stroke: #222831; stroke-width: 0.8"/>
      </g>
     </g>
     <g id="text_13">
      <!-- 2.5 -->
      <g style="fill: #222831" transform="translate(24.16 94.280503) scale(0.12 -0.12)">
       <use xlink:href="#NotoSansCJKjp-Regular-13"/>
       <use xlink:href="#NotoSansCJKjp-Regular-f" transform="translate(55.5 0)"/>
       <use xlink:href="#NotoSansCJKjp-Regular-16" transform="translate(83.296875 0)"/>
      </g>
     </g>
    </g>
    <g id="ytick_7">
     <g id="line2d_25">
      <path d="M 47.815625 60.145729 
L 322.715625 60.145729 
" clip-path="url(#pf90f474788)" style="fill: none; stroke: #d8dde3; stroke-width: 0.9; stroke-linecap: square"/>
     </g>
     <g id="line2d_26">
      <g>
       <use xlink:href="#m1afc7b2ab2" x="47.815625" y="60.145729" style="fill: #222831; stroke: #222831; stroke-width: 0.8"/>
      </g>
     </g>
     <g id="text_14">
      <!-- 3.0 -->
      <g style="fill: #222831" transform="translate(24.16 65.425729) scale(0.12 -0.12)">
       <use xlink:href="#NotoSansCJKjp-Regular-14"/>
       <use xlink:href="#NotoSansCJKjp-Regular-f" transform="translate(55.5 0)"/>
       <use xlink:href="#NotoSansCJKjp-Regular-11" transform="translate(83.296875 0)"/>
      </g>
     </g>
    </g>
    <g id="ytick_8">
     <g id="line2d_27">
      <path d="M 47.815625 31.290955 
L 322.715625 31.290955 
" clip-path="url(#pf90f474788)" style="fill: none; stroke: #d8dde3; stroke-width: 0.9; stroke-linecap: square"/>
     </g>
     <g id="line2d_28">
      <g>
       <use xlink:href="#m1afc7b2ab2" x="47.815625" y="31.290955" style="fill: #222831; stroke: #222831; stroke-width: 0.8"/>
      </g>
     </g>
     <g id="text_15">
      <!-- 3.5 -->
      <g style="fill: #222831" transform="translate(24.16 36.570955) scale(0.12 -0.12)">
       <use xlink:href="#NotoSansCJKjp-Regular-14"/>
       <use xlink:href="#NotoSansCJKjp-Regular-f" transform="translate(55.5 0)"/>
       <use xlink:href="#NotoSansCJKjp-Regular-16" transform="translate(83.296875 0)"/>
      </g>
     </g>
    </g>
    <g id="text_16">
     <!-- 力 $F$ (N) -->
     <g style="fill: #222831" transform="translate(17.76 150.397187) rotate(-90) scale(0.12 -0.12)">
      <defs>
       <path id="NotoSansCJKjp-Regular-2c71" d="M 2624 5363 
L 2624 4256 
L 2624 3981 
L 531 3981 
L 531 3488 
L 2598 3488 
C 2502 2285 2080 877 339 -160 
C 461 -243 634 -422 710 -538 
C 2573 595 3008 2157 3098 3488 
L 5293 3488 
C 5165 1229 5024 320 4794 102 
C 4717 19 4634 0 4499 0 
C 4339 0 3930 6 3488 45 
C 3584 -96 3642 -307 3654 -448 
C 4051 -467 4461 -480 4678 -461 
C 4928 -435 5075 -390 5229 -198 
C 5517 115 5645 1075 5792 3725 
C 5798 3795 5805 3981 5805 3981 
L 3123 3981 
L 3123 4256 
L 3123 5363 
L 2624 5363 
z
" transform="scale(0.015625)"/>
       <path id="Cmmi10-42" d="M 300 0 
Q 238 0 238 84 
Q 241 100 250 139 
Q 259 178 276 201 
Q 294 225 319 225 
Q 709 225 863 269 
Q 947 297 984 441 
L 1863 3956 
Q 1875 4019 1875 4044 
Q 1875 4113 1797 4122 
Q 1678 4147 1338 4147 
Q 1275 4147 1275 4231 
Q 1278 4247 1287 4286 
Q 1297 4325 1314 4348 
Q 1331 4372 1356 4372 
L 4738 4372 
Q 4800 4372 4800 4288 
L 4647 2963 
Q 4647 2944 4625 2925 
Q 4603 2906 4581 2906 
L 4525 2906 
Q 4459 2906 4459 2988 
Q 4500 3278 4500 3463 
Q 4500 3781 4362 3931 
Q 4225 4081 4015 4114 
Q 3806 4147 3438 4147 
L 2753 4147 
Q 2578 4147 2522 4117 
Q 2466 4088 2419 3928 
L 2009 2297 
L 2491 2297 
Q 2728 2297 2875 2322 
Q 3022 2347 3119 2419 
Q 3216 2491 3280 2627 
Q 3344 2763 3397 2988 
Q 3416 3047 3463 3047 
L 3519 3047 
Q 3584 3047 3584 2963 
L 3194 1381 
Q 3166 1325 3128 1325 
L 3072 1325 
Q 3009 1325 3009 1409 
Q 3025 1475 3034 1519 
Q 3044 1563 3058 1645 
Q 3072 1728 3072 1791 
Q 3072 1975 2909 2025 
Q 2747 2075 2484 2075 
L 1959 2075 
L 1544 416 
Q 1528 353 1528 353 
Q 1528 278 1575 269 
Q 1741 225 2228 225 
Q 2291 225 2291 141 
Q 2269 50 2256 25 
Q 2244 0 2181 0 
L 300 0 
z
" transform="scale(0.015625)"/>
       <path id="NotoSansCJKjp-Regular-2f" d="M 646 0 
L 1203 0 
L 1203 2464 
C 1203 2957 1158 3456 1133 3930 
L 1158 3930 
L 1664 2963 
L 3373 0 
L 3981 0 
L 3981 4691 
L 3418 4691 
L 3418 2253 
C 3418 1766 3462 1235 3501 768 
L 3469 768 
L 2963 1734 
L 1248 4691 
L 646 4691 
L 646 0 
z
" transform="scale(0.015625)"/>
      </defs>
      <use xlink:href="#NotoSansCJKjp-Regular-2c71" transform="translate(0 0.203125)"/>
      <use xlink:href="#NotoSansCJKjp-Regular-1" transform="translate(99.999908 0.203125)"/>
      <use xlink:href="#Cmmi10-42" transform="translate(122.399887 0.203125)"/>
      <use xlink:href="#NotoSansCJKjp-Regular-1" transform="translate(186.706528 0.203125)"/>
      <use xlink:href="#NotoSansCJKjp-Regular-9" transform="translate(209.106506 0.203125)"/>
      <use xlink:href="#NotoSansCJKjp-Regular-2f" transform="translate(242.906479 0.203125)"/>
      <use xlink:href="#NotoSansCJKjp-Regular-a" transform="translate(315.206406 0.203125)"/>
     </g>
    </g>
   </g>
   <g id="FillBetweenPolyCollection_1">
    <defs>
     <path id="mb82176f2df" d="M 47.815625 -100.869549 
L 47.815625 -43.16 
L 49.197032 -43.16 
L 50.578439 -43.16 
L 51.959846 -43.16 
L 53.341253 -43.16 
L 54.72266 -43.16 
L 56.104067 -43.16 
L 57.485474 -43.16 
L 58.866881 -43.16 
L 60.248288 -43.16 
L 61.629695 -43.16 
L 63.011102 -43.16 
L 64.392509 -43.16 
L 65.773916 -43.16 
L 67.155323 -43.16 
L 68.536731 -43.16 
L 69.918138 -43.16 
L 71.299545 -43.16 
L 72.680952 -43.16 
L 74.062359 -43.16 
L 75.443766 -43.16 
L 76.825173 -43.16 
L 78.20658 -43.16 
L 79.587987 -43.16 
L 80.969394 -43.16 
L 82.350801 -43.16 
L 83.732208 -43.16 
L 85.113615 -43.16 
L 86.495022 -43.16 
L 87.876429 -43.16 
L 89.257836 -43.16 
L 90.639243 -43.16 
L 92.02065 -43.16 
L 93.402057 -43.16 
L 94.783464 -43.16 
L 96.164871 -43.16 
L 97.546278 -43.16 
L 98.927685 -43.16 
L 100.309092 -43.16 
L 101.690499 -43.16 
L 103.071906 -43.16 
L 104.453313 -43.16 
L 105.83472 -43.16 
L 107.216128 -43.16 
L 108.597535 -43.16 
L 109.978942 -43.16 
L 111.360349 -43.16 
L 112.741756 -43.16 
L 114.123163 -43.16 
L 115.50457 -43.16 
L 116.885977 -43.16 
L 118.267384 -43.16 
L 119.648791 -43.16 
L 121.030198 -43.16 
L 122.411605 -43.16 
L 123.793012 -43.16 
L 125.174419 -43.16 
L 126.555826 -43.16 
L 127.937233 -43.16 
L 129.31864 -43.16 
L 130.700047 -43.16 
L 132.081454 -43.16 
L 133.462861 -43.16 
L 134.844268 -43.16 
L 136.225675 -43.16 
L 137.607082 -43.16 
L 138.988489 -43.16 
L 140.369896 -43.16 
L 141.751303 -43.16 
L 143.13271 -43.16 
L 144.514117 -43.16 
L 145.895524 -43.16 
L 147.276932 -43.16 
L 148.658339 -43.16 
L 150.039746 -43.16 
L 151.421153 -43.16 
L 152.80256 -43.16 
L 154.183967 -43.16 
L 155.565374 -43.16 
L 156.946781 -43.16 
L 158.328188 -43.16 
L 159.709595 -43.16 
L 161.091002 -43.16 
L 162.472409 -43.16 
L 163.853816 -43.16 
L 165.235223 -43.16 
L 166.61663 -43.16 
L 167.998037 -43.16 
L 169.379444 -43.16 
L 170.760851 -43.16 
L 172.142258 -43.16 
L 173.523665 -43.16 
L 174.905072 -43.16 
L 176.286479 -43.16 
L 177.667886 -43.16 
L 179.049293 -43.16 
L 180.4307 -43.16 
L 181.812107 -43.16 
L 183.193514 -43.16 
L 184.574921 -43.16 
L 185.956329 -43.16 
L 187.337736 -43.16 
L 188.719143 -43.16 
L 190.10055 -43.16 
L 191.481957 -43.16 
L 192.863364 -43.16 
L 194.244771 -43.16 
L 195.626178 -43.16 
L 197.007585 -43.16 
L 198.388992 -43.16 
L 199.770399 -43.16 
L 201.151806 -43.16 
L 202.533213 -43.16 
L 203.91462 -43.16 
L 205.296027 -43.16 
L 206.677434 -43.16 
L 208.058841 -43.16 
L 209.440248 -43.16 
L 210.821655 -43.16 
L 212.203062 -43.16 
L 213.584469 -43.16 
L 214.965876 -43.16 
L 216.347283 -43.16 
L 217.72869 -43.16 
L 219.110097 -43.16 
L 220.491504 -43.16 
L 221.872911 -43.16 
L 223.254318 -43.16 
L 224.635726 -43.16 
L 226.017133 -43.16 
L 227.39854 -43.16 
L 228.779947 -43.16 
L 230.161354 -43.16 
L 231.542761 -43.16 
L 232.924168 -43.16 
L 234.305575 -43.16 
L 235.686982 -43.16 
L 237.068389 -43.16 
L 238.449796 -43.16 
L 239.831203 -43.16 
L 241.21261 -43.16 
L 242.594017 -43.16 
L 243.975424 -43.16 
L 245.356831 -43.16 
L 246.738238 -43.16 
L 248.119645 -43.16 
L 249.501052 -43.16 
L 250.882459 -43.16 
L 252.263866 -43.16 
L 253.645273 -43.16 
L 255.02668 -43.16 
L 256.408087 -43.16 
L 257.789494 -43.16 
L 259.170901 -43.16 
L 260.552308 -43.16 
L 261.933715 -43.16 
L 263.315122 -43.16 
L 264.69653 -43.16 
L 266.077937 -43.16 
L 267.459344 -43.16 
L 268.840751 -43.16 
L 270.222158 -43.16 
L 271.603565 -43.16 
L 272.984972 -43.16 
L 274.366379 -43.16 
L 275.747786 -43.16 
L 277.129193 -43.16 
L 278.5106 -43.16 
L 279.892007 -43.16 
L 281.273414 -43.16 
L 282.654821 -43.16 
L 284.036228 -43.16 
L 285.417635 -43.16 
L 286.799042 -43.16 
L 288.180449 -43.16 
L 289.561856 -43.16 
L 290.943263 -43.16 
L 292.32467 -43.16 
L 293.706077 -43.16 
L 295.087484 -43.16 
L 296.468891 -43.16 
L 297.850298 -43.16 
L 299.231705 -43.16 
L 300.613112 -43.16 
L 301.994519 -43.16 
L 303.375927 -43.16 
L 304.757334 -43.16 
L 306.138741 -43.16 
L 307.520148 -43.16 
L 308.901555 -43.16 
L 310.282962 -43.16 
L 311.664369 -43.16 
L 313.045776 -43.16 
L 314.427183 -43.16 
L 315.80859 -43.16 
L 317.189997 -43.16 
L 318.571404 -43.16 
L 319.952811 -43.16 
L 321.334218 -43.16 
L 322.715625 -43.16 
L 322.715625 -259.570807 
L 322.715625 -259.570807 
L 321.334218 -259.278259 
L 319.952811 -258.980611 
L 318.571404 -258.677862 
L 317.189997 -258.370013 
L 315.80859 -258.057063 
L 314.427183 -257.739013 
L 313.045776 -257.415862 
L 311.664369 -257.087611 
L 310.282962 -256.754259 
L 308.901555 -256.415807 
L 307.520148 -256.072254 
L 306.138741 -255.723601 
L 304.757334 -255.369848 
L 303.375927 -255.010994 
L 301.994519 -254.647039 
L 300.613112 -254.277984 
L 299.231705 -253.903829 
L 297.850298 -253.524573 
L 296.468891 -253.140217 
L 295.087484 -252.75076 
L 293.706077 -252.356203 
L 292.32467 -251.956545 
L 290.943263 -251.551787 
L 289.561856 -251.141928 
L 288.180449 -250.726969 
L 286.799042 -250.30691 
L 285.417635 -249.88175 
L 284.036228 -249.451489 
L 282.654821 -249.016129 
L 281.273414 -248.575667 
L 279.892007 -248.130105 
L 278.5106 -247.679443 
L 277.129193 -247.22368 
L 275.747786 -246.762817 
L 274.366379 -246.296853 
L 272.984972 -245.825789 
L 271.603565 -245.349625 
L 270.222158 -244.868359 
L 268.840751 -244.381994 
L 267.459344 -243.890528 
L 266.077937 -243.393961 
L 264.69653 -242.892295 
L 263.315122 -242.385527 
L 261.933715 -241.873659 
L 260.552308 -241.356691 
L 259.170901 -240.834622 
L 257.789494 -240.307453 
L 256.408087 -239.775183 
L 255.02668 -239.237813 
L 253.645273 -238.695342 
L 252.263866 -238.147771 
L 250.882459 -237.5951 
L 249.501052 -237.037328 
L 248.119645 -236.474455 
L 246.738238 -235.906482 
L 245.356831 -235.333409 
L 243.975424 -234.755235 
L 242.594017 -234.171961 
L 241.21261 -233.583586 
L 239.831203 -232.990111 
L 238.449796 -232.391535 
L 237.068389 -231.787859 
L 235.686982 -231.179082 
L 234.305575 -230.565205 
L 232.924168 -229.946227 
L 231.542761 -229.322149 
L 230.161354 -228.692971 
L 228.779947 -228.058692 
L 227.39854 -227.419313 
L 226.017133 -226.774833 
L 224.635726 -226.125252 
L 223.254318 -225.470572 
L 221.872911 -224.81079 
L 220.491504 -224.145908 
L 219.110097 -223.475926 
L 217.72869 -222.800844 
L 216.347283 -222.120661 
L 214.965876 -221.435377 
L 213.584469 -220.744993 
L 212.203062 -220.049508 
L 210.821655 -219.348923 
L 209.440248 -218.643238 
L 208.058841 -217.932452 
L 206.677434 -217.216566 
L 205.296027 -216.495579 
L 203.91462 -215.769492 
L 202.533213 -215.038304 
L 201.151806 -214.302016 
L 199.770399 -213.560627 
L 198.388992 -212.814138 
L 197.007585 -212.062548 
L 195.626178 -211.305858 
L 194.244771 -210.544068 
L 192.863364 -209.777177 
L 191.481957 -209.005185 
L 190.10055 -208.228093 
L 188.719143 -207.445901 
L 187.337736 -206.658608 
L 185.956329 -205.866215 
L 184.574921 -205.068721 
L 183.193514 -204.266127 
L 181.812107 -203.458432 
L 180.4307 -202.645637 
L 179.049293 -201.827741 
L 177.667886 -201.004745 
L 176.286479 -200.176649 
L 174.905072 -199.343452 
L 173.523665 -198.505154 
L 172.142258 -197.661756 
L 170.760851 -196.813258 
L 169.379444 -195.959659 
L 167.998037 -195.10096 
L 166.61663 -194.23716 
L 165.235223 -193.36826 
L 163.853816 -192.494259 
L 162.472409 -191.615158 
L 161.091002 -190.730956 
L 159.709595 -189.841654 
L 158.328188 -188.947252 
L 156.946781 -188.047749 
L 155.565374 -187.143145 
L 154.183967 -186.233441 
L 152.80256 -185.318637 
L 151.421153 -184.398732 
L 150.039746 -183.473727 
L 148.658339 -182.543621 
L 147.276932 -181.608415 
L 145.895524 -180.668108 
L 144.514117 -179.722701 
L 143.13271 -178.772193 
L 141.751303 -177.816585 
L 140.369896 -176.855876 
L 138.988489 -175.890067 
L 137.607082 -174.919158 
L 136.225675 -173.943148 
L 134.844268 -172.962037 
L 133.462861 -171.975827 
L 132.081454 -170.984515 
L 130.700047 -169.988103 
L 129.31864 -168.986591 
L 127.937233 -167.979978 
L 126.555826 -166.968265 
L 125.174419 -165.951452 
L 123.793012 -164.929538 
L 122.411605 -163.902523 
L 121.030198 -162.870408 
L 119.648791 -161.833192 
L 118.267384 -160.790876 
L 116.885977 -159.74346 
L 115.50457 -158.690943 
L 114.123163 -157.633326 
L 112.741756 -156.570608 
L 111.360349 -155.50279 
L 109.978942 -154.429871 
L 108.597535 -153.351852 
L 107.216128 -152.268732 
L 105.83472 -151.180512 
L 104.453313 -150.087191 
L 103.071906 -148.98877 
L 101.690499 -147.885249 
L 100.309092 -146.776627 
L 98.927685 -145.662904 
L 97.546278 -144.544081 
L 96.164871 -143.420158 
L 94.783464 -142.291134 
L 93.402057 -141.15701 
L 92.02065 -140.017785 
L 90.639243 -138.87346 
L 89.257836 -137.724034 
L 87.876429 -136.569508 
L 86.495022 -135.409881 
L 85.113615 -134.245154 
L 83.732208 -133.075327 
L 82.350801 -131.900399 
L 80.969394 -130.72037 
L 79.587987 -129.535241 
L 78.20658 -128.345012 
L 76.825173 -127.149682 
L 75.443766 -125.949252 
L 74.062359 -124.743721 
L 72.680952 -123.53309 
L 71.299545 -122.317358 
L 69.918138 -121.096526 
L 68.536731 -119.870593 
L 67.155323 -118.63956 
L 65.773916 -117.403427 
L 64.392509 -116.162193 
L 63.011102 -114.915858 
L 61.629695 -113.664423 
L 60.248288 -112.407888 
L 58.866881 -111.146252 
L 57.485474 -109.879516 
L 56.104067 -108.607679 
L 54.72266 -107.330742 
L 53.341253 -106.048704 
L 51.959846 -104.761566 
L 50.578439 -103.469327 
L 49.197032 -102.171988 
L 47.815625 -100.869549 
z
" style="stroke: #1f6feb; stroke-opacity: 0.14"/>
    </defs>
    <g clip-path="url(#pf90f474788)">
     <use xlink:href="#mb82176f2df" x="0" y="276.434375" style="fill: #1f6feb; fill-opacity: 0.14; stroke: #1f6feb; stroke-opacity: 0.14"/>
    </g>
   </g>
   <g id="line2d_29">
    <path d="M 47.815625 175.564826 
L 58.866881 165.288123 
L 69.918138 155.337849 
L 80.969394 145.714005 
L 92.02065 136.41659 
L 103.071906 127.445605 
L 112.741756 119.863767 
L 122.411605 112.531852 
L 132.081454 105.44986 
L 141.751303 98.61779 
L 151.421153 92.035643 
L 161.091002 85.703419 
L 170.760851 79.621117 
L 180.4307 73.788738 
L 190.10055 68.206282 
L 199.770399 62.873748 
L 209.440248 57.791137 
L 219.110097 52.958449 
L 228.779947 48.375683 
L 238.449796 44.04284 
L 248.119645 39.95992 
L 257.789494 36.126922 
L 267.459344 32.543847 
L 277.129193 29.210695 
L 286.799042 26.127465 
L 296.468891 23.294158 
L 306.138741 20.710774 
L 315.80859 18.377312 
L 322.715625 16.863568 
L 322.715625 16.863568 
" clip-path="url(#pf90f474788)" style="fill: none; stroke: #1f6feb; stroke-width: 2.6; stroke-linecap: square"/>
   </g>
   <g id="patch_3">
    <path d="M 47.815625 233.274375 
L 47.815625 25.52 
" style="fill: none; stroke: #222831; stroke-width: 1.1; stroke-linejoin: miter; stroke-linecap: square"/>
   </g>
   <g id="patch_4">
    <path d="M 47.815625 233.274375 
L 322.715625 233.274375 
" style="fill: none; stroke: #222831; stroke-width: 1.1; stroke-linejoin: miter; stroke-linecap: square"/>
   </g>
   <g id="text_17">
    <!-- 面積 = 力所做的功 $W$ -->
    <g style="fill: #1f6feb" transform="translate(130.185625 169.793872) scale(0.12 -0.12)">
     <defs>
      <path id="NotoSansCJKjp-Regular-aaab" d="M 2490 2138 
L 3846 2138 
L 3846 1414 
L 2490 1414 
L 2490 2138 
z
M 2490 2528 
L 2490 3238 
L 3846 3238 
L 3846 2528 
L 2490 2528 
z
M 2490 1024 
L 3846 1024 
L 3846 275 
L 2490 275 
L 2490 1024 
z
M 371 4954 
L 371 4493 
L 2842 4493 
C 2797 4230 2726 3930 2662 3686 
L 666 3686 
L 666 -512 
L 1126 -512 
L 1126 -173 
L 5248 -173 
L 5248 -512 
L 5734 -512 
L 5734 3686 
L 3155 3686 
L 3405 4493 
L 6048 4493 
L 6048 4954 
L 371 4954 
z
M 1126 275 
L 1126 3238 
L 2048 3238 
L 2048 275 
L 1126 275 
z
M 5248 275 
L 4288 275 
L 4288 3238 
L 5248 3238 
L 5248 275 
z
" transform="scale(0.015625)"/>
      <path id="NotoSansCJKjp-Regular-7289" d="M 3341 1997 
L 5318 1997 
L 5318 1581 
L 3341 1581 
L 3341 1997 
z
M 3341 1267 
L 5318 1267 
L 5318 845 
L 3341 845 
L 3341 1267 
z
M 3341 2720 
L 5318 2720 
L 5318 2310 
L 3341 2310 
L 3341 2720 
z
M 2899 3053 
L 2899 512 
L 5773 512 
L 5773 3053 
L 2899 3053 
z
M 4640 224 
C 5056 -19 5510 -320 5773 -518 
L 6195 -282 
C 5894 -70 5395 224 4966 467 
L 4640 224 
z
M 3622 486 
C 3322 224 2714 -70 2189 -224 
C 2285 -307 2426 -448 2502 -538 
C 3021 -371 3648 -64 4032 243 
L 3622 486 
z
M 2477 3712 
L 2477 3597 
L 1779 3597 
L 1779 4672 
C 2080 4742 2355 4819 2586 4915 
L 2253 5286 
C 1798 5082 986 4909 288 4806 
C 346 4698 410 4538 429 4435 
C 710 4467 1011 4518 1312 4570 
L 1312 3597 
L 320 3597 
L 320 3149 
L 1267 3149 
C 1011 2406 570 1562 154 1101 
C 230 986 352 794 403 659 
C 723 1050 1050 1677 1312 2317 
L 1312 -499 
L 1779 -499 
L 1779 2266 
C 1990 2003 2240 1670 2336 1498 
L 2624 1875 
C 2502 2022 1978 2560 1779 2746 
L 1779 3149 
L 2502 3149 
L 2502 3373 
L 6138 3373 
L 6138 3712 
L 4518 3712 
L 4518 4051 
L 5818 4051 
L 5818 4365 
L 4518 4365 
L 4518 4691 
L 5984 4691 
L 5984 5024 
L 4518 5024 
L 4518 5376 
L 4045 5376 
L 4045 5024 
L 2669 5024 
L 2669 4691 
L 4045 4691 
L 4045 4365 
L 2816 4365 
L 2816 4051 
L 4045 4051 
L 4045 3712 
L 2477 3712 
z
" transform="scale(0.015625)"/>
      <path id="NotoSansCJKjp-Regular-1e" d="M 243 2912 
L 3315 2912 
L 3315 3347 
L 243 3347 
L 243 2912 
z
M 243 1376 
L 3315 1376 
L 3315 1811 
L 243 1811 
L 243 1376 
z
" transform="scale(0.015625)"/>
      <path id="NotoSansCJKjp-Regular-48a5" d="M 390 5024 
L 390 4582 
L 3155 4582 
L 3155 5024 
L 390 5024 
z
M 5626 5299 
C 5203 5062 4493 4826 3808 4646 
L 3424 4742 
L 3424 3040 
C 3424 2054 3328 774 2438 -173 
C 2554 -230 2733 -397 2797 -499 
C 3667 435 3866 1728 3891 2733 
L 4998 2733 
L 4998 -512 
L 5472 -512 
L 5472 2733 
L 6182 2733 
L 6182 3194 
L 3898 3194 
L 3898 4230 
C 4646 4410 5466 4653 6048 4941 
L 5626 5299 
z
M 627 3910 
L 627 2189 
C 627 1446 582 467 141 -230 
C 243 -282 435 -435 512 -518 
C 954 154 1069 1133 1082 1914 
L 2989 1914 
L 2989 3910 
L 627 3910 
z
M 1088 3469 
L 2522 3469 
L 2522 2349 
L 1088 2349 
L 1088 3469 
z
" transform="scale(0.015625)"/>
      <path id="NotoSansCJKjp-Regular-28a2" d="M 4454 5376 
C 4307 4346 4045 3328 3616 2669 
C 3661 2624 3731 2547 3789 2470 
L 3091 2470 
L 3091 3693 
L 3930 3693 
L 3930 4128 
L 3091 4128 
L 3091 5306 
L 2630 5306 
L 2630 4128 
L 1747 4128 
L 1747 3693 
L 2630 3693 
L 2630 2470 
L 1914 2470 
L 1914 -224 
L 2342 -224 
L 2342 198 
L 3802 198 
L 3802 2458 
L 3917 2298 
C 4032 2470 4134 2662 4224 2874 
C 4320 2272 4467 1645 4710 1075 
C 4410 550 4006 134 3450 -186 
C 3546 -262 3699 -435 3757 -518 
C 4250 -205 4627 173 4928 627 
C 5171 179 5498 -211 5920 -512 
C 5984 -390 6125 -218 6214 -134 
C 5754 160 5421 576 5171 1056 
C 5523 1766 5728 2643 5850 3718 
L 6144 3718 
L 6144 4134 
L 4653 4134 
C 4749 4512 4826 4902 4890 5299 
L 4454 5376 
z
M 2342 2048 
L 3373 2048 
L 3373 621 
L 2342 621 
L 2342 2048 
z
M 4538 3718 
L 5421 3718 
C 5331 2880 5190 2163 4941 1562 
C 4698 2214 4570 2931 4499 3590 
L 4538 3718 
z
M 1491 5344 
C 1184 4358 672 3379 115 2746 
C 198 2624 320 2362 371 2253 
C 582 2502 781 2790 973 3104 
L 973 -512 
L 1421 -512 
L 1421 3936 
C 1619 4352 1792 4787 1933 5222 
L 1491 5344 
z
" transform="scale(0.015625)"/>
      <path id="NotoSansCJKjp-Regular-6c33" d="M 3533 2707 
C 3885 2240 4320 1600 4512 1210 
L 4922 1466 
C 4710 1843 4269 2464 3904 2918 
L 3533 2707 
z
M 1536 5389 
C 1485 5082 1376 4659 1274 4346 
L 557 4346 
L 557 -346 
L 998 -346 
L 998 160 
L 2784 160 
L 2784 4346 
L 1715 4346 
C 1824 4621 1946 4979 2054 5299 
L 1536 5389 
z
M 998 3917 
L 2342 3917 
L 2342 2566 
L 998 2566 
L 998 3917 
z
M 998 595 
L 998 2144 
L 2342 2144 
L 2342 595 
L 998 595 
z
M 3827 5402 
C 3622 4518 3277 3635 2835 3066 
C 2950 3002 3149 2867 3238 2790 
C 3456 3098 3661 3488 3840 3923 
L 5478 3923 
C 5402 1357 5299 371 5094 154 
C 5018 64 4947 45 4819 45 
C 4672 45 4288 51 3866 83 
C 3955 -38 4013 -243 4026 -378 
C 4384 -397 4762 -410 4979 -390 
C 5210 -365 5350 -314 5498 -122 
C 5754 192 5843 1184 5939 4122 
C 5946 4186 5946 4365 5946 4365 
L 4013 4365 
C 4115 4666 4211 4986 4288 5299 
L 3827 5402 
z
" transform="scale(0.015625)"/>
      <path id="NotoSansCJKjp-Regular-2c75" d="M 243 1165 
L 358 672 
C 1043 858 1965 1120 2835 1370 
L 2778 1824 
L 1747 1549 
L 1747 4160 
L 2682 4160 
L 2682 4621 
L 326 4621 
L 326 4160 
L 1274 4160 
L 1274 1421 
C 883 1318 525 1229 243 1165 
z
M 3821 5274 
C 3821 4806 3814 4352 3802 3910 
L 2726 3910 
L 2726 3450 
L 3782 3450 
C 3686 1888 3334 595 1965 -141 
C 2086 -230 2246 -397 2310 -518 
C 3776 301 4154 1747 4256 3450 
L 5536 3450 
C 5446 1171 5338 301 5152 102 
C 5082 19 5018 0 4883 0 
C 4742 0 4384 6 3987 38 
C 4077 -90 4128 -294 4141 -435 
C 4506 -454 4877 -461 5082 -442 
C 5299 -422 5440 -371 5581 -192 
C 5824 102 5914 1024 6016 3674 
C 6016 3738 6016 3910 6016 3910 
L 4282 3910 
C 4294 4352 4301 4806 4301 5274 
L 3821 5274 
z
" transform="scale(0.015625)"/>
      <path id="Cmmi10-50" d="M 1141 -72 
L 844 4006 
Q 822 4100 703 4123 
Q 584 4147 409 4147 
Q 347 4147 347 4231 
Q 369 4313 381 4342 
Q 394 4372 453 4372 
L 1978 4372 
Q 2041 4372 2041 4288 
Q 2016 4147 1959 4147 
Q 1447 4147 1416 3969 
L 1644 738 
L 3244 3525 
L 3213 4006 
Q 3191 4100 3072 4123 
Q 2953 4147 2778 4147 
Q 2713 4147 2713 4231 
Q 2734 4313 2746 4342 
Q 2759 4372 2822 4372 
L 4347 4372 
Q 4409 4372 4409 4288 
Q 4406 4272 4397 4234 
Q 4388 4197 4372 4172 
Q 4356 4147 4325 4147 
Q 3809 4147 3781 3969 
L 3781 3922 
L 4013 738 
L 5753 3775 
Q 5791 3844 5791 3909 
Q 5791 4041 5662 4094 
Q 5534 4147 5375 4147 
Q 5313 4147 5313 4231 
Q 5325 4281 5333 4309 
Q 5341 4338 5361 4355 
Q 5381 4372 5422 4372 
L 6644 4372 
Q 6706 4372 6706 4288 
Q 6703 4272 6693 4233 
Q 6684 4194 6667 4170 
Q 6650 4147 6625 4147 
Q 6169 4147 5931 3731 
Q 5913 3713 5913 3713 
L 3744 -72 
Q 3709 -141 3634 -141 
L 3584 -141 
Q 3506 -141 3506 -72 
L 3263 3225 
L 1381 -72 
Q 1334 -141 1269 -141 
L 1216 -141 
Q 1141 -141 1141 -72 
z
" transform="scale(0.015625)"/>
     </defs>
     <use xlink:href="#NotoSansCJKjp-Regular-aaab" transform="translate(0 0.59375)"/>
     <use xlink:href="#NotoSansCJKjp-Regular-7289" transform="translate(99.999908 0.59375)"/>
     <use xlink:href="#NotoSansCJKjp-Regular-1" transform="translate(199.999817 0.59375)"/>
     <use xlink:href="#NotoSansCJKjp-Regular-1e" transform="translate(222.399796 0.59375)"/>
     <use xlink:href="#NotoSansCJKjp-Regular-1" transform="translate(277.89975 0.59375)"/>
     <use xlink:href="#NotoSansCJKjp-Regular-2c71" transform="translate(300.299728 0.59375)"/>
     <use xlink:href="#NotoSansCJKjp-Regular-48a5" transform="translate(400.299637 0.59375)"/>
     <use xlink:href="#NotoSansCJKjp-Regular-28a2" transform="translate(500.299545 0.59375)"/>
     <use xlink:href="#NotoSansCJKjp-Regular-6c33" transform="translate(600.299454 0.59375)"/>
     <use xlink:href="#NotoSansCJKjp-Regular-2c75" transform="translate(700.299362 0.59375)"/>
     <use xlink:href="#NotoSansCJKjp-Regular-1" transform="translate(800.299271 0.59375)"/>
     <use xlink:href="#Cmmi10-50" transform="translate(822.699249 0.59375)"/>
    </g>
   </g>
   <g id="text_18">
    <!-- 變力作功：$F$–$x$ 圖下的面積 -->
    <g style="fill: #222831" transform="translate(101.405625 19.52) scale(0.14 -0.14)">
     <defs>
      <path id="NotoSansCJKjp-Regular-95ec" d="M 1664 2874 
C 1798 2650 1933 2342 1984 2150 
L 2291 2285 
C 2240 2470 2099 2765 1965 2982 
L 1664 2874 
z
M 640 2970 
C 563 2624 442 2259 262 2003 
C 358 1958 512 1869 582 1818 
C 755 2093 909 2502 998 2886 
L 640 2970 
z
M 5376 2848 
C 5568 2560 5760 2170 5830 1926 
L 6150 2080 
C 6067 2317 5869 2694 5677 2976 
L 5376 2848 
z
M 4275 2963 
C 4198 2630 4077 2298 3898 2048 
C 3987 2010 4141 1926 4211 1882 
C 4384 2138 4538 2522 4627 2886 
L 4275 2963 
z
M 2477 5203 
L 2477 4922 
L 3853 4922 
L 3853 5203 
L 2477 5203 
z
M 2464 4077 
L 2464 3802 
L 3866 3802 
L 3866 4077 
L 2464 4077 
z
M 2464 3533 
L 2464 3251 
L 3866 3251 
L 3866 3533 
L 2464 3533 
z
M 2803 2688 
L 3520 2688 
L 3520 2214 
L 2803 2214 
L 2803 2688 
z
M 1709 4832 
C 1587 4653 1427 4435 1254 4218 
C 1184 4294 1094 4384 998 4474 
C 1178 4691 1376 4973 1542 5242 
L 1197 5382 
C 1094 5178 928 4896 774 4672 
L 614 4800 
L 390 4550 
C 608 4371 858 4134 1018 3942 
C 902 3808 787 3680 678 3571 
L 307 3571 
L 346 3200 
L 1152 3232 
L 1152 1728 
L 1530 1728 
L 1530 3251 
L 2029 3270 
L 2125 3085 
L 2406 3251 
C 2304 3469 2067 3795 1856 4038 
L 1581 3891 
C 1658 3802 1741 3699 1818 3590 
L 1094 3578 
C 1414 3904 1773 4307 2054 4659 
L 1709 4832 
z
M 2208 4659 
L 2208 4352 
L 4064 4352 
L 4064 4474 
C 4269 4320 4499 4109 4653 3936 
C 4531 3802 4416 3680 4301 3571 
L 3942 3571 
L 3987 3200 
L 4813 3232 
L 4813 1728 
L 5190 1728 
L 5190 3251 
L 5734 3277 
C 5792 3187 5843 3110 5875 3040 
L 6163 3226 
C 6042 3462 5754 3814 5504 4077 
L 5235 3917 
C 5325 3821 5421 3706 5510 3590 
L 4730 3578 
C 5075 3910 5459 4339 5766 4704 
L 5421 4883 
C 5286 4685 5094 4442 4896 4211 
C 4819 4288 4723 4378 4621 4461 
C 4800 4678 5018 4966 5190 5242 
L 4838 5382 
C 4736 5171 4550 4877 4390 4653 
L 4250 4755 
L 4064 4538 
L 4064 4659 
L 2208 4659 
z
M 4269 1171 
C 3987 902 3622 685 3194 506 
C 2707 691 2278 909 1965 1171 
L 4269 1171 
z
M 2451 2963 
L 2451 2054 
L 2189 2131 
C 1824 1549 1120 1069 397 781 
C 499 704 666 531 736 448 
C 1030 589 1331 755 1606 960 
C 1901 710 2253 493 2650 307 
C 1933 90 1101 -45 256 -122 
C 339 -224 461 -422 499 -538 
C 1453 -416 2400 -237 3206 77 
C 4026 -230 4966 -422 5914 -525 
C 5971 -403 6080 -218 6176 -115 
C 5338 -45 4493 102 3757 320 
C 4198 544 4582 826 4870 1171 
L 5920 1171 
L 5920 1562 
L 2291 1562 
C 2394 1683 2496 1805 2579 1939 
L 3878 1939 
L 3878 2963 
L 2451 2963 
z
" transform="scale(0.015625)"/>
      <path id="NotoSansCJKjp-Regular-26fc" d="M 3366 5299 
C 3046 4358 2528 3430 1952 2829 
C 2061 2752 2246 2586 2323 2502 
C 2650 2861 2963 3328 3238 3846 
L 3680 3846 
L 3680 -506 
L 4166 -506 
L 4166 1050 
L 6093 1050 
L 6093 1504 
L 4166 1504 
L 4166 2477 
L 6010 2477 
L 6010 2918 
L 4166 2918 
L 4166 3846 
L 6157 3846 
L 6157 4307 
L 3469 4307 
C 3603 4589 3725 4883 3827 5178 
L 3366 5299 
z
M 1824 5350 
C 1466 4378 864 3418 230 2797 
C 320 2688 461 2426 512 2317 
C 730 2541 941 2797 1146 3078 
L 1146 -499 
L 1626 -499 
L 1626 3834 
C 1875 4269 2106 4742 2285 5210 
L 1824 5350 
z
" transform="scale(0.015625)"/>
      <path id="NotoSansCJKjp-Regular-e6c0" d="M 3200 3482 
C 3456 3482 3686 3667 3686 3962 
C 3686 4256 3456 4442 3200 4442 
C 2944 4442 2714 4256 2714 3962 
C 2714 3667 2944 3482 3200 3482 
z
M 3200 346 
C 3456 346 3686 538 3686 826 
C 3686 1120 3456 1312 3200 1312 
C 2944 1312 2714 1120 2714 826 
C 2714 538 2944 346 3200 346 
z
" transform="scale(0.015625)"/>
      <path id="NotoSansCJKjp-Regular-2d1" d="M 294 1600 
L 3136 1600 
L 3136 1997 
L 294 1997 
L 294 1600 
z
" transform="scale(0.015625)"/>
      <path id="NotoSansCJKjp-Regular-33ac" d="M 2317 4122 
L 4058 4122 
L 4058 3699 
L 2317 3699 
L 2317 4122 
z
M 2099 2234 
L 4275 2234 
L 4275 806 
L 2099 806 
L 2099 2234 
z
M 1715 2534 
L 1715 506 
L 4678 506 
L 4678 2534 
L 1715 2534 
z
M 2810 1709 
L 3552 1709 
L 3552 1331 
L 2810 1331 
L 2810 1709 
z
M 2509 1965 
L 2509 1082 
L 3872 1082 
L 3872 1965 
L 2509 1965 
z
M 1280 3117 
L 1280 2816 
L 5133 2816 
L 5133 3117 
L 3386 3117 
L 3386 3411 
L 4474 3411 
L 4474 4403 
L 1920 4403 
L 1920 3411 
L 2970 3411 
L 2970 3117 
L 1280 3117 
z
M 525 5114 
L 525 -506 
L 979 -506 
L 979 -250 
L 5421 -250 
L 5421 -506 
L 5888 -506 
L 5888 5114 
L 525 5114 
z
M 979 154 
L 979 4710 
L 5421 4710 
L 5421 154 
L 979 154 
z
" transform="scale(0.015625)"/>
      <path id="NotoSansCJKjp-Regular-2516" d="M 352 4902 
L 352 4422 
L 2822 4422 
L 2822 -506 
L 3328 -506 
L 3328 2886 
C 4064 2490 4922 1958 5370 1600 
L 5709 2035 
C 5197 2426 4179 3002 3418 3373 
L 3328 3270 
L 3328 4422 
L 6054 4422 
L 6054 4902 
L 352 4902 
z
" transform="scale(0.015625)"/>
     </defs>
     <use xlink:href="#NotoSansCJKjp-Regular-95ec" transform="translate(0 0.59375)"/>
     <use xlink:href="#NotoSansCJKjp-Regular-2c71" transform="translate(99.999908 0.59375)"/>
     <use xlink:href="#NotoSansCJKjp-Regular-26fc" transform="translate(199.999817 0.59375)"/>
     <use xlink:href="#NotoSansCJKjp-Regular-2c75" transform="translate(299.999725 0.59375)"/>
     <use xlink:href="#NotoSansCJKjp-Regular-e6c0" transform="translate(399.999634 0.59375)"/>
     <use xlink:href="#Cmmi10-42" transform="translate(499.999542 0.59375)"/>
     <use xlink:href="#NotoSansCJKjp-Regular-2d1" transform="translate(564.306183 0.59375)"/>
     <use xlink:href="#Cmmi10-3f" transform="translate(617.906128 0.59375)"/>
     <use xlink:href="#NotoSansCJKjp-Regular-1" transform="translate(674.986206 0.59375)"/>
     <use xlink:href="#NotoSansCJKjp-Regular-33ac" transform="translate(697.386185 0.59375)"/>
     <use xlink:href="#NotoSansCJKjp-Regular-2516" transform="translate(797.386093 0.59375)"/>
     <use xlink:href="#NotoSansCJKjp-Regular-6c33" transform="translate(897.386002 0.59375)"/>
     <use xlink:href="#NotoSansCJKjp-Regular-aaab" transform="translate(997.38591 0.59375)"/>
     <use xlink:href="#NotoSansCJKjp-Regular-7289" transform="translate(1097.385818 0.59375)"/>
    </g>
   </g>
  </g>
  <g id="axes_2">
   <g id="patch_5">
    <path d="M 379.735625 233.274375 
L 654.635625 233.274375 
L 654.635625 25.52 
L 379.735625 25.52 
z
" style="fill: #ffffff"/>
   </g>
   <g id="matplotlib.axis_3">
    <g id="xtick_7">
     <g id="line2d_30">
      <path d="M 379.735625 233.274375 
L 379.735625 25.52 
" clip-path="url(#p842120233f)" style="fill: none; stroke: #d8dde3; stroke-width: 0.9; stroke-linecap: square"/>
     </g>
     <g id="line2d_31">
      <g>
       <use xlink:href="#me7d937e1e7" x="379.735625" y="233.274375" style="fill: #222831; stroke: #222831; stroke-width: 0.8"/>
      </g>
     </g>
     <g id="text_19">
      <!-- 0 -->
      <g style="fill: #222831" transform="translate(376.405625 250.834375) scale(0.12 -0.12)">
       <use xlink:href="#NotoSansCJKjp-Regular-11"/>
      </g>
     </g>
    </g>
    <g id="xtick_8">
     <g id="line2d_32">
      <path d="M 434.715625 233.274375 
L 434.715625 25.52 
" clip-path="url(#p842120233f)" style="fill: none; stroke: #d8dde3; stroke-width: 0.9; stroke-linecap: square"/>
     </g>
     <g id="line2d_33">
      <g>
       <use xlink:href="#me7d937e1e7" x="434.715625" y="233.274375" style="fill: #222831; stroke: #222831; stroke-width: 0.8"/>
      </g>
     </g>
     <g id="text_20">
      <!-- 1 -->
      <g style="fill: #222831" transform="translate(431.385625 250.834375) scale(0.12 -0.12)">
       <use xlink:href="#NotoSansCJKjp-Regular-12"/>
      </g>
     </g>
    </g>
    <g id="xtick_9">
     <g id="line2d_34">
      <path d="M 489.695625 233.274375 
L 489.695625 25.52 
" clip-path="url(#p842120233f)" style="fill: none; stroke: #d8dde3; stroke-width: 0.9; stroke-linecap: square"/>
     </g>
     <g id="line2d_35">
      <g>
       <use xlink:href="#me7d937e1e7" x="489.695625" y="233.274375" style="fill: #222831; stroke: #222831; stroke-width: 0.8"/>
      </g>
     </g>
     <g id="text_21">
      <!-- 2 -->
      <g style="fill: #222831" transform="translate(486.365625 250.834375) scale(0.12 -0.12)">
       <use xlink:href="#NotoSansCJKjp-Regular-13"/>
      </g>
     </g>
    </g>
    <g id="xtick_10">
     <g id="line2d_36">
      <path d="M 544.675625 233.274375 
L 544.675625 25.52 
" clip-path="url(#p842120233f)" style="fill: none; stroke: #d8dde3; stroke-width: 0.9; stroke-linecap: square"/>
     </g>
     <g id="line2d_37">
      <g>
       <use xlink:href="#me7d937e1e7" x="544.675625" y="233.274375" style="fill: #222831; stroke: #222831; stroke-width: 0.8"/>
      </g>
     </g>
     <g id="text_22">
      <!-- 3 -->
      <g style="fill: #222831" transform="translate(541.345625 250.834375) scale(0.12 -0.12)">
       <use xlink:href="#NotoSansCJKjp-Regular-14"/>
      </g>
     </g>
    </g>
    <g id="xtick_11">
     <g id="line2d_38">
      <path d="M 599.655625 233.274375 
L 599.655625 25.52 
" clip-path="url(#p842120233f)" style="fill: none; stroke: #d8dde3; stroke-width: 0.9; stroke-linecap: square"/>
     </g>
     <g id="line2d_39">
      <g>
       <use xlink:href="#me7d937e1e7" x="599.655625" y="233.274375" style="fill: #222831; stroke: #222831; stroke-width: 0.8"/>
      </g>
     </g>
     <g id="text_23">
      <!-- 4 -->
      <g style="fill: #222831" transform="translate(596.325625 250.834375) scale(0.12 -0.12)">
       <use xlink:href="#NotoSansCJKjp-Regular-15"/>
      </g>
     </g>
    </g>
    <g id="xtick_12">
     <g id="line2d_40">
      <path d="M 654.635625 233.274375 
L 654.635625 25.52 
" clip-path="url(#p842120233f)" style="fill: none; stroke: #d8dde3; stroke-width: 0.9; stroke-linecap: square"/>
     </g>
     <g id="line2d_41">
      <g>
       <use xlink:href="#me7d937e1e7" x="654.635625" y="233.274375" style="fill: #222831; stroke: #222831; stroke-width: 0.8"/>
      </g>
     </g>
     <g id="text_24">
      <!-- 5 -->
      <g style="fill: #222831" transform="translate(651.305625 250.834375) scale(0.12 -0.12)">
       <use xlink:href="#NotoSansCJKjp-Regular-16"/>
      </g>
     </g>
    </g>
    <g id="text_25">
     <!-- 伸長量 $x$ (m) -->
     <g style="fill: #222831" transform="translate(483.405625 266.834375) scale(0.12 -0.12)">
      <defs>
       <path id="NotoSansCJKjp-Regular-26c8" d="M 3789 3923 
L 3789 3040 
L 2541 3040 
L 2541 3923 
L 3789 3923 
z
M 2086 4365 
L 2086 934 
L 2541 934 
L 2541 1274 
L 3789 1274 
L 3789 -506 
L 4256 -506 
L 4256 1274 
L 5542 1274 
L 5542 986 
L 6016 986 
L 6016 4365 
L 4256 4365 
L 4256 5344 
L 3789 5344 
L 3789 4365 
L 2086 4365 
z
M 4256 3923 
L 5542 3923 
L 5542 3040 
L 4256 3040 
L 4256 3923 
z
M 3789 2611 
L 3789 1709 
L 2541 1709 
L 2541 2611 
L 3789 2611 
z
M 4256 2611 
L 5542 2611 
L 5542 1709 
L 4256 1709 
L 4256 2611 
z
M 1690 5350 
C 1331 4378 736 3418 102 2797 
C 192 2688 326 2438 371 2323 
C 595 2554 813 2822 1024 3117 
L 1024 -499 
L 1485 -499 
L 1485 3840 
C 1734 4282 1965 4749 2144 5216 
L 1690 5350 
z
" transform="scale(0.015625)"/>
       <path id="NotoSansCJKjp-Regular-a74e" d="M 1466 5120 
L 1466 2304 
L 339 2304 
L 339 1875 
L 1466 1875 
L 1466 96 
L 646 -26 
L 762 -474 
C 1536 -339 2637 -154 3661 32 
L 3642 461 
L 1958 179 
L 1958 1875 
L 2874 1875 
C 3411 621 4397 -186 5862 -531 
C 5933 -397 6067 -205 6170 -102 
C 5440 38 4826 307 4333 685 
C 4800 915 5357 1242 5779 1555 
L 5389 1824 
C 5050 1542 4493 1197 4026 947 
C 3757 1216 3533 1523 3360 1875 
L 6067 1875 
L 6067 2304 
L 1958 2304 
L 1958 2861 
L 5242 2861 
L 5242 3251 
L 1958 3251 
L 1958 3789 
L 5242 3789 
L 5242 4173 
L 1958 4173 
L 1958 4710 
L 5440 4710 
L 5440 5120 
L 1466 5120 
z
" transform="scale(0.015625)"/>
       <path id="NotoSansCJKjp-Regular-a108" d="M 1600 4256 
L 4781 4256 
L 4781 3904 
L 1600 3904 
L 1600 4256 
z
M 1600 4883 
L 4781 4883 
L 4781 4538 
L 1600 4538 
L 1600 4883 
z
M 1133 5171 
L 1133 3616 
L 5261 3616 
L 5261 5171 
L 1133 5171 
z
M 333 3341 
L 333 2976 
L 6074 2976 
L 6074 3341 
L 333 3341 
z
M 1472 1747 
L 2957 1747 
L 2957 1376 
L 1472 1376 
L 1472 1747 
z
M 3424 1747 
L 4973 1747 
L 4973 1376 
L 3424 1376 
L 3424 1747 
z
M 1472 2387 
L 2957 2387 
L 2957 2029 
L 1472 2029 
L 1472 2387 
z
M 3424 2387 
L 4973 2387 
L 4973 2029 
L 3424 2029 
L 3424 2387 
z
M 301 19 
L 301 -352 
L 6112 -352 
L 6112 19 
L 3424 19 
L 3424 390 
L 5587 390 
L 5587 730 
L 3424 730 
L 3424 1082 
L 5446 1082 
L 5446 2688 
L 1018 2688 
L 1018 1082 
L 2957 1082 
L 2957 730 
L 838 730 
L 838 390 
L 2957 390 
L 2957 19 
L 301 19 
z
" transform="scale(0.015625)"/>
      </defs>
      <use xlink:href="#NotoSansCJKjp-Regular-26c8" transform="translate(0 0.40625)"/>
      <use xlink:href="#NotoSansCJKjp-Regular-a74e" transform="translate(99.999908 0.40625)"/>
      <use xlink:href="#NotoSansCJKjp-Regular-a108" transform="translate(199.999817 0.40625)"/>
      <use xlink:href="#NotoSansCJKjp-Regular-1" transform="translate(299.999725 0.40625)"/>
      <use xlink:href="#Cmmi10-3f" transform="translate(322.399704 0.40625)"/>
      <use xlink:href="#NotoSansCJKjp-Regular-1" transform="translate(379.479782 0.40625)"/>
      <use xlink:href="#NotoSansCJKjp-Regular-9" transform="translate(401.879761 0.40625)"/>
      <use xlink:href="#NotoSansCJKjp-Regular-4e" transform="translate(435.679733 0.40625)"/>
      <use xlink:href="#NotoSansCJKjp-Regular-a" transform="translate(528.279648 0.40625)"/>
     </g>
    </g>
   </g>
   <g id="matplotlib.axis_4">
    <g id="ytick_9">
     <g id="line2d_42">
      <path d="M 379.735625 233.274375 
L 654.635625 233.274375 
" clip-path="url(#p842120233f)" style="fill: none; stroke: #d8dde3; stroke-width: 0.9; stroke-linecap: square"/>
     </g>
     <g id="line2d_43">
      <g>
       <use xlink:href="#m1afc7b2ab2" x="379.735625" y="233.274375" style="fill: #222831; stroke: #222831; stroke-width: 0.8"/>
      </g>
     </g>
     <g id="text_26">
      <!-- 0.0 -->
      <g style="fill: #222831" transform="translate(356.08 238.554375) scale(0.12 -0.12)">
       <use xlink:href="#NotoSansCJKjp-Regular-11"/>
       <use xlink:href="#NotoSansCJKjp-Regular-f" transform="translate(55.5 0)"/>
       <use xlink:href="#NotoSansCJKjp-Regular-11" transform="translate(83.296875 0)"/>
      </g>
     </g>
    </g>
    <g id="ytick_10">
     <g id="line2d_44">
      <path d="M 379.735625 205.938273 
L 654.635625 205.938273 
" clip-path="url(#p842120233f)" style="fill: none; stroke: #d8dde3; stroke-width: 0.9; stroke-linecap: square"/>
     </g>
     <g id="line2d_45">
      <g>
       <use xlink:href="#m1afc7b2ab2" x="379.735625" y="205.938273" style="fill: #222831; stroke: #222831; stroke-width: 0.8"/>
      </g>
     </g>
     <g id="text_27">
      <!-- 0.5 -->
      <g style="fill: #222831" transform="translate(356.08 211.218273) scale(0.12 -0.12)">
       <use xlink:href="#NotoSansCJKjp-Regular-11"/>
       <use xlink:href="#NotoSansCJKjp-Regular-f" transform="translate(55.5 0)"/>
       <use xlink:href="#NotoSansCJKjp-Regular-16" transform="translate(83.296875 0)"/>
      </g>
     </g>
    </g>
    <g id="ytick_11">
     <g id="line2d_46">
      <path d="M 379.735625 178.602171 
L 654.635625 178.602171 
" clip-path="url(#p842120233f)" style="fill: none; stroke: #d8dde3; stroke-width: 0.9; stroke-linecap: square"/>
     </g>
     <g id="line2d_47">
      <g>
       <use xlink:href="#m1afc7b2ab2" x="379.735625" y="178.602171" style="fill: #222831; stroke: #222831; stroke-width: 0.8"/>
      </g>
     </g>
     <g id="text_28">
      <!-- 1.0 -->
      <g style="fill: #222831" transform="translate(356.08 183.882171) scale(0.12 -0.12)">
       <use xlink:href="#NotoSansCJKjp-Regular-12"/>
       <use xlink:href="#NotoSansCJKjp-Regular-f" transform="translate(55.5 0)"/>
       <use xlink:href="#NotoSansCJKjp-Regular-11" transform="translate(83.296875 0)"/>
      </g>
     </g>
    </g>
    <g id="ytick_12">
     <g id="line2d_48">
      <path d="M 379.735625 151.266069 
L 654.635625 151.266069 
" clip-path="url(#p842120233f)" style="fill: none; stroke: #d8dde3; stroke-width: 0.9; stroke-linecap: square"/>
     </g>
     <g id="line2d_49">
      <g>
       <use xlink:href="#m1afc7b2ab2" x="379.735625" y="151.266069" style="fill: #222831; stroke: #222831; stroke-width: 0.8"/>
      </g>
     </g>
     <g id="text_29">
      <!-- 1.5 -->
      <g style="fill: #222831" transform="translate(356.08 156.546069) scale(0.12 -0.12)">
       <use xlink:href="#NotoSansCJKjp-Regular-12"/>
       <use xlink:href="#NotoSansCJKjp-Regular-f" transform="translate(55.5 0)"/>
       <use xlink:href="#NotoSansCJKjp-Regular-16" transform="translate(83.296875 0)"/>
      </g>
     </g>
    </g>
    <g id="ytick_13">
     <g id="line2d_50">
      <path d="M 379.735625 123.929967 
L 654.635625 123.929967 
" clip-path="url(#p842120233f)" style="fill: none; stroke: #d8dde3; stroke-width: 0.9; stroke-linecap: square"/>
     </g>
     <g id="line2d_51">
      <g>
       <use xlink:href="#m1afc7b2ab2" x="379.735625" y="123.929967" style="fill: #222831; stroke: #222831; stroke-width: 0.8"/>
      </g>
     </g>
     <g id="text_30">
      <!-- 2.0 -->
      <g style="fill: #222831" transform="translate(356.08 129.209967) scale(0.12 -0.12)">
       <use xlink:href="#NotoSansCJKjp-Regular-13"/>
       <use xlink:href="#NotoSansCJKjp-Regular-f" transform="translate(55.5 0)"/>
       <use xlink:href="#NotoSansCJKjp-Regular-11" transform="translate(83.296875 0)"/>
      </g>
     </g>
    </g>
    <g id="ytick_14">
     <g id="line2d_52">
      <path d="M 379.735625 96.593865 
L 654.635625 96.593865 
" clip-path="url(#p842120233f)" style="fill: none; stroke: #d8dde3; stroke-width: 0.9; stroke-linecap: square"/>
     </g>
     <g id="line2d_53">
      <g>
       <use xlink:href="#m1afc7b2ab2" x="379.735625" y="96.593865" style="fill: #222831; stroke: #222831; stroke-width: 0.8"/>
      </g>
     </g>
     <g id="text_31">
      <!-- 2.5 -->
      <g style="fill: #222831" transform="translate(356.08 101.873865) scale(0.12 -0.12)">
       <use xlink:href="#NotoSansCJKjp-Regular-13"/>
       <use xlink:href="#NotoSansCJKjp-Regular-f" transform="translate(55.5 0)"/>
       <use xlink:href="#NotoSansCJKjp-Regular-16" transform="translate(83.296875 0)"/>
      </g>
     </g>
    </g>
    <g id="ytick_15">
     <g id="line2d_54">
      <path d="M 379.735625 69.257763 
L 654.635625 69.257763 
" clip-path="url(#p842120233f)" style="fill: none; stroke: #d8dde3; stroke-width: 0.9; stroke-linecap: square"/>
     </g>
     <g id="line2d_55">
      <g>
       <use xlink:href="#m1afc7b2ab2" x="379.735625" y="69.257763" style="fill: #222831; stroke: #222831; stroke-width: 0.8"/>
      </g>
     </g>
     <g id="text_32">
      <!-- 3.0 -->
      <g style="fill: #222831" transform="translate(356.08 74.537763) scale(0.12 -0.12)">
       <use xlink:href="#NotoSansCJKjp-Regular-14"/>
       <use xlink:href="#NotoSansCJKjp-Regular-f" transform="translate(55.5 0)"/>
       <use xlink:href="#NotoSansCJKjp-Regular-11" transform="translate(83.296875 0)"/>
      </g>
     </g>
    </g>
    <g id="ytick_16">
     <g id="line2d_56">
      <path d="M 379.735625 41.921661 
L 654.635625 41.921661 
" clip-path="url(#p842120233f)" style="fill: none; stroke: #d8dde3; stroke-width: 0.9; stroke-linecap: square"/>
     </g>
     <g id="line2d_57">
      <g>
       <use xlink:href="#m1afc7b2ab2" x="379.735625" y="41.921661" style="fill: #222831; stroke: #222831; stroke-width: 0.8"/>
      </g>
     </g>
     <g id="text_33">
      <!-- 3.5 -->
      <g style="fill: #222831" transform="translate(356.08 47.201661) scale(0.12 -0.12)">
       <use xlink:href="#NotoSansCJKjp-Regular-14"/>
       <use xlink:href="#NotoSansCJKjp-Regular-f" transform="translate(55.5 0)"/>
       <use xlink:href="#NotoSansCJKjp-Regular-16" transform="translate(83.296875 0)"/>
      </g>
     </g>
    </g>
    <g id="text_34">
     <!-- 彈力 $F=kx$ (N) -->
     <g style="fill: #222831" transform="translate(349.68 169.957187) rotate(-90) scale(0.12 -0.12)">
      <defs>
       <path id="NotoSansCJKjp-Regular-4379" d="M 2893 4806 
L 3603 4806 
L 3603 4134 
L 2893 4134 
L 2893 4806 
z
M 2496 5146 
L 2496 3795 
L 4013 3795 
L 4013 5146 
L 2496 5146 
z
M 4781 4806 
L 5530 4806 
L 5530 4134 
L 4781 4134 
L 4781 4806 
z
M 4378 5146 
L 4378 3795 
L 5946 3795 
L 5946 5146 
L 4378 5146 
z
M 2605 3437 
L 2605 1299 
L 3962 1299 
L 3962 838 
L 2278 838 
L 2278 429 
L 3962 429 
L 3962 -512 
L 4422 -512 
L 4422 429 
L 6150 429 
L 6150 838 
L 4422 838 
L 4422 1299 
L 5837 1299 
L 5837 3437 
L 2605 3437 
z
M 3027 2195 
L 3962 2195 
L 3962 1670 
L 3027 1670 
L 3027 2195 
z
M 4422 2195 
L 5395 2195 
L 5395 1670 
L 4422 1670 
L 4422 2195 
z
M 3027 3059 
L 3962 3059 
L 3962 2547 
L 3027 2547 
L 3027 3059 
z
M 4422 3059 
L 5395 3059 
L 5395 2547 
L 4422 2547 
L 4422 3059 
z
M 486 3667 
C 454 3059 365 2246 282 1741 
L 710 1670 
L 749 1965 
L 1728 1965 
C 1664 659 1587 147 1466 19 
C 1408 -45 1350 -58 1242 -51 
C 1120 -51 813 -51 499 -26 
C 576 -154 634 -352 640 -493 
C 954 -512 1261 -512 1427 -493 
C 1619 -480 1734 -442 1850 -301 
C 2035 -90 2106 531 2189 2170 
C 2195 2240 2195 2387 2195 2387 
L 800 2387 
L 883 3232 
L 2176 3232 
L 2176 5082 
L 371 5082 
L 371 4646 
L 1715 4646 
L 1715 3667 
L 486 3667 
z
" transform="scale(0.015625)"/>
       <path id="Cmr10-29" d="M 481 850 
Q 428 850 393 890 
Q 359 931 359 978 
Q 359 1031 393 1068 
Q 428 1106 481 1106 
L 4500 1106 
Q 4547 1106 4581 1068 
Q 4616 1031 4616 978 
Q 4616 931 4581 890 
Q 4547 850 4500 850 
L 481 850 
z
M 481 2094 
Q 428 2094 393 2131 
Q 359 2169 359 2222 
Q 359 2269 393 2309 
Q 428 2350 481 2350 
L 4500 2350 
Q 4547 2350 4581 2309 
Q 4616 2269 4616 2222 
Q 4616 2169 4581 2131 
Q 4547 2094 4500 2094 
L 481 2094 
z
" transform="scale(0.015625)"/>
       <path id="Cmmi10-3e" d="M 341 116 
Q 341 153 347 172 
L 1275 3872 
Q 1300 3981 1306 4044 
Q 1306 4147 891 4147 
Q 825 4147 825 4231 
Q 828 4247 839 4287 
Q 850 4328 867 4350 
Q 884 4372 916 4372 
L 1778 4441 
L 1797 4441 
Q 1797 4434 1819 4423 
Q 1841 4413 1844 4409 
Q 1856 4378 1856 4359 
L 1184 1684 
Q 1416 1781 1767 2145 
Q 2119 2509 2317 2668 
Q 2516 2828 2816 2828 
Q 2994 2828 3119 2706 
Q 3244 2584 3244 2406 
Q 3244 2294 3197 2198 
Q 3150 2103 3065 2043 
Q 2981 1984 2869 1984 
Q 2766 1984 2695 2048 
Q 2625 2113 2625 2216 
Q 2625 2369 2733 2473 
Q 2841 2578 2994 2578 
Q 2931 2663 2803 2663 
Q 2613 2663 2436 2553 
Q 2259 2444 2054 2239 
Q 1850 2034 1681 1864 
Q 1513 1694 1369 1606 
Q 1747 1563 2025 1408 
Q 2303 1253 2303 934 
Q 2303 869 2278 769 
Q 2222 528 2222 384 
Q 2222 97 2419 97 
Q 2650 97 2770 350 
Q 2891 603 2969 941 
Q 2981 978 3022 978 
L 3097 978 
Q 3122 978 3139 962 
Q 3156 947 3156 922 
Q 3156 916 3150 903 
Q 2909 -72 2406 -72 
Q 2225 -72 2086 12 
Q 1947 97 1872 242 
Q 1797 388 1797 569 
Q 1797 672 1825 781 
Q 1844 856 1844 922 
Q 1844 1169 1625 1297 
Q 1406 1425 1125 1453 
L 800 147 
Q 775 50 703 -11 
Q 631 -72 538 -72 
Q 456 -72 398 -17 
Q 341 38 341 116 
z
" transform="scale(0.015625)"/>
      </defs>
      <use xlink:href="#NotoSansCJKjp-Regular-4379" transform="translate(0 0.203125)"/>
      <use xlink:href="#NotoSansCJKjp-Regular-2c71" transform="translate(99.999908 0.203125)"/>
      <use xlink:href="#NotoSansCJKjp-Regular-1" transform="translate(199.999817 0.203125)"/>
      <use xlink:href="#Cmmi10-42" transform="translate(222.399796 0.203125)"/>
      <use xlink:href="#Cmr10-29" transform="translate(306.706493 0.203125)"/>
      <use xlink:href="#Cmmi10-3e" transform="translate(404.392097 0.203125)"/>
      <use xlink:href="#Cmmi10-3f" transform="translate(456.394051 0.203125)"/>
      <use xlink:href="#NotoSansCJKjp-Regular-1" transform="translate(513.474129 0.203125)"/>
      <use xlink:href="#NotoSansCJKjp-Regular-9" transform="translate(535.874107 0.203125)"/>
      <use xlink:href="#NotoSansCJKjp-Regular-2f" transform="translate(569.67408 0.203125)"/>
      <use xlink:href="#NotoSansCJKjp-Regular-a" transform="translate(641.974007 0.203125)"/>
     </g>
    </g>
   </g>
   <g id="FillBetweenPolyCollection_2">
    <defs>
     <path id="made3d21c3a" d="M 379.735625 -43.16 
L 379.735625 -43.16 
L 381.957039 -43.16 
L 384.178453 -43.16 
L 386.399867 -43.16 
L 388.621282 -43.16 
L 390.842696 -43.16 
L 393.06411 -43.16 
L 395.285524 -43.16 
L 397.506938 -43.16 
L 399.728352 -43.16 
L 401.949766 -43.16 
L 404.171181 -43.16 
L 406.392595 -43.16 
L 408.614009 -43.16 
L 410.835423 -43.16 
L 413.056837 -43.16 
L 415.278251 -43.16 
L 417.499665 -43.16 
L 419.72108 -43.16 
L 421.942494 -43.16 
L 424.163908 -43.16 
L 426.385322 -43.16 
L 428.606736 -43.16 
L 430.82815 -43.16 
L 433.049564 -43.16 
L 435.270979 -43.16 
L 437.492393 -43.16 
L 439.713807 -43.16 
L 441.935221 -43.16 
L 444.156635 -43.16 
L 446.378049 -43.16 
L 448.599463 -43.16 
L 450.820878 -43.16 
L 453.042292 -43.16 
L 455.263706 -43.16 
L 457.48512 -43.16 
L 459.706534 -43.16 
L 461.927948 -43.16 
L 464.149362 -43.16 
L 466.370777 -43.16 
L 468.592191 -43.16 
L 470.813605 -43.16 
L 473.035019 -43.16 
L 475.256433 -43.16 
L 477.477847 -43.16 
L 479.699261 -43.16 
L 481.920676 -43.16 
L 484.14209 -43.16 
L 486.363504 -43.16 
L 488.584918 -43.16 
L 490.806332 -43.16 
L 493.027746 -43.16 
L 495.24916 -43.16 
L 497.470574 -43.16 
L 499.691989 -43.16 
L 501.913403 -43.16 
L 504.134817 -43.16 
L 506.356231 -43.16 
L 508.577645 -43.16 
L 510.799059 -43.16 
L 513.020473 -43.16 
L 515.241888 -43.16 
L 517.463302 -43.16 
L 519.684716 -43.16 
L 521.90613 -43.16 
L 524.127544 -43.16 
L 526.348958 -43.16 
L 528.570372 -43.16 
L 530.791787 -43.16 
L 533.013201 -43.16 
L 535.234615 -43.16 
L 537.456029 -43.16 
L 539.677443 -43.16 
L 541.898857 -43.16 
L 544.120271 -43.16 
L 546.341686 -43.16 
L 548.5631 -43.16 
L 550.784514 -43.16 
L 553.005928 -43.16 
L 555.227342 -43.16 
L 557.448756 -43.16 
L 559.67017 -43.16 
L 561.891585 -43.16 
L 564.112999 -43.16 
L 566.334413 -43.16 
L 568.555827 -43.16 
L 570.777241 -43.16 
L 572.998655 -43.16 
L 575.220069 -43.16 
L 577.441484 -43.16 
L 579.662898 -43.16 
L 581.884312 -43.16 
L 584.105726 -43.16 
L 586.32714 -43.16 
L 588.548554 -43.16 
L 590.769968 -43.16 
L 592.991383 -43.16 
L 595.212797 -43.16 
L 597.434211 -43.16 
L 599.655625 -43.16 
L 599.655625 -218.111053 
L 599.655625 -218.111053 
L 597.434211 -216.34387 
L 595.212797 -214.576688 
L 592.991383 -212.809506 
L 590.769968 -211.042323 
L 588.548554 -209.275141 
L 586.32714 -207.507959 
L 584.105726 -205.740776 
L 581.884312 -203.973594 
L 579.662898 -202.206411 
L 577.441484 -200.439229 
L 575.220069 -198.672047 
L 572.998655 -196.904864 
L 570.777241 -195.137682 
L 568.555827 -193.3705 
L 566.334413 -191.603317 
L 564.112999 -189.836135 
L 561.891585 -188.068953 
L 559.67017 -186.30177 
L 557.448756 -184.534588 
L 555.227342 -182.767406 
L 553.005928 -181.000223 
L 550.784514 -179.233041 
L 548.5631 -177.465859 
L 546.341686 -175.698676 
L 544.120271 -173.931494 
L 541.898857 -172.164312 
L 539.677443 -170.397129 
L 537.456029 -168.629947 
L 535.234615 -166.862764 
L 533.013201 -165.095582 
L 530.791787 -163.3284 
L 528.570372 -161.561217 
L 526.348958 -159.794035 
L 524.127544 -158.026853 
L 521.90613 -156.25967 
L 519.684716 -154.492488 
L 517.463302 -152.725306 
L 515.241888 -150.958123 
L 513.020473 -149.190941 
L 510.799059 -147.423759 
L 508.577645 -145.656576 
L 506.356231 -143.889394 
L 504.134817 -142.122212 
L 501.913403 -140.355029 
L 499.691989 -138.587847 
L 497.470574 -136.820665 
L 495.24916 -135.053482 
L 493.027746 -133.2863 
L 490.806332 -131.519117 
L 488.584918 -129.751935 
L 486.363504 -127.984753 
L 484.14209 -126.21757 
L 481.920676 -124.450388 
L 479.699261 -122.683206 
L 477.477847 -120.916023 
L 475.256433 -119.148841 
L 473.035019 -117.381659 
L 470.813605 -115.614476 
L 468.592191 -113.847294 
L 466.370777 -112.080112 
L 464.149362 -110.312929 
L 461.927948 -108.545747 
L 459.706534 -106.778565 
L 457.48512 -105.011382 
L 455.263706 -103.2442 
L 453.042292 -101.477018 
L 450.820878 -99.709835 
L 448.599463 -97.942653 
L 446.378049 -96.17547 
L 444.156635 -94.408288 
L 441.935221 -92.641106 
L 439.713807 -90.873923 
L 437.492393 -89.106741 
L 435.270979 -87.339559 
L 433.049564 -85.572376 
L 430.82815 -83.805194 
L 428.606736 -82.038012 
L 426.385322 -80.270829 
L 424.163908 -78.503647 
L 421.942494 -76.736465 
L 419.72108 -74.969282 
L 417.499665 -73.2021 
L 415.278251 -71.434918 
L 413.056837 -69.667735 
L 410.835423 -67.900553 
L 408.614009 -66.133371 
L 406.392595 -64.366188 
L 404.171181 -62.599006 
L 401.949766 -60.831823 
L 399.728352 -59.064641 
L 397.506938 -57.297459 
L 395.285524 -55.530276 
L 393.06411 -53.763094 
L 390.842696 -51.995912 
L 388.621282 -50.228729 
L 386.399867 -48.461547 
L 384.178453 -46.694365 
L 381.957039 -44.927182 
L 379.735625 -43.16 
z
" style="stroke: #d1242f; stroke-opacity: 0.12"/>
    </defs>
    <g clip-path="url(#p842120233f)">
     <use xlink:href="#made3d21c3a" x="0" y="276.434375" style="fill: #d1242f; fill-opacity: 0.12; stroke: #d1242f; stroke-opacity: 0.12"/>
    </g>
   </g>
   <g id="line2d_58">
    <path d="M 379.735625 233.274375 
L 381.957039 231.507193 
L 384.178453 229.74001 
L 386.399867 227.972828 
L 388.621282 226.205646 
L 390.842696 224.438463 
L 393.06411 222.671281 
L 395.285524 220.904099 
L 397.506938 219.136916 
L 399.728352 217.369734 
L 401.949766 215.602552 
L 404.171181 213.835369 
L 406.392595 212.068187 
L 408.614009 210.301004 
L 410.835423 208.533822 
L 413.056837 206.76664 
L 415.278251 204.999457 
L 417.499665 203.232275 
L 419.72108 201.465093 
L 421.942494 199.69791 
L 424.163908 197.930728 
L 426.385322 196.163546 
L 428.606736 194.396363 
L 430.82815 192.629181 
L 433.049564 190.861999 
L 435.270979 189.094816 
L 437.492393 187.327634 
L 439.713807 185.560452 
L 441.935221 183.793269 
L 444.156635 182.026087 
L 446.378049 180.258905 
L 448.599463 178.491722 
L 450.820878 176.72454 
L 453.042292 174.957357 
L 455.263706 173.190175 
L 457.48512 171.422993 
L 459.706534 169.65581 
L 461.927948 167.888628 
L 464.149362 166.121446 
L 466.370777 164.354263 
L 468.592191 162.587081 
L 470.813605 160.819899 
L 473.035019 159.052716 
L 475.256433 157.285534 
L 477.477847 155.518352 
L 479.699261 153.751169 
L 481.920676 151.983987 
L 484.14209 150.216805 
L 486.363504 148.449622 
L 488.584918 146.68244 
L 490.806332 144.915258 
L 493.027746 143.148075 
L 495.24916 141.380893 
L 497.470574 139.61371 
L 499.691989 137.846528 
L 501.913403 136.079346 
L 504.134817 134.312163 
L 506.356231 132.544981 
L 508.577645 130.777799 
L 510.799059 129.010616 
L 513.020473 127.243434 
L 515.241888 125.476252 
L 517.463302 123.709069 
L 519.684716 121.941887 
L 521.90613 120.174705 
L 524.127544 118.407522 
L 526.348958 116.64034 
L 528.570372 114.873158 
L 530.791787 113.105975 
L 533.013201 111.338793 
L 535.234615 109.571611 
L 537.456029 107.804428 
L 539.677443 106.037246 
L 541.898857 104.270063 
L 544.120271 102.502881 
L 546.341686 100.735699 
L 548.5631 98.968516 
L 550.784514 97.201334 
L 553.005928 95.434152 
L 555.227342 93.666969 
L 557.448756 91.899787 
L 559.67017 90.132605 
L 561.891585 88.365422 
L 564.112999 86.59824 
L 566.334413 84.831058 
L 568.555827 83.063875 
L 570.777241 81.296693 
L 572.998655 79.529511 
L 575.220069 77.762328 
L 577.441484 75.995146 
L 579.662898 74.227964 
L 581.884312 72.460781 
L 584.105726 70.693599 
L 586.32714 68.926416 
L 588.548554 67.159234 
L 590.769968 65.392052 
L 592.991383 63.624869 
L 595.212797 61.857687 
L 597.434211 60.090505 
L 599.655625 58.323322 
" clip-path="url(#p842120233f)" style="fill: none; stroke: #d1242f; stroke-width: 2.6; stroke-linecap: square"/>
   </g>
   <g id="line2d_59">
    <path d="M 599.655625 233.274375 
L 599.655625 58.323322 
" clip-path="url(#p842120233f)" style="fill: none; stroke-dasharray: 3.7,1.6; stroke-dashoffset: 0; stroke: #222831"/>
   </g>
   <g id="patch_6">
    <path d="M 379.735625 233.274375 
L 379.735625 25.52 
" style="fill: none; stroke: #222831; stroke-width: 1.1; stroke-linejoin: miter; stroke-linecap: square"/>
   </g>
   <g id="patch_7">
    <path d="M 379.735625 233.274375 
L 654.635625 233.274375 
" style="fill: none; stroke: #222831; stroke-width: 1.1; stroke-linejoin: miter; stroke-linecap: square"/>
   </g>
   <g id="text_35">
    <!-- $W=\frac{1}{2} kx^2$ -->
    <g style="fill: #d1242f" transform="translate(460.225625 203.204663) scale(0.14 -0.14)">
     <defs>
      <path id="Cmr10-64" d="M 594 0 
L 594 225 
Q 1394 225 1394 428 
L 1394 3788 
Q 1063 3628 556 3628 
L 556 3853 
Q 1341 3853 1741 4263 
L 1831 4263 
Q 1853 4263 1873 4245 
Q 1894 4228 1894 4206 
L 1894 428 
Q 1894 225 2694 225 
L 2694 0 
L 594 0 
z
" transform="scale(0.015625)"/>
      <path id="Cmr10-31" d="M 319 0 
L 319 172 
Q 319 188 331 206 
L 1325 1306 
Q 1550 1550 1690 1715 
Q 1831 1881 1968 2097 
Q 2106 2313 2186 2536 
Q 2266 2759 2266 3009 
Q 2266 3272 2169 3511 
Q 2072 3750 1880 3894 
Q 1688 4038 1416 4038 
Q 1138 4038 916 3870 
Q 694 3703 603 3438 
Q 628 3444 672 3444 
Q 816 3444 917 3347 
Q 1019 3250 1019 3097 
Q 1019 2950 917 2848 
Q 816 2747 672 2747 
Q 522 2747 420 2851 
Q 319 2956 319 3097 
Q 319 3338 409 3548 
Q 500 3759 670 3923 
Q 841 4088 1055 4175 
Q 1269 4263 1509 4263 
Q 1875 4263 2190 4108 
Q 2506 3953 2690 3670 
Q 2875 3388 2875 3009 
Q 2875 2731 2753 2481 
Q 2631 2231 2440 2026 
Q 2250 1822 1953 1562 
Q 1656 1303 1563 1216 
L 838 519 
L 1453 519 
Q 1906 519 2211 526 
Q 2516 534 2534 550 
Q 2609 631 2688 1141 
L 2875 1141 
L 2694 0 
L 319 0 
z
" transform="scale(0.015625)"/>
     </defs>
     <use xlink:href="#Cmmi10-50" transform="translate(0 0.084203)"/>
     <use xlink:href="#Cmr10-29" transform="translate(114.384823 0.084203)"/>
     <use xlink:href="#Cmr10-64" transform="translate(218.320427 34.459203) scale(0.7)"/>
     <use xlink:href="#Cmr10-31" transform="translate(218.320427 -30.917359) scale(0.7)"/>
     <use xlink:href="#Cmmi10-3e" transform="translate(259.570427 0.084203)"/>
     <use xlink:href="#Cmmi10-3f" transform="translate(311.57238 0.084203)"/>
     <use xlink:href="#Cmr10-31" transform="translate(379.91264 41.373437) scale(0.7)"/>
     <path d="M 218.320427 21.959203 
L 218.320427 28.209203 
L 253.320427 28.209203 
L 253.320427 21.959203 
L 218.320427 21.959203 
z
"/>
    </g>
   </g>
   <g id="text_36">
    <!-- $F=kx$ -->
    <g style="fill: #d1242f" transform="translate(526.969124 66.637746) rotate(-22) scale(0.13 -0.13)">
     <use xlink:href="#Cmmi10-42" transform="translate(0 0.609375)"/>
     <use xlink:href="#Cmr10-29" transform="translate(84.306698 0.609375)"/>
     <use xlink:href="#Cmmi10-3e" transform="translate(181.992302 0.609375)"/>
     <use xlink:href="#Cmmi10-3f" transform="translate(233.994255 0.609375)"/>
    </g>
   </g>
   <g id="patch_8">
    <path d="M 481.971383 72.972573 
Q 520.591644 80.758817 558.115923 88.324099 
" style="fill: none; stroke: #222831; stroke-linecap: round"/>
    <path d="M 554.237503 85.297903 
L 558.115923 88.324099 
L 553.367915 89.611117 
" style="fill: none; stroke: #222831; stroke-linecap: round"/>
   </g>
   <g id="text_37">
    <!-- 底 $=x$，高 $=kx$ -->
    <g style="fill: #222831" transform="translate(401.727625 69.257763) scale(0.11 -0.11)">
     <defs>
      <path id="NotoSansCJKjp-Regular-4213" d="M 1446 26 
L 1446 -403 
L 4314 -403 
L 4314 26 
L 1446 26 
z
M 5139 4122 
C 4493 3930 3360 3750 2349 3648 
L 1997 3750 
L 1997 902 
L 1382 838 
L 1440 397 
C 2118 480 3078 589 3994 710 
L 3987 1133 
L 2451 954 
L 2451 2099 
L 3987 2099 
C 4179 634 4634 -358 5446 -358 
C 5869 -365 6042 -115 6112 781 
C 5990 819 5824 909 5722 998 
C 5696 358 5638 96 5478 96 
C 4973 90 4614 870 4448 2099 
L 6067 2099 
L 6067 2528 
L 4403 2528 
C 4378 2835 4358 3168 4352 3514 
C 4781 3590 5178 3680 5510 3776 
L 5139 4122 
z
M 2451 2528 
L 2451 3264 
C 2912 3309 3411 3366 3885 3437 
C 3891 3123 3910 2816 3942 2528 
L 2451 2528 
z
M 774 4730 
L 774 2880 
C 774 1952 730 646 198 -269 
C 314 -320 512 -448 595 -531 
C 1152 435 1235 1888 1235 2880 
L 1235 4294 
L 6093 4294 
L 6093 4730 
L 3635 4730 
L 3635 5376 
L 3142 5376 
L 3142 4730 
L 774 4730 
z
" transform="scale(0.015625)"/>
      <path id="NotoSansCJKjp-Regular-e6b2" d="M 1005 -685 
C 1677 -448 2112 77 2112 768 
C 2112 1216 1920 1504 1568 1504 
C 1306 1504 1082 1344 1082 1043 
C 1082 742 1299 589 1562 589 
L 1670 602 
C 1638 160 1357 -141 864 -346 
L 1005 -685 
z
" transform="scale(0.015625)"/>
      <path id="NotoSansCJKjp-Regular-b0d5" d="M 1939 3635 
L 4448 3635 
L 4448 3021 
L 1939 3021 
L 1939 3635 
z
M 1478 3987 
L 1478 2662 
L 4928 2662 
L 4928 3987 
L 1478 3987 
z
M 2918 5382 
L 2918 4768 
L 416 4768 
L 416 4346 
L 5978 4346 
L 5978 4768 
L 3411 4768 
L 3411 5382 
L 2918 5382 
z
M 704 2266 
L 704 -512 
L 1171 -512 
L 1171 1856 
L 5261 1856 
L 5261 70 
C 5261 -19 5235 -45 5120 -51 
C 5018 -58 4653 -58 4237 -45 
C 4301 -179 4371 -365 4390 -499 
C 4922 -499 5267 -499 5478 -422 
C 5683 -346 5741 -205 5741 64 
L 5741 2266 
L 704 2266 
z
M 2406 1088 
L 3994 1088 
L 3994 435 
L 2406 435 
L 2406 1088 
z
M 1984 1440 
L 1984 -243 
L 2406 -243 
L 2406 83 
L 4422 83 
L 4422 1440 
L 1984 1440 
z
" transform="scale(0.015625)"/>
     </defs>
     <use xlink:href="#NotoSansCJKjp-Regular-4213" transform="translate(0 0.90625)"/>
     <use xlink:href="#NotoSansCJKjp-Regular-1" transform="translate(99.999908 0.90625)"/>
     <use xlink:href="#Cmr10-29" transform="translate(142.399944 0.90625)"/>
     <use xlink:href="#Cmmi10-3f" transform="translate(240.085548 0.90625)"/>
     <use xlink:href="#NotoSansCJKjp-Regular-e6b2" transform="translate(297.165627 0.90625)"/>
     <use xlink:href="#NotoSansCJKjp-Regular-b0d5" transform="translate(397.165535 0.90625)"/>
     <use xlink:href="#NotoSansCJKjp-Regular-1" transform="translate(497.165443 0.90625)"/>
     <use xlink:href="#Cmr10-29" transform="translate(539.565479 0.90625)"/>
     <use xlink:href="#Cmmi10-3e" transform="translate(637.251083 0.90625)"/>
     <use xlink:href="#Cmmi10-3f" transform="translate(689.253036 0.90625)"/>
    </g>
   </g>
   <g id="text_38">
    <!-- 彈簧的彈力：三角形面積 -->
    <g style="fill: #222831" transform="translate(440.185625 19.52) scale(0.14 -0.14)">
     <defs>
      <path id="NotoSansCJKjp-Regular-7673" d="M 3686 5421 
C 3482 4941 3104 4486 2682 4186 
C 2803 4134 3002 4013 3098 3942 
C 3309 4109 3520 4326 3712 4570 
L 4192 4570 
C 4314 4416 4435 4243 4525 4090 
L 4077 4090 
L 4077 3738 
L 2317 3738 
L 2317 4090 
L 2176 4090 
C 2131 4218 2042 4397 1946 4570 
L 3117 4570 
L 3117 4902 
L 1408 4902 
C 1478 5024 1549 5152 1606 5280 
L 1152 5408 
C 954 4954 614 4499 237 4192 
C 352 4134 544 4000 627 3923 
C 819 4096 1011 4320 1190 4570 
L 1459 4570 
C 1581 4371 1696 4128 1741 3962 
L 1850 3994 
L 1850 3738 
L 474 3738 
L 474 3418 
L 1850 3418 
L 1850 2810 
L 4563 2810 
L 4563 3418 
L 5933 3418 
L 5933 3738 
L 4563 3738 
L 4563 4013 
L 4595 3949 
L 5037 4096 
C 4973 4230 4858 4403 4730 4570 
L 6112 4570 
L 6112 4902 
L 3936 4902 
C 4019 5030 4090 5171 4147 5306 
L 3686 5421 
z
M 4077 3418 
L 4077 3104 
L 2317 3104 
L 2317 3418 
L 4077 3418 
z
M 3763 51 
C 4448 -109 5133 -326 5536 -506 
L 5984 -224 
C 5549 -51 4826 160 4160 301 
L 5453 301 
L 5453 1946 
L 3418 1946 
L 3418 2234 
L 6112 2234 
L 6112 2566 
L 301 2566 
L 301 2234 
L 2963 2234 
L 2963 1946 
L 992 1946 
L 992 301 
L 2150 301 
C 1734 83 998 -77 352 -179 
C 454 -256 608 -429 672 -518 
C 1325 -384 2125 -147 2598 154 
L 2208 301 
L 4077 301 
L 3763 51 
z
M 1440 979 
L 2963 979 
L 2963 614 
L 1440 614 
L 1440 979 
z
M 3418 979 
L 4986 979 
L 4986 614 
L 3418 614 
L 3418 979 
z
M 1440 1632 
L 2963 1632 
L 2963 1280 
L 1440 1280 
L 1440 1632 
z
M 3418 1632 
L 4986 1632 
L 4986 1280 
L 3418 1280 
L 3418 1632 
z
" transform="scale(0.015625)"/>
      <path id="NotoSansCJKjp-Regular-2514" d="M 787 4755 
L 787 4269 
L 5626 4269 
L 5626 4755 
L 787 4755 
z
M 1197 2662 
L 1197 2182 
L 5126 2182 
L 5126 2662 
L 1197 2662 
z
M 416 442 
L 416 -45 
L 5978 -45 
L 5978 442 
L 416 442 
z
" transform="scale(0.015625)"/>
      <path id="NotoSansCJKjp-Regular-9248" d="M 1696 3482 
L 3110 3482 
L 3110 2630 
L 1696 2630 
L 1696 3482 
z
M 1696 3910 
L 1683 3910 
C 1888 4134 2074 4365 2234 4595 
L 3795 4595 
C 3667 4365 3501 4109 3341 3910 
L 1696 3910 
z
M 5101 3482 
L 5101 2630 
L 3571 2630 
L 3571 3482 
L 5101 3482 
z
M 2157 5395 
C 1837 4749 1222 3955 358 3373 
C 474 3302 627 3149 704 3034 
C 890 3168 1062 3309 1222 3450 
L 1222 2310 
C 1222 1498 1120 506 211 -198 
C 307 -269 480 -442 550 -544 
C 1062 -147 1357 371 1517 902 
L 5101 902 
L 5101 102 
C 5101 -19 5062 -58 4922 -64 
C 4774 -70 4275 -70 3757 -58 
C 3827 -186 3917 -390 3942 -525 
C 4595 -525 5011 -518 5254 -442 
C 5491 -365 5574 -218 5574 96 
L 5574 3910 
L 3872 3910 
C 4096 4192 4314 4518 4461 4813 
L 4134 5024 
L 4058 4998 
L 2502 4998 
L 2675 5299 
L 2157 5395 
z
M 1696 2214 
L 3110 2214 
L 3110 1325 
L 1613 1325 
C 1670 1632 1690 1933 1696 2214 
z
M 5101 2214 
L 5101 1325 
L 3571 1325 
L 3571 2214 
L 5101 2214 
z
" transform="scale(0.015625)"/>
      <path id="NotoSansCJKjp-Regular-43ac" d="M 5414 5274 
C 5018 4755 4288 4211 3674 3904 
C 3795 3814 3936 3674 4019 3565 
C 4672 3923 5389 4499 5862 5088 
L 5414 5274 
z
M 5600 3507 
C 5171 2950 4397 2374 3738 2042 
C 3859 1946 4000 1798 4083 1702 
C 4768 2080 5542 2701 6035 3328 
L 5600 3507 
z
M 5747 1779 
C 5267 979 4358 269 3405 -122 
C 3533 -224 3674 -390 3750 -506 
C 4736 -51 5651 710 6195 1600 
L 5747 1779 
z
M 2586 4531 
L 2586 2874 
L 1555 2874 
L 1555 4531 
L 2586 4531 
z
M 262 2874 
L 262 2426 
L 1094 2426 
C 1069 1472 928 531 237 -230 
C 352 -294 518 -448 595 -550 
C 1363 288 1523 1350 1549 2426 
L 2586 2426 
L 2586 -506 
L 3059 -506 
L 3059 2426 
L 3750 2426 
L 3750 2874 
L 3059 2874 
L 3059 4531 
L 3667 4531 
L 3667 4979 
L 371 4979 
L 371 4531 
L 1101 4531 
L 1101 2874 
L 262 2874 
z
" transform="scale(0.015625)"/>
     </defs>
     <use xlink:href="#NotoSansCJKjp-Regular-4379"/>
     <use xlink:href="#NotoSansCJKjp-Regular-7673" transform="translate(100 0)"/>
     <use xlink:href="#NotoSansCJKjp-Regular-6c33" transform="translate(200 0)"/>
     <use xlink:href="#NotoSansCJKjp-Regular-4379" transform="translate(300 0)"/>
     <use xlink:href="#NotoSansCJKjp-Regular-2c71" transform="translate(400 0)"/>
     <use xlink:href="#NotoSansCJKjp-Regular-e6c0" transform="translate(500 0)"/>
     <use xlink:href="#NotoSansCJKjp-Regular-2514" transform="translate(600 0)"/>
     <use xlink:href="#NotoSansCJKjp-Regular-9248" transform="translate(700 0)"/>
     <use xlink:href="#NotoSansCJKjp-Regular-43ac" transform="translate(800 0)"/>
     <use xlink:href="#NotoSansCJKjp-Regular-aaab" transform="translate(900 0)"/>
     <use xlink:href="#NotoSansCJKjp-Regular-7289" transform="translate(1000 0)"/>
    </g>
   </g>
  </g>
 </g>
 <defs>
  <clipPath id="pf90f474788">
   <rect x="47.815625" y="25.52" width="274.9" height="207.754375"/>
  </clipPath>
  <clipPath id="p842120233f">
   <rect x="379.735625" y="25.52" width="274.9" height="207.754375"/>
  </clipPath>
 </defs>
</svg>
