<?xml version="1.0" encoding="utf-8" standalone="no"?>
<!DOCTYPE svg PUBLIC "-//W3C//DTD SVG 1.1//EN"
  "http://www.w3.org/Graphics/SVG/1.1/DTD/svg11.dtd">
<svg xmlns:xlink="http://www.w3.org/1999/xlink" width="416.16pt" height="229.325957pt" viewBox="0 0 416.16 229.325957" xmlns="http://www.w3.org/2000/svg" version="1.1">
 <metadata>
  <rdf:RDF xmlns:dc="http://purl.org/dc/elements/1.1/" xmlns:cc="http://creativecommons.org/ns#" xmlns:rdf="http://www.w3.org/1999/02/22-rdf-syntax-ns#">
   <cc:Work>
    <dc:type rdf:resource="http://purl.org/dc/dcmitype/StillImage"/>
    <dc:date>2026-06-18T08:52:15.649037</dc:date>
    <dc:format>image/svg+xml</dc:format>
    <dc:creator>
     <cc:Agent>
      <dc:title>Matplotlib v3.11.0, https://matplotlib.org/</dc:title>
     </cc:Agent>
    </dc:creator>
   </cc:Work>
  </rdf:RDF>
 </metadata>
 <defs>
  <style type="text/css">*{stroke-linejoin: round; stroke-linecap: butt}</style>
 </defs>
 <g id="figure_1">
  <g id="patch_1">
   <path d="M 0 229.325957 
L 416.16 229.325957 
L 416.16 0 
L 0 0 
z
" style="fill: #ffffff"/>
  </g>
  <g id="axes_1">
   <g id="patch_2">
    <path d="M 45.666383 187.933617 
L 259.368511 187.933617 
L 105.502979 51.164255 
z
" clip-path="url(#p665cf568ce)" style="fill: #eef3fb; stroke: #222831; stroke-width: 2.2; stroke-linejoin: miter"/>
   </g>
   <g id="text_1">
    <!-- $A$ -->
    <g style="fill: #222831" transform="translate(28.449064 199.900936) scale(0.14 -0.14)">
     <defs>
      <path id="Cmmi10-5c" d="M 288 0 
Q 225 0 225 84 
Q 250 225 306 225 
Q 566 225 755 328 
Q 944 431 1081 647 
Q 1094 659 1094 659 
L 3378 4513 
Q 3428 4581 3500 4581 
L 3584 4581 
Q 3603 4581 3622 4573 
Q 3641 4566 3655 4548 
Q 3669 4531 3669 4513 
L 4056 378 
Q 4056 350 4084 294 
Q 4147 225 4563 225 
Q 4628 225 4628 141 
Q 4606 56 4592 28 
Q 4578 0 4519 0 
L 2919 0 
Q 2859 0 2859 84 
Q 2894 225 2944 225 
Q 3450 225 3481 397 
L 3384 1453 
L 1806 1453 
L 1294 594 
Q 1247 525 1247 434 
Q 1247 322 1355 273 
Q 1463 225 1594 225 
Q 1656 225 1656 141 
Q 1634 50 1621 25 
Q 1609 0 1550 0 
L 288 0 
z
M 1931 1678 
L 3359 1678 
L 3169 3750 
L 1931 1678 
z
" transform="scale(0.015625)"/>
     </defs>
     <use xlink:href="#Cmmi10-5c" transform="translate(0 0.421875)"/>
    </g>
   </g>
   <g id="text_2">
    <!-- $B$ -->
    <g style="fill: #222831" transform="translate(263.451404 199.900936) scale(0.14 -0.14)">
     <defs>
      <path id="Cmmi10-34" d="M 319 0 
Q 256 0 256 84 
Q 259 100 268 137 
Q 278 175 293 200 
Q 309 225 341 225 
Q 522 225 656 234 
Q 791 244 884 269 
Q 959 297 1006 441 
L 1881 3956 
Q 1894 4019 1894 4044 
Q 1894 4113 1819 4122 
Q 1697 4147 1356 4147 
Q 1294 4147 1294 4231 
Q 1297 4247 1306 4286 
Q 1316 4325 1333 4348 
Q 1350 4372 1375 4372 
L 3669 4372 
Q 3878 4372 4083 4320 
Q 4288 4269 4461 4156 
Q 4634 4044 4736 3876 
Q 4838 3709 4838 3488 
Q 4838 3247 4714 3040 
Q 4591 2834 4395 2681 
Q 4200 2528 3973 2429 
Q 3747 2331 3500 2284 
Q 3675 2284 3854 2215 
Q 4034 2147 4175 2028 
Q 4316 1909 4402 1743 
Q 4488 1578 4488 1388 
Q 4488 1003 4219 684 
Q 3950 366 3542 183 
Q 3134 0 2753 0 
L 319 0 
z
M 1497 275 
Q 1497 225 1716 225 
L 2631 225 
Q 2944 225 3231 398 
Q 3519 572 3692 859 
Q 3866 1147 3866 1459 
Q 3866 1650 3786 1820 
Q 3706 1991 3556 2089 
Q 3406 2188 3213 2188 
L 1966 2188 
L 1522 416 
Q 1497 328 1497 275 
z
M 2009 2356 
L 2981 2356 
Q 3288 2356 3577 2512 
Q 3866 2669 4048 2937 
Q 4231 3206 4231 3506 
Q 4231 3784 4057 3965 
Q 3884 4147 3609 4147 
L 2731 4147 
Q 2559 4147 2500 4115 
Q 2441 4084 2400 3928 
L 2009 2356 
z
" transform="scale(0.015625)"/>
     </defs>
     <use xlink:href="#Cmmi10-34" transform="translate(0 0.6875)"/>
    </g>
   </g>
   <g id="text_3">
    <!-- $C$ -->
    <g style="fill: #222831" transform="translate(100.462979 40.051745) scale(0.14 -0.14)">
     <defs>
      <path id="Cmmi10-67" d="M 934 1381 
Q 934 997 1082 705 
Q 1231 413 1514 248 
Q 1797 84 2181 84 
Q 2584 84 2957 290 
Q 3331 497 3595 842 
Q 3859 1188 3956 1575 
Q 3969 1613 4006 1613 
L 4084 1613 
Q 4109 1613 4125 1595 
Q 4141 1578 4141 1556 
Q 4141 1550 4134 1538 
Q 4025 1094 3711 705 
Q 3397 316 2959 87 
Q 2522 -141 2059 -141 
Q 1559 -141 1162 84 
Q 766 309 545 709 
Q 325 1109 325 1613 
Q 325 2150 565 2676 
Q 806 3203 1212 3614 
Q 1619 4025 2139 4269 
Q 2659 4513 3194 4513 
Q 3406 4513 3600 4448 
Q 3794 4384 3959 4253 
Q 4125 4122 4231 3950 
L 4738 4500 
Q 4738 4513 4769 4513 
L 4806 4513 
Q 4831 4513 4847 4491 
Q 4863 4469 4863 4447 
L 4428 2719 
Q 4428 2675 4378 2675 
L 4263 2675 
Q 4213 2675 4213 2747 
Q 4238 2888 4238 3084 
Q 4238 3397 4131 3673 
Q 4025 3950 3801 4119 
Q 3578 4288 3256 4288 
Q 2734 4288 2300 4025 
Q 1866 3763 1564 3336 
Q 1263 2909 1098 2389 
Q 934 1869 934 1381 
z
" transform="scale(0.015625)"/>
     </defs>
     <use xlink:href="#Cmmi10-67" transform="translate(0 0.484375)"/>
    </g>
   </g>
   <g id="text_4">
    <!-- $a$ -->
    <g style="fill: #d1242f" transform="translate(195.257872 114.420085) scale(0.14 -0.14)">
     <defs>
      <path id="Cmmi10-79" d="M 1113 -72 
Q 709 -72 476 233 
Q 244 538 244 953 
Q 244 1363 456 1803 
Q 669 2244 1030 2536 
Q 1391 2828 1806 2828 
Q 1997 2828 2147 2725 
Q 2297 2622 2381 2444 
Q 2453 2700 2663 2700 
Q 2744 2700 2798 2651 
Q 2853 2603 2853 2522 
Q 2853 2503 2851 2493 
Q 2850 2484 2847 2472 
L 2400 684 
Q 2356 494 2356 372 
Q 2356 97 2541 97 
Q 2741 97 2845 351 
Q 2950 606 3022 941 
Q 3034 978 3072 978 
L 3150 978 
Q 3175 978 3190 956 
Q 3206 934 3206 916 
Q 3094 469 2961 198 
Q 2828 -72 2528 -72 
Q 2313 -72 2147 54 
Q 1981 181 1941 391 
Q 1528 -72 1113 -72 
z
M 1119 97 
Q 1350 97 1567 270 
Q 1784 444 1941 678 
Q 1947 684 1947 697 
L 2291 2088 
L 2297 2106 
Q 2259 2334 2132 2498 
Q 2006 2663 1791 2663 
Q 1575 2663 1389 2486 
Q 1203 2309 1075 2069 
Q 950 1813 836 1366 
Q 722 919 722 672 
Q 722 450 817 273 
Q 913 97 1119 97 
z
" transform="scale(0.015625)"/>
     </defs>
     <use xlink:href="#Cmmi10-79" transform="translate(0 0.8125)"/>
    </g>
   </g>
   <g id="text_5">
    <!-- $b$ -->
    <g style="fill: #1f6feb" transform="translate(62.762553 117.411915) scale(0.14 -0.14)">
     <defs>
      <path id="Cmmi10-4b" d="M 1106 -72 
Q 719 -72 503 231 
Q 288 534 288 941 
Q 288 1000 317 1173 
Q 347 1347 347 1388 
L 966 3872 
Q 991 3981 997 4044 
Q 997 4147 581 4147 
Q 519 4147 519 4231 
Q 522 4247 533 4287 
Q 544 4328 561 4350 
Q 578 4372 609 4372 
L 1472 4441 
Q 1550 4441 1550 4359 
L 1075 2472 
Q 1438 2828 1806 2828 
Q 2078 2828 2273 2684 
Q 2469 2541 2566 2306 
Q 2663 2072 2663 1806 
Q 2663 1497 2542 1167 
Q 2422 838 2209 555 
Q 1997 272 1712 100 
Q 1428 -72 1106 -72 
z
M 1119 97 
Q 1338 97 1528 280 
Q 1719 463 1838 691 
Q 1966 947 2077 1386 
Q 2188 1825 2188 2088 
Q 2188 2316 2092 2489 
Q 1997 2663 1791 2663 
Q 1559 2663 1348 2492 
Q 1138 2322 978 2088 
L 800 1363 
Q 697 959 691 716 
Q 691 475 795 286 
Q 900 97 1119 97 
z
" transform="scale(0.015625)"/>
     </defs>
     <use xlink:href="#Cmmi10-4b" transform="translate(0 0.609375)"/>
    </g>
   </g>
   <g id="text_6">
    <!-- $c$ -->
    <g style="fill: #1a7f37" transform="translate(152.517447 203.32017) scale(0.14 -0.14)">
     <defs>
      <path id="Cmmi10-7f" d="M 750 763 
Q 750 484 892 290 
Q 1034 97 1300 97 
Q 1681 97 2032 272 
Q 2384 447 2606 756 
Q 2625 775 2656 775 
Q 2688 775 2720 739 
Q 2753 703 2753 672 
Q 2753 647 2741 634 
Q 2506 306 2109 117 
Q 1713 -72 1288 -72 
Q 981 -72 747 73 
Q 513 219 384 462 
Q 256 706 256 1013 
Q 256 1444 497 1869 
Q 738 2294 1138 2561 
Q 1538 2828 1978 2828 
Q 2266 2828 2495 2689 
Q 2725 2550 2725 2278 
Q 2725 2103 2623 1979 
Q 2522 1856 2350 1856 
Q 2247 1856 2176 1920 
Q 2106 1984 2106 2088 
Q 2106 2238 2215 2344 
Q 2325 2450 2472 2450 
L 2484 2450 
Q 2409 2559 2267 2611 
Q 2125 2663 1972 2663 
Q 1597 2663 1315 2342 
Q 1034 2022 892 1576 
Q 750 1131 750 763 
z
" transform="scale(0.015625)"/>
     </defs>
     <use xlink:href="#Cmmi10-7f" transform="translate(0 0.8125)"/>
    </g>
   </g>
   <g id="line2d_1">
    <path d="M 105.502979 51.164255 
L 105.502979 187.933617 
" clip-path="url(#p665cf568ce)" style="fill: none; stroke-dasharray: 6.66,2.88; stroke-dashoffset: 0; stroke: #bf8700; stroke-width: 1.8"/>
   </g>
   <g id="text_7">
    <!-- $h$ -->
    <g style="fill: #bf8700" transform="translate(112.341447 123.822979) scale(0.13 -0.13)">
     <defs>
      <path id="Cmmi10-5f" d="M 341 116 
Q 341 153 347 172 
L 1275 3872 
Q 1300 3981 1306 4044 
Q 1306 4147 891 4147 
Q 825 4147 825 4231 
Q 828 4247 839 4287 
Q 850 4328 867 4350 
Q 884 4372 916 4372 
L 1778 4441 
L 1797 4441 
Q 1797 4434 1819 4423 
Q 1841 4413 1844 4409 
Q 1856 4378 1856 4359 
L 1356 2363 
Q 1750 2828 2291 2828 
Q 2516 2828 2680 2750 
Q 2844 2672 2936 2514 
Q 3028 2356 3028 2138 
Q 3028 1875 2911 1503 
Q 2794 1131 2619 672 
Q 2528 463 2528 288 
Q 2528 97 2675 97 
Q 2925 97 3092 364 
Q 3259 631 3328 941 
Q 3341 978 3378 978 
L 3456 978 
Q 3481 978 3497 961 
Q 3513 944 3513 922 
Q 3513 916 3506 903 
Q 3450 672 3339 448 
Q 3228 225 3059 76 
Q 2891 -72 2663 -72 
Q 2438 -72 2278 83 
Q 2119 238 2119 459 
Q 2119 578 2169 709 
Q 2350 1191 2470 1569 
Q 2591 1947 2591 2234 
Q 2591 2419 2519 2541 
Q 2447 2663 2278 2663 
Q 1934 2663 1678 2452 
Q 1422 2241 1234 1894 
L 800 147 
Q 775 50 703 -11 
Q 631 -72 538 -72 
Q 456 -72 398 -17 
Q 341 38 341 116 
z
" transform="scale(0.015625)"/>
     </defs>
     <use xlink:href="#Cmmi10-5f" transform="translate(0 0.609375)"/>
    </g>
   </g>
   <g id="text_8">
    <g id="patch_3">
     <path d="M 263.442128 89.985532 
L 379.242128 89.985532 
Q 382.842128 89.985532 382.842128 86.385532 
L 382.842128 71.505532 
Q 382.842128 67.905532 379.242128 67.905532 
L 263.442128 67.905532 
Q 259.842128 67.905532 259.842128 71.505532 
L 259.842128 86.385532 
Q 259.842128 89.985532 263.442128 89.985532 
z
" style="fill: #ffffff; stroke: #1f6feb; stroke-width: 1.2; stroke-linejoin: miter"/>
    </g>
    <!-- $\frac{a}{\sin A}=\frac{b}{\sin B}=\frac{c}{\sin C}=2R$ -->
    <g style="fill: #222831" transform="translate(263.442128 82.065532) scale(0.12 -0.12)">
     <defs>
      <path id="Cmr10-52" d="M 213 -19 
L 213 1025 
Q 213 1075 269 1075 
L 347 1075 
Q 384 1075 397 1025 
Q 575 97 1259 97 
Q 1563 97 1767 234 
Q 1972 372 1972 659 
Q 1972 866 1812 1011 
Q 1653 1156 1434 1209 
L 1006 1294 
Q 791 1341 614 1437 
Q 438 1534 325 1695 
Q 213 1856 213 2069 
Q 213 2350 361 2529 
Q 509 2709 746 2789 
Q 984 2869 1259 2869 
Q 1588 2869 1831 2694 
L 2016 2853 
Q 2016 2869 2047 2869 
L 2094 2869 
Q 2113 2869 2128 2851 
Q 2144 2834 2144 2816 
L 2144 1978 
Q 2144 1919 2094 1919 
L 2016 1919 
Q 1959 1919 1959 1978 
Q 1959 2313 1773 2516 
Q 1588 2719 1253 2719 
Q 966 2719 755 2612 
Q 544 2506 544 2247 
Q 544 2069 695 1955 
Q 847 1841 1050 1791 
L 1484 1709 
Q 1703 1659 1892 1540 
Q 2081 1422 2192 1240 
Q 2303 1059 2303 831 
Q 2303 600 2223 429 
Q 2144 259 2001 146 
Q 1859 34 1665 -19 
Q 1472 -72 1259 -72 
Q 859 -72 575 197 
L 341 -56 
Q 341 -72 306 -72 
L 269 -72 
Q 213 -72 213 -19 
z
" transform="scale(0.015625)"/>
      <path id="Cmr10-24" d="M 197 0 
L 197 225 
Q 416 225 556 259 
Q 697 294 697 428 
L 697 2175 
Q 697 2422 601 2478 
Q 506 2534 225 2534 
L 225 2759 
L 1147 2828 
L 1147 428 
Q 1147 294 1269 259 
Q 1391 225 1594 225 
L 1594 0 
L 197 0 
z
M 469 3928 
Q 469 4069 575 4175 
Q 681 4281 819 4281 
Q 909 4281 993 4234 
Q 1078 4188 1125 4103 
Q 1172 4019 1172 3928 
Q 1172 3791 1065 3684 
Q 959 3578 819 3578 
Q 681 3578 575 3684 
Q 469 3791 469 3928 
z
" transform="scale(0.015625)"/>
      <path id="Cmr10-74" d="M 191 0 
L 191 225 
Q 409 225 550 259 
Q 691 294 691 428 
L 691 2175 
Q 691 2347 639 2423 
Q 588 2500 491 2517 
Q 394 2534 191 2534 
L 191 2759 
L 1119 2828 
L 1119 2203 
Q 1247 2478 1498 2653 
Q 1750 2828 2047 2828 
Q 2491 2828 2714 2615 
Q 2938 2403 2938 1966 
L 2938 428 
Q 2938 294 3078 259 
Q 3219 225 3438 225 
L 3438 0 
L 1972 0 
L 1972 225 
Q 2191 225 2331 259 
Q 2472 294 2472 428 
L 2472 1947 
Q 2472 2259 2381 2461 
Q 2291 2663 2009 2663 
Q 1638 2663 1398 2366 
Q 1159 2069 1159 1691 
L 1159 428 
Q 1159 294 1300 259 
Q 1441 225 1656 225 
L 1656 0 
L 191 0 
z
" transform="scale(0.015625)"/>
      <path id="Cmr10-29" d="M 481 850 
Q 428 850 393 890 
Q 359 931 359 978 
Q 359 1031 393 1068 
Q 428 1106 481 1106 
L 4500 1106 
Q 4547 1106 4581 1068 
Q 4616 1031 4616 978 
Q 4616 931 4581 890 
Q 4547 850 4500 850 
L 481 850 
z
M 481 2094 
Q 428 2094 393 2131 
Q 359 2169 359 2222 
Q 359 2269 393 2309 
Q 428 2350 481 2350 
L 4500 2350 
Q 4547 2350 4581 2309 
Q 4616 2269 4616 2222 
Q 4616 2169 4581 2131 
Q 4547 2094 4500 2094 
L 481 2094 
z
" transform="scale(0.015625)"/>
      <path id="Cmr10-31" d="M 319 0 
L 319 172 
Q 319 188 331 206 
L 1325 1306 
Q 1550 1550 1690 1715 
Q 1831 1881 1968 2097 
Q 2106 2313 2186 2536 
Q 2266 2759 2266 3009 
Q 2266 3272 2169 3511 
Q 2072 3750 1880 3894 
Q 1688 4038 1416 4038 
Q 1138 4038 916 3870 
Q 694 3703 603 3438 
Q 628 3444 672 3444 
Q 816 3444 917 3347 
Q 1019 3250 1019 3097 
Q 1019 2950 917 2848 
Q 816 2747 672 2747 
Q 522 2747 420 2851 
Q 319 2956 319 3097 
Q 319 3338 409 3548 
Q 500 3759 670 3923 
Q 841 4088 1055 4175 
Q 1269 4263 1509 4263 
Q 1875 4263 2190 4108 
Q 2506 3953 2690 3670 
Q 2875 3388 2875 3009 
Q 2875 2731 2753 2481 
Q 2631 2231 2440 2026 
Q 2250 1822 1953 1562 
Q 1656 1303 1563 1216 
L 838 519 
L 1453 519 
Q 1906 519 2211 526 
Q 2516 534 2534 550 
Q 2609 631 2688 1141 
L 2875 1141 
L 2694 0 
L 319 0 
z
" transform="scale(0.015625)"/>
      <path id="Cmmi10-70" d="M 313 0 
Q 250 0 250 84 
Q 253 100 262 139 
Q 272 178 289 201 
Q 306 225 331 225 
Q 722 225 878 269 
Q 959 297 997 441 
L 1875 3956 
Q 1888 4019 1888 4044 
Q 1888 4113 1813 4122 
Q 1691 4147 1350 4147 
Q 1288 4147 1288 4231 
Q 1291 4247 1300 4286 
Q 1309 4325 1326 4348 
Q 1344 4372 1369 4372 
L 3309 4372 
Q 3541 4372 3791 4319 
Q 4041 4266 4250 4152 
Q 4459 4038 4593 3848 
Q 4728 3659 4728 3406 
Q 4728 3084 4515 2831 
Q 4303 2578 3978 2408 
Q 3653 2238 3347 2169 
Q 3597 2078 3756 1879 
Q 3916 1681 3916 1422 
Q 3916 1388 3914 1370 
Q 3913 1353 3909 1331 
L 3859 763 
Q 3853 638 3847 550 
Q 3841 463 3841 409 
Q 3841 234 3892 129 
Q 3944 25 4097 25 
Q 4297 25 4448 211 
Q 4600 397 4647 616 
Q 4675 672 4709 672 
L 4769 672 
Q 4831 672 4831 588 
Q 4784 403 4682 237 
Q 4581 72 4426 -34 
Q 4272 -141 4091 -141 
Q 3716 -141 3452 26 
Q 3188 194 3188 550 
Q 3188 684 3213 788 
L 3353 1356 
Q 3378 1434 3378 1538 
Q 3378 1803 3198 1954 
Q 3019 2106 2747 2106 
L 1959 2106 
L 1538 416 
Q 1522 363 1522 325 
Q 1522 259 1600 250 
Q 1722 225 2059 225 
Q 2125 225 2125 141 
Q 2103 50 2090 25 
Q 2078 0 2016 0 
L 313 0 
z
M 1997 2272 
L 2706 2272 
Q 3403 2272 3756 2625 
Q 3919 2788 4014 3039 
Q 4109 3291 4109 3541 
Q 4109 3778 3970 3912 
Q 3831 4047 3626 4097 
Q 3422 4147 3175 4147 
L 2747 4147 
Q 2572 4147 2515 4117 
Q 2459 4088 2413 3928 
L 1997 2272 
z
" transform="scale(0.015625)"/>
     </defs>
     <use xlink:href="#Cmmi10-79" transform="translate(63.25 35.426562) scale(0.7)"/>
     <use xlink:href="#Cmr10-52" transform="translate(6.25 -34.215625) scale(0.7)"/>
     <use xlink:href="#Cmr10-24" transform="translate(33.833008 -34.215625) scale(0.7)"/>
     <use xlink:href="#Cmr10-74" transform="translate(53.212891 -34.215625) scale(0.7)"/>
     <use xlink:href="#Cmmi10-5c" transform="translate(103.742129 -34.215625) scale(0.7)"/>
     <use xlink:href="#Cmr10-29" transform="translate(182.492186 0.264062)"/>
     <use xlink:href="#Cmmi10-4b" transform="translate(346.42779 35.426563) scale(0.7)"/>
     <use xlink:href="#Cmr10-52" transform="translate(286.42779 -31.929688) scale(0.7)"/>
     <use xlink:href="#Cmr10-24" transform="translate(314.010798 -31.929688) scale(0.7)"/>
     <use xlink:href="#Cmr10-74" transform="translate(333.390681 -31.929688) scale(0.7)"/>
     <use xlink:href="#Cmmi10-34" transform="translate(383.919919 -31.929688) scale(0.7)"/>
     <use xlink:href="#Cmr10-29" transform="translate(463.216851 0.264062)"/>
     <use xlink:href="#Cmmi10-7f" transform="translate(626.152455 35.426562) scale(0.7)"/>
     <use xlink:href="#Cmr10-52" transform="translate(567.152455 -33.471875) scale(0.7)"/>
     <use xlink:href="#Cmr10-24" transform="translate(594.735463 -33.471875) scale(0.7)"/>
     <use xlink:href="#Cmr10-74" transform="translate(614.115346 -33.471875) scale(0.7)"/>
     <use xlink:href="#Cmmi10-67" transform="translate(664.644584 -33.471875) scale(0.7)"/>
     <use xlink:href="#Cmr10-29" transform="translate(740.865344 0.264062)"/>
     <use xlink:href="#Cmr10-31" transform="translate(838.550948 0.264062)"/>
     <use xlink:href="#Cmmi10-70" transform="translate(888.550948 0.264062)"/>
     <path d="M 6.25 22.139062 
L 6.25 28.389062 
L 156.242129 28.389062 
L 156.242129 22.139062 
L 6.25 22.139062 
z
"/>
     <path d="M 286.42779 22.139063 
L 286.42779 28.389063 
L 436.966794 28.389063 
L 436.966794 22.139063 
L 286.42779 22.139063 
z
"/>
     <path d="M 567.152455 22.139062 
L 567.152455 28.389062 
L 714.615287 28.389062 
L 714.615287 22.139062 
L 567.152455 22.139062 
z
"/>
    </g>
   </g>
   <g id="text_9">
    <g id="patch_4">
     <path d="M 260.082128 135.56 
L 382.602128 135.56 
Q 386.202128 135.56 386.202128 131.96 
L 386.202128 119.96 
Q 386.202128 116.36 382.602128 116.36 
L 260.082128 116.36 
Q 256.482128 116.36 256.482128 119.96 
L 256.482128 131.96 
Q 256.482128 135.56 260.082128 135.56 
z
" style="fill: #ffffff; stroke: #d1242f; stroke-width: 1.2; stroke-linejoin: miter"/>
    </g>
    <!-- $c^2=a^2+b^2-2ab\cos C$ -->
    <g style="fill: #222831" transform="translate(260.082128 130.52) scale(0.12 -0.12)">
     <defs>
      <path id="Cmr10-4c" d="M 481 1472 
Q 428 1472 393 1512 
Q 359 1553 359 1600 
Q 359 1647 393 1687 
Q 428 1728 481 1728 
L 2363 1728 
L 2363 3616 
Q 2363 3666 2400 3698 
Q 2438 3731 2491 3731 
Q 2538 3731 2578 3698 
Q 2619 3666 2619 3616 
L 2619 1728 
L 4500 1728 
Q 4547 1728 4581 1687 
Q 4616 1647 4616 1600 
Q 4616 1553 4581 1512 
Q 4547 1472 4500 1472 
L 2619 1472 
L 2619 -416 
Q 2619 -466 2578 -498 
Q 2538 -531 2491 -531 
Q 2438 -531 2400 -498 
Q 2363 -466 2363 -416 
L 2363 1472 
L 481 1472 
z
" transform="scale(0.015625)"/>
      <path id="Cmsy10-11" d="M 653 1472 
Q 600 1472 565 1512 
Q 531 1553 531 1600 
Q 531 1647 565 1687 
Q 600 1728 653 1728 
L 4325 1728 
Q 4375 1728 4408 1687 
Q 4441 1647 4441 1600 
Q 4441 1553 4408 1512 
Q 4375 1472 4325 1472 
L 653 1472 
z
" transform="scale(0.015625)"/>
      <path id="Cmr10-7b" d="M 1594 -72 
Q 1206 -72 890 129 
Q 575 331 394 667 
Q 213 1003 213 1381 
Q 213 1759 392 2106 
Q 572 2453 889 2661 
Q 1206 2869 1594 2869 
Q 1969 2869 2276 2722 
Q 2584 2575 2584 2241 
Q 2584 2116 2495 2023 
Q 2406 1931 2278 1931 
Q 2150 1931 2061 2023 
Q 1972 2116 1972 2241 
Q 1972 2353 2044 2436 
Q 2116 2519 2222 2541 
Q 2000 2681 1600 2681 
Q 1294 2681 1106 2478 
Q 919 2275 844 1975 
Q 769 1675 769 1381 
Q 769 1072 861 783 
Q 953 494 1158 305 
Q 1363 116 1672 116 
Q 1975 116 2187 302 
Q 2400 488 2478 788 
Q 2478 825 2528 825 
L 2606 825 
Q 2625 825 2640 808 
Q 2656 791 2656 769 
L 2656 750 
Q 2559 372 2271 150 
Q 1984 -72 1594 -72 
z
" transform="scale(0.015625)"/>
      <path id="Cmr10-42" d="M 1600 -72 
Q 1216 -72 887 123 
Q 559 319 368 647 
Q 178 975 178 1363 
Q 178 1656 283 1928 
Q 388 2200 583 2414 
Q 778 2628 1037 2748 
Q 1297 2869 1600 2869 
Q 1994 2869 2317 2661 
Q 2641 2453 2828 2104 
Q 3016 1756 3016 1363 
Q 3016 978 2825 648 
Q 2634 319 2307 123 
Q 1981 -72 1600 -72 
z
M 1600 116 
Q 2113 116 2284 487 
Q 2456 859 2456 1434 
Q 2456 1756 2422 1967 
Q 2388 2178 2272 2350 
Q 2200 2456 2089 2536 
Q 1978 2616 1854 2658 
Q 1731 2700 1600 2700 
Q 1400 2700 1220 2609 
Q 1041 2519 922 2350 
Q 803 2169 770 1951 
Q 738 1734 738 1434 
Q 738 1075 800 789 
Q 863 503 1052 309 
Q 1241 116 1600 116 
z
" transform="scale(0.015625)"/>
     </defs>
     <use xlink:href="#Cmmi10-7f" transform="translate(0 0.084203)"/>
     <use xlink:href="#Cmr10-31" transform="translate(54.473072 41.373437) scale(0.7)"/>
     <use xlink:href="#Cmr10-29" transform="translate(115.193545 0.084203)"/>
     <use xlink:href="#Cmmi10-79" transform="translate(212.879149 0.084203)"/>
     <use xlink:href="#Cmr10-31" transform="translate(276.922534 41.373437) scale(0.7)"/>
     <use xlink:href="#Cmr10-4c" transform="translate(337.643007 0.084203)"/>
     <use xlink:href="#Cmmi10-4b" transform="translate(435.328611 0.084203)"/>
     <use xlink:href="#Cmr10-31" transform="translate(494.801371 41.373437) scale(0.7)"/>
     <use xlink:href="#Cmsy10-11" transform="translate(555.521844 0.084203)"/>
     <use xlink:href="#Cmr10-31" transform="translate(653.207448 0.084203)"/>
     <use xlink:href="#Cmmi10-79" transform="translate(703.207448 0.084203)"/>
     <use xlink:href="#Cmmi10-4b" transform="translate(755.990651 0.084203)"/>
     <use xlink:href="#Cmr10-7b" transform="translate(798.910573 0.084203)"/>
     <use xlink:href="#Cmr10-42" transform="translate(843.295338 0.084203)"/>
     <use xlink:href="#Cmr10-52" transform="translate(893.295338 0.084203)"/>
     <use xlink:href="#Cmmi10-67" transform="translate(949.366683 0.084203)"/>
    </g>
   </g>
   <g id="text_10">
    <!-- 解三角形：正弦定理與餘弦定理 -->
    <g style="fill: #222831" transform="translate(110.08 19.52) scale(0.14 -0.14)">
     <defs>
      <path id="NotoSansCJKjp-Regular-926e" d="M 1677 3379 
L 1677 2662 
L 1101 2662 
L 1101 3379 
L 1677 3379 
z
M 2029 3379 
L 2605 3379 
L 2605 2662 
L 2029 2662 
L 2029 3379 
z
M 1037 3750 
C 1152 3962 1261 4186 1357 4422 
L 2067 4422 
C 1984 4192 1875 3942 1779 3750 
L 1037 3750 
z
M 1210 5382 
C 1011 4595 659 3834 205 3341 
C 307 3277 493 3130 563 3053 
L 698 3219 
L 698 2048 
C 698 1325 653 371 218 -307 
C 314 -346 493 -454 563 -525 
C 864 -58 1005 576 1062 1171 
L 2605 1171 
L 2605 19 
C 2605 -70 2573 -96 2483 -96 
C 2400 -102 2106 -102 1779 -96 
C 1837 -205 1907 -390 1926 -506 
C 2374 -506 2630 -499 2797 -429 
C 2957 -352 3014 -218 3014 13 
L 3014 3219 
C 3110 3142 3219 2995 3270 2906 
C 4070 3258 4384 3885 4518 4646 
L 5536 4646 
C 5498 3898 5446 3597 5376 3514 
C 5331 3462 5280 3456 5184 3456 
C 5101 3456 4864 3462 4608 3482 
C 4672 3373 4710 3206 4723 3085 
C 4986 3066 5254 3066 5389 3078 
C 5549 3091 5651 3136 5734 3238 
C 5875 3392 5933 3802 5978 4870 
C 5984 4934 5990 5050 5990 5050 
L 3200 5050 
L 3200 4646 
L 4070 4646 
C 3955 4045 3699 3526 3014 3238 
L 3014 3750 
L 2202 3750 
C 2355 4026 2509 4352 2611 4646 
L 2330 4826 
L 2259 4806 
L 1504 4806 
C 1555 4966 1606 5126 1651 5286 
L 1210 5382 
z
M 1677 2298 
L 1677 1555 
L 1088 1555 
L 1101 2048 
L 1101 2298 
L 1677 2298 
z
M 2029 2298 
L 2605 2298 
L 2605 1555 
L 2029 1555 
L 2029 2298 
z
M 3642 2944 
C 3533 2406 3334 1869 3053 1504 
C 3162 1459 3347 1363 3430 1306 
C 3552 1478 3661 1690 3763 1926 
L 4480 1926 
L 4480 1152 
L 3123 1152 
L 3123 723 
L 4480 723 
L 4480 -486 
L 4934 -486 
L 4934 723 
L 6163 723 
L 6163 1152 
L 4934 1152 
L 4934 1926 
L 6048 1926 
L 6048 2349 
L 4934 2349 
L 4934 3002 
L 4480 3002 
L 4480 2349 
L 3917 2349 
C 3968 2515 4019 2694 4058 2867 
L 3642 2944 
z
" transform="scale(0.015625)"/>
      <path id="NotoSansCJKjp-Regular-2514" d="M 787 4755 
L 787 4269 
L 5626 4269 
L 5626 4755 
L 787 4755 
z
M 1197 2662 
L 1197 2182 
L 5126 2182 
L 5126 2662 
L 1197 2662 
z
M 416 442 
L 416 -45 
L 5978 -45 
L 5978 442 
L 416 442 
z
" transform="scale(0.015625)"/>
      <path id="NotoSansCJKjp-Regular-9248" d="M 1696 3482 
L 3110 3482 
L 3110 2630 
L 1696 2630 
L 1696 3482 
z
M 1696 3910 
L 1683 3910 
C 1888 4134 2074 4365 2234 4595 
L 3795 4595 
C 3667 4365 3501 4109 3341 3910 
L 1696 3910 
z
M 5101 3482 
L 5101 2630 
L 3571 2630 
L 3571 3482 
L 5101 3482 
z
M 2157 5395 
C 1837 4749 1222 3955 358 3373 
C 474 3302 627 3149 704 3034 
C 890 3168 1062 3309 1222 3450 
L 1222 2310 
C 1222 1498 1120 506 211 -198 
C 307 -269 480 -442 550 -544 
C 1062 -147 1357 371 1517 902 
L 5101 902 
L 5101 102 
C 5101 -19 5062 -58 4922 -64 
C 4774 -70 4275 -70 3757 -58 
C 3827 -186 3917 -390 3942 -525 
C 4595 -525 5011 -518 5254 -442 
C 5491 -365 5574 -218 5574 96 
L 5574 3910 
L 3872 3910 
C 4096 4192 4314 4518 4461 4813 
L 4134 5024 
L 4058 4998 
L 2502 4998 
L 2675 5299 
L 2157 5395 
z
M 1696 2214 
L 3110 2214 
L 3110 1325 
L 1613 1325 
C 1670 1632 1690 1933 1696 2214 
z
M 5101 2214 
L 5101 1325 
L 3571 1325 
L 3571 2214 
L 5101 2214 
z
" transform="scale(0.015625)"/>
      <path id="NotoSansCJKjp-Regular-43ac" d="M 5414 5274 
C 5018 4755 4288 4211 3674 3904 
C 3795 3814 3936 3674 4019 3565 
C 4672 3923 5389 4499 5862 5088 
L 5414 5274 
z
M 5600 3507 
C 5171 2950 4397 2374 3738 2042 
C 3859 1946 4000 1798 4083 1702 
C 4768 2080 5542 2701 6035 3328 
L 5600 3507 
z
M 5747 1779 
C 5267 979 4358 269 3405 -122 
C 3533 -224 3674 -390 3750 -506 
C 4736 -51 5651 710 6195 1600 
L 5747 1779 
z
M 2586 4531 
L 2586 2874 
L 1555 2874 
L 1555 4531 
L 2586 4531 
z
M 262 2874 
L 262 2426 
L 1094 2426 
C 1069 1472 928 531 237 -230 
C 352 -294 518 -448 595 -550 
C 1363 288 1523 1350 1549 2426 
L 2586 2426 
L 2586 -506 
L 3059 -506 
L 3059 2426 
L 3750 2426 
L 3750 2874 
L 3059 2874 
L 3059 4531 
L 3667 4531 
L 3667 4979 
L 371 4979 
L 371 4531 
L 1101 4531 
L 1101 2874 
L 262 2874 
z
" transform="scale(0.015625)"/>
      <path id="NotoSansCJKjp-Regular-e6c0" d="M 3200 3482 
C 3456 3482 3686 3667 3686 3962 
C 3686 4256 3456 4442 3200 4442 
C 2944 4442 2714 4256 2714 3962 
C 2714 3667 2944 3482 3200 3482 
z
M 3200 346 
C 3456 346 3686 538 3686 826 
C 3686 1120 3456 1312 3200 1312 
C 2944 1312 2714 1120 2714 826 
C 2714 538 2944 346 3200 346 
z
" transform="scale(0.015625)"/>
      <path id="NotoSansCJKjp-Regular-585c" d="M 1203 3264 
L 1203 243 
L 333 243 
L 333 -224 
L 6080 -224 
L 6080 243 
L 3616 243 
L 3616 2259 
L 5619 2259 
L 5619 2726 
L 3616 2726 
L 3616 4435 
L 5869 4435 
L 5869 4909 
L 576 4909 
L 576 4435 
L 3110 4435 
L 3110 243 
L 1696 243 
L 1696 3264 
L 1203 3264 
z
" transform="scale(0.015625)"/>
      <path id="NotoSansCJKjp-Regular-4338" d="M 5056 3322 
C 4826 2886 4518 2387 4192 1894 
C 3994 2093 3738 2310 3462 2522 
C 3763 2938 4109 3482 4384 3942 
L 4358 3955 
L 6144 3955 
L 6144 4410 
L 4410 4410 
L 4410 5376 
L 3942 5376 
L 3942 4410 
L 2406 4410 
L 2406 3955 
L 3814 3955 
C 3629 3571 3373 3123 3130 2771 
L 2790 3008 
L 2509 2662 
C 2989 2323 3565 1850 3910 1478 
C 3603 1043 3283 621 2995 275 
L 2374 250 
L 2432 -230 
C 3245 -186 4410 -115 5542 -38 
C 5626 -218 5696 -390 5741 -531 
L 6182 -320 
C 6022 160 5581 890 5152 1434 
L 4742 1254 
C 4941 992 5146 691 5312 390 
L 3539 301 
C 4205 1114 4960 2202 5517 3098 
L 5056 3322 
z
M 538 3654 
C 486 3040 397 2221 301 1715 
L 749 1645 
L 787 1901 
L 1747 1901 
C 1683 634 1606 134 1485 6 
C 1427 -51 1376 -70 1261 -64 
C 1139 -64 826 -64 506 -32 
C 582 -160 640 -358 653 -493 
C 973 -512 1286 -512 1459 -499 
C 1651 -480 1773 -442 1888 -301 
C 2074 -90 2150 506 2227 2112 
C 2234 2182 2240 2330 2240 2330 
L 845 2330 
L 941 3200 
L 2234 3200 
L 2234 5126 
L 371 5126 
L 371 4678 
L 1773 4678 
L 1773 3654 
L 538 3654 
z
" transform="scale(0.015625)"/>
      <path id="NotoSansCJKjp-Regular-3c8a" d="M 1421 2413 
C 1286 1248 934 333 224 -218 
C 339 -294 538 -461 621 -544 
C 1037 -179 1350 307 1574 896 
C 2163 -198 3117 -422 4454 -422 
L 5952 -422 
C 5971 -282 6061 -51 6131 64 
C 5818 58 4717 58 4480 58 
C 4109 58 3757 77 3443 134 
L 3443 1440 
L 5350 1440 
L 5350 1888 
L 3443 1888 
L 3443 2957 
L 5088 2957 
L 5088 3418 
L 1350 3418 
L 1350 2957 
L 2944 2957 
L 2944 269 
C 2419 461 2016 832 1760 1504 
C 1824 1766 1882 2054 1920 2355 
L 1421 2413 
z
M 525 4640 
L 525 3245 
L 998 3245 
L 998 4186 
L 5382 4186 
L 5382 3245 
L 5875 3245 
L 5875 4640 
L 3443 4640 
L 3443 5376 
L 2938 5376 
L 2938 4640 
L 525 4640 
z
" transform="scale(0.015625)"/>
      <path id="NotoSansCJKjp-Regular-677c" d="M 3046 3456 
L 4026 3456 
L 4026 2630 
L 3046 2630 
L 3046 3456 
z
M 4442 3456 
L 5421 3456 
L 5421 2630 
L 4442 2630 
L 4442 3456 
z
M 3046 4659 
L 4026 4659 
L 4026 3846 
L 3046 3846 
L 3046 4659 
z
M 4442 4659 
L 5421 4659 
L 5421 3846 
L 4442 3846 
L 4442 4659 
z
M 2035 141 
L 2035 -301 
L 6189 -301 
L 6189 141 
L 4480 141 
L 4480 1024 
L 5971 1024 
L 5971 1459 
L 4480 1459 
L 4480 2214 
L 5882 2214 
L 5882 5082 
L 2605 5082 
L 2605 2214 
L 3987 2214 
L 3987 1459 
L 2528 1459 
L 2528 1024 
L 3987 1024 
L 3987 141 
L 2035 141 
z
M 224 640 
L 346 154 
C 909 339 1645 589 2336 819 
L 2253 1286 
L 1549 1050 
L 1549 2643 
L 2195 2643 
L 2195 3091 
L 1549 3091 
L 1549 4493 
L 2291 4493 
L 2291 4941 
L 294 4941 
L 294 4493 
L 1088 4493 
L 1088 3091 
L 358 3091 
L 358 2643 
L 1088 2643 
L 1088 902 
C 762 800 467 710 224 640 
z
" transform="scale(0.015625)"/>
      <path id="NotoSansCJKjp-Regular-8241" d="M 3795 563 
C 4480 218 5210 -211 5638 -531 
L 6093 -198 
C 5619 115 4845 544 4141 883 
L 3795 563 
z
M 2125 870 
C 1722 512 954 70 339 -186 
C 454 -275 621 -429 704 -525 
C 1306 -250 2067 179 2573 576 
L 2125 870 
z
M 288 1414 
L 288 966 
L 6131 966 
L 6131 1414 
L 5459 1414 
C 5517 2355 5549 3853 5555 4973 
L 4186 4973 
L 4186 4544 
L 5114 4544 
L 5107 3795 
L 4256 3795 
L 4256 3386 
L 5094 3386 
L 5069 2598 
L 4237 2598 
L 4237 2189 
L 5056 2189 
L 5011 1414 
L 3936 1414 
L 3936 3584 
L 2925 3584 
L 2925 4256 
L 4058 4256 
L 4058 4666 
L 2925 4666 
L 2925 5318 
L 2502 5318 
L 2502 3194 
L 3514 3194 
L 3514 1414 
L 2893 1414 
L 2893 2912 
L 2496 2912 
L 2496 1414 
L 1382 1414 
L 1357 2195 
L 2182 2195 
L 2182 2598 
L 1344 2598 
L 1318 3386 
L 2176 3386 
L 2176 3795 
L 1306 3795 
L 1280 4474 
C 1645 4614 2048 4800 2381 4973 
L 2003 5318 
C 1792 5171 1466 4986 1146 4832 
L 826 4928 
L 947 1414 
L 288 1414 
z
" transform="scale(0.015625)"/>
      <path id="NotoSansCJKjp-Regular-ad9e" d="M 4416 4890 
C 4762 4282 5376 3546 5958 3085 
C 6029 3226 6138 3398 6234 3520 
C 5645 3917 5018 4666 4627 5370 
L 4173 5370 
C 3891 4710 3277 3917 2650 3469 
C 2746 3360 2854 3187 2906 3059 
C 3533 3546 4109 4282 4416 4890 
z
M 5101 1453 
C 5370 992 5638 371 5728 -6 
L 6150 154 
C 6048 538 5766 1139 5491 1594 
L 5101 1453 
z
M 2880 2298 
L 2880 1882 
L 4218 1882 
L 4218 6 
C 4218 -70 4192 -96 4115 -96 
C 4038 -102 3795 -102 3514 -96 
C 3578 -211 3642 -390 3667 -512 
C 4058 -512 4307 -506 4461 -435 
C 4621 -358 4672 -237 4672 0 
L 4672 1882 
L 6042 1882 
L 6042 2298 
L 4672 2298 
L 4672 3008 
L 5562 3008 
L 5562 3424 
L 3341 3424 
L 3341 3008 
L 4218 3008 
L 4218 2298 
L 2880 2298 
z
M 640 3501 
L 640 -506 
L 1056 -506 
L 1056 0 
L 2746 0 
L 2746 192 
C 2848 134 2982 45 3046 -6 
C 3328 358 3578 909 3731 1453 
L 3315 1542 
C 3200 1094 3002 640 2746 301 
L 2746 384 
L 1056 384 
L 1056 819 
L 2650 819 
L 2650 1203 
L 1056 1203 
L 1056 1632 
L 2618 1632 
L 2618 3501 
L 640 3501 
z
M 1056 2406 
L 2214 2406 
L 2214 1971 
L 1056 1971 
L 1056 2406 
z
M 1056 2739 
L 1056 3162 
L 2214 3162 
L 2214 2739 
L 1056 2739 
z
M 1344 5376 
C 1126 4883 704 4269 115 3808 
C 218 3750 352 3616 422 3520 
C 666 3718 877 3936 1062 4154 
L 1062 3872 
L 2310 3872 
L 2310 4218 
L 1114 4218 
C 1338 4486 1517 4755 1651 4992 
C 2003 4672 2381 4192 2579 3904 
L 2880 4230 
C 2662 4557 2202 5037 1824 5376 
L 1344 5376 
z
" transform="scale(0.015625)"/>
     </defs>
     <use xlink:href="#NotoSansCJKjp-Regular-926e"/>
     <use xlink:href="#NotoSansCJKjp-Regular-2514" transform="translate(100 0)"/>
     <use xlink:href="#NotoSansCJKjp-Regular-9248" transform="translate(200 0)"/>
     <use xlink:href="#NotoSansCJKjp-Regular-43ac" transform="translate(300 0)"/>
     <use xlink:href="#NotoSansCJKjp-Regular-e6c0" transform="translate(400 0)"/>
     <use xlink:href="#NotoSansCJKjp-Regular-585c" transform="translate(500 0)"/>
     <use xlink:href="#NotoSansCJKjp-Regular-4338" transform="translate(600 0)"/>
     <use xlink:href="#NotoSansCJKjp-Regular-3c8a" transform="translate(700 0)"/>
     <use xlink:href="#NotoSansCJKjp-Regular-677c" transform="translate(800 0)"/>
     <use xlink:href="#NotoSansCJKjp-Regular-8241" transform="translate(900 0)"/>
     <use xlink:href="#NotoSansCJKjp-Regular-ad9e" transform="translate(1000 0)"/>
     <use xlink:href="#NotoSansCJKjp-Regular-4338" transform="translate(1100 0)"/>
     <use xlink:href="#NotoSansCJKjp-Regular-3c8a" transform="translate(1200 0)"/>
     <use xlink:href="#NotoSansCJKjp-Regular-677c" transform="translate(1300 0)"/>
    </g>
   </g>
   <g id="line2d_2">
    <path d="M 96.954894 187.933617 
L 96.954894 179.385532 
" clip-path="url(#p665cf568ce)" style="fill: none; stroke: #bf8700; stroke-width: 1.2; stroke-linecap: square"/>
   </g>
   <g id="line2d_3">
    <path d="M 96.954894 179.385532 
L 105.502979 179.385532 
" clip-path="url(#p665cf568ce)" style="fill: none; stroke: #bf8700; stroke-width: 1.2; stroke-linecap: square"/>
   </g>
   <g id="patch_5">
    <path d="M 45.666383 190.498043 
C 46.346477 190.498043 46.998807 190.227839 47.479706 189.74694 
C 47.960604 189.266041 48.230809 188.613711 48.230809 187.933617 
C 48.230809 187.253523 47.960604 186.601193 47.479706 186.120294 
C 46.998807 185.639396 46.346477 185.369191 45.666383 185.369191 
C 44.986289 185.369191 44.333959 185.639396 43.85306 186.120294 
C 43.372161 186.601193 43.101957 187.253523 43.101957 187.933617 
C 43.101957 188.613711 43.372161 189.266041 43.85306 189.74694 
C 44.333959 190.227839 44.986289 190.498043 45.666383 190.498043 
z
" clip-path="url(#p665cf568ce)" style="fill: #222831; stroke: #222831; stroke-linejoin: miter"/>
   </g>
   <g id="patch_6">
    <path d="M 259.368511 190.498043 
C 260.048604 190.498043 260.700935 190.227839 261.181833 189.74694 
C 261.662732 189.266041 261.932936 188.613711 261.932936 187.933617 
C 261.932936 187.253523 261.662732 186.601193 261.181833 186.120294 
C 260.700935 185.639396 260.048604 185.369191 259.368511 185.369191 
C 258.688417 185.369191 258.036087 185.639396 257.555188 186.120294 
C 257.074289 186.601193 256.804085 187.253523 256.804085 187.933617 
C 256.804085 188.613711 257.074289 189.266041 257.555188 189.74694 
C 258.036087 190.227839 258.688417 190.498043 259.368511 190.498043 
z
" clip-path="url(#p665cf568ce)" style="fill: #222831; stroke: #222831; stroke-linejoin: miter"/>
   </g>
   <g id="patch_7">
    <path d="M 105.502979 53.728681 
C 106.183072 53.728681 106.835403 53.458477 107.316301 52.977578 
C 107.7972 52.496679 108.067404 51.844349 108.067404 51.164255 
C 108.067404 50.484162 107.7972 49.831831 107.316301 49.350933 
C 106.835403 48.870034 106.183072 48.59983 105.502979 48.59983 
C 104.822885 48.59983 104.170555 48.870034 103.689656 49.350933 
C 103.208757 49.831831 102.938553 50.484162 102.938553 51.164255 
C 102.938553 51.844349 103.208757 52.496679 103.689656 52.977578 
C 104.170555 53.458477 104.822885 53.728681 105.502979 53.728681 
z
" clip-path="url(#p665cf568ce)" style="fill: #222831; stroke: #222831; stroke-linejoin: miter"/>
   </g>
  </g>
 </g>
 <defs>
  <clipPath id="p665cf568ce">
   <rect x="7.2" y="25.52" width="401.76" height="196.605957"/>
  </clipPath>
 </defs>
</svg>
