<?xml version="1.0" encoding="utf-8" standalone="no"?>
<!DOCTYPE svg PUBLIC "-//W3C//DTD SVG 1.1//EN"
  "http://www.w3.org/Graphics/SVG/1.1/DTD/svg11.dtd">
<svg xmlns:xlink="http://www.w3.org/1999/xlink" width="509.931094pt" height="195.756154pt" viewBox="0 0 509.931094 195.756154" xmlns="http://www.w3.org/2000/svg" version="1.1">
 <metadata>
  <rdf:RDF xmlns:dc="http://purl.org/dc/elements/1.1/" xmlns:cc="http://creativecommons.org/ns#" xmlns:rdf="http://www.w3.org/1999/02/22-rdf-syntax-ns#">
   <cc:Work>
    <dc:type rdf:resource="http://purl.org/dc/dcmitype/StillImage"/>
    <dc:date>2026-06-19T00:24:37.432925</dc:date>
    <dc:format>image/svg+xml</dc:format>
    <dc:creator>
     <cc:Agent>
      <dc:title>Matplotlib v3.11.0, https://matplotlib.org/</dc:title>
     </cc:Agent>
    </dc:creator>
   </cc:Work>
  </rdf:RDF>
 </metadata>
 <defs>
  <style type="text/css">*{stroke-linejoin: round; stroke-linecap: butt}</style>
 </defs>
 <g id="figure_1">
  <g id="patch_1">
   <path d="M -0 195.756154 
L 509.931094 195.756154 
L 509.931094 -0 
L -0 -0 
z
" style="fill: #ffffff"/>
  </g>
  <g id="axes_1">
   <g id="line2d_1">
    <path d="M 36.558624 145.49 
L 148.447774 80.890769 
" clip-path="url(#pb8b6d43ac6)" style="fill: none; stroke: #d8dde3; stroke-width: 1.4; stroke-linecap: square"/>
   </g>
   <g id="line2d_2">
    <path d="M 196.518624 145.49 
L 308.407774 80.890769 
" clip-path="url(#pb8b6d43ac6)" style="fill: none; stroke: #d8dde3; stroke-width: 1.4; stroke-linecap: square"/>
   </g>
   <g id="line2d_3">
    <path d="M 356.478624 145.49 
L 468.367774 80.890769 
" clip-path="url(#pb8b6d43ac6)" style="fill: none; stroke: #d8dde3; stroke-width: 1.4; stroke-linecap: square"/>
   </g>
   <g id="line2d_4">
    <path d="M 105.823336 105.5 
L 105.823336 145.49 
" clip-path="url(#pb8b6d43ac6)" style="fill: none; stroke-dasharray: 4.44,1.92; stroke-dashoffset: 0; stroke: #9aa0a6; stroke-width: 1.2"/>
   </g>
   <g id="line2d_5">
    <path d="M 265.783336 105.5 
L 265.783336 145.49 
" clip-path="url(#pb8b6d43ac6)" style="fill: none; stroke-dasharray: 4.44,1.92; stroke-dashoffset: 0; stroke: #9aa0a6; stroke-width: 1.2"/>
   </g>
   <g id="line2d_6">
    <path d="M 425.743336 105.5 
L 425.743336 145.49 
" clip-path="url(#pb8b6d43ac6)" style="fill: none; stroke-dasharray: 4.44,1.92; stroke-dashoffset: 0; stroke: #9aa0a6; stroke-width: 1.2"/>
   </g>
   <g id="patch_2">
    <path d="M 33.941293 145.49 
Q 98.849548 145.49 162.080753 145.49 
" style="fill: none; stroke: #222831; stroke-width: 1.5; stroke-linecap: round"/>
    <path d="M 157.280753 143.09 
L 162.080753 145.49 
L 157.280753 147.89 
z
" style="fill: #222831; stroke: #222831; stroke-width: 1.5; stroke-linecap: round"/>
   </g>
   <g id="text_1">
    <!-- $b$ -->
    <g style="fill: #1f6feb" transform="translate(60.063903 119.957923) scale(0.13 -0.13)">
     <defs>
      <path id="Cmmi10-4b" d="M 1106 -72 
Q 719 -72 503 231 
Q 288 534 288 941 
Q 288 1000 317 1173 
Q 347 1347 347 1388 
L 966 3872 
Q 991 3981 997 4044 
Q 997 4147 581 4147 
Q 519 4147 519 4231 
Q 522 4247 533 4287 
Q 544 4328 561 4350 
Q 578 4372 609 4372 
L 1472 4441 
Q 1550 4441 1550 4359 
L 1075 2472 
Q 1438 2828 1806 2828 
Q 2078 2828 2273 2684 
Q 2469 2541 2566 2306 
Q 2663 2072 2663 1806 
Q 2663 1497 2542 1167 
Q 2422 838 2209 555 
Q 1997 272 1712 100 
Q 1428 -72 1106 -72 
z
M 1119 97 
Q 1338 97 1528 280 
Q 1719 463 1838 691 
Q 1966 947 2077 1386 
Q 2188 1825 2188 2088 
Q 2188 2316 2092 2489 
Q 1997 2663 1791 2663 
Q 1559 2663 1348 2492 
Q 1138 2322 978 2088 
L 800 1363 
Q 697 959 691 716 
Q 691 475 795 286 
Q 900 97 1119 97 
z
" transform="scale(0.015625)"/>
     </defs>
     <use xlink:href="#Cmmi10-4b" transform="translate(0 0.609375)"/>
    </g>
   </g>
   <g id="patch_3">
    <path d="M 51.170355 145.49 
C 51.170355 144.213068 51.002966 142.941627 50.672472 141.708206 
C 50.341978 140.474784 49.85122 139.28999 49.212754 138.184135 
" clip-path="url(#pb8b6d43ac6)" style="fill: none; stroke: #bf8700; stroke-width: 1.8; stroke-linejoin: miter"/>
   </g>
   <g id="text_2">
    <!-- $A$ -->
    <g style="fill: #bf8700" transform="translate(52.361239 140.568154) scale(0.12 -0.12)">
     <defs>
      <path id="Cmmi10-5c" d="M 288 0 
Q 225 0 225 84 
Q 250 225 306 225 
Q 566 225 755 328 
Q 944 431 1081 647 
Q 1094 659 1094 659 
L 3378 4513 
Q 3428 4581 3500 4581 
L 3584 4581 
Q 3603 4581 3622 4573 
Q 3641 4566 3655 4548 
Q 3669 4531 3669 4513 
L 4056 378 
Q 4056 350 4084 294 
Q 4147 225 4563 225 
Q 4628 225 4628 141 
Q 4606 56 4592 28 
Q 4578 0 4519 0 
L 2919 0 
Q 2859 0 2859 84 
Q 2894 225 2944 225 
Q 3450 225 3481 397 
L 3384 1453 
L 1806 1453 
L 1294 594 
Q 1247 525 1247 434 
Q 1247 322 1355 273 
Q 1463 225 1594 225 
Q 1656 225 1656 141 
Q 1634 50 1621 25 
Q 1609 0 1550 0 
L 288 0 
z
M 1931 1678 
L 3359 1678 
L 3169 3750 
L 1931 1678 
z
" transform="scale(0.015625)"/>
     </defs>
     <use xlink:href="#Cmmi10-5c" transform="translate(0 0.421875)"/>
    </g>
   </g>
   <g id="text_3">
    <!-- $h$ -->
    <g style="fill: #6b7280" transform="translate(95.171951 125.495) scale(0.12 -0.12)">
     <defs>
      <path id="Cmmi10-5f" d="M 341 116 
Q 341 153 347 172 
L 1275 3872 
Q 1300 3981 1306 4044 
Q 1306 4147 891 4147 
Q 825 4147 825 4231 
Q 828 4247 839 4287 
Q 850 4328 867 4350 
Q 884 4372 916 4372 
L 1778 4441 
L 1797 4441 
Q 1797 4434 1819 4423 
Q 1841 4413 1844 4409 
Q 1856 4378 1856 4359 
L 1356 2363 
Q 1750 2828 2291 2828 
Q 2516 2828 2680 2750 
Q 2844 2672 2936 2514 
Q 3028 2356 3028 2138 
Q 3028 1875 2911 1503 
Q 2794 1131 2619 672 
Q 2528 463 2528 288 
Q 2528 97 2675 97 
Q 2925 97 3092 364 
Q 3259 631 3328 941 
Q 3341 978 3378 978 
L 3456 978 
Q 3481 978 3497 961 
Q 3513 944 3513 922 
Q 3513 916 3506 903 
Q 3450 672 3339 448 
Q 3228 225 3059 76 
Q 2891 -72 2663 -72 
Q 2438 -72 2278 83 
Q 2119 238 2119 459 
Q 2119 578 2169 709 
Q 2350 1191 2470 1569 
Q 2591 1947 2591 2234 
Q 2591 2419 2519 2541 
Q 2447 2663 2278 2663 
Q 1934 2663 1678 2452 
Q 1422 2241 1234 1894 
L 800 147 
Q 775 50 703 -11 
Q 631 -72 538 -72 
Q 456 -72 398 -17 
Q 341 38 341 116 
z
" transform="scale(0.015625)"/>
     </defs>
     <use xlink:href="#Cmmi10-5f" transform="translate(0 0.609375)"/>
    </g>
   </g>
   <g id="text_4">
    <!-- $C$ -->
    <g style="fill: #222831" transform="translate(101.503336 99.347692) scale(0.12 -0.12)">
     <defs>
      <path id="Cmmi10-67" d="M 934 1381 
Q 934 997 1082 705 
Q 1231 413 1514 248 
Q 1797 84 2181 84 
Q 2584 84 2957 290 
Q 3331 497 3595 842 
Q 3859 1188 3956 1575 
Q 3969 1613 4006 1613 
L 4084 1613 
Q 4109 1613 4125 1595 
Q 4141 1578 4141 1556 
Q 4141 1550 4134 1538 
Q 4025 1094 3711 705 
Q 3397 316 2959 87 
Q 2522 -141 2059 -141 
Q 1559 -141 1162 84 
Q 766 309 545 709 
Q 325 1109 325 1613 
Q 325 2150 565 2676 
Q 806 3203 1212 3614 
Q 1619 4025 2139 4269 
Q 2659 4513 3194 4513 
Q 3406 4513 3600 4448 
Q 3794 4384 3959 4253 
Q 4125 4122 4231 3950 
L 4738 4500 
Q 4738 4513 4769 4513 
L 4806 4513 
Q 4831 4513 4847 4491 
Q 4863 4469 4863 4447 
L 4428 2719 
Q 4428 2675 4378 2675 
L 4263 2675 
Q 4213 2675 4213 2747 
Q 4238 2888 4238 3084 
Q 4238 3397 4131 3673 
Q 4025 3950 3801 4119 
Q 3578 4288 3256 4288 
Q 2734 4288 2300 4025 
Q 1866 3763 1564 3336 
Q 1263 2909 1098 2389 
Q 934 1869 934 1381 
z
" transform="scale(0.015625)"/>
     </defs>
     <use xlink:href="#Cmmi10-67" transform="translate(0 0.484375)"/>
    </g>
   </g>
   <g id="text_5">
    <!-- $A$ -->
    <g style="fill: #222831" transform="translate(28.98247 154.103231) scale(0.12 -0.12)">
     <use xlink:href="#Cmmi10-5c" transform="translate(0 0.421875)"/>
    </g>
   </g>
   <g id="text_6">
    <!-- $a$ -->
    <g style="fill: #d1242f" transform="translate(86.577775 114.264103) scale(0.13 -0.13)">
     <defs>
      <path id="Cmmi10-79" d="M 1113 -72 
Q 709 -72 476 233 
Q 244 538 244 953 
Q 244 1363 456 1803 
Q 669 2244 1030 2536 
Q 1391 2828 1806 2828 
Q 1997 2828 2147 2725 
Q 2297 2622 2381 2444 
Q 2453 2700 2663 2700 
Q 2744 2700 2798 2651 
Q 2853 2603 2853 2522 
Q 2853 2503 2851 2493 
Q 2850 2484 2847 2472 
L 2400 684 
Q 2356 494 2356 372 
Q 2356 97 2541 97 
Q 2741 97 2845 351 
Q 2950 606 3022 941 
Q 3034 978 3072 978 
L 3150 978 
Q 3175 978 3190 956 
Q 3206 934 3206 916 
Q 3094 469 2961 198 
Q 2828 -72 2528 -72 
Q 2313 -72 2147 54 
Q 1981 181 1941 391 
Q 1528 -72 1113 -72 
z
M 1119 97 
Q 1350 97 1567 270 
Q 1784 444 1941 678 
Q 1947 684 1947 697 
L 2291 2088 
L 2297 2106 
Q 2259 2334 2132 2498 
Q 2006 2663 1791 2663 
Q 1575 2663 1389 2486 
Q 1203 2309 1075 2069 
Q 950 1813 836 1366 
Q 722 919 722 672 
Q 722 450 817 273 
Q 913 97 1119 97 
z
" transform="scale(0.015625)"/>
     </defs>
     <use xlink:href="#Cmmi10-79" transform="translate(0 0.8125)"/>
    </g>
   </g>
   <g id="text_7">
    <!-- 無解 -->
    <g style="fill: #222831" transform="translate(82.505547 36.286538) scale(0.125 -0.125)">
     <defs>
      <path id="NotoSansCJKjp-Bold-625b" d="M 2125 730 
C 2195 326 2240 -192 2246 -506 
L 2995 -397 
C 2995 -90 2918 422 2835 806 
L 2125 730 
z
M 3398 710 
C 3539 314 3686 -198 3725 -512 
L 4493 -365 
C 4442 -45 4275 454 4115 832 
L 3398 710 
z
M 4666 749 
C 4954 333 5293 -230 5434 -576 
L 6221 -314 
C 6054 45 5696 582 5402 979 
L 4666 749 
z
M 973 954 
C 826 486 538 -13 250 -282 
L 986 -582 
C 1299 -243 1574 282 1715 768 
L 973 954 
z
M 416 1773 
L 416 1088 
L 6003 1088 
L 6003 1773 
L 5261 1773 
L 5261 2586 
L 6099 2586 
L 6099 3270 
L 5261 3270 
L 5261 4090 
L 5862 4090 
L 5862 4762 
L 2003 4762 
C 2099 4909 2182 5062 2259 5216 
L 1504 5440 
C 1222 4838 717 4256 173 3898 
C 352 3782 659 3533 800 3392 
C 928 3494 1050 3603 1178 3731 
L 1178 3270 
L 314 3270 
L 314 2586 
L 1178 2586 
L 1178 1773 
L 416 1773 
z
M 2317 4090 
L 2317 3270 
L 1856 3270 
L 1856 4090 
L 2317 4090 
z
M 2957 4090 
L 3430 4090 
L 3430 3270 
L 2957 3270 
L 2957 4090 
z
M 4070 4090 
L 4557 4090 
L 4557 3270 
L 4070 3270 
L 4070 4090 
z
M 2317 2586 
L 2317 1773 
L 1856 1773 
L 1856 2586 
L 2317 2586 
z
M 2957 2586 
L 3430 2586 
L 3430 1773 
L 2957 1773 
L 2957 2586 
z
M 4070 2586 
L 4557 2586 
L 4557 1773 
L 4070 1773 
L 4070 2586 
z
" transform="scale(0.015625)"/>
      <path id="NotoSansCJKjp-Bold-926e" d="M 1606 3226 
L 1606 2746 
L 1242 2746 
L 1242 3226 
L 1606 3226 
z
M 2112 3226 
L 2477 3226 
L 2477 2746 
L 2112 2746 
L 2112 3226 
z
M 1184 3789 
C 1261 3942 1338 4096 1408 4262 
L 1920 4262 
C 1869 4096 1805 3930 1741 3789 
L 1184 3789 
z
M 1075 5440 
C 896 4678 563 3930 122 3456 
C 256 3373 493 3174 627 3046 
L 627 2099 
C 627 1376 589 422 154 -243 
C 301 -307 582 -486 691 -589 
C 992 -128 1133 499 1197 1107 
L 2477 1107 
L 2477 179 
C 2477 96 2451 70 2374 70 
C 2291 70 2042 70 1786 83 
C 1875 -90 1984 -384 2003 -563 
C 2400 -563 2662 -550 2854 -442 
C 3053 -333 3110 -134 3110 166 
L 3110 1523 
C 3270 1453 3501 1331 3610 1254 
C 3699 1395 3789 1562 3866 1754 
L 4397 1754 
L 4397 1171 
L 3206 1171 
L 3206 512 
L 4397 512 
L 4397 -550 
L 5126 -550 
L 5126 512 
L 6221 512 
L 6221 1171 
L 5126 1171 
L 5126 1754 
L 6093 1754 
L 6093 2400 
L 5126 2400 
L 5126 2976 
L 4397 2976 
L 4397 2400 
L 4083 2400 
C 4122 2534 4154 2669 4179 2803 
L 3610 2918 
C 4256 3277 4499 3814 4608 4480 
L 5350 4480 
C 5325 3949 5293 3731 5235 3661 
C 5190 3603 5139 3597 5062 3597 
C 4979 3597 4806 3603 4602 3622 
C 4698 3456 4762 3194 4774 3002 
C 5037 2995 5286 2995 5427 3021 
C 5587 3040 5709 3098 5818 3226 
C 5958 3398 6010 3840 6042 4864 
C 6048 4947 6054 5114 6054 5114 
L 3200 5114 
L 3200 4480 
L 3917 4480 
C 3827 4019 3635 3648 3110 3392 
L 3110 3789 
L 2387 3789 
C 2515 4051 2650 4346 2739 4602 
L 2298 4870 
L 2202 4845 
L 1626 4845 
C 1677 4992 1722 5139 1760 5293 
L 1075 5440 
z
M 1606 2202 
L 1606 1670 
L 1235 1670 
L 1242 2093 
L 1242 2202 
L 1606 2202 
z
M 2112 2202 
L 2477 2202 
L 2477 1670 
L 2112 1670 
L 2112 2202 
z
M 3110 1645 
L 3110 3251 
C 3232 3130 3354 2950 3411 2822 
L 3546 2886 
C 3469 2432 3322 1978 3110 1645 
z
" transform="scale(0.015625)"/>
     </defs>
     <use xlink:href="#NotoSansCJKjp-Bold-625b"/>
     <use xlink:href="#NotoSansCJKjp-Bold-926e" transform="translate(100 0)"/>
    </g>
   </g>
   <g id="text_8">
    <!-- a &lt; b·sin A -->
    <g style="fill: #d1242f" transform="translate(66.658047 49.514) scale(0.115 -0.115)">
     <defs>
      <path id="NotoSansCJKjp-Regular-42" d="M 1389 -83 
C 1818 -83 2208 141 2541 416 
L 2560 416 
L 2611 0 
L 3091 0 
L 3091 2138 
C 3091 3002 2739 3565 1888 3565 
C 1325 3565 838 3315 525 3110 
L 749 2707 
C 1024 2893 1389 3078 1792 3078 
C 2362 3078 2509 2650 2509 2202 
C 1030 2035 378 1658 378 902 
C 378 275 806 -83 1389 -83 
z
M 1555 390 
C 1210 390 941 544 941 941 
C 941 1389 1338 1677 2509 1811 
L 2509 845 
C 2170 544 1888 390 1555 390 
z
" transform="scale(0.015625)"/>
      <path id="NotoSansCJKjp-Regular-1" transform="scale(0.015625)"/>
      <path id="NotoSansCJKjp-Regular-1d" d="M 3315 934 
L 3315 1446 
L 1798 2003 
L 838 2362 
L 838 2387 
L 1798 2746 
L 3315 3309 
L 3315 3814 
L 243 2605 
L 243 2144 
L 3315 934 
z
" transform="scale(0.015625)"/>
      <path id="NotoSansCJKjp-Regular-43" d="M 2118 -83 
C 2912 -83 3629 602 3629 1792 
C 3629 2867 3142 3565 2246 3565 
C 1856 3565 1472 3347 1152 3078 
L 1178 3699 
L 1178 5094 
L 589 5094 
L 589 0 
L 1056 0 
L 1107 358 
L 1133 358 
C 1434 83 1798 -83 2118 -83 
z
M 2022 410 
C 1792 410 1478 499 1178 768 
L 1178 2598 
C 1504 2906 1811 3072 2099 3072 
C 2765 3072 3021 2560 3021 1786 
C 3021 928 2598 410 2022 410 
z
" transform="scale(0.015625)"/>
      <path id="NotoSansCJKjp-Regular-75" d="M 1766 1875 
C 1997 1875 2195 2067 2195 2323 
C 2195 2592 1997 2778 1766 2778 
C 1536 2778 1350 2592 1350 2323 
C 1350 2067 1536 1875 1766 1875 
z
" transform="scale(0.015625)"/>
      <path id="NotoSansCJKjp-Regular-54" d="M 1498 -83 
C 2317 -83 2758 384 2758 947 
C 2758 1606 2208 1811 1702 2003 
C 1312 2150 954 2278 954 2605 
C 954 2880 1158 3110 1600 3110 
C 1907 3110 2150 2976 2387 2803 
L 2669 3168 
C 2406 3386 2022 3565 1594 3565 
C 832 3565 397 3130 397 2579 
C 397 1984 922 1754 1408 1574 
C 1792 1434 2202 1267 2202 915 
C 2202 614 1978 371 1517 371 
C 1101 371 794 538 486 787 
L 205 397 
C 531 122 1005 -83 1498 -83 
z
" transform="scale(0.015625)"/>
      <path id="NotoSansCJKjp-Regular-4a" d="M 589 0 
L 1178 0 
L 1178 3475 
L 589 3475 
L 589 0 
z
M 883 4192 
C 1114 4192 1274 4346 1274 4582 
C 1274 4806 1114 4960 883 4960 
C 653 4960 499 4806 499 4582 
C 499 4346 653 4192 883 4192 
z
" transform="scale(0.015625)"/>
      <path id="NotoSansCJKjp-Regular-4f" d="M 589 0 
L 1178 0 
L 1178 2522 
C 1523 2874 1766 3053 2125 3053 
C 2586 3053 2784 2778 2784 2125 
L 2784 0 
L 3366 0 
L 3366 2202 
C 3366 3085 3034 3565 2304 3565 
C 1830 3565 1466 3302 1139 2970 
L 1126 2970 
L 1069 3475 
L 589 3475 
L 589 0 
z
" transform="scale(0.015625)"/>
      <path id="NotoSansCJKjp-Regular-22" d="M 26 0 
L 621 0 
L 1075 1434 
L 2790 1434 
L 3238 0 
L 3866 0 
L 2272 4691 
L 1613 4691 
L 26 0 
z
M 1222 1901 
L 1453 2624 
C 1619 3155 1773 3661 1920 4211 
L 1946 4211 
C 2099 3667 2246 3155 2419 2624 
L 2643 1901 
L 1222 1901 
z
" transform="scale(0.015625)"/>
     </defs>
     <use xlink:href="#NotoSansCJKjp-Regular-42"/>
     <use xlink:href="#NotoSansCJKjp-Regular-1" transform="translate(56.296875 0)"/>
     <use xlink:href="#NotoSansCJKjp-Regular-1d" transform="translate(78.703125 0)"/>
     <use xlink:href="#NotoSansCJKjp-Regular-1" transform="translate(134.203125 0)"/>
     <use xlink:href="#NotoSansCJKjp-Regular-43" transform="translate(156.609375 0)"/>
     <use xlink:href="#NotoSansCJKjp-Regular-75" transform="translate(218.40625 0)"/>
     <use xlink:href="#NotoSansCJKjp-Regular-54" transform="translate(274.5 0)"/>
     <use xlink:href="#NotoSansCJKjp-Regular-4a" transform="translate(321.296875 0)"/>
     <use xlink:href="#NotoSansCJKjp-Regular-4f" transform="translate(348.796875 0)"/>
     <use xlink:href="#NotoSansCJKjp-Regular-1" transform="translate(409.796875 0)"/>
     <use xlink:href="#NotoSansCJKjp-Regular-22" transform="translate(432.203125 0)"/>
    </g>
   </g>
   <g id="patch_4">
    <path d="M 193.901293 145.49 
Q 258.809548 145.49 322.040753 145.49 
" style="fill: none; stroke: #222831; stroke-width: 1.5; stroke-linecap: round"/>
    <path d="M 317.240753 143.09 
L 322.040753 145.49 
L 317.240753 147.89 
z
" style="fill: #222831; stroke: #222831; stroke-width: 1.5; stroke-linecap: round"/>
   </g>
   <g id="text_9">
    <!-- $b$ -->
    <g style="fill: #1f6feb" transform="translate(220.023903 119.957923) scale(0.13 -0.13)">
     <use xlink:href="#Cmmi10-4b" transform="translate(0 0.609375)"/>
    </g>
   </g>
   <g id="patch_5">
    <path d="M 211.130355 145.49 
C 211.130355 144.213068 210.962966 142.941627 210.632472 141.708206 
C 210.301978 140.474784 209.81122 139.28999 209.172754 138.184135 
" clip-path="url(#pb8b6d43ac6)" style="fill: none; stroke: #bf8700; stroke-width: 1.8; stroke-linejoin: miter"/>
   </g>
   <g id="text_10">
    <!-- $A$ -->
    <g style="fill: #bf8700" transform="translate(212.321239 140.568154) scale(0.12 -0.12)">
     <use xlink:href="#Cmmi10-5c" transform="translate(0 0.421875)"/>
    </g>
   </g>
   <g id="text_11">
    <!-- $h$ -->
    <g style="fill: #6b7280" transform="translate(255.131951 125.495) scale(0.12 -0.12)">
     <use xlink:href="#Cmmi10-5f" transform="translate(0 0.609375)"/>
    </g>
   </g>
   <g id="text_12">
    <!-- $C$ -->
    <g style="fill: #222831" transform="translate(261.463336 99.347692) scale(0.12 -0.12)">
     <use xlink:href="#Cmmi10-67" transform="translate(0 0.484375)"/>
    </g>
   </g>
   <g id="text_13">
    <!-- $A$ -->
    <g style="fill: #222831" transform="translate(188.94247 154.103231) scale(0.12 -0.12)">
     <use xlink:href="#Cmmi10-5c" transform="translate(0 0.421875)"/>
    </g>
   </g>
   <g id="text_14">
    <!-- $a$ -->
    <g style="fill: #d1242f" transform="translate(242.276569 119.718198) scale(0.13 -0.13)">
     <use xlink:href="#Cmmi10-79" transform="translate(0 0.8125)"/>
    </g>
   </g>
   <g id="text_15">
    <!-- 一解（直角） -->
    <g style="fill: #222831" transform="translate(217.465547 36.286538) scale(0.125 -0.125)">
     <defs>
      <path id="NotoSansCJKjp-Bold-2509" d="M 243 2912 
L 243 2074 
L 6170 2074 
L 6170 2912 
L 243 2912 
z
" transform="scale(0.015625)"/>
      <path id="NotoSansCJKjp-Bold-e6ae" d="M 4243 2432 
C 4243 1062 4813 38 5504 -640 
L 6112 -371 
C 5472 320 4966 1203 4966 2432 
C 4966 3661 5472 4544 6112 5235 
L 5504 5504 
C 4813 4826 4243 3802 4243 2432 
z
" transform="scale(0.015625)"/>
      <path id="NotoSansCJKjp-Bold-6ce1" d="M 2656 2490 
L 4634 2490 
L 4634 2170 
L 2656 2170 
L 2656 2490 
z
M 2656 1664 
L 4634 1664 
L 4634 1331 
L 2656 1331 
L 2656 1664 
z
M 2656 3315 
L 4634 3315 
L 4634 2995 
L 2656 2995 
L 2656 3315 
z
M 653 3661 
L 653 -582 
L 1414 -582 
L 1414 -288 
L 6125 -288 
L 6125 422 
L 1414 422 
L 1414 3661 
L 653 3661 
z
M 2899 5459 
C 2893 5293 2886 5107 2874 4915 
L 358 4915 
L 358 4211 
L 2797 4211 
L 2746 3853 
L 1933 3853 
L 1933 794 
L 5395 794 
L 5395 3853 
L 3539 3853 
L 3610 4211 
L 6054 4211 
L 6054 4915 
L 3725 4915 
L 3802 5434 
L 2899 5459 
z
" transform="scale(0.015625)"/>
      <path id="NotoSansCJKjp-Bold-9248" d="M 1914 3302 
L 3014 3302 
L 3014 2720 
L 1914 2720 
L 1914 3302 
z
M 1914 3974 
L 1882 3974 
C 2016 4128 2144 4294 2259 4454 
L 3514 4454 
C 3418 4288 3315 4122 3213 3974 
L 1914 3974 
z
M 4922 3302 
L 4922 2720 
L 3744 2720 
L 3744 3302 
L 4922 3302 
z
M 1958 5466 
C 1658 4832 1107 4096 288 3552 
C 461 3437 717 3168 832 2989 
C 947 3078 1062 3168 1171 3258 
L 1171 2304 
C 1171 1523 1082 576 160 -70 
C 314 -173 602 -461 704 -608 
C 1235 -237 1536 275 1709 806 
L 4922 806 
L 4922 301 
C 4922 179 4877 141 4736 134 
C 4595 134 4064 128 3616 154 
C 3731 -45 3866 -378 3904 -589 
C 4544 -589 4986 -576 5286 -454 
C 5581 -339 5683 -128 5683 282 
L 5683 3974 
L 4045 3974 
C 4243 4237 4429 4525 4570 4774 
L 4051 5120 
L 3923 5088 
L 2656 5088 
L 2784 5318 
L 1958 5466 
z
M 1907 2074 
L 3014 2074 
L 3014 1466 
L 1856 1466 
C 1888 1670 1901 1875 1907 2074 
z
M 4922 2074 
L 4922 1466 
L 3744 1466 
L 3744 2074 
L 4922 2074 
z
" transform="scale(0.015625)"/>
      <path id="NotoSansCJKjp-Bold-e6af" d="M 2157 2432 
C 2157 3802 1587 4826 896 5504 
L 288 5235 
C 928 4544 1434 3661 1434 2432 
C 1434 1203 928 320 288 -371 
L 896 -640 
C 1587 38 2157 1062 2157 2432 
z
" transform="scale(0.015625)"/>
     </defs>
     <use xlink:href="#NotoSansCJKjp-Bold-2509"/>
     <use xlink:href="#NotoSansCJKjp-Bold-926e" transform="translate(100 0)"/>
     <use xlink:href="#NotoSansCJKjp-Bold-e6ae" transform="translate(200 0)"/>
     <use xlink:href="#NotoSansCJKjp-Bold-6ce1" transform="translate(300 0)"/>
     <use xlink:href="#NotoSansCJKjp-Bold-9248" transform="translate(400 0)"/>
     <use xlink:href="#NotoSansCJKjp-Bold-e6af" transform="translate(500 0)"/>
    </g>
   </g>
   <g id="text_16">
    <!-- a = b·sin A -->
    <g style="fill: #d1242f" transform="translate(226.618047 49.514) scale(0.115 -0.115)">
     <defs>
      <path id="NotoSansCJKjp-Regular-1e" d="M 243 2912 
L 3315 2912 
L 3315 3347 
L 243 3347 
L 243 2912 
z
M 243 1376 
L 3315 1376 
L 3315 1811 
L 243 1811 
L 243 1376 
z
" transform="scale(0.015625)"/>
     </defs>
     <use xlink:href="#NotoSansCJKjp-Regular-42"/>
     <use xlink:href="#NotoSansCJKjp-Regular-1" transform="translate(56.296875 0)"/>
     <use xlink:href="#NotoSansCJKjp-Regular-1e" transform="translate(78.703125 0)"/>
     <use xlink:href="#NotoSansCJKjp-Regular-1" transform="translate(134.203125 0)"/>
     <use xlink:href="#NotoSansCJKjp-Regular-43" transform="translate(156.609375 0)"/>
     <use xlink:href="#NotoSansCJKjp-Regular-75" transform="translate(218.40625 0)"/>
     <use xlink:href="#NotoSansCJKjp-Regular-54" transform="translate(274.5 0)"/>
     <use xlink:href="#NotoSansCJKjp-Regular-4a" transform="translate(321.296875 0)"/>
     <use xlink:href="#NotoSansCJKjp-Regular-4f" transform="translate(348.796875 0)"/>
     <use xlink:href="#NotoSansCJKjp-Regular-1" transform="translate(409.796875 0)"/>
     <use xlink:href="#NotoSansCJKjp-Regular-22" transform="translate(432.203125 0)"/>
    </g>
   </g>
   <g id="patch_6">
    <path d="M 353.861293 145.49 
Q 418.769548 145.49 482.000753 145.49 
" style="fill: none; stroke: #222831; stroke-width: 1.5; stroke-linecap: round"/>
    <path d="M 477.200753 143.09 
L 482.000753 145.49 
L 477.200753 147.89 
z
" style="fill: #222831; stroke: #222831; stroke-width: 1.5; stroke-linecap: round"/>
   </g>
   <g id="text_17">
    <!-- $b$ -->
    <g style="fill: #1f6feb" transform="translate(379.983903 119.957923) scale(0.13 -0.13)">
     <use xlink:href="#Cmmi10-4b" transform="translate(0 0.609375)"/>
    </g>
   </g>
   <g id="patch_7">
    <path d="M 371.090355 145.49 
C 371.090355 144.213068 370.922966 142.941627 370.592472 141.708206 
C 370.261978 140.474784 369.77122 139.28999 369.132754 138.184135 
" clip-path="url(#pb8b6d43ac6)" style="fill: none; stroke: #bf8700; stroke-width: 1.8; stroke-linejoin: miter"/>
   </g>
   <g id="text_18">
    <!-- $A$ -->
    <g style="fill: #bf8700" transform="translate(372.281239 140.568154) scale(0.12 -0.12)">
     <use xlink:href="#Cmmi10-5c" transform="translate(0 0.421875)"/>
    </g>
   </g>
   <g id="text_19">
    <!-- $h$ -->
    <g style="fill: #6b7280" transform="translate(415.091951 125.495) scale(0.12 -0.12)">
     <use xlink:href="#Cmmi10-5f" transform="translate(0 0.609375)"/>
    </g>
   </g>
   <g id="text_20">
    <!-- $C$ -->
    <g style="fill: #222831" transform="translate(421.423336 99.347692) scale(0.12 -0.12)">
     <use xlink:href="#Cmmi10-67" transform="translate(0 0.484375)"/>
    </g>
   </g>
   <g id="text_21">
    <!-- $A$ -->
    <g style="fill: #222831" transform="translate(348.90247 154.103231) scale(0.12 -0.12)">
     <use xlink:href="#Cmmi10-5c" transform="translate(0 0.421875)"/>
    </g>
   </g>
   <g id="text_22">
    <!-- $a$ -->
    <g style="fill: #d1242f" transform="translate(395.134559 128.808357) scale(0.13 -0.13)">
     <use xlink:href="#Cmmi10-79" transform="translate(0 0.8125)"/>
    </g>
   </g>
   <g id="line2d_7">
    <path d="M 425.743336 105.5 
L 376.983629 145.49 
" clip-path="url(#pb8b6d43ac6)" style="fill: none; stroke: #d1242f; stroke-opacity: 0.45; stroke-width: 1.4; stroke-linecap: square"/>
   </g>
   <g id="line2d_8">
    <path d="M 425.743336 105.5 
L 474.503043 145.49 
" clip-path="url(#pb8b6d43ac6)" style="fill: none; stroke: #d1242f; stroke-opacity: 0.45; stroke-width: 1.4; stroke-linecap: square"/>
   </g>
   <g id="text_23">
    <!-- 兩解（一銳一鈍） -->
    <g style="fill: #222831" transform="translate(364.925547 36.286538) scale(0.125 -0.125)">
     <defs>
      <path id="NotoSansCJKjp-Bold-2a94" d="M 1600 2746 
L 1600 2246 
L 1926 2246 
C 1843 1613 1677 1056 1344 685 
L 1344 3053 
L 2797 3053 
L 2797 883 
C 2458 1440 2426 2086 2426 2746 
L 1600 2746 
z
M 403 5082 
L 403 4320 
L 2797 4320 
L 2797 3770 
L 608 3770 
L 608 -557 
L 1344 -557 
L 1344 602 
C 1453 538 1613 416 1683 346 
C 1888 570 2048 851 2163 1178 
C 2246 883 2368 602 2554 365 
C 2605 422 2707 506 2797 576 
L 2797 -557 
L 3533 -557 
L 3533 678 
C 3648 614 3834 474 3917 397 
C 4096 614 4237 883 4352 1190 
C 4429 902 4544 634 4717 397 
C 4794 467 4941 570 5062 640 
L 5062 211 
C 5062 122 5037 96 4934 90 
C 4845 83 4512 83 4243 96 
C 4339 -77 4448 -358 4486 -550 
C 4941 -550 5274 -544 5510 -435 
C 5747 -326 5818 -147 5818 205 
L 5818 3770 
L 3533 3770 
L 3533 4320 
L 6016 4320 
L 6016 5082 
L 403 5082 
z
M 3795 2746 
L 3795 2246 
L 4122 2246 
C 4032 1632 3859 1075 3533 698 
L 3533 3053 
L 5062 3053 
L 5062 800 
C 4672 1363 4634 2048 4634 2746 
L 3795 2746 
z
" transform="scale(0.015625)"/>
      <path id="NotoSansCJKjp-Bold-a2ad" d="M 3725 3053 
L 5018 3053 
L 5018 2349 
L 3725 2349 
L 3725 3053 
z
M 371 1715 
C 474 1363 570 902 589 595 
L 1120 749 
C 1082 1043 986 1498 870 1843 
L 371 1715 
z
M 2170 1901 
C 2131 1581 2022 1114 1933 813 
L 2394 678 
C 2496 954 2618 1382 2746 1760 
L 2170 1901 
z
M 3424 1690 
C 3392 1037 3296 582 2803 275 
L 2771 685 
L 1869 525 
L 1869 2086 
L 2701 2086 
L 2701 2739 
L 1869 2739 
L 1869 3206 
L 2515 3206 
L 2515 3405 
C 2669 3283 2906 3053 3014 2931 
L 3021 2938 
L 3021 1690 
L 3424 1690 
z
M 1203 5440 
C 1005 4934 634 4333 96 3878 
C 250 3776 474 3520 570 3360 
L 614 3405 
L 614 3206 
L 1203 3206 
L 1203 2739 
L 326 2739 
L 326 2086 
L 1203 2086 
L 1203 403 
L 250 250 
L 410 -435 
L 2349 -51 
C 2483 -205 2624 -422 2688 -576 
C 3846 -160 4058 582 4122 1690 
L 4518 1690 
L 4518 339 
C 4518 -83 4570 -224 4691 -333 
C 4800 -448 4992 -499 5158 -499 
C 5261 -499 5434 -499 5542 -499 
C 5670 -499 5830 -474 5933 -429 
C 6048 -365 6131 -275 6176 -141 
C 6227 -13 6253 301 6272 589 
C 6080 653 5824 781 5690 902 
C 5683 621 5677 397 5664 294 
C 5651 205 5632 154 5600 141 
C 5581 122 5536 115 5498 115 
C 5453 115 5389 115 5357 115 
C 5318 115 5293 128 5267 147 
C 5248 166 5248 224 5248 320 
L 5248 1690 
L 5766 1690 
L 5766 3027 
L 5786 3008 
C 5901 3200 6144 3488 6304 3629 
C 5862 3994 5517 4659 5370 5331 
L 3616 5331 
L 3616 4666 
L 4832 4666 
C 4941 4339 5082 4006 5254 3712 
L 3546 3712 
C 3686 3974 3808 4262 3898 4550 
L 3194 4723 
C 3059 4250 2816 3789 2515 3475 
L 2515 3846 
L 2918 4326 
C 2688 4653 2208 5114 1830 5440 
L 1203 5440 
z
M 1030 3846 
C 1280 4141 1472 4442 1632 4710 
C 1901 4454 2176 4109 2355 3846 
L 1030 3846 
z
" transform="scale(0.015625)"/>
      <path id="NotoSansCJKjp-Bold-a177" d="M 397 1722 
C 499 1370 589 902 595 595 
L 1114 736 
C 1088 1037 998 1491 890 1850 
L 397 1722 
z
M 2170 1894 
C 2131 1587 2029 1139 1946 851 
L 2413 730 
C 2502 992 2611 1395 2720 1766 
L 2170 1894 
z
M 1178 5440 
C 979 4934 608 4333 64 3878 
C 211 3776 429 3533 525 3379 
L 646 3494 
L 646 3219 
L 1210 3219 
L 1210 2733 
L 352 2733 
L 352 2086 
L 1210 2086 
L 1210 410 
L 262 262 
L 410 -435 
C 1082 -301 1965 -128 2797 51 
L 2739 691 
L 1875 531 
L 1875 2086 
L 2669 2086 
L 2669 2733 
L 1875 2733 
L 1875 3219 
L 2541 3219 
L 2541 3859 
L 2490 3859 
L 2752 4173 
C 2810 4038 2854 3891 2867 3782 
C 3251 3821 3654 3866 4051 3930 
L 4051 1875 
L 3584 1875 
L 3584 3462 
L 2906 3462 
L 2906 781 
L 3584 781 
L 3584 1165 
L 4051 1165 
L 4051 525 
C 4051 -301 4218 -518 4832 -518 
C 4954 -518 5376 -518 5504 -518 
C 6022 -518 6214 -224 6298 576 
C 6086 621 5818 742 5651 864 
C 5626 314 5594 160 5446 160 
C 5363 160 5030 160 4954 160 
C 4787 160 4768 205 4768 518 
L 4768 1165 
L 5242 1165 
L 5242 928 
L 5939 928 
L 5939 3462 
L 5242 3462 
L 5242 1875 
L 4768 1875 
L 4768 4058 
C 5248 4154 5709 4269 6099 4416 
L 5619 5050 
C 5376 4954 5088 4864 4768 4781 
L 4768 5440 
L 4051 5440 
L 4051 4627 
C 3648 4544 3226 4480 2810 4435 
C 2566 4755 2144 5152 1811 5440 
L 1178 5440 
z
M 992 3859 
C 1242 4154 1440 4454 1594 4730 
C 1862 4467 2144 4122 2317 3859 
L 992 3859 
z
" transform="scale(0.015625)"/>
     </defs>
     <use xlink:href="#NotoSansCJKjp-Bold-2a94"/>
     <use xlink:href="#NotoSansCJKjp-Bold-926e" transform="translate(100 0)"/>
     <use xlink:href="#NotoSansCJKjp-Bold-e6ae" transform="translate(200 0)"/>
     <use xlink:href="#NotoSansCJKjp-Bold-2509" transform="translate(300 0)"/>
     <use xlink:href="#NotoSansCJKjp-Bold-a2ad" transform="translate(400 0)"/>
     <use xlink:href="#NotoSansCJKjp-Bold-2509" transform="translate(500 0)"/>
     <use xlink:href="#NotoSansCJKjp-Bold-a177" transform="translate(600 0)"/>
     <use xlink:href="#NotoSansCJKjp-Bold-e6af" transform="translate(700 0)"/>
    </g>
   </g>
   <g id="text_24">
    <!-- b·sin A &lt; a &lt; b -->
    <g style="fill: #d1242f" transform="translate(377.256758 49.514) scale(0.115 -0.115)">
     <use xlink:href="#NotoSansCJKjp-Regular-43"/>
     <use xlink:href="#NotoSansCJKjp-Regular-75" transform="translate(61.796875 0)"/>
     <use xlink:href="#NotoSansCJKjp-Regular-54" transform="translate(117.890625 0)"/>
     <use xlink:href="#NotoSansCJKjp-Regular-4a" transform="translate(164.6875 0)"/>
     <use xlink:href="#NotoSansCJKjp-Regular-4f" transform="translate(192.1875 0)"/>
     <use xlink:href="#NotoSansCJKjp-Regular-1" transform="translate(253.1875 0)"/>
     <use xlink:href="#NotoSansCJKjp-Regular-22" transform="translate(275.59375 0)"/>
     <use xlink:href="#NotoSansCJKjp-Regular-1" transform="translate(336.390625 0)"/>
     <use xlink:href="#NotoSansCJKjp-Regular-1d" transform="translate(358.796875 0)"/>
     <use xlink:href="#NotoSansCJKjp-Regular-1" transform="translate(414.296875 0)"/>
     <use xlink:href="#NotoSansCJKjp-Regular-42" transform="translate(436.703125 0)"/>
     <use xlink:href="#NotoSansCJKjp-Regular-1" transform="translate(493 0)"/>
     <use xlink:href="#NotoSansCJKjp-Regular-1d" transform="translate(515.40625 0)"/>
     <use xlink:href="#NotoSansCJKjp-Regular-1" transform="translate(570.90625 0)"/>
     <use xlink:href="#NotoSansCJKjp-Regular-43" transform="translate(593.3125 0)"/>
    </g>
   </g>
   <g id="text_25">
    <!-- 固定角 A 與邊 b；以 C 為圓心、半徑 a 畫弧（紅）。弧與底邊的交點（綠點）即三角形解；高 h = b·sin A。 -->
    <g style="fill: #6b7280" transform="translate(7.2 180.865769) scale(0.105 -0.105)">
     <defs>
      <path id="NotoSansCJKjp-Regular-337e" d="M 2304 2106 
L 4141 2106 
L 4141 1184 
L 2304 1184 
L 2304 2106 
z
M 1875 2483 
L 1875 806 
L 4595 806 
L 4595 2483 
L 3430 2483 
L 3430 3219 
L 5005 3219 
L 5005 3622 
L 3430 3622 
L 3430 4358 
L 2970 4358 
L 2970 3622 
L 1459 3622 
L 1459 3219 
L 2970 3219 
L 2970 2483 
L 1875 2483 
z
M 570 5075 
L 570 -525 
L 1050 -525 
L 1050 -224 
L 5350 -224 
L 5350 -525 
L 5850 -525 
L 5850 5075 
L 570 5075 
z
M 1050 224 
L 1050 4627 
L 5350 4627 
L 5350 224 
L 1050 224 
z
" transform="scale(0.015625)"/>
      <path id="NotoSansCJKjp-Regular-3c8a" d="M 1421 2413 
C 1286 1248 934 333 224 -218 
C 339 -294 538 -461 621 -544 
C 1037 -179 1350 307 1574 896 
C 2163 -198 3117 -422 4454 -422 
L 5952 -422 
C 5971 -282 6061 -51 6131 64 
C 5818 58 4717 58 4480 58 
C 4109 58 3757 77 3443 134 
L 3443 1440 
L 5350 1440 
L 5350 1888 
L 3443 1888 
L 3443 2957 
L 5088 2957 
L 5088 3418 
L 1350 3418 
L 1350 2957 
L 2944 2957 
L 2944 269 
C 2419 461 2016 832 1760 1504 
C 1824 1766 1882 2054 1920 2355 
L 1421 2413 
z
M 525 4640 
L 525 3245 
L 998 3245 
L 998 4186 
L 5382 4186 
L 5382 3245 
L 5875 3245 
L 5875 4640 
L 3443 4640 
L 3443 5376 
L 2938 5376 
L 2938 4640 
L 525 4640 
z
" transform="scale(0.015625)"/>
      <path id="NotoSansCJKjp-Regular-9248" d="M 1696 3482 
L 3110 3482 
L 3110 2630 
L 1696 2630 
L 1696 3482 
z
M 1696 3910 
L 1683 3910 
C 1888 4134 2074 4365 2234 4595 
L 3795 4595 
C 3667 4365 3501 4109 3341 3910 
L 1696 3910 
z
M 5101 3482 
L 5101 2630 
L 3571 2630 
L 3571 3482 
L 5101 3482 
z
M 2157 5395 
C 1837 4749 1222 3955 358 3373 
C 474 3302 627 3149 704 3034 
C 890 3168 1062 3309 1222 3450 
L 1222 2310 
C 1222 1498 1120 506 211 -198 
C 307 -269 480 -442 550 -544 
C 1062 -147 1357 371 1517 902 
L 5101 902 
L 5101 102 
C 5101 -19 5062 -58 4922 -64 
C 4774 -70 4275 -70 3757 -58 
C 3827 -186 3917 -390 3942 -525 
C 4595 -525 5011 -518 5254 -442 
C 5491 -365 5574 -218 5574 96 
L 5574 3910 
L 3872 3910 
C 4096 4192 4314 4518 4461 4813 
L 4134 5024 
L 4058 4998 
L 2502 4998 
L 2675 5299 
L 2157 5395 
z
M 1696 2214 
L 3110 2214 
L 3110 1325 
L 1613 1325 
C 1670 1632 1690 1933 1696 2214 
z
M 5101 2214 
L 5101 1325 
L 3571 1325 
L 3571 2214 
L 5101 2214 
z
" transform="scale(0.015625)"/>
      <path id="NotoSansCJKjp-Regular-8241" d="M 3795 563 
C 4480 218 5210 -211 5638 -531 
L 6093 -198 
C 5619 115 4845 544 4141 883 
L 3795 563 
z
M 2125 870 
C 1722 512 954 70 339 -186 
C 454 -275 621 -429 704 -525 
C 1306 -250 2067 179 2573 576 
L 2125 870 
z
M 288 1414 
L 288 966 
L 6131 966 
L 6131 1414 
L 5459 1414 
C 5517 2355 5549 3853 5555 4973 
L 4186 4973 
L 4186 4544 
L 5114 4544 
L 5107 3795 
L 4256 3795 
L 4256 3386 
L 5094 3386 
L 5069 2598 
L 4237 2598 
L 4237 2189 
L 5056 2189 
L 5011 1414 
L 3936 1414 
L 3936 3584 
L 2925 3584 
L 2925 4256 
L 4058 4256 
L 4058 4666 
L 2925 4666 
L 2925 5318 
L 2502 5318 
L 2502 3194 
L 3514 3194 
L 3514 1414 
L 2893 1414 
L 2893 2912 
L 2496 2912 
L 2496 1414 
L 1382 1414 
L 1357 2195 
L 2182 2195 
L 2182 2598 
L 1344 2598 
L 1318 3386 
L 2176 3386 
L 2176 3795 
L 1306 3795 
L 1280 4474 
C 1645 4614 2048 4800 2381 4973 
L 2003 5318 
C 1792 5171 1466 4986 1146 4832 
L 826 4928 
L 947 1414 
L 288 1414 
z
" transform="scale(0.015625)"/>
      <path id="NotoSansCJKjp-Regular-9e93" d="M 531 5005 
C 902 4794 1338 4467 1530 4218 
L 1869 4544 
C 1664 4787 1222 5101 851 5299 
L 531 5005 
z
M 307 3699 
C 698 3501 1152 3174 1363 2938 
L 1683 3270 
C 1466 3514 1005 3814 621 4006 
L 307 3699 
z
M 2880 4314 
L 5043 4314 
L 5043 4045 
L 2880 4045 
L 2880 4314 
z
M 2880 3802 
L 5043 3802 
L 5043 3520 
L 2880 3520 
L 2880 3802 
z
M 2880 4819 
L 5043 4819 
L 5043 4550 
L 2880 4550 
L 2880 4819 
z
M 1542 2400 
L 275 2400 
L 275 1952 
L 1075 1952 
L 1075 717 
C 794 454 474 198 211 0 
L 461 -467 
C 774 -186 1069 90 1344 365 
C 1754 -141 2342 -365 3200 -397 
C 3923 -422 5299 -410 6016 -378 
C 6035 -237 6112 -19 6170 90 
C 5395 38 3910 19 3194 51 
C 2432 77 1856 294 1542 768 
L 1542 2400 
z
M 1946 3008 
L 1946 2355 
L 2368 2355 
L 2368 2733 
L 3213 2733 
C 3098 2419 2790 2266 2118 2176 
C 2189 2112 2285 1978 2317 1894 
C 3091 2035 3443 2266 3571 2733 
L 4115 2733 
L 4115 2496 
C 4115 2170 4205 2093 4589 2093 
C 4659 2093 5056 2093 5126 2093 
C 5382 2093 5485 2176 5517 2496 
C 5421 2522 5280 2560 5210 2611 
C 5197 2400 5171 2374 5069 2374 
C 4992 2374 4691 2374 4634 2374 
C 4499 2374 4486 2387 4486 2496 
L 4486 2733 
L 5562 2733 
L 5562 2355 
L 5997 2355 
L 5997 3008 
L 4134 3008 
L 4134 3277 
L 5510 3277 
L 5510 5062 
L 4064 5062 
C 4115 5139 4173 5229 4224 5325 
L 3731 5389 
C 3706 5299 3654 5178 3603 5062 
L 2426 5062 
L 2426 3277 
L 3686 3277 
L 3686 3008 
L 1946 3008 
z
M 1926 1843 
L 1926 1542 
L 3219 1542 
C 3091 1062 2765 762 1952 589 
C 2042 518 2150 352 2189 256 
C 2835 416 3206 659 3424 1005 
L 4922 1005 
C 4858 749 4800 614 4730 557 
C 4678 518 4627 518 4518 518 
C 4410 512 4128 518 3840 550 
C 3885 461 3923 333 3930 256 
C 4237 230 4525 224 4666 230 
C 4826 237 4934 256 5043 333 
C 5184 442 5274 666 5363 1133 
C 5382 1190 5389 1293 5389 1293 
L 3565 1293 
C 3597 1370 3622 1453 3642 1542 
L 6054 1542 
L 6054 1843 
L 4134 1843 
L 4134 2234 
L 3693 2234 
L 3693 1843 
L 1926 1843 
z
" transform="scale(0.015625)"/>
      <path id="NotoSansCJKjp-Regular-e6c1" d="M 3200 3482 
C 3456 3482 3686 3667 3686 3962 
C 3686 4256 3456 4442 3200 4442 
C 2944 4442 2714 4256 2714 3962 
C 2714 3667 2944 3482 3200 3482 
z
M 2682 -659 
C 3366 -397 3789 141 3789 883 
C 3789 1363 3590 1664 3238 1664 
C 2982 1664 2752 1504 2752 1203 
C 2752 896 2970 742 3232 742 
L 3347 755 
C 3328 256 3053 -83 2534 -320 
L 2682 -659 
z
" transform="scale(0.015625)"/>
      <path id="NotoSansCJKjp-Regular-2653" d="M 2336 4371 
C 2739 3898 3155 3238 3322 2797 
L 3782 3040 
C 3603 3482 3187 4109 2765 4576 
L 2336 4371 
z
M 1005 5030 
L 1114 1043 
C 781 902 480 781 230 685 
L 403 186 
C 1107 493 2086 922 2976 1325 
L 2867 1792 
L 1600 1248 
L 1498 5050 
L 1005 5030 
z
M 4954 5050 
C 4672 2259 3994 698 1779 -115 
C 1894 -218 2093 -422 2163 -531 
C 3168 -109 3872 448 4371 1210 
C 4915 634 5510 -45 5805 -493 
L 6214 -115 
C 5882 358 5203 1075 4634 1658 
C 5075 2522 5325 3616 5478 4998 
L 4954 5050 
z
" transform="scale(0.015625)"/>
      <path id="NotoSansCJKjp-Regular-24" d="M 2413 -83 
C 3021 -83 3482 160 3853 589 
L 3526 966 
C 3226 634 2886 435 2438 435 
C 1542 435 979 1178 979 2362 
C 979 3533 1574 4256 2458 4256 
C 2861 4256 3168 4077 3418 3814 
L 3738 4198 
C 3469 4499 3021 4774 2451 4774 
C 1261 4774 371 3859 371 2342 
C 371 819 1242 -83 2413 -83 
z
" transform="scale(0.015625)"/>
      <path id="NotoSansCJKjp-Regular-61a1" d="M 4083 1197 
C 4275 934 4474 563 4550 326 
L 4902 474 
C 4826 704 4621 1069 4416 1325 
L 4083 1197 
z
M 1312 5184 
C 1562 4915 1830 4544 1946 4294 
L 2387 4499 
C 2259 4742 1978 5107 1734 5357 
L 1312 5184 
z
M 2182 1043 
C 2298 627 2368 96 2349 -250 
L 2771 -186 
C 2771 160 2707 685 2579 1094 
L 2182 1043 
z
M 3130 1101 
C 3283 742 3437 275 3482 -26 
L 3885 83 
C 3827 378 3674 838 3501 1184 
L 3130 1101 
z
M 1363 1184 
C 1242 691 992 122 640 -218 
L 1011 -474 
C 1395 -90 1619 525 1766 1056 
L 1363 1184 
z
M 3251 5382 
C 3142 5011 3008 4640 2848 4282 
L 525 4282 
L 525 3840 
L 2637 3840 
C 2086 2765 1280 1798 192 1178 
C 275 1075 397 890 454 774 
C 832 998 1178 1254 1491 1542 
L 5472 1542 
C 5370 525 5267 96 5126 -32 
C 5069 -90 5005 -96 4890 -96 
C 4768 -102 4461 -96 4134 -64 
C 4211 -192 4269 -378 4275 -506 
C 4608 -525 4922 -525 5088 -512 
C 5280 -499 5402 -461 5523 -333 
C 5728 -128 5843 410 5965 1760 
C 5971 1824 5984 1965 5984 1965 
L 5286 1965 
C 5370 2298 5459 2746 5530 3123 
L 4800 3123 
C 4883 3456 4979 3898 5050 4282 
L 3373 4282 
C 3507 4602 3629 4928 3738 5261 
L 3251 5382 
z
M 1914 1965 
C 2125 2195 2323 2445 2502 2701 
L 5005 2701 
C 4960 2445 4896 2182 4838 1965 
L 1914 1965 
z
M 3168 3840 
L 4518 3840 
C 4467 3584 4410 3328 4352 3123 
L 2778 3123 
C 2918 3354 3046 3597 3168 3840 
z
" transform="scale(0.015625)"/>
      <path id="NotoSansCJKjp-Regular-33a8" d="M 2330 4013 
L 4051 4013 
L 4051 3648 
L 2330 3648 
L 2330 4013 
z
M 1926 4282 
L 1926 3373 
L 4474 3373 
L 4474 4282 
L 1926 4282 
z
M 2061 2304 
L 4301 2304 
L 4301 2003 
L 2061 2003 
L 2061 2304 
z
M 2061 1741 
L 4301 1741 
L 4301 1427 
L 2061 1427 
L 2061 1741 
z
M 2061 2861 
L 4301 2861 
L 4301 2566 
L 2061 2566 
L 2061 2861 
z
M 3482 966 
C 3923 800 4390 570 4653 390 
L 5050 582 
C 4749 768 4237 992 3782 1158 
L 4730 1158 
L 4730 3130 
L 1651 3130 
L 1651 1158 
L 2509 1158 
C 2221 966 1760 800 1338 678 
C 1421 608 1568 467 1632 397 
C 2048 544 2560 800 2886 1043 
L 2541 1158 
L 3757 1158 
L 3482 966 
z
M 525 5082 
L 525 -531 
L 986 -531 
L 986 -230 
L 5402 -230 
L 5402 -531 
L 5875 -531 
L 5875 5082 
L 525 5082 
z
M 986 205 
L 986 4640 
L 5402 4640 
L 5402 205 
L 986 205 
z
" transform="scale(0.015625)"/>
      <path id="NotoSansCJKjp-Regular-444f" d="M 1952 3590 
L 1952 378 
C 1952 -250 2144 -429 2829 -429 
C 2970 -429 3923 -429 4077 -429 
C 4774 -429 4928 -70 4998 1139 
C 4858 1178 4659 1267 4544 1357 
C 4493 250 4435 19 4051 19 
C 3834 19 3034 19 2867 19 
C 2515 19 2445 70 2445 371 
L 2445 3590 
L 1952 3590 
z
M 2003 4979 
C 2771 4704 3706 4224 4198 3859 
L 4512 4282 
C 4006 4621 3072 5088 2304 5350 
L 2003 4979 
z
M 883 3072 
C 787 2240 582 1306 154 742 
L 589 486 
C 1043 1101 1248 2118 1344 2976 
L 883 3072 
z
M 4614 3072 
C 5152 2349 5632 1350 5779 678 
L 6253 902 
C 6099 1581 5619 2554 5043 3283 
L 4614 3072 
z
" transform="scale(0.015625)"/>
      <path id="NotoSansCJKjp-Regular-575" d="M 1747 -358 
L 2182 13 
C 1786 480 1210 1062 749 1434 
L 333 1069 
C 787 698 1338 147 1747 -358 
z
" transform="scale(0.015625)"/>
      <path id="NotoSansCJKjp-Regular-2d90" d="M 941 5037 
C 1242 4582 1555 3968 1677 3590 
L 2138 3789 
C 2010 4173 1683 4768 1376 5210 
L 941 5037 
z
M 4986 5229 
C 4800 4774 4467 4141 4198 3757 
L 4621 3590 
C 4890 3968 5229 4550 5491 5050 
L 4986 5229 
z
M 2931 5382 
L 2931 3302 
L 755 3302 
L 755 2829 
L 2931 2829 
L 2931 1798 
L 339 1798 
L 339 1318 
L 2931 1318 
L 2931 -499 
L 3430 -499 
L 3430 1318 
L 6067 1318 
L 6067 1798 
L 3430 1798 
L 3430 2829 
L 5696 2829 
L 5696 3302 
L 3430 3302 
L 3430 5382 
L 2931 5382 
z
" transform="scale(0.015625)"/>
      <path id="NotoSansCJKjp-Regular-43fa" d="M 2259 5043 
L 2259 4608 
L 6080 4608 
L 6080 5043 
L 2259 5043 
z
M 2918 4378 
C 2771 4070 2477 3590 2202 3200 
C 2547 2758 2861 2259 3008 1926 
L 3430 2061 
C 3283 2368 2976 2829 2682 3206 
C 2906 3526 3168 3917 3354 4269 
L 2918 4378 
z
M 4122 4371 
C 3955 4064 3648 3584 3366 3194 
C 3731 2752 4070 2259 4230 1920 
L 4653 2067 
C 4493 2368 4166 2829 3853 3200 
C 4083 3526 4358 3910 4550 4262 
L 4122 4371 
z
M 5338 4371 
C 5165 4070 4845 3584 4550 3194 
C 4947 2752 5331 2259 5510 1920 
L 5933 2074 
C 5747 2368 5382 2842 5037 3206 
C 5286 3533 5562 3904 5766 4256 
L 5338 4371 
z
M 1562 5376 
C 1280 4922 710 4371 211 4032 
C 288 3949 416 3776 474 3680 
C 1024 4070 1619 4666 1997 5203 
L 1562 5376 
z
M 1914 90 
L 1914 -352 
L 6150 -352 
L 6150 90 
L 4320 90 
L 4320 1267 
L 5837 1267 
L 5837 1690 
L 2336 1690 
L 2336 1267 
L 3840 1267 
L 3840 90 
L 1914 90 
z
M 1715 4070 
C 1338 3392 723 2726 134 2285 
C 218 2189 358 1958 410 1862 
C 646 2054 896 2291 1133 2547 
L 1133 -506 
L 1587 -506 
L 1587 3085 
C 1798 3354 1984 3635 2144 3917 
L 1715 4070 
z
" transform="scale(0.015625)"/>
      <path id="NotoSansCJKjp-Regular-6a14" d="M 333 13 
L 333 -326 
L 6080 -326 
L 6080 13 
L 333 13 
z
M 1062 1818 
L 1062 314 
L 5376 314 
L 5376 1818 
L 1062 1818 
z
M 1530 934 
L 2950 934 
L 2950 595 
L 1530 595 
L 1530 934 
z
M 3405 934 
L 4890 934 
L 4890 595 
L 3405 595 
L 3405 934 
z
M 1530 1536 
L 2950 1536 
L 2950 1210 
L 1530 1210 
L 1530 1536 
z
M 3405 1536 
L 4890 1536 
L 4890 1210 
L 3405 1210 
L 3405 1536 
z
M 4883 4051 
L 4883 3699 
L 3418 3699 
L 3418 4051 
L 4883 4051 
z
M 2931 5382 
L 2931 4986 
L 1024 4986 
L 1024 4685 
L 2931 4685 
L 2931 4358 
L 346 4358 
L 346 4051 
L 2931 4051 
L 2931 3699 
L 986 3699 
L 986 3398 
L 2931 3398 
L 2931 3072 
L 826 3072 
L 826 2771 
L 2931 2771 
L 2931 2432 
L 333 2432 
L 333 2099 
L 6086 2099 
L 6086 2432 
L 3418 2432 
L 3418 2771 
L 5619 2771 
L 5619 3072 
L 3418 3072 
L 3418 3398 
L 5363 3398 
L 5363 4051 
L 6061 4051 
L 6061 4358 
L 5363 4358 
L 5363 4986 
L 3418 4986 
L 3418 5382 
L 2931 5382 
z
M 4883 4358 
L 3418 4358 
L 3418 4685 
L 4883 4685 
L 4883 4358 
z
" transform="scale(0.015625)"/>
      <path id="NotoSansCJKjp-Regular-433a" d="M 5504 5363 
C 4915 5126 3872 4896 2950 4736 
L 2605 4870 
L 2605 3034 
C 2605 2067 2547 781 1990 -211 
C 2099 -269 2259 -410 2323 -512 
C 2938 563 3027 2022 3027 3027 
L 3027 4352 
C 3686 4448 4410 4582 5037 4742 
C 5114 2528 5267 570 5901 -499 
C 5984 -378 6150 -205 6259 -128 
C 5651 813 5491 2765 5421 4851 
C 5587 4896 5741 4947 5888 4998 
L 5504 5363 
z
M 3795 4384 
L 3795 429 
L 2906 320 
L 2982 -128 
L 4928 160 
C 4966 -38 5005 -230 5024 -390 
L 5357 -288 
C 5286 205 5088 954 4890 1536 
L 4576 1434 
C 4666 1165 4755 864 4832 563 
L 4211 480 
L 4211 4384 
L 3795 4384 
z
M 486 3635 
C 454 3021 365 2208 282 1709 
L 710 1632 
L 749 1926 
L 1645 1926 
C 1581 640 1504 141 1382 19 
C 1325 -45 1267 -58 1158 -51 
C 1037 -51 736 -51 416 -26 
C 493 -154 550 -352 563 -493 
C 870 -512 1178 -512 1344 -493 
C 1536 -480 1651 -442 1766 -301 
C 1946 -90 2022 518 2099 2138 
C 2106 2202 2106 2349 2106 2349 
L 800 2349 
L 883 3194 
L 2106 3194 
L 2106 5043 
L 384 5043 
L 384 4608 
L 1645 4608 
L 1645 3635 
L 486 3635 
z
" transform="scale(0.015625)"/>
      <path id="NotoSansCJKjp-Regular-e6ae" d="M 4448 2432 
C 4448 1184 4954 166 5722 -614 
L 6106 -416 
C 5370 346 4915 1293 4915 2432 
C 4915 3571 5370 4518 6106 5280 
L 5722 5478 
C 4954 4698 4448 3680 4448 2432 
z
" transform="scale(0.015625)"/>
      <path id="NotoSansCJKjp-Regular-785e" d="M 2278 1632 
C 2477 1216 2682 678 2758 320 
L 3174 474 
C 3098 826 2886 1357 2675 1766 
L 2278 1632 
z
M 685 1728 
C 602 1165 448 589 218 205 
C 326 154 531 58 627 -6 
C 851 403 1030 1030 1133 1645 
L 685 1728 
z
M 2682 179 
L 2682 -282 
L 6150 -282 
L 6150 179 
L 4717 179 
L 4717 4237 
L 6048 4237 
L 6048 4691 
L 2944 4691 
L 2944 4237 
L 4218 4237 
L 4218 179 
L 2682 179 
z
M 237 2573 
L 288 2112 
L 1485 2189 
L 1485 -512 
L 1958 -512 
L 1958 2221 
L 2746 2272 
C 2822 2125 2893 1984 2938 1869 
L 3315 2080 
C 3168 2432 2816 2976 2496 3379 
L 2144 3200 
C 2266 3040 2387 2861 2502 2675 
L 1280 2618 
C 1754 3155 2291 3866 2694 4461 
L 2253 4678 
C 2048 4326 1773 3904 1485 3507 
C 1363 3648 1203 3802 1037 3955 
C 1306 4301 1626 4787 1875 5203 
L 1421 5382 
C 1267 5030 998 4563 755 4211 
L 499 4416 
L 262 4096 
C 595 3827 973 3450 1216 3155 
C 1056 2950 902 2758 749 2592 
L 237 2573 
z
" transform="scale(0.015625)"/>
      <path id="NotoSansCJKjp-Regular-e6af" d="M 1952 2432 
C 1952 3680 1446 4698 678 5478 
L 294 5280 
C 1030 4518 1485 3571 1485 2432 
C 1485 1293 1030 346 294 -416 
L 678 -614 
C 1446 166 1952 1184 1952 2432 
z
" transform="scale(0.015625)"/>
      <path id="NotoSansCJKjp-Regular-576" d="M 1242 1562 
C 710 1562 269 1126 269 589 
C 269 45 710 -390 1242 -390 
C 1786 -390 2221 45 2221 589 
C 2221 1126 1786 1562 1242 1562 
z
M 1242 -64 
C 890 -64 595 224 595 589 
C 595 941 890 1235 1242 1235 
C 1606 1235 1894 941 1894 589 
C 1894 224 1606 -64 1242 -64 
z
" transform="scale(0.015625)"/>
      <path id="NotoSansCJKjp-Regular-4213" d="M 1446 26 
L 1446 -403 
L 4314 -403 
L 4314 26 
L 1446 26 
z
M 5139 4122 
C 4493 3930 3360 3750 2349 3648 
L 1997 3750 
L 1997 902 
L 1382 838 
L 1440 397 
C 2118 480 3078 589 3994 710 
L 3987 1133 
L 2451 954 
L 2451 2099 
L 3987 2099 
C 4179 634 4634 -358 5446 -358 
C 5869 -365 6042 -115 6112 781 
C 5990 819 5824 909 5722 998 
C 5696 358 5638 96 5478 96 
C 4973 90 4614 870 4448 2099 
L 6067 2099 
L 6067 2528 
L 4403 2528 
C 4378 2835 4358 3168 4352 3514 
C 4781 3590 5178 3680 5510 3776 
L 5139 4122 
z
M 2451 2528 
L 2451 3264 
C 2912 3309 3411 3366 3885 3437 
C 3891 3123 3910 2816 3942 2528 
L 2451 2528 
z
M 774 4730 
L 774 2880 
C 774 1952 730 646 198 -269 
C 314 -320 512 -448 595 -531 
C 1152 435 1235 1888 1235 2880 
L 1235 4294 
L 6093 4294 
L 6093 4730 
L 3635 4730 
L 3635 5376 
L 3142 5376 
L 3142 4730 
L 774 4730 
z
" transform="scale(0.015625)"/>
      <path id="NotoSansCJKjp-Regular-6c33" d="M 3533 2707 
C 3885 2240 4320 1600 4512 1210 
L 4922 1466 
C 4710 1843 4269 2464 3904 2918 
L 3533 2707 
z
M 1536 5389 
C 1485 5082 1376 4659 1274 4346 
L 557 4346 
L 557 -346 
L 998 -346 
L 998 160 
L 2784 160 
L 2784 4346 
L 1715 4346 
C 1824 4621 1946 4979 2054 5299 
L 1536 5389 
z
M 998 3917 
L 2342 3917 
L 2342 2566 
L 998 2566 
L 998 3917 
z
M 998 595 
L 998 2144 
L 2342 2144 
L 2342 595 
L 998 595 
z
M 3827 5402 
C 3622 4518 3277 3635 2835 3066 
C 2950 3002 3149 2867 3238 2790 
C 3456 3098 3661 3488 3840 3923 
L 5478 3923 
C 5402 1357 5299 371 5094 154 
C 5018 64 4947 45 4819 45 
C 4672 45 4288 51 3866 83 
C 3955 -38 4013 -243 4026 -378 
C 4384 -397 4762 -410 4979 -390 
C 5210 -365 5350 -314 5498 -122 
C 5754 192 5843 1184 5939 4122 
C 5946 4186 5946 4365 5946 4365 
L 4013 4365 
C 4115 4666 4211 4986 4288 5299 
L 3827 5402 
z
" transform="scale(0.015625)"/>
      <path id="NotoSansCJKjp-Regular-25eb" d="M 2035 3878 
C 1645 3328 973 2803 346 2470 
C 461 2374 653 2189 736 2086 
C 1357 2470 2074 3078 2528 3693 
L 2035 3878 
z
M 3955 3610 
C 4570 3187 5312 2566 5651 2144 
L 6074 2483 
C 5702 2906 4954 3501 4346 3898 
L 3955 3610 
z
M 2298 2739 
L 1843 2598 
C 2093 1978 2426 1446 2842 1005 
C 2170 480 1299 141 256 -77 
C 352 -192 506 -416 563 -538 
C 1606 -275 2496 102 3200 666 
C 3885 83 4762 -307 5850 -512 
C 5920 -378 6061 -166 6170 -58 
C 5107 115 4243 474 3578 998 
C 4019 1440 4378 1978 4634 2630 
L 4128 2778 
C 3917 2195 3610 1722 3213 1325 
C 2816 1722 2509 2195 2298 2739 
z
M 2944 5382 
L 2944 4544 
L 390 4544 
L 390 4070 
L 6010 4070 
L 6010 4544 
L 3430 4544 
L 3430 5382 
L 2944 5382 
z
" transform="scale(0.015625)"/>
      <path id="NotoSansCJKjp-Regular-b7c4" d="M 966 4474 
C 1069 4166 1152 3757 1165 3494 
L 1421 3565 
C 1402 3821 1312 4230 1203 4538 
L 966 4474 
z
M 1178 813 
C 1267 454 1338 0 1331 -307 
L 1664 -262 
C 1664 38 1594 499 1498 851 
L 1178 813 
z
M 1792 851 
C 1939 518 2067 90 2106 -192 
L 2432 -115 
C 2387 166 2246 589 2099 915 
L 1792 851 
z
M 2406 934 
C 2618 634 2848 224 2938 -45 
L 3258 96 
C 3162 365 2931 762 2701 1056 
L 2406 934 
z
M 634 838 
C 582 390 454 -70 205 -333 
L 538 -512 
C 806 -224 915 269 973 742 
L 634 838 
z
M 2272 4557 
C 2214 4262 2086 3808 1997 3533 
L 2202 3456 
C 2317 3706 2445 4122 2554 4454 
L 2272 4557 
z
M 4314 5363 
L 4314 2330 
L 3379 2330 
L 3379 -506 
L 3827 -506 
L 3827 -211 
L 5440 -211 
L 5440 -480 
L 5901 -480 
L 5901 2330 
L 4781 2330 
L 4781 3526 
L 6150 3526 
L 6150 3974 
L 4781 3974 
L 4781 5363 
L 4314 5363 
z
M 3827 237 
L 3827 1894 
L 5440 1894 
L 5440 237 
L 3827 237 
z
M 877 4794 
L 1568 4794 
L 1568 3245 
L 877 3245 
L 877 4794 
z
M 1894 4794 
L 2637 4794 
L 2637 3245 
L 1894 3245 
L 1894 4794 
z
M 448 2451 
L 448 2067 
L 1517 2067 
L 1517 1568 
L 314 1510 
L 333 1088 
C 1075 1133 2138 1203 3155 1274 
L 3168 1658 
L 1946 1594 
L 1946 2067 
L 3072 2067 
L 3072 2451 
L 1946 2451 
L 1946 2893 
L 3027 2893 
L 3027 5146 
L 493 5146 
L 493 2893 
L 1517 2893 
L 1517 2451 
L 448 2451 
z
" transform="scale(0.015625)"/>
      <path id="NotoSansCJKjp-Regular-7997" d="M 2739 2074 
C 3021 1824 3334 1459 3475 1216 
L 3821 1510 
C 3674 1754 3347 2093 3066 2330 
L 2739 2074 
z
M 2362 230 
L 2611 -192 
C 3021 90 3507 435 3962 774 
L 3814 1133 
C 3283 787 2726 435 2362 230 
z
M 1894 1632 
C 2048 1261 2182 774 2214 454 
L 2592 576 
C 2547 890 2413 1370 2246 1734 
L 1894 1632 
z
M 570 1715 
C 493 1158 378 582 166 192 
C 269 154 454 70 538 13 
C 736 422 890 1043 973 1651 
L 570 1715 
z
M 3392 5376 
C 3264 4755 3046 3917 2880 3405 
L 3334 3334 
L 3398 3546 
L 4883 3546 
L 4781 3078 
L 2560 3078 
L 2560 2656 
L 4090 2656 
L 4090 -13 
C 4090 -90 4070 -109 3994 -115 
C 3917 -115 3667 -122 3392 -109 
C 3450 -230 3514 -403 3533 -525 
C 3910 -525 4160 -518 4320 -448 
C 4486 -378 4531 -262 4531 -19 
L 4531 1453 
C 4794 806 5216 166 5914 -218 
C 5978 -96 6125 90 6214 179 
C 5696 422 5325 806 5062 1248 
C 5376 1478 5747 1805 6048 2099 
L 5690 2387 
C 5491 2150 5158 1830 4877 1594 
C 4717 1939 4608 2310 4538 2656 
L 6080 2656 
L 6080 3078 
L 5235 3078 
C 5363 3642 5498 4326 5574 4838 
L 5242 4890 
L 5165 4864 
L 3744 4864 
L 3853 5318 
L 3392 5376 
z
M 3654 4486 
L 5056 4486 
L 4954 3923 
L 3507 3923 
L 3654 4486 
z
M 179 2547 
L 237 2118 
L 1248 2182 
L 1248 -512 
L 1670 -512 
L 1670 2208 
L 2176 2240 
C 2234 2086 2285 1946 2310 1824 
L 2694 2003 
C 2598 2349 2342 2906 2074 3322 
L 1722 3181 
C 1824 3014 1920 2829 2010 2637 
L 1088 2592 
C 1517 3136 2010 3866 2374 4454 
L 1971 4646 
C 1792 4301 1549 3878 1286 3475 
C 1190 3610 1075 3750 941 3898 
C 1178 4256 1459 4781 1677 5216 
L 1254 5376 
C 1120 5018 890 4531 685 4166 
L 486 4346 
L 237 4038 
C 525 3763 845 3398 1037 3104 
C 896 2912 762 2726 634 2566 
L 179 2547 
z
" transform="scale(0.015625)"/>
      <path id="NotoSansCJKjp-Regular-2dc9" d="M 1158 3341 
L 2630 3341 
L 2630 2547 
L 1158 2547 
L 1158 3341 
z
M 1158 3770 
L 1158 4582 
L 2630 4582 
L 2630 3770 
L 1158 3770 
z
M 1869 1606 
C 2035 1389 2208 1139 2362 883 
L 1158 544 
L 1158 2099 
L 3085 2099 
L 3085 5030 
L 698 5030 
L 698 422 
L 250 307 
L 410 -186 
L 2598 474 
C 2726 230 2835 0 2899 -186 
L 3322 32 
C 3149 518 2688 1248 2259 1798 
L 1869 1606 
z
M 3565 5024 
L 3565 -512 
L 4051 -512 
L 4051 4544 
L 5402 4544 
L 5402 1133 
C 5402 1037 5376 1011 5286 1011 
C 5184 1005 4877 998 4538 1018 
C 4614 870 4691 634 4710 486 
C 5152 486 5466 499 5651 589 
C 5843 685 5894 845 5894 1120 
L 5894 5024 
L 3565 5024 
z
" transform="scale(0.015625)"/>
      <path id="NotoSansCJKjp-Regular-2514" d="M 787 4755 
L 787 4269 
L 5626 4269 
L 5626 4755 
L 787 4755 
z
M 1197 2662 
L 1197 2182 
L 5126 2182 
L 5126 2662 
L 1197 2662 
z
M 416 442 
L 416 -45 
L 5978 -45 
L 5978 442 
L 416 442 
z
" transform="scale(0.015625)"/>
      <path id="NotoSansCJKjp-Regular-43ac" d="M 5414 5274 
C 5018 4755 4288 4211 3674 3904 
C 3795 3814 3936 3674 4019 3565 
C 4672 3923 5389 4499 5862 5088 
L 5414 5274 
z
M 5600 3507 
C 5171 2950 4397 2374 3738 2042 
C 3859 1946 4000 1798 4083 1702 
C 4768 2080 5542 2701 6035 3328 
L 5600 3507 
z
M 5747 1779 
C 5267 979 4358 269 3405 -122 
C 3533 -224 3674 -390 3750 -506 
C 4736 -51 5651 710 6195 1600 
L 5747 1779 
z
M 2586 4531 
L 2586 2874 
L 1555 2874 
L 1555 4531 
L 2586 4531 
z
M 262 2874 
L 262 2426 
L 1094 2426 
C 1069 1472 928 531 237 -230 
C 352 -294 518 -448 595 -550 
C 1363 288 1523 1350 1549 2426 
L 2586 2426 
L 2586 -506 
L 3059 -506 
L 3059 2426 
L 3750 2426 
L 3750 2874 
L 3059 2874 
L 3059 4531 
L 3667 4531 
L 3667 4979 
L 371 4979 
L 371 4531 
L 1101 4531 
L 1101 2874 
L 262 2874 
z
" transform="scale(0.015625)"/>
      <path id="NotoSansCJKjp-Regular-926e" d="M 1677 3379 
L 1677 2662 
L 1101 2662 
L 1101 3379 
L 1677 3379 
z
M 2029 3379 
L 2605 3379 
L 2605 2662 
L 2029 2662 
L 2029 3379 
z
M 1037 3750 
C 1152 3962 1261 4186 1357 4422 
L 2067 4422 
C 1984 4192 1875 3942 1779 3750 
L 1037 3750 
z
M 1210 5382 
C 1011 4595 659 3834 205 3341 
C 307 3277 493 3130 563 3053 
L 698 3219 
L 698 2048 
C 698 1325 653 371 218 -307 
C 314 -346 493 -454 563 -525 
C 864 -58 1005 576 1062 1171 
L 2605 1171 
L 2605 19 
C 2605 -70 2573 -96 2483 -96 
C 2400 -102 2106 -102 1779 -96 
C 1837 -205 1907 -390 1926 -506 
C 2374 -506 2630 -499 2797 -429 
C 2957 -352 3014 -218 3014 13 
L 3014 3219 
C 3110 3142 3219 2995 3270 2906 
C 4070 3258 4384 3885 4518 4646 
L 5536 4646 
C 5498 3898 5446 3597 5376 3514 
C 5331 3462 5280 3456 5184 3456 
C 5101 3456 4864 3462 4608 3482 
C 4672 3373 4710 3206 4723 3085 
C 4986 3066 5254 3066 5389 3078 
C 5549 3091 5651 3136 5734 3238 
C 5875 3392 5933 3802 5978 4870 
C 5984 4934 5990 5050 5990 5050 
L 3200 5050 
L 3200 4646 
L 4070 4646 
C 3955 4045 3699 3526 3014 3238 
L 3014 3750 
L 2202 3750 
C 2355 4026 2509 4352 2611 4646 
L 2330 4826 
L 2259 4806 
L 1504 4806 
C 1555 4966 1606 5126 1651 5286 
L 1210 5382 
z
M 1677 2298 
L 1677 1555 
L 1088 1555 
L 1101 2048 
L 1101 2298 
L 1677 2298 
z
M 2029 2298 
L 2605 2298 
L 2605 1555 
L 2029 1555 
L 2029 2298 
z
M 3642 2944 
C 3533 2406 3334 1869 3053 1504 
C 3162 1459 3347 1363 3430 1306 
C 3552 1478 3661 1690 3763 1926 
L 4480 1926 
L 4480 1152 
L 3123 1152 
L 3123 723 
L 4480 723 
L 4480 -486 
L 4934 -486 
L 4934 723 
L 6163 723 
L 6163 1152 
L 4934 1152 
L 4934 1926 
L 6048 1926 
L 6048 2349 
L 4934 2349 
L 4934 3002 
L 4480 3002 
L 4480 2349 
L 3917 2349 
C 3968 2515 4019 2694 4058 2867 
L 3642 2944 
z
" transform="scale(0.015625)"/>
      <path id="NotoSansCJKjp-Regular-b0d5" d="M 1939 3635 
L 4448 3635 
L 4448 3021 
L 1939 3021 
L 1939 3635 
z
M 1478 3987 
L 1478 2662 
L 4928 2662 
L 4928 3987 
L 1478 3987 
z
M 2918 5382 
L 2918 4768 
L 416 4768 
L 416 4346 
L 5978 4346 
L 5978 4768 
L 3411 4768 
L 3411 5382 
L 2918 5382 
z
M 704 2266 
L 704 -512 
L 1171 -512 
L 1171 1856 
L 5261 1856 
L 5261 70 
C 5261 -19 5235 -45 5120 -51 
C 5018 -58 4653 -58 4237 -45 
C 4301 -179 4371 -365 4390 -499 
C 4922 -499 5267 -499 5478 -422 
C 5683 -346 5741 -205 5741 64 
L 5741 2266 
L 704 2266 
z
M 2406 1088 
L 3994 1088 
L 3994 435 
L 2406 435 
L 2406 1088 
z
M 1984 1440 
L 1984 -243 
L 2406 -243 
L 2406 83 
L 4422 83 
L 4422 1440 
L 1984 1440 
z
" transform="scale(0.015625)"/>
      <path id="NotoSansCJKjp-Regular-49" d="M 589 0 
L 1178 0 
L 1178 2522 
C 1523 2874 1766 3053 2125 3053 
C 2586 3053 2784 2778 2784 2125 
L 2784 0 
L 3366 0 
L 3366 2202 
C 3366 3085 3034 3565 2304 3565 
C 1830 3565 1472 3302 1152 2982 
L 1178 3699 
L 1178 5094 
L 589 5094 
L 589 0 
z
" transform="scale(0.015625)"/>
     </defs>
     <use xlink:href="#NotoSansCJKjp-Regular-337e"/>
     <use xlink:href="#NotoSansCJKjp-Regular-3c8a" transform="translate(100 0)"/>
     <use xlink:href="#NotoSansCJKjp-Regular-9248" transform="translate(200 0)"/>
     <use xlink:href="#NotoSansCJKjp-Regular-1" transform="translate(300 0)"/>
     <use xlink:href="#NotoSansCJKjp-Regular-22" transform="translate(322.40625 0)"/>
     <use xlink:href="#NotoSansCJKjp-Regular-1" transform="translate(383.203125 0)"/>
     <use xlink:href="#NotoSansCJKjp-Regular-8241" transform="translate(405.609375 0)"/>
     <use xlink:href="#NotoSansCJKjp-Regular-9e93" transform="translate(505.609375 0)"/>
     <use xlink:href="#NotoSansCJKjp-Regular-1" transform="translate(605.609375 0)"/>
     <use xlink:href="#NotoSansCJKjp-Regular-43" transform="translate(628.015625 0)"/>
     <use xlink:href="#NotoSansCJKjp-Regular-e6c1" transform="translate(689.8125 0)"/>
     <use xlink:href="#NotoSansCJKjp-Regular-2653" transform="translate(789.8125 0)"/>
     <use xlink:href="#NotoSansCJKjp-Regular-1" transform="translate(889.8125 0)"/>
     <use xlink:href="#NotoSansCJKjp-Regular-24" transform="translate(912.21875 0)"/>
     <use xlink:href="#NotoSansCJKjp-Regular-1" transform="translate(976.015625 0)"/>
     <use xlink:href="#NotoSansCJKjp-Regular-61a1" transform="translate(998.421875 0)"/>
     <use xlink:href="#NotoSansCJKjp-Regular-33a8" transform="translate(1098.421875 0)"/>
     <use xlink:href="#NotoSansCJKjp-Regular-444f" transform="translate(1198.421875 0)"/>
     <use xlink:href="#NotoSansCJKjp-Regular-575" transform="translate(1298.421875 0)"/>
     <use xlink:href="#NotoSansCJKjp-Regular-2d90" transform="translate(1398.421875 0)"/>
     <use xlink:href="#NotoSansCJKjp-Regular-43fa" transform="translate(1498.421875 0)"/>
     <use xlink:href="#NotoSansCJKjp-Regular-1" transform="translate(1598.421875 0)"/>
     <use xlink:href="#NotoSansCJKjp-Regular-42" transform="translate(1620.828125 0)"/>
     <use xlink:href="#NotoSansCJKjp-Regular-1" transform="translate(1677.125 0)"/>
     <use xlink:href="#NotoSansCJKjp-Regular-6a14" transform="translate(1699.53125 0)"/>
     <use xlink:href="#NotoSansCJKjp-Regular-433a" transform="translate(1799.53125 0)"/>
     <use xlink:href="#NotoSansCJKjp-Regular-e6ae" transform="translate(1899.53125 0)"/>
     <use xlink:href="#NotoSansCJKjp-Regular-785e" transform="translate(1999.53125 0)"/>
     <use xlink:href="#NotoSansCJKjp-Regular-e6af" transform="translate(2099.53125 0)"/>
     <use xlink:href="#NotoSansCJKjp-Regular-576" transform="translate(2199.53125 0)"/>
     <use xlink:href="#NotoSansCJKjp-Regular-433a" transform="translate(2299.53125 0)"/>
     <use xlink:href="#NotoSansCJKjp-Regular-8241" transform="translate(2399.53125 0)"/>
     <use xlink:href="#NotoSansCJKjp-Regular-4213" transform="translate(2499.53125 0)"/>
     <use xlink:href="#NotoSansCJKjp-Regular-9e93" transform="translate(2599.53125 0)"/>
     <use xlink:href="#NotoSansCJKjp-Regular-6c33" transform="translate(2699.53125 0)"/>
     <use xlink:href="#NotoSansCJKjp-Regular-25eb" transform="translate(2799.53125 0)"/>
     <use xlink:href="#NotoSansCJKjp-Regular-b7c4" transform="translate(2899.53125 0)"/>
     <use xlink:href="#NotoSansCJKjp-Regular-e6ae" transform="translate(2999.53125 0)"/>
     <use xlink:href="#NotoSansCJKjp-Regular-7997" transform="translate(3099.53125 0)"/>
     <use xlink:href="#NotoSansCJKjp-Regular-b7c4" transform="translate(3199.53125 0)"/>
     <use xlink:href="#NotoSansCJKjp-Regular-e6af" transform="translate(3299.53125 0)"/>
     <use xlink:href="#NotoSansCJKjp-Regular-2dc9" transform="translate(3399.53125 0)"/>
     <use xlink:href="#NotoSansCJKjp-Regular-2514" transform="translate(3499.53125 0)"/>
     <use xlink:href="#NotoSansCJKjp-Regular-9248" transform="translate(3599.53125 0)"/>
     <use xlink:href="#NotoSansCJKjp-Regular-43ac" transform="translate(3699.53125 0)"/>
     <use xlink:href="#NotoSansCJKjp-Regular-926e" transform="translate(3799.53125 0)"/>
     <use xlink:href="#NotoSansCJKjp-Regular-e6c1" transform="translate(3899.53125 0)"/>
     <use xlink:href="#NotoSansCJKjp-Regular-b0d5" transform="translate(3999.53125 0)"/>
     <use xlink:href="#NotoSansCJKjp-Regular-1" transform="translate(4099.53125 0)"/>
     <use xlink:href="#NotoSansCJKjp-Regular-49" transform="translate(4121.9375 0)"/>
     <use xlink:href="#NotoSansCJKjp-Regular-1" transform="translate(4182.640625 0)"/>
     <use xlink:href="#NotoSansCJKjp-Regular-1e" transform="translate(4205.046875 0)"/>
     <use xlink:href="#NotoSansCJKjp-Regular-1" transform="translate(4260.546875 0)"/>
     <use xlink:href="#NotoSansCJKjp-Regular-43" transform="translate(4282.953125 0)"/>
     <use xlink:href="#NotoSansCJKjp-Regular-75" transform="translate(4344.75 0)"/>
     <use xlink:href="#NotoSansCJKjp-Regular-54" transform="translate(4400.84375 0)"/>
     <use xlink:href="#NotoSansCJKjp-Regular-4a" transform="translate(4447.640625 0)"/>
     <use xlink:href="#NotoSansCJKjp-Regular-4f" transform="translate(4475.140625 0)"/>
     <use xlink:href="#NotoSansCJKjp-Regular-1" transform="translate(4536.140625 0)"/>
     <use xlink:href="#NotoSansCJKjp-Regular-22" transform="translate(4558.546875 0)"/>
     <use xlink:href="#NotoSansCJKjp-Regular-576" transform="translate(4619.34375 0)"/>
    </g>
   </g>
   <g id="text_26">
    <!-- 正弦定理 SSA：邊 a 擺動造成無解／一解／兩解 -->
    <g style="fill: #222831" transform="translate(107.825547 19.52) scale(0.14 -0.14)">
     <defs>
      <path id="NotoSansCJKjp-Regular-585c" d="M 1203 3264 
L 1203 243 
L 333 243 
L 333 -224 
L 6080 -224 
L 6080 243 
L 3616 243 
L 3616 2259 
L 5619 2259 
L 5619 2726 
L 3616 2726 
L 3616 4435 
L 5869 4435 
L 5869 4909 
L 576 4909 
L 576 4435 
L 3110 4435 
L 3110 243 
L 1696 243 
L 1696 3264 
L 1203 3264 
z
" transform="scale(0.015625)"/>
      <path id="NotoSansCJKjp-Regular-4338" d="M 5056 3322 
C 4826 2886 4518 2387 4192 1894 
C 3994 2093 3738 2310 3462 2522 
C 3763 2938 4109 3482 4384 3942 
L 4358 3955 
L 6144 3955 
L 6144 4410 
L 4410 4410 
L 4410 5376 
L 3942 5376 
L 3942 4410 
L 2406 4410 
L 2406 3955 
L 3814 3955 
C 3629 3571 3373 3123 3130 2771 
L 2790 3008 
L 2509 2662 
C 2989 2323 3565 1850 3910 1478 
C 3603 1043 3283 621 2995 275 
L 2374 250 
L 2432 -230 
C 3245 -186 4410 -115 5542 -38 
C 5626 -218 5696 -390 5741 -531 
L 6182 -320 
C 6022 160 5581 890 5152 1434 
L 4742 1254 
C 4941 992 5146 691 5312 390 
L 3539 301 
C 4205 1114 4960 2202 5517 3098 
L 5056 3322 
z
M 538 3654 
C 486 3040 397 2221 301 1715 
L 749 1645 
L 787 1901 
L 1747 1901 
C 1683 634 1606 134 1485 6 
C 1427 -51 1376 -70 1261 -64 
C 1139 -64 826 -64 506 -32 
C 582 -160 640 -358 653 -493 
C 973 -512 1286 -512 1459 -499 
C 1651 -480 1773 -442 1888 -301 
C 2074 -90 2150 506 2227 2112 
C 2234 2182 2240 2330 2240 2330 
L 845 2330 
L 941 3200 
L 2234 3200 
L 2234 5126 
L 371 5126 
L 371 4678 
L 1773 4678 
L 1773 3654 
L 538 3654 
z
" transform="scale(0.015625)"/>
      <path id="NotoSansCJKjp-Regular-677c" d="M 3046 3456 
L 4026 3456 
L 4026 2630 
L 3046 2630 
L 3046 3456 
z
M 4442 3456 
L 5421 3456 
L 5421 2630 
L 4442 2630 
L 4442 3456 
z
M 3046 4659 
L 4026 4659 
L 4026 3846 
L 3046 3846 
L 3046 4659 
z
M 4442 4659 
L 5421 4659 
L 5421 3846 
L 4442 3846 
L 4442 4659 
z
M 2035 141 
L 2035 -301 
L 6189 -301 
L 6189 141 
L 4480 141 
L 4480 1024 
L 5971 1024 
L 5971 1459 
L 4480 1459 
L 4480 2214 
L 5882 2214 
L 5882 5082 
L 2605 5082 
L 2605 2214 
L 3987 2214 
L 3987 1459 
L 2528 1459 
L 2528 1024 
L 3987 1024 
L 3987 141 
L 2035 141 
z
M 224 640 
L 346 154 
C 909 339 1645 589 2336 819 
L 2253 1286 
L 1549 1050 
L 1549 2643 
L 2195 2643 
L 2195 3091 
L 1549 3091 
L 1549 4493 
L 2291 4493 
L 2291 4941 
L 294 4941 
L 294 4493 
L 1088 4493 
L 1088 3091 
L 358 3091 
L 358 2643 
L 1088 2643 
L 1088 902 
C 762 800 467 710 224 640 
z
" transform="scale(0.015625)"/>
      <path id="NotoSansCJKjp-Regular-34" d="M 1946 -83 
C 2925 -83 3539 506 3539 1248 
C 3539 1946 3117 2266 2573 2502 
L 1907 2790 
C 1542 2944 1126 3117 1126 3578 
C 1126 3994 1472 4256 2003 4256 
C 2438 4256 2784 4090 3072 3821 
L 3379 4198 
C 3053 4538 2560 4774 2003 4774 
C 1152 4774 525 4256 525 3533 
C 525 2848 1043 2515 1478 2330 
L 2150 2035 
C 2598 1837 2938 1683 2938 1197 
C 2938 742 2573 435 1952 435 
C 1466 435 992 666 659 1018 
L 307 608 
C 710 186 1280 -83 1946 -83 
z
" transform="scale(0.015625)"/>
      <path id="NotoSansCJKjp-Regular-e6c0" d="M 3200 3482 
C 3456 3482 3686 3667 3686 3962 
C 3686 4256 3456 4442 3200 4442 
C 2944 4442 2714 4256 2714 3962 
C 2714 3667 2944 3482 3200 3482 
z
M 3200 346 
C 3456 346 3686 538 3686 826 
C 3686 1120 3456 1312 3200 1312 
C 2944 1312 2714 1120 2714 826 
C 2714 538 2944 346 3200 346 
z
" transform="scale(0.015625)"/>
      <path id="NotoSansCJKjp-Regular-4d43" d="M 4768 4800 
L 5523 4800 
L 5523 4205 
L 4768 4205 
L 4768 4800 
z
M 3654 4800 
L 4397 4800 
L 4397 4205 
L 3654 4205 
L 3654 4800 
z
M 2573 4800 
L 3283 4800 
L 3283 4205 
L 2573 4205 
L 2573 4800 
z
M 2170 5152 
L 2170 3853 
L 5933 3853 
L 5933 5152 
L 2170 5152 
z
M 3277 3309 
C 3366 3187 3456 3046 3539 2906 
L 2752 2848 
C 2874 3117 3002 3430 3123 3712 
L 2694 3827 
C 2618 3533 2477 3130 2342 2822 
L 2035 2803 
L 2106 2419 
C 2566 2458 3136 2509 3712 2566 
C 3757 2470 3795 2387 3821 2310 
L 4166 2470 
C 4070 2733 3834 3142 3603 3450 
L 3277 3309 
z
M 3469 1811 
L 3469 1440 
L 2624 1440 
L 2624 1811 
L 3469 1811 
z
M 2240 2144 
L 2240 -506 
L 2624 -506 
L 2624 448 
L 3469 448 
L 3469 -83 
C 3469 -141 3456 -154 3398 -160 
C 3341 -160 3181 -160 2982 -154 
C 3027 -256 3085 -403 3104 -506 
C 3379 -506 3571 -499 3706 -442 
C 3827 -378 3866 -275 3866 -83 
L 3866 2144 
L 2240 2144 
z
M 2624 1146 
L 3469 1146 
L 3469 749 
L 2624 749 
L 2624 1146 
z
M 5619 3533 
C 5395 3379 5024 3219 4659 3091 
L 4659 3731 
L 4250 3731 
L 4250 2355 
C 4250 1933 4365 1824 4832 1824 
C 4928 1824 5478 1824 5574 1824 
C 5933 1824 6048 1971 6093 2541 
C 5978 2566 5811 2630 5728 2694 
C 5709 2253 5683 2202 5523 2202 
C 5408 2202 4966 2202 4877 2202 
C 4691 2202 4659 2221 4659 2362 
L 4659 2758 
C 5094 2886 5574 3059 5926 3258 
L 5619 3533 
z
M 5664 1408 
C 5427 1242 5043 1062 4666 922 
L 4666 1651 
L 4256 1651 
L 4256 77 
C 4256 -352 4378 -467 4858 -467 
C 4954 -467 5530 -467 5632 -467 
C 6022 -467 6138 -307 6182 346 
C 6067 371 5901 435 5811 499 
C 5792 -19 5760 -96 5594 -96 
C 5472 -96 4992 -96 4902 -96 
C 4704 -96 4666 -70 4666 83 
L 4666 563 
C 5120 717 5626 915 5990 1126 
L 5664 1408 
z
M 1018 5376 
L 1018 4083 
L 269 4083 
L 269 3635 
L 1018 3635 
L 1018 2355 
C 698 2253 410 2163 173 2093 
L 301 1626 
L 1018 1875 
L 1018 26 
C 1018 -64 986 -90 909 -90 
C 832 -96 589 -96 320 -90 
C 378 -211 435 -403 461 -512 
C 845 -512 1082 -499 1229 -429 
C 1382 -352 1440 -230 1440 26 
L 1440 2022 
L 2074 2240 
L 2003 2682 
L 1440 2496 
L 1440 3635 
L 1971 3635 
L 1971 4083 
L 1440 4083 
L 1440 5376 
L 1018 5376 
z
" transform="scale(0.015625)"/>
      <path id="NotoSansCJKjp-Regular-2cc2" d="M 4192 5293 
C 4192 4806 4192 4333 4179 3878 
L 3418 3878 
L 3418 3437 
L 4166 3437 
C 4109 2227 3942 1184 3386 422 
L 3386 448 
L 2099 314 
L 2099 826 
L 3360 826 
L 3360 1197 
L 2099 1197 
L 2099 1587 
L 3347 1587 
L 3347 3501 
L 2099 3501 
L 2099 3904 
L 3469 3904 
L 3469 4282 
L 2099 4282 
L 2099 4755 
C 2566 4806 3008 4864 3354 4941 
L 3117 5312 
C 2451 5158 1286 5043 339 4998 
C 384 4896 435 4742 454 4640 
C 832 4653 1248 4678 1658 4710 
L 1658 4282 
L 269 4282 
L 269 3904 
L 1658 3904 
L 1658 3501 
L 461 3501 
L 461 1587 
L 1658 1587 
L 1658 1197 
L 442 1197 
L 442 826 
L 1658 826 
L 1658 269 
L 269 141 
L 333 -282 
C 1056 -205 2054 -90 3034 26 
C 2950 -51 2854 -128 2758 -198 
C 2874 -275 3040 -435 3110 -544 
C 4256 307 4544 1722 4627 3437 
L 5536 3437 
C 5472 1094 5395 243 5242 51 
C 5184 -32 5120 -45 5018 -45 
C 4896 -45 4608 -45 4294 -19 
C 4371 -147 4422 -346 4435 -480 
C 4736 -493 5037 -499 5222 -474 
C 5414 -454 5542 -403 5651 -230 
C 5869 38 5933 934 6003 3642 
C 6003 3699 6003 3878 6003 3878 
L 4640 3878 
C 4653 4333 4659 4806 4659 5293 
L 4192 5293 
z
M 858 2387 
L 1658 2387 
L 1658 1920 
L 858 1920 
L 858 2387 
z
M 2099 2387 
L 2938 2387 
L 2938 1920 
L 2099 1920 
L 2099 2387 
z
M 858 3168 
L 1658 3168 
L 1658 2707 
L 858 2707 
L 858 3168 
z
M 2099 3168 
L 2938 3168 
L 2938 2707 
L 2099 2707 
L 2099 3168 
z
" transform="scale(0.015625)"/>
      <path id="NotoSansCJKjp-Regular-9d70" d="M 384 4934 
C 794 4646 1274 4218 1478 3904 
L 1862 4224 
C 1632 4531 1152 4947 730 5222 
L 384 4934 
z
M 3002 2016 
L 5120 2016 
L 5120 998 
L 3002 998 
L 3002 2016 
z
M 2534 2413 
L 2534 595 
L 5613 595 
L 5613 2413 
L 2534 2413 
z
M 3782 5376 
L 3782 4570 
L 3034 4570 
C 3130 4768 3219 4979 3290 5190 
L 2842 5293 
C 2643 4698 2310 4102 1901 3712 
C 2022 3661 2221 3546 2310 3475 
C 2483 3667 2650 3898 2810 4154 
L 3782 4154 
L 3782 3328 
L 1952 3328 
L 1952 2918 
L 6074 2918 
L 6074 3328 
L 4256 3328 
L 4256 4154 
L 5792 4154 
L 5792 4570 
L 4256 4570 
L 4256 5376 
L 3782 5376 
z
M 1677 2848 
L 314 2848 
L 314 2400 
L 1210 2400 
L 1210 768 
C 890 499 518 230 230 32 
L 480 -461 
C 826 -173 1152 102 1459 378 
C 1869 -128 2445 -358 3283 -390 
C 3994 -416 5318 -403 6016 -371 
C 6035 -224 6118 6 6176 115 
C 5414 64 3981 45 3283 77 
C 2541 102 1978 326 1677 794 
L 1677 2848 
z
" transform="scale(0.015625)"/>
      <path id="NotoSansCJKjp-Regular-4857" d="M 3482 5370 
C 3482 5005 3494 4640 3514 4288 
L 819 4288 
L 819 2490 
C 819 1658 762 550 230 -237 
C 346 -294 550 -461 634 -557 
C 1222 288 1318 1581 1318 2483 
L 1318 2528 
L 2490 2528 
C 2464 1427 2432 1018 2349 922 
C 2298 864 2240 851 2144 851 
C 2035 851 1760 851 1466 883 
C 1542 762 1594 570 1600 435 
C 1914 416 2208 416 2374 429 
C 2547 448 2656 493 2758 614 
C 2893 787 2925 1331 2957 2771 
C 2957 2835 2963 2976 2963 2976 
L 1318 2976 
L 1318 3821 
L 3546 3821 
C 3622 2784 3776 1837 4019 1101 
C 3597 614 3104 218 2534 -83 
C 2637 -179 2810 -378 2886 -480 
C 3379 -186 3821 166 4211 589 
C 4506 -70 4890 -467 5382 -467 
C 5875 -467 6054 -147 6138 947 
C 6010 992 5830 1101 5722 1210 
C 5683 358 5606 26 5421 26 
C 5094 26 4806 390 4570 1018 
C 5043 1632 5421 2362 5696 3200 
L 5216 3322 
C 5011 2675 4736 2093 4390 1581 
C 4224 2202 4102 2963 4032 3821 
L 6086 3821 
L 6086 4288 
L 4006 4288 
C 3987 4640 3981 4998 3981 5370 
L 3482 5370 
z
M 4294 5056 
C 4704 4845 5197 4518 5440 4288 
L 5741 4621 
C 5491 4838 4986 5152 4582 5350 
L 4294 5056 
z
" transform="scale(0.015625)"/>
      <path id="NotoSansCJKjp-Regular-625b" d="M 2208 723 
C 2291 346 2336 -154 2342 -454 
L 2810 -390 
C 2803 -96 2733 390 2650 768 
L 2208 723 
z
M 3514 723 
C 3680 346 3840 -154 3904 -461 
L 4378 -358 
C 4314 -58 4134 435 3962 806 
L 3514 723 
z
M 4819 768 
C 5139 371 5504 -179 5664 -525 
L 6138 -352 
C 5971 -6 5594 531 5274 915 
L 4819 768 
z
M 1088 890 
C 934 422 634 -64 301 -333 
L 749 -518 
C 1094 -211 1382 294 1549 774 
L 1088 890 
z
M 442 1600 
L 442 1158 
L 5978 1158 
L 5978 1600 
L 5158 1600 
L 5158 2688 
L 6061 2688 
L 6061 3130 
L 5158 3130 
L 5158 4205 
L 5824 4205 
L 5824 4640 
L 1760 4640 
C 1888 4838 2003 5037 2106 5242 
L 1638 5376 
C 1331 4730 813 4102 269 3699 
C 384 3629 576 3469 659 3386 
C 851 3546 1050 3738 1242 3955 
L 1242 3130 
L 346 3130 
L 346 2688 
L 1242 2688 
L 1242 1600 
L 442 1600 
z
M 2381 4205 
L 2381 3130 
L 1670 3130 
L 1670 4205 
L 2381 4205 
z
M 2803 4205 
L 3539 4205 
L 3539 3130 
L 2803 3130 
L 2803 4205 
z
M 3955 4205 
L 4710 4205 
L 4710 3130 
L 3955 3130 
L 3955 4205 
z
M 2381 2688 
L 2381 1600 
L 1670 1600 
L 1670 2688 
L 2381 2688 
z
M 2803 2688 
L 3539 2688 
L 3539 1600 
L 2803 1600 
L 2803 2688 
z
M 3955 2688 
L 4710 2688 
L 4710 1600 
L 3955 1600 
L 3955 2688 
z
" transform="scale(0.015625)"/>
      <path id="NotoSansCJKjp-Regular-e6b5" d="M 5990 5414 
L 218 -358 
L 410 -550 
L 6182 5222 
L 5990 5414 
z
" transform="scale(0.015625)"/>
      <path id="NotoSansCJKjp-Regular-2509" d="M 282 2758 
L 282 2234 
L 6144 2234 
L 6144 2758 
L 282 2758 
z
" transform="scale(0.015625)"/>
      <path id="NotoSansCJKjp-Regular-2a94" d="M 1568 2784 
L 1568 2445 
L 1971 2445 
C 1875 1683 1651 1050 1222 634 
C 1299 589 1440 480 1498 429 
C 1779 723 1990 1114 2138 1581 
C 2221 1171 2381 774 2662 435 
C 2720 506 2854 608 2931 653 
C 2374 1293 2330 2112 2330 2784 
L 1568 2784 
z
M 442 4992 
L 442 4518 
L 2938 4518 
L 2938 3718 
L 672 3718 
L 672 -499 
L 1133 -499 
L 1133 3264 
L 2938 3264 
L 2938 -480 
L 3398 -480 
L 3398 3264 
L 5299 3264 
L 5299 58 
C 5299 -38 5267 -70 5171 -70 
C 5069 -77 4736 -77 4384 -64 
C 4448 -186 4525 -371 4550 -499 
C 5005 -499 5325 -493 5517 -416 
C 5709 -346 5766 -211 5766 51 
L 5766 3718 
L 3398 3718 
L 3398 4518 
L 5990 4518 
L 5990 4992 
L 442 4992 
z
M 3802 2784 
L 3802 2445 
L 4218 2445 
C 4115 1709 3891 1088 3482 678 
C 3571 634 3706 525 3763 467 
C 4038 768 4243 1158 4384 1626 
C 4474 1203 4640 794 4947 454 
C 5011 518 5146 621 5229 659 
C 4640 1293 4589 2112 4589 2784 
L 3802 2784 
z
" transform="scale(0.015625)"/>
     </defs>
     <use xlink:href="#NotoSansCJKjp-Regular-585c"/>
     <use xlink:href="#NotoSansCJKjp-Regular-4338" transform="translate(100 0)"/>
     <use xlink:href="#NotoSansCJKjp-Regular-3c8a" transform="translate(200 0)"/>
     <use xlink:href="#NotoSansCJKjp-Regular-677c" transform="translate(300 0)"/>
     <use xlink:href="#NotoSansCJKjp-Regular-1" transform="translate(400 0)"/>
     <use xlink:href="#NotoSansCJKjp-Regular-34" transform="translate(422.40625 0)"/>
     <use xlink:href="#NotoSansCJKjp-Regular-34" transform="translate(480.5 0)"/>
     <use xlink:href="#NotoSansCJKjp-Regular-22" transform="translate(540.09375 0)"/>
     <use xlink:href="#NotoSansCJKjp-Regular-e6c0" transform="translate(600.890625 0)"/>
     <use xlink:href="#NotoSansCJKjp-Regular-9e93" transform="translate(700.890625 0)"/>
     <use xlink:href="#NotoSansCJKjp-Regular-1" transform="translate(800.890625 0)"/>
     <use xlink:href="#NotoSansCJKjp-Regular-42" transform="translate(823.296875 0)"/>
     <use xlink:href="#NotoSansCJKjp-Regular-1" transform="translate(879.59375 0)"/>
     <use xlink:href="#NotoSansCJKjp-Regular-4d43" transform="translate(902 0)"/>
     <use xlink:href="#NotoSansCJKjp-Regular-2cc2" transform="translate(1002 0)"/>
     <use xlink:href="#NotoSansCJKjp-Regular-9d70" transform="translate(1102 0)"/>
     <use xlink:href="#NotoSansCJKjp-Regular-4857" transform="translate(1202 0)"/>
     <use xlink:href="#NotoSansCJKjp-Regular-625b" transform="translate(1302 0)"/>
     <use xlink:href="#NotoSansCJKjp-Regular-926e" transform="translate(1402 0)"/>
     <use xlink:href="#NotoSansCJKjp-Regular-e6b5" transform="translate(1502 0)"/>
     <use xlink:href="#NotoSansCJKjp-Regular-2509" transform="translate(1602 0)"/>
     <use xlink:href="#NotoSansCJKjp-Regular-926e" transform="translate(1702 0)"/>
     <use xlink:href="#NotoSansCJKjp-Regular-e6b5" transform="translate(1802 0)"/>
     <use xlink:href="#NotoSansCJKjp-Regular-2a94" transform="translate(1902 0)"/>
     <use xlink:href="#NotoSansCJKjp-Regular-926e" transform="translate(2002 0)"/>
    </g>
   </g>
   <g id="line2d_9">
    <path d="M 36.558624 145.49 
L 105.823336 105.5 
" clip-path="url(#pb8b6d43ac6)" style="fill: none; stroke: #1f6feb; stroke-width: 2.6; stroke-linecap: square"/>
   </g>
   <g id="patch_8">
    <path d="M 80.247409 110.936331 
C 81.492652 116.794737 84.713752 122.051095 89.368302 125.820275 
C 94.022851 129.589454 99.834049 131.647308 105.823336 131.647308 
C 111.812622 131.647308 117.62382 129.589454 122.278369 125.820275 
C 126.932919 122.051095 130.154019 116.794737 131.399262 110.936331 
" clip-path="url(#pb8b6d43ac6)" style="fill: none; stroke-dasharray: 8,4; stroke-dashoffset: 0; stroke: #d1242f; stroke-width: 2; stroke-linejoin: miter"/>
   </g>
   <g id="line2d_10">
    <path d="M 196.518624 145.49 
L 265.783336 105.5 
" clip-path="url(#pb8b6d43ac6)" style="fill: none; stroke: #1f6feb; stroke-width: 2.6; stroke-linecap: square"/>
   </g>
   <g id="patch_9">
    <path d="M 226.667213 113.814389 
C 228.571702 122.774303 233.49809 130.813439 240.616813 136.578067 
C 247.735536 142.342695 256.623251 145.49 265.783336 145.49 
C 274.94342 145.49 283.831135 142.342695 290.949858 136.578067 
C 298.068581 130.813439 302.994969 122.774303 304.899458 113.814389 
" clip-path="url(#pb8b6d43ac6)" style="fill: none; stroke-dasharray: 8,4; stroke-dashoffset: 0; stroke: #d1242f; stroke-width: 2; stroke-linejoin: miter"/>
   </g>
   <g id="line2d_11">
    <path d="M 356.478624 145.49 
L 425.743336 105.5 
" clip-path="url(#pb8b6d43ac6)" style="fill: none; stroke: #1f6feb; stroke-width: 2.6; stroke-linecap: square"/>
   </g>
   <g id="patch_10">
    <path d="M 364.060219 118.611151 
C 367.063451 132.740248 374.831987 145.417346 386.057666 154.507721 
C 397.283344 163.598096 411.298587 168.561154 425.743336 168.561154 
C 440.188084 168.561154 454.203327 163.598096 465.429006 154.507721 
C 476.654684 145.417346 484.42322 132.740248 487.426452 118.611151 
" clip-path="url(#pb8b6d43ac6)" style="fill: none; stroke-dasharray: 8,4; stroke-dashoffset: 0; stroke: #d1242f; stroke-width: 2; stroke-linejoin: miter"/>
   </g>
   <g id="line2d_12">
    <path d="M 100.901489 145.49 
L 100.901489 140.568154 
" clip-path="url(#pb8b6d43ac6)" style="fill: none; stroke: #9aa0a6; stroke-linecap: square"/>
   </g>
   <g id="line2d_13">
    <path d="M 100.901489 140.568154 
L 105.823336 140.568154 
" clip-path="url(#pb8b6d43ac6)" style="fill: none; stroke: #9aa0a6; stroke-linecap: square"/>
   </g>
   <g id="line2d_14">
    <path d="M 105.823336 105.5 
L 89.725446 126.10436 
" clip-path="url(#pb8b6d43ac6)" style="fill: none; stroke: #d1242f; stroke-width: 2.4; stroke-linecap: square"/>
   </g>
   <g id="line2d_15">
    <path d="M 260.861489 145.49 
L 260.861489 140.568154 
" clip-path="url(#pb8b6d43ac6)" style="fill: none; stroke: #9aa0a6; stroke-linecap: square"/>
   </g>
   <g id="line2d_16">
    <path d="M 260.861489 140.568154 
L 265.783336 140.568154 
" clip-path="url(#pb8b6d43ac6)" style="fill: none; stroke: #9aa0a6; stroke-linecap: square"/>
   </g>
   <g id="line2d_17">
    <path d="M 265.783336 105.5 
L 241.163033 137.01255 
" clip-path="url(#pb8b6d43ac6)" style="fill: none; stroke: #d1242f; stroke-width: 2.4; stroke-linecap: square"/>
   </g>
   <g id="line2d_18">
    <path d="M 420.821489 145.49 
L 420.821489 140.568154 
" clip-path="url(#pb8b6d43ac6)" style="fill: none; stroke: #9aa0a6; stroke-linecap: square"/>
   </g>
   <g id="line2d_19">
    <path d="M 420.821489 140.568154 
L 425.743336 140.568154 
" clip-path="url(#pb8b6d43ac6)" style="fill: none; stroke: #9aa0a6; stroke-linecap: square"/>
   </g>
   <g id="line2d_20">
    <path d="M 425.743336 105.5 
L 386.919013 155.192867 
" clip-path="url(#pb8b6d43ac6)" style="fill: none; stroke: #d1242f; stroke-width: 2.4; stroke-linecap: square"/>
   </g>
   <g id="patch_11">
    <path d="M 105.823336 107.653308 
C 106.394399 107.653308 106.942151 107.426422 107.345954 107.022618 
C 107.749757 106.618815 107.976643 106.071064 107.976643 105.5 
C 107.976643 104.928936 107.749757 104.381185 107.345954 103.977382 
C 106.942151 103.573578 106.394399 103.346692 105.823336 103.346692 
C 105.252272 103.346692 104.70452 103.573578 104.300717 103.977382 
C 103.896914 104.381185 103.670028 104.928936 103.670028 105.5 
C 103.670028 106.071064 103.896914 106.618815 104.300717 107.022618 
C 104.70452 107.426422 105.252272 107.653308 105.823336 107.653308 
z
" clip-path="url(#pb8b6d43ac6)" style="fill: #222831; stroke: #222831; stroke-linejoin: miter"/>
   </g>
   <g id="patch_12">
    <path d="M 265.783336 107.653308 
C 266.354399 107.653308 266.902151 107.426422 267.305954 107.022618 
C 267.709757 106.618815 267.936643 106.071064 267.936643 105.5 
C 267.936643 104.928936 267.709757 104.381185 267.305954 103.977382 
C 266.902151 103.573578 266.354399 103.346692 265.783336 103.346692 
C 265.212272 103.346692 264.66452 103.573578 264.260717 103.977382 
C 263.856914 104.381185 263.630028 104.928936 263.630028 105.5 
C 263.630028 106.071064 263.856914 106.618815 264.260717 107.022618 
C 264.66452 107.426422 265.212272 107.653308 265.783336 107.653308 
z
" clip-path="url(#pb8b6d43ac6)" style="fill: #222831; stroke: #222831; stroke-linejoin: miter"/>
   </g>
   <g id="patch_13">
    <path d="M 425.743336 107.653308 
C 426.314399 107.653308 426.862151 107.426422 427.265954 107.022618 
C 427.669757 106.618815 427.896643 106.071064 427.896643 105.5 
C 427.896643 104.928936 427.669757 104.381185 427.265954 103.977382 
C 426.862151 103.573578 426.314399 103.346692 425.743336 103.346692 
C 425.172272 103.346692 424.62452 103.573578 424.220717 103.977382 
C 423.816914 104.381185 423.590028 104.928936 423.590028 105.5 
C 423.590028 106.071064 423.816914 106.618815 424.220717 107.022618 
C 424.62452 107.426422 425.172272 107.653308 425.743336 107.653308 
z
" clip-path="url(#pb8b6d43ac6)" style="fill: #222831; stroke: #222831; stroke-linejoin: miter"/>
   </g>
   <g id="patch_14">
    <path d="M 265.783336 147.797115 
C 266.39519 147.797115 266.982066 147.554023 267.414713 147.121377 
C 267.847359 146.688731 268.090451 146.101854 268.090451 145.49 
C 268.090451 144.878146 267.847359 144.291269 267.414713 143.858623 
C 266.982066 143.425977 266.39519 143.182885 265.783336 143.182885 
C 265.171481 143.182885 264.584605 143.425977 264.151959 143.858623 
C 263.719312 144.291269 263.47622 144.878146 263.47622 145.49 
C 263.47622 146.101854 263.719312 146.688731 264.151959 147.121377 
C 264.584605 147.554023 265.171481 147.797115 265.783336 147.797115 
z
" clip-path="url(#pb8b6d43ac6)" style="fill: #1a7f37; stroke: #222831; stroke-linejoin: miter"/>
   </g>
   <g id="patch_15">
    <path d="M 376.983629 147.797115 
C 377.595483 147.797115 378.182359 147.554023 378.615006 147.121377 
C 379.047652 146.688731 379.290744 146.101854 379.290744 145.49 
C 379.290744 144.878146 379.047652 144.291269 378.615006 143.858623 
C 378.182359 143.425977 377.595483 143.182885 376.983629 143.182885 
C 376.371774 143.182885 375.784898 143.425977 375.352252 143.858623 
C 374.919605 144.291269 374.676513 144.878146 374.676513 145.49 
C 374.676513 146.101854 374.919605 146.688731 375.352252 147.121377 
C 375.784898 147.554023 376.371774 147.797115 376.983629 147.797115 
z
" clip-path="url(#pb8b6d43ac6)" style="fill: #1a7f37; stroke: #222831; stroke-linejoin: miter"/>
   </g>
   <g id="patch_16">
    <path d="M 474.503043 147.797115 
C 475.114897 147.797115 475.701773 147.554023 476.13442 147.121377 
C 476.567066 146.688731 476.810158 146.101854 476.810158 145.49 
C 476.810158 144.878146 476.567066 144.291269 476.13442 143.858623 
C 475.701773 143.425977 475.114897 143.182885 474.503043 143.182885 
C 473.891188 143.182885 473.304312 143.425977 472.871666 143.858623 
C 472.439019 144.291269 472.195927 144.878146 472.195927 145.49 
C 472.195927 146.101854 472.439019 146.688731 472.871666 147.121377 
C 473.304312 147.554023 473.891188 147.797115 474.503043 147.797115 
z
" clip-path="url(#pb8b6d43ac6)" style="fill: #1a7f37; stroke: #222831; stroke-linejoin: miter"/>
   </g>
  </g>
 </g>
 <defs>
  <clipPath id="pb8b6d43ac6">
   <rect x="15.025547" y="25.52" width="479.88" height="163.036154"/>
  </clipPath>
 </defs>
</svg>
