<?xml version="1.0" encoding="utf-8" standalone="no"?>
<!DOCTYPE svg PUBLIC "-//W3C//DTD SVG 1.1//EN"
  "http://www.w3.org/Graphics/SVG/1.1/DTD/svg11.dtd">
<svg xmlns:xlink="http://www.w3.org/1999/xlink" width="371.52pt" height="297.68pt" viewBox="0 0 371.52 297.68" xmlns="http://www.w3.org/2000/svg" version="1.1">
 <metadata>
  <rdf:RDF xmlns:dc="http://purl.org/dc/elements/1.1/" xmlns:cc="http://creativecommons.org/ns#" xmlns:rdf="http://www.w3.org/1999/02/22-rdf-syntax-ns#">
   <cc:Work>
    <dc:type rdf:resource="http://purl.org/dc/dcmitype/StillImage"/>
    <dc:date>2026-06-18T08:52:15.426364</dc:date>
    <dc:format>image/svg+xml</dc:format>
    <dc:creator>
     <cc:Agent>
      <dc:title>Matplotlib v3.11.0, https://matplotlib.org/</dc:title>
     </cc:Agent>
    </dc:creator>
   </cc:Work>
  </rdf:RDF>
 </metadata>
 <defs>
  <style type="text/css">*{stroke-linejoin: round; stroke-linecap: butt}</style>
 </defs>
 <g id="figure_1">
  <g id="patch_1">
   <path d="M 0 297.68 
L 371.52 297.68 
L 371.52 0 
L 0 0 
z
" style="fill: #ffffff"/>
  </g>
  <g id="axes_1">
   <g id="patch_2">
    <path d="M 64.8 232.88 
L 295.2 232.88 
L 64.8 60.08 
z
" clip-path="url(#p6fc9b11c31)" style="fill: #eef3fb; stroke: #222831; stroke-width: 2.2; stroke-linejoin: miter"/>
   </g>
   <g id="line2d_1">
    <path d="M 64.8 232.88 
L 295.2 232.88 
" clip-path="url(#p6fc9b11c31)" style="fill: none; stroke: #1f6feb; stroke-width: 3; stroke-linecap: square"/>
   </g>
   <g id="line2d_2">
    <path d="M 64.8 232.88 
L 64.8 60.08 
" clip-path="url(#p6fc9b11c31)" style="fill: none; stroke: #d1242f; stroke-width: 3; stroke-linecap: square"/>
   </g>
   <g id="line2d_3">
    <path d="M 295.2 232.88 
L 64.8 60.08 
" clip-path="url(#p6fc9b11c31)" style="fill: none; stroke: #1a7f37; stroke-width: 3; stroke-linecap: square"/>
   </g>
   <g id="text_1">
    <!-- $\theta$ -->
    <g style="fill: #bf8700" transform="translate(230.96 213.872) scale(0.16 -0.16)">
     <defs>
      <path id="Cmmi10-12" d="M 1031 -72 
Q 741 -72 566 140 
Q 391 353 323 653 
Q 256 953 256 1247 
L 256 1253 
Q 256 1572 317 1915 
Q 378 2259 493 2601 
Q 609 2944 744 3213 
Q 838 3400 986 3631 
Q 1134 3863 1317 4064 
Q 1500 4266 1711 4389 
Q 1922 4513 2138 4513 
L 2144 4513 
Q 2375 4513 2529 4384 
Q 2684 4256 2770 4056 
Q 2856 3856 2890 3628 
Q 2925 3400 2925 3194 
Q 2925 2709 2794 2204 
Q 2663 1700 2431 1228 
Q 2344 1050 2189 809 
Q 2034 569 1861 378 
Q 1688 188 1472 58 
Q 1256 -72 1038 -72 
L 1031 -72 
z
M 1044 97 
Q 1256 97 1451 323 
Q 1647 550 1794 873 
Q 1941 1197 2052 1536 
Q 2163 1875 2216 2113 
L 909 2113 
Q 809 1709 753 1417 
Q 697 1125 697 844 
Q 697 97 1044 97 
z
M 959 2338 
L 2272 2338 
Q 2341 2619 2381 2808 
Q 2422 2997 2450 3206 
Q 2478 3416 2478 3597 
Q 2478 4347 2138 4347 
Q 1731 4347 1436 3692 
Q 1141 3038 959 2338 
z
" transform="scale(0.015625)"/>
     </defs>
     <use xlink:href="#Cmmi10-12" transform="translate(0 0.484375)"/>
    </g>
   </g>
   <g id="text_2">
    <!-- $C$ -->
    <g style="fill: #222831" transform="translate(48.6 249.008) scale(0.13 -0.13)">
     <defs>
      <path id="Cmmi10-67" d="M 934 1381 
Q 934 997 1082 705 
Q 1231 413 1514 248 
Q 1797 84 2181 84 
Q 2584 84 2957 290 
Q 3331 497 3595 842 
Q 3859 1188 3956 1575 
Q 3969 1613 4006 1613 
L 4084 1613 
Q 4109 1613 4125 1595 
Q 4141 1578 4141 1556 
Q 4141 1550 4134 1538 
Q 4025 1094 3711 705 
Q 3397 316 2959 87 
Q 2522 -141 2059 -141 
Q 1559 -141 1162 84 
Q 766 309 545 709 
Q 325 1109 325 1613 
Q 325 2150 565 2676 
Q 806 3203 1212 3614 
Q 1619 4025 2139 4269 
Q 2659 4513 3194 4513 
Q 3406 4513 3600 4448 
Q 3794 4384 3959 4253 
Q 4125 4122 4231 3950 
L 4738 4500 
Q 4738 4513 4769 4513 
L 4806 4513 
Q 4831 4513 4847 4491 
Q 4863 4469 4863 4447 
L 4428 2719 
Q 4428 2675 4378 2675 
L 4263 2675 
Q 4213 2675 4213 2747 
Q 4238 2888 4238 3084 
Q 4238 3397 4131 3673 
Q 4025 3950 3801 4119 
Q 3578 4288 3256 4288 
Q 2734 4288 2300 4025 
Q 1866 3763 1564 3336 
Q 1263 2909 1098 2389 
Q 934 1869 934 1381 
z
" transform="scale(0.015625)"/>
     </defs>
     <use xlink:href="#Cmmi10-67" transform="translate(0 0.484375)"/>
    </g>
   </g>
   <g id="text_3">
    <!-- $B$ -->
    <g style="fill: #222831" transform="translate(302.932 249.008) scale(0.13 -0.13)">
     <defs>
      <path id="Cmmi10-34" d="M 319 0 
Q 256 0 256 84 
Q 259 100 268 137 
Q 278 175 293 200 
Q 309 225 341 225 
Q 522 225 656 234 
Q 791 244 884 269 
Q 959 297 1006 441 
L 1881 3956 
Q 1894 4019 1894 4044 
Q 1894 4113 1819 4122 
Q 1697 4147 1356 4147 
Q 1294 4147 1294 4231 
Q 1297 4247 1306 4286 
Q 1316 4325 1333 4348 
Q 1350 4372 1375 4372 
L 3669 4372 
Q 3878 4372 4083 4320 
Q 4288 4269 4461 4156 
Q 4634 4044 4736 3876 
Q 4838 3709 4838 3488 
Q 4838 3247 4714 3040 
Q 4591 2834 4395 2681 
Q 4200 2528 3973 2429 
Q 3747 2331 3500 2284 
Q 3675 2284 3854 2215 
Q 4034 2147 4175 2028 
Q 4316 1909 4402 1743 
Q 4488 1578 4488 1388 
Q 4488 1003 4219 684 
Q 3950 366 3542 183 
Q 3134 0 2753 0 
L 319 0 
z
M 1497 275 
Q 1497 225 1716 225 
L 2631 225 
Q 2944 225 3231 398 
Q 3519 572 3692 859 
Q 3866 1147 3866 1459 
Q 3866 1650 3786 1820 
Q 3706 1991 3556 2089 
Q 3406 2188 3213 2188 
L 1966 2188 
L 1522 416 
Q 1497 328 1497 275 
z
M 2009 2356 
L 2981 2356 
Q 3288 2356 3577 2512 
Q 3866 2669 4048 2937 
Q 4231 3206 4231 3506 
Q 4231 3784 4057 3965 
Q 3884 4147 3609 4147 
L 2731 4147 
Q 2559 4147 2500 4115 
Q 2441 4084 2400 3928 
L 2009 2356 
z
" transform="scale(0.015625)"/>
     </defs>
     <use xlink:href="#Cmmi10-34" transform="translate(0 0.6875)"/>
    </g>
   </g>
   <g id="text_4">
    <!-- $A$ -->
    <g style="fill: #222831" transform="translate(47.253 49.712) scale(0.13 -0.13)">
     <defs>
      <path id="Cmmi10-5c" d="M 288 0 
Q 225 0 225 84 
Q 250 225 306 225 
Q 566 225 755 328 
Q 944 431 1081 647 
Q 1094 659 1094 659 
L 3378 4513 
Q 3428 4581 3500 4581 
L 3584 4581 
Q 3603 4581 3622 4573 
Q 3641 4566 3655 4548 
Q 3669 4531 3669 4513 
L 4056 378 
Q 4056 350 4084 294 
Q 4147 225 4563 225 
Q 4628 225 4628 141 
Q 4606 56 4592 28 
Q 4578 0 4519 0 
L 2919 0 
Q 2859 0 2859 84 
Q 2894 225 2944 225 
Q 3450 225 3481 397 
L 3384 1453 
L 1806 1453 
L 1294 594 
Q 1247 525 1247 434 
Q 1247 322 1355 273 
Q 1463 225 1594 225 
Q 1656 225 1656 141 
Q 1634 50 1621 25 
Q 1609 0 1550 0 
L 288 0 
z
M 1931 1678 
L 3359 1678 
L 3169 3750 
L 1931 1678 
z
" transform="scale(0.015625)"/>
     </defs>
     <use xlink:href="#Cmmi10-5c" transform="translate(0 0.421875)"/>
    </g>
   </g>
   <g id="text_5">
    <!-- 鄰邊 -->
    <g style="fill: #1f6feb" transform="translate(169.88 257.072) scale(0.13 -0.13)">
     <defs>
      <path id="NotoSansCJKjp-Regular-9fa7" d="M 723 5101 
C 909 4858 1107 4525 1190 4307 
L 1568 4480 
C 1485 4698 1274 5024 1082 5254 
L 723 5101 
z
M 3226 5306 
C 3110 5069 2893 4717 2720 4493 
L 3040 4333 
C 3219 4531 3437 4838 3635 5120 
L 3226 5306 
z
M 3142 2630 
L 3142 2074 
L 2272 2074 
L 2272 1696 
L 3142 1696 
L 3142 845 
L 2560 845 
L 2637 1440 
L 2278 1459 
C 2240 1050 2163 499 2093 154 
L 2445 122 
L 2502 454 
L 3142 454 
L 3142 -506 
L 3533 -506 
L 3533 454 
L 3949 454 
L 3949 845 
L 3533 845 
L 3533 1696 
L 3898 1696 
L 3898 2074 
L 3533 2074 
L 3533 2630 
L 3142 2630 
z
M 4096 5062 
L 4096 -506 
L 4538 -506 
L 4538 4621 
L 5555 4621 
C 5376 4122 5126 3430 4890 2880 
C 5453 2304 5619 1824 5619 1427 
C 5619 1197 5581 998 5453 922 
C 5389 877 5299 851 5197 845 
C 5075 845 4896 845 4710 858 
C 4787 723 4832 531 4838 410 
C 5018 397 5222 397 5382 416 
C 5536 435 5670 474 5779 544 
C 5984 691 6067 992 6067 1382 
C 6067 1824 5926 2336 5350 2938 
C 5619 3533 5920 4275 6144 4877 
L 5818 5082 
L 5741 5062 
L 4096 5062 
z
M 1760 1741 
C 1690 1459 1587 1203 1472 973 
C 1318 1101 1101 1254 896 1376 
C 966 1491 1037 1613 1101 1741 
L 1760 1741 
z
M 1075 2656 
C 896 2035 570 1446 166 1062 
C 250 998 397 877 461 819 
C 538 902 621 992 691 1088 
C 902 954 1126 794 1280 653 
C 1011 262 678 -26 320 -198 
C 410 -275 518 -429 563 -525 
C 1344 -102 1965 742 2195 2035 
L 1958 2112 
L 1888 2099 
L 1267 2099 
C 1331 2253 1389 2413 1440 2573 
L 1075 2656 
z
M 1958 5357 
L 1958 4262 
L 352 4262 
L 352 3878 
L 1702 3878 
C 1306 3482 723 3085 230 2886 
C 320 2810 448 2669 512 2566 
C 986 2797 1549 3200 1958 3635 
L 1958 2560 
L 2394 2560 
L 2394 3462 
C 2778 3264 3328 2957 3558 2797 
L 3770 3168 
C 3546 3290 2720 3686 2394 3827 
L 2394 3878 
L 3866 3878 
L 3866 4262 
L 2394 4262 
L 2394 5357 
L 1958 5357 
z
" transform="scale(0.015625)"/>
      <path id="NotoSansCJKjp-Regular-9e93" d="M 531 5005 
C 902 4794 1338 4467 1530 4218 
L 1869 4544 
C 1664 4787 1222 5101 851 5299 
L 531 5005 
z
M 307 3699 
C 698 3501 1152 3174 1363 2938 
L 1683 3270 
C 1466 3514 1005 3814 621 4006 
L 307 3699 
z
M 2880 4314 
L 5043 4314 
L 5043 4045 
L 2880 4045 
L 2880 4314 
z
M 2880 3802 
L 5043 3802 
L 5043 3520 
L 2880 3520 
L 2880 3802 
z
M 2880 4819 
L 5043 4819 
L 5043 4550 
L 2880 4550 
L 2880 4819 
z
M 1542 2400 
L 275 2400 
L 275 1952 
L 1075 1952 
L 1075 717 
C 794 454 474 198 211 0 
L 461 -467 
C 774 -186 1069 90 1344 365 
C 1754 -141 2342 -365 3200 -397 
C 3923 -422 5299 -410 6016 -378 
C 6035 -237 6112 -19 6170 90 
C 5395 38 3910 19 3194 51 
C 2432 77 1856 294 1542 768 
L 1542 2400 
z
M 1946 3008 
L 1946 2355 
L 2368 2355 
L 2368 2733 
L 3213 2733 
C 3098 2419 2790 2266 2118 2176 
C 2189 2112 2285 1978 2317 1894 
C 3091 2035 3443 2266 3571 2733 
L 4115 2733 
L 4115 2496 
C 4115 2170 4205 2093 4589 2093 
C 4659 2093 5056 2093 5126 2093 
C 5382 2093 5485 2176 5517 2496 
C 5421 2522 5280 2560 5210 2611 
C 5197 2400 5171 2374 5069 2374 
C 4992 2374 4691 2374 4634 2374 
C 4499 2374 4486 2387 4486 2496 
L 4486 2733 
L 5562 2733 
L 5562 2355 
L 5997 2355 
L 5997 3008 
L 4134 3008 
L 4134 3277 
L 5510 3277 
L 5510 5062 
L 4064 5062 
C 4115 5139 4173 5229 4224 5325 
L 3731 5389 
C 3706 5299 3654 5178 3603 5062 
L 2426 5062 
L 2426 3277 
L 3686 3277 
L 3686 3008 
L 1946 3008 
z
M 1926 1843 
L 1926 1542 
L 3219 1542 
C 3091 1062 2765 762 1952 589 
C 2042 518 2150 352 2189 256 
C 2835 416 3206 659 3424 1005 
L 4922 1005 
C 4858 749 4800 614 4730 557 
C 4678 518 4627 518 4518 518 
C 4410 512 4128 518 3840 550 
C 3885 461 3923 333 3930 256 
C 4237 230 4525 224 4666 230 
C 4826 237 4934 256 5043 333 
C 5184 442 5274 666 5363 1133 
C 5382 1190 5389 1293 5389 1293 
L 3565 1293 
C 3597 1370 3622 1453 3642 1542 
L 6054 1542 
L 6054 1843 
L 4134 1843 
L 4134 2234 
L 3693 2234 
L 3693 1843 
L 1926 1843 
z
" transform="scale(0.015625)"/>
     </defs>
     <use xlink:href="#NotoSansCJKjp-Regular-9fa7"/>
     <use xlink:href="#NotoSansCJKjp-Regular-9e93" transform="translate(100 0)"/>
    </g>
   </g>
   <g id="text_6">
    <!-- 對邊 -->
    <g style="fill: #d1242f" transform="translate(43.82 148.04) rotate(-90) scale(0.13 -0.13)">
     <defs>
      <path id="NotoSansCJKjp-Regular-3d73" d="M 3693 2554 
C 3955 2086 4192 1472 4256 1082 
L 4691 1242 
C 4627 1632 4371 2234 4102 2694 
L 3693 2554 
z
M 339 5037 
C 531 4730 717 4320 781 4058 
L 1152 4230 
C 1088 4493 890 4890 685 5190 
L 339 5037 
z
M 3168 5222 
C 3053 4922 2829 4467 2662 4192 
L 2989 4045 
C 3174 4307 3398 4710 3590 5056 
L 3168 5222 
z
M 294 224 
L 358 -230 
C 1184 -122 2387 45 3514 205 
L 3501 627 
L 2138 448 
L 2138 1152 
L 3194 1152 
L 3194 1555 
L 2138 1555 
L 2138 2208 
L 3328 2208 
L 3328 2618 
L 2643 2618 
C 2778 2842 2925 3181 3066 3482 
L 2637 3603 
L 3494 3603 
L 3494 3206 
L 5005 3206 
L 5005 83 
C 5005 -32 4960 -64 4845 -70 
C 4749 -70 4397 -77 4006 -64 
C 4077 -192 4154 -397 4179 -518 
C 4704 -518 5011 -506 5203 -429 
C 5389 -352 5466 -218 5466 83 
L 5466 3206 
L 6150 3206 
L 6150 3654 
L 5466 3654 
L 5466 5338 
L 5005 5338 
L 5005 3654 
L 3558 3654 
L 3558 4013 
L 2554 4013 
L 2554 5344 
L 2157 5344 
L 2157 4013 
L 1670 4013 
L 1670 5344 
L 1274 5344 
L 1274 4013 
L 269 4013 
L 269 3603 
L 2618 3603 
C 2547 3334 2381 2957 2259 2714 
L 2592 2618 
L 1184 2618 
L 1542 2746 
C 1498 2976 1350 3328 1184 3597 
L 800 3469 
C 954 3200 1088 2848 1126 2618 
L 506 2618 
L 506 2208 
L 1690 2208 
L 1690 1555 
L 672 1555 
L 672 1152 
L 1690 1152 
L 1690 390 
L 294 224 
z
" transform="scale(0.015625)"/>
     </defs>
     <use xlink:href="#NotoSansCJKjp-Regular-3d73"/>
     <use xlink:href="#NotoSansCJKjp-Regular-9e93" transform="translate(100 0)"/>
    </g>
   </g>
   <g id="text_7">
    <!-- 斜邊 -->
    <g style="fill: #1a7f37" transform="translate(192.556007 111.031965) rotate(-323.13) scale(0.13 -0.13)">
     <defs>
      <path id="NotoSansCJKjp-Regular-4e67" d="M 2438 1606 
C 2669 1184 2899 627 2976 275 
L 3373 448 
C 3290 787 3053 1331 2816 1747 
L 2438 1606 
z
M 794 1734 
C 672 1216 454 678 186 314 
C 294 262 480 147 563 77 
C 832 467 1082 1069 1229 1638 
L 794 1734 
z
M 3379 3059 
C 3770 2816 4224 2432 4429 2163 
L 4755 2477 
C 4544 2746 4077 3110 3693 3341 
L 3379 3059 
z
M 3603 4659 
C 3974 4390 4397 3987 4589 3706 
L 4934 4006 
C 4736 4282 4307 4666 3930 4922 
L 3603 4659 
z
M 1581 5376 
C 1318 4768 813 4000 96 3430 
C 198 3360 346 3200 416 3098 
C 557 3213 691 3341 813 3462 
L 813 3232 
L 1664 3232 
L 1664 2541 
L 326 2541 
L 326 2106 
L 1664 2106 
L 1664 26 
C 1664 -58 1638 -77 1555 -83 
C 1472 -83 1210 -83 915 -77 
C 979 -205 1050 -390 1069 -518 
C 1485 -518 1741 -506 1901 -429 
C 2067 -358 2125 -230 2125 19 
L 2125 2106 
L 3283 2106 
L 3283 2541 
L 2125 2541 
L 2125 3232 
L 2957 3232 
L 2957 3661 
L 998 3661 
C 1376 4083 1664 4518 1875 4896 
C 2291 4538 2746 4026 2970 3699 
L 3334 4090 
C 3053 4461 2496 4998 2042 5376 
L 1581 5376 
z
M 3290 1331 
L 3392 883 
L 5069 1242 
L 5069 -499 
L 5542 -499 
L 5542 1344 
L 6227 1491 
L 6131 1933 
L 5542 1811 
L 5542 5370 
L 5069 5370 
L 5069 1709 
L 3290 1331 
z
" transform="scale(0.015625)"/>
     </defs>
     <use xlink:href="#NotoSansCJKjp-Regular-4e67"/>
     <use xlink:href="#NotoSansCJKjp-Regular-9e93" transform="translate(100 0)"/>
    </g>
   </g>
   <g id="text_8">
    <g id="patch_3">
     <path d="M 133.98 87.44 
L 312.42 87.44 
Q 316.62 87.44 316.62 83.24 
L 316.62 65.72 
Q 316.62 61.52 312.42 61.52 
L 133.98 61.52 
Q 129.78 61.52 129.78 65.72 
L 129.78 83.24 
Q 129.78 87.44 133.98 87.44 
z
" style="fill: #ffffff; stroke: #d8dde3; stroke-width: 1.2; stroke-linejoin: miter"/>
    </g>
    <!-- $\sin\theta=\frac{\mathrm{opp}}{\mathrm{hyp}},\ \cos\theta=\frac{\mathrm{adj}}{\mathrm{hyp}},\ \tan\theta=\frac{\mathrm{opp}}{\mathrm{adj}}$ -->
    <g style="fill: #222831" transform="translate(133.98 77.48) scale(0.12 -0.12)">
     <defs>
      <path id="Cmr10-52" d="M 213 -19 
L 213 1025 
Q 213 1075 269 1075 
L 347 1075 
Q 384 1075 397 1025 
Q 575 97 1259 97 
Q 1563 97 1767 234 
Q 1972 372 1972 659 
Q 1972 866 1812 1011 
Q 1653 1156 1434 1209 
L 1006 1294 
Q 791 1341 614 1437 
Q 438 1534 325 1695 
Q 213 1856 213 2069 
Q 213 2350 361 2529 
Q 509 2709 746 2789 
Q 984 2869 1259 2869 
Q 1588 2869 1831 2694 
L 2016 2853 
Q 2016 2869 2047 2869 
L 2094 2869 
Q 2113 2869 2128 2851 
Q 2144 2834 2144 2816 
L 2144 1978 
Q 2144 1919 2094 1919 
L 2016 1919 
Q 1959 1919 1959 1978 
Q 1959 2313 1773 2516 
Q 1588 2719 1253 2719 
Q 966 2719 755 2612 
Q 544 2506 544 2247 
Q 544 2069 695 1955 
Q 847 1841 1050 1791 
L 1484 1709 
Q 1703 1659 1892 1540 
Q 2081 1422 2192 1240 
Q 2303 1059 2303 831 
Q 2303 600 2223 429 
Q 2144 259 2001 146 
Q 1859 34 1665 -19 
Q 1472 -72 1259 -72 
Q 859 -72 575 197 
L 341 -56 
Q 341 -72 306 -72 
L 269 -72 
Q 213 -72 213 -19 
z
" transform="scale(0.015625)"/>
      <path id="Cmr10-24" d="M 197 0 
L 197 225 
Q 416 225 556 259 
Q 697 294 697 428 
L 697 2175 
Q 697 2422 601 2478 
Q 506 2534 225 2534 
L 225 2759 
L 1147 2828 
L 1147 428 
Q 1147 294 1269 259 
Q 1391 225 1594 225 
L 1594 0 
L 197 0 
z
M 469 3928 
Q 469 4069 575 4175 
Q 681 4281 819 4281 
Q 909 4281 993 4234 
Q 1078 4188 1125 4103 
Q 1172 4019 1172 3928 
Q 1172 3791 1065 3684 
Q 959 3578 819 3578 
Q 681 3578 575 3684 
Q 469 3791 469 3928 
z
" transform="scale(0.015625)"/>
      <path id="Cmr10-74" d="M 191 0 
L 191 225 
Q 409 225 550 259 
Q 691 294 691 428 
L 691 2175 
Q 691 2347 639 2423 
Q 588 2500 491 2517 
Q 394 2534 191 2534 
L 191 2759 
L 1119 2828 
L 1119 2203 
Q 1247 2478 1498 2653 
Q 1750 2828 2047 2828 
Q 2491 2828 2714 2615 
Q 2938 2403 2938 1966 
L 2938 428 
Q 2938 294 3078 259 
Q 3219 225 3438 225 
L 3438 0 
L 1972 0 
L 1972 225 
Q 2191 225 2331 259 
Q 2472 294 2472 428 
L 2472 1947 
Q 2472 2259 2381 2461 
Q 2291 2663 2009 2663 
Q 1638 2663 1398 2366 
Q 1159 2069 1159 1691 
L 1159 428 
Q 1159 294 1300 259 
Q 1441 225 1656 225 
L 1656 0 
L 191 0 
z
" transform="scale(0.015625)"/>
      <path id="Cmr10-29" d="M 481 850 
Q 428 850 393 890 
Q 359 931 359 978 
Q 359 1031 393 1068 
Q 428 1106 481 1106 
L 4500 1106 
Q 4547 1106 4581 1068 
Q 4616 1031 4616 978 
Q 4616 931 4581 890 
Q 4547 850 4500 850 
L 481 850 
z
M 481 2094 
Q 428 2094 393 2131 
Q 359 2169 359 2222 
Q 359 2269 393 2309 
Q 428 2350 481 2350 
L 4500 2350 
Q 4547 2350 4581 2309 
Q 4616 2269 4616 2222 
Q 4616 2169 4581 2131 
Q 4547 2094 4500 2094 
L 481 2094 
z
" transform="scale(0.015625)"/>
      <path id="Cmr10-42" d="M 1600 -72 
Q 1216 -72 887 123 
Q 559 319 368 647 
Q 178 975 178 1363 
Q 178 1656 283 1928 
Q 388 2200 583 2414 
Q 778 2628 1037 2748 
Q 1297 2869 1600 2869 
Q 1994 2869 2317 2661 
Q 2641 2453 2828 2104 
Q 3016 1756 3016 1363 
Q 3016 978 2825 648 
Q 2634 319 2307 123 
Q 1981 -72 1600 -72 
z
M 1600 116 
Q 2113 116 2284 487 
Q 2456 859 2456 1434 
Q 2456 1756 2422 1967 
Q 2388 2178 2272 2350 
Q 2200 2456 2089 2536 
Q 1978 2616 1854 2658 
Q 1731 2700 1600 2700 
Q 1400 2700 1220 2609 
Q 1041 2519 922 2350 
Q 803 2169 770 1951 
Q 738 1734 738 1434 
Q 738 1075 800 789 
Q 863 503 1052 309 
Q 1241 116 1600 116 
z
" transform="scale(0.015625)"/>
      <path id="Cmr10-7d" d="M 166 -1241 
L 166 -1019 
Q 384 -1019 525 -981 
Q 666 -944 666 -813 
L 666 2272 
Q 666 2447 541 2490 
Q 416 2534 166 2534 
L 166 2759 
L 1113 2828 
L 1113 2431 
Q 1288 2625 1520 2726 
Q 1753 2828 2016 2828 
Q 2394 2828 2697 2623 
Q 3000 2419 3170 2086 
Q 3341 1753 3341 1381 
Q 3341 994 3152 659 
Q 2963 325 2636 126 
Q 2309 -72 1919 -72 
Q 1453 -72 1131 306 
L 1131 -813 
Q 1131 -944 1273 -981 
Q 1416 -1019 1631 -1019 
L 1631 -1241 
L 166 -1241 
z
M 1131 622 
Q 1244 394 1444 245 
Q 1644 97 1881 97 
Q 2103 97 2273 215 
Q 2444 334 2559 534 
Q 2675 734 2729 954 
Q 2784 1175 2784 1381 
Q 2784 1638 2692 1936 
Q 2600 2234 2411 2439 
Q 2222 2644 1953 2644 
Q 1694 2644 1476 2511 
Q 1259 2378 1131 2150 
L 1131 622 
z
" transform="scale(0.015625)"/>
      <path id="Cmr10-59" d="M 191 0 
L 191 225 
Q 409 225 550 259 
Q 691 294 691 428 
L 691 3788 
Q 691 3959 639 4036 
Q 588 4113 491 4130 
Q 394 4147 191 4147 
L 191 4372 
L 1141 4441 
L 1141 2241 
Q 1275 2506 1515 2667 
Q 1756 2828 2047 2828 
Q 2491 2828 2714 2615 
Q 2938 2403 2938 1966 
L 2938 428 
Q 2938 294 3078 259 
Q 3219 225 3438 225 
L 3438 0 
L 1972 0 
L 1972 225 
Q 2191 225 2331 259 
Q 2472 294 2472 428 
L 2472 1947 
Q 2472 2259 2381 2461 
Q 2291 2663 2009 2663 
Q 1638 2663 1398 2366 
Q 1159 2069 1159 1691 
L 1159 428 
Q 1159 294 1300 259 
Q 1441 225 1656 225 
L 1656 0 
L 191 0 
z
" transform="scale(0.015625)"/>
      <path id="Cmr10-6b" d="M 441 -1050 
Q 563 -1147 709 -1147 
Q 1113 -1147 1369 -538 
L 1588 0 
L 628 2350 
Q 569 2469 447 2501 
Q 325 2534 122 2534 
L 122 2759 
L 1466 2759 
L 1466 2534 
Q 1113 2534 1113 2381 
Q 1113 2356 1119 2344 
L 1831 594 
L 2472 2169 
Q 2491 2219 2491 2278 
Q 2491 2356 2448 2414 
Q 2406 2472 2339 2503 
Q 2272 2534 2188 2534 
L 2188 2759 
L 3250 2759 
L 3250 2534 
Q 3053 2534 2904 2443 
Q 2756 2353 2675 2175 
L 1569 -538 
Q 1481 -744 1364 -917 
Q 1247 -1091 1078 -1202 
Q 909 -1313 709 -1313 
Q 475 -1313 298 -1158 
Q 122 -1003 122 -775 
Q 122 -656 203 -575 
Q 284 -494 403 -494 
Q 484 -494 548 -530 
Q 613 -566 648 -628 
Q 684 -691 684 -775 
Q 684 -878 615 -959 
Q 547 -1041 441 -1050 
z
" transform="scale(0.015625)"/>
      <path id="Cmmi10-2c" d="M 634 -1153 
Q 634 -1125 659 -1100 
Q 891 -878 1019 -587 
Q 1147 -297 1147 25 
L 1147 103 
Q 1044 0 891 0 
Q 744 0 641 103 
Q 538 206 538 353 
Q 538 503 641 603 
Q 744 703 891 703 
Q 1119 703 1216 492 
Q 1313 281 1313 25 
Q 1313 -331 1170 -651 
Q 1028 -972 769 -1228 
Q 744 -1241 728 -1241 
Q 697 -1241 665 -1212 
Q 634 -1184 634 -1153 
z
" transform="scale(0.015625)"/>
      <path id="Cmr10-7b" d="M 1594 -72 
Q 1206 -72 890 129 
Q 575 331 394 667 
Q 213 1003 213 1381 
Q 213 1759 392 2106 
Q 572 2453 889 2661 
Q 1206 2869 1594 2869 
Q 1969 2869 2276 2722 
Q 2584 2575 2584 2241 
Q 2584 2116 2495 2023 
Q 2406 1931 2278 1931 
Q 2150 1931 2061 2023 
Q 1972 2116 1972 2241 
Q 1972 2353 2044 2436 
Q 2116 2519 2222 2541 
Q 2000 2681 1600 2681 
Q 1294 2681 1106 2478 
Q 919 2275 844 1975 
Q 769 1675 769 1381 
Q 769 1072 861 783 
Q 953 494 1158 305 
Q 1363 116 1672 116 
Q 1975 116 2187 302 
Q 2400 488 2478 788 
Q 2478 825 2528 825 
L 2606 825 
Q 2625 825 2640 808 
Q 2656 791 2656 769 
L 2656 750 
Q 2559 372 2271 150 
Q 1984 -72 1594 -72 
z
" transform="scale(0.015625)"/>
      <path id="Cmr10-73" d="M 256 628 
Q 256 1009 556 1248 
Q 856 1488 1276 1586 
Q 1697 1684 2075 1684 
L 2075 1947 
Q 2075 2131 1994 2304 
Q 1913 2478 1759 2589 
Q 1606 2700 1422 2700 
Q 997 2700 775 2509 
Q 897 2509 976 2417 
Q 1056 2325 1056 2203 
Q 1056 2075 965 1984 
Q 875 1894 750 1894 
Q 622 1894 531 1984 
Q 441 2075 441 2203 
Q 441 2541 747 2705 
Q 1053 2869 1422 2869 
Q 1681 2869 1943 2758 
Q 2206 2647 2373 2440 
Q 2541 2234 2541 1959 
L 2541 519 
Q 2541 394 2594 289 
Q 2647 184 2759 184 
Q 2866 184 2917 290 
Q 2969 397 2969 519 
L 2969 928 
L 3156 928 
L 3156 519 
Q 3156 375 3081 245 
Q 3006 116 2879 39 
Q 2753 -38 2606 -38 
Q 2419 -38 2283 107 
Q 2147 253 2131 453 
Q 2013 213 1781 70 
Q 1550 -72 1288 -72 
Q 1044 -72 808 0 
Q 572 72 414 226 
Q 256 381 256 628 
z
M 775 628 
Q 775 403 940 250 
Q 1106 97 1331 97 
Q 1538 97 1706 200 
Q 1875 303 1975 481 
Q 2075 659 2075 856 
L 2075 1522 
Q 1784 1522 1479 1426 
Q 1175 1331 975 1128 
Q 775 925 775 628 
z
" transform="scale(0.015625)"/>
      <path id="Cmr10-49" d="M 1563 -72 
Q 1184 -72 871 133 
Q 559 338 386 672 
Q 213 1006 213 1381 
Q 213 1769 402 2101 
Q 591 2434 916 2631 
Q 1241 2828 1631 2828 
Q 1866 2828 2075 2729 
Q 2284 2631 2438 2456 
L 2438 3788 
Q 2438 3959 2386 4036 
Q 2334 4113 2239 4130 
Q 2144 4147 1941 4147 
L 1941 4372 
L 2888 4441 
L 2888 581 
Q 2888 413 2939 336 
Q 2991 259 3086 242 
Q 3181 225 3384 225 
L 3384 0 
L 2419 -72 
L 2419 331 
Q 2253 141 2025 34 
Q 1797 -72 1563 -72 
z
M 909 556 
Q 1019 347 1201 222 
Q 1384 97 1600 97 
Q 1866 97 2087 250 
Q 2309 403 2419 647 
L 2419 2181 
Q 2344 2322 2230 2433 
Q 2116 2544 1973 2603 
Q 1831 2663 1672 2663 
Q 1338 2663 1134 2473 
Q 931 2284 850 1990 
Q 769 1697 769 1375 
Q 769 1119 795 928 
Q 822 738 909 556 
z
" transform="scale(0.015625)"/>
      <path id="Cmr10-60" d="M 128 -1075 
Q 275 -1147 459 -1147 
Q 713 -1147 811 -889 
Q 909 -631 909 -331 
L 909 2175 
Q 909 2347 846 2423 
Q 784 2500 676 2517 
Q 569 2534 359 2534 
L 359 2759 
L 1356 2828 
L 1356 -359 
Q 1356 -606 1234 -826 
Q 1113 -1047 903 -1180 
Q 694 -1313 447 -1313 
Q 169 -1313 -56 -1175 
Q -281 -1038 -281 -788 
Q -281 -663 -190 -572 
Q -100 -481 25 -481 
Q 150 -481 240 -572 
Q 331 -663 331 -788 
Q 331 -884 276 -965 
Q 222 -1047 128 -1075 
z
M 653 3928 
Q 653 4069 759 4175 
Q 866 4281 1006 4281 
Q 1094 4281 1178 4234 
Q 1263 4188 1309 4103 
Q 1356 4019 1356 3928 
Q 1356 3791 1253 3684 
Q 1150 3578 1006 3578 
Q 866 3578 759 3684 
Q 653 3791 653 3928 
z
" transform="scale(0.015625)"/>
      <path id="Cmr10-1c" d="M 653 769 
L 653 2534 
L 122 2534 
L 122 2700 
Q 541 2700 737 3090 
Q 934 3481 934 3938 
L 1119 3938 
L 1119 2759 
L 2022 2759 
L 2022 2534 
L 1119 2534 
L 1119 781 
Q 1119 516 1208 316 
Q 1297 116 1528 116 
Q 1747 116 1844 327 
Q 1941 538 1941 781 
L 1941 1159 
L 2125 1159 
L 2125 769 
Q 2125 569 2051 373 
Q 1978 178 1834 53 
Q 1691 -72 1484 -72 
Q 1100 -72 876 158 
Q 653 388 653 769 
z
" transform="scale(0.015625)"/>
     </defs>
     <use xlink:href="#Cmr10-52" transform="translate(0 0.690625)"/>
     <use xlink:href="#Cmr10-24" transform="translate(39.404297 0.690625)"/>
     <use xlink:href="#Cmr10-74" transform="translate(67.089844 0.690625)"/>
     <use xlink:href="#Cmmi10-12" transform="translate(139.27447 0.690625)"/>
     <use xlink:href="#Cmr10-29" transform="translate(206.198355 0.690625)"/>
     <use xlink:href="#Cmr10-42" transform="translate(311.133959 48.639062) scale(0.7)"/>
     <use xlink:href="#Cmr10-7d" transform="translate(346.133959 48.639062) scale(0.7)"/>
     <use xlink:href="#Cmr10-7d" transform="translate(384.996264 48.639062) scale(0.7)"/>
     <use xlink:href="#Cmr10-59" transform="translate(310.133959 -32.257812) scale(0.7)"/>
     <use xlink:href="#Cmr10-6b" transform="translate(348.996264 -32.257812) scale(0.7)"/>
     <use xlink:href="#Cmr10-7d" transform="translate(385.876147 -32.257812) scale(0.7)"/>
     <use xlink:href="#Cmmi10-2c" transform="translate(430.988451 0.690625)"/>
     <use xlink:href="#Cmr10-7b" transform="translate(512.007151 0.690625)"/>
     <use xlink:href="#Cmr10-42" transform="translate(556.391916 0.690625)"/>
     <use xlink:href="#Cmr10-52" transform="translate(606.391916 0.690625)"/>
     <use xlink:href="#Cmmi10-12" transform="translate(662.463261 0.690625)"/>
     <use xlink:href="#Cmr10-29" transform="translate(729.387146 0.690625)"/>
     <use xlink:href="#Cmr10-73" transform="translate(843.32275 49.426563) scale(0.7)"/>
     <use xlink:href="#Cmr10-49" transform="translate(878.32275 49.426563) scale(0.7)"/>
     <use xlink:href="#Cmr10-60" transform="translate(917.185055 49.426563) scale(0.7)"/>
     <use xlink:href="#Cmr10-59" transform="translate(833.32275 -32.257812) scale(0.7)"/>
     <use xlink:href="#Cmr10-6b" transform="translate(872.185055 -32.257812) scale(0.7)"/>
     <use xlink:href="#Cmr10-7d" transform="translate(909.064938 -32.257812) scale(0.7)"/>
     <use xlink:href="#Cmmi10-2c" transform="translate(954.177242 0.690625)"/>
     <use xlink:href="#Cmr10-1c" transform="translate(1035.195942 0.690625)"/>
     <use xlink:href="#Cmr10-73" transform="translate(1074.014301 0.690625)"/>
     <use xlink:href="#Cmr10-74" transform="translate(1124.014301 0.690625)"/>
     <use xlink:href="#Cmmi10-12" transform="translate(1196.198927 0.690625)"/>
     <use xlink:href="#Cmr10-29" transform="translate(1263.122812 0.690625)"/>
     <use xlink:href="#Cmr10-42" transform="translate(1367.058417 48.639062) scale(0.7)"/>
     <use xlink:href="#Cmr10-7d" transform="translate(1402.058417 48.639062) scale(0.7)"/>
     <use xlink:href="#Cmr10-7d" transform="translate(1440.920721 48.639062) scale(0.7)"/>
     <use xlink:href="#Cmr10-73" transform="translate(1376.058417 -32.257812) scale(0.7)"/>
     <use xlink:href="#Cmr10-49" transform="translate(1411.058417 -32.257812) scale(0.7)"/>
     <use xlink:href="#Cmr10-60" transform="translate(1449.920721 -32.257812) scale(0.7)"/>
     <path d="M 310.133959 22.565625 
L 310.133959 28.815625 
L 424.738451 28.815625 
L 424.738451 22.565625 
L 310.133959 22.565625 
z
"/>
     <path d="M 833.32275 22.565625 
L 833.32275 28.815625 
L 947.927242 28.815625 
L 947.927242 22.565625 
L 833.32275 22.565625 
z
"/>
     <path d="M 1367.058417 22.565625 
L 1367.058417 28.815625 
L 1479.783026 28.815625 
L 1479.783026 22.565625 
L 1367.058417 22.565625 
z
"/>
    </g>
   </g>
   <g id="text_9">
    <!-- 直角三角形的三角比 -->
    <g style="fill: #222831" transform="translate(122.76 19.52) scale(0.14 -0.14)">
     <defs>
      <path id="NotoSansCJKjp-Regular-6ce1" d="M 2374 2586 
L 4832 2586 
L 4832 2061 
L 2374 2061 
L 2374 2586 
z
M 2374 1715 
L 4832 1715 
L 4832 1178 
L 2374 1178 
L 2374 1715 
z
M 2374 3456 
L 4832 3456 
L 4832 2931 
L 2374 2931 
L 2374 3456 
z
M 736 3635 
L 736 -518 
L 1203 -518 
L 1203 -179 
L 6080 -179 
L 6080 269 
L 1203 269 
L 1203 3635 
L 736 3635 
z
M 3053 5395 
L 3008 4787 
L 397 4787 
L 397 4339 
L 2963 4339 
L 2899 3814 
L 1914 3814 
L 1914 813 
L 5306 813 
L 5306 3814 
L 3379 3814 
L 3469 4339 
L 6029 4339 
L 6029 4787 
L 3533 4787 
L 3603 5363 
L 3053 5395 
z
" transform="scale(0.015625)"/>
      <path id="NotoSansCJKjp-Regular-9248" d="M 1696 3482 
L 3110 3482 
L 3110 2630 
L 1696 2630 
L 1696 3482 
z
M 1696 3910 
L 1683 3910 
C 1888 4134 2074 4365 2234 4595 
L 3795 4595 
C 3667 4365 3501 4109 3341 3910 
L 1696 3910 
z
M 5101 3482 
L 5101 2630 
L 3571 2630 
L 3571 3482 
L 5101 3482 
z
M 2157 5395 
C 1837 4749 1222 3955 358 3373 
C 474 3302 627 3149 704 3034 
C 890 3168 1062 3309 1222 3450 
L 1222 2310 
C 1222 1498 1120 506 211 -198 
C 307 -269 480 -442 550 -544 
C 1062 -147 1357 371 1517 902 
L 5101 902 
L 5101 102 
C 5101 -19 5062 -58 4922 -64 
C 4774 -70 4275 -70 3757 -58 
C 3827 -186 3917 -390 3942 -525 
C 4595 -525 5011 -518 5254 -442 
C 5491 -365 5574 -218 5574 96 
L 5574 3910 
L 3872 3910 
C 4096 4192 4314 4518 4461 4813 
L 4134 5024 
L 4058 4998 
L 2502 4998 
L 2675 5299 
L 2157 5395 
z
M 1696 2214 
L 3110 2214 
L 3110 1325 
L 1613 1325 
C 1670 1632 1690 1933 1696 2214 
z
M 5101 2214 
L 5101 1325 
L 3571 1325 
L 3571 2214 
L 5101 2214 
z
" transform="scale(0.015625)"/>
      <path id="NotoSansCJKjp-Regular-2514" d="M 787 4755 
L 787 4269 
L 5626 4269 
L 5626 4755 
L 787 4755 
z
M 1197 2662 
L 1197 2182 
L 5126 2182 
L 5126 2662 
L 1197 2662 
z
M 416 442 
L 416 -45 
L 5978 -45 
L 5978 442 
L 416 442 
z
" transform="scale(0.015625)"/>
      <path id="NotoSansCJKjp-Regular-43ac" d="M 5414 5274 
C 5018 4755 4288 4211 3674 3904 
C 3795 3814 3936 3674 4019 3565 
C 4672 3923 5389 4499 5862 5088 
L 5414 5274 
z
M 5600 3507 
C 5171 2950 4397 2374 3738 2042 
C 3859 1946 4000 1798 4083 1702 
C 4768 2080 5542 2701 6035 3328 
L 5600 3507 
z
M 5747 1779 
C 5267 979 4358 269 3405 -122 
C 3533 -224 3674 -390 3750 -506 
C 4736 -51 5651 710 6195 1600 
L 5747 1779 
z
M 2586 4531 
L 2586 2874 
L 1555 2874 
L 1555 4531 
L 2586 4531 
z
M 262 2874 
L 262 2426 
L 1094 2426 
C 1069 1472 928 531 237 -230 
C 352 -294 518 -448 595 -550 
C 1363 288 1523 1350 1549 2426 
L 2586 2426 
L 2586 -506 
L 3059 -506 
L 3059 2426 
L 3750 2426 
L 3750 2874 
L 3059 2874 
L 3059 4531 
L 3667 4531 
L 3667 4979 
L 371 4979 
L 371 4531 
L 1101 4531 
L 1101 2874 
L 262 2874 
z
" transform="scale(0.015625)"/>
      <path id="NotoSansCJKjp-Regular-6c33" d="M 3533 2707 
C 3885 2240 4320 1600 4512 1210 
L 4922 1466 
C 4710 1843 4269 2464 3904 2918 
L 3533 2707 
z
M 1536 5389 
C 1485 5082 1376 4659 1274 4346 
L 557 4346 
L 557 -346 
L 998 -346 
L 998 160 
L 2784 160 
L 2784 4346 
L 1715 4346 
C 1824 4621 1946 4979 2054 5299 
L 1536 5389 
z
M 998 3917 
L 2342 3917 
L 2342 2566 
L 998 2566 
L 998 3917 
z
M 998 595 
L 998 2144 
L 2342 2144 
L 2342 595 
L 998 595 
z
M 3827 5402 
C 3622 4518 3277 3635 2835 3066 
C 2950 3002 3149 2867 3238 2790 
C 3456 3098 3661 3488 3840 3923 
L 5478 3923 
C 5402 1357 5299 371 5094 154 
C 5018 64 4947 45 4819 45 
C 4672 45 4288 51 3866 83 
C 3955 -38 4013 -243 4026 -378 
C 4384 -397 4762 -410 4979 -390 
C 5210 -365 5350 -314 5498 -122 
C 5754 192 5843 1184 5939 4122 
C 5946 4186 5946 4365 5946 4365 
L 4013 4365 
C 4115 4666 4211 4986 4288 5299 
L 3827 5402 
z
" transform="scale(0.015625)"/>
      <path id="NotoSansCJKjp-Regular-5942" d="M 250 128 
L 397 -371 
C 1197 -179 2278 77 3290 326 
L 3245 787 
C 2694 659 2125 525 1600 410 
L 1600 2925 
L 3046 2925 
L 3046 3398 
L 1600 3398 
L 1600 5344 
L 1107 5344 
L 1107 301 
L 250 128 
z
M 3520 5344 
L 3520 512 
C 3520 -186 3693 -371 4320 -371 
C 4448 -371 5261 -371 5395 -371 
C 6003 -371 6138 -13 6202 1037 
C 6061 1069 5869 1152 5747 1248 
C 5709 320 5670 83 5370 83 
C 5190 83 4506 83 4371 83 
C 4064 83 4013 147 4013 499 
L 4013 2586 
C 4691 2874 5414 3219 5952 3571 
L 5594 3974 
C 5216 3674 4608 3328 4013 3046 
L 4013 5344 
L 3520 5344 
z
" transform="scale(0.015625)"/>
     </defs>
     <use xlink:href="#NotoSansCJKjp-Regular-6ce1"/>
     <use xlink:href="#NotoSansCJKjp-Regular-9248" transform="translate(100 0)"/>
     <use xlink:href="#NotoSansCJKjp-Regular-2514" transform="translate(200 0)"/>
     <use xlink:href="#NotoSansCJKjp-Regular-9248" transform="translate(300 0)"/>
     <use xlink:href="#NotoSansCJKjp-Regular-43ac" transform="translate(400 0)"/>
     <use xlink:href="#NotoSansCJKjp-Regular-6c33" transform="translate(500 0)"/>
     <use xlink:href="#NotoSansCJKjp-Regular-2514" transform="translate(600 0)"/>
     <use xlink:href="#NotoSansCJKjp-Regular-9248" transform="translate(700 0)"/>
     <use xlink:href="#NotoSansCJKjp-Regular-5942" transform="translate(800 0)"/>
    </g>
   </g>
   <g id="patch_4">
    <path d="M 265.24804 210.415946 
C 262.833575 213.635221 260.953843 217.222807 259.681308 221.040401 
C 258.408773 224.857995 257.76 228.855901 257.76 232.88 
" clip-path="url(#p6fc9b11c31)" style="fill: none; stroke: #bf8700; stroke-width: 2; stroke-linejoin: miter"/>
   </g>
   <g id="line2d_4">
    <path d="M 82.08 232.88 
L 82.08 215.6 
" clip-path="url(#p6fc9b11c31)" style="fill: none; stroke: #222831; stroke-width: 1.2; stroke-linecap: square"/>
   </g>
   <g id="line2d_5">
    <path d="M 82.08 215.6 
L 64.8 215.6 
" clip-path="url(#p6fc9b11c31)" style="fill: none; stroke: #222831; stroke-width: 1.2; stroke-linecap: square"/>
   </g>
   <g id="patch_5">
    <path d="M 64.8 236.336 
C 65.716542 236.336 66.595668 235.971854 67.243761 235.323761 
C 67.891854 234.675668 68.256 233.796542 68.256 232.88 
C 68.256 231.963458 67.891854 231.084332 67.243761 230.436239 
C 66.595668 229.788146 65.716542 229.424 64.8 229.424 
C 63.883458 229.424 63.004332 229.788146 62.356239 230.436239 
C 61.708146 231.084332 61.344 231.963458 61.344 232.88 
C 61.344 233.796542 61.708146 234.675668 62.356239 235.323761 
C 63.004332 235.971854 63.883458 236.336 64.8 236.336 
z
" clip-path="url(#p6fc9b11c31)" style="fill: #222831; stroke: #222831; stroke-linejoin: miter"/>
   </g>
   <g id="patch_6">
    <path d="M 295.2 236.336 
C 296.116542 236.336 296.995668 235.971854 297.643761 235.323761 
C 298.291854 234.675668 298.656 233.796542 298.656 232.88 
C 298.656 231.963458 298.291854 231.084332 297.643761 230.436239 
C 296.995668 229.788146 296.116542 229.424 295.2 229.424 
C 294.283458 229.424 293.404332 229.788146 292.756239 230.436239 
C 292.108146 231.084332 291.744 231.963458 291.744 232.88 
C 291.744 233.796542 292.108146 234.675668 292.756239 235.323761 
C 293.404332 235.971854 294.283458 236.336 295.2 236.336 
z
" clip-path="url(#p6fc9b11c31)" style="fill: #222831; stroke: #222831; stroke-linejoin: miter"/>
   </g>
   <g id="patch_7">
    <path d="M 64.8 63.536 
C 65.716542 63.536 66.595668 63.171854 67.243761 62.523761 
C 67.891854 61.875668 68.256 60.996542 68.256 60.08 
C 68.256 59.163458 67.891854 58.284332 67.243761 57.636239 
C 66.595668 56.988146 65.716542 56.624 64.8 56.624 
C 63.883458 56.624 63.004332 56.988146 62.356239 57.636239 
C 61.708146 58.284332 61.344 59.163458 61.344 60.08 
C 61.344 60.996542 61.708146 61.875668 62.356239 62.523761 
C 63.004332 63.171854 63.883458 63.536 64.8 63.536 
z
" clip-path="url(#p6fc9b11c31)" style="fill: #222831; stroke: #222831; stroke-linejoin: miter"/>
   </g>
  </g>
 </g>
 <defs>
  <clipPath id="p6fc9b11c31">
   <rect x="7.2" y="25.52" width="357.12" height="264.96"/>
  </clipPath>
 </defs>
</svg>
