<?xml version="1.0" encoding="utf-8" standalone="no"?>
<!DOCTYPE svg PUBLIC "-//W3C//DTD SVG 1.1//EN"
  "http://www.w3.org/Graphics/SVG/1.1/DTD/svg11.dtd">
<svg xmlns:xlink="http://www.w3.org/1999/xlink" width="791.784pt" height="413.432pt" viewBox="0 0 791.784 413.432" xmlns="http://www.w3.org/2000/svg" version="1.1">
 <metadata>
  <rdf:RDF xmlns:dc="http://purl.org/dc/elements/1.1/" xmlns:cc="http://creativecommons.org/ns#" xmlns:rdf="http://www.w3.org/1999/02/22-rdf-syntax-ns#">
   <cc:Work>
    <dc:type rdf:resource="http://purl.org/dc/dcmitype/StillImage"/>
    <dc:format>image/svg+xml</dc:format>
    <dc:creator>
     <cc:Agent>
      <dc:title>Matplotlib v3.11.0, https://matplotlib.org/</dc:title>
     </cc:Agent>
    </dc:creator>
   </cc:Work>
  </rdf:RDF>
 </metadata>
 <defs>
  <style type="text/css">*{stroke-linejoin: round; stroke-linecap: butt}</style>
 </defs>
 <g id="figure_1">
  <g id="patch_1">
   <path d="M 0 413.432
L 791.784 413.432
L 791.784 0
L 0 0
z
" style="fill: #ffffff"/>
  </g>
  <g id="axes_1">
   <g id="patch_2">
    <path d="M 7.2 370.512
L 272.217273 370.512
L 272.217273 78.192
L 7.2 78.192
z
" style="fill: #ffffff"/>
   </g>
   <g id="matplotlib.axis_1">
    <g id="xtick_1">
     <g id="line2d_1">
      <path d="M 53.005455 370.512
L 53.005455 78.192
" clip-path="url(#p1567f58889)" style="fill: none; stroke: #d8dde3; stroke-width: 0.9; stroke-linecap: square"/>
     </g>
     <g id="line2d_2">
      <defs>
       <path id="me3879764b7" d="M 0 0
L 0 3.5
" style="stroke: #222831; stroke-width: 0.8"/>
      </defs>
      <g>
       <use xlink:href="#me3879764b7" x="53.005455" y="370.512" style="fill: #222831; stroke: #222831; stroke-width: 0.8"/>
      </g>
     </g>
     <g id="text_1">
      <!-- -2 -->
      <g style="fill: #222831" transform="translate(47.593267 388.072) scale(0.12 -0.12)">
       <defs>
        <path id="NotoSansCJKtc-Regular-e" d="M 294 1568
L 1933 1568
L 1933 2016
L 294 2016
L 294 1568
z
" transform="scale(0.015625)"/>
        <path id="NotoSansCJKtc-Regular-13" d="M 282 0
L 3232 0
L 3232 506
L 1933 506
C 1696 506 1408 480 1165 461
C 2266 1504 3008 2458 3008 3398
C 3008 4230 2477 4774 1638 4774
C 1043 4774 634 4506 256 4090
L 595 3757
C 858 4070 1184 4301 1568 4301
C 2150 4301 2432 3910 2432 3373
C 2432 2566 1754 1632 282 346
L 282 0
z
" transform="scale(0.015625)"/>
       </defs>
       <use xlink:href="#NotoSansCJKtc-Regular-e"/>
       <use xlink:href="#NotoSansCJKtc-Regular-13" transform="translate(34.703125 0)"/>
      </g>
     </g>
    </g>
    <g id="xtick_2">
     <g id="line2d_3">
      <path d="M 118.441818 370.512
L 118.441818 78.192
" clip-path="url(#p1567f58889)" style="fill: none; stroke: #d8dde3; stroke-width: 0.9; stroke-linecap: square"/>
     </g>
     <g id="line2d_4">
      <g>
       <use xlink:href="#me3879764b7" x="118.441818" y="370.512" style="fill: #222831; stroke: #222831; stroke-width: 0.8"/>
      </g>
     </g>
     <g id="text_2">
      <!-- -1 -->
      <g style="fill: #222831" transform="translate(113.029631 388.072) scale(0.12 -0.12)">
       <defs>
        <path id="NotoSansCJKtc-Regular-12" d="M 563 0
L 3136 0
L 3136 486
L 2195 486
L 2195 4691
L 1747 4691
C 1491 4544 1190 4435 774 4358
L 774 3987
L 1613 3987
L 1613 486
L 563 486
L 563 0
z
" transform="scale(0.015625)"/>
       </defs>
       <use xlink:href="#NotoSansCJKtc-Regular-e"/>
       <use xlink:href="#NotoSansCJKtc-Regular-12" transform="translate(34.703125 0)"/>
      </g>
     </g>
    </g>
    <g id="xtick_3">
     <g id="line2d_5">
      <path d="M 183.878182 370.512
L 183.878182 78.192
" clip-path="url(#p1567f58889)" style="fill: none; stroke: #d8dde3; stroke-width: 0.9; stroke-linecap: square"/>
     </g>
     <g id="line2d_6">
      <g>
       <use xlink:href="#me3879764b7" x="183.878182" y="370.512" style="fill: #222831; stroke: #222831; stroke-width: 0.8"/>
      </g>
     </g>
     <g id="text_3">
      <!-- 0 -->
      <g style="fill: #222831" transform="translate(180.548182 388.072) scale(0.12 -0.12)">
       <defs>
        <path id="NotoSansCJKtc-Regular-11" d="M 1779 -83
C 2669 -83 3238 723 3238 2362
C 3238 3987 2669 4774 1779 4774
C 883 4774 320 3987 320 2362
C 320 723 883 -83 1779 -83
z
M 1779 390
C 1248 390 883 986 883 2362
C 883 3731 1248 4314 1779 4314
C 2310 4314 2675 3731 2675 2362
C 2675 986 2310 390 1779 390
z
" transform="scale(0.015625)"/>
       </defs>
       <use xlink:href="#NotoSansCJKtc-Regular-11"/>
      </g>
     </g>
    </g>
    <g id="xtick_4">
     <g id="line2d_7">
      <path d="M 249.314545 370.512
L 249.314545 78.192
" clip-path="url(#p1567f58889)" style="fill: none; stroke: #d8dde3; stroke-width: 0.9; stroke-linecap: square"/>
     </g>
     <g id="line2d_8">
      <g>
       <use xlink:href="#me3879764b7" x="249.314545" y="370.512" style="fill: #222831; stroke: #222831; stroke-width: 0.8"/>
      </g>
     </g>
     <g id="text_4">
      <!-- 1 -->
      <g style="fill: #222831" transform="translate(245.984545 388.072) scale(0.12 -0.12)">
       <use xlink:href="#NotoSansCJKtc-Regular-12"/>
      </g>
     </g>
    </g>
    <g id="text_5">
     <!-- 標準還原電位 $E^\circ$ / V -->
     <g style="fill: #222831" transform="translate(84.328636 404.072) scale(0.12 -0.12)">
      <defs>
       <path id="NotoSansCJKtc-Regular-5606" d="M 4864 774
C 5190 448 5549 -6 5715 -307
L 6086 -77
C 5920 218 5555 646 5216 973
L 4864 774
z
M 3078 966
C 2874 576 2541 192 2189 -70
C 2298 -134 2483 -262 2566 -333
C 2899 -38 3264 410 3507 845
L 3078 966
z
M 2842 2413
L 2842 2022
L 5606 2022
L 5606 2413
L 2842 2413
z
M 2566 4256
L 2566 2746
L 5907 2746
L 5907 4256
L 4851 4256
L 4851 4678
L 6010 4678
L 6010 5075
L 2419 5075
L 2419 4678
L 3546 4678
L 3546 4256
L 2566 4256
z
M 3910 4678
L 4486 4678
L 4486 4256
L 3910 4256
L 3910 4678
z
M 2970 3885
L 3546 3885
L 3546 3117
L 2970 3117
L 2970 3885
z
M 3910 3885
L 4486 3885
L 4486 3117
L 3910 3117
L 3910 3885
z
M 4851 3885
L 5478 3885
L 5478 3117
L 4851 3117
L 4851 3885
z
M 2432 1581
L 2432 1184
L 3974 1184
L 3974 -506
L 4410 -506
L 4410 1184
L 6048 1184
L 6048 1581
L 2432 1581
z
M 1274 5376
L 1274 4141
L 365 4141
L 365 3693
L 1203 3693
C 998 2842 602 1824 205 1293
C 288 1178 403 966 454 826
C 755 1274 1056 2003 1274 2739
L 1274 -506
L 1709 -506
L 1709 2771
C 1888 2451 2086 2067 2176 1862
L 2470 2202
C 2362 2387 1869 3149 1709 3360
L 1709 3693
L 2419 3693
L 2419 4141
L 1709 4141
L 1709 5376
L 1274 5376
z
" transform="scale(0.015625)"/>
       <path id="NotoSansCJKtc-Regular-5d97" d="M 736 5011
C 1082 4870 1530 4646 1760 4480
L 2010 4858
C 1779 5011 1331 5222 979 5344
L 736 5011
z
M 256 3923
C 602 3795 1050 3578 1274 3430
L 1517 3802
C 1286 3949 832 4141 493 4256
L 256 3923
z
M 429 1888
L 762 1517
C 1158 1933 1587 2432 1952 2880
L 1690 3200
C 1280 2720 774 2195 429 1888
z
M 2938 1645
L 2938 1184
L 339 1184
L 339 742
L 2938 742
L 2938 -518
L 3430 -518
L 3430 742
L 6086 742
L 6086 1184
L 3430 1184
L 3430 1645
L 2938 1645
z
M 3718 5222
C 3802 5062 3898 4864 3968 4691
L 2938 4691
C 3053 4883 3162 5075 3251 5274
L 2797 5414
C 2515 4774 2042 4147 1530 3738
C 1645 3674 1837 3520 1914 3437
C 2042 3552 2170 3680 2291 3821
L 2291 1536
L 2758 1536
L 2758 1818
L 5907 1818
L 5907 2214
L 4378 2214
L 4378 2701
L 5613 2701
L 5613 3034
L 4378 3034
L 4378 3507
L 5600 3507
L 5600 3834
L 4378 3834
L 4378 4307
L 5805 4307
L 5805 4691
L 4506 4691
C 4422 4883 4294 5146 4179 5344
L 3718 5222
z
M 3923 2214
L 2758 2214
L 2758 2701
L 3923 2701
L 3923 2214
z
M 3923 3507
L 3923 3034
L 2758 3034
L 2758 3507
L 3923 3507
z
M 3923 3834
L 2758 3834
L 2758 4307
L 3923 4307
L 3923 3834
z
" transform="scale(0.015625)"/>
       <path id="NotoSansCJKtc-Regular-9e85" d="M 1875 3674
L 1875 3334
L 6067 3334
L 6067 3674
L 1875 3674
z
M 2880 2714
L 5037 2714
L 5037 2189
L 2880 2189
L 2880 2714
z
M 4646 4877
L 5286 4877
L 5286 4294
L 4646 4294
L 4646 4877
z
M 3629 4877
L 4256 4877
L 4256 4294
L 3629 4294
L 3629 4877
z
M 2630 4877
L 3245 4877
L 3245 4294
L 2630 4294
L 2630 4877
z
M 2227 5184
L 2227 3987
L 5709 3987
L 5709 5184
L 2227 5184
z
M 531 5165
C 794 4845 1126 4403 1286 4128
L 1664 4378
C 1504 4646 1178 5056 896 5376
L 531 5165
z
M 2880 134
C 2989 218 3162 288 4378 710
C 4358 794 4326 954 4320 1056
L 3360 749
L 3360 1421
C 3616 1562 3859 1715 4051 1875
L 5485 1875
L 5485 3021
L 2445 3021
L 2445 1875
L 3501 1875
C 3034 1581 2400 1306 1888 1158
C 1971 1088 2080 954 2138 870
C 2394 954 2675 1075 2963 1210
L 2963 813
C 2963 582 2822 506 2726 474
C 2784 397 2854 230 2880 134
z
M 3962 1491
C 4531 1120 5286 589 5670 275
L 5965 544
C 5766 704 5466 915 5146 1133
C 5395 1286 5690 1485 5926 1690
L 5606 1914
C 5414 1741 5107 1498 4845 1331
L 4243 1715
L 3962 1491
z
M 403 1818
C 454 1869 621 1914 781 1914
L 1344 1914
C 1158 928 749 211 198 -192
C 294 -256 454 -422 518 -518
C 813 -294 1075 19 1286 429
C 1798 -282 2611 -410 3923 -410
C 4634 -410 5453 -397 6067 -358
C 6086 -230 6150 -6 6221 96
C 5562 32 4608 6 3923 6
C 2707 13 1894 109 1466 806
C 1632 1210 1754 1683 1830 2227
L 1613 2310
L 1530 2304
L 902 2304
C 1216 2739 1638 3430 1869 3808
L 1549 3936
L 1466 3898
L 288 3898
L 288 3494
L 1203 3494
C 966 3098 646 2579 518 2445
C 422 2323 320 2278 230 2246
C 282 2157 378 1933 403 1818
z
" transform="scale(0.015625)"/>
       <path id="NotoSansCJKtc-Regular-2e0a" d="M 2362 2573
L 5043 2573
L 5043 1971
L 2362 1971
L 2362 2573
z
M 2362 3533
L 5043 3533
L 5043 2938
L 2362 2938
L 2362 3533
z
M 4474 1056
C 4858 640 5363 70 5606 -269
L 6016 -26
C 5754 307 5235 864 4851 1261
L 4474 1056
z
M 2374 1274
C 2086 845 1664 358 1280 26
C 1402 -38 1600 -166 1690 -237
C 2048 109 2496 653 2829 1120
L 2374 1274
z
M 838 5024
L 838 3206
C 838 2221 787 845 224 -134
C 339 -179 544 -307 634 -384
C 1229 646 1312 2163 1312 3206
L 1312 4576
L 6035 4576
L 6035 5024
L 838 5024
z
M 3392 4506
C 3341 4339 3245 4109 3149 3910
L 1888 3910
L 1888 1587
L 3462 1587
L 3462 26
C 3462 -51 3437 -83 3334 -83
C 3238 -90 2912 -90 2534 -77
C 2592 -205 2662 -378 2682 -506
C 3174 -506 3488 -506 3686 -435
C 3872 -365 3930 -230 3930 19
L 3930 1587
L 5530 1587
L 5530 3910
L 3667 3910
C 3763 4070 3859 4250 3949 4422
L 3392 4506
z
" transform="scale(0.015625)"/>
       <path id="NotoSansCJKtc-Regular-a9c6" d="M 1062 2912
L 1203 2541
C 1619 2624 2106 2720 2605 2829
L 2586 3130
C 2016 3046 1466 2963 1062 2912
z
M 1222 3642
C 1645 3558 2182 3398 2464 3270
L 2605 3565
C 2317 3686 1779 3827 1363 3904
L 1222 3642
z
M 4979 3936
C 4672 3814 4128 3629 3763 3539
L 3936 3296
C 4301 3373 4826 3501 5197 3654
L 4979 3936
z
M 3680 2874
C 4186 2803 4838 2650 5190 2522
L 5293 2854
C 4941 2976 4288 3110 3795 3168
L 3680 2874
z
M 4915 1216
L 4915 774
L 3392 774
L 3392 1216
L 4915 1216
z
M 4915 1536
L 3392 1536
L 3392 1978
L 4915 1978
L 4915 1536
z
M 2925 1216
L 2925 774
L 1504 774
L 1504 1216
L 2925 1216
z
M 2925 1536
L 1504 1536
L 1504 1978
L 2925 1978
L 2925 1536
z
M 1043 2330
L 1043 90
L 1504 90
L 1504 422
L 2925 422
L 2925 224
C 2925 -301 3130 -429 3846 -429
C 4006 -429 5171 -429 5338 -429
C 5939 -429 6093 -224 6157 557
C 6029 582 5843 646 5741 717
C 5709 70 5645 -38 5306 -38
C 5050 -38 4064 -38 3872 -38
C 3469 -38 3392 6 3392 224
L 3392 422
L 5389 422
L 5389 2330
L 1043 2330
z
M 486 4371
L 486 2989
L 947 2989
L 947 4026
L 2944 4026
L 2944 2566
L 3411 2566
L 3411 4026
L 5446 4026
L 5446 2989
L 5926 2989
L 5926 4371
L 3411 4371
L 3411 4774
L 5626 4774
L 5626 5120
L 768 5120
L 768 4774
L 2944 4774
L 2944 4371
L 486 4371
z
" transform="scale(0.015625)"/>
       <path id="NotoSansCJKtc-Regular-26e4" d="M 2362 4211
L 2362 3744
L 5850 3744
L 5850 4211
L 2362 4211
z
M 2784 3258
C 2976 2368 3168 1184 3219 512
L 3693 653
C 3629 1306 3430 2458 3219 3360
L 2784 3258
z
M 3648 5299
C 3770 4979 3898 4557 3949 4282
L 4429 4422
C 4365 4698 4224 5101 4102 5421
L 3648 5299
z
M 2086 218
L 2086 -243
L 6112 -243
L 6112 218
L 4787 218
C 5024 1075 5286 2336 5459 3322
L 4954 3405
C 4838 2445 4582 1082 4339 218
L 2086 218
z
M 1830 5350
C 1472 4378 870 3418 243 2797
C 326 2688 467 2438 518 2323
C 736 2547 947 2810 1152 3098
L 1152 -499
L 1632 -499
L 1632 3846
C 1882 4282 2106 4749 2285 5216
L 1830 5350
z
" transform="scale(0.015625)"/>
       <path id="NotoSansCJKtc-Regular-1" transform="scale(0.015625)"/>
       <path id="Cmmi10-6f" d="M 300 0
Q 238 0 238 84
Q 241 100 250 139
Q 259 178 276 201
Q 294 225 319 225
Q 709 225 863 269
Q 947 297 984 441
L 1863 3956
Q 1875 4019 1875 4044
Q 1875 4113 1797 4122
Q 1678 4147 1338 4147
Q 1275 4147 1275 4231
Q 1278 4247 1287 4286
Q 1297 4325 1314 4348
Q 1331 4372 1356 4372
L 4825 4372
Q 4891 4372 4891 4288
L 4738 2963
Q 4738 2947 4714 2926
Q 4691 2906 4672 2906
L 4616 2906
Q 4550 2906 4550 2988
Q 4588 3300 4588 3450
Q 4588 3706 4500 3848
Q 4413 3991 4267 4053
Q 4122 4116 3945 4131
Q 3769 4147 3481 4147
L 2753 4147
Q 2578 4147 2522 4117
Q 2466 4088 2419 3928
L 2034 2381
L 2534 2381
Q 2859 2381 3025 2426
Q 3191 2472 3287 2615
Q 3384 2759 3463 3072
Q 3469 3094 3486 3111
Q 3503 3128 3525 3128
L 3584 3128
Q 3647 3128 3647 3047
L 3250 1466
Q 3238 1409 3188 1409
L 3128 1409
Q 3066 1409 3066 1491
Q 3128 1747 3128 1869
Q 3128 2056 2959 2106
Q 2791 2156 2509 2156
L 1978 2156
L 1544 416
Q 1516 338 1516 275
Q 1516 225 1734 225
L 2509 225
Q 2972 225 3259 297
Q 3547 369 3736 526
Q 3925 684 4062 928
Q 4200 1172 4397 1638
Q 4409 1678 4453 1678
L 4513 1678
Q 4538 1678 4556 1656
Q 4575 1634 4575 1606
Q 4575 1594 4569 1581
L 3909 38
Q 3897 0 3859 0
L 300 0
z
" transform="scale(0.015625)"/>
       <path id="Cmsy10-48" d="M 1600 359
Q 1269 359 983 526
Q 697 694 528 984
Q 359 1275 359 1600
Q 359 1925 528 2215
Q 697 2506 983 2673
Q 1269 2841 1600 2841
Q 1931 2841 2215 2672
Q 2500 2503 2667 2214
Q 2834 1925 2834 1600
Q 2834 1275 2667 986
Q 2500 697 2215 528
Q 1931 359 1600 359
z
M 1600 616
Q 2000 616 2289 908
Q 2578 1200 2578 1600
Q 2578 1856 2445 2086
Q 2313 2316 2088 2450
Q 1863 2584 1600 2584
Q 1403 2584 1225 2507
Q 1047 2431 906 2290
Q 766 2150 691 1973
Q 616 1797 616 1600
Q 616 1200 905 908
Q 1194 616 1600 616
z
" transform="scale(0.015625)"/>
       <path id="NotoSansCJKtc-Regular-10" d="M 70 -1146
L 499 -1146
L 2413 5082
L 1990 5082
L 70 -1146
z
" transform="scale(0.015625)"/>
       <path id="NotoSansCJKtc-Regular-37" d="M 1504 0
L 2189 0
L 3680 4691
L 3078 4691
L 2323 2150
C 2163 1600 2048 1152 1869 602
L 1843 602
C 1670 1152 1549 1600 1389 2150
L 627 4691
L 6 4691
L 1504 0
z
" transform="scale(0.015625)"/>
      </defs>
      <use xlink:href="#NotoSansCJKtc-Regular-5606" transform="translate(0 0.296875)"/>
      <use xlink:href="#NotoSansCJKtc-Regular-5d97" transform="translate(99.999908 0.296875)"/>
      <use xlink:href="#NotoSansCJKtc-Regular-9e85" transform="translate(199.999817 0.296875)"/>
      <use xlink:href="#NotoSansCJKtc-Regular-2e0a" transform="translate(299.999725 0.296875)"/>
      <use xlink:href="#NotoSansCJKtc-Regular-a9c6" transform="translate(399.999634 0.296875)"/>
      <use xlink:href="#NotoSansCJKtc-Regular-26e4" transform="translate(499.999542 0.296875)"/>
      <use xlink:href="#NotoSansCJKtc-Regular-1" transform="translate(599.999451 0.296875)"/>
      <use xlink:href="#Cmmi10-6f" transform="translate(622.399429 0.296875)"/>
      <use xlink:href="#Cmsy10-48" transform="translate(726.505198 41.586109) scale(0.7)"/>
      <use xlink:href="#NotoSansCJKtc-Regular-1" transform="translate(781.225654 0.296875)"/>
      <use xlink:href="#NotoSansCJKtc-Regular-10" transform="translate(803.625632 0.296875)"/>
      <use xlink:href="#NotoSansCJKtc-Regular-1" transform="translate(842.825599 0.296875)"/>
      <use xlink:href="#NotoSansCJKtc-Regular-37" transform="translate(865.225577 0.296875)"/>
     </g>
    </g>
   </g>
   <g id="matplotlib.axis_2"/>
   <g id="line2d_9">
    <path d="M 183.878182 370.512
L 183.878182 78.192
" clip-path="url(#p1567f58889)" style="fill: none; stroke: #222831; stroke-linecap: square"/>
   </g>
   <g id="patch_3">
    <path d="M 7.2 370.512
L 7.2 78.192
" style="fill: none; stroke: #222831; stroke-width: 1.1; stroke-linejoin: miter; stroke-linecap: square"/>
   </g>
   <g id="patch_4">
    <path d="M 7.2 370.512
L 272.217273 370.512
" style="fill: none; stroke: #222831; stroke-width: 1.1; stroke-linejoin: miter; stroke-linecap: square"/>
   </g>
   <g id="text_6">
    <!-- $Ag^+/Ag$  +0.80 V -->
    <g style="fill: #222831" transform="translate(241.462182 115.228731) scale(0.105 -0.105)">
     <defs>
      <path id="Cmmi10-5c" d="M 288 0
Q 225 0 225 84
Q 250 225 306 225
Q 566 225 755 328
Q 944 431 1081 647
Q 1094 659 1094 659
L 3378 4513
Q 3428 4581 3500 4581
L 3584 4581
Q 3603 4581 3622 4573
Q 3641 4566 3655 4548
Q 3669 4531 3669 4513
L 4056 378
Q 4056 350 4084 294
Q 4147 225 4563 225
Q 4628 225 4628 141
Q 4606 56 4592 28
Q 4578 0 4519 0
L 2919 0
Q 2859 0 2859 84
Q 2894 225 2944 225
Q 3450 225 3481 397
L 3384 1453
L 1806 1453
L 1294 594
Q 1247 525 1247 434
Q 1247 322 1355 273
Q 1463 225 1594 225
Q 1656 225 1656 141
Q 1634 50 1621 25
Q 1609 0 1550 0
L 288 0
z
M 1931 1678
L 3359 1678
L 3169 3750
L 1931 1678
z
" transform="scale(0.015625)"/>
      <path id="Cmmi10-2f" d="M 91 -916
Q 91 -759 198 -642
Q 306 -525 459 -525
Q 563 -525 633 -589
Q 703 -653 703 -756
Q 703 -872 637 -964
Q 572 -1056 469 -1094
Q 641 -1147 1006 -1147
Q 1300 -1147 1544 -920
Q 1788 -694 1863 -397
L 2047 353
Q 1700 0 1325 0
Q 1050 0 854 140
Q 659 281 556 515
Q 453 750 453 1013
Q 453 1306 573 1628
Q 694 1950 911 2225
Q 1128 2500 1409 2664
Q 1691 2828 2003 2828
Q 2191 2828 2341 2725
Q 2491 2622 2578 2450
Q 2641 2700 2853 2700
Q 2934 2700 2990 2651
Q 3047 2603 3047 2522
Q 3047 2503 3045 2493
Q 3044 2484 3041 2472
L 2309 -434
Q 2259 -634 2125 -800
Q 1991 -966 1809 -1077
Q 1628 -1188 1412 -1250
Q 1197 -1313 997 -1313
Q 631 -1313 361 -1242
Q 91 -1172 91 -916
z
M 1338 166
Q 1747 166 2144 728
L 2497 2125
Q 2453 2347 2322 2505
Q 2191 2663 1991 2663
Q 1778 2663 1589 2489
Q 1400 2316 1275 2075
Q 1156 1844 1045 1411
Q 934 978 934 728
Q 934 509 1034 337
Q 1134 166 1338 166
z
" transform="scale(0.015625)"/>
      <path id="Cmr10-4c" d="M 481 1472
Q 428 1472 393 1512
Q 359 1553 359 1600
Q 359 1647 393 1687
Q 428 1728 481 1728
L 2363 1728
L 2363 3616
Q 2363 3666 2400 3698
Q 2438 3731 2491 3731
Q 2538 3731 2578 3698
Q 2619 3666 2619 3616
L 2619 1728
L 4500 1728
Q 4547 1728 4581 1687
Q 4616 1647 4616 1600
Q 4616 1553 4581 1512
Q 4547 1472 4500 1472
L 2619 1472
L 2619 -416
Q 2619 -466 2578 -498
Q 2538 -531 2491 -531
Q 2438 -531 2400 -498
Q 2363 -466 2363 -416
L 2363 1472
L 481 1472
z
" transform="scale(0.015625)"/>
      <path id="Cmmi10-62" d="M 359 -1472
Q 359 -1453 366 -1447
L 2591 4722
Q 2603 4759 2634 4779
Q 2666 4800 2706 4800
Q 2763 4800 2798 4765
Q 2834 4731 2834 4672
L 2834 4647
L 609 -1522
Q 572 -1600 488 -1600
Q 434 -1600 396 -1562
Q 359 -1525 359 -1472
z
" transform="scale(0.015625)"/>
      <path id="NotoSansCJKtc-Regular-c" d="M 1542 742
L 2010 742
L 2010 2144
L 3315 2144
L 3315 2579
L 2010 2579
L 2010 3981
L 1542 3981
L 1542 2579
L 243 2579
L 243 2144
L 1542 2144
L 1542 742
z
" transform="scale(0.015625)"/>
      <path id="NotoSansCJKtc-Regular-f" d="M 890 -83
C 1120 -83 1312 96 1312 358
C 1312 627 1120 806 890 806
C 653 806 467 627 467 358
C 467 96 653 -83 890 -83
z
" transform="scale(0.015625)"/>
      <path id="NotoSansCJKtc-Regular-19" d="M 1792 -83
C 2669 -83 3258 448 3258 1126
C 3258 1773 2880 2125 2470 2362
L 2470 2394
C 2746 2611 3091 3034 3091 3526
C 3091 4250 2605 4762 1805 4762
C 1075 4762 518 4282 518 3571
C 518 3078 813 2726 1152 2490
L 1152 2464
C 723 2234 294 1792 294 1165
C 294 442 922 -83 1792 -83
z
M 2112 2547
C 1555 2765 1050 3014 1050 3571
C 1050 4026 1363 4326 1798 4326
C 2298 4326 2592 3962 2592 3494
C 2592 3149 2426 2829 2112 2547
z
M 1798 352
C 1235 352 813 717 813 1216
C 813 1664 1082 2035 1459 2278
C 2125 2010 2701 1779 2701 1146
C 2701 678 2342 352 1798 352
z
" transform="scale(0.015625)"/>
     </defs>
     <use xlink:href="#Cmmi10-5c" transform="translate(0 0.902953)"/>
     <use xlink:href="#Cmmi10-2f" transform="translate(75 0.902953)"/>
     <use xlink:href="#Cmr10-4c" transform="translate(147.9653 42.192188) scale(0.7)"/>
     <use xlink:href="#Cmmi10-62" transform="translate(222.065638 0.902953)"/>
     <use xlink:href="#Cmmi10-5c" transform="translate(272.065638 0.902953)"/>
     <use xlink:href="#Cmmi10-2f" transform="translate(347.065638 0.902953)"/>
     <use xlink:href="#NotoSansCJKtc-Regular-1" transform="translate(394.770717 0.902953)"/>
     <use xlink:href="#NotoSansCJKtc-Regular-1" transform="translate(417.170695 0.902953)"/>
     <use xlink:href="#NotoSansCJKtc-Regular-c" transform="translate(439.570674 0.902953)"/>
     <use xlink:href="#NotoSansCJKtc-Regular-11" transform="translate(495.070628 0.902953)"/>
     <use xlink:href="#NotoSansCJKtc-Regular-f" transform="translate(550.570582 0.902953)"/>
     <use xlink:href="#NotoSansCJKtc-Regular-19" transform="translate(578.370555 0.902953)"/>
     <use xlink:href="#NotoSansCJKtc-Regular-11" transform="translate(633.870509 0.902953)"/>
     <use xlink:href="#NotoSansCJKtc-Regular-1" transform="translate(689.370463 0.902953)"/>
     <use xlink:href="#NotoSansCJKtc-Regular-37" transform="translate(711.770442 0.902953)"/>
    </g>
   </g>
   <g id="text_7">
    <!-- $Cu^{2+}/Cu$  +0.34 V -->
    <g style="fill: #222831" transform="translate(211.361455 171.444115) scale(0.105 -0.105)">
     <defs>
      <path id="Cmmi10-67" d="M 934 1381
Q 934 997 1082 705
Q 1231 413 1514 248
Q 1797 84 2181 84
Q 2584 84 2957 290
Q 3331 497 3595 842
Q 3859 1188 3956 1575
Q 3969 1613 4006 1613
L 4084 1613
Q 4109 1613 4125 1595
Q 4141 1578 4141 1556
Q 4141 1550 4134 1538
Q 4025 1094 3711 705
Q 3397 316 2959 87
Q 2522 -141 2059 -141
Q 1559 -141 1162 84
Q 766 309 545 709
Q 325 1109 325 1613
Q 325 2150 565 2676
Q 806 3203 1212 3614
Q 1619 4025 2139 4269
Q 2659 4513 3194 4513
Q 3406 4513 3600 4448
Q 3794 4384 3959 4253
Q 4125 4122 4231 3950
L 4738 4500
Q 4738 4513 4769 4513
L 4806 4513
Q 4831 4513 4847 4491
Q 4863 4469 4863 4447
L 4428 2719
Q 4428 2675 4378 2675
L 4263 2675
Q 4213 2675 4213 2747
Q 4238 2888 4238 3084
Q 4238 3397 4131 3673
Q 4025 3950 3801 4119
Q 3578 4288 3256 4288
Q 2734 4288 2300 4025
Q 1866 3763 1564 3336
Q 1263 2909 1098 2389
Q 934 1869 934 1381
z
" transform="scale(0.015625)"/>
      <path id="Cmmi10-60" d="M 678 697
Q 678 906 734 1126
Q 791 1347 892 1617
Q 994 1888 1069 2088
Q 1153 2322 1153 2472
Q 1153 2663 1013 2663
Q 759 2663 595 2402
Q 431 2141 353 1819
Q 341 1778 300 1778
L 225 1778
Q 172 1778 172 1838
L 172 1856
Q 275 2238 487 2533
Q 700 2828 1025 2828
Q 1253 2828 1411 2678
Q 1569 2528 1569 2297
Q 1569 2178 1516 2047
Q 1488 1969 1388 1706
Q 1288 1444 1234 1272
Q 1181 1100 1147 934
Q 1113 769 1113 603
Q 1113 391 1203 244
Q 1294 97 1497 97
Q 1906 97 2216 603
Q 2222 628 2226 651
Q 2231 675 2234 697
L 2694 2553
Q 2716 2638 2794 2698
Q 2872 2759 2963 2759
Q 3041 2759 3098 2709
Q 3156 2659 3156 2578
Q 3156 2541 3150 2528
L 2688 684
Q 2644 494 2644 372
Q 2644 97 2828 97
Q 3034 97 3136 351
Q 3238 606 3309 941
Q 3322 978 3359 978
L 3438 978
Q 3463 978 3478 956
Q 3494 934 3494 916
Q 3425 641 3361 444
Q 3297 247 3159 87
Q 3022 -72 2816 -72
Q 2613 -72 2452 39
Q 2291 150 2234 341
Q 2088 153 1894 40
Q 1700 -72 1484 -72
Q 1116 -72 897 129
Q 678 331 678 697
z
" transform="scale(0.015625)"/>
      <path id="Cmr10-31" d="M 319 0
L 319 172
Q 319 188 331 206
L 1325 1306
Q 1550 1550 1690 1715
Q 1831 1881 1968 2097
Q 2106 2313 2186 2536
Q 2266 2759 2266 3009
Q 2266 3272 2169 3511
Q 2072 3750 1880 3894
Q 1688 4038 1416 4038
Q 1138 4038 916 3870
Q 694 3703 603 3438
Q 628 3444 672 3444
Q 816 3444 917 3347
Q 1019 3250 1019 3097
Q 1019 2950 917 2848
Q 816 2747 672 2747
Q 522 2747 420 2851
Q 319 2956 319 3097
Q 319 3338 409 3548
Q 500 3759 670 3923
Q 841 4088 1055 4175
Q 1269 4263 1509 4263
Q 1875 4263 2190 4108
Q 2506 3953 2690 3670
Q 2875 3388 2875 3009
Q 2875 2731 2753 2481
Q 2631 2231 2440 2026
Q 2250 1822 1953 1562
Q 1656 1303 1563 1216
L 838 519
L 1453 519
Q 1906 519 2211 526
Q 2516 534 2534 550
Q 2609 631 2688 1141
L 2875 1141
L 2694 0
L 319 0
z
" transform="scale(0.015625)"/>
      <path id="NotoSansCJKtc-Regular-14" d="M 1683 -83
C 2522 -83 3194 416 3194 1254
C 3194 1901 2752 2310 2202 2445
L 2202 2477
C 2701 2650 3034 3034 3034 3603
C 3034 4346 2458 4774 1664 4774
C 1126 4774 710 4538 358 4218
L 672 3846
C 941 4115 1267 4301 1645 4301
C 2138 4301 2438 4006 2438 3558
C 2438 3053 2112 2662 1139 2662
L 1139 2214
C 2227 2214 2598 1843 2598 1274
C 2598 736 2208 403 1645 403
C 1114 403 762 659 486 941
L 186 563
C 493 224 954 -83 1683 -83
z
" transform="scale(0.015625)"/>
      <path id="NotoSansCJKtc-Regular-15" d="M 2176 0
L 2726 0
L 2726 1293
L 3354 1293
L 3354 1760
L 2726 1760
L 2726 4691
L 2080 4691
L 128 1677
L 128 1293
L 2176 1293
L 2176 0
z
M 2176 1760
L 736 1760
L 1805 3360
C 1939 3590 2067 3827 2182 4051
L 2208 4051
C 2195 3814 2176 3430 2176 3200
L 2176 1760
z
" transform="scale(0.015625)"/>
     </defs>
     <use xlink:href="#Cmmi10-67" transform="translate(0 0.084203)"/>
     <use xlink:href="#Cmmi10-60" transform="translate(71.386719 0.084203)"/>
     <use xlink:href="#Cmr10-31" transform="translate(139.824635 41.373437) scale(0.7)"/>
     <use xlink:href="#Cmr10-4c" transform="translate(188.824675 41.373437) scale(0.7)"/>
     <use xlink:href="#Cmmi10-62" transform="translate(262.925013 0.084203)"/>
     <use xlink:href="#Cmmi10-67" transform="translate(312.925013 0.084203)"/>
     <use xlink:href="#Cmmi10-60" transform="translate(384.311732 0.084203)"/>
     <use xlink:href="#NotoSansCJKtc-Regular-1" transform="translate(441.489467 0.084203)"/>
     <use xlink:href="#NotoSansCJKtc-Regular-1" transform="translate(463.889445 0.084203)"/>
     <use xlink:href="#NotoSansCJKtc-Regular-c" transform="translate(486.289424 0.084203)"/>
     <use xlink:href="#NotoSansCJKtc-Regular-11" transform="translate(541.789378 0.084203)"/>
     <use xlink:href="#NotoSansCJKtc-Regular-f" transform="translate(597.289332 0.084203)"/>
     <use xlink:href="#NotoSansCJKtc-Regular-14" transform="translate(625.089305 0.084203)"/>
     <use xlink:href="#NotoSansCJKtc-Regular-15" transform="translate(680.589259 0.084203)"/>
     <use xlink:href="#NotoSansCJKtc-Regular-1" transform="translate(736.089213 0.084203)"/>
     <use xlink:href="#NotoSansCJKtc-Regular-37" transform="translate(758.489192 0.084203)"/>
    </g>
   </g>
   <g id="text_8">
    <!-- $2H^+/H_2$  +0.00 V -->
    <g style="fill: #222831" transform="translate(189.113091 227.6595) scale(0.105 -0.105)">
     <defs>
      <path id="Cmmi10-49" d="M 300 0
Q 238 0 238 84
Q 241 100 250 139
Q 259 178 276 201
Q 294 225 319 225
Q 709 225 863 269
Q 947 297 984 441
L 1863 3956
Q 1875 4019 1875 4044
Q 1875 4113 1797 4122
Q 1678 4147 1338 4147
Q 1275 4147 1275 4231
Q 1297 4313 1309 4342
Q 1322 4372 1381 4372
L 3103 4372
Q 3169 4372 3169 4288
Q 3166 4272 3156 4234
Q 3147 4197 3131 4172
Q 3116 4147 3084 4147
Q 2694 4147 2541 4103
Q 2456 4072 2419 3928
L 2034 2388
L 3956 2388
L 4347 3956
Q 4359 4019 4359 4044
Q 4359 4113 4281 4122
Q 4159 4147 3822 4147
Q 3756 4147 3756 4231
Q 3778 4313 3790 4342
Q 3803 4372 3866 4372
L 5588 4372
Q 5650 4372 5650 4288
Q 5647 4272 5637 4233
Q 5628 4194 5611 4170
Q 5594 4147 5569 4147
Q 5178 4147 5025 4103
Q 4941 4075 4903 3928
L 4025 416
Q 4013 353 4013 325
Q 4013 259 4091 250
Q 4213 225 4550 225
Q 4616 225 4616 141
Q 4597 66 4578 33
Q 4559 0 4506 0
L 2784 0
Q 2719 0 2719 84
Q 2731 131 2737 153
Q 2744 175 2761 200
Q 2778 225 2803 225
Q 3194 225 3347 269
Q 3431 297 3469 441
L 3897 2163
L 1978 2163
L 1544 416
Q 1528 338 1528 325
Q 1528 259 1606 250
Q 1728 225 2069 225
Q 2131 225 2131 141
Q 2109 56 2095 28
Q 2081 0 2022 0
L 300 0
z
" transform="scale(0.015625)"/>
     </defs>
     <use xlink:href="#Cmr10-31" transform="translate(0 0.902953)"/>
     <use xlink:href="#Cmmi10-49" transform="translate(50 0.902953)"/>
     <use xlink:href="#Cmr10-4c" transform="translate(163.431941 42.192188) scale(0.7)"/>
     <use xlink:href="#Cmmi10-62" transform="translate(237.532279 0.902953)"/>
     <use xlink:href="#Cmmi10-49" transform="translate(287.532279 0.902953)"/>
     <use xlink:href="#Cmr10-31" transform="translate(370.637748 -14.097009) scale(0.7)"/>
     <use xlink:href="#NotoSansCJKtc-Regular-1" transform="translate(411.358163 0.902953)"/>
     <use xlink:href="#NotoSansCJKtc-Regular-1" transform="translate(433.758142 0.902953)"/>
     <use xlink:href="#NotoSansCJKtc-Regular-c" transform="translate(456.158121 0.902953)"/>
     <use xlink:href="#NotoSansCJKtc-Regular-11" transform="translate(511.658075 0.902953)"/>
     <use xlink:href="#NotoSansCJKtc-Regular-f" transform="translate(567.158029 0.902953)"/>
     <use xlink:href="#NotoSansCJKtc-Regular-11" transform="translate(594.958001 0.902953)"/>
     <use xlink:href="#NotoSansCJKtc-Regular-11" transform="translate(650.457956 0.902953)"/>
     <use xlink:href="#NotoSansCJKtc-Regular-1" transform="translate(705.95791 0.902953)"/>
     <use xlink:href="#NotoSansCJKtc-Regular-37" transform="translate(728.357889 0.902953)"/>
    </g>
   </g>
   <g id="text_9">
    <!-- $Zn^{2+}/Zn$  -0.76 V -->
    <g style="fill: #222831" transform="translate(139.381455 283.874885) scale(0.105 -0.105)">
     <defs>
      <path id="Cmmi10-2e" d="M 372 50
Q 372 144 416 197
L 3938 4147
L 2994 4147
Q 2525 4147 2217 4036
Q 1909 3925 1707 3667
Q 1506 3409 1369 2963
Q 1356 2906 1306 2906
L 1247 2906
Q 1184 2906 1184 2988
L 1588 4313
Q 1600 4372 1650 4372
L 4569 4372
Q 4622 4372 4622 4319
Q 4622 4225 4581 4184
L 1075 244
L 2047 244
Q 2613 244 2936 383
Q 3259 522 3448 822
Q 3638 1122 3816 1678
Q 3822 1700 3839 1717
Q 3856 1734 3878 1734
L 3938 1734
Q 4000 1734 4000 1650
L 3494 56
Q 3466 0 3431 0
L 428 0
Q 372 0 372 50
z
" transform="scale(0.015625)"/>
      <path id="Cmmi10-7a" d="M 494 109
Q 494 147 500 166
L 978 2075
Q 1025 2253 1025 2388
Q 1025 2663 838 2663
Q 638 2663 541 2423
Q 444 2184 353 1819
Q 353 1800 334 1789
Q 316 1778 300 1778
L 225 1778
Q 203 1778 187 1801
Q 172 1825 172 1844
Q 241 2122 305 2315
Q 369 2509 505 2668
Q 641 2828 844 2828
Q 1084 2828 1268 2676
Q 1453 2525 1453 2291
Q 1644 2541 1900 2684
Q 2156 2828 2444 2828
Q 2672 2828 2837 2750
Q 3003 2672 3095 2514
Q 3188 2356 3188 2138
Q 3188 1875 3070 1503
Q 2953 1131 2778 672
Q 2688 463 2688 288
Q 2688 97 2834 97
Q 3084 97 3251 365
Q 3419 634 3488 941
Q 3500 978 3541 978
L 3616 978
Q 3641 978 3658 962
Q 3675 947 3675 922
Q 3675 916 3669 903
Q 3581 541 3364 234
Q 3147 -72 2822 -72
Q 2597 -72 2437 83
Q 2278 238 2278 459
Q 2278 578 2328 709
Q 2409 919 2514 1209
Q 2619 1500 2686 1765
Q 2753 2031 2753 2234
Q 2753 2413 2679 2538
Q 2606 2663 2431 2663
Q 2197 2663 2000 2559
Q 1803 2456 1656 2286
Q 1509 2116 1388 1881
L 953 141
Q 931 53 854 -9
Q 778 -72 684 -72
Q 606 -72 550 -22
Q 494 28 494 109
z
" transform="scale(0.015625)"/>
      <path id="NotoSansCJKtc-Regular-18" d="M 1267 0
L 1875 0
C 1952 1837 2150 2931 3251 4339
L 3251 4691
L 314 4691
L 314 4192
L 2592 4192
C 1670 2912 1350 1779 1267 0
z
" transform="scale(0.015625)"/>
      <path id="NotoSansCJKtc-Regular-17" d="M 1926 -83
C 2656 -83 3277 531 3277 1440
C 3277 2426 2765 2912 1971 2912
C 1606 2912 1197 2701 909 2349
C 934 3802 1466 4294 2118 4294
C 2400 4294 2682 4154 2861 3936
L 3194 4294
C 2931 4576 2579 4774 2093 4774
C 1184 4774 358 4077 358 2240
C 358 691 1030 -83 1926 -83
z
M 922 1882
C 1229 2317 1587 2477 1875 2477
C 2445 2477 2720 2074 2720 1440
C 2720 800 2374 378 1926 378
C 1338 378 986 909 922 1882
z
" transform="scale(0.015625)"/>
     </defs>
     <use xlink:href="#Cmmi10-2e" transform="translate(0 0.084203)"/>
     <use xlink:href="#Cmmi10-7a" transform="translate(68.212891 0.084203)"/>
     <use xlink:href="#Cmr10-31" transform="translate(139.482838 41.373437) scale(0.7)"/>
     <use xlink:href="#Cmr10-4c" transform="translate(188.482878 41.373437) scale(0.7)"/>
     <use xlink:href="#Cmmi10-62" transform="translate(262.583217 0.084203)"/>
     <use xlink:href="#Cmmi10-2e" transform="translate(312.583217 0.084203)"/>
     <use xlink:href="#Cmmi10-7a" transform="translate(380.796107 0.084203)"/>
     <use xlink:href="#NotoSansCJKtc-Regular-1" transform="translate(440.805873 0.084203)"/>
     <use xlink:href="#NotoSansCJKtc-Regular-1" transform="translate(463.205851 0.084203)"/>
     <use xlink:href="#NotoSansCJKtc-Regular-e" transform="translate(485.60583 0.084203)"/>
     <use xlink:href="#NotoSansCJKtc-Regular-11" transform="translate(520.305796 0.084203)"/>
     <use xlink:href="#NotoSansCJKtc-Regular-f" transform="translate(575.805751 0.084203)"/>
     <use xlink:href="#NotoSansCJKtc-Regular-18" transform="translate(603.605723 0.084203)"/>
     <use xlink:href="#NotoSansCJKtc-Regular-17" transform="translate(659.105677 0.084203)"/>
     <use xlink:href="#NotoSansCJKtc-Regular-1" transform="translate(714.605632 0.084203)"/>
     <use xlink:href="#NotoSansCJKtc-Regular-37" transform="translate(737.00561 0.084203)"/>
    </g>
   </g>
   <g id="text_10">
    <!-- $Mg^{2+}/Mg$  -2.37 V -->
    <g style="fill: #222831" transform="translate(34.028909 340.090269) scale(0.105 -0.105)">
     <defs>
      <path id="Cmmi10-2d" d="M 325 0
Q 263 0 263 84
Q 266 100 275 137
Q 284 175 300 200
Q 316 225 347 225
Q 956 225 1056 616
L 1888 3956
Q 1900 4019 1900 4044
Q 1900 4113 1825 4122
Q 1703 4147 1363 4147
Q 1300 4147 1300 4231
Q 1303 4247 1312 4286
Q 1322 4325 1339 4348
Q 1356 4372 1381 4372
L 2509 4372
Q 2581 4372 2591 4300
L 3091 634
L 5422 4300
Q 5466 4372 5544 4372
L 6631 4372
Q 6694 4372 6694 4288
Q 6691 4272 6681 4233
Q 6672 4194 6655 4170
Q 6638 4147 6613 4147
Q 6222 4147 6069 4103
Q 5984 4075 5947 3928
L 5069 416
Q 5056 353 5056 325
Q 5056 300 5064 283
Q 5072 266 5086 261
Q 5100 256 5131 250
Q 5253 225 5594 225
Q 5656 225 5656 141
Q 5634 50 5621 25
Q 5609 0 5550 0
L 3878 0
Q 3816 0 3816 84
Q 3819 100 3828 139
Q 3838 178 3855 201
Q 3872 225 3897 225
Q 4288 225 4441 269
Q 4525 297 4563 441
L 5484 4147
L 2900 72
Q 2863 0 2772 0
Q 2691 0 2681 72
L 2138 4097
L 1259 588
Q 1253 572 1250 548
Q 1247 525 1241 494
Q 1241 328 1386 276
Q 1531 225 1741 225
Q 1806 225 1806 141
Q 1784 56 1770 28
Q 1756 0 1697 0
L 325 0
z
" transform="scale(0.015625)"/>
     </defs>
     <use xlink:href="#Cmmi10-2d" transform="translate(0 0.084203)"/>
     <use xlink:href="#Cmmi10-2f" transform="translate(97.021484 0.084203)"/>
     <use xlink:href="#Cmr10-31" transform="translate(155.986744 41.373437) scale(0.7)"/>
     <use xlink:href="#Cmr10-4c" transform="translate(204.986784 41.373437) scale(0.7)"/>
     <use xlink:href="#Cmmi10-62" transform="translate(279.087123 0.084203)"/>
     <use xlink:href="#Cmmi10-2d" transform="translate(329.087123 0.084203)"/>
     <use xlink:href="#Cmmi10-2f" transform="translate(426.108607 0.084203)"/>
     <use xlink:href="#NotoSansCJKtc-Regular-1" transform="translate(473.813685 0.084203)"/>
     <use xlink:href="#NotoSansCJKtc-Regular-1" transform="translate(496.213664 0.084203)"/>
     <use xlink:href="#NotoSansCJKtc-Regular-e" transform="translate(518.613643 0.084203)"/>
     <use xlink:href="#NotoSansCJKtc-Regular-13" transform="translate(553.313609 0.084203)"/>
     <use xlink:href="#NotoSansCJKtc-Regular-f" transform="translate(608.813563 0.084203)"/>
     <use xlink:href="#NotoSansCJKtc-Regular-14" transform="translate(636.613536 0.084203)"/>
     <use xlink:href="#NotoSansCJKtc-Regular-18" transform="translate(692.11349 0.084203)"/>
     <use xlink:href="#NotoSansCJKtc-Regular-1" transform="translate(747.613444 0.084203)"/>
     <use xlink:href="#NotoSansCJKtc-Regular-37" transform="translate(770.013423 0.084203)"/>
    </g>
   </g>
   <g id="text_11">
    <!-- 數值越大，作還原半反應的傾向越強 -->
    <g style="fill: #222831" transform="translate(39.708636 72.192) scale(0.125 -0.125)">
     <defs>
      <path id="NotoSansCJKtc-Regular-4e28" d="M 4339 3680
L 5222 3680
C 5139 2918 5005 2266 4781 1715
C 4563 2278 4416 2918 4314 3603
L 4339 3680
z
M 282 1466
L 282 1114
L 1107 1114
C 979 902 845 710 723 550
C 1018 474 1331 365 1645 250
C 1306 83 851 -64 237 -186
C 314 -262 410 -416 448 -506
C 1190 -352 1715 -154 2086 64
C 2406 -70 2694 -218 2906 -339
L 3059 -198
C 3142 -288 3245 -442 3283 -518
C 3923 -186 4397 243 4755 781
C 5043 243 5414 -192 5888 -486
C 5952 -365 6099 -192 6202 -109
C 5690 166 5299 627 5005 1210
C 5338 1875 5536 2688 5658 3680
L 6150 3680
L 6150 4109
L 4467 4109
C 4576 4493 4672 4896 4749 5299
L 4333 5376
C 4147 4339 3846 3290 3424 2592
L 3424 2925
L 2163 2925
L 2163 3200
L 3290 3200
L 3290 3930
L 3654 3930
L 3654 4294
L 3290 4294
L 3290 4960
L 2163 4960
L 2163 5376
L 1779 5376
L 1779 4960
L 717 4960
L 717 4294
L 282 4294
L 282 3930
L 717 3930
L 717 3200
L 1779 3200
L 1779 2925
L 570 2925
L 570 1875
L 1523 1875
C 1459 1741 1389 1606 1312 1466
L 282 1466
z
M 2566 1728
L 2566 1510
L 2566 1466
L 1760 1466
C 1830 1600 1901 1741 1965 1875
L 3424 1875
L 3424 2470
C 3520 2394 3654 2272 3712 2208
C 3840 2419 3955 2662 4064 2931
C 4186 2304 4339 1728 4550 1229
C 4237 678 3802 250 3206 -64
L 3219 -51
C 3014 64 2739 192 2445 320
C 2739 576 2867 851 2918 1114
L 3603 1114
L 3603 1466
L 2957 1466
L 2957 1504
L 2957 1728
L 2566 1728
z
M 1101 4627
L 1779 4627
L 1779 4275
L 1101 4275
L 1101 4627
z
M 1779 3539
L 1101 3539
L 1101 3949
L 1779 3949
L 1779 3539
z
M 2163 4627
L 2899 4627
L 2899 4275
L 2163 4275
L 2163 4627
z
M 2163 3539
L 2163 3949
L 2899 3949
L 2899 3539
L 2163 3539
z
M 986 2618
L 1779 2618
L 1779 2189
L 986 2189
L 986 2618
z
M 2163 2618
L 2995 2618
L 2995 2189
L 2163 2189
L 2163 2618
z
M 1318 730
L 1555 1114
L 2515 1114
C 2451 909 2317 691 2035 486
C 1798 576 1555 659 1318 730
z
" transform="scale(0.015625)"/>
      <path id="NotoSansCJKtc-Regular-286c" d="M 3834 5376
C 3814 5184 3782 4954 3750 4723
L 2106 4723
L 2106 4294
L 3674 4294
C 3635 4077 3597 3872 3552 3699
L 2445 3699
L 2445 90
L 1830 90
L 1830 -326
L 6131 -326
L 6131 90
L 5562 90
L 5562 3699
L 3987 3699
C 4038 3872 4090 4077 4134 4294
L 5939 4294
L 5939 4723
L 4230 4723
L 4346 5344
L 3834 5376
z
M 2880 90
L 2880 621
L 5114 621
L 5114 90
L 2880 90
z
M 2880 2426
L 5114 2426
L 5114 1875
L 2880 1875
L 2880 2426
z
M 2880 2784
L 2880 3322
L 5114 3322
L 5114 2784
L 2880 2784
z
M 2880 1530
L 5114 1530
L 5114 973
L 2880 973
L 2880 1530
z
M 1690 5370
C 1350 4397 794 3443 205 2816
C 288 2701 422 2451 474 2342
C 659 2547 845 2784 1018 3040
L 1018 -512
L 1466 -512
L 1466 3770
C 1722 4230 1946 4730 2131 5229
L 1690 5370
z
" transform="scale(0.015625)"/>
      <path id="NotoSansCJKtc-Regular-98c9" d="M 5050 5139
C 5261 4896 5536 4557 5670 4346
L 6016 4557
C 5875 4755 5600 5075 5382 5312
L 5050 5139
z
M 646 2483
C 666 1632 614 557 166 -211
C 269 -256 422 -397 493 -493
C 730 -102 870 352 947 819
C 1440 -122 2246 -346 3648 -346
L 6010 -346
C 6042 -205 6131 19 6208 128
C 5824 115 3942 115 3648 115
C 2976 115 2451 173 2042 352
L 2042 1600
L 2944 1600
L 2944 2029
L 2042 2029
L 2042 2912
L 3040 2912
L 3040 3341
L 1946 3341
L 1946 4160
L 2912 4160
L 2912 4582
L 1946 4582
L 1946 5376
L 1504 5376
L 1504 4582
L 518 4582
L 518 4160
L 1504 4160
L 1504 3341
L 282 3341
L 282 2912
L 1606 2912
L 1606 640
C 1363 864 1178 1184 1037 1626
C 1050 1914 1056 2189 1050 2458
L 646 2483
z
M 3123 902
C 3219 1011 3379 1120 4480 1760
C 4435 1837 4384 2016 4365 2131
L 3642 1734
L 3642 3853
L 4474 3853
C 4525 2995 4621 2234 4762 1651
C 4435 1210 4045 851 3603 614
C 3699 531 3827 378 3898 269
C 4269 499 4614 800 4909 1165
C 5082 710 5306 442 5594 442
C 5965 442 6099 710 6163 1581
C 6061 1619 5920 1709 5824 1805
C 5805 1158 5754 870 5645 870
C 5485 870 5338 1126 5210 1581
C 5549 2093 5824 2694 6010 3347
L 5632 3443
C 5498 2982 5318 2547 5088 2144
C 5005 2618 4941 3194 4896 3853
L 6144 3853
L 6144 4262
L 4877 4262
C 4864 4614 4858 4992 4858 5376
L 4416 5376
C 4422 4992 4435 4621 4448 4262
L 3206 4262
L 3206 1779
C 3206 1523 3027 1389 2918 1331
C 2995 1229 3091 1024 3123 902
z
" transform="scale(0.015625)"/>
      <path id="NotoSansCJKtc-Regular-36fb" d="M 2950 5370
C 2944 4864 2950 4218 2854 3539
L 397 3539
L 397 3046
L 2771 3046
C 2515 1830 1875 589 275 -102
C 410 -205 563 -378 640 -499
C 2202 218 2893 1446 3206 2682
C 3706 1222 4531 90 5773 -499
C 5856 -358 6010 -160 6131 -51
C 4890 467 4051 1632 3603 3046
L 6029 3046
L 6029 3539
L 3366 3539
C 3456 4211 3462 4851 3469 5370
L 2950 5370
z
" transform="scale(0.015625)"/>
      <path id="NotoSansCJKtc-Regular-f6ac" d="M 2675 1203
C 3347 1440 3782 1965 3782 2656
C 3782 3104 3590 3392 3238 3392
C 2976 3392 2752 3232 2752 2931
C 2752 2630 2970 2477 3232 2477
L 3341 2490
C 3309 2048 3027 1747 2534 1542
L 2675 1203
z
" transform="scale(0.015625)"/>
      <path id="NotoSansCJKtc-Regular-26fc" d="M 3366 5299
C 3046 4358 2528 3430 1952 2829
C 2061 2752 2246 2586 2323 2502
C 2650 2861 2963 3328 3238 3846
L 3680 3846
L 3680 -506
L 4166 -506
L 4166 1050
L 6093 1050
L 6093 1504
L 4166 1504
L 4166 2477
L 6010 2477
L 6010 2918
L 4166 2918
L 4166 3846
L 6157 3846
L 6157 4307
L 3469 4307
C 3603 4589 3725 4883 3827 5178
L 3366 5299
z
M 1824 5350
C 1466 4378 864 3418 230 2797
C 320 2688 461 2426 512 2317
C 730 2541 941 2797 1146 3078
L 1146 -499
L 1626 -499
L 1626 3834
C 1875 4269 2106 4742 2285 5210
L 1824 5350
z
" transform="scale(0.015625)"/>
      <path id="NotoSansCJKtc-Regular-2d90" d="M 941 5037
C 1242 4582 1555 3968 1677 3590
L 2138 3789
C 2010 4173 1683 4768 1376 5210
L 941 5037
z
M 4986 5229
C 4800 4774 4467 4141 4198 3757
L 4621 3590
C 4890 3968 5229 4550 5491 5050
L 4986 5229
z
M 2931 5382
L 2931 3302
L 755 3302
L 755 2829
L 2931 2829
L 2931 1798
L 339 1798
L 339 1318
L 2931 1318
L 2931 -499
L 3430 -499
L 3430 1318
L 6067 1318
L 6067 1798
L 3430 1798
L 3430 2829
L 5696 2829
L 5696 3302
L 3430 3302
L 3430 5382
L 2931 5382
z
" transform="scale(0.015625)"/>
      <path id="NotoSansCJKtc-Regular-2e5a" d="M 1088 4973
L 1088 3226
C 1088 2202 1030 787 326 -218
C 442 -269 646 -416 730 -499
C 1389 448 1549 1830 1568 2886
L 1990 2886
C 2285 2048 2694 1357 3245 806
C 2688 397 2042 102 1363 -70
C 1459 -179 1581 -384 1645 -512
C 2362 -294 3034 19 3622 474
C 4192 19 4890 -314 5728 -525
C 5792 -390 5933 -186 6048 -77
C 5242 96 4570 397 4013 806
C 4659 1408 5158 2208 5440 3238
L 5107 3379
L 5011 3354
L 1574 3354
L 1574 4499
L 5792 4499
L 5792 4973
L 1088 4973
z
M 4800 2886
C 4544 2176 4134 1594 3629 1126
C 3130 1600 2752 2189 2496 2886
L 4800 2886
z
" transform="scale(0.015625)"/>
      <path id="NotoSansCJKtc-Regular-47d5" d="M 2630 998
L 2630 96
C 2630 -346 2771 -467 3347 -467
C 3469 -467 4262 -467 4384 -467
C 4826 -467 4966 -314 5011 326
C 4896 352 4710 416 4614 486
C 4595 0 4550 -64 4339 -64
C 4166 -64 3520 -64 3386 -64
C 3117 -64 3072 -38 3072 102
L 3072 998
L 2630 998
z
M 3187 1190
C 3565 1011 4019 730 4243 518
L 4538 826
C 4307 1024 3840 1293 3469 1459
L 3187 1190
z
M 4806 909
C 5171 531 5555 6 5709 -339
L 6099 -141
C 5933 211 5536 723 5165 1088
L 4806 909
z
M 1856 1018
C 1722 608 1472 147 1120 -122
L 1485 -358
C 1869 -58 2093 429 2253 877
L 1856 1018
z
M 4358 2899
L 4358 2547
L 3366 2547
L 3366 2899
L 4358 2899
z
M 4102 4314
C 4224 4179 4352 3994 4435 3846
L 3469 3846
C 3558 4000 3635 4160 3706 4320
L 3302 4435
C 3072 3878 2688 3328 2278 2957
L 2278 3610
C 2432 3834 2566 4070 2682 4307
L 2278 4422
C 2010 3866 1587 3309 1139 2918
L 1139 2950
L 1139 4474
L 6093 4474
L 6093 4877
L 3776 4877
C 3686 5075 3533 5312 3386 5504
L 2970 5357
C 3078 5216 3181 5043 3270 4877
L 698 4877
L 698 2950
C 698 2010 659 698 186 -237
C 288 -288 480 -435 557 -518
C 1037 422 1133 1798 1139 2790
C 1222 2714 1325 2605 1376 2547
C 1536 2694 1702 2867 1862 3059
L 1862 1370
L 2278 1370
L 2278 2944
C 2374 2880 2534 2752 2611 2675
C 2726 2790 2842 2925 2957 3072
L 2957 1376
L 3366 1376
L 3366 1568
L 5990 1568
L 5990 1894
L 4774 1894
L 4774 2266
L 5728 2266
L 5728 2547
L 4774 2547
L 4774 2899
L 5709 2899
L 5709 3181
L 4774 3181
L 4774 3526
L 5882 3526
L 5882 3846
L 4691 3846
L 4845 3923
C 4768 4070 4595 4294 4442 4467
L 4102 4314
z
M 4358 3181
L 3366 3181
L 3366 3526
L 4358 3526
L 4358 3181
z
M 4358 2266
L 4358 1894
L 3366 1894
L 3366 2266
L 4358 2266
z
" transform="scale(0.015625)"/>
      <path id="NotoSansCJKtc-Regular-6c33" d="M 3533 2707
C 3885 2240 4320 1600 4512 1210
L 4922 1466
C 4710 1843 4269 2464 3904 2918
L 3533 2707
z
M 1536 5389
C 1485 5082 1376 4659 1274 4346
L 557 4346
L 557 -346
L 998 -346
L 998 160
L 2784 160
L 2784 4346
L 1715 4346
C 1824 4621 1946 4979 2054 5299
L 1536 5389
z
M 998 3917
L 2342 3917
L 2342 2566
L 998 2566
L 998 3917
z
M 998 595
L 998 2144
L 2342 2144
L 2342 595
L 998 595
z
M 3827 5402
C 3622 4518 3277 3635 2835 3066
C 2950 3002 3149 2867 3238 2790
C 3456 3098 3661 3488 3840 3923
L 5478 3923
C 5402 1357 5299 371 5094 154
C 5018 64 4947 45 4819 45
C 4672 45 4288 51 3866 83
C 3955 -38 4013 -243 4026 -378
C 4384 -397 4762 -410 4979 -390
C 5210 -365 5350 -314 5498 -122
C 5754 192 5843 1184 5939 4122
C 5946 4186 5946 4365 5946 4365
L 4013 4365
C 4115 4666 4211 4986 4288 5299
L 3827 5402
z
" transform="scale(0.015625)"/>
      <path id="NotoSansCJKtc-Regular-295e" d="M 3789 2746
L 5491 2746
L 5491 2106
L 3789 2106
L 3789 2746
z
M 3789 1747
L 5491 1747
L 5491 1101
L 3789 1101
L 3789 1747
z
M 3789 3738
L 5491 3738
L 5491 3110
L 3789 3110
L 3789 3738
z
M 3930 582
C 3667 301 3130 -38 2656 -224
C 2758 -307 2906 -448 2976 -538
C 3456 -346 4006 6 4346 339
L 3930 582
z
M 4870 320
C 5222 70 5658 -294 5875 -525
L 6246 -262
C 6029 -26 5581 320 5235 557
L 4870 320
z
M 1389 5338
C 1101 4352 634 3379 109 2739
C 186 2618 307 2362 346 2246
C 550 2496 749 2797 934 3123
L 934 -525
L 1370 -525
L 1370 3994
C 1542 4390 1696 4806 1824 5222
L 1389 5338
z
M 3366 4115
L 3366 723
L 5933 723
L 5933 4115
L 4691 4115
L 4890 4653
L 6144 4653
L 6144 5069
L 3066 5069
L 3066 4653
L 4390 4653
C 4352 4480 4294 4288 4243 4115
L 3366 4115
z
M 1926 4653
L 1926 1414
C 1926 1152 1843 1024 1760 966
C 1837 864 1933 653 1971 544
C 2048 640 2189 742 3046 1242
C 3034 1338 3021 1523 3027 1651
L 2349 1306
L 2349 3034
L 3130 3034
L 3130 3450
L 2349 3450
L 2349 4653
L 1926 4653
z
" transform="scale(0.015625)"/>
      <path id="NotoSansCJKtc-Regular-2eb8" d="M 2803 5389
C 2714 5062 2554 4614 2394 4269
L 634 4269
L 634 -512
L 1107 -512
L 1107 3802
L 5325 3802
L 5325 128
C 5325 13 5286 -26 5158 -26
C 5024 -32 4582 -38 4122 -13
C 4192 -154 4262 -378 4288 -512
C 4877 -512 5274 -506 5504 -429
C 5728 -346 5805 -192 5805 128
L 5805 4269
L 2925 4269
C 3085 4576 3258 4947 3398 5293
L 2803 5389
z
M 2387 2522
L 4006 2522
L 4006 1267
L 2387 1267
L 2387 2522
z
M 1946 2950
L 1946 371
L 2387 371
L 2387 832
L 4454 832
L 4454 2950
L 1946 2950
z
" transform="scale(0.015625)"/>
      <path id="NotoSansCJKtc-Regular-435b" d="M 4006 3488
L 4006 2861
L 2707 2861
L 2707 1158
L 4006 1158
L 4006 205
L 2438 115
L 2509 -352
C 3322 -294 4474 -211 5581 -122
C 5658 -275 5722 -422 5766 -550
L 6189 -352
C 6048 32 5696 602 5363 1037
L 4966 858
C 5094 685 5229 493 5344 294
L 4467 237
L 4467 1158
L 5805 1158
L 5805 2861
L 4467 2861
L 4467 3488
L 4006 3488
z
M 3136 2458
L 4006 2458
L 4006 1568
L 3136 1568
L 3136 2458
z
M 4467 2458
L 5363 2458
L 5363 1568
L 4467 1568
L 4467 2458
z
M 544 3552
C 493 2970 397 2202 301 1715
L 1914 1715
C 1837 602 1754 160 1632 38
C 1581 -19 1517 -32 1408 -32
C 1299 -32 1024 -26 730 0
C 806 -122 858 -314 870 -442
C 1165 -467 1453 -467 1613 -448
C 1798 -435 1914 -390 2029 -262
C 2208 -64 2298 486 2394 1946
C 2400 2010 2406 2157 2406 2157
L 813 2157
L 934 3117
L 2336 3117
L 2336 5030
L 378 5030
L 378 4589
L 1888 4589
L 1888 3552
L 544 3552
z
M 2739 3386
C 2906 3450 3162 3475 5414 3667
C 5530 3507 5626 3360 5696 3232
L 6061 3475
C 5856 3840 5395 4403 5005 4800
L 4659 4595
C 4819 4429 4986 4230 5139 4038
L 3270 3878
C 3603 4250 3949 4736 4237 5222
L 3738 5344
C 3482 4794 3053 4224 2918 4077
C 2797 3930 2688 3821 2579 3808
C 2637 3693 2714 3475 2739 3386
z
" transform="scale(0.015625)"/>
     </defs>
     <use xlink:href="#NotoSansCJKtc-Regular-4e28"/>
     <use xlink:href="#NotoSansCJKtc-Regular-286c" transform="translate(100 0)"/>
     <use xlink:href="#NotoSansCJKtc-Regular-98c9" transform="translate(200 0)"/>
     <use xlink:href="#NotoSansCJKtc-Regular-36fb" transform="translate(300 0)"/>
     <use xlink:href="#NotoSansCJKtc-Regular-f6ac" transform="translate(400 0)"/>
     <use xlink:href="#NotoSansCJKtc-Regular-26fc" transform="translate(500 0)"/>
     <use xlink:href="#NotoSansCJKtc-Regular-9e85" transform="translate(600 0)"/>
     <use xlink:href="#NotoSansCJKtc-Regular-2e0a" transform="translate(700 0)"/>
     <use xlink:href="#NotoSansCJKtc-Regular-2d90" transform="translate(800 0)"/>
     <use xlink:href="#NotoSansCJKtc-Regular-2e5a" transform="translate(900 0)"/>
     <use xlink:href="#NotoSansCJKtc-Regular-47d5" transform="translate(1000 0)"/>
     <use xlink:href="#NotoSansCJKtc-Regular-6c33" transform="translate(1100 0)"/>
     <use xlink:href="#NotoSansCJKtc-Regular-295e" transform="translate(1200 0)"/>
     <use xlink:href="#NotoSansCJKtc-Regular-2eb8" transform="translate(1300 0)"/>
     <use xlink:href="#NotoSansCJKtc-Regular-98c9" transform="translate(1400 0)"/>
     <use xlink:href="#NotoSansCJKtc-Regular-435b" transform="translate(1500 0)"/>
    </g>
   </g>
   <g id="PathCollection_1">
    <defs>
     <path id="C0_0_29bb3ad155" d="M 0 4.743416
C 1.257969 4.743416 2.464584 4.24362 3.354102 3.354102
C 4.24362 2.464584 4.743416 1.257969 4.743416 -0
C 4.743416 -1.257969 4.24362 -2.464584 3.354102 -3.354102
C 2.464584 -4.24362 1.257969 -4.743416 0 -4.743416
C -1.257969 -4.743416 -2.464584 -4.24362 -3.354102 -3.354102
C -4.24362 -2.464584 -4.743416 -1.257969 -4.743416 0
C -4.743416 1.257969 -4.24362 2.464584 -3.354102 3.354102
C -2.464584 4.24362 -1.257969 4.743416 0 4.743416
z
"/>
    </defs>
    <g clip-path="url(#p1567f58889)">
     <use xlink:href="#C0_0_29bb3ad155" x="236.227273" y="111.921231" style="fill: #d1242f; stroke: #d1242f"/>
    </g>
    <g clip-path="url(#p1567f58889)">
     <use xlink:href="#C0_0_29bb3ad155" x="206.126545" y="168.136615" style="fill: #1f6feb; stroke: #1f6feb"/>
    </g>
    <g clip-path="url(#p1567f58889)">
     <use xlink:href="#C0_0_29bb3ad155" x="183.878182" y="224.352" style="fill: #1a7f37; stroke: #1a7f37"/>
    </g>
    <g clip-path="url(#p1567f58889)">
     <use xlink:href="#C0_0_29bb3ad155" x="134.146545" y="280.567385" style="fill: #bf8700; stroke: #bf8700"/>
    </g>
    <g clip-path="url(#p1567f58889)">
     <use xlink:href="#C0_0_29bb3ad155" x="28.794" y="336.782769" style="fill: #8250df; stroke: #8250df"/>
    </g>
   </g>
  </g>
  <g id="axes_2">
   <g id="patch_5">
    <path d="M 389.266568 176.1192
L 738.205977 176.1192
Q 764.707705 176.1192 764.707705 158.58
L 764.707705 126.4248
Q 764.707705 108.8856 738.205977 108.8856
L 389.266568 108.8856
Q 362.764841 108.8856 362.764841 126.4248
L 362.764841 158.58
Q 362.764841 176.1192 389.266568 176.1192
z
" clip-path="url(#p367f715b4f)" style="fill: #fdecec; stroke: #d1242f; stroke-width: 1.4; stroke-linejoin: miter"/>
   </g>
   <g id="patch_6">
    <path d="M 389.266568 243.3528
L 738.205977 243.3528
Q 764.707705 243.3528 764.707705 225.8136
L 764.707705 193.6584
Q 764.707705 176.1192 738.205977 176.1192
L 389.266568 176.1192
Q 362.764841 176.1192 362.764841 193.6584
L 362.764841 225.8136
Q 362.764841 243.3528 389.266568 243.3528
z
" clip-path="url(#p367f715b4f)" style="fill: #eef4ff; stroke: #1f6feb; stroke-width: 1.4; stroke-linejoin: miter"/>
   </g>
   <g id="patch_7">
    <path d="M 389.266568 325.2024
L 738.205977 325.2024
Q 764.707705 325.2024 764.707705 307.6632
L 764.707705 266.7384
Q 764.707705 249.1992 738.205977 249.1992
L 389.266568 249.1992
Q 362.764841 249.1992 362.764841 266.7384
L 362.764841 307.6632
Q 362.764841 325.2024 389.266568 325.2024
z
" clip-path="url(#p367f715b4f)" style="fill: #e8f5e9; stroke: #1a7f37; stroke-width: 1.4; stroke-linejoin: miter"/>
   </g>
   <g id="text_12">
    <!-- 陰極：$Ag^++e^-\rightarrow Ag$　$+0.80\ V$ -->
    <g style="fill: #222831" transform="translate(477.716273 146.3549) scale(0.115 -0.115)">
     <defs>
      <path id="NotoSansCJKtc-Regular-a8b1" d="M 2662 2266
L 2662 1901
L 5664 1901
L 5664 2266
L 4947 2266
C 5114 2541 5280 2854 5421 3155
L 5101 3258
L 5030 3238
L 2611 3238
L 2611 2874
L 4813 2874
C 4710 2682 4582 2458 4467 2266
L 2662 2266
z
M 2470 -410
C 2643 -339 2912 -320 5376 -154
C 5472 -288 5549 -422 5600 -531
L 5990 -301
C 5805 70 5363 602 4960 986
L 4589 781
C 4762 614 4934 416 5094 218
L 3091 102
C 3386 365 3680 678 3949 1005
L 6074 1005
L 6074 1376
L 2304 1376
L 2304 1005
L 3386 1005
C 3110 646 2784 333 2675 237
C 2541 122 2426 38 2323 26
C 2374 -90 2445 -307 2470 -410
z
M 518 5101
L 518 -512
L 947 -512
L 947 4666
L 1786 4666
C 1651 4230 1459 3648 1274 3181
C 1734 2682 1856 2253 1856 1901
C 1856 1709 1818 1536 1722 1466
C 1670 1427 1600 1414 1517 1408
C 1414 1402 1293 1408 1146 1414
C 1216 1293 1261 1107 1267 992
C 1408 986 1568 992 1696 1005
C 1830 1018 1939 1056 2029 1120
C 2208 1242 2285 1510 2285 1856
C 2285 2253 2176 2707 1709 3238
C 1926 3750 2163 4403 2349 4934
L 2035 5120
L 1965 5101
L 518 5101
z
M 3968 5414
C 3597 4781 2848 4147 2010 3750
C 2112 3674 2259 3507 2330 3418
C 2611 3565 2880 3738 3130 3930
L 3130 3629
L 4960 3629
L 4960 3962
L 3174 3962
C 3488 4211 3776 4486 4013 4787
C 4243 4531 4582 4230 4960 3962
C 5254 3750 5574 3558 5894 3418
C 5971 3533 6112 3706 6208 3795
C 5434 4070 4640 4627 4237 5082
L 4365 5286
L 3968 5414
z
" transform="scale(0.015625)"/>
      <path id="NotoSansCJKtc-Regular-54d7" d="M 1856 122
L 1856 -307
L 6144 -307
L 6144 122
L 1856 122
z
M 1069 5370
L 1069 4160
L 358 4160
L 358 3725
L 1069 3725
L 1069 3712
C 909 2848 557 1805 198 1261
C 282 1146 403 934 454 800
C 678 1178 896 1754 1069 2368
L 1069 -512
L 1510 -512
L 1510 2720
C 1645 2451 1786 2157 1850 1984
L 2138 2349
C 2048 2509 1670 3130 1510 3366
L 1510 3725
L 2144 3725
L 2144 4160
L 1510 4160
L 1510 5370
L 1069 5370
z
M 4576 2822
C 4781 2573 4986 2285 5178 1990
C 4960 1549 4691 1203 4378 966
C 4467 902 4608 742 4672 646
C 4960 877 5216 1184 5427 1581
C 5587 1299 5722 1037 5811 819
L 6138 1062
C 6029 1325 5843 1658 5626 1997
C 5818 2464 5965 3021 6048 3661
L 5805 3744
L 5728 3731
L 4646 3731
L 4646 3360
L 5594 3360
C 5536 3014 5453 2694 5350 2406
C 5197 2630 5030 2842 4870 3040
L 4576 2822
z
M 2579 1568
L 2579 3123
L 3104 3123
L 3104 1568
L 2579 1568
z
M 2246 3494
L 2246 877
L 2579 877
L 2579 1210
L 3450 1210
L 3450 3494
L 2246 3494
z
M 2144 5178
L 2144 4755
L 3456 4755
C 3354 4397 3213 4000 3098 3718
L 4006 3718
C 3974 1696 3936 998 3840 845
C 3795 774 3744 755 3661 762
C 3571 762 3360 762 3130 774
C 3194 672 3238 499 3245 384
C 3475 371 3712 371 3853 384
C 4013 403 4122 454 4218 595
C 4371 819 4397 1555 4429 3878
C 4435 3942 4435 4090 4435 4090
L 3686 4090
L 3904 4755
L 6010 4755
L 6010 5178
L 2144 5178
z
" transform="scale(0.015625)"/>
      <path id="NotoSansCJKtc-Regular-e6c0" d="M 3200 3482
C 3456 3482 3686 3667 3686 3962
C 3686 4256 3456 4442 3200 4442
C 2944 4442 2714 4256 2714 3962
C 2714 3667 2944 3482 3200 3482
z
M 3200 346
C 3456 346 3686 538 3686 826
C 3686 1120 3456 1312 3200 1312
C 2944 1312 2714 1120 2714 826
C 2714 538 2944 346 3200 346
z
" transform="scale(0.015625)"/>
      <path id="Cmmi10-3" d="M 1288 -72
Q 981 -72 751 87
Q 522 247 401 517
Q 281 788 281 1088
Q 281 1544 511 1945
Q 741 2347 1134 2587
Q 1528 2828 1978 2828
Q 2253 2828 2458 2686
Q 2663 2544 2663 2278
Q 2663 1909 2369 1729
Q 2075 1550 1706 1508
Q 1338 1466 891 1466
L 872 1466
Q 769 1084 769 813
Q 769 528 900 312
Q 1031 97 1300 97
Q 1681 97 2032 272
Q 2384 447 2606 756
Q 2625 775 2656 775
Q 2688 775 2720 739
Q 2753 703 2753 672
Q 2753 647 2741 634
Q 2506 306 2109 117
Q 1713 -72 1288 -72
z
M 909 1631
Q 1281 1631 1597 1665
Q 1913 1700 2169 1839
Q 2425 1978 2425 2272
Q 2425 2391 2359 2480
Q 2294 2569 2189 2616
Q 2084 2663 1972 2663
Q 1700 2663 1483 2516
Q 1266 2369 1125 2133
Q 984 1897 909 1631
z
" transform="scale(0.015625)"/>
      <path id="Cmsy10-11" d="M 653 1472
Q 600 1472 565 1512
Q 531 1553 531 1600
Q 531 1647 565 1687
Q 600 1728 653 1728
L 4325 1728
Q 4375 1728 4408 1687
Q 4441 1647 4441 1600
Q 4441 1553 4408 1512
Q 4375 1472 4325 1472
L 653 1472
z
" transform="scale(0.015625)"/>
      <path id="Cmsy10-c" d="M 481 1472
Q 428 1472 393 1512
Q 359 1553 359 1600
Q 359 1647 393 1687
Q 428 1728 481 1728
L 5338 1728
Q 5094 1903 4906 2133
Q 4719 2363 4594 2627
Q 4469 2891 4416 3188
Q 4416 3272 4481 3272
L 4609 3272
Q 4631 3272 4648 3253
Q 4666 3234 4672 3213
Q 4725 2938 4839 2702
Q 4953 2466 5125 2262
Q 5297 2059 5509 1912
Q 5722 1766 5991 1672
Q 6034 1644 6034 1600
Q 6034 1550 5991 1538
Q 5656 1422 5378 1192
Q 5100 963 4919 652
Q 4738 341 4672 -13
Q 4666 -34 4647 -53
Q 4628 -72 4609 -72
L 4481 -72
Q 4416 -72 4416 13
Q 4497 450 4740 836
Q 4984 1222 5338 1472
L 481 1472
z
" transform="scale(0.015625)"/>
      <path id="NotoSansCJKtc-Regular-574" transform="scale(0.015625)"/>
      <path id="Cmr10-28" d="M 1600 -141
Q 816 -141 533 504
Q 250 1150 250 2041
Q 250 2597 351 3087
Q 453 3578 754 3920
Q 1056 4263 1600 4263
Q 2022 4263 2290 4056
Q 2559 3850 2700 3523
Q 2841 3197 2892 2823
Q 2944 2450 2944 2041
Q 2944 1491 2842 1011
Q 2741 531 2444 195
Q 2147 -141 1600 -141
z
M 1600 25
Q 1956 25 2131 390
Q 2306 756 2347 1200
Q 2388 1644 2388 2144
Q 2388 2625 2347 3031
Q 2306 3438 2132 3767
Q 1959 4097 1600 4097
Q 1238 4097 1063 3765
Q 888 3434 847 3029
Q 806 2625 806 2144
Q 806 1788 823 1472
Q 841 1156 916 820
Q 991 484 1158 254
Q 1325 25 1600 25
z
" transform="scale(0.015625)"/>
      <path id="Cmmi10-33" d="M 538 353
Q 538 497 644 600
Q 750 703 891 703
Q 978 703 1062 656
Q 1147 609 1194 525
Q 1241 441 1241 353
Q 1241 213 1137 106
Q 1034 0 891 0
Q 750 0 644 106
Q 538 213 538 353
z
" transform="scale(0.015625)"/>
      <path id="Cmr10-4d" d="M 269 972
Q 269 1356 522 1651
Q 775 1947 1172 2144
L 934 2297
Q 716 2441 578 2680
Q 441 2919 441 3181
Q 441 3488 602 3734
Q 763 3981 1030 4122
Q 1297 4263 1600 4263
Q 1884 4263 2148 4147
Q 2413 4031 2583 3815
Q 2753 3600 2753 3303
Q 2753 3088 2651 2903
Q 2550 2719 2373 2572
Q 2197 2425 1997 2322
L 2363 2088
Q 2616 1922 2770 1653
Q 2925 1384 2925 1088
Q 2925 741 2739 456
Q 2553 172 2247 15
Q 1941 -141 1600 -141
Q 1269 -141 961 -6
Q 653 128 461 383
Q 269 638 269 972
z
M 616 972
Q 616 719 755 509
Q 894 300 1122 181
Q 1350 63 1600 63
Q 1972 63 2275 280
Q 2578 497 2578 856
Q 2578 978 2529 1098
Q 2481 1219 2395 1317
Q 2309 1416 2203 1478
L 1344 2034
Q 1144 1928 976 1765
Q 809 1603 712 1400
Q 616 1197 616 972
z
M 1056 2925
L 1831 2425
Q 2100 2581 2272 2803
Q 2444 3025 2444 3303
Q 2444 3519 2323 3698
Q 2203 3878 2009 3978
Q 1816 4078 1594 4078
Q 1400 4078 1203 4003
Q 1006 3928 878 3779
Q 750 3631 750 3431
Q 750 3131 1056 2925
z
" transform="scale(0.015625)"/>
      <path id="Cmmi10-7e" d="M 1409 -72
L 897 4006
Q 850 4147 416 4147
Q 353 4147 353 4231
Q 366 4300 384 4336
Q 403 4372 459 4372
L 2022 4372
Q 2056 4372 2072 4347
Q 2088 4322 2088 4288
Q 2063 4147 2003 4147
Q 1503 4147 1472 3975
L 1894 628
L 3866 3775
Q 3922 3881 3922 3944
Q 3922 4056 3820 4101
Q 3719 4147 3584 4147
Q 3519 4147 3519 4231
Q 3531 4281 3540 4309
Q 3550 4338 3569 4355
Q 3588 4372 3628 4372
L 4863 4372
Q 4922 4372 4922 4288
Q 4897 4147 4838 4147
Q 4356 4147 4084 3725
Q 4072 3713 4063 3713
L 1703 -72
Q 1656 -141 1581 -141
L 1491 -141
Q 1419 -141 1409 -72
z
" transform="scale(0.015625)"/>
     </defs>
     <use xlink:href="#NotoSansCJKtc-Regular-a8b1" transform="translate(0 0.40625)"/>
     <use xlink:href="#NotoSansCJKtc-Regular-54d7" transform="translate(99.999908 0.40625)"/>
     <use xlink:href="#NotoSansCJKtc-Regular-e6c0" transform="translate(199.999817 0.40625)"/>
     <use xlink:href="#Cmmi10-5c" transform="translate(299.999725 0.40625)"/>
     <use xlink:href="#Cmmi10-2f" transform="translate(374.999725 0.40625)"/>
     <use xlink:href="#Cmr10-4c" transform="translate(447.965025 41.695484) scale(0.7)"/>
     <use xlink:href="#Cmr10-4c" transform="translate(542.065421 0.40625)"/>
     <use xlink:href="#Cmmi10-3" transform="translate(639.751025 0.40625)"/>
     <use xlink:href="#Cmsy10-11" transform="translate(711.495622 41.695484) scale(0.7)"/>
     <use xlink:href="#Cmsy10-c" transform="translate(805.596018 0.40625)"/>
     <use xlink:href="#Cmmi10-5c" transform="translate(925.596075 0.40625)"/>
     <use xlink:href="#Cmmi10-2f" transform="translate(1000.596075 0.40625)"/>
     <use xlink:href="#NotoSansCJKtc-Regular-574" transform="translate(1048.301153 0.40625)"/>
     <use xlink:href="#Cmr10-4c" transform="translate(1148.301061 0.40625)"/>
     <use xlink:href="#Cmr10-28" transform="translate(1225.986608 0.40625)"/>
     <use xlink:href="#Cmmi10-33" transform="translate(1275.986608 0.40625)"/>
     <use xlink:href="#Cmr10-4d" transform="translate(1303.672155 0.40625)"/>
     <use xlink:href="#Cmr10-28" transform="translate(1353.672155 0.40625)"/>
     <use xlink:href="#Cmmi10-7e" transform="translate(1437.00525 0.40625)"/>
    </g>
   </g>
   <g id="text_13">
    <!-- 陽極：$Zn\rightarrow Zn^{2+}+2e^-$ -->
    <g style="fill: #222831" transform="translate(499.616273 208.392) scale(0.112 -0.112)">
     <defs>
      <path id="NotoSansCJKtc-Regular-a8ca" d="M 3290 3917
L 5165 3917
L 5165 3405
L 3290 3405
L 3290 3917
z
M 3290 4755
L 5165 4755
L 5165 4262
L 3290 4262
L 3290 4755
z
M 2848 5120
L 2848 3040
L 5632 3040
L 5632 5120
L 2848 5120
z
M 2285 2656
L 2285 2259
L 3130 2259
C 2874 1722 2470 1267 1997 960
C 2086 883 2246 736 2310 653
C 2586 858 2854 1114 3085 1414
L 3622 1414
C 3302 806 2797 275 2246 -77
C 2336 -147 2477 -307 2534 -390
C 3136 38 3712 678 4064 1414
L 4608 1414
C 4378 749 3981 166 3488 -218
C 3584 -282 3738 -429 3808 -493
C 4333 -45 4774 634 5037 1414
L 5466 1414
C 5408 435 5325 51 5229 -58
C 5184 -109 5133 -122 5050 -122
C 4966 -122 4774 -115 4557 -96
C 4614 -205 4659 -378 4672 -499
C 4896 -518 5126 -512 5254 -499
C 5402 -486 5504 -448 5600 -339
C 5754 -160 5843 320 5920 1613
C 5926 1677 5939 1805 5939 1805
L 3347 1805
C 3437 1952 3514 2099 3584 2259
L 6150 2259
L 6150 2656
L 2285 2656
z
M 518 5101
L 518 -512
L 947 -512
L 947 4666
L 1786 4666
C 1651 4230 1459 3648 1274 3181
C 1734 2682 1856 2253 1856 1901
C 1856 1709 1818 1536 1722 1466
C 1670 1427 1600 1414 1517 1408
C 1414 1402 1293 1408 1146 1414
C 1216 1293 1261 1107 1267 992
C 1408 986 1568 992 1696 1005
C 1830 1018 1939 1056 2029 1120
C 2208 1242 2285 1510 2285 1856
C 2285 2253 2176 2707 1709 3238
C 1926 3750 2163 4403 2349 4934
L 2035 5120
L 1965 5101
L 518 5101
z
" transform="scale(0.015625)"/>
     </defs>
     <use xlink:href="#NotoSansCJKtc-Regular-a8ca" transform="translate(0 0.084203)"/>
     <use xlink:href="#NotoSansCJKtc-Regular-54d7" transform="translate(99.999908 0.084203)"/>
     <use xlink:href="#NotoSansCJKtc-Regular-e6c0" transform="translate(199.999817 0.084203)"/>
     <use xlink:href="#Cmmi10-2e" transform="translate(299.999725 0.084203)"/>
     <use xlink:href="#Cmmi10-7a" transform="translate(368.212616 0.084203)"/>
     <use xlink:href="#Cmsy10-c" transform="translate(448.222439 0.084203)"/>
     <use xlink:href="#Cmmi10-2e" transform="translate(568.222496 0.084203)"/>
     <use xlink:href="#Cmmi10-7a" transform="translate(636.435387 0.084203)"/>
     <use xlink:href="#Cmr10-31" transform="translate(707.705334 41.373437) scale(0.7)"/>
     <use xlink:href="#Cmr10-4c" transform="translate(756.705374 41.373437) scale(0.7)"/>
     <use xlink:href="#Cmr10-4c" transform="translate(850.80577 0.084203)"/>
     <use xlink:href="#Cmr10-31" transform="translate(948.491374 0.084203)"/>
     <use xlink:href="#Cmmi10-3" transform="translate(998.491374 0.084203)"/>
     <use xlink:href="#Cmsy10-11" transform="translate(1070.235971 41.373437) scale(0.7)"/>
    </g>
    <!-- 表中還原電位為 −0.76 V -->
    <g style="fill: #222831" transform="translate(504.818148 219.592) scale(0.112 -0.112)">
     <defs>
      <path id="NotoSansCJKtc-Regular-8f91" d="M 1613 -506
C 1760 -410 1997 -326 3782 243
C 3757 346 3718 531 3706 666
L 2144 198
L 2144 1606
C 2528 1869 2874 2157 3149 2464
C 3648 1120 4544 147 5869 -294
C 5939 -166 6080 19 6189 122
C 5555 307 5011 621 4570 1037
C 4973 1286 5440 1619 5811 1933
L 5414 2214
C 5133 1939 4685 1594 4301 1325
C 4019 1658 3789 2042 3622 2464
L 5978 2464
L 5978 2880
L 3430 2880
L 3430 3450
L 5491 3450
L 5491 3846
L 3430 3846
L 3430 4390
L 5773 4390
L 5773 4806
L 3430 4806
L 3430 5376
L 2944 5376
L 2944 4806
L 672 4806
L 672 4390
L 2944 4390
L 2944 3846
L 998 3846
L 998 3450
L 2944 3450
L 2944 2880
L 416 2880
L 416 2464
L 2541 2464
C 1933 1920 1024 1427 230 1171
C 333 1075 474 896 550 781
C 909 909 1286 1088 1651 1299
L 1651 352
C 1651 96 1510 -13 1402 -70
C 1478 -173 1581 -390 1613 -506
z
" transform="scale(0.015625)"/>
      <path id="NotoSansCJKtc-Regular-2548" d="M 2931 5376
L 2931 4230
L 614 4230
L 614 1190
L 1094 1190
L 1094 1587
L 2931 1587
L 2931 -506
L 3437 -506
L 3437 1587
L 5280 1587
L 5280 1222
L 5773 1222
L 5773 4230
L 3437 4230
L 3437 5376
L 2931 5376
z
M 1094 2061
L 1094 3763
L 2931 3763
L 2931 2061
L 1094 2061
z
M 5280 2061
L 3437 2061
L 3437 3763
L 5280 3763
L 5280 2061
z
" transform="scale(0.015625)"/>
      <path id="NotoSansCJKtc-Regular-61a1" d="M 4083 1197
C 4275 934 4474 563 4550 326
L 4902 474
C 4826 704 4621 1069 4416 1325
L 4083 1197
z
M 1312 5184
C 1562 4915 1830 4544 1946 4294
L 2387 4499
C 2259 4742 1978 5107 1734 5357
L 1312 5184
z
M 2182 1043
C 2298 627 2368 96 2349 -250
L 2771 -186
C 2771 160 2707 685 2579 1094
L 2182 1043
z
M 3130 1101
C 3283 742 3437 275 3482 -26
L 3885 83
C 3827 378 3674 838 3501 1184
L 3130 1101
z
M 1363 1184
C 1242 691 992 122 640 -218
L 1011 -474
C 1395 -90 1619 525 1766 1056
L 1363 1184
z
M 3251 5382
C 3142 5011 3008 4640 2848 4282
L 525 4282
L 525 3840
L 2637 3840
C 2086 2765 1280 1798 192 1178
C 275 1075 397 890 454 774
C 832 998 1178 1254 1491 1542
L 5472 1542
C 5370 525 5267 96 5126 -32
C 5069 -90 5005 -96 4890 -96
C 4768 -102 4461 -96 4134 -64
C 4211 -192 4269 -378 4275 -506
C 4608 -525 4922 -525 5088 -512
C 5280 -499 5402 -461 5523 -333
C 5728 -128 5843 410 5965 1760
C 5971 1824 5984 1965 5984 1965
L 5286 1965
C 5370 2298 5459 2746 5530 3123
L 4800 3123
C 4883 3456 4979 3898 5050 4282
L 3373 4282
C 3507 4602 3629 4928 3738 5261
L 3251 5382
z
M 1914 1965
C 2125 2195 2323 2445 2502 2701
L 5005 2701
C 4960 2445 4896 2182 4838 1965
L 1914 1965
z
M 3168 3840
L 4518 3840
C 4467 3584 4410 3328 4352 3123
L 2778 3123
C 2918 3354 3046 3597 3168 3840
z
" transform="scale(0.015625)"/>
      <path id="NotoSansCJKtc-Regular-33f" d="M 243 2144
L 3315 2144
L 3315 2579
L 243 2579
L 243 2144
z
" transform="scale(0.015625)"/>
     </defs>
     <use xlink:href="#NotoSansCJKtc-Regular-8f91"/>
     <use xlink:href="#NotoSansCJKtc-Regular-2548" transform="translate(100 0)"/>
     <use xlink:href="#NotoSansCJKtc-Regular-9e85" transform="translate(200 0)"/>
     <use xlink:href="#NotoSansCJKtc-Regular-2e0a" transform="translate(300 0)"/>
     <use xlink:href="#NotoSansCJKtc-Regular-a9c6" transform="translate(400 0)"/>
     <use xlink:href="#NotoSansCJKtc-Regular-26e4" transform="translate(500 0)"/>
     <use xlink:href="#NotoSansCJKtc-Regular-61a1" transform="translate(600 0)"/>
     <use xlink:href="#NotoSansCJKtc-Regular-1" transform="translate(700 0)"/>
     <use xlink:href="#NotoSansCJKtc-Regular-33f" transform="translate(722.40625 0)"/>
     <use xlink:href="#NotoSansCJKtc-Regular-11" transform="translate(777.90625 0)"/>
     <use xlink:href="#NotoSansCJKtc-Regular-f" transform="translate(833.40625 0)"/>
     <use xlink:href="#NotoSansCJKtc-Regular-18" transform="translate(861.203125 0)"/>
     <use xlink:href="#NotoSansCJKtc-Regular-17" transform="translate(916.703125 0)"/>
     <use xlink:href="#NotoSansCJKtc-Regular-1" transform="translate(972.203125 0)"/>
     <use xlink:href="#NotoSansCJKtc-Regular-37" transform="translate(994.609375 0)"/>
    </g>
   </g>
   <g id="text_14">
    <!-- $E^\circ_{cell}=E^\circ_{cathode}-E^\circ_{anode}$ -->
    <g style="fill: #222831" transform="translate(503.976273 283.6608) scale(0.12 -0.12)">
     <defs>
      <path id="Cmmi10-7f" d="M 750 763
Q 750 484 892 290
Q 1034 97 1300 97
Q 1681 97 2032 272
Q 2384 447 2606 756
Q 2625 775 2656 775
Q 2688 775 2720 739
Q 2753 703 2753 672
Q 2753 647 2741 634
Q 2506 306 2109 117
Q 1713 -72 1288 -72
Q 981 -72 747 73
Q 513 219 384 462
Q 256 706 256 1013
Q 256 1444 497 1869
Q 738 2294 1138 2561
Q 1538 2828 1978 2828
Q 2266 2828 2495 2689
Q 2725 2550 2725 2278
Q 2725 2103 2623 1979
Q 2522 1856 2350 1856
Q 2247 1856 2176 1920
Q 2106 1984 2106 2088
Q 2106 2238 2215 2344
Q 2325 2450 2472 2450
L 2484 2450
Q 2409 2559 2267 2611
Q 2125 2663 1972 2663
Q 1597 2663 1315 2342
Q 1034 2022 892 1576
Q 750 1131 750 763
z
" transform="scale(0.015625)"/>
      <path id="Cmmi10-71" d="M 281 519
Q 281 538 286 575
Q 291 613 295 648
Q 300 684 300 703
L 1094 3872
Q 1119 3981 1125 4044
Q 1125 4147 709 4147
Q 647 4147 647 4231
Q 650 4247 661 4287
Q 672 4328 689 4350
Q 706 4372 738 4372
L 1600 4441
Q 1678 4441 1678 4359
L 756 678
Q 709 575 709 372
Q 709 97 897 97
Q 1094 97 1192 342
Q 1291 588 1369 941
Q 1381 978 1422 978
L 1497 978
Q 1522 978 1539 958
Q 1556 938 1556 916
Q 1481 606 1420 426
Q 1359 247 1225 87
Q 1091 -72 884 -72
Q 628 -72 454 93
Q 281 259 281 519
z
" transform="scale(0.015625)"/>
      <path id="Cmr10-29" d="M 481 850
Q 428 850 393 890
Q 359 931 359 978
Q 359 1031 393 1068
Q 428 1106 481 1106
L 4500 1106
Q 4547 1106 4581 1068
Q 4616 1031 4616 978
Q 4616 931 4581 890
Q 4547 850 4500 850
L 481 850
z
M 481 2094
Q 428 2094 393 2131
Q 359 2169 359 2222
Q 359 2269 393 2309
Q 428 2350 481 2350
L 4500 2350
Q 4547 2350 4581 2309
Q 4616 2269 4616 2222
Q 4616 2169 4581 2131
Q 4547 2094 4500 2094
L 481 2094
z
" transform="scale(0.015625)"/>
      <path id="Cmmi10-79" d="M 1113 -72
Q 709 -72 476 233
Q 244 538 244 953
Q 244 1363 456 1803
Q 669 2244 1030 2536
Q 1391 2828 1806 2828
Q 1997 2828 2147 2725
Q 2297 2622 2381 2444
Q 2453 2700 2663 2700
Q 2744 2700 2798 2651
Q 2853 2603 2853 2522
Q 2853 2503 2851 2493
Q 2850 2484 2847 2472
L 2400 684
Q 2356 494 2356 372
Q 2356 97 2541 97
Q 2741 97 2845 351
Q 2950 606 3022 941
Q 3034 978 3072 978
L 3150 978
Q 3175 978 3190 956
Q 3206 934 3206 916
Q 3094 469 2961 198
Q 2828 -72 2528 -72
Q 2313 -72 2147 54
Q 1981 181 1941 391
Q 1528 -72 1113 -72
z
M 1119 97
Q 1350 97 1567 270
Q 1784 444 1941 678
Q 1947 684 1947 697
L 2291 2088
L 2297 2106
Q 2259 2334 2132 2498
Q 2006 2663 1791 2663
Q 1575 2663 1389 2486
Q 1203 2309 1075 2069
Q 950 1813 836 1366
Q 722 919 722 672
Q 722 450 817 273
Q 913 97 1119 97
z
" transform="scale(0.015625)"/>
      <path id="Cmmi10-30" d="M 397 519
Q 397 613 416 697
L 878 2534
L 206 2534
Q 141 2534 141 2619
Q 166 2759 225 2759
L 934 2759
L 1191 3803
Q 1216 3888 1291 3947
Q 1366 4006 1459 4006
Q 1541 4006 1595 3957
Q 1650 3909 1650 3828
Q 1650 3809 1648 3798
Q 1647 3788 1644 3775
L 1388 2759
L 2047 2759
Q 2113 2759 2113 2675
Q 2109 2659 2100 2621
Q 2091 2584 2075 2559
Q 2059 2534 2028 2534
L 1331 2534
L 872 684
Q 825 503 825 372
Q 825 97 1013 97
Q 1294 97 1511 361
Q 1728 625 1844 941
Q 1869 978 1894 978
L 1972 978
Q 1997 978 2012 961
Q 2028 944 2028 922
Q 2028 909 2022 903
Q 1881 516 1612 222
Q 1344 -72 997 -72
Q 744 -72 570 93
Q 397 259 397 519
z
" transform="scale(0.015625)"/>
      <path id="Cmmi10-5f" d="M 341 116
Q 341 153 347 172
L 1275 3872
Q 1300 3981 1306 4044
Q 1306 4147 891 4147
Q 825 4147 825 4231
Q 828 4247 839 4287
Q 850 4328 867 4350
Q 884 4372 916 4372
L 1778 4441
L 1797 4441
Q 1797 4434 1819 4423
Q 1841 4413 1844 4409
Q 1856 4378 1856 4359
L 1356 2363
Q 1750 2828 2291 2828
Q 2516 2828 2680 2750
Q 2844 2672 2936 2514
Q 3028 2356 3028 2138
Q 3028 1875 2911 1503
Q 2794 1131 2619 672
Q 2528 463 2528 288
Q 2528 97 2675 97
Q 2925 97 3092 364
Q 3259 631 3328 941
Q 3341 978 3378 978
L 3456 978
Q 3481 978 3497 961
Q 3513 944 3513 922
Q 3513 916 3506 903
Q 3450 672 3339 448
Q 3228 225 3059 76
Q 2891 -72 2663 -72
Q 2438 -72 2278 83
Q 2119 238 2119 459
Q 2119 578 2169 709
Q 2350 1191 2470 1569
Q 2591 1947 2591 2234
Q 2591 2419 2519 2541
Q 2447 2663 2278 2663
Q 1934 2663 1678 2452
Q 1422 2241 1234 1894
L 800 147
Q 775 50 703 -11
Q 631 -72 538 -72
Q 456 -72 398 -17
Q 341 38 341 116
z
" transform="scale(0.015625)"/>
      <path id="Cmmi10-4c" d="M 1288 -72
Q 984 -72 748 72
Q 513 216 384 459
Q 256 703 256 1013
Q 256 1447 498 1872
Q 741 2297 1142 2562
Q 1544 2828 1984 2828
Q 2222 2828 2408 2747
Q 2594 2666 2731 2519
Q 2869 2372 2942 2175
Q 3016 1978 3016 1747
Q 3016 1413 2875 1089
Q 2734 766 2489 502
Q 2244 238 1928 83
Q 1613 -72 1288 -72
z
M 1300 97
Q 1584 97 1820 290
Q 2056 484 2207 779
Q 2359 1075 2440 1403
Q 2522 1731 2522 1997
Q 2522 2275 2383 2469
Q 2244 2663 1972 2663
Q 1597 2663 1315 2342
Q 1034 2022 892 1576
Q 750 1131 750 763
Q 750 484 892 290
Q 1034 97 1300 97
z
" transform="scale(0.015625)"/>
      <path id="Cmmi10-51" d="M 1113 -72
Q 709 -72 476 233
Q 244 538 244 953
Q 244 1363 456 1803
Q 669 2244 1030 2536
Q 1391 2828 1806 2828
Q 1994 2828 2145 2723
Q 2297 2619 2381 2444
L 2741 3872
Q 2766 3981 2772 4044
Q 2772 4147 2356 4147
Q 2291 4147 2291 4231
Q 2294 4247 2305 4287
Q 2316 4328 2333 4350
Q 2350 4372 2381 4372
L 3244 4441
Q 3322 4441 3322 4359
L 2400 678
Q 2356 572 2356 372
Q 2356 97 2541 97
Q 2741 97 2845 351
Q 2950 606 3022 941
Q 3034 978 3072 978
L 3150 978
Q 3175 978 3190 956
Q 3206 934 3206 916
Q 3094 469 2961 198
Q 2828 -72 2528 -72
Q 2313 -72 2147 54
Q 1981 181 1941 391
Q 1528 -72 1113 -72
z
M 1119 97
Q 1350 97 1567 270
Q 1784 444 1941 678
Q 1947 684 1947 703
L 2297 2113
Q 2259 2338 2131 2500
Q 2003 2663 1791 2663
Q 1575 2663 1389 2486
Q 1203 2309 1075 2069
Q 950 1813 836 1366
Q 722 919 722 672
Q 722 450 817 273
Q 913 97 1119 97
z
" transform="scale(0.015625)"/>
     </defs>
     <use xlink:href="#Cmmi10-6f" transform="translate(0 0.637328)"/>
     <use xlink:href="#Cmsy10-48" transform="translate(104.105769 41.926563) scale(0.7)"/>
     <use xlink:href="#Cmmi10-7f" transform="translate(73.779297 -31.646875) scale(0.7)"/>
     <use xlink:href="#Cmmi10-3" transform="translate(104.02832 -31.646875) scale(0.7)"/>
     <use xlink:href="#Cmmi10-71" transform="translate(136.567383 -31.646875) scale(0.7)"/>
     <use xlink:href="#Cmmi10-71" transform="translate(157.416992 -31.646875) scale(0.7)"/>
     <use xlink:href="#Cmr10-29" transform="translate(203.987074 0.637328)"/>
     <use xlink:href="#Cmmi10-6f" transform="translate(301.672678 0.637328)"/>
     <use xlink:href="#Cmsy10-48" transform="translate(405.778447 41.926563) scale(0.7)"/>
     <use xlink:href="#Cmmi10-7f" transform="translate(375.451975 -31.646875) scale(0.7)"/>
     <use xlink:href="#Cmmi10-79" transform="translate(405.700999 -31.646875) scale(0.7)"/>
     <use xlink:href="#Cmmi10-30" transform="translate(442.649241 -31.646875) scale(0.7)"/>
     <use xlink:href="#Cmmi10-5f" transform="translate(467.90803 -31.646875) scale(0.7)"/>
     <use xlink:href="#Cmmi10-4c" transform="translate(508.240061 -31.646875) scale(0.7)"/>
     <use xlink:href="#Cmmi10-51" transform="translate(542.112131 -31.646875) scale(0.7)"/>
     <use xlink:href="#Cmmi10-3" transform="translate(578.513499 -31.646875) scale(0.7)"/>
     <use xlink:href="#Cmsy10-11" transform="translate(636.773034 0.637328)"/>
     <use xlink:href="#Cmmi10-6f" transform="translate(734.458638 0.637328)"/>
     <use xlink:href="#Cmsy10-48" transform="translate(838.564407 41.926563) scale(0.7)"/>
     <use xlink:href="#Cmmi10-79" transform="translate(808.237935 -31.646875) scale(0.7)"/>
     <use xlink:href="#Cmmi10-7a" transform="translate(845.186177 -31.646875) scale(0.7)"/>
     <use xlink:href="#Cmmi10-4c" transform="translate(887.193013 -31.646875) scale(0.7)"/>
     <use xlink:href="#Cmmi10-51" transform="translate(921.065083 -31.646875) scale(0.7)"/>
     <use xlink:href="#Cmmi10-3" transform="translate(957.46645 -31.646875) scale(0.7)"/>
    </g>
    <!-- $=0.80-(-0.76)=1.56\ V$ -->
    <g style="fill: #222831" transform="translate(495.696273 298.3008) scale(0.12 -0.12)">
     <defs>
      <path id="Cmr10-77" d="M 1984 -1588
Q 1628 -1306 1370 -942
Q 1113 -578 948 -165
Q 784 247 703 697
Q 622 1147 622 1600
Q 622 2059 703 2509
Q 784 2959 951 3375
Q 1119 3791 1378 4153
Q 1638 4516 1984 4788
Q 1984 4800 2016 4800
L 2075 4800
Q 2094 4800 2109 4783
Q 2125 4766 2125 4744
Q 2125 4716 2113 4703
Q 1800 4397 1592 4047
Q 1384 3697 1257 3301
Q 1131 2906 1075 2482
Q 1019 2059 1019 1600
Q 1019 -434 2106 -1491
Q 2125 -1509 2125 -1544
Q 2125 -1559 2108 -1579
Q 2091 -1600 2075 -1600
L 2016 -1600
Q 1984 -1600 1984 -1588
z
" transform="scale(0.015625)"/>
      <path id="Cmr10-7f" d="M 1113 166
Q 1113 522 1175 862
Q 1238 1203 1358 1536
Q 1478 1869 1648 2189
Q 1819 2509 2022 2791
L 2606 3603
L 1875 3603
Q 738 3603 703 3572
Q 619 3469 544 2981
L 359 2981
L 569 4325
L 756 4325
L 756 4306
Q 756 4191 1147 4156
Q 1538 4122 1913 4122
L 3103 4122
L 3103 3956
Q 3103 3950 3101 3947
Q 3100 3944 3097 3938
L 2216 2700
Q 1891 2219 1809 1631
Q 1728 1044 1728 166
Q 1728 41 1637 -50
Q 1547 -141 1422 -141
Q 1294 -141 1203 -50
Q 1113 41 1113 166
z
" transform="scale(0.015625)"/>
      <path id="Cmr10-45" d="M 1600 -141
Q 1203 -141 937 70
Q 672 281 526 617
Q 381 953 325 1322
Q 269 1691 269 2069
Q 269 2575 466 3084
Q 663 3594 1045 3928
Q 1428 4263 1953 4263
Q 2172 4263 2361 4180
Q 2550 4097 2658 3936
Q 2766 3775 2766 3547
Q 2766 3416 2677 3327
Q 2588 3238 2456 3238
Q 2331 3238 2240 3328
Q 2150 3419 2150 3547
Q 2150 3672 2240 3762
Q 2331 3853 2456 3853
L 2491 3853
Q 2409 3969 2261 4023
Q 2113 4078 1953 4078
Q 1759 4078 1595 3993
Q 1431 3909 1300 3765
Q 1169 3622 1081 3448
Q 994 3275 945 3053
Q 897 2831 884 2637
Q 872 2444 872 2150
Q 984 2413 1190 2580
Q 1397 2747 1656 2747
Q 1941 2747 2175 2631
Q 2409 2516 2578 2311
Q 2747 2106 2836 1843
Q 2925 1581 2925 1313
Q 2925 938 2758 598
Q 2591 259 2287 59
Q 1984 -141 1600 -141
z
M 1600 63
Q 1847 63 1997 175
Q 2147 288 2217 473
Q 2288 659 2305 848
Q 2322 1038 2322 1313
Q 2322 1675 2287 1931
Q 2253 2188 2100 2383
Q 1947 2578 1631 2578
Q 1372 2578 1205 2403
Q 1038 2228 961 1961
Q 884 1694 884 1447
Q 884 1363 891 1319
Q 891 1309 889 1303
Q 888 1297 884 1288
Q 884 1013 940 731
Q 997 450 1156 256
Q 1316 63 1600 63
z
" transform="scale(0.015625)"/>
      <path id="Cmr10-44" d="M 416 -1600
Q 359 -1600 359 -1544
Q 359 -1516 372 -1503
Q 1466 -434 1466 1600
Q 1466 3634 384 4691
Q 359 4706 359 4744
Q 359 4766 376 4783
Q 394 4800 416 4800
L 475 4800
Q 494 4800 506 4788
Q 966 4425 1272 3906
Q 1578 3388 1720 2800
Q 1863 2213 1863 1600
Q 1863 1147 1786 708
Q 1709 269 1542 -157
Q 1375 -584 1119 -945
Q 863 -1306 506 -1588
Q 494 -1600 475 -1600
L 416 -1600
z
" transform="scale(0.015625)"/>
      <path id="Cmr10-64" d="M 594 0
L 594 225
Q 1394 225 1394 428
L 1394 3788
Q 1063 3628 556 3628
L 556 3853
Q 1341 3853 1741 4263
L 1831 4263
Q 1853 4263 1873 4245
Q 1894 4228 1894 4206
L 1894 428
Q 1894 225 2694 225
L 2694 0
L 594 0
z
" transform="scale(0.015625)"/>
      <path id="Cmr10-78" d="M 556 728
Q 622 541 758 387
Q 894 234 1080 148
Q 1266 63 1466 63
Q 1928 63 2103 422
Q 2278 781 2278 1294
Q 2278 1516 2270 1667
Q 2263 1819 2228 1959
Q 2169 2184 2020 2353
Q 1872 2522 1656 2522
Q 1441 2522 1286 2456
Q 1131 2391 1034 2303
Q 938 2216 863 2119
Q 788 2022 769 2016
L 697 2016
Q 681 2016 657 2036
Q 634 2056 634 2075
L 634 4213
Q 634 4228 654 4245
Q 675 4263 697 4263
L 716 4263
Q 1147 4056 1631 4056
Q 2106 4056 2547 4263
L 2566 4263
Q 2588 4263 2606 4247
Q 2625 4231 2625 4213
L 2625 4153
Q 2625 4122 2613 4122
Q 2394 3831 2064 3668
Q 1734 3506 1381 3506
Q 1125 3506 856 3578
L 856 2369
Q 1069 2541 1236 2614
Q 1403 2688 1663 2688
Q 2016 2688 2295 2484
Q 2575 2281 2725 1954
Q 2875 1628 2875 1288
Q 2875 903 2686 575
Q 2497 247 2172 53
Q 1847 -141 1466 -141
Q 1150 -141 886 21
Q 622 184 470 459
Q 319 734 319 1044
Q 319 1188 412 1278
Q 506 1369 647 1369
Q 788 1369 883 1276
Q 978 1184 978 1044
Q 978 906 883 811
Q 788 716 647 716
Q 625 716 597 720
Q 569 725 556 728
z
" transform="scale(0.015625)"/>
     </defs>
     <use xlink:href="#Cmr10-29" transform="translate(20.000057 0)"/>
     <use xlink:href="#Cmr10-28" transform="translate(117.685661 0)"/>
     <use xlink:href="#Cmmi10-33" transform="translate(167.685661 0)"/>
     <use xlink:href="#Cmr10-4d" transform="translate(195.371208 0)"/>
     <use xlink:href="#Cmr10-28" transform="translate(245.371208 0)"/>
     <use xlink:href="#Cmsy10-11" transform="translate(315.371265 0)"/>
     <use xlink:href="#Cmr10-77" transform="translate(413.05687 0)"/>
     <use xlink:href="#Cmsy10-11" transform="translate(451.875229 0)"/>
     <use xlink:href="#Cmr10-28" transform="translate(529.560776 0)"/>
     <use xlink:href="#Cmmi10-33" transform="translate(579.560776 0)"/>
     <use xlink:href="#Cmr10-7f" transform="translate(607.246323 0)"/>
     <use xlink:href="#Cmr10-45" transform="translate(657.246323 0)"/>
     <use xlink:href="#Cmr10-44" transform="translate(707.246323 0)"/>
     <use xlink:href="#Cmr10-29" transform="translate(766.064739 0)"/>
     <use xlink:href="#Cmr10-64" transform="translate(863.750343 0)"/>
     <use xlink:href="#Cmmi10-33" transform="translate(913.750343 0)"/>
     <use xlink:href="#Cmr10-78" transform="translate(941.43589 0)"/>
     <use xlink:href="#Cmr10-45" transform="translate(991.43589 0)"/>
     <use xlink:href="#Cmmi10-7e" transform="translate(1074.768986 0)"/>
    </g>
   </g>
   <g id="text_15">
    <!-- 為配平而乘 2 的 $Ag^+$ 半反應，$E^\circ$ 仍是 +0.80 V -->
    <g style="fill: #8250df" transform="translate(453.433773 350.0496) scale(0.105 -0.105)">
     <defs>
      <path id="NotoSansCJKtc-Regular-9fe6" d="M 1069 1382
L 1069 1005
L 2547 1005
L 2547 1382
L 1069 1382
z
M 3590 5088
L 3590 4627
L 5491 4627
L 5491 2995
L 3610 2995
L 3610 282
C 3610 -301 3789 -448 4371 -448
C 4493 -448 5286 -448 5421 -448
C 5997 -448 6131 -154 6189 890
C 6054 922 5856 1005 5747 1088
C 5722 166 5670 6 5389 6
C 5216 6 4557 6 4422 6
C 4134 6 4083 51 4083 282
L 4083 2541
L 5952 2541
L 5952 5088
L 3590 5088
z
M 301 5101
L 301 4691
L 1197 4691
L 1197 3859
L 416 3859
L 416 -493
L 806 -493
L 806 -38
L 2810 -38
L 2810 -410
L 3206 -410
L 3206 3859
L 2426 3859
L 2426 4691
L 3334 4691
L 3334 5101
L 301 5101
z
M 806 352
L 806 1926
C 883 1882 986 1786 1037 1728
C 1498 2074 1594 2573 1594 2970
L 1594 3450
L 2048 3450
L 2048 2451
C 2048 2112 2131 2042 2419 2042
C 2470 2042 2714 2042 2765 2042
L 2810 2042
L 2810 352
L 806 352
z
M 1587 3859
L 1587 4691
L 2029 4691
L 2029 3859
L 1587 3859
z
M 806 1946
L 806 3450
L 1293 3450
L 1293 2970
C 1293 2650 1216 2253 806 1946
z
M 2355 3450
L 2810 3450
L 2810 2374
C 2797 2368 2784 2362 2714 2362
C 2662 2362 2490 2362 2451 2362
C 2374 2362 2355 2374 2355 2458
L 2355 3450
z
" transform="scale(0.015625)"/>
      <path id="NotoSansCJKtc-Regular-41d6" d="M 1114 4032
C 1363 3558 1613 2938 1702 2554
L 2157 2714
C 2067 3085 1805 3699 1549 4160
L 1114 4032
z
M 4832 4192
C 4672 3725 4378 3072 4134 2669
L 4550 2534
C 4800 2918 5101 3533 5338 4051
L 4832 4192
z
M 333 2227
L 333 1747
L 2938 1747
L 2938 -506
L 3437 -506
L 3437 1747
L 6074 1747
L 6074 2227
L 3437 2227
L 3437 4467
L 5715 4467
L 5715 4947
L 672 4947
L 672 4467
L 2938 4467
L 2938 2227
L 333 2227
z
" transform="scale(0.015625)"/>
      <path id="NotoSansCJKtc-Regular-7e21" d="M 346 5043
L 346 4557
L 2842 4557
C 2784 4256 2701 3917 2618 3635
L 672 3635
L 672 -512
L 1158 -512
L 1158 3181
L 2176 3181
L 2176 -307
L 2650 -307
L 2650 3181
L 3706 3181
L 3706 -307
L 4186 -307
L 4186 3181
L 5267 3181
L 5267 90
C 5267 0 5242 -26 5146 -26
C 5050 -32 4723 -38 4365 -26
C 4435 -147 4506 -352 4525 -480
C 4986 -480 5312 -474 5510 -397
C 5696 -320 5754 -179 5754 90
L 5754 3635
L 3123 3635
C 3219 3910 3322 4237 3411 4557
L 6086 4557
L 6086 5043
L 346 5043
z
" transform="scale(0.015625)"/>
      <path id="NotoSansCJKtc-Regular-2580" d="M 5248 5344
C 4205 5126 2368 4992 877 4941
C 922 4832 979 4646 986 4531
C 1600 4544 2278 4576 2944 4621
L 2944 4032
L 416 4032
L 416 3590
L 2944 3590
L 2944 2054
C 2394 1178 1350 403 218 90
C 326 -13 467 -192 538 -314
C 1466 -6 2336 614 2944 1382
L 2944 -506
L 3443 -506
L 3443 1414
C 4051 640 4928 -6 5856 -320
C 5926 -198 6067 -13 6170 83
C 5050 403 3987 1190 3443 2067
L 3443 3590
L 5984 3590
L 5984 4032
L 3443 4032
L 3443 4659
C 4205 4730 4922 4819 5472 4928
L 5248 5344
z
M 397 1606
L 525 1210
C 1107 1370 1869 1587 2592 1805
L 2541 2157
L 2253 2080
L 2253 3411
L 1818 3411
L 1818 2963
L 589 2963
L 589 2573
L 1818 2573
L 1818 1958
C 1280 1818 774 1690 397 1606
z
M 4122 3411
L 4122 2099
C 4122 1658 4230 1485 4710 1485
C 4806 1485 5414 1485 5555 1485
C 5728 1485 5907 1491 5997 1517
C 5978 1626 5965 1786 5952 1907
C 5862 1882 5658 1875 5542 1875
C 5414 1875 4864 1875 4742 1875
C 4608 1875 4582 1920 4582 2099
L 4582 2566
L 5830 2566
L 5830 2963
L 4582 2963
L 4582 3411
L 4122 3411
z
" transform="scale(0.015625)"/>
      <path id="NotoSansCJKtc-Regular-2631" d="M 2067 4915
L 2067 4474
L 2822 4474
C 2797 2835 2694 845 1581 -205
C 1709 -282 1869 -416 1958 -531
C 3136 627 3270 2707 3309 4474
L 4582 4474
C 4467 3834 4314 3110 4186 2630
L 5408 2630
C 5325 902 5222 230 5050 58
C 4986 -6 4909 -26 4787 -26
C 4640 -26 4269 -19 3872 19
C 3962 -115 4013 -314 4026 -454
C 4410 -474 4774 -480 4979 -461
C 5197 -442 5331 -397 5459 -237
C 5683 13 5786 781 5888 2848
C 5894 2918 5901 3078 5901 3078
L 4749 3078
C 4877 3635 5018 4339 5120 4915
L 2067 4915
z
M 1466 5344
C 1171 4390 691 3430 154 2810
C 237 2688 371 2432 416 2317
C 602 2541 781 2797 947 3078
L 947 -512
L 1408 -512
L 1408 3942
C 1600 4352 1773 4794 1914 5222
L 1466 5344
z
" transform="scale(0.015625)"/>
      <path id="NotoSansCJKtc-Regular-4f6d" d="M 1510 3885
L 4845 3885
L 4845 3360
L 1510 3360
L 1510 3885
z
M 1510 4749
L 4845 4749
L 4845 4230
L 1510 4230
L 1510 4749
z
M 1050 5114
L 1050 2995
L 5331 2995
L 5331 5114
L 1050 5114
z
M 1478 1914
C 1312 979 902 256 224 -186
C 333 -256 518 -435 589 -518
C 1011 -218 1344 192 1587 698
C 2112 -186 2938 -384 4230 -384
L 5984 -384
C 6010 -250 6086 -38 6163 77
C 5830 70 4493 64 4250 70
C 3981 70 3725 77 3494 102
L 3494 986
L 5619 986
L 5619 1408
L 3494 1408
L 3494 2125
L 6035 2125
L 6035 2554
L 378 2554
L 378 2125
L 3014 2125
L 3014 186
C 2458 326 2048 627 1798 1216
C 1862 1414 1914 1626 1958 1850
L 1478 1914
z
" transform="scale(0.015625)"/>
     </defs>
     <use xlink:href="#NotoSansCJKtc-Regular-61a1"/>
     <use xlink:href="#NotoSansCJKtc-Regular-9fe6" transform="translate(99.999908 0)"/>
     <use xlink:href="#NotoSansCJKtc-Regular-41d6" transform="translate(199.999817 0)"/>
     <use xlink:href="#NotoSansCJKtc-Regular-7e21" transform="translate(299.999725 0)"/>
     <use xlink:href="#NotoSansCJKtc-Regular-2580" transform="translate(399.999634 0)"/>
     <use xlink:href="#NotoSansCJKtc-Regular-1" transform="translate(499.999542 0)"/>
     <use xlink:href="#NotoSansCJKtc-Regular-13" transform="translate(522.399521 0)"/>
     <use xlink:href="#NotoSansCJKtc-Regular-1" transform="translate(577.899475 0)"/>
     <use xlink:href="#NotoSansCJKtc-Regular-6c33" transform="translate(600.299454 0)"/>
     <use xlink:href="#NotoSansCJKtc-Regular-1" transform="translate(700.299362 0)"/>
     <use xlink:href="#Cmmi10-5c" transform="translate(722.699341 0)"/>
     <use xlink:href="#Cmmi10-2f" transform="translate(797.699341 0)"/>
     <use xlink:href="#Cmr10-4c" transform="translate(870.664641 41.289234) scale(0.7)"/>
     <use xlink:href="#NotoSansCJKtc-Regular-1" transform="translate(944.764979 0)"/>
     <use xlink:href="#NotoSansCJKtc-Regular-2d90" transform="translate(967.164958 0)"/>
     <use xlink:href="#NotoSansCJKtc-Regular-2e5a" transform="translate(1067.164866 0)"/>
     <use xlink:href="#NotoSansCJKtc-Regular-47d5" transform="translate(1167.164775 0)"/>
     <use xlink:href="#NotoSansCJKtc-Regular-f6ac" transform="translate(1267.164683 0)"/>
     <use xlink:href="#Cmmi10-6f" transform="translate(1367.164592 0)"/>
     <use xlink:href="#Cmsy10-48" transform="translate(1471.27036 41.289234) scale(0.7)"/>
     <use xlink:href="#NotoSansCJKtc-Regular-1" transform="translate(1525.990816 0)"/>
     <use xlink:href="#NotoSansCJKtc-Regular-2631" transform="translate(1548.390795 0)"/>
     <use xlink:href="#NotoSansCJKtc-Regular-4f6d" transform="translate(1648.390703 0)"/>
     <use xlink:href="#NotoSansCJKtc-Regular-1" transform="translate(1748.390611 0)"/>
     <use xlink:href="#NotoSansCJKtc-Regular-c" transform="translate(1770.79059 0)"/>
     <use xlink:href="#NotoSansCJKtc-Regular-11" transform="translate(1826.290544 0)"/>
     <use xlink:href="#NotoSansCJKtc-Regular-f" transform="translate(1881.790499 0)"/>
     <use xlink:href="#NotoSansCJKtc-Regular-19" transform="translate(1909.590471 0)"/>
     <use xlink:href="#NotoSansCJKtc-Regular-11" transform="translate(1965.090425 0)"/>
     <use xlink:href="#NotoSansCJKtc-Regular-1" transform="translate(2020.59038 0)"/>
     <use xlink:href="#NotoSansCJKtc-Regular-37" transform="translate(2042.990358 0)"/>
    </g>
   </g>
  </g>
  <g id="text_16">
   <!-- 標準還原電位是強度量：由兩端電位差求標準電池電壓 -->
   <g style="fill: #222831" transform="translate(180.528 21.28) scale(0.16 -0.16)">
    <defs>
     <path id="NotoSansCJKtc-Regular-4232" d="M 2470 4122
L 2470 3565
L 1440 3565
L 1440 3168
L 2470 3168
L 2470 2106
L 4960 2106
L 4960 3168
L 5997 3168
L 5997 3565
L 4960 3565
L 4960 4122
L 4486 4122
L 4486 3565
L 2931 3565
L 2931 4122
L 2470 4122
z
M 4486 3168
L 4486 2490
L 2931 2490
L 2931 3168
L 4486 3168
z
M 4845 1299
C 4563 966 4166 704 3706 499
C 3251 710 2880 979 2611 1299
L 4845 1299
z
M 1530 1696
L 1530 1299
L 2362 1299
L 2144 1210
C 2406 851 2758 550 3181 301
C 2579 109 1907 -6 1229 -64
C 1299 -173 1389 -358 1421 -474
C 2221 -384 3002 -224 3686 45
C 4320 -237 5069 -416 5875 -512
C 5933 -390 6054 -198 6157 -96
C 5453 -32 4794 96 4224 294
C 4787 595 5254 1005 5549 1555
L 5248 1715
L 5165 1696
L 1530 1696
z
M 3027 5293
C 3117 5126 3213 4922 3283 4742
L 806 4742
L 806 2995
C 806 2042 762 672 237 -294
C 358 -333 570 -435 666 -512
C 1203 499 1286 1978 1286 3002
L 1286 4288
L 6067 4288
L 6067 4742
L 3827 4742
C 3750 4947 3622 5203 3507 5408
L 3027 5293
z
" transform="scale(0.015625)"/>
     <path id="NotoSansCJKtc-Regular-a108" d="M 1600 4256
L 4781 4256
L 4781 3904
L 1600 3904
L 1600 4256
z
M 1600 4883
L 4781 4883
L 4781 4538
L 1600 4538
L 1600 4883
z
M 1133 5171
L 1133 3616
L 5261 3616
L 5261 5171
L 1133 5171
z
M 333 3341
L 333 2976
L 6074 2976
L 6074 3341
L 333 3341
z
M 1472 1747
L 2957 1747
L 2957 1376
L 1472 1376
L 1472 1747
z
M 3424 1747
L 4973 1747
L 4973 1376
L 3424 1376
L 3424 1747
z
M 1472 2387
L 2957 2387
L 2957 2029
L 1472 2029
L 1472 2387
z
M 3424 2387
L 4973 2387
L 4973 2029
L 3424 2029
L 3424 2387
z
M 301 19
L 301 -352
L 6112 -352
L 6112 19
L 3424 19
L 3424 390
L 5587 390
L 5587 730
L 3424 730
L 3424 1082
L 5446 1082
L 5446 2688
L 1018 2688
L 1018 1082
L 2957 1082
L 2957 730
L 838 730
L 838 390
L 2957 390
L 2957 19
L 301 19
z
" transform="scale(0.015625)"/>
     <path id="NotoSansCJKtc-Regular-69ba" d="M 1210 1786
L 2938 1786
L 2938 365
L 1210 365
L 1210 1786
z
M 5184 1786
L 5184 365
L 3424 365
L 3424 1786
L 5184 1786
z
M 1210 2259
L 1210 3654
L 2938 3654
L 2938 2259
L 1210 2259
z
M 5184 2259
L 3424 2259
L 3424 3654
L 5184 3654
L 5184 2259
z
M 2938 5376
L 2938 4134
L 730 4134
L 730 -512
L 1210 -512
L 1210 -115
L 5184 -115
L 5184 -486
L 5683 -486
L 5683 4134
L 3424 4134
L 3424 5376
L 2938 5376
z
" transform="scale(0.015625)"/>
     <path id="NotoSansCJKtc-Regular-2a94" d="M 1568 2784
L 1568 2445
L 1971 2445
C 1875 1683 1651 1050 1222 634
C 1299 589 1440 480 1498 429
C 1779 723 1990 1114 2138 1581
C 2221 1171 2381 774 2662 435
C 2720 506 2854 608 2931 653
C 2374 1293 2330 2112 2330 2784
L 1568 2784
z
M 442 4992
L 442 4518
L 2938 4518
L 2938 3718
L 672 3718
L 672 -499
L 1133 -499
L 1133 3264
L 2938 3264
L 2938 -480
L 3398 -480
L 3398 3264
L 5299 3264
L 5299 58
C 5299 -38 5267 -70 5171 -70
C 5069 -77 4736 -77 4384 -64
C 4448 -186 4525 -371 4550 -499
C 5005 -499 5325 -493 5517 -416
C 5709 -346 5766 -211 5766 51
L 5766 3718
L 3398 3718
L 3398 4518
L 5990 4518
L 5990 4992
L 442 4992
z
M 3802 2784
L 3802 2445
L 4218 2445
C 4115 1709 3891 1088 3482 678
C 3571 634 3706 525 3763 467
C 4038 768 4243 1158 4384 1626
C 4474 1203 4640 794 4947 454
C 5011 518 5146 621 5229 659
C 4640 1293 4589 2112 4589 2784
L 3802 2784
z
" transform="scale(0.015625)"/>
     <path id="NotoSansCJKtc-Regular-73f8" d="M 320 4173
L 320 3725
L 2477 3725
L 2477 4173
L 320 4173
z
M 525 3354
C 666 2630 781 1690 806 1056
L 1190 1126
C 1165 1760 1043 2688 896 3418
L 525 3354
z
M 960 5184
C 1120 4890 1306 4486 1382 4230
L 1811 4378
C 1728 4634 1542 5018 1370 5312
L 960 5184
z
M 2605 2048
L 2605 -506
L 3040 -506
L 3040 1632
L 3603 1632
L 3603 -448
L 3987 -448
L 3987 1632
L 4576 1632
L 4576 -435
L 4960 -435
L 4960 1632
L 5555 1632
L 5555 -64
C 5555 -122 5536 -141 5478 -141
C 5427 -147 5267 -147 5088 -141
C 5139 -250 5203 -410 5222 -525
C 5510 -525 5683 -518 5818 -448
C 5952 -384 5978 -275 5978 -70
L 5978 2048
L 4326 2048
L 4506 2630
L 6125 2630
L 6125 3066
L 2406 3066
L 2406 2630
L 3968 2630
C 3936 2438 3891 2227 3853 2048
L 2605 2048
z
M 2682 5056
L 2682 3533
L 5901 3533
L 5901 5056
L 5440 5056
L 5440 3955
L 4474 3955
L 4474 5363
L 4013 5363
L 4013 3955
L 3130 3955
L 3130 5056
L 2682 5056
z
M 1856 3475
C 1779 2701 1626 1574 1472 877
C 1024 768 602 672 282 608
L 390 128
C 992 282 1766 480 2522 672
L 2464 1120
L 1850 966
C 2003 1651 2163 2637 2272 3398
L 1856 3475
z
" transform="scale(0.015625)"/>
     <path id="NotoSansCJKtc-Regular-4110" d="M 4422 5389
C 4320 5133 4115 4768 3949 4538
L 4019 4512
L 2349 4512
L 2451 4557
C 2362 4787 2144 5114 1933 5357
L 1523 5190
C 1683 4992 1850 4723 1952 4512
L 646 4512
L 646 4090
L 2944 4090
L 2944 3526
L 960 3526
L 960 3117
L 2944 3117
L 2944 2541
L 358 2541
L 358 2106
L 1658 2106
C 1421 1114 954 314 250 -179
C 365 -256 563 -429 653 -518
C 1382 64 1901 960 2182 2106
L 6042 2106
L 6042 2541
L 3437 2541
L 3437 3117
L 5478 3117
L 5478 3526
L 3437 3526
L 3437 4090
L 5798 4090
L 5798 4512
L 4442 4512
C 4595 4717 4774 4986 4928 5235
L 4422 5389
z
M 2163 1619
L 2163 1197
L 3462 1197
L 3462 70
L 1549 70
L 1549 -352
L 5914 -352
L 5914 70
L 3949 70
L 3949 1197
L 5485 1197
L 5485 1619
L 2163 1619
z
" transform="scale(0.015625)"/>
     <path id="NotoSansCJKtc-Regular-59f3" d="M 749 3206
C 1152 2842 1613 2323 1811 1978
L 2202 2266
C 1990 2611 1517 3104 1114 3456
L 749 3206
z
M 275 570
L 576 134
C 1235 512 2112 1037 2944 1549
L 2944 141
C 2944 13 2899 -19 2778 -26
C 2650 -26 2234 -32 1792 -13
C 1869 -160 1939 -384 1971 -525
C 2534 -525 2918 -512 3136 -429
C 3347 -346 3437 -198 3437 141
L 3437 2688
C 3987 1504 4794 525 5837 26
C 5914 154 6074 346 6189 442
C 5491 742 4883 1267 4397 1914
C 4819 2278 5344 2797 5734 3251
L 5325 3546
C 5030 3149 4550 2637 4147 2272
C 3853 2726 3616 3232 3437 3750
L 3437 3834
L 6010 3834
L 6010 4301
L 5222 4301
L 5498 4614
C 5235 4826 4717 5133 4314 5338
L 4026 5030
C 4416 4832 4896 4525 5158 4301
L 3437 4301
L 3437 5363
L 2944 5363
L 2944 4301
L 416 4301
L 416 3834
L 2944 3834
L 2944 2048
C 1971 1491 928 902 275 570
z
" transform="scale(0.015625)"/>
     <path id="NotoSansCJKtc-Regular-5a23" d="M 602 4954
C 986 4755 1504 4454 1766 4262
L 2042 4659
C 1773 4832 1248 5114 870 5299
L 602 4954
z
M 256 3194
C 621 2995 1120 2707 1370 2534
L 1638 2931
C 1382 3098 877 3366 518 3546
L 256 3194
z
M 467 -102
L 883 -416
C 1248 186 1670 986 1997 1658
L 1632 1958
C 1280 1235 794 390 467 -102
z
M 2554 4730
L 2554 3053
L 1734 2733
L 1920 2304
L 2554 2554
L 2554 435
C 2554 -275 2778 -454 3539 -454
C 3712 -454 5050 -454 5235 -454
C 5939 -454 6093 -160 6170 730
C 6035 755 5850 838 5734 915
C 5683 160 5619 -19 5222 -19
C 4941 -19 3776 -19 3552 -19
C 3091 -19 3008 64 3008 435
L 3008 2726
L 3955 3098
L 3955 915
L 4397 915
L 4397 3270
L 5434 3680
C 5421 2829 5382 1824 5318 1216
L 5715 1107
C 5824 1869 5888 3091 5907 4026
L 5926 4109
L 5568 4224
L 4397 3770
L 4397 5363
L 3955 5363
L 3955 3597
L 3008 3226
L 3008 4730
L 2554 4730
z
" transform="scale(0.015625)"/>
     <path id="NotoSansCJKtc-Regular-366a" d="M 1818 3802
L 3021 3802
L 3021 3571
L 1818 3571
L 1818 3802
z
M 1818 4250
L 3021 4250
L 3021 4032
L 1818 4032
L 1818 4250
z
M 1466 4493
L 1466 3328
L 3392 3328
L 3392 4493
L 1466 4493
z
M 5050 4326
C 5254 4134 5491 3859 5600 3674
L 5894 3866
C 5786 4045 5542 4314 5338 4499
L 5050 4326
z
M 1824 2496
C 2163 2426 2605 2310 2848 2227
L 2950 2470
C 2707 2541 2266 2643 1926 2707
L 1824 2496
z
M 672 5088
L 672 2835
C 672 1933 634 710 192 -147
C 301 -192 493 -301 576 -378
C 1037 525 1107 1882 1107 2835
L 1107 4723
L 5990 4723
L 5990 5088
L 672 5088
z
M 1350 3098
L 1350 2368
C 1350 2086 1338 1754 1133 1485
C 1222 1440 1389 1325 1459 1254
C 1600 1434 1664 1651 1696 1875
L 1786 1670
L 3098 1990
L 3098 1670
C 3098 1606 3078 1587 3008 1581
C 2944 1581 2707 1574 2438 1587
C 2490 1510 2534 1395 2560 1312
C 2925 1312 3162 1312 3309 1357
C 3411 1402 3456 1446 3469 1549
C 3565 1478 3667 1370 3725 1299
C 4352 1702 4640 2195 4774 2688
C 4979 2067 5312 1555 5811 1280
C 5869 1389 5997 1542 6093 1626
C 5517 1894 5165 2483 4986 3206
L 5946 3206
L 5946 3597
L 4870 3597
L 4870 4544
L 4499 4544
L 4499 3610
L 4499 3597
L 3616 3597
L 3616 3206
L 4480 3206
C 4422 2662 4205 2074 3482 1600
L 3482 1670
L 3482 3098
L 1350 3098
z
M 3347 1261
L 3347 922
L 1498 922
L 1498 550
L 3347 550
L 3347 32
L 1056 32
L 1056 -333
L 6042 -333
L 6042 32
L 3814 32
L 3814 550
L 5626 550
L 5626 922
L 3814 922
L 3814 1261
L 3347 1261
z
M 3098 2816
L 3098 2266
C 2586 2144 2080 2035 1709 1958
C 1722 2099 1728 2234 1728 2362
L 1728 2816
L 3098 2816
z
" transform="scale(0.015625)"/>
    </defs>
    <use xlink:href="#NotoSansCJKtc-Regular-5606"/>
    <use xlink:href="#NotoSansCJKtc-Regular-5d97" transform="translate(100 0)"/>
    <use xlink:href="#NotoSansCJKtc-Regular-9e85" transform="translate(200 0)"/>
    <use xlink:href="#NotoSansCJKtc-Regular-2e0a" transform="translate(300 0)"/>
    <use xlink:href="#NotoSansCJKtc-Regular-a9c6" transform="translate(400 0)"/>
    <use xlink:href="#NotoSansCJKtc-Regular-26e4" transform="translate(500 0)"/>
    <use xlink:href="#NotoSansCJKtc-Regular-4f6d" transform="translate(600 0)"/>
    <use xlink:href="#NotoSansCJKtc-Regular-435b" transform="translate(700 0)"/>
    <use xlink:href="#NotoSansCJKtc-Regular-4232" transform="translate(800 0)"/>
    <use xlink:href="#NotoSansCJKtc-Regular-a108" transform="translate(900 0)"/>
    <use xlink:href="#NotoSansCJKtc-Regular-e6c0" transform="translate(1000 0)"/>
    <use xlink:href="#NotoSansCJKtc-Regular-69ba" transform="translate(1100 0)"/>
    <use xlink:href="#NotoSansCJKtc-Regular-2a94" transform="translate(1200 0)"/>
    <use xlink:href="#NotoSansCJKtc-Regular-73f8" transform="translate(1300 0)"/>
    <use xlink:href="#NotoSansCJKtc-Regular-a9c6" transform="translate(1400 0)"/>
    <use xlink:href="#NotoSansCJKtc-Regular-26e4" transform="translate(1500 0)"/>
    <use xlink:href="#NotoSansCJKtc-Regular-4110" transform="translate(1600 0)"/>
    <use xlink:href="#NotoSansCJKtc-Regular-59f3" transform="translate(1700 0)"/>
    <use xlink:href="#NotoSansCJKtc-Regular-5606" transform="translate(1800 0)"/>
    <use xlink:href="#NotoSansCJKtc-Regular-5d97" transform="translate(1900 0)"/>
    <use xlink:href="#NotoSansCJKtc-Regular-a9c6" transform="translate(2000 0)"/>
    <use xlink:href="#NotoSansCJKtc-Regular-5a23" transform="translate(2100 0)"/>
    <use xlink:href="#NotoSansCJKtc-Regular-a9c6" transform="translate(2200 0)"/>
    <use xlink:href="#NotoSansCJKtc-Regular-366a" transform="translate(2300 0)"/>
   </g>
  </g>
 </g>
 <defs>
  <clipPath id="p1567f58889">
   <rect x="7.2" y="78.192" width="265.017273" height="292.32"/>
  </clipPath>
  <clipPath id="p367f715b4f">
   <rect x="342.888545" y="78.192" width="441.695455" height="292.32"/>
  </clipPath>
 </defs>
</svg>
