<?xml version="1.0" encoding="utf-8" standalone="no"?>
<!DOCTYPE svg PUBLIC "-//W3C//DTD SVG 1.1//EN"
  "http://www.w3.org/Graphics/SVG/1.1/DTD/svg11.dtd">
<svg xmlns:xlink="http://www.w3.org/1999/xlink" width="679.68pt" height="328.438571pt" viewBox="0 0 679.68 328.438571" xmlns="http://www.w3.org/2000/svg" version="1.1">
 <metadata>
  <rdf:RDF xmlns:dc="http://purl.org/dc/elements/1.1/" xmlns:cc="http://creativecommons.org/ns#" xmlns:rdf="http://www.w3.org/1999/02/22-rdf-syntax-ns#">
   <cc:Work>
    <dc:type rdf:resource="http://purl.org/dc/dcmitype/StillImage"/>
    <dc:date>2026-06-17T23:55:43.634425</dc:date>
    <dc:format>image/svg+xml</dc:format>
    <dc:creator>
     <cc:Agent>
      <dc:title>Matplotlib v3.11.0, https://matplotlib.org/</dc:title>
     </cc:Agent>
    </dc:creator>
   </cc:Work>
  </rdf:RDF>
 </metadata>
 <defs>
  <style type="text/css">*{stroke-linejoin: round; stroke-linecap: butt}</style>
 </defs>
 <g id="figure_1">
  <g id="patch_1">
   <path d="M 0 328.438571 
L 679.68 328.438571 
L 679.68 0 
L 0 0 
z
" style="fill: #ffffff"/>
  </g>
  <g id="axes_1">
   <g id="patch_2">
    <path d="M -4.448571 295.029286 
L 368.305714 295.029286 
L 368.305714 268.82 
L -4.448571 268.82 
z
" clip-path="url(#pb374cd7aa2)" style="fill: url(#h0d39fd2ccf)"/>
   </g>
   <g id="line2d_1">
    <path d="M -1 268.82 
L 368.305714 268.82 
" clip-path="url(#pb374cd7aa2)" style="fill: none; stroke: #222831; stroke-width: 2; stroke-linecap: square"/>
   </g>
   <g id="patch_3">
    <path d="M 138.102385 291.364356 
L 228.522857 268.82 
L 189.070234 110.584173 
L 98.649762 133.128529 
z
" clip-path="url(#pb374cd7aa2)" style="fill: #dbe7ff; stroke: #222831; stroke-width: 1.8; stroke-linejoin: miter"/>
   </g>
   <g id="text_1">
    <!-- 重心鉛垂線落在底面內 -->
    <g style="fill: #1a7f37" transform="translate(126.928571 51.352857) scale(0.11 -0.11)">
     <defs>
      <path id="NotoSansCJKjp-Bold-a106" d="M 979 3456 
L 979 1414 
L 2784 1414 
L 2784 1133 
L 768 1133 
L 768 550 
L 2784 550 
L 2784 218 
L 294 218 
L 294 -390 
L 6125 -390 
L 6125 218 
L 3558 218 
L 3558 550 
L 5709 550 
L 5709 1133 
L 3558 1133 
L 3558 1414 
L 5466 1414 
L 5466 3456 
L 3558 3456 
L 3558 3699 
L 6080 3699 
L 6080 4301 
L 3558 4301 
L 3558 4627 
C 4262 4678 4928 4749 5491 4838 
L 5133 5434 
C 4045 5254 2310 5146 813 5120 
C 877 4966 954 4704 966 4525 
C 1542 4531 2163 4550 2784 4582 
L 2784 4301 
L 333 4301 
L 333 3699 
L 2784 3699 
L 2784 3456 
L 979 3456 
z
M 1728 2208 
L 2784 2208 
L 2784 1920 
L 1728 1920 
L 1728 2208 
z
M 3558 2208 
L 4685 2208 
L 4685 1920 
L 3558 1920 
L 3558 2208 
z
M 1728 2950 
L 2784 2950 
L 2784 2669 
L 1728 2669 
L 1728 2950 
z
M 3558 2950 
L 4685 2950 
L 4685 2669 
L 3558 2669 
L 3558 2950 
z
" transform="scale(0.015625)"/>
      <path id="NotoSansCJKjp-Bold-444f" d="M 1907 3603 
L 1907 550 
C 1907 -256 2131 -512 2957 -512 
C 3117 -512 3821 -512 3994 -512 
C 4768 -512 4979 -128 5062 1069 
C 4851 1126 4525 1261 4346 1402 
C 4301 397 4250 192 3936 192 
C 3770 192 3194 192 3059 192 
C 2752 192 2707 237 2707 550 
L 2707 3603 
L 1907 3603 
z
M 1926 4819 
C 2688 4531 3578 4026 4070 3622 
L 4576 4294 
C 4070 4672 3181 5146 2426 5414 
L 1926 4819 
z
M 755 3149 
C 672 2291 486 1459 102 909 
L 819 493 
C 1242 1126 1408 2106 1504 2995 
L 755 3149 
z
M 4435 3053 
C 4954 2342 5402 1357 5530 704 
L 6304 1088 
C 6150 1760 5690 2694 5139 3398 
L 4435 3053 
z
" transform="scale(0.015625)"/>
      <path id="NotoSansCJKjp-Bold-a209" d="M 3571 5344 
C 3450 4371 3174 3494 2656 2963 
C 2829 2861 3142 2618 3264 2490 
C 3814 3123 4160 4109 4326 5242 
L 3571 5344 
z
M 5350 5389 
L 4685 5248 
C 4877 4154 5210 3104 5760 2496 
C 5882 2694 6138 2982 6323 3117 
C 5837 3597 5510 4506 5350 5389 
z
M 422 1715 
C 531 1363 627 902 646 595 
L 1178 749 
C 1139 1043 1037 1498 922 1843 
L 422 1715 
z
M 2240 1901 
C 2195 1581 2093 1120 2003 819 
L 2464 691 
C 2566 960 2688 1382 2816 1766 
L 2240 1901 
z
M 3149 2336 
L 3149 -570 
L 3840 -570 
L 3840 -192 
L 5197 -192 
L 5197 -544 
L 5933 -544 
L 5933 2336 
L 3149 2336 
z
M 3840 499 
L 3840 1645 
L 5197 1645 
L 5197 499 
L 3840 499 
z
M 1267 5440 
C 1050 4934 653 4333 77 3878 
C 230 3770 448 3520 550 3360 
L 646 3443 
L 646 3206 
L 1267 3206 
L 1267 2739 
L 371 2739 
L 371 2086 
L 1267 2086 
L 1267 397 
L 269 250 
L 422 -435 
C 1107 -320 2022 -160 2867 0 
L 2829 646 
L 1933 499 
L 1933 2086 
L 2778 2086 
L 2778 2739 
L 1933 2739 
L 1933 3206 
L 2643 3206 
L 2643 3827 
L 3034 4288 
C 2790 4634 2291 5107 1894 5440 
L 1267 5440 
z
M 1043 3846 
C 1306 4141 1517 4442 1690 4717 
C 1958 4454 2253 4115 2438 3846 
L 1043 3846 
z
" transform="scale(0.015625)"/>
      <path id="NotoSansCJKjp-Bold-3448" d="M 5165 5421 
C 4064 5190 2221 5069 614 5037 
C 691 4870 774 4576 794 4384 
C 1427 4390 2112 4410 2790 4454 
L 2790 4019 
L 627 4019 
L 627 3334 
L 1306 3334 
L 1306 2784 
L 301 2784 
L 301 2086 
L 1306 2086 
L 1306 1498 
L 582 1498 
L 582 813 
L 2790 813 
L 2790 307 
L 397 307 
L 397 -384 
L 6022 -384 
L 6022 307 
L 3558 307 
L 3558 813 
L 5856 813 
L 5856 1498 
L 5094 1498 
L 5094 2086 
L 6106 2086 
L 6106 2784 
L 5094 2784 
L 5094 3334 
L 5811 3334 
L 5811 4019 
L 3558 4019 
L 3558 4506 
C 4339 4576 5082 4672 5709 4800 
L 5165 5421 
z
M 2790 2086 
L 2790 1498 
L 2061 1498 
L 2061 2086 
L 2790 2086 
z
M 3558 2086 
L 4326 2086 
L 4326 1498 
L 3558 1498 
L 3558 2086 
z
M 2790 2784 
L 2061 2784 
L 2061 3334 
L 2790 3334 
L 2790 2784 
z
M 3558 2784 
L 3558 3334 
L 4326 3334 
L 4326 2784 
L 3558 2784 
z
" transform="scale(0.015625)"/>
      <path id="NotoSansCJKjp-Bold-7a17" d="M 3494 3328 
L 5216 3328 
L 5216 2989 
L 3494 2989 
L 3494 3328 
z
M 3494 4211 
L 5216 4211 
L 5216 3878 
L 3494 3878 
L 3494 4211 
z
M 1830 1536 
C 1965 1178 2086 717 2112 416 
L 2682 595 
C 2637 896 2515 1350 2362 1696 
L 1830 1536 
z
M 416 1677 
C 365 1133 269 557 83 179 
C 237 122 518 -6 646 -90 
C 826 320 960 954 1030 1568 
L 416 1677 
z
M 141 2630 
L 218 1965 
L 1114 2035 
L 1114 -576 
L 1779 -576 
L 1779 2086 
L 2086 2112 
C 2131 1971 2163 1850 2182 1741 
L 2637 1939 
L 2637 1338 
L 3251 1338 
C 3040 826 2701 429 2272 198 
C 2413 96 2650 -166 2746 -314 
C 3341 58 3814 730 4045 1702 
L 4045 166 
C 4045 96 4026 77 3942 77 
C 3872 77 3635 77 3418 83 
C 3494 -102 3578 -378 3603 -570 
C 3994 -570 4269 -563 4474 -454 
C 4678 -352 4730 -166 4730 160 
L 4730 890 
C 4986 416 5350 -32 5856 -307 
C 5952 -122 6176 173 6310 307 
C 5901 486 5587 762 5344 1082 
C 5619 1280 5926 1542 6221 1786 
L 5600 2246 
C 5453 2054 5229 1818 5011 1606 
C 4890 1850 4800 2106 4730 2349 
L 4730 2400 
L 5939 2400 
L 5939 4800 
L 4614 4800 
C 4710 4960 4813 5139 4902 5318 
L 4032 5446 
C 3981 5254 3898 5018 3808 4800 
L 2803 4800 
L 2803 2400 
L 4045 2400 
L 4045 1830 
L 3661 1984 
L 3546 1971 
L 2707 1971 
L 2765 1997 
C 2688 2368 2438 2931 2189 3360 
L 1651 3142 
C 1722 3014 1792 2874 1856 2726 
L 1293 2694 
C 1702 3206 2138 3846 2496 4390 
L 1869 4672 
C 1715 4358 1510 3994 1286 3629 
C 1229 3712 1158 3795 1088 3885 
C 1312 4243 1581 4755 1811 5197 
L 1146 5434 
C 1043 5101 864 4672 685 4314 
L 538 4454 
L 160 3936 
C 422 3674 710 3322 890 3040 
L 608 2656 
L 141 2630 
z
" transform="scale(0.015625)"/>
      <path id="NotoSansCJKjp-Bold-86fd" d="M 307 26 
L 851 -570 
C 1261 -109 1683 429 2048 915 
L 1600 1478 
C 1171 934 659 365 307 26 
z
M 595 3578 
C 941 3379 1446 3078 1683 2893 
L 2144 3475 
C 1882 3648 1370 3923 1037 4096 
L 595 3578 
z
M 192 2317 
C 550 2112 1037 1805 1274 1606 
L 1741 2189 
C 1491 2381 979 2662 640 2835 
L 192 2317 
z
M 3174 4134 
C 2886 3680 2387 3117 1747 2688 
C 1914 2592 2157 2381 2278 2227 
C 2490 2387 2682 2560 2861 2733 
C 3034 2598 3213 2470 3411 2342 
C 2886 2112 2310 1939 1754 1830 
C 1888 1683 2054 1395 2125 1222 
L 2381 1286 
L 2381 -563 
L 3110 -563 
L 3110 -307 
L 4819 -307 
L 4819 -563 
L 5574 -563 
L 5574 1395 
L 5843 1325 
C 5952 1504 6150 1792 6310 1939 
C 5805 2042 5286 2189 4806 2381 
C 5222 2682 5581 3034 5837 3437 
L 5350 3738 
L 5235 3699 
L 3706 3699 
L 3910 3987 
L 3174 4134 
z
M 3110 282 
L 3110 858 
L 4819 858 
L 4819 282 
L 3110 282 
z
M 3379 3142 
L 4704 3142 
C 4525 2982 4320 2835 4090 2694 
C 3821 2835 3578 2989 3379 3142 
z
M 5414 1440 
L 2886 1440 
C 3309 1581 3725 1747 4109 1952 
C 4531 1747 4973 1574 5414 1440 
z
M 352 5082 
L 352 4403 
L 1696 4403 
L 1696 3987 
L 2445 3987 
L 2445 4403 
L 3917 4403 
L 3917 3987 
L 4666 3987 
L 4666 4403 
L 6048 4403 
L 6048 5082 
L 4666 5082 
L 4666 5440 
L 3917 5440 
L 3917 5082 
L 2445 5082 
L 2445 5440 
L 1696 5440 
L 1696 5082 
L 352 5082 
z
" transform="scale(0.015625)"/>
      <path id="NotoSansCJKjp-Bold-33c7" d="M 2374 5440 
C 2298 5146 2202 4845 2086 4550 
L 352 4550 
L 352 3814 
L 1747 3814 
C 1357 3072 826 2400 147 1958 
C 269 1773 442 1434 525 1222 
C 730 1363 915 1510 1094 1677 
L 1094 -563 
L 1869 -563 
L 1869 2547 
C 2157 2938 2406 3366 2618 3814 
L 6061 3814 
L 6061 4550 
L 2931 4550 
C 3021 4781 3104 5018 3174 5248 
L 2374 5440 
z
M 3744 3539 
L 3744 2477 
L 2438 2477 
L 2438 1766 
L 3744 1766 
L 3744 301 
L 2195 301 
L 2195 -410 
L 6042 -410 
L 6042 301 
L 4518 301 
L 4518 1766 
L 5798 1766 
L 5798 2477 
L 4518 2477 
L 4518 3539 
L 3744 3539 
z
" transform="scale(0.015625)"/>
      <path id="NotoSansCJKjp-Bold-4213" d="M 1555 192 
L 1555 -467 
L 4282 -467 
L 4282 192 
L 1555 192 
z
M 5043 4122 
C 4435 3930 3456 3763 2547 3667 
L 1978 3821 
L 1978 1126 
L 1478 1082 
L 1562 390 
C 2221 474 3117 570 3955 672 
L 3936 1331 
L 2707 1197 
L 2707 1946 
L 3930 1946 
C 4128 582 4570 -410 5331 -410 
C 5843 -416 6080 -186 6170 774 
C 5984 838 5728 979 5574 1126 
C 5555 570 5504 314 5382 314 
C 5082 314 4819 986 4672 1946 
L 6106 1946 
L 6106 2611 
L 4602 2611 
C 4582 2842 4570 3085 4563 3328 
C 4941 3398 5293 3482 5606 3578 
L 5043 4122 
z
M 2707 2611 
L 2707 3085 
C 3066 3117 3443 3155 3814 3206 
L 3853 2611 
L 2707 2611 
z
M 710 4838 
L 710 3034 
C 710 2093 666 755 134 -160 
C 307 -237 634 -454 762 -582 
C 1350 416 1446 1990 1446 3034 
L 1446 4154 
L 6144 4154 
L 6144 4838 
L 3802 4838 
L 3802 5440 
L 3002 5440 
L 3002 4838 
L 710 4838 
z
" transform="scale(0.015625)"/>
      <path id="NotoSansCJKjp-Bold-aaab" d="M 2662 2016 
L 3648 2016 
L 3648 1536 
L 2662 1536 
L 2662 2016 
z
M 2662 2618 
L 2662 3066 
L 3648 3066 
L 3648 2618 
L 2662 2618 
z
M 2662 934 
L 3648 934 
L 3648 461 
L 2662 461 
L 2662 934 
z
M 320 5069 
L 320 4346 
L 2662 4346 
C 2637 4154 2598 3955 2566 3770 
L 582 3770 
L 582 -576 
L 1325 -576 
L 1325 -250 
L 5030 -250 
L 5030 -576 
L 5811 -576 
L 5811 3770 
L 3366 3770 
L 3546 4346 
L 6106 4346 
L 6106 5069 
L 320 5069 
z
M 1325 461 
L 1325 3066 
L 1978 3066 
L 1978 461 
L 1325 461 
z
M 5030 461 
L 4339 461 
L 4339 3066 
L 5030 3066 
L 5030 461 
z
" transform="scale(0.015625)"/>
      <path id="NotoSansCJKjp-Bold-2a90" d="M 5030 3258 
L 5030 1658 
C 4416 1997 4038 2554 3814 3258 
L 5030 3258 
z
M 1773 5178 
L 1773 4506 
L 2854 4506 
L 2906 4006 
L 627 4006 
L 627 -576 
L 1408 -576 
L 1408 1344 
C 1542 1197 1683 1011 1754 883 
C 2477 1267 2931 1862 3219 2662 
C 3488 1926 3923 1325 4595 928 
C 4691 1088 4877 1318 5030 1478 
L 5030 326 
C 5030 230 4992 192 4877 192 
C 4755 192 4326 192 3968 205 
C 4077 0 4198 -352 4230 -570 
C 4787 -570 5184 -563 5466 -442 
C 5734 -314 5818 -96 5818 320 
L 5818 4006 
L 3642 4006 
C 3578 4371 3539 4768 3526 5178 
L 1773 5178 
z
M 1408 1587 
L 1408 3258 
L 2650 3258 
C 2432 2509 2035 1939 1408 1587 
z
" transform="scale(0.015625)"/>
     </defs>
     <use xlink:href="#NotoSansCJKjp-Bold-a106"/>
     <use xlink:href="#NotoSansCJKjp-Bold-444f" transform="translate(100 0)"/>
     <use xlink:href="#NotoSansCJKjp-Bold-a209" transform="translate(200 0)"/>
     <use xlink:href="#NotoSansCJKjp-Bold-3448" transform="translate(300 0)"/>
     <use xlink:href="#NotoSansCJKjp-Bold-7a17" transform="translate(400 0)"/>
     <use xlink:href="#NotoSansCJKjp-Bold-86fd" transform="translate(500 0)"/>
     <use xlink:href="#NotoSansCJKjp-Bold-33c7" transform="translate(600 0)"/>
     <use xlink:href="#NotoSansCJKjp-Bold-4213" transform="translate(700 0)"/>
     <use xlink:href="#NotoSansCJKjp-Bold-aaab" transform="translate(800 0)"/>
     <use xlink:href="#NotoSansCJKjp-Bold-2a90" transform="translate(900 0)"/>
    </g>
    <!-- → 回正（穩定） -->
    <g style="fill: #1a7f37" transform="translate(142.1799 62.352857) scale(0.11 -0.11)">
     <defs>
      <path id="NotoSansCJKjp-Bold-31c" d="M 4781 2758 
L 256 2758 
L 256 2106 
L 4781 2106 
C 4506 1907 4166 1555 3930 1229 
L 4506 909 
C 4947 1472 5600 2054 6176 2432 
C 5600 2810 4947 3392 4506 3955 
L 3930 3635 
C 4166 3309 4506 2957 4781 2758 
z
" transform="scale(0.015625)"/>
      <path id="NotoSansCJKjp-Bold-1" transform="scale(0.015625)"/>
      <path id="NotoSansCJKjp-Bold-3351" d="M 2592 3014 
L 3718 3014 
L 3718 1901 
L 2592 1901 
L 2592 3014 
z
M 1869 3686 
L 1869 1235 
L 4493 1235 
L 4493 3686 
L 1869 3686 
z
M 454 5222 
L 454 -570 
L 1254 -570 
L 1254 -224 
L 5114 -224 
L 5114 -570 
L 5952 -570 
L 5952 5222 
L 454 5222 
z
M 1254 493 
L 1254 4435 
L 5114 4435 
L 5114 493 
L 1254 493 
z
" transform="scale(0.015625)"/>
      <path id="NotoSansCJKjp-Bold-585c" d="M 1075 3277 
L 1075 416 
L 282 416 
L 282 -333 
L 6131 -333 
L 6131 416 
L 3802 416 
L 3802 2112 
L 5626 2112 
L 5626 2861 
L 3802 2861 
L 3802 4275 
L 5952 4275 
L 5952 5024 
L 499 5024 
L 499 4275 
L 2989 4275 
L 2989 416 
L 1875 416 
L 1875 3277 
L 1075 3277 
z
" transform="scale(0.015625)"/>
      <path id="NotoSansCJKjp-Bold-e6ae" d="M 4243 2432 
C 4243 1062 4813 38 5504 -640 
L 6112 -371 
C 5472 320 4966 1203 4966 2432 
C 4966 3661 5472 4544 6112 5235 
L 5504 5504 
C 4813 4826 4243 3802 4243 2432 
z
" transform="scale(0.015625)"/>
      <path id="NotoSansCJKjp-Bold-72b7" d="M 2547 819 
C 2464 454 2291 26 2080 -243 
L 2650 -518 
C 2867 -224 3008 224 3110 614 
L 2547 819 
z
M 3763 4646 
C 3827 4474 3885 4250 3898 4090 
L 2995 4090 
L 2995 3622 
L 3878 3622 
L 3878 3386 
L 2490 3386 
L 2490 2912 
L 6048 2912 
L 6048 3386 
L 4589 3386 
L 4589 3622 
L 5446 3622 
L 5446 4077 
C 5523 3955 5581 3846 5626 3750 
L 6157 4058 
C 6035 4294 5792 4627 5536 4896 
L 5850 4960 
L 5370 5408 
C 4858 5286 4013 5190 3232 5133 
L 2746 5242 
C 2624 4800 2400 4339 2125 4038 
C 2285 3955 2566 3782 2688 3680 
C 2893 3923 3085 4275 3238 4653 
C 3507 4666 3782 4685 4058 4704 
L 3763 4646 
z
M 4934 4736 
C 5114 4550 5293 4314 5440 4090 
L 4064 4090 
L 4506 4198 
C 4480 4346 4416 4563 4352 4730 
C 4608 4755 4864 4787 5107 4826 
L 4934 4736 
z
M 1926 5325 
C 1504 5126 813 4960 192 4864 
C 269 4710 371 4461 397 4307 
C 589 4333 800 4358 1005 4397 
L 1005 3622 
L 243 3622 
L 243 2931 
L 922 2931 
C 730 2310 416 1613 109 1190 
C 218 998 390 678 454 461 
C 653 749 838 1146 1005 1581 
L 1005 -576 
L 1722 -576 
L 1722 2061 
C 1856 1824 1990 1574 2061 1408 
L 2419 1920 
L 2419 1696 
L 5024 1696 
L 5024 1466 
L 2720 1466 
L 2720 1030 
L 3763 1030 
L 3635 915 
L 3808 806 
L 3187 806 
L 3187 160 
C 3187 -384 3328 -557 3968 -557 
C 4096 -557 4550 -557 4685 -557 
C 5114 -557 5293 -416 5357 102 
C 5498 -115 5613 -339 5677 -512 
L 6266 -205 
C 6131 109 5830 550 5523 877 
L 4979 614 
C 5101 474 5222 314 5325 147 
C 5158 186 4915 275 4794 352 
C 4774 51 4742 0 4602 0 
C 4499 0 4141 0 4064 0 
C 3878 0 3853 19 3853 166 
L 3853 774 
C 4064 627 4275 442 4390 307 
L 4794 704 
C 4698 800 4557 922 4410 1030 
L 5690 1030 
L 5690 1658 
L 6157 1658 
L 6157 2163 
L 5690 2163 
L 5690 2733 
L 2739 2733 
L 2739 2298 
L 5024 2298 
L 5024 2099 
L 2419 2099 
L 2419 2048 
C 2272 2246 1869 2726 1722 2874 
L 1722 2931 
L 2310 2931 
L 2310 3622 
L 1722 3622 
L 1722 4544 
C 1965 4608 2202 4685 2413 4768 
L 1926 5325 
z
" transform="scale(0.015625)"/>
      <path id="NotoSansCJKjp-Bold-3c8a" d="M 1267 2419 
C 1152 1312 838 422 141 -90 
C 320 -205 646 -474 774 -614 
C 1139 -301 1421 109 1632 608 
C 2214 -314 3098 -512 4288 -512 
L 5894 -512 
C 5933 -275 6054 90 6170 275 
C 5734 256 4672 256 4326 256 
C 4070 256 3827 269 3597 294 
L 3597 1254 
L 5357 1254 
L 5357 1971 
L 3597 1971 
L 3597 2771 
L 4966 2771 
L 4966 3507 
L 1427 3507 
L 1427 2771 
L 2797 2771 
L 2797 518 
C 2419 698 2118 1005 1920 1517 
C 1984 1773 2029 2048 2067 2336 
L 1267 2419 
z
M 454 4781 
L 454 3174 
L 1210 3174 
L 1210 4058 
L 5165 4058 
L 5165 3174 
L 5952 3174 
L 5952 4781 
L 3603 4781 
L 3603 5427 
L 2784 5427 
L 2784 4781 
L 454 4781 
z
" transform="scale(0.015625)"/>
      <path id="NotoSansCJKjp-Bold-e6af" d="M 2157 2432 
C 2157 3802 1587 4826 896 5504 
L 288 5235 
C 928 4544 1434 3661 1434 2432 
C 1434 1203 928 320 288 -371 
L 896 -640 
C 1587 38 2157 1062 2157 2432 
z
" transform="scale(0.015625)"/>
     </defs>
     <use xlink:href="#NotoSansCJKjp-Bold-31c"/>
     <use xlink:href="#NotoSansCJKjp-Bold-1" transform="translate(100 0)"/>
     <use xlink:href="#NotoSansCJKjp-Bold-3351" transform="translate(122.703125 0)"/>
     <use xlink:href="#NotoSansCJKjp-Bold-585c" transform="translate(222.703125 0)"/>
     <use xlink:href="#NotoSansCJKjp-Bold-e6ae" transform="translate(322.703125 0)"/>
     <use xlink:href="#NotoSansCJKjp-Bold-72b7" transform="translate(422.703125 0)"/>
     <use xlink:href="#NotoSansCJKjp-Bold-3c8a" transform="translate(522.703125 0)"/>
     <use xlink:href="#NotoSansCJKjp-Bold-e6af" transform="translate(622.703125 0)"/>
    </g>
   </g>
   <g id="text_2">
    <!-- 傾斜不大 -->
    <g style="fill: #222831" transform="translate(145.28 18.2) scale(0.125 -0.125)">
     <defs>
      <path id="NotoSansCJKjp-Regular-295d" d="M 3789 2746 
L 5491 2746 
L 5491 2106 
L 3789 2106 
L 3789 2746 
z
M 3789 1747 
L 5491 1747 
L 5491 1101 
L 3789 1101 
L 3789 1747 
z
M 3789 3738 
L 5491 3738 
L 5491 3110 
L 3789 3110 
L 3789 3738 
z
M 3930 582 
C 3667 301 3130 -38 2656 -224 
C 2758 -307 2906 -448 2976 -538 
C 3456 -346 4006 6 4346 339 
L 3930 582 
z
M 4870 320 
C 5222 70 5658 -294 5875 -525 
L 6246 -262 
C 6029 -26 5581 320 5235 557 
L 4870 320 
z
M 1882 4717 
L 1882 1133 
C 1882 640 1978 493 2374 493 
C 2458 493 2746 493 2829 493 
C 3194 493 3296 768 3328 1645 
C 3206 1677 3034 1747 2938 1830 
C 2925 1069 2906 909 2784 909 
C 2726 909 2496 909 2438 909 
C 2330 909 2310 941 2310 1133 
L 2310 2630 
C 2618 2874 3008 3226 3315 3539 
L 2989 3846 
C 2816 3635 2560 3360 2310 3123 
L 2310 4717 
L 1882 4717 
z
M 1389 5338 
C 1101 4352 634 3379 109 2739 
C 186 2618 307 2362 346 2246 
C 550 2496 749 2797 934 3123 
L 934 -525 
L 1370 -525 
L 1370 3994 
C 1542 4390 1696 4806 1824 5222 
L 1389 5338 
z
M 3366 4115 
L 3366 723 
L 5933 723 
L 5933 4115 
L 4691 4115 
L 4890 4653 
L 6144 4653 
L 6144 5069 
L 3066 5069 
L 3066 4653 
L 4390 4653 
C 4352 4480 4294 4288 4243 4115 
L 3366 4115 
z
" transform="scale(0.015625)"/>
      <path id="NotoSansCJKjp-Regular-4e67" d="M 2438 1606 
C 2669 1184 2899 627 2976 275 
L 3373 448 
C 3290 787 3053 1331 2816 1747 
L 2438 1606 
z
M 794 1734 
C 672 1216 454 678 186 314 
C 294 262 480 147 563 77 
C 832 467 1082 1069 1229 1638 
L 794 1734 
z
M 3379 3059 
C 3770 2816 4224 2432 4429 2163 
L 4755 2477 
C 4544 2746 4077 3110 3693 3341 
L 3379 3059 
z
M 3603 4659 
C 3974 4390 4397 3987 4589 3706 
L 4934 4006 
C 4736 4282 4307 4666 3930 4922 
L 3603 4659 
z
M 1581 5376 
C 1318 4768 813 4000 96 3430 
C 198 3360 346 3200 416 3098 
C 557 3213 691 3341 813 3462 
L 813 3232 
L 1664 3232 
L 1664 2541 
L 326 2541 
L 326 2106 
L 1664 2106 
L 1664 26 
C 1664 -58 1638 -77 1555 -83 
C 1472 -83 1210 -83 915 -77 
C 979 -205 1050 -390 1069 -518 
C 1485 -518 1741 -506 1901 -429 
C 2067 -358 2125 -230 2125 19 
L 2125 2106 
L 3283 2106 
L 3283 2541 
L 2125 2541 
L 2125 3232 
L 2957 3232 
L 2957 3661 
L 998 3661 
C 1376 4083 1664 4518 1875 4896 
C 2291 4538 2746 4026 2970 3699 
L 3334 4090 
C 3053 4461 2496 4998 2042 5376 
L 1581 5376 
z
M 3290 1331 
L 3392 883 
L 5069 1242 
L 5069 -499 
L 5542 -499 
L 5542 1344 
L 6227 1491 
L 6131 1933 
L 5542 1811 
L 5542 5370 
L 5069 5370 
L 5069 1709 
L 3290 1331 
z
" transform="scale(0.015625)"/>
      <path id="NotoSansCJKjp-Regular-2518" d="M 3578 3059 
C 4339 2547 5299 1792 5754 1299 
L 6144 1670 
C 5664 2163 4691 2880 3936 3366 
L 3578 3059 
z
M 442 4928 
L 442 4435 
L 3290 4435 
C 2656 3341 1555 2259 282 1632 
C 384 1523 531 1331 608 1210 
C 1498 1677 2291 2336 2938 3078 
L 2938 -499 
L 3456 -499 
L 3456 3738 
C 3622 3962 3770 4198 3904 4435 
L 5958 4435 
L 5958 4928 
L 442 4928 
z
" transform="scale(0.015625)"/>
      <path id="NotoSansCJKjp-Regular-36fb" d="M 2950 5370 
C 2944 4864 2950 4218 2854 3539 
L 397 3539 
L 397 3046 
L 2771 3046 
C 2515 1830 1875 589 275 -102 
C 410 -205 563 -378 640 -499 
C 2202 218 2893 1446 3206 2682 
C 3706 1222 4531 90 5773 -499 
C 5856 -358 6010 -160 6131 -51 
C 4890 467 4051 1632 3603 3046 
L 6029 3046 
L 6029 3539 
L 3366 3539 
C 3456 4211 3462 4851 3469 5370 
L 2950 5370 
z
" transform="scale(0.015625)"/>
     </defs>
     <use xlink:href="#NotoSansCJKjp-Regular-295d"/>
     <use xlink:href="#NotoSansCJKjp-Regular-4e67" transform="translate(100 0)"/>
     <use xlink:href="#NotoSansCJKjp-Regular-2518" transform="translate(200 0)"/>
     <use xlink:href="#NotoSansCJKjp-Regular-36fb" transform="translate(300 0)"/>
    </g>
   </g>
   <g id="line2d_2">
    <path d="M 163.586309 200.974264 
L 163.586309 268.82 
" clip-path="url(#pb374cd7aa2)" style="fill: none; stroke-dasharray: 1.3,2.145; stroke-dashoffset: 0; stroke: #d1242f; stroke-width: 1.3"/>
   </g>
   <g id="patch_4">
    <path d="M 163.586309 200.974264 
Q 163.586309 238.832122 163.586309 274.006697 
" clip-path="url(#pb374cd7aa2)" style="fill: none; stroke: #d1242f; stroke-width: 2.4; stroke-linecap: round"/>
    <path d="M 167.186309 266.806697 
L 163.586309 274.006697 
L 159.986309 266.806697 
z
" clip-path="url(#pb374cd7aa2)" style="fill: #d1242f; stroke: #d1242f; stroke-width: 2.4; stroke-linecap: round"/>
   </g>
   <g id="line2d_3">
    <path d="M 138.102385 268.82 
L 228.522857 268.82 
" clip-path="url(#pb374cd7aa2)" style="fill: none; stroke: #1a7f37; stroke-width: 4"/>
   </g>
   <g id="patch_5">
    <path d="M 163.586309 206.79855 
C 165.130928 206.79855 166.612491 206.184867 167.704701 205.092656 
C 168.796912 204.000446 169.410595 202.518883 169.410595 200.974264 
C 169.410595 199.429646 168.796912 197.948083 167.704701 196.855872 
C 166.612491 195.763662 165.130928 195.149979 163.586309 195.149979 
C 162.041691 195.149979 160.560128 195.763662 159.467918 196.855872 
C 158.375707 197.948083 157.762024 199.429646 157.762024 200.974264 
C 157.762024 202.518883 158.375707 204.000446 159.467918 205.092656 
C 160.560128 206.184867 162.041691 206.79855 163.586309 206.79855 
z
" clip-path="url(#pb374cd7aa2)" style="fill: #ffffff; stroke: #d1242f; stroke-width: 1.8; stroke-linejoin: miter"/>
   </g>
   <g id="text_3">
    <!-- 重心 -->
    <g style="fill: #d1242f" transform="translate(182.224024 199.329979) scale(0.11 -0.11)">
     <defs>
      <path id="NotoSansCJKjp-Regular-a106" d="M 1018 3456 
L 1018 1466 
L 2938 1466 
L 2938 1024 
L 813 1024 
L 813 640 
L 2938 640 
L 2938 83 
L 333 83 
L 333 -307 
L 6074 -307 
L 6074 83 
L 3418 83 
L 3418 640 
L 5670 640 
L 5670 1024 
L 3418 1024 
L 3418 1466 
L 5427 1466 
L 5427 3456 
L 3418 3456 
L 3418 3846 
L 6042 3846 
L 6042 4243 
L 3418 4243 
L 3418 4736 
C 4166 4794 4870 4870 5421 4966 
L 5165 5338 
C 4154 5158 2342 5037 851 4998 
C 896 4902 947 4730 954 4621 
C 1581 4634 2266 4659 2938 4698 
L 2938 4243 
L 371 4243 
L 371 3846 
L 2938 3846 
L 2938 3456 
L 1018 3456 
z
M 1485 2304 
L 2938 2304 
L 2938 1818 
L 1485 1818 
L 1485 2304 
z
M 3418 2304 
L 4941 2304 
L 4941 1818 
L 3418 1818 
L 3418 2304 
z
M 1485 3110 
L 2938 3110 
L 2938 2630 
L 1485 2630 
L 1485 3110 
z
M 3418 3110 
L 4941 3110 
L 4941 2630 
L 3418 2630 
L 3418 3110 
z
" transform="scale(0.015625)"/>
      <path id="NotoSansCJKjp-Regular-444f" d="M 1952 3590 
L 1952 378 
C 1952 -250 2144 -429 2829 -429 
C 2970 -429 3923 -429 4077 -429 
C 4774 -429 4928 -70 4998 1139 
C 4858 1178 4659 1267 4544 1357 
C 4493 250 4435 19 4051 19 
C 3834 19 3034 19 2867 19 
C 2515 19 2445 70 2445 371 
L 2445 3590 
L 1952 3590 
z
M 2003 4979 
C 2771 4704 3706 4224 4198 3859 
L 4512 4282 
C 4006 4621 3072 5088 2304 5350 
L 2003 4979 
z
M 883 3072 
C 787 2240 582 1306 154 742 
L 589 486 
C 1043 1101 1248 2118 1344 2976 
L 883 3072 
z
M 4614 3072 
C 5152 2349 5632 1350 5779 678 
L 6253 902 
C 6099 1581 5619 2554 5043 3283 
L 4614 3072 
z
" transform="scale(0.015625)"/>
     </defs>
     <use xlink:href="#NotoSansCJKjp-Regular-a106"/>
     <use xlink:href="#NotoSansCJKjp-Regular-444f" transform="translate(100 0)"/>
    </g>
   </g>
   <g id="patch_6">
    <path d="M 163.586309 272.897 
C 164.667543 272.897 165.704637 272.467422 166.469184 271.702874 
C 167.233731 270.938327 167.663309 269.901233 167.663309 268.82 
C 167.663309 267.738767 167.233731 266.701673 166.469184 265.937126 
C 165.704637 265.172578 164.667543 264.743 163.586309 264.743 
C 162.505076 264.743 161.467982 265.172578 160.703435 265.937126 
C 159.938888 266.701673 159.509309 267.738767 159.509309 268.82 
C 159.509309 269.901233 159.938888 270.938327 160.703435 271.702874 
C 161.467982 272.467422 162.505076 272.897 163.586309 272.897 
z
" clip-path="url(#pb374cd7aa2)" style="fill: #d1242f; stroke: #d1242f; stroke-linejoin: miter"/>
   </g>
   <g id="text_4">
    <!-- 支撐底面 -->
    <g style="fill: #1a7f37" transform="translate(161.312621 310.857857) scale(0.11 -0.11)">
     <defs>
      <path id="NotoSansCJKjp-Regular-4db9" d="M 2938 5376 
L 2938 4397 
L 493 4397 
L 493 3923 
L 2938 3923 
L 2938 2931 
L 787 2931 
L 787 2464 
L 1811 2464 
L 1421 2323 
C 1747 1664 2189 1126 2746 691 
C 2016 326 1158 90 250 -51 
C 346 -160 474 -384 518 -512 
C 1478 -333 2400 -51 3187 384 
C 3917 -64 4806 -371 5850 -531 
C 5920 -390 6048 -186 6157 -70 
C 5190 58 4352 307 3654 678 
C 4390 1184 4973 1862 5338 2758 
L 5005 2950 
L 4915 2931 
L 3437 2931 
L 3437 3923 
L 5894 3923 
L 5894 4397 
L 3437 4397 
L 3437 5376 
L 2938 5376 
z
M 1875 2464 
L 4640 2464 
C 4314 1830 3821 1331 3213 954 
C 2624 1350 2176 1856 1875 2464 
z
" transform="scale(0.015625)"/>
      <path id="NotoSansCJKjp-Regular-4c75" d="M 3270 3334 
L 5114 3334 
L 5114 2758 
L 3270 2758 
L 3270 3334 
z
M 2848 3686 
L 2848 2413 
L 5562 2413 
L 5562 3686 
L 2848 3686 
z
M 5338 5286 
C 5242 5056 5062 4723 4922 4499 
L 5011 4467 
L 4378 4467 
L 4378 5376 
L 3910 5376 
L 3910 4467 
L 3309 4467 
L 3418 4512 
C 3341 4723 3168 5043 2982 5267 
L 2605 5126 
C 2746 4934 2886 4678 2963 4467 
L 2330 4467 
L 2330 3418 
L 2746 3418 
L 2746 4083 
L 5651 4083 
L 5651 3418 
L 6074 3418 
L 6074 4467 
L 5363 4467 
C 5498 4659 5651 4902 5792 5139 
L 5338 5286 
z
M 2714 2112 
L 2714 1210 
L 2182 1210 
L 2182 813 
L 4230 813 
C 3654 416 2810 77 2054 -58 
C 2150 -160 2259 -320 2317 -442 
C 3187 -224 4186 237 4781 755 
L 4781 -32 
C 4781 -102 4762 -122 4672 -128 
C 4582 -128 4301 -128 3974 -122 
C 4032 -243 4096 -410 4122 -531 
C 4550 -531 4826 -531 4998 -461 
C 5178 -390 5229 -275 5229 -38 
L 5229 813 
L 6086 813 
L 6086 1210 
L 5229 1210 
L 5229 1741 
L 5907 1741 
L 5907 2112 
L 2714 2112 
z
M 3155 1210 
L 3155 1741 
L 4781 1741 
L 4781 1210 
L 3155 1210 
z
M 1069 5370 
L 1069 4083 
L 269 4083 
L 269 3635 
L 1069 3635 
L 1069 2323 
L 179 2054 
L 301 1594 
L 1069 1843 
L 1069 45 
C 1069 -45 1037 -70 960 -70 
C 883 -77 634 -77 358 -64 
C 416 -198 480 -397 493 -512 
C 902 -518 1146 -499 1299 -422 
C 1459 -352 1517 -218 1517 45 
L 1517 1990 
L 2221 2221 
L 2150 2662 
L 1517 2464 
L 1517 3635 
L 2195 3635 
L 2195 4083 
L 1517 4083 
L 1517 5370 
L 1069 5370 
z
" transform="scale(0.015625)"/>
      <path id="NotoSansCJKjp-Regular-4213" d="M 1446 26 
L 1446 -403 
L 4314 -403 
L 4314 26 
L 1446 26 
z
M 5139 4122 
C 4493 3930 3360 3750 2349 3648 
L 1997 3750 
L 1997 902 
L 1382 838 
L 1440 397 
C 2118 480 3078 589 3994 710 
L 3987 1133 
L 2451 954 
L 2451 2099 
L 3987 2099 
C 4179 634 4634 -358 5446 -358 
C 5869 -365 6042 -115 6112 781 
C 5990 819 5824 909 5722 998 
C 5696 358 5638 96 5478 96 
C 4973 90 4614 870 4448 2099 
L 6067 2099 
L 6067 2528 
L 4403 2528 
C 4378 2835 4358 3168 4352 3514 
C 4781 3590 5178 3680 5510 3776 
L 5139 4122 
z
M 2451 2528 
L 2451 3264 
C 2912 3309 3411 3366 3885 3437 
C 3891 3123 3910 2816 3942 2528 
L 2451 2528 
z
M 774 4730 
L 774 2880 
C 774 1952 730 646 198 -269 
C 314 -320 512 -448 595 -531 
C 1152 435 1235 1888 1235 2880 
L 1235 4294 
L 6093 4294 
L 6093 4730 
L 3635 4730 
L 3635 5376 
L 3142 5376 
L 3142 4730 
L 774 4730 
z
" transform="scale(0.015625)"/>
      <path id="NotoSansCJKjp-Regular-aaab" d="M 2490 2138 
L 3846 2138 
L 3846 1414 
L 2490 1414 
L 2490 2138 
z
M 2490 2528 
L 2490 3238 
L 3846 3238 
L 3846 2528 
L 2490 2528 
z
M 2490 1024 
L 3846 1024 
L 3846 275 
L 2490 275 
L 2490 1024 
z
M 371 4954 
L 371 4493 
L 2842 4493 
C 2797 4230 2726 3930 2662 3686 
L 666 3686 
L 666 -512 
L 1126 -512 
L 1126 -173 
L 5248 -173 
L 5248 -512 
L 5734 -512 
L 5734 3686 
L 3155 3686 
L 3405 4493 
L 6048 4493 
L 6048 4954 
L 371 4954 
z
M 1126 275 
L 1126 3238 
L 2048 3238 
L 2048 275 
L 1126 275 
z
M 5248 275 
L 4288 275 
L 4288 3238 
L 5248 3238 
L 5248 275 
z
" transform="scale(0.015625)"/>
     </defs>
     <use xlink:href="#NotoSansCJKjp-Regular-4db9"/>
     <use xlink:href="#NotoSansCJKjp-Regular-4c75" transform="translate(100 0)"/>
     <use xlink:href="#NotoSansCJKjp-Regular-4213" transform="translate(200 0)"/>
     <use xlink:href="#NotoSansCJKjp-Regular-aaab" transform="translate(300 0)"/>
    </g>
   </g>
   <g id="line2d_4">
    <path d="M 159.509309 205.051264 
L 167.663309 196.897264 
" clip-path="url(#pb374cd7aa2)" style="fill: none; stroke: #d1242f; stroke-width: 1.4; stroke-linecap: square"/>
   </g>
   <g id="line2d_5">
    <path d="M 159.509309 196.897264 
L 167.663309 205.051264 
" clip-path="url(#pb374cd7aa2)" style="fill: none; stroke: #d1242f; stroke-width: 1.4; stroke-linecap: square"/>
   </g>
   <g id="patch_7">
    <path d="M 228.522857 272.314571 
C 229.449628 272.314571 230.338566 271.946361 230.993892 271.291035 
C 231.649218 270.635709 232.017429 269.746771 232.017429 268.82 
C 232.017429 267.893229 231.649218 267.004291 230.993892 266.348965 
C 230.338566 265.693639 229.449628 265.325429 228.522857 265.325429 
C 227.596086 265.325429 226.707148 265.693639 226.051822 266.348965 
C 225.396496 267.004291 225.028286 267.893229 225.028286 268.82 
C 225.028286 269.746771 225.396496 270.635709 226.051822 271.291035 
C 226.707148 271.946361 227.596086 272.314571 228.522857 272.314571 
z
" clip-path="url(#pb374cd7aa2)" style="fill: #222831; stroke: #222831; stroke-linejoin: miter"/>
   </g>
  </g>
  <g id="axes_2">
   <g id="patch_8">
    <path d="M 334.671429 295.029286 
L 707.425714 295.029286 
L 707.425714 268.82 
L 334.671429 268.82 
z
" clip-path="url(#p8344e26c18)" style="fill: url(#h0d39fd2ccf)"/>
   </g>
   <g id="line2d_6">
    <path d="M 334.671429 268.82 
L 680.68 268.82 
" clip-path="url(#p8344e26c18)" style="fill: none; stroke: #222831; stroke-width: 2; stroke-linecap: square"/>
   </g>
   <g id="patch_9">
    <path d="M 494.209261 326.192613 
L 567.642857 268.82 
L 467.240784 140.311206 
L 393.807187 197.68382 
z
" clip-path="url(#p8344e26c18)" style="fill: #dbe7ff; stroke: #222831; stroke-width: 1.8; stroke-linejoin: miter"/>
   </g>
   <g id="text_5">
    <!-- 重心鉛垂線落到底面外 -->
    <g style="fill: #d1242f" transform="translate(466.048571 51.352857) scale(0.11 -0.11)">
     <defs>
      <path id="NotoSansCJKjp-Bold-2bbc" d="M 3770 4659 
L 3770 1037 
L 4506 1037 
L 4506 4659 
L 3770 4659 
z
M 5222 5261 
L 5222 346 
C 5222 230 5184 198 5069 192 
C 4941 192 4550 192 4166 211 
C 4275 -13 4390 -358 4416 -576 
C 4966 -576 5376 -550 5638 -429 
C 5888 -307 5978 -90 5978 346 
L 5978 5261 
L 5222 5261 
z
M 2221 3936 
C 2336 3782 2458 3616 2573 3443 
L 1574 3411 
C 1709 3706 1843 4038 1965 4352 
L 3533 4352 
L 3533 5030 
L 262 5030 
L 262 4352 
L 1107 4352 
C 1030 4045 922 3693 806 3392 
L 250 3379 
L 294 2669 
C 1018 2701 2003 2739 2957 2797 
C 3021 2682 3072 2566 3110 2470 
L 3718 2810 
C 3552 3213 3142 3802 2784 4237 
L 2221 3936 
z
M 192 339 
L 314 -429 
C 1190 -314 2413 -160 3558 0 
L 3539 710 
L 2285 563 
L 2285 1299 
L 3328 1299 
L 3328 1984 
L 2285 1984 
L 2285 2611 
L 1517 2611 
L 1517 1984 
L 454 1984 
L 454 1299 
L 1517 1299 
L 1517 474 
L 192 339 
z
" transform="scale(0.015625)"/>
      <path id="NotoSansCJKjp-Bold-36d9" d="M 1843 3776 
L 2784 3776 
C 2688 3270 2547 2816 2374 2406 
C 2118 2618 1773 2848 1459 3034 
C 1594 3270 1722 3514 1843 3776 
z
M 3808 3885 
L 3565 3795 
C 3603 3974 3635 4166 3667 4358 
L 3162 4531 
L 3027 4506 
L 2138 4506 
C 2227 4762 2304 5018 2374 5286 
L 1606 5440 
C 1325 4288 806 3213 96 2566 
C 282 2458 602 2202 736 2074 
C 851 2189 960 2317 1062 2451 
C 1408 2227 1773 1952 2022 1715 
C 1581 973 986 422 282 58 
C 474 -64 768 -352 896 -518 
C 2048 134 2938 1363 3424 3181 
C 3654 2816 3917 2464 4205 2144 
L 4205 -563 
L 5005 -563 
L 5005 1402 
C 5254 1203 5517 1030 5786 890 
C 5914 1094 6163 1402 6342 1555 
C 5869 1760 5414 2067 5005 2419 
L 5005 5421 
L 4205 5421 
L 4205 3270 
C 4051 3469 3917 3680 3808 3885 
z
" transform="scale(0.015625)"/>
     </defs>
     <use xlink:href="#NotoSansCJKjp-Bold-a106"/>
     <use xlink:href="#NotoSansCJKjp-Bold-444f" transform="translate(100 0)"/>
     <use xlink:href="#NotoSansCJKjp-Bold-a209" transform="translate(200 0)"/>
     <use xlink:href="#NotoSansCJKjp-Bold-3448" transform="translate(300 0)"/>
     <use xlink:href="#NotoSansCJKjp-Bold-7a17" transform="translate(400 0)"/>
     <use xlink:href="#NotoSansCJKjp-Bold-86fd" transform="translate(500 0)"/>
     <use xlink:href="#NotoSansCJKjp-Bold-2bbc" transform="translate(600 0)"/>
     <use xlink:href="#NotoSansCJKjp-Bold-4213" transform="translate(700 0)"/>
     <use xlink:href="#NotoSansCJKjp-Bold-aaab" transform="translate(800 0)"/>
     <use xlink:href="#NotoSansCJKjp-Bold-36d9" transform="translate(900 0)"/>
    </g>
    <!-- → 傾倒 -->
    <g style="fill: #d1242f" transform="translate(503.2999 62.352857) scale(0.11 -0.11)">
     <defs>
      <path id="NotoSansCJKjp-Bold-295d" d="M 4026 2656 
L 5312 2656 
L 5312 2246 
L 4026 2246 
L 4026 2656 
z
M 4026 1715 
L 5312 1715 
L 5312 1299 
L 4026 1299 
L 4026 1715 
z
M 4026 3603 
L 5312 3603 
L 5312 3194 
L 4026 3194 
L 4026 3603 
z
M 3891 704 
C 3635 429 3117 70 2669 -115 
C 2835 -243 3059 -454 3174 -589 
C 3629 -397 4186 -26 4512 301 
L 3891 704 
z
M 4781 288 
C 5101 32 5517 -346 5709 -589 
L 6304 -179 
C 6093 64 5664 416 5344 659 
L 4781 288 
z
M 3360 4173 
L 3360 3571 
L 2970 3936 
C 2848 3770 2682 3578 2509 3392 
L 2509 4762 
L 1830 4762 
L 1830 1306 
C 1830 621 1958 410 2464 410 
C 2554 410 2739 410 2835 410 
C 3104 410 3264 518 3360 819 
L 3360 730 
L 6003 730 
L 6003 4173 
L 4934 4173 
L 5056 4538 
L 6189 4538 
L 6189 5178 
L 3085 5178 
L 3085 4538 
L 4282 4538 
L 4218 4173 
L 3360 4173 
z
M 2509 2586 
C 2771 2797 3078 3078 3360 3341 
L 3360 1702 
C 3194 1760 2995 1856 2880 1952 
C 2867 1210 2854 1050 2765 1050 
C 2733 1050 2624 1050 2592 1050 
C 2515 1050 2509 1082 2509 1306 
L 2509 2586 
z
M 1197 5414 
C 947 4506 538 3590 70 2995 
C 179 2790 358 2349 410 2163 
C 538 2323 659 2502 781 2694 
L 781 -576 
L 1466 -576 
L 1466 4051 
C 1626 4435 1766 4832 1882 5216 
L 1197 5414 
z
" transform="scale(0.015625)"/>
      <path id="NotoSansCJKjp-Bold-2820" d="M 5331 5331 
L 5331 262 
C 5331 173 5299 147 5216 141 
C 5126 141 4864 141 4589 154 
C 4685 -58 4774 -384 4800 -576 
C 5229 -576 5542 -550 5747 -429 
C 5952 -314 6016 -109 6016 262 
L 6016 5331 
L 5331 5331 
z
M 1715 339 
L 1830 -352 
C 2515 -243 3424 -102 4282 51 
L 4237 691 
L 3373 563 
L 3373 1376 
L 4115 1376 
L 4115 2035 
L 3373 2035 
L 3373 2675 
L 2662 2675 
L 2662 2035 
L 1894 2035 
L 1894 1376 
L 2662 1376 
L 2662 461 
L 1715 339 
z
M 1344 5427 
C 1062 4493 589 3558 77 2957 
C 192 2752 384 2310 442 2125 
C 576 2278 704 2451 832 2643 
L 832 -570 
L 1536 -570 
L 1536 3904 
C 1683 4224 1824 4557 1939 4883 
L 1939 4480 
L 2426 4480 
C 2349 4122 2246 3731 2144 3411 
L 1766 3392 
L 1837 2726 
L 3629 2893 
C 3661 2771 3686 2656 3699 2560 
L 4282 2765 
L 4282 960 
L 4934 960 
L 4934 4621 
L 4282 4621 
L 4282 2835 
C 4198 3219 3987 3776 3763 4205 
L 3213 4019 
C 3290 3859 3366 3680 3430 3501 
L 2803 3456 
C 2931 3763 3072 4128 3194 4480 
L 4166 4480 
L 4166 5107 
L 2016 5107 
L 2054 5216 
L 1344 5427 
z
" transform="scale(0.015625)"/>
     </defs>
     <use xlink:href="#NotoSansCJKjp-Bold-31c"/>
     <use xlink:href="#NotoSansCJKjp-Bold-1" transform="translate(100 0)"/>
     <use xlink:href="#NotoSansCJKjp-Bold-295d" transform="translate(122.703125 0)"/>
     <use xlink:href="#NotoSansCJKjp-Bold-2820" transform="translate(222.703125 0)"/>
    </g>
   </g>
   <g id="text_6">
    <!-- 傾斜過大 -->
    <g style="fill: #222831" transform="translate(484.4 18.2) scale(0.125 -0.125)">
     <defs>
      <path id="NotoSansCJKjp-Regular-9de8" d="M 358 4947 
C 749 4640 1184 4186 1370 3866 
L 1760 4166 
C 1568 4480 1114 4922 723 5216 
L 358 4947 
z
M 1574 2848 
L 294 2848 
L 294 2400 
L 1107 2400 
L 1107 742 
C 819 474 499 205 230 13 
L 480 -461 
C 794 -179 1088 96 1370 371 
C 1773 -134 2355 -358 3200 -390 
C 3917 -416 5286 -403 6003 -378 
C 6022 -230 6099 -13 6157 96 
C 5382 45 3904 26 3194 58 
C 2438 90 1875 307 1574 781 
L 1574 2848 
z
M 3744 4250 
L 3744 3174 
L 3117 3174 
L 3117 4781 
L 4890 4781 
L 4890 4250 
L 3744 4250 
z
M 4102 3174 
L 4102 3917 
L 4890 3917 
L 4890 3174 
L 4102 3174 
z
M 2688 5152 
L 2688 3174 
L 2189 3174 
L 2189 390 
L 2618 390 
L 2618 2790 
L 5382 2790 
L 5382 870 
C 5382 800 5357 781 5286 781 
C 5216 774 4979 774 4710 787 
C 4762 672 4819 506 4838 390 
C 5216 390 5472 397 5626 461 
C 5786 531 5824 646 5824 870 
L 5824 3174 
L 5331 3174 
L 5331 5152 
L 2688 5152 
z
M 3155 2374 
L 3155 762 
L 3533 762 
L 3533 1018 
L 4826 1018 
L 4826 2374 
L 3155 2374 
z
M 3533 2035 
L 4448 2035 
L 4448 1350 
L 3533 1350 
L 3533 2035 
z
" transform="scale(0.015625)"/>
     </defs>
     <use xlink:href="#NotoSansCJKjp-Regular-295d"/>
     <use xlink:href="#NotoSansCJKjp-Regular-4e67" transform="translate(100 0)"/>
     <use xlink:href="#NotoSansCJKjp-Regular-9de8" transform="translate(200 0)"/>
     <use xlink:href="#NotoSansCJKjp-Regular-36fb" transform="translate(300 0)"/>
    </g>
   </g>
   <g id="line2d_7">
    <path d="M 480.725022 233.25191 
L 480.725022 268.82 
" clip-path="url(#p8344e26c18)" style="fill: none; stroke-dasharray: 1.3,2.145; stroke-dashoffset: 0; stroke: #d1242f; stroke-width: 1.3"/>
   </g>
   <g id="patch_10">
    <path d="M 480.725022 233.25191 
Q 480.725022 271.109767 480.725022 306.284343 
" clip-path="url(#p8344e26c18)" style="fill: none; stroke: #d1242f; stroke-width: 2.4; stroke-linecap: round"/>
    <path d="M 484.325022 299.084343 
L 480.725022 306.284343 
L 477.125022 299.084343 
z
" clip-path="url(#p8344e26c18)" style="fill: #d1242f; stroke: #d1242f; stroke-width: 2.4; stroke-linecap: round"/>
   </g>
   <g id="line2d_8">
    <path d="M 494.209261 268.82 
L 567.642857 268.82 
" clip-path="url(#p8344e26c18)" style="fill: none; stroke: #1a7f37; stroke-width: 4"/>
   </g>
   <g id="patch_11">
    <path d="M 480.725022 239.076196 
C 482.269641 239.076196 483.751204 238.462512 484.843414 237.370302 
C 485.935624 236.278091 486.549308 234.796528 486.549308 233.25191 
C 486.549308 231.707291 485.935624 230.225728 484.843414 229.133518 
C 483.751204 228.041308 482.269641 227.427624 480.725022 227.427624 
C 479.180404 227.427624 477.698841 228.041308 476.60663 229.133518 
C 475.51442 230.225728 474.900737 231.707291 474.900737 233.25191 
C 474.900737 234.796528 475.51442 236.278091 476.60663 237.370302 
C 477.698841 238.462512 479.180404 239.076196 480.725022 239.076196 
z
" clip-path="url(#p8344e26c18)" style="fill: #ffffff; stroke: #d1242f; stroke-width: 1.8; stroke-linejoin: miter"/>
   </g>
   <g id="text_7">
    <!-- 重心 -->
    <g style="fill: #d1242f" transform="translate(499.362737 231.607624) scale(0.11 -0.11)">
     <use xlink:href="#NotoSansCJKjp-Regular-a106"/>
     <use xlink:href="#NotoSansCJKjp-Regular-444f" transform="translate(100 0)"/>
    </g>
   </g>
   <g id="patch_12">
    <path d="M 480.725022 272.897 
C 481.806255 272.897 482.843349 272.467422 483.607897 271.702874 
C 484.372444 270.938327 484.802022 269.901233 484.802022 268.82 
C 484.802022 267.738767 484.372444 266.701673 483.607897 265.937126 
C 482.843349 265.172578 481.806255 264.743 480.725022 264.743 
C 479.643789 264.743 478.606695 265.172578 477.842148 265.937126 
C 477.077601 266.701673 476.648022 267.738767 476.648022 268.82 
C 476.648022 269.901233 477.077601 270.938327 477.842148 271.702874 
C 478.606695 272.467422 479.643789 272.897 480.725022 272.897 
z
" clip-path="url(#p8344e26c18)" style="fill: #d1242f; stroke: #d1242f; stroke-linejoin: miter"/>
   </g>
   <g id="text_8">
    <!-- 支撐底面 -->
    <g style="fill: #1a7f37" transform="translate(508.926059 310.857857) scale(0.11 -0.11)">
     <use xlink:href="#NotoSansCJKjp-Regular-4db9"/>
     <use xlink:href="#NotoSansCJKjp-Regular-4c75" transform="translate(100 0)"/>
     <use xlink:href="#NotoSansCJKjp-Regular-4213" transform="translate(200 0)"/>
     <use xlink:href="#NotoSansCJKjp-Regular-aaab" transform="translate(300 0)"/>
    </g>
   </g>
   <g id="line2d_9">
    <path d="M 476.648022 237.32891 
L 484.802022 229.17491 
" clip-path="url(#p8344e26c18)" style="fill: none; stroke: #d1242f; stroke-width: 1.4; stroke-linecap: square"/>
   </g>
   <g id="line2d_10">
    <path d="M 476.648022 229.17491 
L 484.802022 237.32891 
" clip-path="url(#p8344e26c18)" style="fill: none; stroke: #d1242f; stroke-width: 1.4; stroke-linecap: square"/>
   </g>
   <g id="patch_13">
    <path d="M 567.642857 272.314571 
C 568.569628 272.314571 569.458566 271.946361 570.113892 271.291035 
C 570.769218 270.635709 571.137429 269.746771 571.137429 268.82 
C 571.137429 267.893229 570.769218 267.004291 570.113892 266.348965 
C 569.458566 265.693639 568.569628 265.325429 567.642857 265.325429 
C 566.716086 265.325429 565.827148 265.693639 565.171822 266.348965 
C 564.516496 267.004291 564.148286 267.893229 564.148286 268.82 
C 564.148286 269.746771 564.516496 270.635709 565.171822 271.291035 
C 565.827148 271.946361 566.716086 272.314571 567.642857 272.314571 
z
" clip-path="url(#p8344e26c18)" style="fill: #222831; stroke: #222831; stroke-linejoin: miter"/>
   </g>
  </g>
 </g>
 <defs>
  <clipPath id="pb374cd7aa2">
   <rect x="7.2" y="24.2" width="326.16" height="297.038571"/>
  </clipPath>
  <clipPath id="p8344e26c18">
   <rect x="346.32" y="24.2" width="326.16" height="297.038571"/>
  </clipPath>
 </defs>
 <defs>
  <pattern id="h0d39fd2ccf" patternUnits="userSpaceOnUse" x="0" y="0" width="72" height="72">
   <rect x="0" y="0" width="73" height="73" fill="#eef1f5"/>
   <path d="M -36 36 
L 36 -36 
M -33 39 
L 39 -33 
M -30 42 
L 42 -30 
M -27 45 
L 45 -27 
M -24 48 
L 48 -24 
M -21 51 
L 51 -21 
M -18 54 
L 54 -18 
M -15 57 
L 57 -15 
M -12 60 
L 60 -12 
M -9 63 
L 63 -9 
M -6 66 
L 66 -6 
M -3 69 
L 69 -3 
M 0 72 
L 72 0 
M 3 75 
L 75 3 
M 6 78 
L 78 6 
M 9 81 
L 81 9 
M 12 84 
L 84 12 
M 15 87 
L 87 15 
M 18 90 
L 90 18 
M 21 93 
L 93 21 
M 24 96 
L 96 24 
M 27 99 
L 99 27 
M 30 102 
L 102 30 
M 33 105 
L 105 33 
M 36 108 
L 108 36 
" style="fill: #000000; stroke: #000000; stroke-width: 1.0; stroke-linecap: butt; stroke-linejoin: miter"/>
  </pattern>
 </defs>
</svg>
