<?xml version="1.0" encoding="utf-8" standalone="no"?>
<!DOCTYPE svg PUBLIC "-//W3C//DTD SVG 1.1//EN"
  "http://www.w3.org/Graphics/SVG/1.1/DTD/svg11.dtd">
<svg xmlns:xlink="http://www.w3.org/1999/xlink" width="593.28pt" height="382.464pt" viewBox="0 0 593.28 382.464" xmlns="http://www.w3.org/2000/svg" version="1.1">
 <metadata>
  <rdf:RDF xmlns:dc="http://purl.org/dc/elements/1.1/" xmlns:cc="http://creativecommons.org/ns#" xmlns:rdf="http://www.w3.org/1999/02/22-rdf-syntax-ns#">
   <cc:Work>
    <dc:type rdf:resource="http://purl.org/dc/dcmitype/StillImage"/>
    <dc:date>2026-06-18T00:08:39.541141</dc:date>
    <dc:format>image/svg+xml</dc:format>
    <dc:creator>
     <cc:Agent>
      <dc:title>Matplotlib v3.11.0, https://matplotlib.org/</dc:title>
     </cc:Agent>
    </dc:creator>
   </cc:Work>
  </rdf:RDF>
 </metadata>
 <defs>
  <style type="text/css">*{stroke-linejoin: round; stroke-linecap: butt}</style>
 </defs>
 <g id="figure_1">
  <g id="patch_1">
   <path d="M 0 382.464 
L 593.28 382.464 
L 593.28 0 
L 0 0 
z
" style="fill: #ffffff"/>
  </g>
  <g id="axes_1">
   <g id="line2d_1">
    <path d="M 7.2 134.508375 
L 586.08 134.508375 
" clip-path="url(#pff2aeb33fd)" style="fill: none; stroke: #222831; stroke-width: 1.4; stroke-linecap: square"/>
   </g>
   <g id="text_1">
    <!-- 彈性碰撞（動量、動能皆守恆） -->
    <g style="fill: #222831" transform="translate(12.024 79.930847) scale(0.125 -0.125)">
     <defs>
      <path id="NotoSansCJKjp-Regular-4379" d="M 2893 4806 
L 3603 4806 
L 3603 4134 
L 2893 4134 
L 2893 4806 
z
M 2496 5146 
L 2496 3795 
L 4013 3795 
L 4013 5146 
L 2496 5146 
z
M 4781 4806 
L 5530 4806 
L 5530 4134 
L 4781 4134 
L 4781 4806 
z
M 4378 5146 
L 4378 3795 
L 5946 3795 
L 5946 5146 
L 4378 5146 
z
M 2605 3437 
L 2605 1299 
L 3962 1299 
L 3962 838 
L 2278 838 
L 2278 429 
L 3962 429 
L 3962 -512 
L 4422 -512 
L 4422 429 
L 6150 429 
L 6150 838 
L 4422 838 
L 4422 1299 
L 5837 1299 
L 5837 3437 
L 2605 3437 
z
M 3027 2195 
L 3962 2195 
L 3962 1670 
L 3027 1670 
L 3027 2195 
z
M 4422 2195 
L 5395 2195 
L 5395 1670 
L 4422 1670 
L 4422 2195 
z
M 3027 3059 
L 3962 3059 
L 3962 2547 
L 3027 2547 
L 3027 3059 
z
M 4422 3059 
L 5395 3059 
L 5395 2547 
L 4422 2547 
L 4422 3059 
z
M 486 3667 
C 454 3059 365 2246 282 1741 
L 710 1670 
L 749 1965 
L 1728 1965 
C 1664 659 1587 147 1466 19 
C 1408 -45 1350 -58 1242 -51 
C 1120 -51 813 -51 499 -26 
C 576 -154 634 -352 640 -493 
C 954 -512 1261 -512 1427 -493 
C 1619 -480 1734 -442 1850 -301 
C 2035 -90 2106 531 2189 2170 
C 2195 2240 2195 2387 2195 2387 
L 800 2387 
L 883 3232 
L 2176 3232 
L 2176 5082 
L 371 5082 
L 371 4646 
L 1715 4646 
L 1715 3667 
L 486 3667 
z
" transform="scale(0.015625)"/>
      <path id="NotoSansCJKjp-Regular-44ea" d="M 1101 5376 
L 1101 -506 
L 1581 -506 
L 1581 5376 
L 1101 5376 
z
M 512 4160 
C 467 3642 352 2938 179 2509 
L 557 2381 
C 723 2848 838 3584 877 4109 
L 512 4160 
z
M 1626 4198 
C 1811 3846 2003 3379 2067 3091 
L 2426 3277 
C 2355 3546 2157 4000 1965 4346 
L 1626 4198 
z
M 2138 173 
L 2138 -282 
L 6074 -282 
L 6074 173 
L 4461 173 
L 4461 1779 
L 5779 1779 
L 5779 2227 
L 4461 2227 
L 4461 3558 
L 5920 3558 
L 5920 4019 
L 4461 4019 
L 4461 5350 
L 3974 5350 
L 3974 4019 
L 3181 4019 
C 3264 4333 3341 4672 3405 5005 
L 2938 5082 
C 2790 4211 2534 3341 2163 2784 
C 2278 2733 2496 2624 2592 2560 
C 2758 2835 2906 3174 3034 3558 
L 3974 3558 
L 3974 2227 
L 2618 2227 
L 2618 1779 
L 3974 1779 
L 3974 173 
L 2138 173 
z
" transform="scale(0.015625)"/>
      <path id="NotoSansCJKjp-Regular-6f9a" d="M 3104 5235 
C 3296 4896 3469 4435 3526 4141 
L 3930 4282 
C 3878 4576 3693 5024 3494 5363 
L 3104 5235 
z
M 5101 5376 
C 4992 5050 4787 4576 4614 4282 
L 4998 4147 
C 5171 4429 5382 4858 5562 5229 
L 5101 5376 
z
M 288 4934 
L 288 4512 
L 1030 4512 
C 890 3411 634 2374 179 1690 
C 269 1587 416 1376 467 1274 
C 570 1427 666 1594 749 1779 
L 749 -237 
L 1158 -237 
L 1158 320 
L 2304 320 
L 2304 3040 
L 1197 3040 
C 1318 3507 1414 4000 1485 4512 
L 2515 4512 
L 2515 4934 
L 288 4934 
z
M 1158 2618 
L 1888 2618 
L 1888 736 
L 1158 736 
L 1158 2618 
z
M 5453 3296 
L 5453 1600 
L 4915 1600 
L 4915 3706 
L 6061 3706 
L 6061 4122 
L 2554 4122 
L 2554 3706 
L 3642 3706 
L 3642 1600 
L 3136 1600 
L 3136 3296 
L 2752 3296 
L 2752 736 
L 3136 736 
L 3136 1203 
L 3642 1203 
L 3642 122 
L 2362 122 
L 2362 -294 
L 6150 -294 
L 6150 122 
L 4915 122 
L 4915 1203 
L 5453 1203 
L 5453 806 
L 5837 806 
L 5837 3296 
L 5453 3296 
z
M 4038 3706 
L 4525 3706 
L 4525 122 
L 4038 122 
L 4038 3706 
z
" transform="scale(0.015625)"/>
      <path id="NotoSansCJKjp-Regular-4c95" d="M 3014 4422 
C 3110 4230 3200 3987 3245 3802 
L 2234 3802 
L 2234 3411 
L 6080 3411 
L 6080 3802 
L 5062 3802 
C 5165 3987 5280 4224 5382 4448 
L 5203 4486 
L 5939 4486 
L 5939 4864 
L 4384 4864 
L 4384 5382 
L 3904 5382 
L 3904 4864 
L 2419 4864 
L 2419 4486 
L 3360 4486 
L 3014 4422 
z
M 3437 4486 
L 4909 4486 
C 4845 4282 4730 4000 4640 3802 
L 3578 3802 
L 3686 3827 
C 3642 4000 3539 4282 3437 4486 
z
M 2995 2054 
L 3923 2054 
L 3923 1613 
L 2995 1613 
L 2995 2054 
z
M 4384 2054 
L 5376 2054 
L 5376 1613 
L 4384 1613 
L 4384 2054 
z
M 2995 2771 
L 3923 2771 
L 3923 2349 
L 2995 2349 
L 2995 2771 
z
M 4384 2771 
L 5376 2771 
L 5376 2349 
L 4384 2349 
L 4384 2771 
z
M 2086 0 
L 2086 -390 
L 6144 -390 
L 6144 0 
L 4384 0 
L 4384 518 
L 5894 518 
L 5894 890 
L 4384 890 
L 4384 1293 
L 5811 1293 
L 5811 3091 
L 2573 3091 
L 2573 1293 
L 3923 1293 
L 3923 890 
L 2426 890 
L 2426 518 
L 3923 518 
L 3923 0 
L 2086 0 
z
M 1069 5370 
L 1069 4083 
L 269 4083 
L 269 3635 
L 1069 3635 
L 1069 2323 
L 179 2054 
L 301 1594 
L 1069 1843 
L 1069 45 
C 1069 -45 1037 -70 960 -70 
C 883 -77 634 -77 358 -64 
C 416 -198 480 -397 493 -512 
C 902 -518 1146 -499 1299 -422 
C 1459 -352 1517 -218 1517 45 
L 1517 1990 
L 2221 2221 
L 2150 2662 
L 1517 2464 
L 1517 3635 
L 2208 3635 
L 2208 4083 
L 1517 4083 
L 1517 5370 
L 1069 5370 
z
" transform="scale(0.015625)"/>
      <path id="NotoSansCJKjp-Regular-e6ae" d="M 4448 2432 
C 4448 1184 4954 166 5722 -614 
L 6106 -416 
C 5370 346 4915 1293 4915 2432 
C 4915 3571 5370 4518 6106 5280 
L 5722 5478 
C 4954 4698 4448 3680 4448 2432 
z
" transform="scale(0.015625)"/>
      <path id="NotoSansCJKjp-Regular-2cc2" d="M 4192 5293 
C 4192 4806 4192 4333 4179 3878 
L 3418 3878 
L 3418 3437 
L 4166 3437 
C 4109 2227 3942 1184 3386 422 
L 3386 448 
L 2099 314 
L 2099 826 
L 3360 826 
L 3360 1197 
L 2099 1197 
L 2099 1587 
L 3347 1587 
L 3347 3501 
L 2099 3501 
L 2099 3904 
L 3469 3904 
L 3469 4282 
L 2099 4282 
L 2099 4755 
C 2566 4806 3008 4864 3354 4941 
L 3117 5312 
C 2451 5158 1286 5043 339 4998 
C 384 4896 435 4742 454 4640 
C 832 4653 1248 4678 1658 4710 
L 1658 4282 
L 269 4282 
L 269 3904 
L 1658 3904 
L 1658 3501 
L 461 3501 
L 461 1587 
L 1658 1587 
L 1658 1197 
L 442 1197 
L 442 826 
L 1658 826 
L 1658 269 
L 269 141 
L 333 -282 
C 1056 -205 2054 -90 3034 26 
C 2950 -51 2854 -128 2758 -198 
C 2874 -275 3040 -435 3110 -544 
C 4256 307 4544 1722 4627 3437 
L 5536 3437 
C 5472 1094 5395 243 5242 51 
C 5184 -32 5120 -45 5018 -45 
C 4896 -45 4608 -45 4294 -19 
C 4371 -147 4422 -346 4435 -480 
C 4736 -493 5037 -499 5222 -474 
C 5414 -454 5542 -403 5651 -230 
C 5869 38 5933 934 6003 3642 
C 6003 3699 6003 3878 6003 3878 
L 4640 3878 
C 4653 4333 4659 4806 4659 5293 
L 4192 5293 
z
M 858 2387 
L 1658 2387 
L 1658 1920 
L 858 1920 
L 858 2387 
z
M 2099 2387 
L 2938 2387 
L 2938 1920 
L 2099 1920 
L 2099 2387 
z
M 858 3168 
L 1658 3168 
L 1658 2707 
L 858 2707 
L 858 3168 
z
M 2099 3168 
L 2938 3168 
L 2938 2707 
L 2099 2707 
L 2099 3168 
z
" transform="scale(0.015625)"/>
      <path id="NotoSansCJKjp-Regular-a108" d="M 1600 4256 
L 4781 4256 
L 4781 3904 
L 1600 3904 
L 1600 4256 
z
M 1600 4883 
L 4781 4883 
L 4781 4538 
L 1600 4538 
L 1600 4883 
z
M 1133 5171 
L 1133 3616 
L 5261 3616 
L 5261 5171 
L 1133 5171 
z
M 333 3341 
L 333 2976 
L 6074 2976 
L 6074 3341 
L 333 3341 
z
M 1472 1747 
L 2957 1747 
L 2957 1376 
L 1472 1376 
L 1472 1747 
z
M 3424 1747 
L 4973 1747 
L 4973 1376 
L 3424 1376 
L 3424 1747 
z
M 1472 2387 
L 2957 2387 
L 2957 2029 
L 1472 2029 
L 1472 2387 
z
M 3424 2387 
L 4973 2387 
L 4973 2029 
L 3424 2029 
L 3424 2387 
z
M 301 19 
L 301 -352 
L 6112 -352 
L 6112 19 
L 3424 19 
L 3424 390 
L 5587 390 
L 5587 730 
L 3424 730 
L 3424 1082 
L 5446 1082 
L 5446 2688 
L 1018 2688 
L 1018 1082 
L 2957 1082 
L 2957 730 
L 838 730 
L 838 390 
L 2957 390 
L 2957 19 
L 301 19 
z
" transform="scale(0.015625)"/>
      <path id="NotoSansCJKjp-Regular-575" d="M 1747 -358 
L 2182 13 
C 1786 480 1210 1062 749 1434 
L 333 1069 
C 787 698 1338 147 1747 -358 
z
" transform="scale(0.015625)"/>
      <path id="NotoSansCJKjp-Regular-8006" d="M 2131 4774 
C 2278 4576 2432 4339 2560 4109 
L 1248 4058 
C 1446 4422 1651 4864 1824 5261 
L 1331 5382 
C 1197 4979 966 4442 742 4038 
L 256 4019 
L 294 3552 
C 960 3590 1882 3635 2784 3693 
C 2854 3552 2912 3424 2950 3309 
L 3366 3494 
C 3226 3891 2867 4486 2528 4928 
L 2131 4774 
z
M 2451 2688 
L 2451 2138 
L 1088 2138 
L 1088 2688 
L 2451 2688 
z
M 640 3098 
L 640 -506 
L 1088 -506 
L 1088 800 
L 2451 800 
L 2451 51 
C 2451 -32 2432 -58 2349 -58 
C 2253 -64 1984 -64 1683 -51 
C 1747 -179 1818 -365 1843 -493 
C 2246 -493 2522 -486 2701 -416 
C 2874 -339 2925 -205 2925 45 
L 2925 3098 
L 640 3098 
z
M 1088 1760 
L 2451 1760 
L 2451 1178 
L 1088 1178 
L 1088 1760 
z
M 5491 4896 
C 5126 4704 4550 4474 4006 4288 
L 4006 5363 
L 3526 5363 
L 3526 3238 
C 3526 2707 3686 2566 4307 2566 
C 4429 2566 5267 2566 5408 2566 
C 5920 2566 6061 2771 6118 3558 
C 5984 3590 5786 3661 5683 3744 
C 5658 3110 5613 3002 5363 3002 
C 5184 3002 4480 3002 4352 3002 
C 4058 3002 4006 3040 4006 3245 
L 4006 3904 
C 4621 4083 5306 4307 5811 4538 
L 5491 4896 
z
M 5568 2042 
C 5197 1805 4582 1555 4000 1363 
L 4000 2387 
L 3526 2387 
L 3526 224 
C 3526 -314 3693 -454 4320 -454 
C 4454 -454 5318 -454 5459 -454 
C 5997 -454 6138 -224 6195 634 
C 6061 666 5875 742 5760 819 
C 5734 96 5690 -26 5421 -26 
C 5229 -26 4506 -26 4365 -26 
C 4058 -26 4000 13 4000 224 
L 4000 966 
C 4646 1146 5382 1395 5882 1683 
L 5568 2042 
z
" transform="scale(0.015625)"/>
      <path id="NotoSansCJKjp-Regular-6c35" d="M 1702 781 
L 4800 781 
L 4800 115 
L 1702 115 
L 1702 781 
z
M 1702 1165 
L 1702 1805 
L 4800 1805 
L 4800 1165 
L 1702 1165 
z
M 2861 2861 
C 2810 2675 2701 2413 2611 2208 
L 1229 2208 
L 1229 -512 
L 1702 -512 
L 1702 -288 
L 4800 -288 
L 4800 -512 
L 5299 -512 
L 5299 2208 
L 3098 2208 
L 3379 2739 
L 2861 2861 
z
M 1018 5376 
L 1018 3142 
L 314 3053 
L 365 2605 
C 1101 2707 2138 2854 3130 2995 
L 3117 3424 
L 1478 3200 
L 1478 4205 
L 3014 4205 
L 3014 4621 
L 1478 4621 
L 1478 5376 
L 1018 5376 
z
M 3450 5376 
L 3450 3341 
C 3450 2816 3610 2669 4243 2669 
C 4378 2669 5248 2669 5389 2669 
C 5888 2669 6029 2861 6086 3571 
C 5958 3597 5766 3667 5664 3744 
C 5632 3194 5594 3104 5350 3104 
C 5158 3104 4429 3104 4288 3104 
C 3974 3104 3923 3136 3923 3341 
L 3923 3942 
C 4570 4109 5293 4326 5805 4582 
L 5466 4947 
C 5101 4742 4499 4518 3923 4346 
L 3923 5376 
L 3450 5376 
z
" transform="scale(0.015625)"/>
      <path id="NotoSansCJKjp-Regular-3c64" d="M 1158 1882 
C 1568 1472 2010 896 2195 518 
L 2598 794 
C 2406 1178 1952 1728 1536 2125 
L 1158 1882 
z
M 3898 3840 
L 3898 2918 
L 371 2918 
L 371 2451 
L 3898 2451 
L 3898 109 
C 3898 -6 3853 -45 3725 -45 
C 3597 -51 3149 -51 2675 -38 
C 2746 -173 2829 -384 2854 -518 
C 3469 -518 3846 -512 4077 -435 
C 4301 -358 4384 -218 4384 102 
L 4384 2451 
L 6035 2451 
L 6035 2918 
L 4384 2918 
L 4384 3840 
L 3898 3840 
z
M 525 4659 
L 525 3302 
L 1011 3302 
L 1011 4198 
L 5357 4198 
L 5357 3302 
L 5862 3302 
L 5862 4659 
L 3437 4659 
L 3437 5376 
L 2931 5376 
L 2931 4659 
L 525 4659 
z
" transform="scale(0.015625)"/>
      <path id="NotoSansCJKjp-Regular-4514" d="M 3533 2515 
C 3878 2362 4301 2118 4518 1939 
L 4736 2291 
C 4518 2470 4090 2694 3744 2829 
L 3533 2515 
z
M 3277 1453 
C 3642 1254 4077 947 4288 730 
L 4538 1062 
C 4326 1274 3878 1562 3520 1754 
L 3277 1453 
z
M 1082 5376 
L 1082 -506 
L 1542 -506 
L 1542 5376 
L 1082 5376 
z
M 506 4141 
C 493 3578 390 2886 173 2496 
L 493 2342 
C 730 2784 832 3514 838 4096 
L 506 4141 
z
M 1587 4218 
C 1766 3814 1939 3290 1990 2970 
L 2310 3117 
C 2259 3424 2080 3936 1888 4333 
L 1587 4218 
z
M 1946 147 
L 1946 -301 
L 6144 -301 
L 6144 147 
L 5094 147 
C 5248 1082 5434 2566 5555 3680 
L 3526 3680 
L 3674 4538 
L 6054 4538 
L 6054 4986 
L 2163 4986 
L 2163 4538 
L 3194 4538 
C 3021 3450 2733 2003 2515 1152 
L 2989 1107 
C 3123 1658 3290 2451 3443 3245 
L 5024 3245 
C 4915 2221 4749 979 4595 147 
L 1946 147 
z
" transform="scale(0.015625)"/>
      <path id="NotoSansCJKjp-Regular-e6af" d="M 1952 2432 
C 1952 3680 1446 4698 678 5478 
L 294 5280 
C 1030 4518 1485 3571 1485 2432 
C 1485 1293 1030 346 294 -416 
L 678 -614 
C 1446 166 1952 1184 1952 2432 
z
" transform="scale(0.015625)"/>
     </defs>
     <use xlink:href="#NotoSansCJKjp-Regular-4379"/>
     <use xlink:href="#NotoSansCJKjp-Regular-44ea" transform="translate(100 0)"/>
     <use xlink:href="#NotoSansCJKjp-Regular-6f9a" transform="translate(200 0)"/>
     <use xlink:href="#NotoSansCJKjp-Regular-4c95" transform="translate(300 0)"/>
     <use xlink:href="#NotoSansCJKjp-Regular-e6ae" transform="translate(400 0)"/>
     <use xlink:href="#NotoSansCJKjp-Regular-2cc2" transform="translate(500 0)"/>
     <use xlink:href="#NotoSansCJKjp-Regular-a108" transform="translate(600 0)"/>
     <use xlink:href="#NotoSansCJKjp-Regular-575" transform="translate(700 0)"/>
     <use xlink:href="#NotoSansCJKjp-Regular-2cc2" transform="translate(800 0)"/>
     <use xlink:href="#NotoSansCJKjp-Regular-8006" transform="translate(900 0)"/>
     <use xlink:href="#NotoSansCJKjp-Regular-6c35" transform="translate(1000 0)"/>
     <use xlink:href="#NotoSansCJKjp-Regular-3c64" transform="translate(1100 0)"/>
     <use xlink:href="#NotoSansCJKjp-Regular-4514" transform="translate(1200 0)"/>
     <use xlink:href="#NotoSansCJKjp-Regular-e6af" transform="translate(1300 0)"/>
    </g>
   </g>
   <g id="text_2">
    <!-- 碰前 -->
    <g style="fill: #888888" transform="translate(561.256 81.010918) scale(0.1 -0.1)">
     <defs>
      <path id="NotoSansCJKjp-Regular-2be5" d="M 3866 3290 
L 3866 666 
L 4314 666 
L 4314 3290 
L 3866 3290 
z
M 5165 3482 
L 5165 90 
C 5165 -6 5133 -32 5030 -32 
C 4922 -38 4576 -38 4186 -26 
C 4256 -154 4333 -358 4358 -486 
C 4851 -493 5178 -480 5370 -403 
C 5568 -326 5638 -192 5638 83 
L 5638 3482 
L 5165 3482 
z
M 4627 5408 
C 4486 5094 4243 4672 4026 4365 
L 2106 4365 
L 2419 4480 
C 2298 4736 2022 5114 1779 5382 
L 1331 5222 
C 1562 4960 1798 4614 1920 4365 
L 339 4365 
L 339 3923 
L 6061 3923 
L 6061 4365 
L 4570 4365 
C 4755 4627 4960 4947 5139 5242 
L 4627 5408 
z
M 2618 1926 
L 2618 1280 
L 1197 1280 
L 1197 1926 
L 2618 1926 
z
M 2618 2304 
L 1197 2304 
L 1197 2938 
L 2618 2938 
L 2618 2304 
z
M 742 3347 
L 742 -480 
L 1197 -480 
L 1197 902 
L 2618 902 
L 2618 45 
C 2618 -38 2592 -64 2502 -64 
C 2419 -70 2125 -70 1798 -58 
C 1862 -179 1933 -365 1965 -486 
C 2394 -486 2682 -480 2854 -403 
C 3034 -333 3085 -205 3085 38 
L 3085 3347 
L 742 3347 
z
" transform="scale(0.015625)"/>
     </defs>
     <use xlink:href="#NotoSansCJKjp-Regular-6f9a"/>
     <use xlink:href="#NotoSansCJKjp-Regular-2be5" transform="translate(100 0)"/>
    </g>
   </g>
   <g id="text_3">
    <!-- $v$ -->
    <g style="fill: #1f6feb" transform="translate(100.985 87.913815) scale(0.11 -0.11)">
     <defs>
      <path id="Cmmi10-38" d="M 684 722 
Q 684 866 718 1037 
Q 753 1209 787 1320 
Q 822 1431 944 1753 
Q 1066 2075 1069 2088 
Q 1153 2322 1153 2472 
Q 1153 2663 1013 2663 
Q 759 2663 595 2402 
Q 431 2141 353 1819 
Q 341 1778 300 1778 
L 225 1778 
Q 172 1778 172 1838 
L 172 1856 
Q 275 2238 487 2533 
Q 700 2828 1025 2828 
Q 1253 2828 1411 2678 
Q 1569 2528 1569 2297 
Q 1569 2178 1516 2047 
Q 1391 1722 1319 1526 
Q 1247 1331 1186 1089 
Q 1125 847 1125 641 
Q 1125 400 1236 248 
Q 1347 97 1581 97 
Q 2025 97 2381 781 
Q 2494 1003 2594 1303 
Q 2694 1603 2694 1791 
Q 2694 1984 2631 2092 
Q 2569 2200 2469 2317 
Q 2369 2434 2369 2503 
Q 2369 2628 2472 2731 
Q 2575 2834 2700 2834 
Q 2853 2834 2920 2693 
Q 2988 2553 2988 2375 
Q 2988 2163 2927 1869 
Q 2866 1575 2758 1259 
Q 2650 944 2559 763 
Q 2138 -72 1575 -72 
Q 1172 -72 928 129 
Q 684 331 684 722 
z
" transform="scale(0.015625)"/>
     </defs>
     <use xlink:href="#Cmmi10-38" transform="translate(0 0.71875)"/>
    </g>
   </g>
   <g id="text_4">
    <!-- 靜止 -->
    <g style="fill: #d1242f" transform="translate(209.456 87.913815) scale(0.1 -0.1)">
     <defs>
      <path id="NotoSansCJKjp-Regular-aa97" d="M 4128 4416 
C 4250 4122 4365 3731 4390 3494 
L 4813 3590 
C 4774 3827 4653 4211 4518 4499 
L 4128 4416 
z
M 5126 4589 
C 5389 4218 5677 3725 5792 3411 
L 6182 3584 
C 6054 3891 5760 4378 5491 4736 
L 5126 4589 
z
M 1427 5376 
L 1427 4851 
L 390 4851 
L 390 4493 
L 1427 4493 
L 1427 4109 
L 506 4109 
L 506 3763 
L 1427 3763 
L 1427 3347 
L 256 3347 
L 256 2982 
L 3027 2982 
L 3027 3347 
L 1875 3347 
L 1875 3763 
L 2835 3763 
L 2835 4109 
L 1875 4109 
L 1875 4493 
L 2931 4493 
L 2931 4851 
L 1875 4851 
L 1875 5376 
L 1427 5376 
z
M 1485 1338 
L 947 1338 
L 947 2259 
L 1485 2259 
L 1485 1338 
z
M 1824 1338 
L 1824 2259 
L 2400 2259 
L 2400 1338 
L 1824 1338 
z
M 531 2630 
L 531 -506 
L 947 -506 
L 947 966 
L 2400 966 
L 2400 -38 
C 2400 -102 2381 -122 2310 -128 
C 2246 -128 2048 -128 1824 -122 
C 1882 -224 1952 -390 1971 -499 
C 2291 -499 2496 -493 2637 -429 
C 2778 -358 2816 -243 2816 -45 
L 2816 2630 
L 531 2630 
z
M 3302 3347 
L 3302 2950 
L 4141 2950 
L 4141 2342 
L 2950 2342 
L 2950 1939 
L 4141 1939 
L 4141 1318 
L 3270 1318 
L 3270 915 
L 4141 915 
L 4141 26 
C 4141 -58 4122 -77 4038 -83 
C 3949 -90 3674 -90 3360 -83 
C 3424 -205 3494 -390 3514 -518 
C 3930 -518 4198 -506 4371 -429 
C 4544 -358 4595 -230 4595 19 
L 4595 915 
L 5350 915 
L 5350 653 
L 5786 653 
L 5786 1939 
L 6182 1939 
L 6182 2342 
L 5786 2342 
L 5786 3347 
L 3302 3347 
z
M 5350 1318 
L 4595 1318 
L 4595 1939 
L 5350 1939 
L 5350 1318 
z
M 5350 2342 
L 4595 2342 
L 4595 2950 
L 5350 2950 
L 5350 2342 
z
M 3411 5005 
C 3315 4550 3098 3968 2822 3584 
C 2925 3533 3091 3430 3181 3354 
C 3411 3680 3610 4134 3757 4570 
C 4429 4640 5210 4774 5747 4954 
L 5421 5312 
C 5011 5165 4314 5030 3680 4941 
L 3411 5005 
z
" transform="scale(0.015625)"/>
      <path id="NotoSansCJKjp-Regular-585b" d="M 1203 3962 
L 1203 282 
L 314 282 
L 314 -192 
L 6074 -192 
L 6074 282 
L 3693 282 
L 3693 2752 
L 5792 2752 
L 5792 3232 
L 3693 3232 
L 3693 5357 
L 3194 5357 
L 3194 282 
L 1696 282 
L 1696 3962 
L 1203 3962 
z
" transform="scale(0.015625)"/>
     </defs>
     <use xlink:href="#NotoSansCJKjp-Regular-aa97"/>
     <use xlink:href="#NotoSansCJKjp-Regular-585b" transform="translate(100 0)"/>
    </g>
   </g>
   <g id="patch_2">
    <path d="M 279.346148 134.508375 
Q 296.642804 134.508375 312.150605 134.508375 
" style="fill: none; stroke: #888888; stroke-width: 1.6; stroke-linecap: round"/>
    <path d="M 307.350605 132.108375 
L 312.150605 134.508375 
L 307.350605 136.908375 
z
" style="fill: #888888; stroke: #888888; stroke-width: 1.6; stroke-linecap: round"/>
   </g>
   <g id="text_5">
    <!-- 碰後 -->
    <g style="fill: #888888" transform="translate(561.256 191.457281) scale(0.1 -0.1)">
     <defs>
      <path id="NotoSansCJKjp-Regular-43f2" d="M 1562 5376 
C 1280 4922 710 4371 211 4032 
C 288 3949 416 3776 474 3680 
C 1024 4070 1619 4666 1997 5203 
L 1562 5376 
z
M 1933 2944 
L 1978 2509 
L 3456 2554 
C 3072 1984 2470 1485 1862 1152 
C 1965 1069 2125 883 2189 787 
C 2451 947 2714 1139 2963 1357 
C 3168 1062 3418 794 3699 557 
C 3142 230 2490 13 1843 -115 
C 1933 -218 2035 -410 2080 -531 
C 2784 -365 3482 -109 4083 269 
C 4614 -90 5248 -358 5939 -518 
C 6003 -397 6125 -211 6234 -109 
C 5581 19 4979 243 4467 544 
C 4934 909 5318 1363 5562 1926 
L 5254 2074 
L 5171 2054 
L 3629 2054 
C 3763 2221 3885 2394 3994 2573 
L 5542 2624 
C 5664 2451 5760 2291 5824 2157 
L 6227 2394 
C 6029 2784 5568 3366 5165 3782 
L 4787 3584 
C 4947 3411 5114 3213 5261 3014 
L 3539 2976 
C 4141 3469 4794 4102 5306 4653 
L 4870 4890 
C 4570 4512 4147 4064 3712 3654 
C 3565 3808 3360 3981 3142 4154 
C 3437 4435 3776 4813 4058 5158 
L 3629 5376 
C 3430 5082 3110 4691 2822 4390 
L 2445 4653 
L 2150 4339 
C 2579 4058 3072 3661 3379 3347 
C 3226 3206 3072 3078 2931 2963 
L 1933 2944 
z
M 3258 1638 
L 3290 1670 
L 4915 1670 
C 4704 1338 4416 1043 4077 800 
C 3744 1043 3469 1325 3258 1638 
z
M 1715 4070 
C 1338 3392 723 2726 134 2285 
C 218 2189 358 1958 410 1862 
C 646 2054 896 2291 1133 2547 
L 1133 -531 
L 1587 -531 
L 1587 3085 
C 1798 3354 1984 3635 2144 3917 
L 1715 4070 
z
" transform="scale(0.015625)"/>
     </defs>
     <use xlink:href="#NotoSansCJKjp-Regular-6f9a"/>
     <use xlink:href="#NotoSansCJKjp-Regular-43f2" transform="translate(100 0)"/>
    </g>
   </g>
   <g id="text_6">
    <!-- 停下 -->
    <g style="fill: #1f6feb" transform="translate(368.648 145.553011) scale(0.1 -0.1)">
     <defs>
      <path id="NotoSansCJKjp-Regular-28a5" d="M 2970 3635 
L 5139 3635 
L 5139 3046 
L 2970 3046 
L 2970 3635 
z
M 2509 3981 
L 2509 2694 
L 5619 2694 
L 5619 3981 
L 2509 3981 
z
M 1907 2330 
L 1907 1222 
L 2336 1222 
L 2336 1939 
L 5728 1939 
L 5728 1229 
L 6176 1229 
L 6176 2330 
L 1907 2330 
z
M 3795 5350 
L 3795 4755 
L 2010 4755 
L 2010 4333 
L 6112 4333 
L 6112 4755 
L 4275 4755 
L 4275 5350 
L 3795 5350 
z
M 2637 1510 
L 2637 1107 
L 3795 1107 
L 3795 13 
C 3795 -64 3776 -83 3674 -90 
C 3571 -96 3232 -96 2854 -83 
C 2918 -218 2989 -390 3002 -518 
C 3488 -518 3808 -518 4019 -448 
C 4218 -384 4275 -256 4275 6 
L 4275 1107 
L 5491 1107 
L 5491 1510 
L 2637 1510 
z
M 1690 5350 
C 1331 4378 736 3418 102 2797 
C 192 2688 326 2438 371 2323 
C 595 2554 813 2822 1024 3117 
L 1024 -499 
L 1485 -499 
L 1485 3840 
C 1734 4282 1965 4749 2144 5216 
L 1690 5350 
z
" transform="scale(0.015625)"/>
      <path id="NotoSansCJKjp-Regular-2516" d="M 352 4902 
L 352 4422 
L 2822 4422 
L 2822 -506 
L 3328 -506 
L 3328 2886 
C 4064 2490 4922 1958 5370 1600 
L 5709 2035 
C 5197 2426 4179 3002 3418 3373 
L 3328 3270 
L 3328 4422 
L 6054 4422 
L 6054 4902 
L 352 4902 
z
" transform="scale(0.015625)"/>
     </defs>
     <use xlink:href="#NotoSansCJKjp-Regular-28a5"/>
     <use xlink:href="#NotoSansCJKjp-Regular-2516" transform="translate(100 0)"/>
    </g>
   </g>
   <g id="text_7">
    <!-- $v$ -->
    <g style="fill: #d1242f" transform="translate(467.609 146.588446) scale(0.11 -0.11)">
     <use xlink:href="#Cmmi10-38" transform="translate(0 0.71875)"/>
    </g>
   </g>
   <g id="patch_3">
    <path d="M 103.68 121.392869 
C 109.053227 121.392869 114.207104 119.86547 118.006549 117.147064 
C 121.805994 114.428658 123.9408 110.741191 123.9408 106.896784 
C 123.9408 103.052377 121.805994 99.36491 118.006549 96.646504 
C 114.207104 93.928098 109.053227 92.400699 103.68 92.400699 
C 98.306773 92.400699 93.152896 93.928098 89.353451 96.646504 
C 85.554006 99.36491 83.4192 103.052377 83.4192 106.896784 
C 83.4192 110.741191 85.554006 114.428658 89.353451 117.147064 
C 93.152896 119.86547 98.306773 121.392869 103.68 121.392869 
z
" clip-path="url(#pff2aeb33fd)" style="fill: #1f6feb; stroke: #222831; stroke-width: 1.4; stroke-linejoin: miter"/>
   </g>
   <g id="patch_4">
    <path d="M 219.456 121.392869 
C 224.829227 121.392869 229.983104 119.86547 233.782549 117.147064 
C 237.581994 114.428658 239.7168 110.741191 239.7168 106.896784 
C 239.7168 103.052377 237.581994 99.36491 233.782549 96.646504 
C 229.983104 93.928098 224.829227 92.400699 219.456 92.400699 
C 214.082773 92.400699 208.928896 93.928098 205.129451 96.646504 
C 201.330006 99.36491 199.1952 103.052377 199.1952 106.896784 
C 199.1952 110.741191 201.330006 114.428658 205.129451 117.147064 
C 208.928896 119.86547 214.082773 121.392869 219.456 121.392869 
z
" clip-path="url(#pff2aeb33fd)" style="fill: #d1242f; stroke: #222831; stroke-width: 1.4; stroke-linejoin: miter"/>
   </g>
   <g id="patch_5">
    <path d="M 378.648 180.0675 
C 384.021227 180.0675 389.175104 178.540101 392.974549 175.821695 
C 396.773994 173.103289 398.9088 169.415822 398.9088 165.571415 
C 398.9088 161.727008 396.773994 158.039541 392.974549 155.321135 
C 389.175104 152.602729 384.021227 151.07533 378.648 151.07533 
C 373.274773 151.07533 368.120896 152.602729 364.321451 155.321135 
C 360.522006 158.039541 358.3872 161.727008 358.3872 165.571415 
C 358.3872 169.415822 360.522006 173.103289 364.321451 175.821695 
C 368.120896 178.540101 373.274773 180.0675 378.648 180.0675 
z
" clip-path="url(#pff2aeb33fd)" style="fill: #1f6feb; stroke: #222831; stroke-width: 1.4; stroke-linejoin: miter"/>
   </g>
   <g id="patch_6">
    <path d="M 470.304 180.0675 
C 475.677227 180.0675 480.831104 178.540101 484.630549 175.821695 
C 488.429994 173.103289 490.5648 169.415822 490.5648 165.571415 
C 490.5648 161.727008 488.429994 158.039541 484.630549 155.321135 
C 480.831104 152.602729 475.677227 151.07533 470.304 151.07533 
C 464.930773 151.07533 459.776896 152.602729 455.977451 155.321135 
C 452.178006 158.039541 450.0432 161.727008 450.0432 165.571415 
C 450.0432 169.415822 452.178006 173.103289 455.977451 175.821695 
C 459.776896 178.540101 464.930773 180.0675 470.304 180.0675 
z
" clip-path="url(#pff2aeb33fd)" style="fill: #d1242f; stroke: #222831; stroke-width: 1.4; stroke-linejoin: miter"/>
   </g>
   <g id="text_8">
    <!-- A -->
    <g style="fill: #ffffff" transform="translate(100.336172 111.076784) scale(0.11 -0.11)">
     <defs>
      <path id="NotoSansCJKjp-Regular-22" d="M 26 0 
L 621 0 
L 1075 1434 
L 2790 1434 
L 3238 0 
L 3866 0 
L 2272 4691 
L 1613 4691 
L 26 0 
z
M 1222 1901 
L 1453 2624 
C 1619 3155 1773 3661 1920 4211 
L 1946 4211 
C 2099 3667 2246 3155 2419 2624 
L 2643 1901 
L 1222 1901 
z
" transform="scale(0.015625)"/>
     </defs>
     <use xlink:href="#NotoSansCJKjp-Regular-22"/>
    </g>
   </g>
   <g id="patch_7">
    <path d="M 103.68 106.896784 
Q 137.448 106.896784 168.532718 106.896784 
" clip-path="url(#pff2aeb33fd)" style="fill: none; stroke: #1f6feb; stroke-width: 2.4; stroke-linecap: round"/>
    <path d="M 162.132718 103.696784 
L 168.532718 106.896784 
L 162.132718 110.096784 
z
" clip-path="url(#pff2aeb33fd)" style="fill: #1f6feb; stroke: #1f6feb; stroke-width: 2.4; stroke-linecap: round"/>
   </g>
   <g id="text_9">
    <!-- B -->
    <g style="fill: #ffffff" transform="translate(215.842328 111.076784) scale(0.11 -0.11)">
     <defs>
      <path id="NotoSansCJKjp-Regular-23" d="M 646 0 
L 2138 0 
C 3187 0 3917 454 3917 1376 
C 3917 2016 3520 2387 2963 2496 
L 2963 2528 
C 3405 2669 3648 3078 3648 3546 
C 3648 4371 2982 4691 2035 4691 
L 646 4691 
L 646 0 
z
M 1235 2701 
L 1235 4224 
L 1958 4224 
C 2694 4224 3066 4019 3066 3469 
C 3066 2989 2739 2701 1933 2701 
L 1235 2701 
z
M 1235 474 
L 1235 2240 
L 2054 2240 
C 2880 2240 3334 1978 3334 1395 
C 3334 762 2861 474 2054 474 
L 1235 474 
z
" transform="scale(0.015625)"/>
     </defs>
     <use xlink:href="#NotoSansCJKjp-Regular-23"/>
    </g>
   </g>
   <g id="text_10">
    <!-- A -->
    <g style="fill: #ffffff" transform="translate(375.304172 169.751415) scale(0.11 -0.11)">
     <use xlink:href="#NotoSansCJKjp-Regular-22"/>
    </g>
   </g>
   <g id="text_11">
    <!-- B -->
    <g style="fill: #ffffff" transform="translate(466.690328 169.751415) scale(0.11 -0.11)">
     <use xlink:href="#NotoSansCJKjp-Regular-23"/>
    </g>
   </g>
   <g id="patch_8">
    <path d="M 470.304 165.571415 
Q 504.072 165.571415 535.156718 165.571415 
" clip-path="url(#pff2aeb33fd)" style="fill: none; stroke: #d1242f; stroke-width: 2.4; stroke-linecap: round"/>
    <path d="M 528.756718 162.371415 
L 535.156718 165.571415 
L 528.756718 168.771415 
z
" clip-path="url(#pff2aeb33fd)" style="fill: #d1242f; stroke: #d1242f; stroke-width: 2.4; stroke-linecap: round"/>
   </g>
  </g>
  <g id="axes_2">
   <g id="line2d_2">
    <path d="M 7.2 299.332125 
L 586.08 299.332125 
" clip-path="url(#p7b874c638c)" style="fill: none; stroke: #222831; stroke-width: 1.4; stroke-linecap: square"/>
   </g>
   <g id="text_12">
    <!-- 完全非彈性碰撞（黏在一起，動能損失） -->
    <g style="fill: #222831" transform="translate(12.024 244.754597) scale(0.125 -0.125)">
     <defs>
      <path id="NotoSansCJKjp-Regular-3c6d" d="M 1459 3520 
L 1459 3078 
L 4941 3078 
L 4941 3520 
L 1459 3520 
z
M 358 2342 
L 358 1888 
L 2022 1888 
C 1907 915 1594 230 218 -115 
C 326 -211 454 -403 506 -525 
C 2010 -109 2394 717 2541 1888 
L 3661 1888 
L 3661 256 
C 3661 -256 3814 -397 4410 -397 
C 4531 -397 5274 -397 5395 -397 
C 5914 -397 6048 -179 6106 704 
C 5978 736 5773 813 5670 896 
C 5645 154 5606 45 5357 45 
C 5197 45 4582 45 4454 45 
C 4192 45 4147 77 4147 262 
L 4147 1888 
L 6035 1888 
L 6035 2342 
L 358 2342 
z
M 512 4691 
L 512 3334 
L 998 3334 
L 998 4230 
L 5382 4230 
L 5382 3334 
L 5894 3334 
L 5894 4691 
L 3437 4691 
L 3437 5376 
L 2931 5376 
L 2931 4691 
L 512 4691 
z
" transform="scale(0.015625)"/>
      <path id="NotoSansCJKjp-Regular-2a92" d="M 3174 4909 
C 3750 4102 4877 3155 5862 2579 
C 5952 2720 6067 2880 6182 3002 
C 5184 3501 4064 4442 3392 5389 
L 2906 5389 
C 2413 4550 1344 3533 237 2925 
C 346 2829 480 2656 544 2547 
C 1619 3174 2656 4128 3174 4909 
z
M 486 102 
L 486 -333 
L 5946 -333 
L 5946 102 
L 3430 102 
L 3430 1158 
L 5376 1158 
L 5376 1587 
L 3430 1587 
L 3430 2586 
L 5133 2586 
L 5133 3014 
L 1299 3014 
L 1299 2586 
L 2931 2586 
L 2931 1587 
L 1011 1587 
L 1011 1158 
L 2931 1158 
L 2931 102 
L 486 102 
z
" transform="scale(0.015625)"/>
      <path id="NotoSansCJKjp-Regular-aa9c" d="M 3693 5344 
L 3693 -512 
L 4173 -512 
L 4173 1043 
L 6131 1043 
L 6131 1498 
L 4173 1498 
L 4173 2522 
L 5888 2522 
L 5888 2963 
L 4173 2963 
L 4173 3949 
L 6022 3949 
L 6022 4403 
L 4173 4403 
L 4173 5344 
L 3693 5344 
z
M 2163 5344 
L 2163 4403 
L 493 4403 
L 493 3949 
L 2163 3949 
L 2163 2963 
L 563 2963 
L 563 2522 
L 2163 2522 
L 2163 2355 
C 2163 2163 2144 1914 2086 1651 
C 1382 1536 730 1434 256 1363 
L 352 890 
L 1933 1178 
C 1709 653 1286 122 493 -218 
C 602 -314 762 -467 838 -582 
C 1811 -122 2272 602 2477 1274 
L 3155 1402 
L 3136 1830 
L 2579 1734 
C 2618 1958 2630 2170 2630 2355 
L 2630 5344 
L 2163 5344 
z
" transform="scale(0.015625)"/>
      <path id="NotoSansCJKjp-Regular-b7a5" d="M 339 237 
L 518 -128 
C 832 38 1178 211 1523 403 
L 1440 723 
C 1024 531 634 346 339 237 
z
M 704 1402 
C 883 1242 1088 1005 1184 845 
L 1466 1062 
C 1370 1210 1158 1440 973 1594 
L 704 1402 
z
M 2701 1658 
C 2579 1472 2342 1203 2176 1043 
L 2458 858 
C 2630 1011 2848 1229 3027 1446 
L 2701 1658 
z
M 2906 5350 
C 2323 5203 1299 5082 429 5024 
C 474 4922 525 4774 544 4678 
C 896 4698 1274 4723 1645 4762 
L 1645 4326 
L 339 4326 
L 339 3936 
L 1370 3936 
C 1075 3546 602 3149 192 2950 
C 307 2874 442 2733 518 2630 
C 902 2867 1344 3270 1645 3661 
L 1645 2861 
C 1357 2438 851 1965 173 1613 
C 275 1549 416 1395 486 1293 
C 1139 1664 1606 2112 1939 2496 
C 2317 2189 2726 1760 2957 1498 
L 3232 1824 
C 2982 2112 2490 2547 2080 2867 
L 2080 3482 
C 2445 3283 2938 2995 3155 2848 
L 3398 3187 
C 3181 3315 2374 3712 2080 3846 
L 2080 3936 
L 3366 3936 
L 3366 4326 
L 2080 4326 
L 2080 4813 
C 2490 4864 2874 4928 3194 5011 
L 2906 5350 
z
M 1651 1894 
L 1651 -64 
C 1651 -122 1632 -141 1568 -141 
C 1504 -147 1312 -147 1101 -141 
C 1146 -243 1203 -390 1229 -499 
C 1555 -499 1760 -493 1901 -435 
C 2042 -378 2080 -275 2080 -70 
L 2080 493 
C 2400 326 2784 64 2989 -115 
L 3219 198 
C 3014 371 2605 614 2285 774 
L 2080 518 
L 2080 1894 
L 1651 1894 
z
M 3386 2253 
L 3386 -512 
L 3846 -512 
L 3846 -205 
L 5517 -205 
L 5517 -480 
L 5990 -480 
L 5990 2253 
L 4819 2253 
L 4819 3603 
L 6163 3603 
L 6163 4058 
L 4819 4058 
L 4819 5370 
L 4352 5370 
L 4352 2253 
L 3386 2253 
z
M 3846 250 
L 3846 1805 
L 5517 1805 
L 5517 250 
L 3846 250 
z
" transform="scale(0.015625)"/>
      <path id="NotoSansCJKjp-Regular-33c7" d="M 2502 5376 
C 2413 5050 2298 4710 2163 4384 
L 403 4384 
L 403 3923 
L 1952 3923 
C 1542 3104 979 2342 243 1830 
C 320 1722 442 1517 493 1389 
C 762 1581 1011 1798 1235 2035 
L 1235 -486 
L 1715 -486 
L 1715 2605 
C 2016 3014 2278 3462 2496 3923 
L 6010 3923 
L 6010 4384 
L 2694 4384 
C 2810 4672 2912 4966 3002 5254 
L 2502 5376 
z
M 3827 3590 
L 3827 2355 
L 2387 2355 
L 2387 1907 
L 3827 1907 
L 3827 90 
L 2131 90 
L 2131 -358 
L 6003 -358 
L 6003 90 
L 4307 90 
L 4307 1907 
L 5760 1907 
L 5760 2355 
L 4307 2355 
L 4307 3590 
L 3827 3590 
z
" transform="scale(0.015625)"/>
      <path id="NotoSansCJKjp-Regular-2509" d="M 282 2758 
L 282 2234 
L 6144 2234 
L 6144 2758 
L 282 2758 
z
" transform="scale(0.015625)"/>
      <path id="NotoSansCJKjp-Regular-98af" d="M 634 2477 
C 614 1338 544 307 166 -339 
C 282 -390 493 -506 576 -563 
C 762 -211 883 237 960 742 
C 1421 -134 2189 -346 3552 -346 
L 6016 -346 
C 6048 -205 6131 19 6214 128 
C 5811 109 3859 109 3546 115 
C 2944 115 2470 160 2099 301 
L 2099 1606 
L 3142 1606 
L 3142 2029 
L 2099 2029 
L 2099 2982 
L 3206 2982 
L 3206 3418 
L 1997 3418 
L 1997 4224 
L 3046 4224 
L 3046 4653 
L 1997 4653 
L 1997 5370 
L 1542 5370 
L 1542 4653 
L 474 4653 
L 474 4224 
L 1542 4224 
L 1542 3418 
L 307 3418 
L 307 2982 
L 1658 2982 
L 1658 544 
C 1382 762 1190 1088 1043 1562 
C 1062 1843 1082 2138 1088 2445 
L 634 2477 
z
M 3507 3302 
L 3507 1210 
C 3507 666 3686 525 4288 525 
C 4416 525 5274 525 5414 525 
C 5958 525 6099 762 6157 1670 
C 6029 1702 5830 1779 5728 1862 
C 5696 1088 5658 960 5382 960 
C 5184 960 4474 960 4333 960 
C 4026 960 3968 998 3968 1210 
L 3968 2874 
L 5331 2874 
L 5331 2714 
L 5792 2714 
L 5792 5069 
L 3443 5069 
L 3443 4646 
L 5331 4646 
L 5331 3302 
L 3507 3302 
z
" transform="scale(0.015625)"/>
      <path id="NotoSansCJKjp-Regular-e6b2" d="M 1005 -685 
C 1677 -448 2112 77 2112 768 
C 2112 1216 1920 1504 1568 1504 
C 1306 1504 1082 1344 1082 1043 
C 1082 742 1299 589 1562 589 
L 1670 602 
C 1638 160 1357 -141 864 -346 
L 1005 -685 
z
" transform="scale(0.015625)"/>
      <path id="NotoSansCJKjp-Regular-4b87" d="M 3315 4794 
L 5242 4794 
L 5242 4128 
L 3315 4128 
L 3315 4794 
z
M 2874 5152 
L 2874 3776 
L 5709 3776 
L 5709 5152 
L 2874 5152 
z
M 4595 314 
C 5018 64 5472 -269 5728 -518 
L 6202 -269 
C 5907 -13 5408 320 4954 576 
L 4595 314 
z
M 3155 2253 
L 5395 2253 
L 5395 1773 
L 3155 1773 
L 3155 2253 
z
M 3155 1427 
L 5395 1427 
L 5395 947 
L 3155 947 
L 3155 1427 
z
M 3155 3066 
L 5395 3066 
L 5395 2598 
L 3155 2598 
L 3155 3066 
z
M 2701 3430 
L 2701 589 
L 3418 589 
C 3130 320 2528 0 2035 -173 
C 2138 -269 2285 -422 2355 -518 
C 2867 -326 3488 0 3859 326 
L 3437 589 
L 5869 589 
L 5869 3430 
L 2701 3430 
z
M 1197 5376 
L 1197 4083 
L 282 4083 
L 282 3629 
L 1197 3629 
L 1197 2259 
L 179 1984 
L 320 1517 
L 1197 1779 
L 1197 51 
C 1197 -38 1158 -64 1075 -70 
C 992 -70 723 -70 435 -64 
C 499 -192 563 -390 582 -506 
C 1011 -512 1267 -493 1440 -422 
C 1600 -346 1664 -218 1664 58 
L 1664 1920 
L 2477 2170 
L 2419 2618 
L 1664 2394 
L 1664 3629 
L 2406 3629 
L 2406 4083 
L 1664 4083 
L 1664 5376 
L 1197 5376 
z
" transform="scale(0.015625)"/>
      <path id="NotoSansCJKjp-Regular-370a" d="M 2918 5376 
L 2918 4256 
L 1690 4256 
C 1811 4550 1920 4864 2010 5184 
L 1510 5286 
C 1280 4416 883 3558 384 3014 
C 506 2963 742 2835 845 2765 
C 1069 3040 1280 3386 1472 3770 
L 2918 3770 
L 2918 3386 
C 2918 3091 2906 2790 2854 2496 
L 346 2496 
L 346 2016 
L 2746 2016 
C 2477 1184 1824 422 269 -102 
C 371 -198 512 -403 570 -518 
C 2208 45 2918 883 3213 1805 
C 3712 614 4557 -166 5894 -512 
C 5965 -384 6106 -179 6214 -77 
C 4909 218 4064 934 3622 2016 
L 6061 2016 
L 6061 2496 
L 3366 2496 
C 3405 2790 3418 3091 3418 3386 
L 3418 3770 
L 5523 3770 
L 5523 4256 
L 3418 4256 
L 3418 5376 
L 2918 5376 
z
" transform="scale(0.015625)"/>
     </defs>
     <use xlink:href="#NotoSansCJKjp-Regular-3c6d"/>
     <use xlink:href="#NotoSansCJKjp-Regular-2a92" transform="translate(100 0)"/>
     <use xlink:href="#NotoSansCJKjp-Regular-aa9c" transform="translate(200 0)"/>
     <use xlink:href="#NotoSansCJKjp-Regular-4379" transform="translate(300 0)"/>
     <use xlink:href="#NotoSansCJKjp-Regular-44ea" transform="translate(400 0)"/>
     <use xlink:href="#NotoSansCJKjp-Regular-6f9a" transform="translate(500 0)"/>
     <use xlink:href="#NotoSansCJKjp-Regular-4c95" transform="translate(600 0)"/>
     <use xlink:href="#NotoSansCJKjp-Regular-e6ae" transform="translate(700 0)"/>
     <use xlink:href="#NotoSansCJKjp-Regular-b7a5" transform="translate(800 0)"/>
     <use xlink:href="#NotoSansCJKjp-Regular-33c7" transform="translate(900 0)"/>
     <use xlink:href="#NotoSansCJKjp-Regular-2509" transform="translate(1000 0)"/>
     <use xlink:href="#NotoSansCJKjp-Regular-98af" transform="translate(1100 0)"/>
     <use xlink:href="#NotoSansCJKjp-Regular-e6b2" transform="translate(1200 0)"/>
     <use xlink:href="#NotoSansCJKjp-Regular-2cc2" transform="translate(1300 0)"/>
     <use xlink:href="#NotoSansCJKjp-Regular-8006" transform="translate(1400 0)"/>
     <use xlink:href="#NotoSansCJKjp-Regular-4b87" transform="translate(1500 0)"/>
     <use xlink:href="#NotoSansCJKjp-Regular-370a" transform="translate(1600 0)"/>
     <use xlink:href="#NotoSansCJKjp-Regular-e6af" transform="translate(1700 0)"/>
    </g>
   </g>
   <g id="text_13">
    <!-- 碰前 -->
    <g style="fill: #888888" transform="translate(561.256 245.834668) scale(0.1 -0.1)">
     <use xlink:href="#NotoSansCJKjp-Regular-6f9a"/>
     <use xlink:href="#NotoSansCJKjp-Regular-2be5" transform="translate(100 0)"/>
    </g>
   </g>
   <g id="text_14">
    <!-- $v$ -->
    <g style="fill: #1f6feb" transform="translate(100.985 252.737565) scale(0.11 -0.11)">
     <use xlink:href="#Cmmi10-38" transform="translate(0 0.71875)"/>
    </g>
   </g>
   <g id="text_15">
    <!-- 靜止 -->
    <g style="fill: #d1242f" transform="translate(209.456 252.737565) scale(0.1 -0.1)">
     <use xlink:href="#NotoSansCJKjp-Regular-aa97"/>
     <use xlink:href="#NotoSansCJKjp-Regular-585b" transform="translate(100 0)"/>
    </g>
   </g>
   <g id="patch_9">
    <path d="M 279.346148 299.332125 
Q 296.642804 299.332125 312.150605 299.332125 
" style="fill: none; stroke: #888888; stroke-width: 1.6; stroke-linecap: round"/>
    <path d="M 307.350605 296.932125 
L 312.150605 299.332125 
L 307.350605 301.732125 
z
" style="fill: #888888; stroke: #888888; stroke-width: 1.6; stroke-linecap: round"/>
   </g>
   <g id="text_16">
    <!-- 碰後 -->
    <g style="fill: #888888" transform="translate(561.256 356.281031) scale(0.1 -0.1)">
     <use xlink:href="#NotoSansCJKjp-Regular-6f9a"/>
     <use xlink:href="#NotoSansCJKjp-Regular-43f2" transform="translate(100 0)"/>
    </g>
   </g>
   <g id="text_17">
    <!-- $v'&lt;v$ -->
    <g style="fill: #8250df" transform="translate(425.6254 311.412196) scale(0.11 -0.11)">
     <defs>
      <path id="Cmsy10-49" d="M 225 347 
Q 184 359 184 409 
L 966 3316 
Q 1003 3434 1093 3506 
Q 1184 3578 1300 3578 
Q 1450 3578 1564 3479 
Q 1678 3381 1678 3231 
Q 1678 3166 1644 3084 
L 488 319 
Q 466 275 428 275 
Q 394 275 320 306 
Q 247 338 225 347 
z
" transform="scale(0.015625)"/>
      <path id="Cmmi10-63" d="M 594 1491 
Q 531 1519 531 1600 
Q 531 1681 616 1722 
L 4269 3444 
Q 4294 3456 4313 3456 
Q 4369 3456 4405 3417 
Q 4441 3378 4441 3328 
Q 4441 3250 4366 3206 
L 959 1600 
L 4384 -19 
Q 4441 -38 4441 -128 
Q 4441 -178 4405 -217 
Q 4369 -256 4313 -256 
Q 4294 -256 4269 -244 
L 594 1491 
z
" transform="scale(0.015625)"/>
     </defs>
     <use xlink:href="#Cmmi10-38" transform="translate(0 0.576391)"/>
     <use xlink:href="#Cmsy10-49" transform="translate(59.668541 41.865625) scale(0.7)"/>
     <use xlink:href="#Cmmi10-63" transform="translate(104.632178 0.576391)"/>
     <use xlink:href="#Cmmi10-38" transform="translate(202.317782 0.576391)"/>
    </g>
   </g>
   <g id="patch_10">
    <path d="M 103.68 286.216619 
C 109.053227 286.216619 114.207104 284.68922 118.006549 281.970814 
C 121.805994 279.252408 123.9408 275.564941 123.9408 271.720534 
C 123.9408 267.876127 121.805994 264.18866 118.006549 261.470254 
C 114.207104 258.751848 109.053227 257.224449 103.68 257.224449 
C 98.306773 257.224449 93.152896 258.751848 89.353451 261.470254 
C 85.554006 264.18866 83.4192 267.876127 83.4192 271.720534 
C 83.4192 275.564941 85.554006 279.252408 89.353451 281.970814 
C 93.152896 284.68922 98.306773 286.216619 103.68 286.216619 
z
" clip-path="url(#p7b874c638c)" style="fill: #1f6feb; stroke: #222831; stroke-width: 1.4; stroke-linejoin: miter"/>
   </g>
   <g id="patch_11">
    <path d="M 219.456 286.216619 
C 224.829227 286.216619 229.983104 284.68922 233.782549 281.970814 
C 237.581994 279.252408 239.7168 275.564941 239.7168 271.720534 
C 239.7168 267.876127 237.581994 264.18866 233.782549 261.470254 
C 229.983104 258.751848 224.829227 257.224449 219.456 257.224449 
C 214.082773 257.224449 208.928896 258.751848 205.129451 261.470254 
C 201.330006 264.18866 199.1952 267.876127 199.1952 271.720534 
C 199.1952 275.564941 201.330006 279.252408 205.129451 281.970814 
C 208.928896 284.68922 214.082773 286.216619 219.456 286.216619 
z
" clip-path="url(#p7b874c638c)" style="fill: #d1242f; stroke: #222831; stroke-width: 1.4; stroke-linejoin: miter"/>
   </g>
   <g id="patch_12">
    <path d="M 407.592 344.89125 
C 412.965227 344.89125 418.119104 343.363851 421.918549 340.645445 
C 425.717994 337.927039 427.8528 334.239572 427.8528 330.395165 
C 427.8528 326.550758 425.717994 322.863291 421.918549 320.144885 
C 418.119104 317.426479 412.965227 315.89908 407.592 315.89908 
C 402.218773 315.89908 397.064896 317.426479 393.265451 320.144885 
C 389.466006 322.863291 387.3312 326.550758 387.3312 330.395165 
C 387.3312 334.239572 389.466006 337.927039 393.265451 340.645445 
C 397.064896 343.363851 402.218773 344.89125 407.592 344.89125 
z
" clip-path="url(#p7b874c638c)" style="fill: #1f6feb; stroke: #222831; stroke-width: 1.4; stroke-linejoin: miter"/>
   </g>
   <g id="patch_13">
    <path d="M 439.4304 344.89125 
C 444.803627 344.89125 449.957504 343.363851 453.756949 340.645445 
C 457.556394 337.927039 459.6912 334.239572 459.6912 330.395165 
C 459.6912 326.550758 457.556394 322.863291 453.756949 320.144885 
C 449.957504 317.426479 444.803627 315.89908 439.4304 315.89908 
C 434.057173 315.89908 428.903296 317.426479 425.103851 320.144885 
C 421.304406 322.863291 419.1696 326.550758 419.1696 330.395165 
C 419.1696 334.239572 421.304406 337.927039 425.103851 340.645445 
C 428.903296 343.363851 434.057173 344.89125 439.4304 344.89125 
z
" clip-path="url(#p7b874c638c)" style="fill: #d1242f; stroke: #222831; stroke-width: 1.4; stroke-linejoin: miter"/>
   </g>
   <g id="text_18">
    <!-- A -->
    <g style="fill: #ffffff" transform="translate(100.336172 275.900534) scale(0.11 -0.11)">
     <use xlink:href="#NotoSansCJKjp-Regular-22"/>
    </g>
   </g>
   <g id="patch_14">
    <path d="M 103.68 271.720534 
Q 137.448 271.720534 168.532718 271.720534 
" clip-path="url(#p7b874c638c)" style="fill: none; stroke: #1f6feb; stroke-width: 2.4; stroke-linecap: round"/>
    <path d="M 162.132718 268.520534 
L 168.532718 271.720534 
L 162.132718 274.920534 
z
" clip-path="url(#p7b874c638c)" style="fill: #1f6feb; stroke: #1f6feb; stroke-width: 2.4; stroke-linecap: round"/>
   </g>
   <g id="text_19">
    <!-- B -->
    <g style="fill: #ffffff" transform="translate(215.842328 275.900534) scale(0.11 -0.11)">
     <use xlink:href="#NotoSansCJKjp-Regular-23"/>
    </g>
   </g>
   <g id="text_20">
    <!-- A -->
    <g style="fill: #ffffff" transform="translate(404.248172 334.575165) scale(0.11 -0.11)">
     <use xlink:href="#NotoSansCJKjp-Regular-22"/>
    </g>
   </g>
   <g id="text_21">
    <!-- B -->
    <g style="fill: #ffffff" transform="translate(435.816728 334.575165) scale(0.11 -0.11)">
     <use xlink:href="#NotoSansCJKjp-Regular-23"/>
    </g>
   </g>
   <g id="patch_15">
    <path d="M 439.4304 330.395165 
Q 461.1384 330.395165 480.163118 330.395165 
" clip-path="url(#p7b874c638c)" style="fill: none; stroke: #8250df; stroke-width: 2.4; stroke-linecap: round"/>
    <path d="M 473.763118 327.195165 
L 480.163118 330.395165 
L 473.763118 333.595165 
z
" clip-path="url(#p7b874c638c)" style="fill: #8250df; stroke: #8250df; stroke-width: 2.4; stroke-linecap: round"/>
   </g>
  </g>
  <g id="text_22">
   <!-- 一維碰撞：碰前後速度（動量都守恆，動能不一定） -->
   <g style="fill: #222831" transform="translate(141.39 19.08) scale(0.135 -0.135)">
    <defs>
     <path id="NotoSansCJKjp-Regular-79b4" d="M 1914 1632 
C 2080 1242 2221 723 2259 390 
L 2637 512 
C 2592 838 2451 1350 2272 1734 
L 1914 1632 
z
M 570 1715 
C 493 1158 378 582 166 192 
C 269 154 454 70 538 13 
C 736 422 890 1043 973 1651 
L 570 1715 
z
M 3475 2394 
L 4422 2394 
L 4422 1555 
L 3475 1555 
L 3475 2394 
z
M 3475 2822 
L 3475 3654 
L 4422 3654 
L 4422 2822 
L 3475 2822 
z
M 3475 1126 
L 4422 1126 
L 4422 243 
L 3475 243 
L 3475 1126 
z
M 4928 5280 
C 4819 4928 4621 4442 4435 4083 
L 3475 4083 
C 3680 4474 3853 4877 3987 5254 
L 3526 5382 
C 3296 4634 2829 3693 2291 3098 
C 2381 3014 2522 2861 2598 2765 
C 2746 2931 2893 3123 3027 3322 
L 3027 -518 
L 3475 -518 
L 3475 -192 
L 6170 -192 
L 6170 243 
L 4864 243 
L 4864 1126 
L 5882 1126 
L 5882 1555 
L 4864 1555 
L 4864 2394 
L 5850 2394 
L 5850 2822 
L 4864 2822 
L 4864 3654 
L 6042 3654 
L 6042 4083 
L 4909 4083 
C 5082 4403 5267 4800 5427 5158 
L 4928 5280 
z
M 179 2547 
L 237 2118 
L 1248 2182 
L 1248 -512 
L 1670 -512 
L 1670 2208 
L 2176 2240 
C 2234 2086 2285 1946 2310 1824 
L 2694 2003 
C 2598 2349 2342 2906 2074 3322 
L 1722 3181 
C 1824 3014 1920 2829 2010 2637 
L 1088 2592 
C 1517 3136 2010 3866 2374 4454 
L 1971 4646 
C 1792 4301 1549 3878 1286 3475 
C 1190 3610 1075 3750 941 3898 
C 1178 4256 1459 4781 1677 5216 
L 1254 5376 
C 1120 5018 890 4531 685 4166 
L 486 4346 
L 237 4038 
C 525 3763 845 3398 1037 3104 
C 896 2912 762 2726 634 2566 
L 179 2547 
z
" transform="scale(0.015625)"/>
     <path id="NotoSansCJKjp-Regular-e6c0" d="M 3200 3482 
C 3456 3482 3686 3667 3686 3962 
C 3686 4256 3456 4442 3200 4442 
C 2944 4442 2714 4256 2714 3962 
C 2714 3667 2944 3482 3200 3482 
z
M 3200 346 
C 3456 346 3686 538 3686 826 
C 3686 1120 3456 1312 3200 1312 
C 2944 1312 2714 1120 2714 826 
C 2714 538 2944 346 3200 346 
z
" transform="scale(0.015625)"/>
     <path id="NotoSansCJKjp-Regular-9d6d" d="M 384 4934 
C 794 4646 1274 4218 1478 3904 
L 1862 4224 
C 1632 4531 1152 4947 730 5222 
L 384 4934 
z
M 1677 2848 
L 314 2848 
L 314 2400 
L 1210 2400 
L 1210 768 
C 890 499 518 230 230 32 
L 480 -461 
C 826 -173 1152 102 1459 378 
C 1869 -128 2445 -358 3283 -390 
C 3994 -416 5318 -403 6016 -371 
C 6035 -224 6118 6 6176 115 
C 5414 64 3981 45 3283 77 
C 2541 102 1978 326 1677 794 
L 1677 2848 
z
M 2752 3379 
L 3757 3379 
L 3757 2560 
L 2752 2560 
L 2752 3379 
z
M 4224 3379 
L 5286 3379 
L 5286 2560 
L 4224 2560 
L 4224 3379 
z
M 3757 5370 
L 3757 4710 
L 2035 4710 
L 2035 4294 
L 3757 4294 
L 3757 3763 
L 2304 3763 
L 2304 2176 
L 3501 2176 
C 3130 1638 2502 1120 1920 870 
C 2022 781 2163 621 2227 506 
C 2778 787 3360 1306 3757 1875 
L 3757 314 
L 4224 314 
L 4224 1850 
C 4640 1318 5235 800 5754 525 
C 5824 640 5971 806 6080 896 
C 5510 1146 4845 1658 4442 2176 
L 5754 2176 
L 5754 3763 
L 4224 3763 
L 4224 4294 
L 6048 4294 
L 6048 4710 
L 4224 4710 
L 4224 5370 
L 3757 5370 
z
" transform="scale(0.015625)"/>
     <path id="NotoSansCJKjp-Regular-4231" d="M 2470 4141 
L 2470 3584 
L 1440 3584 
L 1440 3187 
L 2470 3187 
L 2470 2125 
L 4960 2125 
L 4960 3187 
L 5997 3187 
L 5997 3584 
L 4960 3584 
L 4960 4141 
L 4486 4141 
L 4486 3584 
L 2931 3584 
L 2931 4141 
L 2470 4141 
z
M 4486 3187 
L 4486 2509 
L 2931 2509 
L 2931 3187 
L 4486 3187 
z
M 4851 1318 
C 4582 986 4211 717 3770 506 
C 3334 723 2970 992 2720 1318 
L 4851 1318 
z
M 1530 1715 
L 1530 1318 
L 2502 1318 
L 2259 1222 
C 2515 858 2861 550 3270 301 
C 2662 90 1978 -38 1280 -109 
C 1357 -211 1453 -397 1485 -512 
C 2291 -416 3072 -243 3757 45 
C 4365 -237 5088 -422 5869 -525 
C 5933 -403 6048 -211 6150 -109 
C 5466 -38 4819 96 4269 294 
C 4813 608 5261 1024 5549 1574 
L 5248 1734 
L 5165 1715 
L 1530 1715 
z
M 774 4742 
L 774 2893 
C 774 1965 730 659 198 -256 
C 314 -307 512 -435 595 -518 
C 1152 448 1235 1901 1235 2893 
L 1235 4307 
L 6035 4307 
L 6035 4742 
L 3635 4742 
L 3635 5376 
L 3142 5376 
L 3142 4742 
L 774 4742 
z
" transform="scale(0.015625)"/>
     <path id="NotoSansCJKjp-Regular-9f49" d="M 3251 5158 
C 3123 4851 2976 4563 2810 4288 
L 2810 4634 
L 2003 4634 
L 2003 5325 
L 1555 5325 
L 1555 4634 
L 570 4634 
L 570 4205 
L 1555 4205 
L 1555 3437 
L 275 3437 
L 275 3008 
L 1811 3008 
C 1318 2522 755 2118 134 1811 
C 224 1722 378 1523 435 1421 
C 614 1517 787 1619 954 1734 
L 954 -480 
L 1389 -480 
L 1389 -102 
L 2835 -102 
L 2835 -390 
L 3296 -390 
L 3296 2387 
L 1798 2387 
C 2016 2579 2221 2790 2413 3008 
L 3584 3008 
L 3584 3437 
L 2758 3437 
C 3123 3917 3430 4448 3686 5024 
L 3251 5158 
z
M 2003 4205 
L 2758 4205 
C 2592 3936 2406 3680 2202 3437 
L 2003 3437 
L 2003 4205 
z
M 1389 301 
L 1389 979 
L 2835 979 
L 2835 301 
L 1389 301 
z
M 1389 1363 
L 1389 1990 
L 2835 1990 
L 2835 1363 
L 1389 1363 
z
M 3859 5011 
L 3859 -512 
L 4333 -512 
L 4333 4557 
L 5530 4557 
C 5318 4045 5030 3354 4742 2810 
C 5414 2253 5619 1766 5619 1357 
C 5626 1126 5574 941 5427 851 
C 5344 806 5242 781 5126 781 
C 4986 768 4794 774 4582 794 
C 4666 659 4717 454 4723 320 
C 4928 307 5152 307 5325 326 
C 5491 346 5638 397 5760 474 
C 5990 621 6086 922 6086 1318 
C 6086 1773 5914 2278 5235 2874 
C 5549 3469 5901 4205 6163 4813 
L 5818 5030 
L 5741 5011 
L 3859 5011 
z
" transform="scale(0.015625)"/>
     <path id="NotoSansCJKjp-Regular-2518" d="M 3578 3059 
C 4339 2547 5299 1792 5754 1299 
L 6144 1670 
C 5664 2163 4691 2880 3936 3366 
L 3578 3059 
z
M 442 4928 
L 442 4435 
L 3290 4435 
C 2656 3341 1555 2259 282 1632 
C 384 1523 531 1331 608 1210 
C 1498 1677 2291 2336 2938 3078 
L 2938 -499 
L 3456 -499 
L 3456 3738 
C 3622 3962 3770 4198 3904 4435 
L 5958 4435 
L 5958 4928 
L 442 4928 
z
" transform="scale(0.015625)"/>
     <path id="NotoSansCJKjp-Regular-3c8a" d="M 1421 2413 
C 1286 1248 934 333 224 -218 
C 339 -294 538 -461 621 -544 
C 1037 -179 1350 307 1574 896 
C 2163 -198 3117 -422 4454 -422 
L 5952 -422 
C 5971 -282 6061 -51 6131 64 
C 5818 58 4717 58 4480 58 
C 4109 58 3757 77 3443 134 
L 3443 1440 
L 5350 1440 
L 5350 1888 
L 3443 1888 
L 3443 2957 
L 5088 2957 
L 5088 3418 
L 1350 3418 
L 1350 2957 
L 2944 2957 
L 2944 269 
C 2419 461 2016 832 1760 1504 
C 1824 1766 1882 2054 1920 2355 
L 1421 2413 
z
M 525 4640 
L 525 3245 
L 998 3245 
L 998 4186 
L 5382 4186 
L 5382 3245 
L 5875 3245 
L 5875 4640 
L 3443 4640 
L 3443 5376 
L 2938 5376 
L 2938 4640 
L 525 4640 
z
" transform="scale(0.015625)"/>
    </defs>
    <use xlink:href="#NotoSansCJKjp-Regular-2509"/>
    <use xlink:href="#NotoSansCJKjp-Regular-79b4" transform="translate(100 0)"/>
    <use xlink:href="#NotoSansCJKjp-Regular-6f9a" transform="translate(200 0)"/>
    <use xlink:href="#NotoSansCJKjp-Regular-4c95" transform="translate(300 0)"/>
    <use xlink:href="#NotoSansCJKjp-Regular-e6c0" transform="translate(400 0)"/>
    <use xlink:href="#NotoSansCJKjp-Regular-6f9a" transform="translate(500 0)"/>
    <use xlink:href="#NotoSansCJKjp-Regular-2be5" transform="translate(600 0)"/>
    <use xlink:href="#NotoSansCJKjp-Regular-43f2" transform="translate(700 0)"/>
    <use xlink:href="#NotoSansCJKjp-Regular-9d6d" transform="translate(800 0)"/>
    <use xlink:href="#NotoSansCJKjp-Regular-4231" transform="translate(900 0)"/>
    <use xlink:href="#NotoSansCJKjp-Regular-e6ae" transform="translate(1000 0)"/>
    <use xlink:href="#NotoSansCJKjp-Regular-2cc2" transform="translate(1100 0)"/>
    <use xlink:href="#NotoSansCJKjp-Regular-a108" transform="translate(1200 0)"/>
    <use xlink:href="#NotoSansCJKjp-Regular-9f49" transform="translate(1300 0)"/>
    <use xlink:href="#NotoSansCJKjp-Regular-3c64" transform="translate(1400 0)"/>
    <use xlink:href="#NotoSansCJKjp-Regular-4514" transform="translate(1500 0)"/>
    <use xlink:href="#NotoSansCJKjp-Regular-e6b2" transform="translate(1600 0)"/>
    <use xlink:href="#NotoSansCJKjp-Regular-2cc2" transform="translate(1700 0)"/>
    <use xlink:href="#NotoSansCJKjp-Regular-8006" transform="translate(1800 0)"/>
    <use xlink:href="#NotoSansCJKjp-Regular-2518" transform="translate(1900 0)"/>
    <use xlink:href="#NotoSansCJKjp-Regular-2509" transform="translate(2000 0)"/>
    <use xlink:href="#NotoSansCJKjp-Regular-3c8a" transform="translate(2100 0)"/>
    <use xlink:href="#NotoSansCJKjp-Regular-e6af" transform="translate(2200 0)"/>
   </g>
  </g>
 </g>
 <defs>
  <clipPath id="pff2aeb33fd">
   <rect x="7.2" y="58.5765" width="578.88" height="151.86375"/>
  </clipPath>
  <clipPath id="p7b874c638c">
   <rect x="7.2" y="223.40025" width="578.88" height="151.86375"/>
  </clipPath>
 </defs>
</svg>
