<?xml version="1.0" encoding="utf-8" standalone="no"?>
<!DOCTYPE svg PUBLIC "-//W3C//DTD SVG 1.1//EN"
  "http://www.w3.org/Graphics/SVG/1.1/DTD/svg11.dtd">
<svg xmlns:xlink="http://www.w3.org/1999/xlink" width="679.68pt" height="258.725197pt" viewBox="0 0 679.68 258.725197" xmlns="http://www.w3.org/2000/svg" version="1.1">
 <metadata>
  <rdf:RDF xmlns:dc="http://purl.org/dc/elements/1.1/" xmlns:cc="http://creativecommons.org/ns#" xmlns:rdf="http://www.w3.org/1999/02/22-rdf-syntax-ns#">
   <cc:Work>
    <dc:type rdf:resource="http://purl.org/dc/dcmitype/StillImage"/>
    <dc:date>2026-06-18T00:08:39.754352</dc:date>
    <dc:format>image/svg+xml</dc:format>
    <dc:creator>
     <cc:Agent>
      <dc:title>Matplotlib v3.11.0, https://matplotlib.org/</dc:title>
     </cc:Agent>
    </dc:creator>
   </cc:Work>
  </rdf:RDF>
 </metadata>
 <defs>
  <style type="text/css">*{stroke-linejoin: round; stroke-linecap: butt}</style>
 </defs>
 <g id="figure_1">
  <g id="patch_1">
   <path d="M 0 258.725197 
L 679.68 258.725197 
L 679.68 0 
L 0 0 
z
" style="fill: #ffffff"/>
  </g>
  <g id="axes_1">
   <g id="patch_2">
    <path d="M 96.49995 74.653683 
C 100.778102 74.653683 104.881607 72.953955 107.906717 69.928846 
C 110.931826 66.903736 112.631554 62.80023 112.631554 58.522079 
C 112.631554 54.243928 110.931826 50.140422 107.906717 47.115313 
C 104.881607 44.090203 100.778102 42.390475 96.49995 42.390475 
C 92.221799 42.390475 88.118293 44.090203 85.093184 47.115313 
C 82.068074 50.140422 80.368346 54.243928 80.368346 58.522079 
C 80.368346 62.80023 82.068074 66.903736 85.093184 69.928846 
C 88.118293 72.953955 92.221799 74.653683 96.49995 74.653683 
L 96.49995 74.653683 
z
" clip-path="url(#pa403120d16)" style="fill: none; stroke: #8250df; stroke-width: 1.8; stroke-linejoin: miter"/>
   </g>
   <g id="patch_3">
    <path d="M 96.49995 61.402723 
C 97.263906 61.402723 97.996675 61.0992 98.536873 60.559002 
C 99.077071 60.018803 99.380594 59.286035 99.380594 58.522079 
C 99.380594 57.758123 99.077071 57.025355 98.536873 56.485156 
C 97.996675 55.944958 97.263906 55.641436 96.49995 55.641436 
C 95.735995 55.641436 95.003226 55.944958 94.463028 56.485156 
C 93.922829 57.025355 93.619307 57.758123 93.619307 58.522079 
C 93.619307 59.286035 93.922829 60.018803 94.463028 60.559002 
C 95.003226 61.0992 95.735995 61.402723 96.49995 61.402723 
z
" clip-path="url(#pa403120d16)" style="fill: #8250df; stroke: #8250df; stroke-linejoin: miter"/>
   </g>
   <g id="text_1">
    <!-- $O$ -->
    <g style="fill: #222831" transform="translate(40.399653 179.509108) scale(0.13 -0.13)">
     <defs>
      <path id="Cmmi10-35" d="M 1947 -141 
Q 1466 -141 1094 79 
Q 722 300 520 692 
Q 319 1084 319 1563 
Q 319 2259 714 2950 
Q 1109 3641 1756 4077 
Q 2403 4513 3109 4513 
Q 3475 4513 3778 4381 
Q 4081 4250 4290 4017 
Q 4500 3784 4614 3471 
Q 4728 3159 4728 2791 
Q 4728 2263 4503 1739 
Q 4278 1216 3879 786 
Q 3481 356 2984 107 
Q 2488 -141 1947 -141 
z
M 1997 50 
Q 2463 50 2866 345 
Q 3269 641 3553 1108 
Q 3838 1575 3989 2089 
Q 4141 2603 4141 3047 
Q 4141 3394 4022 3683 
Q 3903 3972 3656 4148 
Q 3409 4325 3066 4325 
Q 2728 4325 2409 4162 
Q 2091 4000 1831 3731 
Q 1566 3459 1359 3057 
Q 1153 2656 1047 2214 
Q 941 1772 941 1381 
Q 941 838 1208 444 
Q 1475 50 1997 50 
z
" transform="scale(0.015625)"/>
     </defs>
     <use xlink:href="#Cmmi10-35" transform="translate(0 0.484375)"/>
    </g>
   </g>
   <g id="text_2">
    <!-- $\vec r$ -->
    <g style="fill: #1a7f37" transform="translate(133.948316 121.896237) scale(0.14 -0.14)">
     <defs>
      <path id="Cmmi10-6e" d="M 1281 3809 
Q 1231 3809 1198 3846 
Q 1166 3884 1166 3938 
Q 1166 3984 1198 4023 
Q 1231 4063 1281 4063 
L 3547 4063 
Q 3378 4291 3378 4441 
Q 3378 4497 3417 4533 
Q 3456 4569 3506 4569 
Q 3613 4569 3634 4469 
Q 3697 4194 3938 4044 
Q 4000 4003 4000 3938 
Q 4000 3859 3938 3828 
Q 3575 3647 3353 3347 
Q 3328 3303 3256 3303 
Q 3209 3303 3168 3340 
Q 3128 3378 3128 3431 
Q 3128 3547 3438 3809 
L 1281 3809 
z
" transform="scale(0.015625)"/>
      <path id="Cmmi10-84" d="M 494 109 
Q 494 147 500 166 
L 978 2075 
Q 1025 2253 1025 2388 
Q 1025 2663 838 2663 
Q 638 2663 541 2423 
Q 444 2184 353 1819 
Q 353 1800 334 1789 
Q 316 1778 300 1778 
L 225 1778 
Q 203 1778 187 1801 
Q 172 1825 172 1844 
Q 241 2122 305 2315 
Q 369 2509 505 2668 
Q 641 2828 844 2828 
Q 1066 2828 1233 2700 
Q 1400 2572 1441 2363 
Q 1603 2575 1811 2701 
Q 2019 2828 2266 2828 
Q 2469 2828 2623 2709 
Q 2778 2591 2778 2388 
Q 2778 2225 2676 2104 
Q 2575 1984 2406 1984 
Q 2303 1984 2233 2048 
Q 2163 2113 2163 2216 
Q 2163 2356 2266 2467 
Q 2369 2578 2503 2578 
Q 2400 2663 2253 2663 
Q 1978 2663 1775 2467 
Q 1572 2272 1409 1972 
L 953 141 
Q 931 53 854 -9 
Q 778 -72 684 -72 
Q 606 -72 550 -22 
Q 494 28 494 109 
z
" transform="scale(0.015625)"/>
     </defs>
     <use xlink:href="#Cmmi10-6e" transform="translate(-15.039062 5.609375)"/>
     <use xlink:href="#Cmmi10-84" transform="translate(0 0.53125)"/>
    </g>
   </g>
   <g id="text_3">
    <!-- $\vec p=m\vec v$ -->
    <g style="fill: #d1242f" transform="translate(292.593217 150.702673) scale(0.13 -0.13)">
     <defs>
      <path id="Cmmi10-80" d="M -159 -1241 
Q -219 -1241 -219 -1159 
Q -197 -1019 -134 -1019 
Q 66 -1019 145 -983 
Q 225 -947 269 -800 
L 991 2081 
Q 1038 2200 1038 2388 
Q 1038 2663 850 2663 
Q 650 2663 553 2423 
Q 456 2184 366 1819 
Q 366 1778 313 1778 
L 238 1778 
Q 222 1778 203 1801 
Q 184 1825 184 1844 
Q 253 2122 317 2315 
Q 381 2509 517 2668 
Q 653 2828 856 2828 
Q 1075 2828 1240 2704 
Q 1406 2581 1453 2369 
Q 1628 2572 1840 2700 
Q 2053 2828 2278 2828 
Q 2547 2828 2745 2684 
Q 2944 2541 3044 2308 
Q 3144 2075 3144 1806 
Q 3144 1394 2933 953 
Q 2722 513 2361 220 
Q 2000 -72 1588 -72 
Q 1400 -72 1248 34 
Q 1097 141 1013 313 
L 722 -825 
Q 706 -919 703 -934 
Q 703 -1019 1125 -1019 
Q 1191 -1019 1191 -1100 
Q 1169 -1184 1155 -1212 
Q 1141 -1241 1081 -1241 
L -159 -1241 
z
M 1594 97 
Q 1816 97 2006 280 
Q 2197 463 2316 691 
Q 2403 863 2479 1111 
Q 2556 1359 2612 1640 
Q 2669 1922 2669 2088 
Q 2669 2234 2630 2362 
Q 2591 2491 2502 2577 
Q 2413 2663 2266 2663 
Q 2031 2663 1823 2495 
Q 1616 2328 1447 2081 
L 1447 2059 
L 1094 647 
Q 1138 419 1263 258 
Q 1388 97 1594 97 
z
" transform="scale(0.015625)"/>
      <path id="Cmr10-29" d="M 481 850 
Q 428 850 393 890 
Q 359 931 359 978 
Q 359 1031 393 1068 
Q 428 1106 481 1106 
L 4500 1106 
Q 4547 1106 4581 1068 
Q 4616 1031 4616 978 
Q 4616 931 4581 890 
Q 4547 850 4500 850 
L 481 850 
z
M 481 2094 
Q 428 2094 393 2131 
Q 359 2169 359 2222 
Q 359 2269 393 2309 
Q 428 2350 481 2350 
L 4500 2350 
Q 4547 2350 4581 2309 
Q 4616 2269 4616 2222 
Q 4616 2169 4581 2131 
Q 4547 2094 4500 2094 
L 481 2094 
z
" transform="scale(0.015625)"/>
      <path id="Cmmi10-45" d="M 494 109 
Q 494 147 500 166 
L 978 2075 
Q 1025 2253 1025 2388 
Q 1025 2663 838 2663 
Q 638 2663 541 2423 
Q 444 2184 353 1819 
Q 353 1800 334 1789 
Q 316 1778 300 1778 
L 225 1778 
Q 203 1778 187 1801 
Q 172 1825 172 1844 
Q 241 2122 305 2315 
Q 369 2509 505 2668 
Q 641 2828 844 2828 
Q 1084 2828 1268 2676 
Q 1453 2525 1453 2291 
Q 1644 2541 1900 2684 
Q 2156 2828 2444 2828 
Q 2747 2828 2967 2673 
Q 3188 2519 3188 2234 
Q 3384 2513 3648 2670 
Q 3913 2828 4225 2828 
Q 4556 2828 4757 2648 
Q 4959 2469 4959 2138 
Q 4959 1875 4842 1503 
Q 4725 1131 4550 672 
Q 4459 450 4459 288 
Q 4459 97 4609 97 
Q 4859 97 5025 365 
Q 5191 634 5259 941 
Q 5278 978 5313 978 
L 5388 978 
Q 5413 978 5430 961 
Q 5447 944 5447 922 
Q 5447 916 5441 903 
Q 5353 541 5136 234 
Q 4919 -72 4594 -72 
Q 4369 -72 4209 83 
Q 4050 238 4050 459 
Q 4050 572 4103 709 
Q 4284 1191 4404 1569 
Q 4525 1947 4525 2234 
Q 4525 2413 4453 2538 
Q 4381 2663 4213 2663 
Q 3863 2663 3606 2448 
Q 3350 2234 3163 1881 
Q 3150 1819 3144 1784 
L 2731 141 
Q 2709 53 2632 -9 
Q 2556 -72 2463 -72 
Q 2388 -72 2330 -22 
Q 2272 28 2272 109 
Q 2272 147 2278 166 
L 2688 1797 
Q 2753 2059 2753 2234 
Q 2753 2413 2679 2538 
Q 2606 2663 2431 2663 
Q 2197 2663 2000 2559 
Q 1803 2456 1656 2286 
Q 1509 2116 1388 1881 
L 953 141 
Q 931 53 854 -9 
Q 778 -72 684 -72 
Q 606 -72 550 -22 
Q 494 28 494 109 
z
" transform="scale(0.015625)"/>
      <path id="Cmmi10-38" d="M 684 722 
Q 684 866 718 1037 
Q 753 1209 787 1320 
Q 822 1431 944 1753 
Q 1066 2075 1069 2088 
Q 1153 2322 1153 2472 
Q 1153 2663 1013 2663 
Q 759 2663 595 2402 
Q 431 2141 353 1819 
Q 341 1778 300 1778 
L 225 1778 
Q 172 1778 172 1838 
L 172 1856 
Q 275 2238 487 2533 
Q 700 2828 1025 2828 
Q 1253 2828 1411 2678 
Q 1569 2528 1569 2297 
Q 1569 2178 1516 2047 
Q 1391 1722 1319 1526 
Q 1247 1331 1186 1089 
Q 1125 847 1125 641 
Q 1125 400 1236 248 
Q 1347 97 1581 97 
Q 2025 97 2381 781 
Q 2494 1003 2594 1303 
Q 2694 1603 2694 1791 
Q 2694 1984 2631 2092 
Q 2569 2200 2469 2317 
Q 2369 2434 2369 2503 
Q 2369 2628 2472 2731 
Q 2575 2834 2700 2834 
Q 2853 2834 2920 2693 
Q 2988 2553 2988 2375 
Q 2988 2163 2927 1869 
Q 2866 1575 2758 1259 
Q 2650 944 2559 763 
Q 2138 -72 1575 -72 
Q 1172 -72 928 129 
Q 684 331 684 722 
z
" transform="scale(0.015625)"/>
     </defs>
     <use xlink:href="#Cmmi10-6e" transform="translate(-7.082031 5.515625)"/>
     <use xlink:href="#Cmmi10-80" transform="translate(0 0.4375)"/>
     <use xlink:href="#Cmr10-29" transform="translate(72.546932 0.4375)"/>
     <use xlink:href="#Cmmi10-45" transform="translate(170.232536 0.4375)"/>
     <use xlink:href="#Cmmi10-6e" transform="translate(244.806755 5.609375)"/>
     <use xlink:href="#Cmmi10-38" transform="translate(258.025505 0.4375)"/>
    </g>
   </g>
   <g id="text_4">
    <!-- $m$ -->
    <g style="fill: #1f6feb" transform="translate(220.367623 75.80594) scale(0.12 -0.12)">
     <use xlink:href="#Cmmi10-45" transform="translate(0 0.8125)"/>
    </g>
   </g>
   <g id="text_5">
    <!-- $\vec L=\vec r\times\vec p$（出紙面） -->
    <g style="fill: #8250df" transform="translate(125.306386 63.382079) scale(0.12 -0.12)">
     <defs>
      <path id="Cmmi10-55" d="M 300 0 
Q 238 0 238 84 
Q 241 100 250 139 
Q 259 178 276 201 
Q 294 225 319 225 
Q 709 225 863 269 
Q 947 297 984 441 
L 1863 3956 
Q 1875 4019 1875 4044 
Q 1875 4113 1797 4122 
Q 1678 4147 1338 4147 
Q 1275 4147 1275 4231 
Q 1297 4313 1309 4342 
Q 1322 4372 1381 4372 
L 3272 4372 
Q 3328 4372 3328 4288 
Q 3319 4222 3306 4184 
Q 3294 4147 3244 4147 
Q 2772 4147 2613 4116 
Q 2456 4088 2419 3928 
L 1544 416 
Q 1516 338 1516 275 
Q 1516 225 1734 225 
L 2328 225 
Q 2831 225 3143 425 
Q 3456 625 3606 876 
Q 3756 1128 3857 1398 
Q 3959 1669 4006 1678 
L 4063 1678 
Q 4128 1678 4128 1594 
L 3559 44 
Q 3550 0 3500 0 
L 300 0 
z
" transform="scale(0.015625)"/>
      <path id="Cmsy10-d" d="M 941 184 
Q 941 234 972 275 
L 2303 1600 
L 972 2931 
Q 941 2963 941 3016 
Q 941 3063 978 3103 
Q 1016 3144 1069 3144 
Q 1113 3144 1166 3103 
L 2491 1778 
L 3809 3103 
Q 3863 3144 3903 3144 
Q 3956 3144 3993 3106 
Q 4031 3069 4031 3016 
Q 4031 2963 4000 2931 
L 2669 1600 
L 4000 275 
Q 4031 234 4031 184 
Q 4031 131 3993 93 
Q 3956 56 3903 56 
Q 3856 56 3809 103 
L 2491 1422 
L 1166 103 
Q 1119 56 1069 56 
Q 1016 56 978 97 
Q 941 138 941 184 
z
" transform="scale(0.015625)"/>
      <path id="NotoSansCJKjp-Regular-e6ae" d="M 4448 2432 
C 4448 1184 4954 166 5722 -614 
L 6106 -416 
C 5370 346 4915 1293 4915 2432 
C 4915 3571 5370 4518 6106 5280 
L 5722 5478 
C 4954 4698 4448 3680 4448 2432 
z
" transform="scale(0.015625)"/>
      <path id="NotoSansCJKjp-Regular-2b73" d="M 966 4768 
L 966 2560 
L 2918 2560 
L 2918 365 
L 1203 365 
L 1203 2144 
L 723 2144 
L 723 -512 
L 1203 -512 
L 1203 -109 
L 5222 -109 
L 5222 -499 
L 5715 -499 
L 5715 2144 
L 5222 2144 
L 5222 365 
L 3418 365 
L 3418 2560 
L 5459 2560 
L 5459 4768 
L 4960 4768 
L 4960 3021 
L 3418 3021 
L 3418 5344 
L 2918 5344 
L 2918 3021 
L 1446 3021 
L 1446 4768 
L 966 4768 
z
" transform="scale(0.015625)"/>
      <path id="NotoSansCJKjp-Regular-788a" d="M 1997 1626 
C 2170 1248 2336 749 2394 429 
L 2790 563 
C 2726 883 2547 1370 2368 1747 
L 1997 1626 
z
M 595 1722 
C 518 1165 397 589 192 198 
C 294 160 486 70 570 13 
C 768 422 922 1043 1005 1651 
L 595 1722 
z
M 5542 5382 
C 5030 5139 4122 4922 3315 4774 
L 3046 4864 
L 3046 141 
L 2554 45 
L 2733 -410 
C 3315 -275 4064 -96 4774 83 
L 4723 493 
L 3507 237 
L 3507 2490 
L 4544 2490 
C 4659 909 4890 -262 5478 -448 
C 5862 -646 6157 -333 6259 678 
C 6157 736 5990 851 5901 947 
C 5856 346 5779 -51 5677 -19 
C 5286 77 5088 1101 4992 2490 
L 6157 2490 
L 6157 2950 
L 4966 2950 
C 4934 3494 4922 4090 4915 4691 
C 5286 4787 5638 4896 5920 5011 
L 5542 5382 
z
M 3507 4397 
C 3814 4448 4141 4512 4461 4582 
C 4474 4013 4493 3462 4518 2950 
L 3507 2950 
L 3507 4397 
z
M 186 2502 
L 250 2067 
L 1325 2163 
L 1325 -506 
L 1760 -506 
L 1760 2202 
L 2394 2266 
C 2464 2118 2515 1984 2554 1869 
L 2925 2048 
C 2810 2400 2509 2938 2214 3341 
L 1862 3181 
C 1978 3014 2093 2829 2202 2637 
L 1152 2560 
C 1594 3117 2093 3853 2464 4448 
L 2054 4640 
C 1869 4282 1613 3846 1338 3430 
C 1235 3571 1094 3731 941 3891 
C 1184 4250 1466 4774 1696 5210 
L 1267 5382 
C 1126 5024 890 4525 672 4154 
L 480 4320 
L 243 4000 
C 550 3731 896 3354 1082 3066 
C 947 2874 813 2688 678 2534 
L 186 2502 
z
" transform="scale(0.015625)"/>
      <path id="NotoSansCJKjp-Regular-aaab" d="M 2490 2138 
L 3846 2138 
L 3846 1414 
L 2490 1414 
L 2490 2138 
z
M 2490 2528 
L 2490 3238 
L 3846 3238 
L 3846 2528 
L 2490 2528 
z
M 2490 1024 
L 3846 1024 
L 3846 275 
L 2490 275 
L 2490 1024 
z
M 371 4954 
L 371 4493 
L 2842 4493 
C 2797 4230 2726 3930 2662 3686 
L 666 3686 
L 666 -512 
L 1126 -512 
L 1126 -173 
L 5248 -173 
L 5248 -512 
L 5734 -512 
L 5734 3686 
L 3155 3686 
L 3405 4493 
L 6048 4493 
L 6048 4954 
L 371 4954 
z
M 1126 275 
L 1126 3238 
L 2048 3238 
L 2048 275 
L 1126 275 
z
M 5248 275 
L 4288 275 
L 4288 3238 
L 5248 3238 
L 5248 275 
z
" transform="scale(0.015625)"/>
      <path id="NotoSansCJKjp-Regular-e6af" d="M 1952 2432 
C 1952 3680 1446 4698 678 5478 
L 294 5280 
C 1030 4518 1485 3571 1485 2432 
C 1485 1293 1030 346 294 -416 
L 678 -614 
C 1446 166 1952 1184 1952 2432 
z
" transform="scale(0.015625)"/>
     </defs>
     <use xlink:href="#Cmmi10-6e" transform="translate(-2.023438 29.609375)"/>
     <use xlink:href="#Cmmi10-55" transform="translate(0 0.40625)"/>
     <use xlink:href="#Cmr10-29" transform="translate(88.017635 0.40625)"/>
     <use xlink:href="#Cmmi10-6e" transform="translate(170.664177 5.484375)"/>
     <use xlink:href="#Cmmi10-84" transform="translate(185.703239 0.40625)"/>
     <use xlink:href="#Cmsy10-d" transform="translate(250.820484 0.40625)"/>
     <use xlink:href="#Cmmi10-6e" transform="translate(341.424057 5.484375)"/>
     <use xlink:href="#Cmmi10-80" transform="translate(348.506088 0.40625)"/>
     <use xlink:href="#NotoSansCJKjp-Regular-e6ae" transform="translate(401.052963 0.40625)"/>
     <use xlink:href="#NotoSansCJKjp-Regular-2b73" transform="translate(501.052872 0.40625)"/>
     <use xlink:href="#NotoSansCJKjp-Regular-788a" transform="translate(601.05278 0.40625)"/>
     <use xlink:href="#NotoSansCJKjp-Regular-aaab" transform="translate(701.052689 0.40625)"/>
     <use xlink:href="#NotoSansCJKjp-Regular-e6af" transform="translate(801.052597 0.40625)"/>
    </g>
   </g>
   <g id="text_6">
    <!-- 角動量 $\vec L=\vec r\times\vec p$ -->
    <g style="fill: #222831" transform="translate(119.646039 20.835) scale(0.135 -0.135)">
     <defs>
      <path id="NotoSansCJKjp-Regular-9248" d="M 1696 3482 
L 3110 3482 
L 3110 2630 
L 1696 2630 
L 1696 3482 
z
M 1696 3910 
L 1683 3910 
C 1888 4134 2074 4365 2234 4595 
L 3795 4595 
C 3667 4365 3501 4109 3341 3910 
L 1696 3910 
z
M 5101 3482 
L 5101 2630 
L 3571 2630 
L 3571 3482 
L 5101 3482 
z
M 2157 5395 
C 1837 4749 1222 3955 358 3373 
C 474 3302 627 3149 704 3034 
C 890 3168 1062 3309 1222 3450 
L 1222 2310 
C 1222 1498 1120 506 211 -198 
C 307 -269 480 -442 550 -544 
C 1062 -147 1357 371 1517 902 
L 5101 902 
L 5101 102 
C 5101 -19 5062 -58 4922 -64 
C 4774 -70 4275 -70 3757 -58 
C 3827 -186 3917 -390 3942 -525 
C 4595 -525 5011 -518 5254 -442 
C 5491 -365 5574 -218 5574 96 
L 5574 3910 
L 3872 3910 
C 4096 4192 4314 4518 4461 4813 
L 4134 5024 
L 4058 4998 
L 2502 4998 
L 2675 5299 
L 2157 5395 
z
M 1696 2214 
L 3110 2214 
L 3110 1325 
L 1613 1325 
C 1670 1632 1690 1933 1696 2214 
z
M 5101 2214 
L 5101 1325 
L 3571 1325 
L 3571 2214 
L 5101 2214 
z
" transform="scale(0.015625)"/>
      <path id="NotoSansCJKjp-Regular-2cc2" d="M 4192 5293 
C 4192 4806 4192 4333 4179 3878 
L 3418 3878 
L 3418 3437 
L 4166 3437 
C 4109 2227 3942 1184 3386 422 
L 3386 448 
L 2099 314 
L 2099 826 
L 3360 826 
L 3360 1197 
L 2099 1197 
L 2099 1587 
L 3347 1587 
L 3347 3501 
L 2099 3501 
L 2099 3904 
L 3469 3904 
L 3469 4282 
L 2099 4282 
L 2099 4755 
C 2566 4806 3008 4864 3354 4941 
L 3117 5312 
C 2451 5158 1286 5043 339 4998 
C 384 4896 435 4742 454 4640 
C 832 4653 1248 4678 1658 4710 
L 1658 4282 
L 269 4282 
L 269 3904 
L 1658 3904 
L 1658 3501 
L 461 3501 
L 461 1587 
L 1658 1587 
L 1658 1197 
L 442 1197 
L 442 826 
L 1658 826 
L 1658 269 
L 269 141 
L 333 -282 
C 1056 -205 2054 -90 3034 26 
C 2950 -51 2854 -128 2758 -198 
C 2874 -275 3040 -435 3110 -544 
C 4256 307 4544 1722 4627 3437 
L 5536 3437 
C 5472 1094 5395 243 5242 51 
C 5184 -32 5120 -45 5018 -45 
C 4896 -45 4608 -45 4294 -19 
C 4371 -147 4422 -346 4435 -480 
C 4736 -493 5037 -499 5222 -474 
C 5414 -454 5542 -403 5651 -230 
C 5869 38 5933 934 6003 3642 
C 6003 3699 6003 3878 6003 3878 
L 4640 3878 
C 4653 4333 4659 4806 4659 5293 
L 4192 5293 
z
M 858 2387 
L 1658 2387 
L 1658 1920 
L 858 1920 
L 858 2387 
z
M 2099 2387 
L 2938 2387 
L 2938 1920 
L 2099 1920 
L 2099 2387 
z
M 858 3168 
L 1658 3168 
L 1658 2707 
L 858 2707 
L 858 3168 
z
M 2099 3168 
L 2938 3168 
L 2938 2707 
L 2099 2707 
L 2099 3168 
z
" transform="scale(0.015625)"/>
      <path id="NotoSansCJKjp-Regular-a108" d="M 1600 4256 
L 4781 4256 
L 4781 3904 
L 1600 3904 
L 1600 4256 
z
M 1600 4883 
L 4781 4883 
L 4781 4538 
L 1600 4538 
L 1600 4883 
z
M 1133 5171 
L 1133 3616 
L 5261 3616 
L 5261 5171 
L 1133 5171 
z
M 333 3341 
L 333 2976 
L 6074 2976 
L 6074 3341 
L 333 3341 
z
M 1472 1747 
L 2957 1747 
L 2957 1376 
L 1472 1376 
L 1472 1747 
z
M 3424 1747 
L 4973 1747 
L 4973 1376 
L 3424 1376 
L 3424 1747 
z
M 1472 2387 
L 2957 2387 
L 2957 2029 
L 1472 2029 
L 1472 2387 
z
M 3424 2387 
L 4973 2387 
L 4973 2029 
L 3424 2029 
L 3424 2387 
z
M 301 19 
L 301 -352 
L 6112 -352 
L 6112 19 
L 3424 19 
L 3424 390 
L 5587 390 
L 5587 730 
L 3424 730 
L 3424 1082 
L 5446 1082 
L 5446 2688 
L 1018 2688 
L 1018 1082 
L 2957 1082 
L 2957 730 
L 838 730 
L 838 390 
L 2957 390 
L 2957 19 
L 301 19 
z
" transform="scale(0.015625)"/>
      <path id="NotoSansCJKjp-Regular-1" transform="scale(0.015625)"/>
     </defs>
     <use xlink:href="#NotoSansCJKjp-Regular-9248" transform="translate(0 0.40625)"/>
     <use xlink:href="#NotoSansCJKjp-Regular-2cc2" transform="translate(99.999908 0.40625)"/>
     <use xlink:href="#NotoSansCJKjp-Regular-a108" transform="translate(199.999817 0.40625)"/>
     <use xlink:href="#NotoSansCJKjp-Regular-1" transform="translate(299.999725 0.40625)"/>
     <use xlink:href="#Cmmi10-6e" transform="translate(320.376266 29.609375)"/>
     <use xlink:href="#Cmmi10-55" transform="translate(322.399704 0.40625)"/>
     <use xlink:href="#Cmr10-29" transform="translate(410.417339 0.40625)"/>
     <use xlink:href="#Cmmi10-6e" transform="translate(493.063881 5.484375)"/>
     <use xlink:href="#Cmmi10-84" transform="translate(508.102943 0.40625)"/>
     <use xlink:href="#Cmsy10-d" transform="translate(573.220188 0.40625)"/>
     <use xlink:href="#Cmmi10-6e" transform="translate(663.823761 5.484375)"/>
     <use xlink:href="#Cmmi10-80" transform="translate(670.905792 0.40625)"/>
    </g>
   </g>
   <g id="patch_4">
    <path d="M 64.812871 176.628465 
Q 139.709603 136.299455 212.243784 97.242589 
" clip-path="url(#pa403120d16)" style="fill: none; stroke: #1a7f37; stroke-width: 2.4; stroke-linecap: round"/>
    <path d="M 204.197633 97.486411 
L 212.243784 97.242589 
L 207.611151 103.825803 
z
" clip-path="url(#pa403120d16)" style="fill: #1a7f37; stroke: #1a7f37; stroke-width: 2.4; stroke-linecap: round"/>
   </g>
   <g id="patch_5">
    <path d="M 214.606336 105.188505 
C 217.050994 105.188505 219.395854 104.217232 221.124488 102.488598 
C 222.853122 100.759963 223.824395 98.415103 223.824395 95.970445 
C 223.824395 93.525787 222.853122 91.180927 221.124488 89.452293 
C 219.395854 87.723659 217.050994 86.752386 214.606336 86.752386 
C 212.161678 86.752386 209.816818 87.723659 208.088184 89.452293 
C 206.359549 91.180927 205.388276 93.525787 205.388276 95.970445 
C 205.388276 98.415103 206.359549 100.759963 208.088184 102.488598 
C 209.816818 104.217232 212.161678 105.188505 214.606336 105.188505 
z
" clip-path="url(#pa403120d16)" style="fill: #1f6feb; stroke: #222831; stroke-width: 1.4; stroke-linejoin: miter"/>
   </g>
   <g id="patch_6">
    <path d="M 214.606336 95.970445 
Q 260.696633 110.373663 304.225791 123.976525 
" clip-path="url(#pa403120d16)" style="fill: none; stroke: #d1242f; stroke-width: 2.4; stroke-linecap: round"/>
    <path d="M 298.427325 118.392817 
L 304.225791 123.976525 
L 296.279745 125.265073 
z
" clip-path="url(#pa403120d16)" style="fill: #d1242f; stroke: #d1242f; stroke-width: 2.4; stroke-linecap: round"/>
   </g>
   <g id="patch_7">
    <path d="M 64.812871 181.237494 
C 66.0352 181.237494 67.20763 180.751858 68.071947 179.887541 
C 68.936264 179.023224 69.421901 177.850794 69.421901 176.628465 
C 69.421901 175.406136 68.936264 174.233706 68.071947 173.369389 
C 67.20763 172.505072 66.0352 172.019435 64.812871 172.019435 
C 63.590542 172.019435 62.418112 172.505072 61.553795 173.369389 
C 60.689478 174.233706 60.203841 175.406136 60.203841 176.628465 
C 60.203841 177.850794 60.689478 179.023224 61.553795 179.887541 
C 62.418112 180.751858 63.590542 181.237494 64.812871 181.237494 
z
" clip-path="url(#pa403120d16)" style="fill: #222831; stroke: #222831; stroke-linejoin: miter"/>
   </g>
  </g>
  <g id="axes_2">
   <g id="patch_8">
    <path d="M 421.706885 148.956828 
L 434.416633 148.956828 
L 434.416633 92.740633 
L 421.706885 92.740633 
z
" clip-path="url(#p1d621f13b0)" style="fill: #1f6feb; stroke: #222831; stroke-width: 1.3; stroke-linejoin: miter"/>
   </g>
   <g id="patch_9">
    <path d="M 402.609979 164.670133 
Q 428.06172 140.576108 451.8896 163.132827 
" style="fill: none; stroke: #8250df; stroke-width: 2; stroke-linecap: round"/>
    <path d="M 450.05371 158.090059 
L 451.8896 163.132827 
L 446.753852 161.575878 
z
" style="fill: #8250df; stroke: #8250df; stroke-width: 2; stroke-linecap: round"/>
   </g>
   <g id="text_7">
    <!-- $\omega$ 小 -->
    <g style="fill: #8250df" transform="translate(416.036759 185.619564) scale(0.13 -0.13)">
     <defs>
      <path id="Cmmi10-1d" d="M 775 -72 
Q 413 -72 252 193 
Q 91 459 91 844 
Q 91 1097 136 1339 
Q 181 1581 273 1829 
Q 366 2078 484 2295 
Q 603 2513 750 2719 
Q 778 2759 825 2759 
Q 866 2759 891 2734 
Q 916 2709 916 2675 
Q 916 2641 897 2613 
Q 313 1809 313 1131 
Q 313 838 448 627 
Q 584 416 863 416 
Q 1103 416 1308 556 
Q 1513 697 1663 916 
Q 1663 1028 1702 1265 
Q 1741 1503 1823 1689 
Q 1906 1875 2022 1875 
Q 2169 1875 2169 1703 
Q 2169 1603 2126 1451 
Q 2084 1300 2032 1169 
Q 1981 1038 1906 872 
Q 1981 416 2363 416 
Q 2584 416 2807 544 
Q 3031 672 3203 880 
Q 3375 1088 3473 1328 
Q 3572 1569 3572 1784 
Q 3572 1978 3511 2086 
Q 3450 2194 3350 2312 
Q 3250 2431 3250 2503 
Q 3250 2628 3356 2731 
Q 3463 2834 3584 2834 
Q 3741 2834 3806 2692 
Q 3872 2550 3872 2369 
Q 3872 2075 3755 1628 
Q 3638 1181 3488 884 
Q 3281 481 2970 204 
Q 2659 -72 2272 -72 
Q 2025 -72 1873 76 
Q 1722 225 1678 481 
Q 1500 228 1272 78 
Q 1044 -72 775 -72 
z
" transform="scale(0.015625)"/>
      <path id="NotoSansCJKjp-Regular-3d78" d="M 2970 5286 
L 2970 154 
C 2970 26 2918 -13 2790 -19 
C 2656 -26 2195 -32 1728 -13 
C 1805 -147 1894 -378 1926 -512 
C 2528 -518 2925 -506 3162 -422 
C 3392 -346 3488 -198 3488 154 
L 3488 5286 
L 2970 5286 
z
M 4512 3654 
C 5062 2733 5581 1536 5728 774 
L 6246 986 
C 6080 1754 5536 2931 4973 3827 
L 4512 3654 
z
M 1293 3782 
C 1133 2925 774 1818 205 1139 
C 339 1082 550 966 659 883 
C 1242 1594 1619 2752 1830 3693 
L 1293 3782 
z
" transform="scale(0.015625)"/>
     </defs>
     <use xlink:href="#Cmmi10-1d" transform="translate(0 0.40625)"/>
     <use xlink:href="#NotoSansCJKjp-Regular-1" transform="translate(62.207031 0.40625)"/>
     <use xlink:href="#NotoSansCJKjp-Regular-3d78" transform="translate(84.60701 0.40625)"/>
    </g>
   </g>
   <g id="text_8">
    <!-- 張開手臂 -->
    <g style="fill: #222831" transform="translate(406.061759 47.522079) scale(0.11 -0.11)">
     <defs>
      <path id="NotoSansCJKjp-Regular-4356" d="M 5728 1779 
C 5517 1568 5178 1293 4877 1082 
C 4717 1344 4589 1638 4493 1952 
L 6150 1952 
L 6150 2381 
L 3475 2381 
L 3475 2925 
L 5619 2925 
L 5619 3290 
L 3475 3290 
L 3475 3827 
L 5619 3827 
L 5619 4186 
L 3475 4186 
L 3475 4717 
L 5869 4717 
L 5869 5133 
L 3014 5133 
L 3014 2381 
L 2483 2381 
L 2483 1952 
L 3021 1952 
L 3021 115 
L 2483 32 
L 2573 -422 
C 3168 -314 3962 -173 4723 -26 
L 4704 390 
L 3482 186 
L 3482 1952 
L 4070 1952 
C 4384 800 4973 -96 5920 -518 
C 5990 -390 6125 -205 6240 -109 
C 5760 77 5370 390 5062 800 
C 5395 998 5805 1280 6125 1542 
L 5728 1779 
z
M 582 3571 
C 525 2950 410 2106 307 1600 
L 755 1542 
L 800 1818 
L 1971 1818 
C 1888 614 1792 128 1658 -6 
C 1606 -70 1542 -83 1434 -83 
C 1318 -83 1043 -77 742 -51 
C 813 -173 864 -365 877 -499 
C 1178 -518 1478 -518 1638 -499 
C 1824 -486 1946 -442 2061 -314 
C 2253 -102 2355 493 2464 2042 
C 2470 2106 2477 2253 2477 2253 
L 864 2253 
L 973 3130 
L 2374 3130 
L 2374 5043 
L 390 5043 
L 390 4595 
L 1933 4595 
L 1933 3571 
L 582 3571 
z
" transform="scale(0.015625)"/>
      <path id="NotoSansCJKjp-Regular-a767" d="M 3622 2144 
L 3622 1446 
L 2726 1446 
L 2726 2144 
L 3622 2144 
z
M 1491 1446 
L 1491 1037 
L 2291 1037 
C 2246 666 2067 134 1530 -192 
C 1632 -262 1779 -397 1850 -486 
C 2464 -70 2669 608 2714 1037 
L 3622 1037 
L 3622 -390 
L 4051 -390 
L 4051 1037 
L 4922 1037 
L 4922 1446 
L 4051 1446 
L 4051 2144 
L 4787 2144 
L 4787 2541 
L 1606 2541 
L 1606 2144 
L 2304 2144 
L 2304 1446 
L 1491 1446 
z
M 2451 3872 
L 2451 3315 
L 1043 3315 
L 1043 3872 
L 2451 3872 
z
M 2451 4211 
L 1043 4211 
L 1043 4736 
L 2451 4736 
L 2451 4211 
z
M 5389 3872 
L 5389 3309 
L 3930 3309 
L 3930 3872 
L 5389 3872 
z
M 5389 4211 
L 3930 4211 
L 3930 4736 
L 5389 4736 
L 5389 4211 
z
M 5619 5101 
L 3475 5101 
L 3475 2938 
L 5389 2938 
L 5389 115 
C 5389 13 5357 -19 5254 -26 
C 5152 -26 4813 -26 4461 -19 
C 4531 -147 4595 -371 4608 -499 
C 5101 -506 5421 -493 5613 -416 
C 5798 -333 5862 -179 5862 109 
L 5862 5101 
L 5619 5101 
z
M 570 5101 
L 570 -518 
L 1043 -518 
L 1043 2944 
L 2906 2944 
L 2906 5101 
L 570 5101 
z
" transform="scale(0.015625)"/>
      <path id="NotoSansCJKjp-Regular-48c6" d="M 320 2061 
L 320 1587 
L 2963 1587 
L 2963 160 
C 2963 32 2906 -13 2765 -19 
C 2618 -19 2112 -26 1574 -13 
C 1651 -141 1741 -352 1779 -486 
C 2451 -493 2874 -486 3117 -403 
C 3354 -326 3456 -186 3456 160 
L 3456 1587 
L 6099 1587 
L 6099 2061 
L 3456 2061 
L 3456 3098 
L 5734 3098 
L 5734 3558 
L 3456 3558 
L 3456 4602 
C 4211 4691 4915 4819 5459 4979 
L 5107 5370 
C 4128 5062 2266 4896 742 4819 
C 787 4717 845 4525 858 4403 
C 1523 4429 2253 4474 2963 4544 
L 2963 3558 
L 749 3558 
L 749 3098 
L 2963 3098 
L 2963 2061 
L 320 2061 
z
" transform="scale(0.015625)"/>
      <path id="NotoSansCJKjp-Regular-81a9" d="M 4698 1926 
L 4698 1530 
L 1792 1530 
L 1792 1926 
L 4698 1926 
z
M 1312 2278 
L 1312 -512 
L 1792 -512 
L 1792 442 
L 4698 442 
L 4698 0 
C 4698 -90 4666 -115 4563 -122 
C 4454 -122 4083 -128 3706 -115 
C 3770 -224 3840 -384 3866 -499 
C 4371 -499 4710 -499 4915 -442 
C 5120 -371 5184 -256 5184 0 
L 5184 2278 
L 1312 2278 
z
M 1792 1197 
L 4698 1197 
L 4698 794 
L 1792 794 
L 1792 1197 
z
M 3648 4582 
C 3744 4422 3827 4218 3859 4070 
L 3098 4070 
L 3098 3725 
L 4358 3725 
L 4358 3341 
L 3258 3341 
L 3258 3002 
L 4358 3002 
L 4358 2445 
L 4813 2445 
L 4813 3002 
L 5978 3002 
L 5978 3341 
L 4813 3341 
L 4813 3725 
L 6131 3725 
L 6131 4070 
L 5299 4070 
C 5376 4205 5459 4378 5549 4576 
L 5248 4640 
L 5958 4640 
L 5958 4979 
L 4813 4979 
L 4813 5370 
L 4358 5370 
L 4358 4979 
L 3277 4979 
L 3277 4640 
L 3936 4640 
L 3648 4582 
z
M 4006 4640 
L 5152 4640 
C 5107 4486 5011 4269 4941 4115 
L 5139 4070 
L 4026 4070 
L 4237 4122 
C 4198 4262 4115 4480 4006 4640 
z
M 1325 3379 
L 2541 3379 
L 2541 2874 
L 1325 2874 
L 1325 3379 
z
M 653 5139 
L 653 4442 
C 653 3949 595 3270 224 2746 
C 314 2694 486 2541 550 2458 
C 736 2714 858 3014 934 3322 
L 934 2554 
L 2944 2554 
L 2944 3706 
L 1011 3706 
L 1050 4038 
L 2912 4038 
L 2912 5139 
L 653 5139 
z
M 1062 4826 
L 2496 4826 
L 2496 4358 
L 1062 4358 
L 1062 4435 
L 1062 4826 
z
" transform="scale(0.015625)"/>
     </defs>
     <use xlink:href="#NotoSansCJKjp-Regular-4356"/>
     <use xlink:href="#NotoSansCJKjp-Regular-a767" transform="translate(100 0)"/>
     <use xlink:href="#NotoSansCJKjp-Regular-48c6" transform="translate(200 0)"/>
     <use xlink:href="#NotoSansCJKjp-Regular-81a9" transform="translate(300 0)"/>
    </g>
    <!-- $I$ 大 -->
    <g style="fill: #222831" transform="translate(418.876759 58.522079) scale(0.11 -0.11)">
     <defs>
      <path id="Cmmi10-7b" d="M 269 0 
Q 206 0 206 84 
Q 231 225 288 225 
Q 666 225 800 250 
Q 947 284 984 441 
L 1863 3956 
Q 1875 4019 1875 4038 
Q 1875 4078 1854 4095 
Q 1834 4113 1791 4122 
Q 1663 4147 1306 4147 
Q 1241 4147 1241 4231 
Q 1263 4313 1275 4342 
Q 1288 4372 1350 4372 
L 3138 4372 
Q 3200 4372 3200 4288 
Q 3197 4272 3187 4234 
Q 3178 4197 3162 4172 
Q 3147 4147 3116 4147 
Q 2741 4147 2597 4122 
Q 2456 4088 2419 3928 
L 1544 416 
Q 1528 338 1528 331 
Q 1528 316 1533 302 
Q 1538 288 1552 277 
Q 1566 266 1580 261 
Q 1594 256 1613 250 
Q 1734 225 2100 225 
Q 2163 225 2163 141 
Q 2141 50 2128 25 
Q 2116 0 2053 0 
L 269 0 
z
" transform="scale(0.015625)"/>
      <path id="NotoSansCJKjp-Regular-36fb" d="M 2950 5370 
C 2944 4864 2950 4218 2854 3539 
L 397 3539 
L 397 3046 
L 2771 3046 
C 2515 1830 1875 589 275 -102 
C 410 -205 563 -378 640 -499 
C 2202 218 2893 1446 3206 2682 
C 3706 1222 4531 90 5773 -499 
C 5856 -358 6010 -160 6131 -51 
C 4890 467 4051 1632 3603 3046 
L 6029 3046 
L 6029 3539 
L 3366 3539 
C 3456 4211 3462 4851 3469 5370 
L 2950 5370 
z
" transform="scale(0.015625)"/>
     </defs>
     <use xlink:href="#Cmmi10-7b" transform="translate(0 0.09375)"/>
     <use xlink:href="#NotoSansCJKjp-Regular-1" transform="translate(43.896484 0.09375)"/>
     <use xlink:href="#NotoSansCJKjp-Regular-36fb" transform="translate(66.296463 0.09375)"/>
    </g>
   </g>
   <g id="patch_10">
    <path d="M 587.911289 148.956828 
L 600.621037 148.956828 
L 600.621037 92.740633 
L 587.911289 92.740633 
z
" clip-path="url(#p1d621f13b0)" style="fill: #d1242f; stroke: #222831; stroke-width: 1.3; stroke-linejoin: miter"/>
   </g>
   <g id="patch_11">
    <path d="M 568.814383 164.670133 
Q 594.266123 140.576108 618.094004 163.132827 
" style="fill: none; stroke: #8250df; stroke-width: 2; stroke-linecap: round"/>
    <path d="M 616.258114 158.090059 
L 618.094004 163.132827 
L 612.958255 161.575878 
z
" style="fill: #8250df; stroke: #8250df; stroke-width: 2; stroke-linecap: round"/>
   </g>
   <g id="text_9">
    <!-- $\omega$ 大 -->
    <g style="fill: #8250df" transform="translate(582.241163 185.619564) scale(0.13 -0.13)">
     <use xlink:href="#Cmmi10-1d" transform="translate(0 0.09375)"/>
     <use xlink:href="#NotoSansCJKjp-Regular-1" transform="translate(62.207031 0.09375)"/>
     <use xlink:href="#NotoSansCJKjp-Regular-36fb" transform="translate(84.60701 0.09375)"/>
    </g>
   </g>
   <g id="text_10">
    <!-- 收回手臂 -->
    <g style="fill: #222831" transform="translate(572.266163 47.522079) scale(0.11 -0.11)">
     <defs>
      <path id="NotoSansCJKjp-Regular-4dc4" d="M 3642 5376 
C 3405 4320 2995 3302 2438 2650 
L 2438 5344 
L 1965 5344 
L 1965 1677 
L 1120 1446 
L 1120 4640 
L 659 4640 
L 659 1331 
L 224 1222 
L 378 736 
L 1965 1229 
L 1965 -512 
L 2438 -512 
L 2438 2611 
C 2554 2522 2739 2362 2810 2278 
C 3002 2515 3187 2803 3354 3117 
C 3546 2374 3808 1702 4147 1133 
C 3718 614 3181 211 2490 -96 
C 2586 -205 2726 -416 2778 -531 
C 3443 -205 3987 211 4422 723 
C 4819 186 5312 -237 5914 -525 
C 5984 -397 6138 -211 6240 -115 
C 5626 147 5133 576 4730 1120 
C 5216 1824 5549 2682 5786 3731 
L 6170 3731 
L 6170 4186 
L 3808 4186 
C 3936 4538 4038 4909 4128 5280 
L 3642 5376 
z
M 5286 3731 
C 5107 2874 4838 2150 4454 1549 
C 4090 2176 3827 2918 3654 3731 
L 5286 3731 
z
" transform="scale(0.015625)"/>
      <path id="NotoSansCJKjp-Regular-3351" d="M 2394 3200 
L 3955 3200 
L 3955 1734 
L 2394 1734 
L 2394 3200 
z
M 1939 3635 
L 1939 1306 
L 4429 1306 
L 4429 3635 
L 1939 3635 
z
M 525 5114 
L 525 -506 
L 1018 -506 
L 1018 -160 
L 5370 -160 
L 5370 -506 
L 5882 -506 
L 5882 5114 
L 525 5114 
z
M 1018 294 
L 1018 4634 
L 5370 4634 
L 5370 294 
L 1018 294 
z
" transform="scale(0.015625)"/>
     </defs>
     <use xlink:href="#NotoSansCJKjp-Regular-4dc4"/>
     <use xlink:href="#NotoSansCJKjp-Regular-3351" transform="translate(100 0)"/>
     <use xlink:href="#NotoSansCJKjp-Regular-48c6" transform="translate(200 0)"/>
     <use xlink:href="#NotoSansCJKjp-Regular-81a9" transform="translate(300 0)"/>
    </g>
    <!-- $I$ 小 -->
    <g style="fill: #222831" transform="translate(585.081163 58.522079) scale(0.11 -0.11)">
     <use xlink:href="#Cmmi10-7b" transform="translate(0 0.40625)"/>
     <use xlink:href="#NotoSansCJKjp-Regular-1" transform="translate(43.896484 0.40625)"/>
     <use xlink:href="#NotoSansCJKjp-Regular-3d78" transform="translate(66.296463 0.40625)"/>
    </g>
   </g>
   <g id="patch_12">
    <path d="M 496.054904 119.626639 
Q 513.609471 119.626639 529.151576 119.626639 
" style="fill: none; stroke: #222831; stroke-width: 1.8; stroke-linecap: round"/>
    <path d="M 524.351576 117.226639 
L 529.151576 119.626639 
L 524.351576 122.026639 
z
" style="fill: #222831; stroke: #222831; stroke-width: 1.8; stroke-linecap: round"/>
   </g>
   <g id="text_11">
    <!-- 收手 -->
    <g style="fill: #222831" transform="translate(502.608143 102.517362) scale(0.11 -0.11)">
     <use xlink:href="#NotoSansCJKjp-Regular-4dc4"/>
     <use xlink:href="#NotoSansCJKjp-Regular-48c6" transform="translate(100 0)"/>
    </g>
   </g>
   <g id="text_12">
    <!-- $L=I\omega$ 守恆：$I\downarrow \Rightarrow \omega\uparrow$ -->
    <g style="fill: #222831" transform="translate(446.101461 219.838118) scale(0.125 -0.125)">
     <defs>
      <path id="NotoSansCJKjp-Regular-3c64" d="M 1158 1882 
C 1568 1472 2010 896 2195 518 
L 2598 794 
C 2406 1178 1952 1728 1536 2125 
L 1158 1882 
z
M 3898 3840 
L 3898 2918 
L 371 2918 
L 371 2451 
L 3898 2451 
L 3898 109 
C 3898 -6 3853 -45 3725 -45 
C 3597 -51 3149 -51 2675 -38 
C 2746 -173 2829 -384 2854 -518 
C 3469 -518 3846 -512 4077 -435 
C 4301 -358 4384 -218 4384 102 
L 4384 2451 
L 6035 2451 
L 6035 2918 
L 4384 2918 
L 4384 3840 
L 3898 3840 
z
M 525 4659 
L 525 3302 
L 1011 3302 
L 1011 4198 
L 5357 4198 
L 5357 3302 
L 5862 3302 
L 5862 4659 
L 3437 4659 
L 3437 5376 
L 2931 5376 
L 2931 4659 
L 525 4659 
z
" transform="scale(0.015625)"/>
      <path id="NotoSansCJKjp-Regular-4514" d="M 3533 2515 
C 3878 2362 4301 2118 4518 1939 
L 4736 2291 
C 4518 2470 4090 2694 3744 2829 
L 3533 2515 
z
M 3277 1453 
C 3642 1254 4077 947 4288 730 
L 4538 1062 
C 4326 1274 3878 1562 3520 1754 
L 3277 1453 
z
M 1082 5376 
L 1082 -506 
L 1542 -506 
L 1542 5376 
L 1082 5376 
z
M 506 4141 
C 493 3578 390 2886 173 2496 
L 493 2342 
C 730 2784 832 3514 838 4096 
L 506 4141 
z
M 1587 4218 
C 1766 3814 1939 3290 1990 2970 
L 2310 3117 
C 2259 3424 2080 3936 1888 4333 
L 1587 4218 
z
M 1946 147 
L 1946 -301 
L 6144 -301 
L 6144 147 
L 5094 147 
C 5248 1082 5434 2566 5555 3680 
L 3526 3680 
L 3674 4538 
L 6054 4538 
L 6054 4986 
L 2163 4986 
L 2163 4538 
L 3194 4538 
C 3021 3450 2733 2003 2515 1152 
L 2989 1107 
C 3123 1658 3290 2451 3443 3245 
L 5024 3245 
C 4915 2221 4749 979 4595 147 
L 1946 147 
z
" transform="scale(0.015625)"/>
      <path id="NotoSansCJKjp-Regular-e6c0" d="M 3200 3482 
C 3456 3482 3686 3667 3686 3962 
C 3686 4256 3456 4442 3200 4442 
C 2944 4442 2714 4256 2714 3962 
C 2714 3667 2944 3482 3200 3482 
z
M 3200 346 
C 3456 346 3686 538 3686 826 
C 3686 1120 3456 1312 3200 1312 
C 2944 1312 2714 1120 2714 826 
C 2714 538 2944 346 3200 346 
z
" transform="scale(0.015625)"/>
      <path id="Cmsy10-1c" d="M 1528 -1184 
Q 1475 -813 1287 -508 
Q 1100 -203 806 8 
Q 513 219 153 300 
Q 109 316 109 359 
L 109 500 
Q 109 522 134 539 
Q 159 556 178 556 
Q 184 556 197 550 
Q 594 466 926 228 
Q 1259 -9 1472 -359 
L 1472 4325 
Q 1472 4375 1512 4408 
Q 1553 4441 1600 4441 
Q 1647 4441 1687 4408 
Q 1728 4375 1728 4325 
L 1728 -359 
Q 1941 -9 2277 228 
Q 2613 466 3003 550 
Q 3016 556 3022 556 
Q 3047 556 3069 540 
Q 3091 525 3091 500 
L 3091 359 
Q 3091 347 3078 326 
Q 3066 306 3047 300 
Q 2509 184 2128 -228 
Q 1747 -641 1672 -1184 
Q 1656 -1241 1600 -1241 
Q 1544 -1241 1528 -1184 
z
" transform="scale(0.015625)"/>
      <path id="Cmsy10-70" d="M 481 850 
Q 428 850 393 890 
Q 359 931 359 978 
Q 359 1031 393 1068 
Q 428 1106 481 1106 
L 4634 1106 
Q 5009 1416 5453 1600 
Q 5009 1784 4634 2094 
L 481 2094 
Q 428 2094 393 2131 
Q 359 2169 359 2222 
Q 359 2269 393 2309 
Q 428 2350 481 2350 
L 4353 2350 
Q 4194 2516 3950 2850 
Q 3706 3184 3706 3291 
Q 3706 3319 3723 3339 
Q 3741 3359 3769 3359 
L 3897 3359 
Q 3938 3359 3950 3322 
Q 4109 3009 4314 2750 
Q 4519 2491 4787 2272 
Q 5056 2053 5353 1906 
Q 5650 1759 5991 1672 
Q 6034 1644 6034 1600 
Q 6034 1550 5991 1538 
Q 5325 1369 4792 934 
Q 4259 500 3950 -122 
Q 3938 -159 3897 -159 
L 3769 -159 
Q 3706 -159 3706 -91 
Q 3706 -16 3832 179 
Q 3959 375 4111 567 
Q 4263 759 4353 850 
L 481 850 
z
" transform="scale(0.015625)"/>
      <path id="Cmsy10-19" d="M 1472 -1125 
L 1472 3559 
Q 1328 3322 1133 3140 
Q 938 2959 698 2832 
Q 459 2706 197 2650 
Q 184 2644 178 2644 
Q 109 2644 109 2700 
L 109 2841 
Q 109 2884 153 2900 
Q 513 2981 806 3192 
Q 1100 3403 1287 3708 
Q 1475 4013 1528 4384 
Q 1541 4413 1559 4427 
Q 1578 4441 1600 4441 
Q 1622 4441 1644 4423 
Q 1666 4406 1672 4384 
Q 1747 3841 2125 3431 
Q 2503 3022 3047 2900 
Q 3066 2894 3078 2873 
Q 3091 2853 3091 2841 
L 3091 2700 
Q 3091 2681 3069 2662 
Q 3047 2644 3022 2644 
Q 3016 2644 3003 2650 
Q 2741 2706 2502 2832 
Q 2263 2959 2067 3140 
Q 1872 3322 1728 3559 
L 1728 -1125 
Q 1728 -1175 1687 -1208 
Q 1647 -1241 1600 -1241 
Q 1553 -1241 1512 -1208 
Q 1472 -1175 1472 -1125 
z
" transform="scale(0.015625)"/>
     </defs>
     <use xlink:href="#Cmmi10-55"/>
     <use xlink:href="#Cmr10-29" transform="translate(88.017635 0)"/>
     <use xlink:href="#Cmmi10-7b" transform="translate(185.703239 0)"/>
     <use xlink:href="#Cmmi10-1d" transform="translate(229.599724 0)"/>
     <use xlink:href="#NotoSansCJKjp-Regular-1" transform="translate(291.806755 0)"/>
     <use xlink:href="#NotoSansCJKjp-Regular-3c64" transform="translate(314.206734 0)"/>
     <use xlink:href="#NotoSansCJKjp-Regular-4514" transform="translate(414.206642 0)"/>
     <use xlink:href="#NotoSansCJKjp-Regular-e6c0" transform="translate(514.206551 0)"/>
     <use xlink:href="#Cmmi10-7b" transform="translate(614.206459 0)"/>
     <use xlink:href="#Cmsy10-1c" transform="translate(678.103001 0)"/>
     <use xlink:href="#Cmsy10-70" transform="translate(768.103115 0)"/>
     <use xlink:href="#Cmmi10-1d" transform="translate(888.103172 0)"/>
     <use xlink:href="#Cmsy10-19" transform="translate(970.310261 0)"/>
    </g>
   </g>
   <g id="text_13">
    <!-- 溜冰選手收手轉更快（角動量守恆） -->
    <g style="fill: #222831" transform="translate(403.163961 30.524437) scale(0.135 -0.135)">
     <defs>
      <path id="NotoSansCJKjp-Regular-5da3" d="M 576 4973 
C 960 4787 1421 4486 1645 4262 
L 1933 4646 
C 1702 4864 1229 5146 858 5318 
L 576 4973 
z
M 243 3238 
C 640 3072 1126 2784 1357 2573 
L 1638 2963 
C 1395 3174 909 3437 506 3590 
L 243 3238 
z
M 410 -147 
L 826 -429 
C 1165 166 1568 986 1862 1677 
L 1491 1952 
C 1165 1210 717 358 410 -147 
z
M 2758 762 
L 3776 762 
L 3776 122 
L 2758 122 
L 2758 762 
z
M 5261 762 
L 5261 122 
L 4205 122 
L 4205 762 
L 5261 762 
z
M 2758 1139 
L 2758 1766 
L 3776 1766 
L 3776 1139 
L 2758 1139 
z
M 5261 1139 
L 4205 1139 
L 4205 1766 
L 5261 1766 
L 5261 1139 
z
M 3482 5376 
C 3251 5210 2880 5030 2528 4877 
L 2202 4973 
L 2246 3142 
L 1856 3027 
L 2035 2598 
L 3565 3155 
C 3610 3066 3654 2982 3680 2906 
L 4019 3078 
C 3878 2874 3680 2701 3424 2566 
C 3514 2496 3635 2362 3686 2266 
C 4557 2733 4781 3539 4858 4640 
L 5510 4640 
C 5478 3488 5440 3072 5363 2963 
C 5325 2906 5274 2893 5197 2893 
C 5114 2893 4934 2899 4723 2918 
C 4794 2803 4838 2624 4838 2502 
C 5056 2490 5267 2490 5389 2502 
C 5549 2522 5638 2566 5734 2682 
C 5862 2848 5901 3379 5946 4845 
C 5946 4902 5946 5037 5946 5037 
L 3846 5037 
L 3846 4640 
L 4435 4640 
C 4397 4013 4307 3494 4032 3098 
C 3917 3386 3648 3821 3392 4128 
L 3053 3974 
C 3162 3827 3277 3661 3373 3494 
L 2675 3270 
L 2643 4518 
C 3040 4659 3482 4845 3821 5037 
L 3482 5376 
z
M 2323 2163 
L 2323 -512 
L 2758 -512 
L 2758 -275 
L 5261 -275 
L 5261 -486 
L 5709 -486 
L 5709 2163 
L 2323 2163 
z
" transform="scale(0.015625)"/>
      <path id="NotoSansCJKjp-Regular-2afc" d="M 256 4570 
C 659 4320 1152 3949 1395 3699 
L 1696 4090 
C 1446 4333 941 4685 544 4915 
L 256 4570 
z
M 256 563 
L 672 262 
C 1018 826 1427 1581 1734 2227 
L 1370 2522 
C 1037 1837 570 1030 256 563 
z
M 1786 3718 
L 1786 3245 
L 2938 3245 
C 2694 2061 2144 1062 1478 602 
C 1587 506 1728 320 1792 211 
C 2611 845 3226 2048 3456 3654 
L 3174 3731 
L 3091 3718 
L 1786 3718 
z
M 5613 4109 
C 5338 3731 4909 3270 4531 2912 
C 4378 3328 4256 3776 4160 4237 
L 4160 5370 
L 3667 5370 
L 3667 134 
C 3667 26 3629 0 3533 -6 
C 3430 -13 3098 -13 2733 0 
C 2810 -134 2899 -365 2925 -499 
C 3398 -499 3712 -486 3898 -397 
C 4083 -314 4160 -166 4160 134 
L 4160 2906 
C 4525 1734 5075 774 5907 237 
C 5984 371 6138 557 6246 646 
C 5568 1018 5062 1677 4698 2496 
C 5120 2861 5638 3379 6022 3846 
L 5613 4109 
z
" transform="scale(0.015625)"/>
      <path id="NotoSansCJKjp-Regular-9e5f" d="M 320 4979 
C 691 4666 1107 4198 1280 3885 
L 1683 4154 
C 1498 4474 1075 4922 691 5222 
L 320 4979 
z
M 4352 1018 
C 4794 787 5261 486 5523 250 
L 5990 454 
C 5690 698 5158 1005 4698 1229 
L 4352 1018 
z
M 3174 1242 
C 2886 986 2413 736 1978 570 
C 2080 499 2253 346 2330 269 
C 2758 467 3270 781 3603 1094 
L 3174 1242 
z
M 1530 2848 
L 288 2848 
L 288 2400 
L 1075 2400 
L 1075 730 
C 794 467 480 192 218 0 
L 467 -461 
C 774 -173 1062 102 1338 384 
C 1734 -128 2323 -352 3174 -384 
C 3898 -410 5299 -397 6029 -371 
C 6048 -230 6118 -19 6176 90 
C 5395 38 3885 19 3162 45 
C 2406 77 1837 294 1530 774 
L 1530 2848 
z
M 4461 3136 
L 4461 2669 
L 3411 2669 
L 3411 3136 
L 2957 3136 
L 2957 2669 
L 2010 2669 
L 2010 2298 
L 2957 2298 
L 2957 1690 
L 1805 1690 
L 1805 1312 
L 6093 1312 
L 6093 1690 
L 4922 1690 
L 4922 2298 
L 5894 2298 
L 5894 2669 
L 4922 2669 
L 4922 3136 
L 4461 3136 
z
M 3411 2298 
L 4461 2298 
L 4461 1690 
L 3411 1690 
L 3411 2298 
z
M 2035 4378 
L 2035 3706 
C 2035 3315 2163 3219 2637 3219 
C 2733 3219 3334 3219 3437 3219 
C 3770 3219 3891 3328 3936 3744 
C 3814 3770 3661 3821 3578 3878 
C 3558 3597 3533 3558 3379 3558 
C 3258 3558 2771 3558 2682 3558 
C 2477 3558 2445 3584 2445 3706 
L 2445 4038 
L 3712 4038 
L 3712 5126 
L 1926 5126 
L 1926 4794 
L 3296 4794 
L 3296 4378 
L 2035 4378 
z
M 4141 4378 
L 4141 3712 
C 4141 3315 4275 3219 4755 3219 
C 4858 3219 5510 3219 5619 3219 
C 5958 3219 6086 3334 6125 3763 
C 6010 3795 5856 3840 5773 3904 
C 5747 3603 5722 3558 5562 3558 
C 5427 3558 4902 3558 4800 3558 
C 4589 3558 4550 3584 4550 3712 
L 4550 4038 
L 5805 4038 
L 5805 5126 
L 4019 5126 
L 4019 4794 
L 5382 4794 
L 5382 4378 
L 4141 4378 
z
" transform="scale(0.015625)"/>
      <path id="NotoSansCJKjp-Regular-9bba" d="M 3258 691 
C 3501 461 3750 134 3859 -90 
L 4218 141 
C 4096 358 3834 666 3584 883 
L 3258 691 
z
M 2880 2061 
L 2912 1696 
C 3629 1709 4659 1728 5670 1760 
C 5741 1664 5798 1574 5843 1498 
L 6189 1696 
C 6042 1926 5754 2253 5466 2502 
L 5926 2502 
L 5926 4179 
L 4691 4179 
L 4691 4525 
L 6074 4525 
L 6074 4902 
L 4691 4902 
L 4691 5370 
L 4269 5370 
L 4269 4902 
L 2944 4902 
L 2944 4525 
L 4269 4525 
L 4269 4179 
L 3098 4179 
L 3098 2502 
L 4269 2502 
L 4269 2080 
L 2880 2061 
z
M 474 3782 
L 474 1555 
L 1382 1555 
L 1382 1030 
L 243 1030 
L 243 608 
L 1382 608 
L 1382 -518 
L 1818 -518 
L 1818 608 
L 2906 608 
L 2906 941 
L 4922 941 
L 4922 -32 
C 4922 -102 4896 -128 4806 -134 
C 4723 -141 4429 -141 4109 -128 
C 4166 -243 4230 -403 4250 -525 
C 4678 -525 4954 -525 5139 -454 
C 5325 -397 5363 -282 5363 -45 
L 5363 941 
L 6150 941 
L 6150 1318 
L 5363 1318 
L 5363 1664 
L 4922 1664 
L 4922 1318 
L 2874 1318 
L 2874 1030 
L 1818 1030 
L 1818 1555 
L 2746 1555 
L 2746 3782 
L 1818 3782 
L 1818 4256 
L 2816 4256 
L 2816 4678 
L 1818 4678 
L 1818 5376 
L 1382 5376 
L 1382 4678 
L 333 4678 
L 333 4256 
L 1382 4256 
L 1382 3782 
L 474 3782 
z
M 3494 3200 
L 4269 3200 
L 4269 2803 
L 3494 2803 
L 3494 3200 
z
M 4691 3200 
L 5510 3200 
L 5510 2803 
L 4691 2803 
L 4691 3200 
z
M 3494 3878 
L 4269 3878 
L 4269 3488 
L 3494 3488 
L 3494 3878 
z
M 4691 3878 
L 5510 3878 
L 5510 3488 
L 4691 3488 
L 4691 3878 
z
M 5094 2381 
C 5184 2298 5280 2202 5376 2106 
L 4691 2086 
L 4691 2502 
L 5331 2502 
L 5094 2381 
z
M 838 2502 
L 1427 2502 
L 1427 1914 
L 838 1914 
L 838 2502 
z
M 1773 2502 
L 2374 2502 
L 2374 1914 
L 1773 1914 
L 1773 2502 
z
M 838 3424 
L 1427 3424 
L 1427 2848 
L 838 2848 
L 838 3424 
z
M 1773 3424 
L 2374 3424 
L 2374 2848 
L 1773 2848 
L 1773 3424 
z
" transform="scale(0.015625)"/>
      <path id="NotoSansCJKjp-Regular-50ac" d="M 1613 1523 
L 1203 1357 
C 1421 986 1690 691 2003 454 
C 1613 230 1062 45 301 -96 
C 403 -205 531 -410 589 -518 
C 1421 -339 2016 -102 2445 179 
C 3328 -288 4506 -435 5997 -493 
C 6022 -333 6112 -128 6202 -19 
C 4768 19 3661 115 2835 486 
C 3168 813 3341 1184 3418 1581 
L 5587 1581 
L 5587 4058 
L 3488 4058 
L 3488 4602 
L 5984 4602 
L 5984 5037 
L 416 5037 
L 416 4602 
L 2989 4602 
L 2989 4058 
L 998 4058 
L 998 1581 
L 2912 1581 
C 2835 1274 2688 986 2394 730 
C 2086 934 1824 1190 1613 1523 
z
M 1459 2630 
L 2989 2630 
L 2989 2374 
C 2989 2240 2989 2106 2976 1978 
L 1459 1978 
L 1459 2630 
z
M 3475 1978 
C 3482 2106 3488 2234 3488 2368 
L 3488 2630 
L 5107 2630 
L 5107 1978 
L 3475 1978 
z
M 1459 3654 
L 2989 3654 
L 2989 3014 
L 1459 3014 
L 1459 3654 
z
M 3488 3654 
L 5107 3654 
L 5107 3014 
L 3488 3014 
L 3488 3654 
z
" transform="scale(0.015625)"/>
      <path id="NotoSansCJKjp-Regular-448d" d="M 1088 5376 
L 1088 -506 
L 1568 -506 
L 1568 5376 
L 1088 5376 
z
M 512 4141 
C 467 3622 352 2918 179 2496 
L 557 2362 
C 730 2829 845 3571 877 4090 
L 512 4141 
z
M 1581 4198 
C 1773 3814 1978 3309 2054 3002 
L 2413 3181 
C 2336 3482 2118 3974 1920 4346 
L 1581 4198 
z
M 5152 2438 
L 4160 2438 
C 4186 2714 4192 2982 4192 3245 
L 4192 3904 
L 5152 3904 
L 5152 2438 
z
M 3712 5376 
L 3712 4358 
L 2458 4358 
L 2458 3904 
L 3712 3904 
L 3712 3245 
C 3712 2989 3706 2714 3680 2438 
L 2112 2438 
L 2112 1971 
L 3616 1971 
C 3450 1184 3027 397 1901 -166 
C 2010 -256 2176 -435 2240 -538 
C 3315 58 3802 851 4019 1664 
C 4390 659 4986 -134 5888 -531 
C 5958 -390 6118 -186 6234 -83 
C 5338 243 4723 1024 4378 1971 
L 6176 1971 
L 6176 2438 
L 5626 2438 
L 5626 4358 
L 4192 4358 
L 4192 5376 
L 3712 5376 
z
" transform="scale(0.015625)"/>
     </defs>
     <use xlink:href="#NotoSansCJKjp-Regular-5da3"/>
     <use xlink:href="#NotoSansCJKjp-Regular-2afc" transform="translate(100 0)"/>
     <use xlink:href="#NotoSansCJKjp-Regular-9e5f" transform="translate(200 0)"/>
     <use xlink:href="#NotoSansCJKjp-Regular-48c6" transform="translate(300 0)"/>
     <use xlink:href="#NotoSansCJKjp-Regular-4dc4" transform="translate(400 0)"/>
     <use xlink:href="#NotoSansCJKjp-Regular-48c6" transform="translate(500 0)"/>
     <use xlink:href="#NotoSansCJKjp-Regular-9bba" transform="translate(600 0)"/>
     <use xlink:href="#NotoSansCJKjp-Regular-50ac" transform="translate(700 0)"/>
     <use xlink:href="#NotoSansCJKjp-Regular-448d" transform="translate(800 0)"/>
     <use xlink:href="#NotoSansCJKjp-Regular-e6ae" transform="translate(900 0)"/>
     <use xlink:href="#NotoSansCJKjp-Regular-9248" transform="translate(1000 0)"/>
     <use xlink:href="#NotoSansCJKjp-Regular-2cc2" transform="translate(1100 0)"/>
     <use xlink:href="#NotoSansCJKjp-Regular-a108" transform="translate(1200 0)"/>
     <use xlink:href="#NotoSansCJKjp-Regular-3c64" transform="translate(1300 0)"/>
     <use xlink:href="#NotoSansCJKjp-Regular-4514" transform="translate(1400 0)"/>
     <use xlink:href="#NotoSansCJKjp-Regular-e6af" transform="translate(1500 0)"/>
    </g>
   </g>
   <g id="patch_13">
    <path d="M 428.061759 96.162488 
C 430.91386 96.162488 433.64953 95.029336 435.66627 93.012597 
C 437.68301 90.995857 438.816162 88.260186 438.816162 85.408086 
C 438.816162 82.555985 437.68301 79.820314 435.66627 77.803575 
C 433.64953 75.786835 430.91386 74.653683 428.061759 74.653683 
C 425.209658 74.653683 422.473988 75.786835 420.457248 77.803575 
C 418.440508 79.820314 417.307357 82.555985 417.307357 85.408086 
C 417.307357 88.260186 418.440508 90.995857 420.457248 93.012597 
C 422.473988 95.029336 425.209658 96.162488 428.061759 96.162488 
z
" clip-path="url(#p1d621f13b0)" style="fill: #1f6feb; stroke: #222831; stroke-width: 1.3; stroke-linejoin: miter"/>
   </g>
   <g id="patch_14">
    <path d="M 594.266163 96.162488 
C 597.118264 96.162488 599.853934 95.029336 601.870674 93.012597 
C 603.887414 90.995857 605.020566 88.260186 605.020566 85.408086 
C 605.020566 82.555985 603.887414 79.820314 601.870674 77.803575 
C 599.853934 75.786835 597.118264 74.653683 594.266163 74.653683 
C 591.414062 74.653683 588.678392 75.786835 586.661652 77.803575 
C 584.644912 79.820314 583.51176 82.555985 583.51176 85.408086 
C 583.51176 88.260186 584.644912 90.995857 586.661652 93.012597 
C 588.678392 95.029336 591.414062 96.162488 594.266163 96.162488 
z
" clip-path="url(#p1d621f13b0)" style="fill: #d1242f; stroke: #222831; stroke-width: 1.3; stroke-linejoin: miter"/>
   </g>
   <g id="line2d_1">
    <path d="M 428.061759 102.517362 
L 371.845564 95.184815 
" clip-path="url(#p1d621f13b0)" style="fill: none; stroke: #222831; stroke-width: 3; stroke-linecap: round"/>
   </g>
   <g id="line2d_2">
    <path d="M 428.061759 102.517362 
L 484.277955 95.184815 
" clip-path="url(#p1d621f13b0)" style="fill: none; stroke: #222831; stroke-width: 3; stroke-linecap: round"/>
   </g>
   <g id="line2d_3">
    <path d="M 594.266163 102.517362 
L 573.735031 95.184815 
" clip-path="url(#p1d621f13b0)" style="fill: none; stroke: #222831; stroke-width: 3; stroke-linecap: round"/>
   </g>
   <g id="line2d_4">
    <path d="M 594.266163 102.517362 
L 614.797295 95.184815 
" clip-path="url(#p1d621f13b0)" style="fill: none; stroke: #222831; stroke-width: 3; stroke-linecap: round"/>
   </g>
   <g id="patch_15">
    <path d="M 371.845564 100.07318 
C 373.141973 100.07318 374.38546 99.558111 375.30216 98.641411 
C 376.21886 97.724711 376.733929 96.481225 376.733929 95.184815 
C 376.733929 93.888406 376.21886 92.644919 375.30216 91.728219 
C 374.38546 90.811519 373.141973 90.29645 371.845564 90.29645 
C 370.549154 90.29645 369.305668 90.811519 368.388968 91.728219 
C 367.472268 92.644919 366.957199 93.888406 366.957199 95.184815 
C 366.957199 96.481225 367.472268 97.724711 368.388968 98.641411 
C 369.305668 99.558111 370.549154 100.07318 371.845564 100.07318 
z
" clip-path="url(#p1d621f13b0)" style="fill: #bf8700; stroke: #bf8700; stroke-linejoin: miter"/>
   </g>
   <g id="patch_16">
    <path d="M 484.277955 100.07318 
C 485.574364 100.07318 486.817851 99.558111 487.73455 98.641411 
C 488.65125 97.724711 489.166319 96.481225 489.166319 95.184815 
C 489.166319 93.888406 488.65125 92.644919 487.73455 91.728219 
C 486.817851 90.811519 485.574364 90.29645 484.277955 90.29645 
C 482.981545 90.29645 481.738059 90.811519 480.821359 91.728219 
C 479.904659 92.644919 479.38959 93.888406 479.38959 95.184815 
C 479.38959 96.481225 479.904659 97.724711 480.821359 98.641411 
C 481.738059 99.558111 482.981545 100.07318 484.277955 100.07318 
z
" clip-path="url(#p1d621f13b0)" style="fill: #bf8700; stroke: #bf8700; stroke-linejoin: miter"/>
   </g>
   <g id="patch_17">
    <path d="M 573.735031 100.07318 
C 575.03144 100.07318 576.274927 99.558111 577.191627 98.641411 
C 578.108327 97.724711 578.623396 96.481225 578.623396 95.184815 
C 578.623396 93.888406 578.108327 92.644919 577.191627 91.728219 
C 576.274927 90.811519 575.03144 90.29645 573.735031 90.29645 
C 572.438621 90.29645 571.195135 90.811519 570.278435 91.728219 
C 569.361735 92.644919 568.846666 93.888406 568.846666 95.184815 
C 568.846666 96.481225 569.361735 97.724711 570.278435 98.641411 
C 571.195135 99.558111 572.438621 100.07318 573.735031 100.07318 
z
" clip-path="url(#p1d621f13b0)" style="fill: #bf8700; stroke: #bf8700; stroke-linejoin: miter"/>
   </g>
   <g id="patch_18">
    <path d="M 614.797295 100.07318 
C 616.093705 100.07318 617.337191 99.558111 618.253891 98.641411 
C 619.170591 97.724711 619.68566 96.481225 619.68566 95.184815 
C 619.68566 93.888406 619.170591 92.644919 618.253891 91.728219 
C 617.337191 90.811519 616.093705 90.29645 614.797295 90.29645 
C 613.500886 90.29645 612.257399 90.811519 611.340699 91.728219 
C 610.423999 92.644919 609.90893 93.888406 609.90893 95.184815 
C 609.90893 96.481225 610.423999 97.724711 611.340699 98.641411 
C 612.257399 99.558111 613.500886 100.07318 614.797295 100.07318 
z
" clip-path="url(#p1d621f13b0)" style="fill: #bf8700; stroke: #bf8700; stroke-linejoin: miter"/>
   </g>
  </g>
 </g>
 <defs>
  <clipPath id="pa403120d16">
   <rect x="7.2" y="26.835" width="322.632078" height="224.690197"/>
  </clipPath>
  <clipPath id="p1d621f13b0">
   <rect x="349.847922" y="36.524437" width="322.632078" height="205.311322"/>
  </clipPath>
 </defs>
</svg>
