<?xml version="1.0" encoding="utf-8" standalone="no"?>
<!DOCTYPE svg PUBLIC "-//W3C//DTD SVG 1.1//EN"
  "http://www.w3.org/Graphics/SVG/1.1/DTD/svg11.dtd">
<svg xmlns:xlink="http://www.w3.org/1999/xlink" width="1049.7pt" height="269.88pt" viewBox="0 0 1049.7 269.88" xmlns="http://www.w3.org/2000/svg" version="1.1">
 <metadata>
  <rdf:RDF xmlns:dc="http://purl.org/dc/elements/1.1/" xmlns:cc="http://creativecommons.org/ns#" xmlns:rdf="http://www.w3.org/1999/02/22-rdf-syntax-ns#">
   <cc:Work>
    <dc:type rdf:resource="http://purl.org/dc/dcmitype/StillImage"/>
    <dc:date>2026-06-20T18:20:36.416730</dc:date>
    <dc:format>image/svg+xml</dc:format>
    <dc:creator>
     <cc:Agent>
      <dc:title>Matplotlib v3.11.0, https://matplotlib.org/</dc:title>
     </cc:Agent>
    </dc:creator>
   </cc:Work>
  </rdf:RDF>
 </metadata>
 <defs>
  <style type="text/css">*{stroke-linejoin: round; stroke-linecap: butt}</style>
 </defs>
 <g id="figure_1">
  <g id="patch_1">
   <path d="M 0 269.88 
L 1049.7 269.88 
L 1049.7 0 
L 0 0 
z
" style="fill: #ffffff"/>
  </g>
  <g id="axes_1">
   <g id="patch_2">
    <path d="M 35.02 243.68 
L 263.82 243.68 
L 263.82 37.76 
L 35.02 37.76 
z
" style="fill: #ffffff"/>
   </g>
   <g id="line2d_1">
    <path d="M 35.02 152.16 
L 263.82 152.16 
" clip-path="url(#pb3de5d0e16)" style="fill: none; stroke: #d8dde3; stroke-linecap: square"/>
   </g>
   <g id="line2d_2">
    <path d="M 126.54 243.68 
L 126.54 37.76 
" clip-path="url(#pb3de5d0e16)" style="fill: none; stroke: #d8dde3; stroke-linecap: square"/>
   </g>
   <g id="matplotlib.axis_1">
    <g id="xtick_1">
     <g id="line2d_3">
      <path d="M 69.34 243.68 
L 69.34 37.76 
" clip-path="url(#pb3de5d0e16)" style="fill: none; stroke: #d8dde3; stroke-width: 0.9; stroke-linecap: square"/>
     </g>
     <g id="line2d_4">
      <defs>
       <path id="m201ed94bc7" d="M 0 0 
L 0 3.5 
" style="stroke: #222831; stroke-width: 0.8"/>
      </defs>
      <g>
       <use xlink:href="#m201ed94bc7" x="69.34" y="243.68" style="fill: #222831; stroke: #222831; stroke-width: 0.8"/>
      </g>
     </g>
     <g id="text_1">
      <!-- -1 -->
      <g style="fill: #222831" transform="translate(63.927813 261.24) scale(0.12 -0.12)">
       <defs>
        <path id="NotoSansCJKjp-Regular-e" d="M 294 1568 
L 1933 1568 
L 1933 2016 
L 294 2016 
L 294 1568 
z
" transform="scale(0.015625)"/>
        <path id="NotoSansCJKjp-Regular-12" d="M 563 0 
L 3136 0 
L 3136 486 
L 2195 486 
L 2195 4691 
L 1747 4691 
C 1491 4544 1190 4435 774 4358 
L 774 3987 
L 1613 3987 
L 1613 486 
L 563 486 
L 563 0 
z
" transform="scale(0.015625)"/>
       </defs>
       <use xlink:href="#NotoSansCJKjp-Regular-e"/>
       <use xlink:href="#NotoSansCJKjp-Regular-12" transform="translate(34.703125 0)"/>
      </g>
     </g>
    </g>
    <g id="xtick_2">
     <g id="line2d_5">
      <path d="M 126.54 243.68 
L 126.54 37.76 
" clip-path="url(#pb3de5d0e16)" style="fill: none; stroke: #d8dde3; stroke-width: 0.9; stroke-linecap: square"/>
     </g>
     <g id="line2d_6">
      <g>
       <use xlink:href="#m201ed94bc7" x="126.54" y="243.68" style="fill: #222831; stroke: #222831; stroke-width: 0.8"/>
      </g>
     </g>
     <g id="text_2">
      <!-- 0 -->
      <g style="fill: #222831" transform="translate(123.21 261.24) scale(0.12 -0.12)">
       <defs>
        <path id="NotoSansCJKjp-Regular-11" d="M 1779 -83 
C 2669 -83 3238 723 3238 2362 
C 3238 3987 2669 4774 1779 4774 
C 883 4774 320 3987 320 2362 
C 320 723 883 -83 1779 -83 
z
M 1779 390 
C 1248 390 883 986 883 2362 
C 883 3731 1248 4314 1779 4314 
C 2310 4314 2675 3731 2675 2362 
C 2675 986 2310 390 1779 390 
z
" transform="scale(0.015625)"/>
       </defs>
       <use xlink:href="#NotoSansCJKjp-Regular-11"/>
      </g>
     </g>
    </g>
    <g id="xtick_3">
     <g id="line2d_7">
      <path d="M 183.74 243.68 
L 183.74 37.76 
" clip-path="url(#pb3de5d0e16)" style="fill: none; stroke: #d8dde3; stroke-width: 0.9; stroke-linecap: square"/>
     </g>
     <g id="line2d_8">
      <g>
       <use xlink:href="#m201ed94bc7" x="183.74" y="243.68" style="fill: #222831; stroke: #222831; stroke-width: 0.8"/>
      </g>
     </g>
     <g id="text_3">
      <!-- 1 -->
      <g style="fill: #222831" transform="translate(180.41 261.24) scale(0.12 -0.12)">
       <use xlink:href="#NotoSansCJKjp-Regular-12"/>
      </g>
     </g>
    </g>
    <g id="xtick_4">
     <g id="line2d_9">
      <path d="M 240.94 243.68 
L 240.94 37.76 
" clip-path="url(#pb3de5d0e16)" style="fill: none; stroke: #d8dde3; stroke-width: 0.9; stroke-linecap: square"/>
     </g>
     <g id="line2d_10">
      <g>
       <use xlink:href="#m201ed94bc7" x="240.94" y="243.68" style="fill: #222831; stroke: #222831; stroke-width: 0.8"/>
      </g>
     </g>
     <g id="text_4">
      <!-- 2 -->
      <g style="fill: #222831" transform="translate(237.61 261.24) scale(0.12 -0.12)">
       <defs>
        <path id="NotoSansCJKjp-Regular-13" d="M 282 0 
L 3232 0 
L 3232 506 
L 1933 506 
C 1696 506 1408 480 1165 461 
C 2266 1504 3008 2458 3008 3398 
C 3008 4230 2477 4774 1638 4774 
C 1043 4774 634 4506 256 4090 
L 595 3757 
C 858 4070 1184 4301 1568 4301 
C 2150 4301 2432 3910 2432 3373 
C 2432 2566 1754 1632 282 346 
L 282 0 
z
" transform="scale(0.015625)"/>
       </defs>
       <use xlink:href="#NotoSansCJKjp-Regular-13"/>
      </g>
     </g>
    </g>
   </g>
   <g id="matplotlib.axis_2">
    <g id="ytick_1">
     <g id="line2d_11">
      <path d="M 35.02 237.96 
L 263.82 237.96 
" clip-path="url(#pb3de5d0e16)" style="fill: none; stroke: #d8dde3; stroke-width: 0.9; stroke-linecap: square"/>
     </g>
     <g id="line2d_12">
      <defs>
       <path id="m8f0d69d5af" d="M 0 0 
L -3.5 0 
" style="stroke: #222831; stroke-width: 0.8"/>
      </defs>
      <g>
       <use xlink:href="#m8f0d69d5af" x="35.02" y="237.96" style="fill: #222831; stroke: #222831; stroke-width: 0.8"/>
      </g>
     </g>
     <g id="text_5">
      <!-- -1.5 -->
      <g style="fill: #222831" transform="translate(7.2 243.24) scale(0.12 -0.12)">
       <defs>
        <path id="NotoSansCJKjp-Regular-f" d="M 890 -83 
C 1120 -83 1312 96 1312 358 
C 1312 627 1120 806 890 806 
C 653 806 467 627 467 358 
C 467 96 653 -83 890 -83 
z
" transform="scale(0.015625)"/>
        <path id="NotoSansCJKjp-Regular-16" d="M 1677 -83 
C 2464 -83 3213 499 3213 1523 
C 3213 2560 2573 3021 1798 3021 
C 1517 3021 1306 2950 1094 2835 
L 1216 4192 
L 2982 4192 
L 2982 4691 
L 704 4691 
L 550 2502 
L 864 2304 
C 1133 2483 1331 2579 1645 2579 
C 2234 2579 2618 2182 2618 1510 
C 2618 826 2176 403 1619 403 
C 1075 403 730 653 467 922 
L 173 538 
C 493 224 941 -83 1677 -83 
z
" transform="scale(0.015625)"/>
       </defs>
       <use xlink:href="#NotoSansCJKjp-Regular-e"/>
       <use xlink:href="#NotoSansCJKjp-Regular-12" transform="translate(34.703125 0)"/>
       <use xlink:href="#NotoSansCJKjp-Regular-f" transform="translate(90.203125 0)"/>
       <use xlink:href="#NotoSansCJKjp-Regular-16" transform="translate(118 0)"/>
      </g>
     </g>
    </g>
    <g id="ytick_2">
     <g id="line2d_13">
      <path d="M 35.02 209.36 
L 263.82 209.36 
" clip-path="url(#pb3de5d0e16)" style="fill: none; stroke: #d8dde3; stroke-width: 0.9; stroke-linecap: square"/>
     </g>
     <g id="line2d_14">
      <g>
       <use xlink:href="#m8f0d69d5af" x="35.02" y="209.36" style="fill: #222831; stroke: #222831; stroke-width: 0.8"/>
      </g>
     </g>
     <g id="text_6">
      <!-- -1.0 -->
      <g style="fill: #222831" transform="translate(7.2 214.64) scale(0.12 -0.12)">
       <use xlink:href="#NotoSansCJKjp-Regular-e"/>
       <use xlink:href="#NotoSansCJKjp-Regular-12" transform="translate(34.703125 0)"/>
       <use xlink:href="#NotoSansCJKjp-Regular-f" transform="translate(90.203125 0)"/>
       <use xlink:href="#NotoSansCJKjp-Regular-11" transform="translate(118 0)"/>
      </g>
     </g>
    </g>
    <g id="ytick_3">
     <g id="line2d_15">
      <path d="M 35.02 180.76 
L 263.82 180.76 
" clip-path="url(#pb3de5d0e16)" style="fill: none; stroke: #d8dde3; stroke-width: 0.9; stroke-linecap: square"/>
     </g>
     <g id="line2d_16">
      <g>
       <use xlink:href="#m8f0d69d5af" x="35.02" y="180.76" style="fill: #222831; stroke: #222831; stroke-width: 0.8"/>
      </g>
     </g>
     <g id="text_7">
      <!-- -0.5 -->
      <g style="fill: #222831" transform="translate(7.2 186.04) scale(0.12 -0.12)">
       <use xlink:href="#NotoSansCJKjp-Regular-e"/>
       <use xlink:href="#NotoSansCJKjp-Regular-11" transform="translate(34.703125 0)"/>
       <use xlink:href="#NotoSansCJKjp-Regular-f" transform="translate(90.203125 0)"/>
       <use xlink:href="#NotoSansCJKjp-Regular-16" transform="translate(118 0)"/>
      </g>
     </g>
    </g>
    <g id="ytick_4">
     <g id="line2d_17">
      <path d="M 35.02 152.16 
L 263.82 152.16 
" clip-path="url(#pb3de5d0e16)" style="fill: none; stroke: #d8dde3; stroke-width: 0.9; stroke-linecap: square"/>
     </g>
     <g id="line2d_18">
      <g>
       <use xlink:href="#m8f0d69d5af" x="35.02" y="152.16" style="fill: #222831; stroke: #222831; stroke-width: 0.8"/>
      </g>
     </g>
     <g id="text_8">
      <!-- 0.0 -->
      <g style="fill: #222831" transform="translate(11.364375 157.44) scale(0.12 -0.12)">
       <use xlink:href="#NotoSansCJKjp-Regular-11"/>
       <use xlink:href="#NotoSansCJKjp-Regular-f" transform="translate(55.5 0)"/>
       <use xlink:href="#NotoSansCJKjp-Regular-11" transform="translate(83.296875 0)"/>
      </g>
     </g>
    </g>
    <g id="ytick_5">
     <g id="line2d_19">
      <path d="M 35.02 123.56 
L 263.82 123.56 
" clip-path="url(#pb3de5d0e16)" style="fill: none; stroke: #d8dde3; stroke-width: 0.9; stroke-linecap: square"/>
     </g>
     <g id="line2d_20">
      <g>
       <use xlink:href="#m8f0d69d5af" x="35.02" y="123.56" style="fill: #222831; stroke: #222831; stroke-width: 0.8"/>
      </g>
     </g>
     <g id="text_9">
      <!-- 0.5 -->
      <g style="fill: #222831" transform="translate(11.364375 128.84) scale(0.12 -0.12)">
       <use xlink:href="#NotoSansCJKjp-Regular-11"/>
       <use xlink:href="#NotoSansCJKjp-Regular-f" transform="translate(55.5 0)"/>
       <use xlink:href="#NotoSansCJKjp-Regular-16" transform="translate(83.296875 0)"/>
      </g>
     </g>
    </g>
    <g id="ytick_6">
     <g id="line2d_21">
      <path d="M 35.02 94.96 
L 263.82 94.96 
" clip-path="url(#pb3de5d0e16)" style="fill: none; stroke: #d8dde3; stroke-width: 0.9; stroke-linecap: square"/>
     </g>
     <g id="line2d_22">
      <g>
       <use xlink:href="#m8f0d69d5af" x="35.02" y="94.96" style="fill: #222831; stroke: #222831; stroke-width: 0.8"/>
      </g>
     </g>
     <g id="text_10">
      <!-- 1.0 -->
      <g style="fill: #222831" transform="translate(11.364375 100.24) scale(0.12 -0.12)">
       <use xlink:href="#NotoSansCJKjp-Regular-12"/>
       <use xlink:href="#NotoSansCJKjp-Regular-f" transform="translate(55.5 0)"/>
       <use xlink:href="#NotoSansCJKjp-Regular-11" transform="translate(83.296875 0)"/>
      </g>
     </g>
    </g>
    <g id="ytick_7">
     <g id="line2d_23">
      <path d="M 35.02 66.36 
L 263.82 66.36 
" clip-path="url(#pb3de5d0e16)" style="fill: none; stroke: #d8dde3; stroke-width: 0.9; stroke-linecap: square"/>
     </g>
     <g id="line2d_24">
      <g>
       <use xlink:href="#m8f0d69d5af" x="35.02" y="66.36" style="fill: #222831; stroke: #222831; stroke-width: 0.8"/>
      </g>
     </g>
     <g id="text_11">
      <!-- 1.5 -->
      <g style="fill: #222831" transform="translate(11.364375 71.64) scale(0.12 -0.12)">
       <use xlink:href="#NotoSansCJKjp-Regular-12"/>
       <use xlink:href="#NotoSansCJKjp-Regular-f" transform="translate(55.5 0)"/>
       <use xlink:href="#NotoSansCJKjp-Regular-16" transform="translate(83.296875 0)"/>
      </g>
     </g>
    </g>
    <g id="ytick_8">
     <g id="line2d_25">
      <path d="M 35.02 37.76 
L 263.82 37.76 
" clip-path="url(#pb3de5d0e16)" style="fill: none; stroke: #d8dde3; stroke-width: 0.9; stroke-linecap: square"/>
     </g>
     <g id="line2d_26">
      <g>
       <use xlink:href="#m8f0d69d5af" x="35.02" y="37.76" style="fill: #222831; stroke: #222831; stroke-width: 0.8"/>
      </g>
     </g>
     <g id="text_12">
      <!-- 2.0 -->
      <g style="fill: #222831" transform="translate(11.364375 43.04) scale(0.12 -0.12)">
       <use xlink:href="#NotoSansCJKjp-Regular-13"/>
       <use xlink:href="#NotoSansCJKjp-Regular-f" transform="translate(55.5 0)"/>
       <use xlink:href="#NotoSansCJKjp-Regular-11" transform="translate(83.296875 0)"/>
      </g>
     </g>
    </g>
   </g>
   <g id="patch_3">
    <path d="M 126.54 152.16 
L 183.74 152.16 
L 183.74 94.96 
L 126.54 94.96 
z
" clip-path="url(#pb3de5d0e16)" style="fill: #1f6feb; opacity: 0.16; stroke-dasharray: 5.92,2.56; stroke-dashoffset: 0; stroke: #1f6feb; stroke-width: 1.6; stroke-linejoin: miter"/>
   </g>
   <g id="patch_4">
    <path d="M 35.02 243.68 
L 35.02 37.76 
" style="fill: none; stroke: #222831; stroke-width: 1.1; stroke-linejoin: miter; stroke-linecap: square"/>
   </g>
   <g id="patch_5">
    <path d="M 35.02 243.68 
L 263.82 243.68 
" style="fill: none; stroke: #222831; stroke-width: 1.1; stroke-linejoin: miter; stroke-linecap: square"/>
   </g>
   <g id="patch_6">
    <path d="M 126.54 152.16 
L 240.94 152.16 
L 240.94 94.96 
L 126.54 94.96 
z
" clip-path="url(#pb3de5d0e16)" style="fill: #d1242f; opacity: 0.26; stroke: #d1242f; stroke-width: 2.2; stroke-linejoin: miter"/>
   </g>
   <g id="text_13">
    <!-- 伸縮（沿 x 放大 2 倍） -->
    <g style="fill: #222831" transform="translate(89.724687 17.76) scale(0.12 -0.12)">
     <defs>
      <path id="NotoSansCJKjp-Regular-26c8" d="M 3789 3923 
L 3789 3040 
L 2541 3040 
L 2541 3923 
L 3789 3923 
z
M 2086 4365 
L 2086 934 
L 2541 934 
L 2541 1274 
L 3789 1274 
L 3789 -506 
L 4256 -506 
L 4256 1274 
L 5542 1274 
L 5542 986 
L 6016 986 
L 6016 4365 
L 4256 4365 
L 4256 5344 
L 3789 5344 
L 3789 4365 
L 2086 4365 
z
M 4256 3923 
L 5542 3923 
L 5542 3040 
L 4256 3040 
L 4256 3923 
z
M 3789 2611 
L 3789 1709 
L 2541 1709 
L 2541 2611 
L 3789 2611 
z
M 4256 2611 
L 5542 2611 
L 5542 1709 
L 4256 1709 
L 4256 2611 
z
M 1690 5350 
C 1331 4378 736 3418 102 2797 
C 192 2688 326 2438 371 2323 
C 595 2554 813 2822 1024 3117 
L 1024 -499 
L 1485 -499 
L 1485 3840 
C 1734 4282 1965 4749 2144 5216 
L 1690 5350 
z
" transform="scale(0.015625)"/>
      <path id="NotoSansCJKjp-Regular-7aca" d="M 1811 1645 
C 1965 1274 2086 787 2112 467 
L 2477 576 
C 2438 896 2310 1376 2157 1747 
L 1811 1645 
z
M 570 1715 
C 493 1158 378 582 166 192 
C 269 154 448 70 525 19 
C 723 429 877 1043 960 1651 
L 570 1715 
z
M 2515 4755 
L 2515 3699 
L 2950 3699 
L 2950 4352 
L 5587 4352 
L 5587 3789 
L 6035 3789 
L 6035 4755 
L 4486 4755 
L 4486 5389 
L 4006 5389 
L 4006 4755 
L 2515 4755 
z
M 3795 2586 
L 3795 -506 
L 4205 -506 
L 4205 -224 
L 5517 -224 
L 5517 -474 
L 5939 -474 
L 5939 2586 
L 4909 2586 
L 5088 3232 
L 6086 3232 
L 6086 3629 
L 3667 3629 
L 3667 3232 
L 4608 3232 
C 4576 3021 4525 2784 4474 2586 
L 3795 2586 
z
M 179 2547 
L 237 2118 
L 1210 2176 
L 1210 -512 
L 1626 -512 
L 1626 2202 
L 2118 2240 
C 2150 2131 2176 2035 2189 1952 
L 2458 2074 
C 2400 1990 2342 1907 2278 1837 
C 2362 1760 2477 1606 2541 1517 
C 2669 1658 2784 1818 2893 1990 
L 2893 -512 
L 3296 -512 
L 3296 2758 
C 3450 3104 3571 3462 3667 3795 
L 3245 3898 
C 3117 3354 2867 2694 2534 2182 
C 2458 2509 2266 2982 2061 3354 
L 1722 3219 
C 1818 3040 1907 2842 1984 2643 
L 1094 2592 
C 1510 3136 1978 3866 2330 4467 
L 1933 4646 
C 1766 4301 1530 3878 1280 3475 
C 1190 3603 1075 3744 947 3885 
C 1178 4243 1446 4774 1670 5216 
L 1254 5376 
C 1126 5018 896 4525 691 4154 
L 486 4352 
L 237 4051 
C 531 3776 858 3398 1043 3104 
C 915 2906 787 2726 666 2566 
L 179 2547 
z
M 4205 1011 
L 5517 1011 
L 5517 166 
L 4205 166 
L 4205 1011 
z
M 4205 1395 
L 4205 2189 
L 5517 2189 
L 5517 1395 
L 4205 1395 
z
" transform="scale(0.015625)"/>
      <path id="NotoSansCJKjp-Regular-e6ae" d="M 4448 2432 
C 4448 1184 4954 166 5722 -614 
L 6106 -416 
C 5370 346 4915 1293 4915 2432 
C 4915 3571 5370 4518 6106 5280 
L 5722 5478 
C 4954 4698 4448 3680 4448 2432 
z
" transform="scale(0.015625)"/>
      <path id="NotoSansCJKjp-Regular-5aae" d="M 3098 5318 
C 2906 4275 2509 3366 1888 2803 
C 2010 2726 2221 2560 2304 2470 
C 2931 3104 3366 4083 3610 5235 
L 3098 5318 
z
M 4864 5325 
L 4422 5203 
C 4704 4128 5216 3066 5843 2490 
C 5933 2624 6099 2803 6221 2893 
C 5619 3379 5114 4358 4864 5325 
z
M 595 4979 
C 1030 4794 1549 4493 1805 4256 
L 2086 4659 
C 1824 4883 1286 5165 858 5331 
L 595 4979 
z
M 250 3232 
C 691 3072 1229 2797 1491 2586 
L 1754 2995 
C 1478 3200 928 3456 499 3597 
L 250 3232 
z
M 461 -109 
L 870 -429 
C 1242 166 1683 966 2016 1645 
L 1664 1958 
C 1299 1229 800 384 461 -109 
z
M 2502 2298 
L 2502 -512 
L 2970 -512 
L 2970 -224 
L 5184 -224 
L 5184 -480 
L 5664 -480 
L 5664 2298 
L 2502 2298 
z
M 2970 224 
L 2970 1850 
L 5184 1850 
L 5184 224 
L 2970 224 
z
" transform="scale(0.015625)"/>
      <path id="NotoSansCJKjp-Regular-1" transform="scale(0.015625)"/>
      <path id="NotoSansCJKjp-Regular-59" d="M 96 0 
L 710 0 
L 1178 813 
C 1299 1024 1408 1235 1530 1434 
L 1562 1434 
C 1696 1235 1824 1024 1939 813 
L 2451 0 
L 3091 0 
L 1946 1754 
L 3002 3475 
L 2394 3475 
L 1965 2714 
C 1856 2515 1760 2330 1658 2131 
L 1626 2131 
C 1510 2330 1389 2515 1286 2714 
L 819 3475 
L 186 3475 
L 1242 1811 
L 96 0 
z
" transform="scale(0.015625)"/>
      <path id="NotoSansCJKjp-Regular-4dd1" d="M 1453 5363 
L 1453 4339 
L 282 4339 
L 282 3891 
L 1037 3891 
L 1037 2560 
C 1037 1651 941 640 160 -192 
C 275 -275 435 -403 518 -506 
C 1370 403 1498 1491 1498 2554 
L 1498 2592 
L 2374 2592 
C 2330 800 2285 166 2176 26 
C 2125 -51 2074 -64 1978 -64 
C 1882 -64 1638 -58 1370 -38 
C 1446 -160 1491 -352 1498 -486 
C 1773 -493 2042 -493 2195 -480 
C 2368 -461 2477 -410 2579 -269 
C 2752 -51 2784 678 2829 2816 
C 2835 2886 2835 3040 2835 3040 
L 1498 3040 
L 1498 3891 
L 3123 3891 
L 3123 4339 
L 1926 4339 
L 1926 5363 
L 1453 5363 
z
M 3974 3731 
L 5203 3731 
C 5069 2912 4870 2214 4570 1638 
C 4282 2221 4077 2899 3942 3635 
L 3974 3731 
z
M 3872 5382 
C 3686 4275 3354 3200 2848 2528 
C 2963 2451 3174 2298 3258 2214 
C 3405 2419 3533 2662 3654 2918 
C 3814 2272 4019 1683 4282 1171 
C 3898 627 3379 205 2688 -102 
C 2778 -205 2918 -416 2963 -525 
C 3629 -198 4141 218 4544 730 
C 4890 205 5325 -211 5869 -499 
C 5939 -371 6093 -186 6202 -90 
C 5632 179 5184 608 4832 1158 
C 5248 1850 5510 2694 5683 3731 
L 6157 3731 
L 6157 4179 
L 4109 4179 
C 4211 4538 4294 4922 4365 5306 
L 3872 5382 
z
" transform="scale(0.015625)"/>
      <path id="NotoSansCJKjp-Regular-36fb" d="M 2950 5370 
C 2944 4864 2950 4218 2854 3539 
L 397 3539 
L 397 3046 
L 2771 3046 
C 2515 1830 1875 589 275 -102 
C 410 -205 563 -378 640 -499 
C 2202 218 2893 1446 3206 2682 
C 3706 1222 4531 90 5773 -499 
C 5856 -358 6010 -160 6131 -51 
C 4890 467 4051 1632 3603 3046 
L 6029 3046 
L 6029 3539 
L 3366 3539 
C 3456 4211 3462 4851 3469 5370 
L 2950 5370 
z
" transform="scale(0.015625)"/>
      <path id="NotoSansCJKjp-Regular-2818" d="M 1875 2950 
L 1875 2502 
L 6176 2502 
L 6176 2950 
L 1875 2950 
z
M 2675 4051 
C 2829 3706 2970 3264 3002 2989 
L 3450 3117 
C 3411 3386 3258 3821 3091 4154 
L 2675 4051 
z
M 4979 4160 
C 4890 3840 4730 3366 4589 3078 
L 5011 2982 
C 5152 3258 5318 3674 5459 4058 
L 4979 4160 
z
M 2144 4653 
L 2144 4211 
L 6042 4211 
L 6042 4653 
L 4307 4653 
L 4307 5376 
L 3821 5376 
L 3821 4653 
L 2144 4653 
z
M 2477 1901 
L 2477 -518 
L 2950 -518 
L 2950 -218 
L 5216 -218 
L 5216 -480 
L 5702 -480 
L 5702 1901 
L 2477 1901 
z
M 2950 230 
L 2950 1459 
L 5216 1459 
L 5216 230 
L 2950 230 
z
M 1690 5350 
C 1331 4378 736 3418 102 2797 
C 192 2688 326 2438 371 2323 
C 595 2554 813 2822 1024 3117 
L 1024 -499 
L 1485 -499 
L 1485 3840 
C 1734 4282 1965 4749 2144 5216 
L 1690 5350 
z
" transform="scale(0.015625)"/>
      <path id="NotoSansCJKjp-Regular-e6af" d="M 1952 2432 
C 1952 3680 1446 4698 678 5478 
L 294 5280 
C 1030 4518 1485 3571 1485 2432 
C 1485 1293 1030 346 294 -416 
L 678 -614 
C 1446 166 1952 1184 1952 2432 
z
" transform="scale(0.015625)"/>
     </defs>
     <use xlink:href="#NotoSansCJKjp-Regular-26c8"/>
     <use xlink:href="#NotoSansCJKjp-Regular-7aca" transform="translate(100 0)"/>
     <use xlink:href="#NotoSansCJKjp-Regular-e6ae" transform="translate(200 0)"/>
     <use xlink:href="#NotoSansCJKjp-Regular-5aae" transform="translate(300 0)"/>
     <use xlink:href="#NotoSansCJKjp-Regular-1" transform="translate(400 0)"/>
     <use xlink:href="#NotoSansCJKjp-Regular-59" transform="translate(422.40625 0)"/>
     <use xlink:href="#NotoSansCJKjp-Regular-1" transform="translate(472.203125 0)"/>
     <use xlink:href="#NotoSansCJKjp-Regular-4dd1" transform="translate(494.609375 0)"/>
     <use xlink:href="#NotoSansCJKjp-Regular-36fb" transform="translate(594.609375 0)"/>
     <use xlink:href="#NotoSansCJKjp-Regular-1" transform="translate(694.609375 0)"/>
     <use xlink:href="#NotoSansCJKjp-Regular-13" transform="translate(717.015625 0)"/>
     <use xlink:href="#NotoSansCJKjp-Regular-1" transform="translate(772.515625 0)"/>
     <use xlink:href="#NotoSansCJKjp-Regular-2818" transform="translate(794.921875 0)"/>
     <use xlink:href="#NotoSansCJKjp-Regular-e6af" transform="translate(894.921875 0)"/>
    </g>
    <!-- [[2, 0], [0, 1]] -->
    <g style="fill: #222831" transform="translate(114.896562 29.76) scale(0.12 -0.12)">
     <defs>
      <path id="NotoSansCJKjp-Regular-3c" d="M 678 -1088 
L 1946 -1088 
L 1946 -755 
L 1114 -755 
L 1114 4730 
L 1946 4730 
L 1946 5069 
L 678 5069 
L 678 -1088 
z
" transform="scale(0.015625)"/>
      <path id="NotoSansCJKjp-Regular-d" d="M 480 -1216 
C 1056 -973 1414 -493 1414 122 
C 1414 550 1229 806 922 806 
C 685 806 480 653 480 397 
C 480 141 678 -13 909 -13 
L 979 -6 
C 973 -390 736 -698 339 -870 
L 480 -1216 
z
" transform="scale(0.015625)"/>
      <path id="NotoSansCJKjp-Regular-3e" d="M 218 -1088 
L 1491 -1088 
L 1491 5069 
L 218 5069 
L 218 4730 
L 1050 4730 
L 1050 -755 
L 218 -755 
L 218 -1088 
z
" transform="scale(0.015625)"/>
     </defs>
     <use xlink:href="#NotoSansCJKjp-Regular-3c"/>
     <use xlink:href="#NotoSansCJKjp-Regular-3c" transform="translate(33.796875 0)"/>
     <use xlink:href="#NotoSansCJKjp-Regular-13" transform="translate(67.59375 0)"/>
     <use xlink:href="#NotoSansCJKjp-Regular-d" transform="translate(123.09375 0)"/>
     <use xlink:href="#NotoSansCJKjp-Regular-1" transform="translate(150.890625 0)"/>
     <use xlink:href="#NotoSansCJKjp-Regular-11" transform="translate(173.296875 0)"/>
     <use xlink:href="#NotoSansCJKjp-Regular-3e" transform="translate(228.796875 0)"/>
     <use xlink:href="#NotoSansCJKjp-Regular-d" transform="translate(262.59375 0)"/>
     <use xlink:href="#NotoSansCJKjp-Regular-1" transform="translate(290.390625 0)"/>
     <use xlink:href="#NotoSansCJKjp-Regular-3c" transform="translate(312.796875 0)"/>
     <use xlink:href="#NotoSansCJKjp-Regular-11" transform="translate(346.59375 0)"/>
     <use xlink:href="#NotoSansCJKjp-Regular-d" transform="translate(402.09375 0)"/>
     <use xlink:href="#NotoSansCJKjp-Regular-1" transform="translate(429.890625 0)"/>
     <use xlink:href="#NotoSansCJKjp-Regular-12" transform="translate(452.296875 0)"/>
     <use xlink:href="#NotoSansCJKjp-Regular-3e" transform="translate(507.796875 0)"/>
     <use xlink:href="#NotoSansCJKjp-Regular-3e" transform="translate(541.59375 0)"/>
    </g>
   </g>
   <g id="patch_7">
    <path d="M 126.54 152.16 
Q 183.74 152.16 238.256718 152.16 
" clip-path="url(#pb3de5d0e16)" style="fill: none; stroke: #d1242f; stroke-width: 2.4; stroke-linecap: round"/>
    <path d="M 231.056718 148.56 
L 238.256718 152.16 
L 231.056718 155.76 
z
" clip-path="url(#pb3de5d0e16)" style="fill: #d1242f; stroke: #d1242f; stroke-width: 2.4; stroke-linecap: round"/>
   </g>
   <g id="patch_8">
    <path d="M 126.54 152.16 
Q 126.54 123.56 126.54 97.643282 
" clip-path="url(#pb3de5d0e16)" style="fill: none; stroke: #d1242f; stroke-width: 2.4; stroke-linecap: round"/>
    <path d="M 122.94 104.843282 
L 126.54 97.643282 
L 130.14 104.843282 
z
" clip-path="url(#pb3de5d0e16)" style="fill: #d1242f; stroke: #d1242f; stroke-width: 2.4; stroke-linecap: round"/>
   </g>
   <g id="text_14">
    <!-- 原方格 -->
    <g style="fill: #1f6feb" transform="translate(139.39 127.55) scale(0.105 -0.105)">
     <defs>
      <path id="NotoSansCJKjp-Regular-2e09" d="M 2362 2624 
L 5024 2624 
L 5024 2029 
L 2362 2029 
L 2362 2624 
z
M 2362 3571 
L 5024 3571 
L 5024 2989 
L 2362 2989 
L 2362 3571 
z
M 4474 1107 
C 4954 723 5510 166 5754 -211 
L 6150 51 
C 5888 435 5325 966 4838 1338 
L 4474 1107 
z
M 2374 1318 
C 2080 838 1606 352 1126 45 
C 1242 -26 1434 -160 1523 -237 
C 1990 109 2496 646 2835 1184 
L 2374 1318 
z
M 1888 3955 
L 1888 1645 
L 3450 1645 
L 3450 13 
C 3450 -64 3424 -90 3328 -96 
C 3232 -96 2899 -96 2522 -90 
C 2586 -211 2650 -390 2669 -512 
C 3168 -512 3482 -512 3674 -442 
C 3866 -371 3917 -243 3917 6 
L 3917 1645 
L 5510 1645 
L 5510 3955 
L 3750 3955 
C 3814 4147 3885 4365 3949 4576 
L 6035 4576 
L 6035 5024 
L 838 5024 
L 838 3168 
C 838 2163 787 749 224 -256 
C 339 -301 550 -422 640 -499 
C 1229 550 1312 2106 1312 3168 
L 1312 4576 
L 3386 4576 
C 3347 4390 3296 4154 3238 3955 
L 1888 3955 
z
" transform="scale(0.015625)"/>
      <path id="NotoSansCJKjp-Regular-4ea0" d="M 2931 5395 
L 2931 4269 
L 339 4269 
L 339 3808 
L 2310 3808 
C 2240 2330 2054 666 269 -147 
C 397 -243 544 -416 621 -538 
C 1926 90 2438 1152 2669 2298 
L 4787 2298 
C 4685 819 4557 186 4371 19 
C 4294 -51 4211 -58 4064 -58 
C 3898 -58 3443 -51 2982 -13 
C 3078 -147 3142 -346 3155 -480 
C 3584 -506 4013 -512 4230 -499 
C 4480 -486 4634 -435 4781 -282 
C 5030 -26 5165 685 5293 2522 
C 5306 2598 5312 2758 5312 2758 
L 2746 2758 
C 2790 3110 2822 3462 2842 3808 
L 6067 3808 
L 6067 4269 
L 3424 4269 
L 3424 5395 
L 2931 5395 
z
" transform="scale(0.015625)"/>
      <path id="NotoSansCJKjp-Regular-52b2" d="M 3680 4269 
L 5082 4269 
C 4890 3866 4627 3494 4320 3174 
C 4013 3488 3776 3821 3603 4147 
L 3680 4269 
z
M 1293 5376 
L 1293 4006 
L 333 4006 
L 333 3552 
L 1235 3552 
C 1037 2669 608 1664 179 1120 
C 262 1011 384 826 429 698 
C 749 1120 1056 1818 1293 2541 
L 1293 -506 
L 1747 -506 
L 1747 2720 
C 1946 2438 2170 2093 2272 1914 
L 2560 2278 
C 2445 2445 1920 3078 1747 3270 
L 1747 3552 
L 2477 3552 
L 2323 3424 
C 2432 3347 2618 3181 2701 3098 
C 2918 3290 3136 3520 3334 3776 
C 3507 3475 3731 3168 4006 2880 
C 3462 2413 2822 2067 2182 1862 
C 2278 1766 2400 1587 2458 1472 
C 2624 1536 2790 1600 2957 1677 
L 2957 -518 
L 3405 -518 
L 3405 -237 
L 5190 -237 
L 5190 -493 
L 5658 -493 
L 5658 1728 
L 5952 1613 
C 6022 1734 6157 1920 6253 2016 
C 5619 2208 5082 2509 4646 2874 
C 5094 3341 5459 3904 5690 4563 
L 5389 4704 
L 5299 4685 
L 3917 4685 
C 4019 4870 4109 5062 4186 5261 
L 3725 5382 
C 3475 4730 3059 4102 2579 3648 
L 2579 4006 
L 1747 4006 
L 1747 5376 
L 1293 5376 
z
M 3405 186 
L 3405 1421 
L 5190 1421 
L 5190 186 
L 3405 186 
z
M 3270 1837 
C 3648 2035 4000 2278 4326 2566 
C 4640 2291 5005 2042 5421 1837 
L 3270 1837 
z
" transform="scale(0.015625)"/>
     </defs>
     <use xlink:href="#NotoSansCJKjp-Regular-2e09"/>
     <use xlink:href="#NotoSansCJKjp-Regular-4ea0" transform="translate(100 0)"/>
     <use xlink:href="#NotoSansCJKjp-Regular-52b2" transform="translate(200 0)"/>
    </g>
   </g>
  </g>
  <g id="axes_2">
   <g id="patch_9">
    <path d="M 294.58 243.68 
L 523.38 243.68 
L 523.38 37.76 
L 294.58 37.76 
z
" style="fill: #ffffff"/>
   </g>
   <g id="line2d_27">
    <path d="M 294.58 152.16 
L 523.38 152.16 
" clip-path="url(#p4d0070aeb6)" style="fill: none; stroke: #d8dde3; stroke-linecap: square"/>
   </g>
   <g id="line2d_28">
    <path d="M 386.1 243.68 
L 386.1 37.76 
" clip-path="url(#p4d0070aeb6)" style="fill: none; stroke: #d8dde3; stroke-linecap: square"/>
   </g>
   <g id="matplotlib.axis_3">
    <g id="xtick_5">
     <g id="line2d_29">
      <path d="M 328.9 243.68 
L 328.9 37.76 
" clip-path="url(#p4d0070aeb6)" style="fill: none; stroke: #d8dde3; stroke-width: 0.9; stroke-linecap: square"/>
     </g>
     <g id="line2d_30">
      <g>
       <use xlink:href="#m201ed94bc7" x="328.9" y="243.68" style="fill: #222831; stroke: #222831; stroke-width: 0.8"/>
      </g>
     </g>
     <g id="text_15">
      <!-- -1 -->
      <g style="fill: #222831" transform="translate(323.487813 261.24) scale(0.12 -0.12)">
       <use xlink:href="#NotoSansCJKjp-Regular-e"/>
       <use xlink:href="#NotoSansCJKjp-Regular-12" transform="translate(34.703125 0)"/>
      </g>
     </g>
    </g>
    <g id="xtick_6">
     <g id="line2d_31">
      <path d="M 386.1 243.68 
L 386.1 37.76 
" clip-path="url(#p4d0070aeb6)" style="fill: none; stroke: #d8dde3; stroke-width: 0.9; stroke-linecap: square"/>
     </g>
     <g id="line2d_32">
      <g>
       <use xlink:href="#m201ed94bc7" x="386.1" y="243.68" style="fill: #222831; stroke: #222831; stroke-width: 0.8"/>
      </g>
     </g>
     <g id="text_16">
      <!-- 0 -->
      <g style="fill: #222831" transform="translate(382.77 261.24) scale(0.12 -0.12)">
       <use xlink:href="#NotoSansCJKjp-Regular-11"/>
      </g>
     </g>
    </g>
    <g id="xtick_7">
     <g id="line2d_33">
      <path d="M 443.3 243.68 
L 443.3 37.76 
" clip-path="url(#p4d0070aeb6)" style="fill: none; stroke: #d8dde3; stroke-width: 0.9; stroke-linecap: square"/>
     </g>
     <g id="line2d_34">
      <g>
       <use xlink:href="#m201ed94bc7" x="443.3" y="243.68" style="fill: #222831; stroke: #222831; stroke-width: 0.8"/>
      </g>
     </g>
     <g id="text_17">
      <!-- 1 -->
      <g style="fill: #222831" transform="translate(439.97 261.24) scale(0.12 -0.12)">
       <use xlink:href="#NotoSansCJKjp-Regular-12"/>
      </g>
     </g>
    </g>
    <g id="xtick_8">
     <g id="line2d_35">
      <path d="M 500.5 243.68 
L 500.5 37.76 
" clip-path="url(#p4d0070aeb6)" style="fill: none; stroke: #d8dde3; stroke-width: 0.9; stroke-linecap: square"/>
     </g>
     <g id="line2d_36">
      <g>
       <use xlink:href="#m201ed94bc7" x="500.5" y="243.68" style="fill: #222831; stroke: #222831; stroke-width: 0.8"/>
      </g>
     </g>
     <g id="text_18">
      <!-- 2 -->
      <g style="fill: #222831" transform="translate(497.17 261.24) scale(0.12 -0.12)">
       <use xlink:href="#NotoSansCJKjp-Regular-13"/>
      </g>
     </g>
    </g>
   </g>
   <g id="matplotlib.axis_4">
    <g id="ytick_9">
     <g id="line2d_37">
      <path d="M 294.58 237.96 
L 523.38 237.96 
" clip-path="url(#p4d0070aeb6)" style="fill: none; stroke: #d8dde3; stroke-width: 0.9; stroke-linecap: square"/>
     </g>
     <g id="line2d_38">
      <g>
       <use xlink:href="#m8f0d69d5af" x="294.58" y="237.96" style="fill: #222831; stroke: #222831; stroke-width: 0.8"/>
      </g>
     </g>
     <g id="text_19">
      <!-- -1.5 -->
      <g style="fill: #222831" transform="translate(266.76 243.24) scale(0.12 -0.12)">
       <use xlink:href="#NotoSansCJKjp-Regular-e"/>
       <use xlink:href="#NotoSansCJKjp-Regular-12" transform="translate(34.703125 0)"/>
       <use xlink:href="#NotoSansCJKjp-Regular-f" transform="translate(90.203125 0)"/>
       <use xlink:href="#NotoSansCJKjp-Regular-16" transform="translate(118 0)"/>
      </g>
     </g>
    </g>
    <g id="ytick_10">
     <g id="line2d_39">
      <path d="M 294.58 209.36 
L 523.38 209.36 
" clip-path="url(#p4d0070aeb6)" style="fill: none; stroke: #d8dde3; stroke-width: 0.9; stroke-linecap: square"/>
     </g>
     <g id="line2d_40">
      <g>
       <use xlink:href="#m8f0d69d5af" x="294.58" y="209.36" style="fill: #222831; stroke: #222831; stroke-width: 0.8"/>
      </g>
     </g>
     <g id="text_20">
      <!-- -1.0 -->
      <g style="fill: #222831" transform="translate(266.76 214.64) scale(0.12 -0.12)">
       <use xlink:href="#NotoSansCJKjp-Regular-e"/>
       <use xlink:href="#NotoSansCJKjp-Regular-12" transform="translate(34.703125 0)"/>
       <use xlink:href="#NotoSansCJKjp-Regular-f" transform="translate(90.203125 0)"/>
       <use xlink:href="#NotoSansCJKjp-Regular-11" transform="translate(118 0)"/>
      </g>
     </g>
    </g>
    <g id="ytick_11">
     <g id="line2d_41">
      <path d="M 294.58 180.76 
L 523.38 180.76 
" clip-path="url(#p4d0070aeb6)" style="fill: none; stroke: #d8dde3; stroke-width: 0.9; stroke-linecap: square"/>
     </g>
     <g id="line2d_42">
      <g>
       <use xlink:href="#m8f0d69d5af" x="294.58" y="180.76" style="fill: #222831; stroke: #222831; stroke-width: 0.8"/>
      </g>
     </g>
     <g id="text_21">
      <!-- -0.5 -->
      <g style="fill: #222831" transform="translate(266.76 186.04) scale(0.12 -0.12)">
       <use xlink:href="#NotoSansCJKjp-Regular-e"/>
       <use xlink:href="#NotoSansCJKjp-Regular-11" transform="translate(34.703125 0)"/>
       <use xlink:href="#NotoSansCJKjp-Regular-f" transform="translate(90.203125 0)"/>
       <use xlink:href="#NotoSansCJKjp-Regular-16" transform="translate(118 0)"/>
      </g>
     </g>
    </g>
    <g id="ytick_12">
     <g id="line2d_43">
      <path d="M 294.58 152.16 
L 523.38 152.16 
" clip-path="url(#p4d0070aeb6)" style="fill: none; stroke: #d8dde3; stroke-width: 0.9; stroke-linecap: square"/>
     </g>
     <g id="line2d_44">
      <g>
       <use xlink:href="#m8f0d69d5af" x="294.58" y="152.16" style="fill: #222831; stroke: #222831; stroke-width: 0.8"/>
      </g>
     </g>
     <g id="text_22">
      <!-- 0.0 -->
      <g style="fill: #222831" transform="translate(270.924375 157.44) scale(0.12 -0.12)">
       <use xlink:href="#NotoSansCJKjp-Regular-11"/>
       <use xlink:href="#NotoSansCJKjp-Regular-f" transform="translate(55.5 0)"/>
       <use xlink:href="#NotoSansCJKjp-Regular-11" transform="translate(83.296875 0)"/>
      </g>
     </g>
    </g>
    <g id="ytick_13">
     <g id="line2d_45">
      <path d="M 294.58 123.56 
L 523.38 123.56 
" clip-path="url(#p4d0070aeb6)" style="fill: none; stroke: #d8dde3; stroke-width: 0.9; stroke-linecap: square"/>
     </g>
     <g id="line2d_46">
      <g>
       <use xlink:href="#m8f0d69d5af" x="294.58" y="123.56" style="fill: #222831; stroke: #222831; stroke-width: 0.8"/>
      </g>
     </g>
     <g id="text_23">
      <!-- 0.5 -->
      <g style="fill: #222831" transform="translate(270.924375 128.84) scale(0.12 -0.12)">
       <use xlink:href="#NotoSansCJKjp-Regular-11"/>
       <use xlink:href="#NotoSansCJKjp-Regular-f" transform="translate(55.5 0)"/>
       <use xlink:href="#NotoSansCJKjp-Regular-16" transform="translate(83.296875 0)"/>
      </g>
     </g>
    </g>
    <g id="ytick_14">
     <g id="line2d_47">
      <path d="M 294.58 94.96 
L 523.38 94.96 
" clip-path="url(#p4d0070aeb6)" style="fill: none; stroke: #d8dde3; stroke-width: 0.9; stroke-linecap: square"/>
     </g>
     <g id="line2d_48">
      <g>
       <use xlink:href="#m8f0d69d5af" x="294.58" y="94.96" style="fill: #222831; stroke: #222831; stroke-width: 0.8"/>
      </g>
     </g>
     <g id="text_24">
      <!-- 1.0 -->
      <g style="fill: #222831" transform="translate(270.924375 100.24) scale(0.12 -0.12)">
       <use xlink:href="#NotoSansCJKjp-Regular-12"/>
       <use xlink:href="#NotoSansCJKjp-Regular-f" transform="translate(55.5 0)"/>
       <use xlink:href="#NotoSansCJKjp-Regular-11" transform="translate(83.296875 0)"/>
      </g>
     </g>
    </g>
    <g id="ytick_15">
     <g id="line2d_49">
      <path d="M 294.58 66.36 
L 523.38 66.36 
" clip-path="url(#p4d0070aeb6)" style="fill: none; stroke: #d8dde3; stroke-width: 0.9; stroke-linecap: square"/>
     </g>
     <g id="line2d_50">
      <g>
       <use xlink:href="#m8f0d69d5af" x="294.58" y="66.36" style="fill: #222831; stroke: #222831; stroke-width: 0.8"/>
      </g>
     </g>
     <g id="text_25">
      <!-- 1.5 -->
      <g style="fill: #222831" transform="translate(270.924375 71.64) scale(0.12 -0.12)">
       <use xlink:href="#NotoSansCJKjp-Regular-12"/>
       <use xlink:href="#NotoSansCJKjp-Regular-f" transform="translate(55.5 0)"/>
       <use xlink:href="#NotoSansCJKjp-Regular-16" transform="translate(83.296875 0)"/>
      </g>
     </g>
    </g>
    <g id="ytick_16">
     <g id="line2d_51">
      <path d="M 294.58 37.76 
L 523.38 37.76 
" clip-path="url(#p4d0070aeb6)" style="fill: none; stroke: #d8dde3; stroke-width: 0.9; stroke-linecap: square"/>
     </g>
     <g id="line2d_52">
      <g>
       <use xlink:href="#m8f0d69d5af" x="294.58" y="37.76" style="fill: #222831; stroke: #222831; stroke-width: 0.8"/>
      </g>
     </g>
     <g id="text_26">
      <!-- 2.0 -->
      <g style="fill: #222831" transform="translate(270.924375 43.04) scale(0.12 -0.12)">
       <use xlink:href="#NotoSansCJKjp-Regular-13"/>
       <use xlink:href="#NotoSansCJKjp-Regular-f" transform="translate(55.5 0)"/>
       <use xlink:href="#NotoSansCJKjp-Regular-11" transform="translate(83.296875 0)"/>
      </g>
     </g>
    </g>
   </g>
   <g id="patch_10">
    <path d="M 386.1 152.16 
L 443.3 152.16 
L 443.3 94.96 
L 386.1 94.96 
z
" clip-path="url(#p4d0070aeb6)" style="fill: #1f6feb; opacity: 0.16; stroke-dasharray: 5.92,2.56; stroke-dashoffset: 0; stroke: #1f6feb; stroke-width: 1.6; stroke-linejoin: miter"/>
   </g>
   <g id="patch_11">
    <path d="M 294.58 243.68 
L 294.58 37.76 
" style="fill: none; stroke: #222831; stroke-width: 1.1; stroke-linejoin: miter; stroke-linecap: square"/>
   </g>
   <g id="patch_12">
    <path d="M 294.58 243.68 
L 523.38 243.68 
" style="fill: none; stroke: #222831; stroke-width: 1.1; stroke-linejoin: miter; stroke-linecap: square"/>
   </g>
   <g id="patch_13">
    <path d="M 386.1 152.16 
L 443.3 152.16 
L 500.5 94.96 
L 443.3 94.96 
z
" clip-path="url(#p4d0070aeb6)" style="fill: #d1242f; opacity: 0.26; stroke: #d1242f; stroke-width: 2.2; stroke-linejoin: miter"/>
   </g>
   <g id="text_27">
    <!-- 推移（shear，沿 x 錯切） -->
    <g style="fill: #222831" transform="translate(339.919063 17.76) scale(0.12 -0.12)">
     <defs>
      <path id="NotoSansCJKjp-Regular-4adf" d="M 4275 2458 
L 4275 1581 
L 3238 1581 
L 3238 2458 
L 4275 2458 
z
M 3245 5389 
C 2982 4454 2534 3571 1971 3008 
C 2074 2906 2234 2701 2298 2605 
C 2464 2784 2624 2989 2771 3213 
L 2771 -506 
L 3238 -506 
L 3238 -179 
L 6144 -179 
L 6144 269 
L 4730 269 
L 4730 1165 
L 5882 1165 
L 5882 1581 
L 4730 1581 
L 4730 2458 
L 5882 2458 
L 5882 2874 
L 4730 2874 
L 4730 3738 
L 6035 3738 
L 6035 4166 
L 4755 4166 
C 4915 4493 5082 4890 5222 5242 
L 4723 5363 
C 4627 5011 4448 4538 4282 4166 
L 3296 4166 
C 3462 4518 3597 4896 3712 5274 
L 3245 5389 
z
M 4275 2874 
L 3238 2874 
L 3238 3738 
L 4275 3738 
L 4275 2874 
z
M 4275 1165 
L 4275 269 
L 3238 269 
L 3238 1165 
L 4275 1165 
z
M 1152 5370 
L 1152 4083 
L 282 4083 
L 282 3635 
L 1152 3635 
L 1152 2240 
L 173 1971 
L 288 1504 
L 1152 1766 
L 1152 70 
C 1152 -19 1120 -51 1037 -51 
C 954 -51 691 -51 397 -45 
C 461 -179 525 -384 544 -506 
C 966 -512 1222 -493 1389 -416 
C 1555 -339 1613 -198 1613 77 
L 1613 1914 
L 2291 2125 
L 2234 2554 
L 1613 2374 
L 1613 3635 
L 2234 3635 
L 2234 4083 
L 1613 4083 
L 1613 5370 
L 1152 5370 
z
" transform="scale(0.015625)"/>
      <path id="NotoSansCJKjp-Regular-71ef" d="M 3910 4416 
L 5197 4416 
C 5024 4083 4774 3795 4486 3546 
C 4275 3750 3949 3994 3654 4179 
L 3910 4416 
z
M 4109 5376 
C 3827 4883 3277 4307 2477 3910 
C 2573 3834 2720 3680 2784 3578 
C 2982 3686 3168 3808 3341 3930 
C 3629 3750 3949 3494 4154 3290 
C 3686 2970 3136 2739 2586 2605 
C 2675 2515 2790 2336 2835 2221 
C 4122 2586 5325 3347 5824 4691 
L 5523 4838 
L 5434 4819 
L 4269 4819 
C 4390 4973 4499 5126 4589 5286 
L 4109 5376 
z
M 4211 1952 
L 5536 1952 
C 5350 1555 5088 1222 4768 941 
C 4531 1165 4166 1427 3840 1626 
C 3974 1728 4096 1837 4211 1952 
z
M 4454 2963 
C 4141 2400 3501 1760 2560 1325 
C 2656 1254 2797 1094 2861 992 
C 3085 1107 3296 1229 3488 1363 
C 3821 1165 4173 890 4410 659 
C 3846 282 3168 32 2451 -102 
C 2541 -205 2650 -397 2694 -512 
C 4243 -166 5613 621 6157 2246 
L 5850 2381 
L 5760 2362 
L 4576 2362 
C 4717 2534 4832 2707 4934 2880 
L 4454 2963 
z
M 2310 5286 
C 1837 5069 992 4883 275 4762 
C 333 4659 397 4499 416 4397 
C 717 4435 1037 4493 1357 4557 
L 1357 3571 
L 314 3571 
L 314 3123 
L 1293 3123 
C 1037 2387 595 1555 179 1101 
C 262 986 378 794 429 659 
C 755 1056 1094 1690 1357 2336 
L 1357 -499 
L 1830 -499 
L 1830 2259 
C 2048 1990 2304 1645 2413 1466 
L 2701 1843 
C 2573 1990 2016 2566 1830 2726 
L 1830 3123 
L 2630 3123 
L 2630 3571 
L 1830 3571 
L 1830 4666 
C 2131 4736 2413 4819 2643 4915 
L 2310 5286 
z
" transform="scale(0.015625)"/>
      <path id="NotoSansCJKjp-Regular-54" d="M 1498 -83 
C 2317 -83 2758 384 2758 947 
C 2758 1606 2208 1811 1702 2003 
C 1312 2150 954 2278 954 2605 
C 954 2880 1158 3110 1600 3110 
C 1907 3110 2150 2976 2387 2803 
L 2669 3168 
C 2406 3386 2022 3565 1594 3565 
C 832 3565 397 3130 397 2579 
C 397 1984 922 1754 1408 1574 
C 1792 1434 2202 1267 2202 915 
C 2202 614 1978 371 1517 371 
C 1101 371 794 538 486 787 
L 205 397 
C 531 122 1005 -83 1498 -83 
z
" transform="scale(0.015625)"/>
      <path id="NotoSansCJKjp-Regular-49" d="M 589 0 
L 1178 0 
L 1178 2522 
C 1523 2874 1766 3053 2125 3053 
C 2586 3053 2784 2778 2784 2125 
L 2784 0 
L 3366 0 
L 3366 2202 
C 3366 3085 3034 3565 2304 3565 
C 1830 3565 1472 3302 1152 2982 
L 1178 3699 
L 1178 5094 
L 589 5094 
L 589 0 
z
" transform="scale(0.015625)"/>
      <path id="NotoSansCJKjp-Regular-46" d="M 1997 -83 
C 2464 -83 2835 70 3136 269 
L 2931 659 
C 2669 486 2400 384 2061 384 
C 1402 384 947 858 909 1600 
L 3251 1600 
C 3264 1690 3277 1805 3277 1933 
C 3277 2925 2778 3565 1888 3565 
C 1094 3565 333 2867 333 1734 
C 333 589 1069 -83 1997 -83 
z
M 902 2016 
C 973 2707 1408 3098 1901 3098 
C 2445 3098 2765 2720 2765 2016 
L 902 2016 
z
" transform="scale(0.015625)"/>
      <path id="NotoSansCJKjp-Regular-42" d="M 1389 -83 
C 1818 -83 2208 141 2541 416 
L 2560 416 
L 2611 0 
L 3091 0 
L 3091 2138 
C 3091 3002 2739 3565 1888 3565 
C 1325 3565 838 3315 525 3110 
L 749 2707 
C 1024 2893 1389 3078 1792 3078 
C 2362 3078 2509 2650 2509 2202 
C 1030 2035 378 1658 378 902 
C 378 275 806 -83 1389 -83 
z
M 1555 390 
C 1210 390 941 544 941 941 
C 941 1389 1338 1677 2509 1811 
L 2509 845 
C 2170 544 1888 390 1555 390 
z
" transform="scale(0.015625)"/>
      <path id="NotoSansCJKjp-Regular-53" d="M 589 0 
L 1178 0 
L 1178 2234 
C 1408 2822 1760 3040 2048 3040 
C 2195 3040 2272 3021 2387 2982 
L 2496 3488 
C 2387 3546 2278 3565 2125 3565 
C 1741 3565 1382 3283 1139 2842 
L 1126 2842 
L 1069 3475 
L 589 3475 
L 589 0 
z
" transform="scale(0.015625)"/>
      <path id="NotoSansCJKjp-Regular-e6b2" d="M 1005 -685 
C 1677 -448 2112 77 2112 768 
C 2112 1216 1920 1504 1568 1504 
C 1306 1504 1082 1344 1082 1043 
C 1082 742 1299 589 1562 589 
L 1670 602 
C 1638 160 1357 -141 864 -346 
L 1005 -685 
z
" transform="scale(0.015625)"/>
      <path id="NotoSansCJKjp-Regular-a3ac" d="M 480 1830 
C 614 1446 717 960 736 634 
L 1101 730 
C 1069 1050 954 1536 819 1914 
L 480 1830 
z
M 2304 1990 
C 2246 1638 2112 1120 2010 800 
L 2310 698 
C 2432 998 2566 1478 2694 1882 
L 2304 1990 
z
M 4858 5376 
L 4858 4582 
L 4006 4582 
L 4006 5376 
L 3565 5376 
L 3565 4582 
L 2957 4582 
L 2957 4160 
L 3565 4160 
L 3565 3213 
L 2714 3213 
L 2714 2790 
L 6150 2790 
L 6150 3213 
L 5306 3213 
L 5306 4160 
L 6010 4160 
L 6010 4582 
L 5306 4582 
L 5306 5376 
L 4858 5376 
z
M 4006 4160 
L 4858 4160 
L 4858 3213 
L 4006 3213 
L 4006 4160 
z
M 3648 832 
L 5312 832 
L 5312 186 
L 3648 186 
L 3648 832 
z
M 3648 1210 
L 3648 1830 
L 5312 1830 
L 5312 1210 
L 3648 1210 
z
M 3206 2227 
L 3206 -512 
L 3648 -512 
L 3648 -224 
L 5312 -224 
L 5312 -499 
L 5773 -499 
L 5773 2227 
L 3206 2227 
z
M 1338 5376 
C 1120 4864 730 4211 160 3725 
C 256 3661 397 3514 467 3411 
L 672 3610 
L 672 3379 
L 1370 3379 
L 1370 2701 
L 346 2701 
L 346 2278 
L 1370 2278 
L 1370 314 
L 275 115 
L 390 -320 
C 1062 -192 1984 0 2854 179 
L 2829 589 
L 1798 397 
L 1798 2278 
L 2733 2278 
L 2733 2701 
L 1798 2701 
L 1798 3379 
L 2534 3379 
L 2534 3795 
L 845 3795 
C 1184 4179 1440 4582 1626 4928 
C 1990 4589 2394 4102 2598 3789 
L 2925 4154 
C 2682 4499 2176 5011 1766 5376 
L 1338 5376 
z
" transform="scale(0.015625)"/>
      <path id="NotoSansCJKjp-Regular-2b89" d="M 2566 4813 
L 2566 4352 
L 3693 4352 
C 3661 2490 3558 730 1971 -160 
C 2099 -243 2253 -410 2323 -538 
C 3987 448 4128 2349 4173 4352 
L 5523 4352 
C 5446 1440 5357 371 5165 134 
C 5094 45 5030 19 4909 19 
C 4762 19 4429 19 4051 51 
C 4141 -83 4198 -301 4205 -442 
C 4544 -461 4902 -467 5114 -442 
C 5325 -416 5472 -358 5613 -154 
C 5862 166 5933 1261 6016 4544 
C 6016 4614 6016 4813 6016 4813 
L 2566 4813 
z
M 960 5197 
L 960 3482 
L 186 3315 
L 269 2880 
L 960 3027 
L 960 1440 
C 960 864 1088 710 1568 710 
C 1664 710 2144 710 2246 710 
C 2688 710 2797 986 2848 1875 
C 2720 1907 2528 1990 2419 2080 
C 2400 1331 2374 1165 2208 1165 
C 2106 1165 1715 1165 1638 1165 
C 1466 1165 1434 1203 1434 1434 
L 1434 3130 
L 2970 3456 
L 2886 3885 
L 1434 3578 
L 1434 5197 
L 960 5197 
z
" transform="scale(0.015625)"/>
     </defs>
     <use xlink:href="#NotoSansCJKjp-Regular-4adf"/>
     <use xlink:href="#NotoSansCJKjp-Regular-71ef" transform="translate(100 0)"/>
     <use xlink:href="#NotoSansCJKjp-Regular-e6ae" transform="translate(200 0)"/>
     <use xlink:href="#NotoSansCJKjp-Regular-54" transform="translate(300 0)"/>
     <use xlink:href="#NotoSansCJKjp-Regular-49" transform="translate(346.796875 0)"/>
     <use xlink:href="#NotoSansCJKjp-Regular-46" transform="translate(407.5 0)"/>
     <use xlink:href="#NotoSansCJKjp-Regular-42" transform="translate(461.3125 0)"/>
     <use xlink:href="#NotoSansCJKjp-Regular-53" transform="translate(517.609375 0)"/>
     <use xlink:href="#NotoSansCJKjp-Regular-e6b2" transform="translate(556.40625 0)"/>
     <use xlink:href="#NotoSansCJKjp-Regular-5aae" transform="translate(656.40625 0)"/>
     <use xlink:href="#NotoSansCJKjp-Regular-1" transform="translate(756.40625 0)"/>
     <use xlink:href="#NotoSansCJKjp-Regular-59" transform="translate(778.8125 0)"/>
     <use xlink:href="#NotoSansCJKjp-Regular-1" transform="translate(828.609375 0)"/>
     <use xlink:href="#NotoSansCJKjp-Regular-a3ac" transform="translate(851.015625 0)"/>
     <use xlink:href="#NotoSansCJKjp-Regular-2b89" transform="translate(951.015625 0)"/>
     <use xlink:href="#NotoSansCJKjp-Regular-e6af" transform="translate(1051.015625 0)"/>
    </g>
    <!-- [[1, 1], [0, 1]] -->
    <g style="fill: #222831" transform="translate(374.456563 29.76) scale(0.12 -0.12)">
     <use xlink:href="#NotoSansCJKjp-Regular-3c"/>
     <use xlink:href="#NotoSansCJKjp-Regular-3c" transform="translate(33.796875 0)"/>
     <use xlink:href="#NotoSansCJKjp-Regular-12" transform="translate(67.59375 0)"/>
     <use xlink:href="#NotoSansCJKjp-Regular-d" transform="translate(123.09375 0)"/>
     <use xlink:href="#NotoSansCJKjp-Regular-1" transform="translate(150.890625 0)"/>
     <use xlink:href="#NotoSansCJKjp-Regular-12" transform="translate(173.296875 0)"/>
     <use xlink:href="#NotoSansCJKjp-Regular-3e" transform="translate(228.796875 0)"/>
     <use xlink:href="#NotoSansCJKjp-Regular-d" transform="translate(262.59375 0)"/>
     <use xlink:href="#NotoSansCJKjp-Regular-1" transform="translate(290.390625 0)"/>
     <use xlink:href="#NotoSansCJKjp-Regular-3c" transform="translate(312.796875 0)"/>
     <use xlink:href="#NotoSansCJKjp-Regular-11" transform="translate(346.59375 0)"/>
     <use xlink:href="#NotoSansCJKjp-Regular-d" transform="translate(402.09375 0)"/>
     <use xlink:href="#NotoSansCJKjp-Regular-1" transform="translate(429.890625 0)"/>
     <use xlink:href="#NotoSansCJKjp-Regular-12" transform="translate(452.296875 0)"/>
     <use xlink:href="#NotoSansCJKjp-Regular-3e" transform="translate(507.796875 0)"/>
     <use xlink:href="#NotoSansCJKjp-Regular-3e" transform="translate(541.59375 0)"/>
    </g>
   </g>
   <g id="patch_14">
    <path d="M 386.1 152.16 
Q 414.7 152.16 440.616718 152.16 
" clip-path="url(#p4d0070aeb6)" style="fill: none; stroke: #d1242f; stroke-width: 2.4; stroke-linecap: round"/>
    <path d="M 433.416718 148.56 
L 440.616718 152.16 
L 433.416718 155.76 
z
" clip-path="url(#p4d0070aeb6)" style="fill: #d1242f; stroke: #d1242f; stroke-width: 2.4; stroke-linecap: round"/>
   </g>
   <g id="patch_15">
    <path d="M 386.1 152.16 
Q 414.7 123.56 441.402633 96.857367 
" clip-path="url(#p4d0070aeb6)" style="fill: none; stroke: #d1242f; stroke-width: 2.4; stroke-linecap: round"/>
    <path d="M 433.76588 99.402951 
L 441.402633 96.857367 
L 438.857049 104.49412 
z
" clip-path="url(#p4d0070aeb6)" style="fill: #d1242f; stroke: #d1242f; stroke-width: 2.4; stroke-linecap: round"/>
   </g>
  </g>
  <g id="axes_3">
   <g id="patch_16">
    <path d="M 554.14 243.68 
L 782.94 243.68 
L 782.94 37.76 
L 554.14 37.76 
z
" style="fill: #ffffff"/>
   </g>
   <g id="line2d_53">
    <path d="M 554.14 152.16 
L 782.94 152.16 
" clip-path="url(#p16245ea5f5)" style="fill: none; stroke: #d8dde3; stroke-linecap: square"/>
   </g>
   <g id="line2d_54">
    <path d="M 645.66 243.68 
L 645.66 37.76 
" clip-path="url(#p16245ea5f5)" style="fill: none; stroke: #d8dde3; stroke-linecap: square"/>
   </g>
   <g id="matplotlib.axis_5">
    <g id="xtick_9">
     <g id="line2d_55">
      <path d="M 588.46 243.68 
L 588.46 37.76 
" clip-path="url(#p16245ea5f5)" style="fill: none; stroke: #d8dde3; stroke-width: 0.9; stroke-linecap: square"/>
     </g>
     <g id="line2d_56">
      <g>
       <use xlink:href="#m201ed94bc7" x="588.46" y="243.68" style="fill: #222831; stroke: #222831; stroke-width: 0.8"/>
      </g>
     </g>
     <g id="text_28">
      <!-- -1 -->
      <g style="fill: #222831" transform="translate(583.047813 261.24) scale(0.12 -0.12)">
       <use xlink:href="#NotoSansCJKjp-Regular-e"/>
       <use xlink:href="#NotoSansCJKjp-Regular-12" transform="translate(34.703125 0)"/>
      </g>
     </g>
    </g>
    <g id="xtick_10">
     <g id="line2d_57">
      <path d="M 645.66 243.68 
L 645.66 37.76 
" clip-path="url(#p16245ea5f5)" style="fill: none; stroke: #d8dde3; stroke-width: 0.9; stroke-linecap: square"/>
     </g>
     <g id="line2d_58">
      <g>
       <use xlink:href="#m201ed94bc7" x="645.66" y="243.68" style="fill: #222831; stroke: #222831; stroke-width: 0.8"/>
      </g>
     </g>
     <g id="text_29">
      <!-- 0 -->
      <g style="fill: #222831" transform="translate(642.33 261.24) scale(0.12 -0.12)">
       <use xlink:href="#NotoSansCJKjp-Regular-11"/>
      </g>
     </g>
    </g>
    <g id="xtick_11">
     <g id="line2d_59">
      <path d="M 702.86 243.68 
L 702.86 37.76 
" clip-path="url(#p16245ea5f5)" style="fill: none; stroke: #d8dde3; stroke-width: 0.9; stroke-linecap: square"/>
     </g>
     <g id="line2d_60">
      <g>
       <use xlink:href="#m201ed94bc7" x="702.86" y="243.68" style="fill: #222831; stroke: #222831; stroke-width: 0.8"/>
      </g>
     </g>
     <g id="text_30">
      <!-- 1 -->
      <g style="fill: #222831" transform="translate(699.53 261.24) scale(0.12 -0.12)">
       <use xlink:href="#NotoSansCJKjp-Regular-12"/>
      </g>
     </g>
    </g>
    <g id="xtick_12">
     <g id="line2d_61">
      <path d="M 760.06 243.68 
L 760.06 37.76 
" clip-path="url(#p16245ea5f5)" style="fill: none; stroke: #d8dde3; stroke-width: 0.9; stroke-linecap: square"/>
     </g>
     <g id="line2d_62">
      <g>
       <use xlink:href="#m201ed94bc7" x="760.06" y="243.68" style="fill: #222831; stroke: #222831; stroke-width: 0.8"/>
      </g>
     </g>
     <g id="text_31">
      <!-- 2 -->
      <g style="fill: #222831" transform="translate(756.73 261.24) scale(0.12 -0.12)">
       <use xlink:href="#NotoSansCJKjp-Regular-13"/>
      </g>
     </g>
    </g>
   </g>
   <g id="matplotlib.axis_6">
    <g id="ytick_17">
     <g id="line2d_63">
      <path d="M 554.14 237.96 
L 782.94 237.96 
" clip-path="url(#p16245ea5f5)" style="fill: none; stroke: #d8dde3; stroke-width: 0.9; stroke-linecap: square"/>
     </g>
     <g id="line2d_64">
      <g>
       <use xlink:href="#m8f0d69d5af" x="554.14" y="237.96" style="fill: #222831; stroke: #222831; stroke-width: 0.8"/>
      </g>
     </g>
     <g id="text_32">
      <!-- -1.5 -->
      <g style="fill: #222831" transform="translate(526.32 243.24) scale(0.12 -0.12)">
       <use xlink:href="#NotoSansCJKjp-Regular-e"/>
       <use xlink:href="#NotoSansCJKjp-Regular-12" transform="translate(34.703125 0)"/>
       <use xlink:href="#NotoSansCJKjp-Regular-f" transform="translate(90.203125 0)"/>
       <use xlink:href="#NotoSansCJKjp-Regular-16" transform="translate(118 0)"/>
      </g>
     </g>
    </g>
    <g id="ytick_18">
     <g id="line2d_65">
      <path d="M 554.14 209.36 
L 782.94 209.36 
" clip-path="url(#p16245ea5f5)" style="fill: none; stroke: #d8dde3; stroke-width: 0.9; stroke-linecap: square"/>
     </g>
     <g id="line2d_66">
      <g>
       <use xlink:href="#m8f0d69d5af" x="554.14" y="209.36" style="fill: #222831; stroke: #222831; stroke-width: 0.8"/>
      </g>
     </g>
     <g id="text_33">
      <!-- -1.0 -->
      <g style="fill: #222831" transform="translate(526.32 214.64) scale(0.12 -0.12)">
       <use xlink:href="#NotoSansCJKjp-Regular-e"/>
       <use xlink:href="#NotoSansCJKjp-Regular-12" transform="translate(34.703125 0)"/>
       <use xlink:href="#NotoSansCJKjp-Regular-f" transform="translate(90.203125 0)"/>
       <use xlink:href="#NotoSansCJKjp-Regular-11" transform="translate(118 0)"/>
      </g>
     </g>
    </g>
    <g id="ytick_19">
     <g id="line2d_67">
      <path d="M 554.14 180.76 
L 782.94 180.76 
" clip-path="url(#p16245ea5f5)" style="fill: none; stroke: #d8dde3; stroke-width: 0.9; stroke-linecap: square"/>
     </g>
     <g id="line2d_68">
      <g>
       <use xlink:href="#m8f0d69d5af" x="554.14" y="180.76" style="fill: #222831; stroke: #222831; stroke-width: 0.8"/>
      </g>
     </g>
     <g id="text_34">
      <!-- -0.5 -->
      <g style="fill: #222831" transform="translate(526.32 186.04) scale(0.12 -0.12)">
       <use xlink:href="#NotoSansCJKjp-Regular-e"/>
       <use xlink:href="#NotoSansCJKjp-Regular-11" transform="translate(34.703125 0)"/>
       <use xlink:href="#NotoSansCJKjp-Regular-f" transform="translate(90.203125 0)"/>
       <use xlink:href="#NotoSansCJKjp-Regular-16" transform="translate(118 0)"/>
      </g>
     </g>
    </g>
    <g id="ytick_20">
     <g id="line2d_69">
      <path d="M 554.14 152.16 
L 782.94 152.16 
" clip-path="url(#p16245ea5f5)" style="fill: none; stroke: #d8dde3; stroke-width: 0.9; stroke-linecap: square"/>
     </g>
     <g id="line2d_70">
      <g>
       <use xlink:href="#m8f0d69d5af" x="554.14" y="152.16" style="fill: #222831; stroke: #222831; stroke-width: 0.8"/>
      </g>
     </g>
     <g id="text_35">
      <!-- 0.0 -->
      <g style="fill: #222831" transform="translate(530.484375 157.44) scale(0.12 -0.12)">
       <use xlink:href="#NotoSansCJKjp-Regular-11"/>
       <use xlink:href="#NotoSansCJKjp-Regular-f" transform="translate(55.5 0)"/>
       <use xlink:href="#NotoSansCJKjp-Regular-11" transform="translate(83.296875 0)"/>
      </g>
     </g>
    </g>
    <g id="ytick_21">
     <g id="line2d_71">
      <path d="M 554.14 123.56 
L 782.94 123.56 
" clip-path="url(#p16245ea5f5)" style="fill: none; stroke: #d8dde3; stroke-width: 0.9; stroke-linecap: square"/>
     </g>
     <g id="line2d_72">
      <g>
       <use xlink:href="#m8f0d69d5af" x="554.14" y="123.56" style="fill: #222831; stroke: #222831; stroke-width: 0.8"/>
      </g>
     </g>
     <g id="text_36">
      <!-- 0.5 -->
      <g style="fill: #222831" transform="translate(530.484375 128.84) scale(0.12 -0.12)">
       <use xlink:href="#NotoSansCJKjp-Regular-11"/>
       <use xlink:href="#NotoSansCJKjp-Regular-f" transform="translate(55.5 0)"/>
       <use xlink:href="#NotoSansCJKjp-Regular-16" transform="translate(83.296875 0)"/>
      </g>
     </g>
    </g>
    <g id="ytick_22">
     <g id="line2d_73">
      <path d="M 554.14 94.96 
L 782.94 94.96 
" clip-path="url(#p16245ea5f5)" style="fill: none; stroke: #d8dde3; stroke-width: 0.9; stroke-linecap: square"/>
     </g>
     <g id="line2d_74">
      <g>
       <use xlink:href="#m8f0d69d5af" x="554.14" y="94.96" style="fill: #222831; stroke: #222831; stroke-width: 0.8"/>
      </g>
     </g>
     <g id="text_37">
      <!-- 1.0 -->
      <g style="fill: #222831" transform="translate(530.484375 100.24) scale(0.12 -0.12)">
       <use xlink:href="#NotoSansCJKjp-Regular-12"/>
       <use xlink:href="#NotoSansCJKjp-Regular-f" transform="translate(55.5 0)"/>
       <use xlink:href="#NotoSansCJKjp-Regular-11" transform="translate(83.296875 0)"/>
      </g>
     </g>
    </g>
    <g id="ytick_23">
     <g id="line2d_75">
      <path d="M 554.14 66.36 
L 782.94 66.36 
" clip-path="url(#p16245ea5f5)" style="fill: none; stroke: #d8dde3; stroke-width: 0.9; stroke-linecap: square"/>
     </g>
     <g id="line2d_76">
      <g>
       <use xlink:href="#m8f0d69d5af" x="554.14" y="66.36" style="fill: #222831; stroke: #222831; stroke-width: 0.8"/>
      </g>
     </g>
     <g id="text_38">
      <!-- 1.5 -->
      <g style="fill: #222831" transform="translate(530.484375 71.64) scale(0.12 -0.12)">
       <use xlink:href="#NotoSansCJKjp-Regular-12"/>
       <use xlink:href="#NotoSansCJKjp-Regular-f" transform="translate(55.5 0)"/>
       <use xlink:href="#NotoSansCJKjp-Regular-16" transform="translate(83.296875 0)"/>
      </g>
     </g>
    </g>
    <g id="ytick_24">
     <g id="line2d_77">
      <path d="M 554.14 37.76 
L 782.94 37.76 
" clip-path="url(#p16245ea5f5)" style="fill: none; stroke: #d8dde3; stroke-width: 0.9; stroke-linecap: square"/>
     </g>
     <g id="line2d_78">
      <g>
       <use xlink:href="#m8f0d69d5af" x="554.14" y="37.76" style="fill: #222831; stroke: #222831; stroke-width: 0.8"/>
      </g>
     </g>
     <g id="text_39">
      <!-- 2.0 -->
      <g style="fill: #222831" transform="translate(530.484375 43.04) scale(0.12 -0.12)">
       <use xlink:href="#NotoSansCJKjp-Regular-13"/>
       <use xlink:href="#NotoSansCJKjp-Regular-f" transform="translate(55.5 0)"/>
       <use xlink:href="#NotoSansCJKjp-Regular-11" transform="translate(83.296875 0)"/>
      </g>
     </g>
    </g>
   </g>
   <g id="patch_17">
    <path d="M 645.66 152.16 
L 702.86 152.16 
L 702.86 94.96 
L 645.66 94.96 
z
" clip-path="url(#p16245ea5f5)" style="fill: #1f6feb; opacity: 0.16; stroke-dasharray: 5.92,2.56; stroke-dashoffset: 0; stroke: #1f6feb; stroke-width: 1.6; stroke-linejoin: miter"/>
   </g>
   <g id="patch_18">
    <path d="M 554.14 243.68 
L 554.14 37.76 
" style="fill: none; stroke: #222831; stroke-width: 1.1; stroke-linejoin: miter; stroke-linecap: square"/>
   </g>
   <g id="patch_19">
    <path d="M 554.14 243.68 
L 782.94 243.68 
" style="fill: none; stroke: #222831; stroke-width: 1.1; stroke-linejoin: miter; stroke-linecap: square"/>
   </g>
   <g id="patch_20">
    <path d="M 645.66 152.16 
L 689.477742 115.392549 
L 652.710291 71.574807 
L 608.892549 108.342258 
z
" clip-path="url(#p16245ea5f5)" style="fill: #d1242f; opacity: 0.26; stroke: #d1242f; stroke-width: 2.2; stroke-linejoin: miter"/>
   </g>
   <g id="text_40">
    <!-- 旋轉（逆時針 40°） -->
    <g style="fill: #222831" transform="translate(616.315625 17.76) scale(0.12 -0.12)">
     <defs>
      <path id="NotoSansCJKjp-Regular-4ec3" d="M 1350 5363 
L 1350 4333 
L 282 4333 
L 282 3878 
L 973 3878 
C 954 2054 902 646 173 -186 
C 288 -262 448 -403 525 -512 
C 1133 205 1325 1254 1389 2592 
L 2131 2592 
C 2093 787 2042 147 1946 0 
C 1894 -70 1843 -83 1754 -83 
C 1658 -83 1434 -77 1190 -58 
C 1254 -179 1299 -365 1306 -493 
C 1568 -506 1818 -512 1958 -486 
C 2131 -467 2240 -429 2336 -282 
C 2496 -64 2534 659 2579 2822 
C 2579 2880 2579 3040 2579 3040 
L 1408 3040 
L 1427 3878 
L 2842 3878 
L 2842 4333 
L 1811 4333 
L 1811 5363 
L 1350 5363 
z
M 3238 2368 
C 3200 1338 3098 339 2560 -198 
C 2669 -262 2810 -410 2867 -512 
C 3162 -218 3347 186 3462 646 
C 3840 -211 4416 -410 5203 -410 
L 6054 -410 
C 6080 -282 6138 -77 6202 38 
C 6016 32 5350 32 5229 32 
C 5030 32 4838 45 4666 90 
L 4666 1427 
L 5888 1427 
L 5888 1850 
L 4666 1850 
L 4666 2976 
L 5504 2976 
C 5414 2733 5312 2496 5222 2323 
L 5594 2182 
C 5754 2464 5933 2918 6093 3315 
L 5779 3424 
L 5709 3398 
L 3155 3398 
C 3302 3603 3443 3834 3565 4090 
L 6131 4090 
L 6131 4531 
L 3757 4531 
C 3853 4774 3936 5030 4000 5286 
L 3533 5382 
C 3347 4653 3027 3955 2598 3501 
C 2714 3430 2906 3277 2989 3194 
L 3117 3354 
L 3117 2976 
L 4230 2976 
L 4230 282 
C 3955 474 3738 813 3590 1376 
C 3629 1690 3648 2022 3661 2368 
L 3238 2368 
z
" transform="scale(0.015625)"/>
      <path id="NotoSansCJKjp-Regular-9bba" d="M 3258 691 
C 3501 461 3750 134 3859 -90 
L 4218 141 
C 4096 358 3834 666 3584 883 
L 3258 691 
z
M 2880 2061 
L 2912 1696 
C 3629 1709 4659 1728 5670 1760 
C 5741 1664 5798 1574 5843 1498 
L 6189 1696 
C 6042 1926 5754 2253 5466 2502 
L 5926 2502 
L 5926 4179 
L 4691 4179 
L 4691 4525 
L 6074 4525 
L 6074 4902 
L 4691 4902 
L 4691 5370 
L 4269 5370 
L 4269 4902 
L 2944 4902 
L 2944 4525 
L 4269 4525 
L 4269 4179 
L 3098 4179 
L 3098 2502 
L 4269 2502 
L 4269 2080 
L 2880 2061 
z
M 474 3782 
L 474 1555 
L 1382 1555 
L 1382 1030 
L 243 1030 
L 243 608 
L 1382 608 
L 1382 -518 
L 1818 -518 
L 1818 608 
L 2906 608 
L 2906 941 
L 4922 941 
L 4922 -32 
C 4922 -102 4896 -128 4806 -134 
C 4723 -141 4429 -141 4109 -128 
C 4166 -243 4230 -403 4250 -525 
C 4678 -525 4954 -525 5139 -454 
C 5325 -397 5363 -282 5363 -45 
L 5363 941 
L 6150 941 
L 6150 1318 
L 5363 1318 
L 5363 1664 
L 4922 1664 
L 4922 1318 
L 2874 1318 
L 2874 1030 
L 1818 1030 
L 1818 1555 
L 2746 1555 
L 2746 3782 
L 1818 3782 
L 1818 4256 
L 2816 4256 
L 2816 4678 
L 1818 4678 
L 1818 5376 
L 1382 5376 
L 1382 4678 
L 333 4678 
L 333 4256 
L 1382 4256 
L 1382 3782 
L 474 3782 
z
M 3494 3200 
L 4269 3200 
L 4269 2803 
L 3494 2803 
L 3494 3200 
z
M 4691 3200 
L 5510 3200 
L 5510 2803 
L 4691 2803 
L 4691 3200 
z
M 3494 3878 
L 4269 3878 
L 4269 3488 
L 3494 3488 
L 3494 3878 
z
M 4691 3878 
L 5510 3878 
L 5510 3488 
L 4691 3488 
L 4691 3878 
z
M 5094 2381 
C 5184 2298 5280 2202 5376 2106 
L 4691 2086 
L 4691 2502 
L 5331 2502 
L 5094 2381 
z
M 838 2502 
L 1427 2502 
L 1427 1914 
L 838 1914 
L 838 2502 
z
M 1773 2502 
L 2374 2502 
L 2374 1914 
L 1773 1914 
L 1773 2502 
z
M 838 3424 
L 1427 3424 
L 1427 2848 
L 838 2848 
L 838 3424 
z
M 1773 3424 
L 2374 3424 
L 2374 2848 
L 1773 2848 
L 1773 3424 
z
" transform="scale(0.015625)"/>
      <path id="NotoSansCJKjp-Regular-9d2b" d="M 365 4941 
C 762 4646 1210 4198 1402 3885 
L 1779 4192 
C 1581 4506 1120 4934 723 5222 
L 365 4941 
z
M 1594 2848 
L 314 2848 
L 314 2400 
L 1126 2400 
L 1126 768 
C 826 499 493 230 211 32 
L 467 -461 
C 794 -173 1094 102 1389 378 
C 1805 -134 2394 -358 3258 -390 
C 3968 -416 5299 -403 6010 -371 
C 6029 -224 6106 6 6163 115 
C 5402 64 3955 45 3258 77 
C 2490 102 1907 320 1594 794 
L 1594 2848 
z
M 2528 5184 
C 2739 4915 2950 4557 3046 4294 
L 1958 4294 
L 1958 3853 
L 3750 3853 
L 3750 2240 
L 3744 2042 
L 2771 2042 
L 2771 3462 
L 2336 3462 
L 2336 1587 
L 3686 1587 
C 3578 1139 3302 723 2611 506 
C 2707 416 2842 250 2893 141 
C 3725 448 4051 998 4160 1587 
L 5696 1587 
L 5696 3462 
L 5248 3462 
L 5248 2042 
L 4211 2042 
L 4218 2240 
L 4218 3853 
L 6048 3853 
L 6048 4294 
L 4858 4294 
C 5056 4538 5286 4902 5485 5242 
L 4986 5376 
C 4864 5094 4627 4672 4448 4416 
L 4832 4294 
L 3162 4294 
L 3475 4435 
C 3392 4698 3155 5082 2925 5350 
L 2528 5184 
z
" transform="scale(0.015625)"/>
      <path id="NotoSansCJKjp-Regular-4f87" d="M 2848 1338 
C 3174 998 3520 525 3661 211 
L 4070 461 
C 3923 781 3558 1235 3232 1562 
L 2848 1338 
z
M 4038 5382 
L 4038 4614 
L 2694 4614 
L 2694 4186 
L 4038 4186 
L 4038 3373 
L 2426 3373 
L 2426 2938 
L 4883 2938 
L 4883 2214 
L 2458 2214 
L 2458 1786 
L 4883 1786 
L 4883 64 
C 4883 -32 4851 -58 4749 -58 
C 4646 -64 4282 -64 3891 -51 
C 3962 -186 4032 -378 4051 -506 
C 4570 -506 4890 -499 5094 -422 
C 5293 -352 5357 -218 5357 58 
L 5357 1786 
L 6106 1786 
L 6106 2214 
L 5357 2214 
L 5357 2938 
L 6170 2938 
L 6170 3373 
L 4512 3373 
L 4512 4186 
L 5901 4186 
L 5901 4614 
L 4512 4614 
L 4512 5382 
L 4038 5382 
z
M 1862 2662 
L 1862 1184 
L 934 1184 
L 934 2662 
L 1862 2662 
z
M 1862 3098 
L 934 3098 
L 934 4518 
L 1862 4518 
L 1862 3098 
z
M 486 4960 
L 486 224 
L 934 224 
L 934 749 
L 2317 749 
L 2317 4960 
L 486 4960 
z
" transform="scale(0.015625)"/>
      <path id="NotoSansCJKjp-Regular-a120" d="M 544 1798 
C 666 1414 781 928 806 602 
L 1184 704 
C 1146 1024 1030 1510 902 1888 
L 544 1798 
z
M 2547 1946 
C 2477 1606 2330 1107 2214 794 
L 2560 698 
C 2682 992 2829 1446 2950 1837 
L 2547 1946 
z
M 4378 5318 
L 4378 3232 
L 3040 3232 
L 3040 2758 
L 4378 2758 
L 4378 -506 
L 4864 -506 
L 4864 2758 
L 6163 2758 
L 6163 3232 
L 4864 3232 
L 4864 5318 
L 4378 5318 
z
M 1485 5376 
C 1242 4832 781 4160 141 3654 
C 243 3590 384 3437 454 3334 
C 563 3424 659 3514 755 3603 
L 755 3347 
L 1517 3347 
L 1517 2669 
L 390 2669 
L 390 2240 
L 1517 2240 
L 1517 320 
L 294 109 
L 410 -339 
C 1126 -205 2150 -19 3091 166 
L 3072 602 
L 1965 397 
L 1965 2240 
L 3066 2240 
L 3066 2669 
L 1965 2669 
L 1965 3347 
L 2746 3347 
L 2746 3763 
L 915 3763 
C 1286 4160 1568 4576 1779 4928 
C 2182 4582 2637 4077 2867 3750 
L 3206 4122 
C 2931 4480 2387 5005 1939 5376 
L 1485 5376 
z
" transform="scale(0.015625)"/>
      <path id="NotoSansCJKjp-Regular-15" d="M 2176 0 
L 2726 0 
L 2726 1293 
L 3354 1293 
L 3354 1760 
L 2726 1760 
L 2726 4691 
L 2080 4691 
L 128 1677 
L 128 1293 
L 2176 1293 
L 2176 0 
z
M 2176 1760 
L 736 1760 
L 1805 3360 
C 1939 3590 2067 3827 2182 4051 
L 2208 4051 
C 2195 3814 2176 3430 2176 3200 
L 2176 1760 
z
" transform="scale(0.015625)"/>
      <path id="NotoSansCJKjp-Regular-6e" d="M 1190 3072 
C 1664 3072 2080 3430 2080 3981 
C 2080 4538 1664 4896 1190 4896 
C 710 4896 288 4538 288 3981 
C 288 3430 710 3072 1190 3072 
z
M 1190 3398 
C 870 3398 646 3642 646 3981 
C 646 4326 870 4576 1190 4576 
C 1504 4576 1728 4326 1728 3981 
C 1728 3642 1504 3398 1190 3398 
z
" transform="scale(0.015625)"/>
     </defs>
     <use xlink:href="#NotoSansCJKjp-Regular-4ec3"/>
     <use xlink:href="#NotoSansCJKjp-Regular-9bba" transform="translate(100 0)"/>
     <use xlink:href="#NotoSansCJKjp-Regular-e6ae" transform="translate(200 0)"/>
     <use xlink:href="#NotoSansCJKjp-Regular-9d2b" transform="translate(300 0)"/>
     <use xlink:href="#NotoSansCJKjp-Regular-4f87" transform="translate(400 0)"/>
     <use xlink:href="#NotoSansCJKjp-Regular-a120" transform="translate(500 0)"/>
     <use xlink:href="#NotoSansCJKjp-Regular-1" transform="translate(600 0)"/>
     <use xlink:href="#NotoSansCJKjp-Regular-15" transform="translate(622.40625 0)"/>
     <use xlink:href="#NotoSansCJKjp-Regular-11" transform="translate(677.90625 0)"/>
     <use xlink:href="#NotoSansCJKjp-Regular-6e" transform="translate(733.40625 0)"/>
     <use xlink:href="#NotoSansCJKjp-Regular-e6af" transform="translate(770.40625 0)"/>
    </g>
    <!-- [[cos θ, −sin θ], [sin θ, cos θ]] -->
    <g style="fill: #222831" transform="translate(589.684063 29.76) scale(0.12 -0.12)">
     <defs>
      <path id="NotoSansCJKjp-Regular-44" d="M 1958 -83 
C 2374 -83 2771 83 3085 352 
L 2829 749 
C 2611 557 2330 403 2010 403 
C 1370 403 934 934 934 1734 
C 934 2534 1395 3072 2029 3072 
C 2298 3072 2522 2950 2720 2771 
L 3014 3155 
C 2771 3373 2458 3565 2003 3565 
C 1107 3565 333 2893 333 1734 
C 333 582 1037 -83 1958 -83 
z
" transform="scale(0.015625)"/>
      <path id="NotoSansCJKjp-Regular-50" d="M 1939 -83 
C 2790 -83 3546 582 3546 1734 
C 3546 2893 2790 3565 1939 3565 
C 1088 3565 333 2893 333 1734 
C 333 582 1088 -83 1939 -83 
z
M 1939 403 
C 1338 403 934 934 934 1734 
C 934 2534 1338 3072 1939 3072 
C 2541 3072 2950 2534 2950 1734 
C 2950 934 2541 403 1939 403 
z
" transform="scale(0.015625)"/>
      <path id="NotoSansCJKjp-Regular-120" d="M 1869 -83 
C 2758 -83 3309 736 3309 2566 
C 3309 4269 2758 5178 1869 5178 
C 973 5178 429 4269 429 2566 
C 429 736 973 -83 1869 -83 
z
M 1869 403 
C 1389 403 1030 896 998 2368 
L 2733 2368 
C 2701 896 2349 403 1869 403 
z
M 998 2784 
C 1037 4141 1395 4698 1869 4698 
C 2342 4698 2694 4141 2733 2784 
L 998 2784 
z
" transform="scale(0.015625)"/>
      <path id="NotoSansCJKjp-Regular-33f" d="M 243 2144 
L 3315 2144 
L 3315 2579 
L 243 2579 
L 243 2144 
z
" transform="scale(0.015625)"/>
      <path id="NotoSansCJKjp-Regular-4a" d="M 589 0 
L 1178 0 
L 1178 3475 
L 589 3475 
L 589 0 
z
M 883 4192 
C 1114 4192 1274 4346 1274 4582 
C 1274 4806 1114 4960 883 4960 
C 653 4960 499 4806 499 4582 
C 499 4346 653 4192 883 4192 
z
" transform="scale(0.015625)"/>
      <path id="NotoSansCJKjp-Regular-4f" d="M 589 0 
L 1178 0 
L 1178 2522 
C 1523 2874 1766 3053 2125 3053 
C 2586 3053 2784 2778 2784 2125 
L 2784 0 
L 3366 0 
L 3366 2202 
C 3366 3085 3034 3565 2304 3565 
C 1830 3565 1466 3302 1139 2970 
L 1126 2970 
L 1069 3475 
L 589 3475 
L 589 0 
z
" transform="scale(0.015625)"/>
     </defs>
     <use xlink:href="#NotoSansCJKjp-Regular-3c"/>
     <use xlink:href="#NotoSansCJKjp-Regular-3c" transform="translate(33.796875 0)"/>
     <use xlink:href="#NotoSansCJKjp-Regular-44" transform="translate(67.59375 0)"/>
     <use xlink:href="#NotoSansCJKjp-Regular-50" transform="translate(116.1875 0)"/>
     <use xlink:href="#NotoSansCJKjp-Regular-54" transform="translate(176.78125 0)"/>
     <use xlink:href="#NotoSansCJKjp-Regular-1" transform="translate(223.578125 0)"/>
     <use xlink:href="#NotoSansCJKjp-Regular-120" transform="translate(245.984375 0)"/>
     <use xlink:href="#NotoSansCJKjp-Regular-d" transform="translate(304.28125 0)"/>
     <use xlink:href="#NotoSansCJKjp-Regular-1" transform="translate(332.078125 0)"/>
     <use xlink:href="#NotoSansCJKjp-Regular-33f" transform="translate(354.484375 0)"/>
     <use xlink:href="#NotoSansCJKjp-Regular-54" transform="translate(409.984375 0)"/>
     <use xlink:href="#NotoSansCJKjp-Regular-4a" transform="translate(456.78125 0)"/>
     <use xlink:href="#NotoSansCJKjp-Regular-4f" transform="translate(484.28125 0)"/>
     <use xlink:href="#NotoSansCJKjp-Regular-1" transform="translate(545.28125 0)"/>
     <use xlink:href="#NotoSansCJKjp-Regular-120" transform="translate(567.6875 0)"/>
     <use xlink:href="#NotoSansCJKjp-Regular-3e" transform="translate(625.984375 0)"/>
     <use xlink:href="#NotoSansCJKjp-Regular-d" transform="translate(659.78125 0)"/>
     <use xlink:href="#NotoSansCJKjp-Regular-1" transform="translate(687.578125 0)"/>
     <use xlink:href="#NotoSansCJKjp-Regular-3c" transform="translate(709.984375 0)"/>
     <use xlink:href="#NotoSansCJKjp-Regular-54" transform="translate(743.78125 0)"/>
     <use xlink:href="#NotoSansCJKjp-Regular-4a" transform="translate(790.578125 0)"/>
     <use xlink:href="#NotoSansCJKjp-Regular-4f" transform="translate(818.078125 0)"/>
     <use xlink:href="#NotoSansCJKjp-Regular-1" transform="translate(879.078125 0)"/>
     <use xlink:href="#NotoSansCJKjp-Regular-120" transform="translate(901.484375 0)"/>
     <use xlink:href="#NotoSansCJKjp-Regular-d" transform="translate(959.78125 0)"/>
     <use xlink:href="#NotoSansCJKjp-Regular-1" transform="translate(987.578125 0)"/>
     <use xlink:href="#NotoSansCJKjp-Regular-44" transform="translate(1009.984375 0)"/>
     <use xlink:href="#NotoSansCJKjp-Regular-50" transform="translate(1058.578125 0)"/>
     <use xlink:href="#NotoSansCJKjp-Regular-54" transform="translate(1119.171875 0)"/>
     <use xlink:href="#NotoSansCJKjp-Regular-1" transform="translate(1165.96875 0)"/>
     <use xlink:href="#NotoSansCJKjp-Regular-120" transform="translate(1188.375 0)"/>
     <use xlink:href="#NotoSansCJKjp-Regular-3e" transform="translate(1246.671875 0)"/>
     <use xlink:href="#NotoSansCJKjp-Regular-3e" transform="translate(1280.46875 0)"/>
    </g>
   </g>
   <g id="patch_21">
    <path d="M 645.66 152.16 
Q 667.568871 133.776274 687.422229 117.117329 
" clip-path="url(#p16245ea5f5)" style="fill: none; stroke: #d1242f; stroke-width: 2.4; stroke-linecap: round"/>
    <path d="M 679.592674 118.98764 
L 687.422229 117.117329 
L 684.220745 124.50316 
z
" clip-path="url(#p16245ea5f5)" style="fill: #d1242f; stroke: #d1242f; stroke-width: 2.4; stroke-linecap: round"/>
   </g>
   <g id="patch_22">
    <path d="M 645.66 152.16 
Q 627.276274 130.251129 610.617329 110.397771 
" clip-path="url(#p16245ea5f5)" style="fill: none; stroke: #d1242f; stroke-width: 2.4; stroke-linecap: round"/>
    <path d="M 612.48764 118.227326 
L 610.617329 110.397771 
L 618.00316 113.599255 
z
" clip-path="url(#p16245ea5f5)" style="fill: #d1242f; stroke: #d1242f; stroke-width: 2.4; stroke-linecap: round"/>
   </g>
  </g>
  <g id="axes_4">
   <g id="patch_23">
    <path d="M 813.7 243.68 
L 1042.5 243.68 
L 1042.5 37.76 
L 813.7 37.76 
z
" style="fill: #ffffff"/>
   </g>
   <g id="line2d_79">
    <path d="M 813.7 152.16 
L 1042.5 152.16 
" clip-path="url(#p98ea2c5b90)" style="fill: none; stroke: #d8dde3; stroke-linecap: square"/>
   </g>
   <g id="line2d_80">
    <path d="M 905.22 243.68 
L 905.22 37.76 
" clip-path="url(#p98ea2c5b90)" style="fill: none; stroke: #d8dde3; stroke-linecap: square"/>
   </g>
   <g id="matplotlib.axis_7">
    <g id="xtick_13">
     <g id="line2d_81">
      <path d="M 848.02 243.68 
L 848.02 37.76 
" clip-path="url(#p98ea2c5b90)" style="fill: none; stroke: #d8dde3; stroke-width: 0.9; stroke-linecap: square"/>
     </g>
     <g id="line2d_82">
      <g>
       <use xlink:href="#m201ed94bc7" x="848.02" y="243.68" style="fill: #222831; stroke: #222831; stroke-width: 0.8"/>
      </g>
     </g>
     <g id="text_41">
      <!-- -1 -->
      <g style="fill: #222831" transform="translate(842.607813 261.24) scale(0.12 -0.12)">
       <use xlink:href="#NotoSansCJKjp-Regular-e"/>
       <use xlink:href="#NotoSansCJKjp-Regular-12" transform="translate(34.703125 0)"/>
      </g>
     </g>
    </g>
    <g id="xtick_14">
     <g id="line2d_83">
      <path d="M 905.22 243.68 
L 905.22 37.76 
" clip-path="url(#p98ea2c5b90)" style="fill: none; stroke: #d8dde3; stroke-width: 0.9; stroke-linecap: square"/>
     </g>
     <g id="line2d_84">
      <g>
       <use xlink:href="#m201ed94bc7" x="905.22" y="243.68" style="fill: #222831; stroke: #222831; stroke-width: 0.8"/>
      </g>
     </g>
     <g id="text_42">
      <!-- 0 -->
      <g style="fill: #222831" transform="translate(901.89 261.24) scale(0.12 -0.12)">
       <use xlink:href="#NotoSansCJKjp-Regular-11"/>
      </g>
     </g>
    </g>
    <g id="xtick_15">
     <g id="line2d_85">
      <path d="M 962.42 243.68 
L 962.42 37.76 
" clip-path="url(#p98ea2c5b90)" style="fill: none; stroke: #d8dde3; stroke-width: 0.9; stroke-linecap: square"/>
     </g>
     <g id="line2d_86">
      <g>
       <use xlink:href="#m201ed94bc7" x="962.42" y="243.68" style="fill: #222831; stroke: #222831; stroke-width: 0.8"/>
      </g>
     </g>
     <g id="text_43">
      <!-- 1 -->
      <g style="fill: #222831" transform="translate(959.09 261.24) scale(0.12 -0.12)">
       <use xlink:href="#NotoSansCJKjp-Regular-12"/>
      </g>
     </g>
    </g>
    <g id="xtick_16">
     <g id="line2d_87">
      <path d="M 1019.62 243.68 
L 1019.62 37.76 
" clip-path="url(#p98ea2c5b90)" style="fill: none; stroke: #d8dde3; stroke-width: 0.9; stroke-linecap: square"/>
     </g>
     <g id="line2d_88">
      <g>
       <use xlink:href="#m201ed94bc7" x="1019.62" y="243.68" style="fill: #222831; stroke: #222831; stroke-width: 0.8"/>
      </g>
     </g>
     <g id="text_44">
      <!-- 2 -->
      <g style="fill: #222831" transform="translate(1016.29 261.24) scale(0.12 -0.12)">
       <use xlink:href="#NotoSansCJKjp-Regular-13"/>
      </g>
     </g>
    </g>
   </g>
   <g id="matplotlib.axis_8">
    <g id="ytick_25">
     <g id="line2d_89">
      <path d="M 813.7 237.96 
L 1042.5 237.96 
" clip-path="url(#p98ea2c5b90)" style="fill: none; stroke: #d8dde3; stroke-width: 0.9; stroke-linecap: square"/>
     </g>
     <g id="line2d_90">
      <g>
       <use xlink:href="#m8f0d69d5af" x="813.7" y="237.96" style="fill: #222831; stroke: #222831; stroke-width: 0.8"/>
      </g>
     </g>
     <g id="text_45">
      <!-- -1.5 -->
      <g style="fill: #222831" transform="translate(785.88 243.24) scale(0.12 -0.12)">
       <use xlink:href="#NotoSansCJKjp-Regular-e"/>
       <use xlink:href="#NotoSansCJKjp-Regular-12" transform="translate(34.703125 0)"/>
       <use xlink:href="#NotoSansCJKjp-Regular-f" transform="translate(90.203125 0)"/>
       <use xlink:href="#NotoSansCJKjp-Regular-16" transform="translate(118 0)"/>
      </g>
     </g>
    </g>
    <g id="ytick_26">
     <g id="line2d_91">
      <path d="M 813.7 209.36 
L 1042.5 209.36 
" clip-path="url(#p98ea2c5b90)" style="fill: none; stroke: #d8dde3; stroke-width: 0.9; stroke-linecap: square"/>
     </g>
     <g id="line2d_92">
      <g>
       <use xlink:href="#m8f0d69d5af" x="813.7" y="209.36" style="fill: #222831; stroke: #222831; stroke-width: 0.8"/>
      </g>
     </g>
     <g id="text_46">
      <!-- -1.0 -->
      <g style="fill: #222831" transform="translate(785.88 214.64) scale(0.12 -0.12)">
       <use xlink:href="#NotoSansCJKjp-Regular-e"/>
       <use xlink:href="#NotoSansCJKjp-Regular-12" transform="translate(34.703125 0)"/>
       <use xlink:href="#NotoSansCJKjp-Regular-f" transform="translate(90.203125 0)"/>
       <use xlink:href="#NotoSansCJKjp-Regular-11" transform="translate(118 0)"/>
      </g>
     </g>
    </g>
    <g id="ytick_27">
     <g id="line2d_93">
      <path d="M 813.7 180.76 
L 1042.5 180.76 
" clip-path="url(#p98ea2c5b90)" style="fill: none; stroke: #d8dde3; stroke-width: 0.9; stroke-linecap: square"/>
     </g>
     <g id="line2d_94">
      <g>
       <use xlink:href="#m8f0d69d5af" x="813.7" y="180.76" style="fill: #222831; stroke: #222831; stroke-width: 0.8"/>
      </g>
     </g>
     <g id="text_47">
      <!-- -0.5 -->
      <g style="fill: #222831" transform="translate(785.88 186.04) scale(0.12 -0.12)">
       <use xlink:href="#NotoSansCJKjp-Regular-e"/>
       <use xlink:href="#NotoSansCJKjp-Regular-11" transform="translate(34.703125 0)"/>
       <use xlink:href="#NotoSansCJKjp-Regular-f" transform="translate(90.203125 0)"/>
       <use xlink:href="#NotoSansCJKjp-Regular-16" transform="translate(118 0)"/>
      </g>
     </g>
    </g>
    <g id="ytick_28">
     <g id="line2d_95">
      <path d="M 813.7 152.16 
L 1042.5 152.16 
" clip-path="url(#p98ea2c5b90)" style="fill: none; stroke: #d8dde3; stroke-width: 0.9; stroke-linecap: square"/>
     </g>
     <g id="line2d_96">
      <g>
       <use xlink:href="#m8f0d69d5af" x="813.7" y="152.16" style="fill: #222831; stroke: #222831; stroke-width: 0.8"/>
      </g>
     </g>
     <g id="text_48">
      <!-- 0.0 -->
      <g style="fill: #222831" transform="translate(790.044375 157.44) scale(0.12 -0.12)">
       <use xlink:href="#NotoSansCJKjp-Regular-11"/>
       <use xlink:href="#NotoSansCJKjp-Regular-f" transform="translate(55.5 0)"/>
       <use xlink:href="#NotoSansCJKjp-Regular-11" transform="translate(83.296875 0)"/>
      </g>
     </g>
    </g>
    <g id="ytick_29">
     <g id="line2d_97">
      <path d="M 813.7 123.56 
L 1042.5 123.56 
" clip-path="url(#p98ea2c5b90)" style="fill: none; stroke: #d8dde3; stroke-width: 0.9; stroke-linecap: square"/>
     </g>
     <g id="line2d_98">
      <g>
       <use xlink:href="#m8f0d69d5af" x="813.7" y="123.56" style="fill: #222831; stroke: #222831; stroke-width: 0.8"/>
      </g>
     </g>
     <g id="text_49">
      <!-- 0.5 -->
      <g style="fill: #222831" transform="translate(790.044375 128.84) scale(0.12 -0.12)">
       <use xlink:href="#NotoSansCJKjp-Regular-11"/>
       <use xlink:href="#NotoSansCJKjp-Regular-f" transform="translate(55.5 0)"/>
       <use xlink:href="#NotoSansCJKjp-Regular-16" transform="translate(83.296875 0)"/>
      </g>
     </g>
    </g>
    <g id="ytick_30">
     <g id="line2d_99">
      <path d="M 813.7 94.96 
L 1042.5 94.96 
" clip-path="url(#p98ea2c5b90)" style="fill: none; stroke: #d8dde3; stroke-width: 0.9; stroke-linecap: square"/>
     </g>
     <g id="line2d_100">
      <g>
       <use xlink:href="#m8f0d69d5af" x="813.7" y="94.96" style="fill: #222831; stroke: #222831; stroke-width: 0.8"/>
      </g>
     </g>
     <g id="text_50">
      <!-- 1.0 -->
      <g style="fill: #222831" transform="translate(790.044375 100.24) scale(0.12 -0.12)">
       <use xlink:href="#NotoSansCJKjp-Regular-12"/>
       <use xlink:href="#NotoSansCJKjp-Regular-f" transform="translate(55.5 0)"/>
       <use xlink:href="#NotoSansCJKjp-Regular-11" transform="translate(83.296875 0)"/>
      </g>
     </g>
    </g>
    <g id="ytick_31">
     <g id="line2d_101">
      <path d="M 813.7 66.36 
L 1042.5 66.36 
" clip-path="url(#p98ea2c5b90)" style="fill: none; stroke: #d8dde3; stroke-width: 0.9; stroke-linecap: square"/>
     </g>
     <g id="line2d_102">
      <g>
       <use xlink:href="#m8f0d69d5af" x="813.7" y="66.36" style="fill: #222831; stroke: #222831; stroke-width: 0.8"/>
      </g>
     </g>
     <g id="text_51">
      <!-- 1.5 -->
      <g style="fill: #222831" transform="translate(790.044375 71.64) scale(0.12 -0.12)">
       <use xlink:href="#NotoSansCJKjp-Regular-12"/>
       <use xlink:href="#NotoSansCJKjp-Regular-f" transform="translate(55.5 0)"/>
       <use xlink:href="#NotoSansCJKjp-Regular-16" transform="translate(83.296875 0)"/>
      </g>
     </g>
    </g>
    <g id="ytick_32">
     <g id="line2d_103">
      <path d="M 813.7 37.76 
L 1042.5 37.76 
" clip-path="url(#p98ea2c5b90)" style="fill: none; stroke: #d8dde3; stroke-width: 0.9; stroke-linecap: square"/>
     </g>
     <g id="line2d_104">
      <g>
       <use xlink:href="#m8f0d69d5af" x="813.7" y="37.76" style="fill: #222831; stroke: #222831; stroke-width: 0.8"/>
      </g>
     </g>
     <g id="text_52">
      <!-- 2.0 -->
      <g style="fill: #222831" transform="translate(790.044375 43.04) scale(0.12 -0.12)">
       <use xlink:href="#NotoSansCJKjp-Regular-13"/>
       <use xlink:href="#NotoSansCJKjp-Regular-f" transform="translate(55.5 0)"/>
       <use xlink:href="#NotoSansCJKjp-Regular-11" transform="translate(83.296875 0)"/>
      </g>
     </g>
    </g>
   </g>
   <g id="patch_24">
    <path d="M 905.22 152.16 
L 962.42 152.16 
L 962.42 94.96 
L 905.22 94.96 
z
" clip-path="url(#p98ea2c5b90)" style="fill: #1f6feb; opacity: 0.16; stroke-dasharray: 5.92,2.56; stroke-dashoffset: 0; stroke: #1f6feb; stroke-width: 1.6; stroke-linejoin: miter"/>
   </g>
   <g id="patch_25">
    <path d="M 813.7 243.68 
L 813.7 37.76 
" style="fill: none; stroke: #222831; stroke-width: 1.1; stroke-linejoin: miter; stroke-linecap: square"/>
   </g>
   <g id="patch_26">
    <path d="M 813.7 243.68 
L 1042.5 243.68 
" style="fill: none; stroke: #222831; stroke-width: 1.1; stroke-linejoin: miter; stroke-linecap: square"/>
   </g>
   <g id="patch_27">
    <path d="M 905.22 152.16 
L 962.42 152.16 
L 962.42 209.36 
L 905.22 209.36 
z
" clip-path="url(#p98ea2c5b90)" style="fill: #d1242f; opacity: 0.26; stroke: #d1242f; stroke-width: 2.2; stroke-linejoin: miter"/>
   </g>
   <g id="text_53">
    <!-- 鏡射（對 x 軸） -->
    <g style="fill: #222831" transform="translate(886.423438 17.76) scale(0.12 -0.12)">
     <defs>
      <path id="NotoSansCJKjp-Regular-a515" d="M 3411 1997 
L 5402 1997 
L 5402 1542 
L 3411 1542 
L 3411 1997 
z
M 3411 2758 
L 5402 2758 
L 5402 2310 
L 3411 2310 
L 3411 2758 
z
M 493 1856 
C 621 1466 717 966 730 634 
L 1088 723 
C 1062 1050 960 1542 826 1933 
L 493 1856 
z
M 2272 1990 
C 2221 1651 2099 1146 2003 838 
L 2317 742 
C 2426 1043 2541 1504 2650 1894 
L 2272 1990 
z
M 3341 4493 
C 3437 4288 3526 4026 3565 3834 
L 2637 3834 
L 2637 3437 
L 6138 3437 
L 6138 3834 
L 5146 3834 
C 5248 4019 5370 4275 5478 4512 
L 5299 4550 
L 6016 4550 
L 6016 4934 
L 4614 4934 
L 4614 5382 
L 4141 5382 
L 4141 4934 
L 2822 4934 
L 2822 4550 
L 3597 4550 
L 3341 4493 
z
M 3750 4550 
L 5018 4550 
C 4954 4346 4838 4064 4742 3872 
L 4902 3834 
L 3782 3834 
L 3994 3885 
C 3949 4070 3853 4339 3750 4550 
z
M 2995 3091 
L 2995 1210 
L 3597 1210 
C 3514 480 3238 70 2246 -160 
C 2342 -243 2464 -416 2509 -531 
C 3622 -230 3955 301 4058 1210 
L 4614 1210 
L 4614 160 
C 4614 -186 4653 -288 4762 -371 
C 4858 -448 5024 -480 5158 -480 
C 5242 -480 5459 -480 5549 -480 
C 5664 -480 5818 -467 5901 -435 
C 6003 -390 6080 -326 6118 -218 
C 6163 -115 6182 154 6195 410 
C 6067 454 5894 538 5805 614 
C 5798 352 5798 154 5779 64 
C 5760 -13 5728 -64 5690 -77 
C 5651 -96 5574 -102 5510 -102 
C 5434 -102 5312 -102 5254 -102 
C 5190 -102 5139 -96 5107 -77 
C 5075 -51 5069 6 5069 115 
L 5069 1210 
L 5837 1210 
L 5837 3091 
L 2995 3091 
z
M 1331 5376 
C 1120 4864 704 4211 128 3725 
C 218 3661 358 3514 429 3418 
C 518 3501 608 3584 691 3667 
L 691 3379 
L 1350 3379 
L 1350 2694 
L 352 2694 
L 352 2272 
L 1350 2272 
L 1350 326 
L 288 128 
L 390 -314 
C 1050 -179 1939 13 2778 205 
L 2746 608 
L 1779 410 
L 1779 2272 
L 2701 2272 
L 2701 2694 
L 1779 2694 
L 1779 3379 
L 2496 3379 
L 2496 3789 
L 806 3789 
C 1158 4179 1427 4589 1619 4934 
C 1965 4614 2342 4160 2541 3872 
L 2867 4237 
C 2630 4557 2150 5037 1766 5376 
L 1331 5376 
z
" transform="scale(0.015625)"/>
      <path id="NotoSansCJKjp-Regular-3d63" d="M 3494 2528 
C 3776 2061 4038 1440 4122 1050 
L 4563 1229 
C 4474 1626 4192 2227 3898 2688 
L 3494 2528 
z
M 1222 3366 
L 2496 3366 
L 2496 2816 
L 1222 2816 
L 1222 3366 
z
M 1222 3731 
L 1222 4275 
L 2496 4275 
L 2496 3731 
L 1222 3731 
z
M 1222 2451 
L 2496 2451 
L 2496 2189 
L 2349 1984 
L 1222 1843 
L 1222 2451 
z
M 250 1728 
L 320 1293 
C 787 1357 1363 1440 1958 1530 
C 1440 986 813 531 147 205 
C 243 122 410 -58 474 -154 
C 1216 250 1920 806 2496 1485 
L 2496 51 
C 2496 -45 2464 -70 2368 -77 
C 2272 -83 1971 -90 1638 -77 
C 1702 -192 1773 -390 1792 -512 
C 2246 -512 2534 -506 2714 -429 
C 2880 -352 2944 -218 2944 45 
L 2944 2074 
C 3053 2234 3155 2406 3251 2579 
L 2944 2682 
L 2944 4659 
L 1914 4659 
C 2010 4851 2106 5082 2195 5299 
L 1651 5382 
C 1606 5171 1510 4883 1421 4659 
L 787 4659 
L 787 1792 
L 250 1728 
z
M 4973 5344 
L 4973 3802 
L 3187 3802 
L 3187 3354 
L 4973 3354 
L 4973 102 
C 4973 -13 4928 -45 4813 -51 
C 4710 -51 4352 -58 3949 -45 
C 4019 -173 4102 -384 4128 -506 
C 4666 -512 4979 -499 5178 -416 
C 5370 -339 5446 -198 5446 102 
L 5446 3354 
L 6144 3354 
L 6144 3802 
L 5446 3802 
L 5446 5344 
L 4973 5344 
z
" transform="scale(0.015625)"/>
      <path id="NotoSansCJKjp-Regular-3d73" d="M 3693 2554 
C 3955 2086 4192 1472 4256 1082 
L 4691 1242 
C 4627 1632 4371 2234 4102 2694 
L 3693 2554 
z
M 339 5037 
C 531 4730 717 4320 781 4058 
L 1152 4230 
C 1088 4493 890 4890 685 5190 
L 339 5037 
z
M 3168 5222 
C 3053 4922 2829 4467 2662 4192 
L 2989 4045 
C 3174 4307 3398 4710 3590 5056 
L 3168 5222 
z
M 294 224 
L 358 -230 
C 1184 -122 2387 45 3514 205 
L 3501 627 
L 2138 448 
L 2138 1152 
L 3194 1152 
L 3194 1555 
L 2138 1555 
L 2138 2208 
L 3328 2208 
L 3328 2618 
L 2643 2618 
C 2778 2842 2925 3181 3066 3482 
L 2637 3603 
L 3494 3603 
L 3494 3206 
L 5005 3206 
L 5005 83 
C 5005 -32 4960 -64 4845 -70 
C 4749 -70 4397 -77 4006 -64 
C 4077 -192 4154 -397 4179 -518 
C 4704 -518 5011 -506 5203 -429 
C 5389 -352 5466 -218 5466 83 
L 5466 3206 
L 6150 3206 
L 6150 3654 
L 5466 3654 
L 5466 5338 
L 5005 5338 
L 5005 3654 
L 3558 3654 
L 3558 4013 
L 2554 4013 
L 2554 5344 
L 2157 5344 
L 2157 4013 
L 1670 4013 
L 1670 5344 
L 1274 5344 
L 1274 4013 
L 269 4013 
L 269 3603 
L 2618 3603 
C 2547 3334 2381 2957 2259 2714 
L 2592 2618 
L 1184 2618 
L 1542 2746 
C 1498 2976 1350 3328 1184 3597 
L 800 3469 
C 954 3200 1088 2848 1126 2618 
L 506 2618 
L 506 2208 
L 1690 2208 
L 1690 1555 
L 672 1555 
L 672 1152 
L 1690 1152 
L 1690 390 
L 294 224 
z
" transform="scale(0.015625)"/>
      <path id="NotoSansCJKjp-Regular-9b28" d="M 3597 1773 
L 4326 1773 
L 4326 282 
L 3597 282 
L 3597 1773 
z
M 3597 2202 
L 3597 3578 
L 4326 3578 
L 4326 2202 
L 3597 2202 
z
M 5530 1773 
L 5530 282 
L 4749 282 
L 4749 1773 
L 5530 1773 
z
M 5530 2202 
L 4749 2202 
L 4749 3578 
L 5530 3578 
L 5530 2202 
z
M 4314 5376 
L 4314 4013 
L 3174 4013 
L 3174 -512 
L 3597 -512 
L 3597 -154 
L 5530 -154 
L 5530 -474 
L 5965 -474 
L 5965 4013 
L 4762 4013 
L 4762 5376 
L 4314 5376 
z
M 493 3782 
L 493 1555 
L 1434 1555 
L 1434 1030 
L 250 1030 
L 250 608 
L 1434 608 
L 1434 -518 
L 1869 -518 
L 1869 608 
L 3046 608 
L 3046 1030 
L 1869 1030 
L 1869 1555 
L 2848 1555 
L 2848 3782 
L 1869 3782 
L 1869 4256 
L 2970 4256 
L 2970 4678 
L 1869 4678 
L 1869 5376 
L 1434 5376 
L 1434 4678 
L 320 4678 
L 320 4256 
L 1434 4256 
L 1434 3782 
L 493 3782 
z
M 864 2502 
L 1478 2502 
L 1478 1914 
L 864 1914 
L 864 2502 
z
M 1830 2502 
L 2470 2502 
L 2470 1914 
L 1830 1914 
L 1830 2502 
z
M 864 3424 
L 1478 3424 
L 1478 2848 
L 864 2848 
L 864 3424 
z
M 1830 3424 
L 2470 3424 
L 2470 2848 
L 1830 2848 
L 1830 3424 
z
" transform="scale(0.015625)"/>
     </defs>
     <use xlink:href="#NotoSansCJKjp-Regular-a515"/>
     <use xlink:href="#NotoSansCJKjp-Regular-3d63" transform="translate(100 0)"/>
     <use xlink:href="#NotoSansCJKjp-Regular-e6ae" transform="translate(200 0)"/>
     <use xlink:href="#NotoSansCJKjp-Regular-3d73" transform="translate(300 0)"/>
     <use xlink:href="#NotoSansCJKjp-Regular-1" transform="translate(400 0)"/>
     <use xlink:href="#NotoSansCJKjp-Regular-59" transform="translate(422.40625 0)"/>
     <use xlink:href="#NotoSansCJKjp-Regular-1" transform="translate(472.203125 0)"/>
     <use xlink:href="#NotoSansCJKjp-Regular-9b28" transform="translate(494.609375 0)"/>
     <use xlink:href="#NotoSansCJKjp-Regular-e6af" transform="translate(594.609375 0)"/>
    </g>
    <!-- [[1, 0], [0, −1]] -->
    <g style="fill: #222831" transform="translate(890.246563 29.76) scale(0.12 -0.12)">
     <use xlink:href="#NotoSansCJKjp-Regular-3c"/>
     <use xlink:href="#NotoSansCJKjp-Regular-3c" transform="translate(33.796875 0)"/>
     <use xlink:href="#NotoSansCJKjp-Regular-12" transform="translate(67.59375 0)"/>
     <use xlink:href="#NotoSansCJKjp-Regular-d" transform="translate(123.09375 0)"/>
     <use xlink:href="#NotoSansCJKjp-Regular-1" transform="translate(150.890625 0)"/>
     <use xlink:href="#NotoSansCJKjp-Regular-11" transform="translate(173.296875 0)"/>
     <use xlink:href="#NotoSansCJKjp-Regular-3e" transform="translate(228.796875 0)"/>
     <use xlink:href="#NotoSansCJKjp-Regular-d" transform="translate(262.59375 0)"/>
     <use xlink:href="#NotoSansCJKjp-Regular-1" transform="translate(290.390625 0)"/>
     <use xlink:href="#NotoSansCJKjp-Regular-3c" transform="translate(312.796875 0)"/>
     <use xlink:href="#NotoSansCJKjp-Regular-11" transform="translate(346.59375 0)"/>
     <use xlink:href="#NotoSansCJKjp-Regular-d" transform="translate(402.09375 0)"/>
     <use xlink:href="#NotoSansCJKjp-Regular-1" transform="translate(429.890625 0)"/>
     <use xlink:href="#NotoSansCJKjp-Regular-33f" transform="translate(452.296875 0)"/>
     <use xlink:href="#NotoSansCJKjp-Regular-12" transform="translate(507.796875 0)"/>
     <use xlink:href="#NotoSansCJKjp-Regular-3e" transform="translate(563.296875 0)"/>
     <use xlink:href="#NotoSansCJKjp-Regular-3e" transform="translate(597.09375 0)"/>
    </g>
   </g>
   <g id="patch_28">
    <path d="M 905.22 152.16 
Q 933.82 152.16 959.736718 152.16 
" clip-path="url(#p98ea2c5b90)" style="fill: none; stroke: #d1242f; stroke-width: 2.4; stroke-linecap: round"/>
    <path d="M 952.536718 148.56 
L 959.736718 152.16 
L 952.536718 155.76 
z
" clip-path="url(#p98ea2c5b90)" style="fill: #d1242f; stroke: #d1242f; stroke-width: 2.4; stroke-linecap: round"/>
   </g>
   <g id="patch_29">
    <path d="M 905.22 152.16 
Q 905.22 180.76 905.22 206.676718 
" clip-path="url(#p98ea2c5b90)" style="fill: none; stroke: #d1242f; stroke-width: 2.4; stroke-linecap: round"/>
    <path d="M 908.82 199.476718 
L 905.22 206.676718 
L 901.62 199.476718 
z
" clip-path="url(#p98ea2c5b90)" style="fill: #d1242f; stroke: #d1242f; stroke-width: 2.4; stroke-linecap: round"/>
   </g>
  </g>
 </g>
 <defs>
  <clipPath id="pb3de5d0e16">
   <rect x="35.02" y="37.76" width="228.8" height="205.92"/>
  </clipPath>
  <clipPath id="p4d0070aeb6">
   <rect x="294.58" y="37.76" width="228.8" height="205.92"/>
  </clipPath>
  <clipPath id="p16245ea5f5">
   <rect x="554.14" y="37.76" width="228.8" height="205.92"/>
  </clipPath>
  <clipPath id="p98ea2c5b90">
   <rect x="813.7" y="37.76" width="228.8" height="205.92"/>
  </clipPath>
 </defs>
</svg>
