<?xml version="1.0" encoding="utf-8" standalone="no"?>
<!DOCTYPE svg PUBLIC "-//W3C//DTD SVG 1.1//EN"
  "http://www.w3.org/Graphics/SVG/1.1/DTD/svg11.dtd">
<svg xmlns:xlink="http://www.w3.org/1999/xlink" width="727.489pt" height="353.952pt" viewBox="0 0 727.489 353.952" xmlns="http://www.w3.org/2000/svg" version="1.1">
 <metadata>
  <rdf:RDF xmlns:dc="http://purl.org/dc/elements/1.1/" xmlns:cc="http://creativecommons.org/ns#" xmlns:rdf="http://www.w3.org/1999/02/22-rdf-syntax-ns#">
   <cc:Work>
    <dc:type rdf:resource="http://purl.org/dc/dcmitype/StillImage"/>
    <dc:date>2026-06-20T18:20:30.634635</dc:date>
    <dc:format>image/svg+xml</dc:format>
    <dc:creator>
     <cc:Agent>
      <dc:title>Matplotlib v3.11.0, https://matplotlib.org/</dc:title>
     </cc:Agent>
    </dc:creator>
   </cc:Work>
  </rdf:RDF>
 </metadata>
 <defs>
  <style type="text/css">*{stroke-linejoin: round; stroke-linecap: butt}</style>
 </defs>
 <g id="figure_1">
  <g id="patch_1">
   <path d="M -0 353.952 
L 727.489 353.952 
L 727.489 0 
L -0 0 
z
" style="fill: #ffffff"/>
  </g>
  <g id="axes_1">
   <g id="patch_2">
    <path d="M 144.1 254.524632 
C 155.94732 254.524632 167.311 249.817641 175.688321 241.440321 
C 184.065641 233.063 188.772632 221.69932 188.772632 209.852 
C 188.772632 198.00468 184.065641 186.641 175.688321 178.263679 
C 167.311 169.886359 155.94732 165.179368 144.1 165.179368 
C 132.25268 165.179368 120.889 169.886359 112.511679 178.263679 
C 104.134359 186.641 99.427368 198.00468 99.427368 209.852 
C 99.427368 221.69932 104.134359 233.063 112.511679 241.440321 
C 120.889 249.817641 132.25268 254.524632 144.1 254.524632 
z
" clip-path="url(#pa4474dfe8c)" style="fill: #f3f4f6; stroke: #222831; stroke-width: 1.6; stroke-linejoin: miter"/>
   </g>
   <g id="text_1">
    <!-- 整桌旋轉 -->
    <g style="fill: #8250df" transform="translate(233.781579 93.126737) scale(0.11 -0.11)">
     <defs>
      <path id="NotoSansCJKjp-Regular-4e1d" d="M 1357 1139 
L 1357 32 
L 301 32 
L 301 -371 
L 6118 -371 
L 6118 32 
L 3430 32 
L 3430 563 
L 5274 563 
L 5274 934 
L 3430 934 
L 3430 1427 
L 5696 1427 
L 5696 1824 
L 730 1824 
L 730 1427 
L 2957 1427 
L 2957 32 
L 1818 32 
L 1818 1139 
L 1357 1139 
z
M 4109 5376 
C 3930 4742 3597 4154 3162 3770 
L 3162 4282 
L 2054 4282 
L 2054 4608 
L 3315 4608 
L 3315 4960 
L 2054 4960 
L 2054 5376 
L 1626 5376 
L 1626 4960 
L 365 4960 
L 365 4608 
L 1626 4608 
L 1626 4282 
L 550 4282 
L 550 3110 
L 1440 3110 
C 1126 2790 646 2470 256 2304 
C 346 2234 474 2093 538 1997 
C 883 2176 1306 2496 1626 2822 
L 1626 1997 
L 2054 1997 
L 2054 2784 
C 2368 2611 2790 2362 2970 2227 
L 3206 2547 
C 3027 2650 2349 2989 2086 3110 
L 3162 3110 
L 3162 3725 
C 3264 3642 3411 3494 3462 3411 
C 3603 3546 3744 3699 3866 3878 
C 4000 3590 4186 3296 4416 3021 
C 4064 2714 3629 2490 3104 2330 
C 3200 2253 3341 2074 3392 1978 
C 3904 2163 4339 2400 4704 2714 
C 5030 2406 5434 2138 5926 1958 
C 5990 2067 6112 2246 6202 2336 
C 5715 2483 5318 2720 4998 3002 
C 5299 3347 5530 3757 5677 4269 
L 6093 4269 
L 6093 4659 
L 4314 4659 
C 4403 4858 4480 5069 4544 5280 
L 4109 5376 
z
M 947 3962 
L 1626 3962 
L 1626 3430 
L 947 3430 
L 947 3962 
z
M 2054 3962 
L 2752 3962 
L 2752 3430 
L 2054 3430 
L 2054 3962 
z
M 4122 4269 
L 5216 4269 
C 5101 3891 4928 3571 4698 3302 
C 4435 3603 4243 3930 4109 4250 
L 4122 4269 
z
" transform="scale(0.015625)"/>
      <path id="NotoSansCJKjp-Regular-52cf" d="M 1517 2880 
L 4870 2880 
L 4870 2381 
L 1517 2381 
L 1517 2880 
z
M 1517 3718 
L 4870 3718 
L 4870 3232 
L 1517 3232 
L 1517 3718 
z
M 1043 4090 
L 1043 2016 
L 2944 2016 
L 2944 1568 
L 346 1568 
L 346 1158 
L 2522 1158 
C 1946 627 1037 166 237 -58 
C 333 -154 474 -326 544 -442 
C 1382 -154 2349 416 2944 1069 
L 2944 -512 
L 3430 -512 
L 3430 1069 
C 4013 403 4960 -141 5850 -416 
C 5926 -294 6054 -109 6163 -13 
C 5312 192 4416 627 3859 1158 
L 6061 1158 
L 6061 1568 
L 3430 1568 
L 3430 2016 
L 5363 2016 
L 5363 4090 
L 3379 4090 
L 3379 4525 
L 5798 4525 
L 5798 4922 
L 3379 4922 
L 3379 5376 
L 2886 5376 
L 2886 4090 
L 1043 4090 
z
" transform="scale(0.015625)"/>
      <path id="NotoSansCJKjp-Regular-4ec3" d="M 1350 5363 
L 1350 4333 
L 282 4333 
L 282 3878 
L 973 3878 
C 954 2054 902 646 173 -186 
C 288 -262 448 -403 525 -512 
C 1133 205 1325 1254 1389 2592 
L 2131 2592 
C 2093 787 2042 147 1946 0 
C 1894 -70 1843 -83 1754 -83 
C 1658 -83 1434 -77 1190 -58 
C 1254 -179 1299 -365 1306 -493 
C 1568 -506 1818 -512 1958 -486 
C 2131 -467 2240 -429 2336 -282 
C 2496 -64 2534 659 2579 2822 
C 2579 2880 2579 3040 2579 3040 
L 1408 3040 
L 1427 3878 
L 2842 3878 
L 2842 4333 
L 1811 4333 
L 1811 5363 
L 1350 5363 
z
M 3238 2368 
C 3200 1338 3098 339 2560 -198 
C 2669 -262 2810 -410 2867 -512 
C 3162 -218 3347 186 3462 646 
C 3840 -211 4416 -410 5203 -410 
L 6054 -410 
C 6080 -282 6138 -77 6202 38 
C 6016 32 5350 32 5229 32 
C 5030 32 4838 45 4666 90 
L 4666 1427 
L 5888 1427 
L 5888 1850 
L 4666 1850 
L 4666 2976 
L 5504 2976 
C 5414 2733 5312 2496 5222 2323 
L 5594 2182 
C 5754 2464 5933 2918 6093 3315 
L 5779 3424 
L 5709 3398 
L 3155 3398 
C 3302 3603 3443 3834 3565 4090 
L 6131 4090 
L 6131 4531 
L 3757 4531 
C 3853 4774 3936 5030 4000 5286 
L 3533 5382 
C 3347 4653 3027 3955 2598 3501 
C 2714 3430 2906 3277 2989 3194 
L 3117 3354 
L 3117 2976 
L 4230 2976 
L 4230 282 
C 3955 474 3738 813 3590 1376 
C 3629 1690 3648 2022 3661 2368 
L 3238 2368 
z
" transform="scale(0.015625)"/>
      <path id="NotoSansCJKjp-Regular-9bba" d="M 3258 691 
C 3501 461 3750 134 3859 -90 
L 4218 141 
C 4096 358 3834 666 3584 883 
L 3258 691 
z
M 2880 2061 
L 2912 1696 
C 3629 1709 4659 1728 5670 1760 
C 5741 1664 5798 1574 5843 1498 
L 6189 1696 
C 6042 1926 5754 2253 5466 2502 
L 5926 2502 
L 5926 4179 
L 4691 4179 
L 4691 4525 
L 6074 4525 
L 6074 4902 
L 4691 4902 
L 4691 5370 
L 4269 5370 
L 4269 4902 
L 2944 4902 
L 2944 4525 
L 4269 4525 
L 4269 4179 
L 3098 4179 
L 3098 2502 
L 4269 2502 
L 4269 2080 
L 2880 2061 
z
M 474 3782 
L 474 1555 
L 1382 1555 
L 1382 1030 
L 243 1030 
L 243 608 
L 1382 608 
L 1382 -518 
L 1818 -518 
L 1818 608 
L 2906 608 
L 2906 941 
L 4922 941 
L 4922 -32 
C 4922 -102 4896 -128 4806 -134 
C 4723 -141 4429 -141 4109 -128 
C 4166 -243 4230 -403 4250 -525 
C 4678 -525 4954 -525 5139 -454 
C 5325 -397 5363 -282 5363 -45 
L 5363 941 
L 6150 941 
L 6150 1318 
L 5363 1318 
L 5363 1664 
L 4922 1664 
L 4922 1318 
L 2874 1318 
L 2874 1030 
L 1818 1030 
L 1818 1555 
L 2746 1555 
L 2746 3782 
L 1818 3782 
L 1818 4256 
L 2816 4256 
L 2816 4678 
L 1818 4678 
L 1818 5376 
L 1382 5376 
L 1382 4678 
L 333 4678 
L 333 4256 
L 1382 4256 
L 1382 3782 
L 474 3782 
z
M 3494 3200 
L 4269 3200 
L 4269 2803 
L 3494 2803 
L 3494 3200 
z
M 4691 3200 
L 5510 3200 
L 5510 2803 
L 4691 2803 
L 4691 3200 
z
M 3494 3878 
L 4269 3878 
L 4269 3488 
L 3494 3488 
L 3494 3878 
z
M 4691 3878 
L 5510 3878 
L 5510 3488 
L 4691 3488 
L 4691 3878 
z
M 5094 2381 
C 5184 2298 5280 2202 5376 2106 
L 4691 2086 
L 4691 2502 
L 5331 2502 
L 5094 2381 
z
M 838 2502 
L 1427 2502 
L 1427 1914 
L 838 1914 
L 838 2502 
z
M 1773 2502 
L 2374 2502 
L 2374 1914 
L 1773 1914 
L 1773 2502 
z
M 838 3424 
L 1427 3424 
L 1427 2848 
L 838 2848 
L 838 3424 
z
M 1773 3424 
L 2374 3424 
L 2374 2848 
L 1773 2848 
L 1773 3424 
z
" transform="scale(0.015625)"/>
     </defs>
     <use xlink:href="#NotoSansCJKjp-Regular-4e1d"/>
     <use xlink:href="#NotoSansCJKjp-Regular-52cf" transform="translate(100 0)"/>
     <use xlink:href="#NotoSansCJKjp-Regular-4ec3" transform="translate(200 0)"/>
     <use xlink:href="#NotoSansCJKjp-Regular-9bba" transform="translate(300 0)"/>
    </g>
   </g>
   <g id="text_2">
    <!-- 圍圓桌：只看「誰在誰旁邊」 -->
    <g style="fill: #222831" transform="translate(62.85 66.952) scale(0.125 -0.125)">
     <defs>
      <path id="NotoSansCJKjp-Regular-339e" d="M 2214 2758 
L 4173 2758 
L 4173 2342 
L 2214 2342 
L 2214 2758 
z
M 1747 4230 
L 1747 3949 
L 2592 3949 
L 2464 3565 
L 1357 3565 
L 1357 3270 
L 5062 3270 
L 5062 3565 
L 4448 3565 
L 4448 4230 
L 3098 4230 
L 3181 4538 
L 2771 4589 
L 2675 4230 
L 1747 4230 
z
M 2893 3565 
L 3014 3949 
L 4045 3949 
L 4045 3565 
L 2893 3565 
z
M 1766 1446 
C 1728 1190 1658 896 1594 685 
L 1965 640 
L 2010 826 
L 3251 826 
L 3251 346 
L 3686 346 
L 3686 826 
L 5043 826 
L 5043 1126 
L 3686 1126 
L 3686 1510 
L 4826 1510 
L 4826 1805 
L 3686 1805 
L 3686 2080 
L 4602 2080 
L 4602 3021 
L 1798 3021 
L 1798 2080 
L 3251 2080 
L 3251 1805 
L 1510 1805 
L 1510 1510 
L 3251 1510 
L 3251 1126 
L 2086 1126 
L 2144 1408 
L 1766 1446 
z
M 525 5094 
L 525 -512 
L 979 -512 
L 979 -243 
L 5402 -243 
L 5402 -512 
L 5875 -512 
L 5875 5094 
L 525 5094 
z
M 979 192 
L 979 4659 
L 5402 4659 
L 5402 192 
L 979 192 
z
" transform="scale(0.015625)"/>
      <path id="NotoSansCJKjp-Regular-33a8" d="M 2330 4013 
L 4051 4013 
L 4051 3648 
L 2330 3648 
L 2330 4013 
z
M 1926 4282 
L 1926 3373 
L 4474 3373 
L 4474 4282 
L 1926 4282 
z
M 2061 2304 
L 4301 2304 
L 4301 2003 
L 2061 2003 
L 2061 2304 
z
M 2061 1741 
L 4301 1741 
L 4301 1427 
L 2061 1427 
L 2061 1741 
z
M 2061 2861 
L 4301 2861 
L 4301 2566 
L 2061 2566 
L 2061 2861 
z
M 3482 966 
C 3923 800 4390 570 4653 390 
L 5050 582 
C 4749 768 4237 992 3782 1158 
L 4730 1158 
L 4730 3130 
L 1651 3130 
L 1651 1158 
L 2509 1158 
C 2221 966 1760 800 1338 678 
C 1421 608 1568 467 1632 397 
C 2048 544 2560 800 2886 1043 
L 2541 1158 
L 3757 1158 
L 3482 966 
z
M 525 5082 
L 525 -531 
L 986 -531 
L 986 -230 
L 5402 -230 
L 5402 -531 
L 5875 -531 
L 5875 5082 
L 525 5082 
z
M 986 205 
L 986 4640 
L 5402 4640 
L 5402 205 
L 986 205 
z
" transform="scale(0.015625)"/>
      <path id="NotoSansCJKjp-Regular-e6c0" d="M 3200 3482 
C 3456 3482 3686 3667 3686 3962 
C 3686 4256 3456 4442 3200 4442 
C 2944 4442 2714 4256 2714 3962 
C 2714 3667 2944 3482 3200 3482 
z
M 3200 346 
C 3456 346 3686 538 3686 826 
C 3686 1120 3456 1312 3200 1312 
C 2944 1312 2714 1120 2714 826 
C 2714 538 2944 346 3200 346 
z
" transform="scale(0.015625)"/>
      <path id="NotoSansCJKjp-Regular-2e85" d="M 3776 1011 
C 4410 557 5184 -102 5549 -531 
L 5971 -230 
C 5581 205 4787 838 4160 1267 
L 3776 1011 
z
M 2163 1280 
C 1792 768 1043 186 371 -179 
C 486 -262 659 -416 755 -518 
C 1440 -134 2195 493 2675 1082 
L 2163 1280 
z
M 1062 4941 
L 1062 1491 
L 1542 1491 
L 1542 1722 
L 4973 1722 
L 4973 1523 
L 5472 1523 
L 5472 4941 
L 1062 4941 
z
M 1542 2182 
L 1542 4474 
L 4973 4474 
L 4973 2182 
L 1542 2182 
z
" transform="scale(0.015625)"/>
      <path id="NotoSansCJKjp-Regular-6d07" d="M 2125 1370 
L 4915 1370 
L 4915 922 
L 2125 922 
L 2125 1370 
z
M 2125 1709 
L 2125 2144 
L 4915 2144 
L 4915 1709 
L 2125 1709 
z
M 2125 589 
L 4915 589 
L 4915 115 
L 2125 115 
L 2125 589 
z
M 5286 5325 
C 4262 5120 2317 5024 755 5011 
C 800 4909 845 4749 851 4640 
C 1408 4640 2010 4653 2611 4678 
C 2566 4531 2522 4384 2470 4237 
L 845 4237 
L 845 3853 
L 2330 3853 
C 2266 3693 2195 3533 2112 3373 
L 378 3373 
L 378 2976 
L 1894 2976 
C 1491 2298 941 1709 211 1293 
C 314 1197 454 1024 518 915 
C 960 1178 1338 1498 1664 1862 
L 1664 -525 
L 2125 -525 
L 2125 -269 
L 4915 -269 
L 4915 -525 
L 5395 -525 
L 5395 2528 
L 2176 2528 
C 2272 2675 2362 2822 2445 2976 
L 6022 2976 
L 6022 3373 
L 2643 3373 
C 2720 3533 2790 3693 2854 3853 
L 5651 3853 
L 5651 4237 
L 2995 4237 
L 3142 4704 
C 4064 4762 4947 4851 5594 4979 
L 5286 5325 
z
" transform="scale(0.015625)"/>
      <path id="NotoSansCJKjp-Regular-580" d="M 4160 5414 
L 4160 1274 
L 4634 1274 
L 4634 4973 
L 6182 4973 
L 6182 5414 
L 4160 5414 
z
" transform="scale(0.015625)"/>
      <path id="NotoSansCJKjp-Regular-940d" d="M 570 5152 
L 570 4768 
L 2394 4768 
L 2394 5152 
L 570 5152 
z
M 544 2586 
L 544 2202 
L 2419 2202 
L 2419 2586 
L 544 2586 
z
M 243 4314 
L 243 3910 
L 2630 3910 
L 2630 4314 
L 243 4314 
z
M 4390 2413 
L 4390 1587 
L 3411 1587 
L 3411 2413 
L 4390 2413 
z
M 544 3437 
L 544 3059 
L 2278 3059 
L 2266 3046 
C 2362 2957 2490 2784 2566 2682 
C 2701 2829 2835 2995 2957 3174 
L 2957 -525 
L 3411 -525 
L 3411 -173 
L 6163 -173 
L 6163 275 
L 4845 275 
L 4845 1152 
L 5939 1152 
L 5939 1587 
L 4845 1587 
L 4845 2413 
L 5939 2413 
L 5939 2848 
L 4845 2848 
L 4845 3661 
L 6061 3661 
L 6061 4096 
L 4851 4096 
C 5024 4422 5210 4826 5370 5184 
L 4870 5312 
C 4762 4947 4563 4454 4378 4096 
L 3507 4096 
C 3706 4480 3872 4877 4000 5248 
L 3526 5382 
C 3315 4685 2912 3827 2419 3226 
L 2419 3437 
L 544 3437 
z
M 4390 2848 
L 3411 2848 
L 3411 3661 
L 4390 3661 
L 4390 2848 
z
M 4390 1152 
L 4390 275 
L 3411 275 
L 3411 1152 
L 4390 1152 
z
M 538 1722 
L 538 -442 
L 960 -442 
L 960 -147 
L 2426 -147 
L 2426 1722 
L 538 1722 
z
M 960 1318 
L 2003 1318 
L 2003 250 
L 960 250 
L 960 1318 
z
" transform="scale(0.015625)"/>
      <path id="NotoSansCJKjp-Regular-33c7" d="M 2502 5376 
C 2413 5050 2298 4710 2163 4384 
L 403 4384 
L 403 3923 
L 1952 3923 
C 1542 3104 979 2342 243 1830 
C 320 1722 442 1517 493 1389 
C 762 1581 1011 1798 1235 2035 
L 1235 -486 
L 1715 -486 
L 1715 2605 
C 2016 3014 2278 3462 2496 3923 
L 6010 3923 
L 6010 4384 
L 2694 4384 
C 2810 4672 2912 4966 3002 5254 
L 2502 5376 
z
M 3827 3590 
L 3827 2355 
L 2387 2355 
L 2387 1907 
L 3827 1907 
L 3827 90 
L 2131 90 
L 2131 -358 
L 6003 -358 
L 6003 90 
L 4307 90 
L 4307 1907 
L 5760 1907 
L 5760 2355 
L 4307 2355 
L 4307 3590 
L 3827 3590 
z
" transform="scale(0.015625)"/>
      <path id="NotoSansCJKjp-Regular-4eaf" d="M 518 3622 
L 518 2554 
L 979 2554 
L 979 3200 
L 5402 3200 
L 5402 2554 
L 5875 2554 
L 5875 3622 
L 4474 3622 
C 4589 3821 4730 4083 4858 4333 
L 4614 4390 
L 5875 4390 
L 5875 4819 
L 3437 4819 
L 3437 5376 
L 2931 5376 
L 2931 4819 
L 531 4819 
L 531 4390 
L 1946 4390 
L 1606 4301 
C 1728 4090 1843 3827 1907 3622 
L 518 3622 
z
M 4320 4390 
C 4237 4154 4102 3834 3987 3622 
L 2336 3622 
L 2400 3642 
C 2336 3853 2208 4160 2061 4390 
L 4320 4390 
z
M 2944 2982 
L 2944 2362 
L 339 2362 
L 339 1933 
L 2298 1933 
C 2150 966 1786 243 288 -109 
C 390 -211 518 -403 563 -525 
C 1690 -224 2246 275 2547 941 
L 4666 941 
C 4595 320 4506 45 4403 -51 
C 4339 -102 4269 -102 4134 -102 
C 3994 -102 3597 -102 3206 -64 
C 3283 -186 3341 -358 3347 -486 
C 3744 -506 4128 -512 4320 -506 
C 4538 -493 4685 -454 4806 -346 
C 4992 -173 5094 224 5190 1146 
C 5203 1210 5210 1350 5210 1350 
L 2688 1350 
C 2739 1536 2778 1728 2810 1933 
L 6067 1933 
L 6067 2362 
L 3437 2362 
L 3437 2982 
L 2944 2982 
z
" transform="scale(0.015625)"/>
      <path id="NotoSansCJKjp-Regular-9e93" d="M 531 5005 
C 902 4794 1338 4467 1530 4218 
L 1869 4544 
C 1664 4787 1222 5101 851 5299 
L 531 5005 
z
M 307 3699 
C 698 3501 1152 3174 1363 2938 
L 1683 3270 
C 1466 3514 1005 3814 621 4006 
L 307 3699 
z
M 2880 4314 
L 5043 4314 
L 5043 4045 
L 2880 4045 
L 2880 4314 
z
M 2880 3802 
L 5043 3802 
L 5043 3520 
L 2880 3520 
L 2880 3802 
z
M 2880 4819 
L 5043 4819 
L 5043 4550 
L 2880 4550 
L 2880 4819 
z
M 1542 2400 
L 275 2400 
L 275 1952 
L 1075 1952 
L 1075 717 
C 794 454 474 198 211 0 
L 461 -467 
C 774 -186 1069 90 1344 365 
C 1754 -141 2342 -365 3200 -397 
C 3923 -422 5299 -410 6016 -378 
C 6035 -237 6112 -19 6170 90 
C 5395 38 3910 19 3194 51 
C 2432 77 1856 294 1542 768 
L 1542 2400 
z
M 1946 3008 
L 1946 2355 
L 2368 2355 
L 2368 2733 
L 3213 2733 
C 3098 2419 2790 2266 2118 2176 
C 2189 2112 2285 1978 2317 1894 
C 3091 2035 3443 2266 3571 2733 
L 4115 2733 
L 4115 2496 
C 4115 2170 4205 2093 4589 2093 
C 4659 2093 5056 2093 5126 2093 
C 5382 2093 5485 2176 5517 2496 
C 5421 2522 5280 2560 5210 2611 
C 5197 2400 5171 2374 5069 2374 
C 4992 2374 4691 2374 4634 2374 
C 4499 2374 4486 2387 4486 2496 
L 4486 2733 
L 5562 2733 
L 5562 2355 
L 5997 2355 
L 5997 3008 
L 4134 3008 
L 4134 3277 
L 5510 3277 
L 5510 5062 
L 4064 5062 
C 4115 5139 4173 5229 4224 5325 
L 3731 5389 
C 3706 5299 3654 5178 3603 5062 
L 2426 5062 
L 2426 3277 
L 3686 3277 
L 3686 3008 
L 1946 3008 
z
M 1926 1843 
L 1926 1542 
L 3219 1542 
C 3091 1062 2765 762 1952 589 
C 2042 518 2150 352 2189 256 
C 2835 416 3206 659 3424 1005 
L 4922 1005 
C 4858 749 4800 614 4730 557 
C 4678 518 4627 518 4518 518 
C 4410 512 4128 518 3840 550 
C 3885 461 3923 333 3930 256 
C 4237 230 4525 224 4666 230 
C 4826 237 4934 256 5043 333 
C 5184 442 5274 666 5363 1133 
C 5382 1190 5389 1293 5389 1293 
L 3565 1293 
C 3597 1370 3622 1453 3642 1542 
L 6054 1542 
L 6054 1843 
L 4134 1843 
L 4134 2234 
L 3693 2234 
L 3693 1843 
L 1926 1843 
z
" transform="scale(0.015625)"/>
      <path id="NotoSansCJKjp-Regular-581" d="M 2240 -550 
L 2240 3590 
L 1766 3590 
L 1766 -109 
L 218 -109 
L 218 -550 
L 2240 -550 
z
" transform="scale(0.015625)"/>
     </defs>
     <use xlink:href="#NotoSansCJKjp-Regular-339e"/>
     <use xlink:href="#NotoSansCJKjp-Regular-33a8" transform="translate(100 0)"/>
     <use xlink:href="#NotoSansCJKjp-Regular-52cf" transform="translate(200 0)"/>
     <use xlink:href="#NotoSansCJKjp-Regular-e6c0" transform="translate(300 0)"/>
     <use xlink:href="#NotoSansCJKjp-Regular-2e85" transform="translate(400 0)"/>
     <use xlink:href="#NotoSansCJKjp-Regular-6d07" transform="translate(500 0)"/>
     <use xlink:href="#NotoSansCJKjp-Regular-580" transform="translate(600 0)"/>
     <use xlink:href="#NotoSansCJKjp-Regular-940d" transform="translate(700 0)"/>
     <use xlink:href="#NotoSansCJKjp-Regular-33c7" transform="translate(800 0)"/>
     <use xlink:href="#NotoSansCJKjp-Regular-940d" transform="translate(900 0)"/>
     <use xlink:href="#NotoSansCJKjp-Regular-4eaf" transform="translate(1000 0)"/>
     <use xlink:href="#NotoSansCJKjp-Regular-9e93" transform="translate(1100 0)"/>
     <use xlink:href="#NotoSansCJKjp-Regular-581" transform="translate(1200 0)"/>
    </g>
   </g>
   <g id="patch_3">
    <path d="M 144.1 141.402 
C 149.832574 141.402 155.331129 139.124424 159.384671 135.070882 
C 163.438214 131.01734 165.715789 125.518785 165.715789 119.786211 
C 165.715789 114.053636 163.438214 108.555081 159.384671 104.501539 
C 155.331129 100.447997 149.832574 98.170421 144.1 98.170421 
C 138.367426 98.170421 132.868871 100.447997 128.815329 104.501539 
C 124.761786 108.555081 122.484211 114.053636 122.484211 119.786211 
C 122.484211 125.518785 124.761786 131.01734 128.815329 135.070882 
C 132.868871 139.124424 138.367426 141.402 144.1 141.402 
z
" clip-path="url(#pa4474dfe8c)" style="fill: #1f6feb; stroke: #222831; stroke-width: 1.4; stroke-linejoin: miter"/>
   </g>
   <g id="patch_4">
    <path d="M 234.165789 231.467789 
C 239.898364 231.467789 245.396919 229.190214 249.450461 225.136671 
C 253.504003 221.083129 255.781579 215.584574 255.781579 209.852 
C 255.781579 204.119426 253.504003 198.620871 249.450461 194.567329 
C 245.396919 190.513786 239.898364 188.236211 234.165789 188.236211 
C 228.433215 188.236211 222.93466 190.513786 218.881118 194.567329 
C 214.827576 198.620871 212.55 204.119426 212.55 209.852 
C 212.55 215.584574 214.827576 221.083129 218.881118 225.136671 
C 222.93466 229.190214 228.433215 231.467789 234.165789 231.467789 
z
" clip-path="url(#pa4474dfe8c)" style="fill: #d1242f; stroke: #222831; stroke-width: 1.4; stroke-linejoin: miter"/>
   </g>
   <g id="patch_5">
    <path d="M 144.1 321.533579 
C 149.832574 321.533579 155.331129 319.256003 159.384671 315.202461 
C 163.438214 311.148919 165.715789 305.650364 165.715789 299.917789 
C 165.715789 294.185215 163.438214 288.68666 159.384671 284.633118 
C 155.331129 280.579576 149.832574 278.302 144.1 278.302 
C 138.367426 278.302 132.868871 280.579576 128.815329 284.633118 
C 124.761786 288.68666 122.484211 294.185215 122.484211 299.917789 
C 122.484211 305.650364 124.761786 311.148919 128.815329 315.202461 
C 132.868871 319.256003 138.367426 321.533579 144.1 321.533579 
z
" clip-path="url(#pa4474dfe8c)" style="fill: #1a7f37; stroke: #222831; stroke-width: 1.4; stroke-linejoin: miter"/>
   </g>
   <g id="patch_6">
    <path d="M 54.034211 231.467789 
C 59.766785 231.467789 65.26534 229.190214 69.318882 225.136671 
C 73.372424 221.083129 75.65 215.584574 75.65 209.852 
C 75.65 204.119426 73.372424 198.620871 69.318882 194.567329 
C 65.26534 190.513786 59.766785 188.236211 54.034211 188.236211 
C 48.301636 188.236211 42.803081 190.513786 38.749539 194.567329 
C 34.695997 198.620871 32.418421 204.119426 32.418421 209.852 
C 32.418421 215.584574 34.695997 221.083129 38.749539 225.136671 
C 42.803081 229.190214 48.301636 231.467789 54.034211 231.467789 
z
" clip-path="url(#pa4474dfe8c)" style="fill: #bf8700; stroke: #222831; stroke-width: 1.4; stroke-linejoin: miter"/>
   </g>
   <g id="text_3">
    <!-- 甲 -->
    <g style="fill: #ffffff" transform="translate(137.1 125.106211) scale(0.14 -0.14)">
     <defs>
      <path id="NotoSansCJKjp-Bold-69bb" d="M 2816 4333 
L 2816 3590 
L 1523 3590 
L 1523 4333 
L 2816 4333 
z
M 3629 4333 
L 4902 4333 
L 4902 3590 
L 3629 3590 
L 3629 4333 
z
M 2816 2867 
L 2816 2138 
L 1523 2138 
L 1523 2867 
L 2816 2867 
z
M 3629 2867 
L 4902 2867 
L 4902 2138 
L 3629 2138 
L 3629 2867 
z
M 736 5069 
L 736 1069 
L 1523 1069 
L 1523 1402 
L 2816 1402 
L 2816 -570 
L 3629 -570 
L 3629 1402 
L 4902 1402 
L 4902 1075 
L 5728 1075 
L 5728 5069 
L 736 5069 
z
" transform="scale(0.015625)"/>
     </defs>
     <use xlink:href="#NotoSansCJKjp-Bold-69bb"/>
    </g>
   </g>
   <g id="text_4">
    <!-- 乙 -->
    <g style="fill: #ffffff" transform="translate(227.165789 215.172) scale(0.14 -0.14)">
     <defs>
      <path id="NotoSansCJKjp-Bold-2581" d="M 614 4966 
L 614 4166 
L 3475 4166 
C 678 1894 525 1402 525 858 
C 525 154 1056 -294 2208 -294 
L 4621 -294 
C 5613 -294 6010 58 6112 1574 
C 5875 1632 5555 1747 5331 1862 
C 5286 710 5133 506 4717 506 
L 2138 506 
C 1638 506 1363 627 1363 928 
C 1363 1267 1587 1722 5222 4506 
C 5280 4538 5325 4576 5357 4608 
L 4813 5005 
L 4627 4966 
L 614 4966 
z
" transform="scale(0.015625)"/>
     </defs>
     <use xlink:href="#NotoSansCJKjp-Bold-2581"/>
    </g>
   </g>
   <g id="text_5">
    <!-- 丙 -->
    <g style="fill: #ffffff" transform="translate(137.1 305.237789) scale(0.14 -0.14)">
     <defs>
      <path id="NotoSansCJKjp-Bold-252e" d="M 589 3539 
L 589 -563 
L 1357 -563 
L 1357 1062 
C 1542 915 1773 666 1882 512 
C 2534 877 2950 1312 3206 1773 
C 3693 1402 4224 960 4499 653 
L 5024 1254 
C 4691 1606 4019 2093 3482 2458 
C 3514 2579 3539 2701 3558 2822 
L 5062 2822 
L 5062 339 
C 5062 237 5018 205 4896 205 
C 4774 205 4320 198 3942 218 
C 4051 13 4160 -320 4198 -538 
C 4774 -538 5184 -531 5466 -410 
C 5747 -294 5837 -77 5837 326 
L 5837 3539 
L 3597 3539 
L 3597 4301 
L 5984 4301 
L 5984 5056 
L 397 5056 
L 397 4301 
L 2758 4301 
L 2758 3539 
L 589 3539 
z
M 1357 1133 
L 1357 2822 
L 2714 2822 
C 2624 2246 2310 1606 1357 1133 
z
" transform="scale(0.015625)"/>
     </defs>
     <use xlink:href="#NotoSansCJKjp-Bold-252e"/>
    </g>
   </g>
   <g id="text_6">
    <!-- 丁 -->
    <g style="fill: #ffffff" transform="translate(47.034211 215.172) scale(0.14 -0.14)">
     <defs>
      <path id="NotoSansCJKjp-Bold-250a" d="M 346 4954 
L 346 4154 
L 2938 4154 
L 2938 531 
C 2938 390 2874 352 2714 346 
C 2541 339 1939 346 1427 371 
C 1568 128 1747 -275 1798 -531 
C 2490 -531 3021 -512 3373 -378 
C 3725 -243 3853 -6 3853 518 
L 3853 4154 
L 6061 4154 
L 6061 4954 
L 346 4954 
z
" transform="scale(0.015625)"/>
     </defs>
     <use xlink:href="#NotoSansCJKjp-Bold-250a"/>
    </g>
   </g>
   <g id="patch_7">
    <path d="M 253.817278 169.860947 
Q 195.340334 158.614521 184.472126 102.115741 
" clip-path="url(#pa4474dfe8c)" style="fill: none; stroke: #8250df; stroke-width: 1.8; stroke-linecap: round"/>
    <path d="M 182.538688 109.004995 
L 184.472126 102.115741 
L 188.823466 107.796043 
z
" clip-path="url(#pa4474dfe8c)" style="fill: #8250df; stroke: #8250df; stroke-width: 1.8; stroke-linecap: round"/>
   </g>
  </g>
  <g id="axes_2">
   <g id="text_7">
    <!-- 直線排列：4 個位置有頭有尾 -->
    <g style="fill: #222831" transform="translate(450.528859 116.034) scale(0.125 -0.125)">
     <defs>
      <path id="NotoSansCJKjp-Regular-6ce1" d="M 2374 2586 
L 4832 2586 
L 4832 2061 
L 2374 2061 
L 2374 2586 
z
M 2374 1715 
L 4832 1715 
L 4832 1178 
L 2374 1178 
L 2374 1715 
z
M 2374 3456 
L 4832 3456 
L 4832 2931 
L 2374 2931 
L 2374 3456 
z
M 736 3635 
L 736 -518 
L 1203 -518 
L 1203 -179 
L 6080 -179 
L 6080 269 
L 1203 269 
L 1203 3635 
L 736 3635 
z
M 3053 5395 
L 3008 4787 
L 397 4787 
L 397 4339 
L 2963 4339 
L 2899 3814 
L 1914 3814 
L 1914 813 
L 5306 813 
L 5306 3814 
L 3379 3814 
L 3469 4339 
L 6029 4339 
L 6029 4787 
L 3533 4787 
L 3603 5363 
L 3053 5395 
z
" transform="scale(0.015625)"/>
      <path id="NotoSansCJKjp-Regular-7a17" d="M 3258 3405 
L 5414 3405 
L 5414 2848 
L 3258 2848 
L 3258 3405 
z
M 3258 4326 
L 5414 4326 
L 5414 3770 
L 3258 3770 
L 3258 4326 
z
M 1894 1632 
C 2048 1267 2182 781 2208 474 
L 2586 589 
C 2541 902 2406 1370 2246 1734 
L 1894 1632 
z
M 570 1715 
C 493 1158 378 582 166 192 
C 269 154 454 70 538 13 
C 736 422 890 1043 973 1651 
L 570 1715 
z
M 2816 4717 
L 2816 2451 
L 4109 2451 
L 4109 6 
C 4109 -64 4090 -83 4006 -90 
C 3930 -90 3674 -90 3386 -83 
C 3443 -211 3501 -384 3520 -506 
C 3917 -506 4173 -499 4339 -435 
C 4506 -358 4544 -237 4544 6 
L 4544 1325 
C 4819 717 5254 109 5952 -250 
C 6016 -128 6157 51 6246 141 
C 5754 358 5382 698 5114 1088 
C 5427 1306 5798 1613 6106 1894 
L 5715 2176 
C 5523 1946 5203 1645 4922 1408 
C 4742 1734 4627 2074 4544 2400 
L 4544 2451 
L 5875 2451 
L 5875 4717 
L 4365 4717 
C 4467 4890 4570 5088 4659 5280 
L 4128 5382 
C 4077 5190 3968 4934 3872 4717 
L 2816 4717 
z
M 2573 1901 
L 2573 1491 
L 3443 1491 
C 3219 826 2803 352 2291 77 
C 2381 13 2534 -154 2592 -250 
C 3226 115 3738 787 3962 1805 
L 3699 1914 
L 3622 1901 
L 2573 1901 
z
M 179 2547 
L 237 2118 
L 1248 2182 
L 1248 -512 
L 1670 -512 
L 1670 2208 
L 2176 2240 
C 2234 2086 2285 1946 2310 1824 
L 2694 2003 
C 2598 2349 2342 2906 2074 3322 
L 1722 3181 
C 1824 3014 1920 2829 2010 2637 
L 1088 2592 
C 1517 3136 2010 3866 2374 4454 
L 1971 4646 
C 1792 4301 1549 3878 1286 3475 
C 1190 3610 1075 3750 941 3898 
C 1178 4256 1459 4781 1677 5216 
L 1254 5376 
C 1120 5018 890 4531 685 4166 
L 486 4346 
L 237 4038 
C 525 3763 845 3398 1037 3104 
C 896 2912 762 2726 634 2566 
L 179 2547 
z
" transform="scale(0.015625)"/>
      <path id="NotoSansCJKjp-Regular-4ab6" d="M 1984 1274 
L 2170 858 
L 3200 1235 
C 3046 685 2739 198 2138 -198 
C 2240 -275 2400 -422 2477 -518 
C 3642 269 3789 1395 3789 2675 
L 3789 5376 
L 3347 5376 
L 3347 4282 
L 2298 4282 
L 2298 3840 
L 3347 3840 
L 3347 2944 
L 2342 2944 
L 2342 2509 
L 3347 2509 
C 3341 2221 3328 1939 3290 1677 
C 2803 1517 2330 1363 1984 1274 
z
M 4454 5376 
L 4454 -506 
L 4909 -506 
L 4909 1107 
L 6144 1107 
L 6144 1549 
L 4909 1549 
L 4909 2509 
L 5971 2509 
L 5971 2944 
L 4909 2944 
L 4909 3840 
L 6035 3840 
L 6035 4282 
L 4909 4282 
L 4909 5376 
L 4454 5376 
z
M 1069 5370 
L 1069 4083 
L 269 4083 
L 269 3635 
L 1069 3635 
L 1069 2323 
L 179 2054 
L 301 1594 
L 1069 1843 
L 1069 45 
C 1069 -45 1037 -70 960 -70 
C 883 -77 634 -77 358 -64 
C 416 -198 480 -397 493 -512 
C 902 -518 1146 -499 1299 -422 
C 1459 -352 1517 -218 1517 45 
L 1517 1990 
L 2221 2221 
L 2150 2662 
L 1517 2464 
L 1517 3635 
L 2208 3635 
L 2208 4083 
L 1517 4083 
L 1517 5370 
L 1069 5370 
z
" transform="scale(0.015625)"/>
      <path id="NotoSansCJKjp-Regular-2b9b" d="M 3814 4646 
L 3814 1139 
L 4288 1139 
L 4288 4646 
L 3814 4646 
z
M 5376 5254 
L 5376 115 
C 5376 -6 5331 -45 5210 -45 
C 5088 -51 4698 -58 4256 -45 
C 4333 -179 4403 -384 4429 -518 
C 5011 -518 5357 -506 5568 -429 
C 5766 -352 5850 -205 5850 115 
L 5850 5254 
L 5376 5254 
z
M 2816 3206 
C 2714 2694 2560 2234 2374 1824 
C 2074 2054 1606 2355 1203 2592 
C 1318 2790 1421 2995 1510 3206 
L 2816 3206 
z
M 384 5043 
L 384 4595 
L 1491 4595 
C 1267 3654 826 2598 141 1952 
C 243 1875 397 1728 480 1638 
C 659 1811 826 2010 973 2227 
C 1382 1978 1856 1651 2157 1408 
C 1734 691 1184 166 538 -173 
C 646 -250 826 -422 902 -531 
C 2080 147 3008 1472 3360 3558 
L 3059 3667 
L 2976 3648 
L 1690 3648 
C 1805 3962 1901 4282 1984 4595 
L 3571 4595 
L 3571 5043 
L 384 5043 
z
" transform="scale(0.015625)"/>
      <path id="NotoSansCJKjp-Regular-15" d="M 2176 0 
L 2726 0 
L 2726 1293 
L 3354 1293 
L 3354 1760 
L 2726 1760 
L 2726 4691 
L 2080 4691 
L 128 1677 
L 128 1293 
L 2176 1293 
L 2176 0 
z
M 2176 1760 
L 736 1760 
L 1805 3360 
C 1939 3590 2067 3827 2182 4051 
L 2208 4051 
C 2195 3814 2176 3430 2176 3200 
L 2176 1760 
z
" transform="scale(0.015625)"/>
      <path id="NotoSansCJKjp-Regular-1" transform="scale(0.015625)"/>
      <path id="NotoSansCJKjp-Regular-2815" d="M 3533 2195 
L 4614 2195 
L 4614 1197 
L 3533 1197 
L 3533 2195 
z
M 2189 4992 
L 2189 -506 
L 2630 -506 
L 2630 -128 
L 5472 -128 
L 5472 -461 
L 5933 -461 
L 5933 4992 
L 2189 4992 
z
M 2630 307 
L 2630 4563 
L 5472 4563 
L 5472 307 
L 2630 307 
z
M 3162 2554 
L 3162 838 
L 4998 838 
L 4998 2554 
L 4256 2554 
L 4256 3258 
L 5254 3258 
L 5254 3629 
L 4256 3629 
L 4256 4358 
L 3866 4358 
L 3866 3629 
L 2899 3629 
L 2899 3258 
L 3866 3258 
L 3866 2554 
L 3162 2554 
z
M 1523 5344 
C 1203 4378 685 3411 109 2784 
C 192 2662 320 2400 365 2291 
C 582 2541 787 2829 986 3142 
L 986 -518 
L 1446 -518 
L 1446 3968 
C 1645 4371 1824 4794 1965 5216 
L 1523 5344 
z
" transform="scale(0.015625)"/>
      <path id="NotoSansCJKjp-Regular-26e3" d="M 2630 3155 
C 2867 2304 3066 1190 3110 544 
L 3578 646 
C 3526 1280 3302 2381 3059 3232 
L 2630 3155 
z
M 2106 4115 
L 2106 3661 
L 6016 3661 
L 6016 4115 
L 4250 4115 
L 4250 5299 
L 3770 5299 
L 3770 4115 
L 2106 4115 
z
M 1946 243 
L 1946 -211 
L 6176 -211 
L 6176 243 
L 4634 243 
C 4928 1043 5261 2246 5485 3194 
L 4966 3283 
C 4800 2362 4461 1056 4166 243 
L 1946 243 
z
M 1773 5357 
C 1395 4390 774 3443 128 2835 
C 211 2720 352 2470 397 2355 
C 640 2598 877 2880 1107 3194 
L 1107 -493 
L 1568 -493 
L 1568 3891 
C 1818 4314 2048 4762 2227 5216 
L 1773 5357 
z
" transform="scale(0.015625)"/>
      <path id="NotoSansCJKjp-Regular-7ccb" d="M 4154 4762 
L 5235 4762 
L 5235 4186 
L 4154 4186 
L 4154 4762 
z
M 2656 4762 
L 3712 4762 
L 3712 4186 
L 2656 4186 
L 2656 4762 
z
M 1197 4762 
L 2214 4762 
L 2214 4186 
L 1197 4186 
L 1197 4762 
z
M 2374 1798 
L 4979 1798 
L 4979 1440 
L 2374 1440 
L 2374 1798 
z
M 2374 1152 
L 4979 1152 
L 4979 794 
L 2374 794 
L 2374 1152 
z
M 2374 2432 
L 4979 2432 
L 4979 2086 
L 2374 2086 
L 2374 2432 
z
M 1920 2726 
L 1920 499 
L 5440 499 
L 5440 2726 
L 3347 2726 
L 3418 3104 
L 5971 3104 
L 5971 3482 
L 3482 3482 
L 3533 3834 
L 5715 3834 
L 5715 5107 
L 736 5107 
L 736 3834 
L 3046 3834 
L 3002 3482 
L 435 3482 
L 435 3104 
L 2944 3104 
L 2880 2726 
L 1920 2726 
z
M 787 2630 
L 787 -518 
L 1274 -518 
L 1274 -243 
L 6138 -243 
L 6138 141 
L 1274 141 
L 1274 2630 
L 787 2630 
z
" transform="scale(0.015625)"/>
      <path id="NotoSansCJKjp-Regular-50d7" d="M 2502 5376 
C 2426 5101 2336 4819 2221 4544 
L 403 4544 
L 403 4096 
L 2022 4096 
C 1613 3251 1024 2470 256 1946 
C 346 1856 499 1683 563 1574 
C 966 1862 1325 2208 1632 2598 
L 1632 -506 
L 2106 -506 
L 2106 762 
L 4787 762 
L 4787 96 
C 4787 0 4755 -38 4646 -38 
C 4525 -45 4134 -51 3712 -32 
C 3776 -166 3846 -365 3872 -493 
C 4422 -493 4774 -493 4986 -422 
C 5197 -339 5261 -192 5261 90 
L 5261 3354 
L 2150 3354 
C 2298 3597 2426 3840 2541 4096 
L 6010 4096 
L 6010 4544 
L 2733 4544 
C 2829 4781 2912 5024 2989 5261 
L 2502 5376 
z
M 2106 1850 
L 4787 1850 
L 4787 1178 
L 2106 1178 
L 2106 1850 
z
M 2106 2259 
L 2106 2918 
L 4787 2918 
L 4787 2259 
L 2106 2259 
z
" transform="scale(0.015625)"/>
      <path id="NotoSansCJKjp-Regular-abfd" d="M 339 5030 
L 339 4582 
L 2861 4582 
L 2861 5030 
L 339 5030 
z
M 934 3571 
L 2272 3571 
L 2272 2643 
L 934 2643 
L 934 3571 
z
M 512 3968 
L 512 2246 
L 2707 2246 
L 2707 3968 
L 512 3968 
z
M 666 1914 
C 800 1530 902 1037 909 710 
L 1325 813 
C 1312 1139 1210 1632 1056 2010 
L 666 1914 
z
M 3674 2694 
L 5459 2694 
L 5459 2067 
L 3674 2067 
L 3674 2694 
z
M 3674 1715 
L 5459 1715 
L 5459 1075 
L 3674 1075 
L 3674 1715 
z
M 3674 3674 
L 5459 3674 
L 5459 3053 
L 3674 3053 
L 3674 3674 
z
M 3834 570 
C 3571 301 3008 -26 2522 -198 
C 2624 -288 2771 -429 2842 -518 
C 3334 -333 3904 0 4250 326 
L 3834 570 
z
M 4787 301 
C 5165 64 5645 -288 5875 -518 
L 6259 -262 
C 6010 -26 5530 314 5158 538 
L 4787 301 
z
M 243 294 
L 358 -166 
C 1062 -6 2029 211 2944 422 
L 2906 832 
L 2163 678 
C 2278 1011 2413 1517 2528 1946 
L 2061 2061 
C 2010 1677 1888 1107 1779 762 
L 2112 666 
C 1402 518 730 378 243 294 
z
M 3226 4045 
L 3226 704 
L 5920 704 
L 5920 4045 
L 4595 4045 
L 4781 4653 
L 6125 4653 
L 6125 5069 
L 3027 5069 
L 3027 4653 
L 4243 4653 
C 4211 4454 4166 4237 4122 4045 
L 3226 4045 
z
" transform="scale(0.015625)"/>
      <path id="NotoSansCJKjp-Regular-3dbe" d="M 1338 4653 
L 5184 4653 
L 5184 3936 
L 1338 3936 
L 1338 4653 
z
M 851 5069 
L 851 3194 
C 851 2176 794 749 198 -256 
C 320 -301 531 -422 627 -499 
C 1248 550 1338 2118 1338 3194 
L 1338 3520 
L 5664 3520 
L 5664 5069 
L 851 5069 
z
M 1395 915 
L 1466 506 
L 3110 768 
L 3110 314 
C 3110 -262 3296 -410 3968 -410 
C 4115 -410 5120 -410 5274 -410 
C 5837 -410 5978 -205 6048 544 
C 5914 576 5722 653 5613 730 
C 5581 134 5530 26 5242 26 
C 5030 26 4160 26 4000 26 
C 3648 26 3584 77 3584 314 
L 3584 838 
L 5933 1210 
L 5856 1600 
L 3584 1254 
L 3584 1837 
L 5478 2131 
L 5402 2522 
L 3584 2246 
L 3584 2810 
C 4128 2918 4634 3046 5043 3187 
L 4640 3501 
C 3968 3251 2720 3021 1638 2880 
C 1690 2784 1754 2630 1773 2528 
C 2208 2579 2662 2643 3110 2726 
L 3110 2176 
L 1606 1946 
L 1677 1542 
L 3110 1766 
L 3110 1178 
L 1395 915 
z
" transform="scale(0.015625)"/>
     </defs>
     <use xlink:href="#NotoSansCJKjp-Regular-6ce1"/>
     <use xlink:href="#NotoSansCJKjp-Regular-7a17" transform="translate(100 0)"/>
     <use xlink:href="#NotoSansCJKjp-Regular-4ab6" transform="translate(200 0)"/>
     <use xlink:href="#NotoSansCJKjp-Regular-2b9b" transform="translate(300 0)"/>
     <use xlink:href="#NotoSansCJKjp-Regular-e6c0" transform="translate(400 0)"/>
     <use xlink:href="#NotoSansCJKjp-Regular-15" transform="translate(500 0)"/>
     <use xlink:href="#NotoSansCJKjp-Regular-1" transform="translate(555.5 0)"/>
     <use xlink:href="#NotoSansCJKjp-Regular-2815" transform="translate(577.90625 0)"/>
     <use xlink:href="#NotoSansCJKjp-Regular-26e3" transform="translate(677.90625 0)"/>
     <use xlink:href="#NotoSansCJKjp-Regular-7ccb" transform="translate(777.90625 0)"/>
     <use xlink:href="#NotoSansCJKjp-Regular-50d7" transform="translate(877.90625 0)"/>
     <use xlink:href="#NotoSansCJKjp-Regular-abfd" transform="translate(977.90625 0)"/>
     <use xlink:href="#NotoSansCJKjp-Regular-50d7" transform="translate(1077.90625 0)"/>
     <use xlink:href="#NotoSansCJKjp-Regular-3dbe" transform="translate(1177.90625 0)"/>
    </g>
   </g>
   <g id="text_8">
    <!-- $4! = 24$ 種 -->
    <g style="fill: #222831" transform="translate(499.738 143.984) scale(0.14 -0.14)">
     <defs>
      <path id="Cmr10-3b" d="M 178 1056 
L 178 1281 
L 2156 4231 
Q 2178 4263 2222 4263 
L 2316 4263 
Q 2388 4263 2388 4191 
L 2388 1281 
L 3016 1281 
L 3016 1056 
L 2388 1056 
L 2388 428 
Q 2388 297 2575 261 
Q 2763 225 3009 225 
L 3009 0 
L 1247 0 
L 1247 225 
Q 1494 225 1681 261 
Q 1869 297 1869 428 
L 1869 1056 
L 178 1056 
z
M 391 1281 
L 1906 1281 
L 1906 3547 
L 391 1281 
z
" transform="scale(0.015625)"/>
      <path id="Cmr10-1d" d="M 538 353 
Q 538 497 644 600 
Q 750 703 891 703 
Q 978 703 1062 656 
Q 1147 609 1194 525 
Q 1241 441 1241 353 
Q 1241 213 1137 106 
Q 1034 0 891 0 
Q 750 0 644 106 
Q 538 213 538 353 
z
M 800 1275 
L 538 4225 
L 538 4263 
Q 538 4397 645 4489 
Q 753 4581 891 4581 
Q 1031 4581 1136 4489 
Q 1241 4397 1241 4263 
L 1241 4225 
L 984 1275 
Q 984 1253 965 1234 
Q 947 1216 928 1216 
L 850 1216 
Q 834 1216 817 1236 
Q 800 1256 800 1275 
z
" transform="scale(0.015625)"/>
      <path id="Cmr10-29" d="M 481 850 
Q 428 850 393 890 
Q 359 931 359 978 
Q 359 1031 393 1068 
Q 428 1106 481 1106 
L 4500 1106 
Q 4547 1106 4581 1068 
Q 4616 1031 4616 978 
Q 4616 931 4581 890 
Q 4547 850 4500 850 
L 481 850 
z
M 481 2094 
Q 428 2094 393 2131 
Q 359 2169 359 2222 
Q 359 2269 393 2309 
Q 428 2350 481 2350 
L 4500 2350 
Q 4547 2350 4581 2309 
Q 4616 2269 4616 2222 
Q 4616 2169 4581 2131 
Q 4547 2094 4500 2094 
L 481 2094 
z
" transform="scale(0.015625)"/>
      <path id="Cmr10-31" d="M 319 0 
L 319 172 
Q 319 188 331 206 
L 1325 1306 
Q 1550 1550 1690 1715 
Q 1831 1881 1968 2097 
Q 2106 2313 2186 2536 
Q 2266 2759 2266 3009 
Q 2266 3272 2169 3511 
Q 2072 3750 1880 3894 
Q 1688 4038 1416 4038 
Q 1138 4038 916 3870 
Q 694 3703 603 3438 
Q 628 3444 672 3444 
Q 816 3444 917 3347 
Q 1019 3250 1019 3097 
Q 1019 2950 917 2848 
Q 816 2747 672 2747 
Q 522 2747 420 2851 
Q 319 2956 319 3097 
Q 319 3338 409 3548 
Q 500 3759 670 3923 
Q 841 4088 1055 4175 
Q 1269 4263 1509 4263 
Q 1875 4263 2190 4108 
Q 2506 3953 2690 3670 
Q 2875 3388 2875 3009 
Q 2875 2731 2753 2481 
Q 2631 2231 2440 2026 
Q 2250 1822 1953 1562 
Q 1656 1303 1563 1216 
L 838 519 
L 1453 519 
Q 1906 519 2211 526 
Q 2516 534 2534 550 
Q 2609 631 2688 1141 
L 2875 1141 
L 2694 0 
L 319 0 
z
" transform="scale(0.015625)"/>
      <path id="NotoSansCJKjp-Regular-724a" d="M 2771 3424 
L 2771 1370 
L 4102 1370 
L 4102 909 
L 2701 909 
L 2701 525 
L 4102 525 
L 4102 19 
L 2336 19 
L 2336 -378 
L 6176 -378 
L 6176 19 
L 4563 19 
L 4563 525 
L 5958 525 
L 5958 909 
L 4563 909 
L 4563 1370 
L 5926 1370 
L 5926 3424 
L 4563 3424 
L 4563 3853 
L 6054 3853 
L 6054 4250 
L 4563 4250 
L 4563 4723 
C 5114 4774 5638 4845 6042 4934 
L 5747 5299 
C 5024 5133 3693 5030 2618 4986 
C 2662 4883 2720 4723 2733 4614 
C 3162 4627 3635 4653 4102 4685 
L 4102 4250 
L 2502 4250 
L 2502 3853 
L 4102 3853 
L 4102 3424 
L 2771 3424 
z
M 3200 2240 
L 4102 2240 
L 4102 1728 
L 3200 1728 
L 3200 2240 
z
M 4563 2240 
L 5485 2240 
L 5485 1728 
L 4563 1728 
L 4563 2240 
z
M 3200 3066 
L 4102 3066 
L 4102 2560 
L 3200 2560 
L 3200 3066 
z
M 4563 3066 
L 5485 3066 
L 5485 2560 
L 4563 2560 
L 4563 3066 
z
M 2310 5286 
C 1837 5069 992 4883 275 4762 
C 333 4659 397 4499 416 4397 
C 717 4435 1037 4493 1357 4557 
L 1357 3571 
L 314 3571 
L 314 3123 
L 1293 3123 
C 1037 2387 595 1555 179 1101 
C 262 986 378 794 429 659 
C 755 1056 1094 1690 1357 2336 
L 1357 -499 
L 1830 -499 
L 1830 2259 
C 2048 1990 2304 1645 2413 1466 
L 2701 1843 
C 2573 1990 2016 2566 1830 2726 
L 1830 3123 
L 2630 3123 
L 2630 3571 
L 1830 3571 
L 1830 4666 
C 2131 4736 2413 4819 2643 4915 
L 2310 5286 
z
" transform="scale(0.015625)"/>
     </defs>
     <use xlink:href="#Cmr10-3b" transform="translate(0 0.203125)"/>
     <use xlink:href="#Cmr10-1d" transform="translate(50 0.203125)"/>
     <use xlink:href="#Cmr10-29" transform="translate(117.685661 0.203125)"/>
     <use xlink:href="#Cmr10-31" transform="translate(215.371265 0.203125)"/>
     <use xlink:href="#Cmr10-3b" transform="translate(265.371265 0.203125)"/>
     <use xlink:href="#NotoSansCJKjp-Regular-1" transform="translate(315.371265 0.203125)"/>
     <use xlink:href="#NotoSansCJKjp-Regular-724a" transform="translate(337.771244 0.203125)"/>
    </g>
   </g>
   <g id="text_9">
    <!-- 但圍成圈後，同一種坐法 -->
    <g style="fill: #222831" transform="translate(461.648 187.222) scale(0.125 -0.125)">
     <defs>
      <path id="NotoSansCJKjp-Regular-26d9" d="M 1971 198 
L 1971 -250 
L 6189 -250 
L 6189 198 
L 1971 198 
z
M 3008 2758 
L 5126 2758 
L 5126 1472 
L 3008 1472 
L 3008 2758 
z
M 3008 4467 
L 5126 4467 
L 5126 3206 
L 3008 3206 
L 3008 4467 
z
M 2515 4922 
L 2515 1024 
L 5645 1024 
L 5645 4922 
L 2515 4922 
z
M 1779 5350 
C 1414 4378 806 3418 166 2803 
C 256 2688 403 2426 448 2310 
C 672 2534 890 2803 1101 3091 
L 1101 -499 
L 1574 -499 
L 1574 3821 
C 1830 4262 2061 4736 2246 5210 
L 1779 5350 
z
" transform="scale(0.015625)"/>
      <path id="NotoSansCJKjp-Regular-4857" d="M 3482 5370 
C 3482 5005 3494 4640 3514 4288 
L 819 4288 
L 819 2490 
C 819 1658 762 550 230 -237 
C 346 -294 550 -461 634 -557 
C 1222 288 1318 1581 1318 2483 
L 1318 2528 
L 2490 2528 
C 2464 1427 2432 1018 2349 922 
C 2298 864 2240 851 2144 851 
C 2035 851 1760 851 1466 883 
C 1542 762 1594 570 1600 435 
C 1914 416 2208 416 2374 429 
C 2547 448 2656 493 2758 614 
C 2893 787 2925 1331 2957 2771 
C 2957 2835 2963 2976 2963 2976 
L 1318 2976 
L 1318 3821 
L 3546 3821 
C 3622 2784 3776 1837 4019 1101 
C 3597 614 3104 218 2534 -83 
C 2637 -179 2810 -378 2886 -480 
C 3379 -186 3821 166 4211 589 
C 4506 -70 4890 -467 5382 -467 
C 5875 -467 6054 -147 6138 947 
C 6010 992 5830 1101 5722 1210 
C 5683 358 5606 26 5421 26 
C 5094 26 4806 390 4570 1018 
C 5043 1632 5421 2362 5696 3200 
L 5216 3322 
C 5011 2675 4736 2093 4390 1581 
C 4224 2202 4102 2963 4032 3821 
L 6086 3821 
L 6086 4288 
L 4006 4288 
C 3987 4640 3981 4998 3981 5370 
L 3482 5370 
z
M 4294 5056 
C 4704 4845 5197 4518 5440 4288 
L 5741 4621 
C 5491 4838 4986 5152 4582 5350 
L 4294 5056 
z
" transform="scale(0.015625)"/>
      <path id="NotoSansCJKjp-Regular-3394" d="M 3942 4211 
C 4109 4058 4288 3872 4435 3693 
L 3136 3693 
C 3206 3917 3264 4154 3309 4403 
L 2918 4448 
C 2874 4179 2816 3930 2739 3693 
L 2022 3693 
C 2176 3885 2317 4096 2419 4307 
L 2067 4397 
C 1901 4058 1626 3725 1318 3488 
C 1408 3437 1555 3328 1613 3270 
C 1728 3373 1850 3494 1965 3629 
L 1965 3379 
L 2624 3379 
C 2560 3213 2483 3053 2400 2906 
L 1312 2906 
L 1312 2586 
L 2189 2586 
C 1926 2240 1600 1958 1203 1741 
C 1280 1670 1408 1517 1453 1440 
C 1702 1587 1926 1760 2125 1952 
L 2125 960 
C 2125 544 2291 448 2867 448 
C 2989 448 3930 448 4064 448 
C 4499 448 4621 589 4659 1152 
C 4557 1171 4410 1222 4320 1280 
C 4294 838 4250 768 4019 768 
C 3821 768 3040 768 2893 768 
C 2579 768 2522 800 2522 966 
L 2522 1882 
L 3693 1882 
C 3680 1626 3661 1517 3629 1478 
C 3597 1440 3552 1434 3488 1440 
C 3424 1440 3238 1440 3027 1459 
C 3078 1382 3110 1254 3117 1171 
C 3315 1158 3533 1158 3629 1165 
C 3770 1171 3859 1197 3923 1274 
C 4000 1363 4026 1568 4051 2042 
C 4051 2093 4051 2182 4051 2182 
L 2342 2182 
C 2451 2310 2554 2445 2643 2586 
L 3808 2586 
C 4096 2125 4474 1754 4922 1530 
C 4979 1632 5094 1773 5178 1843 
C 4813 1997 4493 2259 4237 2586 
L 5094 2586 
L 5094 2906 
L 4019 2906 
C 3923 3053 3846 3213 3782 3379 
L 4454 3379 
L 4454 3674 
C 4589 3514 4698 3366 4768 3238 
L 5088 3430 
C 4915 3706 4550 4109 4237 4384 
L 3942 4211 
z
M 3629 2906 
L 2822 2906 
C 2899 3053 2970 3213 3034 3379 
L 3430 3379 
C 3488 3219 3552 3059 3629 2906 
z
M 525 5094 
L 525 -512 
L 979 -512 
L 979 -243 
L 5402 -243 
L 5402 -512 
L 5875 -512 
L 5875 5094 
L 525 5094 
z
M 979 192 
L 979 4659 
L 5402 4659 
L 5402 192 
L 979 192 
z
" transform="scale(0.015625)"/>
      <path id="NotoSansCJKjp-Regular-43f2" d="M 1562 5376 
C 1280 4922 710 4371 211 4032 
C 288 3949 416 3776 474 3680 
C 1024 4070 1619 4666 1997 5203 
L 1562 5376 
z
M 1933 2944 
L 1978 2509 
L 3456 2554 
C 3072 1984 2470 1485 1862 1152 
C 1965 1069 2125 883 2189 787 
C 2451 947 2714 1139 2963 1357 
C 3168 1062 3418 794 3699 557 
C 3142 230 2490 13 1843 -115 
C 1933 -218 2035 -410 2080 -531 
C 2784 -365 3482 -109 4083 269 
C 4614 -90 5248 -358 5939 -518 
C 6003 -397 6125 -211 6234 -109 
C 5581 19 4979 243 4467 544 
C 4934 909 5318 1363 5562 1926 
L 5254 2074 
L 5171 2054 
L 3629 2054 
C 3763 2221 3885 2394 3994 2573 
L 5542 2624 
C 5664 2451 5760 2291 5824 2157 
L 6227 2394 
C 6029 2784 5568 3366 5165 3782 
L 4787 3584 
C 4947 3411 5114 3213 5261 3014 
L 3539 2976 
C 4141 3469 4794 4102 5306 4653 
L 4870 4890 
C 4570 4512 4147 4064 3712 3654 
C 3565 3808 3360 3981 3142 4154 
C 3437 4435 3776 4813 4058 5158 
L 3629 5376 
C 3430 5082 3110 4691 2822 4390 
L 2445 4653 
L 2150 4339 
C 2579 4058 3072 3661 3379 3347 
C 3226 3206 3072 3078 2931 2963 
L 1933 2944 
z
M 3258 1638 
L 3290 1670 
L 4915 1670 
C 4704 1338 4416 1043 4077 800 
C 3744 1043 3469 1325 3258 1638 
z
M 1715 4070 
C 1338 3392 723 2726 134 2285 
C 218 2189 358 1958 410 1862 
C 646 2054 896 2291 1133 2547 
L 1133 -531 
L 1587 -531 
L 1587 3085 
C 1798 3354 1984 3635 2144 3917 
L 1715 4070 
z
" transform="scale(0.015625)"/>
      <path id="NotoSansCJKjp-Regular-e6b2" d="M 1005 -685 
C 1677 -448 2112 77 2112 768 
C 2112 1216 1920 1504 1568 1504 
C 1306 1504 1082 1344 1082 1043 
C 1082 742 1299 589 1562 589 
L 1670 602 
C 1638 160 1357 -141 864 -346 
L 1005 -685 
z
" transform="scale(0.015625)"/>
      <path id="NotoSansCJKjp-Regular-2eb1" d="M 1587 3917 
L 1587 3501 
L 4838 3501 
L 4838 3917 
L 1587 3917 
z
M 2355 2419 
L 4045 2419 
L 4045 1203 
L 2355 1203 
L 2355 2419 
z
M 1914 2829 
L 1914 326 
L 2355 326 
L 2355 794 
L 4493 794 
L 4493 2829 
L 1914 2829 
z
M 563 5043 
L 563 -525 
L 1030 -525 
L 1030 4589 
L 5376 4589 
L 5376 102 
C 5376 -13 5338 -51 5222 -58 
C 5114 -58 4742 -64 4339 -51 
C 4416 -173 4486 -390 4512 -518 
C 5062 -518 5389 -506 5581 -429 
C 5779 -352 5850 -198 5850 96 
L 5850 5043 
L 563 5043 
z
" transform="scale(0.015625)"/>
      <path id="NotoSansCJKjp-Regular-2509" d="M 282 2758 
L 282 2234 
L 6144 2234 
L 6144 2758 
L 282 2758 
z
" transform="scale(0.015625)"/>
      <path id="NotoSansCJKjp-Regular-33ff" d="M 4698 5062 
C 4499 4070 4077 3232 3430 2714 
L 3430 5299 
L 2944 5299 
L 2944 1882 
L 800 1882 
L 800 1421 
L 2944 1421 
L 2944 192 
L 339 192 
L 339 -262 
L 6080 -262 
L 6080 192 
L 3430 192 
L 3430 1421 
L 5638 1421 
L 5638 1882 
L 3430 1882 
L 3430 2643 
C 3539 2560 3693 2413 3763 2336 
C 4109 2630 4397 3008 4634 3456 
C 5050 3040 5498 2547 5728 2221 
L 6067 2566 
C 5805 2912 5274 3450 4832 3872 
C 4973 4211 5088 4582 5171 4979 
L 4698 5062 
z
M 1562 5082 
C 1344 4000 915 3091 237 2528 
C 346 2451 538 2285 614 2189 
C 992 2534 1306 2982 1555 3507 
C 1888 3162 2246 2765 2432 2502 
L 2765 2848 
C 2547 3136 2106 3584 1741 3942 
C 1862 4269 1965 4627 2042 5005 
L 1562 5082 
z
" transform="scale(0.015625)"/>
      <path id="NotoSansCJKjp-Regular-5ace" d="M 589 4979 
C 1030 4800 1574 4499 1837 4275 
L 2118 4672 
C 1843 4896 1293 5171 851 5331 
L 589 4979 
z
M 250 3213 
C 691 3059 1242 2784 1517 2579 
L 1779 2989 
C 1491 3194 934 3443 493 3578 
L 250 3213 
z
M 467 -115 
L 883 -435 
C 1242 166 1664 960 1984 1638 
L 1626 1946 
C 1280 1222 800 378 467 -115 
z
M 4550 1363 
C 4781 1088 5018 768 5222 448 
L 3027 320 
C 3309 877 3616 1606 3846 2227 
L 6080 2227 
L 6080 2688 
L 4250 2688 
L 4250 3872 
L 5779 3872 
L 5779 4326 
L 4250 4326 
L 4250 5376 
L 3763 5376 
L 3763 4326 
L 2291 4326 
L 2291 3872 
L 3763 3872 
L 3763 2688 
L 1971 2688 
L 1971 2227 
L 3283 2227 
C 3091 1613 2784 838 2515 294 
L 1978 269 
L 2042 -218 
C 2938 -160 4230 -70 5472 26 
C 5587 -173 5677 -365 5741 -525 
L 6189 -275 
C 5978 243 5446 1011 4966 1581 
L 4550 1363 
z
" transform="scale(0.015625)"/>
     </defs>
     <use xlink:href="#NotoSansCJKjp-Regular-26d9"/>
     <use xlink:href="#NotoSansCJKjp-Regular-339e" transform="translate(100 0)"/>
     <use xlink:href="#NotoSansCJKjp-Regular-4857" transform="translate(200 0)"/>
     <use xlink:href="#NotoSansCJKjp-Regular-3394" transform="translate(300 0)"/>
     <use xlink:href="#NotoSansCJKjp-Regular-43f2" transform="translate(400 0)"/>
     <use xlink:href="#NotoSansCJKjp-Regular-e6b2" transform="translate(500 0)"/>
     <use xlink:href="#NotoSansCJKjp-Regular-2eb1" transform="translate(600 0)"/>
     <use xlink:href="#NotoSansCJKjp-Regular-2509" transform="translate(700 0)"/>
     <use xlink:href="#NotoSansCJKjp-Regular-724a" transform="translate(800 0)"/>
     <use xlink:href="#NotoSansCJKjp-Regular-33ff" transform="translate(900 0)"/>
     <use xlink:href="#NotoSansCJKjp-Regular-5ace" transform="translate(1000 0)"/>
    </g>
   </g>
   <g id="text_10">
    <!-- 整體旋轉到 4 個位置都「一樣」 -->
    <g style="fill: #222831" transform="translate(442.878469 209.126) scale(0.125 -0.125)">
     <defs>
      <path id="NotoSansCJKjp-Regular-b0c7" d="M 2963 2598 
L 2963 2246 
L 6112 2246 
L 6112 2598 
L 2963 2598 
z
M 3686 1619 
L 5363 1619 
L 5363 1062 
L 3686 1062 
L 3686 1619 
z
M 5075 742 
C 5011 525 4883 198 4774 -13 
L 4832 -32 
L 4128 -32 
L 4218 0 
C 4179 205 4070 512 3930 730 
L 3584 614 
C 3693 422 3789 166 3834 -32 
L 2848 -32 
L 2848 -390 
L 6157 -390 
L 6157 -32 
L 5146 -32 
L 5478 627 
L 5075 742 
z
M 3162 4787 
L 3162 2918 
L 5901 2918 
L 5901 4787 
L 5101 4787 
L 5101 5376 
L 4742 5376 
L 4742 4787 
L 4282 4787 
L 4282 5376 
L 3923 5376 
L 3923 4787 
L 3162 4787 
z
M 3283 1939 
L 3283 742 
L 5779 742 
L 5779 1939 
L 3283 1939 
z
M 3533 3693 
L 3981 3693 
L 3981 3251 
L 3533 3251 
L 3533 3693 
z
M 4282 3693 
L 4742 3693 
L 4742 3251 
L 4282 3251 
L 4282 3693 
z
M 5043 3693 
L 5510 3693 
L 5510 3251 
L 5043 3251 
L 5043 3693 
z
M 3533 4454 
L 3981 4454 
L 3981 4019 
L 3533 4019 
L 3533 4454 
z
M 4282 4454 
L 4742 4454 
L 4742 4019 
L 4282 4019 
L 4282 4454 
z
M 5043 4454 
L 5510 4454 
L 5510 4019 
L 5043 4019 
L 5043 4454 
z
M 1178 1440 
L 2138 1440 
L 2138 973 
L 1178 973 
L 1178 1440 
z
M 1178 1792 
L 1178 2246 
L 2138 2246 
L 2138 1792 
L 1178 1792 
z
M 390 3373 
L 390 2445 
L 762 2445 
L 762 -512 
L 1178 -512 
L 1178 621 
L 2138 621 
L 2138 -51 
C 2138 -115 2118 -134 2048 -141 
C 1990 -141 1792 -141 1562 -134 
C 1619 -243 1677 -403 1690 -512 
C 2035 -512 2240 -506 2381 -442 
C 2522 -378 2554 -262 2554 -58 
L 2554 2592 
L 762 2592 
L 762 3021 
L 2560 3021 
L 2560 2445 
L 2944 2445 
L 2944 3373 
L 2566 3373 
L 2566 5152 
L 762 5152 
L 762 3373 
L 390 3373 
z
M 1466 4371 
L 1466 3373 
L 1126 3373 
L 1126 4787 
L 2182 4787 
L 2182 4371 
L 1466 4371 
z
M 2182 3373 
L 1766 3373 
L 1766 4064 
L 2182 4064 
L 2182 3373 
z
" transform="scale(0.015625)"/>
      <path id="NotoSansCJKjp-Regular-2bbc" d="M 3885 4608 
L 3885 1056 
L 4352 1056 
L 4352 4608 
L 3885 4608 
z
M 5402 5197 
L 5402 134 
C 5402 19 5370 -13 5254 -19 
C 5126 -19 4723 -26 4294 -13 
C 4371 -154 4442 -378 4467 -512 
C 4986 -512 5370 -499 5587 -422 
C 5792 -346 5869 -198 5869 134 
L 5869 5197 
L 5402 5197 
z
M 2349 3994 
C 2522 3795 2701 3565 2861 3334 
L 1382 3264 
C 1562 3648 1747 4115 1914 4518 
L 3610 4518 
L 3610 4960 
L 326 4960 
L 326 4518 
L 1370 4518 
C 1248 4115 1069 3622 896 3245 
L 307 3219 
L 346 2765 
L 3136 2925 
C 3226 2778 3296 2643 3354 2528 
L 3731 2758 
C 3546 3149 3098 3750 2714 4192 
L 2349 3994 
z
M 256 160 
L 326 -320 
C 1184 -205 2445 -19 3635 147 
L 3622 595 
L 2208 410 
L 2208 1472 
L 3424 1472 
L 3424 1907 
L 2208 1907 
L 2208 2675 
L 1734 2675 
L 1734 1907 
L 512 1907 
L 512 1472 
L 1734 1472 
L 1734 346 
L 256 160 
z
" transform="scale(0.015625)"/>
      <path id="NotoSansCJKjp-Regular-9f49" d="M 3251 5158 
C 3123 4851 2976 4563 2810 4288 
L 2810 4634 
L 2003 4634 
L 2003 5325 
L 1555 5325 
L 1555 4634 
L 570 4634 
L 570 4205 
L 1555 4205 
L 1555 3437 
L 275 3437 
L 275 3008 
L 1811 3008 
C 1318 2522 755 2118 134 1811 
C 224 1722 378 1523 435 1421 
C 614 1517 787 1619 954 1734 
L 954 -480 
L 1389 -480 
L 1389 -102 
L 2835 -102 
L 2835 -390 
L 3296 -390 
L 3296 2387 
L 1798 2387 
C 2016 2579 2221 2790 2413 3008 
L 3584 3008 
L 3584 3437 
L 2758 3437 
C 3123 3917 3430 4448 3686 5024 
L 3251 5158 
z
M 2003 4205 
L 2758 4205 
C 2592 3936 2406 3680 2202 3437 
L 2003 3437 
L 2003 4205 
z
M 1389 301 
L 1389 979 
L 2835 979 
L 2835 301 
L 1389 301 
z
M 1389 1363 
L 1389 1990 
L 2835 1990 
L 2835 1363 
L 1389 1363 
z
M 3859 5011 
L 3859 -512 
L 4333 -512 
L 4333 4557 
L 5530 4557 
C 5318 4045 5030 3354 4742 2810 
C 5414 2253 5619 1766 5619 1357 
C 5626 1126 5574 941 5427 851 
C 5344 806 5242 781 5126 781 
C 4986 768 4794 774 4582 794 
C 4666 659 4717 454 4723 320 
C 4928 307 5152 307 5325 326 
C 5491 346 5638 397 5760 474 
C 5990 621 6086 922 6086 1318 
C 6086 1773 5914 2278 5235 2874 
C 5549 3469 5901 4205 6163 4813 
L 5818 5030 
L 5741 5011 
L 3859 5011 
z
" transform="scale(0.015625)"/>
      <path id="NotoSansCJKjp-Regular-561a" d="M 2355 1331 
L 2355 979 
L 3283 979 
C 3046 506 2611 141 2157 -45 
C 2240 -122 2362 -269 2419 -365 
C 3027 -83 3571 454 3808 1235 
L 3539 1344 
L 3469 1331 
L 2355 1331 
z
M 5664 1856 
C 5459 1626 5114 1318 4826 1094 
C 4691 1280 4576 1472 4486 1683 
L 4486 2048 
L 2861 2048 
L 2861 1690 
L 4038 1690 
L 4038 -26 
C 4038 -96 4019 -122 3936 -122 
C 3859 -122 3597 -122 3315 -115 
C 3373 -230 3424 -403 3443 -518 
C 3846 -518 4109 -518 4275 -448 
C 4448 -378 4486 -262 4486 -32 
L 4486 960 
C 4845 390 5350 -70 5933 -326 
C 6003 -211 6138 -51 6234 32 
C 5779 198 5370 480 5043 832 
C 5344 1037 5715 1325 6022 1587 
L 5664 1856 
z
M 5082 5382 
C 4986 5178 4826 4877 4691 4678 
L 4794 4640 
L 3635 4640 
L 3802 4717 
C 3725 4896 3546 5178 3392 5376 
L 3027 5229 
C 3155 5050 3296 4819 3386 4640 
L 2554 4640 
L 2554 4275 
L 4032 4275 
L 4032 3878 
L 2816 3878 
L 2816 3520 
L 4032 3520 
L 4032 3104 
L 2394 3104 
L 2394 2726 
L 3712 2726 
L 3520 2502 
C 4019 2355 4640 2099 4966 1907 
L 5216 2221 
C 4928 2387 4410 2586 3962 2726 
L 6106 2726 
L 6106 3104 
L 4493 3104 
L 4493 3520 
L 5830 3520 
L 5830 3878 
L 4493 3878 
L 4493 4275 
L 6029 4275 
L 6029 4640 
L 5094 4640 
C 5222 4813 5370 5024 5504 5242 
L 5082 5382 
z
M 1235 5376 
L 1235 3987 
L 339 3987 
L 339 3539 
L 1184 3539 
C 998 2669 608 1658 205 1120 
C 282 1011 397 832 448 704 
C 742 1120 1018 1792 1235 2483 
L 1235 -506 
L 1677 -506 
L 1677 2566 
C 1862 2240 2086 1843 2182 1632 
L 2451 1990 
C 2342 2163 1850 2912 1677 3136 
L 1677 3539 
L 2413 3539 
L 2413 3987 
L 1677 3987 
L 1677 5376 
L 1235 5376 
z
" transform="scale(0.015625)"/>
     </defs>
     <use xlink:href="#NotoSansCJKjp-Regular-4e1d"/>
     <use xlink:href="#NotoSansCJKjp-Regular-b0c7" transform="translate(100 0)"/>
     <use xlink:href="#NotoSansCJKjp-Regular-4ec3" transform="translate(200 0)"/>
     <use xlink:href="#NotoSansCJKjp-Regular-9bba" transform="translate(300 0)"/>
     <use xlink:href="#NotoSansCJKjp-Regular-2bbc" transform="translate(400 0)"/>
     <use xlink:href="#NotoSansCJKjp-Regular-1" transform="translate(500 0)"/>
     <use xlink:href="#NotoSansCJKjp-Regular-15" transform="translate(522.40625 0)"/>
     <use xlink:href="#NotoSansCJKjp-Regular-1" transform="translate(577.90625 0)"/>
     <use xlink:href="#NotoSansCJKjp-Regular-2815" transform="translate(600.3125 0)"/>
     <use xlink:href="#NotoSansCJKjp-Regular-26e3" transform="translate(700.3125 0)"/>
     <use xlink:href="#NotoSansCJKjp-Regular-7ccb" transform="translate(800.3125 0)"/>
     <use xlink:href="#NotoSansCJKjp-Regular-9f49" transform="translate(900.3125 0)"/>
     <use xlink:href="#NotoSansCJKjp-Regular-580" transform="translate(1000.3125 0)"/>
     <use xlink:href="#NotoSansCJKjp-Regular-2509" transform="translate(1100.3125 0)"/>
     <use xlink:href="#NotoSansCJKjp-Regular-561a" transform="translate(1200.3125 0)"/>
     <use xlink:href="#NotoSansCJKjp-Regular-581" transform="translate(1300.3125 0)"/>
    </g>
   </g>
   <g id="text_11">
    <!-- （左右鄰居都沒變） -->
    <g style="fill: #6b7280" transform="translate(480.898 230.46) scale(0.11 -0.11)">
     <defs>
      <path id="NotoSansCJKjp-Regular-e6ae" d="M 4448 2432 
C 4448 1184 4954 166 5722 -614 
L 6106 -416 
C 5370 346 4915 1293 4915 2432 
C 4915 3571 5370 4518 6106 5280 
L 5722 5478 
C 4954 4698 4448 3680 4448 2432 
z
" transform="scale(0.015625)"/>
      <path id="NotoSansCJKjp-Regular-4105" d="M 2368 5376 
C 2310 4998 2240 4608 2150 4218 
L 429 4218 
L 429 3757 
L 2042 3757 
C 1696 2413 1133 1114 179 250 
C 282 160 429 -19 506 -128 
C 1254 570 1773 1491 2150 2496 
L 2150 2067 
L 3584 2067 
L 3584 141 
L 1485 141 
L 1485 -326 
L 6074 -326 
L 6074 141 
L 4070 141 
L 4070 2067 
L 5786 2067 
L 5786 2528 
L 2163 2528 
C 2310 2925 2432 3341 2541 3757 
L 5952 3757 
L 5952 4218 
L 2650 4218 
C 2733 4582 2803 4947 2867 5306 
L 2368 5376 
z
" transform="scale(0.015625)"/>
      <path id="NotoSansCJKjp-Regular-2e93" d="M 2637 5376 
C 2554 4979 2445 4576 2310 4179 
L 416 4179 
L 416 3712 
L 2138 3712 
C 1728 2688 1114 1754 198 1133 
C 301 1037 448 864 525 749 
C 992 1082 1382 1485 1715 1939 
L 1715 -518 
L 2195 -518 
L 2195 -160 
L 5043 -160 
L 5043 -486 
L 5542 -486 
L 5542 2470 
L 2067 2470 
C 2298 2861 2496 3277 2662 3712 
L 6010 3712 
L 6010 4179 
L 2829 4179 
C 2944 4544 3046 4909 3136 5280 
L 2637 5376 
z
M 2195 307 
L 2195 2003 
L 5043 2003 
L 5043 307 
L 2195 307 
z
" transform="scale(0.015625)"/>
      <path id="NotoSansCJKjp-Regular-9fa7" d="M 723 5101 
C 909 4858 1107 4525 1190 4307 
L 1568 4480 
C 1485 4698 1274 5024 1082 5254 
L 723 5101 
z
M 3226 5306 
C 3110 5069 2893 4717 2720 4493 
L 3040 4333 
C 3219 4531 3437 4838 3635 5120 
L 3226 5306 
z
M 3142 2630 
L 3142 2074 
L 2272 2074 
L 2272 1696 
L 3142 1696 
L 3142 845 
L 2560 845 
L 2637 1440 
L 2278 1459 
C 2240 1050 2163 499 2093 154 
L 2445 122 
L 2502 454 
L 3142 454 
L 3142 -506 
L 3533 -506 
L 3533 454 
L 3949 454 
L 3949 845 
L 3533 845 
L 3533 1696 
L 3898 1696 
L 3898 2074 
L 3533 2074 
L 3533 2630 
L 3142 2630 
z
M 4096 5062 
L 4096 -506 
L 4538 -506 
L 4538 4621 
L 5555 4621 
C 5376 4122 5126 3430 4890 2880 
C 5453 2304 5619 1824 5619 1427 
C 5619 1197 5581 998 5453 922 
C 5389 877 5299 851 5197 845 
C 5075 845 4896 845 4710 858 
C 4787 723 4832 531 4838 410 
C 5018 397 5222 397 5382 416 
C 5536 435 5670 474 5779 544 
C 5984 691 6067 992 6067 1382 
C 6067 1824 5926 2336 5350 2938 
C 5619 3533 5920 4275 6144 4877 
L 5818 5082 
L 5741 5062 
L 4096 5062 
z
M 1760 1741 
C 1690 1459 1587 1203 1472 973 
C 1318 1101 1101 1254 896 1376 
C 966 1491 1037 1613 1101 1741 
L 1760 1741 
z
M 1075 2656 
C 896 2035 570 1446 166 1062 
C 250 998 397 877 461 819 
C 538 902 621 992 691 1088 
C 902 954 1126 794 1280 653 
C 1011 262 678 -26 320 -198 
C 410 -275 518 -429 563 -525 
C 1344 -102 1965 742 2195 2035 
L 1958 2112 
L 1888 2099 
L 1267 2099 
C 1331 2253 1389 2413 1440 2573 
L 1075 2656 
z
M 1958 5357 
L 1958 4262 
L 352 4262 
L 352 3878 
L 1702 3878 
C 1306 3482 723 3085 230 2886 
C 320 2810 448 2669 512 2566 
C 986 2797 1549 3200 1958 3635 
L 1958 2560 
L 2394 2560 
L 2394 3462 
C 2778 3264 3328 2957 3558 2797 
L 3770 3168 
C 3546 3290 2720 3686 2394 3827 
L 2394 3878 
L 3866 3878 
L 3866 4262 
L 2394 4262 
L 2394 5357 
L 1958 5357 
z
" transform="scale(0.015625)"/>
      <path id="NotoSansCJKjp-Regular-3dc8" d="M 1408 4602 
L 5165 4602 
L 5165 3891 
L 1408 3891 
L 1408 4602 
z
M 1920 1562 
L 1920 -512 
L 2381 -512 
L 2381 -288 
L 5082 -288 
L 5082 -499 
L 5562 -499 
L 5562 1562 
L 3930 1562 
L 3930 2317 
L 6035 2317 
L 6035 2752 
L 3930 2752 
L 3930 3469 
L 5645 3469 
L 5645 5030 
L 928 5030 
L 928 3168 
C 928 2144 864 730 211 -269 
C 333 -320 544 -442 634 -518 
C 1312 518 1408 2086 1408 3168 
L 1408 3469 
L 3450 3469 
L 3450 2752 
L 1555 2752 
L 1555 2317 
L 3450 2317 
L 3450 1562 
L 1920 1562 
z
M 2381 141 
L 2381 1133 
L 5082 1133 
L 5082 141 
L 2381 141 
z
" transform="scale(0.015625)"/>
      <path id="NotoSansCJKjp-Regular-5a6f" d="M 589 4979 
C 1005 4787 1504 4474 1747 4230 
L 2029 4627 
C 1779 4858 1267 5146 858 5325 
L 589 4979 
z
M 243 3245 
C 666 3066 1178 2765 1427 2547 
L 1696 2944 
C 1440 3155 915 3443 499 3603 
L 243 3245 
z
M 454 -109 
L 864 -422 
C 1216 166 1645 973 1958 1651 
L 1600 1958 
C 1248 1229 781 390 454 -109 
z
M 3123 5376 
C 2989 4256 2650 3366 1965 2835 
C 2086 2765 2291 2605 2374 2528 
C 2867 2970 3206 3578 3424 4352 
L 5235 4352 
C 5171 3571 5101 3251 4998 3149 
C 4941 3098 4883 3091 4774 3091 
C 4653 3091 4333 3098 4013 3130 
C 4090 3002 4147 2816 4160 2682 
C 4493 2662 4806 2662 4973 2675 
C 5165 2688 5286 2726 5402 2842 
C 5568 3021 5651 3469 5728 4589 
C 5741 4653 5747 4787 5747 4787 
L 3520 4787 
C 3558 4960 3584 5133 3610 5318 
L 3123 5376 
z
M 5101 1939 
C 4870 1504 4538 1139 4134 838 
C 3744 1152 3424 1523 3206 1939 
L 5101 1939 
z
M 2317 2381 
L 2317 1939 
L 3053 1939 
L 2752 1837 
C 3002 1357 3328 934 3731 576 
C 3181 256 2534 45 1869 -77 
C 1958 -186 2074 -378 2112 -506 
C 2829 -346 3520 -96 4115 275 
C 4621 -83 5203 -346 5856 -512 
C 5933 -378 6067 -186 6176 -83 
C 5568 51 5005 269 4531 570 
C 5069 992 5498 1549 5760 2266 
L 5453 2400 
L 5363 2381 
L 2317 2381 
z
" transform="scale(0.015625)"/>
      <path id="NotoSansCJKjp-Regular-95ec" d="M 1664 2874 
C 1798 2650 1933 2342 1984 2150 
L 2291 2285 
C 2240 2470 2099 2765 1965 2982 
L 1664 2874 
z
M 640 2970 
C 563 2624 442 2259 262 2003 
C 358 1958 512 1869 582 1818 
C 755 2093 909 2502 998 2886 
L 640 2970 
z
M 5376 2848 
C 5568 2560 5760 2170 5830 1926 
L 6150 2080 
C 6067 2317 5869 2694 5677 2976 
L 5376 2848 
z
M 4275 2963 
C 4198 2630 4077 2298 3898 2048 
C 3987 2010 4141 1926 4211 1882 
C 4384 2138 4538 2522 4627 2886 
L 4275 2963 
z
M 2477 5203 
L 2477 4922 
L 3853 4922 
L 3853 5203 
L 2477 5203 
z
M 2464 4077 
L 2464 3802 
L 3866 3802 
L 3866 4077 
L 2464 4077 
z
M 2464 3533 
L 2464 3251 
L 3866 3251 
L 3866 3533 
L 2464 3533 
z
M 2803 2688 
L 3520 2688 
L 3520 2214 
L 2803 2214 
L 2803 2688 
z
M 1709 4832 
C 1587 4653 1427 4435 1254 4218 
C 1184 4294 1094 4384 998 4474 
C 1178 4691 1376 4973 1542 5242 
L 1197 5382 
C 1094 5178 928 4896 774 4672 
L 614 4800 
L 390 4550 
C 608 4371 858 4134 1018 3942 
C 902 3808 787 3680 678 3571 
L 307 3571 
L 346 3200 
L 1152 3232 
L 1152 1728 
L 1530 1728 
L 1530 3251 
L 2029 3270 
L 2125 3085 
L 2406 3251 
C 2304 3469 2067 3795 1856 4038 
L 1581 3891 
C 1658 3802 1741 3699 1818 3590 
L 1094 3578 
C 1414 3904 1773 4307 2054 4659 
L 1709 4832 
z
M 2208 4659 
L 2208 4352 
L 4064 4352 
L 4064 4474 
C 4269 4320 4499 4109 4653 3936 
C 4531 3802 4416 3680 4301 3571 
L 3942 3571 
L 3987 3200 
L 4813 3232 
L 4813 1728 
L 5190 1728 
L 5190 3251 
L 5734 3277 
C 5792 3187 5843 3110 5875 3040 
L 6163 3226 
C 6042 3462 5754 3814 5504 4077 
L 5235 3917 
C 5325 3821 5421 3706 5510 3590 
L 4730 3578 
C 5075 3910 5459 4339 5766 4704 
L 5421 4883 
C 5286 4685 5094 4442 4896 4211 
C 4819 4288 4723 4378 4621 4461 
C 4800 4678 5018 4966 5190 5242 
L 4838 5382 
C 4736 5171 4550 4877 4390 4653 
L 4250 4755 
L 4064 4538 
L 4064 4659 
L 2208 4659 
z
M 4269 1171 
C 3987 902 3622 685 3194 506 
C 2707 691 2278 909 1965 1171 
L 4269 1171 
z
M 2451 2963 
L 2451 2054 
L 2189 2131 
C 1824 1549 1120 1069 397 781 
C 499 704 666 531 736 448 
C 1030 589 1331 755 1606 960 
C 1901 710 2253 493 2650 307 
C 1933 90 1101 -45 256 -122 
C 339 -224 461 -422 499 -538 
C 1453 -416 2400 -237 3206 77 
C 4026 -230 4966 -422 5914 -525 
C 5971 -403 6080 -218 6176 -115 
C 5338 -45 4493 102 3757 320 
C 4198 544 4582 826 4870 1171 
L 5920 1171 
L 5920 1562 
L 2291 1562 
C 2394 1683 2496 1805 2579 1939 
L 3878 1939 
L 3878 2963 
L 2451 2963 
z
" transform="scale(0.015625)"/>
      <path id="NotoSansCJKjp-Regular-e6af" d="M 1952 2432 
C 1952 3680 1446 4698 678 5478 
L 294 5280 
C 1030 4518 1485 3571 1485 2432 
C 1485 1293 1030 346 294 -416 
L 678 -614 
C 1446 166 1952 1184 1952 2432 
z
" transform="scale(0.015625)"/>
     </defs>
     <use xlink:href="#NotoSansCJKjp-Regular-e6ae"/>
     <use xlink:href="#NotoSansCJKjp-Regular-4105" transform="translate(100 0)"/>
     <use xlink:href="#NotoSansCJKjp-Regular-2e93" transform="translate(200 0)"/>
     <use xlink:href="#NotoSansCJKjp-Regular-9fa7" transform="translate(300 0)"/>
     <use xlink:href="#NotoSansCJKjp-Regular-3dc8" transform="translate(400 0)"/>
     <use xlink:href="#NotoSansCJKjp-Regular-9f49" transform="translate(500 0)"/>
     <use xlink:href="#NotoSansCJKjp-Regular-5a6f" transform="translate(600 0)"/>
     <use xlink:href="#NotoSansCJKjp-Regular-95ec" transform="translate(700 0)"/>
     <use xlink:href="#NotoSansCJKjp-Regular-e6af" transform="translate(800 0)"/>
    </g>
   </g>
   <g id="text_12">
    <!-- 被重複算了 4 次，要除掉： -->
    <g style="fill: #d1242f" transform="translate(455.378469 269.362) scale(0.125 -0.125)">
     <defs>
      <path id="NotoSansCJKjp-Regular-9007" d="M 4205 2848 
L 3277 2848 
L 3277 3942 
L 4205 3942 
L 4205 2848 
z
M 2822 4384 
L 2822 2842 
C 2822 1920 2752 640 2086 -269 
C 2202 -320 2394 -435 2477 -518 
C 3078 307 3238 1485 3270 2426 
L 3315 2426 
C 3520 1747 3821 1158 4218 672 
C 3834 314 3392 45 2931 -122 
C 3034 -218 3155 -397 3219 -518 
C 3693 -320 4141 -45 4531 320 
C 4909 -45 5363 -333 5888 -531 
C 5958 -397 6099 -211 6214 -109 
C 5690 58 5235 320 4864 666 
C 5325 1203 5683 1894 5875 2758 
L 5568 2874 
L 5485 2848 
L 4678 2848 
L 4678 3942 
L 5574 3942 
C 5504 3648 5421 3341 5338 3136 
L 5747 3046 
C 5888 3366 6029 3878 6138 4326 
L 5805 4403 
L 5722 4384 
L 4678 4384 
L 4678 5370 
L 4205 5370 
L 4205 4384 
L 2822 4384 
z
M 3763 2426 
L 5306 2426 
C 5133 1882 4864 1402 4538 1011 
C 4205 1414 3942 1888 3763 2426 
z
M 2394 3040 
C 2291 2848 2112 2586 1952 2381 
L 1734 2624 
C 2054 3059 2323 3539 2515 4032 
L 2259 4205 
L 2176 4186 
L 1632 4186 
L 1632 5357 
L 1178 5357 
L 1178 4186 
L 314 4186 
L 314 3750 
L 1933 3750 
C 1542 2931 832 2138 160 1696 
C 237 1613 358 1395 410 1274 
C 672 1466 941 1702 1197 1978 
L 1197 -518 
L 1651 -518 
L 1651 2182 
C 1888 1882 2170 1510 2291 1306 
L 2579 1632 
L 2157 2144 
C 2330 2336 2522 2586 2694 2822 
L 2394 3040 
z
" transform="scale(0.015625)"/>
      <path id="NotoSansCJKjp-Regular-a106" d="M 1018 3456 
L 1018 1466 
L 2938 1466 
L 2938 1024 
L 813 1024 
L 813 640 
L 2938 640 
L 2938 83 
L 333 83 
L 333 -307 
L 6074 -307 
L 6074 83 
L 3418 83 
L 3418 640 
L 5670 640 
L 5670 1024 
L 3418 1024 
L 3418 1466 
L 5427 1466 
L 5427 3456 
L 3418 3456 
L 3418 3846 
L 6042 3846 
L 6042 4243 
L 3418 4243 
L 3418 4736 
C 4166 4794 4870 4870 5421 4966 
L 5165 5338 
C 4154 5158 2342 5037 851 4998 
C 896 4902 947 4730 954 4621 
C 1581 4634 2266 4659 2938 4698 
L 2938 4243 
L 371 4243 
L 371 3846 
L 2938 3846 
L 2938 3456 
L 1018 3456 
z
M 1485 2304 
L 2938 2304 
L 2938 1818 
L 1485 1818 
L 1485 2304 
z
M 3418 2304 
L 4941 2304 
L 4941 1818 
L 3418 1818 
L 3418 2304 
z
M 1485 3110 
L 2938 3110 
L 2938 2630 
L 1485 2630 
L 1485 3110 
z
M 3418 3110 
L 4941 3110 
L 4941 2630 
L 3418 2630 
L 3418 3110 
z
" transform="scale(0.015625)"/>
      <path id="NotoSansCJKjp-Regular-90be" d="M 3392 2842 
L 5261 2842 
L 5261 2413 
L 3392 2413 
L 3392 2842 
z
M 3392 3578 
L 5261 3578 
L 5261 3155 
L 3392 3155 
L 3392 3578 
z
M 5062 1306 
C 4870 1030 4608 794 4301 602 
C 4000 800 3750 1037 3565 1306 
L 5062 1306 
z
M 3290 5376 
C 3110 4877 2778 4237 2298 3757 
C 2406 3699 2554 3571 2637 3475 
C 2752 3597 2854 3718 2950 3846 
L 2950 2080 
L 3680 2080 
C 3386 1664 2899 1210 2240 864 
C 2342 800 2490 653 2560 550 
C 2816 698 3046 864 3251 1030 
C 3430 787 3642 570 3885 378 
C 3386 147 2810 -13 2202 -109 
C 2291 -198 2413 -403 2458 -518 
C 3110 -390 3744 -198 4282 96 
C 4755 -192 5318 -397 5933 -512 
C 6003 -390 6131 -198 6234 -96 
C 5670 -6 5158 147 4717 365 
C 5139 666 5485 1043 5715 1523 
L 5427 1696 
L 5338 1677 
L 3910 1677 
C 4026 1811 4128 1946 4218 2080 
L 5722 2080 
L 5722 3910 
L 3002 3910 
C 3098 4045 3187 4186 3270 4326 
L 6106 4326 
L 6106 4736 
L 3494 4736 
C 3590 4928 3674 5120 3744 5306 
L 3290 5376 
z
M 2278 2995 
C 2182 2803 2022 2528 1882 2317 
L 1664 2579 
C 1939 3027 2170 3520 2336 4019 
L 2086 4179 
L 2003 4160 
L 1574 4160 
L 1574 5344 
L 1133 5344 
L 1133 4160 
L 346 4160 
L 346 3738 
L 1798 3738 
C 1446 2861 806 1984 186 1485 
C 269 1408 390 1197 435 1082 
C 672 1293 922 1549 1152 1843 
L 1152 -512 
L 1587 -512 
L 1587 2138 
C 1805 1843 2054 1485 2157 1286 
L 2445 1613 
L 2080 2074 
C 2234 2272 2413 2541 2566 2784 
L 2278 2995 
z
" transform="scale(0.015625)"/>
      <path id="NotoSansCJKjp-Regular-7540" d="M 1613 2925 
L 4890 2925 
L 4890 2547 
L 1613 2547 
L 1613 2925 
z
M 1613 2240 
L 4890 2240 
L 4890 1856 
L 1613 1856 
L 1613 2240 
z
M 1613 3597 
L 4890 3597 
L 4890 3232 
L 1613 3232 
L 1613 3597 
z
M 3686 5408 
C 3507 4915 3181 4448 2790 4141 
C 2899 4096 3085 3994 3181 3923 
L 1894 3923 
L 2259 4058 
C 2214 4179 2118 4352 2016 4506 
L 3117 4506 
L 3117 4902 
L 1427 4902 
C 1498 5030 1562 5158 1619 5286 
L 1171 5408 
C 966 4909 614 4410 224 4083 
C 333 4019 525 3891 614 3814 
C 813 4000 1011 4243 1184 4506 
L 1517 4506 
C 1645 4314 1773 4077 1837 3923 
L 1133 3923 
L 1133 1530 
L 1990 1530 
L 1990 1114 
L 1984 973 
L 358 973 
L 358 576 
L 1830 576 
C 1651 307 1267 38 461 -160 
C 563 -250 698 -416 762 -518 
C 1786 -224 2214 179 2381 576 
L 4109 576 
L 4109 -499 
L 4602 -499 
L 4602 576 
L 6067 576 
L 6067 973 
L 4602 973 
L 4602 1530 
L 5389 1530 
L 5389 3923 
L 4749 3923 
L 5094 4083 
C 5030 4205 4915 4358 4787 4506 
L 6016 4506 
L 6016 4902 
L 3968 4902 
C 4038 5030 4096 5165 4147 5299 
L 3686 5408 
z
M 4109 973 
L 2470 973 
L 2477 1101 
L 2477 1530 
L 4109 1530 
L 4109 973 
z
M 3232 3923 
C 3405 4083 3578 4282 3731 4506 
L 4243 4506 
C 4416 4320 4595 4090 4678 3923 
L 3232 3923 
z
" transform="scale(0.015625)"/>
      <path id="NotoSansCJKjp-Regular-25bc" d="M 627 4877 
L 627 4403 
L 4774 4403 
C 4371 3981 3808 3514 3277 3194 
L 2957 3194 
L 2957 115 
C 2957 0 2912 -38 2778 -38 
C 2630 -45 2131 -45 1600 -32 
C 1677 -166 1773 -378 1798 -512 
C 2451 -512 2874 -512 3123 -435 
C 3373 -358 3462 -218 3462 109 
L 3462 2771 
C 4243 3226 5126 3962 5690 4634 
L 5318 4909 
L 5203 4877 
L 627 4877 
z
" transform="scale(0.015625)"/>
      <path id="NotoSansCJKjp-Regular-57df" d="M 243 806 
L 557 410 
C 986 826 1530 1382 2003 1901 
L 1734 2310 
C 1197 1741 614 1158 243 806 
z
M 448 4602 
C 858 4314 1363 3891 1606 3610 
L 1965 4006 
C 1715 4282 1197 4685 787 4947 
L 448 4602 
z
M 2854 5363 
C 2630 4339 2240 3334 1696 2707 
C 1824 2650 2054 2515 2157 2438 
C 2426 2797 2662 3245 2874 3750 
L 3654 3750 
L 3654 2931 
C 3654 2330 3322 653 1370 -115 
C 1459 -211 1606 -403 1664 -512 
C 3206 141 3795 1427 3904 2029 
C 4000 1434 4544 102 5894 -512 
C 5965 -397 6112 -198 6208 -83 
C 4461 672 4147 2368 4154 2931 
L 4154 3750 
L 5485 3750 
C 5350 3322 5152 2848 4986 2547 
C 5101 2502 5286 2400 5389 2349 
C 5626 2778 5926 3443 6099 4058 
L 5747 4250 
L 5651 4224 
L 3053 4224 
C 3168 4557 3270 4915 3354 5274 
L 2854 5363 
z
" transform="scale(0.015625)"/>
      <path id="NotoSansCJKjp-Regular-91d0" d="M 762 4128 
L 762 2470 
L 2458 2470 
L 2074 1882 
L 294 1882 
L 294 1478 
L 1792 1478 
C 1549 1133 1306 800 1107 550 
L 1562 390 
L 1696 563 
C 2086 486 2470 403 2848 314 
C 2214 90 1395 -32 378 -83 
C 461 -192 538 -371 570 -506 
C 1837 -416 2816 -224 3546 141 
C 4358 -70 5082 -307 5626 -525 
L 5920 -134 
C 5421 58 4768 262 4038 454 
C 4384 723 4653 1056 4838 1478 
L 6112 1478 
L 6112 1882 
L 2624 1882 
L 2982 2426 
L 2810 2470 
L 5683 2470 
L 5683 4128 
L 4141 4128 
L 4141 4672 
L 5952 4672 
L 5952 5101 
L 442 5101 
L 442 4672 
L 2189 4672 
L 2189 4128 
L 762 4128 
z
M 2355 1478 
L 4307 1478 
C 4102 1114 3821 819 3450 595 
C 2963 710 2458 819 1952 915 
L 2355 1478 
z
M 2643 4672 
L 3686 4672 
L 3686 4128 
L 2643 4128 
L 2643 4672 
z
M 1216 3731 
L 2189 3731 
L 2189 2861 
L 1216 2861 
L 1216 3731 
z
M 2643 3731 
L 3686 3731 
L 3686 2861 
L 2643 2861 
L 2643 3731 
z
M 4141 3731 
L 5210 3731 
L 5210 2861 
L 4141 2861 
L 4141 3731 
z
" transform="scale(0.015625)"/>
      <path id="NotoSansCJKjp-Regular-a89c" d="M 4128 4922 
C 4544 4301 5286 3597 5952 3181 
C 6022 3302 6131 3482 6221 3584 
C 5536 3955 4794 4653 4326 5363 
L 3891 5363 
C 3546 4710 2829 3955 2099 3526 
C 2182 3430 2291 3264 2342 3149 
C 3072 3603 3763 4320 4128 4922 
z
M 2912 1536 
C 2720 1018 2413 512 2054 173 
C 2150 109 2323 -32 2400 -109 
C 2765 269 3123 851 3334 1434 
L 2912 1536 
z
M 4838 1370 
C 5171 915 5555 307 5709 -77 
L 6106 128 
C 5939 512 5555 1107 5203 1549 
L 4838 1370 
z
M 2490 2298 
L 2490 1882 
L 3910 1882 
L 3910 38 
C 3910 -45 3891 -64 3808 -70 
C 3718 -70 3456 -70 3155 -64 
C 3219 -192 3296 -390 3315 -512 
C 3718 -512 3981 -506 4147 -429 
C 4320 -352 4371 -218 4371 32 
L 4371 1882 
L 5901 1882 
L 5901 2298 
L 4371 2298 
L 4371 3098 
L 5402 3098 
L 5402 3507 
L 2918 3507 
L 2918 3098 
L 3910 3098 
L 3910 2298 
L 2490 2298 
z
M 518 5101 
L 518 -512 
L 947 -512 
L 947 4666 
L 1786 4666 
C 1651 4230 1459 3648 1274 3181 
C 1734 2682 1856 2253 1856 1901 
C 1856 1709 1818 1536 1722 1466 
C 1670 1427 1600 1414 1517 1408 
C 1414 1402 1293 1408 1146 1414 
C 1216 1293 1261 1107 1267 992 
C 1408 986 1568 992 1696 1005 
C 1830 1018 1939 1056 2029 1120 
C 2208 1242 2285 1510 2285 1856 
C 2285 2253 2176 2707 1709 3238 
C 1926 3750 2163 4403 2349 4934 
L 2035 5120 
L 1965 5101 
L 518 5101 
z
" transform="scale(0.015625)"/>
      <path id="NotoSansCJKjp-Regular-4aa8" d="M 2925 2502 
L 5222 2502 
L 5222 1914 
L 2925 1914 
L 2925 2502 
z
M 2925 3456 
L 5222 3456 
L 5222 2874 
L 2925 2874 
L 2925 3456 
z
M 1062 5376 
L 1062 4096 
L 282 4096 
L 282 3642 
L 1062 3642 
L 1062 2234 
L 224 1990 
L 352 1523 
L 1062 1754 
L 1062 83 
C 1062 -6 1030 -38 941 -38 
C 858 -45 582 -45 282 -38 
C 339 -160 410 -358 429 -480 
C 870 -480 1139 -467 1306 -397 
C 1472 -320 1542 -192 1542 83 
L 1542 1907 
L 2278 2157 
L 2234 2598 
L 1542 2381 
L 1542 3642 
L 2246 3642 
L 2246 4096 
L 1542 4096 
L 1542 5376 
L 1062 5376 
z
M 2464 3840 
L 2464 1530 
L 3853 1530 
L 3853 979 
L 2067 979 
L 2067 550 
L 3853 550 
L 3853 -512 
L 4326 -512 
L 4326 550 
L 6131 550 
L 6131 979 
L 4326 979 
L 4326 1530 
L 5696 1530 
L 5696 3840 
L 4320 3840 
L 4320 4416 
L 6067 4416 
L 6067 4832 
L 4320 4832 
L 4320 5376 
L 3846 5376 
L 3846 3840 
L 2464 3840 
z
" transform="scale(0.015625)"/>
     </defs>
     <use xlink:href="#NotoSansCJKjp-Regular-9007"/>
     <use xlink:href="#NotoSansCJKjp-Regular-a106" transform="translate(100 0)"/>
     <use xlink:href="#NotoSansCJKjp-Regular-90be" transform="translate(200 0)"/>
     <use xlink:href="#NotoSansCJKjp-Regular-7540" transform="translate(300 0)"/>
     <use xlink:href="#NotoSansCJKjp-Regular-25bc" transform="translate(400 0)"/>
     <use xlink:href="#NotoSansCJKjp-Regular-1" transform="translate(500 0)"/>
     <use xlink:href="#NotoSansCJKjp-Regular-15" transform="translate(522.40625 0)"/>
     <use xlink:href="#NotoSansCJKjp-Regular-1" transform="translate(577.90625 0)"/>
     <use xlink:href="#NotoSansCJKjp-Regular-57df" transform="translate(600.3125 0)"/>
     <use xlink:href="#NotoSansCJKjp-Regular-e6b2" transform="translate(700.3125 0)"/>
     <use xlink:href="#NotoSansCJKjp-Regular-91d0" transform="translate(800.3125 0)"/>
     <use xlink:href="#NotoSansCJKjp-Regular-a89c" transform="translate(900.3125 0)"/>
     <use xlink:href="#NotoSansCJKjp-Regular-4aa8" transform="translate(1000.3125 0)"/>
     <use xlink:href="#NotoSansCJKjp-Regular-e6c0" transform="translate(1100.3125 0)"/>
    </g>
   </g>
   <g id="text_13">
    <!-- $\frac{4!}{4} = (4-1)! = 3! = 6$ 種 -->
    <g style="fill: #8250df" transform="translate(451.798 307.144) scale(0.15 -0.15)">
     <defs>
      <path id="Cmr10-77" d="M 1984 -1588 
Q 1628 -1306 1370 -942 
Q 1113 -578 948 -165 
Q 784 247 703 697 
Q 622 1147 622 1600 
Q 622 2059 703 2509 
Q 784 2959 951 3375 
Q 1119 3791 1378 4153 
Q 1638 4516 1984 4788 
Q 1984 4800 2016 4800 
L 2075 4800 
Q 2094 4800 2109 4783 
Q 2125 4766 2125 4744 
Q 2125 4716 2113 4703 
Q 1800 4397 1592 4047 
Q 1384 3697 1257 3301 
Q 1131 2906 1075 2482 
Q 1019 2059 1019 1600 
Q 1019 -434 2106 -1491 
Q 2125 -1509 2125 -1544 
Q 2125 -1559 2108 -1579 
Q 2091 -1600 2075 -1600 
L 2016 -1600 
Q 1984 -1600 1984 -1588 
z
" transform="scale(0.015625)"/>
      <path id="Cmsy10-11" d="M 653 1472 
Q 600 1472 565 1512 
Q 531 1553 531 1600 
Q 531 1647 565 1687 
Q 600 1728 653 1728 
L 4325 1728 
Q 4375 1728 4408 1687 
Q 4441 1647 4441 1600 
Q 4441 1553 4408 1512 
Q 4375 1472 4325 1472 
L 653 1472 
z
" transform="scale(0.015625)"/>
      <path id="Cmr10-64" d="M 594 0 
L 594 225 
Q 1394 225 1394 428 
L 1394 3788 
Q 1063 3628 556 3628 
L 556 3853 
Q 1341 3853 1741 4263 
L 1831 4263 
Q 1853 4263 1873 4245 
Q 1894 4228 1894 4206 
L 1894 428 
Q 1894 225 2694 225 
L 2694 0 
L 594 0 
z
" transform="scale(0.015625)"/>
      <path id="Cmr10-44" d="M 416 -1600 
Q 359 -1600 359 -1544 
Q 359 -1516 372 -1503 
Q 1466 -434 1466 1600 
Q 1466 3634 384 4691 
Q 359 4706 359 4744 
Q 359 4766 376 4783 
Q 394 4800 416 4800 
L 475 4800 
Q 494 4800 506 4788 
Q 966 4425 1272 3906 
Q 1578 3388 1720 2800 
Q 1863 2213 1863 1600 
Q 1863 1147 1786 708 
Q 1709 269 1542 -157 
Q 1375 -584 1119 -945 
Q 863 -1306 506 -1588 
Q 494 -1600 475 -1600 
L 416 -1600 
z
" transform="scale(0.015625)"/>
      <path id="Cmr10-6e" d="M 609 494 
Q 759 275 1012 169 
Q 1266 63 1556 63 
Q 1928 63 2084 380 
Q 2241 697 2241 1100 
Q 2241 1281 2208 1462 
Q 2175 1644 2097 1800 
Q 2019 1956 1883 2050 
Q 1747 2144 1550 2144 
L 1125 2144 
Q 1069 2144 1069 2203 
L 1069 2259 
Q 1069 2309 1125 2309 
L 1478 2338 
Q 1703 2338 1851 2506 
Q 2000 2675 2069 2917 
Q 2138 3159 2138 3378 
Q 2138 3684 1994 3881 
Q 1850 4078 1556 4078 
Q 1313 4078 1091 3986 
Q 869 3894 738 3706 
Q 750 3709 759 3711 
Q 769 3713 781 3713 
Q 925 3713 1022 3613 
Q 1119 3513 1119 3372 
Q 1119 3234 1022 3134 
Q 925 3034 781 3034 
Q 641 3034 541 3134 
Q 441 3234 441 3372 
Q 441 3647 606 3850 
Q 772 4053 1033 4158 
Q 1294 4263 1556 4263 
Q 1750 4263 1965 4205 
Q 2181 4147 2356 4039 
Q 2531 3931 2642 3762 
Q 2753 3594 2753 3378 
Q 2753 3109 2633 2881 
Q 2513 2653 2303 2487 
Q 2094 2322 1844 2241 
Q 2122 2188 2372 2031 
Q 2622 1875 2773 1631 
Q 2925 1388 2925 1106 
Q 2925 753 2731 467 
Q 2538 181 2222 20 
Q 1906 -141 1556 -141 
Q 1256 -141 954 -26 
Q 653 88 461 316 
Q 269 544 269 863 
Q 269 1022 375 1128 
Q 481 1234 641 1234 
Q 744 1234 830 1186 
Q 916 1138 964 1050 
Q 1013 963 1013 863 
Q 1013 706 903 600 
Q 794 494 641 494 
L 609 494 
z
" transform="scale(0.015625)"/>
      <path id="Cmr10-45" d="M 1600 -141 
Q 1203 -141 937 70 
Q 672 281 526 617 
Q 381 953 325 1322 
Q 269 1691 269 2069 
Q 269 2575 466 3084 
Q 663 3594 1045 3928 
Q 1428 4263 1953 4263 
Q 2172 4263 2361 4180 
Q 2550 4097 2658 3936 
Q 2766 3775 2766 3547 
Q 2766 3416 2677 3327 
Q 2588 3238 2456 3238 
Q 2331 3238 2240 3328 
Q 2150 3419 2150 3547 
Q 2150 3672 2240 3762 
Q 2331 3853 2456 3853 
L 2491 3853 
Q 2409 3969 2261 4023 
Q 2113 4078 1953 4078 
Q 1759 4078 1595 3993 
Q 1431 3909 1300 3765 
Q 1169 3622 1081 3448 
Q 994 3275 945 3053 
Q 897 2831 884 2637 
Q 872 2444 872 2150 
Q 984 2413 1190 2580 
Q 1397 2747 1656 2747 
Q 1941 2747 2175 2631 
Q 2409 2516 2578 2311 
Q 2747 2106 2836 1843 
Q 2925 1581 2925 1313 
Q 2925 938 2758 598 
Q 2591 259 2287 59 
Q 1984 -141 1600 -141 
z
M 1600 63 
Q 1847 63 1997 175 
Q 2147 288 2217 473 
Q 2288 659 2305 848 
Q 2322 1038 2322 1313 
Q 2322 1675 2287 1931 
Q 2253 2188 2100 2383 
Q 1947 2578 1631 2578 
Q 1372 2578 1205 2403 
Q 1038 2228 961 1961 
Q 884 1694 884 1447 
Q 884 1363 891 1319 
Q 891 1309 889 1303 
Q 888 1297 884 1288 
Q 884 1013 940 731 
Q 997 450 1156 256 
Q 1316 63 1600 63 
z
" transform="scale(0.015625)"/>
     </defs>
     <use xlink:href="#Cmr10-3b" transform="translate(6.25 34.895313) scale(0.7)"/>
     <use xlink:href="#Cmr10-1d" transform="translate(41.25 34.895313) scale(0.7)"/>
     <use xlink:href="#Cmr10-3b" transform="translate(23.25 -30.48125) scale(0.7)"/>
     <use xlink:href="#Cmr10-29" transform="translate(100.87998 0.520313)"/>
     <use xlink:href="#Cmr10-77" transform="translate(198.565584 0.520313)"/>
     <use xlink:href="#Cmr10-3b" transform="translate(237.383944 0.520313)"/>
     <use xlink:href="#Cmsy10-11" transform="translate(307.384001 0.520313)"/>
     <use xlink:href="#Cmr10-64" transform="translate(405.069605 0.520313)"/>
     <use xlink:href="#Cmr10-44" transform="translate(455.069605 0.520313)"/>
     <use xlink:href="#Cmr10-1d" transform="translate(493.887964 0.520313)"/>
     <use xlink:href="#Cmr10-29" transform="translate(561.573626 0.520313)"/>
     <use xlink:href="#Cmr10-6e" transform="translate(659.25923 0.520313)"/>
     <use xlink:href="#Cmr10-1d" transform="translate(709.25923 0.520313)"/>
     <use xlink:href="#Cmr10-29" transform="translate(776.944891 0.520313)"/>
     <use xlink:href="#Cmr10-45" transform="translate(874.630495 0.520313)"/>
     <use xlink:href="#NotoSansCJKjp-Regular-1" transform="translate(924.630495 0.520313)"/>
     <use xlink:href="#NotoSansCJKjp-Regular-724a" transform="translate(947.030474 0.520313)"/>
     <path d="M 6.25 22.395313 
L 6.25 28.645313 
L 74.629923 28.645313 
L 74.629923 22.395313 
L 6.25 22.395313 
z
"/>
    </g>
   </g>
   <g id="text_14">
    <!-- 環狀排列：旋轉視為同一種 -->
    <g style="fill: #222831" transform="translate(455.398 66.952) scale(0.125 -0.125)">
     <defs>
      <path id="NotoSansCJKjp-Regular-68aa" d="M 2221 3482 
L 2221 3085 
L 6157 3085 
L 6157 3482 
L 2221 3482 
z
M 3053 2362 
L 5261 2362 
L 5261 1715 
L 3053 1715 
L 3053 2362 
z
M 4813 4813 
L 5434 4813 
L 5434 4186 
L 4813 4186 
L 4813 4813 
z
M 3853 4813 
L 4474 4813 
L 4474 4186 
L 3853 4186 
L 3853 4813 
z
M 2925 4813 
L 3520 4813 
L 3520 4186 
L 2925 4186 
L 2925 4813 
z
M 2522 5165 
L 2522 3840 
L 5850 3840 
L 5850 5165 
L 2522 5165 
z
M 218 909 
L 326 448 
C 915 621 1683 851 2413 1075 
L 2355 1504 
L 1523 1261 
L 1523 2643 
L 2189 2643 
L 2189 3078 
L 1523 3078 
L 1523 4493 
L 2285 4493 
L 2285 4928 
L 288 4928 
L 288 4493 
L 1082 4493 
L 1082 3078 
L 352 3078 
L 352 2643 
L 1082 2643 
L 1082 1139 
L 218 909 
z
M 5658 1293 
C 5446 1126 5088 883 4813 723 
C 4646 915 4506 1126 4397 1344 
L 5709 1344 
L 5709 2726 
L 2624 2726 
L 2624 1344 
L 3789 1344 
C 3251 870 2451 435 1766 218 
C 1862 128 1990 -26 2054 -134 
C 2528 45 3059 326 3526 659 
L 3526 -512 
L 3981 -512 
L 3981 1018 
L 4096 1120 
C 4454 371 5062 -230 5837 -512 
C 5901 -397 6042 -224 6144 -134 
C 5728 -13 5363 198 5056 474 
C 5350 621 5715 832 5997 1030 
L 5658 1293 
z
" transform="scale(0.015625)"/>
      <path id="NotoSansCJKjp-Regular-657b" d="M 4742 4986 
C 5062 4634 5427 4141 5581 3821 
L 5990 4038 
C 5824 4358 5453 4826 5120 5171 
L 4742 4986 
z
M 3949 5376 
L 3949 3622 
L 3949 3482 
L 2554 3482 
L 2554 3002 
L 3936 3002 
C 3872 1907 3578 749 2330 -154 
L 2330 5376 
L 1882 5376 
L 1882 3520 
L 986 3520 
L 986 5101 
L 544 5101 
L 544 3091 
L 749 3091 
L 1882 3085 
L 1882 2176 
L 294 2176 
L 294 1734 
L 787 1734 
L 787 1549 
C 787 1094 710 371 243 -141 
C 358 -192 531 -301 621 -371 
C 1133 186 1229 1011 1229 1542 
L 1229 1734 
L 1882 1734 
L 1882 -506 
L 2330 -506 
L 2330 -173 
C 2438 -250 2579 -422 2643 -525 
C 3635 198 4077 1069 4269 1965 
C 4486 1069 4909 77 5843 -480 
C 5926 -352 6067 -192 6202 -96 
C 4954 608 4640 2080 4538 3002 
L 6125 3002 
L 6125 3482 
L 4416 3482 
L 4416 3622 
L 4416 5376 
L 3949 5376 
z
" transform="scale(0.015625)"/>
      <path id="NotoSansCJKjp-Regular-91f1" d="M 3469 3603 
L 5254 3603 
L 5254 2925 
L 3469 2925 
L 3469 3603 
z
M 3469 2541 
L 5254 2541 
L 5254 1862 
L 3469 1862 
L 3469 2541 
z
M 3469 4653 
L 5254 4653 
L 5254 3981 
L 3469 3981 
L 3469 4653 
z
M 3021 5050 
L 3021 1466 
L 3533 1466 
C 3437 710 3174 160 2266 -147 
C 2362 -230 2496 -403 2547 -512 
C 3558 -134 3878 538 4000 1466 
L 4512 1466 
L 4512 122 
C 4512 -326 4614 -467 5069 -467 
C 5152 -467 5568 -467 5664 -467 
C 6035 -467 6157 -269 6195 538 
C 6074 570 5888 634 5798 710 
C 5786 38 5760 -58 5613 -58 
C 5523 -58 5197 -58 5126 -58 
C 4979 -58 4954 -26 4954 122 
L 4954 1466 
L 5715 1466 
L 5715 5050 
L 3021 5050 
z
M 1293 5376 
L 1293 4173 
L 358 4173 
L 358 3738 
L 2042 3738 
C 1613 2886 851 2074 122 1619 
C 198 1530 320 1312 371 1184 
C 678 1395 992 1658 1293 1971 
L 1293 -512 
L 1760 -512 
L 1760 2221 
C 2035 1946 2381 1574 2534 1376 
L 2829 1773 
C 2688 1914 2157 2413 1875 2656 
C 2189 3078 2458 3539 2643 4019 
L 2374 4192 
L 2291 4173 
L 1760 4173 
L 1760 5376 
L 1293 5376 
z
" transform="scale(0.015625)"/>
      <path id="NotoSansCJKjp-Regular-61a1" d="M 4083 1197 
C 4275 934 4474 563 4550 326 
L 4902 474 
C 4826 704 4621 1069 4416 1325 
L 4083 1197 
z
M 1312 5184 
C 1562 4915 1830 4544 1946 4294 
L 2387 4499 
C 2259 4742 1978 5107 1734 5357 
L 1312 5184 
z
M 2182 1043 
C 2298 627 2368 96 2349 -250 
L 2771 -186 
C 2771 160 2707 685 2579 1094 
L 2182 1043 
z
M 3130 1101 
C 3283 742 3437 275 3482 -26 
L 3885 83 
C 3827 378 3674 838 3501 1184 
L 3130 1101 
z
M 1363 1184 
C 1242 691 992 122 640 -218 
L 1011 -474 
C 1395 -90 1619 525 1766 1056 
L 1363 1184 
z
M 3251 5382 
C 3142 5011 3008 4640 2848 4282 
L 525 4282 
L 525 3840 
L 2637 3840 
C 2086 2765 1280 1798 192 1178 
C 275 1075 397 890 454 774 
C 832 998 1178 1254 1491 1542 
L 5472 1542 
C 5370 525 5267 96 5126 -32 
C 5069 -90 5005 -96 4890 -96 
C 4768 -102 4461 -96 4134 -64 
C 4211 -192 4269 -378 4275 -506 
C 4608 -525 4922 -525 5088 -512 
C 5280 -499 5402 -461 5523 -333 
C 5728 -128 5843 410 5965 1760 
C 5971 1824 5984 1965 5984 1965 
L 5286 1965 
C 5370 2298 5459 2746 5530 3123 
L 4800 3123 
C 4883 3456 4979 3898 5050 4282 
L 3373 4282 
C 3507 4602 3629 4928 3738 5261 
L 3251 5382 
z
M 1914 1965 
C 2125 2195 2323 2445 2502 2701 
L 5005 2701 
C 4960 2445 4896 2182 4838 1965 
L 1914 1965 
z
M 3168 3840 
L 4518 3840 
C 4467 3584 4410 3328 4352 3123 
L 2778 3123 
C 2918 3354 3046 3597 3168 3840 
z
" transform="scale(0.015625)"/>
     </defs>
     <use xlink:href="#NotoSansCJKjp-Regular-68aa"/>
     <use xlink:href="#NotoSansCJKjp-Regular-657b" transform="translate(100 0)"/>
     <use xlink:href="#NotoSansCJKjp-Regular-4ab6" transform="translate(200 0)"/>
     <use xlink:href="#NotoSansCJKjp-Regular-2b9b" transform="translate(300 0)"/>
     <use xlink:href="#NotoSansCJKjp-Regular-e6c0" transform="translate(400 0)"/>
     <use xlink:href="#NotoSansCJKjp-Regular-4ec3" transform="translate(500 0)"/>
     <use xlink:href="#NotoSansCJKjp-Regular-9bba" transform="translate(600 0)"/>
     <use xlink:href="#NotoSansCJKjp-Regular-91f1" transform="translate(700 0)"/>
     <use xlink:href="#NotoSansCJKjp-Regular-61a1" transform="translate(800 0)"/>
     <use xlink:href="#NotoSansCJKjp-Regular-2eb1" transform="translate(900 0)"/>
     <use xlink:href="#NotoSansCJKjp-Regular-2509" transform="translate(1000 0)"/>
     <use xlink:href="#NotoSansCJKjp-Regular-724a" transform="translate(1100 0)"/>
    </g>
   </g>
  </g>
  <g id="text_15">
   <!-- 環狀排列：$n$ 人圍圓桌 $=(n-1)!$（整體旋轉算同一種） -->
   <g style="fill: #222831" transform="translate(163.929 19.52) scale(0.14 -0.14)">
    <defs>
     <path id="Cmmi10-7a" d="M 494 109 
Q 494 147 500 166 
L 978 2075 
Q 1025 2253 1025 2388 
Q 1025 2663 838 2663 
Q 638 2663 541 2423 
Q 444 2184 353 1819 
Q 353 1800 334 1789 
Q 316 1778 300 1778 
L 225 1778 
Q 203 1778 187 1801 
Q 172 1825 172 1844 
Q 241 2122 305 2315 
Q 369 2509 505 2668 
Q 641 2828 844 2828 
Q 1084 2828 1268 2676 
Q 1453 2525 1453 2291 
Q 1644 2541 1900 2684 
Q 2156 2828 2444 2828 
Q 2672 2828 2837 2750 
Q 3003 2672 3095 2514 
Q 3188 2356 3188 2138 
Q 3188 1875 3070 1503 
Q 2953 1131 2778 672 
Q 2688 463 2688 288 
Q 2688 97 2834 97 
Q 3084 97 3251 365 
Q 3419 634 3488 941 
Q 3500 978 3541 978 
L 3616 978 
Q 3641 978 3658 962 
Q 3675 947 3675 922 
Q 3675 916 3669 903 
Q 3581 541 3364 234 
Q 3147 -72 2822 -72 
Q 2597 -72 2437 83 
Q 2278 238 2278 459 
Q 2278 578 2328 709 
Q 2409 919 2514 1209 
Q 2619 1500 2686 1765 
Q 2753 2031 2753 2234 
Q 2753 2413 2679 2538 
Q 2606 2663 2431 2663 
Q 2197 2663 2000 2559 
Q 1803 2456 1656 2286 
Q 1509 2116 1388 1881 
L 953 141 
Q 931 53 854 -9 
Q 778 -72 684 -72 
Q 606 -72 550 -22 
Q 494 28 494 109 
z
" transform="scale(0.015625)"/>
     <path id="NotoSansCJKjp-Regular-2614" d="M 2867 5178 
C 2829 4333 2829 1254 211 -83 
C 365 -186 518 -333 602 -454 
C 2234 429 2893 1978 3174 3270 
C 3488 1978 4205 339 5856 -454 
C 5933 -326 6080 -160 6227 -51 
C 3782 1062 3443 4064 3386 4890 
L 3405 5178 
L 2867 5178 
z
" transform="scale(0.015625)"/>
    </defs>
    <use xlink:href="#NotoSansCJKjp-Regular-68aa" transform="translate(0 0.40625)"/>
    <use xlink:href="#NotoSansCJKjp-Regular-657b" transform="translate(99.999908 0.40625)"/>
    <use xlink:href="#NotoSansCJKjp-Regular-4ab6" transform="translate(199.999817 0.40625)"/>
    <use xlink:href="#NotoSansCJKjp-Regular-2b9b" transform="translate(299.999725 0.40625)"/>
    <use xlink:href="#NotoSansCJKjp-Regular-e6c0" transform="translate(399.999634 0.40625)"/>
    <use xlink:href="#Cmmi10-7a" transform="translate(499.999542 0.40625)"/>
    <use xlink:href="#NotoSansCJKjp-Regular-1" transform="translate(560.009308 0.40625)"/>
    <use xlink:href="#NotoSansCJKjp-Regular-2614" transform="translate(582.409286 0.40625)"/>
    <use xlink:href="#NotoSansCJKjp-Regular-339e" transform="translate(682.409195 0.40625)"/>
    <use xlink:href="#NotoSansCJKjp-Regular-33a8" transform="translate(782.409103 0.40625)"/>
    <use xlink:href="#NotoSansCJKjp-Regular-52cf" transform="translate(882.409012 0.40625)"/>
    <use xlink:href="#NotoSansCJKjp-Regular-1" transform="translate(982.40892 0.40625)"/>
    <use xlink:href="#Cmr10-29" transform="translate(1024.808956 0.40625)"/>
    <use xlink:href="#Cmr10-77" transform="translate(1122.49456 0.40625)"/>
    <use xlink:href="#Cmmi10-7a" transform="translate(1161.31292 0.40625)"/>
    <use xlink:href="#Cmsy10-11" transform="translate(1241.322742 0.40625)"/>
    <use xlink:href="#Cmr10-64" transform="translate(1339.008347 0.40625)"/>
    <use xlink:href="#Cmr10-44" transform="translate(1389.008347 0.40625)"/>
    <use xlink:href="#Cmr10-1d" transform="translate(1427.826706 0.40625)"/>
    <use xlink:href="#NotoSansCJKjp-Regular-e6ae" transform="translate(1475.51231 0.40625)"/>
    <use xlink:href="#NotoSansCJKjp-Regular-4e1d" transform="translate(1575.512218 0.40625)"/>
    <use xlink:href="#NotoSansCJKjp-Regular-b0c7" transform="translate(1675.512127 0.40625)"/>
    <use xlink:href="#NotoSansCJKjp-Regular-4ec3" transform="translate(1775.512035 0.40625)"/>
    <use xlink:href="#NotoSansCJKjp-Regular-9bba" transform="translate(1875.511944 0.40625)"/>
    <use xlink:href="#NotoSansCJKjp-Regular-7540" transform="translate(1975.511852 0.40625)"/>
    <use xlink:href="#NotoSansCJKjp-Regular-2eb1" transform="translate(2075.511761 0.40625)"/>
    <use xlink:href="#NotoSansCJKjp-Regular-2509" transform="translate(2175.511669 0.40625)"/>
    <use xlink:href="#NotoSansCJKjp-Regular-724a" transform="translate(2275.511578 0.40625)"/>
    <use xlink:href="#NotoSansCJKjp-Regular-e6af" transform="translate(2375.511486 0.40625)"/>
   </g>
  </g>
 </g>
 <defs>
  <clipPath id="pa4474dfe8c">
   <rect x="7.2" y="72.952" width="273.8" height="273.8"/>
  </clipPath>
 </defs>
</svg>
