<?xml version="1.0" encoding="utf-8" standalone="no"?>
<!DOCTYPE svg PUBLIC "-//W3C//DTD SVG 1.1//EN"
  "http://www.w3.org/Graphics/SVG/1.1/DTD/svg11.dtd">
<svg xmlns:xlink="http://www.w3.org/1999/xlink" width="576.25793pt" height="300.816pt" viewBox="0 0 576.25793 300.816" xmlns="http://www.w3.org/2000/svg" version="1.1">
 <metadata>
  <rdf:RDF xmlns:dc="http://purl.org/dc/elements/1.1/" xmlns:cc="http://creativecommons.org/ns#" xmlns:rdf="http://www.w3.org/1999/02/22-rdf-syntax-ns#">
   <cc:Work>
    <dc:type rdf:resource="http://purl.org/dc/dcmitype/StillImage"/>
    <dc:date>2026-06-20T18:20:27.363161</dc:date>
    <dc:format>image/svg+xml</dc:format>
    <dc:creator>
     <cc:Agent>
      <dc:title>Matplotlib v3.11.0, https://matplotlib.org/</dc:title>
     </cc:Agent>
    </dc:creator>
   </cc:Work>
  </rdf:RDF>
 </metadata>
 <defs>
  <style type="text/css">*{stroke-linejoin: round; stroke-linecap: butt}</style>
 </defs>
 <g id="figure_1">
  <g id="patch_1">
   <path d="M 0 300.816 
L 576.25793 300.816 
L 576.25793 0 
L 0 0 
z
" style="fill: #ffffff"/>
  </g>
  <g id="axes_1">
   <g id="patch_2">
    <path d="M 32.329139 212.335 
Q 88.216407 204.883364 141.44393 197.786361 
" style="fill: none; stroke: #1f6feb; stroke-width: 2.4; stroke-linecap: round"/>
    <path d="M 136.368843 196.0418 
L 141.44393 197.786361 
L 137.003229 200.799694 
z
" style="fill: #1f6feb; stroke: #1f6feb; stroke-width: 2.4; stroke-linecap: round"/>
   </g>
   <g id="patch_3">
    <path d="M 146.674623 195.25423 
Q 161.51779 147.013937 175.571842 101.338269 
" style="fill: none; stroke: #1a7f37; stroke-width: 2.4; stroke-linecap: round"/>
    <path d="M 171.86636 105.220202 
L 175.571842 101.338269 
L 176.454099 106.631814 
z
" style="fill: #1a7f37; stroke: #1a7f37; stroke-width: 2.4; stroke-linecap: round"/>
   </g>
   <g id="patch_4">
    <path d="M 31.915771 211.361213 
Q 103.648109 154.73042 173.274385 99.762307 
" style="fill: none; stroke: #d1242f; stroke-width: 2.4; stroke-linecap: round"/>
    <path d="M 168.019802 100.852881 
L 173.274385 99.762307 
L 170.994094 104.620319 
z
" style="fill: #d1242f; stroke: #d1242f; stroke-width: 2.4; stroke-linecap: round"/>
   </g>
   <g id="text_1">
    <!-- $\vec{a}$ -->
    <g style="fill: #1f6feb" transform="translate(84.506803 226.848169) scale(0.14 -0.14)">
     <defs>
      <path id="Cmmi10-6e" d="M 1281 3809 
Q 1231 3809 1198 3846 
Q 1166 3884 1166 3938 
Q 1166 3984 1198 4023 
Q 1231 4063 1281 4063 
L 3547 4063 
Q 3378 4291 3378 4441 
Q 3378 4497 3417 4533 
Q 3456 4569 3506 4569 
Q 3613 4569 3634 4469 
Q 3697 4194 3938 4044 
Q 4000 4003 4000 3938 
Q 4000 3859 3938 3828 
Q 3575 3647 3353 3347 
Q 3328 3303 3256 3303 
Q 3209 3303 3168 3340 
Q 3128 3378 3128 3431 
Q 3128 3547 3438 3809 
L 1281 3809 
z
" transform="scale(0.015625)"/>
      <path id="Cmmi10-79" d="M 1113 -72 
Q 709 -72 476 233 
Q 244 538 244 953 
Q 244 1363 456 1803 
Q 669 2244 1030 2536 
Q 1391 2828 1806 2828 
Q 1997 2828 2147 2725 
Q 2297 2622 2381 2444 
Q 2453 2700 2663 2700 
Q 2744 2700 2798 2651 
Q 2853 2603 2853 2522 
Q 2853 2503 2851 2493 
Q 2850 2484 2847 2472 
L 2400 684 
Q 2356 494 2356 372 
Q 2356 97 2541 97 
Q 2741 97 2845 351 
Q 2950 606 3022 941 
Q 3034 978 3072 978 
L 3150 978 
Q 3175 978 3190 956 
Q 3206 934 3206 916 
Q 3094 469 2961 198 
Q 2828 -72 2528 -72 
Q 2313 -72 2147 54 
Q 1981 181 1941 391 
Q 1528 -72 1113 -72 
z
M 1119 97 
Q 1350 97 1567 270 
Q 1784 444 1941 678 
Q 1947 684 1947 697 
L 2291 2088 
L 2297 2106 
Q 2259 2334 2132 2498 
Q 2006 2663 1791 2663 
Q 1575 2663 1389 2486 
Q 1203 2309 1075 2069 
Q 950 1813 836 1366 
Q 722 919 722 672 
Q 722 450 817 273 
Q 913 97 1119 97 
z
" transform="scale(0.015625)"/>
     </defs>
     <use xlink:href="#Cmmi10-6e" transform="translate(-7.022949 5.609375)"/>
     <use xlink:href="#Cmmi10-79" transform="translate(0 0.53125)"/>
    </g>
   </g>
   <g id="text_2">
    <!-- $\vec{b}$ -->
    <g style="fill: #1a7f37" transform="translate(167.304634 153.314167) scale(0.14 -0.14)">
     <defs>
      <path id="Cmmi10-4b" d="M 1106 -72 
Q 719 -72 503 231 
Q 288 534 288 941 
Q 288 1000 317 1173 
Q 347 1347 347 1388 
L 966 3872 
Q 991 3981 997 4044 
Q 997 4147 581 4147 
Q 519 4147 519 4231 
Q 522 4247 533 4287 
Q 544 4328 561 4350 
Q 578 4372 609 4372 
L 1472 4441 
Q 1550 4441 1550 4359 
L 1075 2472 
Q 1438 2828 1806 2828 
Q 2078 2828 2273 2684 
Q 2469 2541 2566 2306 
Q 2663 2072 2663 1806 
Q 2663 1497 2542 1167 
Q 2422 838 2209 555 
Q 1997 272 1712 100 
Q 1428 -72 1106 -72 
z
M 1119 97 
Q 1338 97 1528 280 
Q 1719 463 1838 691 
Q 1966 947 2077 1386 
Q 2188 1825 2188 2088 
Q 2188 2316 2092 2489 
Q 1997 2663 1791 2663 
Q 1559 2663 1348 2492 
Q 1138 2322 978 2088 
L 800 1363 
Q 697 959 691 716 
Q 691 475 795 286 
Q 900 97 1119 97 
z
" transform="scale(0.015625)"/>
     </defs>
     <use xlink:href="#Cmmi10-6e" transform="translate(-13.48877 30.609375)"/>
     <use xlink:href="#Cmmi10-4b" transform="translate(0 0.328125)"/>
    </g>
   </g>
   <g id="text_3">
    <!-- $\vec{a}+\vec{b}$ -->
    <g style="fill: #d1242f" transform="translate(60.185774 149.19211) scale(0.14 -0.14)">
     <defs>
      <path id="Cmr10-4c" d="M 481 1472 
Q 428 1472 393 1512 
Q 359 1553 359 1600 
Q 359 1647 393 1687 
Q 428 1728 481 1728 
L 2363 1728 
L 2363 3616 
Q 2363 3666 2400 3698 
Q 2438 3731 2491 3731 
Q 2538 3731 2578 3698 
Q 2619 3666 2619 3616 
L 2619 1728 
L 4500 1728 
Q 4547 1728 4581 1687 
Q 4616 1647 4616 1600 
Q 4616 1553 4581 1512 
Q 4547 1472 4500 1472 
L 2619 1472 
L 2619 -416 
Q 2619 -466 2578 -498 
Q 2538 -531 2491 -531 
Q 2438 -531 2400 -498 
Q 2363 -466 2363 -416 
L 2363 1472 
L 481 1472 
z
" transform="scale(0.015625)"/>
     </defs>
     <use xlink:href="#Cmmi10-6e" transform="translate(-7.022949 5.40625)"/>
     <use xlink:href="#Cmmi10-79" transform="translate(0 0.328125)"/>
     <use xlink:href="#Cmr10-4c" transform="translate(72.78326 0.328125)"/>
     <use xlink:href="#Cmmi10-6e" transform="translate(156.980095 30.609375)"/>
     <use xlink:href="#Cmmi10-4b" transform="translate(170.468864 0.328125)"/>
    </g>
   </g>
   <g id="text_4">
    <!-- 三角形兩邊和 &gt; 第三邊 -->
    <g style="fill: #222831" transform="translate(41.129043 253.107599) scale(0.125 -0.125)">
     <defs>
      <path id="NotoSansCJKjp-Regular-2514" d="M 787 4755 
L 787 4269 
L 5626 4269 
L 5626 4755 
L 787 4755 
z
M 1197 2662 
L 1197 2182 
L 5126 2182 
L 5126 2662 
L 1197 2662 
z
M 416 442 
L 416 -45 
L 5978 -45 
L 5978 442 
L 416 442 
z
" transform="scale(0.015625)"/>
      <path id="NotoSansCJKjp-Regular-9248" d="M 1696 3482 
L 3110 3482 
L 3110 2630 
L 1696 2630 
L 1696 3482 
z
M 1696 3910 
L 1683 3910 
C 1888 4134 2074 4365 2234 4595 
L 3795 4595 
C 3667 4365 3501 4109 3341 3910 
L 1696 3910 
z
M 5101 3482 
L 5101 2630 
L 3571 2630 
L 3571 3482 
L 5101 3482 
z
M 2157 5395 
C 1837 4749 1222 3955 358 3373 
C 474 3302 627 3149 704 3034 
C 890 3168 1062 3309 1222 3450 
L 1222 2310 
C 1222 1498 1120 506 211 -198 
C 307 -269 480 -442 550 -544 
C 1062 -147 1357 371 1517 902 
L 5101 902 
L 5101 102 
C 5101 -19 5062 -58 4922 -64 
C 4774 -70 4275 -70 3757 -58 
C 3827 -186 3917 -390 3942 -525 
C 4595 -525 5011 -518 5254 -442 
C 5491 -365 5574 -218 5574 96 
L 5574 3910 
L 3872 3910 
C 4096 4192 4314 4518 4461 4813 
L 4134 5024 
L 4058 4998 
L 2502 4998 
L 2675 5299 
L 2157 5395 
z
M 1696 2214 
L 3110 2214 
L 3110 1325 
L 1613 1325 
C 1670 1632 1690 1933 1696 2214 
z
M 5101 2214 
L 5101 1325 
L 3571 1325 
L 3571 2214 
L 5101 2214 
z
" transform="scale(0.015625)"/>
      <path id="NotoSansCJKjp-Regular-43ac" d="M 5414 5274 
C 5018 4755 4288 4211 3674 3904 
C 3795 3814 3936 3674 4019 3565 
C 4672 3923 5389 4499 5862 5088 
L 5414 5274 
z
M 5600 3507 
C 5171 2950 4397 2374 3738 2042 
C 3859 1946 4000 1798 4083 1702 
C 4768 2080 5542 2701 6035 3328 
L 5600 3507 
z
M 5747 1779 
C 5267 979 4358 269 3405 -122 
C 3533 -224 3674 -390 3750 -506 
C 4736 -51 5651 710 6195 1600 
L 5747 1779 
z
M 2586 4531 
L 2586 2874 
L 1555 2874 
L 1555 4531 
L 2586 4531 
z
M 262 2874 
L 262 2426 
L 1094 2426 
C 1069 1472 928 531 237 -230 
C 352 -294 518 -448 595 -550 
C 1363 288 1523 1350 1549 2426 
L 2586 2426 
L 2586 -506 
L 3059 -506 
L 3059 2426 
L 3750 2426 
L 3750 2874 
L 3059 2874 
L 3059 4531 
L 3667 4531 
L 3667 4979 
L 371 4979 
L 371 4531 
L 1101 4531 
L 1101 2874 
L 262 2874 
z
" transform="scale(0.015625)"/>
      <path id="NotoSansCJKjp-Regular-2a94" d="M 1568 2784 
L 1568 2445 
L 1971 2445 
C 1875 1683 1651 1050 1222 634 
C 1299 589 1440 480 1498 429 
C 1779 723 1990 1114 2138 1581 
C 2221 1171 2381 774 2662 435 
C 2720 506 2854 608 2931 653 
C 2374 1293 2330 2112 2330 2784 
L 1568 2784 
z
M 442 4992 
L 442 4518 
L 2938 4518 
L 2938 3718 
L 672 3718 
L 672 -499 
L 1133 -499 
L 1133 3264 
L 2938 3264 
L 2938 -480 
L 3398 -480 
L 3398 3264 
L 5299 3264 
L 5299 58 
C 5299 -38 5267 -70 5171 -70 
C 5069 -77 4736 -77 4384 -64 
C 4448 -186 4525 -371 4550 -499 
C 5005 -499 5325 -493 5517 -416 
C 5709 -346 5766 -211 5766 51 
L 5766 3718 
L 3398 3718 
L 3398 4518 
L 5990 4518 
L 5990 4992 
L 442 4992 
z
M 3802 2784 
L 3802 2445 
L 4218 2445 
C 4115 1709 3891 1088 3482 678 
C 3571 634 3706 525 3763 467 
C 4038 768 4243 1158 4384 1626 
C 4474 1203 4640 794 4947 454 
C 5011 518 5146 621 5229 659 
C 4640 1293 4589 2112 4589 2784 
L 3802 2784 
z
" transform="scale(0.015625)"/>
      <path id="NotoSansCJKjp-Regular-9e93" d="M 531 5005 
C 902 4794 1338 4467 1530 4218 
L 1869 4544 
C 1664 4787 1222 5101 851 5299 
L 531 5005 
z
M 307 3699 
C 698 3501 1152 3174 1363 2938 
L 1683 3270 
C 1466 3514 1005 3814 621 4006 
L 307 3699 
z
M 2880 4314 
L 5043 4314 
L 5043 4045 
L 2880 4045 
L 2880 4314 
z
M 2880 3802 
L 5043 3802 
L 5043 3520 
L 2880 3520 
L 2880 3802 
z
M 2880 4819 
L 5043 4819 
L 5043 4550 
L 2880 4550 
L 2880 4819 
z
M 1542 2400 
L 275 2400 
L 275 1952 
L 1075 1952 
L 1075 717 
C 794 454 474 198 211 0 
L 461 -467 
C 774 -186 1069 90 1344 365 
C 1754 -141 2342 -365 3200 -397 
C 3923 -422 5299 -410 6016 -378 
C 6035 -237 6112 -19 6170 90 
C 5395 38 3910 19 3194 51 
C 2432 77 1856 294 1542 768 
L 1542 2400 
z
M 1946 3008 
L 1946 2355 
L 2368 2355 
L 2368 2733 
L 3213 2733 
C 3098 2419 2790 2266 2118 2176 
C 2189 2112 2285 1978 2317 1894 
C 3091 2035 3443 2266 3571 2733 
L 4115 2733 
L 4115 2496 
C 4115 2170 4205 2093 4589 2093 
C 4659 2093 5056 2093 5126 2093 
C 5382 2093 5485 2176 5517 2496 
C 5421 2522 5280 2560 5210 2611 
C 5197 2400 5171 2374 5069 2374 
C 4992 2374 4691 2374 4634 2374 
C 4499 2374 4486 2387 4486 2496 
L 4486 2733 
L 5562 2733 
L 5562 2355 
L 5997 2355 
L 5997 3008 
L 4134 3008 
L 4134 3277 
L 5510 3277 
L 5510 5062 
L 4064 5062 
C 4115 5139 4173 5229 4224 5325 
L 3731 5389 
C 3706 5299 3654 5178 3603 5062 
L 2426 5062 
L 2426 3277 
L 3686 3277 
L 3686 3008 
L 1946 3008 
z
M 1926 1843 
L 1926 1542 
L 3219 1542 
C 3091 1062 2765 762 1952 589 
C 2042 518 2150 352 2189 256 
C 2835 416 3206 659 3424 1005 
L 4922 1005 
C 4858 749 4800 614 4730 557 
C 4678 518 4627 518 4518 518 
C 4410 512 4128 518 3840 550 
C 3885 461 3923 333 3930 256 
C 4237 230 4525 224 4666 230 
C 4826 237 4934 256 5043 333 
C 5184 442 5274 666 5363 1133 
C 5382 1190 5389 1293 5389 1293 
L 3565 1293 
C 3597 1370 3622 1453 3642 1542 
L 6054 1542 
L 6054 1843 
L 4134 1843 
L 4134 2234 
L 3693 2234 
L 3693 1843 
L 1926 1843 
z
" transform="scale(0.015625)"/>
      <path id="NotoSansCJKjp-Regular-2f70" d="M 3398 4781 
L 3398 -224 
L 3866 -224 
L 3866 301 
L 5293 301 
L 5293 -179 
L 5779 -179 
L 5779 4781 
L 3398 4781 
z
M 3866 762 
L 3866 4320 
L 5293 4320 
L 5293 762 
L 3866 762 
z
M 2810 5318 
C 2246 5088 1235 4896 384 4781 
C 435 4672 499 4506 518 4397 
C 858 4435 1222 4486 1581 4550 
L 1581 3482 
L 320 3482 
L 320 3034 
L 1459 3034 
C 1165 2227 653 1350 166 858 
C 250 736 371 550 429 410 
C 845 851 1267 1587 1581 2342 
L 1581 -499 
L 2054 -499 
L 2054 2323 
C 2330 1958 2688 1472 2835 1229 
L 3130 1626 
C 2976 1824 2291 2630 2054 2874 
L 2054 3034 
L 3174 3034 
L 3174 3482 
L 2054 3482 
L 2054 4646 
C 2458 4730 2829 4826 3130 4941 
L 2810 5318 
z
" transform="scale(0.015625)"/>
      <path id="NotoSansCJKjp-Regular-1" transform="scale(0.015625)"/>
      <path id="NotoSansCJKjp-Regular-1f" d="M 243 934 
L 3315 2144 
L 3315 2605 
L 243 3814 
L 243 3309 
L 1754 2746 
L 2714 2387 
L 2714 2362 
L 1754 2003 
L 243 1446 
L 243 934 
z
" transform="scale(0.015625)"/>
      <path id="NotoSansCJKjp-Regular-746c" d="M 1133 2566 
C 1037 2061 877 1421 742 1005 
L 1216 934 
L 1280 1158 
L 2547 1158 
C 1965 640 1069 198 275 -26 
C 378 -115 518 -288 589 -410 
C 1414 -134 2342 390 2963 1005 
L 2963 -512 
L 3430 -512 
L 3430 1158 
L 5363 1158 
C 5299 576 5229 326 5139 237 
C 5082 192 5024 186 4909 186 
C 4794 179 4493 186 4179 218 
C 4256 96 4307 -90 4314 -224 
C 4646 -243 4960 -243 5120 -230 
C 5299 -218 5421 -179 5530 -70 
C 5690 90 5779 480 5869 1376 
C 5875 1440 5882 1568 5882 1568 
L 3430 1568 
L 3430 2163 
L 5510 2163 
L 5510 3622 
L 826 3622 
L 826 3213 
L 2963 3213 
L 2963 2566 
L 1133 2566 
z
M 1523 2163 
L 2963 2163 
L 2963 1568 
L 1382 1568 
L 1523 2163 
z
M 3430 3213 
L 5037 3213 
L 5037 2566 
L 3430 2566 
L 3430 3213 
z
M 1178 5408 
C 966 4838 614 4269 211 3898 
C 326 3834 518 3706 608 3635 
C 819 3846 1024 4128 1210 4435 
L 1446 4435 
C 1581 4179 1702 3878 1747 3674 
L 2170 3840 
C 2125 3994 2029 4224 1926 4435 
L 3110 4435 
L 3110 4819 
L 1421 4819 
C 1498 4973 1562 5126 1626 5286 
L 1178 5408 
z
M 3699 5408 
C 3488 4832 3104 4294 2650 3942 
C 2765 3885 2963 3744 3046 3667 
C 3283 3872 3507 4141 3706 4435 
L 4160 4435 
C 4352 4179 4544 3872 4621 3661 
L 5043 3827 
C 4973 4000 4826 4230 4672 4435 
L 6099 4435 
L 6099 4819 
L 3936 4819 
C 4019 4973 4090 5133 4154 5293 
L 3699 5408 
z
" transform="scale(0.015625)"/>
     </defs>
     <use xlink:href="#NotoSansCJKjp-Regular-2514"/>
     <use xlink:href="#NotoSansCJKjp-Regular-9248" transform="translate(100 0)"/>
     <use xlink:href="#NotoSansCJKjp-Regular-43ac" transform="translate(200 0)"/>
     <use xlink:href="#NotoSansCJKjp-Regular-2a94" transform="translate(300 0)"/>
     <use xlink:href="#NotoSansCJKjp-Regular-9e93" transform="translate(400 0)"/>
     <use xlink:href="#NotoSansCJKjp-Regular-2f70" transform="translate(500 0)"/>
     <use xlink:href="#NotoSansCJKjp-Regular-1" transform="translate(600 0)"/>
     <use xlink:href="#NotoSansCJKjp-Regular-1f" transform="translate(622.40625 0)"/>
     <use xlink:href="#NotoSansCJKjp-Regular-1" transform="translate(677.90625 0)"/>
     <use xlink:href="#NotoSansCJKjp-Regular-746c" transform="translate(700.3125 0)"/>
     <use xlink:href="#NotoSansCJKjp-Regular-2514" transform="translate(800.3125 0)"/>
     <use xlink:href="#NotoSansCJKjp-Regular-9e93" transform="translate(900.3125 0)"/>
    </g>
   </g>
   <g id="text_5">
    <!-- $|\vec{a}+\vec{b}| &lt; |\vec{a}|+|\vec{b}|$ -->
    <g style="fill: #d1242f" transform="translate(57.433575 276.255257) scale(0.13 -0.13)">
     <defs>
      <path id="Cmsy10-2f" d="M 763 -1484 
L 763 4684 
Q 763 4734 800 4767 
Q 838 4800 891 4800 
Q 938 4800 978 4767 
Q 1019 4734 1019 4684 
L 1019 -1484 
Q 1019 -1534 978 -1567 
Q 938 -1600 891 -1600 
Q 838 -1600 800 -1567 
Q 763 -1534 763 -1484 
z
" transform="scale(0.015625)"/>
      <path id="Cmmi10-63" d="M 594 1491 
Q 531 1519 531 1600 
Q 531 1681 616 1722 
L 4269 3444 
Q 4294 3456 4313 3456 
Q 4369 3456 4405 3417 
Q 4441 3378 4441 3328 
Q 4441 3250 4366 3206 
L 959 1600 
L 4384 -19 
Q 4441 -38 4441 -128 
Q 4441 -178 4405 -217 
Q 4369 -256 4313 -256 
Q 4294 -256 4269 -244 
L 594 1491 
z
" transform="scale(0.015625)"/>
     </defs>
     <use xlink:href="#Cmsy10-2f" transform="translate(0 0.328125)"/>
     <use xlink:href="#Cmmi10-6e" transform="translate(20.662598 5.40625)"/>
     <use xlink:href="#Cmmi10-79" transform="translate(27.685547 0.328125)"/>
     <use xlink:href="#Cmr10-4c" transform="translate(100.468807 0.328125)"/>
     <use xlink:href="#Cmmi10-6e" transform="translate(184.665642 30.609375)"/>
     <use xlink:href="#Cmmi10-4b" transform="translate(198.154411 0.328125)"/>
     <use xlink:href="#Cmsy10-2f" transform="translate(241.074333 0.328125)"/>
     <use xlink:href="#Cmmi10-63" transform="translate(288.759937 0.328125)"/>
     <use xlink:href="#Cmsy10-2f" transform="translate(386.445541 0.328125)"/>
     <use xlink:href="#Cmmi10-6e" transform="translate(407.108139 5.40625)"/>
     <use xlink:href="#Cmmi10-79" transform="translate(414.131088 0.328125)"/>
     <use xlink:href="#Cmsy10-2f" transform="translate(466.914291 0.328125)"/>
     <use xlink:href="#Cmr10-4c" transform="translate(514.599895 0.328125)"/>
     <use xlink:href="#Cmsy10-2f" transform="translate(612.2855 0.328125)"/>
     <use xlink:href="#Cmmi10-6e" transform="translate(626.482277 30.609375)"/>
     <use xlink:href="#Cmmi10-4b" transform="translate(639.971046 0.328125)"/>
     <use xlink:href="#Cmsy10-2f" transform="translate(682.890968 0.328125)"/>
    </g>
   </g>
   <g id="text_6">
    <!-- 一般情形：構成三角形 -->
    <g style="fill: #222831" transform="translate(42.506518 67.71325) scale(0.13 -0.13)">
     <defs>
      <path id="NotoSansCJKjp-Regular-2509" d="M 282 2758 
L 282 2234 
L 6144 2234 
L 6144 2758 
L 282 2758 
z
" transform="scale(0.015625)"/>
      <path id="NotoSansCJKjp-Regular-8297" d="M 1472 1990 
L 1472 480 
L 1792 480 
L 1792 1990 
L 1472 1990 
z
M 1318 3718 
C 1478 3450 1619 3085 1664 2848 
L 1990 2982 
C 1939 3219 1798 3578 1619 3840 
L 1318 3718 
z
M 3450 5120 
L 3450 4294 
C 3450 3885 3386 3398 2912 3034 
C 3014 2976 3187 2829 3258 2746 
C 3776 3162 3878 3782 3878 4282 
L 3878 4698 
L 4870 4698 
L 4870 3674 
C 4870 3322 4902 3219 4992 3136 
C 5082 3059 5216 3027 5344 3027 
C 5408 3027 5581 3027 5664 3027 
C 5760 3027 5888 3046 5958 3085 
C 6042 3117 6106 3187 6138 3290 
C 6176 3386 6195 3661 6208 3898 
C 6086 3930 5933 4006 5850 4083 
C 5843 3834 5837 3648 5824 3558 
C 5811 3488 5786 3443 5760 3430 
C 5734 3411 5677 3405 5619 3405 
C 5568 3405 5485 3405 5440 3405 
C 5402 3405 5363 3411 5338 3430 
C 5312 3450 5312 3520 5312 3642 
L 5312 5120 
L 3450 5120 
z
M 5267 2144 
C 5094 1664 4826 1254 4499 909 
C 4173 1267 3917 1683 3744 2144 
L 5267 2144 
z
M 3104 2579 
L 3104 2144 
L 3686 2144 
L 3347 2061 
C 3546 1510 3821 1018 4179 614 
C 3770 275 3290 26 2790 -122 
C 2886 -218 3002 -403 3059 -525 
C 3584 -339 4077 -77 4506 282 
C 4909 -70 5382 -346 5939 -512 
C 6010 -390 6138 -205 6240 -115 
C 5696 26 5229 269 4838 595 
C 5293 1082 5651 1702 5850 2490 
L 5549 2592 
L 5459 2579 
L 3104 2579 
z
M 2240 4102 
L 2240 2656 
L 1088 2534 
L 1088 4102 
L 2240 4102 
z
M 1491 5376 
C 1446 5126 1350 4762 1254 4493 
L 698 4493 
L 698 2496 
L 230 2451 
L 282 2042 
L 698 2093 
C 698 1331 646 378 218 -288 
C 320 -333 493 -442 563 -512 
C 1018 205 1088 1306 1088 2138 
L 2240 2266 
L 2240 -19 
C 2240 -96 2214 -122 2138 -122 
C 2067 -128 1837 -128 1574 -122 
C 1626 -230 1690 -403 1709 -512 
C 2080 -512 2304 -506 2458 -442 
C 2598 -371 2643 -243 2643 -19 
L 2643 2310 
L 2944 2342 
L 2938 2733 
L 2643 2701 
L 2643 4493 
L 1702 4493 
C 1792 4723 1907 5005 2003 5274 
L 1491 5376 
z
" transform="scale(0.015625)"/>
      <path id="NotoSansCJKjp-Regular-45ef" d="M 973 5376 
L 973 -506 
L 1408 -506 
L 1408 5376 
L 973 5376 
z
M 467 4141 
C 429 3642 326 2931 173 2496 
L 550 2368 
C 698 2848 800 3590 826 4096 
L 467 4141 
z
M 1466 4314 
C 1600 4013 1747 3610 1805 3366 
L 2144 3533 
C 2080 3763 1926 4147 1786 4442 
L 1466 4314 
z
M 2854 1344 
L 5171 1344 
L 5171 858 
L 2854 858 
L 2854 1344 
z
M 2854 1709 
L 2854 2189 
L 5171 2189 
L 5171 1709 
L 2854 1709 
z
M 3776 5376 
L 3776 4877 
L 2138 4877 
L 2138 4506 
L 3776 4506 
L 3776 4096 
L 2291 4096 
L 2291 3744 
L 3776 3744 
L 3776 3302 
L 1946 3302 
L 1946 2931 
L 6131 2931 
L 6131 3302 
L 4250 3302 
L 4250 3744 
L 5779 3744 
L 5779 4096 
L 4250 4096 
L 4250 4506 
L 5939 4506 
L 5939 4877 
L 4250 4877 
L 4250 5376 
L 3776 5376 
z
M 2406 2560 
L 2406 -506 
L 2854 -506 
L 2854 493 
L 5171 493 
L 5171 32 
C 5171 -45 5139 -70 5056 -77 
C 4966 -83 4659 -83 4333 -70 
C 4390 -186 4454 -365 4474 -486 
C 4928 -486 5216 -486 5395 -410 
C 5574 -339 5626 -211 5626 26 
L 5626 2560 
L 2406 2560 
z
" transform="scale(0.015625)"/>
      <path id="NotoSansCJKjp-Regular-e6c0" d="M 3200 3482 
C 3456 3482 3686 3667 3686 3962 
C 3686 4256 3456 4442 3200 4442 
C 2944 4442 2714 4256 2714 3962 
C 2714 3667 2944 3482 3200 3482 
z
M 3200 346 
C 3456 346 3686 538 3686 826 
C 3686 1120 3456 1312 3200 1312 
C 2944 1312 2714 1120 2714 826 
C 2714 538 2944 346 3200 346 
z
" transform="scale(0.015625)"/>
      <path id="NotoSansCJKjp-Regular-5576" d="M 2714 2534 
L 2714 915 
L 2278 915 
L 2278 538 
L 2714 538 
L 2714 -493 
L 3155 -493 
L 3155 538 
L 5357 538 
L 5357 0 
C 5357 -77 5331 -96 5242 -102 
C 5158 -109 4877 -109 4570 -96 
C 4627 -211 4691 -378 4710 -493 
C 5133 -493 5408 -486 5587 -422 
C 5754 -352 5805 -237 5805 0 
L 5805 538 
L 6214 538 
L 6214 915 
L 5805 915 
L 5805 2534 
L 4454 2534 
L 4454 2918 
L 6138 2918 
L 6138 3283 
L 5210 3283 
L 5210 3718 
L 5920 3718 
L 5920 4070 
L 5210 4070 
L 5210 4493 
L 6010 4493 
L 6010 4851 
L 5210 4851 
L 5210 5376 
L 4762 5376 
L 4762 4851 
L 3731 4851 
L 3731 5376 
L 3283 5376 
L 3283 4851 
L 2547 4851 
L 2547 4493 
L 3283 4493 
L 3283 4070 
L 2669 4070 
L 2669 3718 
L 3283 3718 
L 3283 3283 
L 2394 3283 
L 2394 2918 
L 4013 2918 
L 4013 2534 
L 2714 2534 
z
M 3731 3718 
L 4762 3718 
L 4762 3283 
L 3731 3283 
L 3731 3718 
z
M 3731 4070 
L 3731 4493 
L 4762 4493 
L 4762 4070 
L 3731 4070 
z
M 4013 915 
L 3155 915 
L 3155 1382 
L 4013 1382 
L 4013 915 
z
M 4454 915 
L 4454 1382 
L 5357 1382 
L 5357 915 
L 4454 915 
z
M 4013 1728 
L 3155 1728 
L 3155 2176 
L 4013 2176 
L 4013 1728 
z
M 4454 1728 
L 4454 2176 
L 5357 2176 
L 5357 1728 
L 4454 1728 
z
M 1229 5376 
L 1229 3987 
L 333 3987 
L 333 3539 
L 1178 3539 
C 992 2669 602 1658 198 1120 
C 275 1011 390 832 442 704 
C 736 1120 1011 1792 1229 2483 
L 1229 -506 
L 1670 -506 
L 1670 2528 
C 1862 2214 2086 1818 2176 1606 
L 2438 1965 
C 2330 2144 1843 2874 1670 3098 
L 1670 3539 
L 2413 3539 
L 2413 3987 
L 1670 3987 
L 1670 5376 
L 1229 5376 
z
" transform="scale(0.015625)"/>
      <path id="NotoSansCJKjp-Regular-4857" d="M 3482 5370 
C 3482 5005 3494 4640 3514 4288 
L 819 4288 
L 819 2490 
C 819 1658 762 550 230 -237 
C 346 -294 550 -461 634 -557 
C 1222 288 1318 1581 1318 2483 
L 1318 2528 
L 2490 2528 
C 2464 1427 2432 1018 2349 922 
C 2298 864 2240 851 2144 851 
C 2035 851 1760 851 1466 883 
C 1542 762 1594 570 1600 435 
C 1914 416 2208 416 2374 429 
C 2547 448 2656 493 2758 614 
C 2893 787 2925 1331 2957 2771 
C 2957 2835 2963 2976 2963 2976 
L 1318 2976 
L 1318 3821 
L 3546 3821 
C 3622 2784 3776 1837 4019 1101 
C 3597 614 3104 218 2534 -83 
C 2637 -179 2810 -378 2886 -480 
C 3379 -186 3821 166 4211 589 
C 4506 -70 4890 -467 5382 -467 
C 5875 -467 6054 -147 6138 947 
C 6010 992 5830 1101 5722 1210 
C 5683 358 5606 26 5421 26 
C 5094 26 4806 390 4570 1018 
C 5043 1632 5421 2362 5696 3200 
L 5216 3322 
C 5011 2675 4736 2093 4390 1581 
C 4224 2202 4102 2963 4032 3821 
L 6086 3821 
L 6086 4288 
L 4006 4288 
C 3987 4640 3981 4998 3981 5370 
L 3482 5370 
z
M 4294 5056 
C 4704 4845 5197 4518 5440 4288 
L 5741 4621 
C 5491 4838 4986 5152 4582 5350 
L 4294 5056 
z
" transform="scale(0.015625)"/>
     </defs>
     <use xlink:href="#NotoSansCJKjp-Regular-2509"/>
     <use xlink:href="#NotoSansCJKjp-Regular-8297" transform="translate(100 0)"/>
     <use xlink:href="#NotoSansCJKjp-Regular-45ef" transform="translate(200 0)"/>
     <use xlink:href="#NotoSansCJKjp-Regular-43ac" transform="translate(300 0)"/>
     <use xlink:href="#NotoSansCJKjp-Regular-e6c0" transform="translate(400 0)"/>
     <use xlink:href="#NotoSansCJKjp-Regular-5576" transform="translate(500 0)"/>
     <use xlink:href="#NotoSansCJKjp-Regular-4857" transform="translate(600 0)"/>
     <use xlink:href="#NotoSansCJKjp-Regular-2514" transform="translate(700 0)"/>
     <use xlink:href="#NotoSansCJKjp-Regular-9248" transform="translate(800 0)"/>
     <use xlink:href="#NotoSansCJKjp-Regular-43ac" transform="translate(900 0)"/>
    </g>
   </g>
  </g>
  <g id="axes_2">
   <g id="patch_5">
    <path d="M 330.209992 136.542607 
Q 391.042206 136.542607 449.191139 136.542607 
" style="fill: none; stroke: #1f6feb; stroke-width: 2.4; stroke-linecap: round"/>
    <path d="M 444.391139 134.142607 
L 449.191139 136.542607 
L 444.391139 138.942607 
z
" style="fill: #1f6feb; stroke: #1f6feb; stroke-width: 2.4; stroke-linecap: round"/>
   </g>
   <g id="patch_6">
    <path d="M 455.872541 136.542607 
Q 495.757223 136.542607 532.958624 136.542607 
" style="fill: none; stroke: #1a7f37; stroke-width: 2.4; stroke-linecap: round"/>
    <path d="M 528.158624 134.142607 
L 532.958624 136.542607 
L 528.158624 138.942607 
z
" style="fill: #1a7f37; stroke: #1a7f37; stroke-width: 2.4; stroke-linecap: round"/>
   </g>
   <g id="patch_7">
    <path d="M 330.209353 167.957286 
Q 432.927685 167.957286 532.962735 167.957286 
" style="fill: none; stroke: #d1242f; stroke-width: 2.4; stroke-linecap: round"/>
    <path d="M 528.162735 165.557286 
L 532.962735 167.957286 
L 528.162735 170.357286 
z
" style="fill: #d1242f; stroke: #d1242f; stroke-width: 2.4; stroke-linecap: round"/>
   </g>
   <g id="text_7">
    <!-- $\vec{a}$ -->
    <g style="fill: #1f6feb" transform="translate(387.331418 127.118204) scale(0.14 -0.14)">
     <use xlink:href="#Cmmi10-6e" transform="translate(-7.022949 5.609375)"/>
     <use xlink:href="#Cmmi10-79" transform="translate(0 0.53125)"/>
    </g>
   </g>
   <g id="text_8">
    <!-- $\vec{b}$ -->
    <g style="fill: #1a7f37" transform="translate(492.747013 127.118204) scale(0.14 -0.14)">
     <use xlink:href="#Cmmi10-6e" transform="translate(-13.48877 30.609375)"/>
     <use xlink:href="#Cmmi10-4b" transform="translate(0 0.328125)"/>
    </g>
   </g>
   <g id="text_9">
    <!-- $\vec{a}+\vec{b}$ -->
    <g style="fill: #d1242f" transform="translate(417.947656 205.798295) scale(0.14 -0.14)">
     <use xlink:href="#Cmmi10-6e" transform="translate(-7.022949 5.40625)"/>
     <use xlink:href="#Cmmi10-79" transform="translate(0 0.328125)"/>
     <use xlink:href="#Cmr10-4c" transform="translate(72.78326 0.328125)"/>
     <use xlink:href="#Cmmi10-6e" transform="translate(156.980095 30.609375)"/>
     <use xlink:href="#Cmmi10-4b" transform="translate(170.468864 0.328125)"/>
    </g>
   </g>
   <g id="text_10">
    <!-- 同方向：退化成直線 -->
    <g style="fill: #222831" transform="translate(376.677656 236.022423) scale(0.125 -0.125)">
     <defs>
      <path id="NotoSansCJKjp-Regular-2eb1" d="M 1587 3917 
L 1587 3501 
L 4838 3501 
L 4838 3917 
L 1587 3917 
z
M 2355 2419 
L 4045 2419 
L 4045 1203 
L 2355 1203 
L 2355 2419 
z
M 1914 2829 
L 1914 326 
L 2355 326 
L 2355 794 
L 4493 794 
L 4493 2829 
L 1914 2829 
z
M 563 5043 
L 563 -525 
L 1030 -525 
L 1030 4589 
L 5376 4589 
L 5376 102 
C 5376 -13 5338 -51 5222 -58 
C 5114 -58 4742 -64 4339 -51 
C 4416 -173 4486 -390 4512 -518 
C 5062 -518 5389 -506 5581 -429 
C 5779 -352 5850 -198 5850 96 
L 5850 5043 
L 563 5043 
z
" transform="scale(0.015625)"/>
      <path id="NotoSansCJKjp-Regular-4ea0" d="M 2931 5395 
L 2931 4269 
L 339 4269 
L 339 3808 
L 2310 3808 
C 2240 2330 2054 666 269 -147 
C 397 -243 544 -416 621 -538 
C 1926 90 2438 1152 2669 2298 
L 4787 2298 
C 4685 819 4557 186 4371 19 
C 4294 -51 4211 -58 4064 -58 
C 3898 -58 3443 -51 2982 -13 
C 3078 -147 3142 -346 3155 -480 
C 3584 -506 4013 -512 4230 -499 
C 4480 -486 4634 -435 4781 -282 
C 5030 -26 5165 685 5293 2522 
C 5306 2598 5312 2758 5312 2758 
L 2746 2758 
C 2790 3110 2822 3462 2842 3808 
L 6067 3808 
L 6067 4269 
L 3424 4269 
L 3424 5395 
L 2931 5395 
z
" transform="scale(0.015625)"/>
      <path id="NotoSansCJKjp-Regular-2eb8" d="M 2803 5389 
C 2714 5062 2554 4614 2394 4269 
L 634 4269 
L 634 -512 
L 1107 -512 
L 1107 3802 
L 5325 3802 
L 5325 128 
C 5325 13 5286 -26 5158 -26 
C 5024 -32 4582 -38 4122 -13 
C 4192 -154 4262 -378 4288 -512 
C 4877 -512 5274 -506 5504 -429 
C 5728 -346 5805 -192 5805 128 
L 5805 4269 
L 2925 4269 
C 3085 4576 3258 4947 3398 5293 
L 2803 5389 
z
M 2387 2522 
L 4006 2522 
L 4006 1267 
L 2387 1267 
L 2387 2522 
z
M 1946 2950 
L 1946 371 
L 2387 371 
L 2387 832 
L 4454 832 
L 4454 2950 
L 1946 2950 
z
" transform="scale(0.015625)"/>
      <path id="NotoSansCJKjp-Regular-9d19" d="M 442 4896 
C 858 4614 1338 4186 1542 3872 
L 1920 4186 
C 1696 4499 1216 4915 794 5184 
L 442 4896 
z
M 5632 2739 
C 5382 2509 4966 2202 4621 1978 
C 4474 2202 4358 2438 4262 2701 
L 5504 2701 
L 5504 5101 
L 2573 5101 
L 2573 1011 
L 2131 915 
L 2214 461 
C 2810 608 3597 806 4346 998 
L 4307 1421 
L 3040 1120 
L 3040 2701 
L 3834 2701 
C 4173 1613 4813 794 5798 416 
C 5869 544 6003 730 6112 826 
C 5594 992 5165 1286 4838 1683 
C 5203 1888 5651 2182 6010 2458 
L 5632 2739 
z
M 3040 4685 
L 5037 4685 
L 5037 4102 
L 3040 4102 
L 3040 4685 
z
M 3040 3117 
L 3040 3725 
L 5037 3725 
L 5037 3117 
L 3040 3117 
z
M 1677 2848 
L 314 2848 
L 314 2400 
L 1210 2400 
L 1210 768 
C 890 499 518 230 230 32 
L 480 -461 
C 826 -173 1152 102 1459 378 
C 1869 -128 2445 -358 3283 -390 
C 3994 -416 5318 -403 6016 -371 
C 6035 -224 6118 6 6176 115 
C 5414 64 3981 45 3283 77 
C 2541 102 1978 326 1677 794 
L 1677 2848 
z
" transform="scale(0.015625)"/>
      <path id="NotoSansCJKjp-Regular-2d2b" d="M 5517 4160 
C 5050 3725 4314 3232 3597 2829 
L 3597 5222 
L 3110 5222 
L 3110 480 
C 3110 -230 3315 -416 3987 -416 
C 4134 -416 5146 -416 5306 -416 
C 5978 -416 6112 -51 6189 998 
C 6048 1024 5856 1114 5734 1203 
C 5690 269 5638 32 5280 32 
C 5069 32 4192 32 4026 32 
C 3667 32 3597 109 3597 467 
L 3597 2342 
C 4390 2758 5254 3251 5862 3750 
L 5517 4160 
z
M 2003 5280 
C 1581 4262 870 3290 134 2675 
C 224 2560 371 2310 422 2189 
C 710 2451 998 2758 1267 3104 
L 1267 -499 
L 1747 -499 
L 1747 3776 
C 2022 4205 2272 4659 2470 5120 
L 2003 5280 
z
" transform="scale(0.015625)"/>
      <path id="NotoSansCJKjp-Regular-6ce1" d="M 2374 2586 
L 4832 2586 
L 4832 2061 
L 2374 2061 
L 2374 2586 
z
M 2374 1715 
L 4832 1715 
L 4832 1178 
L 2374 1178 
L 2374 1715 
z
M 2374 3456 
L 4832 3456 
L 4832 2931 
L 2374 2931 
L 2374 3456 
z
M 736 3635 
L 736 -518 
L 1203 -518 
L 1203 -179 
L 6080 -179 
L 6080 269 
L 1203 269 
L 1203 3635 
L 736 3635 
z
M 3053 5395 
L 3008 4787 
L 397 4787 
L 397 4339 
L 2963 4339 
L 2899 3814 
L 1914 3814 
L 1914 813 
L 5306 813 
L 5306 3814 
L 3379 3814 
L 3469 4339 
L 6029 4339 
L 6029 4787 
L 3533 4787 
L 3603 5363 
L 3053 5395 
z
" transform="scale(0.015625)"/>
      <path id="NotoSansCJKjp-Regular-7a17" d="M 3258 3405 
L 5414 3405 
L 5414 2848 
L 3258 2848 
L 3258 3405 
z
M 3258 4326 
L 5414 4326 
L 5414 3770 
L 3258 3770 
L 3258 4326 
z
M 1894 1632 
C 2048 1267 2182 781 2208 474 
L 2586 589 
C 2541 902 2406 1370 2246 1734 
L 1894 1632 
z
M 570 1715 
C 493 1158 378 582 166 192 
C 269 154 454 70 538 13 
C 736 422 890 1043 973 1651 
L 570 1715 
z
M 2816 4717 
L 2816 2451 
L 4109 2451 
L 4109 6 
C 4109 -64 4090 -83 4006 -90 
C 3930 -90 3674 -90 3386 -83 
C 3443 -211 3501 -384 3520 -506 
C 3917 -506 4173 -499 4339 -435 
C 4506 -358 4544 -237 4544 6 
L 4544 1325 
C 4819 717 5254 109 5952 -250 
C 6016 -128 6157 51 6246 141 
C 5754 358 5382 698 5114 1088 
C 5427 1306 5798 1613 6106 1894 
L 5715 2176 
C 5523 1946 5203 1645 4922 1408 
C 4742 1734 4627 2074 4544 2400 
L 4544 2451 
L 5875 2451 
L 5875 4717 
L 4365 4717 
C 4467 4890 4570 5088 4659 5280 
L 4128 5382 
C 4077 5190 3968 4934 3872 4717 
L 2816 4717 
z
M 2573 1901 
L 2573 1491 
L 3443 1491 
C 3219 826 2803 352 2291 77 
C 2381 13 2534 -154 2592 -250 
C 3226 115 3738 787 3962 1805 
L 3699 1914 
L 3622 1901 
L 2573 1901 
z
M 179 2547 
L 237 2118 
L 1248 2182 
L 1248 -512 
L 1670 -512 
L 1670 2208 
L 2176 2240 
C 2234 2086 2285 1946 2310 1824 
L 2694 2003 
C 2598 2349 2342 2906 2074 3322 
L 1722 3181 
C 1824 3014 1920 2829 2010 2637 
L 1088 2592 
C 1517 3136 2010 3866 2374 4454 
L 1971 4646 
C 1792 4301 1549 3878 1286 3475 
C 1190 3610 1075 3750 941 3898 
C 1178 4256 1459 4781 1677 5216 
L 1254 5376 
C 1120 5018 890 4531 685 4166 
L 486 4346 
L 237 4038 
C 525 3763 845 3398 1037 3104 
C 896 2912 762 2726 634 2566 
L 179 2547 
z
" transform="scale(0.015625)"/>
     </defs>
     <use xlink:href="#NotoSansCJKjp-Regular-2eb1"/>
     <use xlink:href="#NotoSansCJKjp-Regular-4ea0" transform="translate(100 0)"/>
     <use xlink:href="#NotoSansCJKjp-Regular-2eb8" transform="translate(200 0)"/>
     <use xlink:href="#NotoSansCJKjp-Regular-e6c0" transform="translate(300 0)"/>
     <use xlink:href="#NotoSansCJKjp-Regular-9d19" transform="translate(400 0)"/>
     <use xlink:href="#NotoSansCJKjp-Regular-2d2b" transform="translate(500 0)"/>
     <use xlink:href="#NotoSansCJKjp-Regular-4857" transform="translate(600 0)"/>
     <use xlink:href="#NotoSansCJKjp-Regular-6ce1" transform="translate(700 0)"/>
     <use xlink:href="#NotoSansCJKjp-Regular-7a17" transform="translate(800 0)"/>
    </g>
   </g>
   <g id="text_11">
    <!-- $|\vec{a}+\vec{b}| = |\vec{a}|+|\vec{b}|$（等號） -->
    <g style="fill: #d1242f" transform="translate(360.712656 267.437101) scale(0.13 -0.13)">
     <defs>
      <path id="Cmr10-29" d="M 481 850 
Q 428 850 393 890 
Q 359 931 359 978 
Q 359 1031 393 1068 
Q 428 1106 481 1106 
L 4500 1106 
Q 4547 1106 4581 1068 
Q 4616 1031 4616 978 
Q 4616 931 4581 890 
Q 4547 850 4500 850 
L 481 850 
z
M 481 2094 
Q 428 2094 393 2131 
Q 359 2169 359 2222 
Q 359 2269 393 2309 
Q 428 2350 481 2350 
L 4500 2350 
Q 4547 2350 4581 2309 
Q 4616 2269 4616 2222 
Q 4616 2169 4581 2131 
Q 4547 2094 4500 2094 
L 481 2094 
z
" transform="scale(0.015625)"/>
      <path id="NotoSansCJKjp-Regular-e6ae" d="M 4448 2432 
C 4448 1184 4954 166 5722 -614 
L 6106 -416 
C 5370 346 4915 1293 4915 2432 
C 4915 3571 5370 4518 6106 5280 
L 5722 5478 
C 4954 4698 4448 3680 4448 2432 
z
" transform="scale(0.015625)"/>
      <path id="NotoSansCJKjp-Regular-74a1" d="M 3699 5408 
C 3514 4864 3168 4352 2771 4019 
L 2944 3910 
L 2944 3469 
L 941 3469 
L 941 3066 
L 2944 3066 
L 2944 2490 
L 307 2490 
L 307 2067 
L 4256 2067 
L 4256 1504 
L 512 1504 
L 512 1082 
L 4256 1082 
L 4256 64 
C 4256 -26 4224 -51 4109 -58 
C 3994 -64 3616 -64 3181 -51 
C 3251 -179 3334 -371 3360 -506 
C 3885 -506 4243 -499 4461 -435 
C 4678 -358 4742 -224 4742 58 
L 4742 1082 
L 5946 1082 
L 5946 1504 
L 4742 1504 
L 4742 2067 
L 6118 2067 
L 6118 2490 
L 3437 2490 
L 3437 3066 
L 5510 3066 
L 5510 3469 
L 3437 3469 
L 3437 3910 
L 3334 3910 
C 3475 4064 3610 4237 3731 4429 
L 4166 4429 
C 4358 4179 4544 3878 4621 3667 
L 5037 3846 
C 4966 4013 4832 4224 4685 4429 
L 6048 4429 
L 6048 4838 
L 3962 4838 
C 4038 4986 4102 5139 4160 5299 
L 3699 5408 
z
M 1427 806 
C 1843 531 2304 122 2515 -179 
L 2886 122 
C 2669 422 2195 819 1779 1082 
L 1427 806 
z
M 1190 5408 
C 973 4838 614 4282 211 3904 
C 326 3846 525 3712 614 3635 
C 826 3846 1030 4122 1222 4429 
L 1478 4429 
C 1600 4179 1715 3891 1754 3699 
L 2182 3859 
C 2144 4006 2054 4224 1958 4429 
L 3123 4429 
L 3123 4838 
L 1446 4838 
C 1517 4986 1587 5133 1645 5286 
L 1190 5408 
z
" transform="scale(0.015625)"/>
      <path id="NotoSansCJKjp-Regular-8c1b" d="M 986 4736 
L 1946 4736 
L 1946 3757 
L 986 3757 
L 986 4736 
z
M 557 5133 
L 557 3354 
L 2394 3354 
L 2394 5133 
L 557 5133 
z
M 3802 1728 
C 3757 794 3616 166 2918 -192 
C 3021 -262 3149 -429 3200 -531 
C 3987 -102 4166 640 4218 1728 
L 3802 1728 
z
M 4736 1734 
L 4736 166 
C 4736 -128 4762 -224 4870 -307 
C 4960 -390 5114 -410 5254 -410 
C 5325 -410 5530 -410 5613 -410 
C 5734 -410 5882 -390 5958 -352 
C 6054 -294 6125 -224 6163 -102 
C 6195 13 6221 326 6227 634 
C 6106 672 5952 755 5862 832 
C 5869 538 5856 294 5843 192 
C 5824 122 5792 70 5754 51 
C 5722 32 5645 26 5581 26 
C 5510 26 5402 26 5350 26 
C 5286 26 5235 32 5203 58 
C 5171 70 5158 115 5158 160 
L 5158 1734 
L 4736 1734 
z
M 256 2899 
L 256 2477 
L 813 2477 
C 717 2035 595 1523 486 1178 
L 922 1094 
L 1024 1498 
L 1901 1498 
C 1824 480 1741 64 1619 -51 
C 1568 -102 1504 -115 1408 -115 
C 1306 -115 1056 -115 787 -90 
C 864 -205 909 -384 922 -506 
C 1184 -525 1446 -525 1587 -512 
C 1760 -499 1875 -461 1984 -346 
C 2163 -154 2253 371 2355 1709 
C 2362 1779 2368 1907 2368 1907 
L 1126 1907 
L 1248 2477 
L 2669 2477 
L 2669 2899 
L 256 2899 
z
M 2848 4109 
L 2848 2470 
C 2848 1638 2784 525 2234 -282 
C 2336 -326 2522 -461 2598 -544 
C 3187 307 3283 1568 3283 2470 
L 3283 3712 
L 5690 3712 
C 5651 3450 5600 3187 5555 3002 
L 5933 2912 
C 6010 3200 6106 3661 6182 4051 
L 5882 4128 
L 5811 4109 
L 4570 4109 
L 4570 4538 
L 5862 4538 
L 5862 4934 
L 4570 4934 
L 4570 5376 
L 4109 5376 
L 4109 4109 
L 2848 4109 
z
M 4128 3667 
L 4128 3117 
L 3430 3046 
L 3475 2701 
L 4128 2771 
L 4128 2522 
C 4128 2112 4243 2010 4710 2010 
C 4806 2010 5312 2010 5414 2010 
C 5760 2010 5875 2138 5920 2630 
C 5805 2662 5638 2714 5542 2778 
C 5530 2419 5504 2368 5357 2368 
C 5254 2368 4845 2368 4762 2368 
C 4582 2368 4557 2387 4557 2522 
L 4557 2816 
L 5376 2899 
L 5331 3238 
L 4557 3162 
L 4557 3667 
L 4128 3667 
z
" transform="scale(0.015625)"/>
      <path id="NotoSansCJKjp-Regular-e6af" d="M 1952 2432 
C 1952 3680 1446 4698 678 5478 
L 294 5280 
C 1030 4518 1485 3571 1485 2432 
C 1485 1293 1030 346 294 -416 
L 678 -614 
C 1446 166 1952 1184 1952 2432 
z
" transform="scale(0.015625)"/>
     </defs>
     <use xlink:href="#Cmsy10-2f" transform="translate(0 0.328125)"/>
     <use xlink:href="#Cmmi10-6e" transform="translate(20.662598 5.40625)"/>
     <use xlink:href="#Cmmi10-79" transform="translate(27.685547 0.328125)"/>
     <use xlink:href="#Cmr10-4c" transform="translate(100.468807 0.328125)"/>
     <use xlink:href="#Cmmi10-6e" transform="translate(184.665642 30.609375)"/>
     <use xlink:href="#Cmmi10-4b" transform="translate(198.154411 0.328125)"/>
     <use xlink:href="#Cmsy10-2f" transform="translate(241.074333 0.328125)"/>
     <use xlink:href="#Cmr10-29" transform="translate(288.759937 0.328125)"/>
     <use xlink:href="#Cmsy10-2f" transform="translate(386.445541 0.328125)"/>
     <use xlink:href="#Cmmi10-6e" transform="translate(407.108139 5.40625)"/>
     <use xlink:href="#Cmmi10-79" transform="translate(414.131088 0.328125)"/>
     <use xlink:href="#Cmsy10-2f" transform="translate(466.914291 0.328125)"/>
     <use xlink:href="#Cmr10-4c" transform="translate(514.599895 0.328125)"/>
     <use xlink:href="#Cmsy10-2f" transform="translate(612.2855 0.328125)"/>
     <use xlink:href="#Cmmi10-6e" transform="translate(626.482277 30.609375)"/>
     <use xlink:href="#Cmmi10-4b" transform="translate(639.971046 0.328125)"/>
     <use xlink:href="#Cmsy10-2f" transform="translate(682.890968 0.328125)"/>
     <use xlink:href="#NotoSansCJKjp-Regular-e6ae" transform="translate(710.576515 0.328125)"/>
     <use xlink:href="#NotoSansCJKjp-Regular-74a1" transform="translate(810.576424 0.328125)"/>
     <use xlink:href="#NotoSansCJKjp-Regular-8c1b" transform="translate(910.576332 0.328125)"/>
     <use xlink:href="#NotoSansCJKjp-Regular-e6af" transform="translate(1010.576241 0.328125)"/>
    </g>
   </g>
   <g id="text_12">
    <!-- 同號／同向：等號成立 -->
    <g style="fill: #222831" transform="translate(367.927656 67.71325) scale(0.13 -0.13)">
     <defs>
      <path id="NotoSansCJKjp-Regular-e6b5" d="M 5990 5414 
L 218 -358 
L 410 -550 
L 6182 5222 
L 5990 5414 
z
" transform="scale(0.015625)"/>
      <path id="NotoSansCJKjp-Regular-73ae" d="M 1408 3194 
C 1728 2362 1971 1267 2003 563 
L 2496 685 
C 2445 1395 2202 2464 1862 3309 
L 1408 3194 
z
M 2938 5376 
L 2938 4115 
L 550 4115 
L 550 3642 
L 5894 3642 
L 5894 4115 
L 3437 4115 
L 3437 5376 
L 2938 5376 
z
M 4461 3347 
C 4275 2400 3910 1069 3590 243 
L 333 243 
L 333 -230 
L 6074 -230 
L 6074 243 
L 4096 243 
C 4403 1062 4762 2272 5011 3245 
L 4461 3347 
z
" transform="scale(0.015625)"/>
     </defs>
     <use xlink:href="#NotoSansCJKjp-Regular-2eb1"/>
     <use xlink:href="#NotoSansCJKjp-Regular-8c1b" transform="translate(100 0)"/>
     <use xlink:href="#NotoSansCJKjp-Regular-e6b5" transform="translate(200 0)"/>
     <use xlink:href="#NotoSansCJKjp-Regular-2eb1" transform="translate(300 0)"/>
     <use xlink:href="#NotoSansCJKjp-Regular-2eb8" transform="translate(400 0)"/>
     <use xlink:href="#NotoSansCJKjp-Regular-e6c0" transform="translate(500 0)"/>
     <use xlink:href="#NotoSansCJKjp-Regular-74a1" transform="translate(600 0)"/>
     <use xlink:href="#NotoSansCJKjp-Regular-8c1b" transform="translate(700 0)"/>
     <use xlink:href="#NotoSansCJKjp-Regular-4857" transform="translate(800 0)"/>
     <use xlink:href="#NotoSansCJKjp-Regular-73ae" transform="translate(900 0)"/>
    </g>
   </g>
  </g>
  <g id="text_13">
   <!-- 三角不等式的幾何來源 -->
   <g style="fill: #222831" transform="translate(200.217087 19.52) scale(0.14 -0.14)">
    <defs>
     <path id="NotoSansCJKjp-Regular-2518" d="M 3578 3059 
C 4339 2547 5299 1792 5754 1299 
L 6144 1670 
C 5664 2163 4691 2880 3936 3366 
L 3578 3059 
z
M 442 4928 
L 442 4435 
L 3290 4435 
C 2656 3341 1555 2259 282 1632 
C 384 1523 531 1331 608 1210 
C 1498 1677 2291 2336 2938 3078 
L 2938 -499 
L 3456 -499 
L 3456 3738 
C 3622 3962 3770 4198 3904 4435 
L 5958 4435 
L 5958 4928 
L 442 4928 
z
" transform="scale(0.015625)"/>
     <path id="NotoSansCJKjp-Regular-430b" d="M 4538 5062 
C 4870 4832 5267 4486 5459 4256 
L 5792 4557 
C 5600 4781 5190 5107 4864 5331 
L 4538 5062 
z
M 3616 5350 
C 3616 4954 3629 4563 3648 4179 
L 352 4179 
L 352 3712 
L 3680 3712 
C 3846 1331 4384 -525 5434 -525 
C 5926 -525 6106 -198 6189 922 
C 6054 973 5875 1082 5766 1190 
C 5722 333 5651 -26 5472 -26 
C 4838 -26 4339 1542 4179 3712 
L 6061 3712 
L 6061 4179 
L 4154 4179 
C 4134 4557 4128 4947 4128 5350 
L 3616 5350 
z
M 378 154 
L 531 -320 
C 1350 -141 2528 128 3616 384 
L 3578 819 
L 2208 525 
L 2208 2291 
L 3405 2291 
L 3405 2758 
L 576 2758 
L 576 2291 
L 1728 2291 
L 1728 429 
L 378 154 
z
" transform="scale(0.015625)"/>
     <path id="NotoSansCJKjp-Regular-6c33" d="M 3533 2707 
C 3885 2240 4320 1600 4512 1210 
L 4922 1466 
C 4710 1843 4269 2464 3904 2918 
L 3533 2707 
z
M 1536 5389 
C 1485 5082 1376 4659 1274 4346 
L 557 4346 
L 557 -346 
L 998 -346 
L 998 160 
L 2784 160 
L 2784 4346 
L 1715 4346 
C 1824 4621 1946 4979 2054 5299 
L 1536 5389 
z
M 998 3917 
L 2342 3917 
L 2342 2566 
L 998 2566 
L 998 3917 
z
M 998 595 
L 998 2144 
L 2342 2144 
L 2342 595 
L 998 595 
z
M 3827 5402 
C 3622 4518 3277 3635 2835 3066 
C 2950 3002 3149 2867 3238 2790 
C 3456 3098 3661 3488 3840 3923 
L 5478 3923 
C 5402 1357 5299 371 5094 154 
C 5018 64 4947 45 4819 45 
C 4672 45 4288 51 3866 83 
C 3955 -38 4013 -243 4026 -378 
C 4384 -397 4762 -410 4979 -390 
C 5210 -365 5350 -314 5498 -122 
C 5754 192 5843 1184 5939 4122 
C 5946 4186 5946 4365 5946 4365 
L 4013 4365 
C 4115 4666 4211 4986 4288 5299 
L 3827 5402 
z
" transform="scale(0.015625)"/>
     <path id="NotoSansCJKjp-Regular-41eb" d="M 5062 1658 
C 4845 1325 4538 1024 4179 762 
C 4013 1030 3872 1357 3757 1734 
L 6080 1734 
L 6080 2144 
L 5299 2144 
L 5408 2240 
C 5242 2419 4915 2650 4627 2810 
L 5594 2886 
C 5651 2765 5696 2650 5728 2554 
L 6099 2720 
C 5990 3027 5715 3507 5446 3866 
L 5094 3731 
C 5203 3578 5318 3398 5414 3226 
L 4410 3168 
C 4806 3597 5248 4160 5587 4627 
L 5210 4813 
C 5056 4563 4851 4262 4634 3968 
C 4531 4070 4390 4186 4250 4301 
C 4448 4557 4666 4896 4851 5190 
L 4467 5363 
C 4358 5114 4160 4774 3981 4499 
L 3763 4653 
L 3539 4358 
C 3827 4160 4166 3878 4390 3654 
C 4243 3469 4096 3296 3962 3149 
L 3629 3136 
L 3712 2739 
L 4602 2803 
L 4326 2573 
C 4525 2458 4749 2291 4922 2144 
L 3642 2144 
C 3411 3046 3296 4160 3302 5370 
L 2829 5370 
C 2835 4198 2938 3085 3162 2144 
L 339 2144 
L 339 1734 
L 1427 1734 
C 1312 1024 1050 237 275 -186 
C 378 -262 518 -416 582 -518 
C 1210 -160 1549 403 1741 1011 
C 2086 762 2496 442 2701 224 
L 3034 531 
C 2790 755 2317 1107 1958 1344 
L 1805 1216 
C 1850 1389 1882 1562 1914 1734 
L 3270 1734 
C 3405 1261 3578 845 3782 506 
C 3322 237 2797 19 2240 -134 
C 2349 -243 2464 -403 2528 -525 
C 3072 -358 3584 -134 4045 141 
C 4397 -269 4826 -506 5350 -506 
C 5875 -506 6054 -262 6157 621 
C 6035 659 5875 755 5773 851 
C 5715 141 5632 -58 5370 -58 
C 5018 -58 4704 109 4442 403 
C 4858 710 5216 1069 5485 1472 
L 5062 1658 
z
M 2138 4755 
C 1984 4493 1766 4179 1542 3872 
C 1440 3981 1318 4096 1184 4211 
C 1376 4474 1606 4838 1811 5152 
L 1421 5331 
C 1312 5069 1114 4698 934 4416 
L 685 4602 
L 442 4320 
C 736 4102 1075 3808 1299 3558 
C 1146 3366 998 3187 858 3040 
L 403 3027 
L 486 2618 
L 2426 2739 
C 2470 2637 2509 2541 2534 2458 
L 2893 2618 
C 2784 2906 2541 3373 2317 3725 
L 1984 3597 
C 2074 3443 2176 3270 2259 3098 
L 1306 3053 
C 1715 3494 2163 4083 2515 4570 
L 2138 4755 
z
" transform="scale(0.015625)"/>
     <path id="NotoSansCJKjp-Regular-26f0" d="M 2176 4755 
L 2176 4294 
L 5210 4294 
L 5210 154 
C 5210 26 5171 -13 5037 -13 
C 4896 -26 4422 -26 3910 -6 
C 3987 -154 4064 -365 4083 -506 
C 4710 -506 5139 -493 5370 -422 
C 5606 -339 5690 -192 5690 147 
L 5690 4294 
L 6163 4294 
L 6163 4755 
L 2176 4755 
z
M 2816 2963 
L 3923 2963 
L 3923 1600 
L 2816 1600 
L 2816 2963 
z
M 2362 3392 
L 2362 730 
L 2816 730 
L 2816 1178 
L 4371 1178 
L 4371 3392 
L 2362 3392 
z
M 1709 5370 
C 1376 4416 826 3456 237 2842 
C 326 2733 467 2477 512 2368 
C 717 2592 915 2854 1107 3136 
L 1107 -506 
L 1581 -506 
L 1581 3930 
C 1805 4352 1997 4794 2157 5235 
L 1709 5370 
z
" transform="scale(0.015625)"/>
     <path id="NotoSansCJKjp-Regular-273f" d="M 2931 5370 
L 2931 4480 
L 461 4480 
L 461 4013 
L 2931 4013 
L 2931 2438 
C 2349 1504 1280 614 237 186 
C 346 90 499 -96 576 -218 
C 1427 179 2298 877 2931 1696 
L 2931 -512 
L 3430 -512 
L 3430 1709 
C 4058 877 4934 160 5818 -237 
C 5894 -102 6048 90 6170 198 
C 5082 608 3994 1517 3430 2483 
L 3430 4013 
L 5984 4013 
L 5984 4480 
L 3430 4480 
L 3430 5370 
L 2931 5370 
z
M 1581 3866 
C 1389 3034 992 2336 410 1901 
C 518 1830 704 1677 787 1587 
C 1101 1850 1376 2195 1600 2598 
C 1830 2381 2067 2144 2202 1978 
L 2528 2310 
C 2368 2496 2067 2771 1798 3014 
C 1901 3251 1990 3507 2054 3776 
L 1581 3866 
z
M 4614 3866 
C 4474 3142 4166 2522 3706 2125 
C 3821 2067 4019 1939 4109 1862 
C 4326 2067 4512 2330 4672 2624 
C 5050 2304 5459 1946 5677 1702 
L 6016 2035 
C 5760 2291 5267 2707 4858 3027 
C 4954 3264 5024 3514 5082 3782 
L 4614 3866 
z
" transform="scale(0.015625)"/>
     <path id="NotoSansCJKjp-Regular-5d8e" d="M 3437 2650 
L 5395 2650 
L 5395 2080 
L 3437 2080 
L 3437 2650 
z
M 3437 3558 
L 5395 3558 
L 5395 3002 
L 3437 3002 
L 3437 3558 
z
M 3232 1357 
C 3053 896 2771 429 2451 109 
C 2560 51 2746 -77 2835 -147 
C 3142 198 3462 730 3661 1248 
L 3232 1357 
z
M 5043 1242 
C 5344 832 5658 282 5773 -64 
L 6214 134 
C 6080 486 5754 1018 5453 1408 
L 5043 1242 
z
M 557 4973 
C 941 4781 1395 4467 1619 4237 
L 1907 4621 
C 1683 4851 1216 5133 832 5312 
L 557 4973 
z
M 243 3245 
C 634 3072 1094 2784 1318 2566 
L 1600 2950 
C 1370 3162 896 3437 512 3597 
L 243 3245 
z
M 378 -154 
L 806 -422 
C 1114 179 1472 973 1734 1651 
L 1350 1920 
C 1062 1190 659 346 378 -154 
z
M 3002 3930 
L 3002 1709 
L 4154 1709 
L 4154 0 
C 4154 -70 4128 -96 4051 -102 
C 3968 -102 3686 -102 3386 -96 
C 3443 -218 3501 -390 3520 -506 
C 3942 -512 4224 -512 4397 -442 
C 4570 -371 4614 -250 4614 -13 
L 4614 1709 
L 5843 1709 
L 5843 3930 
L 4499 3930 
L 4704 4621 
L 4672 4627 
L 6086 4627 
L 6086 5062 
L 2163 5062 
L 2163 3309 
C 2163 2253 2093 800 1370 -230 
C 1478 -282 1683 -403 1766 -486 
C 2528 589 2630 2189 2630 3309 
L 2630 4627 
L 4166 4627 
C 4141 4416 4083 4147 4032 3930 
L 3002 3930 
z
" transform="scale(0.015625)"/>
    </defs>
    <use xlink:href="#NotoSansCJKjp-Regular-2514"/>
    <use xlink:href="#NotoSansCJKjp-Regular-9248" transform="translate(100 0)"/>
    <use xlink:href="#NotoSansCJKjp-Regular-2518" transform="translate(200 0)"/>
    <use xlink:href="#NotoSansCJKjp-Regular-74a1" transform="translate(300 0)"/>
    <use xlink:href="#NotoSansCJKjp-Regular-430b" transform="translate(400 0)"/>
    <use xlink:href="#NotoSansCJKjp-Regular-6c33" transform="translate(500 0)"/>
    <use xlink:href="#NotoSansCJKjp-Regular-41eb" transform="translate(600 0)"/>
    <use xlink:href="#NotoSansCJKjp-Regular-26f0" transform="translate(700 0)"/>
    <use xlink:href="#NotoSansCJKjp-Regular-273f" transform="translate(800 0)"/>
    <use xlink:href="#NotoSansCJKjp-Regular-5d8e" transform="translate(900 0)"/>
   </g>
  </g>
 </g>
</svg>
