<?xml version="1.0" encoding="utf-8" standalone="no"?>
<!DOCTYPE svg PUBLIC "-//W3C//DTD SVG 1.1//EN"
  "http://www.w3.org/Graphics/SVG/1.1/DTD/svg11.dtd">
<svg xmlns:xlink="http://www.w3.org/1999/xlink" width="448.89pt" height="319.68pt" viewBox="0 0 448.89 319.68" xmlns="http://www.w3.org/2000/svg" version="1.1">
 <metadata>
  <rdf:RDF xmlns:dc="http://purl.org/dc/elements/1.1/" xmlns:cc="http://creativecommons.org/ns#" xmlns:rdf="http://www.w3.org/1999/02/22-rdf-syntax-ns#">
   <cc:Work>
    <dc:type rdf:resource="http://purl.org/dc/dcmitype/StillImage"/>
    <dc:date>2026-06-18T00:40:49.342537</dc:date>
    <dc:format>image/svg+xml</dc:format>
    <dc:creator>
     <cc:Agent>
      <dc:title>Matplotlib v3.11.0, https://matplotlib.org/</dc:title>
     </cc:Agent>
    </dc:creator>
   </cc:Work>
  </rdf:RDF>
 </metadata>
 <defs>
  <style type="text/css">*{stroke-linejoin: round; stroke-linecap: butt}</style>
 </defs>
 <g id="figure_1">
  <g id="patch_1">
   <path d="M 0 319.68 
L 448.89 319.68 
L 448.89 0 
L 0 0 
z
" style="fill: #ffffff"/>
  </g>
  <g id="axes_1">
   <g id="patch_2">
    <path d="M 37.94 277.48 
L 438.36 277.48 
L 438.36 25.52 
L 37.94 25.52 
z
" style="fill: #ffffff"/>
   </g>
   <g id="matplotlib.axis_1">
    <g id="xtick_1">
     <g id="line2d_1">
      <path d="M 37.94 277.48 
L 37.94 25.52 
" clip-path="url(#p5bd37d5d6d)" style="fill: none; stroke: #d8dde3; stroke-width: 0.8; stroke-linecap: square"/>
     </g>
     <g id="line2d_2">
      <defs>
       <path id="m7c96a76adf" d="M 0 0 
L 0 3.5 
" style="stroke: #222831; stroke-width: 0.8"/>
      </defs>
      <g>
       <use xlink:href="#m7c96a76adf" x="37.94" y="277.48" style="fill: #222831; stroke: #222831; stroke-width: 0.8"/>
      </g>
     </g>
     <g id="text_1">
      <!-- -3 -->
      <g style="fill: #222831" transform="translate(32.527813 295.04) scale(0.12 -0.12)">
       <defs>
        <path id="NotoSansCJKjp-Regular-e" d="M 294 1568 
L 1933 1568 
L 1933 2016 
L 294 2016 
L 294 1568 
z
" transform="scale(0.015625)"/>
        <path id="NotoSansCJKjp-Regular-14" d="M 1683 -83 
C 2522 -83 3194 416 3194 1254 
C 3194 1901 2752 2310 2202 2445 
L 2202 2477 
C 2701 2650 3034 3034 3034 3603 
C 3034 4346 2458 4774 1664 4774 
C 1126 4774 710 4538 358 4218 
L 672 3846 
C 941 4115 1267 4301 1645 4301 
C 2138 4301 2438 4006 2438 3558 
C 2438 3053 2112 2662 1139 2662 
L 1139 2214 
C 2227 2214 2598 1843 2598 1274 
C 2598 736 2208 403 1645 403 
C 1114 403 762 659 486 941 
L 186 563 
C 493 224 954 -83 1683 -83 
z
" transform="scale(0.015625)"/>
       </defs>
       <use xlink:href="#NotoSansCJKjp-Regular-e"/>
       <use xlink:href="#NotoSansCJKjp-Regular-14" transform="translate(34.703125 0)"/>
      </g>
     </g>
    </g>
    <g id="xtick_2">
     <g id="line2d_3">
      <path d="M 104.676667 277.48 
L 104.676667 25.52 
" clip-path="url(#p5bd37d5d6d)" style="fill: none; stroke: #d8dde3; stroke-width: 0.8; stroke-linecap: square"/>
     </g>
     <g id="line2d_4">
      <g>
       <use xlink:href="#m7c96a76adf" x="104.676667" y="277.48" style="fill: #222831; stroke: #222831; stroke-width: 0.8"/>
      </g>
     </g>
     <g id="text_2">
      <!-- -2 -->
      <g style="fill: #222831" transform="translate(99.264479 295.04) scale(0.12 -0.12)">
       <defs>
        <path id="NotoSansCJKjp-Regular-13" d="M 282 0 
L 3232 0 
L 3232 506 
L 1933 506 
C 1696 506 1408 480 1165 461 
C 2266 1504 3008 2458 3008 3398 
C 3008 4230 2477 4774 1638 4774 
C 1043 4774 634 4506 256 4090 
L 595 3757 
C 858 4070 1184 4301 1568 4301 
C 2150 4301 2432 3910 2432 3373 
C 2432 2566 1754 1632 282 346 
L 282 0 
z
" transform="scale(0.015625)"/>
       </defs>
       <use xlink:href="#NotoSansCJKjp-Regular-e"/>
       <use xlink:href="#NotoSansCJKjp-Regular-13" transform="translate(34.703125 0)"/>
      </g>
     </g>
    </g>
    <g id="xtick_3">
     <g id="line2d_5">
      <path d="M 171.413333 277.48 
L 171.413333 25.52 
" clip-path="url(#p5bd37d5d6d)" style="fill: none; stroke: #d8dde3; stroke-width: 0.8; stroke-linecap: square"/>
     </g>
     <g id="line2d_6">
      <g>
       <use xlink:href="#m7c96a76adf" x="171.413333" y="277.48" style="fill: #222831; stroke: #222831; stroke-width: 0.8"/>
      </g>
     </g>
     <g id="text_3">
      <!-- -1 -->
      <g style="fill: #222831" transform="translate(166.001146 295.04) scale(0.12 -0.12)">
       <defs>
        <path id="NotoSansCJKjp-Regular-12" d="M 563 0 
L 3136 0 
L 3136 486 
L 2195 486 
L 2195 4691 
L 1747 4691 
C 1491 4544 1190 4435 774 4358 
L 774 3987 
L 1613 3987 
L 1613 486 
L 563 486 
L 563 0 
z
" transform="scale(0.015625)"/>
       </defs>
       <use xlink:href="#NotoSansCJKjp-Regular-e"/>
       <use xlink:href="#NotoSansCJKjp-Regular-12" transform="translate(34.703125 0)"/>
      </g>
     </g>
    </g>
    <g id="xtick_4">
     <g id="line2d_7">
      <path d="M 238.15 277.48 
L 238.15 25.52 
" clip-path="url(#p5bd37d5d6d)" style="fill: none; stroke: #d8dde3; stroke-width: 0.8; stroke-linecap: square"/>
     </g>
     <g id="line2d_8">
      <g>
       <use xlink:href="#m7c96a76adf" x="238.15" y="277.48" style="fill: #222831; stroke: #222831; stroke-width: 0.8"/>
      </g>
     </g>
     <g id="text_4">
      <!-- 0 -->
      <g style="fill: #222831" transform="translate(234.82 295.04) scale(0.12 -0.12)">
       <defs>
        <path id="NotoSansCJKjp-Regular-11" d="M 1779 -83 
C 2669 -83 3238 723 3238 2362 
C 3238 3987 2669 4774 1779 4774 
C 883 4774 320 3987 320 2362 
C 320 723 883 -83 1779 -83 
z
M 1779 390 
C 1248 390 883 986 883 2362 
C 883 3731 1248 4314 1779 4314 
C 2310 4314 2675 3731 2675 2362 
C 2675 986 2310 390 1779 390 
z
" transform="scale(0.015625)"/>
       </defs>
       <use xlink:href="#NotoSansCJKjp-Regular-11"/>
      </g>
     </g>
    </g>
    <g id="xtick_5">
     <g id="line2d_9">
      <path d="M 304.886667 277.48 
L 304.886667 25.52 
" clip-path="url(#p5bd37d5d6d)" style="fill: none; stroke: #d8dde3; stroke-width: 0.8; stroke-linecap: square"/>
     </g>
     <g id="line2d_10">
      <g>
       <use xlink:href="#m7c96a76adf" x="304.886667" y="277.48" style="fill: #222831; stroke: #222831; stroke-width: 0.8"/>
      </g>
     </g>
     <g id="text_5">
      <!-- 1 -->
      <g style="fill: #222831" transform="translate(301.556667 295.04) scale(0.12 -0.12)">
       <use xlink:href="#NotoSansCJKjp-Regular-12"/>
      </g>
     </g>
    </g>
    <g id="xtick_6">
     <g id="line2d_11">
      <path d="M 371.623333 277.48 
L 371.623333 25.52 
" clip-path="url(#p5bd37d5d6d)" style="fill: none; stroke: #d8dde3; stroke-width: 0.8; stroke-linecap: square"/>
     </g>
     <g id="line2d_12">
      <g>
       <use xlink:href="#m7c96a76adf" x="371.623333" y="277.48" style="fill: #222831; stroke: #222831; stroke-width: 0.8"/>
      </g>
     </g>
     <g id="text_6">
      <!-- 2 -->
      <g style="fill: #222831" transform="translate(368.293333 295.04) scale(0.12 -0.12)">
       <use xlink:href="#NotoSansCJKjp-Regular-13"/>
      </g>
     </g>
    </g>
    <g id="xtick_7">
     <g id="line2d_13">
      <path d="M 438.36 277.48 
L 438.36 25.52 
" clip-path="url(#p5bd37d5d6d)" style="fill: none; stroke: #d8dde3; stroke-width: 0.8; stroke-linecap: square"/>
     </g>
     <g id="line2d_14">
      <g>
       <use xlink:href="#m7c96a76adf" x="438.36" y="277.48" style="fill: #222831; stroke: #222831; stroke-width: 0.8"/>
      </g>
     </g>
     <g id="text_7">
      <!-- 3 -->
      <g style="fill: #222831" transform="translate(435.03 295.04) scale(0.12 -0.12)">
       <use xlink:href="#NotoSansCJKjp-Regular-14"/>
      </g>
     </g>
    </g>
    <g id="text_8">
     <!-- $x$ -->
     <g style="fill: #222831" transform="translate(234.67 311.04) scale(0.12 -0.12)">
      <defs>
       <path id="Cmmi10-3f" d="M 500 184 
Q 613 97 819 97 
Q 1019 97 1172 289 
Q 1325 481 1381 709 
L 1672 1844 
Q 1741 2153 1741 2266 
Q 1741 2425 1652 2544 
Q 1563 2663 1403 2663 
Q 1200 2663 1022 2536 
Q 844 2409 722 2214 
Q 600 2019 550 1819 
Q 538 1778 500 1778 
L 422 1778 
Q 372 1778 372 1838 
L 372 1856 
Q 434 2094 584 2320 
Q 734 2547 951 2687 
Q 1169 2828 1416 2828 
Q 1650 2828 1839 2703 
Q 2028 2578 2106 2363 
Q 2216 2559 2386 2693 
Q 2556 2828 2759 2828 
Q 2897 2828 3040 2779 
Q 3184 2731 3275 2631 
Q 3366 2531 3366 2381 
Q 3366 2219 3261 2101 
Q 3156 1984 2994 1984 
Q 2891 1984 2822 2050 
Q 2753 2116 2753 2216 
Q 2753 2350 2845 2451 
Q 2938 2553 3066 2572 
Q 2950 2663 2747 2663 
Q 2541 2663 2389 2472 
Q 2238 2281 2175 2047 
L 1894 916 
Q 1825 659 1825 494 
Q 1825 331 1917 214 
Q 2009 97 2163 97 
Q 2463 97 2698 361 
Q 2934 625 3009 941 
Q 3022 978 3059 978 
L 3138 978 
Q 3163 978 3178 961 
Q 3194 944 3194 922 
Q 3194 916 3188 903 
Q 3097 522 2806 225 
Q 2516 -72 2150 -72 
Q 1916 -72 1727 54 
Q 1538 181 1459 397 
Q 1359 209 1182 68 
Q 1006 -72 806 -72 
Q 669 -72 523 -23 
Q 378 25 287 125 
Q 197 225 197 378 
Q 197 528 301 651 
Q 406 775 563 775 
Q 669 775 741 711 
Q 813 647 813 544 
Q 813 409 723 309 
Q 634 209 500 184 
z
" transform="scale(0.015625)"/>
      </defs>
      <use xlink:href="#Cmmi10-3f" transform="translate(0 0.8125)"/>
     </g>
    </g>
   </g>
   <g id="matplotlib.axis_2">
    <g id="ytick_1">
     <g id="line2d_15">
      <path d="M 37.94 262.209697 
L 438.36 262.209697 
" clip-path="url(#p5bd37d5d6d)" style="fill: none; stroke: #d8dde3; stroke-width: 0.8; stroke-linecap: square"/>
     </g>
     <g id="line2d_16">
      <defs>
       <path id="m582a6a9eb8" d="M 0 0 
L -3.5 0 
" style="stroke: #222831; stroke-width: 0.8"/>
      </defs>
      <g>
       <use xlink:href="#m582a6a9eb8" x="37.94" y="262.209697" style="fill: #222831; stroke: #222831; stroke-width: 0.8"/>
      </g>
     </g>
     <g id="text_9">
      <!-- 0 -->
      <g style="fill: #222831" transform="translate(24.28 267.489697) scale(0.12 -0.12)">
       <use xlink:href="#NotoSansCJKjp-Regular-11"/>
      </g>
     </g>
    </g>
    <g id="ytick_2">
     <g id="line2d_17">
      <path d="M 37.94 224.033939 
L 438.36 224.033939 
" clip-path="url(#p5bd37d5d6d)" style="fill: none; stroke: #d8dde3; stroke-width: 0.8; stroke-linecap: square"/>
     </g>
     <g id="line2d_18">
      <g>
       <use xlink:href="#m582a6a9eb8" x="37.94" y="224.033939" style="fill: #222831; stroke: #222831; stroke-width: 0.8"/>
      </g>
     </g>
     <g id="text_10">
      <!-- 1 -->
      <g style="fill: #222831" transform="translate(24.28 229.313939) scale(0.12 -0.12)">
       <use xlink:href="#NotoSansCJKjp-Regular-12"/>
      </g>
     </g>
    </g>
    <g id="ytick_3">
     <g id="line2d_19">
      <path d="M 37.94 185.858182 
L 438.36 185.858182 
" clip-path="url(#p5bd37d5d6d)" style="fill: none; stroke: #d8dde3; stroke-width: 0.8; stroke-linecap: square"/>
     </g>
     <g id="line2d_20">
      <g>
       <use xlink:href="#m582a6a9eb8" x="37.94" y="185.858182" style="fill: #222831; stroke: #222831; stroke-width: 0.8"/>
      </g>
     </g>
     <g id="text_11">
      <!-- 2 -->
      <g style="fill: #222831" transform="translate(24.28 191.138182) scale(0.12 -0.12)">
       <use xlink:href="#NotoSansCJKjp-Regular-13"/>
      </g>
     </g>
    </g>
    <g id="ytick_4">
     <g id="line2d_21">
      <path d="M 37.94 147.682424 
L 438.36 147.682424 
" clip-path="url(#p5bd37d5d6d)" style="fill: none; stroke: #d8dde3; stroke-width: 0.8; stroke-linecap: square"/>
     </g>
     <g id="line2d_22">
      <g>
       <use xlink:href="#m582a6a9eb8" x="37.94" y="147.682424" style="fill: #222831; stroke: #222831; stroke-width: 0.8"/>
      </g>
     </g>
     <g id="text_12">
      <!-- 3 -->
      <g style="fill: #222831" transform="translate(24.28 152.962424) scale(0.12 -0.12)">
       <use xlink:href="#NotoSansCJKjp-Regular-14"/>
      </g>
     </g>
    </g>
    <g id="ytick_5">
     <g id="line2d_23">
      <path d="M 37.94 109.506667 
L 438.36 109.506667 
" clip-path="url(#p5bd37d5d6d)" style="fill: none; stroke: #d8dde3; stroke-width: 0.8; stroke-linecap: square"/>
     </g>
     <g id="line2d_24">
      <g>
       <use xlink:href="#m582a6a9eb8" x="37.94" y="109.506667" style="fill: #222831; stroke: #222831; stroke-width: 0.8"/>
      </g>
     </g>
     <g id="text_13">
      <!-- 4 -->
      <g style="fill: #222831" transform="translate(24.28 114.786667) scale(0.12 -0.12)">
       <defs>
        <path id="NotoSansCJKjp-Regular-15" d="M 2176 0 
L 2726 0 
L 2726 1293 
L 3354 1293 
L 3354 1760 
L 2726 1760 
L 2726 4691 
L 2080 4691 
L 128 1677 
L 128 1293 
L 2176 1293 
L 2176 0 
z
M 2176 1760 
L 736 1760 
L 1805 3360 
C 1939 3590 2067 3827 2182 4051 
L 2208 4051 
C 2195 3814 2176 3430 2176 3200 
L 2176 1760 
z
" transform="scale(0.015625)"/>
       </defs>
       <use xlink:href="#NotoSansCJKjp-Regular-15"/>
      </g>
     </g>
    </g>
    <g id="ytick_6">
     <g id="line2d_25">
      <path d="M 37.94 71.330909 
L 438.36 71.330909 
" clip-path="url(#p5bd37d5d6d)" style="fill: none; stroke: #d8dde3; stroke-width: 0.8; stroke-linecap: square"/>
     </g>
     <g id="line2d_26">
      <g>
       <use xlink:href="#m582a6a9eb8" x="37.94" y="71.330909" style="fill: #222831; stroke: #222831; stroke-width: 0.8"/>
      </g>
     </g>
     <g id="text_14">
      <!-- 5 -->
      <g style="fill: #222831" transform="translate(24.28 76.610909) scale(0.12 -0.12)">
       <defs>
        <path id="NotoSansCJKjp-Regular-16" d="M 1677 -83 
C 2464 -83 3213 499 3213 1523 
C 3213 2560 2573 3021 1798 3021 
C 1517 3021 1306 2950 1094 2835 
L 1216 4192 
L 2982 4192 
L 2982 4691 
L 704 4691 
L 550 2502 
L 864 2304 
C 1133 2483 1331 2579 1645 2579 
C 2234 2579 2618 2182 2618 1510 
C 2618 826 2176 403 1619 403 
C 1075 403 730 653 467 922 
L 173 538 
C 493 224 941 -83 1677 -83 
z
" transform="scale(0.015625)"/>
       </defs>
       <use xlink:href="#NotoSansCJKjp-Regular-16"/>
      </g>
     </g>
    </g>
    <g id="ytick_7">
     <g id="line2d_27">
      <path d="M 37.94 33.155152 
L 438.36 33.155152 
" clip-path="url(#p5bd37d5d6d)" style="fill: none; stroke: #d8dde3; stroke-width: 0.8; stroke-linecap: square"/>
     </g>
     <g id="line2d_28">
      <g>
       <use xlink:href="#m582a6a9eb8" x="37.94" y="33.155152" style="fill: #222831; stroke: #222831; stroke-width: 0.8"/>
      </g>
     </g>
     <g id="text_15">
      <!-- 6 -->
      <g style="fill: #222831" transform="translate(24.28 38.435152) scale(0.12 -0.12)">
       <defs>
        <path id="NotoSansCJKjp-Regular-17" d="M 1926 -83 
C 2656 -83 3277 531 3277 1440 
C 3277 2426 2765 2912 1971 2912 
C 1606 2912 1197 2701 909 2349 
C 934 3802 1466 4294 2118 4294 
C 2400 4294 2682 4154 2861 3936 
L 3194 4294 
C 2931 4576 2579 4774 2093 4774 
C 1184 4774 358 4077 358 2240 
C 358 691 1030 -83 1926 -83 
z
M 922 1882 
C 1229 2317 1587 2477 1875 2477 
C 2445 2477 2720 2074 2720 1440 
C 2720 800 2374 378 1926 378 
C 1338 378 986 909 922 1882 
z
" transform="scale(0.015625)"/>
       </defs>
       <use xlink:href="#NotoSansCJKjp-Regular-17"/>
      </g>
     </g>
    </g>
    <g id="text_16">
     <!-- $y$ -->
     <g style="fill: #222831" transform="translate(17.76 154.5) rotate(-90) scale(0.12 -0.12)">
      <defs>
       <path id="Cmmi10-72" d="M 538 -916 
Q 672 -1147 1006 -1147 
Q 1309 -1147 1531 -934 
Q 1753 -722 1889 -420 
Q 2025 -119 2100 197 
Q 1816 -72 1484 -72 
Q 1231 -72 1053 15 
Q 875 103 776 276 
Q 678 450 678 697 
Q 678 906 734 1126 
Q 791 1347 892 1617 
Q 994 1888 1069 2088 
Q 1153 2322 1153 2472 
Q 1153 2663 1013 2663 
Q 759 2663 595 2402 
Q 431 2141 353 1819 
Q 341 1778 300 1778 
L 225 1778 
Q 172 1778 172 1838 
L 172 1856 
Q 275 2238 487 2533 
Q 700 2828 1025 2828 
Q 1253 2828 1411 2678 
Q 1569 2528 1569 2297 
Q 1569 2178 1516 2047 
Q 1488 1969 1388 1706 
Q 1288 1444 1234 1272 
Q 1181 1100 1147 934 
Q 1113 769 1113 603 
Q 1113 391 1203 244 
Q 1294 97 1491 97 
Q 1888 97 2203 581 
L 2688 2553 
Q 2709 2638 2787 2698 
Q 2866 2759 2956 2759 
Q 3034 2759 3092 2709 
Q 3150 2659 3150 2578 
Q 3150 2541 3144 2528 
L 2509 -19 
Q 2425 -347 2200 -647 
Q 1975 -947 1658 -1130 
Q 1341 -1313 997 -1313 
Q 831 -1313 668 -1248 
Q 506 -1184 406 -1056 
Q 306 -928 306 -756 
Q 306 -581 409 -453 
Q 513 -325 684 -325 
Q 788 -325 858 -389 
Q 928 -453 928 -556 
Q 928 -703 818 -812 
Q 709 -922 563 -922 
Q 556 -919 550 -917 
Q 544 -916 538 -916 
z
" transform="scale(0.015625)"/>
      </defs>
      <use xlink:href="#Cmmi10-72" transform="translate(0 0.8125)"/>
     </g>
    </g>
   </g>
   <g id="line2d_29">
    <path d="M 37.94 257.437727 
L 58.011178 256.331651 
L 76.075238 255.118577 
L 92.13218 253.831644 
L 107.185564 252.413791 
L 121.235388 250.874754 
L 134.281654 249.229918 
L 146.324361 247.500516 
L 158.367068 245.540691 
L 169.406216 243.515615 
L 179.441805 241.461909 
L 189.477393 239.182585 
L 198.509424 236.91786 
L 207.541454 234.430398 
L 216.573484 231.698294 
L 224.601955 229.044979 
L 232.630426 226.160927 
L 240.658897 223.026075 
L 247.68381 220.060243 
L 254.708722 216.869927 
L 261.733634 213.438133 
L 268.758546 209.746584 
L 275.783459 205.775621 
L 281.804812 202.133557 
L 287.826165 198.256446 
L 293.847519 194.129121 
L 299.868872 189.735431 
L 305.890226 185.058188 
L 311.911579 180.079091 
L 317.932932 174.77866 
L 323.954286 169.136157 
L 328.97208 164.156882 
L 333.989875 158.911225 
L 339.007669 153.384933 
L 344.025464 147.562995 
L 349.043258 141.429592 
L 354.061053 134.968064 
L 359.078847 128.160854 
L 364.096642 120.98947 
L 369.114436 113.43443 
L 374.132231 105.475208 
L 379.150025 97.090181 
L 384.16782 88.25657 
L 389.185614 78.950375 
L 394.203409 69.146315 
L 399.221203 58.817755 
L 404.238997 47.936634 
L 409.256792 36.473392 
L 414.274586 24.396886 
L 419.292381 11.674308 
L 424.042893 -1 
L 424.042893 -1 
" clip-path="url(#p5bd37d5d6d)" style="fill: none; stroke: #1f6feb; stroke-width: 2.6; stroke-linecap: square"/>
   </g>
   <g id="line2d_30">
    <path d="M 52.257107 -1 
L 57.007619 11.674308 
L 62.025414 24.396886 
L 67.043208 36.473392 
L 72.061003 47.936634 
L 77.078797 58.817755 
L 82.096591 69.146315 
L 87.114386 78.950375 
L 92.13218 88.25657 
L 97.149975 97.090181 
L 102.167769 105.475208 
L 107.185564 113.43443 
L 112.203358 120.98947 
L 117.221153 128.160854 
L 122.238947 134.968064 
L 127.256742 141.429592 
L 132.274536 147.562995 
L 137.292331 153.384933 
L 142.310125 158.911225 
L 147.32792 164.156882 
L 153.349273 170.101249 
L 159.370627 175.685244 
L 165.39198 180.930714 
L 171.413333 185.858182 
L 177.434687 190.486926 
L 183.45604 194.835057 
L 189.477393 198.919586 
L 195.498747 202.756494 
L 201.5201 206.360793 
L 208.545013 210.290581 
L 215.569925 213.943851 
L 222.594837 217.340061 
L 229.619749 220.497297 
L 236.644662 223.432375 
L 244.673133 226.534722 
L 252.701604 229.388868 
L 260.730075 232.014671 
L 269.762105 234.718446 
L 278.794135 237.180114 
L 287.826165 239.421356 
L 297.861754 241.677045 
L 307.897343 243.709457 
L 318.936491 245.713534 
L 329.975639 247.500516 
L 342.018346 249.229918 
L 355.064612 250.874754 
L 369.114436 252.413791 
L 384.16782 253.831644 
L 400.224762 255.118577 
L 418.288822 256.331651 
L 437.356441 257.387728 
L 438.36 257.437727 
L 438.36 257.437727 
" clip-path="url(#p5bd37d5d6d)" style="fill: none; stroke: #d1242f; stroke-width: 2.6; stroke-linecap: square"/>
   </g>
   <g id="line2d_31">
    <path d="M 37.94 262.209697 
L 438.36 262.209697 
" clip-path="url(#p5bd37d5d6d)" style="fill: none; stroke: #222831; stroke-width: 1.2; stroke-linecap: square"/>
   </g>
   <g id="line2d_32">
    <path d="M 238.15 277.48 
L 238.15 25.52 
" clip-path="url(#p5bd37d5d6d)" style="fill: none; stroke: #222831; stroke-width: 1.2; stroke-linecap: square"/>
   </g>
   <g id="text_17">
    <!-- $(0,\,1)$ -->
    <g style="fill: #222831" transform="translate(250.1626 217.162303) scale(0.12 -0.12)">
     <defs>
      <path id="Cmr10-77" d="M 1984 -1588 
Q 1628 -1306 1370 -942 
Q 1113 -578 948 -165 
Q 784 247 703 697 
Q 622 1147 622 1600 
Q 622 2059 703 2509 
Q 784 2959 951 3375 
Q 1119 3791 1378 4153 
Q 1638 4516 1984 4788 
Q 1984 4800 2016 4800 
L 2075 4800 
Q 2094 4800 2109 4783 
Q 2125 4766 2125 4744 
Q 2125 4716 2113 4703 
Q 1800 4397 1592 4047 
Q 1384 3697 1257 3301 
Q 1131 2906 1075 2482 
Q 1019 2059 1019 1600 
Q 1019 -434 2106 -1491 
Q 2125 -1509 2125 -1544 
Q 2125 -1559 2108 -1579 
Q 2091 -1600 2075 -1600 
L 2016 -1600 
Q 1984 -1600 1984 -1588 
z
" transform="scale(0.015625)"/>
      <path id="Cmr10-28" d="M 1600 -141 
Q 816 -141 533 504 
Q 250 1150 250 2041 
Q 250 2597 351 3087 
Q 453 3578 754 3920 
Q 1056 4263 1600 4263 
Q 2022 4263 2290 4056 
Q 2559 3850 2700 3523 
Q 2841 3197 2892 2823 
Q 2944 2450 2944 2041 
Q 2944 1491 2842 1011 
Q 2741 531 2444 195 
Q 2147 -141 1600 -141 
z
M 1600 25 
Q 1956 25 2131 390 
Q 2306 756 2347 1200 
Q 2388 1644 2388 2144 
Q 2388 2625 2347 3031 
Q 2306 3438 2132 3767 
Q 1959 4097 1600 4097 
Q 1238 4097 1063 3765 
Q 888 3434 847 3029 
Q 806 2625 806 2144 
Q 806 1788 823 1472 
Q 841 1156 916 820 
Q 991 484 1158 254 
Q 1325 25 1600 25 
z
" transform="scale(0.015625)"/>
      <path id="Cmmi10-2c" d="M 634 -1153 
Q 634 -1125 659 -1100 
Q 891 -878 1019 -587 
Q 1147 -297 1147 25 
L 1147 103 
Q 1044 0 891 0 
Q 744 0 641 103 
Q 538 206 538 353 
Q 538 503 641 603 
Q 744 703 891 703 
Q 1119 703 1216 492 
Q 1313 281 1313 25 
Q 1313 -331 1170 -651 
Q 1028 -972 769 -1228 
Q 744 -1241 728 -1241 
Q 697 -1241 665 -1212 
Q 634 -1184 634 -1153 
z
" transform="scale(0.015625)"/>
      <path id="Cmr10-64" d="M 594 0 
L 594 225 
Q 1394 225 1394 428 
L 1394 3788 
Q 1063 3628 556 3628 
L 556 3853 
Q 1341 3853 1741 4263 
L 1831 4263 
Q 1853 4263 1873 4245 
Q 1894 4228 1894 4206 
L 1894 428 
Q 1894 225 2694 225 
L 2694 0 
L 594 0 
z
" transform="scale(0.015625)"/>
      <path id="Cmr10-44" d="M 416 -1600 
Q 359 -1600 359 -1544 
Q 359 -1516 372 -1503 
Q 1466 -434 1466 1600 
Q 1466 3634 384 4691 
Q 359 4706 359 4744 
Q 359 4766 376 4783 
Q 394 4800 416 4800 
L 475 4800 
Q 494 4800 506 4788 
Q 966 4425 1272 3906 
Q 1578 3388 1720 2800 
Q 1863 2213 1863 1600 
Q 1863 1147 1786 708 
Q 1709 269 1542 -157 
Q 1375 -584 1119 -945 
Q 863 -1306 506 -1588 
Q 494 -1600 475 -1600 
L 416 -1600 
z
" transform="scale(0.015625)"/>
     </defs>
     <use xlink:href="#Cmr10-77"/>
     <use xlink:href="#Cmr10-28" transform="translate(38.818359 0)"/>
     <use xlink:href="#Cmmi10-2c" transform="translate(88.818359 0)"/>
     <use xlink:href="#Cmr10-64" transform="translate(153.171011 0)"/>
     <use xlink:href="#Cmr10-44" transform="translate(203.171011 0)"/>
    </g>
   </g>
   <g id="text_18">
    <!-- $y=0$（漸近線） -->
    <g style="fill: #6b7280" transform="translate(329.4585 255.338061) scale(0.11 -0.11)">
     <defs>
      <path id="Cmr10-29" d="M 481 850 
Q 428 850 393 890 
Q 359 931 359 978 
Q 359 1031 393 1068 
Q 428 1106 481 1106 
L 4500 1106 
Q 4547 1106 4581 1068 
Q 4616 1031 4616 978 
Q 4616 931 4581 890 
Q 4547 850 4500 850 
L 481 850 
z
M 481 2094 
Q 428 2094 393 2131 
Q 359 2169 359 2222 
Q 359 2269 393 2309 
Q 428 2350 481 2350 
L 4500 2350 
Q 4547 2350 4581 2309 
Q 4616 2269 4616 2222 
Q 4616 2169 4581 2131 
Q 4547 2094 4500 2094 
L 481 2094 
z
" transform="scale(0.015625)"/>
      <path id="NotoSansCJKjp-Regular-e6ae" d="M 4448 2432 
C 4448 1184 4954 166 5722 -614 
L 6106 -416 
C 5370 346 4915 1293 4915 2432 
C 4915 3571 5370 4518 6106 5280 
L 5722 5478 
C 4954 4698 4448 3680 4448 2432 
z
" transform="scale(0.015625)"/>
      <path id="NotoSansCJKjp-Regular-5ecc" d="M 243 3251 
C 608 3072 1043 2790 1248 2579 
L 1536 2963 
C 1318 3168 877 3437 518 3597 
L 243 3251 
z
M 352 -192 
L 794 -435 
C 1056 160 1370 960 1594 1638 
L 1203 1882 
C 960 1158 602 314 352 -192 
z
M 5683 5376 
C 5427 5171 5005 4947 4595 4768 
L 4237 4890 
L 4237 2656 
C 4237 1773 4179 634 3635 -211 
C 3738 -269 3898 -410 3962 -506 
C 4576 422 4659 1722 4659 2650 
L 4659 2867 
L 5248 2867 
L 5248 -512 
L 5677 -512 
L 5677 2867 
L 6144 2867 
L 6144 3309 
L 4659 3309 
L 4659 4371 
C 5158 4550 5709 4794 6112 5043 
L 5683 5376 
z
M 1779 3731 
L 1779 1594 
L 2624 1594 
L 2624 1062 
L 1600 1062 
L 1600 646 
L 2624 646 
L 2624 -506 
L 3059 -506 
L 3059 646 
L 3981 646 
L 3981 1062 
L 3059 1062 
L 3059 1594 
L 3936 1594 
L 3936 3731 
L 3059 3731 
L 3059 4256 
L 3968 4256 
L 3968 4672 
L 3059 4672 
L 3059 5357 
L 2624 5357 
L 2624 4672 
L 1728 4672 
L 1728 4666 
C 1510 4877 1114 5139 781 5306 
L 499 4966 
C 851 4774 1280 4474 1478 4250 
L 1728 4576 
L 1728 4256 
L 2624 4256 
L 2624 3731 
L 1779 3731 
z
M 2125 2496 
L 2662 2496 
L 2662 1946 
L 2125 1946 
L 2125 2496 
z
M 3021 2496 
L 3578 2496 
L 3578 1946 
L 3021 1946 
L 3021 2496 
z
M 2125 3373 
L 2662 3373 
L 2662 2835 
L 2125 2835 
L 2125 3373 
z
M 3021 3373 
L 3578 3373 
L 3578 2835 
L 3021 2835 
L 3021 3373 
z
" transform="scale(0.015625)"/>
      <path id="NotoSansCJKjp-Regular-9ca3" d="M 384 4934 
C 794 4646 1274 4218 1478 3904 
L 1862 4224 
C 1632 4531 1152 4947 730 5222 
L 384 4934 
z
M 5331 5350 
C 4806 5158 3885 4986 3040 4864 
L 2656 4947 
L 2656 3456 
C 2656 2662 2573 1645 1869 890 
C 1984 826 2157 659 2221 557 
C 2886 1267 3072 2240 3110 3040 
L 4429 3040 
L 4429 390 
L 4902 390 
L 4902 3040 
L 6093 3040 
L 6093 3488 
L 3123 3488 
L 3123 4461 
C 4026 4576 5043 4755 5747 4992 
L 5331 5350 
z
M 1677 2848 
L 314 2848 
L 314 2400 
L 1210 2400 
L 1210 768 
C 890 499 518 230 230 32 
L 480 -461 
C 826 -173 1152 102 1459 378 
C 1869 -128 2445 -358 3283 -390 
C 3994 -416 5318 -403 6016 -371 
C 6035 -224 6118 6 6176 115 
C 5414 64 3981 45 3283 77 
C 2541 102 1978 326 1677 794 
L 1677 2848 
z
" transform="scale(0.015625)"/>
      <path id="NotoSansCJKjp-Regular-7a17" d="M 3258 3405 
L 5414 3405 
L 5414 2848 
L 3258 2848 
L 3258 3405 
z
M 3258 4326 
L 5414 4326 
L 5414 3770 
L 3258 3770 
L 3258 4326 
z
M 1894 1632 
C 2048 1267 2182 781 2208 474 
L 2586 589 
C 2541 902 2406 1370 2246 1734 
L 1894 1632 
z
M 570 1715 
C 493 1158 378 582 166 192 
C 269 154 454 70 538 13 
C 736 422 890 1043 973 1651 
L 570 1715 
z
M 2816 4717 
L 2816 2451 
L 4109 2451 
L 4109 6 
C 4109 -64 4090 -83 4006 -90 
C 3930 -90 3674 -90 3386 -83 
C 3443 -211 3501 -384 3520 -506 
C 3917 -506 4173 -499 4339 -435 
C 4506 -358 4544 -237 4544 6 
L 4544 1325 
C 4819 717 5254 109 5952 -250 
C 6016 -128 6157 51 6246 141 
C 5754 358 5382 698 5114 1088 
C 5427 1306 5798 1613 6106 1894 
L 5715 2176 
C 5523 1946 5203 1645 4922 1408 
C 4742 1734 4627 2074 4544 2400 
L 4544 2451 
L 5875 2451 
L 5875 4717 
L 4365 4717 
C 4467 4890 4570 5088 4659 5280 
L 4128 5382 
C 4077 5190 3968 4934 3872 4717 
L 2816 4717 
z
M 2573 1901 
L 2573 1491 
L 3443 1491 
C 3219 826 2803 352 2291 77 
C 2381 13 2534 -154 2592 -250 
C 3226 115 3738 787 3962 1805 
L 3699 1914 
L 3622 1901 
L 2573 1901 
z
M 179 2547 
L 237 2118 
L 1248 2182 
L 1248 -512 
L 1670 -512 
L 1670 2208 
L 2176 2240 
C 2234 2086 2285 1946 2310 1824 
L 2694 2003 
C 2598 2349 2342 2906 2074 3322 
L 1722 3181 
C 1824 3014 1920 2829 2010 2637 
L 1088 2592 
C 1517 3136 2010 3866 2374 4454 
L 1971 4646 
C 1792 4301 1549 3878 1286 3475 
C 1190 3610 1075 3750 941 3898 
C 1178 4256 1459 4781 1677 5216 
L 1254 5376 
C 1120 5018 890 4531 685 4166 
L 486 4346 
L 237 4038 
C 525 3763 845 3398 1037 3104 
C 896 2912 762 2726 634 2566 
L 179 2547 
z
" transform="scale(0.015625)"/>
      <path id="NotoSansCJKjp-Regular-e6af" d="M 1952 2432 
C 1952 3680 1446 4698 678 5478 
L 294 5280 
C 1030 4518 1485 3571 1485 2432 
C 1485 1293 1030 346 294 -416 
L 678 -614 
C 1446 166 1952 1184 1952 2432 
z
" transform="scale(0.015625)"/>
     </defs>
     <use xlink:href="#Cmmi10-72" transform="translate(0 0.40625)"/>
     <use xlink:href="#Cmr10-29" transform="translate(69.023495 0.40625)"/>
     <use xlink:href="#Cmr10-28" transform="translate(166.709099 0.40625)"/>
     <use xlink:href="#NotoSansCJKjp-Regular-e6ae" transform="translate(216.709099 0.40625)"/>
     <use xlink:href="#NotoSansCJKjp-Regular-5ecc" transform="translate(316.709007 0.40625)"/>
     <use xlink:href="#NotoSansCJKjp-Regular-9ca3" transform="translate(416.708916 0.40625)"/>
     <use xlink:href="#NotoSansCJKjp-Regular-7a17" transform="translate(516.708824 0.40625)"/>
     <use xlink:href="#NotoSansCJKjp-Regular-e6af" transform="translate(616.708733 0.40625)"/>
    </g>
   </g>
   <g id="text_19">
    <!-- 指數函數 $y=a^{\,x}$（$a&gt;0,\ a\neq1$） -->
    <g style="fill: #222831" transform="translate(138.47 19.52) scale(0.14 -0.14)">
     <defs>
      <path id="NotoSansCJKjp-Regular-49d7" d="M 5357 4998 
C 4870 4781 4058 4557 3296 4397 
L 3296 5350 
L 2822 5350 
L 2822 3533 
C 2822 2976 3021 2835 3763 2835 
C 3917 2835 5094 2835 5254 2835 
C 5888 2835 6048 3046 6118 3904 
C 5984 3930 5779 4006 5677 4077 
C 5638 3386 5581 3270 5229 3270 
C 4973 3270 3981 3270 3789 3270 
C 3373 3270 3296 3315 3296 3533 
L 3296 4000 
C 4128 4160 5075 4378 5722 4640 
L 5357 4998 
z
M 3277 858 
L 5363 858 
L 5363 186 
L 3277 186 
L 3277 858 
z
M 3277 1248 
L 3277 1888 
L 5363 1888 
L 5363 1248 
L 3277 1248 
z
M 2822 2298 
L 2822 -506 
L 3277 -506 
L 3277 -211 
L 5363 -211 
L 5363 -480 
L 5837 -480 
L 5837 2298 
L 2822 2298 
z
M 1178 5376 
L 1178 4083 
L 282 4083 
L 282 3629 
L 1178 3629 
L 1178 2253 
L 198 1984 
L 339 1517 
L 1178 1766 
L 1178 51 
C 1178 -38 1139 -64 1056 -70 
C 973 -70 710 -70 416 -64 
C 474 -192 544 -390 563 -506 
C 992 -512 1248 -493 1421 -422 
C 1587 -346 1645 -218 1645 58 
L 1645 1907 
L 2496 2170 
L 2438 2618 
L 1645 2387 
L 1645 3629 
L 2406 3629 
L 2406 4083 
L 1645 4083 
L 1645 5376 
L 1178 5376 
z
" transform="scale(0.015625)"/>
      <path id="NotoSansCJKjp-Regular-4e26" d="M 4352 3744 
L 5318 3744 
C 5216 2957 5062 2266 4826 1677 
C 4595 2266 4442 2944 4333 3661 
L 4352 3744 
z
M 256 4301 
L 256 3936 
L 698 3936 
L 698 3245 
L 1741 3245 
L 1741 2950 
L 538 2950 
L 538 1882 
L 1485 1882 
L 1274 1478 
L 262 1472 
L 275 1088 
L 1069 1094 
C 928 845 787 608 666 422 
L 1062 307 
L 1171 486 
C 1389 403 1606 314 1818 218 
C 1459 32 998 -83 416 -154 
C 493 -256 570 -410 602 -538 
C 1293 -416 1837 -250 2246 13 
C 2522 -128 2765 -275 2957 -410 
L 3264 -102 
C 3078 19 2848 154 2586 282 
C 2816 512 2976 794 3072 1133 
L 3750 1152 
L 3763 1510 
L 1734 1485 
L 1939 1882 
L 3424 1882 
L 3424 2419 
C 3526 2336 3648 2221 3706 2157 
C 3834 2362 3949 2592 4051 2848 
C 4179 2221 4346 1645 4563 1146 
C 4256 614 3853 192 3309 -134 
C 3392 -224 3539 -429 3584 -525 
C 4090 -198 4486 192 4794 666 
C 5075 166 5414 -237 5850 -518 
C 5920 -403 6067 -224 6176 -141 
C 5709 141 5350 582 5062 1133 
C 5421 1843 5638 2707 5779 3744 
L 6144 3744 
L 6144 4186 
L 4467 4186 
C 4550 4544 4621 4922 4678 5306 
L 4211 5376 
C 4070 4339 3827 3315 3424 2618 
L 3424 2950 
L 2163 2950 
L 2163 3245 
L 3277 3245 
L 3277 3936 
L 3731 3936 
L 3731 4301 
L 3277 4301 
L 3277 4986 
L 2163 4986 
L 2163 5376 
L 1741 5376 
L 1741 4986 
L 698 4986 
L 698 4301 
L 256 4301 
z
M 1101 4646 
L 1741 4646 
L 1741 4282 
L 1101 4282 
L 1101 4646 
z
M 1741 3578 
L 1101 3578 
L 1101 3955 
L 1741 3955 
L 1741 3578 
z
M 2163 4646 
L 2848 4646 
L 2848 4282 
L 2163 4282 
L 2163 4646 
z
M 2163 3578 
L 2163 3955 
L 2848 3955 
L 2848 3578 
L 2163 3578 
z
M 947 2624 
L 1741 2624 
L 1741 2202 
L 947 2202 
L 947 2624 
z
M 2163 2624 
L 3002 2624 
L 3002 2202 
L 2163 2202 
L 2163 2624 
z
M 1530 1107 
L 2630 1126 
C 2534 864 2387 646 2189 467 
C 1920 589 1632 704 1357 800 
L 1530 1107 
z
" transform="scale(0.015625)"/>
      <path id="NotoSansCJKjp-Regular-2b78" d="M 3635 1843 
C 4096 1530 4646 1062 4915 768 
L 5203 1114 
C 4928 1402 4378 1837 3904 2144 
L 3635 1843 
z
M 1344 3277 
C 1664 3008 2022 2605 2189 2336 
L 2515 2618 
C 2342 2874 1984 3251 1645 3520 
L 1344 3277 
z
M 1178 1242 
L 1414 845 
C 1811 1114 2304 1434 2771 1747 
L 2650 2112 
C 2099 1779 1549 1440 1178 1242 
z
M 4659 3603 
C 4467 3290 4115 2835 3853 2560 
L 4166 2374 
C 4442 2643 4774 3034 5056 3392 
L 4659 3603 
z
M 5370 3827 
L 5370 294 
L 1062 294 
L 1062 3827 
L 602 3827 
L 602 -506 
L 1062 -506 
L 1062 -147 
L 5370 -147 
L 5370 -486 
L 5843 -486 
L 5843 3827 
L 5370 3827 
z
M 378 4992 
L 378 4531 
L 2458 4531 
C 2368 4090 2253 3597 2157 3264 
L 2598 3206 
L 2650 3398 
L 3238 3398 
C 3187 1690 3123 1075 3008 928 
C 2957 858 2906 845 2816 845 
C 2720 845 2483 845 2227 870 
C 2291 762 2336 595 2342 474 
C 2605 461 2861 461 3008 474 
C 3174 486 3290 538 3392 666 
C 3552 877 3616 1574 3674 3584 
C 3674 3648 3680 3789 3680 3789 
L 2746 3789 
L 2912 4531 
L 6029 4531 
L 6029 4992 
L 378 4992 
z
" transform="scale(0.015625)"/>
      <path id="NotoSansCJKjp-Regular-1" transform="scale(0.015625)"/>
      <path id="Cmmi10-79" d="M 1113 -72 
Q 709 -72 476 233 
Q 244 538 244 953 
Q 244 1363 456 1803 
Q 669 2244 1030 2536 
Q 1391 2828 1806 2828 
Q 1997 2828 2147 2725 
Q 2297 2622 2381 2444 
Q 2453 2700 2663 2700 
Q 2744 2700 2798 2651 
Q 2853 2603 2853 2522 
Q 2853 2503 2851 2493 
Q 2850 2484 2847 2472 
L 2400 684 
Q 2356 494 2356 372 
Q 2356 97 2541 97 
Q 2741 97 2845 351 
Q 2950 606 3022 941 
Q 3034 978 3072 978 
L 3150 978 
Q 3175 978 3190 956 
Q 3206 934 3206 916 
Q 3094 469 2961 198 
Q 2828 -72 2528 -72 
Q 2313 -72 2147 54 
Q 1981 181 1941 391 
Q 1528 -72 1113 -72 
z
M 1119 97 
Q 1350 97 1567 270 
Q 1784 444 1941 678 
Q 1947 684 1947 697 
L 2291 2088 
L 2297 2106 
Q 2259 2334 2132 2498 
Q 2006 2663 1791 2663 
Q 1575 2663 1389 2486 
Q 1203 2309 1075 2069 
Q 950 1813 836 1366 
Q 722 919 722 672 
Q 722 450 817 273 
Q 913 97 1119 97 
z
" transform="scale(0.015625)"/>
      <path id="Cmmi10-6b" d="M 531 -128 
Q 531 -47 616 -6 
L 4013 1600 
L 594 3219 
Q 531 3238 531 3328 
Q 531 3372 567 3414 
Q 603 3456 659 3456 
Q 672 3456 709 3444 
L 4384 1709 
Q 4441 1681 4441 1600 
Q 4441 1516 4366 1484 
L 709 -244 
Q 672 -256 659 -256 
Q 603 -256 567 -214 
Q 531 -172 531 -128 
z
" transform="scale(0.015625)"/>
      <path id="STIXGeneral-Regular-473" d="M 4077 768 
L 1990 768 
L 1222 -998 
L 877 -998 
L 1645 768 
L 307 768 
L 307 1190 
L 1830 1190 
L 2208 2048 
L 307 2048 
L 307 2470 
L 2394 2470 
L 3162 4237 
L 3507 4237 
L 2733 2470 
L 4077 2470 
L 4077 2048 
L 2554 2048 
L 2176 1190 
L 4077 1190 
L 4077 768 
z
" transform="scale(0.015625)"/>
     </defs>
     <use xlink:href="#NotoSansCJKjp-Regular-49d7" transform="translate(0 0.40625)"/>
     <use xlink:href="#NotoSansCJKjp-Regular-4e26" transform="translate(99.999908 0.40625)"/>
     <use xlink:href="#NotoSansCJKjp-Regular-2b78" transform="translate(199.999817 0.40625)"/>
     <use xlink:href="#NotoSansCJKjp-Regular-4e26" transform="translate(299.999725 0.40625)"/>
     <use xlink:href="#NotoSansCJKjp-Regular-1" transform="translate(399.999634 0.40625)"/>
     <use xlink:href="#Cmmi10-72" transform="translate(422.399612 0.40625)"/>
     <use xlink:href="#Cmr10-29" transform="translate(491.423107 0.40625)"/>
     <use xlink:href="#Cmmi10-79" transform="translate(589.108711 0.40625)"/>
     <use xlink:href="#Cmmi10-3f" transform="translate(664.81903 41.695484) scale(0.7)"/>
     <use xlink:href="#NotoSansCJKjp-Regular-e6ae" transform="translate(710.4955 0.40625)"/>
     <use xlink:href="#Cmmi10-79" transform="translate(810.495408 0.40625)"/>
     <use xlink:href="#Cmmi10-6b" transform="translate(883.278669 0.40625)"/>
     <use xlink:href="#Cmr10-28" transform="translate(980.964273 0.40625)"/>
     <use xlink:href="#Cmmi10-2c" transform="translate(1030.964273 0.40625)"/>
     <use xlink:href="#Cmmi10-79" transform="translate(1111.982972 0.40625)"/>
     <use xlink:href="#STIXGeneral-Regular-473" transform="translate(1184.766232 0.40625)"/>
     <use xlink:href="#Cmr10-64" transform="translate(1273.266229 0.40625)"/>
     <use xlink:href="#NotoSansCJKjp-Regular-e6af" transform="translate(1323.266229 0.40625)"/>
    </g>
   </g>
   <g id="legend_1">
    <g id="line2d_33">
     <path d="M 155.1 41.25 
L 166.1 41.25 
L 177.1 41.25 
" style="fill: none; stroke: #1f6feb; stroke-width: 2.6; stroke-linecap: square"/>
    </g>
    <g id="text_20">
     <!-- $y=2^{\,x}$（$a&gt;1$，成長） -->
     <g style="fill: #222831" transform="translate(185.9 45.1) scale(0.11 -0.11)">
      <defs>
       <path id="Cmr10-31" d="M 319 0 
L 319 172 
Q 319 188 331 206 
L 1325 1306 
Q 1550 1550 1690 1715 
Q 1831 1881 1968 2097 
Q 2106 2313 2186 2536 
Q 2266 2759 2266 3009 
Q 2266 3272 2169 3511 
Q 2072 3750 1880 3894 
Q 1688 4038 1416 4038 
Q 1138 4038 916 3870 
Q 694 3703 603 3438 
Q 628 3444 672 3444 
Q 816 3444 917 3347 
Q 1019 3250 1019 3097 
Q 1019 2950 917 2848 
Q 816 2747 672 2747 
Q 522 2747 420 2851 
Q 319 2956 319 3097 
Q 319 3338 409 3548 
Q 500 3759 670 3923 
Q 841 4088 1055 4175 
Q 1269 4263 1509 4263 
Q 1875 4263 2190 4108 
Q 2506 3953 2690 3670 
Q 2875 3388 2875 3009 
Q 2875 2731 2753 2481 
Q 2631 2231 2440 2026 
Q 2250 1822 1953 1562 
Q 1656 1303 1563 1216 
L 838 519 
L 1453 519 
Q 1906 519 2211 526 
Q 2516 534 2534 550 
Q 2609 631 2688 1141 
L 2875 1141 
L 2694 0 
L 319 0 
z
" transform="scale(0.015625)"/>
       <path id="NotoSansCJKjp-Regular-e6b2" d="M 1005 -685 
C 1677 -448 2112 77 2112 768 
C 2112 1216 1920 1504 1568 1504 
C 1306 1504 1082 1344 1082 1043 
C 1082 742 1299 589 1562 589 
L 1670 602 
C 1638 160 1357 -141 864 -346 
L 1005 -685 
z
" transform="scale(0.015625)"/>
       <path id="NotoSansCJKjp-Regular-4857" d="M 3482 5370 
C 3482 5005 3494 4640 3514 4288 
L 819 4288 
L 819 2490 
C 819 1658 762 550 230 -237 
C 346 -294 550 -461 634 -557 
C 1222 288 1318 1581 1318 2483 
L 1318 2528 
L 2490 2528 
C 2464 1427 2432 1018 2349 922 
C 2298 864 2240 851 2144 851 
C 2035 851 1760 851 1466 883 
C 1542 762 1594 570 1600 435 
C 1914 416 2208 416 2374 429 
C 2547 448 2656 493 2758 614 
C 2893 787 2925 1331 2957 2771 
C 2957 2835 2963 2976 2963 2976 
L 1318 2976 
L 1318 3821 
L 3546 3821 
C 3622 2784 3776 1837 4019 1101 
C 3597 614 3104 218 2534 -83 
C 2637 -179 2810 -378 2886 -480 
C 3379 -186 3821 166 4211 589 
C 4506 -70 4890 -467 5382 -467 
C 5875 -467 6054 -147 6138 947 
C 6010 992 5830 1101 5722 1210 
C 5683 358 5606 26 5421 26 
C 5094 26 4806 390 4570 1018 
C 5043 1632 5421 2362 5696 3200 
L 5216 3322 
C 5011 2675 4736 2093 4390 1581 
C 4224 2202 4102 2963 4032 3821 
L 6086 3821 
L 6086 4288 
L 4006 4288 
C 3987 4640 3981 4998 3981 5370 
L 3482 5370 
z
M 4294 5056 
C 4704 4845 5197 4518 5440 4288 
L 5741 4621 
C 5491 4838 4986 5152 4582 5350 
L 4294 5056 
z
" transform="scale(0.015625)"/>
       <path id="NotoSansCJKjp-Regular-a74e" d="M 1466 5120 
L 1466 2304 
L 339 2304 
L 339 1875 
L 1466 1875 
L 1466 96 
L 646 -26 
L 762 -474 
C 1536 -339 2637 -154 3661 32 
L 3642 461 
L 1958 179 
L 1958 1875 
L 2874 1875 
C 3411 621 4397 -186 5862 -531 
C 5933 -397 6067 -205 6170 -102 
C 5440 38 4826 307 4333 685 
C 4800 915 5357 1242 5779 1555 
L 5389 1824 
C 5050 1542 4493 1197 4026 947 
C 3757 1216 3533 1523 3360 1875 
L 6067 1875 
L 6067 2304 
L 1958 2304 
L 1958 2861 
L 5242 2861 
L 5242 3251 
L 1958 3251 
L 1958 3789 
L 5242 3789 
L 5242 4173 
L 1958 4173 
L 1958 4710 
L 5440 4710 
L 5440 5120 
L 1466 5120 
z
" transform="scale(0.015625)"/>
      </defs>
      <use xlink:href="#Cmmi10-72" transform="translate(0 0.40625)"/>
      <use xlink:href="#Cmr10-29" transform="translate(69.023495 0.40625)"/>
      <use xlink:href="#Cmr10-31" transform="translate(166.709099 0.40625)"/>
      <use xlink:href="#Cmmi10-3f" transform="translate(232.380323 41.695484) scale(0.7)"/>
      <use xlink:href="#NotoSansCJKjp-Regular-e6ae" transform="translate(278.056793 0.40625)"/>
      <use xlink:href="#Cmmi10-79" transform="translate(378.056702 0.40625)"/>
      <use xlink:href="#Cmmi10-6b" transform="translate(450.839962 0.40625)"/>
      <use xlink:href="#Cmr10-64" transform="translate(548.525566 0.40625)"/>
      <use xlink:href="#NotoSansCJKjp-Regular-e6b2" transform="translate(598.525566 0.40625)"/>
      <use xlink:href="#NotoSansCJKjp-Regular-4857" transform="translate(698.525475 0.40625)"/>
      <use xlink:href="#NotoSansCJKjp-Regular-a74e" transform="translate(798.525383 0.40625)"/>
      <use xlink:href="#NotoSansCJKjp-Regular-e6af" transform="translate(898.525291 0.40625)"/>
     </g>
    </g>
    <g id="line2d_34">
     <path d="M 155.1 58.74 
L 166.1 58.74 
L 177.1 58.74 
" style="fill: none; stroke: #d1242f; stroke-width: 2.6; stroke-linecap: square"/>
    </g>
    <g id="text_21">
     <!-- $y=(\frac{1}{2})^{x}$（$0&lt;a&lt;1$，衰退） -->
     <g style="fill: #222831" transform="translate(185.9 62.59) scale(0.11 -0.11)">
      <defs>
       <path id="Cmmi10-63" d="M 594 1491 
Q 531 1519 531 1600 
Q 531 1681 616 1722 
L 4269 3444 
Q 4294 3456 4313 3456 
Q 4369 3456 4405 3417 
Q 4441 3378 4441 3328 
Q 4441 3250 4366 3206 
L 959 1600 
L 4384 -19 
Q 4441 -38 4441 -128 
Q 4441 -178 4405 -217 
Q 4369 -256 4313 -256 
Q 4294 -256 4269 -244 
L 594 1491 
z
" transform="scale(0.015625)"/>
       <path id="NotoSansCJKjp-Regular-8fa0" d="M 429 4774 
L 429 4384 
L 5920 4384 
L 5920 4774 
L 3424 4774 
L 3424 5376 
L 2950 5376 
L 2950 4774 
L 429 4774 
z
M 4678 2682 
L 4678 2221 
L 1798 2221 
L 1798 2682 
L 4678 2682 
z
M 1798 3520 
L 4678 3520 
L 4678 3078 
L 1798 3078 
L 1798 3520 
z
M 333 3078 
L 333 2682 
L 1344 2682 
L 1344 1843 
L 2522 1843 
C 1914 1414 1024 1050 237 864 
C 333 768 461 602 531 486 
C 941 595 1376 755 1792 954 
L 1792 102 
L 966 -6 
L 1037 -448 
C 1766 -339 2810 -179 3814 -26 
L 3789 384 
L 2253 166 
L 2253 1197 
C 2598 1389 2912 1613 3162 1843 
L 3200 1843 
C 3674 621 4544 -173 5875 -525 
C 5939 -397 6067 -211 6176 -115 
C 5517 32 4960 301 4525 678 
C 4928 890 5408 1178 5786 1466 
L 5402 1734 
C 5126 1491 4653 1165 4256 934 
C 4019 1197 3821 1504 3674 1843 
L 5158 1843 
L 5158 2682 
L 6074 2682 
L 6074 3078 
L 5158 3078 
L 5158 3898 
L 1344 3898 
L 1344 3078 
L 333 3078 
z
" transform="scale(0.015625)"/>
       <path id="NotoSansCJKjp-Regular-9d19" d="M 442 4896 
C 858 4614 1338 4186 1542 3872 
L 1920 4186 
C 1696 4499 1216 4915 794 5184 
L 442 4896 
z
M 5632 2739 
C 5382 2509 4966 2202 4621 1978 
C 4474 2202 4358 2438 4262 2701 
L 5504 2701 
L 5504 5101 
L 2573 5101 
L 2573 1011 
L 2131 915 
L 2214 461 
C 2810 608 3597 806 4346 998 
L 4307 1421 
L 3040 1120 
L 3040 2701 
L 3834 2701 
C 4173 1613 4813 794 5798 416 
C 5869 544 6003 730 6112 826 
C 5594 992 5165 1286 4838 1683 
C 5203 1888 5651 2182 6010 2458 
L 5632 2739 
z
M 3040 4685 
L 5037 4685 
L 5037 4102 
L 3040 4102 
L 3040 4685 
z
M 3040 3117 
L 3040 3725 
L 5037 3725 
L 5037 3117 
L 3040 3117 
z
M 1677 2848 
L 314 2848 
L 314 2400 
L 1210 2400 
L 1210 768 
C 890 499 518 230 230 32 
L 480 -461 
C 826 -173 1152 102 1459 378 
C 1869 -128 2445 -358 3283 -390 
C 3994 -416 5318 -403 6016 -371 
C 6035 -224 6118 6 6176 115 
C 5414 64 3981 45 3283 77 
C 2541 102 1978 326 1677 794 
L 1677 2848 
z
" transform="scale(0.015625)"/>
      </defs>
      <use xlink:href="#Cmmi10-72" transform="translate(0 0.40625)"/>
      <use xlink:href="#Cmr10-29" transform="translate(69.023495 0.40625)"/>
      <use xlink:href="#Cmr10-77" transform="translate(166.709099 0.40625)"/>
      <use xlink:href="#Cmr10-64" transform="translate(211.777458 34.78125) scale(0.7)"/>
      <use xlink:href="#Cmr10-31" transform="translate(211.777458 -30.595312) scale(0.7)"/>
      <use xlink:href="#Cmr10-44" transform="translate(253.027458 0.40625)"/>
      <use xlink:href="#Cmmi10-3f" transform="translate(295.850108 41.695484) scale(0.7)"/>
      <use xlink:href="#NotoSansCJKjp-Regular-e6ae" transform="translate(341.526579 0.40625)"/>
      <use xlink:href="#Cmr10-28" transform="translate(441.526487 0.40625)"/>
      <use xlink:href="#Cmmi10-63" transform="translate(511.526544 0.40625)"/>
      <use xlink:href="#Cmmi10-79" transform="translate(609.212148 0.40625)"/>
      <use xlink:href="#Cmmi10-63" transform="translate(681.995409 0.40625)"/>
      <use xlink:href="#Cmr10-64" transform="translate(779.681013 0.40625)"/>
      <use xlink:href="#NotoSansCJKjp-Regular-e6b2" transform="translate(829.681013 0.40625)"/>
      <use xlink:href="#NotoSansCJKjp-Regular-8fa0" transform="translate(929.680921 0.40625)"/>
      <use xlink:href="#NotoSansCJKjp-Regular-9d19" transform="translate(1029.68083 0.40625)"/>
      <use xlink:href="#NotoSansCJKjp-Regular-e6af" transform="translate(1129.680738 0.40625)"/>
      <path d="M 211.777458 22.28125 
L 211.777458 28.53125 
L 246.777458 28.53125 
L 246.777458 22.28125 
L 211.777458 22.28125 
z
"/>
     </g>
    </g>
   </g>
   <g id="patch_3">
    <path d="M 238.15 226.324485 
C 239.211926 226.324485 240.230502 226.083139 240.981397 225.6536 
C 241.732292 225.224061 242.1542 224.641399 242.1542 224.033939 
C 242.1542 223.42648 241.732292 222.843818 240.981397 222.414279 
C 240.230502 221.98474 239.211926 221.743394 238.15 221.743394 
C 237.088074 221.743394 236.069498 221.98474 235.318603 222.414279 
C 234.567708 222.843818 234.1458 223.42648 234.1458 224.033939 
C 234.1458 224.641399 234.567708 225.224061 235.318603 225.6536 
C 236.069498 226.083139 237.088074 226.324485 238.15 226.324485 
z
" clip-path="url(#p5bd37d5d6d)" style="fill: #222831; stroke: #222831; stroke-linejoin: miter"/>
   </g>
  </g>
 </g>
 <defs>
  <clipPath id="p5bd37d5d6d">
   <rect x="37.94" y="25.52" width="400.42" height="251.96"/>
  </clipPath>
 </defs>
</svg>
