<?xml version="1.0" encoding="utf-8" standalone="no"?>
<!DOCTYPE svg PUBLIC "-//W3C//DTD SVG 1.1//EN"
  "http://www.w3.org/Graphics/SVG/1.1/DTD/svg11.dtd">
<svg xmlns:xlink="http://www.w3.org/1999/xlink" width="607.68pt" height="476.53125pt" viewBox="0 0 607.68 476.53125" xmlns="http://www.w3.org/2000/svg" version="1.1">
 <metadata>
  <rdf:RDF xmlns:dc="http://purl.org/dc/elements/1.1/" xmlns:cc="http://creativecommons.org/ns#" xmlns:rdf="http://www.w3.org/1999/02/22-rdf-syntax-ns#">
   <cc:Work>
    <dc:type rdf:resource="http://purl.org/dc/dcmitype/StillImage"/>
    <dc:date>2026-06-17T23:30:17.045810</dc:date>
    <dc:format>image/svg+xml</dc:format>
    <dc:creator>
     <cc:Agent>
      <dc:title>Matplotlib v3.11.0, https://matplotlib.org/</dc:title>
     </cc:Agent>
    </dc:creator>
   </cc:Work>
  </rdf:RDF>
 </metadata>
 <defs>
  <style type="text/css">*{stroke-linejoin: round; stroke-linecap: butt}</style>
 </defs>
 <g id="figure_1">
  <g id="patch_1">
   <path d="M 0 476.53125 
L 607.68 476.53125 
L 607.68 0 
L 0 0 
z
" style="fill: #ffffff"/>
  </g>
  <g id="axes_1">
   <g id="patch_2">
    <path d="M 72.964312 247.499875 
L 231.595687 247.499875 
L 231.595687 88.8685 
L 72.964312 88.8685 
z
" style="fill: #ffffff"/>
   </g>
   <g id="patch_3">
    <path d="M 152.28 232.392125 
C 169.308144 232.392125 185.641152 225.626772 197.681868 213.586056 
C 209.722584 201.545339 216.487937 185.212332 216.487937 168.184188 
C 216.487937 151.156043 209.722584 134.823036 197.681868 122.782319 
C 185.641152 110.741603 169.308144 103.97625 152.28 103.97625 
C 135.251856 103.97625 118.918848 110.741603 106.878132 122.782319 
C 94.837416 134.823036 88.072062 151.156043 88.072062 168.184188 
C 88.072062 185.212332 94.837416 201.545339 106.878132 213.586056 
C 118.918848 225.626772 135.251856 232.392125 152.28 232.392125 
z
" clip-path="url(#p010f66593d)" style="fill: #eef1f5; stroke: #aab4c2; stroke-width: 0.8; stroke-linejoin: miter"/>
   </g>
   <g id="patch_4">
    <path d="M 152.28 213.507438 
C 164.299866 213.507438 175.829048 208.731894 184.328377 200.232565 
C 192.827706 191.733236 197.60325 180.204054 197.60325 168.184188 
C 197.60325 156.164321 192.827706 144.635139 184.328377 136.13581 
C 175.829048 127.636481 164.299866 122.860938 152.28 122.860938 
C 140.260134 122.860938 128.730952 127.636481 120.231623 136.13581 
C 111.732294 144.635139 106.95675 156.164321 106.95675 168.184188 
C 106.95675 180.204054 111.732294 191.733236 120.231623 200.232565 
C 128.730952 208.731894 140.260134 213.507438 152.28 213.507438 
z
" clip-path="url(#p010f66593d)" style="fill: #dbe7ff; stroke: #aab4c2; stroke-width: 0.8; stroke-linejoin: miter"/>
   </g>
   <g id="patch_5">
    <path d="M 152.28 194.62275 
C 159.291589 194.62275 166.016945 191.837016 170.974887 186.879074 
C 175.932829 181.921132 178.718562 175.195776 178.718562 168.184188 
C 178.718562 161.172599 175.932829 154.447243 170.974887 149.489301 
C 166.016945 144.531359 159.291589 141.745625 152.28 141.745625 
C 145.268411 141.745625 138.543055 144.531359 133.585113 149.489301 
C 128.627171 154.447243 125.841437 161.172599 125.841437 168.184188 
C 125.841437 175.195776 128.627171 181.921132 133.585113 186.879074 
C 138.543055 191.837016 145.268411 194.62275 152.28 194.62275 
z
" clip-path="url(#p010f66593d)" style="fill: #bcd3ff; stroke: #aab4c2; stroke-width: 0.8; stroke-linejoin: miter"/>
   </g>
   <g id="patch_6">
    <path d="M 152.28 175.738063 
C 154.283311 175.738063 156.204841 174.942139 157.621396 173.525584 
C 159.037951 172.109029 159.833875 170.187499 159.833875 168.184188 
C 159.833875 166.180876 159.037951 164.259346 157.621396 162.842791 
C 156.204841 161.426236 154.283311 160.630313 152.28 160.630313 
C 150.276689 160.630313 148.355159 161.426236 146.938604 162.842791 
C 145.522049 164.259346 144.726125 166.180876 144.726125 168.184188 
C 144.726125 170.187499 145.522049 172.109029 146.938604 173.525584 
C 148.355159 174.942139 150.276689 175.738063 152.28 175.738063 
z
" clip-path="url(#p010f66593d)" style="fill: #d1242f; stroke: #aab4c2; stroke-width: 0.8; stroke-linejoin: miter"/>
   </g>
   <g id="matplotlib.axis_1"/>
   <g id="matplotlib.axis_2"/>
   <g id="patch_7">
    <path d="M 72.964312 247.499875 
L 72.964312 88.8685 
" style="fill: none; stroke: #aab4c2; stroke-width: 1.1; stroke-linejoin: miter; stroke-linecap: square"/>
   </g>
   <g id="patch_8">
    <path d="M 231.595687 247.499875 
L 231.595687 88.8685 
" style="fill: none; stroke: #aab4c2; stroke-width: 1.1; stroke-linejoin: miter; stroke-linecap: square"/>
   </g>
   <g id="patch_9">
    <path d="M 72.964312 247.499875 
L 231.595687 247.499875 
" style="fill: none; stroke: #aab4c2; stroke-width: 1.1; stroke-linejoin: miter; stroke-linecap: square"/>
   </g>
   <g id="patch_10">
    <path d="M 72.964312 88.8685 
L 231.595687 88.8685 
" style="fill: none; stroke: #aab4c2; stroke-width: 1.1; stroke-linejoin: miter; stroke-linecap: square"/>
   </g>
   <g id="text_1">
    <!-- 只有隨機誤差 -->
    <g style="fill: #222831" transform="translate(117.78 71.3685) scale(0.115 -0.115)">
     <defs>
      <path id="NotoSansCJKjp-Regular-2e85" d="M 3776 1011 
C 4410 557 5184 -102 5549 -531 
L 5971 -230 
C 5581 205 4787 838 4160 1267 
L 3776 1011 
z
M 2163 1280 
C 1792 768 1043 186 371 -179 
C 486 -262 659 -416 755 -518 
C 1440 -134 2195 493 2675 1082 
L 2163 1280 
z
M 1062 4941 
L 1062 1491 
L 1542 1491 
L 1542 1722 
L 4973 1722 
L 4973 1523 
L 5472 1523 
L 5472 4941 
L 1062 4941 
z
M 1542 2182 
L 1542 4474 
L 4973 4474 
L 4973 2182 
L 1542 2182 
z
" transform="scale(0.015625)"/>
      <path id="NotoSansCJKjp-Regular-50d7" d="M 2502 5376 
C 2426 5101 2336 4819 2221 4544 
L 403 4544 
L 403 4096 
L 2022 4096 
C 1613 3251 1024 2470 256 1946 
C 346 1856 499 1683 563 1574 
C 966 1862 1325 2208 1632 2598 
L 1632 -506 
L 2106 -506 
L 2106 762 
L 4787 762 
L 4787 96 
C 4787 0 4755 -38 4646 -38 
C 4525 -45 4134 -51 3712 -32 
C 3776 -166 3846 -365 3872 -493 
C 4422 -493 4774 -493 4986 -422 
C 5197 -339 5261 -192 5261 90 
L 5261 3354 
L 2150 3354 
C 2298 3597 2426 3840 2541 4096 
L 6010 4096 
L 6010 4544 
L 2733 4544 
C 2829 4781 2912 5024 2989 5261 
L 2502 5376 
z
M 2106 1850 
L 4787 1850 
L 4787 1178 
L 2106 1178 
L 2106 1850 
z
M 2106 2259 
L 2106 2918 
L 4787 2918 
L 4787 2259 
L 2106 2259 
z
" transform="scale(0.015625)"/>
      <path id="NotoSansCJKjp-Regular-a918" d="M 2246 4986 
C 2470 4723 2714 4365 2810 4128 
L 3174 4365 
C 3072 4602 2822 4947 2598 5197 
L 2246 4986 
z
M 2048 3610 
C 2291 3360 2560 3008 2675 2771 
L 3021 3027 
C 2906 3258 2630 3590 2374 3827 
L 2048 3610 
z
M 4064 5382 
C 4026 5190 3981 5011 3923 4832 
L 3194 4832 
L 3194 4480 
L 3802 4480 
C 3610 4006 3347 3597 3008 3302 
C 3104 3238 3277 3104 3341 3034 
C 3635 3322 3885 3693 4083 4122 
L 4083 3821 
L 4723 3821 
L 4723 3405 
L 3731 3405 
L 3731 3085 
L 6131 3085 
L 6131 3405 
L 5146 3405 
L 5146 3821 
L 5869 3821 
L 5869 4134 
L 4090 4134 
C 4141 4243 4186 4358 4230 4480 
L 6093 4480 
L 6093 4832 
L 4352 4832 
C 4397 4986 4435 5146 4474 5312 
L 4064 5382 
z
M 4064 1754 
L 5376 1754 
L 5376 1414 
L 4064 1414 
L 4064 1754 
z
M 4064 2061 
L 4064 2400 
L 5376 2400 
L 5376 2061 
L 4064 2061 
z
M 3648 2733 
L 3648 307 
L 4064 307 
L 4064 1094 
L 5376 1094 
L 5376 698 
C 5376 646 5357 627 5293 627 
C 5235 627 5050 621 4832 627 
C 4883 531 4934 397 4954 294 
C 5280 294 5491 294 5632 352 
C 5760 416 5798 512 5798 704 
L 5798 2733 
L 3648 2733 
z
M 3098 2253 
L 2144 2253 
L 2144 1850 
L 2682 1850 
L 2682 678 
C 2413 410 2106 141 1850 -64 
L 2086 -480 
C 2374 -198 2643 70 2899 346 
C 3194 -109 3629 -384 4250 -410 
C 4730 -429 5600 -422 6086 -397 
C 6106 -269 6170 -70 6221 32 
C 5690 -6 4736 -19 4262 0 
C 3718 26 3309 294 3098 717 
L 3098 2253 
z
M 506 5101 
L 506 -512 
L 934 -512 
L 934 4666 
L 1587 4666 
C 1478 4224 1331 3635 1171 3168 
C 1555 2637 1638 2189 1638 1830 
C 1638 1626 1606 1434 1530 1370 
C 1485 1331 1427 1312 1363 1312 
C 1286 1306 1184 1312 1075 1318 
C 1139 1197 1178 1030 1178 915 
C 1299 909 1427 915 1530 922 
C 1638 941 1741 973 1818 1037 
C 1971 1158 2042 1440 2042 1779 
C 2042 2189 1958 2662 1568 3213 
C 1747 3738 1946 4410 2099 4947 
L 1805 5120 
L 1741 5101 
L 506 5101 
z
" transform="scale(0.015625)"/>
      <path id="NotoSansCJKjp-Regular-5680" d="M 1139 5376 
L 1139 3987 
L 333 3987 
L 333 3539 
L 1094 3539 
C 915 2669 563 1658 198 1120 
C 275 1018 384 838 435 717 
C 698 1126 947 1779 1139 2458 
L 1139 -506 
L 1574 -506 
L 1574 2714 
C 1747 2394 1946 2003 2029 1792 
L 2234 2080 
L 2234 1709 
L 2688 1709 
C 2624 947 2451 230 1862 -179 
C 1965 -250 2093 -403 2157 -499 
C 2624 -154 2867 346 3002 922 
C 3270 742 3546 531 3699 378 
L 3968 710 
C 3776 890 3398 1146 3078 1331 
L 3123 1709 
L 4122 1709 
C 4205 1248 4314 838 4448 506 
C 4109 218 3706 -26 3245 -205 
C 3328 -282 3450 -422 3507 -506 
C 3917 -333 4294 -122 4627 134 
C 4864 -282 5171 -525 5555 -525 
C 5984 -525 6131 -307 6208 410 
C 6106 454 5965 538 5869 627 
C 5837 45 5773 -102 5587 -102 
C 5344 -102 5126 83 4947 416 
C 5261 723 5517 1069 5702 1459 
L 5286 1613 
C 5158 1331 4992 1062 4774 826 
C 4685 1075 4608 1370 4544 1709 
L 6118 1709 
L 6118 2106 
L 5587 2106 
L 5722 2246 
C 5581 2387 5286 2579 5043 2707 
L 4813 2477 
C 4992 2374 5203 2227 5350 2106 
L 4474 2106 
C 4339 2995 4269 4115 4282 5370 
L 3853 5370 
C 3859 4160 3917 3040 4058 2106 
L 2253 2106 
L 2278 2144 
C 2182 2323 1728 3053 1574 3258 
L 1574 3539 
L 2272 3539 
L 2272 3987 
L 1574 3987 
L 1574 5376 
L 1139 5376 
z
M 5587 4672 
C 5485 4448 5344 4186 5184 3923 
C 5107 4013 5011 4115 4902 4211 
C 5069 4474 5267 4845 5434 5165 
L 5056 5312 
C 4966 5050 4806 4685 4666 4410 
L 4512 4525 
L 4314 4262 
C 4557 4077 4832 3814 4992 3610 
C 4864 3405 4736 3213 4608 3053 
L 4397 3040 
L 4467 2662 
L 5818 2797 
C 5850 2694 5875 2605 5894 2528 
L 6208 2675 
C 6157 2918 5984 3309 5805 3603 
L 5510 3482 
C 5574 3373 5638 3245 5696 3117 
L 5018 3072 
C 5325 3494 5670 4051 5939 4506 
L 5587 4672 
z
M 3424 4672 
C 3315 4448 3174 4186 3021 3923 
C 2944 4013 2848 4109 2739 4205 
C 2906 4474 3098 4851 3264 5165 
L 2893 5312 
C 2803 5056 2643 4691 2502 4410 
L 2349 4525 
L 2150 4262 
C 2394 4077 2669 3814 2829 3610 
C 2682 3379 2534 3155 2394 2976 
L 2170 2963 
L 2240 2586 
L 3546 2714 
L 3597 2490 
L 3917 2624 
C 3872 2867 3718 3258 3552 3552 
L 3258 3443 
C 3322 3322 3379 3187 3430 3046 
L 2803 3008 
C 3123 3443 3488 4026 3770 4506 
L 3424 4672 
z
" transform="scale(0.015625)"/>
      <path id="NotoSansCJKjp-Regular-93f0" d="M 4147 4781 
L 5382 4781 
L 5382 3706 
L 4147 3706 
L 4147 4781 
z
M 3725 5190 
L 3725 3296 
L 5830 3296 
L 5830 5190 
L 3725 5190 
z
M 4685 774 
C 5094 384 5568 -166 5766 -518 
L 6195 -269 
C 5971 83 5485 614 5082 992 
L 4685 774 
z
M 3546 1018 
C 3296 608 2790 96 2330 -205 
C 2445 -282 2605 -422 2682 -518 
C 3149 -198 3674 326 3994 787 
L 3546 1018 
z
M 518 3437 
L 518 3059 
L 2246 3059 
L 2246 3437 
L 518 3437 
z
M 557 5152 
L 557 4768 
L 2227 4768 
L 2227 5152 
L 557 5152 
z
M 518 2586 
L 518 2202 
L 2246 2202 
L 2246 2586 
L 518 2586 
z
M 243 4314 
L 243 3910 
L 2438 3910 
L 2438 4314 
L 243 4314 
z
M 2784 4685 
L 2784 2048 
L 3226 2048 
L 3226 2368 
L 5165 2368 
L 5165 1574 
L 2496 1574 
L 2496 1139 
L 6170 1139 
L 6170 1574 
L 5632 1574 
L 5632 2797 
L 3226 2797 
L 3226 4685 
L 2784 4685 
z
M 512 1722 
L 512 -442 
L 922 -442 
L 922 -141 
L 2253 -141 
L 2253 1722 
L 512 1722 
z
M 922 1325 
L 1843 1325 
L 1843 256 
L 922 256 
L 922 1325 
z
" transform="scale(0.015625)"/>
      <path id="NotoSansCJKjp-Regular-4110" d="M 4422 5389 
C 4320 5133 4115 4768 3949 4538 
L 4019 4512 
L 2349 4512 
L 2451 4557 
C 2362 4787 2144 5114 1933 5357 
L 1523 5190 
C 1683 4992 1850 4723 1952 4512 
L 646 4512 
L 646 4090 
L 2944 4090 
L 2944 3526 
L 960 3526 
L 960 3117 
L 2944 3117 
L 2944 2541 
L 358 2541 
L 358 2106 
L 1658 2106 
C 1421 1114 954 314 250 -179 
C 365 -256 563 -429 653 -518 
C 1382 64 1901 960 2182 2106 
L 6042 2106 
L 6042 2541 
L 3437 2541 
L 3437 3117 
L 5478 3117 
L 5478 3526 
L 3437 3526 
L 3437 4090 
L 5798 4090 
L 5798 4512 
L 4442 4512 
C 4595 4717 4774 4986 4928 5235 
L 4422 5389 
z
M 2163 1619 
L 2163 1197 
L 3462 1197 
L 3462 70 
L 1549 70 
L 1549 -352 
L 5914 -352 
L 5914 70 
L 3949 70 
L 3949 1197 
L 5485 1197 
L 5485 1619 
L 2163 1619 
z
" transform="scale(0.015625)"/>
     </defs>
     <use xlink:href="#NotoSansCJKjp-Regular-2e85"/>
     <use xlink:href="#NotoSansCJKjp-Regular-50d7" transform="translate(100 0)"/>
     <use xlink:href="#NotoSansCJKjp-Regular-a918" transform="translate(200 0)"/>
     <use xlink:href="#NotoSansCJKjp-Regular-5680" transform="translate(300 0)"/>
     <use xlink:href="#NotoSansCJKjp-Regular-93f0" transform="translate(400 0)"/>
     <use xlink:href="#NotoSansCJKjp-Regular-4110" transform="translate(500 0)"/>
    </g>
    <!-- （準但不夠精密） -->
    <g style="fill: #222831" transform="translate(106.28 82.8685) scale(0.115 -0.115)">
     <defs>
      <path id="NotoSansCJKjp-Regular-e6ae" d="M 4448 2432 
C 4448 1184 4954 166 5722 -614 
L 6106 -416 
C 5370 346 4915 1293 4915 2432 
C 4915 3571 5370 4518 6106 5280 
L 5722 5478 
C 4954 4698 4448 3680 4448 2432 
z
" transform="scale(0.015625)"/>
      <path id="NotoSansCJKjp-Regular-5d96" d="M 736 5011 
C 1082 4870 1530 4646 1760 4480 
L 2010 4858 
C 1779 5011 1331 5222 979 5344 
L 736 5011 
z
M 256 3942 
C 608 3821 1062 3616 1299 3469 
L 1536 3846 
C 1299 3994 845 4179 493 4282 
L 256 3942 
z
M 435 1907 
L 774 1536 
C 1165 1952 1594 2451 1958 2899 
L 1702 3226 
C 1286 2739 781 2221 435 1907 
z
M 339 1184 
L 339 742 
L 2931 742 
L 2931 -518 
L 3424 -518 
L 3424 742 
L 6086 742 
L 6086 1184 
L 3424 1184 
L 3424 1709 
L 2931 1709 
L 2931 1184 
L 339 1184 
z
M 4224 5376 
C 4147 5171 4019 4902 3891 4672 
L 3002 4672 
C 3123 4864 3232 5062 3328 5267 
L 2867 5408 
C 2579 4774 2086 4160 1568 3763 
C 1677 3686 1869 3520 1946 3430 
C 2086 3552 2234 3693 2374 3846 
L 2374 1747 
L 5978 1747 
L 5978 2144 
L 4339 2144 
L 4339 2624 
L 5626 2624 
L 5626 2989 
L 4339 2989 
L 4339 3450 
L 5613 3450 
L 5613 3814 
L 4339 3814 
L 4339 4282 
L 5798 4282 
L 5798 4672 
L 4378 4672 
C 4499 4858 4621 5069 4742 5274 
L 4224 5376 
z
M 2842 4282 
L 3885 4282 
L 3885 3814 
L 2842 3814 
L 2842 4282 
z
M 2842 2144 
L 2842 2624 
L 3885 2624 
L 3885 2144 
L 2842 2144 
z
M 2842 3450 
L 3885 3450 
L 3885 2989 
L 2842 2989 
L 2842 3450 
z
" transform="scale(0.015625)"/>
      <path id="NotoSansCJKjp-Regular-26d9" d="M 1971 198 
L 1971 -250 
L 6189 -250 
L 6189 198 
L 1971 198 
z
M 3008 2758 
L 5126 2758 
L 5126 1472 
L 3008 1472 
L 3008 2758 
z
M 3008 4467 
L 5126 4467 
L 5126 3206 
L 3008 3206 
L 3008 4467 
z
M 2515 4922 
L 2515 1024 
L 5645 1024 
L 5645 4922 
L 2515 4922 
z
M 1779 5350 
C 1414 4378 806 3418 166 2803 
C 256 2688 403 2426 448 2310 
C 672 2534 890 2803 1101 3091 
L 1101 -499 
L 1574 -499 
L 1574 3821 
C 1830 4262 2061 4736 2246 5210 
L 1779 5350 
z
" transform="scale(0.015625)"/>
      <path id="NotoSansCJKjp-Regular-2518" d="M 3578 3059 
C 4339 2547 5299 1792 5754 1299 
L 6144 1670 
C 5664 2163 4691 2880 3936 3366 
L 3578 3059 
z
M 442 4928 
L 442 4435 
L 3290 4435 
C 2656 3341 1555 2259 282 1632 
C 384 1523 531 1331 608 1210 
C 1498 1677 2291 2336 2938 3078 
L 2938 -499 
L 3456 -499 
L 3456 3738 
C 3622 3962 3770 4198 3904 4435 
L 5958 4435 
L 5958 4928 
L 442 4928 
z
" transform="scale(0.015625)"/>
      <path id="NotoSansCJKjp-Regular-36ec" d="M 1146 1242 
C 1357 1094 1606 890 1766 723 
C 1338 326 819 38 275 -122 
C 358 -218 461 -403 506 -512 
C 1702 -102 2752 762 3168 2330 
L 2893 2470 
L 2810 2451 
L 2010 2451 
C 2112 2605 2208 2765 2285 2918 
L 1869 3008 
C 2330 3424 2707 3962 2925 4634 
L 2656 4781 
L 2579 4762 
L 1664 4762 
C 1779 4941 1875 5120 1965 5299 
L 1536 5389 
C 1325 4896 883 4307 262 3878 
C 358 3814 486 3674 550 3571 
C 870 3808 1146 4077 1370 4358 
L 2374 4358 
C 2221 4032 2016 3738 1766 3482 
C 1606 3629 1402 3782 1216 3898 
L 909 3661 
C 1101 3539 1318 3366 1478 3213 
C 1139 2925 755 2707 365 2566 
C 448 2483 550 2317 602 2208 
C 1037 2387 1466 2643 1843 2982 
C 1574 2438 1050 1830 262 1402 
C 358 1331 480 1178 538 1069 
C 1005 1350 1389 1683 1696 2035 
L 2624 2035 
C 2483 1651 2285 1312 2048 1024 
C 1882 1184 1658 1350 1459 1472 
L 1146 1242 
z
M 3840 5357 
C 3616 4525 3226 3712 2739 3187 
C 2842 3117 3034 2963 3104 2886 
C 3360 3187 3597 3571 3802 4000 
L 5517 4000 
C 5466 1293 5402 320 5248 109 
C 5190 26 5133 6 5030 6 
C 4902 6 4614 6 4294 32 
C 4378 -90 4429 -288 4435 -429 
C 4723 -442 5018 -448 5210 -422 
C 5395 -403 5530 -346 5645 -166 
C 5856 128 5907 1114 5958 4179 
C 5958 4250 5965 4422 5965 4422 
L 3994 4422 
C 4102 4691 4198 4973 4282 5254 
L 3840 5357 
z
M 3488 3283 
L 3488 531 
L 3885 531 
L 3885 1024 
L 5018 1024 
L 5018 3283 
L 3488 3283 
z
M 3885 2886 
L 4621 2886 
L 4621 1414 
L 3885 1414 
L 3885 2886 
z
" transform="scale(0.015625)"/>
      <path id="NotoSansCJKjp-Regular-77bf" d="M 326 4877 
C 493 4435 646 3853 678 3475 
L 1030 3558 
C 986 3942 838 4518 659 4960 
L 326 4877 
z
M 2099 4986 
C 2016 4557 1830 3930 1690 3552 
L 1990 3456 
C 2150 3814 2349 4410 2502 4883 
L 2099 4986 
z
M 262 3226 
L 262 2778 
L 1088 2778 
C 890 2074 531 1229 192 774 
C 269 646 397 435 442 288 
C 704 666 960 1267 1165 1882 
L 1165 -499 
L 1606 -499 
L 1606 2042 
C 1798 1702 2022 1286 2112 1069 
L 2438 1434 
C 2310 1638 1773 2438 1606 2637 
L 1606 2778 
L 2323 2778 
L 2323 3226 
L 1606 3226 
L 1606 5357 
L 1165 5357 
L 1165 3226 
L 262 3226 
z
M 4070 5376 
L 4070 4858 
L 2726 4858 
L 2726 4486 
L 4070 4486 
L 4070 4090 
L 2886 4090 
L 2886 3738 
L 4070 3738 
L 4070 3309 
L 2547 3309 
L 2547 2931 
L 6144 2931 
L 6144 3309 
L 4525 3309 
L 4525 3738 
L 5837 3738 
L 5837 4090 
L 4525 4090 
L 4525 4486 
L 5978 4486 
L 5978 4858 
L 4525 4858 
L 4525 5376 
L 4070 5376 
z
M 5267 2182 
L 5267 1702 
L 3405 1702 
L 3405 2182 
L 5267 2182 
z
M 2944 2547 
L 2944 -506 
L 3405 -506 
L 3405 538 
L 5267 538 
L 5267 -13 
C 5267 -83 5242 -109 5158 -109 
C 5082 -115 4819 -115 4525 -102 
C 4589 -218 4646 -384 4666 -506 
C 5069 -506 5331 -499 5504 -435 
C 5670 -365 5715 -250 5715 -13 
L 5715 2547 
L 2944 2547 
z
M 3405 1357 
L 5267 1357 
L 5267 877 
L 3405 877 
L 3405 1357 
z
" transform="scale(0.015625)"/>
      <path id="NotoSansCJKjp-Regular-3ce1" d="M 1165 3539 
C 1018 3098 736 2650 301 2400 
L 672 2138 
C 1139 2426 1402 2918 1568 3392 
L 1165 3539 
z
M 2253 4019 
C 2650 3834 3123 3539 3354 3315 
L 3610 3629 
C 3373 3840 2886 4128 2496 4301 
L 2253 4019 
z
M 4659 3270 
C 5094 2906 5574 2381 5779 2022 
L 6150 2285 
C 5933 2650 5440 3162 5005 3507 
L 4659 3270 
z
M 4339 4038 
C 3878 3411 3187 2893 2381 2496 
L 2381 3642 
L 1946 3642 
L 1946 2387 
L 1946 2291 
C 1408 2061 832 1875 243 1728 
C 333 1632 467 1434 525 1331 
C 1069 1485 1613 1677 2125 1907 
C 2253 1824 2458 1792 2778 1792 
C 2918 1792 3930 1792 4077 1792 
C 4608 1792 4742 1965 4800 2669 
C 4678 2694 4499 2758 4403 2829 
C 4371 2266 4326 2189 4038 2189 
C 3814 2189 2970 2189 2803 2189 
L 2707 2189 
C 3526 2624 4243 3174 4755 3853 
L 4339 4038 
z
M 4960 1325 
L 4960 211 
L 3430 211 
L 3430 1696 
L 2944 1696 
L 2944 211 
L 1504 211 
L 1504 1325 
L 1030 1325 
L 1030 -512 
L 1504 -512 
L 1504 -237 
L 4960 -237 
L 4960 -499 
L 5440 -499 
L 5440 1325 
L 4960 1325 
z
M 493 4826 
L 493 3571 
L 966 3571 
L 966 4390 
L 5434 4390 
L 5434 3571 
L 5920 3571 
L 5920 4826 
L 3430 4826 
L 3430 5376 
L 2938 5376 
L 2938 4826 
L 493 4826 
z
" transform="scale(0.015625)"/>
      <path id="NotoSansCJKjp-Regular-e6af" d="M 1952 2432 
C 1952 3680 1446 4698 678 5478 
L 294 5280 
C 1030 4518 1485 3571 1485 2432 
C 1485 1293 1030 346 294 -416 
L 678 -614 
C 1446 166 1952 1184 1952 2432 
z
" transform="scale(0.015625)"/>
     </defs>
     <use xlink:href="#NotoSansCJKjp-Regular-e6ae"/>
     <use xlink:href="#NotoSansCJKjp-Regular-5d96" transform="translate(100 0)"/>
     <use xlink:href="#NotoSansCJKjp-Regular-26d9" transform="translate(200 0)"/>
     <use xlink:href="#NotoSansCJKjp-Regular-2518" transform="translate(300 0)"/>
     <use xlink:href="#NotoSansCJKjp-Regular-36ec" transform="translate(400 0)"/>
     <use xlink:href="#NotoSansCJKjp-Regular-77bf" transform="translate(500 0)"/>
     <use xlink:href="#NotoSansCJKjp-Regular-3ce1" transform="translate(600 0)"/>
     <use xlink:href="#NotoSansCJKjp-Regular-e6af" transform="translate(700 0)"/>
    </g>
   </g>
   <g id="PathCollection_1">
    <defs>
     <path id="m6fa4810843" d="M 0 3.391165 
C 0.899347 3.391165 1.761981 3.03385 2.397916 2.397916 
C 3.03385 1.761981 3.391165 0.899347 3.391165 0 
C 3.391165 -0.899347 3.03385 -1.761981 2.397916 -2.397916 
C 1.761981 -3.03385 0.899347 -3.391165 0 -3.391165 
C -0.899347 -3.391165 -1.761981 -3.03385 -2.397916 -2.397916 
C -3.03385 -1.761981 -3.391165 -0.899347 -3.391165 0 
C -3.391165 0.899347 -3.03385 1.761981 -2.397916 2.397916 
C -1.761981 3.03385 -0.899347 3.391165 0 3.391165 
z
" style="stroke: #ffffff; stroke-width: 0.8"/>
    </defs>
    <g clip-path="url(#p010f66593d)">
     <use xlink:href="#m6fa4810843" x="153.080692" y="211.443015" style="fill: #222831; stroke: #ffffff; stroke-width: 0.8"/>
     <use xlink:href="#m6fa4810843" x="184.121225" y="131.500295" style="fill: #222831; stroke: #ffffff; stroke-width: 0.8"/>
     <use xlink:href="#m6fa4810843" x="180.959309" y="170.442341" style="fill: #222831; stroke: #ffffff; stroke-width: 0.8"/>
     <use xlink:href="#m6fa4810843" x="140.330133" y="152.251757" style="fill: #222831; stroke: #ffffff; stroke-width: 0.8"/>
     <use xlink:href="#m6fa4810843" x="145.302444" y="171.382163" style="fill: #222831; stroke: #ffffff; stroke-width: 0.8"/>
     <use xlink:href="#m6fa4810843" x="139.930238" y="177.061543" style="fill: #222831; stroke: #ffffff; stroke-width: 0.8"/>
     <use xlink:href="#m6fa4810843" x="165.621289" y="157.339531" style="fill: #222831; stroke: #ffffff; stroke-width: 0.8"/>
     <use xlink:href="#m6fa4810843" x="150.967138" y="148.876544" style="fill: #222831; stroke: #ffffff; stroke-width: 0.8"/>
     <use xlink:href="#m6fa4810843" x="169.76983" y="172.926832" style="fill: #222831; stroke: #ffffff; stroke-width: 0.8"/>
    </g>
   </g>
   <g id="PathCollection_2">
    <defs>
     <path id="m366011095e" d="M -5.477226 0 
L 5.477226 0 
M 0 5.477226 
L 0 -5.477226 
" style="stroke: #1a7f37; stroke-width: 2.4"/>
    </defs>
    <g clip-path="url(#p010f66593d)">
     <use xlink:href="#m366011095e" x="158.898033" y="165.91378" style="fill: #1a7f37; stroke: #1a7f37; stroke-width: 2.4"/>
    </g>
   </g>
  </g>
  <g id="axes_2">
   <g id="patch_11">
    <path d="M 376.084312 247.499875 
L 534.715687 247.499875 
L 534.715687 88.8685 
L 376.084312 88.8685 
z
" style="fill: #ffffff"/>
   </g>
   <g id="patch_12">
    <path d="M 455.4 232.392125 
C 472.428144 232.392125 488.761152 225.626772 500.801868 213.586056 
C 512.842584 201.545339 519.607937 185.212332 519.607937 168.184188 
C 519.607937 151.156043 512.842584 134.823036 500.801868 122.782319 
C 488.761152 110.741603 472.428144 103.97625 455.4 103.97625 
C 438.371856 103.97625 422.038848 110.741603 409.998132 122.782319 
C 397.957416 134.823036 391.192062 151.156043 391.192062 168.184188 
C 391.192062 185.212332 397.957416 201.545339 409.998132 213.586056 
C 422.038848 225.626772 438.371856 232.392125 455.4 232.392125 
z
" clip-path="url(#pf794073f1a)" style="fill: #eef1f5; stroke: #aab4c2; stroke-width: 0.8; stroke-linejoin: miter"/>
   </g>
   <g id="patch_13">
    <path d="M 455.4 213.507438 
C 467.419866 213.507438 478.949048 208.731894 487.448377 200.232565 
C 495.947706 191.733236 500.72325 180.204054 500.72325 168.184188 
C 500.72325 156.164321 495.947706 144.635139 487.448377 136.13581 
C 478.949048 127.636481 467.419866 122.860938 455.4 122.860938 
C 443.380134 122.860938 431.850952 127.636481 423.351623 136.13581 
C 414.852294 144.635139 410.07675 156.164321 410.07675 168.184188 
C 410.07675 180.204054 414.852294 191.733236 423.351623 200.232565 
C 431.850952 208.731894 443.380134 213.507438 455.4 213.507438 
z
" clip-path="url(#pf794073f1a)" style="fill: #dbe7ff; stroke: #aab4c2; stroke-width: 0.8; stroke-linejoin: miter"/>
   </g>
   <g id="patch_14">
    <path d="M 455.4 194.62275 
C 462.411589 194.62275 469.136945 191.837016 474.094887 186.879074 
C 479.052829 181.921132 481.838562 175.195776 481.838562 168.184188 
C 481.838562 161.172599 479.052829 154.447243 474.094887 149.489301 
C 469.136945 144.531359 462.411589 141.745625 455.4 141.745625 
C 448.388411 141.745625 441.663055 144.531359 436.705113 149.489301 
C 431.747171 154.447243 428.961437 161.172599 428.961437 168.184188 
C 428.961437 175.195776 431.747171 181.921132 436.705113 186.879074 
C 441.663055 191.837016 448.388411 194.62275 455.4 194.62275 
z
" clip-path="url(#pf794073f1a)" style="fill: #bcd3ff; stroke: #aab4c2; stroke-width: 0.8; stroke-linejoin: miter"/>
   </g>
   <g id="patch_15">
    <path d="M 455.4 175.738063 
C 457.403311 175.738063 459.324841 174.942139 460.741396 173.525584 
C 462.157951 172.109029 462.953875 170.187499 462.953875 168.184188 
C 462.953875 166.180876 462.157951 164.259346 460.741396 162.842791 
C 459.324841 161.426236 457.403311 160.630313 455.4 160.630313 
C 453.396689 160.630313 451.475159 161.426236 450.058604 162.842791 
C 448.642049 164.259346 447.846125 166.180876 447.846125 168.184188 
C 447.846125 170.187499 448.642049 172.109029 450.058604 173.525584 
C 451.475159 174.942139 453.396689 175.738063 455.4 175.738063 
z
" clip-path="url(#pf794073f1a)" style="fill: #d1242f; stroke: #aab4c2; stroke-width: 0.8; stroke-linejoin: miter"/>
   </g>
   <g id="matplotlib.axis_3"/>
   <g id="matplotlib.axis_4"/>
   <g id="patch_16">
    <path d="M 376.084312 247.499875 
L 376.084312 88.8685 
" style="fill: none; stroke: #aab4c2; stroke-width: 1.1; stroke-linejoin: miter; stroke-linecap: square"/>
   </g>
   <g id="patch_17">
    <path d="M 534.715687 247.499875 
L 534.715687 88.8685 
" style="fill: none; stroke: #aab4c2; stroke-width: 1.1; stroke-linejoin: miter; stroke-linecap: square"/>
   </g>
   <g id="patch_18">
    <path d="M 376.084312 247.499875 
L 534.715687 247.499875 
" style="fill: none; stroke: #aab4c2; stroke-width: 1.1; stroke-linejoin: miter; stroke-linecap: square"/>
   </g>
   <g id="patch_19">
    <path d="M 376.084312 88.8685 
L 534.715687 88.8685 
" style="fill: none; stroke: #aab4c2; stroke-width: 1.1; stroke-linejoin: miter; stroke-linecap: square"/>
   </g>
   <g id="text_2">
    <!-- 有系統誤差 -->
    <g style="fill: #222831" transform="translate(426.65 71.3685) scale(0.115 -0.115)">
     <defs>
      <path id="NotoSansCJKjp-Regular-784c" d="M 1715 1222 
C 1363 749 787 262 243 -51 
C 371 -128 582 -288 678 -378 
C 1197 -32 1805 512 2208 1043 
L 1715 1222 
z
M 4109 986 
C 4666 582 5350 -6 5677 -371 
L 6093 -64 
C 5741 301 5037 864 4493 1248 
L 4109 986 
z
M 5286 5286 
C 4179 5062 2208 4928 557 4883 
C 602 4768 659 4576 672 4448 
C 1235 4461 1843 4486 2445 4525 
C 2195 4198 1882 3840 1594 3565 
L 1158 3827 
L 832 3533 
C 1344 3232 1939 2790 2310 2445 
C 2125 2291 1933 2150 1760 2016 
L 358 2003 
L 403 1517 
L 2938 1581 
L 2938 -512 
L 3443 -512 
L 3443 1594 
L 5293 1645 
C 5466 1459 5613 1286 5715 1139 
L 6138 1427 
C 5811 1862 5126 2509 4563 2957 
L 4173 2707 
C 4403 2522 4646 2298 4883 2074 
L 2464 2029 
C 3226 2618 4083 3398 4730 4077 
L 4269 4326 
C 3853 3846 3270 3270 2682 2765 
C 2490 2938 2227 3136 1952 3328 
C 2317 3661 2739 4122 3072 4525 
L 3002 4563 
C 3974 4634 4915 4736 5632 4877 
L 5286 5286 
z
" transform="scale(0.015625)"/>
      <path id="NotoSansCJKjp-Regular-7934" d="M 4589 2214 
L 4589 147 
C 4589 -333 4691 -474 5133 -474 
C 5222 -474 5594 -474 5683 -474 
C 6067 -474 6182 -250 6227 582 
C 6099 614 5907 685 5811 768 
C 5792 70 5773 -38 5638 -38 
C 5555 -38 5261 -38 5203 -38 
C 5062 -38 5043 -13 5043 147 
L 5043 2214 
L 4589 2214 
z
M 1907 1651 
C 2074 1274 2240 787 2304 467 
L 2669 595 
C 2605 909 2438 1395 2259 1760 
L 1907 1651 
z
M 582 1715 
C 506 1152 378 582 160 192 
C 269 154 454 64 544 6 
C 749 416 909 1037 992 1645 
L 582 1715 
z
M 3398 2208 
C 3354 966 3200 224 2170 -179 
C 2272 -262 2400 -422 2451 -538 
C 3590 -64 3802 806 3859 2208 
L 3398 2208 
z
M 2573 2886 
L 2611 2438 
C 3366 2490 4435 2560 5472 2643 
C 5581 2458 5677 2285 5741 2144 
L 6150 2374 
C 5958 2784 5504 3398 5107 3853 
L 4736 3648 
C 4896 3462 5056 3251 5203 3040 
L 3635 2944 
C 3808 3283 3987 3718 4147 4096 
L 6048 4096 
L 6048 4531 
L 4493 4531 
L 4493 5376 
L 4006 5376 
L 4006 4531 
L 2547 4531 
L 2547 4096 
L 3597 4096 
C 3482 3718 3302 3251 3136 2912 
L 2573 2886 
z
M 218 2509 
L 262 2074 
L 1267 2138 
L 1267 -525 
L 1696 -525 
L 1696 2163 
L 2202 2195 
C 2259 2054 2298 1926 2323 1818 
L 2688 1978 
C 2598 2330 2342 2880 2080 3296 
L 1741 3155 
C 1850 2982 1952 2778 2042 2579 
L 1088 2541 
C 1523 3104 2010 3853 2374 4461 
L 1971 4646 
C 1798 4301 1568 3891 1312 3494 
C 1216 3622 1082 3770 941 3917 
C 1178 4269 1453 4781 1670 5203 
L 1248 5376 
C 1114 5018 883 4538 678 4179 
L 486 4346 
L 243 4026 
C 538 3763 870 3398 1069 3117 
C 928 2899 781 2694 646 2522 
L 218 2509 
z
" transform="scale(0.015625)"/>
     </defs>
     <use xlink:href="#NotoSansCJKjp-Regular-50d7"/>
     <use xlink:href="#NotoSansCJKjp-Regular-784c" transform="translate(100 0)"/>
     <use xlink:href="#NotoSansCJKjp-Regular-7934" transform="translate(200 0)"/>
     <use xlink:href="#NotoSansCJKjp-Regular-93f0" transform="translate(300 0)"/>
     <use xlink:href="#NotoSansCJKjp-Regular-4110" transform="translate(400 0)"/>
    </g>
    <!-- （精密但不準，整批偏掉） -->
    <g style="fill: #222831" transform="translate(386.4 82.8685) scale(0.115 -0.115)">
     <defs>
      <path id="NotoSansCJKjp-Regular-e6b2" d="M 1005 -685 
C 1677 -448 2112 77 2112 768 
C 2112 1216 1920 1504 1568 1504 
C 1306 1504 1082 1344 1082 1043 
C 1082 742 1299 589 1562 589 
L 1670 602 
C 1638 160 1357 -141 864 -346 
L 1005 -685 
z
" transform="scale(0.015625)"/>
      <path id="NotoSansCJKjp-Regular-4e1d" d="M 1357 1139 
L 1357 32 
L 301 32 
L 301 -371 
L 6118 -371 
L 6118 32 
L 3430 32 
L 3430 563 
L 5274 563 
L 5274 934 
L 3430 934 
L 3430 1427 
L 5696 1427 
L 5696 1824 
L 730 1824 
L 730 1427 
L 2957 1427 
L 2957 32 
L 1818 32 
L 1818 1139 
L 1357 1139 
z
M 4109 5376 
C 3930 4742 3597 4154 3162 3770 
L 3162 4282 
L 2054 4282 
L 2054 4608 
L 3315 4608 
L 3315 4960 
L 2054 4960 
L 2054 5376 
L 1626 5376 
L 1626 4960 
L 365 4960 
L 365 4608 
L 1626 4608 
L 1626 4282 
L 550 4282 
L 550 3110 
L 1440 3110 
C 1126 2790 646 2470 256 2304 
C 346 2234 474 2093 538 1997 
C 883 2176 1306 2496 1626 2822 
L 1626 1997 
L 2054 1997 
L 2054 2784 
C 2368 2611 2790 2362 2970 2227 
L 3206 2547 
C 3027 2650 2349 2989 2086 3110 
L 3162 3110 
L 3162 3725 
C 3264 3642 3411 3494 3462 3411 
C 3603 3546 3744 3699 3866 3878 
C 4000 3590 4186 3296 4416 3021 
C 4064 2714 3629 2490 3104 2330 
C 3200 2253 3341 2074 3392 1978 
C 3904 2163 4339 2400 4704 2714 
C 5030 2406 5434 2138 5926 1958 
C 5990 2067 6112 2246 6202 2336 
C 5715 2483 5318 2720 4998 3002 
C 5299 3347 5530 3757 5677 4269 
L 6093 4269 
L 6093 4659 
L 4314 4659 
C 4403 4858 4480 5069 4544 5280 
L 4109 5376 
z
M 947 3962 
L 1626 3962 
L 1626 3430 
L 947 3430 
L 947 3962 
z
M 2054 3962 
L 2752 3962 
L 2752 3430 
L 2054 3430 
L 2054 3962 
z
M 4122 4269 
L 5216 4269 
C 5101 3891 4928 3571 4698 3302 
C 4435 3603 4243 3930 4109 4250 
L 4122 4269 
z
" transform="scale(0.015625)"/>
      <path id="NotoSansCJKjp-Regular-4908" d="M 1888 70 
L 2022 -397 
C 2592 -275 3341 -109 4045 51 
L 4006 474 
L 2989 269 
L 2989 2854 
L 3987 2854 
L 3987 3315 
L 2989 3315 
L 2989 5306 
L 2522 5306 
L 2522 179 
L 1888 70 
z
M 5734 3859 
C 5478 3610 5082 3296 4717 3046 
L 4717 5312 
L 4243 5312 
L 4243 326 
C 4243 -269 4378 -435 4851 -435 
C 4947 -435 5466 -435 5562 -435 
C 6016 -435 6125 -122 6170 730 
C 6035 762 5850 851 5741 941 
C 5715 198 5696 0 5536 0 
C 5427 0 5005 0 4922 0 
C 4749 0 4717 51 4717 320 
L 4717 2566 
C 5139 2816 5670 3187 6074 3514 
L 5734 3859 
z
M 1069 5370 
L 1069 4083 
L 269 4083 
L 269 3635 
L 1069 3635 
L 1069 2323 
L 179 2054 
L 301 1594 
L 1069 1843 
L 1069 45 
C 1069 -45 1037 -70 960 -70 
C 883 -77 634 -77 358 -64 
C 416 -198 480 -397 493 -512 
C 902 -518 1146 -499 1299 -422 
C 1459 -352 1517 -218 1517 45 
L 1517 1990 
L 2221 2221 
L 2150 2662 
L 1517 2464 
L 1517 3635 
L 2208 3635 
L 2208 4083 
L 1517 4083 
L 1517 5370 
L 1069 5370 
z
" transform="scale(0.015625)"/>
      <path id="NotoSansCJKjp-Regular-288e" d="M 2035 5018 
L 2035 4614 
L 6131 4614 
L 6131 5018 
L 2035 5018 
z
M 2317 4173 
L 2317 3040 
C 2317 2150 2240 909 1581 6 
C 1683 -45 1869 -205 1939 -288 
C 2342 262 2554 960 2662 1632 
L 2662 -525 
L 3066 -525 
L 3066 755 
L 3648 755 
L 3648 -480 
L 4006 -480 
L 4006 755 
L 4602 755 
L 4602 -480 
L 4966 -480 
L 4966 755 
L 5568 755 
L 5568 -32 
C 5568 -90 5549 -109 5491 -109 
C 5434 -109 5274 -109 5075 -102 
C 5139 -218 5203 -403 5216 -518 
C 5510 -518 5696 -512 5837 -442 
C 5965 -365 5997 -243 5997 -38 
L 5997 2253 
L 2733 2253 
L 2758 2726 
L 5875 2726 
L 5875 4173 
L 2317 4173 
z
M 2765 3795 
L 5408 3795 
L 5408 3110 
L 2765 3110 
L 2765 3795 
z
M 5568 1875 
L 5568 1139 
L 4966 1139 
L 4966 1875 
L 5568 1875 
z
M 3066 1139 
L 3066 1875 
L 3648 1875 
L 3648 1139 
L 3066 1139 
z
M 4006 1875 
L 4602 1875 
L 4602 1139 
L 4006 1139 
L 4006 1875 
z
M 1491 5344 
C 1184 4352 672 3366 115 2726 
C 198 2605 320 2355 365 2240 
C 576 2490 781 2778 973 3098 
L 973 -512 
L 1434 -512 
L 1434 3962 
C 1626 4365 1798 4794 1933 5222 
L 1491 5344 
z
" transform="scale(0.015625)"/>
      <path id="NotoSansCJKjp-Regular-4aa8" d="M 2925 2502 
L 5222 2502 
L 5222 1914 
L 2925 1914 
L 2925 2502 
z
M 2925 3456 
L 5222 3456 
L 5222 2874 
L 2925 2874 
L 2925 3456 
z
M 1062 5376 
L 1062 4096 
L 282 4096 
L 282 3642 
L 1062 3642 
L 1062 2234 
L 224 1990 
L 352 1523 
L 1062 1754 
L 1062 83 
C 1062 -6 1030 -38 941 -38 
C 858 -45 582 -45 282 -38 
C 339 -160 410 -358 429 -480 
C 870 -480 1139 -467 1306 -397 
C 1472 -320 1542 -192 1542 83 
L 1542 1907 
L 2278 2157 
L 2234 2598 
L 1542 2381 
L 1542 3642 
L 2246 3642 
L 2246 4096 
L 1542 4096 
L 1542 5376 
L 1062 5376 
z
M 2464 3840 
L 2464 1530 
L 3853 1530 
L 3853 979 
L 2067 979 
L 2067 550 
L 3853 550 
L 3853 -512 
L 4326 -512 
L 4326 550 
L 6131 550 
L 6131 979 
L 4326 979 
L 4326 1530 
L 5696 1530 
L 5696 3840 
L 4320 3840 
L 4320 4416 
L 6067 4416 
L 6067 4832 
L 4320 4832 
L 4320 5376 
L 3846 5376 
L 3846 3840 
L 2464 3840 
z
" transform="scale(0.015625)"/>
     </defs>
     <use xlink:href="#NotoSansCJKjp-Regular-e6ae"/>
     <use xlink:href="#NotoSansCJKjp-Regular-77bf" transform="translate(100 0)"/>
     <use xlink:href="#NotoSansCJKjp-Regular-3ce1" transform="translate(200 0)"/>
     <use xlink:href="#NotoSansCJKjp-Regular-26d9" transform="translate(300 0)"/>
     <use xlink:href="#NotoSansCJKjp-Regular-2518" transform="translate(400 0)"/>
     <use xlink:href="#NotoSansCJKjp-Regular-5d96" transform="translate(500 0)"/>
     <use xlink:href="#NotoSansCJKjp-Regular-e6b2" transform="translate(600 0)"/>
     <use xlink:href="#NotoSansCJKjp-Regular-4e1d" transform="translate(700 0)"/>
     <use xlink:href="#NotoSansCJKjp-Regular-4908" transform="translate(800 0)"/>
     <use xlink:href="#NotoSansCJKjp-Regular-288e" transform="translate(900 0)"/>
     <use xlink:href="#NotoSansCJKjp-Regular-4aa8" transform="translate(1000 0)"/>
     <use xlink:href="#NotoSansCJKjp-Regular-e6af" transform="translate(1100 0)"/>
    </g>
   </g>
   <g id="PathCollection_3">
    <g clip-path="url(#pf794073f1a)">
     <use xlink:href="#m6fa4810843" x="490.357604" y="148.956267" style="fill: #222831; stroke: #ffffff; stroke-width: 0.8"/>
     <use xlink:href="#m6fa4810843" x="495.424652" y="150.764733" style="fill: #222831; stroke: #ffffff; stroke-width: 0.8"/>
     <use xlink:href="#m6fa4810843" x="486.021351" y="141.524219" style="fill: #222831; stroke: #ffffff; stroke-width: 0.8"/>
     <use xlink:href="#m6fa4810843" x="482.129335" y="136.323458" style="fill: #222831; stroke: #ffffff; stroke-width: 0.8"/>
     <use xlink:href="#m6fa4810843" x="493.667821" y="143.154465" style="fill: #222831; stroke: #ffffff; stroke-width: 0.8"/>
     <use xlink:href="#m6fa4810843" x="487.22861" y="146.23925" style="fill: #222831; stroke: #ffffff; stroke-width: 0.8"/>
     <use xlink:href="#m6fa4810843" x="479.676096" y="139.419069" style="fill: #222831; stroke: #ffffff; stroke-width: 0.8"/>
     <use xlink:href="#m6fa4810843" x="486.361499" y="137.411297" style="fill: #222831; stroke: #ffffff; stroke-width: 0.8"/>
     <use xlink:href="#m6fa4810843" x="488.455167" y="143.558619" style="fill: #222831; stroke: #ffffff; stroke-width: 0.8"/>
    </g>
   </g>
   <g id="PathCollection_4">
    <g clip-path="url(#pf794073f1a)">
     <use xlink:href="#m366011095e" x="487.702459" y="143.039042" style="fill: #1a7f37; stroke: #1a7f37; stroke-width: 2.4"/>
    </g>
   </g>
  </g>
  <g id="axes_3">
   <g id="patch_20">
    <path d="M 7.2 434.33125 
L 297.36 434.33125 
L 297.36 275.699875 
L 7.2 275.699875 
z
" style="fill: #ffffff"/>
   </g>
   <g id="patch_21">
    <path d="M 7.2 434.33125 
L 20.389091 434.33125 
L 20.389091 434.33125 
L 7.2 434.33125 
z
" clip-path="url(#p552d8fc74c)" style="fill: #1f6feb; opacity: 0.35; stroke: #ffffff; stroke-width: 0.5; stroke-linejoin: miter"/>
   </g>
   <g id="patch_22">
    <path d="M 20.389091 434.33125 
L 33.578182 434.33125 
L 33.578182 434.33125 
L 20.389091 434.33125 
z
" clip-path="url(#p552d8fc74c)" style="fill: #1f6feb; opacity: 0.35; stroke: #ffffff; stroke-width: 0.5; stroke-linejoin: miter"/>
   </g>
   <g id="patch_23">
    <path d="M 33.578182 434.33125 
L 46.767273 434.33125 
L 46.767273 434.33125 
L 33.578182 434.33125 
z
" clip-path="url(#p552d8fc74c)" style="fill: #1f6feb; opacity: 0.35; stroke: #ffffff; stroke-width: 0.5; stroke-linejoin: miter"/>
   </g>
   <g id="patch_24">
    <path d="M 46.767273 434.33125 
L 59.956364 434.33125 
L 59.956364 425.175038 
L 46.767273 425.175038 
z
" clip-path="url(#p552d8fc74c)" style="fill: #1f6feb; opacity: 0.35; stroke: #ffffff; stroke-width: 0.5; stroke-linejoin: miter"/>
   </g>
   <g id="patch_25">
    <path d="M 59.956364 434.33125 
L 73.145455 434.33125 
L 73.145455 416.018826 
L 59.956364 416.018826 
z
" clip-path="url(#p552d8fc74c)" style="fill: #1f6feb; opacity: 0.35; stroke: #ffffff; stroke-width: 0.5; stroke-linejoin: miter"/>
   </g>
   <g id="patch_26">
    <path d="M 73.145455 434.33125 
L 86.334545 434.33125 
L 86.334545 397.706402 
L 73.145455 397.706402 
z
" clip-path="url(#p552d8fc74c)" style="fill: #1f6feb; opacity: 0.35; stroke: #ffffff; stroke-width: 0.5; stroke-linejoin: miter"/>
   </g>
   <g id="patch_27">
    <path d="M 86.334545 434.33125 
L 99.523636 434.33125 
L 99.523636 383.972083 
L 86.334545 383.972083 
z
" clip-path="url(#p552d8fc74c)" style="fill: #1f6feb; opacity: 0.35; stroke: #ffffff; stroke-width: 0.5; stroke-linejoin: miter"/>
   </g>
   <g id="patch_28">
    <path d="M 99.523636 434.33125 
L 112.712727 434.33125 
L 112.712727 397.706402 
L 99.523636 397.706402 
z
" clip-path="url(#p552d8fc74c)" style="fill: #1f6feb; opacity: 0.35; stroke: #ffffff; stroke-width: 0.5; stroke-linejoin: miter"/>
   </g>
   <g id="patch_29">
    <path d="M 112.712727 434.33125 
L 125.901818 434.33125 
L 125.901818 342.769129 
L 112.712727 342.769129 
z
" clip-path="url(#p552d8fc74c)" style="fill: #1f6feb; opacity: 0.35; stroke: #ffffff; stroke-width: 0.5; stroke-linejoin: miter"/>
   </g>
   <g id="patch_30">
    <path d="M 125.901818 434.33125 
L 139.090909 434.33125 
L 139.090909 347.347235 
L 125.901818 347.347235 
z
" clip-path="url(#p552d8fc74c)" style="fill: #1f6feb; opacity: 0.35; stroke: #ffffff; stroke-width: 0.5; stroke-linejoin: miter"/>
   </g>
   <g id="patch_31">
    <path d="M 139.090909 434.33125 
L 152.28 434.33125 
L 152.28 333.612917 
L 139.090909 333.612917 
z
" clip-path="url(#p552d8fc74c)" style="fill: #1f6feb; opacity: 0.35; stroke: #ffffff; stroke-width: 0.5; stroke-linejoin: miter"/>
   </g>
   <g id="patch_32">
    <path d="M 152.28 434.33125 
L 165.469091 434.33125 
L 165.469091 347.347235 
L 152.28 347.347235 
z
" clip-path="url(#p552d8fc74c)" style="fill: #1f6feb; opacity: 0.35; stroke: #ffffff; stroke-width: 0.5; stroke-linejoin: miter"/>
   </g>
   <g id="patch_33">
    <path d="M 165.469091 434.33125 
L 178.658182 434.33125 
L 178.658182 283.25375 
L 165.469091 283.25375 
z
" clip-path="url(#p552d8fc74c)" style="fill: #1f6feb; opacity: 0.35; stroke: #ffffff; stroke-width: 0.5; stroke-linejoin: miter"/>
   </g>
   <g id="patch_34">
    <path d="M 178.658182 434.33125 
L 191.847273 434.33125 
L 191.847273 347.347235 
L 178.658182 347.347235 
z
" clip-path="url(#p552d8fc74c)" style="fill: #1f6feb; opacity: 0.35; stroke: #ffffff; stroke-width: 0.5; stroke-linejoin: miter"/>
   </g>
   <g id="patch_35">
    <path d="M 191.847273 434.33125 
L 205.036364 434.33125 
L 205.036364 370.237765 
L 191.847273 370.237765 
z
" clip-path="url(#p552d8fc74c)" style="fill: #1f6feb; opacity: 0.35; stroke: #ffffff; stroke-width: 0.5; stroke-linejoin: miter"/>
   </g>
   <g id="patch_36">
    <path d="M 205.036364 434.33125 
L 218.225455 434.33125 
L 218.225455 393.128295 
L 205.036364 393.128295 
z
" clip-path="url(#p552d8fc74c)" style="fill: #1f6feb; opacity: 0.35; stroke: #ffffff; stroke-width: 0.5; stroke-linejoin: miter"/>
   </g>
   <g id="patch_37">
    <path d="M 218.225455 434.33125 
L 231.414545 434.33125 
L 231.414545 416.018826 
L 218.225455 416.018826 
z
" clip-path="url(#p552d8fc74c)" style="fill: #1f6feb; opacity: 0.35; stroke: #ffffff; stroke-width: 0.5; stroke-linejoin: miter"/>
   </g>
   <g id="patch_38">
    <path d="M 231.414545 434.33125 
L 244.603636 434.33125 
L 244.603636 411.44072 
L 231.414545 411.44072 
z
" clip-path="url(#p552d8fc74c)" style="fill: #1f6feb; opacity: 0.35; stroke: #ffffff; stroke-width: 0.5; stroke-linejoin: miter"/>
   </g>
   <g id="patch_39">
    <path d="M 244.603636 434.33125 
L 257.792727 434.33125 
L 257.792727 425.175038 
L 244.603636 425.175038 
z
" clip-path="url(#p552d8fc74c)" style="fill: #1f6feb; opacity: 0.35; stroke: #ffffff; stroke-width: 0.5; stroke-linejoin: miter"/>
   </g>
   <g id="patch_40">
    <path d="M 257.792727 434.33125 
L 270.981818 434.33125 
L 270.981818 429.753144 
L 257.792727 429.753144 
z
" clip-path="url(#p552d8fc74c)" style="fill: #1f6feb; opacity: 0.35; stroke: #ffffff; stroke-width: 0.5; stroke-linejoin: miter"/>
   </g>
   <g id="patch_41">
    <path d="M 270.981818 434.33125 
L 284.170909 434.33125 
L 284.170909 434.33125 
L 270.981818 434.33125 
z
" clip-path="url(#p552d8fc74c)" style="fill: #1f6feb; opacity: 0.35; stroke: #ffffff; stroke-width: 0.5; stroke-linejoin: miter"/>
   </g>
   <g id="patch_42">
    <path d="M 284.170909 434.33125 
L 297.36 434.33125 
L 297.36 434.33125 
L 284.170909 434.33125 
z
" clip-path="url(#p552d8fc74c)" style="fill: #1f6feb; opacity: 0.35; stroke: #ffffff; stroke-width: 0.5; stroke-linejoin: miter"/>
   </g>
   <g id="matplotlib.axis_5">
    <g id="xtick_1">
     <g id="line2d_1">
      <defs>
       <path id="m00267e9a94" d="M 0 0 
L 0 3.5 
" style="stroke: #222831; stroke-width: 0.8"/>
      </defs>
      <g>
       <use xlink:href="#m00267e9a94" x="31.38" y="434.33125" style="fill: #222831; stroke: #222831; stroke-width: 0.8"/>
      </g>
     </g>
     <g id="text_3">
      <!-- -2 -->
      <g style="fill: #222831" transform="translate(25.967812 451.89125) scale(0.12 -0.12)">
       <defs>
        <path id="NotoSansCJKjp-Regular-e" d="M 294 1568 
L 1933 1568 
L 1933 2016 
L 294 2016 
L 294 1568 
z
" transform="scale(0.015625)"/>
        <path id="NotoSansCJKjp-Regular-13" d="M 282 0 
L 3232 0 
L 3232 506 
L 1933 506 
C 1696 506 1408 480 1165 461 
C 2266 1504 3008 2458 3008 3398 
C 3008 4230 2477 4774 1638 4774 
C 1043 4774 634 4506 256 4090 
L 595 3757 
C 858 4070 1184 4301 1568 4301 
C 2150 4301 2432 3910 2432 3373 
C 2432 2566 1754 1632 282 346 
L 282 0 
z
" transform="scale(0.015625)"/>
       </defs>
       <use xlink:href="#NotoSansCJKjp-Regular-e"/>
       <use xlink:href="#NotoSansCJKjp-Regular-13" transform="translate(34.703125 0)"/>
      </g>
     </g>
    </g>
    <g id="xtick_2">
     <g id="line2d_2">
      <g>
       <use xlink:href="#m00267e9a94" x="91.83" y="434.33125" style="fill: #222831; stroke: #222831; stroke-width: 0.8"/>
      </g>
     </g>
     <g id="text_4">
      <!-- -1 -->
      <g style="fill: #222831" transform="translate(86.417812 451.89125) scale(0.12 -0.12)">
       <defs>
        <path id="NotoSansCJKjp-Regular-12" d="M 563 0 
L 3136 0 
L 3136 486 
L 2195 486 
L 2195 4691 
L 1747 4691 
C 1491 4544 1190 4435 774 4358 
L 774 3987 
L 1613 3987 
L 1613 486 
L 563 486 
L 563 0 
z
" transform="scale(0.015625)"/>
       </defs>
       <use xlink:href="#NotoSansCJKjp-Regular-e"/>
       <use xlink:href="#NotoSansCJKjp-Regular-12" transform="translate(34.703125 0)"/>
      </g>
     </g>
    </g>
    <g id="xtick_3">
     <g id="line2d_3">
      <g>
       <use xlink:href="#m00267e9a94" x="152.28" y="434.33125" style="fill: #222831; stroke: #222831; stroke-width: 0.8"/>
      </g>
     </g>
     <g id="text_5">
      <!-- 0 -->
      <g style="fill: #222831" transform="translate(148.95 451.89125) scale(0.12 -0.12)">
       <defs>
        <path id="NotoSansCJKjp-Regular-11" d="M 1779 -83 
C 2669 -83 3238 723 3238 2362 
C 3238 3987 2669 4774 1779 4774 
C 883 4774 320 3987 320 2362 
C 320 723 883 -83 1779 -83 
z
M 1779 390 
C 1248 390 883 986 883 2362 
C 883 3731 1248 4314 1779 4314 
C 2310 4314 2675 3731 2675 2362 
C 2675 986 2310 390 1779 390 
z
" transform="scale(0.015625)"/>
       </defs>
       <use xlink:href="#NotoSansCJKjp-Regular-11"/>
      </g>
     </g>
    </g>
    <g id="xtick_4">
     <g id="line2d_4">
      <g>
       <use xlink:href="#m00267e9a94" x="212.73" y="434.33125" style="fill: #222831; stroke: #222831; stroke-width: 0.8"/>
      </g>
     </g>
     <g id="text_6">
      <!-- 1 -->
      <g style="fill: #222831" transform="translate(209.4 451.89125) scale(0.12 -0.12)">
       <use xlink:href="#NotoSansCJKjp-Regular-12"/>
      </g>
     </g>
    </g>
    <g id="xtick_5">
     <g id="line2d_5">
      <g>
       <use xlink:href="#m00267e9a94" x="273.18" y="434.33125" style="fill: #222831; stroke: #222831; stroke-width: 0.8"/>
      </g>
     </g>
     <g id="text_7">
      <!-- 2 -->
      <g style="fill: #222831" transform="translate(269.85 451.89125) scale(0.12 -0.12)">
       <use xlink:href="#NotoSansCJKjp-Regular-13"/>
      </g>
     </g>
    </g>
    <g id="text_8">
     <!-- 測量值 -->
     <g style="fill: #222831" transform="translate(134.28 467.89125) scale(0.12 -0.12)">
      <defs>
       <path id="NotoSansCJKjp-Regular-5cee" d="M 2413 3475 
L 3437 3475 
L 3437 2682 
L 2413 2682 
L 2413 3475 
z
M 2413 2278 
L 3437 2278 
L 3437 1478 
L 2413 1478 
L 2413 2278 
z
M 2413 4666 
L 3437 4666 
L 3437 3878 
L 2413 3878 
L 2413 4666 
z
M 2003 5088 
L 2003 1056 
L 3866 1056 
L 3866 5088 
L 2003 5088 
z
M 3136 742 
C 3392 422 3712 -13 3846 -288 
L 4230 -45 
C 4083 218 3763 640 3494 941 
L 3136 742 
z
M 2266 922 
C 2074 480 1741 32 1408 -262 
C 1510 -326 1702 -461 1786 -531 
C 2131 -205 2490 307 2714 800 
L 2266 922 
z
M 5466 5376 
L 5466 90 
C 5466 -19 5421 -51 5318 -58 
C 5216 -58 4877 -64 4493 -51 
C 4557 -186 4621 -390 4640 -512 
C 5165 -512 5472 -499 5651 -416 
C 5830 -346 5907 -211 5907 90 
L 5907 5376 
L 5466 5376 
z
M 4352 4717 
L 4352 1050 
L 4774 1050 
L 4774 4717 
L 4352 4717 
z
M 518 4966 
C 883 4787 1318 4486 1530 4275 
L 1818 4659 
C 1594 4870 1158 5139 794 5306 
L 518 4966 
z
M 243 3238 
C 621 3078 1069 2810 1293 2605 
L 1568 2995 
C 1344 3200 890 3443 506 3590 
L 243 3238 
z
M 371 -173 
L 806 -429 
C 1082 160 1408 947 1645 1619 
L 1261 1869 
C 998 1152 634 320 371 -173 
z
" transform="scale(0.015625)"/>
       <path id="NotoSansCJKjp-Regular-a108" d="M 1600 4256 
L 4781 4256 
L 4781 3904 
L 1600 3904 
L 1600 4256 
z
M 1600 4883 
L 4781 4883 
L 4781 4538 
L 1600 4538 
L 1600 4883 
z
M 1133 5171 
L 1133 3616 
L 5261 3616 
L 5261 5171 
L 1133 5171 
z
M 333 3341 
L 333 2976 
L 6074 2976 
L 6074 3341 
L 333 3341 
z
M 1472 1747 
L 2957 1747 
L 2957 1376 
L 1472 1376 
L 1472 1747 
z
M 3424 1747 
L 4973 1747 
L 4973 1376 
L 3424 1376 
L 3424 1747 
z
M 1472 2387 
L 2957 2387 
L 2957 2029 
L 1472 2029 
L 1472 2387 
z
M 3424 2387 
L 4973 2387 
L 4973 2029 
L 3424 2029 
L 3424 2387 
z
M 301 19 
L 301 -352 
L 6112 -352 
L 6112 19 
L 3424 19 
L 3424 390 
L 5587 390 
L 5587 730 
L 3424 730 
L 3424 1082 
L 5446 1082 
L 5446 2688 
L 1018 2688 
L 1018 1082 
L 2957 1082 
L 2957 730 
L 838 730 
L 838 390 
L 2957 390 
L 2957 19 
L 301 19 
z
" transform="scale(0.015625)"/>
       <path id="NotoSansCJKjp-Regular-286c" d="M 3834 5376 
C 3814 5184 3782 4954 3750 4723 
L 2106 4723 
L 2106 4294 
L 3674 4294 
C 3635 4077 3597 3872 3552 3699 
L 2445 3699 
L 2445 90 
L 1830 90 
L 1830 -326 
L 6131 -326 
L 6131 90 
L 5562 90 
L 5562 3699 
L 3987 3699 
C 4038 3872 4090 4077 4134 4294 
L 5939 4294 
L 5939 4723 
L 4230 4723 
L 4346 5344 
L 3834 5376 
z
M 2880 90 
L 2880 621 
L 5114 621 
L 5114 90 
L 2880 90 
z
M 2880 2426 
L 5114 2426 
L 5114 1875 
L 2880 1875 
L 2880 2426 
z
M 2880 2784 
L 2880 3322 
L 5114 3322 
L 5114 2784 
L 2880 2784 
z
M 2880 1530 
L 5114 1530 
L 5114 973 
L 2880 973 
L 2880 1530 
z
M 1690 5370 
C 1350 4397 794 3443 205 2816 
C 288 2701 422 2451 474 2342 
C 659 2547 845 2784 1018 3040 
L 1018 -512 
L 1466 -512 
L 1466 3770 
C 1722 4230 1946 4730 2131 5229 
L 1690 5370 
z
" transform="scale(0.015625)"/>
      </defs>
      <use xlink:href="#NotoSansCJKjp-Regular-5cee"/>
      <use xlink:href="#NotoSansCJKjp-Regular-a108" transform="translate(100 0)"/>
      <use xlink:href="#NotoSansCJKjp-Regular-286c" transform="translate(200 0)"/>
     </g>
    </g>
   </g>
   <g id="matplotlib.axis_6"/>
   <g id="line2d_6">
    <path d="M 152.28 434.33125 
L 152.28 275.699875 
" clip-path="url(#p552d8fc74c)" style="fill: none; stroke: #d1242f; stroke-width: 2.2; stroke-linecap: square"/>
   </g>
   <g id="line2d_7">
    <path d="M 153.355915 434.33125 
L 153.355915 275.699875 
" clip-path="url(#p552d8fc74c)" style="fill: none; stroke-dasharray: 8.14,3.52; stroke-dashoffset: 0; stroke: #1a7f37; stroke-width: 2.2"/>
   </g>
   <g id="patch_43">
    <path d="M 7.2 434.33125 
L 297.36 434.33125 
" style="fill: none; stroke: #222831; stroke-width: 1.1; stroke-linejoin: miter; stroke-linecap: square"/>
   </g>
   <g id="text_9">
    <!-- 隨機誤差：散開、但對稱地圍著真值 -->
    <g style="fill: #222831" transform="translate(68.28 269.699875) scale(0.105 -0.105)">
     <defs>
      <path id="NotoSansCJKjp-Regular-e6c0" d="M 3200 3482 
C 3456 3482 3686 3667 3686 3962 
C 3686 4256 3456 4442 3200 4442 
C 2944 4442 2714 4256 2714 3962 
C 2714 3667 2944 3482 3200 3482 
z
M 3200 346 
C 3456 346 3686 538 3686 826 
C 3686 1120 3456 1312 3200 1312 
C 2944 1312 2714 1120 2714 826 
C 2714 538 2944 346 3200 346 
z
" transform="scale(0.015625)"/>
      <path id="NotoSansCJKjp-Regular-4e06" d="M 2272 5325 
L 2272 4602 
L 1446 4602 
L 1446 5325 
L 1005 5325 
L 1005 4602 
L 358 4602 
L 358 4198 
L 1005 4198 
L 1005 3437 
L 256 3437 
L 256 3021 
L 3386 3021 
L 3386 3437 
L 2720 3437 
L 2720 4198 
L 3373 4198 
L 3373 4602 
L 2720 4602 
L 2720 5325 
L 2272 5325 
z
M 1446 4198 
L 2272 4198 
L 2272 3437 
L 1446 3437 
L 1446 4198 
z
M 1158 1395 
L 2560 1395 
L 2560 941 
L 1158 941 
L 1158 1395 
z
M 1158 1766 
L 1158 2214 
L 2560 2214 
L 2560 1766 
L 1158 1766 
z
M 710 2592 
L 710 -512 
L 1158 -512 
L 1158 570 
L 2560 570 
L 2560 -6 
C 2560 -77 2541 -102 2464 -102 
C 2387 -109 2138 -109 1862 -96 
C 1920 -211 1984 -384 2003 -499 
C 2394 -499 2650 -499 2810 -435 
C 2970 -358 3014 -237 3014 -13 
L 3014 2592 
L 710 2592 
z
M 4154 3738 
L 5242 3738 
C 5133 2938 4966 2246 4704 1670 
C 4448 2266 4262 2950 4141 3686 
L 4154 3738 
z
M 4026 5376 
C 3872 4294 3590 3232 3130 2547 
C 3232 2458 3398 2253 3462 2150 
C 3616 2381 3757 2650 3878 2944 
C 4019 2298 4205 1696 4442 1178 
C 4109 634 3654 211 3040 -109 
C 3130 -211 3277 -416 3322 -525 
C 3898 -198 4346 205 4691 704 
C 4998 192 5376 -230 5856 -518 
C 5933 -384 6086 -198 6195 -109 
C 5683 166 5280 602 4966 1152 
C 5344 1850 5568 2701 5722 3738 
L 6150 3738 
L 6150 4186 
L 4275 4186 
C 4365 4550 4442 4922 4499 5306 
L 4026 5376 
z
" transform="scale(0.015625)"/>
      <path id="NotoSansCJKjp-Regular-a767" d="M 3622 2144 
L 3622 1446 
L 2726 1446 
L 2726 2144 
L 3622 2144 
z
M 1491 1446 
L 1491 1037 
L 2291 1037 
C 2246 666 2067 134 1530 -192 
C 1632 -262 1779 -397 1850 -486 
C 2464 -70 2669 608 2714 1037 
L 3622 1037 
L 3622 -390 
L 4051 -390 
L 4051 1037 
L 4922 1037 
L 4922 1446 
L 4051 1446 
L 4051 2144 
L 4787 2144 
L 4787 2541 
L 1606 2541 
L 1606 2144 
L 2304 2144 
L 2304 1446 
L 1491 1446 
z
M 2451 3872 
L 2451 3315 
L 1043 3315 
L 1043 3872 
L 2451 3872 
z
M 2451 4211 
L 1043 4211 
L 1043 4736 
L 2451 4736 
L 2451 4211 
z
M 5389 3872 
L 5389 3309 
L 3930 3309 
L 3930 3872 
L 5389 3872 
z
M 5389 4211 
L 3930 4211 
L 3930 4736 
L 5389 4736 
L 5389 4211 
z
M 5619 5101 
L 3475 5101 
L 3475 2938 
L 5389 2938 
L 5389 115 
C 5389 13 5357 -19 5254 -26 
C 5152 -26 4813 -26 4461 -19 
C 4531 -147 4595 -371 4608 -499 
C 5101 -506 5421 -493 5613 -416 
C 5798 -333 5862 -179 5862 109 
L 5862 5101 
L 5619 5101 
z
M 570 5101 
L 570 -518 
L 1043 -518 
L 1043 2944 
L 2906 2944 
L 2906 5101 
L 570 5101 
z
" transform="scale(0.015625)"/>
      <path id="NotoSansCJKjp-Regular-575" d="M 1747 -358 
L 2182 13 
C 1786 480 1210 1062 749 1434 
L 333 1069 
C 787 698 1338 147 1747 -358 
z
" transform="scale(0.015625)"/>
      <path id="NotoSansCJKjp-Regular-3d73" d="M 3693 2554 
C 3955 2086 4192 1472 4256 1082 
L 4691 1242 
C 4627 1632 4371 2234 4102 2694 
L 3693 2554 
z
M 339 5037 
C 531 4730 717 4320 781 4058 
L 1152 4230 
C 1088 4493 890 4890 685 5190 
L 339 5037 
z
M 3168 5222 
C 3053 4922 2829 4467 2662 4192 
L 2989 4045 
C 3174 4307 3398 4710 3590 5056 
L 3168 5222 
z
M 294 224 
L 358 -230 
C 1184 -122 2387 45 3514 205 
L 3501 627 
L 2138 448 
L 2138 1152 
L 3194 1152 
L 3194 1555 
L 2138 1555 
L 2138 2208 
L 3328 2208 
L 3328 2618 
L 2643 2618 
C 2778 2842 2925 3181 3066 3482 
L 2637 3603 
L 3494 3603 
L 3494 3206 
L 5005 3206 
L 5005 83 
C 5005 -32 4960 -64 4845 -70 
C 4749 -70 4397 -77 4006 -64 
C 4077 -192 4154 -397 4179 -518 
C 4704 -518 5011 -506 5203 -429 
C 5389 -352 5466 -218 5466 83 
L 5466 3206 
L 6150 3206 
L 6150 3654 
L 5466 3654 
L 5466 5338 
L 5005 5338 
L 5005 3654 
L 3558 3654 
L 3558 4013 
L 2554 4013 
L 2554 5344 
L 2157 5344 
L 2157 4013 
L 1670 4013 
L 1670 5344 
L 1274 5344 
L 1274 4013 
L 269 4013 
L 269 3603 
L 2618 3603 
C 2547 3334 2381 2957 2259 2714 
L 2592 2618 
L 1184 2618 
L 1542 2746 
C 1498 2976 1350 3328 1184 3597 
L 800 3469 
C 954 3200 1088 2848 1126 2618 
L 506 2618 
L 506 2208 
L 1690 2208 
L 1690 1555 
L 672 1555 
L 672 1152 
L 1690 1152 
L 1690 390 
L 294 224 
z
" transform="scale(0.015625)"/>
      <path id="NotoSansCJKjp-Regular-7251" d="M 3885 4454 
C 4019 4173 4134 3795 4160 3558 
L 4582 3674 
C 4550 3923 4435 4282 4288 4557 
L 3885 4454 
z
M 5088 4582 
C 5350 4205 5626 3686 5741 3347 
L 6157 3533 
C 6035 3866 5754 4365 5478 4742 
L 5088 4582 
z
M 4058 1760 
L 4058 1152 
L 3219 1152 
L 3219 1760 
L 4058 1760 
z
M 4058 2138 
L 3219 2138 
L 3219 2733 
L 4058 2733 
L 4058 2138 
z
M 4499 1760 
L 5402 1760 
L 5402 1152 
L 4499 1152 
L 4499 1760 
z
M 4499 2138 
L 4499 2733 
L 5402 2733 
L 5402 2138 
L 4499 2138 
z
M 2771 3123 
L 2771 1152 
L 2317 1152 
L 2317 742 
L 2771 742 
L 2771 -506 
L 3219 -506 
L 3219 742 
L 5402 742 
L 5402 13 
C 5402 -64 5370 -90 5293 -96 
C 5210 -96 4934 -96 4634 -83 
C 4698 -205 4774 -390 4800 -512 
C 5203 -512 5466 -506 5632 -429 
C 5798 -358 5850 -230 5850 6 
L 5850 742 
L 6208 742 
L 6208 1152 
L 5850 1152 
L 5850 3123 
L 4499 3123 
L 4499 3539 
L 4058 3539 
L 4058 3123 
L 2771 3123 
z
M 2112 5235 
C 1690 5030 922 4851 256 4730 
C 307 4640 371 4480 397 4378 
C 659 4416 941 4467 1222 4525 
L 1222 3526 
L 288 3526 
L 288 3085 
L 1152 3085 
C 934 2355 563 1517 211 1050 
C 288 934 403 749 454 614 
C 730 998 1005 1613 1222 2234 
L 1222 -525 
L 1677 -525 
L 1677 2304 
C 1882 2042 2125 1709 2227 1536 
L 2509 1901 
C 2387 2048 1850 2611 1677 2765 
L 1677 3085 
L 2464 3085 
L 2464 3469 
C 2579 3411 2707 3334 2778 3290 
C 3008 3616 3226 4090 3386 4589 
C 4179 4659 5075 4781 5715 4941 
L 5357 5286 
C 4890 5158 4115 5043 3392 4966 
L 3021 5037 
C 2886 4474 2656 3910 2355 3526 
L 1677 3526 
L 1677 4634 
C 1971 4710 2246 4800 2477 4896 
L 2112 5235 
z
" transform="scale(0.015625)"/>
      <path id="NotoSansCJKjp-Regular-33d0" d="M 2746 4781 
L 2746 3027 
L 2054 2739 
L 2234 2310 
L 2746 2528 
L 2746 506 
C 2746 -192 2957 -365 3693 -365 
C 3859 -365 5094 -365 5274 -365 
C 5939 -365 6099 -83 6170 800 
C 6042 819 5850 896 5741 979 
C 5696 243 5632 70 5254 70 
C 4998 70 3923 70 3712 70 
C 3283 70 3206 141 3206 493 
L 3206 2726 
L 4064 3091 
L 4064 915 
L 4518 915 
L 4518 3283 
L 5414 3667 
C 5414 2637 5402 1926 5370 1773 
C 5338 1626 5280 1600 5178 1600 
C 5114 1600 4902 1600 4749 1613 
C 4806 1504 4845 1318 4864 1190 
C 5043 1190 5299 1190 5466 1242 
C 5658 1286 5779 1402 5818 1664 
C 5862 1914 5875 2874 5875 4077 
L 5901 4166 
L 5562 4294 
L 5472 4224 
L 5376 4134 
L 4518 3776 
L 4518 5376 
L 4064 5376 
L 4064 3584 
L 3206 3226 
L 3206 4781 
L 2746 4781 
z
M 211 986 
L 403 506 
C 966 755 1696 1082 2381 1402 
L 2272 1830 
L 1542 1523 
L 1542 3379 
L 2298 3379 
L 2298 3834 
L 1542 3834 
L 1542 5299 
L 1088 5299 
L 1088 3834 
L 269 3834 
L 269 3379 
L 1088 3379 
L 1088 1331 
C 755 1197 454 1075 211 986 
z
" transform="scale(0.015625)"/>
      <path id="NotoSansCJKjp-Regular-339e" d="M 2214 2758 
L 4173 2758 
L 4173 2342 
L 2214 2342 
L 2214 2758 
z
M 1747 4230 
L 1747 3949 
L 2592 3949 
L 2464 3565 
L 1357 3565 
L 1357 3270 
L 5062 3270 
L 5062 3565 
L 4448 3565 
L 4448 4230 
L 3098 4230 
L 3181 4538 
L 2771 4589 
L 2675 4230 
L 1747 4230 
z
M 2893 3565 
L 3014 3949 
L 4045 3949 
L 4045 3565 
L 2893 3565 
z
M 1766 1446 
C 1728 1190 1658 896 1594 685 
L 1965 640 
L 2010 826 
L 3251 826 
L 3251 346 
L 3686 346 
L 3686 826 
L 5043 826 
L 5043 1126 
L 3686 1126 
L 3686 1510 
L 4826 1510 
L 4826 1805 
L 3686 1805 
L 3686 2080 
L 4602 2080 
L 4602 3021 
L 1798 3021 
L 1798 2080 
L 3251 2080 
L 3251 1805 
L 1510 1805 
L 1510 1510 
L 3251 1510 
L 3251 1126 
L 2086 1126 
L 2144 1408 
L 1766 1446 
z
M 525 5094 
L 525 -512 
L 979 -512 
L 979 -243 
L 5402 -243 
L 5402 -512 
L 5875 -512 
L 5875 5094 
L 525 5094 
z
M 979 192 
L 979 4659 
L 5402 4659 
L 5402 192 
L 979 192 
z
" transform="scale(0.015625)"/>
      <path id="NotoSansCJKjp-Regular-8737" d="M 5299 4115 
C 5088 3872 4845 3642 4582 3424 
L 4582 3750 
L 3021 3750 
L 3021 4224 
L 2547 4224 
L 2547 3750 
L 909 3750 
L 909 3341 
L 2547 3341 
L 2547 2765 
L 371 2765 
L 371 2336 
L 2880 2336 
C 2048 1926 1139 1600 211 1363 
C 301 1261 429 1050 474 947 
C 858 1062 1248 1184 1626 1331 
L 1626 -512 
L 2099 -512 
L 2099 -314 
L 4960 -314 
L 4960 -506 
L 5434 -506 
L 5434 1830 
L 2816 1830 
C 3142 1984 3462 2157 3763 2336 
L 6042 2336 
L 6042 2765 
L 4429 2765 
C 4902 3098 5331 3475 5696 3885 
L 5299 4115 
z
M 3021 2765 
L 3021 3341 
L 4480 3341 
C 4224 3136 3949 2944 3654 2765 
L 3021 2765 
z
M 2099 614 
L 4960 614 
L 4960 70 
L 2099 70 
L 2099 614 
z
M 2099 947 
L 2099 1453 
L 4960 1453 
L 4960 947 
L 2099 947 
z
M 384 4902 
L 384 4474 
L 1843 4474 
L 1843 4000 
L 2310 4000 
L 2310 4474 
L 4051 4474 
L 4051 4000 
L 4518 4000 
L 4518 4474 
L 6010 4474 
L 6010 4902 
L 4518 4902 
L 4518 5376 
L 4051 5376 
L 4051 4902 
L 2310 4902 
L 2310 5376 
L 1843 5376 
L 1843 4902 
L 384 4902 
z
" transform="scale(0.015625)"/>
      <path id="NotoSansCJKjp-Regular-6d20" d="M 3795 269 
C 4512 13 5242 -301 5683 -525 
L 6086 -198 
C 5606 26 4819 333 4109 576 
L 3795 269 
z
M 365 1094 
L 365 685 
L 6048 685 
L 6048 1094 
L 365 1094 
z
M 1792 2957 
L 4710 2957 
L 4710 2528 
L 1792 2528 
L 1792 2957 
z
M 1792 2221 
L 4710 2221 
L 4710 1786 
L 1792 1786 
L 1792 2221 
z
M 1792 3680 
L 4710 3680 
L 4710 3264 
L 1792 3264 
L 1792 3680 
z
M 2214 563 
C 1805 294 1005 -13 365 -186 
C 467 -275 614 -429 691 -525 
C 1325 -346 2131 -26 2637 288 
L 2214 563 
z
M 1325 4006 
L 1325 1472 
L 5197 1472 
L 5197 4006 
L 3437 4006 
L 3437 4429 
L 5888 4429 
L 5888 4838 
L 3437 4838 
L 3437 5382 
L 2938 5382 
L 2938 4838 
L 544 4838 
L 544 4429 
L 2938 4429 
L 2938 4006 
L 1325 4006 
z
" transform="scale(0.015625)"/>
     </defs>
     <use xlink:href="#NotoSansCJKjp-Regular-a918"/>
     <use xlink:href="#NotoSansCJKjp-Regular-5680" transform="translate(100 0)"/>
     <use xlink:href="#NotoSansCJKjp-Regular-93f0" transform="translate(200 0)"/>
     <use xlink:href="#NotoSansCJKjp-Regular-4110" transform="translate(300 0)"/>
     <use xlink:href="#NotoSansCJKjp-Regular-e6c0" transform="translate(400 0)"/>
     <use xlink:href="#NotoSansCJKjp-Regular-4e06" transform="translate(500 0)"/>
     <use xlink:href="#NotoSansCJKjp-Regular-a767" transform="translate(600 0)"/>
     <use xlink:href="#NotoSansCJKjp-Regular-575" transform="translate(700 0)"/>
     <use xlink:href="#NotoSansCJKjp-Regular-26d9" transform="translate(800 0)"/>
     <use xlink:href="#NotoSansCJKjp-Regular-3d73" transform="translate(900 0)"/>
     <use xlink:href="#NotoSansCJKjp-Regular-7251" transform="translate(1000 0)"/>
     <use xlink:href="#NotoSansCJKjp-Regular-33d0" transform="translate(1100 0)"/>
     <use xlink:href="#NotoSansCJKjp-Regular-339e" transform="translate(1200 0)"/>
     <use xlink:href="#NotoSansCJKjp-Regular-8737" transform="translate(1300 0)"/>
     <use xlink:href="#NotoSansCJKjp-Regular-6d20" transform="translate(1400 0)"/>
     <use xlink:href="#NotoSansCJKjp-Regular-286c" transform="translate(1500 0)"/>
    </g>
   </g>
   <g id="legend_1">
    <g id="line2d_8">
     <path d="M 231.91 287.854875 
L 240.41 287.854875 
L 248.91 287.854875 
" style="fill: none; stroke: #d1242f; stroke-width: 2.2; stroke-linecap: square"/>
    </g>
    <g id="text_10">
     <!-- 真值 -->
     <g style="fill: #222831" transform="translate(255.71 290.829875) scale(0.085 -0.085)">
      <use xlink:href="#NotoSansCJKjp-Regular-6d20"/>
      <use xlink:href="#NotoSansCJKjp-Regular-286c" transform="translate(100 0)"/>
     </g>
    </g>
    <g id="line2d_9">
     <path d="M 231.91 300.604875 
L 240.41 300.604875 
L 248.91 300.604875 
" style="fill: none; stroke-dasharray: 8.14,3.52; stroke-dashoffset: 0; stroke: #1a7f37; stroke-width: 2.2"/>
    </g>
    <g id="text_11">
     <!-- 量測平均 -->
     <g style="fill: #222831" transform="translate(255.71 303.579875) scale(0.085 -0.085)">
      <defs>
       <path id="NotoSansCJKjp-Regular-41d6" d="M 1114 4032 
C 1363 3558 1613 2938 1702 2554 
L 2157 2714 
C 2067 3085 1805 3699 1549 4160 
L 1114 4032 
z
M 4832 4192 
C 4672 3725 4378 3072 4134 2669 
L 4550 2534 
C 4800 2918 5101 3533 5338 4051 
L 4832 4192 
z
M 333 2227 
L 333 1747 
L 2938 1747 
L 2938 -506 
L 3437 -506 
L 3437 1747 
L 6074 1747 
L 6074 2227 
L 3437 2227 
L 3437 4467 
L 5715 4467 
L 5715 4947 
L 672 4947 
L 672 4467 
L 2938 4467 
L 2938 2227 
L 333 2227 
z
" transform="scale(0.015625)"/>
       <path id="NotoSansCJKjp-Regular-33ef" d="M 2803 3021 
L 2803 2579 
L 4794 2579 
L 4794 3021 
L 2803 3021 
z
M 2509 954 
L 2707 506 
C 3334 742 4173 1075 4954 1389 
L 4870 1805 
C 4000 1478 3091 1146 2509 954 
z
M 3245 5376 
C 3002 4480 2586 3610 2054 3053 
C 2176 2982 2381 2835 2477 2746 
C 2726 3046 2970 3430 3181 3853 
L 5542 3853 
C 5459 1254 5357 269 5152 51 
C 5075 -32 5005 -58 4877 -51 
C 4723 -51 4326 -51 3898 -13 
C 3981 -154 4045 -358 4058 -499 
C 4442 -518 4838 -531 5062 -506 
C 5293 -486 5440 -429 5587 -237 
C 5843 77 5939 1101 6029 4058 
C 6035 4128 6035 4314 6035 4314 
L 3392 4314 
C 3526 4621 3635 4941 3731 5267 
L 3245 5376 
z
M 218 1030 
L 390 550 
C 986 794 1773 1126 2509 1440 
L 2406 1894 
L 1606 1568 
L 1606 3430 
L 2362 3430 
L 2362 3885 
L 1606 3885 
L 1606 5338 
L 1139 5338 
L 1139 3885 
L 333 3885 
L 333 3430 
L 1139 3430 
L 1139 1382 
C 794 1248 474 1120 218 1030 
z
" transform="scale(0.015625)"/>
      </defs>
      <use xlink:href="#NotoSansCJKjp-Regular-a108"/>
      <use xlink:href="#NotoSansCJKjp-Regular-5cee" transform="translate(100 0)"/>
      <use xlink:href="#NotoSansCJKjp-Regular-41d6" transform="translate(200 0)"/>
      <use xlink:href="#NotoSansCJKjp-Regular-33ef" transform="translate(300 0)"/>
     </g>
    </g>
   </g>
  </g>
  <g id="axes_4">
   <g id="patch_44">
    <path d="M 310.32 434.33125 
L 600.48 434.33125 
L 600.48 275.699875 
L 310.32 275.699875 
z
" style="fill: #ffffff"/>
   </g>
   <g id="patch_45">
    <path d="M 310.32 434.33125 
L 323.509091 434.33125 
L 323.509091 434.33125 
L 310.32 434.33125 
z
" clip-path="url(#p25be0275e7)" style="fill: #1f6feb; opacity: 0.35; stroke: #ffffff; stroke-width: 0.5; stroke-linejoin: miter"/>
   </g>
   <g id="patch_46">
    <path d="M 323.509091 434.33125 
L 336.698182 434.33125 
L 336.698182 434.33125 
L 323.509091 434.33125 
z
" clip-path="url(#p25be0275e7)" style="fill: #1f6feb; opacity: 0.35; stroke: #ffffff; stroke-width: 0.5; stroke-linejoin: miter"/>
   </g>
   <g id="patch_47">
    <path d="M 336.698182 434.33125 
L 349.887273 434.33125 
L 349.887273 434.33125 
L 336.698182 434.33125 
z
" clip-path="url(#p25be0275e7)" style="fill: #1f6feb; opacity: 0.35; stroke: #ffffff; stroke-width: 0.5; stroke-linejoin: miter"/>
   </g>
   <g id="patch_48">
    <path d="M 349.887273 434.33125 
L 363.076364 434.33125 
L 363.076364 434.33125 
L 349.887273 434.33125 
z
" clip-path="url(#p25be0275e7)" style="fill: #1f6feb; opacity: 0.35; stroke: #ffffff; stroke-width: 0.5; stroke-linejoin: miter"/>
   </g>
   <g id="patch_49">
    <path d="M 363.076364 434.33125 
L 376.265455 434.33125 
L 376.265455 434.33125 
L 363.076364 434.33125 
z
" clip-path="url(#p25be0275e7)" style="fill: #1f6feb; opacity: 0.35; stroke: #ffffff; stroke-width: 0.5; stroke-linejoin: miter"/>
   </g>
   <g id="patch_50">
    <path d="M 376.265455 434.33125 
L 389.454545 434.33125 
L 389.454545 434.33125 
L 376.265455 434.33125 
z
" clip-path="url(#p25be0275e7)" style="fill: #1f6feb; opacity: 0.35; stroke: #ffffff; stroke-width: 0.5; stroke-linejoin: miter"/>
   </g>
   <g id="patch_51">
    <path d="M 389.454545 434.33125 
L 402.643636 434.33125 
L 402.643636 434.33125 
L 389.454545 434.33125 
z
" clip-path="url(#p25be0275e7)" style="fill: #1f6feb; opacity: 0.35; stroke: #ffffff; stroke-width: 0.5; stroke-linejoin: miter"/>
   </g>
   <g id="patch_52">
    <path d="M 402.643636 434.33125 
L 415.832727 434.33125 
L 415.832727 434.33125 
L 402.643636 434.33125 
z
" clip-path="url(#p25be0275e7)" style="fill: #1f6feb; opacity: 0.35; stroke: #ffffff; stroke-width: 0.5; stroke-linejoin: miter"/>
   </g>
   <g id="patch_53">
    <path d="M 415.832727 434.33125 
L 429.021818 434.33125 
L 429.021818 434.33125 
L 415.832727 434.33125 
z
" clip-path="url(#p25be0275e7)" style="fill: #1f6feb; opacity: 0.35; stroke: #ffffff; stroke-width: 0.5; stroke-linejoin: miter"/>
   </g>
   <g id="patch_54">
    <path d="M 429.021818 434.33125 
L 442.210909 434.33125 
L 442.210909 434.33125 
L 429.021818 434.33125 
z
" clip-path="url(#p25be0275e7)" style="fill: #1f6feb; opacity: 0.35; stroke: #ffffff; stroke-width: 0.5; stroke-linejoin: miter"/>
   </g>
   <g id="patch_55">
    <path d="M 442.210909 434.33125 
L 455.4 434.33125 
L 455.4 434.33125 
L 442.210909 434.33125 
z
" clip-path="url(#p25be0275e7)" style="fill: #1f6feb; opacity: 0.35; stroke: #ffffff; stroke-width: 0.5; stroke-linejoin: miter"/>
   </g>
   <g id="patch_56">
    <path d="M 455.4 434.33125 
L 468.589091 434.33125 
L 468.589091 434.33125 
L 455.4 434.33125 
z
" clip-path="url(#p25be0275e7)" style="fill: #1f6feb; opacity: 0.35; stroke: #ffffff; stroke-width: 0.5; stroke-linejoin: miter"/>
   </g>
   <g id="patch_57">
    <path d="M 468.589091 434.33125 
L 481.778182 434.33125 
L 481.778182 427.464091 
L 468.589091 427.464091 
z
" clip-path="url(#p25be0275e7)" style="fill: #1f6feb; opacity: 0.35; stroke: #ffffff; stroke-width: 0.5; stroke-linejoin: miter"/>
   </g>
   <g id="patch_58">
    <path d="M 481.778182 434.33125 
L 494.967273 434.33125 
L 494.967273 422.885985 
L 481.778182 422.885985 
z
" clip-path="url(#p25be0275e7)" style="fill: #1f6feb; opacity: 0.35; stroke: #ffffff; stroke-width: 0.5; stroke-linejoin: miter"/>
   </g>
   <g id="patch_59">
    <path d="M 494.967273 434.33125 
L 508.156364 434.33125 
L 508.156364 381.68303 
L 494.967273 381.68303 
z
" clip-path="url(#p25be0275e7)" style="fill: #1f6feb; opacity: 0.35; stroke: #ffffff; stroke-width: 0.5; stroke-linejoin: miter"/>
   </g>
   <g id="patch_60">
    <path d="M 508.156364 434.33125 
L 521.345455 434.33125 
L 521.345455 294.699015 
L 508.156364 294.699015 
z
" clip-path="url(#p25be0275e7)" style="fill: #1f6feb; opacity: 0.35; stroke: #ffffff; stroke-width: 0.5; stroke-linejoin: miter"/>
   </g>
   <g id="patch_61">
    <path d="M 521.345455 434.33125 
L 534.534545 434.33125 
L 534.534545 283.25375 
L 521.345455 283.25375 
z
" clip-path="url(#p25be0275e7)" style="fill: #1f6feb; opacity: 0.35; stroke: #ffffff; stroke-width: 0.5; stroke-linejoin: miter"/>
   </g>
   <g id="patch_62">
    <path d="M 534.534545 434.33125 
L 547.723636 434.33125 
L 547.723636 374.815871 
L 534.534545 374.815871 
z
" clip-path="url(#p25be0275e7)" style="fill: #1f6feb; opacity: 0.35; stroke: #ffffff; stroke-width: 0.5; stroke-linejoin: miter"/>
   </g>
   <g id="patch_63">
    <path d="M 547.723636 434.33125 
L 560.912727 434.33125 
L 560.912727 404.573561 
L 547.723636 404.573561 
z
" clip-path="url(#p25be0275e7)" style="fill: #1f6feb; opacity: 0.35; stroke: #ffffff; stroke-width: 0.5; stroke-linejoin: miter"/>
   </g>
   <g id="patch_64">
    <path d="M 560.912727 434.33125 
L 574.101818 434.33125 
L 574.101818 429.753144 
L 560.912727 429.753144 
z
" clip-path="url(#p25be0275e7)" style="fill: #1f6feb; opacity: 0.35; stroke: #ffffff; stroke-width: 0.5; stroke-linejoin: miter"/>
   </g>
   <g id="patch_65">
    <path d="M 574.101818 434.33125 
L 587.290909 434.33125 
L 587.290909 432.042197 
L 574.101818 432.042197 
z
" clip-path="url(#p25be0275e7)" style="fill: #1f6feb; opacity: 0.35; stroke: #ffffff; stroke-width: 0.5; stroke-linejoin: miter"/>
   </g>
   <g id="patch_66">
    <path d="M 587.290909 434.33125 
L 600.48 434.33125 
L 600.48 434.33125 
L 587.290909 434.33125 
z
" clip-path="url(#p25be0275e7)" style="fill: #1f6feb; opacity: 0.35; stroke: #ffffff; stroke-width: 0.5; stroke-linejoin: miter"/>
   </g>
   <g id="matplotlib.axis_7">
    <g id="xtick_6">
     <g id="line2d_10">
      <g>
       <use xlink:href="#m00267e9a94" x="334.5" y="434.33125" style="fill: #222831; stroke: #222831; stroke-width: 0.8"/>
      </g>
     </g>
     <g id="text_12">
      <!-- -2 -->
      <g style="fill: #222831" transform="translate(329.087812 451.89125) scale(0.12 -0.12)">
       <use xlink:href="#NotoSansCJKjp-Regular-e"/>
       <use xlink:href="#NotoSansCJKjp-Regular-13" transform="translate(34.703125 0)"/>
      </g>
     </g>
    </g>
    <g id="xtick_7">
     <g id="line2d_11">
      <g>
       <use xlink:href="#m00267e9a94" x="394.95" y="434.33125" style="fill: #222831; stroke: #222831; stroke-width: 0.8"/>
      </g>
     </g>
     <g id="text_13">
      <!-- -1 -->
      <g style="fill: #222831" transform="translate(389.537812 451.89125) scale(0.12 -0.12)">
       <use xlink:href="#NotoSansCJKjp-Regular-e"/>
       <use xlink:href="#NotoSansCJKjp-Regular-12" transform="translate(34.703125 0)"/>
      </g>
     </g>
    </g>
    <g id="xtick_8">
     <g id="line2d_12">
      <g>
       <use xlink:href="#m00267e9a94" x="455.4" y="434.33125" style="fill: #222831; stroke: #222831; stroke-width: 0.8"/>
      </g>
     </g>
     <g id="text_14">
      <!-- 0 -->
      <g style="fill: #222831" transform="translate(452.07 451.89125) scale(0.12 -0.12)">
       <use xlink:href="#NotoSansCJKjp-Regular-11"/>
      </g>
     </g>
    </g>
    <g id="xtick_9">
     <g id="line2d_13">
      <g>
       <use xlink:href="#m00267e9a94" x="515.85" y="434.33125" style="fill: #222831; stroke: #222831; stroke-width: 0.8"/>
      </g>
     </g>
     <g id="text_15">
      <!-- 1 -->
      <g style="fill: #222831" transform="translate(512.52 451.89125) scale(0.12 -0.12)">
       <use xlink:href="#NotoSansCJKjp-Regular-12"/>
      </g>
     </g>
    </g>
    <g id="xtick_10">
     <g id="line2d_14">
      <g>
       <use xlink:href="#m00267e9a94" x="576.3" y="434.33125" style="fill: #222831; stroke: #222831; stroke-width: 0.8"/>
      </g>
     </g>
     <g id="text_16">
      <!-- 2 -->
      <g style="fill: #222831" transform="translate(572.97 451.89125) scale(0.12 -0.12)">
       <use xlink:href="#NotoSansCJKjp-Regular-13"/>
      </g>
     </g>
    </g>
    <g id="text_17">
     <!-- 測量值 -->
     <g style="fill: #222831" transform="translate(437.4 467.89125) scale(0.12 -0.12)">
      <use xlink:href="#NotoSansCJKjp-Regular-5cee"/>
      <use xlink:href="#NotoSansCJKjp-Regular-a108" transform="translate(100 0)"/>
      <use xlink:href="#NotoSansCJKjp-Regular-286c" transform="translate(200 0)"/>
     </g>
    </g>
   </g>
   <g id="matplotlib.axis_8"/>
   <g id="line2d_15">
    <path d="M 455.4 434.33125 
L 455.4 275.699875 
" clip-path="url(#p25be0275e7)" style="fill: none; stroke: #d1242f; stroke-width: 2.2; stroke-linecap: square"/>
   </g>
   <g id="line2d_16">
    <path d="M 523.095412 434.33125 
L 523.095412 275.699875 
" clip-path="url(#p25be0275e7)" style="fill: none; stroke-dasharray: 8.14,3.52; stroke-dashoffset: 0; stroke: #1a7f37; stroke-width: 2.2"/>
   </g>
   <g id="patch_67">
    <path d="M 310.32 434.33125 
L 600.48 434.33125 
" style="fill: none; stroke: #222831; stroke-width: 1.1; stroke-linejoin: miter; stroke-linecap: square"/>
   </g>
   <g id="text_18">
    <!-- 系統誤差：整批被推離真值（綠＝量測平均） -->
    <g style="fill: #222831" transform="translate(350.4 269.699875) scale(0.105 -0.105)">
     <defs>
      <path id="NotoSansCJKjp-Regular-9007" d="M 4205 2848 
L 3277 2848 
L 3277 3942 
L 4205 3942 
L 4205 2848 
z
M 2822 4384 
L 2822 2842 
C 2822 1920 2752 640 2086 -269 
C 2202 -320 2394 -435 2477 -518 
C 3078 307 3238 1485 3270 2426 
L 3315 2426 
C 3520 1747 3821 1158 4218 672 
C 3834 314 3392 45 2931 -122 
C 3034 -218 3155 -397 3219 -518 
C 3693 -320 4141 -45 4531 320 
C 4909 -45 5363 -333 5888 -531 
C 5958 -397 6099 -211 6214 -109 
C 5690 58 5235 320 4864 666 
C 5325 1203 5683 1894 5875 2758 
L 5568 2874 
L 5485 2848 
L 4678 2848 
L 4678 3942 
L 5574 3942 
C 5504 3648 5421 3341 5338 3136 
L 5747 3046 
C 5888 3366 6029 3878 6138 4326 
L 5805 4403 
L 5722 4384 
L 4678 4384 
L 4678 5370 
L 4205 5370 
L 4205 4384 
L 2822 4384 
z
M 3763 2426 
L 5306 2426 
C 5133 1882 4864 1402 4538 1011 
C 4205 1414 3942 1888 3763 2426 
z
M 2394 3040 
C 2291 2848 2112 2586 1952 2381 
L 1734 2624 
C 2054 3059 2323 3539 2515 4032 
L 2259 4205 
L 2176 4186 
L 1632 4186 
L 1632 5357 
L 1178 5357 
L 1178 4186 
L 314 4186 
L 314 3750 
L 1933 3750 
C 1542 2931 832 2138 160 1696 
C 237 1613 358 1395 410 1274 
C 672 1466 941 1702 1197 1978 
L 1197 -518 
L 1651 -518 
L 1651 2182 
C 1888 1882 2170 1510 2291 1306 
L 2579 1632 
L 2157 2144 
C 2330 2336 2522 2586 2694 2822 
L 2394 3040 
z
" transform="scale(0.015625)"/>
      <path id="NotoSansCJKjp-Regular-4adf" d="M 4275 2458 
L 4275 1581 
L 3238 1581 
L 3238 2458 
L 4275 2458 
z
M 3245 5389 
C 2982 4454 2534 3571 1971 3008 
C 2074 2906 2234 2701 2298 2605 
C 2464 2784 2624 2989 2771 3213 
L 2771 -506 
L 3238 -506 
L 3238 -179 
L 6144 -179 
L 6144 269 
L 4730 269 
L 4730 1165 
L 5882 1165 
L 5882 1581 
L 4730 1581 
L 4730 2458 
L 5882 2458 
L 5882 2874 
L 4730 2874 
L 4730 3738 
L 6035 3738 
L 6035 4166 
L 4755 4166 
C 4915 4493 5082 4890 5222 5242 
L 4723 5363 
C 4627 5011 4448 4538 4282 4166 
L 3296 4166 
C 3462 4518 3597 4896 3712 5274 
L 3245 5389 
z
M 4275 2874 
L 3238 2874 
L 3238 3738 
L 4275 3738 
L 4275 2874 
z
M 4275 1165 
L 4275 269 
L 3238 269 
L 3238 1165 
L 4275 1165 
z
M 1152 5370 
L 1152 4083 
L 282 4083 
L 282 3635 
L 1152 3635 
L 1152 2240 
L 173 1971 
L 288 1504 
L 1152 1766 
L 1152 70 
C 1152 -19 1120 -51 1037 -51 
C 954 -51 691 -51 397 -45 
C 461 -179 525 -384 544 -506 
C 966 -512 1222 -493 1389 -416 
C 1555 -339 1613 -198 1613 77 
L 1613 1914 
L 2291 2125 
L 2234 2554 
L 1613 2374 
L 1613 3635 
L 2234 3635 
L 2234 4083 
L 1613 4083 
L 1613 5370 
L 1152 5370 
z
" transform="scale(0.015625)"/>
      <path id="NotoSansCJKjp-Regular-a995" d="M 1587 5376 
L 1587 4826 
L 275 4826 
L 275 4429 
L 3373 4429 
L 3373 4826 
L 2054 4826 
L 2054 5376 
L 1587 5376 
z
M 5203 5312 
C 5126 4973 4979 4499 4838 4154 
L 4147 4154 
C 4288 4512 4416 4896 4518 5274 
L 4083 5376 
C 3859 4493 3501 3603 3066 3002 
L 3066 4166 
L 2688 4166 
L 2688 2739 
L 934 2739 
L 934 4166 
L 582 4166 
L 582 2387 
L 1587 2387 
L 1530 1958 
L 403 1958 
L 403 -518 
L 806 -518 
L 806 1587 
L 1466 1587 
C 1414 1286 1350 986 1293 742 
L 960 730 
L 998 378 
L 2342 480 
C 2381 371 2406 269 2426 179 
L 2720 282 
C 2675 557 2496 998 2310 1331 
L 2029 1248 
C 2099 1107 2170 954 2234 800 
L 1645 762 
C 1715 1005 1779 1293 1843 1587 
L 2822 1587 
L 2822 -45 
C 2822 -115 2803 -128 2726 -134 
C 2650 -141 2400 -141 2118 -134 
C 2170 -237 2234 -397 2253 -506 
C 2637 -506 2880 -506 3040 -442 
C 3194 -371 3238 -256 3238 -51 
L 3238 1958 
L 1920 1958 
L 2003 2387 
L 3066 2387 
L 3066 2912 
C 3168 2835 3315 2714 3379 2650 
C 3475 2784 3571 2938 3661 3098 
L 3661 -518 
L 4102 -518 
L 4102 -179 
L 6157 -179 
L 6157 262 
L 5261 262 
L 5261 1152 
L 6035 1152 
L 6035 1568 
L 5261 1568 
L 5261 2445 
L 6035 2445 
L 6035 2854 
L 5261 2854 
L 5261 3718 
L 6093 3718 
L 6093 4154 
L 5267 4154 
C 5402 4467 5542 4858 5664 5203 
L 5203 5312 
z
M 2099 4262 
C 2022 4090 1926 3917 1818 3763 
C 1645 3872 1472 3974 1306 4058 
L 1107 3834 
C 1274 3744 1453 3635 1619 3520 
C 1446 3315 1248 3142 1037 2995 
C 1120 2944 1254 2835 1306 2771 
C 1510 2925 1709 3110 1888 3328 
C 2080 3187 2246 3046 2362 2925 
L 2573 3181 
C 2458 3302 2285 3437 2086 3578 
C 2221 3770 2342 3968 2438 4179 
L 2099 4262 
z
M 4102 2445 
L 4845 2445 
L 4845 1568 
L 4102 1568 
L 4102 2445 
z
M 4102 2854 
L 4102 3718 
L 4845 3718 
L 4845 2854 
L 4102 2854 
z
M 4102 1152 
L 4845 1152 
L 4845 262 
L 4102 262 
L 4102 1152 
z
" transform="scale(0.015625)"/>
      <path id="NotoSansCJKjp-Regular-7997" d="M 2739 2074 
C 3021 1824 3334 1459 3475 1216 
L 3821 1510 
C 3674 1754 3347 2093 3066 2330 
L 2739 2074 
z
M 2362 230 
L 2611 -192 
C 3021 90 3507 435 3962 774 
L 3814 1133 
C 3283 787 2726 435 2362 230 
z
M 1894 1632 
C 2048 1261 2182 774 2214 454 
L 2592 576 
C 2547 890 2413 1370 2246 1734 
L 1894 1632 
z
M 570 1715 
C 493 1158 378 582 166 192 
C 269 154 454 70 538 13 
C 736 422 890 1043 973 1651 
L 570 1715 
z
M 3392 5376 
C 3264 4755 3046 3917 2880 3405 
L 3334 3334 
L 3398 3546 
L 4883 3546 
L 4781 3078 
L 2560 3078 
L 2560 2656 
L 4090 2656 
L 4090 -13 
C 4090 -90 4070 -109 3994 -115 
C 3917 -115 3667 -122 3392 -109 
C 3450 -230 3514 -403 3533 -525 
C 3910 -525 4160 -518 4320 -448 
C 4486 -378 4531 -262 4531 -19 
L 4531 1453 
C 4794 806 5216 166 5914 -218 
C 5978 -96 6125 90 6214 179 
C 5696 422 5325 806 5062 1248 
C 5376 1478 5747 1805 6048 2099 
L 5690 2387 
C 5491 2150 5158 1830 4877 1594 
C 4717 1939 4608 2310 4538 2656 
L 6080 2656 
L 6080 3078 
L 5235 3078 
C 5363 3642 5498 4326 5574 4838 
L 5242 4890 
L 5165 4864 
L 3744 4864 
L 3853 5318 
L 3392 5376 
z
M 3654 4486 
L 5056 4486 
L 4954 3923 
L 3507 3923 
L 3654 4486 
z
M 179 2547 
L 237 2118 
L 1248 2182 
L 1248 -512 
L 1670 -512 
L 1670 2208 
L 2176 2240 
C 2234 2086 2285 1946 2310 1824 
L 2694 2003 
C 2598 2349 2342 2906 2074 3322 
L 1722 3181 
C 1824 3014 1920 2829 2010 2637 
L 1088 2592 
C 1517 3136 2010 3866 2374 4454 
L 1971 4646 
C 1792 4301 1549 3878 1286 3475 
C 1190 3610 1075 3750 941 3898 
C 1178 4256 1459 4781 1677 5216 
L 1254 5376 
C 1120 5018 890 4531 685 4166 
L 486 4346 
L 237 4038 
C 525 3763 845 3398 1037 3104 
C 896 2912 762 2726 634 2566 
L 179 2547 
z
" transform="scale(0.015625)"/>
      <path id="NotoSansCJKjp-Regular-e6c3" d="M 5523 3386 
L 877 3386 
L 877 2944 
L 5523 2944 
L 5523 3386 
z
M 877 1939 
L 877 1498 
L 5523 1498 
L 5523 1939 
L 877 1939 
z
" transform="scale(0.015625)"/>
     </defs>
     <use xlink:href="#NotoSansCJKjp-Regular-784c"/>
     <use xlink:href="#NotoSansCJKjp-Regular-7934" transform="translate(100 0)"/>
     <use xlink:href="#NotoSansCJKjp-Regular-93f0" transform="translate(200 0)"/>
     <use xlink:href="#NotoSansCJKjp-Regular-4110" transform="translate(300 0)"/>
     <use xlink:href="#NotoSansCJKjp-Regular-e6c0" transform="translate(400 0)"/>
     <use xlink:href="#NotoSansCJKjp-Regular-4e1d" transform="translate(500 0)"/>
     <use xlink:href="#NotoSansCJKjp-Regular-4908" transform="translate(600 0)"/>
     <use xlink:href="#NotoSansCJKjp-Regular-9007" transform="translate(700 0)"/>
     <use xlink:href="#NotoSansCJKjp-Regular-4adf" transform="translate(800 0)"/>
     <use xlink:href="#NotoSansCJKjp-Regular-a995" transform="translate(900 0)"/>
     <use xlink:href="#NotoSansCJKjp-Regular-6d20" transform="translate(1000 0)"/>
     <use xlink:href="#NotoSansCJKjp-Regular-286c" transform="translate(1100 0)"/>
     <use xlink:href="#NotoSansCJKjp-Regular-e6ae" transform="translate(1200 0)"/>
     <use xlink:href="#NotoSansCJKjp-Regular-7997" transform="translate(1300 0)"/>
     <use xlink:href="#NotoSansCJKjp-Regular-e6c3" transform="translate(1400 0)"/>
     <use xlink:href="#NotoSansCJKjp-Regular-a108" transform="translate(1500 0)"/>
     <use xlink:href="#NotoSansCJKjp-Regular-5cee" transform="translate(1600 0)"/>
     <use xlink:href="#NotoSansCJKjp-Regular-41d6" transform="translate(1700 0)"/>
     <use xlink:href="#NotoSansCJKjp-Regular-33ef" transform="translate(1800 0)"/>
     <use xlink:href="#NotoSansCJKjp-Regular-e6af" transform="translate(1900 0)"/>
    </g>
   </g>
   <g id="legend_2">
    <g id="line2d_17">
     <path d="M 535.03 287.854875 
L 543.53 287.854875 
L 552.03 287.854875 
" style="fill: none; stroke: #d1242f; stroke-width: 2.2; stroke-linecap: square"/>
    </g>
    <g id="text_19">
     <!-- 真值 -->
     <g style="fill: #222831" transform="translate(558.83 290.829875) scale(0.085 -0.085)">
      <use xlink:href="#NotoSansCJKjp-Regular-6d20"/>
      <use xlink:href="#NotoSansCJKjp-Regular-286c" transform="translate(100 0)"/>
     </g>
    </g>
    <g id="line2d_18">
     <path d="M 535.03 300.604875 
L 543.53 300.604875 
L 552.03 300.604875 
" style="fill: none; stroke-dasharray: 8.14,3.52; stroke-dashoffset: 0; stroke: #1a7f37; stroke-width: 2.2"/>
    </g>
    <g id="text_20">
     <!-- 量測平均 -->
     <g style="fill: #222831" transform="translate(558.83 303.579875) scale(0.085 -0.085)">
      <use xlink:href="#NotoSansCJKjp-Regular-a108"/>
      <use xlink:href="#NotoSansCJKjp-Regular-5cee" transform="translate(100 0)"/>
      <use xlink:href="#NotoSansCJKjp-Regular-41d6" transform="translate(200 0)"/>
      <use xlink:href="#NotoSansCJKjp-Regular-33ef" transform="translate(300 0)"/>
     </g>
    </g>
   </g>
  </g>
  <g id="text_21">
   <!-- 兩種誤差：隨機誤差讓點「散開」，系統誤差讓整批「偏掉」 -->
   <g style="fill: #222831" transform="translate(121.59 19.08) scale(0.135 -0.135)">
    <defs>
     <path id="NotoSansCJKjp-Regular-2a94" d="M 1568 2784 
L 1568 2445 
L 1971 2445 
C 1875 1683 1651 1050 1222 634 
C 1299 589 1440 480 1498 429 
C 1779 723 1990 1114 2138 1581 
C 2221 1171 2381 774 2662 435 
C 2720 506 2854 608 2931 653 
C 2374 1293 2330 2112 2330 2784 
L 1568 2784 
z
M 442 4992 
L 442 4518 
L 2938 4518 
L 2938 3718 
L 672 3718 
L 672 -499 
L 1133 -499 
L 1133 3264 
L 2938 3264 
L 2938 -480 
L 3398 -480 
L 3398 3264 
L 5299 3264 
L 5299 58 
C 5299 -38 5267 -70 5171 -70 
C 5069 -77 4736 -77 4384 -64 
C 4448 -186 4525 -371 4550 -499 
C 5005 -499 5325 -493 5517 -416 
C 5709 -346 5766 -211 5766 51 
L 5766 3718 
L 3398 3718 
L 3398 4518 
L 5990 4518 
L 5990 4992 
L 442 4992 
z
M 3802 2784 
L 3802 2445 
L 4218 2445 
C 4115 1709 3891 1088 3482 678 
C 3571 634 3706 525 3763 467 
C 4038 768 4243 1158 4384 1626 
C 4474 1203 4640 794 4947 454 
C 5011 518 5146 621 5229 659 
C 4640 1293 4589 2112 4589 2784 
L 3802 2784 
z
" transform="scale(0.015625)"/>
     <path id="NotoSansCJKjp-Regular-724a" d="M 2771 3424 
L 2771 1370 
L 4102 1370 
L 4102 909 
L 2701 909 
L 2701 525 
L 4102 525 
L 4102 19 
L 2336 19 
L 2336 -378 
L 6176 -378 
L 6176 19 
L 4563 19 
L 4563 525 
L 5958 525 
L 5958 909 
L 4563 909 
L 4563 1370 
L 5926 1370 
L 5926 3424 
L 4563 3424 
L 4563 3853 
L 6054 3853 
L 6054 4250 
L 4563 4250 
L 4563 4723 
C 5114 4774 5638 4845 6042 4934 
L 5747 5299 
C 5024 5133 3693 5030 2618 4986 
C 2662 4883 2720 4723 2733 4614 
C 3162 4627 3635 4653 4102 4685 
L 4102 4250 
L 2502 4250 
L 2502 3853 
L 4102 3853 
L 4102 3424 
L 2771 3424 
z
M 3200 2240 
L 4102 2240 
L 4102 1728 
L 3200 1728 
L 3200 2240 
z
M 4563 2240 
L 5485 2240 
L 5485 1728 
L 4563 1728 
L 4563 2240 
z
M 3200 3066 
L 4102 3066 
L 4102 2560 
L 3200 2560 
L 3200 3066 
z
M 4563 3066 
L 5485 3066 
L 5485 2560 
L 4563 2560 
L 4563 3066 
z
M 2310 5286 
C 1837 5069 992 4883 275 4762 
C 333 4659 397 4499 416 4397 
C 717 4435 1037 4493 1357 4557 
L 1357 3571 
L 314 3571 
L 314 3123 
L 1293 3123 
C 1037 2387 595 1555 179 1101 
C 262 986 378 794 429 659 
C 755 1056 1094 1690 1357 2336 
L 1357 -499 
L 1830 -499 
L 1830 2259 
C 2048 1990 2304 1645 2413 1466 
L 2701 1843 
C 2573 1990 2016 2566 1830 2726 
L 1830 3123 
L 2630 3123 
L 2630 3571 
L 1830 3571 
L 1830 4666 
C 2131 4736 2413 4819 2643 4915 
L 2310 5286 
z
" transform="scale(0.015625)"/>
     <path id="NotoSansCJKjp-Regular-9600" d="M 3014 4006 
L 3693 4006 
L 3693 3507 
L 3014 3507 
L 3014 4006 
z
M 4781 4006 
L 5478 4006 
L 5478 3507 
L 4781 3507 
L 4781 4006 
z
M 506 3437 
L 506 3059 
L 2150 3059 
L 2150 3437 
L 506 3437 
z
M 550 5152 
L 550 4768 
L 2138 4768 
L 2138 5152 
L 550 5152 
z
M 506 2586 
L 506 2202 
L 2150 2202 
L 2150 2586 
L 506 2586 
z
M 243 4314 
L 243 3910 
L 2317 3910 
L 2317 4314 
L 243 4314 
z
M 3962 5376 
L 3962 4934 
L 2394 4934 
L 2394 4563 
L 6074 4563 
L 6074 4934 
L 4448 4934 
L 4448 5376 
L 3962 5376 
z
M 2598 -77 
L 2720 -461 
C 3283 -365 4006 -230 4710 -102 
L 4685 262 
L 3610 83 
L 3610 813 
C 3808 922 3987 1043 4134 1178 
L 4224 1178 
C 4531 365 5114 -250 5939 -525 
C 5997 -416 6112 -256 6208 -179 
C 5818 -70 5485 122 5210 365 
C 5478 486 5779 646 6022 826 
L 5760 1075 
C 5568 934 5248 749 4986 608 
C 4838 781 4723 973 4627 1178 
L 6118 1178 
L 6118 1530 
L 5133 1530 
L 5133 1888 
L 5875 1888 
L 5875 2208 
L 5133 2208 
L 5133 2547 
L 5997 2547 
L 5997 2867 
L 5133 2867 
L 5133 3219 
L 5869 3219 
L 5869 4301 
L 4416 4301 
L 4416 3219 
L 4698 3219 
L 4698 2867 
L 3738 2867 
L 3738 3219 
L 4070 3219 
L 4070 4301 
L 2643 4301 
L 2643 3219 
L 3296 3219 
L 3296 2867 
L 2515 2867 
L 2515 2547 
L 3296 2547 
L 3296 2208 
L 2630 2208 
L 2630 1888 
L 3296 1888 
L 3296 1530 
L 2317 1530 
L 2317 1178 
L 3578 1178 
C 3200 947 2688 762 2221 640 
C 2298 570 2413 397 2464 320 
C 2701 397 2950 493 3194 602 
L 3194 13 
L 2598 -77 
z
M 3738 2547 
L 4698 2547 
L 4698 2208 
L 3738 2208 
L 3738 2547 
z
M 3738 1888 
L 4698 1888 
L 4698 1530 
L 3738 1530 
L 3738 1888 
z
M 499 1722 
L 499 -442 
L 896 -442 
L 896 -141 
L 2144 -141 
L 2144 1722 
L 499 1722 
z
M 896 1325 
L 1747 1325 
L 1747 256 
L 896 256 
L 896 1325 
z
" transform="scale(0.015625)"/>
     <path id="NotoSansCJKjp-Regular-b7c4" d="M 966 4474 
C 1069 4166 1152 3757 1165 3494 
L 1421 3565 
C 1402 3821 1312 4230 1203 4538 
L 966 4474 
z
M 1178 813 
C 1267 454 1338 0 1331 -307 
L 1664 -262 
C 1664 38 1594 499 1498 851 
L 1178 813 
z
M 1792 851 
C 1939 518 2067 90 2106 -192 
L 2432 -115 
C 2387 166 2246 589 2099 915 
L 1792 851 
z
M 2406 934 
C 2618 634 2848 224 2938 -45 
L 3258 96 
C 3162 365 2931 762 2701 1056 
L 2406 934 
z
M 634 838 
C 582 390 454 -70 205 -333 
L 538 -512 
C 806 -224 915 269 973 742 
L 634 838 
z
M 2272 4557 
C 2214 4262 2086 3808 1997 3533 
L 2202 3456 
C 2317 3706 2445 4122 2554 4454 
L 2272 4557 
z
M 4314 5363 
L 4314 2330 
L 3379 2330 
L 3379 -506 
L 3827 -506 
L 3827 -211 
L 5440 -211 
L 5440 -480 
L 5901 -480 
L 5901 2330 
L 4781 2330 
L 4781 3526 
L 6150 3526 
L 6150 3974 
L 4781 3974 
L 4781 5363 
L 4314 5363 
z
M 3827 237 
L 3827 1894 
L 5440 1894 
L 5440 237 
L 3827 237 
z
M 877 4794 
L 1568 4794 
L 1568 3245 
L 877 3245 
L 877 4794 
z
M 1894 4794 
L 2637 4794 
L 2637 3245 
L 1894 3245 
L 1894 4794 
z
M 448 2451 
L 448 2067 
L 1517 2067 
L 1517 1568 
L 314 1510 
L 333 1088 
C 1075 1133 2138 1203 3155 1274 
L 3168 1658 
L 1946 1594 
L 1946 2067 
L 3072 2067 
L 3072 2451 
L 1946 2451 
L 1946 2893 
L 3027 2893 
L 3027 5146 
L 493 5146 
L 493 2893 
L 1517 2893 
L 1517 2451 
L 448 2451 
z
" transform="scale(0.015625)"/>
     <path id="NotoSansCJKjp-Regular-580" d="M 4160 5414 
L 4160 1274 
L 4634 1274 
L 4634 4973 
L 6182 4973 
L 6182 5414 
L 4160 5414 
z
" transform="scale(0.015625)"/>
     <path id="NotoSansCJKjp-Regular-581" d="M 2240 -550 
L 2240 3590 
L 1766 3590 
L 1766 -109 
L 218 -109 
L 218 -550 
L 2240 -550 
z
" transform="scale(0.015625)"/>
    </defs>
    <use xlink:href="#NotoSansCJKjp-Regular-2a94"/>
    <use xlink:href="#NotoSansCJKjp-Regular-724a" transform="translate(100 0)"/>
    <use xlink:href="#NotoSansCJKjp-Regular-93f0" transform="translate(200 0)"/>
    <use xlink:href="#NotoSansCJKjp-Regular-4110" transform="translate(300 0)"/>
    <use xlink:href="#NotoSansCJKjp-Regular-e6c0" transform="translate(400 0)"/>
    <use xlink:href="#NotoSansCJKjp-Regular-a918" transform="translate(500 0)"/>
    <use xlink:href="#NotoSansCJKjp-Regular-5680" transform="translate(600 0)"/>
    <use xlink:href="#NotoSansCJKjp-Regular-93f0" transform="translate(700 0)"/>
    <use xlink:href="#NotoSansCJKjp-Regular-4110" transform="translate(800 0)"/>
    <use xlink:href="#NotoSansCJKjp-Regular-9600" transform="translate(900 0)"/>
    <use xlink:href="#NotoSansCJKjp-Regular-b7c4" transform="translate(1000 0)"/>
    <use xlink:href="#NotoSansCJKjp-Regular-580" transform="translate(1100 0)"/>
    <use xlink:href="#NotoSansCJKjp-Regular-4e06" transform="translate(1200 0)"/>
    <use xlink:href="#NotoSansCJKjp-Regular-a767" transform="translate(1300 0)"/>
    <use xlink:href="#NotoSansCJKjp-Regular-581" transform="translate(1400 0)"/>
    <use xlink:href="#NotoSansCJKjp-Regular-e6b2" transform="translate(1500 0)"/>
    <use xlink:href="#NotoSansCJKjp-Regular-784c" transform="translate(1600 0)"/>
    <use xlink:href="#NotoSansCJKjp-Regular-7934" transform="translate(1700 0)"/>
    <use xlink:href="#NotoSansCJKjp-Regular-93f0" transform="translate(1800 0)"/>
    <use xlink:href="#NotoSansCJKjp-Regular-4110" transform="translate(1900 0)"/>
    <use xlink:href="#NotoSansCJKjp-Regular-9600" transform="translate(2000 0)"/>
    <use xlink:href="#NotoSansCJKjp-Regular-4e1d" transform="translate(2100 0)"/>
    <use xlink:href="#NotoSansCJKjp-Regular-4908" transform="translate(2200 0)"/>
    <use xlink:href="#NotoSansCJKjp-Regular-580" transform="translate(2300 0)"/>
    <use xlink:href="#NotoSansCJKjp-Regular-288e" transform="translate(2400 0)"/>
    <use xlink:href="#NotoSansCJKjp-Regular-4aa8" transform="translate(2500 0)"/>
    <use xlink:href="#NotoSansCJKjp-Regular-581" transform="translate(2600 0)"/>
   </g>
  </g>
 </g>
 <defs>
  <clipPath id="p010f66593d">
   <rect x="72.964312" y="88.8685" width="158.631375" height="158.631375"/>
  </clipPath>
  <clipPath id="pf794073f1a">
   <rect x="376.084312" y="88.8685" width="158.631375" height="158.631375"/>
  </clipPath>
  <clipPath id="p552d8fc74c">
   <rect x="7.2" y="275.699875" width="290.16" height="158.631375"/>
  </clipPath>
  <clipPath id="p25be0275e7">
   <rect x="310.32" y="275.699875" width="290.16" height="158.631375"/>
  </clipPath>
 </defs>
</svg>
