<?xml version="1.0" encoding="utf-8" standalone="no"?>
<!DOCTYPE svg PUBLIC "-//W3C//DTD SVG 1.1//EN"
  "http://www.w3.org/Graphics/SVG/1.1/DTD/svg11.dtd">
<svg xmlns:xlink="http://www.w3.org/1999/xlink" width="463.764375pt" height="319.12pt" viewBox="0 0 463.764375 319.12" xmlns="http://www.w3.org/2000/svg" version="1.1">
 <metadata>
  <rdf:RDF xmlns:dc="http://purl.org/dc/elements/1.1/" xmlns:cc="http://creativecommons.org/ns#" xmlns:rdf="http://www.w3.org/1999/02/22-rdf-syntax-ns#">
   <cc:Work>
    <dc:type rdf:resource="http://purl.org/dc/dcmitype/StillImage"/>
    <dc:date>2026-06-20T17:59:04.368500</dc:date>
    <dc:format>image/svg+xml</dc:format>
    <dc:creator>
     <cc:Agent>
      <dc:title>Matplotlib v3.11.0, https://matplotlib.org/</dc:title>
     </cc:Agent>
    </dc:creator>
   </cc:Work>
  </rdf:RDF>
 </metadata>
 <defs>
  <style type="text/css">*{stroke-linejoin: round; stroke-linecap: butt}</style>
 </defs>
 <g id="figure_1">
  <g id="patch_1">
   <path d="M 0 319.12 
L 463.764375 319.12 
L 463.764375 0 
L 0 0 
z
" style="fill: #ffffff"/>
  </g>
  <g id="axes_1">
   <g id="patch_2">
    <path d="M 48.644375 275.96 
L 456.564375 275.96 
L 456.564375 24.64 
L 48.644375 24.64 
z
" style="fill: #ffffff"/>
   </g>
   <g id="matplotlib.axis_1">
    <g id="xtick_1">
     <g id="line2d_1">
      <path d="M 80.6381 275.96 
L 80.6381 24.64 
" clip-path="url(#p851bed1b87)" style="fill: none; stroke: #d8dde3; stroke-width: 0.9; stroke-linecap: square"/>
     </g>
     <g id="line2d_2">
      <defs>
       <path id="m97ac326b8f" d="M 0 0 
L 0 3.5 
" style="stroke: #222831; stroke-width: 0.8"/>
      </defs>
      <g>
       <use xlink:href="#m97ac326b8f" x="80.6381" y="275.96" style="fill: #222831; stroke: #222831; stroke-width: 0.8"/>
      </g>
     </g>
     <g id="text_1">
      <!-- 0 -->
      <g style="fill: #222831" transform="translate(77.3081 293.52) scale(0.12 -0.12)">
       <defs>
        <path id="NotoSansCJKjp-Regular-11" d="M 1779 -83 
C 2669 -83 3238 723 3238 2362 
C 3238 3987 2669 4774 1779 4774 
C 883 4774 320 3987 320 2362 
C 320 723 883 -83 1779 -83 
z
M 1779 390 
C 1248 390 883 986 883 2362 
C 883 3731 1248 4314 1779 4314 
C 2310 4314 2675 3731 2675 2362 
C 2675 986 2310 390 1779 390 
z
" transform="scale(0.015625)"/>
       </defs>
       <use xlink:href="#NotoSansCJKjp-Regular-11"/>
      </g>
     </g>
    </g>
    <g id="xtick_2">
     <g id="line2d_3">
      <path d="M 160.622414 275.96 
L 160.622414 24.64 
" clip-path="url(#p851bed1b87)" style="fill: none; stroke: #d8dde3; stroke-width: 0.9; stroke-linecap: square"/>
     </g>
     <g id="line2d_4">
      <g>
       <use xlink:href="#m97ac326b8f" x="160.622414" y="275.96" style="fill: #222831; stroke: #222831; stroke-width: 0.8"/>
      </g>
     </g>
     <g id="text_2">
      <!-- 1 -->
      <g style="fill: #222831" transform="translate(157.292414 293.52) scale(0.12 -0.12)">
       <defs>
        <path id="NotoSansCJKjp-Regular-12" d="M 563 0 
L 3136 0 
L 3136 486 
L 2195 486 
L 2195 4691 
L 1747 4691 
C 1491 4544 1190 4435 774 4358 
L 774 3987 
L 1613 3987 
L 1613 486 
L 563 486 
L 563 0 
z
" transform="scale(0.015625)"/>
       </defs>
       <use xlink:href="#NotoSansCJKjp-Regular-12"/>
      </g>
     </g>
    </g>
    <g id="xtick_3">
     <g id="line2d_5">
      <path d="M 240.606728 275.96 
L 240.606728 24.64 
" clip-path="url(#p851bed1b87)" style="fill: none; stroke: #d8dde3; stroke-width: 0.9; stroke-linecap: square"/>
     </g>
     <g id="line2d_6">
      <g>
       <use xlink:href="#m97ac326b8f" x="240.606728" y="275.96" style="fill: #222831; stroke: #222831; stroke-width: 0.8"/>
      </g>
     </g>
     <g id="text_3">
      <!-- 2 -->
      <g style="fill: #222831" transform="translate(237.276728 293.52) scale(0.12 -0.12)">
       <defs>
        <path id="NotoSansCJKjp-Regular-13" d="M 282 0 
L 3232 0 
L 3232 506 
L 1933 506 
C 1696 506 1408 480 1165 461 
C 2266 1504 3008 2458 3008 3398 
C 3008 4230 2477 4774 1638 4774 
C 1043 4774 634 4506 256 4090 
L 595 3757 
C 858 4070 1184 4301 1568 4301 
C 2150 4301 2432 3910 2432 3373 
C 2432 2566 1754 1632 282 346 
L 282 0 
z
" transform="scale(0.015625)"/>
       </defs>
       <use xlink:href="#NotoSansCJKjp-Regular-13"/>
      </g>
     </g>
    </g>
    <g id="xtick_4">
     <g id="line2d_7">
      <path d="M 320.591042 275.96 
L 320.591042 24.64 
" clip-path="url(#p851bed1b87)" style="fill: none; stroke: #d8dde3; stroke-width: 0.9; stroke-linecap: square"/>
     </g>
     <g id="line2d_8">
      <g>
       <use xlink:href="#m97ac326b8f" x="320.591042" y="275.96" style="fill: #222831; stroke: #222831; stroke-width: 0.8"/>
      </g>
     </g>
     <g id="text_4">
      <!-- 3 -->
      <g style="fill: #222831" transform="translate(317.261042 293.52) scale(0.12 -0.12)">
       <defs>
        <path id="NotoSansCJKjp-Regular-14" d="M 1683 -83 
C 2522 -83 3194 416 3194 1254 
C 3194 1901 2752 2310 2202 2445 
L 2202 2477 
C 2701 2650 3034 3034 3034 3603 
C 3034 4346 2458 4774 1664 4774 
C 1126 4774 710 4538 358 4218 
L 672 3846 
C 941 4115 1267 4301 1645 4301 
C 2138 4301 2438 4006 2438 3558 
C 2438 3053 2112 2662 1139 2662 
L 1139 2214 
C 2227 2214 2598 1843 2598 1274 
C 2598 736 2208 403 1645 403 
C 1114 403 762 659 486 941 
L 186 563 
C 493 224 954 -83 1683 -83 
z
" transform="scale(0.015625)"/>
       </defs>
       <use xlink:href="#NotoSansCJKjp-Regular-14"/>
      </g>
     </g>
    </g>
    <g id="xtick_5">
     <g id="line2d_9">
      <path d="M 400.575355 275.96 
L 400.575355 24.64 
" clip-path="url(#p851bed1b87)" style="fill: none; stroke: #d8dde3; stroke-width: 0.9; stroke-linecap: square"/>
     </g>
     <g id="line2d_10">
      <g>
       <use xlink:href="#m97ac326b8f" x="400.575355" y="275.96" style="fill: #222831; stroke: #222831; stroke-width: 0.8"/>
      </g>
     </g>
     <g id="text_5">
      <!-- 4 -->
      <g style="fill: #222831" transform="translate(397.245355 293.52) scale(0.12 -0.12)">
       <defs>
        <path id="NotoSansCJKjp-Regular-15" d="M 2176 0 
L 2726 0 
L 2726 1293 
L 3354 1293 
L 3354 1760 
L 2726 1760 
L 2726 4691 
L 2080 4691 
L 128 1677 
L 128 1293 
L 2176 1293 
L 2176 0 
z
M 2176 1760 
L 736 1760 
L 1805 3360 
C 1939 3590 2067 3827 2182 4051 
L 2208 4051 
C 2195 3814 2176 3430 2176 3200 
L 2176 1760 
z
" transform="scale(0.015625)"/>
       </defs>
       <use xlink:href="#NotoSansCJKjp-Regular-15"/>
      </g>
     </g>
    </g>
    <g id="text_6">
     <!-- 時間 $t$ (s) -->
     <g style="fill: #222831" transform="translate(228.844375 309.52) scale(0.12 -0.12)">
      <defs>
       <path id="NotoSansCJKjp-Regular-4f87" d="M 2848 1338 
C 3174 998 3520 525 3661 211 
L 4070 461 
C 3923 781 3558 1235 3232 1562 
L 2848 1338 
z
M 4038 5382 
L 4038 4614 
L 2694 4614 
L 2694 4186 
L 4038 4186 
L 4038 3373 
L 2426 3373 
L 2426 2938 
L 4883 2938 
L 4883 2214 
L 2458 2214 
L 2458 1786 
L 4883 1786 
L 4883 64 
C 4883 -32 4851 -58 4749 -58 
C 4646 -64 4282 -64 3891 -51 
C 3962 -186 4032 -378 4051 -506 
C 4570 -506 4890 -499 5094 -422 
C 5293 -352 5357 -218 5357 58 
L 5357 1786 
L 6106 1786 
L 6106 2214 
L 5357 2214 
L 5357 2938 
L 6170 2938 
L 6170 3373 
L 4512 3373 
L 4512 4186 
L 5901 4186 
L 5901 4614 
L 4512 4614 
L 4512 5382 
L 4038 5382 
z
M 1862 2662 
L 1862 1184 
L 934 1184 
L 934 2662 
L 1862 2662 
z
M 1862 3098 
L 934 3098 
L 934 4518 
L 1862 4518 
L 1862 3098 
z
M 486 4960 
L 486 224 
L 934 224 
L 934 749 
L 2317 749 
L 2317 4960 
L 486 4960 
z
" transform="scale(0.015625)"/>
       <path id="NotoSansCJKjp-Regular-a774" d="M 3936 1082 
L 3936 461 
L 2432 461 
L 2432 1082 
L 3936 1082 
z
M 3936 1453 
L 2432 1453 
L 2432 2042 
L 3936 2042 
L 3936 1453 
z
M 1997 2419 
L 1997 -243 
L 2432 -243 
L 2432 83 
L 4384 83 
L 4384 2419 
L 1997 2419 
z
M 2451 3840 
L 2451 3270 
L 1056 3270 
L 1056 3840 
L 2451 3840 
z
M 2451 4192 
L 1056 4192 
L 1056 4730 
L 2451 4730 
L 2451 4192 
z
M 5376 3840 
L 5376 3264 
L 3936 3264 
L 3936 3840 
L 5376 3840 
z
M 5376 4192 
L 3936 4192 
L 3936 4730 
L 5376 4730 
L 5376 4192 
z
M 5619 5101 
L 3482 5101 
L 3482 2893 
L 5376 2893 
L 5376 128 
C 5376 13 5338 -19 5229 -26 
C 5114 -26 4723 -32 4333 -19 
C 4403 -154 4474 -378 4499 -512 
C 5030 -512 5376 -506 5581 -422 
C 5792 -339 5862 -186 5862 122 
L 5862 5101 
L 5619 5101 
z
M 576 5101 
L 576 -518 
L 1056 -518 
L 1056 2906 
L 2899 2906 
L 2899 5101 
L 576 5101 
z
" transform="scale(0.015625)"/>
       <path id="NotoSansCJKjp-Regular-1" transform="scale(0.015625)"/>
       <path id="Cmmi10-30" d="M 397 519 
Q 397 613 416 697 
L 878 2534 
L 206 2534 
Q 141 2534 141 2619 
Q 166 2759 225 2759 
L 934 2759 
L 1191 3803 
Q 1216 3888 1291 3947 
Q 1366 4006 1459 4006 
Q 1541 4006 1595 3957 
Q 1650 3909 1650 3828 
Q 1650 3809 1648 3798 
Q 1647 3788 1644 3775 
L 1388 2759 
L 2047 2759 
Q 2113 2759 2113 2675 
Q 2109 2659 2100 2621 
Q 2091 2584 2075 2559 
Q 2059 2534 2028 2534 
L 1331 2534 
L 872 684 
Q 825 503 825 372 
Q 825 97 1013 97 
Q 1294 97 1511 361 
Q 1728 625 1844 941 
Q 1869 978 1894 978 
L 1972 978 
Q 1997 978 2012 961 
Q 2028 944 2028 922 
Q 2028 909 2022 903 
Q 1881 516 1612 222 
Q 1344 -72 997 -72 
Q 744 -72 570 93 
Q 397 259 397 519 
z
" transform="scale(0.015625)"/>
       <path id="NotoSansCJKjp-Regular-9" d="M 1530 -1254 
L 1888 -1094 
C 1338 -186 1075 902 1075 1990 
C 1075 3072 1338 4154 1888 5069 
L 1530 5235 
C 941 4275 589 3245 589 1990 
C 589 730 941 -301 1530 -1254 
z
" transform="scale(0.015625)"/>
       <path id="NotoSansCJKjp-Regular-54" d="M 1498 -83 
C 2317 -83 2758 384 2758 947 
C 2758 1606 2208 1811 1702 2003 
C 1312 2150 954 2278 954 2605 
C 954 2880 1158 3110 1600 3110 
C 1907 3110 2150 2976 2387 2803 
L 2669 3168 
C 2406 3386 2022 3565 1594 3565 
C 832 3565 397 3130 397 2579 
C 397 1984 922 1754 1408 1574 
C 1792 1434 2202 1267 2202 915 
C 2202 614 1978 371 1517 371 
C 1101 371 794 538 486 787 
L 205 397 
C 531 122 1005 -83 1498 -83 
z
" transform="scale(0.015625)"/>
       <path id="NotoSansCJKjp-Regular-a" d="M 634 -1254 
C 1222 -301 1574 730 1574 1990 
C 1574 3245 1222 4275 634 5235 
L 269 5069 
C 819 4154 1094 3072 1094 1990 
C 1094 902 819 -186 269 -1094 
L 634 -1254 
z
" transform="scale(0.015625)"/>
      </defs>
      <use xlink:href="#NotoSansCJKjp-Regular-4f87" transform="translate(0 0.90625)"/>
      <use xlink:href="#NotoSansCJKjp-Regular-a774" transform="translate(99.999908 0.90625)"/>
      <use xlink:href="#NotoSansCJKjp-Regular-1" transform="translate(199.999817 0.90625)"/>
      <use xlink:href="#Cmmi10-30" transform="translate(222.399796 0.90625)"/>
      <use xlink:href="#NotoSansCJKjp-Regular-1" transform="translate(258.48378 0.90625)"/>
      <use xlink:href="#NotoSansCJKjp-Regular-9" transform="translate(280.883759 0.90625)"/>
      <use xlink:href="#NotoSansCJKjp-Regular-54" transform="translate(314.683731 0.90625)"/>
      <use xlink:href="#NotoSansCJKjp-Regular-a" transform="translate(361.483688 0.90625)"/>
     </g>
    </g>
   </g>
   <g id="matplotlib.axis_2">
    <g id="ytick_1">
     <g id="line2d_11">
      <path d="M 48.644375 241.465098 
L 456.564375 241.465098 
" clip-path="url(#p851bed1b87)" style="fill: none; stroke: #d8dde3; stroke-width: 0.9; stroke-linecap: square"/>
     </g>
     <g id="line2d_12">
      <defs>
       <path id="m17a8efd7f3" d="M 0 0 
L -3.5 0 
" style="stroke: #222831; stroke-width: 0.8"/>
      </defs>
      <g>
       <use xlink:href="#m17a8efd7f3" x="48.644375" y="241.465098" style="fill: #222831; stroke: #222831; stroke-width: 0.8"/>
      </g>
     </g>
     <g id="text_7">
      <!-- -20 -->
      <g style="fill: #222831" transform="translate(24.16 246.745098) scale(0.12 -0.12)">
       <defs>
        <path id="NotoSansCJKjp-Regular-e" d="M 294 1568 
L 1933 1568 
L 1933 2016 
L 294 2016 
L 294 1568 
z
" transform="scale(0.015625)"/>
       </defs>
       <use xlink:href="#NotoSansCJKjp-Regular-e"/>
       <use xlink:href="#NotoSansCJKjp-Regular-13" transform="translate(34.703125 0)"/>
       <use xlink:href="#NotoSansCJKjp-Regular-11" transform="translate(90.203125 0)"/>
      </g>
     </g>
    </g>
    <g id="ytick_2">
     <g id="line2d_13">
      <path d="M 48.644375 192.186667 
L 456.564375 192.186667 
" clip-path="url(#p851bed1b87)" style="fill: none; stroke: #d8dde3; stroke-width: 0.9; stroke-linecap: square"/>
     </g>
     <g id="line2d_14">
      <g>
       <use xlink:href="#m17a8efd7f3" x="48.644375" y="192.186667" style="fill: #222831; stroke: #222831; stroke-width: 0.8"/>
      </g>
     </g>
     <g id="text_8">
      <!-- -10 -->
      <g style="fill: #222831" transform="translate(24.16 197.466667) scale(0.12 -0.12)">
       <use xlink:href="#NotoSansCJKjp-Regular-e"/>
       <use xlink:href="#NotoSansCJKjp-Regular-12" transform="translate(34.703125 0)"/>
       <use xlink:href="#NotoSansCJKjp-Regular-11" transform="translate(90.203125 0)"/>
      </g>
     </g>
    </g>
    <g id="ytick_3">
     <g id="line2d_15">
      <path d="M 48.644375 142.908235 
L 456.564375 142.908235 
" clip-path="url(#p851bed1b87)" style="fill: none; stroke: #d8dde3; stroke-width: 0.9; stroke-linecap: square"/>
     </g>
     <g id="line2d_16">
      <g>
       <use xlink:href="#m17a8efd7f3" x="48.644375" y="142.908235" style="fill: #222831; stroke: #222831; stroke-width: 0.8"/>
      </g>
     </g>
     <g id="text_9">
      <!-- 0 -->
      <g style="fill: #222831" transform="translate(34.984375 148.188235) scale(0.12 -0.12)">
       <use xlink:href="#NotoSansCJKjp-Regular-11"/>
      </g>
     </g>
    </g>
    <g id="ytick_4">
     <g id="line2d_17">
      <path d="M 48.644375 93.629804 
L 456.564375 93.629804 
" clip-path="url(#p851bed1b87)" style="fill: none; stroke: #d8dde3; stroke-width: 0.9; stroke-linecap: square"/>
     </g>
     <g id="line2d_18">
      <g>
       <use xlink:href="#m17a8efd7f3" x="48.644375" y="93.629804" style="fill: #222831; stroke: #222831; stroke-width: 0.8"/>
      </g>
     </g>
     <g id="text_10">
      <!-- 10 -->
      <g style="fill: #222831" transform="translate(28.324375 98.909804) scale(0.12 -0.12)">
       <use xlink:href="#NotoSansCJKjp-Regular-12"/>
       <use xlink:href="#NotoSansCJKjp-Regular-11" transform="translate(55.5 0)"/>
      </g>
     </g>
    </g>
    <g id="ytick_5">
     <g id="line2d_19">
      <path d="M 48.644375 44.351373 
L 456.564375 44.351373 
" clip-path="url(#p851bed1b87)" style="fill: none; stroke: #d8dde3; stroke-width: 0.9; stroke-linecap: square"/>
     </g>
     <g id="line2d_20">
      <g>
       <use xlink:href="#m17a8efd7f3" x="48.644375" y="44.351373" style="fill: #222831; stroke: #222831; stroke-width: 0.8"/>
      </g>
     </g>
     <g id="text_11">
      <!-- 20 -->
      <g style="fill: #222831" transform="translate(28.324375 49.631373) scale(0.12 -0.12)">
       <use xlink:href="#NotoSansCJKjp-Regular-13"/>
       <use xlink:href="#NotoSansCJKjp-Regular-11" transform="translate(55.5 0)"/>
      </g>
     </g>
    </g>
    <g id="text_12">
     <!-- 速度 $v$ (m/s) -->
     <g style="fill: #222831" transform="translate(17.76 182.7) rotate(-90) scale(0.12 -0.12)">
      <defs>
       <path id="NotoSansCJKjp-Regular-9d6d" d="M 384 4934 
C 794 4646 1274 4218 1478 3904 
L 1862 4224 
C 1632 4531 1152 4947 730 5222 
L 384 4934 
z
M 1677 2848 
L 314 2848 
L 314 2400 
L 1210 2400 
L 1210 768 
C 890 499 518 230 230 32 
L 480 -461 
C 826 -173 1152 102 1459 378 
C 1869 -128 2445 -358 3283 -390 
C 3994 -416 5318 -403 6016 -371 
C 6035 -224 6118 6 6176 115 
C 5414 64 3981 45 3283 77 
C 2541 102 1978 326 1677 794 
L 1677 2848 
z
M 2752 3379 
L 3757 3379 
L 3757 2560 
L 2752 2560 
L 2752 3379 
z
M 4224 3379 
L 5286 3379 
L 5286 2560 
L 4224 2560 
L 4224 3379 
z
M 3757 5370 
L 3757 4710 
L 2035 4710 
L 2035 4294 
L 3757 4294 
L 3757 3763 
L 2304 3763 
L 2304 2176 
L 3501 2176 
C 3130 1638 2502 1120 1920 870 
C 2022 781 2163 621 2227 506 
C 2778 787 3360 1306 3757 1875 
L 3757 314 
L 4224 314 
L 4224 1850 
C 4640 1318 5235 800 5754 525 
C 5824 640 5971 806 6080 896 
C 5510 1146 4845 1658 4442 2176 
L 5754 2176 
L 5754 3763 
L 4224 3763 
L 4224 4294 
L 6048 4294 
L 6048 4710 
L 4224 4710 
L 4224 5370 
L 3757 5370 
z
" transform="scale(0.015625)"/>
       <path id="NotoSansCJKjp-Regular-4231" d="M 2470 4141 
L 2470 3584 
L 1440 3584 
L 1440 3187 
L 2470 3187 
L 2470 2125 
L 4960 2125 
L 4960 3187 
L 5997 3187 
L 5997 3584 
L 4960 3584 
L 4960 4141 
L 4486 4141 
L 4486 3584 
L 2931 3584 
L 2931 4141 
L 2470 4141 
z
M 4486 3187 
L 4486 2509 
L 2931 2509 
L 2931 3187 
L 4486 3187 
z
M 4851 1318 
C 4582 986 4211 717 3770 506 
C 3334 723 2970 992 2720 1318 
L 4851 1318 
z
M 1530 1715 
L 1530 1318 
L 2502 1318 
L 2259 1222 
C 2515 858 2861 550 3270 301 
C 2662 90 1978 -38 1280 -109 
C 1357 -211 1453 -397 1485 -512 
C 2291 -416 3072 -243 3757 45 
C 4365 -237 5088 -422 5869 -525 
C 5933 -403 6048 -211 6150 -109 
C 5466 -38 4819 96 4269 294 
C 4813 608 5261 1024 5549 1574 
L 5248 1734 
L 5165 1715 
L 1530 1715 
z
M 774 4742 
L 774 2893 
C 774 1965 730 659 198 -256 
C 314 -307 512 -435 595 -518 
C 1152 448 1235 1901 1235 2893 
L 1235 4307 
L 6035 4307 
L 6035 4742 
L 3635 4742 
L 3635 5376 
L 3142 5376 
L 3142 4742 
L 774 4742 
z
" transform="scale(0.015625)"/>
       <path id="Cmmi10-38" d="M 684 722 
Q 684 866 718 1037 
Q 753 1209 787 1320 
Q 822 1431 944 1753 
Q 1066 2075 1069 2088 
Q 1153 2322 1153 2472 
Q 1153 2663 1013 2663 
Q 759 2663 595 2402 
Q 431 2141 353 1819 
Q 341 1778 300 1778 
L 225 1778 
Q 172 1778 172 1838 
L 172 1856 
Q 275 2238 487 2533 
Q 700 2828 1025 2828 
Q 1253 2828 1411 2678 
Q 1569 2528 1569 2297 
Q 1569 2178 1516 2047 
Q 1391 1722 1319 1526 
Q 1247 1331 1186 1089 
Q 1125 847 1125 641 
Q 1125 400 1236 248 
Q 1347 97 1581 97 
Q 2025 97 2381 781 
Q 2494 1003 2594 1303 
Q 2694 1603 2694 1791 
Q 2694 1984 2631 2092 
Q 2569 2200 2469 2317 
Q 2369 2434 2369 2503 
Q 2369 2628 2472 2731 
Q 2575 2834 2700 2834 
Q 2853 2834 2920 2693 
Q 2988 2553 2988 2375 
Q 2988 2163 2927 1869 
Q 2866 1575 2758 1259 
Q 2650 944 2559 763 
Q 2138 -72 1575 -72 
Q 1172 -72 928 129 
Q 684 331 684 722 
z
" transform="scale(0.015625)"/>
       <path id="NotoSansCJKjp-Regular-4e" d="M 589 0 
L 1178 0 
L 1178 2522 
C 1491 2880 1786 3053 2048 3053 
C 2490 3053 2694 2778 2694 2125 
L 2694 0 
L 3277 0 
L 3277 2522 
C 3603 2880 3885 3053 4154 3053 
C 4595 3053 4800 2778 4800 2125 
L 4800 0 
L 5382 0 
L 5382 2202 
C 5382 3085 5043 3565 4333 3565 
C 3904 3565 3546 3290 3181 2899 
C 3040 3309 2758 3565 2221 3565 
C 1805 3565 1446 3302 1139 2970 
L 1126 2970 
L 1069 3475 
L 589 3475 
L 589 0 
z
" transform="scale(0.015625)"/>
       <path id="NotoSansCJKjp-Regular-10" d="M 70 -1146 
L 499 -1146 
L 2413 5082 
L 1990 5082 
L 70 -1146 
z
" transform="scale(0.015625)"/>
      </defs>
      <use xlink:href="#NotoSansCJKjp-Regular-9d6d"/>
      <use xlink:href="#NotoSansCJKjp-Regular-4231" transform="translate(99.999908 0)"/>
      <use xlink:href="#NotoSansCJKjp-Regular-1" transform="translate(199.999817 0)"/>
      <use xlink:href="#Cmmi10-38" transform="translate(222.399796 0)"/>
      <use xlink:href="#NotoSansCJKjp-Regular-1" transform="translate(270.788467 0)"/>
      <use xlink:href="#NotoSansCJKjp-Regular-9" transform="translate(293.188446 0)"/>
      <use xlink:href="#NotoSansCJKjp-Regular-4e" transform="translate(326.988419 0)"/>
      <use xlink:href="#NotoSansCJKjp-Regular-10" transform="translate(419.588333 0)"/>
      <use xlink:href="#NotoSansCJKjp-Regular-54" transform="translate(458.7883 0)"/>
      <use xlink:href="#NotoSansCJKjp-Regular-a" transform="translate(505.588257 0)"/>
     </g>
    </g>
   </g>
   <g id="FillBetweenPolyCollection_1">
    <defs>
     <path id="m8ccf214ae3" d="M 80.6381 -274.768627 
L 80.6381 -176.211765 
L 82.245825 -176.211765 
L 83.85355 -176.211765 
L 85.461275 -176.211765 
L 87.069 -176.211765 
L 88.676725 -176.211765 
L 90.28445 -176.211765 
L 91.892175 -176.211765 
L 93.4999 -176.211765 
L 95.107625 -176.211765 
L 96.715349 -176.211765 
L 98.323074 -176.211765 
L 99.930799 -176.211765 
L 101.538524 -176.211765 
L 103.146249 -176.211765 
L 104.753974 -176.211765 
L 106.361699 -176.211765 
L 107.969424 -176.211765 
L 109.577149 -176.211765 
L 111.184874 -176.211765 
L 112.792598 -176.211765 
L 114.400323 -176.211765 
L 116.008048 -176.211765 
L 117.615773 -176.211765 
L 119.223498 -176.211765 
L 120.831223 -176.211765 
L 122.438948 -176.211765 
L 124.046673 -176.211765 
L 125.654398 -176.211765 
L 127.262123 -176.211765 
L 128.869847 -176.211765 
L 130.477572 -176.211765 
L 132.085297 -176.211765 
L 133.693022 -176.211765 
L 135.300747 -176.211765 
L 136.908472 -176.211765 
L 138.516197 -176.211765 
L 140.123922 -176.211765 
L 141.731647 -176.211765 
L 143.339372 -176.211765 
L 144.947096 -176.211765 
L 146.554821 -176.211765 
L 148.162546 -176.211765 
L 149.770271 -176.211765 
L 151.377996 -176.211765 
L 152.985721 -176.211765 
L 154.593446 -176.211765 
L 156.201171 -176.211765 
L 157.808896 -176.211765 
L 159.416621 -176.211765 
L 161.024345 -176.211765 
L 162.63207 -176.211765 
L 164.239795 -176.211765 
L 165.84752 -176.211765 
L 167.455245 -176.211765 
L 169.06297 -176.211765 
L 170.670695 -176.211765 
L 172.27842 -176.211765 
L 173.886145 -176.211765 
L 175.49387 -176.211765 
L 177.101594 -176.211765 
L 178.709319 -176.211765 
L 180.317044 -176.211765 
L 181.924769 -176.211765 
L 183.532494 -176.211765 
L 185.140219 -176.211765 
L 186.747944 -176.211765 
L 188.355669 -176.211765 
L 189.963394 -176.211765 
L 191.571119 -176.211765 
L 193.178843 -176.211765 
L 194.786568 -176.211765 
L 196.394293 -176.211765 
L 198.002018 -176.211765 
L 199.609743 -176.211765 
L 201.217468 -176.211765 
L 202.825193 -176.211765 
L 204.432918 -176.211765 
L 206.040643 -176.211765 
L 207.648368 -176.211765 
L 209.256092 -176.211765 
L 210.863817 -176.211765 
L 212.471542 -176.211765 
L 214.079267 -176.211765 
L 215.686992 -176.211765 
L 217.294717 -176.211765 
L 218.902442 -176.211765 
L 220.510167 -176.211765 
L 222.117892 -176.211765 
L 223.725617 -176.211765 
L 225.333341 -176.211765 
L 226.941066 -176.211765 
L 228.548791 -176.211765 
L 230.156516 -176.211765 
L 231.764241 -176.211765 
L 233.371966 -176.211765 
L 234.979691 -176.211765 
L 236.587416 -176.211765 
L 238.195141 -176.211765 
L 239.802865 -176.211765 
L 239.802865 -176.707025 
L 239.802865 -176.707025 
L 238.195141 -177.697547 
L 236.587416 -178.688068 
L 234.979691 -179.678589 
L 233.371966 -180.66911 
L 231.764241 -181.659631 
L 230.156516 -182.650153 
L 228.548791 -183.640674 
L 226.941066 -184.631195 
L 225.333341 -185.621716 
L 223.725617 -186.612238 
L 222.117892 -187.602759 
L 220.510167 -188.59328 
L 218.902442 -189.583801 
L 217.294717 -190.574323 
L 215.686992 -191.564844 
L 214.079267 -192.555365 
L 212.471542 -193.545886 
L 210.863817 -194.536408 
L 209.256092 -195.526929 
L 207.648368 -196.51745 
L 206.040643 -197.507971 
L 204.432918 -198.498492 
L 202.825193 -199.489014 
L 201.217468 -200.479535 
L 199.609743 -201.470056 
L 198.002018 -202.460577 
L 196.394293 -203.451099 
L 194.786568 -204.44162 
L 193.178843 -205.432141 
L 191.571119 -206.422662 
L 189.963394 -207.413184 
L 188.355669 -208.403705 
L 186.747944 -209.394226 
L 185.140219 -210.384747 
L 183.532494 -211.375268 
L 181.924769 -212.36579 
L 180.317044 -213.356311 
L 178.709319 -214.346832 
L 177.101594 -215.337353 
L 175.49387 -216.327875 
L 173.886145 -217.318396 
L 172.27842 -218.308917 
L 170.670695 -219.299438 
L 169.06297 -220.28996 
L 167.455245 -221.280481 
L 165.84752 -222.271002 
L 164.239795 -223.261523 
L 162.63207 -224.252045 
L 161.024345 -225.242566 
L 159.416621 -226.233087 
L 157.808896 -227.223608 
L 156.201171 -228.214129 
L 154.593446 -229.204651 
L 152.985721 -230.195172 
L 151.377996 -231.185693 
L 149.770271 -232.176214 
L 148.162546 -233.166736 
L 146.554821 -234.157257 
L 144.947096 -235.147778 
L 143.339372 -236.138299 
L 141.731647 -237.128821 
L 140.123922 -238.119342 
L 138.516197 -239.109863 
L 136.908472 -240.100384 
L 135.300747 -241.090906 
L 133.693022 -242.081427 
L 132.085297 -243.071948 
L 130.477572 -244.062469 
L 128.869847 -245.05299 
L 127.262123 -246.043512 
L 125.654398 -247.034033 
L 124.046673 -248.024554 
L 122.438948 -249.015075 
L 120.831223 -250.005597 
L 119.223498 -250.996118 
L 117.615773 -251.986639 
L 116.008048 -252.97716 
L 114.400323 -253.967682 
L 112.792598 -254.958203 
L 111.184874 -255.948724 
L 109.577149 -256.939245 
L 107.969424 -257.929766 
L 106.361699 -258.920288 
L 104.753974 -259.910809 
L 103.146249 -260.90133 
L 101.538524 -261.891851 
L 99.930799 -262.882373 
L 98.323074 -263.872894 
L 96.715349 -264.863415 
L 95.107625 -265.853936 
L 93.4999 -266.844458 
L 91.892175 -267.834979 
L 90.28445 -268.8255 
L 88.676725 -269.816021 
L 87.069 -270.806543 
L 85.461275 -271.797064 
L 83.85355 -272.787585 
L 82.245825 -273.778106 
L 80.6381 -274.768627 
z
" style="stroke: #1f6feb; stroke-opacity: 0.16"/>
    </defs>
    <g clip-path="url(#p851bed1b87)">
     <use xlink:href="#m8ccf214ae3" x="0" y="319.12" style="fill: #1f6feb; fill-opacity: 0.16; stroke: #1f6feb; stroke-opacity: 0.16"/>
    </g>
   </g>
   <g id="FillBetweenPolyCollection_2">
    <defs>
     <path id="m6e79da6342" d="M 241.41059 -175.716504 
L 241.41059 -176.211765 
L 243.018315 -176.211765 
L 244.62604 -176.211765 
L 246.233765 -176.211765 
L 247.84149 -176.211765 
L 249.449215 -176.211765 
L 251.05694 -176.211765 
L 252.664665 -176.211765 
L 254.27239 -176.211765 
L 255.880114 -176.211765 
L 257.487839 -176.211765 
L 259.095564 -176.211765 
L 260.703289 -176.211765 
L 262.311014 -176.211765 
L 263.918739 -176.211765 
L 265.526464 -176.211765 
L 267.134189 -176.211765 
L 268.741914 -176.211765 
L 270.349639 -176.211765 
L 271.957363 -176.211765 
L 273.565088 -176.211765 
L 275.172813 -176.211765 
L 276.780538 -176.211765 
L 278.388263 -176.211765 
L 279.995988 -176.211765 
L 281.603713 -176.211765 
L 283.211438 -176.211765 
L 284.819163 -176.211765 
L 286.426888 -176.211765 
L 288.034612 -176.211765 
L 289.642337 -176.211765 
L 291.250062 -176.211765 
L 292.857787 -176.211765 
L 294.465512 -176.211765 
L 296.073237 -176.211765 
L 297.680962 -176.211765 
L 299.288687 -176.211765 
L 300.896412 -176.211765 
L 302.504137 -176.211765 
L 304.111861 -176.211765 
L 305.719586 -176.211765 
L 307.327311 -176.211765 
L 308.935036 -176.211765 
L 310.542761 -176.211765 
L 312.150486 -176.211765 
L 313.758211 -176.211765 
L 315.365936 -176.211765 
L 316.973661 -176.211765 
L 318.581386 -176.211765 
L 320.18911 -176.211765 
L 321.796835 -176.211765 
L 323.40456 -176.211765 
L 325.012285 -176.211765 
L 326.62001 -176.211765 
L 328.227735 -176.211765 
L 329.83546 -176.211765 
L 331.443185 -176.211765 
L 333.05091 -176.211765 
L 334.658635 -176.211765 
L 336.266359 -176.211765 
L 337.874084 -176.211765 
L 339.481809 -176.211765 
L 341.089534 -176.211765 
L 342.697259 -176.211765 
L 344.304984 -176.211765 
L 345.912709 -176.211765 
L 347.520434 -176.211765 
L 349.128159 -176.211765 
L 350.735884 -176.211765 
L 352.343608 -176.211765 
L 353.951333 -176.211765 
L 355.559058 -176.211765 
L 357.166783 -176.211765 
L 358.774508 -176.211765 
L 360.382233 -176.211765 
L 361.989958 -176.211765 
L 363.597683 -176.211765 
L 365.205408 -176.211765 
L 366.813133 -176.211765 
L 368.420857 -176.211765 
L 370.028582 -176.211765 
L 371.636307 -176.211765 
L 373.244032 -176.211765 
L 374.851757 -176.211765 
L 376.459482 -176.211765 
L 378.067207 -176.211765 
L 379.674932 -176.211765 
L 381.282657 -176.211765 
L 382.890382 -176.211765 
L 384.498106 -176.211765 
L 386.105831 -176.211765 
L 387.713556 -176.211765 
L 389.321281 -176.211765 
L 390.929006 -176.211765 
L 392.536731 -176.211765 
L 394.144456 -176.211765 
L 395.752181 -176.211765 
L 397.359906 -176.211765 
L 398.96763 -176.211765 
L 400.575355 -176.211765 
L 400.575355 -77.654902 
L 400.575355 -77.654902 
L 398.96763 -78.645423 
L 397.359906 -79.635944 
L 395.752181 -80.626466 
L 394.144456 -81.616987 
L 392.536731 -82.607508 
L 390.929006 -83.598029 
L 389.321281 -84.588551 
L 387.713556 -85.579072 
L 386.105831 -86.569593 
L 384.498106 -87.560114 
L 382.890382 -88.550636 
L 381.282657 -89.541157 
L 379.674932 -90.531678 
L 378.067207 -91.522199 
L 376.459482 -92.51272 
L 374.851757 -93.503242 
L 373.244032 -94.493763 
L 371.636307 -95.484284 
L 370.028582 -96.474805 
L 368.420857 -97.465327 
L 366.813133 -98.455848 
L 365.205408 -99.446369 
L 363.597683 -100.43689 
L 361.989958 -101.427412 
L 360.382233 -102.417933 
L 358.774508 -103.408454 
L 357.166783 -104.398975 
L 355.559058 -105.389497 
L 353.951333 -106.380018 
L 352.343608 -107.370539 
L 350.735884 -108.36106 
L 349.128159 -109.351581 
L 347.520434 -110.342103 
L 345.912709 -111.332624 
L 344.304984 -112.323145 
L 342.697259 -113.313666 
L 341.089534 -114.304188 
L 339.481809 -115.294709 
L 337.874084 -116.28523 
L 336.266359 -117.275751 
L 334.658635 -118.266273 
L 333.05091 -119.256794 
L 331.443185 -120.247315 
L 329.83546 -121.237836 
L 328.227735 -122.228357 
L 326.62001 -123.218879 
L 325.012285 -124.2094 
L 323.40456 -125.199921 
L 321.796835 -126.190442 
L 320.18911 -127.180964 
L 318.581386 -128.171485 
L 316.973661 -129.162006 
L 315.365936 -130.152527 
L 313.758211 -131.143049 
L 312.150486 -132.13357 
L 310.542761 -133.124091 
L 308.935036 -134.114612 
L 307.327311 -135.105134 
L 305.719586 -136.095655 
L 304.111861 -137.086176 
L 302.504137 -138.076697 
L 300.896412 -139.067218 
L 299.288687 -140.05774 
L 297.680962 -141.048261 
L 296.073237 -142.038782 
L 294.465512 -143.029303 
L 292.857787 -144.019825 
L 291.250062 -145.010346 
L 289.642337 -146.000867 
L 288.034612 -146.991388 
L 286.426888 -147.98191 
L 284.819163 -148.972431 
L 283.211438 -149.962952 
L 281.603713 -150.953473 
L 279.995988 -151.943994 
L 278.388263 -152.934516 
L 276.780538 -153.925037 
L 275.172813 -154.915558 
L 273.565088 -155.906079 
L 271.957363 -156.896601 
L 270.349639 -157.887122 
L 268.741914 -158.877643 
L 267.134189 -159.868164 
L 265.526464 -160.858686 
L 263.918739 -161.849207 
L 262.311014 -162.839728 
L 260.703289 -163.830249 
L 259.095564 -164.820771 
L 257.487839 -165.811292 
L 255.880114 -166.801813 
L 254.27239 -167.792334 
L 252.664665 -168.782855 
L 251.05694 -169.773377 
L 249.449215 -170.763898 
L 247.84149 -171.754419 
L 246.233765 -172.74494 
L 244.62604 -173.735462 
L 243.018315 -174.725983 
L 241.41059 -175.716504 
z
" style="stroke: #d1242f; stroke-opacity: 0.16"/>
    </defs>
    <g clip-path="url(#p851bed1b87)">
     <use xlink:href="#m6e79da6342" x="0" y="319.12" style="fill: #d1242f; fill-opacity: 0.16; stroke: #d1242f; stroke-opacity: 0.16"/>
    </g>
   </g>
   <g id="line2d_21">
    <path d="M 48.644375 142.908235 
L 456.564375 142.908235 
" clip-path="url(#p851bed1b87)" style="fill: none; stroke: #222831; stroke-linecap: square"/>
   </g>
   <g id="patch_3">
    <path d="M 48.644375 275.96 
L 48.644375 24.64 
" style="fill: none; stroke: #222831; stroke-width: 1.1; stroke-linejoin: miter; stroke-linecap: square"/>
   </g>
   <g id="patch_4">
    <path d="M 48.644375 275.96 
L 456.564375 275.96 
" style="fill: none; stroke: #222831; stroke-width: 1.1; stroke-linejoin: miter; stroke-linecap: square"/>
   </g>
   <g id="patch_5">
    <path d="M 287.312729 110.936838 
Q 264.785009 126.357612 243.456651 140.957394 
" style="fill: none; stroke: #bf8700; stroke-width: 1.3; stroke-linecap: round"/>
    <path d="M 248.330164 140.287419 
L 243.456651 140.957394 
L 245.844779 136.656598 
" style="fill: none; stroke: #bf8700; stroke-width: 1.3; stroke-linecap: round"/>
   </g>
   <g id="text_13">
    <!-- 最高點 v=0 -->
    <g style="fill: #bf8700" transform="translate(252.604375 94.058725) scale(0.11 -0.11)">
     <defs>
      <path id="NotoSansCJKjp-Regular-50c3" d="M 1600 4064 
L 4813 4064 
L 4813 3610 
L 1600 3610 
L 1600 4064 
z
M 1600 4832 
L 4813 4832 
L 4813 4384 
L 1600 4384 
L 1600 4832 
z
M 1139 5171 
L 1139 3270 
L 5293 3270 
L 5293 5171 
L 1139 5171 
z
M 2534 2509 
L 2534 2074 
L 1370 2074 
L 1370 2509 
L 2534 2509 
z
M 314 282 
L 358 -147 
L 2534 115 
L 2534 -512 
L 2995 -512 
L 2995 -109 
C 3091 -198 3200 -365 3251 -474 
C 3699 -320 4141 -96 4531 205 
C 4909 -115 5363 -358 5875 -506 
C 5939 -397 6061 -218 6163 -134 
C 5664 -6 5229 205 4858 486 
C 5280 883 5613 1389 5811 2010 
L 5517 2131 
L 5434 2112 
L 3219 2112 
L 3219 1722 
L 3776 1722 
L 3501 1638 
C 3674 1216 3910 832 4205 512 
C 3840 237 3418 32 2995 -90 
L 2995 2509 
L 6016 2509 
L 6016 2912 
L 371 2912 
L 371 2509 
L 928 2509 
L 928 339 
L 314 282 
z
M 3898 1722 
L 5222 1722 
C 5056 1363 4813 1050 4531 781 
C 4262 1050 4045 1370 3898 1722 
z
M 2534 1709 
L 2534 1261 
L 1370 1261 
L 1370 1709 
L 2534 1709 
z
M 2534 902 
L 2534 518 
L 1370 384 
L 1370 902 
L 2534 902 
z
" transform="scale(0.015625)"/>
      <path id="NotoSansCJKjp-Regular-b0d5" d="M 1939 3635 
L 4448 3635 
L 4448 3021 
L 1939 3021 
L 1939 3635 
z
M 1478 3987 
L 1478 2662 
L 4928 2662 
L 4928 3987 
L 1478 3987 
z
M 2918 5382 
L 2918 4768 
L 416 4768 
L 416 4346 
L 5978 4346 
L 5978 4768 
L 3411 4768 
L 3411 5382 
L 2918 5382 
z
M 704 2266 
L 704 -512 
L 1171 -512 
L 1171 1856 
L 5261 1856 
L 5261 70 
C 5261 -19 5235 -45 5120 -51 
C 5018 -58 4653 -58 4237 -45 
C 4301 -179 4371 -365 4390 -499 
C 4922 -499 5267 -499 5478 -422 
C 5683 -346 5741 -205 5741 64 
L 5741 2266 
L 704 2266 
z
M 2406 1088 
L 3994 1088 
L 3994 435 
L 2406 435 
L 2406 1088 
z
M 1984 1440 
L 1984 -243 
L 2406 -243 
L 2406 83 
L 4422 83 
L 4422 1440 
L 1984 1440 
z
" transform="scale(0.015625)"/>
      <path id="NotoSansCJKjp-Regular-b7c4" d="M 966 4474 
C 1069 4166 1152 3757 1165 3494 
L 1421 3565 
C 1402 3821 1312 4230 1203 4538 
L 966 4474 
z
M 1178 813 
C 1267 454 1338 0 1331 -307 
L 1664 -262 
C 1664 38 1594 499 1498 851 
L 1178 813 
z
M 1792 851 
C 1939 518 2067 90 2106 -192 
L 2432 -115 
C 2387 166 2246 589 2099 915 
L 1792 851 
z
M 2406 934 
C 2618 634 2848 224 2938 -45 
L 3258 96 
C 3162 365 2931 762 2701 1056 
L 2406 934 
z
M 634 838 
C 582 390 454 -70 205 -333 
L 538 -512 
C 806 -224 915 269 973 742 
L 634 838 
z
M 2272 4557 
C 2214 4262 2086 3808 1997 3533 
L 2202 3456 
C 2317 3706 2445 4122 2554 4454 
L 2272 4557 
z
M 4314 5363 
L 4314 2330 
L 3379 2330 
L 3379 -506 
L 3827 -506 
L 3827 -211 
L 5440 -211 
L 5440 -480 
L 5901 -480 
L 5901 2330 
L 4781 2330 
L 4781 3526 
L 6150 3526 
L 6150 3974 
L 4781 3974 
L 4781 5363 
L 4314 5363 
z
M 3827 237 
L 3827 1894 
L 5440 1894 
L 5440 237 
L 3827 237 
z
M 877 4794 
L 1568 4794 
L 1568 3245 
L 877 3245 
L 877 4794 
z
M 1894 4794 
L 2637 4794 
L 2637 3245 
L 1894 3245 
L 1894 4794 
z
M 448 2451 
L 448 2067 
L 1517 2067 
L 1517 1568 
L 314 1510 
L 333 1088 
C 1075 1133 2138 1203 3155 1274 
L 3168 1658 
L 1946 1594 
L 1946 2067 
L 3072 2067 
L 3072 2451 
L 1946 2451 
L 1946 2893 
L 3027 2893 
L 3027 5146 
L 493 5146 
L 493 2893 
L 1517 2893 
L 1517 2451 
L 448 2451 
z
" transform="scale(0.015625)"/>
      <path id="NotoSansCJKjp-Regular-57" d="M 1338 0 
L 2022 0 
L 3251 3475 
L 2675 3475 
L 2016 1498 
C 1914 1158 1798 806 1696 474 
L 1664 474 
C 1562 806 1453 1158 1344 1498 
L 691 3475 
L 83 3475 
L 1338 0 
z
" transform="scale(0.015625)"/>
      <path id="NotoSansCJKjp-Regular-1e" d="M 243 2912 
L 3315 2912 
L 3315 3347 
L 243 3347 
L 243 2912 
z
M 243 1376 
L 3315 1376 
L 3315 1811 
L 243 1811 
L 243 1376 
z
" transform="scale(0.015625)"/>
      <path id="NotoSansCJKjp-Regular-f6b1" d="M 1779 -83 
C 2688 -83 3238 768 3238 2298 
C 3238 3821 2688 4646 1779 4646 
C 864 4646 320 3827 320 2298 
C 320 768 864 -83 1779 -83 
z
M 1779 390 
C 1248 390 883 960 883 2298 
C 883 3635 1248 4179 1779 4179 
C 2310 4179 2675 3635 2675 2298 
C 2675 960 2310 390 1779 390 
z
" transform="scale(0.015625)"/>
     </defs>
     <use xlink:href="#NotoSansCJKjp-Regular-50c3"/>
     <use xlink:href="#NotoSansCJKjp-Regular-b0d5" transform="translate(100 0)"/>
     <use xlink:href="#NotoSansCJKjp-Regular-b7c4" transform="translate(200 0)"/>
     <use xlink:href="#NotoSansCJKjp-Regular-1" transform="translate(300 0)"/>
     <use xlink:href="#NotoSansCJKjp-Regular-57" transform="translate(322.40625 0)"/>
     <use xlink:href="#NotoSansCJKjp-Regular-1e" transform="translate(374.5 0)"/>
     <use xlink:href="#NotoSansCJKjp-Regular-f6b1" transform="translate(430 0)"/>
    </g>
    <!-- （過零點，a=-g 不變） -->
    <g style="fill: #bf8700" transform="translate(252.604375 105.058725) scale(0.11 -0.11)">
     <defs>
      <path id="NotoSansCJKjp-Regular-e6ae" d="M 4448 2432 
C 4448 1184 4954 166 5722 -614 
L 6106 -416 
C 5370 346 4915 1293 4915 2432 
C 4915 3571 5370 4518 6106 5280 
L 5722 5478 
C 4954 4698 4448 3680 4448 2432 
z
" transform="scale(0.015625)"/>
      <path id="NotoSansCJKjp-Regular-9de8" d="M 358 4947 
C 749 4640 1184 4186 1370 3866 
L 1760 4166 
C 1568 4480 1114 4922 723 5216 
L 358 4947 
z
M 1574 2848 
L 294 2848 
L 294 2400 
L 1107 2400 
L 1107 742 
C 819 474 499 205 230 13 
L 480 -461 
C 794 -179 1088 96 1370 371 
C 1773 -134 2355 -358 3200 -390 
C 3917 -416 5286 -403 6003 -378 
C 6022 -230 6099 -13 6157 96 
C 5382 45 3904 26 3194 58 
C 2438 90 1875 307 1574 781 
L 1574 2848 
z
M 3744 4250 
L 3744 3174 
L 3117 3174 
L 3117 4781 
L 4890 4781 
L 4890 4250 
L 3744 4250 
z
M 4102 3174 
L 4102 3917 
L 4890 3917 
L 4890 3174 
L 4102 3174 
z
M 2688 5152 
L 2688 3174 
L 2189 3174 
L 2189 390 
L 2618 390 
L 2618 2790 
L 5382 2790 
L 5382 870 
C 5382 800 5357 781 5286 781 
C 5216 774 4979 774 4710 787 
C 4762 672 4819 506 4838 390 
C 5216 390 5472 397 5626 461 
C 5786 531 5824 646 5824 870 
L 5824 3174 
L 5331 3174 
L 5331 5152 
L 2688 5152 
z
M 3155 2374 
L 3155 762 
L 3533 762 
L 3533 1018 
L 4826 1018 
L 4826 2374 
L 3155 2374 
z
M 3533 2035 
L 4448 2035 
L 4448 1350 
L 3533 1350 
L 3533 2035 
z
" transform="scale(0.015625)"/>
      <path id="NotoSansCJKjp-Regular-a9ba" d="M 1235 3718 
L 1235 3418 
L 2624 3418 
L 2624 3718 
L 1235 3718 
z
M 1094 3078 
L 1094 2765 
L 2630 2765 
L 2630 3078 
L 1094 3078 
z
M 3738 3078 
L 3738 2765 
L 5318 2765 
L 5318 3078 
L 3738 3078 
z
M 3738 3718 
L 3738 3418 
L 5158 3418 
L 5158 3718 
L 3738 3718 
z
M 486 4390 
L 486 3270 
L 922 3270 
L 922 4058 
L 2944 4058 
L 2944 3066 
L 3418 3066 
L 3418 4058 
L 5472 4058 
L 5472 3270 
L 5920 3270 
L 5920 4390 
L 3418 4390 
L 3418 4755 
L 5536 4755 
L 5536 5120 
L 858 5120 
L 858 4755 
L 2944 4755 
L 2944 4390 
L 486 4390 
z
M 2035 1843 
L 2035 1568 
L 4378 1568 
L 4378 1843 
C 4890 1600 5453 1402 5946 1286 
C 6003 1395 6099 1568 6195 1677 
C 5203 1875 4096 2323 3366 2950 
L 2931 2950 
C 2381 2400 1325 1882 237 1600 
C 314 1510 410 1344 454 1229 
C 998 1389 1549 1600 2035 1843 
z
M 3174 2592 
C 3456 2349 3834 2112 4250 1907 
L 2157 1907 
C 2566 2125 2918 2355 3174 2592 
z
M 966 1165 
L 966 819 
L 2515 819 
L 2515 -512 
L 2976 -512 
L 2976 819 
L 4749 819 
L 4749 288 
C 4749 211 4723 192 4634 186 
C 4544 186 4256 179 3891 192 
C 3955 77 4032 -70 4058 -192 
C 4506 -192 4794 -192 4979 -128 
C 5171 -64 5216 51 5216 282 
L 5216 1165 
L 966 1165 
z
" transform="scale(0.015625)"/>
      <path id="NotoSansCJKjp-Regular-e6b2" d="M 1005 -685 
C 1677 -448 2112 77 2112 768 
C 2112 1216 1920 1504 1568 1504 
C 1306 1504 1082 1344 1082 1043 
C 1082 742 1299 589 1562 589 
L 1670 602 
C 1638 160 1357 -141 864 -346 
L 1005 -685 
z
" transform="scale(0.015625)"/>
      <path id="NotoSansCJKjp-Regular-42" d="M 1389 -83 
C 1818 -83 2208 141 2541 416 
L 2560 416 
L 2611 0 
L 3091 0 
L 3091 2138 
C 3091 3002 2739 3565 1888 3565 
C 1325 3565 838 3315 525 3110 
L 749 2707 
C 1024 2893 1389 3078 1792 3078 
C 2362 3078 2509 2650 2509 2202 
C 1030 2035 378 1658 378 902 
C 378 275 806 -83 1389 -83 
z
M 1555 390 
C 1210 390 941 544 941 941 
C 941 1389 1338 1677 2509 1811 
L 2509 845 
C 2170 544 1888 390 1555 390 
z
" transform="scale(0.015625)"/>
      <path id="NotoSansCJKjp-Regular-48" d="M 1760 -1600 
C 2835 -1600 3520 -1043 3520 -397 
C 3520 179 3110 429 2310 429 
L 1626 429 
C 1158 429 1018 589 1018 806 
C 1018 998 1114 1114 1242 1222 
C 1395 1146 1587 1101 1754 1101 
C 2470 1101 3027 1568 3027 2310 
C 3027 2611 2912 2867 2746 3027 
L 3456 3027 
L 3456 3475 
L 2246 3475 
C 2125 3526 1952 3565 1754 3565 
C 1056 3565 454 3085 454 2323 
C 454 1907 678 1568 909 1389 
L 909 1363 
C 723 1235 525 1005 525 717 
C 525 442 659 256 838 147 
L 838 115 
C 512 -83 326 -371 326 -672 
C 326 -1267 915 -1600 1760 -1600 
z
M 1754 1498 
C 1357 1498 1018 1818 1018 2323 
C 1018 2835 1350 3136 1754 3136 
C 2170 3136 2496 2835 2496 2323 
C 2496 1818 2157 1498 1754 1498 
z
M 1843 -1197 
C 1210 -1197 838 -960 838 -589 
C 838 -390 941 -179 1190 0 
C 1344 -38 1510 -51 1638 -51 
L 2240 -51 
C 2701 -51 2944 -166 2944 -493 
C 2944 -851 2515 -1197 1843 -1197 
z
" transform="scale(0.015625)"/>
      <path id="NotoSansCJKjp-Regular-2518" d="M 3578 3059 
C 4339 2547 5299 1792 5754 1299 
L 6144 1670 
C 5664 2163 4691 2880 3936 3366 
L 3578 3059 
z
M 442 4928 
L 442 4435 
L 3290 4435 
C 2656 3341 1555 2259 282 1632 
C 384 1523 531 1331 608 1210 
C 1498 1677 2291 2336 2938 3078 
L 2938 -499 
L 3456 -499 
L 3456 3738 
C 3622 3962 3770 4198 3904 4435 
L 5958 4435 
L 5958 4928 
L 442 4928 
z
" transform="scale(0.015625)"/>
      <path id="NotoSansCJKjp-Regular-95ec" d="M 1664 2874 
C 1798 2650 1933 2342 1984 2150 
L 2291 2285 
C 2240 2470 2099 2765 1965 2982 
L 1664 2874 
z
M 640 2970 
C 563 2624 442 2259 262 2003 
C 358 1958 512 1869 582 1818 
C 755 2093 909 2502 998 2886 
L 640 2970 
z
M 5376 2848 
C 5568 2560 5760 2170 5830 1926 
L 6150 2080 
C 6067 2317 5869 2694 5677 2976 
L 5376 2848 
z
M 4275 2963 
C 4198 2630 4077 2298 3898 2048 
C 3987 2010 4141 1926 4211 1882 
C 4384 2138 4538 2522 4627 2886 
L 4275 2963 
z
M 2477 5203 
L 2477 4922 
L 3853 4922 
L 3853 5203 
L 2477 5203 
z
M 2464 4077 
L 2464 3802 
L 3866 3802 
L 3866 4077 
L 2464 4077 
z
M 2464 3533 
L 2464 3251 
L 3866 3251 
L 3866 3533 
L 2464 3533 
z
M 2803 2688 
L 3520 2688 
L 3520 2214 
L 2803 2214 
L 2803 2688 
z
M 1709 4832 
C 1587 4653 1427 4435 1254 4218 
C 1184 4294 1094 4384 998 4474 
C 1178 4691 1376 4973 1542 5242 
L 1197 5382 
C 1094 5178 928 4896 774 4672 
L 614 4800 
L 390 4550 
C 608 4371 858 4134 1018 3942 
C 902 3808 787 3680 678 3571 
L 307 3571 
L 346 3200 
L 1152 3232 
L 1152 1728 
L 1530 1728 
L 1530 3251 
L 2029 3270 
L 2125 3085 
L 2406 3251 
C 2304 3469 2067 3795 1856 4038 
L 1581 3891 
C 1658 3802 1741 3699 1818 3590 
L 1094 3578 
C 1414 3904 1773 4307 2054 4659 
L 1709 4832 
z
M 2208 4659 
L 2208 4352 
L 4064 4352 
L 4064 4474 
C 4269 4320 4499 4109 4653 3936 
C 4531 3802 4416 3680 4301 3571 
L 3942 3571 
L 3987 3200 
L 4813 3232 
L 4813 1728 
L 5190 1728 
L 5190 3251 
L 5734 3277 
C 5792 3187 5843 3110 5875 3040 
L 6163 3226 
C 6042 3462 5754 3814 5504 4077 
L 5235 3917 
C 5325 3821 5421 3706 5510 3590 
L 4730 3578 
C 5075 3910 5459 4339 5766 4704 
L 5421 4883 
C 5286 4685 5094 4442 4896 4211 
C 4819 4288 4723 4378 4621 4461 
C 4800 4678 5018 4966 5190 5242 
L 4838 5382 
C 4736 5171 4550 4877 4390 4653 
L 4250 4755 
L 4064 4538 
L 4064 4659 
L 2208 4659 
z
M 4269 1171 
C 3987 902 3622 685 3194 506 
C 2707 691 2278 909 1965 1171 
L 4269 1171 
z
M 2451 2963 
L 2451 2054 
L 2189 2131 
C 1824 1549 1120 1069 397 781 
C 499 704 666 531 736 448 
C 1030 589 1331 755 1606 960 
C 1901 710 2253 493 2650 307 
C 1933 90 1101 -45 256 -122 
C 339 -224 461 -422 499 -538 
C 1453 -416 2400 -237 3206 77 
C 4026 -230 4966 -422 5914 -525 
C 5971 -403 6080 -218 6176 -115 
C 5338 -45 4493 102 3757 320 
C 4198 544 4582 826 4870 1171 
L 5920 1171 
L 5920 1562 
L 2291 1562 
C 2394 1683 2496 1805 2579 1939 
L 3878 1939 
L 3878 2963 
L 2451 2963 
z
" transform="scale(0.015625)"/>
      <path id="NotoSansCJKjp-Regular-e6af" d="M 1952 2432 
C 1952 3680 1446 4698 678 5478 
L 294 5280 
C 1030 4518 1485 3571 1485 2432 
C 1485 1293 1030 346 294 -416 
L 678 -614 
C 1446 166 1952 1184 1952 2432 
z
" transform="scale(0.015625)"/>
     </defs>
     <use xlink:href="#NotoSansCJKjp-Regular-e6ae"/>
     <use xlink:href="#NotoSansCJKjp-Regular-9de8" transform="translate(100 0)"/>
     <use xlink:href="#NotoSansCJKjp-Regular-a9ba" transform="translate(200 0)"/>
     <use xlink:href="#NotoSansCJKjp-Regular-b7c4" transform="translate(300 0)"/>
     <use xlink:href="#NotoSansCJKjp-Regular-e6b2" transform="translate(400 0)"/>
     <use xlink:href="#NotoSansCJKjp-Regular-42" transform="translate(500 0)"/>
     <use xlink:href="#NotoSansCJKjp-Regular-1e" transform="translate(556.296875 0)"/>
     <use xlink:href="#NotoSansCJKjp-Regular-e" transform="translate(611.796875 0)"/>
     <use xlink:href="#NotoSansCJKjp-Regular-48" transform="translate(646.5 0)"/>
     <use xlink:href="#NotoSansCJKjp-Regular-1" transform="translate(702.90625 0)"/>
     <use xlink:href="#NotoSansCJKjp-Regular-2518" transform="translate(725.3125 0)"/>
     <use xlink:href="#NotoSansCJKjp-Regular-95ec" transform="translate(825.3125 0)"/>
     <use xlink:href="#NotoSansCJKjp-Regular-e6af" transform="translate(925.3125 0)"/>
    </g>
   </g>
   <g id="text_14">
    <!-- $+v_0$ -->
    <g style="fill: #1f6feb" transform="translate(54.199355 48.611373) scale(0.12 -0.12)">
     <defs>
      <path id="Cmr10-4c" d="M 481 1472 
Q 428 1472 393 1512 
Q 359 1553 359 1600 
Q 359 1647 393 1687 
Q 428 1728 481 1728 
L 2363 1728 
L 2363 3616 
Q 2363 3666 2400 3698 
Q 2438 3731 2491 3731 
Q 2538 3731 2578 3698 
Q 2619 3666 2619 3616 
L 2619 1728 
L 4500 1728 
Q 4547 1728 4581 1687 
Q 4616 1647 4616 1600 
Q 4616 1553 4581 1512 
Q 4547 1472 4500 1472 
L 2619 1472 
L 2619 -416 
Q 2619 -466 2578 -498 
Q 2538 -531 2491 -531 
Q 2438 -531 2400 -498 
Q 2363 -466 2363 -416 
L 2363 1472 
L 481 1472 
z
" transform="scale(0.015625)"/>
      <path id="Cmr10-28" d="M 1600 -141 
Q 816 -141 533 504 
Q 250 1150 250 2041 
Q 250 2597 351 3087 
Q 453 3578 754 3920 
Q 1056 4263 1600 4263 
Q 2022 4263 2290 4056 
Q 2559 3850 2700 3523 
Q 2841 3197 2892 2823 
Q 2944 2450 2944 2041 
Q 2944 1491 2842 1011 
Q 2741 531 2444 195 
Q 2147 -141 1600 -141 
z
M 1600 25 
Q 1956 25 2131 390 
Q 2306 756 2347 1200 
Q 2388 1644 2388 2144 
Q 2388 2625 2347 3031 
Q 2306 3438 2132 3767 
Q 1959 4097 1600 4097 
Q 1238 4097 1063 3765 
Q 888 3434 847 3029 
Q 806 2625 806 2144 
Q 806 1788 823 1472 
Q 841 1156 916 820 
Q 991 484 1158 254 
Q 1325 25 1600 25 
z
" transform="scale(0.015625)"/>
     </defs>
     <use xlink:href="#Cmr10-4c" transform="translate(0 0.703125)"/>
     <use xlink:href="#Cmmi10-38" transform="translate(77.685547 0.703125)"/>
     <use xlink:href="#Cmr10-28" transform="translate(126.074219 -14.296837) scale(0.7)"/>
    </g>
   </g>
   <g id="text_15">
    <!-- $-v_0$ -->
    <g style="fill: #d1242f" transform="translate(406.9741 245.725098) scale(0.12 -0.12)">
     <defs>
      <path id="Cmsy10-11" d="M 653 1472 
Q 600 1472 565 1512 
Q 531 1553 531 1600 
Q 531 1647 565 1687 
Q 600 1728 653 1728 
L 4325 1728 
Q 4375 1728 4408 1687 
Q 4441 1647 4441 1600 
Q 4441 1553 4408 1512 
Q 4375 1472 4325 1472 
L 653 1472 
z
" transform="scale(0.015625)"/>
     </defs>
     <use xlink:href="#Cmsy10-11" transform="translate(0 0.71875)"/>
     <use xlink:href="#Cmmi10-38" transform="translate(77.685547 0.71875)"/>
     <use xlink:href="#Cmr10-28" transform="translate(126.074219 -14.281212) scale(0.7)"/>
    </g>
   </g>
   <g id="text_16">
    <!-- 上升段 -->
    <g style="fill: #1f6feb" transform="translate(132.074924 106.831176) scale(0.105 -0.105)">
     <defs>
      <path id="NotoSansCJKjp-Regular-2515" d="M 2733 5280 
L 2733 275 
L 326 275 
L 326 -205 
L 6080 -205 
L 6080 275 
L 3238 275 
L 3238 2822 
L 5638 2822 
L 5638 3302 
L 3238 3302 
L 3238 5280 
L 2733 5280 
z
" transform="scale(0.015625)"/>
      <path id="NotoSansCJKjp-Regular-2d8d" d="M 3174 5280 
C 2534 4896 1395 4538 384 4301 
C 448 4198 525 4026 550 3910 
C 947 4000 1363 4102 1773 4224 
L 1773 2797 
L 320 2797 
L 320 2330 
L 1766 2330 
C 1715 1408 1453 506 256 -160 
C 371 -243 538 -410 608 -525 
C 1914 224 2202 1267 2253 2330 
L 4211 2330 
L 4211 -512 
L 4698 -512 
L 4698 2330 
L 6086 2330 
L 6086 2797 
L 4698 2797 
L 4698 5254 
L 4211 5254 
L 4211 2797 
L 2259 2797 
L 2259 4371 
C 2733 4525 3174 4698 3533 4890 
L 3174 5280 
z
" transform="scale(0.015625)"/>
      <path id="NotoSansCJKjp-Regular-58ff" d="M 5254 2099 
C 5062 1638 4781 1248 4435 922 
C 4115 1254 3866 1651 3699 2099 
L 5254 2099 
z
M 3002 2534 
L 3002 2099 
L 3597 2099 
L 3264 2003 
C 3462 1472 3738 1011 4083 627 
C 3622 288 3078 45 2509 -102 
C 2598 -205 2720 -397 2771 -525 
C 3373 -346 3936 -83 4422 294 
C 4832 -64 5318 -333 5882 -506 
C 5952 -378 6086 -186 6195 -83 
C 5651 58 5178 294 4787 608 
C 5267 1069 5638 1670 5862 2432 
L 5555 2554 
L 5466 2534 
L 3002 2534 
z
M 2528 5370 
C 2176 5171 1568 4960 998 4806 
L 742 4890 
L 742 979 
L 218 902 
L 301 429 
L 742 506 
L 742 -506 
L 1203 -506 
L 1203 589 
L 2918 902 
L 2899 1344 
L 1203 1056 
L 1203 2035 
L 2733 2035 
L 2733 2483 
L 1203 2483 
L 1203 3264 
L 2675 3264 
L 2675 3712 
L 1203 3712 
L 1203 4448 
C 1805 4595 2458 4794 2938 5030 
L 2528 5370 
z
M 3366 5107 
L 3366 4198 
C 3366 3776 3290 3309 2707 2950 
C 2803 2893 2976 2720 3040 2624 
C 3693 3034 3814 3661 3814 4186 
L 3814 4685 
L 4826 4685 
L 4826 3558 
C 4826 3194 4858 3091 4954 3008 
C 5043 2931 5184 2899 5312 2899 
C 5382 2899 5555 2899 5638 2899 
C 5741 2899 5869 2918 5939 2957 
C 6035 3002 6099 3066 6131 3174 
C 6170 3277 6189 3565 6202 3814 
C 6074 3853 5920 3930 5830 4006 
C 5824 3744 5818 3546 5805 3456 
C 5786 3379 5766 3328 5734 3309 
C 5709 3296 5651 3290 5600 3290 
C 5542 3290 5459 3290 5414 3290 
C 5370 3290 5331 3296 5312 3309 
C 5280 3334 5280 3405 5280 3526 
L 5280 5107 
L 3366 5107 
z
" transform="scale(0.015625)"/>
     </defs>
     <use xlink:href="#NotoSansCJKjp-Regular-2515"/>
     <use xlink:href="#NotoSansCJKjp-Regular-2d8d" transform="translate(100 0)"/>
     <use xlink:href="#NotoSansCJKjp-Regular-58ff" transform="translate(200 0)"/>
    </g>
    <!-- 上方面積 -->
    <g style="fill: #1f6feb" transform="translate(126.824924 117.331176) scale(0.105 -0.105)">
     <defs>
      <path id="NotoSansCJKjp-Regular-4ea0" d="M 2931 5395 
L 2931 4269 
L 339 4269 
L 339 3808 
L 2310 3808 
C 2240 2330 2054 666 269 -147 
C 397 -243 544 -416 621 -538 
C 1926 90 2438 1152 2669 2298 
L 4787 2298 
C 4685 819 4557 186 4371 19 
C 4294 -51 4211 -58 4064 -58 
C 3898 -58 3443 -51 2982 -13 
C 3078 -147 3142 -346 3155 -480 
C 3584 -506 4013 -512 4230 -499 
C 4480 -486 4634 -435 4781 -282 
C 5030 -26 5165 685 5293 2522 
C 5306 2598 5312 2758 5312 2758 
L 2746 2758 
C 2790 3110 2822 3462 2842 3808 
L 6067 3808 
L 6067 4269 
L 3424 4269 
L 3424 5395 
L 2931 5395 
z
" transform="scale(0.015625)"/>
      <path id="NotoSansCJKjp-Regular-aaab" d="M 2490 2138 
L 3846 2138 
L 3846 1414 
L 2490 1414 
L 2490 2138 
z
M 2490 2528 
L 2490 3238 
L 3846 3238 
L 3846 2528 
L 2490 2528 
z
M 2490 1024 
L 3846 1024 
L 3846 275 
L 2490 275 
L 2490 1024 
z
M 371 4954 
L 371 4493 
L 2842 4493 
C 2797 4230 2726 3930 2662 3686 
L 666 3686 
L 666 -512 
L 1126 -512 
L 1126 -173 
L 5248 -173 
L 5248 -512 
L 5734 -512 
L 5734 3686 
L 3155 3686 
L 3405 4493 
L 6048 4493 
L 6048 4954 
L 371 4954 
z
M 1126 275 
L 1126 3238 
L 2048 3238 
L 2048 275 
L 1126 275 
z
M 5248 275 
L 4288 275 
L 4288 3238 
L 5248 3238 
L 5248 275 
z
" transform="scale(0.015625)"/>
      <path id="NotoSansCJKjp-Regular-7289" d="M 3341 1997 
L 5318 1997 
L 5318 1581 
L 3341 1581 
L 3341 1997 
z
M 3341 1267 
L 5318 1267 
L 5318 845 
L 3341 845 
L 3341 1267 
z
M 3341 2720 
L 5318 2720 
L 5318 2310 
L 3341 2310 
L 3341 2720 
z
M 2899 3053 
L 2899 512 
L 5773 512 
L 5773 3053 
L 2899 3053 
z
M 4640 224 
C 5056 -19 5510 -320 5773 -518 
L 6195 -282 
C 5894 -70 5395 224 4966 467 
L 4640 224 
z
M 3622 486 
C 3322 224 2714 -70 2189 -224 
C 2285 -307 2426 -448 2502 -538 
C 3021 -371 3648 -64 4032 243 
L 3622 486 
z
M 2477 3712 
L 2477 3597 
L 1779 3597 
L 1779 4672 
C 2080 4742 2355 4819 2586 4915 
L 2253 5286 
C 1798 5082 986 4909 288 4806 
C 346 4698 410 4538 429 4435 
C 710 4467 1011 4518 1312 4570 
L 1312 3597 
L 320 3597 
L 320 3149 
L 1267 3149 
C 1011 2406 570 1562 154 1101 
C 230 986 352 794 403 659 
C 723 1050 1050 1677 1312 2317 
L 1312 -499 
L 1779 -499 
L 1779 2266 
C 1990 2003 2240 1670 2336 1498 
L 2624 1875 
C 2502 2022 1978 2560 1779 2746 
L 1779 3149 
L 2502 3149 
L 2502 3373 
L 6138 3373 
L 6138 3712 
L 4518 3712 
L 4518 4051 
L 5818 4051 
L 5818 4365 
L 4518 4365 
L 4518 4691 
L 5984 4691 
L 5984 5024 
L 4518 5024 
L 4518 5376 
L 4045 5376 
L 4045 5024 
L 2669 5024 
L 2669 4691 
L 4045 4691 
L 4045 4365 
L 2816 4365 
L 2816 4051 
L 4045 4051 
L 4045 3712 
L 2477 3712 
z
" transform="scale(0.015625)"/>
     </defs>
     <use xlink:href="#NotoSansCJKjp-Regular-2515"/>
     <use xlink:href="#NotoSansCJKjp-Regular-4ea0" transform="translate(100 0)"/>
     <use xlink:href="#NotoSansCJKjp-Regular-aaab" transform="translate(200 0)"/>
     <use xlink:href="#NotoSansCJKjp-Regular-7289" transform="translate(300 0)"/>
    </g>
    <!-- （正位移） -->
    <g style="fill: #1f6feb" transform="translate(121.574924 127.831176) scale(0.105 -0.105)">
     <defs>
      <path id="NotoSansCJKjp-Regular-585c" d="M 1203 3264 
L 1203 243 
L 333 243 
L 333 -224 
L 6080 -224 
L 6080 243 
L 3616 243 
L 3616 2259 
L 5619 2259 
L 5619 2726 
L 3616 2726 
L 3616 4435 
L 5869 4435 
L 5869 4909 
L 576 4909 
L 576 4435 
L 3110 4435 
L 3110 243 
L 1696 243 
L 1696 3264 
L 1203 3264 
z
" transform="scale(0.015625)"/>
      <path id="NotoSansCJKjp-Regular-26e3" d="M 2630 3155 
C 2867 2304 3066 1190 3110 544 
L 3578 646 
C 3526 1280 3302 2381 3059 3232 
L 2630 3155 
z
M 2106 4115 
L 2106 3661 
L 6016 3661 
L 6016 4115 
L 4250 4115 
L 4250 5299 
L 3770 5299 
L 3770 4115 
L 2106 4115 
z
M 1946 243 
L 1946 -211 
L 6176 -211 
L 6176 243 
L 4634 243 
C 4928 1043 5261 2246 5485 3194 
L 4966 3283 
C 4800 2362 4461 1056 4166 243 
L 1946 243 
z
M 1773 5357 
C 1395 4390 774 3443 128 2835 
C 211 2720 352 2470 397 2355 
C 640 2598 877 2880 1107 3194 
L 1107 -493 
L 1568 -493 
L 1568 3891 
C 1818 4314 2048 4762 2227 5216 
L 1773 5357 
z
" transform="scale(0.015625)"/>
      <path id="NotoSansCJKjp-Regular-71ef" d="M 3910 4416 
L 5197 4416 
C 5024 4083 4774 3795 4486 3546 
C 4275 3750 3949 3994 3654 4179 
L 3910 4416 
z
M 4109 5376 
C 3827 4883 3277 4307 2477 3910 
C 2573 3834 2720 3680 2784 3578 
C 2982 3686 3168 3808 3341 3930 
C 3629 3750 3949 3494 4154 3290 
C 3686 2970 3136 2739 2586 2605 
C 2675 2515 2790 2336 2835 2221 
C 4122 2586 5325 3347 5824 4691 
L 5523 4838 
L 5434 4819 
L 4269 4819 
C 4390 4973 4499 5126 4589 5286 
L 4109 5376 
z
M 4211 1952 
L 5536 1952 
C 5350 1555 5088 1222 4768 941 
C 4531 1165 4166 1427 3840 1626 
C 3974 1728 4096 1837 4211 1952 
z
M 4454 2963 
C 4141 2400 3501 1760 2560 1325 
C 2656 1254 2797 1094 2861 992 
C 3085 1107 3296 1229 3488 1363 
C 3821 1165 4173 890 4410 659 
C 3846 282 3168 32 2451 -102 
C 2541 -205 2650 -397 2694 -512 
C 4243 -166 5613 621 6157 2246 
L 5850 2381 
L 5760 2362 
L 4576 2362 
C 4717 2534 4832 2707 4934 2880 
L 4454 2963 
z
M 2310 5286 
C 1837 5069 992 4883 275 4762 
C 333 4659 397 4499 416 4397 
C 717 4435 1037 4493 1357 4557 
L 1357 3571 
L 314 3571 
L 314 3123 
L 1293 3123 
C 1037 2387 595 1555 179 1101 
C 262 986 378 794 429 659 
C 755 1056 1094 1690 1357 2336 
L 1357 -499 
L 1830 -499 
L 1830 2259 
C 2048 1990 2304 1645 2413 1466 
L 2701 1843 
C 2573 1990 2016 2566 1830 2726 
L 1830 3123 
L 2630 3123 
L 2630 3571 
L 1830 3571 
L 1830 4666 
C 2131 4736 2413 4819 2643 4915 
L 2310 5286 
z
" transform="scale(0.015625)"/>
     </defs>
     <use xlink:href="#NotoSansCJKjp-Regular-e6ae"/>
     <use xlink:href="#NotoSansCJKjp-Regular-585c" transform="translate(100 0)"/>
     <use xlink:href="#NotoSansCJKjp-Regular-26e3" transform="translate(200 0)"/>
     <use xlink:href="#NotoSansCJKjp-Regular-71ef" transform="translate(300 0)"/>
     <use xlink:href="#NotoSansCJKjp-Regular-e6af" transform="translate(400 0)"/>
    </g>
   </g>
   <g id="text_17">
    <!-- 下降段 -->
    <g style="fill: #d1242f" transform="translate(324.037277 167.936431) scale(0.105 -0.105)">
     <defs>
      <path id="NotoSansCJKjp-Regular-2516" d="M 352 4902 
L 352 4422 
L 2822 4422 
L 2822 -506 
L 3328 -506 
L 3328 2886 
C 4064 2490 4922 1958 5370 1600 
L 5709 2035 
C 5197 2426 4179 3002 3418 3373 
L 3328 3270 
L 3328 4422 
L 6054 4422 
L 6054 4902 
L 352 4902 
z
" transform="scale(0.015625)"/>
      <path id="NotoSansCJKjp-Regular-a878" d="M 4390 1734 
L 4390 877 
L 3533 877 
L 3533 1734 
L 4390 1734 
z
M 4390 2656 
L 4390 2138 
L 2643 2138 
L 2643 1734 
L 3104 1734 
L 3104 877 
L 2323 877 
L 2323 454 
L 4390 454 
L 4390 -512 
L 4851 -512 
L 4851 454 
L 6067 454 
L 6067 877 
L 4851 877 
L 4851 1734 
L 5882 1734 
L 5882 2138 
L 4851 2138 
L 4851 2656 
L 4390 2656 
z
M 518 5101 
L 518 -512 
L 947 -512 
L 947 4666 
L 1786 4666 
C 1651 4230 1459 3648 1274 3181 
C 1734 2682 1856 2253 1856 1901 
C 1856 1709 1818 1536 1722 1466 
C 1670 1427 1600 1414 1517 1408 
C 1414 1402 1293 1408 1146 1414 
C 1216 1293 1261 1107 1267 992 
C 1408 986 1568 992 1696 1005 
C 1830 1018 1939 1056 2029 1120 
C 2208 1242 2285 1510 2285 1856 
C 2285 2253 2176 2707 1709 3238 
C 1926 3750 2163 4403 2349 4934 
L 2035 5120 
L 1965 5101 
L 518 5101 
z
M 5056 4429 
C 4870 4096 4614 3808 4314 3558 
C 4026 3795 3789 4077 3616 4378 
L 3654 4429 
L 5056 4429 
z
M 3763 5382 
C 3514 4864 3034 4250 2323 3802 
C 2426 3738 2573 3590 2637 3494 
C 2899 3674 3130 3866 3334 4070 
C 3507 3789 3725 3526 3968 3302 
C 3475 2970 2899 2733 2317 2598 
C 2406 2502 2515 2330 2566 2214 
C 3187 2381 3795 2643 4320 3021 
C 4781 2688 5325 2451 5933 2310 
C 5997 2432 6125 2611 6221 2701 
C 5638 2810 5114 3014 4672 3296 
C 5101 3674 5453 4134 5677 4698 
L 5376 4838 
L 5293 4819 
L 3942 4819 
C 4051 4979 4141 5146 4224 5306 
L 3763 5382 
z
" transform="scale(0.015625)"/>
     </defs>
     <use xlink:href="#NotoSansCJKjp-Regular-2516"/>
     <use xlink:href="#NotoSansCJKjp-Regular-a878" transform="translate(100 0)"/>
     <use xlink:href="#NotoSansCJKjp-Regular-58ff" transform="translate(200 0)"/>
    </g>
    <!-- 下方面積 -->
    <g style="fill: #d1242f" transform="translate(318.787277 178.436431) scale(0.105 -0.105)">
     <use xlink:href="#NotoSansCJKjp-Regular-2516"/>
     <use xlink:href="#NotoSansCJKjp-Regular-4ea0" transform="translate(100 0)"/>
     <use xlink:href="#NotoSansCJKjp-Regular-aaab" transform="translate(200 0)"/>
     <use xlink:href="#NotoSansCJKjp-Regular-7289" transform="translate(300 0)"/>
    </g>
    <!-- （負位移） -->
    <g style="fill: #d1242f" transform="translate(313.537277 188.936431) scale(0.105 -0.105)">
     <defs>
      <path id="NotoSansCJKjp-Regular-9777" d="M 1606 2560 
L 4883 2560 
L 4883 1958 
L 1606 1958 
L 1606 2560 
z
M 1606 1594 
L 4883 1594 
L 4883 992 
L 1606 992 
L 1606 1594 
z
M 1606 3514 
L 4883 3514 
L 4883 2925 
L 1606 2925 
L 1606 3514 
z
M 3776 237 
C 4448 -6 5133 -301 5530 -525 
L 6035 -256 
C 5581 -32 4832 275 4147 506 
L 3776 237 
z
M 2214 512 
C 1760 250 1005 0 365 -154 
C 480 -243 653 -435 730 -538 
C 1357 -346 2163 -26 2669 301 
L 2214 512 
z
M 2074 4512 
L 3635 4512 
C 3507 4307 3341 4083 3168 3910 
L 1510 3910 
C 1715 4102 1907 4307 2074 4512 
z
M 2080 5370 
C 1760 4794 1152 4096 314 3584 
C 435 3514 595 3360 672 3245 
C 832 3347 986 3462 1126 3578 
L 1126 595 
L 5376 595 
L 5376 3910 
L 3744 3910 
C 3955 4160 4166 4448 4314 4710 
L 3987 4922 
L 3910 4902 
L 2368 4902 
C 2451 5024 2534 5146 2605 5267 
L 2080 5370 
z
" transform="scale(0.015625)"/>
     </defs>
     <use xlink:href="#NotoSansCJKjp-Regular-e6ae"/>
     <use xlink:href="#NotoSansCJKjp-Regular-9777" transform="translate(100 0)"/>
     <use xlink:href="#NotoSansCJKjp-Regular-26e3" transform="translate(200 0)"/>
     <use xlink:href="#NotoSansCJKjp-Regular-71ef" transform="translate(300 0)"/>
     <use xlink:href="#NotoSansCJKjp-Regular-e6af" transform="translate(400 0)"/>
    </g>
   </g>
   <g id="text_18">
    <!-- 兩塊面積大小相等 → 回到拋出點位移為零；路程＝兩塊絕對值相加 -->
    <g style="fill: #555555" transform="translate(93.366103 267.440392) scale(0.1 -0.1)">
     <defs>
      <path id="NotoSansCJKjp-Regular-2a94" d="M 1568 2784 
L 1568 2445 
L 1971 2445 
C 1875 1683 1651 1050 1222 634 
C 1299 589 1440 480 1498 429 
C 1779 723 1990 1114 2138 1581 
C 2221 1171 2381 774 2662 435 
C 2720 506 2854 608 2931 653 
C 2374 1293 2330 2112 2330 2784 
L 1568 2784 
z
M 442 4992 
L 442 4518 
L 2938 4518 
L 2938 3718 
L 672 3718 
L 672 -499 
L 1133 -499 
L 1133 3264 
L 2938 3264 
L 2938 -480 
L 3398 -480 
L 3398 3264 
L 5299 3264 
L 5299 58 
C 5299 -38 5267 -70 5171 -70 
C 5069 -77 4736 -77 4384 -64 
C 4448 -186 4525 -371 4550 -499 
C 5005 -499 5325 -493 5517 -416 
C 5709 -346 5766 -211 5766 51 
L 5766 3718 
L 3398 3718 
L 3398 4518 
L 5990 4518 
L 5990 4992 
L 442 4992 
z
M 3802 2784 
L 3802 2445 
L 4218 2445 
C 4115 1709 3891 1088 3482 678 
C 3571 634 3706 525 3763 467 
C 4038 768 4243 1158 4384 1626 
C 4474 1203 4640 794 4947 454 
C 5011 518 5146 621 5229 659 
C 4640 1293 4589 2112 4589 2784 
L 3802 2784 
z
" transform="scale(0.015625)"/>
      <path id="NotoSansCJKjp-Regular-3574" d="M 2400 4723 
L 2400 2093 
L 3059 2093 
C 2989 902 2790 230 1606 -141 
C 1709 -230 1837 -416 1888 -538 
C 3187 -90 3456 723 3526 2093 
L 3994 2093 
L 3994 198 
C 3994 -294 4134 -422 4672 -422 
C 4787 -422 5453 -422 5574 -422 
C 5990 -422 6125 -262 6176 339 
C 6048 371 5862 435 5766 512 
C 5747 70 5715 6 5530 6 
C 5389 6 4826 6 4723 6 
C 4480 6 4448 38 4448 205 
L 4448 2093 
L 5862 2093 
L 5862 4723 
L 4128 4723 
C 4224 4902 4333 5114 4429 5325 
L 3872 5382 
C 3821 5190 3725 4934 3635 4723 
L 2400 4723 
z
M 2854 3219 
L 3872 3219 
L 3872 2502 
L 2854 2502 
L 2854 3219 
z
M 4326 3219 
L 5389 3219 
L 5389 2502 
L 4326 2502 
L 4326 3219 
z
M 2854 4307 
L 3872 4307 
L 3872 3603 
L 2854 3603 
L 2854 4307 
z
M 4326 4307 
L 5389 4307 
L 5389 3603 
L 4326 3603 
L 4326 4307 
z
M 5414 1517 
C 5485 1382 5562 1235 5626 1088 
L 5037 1024 
C 5126 1293 5222 1638 5306 1939 
L 4934 1997 
C 4896 1709 4787 1293 4704 992 
L 4506 973 
L 4582 614 
L 5747 787 
L 5818 576 
L 6112 710 
C 6048 947 5869 1331 5696 1626 
L 5414 1517 
z
M 218 1171 
L 378 685 
C 941 915 1683 1216 2374 1510 
L 2278 1958 
L 1549 1670 
L 1549 3494 
L 2221 3494 
L 2221 3949 
L 1549 3949 
L 1549 5357 
L 1094 5357 
L 1094 3949 
L 333 3949 
L 333 3494 
L 1094 3494 
L 1094 1491 
C 762 1363 461 1254 218 1171 
z
" transform="scale(0.015625)"/>
      <path id="NotoSansCJKjp-Regular-36fb" d="M 2950 5370 
C 2944 4864 2950 4218 2854 3539 
L 397 3539 
L 397 3046 
L 2771 3046 
C 2515 1830 1875 589 275 -102 
C 410 -205 563 -378 640 -499 
C 2202 218 2893 1446 3206 2682 
C 3706 1222 4531 90 5773 -499 
C 5856 -358 6010 -160 6131 -51 
C 4890 467 4051 1632 3603 3046 
L 6029 3046 
L 6029 3539 
L 3366 3539 
C 3456 4211 3462 4851 3469 5370 
L 2950 5370 
z
" transform="scale(0.015625)"/>
      <path id="NotoSansCJKjp-Regular-3d78" d="M 2970 5286 
L 2970 154 
C 2970 26 2918 -13 2790 -19 
C 2656 -26 2195 -32 1728 -13 
C 1805 -147 1894 -378 1926 -512 
C 2528 -518 2925 -506 3162 -422 
C 3392 -346 3488 -198 3488 154 
L 3488 5286 
L 2970 5286 
z
M 4512 3654 
C 5062 2733 5581 1536 5728 774 
L 6246 986 
C 6080 1754 5536 2931 4973 3827 
L 4512 3654 
z
M 1293 3782 
C 1133 2925 774 1818 205 1139 
C 339 1082 550 966 659 883 
C 1242 1594 1619 2752 1830 3693 
L 1293 3782 
z
" transform="scale(0.015625)"/>
      <path id="NotoSansCJKjp-Regular-6ce8" d="M 3494 3034 
L 5440 3034 
L 5440 1920 
L 3494 1920 
L 3494 3034 
z
M 3494 3469 
L 3494 4544 
L 5440 4544 
L 5440 3469 
L 3494 3469 
z
M 3494 1478 
L 5440 1478 
L 5440 365 
L 3494 365 
L 3494 1478 
z
M 3027 4998 
L 3027 -467 
L 3494 -467 
L 3494 -77 
L 5440 -77 
L 5440 -448 
L 5926 -448 
L 5926 4998 
L 3027 4998 
z
M 1370 5376 
L 1370 4006 
L 333 4006 
L 333 3546 
L 1312 3546 
C 1088 2662 634 1651 186 1120 
C 262 1005 384 813 435 685 
C 781 1126 1120 1837 1370 2573 
L 1370 -506 
L 1837 -506 
L 1837 2419 
C 2080 2106 2368 1709 2490 1498 
L 2784 1888 
C 2643 2061 2061 2746 1837 2970 
L 1837 3546 
L 2752 3546 
L 2752 4006 
L 1837 4006 
L 1837 5376 
L 1370 5376 
z
" transform="scale(0.015625)"/>
      <path id="NotoSansCJKjp-Regular-74a1" d="M 3699 5408 
C 3514 4864 3168 4352 2771 4019 
L 2944 3910 
L 2944 3469 
L 941 3469 
L 941 3066 
L 2944 3066 
L 2944 2490 
L 307 2490 
L 307 2067 
L 4256 2067 
L 4256 1504 
L 512 1504 
L 512 1082 
L 4256 1082 
L 4256 64 
C 4256 -26 4224 -51 4109 -58 
C 3994 -64 3616 -64 3181 -51 
C 3251 -179 3334 -371 3360 -506 
C 3885 -506 4243 -499 4461 -435 
C 4678 -358 4742 -224 4742 58 
L 4742 1082 
L 5946 1082 
L 5946 1504 
L 4742 1504 
L 4742 2067 
L 6118 2067 
L 6118 2490 
L 3437 2490 
L 3437 3066 
L 5510 3066 
L 5510 3469 
L 3437 3469 
L 3437 3910 
L 3334 3910 
C 3475 4064 3610 4237 3731 4429 
L 4166 4429 
C 4358 4179 4544 3878 4621 3667 
L 5037 3846 
C 4966 4013 4832 4224 4685 4429 
L 6048 4429 
L 6048 4838 
L 3962 4838 
C 4038 4986 4102 5139 4160 5299 
L 3699 5408 
z
M 1427 806 
C 1843 531 2304 122 2515 -179 
L 2886 122 
C 2669 422 2195 819 1779 1082 
L 1427 806 
z
M 1190 5408 
C 973 4838 614 4282 211 3904 
C 326 3846 525 3712 614 3635 
C 826 3846 1030 4122 1222 4429 
L 1478 4429 
C 1600 4179 1715 3891 1754 3699 
L 2182 3859 
C 2144 4006 2054 4224 1958 4429 
L 3123 4429 
L 3123 4838 
L 1446 4838 
C 1517 4986 1587 5133 1645 5286 
L 1190 5408 
z
" transform="scale(0.015625)"/>
      <path id="NotoSansCJKjp-Regular-31c" d="M 5190 2650 
L 256 2650 
L 256 2214 
L 5190 2214 
C 4864 1965 4442 1562 4154 1165 
L 4538 941 
C 4966 1504 5606 2067 6176 2432 
C 5606 2797 4966 3360 4538 3923 
L 4154 3699 
C 4442 3302 4864 2899 5190 2650 
z
" transform="scale(0.015625)"/>
      <path id="NotoSansCJKjp-Regular-3351" d="M 2394 3200 
L 3955 3200 
L 3955 1734 
L 2394 1734 
L 2394 3200 
z
M 1939 3635 
L 1939 1306 
L 4429 1306 
L 4429 3635 
L 1939 3635 
z
M 525 5114 
L 525 -506 
L 1018 -506 
L 1018 -160 
L 5370 -160 
L 5370 -506 
L 5882 -506 
L 5882 5114 
L 525 5114 
z
M 1018 294 
L 1018 4634 
L 5370 4634 
L 5370 294 
L 1018 294 
z
" transform="scale(0.015625)"/>
      <path id="NotoSansCJKjp-Regular-2bbc" d="M 3885 4608 
L 3885 1056 
L 4352 1056 
L 4352 4608 
L 3885 4608 
z
M 5402 5197 
L 5402 134 
C 5402 19 5370 -13 5254 -19 
C 5126 -19 4723 -26 4294 -13 
C 4371 -154 4442 -378 4467 -512 
C 4986 -512 5370 -499 5587 -422 
C 5792 -346 5869 -198 5869 134 
L 5869 5197 
L 5402 5197 
z
M 2349 3994 
C 2522 3795 2701 3565 2861 3334 
L 1382 3264 
C 1562 3648 1747 4115 1914 4518 
L 3610 4518 
L 3610 4960 
L 326 4960 
L 326 4518 
L 1370 4518 
C 1248 4115 1069 3622 896 3245 
L 307 3219 
L 346 2765 
L 3136 2925 
C 3226 2778 3296 2643 3354 2528 
L 3731 2758 
C 3546 3149 3098 3750 2714 4192 
L 2349 3994 
z
M 256 160 
L 326 -320 
C 1184 -205 2445 -19 3635 147 
L 3622 595 
L 2208 410 
L 2208 1472 
L 3424 1472 
L 3424 1907 
L 2208 1907 
L 2208 2675 
L 1734 2675 
L 1734 1907 
L 512 1907 
L 512 1472 
L 1734 1472 
L 1734 346 
L 256 160 
z
" transform="scale(0.015625)"/>
      <path id="NotoSansCJKjp-Regular-497f" d="M 3078 3149 
L 3078 326 
C 3078 -51 3187 -160 3386 -243 
C 3565 -314 3834 -339 4077 -339 
C 4218 -339 4806 -339 4947 -339 
C 5178 -339 5478 -320 5638 -288 
C 5830 -243 5958 -173 6029 -45 
C 6099 83 6138 403 6150 691 
C 6035 723 5894 794 5805 864 
C 5805 582 5786 352 5754 262 
C 5715 186 5600 147 5491 128 
C 5382 115 5158 109 4966 109 
C 4717 109 4301 109 4115 109 
C 3930 109 3789 115 3680 147 
C 3558 166 3507 218 3507 326 
L 3507 3149 
L 3078 3149 
z
M 934 5376 
L 934 4083 
L 307 4083 
L 307 3635 
L 934 3635 
L 934 2221 
L 250 1978 
L 378 1517 
L 934 1734 
L 934 70 
C 934 -13 909 -32 832 -32 
C 762 -38 544 -38 294 -32 
C 352 -154 403 -346 422 -461 
C 781 -461 1005 -448 1152 -371 
C 1286 -294 1344 -173 1344 77 
L 1344 1901 
L 1888 2118 
L 1805 2554 
L 1344 2374 
L 1344 3635 
L 1805 3635 
L 1805 4083 
L 1344 4083 
L 1344 5376 
L 934 5376 
z
M 2560 5389 
L 2560 4154 
L 1997 4154 
L 1997 3738 
L 2560 3738 
L 2560 3680 
C 2560 2394 2464 922 1408 -256 
C 1523 -307 1690 -429 1779 -506 
C 2874 736 2982 2310 2982 3686 
L 2982 3738 
L 3706 3738 
L 3706 4154 
L 2982 4154 
L 2982 5389 
L 2560 5389 
z
M 4518 5370 
C 4512 4954 4506 4550 4493 4154 
L 3910 4154 
L 3910 3725 
L 4467 3725 
C 4397 2560 4192 1542 3603 896 
C 3712 832 3859 691 3923 595 
C 4570 1325 4794 2438 4877 3725 
L 5459 3725 
C 5421 1926 5370 1286 5267 1133 
C 5216 1062 5178 1050 5094 1050 
C 4998 1050 4800 1050 4582 1075 
C 4640 960 4685 787 4685 659 
C 4909 646 5133 653 5267 666 
C 5421 685 5530 730 5626 864 
C 5779 1088 5824 1792 5875 3942 
C 5875 4006 5875 4154 5875 4154 
L 4902 4154 
C 4922 4550 4928 4954 4934 5370 
L 4518 5370 
z
" transform="scale(0.015625)"/>
      <path id="NotoSansCJKjp-Regular-2b73" d="M 966 4768 
L 966 2560 
L 2918 2560 
L 2918 365 
L 1203 365 
L 1203 2144 
L 723 2144 
L 723 -512 
L 1203 -512 
L 1203 -109 
L 5222 -109 
L 5222 -499 
L 5715 -499 
L 5715 2144 
L 5222 2144 
L 5222 365 
L 3418 365 
L 3418 2560 
L 5459 2560 
L 5459 4768 
L 4960 4768 
L 4960 3021 
L 3418 3021 
L 3418 5344 
L 2918 5344 
L 2918 3021 
L 1446 3021 
L 1446 4768 
L 966 4768 
z
" transform="scale(0.015625)"/>
      <path id="NotoSansCJKjp-Regular-61a1" d="M 4083 1197 
C 4275 934 4474 563 4550 326 
L 4902 474 
C 4826 704 4621 1069 4416 1325 
L 4083 1197 
z
M 1312 5184 
C 1562 4915 1830 4544 1946 4294 
L 2387 4499 
C 2259 4742 1978 5107 1734 5357 
L 1312 5184 
z
M 2182 1043 
C 2298 627 2368 96 2349 -250 
L 2771 -186 
C 2771 160 2707 685 2579 1094 
L 2182 1043 
z
M 3130 1101 
C 3283 742 3437 275 3482 -26 
L 3885 83 
C 3827 378 3674 838 3501 1184 
L 3130 1101 
z
M 1363 1184 
C 1242 691 992 122 640 -218 
L 1011 -474 
C 1395 -90 1619 525 1766 1056 
L 1363 1184 
z
M 3251 5382 
C 3142 5011 3008 4640 2848 4282 
L 525 4282 
L 525 3840 
L 2637 3840 
C 2086 2765 1280 1798 192 1178 
C 275 1075 397 890 454 774 
C 832 998 1178 1254 1491 1542 
L 5472 1542 
C 5370 525 5267 96 5126 -32 
C 5069 -90 5005 -96 4890 -96 
C 4768 -102 4461 -96 4134 -64 
C 4211 -192 4269 -378 4275 -506 
C 4608 -525 4922 -525 5088 -512 
C 5280 -499 5402 -461 5523 -333 
C 5728 -128 5843 410 5965 1760 
C 5971 1824 5984 1965 5984 1965 
L 5286 1965 
C 5370 2298 5459 2746 5530 3123 
L 4800 3123 
C 4883 3456 4979 3898 5050 4282 
L 3373 4282 
C 3507 4602 3629 4928 3738 5261 
L 3251 5382 
z
M 1914 1965 
C 2125 2195 2323 2445 2502 2701 
L 5005 2701 
C 4960 2445 4896 2182 4838 1965 
L 1914 1965 
z
M 3168 3840 
L 4518 3840 
C 4467 3584 4410 3328 4352 3123 
L 2778 3123 
C 2918 3354 3046 3597 3168 3840 
z
" transform="scale(0.015625)"/>
      <path id="NotoSansCJKjp-Regular-e6c1" d="M 3200 3482 
C 3456 3482 3686 3667 3686 3962 
C 3686 4256 3456 4442 3200 4442 
C 2944 4442 2714 4256 2714 3962 
C 2714 3667 2944 3482 3200 3482 
z
M 2682 -659 
C 3366 -397 3789 141 3789 883 
C 3789 1363 3590 1664 3238 1664 
C 2982 1664 2752 1504 2752 1203 
C 2752 896 2970 742 3232 742 
L 3347 755 
C 3328 256 3053 -83 2534 -320 
L 2682 -659 
z
" transform="scale(0.015625)"/>
      <path id="NotoSansCJKjp-Regular-995f" d="M 998 4685 
L 2208 4685 
L 2208 3558 
L 998 3558 
L 998 4685 
z
M 243 269 
L 326 -198 
C 1005 -38 1926 186 2803 410 
L 2758 838 
L 1914 640 
L 1914 1786 
L 2592 1786 
C 2682 1696 2771 1562 2822 1466 
C 2950 1523 3078 1581 3206 1651 
L 3206 -499 
L 3654 -499 
L 3654 -262 
L 5267 -262 
L 5267 -480 
L 5722 -480 
L 5722 1638 
L 5926 1542 
C 5997 1670 6131 1856 6227 1946 
C 5645 2163 5158 2502 4755 2893 
C 5165 3373 5491 3942 5702 4608 
L 5402 4742 
L 5312 4723 
L 4070 4723 
C 4147 4902 4211 5082 4275 5267 
L 3821 5382 
C 3578 4608 3155 3878 2650 3405 
L 2650 5107 
L 570 5107 
L 570 3136 
L 1478 3136 
L 1478 538 
L 979 422 
L 979 2534 
L 570 2534 
L 570 333 
L 243 269 
z
M 3654 160 
L 3654 1395 
L 5267 1395 
L 5267 160 
L 3654 160 
z
M 5101 4301 
C 4934 3904 4710 3546 4448 3226 
C 4179 3539 3968 3872 3814 4192 
L 3872 4301 
L 5101 4301 
z
M 3494 1811 
C 3834 2022 4166 2272 4461 2573 
C 4736 2291 5050 2029 5408 1811 
L 3494 1811 
z
M 4160 2906 
C 3731 2470 3226 2131 2714 1907 
L 2714 2214 
L 1914 2214 
L 1914 3136 
L 2650 3136 
L 2650 3341 
C 2758 3264 2918 3130 2989 3053 
C 3194 3258 3392 3507 3571 3789 
C 3731 3501 3923 3200 4160 2906 
z
" transform="scale(0.015625)"/>
      <path id="NotoSansCJKjp-Regular-720a" d="M 3405 4691 
L 5338 4691 
L 5338 3514 
L 3405 3514 
L 3405 4691 
z
M 2957 5107 
L 2957 3098 
L 5805 3098 
L 5805 5107 
L 2957 5107 
z
M 2867 1338 
L 2867 922 
L 4122 922 
L 4122 83 
L 2438 83 
L 2438 -339 
L 6163 -339 
L 6163 83 
L 4595 83 
L 4595 922 
L 5882 922 
L 5882 1338 
L 4595 1338 
L 4595 2112 
L 6022 2112 
L 6022 2534 
L 2720 2534 
L 2720 2112 
L 4122 2112 
L 4122 1338 
L 2867 1338 
z
M 2310 5286 
C 1837 5069 992 4883 275 4762 
C 333 4659 397 4499 416 4397 
C 717 4435 1037 4493 1357 4557 
L 1357 3571 
L 314 3571 
L 314 3123 
L 1293 3123 
C 1037 2387 595 1555 179 1101 
C 262 986 378 794 429 659 
C 755 1056 1094 1690 1357 2336 
L 1357 -499 
L 1830 -499 
L 1830 2259 
C 2048 1990 2304 1645 2413 1466 
L 2701 1843 
C 2573 1990 2016 2566 1830 2726 
L 1830 3123 
L 2630 3123 
L 2630 3571 
L 1830 3571 
L 1830 4666 
C 2131 4736 2413 4819 2643 4915 
L 2310 5286 
z
" transform="scale(0.015625)"/>
      <path id="NotoSansCJKjp-Regular-e6c3" d="M 5523 3386 
L 877 3386 
L 877 2944 
L 5523 2944 
L 5523 3386 
z
M 877 1939 
L 877 1498 
L 5523 1498 
L 5523 1939 
L 877 1939 
z
" transform="scale(0.015625)"/>
      <path id="NotoSansCJKjp-Regular-78fe" d="M 1907 1651 
C 2074 1274 2240 787 2304 467 
L 2669 595 
C 2605 909 2438 1395 2259 1760 
L 1907 1651 
z
M 582 1715 
C 506 1152 378 582 160 192 
C 269 154 454 64 544 6 
C 749 416 909 1037 992 1645 
L 582 1715 
z
M 4205 1869 
L 3366 1869 
L 3366 2874 
L 4205 2874 
L 4205 1869 
z
M 4614 1869 
L 4614 2874 
L 5485 2874 
L 5485 1869 
L 4614 1869 
z
M 2675 5037 
L 2675 4621 
L 3802 4621 
C 3597 4064 3123 3590 2445 3347 
C 2528 3264 2656 3104 2707 3008 
L 2925 3098 
L 2925 269 
C 2925 -339 3136 -480 3821 -480 
C 3981 -480 5146 -480 5312 -480 
C 5939 -480 6080 -237 6150 614 
C 6022 640 5843 717 5734 794 
C 5696 77 5638 -64 5293 -64 
C 5043 -64 4038 -64 3853 -64 
C 3443 -64 3366 0 3366 269 
L 3366 1440 
L 5485 1440 
L 5485 1197 
L 5933 1197 
L 5933 3296 
L 3270 3296 
C 3763 3622 4109 4090 4288 4621 
L 5382 4621 
C 5331 4128 5280 3917 5210 3840 
C 5158 3802 5107 3795 5024 3795 
C 4934 3795 4710 3795 4474 3821 
C 4538 3706 4582 3539 4589 3411 
C 4838 3398 5088 3398 5216 3411 
C 5370 3418 5472 3456 5574 3552 
C 5709 3693 5779 4038 5856 4851 
C 5862 4915 5875 5037 5875 5037 
L 2675 5037 
z
M 218 2509 
L 262 2074 
L 1267 2138 
L 1267 -525 
L 1696 -525 
L 1696 2163 
L 2202 2195 
C 2259 2054 2298 1926 2323 1818 
L 2688 1978 
C 2598 2330 2342 2880 2080 3296 
L 1741 3155 
C 1850 2982 1952 2778 2042 2579 
L 1088 2541 
C 1523 3104 2010 3853 2374 4461 
L 1971 4646 
C 1798 4301 1568 3891 1312 3494 
C 1216 3622 1082 3770 941 3917 
C 1178 4269 1453 4781 1670 5203 
L 1248 5376 
C 1114 5018 883 4538 678 4179 
L 486 4346 
L 243 4026 
C 538 3763 870 3398 1069 3117 
C 928 2899 781 2694 646 2522 
L 218 2509 
z
" transform="scale(0.015625)"/>
      <path id="NotoSansCJKjp-Regular-3d73" d="M 3693 2554 
C 3955 2086 4192 1472 4256 1082 
L 4691 1242 
C 4627 1632 4371 2234 4102 2694 
L 3693 2554 
z
M 339 5037 
C 531 4730 717 4320 781 4058 
L 1152 4230 
C 1088 4493 890 4890 685 5190 
L 339 5037 
z
M 3168 5222 
C 3053 4922 2829 4467 2662 4192 
L 2989 4045 
C 3174 4307 3398 4710 3590 5056 
L 3168 5222 
z
M 294 224 
L 358 -230 
C 1184 -122 2387 45 3514 205 
L 3501 627 
L 2138 448 
L 2138 1152 
L 3194 1152 
L 3194 1555 
L 2138 1555 
L 2138 2208 
L 3328 2208 
L 3328 2618 
L 2643 2618 
C 2778 2842 2925 3181 3066 3482 
L 2637 3603 
L 3494 3603 
L 3494 3206 
L 5005 3206 
L 5005 83 
C 5005 -32 4960 -64 4845 -70 
C 4749 -70 4397 -77 4006 -64 
C 4077 -192 4154 -397 4179 -518 
C 4704 -518 5011 -506 5203 -429 
C 5389 -352 5466 -218 5466 83 
L 5466 3206 
L 6150 3206 
L 6150 3654 
L 5466 3654 
L 5466 5338 
L 5005 5338 
L 5005 3654 
L 3558 3654 
L 3558 4013 
L 2554 4013 
L 2554 5344 
L 2157 5344 
L 2157 4013 
L 1670 4013 
L 1670 5344 
L 1274 5344 
L 1274 4013 
L 269 4013 
L 269 3603 
L 2618 3603 
C 2547 3334 2381 2957 2259 2714 
L 2592 2618 
L 1184 2618 
L 1542 2746 
C 1498 2976 1350 3328 1184 3597 
L 800 3469 
C 954 3200 1088 2848 1126 2618 
L 506 2618 
L 506 2208 
L 1690 2208 
L 1690 1555 
L 672 1555 
L 672 1152 
L 1690 1152 
L 1690 390 
L 294 224 
z
" transform="scale(0.015625)"/>
      <path id="NotoSansCJKjp-Regular-286c" d="M 3834 5376 
C 3814 5184 3782 4954 3750 4723 
L 2106 4723 
L 2106 4294 
L 3674 4294 
C 3635 4077 3597 3872 3552 3699 
L 2445 3699 
L 2445 90 
L 1830 90 
L 1830 -326 
L 6131 -326 
L 6131 90 
L 5562 90 
L 5562 3699 
L 3987 3699 
C 4038 3872 4090 4077 4134 4294 
L 5939 4294 
L 5939 4723 
L 4230 4723 
L 4346 5344 
L 3834 5376 
z
M 2880 90 
L 2880 621 
L 5114 621 
L 5114 90 
L 2880 90 
z
M 2880 2426 
L 5114 2426 
L 5114 1875 
L 2880 1875 
L 2880 2426 
z
M 2880 2784 
L 2880 3322 
L 5114 3322 
L 5114 2784 
L 2880 2784 
z
M 2880 1530 
L 5114 1530 
L 5114 973 
L 2880 973 
L 2880 1530 
z
M 1690 5370 
C 1350 4397 794 3443 205 2816 
C 288 2701 422 2451 474 2342 
C 659 2547 845 2784 1018 3040 
L 1018 -512 
L 1466 -512 
L 1466 3770 
C 1722 4230 1946 4730 2131 5229 
L 1690 5370 
z
" transform="scale(0.015625)"/>
      <path id="NotoSansCJKjp-Regular-2c76" d="M 3661 4582 
L 3661 -416 
L 4122 -416 
L 4122 58 
L 5363 58 
L 5363 -365 
L 5843 -365 
L 5843 4582 
L 3661 4582 
z
M 4122 518 
L 4122 4115 
L 5363 4115 
L 5363 518 
L 4122 518 
z
M 1248 5293 
L 1242 4160 
L 339 4160 
L 339 3693 
L 1229 3693 
C 1184 2080 986 659 179 -186 
C 301 -262 474 -410 550 -518 
C 1414 422 1638 1958 1696 3693 
L 2669 3693 
C 2618 1229 2560 352 2426 166 
C 2368 83 2304 58 2208 64 
C 2093 64 1818 64 1517 90 
C 1600 -45 1645 -250 1658 -390 
C 1946 -410 2240 -416 2419 -390 
C 2605 -365 2726 -307 2842 -141 
C 3040 134 3085 1069 3136 3917 
C 3136 3987 3136 4160 3136 4160 
L 1709 4160 
L 1722 5293 
L 1248 5293 
z
" transform="scale(0.015625)"/>
     </defs>
     <use xlink:href="#NotoSansCJKjp-Regular-2a94"/>
     <use xlink:href="#NotoSansCJKjp-Regular-3574" transform="translate(100 0)"/>
     <use xlink:href="#NotoSansCJKjp-Regular-aaab" transform="translate(200 0)"/>
     <use xlink:href="#NotoSansCJKjp-Regular-7289" transform="translate(300 0)"/>
     <use xlink:href="#NotoSansCJKjp-Regular-36fb" transform="translate(400 0)"/>
     <use xlink:href="#NotoSansCJKjp-Regular-3d78" transform="translate(500 0)"/>
     <use xlink:href="#NotoSansCJKjp-Regular-6ce8" transform="translate(600 0)"/>
     <use xlink:href="#NotoSansCJKjp-Regular-74a1" transform="translate(700 0)"/>
     <use xlink:href="#NotoSansCJKjp-Regular-1" transform="translate(800 0)"/>
     <use xlink:href="#NotoSansCJKjp-Regular-31c" transform="translate(822.40625 0)"/>
     <use xlink:href="#NotoSansCJKjp-Regular-1" transform="translate(922.40625 0)"/>
     <use xlink:href="#NotoSansCJKjp-Regular-3351" transform="translate(944.8125 0)"/>
     <use xlink:href="#NotoSansCJKjp-Regular-2bbc" transform="translate(1044.8125 0)"/>
     <use xlink:href="#NotoSansCJKjp-Regular-497f" transform="translate(1144.8125 0)"/>
     <use xlink:href="#NotoSansCJKjp-Regular-2b73" transform="translate(1244.8125 0)"/>
     <use xlink:href="#NotoSansCJKjp-Regular-b7c4" transform="translate(1344.8125 0)"/>
     <use xlink:href="#NotoSansCJKjp-Regular-26e3" transform="translate(1444.8125 0)"/>
     <use xlink:href="#NotoSansCJKjp-Regular-71ef" transform="translate(1544.8125 0)"/>
     <use xlink:href="#NotoSansCJKjp-Regular-61a1" transform="translate(1644.8125 0)"/>
     <use xlink:href="#NotoSansCJKjp-Regular-a9ba" transform="translate(1744.8125 0)"/>
     <use xlink:href="#NotoSansCJKjp-Regular-e6c1" transform="translate(1844.8125 0)"/>
     <use xlink:href="#NotoSansCJKjp-Regular-995f" transform="translate(1944.8125 0)"/>
     <use xlink:href="#NotoSansCJKjp-Regular-720a" transform="translate(2044.8125 0)"/>
     <use xlink:href="#NotoSansCJKjp-Regular-e6c3" transform="translate(2144.8125 0)"/>
     <use xlink:href="#NotoSansCJKjp-Regular-2a94" transform="translate(2244.8125 0)"/>
     <use xlink:href="#NotoSansCJKjp-Regular-3574" transform="translate(2344.8125 0)"/>
     <use xlink:href="#NotoSansCJKjp-Regular-78fe" transform="translate(2444.8125 0)"/>
     <use xlink:href="#NotoSansCJKjp-Regular-3d73" transform="translate(2544.8125 0)"/>
     <use xlink:href="#NotoSansCJKjp-Regular-286c" transform="translate(2644.8125 0)"/>
     <use xlink:href="#NotoSansCJKjp-Regular-6ce8" transform="translate(2744.8125 0)"/>
     <use xlink:href="#NotoSansCJKjp-Regular-2c76" transform="translate(2844.8125 0)"/>
    </g>
   </g>
   <g id="text_19">
    <!-- 鉛直上拋的 v–t 圖（$v_0=20$ m/s, $g=10$ m/s$^2$） -->
    <g style="fill: #222831" transform="translate(118.834375 18.64) scale(0.13 -0.13)">
     <defs>
      <path id="NotoSansCJKjp-Regular-a209" d="M 3738 5280 
C 3590 4275 3296 3379 2771 2810 
C 2886 2739 3091 2598 3168 2522 
C 3699 3149 4032 4109 4205 5216 
L 3738 5280 
z
M 5184 5312 
L 4768 5222 
C 4979 4160 5363 3098 5888 2534 
C 5971 2656 6131 2835 6246 2918 
C 5760 3398 5376 4378 5184 5312 
z
M 518 1830 
C 653 1446 755 960 774 634 
L 1139 730 
C 1107 1050 998 1536 858 1914 
L 518 1830 
z
M 2381 1990 
C 2317 1645 2189 1126 2080 813 
L 2394 717 
C 2509 1018 2650 1491 2771 1882 
L 2381 1990 
z
M 3213 2272 
L 3213 -506 
L 3654 -506 
L 3654 -134 
L 5389 -134 
L 5389 -480 
L 5850 -480 
L 5850 2272 
L 3213 2272 
z
M 3654 307 
L 3654 1830 
L 5389 1830 
L 5389 307 
L 3654 307 
z
M 1395 5376 
C 1171 4864 749 4211 141 3725 
C 237 3661 378 3514 448 3411 
L 710 3648 
L 710 3379 
L 1434 3379 
L 1434 2701 
L 384 2701 
L 384 2278 
L 1434 2278 
L 1434 326 
L 282 115 
L 397 -320 
C 1075 -186 2029 6 2918 192 
L 2893 602 
L 1862 403 
L 1862 2278 
L 2816 2278 
L 2816 2701 
L 1862 2701 
L 1862 3379 
L 2650 3379 
L 2650 3795 
L 851 3795 
C 1216 4179 1485 4589 1683 4934 
C 2061 4595 2470 4115 2682 3808 
L 3008 4179 
C 2765 4512 2246 5024 1830 5376 
L 1395 5376 
z
" transform="scale(0.015625)"/>
      <path id="NotoSansCJKjp-Regular-6ce1" d="M 2374 2586 
L 4832 2586 
L 4832 2061 
L 2374 2061 
L 2374 2586 
z
M 2374 1715 
L 4832 1715 
L 4832 1178 
L 2374 1178 
L 2374 1715 
z
M 2374 3456 
L 4832 3456 
L 4832 2931 
L 2374 2931 
L 2374 3456 
z
M 736 3635 
L 736 -518 
L 1203 -518 
L 1203 -179 
L 6080 -179 
L 6080 269 
L 1203 269 
L 1203 3635 
L 736 3635 
z
M 3053 5395 
L 3008 4787 
L 397 4787 
L 397 4339 
L 2963 4339 
L 2899 3814 
L 1914 3814 
L 1914 813 
L 5306 813 
L 5306 3814 
L 3379 3814 
L 3469 4339 
L 6029 4339 
L 6029 4787 
L 3533 4787 
L 3603 5363 
L 3053 5395 
z
" transform="scale(0.015625)"/>
      <path id="NotoSansCJKjp-Regular-6c33" d="M 3533 2707 
C 3885 2240 4320 1600 4512 1210 
L 4922 1466 
C 4710 1843 4269 2464 3904 2918 
L 3533 2707 
z
M 1536 5389 
C 1485 5082 1376 4659 1274 4346 
L 557 4346 
L 557 -346 
L 998 -346 
L 998 160 
L 2784 160 
L 2784 4346 
L 1715 4346 
C 1824 4621 1946 4979 2054 5299 
L 1536 5389 
z
M 998 3917 
L 2342 3917 
L 2342 2566 
L 998 2566 
L 998 3917 
z
M 998 595 
L 998 2144 
L 2342 2144 
L 2342 595 
L 998 595 
z
M 3827 5402 
C 3622 4518 3277 3635 2835 3066 
C 2950 3002 3149 2867 3238 2790 
C 3456 3098 3661 3488 3840 3923 
L 5478 3923 
C 5402 1357 5299 371 5094 154 
C 5018 64 4947 45 4819 45 
C 4672 45 4288 51 3866 83 
C 3955 -38 4013 -243 4026 -378 
C 4384 -397 4762 -410 4979 -390 
C 5210 -365 5350 -314 5498 -122 
C 5754 192 5843 1184 5939 4122 
C 5946 4186 5946 4365 5946 4365 
L 4013 4365 
C 4115 4666 4211 4986 4288 5299 
L 3827 5402 
z
" transform="scale(0.015625)"/>
      <path id="NotoSansCJKjp-Regular-2d1" d="M 294 1600 
L 3136 1600 
L 3136 1997 
L 294 1997 
L 294 1600 
z
" transform="scale(0.015625)"/>
      <path id="NotoSansCJKjp-Regular-55" d="M 1677 -83 
C 1894 -83 2125 -19 2323 45 
L 2208 486 
C 2093 435 1939 390 1811 390 
C 1408 390 1274 634 1274 1056 
L 1274 3002 
L 2221 3002 
L 2221 3475 
L 1274 3475 
L 1274 4454 
L 787 4454 
L 723 3475 
L 173 3443 
L 173 3002 
L 691 3002 
L 691 1075 
C 691 378 941 -83 1677 -83 
z
" transform="scale(0.015625)"/>
      <path id="NotoSansCJKjp-Regular-33ac" d="M 2317 4122 
L 4058 4122 
L 4058 3699 
L 2317 3699 
L 2317 4122 
z
M 2099 2234 
L 4275 2234 
L 4275 806 
L 2099 806 
L 2099 2234 
z
M 1715 2534 
L 1715 506 
L 4678 506 
L 4678 2534 
L 1715 2534 
z
M 2810 1709 
L 3552 1709 
L 3552 1331 
L 2810 1331 
L 2810 1709 
z
M 2509 1965 
L 2509 1082 
L 3872 1082 
L 3872 1965 
L 2509 1965 
z
M 1280 3117 
L 1280 2816 
L 5133 2816 
L 5133 3117 
L 3386 3117 
L 3386 3411 
L 4474 3411 
L 4474 4403 
L 1920 4403 
L 1920 3411 
L 2970 3411 
L 2970 3117 
L 1280 3117 
z
M 525 5114 
L 525 -506 
L 979 -506 
L 979 -250 
L 5421 -250 
L 5421 -506 
L 5888 -506 
L 5888 5114 
L 525 5114 
z
M 979 154 
L 979 4710 
L 5421 4710 
L 5421 154 
L 979 154 
z
" transform="scale(0.015625)"/>
      <path id="Cmr10-29" d="M 481 850 
Q 428 850 393 890 
Q 359 931 359 978 
Q 359 1031 393 1068 
Q 428 1106 481 1106 
L 4500 1106 
Q 4547 1106 4581 1068 
Q 4616 1031 4616 978 
Q 4616 931 4581 890 
Q 4547 850 4500 850 
L 481 850 
z
M 481 2094 
Q 428 2094 393 2131 
Q 359 2169 359 2222 
Q 359 2269 393 2309 
Q 428 2350 481 2350 
L 4500 2350 
Q 4547 2350 4581 2309 
Q 4616 2269 4616 2222 
Q 4616 2169 4581 2131 
Q 4547 2094 4500 2094 
L 481 2094 
z
" transform="scale(0.015625)"/>
      <path id="Cmr10-31" d="M 319 0 
L 319 172 
Q 319 188 331 206 
L 1325 1306 
Q 1550 1550 1690 1715 
Q 1831 1881 1968 2097 
Q 2106 2313 2186 2536 
Q 2266 2759 2266 3009 
Q 2266 3272 2169 3511 
Q 2072 3750 1880 3894 
Q 1688 4038 1416 4038 
Q 1138 4038 916 3870 
Q 694 3703 603 3438 
Q 628 3444 672 3444 
Q 816 3444 917 3347 
Q 1019 3250 1019 3097 
Q 1019 2950 917 2848 
Q 816 2747 672 2747 
Q 522 2747 420 2851 
Q 319 2956 319 3097 
Q 319 3338 409 3548 
Q 500 3759 670 3923 
Q 841 4088 1055 4175 
Q 1269 4263 1509 4263 
Q 1875 4263 2190 4108 
Q 2506 3953 2690 3670 
Q 2875 3388 2875 3009 
Q 2875 2731 2753 2481 
Q 2631 2231 2440 2026 
Q 2250 1822 1953 1562 
Q 1656 1303 1563 1216 
L 838 519 
L 1453 519 
Q 1906 519 2211 526 
Q 2516 534 2534 550 
Q 2609 631 2688 1141 
L 2875 1141 
L 2694 0 
L 319 0 
z
" transform="scale(0.015625)"/>
      <path id="NotoSansCJKjp-Regular-d" d="M 480 -1216 
C 1056 -973 1414 -493 1414 122 
C 1414 550 1229 806 922 806 
C 685 806 480 653 480 397 
C 480 141 678 -13 909 -13 
L 979 -6 
C 973 -390 736 -698 339 -870 
L 480 -1216 
z
" transform="scale(0.015625)"/>
      <path id="Cmmi10-2f" d="M 91 -916 
Q 91 -759 198 -642 
Q 306 -525 459 -525 
Q 563 -525 633 -589 
Q 703 -653 703 -756 
Q 703 -872 637 -964 
Q 572 -1056 469 -1094 
Q 641 -1147 1006 -1147 
Q 1300 -1147 1544 -920 
Q 1788 -694 1863 -397 
L 2047 353 
Q 1700 0 1325 0 
Q 1050 0 854 140 
Q 659 281 556 515 
Q 453 750 453 1013 
Q 453 1306 573 1628 
Q 694 1950 911 2225 
Q 1128 2500 1409 2664 
Q 1691 2828 2003 2828 
Q 2191 2828 2341 2725 
Q 2491 2622 2578 2450 
Q 2641 2700 2853 2700 
Q 2934 2700 2990 2651 
Q 3047 2603 3047 2522 
Q 3047 2503 3045 2493 
Q 3044 2484 3041 2472 
L 2309 -434 
Q 2259 -634 2125 -800 
Q 1991 -966 1809 -1077 
Q 1628 -1188 1412 -1250 
Q 1197 -1313 997 -1313 
Q 631 -1313 361 -1242 
Q 91 -1172 91 -916 
z
M 1338 166 
Q 1747 166 2144 728 
L 2497 2125 
Q 2453 2347 2322 2505 
Q 2191 2663 1991 2663 
Q 1778 2663 1589 2489 
Q 1400 2316 1275 2075 
Q 1156 1844 1045 1411 
Q 934 978 934 728 
Q 934 509 1034 337 
Q 1134 166 1338 166 
z
" transform="scale(0.015625)"/>
      <path id="Cmr10-64" d="M 594 0 
L 594 225 
Q 1394 225 1394 428 
L 1394 3788 
Q 1063 3628 556 3628 
L 556 3853 
Q 1341 3853 1741 4263 
L 1831 4263 
Q 1853 4263 1873 4245 
Q 1894 4228 1894 4206 
L 1894 428 
Q 1894 225 2694 225 
L 2694 0 
L 594 0 
z
" transform="scale(0.015625)"/>
     </defs>
     <use xlink:href="#NotoSansCJKjp-Regular-a209" transform="translate(0 0.084203)"/>
     <use xlink:href="#NotoSansCJKjp-Regular-6ce1" transform="translate(99.999908 0.084203)"/>
     <use xlink:href="#NotoSansCJKjp-Regular-2515" transform="translate(199.999817 0.084203)"/>
     <use xlink:href="#NotoSansCJKjp-Regular-497f" transform="translate(299.999725 0.084203)"/>
     <use xlink:href="#NotoSansCJKjp-Regular-6c33" transform="translate(399.999634 0.084203)"/>
     <use xlink:href="#NotoSansCJKjp-Regular-1" transform="translate(499.999542 0.084203)"/>
     <use xlink:href="#NotoSansCJKjp-Regular-57" transform="translate(522.399521 0.084203)"/>
     <use xlink:href="#NotoSansCJKjp-Regular-2d1" transform="translate(574.499466 0.084203)"/>
     <use xlink:href="#NotoSansCJKjp-Regular-55" transform="translate(628.099411 0.084203)"/>
     <use xlink:href="#NotoSansCJKjp-Regular-1" transform="translate(665.799377 0.084203)"/>
     <use xlink:href="#NotoSansCJKjp-Regular-33ac" transform="translate(688.199356 0.084203)"/>
     <use xlink:href="#NotoSansCJKjp-Regular-e6ae" transform="translate(788.199265 0.084203)"/>
     <use xlink:href="#Cmmi10-38" transform="translate(888.199173 0.084203)"/>
     <use xlink:href="#Cmr10-28" transform="translate(936.587845 -14.915759) scale(0.7)"/>
     <use xlink:href="#Cmr10-29" transform="translate(997.308318 0.084203)"/>
     <use xlink:href="#Cmr10-31" transform="translate(1094.993922 0.084203)"/>
     <use xlink:href="#Cmr10-28" transform="translate(1144.993922 0.084203)"/>
     <use xlink:href="#NotoSansCJKjp-Regular-1" transform="translate(1194.993922 0.084203)"/>
     <use xlink:href="#NotoSansCJKjp-Regular-4e" transform="translate(1217.3939 0.084203)"/>
     <use xlink:href="#NotoSansCJKjp-Regular-10" transform="translate(1309.993815 0.084203)"/>
     <use xlink:href="#NotoSansCJKjp-Regular-54" transform="translate(1349.193781 0.084203)"/>
     <use xlink:href="#NotoSansCJKjp-Regular-d" transform="translate(1395.993739 0.084203)"/>
     <use xlink:href="#NotoSansCJKjp-Regular-1" transform="translate(1423.793711 0.084203)"/>
     <use xlink:href="#Cmmi10-2f" transform="translate(1446.19369 0.084203)"/>
     <use xlink:href="#Cmr10-29" transform="translate(1513.898825 0.084203)"/>
     <use xlink:href="#Cmr10-64" transform="translate(1611.584429 0.084203)"/>
     <use xlink:href="#Cmr10-28" transform="translate(1661.584429 0.084203)"/>
     <use xlink:href="#NotoSansCJKjp-Regular-1" transform="translate(1711.584429 0.084203)"/>
     <use xlink:href="#NotoSansCJKjp-Regular-4e" transform="translate(1733.984408 0.084203)"/>
     <use xlink:href="#NotoSansCJKjp-Regular-10" transform="translate(1826.584322 0.084203)"/>
     <use xlink:href="#NotoSansCJKjp-Regular-54" transform="translate(1865.784289 0.084203)"/>
     <use xlink:href="#Cmr10-31" transform="translate(1916.588537 41.373437) scale(0.7)"/>
     <use xlink:href="#NotoSansCJKjp-Regular-e6af" transform="translate(1957.308952 0.084203)"/>
    </g>
   </g>
   <g id="line2d_22">
    <path d="M 80.6381 44.351373 
L 400.575355 241.465098 
L 400.575355 241.465098 
" clip-path="url(#p851bed1b87)" style="fill: none; stroke: #222831; stroke-width: 2.8; stroke-linecap: square"/>
   </g>
   <g id="line2d_23">
    <defs>
     <path id="mdf32d9a5d8" d="M 0 4 
C 1.060812 4 2.078319 3.578535 2.828427 2.828427 
C 3.578535 2.078319 4 1.060812 4 0 
C 4 -1.060812 3.578535 -2.078319 2.828427 -2.828427 
C 2.078319 -3.578535 1.060812 -4 0 -4 
C -1.060812 -4 -2.078319 -3.578535 -2.828427 -2.828427 
C -3.578535 -2.078319 -4 -1.060812 -4 0 
C -4 1.060812 -3.578535 2.078319 -2.828427 2.828427 
C -2.078319 3.578535 -1.060812 4 0 4 
z
" style="stroke: #bf8700"/>
    </defs>
    <g clip-path="url(#p851bed1b87)">
     <use xlink:href="#mdf32d9a5d8" x="240.606728" y="142.908235" style="fill: #bf8700; stroke: #bf8700"/>
    </g>
   </g>
   <g id="line2d_24">
    <defs>
     <path id="m3c6a8b2434" d="M 0 3 
C 0.795609 3 1.55874 2.683901 2.12132 2.12132 
C 2.683901 1.55874 3 0.795609 3 0 
C 3 -0.795609 2.683901 -1.55874 2.12132 -2.12132 
C 1.55874 -2.683901 0.795609 -3 0 -3 
C -0.795609 -3 -1.55874 -2.683901 -2.12132 -2.12132 
C -2.683901 -1.55874 -3 -0.795609 -3 0 
C -3 0.795609 -2.683901 1.55874 -2.12132 2.12132 
C -1.55874 2.683901 -0.795609 3 0 3 
z
" style="stroke: #1f6feb"/>
    </defs>
    <g clip-path="url(#p851bed1b87)">
     <use xlink:href="#m3c6a8b2434" x="80.6381" y="44.351373" style="fill: #1f6feb; stroke: #1f6feb"/>
    </g>
   </g>
   <g id="line2d_25">
    <defs>
     <path id="m7a52342fca" d="M 0 3 
C 0.795609 3 1.55874 2.683901 2.12132 2.12132 
C 2.683901 1.55874 3 0.795609 3 0 
C 3 -0.795609 2.683901 -1.55874 2.12132 -2.12132 
C 1.55874 -2.683901 0.795609 -3 0 -3 
C -0.795609 -3 -1.55874 -2.683901 -2.12132 -2.12132 
C -2.683901 -1.55874 -3 -0.795609 -3 0 
C -3 0.795609 -2.683901 1.55874 -2.12132 2.12132 
C -1.55874 2.683901 -0.795609 3 0 3 
z
" style="stroke: #d1242f"/>
    </defs>
    <g clip-path="url(#p851bed1b87)">
     <use xlink:href="#m7a52342fca" x="400.575355" y="241.465098" style="fill: #d1242f; stroke: #d1242f"/>
    </g>
   </g>
  </g>
 </g>
 <defs>
  <clipPath id="p851bed1b87">
   <rect x="48.644375" y="24.64" width="407.92" height="251.32"/>
  </clipPath>
 </defs>
</svg>
