<?xml version="1.0" encoding="utf-8" standalone="no"?>
<!DOCTYPE svg PUBLIC "-//W3C//DTD SVG 1.1//EN"
  "http://www.w3.org/Graphics/SVG/1.1/DTD/svg11.dtd">
<svg xmlns:xlink="http://www.w3.org/1999/xlink" width="694.2pt" height="290.834375pt" viewBox="0 0 694.2 290.834375" xmlns="http://www.w3.org/2000/svg" version="1.1">
 <metadata>
  <rdf:RDF xmlns:dc="http://purl.org/dc/elements/1.1/" xmlns:cc="http://creativecommons.org/ns#" xmlns:rdf="http://www.w3.org/1999/02/22-rdf-syntax-ns#">
   <cc:Work>
    <dc:type rdf:resource="http://purl.org/dc/dcmitype/StillImage"/>
    <dc:date>2026-06-19T00:14:00.484656</dc:date>
    <dc:format>image/svg+xml</dc:format>
    <dc:creator>
     <cc:Agent>
      <dc:title>Matplotlib v3.11.0, https://matplotlib.org/</dc:title>
     </cc:Agent>
    </dc:creator>
   </cc:Work>
  </rdf:RDF>
 </metadata>
 <defs>
  <style type="text/css">*{stroke-linejoin: round; stroke-linecap: butt}</style>
 </defs>
 <g id="figure_1">
  <g id="patch_1">
   <path d="M 0 290.834375 
L 694.2 290.834375 
L 694.2 0 
L 0 0 
z
" style="fill: #ffffff"/>
  </g>
  <g id="axes_1">
   <g id="patch_2">
    <path d="M 44.48 247.674375 
L 340.68 247.674375 
L 340.68 25.52 
L 44.48 25.52 
z
" style="fill: #ffffff"/>
   </g>
   <g id="matplotlib.axis_1">
    <g id="xtick_1">
     <g id="line2d_1">
      <path d="M 44.48 247.674375 
L 44.48 25.52 
" clip-path="url(#p647a854d35)" style="fill: none; stroke: #d8dde3; stroke-width: 0.9; stroke-linecap: square"/>
     </g>
     <g id="line2d_2">
      <defs>
       <path id="m9a386e616d" d="M 0 0 
L 0 3.5 
" style="stroke: #222831; stroke-width: 0.8"/>
      </defs>
      <g>
       <use xlink:href="#m9a386e616d" x="44.48" y="247.674375" style="fill: #222831; stroke: #222831; stroke-width: 0.8"/>
      </g>
     </g>
     <g id="text_1">
      <!-- 0 -->
      <g style="fill: #222831" transform="translate(41.15 265.234375) scale(0.12 -0.12)">
       <defs>
        <path id="NotoSansCJKjp-Regular-11" d="M 1779 -83 
C 2669 -83 3238 723 3238 2362 
C 3238 3987 2669 4774 1779 4774 
C 883 4774 320 3987 320 2362 
C 320 723 883 -83 1779 -83 
z
M 1779 390 
C 1248 390 883 986 883 2362 
C 883 3731 1248 4314 1779 4314 
C 2310 4314 2675 3731 2675 2362 
C 2675 986 2310 390 1779 390 
z
" transform="scale(0.015625)"/>
       </defs>
       <use xlink:href="#NotoSansCJKjp-Regular-11"/>
      </g>
     </g>
    </g>
    <g id="xtick_2">
     <g id="line2d_3">
      <path d="M 89.358788 247.674375 
L 89.358788 25.52 
" clip-path="url(#p647a854d35)" style="fill: none; stroke: #d8dde3; stroke-width: 0.9; stroke-linecap: square"/>
     </g>
     <g id="line2d_4">
      <g>
       <use xlink:href="#m9a386e616d" x="89.358788" y="247.674375" style="fill: #222831; stroke: #222831; stroke-width: 0.8"/>
      </g>
     </g>
     <g id="text_2">
      <!-- 1 -->
      <g style="fill: #222831" transform="translate(86.028788 265.234375) scale(0.12 -0.12)">
       <defs>
        <path id="NotoSansCJKjp-Regular-12" d="M 563 0 
L 3136 0 
L 3136 486 
L 2195 486 
L 2195 4691 
L 1747 4691 
C 1491 4544 1190 4435 774 4358 
L 774 3987 
L 1613 3987 
L 1613 486 
L 563 486 
L 563 0 
z
" transform="scale(0.015625)"/>
       </defs>
       <use xlink:href="#NotoSansCJKjp-Regular-12"/>
      </g>
     </g>
    </g>
    <g id="xtick_3">
     <g id="line2d_5">
      <path d="M 134.237576 247.674375 
L 134.237576 25.52 
" clip-path="url(#p647a854d35)" style="fill: none; stroke: #d8dde3; stroke-width: 0.9; stroke-linecap: square"/>
     </g>
     <g id="line2d_6">
      <g>
       <use xlink:href="#m9a386e616d" x="134.237576" y="247.674375" style="fill: #222831; stroke: #222831; stroke-width: 0.8"/>
      </g>
     </g>
     <g id="text_3">
      <!-- 2 -->
      <g style="fill: #222831" transform="translate(130.907576 265.234375) scale(0.12 -0.12)">
       <defs>
        <path id="NotoSansCJKjp-Regular-13" d="M 282 0 
L 3232 0 
L 3232 506 
L 1933 506 
C 1696 506 1408 480 1165 461 
C 2266 1504 3008 2458 3008 3398 
C 3008 4230 2477 4774 1638 4774 
C 1043 4774 634 4506 256 4090 
L 595 3757 
C 858 4070 1184 4301 1568 4301 
C 2150 4301 2432 3910 2432 3373 
C 2432 2566 1754 1632 282 346 
L 282 0 
z
" transform="scale(0.015625)"/>
       </defs>
       <use xlink:href="#NotoSansCJKjp-Regular-13"/>
      </g>
     </g>
    </g>
    <g id="xtick_4">
     <g id="line2d_7">
      <path d="M 179.116364 247.674375 
L 179.116364 25.52 
" clip-path="url(#p647a854d35)" style="fill: none; stroke: #d8dde3; stroke-width: 0.9; stroke-linecap: square"/>
     </g>
     <g id="line2d_8">
      <g>
       <use xlink:href="#m9a386e616d" x="179.116364" y="247.674375" style="fill: #222831; stroke: #222831; stroke-width: 0.8"/>
      </g>
     </g>
     <g id="text_4">
      <!-- 3 -->
      <g style="fill: #222831" transform="translate(175.786364 265.234375) scale(0.12 -0.12)">
       <defs>
        <path id="NotoSansCJKjp-Regular-14" d="M 1683 -83 
C 2522 -83 3194 416 3194 1254 
C 3194 1901 2752 2310 2202 2445 
L 2202 2477 
C 2701 2650 3034 3034 3034 3603 
C 3034 4346 2458 4774 1664 4774 
C 1126 4774 710 4538 358 4218 
L 672 3846 
C 941 4115 1267 4301 1645 4301 
C 2138 4301 2438 4006 2438 3558 
C 2438 3053 2112 2662 1139 2662 
L 1139 2214 
C 2227 2214 2598 1843 2598 1274 
C 2598 736 2208 403 1645 403 
C 1114 403 762 659 486 941 
L 186 563 
C 493 224 954 -83 1683 -83 
z
" transform="scale(0.015625)"/>
       </defs>
       <use xlink:href="#NotoSansCJKjp-Regular-14"/>
      </g>
     </g>
    </g>
    <g id="xtick_5">
     <g id="line2d_9">
      <path d="M 223.995152 247.674375 
L 223.995152 25.52 
" clip-path="url(#p647a854d35)" style="fill: none; stroke: #d8dde3; stroke-width: 0.9; stroke-linecap: square"/>
     </g>
     <g id="line2d_10">
      <g>
       <use xlink:href="#m9a386e616d" x="223.995152" y="247.674375" style="fill: #222831; stroke: #222831; stroke-width: 0.8"/>
      </g>
     </g>
     <g id="text_5">
      <!-- 4 -->
      <g style="fill: #222831" transform="translate(220.665152 265.234375) scale(0.12 -0.12)">
       <defs>
        <path id="NotoSansCJKjp-Regular-15" d="M 2176 0 
L 2726 0 
L 2726 1293 
L 3354 1293 
L 3354 1760 
L 2726 1760 
L 2726 4691 
L 2080 4691 
L 128 1677 
L 128 1293 
L 2176 1293 
L 2176 0 
z
M 2176 1760 
L 736 1760 
L 1805 3360 
C 1939 3590 2067 3827 2182 4051 
L 2208 4051 
C 2195 3814 2176 3430 2176 3200 
L 2176 1760 
z
" transform="scale(0.015625)"/>
       </defs>
       <use xlink:href="#NotoSansCJKjp-Regular-15"/>
      </g>
     </g>
    </g>
    <g id="xtick_6">
     <g id="line2d_11">
      <path d="M 268.873939 247.674375 
L 268.873939 25.52 
" clip-path="url(#p647a854d35)" style="fill: none; stroke: #d8dde3; stroke-width: 0.9; stroke-linecap: square"/>
     </g>
     <g id="line2d_12">
      <g>
       <use xlink:href="#m9a386e616d" x="268.873939" y="247.674375" style="fill: #222831; stroke: #222831; stroke-width: 0.8"/>
      </g>
     </g>
     <g id="text_6">
      <!-- 5 -->
      <g style="fill: #222831" transform="translate(265.543939 265.234375) scale(0.12 -0.12)">
       <defs>
        <path id="NotoSansCJKjp-Regular-16" d="M 1677 -83 
C 2464 -83 3213 499 3213 1523 
C 3213 2560 2573 3021 1798 3021 
C 1517 3021 1306 2950 1094 2835 
L 1216 4192 
L 2982 4192 
L 2982 4691 
L 704 4691 
L 550 2502 
L 864 2304 
C 1133 2483 1331 2579 1645 2579 
C 2234 2579 2618 2182 2618 1510 
C 2618 826 2176 403 1619 403 
C 1075 403 730 653 467 922 
L 173 538 
C 493 224 941 -83 1677 -83 
z
" transform="scale(0.015625)"/>
       </defs>
       <use xlink:href="#NotoSansCJKjp-Regular-16"/>
      </g>
     </g>
    </g>
    <g id="xtick_7">
     <g id="line2d_13">
      <path d="M 313.752727 247.674375 
L 313.752727 25.52 
" clip-path="url(#p647a854d35)" style="fill: none; stroke: #d8dde3; stroke-width: 0.9; stroke-linecap: square"/>
     </g>
     <g id="line2d_14">
      <g>
       <use xlink:href="#m9a386e616d" x="313.752727" y="247.674375" style="fill: #222831; stroke: #222831; stroke-width: 0.8"/>
      </g>
     </g>
     <g id="text_7">
      <!-- 6 -->
      <g style="fill: #222831" transform="translate(310.422727 265.234375) scale(0.12 -0.12)">
       <defs>
        <path id="NotoSansCJKjp-Regular-17" d="M 1926 -83 
C 2656 -83 3277 531 3277 1440 
C 3277 2426 2765 2912 1971 2912 
C 1606 2912 1197 2701 909 2349 
C 934 3802 1466 4294 2118 4294 
C 2400 4294 2682 4154 2861 3936 
L 3194 4294 
C 2931 4576 2579 4774 2093 4774 
C 1184 4774 358 4077 358 2240 
C 358 691 1030 -83 1926 -83 
z
M 922 1882 
C 1229 2317 1587 2477 1875 2477 
C 2445 2477 2720 2074 2720 1440 
C 2720 800 2374 378 1926 378 
C 1338 378 986 909 922 1882 
z
" transform="scale(0.015625)"/>
       </defs>
       <use xlink:href="#NotoSansCJKjp-Regular-17"/>
      </g>
     </g>
    </g>
    <g id="text_8">
     <!-- 時間 $t$ (s) -->
     <g style="fill: #222831" transform="translate(168.82 281.234375) scale(0.12 -0.12)">
      <defs>
       <path id="NotoSansCJKjp-Regular-4f87" d="M 2848 1338 
C 3174 998 3520 525 3661 211 
L 4070 461 
C 3923 781 3558 1235 3232 1562 
L 2848 1338 
z
M 4038 5382 
L 4038 4614 
L 2694 4614 
L 2694 4186 
L 4038 4186 
L 4038 3373 
L 2426 3373 
L 2426 2938 
L 4883 2938 
L 4883 2214 
L 2458 2214 
L 2458 1786 
L 4883 1786 
L 4883 64 
C 4883 -32 4851 -58 4749 -58 
C 4646 -64 4282 -64 3891 -51 
C 3962 -186 4032 -378 4051 -506 
C 4570 -506 4890 -499 5094 -422 
C 5293 -352 5357 -218 5357 58 
L 5357 1786 
L 6106 1786 
L 6106 2214 
L 5357 2214 
L 5357 2938 
L 6170 2938 
L 6170 3373 
L 4512 3373 
L 4512 4186 
L 5901 4186 
L 5901 4614 
L 4512 4614 
L 4512 5382 
L 4038 5382 
z
M 1862 2662 
L 1862 1184 
L 934 1184 
L 934 2662 
L 1862 2662 
z
M 1862 3098 
L 934 3098 
L 934 4518 
L 1862 4518 
L 1862 3098 
z
M 486 4960 
L 486 224 
L 934 224 
L 934 749 
L 2317 749 
L 2317 4960 
L 486 4960 
z
" transform="scale(0.015625)"/>
       <path id="NotoSansCJKjp-Regular-a774" d="M 3936 1082 
L 3936 461 
L 2432 461 
L 2432 1082 
L 3936 1082 
z
M 3936 1453 
L 2432 1453 
L 2432 2042 
L 3936 2042 
L 3936 1453 
z
M 1997 2419 
L 1997 -243 
L 2432 -243 
L 2432 83 
L 4384 83 
L 4384 2419 
L 1997 2419 
z
M 2451 3840 
L 2451 3270 
L 1056 3270 
L 1056 3840 
L 2451 3840 
z
M 2451 4192 
L 1056 4192 
L 1056 4730 
L 2451 4730 
L 2451 4192 
z
M 5376 3840 
L 5376 3264 
L 3936 3264 
L 3936 3840 
L 5376 3840 
z
M 5376 4192 
L 3936 4192 
L 3936 4730 
L 5376 4730 
L 5376 4192 
z
M 5619 5101 
L 3482 5101 
L 3482 2893 
L 5376 2893 
L 5376 128 
C 5376 13 5338 -19 5229 -26 
C 5114 -26 4723 -32 4333 -19 
C 4403 -154 4474 -378 4499 -512 
C 5030 -512 5376 -506 5581 -422 
C 5792 -339 5862 -186 5862 122 
L 5862 5101 
L 5619 5101 
z
M 576 5101 
L 576 -518 
L 1056 -518 
L 1056 2906 
L 2899 2906 
L 2899 5101 
L 576 5101 
z
" transform="scale(0.015625)"/>
       <path id="NotoSansCJKjp-Regular-1" transform="scale(0.015625)"/>
       <path id="Cmmi10-30" d="M 397 519 
Q 397 613 416 697 
L 878 2534 
L 206 2534 
Q 141 2534 141 2619 
Q 166 2759 225 2759 
L 934 2759 
L 1191 3803 
Q 1216 3888 1291 3947 
Q 1366 4006 1459 4006 
Q 1541 4006 1595 3957 
Q 1650 3909 1650 3828 
Q 1650 3809 1648 3798 
Q 1647 3788 1644 3775 
L 1388 2759 
L 2047 2759 
Q 2113 2759 2113 2675 
Q 2109 2659 2100 2621 
Q 2091 2584 2075 2559 
Q 2059 2534 2028 2534 
L 1331 2534 
L 872 684 
Q 825 503 825 372 
Q 825 97 1013 97 
Q 1294 97 1511 361 
Q 1728 625 1844 941 
Q 1869 978 1894 978 
L 1972 978 
Q 1997 978 2012 961 
Q 2028 944 2028 922 
Q 2028 909 2022 903 
Q 1881 516 1612 222 
Q 1344 -72 997 -72 
Q 744 -72 570 93 
Q 397 259 397 519 
z
" transform="scale(0.015625)"/>
       <path id="NotoSansCJKjp-Regular-9" d="M 1530 -1254 
L 1888 -1094 
C 1338 -186 1075 902 1075 1990 
C 1075 3072 1338 4154 1888 5069 
L 1530 5235 
C 941 4275 589 3245 589 1990 
C 589 730 941 -301 1530 -1254 
z
" transform="scale(0.015625)"/>
       <path id="NotoSansCJKjp-Regular-54" d="M 1498 -83 
C 2317 -83 2758 384 2758 947 
C 2758 1606 2208 1811 1702 2003 
C 1312 2150 954 2278 954 2605 
C 954 2880 1158 3110 1600 3110 
C 1907 3110 2150 2976 2387 2803 
L 2669 3168 
C 2406 3386 2022 3565 1594 3565 
C 832 3565 397 3130 397 2579 
C 397 1984 922 1754 1408 1574 
C 1792 1434 2202 1267 2202 915 
C 2202 614 1978 371 1517 371 
C 1101 371 794 538 486 787 
L 205 397 
C 531 122 1005 -83 1498 -83 
z
" transform="scale(0.015625)"/>
       <path id="NotoSansCJKjp-Regular-a" d="M 634 -1254 
C 1222 -301 1574 730 1574 1990 
C 1574 3245 1222 4275 634 5235 
L 269 5069 
C 819 4154 1094 3072 1094 1990 
C 1094 902 819 -186 269 -1094 
L 634 -1254 
z
" transform="scale(0.015625)"/>
      </defs>
      <use xlink:href="#NotoSansCJKjp-Regular-4f87" transform="translate(0 0.90625)"/>
      <use xlink:href="#NotoSansCJKjp-Regular-a774" transform="translate(99.999908 0.90625)"/>
      <use xlink:href="#NotoSansCJKjp-Regular-1" transform="translate(199.999817 0.90625)"/>
      <use xlink:href="#Cmmi10-30" transform="translate(222.399796 0.90625)"/>
      <use xlink:href="#NotoSansCJKjp-Regular-1" transform="translate(258.48378 0.90625)"/>
      <use xlink:href="#NotoSansCJKjp-Regular-9" transform="translate(280.883759 0.90625)"/>
      <use xlink:href="#NotoSansCJKjp-Regular-54" transform="translate(314.683731 0.90625)"/>
      <use xlink:href="#NotoSansCJKjp-Regular-a" transform="translate(361.483688 0.90625)"/>
     </g>
    </g>
   </g>
   <g id="matplotlib.axis_2">
    <g id="ytick_1">
     <g id="line2d_15">
      <path d="M 44.48 247.674375 
L 340.68 247.674375 
" clip-path="url(#p647a854d35)" style="fill: none; stroke: #d8dde3; stroke-width: 0.9; stroke-linecap: square"/>
     </g>
     <g id="line2d_16">
      <defs>
       <path id="m364b56a399" d="M 0 0 
L -3.5 0 
" style="stroke: #222831; stroke-width: 0.8"/>
      </defs>
      <g>
       <use xlink:href="#m364b56a399" x="44.48" y="247.674375" style="fill: #222831; stroke: #222831; stroke-width: 0.8"/>
      </g>
     </g>
     <g id="text_9">
      <!-- 0 -->
      <g style="fill: #222831" transform="translate(30.82 252.954375) scale(0.12 -0.12)">
       <use xlink:href="#NotoSansCJKjp-Regular-11"/>
      </g>
     </g>
    </g>
    <g id="ytick_2">
     <g id="line2d_17">
      <path d="M 44.48 204.114694 
L 340.68 204.114694 
" clip-path="url(#p647a854d35)" style="fill: none; stroke: #d8dde3; stroke-width: 0.9; stroke-linecap: square"/>
     </g>
     <g id="line2d_18">
      <g>
       <use xlink:href="#m364b56a399" x="44.48" y="204.114694" style="fill: #222831; stroke: #222831; stroke-width: 0.8"/>
      </g>
     </g>
     <g id="text_10">
      <!-- 2 -->
      <g style="fill: #222831" transform="translate(30.82 209.394694) scale(0.12 -0.12)">
       <use xlink:href="#NotoSansCJKjp-Regular-13"/>
      </g>
     </g>
    </g>
    <g id="ytick_3">
     <g id="line2d_19">
      <path d="M 44.48 160.555012 
L 340.68 160.555012 
" clip-path="url(#p647a854d35)" style="fill: none; stroke: #d8dde3; stroke-width: 0.9; stroke-linecap: square"/>
     </g>
     <g id="line2d_20">
      <g>
       <use xlink:href="#m364b56a399" x="44.48" y="160.555012" style="fill: #222831; stroke: #222831; stroke-width: 0.8"/>
      </g>
     </g>
     <g id="text_11">
      <!-- 4 -->
      <g style="fill: #222831" transform="translate(30.82 165.835012) scale(0.12 -0.12)">
       <use xlink:href="#NotoSansCJKjp-Regular-15"/>
      </g>
     </g>
    </g>
    <g id="ytick_4">
     <g id="line2d_21">
      <path d="M 44.48 116.995331 
L 340.68 116.995331 
" clip-path="url(#p647a854d35)" style="fill: none; stroke: #d8dde3; stroke-width: 0.9; stroke-linecap: square"/>
     </g>
     <g id="line2d_22">
      <g>
       <use xlink:href="#m364b56a399" x="44.48" y="116.995331" style="fill: #222831; stroke: #222831; stroke-width: 0.8"/>
      </g>
     </g>
     <g id="text_12">
      <!-- 6 -->
      <g style="fill: #222831" transform="translate(30.82 122.275331) scale(0.12 -0.12)">
       <use xlink:href="#NotoSansCJKjp-Regular-17"/>
      </g>
     </g>
    </g>
    <g id="ytick_5">
     <g id="line2d_23">
      <path d="M 44.48 73.43565 
L 340.68 73.43565 
" clip-path="url(#p647a854d35)" style="fill: none; stroke: #d8dde3; stroke-width: 0.9; stroke-linecap: square"/>
     </g>
     <g id="line2d_24">
      <g>
       <use xlink:href="#m364b56a399" x="44.48" y="73.43565" style="fill: #222831; stroke: #222831; stroke-width: 0.8"/>
      </g>
     </g>
     <g id="text_13">
      <!-- 8 -->
      <g style="fill: #222831" transform="translate(30.82 78.71565) scale(0.12 -0.12)">
       <defs>
        <path id="NotoSansCJKjp-Regular-19" d="M 1792 -83 
C 2669 -83 3258 448 3258 1126 
C 3258 1773 2880 2125 2470 2362 
L 2470 2394 
C 2746 2611 3091 3034 3091 3526 
C 3091 4250 2605 4762 1805 4762 
C 1075 4762 518 4282 518 3571 
C 518 3078 813 2726 1152 2490 
L 1152 2464 
C 723 2234 294 1792 294 1165 
C 294 442 922 -83 1792 -83 
z
M 2112 2547 
C 1555 2765 1050 3014 1050 3571 
C 1050 4026 1363 4326 1798 4326 
C 2298 4326 2592 3962 2592 3494 
C 2592 3149 2426 2829 2112 2547 
z
M 1798 352 
C 1235 352 813 717 813 1216 
C 813 1664 1082 2035 1459 2278 
C 2125 2010 2701 1779 2701 1146 
C 2701 678 2342 352 1798 352 
z
" transform="scale(0.015625)"/>
       </defs>
       <use xlink:href="#NotoSansCJKjp-Regular-19"/>
      </g>
     </g>
    </g>
    <g id="ytick_6">
     <g id="line2d_25">
      <path d="M 44.48 29.875968 
L 340.68 29.875968 
" clip-path="url(#p647a854d35)" style="fill: none; stroke: #d8dde3; stroke-width: 0.9; stroke-linecap: square"/>
     </g>
     <g id="line2d_26">
      <g>
       <use xlink:href="#m364b56a399" x="44.48" y="29.875968" style="fill: #222831; stroke: #222831; stroke-width: 0.8"/>
      </g>
     </g>
     <g id="text_14">
      <!-- 10 -->
      <g style="fill: #222831" transform="translate(24.16 35.155968) scale(0.12 -0.12)">
       <use xlink:href="#NotoSansCJKjp-Regular-12"/>
       <use xlink:href="#NotoSansCJKjp-Regular-11" transform="translate(55.5 0)"/>
      </g>
     </g>
    </g>
    <g id="text_15">
     <!-- 位置 $x$ (m) -->
     <g style="fill: #222831" transform="translate(17.76 164.377187) rotate(-90) scale(0.12 -0.12)">
      <defs>
       <path id="NotoSansCJKjp-Regular-26e3" d="M 2630 3155 
C 2867 2304 3066 1190 3110 544 
L 3578 646 
C 3526 1280 3302 2381 3059 3232 
L 2630 3155 
z
M 2106 4115 
L 2106 3661 
L 6016 3661 
L 6016 4115 
L 4250 4115 
L 4250 5299 
L 3770 5299 
L 3770 4115 
L 2106 4115 
z
M 1946 243 
L 1946 -211 
L 6176 -211 
L 6176 243 
L 4634 243 
C 4928 1043 5261 2246 5485 3194 
L 4966 3283 
C 4800 2362 4461 1056 4166 243 
L 1946 243 
z
M 1773 5357 
C 1395 4390 774 3443 128 2835 
C 211 2720 352 2470 397 2355 
C 640 2598 877 2880 1107 3194 
L 1107 -493 
L 1568 -493 
L 1568 3891 
C 1818 4314 2048 4762 2227 5216 
L 1773 5357 
z
" transform="scale(0.015625)"/>
       <path id="NotoSansCJKjp-Regular-7ccb" d="M 4154 4762 
L 5235 4762 
L 5235 4186 
L 4154 4186 
L 4154 4762 
z
M 2656 4762 
L 3712 4762 
L 3712 4186 
L 2656 4186 
L 2656 4762 
z
M 1197 4762 
L 2214 4762 
L 2214 4186 
L 1197 4186 
L 1197 4762 
z
M 2374 1798 
L 4979 1798 
L 4979 1440 
L 2374 1440 
L 2374 1798 
z
M 2374 1152 
L 4979 1152 
L 4979 794 
L 2374 794 
L 2374 1152 
z
M 2374 2432 
L 4979 2432 
L 4979 2086 
L 2374 2086 
L 2374 2432 
z
M 1920 2726 
L 1920 499 
L 5440 499 
L 5440 2726 
L 3347 2726 
L 3418 3104 
L 5971 3104 
L 5971 3482 
L 3482 3482 
L 3533 3834 
L 5715 3834 
L 5715 5107 
L 736 5107 
L 736 3834 
L 3046 3834 
L 3002 3482 
L 435 3482 
L 435 3104 
L 2944 3104 
L 2880 2726 
L 1920 2726 
z
M 787 2630 
L 787 -518 
L 1274 -518 
L 1274 -243 
L 6138 -243 
L 6138 141 
L 1274 141 
L 1274 2630 
L 787 2630 
z
" transform="scale(0.015625)"/>
       <path id="Cmmi10-3f" d="M 500 184 
Q 613 97 819 97 
Q 1019 97 1172 289 
Q 1325 481 1381 709 
L 1672 1844 
Q 1741 2153 1741 2266 
Q 1741 2425 1652 2544 
Q 1563 2663 1403 2663 
Q 1200 2663 1022 2536 
Q 844 2409 722 2214 
Q 600 2019 550 1819 
Q 538 1778 500 1778 
L 422 1778 
Q 372 1778 372 1838 
L 372 1856 
Q 434 2094 584 2320 
Q 734 2547 951 2687 
Q 1169 2828 1416 2828 
Q 1650 2828 1839 2703 
Q 2028 2578 2106 2363 
Q 2216 2559 2386 2693 
Q 2556 2828 2759 2828 
Q 2897 2828 3040 2779 
Q 3184 2731 3275 2631 
Q 3366 2531 3366 2381 
Q 3366 2219 3261 2101 
Q 3156 1984 2994 1984 
Q 2891 1984 2822 2050 
Q 2753 2116 2753 2216 
Q 2753 2350 2845 2451 
Q 2938 2553 3066 2572 
Q 2950 2663 2747 2663 
Q 2541 2663 2389 2472 
Q 2238 2281 2175 2047 
L 1894 916 
Q 1825 659 1825 494 
Q 1825 331 1917 214 
Q 2009 97 2163 97 
Q 2463 97 2698 361 
Q 2934 625 3009 941 
Q 3022 978 3059 978 
L 3138 978 
Q 3163 978 3178 961 
Q 3194 944 3194 922 
Q 3194 916 3188 903 
Q 3097 522 2806 225 
Q 2516 -72 2150 -72 
Q 1916 -72 1727 54 
Q 1538 181 1459 397 
Q 1359 209 1182 68 
Q 1006 -72 806 -72 
Q 669 -72 523 -23 
Q 378 25 287 125 
Q 197 225 197 378 
Q 197 528 301 651 
Q 406 775 563 775 
Q 669 775 741 711 
Q 813 647 813 544 
Q 813 409 723 309 
Q 634 209 500 184 
z
" transform="scale(0.015625)"/>
       <path id="NotoSansCJKjp-Regular-4e" d="M 589 0 
L 1178 0 
L 1178 2522 
C 1491 2880 1786 3053 2048 3053 
C 2490 3053 2694 2778 2694 2125 
L 2694 0 
L 3277 0 
L 3277 2522 
C 3603 2880 3885 3053 4154 3053 
C 4595 3053 4800 2778 4800 2125 
L 4800 0 
L 5382 0 
L 5382 2202 
C 5382 3085 5043 3565 4333 3565 
C 3904 3565 3546 3290 3181 2899 
C 3040 3309 2758 3565 2221 3565 
C 1805 3565 1446 3302 1139 2970 
L 1126 2970 
L 1069 3475 
L 589 3475 
L 589 0 
z
" transform="scale(0.015625)"/>
      </defs>
      <use xlink:href="#NotoSansCJKjp-Regular-26e3" transform="translate(0 0.296875)"/>
      <use xlink:href="#NotoSansCJKjp-Regular-7ccb" transform="translate(99.999908 0.296875)"/>
      <use xlink:href="#NotoSansCJKjp-Regular-1" transform="translate(199.999817 0.296875)"/>
      <use xlink:href="#Cmmi10-3f" transform="translate(222.399796 0.296875)"/>
      <use xlink:href="#NotoSansCJKjp-Regular-1" transform="translate(279.479874 0.296875)"/>
      <use xlink:href="#NotoSansCJKjp-Regular-9" transform="translate(301.879852 0.296875)"/>
      <use xlink:href="#NotoSansCJKjp-Regular-4e" transform="translate(335.679825 0.296875)"/>
      <use xlink:href="#NotoSansCJKjp-Regular-a" transform="translate(428.279739 0.296875)"/>
     </g>
    </g>
   </g>
   <g id="patch_3">
    <path d="M 44.48 247.674375 
L 44.48 25.52 
" style="fill: none; stroke: #222831; stroke-width: 1.1; stroke-linejoin: miter; stroke-linecap: square"/>
   </g>
   <g id="patch_4">
    <path d="M 44.48 247.674375 
L 340.68 247.674375 
" style="fill: none; stroke: #222831; stroke-width: 1.1; stroke-linejoin: miter; stroke-linecap: square"/>
   </g>
   <g id="patch_5">
    <path d="M 73.274093 101.000447 
Q 76.755559 148.51212 80.130807 194.574236 
" style="fill: none; stroke: #1f6feb; stroke-width: 1.3; stroke-linecap: round"/>
    <path d="M 81.918255 190.231998 
L 80.130807 194.574236 
L 77.729486 190.538935 
" style="fill: none; stroke: #1f6feb; stroke-width: 1.3; stroke-linecap: round"/>
   </g>
   <g id="text_16">
    <!-- 斜率正 -->
    <g style="fill: #1f6feb" transform="translate(51.211818 85.243554) scale(0.105 -0.105)">
     <defs>
      <path id="NotoSansCJKjp-Regular-4e67" d="M 2438 1606 
C 2669 1184 2899 627 2976 275 
L 3373 448 
C 3290 787 3053 1331 2816 1747 
L 2438 1606 
z
M 794 1734 
C 672 1216 454 678 186 314 
C 294 262 480 147 563 77 
C 832 467 1082 1069 1229 1638 
L 794 1734 
z
M 3379 3059 
C 3770 2816 4224 2432 4429 2163 
L 4755 2477 
C 4544 2746 4077 3110 3693 3341 
L 3379 3059 
z
M 3603 4659 
C 3974 4390 4397 3987 4589 3706 
L 4934 4006 
C 4736 4282 4307 4666 3930 4922 
L 3603 4659 
z
M 1581 5376 
C 1318 4768 813 4000 96 3430 
C 198 3360 346 3200 416 3098 
C 557 3213 691 3341 813 3462 
L 813 3232 
L 1664 3232 
L 1664 2541 
L 326 2541 
L 326 2106 
L 1664 2106 
L 1664 26 
C 1664 -58 1638 -77 1555 -83 
C 1472 -83 1210 -83 915 -77 
C 979 -205 1050 -390 1069 -518 
C 1485 -518 1741 -506 1901 -429 
C 2067 -358 2125 -230 2125 19 
L 2125 2106 
L 3283 2106 
L 3283 2541 
L 2125 2541 
L 2125 3232 
L 2957 3232 
L 2957 3661 
L 998 3661 
C 1376 4083 1664 4518 1875 4896 
C 2291 4538 2746 4026 2970 3699 
L 3334 4090 
C 3053 4461 2496 4998 2042 5376 
L 1581 5376 
z
M 3290 1331 
L 3392 883 
L 5069 1242 
L 5069 -499 
L 5542 -499 
L 5542 1344 
L 6227 1491 
L 6131 1933 
L 5542 1811 
L 5542 5370 
L 5069 5370 
L 5069 1709 
L 3290 1331 
z
" transform="scale(0.015625)"/>
      <path id="NotoSansCJKjp-Regular-66cd" d="M 5376 4038 
C 5139 3782 4704 3437 4384 3226 
L 4736 3014 
C 5056 3226 5472 3520 5798 3821 
L 5376 4038 
z
M 320 1997 
L 557 1613 
C 986 1798 1517 2048 2022 2291 
L 1933 2656 
C 1338 2406 730 2150 320 1997 
z
M 544 3680 
C 902 3482 1344 3174 1555 2957 
L 1888 3258 
C 1670 3469 1222 3757 864 3949 
L 544 3680 
z
M 4262 2458 
C 4768 2202 5408 1811 5715 1542 
L 6067 1850 
C 5734 2112 5094 2490 4595 2733 
L 4262 2458 
z
M 3526 2707 
C 3654 2566 3782 2400 3904 2227 
L 2810 2176 
C 3264 2618 3763 3168 4147 3642 
L 3770 3827 
C 3590 3571 3347 3270 3091 2976 
C 2957 3098 2784 3226 2598 3347 
C 2810 3578 3046 3878 3251 4154 
L 3110 4211 
L 5882 4211 
L 5882 4659 
L 3424 4659 
L 3424 5376 
L 2938 5376 
L 2938 4659 
L 538 4659 
L 538 4211 
L 2771 4211 
C 2643 4000 2470 3750 2310 3546 
L 2131 3654 
L 1894 3373 
C 2202 3174 2579 2906 2822 2682 
C 2650 2490 2470 2310 2304 2150 
L 1811 2131 
L 1882 1715 
L 4128 1882 
C 4211 1747 4275 1626 4320 1517 
L 4691 1709 
C 4550 2035 4192 2515 3872 2874 
L 3526 2707 
z
M 346 1222 
L 346 774 
L 2938 774 
L 2938 -531 
L 3424 -531 
L 3424 774 
L 6061 774 
L 6061 1222 
L 3424 1222 
L 3424 1722 
L 2938 1722 
L 2938 1222 
L 346 1222 
z
" transform="scale(0.015625)"/>
      <path id="NotoSansCJKjp-Regular-585c" d="M 1203 3264 
L 1203 243 
L 333 243 
L 333 -224 
L 6080 -224 
L 6080 243 
L 3616 243 
L 3616 2259 
L 5619 2259 
L 5619 2726 
L 3616 2726 
L 3616 4435 
L 5869 4435 
L 5869 4909 
L 576 4909 
L 576 4435 
L 3110 4435 
L 3110 243 
L 1696 243 
L 1696 3264 
L 1203 3264 
z
" transform="scale(0.015625)"/>
     </defs>
     <use xlink:href="#NotoSansCJKjp-Regular-4e67"/>
     <use xlink:href="#NotoSansCJKjp-Regular-66cd" transform="translate(100 0)"/>
     <use xlink:href="#NotoSansCJKjp-Regular-585c" transform="translate(200 0)"/>
    </g>
    <!-- 往正方向 -->
    <g style="fill: #1f6feb" transform="translate(51.211818 95.743554) scale(0.105 -0.105)">
     <defs>
      <path id="NotoSansCJKjp-Regular-43e1" d="M 3162 5056 
C 3667 4800 4282 4384 4576 4090 
L 4934 4442 
C 4621 4742 3994 5133 3494 5376 
L 3162 5056 
z
M 1651 5370 
C 1357 4902 762 4352 230 4006 
C 307 3910 435 3718 486 3616 
C 1082 4000 1715 4621 2106 5190 
L 1651 5370 
z
M 2086 160 
L 2086 -301 
L 6150 -301 
L 6150 160 
L 4403 160 
L 4403 1715 
L 5811 1715 
L 5811 2170 
L 4403 2170 
L 4403 3616 
L 5926 3616 
L 5926 4070 
L 2426 4070 
L 2426 3616 
L 3898 3616 
L 3898 2170 
L 2522 2170 
L 2522 1715 
L 3898 1715 
L 3898 160 
L 2086 160 
z
M 1862 4070 
C 1453 3379 781 2688 147 2246 
C 230 2150 371 1914 422 1805 
C 678 1997 934 2234 1190 2490 
L 1190 -512 
L 1658 -512 
L 1658 3002 
C 1901 3290 2118 3597 2298 3898 
L 1862 4070 
z
" transform="scale(0.015625)"/>
      <path id="NotoSansCJKjp-Regular-4ea0" d="M 2931 5395 
L 2931 4269 
L 339 4269 
L 339 3808 
L 2310 3808 
C 2240 2330 2054 666 269 -147 
C 397 -243 544 -416 621 -538 
C 1926 90 2438 1152 2669 2298 
L 4787 2298 
C 4685 819 4557 186 4371 19 
C 4294 -51 4211 -58 4064 -58 
C 3898 -58 3443 -51 2982 -13 
C 3078 -147 3142 -346 3155 -480 
C 3584 -506 4013 -512 4230 -499 
C 4480 -486 4634 -435 4781 -282 
C 5030 -26 5165 685 5293 2522 
C 5306 2598 5312 2758 5312 2758 
L 2746 2758 
C 2790 3110 2822 3462 2842 3808 
L 6067 3808 
L 6067 4269 
L 3424 4269 
L 3424 5395 
L 2931 5395 
z
" transform="scale(0.015625)"/>
      <path id="NotoSansCJKjp-Regular-2eb8" d="M 2803 5389 
C 2714 5062 2554 4614 2394 4269 
L 634 4269 
L 634 -512 
L 1107 -512 
L 1107 3802 
L 5325 3802 
L 5325 128 
C 5325 13 5286 -26 5158 -26 
C 5024 -32 4582 -38 4122 -13 
C 4192 -154 4262 -378 4288 -512 
C 4877 -512 5274 -506 5504 -429 
C 5728 -346 5805 -192 5805 128 
L 5805 4269 
L 2925 4269 
C 3085 4576 3258 4947 3398 5293 
L 2803 5389 
z
M 2387 2522 
L 4006 2522 
L 4006 1267 
L 2387 1267 
L 2387 2522 
z
M 1946 2950 
L 1946 371 
L 2387 371 
L 2387 832 
L 4454 832 
L 4454 2950 
L 1946 2950 
z
" transform="scale(0.015625)"/>
     </defs>
     <use xlink:href="#NotoSansCJKjp-Regular-43e1"/>
     <use xlink:href="#NotoSansCJKjp-Regular-585c" transform="translate(100 0)"/>
     <use xlink:href="#NotoSansCJKjp-Regular-4ea0" transform="translate(200 0)"/>
     <use xlink:href="#NotoSansCJKjp-Regular-2eb8" transform="translate(300 0)"/>
    </g>
   </g>
   <g id="patch_6">
    <path d="M 117.877142 74.798815 
Q 130.288149 121.501062 142.325863 166.798618 
" style="fill: none; stroke: #bf8700; stroke-width: 1.3; stroke-linecap: round"/>
    <path d="M 143.276721 162.200154 
L 142.325863 166.798618 
L 139.217607 163.278854 
" style="fill: none; stroke: #bf8700; stroke-width: 1.3; stroke-linecap: round"/>
   </g>
   <g id="text_17">
    <!-- 水平段 -->
    <g style="fill: #bf8700" transform="translate(98.292121 59.107745) scale(0.105 -0.105)">
     <defs>
      <path id="NotoSansCJKjp-Regular-59e1" d="M 352 3738 
L 352 3251 
L 2029 3251 
C 1709 1971 1030 1011 186 486 
C 307 416 493 224 576 109 
C 1517 742 2298 1946 2624 3629 
L 2298 3757 
L 2208 3738 
L 352 3738 
z
M 5523 4339 
C 5146 3827 4525 3187 4000 2739 
C 3782 3194 3603 3686 3462 4192 
L 3462 5363 
L 2957 5363 
L 2957 166 
C 2957 45 2912 6 2784 0 
C 2656 -6 2246 -6 1779 6 
C 1856 -134 1952 -378 1978 -518 
C 2573 -518 2938 -499 3155 -416 
C 3373 -326 3462 -173 3462 166 
L 3462 2925 
C 3974 1606 4742 525 5850 -19 
C 5939 122 6099 320 6221 416 
C 5370 787 4704 1485 4205 2349 
C 4762 2790 5453 3462 5965 4026 
L 5523 4339 
z
" transform="scale(0.015625)"/>
      <path id="NotoSansCJKjp-Regular-41d6" d="M 1114 4032 
C 1363 3558 1613 2938 1702 2554 
L 2157 2714 
C 2067 3085 1805 3699 1549 4160 
L 1114 4032 
z
M 4832 4192 
C 4672 3725 4378 3072 4134 2669 
L 4550 2534 
C 4800 2918 5101 3533 5338 4051 
L 4832 4192 
z
M 333 2227 
L 333 1747 
L 2938 1747 
L 2938 -506 
L 3437 -506 
L 3437 1747 
L 6074 1747 
L 6074 2227 
L 3437 2227 
L 3437 4467 
L 5715 4467 
L 5715 4947 
L 672 4947 
L 672 4467 
L 2938 4467 
L 2938 2227 
L 333 2227 
z
" transform="scale(0.015625)"/>
      <path id="NotoSansCJKjp-Regular-58ff" d="M 5254 2099 
C 5062 1638 4781 1248 4435 922 
C 4115 1254 3866 1651 3699 2099 
L 5254 2099 
z
M 3002 2534 
L 3002 2099 
L 3597 2099 
L 3264 2003 
C 3462 1472 3738 1011 4083 627 
C 3622 288 3078 45 2509 -102 
C 2598 -205 2720 -397 2771 -525 
C 3373 -346 3936 -83 4422 294 
C 4832 -64 5318 -333 5882 -506 
C 5952 -378 6086 -186 6195 -83 
C 5651 58 5178 294 4787 608 
C 5267 1069 5638 1670 5862 2432 
L 5555 2554 
L 5466 2534 
L 3002 2534 
z
M 2528 5370 
C 2176 5171 1568 4960 998 4806 
L 742 4890 
L 742 979 
L 218 902 
L 301 429 
L 742 506 
L 742 -506 
L 1203 -506 
L 1203 589 
L 2918 902 
L 2899 1344 
L 1203 1056 
L 1203 2035 
L 2733 2035 
L 2733 2483 
L 1203 2483 
L 1203 3264 
L 2675 3264 
L 2675 3712 
L 1203 3712 
L 1203 4448 
C 1805 4595 2458 4794 2938 5030 
L 2528 5370 
z
M 3366 5107 
L 3366 4198 
C 3366 3776 3290 3309 2707 2950 
C 2803 2893 2976 2720 3040 2624 
C 3693 3034 3814 3661 3814 4186 
L 3814 4685 
L 4826 4685 
L 4826 3558 
C 4826 3194 4858 3091 4954 3008 
C 5043 2931 5184 2899 5312 2899 
C 5382 2899 5555 2899 5638 2899 
C 5741 2899 5869 2918 5939 2957 
C 6035 3002 6099 3066 6131 3174 
C 6170 3277 6189 3565 6202 3814 
C 6074 3853 5920 3930 5830 4006 
C 5824 3744 5818 3546 5805 3456 
C 5786 3379 5766 3328 5734 3309 
C 5709 3296 5651 3290 5600 3290 
C 5542 3290 5459 3290 5414 3290 
C 5370 3290 5331 3296 5312 3309 
C 5280 3334 5280 3405 5280 3526 
L 5280 5107 
L 3366 5107 
z
" transform="scale(0.015625)"/>
     </defs>
     <use xlink:href="#NotoSansCJKjp-Regular-59e1"/>
     <use xlink:href="#NotoSansCJKjp-Regular-41d6" transform="translate(100 0)"/>
     <use xlink:href="#NotoSansCJKjp-Regular-58ff" transform="translate(200 0)"/>
    </g>
    <!-- 靜止 -->
    <g style="fill: #bf8700" transform="translate(103.542121 69.607745) scale(0.105 -0.105)">
     <defs>
      <path id="NotoSansCJKjp-Regular-aa97" d="M 4128 4416 
C 4250 4122 4365 3731 4390 3494 
L 4813 3590 
C 4774 3827 4653 4211 4518 4499 
L 4128 4416 
z
M 5126 4589 
C 5389 4218 5677 3725 5792 3411 
L 6182 3584 
C 6054 3891 5760 4378 5491 4736 
L 5126 4589 
z
M 1427 5376 
L 1427 4851 
L 390 4851 
L 390 4493 
L 1427 4493 
L 1427 4109 
L 506 4109 
L 506 3763 
L 1427 3763 
L 1427 3347 
L 256 3347 
L 256 2982 
L 3027 2982 
L 3027 3347 
L 1875 3347 
L 1875 3763 
L 2835 3763 
L 2835 4109 
L 1875 4109 
L 1875 4493 
L 2931 4493 
L 2931 4851 
L 1875 4851 
L 1875 5376 
L 1427 5376 
z
M 1485 1338 
L 947 1338 
L 947 2259 
L 1485 2259 
L 1485 1338 
z
M 1824 1338 
L 1824 2259 
L 2400 2259 
L 2400 1338 
L 1824 1338 
z
M 531 2630 
L 531 -506 
L 947 -506 
L 947 966 
L 2400 966 
L 2400 -38 
C 2400 -102 2381 -122 2310 -128 
C 2246 -128 2048 -128 1824 -122 
C 1882 -224 1952 -390 1971 -499 
C 2291 -499 2496 -493 2637 -429 
C 2778 -358 2816 -243 2816 -45 
L 2816 2630 
L 531 2630 
z
M 3302 3347 
L 3302 2950 
L 4141 2950 
L 4141 2342 
L 2950 2342 
L 2950 1939 
L 4141 1939 
L 4141 1318 
L 3270 1318 
L 3270 915 
L 4141 915 
L 4141 26 
C 4141 -58 4122 -77 4038 -83 
C 3949 -90 3674 -90 3360 -83 
C 3424 -205 3494 -390 3514 -518 
C 3930 -518 4198 -506 4371 -429 
C 4544 -358 4595 -230 4595 19 
L 4595 915 
L 5350 915 
L 5350 653 
L 5786 653 
L 5786 1939 
L 6182 1939 
L 6182 2342 
L 5786 2342 
L 5786 3347 
L 3302 3347 
z
M 5350 1318 
L 4595 1318 
L 4595 1939 
L 5350 1939 
L 5350 1318 
z
M 5350 2342 
L 4595 2342 
L 4595 2950 
L 5350 2950 
L 5350 2342 
z
M 3411 5005 
C 3315 4550 3098 3968 2822 3584 
C 2925 3533 3091 3430 3181 3354 
C 3411 3680 3610 4134 3757 4570 
C 4429 4640 5210 4774 5747 4954 
L 5421 5312 
C 5011 5165 4314 5030 3680 4941 
L 3411 5005 
z
" transform="scale(0.015625)"/>
      <path id="NotoSansCJKjp-Regular-585b" d="M 1203 3962 
L 1203 282 
L 314 282 
L 314 -192 
L 6074 -192 
L 6074 282 
L 3693 282 
L 3693 2752 
L 5792 2752 
L 5792 3232 
L 3693 3232 
L 3693 5357 
L 3194 5357 
L 3194 282 
L 1696 282 
L 1696 3962 
L 1203 3962 
z
" transform="scale(0.015625)"/>
     </defs>
     <use xlink:href="#NotoSansCJKjp-Regular-aa97"/>
     <use xlink:href="#NotoSansCJKjp-Regular-585b" transform="translate(100 0)"/>
    </g>
   </g>
   <g id="patch_7">
    <path d="M 200.959088 59.574142 
Q 210.024593 102.020375 218.786523 143.045221 
" style="fill: none; stroke: #1a7f37; stroke-width: 1.3; stroke-linecap: round"/>
    <path d="M 219.96297 138.499237 
L 218.786523 143.045221 
L 215.855604 139.376472 
" style="fill: none; stroke: #1a7f37; stroke-width: 1.3; stroke-linecap: round"/>
   </g>
   <g id="text_18">
    <!-- 凹口朝上 -->
    <g style="fill: #1a7f37" transform="translate(176.872424 43.861857) scale(0.105 -0.105)">
     <defs>
      <path id="NotoSansCJKjp-Regular-2b72" d="M 3693 4794 
L 3693 2586 
L 2682 2586 
L 2682 4794 
L 653 4794 
L 653 -390 
L 1101 -390 
L 1101 115 
L 5274 115 
L 5274 -358 
L 5747 -358 
L 5747 4794 
L 3693 4794 
z
M 2208 2586 
L 2208 2131 
L 4147 2131 
L 4147 4339 
L 5274 4339 
L 5274 570 
L 1101 570 
L 1101 4339 
L 2208 4339 
L 2208 2586 
z
" transform="scale(0.015625)"/>
      <path id="NotoSansCJKjp-Regular-2e7e" d="M 813 4704 
L 813 -352 
L 1312 -352 
L 1312 192 
L 5094 192 
L 5094 -326 
L 5606 -326 
L 5606 4704 
L 813 4704 
z
M 1312 685 
L 1312 4224 
L 5094 4224 
L 5094 685 
L 1312 685 
z
" transform="scale(0.015625)"/>
      <path id="NotoSansCJKjp-Regular-50fc" d="M 954 2458 
L 2605 2458 
L 2605 1920 
L 954 1920 
L 954 2458 
z
M 954 3341 
L 2605 3341 
L 2605 2816 
L 954 2816 
L 954 3341 
z
M 262 1030 
L 262 602 
L 1523 602 
L 1523 -499 
L 1990 -499 
L 1990 602 
L 3245 602 
L 3245 1030 
L 1990 1030 
L 1990 1549 
L 3053 1549 
L 3053 3718 
L 1990 3718 
L 1990 4230 
L 3232 4230 
L 3232 4666 
L 1990 4666 
L 1990 5382 
L 1523 5382 
L 1523 4666 
L 333 4666 
L 333 4230 
L 1523 4230 
L 1523 3718 
L 518 3718 
L 518 1549 
L 1523 1549 
L 1523 1030 
L 262 1030 
z
M 5408 3104 
L 5408 2016 
L 4019 2016 
C 4038 2253 4045 2483 4045 2701 
L 4045 3104 
L 5408 3104 
z
M 5408 3539 
L 4045 3539 
L 4045 4634 
L 5408 4634 
L 5408 3539 
z
M 3584 5069 
L 3584 2701 
C 3584 1760 3507 576 2682 -250 
C 2790 -301 2982 -435 3059 -525 
C 3629 45 3872 819 3974 1574 
L 5408 1574 
L 5408 90 
C 5408 -6 5370 -38 5280 -38 
C 5184 -45 4877 -45 4544 -38 
C 4614 -166 4678 -384 4704 -506 
C 5171 -512 5453 -506 5638 -422 
C 5811 -339 5875 -192 5875 83 
L 5875 5069 
L 3584 5069 
z
" transform="scale(0.015625)"/>
      <path id="NotoSansCJKjp-Regular-2515" d="M 2733 5280 
L 2733 275 
L 326 275 
L 326 -205 
L 6080 -205 
L 6080 275 
L 3238 275 
L 3238 2822 
L 5638 2822 
L 5638 3302 
L 3238 3302 
L 3238 5280 
L 2733 5280 
z
" transform="scale(0.015625)"/>
     </defs>
     <use xlink:href="#NotoSansCJKjp-Regular-2b72"/>
     <use xlink:href="#NotoSansCJKjp-Regular-2e7e" transform="translate(100 0)"/>
     <use xlink:href="#NotoSansCJKjp-Regular-50fc" transform="translate(200 0)"/>
     <use xlink:href="#NotoSansCJKjp-Regular-2515" transform="translate(300 0)"/>
    </g>
    <!-- 加速 a&gt;0 -->
    <g style="fill: #1a7f37" transform="translate(176.872424 54.361857) scale(0.105 -0.105)">
     <defs>
      <path id="NotoSansCJKjp-Regular-2c76" d="M 3661 4582 
L 3661 -416 
L 4122 -416 
L 4122 58 
L 5363 58 
L 5363 -365 
L 5843 -365 
L 5843 4582 
L 3661 4582 
z
M 4122 518 
L 4122 4115 
L 5363 4115 
L 5363 518 
L 4122 518 
z
M 1248 5293 
L 1242 4160 
L 339 4160 
L 339 3693 
L 1229 3693 
C 1184 2080 986 659 179 -186 
C 301 -262 474 -410 550 -518 
C 1414 422 1638 1958 1696 3693 
L 2669 3693 
C 2618 1229 2560 352 2426 166 
C 2368 83 2304 58 2208 64 
C 2093 64 1818 64 1517 90 
C 1600 -45 1645 -250 1658 -390 
C 1946 -410 2240 -416 2419 -390 
C 2605 -365 2726 -307 2842 -141 
C 3040 134 3085 1069 3136 3917 
C 3136 3987 3136 4160 3136 4160 
L 1709 4160 
L 1722 5293 
L 1248 5293 
z
" transform="scale(0.015625)"/>
      <path id="NotoSansCJKjp-Regular-9d6d" d="M 384 4934 
C 794 4646 1274 4218 1478 3904 
L 1862 4224 
C 1632 4531 1152 4947 730 5222 
L 384 4934 
z
M 1677 2848 
L 314 2848 
L 314 2400 
L 1210 2400 
L 1210 768 
C 890 499 518 230 230 32 
L 480 -461 
C 826 -173 1152 102 1459 378 
C 1869 -128 2445 -358 3283 -390 
C 3994 -416 5318 -403 6016 -371 
C 6035 -224 6118 6 6176 115 
C 5414 64 3981 45 3283 77 
C 2541 102 1978 326 1677 794 
L 1677 2848 
z
M 2752 3379 
L 3757 3379 
L 3757 2560 
L 2752 2560 
L 2752 3379 
z
M 4224 3379 
L 5286 3379 
L 5286 2560 
L 4224 2560 
L 4224 3379 
z
M 3757 5370 
L 3757 4710 
L 2035 4710 
L 2035 4294 
L 3757 4294 
L 3757 3763 
L 2304 3763 
L 2304 2176 
L 3501 2176 
C 3130 1638 2502 1120 1920 870 
C 2022 781 2163 621 2227 506 
C 2778 787 3360 1306 3757 1875 
L 3757 314 
L 4224 314 
L 4224 1850 
C 4640 1318 5235 800 5754 525 
C 5824 640 5971 806 6080 896 
C 5510 1146 4845 1658 4442 2176 
L 5754 2176 
L 5754 3763 
L 4224 3763 
L 4224 4294 
L 6048 4294 
L 6048 4710 
L 4224 4710 
L 4224 5370 
L 3757 5370 
z
" transform="scale(0.015625)"/>
      <path id="NotoSansCJKjp-Regular-42" d="M 1389 -83 
C 1818 -83 2208 141 2541 416 
L 2560 416 
L 2611 0 
L 3091 0 
L 3091 2138 
C 3091 3002 2739 3565 1888 3565 
C 1325 3565 838 3315 525 3110 
L 749 2707 
C 1024 2893 1389 3078 1792 3078 
C 2362 3078 2509 2650 2509 2202 
C 1030 2035 378 1658 378 902 
C 378 275 806 -83 1389 -83 
z
M 1555 390 
C 1210 390 941 544 941 941 
C 941 1389 1338 1677 2509 1811 
L 2509 845 
C 2170 544 1888 390 1555 390 
z
" transform="scale(0.015625)"/>
      <path id="NotoSansCJKjp-Regular-1f" d="M 243 934 
L 3315 2144 
L 3315 2605 
L 243 3814 
L 243 3309 
L 1754 2746 
L 2714 2387 
L 2714 2362 
L 1754 2003 
L 243 1446 
L 243 934 
z
" transform="scale(0.015625)"/>
      <path id="NotoSansCJKjp-Regular-f6b1" d="M 1779 -83 
C 2688 -83 3238 768 3238 2298 
C 3238 3821 2688 4646 1779 4646 
C 864 4646 320 3827 320 2298 
C 320 768 864 -83 1779 -83 
z
M 1779 390 
C 1248 390 883 960 883 2298 
C 883 3635 1248 4179 1779 4179 
C 2310 4179 2675 3635 2675 2298 
C 2675 960 2310 390 1779 390 
z
" transform="scale(0.015625)"/>
     </defs>
     <use xlink:href="#NotoSansCJKjp-Regular-2c76"/>
     <use xlink:href="#NotoSansCJKjp-Regular-9d6d" transform="translate(100 0)"/>
     <use xlink:href="#NotoSansCJKjp-Regular-1" transform="translate(200 0)"/>
     <use xlink:href="#NotoSansCJKjp-Regular-42" transform="translate(222.40625 0)"/>
     <use xlink:href="#NotoSansCJKjp-Regular-1f" transform="translate(278.703125 0)"/>
     <use xlink:href="#NotoSansCJKjp-Regular-f6b1" transform="translate(334.203125 0)"/>
    </g>
   </g>
   <g id="patch_8">
    <path d="M 245.011036 212.606678 
Q 281.045138 140.612208 316.478748 69.817492 
" style="fill: none; stroke: #222831; stroke-width: 1.2; stroke-linecap: round"/>
    <path d="M 313.078881 72.365217 
L 316.478748 69.817492 
L 316.477008 74.066021 
" style="fill: none; stroke: #222831; stroke-width: 1.2; stroke-linecap: round"/>
   </g>
   <g id="text_19">
    <!-- 頂點：斜率=0 -->
    <g style="fill: #222831" transform="translate(181.360303 224.754534) scale(0.095 -0.095)">
     <defs>
      <path id="NotoSansCJKjp-Regular-abbc" d="M 3302 2694 
L 5434 2694 
L 5434 2074 
L 3302 2074 
L 3302 2694 
z
M 3302 1715 
L 5434 1715 
L 5434 1082 
L 3302 1082 
L 3302 1715 
z
M 3302 3667 
L 5434 3667 
L 5434 3053 
L 3302 3053 
L 3302 3667 
z
M 3552 602 
C 3232 326 2579 13 2035 -166 
C 2131 -256 2266 -410 2336 -506 
C 2893 -320 3558 13 3968 339 
L 3552 602 
z
M 4602 314 
C 5043 77 5600 -282 5869 -525 
L 6253 -230 
C 5958 13 5395 358 4966 576 
L 4602 314 
z
M 250 4960 
L 250 4506 
L 1280 4506 
L 1280 294 
C 1280 198 1242 166 1139 160 
C 1037 154 691 154 320 166 
C 390 32 454 -173 474 -301 
C 979 -307 1299 -294 1491 -218 
C 1677 -134 1747 0 1747 294 
L 1747 4506 
L 2534 4506 
L 2534 4960 
L 250 4960 
z
M 2848 4038 
L 2848 710 
L 5907 710 
L 5907 4038 
L 4390 4038 
L 4602 4659 
L 6138 4659 
L 6138 5075 
L 2637 5075 
L 2637 4659 
L 4058 4659 
C 4019 4454 3962 4230 3910 4038 
L 2848 4038 
z
" transform="scale(0.015625)"/>
      <path id="NotoSansCJKjp-Regular-b7c4" d="M 966 4474 
C 1069 4166 1152 3757 1165 3494 
L 1421 3565 
C 1402 3821 1312 4230 1203 4538 
L 966 4474 
z
M 1178 813 
C 1267 454 1338 0 1331 -307 
L 1664 -262 
C 1664 38 1594 499 1498 851 
L 1178 813 
z
M 1792 851 
C 1939 518 2067 90 2106 -192 
L 2432 -115 
C 2387 166 2246 589 2099 915 
L 1792 851 
z
M 2406 934 
C 2618 634 2848 224 2938 -45 
L 3258 96 
C 3162 365 2931 762 2701 1056 
L 2406 934 
z
M 634 838 
C 582 390 454 -70 205 -333 
L 538 -512 
C 806 -224 915 269 973 742 
L 634 838 
z
M 2272 4557 
C 2214 4262 2086 3808 1997 3533 
L 2202 3456 
C 2317 3706 2445 4122 2554 4454 
L 2272 4557 
z
M 4314 5363 
L 4314 2330 
L 3379 2330 
L 3379 -506 
L 3827 -506 
L 3827 -211 
L 5440 -211 
L 5440 -480 
L 5901 -480 
L 5901 2330 
L 4781 2330 
L 4781 3526 
L 6150 3526 
L 6150 3974 
L 4781 3974 
L 4781 5363 
L 4314 5363 
z
M 3827 237 
L 3827 1894 
L 5440 1894 
L 5440 237 
L 3827 237 
z
M 877 4794 
L 1568 4794 
L 1568 3245 
L 877 3245 
L 877 4794 
z
M 1894 4794 
L 2637 4794 
L 2637 3245 
L 1894 3245 
L 1894 4794 
z
M 448 2451 
L 448 2067 
L 1517 2067 
L 1517 1568 
L 314 1510 
L 333 1088 
C 1075 1133 2138 1203 3155 1274 
L 3168 1658 
L 1946 1594 
L 1946 2067 
L 3072 2067 
L 3072 2451 
L 1946 2451 
L 1946 2893 
L 3027 2893 
L 3027 5146 
L 493 5146 
L 493 2893 
L 1517 2893 
L 1517 2451 
L 448 2451 
z
" transform="scale(0.015625)"/>
      <path id="NotoSansCJKjp-Regular-e6c0" d="M 3200 3482 
C 3456 3482 3686 3667 3686 3962 
C 3686 4256 3456 4442 3200 4442 
C 2944 4442 2714 4256 2714 3962 
C 2714 3667 2944 3482 3200 3482 
z
M 3200 346 
C 3456 346 3686 538 3686 826 
C 3686 1120 3456 1312 3200 1312 
C 2944 1312 2714 1120 2714 826 
C 2714 538 2944 346 3200 346 
z
" transform="scale(0.015625)"/>
      <path id="NotoSansCJKjp-Regular-1e" d="M 243 2912 
L 3315 2912 
L 3315 3347 
L 243 3347 
L 243 2912 
z
M 243 1376 
L 3315 1376 
L 3315 1811 
L 243 1811 
L 243 1376 
z
" transform="scale(0.015625)"/>
     </defs>
     <use xlink:href="#NotoSansCJKjp-Regular-abbc"/>
     <use xlink:href="#NotoSansCJKjp-Regular-b7c4" transform="translate(100 0)"/>
     <use xlink:href="#NotoSansCJKjp-Regular-e6c0" transform="translate(200 0)"/>
     <use xlink:href="#NotoSansCJKjp-Regular-4e67" transform="translate(300 0)"/>
     <use xlink:href="#NotoSansCJKjp-Regular-66cd" transform="translate(400 0)"/>
     <use xlink:href="#NotoSansCJKjp-Regular-1e" transform="translate(500 0)"/>
     <use xlink:href="#NotoSansCJKjp-Regular-11" transform="translate(555.5 0)"/>
    </g>
    <!-- 離原點最遠（非速度最大） -->
    <g style="fill: #222831" transform="translate(181.360303 234.254534) scale(0.095 -0.095)">
     <defs>
      <path id="NotoSansCJKjp-Regular-a995" d="M 1587 5376 
L 1587 4826 
L 275 4826 
L 275 4429 
L 3373 4429 
L 3373 4826 
L 2054 4826 
L 2054 5376 
L 1587 5376 
z
M 5203 5312 
C 5126 4973 4979 4499 4838 4154 
L 4147 4154 
C 4288 4512 4416 4896 4518 5274 
L 4083 5376 
C 3859 4493 3501 3603 3066 3002 
L 3066 4166 
L 2688 4166 
L 2688 2739 
L 934 2739 
L 934 4166 
L 582 4166 
L 582 2387 
L 1587 2387 
L 1530 1958 
L 403 1958 
L 403 -518 
L 806 -518 
L 806 1587 
L 1466 1587 
C 1414 1286 1350 986 1293 742 
L 960 730 
L 998 378 
L 2342 480 
C 2381 371 2406 269 2426 179 
L 2720 282 
C 2675 557 2496 998 2310 1331 
L 2029 1248 
C 2099 1107 2170 954 2234 800 
L 1645 762 
C 1715 1005 1779 1293 1843 1587 
L 2822 1587 
L 2822 -45 
C 2822 -115 2803 -128 2726 -134 
C 2650 -141 2400 -141 2118 -134 
C 2170 -237 2234 -397 2253 -506 
C 2637 -506 2880 -506 3040 -442 
C 3194 -371 3238 -256 3238 -51 
L 3238 1958 
L 1920 1958 
L 2003 2387 
L 3066 2387 
L 3066 2912 
C 3168 2835 3315 2714 3379 2650 
C 3475 2784 3571 2938 3661 3098 
L 3661 -518 
L 4102 -518 
L 4102 -179 
L 6157 -179 
L 6157 262 
L 5261 262 
L 5261 1152 
L 6035 1152 
L 6035 1568 
L 5261 1568 
L 5261 2445 
L 6035 2445 
L 6035 2854 
L 5261 2854 
L 5261 3718 
L 6093 3718 
L 6093 4154 
L 5267 4154 
C 5402 4467 5542 4858 5664 5203 
L 5203 5312 
z
M 2099 4262 
C 2022 4090 1926 3917 1818 3763 
C 1645 3872 1472 3974 1306 4058 
L 1107 3834 
C 1274 3744 1453 3635 1619 3520 
C 1446 3315 1248 3142 1037 2995 
C 1120 2944 1254 2835 1306 2771 
C 1510 2925 1709 3110 1888 3328 
C 2080 3187 2246 3046 2362 2925 
L 2573 3181 
C 2458 3302 2285 3437 2086 3578 
C 2221 3770 2342 3968 2438 4179 
L 2099 4262 
z
M 4102 2445 
L 4845 2445 
L 4845 1568 
L 4102 1568 
L 4102 2445 
z
M 4102 2854 
L 4102 3718 
L 4845 3718 
L 4845 2854 
L 4102 2854 
z
M 4102 1152 
L 4845 1152 
L 4845 262 
L 4102 262 
L 4102 1152 
z
" transform="scale(0.015625)"/>
      <path id="NotoSansCJKjp-Regular-2e09" d="M 2362 2624 
L 5024 2624 
L 5024 2029 
L 2362 2029 
L 2362 2624 
z
M 2362 3571 
L 5024 3571 
L 5024 2989 
L 2362 2989 
L 2362 3571 
z
M 4474 1107 
C 4954 723 5510 166 5754 -211 
L 6150 51 
C 5888 435 5325 966 4838 1338 
L 4474 1107 
z
M 2374 1318 
C 2080 838 1606 352 1126 45 
C 1242 -26 1434 -160 1523 -237 
C 1990 109 2496 646 2835 1184 
L 2374 1318 
z
M 1888 3955 
L 1888 1645 
L 3450 1645 
L 3450 13 
C 3450 -64 3424 -90 3328 -96 
C 3232 -96 2899 -96 2522 -90 
C 2586 -211 2650 -390 2669 -512 
C 3168 -512 3482 -512 3674 -442 
C 3866 -371 3917 -243 3917 6 
L 3917 1645 
L 5510 1645 
L 5510 3955 
L 3750 3955 
C 3814 4147 3885 4365 3949 4576 
L 6035 4576 
L 6035 5024 
L 838 5024 
L 838 3168 
C 838 2163 787 749 224 -256 
C 339 -301 550 -422 640 -499 
C 1229 550 1312 2106 1312 3168 
L 1312 4576 
L 3386 4576 
C 3347 4390 3296 4154 3238 3955 
L 1888 3955 
z
" transform="scale(0.015625)"/>
      <path id="NotoSansCJKjp-Regular-50c3" d="M 1600 4064 
L 4813 4064 
L 4813 3610 
L 1600 3610 
L 1600 4064 
z
M 1600 4832 
L 4813 4832 
L 4813 4384 
L 1600 4384 
L 1600 4832 
z
M 1139 5171 
L 1139 3270 
L 5293 3270 
L 5293 5171 
L 1139 5171 
z
M 2534 2509 
L 2534 2074 
L 1370 2074 
L 1370 2509 
L 2534 2509 
z
M 314 282 
L 358 -147 
L 2534 115 
L 2534 -512 
L 2995 -512 
L 2995 -109 
C 3091 -198 3200 -365 3251 -474 
C 3699 -320 4141 -96 4531 205 
C 4909 -115 5363 -358 5875 -506 
C 5939 -397 6061 -218 6163 -134 
C 5664 -6 5229 205 4858 486 
C 5280 883 5613 1389 5811 2010 
L 5517 2131 
L 5434 2112 
L 3219 2112 
L 3219 1722 
L 3776 1722 
L 3501 1638 
C 3674 1216 3910 832 4205 512 
C 3840 237 3418 32 2995 -90 
L 2995 2509 
L 6016 2509 
L 6016 2912 
L 371 2912 
L 371 2509 
L 928 2509 
L 928 339 
L 314 282 
z
M 3898 1722 
L 5222 1722 
C 5056 1363 4813 1050 4531 781 
C 4262 1050 4045 1370 3898 1722 
z
M 2534 1709 
L 2534 1261 
L 1370 1261 
L 1370 1709 
L 2534 1709 
z
M 2534 902 
L 2534 518 
L 1370 384 
L 1370 902 
L 2534 902 
z
" transform="scale(0.015625)"/>
      <path id="NotoSansCJKjp-Regular-9e1c" d="M 358 4947 
C 749 4640 1184 4186 1370 3866 
L 1760 4166 
C 1568 4480 1114 4922 723 5216 
L 358 4947 
z
M 2861 2995 
L 5005 2995 
L 5005 2355 
L 2861 2355 
L 2861 2995 
z
M 1574 2848 
L 294 2848 
L 294 2400 
L 1107 2400 
L 1107 742 
C 819 474 499 205 230 13 
L 480 -461 
C 794 -179 1088 96 1370 371 
C 1773 -134 2355 -358 3200 -390 
C 3917 -416 5286 -403 6003 -378 
C 6022 -230 6099 -13 6157 96 
C 5382 45 3904 26 3194 58 
C 2438 90 1875 307 1574 781 
L 1574 2848 
z
M 5562 2112 
L 5466 2029 
L 5466 3347 
L 2413 3347 
L 2413 2003 
L 3501 2003 
C 3104 1568 2470 1222 1856 992 
C 1946 902 2086 710 2144 621 
C 2682 851 3232 1184 3667 1587 
L 3667 320 
L 4128 320 
L 4128 1440 
C 4544 986 5126 627 5760 442 
C 5818 563 5933 723 6035 806 
C 5651 902 5280 1056 4960 1254 
C 5267 1421 5632 1658 5926 1882 
L 5562 2112 
z
M 5434 2003 
C 5216 1824 4922 1613 4672 1453 
C 4461 1619 4282 1805 4147 2003 
L 5434 2003 
z
M 3680 5370 
L 3680 4883 
L 2234 4883 
L 2234 4518 
L 3680 4518 
L 3680 4064 
L 1882 4064 
L 1882 3693 
L 6010 3693 
L 6010 4064 
L 4147 4064 
L 4147 4518 
L 5626 4518 
L 5626 4883 
L 4147 4883 
L 4147 5370 
L 3680 5370 
z
" transform="scale(0.015625)"/>
      <path id="NotoSansCJKjp-Regular-e6ae" d="M 4448 2432 
C 4448 1184 4954 166 5722 -614 
L 6106 -416 
C 5370 346 4915 1293 4915 2432 
C 4915 3571 5370 4518 6106 5280 
L 5722 5478 
C 4954 4698 4448 3680 4448 2432 
z
" transform="scale(0.015625)"/>
      <path id="NotoSansCJKjp-Regular-aa9c" d="M 3693 5344 
L 3693 -512 
L 4173 -512 
L 4173 1043 
L 6131 1043 
L 6131 1498 
L 4173 1498 
L 4173 2522 
L 5888 2522 
L 5888 2963 
L 4173 2963 
L 4173 3949 
L 6022 3949 
L 6022 4403 
L 4173 4403 
L 4173 5344 
L 3693 5344 
z
M 2163 5344 
L 2163 4403 
L 493 4403 
L 493 3949 
L 2163 3949 
L 2163 2963 
L 563 2963 
L 563 2522 
L 2163 2522 
L 2163 2355 
C 2163 2163 2144 1914 2086 1651 
C 1382 1536 730 1434 256 1363 
L 352 890 
L 1933 1178 
C 1709 653 1286 122 493 -218 
C 602 -314 762 -467 838 -582 
C 1811 -122 2272 602 2477 1274 
L 3155 1402 
L 3136 1830 
L 2579 1734 
C 2618 1958 2630 2170 2630 2355 
L 2630 5344 
L 2163 5344 
z
" transform="scale(0.015625)"/>
      <path id="NotoSansCJKjp-Regular-4231" d="M 2470 4141 
L 2470 3584 
L 1440 3584 
L 1440 3187 
L 2470 3187 
L 2470 2125 
L 4960 2125 
L 4960 3187 
L 5997 3187 
L 5997 3584 
L 4960 3584 
L 4960 4141 
L 4486 4141 
L 4486 3584 
L 2931 3584 
L 2931 4141 
L 2470 4141 
z
M 4486 3187 
L 4486 2509 
L 2931 2509 
L 2931 3187 
L 4486 3187 
z
M 4851 1318 
C 4582 986 4211 717 3770 506 
C 3334 723 2970 992 2720 1318 
L 4851 1318 
z
M 1530 1715 
L 1530 1318 
L 2502 1318 
L 2259 1222 
C 2515 858 2861 550 3270 301 
C 2662 90 1978 -38 1280 -109 
C 1357 -211 1453 -397 1485 -512 
C 2291 -416 3072 -243 3757 45 
C 4365 -237 5088 -422 5869 -525 
C 5933 -403 6048 -211 6150 -109 
C 5466 -38 4819 96 4269 294 
C 4813 608 5261 1024 5549 1574 
L 5248 1734 
L 5165 1715 
L 1530 1715 
z
M 774 4742 
L 774 2893 
C 774 1965 730 659 198 -256 
C 314 -307 512 -435 595 -518 
C 1152 448 1235 1901 1235 2893 
L 1235 4307 
L 6035 4307 
L 6035 4742 
L 3635 4742 
L 3635 5376 
L 3142 5376 
L 3142 4742 
L 774 4742 
z
" transform="scale(0.015625)"/>
      <path id="NotoSansCJKjp-Regular-36fb" d="M 2950 5370 
C 2944 4864 2950 4218 2854 3539 
L 397 3539 
L 397 3046 
L 2771 3046 
C 2515 1830 1875 589 275 -102 
C 410 -205 563 -378 640 -499 
C 2202 218 2893 1446 3206 2682 
C 3706 1222 4531 90 5773 -499 
C 5856 -358 6010 -160 6131 -51 
C 4890 467 4051 1632 3603 3046 
L 6029 3046 
L 6029 3539 
L 3366 3539 
C 3456 4211 3462 4851 3469 5370 
L 2950 5370 
z
" transform="scale(0.015625)"/>
      <path id="NotoSansCJKjp-Regular-e6af" d="M 1952 2432 
C 1952 3680 1446 4698 678 5478 
L 294 5280 
C 1030 4518 1485 3571 1485 2432 
C 1485 1293 1030 346 294 -416 
L 678 -614 
C 1446 166 1952 1184 1952 2432 
z
" transform="scale(0.015625)"/>
     </defs>
     <use xlink:href="#NotoSansCJKjp-Regular-a995"/>
     <use xlink:href="#NotoSansCJKjp-Regular-2e09" transform="translate(100 0)"/>
     <use xlink:href="#NotoSansCJKjp-Regular-b7c4" transform="translate(200 0)"/>
     <use xlink:href="#NotoSansCJKjp-Regular-50c3" transform="translate(300 0)"/>
     <use xlink:href="#NotoSansCJKjp-Regular-9e1c" transform="translate(400 0)"/>
     <use xlink:href="#NotoSansCJKjp-Regular-e6ae" transform="translate(500 0)"/>
     <use xlink:href="#NotoSansCJKjp-Regular-aa9c" transform="translate(600 0)"/>
     <use xlink:href="#NotoSansCJKjp-Regular-9d6d" transform="translate(700 0)"/>
     <use xlink:href="#NotoSansCJKjp-Regular-4231" transform="translate(800 0)"/>
     <use xlink:href="#NotoSansCJKjp-Regular-50c3" transform="translate(900 0)"/>
     <use xlink:href="#NotoSansCJKjp-Regular-36fb" transform="translate(1000 0)"/>
     <use xlink:href="#NotoSansCJKjp-Regular-e6af" transform="translate(1100 0)"/>
    </g>
   </g>
   <g id="patch_9">
    <path d="M 302.001591 59.131838 
Q 304.978002 62.570216 307.003149 64.909686 
" style="fill: none; stroke: #d1242f; stroke-width: 1.3; stroke-linecap: round"/>
    <path d="M 305.842047 60.359758 
L 307.003149 64.909686 
L 302.666546 63.108611 
" style="fill: none; stroke: #d1242f; stroke-width: 1.3; stroke-linecap: round"/>
   </g>
   <g id="text_20">
    <!-- 凹口朝下 -->
    <g style="fill: #d1242f" transform="translate(268.873939 43.861857) scale(0.105 -0.105)">
     <defs>
      <path id="NotoSansCJKjp-Regular-2516" d="M 352 4902 
L 352 4422 
L 2822 4422 
L 2822 -506 
L 3328 -506 
L 3328 2886 
C 4064 2490 4922 1958 5370 1600 
L 5709 2035 
C 5197 2426 4179 3002 3418 3373 
L 3328 3270 
L 3328 4422 
L 6054 4422 
L 6054 4902 
L 352 4902 
z
" transform="scale(0.015625)"/>
     </defs>
     <use xlink:href="#NotoSansCJKjp-Regular-2b72"/>
     <use xlink:href="#NotoSansCJKjp-Regular-2e7e" transform="translate(100 0)"/>
     <use xlink:href="#NotoSansCJKjp-Regular-50fc" transform="translate(200 0)"/>
     <use xlink:href="#NotoSansCJKjp-Regular-2516" transform="translate(300 0)"/>
    </g>
    <!-- 減速 a&lt;0 -->
    <g style="fill: #d1242f" transform="translate(268.873939 54.361857) scale(0.105 -0.105)">
     <defs>
      <path id="NotoSansCJKjp-Regular-5cce" d="M 4915 5101 
C 5235 4896 5594 4595 5766 4384 
L 6042 4659 
C 5869 4877 5498 5165 5184 5350 
L 4915 5101 
z
M 2669 3411 
L 2669 3040 
L 4205 3040 
L 4205 3411 
L 2669 3411 
z
M 544 4973 
C 922 4787 1370 4499 1594 4288 
L 1882 4678 
C 1651 4890 1190 5152 819 5318 
L 544 4973 
z
M 243 3238 
C 621 3078 1075 2803 1299 2598 
L 1581 2995 
C 1344 3194 883 3443 506 3590 
L 243 3238 
z
M 339 -141 
L 768 -390 
C 1056 218 1382 1050 1626 1747 
L 1242 2003 
C 979 1248 602 378 339 -141 
z
M 2707 2534 
L 2707 416 
L 3053 416 
L 3053 800 
L 4173 800 
L 4173 2534 
L 2707 2534 
z
M 3053 2163 
L 3821 2163 
L 3821 1178 
L 3053 1178 
L 3053 2163 
z
M 4282 5312 
L 4320 4352 
L 1971 4352 
L 1971 2630 
C 1971 1754 1907 576 1338 -275 
C 1434 -320 1626 -448 1702 -525 
C 2304 371 2400 1690 2400 2630 
L 2400 3917 
L 4339 3917 
C 4403 2835 4499 1875 4646 1133 
C 4294 608 3853 179 3309 -147 
C 3405 -224 3571 -384 3635 -467 
C 4077 -173 4454 179 4781 595 
C 4979 -96 5261 -499 5638 -512 
C 5875 -518 6112 -237 6240 806 
C 6157 838 5965 954 5888 1043 
C 5837 410 5760 45 5638 51 
C 5434 64 5254 448 5114 1082 
C 5491 1696 5766 2419 5965 3270 
L 5536 3354 
C 5408 2752 5229 2208 4992 1728 
C 4896 2349 4826 3098 4781 3917 
L 6067 3917 
L 6067 4352 
L 4755 4352 
L 4730 5312 
L 4282 5312 
z
" transform="scale(0.015625)"/>
      <path id="NotoSansCJKjp-Regular-1d" d="M 3315 934 
L 3315 1446 
L 1798 2003 
L 838 2362 
L 838 2387 
L 1798 2746 
L 3315 3309 
L 3315 3814 
L 243 2605 
L 243 2144 
L 3315 934 
z
" transform="scale(0.015625)"/>
     </defs>
     <use xlink:href="#NotoSansCJKjp-Regular-5cce"/>
     <use xlink:href="#NotoSansCJKjp-Regular-9d6d" transform="translate(100 0)"/>
     <use xlink:href="#NotoSansCJKjp-Regular-1" transform="translate(200 0)"/>
     <use xlink:href="#NotoSansCJKjp-Regular-42" transform="translate(222.40625 0)"/>
     <use xlink:href="#NotoSansCJKjp-Regular-1d" transform="translate(278.703125 0)"/>
     <use xlink:href="#NotoSansCJKjp-Regular-f6b1" transform="translate(334.203125 0)"/>
    </g>
   </g>
   <g id="text_21">
    <!-- 一張 x–t 圖怎麼讀 -->
    <g style="fill: #222831" transform="translate(137.875 19.52) scale(0.14 -0.14)">
     <defs>
      <path id="NotoSansCJKjp-Regular-2509" d="M 282 2758 
L 282 2234 
L 6144 2234 
L 6144 2758 
L 282 2758 
z
" transform="scale(0.015625)"/>
      <path id="NotoSansCJKjp-Regular-4356" d="M 5728 1779 
C 5517 1568 5178 1293 4877 1082 
C 4717 1344 4589 1638 4493 1952 
L 6150 1952 
L 6150 2381 
L 3475 2381 
L 3475 2925 
L 5619 2925 
L 5619 3290 
L 3475 3290 
L 3475 3827 
L 5619 3827 
L 5619 4186 
L 3475 4186 
L 3475 4717 
L 5869 4717 
L 5869 5133 
L 3014 5133 
L 3014 2381 
L 2483 2381 
L 2483 1952 
L 3021 1952 
L 3021 115 
L 2483 32 
L 2573 -422 
C 3168 -314 3962 -173 4723 -26 
L 4704 390 
L 3482 186 
L 3482 1952 
L 4070 1952 
C 4384 800 4973 -96 5920 -518 
C 5990 -390 6125 -205 6240 -109 
C 5760 77 5370 390 5062 800 
C 5395 998 5805 1280 6125 1542 
L 5728 1779 
z
M 582 3571 
C 525 2950 410 2106 307 1600 
L 755 1542 
L 800 1818 
L 1971 1818 
C 1888 614 1792 128 1658 -6 
C 1606 -70 1542 -83 1434 -83 
C 1318 -83 1043 -77 742 -51 
C 813 -173 864 -365 877 -499 
C 1178 -518 1478 -518 1638 -499 
C 1824 -486 1946 -442 2061 -314 
C 2253 -102 2355 493 2464 2042 
C 2470 2106 2477 2253 2477 2253 
L 864 2253 
L 973 3130 
L 2374 3130 
L 2374 5043 
L 390 5043 
L 390 4595 
L 1933 4595 
L 1933 3571 
L 582 3571 
z
" transform="scale(0.015625)"/>
      <path id="NotoSansCJKjp-Regular-59" d="M 96 0 
L 710 0 
L 1178 813 
C 1299 1024 1408 1235 1530 1434 
L 1562 1434 
C 1696 1235 1824 1024 1939 813 
L 2451 0 
L 3091 0 
L 1946 1754 
L 3002 3475 
L 2394 3475 
L 1965 2714 
C 1856 2515 1760 2330 1658 2131 
L 1626 2131 
C 1510 2330 1389 2515 1286 2714 
L 819 3475 
L 186 3475 
L 1242 1811 
L 96 0 
z
" transform="scale(0.015625)"/>
      <path id="NotoSansCJKjp-Regular-2d1" d="M 294 1600 
L 3136 1600 
L 3136 1997 
L 294 1997 
L 294 1600 
z
" transform="scale(0.015625)"/>
      <path id="NotoSansCJKjp-Regular-55" d="M 1677 -83 
C 1894 -83 2125 -19 2323 45 
L 2208 486 
C 2093 435 1939 390 1811 390 
C 1408 390 1274 634 1274 1056 
L 1274 3002 
L 2221 3002 
L 2221 3475 
L 1274 3475 
L 1274 4454 
L 787 4454 
L 723 3475 
L 173 3443 
L 173 3002 
L 691 3002 
L 691 1075 
C 691 378 941 -83 1677 -83 
z
" transform="scale(0.015625)"/>
      <path id="NotoSansCJKjp-Regular-33ac" d="M 2317 4122 
L 4058 4122 
L 4058 3699 
L 2317 3699 
L 2317 4122 
z
M 2099 2234 
L 4275 2234 
L 4275 806 
L 2099 806 
L 2099 2234 
z
M 1715 2534 
L 1715 506 
L 4678 506 
L 4678 2534 
L 1715 2534 
z
M 2810 1709 
L 3552 1709 
L 3552 1331 
L 2810 1331 
L 2810 1709 
z
M 2509 1965 
L 2509 1082 
L 3872 1082 
L 3872 1965 
L 2509 1965 
z
M 1280 3117 
L 1280 2816 
L 5133 2816 
L 5133 3117 
L 3386 3117 
L 3386 3411 
L 4474 3411 
L 4474 4403 
L 1920 4403 
L 1920 3411 
L 2970 3411 
L 2970 3117 
L 1280 3117 
z
M 525 5114 
L 525 -506 
L 979 -506 
L 979 -250 
L 5421 -250 
L 5421 -506 
L 5888 -506 
L 5888 5114 
L 525 5114 
z
M 979 154 
L 979 4710 
L 5421 4710 
L 5421 154 
L 979 154 
z
" transform="scale(0.015625)"/>
      <path id="NotoSansCJKjp-Regular-44c2" d="M 1952 1382 
L 1952 211 
C 1952 -294 2112 -429 2790 -429 
C 2931 -429 3891 -429 4045 -429 
C 4589 -429 4736 -237 4794 531 
C 4659 557 4467 627 4365 704 
C 4333 96 4288 6 4006 6 
C 3789 6 2982 6 2829 6 
C 2483 6 2419 38 2419 218 
L 2419 1382 
L 1952 1382 
z
M 4557 1306 
C 5037 870 5510 250 5690 -186 
L 6125 38 
C 5939 486 5446 1088 4966 1510 
L 4557 1306 
z
M 1114 1414 
C 966 883 678 314 237 -13 
L 634 -275 
C 1107 96 1370 704 1542 1280 
L 1114 1414 
z
M 1837 5395 
C 1530 4486 973 3661 301 3149 
C 416 3066 621 2886 710 2797 
C 1133 3162 1523 3648 1843 4211 
L 2726 4211 
L 2726 1856 
L 2470 1638 
C 2893 1414 3373 1062 3597 787 
L 3949 1101 
C 3757 1318 3405 1574 3059 1779 
L 3206 1779 
L 3206 2285 
L 5760 2285 
L 5760 2701 
L 3206 2701 
L 3206 3270 
L 5600 3270 
L 5600 3667 
L 3206 3667 
L 3206 4211 
L 5926 4211 
L 5926 4640 
L 2067 4640 
C 2163 4845 2253 5050 2330 5267 
L 1837 5395 
z
" transform="scale(0.015625)"/>
      <path id="NotoSansCJKjp-Regular-b775" d="M 3021 3334 
L 3021 2336 
L 3328 2336 
L 3328 3334 
L 3021 3334 
z
M 1670 3328 
L 1670 3085 
C 1670 2797 1626 2413 1357 2157 
C 1440 2118 1562 2022 1619 1952 
C 1926 2278 1965 2707 1965 3072 
L 1965 3328 
L 1670 3328 
z
M 3866 3341 
L 3866 3110 
C 3866 2848 3827 2483 3571 2259 
C 3654 2214 3776 2118 3834 2054 
C 4128 2355 4173 2758 4173 3098 
L 4173 3341 
L 3866 3341 
z
M 5242 3347 
L 5242 2522 
C 5242 2259 5261 2182 5318 2112 
C 5376 2061 5485 2035 5581 2035 
C 5626 2035 5741 2035 5792 2035 
C 5856 2035 5933 2042 5984 2074 
C 6042 2093 6086 2138 6118 2208 
C 6144 2272 6157 2458 6170 2624 
C 6086 2650 5984 2701 5920 2746 
C 5920 2586 5914 2464 5901 2406 
C 5882 2355 5875 2330 5850 2310 
C 5837 2304 5798 2298 5760 2298 
C 5722 2298 5670 2298 5645 2298 
C 5613 2298 5587 2304 5568 2323 
C 5562 2342 5555 2387 5555 2477 
L 5555 3347 
L 5242 3347 
z
M 4397 736 
C 4627 557 4870 339 5094 122 
L 3040 77 
C 3642 493 4307 1030 4819 1498 
L 4416 1728 
C 4122 1421 3718 1062 3296 730 
C 3142 851 2944 992 2733 1133 
C 3014 1357 3328 1645 3590 1914 
L 3200 2131 
C 3008 1888 2701 1568 2426 1325 
L 2067 1536 
L 1760 1254 
C 2150 1030 2624 698 2931 448 
C 2739 307 2560 179 2381 64 
L 1382 51 
L 1414 -358 
C 2438 -339 3974 -288 5446 -243 
C 5536 -346 5619 -442 5683 -531 
L 6086 -314 
C 5811 51 5248 570 4781 928 
L 4397 736 
z
M 2298 4365 
L 2298 3904 
L 1472 3904 
L 1472 3546 
L 2298 3546 
L 2298 2022 
L 2675 2022 
L 2675 3546 
L 3475 3546 
L 3475 3904 
L 2675 3904 
L 2675 4365 
L 2298 4365 
z
M 4512 4365 
L 4512 3904 
L 3693 3904 
L 3693 3546 
L 4512 3546 
L 4512 1997 
L 4890 1997 
L 4890 3546 
L 5939 3546 
L 5939 3904 
L 4890 3904 
L 4890 4365 
L 4512 4365 
z
M 704 4832 
L 704 2861 
C 704 1933 666 653 205 -256 
C 307 -301 506 -448 582 -531 
C 1075 435 1146 1875 1146 2861 
L 1146 4422 
L 6074 4422 
L 6074 4832 
L 3635 4832 
L 3635 5376 
L 3142 5376 
L 3142 4832 
L 704 4832 
z
" transform="scale(0.015625)"/>
      <path id="NotoSansCJKjp-Regular-95d4" d="M 2554 3802 
L 2554 2528 
L 6003 2528 
L 6003 3802 
L 2554 3802 
z
M 3181 1498 
L 5376 1498 
L 5376 1216 
L 3181 1216 
L 3181 1498 
z
M 3181 986 
L 5376 986 
L 5376 698 
L 3181 698 
L 3181 986 
z
M 3181 2003 
L 5376 2003 
L 5376 1734 
L 3181 1734 
L 3181 2003 
z
M 506 3437 
L 506 3059 
L 2150 3059 
L 2150 3437 
L 506 3437 
z
M 550 5152 
L 550 4768 
L 2138 4768 
L 2138 5152 
L 550 5152 
z
M 506 2586 
L 506 2202 
L 2150 2202 
L 2150 2586 
L 506 2586 
z
M 243 4314 
L 243 3910 
L 2317 3910 
L 2317 4314 
L 243 4314 
z
M 3994 5376 
L 3994 5024 
L 2509 5024 
L 2509 4691 
L 3994 4691 
L 3994 4378 
L 2733 4378 
L 2733 4064 
L 5869 4064 
L 5869 4378 
L 4461 4378 
L 4461 4691 
L 6048 4691 
L 6048 5024 
L 4461 5024 
L 4461 5376 
L 3994 5376 
z
M 2944 3520 
L 3718 3520 
C 3674 3290 3501 3213 2982 3174 
C 3034 3123 3104 3014 3130 2944 
C 3763 3014 3981 3174 4026 3520 
L 4454 3520 
L 4454 3379 
C 4454 3091 4544 3034 4915 3034 
C 4979 3034 5440 3034 5510 3034 
L 5587 3034 
L 5587 2810 
L 2944 2810 
L 2944 3520 
z
M 5587 3283 
C 5574 3270 5555 3264 5453 3264 
C 5363 3264 5011 3264 4947 3264 
C 4800 3264 4781 3277 4781 3379 
L 4781 3520 
L 5587 3520 
L 5587 3283 
z
M 4557 166 
C 5018 -51 5517 -326 5818 -518 
L 6208 -256 
C 5882 -70 5350 198 4883 410 
L 5830 410 
L 5830 2298 
L 2739 2298 
L 2739 410 
L 4845 410 
L 4557 166 
z
M 3520 410 
C 3245 186 2669 -70 2182 -218 
C 2285 -294 2419 -429 2496 -518 
C 2970 -371 3552 -96 3923 179 
L 3520 410 
z
M 499 1722 
L 499 -442 
L 896 -442 
L 896 -141 
L 2144 -141 
L 2144 1722 
L 499 1722 
z
M 896 1325 
L 1747 1325 
L 1747 256 
L 896 256 
L 896 1325 
z
" transform="scale(0.015625)"/>
     </defs>
     <use xlink:href="#NotoSansCJKjp-Regular-2509"/>
     <use xlink:href="#NotoSansCJKjp-Regular-4356" transform="translate(100 0)"/>
     <use xlink:href="#NotoSansCJKjp-Regular-1" transform="translate(200 0)"/>
     <use xlink:href="#NotoSansCJKjp-Regular-59" transform="translate(222.40625 0)"/>
     <use xlink:href="#NotoSansCJKjp-Regular-2d1" transform="translate(270.703125 0)"/>
     <use xlink:href="#NotoSansCJKjp-Regular-55" transform="translate(321.390625 0)"/>
     <use xlink:href="#NotoSansCJKjp-Regular-1" transform="translate(359.09375 0)"/>
     <use xlink:href="#NotoSansCJKjp-Regular-33ac" transform="translate(381.5 0)"/>
     <use xlink:href="#NotoSansCJKjp-Regular-44c2" transform="translate(481.5 0)"/>
     <use xlink:href="#NotoSansCJKjp-Regular-b775" transform="translate(581.5 0)"/>
     <use xlink:href="#NotoSansCJKjp-Regular-95d4" transform="translate(681.5 0)"/>
    </g>
   </g>
   <g id="line2d_27">
    <path d="M 44.48 225.894534 
L 45.697052 224.949511 
L 46.914104 224.004487 
L 48.131156 223.059464 
L 49.348207 222.11444 
L 50.565259 221.169416 
L 51.782311 220.224393 
L 52.999363 219.279369 
L 54.216415 218.334346 
L 55.433467 217.389322 
L 56.650519 216.444298 
L 57.867571 215.499275 
L 59.084622 214.554251 
L 60.301674 213.609228 
L 61.518726 212.664204 
L 62.735778 211.71918 
L 63.95283 210.774157 
L 65.169882 209.829133 
L 66.386934 208.88411 
L 67.603986 207.939086 
L 68.821037 206.994062 
L 70.038089 206.049039 
L 71.255141 205.104015 
L 72.472193 204.158992 
L 73.689245 203.213968 
L 74.906297 202.268944 
L 76.123349 201.323921 
L 77.340401 200.378897 
L 78.557452 199.433874 
L 79.774504 198.48885 
L 80.991556 197.543826 
L 82.208608 196.598803 
L 83.42566 195.653779 
L 84.642712 194.708756 
L 85.859764 193.763732 
L 87.076816 192.818708 
L 88.293867 191.873685 
L 89.510919 190.928661 
L 90.727971 189.983638 
L 91.945023 189.038614 
L 93.162075 188.09359 
L 94.379127 187.148567 
L 95.596179 186.203543 
L 96.813231 185.25852 
L 98.030282 184.313496 
L 99.247334 183.368472 
L 100.464386 182.423449 
L 101.681438 181.478425 
L 102.89849 180.533402 
L 104.115542 179.588378 
L 105.332594 178.643355 
L 106.549646 177.698331 
L 107.766697 176.753307 
L 108.983749 175.808284 
L 110.200801 174.86326 
L 111.417853 173.918237 
L 112.634905 172.973213 
L 113.851957 172.028189 
L 115.069009 171.083166 
L 116.286061 170.138142 
" clip-path="url(#p647a854d35)" style="fill: none; stroke: #1f6feb; stroke-width: 2.8; stroke-linecap: square"/>
   </g>
   <g id="line2d_28">
    <path d="M 116.286061 170.138142 
L 117.385133 170.138142 
L 118.484205 170.138142 
L 119.583278 170.138142 
L 120.68235 170.138142 
L 121.781422 170.138142 
L 122.880495 170.138142 
L 123.979567 170.138142 
L 125.078639 170.138142 
L 126.177712 170.138142 
L 127.276784 170.138142 
L 128.375857 170.138142 
L 129.474929 170.138142 
L 130.574001 170.138142 
L 131.673074 170.138142 
L 132.772146 170.138142 
L 133.871218 170.138142 
L 134.970291 170.138142 
L 136.069363 170.138142 
L 137.168435 170.138142 
L 138.267508 170.138142 
L 139.36658 170.138142 
L 140.465652 170.138142 
L 141.564725 170.138142 
L 142.663797 170.138142 
L 143.76287 170.138142 
L 144.861942 170.138142 
L 145.961014 170.138142 
L 147.060087 170.138142 
L 148.159159 170.138142 
L 149.258231 170.138142 
L 150.357304 170.138142 
L 151.456376 170.138142 
L 152.555448 170.138142 
L 153.654521 170.138142 
L 154.753593 170.138142 
L 155.852665 170.138142 
L 156.951738 170.138142 
L 158.05081 170.138142 
L 159.149882 170.138142 
L 160.248955 170.138142 
L 161.348027 170.138142 
L 162.4471 170.138142 
L 163.546172 170.138142 
L 164.645244 170.138142 
L 165.744317 170.138142 
L 166.843389 170.138142 
L 167.942461 170.138142 
L 169.041534 170.138142 
L 170.140606 170.138142 
" clip-path="url(#p647a854d35)" style="fill: none; stroke: #bf8700; stroke-width: 2.8; stroke-linecap: square"/>
   </g>
   <g id="line2d_29">
    <path d="M 170.140606 170.138142 
L 171.357658 170.123727 
L 172.57471 170.08048 
L 173.791762 170.008402 
L 175.008814 169.907492 
L 176.225865 169.777752 
L 177.442917 169.61918 
L 178.659969 169.431777 
L 179.877021 169.215543 
L 181.094073 168.970477 
L 182.311125 168.696581 
L 183.528177 168.393853 
L 184.745229 168.062294 
L 185.96228 167.701903 
L 187.179332 167.312682 
L 188.396384 166.894629 
L 189.613436 166.447745 
L 190.830488 165.97203 
L 192.04754 165.467483 
L 193.264592 164.934105 
L 194.481644 164.371896 
L 195.698695 163.780856 
L 196.915747 163.160985 
L 198.132799 162.512282 
L 199.349851 161.834748 
L 200.566903 161.128383 
L 201.783955 160.393187 
L 203.001007 159.629159 
L 204.218059 158.836301 
L 205.43511 158.014611 
L 206.652162 157.164089 
L 207.869214 156.284737 
L 209.086266 155.376553 
L 210.303318 154.439538 
L 211.52037 153.473692 
L 212.737422 152.479015 
L 213.954474 151.455506 
L 215.171525 150.403166 
L 216.388577 149.321995 
L 217.605629 148.211993 
L 218.822681 147.073159 
L 220.039733 145.905495 
L 221.256785 144.708999 
L 222.473837 143.483672 
L 223.690889 142.229513 
L 224.90794 140.946523 
L 226.124992 139.634703 
L 227.342044 138.29405 
L 228.559096 136.924567 
L 229.776148 135.526253 
L 230.9932 134.099107 
L 232.210252 132.64313 
L 233.427304 131.158321 
L 234.644355 129.644682 
L 235.861407 128.102211 
L 237.078459 126.530909 
L 238.295511 124.930776 
L 239.512563 123.301812 
L 240.729615 121.644016 
L 241.946667 119.957389 
" clip-path="url(#p647a854d35)" style="fill: none; stroke: #1a7f37; stroke-width: 2.8; stroke-linecap: square"/>
   </g>
   <g id="line2d_30">
    <path d="M 241.946667 119.957389 
L 243.247501 118.1548 
L 244.548336 116.383318 
L 245.84917 114.642943 
L 247.150004 112.933677 
L 248.450839 111.255517 
L 249.751673 109.608465 
L 251.052508 107.992521 
L 252.353342 106.407684 
L 253.654177 104.853955 
L 254.955011 103.331333 
L 256.255845 101.839819 
L 257.55668 100.379412 
L 258.857514 98.950113 
L 260.158349 97.551921 
L 261.459183 96.184837 
L 262.760018 94.848861 
L 264.060852 93.543991 
L 265.361686 92.27023 
L 266.662521 91.027576 
L 267.963355 89.816029 
L 269.26419 88.63559 
L 270.565024 87.486259 
L 271.865859 86.368035 
L 273.166693 85.280918 
L 274.467527 84.22491 
L 275.768362 83.200008 
L 277.069196 82.206214 
L 278.370031 81.243528 
L 279.670865 80.311949 
L 280.9717 79.411478 
L 282.272534 78.542114 
L 283.573368 77.703858 
L 284.874203 76.896709 
L 286.175037 76.120668 
L 287.475872 75.375734 
L 288.776706 74.661908 
L 290.077541 73.979189 
L 291.378375 73.327578 
L 292.679209 72.707075 
L 293.980044 72.117679 
L 295.280878 71.55939 
L 296.581713 71.032209 
L 297.882547 70.536136 
L 299.183382 70.07117 
L 300.484216 69.637311 
L 301.785051 69.23456 
L 303.085885 68.862917 
L 304.386719 68.522381 
L 305.687554 68.212953 
L 306.988388 67.934632 
L 308.289223 67.687418 
L 309.590057 67.471313 
L 310.890892 67.286314 
L 312.191726 67.132424 
L 313.49256 67.00964 
L 314.793395 66.917965 
L 316.094229 66.857397 
L 317.395064 66.827936 
L 318.695898 66.829583 
L 319.996733 66.862337 
L 321.297567 66.926199 
L 322.598401 67.021168 
L 323.899236 67.147245 
L 325.20007 67.30443 
L 326.500905 67.492722 
L 327.801739 67.712121 
L 329.102574 67.962629 
L 330.403408 68.244243 
L 331.704242 68.556965 
" clip-path="url(#p647a854d35)" style="fill: none; stroke: #d1242f; stroke-width: 2.8; stroke-linecap: square"/>
   </g>
   <g id="line2d_31">
    <defs>
     <path id="m6f31014a0c" d="M 0 3 
C 0.795609 3 1.55874 2.683901 2.12132 2.12132 
C 2.683901 1.55874 3 0.795609 3 0 
C 3 -0.795609 2.683901 -1.55874 2.12132 -2.12132 
C 1.55874 -2.683901 0.795609 -3 0 -3 
C -0.795609 -3 -1.55874 -2.683901 -2.12132 -2.12132 
C -2.683901 -1.55874 -3 -0.795609 -3 0 
C -3 0.795609 -2.683901 1.55874 -2.12132 2.12132 
C -1.55874 2.683901 -0.795609 3 0 3 
z
" style="stroke: #222831"/>
    </defs>
    <g clip-path="url(#p647a854d35)">
     <use xlink:href="#m6f31014a0c" x="317.976613" y="66.824827" style="fill: #222831; stroke: #222831"/>
    </g>
   </g>
  </g>
  <g id="axes_2">
   <g id="patch_10">
    <path d="M 390.8 247.674375 
L 687 247.674375 
L 687 25.52 
L 390.8 25.52 
z
" style="fill: #ffffff"/>
   </g>
   <g id="matplotlib.axis_3">
    <g id="xtick_8">
     <g id="line2d_32">
      <path d="M 390.8 247.674375 
L 390.8 25.52 
" clip-path="url(#p554313ca11)" style="fill: none; stroke: #d8dde3; stroke-width: 0.9; stroke-linecap: square"/>
     </g>
     <g id="line2d_33">
      <g>
       <use xlink:href="#m9a386e616d" x="390.8" y="247.674375" style="fill: #222831; stroke: #222831; stroke-width: 0.8"/>
      </g>
     </g>
     <g id="text_22">
      <!-- 0 -->
      <g style="fill: #222831" transform="translate(387.47 265.234375) scale(0.12 -0.12)">
       <use xlink:href="#NotoSansCJKjp-Regular-11"/>
      </g>
     </g>
    </g>
    <g id="xtick_9">
     <g id="line2d_34">
      <path d="M 438.574194 247.674375 
L 438.574194 25.52 
" clip-path="url(#p554313ca11)" style="fill: none; stroke: #d8dde3; stroke-width: 0.9; stroke-linecap: square"/>
     </g>
     <g id="line2d_35">
      <g>
       <use xlink:href="#m9a386e616d" x="438.574194" y="247.674375" style="fill: #222831; stroke: #222831; stroke-width: 0.8"/>
      </g>
     </g>
     <g id="text_23">
      <!-- 1 -->
      <g style="fill: #222831" transform="translate(435.244194 265.234375) scale(0.12 -0.12)">
       <use xlink:href="#NotoSansCJKjp-Regular-12"/>
      </g>
     </g>
    </g>
    <g id="xtick_10">
     <g id="line2d_36">
      <path d="M 486.348387 247.674375 
L 486.348387 25.52 
" clip-path="url(#p554313ca11)" style="fill: none; stroke: #d8dde3; stroke-width: 0.9; stroke-linecap: square"/>
     </g>
     <g id="line2d_37">
      <g>
       <use xlink:href="#m9a386e616d" x="486.348387" y="247.674375" style="fill: #222831; stroke: #222831; stroke-width: 0.8"/>
      </g>
     </g>
     <g id="text_24">
      <!-- 2 -->
      <g style="fill: #222831" transform="translate(483.018387 265.234375) scale(0.12 -0.12)">
       <use xlink:href="#NotoSansCJKjp-Regular-13"/>
      </g>
     </g>
    </g>
    <g id="xtick_11">
     <g id="line2d_38">
      <path d="M 534.122581 247.674375 
L 534.122581 25.52 
" clip-path="url(#p554313ca11)" style="fill: none; stroke: #d8dde3; stroke-width: 0.9; stroke-linecap: square"/>
     </g>
     <g id="line2d_39">
      <g>
       <use xlink:href="#m9a386e616d" x="534.122581" y="247.674375" style="fill: #222831; stroke: #222831; stroke-width: 0.8"/>
      </g>
     </g>
     <g id="text_25">
      <!-- 3 -->
      <g style="fill: #222831" transform="translate(530.792581 265.234375) scale(0.12 -0.12)">
       <use xlink:href="#NotoSansCJKjp-Regular-14"/>
      </g>
     </g>
    </g>
    <g id="xtick_12">
     <g id="line2d_40">
      <path d="M 581.896774 247.674375 
L 581.896774 25.52 
" clip-path="url(#p554313ca11)" style="fill: none; stroke: #d8dde3; stroke-width: 0.9; stroke-linecap: square"/>
     </g>
     <g id="line2d_41">
      <g>
       <use xlink:href="#m9a386e616d" x="581.896774" y="247.674375" style="fill: #222831; stroke: #222831; stroke-width: 0.8"/>
      </g>
     </g>
     <g id="text_26">
      <!-- 4 -->
      <g style="fill: #222831" transform="translate(578.566774 265.234375) scale(0.12 -0.12)">
       <use xlink:href="#NotoSansCJKjp-Regular-15"/>
      </g>
     </g>
    </g>
    <g id="xtick_13">
     <g id="line2d_42">
      <path d="M 629.670968 247.674375 
L 629.670968 25.52 
" clip-path="url(#p554313ca11)" style="fill: none; stroke: #d8dde3; stroke-width: 0.9; stroke-linecap: square"/>
     </g>
     <g id="line2d_43">
      <g>
       <use xlink:href="#m9a386e616d" x="629.670968" y="247.674375" style="fill: #222831; stroke: #222831; stroke-width: 0.8"/>
      </g>
     </g>
     <g id="text_27">
      <!-- 5 -->
      <g style="fill: #222831" transform="translate(626.340968 265.234375) scale(0.12 -0.12)">
       <use xlink:href="#NotoSansCJKjp-Regular-16"/>
      </g>
     </g>
    </g>
    <g id="xtick_14">
     <g id="line2d_44">
      <path d="M 677.445161 247.674375 
L 677.445161 25.52 
" clip-path="url(#p554313ca11)" style="fill: none; stroke: #d8dde3; stroke-width: 0.9; stroke-linecap: square"/>
     </g>
     <g id="line2d_45">
      <g>
       <use xlink:href="#m9a386e616d" x="677.445161" y="247.674375" style="fill: #222831; stroke: #222831; stroke-width: 0.8"/>
      </g>
     </g>
     <g id="text_28">
      <!-- 6 -->
      <g style="fill: #222831" transform="translate(674.115161 265.234375) scale(0.12 -0.12)">
       <use xlink:href="#NotoSansCJKjp-Regular-17"/>
      </g>
     </g>
    </g>
    <g id="text_29">
     <!-- 時間 $t$ (s) -->
     <g style="fill: #222831" transform="translate(515.14 281.234375) scale(0.12 -0.12)">
      <use xlink:href="#NotoSansCJKjp-Regular-4f87" transform="translate(0 0.90625)"/>
      <use xlink:href="#NotoSansCJKjp-Regular-a774" transform="translate(99.999908 0.90625)"/>
      <use xlink:href="#NotoSansCJKjp-Regular-1" transform="translate(199.999817 0.90625)"/>
      <use xlink:href="#Cmmi10-30" transform="translate(222.399796 0.90625)"/>
      <use xlink:href="#NotoSansCJKjp-Regular-1" transform="translate(258.48378 0.90625)"/>
      <use xlink:href="#NotoSansCJKjp-Regular-9" transform="translate(280.883759 0.90625)"/>
      <use xlink:href="#NotoSansCJKjp-Regular-54" transform="translate(314.683731 0.90625)"/>
      <use xlink:href="#NotoSansCJKjp-Regular-a" transform="translate(361.483688 0.90625)"/>
     </g>
    </g>
   </g>
   <g id="matplotlib.axis_4">
    <g id="ytick_7">
     <g id="line2d_46">
      <path d="M 390.8 247.674375 
L 687 247.674375 
" clip-path="url(#p554313ca11)" style="fill: none; stroke: #d8dde3; stroke-width: 0.9; stroke-linecap: square"/>
     </g>
     <g id="line2d_47">
      <g>
       <use xlink:href="#m364b56a399" x="390.8" y="247.674375" style="fill: #222831; stroke: #222831; stroke-width: 0.8"/>
      </g>
     </g>
     <g id="text_30">
      <!-- 0 -->
      <g style="fill: #222831" transform="translate(377.14 252.954375) scale(0.12 -0.12)">
       <use xlink:href="#NotoSansCJKjp-Regular-11"/>
      </g>
     </g>
    </g>
    <g id="ytick_8">
     <g id="line2d_48">
      <path d="M 390.8 204.114694 
L 687 204.114694 
" clip-path="url(#p554313ca11)" style="fill: none; stroke: #d8dde3; stroke-width: 0.9; stroke-linecap: square"/>
     </g>
     <g id="line2d_49">
      <g>
       <use xlink:href="#m364b56a399" x="390.8" y="204.114694" style="fill: #222831; stroke: #222831; stroke-width: 0.8"/>
      </g>
     </g>
     <g id="text_31">
      <!-- 2 -->
      <g style="fill: #222831" transform="translate(377.14 209.394694) scale(0.12 -0.12)">
       <use xlink:href="#NotoSansCJKjp-Regular-13"/>
      </g>
     </g>
    </g>
    <g id="ytick_9">
     <g id="line2d_50">
      <path d="M 390.8 160.555012 
L 687 160.555012 
" clip-path="url(#p554313ca11)" style="fill: none; stroke: #d8dde3; stroke-width: 0.9; stroke-linecap: square"/>
     </g>
     <g id="line2d_51">
      <g>
       <use xlink:href="#m364b56a399" x="390.8" y="160.555012" style="fill: #222831; stroke: #222831; stroke-width: 0.8"/>
      </g>
     </g>
     <g id="text_32">
      <!-- 4 -->
      <g style="fill: #222831" transform="translate(377.14 165.835012) scale(0.12 -0.12)">
       <use xlink:href="#NotoSansCJKjp-Regular-15"/>
      </g>
     </g>
    </g>
    <g id="ytick_10">
     <g id="line2d_52">
      <path d="M 390.8 116.995331 
L 687 116.995331 
" clip-path="url(#p554313ca11)" style="fill: none; stroke: #d8dde3; stroke-width: 0.9; stroke-linecap: square"/>
     </g>
     <g id="line2d_53">
      <g>
       <use xlink:href="#m364b56a399" x="390.8" y="116.995331" style="fill: #222831; stroke: #222831; stroke-width: 0.8"/>
      </g>
     </g>
     <g id="text_33">
      <!-- 6 -->
      <g style="fill: #222831" transform="translate(377.14 122.275331) scale(0.12 -0.12)">
       <use xlink:href="#NotoSansCJKjp-Regular-17"/>
      </g>
     </g>
    </g>
    <g id="ytick_11">
     <g id="line2d_54">
      <path d="M 390.8 73.43565 
L 687 73.43565 
" clip-path="url(#p554313ca11)" style="fill: none; stroke: #d8dde3; stroke-width: 0.9; stroke-linecap: square"/>
     </g>
     <g id="line2d_55">
      <g>
       <use xlink:href="#m364b56a399" x="390.8" y="73.43565" style="fill: #222831; stroke: #222831; stroke-width: 0.8"/>
      </g>
     </g>
     <g id="text_34">
      <!-- 8 -->
      <g style="fill: #222831" transform="translate(377.14 78.71565) scale(0.12 -0.12)">
       <use xlink:href="#NotoSansCJKjp-Regular-19"/>
      </g>
     </g>
    </g>
    <g id="ytick_12">
     <g id="line2d_56">
      <path d="M 390.8 29.875968 
L 687 29.875968 
" clip-path="url(#p554313ca11)" style="fill: none; stroke: #d8dde3; stroke-width: 0.9; stroke-linecap: square"/>
     </g>
     <g id="line2d_57">
      <g>
       <use xlink:href="#m364b56a399" x="390.8" y="29.875968" style="fill: #222831; stroke: #222831; stroke-width: 0.8"/>
      </g>
     </g>
     <g id="text_35">
      <!-- 10 -->
      <g style="fill: #222831" transform="translate(370.48 35.155968) scale(0.12 -0.12)">
       <use xlink:href="#NotoSansCJKjp-Regular-12"/>
       <use xlink:href="#NotoSansCJKjp-Regular-11" transform="translate(55.5 0)"/>
      </g>
     </g>
    </g>
    <g id="text_36">
     <!-- 位置 $x$ (m) -->
     <g style="fill: #222831" transform="translate(364.08 164.377187) rotate(-90) scale(0.12 -0.12)">
      <use xlink:href="#NotoSansCJKjp-Regular-26e3" transform="translate(0 0.296875)"/>
      <use xlink:href="#NotoSansCJKjp-Regular-7ccb" transform="translate(99.999908 0.296875)"/>
      <use xlink:href="#NotoSansCJKjp-Regular-1" transform="translate(199.999817 0.296875)"/>
      <use xlink:href="#Cmmi10-3f" transform="translate(222.399796 0.296875)"/>
      <use xlink:href="#NotoSansCJKjp-Regular-1" transform="translate(279.479874 0.296875)"/>
      <use xlink:href="#NotoSansCJKjp-Regular-9" transform="translate(301.879852 0.296875)"/>
      <use xlink:href="#NotoSansCJKjp-Regular-4e" transform="translate(335.679825 0.296875)"/>
      <use xlink:href="#NotoSansCJKjp-Regular-a" transform="translate(428.279739 0.296875)"/>
     </g>
    </g>
   </g>
   <g id="patch_11">
    <path d="M 390.8 247.674375 
L 390.8 25.52 
" style="fill: none; stroke: #222831; stroke-width: 1.1; stroke-linejoin: miter; stroke-linecap: square"/>
   </g>
   <g id="patch_12">
    <path d="M 390.8 247.674375 
L 687 247.674375 
" style="fill: none; stroke: #222831; stroke-width: 1.1; stroke-linejoin: miter; stroke-linecap: square"/>
   </g>
   <g id="line2d_58">
    <path d="M 531.951026 247.674375 
L 531.951026 142.240146 
" clip-path="url(#p554313ca11)" style="fill: none; stroke-dasharray: 3.7,1.6; stroke-dashoffset: 0; stroke: #222831"/>
   </g>
   <g id="patch_13">
    <path d="M 574.904326 106.423091 
Q 554.194512 123.692184 534.600976 140.030459 
" style="fill: none; stroke: #222831; stroke-width: 1.3; stroke-linecap: round"/>
    <path d="M 539.389204 138.902245 
L 534.600976 140.030459 
L 536.571342 135.522947 
" style="fill: none; stroke: #222831; stroke-width: 1.3; stroke-linecap: round"/>
   </g>
   <g id="text_37">
    <!-- 交點：同一時刻 -->
    <g style="fill: #222831" transform="translate(551.060704 90.826513) scale(0.11 -0.11)">
     <defs>
      <path id="NotoSansCJKjp-Regular-25eb" d="M 2035 3878 
C 1645 3328 973 2803 346 2470 
C 461 2374 653 2189 736 2086 
C 1357 2470 2074 3078 2528 3693 
L 2035 3878 
z
M 3955 3610 
C 4570 3187 5312 2566 5651 2144 
L 6074 2483 
C 5702 2906 4954 3501 4346 3898 
L 3955 3610 
z
M 2298 2739 
L 1843 2598 
C 2093 1978 2426 1446 2842 1005 
C 2170 480 1299 141 256 -77 
C 352 -192 506 -416 563 -538 
C 1606 -275 2496 102 3200 666 
C 3885 83 4762 -307 5850 -512 
C 5920 -378 6061 -166 6170 -58 
C 5107 115 4243 474 3578 998 
C 4019 1440 4378 1978 4634 2630 
L 4128 2778 
C 3917 2195 3610 1722 3213 1325 
C 2816 1722 2509 2195 2298 2739 
z
M 2944 5382 
L 2944 4544 
L 390 4544 
L 390 4070 
L 6010 4070 
L 6010 4544 
L 3430 4544 
L 3430 5382 
L 2944 5382 
z
" transform="scale(0.015625)"/>
      <path id="NotoSansCJKjp-Regular-2eb1" d="M 1587 3917 
L 1587 3501 
L 4838 3501 
L 4838 3917 
L 1587 3917 
z
M 2355 2419 
L 4045 2419 
L 4045 1203 
L 2355 1203 
L 2355 2419 
z
M 1914 2829 
L 1914 326 
L 2355 326 
L 2355 794 
L 4493 794 
L 4493 2829 
L 1914 2829 
z
M 563 5043 
L 563 -525 
L 1030 -525 
L 1030 4589 
L 5376 4589 
L 5376 102 
C 5376 -13 5338 -51 5222 -58 
C 5114 -58 4742 -64 4339 -51 
C 4416 -173 4486 -390 4512 -518 
C 5062 -518 5389 -506 5581 -429 
C 5779 -352 5850 -198 5850 96 
L 5850 5043 
L 563 5043 
z
" transform="scale(0.015625)"/>
      <path id="NotoSansCJKjp-Regular-2bcd" d="M 3968 4666 
L 3968 1094 
L 4429 1094 
L 4429 4666 
L 3968 4666 
z
M 5382 5248 
L 5382 102 
C 5382 -13 5344 -45 5229 -45 
C 5120 -51 4762 -58 4365 -38 
C 4429 -179 4499 -390 4525 -518 
C 5062 -525 5389 -512 5581 -429 
C 5773 -352 5850 -205 5850 102 
L 5850 5248 
L 5382 5248 
z
M 2701 3616 
C 2470 3213 2150 2816 1786 2451 
C 1632 2605 1421 2778 1203 2944 
C 1504 3270 1843 3706 2125 4096 
L 2099 4109 
L 3661 4109 
L 3661 4544 
L 2240 4544 
L 2240 5338 
L 1773 5338 
L 1773 4544 
L 333 4544 
L 333 4109 
L 1555 4109 
C 1370 3808 1114 3456 877 3174 
L 595 3366 
L 320 3046 
C 704 2790 1165 2432 1446 2144 
C 1088 1837 698 1568 301 1363 
C 416 1274 550 1126 627 1018 
C 1606 1568 2547 2470 3123 3450 
L 2701 3616 
z
M 3174 2406 
C 2554 1350 1414 397 198 -134 
C 314 -237 454 -397 525 -512 
C 1139 -218 1734 173 2259 627 
C 2662 275 3117 -160 3347 -448 
L 3718 -109 
C 3475 173 3002 602 2598 947 
C 2989 1338 3328 1766 3597 2221 
L 3174 2406 
z
" transform="scale(0.015625)"/>
     </defs>
     <use xlink:href="#NotoSansCJKjp-Regular-25eb"/>
     <use xlink:href="#NotoSansCJKjp-Regular-b7c4" transform="translate(100 0)"/>
     <use xlink:href="#NotoSansCJKjp-Regular-e6c0" transform="translate(200 0)"/>
     <use xlink:href="#NotoSansCJKjp-Regular-2eb1" transform="translate(300 0)"/>
     <use xlink:href="#NotoSansCJKjp-Regular-2509" transform="translate(400 0)"/>
     <use xlink:href="#NotoSansCJKjp-Regular-4f87" transform="translate(500 0)"/>
     <use xlink:href="#NotoSansCJKjp-Regular-2bcd" transform="translate(600 0)"/>
    </g>
    <!-- 位置相同 → 相遇 -->
    <g style="fill: #222831" transform="translate(551.060704 101.826513) scale(0.11 -0.11)">
     <defs>
      <path id="NotoSansCJKjp-Regular-6ce8" d="M 3494 3034 
L 5440 3034 
L 5440 1920 
L 3494 1920 
L 3494 3034 
z
M 3494 3469 
L 3494 4544 
L 5440 4544 
L 5440 3469 
L 3494 3469 
z
M 3494 1478 
L 5440 1478 
L 5440 365 
L 3494 365 
L 3494 1478 
z
M 3027 4998 
L 3027 -467 
L 3494 -467 
L 3494 -77 
L 5440 -77 
L 5440 -448 
L 5926 -448 
L 5926 4998 
L 3027 4998 
z
M 1370 5376 
L 1370 4006 
L 333 4006 
L 333 3546 
L 1312 3546 
C 1088 2662 634 1651 186 1120 
C 262 1005 384 813 435 685 
C 781 1126 1120 1837 1370 2573 
L 1370 -506 
L 1837 -506 
L 1837 2419 
C 2080 2106 2368 1709 2490 1498 
L 2784 1888 
C 2643 2061 2061 2746 1837 2970 
L 1837 3546 
L 2752 3546 
L 2752 4006 
L 1837 4006 
L 1837 5376 
L 1370 5376 
z
" transform="scale(0.015625)"/>
      <path id="NotoSansCJKjp-Regular-31c" d="M 5190 2650 
L 256 2650 
L 256 2214 
L 5190 2214 
C 4864 1965 4442 1562 4154 1165 
L 4538 941 
C 4966 1504 5606 2067 6176 2432 
C 5606 2797 4966 3360 4538 3923 
L 4154 3699 
C 4442 3302 4864 2899 5190 2650 
z
" transform="scale(0.015625)"/>
      <path id="NotoSansCJKjp-Regular-9dd4" d="M 358 4979 
C 749 4672 1184 4218 1370 3898 
L 1760 4198 
C 1568 4518 1114 4954 723 5248 
L 358 4979 
z
M 1574 2861 
L 294 2861 
L 294 2413 
L 1107 2413 
L 1107 742 
C 819 474 499 205 230 13 
L 480 -461 
C 794 -179 1088 96 1370 371 
C 1773 -134 2355 -358 3200 -390 
C 3917 -416 5286 -403 6003 -378 
C 6022 -230 6099 -13 6157 96 
C 5382 45 3904 26 3194 58 
C 2438 90 1875 307 1574 781 
L 1574 2861 
z
M 2778 1504 
L 2822 1107 
L 4832 1261 
C 4864 1158 4890 1056 4909 973 
L 5229 1062 
C 5171 1338 4986 1786 4806 2112 
L 4499 2042 
C 4570 1907 4640 1760 4698 1613 
L 4128 1581 
L 4128 2285 
L 5414 2285 
L 5414 781 
C 5414 717 5395 698 5312 691 
C 5229 685 4966 685 4659 698 
C 4717 595 4774 454 4800 346 
C 5216 346 5491 346 5651 410 
C 5824 467 5869 570 5869 787 
L 5869 2682 
L 4154 2682 
L 4154 3085 
L 5555 3085 
L 5555 5165 
L 2387 5165 
L 2387 3085 
L 3725 3085 
L 3725 2682 
L 2131 2682 
L 2131 435 
L 2573 435 
L 2573 2285 
L 3712 2285 
L 3712 1555 
L 2778 1504 
z
M 2810 3962 
L 3725 3962 
L 3725 3443 
L 2810 3443 
L 2810 3962 
z
M 4154 3962 
L 5114 3962 
L 5114 3443 
L 4154 3443 
L 4154 3962 
z
M 2810 4819 
L 3725 4819 
L 3725 4301 
L 2810 4301 
L 2810 4819 
z
M 4154 4819 
L 5114 4819 
L 5114 4301 
L 4154 4301 
L 4154 4819 
z
" transform="scale(0.015625)"/>
     </defs>
     <use xlink:href="#NotoSansCJKjp-Regular-26e3"/>
     <use xlink:href="#NotoSansCJKjp-Regular-7ccb" transform="translate(100 0)"/>
     <use xlink:href="#NotoSansCJKjp-Regular-6ce8" transform="translate(200 0)"/>
     <use xlink:href="#NotoSansCJKjp-Regular-2eb1" transform="translate(300 0)"/>
     <use xlink:href="#NotoSansCJKjp-Regular-1" transform="translate(400 0)"/>
     <use xlink:href="#NotoSansCJKjp-Regular-31c" transform="translate(422.40625 0)"/>
     <use xlink:href="#NotoSansCJKjp-Regular-1" transform="translate(522.40625 0)"/>
     <use xlink:href="#NotoSansCJKjp-Regular-6ce8" transform="translate(544.8125 0)"/>
     <use xlink:href="#NotoSansCJKjp-Regular-9dd4" transform="translate(644.8125 0)"/>
    </g>
   </g>
   <g id="text_38">
    <!-- A -->
    <g style="fill: #1f6feb" transform="translate(400.354839 233.29968) scale(0.13 -0.13)">
     <defs>
      <path id="NotoSansCJKjp-Bold-22" d="M -26 0 
L 934 0 
L 1267 1216 
L 2797 1216 
L 3130 0 
L 4128 0 
L 2611 4742 
L 1491 4742 
L -26 0 
z
M 1472 1952 
L 1613 2470 
C 1754 2963 1888 3501 2016 4019 
L 2042 4019 
C 2182 3514 2310 2963 2458 2470 
L 2598 1952 
L 1472 1952 
z
" transform="scale(0.015625)"/>
     </defs>
     <use xlink:href="#NotoSansCJKjp-Bold-22"/>
    </g>
   </g>
   <g id="text_39">
    <!-- B -->
    <g style="fill: #d1242f" transform="translate(400.354839 81.711989) scale(0.13 -0.13)">
     <defs>
      <path id="NotoSansCJKjp-Bold-23" d="M 582 0 
L 2272 0 
C 3315 0 4102 442 4102 1395 
C 4102 2029 3731 2394 3219 2515 
L 3219 2541 
C 3622 2688 3866 3130 3866 3571 
C 3866 4454 3123 4742 2150 4742 
L 582 4742 
L 582 0 
z
M 1530 2810 
L 1530 4013 
L 2093 4013 
C 2662 4013 2944 3846 2944 3430 
C 2944 3053 2688 2810 2086 2810 
L 1530 2810 
z
M 1530 730 
L 1530 2112 
L 2189 2112 
C 2842 2112 3181 1914 3181 1453 
C 3181 960 2829 730 2189 730 
L 1530 730 
z
" transform="scale(0.015625)"/>
     </defs>
     <use xlink:href="#NotoSansCJKjp-Bold-23"/>
    </g>
   </g>
   <g id="text_40">
    <!-- 相遇時刻 -->
    <g style="fill: #222831" transform="translate(510.951026 268.893287) scale(0.105 -0.105)">
     <use xlink:href="#NotoSansCJKjp-Regular-6ce8"/>
     <use xlink:href="#NotoSansCJKjp-Regular-9dd4" transform="translate(100 0)"/>
     <use xlink:href="#NotoSansCJKjp-Regular-4f87" transform="translate(200 0)"/>
     <use xlink:href="#NotoSansCJKjp-Regular-2bcd" transform="translate(300 0)"/>
    </g>
   </g>
   <g id="text_41">
    <!-- 兩條 x–t 線的交點＝相遇 -->
    <g style="fill: #222831" transform="translate(463.195 19.52) scale(0.14 -0.14)">
     <defs>
      <path id="NotoSansCJKjp-Regular-2a94" d="M 1568 2784 
L 1568 2445 
L 1971 2445 
C 1875 1683 1651 1050 1222 634 
C 1299 589 1440 480 1498 429 
C 1779 723 1990 1114 2138 1581 
C 2221 1171 2381 774 2662 435 
C 2720 506 2854 608 2931 653 
C 2374 1293 2330 2112 2330 2784 
L 1568 2784 
z
M 442 4992 
L 442 4518 
L 2938 4518 
L 2938 3718 
L 672 3718 
L 672 -499 
L 1133 -499 
L 1133 3264 
L 2938 3264 
L 2938 -480 
L 3398 -480 
L 3398 3264 
L 5299 3264 
L 5299 58 
C 5299 -38 5267 -70 5171 -70 
C 5069 -77 4736 -77 4384 -64 
C 4448 -186 4525 -371 4550 -499 
C 5005 -499 5325 -493 5517 -416 
C 5709 -346 5766 -211 5766 51 
L 5766 3718 
L 3398 3718 
L 3398 4518 
L 5990 4518 
L 5990 4992 
L 442 4992 
z
M 3802 2784 
L 3802 2445 
L 4218 2445 
C 4115 1709 3891 1088 3482 678 
C 3571 634 3706 525 3763 467 
C 4038 768 4243 1158 4384 1626 
C 4474 1203 4640 794 4947 454 
C 5011 518 5146 621 5229 659 
C 4640 1293 4589 2112 4589 2784 
L 3802 2784 
z
" transform="scale(0.015625)"/>
      <path id="NotoSansCJKjp-Regular-5348" d="M 1965 4621 
L 1965 557 
L 2394 557 
L 2394 4621 
L 1965 4621 
z
M 3558 4275 
L 5056 4275 
C 4877 3917 4634 3622 4326 3379 
C 3974 3642 3718 3942 3546 4250 
L 3558 4275 
z
M 3654 5382 
C 3398 4717 2944 4083 2432 3680 
C 2541 3610 2720 3462 2797 3379 
C 2970 3533 3136 3712 3296 3917 
C 3462 3648 3693 3379 3981 3136 
C 3558 2874 3053 2688 2496 2554 
C 2586 2464 2726 2272 2778 2176 
C 3360 2342 3885 2566 4333 2867 
C 4768 2573 5299 2330 5939 2182 
C 5997 2298 6118 2477 6202 2573 
C 5606 2688 5101 2886 4685 3130 
C 5050 3437 5344 3814 5555 4275 
L 6074 4275 
L 6074 4678 
L 3808 4678 
C 3917 4870 4013 5069 4096 5267 
L 3654 5382 
z
M 4115 2438 
L 4115 1837 
L 2630 1837 
L 2630 1421 
L 3936 1421 
C 3546 845 2918 314 2298 51 
C 2400 -32 2534 -192 2605 -307 
C 3155 -32 3712 442 4115 998 
L 4115 -531 
L 4570 -531 
L 4570 1030 
C 4941 493 5446 -13 5920 -301 
C 5997 -192 6138 -32 6240 51 
C 5696 320 5120 864 4774 1421 
L 6080 1421 
L 6080 1837 
L 4570 1837 
L 4570 2438 
L 4115 2438 
z
M 1491 5344 
C 1184 4352 672 3366 115 2726 
C 198 2605 320 2355 365 2240 
C 576 2490 781 2778 973 3098 
L 973 -512 
L 1434 -512 
L 1434 3962 
C 1626 4365 1798 4794 1933 5222 
L 1491 5344 
z
" transform="scale(0.015625)"/>
      <path id="NotoSansCJKjp-Regular-7a17" d="M 3258 3405 
L 5414 3405 
L 5414 2848 
L 3258 2848 
L 3258 3405 
z
M 3258 4326 
L 5414 4326 
L 5414 3770 
L 3258 3770 
L 3258 4326 
z
M 1894 1632 
C 2048 1267 2182 781 2208 474 
L 2586 589 
C 2541 902 2406 1370 2246 1734 
L 1894 1632 
z
M 570 1715 
C 493 1158 378 582 166 192 
C 269 154 454 70 538 13 
C 736 422 890 1043 973 1651 
L 570 1715 
z
M 2816 4717 
L 2816 2451 
L 4109 2451 
L 4109 6 
C 4109 -64 4090 -83 4006 -90 
C 3930 -90 3674 -90 3386 -83 
C 3443 -211 3501 -384 3520 -506 
C 3917 -506 4173 -499 4339 -435 
C 4506 -358 4544 -237 4544 6 
L 4544 1325 
C 4819 717 5254 109 5952 -250 
C 6016 -128 6157 51 6246 141 
C 5754 358 5382 698 5114 1088 
C 5427 1306 5798 1613 6106 1894 
L 5715 2176 
C 5523 1946 5203 1645 4922 1408 
C 4742 1734 4627 2074 4544 2400 
L 4544 2451 
L 5875 2451 
L 5875 4717 
L 4365 4717 
C 4467 4890 4570 5088 4659 5280 
L 4128 5382 
C 4077 5190 3968 4934 3872 4717 
L 2816 4717 
z
M 2573 1901 
L 2573 1491 
L 3443 1491 
C 3219 826 2803 352 2291 77 
C 2381 13 2534 -154 2592 -250 
C 3226 115 3738 787 3962 1805 
L 3699 1914 
L 3622 1901 
L 2573 1901 
z
M 179 2547 
L 237 2118 
L 1248 2182 
L 1248 -512 
L 1670 -512 
L 1670 2208 
L 2176 2240 
C 2234 2086 2285 1946 2310 1824 
L 2694 2003 
C 2598 2349 2342 2906 2074 3322 
L 1722 3181 
C 1824 3014 1920 2829 2010 2637 
L 1088 2592 
C 1517 3136 2010 3866 2374 4454 
L 1971 4646 
C 1792 4301 1549 3878 1286 3475 
C 1190 3610 1075 3750 941 3898 
C 1178 4256 1459 4781 1677 5216 
L 1254 5376 
C 1120 5018 890 4531 685 4166 
L 486 4346 
L 237 4038 
C 525 3763 845 3398 1037 3104 
C 896 2912 762 2726 634 2566 
L 179 2547 
z
" transform="scale(0.015625)"/>
      <path id="NotoSansCJKjp-Regular-6c33" d="M 3533 2707 
C 3885 2240 4320 1600 4512 1210 
L 4922 1466 
C 4710 1843 4269 2464 3904 2918 
L 3533 2707 
z
M 1536 5389 
C 1485 5082 1376 4659 1274 4346 
L 557 4346 
L 557 -346 
L 998 -346 
L 998 160 
L 2784 160 
L 2784 4346 
L 1715 4346 
C 1824 4621 1946 4979 2054 5299 
L 1536 5389 
z
M 998 3917 
L 2342 3917 
L 2342 2566 
L 998 2566 
L 998 3917 
z
M 998 595 
L 998 2144 
L 2342 2144 
L 2342 595 
L 998 595 
z
M 3827 5402 
C 3622 4518 3277 3635 2835 3066 
C 2950 3002 3149 2867 3238 2790 
C 3456 3098 3661 3488 3840 3923 
L 5478 3923 
C 5402 1357 5299 371 5094 154 
C 5018 64 4947 45 4819 45 
C 4672 45 4288 51 3866 83 
C 3955 -38 4013 -243 4026 -378 
C 4384 -397 4762 -410 4979 -390 
C 5210 -365 5350 -314 5498 -122 
C 5754 192 5843 1184 5939 4122 
C 5946 4186 5946 4365 5946 4365 
L 4013 4365 
C 4115 4666 4211 4986 4288 5299 
L 3827 5402 
z
" transform="scale(0.015625)"/>
      <path id="NotoSansCJKjp-Regular-e6c3" d="M 5523 3386 
L 877 3386 
L 877 2944 
L 5523 2944 
L 5523 3386 
z
M 877 1939 
L 877 1498 
L 5523 1498 
L 5523 1939 
L 877 1939 
z
" transform="scale(0.015625)"/>
     </defs>
     <use xlink:href="#NotoSansCJKjp-Regular-2a94"/>
     <use xlink:href="#NotoSansCJKjp-Regular-5348" transform="translate(100 0)"/>
     <use xlink:href="#NotoSansCJKjp-Regular-1" transform="translate(200 0)"/>
     <use xlink:href="#NotoSansCJKjp-Regular-59" transform="translate(222.40625 0)"/>
     <use xlink:href="#NotoSansCJKjp-Regular-2d1" transform="translate(270.703125 0)"/>
     <use xlink:href="#NotoSansCJKjp-Regular-55" transform="translate(321.390625 0)"/>
     <use xlink:href="#NotoSansCJKjp-Regular-1" transform="translate(359.09375 0)"/>
     <use xlink:href="#NotoSansCJKjp-Regular-7a17" transform="translate(381.5 0)"/>
     <use xlink:href="#NotoSansCJKjp-Regular-6c33" transform="translate(481.5 0)"/>
     <use xlink:href="#NotoSansCJKjp-Regular-25eb" transform="translate(581.5 0)"/>
     <use xlink:href="#NotoSansCJKjp-Regular-b7c4" transform="translate(681.5 0)"/>
     <use xlink:href="#NotoSansCJKjp-Regular-e6c3" transform="translate(781.5 0)"/>
     <use xlink:href="#NotoSansCJKjp-Regular-6ce8" transform="translate(881.5 0)"/>
     <use xlink:href="#NotoSansCJKjp-Regular-9dd4" transform="translate(981.5 0)"/>
    </g>
   </g>
   <g id="line2d_59">
    <path d="M 390.8 225.894534 
L 677.445161 56.011777 
L 677.445161 56.011777 
" clip-path="url(#p554313ca11)" style="fill: none; stroke: #1f6feb; stroke-width: 2.8; stroke-linecap: square"/>
   </g>
   <g id="line2d_60">
    <path d="M 390.8 84.32557 
L 677.445161 201.93671 
L 677.445161 201.93671 
" clip-path="url(#p554313ca11)" style="fill: none; stroke: #d1242f; stroke-width: 2.8; stroke-linecap: square"/>
   </g>
   <g id="line2d_61">
    <defs>
     <path id="m5894c50d2f" d="M 0 4 
C 1.060812 4 2.078319 3.578535 2.828427 2.828427 
C 3.578535 2.078319 4 1.060812 4 0 
C 4 -1.060812 3.578535 -2.078319 2.828427 -2.828427 
C 2.078319 -3.578535 1.060812 -4 0 -4 
C -1.060812 -4 -2.078319 -3.578535 -2.828427 -2.828427 
C -3.578535 -2.078319 -4 -1.060812 -4 0 
C -4 1.060812 -3.578535 2.078319 -2.828427 2.828427 
C -2.078319 3.578535 -1.060812 4 0 4 
z
" style="stroke: #222831"/>
    </defs>
    <g clip-path="url(#p554313ca11)">
     <use xlink:href="#m5894c50d2f" x="531.951026" y="142.240146" style="fill: #222831; stroke: #222831"/>
    </g>
   </g>
  </g>
 </g>
 <defs>
  <clipPath id="p647a854d35">
   <rect x="44.48" y="25.52" width="296.2" height="222.154375"/>
  </clipPath>
  <clipPath id="p554313ca11">
   <rect x="390.8" y="25.52" width="296.2" height="222.154375"/>
  </clipPath>
 </defs>
</svg>
