<?xml version="1.0" encoding="utf-8" standalone="no"?>
<!DOCTYPE svg PUBLIC "-//W3C//DTD SVG 1.1//EN"
  "http://www.w3.org/Graphics/SVG/1.1/DTD/svg11.dtd">
<svg xmlns:xlink="http://www.w3.org/1999/xlink" width="705.298333pt" height="305.28pt" viewBox="0 0 705.298333 305.28" xmlns="http://www.w3.org/2000/svg" version="1.1">
 <metadata>
  <rdf:RDF xmlns:dc="http://purl.org/dc/elements/1.1/" xmlns:cc="http://creativecommons.org/ns#" xmlns:rdf="http://www.w3.org/1999/02/22-rdf-syntax-ns#">
   <cc:Work>
    <dc:type rdf:resource="http://purl.org/dc/dcmitype/StillImage"/>
    <dc:date>2026-06-17T23:23:29.337957</dc:date>
    <dc:format>image/svg+xml</dc:format>
    <dc:creator>
     <cc:Agent>
      <dc:title>Matplotlib v3.11.0, https://matplotlib.org/</dc:title>
     </cc:Agent>
    </dc:creator>
   </cc:Work>
  </rdf:RDF>
 </metadata>
 <defs>
  <style type="text/css">*{stroke-linejoin: round; stroke-linecap: butt}</style>
 </defs>
 <g id="figure_1">
  <g id="patch_1">
   <path d="M -0 305.28 
L 705.298333 305.28 
L 705.298333 0 
L -0 0 
z
" style="fill: #ffffff"/>
  </g>
  <g id="axes_1">
   <g id="patch_2">
    <path d="M 155.25 143.08 
C 155.25 138.756391 154.30301 134.484793 152.475774 130.566273 
C 150.648538 126.647753 147.985017 123.176586 144.672941 120.397424 
" clip-path="url(#p1c8863ed19)" style="fill: none; stroke: #222831; stroke-width: 1.2; stroke-linejoin: miter"/>
   </g>
   <g id="line2d_1">
    <path d="M 210.24 143.08 
L 210.145612 139.084814 
L 209.862659 135.098542 
L 209.391773 131.130081 
L 208.734003 127.188284 
L 207.890818 123.281948 
L 206.8641 119.419789 
L 205.656139 115.610425 
L 204.26963 111.862357 
L 202.707668 108.183947 
L 200.973738 104.583404 
L 199.071709 101.068762 
L 197.005825 97.647864 
L 194.780696 94.328342 
L 192.401287 91.117605 
L 189.872908 88.022815 
L 187.201199 85.05088 
L 184.392124 82.208431 
L 181.45195 79.50181 
L 178.387237 76.937057 
L 175.204825 74.519894 
L 171.911814 72.255716 
L 168.515553 70.149574 
L 165.023619 68.206169 
L 161.443806 66.429837 
L 157.7841 64.824541 
L 154.052668 63.393864 
L 150.257836 62.140997 
L 146.408072 61.068738 
L 142.511967 60.179477 
L 138.578213 59.4752 
L 134.61559 58.957478 
L 130.632938 58.627466 
L 126.639145 58.4859 
L 122.643123 58.533097 
L 118.653787 58.768952 
L 114.680041 59.192937 
L 110.730751 59.804107 
L 106.814729 60.601099 
L 102.940714 61.582133 
L 99.117349 62.74502 
L 95.353167 64.087166 
L 91.656567 65.605577 
L 88.035797 67.296862 
L 84.498937 69.15725 
L 81.053879 71.182589 
L 77.708309 73.368358 
L 74.469694 75.709682 
L 71.34526 78.201334 
L 68.341979 80.837757 
L 65.466552 83.613067 
L 62.725396 86.52107 
L 60.124626 89.555279 
L 57.670047 92.708922 
L 55.367136 95.974962 
L 53.221031 99.346113 
L 51.236521 102.814851 
L 49.418034 106.373436 
L 47.769628 110.013927 
L 46.294981 113.728203 
L 44.997384 117.507973 
L 43.879733 121.344805 
L 42.94452 125.230136 
L 42.193834 129.155298 
L 41.629348 133.111531 
L 41.252323 137.090007 
L 41.0636 141.081849 
L 41.0636 145.078151 
L 41.252323 149.069993 
L 41.629348 153.048469 
L 42.193834 157.004702 
L 42.94452 160.929864 
L 43.879733 164.815195 
L 44.997384 168.652027 
L 46.294981 172.431797 
L 47.769628 176.146073 
L 49.418034 179.786564 
L 51.236521 183.345149 
L 53.221031 186.813887 
L 55.367136 190.185038 
L 57.670047 193.451078 
L 60.124626 196.604721 
L 62.725396 199.63893 
L 65.466552 202.546933 
L 68.341979 205.322243 
L 71.34526 207.958666 
L 74.469694 210.450318 
L 77.708309 212.791642 
L 81.053879 214.977411 
L 84.498937 217.00275 
L 88.035797 218.863138 
L 91.656567 220.554423 
L 95.353167 222.072834 
L 99.117349 223.41498 
L 102.940714 224.577867 
L 106.814729 225.558901 
L 110.730751 226.355893 
L 114.680041 226.967063 
L 118.653787 227.391048 
L 122.643123 227.626903 
L 126.639145 227.6741 
L 130.632938 227.532534 
L 134.61559 227.202522 
L 138.578213 226.6848 
L 142.511967 225.980523 
L 146.408072 225.091262 
L 150.257836 224.019003 
L 154.052668 222.766136 
L 157.7841 221.335459 
L 161.443806 219.730163 
L 165.023619 217.953831 
L 168.515553 216.010426 
L 171.911814 213.904284 
L 175.204825 211.640106 
L 178.387237 209.222943 
L 181.45195 206.65819 
L 184.392124 203.951569 
L 187.201199 201.10912 
L 189.872908 198.137185 
L 192.401287 195.042395 
L 194.780696 191.831658 
L 197.005825 188.512136 
L 199.071709 185.091238 
L 200.973738 181.576596 
L 202.707668 177.976053 
L 204.26963 174.297643 
L 205.656139 170.549575 
L 206.8641 166.740211 
L 207.890818 162.878052 
L 208.734003 158.971716 
L 209.391773 155.029919 
L 209.862659 151.061458 
L 210.145612 147.075186 
L 210.24 143.08 
L 210.24 143.08 
" clip-path="url(#p1c8863ed19)" style="fill: none; stroke: #9aa0a6; stroke-width: 1.6; stroke-linecap: square"/>
   </g>
   <g id="line2d_2">
    <path d="M 125.64 143.08 
L 180.019832 78.27264 
" clip-path="url(#p1c8863ed19)" style="fill: none; stroke: #8250df; stroke-width: 2; stroke-linecap: square"/>
   </g>
   <g id="line2d_3">
    <path d="M 180.019832 78.27264 
L 180.019832 143.08 
" clip-path="url(#p1c8863ed19)" style="fill: none; stroke-dasharray: 1,1.65; stroke-dashoffset: 0; stroke: #222831"/>
   </g>
   <g id="line2d_4">
    <path d="M 7.2 143.08 
L 252.54 143.08 
" clip-path="url(#p1c8863ed19)" style="fill: none; stroke: #222831; stroke-width: 1.2; stroke-linecap: square"/>
   </g>
   <g id="text_1">
    <!-- $\omega t$ -->
    <g style="fill: #222831" transform="translate(163.71 129.544) scale(0.12 -0.12)">
     <defs>
      <path id="Cmmi10-1d" d="M 775 -72 
Q 413 -72 252 193 
Q 91 459 91 844 
Q 91 1097 136 1339 
Q 181 1581 273 1829 
Q 366 2078 484 2295 
Q 603 2513 750 2719 
Q 778 2759 825 2759 
Q 866 2759 891 2734 
Q 916 2709 916 2675 
Q 916 2641 897 2613 
Q 313 1809 313 1131 
Q 313 838 448 627 
Q 584 416 863 416 
Q 1103 416 1308 556 
Q 1513 697 1663 916 
Q 1663 1028 1702 1265 
Q 1741 1503 1823 1689 
Q 1906 1875 2022 1875 
Q 2169 1875 2169 1703 
Q 2169 1603 2126 1451 
Q 2084 1300 2032 1169 
Q 1981 1038 1906 872 
Q 1981 416 2363 416 
Q 2584 416 2807 544 
Q 3031 672 3203 880 
Q 3375 1088 3473 1328 
Q 3572 1569 3572 1784 
Q 3572 1978 3511 2086 
Q 3450 2194 3350 2312 
Q 3250 2431 3250 2503 
Q 3250 2628 3356 2731 
Q 3463 2834 3584 2834 
Q 3741 2834 3806 2692 
Q 3872 2550 3872 2369 
Q 3872 2075 3755 1628 
Q 3638 1181 3488 884 
Q 3281 481 2970 204 
Q 2659 -72 2272 -72 
Q 2025 -72 1873 76 
Q 1722 225 1678 481 
Q 1500 228 1272 78 
Q 1044 -72 775 -72 
z
" transform="scale(0.015625)"/>
      <path id="Cmmi10-30" d="M 397 519 
Q 397 613 416 697 
L 878 2534 
L 206 2534 
Q 141 2534 141 2619 
Q 166 2759 225 2759 
L 934 2759 
L 1191 3803 
Q 1216 3888 1291 3947 
Q 1366 4006 1459 4006 
Q 1541 4006 1595 3957 
Q 1650 3909 1650 3828 
Q 1650 3809 1648 3798 
Q 1647 3788 1644 3775 
L 1388 2759 
L 2047 2759 
Q 2113 2759 2113 2675 
Q 2109 2659 2100 2621 
Q 2091 2584 2075 2559 
Q 2059 2534 2028 2534 
L 1331 2534 
L 872 684 
Q 825 503 825 372 
Q 825 97 1013 97 
Q 1294 97 1511 361 
Q 1728 625 1844 941 
Q 1869 978 1894 978 
L 1972 978 
Q 1997 978 2012 961 
Q 2028 944 2028 922 
Q 2028 909 2022 903 
Q 1881 516 1612 222 
Q 1344 -72 997 -72 
Q 744 -72 570 93 
Q 397 259 397 519 
z
" transform="scale(0.015625)"/>
     </defs>
     <use xlink:href="#Cmmi10-1d" transform="translate(0 0.40625)"/>
     <use xlink:href="#Cmmi10-30" transform="translate(62.207031 0.40625)"/>
    </g>
   </g>
   <g id="text_2">
    <!-- 圓周運動 -->
    <g style="fill: #8250df" transform="translate(184.249832 68.12064) scale(0.11 -0.11)">
     <defs>
      <path id="NotoSansCJKjp-Regular-33a8" d="M 2330 4013 
L 4051 4013 
L 4051 3648 
L 2330 3648 
L 2330 4013 
z
M 1926 4282 
L 1926 3373 
L 4474 3373 
L 4474 4282 
L 1926 4282 
z
M 2061 2304 
L 4301 2304 
L 4301 2003 
L 2061 2003 
L 2061 2304 
z
M 2061 1741 
L 4301 1741 
L 4301 1427 
L 2061 1427 
L 2061 1741 
z
M 2061 2861 
L 4301 2861 
L 4301 2566 
L 2061 2566 
L 2061 2861 
z
M 3482 966 
C 3923 800 4390 570 4653 390 
L 5050 582 
C 4749 768 4237 992 3782 1158 
L 4730 1158 
L 4730 3130 
L 1651 3130 
L 1651 1158 
L 2509 1158 
C 2221 966 1760 800 1338 678 
C 1421 608 1568 467 1632 397 
C 2048 544 2560 800 2886 1043 
L 2541 1158 
L 3757 1158 
L 3482 966 
z
M 525 5082 
L 525 -531 
L 986 -531 
L 986 -230 
L 5402 -230 
L 5402 -531 
L 5875 -531 
L 5875 5082 
L 525 5082 
z
M 986 205 
L 986 4640 
L 5402 4640 
L 5402 205 
L 986 205 
z
" transform="scale(0.015625)"/>
      <path id="NotoSansCJKjp-Regular-2f3d" d="M 947 5069 
L 947 2995 
C 947 2003 883 691 211 -243 
C 320 -301 512 -454 595 -550 
C 1318 442 1421 1933 1421 2995 
L 1421 4621 
L 5152 4621 
L 5152 96 
C 5152 -13 5107 -51 4992 -58 
C 4883 -64 4486 -70 4070 -51 
C 4141 -173 4211 -384 4230 -506 
C 4806 -506 5152 -499 5350 -422 
C 5555 -346 5632 -205 5632 96 
L 5632 5069 
L 947 5069 
z
M 2989 4493 
L 2989 3936 
L 1843 3936 
L 1843 3552 
L 2989 3552 
L 2989 2925 
L 1683 2925 
L 1683 2528 
L 4819 2528 
L 4819 2925 
L 3450 2925 
L 3450 3552 
L 4659 3552 
L 4659 3936 
L 3450 3936 
L 3450 4493 
L 2989 4493 
z
M 1997 1990 
L 1997 -51 
L 2438 -51 
L 2438 307 
L 4486 307 
L 4486 1990 
L 1997 1990 
z
M 2438 1600 
L 4038 1600 
L 4038 691 
L 2438 691 
L 2438 1600 
z
" transform="scale(0.015625)"/>
      <path id="NotoSansCJKjp-Regular-9dde" d="M 358 4947 
C 749 4640 1184 4186 1370 3866 
L 1760 4166 
C 1568 4480 1114 4922 723 5216 
L 358 4947 
z
M 1984 5152 
L 1984 4320 
L 2419 4320 
L 2419 4787 
L 5504 4787 
L 5504 4320 
L 5958 4320 
L 5958 5152 
L 1984 5152 
z
M 1574 2848 
L 294 2848 
L 294 2400 
L 1107 2400 
L 1107 742 
C 819 474 499 205 230 13 
L 480 -461 
C 794 -179 1088 96 1370 371 
C 1773 -134 2355 -358 3200 -390 
C 3917 -416 5286 -403 6003 -378 
C 6022 -230 6099 -13 6157 96 
C 5382 45 3904 26 3194 58 
C 2438 90 1875 307 1574 781 
L 1574 2848 
z
M 2746 2368 
L 3718 2368 
L 3718 1933 
L 2746 1933 
L 2746 2368 
z
M 4186 2368 
L 5178 2368 
L 5178 1933 
L 4186 1933 
L 4186 2368 
z
M 2746 3104 
L 3718 3104 
L 3718 2682 
L 2746 2682 
L 2746 3104 
z
M 4186 3104 
L 5178 3104 
L 5178 2682 
L 4186 2682 
L 4186 3104 
z
M 1882 1216 
L 1882 845 
L 3718 845 
L 3718 237 
L 4186 237 
L 4186 845 
L 6067 845 
L 6067 1216 
L 4186 1216 
L 4186 1606 
L 5619 1606 
L 5619 3430 
L 4186 3430 
L 4186 3821 
L 5798 3821 
L 5798 4179 
L 4186 4179 
L 4186 4627 
L 3718 4627 
L 3718 4179 
L 2125 4179 
L 2125 3821 
L 3718 3821 
L 3718 3430 
L 2323 3430 
L 2323 1606 
L 3718 1606 
L 3718 1216 
L 1882 1216 
z
" transform="scale(0.015625)"/>
      <path id="NotoSansCJKjp-Regular-2cc2" d="M 4192 5293 
C 4192 4806 4192 4333 4179 3878 
L 3418 3878 
L 3418 3437 
L 4166 3437 
C 4109 2227 3942 1184 3386 422 
L 3386 448 
L 2099 314 
L 2099 826 
L 3360 826 
L 3360 1197 
L 2099 1197 
L 2099 1587 
L 3347 1587 
L 3347 3501 
L 2099 3501 
L 2099 3904 
L 3469 3904 
L 3469 4282 
L 2099 4282 
L 2099 4755 
C 2566 4806 3008 4864 3354 4941 
L 3117 5312 
C 2451 5158 1286 5043 339 4998 
C 384 4896 435 4742 454 4640 
C 832 4653 1248 4678 1658 4710 
L 1658 4282 
L 269 4282 
L 269 3904 
L 1658 3904 
L 1658 3501 
L 461 3501 
L 461 1587 
L 1658 1587 
L 1658 1197 
L 442 1197 
L 442 826 
L 1658 826 
L 1658 269 
L 269 141 
L 333 -282 
C 1056 -205 2054 -90 3034 26 
C 2950 -51 2854 -128 2758 -198 
C 2874 -275 3040 -435 3110 -544 
C 4256 307 4544 1722 4627 3437 
L 5536 3437 
C 5472 1094 5395 243 5242 51 
C 5184 -32 5120 -45 5018 -45 
C 4896 -45 4608 -45 4294 -19 
C 4371 -147 4422 -346 4435 -480 
C 4736 -493 5037 -499 5222 -474 
C 5414 -454 5542 -403 5651 -230 
C 5869 38 5933 934 6003 3642 
C 6003 3699 6003 3878 6003 3878 
L 4640 3878 
C 4653 4333 4659 4806 4659 5293 
L 4192 5293 
z
M 858 2387 
L 1658 2387 
L 1658 1920 
L 858 1920 
L 858 2387 
z
M 2099 2387 
L 2938 2387 
L 2938 1920 
L 2099 1920 
L 2099 2387 
z
M 858 3168 
L 1658 3168 
L 1658 2707 
L 858 2707 
L 858 3168 
z
M 2099 3168 
L 2938 3168 
L 2938 2707 
L 2099 2707 
L 2099 3168 
z
" transform="scale(0.015625)"/>
     </defs>
     <use xlink:href="#NotoSansCJKjp-Regular-33a8"/>
     <use xlink:href="#NotoSansCJKjp-Regular-2f3d" transform="translate(100 0)"/>
     <use xlink:href="#NotoSansCJKjp-Regular-9dde" transform="translate(200 0)"/>
     <use xlink:href="#NotoSansCJKjp-Regular-2cc2" transform="translate(300 0)"/>
    </g>
   </g>
   <g id="text_3">
    <!-- $x=A\cos\omega t$ -->
    <g style="fill: #1f6feb" transform="translate(150.079832 164.23) scale(0.12 -0.12)">
     <defs>
      <path id="Cmmi10-3f" d="M 500 184 
Q 613 97 819 97 
Q 1019 97 1172 289 
Q 1325 481 1381 709 
L 1672 1844 
Q 1741 2153 1741 2266 
Q 1741 2425 1652 2544 
Q 1563 2663 1403 2663 
Q 1200 2663 1022 2536 
Q 844 2409 722 2214 
Q 600 2019 550 1819 
Q 538 1778 500 1778 
L 422 1778 
Q 372 1778 372 1838 
L 372 1856 
Q 434 2094 584 2320 
Q 734 2547 951 2687 
Q 1169 2828 1416 2828 
Q 1650 2828 1839 2703 
Q 2028 2578 2106 2363 
Q 2216 2559 2386 2693 
Q 2556 2828 2759 2828 
Q 2897 2828 3040 2779 
Q 3184 2731 3275 2631 
Q 3366 2531 3366 2381 
Q 3366 2219 3261 2101 
Q 3156 1984 2994 1984 
Q 2891 1984 2822 2050 
Q 2753 2116 2753 2216 
Q 2753 2350 2845 2451 
Q 2938 2553 3066 2572 
Q 2950 2663 2747 2663 
Q 2541 2663 2389 2472 
Q 2238 2281 2175 2047 
L 1894 916 
Q 1825 659 1825 494 
Q 1825 331 1917 214 
Q 2009 97 2163 97 
Q 2463 97 2698 361 
Q 2934 625 3009 941 
Q 3022 978 3059 978 
L 3138 978 
Q 3163 978 3178 961 
Q 3194 944 3194 922 
Q 3194 916 3188 903 
Q 3097 522 2806 225 
Q 2516 -72 2150 -72 
Q 1916 -72 1727 54 
Q 1538 181 1459 397 
Q 1359 209 1182 68 
Q 1006 -72 806 -72 
Q 669 -72 523 -23 
Q 378 25 287 125 
Q 197 225 197 378 
Q 197 528 301 651 
Q 406 775 563 775 
Q 669 775 741 711 
Q 813 647 813 544 
Q 813 409 723 309 
Q 634 209 500 184 
z
" transform="scale(0.015625)"/>
      <path id="Cmr10-29" d="M 481 850 
Q 428 850 393 890 
Q 359 931 359 978 
Q 359 1031 393 1068 
Q 428 1106 481 1106 
L 4500 1106 
Q 4547 1106 4581 1068 
Q 4616 1031 4616 978 
Q 4616 931 4581 890 
Q 4547 850 4500 850 
L 481 850 
z
M 481 2094 
Q 428 2094 393 2131 
Q 359 2169 359 2222 
Q 359 2269 393 2309 
Q 428 2350 481 2350 
L 4500 2350 
Q 4547 2350 4581 2309 
Q 4616 2269 4616 2222 
Q 4616 2169 4581 2131 
Q 4547 2094 4500 2094 
L 481 2094 
z
" transform="scale(0.015625)"/>
      <path id="Cmmi10-5c" d="M 288 0 
Q 225 0 225 84 
Q 250 225 306 225 
Q 566 225 755 328 
Q 944 431 1081 647 
Q 1094 659 1094 659 
L 3378 4513 
Q 3428 4581 3500 4581 
L 3584 4581 
Q 3603 4581 3622 4573 
Q 3641 4566 3655 4548 
Q 3669 4531 3669 4513 
L 4056 378 
Q 4056 350 4084 294 
Q 4147 225 4563 225 
Q 4628 225 4628 141 
Q 4606 56 4592 28 
Q 4578 0 4519 0 
L 2919 0 
Q 2859 0 2859 84 
Q 2894 225 2944 225 
Q 3450 225 3481 397 
L 3384 1453 
L 1806 1453 
L 1294 594 
Q 1247 525 1247 434 
Q 1247 322 1355 273 
Q 1463 225 1594 225 
Q 1656 225 1656 141 
Q 1634 50 1621 25 
Q 1609 0 1550 0 
L 288 0 
z
M 1931 1678 
L 3359 1678 
L 3169 3750 
L 1931 1678 
z
" transform="scale(0.015625)"/>
      <path id="Cmr10-7b" d="M 1594 -72 
Q 1206 -72 890 129 
Q 575 331 394 667 
Q 213 1003 213 1381 
Q 213 1759 392 2106 
Q 572 2453 889 2661 
Q 1206 2869 1594 2869 
Q 1969 2869 2276 2722 
Q 2584 2575 2584 2241 
Q 2584 2116 2495 2023 
Q 2406 1931 2278 1931 
Q 2150 1931 2061 2023 
Q 1972 2116 1972 2241 
Q 1972 2353 2044 2436 
Q 2116 2519 2222 2541 
Q 2000 2681 1600 2681 
Q 1294 2681 1106 2478 
Q 919 2275 844 1975 
Q 769 1675 769 1381 
Q 769 1072 861 783 
Q 953 494 1158 305 
Q 1363 116 1672 116 
Q 1975 116 2187 302 
Q 2400 488 2478 788 
Q 2478 825 2528 825 
L 2606 825 
Q 2625 825 2640 808 
Q 2656 791 2656 769 
L 2656 750 
Q 2559 372 2271 150 
Q 1984 -72 1594 -72 
z
" transform="scale(0.015625)"/>
      <path id="Cmr10-42" d="M 1600 -72 
Q 1216 -72 887 123 
Q 559 319 368 647 
Q 178 975 178 1363 
Q 178 1656 283 1928 
Q 388 2200 583 2414 
Q 778 2628 1037 2748 
Q 1297 2869 1600 2869 
Q 1994 2869 2317 2661 
Q 2641 2453 2828 2104 
Q 3016 1756 3016 1363 
Q 3016 978 2825 648 
Q 2634 319 2307 123 
Q 1981 -72 1600 -72 
z
M 1600 116 
Q 2113 116 2284 487 
Q 2456 859 2456 1434 
Q 2456 1756 2422 1967 
Q 2388 2178 2272 2350 
Q 2200 2456 2089 2536 
Q 1978 2616 1854 2658 
Q 1731 2700 1600 2700 
Q 1400 2700 1220 2609 
Q 1041 2519 922 2350 
Q 803 2169 770 1951 
Q 738 1734 738 1434 
Q 738 1075 800 789 
Q 863 503 1052 309 
Q 1241 116 1600 116 
z
" transform="scale(0.015625)"/>
      <path id="Cmr10-52" d="M 213 -19 
L 213 1025 
Q 213 1075 269 1075 
L 347 1075 
Q 384 1075 397 1025 
Q 575 97 1259 97 
Q 1563 97 1767 234 
Q 1972 372 1972 659 
Q 1972 866 1812 1011 
Q 1653 1156 1434 1209 
L 1006 1294 
Q 791 1341 614 1437 
Q 438 1534 325 1695 
Q 213 1856 213 2069 
Q 213 2350 361 2529 
Q 509 2709 746 2789 
Q 984 2869 1259 2869 
Q 1588 2869 1831 2694 
L 2016 2853 
Q 2016 2869 2047 2869 
L 2094 2869 
Q 2113 2869 2128 2851 
Q 2144 2834 2144 2816 
L 2144 1978 
Q 2144 1919 2094 1919 
L 2016 1919 
Q 1959 1919 1959 1978 
Q 1959 2313 1773 2516 
Q 1588 2719 1253 2719 
Q 966 2719 755 2612 
Q 544 2506 544 2247 
Q 544 2069 695 1955 
Q 847 1841 1050 1791 
L 1484 1709 
Q 1703 1659 1892 1540 
Q 2081 1422 2192 1240 
Q 2303 1059 2303 831 
Q 2303 600 2223 429 
Q 2144 259 2001 146 
Q 1859 34 1665 -19 
Q 1472 -72 1259 -72 
Q 859 -72 575 197 
L 341 -56 
Q 341 -72 306 -72 
L 269 -72 
Q 213 -72 213 -19 
z
" transform="scale(0.015625)"/>
     </defs>
     <use xlink:href="#Cmmi10-3f" transform="translate(0 0.421875)"/>
     <use xlink:href="#Cmr10-29" transform="translate(77.080135 0.421875)"/>
     <use xlink:href="#Cmmi10-5c" transform="translate(174.765739 0.421875)"/>
     <use xlink:href="#Cmr10-7b" transform="translate(249.765739 0.421875)"/>
     <use xlink:href="#Cmr10-42" transform="translate(294.150505 0.421875)"/>
     <use xlink:href="#Cmr10-52" transform="translate(344.150505 0.421875)"/>
     <use xlink:href="#Cmmi10-1d" transform="translate(400.22185 0.421875)"/>
     <use xlink:href="#Cmmi10-30" transform="translate(462.428881 0.421875)"/>
    </g>
   </g>
   <g id="text_4">
    <!-- $A$ -->
    <g style="fill: #6b7280" transform="translate(225.468 147.64) scale(0.12 -0.12)">
     <use xlink:href="#Cmmi10-5c" transform="translate(0 0.421875)"/>
    </g>
   </g>
   <g id="text_5">
    <!-- 簡諧 = 圓周在直徑上的投影 -->
    <g style="fill: #222831" transform="translate(51.849688 18.64) scale(0.13 -0.13)">
     <defs>
      <path id="NotoSansCJKjp-Regular-7668" d="M 1120 3430 
L 2490 3430 
L 2490 3072 
L 1120 3072 
L 1120 3430 
z
M 1120 2413 
L 1120 2778 
L 2490 2778 
L 2490 2413 
L 1120 2413 
z
M 678 3744 
L 678 -506 
L 1120 -506 
L 1120 2099 
L 2931 2099 
L 2931 3744 
L 678 3744 
z
M 2458 1466 
L 3968 1466 
L 3968 1050 
L 2458 1050 
L 2458 1466 
z
M 2458 320 
L 2458 749 
L 3968 749 
L 3968 320 
L 2458 320 
z
M 2022 1773 
L 2022 -218 
L 2458 -218 
L 2458 19 
L 4397 19 
L 4397 1773 
L 2022 1773 
z
M 3910 2778 
L 5344 2778 
L 5344 2413 
L 3910 2413 
L 3910 2778 
z
M 3910 3072 
L 3910 3430 
L 5344 3430 
L 5344 3072 
L 3910 3072 
z
M 5344 3744 
L 3475 3744 
L 3475 2099 
L 5344 2099 
L 5344 45 
C 5344 -51 5312 -77 5216 -83 
C 5114 -90 4774 -90 4416 -77 
C 4480 -198 4544 -384 4563 -506 
C 5043 -512 5363 -506 5555 -435 
C 5734 -358 5798 -224 5798 45 
L 5798 3744 
L 5344 3744 
z
M 1171 5408 
C 973 4909 627 4410 243 4083 
C 352 4019 550 3891 640 3814 
C 826 4000 1018 4237 1190 4499 
L 1446 4499 
C 1574 4282 1702 4026 1747 3853 
L 2176 3974 
C 2131 4115 2029 4314 1920 4499 
L 3117 4499 
L 3117 4883 
L 1421 4883 
C 1498 5018 1562 5152 1619 5286 
L 1171 5408 
z
M 3712 5408 
C 3507 4902 3130 4422 2701 4109 
C 2822 4058 3021 3936 3117 3872 
C 3322 4038 3526 4256 3712 4499 
L 4205 4499 
C 4384 4282 4563 4019 4640 3834 
L 5069 3974 
C 4998 4122 4864 4320 4723 4499 
L 6067 4499 
L 6067 4883 
L 3968 4883 
C 4045 5018 4115 5152 4173 5293 
L 3712 5408 
z
" transform="scale(0.015625)"/>
      <path id="NotoSansCJKjp-Regular-947f" d="M 518 3437 
L 518 3059 
L 2246 3059 
L 2246 3437 
L 518 3437 
z
M 557 5152 
L 557 4768 
L 2227 4768 
L 2227 5152 
L 557 5152 
z
M 518 2586 
L 518 2202 
L 2246 2202 
L 2246 2586 
L 518 2586 
z
M 243 4314 
L 243 3910 
L 2438 3910 
L 2438 4314 
L 243 4314 
z
M 3328 717 
L 5280 717 
L 5280 102 
L 3328 102 
L 3328 717 
z
M 3328 1088 
L 3328 1677 
L 5280 1677 
L 5280 1088 
L 3328 1088 
z
M 3974 2688 
C 3923 2509 3834 2272 3744 2067 
L 2874 2067 
L 2874 -512 
L 3328 -512 
L 3328 -282 
L 5280 -282 
L 5280 -486 
L 5754 -486 
L 5754 2067 
L 4205 2067 
L 4467 2579 
L 3974 2688 
z
M 2381 2893 
L 2522 2458 
C 3021 2592 3648 2758 4250 2925 
L 4205 3315 
L 3270 3091 
L 3270 4058 
L 4198 4058 
L 4198 4474 
L 3270 4474 
L 3270 5350 
L 2822 5350 
L 2822 2989 
L 2381 2893 
z
M 5702 4838 
C 5504 4653 5184 4448 4864 4269 
L 4864 5357 
L 4416 5357 
L 4416 3142 
C 4416 2669 4531 2541 4992 2541 
C 5082 2541 5536 2541 5632 2541 
C 6022 2541 6138 2739 6182 3475 
C 6061 3507 5875 3578 5779 3654 
C 5760 3046 5741 2944 5587 2944 
C 5498 2944 5126 2944 5056 2944 
C 4890 2944 4864 2970 4864 3142 
L 4864 3872 
C 5274 4051 5709 4282 6035 4525 
L 5702 4838 
z
M 512 1722 
L 512 -442 
L 922 -442 
L 922 -141 
L 2253 -141 
L 2253 1722 
L 512 1722 
z
M 922 1325 
L 1843 1325 
L 1843 256 
L 922 256 
L 922 1325 
z
" transform="scale(0.015625)"/>
      <path id="NotoSansCJKjp-Regular-1" transform="scale(0.015625)"/>
      <path id="NotoSansCJKjp-Regular-1e" d="M 243 2912 
L 3315 2912 
L 3315 3347 
L 243 3347 
L 243 2912 
z
M 243 1376 
L 3315 1376 
L 3315 1811 
L 243 1811 
L 243 1376 
z
" transform="scale(0.015625)"/>
      <path id="NotoSansCJKjp-Regular-33c7" d="M 2502 5376 
C 2413 5050 2298 4710 2163 4384 
L 403 4384 
L 403 3923 
L 1952 3923 
C 1542 3104 979 2342 243 1830 
C 320 1722 442 1517 493 1389 
C 762 1581 1011 1798 1235 2035 
L 1235 -486 
L 1715 -486 
L 1715 2605 
C 2016 3014 2278 3462 2496 3923 
L 6010 3923 
L 6010 4384 
L 2694 4384 
C 2810 4672 2912 4966 3002 5254 
L 2502 5376 
z
M 3827 3590 
L 3827 2355 
L 2387 2355 
L 2387 1907 
L 3827 1907 
L 3827 90 
L 2131 90 
L 2131 -358 
L 6003 -358 
L 6003 90 
L 4307 90 
L 4307 1907 
L 5760 1907 
L 5760 2355 
L 4307 2355 
L 4307 3590 
L 3827 3590 
z
" transform="scale(0.015625)"/>
      <path id="NotoSansCJKjp-Regular-6ce1" d="M 2374 2586 
L 4832 2586 
L 4832 2061 
L 2374 2061 
L 2374 2586 
z
M 2374 1715 
L 4832 1715 
L 4832 1178 
L 2374 1178 
L 2374 1715 
z
M 2374 3456 
L 4832 3456 
L 4832 2931 
L 2374 2931 
L 2374 3456 
z
M 736 3635 
L 736 -518 
L 1203 -518 
L 1203 -179 
L 6080 -179 
L 6080 269 
L 1203 269 
L 1203 3635 
L 736 3635 
z
M 3053 5395 
L 3008 4787 
L 397 4787 
L 397 4339 
L 2963 4339 
L 2899 3814 
L 1914 3814 
L 1914 813 
L 5306 813 
L 5306 3814 
L 3379 3814 
L 3469 4339 
L 6029 4339 
L 6029 4787 
L 3533 4787 
L 3603 5363 
L 3053 5395 
z
" transform="scale(0.015625)"/>
      <path id="NotoSansCJKjp-Regular-43fa" d="M 2259 5043 
L 2259 4608 
L 6080 4608 
L 6080 5043 
L 2259 5043 
z
M 2918 4378 
C 2771 4070 2477 3590 2202 3200 
C 2547 2758 2861 2259 3008 1926 
L 3430 2061 
C 3283 2368 2976 2829 2682 3206 
C 2906 3526 3168 3917 3354 4269 
L 2918 4378 
z
M 4122 4371 
C 3955 4064 3648 3584 3366 3194 
C 3731 2752 4070 2259 4230 1920 
L 4653 2067 
C 4493 2368 4166 2829 3853 3200 
C 4083 3526 4358 3910 4550 4262 
L 4122 4371 
z
M 5338 4371 
C 5165 4070 4845 3584 4550 3194 
C 4947 2752 5331 2259 5510 1920 
L 5933 2074 
C 5747 2368 5382 2842 5037 3206 
C 5286 3533 5562 3904 5766 4256 
L 5338 4371 
z
M 1562 5376 
C 1280 4922 710 4371 211 4032 
C 288 3949 416 3776 474 3680 
C 1024 4070 1619 4666 1997 5203 
L 1562 5376 
z
M 1914 90 
L 1914 -352 
L 6150 -352 
L 6150 90 
L 4320 90 
L 4320 1267 
L 5837 1267 
L 5837 1690 
L 2336 1690 
L 2336 1267 
L 3840 1267 
L 3840 90 
L 1914 90 
z
M 1715 4070 
C 1338 3392 723 2726 134 2285 
C 218 2189 358 1958 410 1862 
C 646 2054 896 2291 1133 2547 
L 1133 -506 
L 1587 -506 
L 1587 3085 
C 1798 3354 1984 3635 2144 3917 
L 1715 4070 
z
" transform="scale(0.015625)"/>
      <path id="NotoSansCJKjp-Regular-2515" d="M 2733 5280 
L 2733 275 
L 326 275 
L 326 -205 
L 6080 -205 
L 6080 275 
L 3238 275 
L 3238 2822 
L 5638 2822 
L 5638 3302 
L 3238 3302 
L 3238 5280 
L 2733 5280 
z
" transform="scale(0.015625)"/>
      <path id="NotoSansCJKjp-Regular-6c33" d="M 3533 2707 
C 3885 2240 4320 1600 4512 1210 
L 4922 1466 
C 4710 1843 4269 2464 3904 2918 
L 3533 2707 
z
M 1536 5389 
C 1485 5082 1376 4659 1274 4346 
L 557 4346 
L 557 -346 
L 998 -346 
L 998 160 
L 2784 160 
L 2784 4346 
L 1715 4346 
C 1824 4621 1946 4979 2054 5299 
L 1536 5389 
z
M 998 3917 
L 2342 3917 
L 2342 2566 
L 998 2566 
L 998 3917 
z
M 998 595 
L 998 2144 
L 2342 2144 
L 2342 595 
L 998 595 
z
M 3827 5402 
C 3622 4518 3277 3635 2835 3066 
C 2950 3002 3149 2867 3238 2790 
C 3456 3098 3661 3488 3840 3923 
L 5478 3923 
C 5402 1357 5299 371 5094 154 
C 5018 64 4947 45 4819 45 
C 4672 45 4288 51 3866 83 
C 3955 -38 4013 -243 4026 -378 
C 4384 -397 4762 -410 4979 -390 
C 5210 -365 5350 -314 5498 -122 
C 5754 192 5843 1184 5939 4122 
C 5946 4186 5946 4365 5946 4365 
L 4013 4365 
C 4115 4666 4211 4986 4288 5299 
L 3827 5402 
z
" transform="scale(0.015625)"/>
      <path id="NotoSansCJKjp-Regular-4937" d="M 3059 5120 
L 3059 4480 
C 3059 4032 2950 3488 2317 3085 
C 2406 3021 2579 2835 2637 2739 
C 3347 3206 3514 3904 3514 4467 
L 3514 4672 
L 4717 4672 
L 4717 3584 
C 4717 3130 4826 3008 5235 3008 
C 5318 3008 5619 3008 5709 3008 
C 6067 3008 6182 3206 6221 3994 
C 6099 4026 5907 4096 5811 4173 
C 5798 3514 5779 3418 5658 3418 
C 5594 3418 5357 3418 5306 3418 
C 5197 3418 5171 3443 5171 3584 
L 5171 5120 
L 3059 5120 
z
M 5126 2170 
C 4909 1677 4589 1261 4198 922 
C 3821 1267 3526 1690 3334 2170 
L 5126 2170 
z
M 2675 2605 
L 2675 2170 
L 3238 2170 
L 2886 2061 
C 3110 1504 3424 1024 3814 634 
C 3309 288 2714 51 2099 -90 
C 2189 -192 2304 -390 2355 -518 
C 3014 -346 3642 -77 4179 307 
C 4659 -70 5242 -346 5920 -512 
C 5990 -384 6131 -186 6240 -83 
C 5594 58 5037 294 4570 621 
C 5101 1094 5510 1709 5754 2496 
L 5446 2624 
L 5357 2605 
L 2675 2605 
z
M 1222 5376 
L 1222 4109 
L 288 4109 
L 288 3661 
L 1222 3661 
L 1222 2234 
C 838 2118 480 2010 205 1939 
L 365 1446 
L 1222 1741 
L 1222 51 
C 1222 -38 1184 -64 1101 -70 
C 1018 -70 749 -70 461 -64 
C 525 -192 589 -390 608 -506 
C 1037 -512 1299 -493 1466 -422 
C 1632 -346 1696 -218 1696 58 
L 1696 1907 
L 2413 2157 
L 2349 2573 
L 1696 2374 
L 1696 3661 
L 2413 3661 
L 2413 4109 
L 1696 4109 
L 1696 5376 
L 1222 5376 
z
" transform="scale(0.015625)"/>
      <path id="NotoSansCJKjp-Regular-43c5" d="M 1203 1939 
L 3078 1939 
L 3078 1344 
L 1203 1344 
L 1203 1939 
z
M 1165 4141 
L 3117 4141 
L 3117 3738 
L 1165 3738 
L 1165 4141 
z
M 1165 4826 
L 3117 4826 
L 3117 4435 
L 1165 4435 
L 1165 4826 
z
M 979 838 
C 819 499 557 154 262 -83 
C 365 -141 544 -262 621 -326 
C 909 -64 1210 339 1389 736 
L 979 838 
z
M 5421 5267 
C 5062 4774 4397 4250 3840 3949 
C 3962 3859 4102 3712 4186 3610 
C 4781 3955 5446 4518 5875 5082 
L 5421 5267 
z
M 5594 3494 
C 5197 2976 4474 2426 3872 2106 
C 3994 2016 4134 1869 4218 1766 
C 4858 2131 5574 2714 6035 3302 
L 5594 3494 
z
M 730 5133 
L 730 3430 
L 1901 3430 
L 1901 3040 
L 294 3040 
L 294 2656 
L 3942 2656 
L 3942 3040 
L 2342 3040 
L 2342 3430 
L 3571 3430 
L 3571 5133 
L 730 5133 
z
M 781 2278 
L 781 1005 
L 1901 1005 
L 1901 -45 
C 1901 -109 1888 -128 1805 -128 
C 1722 -141 1485 -134 1197 -128 
C 1261 -237 1344 -397 1376 -512 
C 1734 -512 1971 -512 2138 -442 
C 2298 -378 2342 -269 2342 -51 
L 2342 1005 
L 3520 1005 
L 3520 2278 
L 781 2278 
z
M 5760 1683 
C 5357 979 4595 346 3795 -32 
C 3661 211 3366 570 3117 832 
L 2752 646 
C 3002 378 3290 0 3424 -243 
L 3629 -128 
C 3744 -237 3878 -397 3955 -506 
C 4877 -64 5722 659 6227 1510 
L 5760 1683 
z
" transform="scale(0.015625)"/>
     </defs>
     <use xlink:href="#NotoSansCJKjp-Regular-7668"/>
     <use xlink:href="#NotoSansCJKjp-Regular-947f" transform="translate(100 0)"/>
     <use xlink:href="#NotoSansCJKjp-Regular-1" transform="translate(200 0)"/>
     <use xlink:href="#NotoSansCJKjp-Regular-1e" transform="translate(222.40625 0)"/>
     <use xlink:href="#NotoSansCJKjp-Regular-1" transform="translate(277.90625 0)"/>
     <use xlink:href="#NotoSansCJKjp-Regular-33a8" transform="translate(300.3125 0)"/>
     <use xlink:href="#NotoSansCJKjp-Regular-2f3d" transform="translate(400.3125 0)"/>
     <use xlink:href="#NotoSansCJKjp-Regular-33c7" transform="translate(500.3125 0)"/>
     <use xlink:href="#NotoSansCJKjp-Regular-6ce1" transform="translate(600.3125 0)"/>
     <use xlink:href="#NotoSansCJKjp-Regular-43fa" transform="translate(700.3125 0)"/>
     <use xlink:href="#NotoSansCJKjp-Regular-2515" transform="translate(800.3125 0)"/>
     <use xlink:href="#NotoSansCJKjp-Regular-6c33" transform="translate(900.3125 0)"/>
     <use xlink:href="#NotoSansCJKjp-Regular-4937" transform="translate(1000.3125 0)"/>
     <use xlink:href="#NotoSansCJKjp-Regular-43c5" transform="translate(1100.3125 0)"/>
    </g>
   </g>
   <g id="patch_3">
    <path d="M 125.64 146.464 
C 126.537447 146.464 127.398258 146.10744 128.032849 145.472849 
C 128.66744 144.838258 129.024 143.977447 129.024 143.08 
C 129.024 142.182553 128.66744 141.321742 128.032849 140.687151 
C 127.398258 140.05256 126.537447 139.696 125.64 139.696 
C 124.742553 139.696 123.881742 140.05256 123.247151 140.687151 
C 122.61256 141.321742 122.256 142.182553 122.256 143.08 
C 122.256 143.977447 122.61256 144.838258 123.247151 145.472849 
C 123.881742 146.10744 124.742553 146.464 125.64 146.464 
z
" clip-path="url(#p1c8863ed19)" style="fill: #222831; stroke: #222831; stroke-linejoin: miter"/>
   </g>
   <g id="patch_4">
    <path d="M 180.019832 84.19464 
C 181.590365 84.19464 183.096784 83.570661 184.207318 82.460126 
C 185.317853 81.349592 185.941832 79.843173 185.941832 78.27264 
C 185.941832 76.702107 185.317853 75.195688 184.207318 74.085154 
C 183.096784 72.974619 181.590365 72.35064 180.019832 72.35064 
C 178.449299 72.35064 176.94288 72.974619 175.832345 74.085154 
C 174.721811 75.195688 174.097832 76.702107 174.097832 78.27264 
C 174.097832 79.843173 174.721811 81.349592 175.832345 82.460126 
C 176.94288 83.570661 178.449299 84.19464 180.019832 84.19464 
z
" clip-path="url(#p1c8863ed19)" style="fill: #8250df; stroke: #8250df; stroke-linejoin: miter"/>
   </g>
   <g id="patch_5">
    <path d="M 180.019832 149.002 
C 181.590365 149.002 183.096784 148.378021 184.207318 147.267486 
C 185.317853 146.156952 185.941832 144.650533 185.941832 143.08 
C 185.941832 141.509467 185.317853 140.003048 184.207318 138.892514 
C 183.096784 137.781979 181.590365 137.158 180.019832 137.158 
C 178.449299 137.158 176.94288 137.781979 175.832345 138.892514 
C 174.721811 140.003048 174.097832 141.509467 174.097832 143.08 
C 174.097832 144.650533 174.721811 146.156952 175.832345 147.267486 
C 176.94288 148.378021 178.449299 149.002 180.019832 149.002 
z
" clip-path="url(#p1c8863ed19)" style="fill: #1f6feb; stroke: #1f6feb; stroke-linejoin: miter"/>
   </g>
  </g>
  <g id="axes_2">
   <g id="patch_6">
    <path d="M 299.021667 261.52 
L 691.558333 261.52 
L 691.558333 24.64 
L 299.021667 24.64 
z
" style="fill: #ffffff"/>
   </g>
   <g id="matplotlib.axis_1">
    <g id="xtick_1">
     <g id="line2d_5">
      <path d="M 299.021667 261.52 
L 299.021667 24.64 
" clip-path="url(#p9311713507)" style="fill: none; stroke: #d8dde3; stroke-width: 0.9; stroke-linecap: square"/>
     </g>
     <g id="line2d_6">
      <defs>
       <path id="mba501ae9d2" d="M 0 0 
L 0 3.5 
" style="stroke: #222831; stroke-width: 0.8"/>
      </defs>
      <g>
       <use xlink:href="#mba501ae9d2" x="299.021667" y="261.52" style="fill: #222831; stroke: #222831; stroke-width: 0.8"/>
      </g>
     </g>
     <g id="text_6">
      <!-- 0 -->
      <g style="fill: #222831" transform="translate(295.691667 279.08) scale(0.12 -0.12)">
       <defs>
        <path id="NotoSansCJKjp-Regular-11" d="M 1779 -83 
C 2669 -83 3238 723 3238 2362 
C 3238 3987 2669 4774 1779 4774 
C 883 4774 320 3987 320 2362 
C 320 723 883 -83 1779 -83 
z
M 1779 390 
C 1248 390 883 986 883 2362 
C 883 3731 1248 4314 1779 4314 
C 2310 4314 2675 3731 2675 2362 
C 2675 986 2310 390 1779 390 
z
" transform="scale(0.015625)"/>
       </defs>
       <use xlink:href="#NotoSansCJKjp-Regular-11"/>
      </g>
     </g>
    </g>
    <g id="xtick_2">
     <g id="line2d_7">
      <path d="M 397.155833 261.52 
L 397.155833 24.64 
" clip-path="url(#p9311713507)" style="fill: none; stroke: #d8dde3; stroke-width: 0.9; stroke-linecap: square"/>
     </g>
     <g id="line2d_8">
      <g>
       <use xlink:href="#mba501ae9d2" x="397.155833" y="261.52" style="fill: #222831; stroke: #222831; stroke-width: 0.8"/>
      </g>
     </g>
     <g id="text_7">
      <!-- $T/2$ -->
      <g style="fill: #222831" transform="translate(387.615833 279.08) scale(0.12 -0.12)">
       <defs>
        <path id="Cmmi10-78" d="M 294 84 
Q 297 100 308 140 
Q 319 181 336 203 
Q 353 225 384 225 
Q 934 225 1113 256 
Q 1284 300 1319 441 
L 2194 3956 
Q 2222 4034 2222 4097 
Q 2222 4147 1997 4147 
L 1625 4147 
Q 1197 4147 964 4015 
Q 731 3884 622 3668 
Q 513 3453 341 2963 
Q 319 2906 275 2906 
L 219 2906 
Q 153 2906 153 2988 
L 609 4313 
Q 622 4372 672 4372 
L 4453 4372 
Q 4519 4372 4519 4288 
L 4306 2963 
Q 4306 2944 4284 2925 
Q 4263 2906 4244 2906 
L 4184 2906 
Q 4122 2906 4122 2988 
Q 4191 3441 4191 3628 
Q 4191 3853 4097 3968 
Q 4003 4084 3853 4115 
Q 3703 4147 3463 4147 
L 3084 4147 
Q 2913 4147 2853 4115 
Q 2794 4084 2753 3928 
L 1875 416 
Q 1872 403 1870 390 
Q 1869 378 1863 359 
Q 1863 278 1959 256 
Q 2125 225 2669 225 
Q 2731 225 2731 141 
Q 2709 50 2696 25 
Q 2684 0 2625 0 
L 359 0 
Q 294 0 294 84 
z
" transform="scale(0.015625)"/>
        <path id="Cmmi10-62" d="M 359 -1472 
Q 359 -1453 366 -1447 
L 2591 4722 
Q 2603 4759 2634 4779 
Q 2666 4800 2706 4800 
Q 2763 4800 2798 4765 
Q 2834 4731 2834 4672 
L 2834 4647 
L 609 -1522 
Q 572 -1600 488 -1600 
Q 434 -1600 396 -1562 
Q 359 -1525 359 -1472 
z
" transform="scale(0.015625)"/>
        <path id="Cmr10-31" d="M 319 0 
L 319 172 
Q 319 188 331 206 
L 1325 1306 
Q 1550 1550 1690 1715 
Q 1831 1881 1968 2097 
Q 2106 2313 2186 2536 
Q 2266 2759 2266 3009 
Q 2266 3272 2169 3511 
Q 2072 3750 1880 3894 
Q 1688 4038 1416 4038 
Q 1138 4038 916 3870 
Q 694 3703 603 3438 
Q 628 3444 672 3444 
Q 816 3444 917 3347 
Q 1019 3250 1019 3097 
Q 1019 2950 917 2848 
Q 816 2747 672 2747 
Q 522 2747 420 2851 
Q 319 2956 319 3097 
Q 319 3338 409 3548 
Q 500 3759 670 3923 
Q 841 4088 1055 4175 
Q 1269 4263 1509 4263 
Q 1875 4263 2190 4108 
Q 2506 3953 2690 3670 
Q 2875 3388 2875 3009 
Q 2875 2731 2753 2481 
Q 2631 2231 2440 2026 
Q 2250 1822 1953 1562 
Q 1656 1303 1563 1216 
L 838 519 
L 1453 519 
Q 1906 519 2211 526 
Q 2516 534 2534 550 
Q 2609 631 2688 1141 
L 2875 1141 
L 2694 0 
L 319 0 
z
" transform="scale(0.015625)"/>
       </defs>
       <use xlink:href="#Cmmi10-78"/>
       <use xlink:href="#Cmmi10-62" transform="translate(58.398438 0)"/>
       <use xlink:href="#Cmr10-31" transform="translate(108.398438 0)"/>
      </g>
     </g>
    </g>
    <g id="xtick_3">
     <g id="line2d_9">
      <path d="M 495.29 261.52 
L 495.29 24.64 
" clip-path="url(#p9311713507)" style="fill: none; stroke: #d8dde3; stroke-width: 0.9; stroke-linecap: square"/>
     </g>
     <g id="line2d_10">
      <g>
       <use xlink:href="#mba501ae9d2" x="495.29" y="261.52" style="fill: #222831; stroke: #222831; stroke-width: 0.8"/>
      </g>
     </g>
     <g id="text_8">
      <!-- $T$ -->
      <g style="fill: #222831" transform="translate(491.75 279.08) scale(0.12 -0.12)">
       <use xlink:href="#Cmmi10-78" transform="translate(0 0.6875)"/>
      </g>
     </g>
    </g>
    <g id="xtick_4">
     <g id="line2d_11">
      <path d="M 593.424167 261.52 
L 593.424167 24.64 
" clip-path="url(#p9311713507)" style="fill: none; stroke: #d8dde3; stroke-width: 0.9; stroke-linecap: square"/>
     </g>
     <g id="line2d_12">
      <g>
       <use xlink:href="#mba501ae9d2" x="593.424167" y="261.52" style="fill: #222831; stroke: #222831; stroke-width: 0.8"/>
      </g>
     </g>
     <g id="text_9">
      <!-- $3T/2$ -->
      <g style="fill: #222831" transform="translate(580.884167 279.08) scale(0.12 -0.12)">
       <defs>
        <path id="Cmr10-6e" d="M 609 494 
Q 759 275 1012 169 
Q 1266 63 1556 63 
Q 1928 63 2084 380 
Q 2241 697 2241 1100 
Q 2241 1281 2208 1462 
Q 2175 1644 2097 1800 
Q 2019 1956 1883 2050 
Q 1747 2144 1550 2144 
L 1125 2144 
Q 1069 2144 1069 2203 
L 1069 2259 
Q 1069 2309 1125 2309 
L 1478 2338 
Q 1703 2338 1851 2506 
Q 2000 2675 2069 2917 
Q 2138 3159 2138 3378 
Q 2138 3684 1994 3881 
Q 1850 4078 1556 4078 
Q 1313 4078 1091 3986 
Q 869 3894 738 3706 
Q 750 3709 759 3711 
Q 769 3713 781 3713 
Q 925 3713 1022 3613 
Q 1119 3513 1119 3372 
Q 1119 3234 1022 3134 
Q 925 3034 781 3034 
Q 641 3034 541 3134 
Q 441 3234 441 3372 
Q 441 3647 606 3850 
Q 772 4053 1033 4158 
Q 1294 4263 1556 4263 
Q 1750 4263 1965 4205 
Q 2181 4147 2356 4039 
Q 2531 3931 2642 3762 
Q 2753 3594 2753 3378 
Q 2753 3109 2633 2881 
Q 2513 2653 2303 2487 
Q 2094 2322 1844 2241 
Q 2122 2188 2372 2031 
Q 2622 1875 2773 1631 
Q 2925 1388 2925 1106 
Q 2925 753 2731 467 
Q 2538 181 2222 20 
Q 1906 -141 1556 -141 
Q 1256 -141 954 -26 
Q 653 88 461 316 
Q 269 544 269 863 
Q 269 1022 375 1128 
Q 481 1234 641 1234 
Q 744 1234 830 1186 
Q 916 1138 964 1050 
Q 1013 963 1013 863 
Q 1013 706 903 600 
Q 794 494 641 494 
L 609 494 
z
" transform="scale(0.015625)"/>
       </defs>
       <use xlink:href="#Cmr10-6e"/>
       <use xlink:href="#Cmmi10-78" transform="translate(50 0)"/>
       <use xlink:href="#Cmmi10-62" transform="translate(108.398438 0)"/>
       <use xlink:href="#Cmr10-31" transform="translate(158.398438 0)"/>
      </g>
     </g>
    </g>
    <g id="xtick_5">
     <g id="line2d_13">
      <path d="M 691.558333 261.52 
L 691.558333 24.64 
" clip-path="url(#p9311713507)" style="fill: none; stroke: #d8dde3; stroke-width: 0.9; stroke-linecap: square"/>
     </g>
     <g id="line2d_14">
      <g>
       <use xlink:href="#mba501ae9d2" x="691.558333" y="261.52" style="fill: #222831; stroke: #222831; stroke-width: 0.8"/>
      </g>
     </g>
     <g id="text_10">
      <!-- $2T$ -->
      <g style="fill: #222831" transform="translate(685.018333 279.08) scale(0.12 -0.12)">
       <use xlink:href="#Cmr10-31" transform="translate(0 0.6875)"/>
       <use xlink:href="#Cmmi10-78" transform="translate(50 0.6875)"/>
      </g>
     </g>
    </g>
    <g id="text_11">
     <!-- 時間 $t$ -->
     <g style="fill: #222831" transform="translate(479.75 296.64) scale(0.12 -0.12)">
      <defs>
       <path id="NotoSansCJKjp-Regular-4f87" d="M 2848 1338 
C 3174 998 3520 525 3661 211 
L 4070 461 
C 3923 781 3558 1235 3232 1562 
L 2848 1338 
z
M 4038 5382 
L 4038 4614 
L 2694 4614 
L 2694 4186 
L 4038 4186 
L 4038 3373 
L 2426 3373 
L 2426 2938 
L 4883 2938 
L 4883 2214 
L 2458 2214 
L 2458 1786 
L 4883 1786 
L 4883 64 
C 4883 -32 4851 -58 4749 -58 
C 4646 -64 4282 -64 3891 -51 
C 3962 -186 4032 -378 4051 -506 
C 4570 -506 4890 -499 5094 -422 
C 5293 -352 5357 -218 5357 58 
L 5357 1786 
L 6106 1786 
L 6106 2214 
L 5357 2214 
L 5357 2938 
L 6170 2938 
L 6170 3373 
L 4512 3373 
L 4512 4186 
L 5901 4186 
L 5901 4614 
L 4512 4614 
L 4512 5382 
L 4038 5382 
z
M 1862 2662 
L 1862 1184 
L 934 1184 
L 934 2662 
L 1862 2662 
z
M 1862 3098 
L 934 3098 
L 934 4518 
L 1862 4518 
L 1862 3098 
z
M 486 4960 
L 486 224 
L 934 224 
L 934 749 
L 2317 749 
L 2317 4960 
L 486 4960 
z
" transform="scale(0.015625)"/>
       <path id="NotoSansCJKjp-Regular-a774" d="M 3936 1082 
L 3936 461 
L 2432 461 
L 2432 1082 
L 3936 1082 
z
M 3936 1453 
L 2432 1453 
L 2432 2042 
L 3936 2042 
L 3936 1453 
z
M 1997 2419 
L 1997 -243 
L 2432 -243 
L 2432 83 
L 4384 83 
L 4384 2419 
L 1997 2419 
z
M 2451 3840 
L 2451 3270 
L 1056 3270 
L 1056 3840 
L 2451 3840 
z
M 2451 4192 
L 1056 4192 
L 1056 4730 
L 2451 4730 
L 2451 4192 
z
M 5376 3840 
L 5376 3264 
L 3936 3264 
L 3936 3840 
L 5376 3840 
z
M 5376 4192 
L 3936 4192 
L 3936 4730 
L 5376 4730 
L 5376 4192 
z
M 5619 5101 
L 3482 5101 
L 3482 2893 
L 5376 2893 
L 5376 128 
C 5376 13 5338 -19 5229 -26 
C 5114 -26 4723 -32 4333 -19 
C 4403 -154 4474 -378 4499 -512 
C 5030 -512 5376 -506 5581 -422 
C 5792 -339 5862 -186 5862 122 
L 5862 5101 
L 5619 5101 
z
M 576 5101 
L 576 -518 
L 1056 -518 
L 1056 2906 
L 2899 2906 
L 2899 5101 
L 576 5101 
z
" transform="scale(0.015625)"/>
      </defs>
      <use xlink:href="#NotoSansCJKjp-Regular-4f87" transform="translate(0 0.90625)"/>
      <use xlink:href="#NotoSansCJKjp-Regular-a774" transform="translate(99.999908 0.90625)"/>
      <use xlink:href="#NotoSansCJKjp-Regular-1" transform="translate(199.999817 0.90625)"/>
      <use xlink:href="#Cmmi10-30" transform="translate(222.399796 0.90625)"/>
     </g>
    </g>
   </g>
   <g id="matplotlib.axis_2">
    <g id="text_12">
     <!-- 位置 $x$ -->
     <g style="fill: #222831" transform="translate(293.581667 159.88) rotate(-90) scale(0.12 -0.12)">
      <defs>
       <path id="NotoSansCJKjp-Regular-26e3" d="M 2630 3155 
C 2867 2304 3066 1190 3110 544 
L 3578 646 
C 3526 1280 3302 2381 3059 3232 
L 2630 3155 
z
M 2106 4115 
L 2106 3661 
L 6016 3661 
L 6016 4115 
L 4250 4115 
L 4250 5299 
L 3770 5299 
L 3770 4115 
L 2106 4115 
z
M 1946 243 
L 1946 -211 
L 6176 -211 
L 6176 243 
L 4634 243 
C 4928 1043 5261 2246 5485 3194 
L 4966 3283 
C 4800 2362 4461 1056 4166 243 
L 1946 243 
z
M 1773 5357 
C 1395 4390 774 3443 128 2835 
C 211 2720 352 2470 397 2355 
C 640 2598 877 2880 1107 3194 
L 1107 -493 
L 1568 -493 
L 1568 3891 
C 1818 4314 2048 4762 2227 5216 
L 1773 5357 
z
" transform="scale(0.015625)"/>
       <path id="NotoSansCJKjp-Regular-7ccb" d="M 4154 4762 
L 5235 4762 
L 5235 4186 
L 4154 4186 
L 4154 4762 
z
M 2656 4762 
L 3712 4762 
L 3712 4186 
L 2656 4186 
L 2656 4762 
z
M 1197 4762 
L 2214 4762 
L 2214 4186 
L 1197 4186 
L 1197 4762 
z
M 2374 1798 
L 4979 1798 
L 4979 1440 
L 2374 1440 
L 2374 1798 
z
M 2374 1152 
L 4979 1152 
L 4979 794 
L 2374 794 
L 2374 1152 
z
M 2374 2432 
L 4979 2432 
L 4979 2086 
L 2374 2086 
L 2374 2432 
z
M 1920 2726 
L 1920 499 
L 5440 499 
L 5440 2726 
L 3347 2726 
L 3418 3104 
L 5971 3104 
L 5971 3482 
L 3482 3482 
L 3533 3834 
L 5715 3834 
L 5715 5107 
L 736 5107 
L 736 3834 
L 3046 3834 
L 3002 3482 
L 435 3482 
L 435 3104 
L 2944 3104 
L 2880 2726 
L 1920 2726 
z
M 787 2630 
L 787 -518 
L 1274 -518 
L 1274 -243 
L 6138 -243 
L 6138 141 
L 1274 141 
L 1274 2630 
L 787 2630 
z
" transform="scale(0.015625)"/>
      </defs>
      <use xlink:href="#NotoSansCJKjp-Regular-26e3" transform="translate(0 0.296875)"/>
      <use xlink:href="#NotoSansCJKjp-Regular-7ccb" transform="translate(99.999908 0.296875)"/>
      <use xlink:href="#NotoSansCJKjp-Regular-1" transform="translate(199.999817 0.296875)"/>
      <use xlink:href="#Cmmi10-3f" transform="translate(222.399796 0.296875)"/>
     </g>
    </g>
   </g>
   <g id="line2d_15">
    <path d="M 299.021667 56.224 
L 300.59496 56.32413 
L 302.168253 56.624266 
L 303.741546 57.123646 
L 305.31484 57.821005 
L 306.888133 58.714573 
L 308.461426 59.802085 
L 310.034719 61.080782 
L 312.394659 63.350074 
L 314.754599 66.029178 
L 317.114539 69.102809 
L 319.474479 72.553432 
L 321.834419 76.361361 
L 324.981005 81.956585 
L 328.127592 88.091452 
L 331.274178 94.703764 
L 335.207411 103.538026 
L 339.927291 114.787666 
L 346.220464 130.464227 
L 357.233517 157.971049 
L 361.953397 169.091133 
L 365.88663 177.77791 
L 369.033216 184.248007 
L 372.179803 190.220672 
L 375.326389 195.63535 
L 377.686329 199.296928 
L 380.046269 202.592742 
L 382.406209 205.503991 
L 384.766149 208.014065 
L 387.126089 210.108645 
L 388.699382 211.2682 
L 390.272675 212.234789 
L 391.845969 213.005961 
L 393.419262 213.579758 
L 394.992555 213.954727 
L 396.565848 214.129917 
L 398.139142 214.104882 
L 399.712435 213.879686 
L 401.285728 213.454901 
L 402.859021 212.831604 
L 404.432315 212.011375 
L 406.005608 210.996295 
L 407.578901 209.788939 
L 409.938841 207.624215 
L 412.298781 205.046222 
L 414.658721 202.069665 
L 417.018661 198.711526 
L 419.378601 194.990964 
L 421.73854 190.929204 
L 424.885127 185.023087 
L 428.031713 178.611678 
L 431.964947 169.986314 
L 435.89818 160.809897 
L 441.404706 147.315069 
L 457.137639 108.152139 
L 461.070872 99.049305 
L 465.004105 90.51862 
L 468.150691 84.197148 
L 471.297278 78.392604 
L 473.657218 74.414045 
L 476.017158 70.782177 
L 478.377098 67.517721 
L 480.737037 64.639301 
L 483.096977 62.163336 
L 485.456917 60.103954 
L 487.03021 58.968369 
L 488.603504 58.026083 
L 490.176797 57.279486 
L 491.75009 56.730473 
L 493.323383 56.380434 
L 494.896677 56.230259 
L 496.46997 56.280328 
L 498.043263 56.530514 
L 499.616556 56.980183 
L 501.18985 57.628193 
L 502.763143 58.472902 
L 504.336436 59.512167 
L 505.909729 60.743353 
L 508.269669 62.94302 
L 510.629609 65.554821 
L 512.989549 68.563856 
L 515.349489 71.952957 
L 517.709429 75.702791 
L 520.856015 81.226452 
L 524.002602 87.297158 
L 527.149188 93.853363 
L 531.082422 102.629673 
L 535.802301 113.828821 
L 542.095474 129.472176 
L 553.108527 157.01734 
L 557.828407 168.190576 
L 561.76164 176.937389 
L 564.908226 183.465149 
L 568.054813 189.503414 
L 571.201399 194.990964 
L 573.561339 198.711526 
L 575.921279 202.069665 
L 578.281219 205.046222 
L 580.641159 207.624215 
L 583.001099 209.788939 
L 584.574392 210.996295 
L 586.147685 212.011375 
L 587.720979 212.831604 
L 589.294272 213.454901 
L 590.867565 213.879686 
L 592.440858 214.104882 
L 594.014152 214.129917 
L 595.587445 213.954727 
L 597.160738 213.579758 
L 598.734031 213.005961 
L 600.307325 212.234789 
L 601.880618 211.2682 
L 603.453911 210.108645 
L 605.813851 208.014065 
L 608.173791 205.503991 
L 610.533731 202.592742 
L 612.893671 199.296928 
L 615.253611 195.63535 
L 617.61355 191.628898 
L 620.760137 185.790264 
L 623.906723 179.438561 
L 627.839957 170.875977 
L 631.77319 161.748253 
L 637.279716 148.296506 
L 654.585942 105.369637 
L 658.519175 96.423683 
L 661.665762 89.70231 
L 664.812348 83.442051 
L 667.958935 77.706374 
L 670.318874 73.784073 
L 672.678814 70.212057 
L 675.038754 67.010705 
L 677.398694 64.198281 
L 679.758634 61.79083 
L 682.118574 59.802085 
L 683.691867 58.714573 
L 685.26516 57.821005 
L 686.838454 57.123646 
L 688.411747 56.624266 
L 689.98504 56.32413 
L 691.558333 56.224 
L 691.558333 56.224 
" clip-path="url(#p9311713507)" style="fill: none; stroke: #1f6feb; stroke-width: 2.6; stroke-linecap: square"/>
   </g>
   <g id="line2d_16">
    <path d="M 299.021667 135.184 
L 691.558333 135.184 
" clip-path="url(#p9311713507)" style="fill: none; stroke: #222831; stroke-linecap: square"/>
   </g>
   <g id="line2d_17">
    <path d="M 326.281157 135.184 
L 326.281157 84.42949 
" clip-path="url(#p9311713507)" style="fill: none; stroke-dasharray: 1,1.65; stroke-dashoffset: 0; stroke: #222831"/>
   </g>
   <g id="line2d_18">
    <path d="M 299.021667 56.224 
L 691.558333 56.224 
" clip-path="url(#p9311713507)" style="fill: none; stroke-dasharray: 2.96,1.28; stroke-dashoffset: 0; stroke: #9aa0a6; stroke-width: 0.8"/>
   </g>
   <g id="line2d_19">
    <path d="M 299.021667 214.144 
L 691.558333 214.144 
" clip-path="url(#p9311713507)" style="fill: none; stroke-dasharray: 2.96,1.28; stroke-dashoffset: 0; stroke: #9aa0a6; stroke-width: 0.8"/>
   </g>
   <g id="line2d_20">
    <path d="M 299.021667 241.78 
L 495.29 241.78 
" clip-path="url(#p9311713507)" style="fill: none; stroke: #000000; stroke-opacity: 0; stroke-width: 1.5; stroke-linecap: square"/>
   </g>
   <g id="patch_7">
    <path d="M 299.021667 261.52 
L 299.021667 24.64 
" style="fill: none; stroke: #222831; stroke-width: 1.1; stroke-linejoin: miter; stroke-linecap: square"/>
   </g>
   <g id="patch_8">
    <path d="M 299.021667 261.52 
L 691.558333 261.52 
" style="fill: none; stroke: #222831; stroke-width: 1.1; stroke-linejoin: miter; stroke-linecap: square"/>
   </g>
   <g id="text_13">
    <!-- $+A$ -->
    <g style="fill: #6b7280" transform="translate(302.947033 52.276) scale(0.11 -0.11)">
     <defs>
      <path id="Cmr10-4c" d="M 481 1472 
Q 428 1472 393 1512 
Q 359 1553 359 1600 
Q 359 1647 393 1687 
Q 428 1728 481 1728 
L 2363 1728 
L 2363 3616 
Q 2363 3666 2400 3698 
Q 2438 3731 2491 3731 
Q 2538 3731 2578 3698 
Q 2619 3666 2619 3616 
L 2619 1728 
L 4500 1728 
Q 4547 1728 4581 1687 
Q 4616 1647 4616 1600 
Q 4616 1553 4581 1512 
Q 4547 1472 4500 1472 
L 2619 1472 
L 2619 -416 
Q 2619 -466 2578 -498 
Q 2538 -531 2491 -531 
Q 2438 -531 2400 -498 
Q 2363 -466 2363 -416 
L 2363 1472 
L 481 1472 
z
" transform="scale(0.015625)"/>
     </defs>
     <use xlink:href="#Cmr10-4c" transform="translate(0 0.421875)"/>
     <use xlink:href="#Cmmi10-5c" transform="translate(77.685547 0.421875)"/>
    </g>
   </g>
   <g id="text_14">
    <!-- $-A$ -->
    <g style="fill: #6b7280" transform="translate(302.947033 228.3568) scale(0.11 -0.11)">
     <defs>
      <path id="Cmsy10-11" d="M 653 1472 
Q 600 1472 565 1512 
Q 531 1553 531 1600 
Q 531 1647 565 1687 
Q 600 1728 653 1728 
L 4325 1728 
Q 4375 1728 4408 1687 
Q 4441 1647 4441 1600 
Q 4441 1553 4408 1512 
Q 4375 1472 4325 1472 
L 653 1472 
z
" transform="scale(0.015625)"/>
     </defs>
     <use xlink:href="#Cmsy10-11" transform="translate(0 0.421875)"/>
     <use xlink:href="#Cmmi10-5c" transform="translate(77.685547 0.421875)"/>
    </g>
   </g>
   <g id="patch_9">
    <path d="M 463.718343 241.78 
Q 382.929689 241.78 302.141035 241.78 
" style="fill: none; stroke: #222831; stroke-linecap: round"/>
    <path d="M 459.318343 239.58 
L 463.718343 241.78 
L 459.318343 243.98 
" style="fill: none; stroke: #222831; stroke-linecap: round"/>
    <path d="M 306.541035 243.98 
L 302.141035 241.78 
L 306.541035 239.58 
" style="fill: none; stroke: #222831; stroke-linecap: round"/>
   </g>
   <g id="text_15">
    <!-- 一個週期 $T$ -->
    <g style="fill: #222831" transform="translate(468.835 245.96) scale(0.11 -0.11)">
     <defs>
      <path id="NotoSansCJKjp-Regular-2509" d="M 282 2758 
L 282 2234 
L 6144 2234 
L 6144 2758 
L 282 2758 
z
" transform="scale(0.015625)"/>
      <path id="NotoSansCJKjp-Regular-2815" d="M 3533 2195 
L 4614 2195 
L 4614 1197 
L 3533 1197 
L 3533 2195 
z
M 2189 4992 
L 2189 -506 
L 2630 -506 
L 2630 -128 
L 5472 -128 
L 5472 -461 
L 5933 -461 
L 5933 4992 
L 2189 4992 
z
M 2630 307 
L 2630 4563 
L 5472 4563 
L 5472 307 
L 2630 307 
z
M 3162 2554 
L 3162 838 
L 4998 838 
L 4998 2554 
L 4256 2554 
L 4256 3258 
L 5254 3258 
L 5254 3629 
L 4256 3629 
L 4256 4358 
L 3866 4358 
L 3866 3629 
L 2899 3629 
L 2899 3258 
L 3866 3258 
L 3866 2554 
L 3162 2554 
z
M 1523 5344 
C 1203 4378 685 3411 109 2784 
C 192 2662 320 2400 365 2291 
C 582 2541 787 2829 986 3142 
L 986 -518 
L 1446 -518 
L 1446 3968 
C 1645 4371 1824 4794 1965 5216 
L 1523 5344 
z
" transform="scale(0.015625)"/>
      <path id="NotoSansCJKjp-Regular-9d9a" d="M 320 4986 
C 691 4672 1107 4205 1280 3885 
L 1683 4160 
C 1498 4480 1075 4928 691 5229 
L 320 4986 
z
M 1530 2848 
L 288 2848 
L 288 2400 
L 1075 2400 
L 1075 730 
C 794 467 480 192 218 0 
L 467 -461 
C 774 -173 1062 102 1338 384 
C 1734 -128 2323 -352 3174 -384 
C 3898 -410 5299 -397 6029 -371 
C 6048 -230 6118 -19 6176 90 
C 5395 38 3885 19 3162 45 
C 2406 77 1837 294 1530 774 
L 1530 2848 
z
M 2253 5133 
L 2253 3469 
C 2253 2643 2202 1523 1702 717 
C 1805 672 2003 544 2080 467 
C 2611 1318 2694 2579 2694 3469 
L 2694 4730 
L 5299 4730 
L 5299 922 
C 5299 832 5267 806 5178 806 
C 5094 800 4800 800 4486 806 
C 4544 698 4602 512 4621 397 
C 5075 397 5350 397 5523 474 
C 5683 550 5747 672 5747 922 
L 5747 5133 
L 2253 5133 
z
M 3757 4595 
L 3757 4141 
L 2995 4141 
L 2995 3795 
L 3757 3795 
L 3757 3277 
L 2938 3277 
L 2938 2925 
L 5056 2925 
L 5056 3277 
L 4160 3277 
L 4160 3795 
L 4992 3795 
L 4992 4141 
L 4160 4141 
L 4160 4595 
L 3757 4595 
z
M 3104 2560 
L 3104 826 
L 3488 826 
L 3488 1152 
L 4832 1152 
L 4832 2560 
L 3104 2560 
z
M 3488 2221 
L 4442 2221 
L 4442 1504 
L 3488 1504 
L 3488 2221 
z
" transform="scale(0.015625)"/>
      <path id="NotoSansCJKjp-Regular-50ff" d="M 1139 915 
C 947 486 608 58 250 -230 
C 365 -301 557 -435 646 -512 
C 992 -192 1363 301 1594 787 
L 1139 915 
z
M 2054 717 
C 2304 416 2598 -6 2714 -269 
L 3110 -38 
C 2976 224 2682 621 2426 915 
L 2054 717 
z
M 5472 4621 
L 5472 3590 
L 4160 3590 
L 4160 4621 
L 5472 4621 
z
M 3712 5056 
L 3712 2733 
C 3712 1811 3661 589 3123 -262 
C 3232 -314 3430 -454 3507 -538 
C 3891 70 4058 890 4122 1664 
L 5472 1664 
L 5472 109 
C 5472 6 5434 -19 5344 -26 
C 5248 -32 4922 -32 4582 -19 
C 4646 -147 4717 -358 4736 -486 
C 5203 -486 5510 -480 5690 -397 
C 5875 -320 5933 -173 5933 102 
L 5933 5056 
L 3712 5056 
z
M 5472 3162 
L 5472 2099 
L 4147 2099 
C 4160 2323 4160 2534 4160 2733 
L 4160 3162 
L 5472 3162 
z
M 2477 5299 
L 2477 4525 
L 1312 4525 
L 1312 5299 
L 877 5299 
L 877 4525 
L 333 4525 
L 333 4096 
L 877 4096 
L 877 1478 
L 243 1478 
L 243 1050 
L 3398 1050 
L 3398 1478 
L 2925 1478 
L 2925 4096 
L 3398 4096 
L 3398 4525 
L 2925 4525 
L 2925 5299 
L 2477 5299 
z
M 1312 4096 
L 2477 4096 
L 2477 3526 
L 1312 3526 
L 1312 4096 
z
M 1312 3142 
L 2477 3142 
L 2477 2515 
L 1312 2515 
L 1312 3142 
z
M 1312 2125 
L 2477 2125 
L 2477 1478 
L 1312 1478 
L 1312 2125 
z
" transform="scale(0.015625)"/>
     </defs>
     <use xlink:href="#NotoSansCJKjp-Regular-2509" transform="translate(0 0.5)"/>
     <use xlink:href="#NotoSansCJKjp-Regular-2815" transform="translate(99.999908 0.5)"/>
     <use xlink:href="#NotoSansCJKjp-Regular-9d9a" transform="translate(199.999817 0.5)"/>
     <use xlink:href="#NotoSansCJKjp-Regular-50ff" transform="translate(299.999725 0.5)"/>
     <use xlink:href="#NotoSansCJKjp-Regular-1" transform="translate(399.999634 0.5)"/>
     <use xlink:href="#Cmmi10-78" transform="translate(422.399612 0.5)"/>
    </g>
   </g>
   <g id="text_16">
    <!-- 位置–時間圖：正弦／餘弦曲線 -->
    <g style="fill: #222831" transform="translate(407.306406 18.64) scale(0.13 -0.13)">
     <defs>
      <path id="NotoSansCJKjp-Regular-2d1" d="M 294 1600 
L 3136 1600 
L 3136 1997 
L 294 1997 
L 294 1600 
z
" transform="scale(0.015625)"/>
      <path id="NotoSansCJKjp-Regular-33ac" d="M 2317 4122 
L 4058 4122 
L 4058 3699 
L 2317 3699 
L 2317 4122 
z
M 2099 2234 
L 4275 2234 
L 4275 806 
L 2099 806 
L 2099 2234 
z
M 1715 2534 
L 1715 506 
L 4678 506 
L 4678 2534 
L 1715 2534 
z
M 2810 1709 
L 3552 1709 
L 3552 1331 
L 2810 1331 
L 2810 1709 
z
M 2509 1965 
L 2509 1082 
L 3872 1082 
L 3872 1965 
L 2509 1965 
z
M 1280 3117 
L 1280 2816 
L 5133 2816 
L 5133 3117 
L 3386 3117 
L 3386 3411 
L 4474 3411 
L 4474 4403 
L 1920 4403 
L 1920 3411 
L 2970 3411 
L 2970 3117 
L 1280 3117 
z
M 525 5114 
L 525 -506 
L 979 -506 
L 979 -250 
L 5421 -250 
L 5421 -506 
L 5888 -506 
L 5888 5114 
L 525 5114 
z
M 979 154 
L 979 4710 
L 5421 4710 
L 5421 154 
L 979 154 
z
" transform="scale(0.015625)"/>
      <path id="NotoSansCJKjp-Regular-e6c0" d="M 3200 3482 
C 3456 3482 3686 3667 3686 3962 
C 3686 4256 3456 4442 3200 4442 
C 2944 4442 2714 4256 2714 3962 
C 2714 3667 2944 3482 3200 3482 
z
M 3200 346 
C 3456 346 3686 538 3686 826 
C 3686 1120 3456 1312 3200 1312 
C 2944 1312 2714 1120 2714 826 
C 2714 538 2944 346 3200 346 
z
" transform="scale(0.015625)"/>
      <path id="NotoSansCJKjp-Regular-585c" d="M 1203 3264 
L 1203 243 
L 333 243 
L 333 -224 
L 6080 -224 
L 6080 243 
L 3616 243 
L 3616 2259 
L 5619 2259 
L 5619 2726 
L 3616 2726 
L 3616 4435 
L 5869 4435 
L 5869 4909 
L 576 4909 
L 576 4435 
L 3110 4435 
L 3110 243 
L 1696 243 
L 1696 3264 
L 1203 3264 
z
" transform="scale(0.015625)"/>
      <path id="NotoSansCJKjp-Regular-4338" d="M 5056 3322 
C 4826 2886 4518 2387 4192 1894 
C 3994 2093 3738 2310 3462 2522 
C 3763 2938 4109 3482 4384 3942 
L 4358 3955 
L 6144 3955 
L 6144 4410 
L 4410 4410 
L 4410 5376 
L 3942 5376 
L 3942 4410 
L 2406 4410 
L 2406 3955 
L 3814 3955 
C 3629 3571 3373 3123 3130 2771 
L 2790 3008 
L 2509 2662 
C 2989 2323 3565 1850 3910 1478 
C 3603 1043 3283 621 2995 275 
L 2374 250 
L 2432 -230 
C 3245 -186 4410 -115 5542 -38 
C 5626 -218 5696 -390 5741 -531 
L 6182 -320 
C 6022 160 5581 890 5152 1434 
L 4742 1254 
C 4941 992 5146 691 5312 390 
L 3539 301 
C 4205 1114 4960 2202 5517 3098 
L 5056 3322 
z
M 538 3654 
C 486 3040 397 2221 301 1715 
L 749 1645 
L 787 1901 
L 1747 1901 
C 1683 634 1606 134 1485 6 
C 1427 -51 1376 -70 1261 -64 
C 1139 -64 826 -64 506 -32 
C 582 -160 640 -358 653 -493 
C 973 -512 1286 -512 1459 -499 
C 1651 -480 1773 -442 1888 -301 
C 2074 -90 2150 506 2227 2112 
C 2234 2182 2240 2330 2240 2330 
L 845 2330 
L 941 3200 
L 2234 3200 
L 2234 5126 
L 371 5126 
L 371 4678 
L 1773 4678 
L 1773 3654 
L 538 3654 
z
" transform="scale(0.015625)"/>
      <path id="NotoSansCJKjp-Regular-e6b5" d="M 5990 5414 
L 218 -358 
L 410 -550 
L 6182 5222 
L 5990 5414 
z
" transform="scale(0.015625)"/>
      <path id="NotoSansCJKjp-Regular-ad9e" d="M 4416 4890 
C 4762 4282 5376 3546 5958 3085 
C 6029 3226 6138 3398 6234 3520 
C 5645 3917 5018 4666 4627 5370 
L 4173 5370 
C 3891 4710 3277 3917 2650 3469 
C 2746 3360 2854 3187 2906 3059 
C 3533 3546 4109 4282 4416 4890 
z
M 5101 1453 
C 5370 992 5638 371 5728 -6 
L 6150 154 
C 6048 538 5766 1139 5491 1594 
L 5101 1453 
z
M 2880 2298 
L 2880 1882 
L 4218 1882 
L 4218 6 
C 4218 -70 4192 -96 4115 -96 
C 4038 -102 3795 -102 3514 -96 
C 3578 -211 3642 -390 3667 -512 
C 4058 -512 4307 -506 4461 -435 
C 4621 -358 4672 -237 4672 0 
L 4672 1882 
L 6042 1882 
L 6042 2298 
L 4672 2298 
L 4672 3008 
L 5562 3008 
L 5562 3424 
L 3341 3424 
L 3341 3008 
L 4218 3008 
L 4218 2298 
L 2880 2298 
z
M 640 3501 
L 640 -506 
L 1056 -506 
L 1056 0 
L 2746 0 
L 2746 192 
C 2848 134 2982 45 3046 -6 
C 3328 358 3578 909 3731 1453 
L 3315 1542 
C 3200 1094 3002 640 2746 301 
L 2746 384 
L 1056 384 
L 1056 819 
L 2650 819 
L 2650 1203 
L 1056 1203 
L 1056 1632 
L 2618 1632 
L 2618 3501 
L 640 3501 
z
M 1056 2406 
L 2214 2406 
L 2214 1971 
L 1056 1971 
L 1056 2406 
z
M 1056 2739 
L 1056 3162 
L 2214 3162 
L 2214 2739 
L 1056 2739 
z
M 1344 5376 
C 1126 4883 704 4269 115 3808 
C 218 3750 352 3616 422 3520 
C 666 3718 877 3936 1062 4154 
L 1062 3872 
L 2310 3872 
L 2310 4218 
L 1114 4218 
C 1338 4486 1517 4755 1651 4992 
C 2003 4672 2381 4192 2579 3904 
L 2880 4230 
C 2662 4557 2202 5037 1824 5376 
L 1344 5376 
z
" transform="scale(0.015625)"/>
      <path id="NotoSansCJKjp-Regular-50aa" d="M 3718 5312 
L 3718 4096 
L 2637 4096 
L 2637 5312 
L 2163 5312 
L 2163 4096 
L 627 4096 
L 627 -512 
L 1082 -512 
L 1082 -102 
L 5331 -102 
L 5331 -486 
L 5798 -486 
L 5798 4096 
L 4186 4096 
L 4186 5312 
L 3718 5312 
z
M 1082 365 
L 1082 1779 
L 2163 1779 
L 2163 365 
L 1082 365 
z
M 5331 365 
L 4186 365 
L 4186 1779 
L 5331 1779 
L 5331 365 
z
M 2637 365 
L 2637 1779 
L 3718 1779 
L 3718 365 
L 2637 365 
z
M 1082 2240 
L 1082 3629 
L 2163 3629 
L 2163 2240 
L 1082 2240 
z
M 5331 2240 
L 4186 2240 
L 4186 3629 
L 5331 3629 
L 5331 2240 
z
M 2637 2240 
L 2637 3629 
L 3718 3629 
L 3718 2240 
L 2637 2240 
z
" transform="scale(0.015625)"/>
      <path id="NotoSansCJKjp-Regular-7a17" d="M 3258 3405 
L 5414 3405 
L 5414 2848 
L 3258 2848 
L 3258 3405 
z
M 3258 4326 
L 5414 4326 
L 5414 3770 
L 3258 3770 
L 3258 4326 
z
M 1894 1632 
C 2048 1267 2182 781 2208 474 
L 2586 589 
C 2541 902 2406 1370 2246 1734 
L 1894 1632 
z
M 570 1715 
C 493 1158 378 582 166 192 
C 269 154 454 70 538 13 
C 736 422 890 1043 973 1651 
L 570 1715 
z
M 2816 4717 
L 2816 2451 
L 4109 2451 
L 4109 6 
C 4109 -64 4090 -83 4006 -90 
C 3930 -90 3674 -90 3386 -83 
C 3443 -211 3501 -384 3520 -506 
C 3917 -506 4173 -499 4339 -435 
C 4506 -358 4544 -237 4544 6 
L 4544 1325 
C 4819 717 5254 109 5952 -250 
C 6016 -128 6157 51 6246 141 
C 5754 358 5382 698 5114 1088 
C 5427 1306 5798 1613 6106 1894 
L 5715 2176 
C 5523 1946 5203 1645 4922 1408 
C 4742 1734 4627 2074 4544 2400 
L 4544 2451 
L 5875 2451 
L 5875 4717 
L 4365 4717 
C 4467 4890 4570 5088 4659 5280 
L 4128 5382 
C 4077 5190 3968 4934 3872 4717 
L 2816 4717 
z
M 2573 1901 
L 2573 1491 
L 3443 1491 
C 3219 826 2803 352 2291 77 
C 2381 13 2534 -154 2592 -250 
C 3226 115 3738 787 3962 1805 
L 3699 1914 
L 3622 1901 
L 2573 1901 
z
M 179 2547 
L 237 2118 
L 1248 2182 
L 1248 -512 
L 1670 -512 
L 1670 2208 
L 2176 2240 
C 2234 2086 2285 1946 2310 1824 
L 2694 2003 
C 2598 2349 2342 2906 2074 3322 
L 1722 3181 
C 1824 3014 1920 2829 2010 2637 
L 1088 2592 
C 1517 3136 2010 3866 2374 4454 
L 1971 4646 
C 1792 4301 1549 3878 1286 3475 
C 1190 3610 1075 3750 941 3898 
C 1178 4256 1459 4781 1677 5216 
L 1254 5376 
C 1120 5018 890 4531 685 4166 
L 486 4346 
L 237 4038 
C 525 3763 845 3398 1037 3104 
C 896 2912 762 2726 634 2566 
L 179 2547 
z
" transform="scale(0.015625)"/>
     </defs>
     <use xlink:href="#NotoSansCJKjp-Regular-26e3"/>
     <use xlink:href="#NotoSansCJKjp-Regular-7ccb" transform="translate(100 0)"/>
     <use xlink:href="#NotoSansCJKjp-Regular-2d1" transform="translate(200 0)"/>
     <use xlink:href="#NotoSansCJKjp-Regular-4f87" transform="translate(253.59375 0)"/>
     <use xlink:href="#NotoSansCJKjp-Regular-a774" transform="translate(353.59375 0)"/>
     <use xlink:href="#NotoSansCJKjp-Regular-33ac" transform="translate(453.59375 0)"/>
     <use xlink:href="#NotoSansCJKjp-Regular-e6c0" transform="translate(553.59375 0)"/>
     <use xlink:href="#NotoSansCJKjp-Regular-585c" transform="translate(653.59375 0)"/>
     <use xlink:href="#NotoSansCJKjp-Regular-4338" transform="translate(753.59375 0)"/>
     <use xlink:href="#NotoSansCJKjp-Regular-e6b5" transform="translate(853.59375 0)"/>
     <use xlink:href="#NotoSansCJKjp-Regular-ad9e" transform="translate(953.59375 0)"/>
     <use xlink:href="#NotoSansCJKjp-Regular-4338" transform="translate(1053.59375 0)"/>
     <use xlink:href="#NotoSansCJKjp-Regular-50aa" transform="translate(1153.59375 0)"/>
     <use xlink:href="#NotoSansCJKjp-Regular-7a17" transform="translate(1253.59375 0)"/>
    </g>
   </g>
   <g id="line2d_21">
    <defs>
     <path id="m2c8f7ee2dd" d="M 0 4 
C 1.060812 4 2.078319 3.578535 2.828427 2.828427 
C 3.578535 2.078319 4 1.060812 4 0 
C 4 -1.060812 3.578535 -2.078319 2.828427 -2.828427 
C 2.078319 -3.578535 1.060812 -4 0 -4 
C -1.060812 -4 -2.078319 -3.578535 -2.828427 -2.828427 
C -3.578535 -2.078319 -4 -1.060812 -4 0 
C -4 1.060812 -3.578535 2.078319 -2.828427 2.828427 
C -2.078319 3.578535 -1.060812 4 0 4 
z
" style="stroke: #8250df"/>
    </defs>
    <g clip-path="url(#p9311713507)">
     <use xlink:href="#m2c8f7ee2dd" x="326.281157" y="84.42949" style="fill: #8250df; stroke: #8250df"/>
    </g>
   </g>
  </g>
 </g>
 <defs>
  <clipPath id="p1c8863ed19">
   <rect x="7.2" y="24.64" width="245.34" height="236.88"/>
  </clipPath>
  <clipPath id="p9311713507">
   <rect x="299.021667" y="24.64" width="392.536667" height="236.88"/>
  </clipPath>
 </defs>
</svg>
