<?xml version="1.0" encoding="utf-8" standalone="no"?>
<!DOCTYPE svg PUBLIC "-//W3C//DTD SVG 1.1//EN"
  "http://www.w3.org/Graphics/SVG/1.1/DTD/svg11.dtd">
<svg xmlns:xlink="http://www.w3.org/1999/xlink" width="583.75321pt" height="326.016pt" viewBox="0 0 583.75321 326.016" xmlns="http://www.w3.org/2000/svg" version="1.1">
 <metadata>
  <rdf:RDF xmlns:dc="http://purl.org/dc/elements/1.1/" xmlns:cc="http://creativecommons.org/ns#" xmlns:rdf="http://www.w3.org/1999/02/22-rdf-syntax-ns#">
   <cc:Work>
    <dc:type rdf:resource="http://purl.org/dc/dcmitype/StillImage"/>
    <dc:date>2026-06-17T23:23:29.168700</dc:date>
    <dc:format>image/svg+xml</dc:format>
    <dc:creator>
     <cc:Agent>
      <dc:title>Matplotlib v3.11.0, https://matplotlib.org/</dc:title>
     </cc:Agent>
    </dc:creator>
   </cc:Work>
  </rdf:RDF>
 </metadata>
 <defs>
  <style type="text/css">*{stroke-linejoin: round; stroke-linecap: butt}</style>
 </defs>
 <g id="figure_1">
  <g id="patch_1">
   <path d="M 0 326.016 
L 583.75321 326.016 
L 583.75321 0 
L 0 0 
z
" style="fill: #ffffff"/>
  </g>
  <g id="axes_1">
   <g id="line2d_1">
    <path d="M 192.236458 185.58975 
L 192.089675 180.930704 
L 191.649906 176.290137 
L 190.918896 171.686455 
L 189.899546 167.137919 
L 188.595896 162.662569 
L 187.01312 158.278156 
L 185.157493 154.00207 
L 183.036377 149.851272 
L 180.658185 145.842225 
L 178.032348 141.99083 
L 175.169283 138.312363 
L 172.080345 134.821415 
L 168.777785 131.531832 
L 165.274703 128.456661 
L 161.584994 125.608099 
L 157.723292 122.997445 
L 153.704913 120.635054 
L 149.545797 118.530295 
L 145.262439 116.691517 
L 140.871829 115.126014 
L 136.391381 113.839993 
L 131.838867 112.838557 
L 127.232343 112.125677 
L 122.590081 111.704181 
L 117.930493 111.57574 
L 113.27206 111.740865 
L 108.63326 112.198899 
L 104.032492 112.948027 
L 99.488004 113.985276 
L 95.017821 115.306534 
L 90.639673 116.906559 
L 86.370926 118.779005 
L 82.228511 120.916446 
L 78.228857 123.310403 
L 74.38783 125.951381 
L 70.720663 128.828906 
L 67.241903 131.931564 
L 63.965346 135.247048 
L 60.90399 138.762209 
L 58.069976 142.463104 
L 55.474545 146.335054 
L 53.127992 150.362702 
L 51.039623 154.530072 
L 49.217722 158.820636 
L 47.669516 163.217375 
L 46.401144 167.702851 
L 45.417638 172.259272 
L 44.722899 176.868567 
L 44.319682 181.512452 
L 44.209586 186.17251 
L 44.393048 190.830256 
L 44.869341 195.467217 
L 45.636576 200.065 
L 46.691708 204.60537 
L 48.030554 209.070316 
L 49.647803 213.442131 
L 51.53704 217.703474 
L 53.690772 221.837443 
L 56.100456 225.827641 
L 58.756535 229.658241 
L 61.648475 233.314051 
L 64.764804 236.78057 
L 68.093162 240.044049 
L 71.620347 243.091543 
L 75.332371 245.910965 
L 79.214509 248.491132 
L 83.251363 250.821811 
L 87.426923 252.893758 
L 91.724626 254.698753 
L 96.127426 256.229639 
L 100.61786 257.480342 
L 105.178118 258.445902 
L 109.790112 259.12249 
L 114.435549 259.507422 
L 119.096004 259.599171 
L 123.752992 259.397374 
L 128.388041 258.902829 
L 132.982768 258.1175 
L 137.518949 257.044501 
L 141.97859 255.688088 
L 146.344004 254.053641 
L 150.597877 252.147643 
L 154.723335 249.977653 
L 158.704015 247.552278 
L 162.524129 244.881139 
L 166.168526 241.97483 
L 169.62275 238.844878 
L 172.8731 235.503698 
L 175.906684 231.964542 
L 178.711471 228.241448 
L 181.276335 224.349183 
L 183.591104 220.303184 
L 185.646595 216.1195 
L 187.434658 211.814724 
L 188.948198 207.405931 
L 190.181214 202.910608 
L 191.128814 198.346584 
L 191.78724 193.731963 
L 192.153881 189.085046 
L 192.236458 185.58975 
L 192.236458 185.58975 
" clip-path="url(#pc35bee8845)" style="fill: none; stroke: #222831; stroke-width: 2; stroke-linecap: square"/>
   </g>
   <g id="line2d_2">
    <path d="M 118.221875 185.58975 
L 160.674896 124.960553 
" clip-path="url(#pc35bee8845)" style="fill: none; stroke-dasharray: 4.07,1.76; stroke-dashoffset: 0; stroke: #9aa0a6; stroke-width: 1.1"/>
   </g>
   <g id="line2d_3">
    <path d="M 118.221875 185.58975 
L 92.907397 116.038792 
" clip-path="url(#pc35bee8845)" style="fill: none; stroke-dasharray: 4.07,1.76; stroke-dashoffset: 0; stroke: #9aa0a6; stroke-width: 1.1"/>
   </g>
   <g id="text_1">
    <!-- $\vec v_1$ -->
    <g style="fill: #1f6feb" transform="translate(95.817552 77.533212) scale(0.13 -0.13)">
     <defs>
      <path id="Cmmi10-6e" d="M 1281 3809 
Q 1231 3809 1198 3846 
Q 1166 3884 1166 3938 
Q 1166 3984 1198 4023 
Q 1231 4063 1281 4063 
L 3547 4063 
Q 3378 4291 3378 4441 
Q 3378 4497 3417 4533 
Q 3456 4569 3506 4569 
Q 3613 4569 3634 4469 
Q 3697 4194 3938 4044 
Q 4000 4003 4000 3938 
Q 4000 3859 3938 3828 
Q 3575 3647 3353 3347 
Q 3328 3303 3256 3303 
Q 3209 3303 3168 3340 
Q 3128 3378 3128 3431 
Q 3128 3547 3438 3809 
L 1281 3809 
z
" transform="scale(0.015625)"/>
      <path id="Cmmi10-38" d="M 684 722 
Q 684 866 718 1037 
Q 753 1209 787 1320 
Q 822 1431 944 1753 
Q 1066 2075 1069 2088 
Q 1153 2322 1153 2472 
Q 1153 2663 1013 2663 
Q 759 2663 595 2402 
Q 431 2141 353 1819 
Q 341 1778 300 1778 
L 225 1778 
Q 172 1778 172 1838 
L 172 1856 
Q 275 2238 487 2533 
Q 700 2828 1025 2828 
Q 1253 2828 1411 2678 
Q 1569 2528 1569 2297 
Q 1569 2178 1516 2047 
Q 1391 1722 1319 1526 
Q 1247 1331 1186 1089 
Q 1125 847 1125 641 
Q 1125 400 1236 248 
Q 1347 97 1581 97 
Q 2025 97 2381 781 
Q 2494 1003 2594 1303 
Q 2694 1603 2694 1791 
Q 2694 1984 2631 2092 
Q 2569 2200 2469 2317 
Q 2369 2434 2369 2503 
Q 2369 2628 2472 2731 
Q 2575 2834 2700 2834 
Q 2853 2834 2920 2693 
Q 2988 2553 2988 2375 
Q 2988 2163 2927 1869 
Q 2866 1575 2758 1259 
Q 2650 944 2559 763 
Q 2138 -72 1575 -72 
Q 1172 -72 928 129 
Q 684 331 684 722 
z
" transform="scale(0.015625)"/>
      <path id="Cmr10-64" d="M 594 0 
L 594 225 
Q 1394 225 1394 428 
L 1394 3788 
Q 1063 3628 556 3628 
L 556 3853 
Q 1341 3853 1741 4263 
L 1831 4263 
Q 1853 4263 1873 4245 
Q 1894 4228 1894 4206 
L 1894 428 
Q 1894 225 2694 225 
L 2694 0 
L 594 0 
z
" transform="scale(0.015625)"/>
     </defs>
     <use xlink:href="#Cmmi10-6e" transform="translate(-13.21875 5.609375)"/>
     <use xlink:href="#Cmmi10-38" transform="translate(0 0.4375)"/>
     <use xlink:href="#Cmr10-64" transform="translate(52.392963 -14.562462) scale(0.7)"/>
    </g>
   </g>
   <g id="text_2">
    <!-- $\vec v_2$ -->
    <g style="fill: #1f6feb" transform="translate(18.860639 138.411976) scale(0.13 -0.13)">
     <defs>
      <path id="Cmr10-31" d="M 319 0 
L 319 172 
Q 319 188 331 206 
L 1325 1306 
Q 1550 1550 1690 1715 
Q 1831 1881 1968 2097 
Q 2106 2313 2186 2536 
Q 2266 2759 2266 3009 
Q 2266 3272 2169 3511 
Q 2072 3750 1880 3894 
Q 1688 4038 1416 4038 
Q 1138 4038 916 3870 
Q 694 3703 603 3438 
Q 628 3444 672 3444 
Q 816 3444 917 3347 
Q 1019 3250 1019 3097 
Q 1019 2950 917 2848 
Q 816 2747 672 2747 
Q 522 2747 420 2851 
Q 319 2956 319 3097 
Q 319 3338 409 3548 
Q 500 3759 670 3923 
Q 841 4088 1055 4175 
Q 1269 4263 1509 4263 
Q 1875 4263 2190 4108 
Q 2506 3953 2690 3670 
Q 2875 3388 2875 3009 
Q 2875 2731 2753 2481 
Q 2631 2231 2440 2026 
Q 2250 1822 1953 1562 
Q 1656 1303 1563 1216 
L 838 519 
L 1453 519 
Q 1906 519 2211 526 
Q 2516 534 2534 550 
Q 2609 631 2688 1141 
L 2875 1141 
L 2694 0 
L 319 0 
z
" transform="scale(0.015625)"/>
     </defs>
     <use xlink:href="#Cmmi10-6e" transform="translate(-13.21875 5.609375)"/>
     <use xlink:href="#Cmmi10-38" transform="translate(0 0.4375)"/>
     <use xlink:href="#Cmr10-31" transform="translate(52.392963 -14.562462) scale(0.7)"/>
    </g>
   </g>
   <g id="text_3">
    <!-- $r$ -->
    <g style="fill: #6b7280" transform="translate(131.5445 189.290479) scale(0.12 -0.12)">
     <defs>
      <path id="Cmmi10-84" d="M 494 109 
Q 494 147 500 166 
L 978 2075 
Q 1025 2253 1025 2388 
Q 1025 2663 838 2663 
Q 638 2663 541 2423 
Q 444 2184 353 1819 
Q 353 1800 334 1789 
Q 316 1778 300 1778 
L 225 1778 
Q 203 1778 187 1801 
Q 172 1825 172 1844 
Q 241 2122 305 2315 
Q 369 2509 505 2668 
Q 641 2828 844 2828 
Q 1066 2828 1233 2700 
Q 1400 2572 1441 2363 
Q 1603 2575 1811 2701 
Q 2019 2828 2266 2828 
Q 2469 2828 2623 2709 
Q 2778 2591 2778 2388 
Q 2778 2225 2676 2104 
Q 2575 1984 2406 1984 
Q 2303 1984 2233 2048 
Q 2163 2113 2163 2216 
Q 2163 2356 2266 2467 
Q 2369 2578 2503 2578 
Q 2400 2663 2253 2663 
Q 1978 2663 1775 2467 
Q 1572 2272 1409 1972 
L 953 141 
Q 931 53 854 -9 
Q 778 -72 684 -72 
Q 606 -72 550 -22 
Q 494 28 494 109 
z
" transform="scale(0.015625)"/>
     </defs>
     <use xlink:href="#Cmmi10-84" transform="translate(0 0.8125)"/>
    </g>
   </g>
   <g id="text_4">
    <!-- 速率不變（$|\vec v_1|=|\vec v_2|$）， -->
    <g style="fill: #222831" transform="translate(56.896875 278.260458) scale(0.11 -0.11)">
     <defs>
      <path id="NotoSansCJKjp-Regular-9d6d" d="M 384 4934 
C 794 4646 1274 4218 1478 3904 
L 1862 4224 
C 1632 4531 1152 4947 730 5222 
L 384 4934 
z
M 1677 2848 
L 314 2848 
L 314 2400 
L 1210 2400 
L 1210 768 
C 890 499 518 230 230 32 
L 480 -461 
C 826 -173 1152 102 1459 378 
C 1869 -128 2445 -358 3283 -390 
C 3994 -416 5318 -403 6016 -371 
C 6035 -224 6118 6 6176 115 
C 5414 64 3981 45 3283 77 
C 2541 102 1978 326 1677 794 
L 1677 2848 
z
M 2752 3379 
L 3757 3379 
L 3757 2560 
L 2752 2560 
L 2752 3379 
z
M 4224 3379 
L 5286 3379 
L 5286 2560 
L 4224 2560 
L 4224 3379 
z
M 3757 5370 
L 3757 4710 
L 2035 4710 
L 2035 4294 
L 3757 4294 
L 3757 3763 
L 2304 3763 
L 2304 2176 
L 3501 2176 
C 3130 1638 2502 1120 1920 870 
C 2022 781 2163 621 2227 506 
C 2778 787 3360 1306 3757 1875 
L 3757 314 
L 4224 314 
L 4224 1850 
C 4640 1318 5235 800 5754 525 
C 5824 640 5971 806 6080 896 
C 5510 1146 4845 1658 4442 2176 
L 5754 2176 
L 5754 3763 
L 4224 3763 
L 4224 4294 
L 6048 4294 
L 6048 4710 
L 4224 4710 
L 4224 5370 
L 3757 5370 
z
" transform="scale(0.015625)"/>
      <path id="NotoSansCJKjp-Regular-66cd" d="M 5376 4038 
C 5139 3782 4704 3437 4384 3226 
L 4736 3014 
C 5056 3226 5472 3520 5798 3821 
L 5376 4038 
z
M 320 1997 
L 557 1613 
C 986 1798 1517 2048 2022 2291 
L 1933 2656 
C 1338 2406 730 2150 320 1997 
z
M 544 3680 
C 902 3482 1344 3174 1555 2957 
L 1888 3258 
C 1670 3469 1222 3757 864 3949 
L 544 3680 
z
M 4262 2458 
C 4768 2202 5408 1811 5715 1542 
L 6067 1850 
C 5734 2112 5094 2490 4595 2733 
L 4262 2458 
z
M 3526 2707 
C 3654 2566 3782 2400 3904 2227 
L 2810 2176 
C 3264 2618 3763 3168 4147 3642 
L 3770 3827 
C 3590 3571 3347 3270 3091 2976 
C 2957 3098 2784 3226 2598 3347 
C 2810 3578 3046 3878 3251 4154 
L 3110 4211 
L 5882 4211 
L 5882 4659 
L 3424 4659 
L 3424 5376 
L 2938 5376 
L 2938 4659 
L 538 4659 
L 538 4211 
L 2771 4211 
C 2643 4000 2470 3750 2310 3546 
L 2131 3654 
L 1894 3373 
C 2202 3174 2579 2906 2822 2682 
C 2650 2490 2470 2310 2304 2150 
L 1811 2131 
L 1882 1715 
L 4128 1882 
C 4211 1747 4275 1626 4320 1517 
L 4691 1709 
C 4550 2035 4192 2515 3872 2874 
L 3526 2707 
z
M 346 1222 
L 346 774 
L 2938 774 
L 2938 -531 
L 3424 -531 
L 3424 774 
L 6061 774 
L 6061 1222 
L 3424 1222 
L 3424 1722 
L 2938 1722 
L 2938 1222 
L 346 1222 
z
" transform="scale(0.015625)"/>
      <path id="NotoSansCJKjp-Regular-2518" d="M 3578 3059 
C 4339 2547 5299 1792 5754 1299 
L 6144 1670 
C 5664 2163 4691 2880 3936 3366 
L 3578 3059 
z
M 442 4928 
L 442 4435 
L 3290 4435 
C 2656 3341 1555 2259 282 1632 
C 384 1523 531 1331 608 1210 
C 1498 1677 2291 2336 2938 3078 
L 2938 -499 
L 3456 -499 
L 3456 3738 
C 3622 3962 3770 4198 3904 4435 
L 5958 4435 
L 5958 4928 
L 442 4928 
z
" transform="scale(0.015625)"/>
      <path id="NotoSansCJKjp-Regular-95ec" d="M 1664 2874 
C 1798 2650 1933 2342 1984 2150 
L 2291 2285 
C 2240 2470 2099 2765 1965 2982 
L 1664 2874 
z
M 640 2970 
C 563 2624 442 2259 262 2003 
C 358 1958 512 1869 582 1818 
C 755 2093 909 2502 998 2886 
L 640 2970 
z
M 5376 2848 
C 5568 2560 5760 2170 5830 1926 
L 6150 2080 
C 6067 2317 5869 2694 5677 2976 
L 5376 2848 
z
M 4275 2963 
C 4198 2630 4077 2298 3898 2048 
C 3987 2010 4141 1926 4211 1882 
C 4384 2138 4538 2522 4627 2886 
L 4275 2963 
z
M 2477 5203 
L 2477 4922 
L 3853 4922 
L 3853 5203 
L 2477 5203 
z
M 2464 4077 
L 2464 3802 
L 3866 3802 
L 3866 4077 
L 2464 4077 
z
M 2464 3533 
L 2464 3251 
L 3866 3251 
L 3866 3533 
L 2464 3533 
z
M 2803 2688 
L 3520 2688 
L 3520 2214 
L 2803 2214 
L 2803 2688 
z
M 1709 4832 
C 1587 4653 1427 4435 1254 4218 
C 1184 4294 1094 4384 998 4474 
C 1178 4691 1376 4973 1542 5242 
L 1197 5382 
C 1094 5178 928 4896 774 4672 
L 614 4800 
L 390 4550 
C 608 4371 858 4134 1018 3942 
C 902 3808 787 3680 678 3571 
L 307 3571 
L 346 3200 
L 1152 3232 
L 1152 1728 
L 1530 1728 
L 1530 3251 
L 2029 3270 
L 2125 3085 
L 2406 3251 
C 2304 3469 2067 3795 1856 4038 
L 1581 3891 
C 1658 3802 1741 3699 1818 3590 
L 1094 3578 
C 1414 3904 1773 4307 2054 4659 
L 1709 4832 
z
M 2208 4659 
L 2208 4352 
L 4064 4352 
L 4064 4474 
C 4269 4320 4499 4109 4653 3936 
C 4531 3802 4416 3680 4301 3571 
L 3942 3571 
L 3987 3200 
L 4813 3232 
L 4813 1728 
L 5190 1728 
L 5190 3251 
L 5734 3277 
C 5792 3187 5843 3110 5875 3040 
L 6163 3226 
C 6042 3462 5754 3814 5504 4077 
L 5235 3917 
C 5325 3821 5421 3706 5510 3590 
L 4730 3578 
C 5075 3910 5459 4339 5766 4704 
L 5421 4883 
C 5286 4685 5094 4442 4896 4211 
C 4819 4288 4723 4378 4621 4461 
C 4800 4678 5018 4966 5190 5242 
L 4838 5382 
C 4736 5171 4550 4877 4390 4653 
L 4250 4755 
L 4064 4538 
L 4064 4659 
L 2208 4659 
z
M 4269 1171 
C 3987 902 3622 685 3194 506 
C 2707 691 2278 909 1965 1171 
L 4269 1171 
z
M 2451 2963 
L 2451 2054 
L 2189 2131 
C 1824 1549 1120 1069 397 781 
C 499 704 666 531 736 448 
C 1030 589 1331 755 1606 960 
C 1901 710 2253 493 2650 307 
C 1933 90 1101 -45 256 -122 
C 339 -224 461 -422 499 -538 
C 1453 -416 2400 -237 3206 77 
C 4026 -230 4966 -422 5914 -525 
C 5971 -403 6080 -218 6176 -115 
C 5338 -45 4493 102 3757 320 
C 4198 544 4582 826 4870 1171 
L 5920 1171 
L 5920 1562 
L 2291 1562 
C 2394 1683 2496 1805 2579 1939 
L 3878 1939 
L 3878 2963 
L 2451 2963 
z
" transform="scale(0.015625)"/>
      <path id="NotoSansCJKjp-Regular-e6ae" d="M 4448 2432 
C 4448 1184 4954 166 5722 -614 
L 6106 -416 
C 5370 346 4915 1293 4915 2432 
C 4915 3571 5370 4518 6106 5280 
L 5722 5478 
C 4954 4698 4448 3680 4448 2432 
z
" transform="scale(0.015625)"/>
      <path id="Cmsy10-2f" d="M 763 -1484 
L 763 4684 
Q 763 4734 800 4767 
Q 838 4800 891 4800 
Q 938 4800 978 4767 
Q 1019 4734 1019 4684 
L 1019 -1484 
Q 1019 -1534 978 -1567 
Q 938 -1600 891 -1600 
Q 838 -1600 800 -1567 
Q 763 -1534 763 -1484 
z
" transform="scale(0.015625)"/>
      <path id="Cmr10-29" d="M 481 850 
Q 428 850 393 890 
Q 359 931 359 978 
Q 359 1031 393 1068 
Q 428 1106 481 1106 
L 4500 1106 
Q 4547 1106 4581 1068 
Q 4616 1031 4616 978 
Q 4616 931 4581 890 
Q 4547 850 4500 850 
L 481 850 
z
M 481 2094 
Q 428 2094 393 2131 
Q 359 2169 359 2222 
Q 359 2269 393 2309 
Q 428 2350 481 2350 
L 4500 2350 
Q 4547 2350 4581 2309 
Q 4616 2269 4616 2222 
Q 4616 2169 4581 2131 
Q 4547 2094 4500 2094 
L 481 2094 
z
" transform="scale(0.015625)"/>
      <path id="NotoSansCJKjp-Regular-e6af" d="M 1952 2432 
C 1952 3680 1446 4698 678 5478 
L 294 5280 
C 1030 4518 1485 3571 1485 2432 
C 1485 1293 1030 346 294 -416 
L 678 -614 
C 1446 166 1952 1184 1952 2432 
z
" transform="scale(0.015625)"/>
      <path id="NotoSansCJKjp-Regular-e6b2" d="M 1005 -685 
C 1677 -448 2112 77 2112 768 
C 2112 1216 1920 1504 1568 1504 
C 1306 1504 1082 1344 1082 1043 
C 1082 742 1299 589 1562 589 
L 1670 602 
C 1638 160 1357 -141 864 -346 
L 1005 -685 
z
" transform="scale(0.015625)"/>
     </defs>
     <use xlink:href="#NotoSansCJKjp-Regular-9d6d" transform="translate(0 0.40625)"/>
     <use xlink:href="#NotoSansCJKjp-Regular-66cd" transform="translate(99.999908 0.40625)"/>
     <use xlink:href="#NotoSansCJKjp-Regular-2518" transform="translate(199.999817 0.40625)"/>
     <use xlink:href="#NotoSansCJKjp-Regular-95ec" transform="translate(299.999725 0.40625)"/>
     <use xlink:href="#NotoSansCJKjp-Regular-e6ae" transform="translate(399.999634 0.40625)"/>
     <use xlink:href="#Cmsy10-2f" transform="translate(499.999542 0.40625)"/>
     <use xlink:href="#Cmmi10-6e" transform="translate(514.466339 5.578125)"/>
     <use xlink:href="#Cmmi10-38" transform="translate(527.685089 0.40625)"/>
     <use xlink:href="#Cmr10-64" transform="translate(580.078052 -14.593712) scale(0.7)"/>
     <use xlink:href="#Cmsy10-2f" transform="translate(620.798467 0.40625)"/>
     <use xlink:href="#Cmr10-29" transform="translate(668.484071 0.40625)"/>
     <use xlink:href="#Cmsy10-2f" transform="translate(766.169675 0.40625)"/>
     <use xlink:href="#Cmmi10-6e" transform="translate(780.636472 5.578125)"/>
     <use xlink:href="#Cmmi10-38" transform="translate(793.855222 0.40625)"/>
     <use xlink:href="#Cmr10-31" transform="translate(846.248185 -14.593712) scale(0.7)"/>
     <use xlink:href="#Cmsy10-2f" transform="translate(886.968601 0.40625)"/>
     <use xlink:href="#NotoSansCJKjp-Regular-e6af" transform="translate(914.654147 0.40625)"/>
     <use xlink:href="#NotoSansCJKjp-Regular-e6b2" transform="translate(1014.654056 0.40625)"/>
    </g>
    <!-- 但方向一直在轉 -->
    <g style="fill: #222831" transform="translate(79.721875 290.690458) scale(0.11 -0.11)">
     <defs>
      <path id="NotoSansCJKjp-Regular-26d9" d="M 1971 198 
L 1971 -250 
L 6189 -250 
L 6189 198 
L 1971 198 
z
M 3008 2758 
L 5126 2758 
L 5126 1472 
L 3008 1472 
L 3008 2758 
z
M 3008 4467 
L 5126 4467 
L 5126 3206 
L 3008 3206 
L 3008 4467 
z
M 2515 4922 
L 2515 1024 
L 5645 1024 
L 5645 4922 
L 2515 4922 
z
M 1779 5350 
C 1414 4378 806 3418 166 2803 
C 256 2688 403 2426 448 2310 
C 672 2534 890 2803 1101 3091 
L 1101 -499 
L 1574 -499 
L 1574 3821 
C 1830 4262 2061 4736 2246 5210 
L 1779 5350 
z
" transform="scale(0.015625)"/>
      <path id="NotoSansCJKjp-Regular-4ea0" d="M 2931 5395 
L 2931 4269 
L 339 4269 
L 339 3808 
L 2310 3808 
C 2240 2330 2054 666 269 -147 
C 397 -243 544 -416 621 -538 
C 1926 90 2438 1152 2669 2298 
L 4787 2298 
C 4685 819 4557 186 4371 19 
C 4294 -51 4211 -58 4064 -58 
C 3898 -58 3443 -51 2982 -13 
C 3078 -147 3142 -346 3155 -480 
C 3584 -506 4013 -512 4230 -499 
C 4480 -486 4634 -435 4781 -282 
C 5030 -26 5165 685 5293 2522 
C 5306 2598 5312 2758 5312 2758 
L 2746 2758 
C 2790 3110 2822 3462 2842 3808 
L 6067 3808 
L 6067 4269 
L 3424 4269 
L 3424 5395 
L 2931 5395 
z
" transform="scale(0.015625)"/>
      <path id="NotoSansCJKjp-Regular-2eb8" d="M 2803 5389 
C 2714 5062 2554 4614 2394 4269 
L 634 4269 
L 634 -512 
L 1107 -512 
L 1107 3802 
L 5325 3802 
L 5325 128 
C 5325 13 5286 -26 5158 -26 
C 5024 -32 4582 -38 4122 -13 
C 4192 -154 4262 -378 4288 -512 
C 4877 -512 5274 -506 5504 -429 
C 5728 -346 5805 -192 5805 128 
L 5805 4269 
L 2925 4269 
C 3085 4576 3258 4947 3398 5293 
L 2803 5389 
z
M 2387 2522 
L 4006 2522 
L 4006 1267 
L 2387 1267 
L 2387 2522 
z
M 1946 2950 
L 1946 371 
L 2387 371 
L 2387 832 
L 4454 832 
L 4454 2950 
L 1946 2950 
z
" transform="scale(0.015625)"/>
      <path id="NotoSansCJKjp-Regular-2509" d="M 282 2758 
L 282 2234 
L 6144 2234 
L 6144 2758 
L 282 2758 
z
" transform="scale(0.015625)"/>
      <path id="NotoSansCJKjp-Regular-6ce1" d="M 2374 2586 
L 4832 2586 
L 4832 2061 
L 2374 2061 
L 2374 2586 
z
M 2374 1715 
L 4832 1715 
L 4832 1178 
L 2374 1178 
L 2374 1715 
z
M 2374 3456 
L 4832 3456 
L 4832 2931 
L 2374 2931 
L 2374 3456 
z
M 736 3635 
L 736 -518 
L 1203 -518 
L 1203 -179 
L 6080 -179 
L 6080 269 
L 1203 269 
L 1203 3635 
L 736 3635 
z
M 3053 5395 
L 3008 4787 
L 397 4787 
L 397 4339 
L 2963 4339 
L 2899 3814 
L 1914 3814 
L 1914 813 
L 5306 813 
L 5306 3814 
L 3379 3814 
L 3469 4339 
L 6029 4339 
L 6029 4787 
L 3533 4787 
L 3603 5363 
L 3053 5395 
z
" transform="scale(0.015625)"/>
      <path id="NotoSansCJKjp-Regular-33c7" d="M 2502 5376 
C 2413 5050 2298 4710 2163 4384 
L 403 4384 
L 403 3923 
L 1952 3923 
C 1542 3104 979 2342 243 1830 
C 320 1722 442 1517 493 1389 
C 762 1581 1011 1798 1235 2035 
L 1235 -486 
L 1715 -486 
L 1715 2605 
C 2016 3014 2278 3462 2496 3923 
L 6010 3923 
L 6010 4384 
L 2694 4384 
C 2810 4672 2912 4966 3002 5254 
L 2502 5376 
z
M 3827 3590 
L 3827 2355 
L 2387 2355 
L 2387 1907 
L 3827 1907 
L 3827 90 
L 2131 90 
L 2131 -358 
L 6003 -358 
L 6003 90 
L 4307 90 
L 4307 1907 
L 5760 1907 
L 5760 2355 
L 4307 2355 
L 4307 3590 
L 3827 3590 
z
" transform="scale(0.015625)"/>
      <path id="NotoSansCJKjp-Regular-9bba" d="M 3258 691 
C 3501 461 3750 134 3859 -90 
L 4218 141 
C 4096 358 3834 666 3584 883 
L 3258 691 
z
M 2880 2061 
L 2912 1696 
C 3629 1709 4659 1728 5670 1760 
C 5741 1664 5798 1574 5843 1498 
L 6189 1696 
C 6042 1926 5754 2253 5466 2502 
L 5926 2502 
L 5926 4179 
L 4691 4179 
L 4691 4525 
L 6074 4525 
L 6074 4902 
L 4691 4902 
L 4691 5370 
L 4269 5370 
L 4269 4902 
L 2944 4902 
L 2944 4525 
L 4269 4525 
L 4269 4179 
L 3098 4179 
L 3098 2502 
L 4269 2502 
L 4269 2080 
L 2880 2061 
z
M 474 3782 
L 474 1555 
L 1382 1555 
L 1382 1030 
L 243 1030 
L 243 608 
L 1382 608 
L 1382 -518 
L 1818 -518 
L 1818 608 
L 2906 608 
L 2906 941 
L 4922 941 
L 4922 -32 
C 4922 -102 4896 -128 4806 -134 
C 4723 -141 4429 -141 4109 -128 
C 4166 -243 4230 -403 4250 -525 
C 4678 -525 4954 -525 5139 -454 
C 5325 -397 5363 -282 5363 -45 
L 5363 941 
L 6150 941 
L 6150 1318 
L 5363 1318 
L 5363 1664 
L 4922 1664 
L 4922 1318 
L 2874 1318 
L 2874 1030 
L 1818 1030 
L 1818 1555 
L 2746 1555 
L 2746 3782 
L 1818 3782 
L 1818 4256 
L 2816 4256 
L 2816 4678 
L 1818 4678 
L 1818 5376 
L 1382 5376 
L 1382 4678 
L 333 4678 
L 333 4256 
L 1382 4256 
L 1382 3782 
L 474 3782 
z
M 3494 3200 
L 4269 3200 
L 4269 2803 
L 3494 2803 
L 3494 3200 
z
M 4691 3200 
L 5510 3200 
L 5510 2803 
L 4691 2803 
L 4691 3200 
z
M 3494 3878 
L 4269 3878 
L 4269 3488 
L 3494 3488 
L 3494 3878 
z
M 4691 3878 
L 5510 3878 
L 5510 3488 
L 4691 3488 
L 4691 3878 
z
M 5094 2381 
C 5184 2298 5280 2202 5376 2106 
L 4691 2086 
L 4691 2502 
L 5331 2502 
L 5094 2381 
z
M 838 2502 
L 1427 2502 
L 1427 1914 
L 838 1914 
L 838 2502 
z
M 1773 2502 
L 2374 2502 
L 2374 1914 
L 1773 1914 
L 1773 2502 
z
M 838 3424 
L 1427 3424 
L 1427 2848 
L 838 2848 
L 838 3424 
z
M 1773 3424 
L 2374 3424 
L 2374 2848 
L 1773 2848 
L 1773 3424 
z
" transform="scale(0.015625)"/>
     </defs>
     <use xlink:href="#NotoSansCJKjp-Regular-26d9"/>
     <use xlink:href="#NotoSansCJKjp-Regular-4ea0" transform="translate(100 0)"/>
     <use xlink:href="#NotoSansCJKjp-Regular-2eb8" transform="translate(200 0)"/>
     <use xlink:href="#NotoSansCJKjp-Regular-2509" transform="translate(300 0)"/>
     <use xlink:href="#NotoSansCJKjp-Regular-6ce1" transform="translate(400 0)"/>
     <use xlink:href="#NotoSansCJKjp-Regular-33c7" transform="translate(500 0)"/>
     <use xlink:href="#NotoSansCJKjp-Regular-9bba" transform="translate(600 0)"/>
    </g>
   </g>
   <g id="text_5">
    <!-- 速度沿切線方向 -->
    <g style="fill: #222831" transform="translate(72.721875 68.567875) scale(0.13 -0.13)">
     <defs>
      <path id="NotoSansCJKjp-Regular-4231" d="M 2470 4141 
L 2470 3584 
L 1440 3584 
L 1440 3187 
L 2470 3187 
L 2470 2125 
L 4960 2125 
L 4960 3187 
L 5997 3187 
L 5997 3584 
L 4960 3584 
L 4960 4141 
L 4486 4141 
L 4486 3584 
L 2931 3584 
L 2931 4141 
L 2470 4141 
z
M 4486 3187 
L 4486 2509 
L 2931 2509 
L 2931 3187 
L 4486 3187 
z
M 4851 1318 
C 4582 986 4211 717 3770 506 
C 3334 723 2970 992 2720 1318 
L 4851 1318 
z
M 1530 1715 
L 1530 1318 
L 2502 1318 
L 2259 1222 
C 2515 858 2861 550 3270 301 
C 2662 90 1978 -38 1280 -109 
C 1357 -211 1453 -397 1485 -512 
C 2291 -416 3072 -243 3757 45 
C 4365 -237 5088 -422 5869 -525 
C 5933 -403 6048 -211 6150 -109 
C 5466 -38 4819 96 4269 294 
C 4813 608 5261 1024 5549 1574 
L 5248 1734 
L 5165 1715 
L 1530 1715 
z
M 774 4742 
L 774 2893 
C 774 1965 730 659 198 -256 
C 314 -307 512 -435 595 -518 
C 1152 448 1235 1901 1235 2893 
L 1235 4307 
L 6035 4307 
L 6035 4742 
L 3635 4742 
L 3635 5376 
L 3142 5376 
L 3142 4742 
L 774 4742 
z
" transform="scale(0.015625)"/>
      <path id="NotoSansCJKjp-Regular-5aae" d="M 3098 5318 
C 2906 4275 2509 3366 1888 2803 
C 2010 2726 2221 2560 2304 2470 
C 2931 3104 3366 4083 3610 5235 
L 3098 5318 
z
M 4864 5325 
L 4422 5203 
C 4704 4128 5216 3066 5843 2490 
C 5933 2624 6099 2803 6221 2893 
C 5619 3379 5114 4358 4864 5325 
z
M 595 4979 
C 1030 4794 1549 4493 1805 4256 
L 2086 4659 
C 1824 4883 1286 5165 858 5331 
L 595 4979 
z
M 250 3232 
C 691 3072 1229 2797 1491 2586 
L 1754 2995 
C 1478 3200 928 3456 499 3597 
L 250 3232 
z
M 461 -109 
L 870 -429 
C 1242 166 1683 966 2016 1645 
L 1664 1958 
C 1299 1229 800 384 461 -109 
z
M 2502 2298 
L 2502 -512 
L 2970 -512 
L 2970 -224 
L 5184 -224 
L 5184 -480 
L 5664 -480 
L 5664 2298 
L 2502 2298 
z
M 2970 224 
L 2970 1850 
L 5184 1850 
L 5184 224 
L 2970 224 
z
" transform="scale(0.015625)"/>
      <path id="NotoSansCJKjp-Regular-2b89" d="M 2566 4813 
L 2566 4352 
L 3693 4352 
C 3661 2490 3558 730 1971 -160 
C 2099 -243 2253 -410 2323 -538 
C 3987 448 4128 2349 4173 4352 
L 5523 4352 
C 5446 1440 5357 371 5165 134 
C 5094 45 5030 19 4909 19 
C 4762 19 4429 19 4051 51 
C 4141 -83 4198 -301 4205 -442 
C 4544 -461 4902 -467 5114 -442 
C 5325 -416 5472 -358 5613 -154 
C 5862 166 5933 1261 6016 4544 
C 6016 4614 6016 4813 6016 4813 
L 2566 4813 
z
M 960 5197 
L 960 3482 
L 186 3315 
L 269 2880 
L 960 3027 
L 960 1440 
C 960 864 1088 710 1568 710 
C 1664 710 2144 710 2246 710 
C 2688 710 2797 986 2848 1875 
C 2720 1907 2528 1990 2419 2080 
C 2400 1331 2374 1165 2208 1165 
C 2106 1165 1715 1165 1638 1165 
C 1466 1165 1434 1203 1434 1434 
L 1434 3130 
L 2970 3456 
L 2886 3885 
L 1434 3578 
L 1434 5197 
L 960 5197 
z
" transform="scale(0.015625)"/>
      <path id="NotoSansCJKjp-Regular-7a17" d="M 3258 3405 
L 5414 3405 
L 5414 2848 
L 3258 2848 
L 3258 3405 
z
M 3258 4326 
L 5414 4326 
L 5414 3770 
L 3258 3770 
L 3258 4326 
z
M 1894 1632 
C 2048 1267 2182 781 2208 474 
L 2586 589 
C 2541 902 2406 1370 2246 1734 
L 1894 1632 
z
M 570 1715 
C 493 1158 378 582 166 192 
C 269 154 454 70 538 13 
C 736 422 890 1043 973 1651 
L 570 1715 
z
M 2816 4717 
L 2816 2451 
L 4109 2451 
L 4109 6 
C 4109 -64 4090 -83 4006 -90 
C 3930 -90 3674 -90 3386 -83 
C 3443 -211 3501 -384 3520 -506 
C 3917 -506 4173 -499 4339 -435 
C 4506 -358 4544 -237 4544 6 
L 4544 1325 
C 4819 717 5254 109 5952 -250 
C 6016 -128 6157 51 6246 141 
C 5754 358 5382 698 5114 1088 
C 5427 1306 5798 1613 6106 1894 
L 5715 2176 
C 5523 1946 5203 1645 4922 1408 
C 4742 1734 4627 2074 4544 2400 
L 4544 2451 
L 5875 2451 
L 5875 4717 
L 4365 4717 
C 4467 4890 4570 5088 4659 5280 
L 4128 5382 
C 4077 5190 3968 4934 3872 4717 
L 2816 4717 
z
M 2573 1901 
L 2573 1491 
L 3443 1491 
C 3219 826 2803 352 2291 77 
C 2381 13 2534 -154 2592 -250 
C 3226 115 3738 787 3962 1805 
L 3699 1914 
L 3622 1901 
L 2573 1901 
z
M 179 2547 
L 237 2118 
L 1248 2182 
L 1248 -512 
L 1670 -512 
L 1670 2208 
L 2176 2240 
C 2234 2086 2285 1946 2310 1824 
L 2694 2003 
C 2598 2349 2342 2906 2074 3322 
L 1722 3181 
C 1824 3014 1920 2829 2010 2637 
L 1088 2592 
C 1517 3136 2010 3866 2374 4454 
L 1971 4646 
C 1792 4301 1549 3878 1286 3475 
C 1190 3610 1075 3750 941 3898 
C 1178 4256 1459 4781 1677 5216 
L 1254 5376 
C 1120 5018 890 4531 685 4166 
L 486 4346 
L 237 4038 
C 525 3763 845 3398 1037 3104 
C 896 2912 762 2726 634 2566 
L 179 2547 
z
" transform="scale(0.015625)"/>
     </defs>
     <use xlink:href="#NotoSansCJKjp-Regular-9d6d"/>
     <use xlink:href="#NotoSansCJKjp-Regular-4231" transform="translate(100 0)"/>
     <use xlink:href="#NotoSansCJKjp-Regular-5aae" transform="translate(200 0)"/>
     <use xlink:href="#NotoSansCJKjp-Regular-2b89" transform="translate(300 0)"/>
     <use xlink:href="#NotoSansCJKjp-Regular-7a17" transform="translate(400 0)"/>
     <use xlink:href="#NotoSansCJKjp-Regular-4ea0" transform="translate(500 0)"/>
     <use xlink:href="#NotoSansCJKjp-Regular-2eb8" transform="translate(600 0)"/>
    </g>
   </g>
   <g id="patch_2">
    <path d="M 160.674896 124.960553 
Q 134.907487 106.918019 111.338094 90.414552 
" clip-path="url(#pc35bee8845)" style="fill: none; stroke: #1f6feb; stroke-width: 2.4; stroke-linecap: round"/>
    <path d="M 115.171113 97.49325 
L 111.338094 90.414552 
L 119.300864 91.595355 
z
" clip-path="url(#pc35bee8845)" style="fill: #1f6feb; stroke: #1f6feb; stroke-width: 2.4; stroke-linecap: round"/>
   </g>
   <g id="patch_3">
    <path d="M 92.907397 116.038792 
Q 63.34824 126.797446 36.310542 136.638363 
" clip-path="url(#pc35bee8845)" style="fill: none; stroke: #1f6feb; stroke-width: 2.4; stroke-linecap: round"/>
    <path d="M 44.307602 137.558711 
L 36.310542 136.638363 
L 41.845057 130.792924 
z
" clip-path="url(#pc35bee8845)" style="fill: #1f6feb; stroke: #1f6feb; stroke-width: 2.4; stroke-linecap: round"/>
   </g>
   <g id="patch_4">
    <path d="M 118.221875 188.920406 
C 119.105175 188.920406 119.952417 188.569467 120.577005 187.94488 
C 121.201592 187.320292 121.552531 186.47305 121.552531 185.58975 
C 121.552531 184.70645 121.201592 183.859208 120.577005 183.23462 
C 119.952417 182.610033 119.105175 182.259094 118.221875 182.259094 
C 117.338575 182.259094 116.491333 182.610033 115.866745 183.23462 
C 115.242158 183.859208 114.891219 184.70645 114.891219 185.58975 
C 114.891219 186.47305 115.242158 187.320292 115.866745 187.94488 
C 116.491333 188.569467 117.338575 188.920406 118.221875 188.920406 
z
" clip-path="url(#pc35bee8845)" style="fill: #222831; stroke: #222831; stroke-linejoin: miter"/>
   </g>
   <g id="patch_5">
    <path d="M 160.674896 129.401428 
C 161.85263 129.401428 162.982285 128.933509 163.815069 128.100726 
C 164.647852 127.267942 165.115771 126.138287 165.115771 124.960553 
C 165.115771 123.782819 164.647852 122.653163 163.815069 121.82038 
C 162.982285 120.987596 161.85263 120.519678 160.674896 120.519678 
C 159.497162 120.519678 158.367507 120.987596 157.534723 121.82038 
C 156.70194 122.653163 156.234021 123.782819 156.234021 124.960553 
C 156.234021 126.138287 156.70194 127.267942 157.534723 128.100726 
C 158.367507 128.933509 159.497162 129.401428 160.674896 129.401428 
z
" clip-path="url(#pc35bee8845)" style="fill: #1f6feb; stroke: #1f6feb; stroke-linejoin: miter"/>
   </g>
   <g id="patch_6">
    <path d="M 92.907397 120.479667 
C 94.08513 120.479667 95.214786 120.011749 96.047569 119.178965 
C 96.880353 118.346181 97.348272 117.216526 97.348272 116.038792 
C 97.348272 114.861058 96.880353 113.731403 96.047569 112.898619 
C 95.214786 112.065836 94.08513 111.597917 92.907397 111.597917 
C 91.729663 111.597917 90.600007 112.065836 89.767224 112.898619 
C 88.93444 113.731403 88.466522 114.861058 88.466522 116.038792 
C 88.466522 117.216526 88.93444 118.346181 89.767224 119.178965 
C 90.600007 120.011749 91.729663 120.479667 92.907397 120.479667 
z
" clip-path="url(#pc35bee8845)" style="fill: #1f6feb; stroke: #1f6feb; stroke-linejoin: miter"/>
   </g>
  </g>
  <g id="axes_2">
   <g id="text_6">
    <!-- $\vec v_1$ -->
    <g style="fill: #1f6feb" transform="translate(417.347527 206.260126) scale(0.13 -0.13)">
     <use xlink:href="#Cmmi10-6e" transform="translate(-13.21875 5.609375)"/>
     <use xlink:href="#Cmmi10-38" transform="translate(0 0.4375)"/>
     <use xlink:href="#Cmr10-64" transform="translate(52.392963 -14.562462) scale(0.7)"/>
    </g>
   </g>
   <g id="text_7">
    <!-- $\vec v_2$ -->
    <g style="fill: #1f6feb" transform="translate(379.563384 248.356979) scale(0.13 -0.13)">
     <use xlink:href="#Cmmi10-6e" transform="translate(-13.21875 5.609375)"/>
     <use xlink:href="#Cmmi10-38" transform="translate(0 0.4375)"/>
     <use xlink:href="#Cmr10-31" transform="translate(52.392963 -14.562462) scale(0.7)"/>
    </g>
   </g>
   <g id="text_8">
    <!-- $\Delta\vec v$ -->
    <g style="fill: #d1242f" transform="translate(383.100281 192.836459) scale(0.14 -0.14)">
     <defs>
      <path id="Cmr10-6" d="M 347 0 
Q 294 0 294 50 
Q 297 56 298 59 
Q 300 63 300 72 
L 2503 4513 
Q 2531 4581 2619 4581 
L 2706 4581 
Q 2794 4581 2822 4513 
L 5025 72 
Q 5028 66 5029 61 
Q 5031 56 5031 50 
Q 5031 0 4978 0 
L 347 0 
z
M 769 513 
L 4141 513 
L 2456 3909 
L 769 513 
z
" transform="scale(0.015625)"/>
     </defs>
     <use xlink:href="#Cmr10-6" transform="translate(0 0.4375)"/>
     <use xlink:href="#Cmmi10-6e" transform="translate(70.082031 5.609375)"/>
     <use xlink:href="#Cmmi10-38" transform="translate(83.300781 0.4375)"/>
    </g>
   </g>
   <g id="text_9">
    <!-- $\Delta\vec v=\vec v_2-\vec v_1$ 指向圓心 -->
    <g style="fill: #d1242f" transform="translate(400.749148 256.272683) scale(0.11 -0.11)">
     <defs>
      <path id="Cmsy10-11" d="M 653 1472 
Q 600 1472 565 1512 
Q 531 1553 531 1600 
Q 531 1647 565 1687 
Q 600 1728 653 1728 
L 4325 1728 
Q 4375 1728 4408 1687 
Q 4441 1647 4441 1600 
Q 4441 1553 4408 1512 
Q 4375 1472 4325 1472 
L 653 1472 
z
" transform="scale(0.015625)"/>
      <path id="NotoSansCJKjp-Regular-1" transform="scale(0.015625)"/>
      <path id="NotoSansCJKjp-Regular-49d7" d="M 5357 4998 
C 4870 4781 4058 4557 3296 4397 
L 3296 5350 
L 2822 5350 
L 2822 3533 
C 2822 2976 3021 2835 3763 2835 
C 3917 2835 5094 2835 5254 2835 
C 5888 2835 6048 3046 6118 3904 
C 5984 3930 5779 4006 5677 4077 
C 5638 3386 5581 3270 5229 3270 
C 4973 3270 3981 3270 3789 3270 
C 3373 3270 3296 3315 3296 3533 
L 3296 4000 
C 4128 4160 5075 4378 5722 4640 
L 5357 4998 
z
M 3277 858 
L 5363 858 
L 5363 186 
L 3277 186 
L 3277 858 
z
M 3277 1248 
L 3277 1888 
L 5363 1888 
L 5363 1248 
L 3277 1248 
z
M 2822 2298 
L 2822 -506 
L 3277 -506 
L 3277 -211 
L 5363 -211 
L 5363 -480 
L 5837 -480 
L 5837 2298 
L 2822 2298 
z
M 1178 5376 
L 1178 4083 
L 282 4083 
L 282 3629 
L 1178 3629 
L 1178 2253 
L 198 1984 
L 339 1517 
L 1178 1766 
L 1178 51 
C 1178 -38 1139 -64 1056 -70 
C 973 -70 710 -70 416 -64 
C 474 -192 544 -390 563 -506 
C 992 -512 1248 -493 1421 -422 
C 1587 -346 1645 -218 1645 58 
L 1645 1907 
L 2496 2170 
L 2438 2618 
L 1645 2387 
L 1645 3629 
L 2406 3629 
L 2406 4083 
L 1645 4083 
L 1645 5376 
L 1178 5376 
z
" transform="scale(0.015625)"/>
      <path id="NotoSansCJKjp-Regular-33a8" d="M 2330 4013 
L 4051 4013 
L 4051 3648 
L 2330 3648 
L 2330 4013 
z
M 1926 4282 
L 1926 3373 
L 4474 3373 
L 4474 4282 
L 1926 4282 
z
M 2061 2304 
L 4301 2304 
L 4301 2003 
L 2061 2003 
L 2061 2304 
z
M 2061 1741 
L 4301 1741 
L 4301 1427 
L 2061 1427 
L 2061 1741 
z
M 2061 2861 
L 4301 2861 
L 4301 2566 
L 2061 2566 
L 2061 2861 
z
M 3482 966 
C 3923 800 4390 570 4653 390 
L 5050 582 
C 4749 768 4237 992 3782 1158 
L 4730 1158 
L 4730 3130 
L 1651 3130 
L 1651 1158 
L 2509 1158 
C 2221 966 1760 800 1338 678 
C 1421 608 1568 467 1632 397 
C 2048 544 2560 800 2886 1043 
L 2541 1158 
L 3757 1158 
L 3482 966 
z
M 525 5082 
L 525 -531 
L 986 -531 
L 986 -230 
L 5402 -230 
L 5402 -531 
L 5875 -531 
L 5875 5082 
L 525 5082 
z
M 986 205 
L 986 4640 
L 5402 4640 
L 5402 205 
L 986 205 
z
" transform="scale(0.015625)"/>
      <path id="NotoSansCJKjp-Regular-444f" d="M 1952 3590 
L 1952 378 
C 1952 -250 2144 -429 2829 -429 
C 2970 -429 3923 -429 4077 -429 
C 4774 -429 4928 -70 4998 1139 
C 4858 1178 4659 1267 4544 1357 
C 4493 250 4435 19 4051 19 
C 3834 19 3034 19 2867 19 
C 2515 19 2445 70 2445 371 
L 2445 3590 
L 1952 3590 
z
M 2003 4979 
C 2771 4704 3706 4224 4198 3859 
L 4512 4282 
C 4006 4621 3072 5088 2304 5350 
L 2003 4979 
z
M 883 3072 
C 787 2240 582 1306 154 742 
L 589 486 
C 1043 1101 1248 2118 1344 2976 
L 883 3072 
z
M 4614 3072 
C 5152 2349 5632 1350 5779 678 
L 6253 902 
C 6099 1581 5619 2554 5043 3283 
L 4614 3072 
z
" transform="scale(0.015625)"/>
     </defs>
     <use xlink:href="#Cmr10-6" transform="translate(0 0.796875)"/>
     <use xlink:href="#Cmmi10-6e" transform="translate(70.082031 5.96875)"/>
     <use xlink:href="#Cmmi10-38" transform="translate(83.300781 0.796875)"/>
     <use xlink:href="#Cmr10-29" transform="translate(151.68951 0.796875)"/>
     <use xlink:href="#Cmmi10-6e" transform="translate(236.156364 5.96875)"/>
     <use xlink:href="#Cmmi10-38" transform="translate(249.375114 0.796875)"/>
     <use xlink:href="#Cmr10-31" transform="translate(301.768077 -14.203087) scale(0.7)"/>
     <use xlink:href="#Cmsy10-11" transform="translate(362.48855 0.796875)"/>
     <use xlink:href="#Cmmi10-6e" transform="translate(446.955404 5.96875)"/>
     <use xlink:href="#Cmmi10-38" transform="translate(460.174154 0.796875)"/>
     <use xlink:href="#Cmr10-64" transform="translate(512.567117 -14.203087) scale(0.7)"/>
     <use xlink:href="#NotoSansCJKjp-Regular-1" transform="translate(553.287532 0.796875)"/>
     <use xlink:href="#NotoSansCJKjp-Regular-49d7" transform="translate(575.687511 0.796875)"/>
     <use xlink:href="#NotoSansCJKjp-Regular-2eb8" transform="translate(675.687419 0.796875)"/>
     <use xlink:href="#NotoSansCJKjp-Regular-33a8" transform="translate(775.687328 0.796875)"/>
     <use xlink:href="#NotoSansCJKjp-Regular-444f" transform="translate(875.687236 0.796875)"/>
    </g>
    <!-- → 加速度指向圓心（向心） -->
    <g style="fill: #d1242f" transform="translate(387.196804 267.602683) scale(0.11 -0.11)">
     <defs>
      <path id="NotoSansCJKjp-Regular-31c" d="M 5190 2650 
L 256 2650 
L 256 2214 
L 5190 2214 
C 4864 1965 4442 1562 4154 1165 
L 4538 941 
C 4966 1504 5606 2067 6176 2432 
C 5606 2797 4966 3360 4538 3923 
L 4154 3699 
C 4442 3302 4864 2899 5190 2650 
z
" transform="scale(0.015625)"/>
      <path id="NotoSansCJKjp-Regular-2c76" d="M 3661 4582 
L 3661 -416 
L 4122 -416 
L 4122 58 
L 5363 58 
L 5363 -365 
L 5843 -365 
L 5843 4582 
L 3661 4582 
z
M 4122 518 
L 4122 4115 
L 5363 4115 
L 5363 518 
L 4122 518 
z
M 1248 5293 
L 1242 4160 
L 339 4160 
L 339 3693 
L 1229 3693 
C 1184 2080 986 659 179 -186 
C 301 -262 474 -410 550 -518 
C 1414 422 1638 1958 1696 3693 
L 2669 3693 
C 2618 1229 2560 352 2426 166 
C 2368 83 2304 58 2208 64 
C 2093 64 1818 64 1517 90 
C 1600 -45 1645 -250 1658 -390 
C 1946 -410 2240 -416 2419 -390 
C 2605 -365 2726 -307 2842 -141 
C 3040 134 3085 1069 3136 3917 
C 3136 3987 3136 4160 3136 4160 
L 1709 4160 
L 1722 5293 
L 1248 5293 
z
" transform="scale(0.015625)"/>
     </defs>
     <use xlink:href="#NotoSansCJKjp-Regular-31c"/>
     <use xlink:href="#NotoSansCJKjp-Regular-1" transform="translate(100 0)"/>
     <use xlink:href="#NotoSansCJKjp-Regular-2c76" transform="translate(122.40625 0)"/>
     <use xlink:href="#NotoSansCJKjp-Regular-9d6d" transform="translate(222.40625 0)"/>
     <use xlink:href="#NotoSansCJKjp-Regular-4231" transform="translate(322.40625 0)"/>
     <use xlink:href="#NotoSansCJKjp-Regular-49d7" transform="translate(422.40625 0)"/>
     <use xlink:href="#NotoSansCJKjp-Regular-2eb8" transform="translate(522.40625 0)"/>
     <use xlink:href="#NotoSansCJKjp-Regular-33a8" transform="translate(622.40625 0)"/>
     <use xlink:href="#NotoSansCJKjp-Regular-444f" transform="translate(722.40625 0)"/>
     <use xlink:href="#NotoSansCJKjp-Regular-e6ae" transform="translate(822.40625 0)"/>
     <use xlink:href="#NotoSansCJKjp-Regular-2eb8" transform="translate(922.40625 0)"/>
     <use xlink:href="#NotoSansCJKjp-Regular-444f" transform="translate(1022.40625 0)"/>
     <use xlink:href="#NotoSansCJKjp-Regular-e6af" transform="translate(1122.40625 0)"/>
    </g>
   </g>
   <g id="text_10">
    <!-- 速度的變化 $\Delta\vec v$ 指向圓心 -->
    <g style="fill: #222831" transform="translate(384.424148 68.567875) scale(0.13 -0.13)">
     <defs>
      <path id="NotoSansCJKjp-Regular-6c33" d="M 3533 2707 
C 3885 2240 4320 1600 4512 1210 
L 4922 1466 
C 4710 1843 4269 2464 3904 2918 
L 3533 2707 
z
M 1536 5389 
C 1485 5082 1376 4659 1274 4346 
L 557 4346 
L 557 -346 
L 998 -346 
L 998 160 
L 2784 160 
L 2784 4346 
L 1715 4346 
C 1824 4621 1946 4979 2054 5299 
L 1536 5389 
z
M 998 3917 
L 2342 3917 
L 2342 2566 
L 998 2566 
L 998 3917 
z
M 998 595 
L 998 2144 
L 2342 2144 
L 2342 595 
L 998 595 
z
M 3827 5402 
C 3622 4518 3277 3635 2835 3066 
C 2950 3002 3149 2867 3238 2790 
C 3456 3098 3661 3488 3840 3923 
L 5478 3923 
C 5402 1357 5299 371 5094 154 
C 5018 64 4947 45 4819 45 
C 4672 45 4288 51 3866 83 
C 3955 -38 4013 -243 4026 -378 
C 4384 -397 4762 -410 4979 -390 
C 5210 -365 5350 -314 5498 -122 
C 5754 192 5843 1184 5939 4122 
C 5946 4186 5946 4365 5946 4365 
L 4013 4365 
C 4115 4666 4211 4986 4288 5299 
L 3827 5402 
z
" transform="scale(0.015625)"/>
      <path id="NotoSansCJKjp-Regular-2d2b" d="M 5517 4160 
C 5050 3725 4314 3232 3597 2829 
L 3597 5222 
L 3110 5222 
L 3110 480 
C 3110 -230 3315 -416 3987 -416 
C 4134 -416 5146 -416 5306 -416 
C 5978 -416 6112 -51 6189 998 
C 6048 1024 5856 1114 5734 1203 
C 5690 269 5638 32 5280 32 
C 5069 32 4192 32 4026 32 
C 3667 32 3597 109 3597 467 
L 3597 2342 
C 4390 2758 5254 3251 5862 3750 
L 5517 4160 
z
M 2003 5280 
C 1581 4262 870 3290 134 2675 
C 224 2560 371 2310 422 2189 
C 710 2451 998 2758 1267 3104 
L 1267 -499 
L 1747 -499 
L 1747 3776 
C 2022 4205 2272 4659 2470 5120 
L 2003 5280 
z
" transform="scale(0.015625)"/>
     </defs>
     <use xlink:href="#NotoSansCJKjp-Regular-9d6d" transform="translate(0 0.59375)"/>
     <use xlink:href="#NotoSansCJKjp-Regular-4231" transform="translate(99.999908 0.59375)"/>
     <use xlink:href="#NotoSansCJKjp-Regular-6c33" transform="translate(199.999817 0.59375)"/>
     <use xlink:href="#NotoSansCJKjp-Regular-95ec" transform="translate(299.999725 0.59375)"/>
     <use xlink:href="#NotoSansCJKjp-Regular-2d2b" transform="translate(399.999634 0.59375)"/>
     <use xlink:href="#NotoSansCJKjp-Regular-1" transform="translate(499.999542 0.59375)"/>
     <use xlink:href="#Cmr10-6" transform="translate(522.399521 0.59375)"/>
     <use xlink:href="#Cmmi10-6e" transform="translate(592.481552 5.765625)"/>
     <use xlink:href="#Cmmi10-38" transform="translate(605.700302 0.59375)"/>
     <use xlink:href="#NotoSansCJKjp-Regular-1" transform="translate(654.088974 0.59375)"/>
     <use xlink:href="#NotoSansCJKjp-Regular-49d7" transform="translate(676.488953 0.59375)"/>
     <use xlink:href="#NotoSansCJKjp-Regular-2eb8" transform="translate(776.488861 0.59375)"/>
     <use xlink:href="#NotoSansCJKjp-Regular-33a8" transform="translate(876.48877 0.59375)"/>
     <use xlink:href="#NotoSansCJKjp-Regular-444f" transform="translate(976.488678 0.59375)"/>
    </g>
   </g>
   <g id="patch_7">
    <path d="M 450.489662 232.14731 
Q 411.765207 205.032155 375.238767 179.456067 
" clip-path="url(#pdf1c3b4e73)" style="fill: none; stroke: #1f6feb; stroke-width: 2.4; stroke-linecap: round"/>
    <path d="M 379.071787 186.534765 
L 375.238767 179.456067 
L 383.201537 180.63687 
z
" clip-path="url(#pdf1c3b4e73)" style="fill: #1f6feb; stroke: #1f6feb; stroke-width: 2.4; stroke-linecap: round"/>
   </g>
   <g id="patch_8">
    <path d="M 450.489662 232.14731 
Q 406.066792 248.315913 364.165382 263.566779 
" clip-path="url(#pdf1c3b4e73)" style="fill: none; stroke: #1f6feb; stroke-width: 2.4; stroke-linecap: round"/>
    <path d="M 372.162441 264.487127 
L 364.165382 263.566779 
L 369.699896 257.72134 
z
" clip-path="url(#pdf1c3b4e73)" style="fill: #1f6feb; stroke: #1f6feb; stroke-width: 2.4; stroke-linecap: round"/>
   </g>
   <g id="patch_9">
    <path d="M 373.040752 177.917 
Q 367.342337 221.200758 361.994161 261.824189 
" clip-path="url(#pdf1c3b4e73)" style="fill: none; stroke: #d1242f; stroke-width: 2.4; stroke-linecap: round"/>
    <path d="M 366.503151 255.155681 
L 361.994161 261.824189 
L 359.364748 254.215892 
z
" clip-path="url(#pdf1c3b4e73)" style="fill: #d1242f; stroke: #d1242f; stroke-width: 2.4; stroke-linecap: round"/>
   </g>
  </g>
  <g id="text_11">
   <!-- 等速圓周運動：速率不變、方向變 → 有向心加速度 -->
   <g style="fill: #222831" transform="translate(129.188636 19.52) scale(0.14 -0.14)">
    <defs>
     <path id="NotoSansCJKjp-Regular-74a1" d="M 3699 5408 
C 3514 4864 3168 4352 2771 4019 
L 2944 3910 
L 2944 3469 
L 941 3469 
L 941 3066 
L 2944 3066 
L 2944 2490 
L 307 2490 
L 307 2067 
L 4256 2067 
L 4256 1504 
L 512 1504 
L 512 1082 
L 4256 1082 
L 4256 64 
C 4256 -26 4224 -51 4109 -58 
C 3994 -64 3616 -64 3181 -51 
C 3251 -179 3334 -371 3360 -506 
C 3885 -506 4243 -499 4461 -435 
C 4678 -358 4742 -224 4742 58 
L 4742 1082 
L 5946 1082 
L 5946 1504 
L 4742 1504 
L 4742 2067 
L 6118 2067 
L 6118 2490 
L 3437 2490 
L 3437 3066 
L 5510 3066 
L 5510 3469 
L 3437 3469 
L 3437 3910 
L 3334 3910 
C 3475 4064 3610 4237 3731 4429 
L 4166 4429 
C 4358 4179 4544 3878 4621 3667 
L 5037 3846 
C 4966 4013 4832 4224 4685 4429 
L 6048 4429 
L 6048 4838 
L 3962 4838 
C 4038 4986 4102 5139 4160 5299 
L 3699 5408 
z
M 1427 806 
C 1843 531 2304 122 2515 -179 
L 2886 122 
C 2669 422 2195 819 1779 1082 
L 1427 806 
z
M 1190 5408 
C 973 4838 614 4282 211 3904 
C 326 3846 525 3712 614 3635 
C 826 3846 1030 4122 1222 4429 
L 1478 4429 
C 1600 4179 1715 3891 1754 3699 
L 2182 3859 
C 2144 4006 2054 4224 1958 4429 
L 3123 4429 
L 3123 4838 
L 1446 4838 
C 1517 4986 1587 5133 1645 5286 
L 1190 5408 
z
" transform="scale(0.015625)"/>
     <path id="NotoSansCJKjp-Regular-2f3d" d="M 947 5069 
L 947 2995 
C 947 2003 883 691 211 -243 
C 320 -301 512 -454 595 -550 
C 1318 442 1421 1933 1421 2995 
L 1421 4621 
L 5152 4621 
L 5152 96 
C 5152 -13 5107 -51 4992 -58 
C 4883 -64 4486 -70 4070 -51 
C 4141 -173 4211 -384 4230 -506 
C 4806 -506 5152 -499 5350 -422 
C 5555 -346 5632 -205 5632 96 
L 5632 5069 
L 947 5069 
z
M 2989 4493 
L 2989 3936 
L 1843 3936 
L 1843 3552 
L 2989 3552 
L 2989 2925 
L 1683 2925 
L 1683 2528 
L 4819 2528 
L 4819 2925 
L 3450 2925 
L 3450 3552 
L 4659 3552 
L 4659 3936 
L 3450 3936 
L 3450 4493 
L 2989 4493 
z
M 1997 1990 
L 1997 -51 
L 2438 -51 
L 2438 307 
L 4486 307 
L 4486 1990 
L 1997 1990 
z
M 2438 1600 
L 4038 1600 
L 4038 691 
L 2438 691 
L 2438 1600 
z
" transform="scale(0.015625)"/>
     <path id="NotoSansCJKjp-Regular-9dde" d="M 358 4947 
C 749 4640 1184 4186 1370 3866 
L 1760 4166 
C 1568 4480 1114 4922 723 5216 
L 358 4947 
z
M 1984 5152 
L 1984 4320 
L 2419 4320 
L 2419 4787 
L 5504 4787 
L 5504 4320 
L 5958 4320 
L 5958 5152 
L 1984 5152 
z
M 1574 2848 
L 294 2848 
L 294 2400 
L 1107 2400 
L 1107 742 
C 819 474 499 205 230 13 
L 480 -461 
C 794 -179 1088 96 1370 371 
C 1773 -134 2355 -358 3200 -390 
C 3917 -416 5286 -403 6003 -378 
C 6022 -230 6099 -13 6157 96 
C 5382 45 3904 26 3194 58 
C 2438 90 1875 307 1574 781 
L 1574 2848 
z
M 2746 2368 
L 3718 2368 
L 3718 1933 
L 2746 1933 
L 2746 2368 
z
M 4186 2368 
L 5178 2368 
L 5178 1933 
L 4186 1933 
L 4186 2368 
z
M 2746 3104 
L 3718 3104 
L 3718 2682 
L 2746 2682 
L 2746 3104 
z
M 4186 3104 
L 5178 3104 
L 5178 2682 
L 4186 2682 
L 4186 3104 
z
M 1882 1216 
L 1882 845 
L 3718 845 
L 3718 237 
L 4186 237 
L 4186 845 
L 6067 845 
L 6067 1216 
L 4186 1216 
L 4186 1606 
L 5619 1606 
L 5619 3430 
L 4186 3430 
L 4186 3821 
L 5798 3821 
L 5798 4179 
L 4186 4179 
L 4186 4627 
L 3718 4627 
L 3718 4179 
L 2125 4179 
L 2125 3821 
L 3718 3821 
L 3718 3430 
L 2323 3430 
L 2323 1606 
L 3718 1606 
L 3718 1216 
L 1882 1216 
z
" transform="scale(0.015625)"/>
     <path id="NotoSansCJKjp-Regular-2cc2" d="M 4192 5293 
C 4192 4806 4192 4333 4179 3878 
L 3418 3878 
L 3418 3437 
L 4166 3437 
C 4109 2227 3942 1184 3386 422 
L 3386 448 
L 2099 314 
L 2099 826 
L 3360 826 
L 3360 1197 
L 2099 1197 
L 2099 1587 
L 3347 1587 
L 3347 3501 
L 2099 3501 
L 2099 3904 
L 3469 3904 
L 3469 4282 
L 2099 4282 
L 2099 4755 
C 2566 4806 3008 4864 3354 4941 
L 3117 5312 
C 2451 5158 1286 5043 339 4998 
C 384 4896 435 4742 454 4640 
C 832 4653 1248 4678 1658 4710 
L 1658 4282 
L 269 4282 
L 269 3904 
L 1658 3904 
L 1658 3501 
L 461 3501 
L 461 1587 
L 1658 1587 
L 1658 1197 
L 442 1197 
L 442 826 
L 1658 826 
L 1658 269 
L 269 141 
L 333 -282 
C 1056 -205 2054 -90 3034 26 
C 2950 -51 2854 -128 2758 -198 
C 2874 -275 3040 -435 3110 -544 
C 4256 307 4544 1722 4627 3437 
L 5536 3437 
C 5472 1094 5395 243 5242 51 
C 5184 -32 5120 -45 5018 -45 
C 4896 -45 4608 -45 4294 -19 
C 4371 -147 4422 -346 4435 -480 
C 4736 -493 5037 -499 5222 -474 
C 5414 -454 5542 -403 5651 -230 
C 5869 38 5933 934 6003 3642 
C 6003 3699 6003 3878 6003 3878 
L 4640 3878 
C 4653 4333 4659 4806 4659 5293 
L 4192 5293 
z
M 858 2387 
L 1658 2387 
L 1658 1920 
L 858 1920 
L 858 2387 
z
M 2099 2387 
L 2938 2387 
L 2938 1920 
L 2099 1920 
L 2099 2387 
z
M 858 3168 
L 1658 3168 
L 1658 2707 
L 858 2707 
L 858 3168 
z
M 2099 3168 
L 2938 3168 
L 2938 2707 
L 2099 2707 
L 2099 3168 
z
" transform="scale(0.015625)"/>
     <path id="NotoSansCJKjp-Regular-e6c0" d="M 3200 3482 
C 3456 3482 3686 3667 3686 3962 
C 3686 4256 3456 4442 3200 4442 
C 2944 4442 2714 4256 2714 3962 
C 2714 3667 2944 3482 3200 3482 
z
M 3200 346 
C 3456 346 3686 538 3686 826 
C 3686 1120 3456 1312 3200 1312 
C 2944 1312 2714 1120 2714 826 
C 2714 538 2944 346 3200 346 
z
" transform="scale(0.015625)"/>
     <path id="NotoSansCJKjp-Regular-575" d="M 1747 -358 
L 2182 13 
C 1786 480 1210 1062 749 1434 
L 333 1069 
C 787 698 1338 147 1747 -358 
z
" transform="scale(0.015625)"/>
     <path id="NotoSansCJKjp-Regular-50d7" d="M 2502 5376 
C 2426 5101 2336 4819 2221 4544 
L 403 4544 
L 403 4096 
L 2022 4096 
C 1613 3251 1024 2470 256 1946 
C 346 1856 499 1683 563 1574 
C 966 1862 1325 2208 1632 2598 
L 1632 -506 
L 2106 -506 
L 2106 762 
L 4787 762 
L 4787 96 
C 4787 0 4755 -38 4646 -38 
C 4525 -45 4134 -51 3712 -32 
C 3776 -166 3846 -365 3872 -493 
C 4422 -493 4774 -493 4986 -422 
C 5197 -339 5261 -192 5261 90 
L 5261 3354 
L 2150 3354 
C 2298 3597 2426 3840 2541 4096 
L 6010 4096 
L 6010 4544 
L 2733 4544 
C 2829 4781 2912 5024 2989 5261 
L 2502 5376 
z
M 2106 1850 
L 4787 1850 
L 4787 1178 
L 2106 1178 
L 2106 1850 
z
M 2106 2259 
L 2106 2918 
L 4787 2918 
L 4787 2259 
L 2106 2259 
z
" transform="scale(0.015625)"/>
    </defs>
    <use xlink:href="#NotoSansCJKjp-Regular-74a1"/>
    <use xlink:href="#NotoSansCJKjp-Regular-9d6d" transform="translate(100 0)"/>
    <use xlink:href="#NotoSansCJKjp-Regular-33a8" transform="translate(200 0)"/>
    <use xlink:href="#NotoSansCJKjp-Regular-2f3d" transform="translate(300 0)"/>
    <use xlink:href="#NotoSansCJKjp-Regular-9dde" transform="translate(400 0)"/>
    <use xlink:href="#NotoSansCJKjp-Regular-2cc2" transform="translate(500 0)"/>
    <use xlink:href="#NotoSansCJKjp-Regular-e6c0" transform="translate(600 0)"/>
    <use xlink:href="#NotoSansCJKjp-Regular-9d6d" transform="translate(700 0)"/>
    <use xlink:href="#NotoSansCJKjp-Regular-66cd" transform="translate(800 0)"/>
    <use xlink:href="#NotoSansCJKjp-Regular-2518" transform="translate(900 0)"/>
    <use xlink:href="#NotoSansCJKjp-Regular-95ec" transform="translate(1000 0)"/>
    <use xlink:href="#NotoSansCJKjp-Regular-575" transform="translate(1100 0)"/>
    <use xlink:href="#NotoSansCJKjp-Regular-4ea0" transform="translate(1200 0)"/>
    <use xlink:href="#NotoSansCJKjp-Regular-2eb8" transform="translate(1300 0)"/>
    <use xlink:href="#NotoSansCJKjp-Regular-95ec" transform="translate(1400 0)"/>
    <use xlink:href="#NotoSansCJKjp-Regular-1" transform="translate(1500 0)"/>
    <use xlink:href="#NotoSansCJKjp-Regular-31c" transform="translate(1522.40625 0)"/>
    <use xlink:href="#NotoSansCJKjp-Regular-1" transform="translate(1622.40625 0)"/>
    <use xlink:href="#NotoSansCJKjp-Regular-50d7" transform="translate(1644.8125 0)"/>
    <use xlink:href="#NotoSansCJKjp-Regular-2eb8" transform="translate(1744.8125 0)"/>
    <use xlink:href="#NotoSansCJKjp-Regular-444f" transform="translate(1844.8125 0)"/>
    <use xlink:href="#NotoSansCJKjp-Regular-2c76" transform="translate(1944.8125 0)"/>
    <use xlink:href="#NotoSansCJKjp-Regular-9d6d" transform="translate(2044.8125 0)"/>
    <use xlink:href="#NotoSansCJKjp-Regular-4231" transform="translate(2144.8125 0)"/>
   </g>
  </g>
 </g>
 <defs>
  <clipPath id="pc35bee8845">
   <rect x="7.2" y="74.567875" width="222.04375" height="244.248125"/>
  </clipPath>
  <clipPath id="pdf1c3b4e73">
   <rect x="332.305085" y="74.567875" width="244.248125" height="244.248125"/>
  </clipPath>
 </defs>
</svg>
