<?xml version="1.0" encoding="utf-8" standalone="no"?>
<!DOCTYPE svg PUBLIC "-//W3C//DTD SVG 1.1//EN"
  "http://www.w3.org/Graphics/SVG/1.1/DTD/svg11.dtd">
<svg xmlns:xlink="http://www.w3.org/1999/xlink" width="371.52pt" height="354.618497pt" viewBox="0 0 371.52 354.618497" xmlns="http://www.w3.org/2000/svg" version="1.1">
 <metadata>
  <rdf:RDF xmlns:dc="http://purl.org/dc/elements/1.1/" xmlns:cc="http://creativecommons.org/ns#" xmlns:rdf="http://www.w3.org/1999/02/22-rdf-syntax-ns#">
   <cc:Work>
    <dc:type rdf:resource="http://purl.org/dc/dcmitype/StillImage"/>
    <dc:date>2026-06-17T23:23:29.594637</dc:date>
    <dc:format>image/svg+xml</dc:format>
    <dc:creator>
     <cc:Agent>
      <dc:title>Matplotlib v3.11.0, https://matplotlib.org/</dc:title>
     </cc:Agent>
    </dc:creator>
   </cc:Work>
  </rdf:RDF>
 </metadata>
 <defs>
  <style type="text/css">*{stroke-linejoin: round; stroke-linecap: butt}</style>
 </defs>
 <g id="figure_1">
  <g id="patch_1">
   <path d="M 0 354.618497 
L 371.52 354.618497 
L 371.52 0 
L 0 0 
z
" style="fill: #ffffff"/>
  </g>
  <g id="axes_1">
   <g id="patch_2">
    <path d="M 93.774545 57.985455 
L 245.28 57.985455 
L 245.28 46.081455 
L 93.774545 46.081455 
z
" clip-path="url(#p57091fc460)" style="fill: url(#h123f881f7a); stroke: #222831; stroke-width: 1.2; stroke-linejoin: miter"/>
   </g>
   <g id="patch_3">
    <path d="M 169.527273 101.272727 
C 173.057344 101.272727 176.574198 100.840912 179.999412 99.98691 
C 183.424625 99.132909 186.732548 97.863116 189.849416 96.205848 
" clip-path="url(#p57091fc460)" style="fill: none; stroke: #222831; stroke-width: 1.3; stroke-linejoin: miter"/>
   </g>
   <g id="line2d_1">
    <path d="M 169.527273 57.985455 
L 260.976919 229.977224 
" clip-path="url(#p57091fc460)" style="fill: none; stroke: #222831; stroke-width: 1.8; stroke-linecap: square"/>
   </g>
   <g id="line2d_2">
    <path d="M 169.527273 57.985455 
L 169.527273 263.6 
" clip-path="url(#p57091fc460)" style="fill: none; stroke-dasharray: 3.7,1.6; stroke-dashoffset: 0; stroke: #9aa0a6"/>
   </g>
   <g id="text_1">
    <!-- $\theta$ -->
    <g style="fill: #222831" transform="translate(185.76 112.094545) scale(0.14 -0.14)">
     <defs>
      <path id="Cmmi10-12" d="M 1031 -72 
Q 741 -72 566 140 
Q 391 353 323 653 
Q 256 953 256 1247 
L 256 1253 
Q 256 1572 317 1915 
Q 378 2259 493 2601 
Q 609 2944 744 3213 
Q 838 3400 986 3631 
Q 1134 3863 1317 4064 
Q 1500 4266 1711 4389 
Q 1922 4513 2138 4513 
L 2144 4513 
Q 2375 4513 2529 4384 
Q 2684 4256 2770 4056 
Q 2856 3856 2890 3628 
Q 2925 3400 2925 3194 
Q 2925 2709 2794 2204 
Q 2663 1700 2431 1228 
Q 2344 1050 2189 809 
Q 2034 569 1861 378 
Q 1688 188 1472 58 
Q 1256 -72 1038 -72 
L 1031 -72 
z
M 1044 97 
Q 1256 97 1451 323 
Q 1647 550 1794 873 
Q 1941 1197 2052 1536 
Q 2163 1875 2216 2113 
L 909 2113 
Q 809 1709 753 1417 
Q 697 1125 697 844 
Q 697 97 1044 97 
z
M 959 2338 
L 2272 2338 
Q 2341 2619 2381 2808 
Q 2422 2997 2450 3206 
Q 2478 3416 2478 3597 
Q 2478 4347 2138 4347 
Q 1731 4347 1436 3692 
Q 1141 3038 959 2338 
z
" transform="scale(0.015625)"/>
     </defs>
     <use xlink:href="#Cmmi10-12" transform="translate(0 0.484375)"/>
    </g>
   </g>
   <g id="text_2">
    <!-- $mg$ -->
    <g style="fill: #d1242f" transform="translate(270.716555 344.688497) scale(0.13 -0.13)">
     <defs>
      <path id="Cmmi10-45" d="M 494 109 
Q 494 147 500 166 
L 978 2075 
Q 1025 2253 1025 2388 
Q 1025 2663 838 2663 
Q 638 2663 541 2423 
Q 444 2184 353 1819 
Q 353 1800 334 1789 
Q 316 1778 300 1778 
L 225 1778 
Q 203 1778 187 1801 
Q 172 1825 172 1844 
Q 241 2122 305 2315 
Q 369 2509 505 2668 
Q 641 2828 844 2828 
Q 1084 2828 1268 2676 
Q 1453 2525 1453 2291 
Q 1644 2541 1900 2684 
Q 2156 2828 2444 2828 
Q 2747 2828 2967 2673 
Q 3188 2519 3188 2234 
Q 3384 2513 3648 2670 
Q 3913 2828 4225 2828 
Q 4556 2828 4757 2648 
Q 4959 2469 4959 2138 
Q 4959 1875 4842 1503 
Q 4725 1131 4550 672 
Q 4459 450 4459 288 
Q 4459 97 4609 97 
Q 4859 97 5025 365 
Q 5191 634 5259 941 
Q 5278 978 5313 978 
L 5388 978 
Q 5413 978 5430 961 
Q 5447 944 5447 922 
Q 5447 916 5441 903 
Q 5353 541 5136 234 
Q 4919 -72 4594 -72 
Q 4369 -72 4209 83 
Q 4050 238 4050 459 
Q 4050 572 4103 709 
Q 4284 1191 4404 1569 
Q 4525 1947 4525 2234 
Q 4525 2413 4453 2538 
Q 4381 2663 4213 2663 
Q 3863 2663 3606 2448 
Q 3350 2234 3163 1881 
Q 3150 1819 3144 1784 
L 2731 141 
Q 2709 53 2632 -9 
Q 2556 -72 2463 -72 
Q 2388 -72 2330 -22 
Q 2272 28 2272 109 
Q 2272 147 2278 166 
L 2688 1797 
Q 2753 2059 2753 2234 
Q 2753 2413 2679 2538 
Q 2606 2663 2431 2663 
Q 2197 2663 2000 2559 
Q 1803 2456 1656 2286 
Q 1509 2116 1388 1881 
L 953 141 
Q 931 53 854 -9 
Q 778 -72 684 -72 
Q 606 -72 550 -22 
Q 494 28 494 109 
z
" transform="scale(0.015625)"/>
      <path id="Cmmi10-2f" d="M 91 -916 
Q 91 -759 198 -642 
Q 306 -525 459 -525 
Q 563 -525 633 -589 
Q 703 -653 703 -756 
Q 703 -872 637 -964 
Q 572 -1056 469 -1094 
Q 641 -1147 1006 -1147 
Q 1300 -1147 1544 -920 
Q 1788 -694 1863 -397 
L 2047 353 
Q 1700 0 1325 0 
Q 1050 0 854 140 
Q 659 281 556 515 
Q 453 750 453 1013 
Q 453 1306 573 1628 
Q 694 1950 911 2225 
Q 1128 2500 1409 2664 
Q 1691 2828 2003 2828 
Q 2191 2828 2341 2725 
Q 2491 2622 2578 2450 
Q 2641 2700 2853 2700 
Q 2934 2700 2990 2651 
Q 3047 2603 3047 2522 
Q 3047 2503 3045 2493 
Q 3044 2484 3041 2472 
L 2309 -434 
Q 2259 -634 2125 -800 
Q 1991 -966 1809 -1077 
Q 1628 -1188 1412 -1250 
Q 1197 -1313 997 -1313 
Q 631 -1313 361 -1242 
Q 91 -1172 91 -916 
z
M 1338 166 
Q 1747 166 2144 728 
L 2497 2125 
Q 2453 2347 2322 2505 
Q 2191 2663 1991 2663 
Q 1778 2663 1589 2489 
Q 1400 2316 1275 2075 
Q 1156 1844 1045 1411 
Q 934 978 934 728 
Q 934 509 1034 337 
Q 1134 166 1338 166 
z
" transform="scale(0.015625)"/>
     </defs>
     <use xlink:href="#Cmmi10-45" transform="translate(0 0.8125)"/>
     <use xlink:href="#Cmmi10-2f" transform="translate(87.792969 0.8125)"/>
    </g>
   </g>
   <g id="text_3">
    <!-- $mg\cos\theta$ -->
    <g style="fill: #6b7280" transform="translate(322.068115 324.083371) scale(0.11 -0.11)">
     <defs>
      <path id="Cmr10-7b" d="M 1594 -72 
Q 1206 -72 890 129 
Q 575 331 394 667 
Q 213 1003 213 1381 
Q 213 1759 392 2106 
Q 572 2453 889 2661 
Q 1206 2869 1594 2869 
Q 1969 2869 2276 2722 
Q 2584 2575 2584 2241 
Q 2584 2116 2495 2023 
Q 2406 1931 2278 1931 
Q 2150 1931 2061 2023 
Q 1972 2116 1972 2241 
Q 1972 2353 2044 2436 
Q 2116 2519 2222 2541 
Q 2000 2681 1600 2681 
Q 1294 2681 1106 2478 
Q 919 2275 844 1975 
Q 769 1675 769 1381 
Q 769 1072 861 783 
Q 953 494 1158 305 
Q 1363 116 1672 116 
Q 1975 116 2187 302 
Q 2400 488 2478 788 
Q 2478 825 2528 825 
L 2606 825 
Q 2625 825 2640 808 
Q 2656 791 2656 769 
L 2656 750 
Q 2559 372 2271 150 
Q 1984 -72 1594 -72 
z
" transform="scale(0.015625)"/>
      <path id="Cmr10-42" d="M 1600 -72 
Q 1216 -72 887 123 
Q 559 319 368 647 
Q 178 975 178 1363 
Q 178 1656 283 1928 
Q 388 2200 583 2414 
Q 778 2628 1037 2748 
Q 1297 2869 1600 2869 
Q 1994 2869 2317 2661 
Q 2641 2453 2828 2104 
Q 3016 1756 3016 1363 
Q 3016 978 2825 648 
Q 2634 319 2307 123 
Q 1981 -72 1600 -72 
z
M 1600 116 
Q 2113 116 2284 487 
Q 2456 859 2456 1434 
Q 2456 1756 2422 1967 
Q 2388 2178 2272 2350 
Q 2200 2456 2089 2536 
Q 1978 2616 1854 2658 
Q 1731 2700 1600 2700 
Q 1400 2700 1220 2609 
Q 1041 2519 922 2350 
Q 803 2169 770 1951 
Q 738 1734 738 1434 
Q 738 1075 800 789 
Q 863 503 1052 309 
Q 1241 116 1600 116 
z
" transform="scale(0.015625)"/>
      <path id="Cmr10-52" d="M 213 -19 
L 213 1025 
Q 213 1075 269 1075 
L 347 1075 
Q 384 1075 397 1025 
Q 575 97 1259 97 
Q 1563 97 1767 234 
Q 1972 372 1972 659 
Q 1972 866 1812 1011 
Q 1653 1156 1434 1209 
L 1006 1294 
Q 791 1341 614 1437 
Q 438 1534 325 1695 
Q 213 1856 213 2069 
Q 213 2350 361 2529 
Q 509 2709 746 2789 
Q 984 2869 1259 2869 
Q 1588 2869 1831 2694 
L 2016 2853 
Q 2016 2869 2047 2869 
L 2094 2869 
Q 2113 2869 2128 2851 
Q 2144 2834 2144 2816 
L 2144 1978 
Q 2144 1919 2094 1919 
L 2016 1919 
Q 1959 1919 1959 1978 
Q 1959 2313 1773 2516 
Q 1588 2719 1253 2719 
Q 966 2719 755 2612 
Q 544 2506 544 2247 
Q 544 2069 695 1955 
Q 847 1841 1050 1791 
L 1484 1709 
Q 1703 1659 1892 1540 
Q 2081 1422 2192 1240 
Q 2303 1059 2303 831 
Q 2303 600 2223 429 
Q 2144 259 2001 146 
Q 1859 34 1665 -19 
Q 1472 -72 1259 -72 
Q 859 -72 575 197 
L 341 -56 
Q 341 -72 306 -72 
L 269 -72 
Q 213 -72 213 -19 
z
" transform="scale(0.015625)"/>
     </defs>
     <use xlink:href="#Cmmi10-45" transform="translate(0 0.484375)"/>
     <use xlink:href="#Cmmi10-2f" transform="translate(87.792969 0.484375)"/>
     <use xlink:href="#Cmr10-7b" transform="translate(135.498047 0.484375)"/>
     <use xlink:href="#Cmr10-42" transform="translate(179.882812 0.484375)"/>
     <use xlink:href="#Cmr10-52" transform="translate(229.882812 0.484375)"/>
     <use xlink:href="#Cmmi10-12" transform="translate(285.954157 0.484375)"/>
    </g>
   </g>
   <g id="text_4">
    <!-- $mg\sin\theta$ -->
    <g style="fill: #1f6feb" transform="translate(180.565722 238.67835) scale(0.12 -0.12)">
     <defs>
      <path id="Cmr10-24" d="M 197 0 
L 197 225 
Q 416 225 556 259 
Q 697 294 697 428 
L 697 2175 
Q 697 2422 601 2478 
Q 506 2534 225 2534 
L 225 2759 
L 1147 2828 
L 1147 428 
Q 1147 294 1269 259 
Q 1391 225 1594 225 
L 1594 0 
L 197 0 
z
M 469 3928 
Q 469 4069 575 4175 
Q 681 4281 819 4281 
Q 909 4281 993 4234 
Q 1078 4188 1125 4103 
Q 1172 4019 1172 3928 
Q 1172 3791 1065 3684 
Q 959 3578 819 3578 
Q 681 3578 575 3684 
Q 469 3791 469 3928 
z
" transform="scale(0.015625)"/>
      <path id="Cmr10-74" d="M 191 0 
L 191 225 
Q 409 225 550 259 
Q 691 294 691 428 
L 691 2175 
Q 691 2347 639 2423 
Q 588 2500 491 2517 
Q 394 2534 191 2534 
L 191 2759 
L 1119 2828 
L 1119 2203 
Q 1247 2478 1498 2653 
Q 1750 2828 2047 2828 
Q 2491 2828 2714 2615 
Q 2938 2403 2938 1966 
L 2938 428 
Q 2938 294 3078 259 
Q 3219 225 3438 225 
L 3438 0 
L 1972 0 
L 1972 225 
Q 2191 225 2331 259 
Q 2472 294 2472 428 
L 2472 1947 
Q 2472 2259 2381 2461 
Q 2291 2663 2009 2663 
Q 1638 2663 1398 2366 
Q 1159 2069 1159 1691 
L 1159 428 
Q 1159 294 1300 259 
Q 1441 225 1656 225 
L 1656 0 
L 191 0 
z
" transform="scale(0.015625)"/>
     </defs>
     <use xlink:href="#Cmmi10-45" transform="translate(0 0.484375)"/>
     <use xlink:href="#Cmmi10-2f" transform="translate(87.792969 0.484375)"/>
     <use xlink:href="#Cmr10-52" transform="translate(135.498047 0.484375)"/>
     <use xlink:href="#Cmr10-24" transform="translate(174.902344 0.484375)"/>
     <use xlink:href="#Cmr10-74" transform="translate(202.587891 0.484375)"/>
     <use xlink:href="#Cmmi10-12" transform="translate(274.772516 0.484375)"/>
    </g>
   </g>
   <g id="text_5">
    <!-- $T$ -->
    <g style="fill: #1a7f37" transform="translate(201.39445 150.830983) scale(0.13 -0.13)">
     <defs>
      <path id="Cmmi10-78" d="M 294 84 
Q 297 100 308 140 
Q 319 181 336 203 
Q 353 225 384 225 
Q 934 225 1113 256 
Q 1284 300 1319 441 
L 2194 3956 
Q 2222 4034 2222 4097 
Q 2222 4147 1997 4147 
L 1625 4147 
Q 1197 4147 964 4015 
Q 731 3884 622 3668 
Q 513 3453 341 2963 
Q 319 2906 275 2906 
L 219 2906 
Q 153 2906 153 2988 
L 609 4313 
Q 622 4372 672 4372 
L 4453 4372 
Q 4519 4372 4519 4288 
L 4306 2963 
Q 4306 2944 4284 2925 
Q 4263 2906 4244 2906 
L 4184 2906 
Q 4122 2906 4122 2988 
Q 4191 3441 4191 3628 
Q 4191 3853 4097 3968 
Q 4003 4084 3853 4115 
Q 3703 4147 3463 4147 
L 3084 4147 
Q 2913 4147 2853 4115 
Q 2794 4084 2753 3928 
L 1875 416 
Q 1872 403 1870 390 
Q 1869 378 1863 359 
Q 1863 278 1959 256 
Q 2125 225 2669 225 
Q 2731 225 2731 141 
Q 2709 50 2696 25 
Q 2684 0 2625 0 
L 359 0 
Q 294 0 294 84 
z
" transform="scale(0.015625)"/>
     </defs>
     <use xlink:href="#Cmmi10-78" transform="translate(0 0.6875)"/>
    </g>
   </g>
   <g id="text_6">
    <!-- 切線方向回復力 $\approx mg\sin\theta$；小角度時 $\sin\theta\approx\theta$ -->
    <g style="fill: #222831" transform="translate(57.602273 281.325455) scale(0.11 -0.11)">
     <defs>
      <path id="NotoSansCJKjp-Regular-2b89" d="M 2566 4813 
L 2566 4352 
L 3693 4352 
C 3661 2490 3558 730 1971 -160 
C 2099 -243 2253 -410 2323 -538 
C 3987 448 4128 2349 4173 4352 
L 5523 4352 
C 5446 1440 5357 371 5165 134 
C 5094 45 5030 19 4909 19 
C 4762 19 4429 19 4051 51 
C 4141 -83 4198 -301 4205 -442 
C 4544 -461 4902 -467 5114 -442 
C 5325 -416 5472 -358 5613 -154 
C 5862 166 5933 1261 6016 4544 
C 6016 4614 6016 4813 6016 4813 
L 2566 4813 
z
M 960 5197 
L 960 3482 
L 186 3315 
L 269 2880 
L 960 3027 
L 960 1440 
C 960 864 1088 710 1568 710 
C 1664 710 2144 710 2246 710 
C 2688 710 2797 986 2848 1875 
C 2720 1907 2528 1990 2419 2080 
C 2400 1331 2374 1165 2208 1165 
C 2106 1165 1715 1165 1638 1165 
C 1466 1165 1434 1203 1434 1434 
L 1434 3130 
L 2970 3456 
L 2886 3885 
L 1434 3578 
L 1434 5197 
L 960 5197 
z
" transform="scale(0.015625)"/>
      <path id="NotoSansCJKjp-Regular-7a17" d="M 3258 3405 
L 5414 3405 
L 5414 2848 
L 3258 2848 
L 3258 3405 
z
M 3258 4326 
L 5414 4326 
L 5414 3770 
L 3258 3770 
L 3258 4326 
z
M 1894 1632 
C 2048 1267 2182 781 2208 474 
L 2586 589 
C 2541 902 2406 1370 2246 1734 
L 1894 1632 
z
M 570 1715 
C 493 1158 378 582 166 192 
C 269 154 454 70 538 13 
C 736 422 890 1043 973 1651 
L 570 1715 
z
M 2816 4717 
L 2816 2451 
L 4109 2451 
L 4109 6 
C 4109 -64 4090 -83 4006 -90 
C 3930 -90 3674 -90 3386 -83 
C 3443 -211 3501 -384 3520 -506 
C 3917 -506 4173 -499 4339 -435 
C 4506 -358 4544 -237 4544 6 
L 4544 1325 
C 4819 717 5254 109 5952 -250 
C 6016 -128 6157 51 6246 141 
C 5754 358 5382 698 5114 1088 
C 5427 1306 5798 1613 6106 1894 
L 5715 2176 
C 5523 1946 5203 1645 4922 1408 
C 4742 1734 4627 2074 4544 2400 
L 4544 2451 
L 5875 2451 
L 5875 4717 
L 4365 4717 
C 4467 4890 4570 5088 4659 5280 
L 4128 5382 
C 4077 5190 3968 4934 3872 4717 
L 2816 4717 
z
M 2573 1901 
L 2573 1491 
L 3443 1491 
C 3219 826 2803 352 2291 77 
C 2381 13 2534 -154 2592 -250 
C 3226 115 3738 787 3962 1805 
L 3699 1914 
L 3622 1901 
L 2573 1901 
z
M 179 2547 
L 237 2118 
L 1248 2182 
L 1248 -512 
L 1670 -512 
L 1670 2208 
L 2176 2240 
C 2234 2086 2285 1946 2310 1824 
L 2694 2003 
C 2598 2349 2342 2906 2074 3322 
L 1722 3181 
C 1824 3014 1920 2829 2010 2637 
L 1088 2592 
C 1517 3136 2010 3866 2374 4454 
L 1971 4646 
C 1792 4301 1549 3878 1286 3475 
C 1190 3610 1075 3750 941 3898 
C 1178 4256 1459 4781 1677 5216 
L 1254 5376 
C 1120 5018 890 4531 685 4166 
L 486 4346 
L 237 4038 
C 525 3763 845 3398 1037 3104 
C 896 2912 762 2726 634 2566 
L 179 2547 
z
" transform="scale(0.015625)"/>
      <path id="NotoSansCJKjp-Regular-4ea0" d="M 2931 5395 
L 2931 4269 
L 339 4269 
L 339 3808 
L 2310 3808 
C 2240 2330 2054 666 269 -147 
C 397 -243 544 -416 621 -538 
C 1926 90 2438 1152 2669 2298 
L 4787 2298 
C 4685 819 4557 186 4371 19 
C 4294 -51 4211 -58 4064 -58 
C 3898 -58 3443 -51 2982 -13 
C 3078 -147 3142 -346 3155 -480 
C 3584 -506 4013 -512 4230 -499 
C 4480 -486 4634 -435 4781 -282 
C 5030 -26 5165 685 5293 2522 
C 5306 2598 5312 2758 5312 2758 
L 2746 2758 
C 2790 3110 2822 3462 2842 3808 
L 6067 3808 
L 6067 4269 
L 3424 4269 
L 3424 5395 
L 2931 5395 
z
" transform="scale(0.015625)"/>
      <path id="NotoSansCJKjp-Regular-2eb8" d="M 2803 5389 
C 2714 5062 2554 4614 2394 4269 
L 634 4269 
L 634 -512 
L 1107 -512 
L 1107 3802 
L 5325 3802 
L 5325 128 
C 5325 13 5286 -26 5158 -26 
C 5024 -32 4582 -38 4122 -13 
C 4192 -154 4262 -378 4288 -512 
C 4877 -512 5274 -506 5504 -429 
C 5728 -346 5805 -192 5805 128 
L 5805 4269 
L 2925 4269 
C 3085 4576 3258 4947 3398 5293 
L 2803 5389 
z
M 2387 2522 
L 4006 2522 
L 4006 1267 
L 2387 1267 
L 2387 2522 
z
M 1946 2950 
L 1946 371 
L 2387 371 
L 2387 832 
L 4454 832 
L 4454 2950 
L 1946 2950 
z
" transform="scale(0.015625)"/>
      <path id="NotoSansCJKjp-Regular-3351" d="M 2394 3200 
L 3955 3200 
L 3955 1734 
L 2394 1734 
L 2394 3200 
z
M 1939 3635 
L 1939 1306 
L 4429 1306 
L 4429 3635 
L 1939 3635 
z
M 525 5114 
L 525 -506 
L 1018 -506 
L 1018 -160 
L 5370 -160 
L 5370 -506 
L 5882 -506 
L 5882 5114 
L 525 5114 
z
M 1018 294 
L 1018 4634 
L 5370 4634 
L 5370 294 
L 1018 294 
z
" transform="scale(0.015625)"/>
      <path id="NotoSansCJKjp-Regular-441d" d="M 3181 2816 
L 5203 2816 
L 5203 2374 
L 3181 2374 
L 3181 2816 
z
M 3181 3565 
L 5203 3565 
L 5203 3136 
L 3181 3136 
L 3181 3565 
z
M 1562 5376 
C 1280 4922 710 4371 211 4032 
C 288 3949 416 3776 474 3680 
C 1024 4070 1619 4666 1997 5203 
L 1562 5376 
z
M 1715 4070 
C 1338 3392 723 2726 134 2285 
C 218 2189 358 1958 410 1862 
C 646 2054 896 2291 1133 2547 
L 1133 -531 
L 1587 -531 
L 1587 3085 
C 1728 3270 1862 3462 1984 3654 
C 2099 3584 2298 3456 2387 3386 
C 2509 3514 2630 3667 2746 3834 
L 2746 2042 
L 3405 2042 
C 3091 1530 2560 1082 2010 787 
C 2106 717 2272 557 2349 480 
C 2598 627 2848 819 3085 1030 
C 3270 774 3507 544 3776 346 
C 3232 109 2598 -45 1965 -122 
C 2042 -224 2138 -403 2176 -518 
C 2886 -403 3584 -218 4179 83 
C 4678 -205 5274 -403 5933 -506 
C 5990 -384 6118 -198 6221 -96 
C 5632 -26 5088 122 4621 333 
C 5062 627 5427 1005 5664 1478 
L 5370 1626 
L 5280 1606 
L 3616 1606 
C 3725 1747 3821 1888 3904 2035 
L 3878 2042 
L 5651 2042 
L 5651 3904 
L 2797 3904 
C 2886 4038 2970 4179 3053 4326 
L 6067 4326 
L 6067 4730 
L 3264 4730 
C 3347 4909 3424 5088 3494 5274 
L 3014 5389 
C 2803 4755 2445 4134 2022 3712 
L 2144 3917 
L 1715 4070 
z
M 3398 1254 
L 5011 1254 
C 4806 979 4525 749 4198 557 
C 3866 755 3597 992 3398 1254 
z
" transform="scale(0.015625)"/>
      <path id="NotoSansCJKjp-Regular-2c71" d="M 2624 5363 
L 2624 4256 
L 2624 3981 
L 531 3981 
L 531 3488 
L 2598 3488 
C 2502 2285 2080 877 339 -160 
C 461 -243 634 -422 710 -538 
C 2573 595 3008 2157 3098 3488 
L 5293 3488 
C 5165 1229 5024 320 4794 102 
C 4717 19 4634 0 4499 0 
C 4339 0 3930 6 3488 45 
C 3584 -96 3642 -307 3654 -448 
C 4051 -467 4461 -480 4678 -461 
C 4928 -435 5075 -390 5229 -198 
C 5517 115 5645 1075 5792 3725 
C 5798 3795 5805 3981 5805 3981 
L 3123 3981 
L 3123 4256 
L 3123 5363 
L 2624 5363 
z
" transform="scale(0.015625)"/>
      <path id="NotoSansCJKjp-Regular-1" transform="scale(0.015625)"/>
      <path id="Cmsy10-17" d="M 447 359 
Q 378 359 359 519 
L 359 556 
Q 359 847 501 1087 
Q 644 1328 891 1464 
Q 1138 1600 1422 1600 
Q 1766 1600 2130 1379 
Q 2494 1159 2853 937 
Q 3213 716 3553 716 
Q 3881 716 4157 919 
Q 4434 1122 4434 1441 
Q 4453 1600 4525 1600 
Q 4597 1600 4616 1441 
L 4616 1403 
Q 4616 1113 4472 872 
Q 4328 631 4083 495 
Q 3838 359 3553 359 
Q 3284 359 3048 470 
Q 2813 581 2495 795 
Q 2178 1009 1937 1125 
Q 1697 1241 1422 1241 
Q 1219 1241 1009 1150 
Q 800 1059 669 895 
Q 538 731 538 519 
Q 519 359 447 359 
z
M 447 1850 
Q 378 1850 359 2009 
L 359 2047 
Q 359 2338 501 2578 
Q 644 2819 891 2955 
Q 1138 3091 1422 3091 
Q 1766 3091 2130 2870 
Q 2494 2650 2853 2429 
Q 3213 2209 3553 2209 
Q 3881 2209 4157 2412 
Q 4434 2616 4434 2931 
Q 4453 3091 4525 3091 
Q 4597 3091 4616 2931 
L 4616 2894 
Q 4616 2603 4472 2362 
Q 4328 2122 4083 1986 
Q 3838 1850 3553 1850 
Q 3284 1850 3048 1961 
Q 2813 2072 2495 2286 
Q 2178 2500 1937 2615 
Q 1697 2731 1422 2731 
Q 1219 2731 1009 2640 
Q 800 2550 669 2386 
Q 538 2222 538 2009 
Q 519 1850 447 1850 
z
" transform="scale(0.015625)"/>
      <path id="NotoSansCJKjp-Regular-e6c1" d="M 3200 3482 
C 3456 3482 3686 3667 3686 3962 
C 3686 4256 3456 4442 3200 4442 
C 2944 4442 2714 4256 2714 3962 
C 2714 3667 2944 3482 3200 3482 
z
M 2682 -659 
C 3366 -397 3789 141 3789 883 
C 3789 1363 3590 1664 3238 1664 
C 2982 1664 2752 1504 2752 1203 
C 2752 896 2970 742 3232 742 
L 3347 755 
C 3328 256 3053 -83 2534 -320 
L 2682 -659 
z
" transform="scale(0.015625)"/>
      <path id="NotoSansCJKjp-Regular-3d78" d="M 2970 5286 
L 2970 154 
C 2970 26 2918 -13 2790 -19 
C 2656 -26 2195 -32 1728 -13 
C 1805 -147 1894 -378 1926 -512 
C 2528 -518 2925 -506 3162 -422 
C 3392 -346 3488 -198 3488 154 
L 3488 5286 
L 2970 5286 
z
M 4512 3654 
C 5062 2733 5581 1536 5728 774 
L 6246 986 
C 6080 1754 5536 2931 4973 3827 
L 4512 3654 
z
M 1293 3782 
C 1133 2925 774 1818 205 1139 
C 339 1082 550 966 659 883 
C 1242 1594 1619 2752 1830 3693 
L 1293 3782 
z
" transform="scale(0.015625)"/>
      <path id="NotoSansCJKjp-Regular-9248" d="M 1696 3482 
L 3110 3482 
L 3110 2630 
L 1696 2630 
L 1696 3482 
z
M 1696 3910 
L 1683 3910 
C 1888 4134 2074 4365 2234 4595 
L 3795 4595 
C 3667 4365 3501 4109 3341 3910 
L 1696 3910 
z
M 5101 3482 
L 5101 2630 
L 3571 2630 
L 3571 3482 
L 5101 3482 
z
M 2157 5395 
C 1837 4749 1222 3955 358 3373 
C 474 3302 627 3149 704 3034 
C 890 3168 1062 3309 1222 3450 
L 1222 2310 
C 1222 1498 1120 506 211 -198 
C 307 -269 480 -442 550 -544 
C 1062 -147 1357 371 1517 902 
L 5101 902 
L 5101 102 
C 5101 -19 5062 -58 4922 -64 
C 4774 -70 4275 -70 3757 -58 
C 3827 -186 3917 -390 3942 -525 
C 4595 -525 5011 -518 5254 -442 
C 5491 -365 5574 -218 5574 96 
L 5574 3910 
L 3872 3910 
C 4096 4192 4314 4518 4461 4813 
L 4134 5024 
L 4058 4998 
L 2502 4998 
L 2675 5299 
L 2157 5395 
z
M 1696 2214 
L 3110 2214 
L 3110 1325 
L 1613 1325 
C 1670 1632 1690 1933 1696 2214 
z
M 5101 2214 
L 5101 1325 
L 3571 1325 
L 3571 2214 
L 5101 2214 
z
" transform="scale(0.015625)"/>
      <path id="NotoSansCJKjp-Regular-4231" d="M 2470 4141 
L 2470 3584 
L 1440 3584 
L 1440 3187 
L 2470 3187 
L 2470 2125 
L 4960 2125 
L 4960 3187 
L 5997 3187 
L 5997 3584 
L 4960 3584 
L 4960 4141 
L 4486 4141 
L 4486 3584 
L 2931 3584 
L 2931 4141 
L 2470 4141 
z
M 4486 3187 
L 4486 2509 
L 2931 2509 
L 2931 3187 
L 4486 3187 
z
M 4851 1318 
C 4582 986 4211 717 3770 506 
C 3334 723 2970 992 2720 1318 
L 4851 1318 
z
M 1530 1715 
L 1530 1318 
L 2502 1318 
L 2259 1222 
C 2515 858 2861 550 3270 301 
C 2662 90 1978 -38 1280 -109 
C 1357 -211 1453 -397 1485 -512 
C 2291 -416 3072 -243 3757 45 
C 4365 -237 5088 -422 5869 -525 
C 5933 -403 6048 -211 6150 -109 
C 5466 -38 4819 96 4269 294 
C 4813 608 5261 1024 5549 1574 
L 5248 1734 
L 5165 1715 
L 1530 1715 
z
M 774 4742 
L 774 2893 
C 774 1965 730 659 198 -256 
C 314 -307 512 -435 595 -518 
C 1152 448 1235 1901 1235 2893 
L 1235 4307 
L 6035 4307 
L 6035 4742 
L 3635 4742 
L 3635 5376 
L 3142 5376 
L 3142 4742 
L 774 4742 
z
" transform="scale(0.015625)"/>
      <path id="NotoSansCJKjp-Regular-4f87" d="M 2848 1338 
C 3174 998 3520 525 3661 211 
L 4070 461 
C 3923 781 3558 1235 3232 1562 
L 2848 1338 
z
M 4038 5382 
L 4038 4614 
L 2694 4614 
L 2694 4186 
L 4038 4186 
L 4038 3373 
L 2426 3373 
L 2426 2938 
L 4883 2938 
L 4883 2214 
L 2458 2214 
L 2458 1786 
L 4883 1786 
L 4883 64 
C 4883 -32 4851 -58 4749 -58 
C 4646 -64 4282 -64 3891 -51 
C 3962 -186 4032 -378 4051 -506 
C 4570 -506 4890 -499 5094 -422 
C 5293 -352 5357 -218 5357 58 
L 5357 1786 
L 6106 1786 
L 6106 2214 
L 5357 2214 
L 5357 2938 
L 6170 2938 
L 6170 3373 
L 4512 3373 
L 4512 4186 
L 5901 4186 
L 5901 4614 
L 4512 4614 
L 4512 5382 
L 4038 5382 
z
M 1862 2662 
L 1862 1184 
L 934 1184 
L 934 2662 
L 1862 2662 
z
M 1862 3098 
L 934 3098 
L 934 4518 
L 1862 4518 
L 1862 3098 
z
M 486 4960 
L 486 224 
L 934 224 
L 934 749 
L 2317 749 
L 2317 4960 
L 486 4960 
z
" transform="scale(0.015625)"/>
     </defs>
     <use xlink:href="#NotoSansCJKjp-Regular-2b89" transform="translate(0 0.703125)"/>
     <use xlink:href="#NotoSansCJKjp-Regular-7a17" transform="translate(99.999908 0.703125)"/>
     <use xlink:href="#NotoSansCJKjp-Regular-4ea0" transform="translate(199.999817 0.703125)"/>
     <use xlink:href="#NotoSansCJKjp-Regular-2eb8" transform="translate(299.999725 0.703125)"/>
     <use xlink:href="#NotoSansCJKjp-Regular-3351" transform="translate(399.999634 0.703125)"/>
     <use xlink:href="#NotoSansCJKjp-Regular-441d" transform="translate(499.999542 0.703125)"/>
     <use xlink:href="#NotoSansCJKjp-Regular-2c71" transform="translate(599.999451 0.703125)"/>
     <use xlink:href="#NotoSansCJKjp-Regular-1" transform="translate(699.999359 0.703125)"/>
     <use xlink:href="#Cmsy10-17" transform="translate(742.399395 0.703125)"/>
     <use xlink:href="#Cmmi10-45" transform="translate(840.084999 0.703125)"/>
     <use xlink:href="#Cmmi10-2f" transform="translate(927.877968 0.703125)"/>
     <use xlink:href="#Cmr10-52" transform="translate(975.583046 0.703125)"/>
     <use xlink:href="#Cmr10-24" transform="translate(1014.987343 0.703125)"/>
     <use xlink:href="#Cmr10-74" transform="translate(1042.67289 0.703125)"/>
     <use xlink:href="#Cmmi10-12" transform="translate(1114.857516 0.703125)"/>
     <use xlink:href="#NotoSansCJKjp-Regular-e6c1" transform="translate(1161.781344 0.703125)"/>
     <use xlink:href="#NotoSansCJKjp-Regular-3d78" transform="translate(1261.781252 0.703125)"/>
     <use xlink:href="#NotoSansCJKjp-Regular-9248" transform="translate(1361.781161 0.703125)"/>
     <use xlink:href="#NotoSansCJKjp-Regular-4231" transform="translate(1461.781069 0.703125)"/>
     <use xlink:href="#NotoSansCJKjp-Regular-4f87" transform="translate(1561.780977 0.703125)"/>
     <use xlink:href="#NotoSansCJKjp-Regular-1" transform="translate(1661.780886 0.703125)"/>
     <use xlink:href="#Cmr10-52" transform="translate(1684.180865 0.703125)"/>
     <use xlink:href="#Cmr10-24" transform="translate(1723.585161 0.703125)"/>
     <use xlink:href="#Cmr10-74" transform="translate(1751.270708 0.703125)"/>
     <use xlink:href="#Cmmi10-12" transform="translate(1823.455334 0.703125)"/>
     <use xlink:href="#Cmsy10-17" transform="translate(1890.379219 0.703125)"/>
     <use xlink:href="#Cmmi10-12" transform="translate(1988.064824 0.703125)"/>
    </g>
    <!-- → 回復力正比於位移 → 簡諧，$T=2\pi\sqrt{L/g}$ -->
    <g style="fill: #222831" transform="translate(64.257273 296.065455) scale(0.11 -0.11)">
     <defs>
      <path id="NotoSansCJKjp-Regular-31c" d="M 5190 2650 
L 256 2650 
L 256 2214 
L 5190 2214 
C 4864 1965 4442 1562 4154 1165 
L 4538 941 
C 4966 1504 5606 2067 6176 2432 
C 5606 2797 4966 3360 4538 3923 
L 4154 3699 
C 4442 3302 4864 2899 5190 2650 
z
" transform="scale(0.015625)"/>
      <path id="NotoSansCJKjp-Regular-585c" d="M 1203 3264 
L 1203 243 
L 333 243 
L 333 -224 
L 6080 -224 
L 6080 243 
L 3616 243 
L 3616 2259 
L 5619 2259 
L 5619 2726 
L 3616 2726 
L 3616 4435 
L 5869 4435 
L 5869 4909 
L 576 4909 
L 576 4435 
L 3110 4435 
L 3110 243 
L 1696 243 
L 1696 3264 
L 1203 3264 
z
" transform="scale(0.015625)"/>
      <path id="NotoSansCJKjp-Regular-5942" d="M 250 128 
L 397 -371 
C 1197 -179 2278 77 3290 326 
L 3245 787 
C 2694 659 2125 525 1600 410 
L 1600 2925 
L 3046 2925 
L 3046 3398 
L 1600 3398 
L 1600 5344 
L 1107 5344 
L 1107 301 
L 250 128 
z
M 3520 5344 
L 3520 512 
C 3520 -186 3693 -371 4320 -371 
C 4448 -371 5261 -371 5395 -371 
C 6003 -371 6138 -13 6202 1037 
C 6061 1069 5869 1152 5747 1248 
C 5709 320 5670 83 5370 83 
C 5190 83 4506 83 4371 83 
C 4064 83 4013 147 4013 499 
L 4013 2586 
C 4691 2874 5414 3219 5952 3571 
L 5594 3974 
C 5216 3674 4608 3328 4013 3046 
L 4013 5344 
L 3520 5344 
z
" transform="scale(0.015625)"/>
      <path id="NotoSansCJKjp-Regular-4ea4" d="M 4454 4826 
C 4749 4013 5318 3130 5958 2605 
C 6029 2752 6125 2944 6214 3066 
C 5606 3507 5011 4435 4678 5370 
L 4186 5370 
C 3942 4506 3379 3533 2739 3027 
C 2822 2918 2938 2726 2982 2592 
C 3642 3130 4192 4045 4454 4826 
z
M 3757 2605 
C 4198 2323 4704 1907 4934 1606 
L 5274 1952 
C 5030 2246 4506 2643 4070 2906 
L 3757 2605 
z
M 3238 870 
C 4019 512 4960 -77 5408 -512 
L 5715 -96 
C 5261 339 4301 896 3526 1242 
L 3238 870 
z
M 1414 5363 
L 1414 4333 
L 282 4333 
L 282 3878 
L 986 3878 
C 960 2234 890 672 186 -198 
C 307 -275 474 -429 550 -538 
C 1126 186 1331 1299 1408 2554 
L 2234 2554 
C 2195 774 2144 147 2035 6 
C 1990 -70 1933 -83 1843 -83 
C 1741 -83 1504 -83 1235 -58 
C 1306 -179 1357 -371 1363 -499 
C 1632 -512 1901 -512 2061 -499 
C 2227 -480 2342 -435 2445 -288 
C 2611 -70 2650 653 2694 2778 
C 2701 2842 2701 3002 2701 3002 
L 1427 3002 
L 1453 3878 
L 3008 3878 
L 3008 4333 
L 1894 4333 
L 1894 5363 
L 1414 5363 
z
" transform="scale(0.015625)"/>
      <path id="NotoSansCJKjp-Regular-26e3" d="M 2630 3155 
C 2867 2304 3066 1190 3110 544 
L 3578 646 
C 3526 1280 3302 2381 3059 3232 
L 2630 3155 
z
M 2106 4115 
L 2106 3661 
L 6016 3661 
L 6016 4115 
L 4250 4115 
L 4250 5299 
L 3770 5299 
L 3770 4115 
L 2106 4115 
z
M 1946 243 
L 1946 -211 
L 6176 -211 
L 6176 243 
L 4634 243 
C 4928 1043 5261 2246 5485 3194 
L 4966 3283 
C 4800 2362 4461 1056 4166 243 
L 1946 243 
z
M 1773 5357 
C 1395 4390 774 3443 128 2835 
C 211 2720 352 2470 397 2355 
C 640 2598 877 2880 1107 3194 
L 1107 -493 
L 1568 -493 
L 1568 3891 
C 1818 4314 2048 4762 2227 5216 
L 1773 5357 
z
" transform="scale(0.015625)"/>
      <path id="NotoSansCJKjp-Regular-71ef" d="M 3910 4416 
L 5197 4416 
C 5024 4083 4774 3795 4486 3546 
C 4275 3750 3949 3994 3654 4179 
L 3910 4416 
z
M 4109 5376 
C 3827 4883 3277 4307 2477 3910 
C 2573 3834 2720 3680 2784 3578 
C 2982 3686 3168 3808 3341 3930 
C 3629 3750 3949 3494 4154 3290 
C 3686 2970 3136 2739 2586 2605 
C 2675 2515 2790 2336 2835 2221 
C 4122 2586 5325 3347 5824 4691 
L 5523 4838 
L 5434 4819 
L 4269 4819 
C 4390 4973 4499 5126 4589 5286 
L 4109 5376 
z
M 4211 1952 
L 5536 1952 
C 5350 1555 5088 1222 4768 941 
C 4531 1165 4166 1427 3840 1626 
C 3974 1728 4096 1837 4211 1952 
z
M 4454 2963 
C 4141 2400 3501 1760 2560 1325 
C 2656 1254 2797 1094 2861 992 
C 3085 1107 3296 1229 3488 1363 
C 3821 1165 4173 890 4410 659 
C 3846 282 3168 32 2451 -102 
C 2541 -205 2650 -397 2694 -512 
C 4243 -166 5613 621 6157 2246 
L 5850 2381 
L 5760 2362 
L 4576 2362 
C 4717 2534 4832 2707 4934 2880 
L 4454 2963 
z
M 2310 5286 
C 1837 5069 992 4883 275 4762 
C 333 4659 397 4499 416 4397 
C 717 4435 1037 4493 1357 4557 
L 1357 3571 
L 314 3571 
L 314 3123 
L 1293 3123 
C 1037 2387 595 1555 179 1101 
C 262 986 378 794 429 659 
C 755 1056 1094 1690 1357 2336 
L 1357 -499 
L 1830 -499 
L 1830 2259 
C 2048 1990 2304 1645 2413 1466 
L 2701 1843 
C 2573 1990 2016 2566 1830 2726 
L 1830 3123 
L 2630 3123 
L 2630 3571 
L 1830 3571 
L 1830 4666 
C 2131 4736 2413 4819 2643 4915 
L 2310 5286 
z
" transform="scale(0.015625)"/>
      <path id="NotoSansCJKjp-Regular-7668" d="M 1120 3430 
L 2490 3430 
L 2490 3072 
L 1120 3072 
L 1120 3430 
z
M 1120 2413 
L 1120 2778 
L 2490 2778 
L 2490 2413 
L 1120 2413 
z
M 678 3744 
L 678 -506 
L 1120 -506 
L 1120 2099 
L 2931 2099 
L 2931 3744 
L 678 3744 
z
M 2458 1466 
L 3968 1466 
L 3968 1050 
L 2458 1050 
L 2458 1466 
z
M 2458 320 
L 2458 749 
L 3968 749 
L 3968 320 
L 2458 320 
z
M 2022 1773 
L 2022 -218 
L 2458 -218 
L 2458 19 
L 4397 19 
L 4397 1773 
L 2022 1773 
z
M 3910 2778 
L 5344 2778 
L 5344 2413 
L 3910 2413 
L 3910 2778 
z
M 3910 3072 
L 3910 3430 
L 5344 3430 
L 5344 3072 
L 3910 3072 
z
M 5344 3744 
L 3475 3744 
L 3475 2099 
L 5344 2099 
L 5344 45 
C 5344 -51 5312 -77 5216 -83 
C 5114 -90 4774 -90 4416 -77 
C 4480 -198 4544 -384 4563 -506 
C 5043 -512 5363 -506 5555 -435 
C 5734 -358 5798 -224 5798 45 
L 5798 3744 
L 5344 3744 
z
M 1171 5408 
C 973 4909 627 4410 243 4083 
C 352 4019 550 3891 640 3814 
C 826 4000 1018 4237 1190 4499 
L 1446 4499 
C 1574 4282 1702 4026 1747 3853 
L 2176 3974 
C 2131 4115 2029 4314 1920 4499 
L 3117 4499 
L 3117 4883 
L 1421 4883 
C 1498 5018 1562 5152 1619 5286 
L 1171 5408 
z
M 3712 5408 
C 3507 4902 3130 4422 2701 4109 
C 2822 4058 3021 3936 3117 3872 
C 3322 4038 3526 4256 3712 4499 
L 4205 4499 
C 4384 4282 4563 4019 4640 3834 
L 5069 3974 
C 4998 4122 4864 4320 4723 4499 
L 6067 4499 
L 6067 4883 
L 3968 4883 
C 4045 5018 4115 5152 4173 5293 
L 3712 5408 
z
" transform="scale(0.015625)"/>
      <path id="NotoSansCJKjp-Regular-947f" d="M 518 3437 
L 518 3059 
L 2246 3059 
L 2246 3437 
L 518 3437 
z
M 557 5152 
L 557 4768 
L 2227 4768 
L 2227 5152 
L 557 5152 
z
M 518 2586 
L 518 2202 
L 2246 2202 
L 2246 2586 
L 518 2586 
z
M 243 4314 
L 243 3910 
L 2438 3910 
L 2438 4314 
L 243 4314 
z
M 3328 717 
L 5280 717 
L 5280 102 
L 3328 102 
L 3328 717 
z
M 3328 1088 
L 3328 1677 
L 5280 1677 
L 5280 1088 
L 3328 1088 
z
M 3974 2688 
C 3923 2509 3834 2272 3744 2067 
L 2874 2067 
L 2874 -512 
L 3328 -512 
L 3328 -282 
L 5280 -282 
L 5280 -486 
L 5754 -486 
L 5754 2067 
L 4205 2067 
L 4467 2579 
L 3974 2688 
z
M 2381 2893 
L 2522 2458 
C 3021 2592 3648 2758 4250 2925 
L 4205 3315 
L 3270 3091 
L 3270 4058 
L 4198 4058 
L 4198 4474 
L 3270 4474 
L 3270 5350 
L 2822 5350 
L 2822 2989 
L 2381 2893 
z
M 5702 4838 
C 5504 4653 5184 4448 4864 4269 
L 4864 5357 
L 4416 5357 
L 4416 3142 
C 4416 2669 4531 2541 4992 2541 
C 5082 2541 5536 2541 5632 2541 
C 6022 2541 6138 2739 6182 3475 
C 6061 3507 5875 3578 5779 3654 
C 5760 3046 5741 2944 5587 2944 
C 5498 2944 5126 2944 5056 2944 
C 4890 2944 4864 2970 4864 3142 
L 4864 3872 
C 5274 4051 5709 4282 6035 4525 
L 5702 4838 
z
M 512 1722 
L 512 -442 
L 922 -442 
L 922 -141 
L 2253 -141 
L 2253 1722 
L 512 1722 
z
M 922 1325 
L 1843 1325 
L 1843 256 
L 922 256 
L 922 1325 
z
" transform="scale(0.015625)"/>
      <path id="NotoSansCJKjp-Regular-e6b2" d="M 1005 -685 
C 1677 -448 2112 77 2112 768 
C 2112 1216 1920 1504 1568 1504 
C 1306 1504 1082 1344 1082 1043 
C 1082 742 1299 589 1562 589 
L 1670 602 
C 1638 160 1357 -141 864 -346 
L 1005 -685 
z
" transform="scale(0.015625)"/>
      <path id="Cmr10-29" d="M 481 850 
Q 428 850 393 890 
Q 359 931 359 978 
Q 359 1031 393 1068 
Q 428 1106 481 1106 
L 4500 1106 
Q 4547 1106 4581 1068 
Q 4616 1031 4616 978 
Q 4616 931 4581 890 
Q 4547 850 4500 850 
L 481 850 
z
M 481 2094 
Q 428 2094 393 2131 
Q 359 2169 359 2222 
Q 359 2269 393 2309 
Q 428 2350 481 2350 
L 4500 2350 
Q 4547 2350 4581 2309 
Q 4616 2269 4616 2222 
Q 4616 2169 4581 2131 
Q 4547 2094 4500 2094 
L 481 2094 
z
" transform="scale(0.015625)"/>
      <path id="Cmr10-31" d="M 319 0 
L 319 172 
Q 319 188 331 206 
L 1325 1306 
Q 1550 1550 1690 1715 
Q 1831 1881 1968 2097 
Q 2106 2313 2186 2536 
Q 2266 2759 2266 3009 
Q 2266 3272 2169 3511 
Q 2072 3750 1880 3894 
Q 1688 4038 1416 4038 
Q 1138 4038 916 3870 
Q 694 3703 603 3438 
Q 628 3444 672 3444 
Q 816 3444 917 3347 
Q 1019 3250 1019 3097 
Q 1019 2950 917 2848 
Q 816 2747 672 2747 
Q 522 2747 420 2851 
Q 319 2956 319 3097 
Q 319 3338 409 3548 
Q 500 3759 670 3923 
Q 841 4088 1055 4175 
Q 1269 4263 1509 4263 
Q 1875 4263 2190 4108 
Q 2506 3953 2690 3670 
Q 2875 3388 2875 3009 
Q 2875 2731 2753 2481 
Q 2631 2231 2440 2026 
Q 2250 1822 1953 1562 
Q 1656 1303 1563 1216 
L 838 519 
L 1453 519 
Q 1906 519 2211 526 
Q 2516 534 2534 550 
Q 2609 631 2688 1141 
L 2875 1141 
L 2694 0 
L 319 0 
z
" transform="scale(0.015625)"/>
      <path id="Cmmi10-24" d="M 647 109 
Q 647 144 672 213 
Q 850 584 1004 942 
Q 1159 1300 1282 1639 
Q 1406 1978 1509 2363 
L 1100 2363 
Q 866 2363 662 2216 
Q 459 2069 325 1844 
Q 313 1819 288 1819 
L 213 1819 
Q 153 1819 153 1881 
Q 153 1894 166 1919 
Q 375 2275 614 2517 
Q 853 2759 1153 2759 
L 3475 2759 
Q 3541 2759 3587 2715 
Q 3634 2672 3634 2597 
Q 3634 2503 3567 2433 
Q 3500 2363 3406 2363 
L 2591 2363 
Q 2488 1859 2478 1381 
Q 2478 766 2694 269 
Q 2713 231 2713 191 
Q 2713 122 2672 62 
Q 2631 3 2567 -34 
Q 2503 -72 2431 -72 
Q 2263 -72 2200 203 
Q 2138 478 2138 738 
Q 2138 1103 2200 1442 
Q 2263 1781 2400 2363 
L 1703 2363 
Q 1197 313 1094 103 
Q 1003 -72 844 -72 
Q 766 -72 706 -20 
Q 647 31 647 109 
z
" transform="scale(0.015625)"/>
      <path id="Cmex10-15" d="M 2713 -11263 
L 1259 -6188 
L 819 -6700 
L 703 -6578 
L 1619 -5503 
L 2981 -10266 
L 6284 178 
Q 6306 256 6400 256 
Q 6453 256 6490 218 
Q 6528 181 6528 128 
L 6528 103 
L 2963 -11188 
Q 2925 -11263 2853 -11263 
L 2713 -11263 
z
" transform="scale(0.015625)"/>
      <path id="Cmmi10-55" d="M 300 0 
Q 238 0 238 84 
Q 241 100 250 139 
Q 259 178 276 201 
Q 294 225 319 225 
Q 709 225 863 269 
Q 947 297 984 441 
L 1863 3956 
Q 1875 4019 1875 4044 
Q 1875 4113 1797 4122 
Q 1678 4147 1338 4147 
Q 1275 4147 1275 4231 
Q 1297 4313 1309 4342 
Q 1322 4372 1381 4372 
L 3272 4372 
Q 3328 4372 3328 4288 
Q 3319 4222 3306 4184 
Q 3294 4147 3244 4147 
Q 2772 4147 2613 4116 
Q 2456 4088 2419 3928 
L 1544 416 
Q 1516 338 1516 275 
Q 1516 225 1734 225 
L 2328 225 
Q 2831 225 3143 425 
Q 3456 625 3606 876 
Q 3756 1128 3857 1398 
Q 3959 1669 4006 1678 
L 4063 1678 
Q 4128 1678 4128 1594 
L 3559 44 
Q 3550 0 3500 0 
L 300 0 
z
" transform="scale(0.015625)"/>
      <path id="Cmmi10-62" d="M 359 -1472 
Q 359 -1453 366 -1447 
L 2591 4722 
Q 2603 4759 2634 4779 
Q 2666 4800 2706 4800 
Q 2763 4800 2798 4765 
Q 2834 4731 2834 4672 
L 2834 4647 
L 609 -1522 
Q 572 -1600 488 -1600 
Q 434 -1600 396 -1562 
Q 359 -1525 359 -1472 
z
" transform="scale(0.015625)"/>
     </defs>
     <use xlink:href="#NotoSansCJKjp-Regular-31c" transform="translate(0 0.75)"/>
     <use xlink:href="#NotoSansCJKjp-Regular-1" transform="translate(99.999908 0.75)"/>
     <use xlink:href="#NotoSansCJKjp-Regular-3351" transform="translate(122.399887 0.75)"/>
     <use xlink:href="#NotoSansCJKjp-Regular-441d" transform="translate(222.399796 0.75)"/>
     <use xlink:href="#NotoSansCJKjp-Regular-2c71" transform="translate(322.399704 0.75)"/>
     <use xlink:href="#NotoSansCJKjp-Regular-585c" transform="translate(422.399612 0.75)"/>
     <use xlink:href="#NotoSansCJKjp-Regular-5942" transform="translate(522.399521 0.75)"/>
     <use xlink:href="#NotoSansCJKjp-Regular-4ea4" transform="translate(622.399429 0.75)"/>
     <use xlink:href="#NotoSansCJKjp-Regular-26e3" transform="translate(722.399338 0.75)"/>
     <use xlink:href="#NotoSansCJKjp-Regular-71ef" transform="translate(822.399246 0.75)"/>
     <use xlink:href="#NotoSansCJKjp-Regular-1" transform="translate(922.399155 0.75)"/>
     <use xlink:href="#NotoSansCJKjp-Regular-31c" transform="translate(944.799133 0.75)"/>
     <use xlink:href="#NotoSansCJKjp-Regular-1" transform="translate(1044.799042 0.75)"/>
     <use xlink:href="#NotoSansCJKjp-Regular-7668" transform="translate(1067.19902 0.75)"/>
     <use xlink:href="#NotoSansCJKjp-Regular-947f" transform="translate(1167.198929 0.75)"/>
     <use xlink:href="#NotoSansCJKjp-Regular-e6b2" transform="translate(1267.198837 0.75)"/>
     <use xlink:href="#Cmmi10-78" transform="translate(1367.198746 0.75)"/>
     <use xlink:href="#Cmr10-29" transform="translate(1445.59724 0.75)"/>
     <use xlink:href="#Cmr10-31" transform="translate(1543.282845 0.75)"/>
     <use xlink:href="#Cmmi10-24" transform="translate(1593.282845 0.75)"/>
     <use xlink:href="#Cmex10-15" transform="translate(1650.265266 104.078125) scale(0.72923)"/>
     <use xlink:href="#Cmmi10-55" transform="translate(1735.687141 0.75)"/>
     <use xlink:href="#Cmmi10-62" transform="translate(1803.70472 0.75)"/>
     <use xlink:href="#Cmmi10-2f" transform="translate(1853.70472 0.75)"/>
     <path d="M 1723.187141 106.75 
L 1723.187141 113 
L 1913.909798 113 
L 1913.909798 106.75 
L 1723.187141 106.75 
z
"/>
    </g>
   </g>
   <g id="text_7">
    <!-- 單擺：重力的切線分量提供回復力 -->
    <g style="fill: #222831" transform="translate(80.76 19.52) scale(0.14 -0.14)">
     <defs>
      <path id="NotoSansCJKjp-Regular-3132" d="M 1280 4800 
L 2502 4800 
L 2502 4198 
L 1280 4198 
L 1280 4800 
z
M 845 5126 
L 845 3878 
L 2957 3878 
L 2957 5126 
L 845 5126 
z
M 3904 4800 
L 5152 4800 
L 5152 4198 
L 3904 4198 
L 3904 4800 
z
M 3475 5126 
L 3475 3878 
L 5606 3878 
L 5606 5126 
L 3475 5126 
z
M 1485 2253 
L 2931 2253 
L 2931 1696 
L 1485 1696 
L 1485 2253 
z
M 3430 2253 
L 4966 2253 
L 4966 1696 
L 3430 1696 
L 3430 2253 
z
M 1485 3168 
L 2931 3168 
L 2931 2618 
L 1485 2618 
L 1485 3168 
z
M 3430 3168 
L 4966 3168 
L 4966 2618 
L 3430 2618 
L 3430 3168 
z
M 371 819 
L 371 390 
L 2931 390 
L 2931 -512 
L 3430 -512 
L 3430 390 
L 6048 390 
L 6048 819 
L 3430 819 
L 3430 1306 
L 5453 1306 
L 5453 3552 
L 1011 3552 
L 1011 1306 
L 2931 1306 
L 2931 819 
L 371 819 
z
" transform="scale(0.015625)"/>
      <path id="NotoSansCJKjp-Regular-4d43" d="M 4768 4800 
L 5523 4800 
L 5523 4205 
L 4768 4205 
L 4768 4800 
z
M 3654 4800 
L 4397 4800 
L 4397 4205 
L 3654 4205 
L 3654 4800 
z
M 2573 4800 
L 3283 4800 
L 3283 4205 
L 2573 4205 
L 2573 4800 
z
M 2170 5152 
L 2170 3853 
L 5933 3853 
L 5933 5152 
L 2170 5152 
z
M 3277 3309 
C 3366 3187 3456 3046 3539 2906 
L 2752 2848 
C 2874 3117 3002 3430 3123 3712 
L 2694 3827 
C 2618 3533 2477 3130 2342 2822 
L 2035 2803 
L 2106 2419 
C 2566 2458 3136 2509 3712 2566 
C 3757 2470 3795 2387 3821 2310 
L 4166 2470 
C 4070 2733 3834 3142 3603 3450 
L 3277 3309 
z
M 3469 1811 
L 3469 1440 
L 2624 1440 
L 2624 1811 
L 3469 1811 
z
M 2240 2144 
L 2240 -506 
L 2624 -506 
L 2624 448 
L 3469 448 
L 3469 -83 
C 3469 -141 3456 -154 3398 -160 
C 3341 -160 3181 -160 2982 -154 
C 3027 -256 3085 -403 3104 -506 
C 3379 -506 3571 -499 3706 -442 
C 3827 -378 3866 -275 3866 -83 
L 3866 2144 
L 2240 2144 
z
M 2624 1146 
L 3469 1146 
L 3469 749 
L 2624 749 
L 2624 1146 
z
M 5619 3533 
C 5395 3379 5024 3219 4659 3091 
L 4659 3731 
L 4250 3731 
L 4250 2355 
C 4250 1933 4365 1824 4832 1824 
C 4928 1824 5478 1824 5574 1824 
C 5933 1824 6048 1971 6093 2541 
C 5978 2566 5811 2630 5728 2694 
C 5709 2253 5683 2202 5523 2202 
C 5408 2202 4966 2202 4877 2202 
C 4691 2202 4659 2221 4659 2362 
L 4659 2758 
C 5094 2886 5574 3059 5926 3258 
L 5619 3533 
z
M 5664 1408 
C 5427 1242 5043 1062 4666 922 
L 4666 1651 
L 4256 1651 
L 4256 77 
C 4256 -352 4378 -467 4858 -467 
C 4954 -467 5530 -467 5632 -467 
C 6022 -467 6138 -307 6182 346 
C 6067 371 5901 435 5811 499 
C 5792 -19 5760 -96 5594 -96 
C 5472 -96 4992 -96 4902 -96 
C 4704 -96 4666 -70 4666 83 
L 4666 563 
C 5120 717 5626 915 5990 1126 
L 5664 1408 
z
M 1018 5376 
L 1018 4083 
L 269 4083 
L 269 3635 
L 1018 3635 
L 1018 2355 
C 698 2253 410 2163 173 2093 
L 301 1626 
L 1018 1875 
L 1018 26 
C 1018 -64 986 -90 909 -90 
C 832 -96 589 -96 320 -90 
C 378 -211 435 -403 461 -512 
C 845 -512 1082 -499 1229 -429 
C 1382 -352 1440 -230 1440 26 
L 1440 2022 
L 2074 2240 
L 2003 2682 
L 1440 2496 
L 1440 3635 
L 1971 3635 
L 1971 4083 
L 1440 4083 
L 1440 5376 
L 1018 5376 
z
" transform="scale(0.015625)"/>
      <path id="NotoSansCJKjp-Regular-e6c0" d="M 3200 3482 
C 3456 3482 3686 3667 3686 3962 
C 3686 4256 3456 4442 3200 4442 
C 2944 4442 2714 4256 2714 3962 
C 2714 3667 2944 3482 3200 3482 
z
M 3200 346 
C 3456 346 3686 538 3686 826 
C 3686 1120 3456 1312 3200 1312 
C 2944 1312 2714 1120 2714 826 
C 2714 538 2944 346 3200 346 
z
" transform="scale(0.015625)"/>
      <path id="NotoSansCJKjp-Regular-a106" d="M 1018 3456 
L 1018 1466 
L 2938 1466 
L 2938 1024 
L 813 1024 
L 813 640 
L 2938 640 
L 2938 83 
L 333 83 
L 333 -307 
L 6074 -307 
L 6074 83 
L 3418 83 
L 3418 640 
L 5670 640 
L 5670 1024 
L 3418 1024 
L 3418 1466 
L 5427 1466 
L 5427 3456 
L 3418 3456 
L 3418 3846 
L 6042 3846 
L 6042 4243 
L 3418 4243 
L 3418 4736 
C 4166 4794 4870 4870 5421 4966 
L 5165 5338 
C 4154 5158 2342 5037 851 4998 
C 896 4902 947 4730 954 4621 
C 1581 4634 2266 4659 2938 4698 
L 2938 4243 
L 371 4243 
L 371 3846 
L 2938 3846 
L 2938 3456 
L 1018 3456 
z
M 1485 2304 
L 2938 2304 
L 2938 1818 
L 1485 1818 
L 1485 2304 
z
M 3418 2304 
L 4941 2304 
L 4941 1818 
L 3418 1818 
L 3418 2304 
z
M 1485 3110 
L 2938 3110 
L 2938 2630 
L 1485 2630 
L 1485 3110 
z
M 3418 3110 
L 4941 3110 
L 4941 2630 
L 3418 2630 
L 3418 3110 
z
" transform="scale(0.015625)"/>
      <path id="NotoSansCJKjp-Regular-6c33" d="M 3533 2707 
C 3885 2240 4320 1600 4512 1210 
L 4922 1466 
C 4710 1843 4269 2464 3904 2918 
L 3533 2707 
z
M 1536 5389 
C 1485 5082 1376 4659 1274 4346 
L 557 4346 
L 557 -346 
L 998 -346 
L 998 160 
L 2784 160 
L 2784 4346 
L 1715 4346 
C 1824 4621 1946 4979 2054 5299 
L 1536 5389 
z
M 998 3917 
L 2342 3917 
L 2342 2566 
L 998 2566 
L 998 3917 
z
M 998 595 
L 998 2144 
L 2342 2144 
L 2342 595 
L 998 595 
z
M 3827 5402 
C 3622 4518 3277 3635 2835 3066 
C 2950 3002 3149 2867 3238 2790 
C 3456 3098 3661 3488 3840 3923 
L 5478 3923 
C 5402 1357 5299 371 5094 154 
C 5018 64 4947 45 4819 45 
C 4672 45 4288 51 3866 83 
C 3955 -38 4013 -243 4026 -378 
C 4384 -397 4762 -410 4979 -390 
C 5210 -365 5350 -314 5498 -122 
C 5754 192 5843 1184 5939 4122 
C 5946 4186 5946 4365 5946 4365 
L 4013 4365 
C 4115 4666 4211 4986 4288 5299 
L 3827 5402 
z
" transform="scale(0.015625)"/>
      <path id="NotoSansCJKjp-Regular-2b86" d="M 2074 5248 
C 1677 4256 966 3373 147 2829 
C 262 2739 474 2554 563 2451 
C 1363 3059 2118 4019 2586 5101 
L 2074 5248 
z
M 4307 5261 
L 3846 5075 
C 4326 4122 5139 3085 5850 2509 
C 5939 2643 6118 2829 6253 2931 
C 5549 3424 4723 4397 4307 5261 
z
M 1197 2957 
L 1197 2490 
L 2509 2490 
C 2368 1402 2010 378 486 -122 
C 595 -224 736 -416 800 -544 
C 2445 51 2854 1216 3027 2490 
L 4685 2490 
C 4608 864 4512 224 4346 58 
C 4282 -6 4205 -26 4077 -26 
C 3923 -26 3533 -19 3110 19 
C 3200 -115 3258 -320 3270 -461 
C 3674 -486 4070 -493 4288 -474 
C 4506 -454 4653 -410 4781 -243 
C 5005 0 5094 736 5190 2726 
C 5197 2790 5197 2957 5197 2957 
L 1197 2957 
z
" transform="scale(0.015625)"/>
      <path id="NotoSansCJKjp-Regular-a108" d="M 1600 4256 
L 4781 4256 
L 4781 3904 
L 1600 3904 
L 1600 4256 
z
M 1600 4883 
L 4781 4883 
L 4781 4538 
L 1600 4538 
L 1600 4883 
z
M 1133 5171 
L 1133 3616 
L 5261 3616 
L 5261 5171 
L 1133 5171 
z
M 333 3341 
L 333 2976 
L 6074 2976 
L 6074 3341 
L 333 3341 
z
M 1472 1747 
L 2957 1747 
L 2957 1376 
L 1472 1376 
L 1472 1747 
z
M 3424 1747 
L 4973 1747 
L 4973 1376 
L 3424 1376 
L 3424 1747 
z
M 1472 2387 
L 2957 2387 
L 2957 2029 
L 1472 2029 
L 1472 2387 
z
M 3424 2387 
L 4973 2387 
L 4973 2029 
L 3424 2029 
L 3424 2387 
z
M 301 19 
L 301 -352 
L 6112 -352 
L 6112 19 
L 3424 19 
L 3424 390 
L 5587 390 
L 5587 730 
L 3424 730 
L 3424 1082 
L 5446 1082 
L 5446 2688 
L 1018 2688 
L 1018 1082 
L 2957 1082 
L 2957 730 
L 838 730 
L 838 390 
L 2957 390 
L 2957 19 
L 301 19 
z
" transform="scale(0.015625)"/>
      <path id="NotoSansCJKjp-Regular-4b20" d="M 3059 3949 
L 5197 3949 
L 5197 3443 
L 3059 3443 
L 3059 3949 
z
M 3059 4800 
L 5197 4800 
L 5197 4294 
L 3059 4294 
L 3059 4800 
z
M 2618 5165 
L 2618 3072 
L 5658 3072 
L 5658 5165 
L 2618 5165 
z
M 2746 1901 
C 2643 954 2355 230 1786 -224 
C 1888 -288 2074 -435 2144 -512 
C 2483 -211 2739 179 2918 666 
C 3334 -237 4013 -416 4947 -416 
L 6067 -416 
C 6086 -288 6150 -90 6214 19 
C 5990 13 5126 13 4966 13 
C 4749 13 4544 19 4352 51 
L 4352 1056 
L 5696 1056 
L 5696 1453 
L 4352 1453 
L 4352 2208 
L 6010 2208 
L 6010 2611 
L 2330 2611 
L 2330 2208 
L 3898 2208 
L 3898 173 
C 3533 333 3251 621 3066 1158 
C 3117 1376 3155 1606 3187 1850 
L 2746 1901 
z
M 1050 5370 
L 1050 4083 
L 256 4083 
L 256 3635 
L 1050 3635 
L 1050 2227 
C 723 2125 422 2042 186 1978 
L 307 1504 
L 1050 1747 
L 1050 90 
C 1050 0 1018 -26 941 -26 
C 864 -32 614 -32 339 -26 
C 397 -154 461 -352 474 -467 
C 877 -474 1126 -454 1280 -378 
C 1440 -307 1498 -173 1498 90 
L 1498 1894 
L 2208 2131 
L 2144 2566 
L 1498 2368 
L 1498 3635 
L 2208 3635 
L 2208 4083 
L 1498 4083 
L 1498 5370 
L 1050 5370 
z
" transform="scale(0.015625)"/>
      <path id="NotoSansCJKjp-Regular-2760" d="M 3098 1139 
C 2829 640 2381 141 1939 -192 
C 2054 -262 2234 -416 2323 -493 
C 2758 -128 3245 442 3558 992 
L 3098 1139 
z
M 4557 902 
C 4979 474 5453 -122 5670 -512 
L 6074 -256 
C 5850 128 5370 698 4934 1120 
L 4557 902 
z
M 1722 5363 
C 1357 4390 762 3424 134 2810 
C 218 2694 358 2445 403 2330 
C 621 2554 832 2816 1037 3098 
L 1037 -499 
L 1510 -499 
L 1510 3840 
C 1766 4282 1990 4749 2176 5222 
L 1722 5363 
z
M 4685 5312 
L 4685 4006 
L 3437 4006 
L 3437 5306 
L 2970 5306 
L 2970 4006 
L 2144 4006 
L 2144 3546 
L 2970 3546 
L 2970 1965 
L 1984 1965 
L 1984 1498 
L 6144 1498 
L 6144 1965 
L 5158 1965 
L 5158 3546 
L 6074 3546 
L 6074 4006 
L 5158 4006 
L 5158 5312 
L 4685 5312 
z
M 3437 3546 
L 4685 3546 
L 4685 1965 
L 3437 1965 
L 3437 3546 
z
" transform="scale(0.015625)"/>
     </defs>
     <use xlink:href="#NotoSansCJKjp-Regular-3132"/>
     <use xlink:href="#NotoSansCJKjp-Regular-4d43" transform="translate(100 0)"/>
     <use xlink:href="#NotoSansCJKjp-Regular-e6c0" transform="translate(200 0)"/>
     <use xlink:href="#NotoSansCJKjp-Regular-a106" transform="translate(300 0)"/>
     <use xlink:href="#NotoSansCJKjp-Regular-2c71" transform="translate(400 0)"/>
     <use xlink:href="#NotoSansCJKjp-Regular-6c33" transform="translate(500 0)"/>
     <use xlink:href="#NotoSansCJKjp-Regular-2b89" transform="translate(600 0)"/>
     <use xlink:href="#NotoSansCJKjp-Regular-7a17" transform="translate(700 0)"/>
     <use xlink:href="#NotoSansCJKjp-Regular-2b86" transform="translate(800 0)"/>
     <use xlink:href="#NotoSansCJKjp-Regular-a108" transform="translate(900 0)"/>
     <use xlink:href="#NotoSansCJKjp-Regular-4b20" transform="translate(1000 0)"/>
     <use xlink:href="#NotoSansCJKjp-Regular-2760" transform="translate(1100 0)"/>
     <use xlink:href="#NotoSansCJKjp-Regular-3351" transform="translate(1200 0)"/>
     <use xlink:href="#NotoSansCJKjp-Regular-441d" transform="translate(1300 0)"/>
     <use xlink:href="#NotoSansCJKjp-Regular-2c71" transform="translate(1400 0)"/>
    </g>
   </g>
   <g id="patch_4">
    <path d="M 260.976919 246.209951 
C 265.281888 246.209951 269.411117 244.499569 272.45519 241.455496 
C 275.499264 238.411423 277.209646 234.282194 277.209646 229.977224 
C 277.209646 225.672255 275.499264 221.543026 272.45519 218.498953 
C 269.411117 215.454879 265.281888 213.744497 260.976919 213.744497 
C 256.671949 213.744497 252.54272 215.454879 249.498647 218.498953 
C 246.454574 221.543026 244.744192 225.672255 244.744192 229.977224 
C 244.744192 234.282194 246.454574 238.411423 249.498647 241.455496 
C 252.54272 244.499569 256.671949 246.209951 260.976919 246.209951 
z
" clip-path="url(#p57091fc460)" style="fill: #dbe7ff; stroke: #222831; stroke-width: 1.6; stroke-linejoin: miter"/>
   </g>
   <g id="patch_5">
    <path d="M 260.976919 229.977224 
Q 260.976919 284.086315 260.976919 335.512124 
" clip-path="url(#p57091fc460)" style="fill: none; stroke: #d1242f; stroke-width: 2.4; stroke-linecap: round"/>
    <path d="M 264.576919 328.312124 
L 260.976919 335.512124 
L 257.376919 328.312124 
z
" clip-path="url(#p57091fc460)" style="fill: #d1242f; stroke: #d1242f; stroke-width: 2.4; stroke-linecap: round"/>
   </g>
   <g id="patch_6">
    <path d="M 260.976919 229.977224 
Q 283.406154 272.160479 304.575664 311.974538 
" clip-path="url(#p57091fc460)" style="fill: none; stroke-dasharray: 8.88,3.84; stroke-dashoffset: 0; stroke: #6b7280; stroke-width: 2.4; stroke-linecap: round"/>
    <path d="M 304.37408 303.927217 
L 304.575664 311.974538 
L 298.016857 307.307413 
z
" clip-path="url(#p57091fc460)" style="fill: #6b7280; stroke-dasharray: 8.88,3.84; stroke-dashoffset: 0; stroke: #6b7280; stroke-width: 2.4; stroke-linecap: round"/>
   </g>
   <g id="patch_7">
    <path d="M 260.976919 229.977224 
Q 238.547684 241.90306 218.487646 252.569171 
" clip-path="url(#p57091fc460)" style="fill: none; stroke: #1f6feb; stroke-width: 2.4; stroke-linecap: round"/>
    <path d="M 226.534967 252.367587 
L 218.487646 252.569171 
L 223.154771 246.010364 
z
" clip-path="url(#p57091fc460)" style="fill: #1f6feb; stroke: #1f6feb; stroke-width: 2.4; stroke-linecap: round"/>
   </g>
   <g id="patch_8">
    <path d="M 260.976919 229.977224 
Q 240.654775 191.756831 221.592356 155.905635 
" clip-path="url(#p57091fc460)" style="fill: none; stroke: #1a7f37; stroke-width: 2.4; stroke-linecap: round"/>
    <path d="M 221.79394 163.952955 
L 221.592356 155.905635 
L 228.151163 160.57276 
z
" clip-path="url(#p57091fc460)" style="fill: #1a7f37; stroke: #1a7f37; stroke-width: 2.4; stroke-linecap: round"/>
   </g>
  </g>
 </g>
 <defs>
  <clipPath id="p57091fc460">
   <rect x="7.2" y="25.52" width="357.12" height="303.010909"/>
  </clipPath>
 </defs>
 <defs>
  <pattern id="h123f881f7a" patternUnits="userSpaceOnUse" x="0" y="0" width="72" height="72">
   <rect x="0" y="0" width="73" height="73" fill="#cfd4da"/>
   <path d="M -36 36 
L 36 -36 
M -33 39 
L 39 -33 
M -30 42 
L 42 -30 
M -27 45 
L 45 -27 
M -24 48 
L 48 -24 
M -21 51 
L 51 -21 
M -18 54 
L 54 -18 
M -15 57 
L 57 -15 
M -12 60 
L 60 -12 
M -9 63 
L 63 -9 
M -6 66 
L 66 -6 
M -3 69 
L 69 -3 
M 0 72 
L 72 0 
M 3 75 
L 75 3 
M 6 78 
L 78 6 
M 9 81 
L 81 9 
M 12 84 
L 84 12 
M 15 87 
L 87 15 
M 18 90 
L 90 18 
M 21 93 
L 93 21 
M 24 96 
L 96 24 
M 27 99 
L 99 27 
M 30 102 
L 102 30 
M 33 105 
L 105 33 
M 36 108 
L 108 36 
" style="fill: #222831; stroke: #222831; stroke-width: 1.0; stroke-linecap: butt; stroke-linejoin: miter"/>
  </pattern>
 </defs>
</svg>
