<?xml version="1.0" encoding="utf-8" standalone="no"?>
<!DOCTYPE svg PUBLIC "-//W3C//DTD SVG 1.1//EN"
  "http://www.w3.org/Graphics/SVG/1.1/DTD/svg11.dtd">
<svg xmlns:xlink="http://www.w3.org/1999/xlink" width="535.26pt" height="467.136pt" viewBox="0 0 535.26 467.136" xmlns="http://www.w3.org/2000/svg" version="1.1">
 <metadata>
  <rdf:RDF xmlns:dc="http://purl.org/dc/elements/1.1/" xmlns:cc="http://creativecommons.org/ns#" xmlns:rdf="http://www.w3.org/1999/02/22-rdf-syntax-ns#">
   <cc:Work>
    <dc:type rdf:resource="http://purl.org/dc/dcmitype/StillImage"/>
    <dc:date>2026-06-20T18:00:48.091217</dc:date>
    <dc:format>image/svg+xml</dc:format>
    <dc:creator>
     <cc:Agent>
      <dc:title>Matplotlib v3.11.0, https://matplotlib.org/</dc:title>
     </cc:Agent>
    </dc:creator>
   </cc:Work>
  </rdf:RDF>
 </metadata>
 <defs>
  <style type="text/css">*{stroke-linejoin: round; stroke-linecap: butt}</style>
 </defs>
 <g id="figure_1">
  <g id="patch_1">
   <path d="M 0 467.136 
L 535.26 467.136 
L 535.26 0 
L 0 0 
z
" style="fill: #ffffff"/>
  </g>
  <g id="axes_1">
   <g id="patch_2">
    <path d="M 62.24 168.594667 
L 521.52 168.594667 
L 521.52 74.464 
L 62.24 74.464 
z
" style="fill: #ffffff"/>
   </g>
   <g id="matplotlib.axis_1">
    <g id="xtick_1">
     <g id="line2d_1">
      <path d="M 62.24 168.594667 
L 62.24 74.464 
" clip-path="url(#p59cfc9acbd)" style="fill: none; stroke: #d8dde3; stroke-width: 0.9; stroke-linecap: square"/>
     </g>
     <g id="line2d_2">
      <defs>
       <path id="m08f103f689" d="M 0 0 
L 0 3.5 
" style="stroke: #222831; stroke-width: 0.8"/>
      </defs>
      <g>
       <use xlink:href="#m08f103f689" x="62.24" y="168.594667" style="fill: #222831; stroke: #222831; stroke-width: 0.8"/>
      </g>
     </g>
    </g>
    <g id="xtick_2">
     <g id="line2d_3">
      <path d="M 119.65 168.594667 
L 119.65 74.464 
" clip-path="url(#p59cfc9acbd)" style="fill: none; stroke: #d8dde3; stroke-width: 0.9; stroke-linecap: square"/>
     </g>
     <g id="line2d_4">
      <g>
       <use xlink:href="#m08f103f689" x="119.65" y="168.594667" style="fill: #222831; stroke: #222831; stroke-width: 0.8"/>
      </g>
     </g>
    </g>
    <g id="xtick_3">
     <g id="line2d_5">
      <path d="M 177.06 168.594667 
L 177.06 74.464 
" clip-path="url(#p59cfc9acbd)" style="fill: none; stroke: #d8dde3; stroke-width: 0.9; stroke-linecap: square"/>
     </g>
     <g id="line2d_6">
      <g>
       <use xlink:href="#m08f103f689" x="177.06" y="168.594667" style="fill: #222831; stroke: #222831; stroke-width: 0.8"/>
      </g>
     </g>
    </g>
    <g id="xtick_4">
     <g id="line2d_7">
      <path d="M 234.47 168.594667 
L 234.47 74.464 
" clip-path="url(#p59cfc9acbd)" style="fill: none; stroke: #d8dde3; stroke-width: 0.9; stroke-linecap: square"/>
     </g>
     <g id="line2d_8">
      <g>
       <use xlink:href="#m08f103f689" x="234.47" y="168.594667" style="fill: #222831; stroke: #222831; stroke-width: 0.8"/>
      </g>
     </g>
    </g>
    <g id="xtick_5">
     <g id="line2d_9">
      <path d="M 291.88 168.594667 
L 291.88 74.464 
" clip-path="url(#p59cfc9acbd)" style="fill: none; stroke: #d8dde3; stroke-width: 0.9; stroke-linecap: square"/>
     </g>
     <g id="line2d_10">
      <g>
       <use xlink:href="#m08f103f689" x="291.88" y="168.594667" style="fill: #222831; stroke: #222831; stroke-width: 0.8"/>
      </g>
     </g>
    </g>
    <g id="xtick_6">
     <g id="line2d_11">
      <path d="M 349.29 168.594667 
L 349.29 74.464 
" clip-path="url(#p59cfc9acbd)" style="fill: none; stroke: #d8dde3; stroke-width: 0.9; stroke-linecap: square"/>
     </g>
     <g id="line2d_12">
      <g>
       <use xlink:href="#m08f103f689" x="349.29" y="168.594667" style="fill: #222831; stroke: #222831; stroke-width: 0.8"/>
      </g>
     </g>
    </g>
    <g id="xtick_7">
     <g id="line2d_13">
      <path d="M 406.7 168.594667 
L 406.7 74.464 
" clip-path="url(#p59cfc9acbd)" style="fill: none; stroke: #d8dde3; stroke-width: 0.9; stroke-linecap: square"/>
     </g>
     <g id="line2d_14">
      <g>
       <use xlink:href="#m08f103f689" x="406.7" y="168.594667" style="fill: #222831; stroke: #222831; stroke-width: 0.8"/>
      </g>
     </g>
    </g>
    <g id="xtick_8">
     <g id="line2d_15">
      <path d="M 464.11 168.594667 
L 464.11 74.464 
" clip-path="url(#p59cfc9acbd)" style="fill: none; stroke: #d8dde3; stroke-width: 0.9; stroke-linecap: square"/>
     </g>
     <g id="line2d_16">
      <g>
       <use xlink:href="#m08f103f689" x="464.11" y="168.594667" style="fill: #222831; stroke: #222831; stroke-width: 0.8"/>
      </g>
     </g>
    </g>
    <g id="xtick_9">
     <g id="line2d_17">
      <path d="M 521.52 168.594667 
L 521.52 74.464 
" clip-path="url(#p59cfc9acbd)" style="fill: none; stroke: #d8dde3; stroke-width: 0.9; stroke-linecap: square"/>
     </g>
     <g id="line2d_18">
      <g>
       <use xlink:href="#m08f103f689" x="521.52" y="168.594667" style="fill: #222831; stroke: #222831; stroke-width: 0.8"/>
      </g>
     </g>
    </g>
   </g>
   <g id="matplotlib.axis_2">
    <g id="ytick_1">
     <g id="line2d_19">
      <path d="M 62.24 152.906222 
L 521.52 152.906222 
" clip-path="url(#p59cfc9acbd)" style="fill: none; stroke: #d8dde3; stroke-width: 0.9; stroke-linecap: square"/>
     </g>
     <g id="line2d_20">
      <defs>
       <path id="m91ac47b1fb" d="M 0 0 
L -3.5 0 
" style="stroke: #222831; stroke-width: 0.8"/>
      </defs>
      <g>
       <use xlink:href="#m91ac47b1fb" x="62.24" y="152.906222" style="fill: #222831; stroke: #222831; stroke-width: 0.8"/>
      </g>
     </g>
     <g id="text_1">
      <!-- $-A$ -->
      <g style="fill: #222831" transform="translate(36.88 158.186222) scale(0.12 -0.12)">
       <defs>
        <path id="Cmsy10-11" d="M 653 1472 
Q 600 1472 565 1512 
Q 531 1553 531 1600 
Q 531 1647 565 1687 
Q 600 1728 653 1728 
L 4325 1728 
Q 4375 1728 4408 1687 
Q 4441 1647 4441 1600 
Q 4441 1553 4408 1512 
Q 4375 1472 4325 1472 
L 653 1472 
z
" transform="scale(0.015625)"/>
        <path id="Cmmi10-5c" d="M 288 0 
Q 225 0 225 84 
Q 250 225 306 225 
Q 566 225 755 328 
Q 944 431 1081 647 
Q 1094 659 1094 659 
L 3378 4513 
Q 3428 4581 3500 4581 
L 3584 4581 
Q 3603 4581 3622 4573 
Q 3641 4566 3655 4548 
Q 3669 4531 3669 4513 
L 4056 378 
Q 4056 350 4084 294 
Q 4147 225 4563 225 
Q 4628 225 4628 141 
Q 4606 56 4592 28 
Q 4578 0 4519 0 
L 2919 0 
Q 2859 0 2859 84 
Q 2894 225 2944 225 
Q 3450 225 3481 397 
L 3384 1453 
L 1806 1453 
L 1294 594 
Q 1247 525 1247 434 
Q 1247 322 1355 273 
Q 1463 225 1594 225 
Q 1656 225 1656 141 
Q 1634 50 1621 25 
Q 1609 0 1550 0 
L 288 0 
z
M 1931 1678 
L 3359 1678 
L 3169 3750 
L 1931 1678 
z
" transform="scale(0.015625)"/>
       </defs>
       <use xlink:href="#Cmsy10-11" transform="translate(0 0.421875)"/>
       <use xlink:href="#Cmmi10-5c" transform="translate(77.685547 0.421875)"/>
      </g>
     </g>
    </g>
    <g id="ytick_2">
     <g id="line2d_21">
      <path d="M 62.24 121.529333 
L 521.52 121.529333 
" clip-path="url(#p59cfc9acbd)" style="fill: none; stroke: #d8dde3; stroke-width: 0.9; stroke-linecap: square"/>
     </g>
     <g id="line2d_22">
      <g>
       <use xlink:href="#m91ac47b1fb" x="62.24" y="121.529333" style="fill: #222831; stroke: #222831; stroke-width: 0.8"/>
      </g>
     </g>
     <g id="text_2">
      <!-- 0 -->
      <g style="fill: #222831" transform="translate(48.58 126.809333) scale(0.12 -0.12)">
       <defs>
        <path id="NotoSansCJKjp-Regular-11" d="M 1779 -83 
C 2669 -83 3238 723 3238 2362 
C 3238 3987 2669 4774 1779 4774 
C 883 4774 320 3987 320 2362 
C 320 723 883 -83 1779 -83 
z
M 1779 390 
C 1248 390 883 986 883 2362 
C 883 3731 1248 4314 1779 4314 
C 2310 4314 2675 3731 2675 2362 
C 2675 986 2310 390 1779 390 
z
" transform="scale(0.015625)"/>
       </defs>
       <use xlink:href="#NotoSansCJKjp-Regular-11"/>
      </g>
     </g>
    </g>
    <g id="ytick_3">
     <g id="line2d_23">
      <path d="M 62.24 90.152444 
L 521.52 90.152444 
" clip-path="url(#p59cfc9acbd)" style="fill: none; stroke: #d8dde3; stroke-width: 0.9; stroke-linecap: square"/>
     </g>
     <g id="line2d_24">
      <g>
       <use xlink:href="#m91ac47b1fb" x="62.24" y="90.152444" style="fill: #222831; stroke: #222831; stroke-width: 0.8"/>
      </g>
     </g>
     <g id="text_3">
      <!-- $+A$ -->
      <g style="fill: #222831" transform="translate(36.88 95.432444) scale(0.12 -0.12)">
       <defs>
        <path id="Cmr10-4c" d="M 481 1472 
Q 428 1472 393 1512 
Q 359 1553 359 1600 
Q 359 1647 393 1687 
Q 428 1728 481 1728 
L 2363 1728 
L 2363 3616 
Q 2363 3666 2400 3698 
Q 2438 3731 2491 3731 
Q 2538 3731 2578 3698 
Q 2619 3666 2619 3616 
L 2619 1728 
L 4500 1728 
Q 4547 1728 4581 1687 
Q 4616 1647 4616 1600 
Q 4616 1553 4581 1512 
Q 4547 1472 4500 1472 
L 2619 1472 
L 2619 -416 
Q 2619 -466 2578 -498 
Q 2538 -531 2491 -531 
Q 2438 -531 2400 -498 
Q 2363 -466 2363 -416 
L 2363 1472 
L 481 1472 
z
" transform="scale(0.015625)"/>
       </defs>
       <use xlink:href="#Cmr10-4c" transform="translate(0 0.421875)"/>
       <use xlink:href="#Cmmi10-5c" transform="translate(77.685547 0.421875)"/>
      </g>
     </g>
    </g>
    <g id="text_4">
     <!-- 位置 $x$ -->
     <g style="fill: #222831" transform="translate(31.44 138.329333) rotate(-90) scale(0.12 -0.12)">
      <defs>
       <path id="NotoSansCJKjp-Regular-26e3" d="M 2630 3155 
C 2867 2304 3066 1190 3110 544 
L 3578 646 
C 3526 1280 3302 2381 3059 3232 
L 2630 3155 
z
M 2106 4115 
L 2106 3661 
L 6016 3661 
L 6016 4115 
L 4250 4115 
L 4250 5299 
L 3770 5299 
L 3770 4115 
L 2106 4115 
z
M 1946 243 
L 1946 -211 
L 6176 -211 
L 6176 243 
L 4634 243 
C 4928 1043 5261 2246 5485 3194 
L 4966 3283 
C 4800 2362 4461 1056 4166 243 
L 1946 243 
z
M 1773 5357 
C 1395 4390 774 3443 128 2835 
C 211 2720 352 2470 397 2355 
C 640 2598 877 2880 1107 3194 
L 1107 -493 
L 1568 -493 
L 1568 3891 
C 1818 4314 2048 4762 2227 5216 
L 1773 5357 
z
" transform="scale(0.015625)"/>
       <path id="NotoSansCJKjp-Regular-7ccb" d="M 4154 4762 
L 5235 4762 
L 5235 4186 
L 4154 4186 
L 4154 4762 
z
M 2656 4762 
L 3712 4762 
L 3712 4186 
L 2656 4186 
L 2656 4762 
z
M 1197 4762 
L 2214 4762 
L 2214 4186 
L 1197 4186 
L 1197 4762 
z
M 2374 1798 
L 4979 1798 
L 4979 1440 
L 2374 1440 
L 2374 1798 
z
M 2374 1152 
L 4979 1152 
L 4979 794 
L 2374 794 
L 2374 1152 
z
M 2374 2432 
L 4979 2432 
L 4979 2086 
L 2374 2086 
L 2374 2432 
z
M 1920 2726 
L 1920 499 
L 5440 499 
L 5440 2726 
L 3347 2726 
L 3418 3104 
L 5971 3104 
L 5971 3482 
L 3482 3482 
L 3533 3834 
L 5715 3834 
L 5715 5107 
L 736 5107 
L 736 3834 
L 3046 3834 
L 3002 3482 
L 435 3482 
L 435 3104 
L 2944 3104 
L 2880 2726 
L 1920 2726 
z
M 787 2630 
L 787 -518 
L 1274 -518 
L 1274 -243 
L 6138 -243 
L 6138 141 
L 1274 141 
L 1274 2630 
L 787 2630 
z
" transform="scale(0.015625)"/>
       <path id="NotoSansCJKjp-Regular-1" transform="scale(0.015625)"/>
       <path id="Cmmi10-3f" d="M 500 184 
Q 613 97 819 97 
Q 1019 97 1172 289 
Q 1325 481 1381 709 
L 1672 1844 
Q 1741 2153 1741 2266 
Q 1741 2425 1652 2544 
Q 1563 2663 1403 2663 
Q 1200 2663 1022 2536 
Q 844 2409 722 2214 
Q 600 2019 550 1819 
Q 538 1778 500 1778 
L 422 1778 
Q 372 1778 372 1838 
L 372 1856 
Q 434 2094 584 2320 
Q 734 2547 951 2687 
Q 1169 2828 1416 2828 
Q 1650 2828 1839 2703 
Q 2028 2578 2106 2363 
Q 2216 2559 2386 2693 
Q 2556 2828 2759 2828 
Q 2897 2828 3040 2779 
Q 3184 2731 3275 2631 
Q 3366 2531 3366 2381 
Q 3366 2219 3261 2101 
Q 3156 1984 2994 1984 
Q 2891 1984 2822 2050 
Q 2753 2116 2753 2216 
Q 2753 2350 2845 2451 
Q 2938 2553 3066 2572 
Q 2950 2663 2747 2663 
Q 2541 2663 2389 2472 
Q 2238 2281 2175 2047 
L 1894 916 
Q 1825 659 1825 494 
Q 1825 331 1917 214 
Q 2009 97 2163 97 
Q 2463 97 2698 361 
Q 2934 625 3009 941 
Q 3022 978 3059 978 
L 3138 978 
Q 3163 978 3178 961 
Q 3194 944 3194 922 
Q 3194 916 3188 903 
Q 3097 522 2806 225 
Q 2516 -72 2150 -72 
Q 1916 -72 1727 54 
Q 1538 181 1459 397 
Q 1359 209 1182 68 
Q 1006 -72 806 -72 
Q 669 -72 523 -23 
Q 378 25 287 125 
Q 197 225 197 378 
Q 197 528 301 651 
Q 406 775 563 775 
Q 669 775 741 711 
Q 813 647 813 544 
Q 813 409 723 309 
Q 634 209 500 184 
z
" transform="scale(0.015625)"/>
      </defs>
      <use xlink:href="#NotoSansCJKjp-Regular-26e3" transform="translate(0 0.296875)"/>
      <use xlink:href="#NotoSansCJKjp-Regular-7ccb" transform="translate(99.999908 0.296875)"/>
      <use xlink:href="#NotoSansCJKjp-Regular-1" transform="translate(199.999817 0.296875)"/>
      <use xlink:href="#Cmmi10-3f" transform="translate(222.399796 0.296875)"/>
     </g>
    </g>
   </g>
   <g id="line2d_25">
    <path d="M 62.24 90.152444 
L 65.306978 90.262855 
L 68.373957 90.59331 
L 71.440935 91.141484 
L 74.507913 91.903518 
L 77.574891 92.874051 
L 80.64187 94.04625 
L 84.475593 95.782397 
L 88.309316 97.801574 
L 92.143038 100.081585 
L 95.976761 102.597367 
L 100.577229 105.888418 
L 105.944441 110.036896 
L 112.078397 115.075481 
L 123.579566 124.896385 
L 132.013756 131.942375 
L 137.380968 136.161316 
L 141.981436 139.530122 
L 146.581903 142.614097 
L 150.415626 144.931138 
L 154.249349 146.990928 
L 158.083072 148.770824 
L 161.15005 149.97996 
L 164.217028 150.988869 
L 167.284007 151.79045 
L 170.350985 152.379062 
L 173.417963 152.750563 
L 176.484942 152.902338 
L 179.55192 152.833319 
L 182.618898 152.543992 
L 185.685876 152.036393 
L 188.752855 151.314094 
L 191.819833 150.382178 
L 194.886811 149.247205 
L 198.720534 147.555238 
L 202.554257 145.577174 
L 206.38798 143.334757 
L 210.221703 140.852638 
L 214.82217 137.596274 
L 220.189382 133.479712 
L 226.323339 128.465501 
L 236.291018 119.966629 
L 245.491953 112.209721 
L 251.62591 107.335867 
L 256.226377 103.935122 
L 260.826845 100.812774 
L 264.660568 98.459277 
L 268.49429 96.359383 
L 272.328013 94.536178 
L 275.394992 93.290405 
L 278.46197 92.24337 
L 281.528948 91.40244 
L 284.595927 90.773535 
L 287.662905 90.361081 
L 290.729883 90.167979 
L 293.796861 90.195589 
L 296.86384 90.443717 
L 299.930818 90.910616 
L 302.997796 91.593001 
L 306.064775 92.48607 
L 309.131753 93.583536 
L 312.198731 94.877676 
L 316.032454 96.757923 
L 319.866177 98.910477 
L 323.6999 101.311675 
L 328.300367 104.483983 
L 332.900835 107.926003 
L 338.268047 112.209721 
L 345.935492 118.653518 
L 361.270384 131.631334 
L 366.637596 135.869367 
L 371.238063 139.259559 
L 375.838531 142.369202 
L 379.672254 144.710611 
L 383.505977 146.797194 
L 387.339699 148.606013 
L 390.406678 149.839607 
L 393.473656 150.873962 
L 396.540634 151.701798 
L 399.607613 152.317289 
L 402.674591 152.716103 
L 405.741569 152.895434 
L 408.808548 152.85402 
L 411.875526 152.592151 
L 414.942504 152.111672 
L 418.009482 151.415963 
L 421.076461 150.509921 
L 424.143439 149.399921 
L 427.210417 148.093777 
L 431.04414 146.199398 
L 434.877863 144.033826 
L 438.711586 141.620867 
L 443.312053 138.436287 
L 447.912521 134.984184 
L 453.279733 130.691681 
L 460.947179 124.24124 
L 475.515326 111.895966 
L 481.649282 107.043126 
L 486.24975 103.66358 
L 490.850217 100.566729 
L 494.68394 98.237472 
L 498.517663 96.164257 
L 502.351386 94.369874 
L 505.418364 93.148493 
L 508.485342 92.126847 
L 511.552321 91.312127 
L 514.619299 90.710067 
L 517.686277 90.324904 
L 520.753255 90.159349 
L 521.52 90.152444 
L 521.52 90.152444 
" clip-path="url(#p59cfc9acbd)" style="fill: none; stroke: #1f6feb; stroke-width: 2.6; stroke-linecap: square"/>
   </g>
   <g id="line2d_26">
    <path d="M 62.24 121.529333 
L 521.52 121.529333 
" clip-path="url(#p59cfc9acbd)" style="fill: none; stroke: #222831; stroke-width: 0.9; stroke-linecap: square"/>
   </g>
   <g id="line2d_27">
    <path d="M 62.24 168.594667 
L 62.24 74.464 
" clip-path="url(#p59cfc9acbd)" style="fill: none; stroke-dasharray: 0.9,1.485; stroke-dashoffset: 0; stroke: #c2c7cd; stroke-width: 0.9"/>
   </g>
   <g id="line2d_28">
    <path d="M 119.65 168.594667 
L 119.65 74.464 
" clip-path="url(#p59cfc9acbd)" style="fill: none; stroke-dasharray: 0.9,1.485; stroke-dashoffset: 0; stroke: #c2c7cd; stroke-width: 0.9"/>
   </g>
   <g id="line2d_29">
    <path d="M 291.88 168.594667 
L 291.88 74.464 
" clip-path="url(#p59cfc9acbd)" style="fill: none; stroke-dasharray: 0.9,1.485; stroke-dashoffset: 0; stroke: #c2c7cd; stroke-width: 0.9"/>
   </g>
   <g id="patch_3">
    <path d="M 62.24 168.594667 
L 62.24 74.464 
" style="fill: none; stroke: #222831; stroke-width: 1.1; stroke-linejoin: miter; stroke-linecap: square"/>
   </g>
   <g id="patch_4">
    <path d="M 62.24 168.594667 
L 521.52 168.594667 
" style="fill: none; stroke: #222831; stroke-width: 1.1; stroke-linejoin: miter; stroke-linecap: square"/>
   </g>
   <g id="text_5">
    <!-- 端點 -->
    <g style="fill: #222831" transform="translate(66.8328 84.504604) scale(0.095 -0.095)">
     <defs>
      <path id="NotoSansCJKjp-Regular-73f7" d="M 467 3341 
C 608 2688 704 1830 710 1274 
L 1101 1338 
C 1094 1901 992 2746 838 3405 
L 467 3341 
z
M 2618 2022 
L 2618 -506 
L 3053 -506 
L 3053 1606 
L 3610 1606 
L 3610 -442 
L 3994 -442 
L 3994 1606 
L 4589 1606 
L 4589 -422 
L 4973 -422 
L 4973 1606 
L 5562 1606 
L 5562 -58 
C 5562 -109 5549 -128 5491 -128 
C 5440 -134 5280 -134 5101 -128 
C 5158 -237 5216 -403 5229 -518 
C 5523 -518 5702 -512 5837 -442 
C 5965 -378 5997 -262 5997 -64 
L 5997 2022 
L 4326 2022 
L 4518 2624 
L 6138 2624 
L 6138 3059 
L 2413 3059 
L 2413 2624 
L 3981 2624 
C 3942 2426 3904 2208 3859 2022 
L 2618 2022 
z
M 2694 5056 
L 2694 3533 
L 5914 3533 
L 5914 5056 
L 5453 5056 
L 5453 3955 
L 4486 3955 
L 4486 5363 
L 4026 5363 
L 4026 3955 
L 3136 3955 
L 3136 5056 
L 2694 5056 
z
M 1139 5293 
L 1139 4090 
L 333 4090 
L 333 3654 
L 2355 3654 
L 2355 4090 
L 1574 4090 
L 1574 5293 
L 1139 5293 
z
M 1754 3456 
C 1690 2752 1542 1728 1402 1126 
L 1568 1082 
L 211 794 
L 320 326 
C 934 467 1747 666 2515 864 
L 2464 1280 
L 1786 1126 
C 1926 1722 2086 2650 2202 3360 
L 1754 3456 
z
" transform="scale(0.015625)"/>
      <path id="NotoSansCJKjp-Regular-b7c4" d="M 966 4474 
C 1069 4166 1152 3757 1165 3494 
L 1421 3565 
C 1402 3821 1312 4230 1203 4538 
L 966 4474 
z
M 1178 813 
C 1267 454 1338 0 1331 -307 
L 1664 -262 
C 1664 38 1594 499 1498 851 
L 1178 813 
z
M 1792 851 
C 1939 518 2067 90 2106 -192 
L 2432 -115 
C 2387 166 2246 589 2099 915 
L 1792 851 
z
M 2406 934 
C 2618 634 2848 224 2938 -45 
L 3258 96 
C 3162 365 2931 762 2701 1056 
L 2406 934 
z
M 634 838 
C 582 390 454 -70 205 -333 
L 538 -512 
C 806 -224 915 269 973 742 
L 634 838 
z
M 2272 4557 
C 2214 4262 2086 3808 1997 3533 
L 2202 3456 
C 2317 3706 2445 4122 2554 4454 
L 2272 4557 
z
M 4314 5363 
L 4314 2330 
L 3379 2330 
L 3379 -506 
L 3827 -506 
L 3827 -211 
L 5440 -211 
L 5440 -480 
L 5901 -480 
L 5901 2330 
L 4781 2330 
L 4781 3526 
L 6150 3526 
L 6150 3974 
L 4781 3974 
L 4781 5363 
L 4314 5363 
z
M 3827 237 
L 3827 1894 
L 5440 1894 
L 5440 237 
L 3827 237 
z
M 877 4794 
L 1568 4794 
L 1568 3245 
L 877 3245 
L 877 4794 
z
M 1894 4794 
L 2637 4794 
L 2637 3245 
L 1894 3245 
L 1894 4794 
z
M 448 2451 
L 448 2067 
L 1517 2067 
L 1517 1568 
L 314 1510 
L 333 1088 
C 1075 1133 2138 1203 3155 1274 
L 3168 1658 
L 1946 1594 
L 1946 2067 
L 3072 2067 
L 3072 2451 
L 1946 2451 
L 1946 2893 
L 3027 2893 
L 3027 5146 
L 493 5146 
L 493 2893 
L 1517 2893 
L 1517 2451 
L 448 2451 
z
" transform="scale(0.015625)"/>
     </defs>
     <use xlink:href="#NotoSansCJKjp-Regular-73f7"/>
     <use xlink:href="#NotoSansCJKjp-Regular-b7c4" transform="translate(100 0)"/>
    </g>
   </g>
   <g id="text_6">
    <!-- 平衡點 -->
    <g style="fill: #222831" transform="translate(124.2428 84.504604) scale(0.095 -0.095)">
     <defs>
      <path id="NotoSansCJKjp-Regular-41d6" d="M 1114 4032 
C 1363 3558 1613 2938 1702 2554 
L 2157 2714 
C 2067 3085 1805 3699 1549 4160 
L 1114 4032 
z
M 4832 4192 
C 4672 3725 4378 3072 4134 2669 
L 4550 2534 
C 4800 2918 5101 3533 5338 4051 
L 4832 4192 
z
M 333 2227 
L 333 1747 
L 2938 1747 
L 2938 -506 
L 3437 -506 
L 3437 1747 
L 6074 1747 
L 6074 2227 
L 3437 2227 
L 3437 4467 
L 5715 4467 
L 5715 4947 
L 672 4947 
L 672 4467 
L 2938 4467 
L 2938 2227 
L 333 2227 
z
" transform="scale(0.015625)"/>
      <path id="NotoSansCJKjp-Regular-8f85" d="M 1267 5376 
C 1037 4954 582 4435 179 4102 
C 256 4019 378 3840 435 3738 
C 896 4122 1389 4698 1709 5216 
L 1267 5376 
z
M 4589 5005 
L 4589 4563 
L 6067 4563 
L 6067 5005 
L 4589 5005 
z
M 1402 4096 
C 1088 3418 589 2739 109 2278 
C 192 2176 333 1958 384 1862 
C 570 2048 755 2266 941 2509 
L 941 -512 
L 1382 -512 
L 1382 3149 
L 1632 3565 
C 1734 3514 1882 3398 1952 3302 
L 2022 3386 
L 2022 1722 
L 2989 1722 
C 2982 1562 2970 1414 2950 1280 
L 1805 1280 
L 1805 883 
L 2867 883 
C 2720 365 2406 32 1722 -186 
C 1811 -262 1926 -422 1971 -525 
C 2592 -314 2950 -6 3155 429 
C 3520 166 3904 -166 4102 -410 
L 4403 -83 
C 4166 179 3693 550 3296 813 
L 3315 883 
L 4563 883 
L 4563 1280 
L 3386 1280 
C 3405 1421 3418 1568 3424 1722 
L 4390 1722 
L 4390 3872 
L 3648 3872 
C 3776 4122 3904 4416 3994 4672 
L 3693 4858 
L 3622 4838 
L 2861 4838 
C 2925 4992 2976 5139 3021 5286 
L 2586 5350 
C 2432 4813 2125 4134 1658 3610 
L 1830 3949 
L 1402 4096 
z
M 2701 4454 
L 3424 4454 
C 3360 4256 3277 4038 3194 3872 
L 2381 3872 
C 2502 4064 2605 4256 2701 4454 
z
M 2387 2637 
L 3021 2637 
L 3021 2074 
L 2387 2074 
L 2387 2637 
z
M 3386 2637 
L 4006 2637 
L 4006 2074 
L 3386 2074 
L 3386 2637 
z
M 2387 3520 
L 3021 3520 
L 3021 2970 
L 2387 2970 
L 2387 3520 
z
M 3386 3520 
L 4006 3520 
L 4006 2970 
L 3386 2970 
L 3386 3520 
z
M 4506 3360 
L 4506 2912 
L 5178 2912 
L 5178 64 
C 5178 -13 5158 -32 5082 -32 
C 4998 -38 4755 -38 4467 -32 
C 4531 -166 4589 -365 4608 -493 
C 4992 -493 5254 -486 5421 -403 
C 5587 -326 5632 -192 5632 64 
L 5632 2912 
L 6195 2912 
L 6195 3360 
L 4506 3360 
z
" transform="scale(0.015625)"/>
     </defs>
     <use xlink:href="#NotoSansCJKjp-Regular-41d6"/>
     <use xlink:href="#NotoSansCJKjp-Regular-8f85" transform="translate(100 0)"/>
     <use xlink:href="#NotoSansCJKjp-Regular-b7c4" transform="translate(200 0)"/>
    </g>
   </g>
   <g id="text_7">
    <!-- 位置 $x=A\cos\omega t$（端點 $v=0$、$|a|$ 最大） -->
    <g style="fill: #222831" transform="translate(184.48 68.464) scale(0.12 -0.12)">
     <defs>
      <path id="Cmr10-29" d="M 481 850 
Q 428 850 393 890 
Q 359 931 359 978 
Q 359 1031 393 1068 
Q 428 1106 481 1106 
L 4500 1106 
Q 4547 1106 4581 1068 
Q 4616 1031 4616 978 
Q 4616 931 4581 890 
Q 4547 850 4500 850 
L 481 850 
z
M 481 2094 
Q 428 2094 393 2131 
Q 359 2169 359 2222 
Q 359 2269 393 2309 
Q 428 2350 481 2350 
L 4500 2350 
Q 4547 2350 4581 2309 
Q 4616 2269 4616 2222 
Q 4616 2169 4581 2131 
Q 4547 2094 4500 2094 
L 481 2094 
z
" transform="scale(0.015625)"/>
      <path id="Cmr10-7b" d="M 1594 -72 
Q 1206 -72 890 129 
Q 575 331 394 667 
Q 213 1003 213 1381 
Q 213 1759 392 2106 
Q 572 2453 889 2661 
Q 1206 2869 1594 2869 
Q 1969 2869 2276 2722 
Q 2584 2575 2584 2241 
Q 2584 2116 2495 2023 
Q 2406 1931 2278 1931 
Q 2150 1931 2061 2023 
Q 1972 2116 1972 2241 
Q 1972 2353 2044 2436 
Q 2116 2519 2222 2541 
Q 2000 2681 1600 2681 
Q 1294 2681 1106 2478 
Q 919 2275 844 1975 
Q 769 1675 769 1381 
Q 769 1072 861 783 
Q 953 494 1158 305 
Q 1363 116 1672 116 
Q 1975 116 2187 302 
Q 2400 488 2478 788 
Q 2478 825 2528 825 
L 2606 825 
Q 2625 825 2640 808 
Q 2656 791 2656 769 
L 2656 750 
Q 2559 372 2271 150 
Q 1984 -72 1594 -72 
z
" transform="scale(0.015625)"/>
      <path id="Cmr10-42" d="M 1600 -72 
Q 1216 -72 887 123 
Q 559 319 368 647 
Q 178 975 178 1363 
Q 178 1656 283 1928 
Q 388 2200 583 2414 
Q 778 2628 1037 2748 
Q 1297 2869 1600 2869 
Q 1994 2869 2317 2661 
Q 2641 2453 2828 2104 
Q 3016 1756 3016 1363 
Q 3016 978 2825 648 
Q 2634 319 2307 123 
Q 1981 -72 1600 -72 
z
M 1600 116 
Q 2113 116 2284 487 
Q 2456 859 2456 1434 
Q 2456 1756 2422 1967 
Q 2388 2178 2272 2350 
Q 2200 2456 2089 2536 
Q 1978 2616 1854 2658 
Q 1731 2700 1600 2700 
Q 1400 2700 1220 2609 
Q 1041 2519 922 2350 
Q 803 2169 770 1951 
Q 738 1734 738 1434 
Q 738 1075 800 789 
Q 863 503 1052 309 
Q 1241 116 1600 116 
z
" transform="scale(0.015625)"/>
      <path id="Cmr10-52" d="M 213 -19 
L 213 1025 
Q 213 1075 269 1075 
L 347 1075 
Q 384 1075 397 1025 
Q 575 97 1259 97 
Q 1563 97 1767 234 
Q 1972 372 1972 659 
Q 1972 866 1812 1011 
Q 1653 1156 1434 1209 
L 1006 1294 
Q 791 1341 614 1437 
Q 438 1534 325 1695 
Q 213 1856 213 2069 
Q 213 2350 361 2529 
Q 509 2709 746 2789 
Q 984 2869 1259 2869 
Q 1588 2869 1831 2694 
L 2016 2853 
Q 2016 2869 2047 2869 
L 2094 2869 
Q 2113 2869 2128 2851 
Q 2144 2834 2144 2816 
L 2144 1978 
Q 2144 1919 2094 1919 
L 2016 1919 
Q 1959 1919 1959 1978 
Q 1959 2313 1773 2516 
Q 1588 2719 1253 2719 
Q 966 2719 755 2612 
Q 544 2506 544 2247 
Q 544 2069 695 1955 
Q 847 1841 1050 1791 
L 1484 1709 
Q 1703 1659 1892 1540 
Q 2081 1422 2192 1240 
Q 2303 1059 2303 831 
Q 2303 600 2223 429 
Q 2144 259 2001 146 
Q 1859 34 1665 -19 
Q 1472 -72 1259 -72 
Q 859 -72 575 197 
L 341 -56 
Q 341 -72 306 -72 
L 269 -72 
Q 213 -72 213 -19 
z
" transform="scale(0.015625)"/>
      <path id="Cmmi10-1d" d="M 775 -72 
Q 413 -72 252 193 
Q 91 459 91 844 
Q 91 1097 136 1339 
Q 181 1581 273 1829 
Q 366 2078 484 2295 
Q 603 2513 750 2719 
Q 778 2759 825 2759 
Q 866 2759 891 2734 
Q 916 2709 916 2675 
Q 916 2641 897 2613 
Q 313 1809 313 1131 
Q 313 838 448 627 
Q 584 416 863 416 
Q 1103 416 1308 556 
Q 1513 697 1663 916 
Q 1663 1028 1702 1265 
Q 1741 1503 1823 1689 
Q 1906 1875 2022 1875 
Q 2169 1875 2169 1703 
Q 2169 1603 2126 1451 
Q 2084 1300 2032 1169 
Q 1981 1038 1906 872 
Q 1981 416 2363 416 
Q 2584 416 2807 544 
Q 3031 672 3203 880 
Q 3375 1088 3473 1328 
Q 3572 1569 3572 1784 
Q 3572 1978 3511 2086 
Q 3450 2194 3350 2312 
Q 3250 2431 3250 2503 
Q 3250 2628 3356 2731 
Q 3463 2834 3584 2834 
Q 3741 2834 3806 2692 
Q 3872 2550 3872 2369 
Q 3872 2075 3755 1628 
Q 3638 1181 3488 884 
Q 3281 481 2970 204 
Q 2659 -72 2272 -72 
Q 2025 -72 1873 76 
Q 1722 225 1678 481 
Q 1500 228 1272 78 
Q 1044 -72 775 -72 
z
" transform="scale(0.015625)"/>
      <path id="Cmmi10-30" d="M 397 519 
Q 397 613 416 697 
L 878 2534 
L 206 2534 
Q 141 2534 141 2619 
Q 166 2759 225 2759 
L 934 2759 
L 1191 3803 
Q 1216 3888 1291 3947 
Q 1366 4006 1459 4006 
Q 1541 4006 1595 3957 
Q 1650 3909 1650 3828 
Q 1650 3809 1648 3798 
Q 1647 3788 1644 3775 
L 1388 2759 
L 2047 2759 
Q 2113 2759 2113 2675 
Q 2109 2659 2100 2621 
Q 2091 2584 2075 2559 
Q 2059 2534 2028 2534 
L 1331 2534 
L 872 684 
Q 825 503 825 372 
Q 825 97 1013 97 
Q 1294 97 1511 361 
Q 1728 625 1844 941 
Q 1869 978 1894 978 
L 1972 978 
Q 1997 978 2012 961 
Q 2028 944 2028 922 
Q 2028 909 2022 903 
Q 1881 516 1612 222 
Q 1344 -72 997 -72 
Q 744 -72 570 93 
Q 397 259 397 519 
z
" transform="scale(0.015625)"/>
      <path id="NotoSansCJKjp-Regular-e6ae" d="M 4448 2432 
C 4448 1184 4954 166 5722 -614 
L 6106 -416 
C 5370 346 4915 1293 4915 2432 
C 4915 3571 5370 4518 6106 5280 
L 5722 5478 
C 4954 4698 4448 3680 4448 2432 
z
" transform="scale(0.015625)"/>
      <path id="Cmmi10-38" d="M 684 722 
Q 684 866 718 1037 
Q 753 1209 787 1320 
Q 822 1431 944 1753 
Q 1066 2075 1069 2088 
Q 1153 2322 1153 2472 
Q 1153 2663 1013 2663 
Q 759 2663 595 2402 
Q 431 2141 353 1819 
Q 341 1778 300 1778 
L 225 1778 
Q 172 1778 172 1838 
L 172 1856 
Q 275 2238 487 2533 
Q 700 2828 1025 2828 
Q 1253 2828 1411 2678 
Q 1569 2528 1569 2297 
Q 1569 2178 1516 2047 
Q 1391 1722 1319 1526 
Q 1247 1331 1186 1089 
Q 1125 847 1125 641 
Q 1125 400 1236 248 
Q 1347 97 1581 97 
Q 2025 97 2381 781 
Q 2494 1003 2594 1303 
Q 2694 1603 2694 1791 
Q 2694 1984 2631 2092 
Q 2569 2200 2469 2317 
Q 2369 2434 2369 2503 
Q 2369 2628 2472 2731 
Q 2575 2834 2700 2834 
Q 2853 2834 2920 2693 
Q 2988 2553 2988 2375 
Q 2988 2163 2927 1869 
Q 2866 1575 2758 1259 
Q 2650 944 2559 763 
Q 2138 -72 1575 -72 
Q 1172 -72 928 129 
Q 684 331 684 722 
z
" transform="scale(0.015625)"/>
      <path id="Cmr10-28" d="M 1600 -141 
Q 816 -141 533 504 
Q 250 1150 250 2041 
Q 250 2597 351 3087 
Q 453 3578 754 3920 
Q 1056 4263 1600 4263 
Q 2022 4263 2290 4056 
Q 2559 3850 2700 3523 
Q 2841 3197 2892 2823 
Q 2944 2450 2944 2041 
Q 2944 1491 2842 1011 
Q 2741 531 2444 195 
Q 2147 -141 1600 -141 
z
M 1600 25 
Q 1956 25 2131 390 
Q 2306 756 2347 1200 
Q 2388 1644 2388 2144 
Q 2388 2625 2347 3031 
Q 2306 3438 2132 3767 
Q 1959 4097 1600 4097 
Q 1238 4097 1063 3765 
Q 888 3434 847 3029 
Q 806 2625 806 2144 
Q 806 1788 823 1472 
Q 841 1156 916 820 
Q 991 484 1158 254 
Q 1325 25 1600 25 
z
" transform="scale(0.015625)"/>
      <path id="NotoSansCJKjp-Regular-575" d="M 1747 -358 
L 2182 13 
C 1786 480 1210 1062 749 1434 
L 333 1069 
C 787 698 1338 147 1747 -358 
z
" transform="scale(0.015625)"/>
      <path id="Cmsy10-2f" d="M 763 -1484 
L 763 4684 
Q 763 4734 800 4767 
Q 838 4800 891 4800 
Q 938 4800 978 4767 
Q 1019 4734 1019 4684 
L 1019 -1484 
Q 1019 -1534 978 -1567 
Q 938 -1600 891 -1600 
Q 838 -1600 800 -1567 
Q 763 -1534 763 -1484 
z
" transform="scale(0.015625)"/>
      <path id="Cmmi10-79" d="M 1113 -72 
Q 709 -72 476 233 
Q 244 538 244 953 
Q 244 1363 456 1803 
Q 669 2244 1030 2536 
Q 1391 2828 1806 2828 
Q 1997 2828 2147 2725 
Q 2297 2622 2381 2444 
Q 2453 2700 2663 2700 
Q 2744 2700 2798 2651 
Q 2853 2603 2853 2522 
Q 2853 2503 2851 2493 
Q 2850 2484 2847 2472 
L 2400 684 
Q 2356 494 2356 372 
Q 2356 97 2541 97 
Q 2741 97 2845 351 
Q 2950 606 3022 941 
Q 3034 978 3072 978 
L 3150 978 
Q 3175 978 3190 956 
Q 3206 934 3206 916 
Q 3094 469 2961 198 
Q 2828 -72 2528 -72 
Q 2313 -72 2147 54 
Q 1981 181 1941 391 
Q 1528 -72 1113 -72 
z
M 1119 97 
Q 1350 97 1567 270 
Q 1784 444 1941 678 
Q 1947 684 1947 697 
L 2291 2088 
L 2297 2106 
Q 2259 2334 2132 2498 
Q 2006 2663 1791 2663 
Q 1575 2663 1389 2486 
Q 1203 2309 1075 2069 
Q 950 1813 836 1366 
Q 722 919 722 672 
Q 722 450 817 273 
Q 913 97 1119 97 
z
" transform="scale(0.015625)"/>
      <path id="NotoSansCJKjp-Regular-50c3" d="M 1600 4064 
L 4813 4064 
L 4813 3610 
L 1600 3610 
L 1600 4064 
z
M 1600 4832 
L 4813 4832 
L 4813 4384 
L 1600 4384 
L 1600 4832 
z
M 1139 5171 
L 1139 3270 
L 5293 3270 
L 5293 5171 
L 1139 5171 
z
M 2534 2509 
L 2534 2074 
L 1370 2074 
L 1370 2509 
L 2534 2509 
z
M 314 282 
L 358 -147 
L 2534 115 
L 2534 -512 
L 2995 -512 
L 2995 -109 
C 3091 -198 3200 -365 3251 -474 
C 3699 -320 4141 -96 4531 205 
C 4909 -115 5363 -358 5875 -506 
C 5939 -397 6061 -218 6163 -134 
C 5664 -6 5229 205 4858 486 
C 5280 883 5613 1389 5811 2010 
L 5517 2131 
L 5434 2112 
L 3219 2112 
L 3219 1722 
L 3776 1722 
L 3501 1638 
C 3674 1216 3910 832 4205 512 
C 3840 237 3418 32 2995 -90 
L 2995 2509 
L 6016 2509 
L 6016 2912 
L 371 2912 
L 371 2509 
L 928 2509 
L 928 339 
L 314 282 
z
M 3898 1722 
L 5222 1722 
C 5056 1363 4813 1050 4531 781 
C 4262 1050 4045 1370 3898 1722 
z
M 2534 1709 
L 2534 1261 
L 1370 1261 
L 1370 1709 
L 2534 1709 
z
M 2534 902 
L 2534 518 
L 1370 384 
L 1370 902 
L 2534 902 
z
" transform="scale(0.015625)"/>
      <path id="NotoSansCJKjp-Regular-36fb" d="M 2950 5370 
C 2944 4864 2950 4218 2854 3539 
L 397 3539 
L 397 3046 
L 2771 3046 
C 2515 1830 1875 589 275 -102 
C 410 -205 563 -378 640 -499 
C 2202 218 2893 1446 3206 2682 
C 3706 1222 4531 90 5773 -499 
C 5856 -358 6010 -160 6131 -51 
C 4890 467 4051 1632 3603 3046 
L 6029 3046 
L 6029 3539 
L 3366 3539 
C 3456 4211 3462 4851 3469 5370 
L 2950 5370 
z
" transform="scale(0.015625)"/>
      <path id="NotoSansCJKjp-Regular-e6af" d="M 1952 2432 
C 1952 3680 1446 4698 678 5478 
L 294 5280 
C 1030 4518 1485 3571 1485 2432 
C 1485 1293 1030 346 294 -416 
L 678 -614 
C 1446 166 1952 1184 1952 2432 
z
" transform="scale(0.015625)"/>
     </defs>
     <use xlink:href="#NotoSansCJKjp-Regular-26e3" transform="translate(0 0.40625)"/>
     <use xlink:href="#NotoSansCJKjp-Regular-7ccb" transform="translate(99.999908 0.40625)"/>
     <use xlink:href="#NotoSansCJKjp-Regular-1" transform="translate(199.999817 0.40625)"/>
     <use xlink:href="#Cmmi10-3f" transform="translate(222.399796 0.40625)"/>
     <use xlink:href="#Cmr10-29" transform="translate(299.479931 0.40625)"/>
     <use xlink:href="#Cmmi10-5c" transform="translate(397.165535 0.40625)"/>
     <use xlink:href="#Cmr10-7b" transform="translate(472.165535 0.40625)"/>
     <use xlink:href="#Cmr10-42" transform="translate(516.550301 0.40625)"/>
     <use xlink:href="#Cmr10-52" transform="translate(566.550301 0.40625)"/>
     <use xlink:href="#Cmmi10-1d" transform="translate(622.621645 0.40625)"/>
     <use xlink:href="#Cmmi10-30" transform="translate(684.828676 0.40625)"/>
     <use xlink:href="#NotoSansCJKjp-Regular-e6ae" transform="translate(720.912661 0.40625)"/>
     <use xlink:href="#NotoSansCJKjp-Regular-73f7" transform="translate(820.912569 0.40625)"/>
     <use xlink:href="#NotoSansCJKjp-Regular-b7c4" transform="translate(920.912478 0.40625)"/>
     <use xlink:href="#NotoSansCJKjp-Regular-1" transform="translate(1020.912386 0.40625)"/>
     <use xlink:href="#Cmmi10-38" transform="translate(1043.312365 0.40625)"/>
     <use xlink:href="#Cmr10-29" transform="translate(1111.701094 0.40625)"/>
     <use xlink:href="#Cmr10-28" transform="translate(1209.386698 0.40625)"/>
     <use xlink:href="#NotoSansCJKjp-Regular-575" transform="translate(1259.386698 0.40625)"/>
     <use xlink:href="#Cmsy10-2f" transform="translate(1359.386606 0.40625)"/>
     <use xlink:href="#Cmmi10-79" transform="translate(1387.072153 0.40625)"/>
     <use xlink:href="#Cmsy10-2f" transform="translate(1439.855356 0.40625)"/>
     <use xlink:href="#NotoSansCJKjp-Regular-1" transform="translate(1467.540903 0.40625)"/>
     <use xlink:href="#NotoSansCJKjp-Regular-50c3" transform="translate(1489.940882 0.40625)"/>
     <use xlink:href="#NotoSansCJKjp-Regular-36fb" transform="translate(1589.94079 0.40625)"/>
     <use xlink:href="#NotoSansCJKjp-Regular-e6af" transform="translate(1689.940699 0.40625)"/>
    </g>
   </g>
  </g>
  <g id="axes_2">
   <g id="patch_5">
    <path d="M 62.24 295.985333 
L 521.52 295.985333 
L 521.52 201.854667 
L 62.24 201.854667 
z
" style="fill: #ffffff"/>
   </g>
   <g id="matplotlib.axis_3">
    <g id="xtick_10">
     <g id="line2d_30">
      <path d="M 62.24 295.985333 
L 62.24 201.854667 
" clip-path="url(#pd0479d86eb)" style="fill: none; stroke: #d8dde3; stroke-width: 0.9; stroke-linecap: square"/>
     </g>
     <g id="line2d_31">
      <g>
       <use xlink:href="#m08f103f689" x="62.24" y="295.985333" style="fill: #222831; stroke: #222831; stroke-width: 0.8"/>
      </g>
     </g>
    </g>
    <g id="xtick_11">
     <g id="line2d_32">
      <path d="M 119.65 295.985333 
L 119.65 201.854667 
" clip-path="url(#pd0479d86eb)" style="fill: none; stroke: #d8dde3; stroke-width: 0.9; stroke-linecap: square"/>
     </g>
     <g id="line2d_33">
      <g>
       <use xlink:href="#m08f103f689" x="119.65" y="295.985333" style="fill: #222831; stroke: #222831; stroke-width: 0.8"/>
      </g>
     </g>
    </g>
    <g id="xtick_12">
     <g id="line2d_34">
      <path d="M 177.06 295.985333 
L 177.06 201.854667 
" clip-path="url(#pd0479d86eb)" style="fill: none; stroke: #d8dde3; stroke-width: 0.9; stroke-linecap: square"/>
     </g>
     <g id="line2d_35">
      <g>
       <use xlink:href="#m08f103f689" x="177.06" y="295.985333" style="fill: #222831; stroke: #222831; stroke-width: 0.8"/>
      </g>
     </g>
    </g>
    <g id="xtick_13">
     <g id="line2d_36">
      <path d="M 234.47 295.985333 
L 234.47 201.854667 
" clip-path="url(#pd0479d86eb)" style="fill: none; stroke: #d8dde3; stroke-width: 0.9; stroke-linecap: square"/>
     </g>
     <g id="line2d_37">
      <g>
       <use xlink:href="#m08f103f689" x="234.47" y="295.985333" style="fill: #222831; stroke: #222831; stroke-width: 0.8"/>
      </g>
     </g>
    </g>
    <g id="xtick_14">
     <g id="line2d_38">
      <path d="M 291.88 295.985333 
L 291.88 201.854667 
" clip-path="url(#pd0479d86eb)" style="fill: none; stroke: #d8dde3; stroke-width: 0.9; stroke-linecap: square"/>
     </g>
     <g id="line2d_39">
      <g>
       <use xlink:href="#m08f103f689" x="291.88" y="295.985333" style="fill: #222831; stroke: #222831; stroke-width: 0.8"/>
      </g>
     </g>
    </g>
    <g id="xtick_15">
     <g id="line2d_40">
      <path d="M 349.29 295.985333 
L 349.29 201.854667 
" clip-path="url(#pd0479d86eb)" style="fill: none; stroke: #d8dde3; stroke-width: 0.9; stroke-linecap: square"/>
     </g>
     <g id="line2d_41">
      <g>
       <use xlink:href="#m08f103f689" x="349.29" y="295.985333" style="fill: #222831; stroke: #222831; stroke-width: 0.8"/>
      </g>
     </g>
    </g>
    <g id="xtick_16">
     <g id="line2d_42">
      <path d="M 406.7 295.985333 
L 406.7 201.854667 
" clip-path="url(#pd0479d86eb)" style="fill: none; stroke: #d8dde3; stroke-width: 0.9; stroke-linecap: square"/>
     </g>
     <g id="line2d_43">
      <g>
       <use xlink:href="#m08f103f689" x="406.7" y="295.985333" style="fill: #222831; stroke: #222831; stroke-width: 0.8"/>
      </g>
     </g>
    </g>
    <g id="xtick_17">
     <g id="line2d_44">
      <path d="M 464.11 295.985333 
L 464.11 201.854667 
" clip-path="url(#pd0479d86eb)" style="fill: none; stroke: #d8dde3; stroke-width: 0.9; stroke-linecap: square"/>
     </g>
     <g id="line2d_45">
      <g>
       <use xlink:href="#m08f103f689" x="464.11" y="295.985333" style="fill: #222831; stroke: #222831; stroke-width: 0.8"/>
      </g>
     </g>
    </g>
    <g id="xtick_18">
     <g id="line2d_46">
      <path d="M 521.52 295.985333 
L 521.52 201.854667 
" clip-path="url(#pd0479d86eb)" style="fill: none; stroke: #d8dde3; stroke-width: 0.9; stroke-linecap: square"/>
     </g>
     <g id="line2d_47">
      <g>
       <use xlink:href="#m08f103f689" x="521.52" y="295.985333" style="fill: #222831; stroke: #222831; stroke-width: 0.8"/>
      </g>
     </g>
    </g>
   </g>
   <g id="matplotlib.axis_4">
    <g id="ytick_4">
     <g id="line2d_48">
      <path d="M 62.24 280.296889 
L 521.52 280.296889 
" clip-path="url(#pd0479d86eb)" style="fill: none; stroke: #d8dde3; stroke-width: 0.9; stroke-linecap: square"/>
     </g>
     <g id="line2d_49">
      <g>
       <use xlink:href="#m91ac47b1fb" x="62.24" y="280.296889" style="fill: #222831; stroke: #222831; stroke-width: 0.8"/>
      </g>
     </g>
     <g id="text_8">
      <!-- $-A\omega$ -->
      <g style="fill: #222831" transform="translate(29.44 285.576889) scale(0.12 -0.12)">
       <use xlink:href="#Cmsy10-11" transform="translate(0 0.421875)"/>
       <use xlink:href="#Cmmi10-5c" transform="translate(77.685547 0.421875)"/>
       <use xlink:href="#Cmmi10-1d" transform="translate(152.685547 0.421875)"/>
      </g>
     </g>
    </g>
    <g id="ytick_5">
     <g id="line2d_50">
      <path d="M 62.24 248.92 
L 521.52 248.92 
" clip-path="url(#pd0479d86eb)" style="fill: none; stroke: #d8dde3; stroke-width: 0.9; stroke-linecap: square"/>
     </g>
     <g id="line2d_51">
      <g>
       <use xlink:href="#m91ac47b1fb" x="62.24" y="248.92" style="fill: #222831; stroke: #222831; stroke-width: 0.8"/>
      </g>
     </g>
     <g id="text_9">
      <!-- 0 -->
      <g style="fill: #222831" transform="translate(48.58 254.2) scale(0.12 -0.12)">
       <use xlink:href="#NotoSansCJKjp-Regular-11"/>
      </g>
     </g>
    </g>
    <g id="ytick_6">
     <g id="line2d_52">
      <path d="M 62.24 217.543111 
L 521.52 217.543111 
" clip-path="url(#pd0479d86eb)" style="fill: none; stroke: #d8dde3; stroke-width: 0.9; stroke-linecap: square"/>
     </g>
     <g id="line2d_53">
      <g>
       <use xlink:href="#m91ac47b1fb" x="62.24" y="217.543111" style="fill: #222831; stroke: #222831; stroke-width: 0.8"/>
      </g>
     </g>
     <g id="text_10">
      <!-- $+A\omega$ -->
      <g style="fill: #222831" transform="translate(29.44 222.823111) scale(0.12 -0.12)">
       <use xlink:href="#Cmr10-4c" transform="translate(0 0.421875)"/>
       <use xlink:href="#Cmmi10-5c" transform="translate(77.685547 0.421875)"/>
       <use xlink:href="#Cmmi10-1d" transform="translate(152.685547 0.421875)"/>
      </g>
     </g>
    </g>
    <g id="text_11">
     <!-- 速度 $v$ -->
     <g style="fill: #222831" transform="translate(24 265.18) rotate(-90) scale(0.12 -0.12)">
      <defs>
       <path id="NotoSansCJKjp-Regular-9d6d" d="M 384 4934 
C 794 4646 1274 4218 1478 3904 
L 1862 4224 
C 1632 4531 1152 4947 730 5222 
L 384 4934 
z
M 1677 2848 
L 314 2848 
L 314 2400 
L 1210 2400 
L 1210 768 
C 890 499 518 230 230 32 
L 480 -461 
C 826 -173 1152 102 1459 378 
C 1869 -128 2445 -358 3283 -390 
C 3994 -416 5318 -403 6016 -371 
C 6035 -224 6118 6 6176 115 
C 5414 64 3981 45 3283 77 
C 2541 102 1978 326 1677 794 
L 1677 2848 
z
M 2752 3379 
L 3757 3379 
L 3757 2560 
L 2752 2560 
L 2752 3379 
z
M 4224 3379 
L 5286 3379 
L 5286 2560 
L 4224 2560 
L 4224 3379 
z
M 3757 5370 
L 3757 4710 
L 2035 4710 
L 2035 4294 
L 3757 4294 
L 3757 3763 
L 2304 3763 
L 2304 2176 
L 3501 2176 
C 3130 1638 2502 1120 1920 870 
C 2022 781 2163 621 2227 506 
C 2778 787 3360 1306 3757 1875 
L 3757 314 
L 4224 314 
L 4224 1850 
C 4640 1318 5235 800 5754 525 
C 5824 640 5971 806 6080 896 
C 5510 1146 4845 1658 4442 2176 
L 5754 2176 
L 5754 3763 
L 4224 3763 
L 4224 4294 
L 6048 4294 
L 6048 4710 
L 4224 4710 
L 4224 5370 
L 3757 5370 
z
" transform="scale(0.015625)"/>
       <path id="NotoSansCJKjp-Regular-4231" d="M 2470 4141 
L 2470 3584 
L 1440 3584 
L 1440 3187 
L 2470 3187 
L 2470 2125 
L 4960 2125 
L 4960 3187 
L 5997 3187 
L 5997 3584 
L 4960 3584 
L 4960 4141 
L 4486 4141 
L 4486 3584 
L 2931 3584 
L 2931 4141 
L 2470 4141 
z
M 4486 3187 
L 4486 2509 
L 2931 2509 
L 2931 3187 
L 4486 3187 
z
M 4851 1318 
C 4582 986 4211 717 3770 506 
C 3334 723 2970 992 2720 1318 
L 4851 1318 
z
M 1530 1715 
L 1530 1318 
L 2502 1318 
L 2259 1222 
C 2515 858 2861 550 3270 301 
C 2662 90 1978 -38 1280 -109 
C 1357 -211 1453 -397 1485 -512 
C 2291 -416 3072 -243 3757 45 
C 4365 -237 5088 -422 5869 -525 
C 5933 -403 6048 -211 6150 -109 
C 5466 -38 4819 96 4269 294 
C 4813 608 5261 1024 5549 1574 
L 5248 1734 
L 5165 1715 
L 1530 1715 
z
M 774 4742 
L 774 2893 
C 774 1965 730 659 198 -256 
C 314 -307 512 -435 595 -518 
C 1152 448 1235 1901 1235 2893 
L 1235 4307 
L 6035 4307 
L 6035 4742 
L 3635 4742 
L 3635 5376 
L 3142 5376 
L 3142 4742 
L 774 4742 
z
" transform="scale(0.015625)"/>
      </defs>
      <use xlink:href="#NotoSansCJKjp-Regular-9d6d"/>
      <use xlink:href="#NotoSansCJKjp-Regular-4231" transform="translate(99.999908 0)"/>
      <use xlink:href="#NotoSansCJKjp-Regular-1" transform="translate(199.999817 0)"/>
      <use xlink:href="#Cmmi10-38" transform="translate(222.399796 0)"/>
     </g>
    </g>
   </g>
   <g id="line2d_54">
    <path d="M 62.24 248.92 
L 72.974424 258.003621 
L 79.108381 262.892883 
L 83.708848 266.309283 
L 88.309316 269.450528 
L 92.143038 271.822036 
L 95.976761 273.941786 
L 99.810484 275.786478 
L 103.644207 277.335832 
L 106.711185 278.351112 
L 109.778164 279.159266 
L 112.845142 279.754604 
L 115.91212 280.132937 
L 118.979098 280.291603 
L 122.046077 280.229484 
L 125.113055 279.947019 
L 128.180033 279.446194 
L 131.247012 278.730535 
L 134.31399 277.805078 
L 137.380968 276.676337 
L 141.214691 274.991775 
L 145.048414 273.020611 
L 148.882137 270.784514 
L 152.71586 268.308065 
L 157.316327 265.057561 
L 162.683539 260.946418 
L 168.817496 255.93639 
L 178.785175 247.43948 
L 187.98611 239.678988 
L 194.120067 234.799965 
L 198.720534 231.393978 
L 203.321002 228.265309 
L 207.154725 225.905792 
L 210.988447 223.799265 
L 214.82217 221.968885 
L 217.889149 220.717036 
L 220.956127 219.663671 
L 224.023105 218.816204 
L 227.090083 218.180598 
L 230.157062 217.761327 
L 233.22404 217.561342 
L 236.291018 217.58205 
L 239.357997 217.823305 
L 242.424975 218.28341 
L 245.491953 218.959126 
L 248.558932 219.845698 
L 251.62591 220.936886 
L 254.692888 222.225011 
L 258.526611 224.098173 
L 262.360334 226.244195 
L 266.194057 228.639488 
L 270.794524 231.805627 
L 275.394992 235.24257 
L 280.762204 239.521852 
L 288.429649 245.962259 
L 303.764541 258.944066 
L 309.131753 263.186799 
L 313.73222 266.582279 
L 318.332688 269.698285 
L 322.166411 272.045747 
L 326.000134 274.138992 
L 329.833856 275.95501 
L 332.900835 277.194698 
L 335.967813 278.235397 
L 339.034791 279.069782 
L 342.10177 279.691983 
L 345.168748 280.097619 
L 348.235726 280.283836 
L 351.302705 280.249323 
L 354.369683 279.994324 
L 357.436661 279.520633 
L 360.503639 278.831584 
L 363.570618 277.932025 
L 366.637596 276.828289 
L 369.704574 275.528142 
L 373.538297 273.640822 
L 377.37202 271.481752 
L 381.205743 269.074665 
L 385.80621 265.89621 
L 390.406678 262.449137 
L 395.77389 258.161012 
L 403.441336 251.713871 
L 418.009482 239.364974 
L 424.143439 234.50683 
L 428.743907 231.121949 
L 433.344374 228.018692 
L 437.178097 225.68335 
L 441.01182 223.603444 
L 444.845543 221.801838 
L 447.912521 220.574345 
L 450.979499 219.546341 
L 454.046477 218.725061 
L 457.113456 218.116283 
L 460.180434 217.724293 
L 463.247412 217.551849 
L 466.314391 217.600166 
L 469.381369 217.868902 
L 472.448347 218.356166 
L 475.515326 219.05853 
L 478.582304 219.97105 
L 481.649282 221.087304 
L 485.483005 222.757023 
L 489.316728 224.714347 
L 493.150451 226.937757 
L 496.984174 229.402814 
L 501.584641 232.641532 
L 506.951853 236.741753 
L 513.08581 241.743312 
L 521.52 248.92 
L 521.52 248.92 
" clip-path="url(#pd0479d86eb)" style="fill: none; stroke: #1a7f37; stroke-width: 2.6; stroke-linecap: square"/>
   </g>
   <g id="line2d_55">
    <path d="M 62.24 248.92 
L 521.52 248.92 
" clip-path="url(#pd0479d86eb)" style="fill: none; stroke: #222831; stroke-width: 0.9; stroke-linecap: square"/>
   </g>
   <g id="line2d_56">
    <path d="M 62.24 295.985333 
L 62.24 201.854667 
" clip-path="url(#pd0479d86eb)" style="fill: none; stroke-dasharray: 0.9,1.485; stroke-dashoffset: 0; stroke: #c2c7cd; stroke-width: 0.9"/>
   </g>
   <g id="line2d_57">
    <path d="M 119.65 295.985333 
L 119.65 201.854667 
" clip-path="url(#pd0479d86eb)" style="fill: none; stroke-dasharray: 0.9,1.485; stroke-dashoffset: 0; stroke: #c2c7cd; stroke-width: 0.9"/>
   </g>
   <g id="line2d_58">
    <path d="M 291.88 295.985333 
L 291.88 201.854667 
" clip-path="url(#pd0479d86eb)" style="fill: none; stroke-dasharray: 0.9,1.485; stroke-dashoffset: 0; stroke: #c2c7cd; stroke-width: 0.9"/>
   </g>
   <g id="patch_6">
    <path d="M 62.24 295.985333 
L 62.24 201.854667 
" style="fill: none; stroke: #222831; stroke-width: 1.1; stroke-linejoin: miter; stroke-linecap: square"/>
   </g>
   <g id="patch_7">
    <path d="M 62.24 295.985333 
L 521.52 295.985333 
" style="fill: none; stroke: #222831; stroke-width: 1.1; stroke-linejoin: miter; stroke-linecap: square"/>
   </g>
   <g id="text_12">
    <!-- 速度 $v=-A\omega\sin\omega t$（平衡點速率最大） -->
    <g style="fill: #222831" transform="translate(187.42 195.854667) scale(0.12 -0.12)">
     <defs>
      <path id="Cmr10-24" d="M 197 0 
L 197 225 
Q 416 225 556 259 
Q 697 294 697 428 
L 697 2175 
Q 697 2422 601 2478 
Q 506 2534 225 2534 
L 225 2759 
L 1147 2828 
L 1147 428 
Q 1147 294 1269 259 
Q 1391 225 1594 225 
L 1594 0 
L 197 0 
z
M 469 3928 
Q 469 4069 575 4175 
Q 681 4281 819 4281 
Q 909 4281 993 4234 
Q 1078 4188 1125 4103 
Q 1172 4019 1172 3928 
Q 1172 3791 1065 3684 
Q 959 3578 819 3578 
Q 681 3578 575 3684 
Q 469 3791 469 3928 
z
" transform="scale(0.015625)"/>
      <path id="Cmr10-74" d="M 191 0 
L 191 225 
Q 409 225 550 259 
Q 691 294 691 428 
L 691 2175 
Q 691 2347 639 2423 
Q 588 2500 491 2517 
Q 394 2534 191 2534 
L 191 2759 
L 1119 2828 
L 1119 2203 
Q 1247 2478 1498 2653 
Q 1750 2828 2047 2828 
Q 2491 2828 2714 2615 
Q 2938 2403 2938 1966 
L 2938 428 
Q 2938 294 3078 259 
Q 3219 225 3438 225 
L 3438 0 
L 1972 0 
L 1972 225 
Q 2191 225 2331 259 
Q 2472 294 2472 428 
L 2472 1947 
Q 2472 2259 2381 2461 
Q 2291 2663 2009 2663 
Q 1638 2663 1398 2366 
Q 1159 2069 1159 1691 
L 1159 428 
Q 1159 294 1300 259 
Q 1441 225 1656 225 
L 1656 0 
L 191 0 
z
" transform="scale(0.015625)"/>
      <path id="NotoSansCJKjp-Regular-66cd" d="M 5376 4038 
C 5139 3782 4704 3437 4384 3226 
L 4736 3014 
C 5056 3226 5472 3520 5798 3821 
L 5376 4038 
z
M 320 1997 
L 557 1613 
C 986 1798 1517 2048 2022 2291 
L 1933 2656 
C 1338 2406 730 2150 320 1997 
z
M 544 3680 
C 902 3482 1344 3174 1555 2957 
L 1888 3258 
C 1670 3469 1222 3757 864 3949 
L 544 3680 
z
M 4262 2458 
C 4768 2202 5408 1811 5715 1542 
L 6067 1850 
C 5734 2112 5094 2490 4595 2733 
L 4262 2458 
z
M 3526 2707 
C 3654 2566 3782 2400 3904 2227 
L 2810 2176 
C 3264 2618 3763 3168 4147 3642 
L 3770 3827 
C 3590 3571 3347 3270 3091 2976 
C 2957 3098 2784 3226 2598 3347 
C 2810 3578 3046 3878 3251 4154 
L 3110 4211 
L 5882 4211 
L 5882 4659 
L 3424 4659 
L 3424 5376 
L 2938 5376 
L 2938 4659 
L 538 4659 
L 538 4211 
L 2771 4211 
C 2643 4000 2470 3750 2310 3546 
L 2131 3654 
L 1894 3373 
C 2202 3174 2579 2906 2822 2682 
C 2650 2490 2470 2310 2304 2150 
L 1811 2131 
L 1882 1715 
L 4128 1882 
C 4211 1747 4275 1626 4320 1517 
L 4691 1709 
C 4550 2035 4192 2515 3872 2874 
L 3526 2707 
z
M 346 1222 
L 346 774 
L 2938 774 
L 2938 -531 
L 3424 -531 
L 3424 774 
L 6061 774 
L 6061 1222 
L 3424 1222 
L 3424 1722 
L 2938 1722 
L 2938 1222 
L 346 1222 
z
" transform="scale(0.015625)"/>
     </defs>
     <use xlink:href="#NotoSansCJKjp-Regular-9d6d" transform="translate(0 0.40625)"/>
     <use xlink:href="#NotoSansCJKjp-Regular-4231" transform="translate(99.999908 0.40625)"/>
     <use xlink:href="#NotoSansCJKjp-Regular-1" transform="translate(199.999817 0.40625)"/>
     <use xlink:href="#Cmmi10-38" transform="translate(222.399796 0.40625)"/>
     <use xlink:href="#Cmr10-29" transform="translate(290.788525 0.40625)"/>
     <use xlink:href="#Cmsy10-11" transform="translate(388.474129 0.40625)"/>
     <use xlink:href="#Cmmi10-5c" transform="translate(466.159676 0.40625)"/>
     <use xlink:href="#Cmmi10-1d" transform="translate(541.159676 0.40625)"/>
     <use xlink:href="#Cmr10-52" transform="translate(603.366707 0.40625)"/>
     <use xlink:href="#Cmr10-24" transform="translate(642.771004 0.40625)"/>
     <use xlink:href="#Cmr10-74" transform="translate(670.456551 0.40625)"/>
     <use xlink:href="#Cmmi10-1d" transform="translate(742.641176 0.40625)"/>
     <use xlink:href="#Cmmi10-30" transform="translate(804.848208 0.40625)"/>
     <use xlink:href="#NotoSansCJKjp-Regular-e6ae" transform="translate(840.932192 0.40625)"/>
     <use xlink:href="#NotoSansCJKjp-Regular-41d6" transform="translate(940.9321 0.40625)"/>
     <use xlink:href="#NotoSansCJKjp-Regular-8f85" transform="translate(1040.932009 0.40625)"/>
     <use xlink:href="#NotoSansCJKjp-Regular-b7c4" transform="translate(1140.931917 0.40625)"/>
     <use xlink:href="#NotoSansCJKjp-Regular-9d6d" transform="translate(1240.931826 0.40625)"/>
     <use xlink:href="#NotoSansCJKjp-Regular-66cd" transform="translate(1340.931734 0.40625)"/>
     <use xlink:href="#NotoSansCJKjp-Regular-50c3" transform="translate(1440.931643 0.40625)"/>
     <use xlink:href="#NotoSansCJKjp-Regular-36fb" transform="translate(1540.931551 0.40625)"/>
     <use xlink:href="#NotoSansCJKjp-Regular-e6af" transform="translate(1640.93146 0.40625)"/>
    </g>
   </g>
  </g>
  <g id="axes_3">
   <g id="patch_8">
    <path d="M 62.24 423.376 
L 521.52 423.376 
L 521.52 329.245333 
L 62.24 329.245333 
z
" style="fill: #ffffff"/>
   </g>
   <g id="matplotlib.axis_5">
    <g id="xtick_19">
     <g id="line2d_59">
      <path d="M 62.24 423.376 
L 62.24 329.245333 
" clip-path="url(#p71431ced11)" style="fill: none; stroke: #d8dde3; stroke-width: 0.9; stroke-linecap: square"/>
     </g>
     <g id="line2d_60">
      <g>
       <use xlink:href="#m08f103f689" x="62.24" y="423.376" style="fill: #222831; stroke: #222831; stroke-width: 0.8"/>
      </g>
     </g>
     <g id="text_13">
      <!-- 0 -->
      <g style="fill: #222831" transform="translate(58.91 440.936) scale(0.12 -0.12)">
       <use xlink:href="#NotoSansCJKjp-Regular-11"/>
      </g>
     </g>
    </g>
    <g id="xtick_20">
     <g id="line2d_61">
      <path d="M 119.65 423.376 
L 119.65 329.245333 
" clip-path="url(#p71431ced11)" style="fill: none; stroke: #d8dde3; stroke-width: 0.9; stroke-linecap: square"/>
     </g>
     <g id="line2d_62">
      <g>
       <use xlink:href="#m08f103f689" x="119.65" y="423.376" style="fill: #222831; stroke: #222831; stroke-width: 0.8"/>
      </g>
     </g>
     <g id="text_14">
      <!-- $T/4$ -->
      <g style="fill: #222831" transform="translate(110.11 440.936) scale(0.12 -0.12)">
       <defs>
        <path id="Cmmi10-78" d="M 294 84 
Q 297 100 308 140 
Q 319 181 336 203 
Q 353 225 384 225 
Q 934 225 1113 256 
Q 1284 300 1319 441 
L 2194 3956 
Q 2222 4034 2222 4097 
Q 2222 4147 1997 4147 
L 1625 4147 
Q 1197 4147 964 4015 
Q 731 3884 622 3668 
Q 513 3453 341 2963 
Q 319 2906 275 2906 
L 219 2906 
Q 153 2906 153 2988 
L 609 4313 
Q 622 4372 672 4372 
L 4453 4372 
Q 4519 4372 4519 4288 
L 4306 2963 
Q 4306 2944 4284 2925 
Q 4263 2906 4244 2906 
L 4184 2906 
Q 4122 2906 4122 2988 
Q 4191 3441 4191 3628 
Q 4191 3853 4097 3968 
Q 4003 4084 3853 4115 
Q 3703 4147 3463 4147 
L 3084 4147 
Q 2913 4147 2853 4115 
Q 2794 4084 2753 3928 
L 1875 416 
Q 1872 403 1870 390 
Q 1869 378 1863 359 
Q 1863 278 1959 256 
Q 2125 225 2669 225 
Q 2731 225 2731 141 
Q 2709 50 2696 25 
Q 2684 0 2625 0 
L 359 0 
Q 294 0 294 84 
z
" transform="scale(0.015625)"/>
        <path id="Cmmi10-62" d="M 359 -1472 
Q 359 -1453 366 -1447 
L 2591 4722 
Q 2603 4759 2634 4779 
Q 2666 4800 2706 4800 
Q 2763 4800 2798 4765 
Q 2834 4731 2834 4672 
L 2834 4647 
L 609 -1522 
Q 572 -1600 488 -1600 
Q 434 -1600 396 -1562 
Q 359 -1525 359 -1472 
z
" transform="scale(0.015625)"/>
        <path id="Cmr10-3b" d="M 178 1056 
L 178 1281 
L 2156 4231 
Q 2178 4263 2222 4263 
L 2316 4263 
Q 2388 4263 2388 4191 
L 2388 1281 
L 3016 1281 
L 3016 1056 
L 2388 1056 
L 2388 428 
Q 2388 297 2575 261 
Q 2763 225 3009 225 
L 3009 0 
L 1247 0 
L 1247 225 
Q 1494 225 1681 261 
Q 1869 297 1869 428 
L 1869 1056 
L 178 1056 
z
M 391 1281 
L 1906 1281 
L 1906 3547 
L 391 1281 
z
" transform="scale(0.015625)"/>
       </defs>
       <use xlink:href="#Cmmi10-78"/>
       <use xlink:href="#Cmmi10-62" transform="translate(58.398438 0)"/>
       <use xlink:href="#Cmr10-3b" transform="translate(108.398438 0)"/>
      </g>
     </g>
    </g>
    <g id="xtick_21">
     <g id="line2d_63">
      <path d="M 177.06 423.376 
L 177.06 329.245333 
" clip-path="url(#p71431ced11)" style="fill: none; stroke: #d8dde3; stroke-width: 0.9; stroke-linecap: square"/>
     </g>
     <g id="line2d_64">
      <g>
       <use xlink:href="#m08f103f689" x="177.06" y="423.376" style="fill: #222831; stroke: #222831; stroke-width: 0.8"/>
      </g>
     </g>
     <g id="text_15">
      <!-- $T/2$ -->
      <g style="fill: #222831" transform="translate(167.52 440.936) scale(0.12 -0.12)">
       <defs>
        <path id="Cmr10-31" d="M 319 0 
L 319 172 
Q 319 188 331 206 
L 1325 1306 
Q 1550 1550 1690 1715 
Q 1831 1881 1968 2097 
Q 2106 2313 2186 2536 
Q 2266 2759 2266 3009 
Q 2266 3272 2169 3511 
Q 2072 3750 1880 3894 
Q 1688 4038 1416 4038 
Q 1138 4038 916 3870 
Q 694 3703 603 3438 
Q 628 3444 672 3444 
Q 816 3444 917 3347 
Q 1019 3250 1019 3097 
Q 1019 2950 917 2848 
Q 816 2747 672 2747 
Q 522 2747 420 2851 
Q 319 2956 319 3097 
Q 319 3338 409 3548 
Q 500 3759 670 3923 
Q 841 4088 1055 4175 
Q 1269 4263 1509 4263 
Q 1875 4263 2190 4108 
Q 2506 3953 2690 3670 
Q 2875 3388 2875 3009 
Q 2875 2731 2753 2481 
Q 2631 2231 2440 2026 
Q 2250 1822 1953 1562 
Q 1656 1303 1563 1216 
L 838 519 
L 1453 519 
Q 1906 519 2211 526 
Q 2516 534 2534 550 
Q 2609 631 2688 1141 
L 2875 1141 
L 2694 0 
L 319 0 
z
" transform="scale(0.015625)"/>
       </defs>
       <use xlink:href="#Cmmi10-78"/>
       <use xlink:href="#Cmmi10-62" transform="translate(58.398438 0)"/>
       <use xlink:href="#Cmr10-31" transform="translate(108.398438 0)"/>
      </g>
     </g>
    </g>
    <g id="xtick_22">
     <g id="line2d_65">
      <path d="M 234.47 423.376 
L 234.47 329.245333 
" clip-path="url(#p71431ced11)" style="fill: none; stroke: #d8dde3; stroke-width: 0.9; stroke-linecap: square"/>
     </g>
     <g id="line2d_66">
      <g>
       <use xlink:href="#m08f103f689" x="234.47" y="423.376" style="fill: #222831; stroke: #222831; stroke-width: 0.8"/>
      </g>
     </g>
    </g>
    <g id="xtick_23">
     <g id="line2d_67">
      <path d="M 291.88 423.376 
L 291.88 329.245333 
" clip-path="url(#p71431ced11)" style="fill: none; stroke: #d8dde3; stroke-width: 0.9; stroke-linecap: square"/>
     </g>
     <g id="line2d_68">
      <g>
       <use xlink:href="#m08f103f689" x="291.88" y="423.376" style="fill: #222831; stroke: #222831; stroke-width: 0.8"/>
      </g>
     </g>
     <g id="text_16">
      <!-- $T$ -->
      <g style="fill: #222831" transform="translate(288.34 440.936) scale(0.12 -0.12)">
       <use xlink:href="#Cmmi10-78" transform="translate(0 0.6875)"/>
      </g>
     </g>
    </g>
    <g id="xtick_24">
     <g id="line2d_69">
      <path d="M 349.29 423.376 
L 349.29 329.245333 
" clip-path="url(#p71431ced11)" style="fill: none; stroke: #d8dde3; stroke-width: 0.9; stroke-linecap: square"/>
     </g>
     <g id="line2d_70">
      <g>
       <use xlink:href="#m08f103f689" x="349.29" y="423.376" style="fill: #222831; stroke: #222831; stroke-width: 0.8"/>
      </g>
     </g>
    </g>
    <g id="xtick_25">
     <g id="line2d_71">
      <path d="M 406.7 423.376 
L 406.7 329.245333 
" clip-path="url(#p71431ced11)" style="fill: none; stroke: #d8dde3; stroke-width: 0.9; stroke-linecap: square"/>
     </g>
     <g id="line2d_72">
      <g>
       <use xlink:href="#m08f103f689" x="406.7" y="423.376" style="fill: #222831; stroke: #222831; stroke-width: 0.8"/>
      </g>
     </g>
     <g id="text_17">
      <!-- $3T/2$ -->
      <g style="fill: #222831" transform="translate(394.16 440.936) scale(0.12 -0.12)">
       <defs>
        <path id="Cmr10-6e" d="M 609 494 
Q 759 275 1012 169 
Q 1266 63 1556 63 
Q 1928 63 2084 380 
Q 2241 697 2241 1100 
Q 2241 1281 2208 1462 
Q 2175 1644 2097 1800 
Q 2019 1956 1883 2050 
Q 1747 2144 1550 2144 
L 1125 2144 
Q 1069 2144 1069 2203 
L 1069 2259 
Q 1069 2309 1125 2309 
L 1478 2338 
Q 1703 2338 1851 2506 
Q 2000 2675 2069 2917 
Q 2138 3159 2138 3378 
Q 2138 3684 1994 3881 
Q 1850 4078 1556 4078 
Q 1313 4078 1091 3986 
Q 869 3894 738 3706 
Q 750 3709 759 3711 
Q 769 3713 781 3713 
Q 925 3713 1022 3613 
Q 1119 3513 1119 3372 
Q 1119 3234 1022 3134 
Q 925 3034 781 3034 
Q 641 3034 541 3134 
Q 441 3234 441 3372 
Q 441 3647 606 3850 
Q 772 4053 1033 4158 
Q 1294 4263 1556 4263 
Q 1750 4263 1965 4205 
Q 2181 4147 2356 4039 
Q 2531 3931 2642 3762 
Q 2753 3594 2753 3378 
Q 2753 3109 2633 2881 
Q 2513 2653 2303 2487 
Q 2094 2322 1844 2241 
Q 2122 2188 2372 2031 
Q 2622 1875 2773 1631 
Q 2925 1388 2925 1106 
Q 2925 753 2731 467 
Q 2538 181 2222 20 
Q 1906 -141 1556 -141 
Q 1256 -141 954 -26 
Q 653 88 461 316 
Q 269 544 269 863 
Q 269 1022 375 1128 
Q 481 1234 641 1234 
Q 744 1234 830 1186 
Q 916 1138 964 1050 
Q 1013 963 1013 863 
Q 1013 706 903 600 
Q 794 494 641 494 
L 609 494 
z
" transform="scale(0.015625)"/>
       </defs>
       <use xlink:href="#Cmr10-6e"/>
       <use xlink:href="#Cmmi10-78" transform="translate(50 0)"/>
       <use xlink:href="#Cmmi10-62" transform="translate(108.398438 0)"/>
       <use xlink:href="#Cmr10-31" transform="translate(158.398438 0)"/>
      </g>
     </g>
    </g>
    <g id="xtick_26">
     <g id="line2d_73">
      <path d="M 464.11 423.376 
L 464.11 329.245333 
" clip-path="url(#p71431ced11)" style="fill: none; stroke: #d8dde3; stroke-width: 0.9; stroke-linecap: square"/>
     </g>
     <g id="line2d_74">
      <g>
       <use xlink:href="#m08f103f689" x="464.11" y="423.376" style="fill: #222831; stroke: #222831; stroke-width: 0.8"/>
      </g>
     </g>
    </g>
    <g id="xtick_27">
     <g id="line2d_75">
      <path d="M 521.52 423.376 
L 521.52 329.245333 
" clip-path="url(#p71431ced11)" style="fill: none; stroke: #d8dde3; stroke-width: 0.9; stroke-linecap: square"/>
     </g>
     <g id="line2d_76">
      <g>
       <use xlink:href="#m08f103f689" x="521.52" y="423.376" style="fill: #222831; stroke: #222831; stroke-width: 0.8"/>
      </g>
     </g>
     <g id="text_18">
      <!-- $2T$ -->
      <g style="fill: #222831" transform="translate(514.98 440.936) scale(0.12 -0.12)">
       <use xlink:href="#Cmr10-31" transform="translate(0 0.6875)"/>
       <use xlink:href="#Cmmi10-78" transform="translate(50 0.6875)"/>
      </g>
     </g>
    </g>
    <g id="text_19">
     <!-- 時間 $t$ -->
     <g style="fill: #222831" transform="translate(276.34 458.496) scale(0.12 -0.12)">
      <defs>
       <path id="NotoSansCJKjp-Regular-4f87" d="M 2848 1338 
C 3174 998 3520 525 3661 211 
L 4070 461 
C 3923 781 3558 1235 3232 1562 
L 2848 1338 
z
M 4038 5382 
L 4038 4614 
L 2694 4614 
L 2694 4186 
L 4038 4186 
L 4038 3373 
L 2426 3373 
L 2426 2938 
L 4883 2938 
L 4883 2214 
L 2458 2214 
L 2458 1786 
L 4883 1786 
L 4883 64 
C 4883 -32 4851 -58 4749 -58 
C 4646 -64 4282 -64 3891 -51 
C 3962 -186 4032 -378 4051 -506 
C 4570 -506 4890 -499 5094 -422 
C 5293 -352 5357 -218 5357 58 
L 5357 1786 
L 6106 1786 
L 6106 2214 
L 5357 2214 
L 5357 2938 
L 6170 2938 
L 6170 3373 
L 4512 3373 
L 4512 4186 
L 5901 4186 
L 5901 4614 
L 4512 4614 
L 4512 5382 
L 4038 5382 
z
M 1862 2662 
L 1862 1184 
L 934 1184 
L 934 2662 
L 1862 2662 
z
M 1862 3098 
L 934 3098 
L 934 4518 
L 1862 4518 
L 1862 3098 
z
M 486 4960 
L 486 224 
L 934 224 
L 934 749 
L 2317 749 
L 2317 4960 
L 486 4960 
z
" transform="scale(0.015625)"/>
       <path id="NotoSansCJKjp-Regular-a774" d="M 3936 1082 
L 3936 461 
L 2432 461 
L 2432 1082 
L 3936 1082 
z
M 3936 1453 
L 2432 1453 
L 2432 2042 
L 3936 2042 
L 3936 1453 
z
M 1997 2419 
L 1997 -243 
L 2432 -243 
L 2432 83 
L 4384 83 
L 4384 2419 
L 1997 2419 
z
M 2451 3840 
L 2451 3270 
L 1056 3270 
L 1056 3840 
L 2451 3840 
z
M 2451 4192 
L 1056 4192 
L 1056 4730 
L 2451 4730 
L 2451 4192 
z
M 5376 3840 
L 5376 3264 
L 3936 3264 
L 3936 3840 
L 5376 3840 
z
M 5376 4192 
L 3936 4192 
L 3936 4730 
L 5376 4730 
L 5376 4192 
z
M 5619 5101 
L 3482 5101 
L 3482 2893 
L 5376 2893 
L 5376 128 
C 5376 13 5338 -19 5229 -26 
C 5114 -26 4723 -32 4333 -19 
C 4403 -154 4474 -378 4499 -512 
C 5030 -512 5376 -506 5581 -422 
C 5792 -339 5862 -186 5862 122 
L 5862 5101 
L 5619 5101 
z
M 576 5101 
L 576 -518 
L 1056 -518 
L 1056 2906 
L 2899 2906 
L 2899 5101 
L 576 5101 
z
" transform="scale(0.015625)"/>
      </defs>
      <use xlink:href="#NotoSansCJKjp-Regular-4f87" transform="translate(0 0.90625)"/>
      <use xlink:href="#NotoSansCJKjp-Regular-a774" transform="translate(99.999908 0.90625)"/>
      <use xlink:href="#NotoSansCJKjp-Regular-1" transform="translate(199.999817 0.90625)"/>
      <use xlink:href="#Cmmi10-30" transform="translate(222.399796 0.90625)"/>
     </g>
    </g>
   </g>
   <g id="matplotlib.axis_6">
    <g id="ytick_7">
     <g id="line2d_77">
      <path d="M 62.24 407.687556 
L 521.52 407.687556 
" clip-path="url(#p71431ced11)" style="fill: none; stroke: #d8dde3; stroke-width: 0.9; stroke-linecap: square"/>
     </g>
     <g id="line2d_78">
      <g>
       <use xlink:href="#m91ac47b1fb" x="62.24" y="407.687556" style="fill: #222831; stroke: #222831; stroke-width: 0.8"/>
      </g>
     </g>
     <g id="text_20">
      <!-- $-A\omega^2$ -->
      <g style="fill: #222831" transform="translate(23.2 412.967556) scale(0.12 -0.12)">
       <use xlink:href="#Cmsy10-11" transform="translate(0 0.084203)"/>
       <use xlink:href="#Cmmi10-5c" transform="translate(77.685547 0.084203)"/>
       <use xlink:href="#Cmmi10-1d" transform="translate(152.685547 0.084203)"/>
       <use xlink:href="#Cmr10-31" transform="translate(226.172447 41.373437) scale(0.7)"/>
      </g>
     </g>
    </g>
    <g id="ytick_8">
     <g id="line2d_79">
      <path d="M 62.24 376.310667 
L 521.52 376.310667 
" clip-path="url(#p71431ced11)" style="fill: none; stroke: #d8dde3; stroke-width: 0.9; stroke-linecap: square"/>
     </g>
     <g id="line2d_80">
      <g>
       <use xlink:href="#m91ac47b1fb" x="62.24" y="376.310667" style="fill: #222831; stroke: #222831; stroke-width: 0.8"/>
      </g>
     </g>
     <g id="text_21">
      <!-- 0 -->
      <g style="fill: #222831" transform="translate(48.58 381.590667) scale(0.12 -0.12)">
       <use xlink:href="#NotoSansCJKjp-Regular-11"/>
      </g>
     </g>
    </g>
    <g id="ytick_9">
     <g id="line2d_81">
      <path d="M 62.24 344.933778 
L 521.52 344.933778 
" clip-path="url(#p71431ced11)" style="fill: none; stroke: #d8dde3; stroke-width: 0.9; stroke-linecap: square"/>
     </g>
     <g id="line2d_82">
      <g>
       <use xlink:href="#m91ac47b1fb" x="62.24" y="344.933778" style="fill: #222831; stroke: #222831; stroke-width: 0.8"/>
      </g>
     </g>
     <g id="text_22">
      <!-- $+A\omega^2$ -->
      <g style="fill: #222831" transform="translate(23.2 350.213778) scale(0.12 -0.12)">
       <use xlink:href="#Cmr10-4c" transform="translate(0 0.084203)"/>
       <use xlink:href="#Cmmi10-5c" transform="translate(77.685547 0.084203)"/>
       <use xlink:href="#Cmmi10-1d" transform="translate(152.685547 0.084203)"/>
       <use xlink:href="#Cmr10-31" transform="translate(226.172447 41.373437) scale(0.7)"/>
      </g>
     </g>
    </g>
    <g id="text_23">
     <!-- 加速度 $a$ -->
     <g style="fill: #222831" transform="translate(17.76 398.870667) rotate(-90) scale(0.12 -0.12)">
      <defs>
       <path id="NotoSansCJKjp-Regular-2c76" d="M 3661 4582 
L 3661 -416 
L 4122 -416 
L 4122 58 
L 5363 58 
L 5363 -365 
L 5843 -365 
L 5843 4582 
L 3661 4582 
z
M 4122 518 
L 4122 4115 
L 5363 4115 
L 5363 518 
L 4122 518 
z
M 1248 5293 
L 1242 4160 
L 339 4160 
L 339 3693 
L 1229 3693 
C 1184 2080 986 659 179 -186 
C 301 -262 474 -410 550 -518 
C 1414 422 1638 1958 1696 3693 
L 2669 3693 
C 2618 1229 2560 352 2426 166 
C 2368 83 2304 58 2208 64 
C 2093 64 1818 64 1517 90 
C 1600 -45 1645 -250 1658 -390 
C 1946 -410 2240 -416 2419 -390 
C 2605 -365 2726 -307 2842 -141 
C 3040 134 3085 1069 3136 3917 
C 3136 3987 3136 4160 3136 4160 
L 1709 4160 
L 1722 5293 
L 1248 5293 
z
" transform="scale(0.015625)"/>
      </defs>
      <use xlink:href="#NotoSansCJKjp-Regular-2c76"/>
      <use xlink:href="#NotoSansCJKjp-Regular-9d6d" transform="translate(99.999908 0)"/>
      <use xlink:href="#NotoSansCJKjp-Regular-4231" transform="translate(199.999817 0)"/>
      <use xlink:href="#NotoSansCJKjp-Regular-1" transform="translate(299.999725 0)"/>
      <use xlink:href="#Cmmi10-79" transform="translate(322.399704 0)"/>
     </g>
    </g>
   </g>
   <g id="line2d_83">
    <path d="M 62.24 407.687556 
L 65.306978 407.577145 
L 68.373957 407.24669 
L 71.440935 406.698516 
L 74.507913 405.936482 
L 77.574891 404.965949 
L 80.64187 403.79375 
L 84.475593 402.057603 
L 88.309316 400.038426 
L 92.143038 397.758415 
L 95.976761 395.242633 
L 100.577229 391.951582 
L 105.944441 387.803104 
L 112.078397 382.764519 
L 123.579566 372.943615 
L 132.013756 365.897625 
L 137.380968 361.678684 
L 141.981436 358.309878 
L 146.581903 355.225903 
L 150.415626 352.908862 
L 154.249349 350.849072 
L 158.083072 349.069176 
L 161.15005 347.86004 
L 164.217028 346.851131 
L 167.284007 346.04955 
L 170.350985 345.460938 
L 173.417963 345.089437 
L 176.484942 344.937662 
L 179.55192 345.006681 
L 182.618898 345.296008 
L 185.685876 345.803607 
L 188.752855 346.525906 
L 191.819833 347.457822 
L 194.886811 348.592795 
L 198.720534 350.284762 
L 202.554257 352.262826 
L 206.38798 354.505243 
L 210.221703 356.987362 
L 214.82217 360.243726 
L 220.189382 364.360288 
L 226.323339 369.374499 
L 236.291018 377.873371 
L 245.491953 385.630279 
L 251.62591 390.504133 
L 256.226377 393.904878 
L 260.826845 397.027226 
L 264.660568 399.380723 
L 268.49429 401.480617 
L 272.328013 403.303822 
L 275.394992 404.549595 
L 278.46197 405.59663 
L 281.528948 406.43756 
L 284.595927 407.066465 
L 287.662905 407.478919 
L 290.729883 407.672021 
L 293.796861 407.644411 
L 296.86384 407.396283 
L 299.930818 406.929384 
L 302.997796 406.246999 
L 306.064775 405.35393 
L 309.131753 404.256464 
L 312.198731 402.962324 
L 316.032454 401.082077 
L 319.866177 398.929523 
L 323.6999 396.528325 
L 328.300367 393.356017 
L 332.900835 389.913997 
L 338.268047 385.630279 
L 345.935492 379.186482 
L 361.270384 366.208666 
L 366.637596 361.970633 
L 371.238063 358.580441 
L 375.838531 355.470798 
L 379.672254 353.129389 
L 383.505977 351.042806 
L 387.339699 349.233987 
L 390.406678 348.000393 
L 393.473656 346.966038 
L 396.540634 346.138202 
L 399.607613 345.522711 
L 402.674591 345.123897 
L 405.741569 344.944566 
L 408.808548 344.98598 
L 411.875526 345.247849 
L 414.942504 345.728328 
L 418.009482 346.424037 
L 421.076461 347.330079 
L 424.143439 348.440079 
L 427.210417 349.746223 
L 431.04414 351.640602 
L 434.877863 353.806174 
L 438.711586 356.219133 
L 443.312053 359.403713 
L 447.912521 362.855816 
L 453.279733 367.148319 
L 460.947179 373.59876 
L 475.515326 385.944034 
L 481.649282 390.796874 
L 486.24975 394.17642 
L 490.850217 397.273271 
L 494.68394 399.602528 
L 498.517663 401.675743 
L 502.351386 403.470126 
L 505.418364 404.691507 
L 508.485342 405.713153 
L 511.552321 406.527873 
L 514.619299 407.129933 
L 517.686277 407.515096 
L 520.753255 407.680651 
L 521.52 407.687556 
L 521.52 407.687556 
" clip-path="url(#p71431ced11)" style="fill: none; stroke: #d1242f; stroke-width: 2.6; stroke-linecap: square"/>
   </g>
   <g id="line2d_84">
    <path d="M 62.24 376.310667 
L 521.52 376.310667 
" clip-path="url(#p71431ced11)" style="fill: none; stroke: #222831; stroke-width: 0.9; stroke-linecap: square"/>
   </g>
   <g id="line2d_85">
    <path d="M 62.24 423.376 
L 62.24 329.245333 
" clip-path="url(#p71431ced11)" style="fill: none; stroke-dasharray: 0.9,1.485; stroke-dashoffset: 0; stroke: #c2c7cd; stroke-width: 0.9"/>
   </g>
   <g id="line2d_86">
    <path d="M 119.65 423.376 
L 119.65 329.245333 
" clip-path="url(#p71431ced11)" style="fill: none; stroke-dasharray: 0.9,1.485; stroke-dashoffset: 0; stroke: #c2c7cd; stroke-width: 0.9"/>
   </g>
   <g id="line2d_87">
    <path d="M 291.88 423.376 
L 291.88 329.245333 
" clip-path="url(#p71431ced11)" style="fill: none; stroke-dasharray: 0.9,1.485; stroke-dashoffset: 0; stroke: #c2c7cd; stroke-width: 0.9"/>
   </g>
   <g id="patch_9">
    <path d="M 62.24 423.376 
L 62.24 329.245333 
" style="fill: none; stroke: #222831; stroke-width: 1.1; stroke-linejoin: miter; stroke-linecap: square"/>
   </g>
   <g id="patch_10">
    <path d="M 62.24 423.376 
L 521.52 423.376 
" style="fill: none; stroke: #222831; stroke-width: 1.1; stroke-linejoin: miter; stroke-linecap: square"/>
   </g>
   <g id="text_24">
    <!-- 加速度 $a=-A\omega^2\cos\omega t=-\omega^2 x$（與 $x$ 反相） -->
    <g style="fill: #222831" transform="translate(173.2 323.245333) scale(0.12 -0.12)">
     <defs>
      <path id="NotoSansCJKjp-Regular-8241" d="M 3795 563 
C 4480 218 5210 -211 5638 -531 
L 6093 -198 
C 5619 115 4845 544 4141 883 
L 3795 563 
z
M 2125 870 
C 1722 512 954 70 339 -186 
C 454 -275 621 -429 704 -525 
C 1306 -250 2067 179 2573 576 
L 2125 870 
z
M 288 1414 
L 288 966 
L 6131 966 
L 6131 1414 
L 5459 1414 
C 5517 2355 5549 3853 5555 4973 
L 4186 4973 
L 4186 4544 
L 5114 4544 
L 5107 3795 
L 4256 3795 
L 4256 3386 
L 5094 3386 
L 5069 2598 
L 4237 2598 
L 4237 2189 
L 5056 2189 
L 5011 1414 
L 3936 1414 
L 3936 3584 
L 2925 3584 
L 2925 4256 
L 4058 4256 
L 4058 4666 
L 2925 4666 
L 2925 5318 
L 2502 5318 
L 2502 3194 
L 3514 3194 
L 3514 1414 
L 2893 1414 
L 2893 2912 
L 2496 2912 
L 2496 1414 
L 1382 1414 
L 1357 2195 
L 2182 2195 
L 2182 2598 
L 1344 2598 
L 1318 3386 
L 2176 3386 
L 2176 3795 
L 1306 3795 
L 1280 4474 
C 1645 4614 2048 4800 2381 4973 
L 2003 5318 
C 1792 5171 1466 4986 1146 4832 
L 826 4928 
L 947 1414 
L 288 1414 
z
" transform="scale(0.015625)"/>
      <path id="NotoSansCJKjp-Regular-2e5a" d="M 1088 4973 
L 1088 3226 
C 1088 2202 1030 787 326 -218 
C 442 -269 646 -416 730 -499 
C 1389 448 1549 1830 1568 2886 
L 1990 2886 
C 2285 2048 2694 1357 3245 806 
C 2688 397 2042 102 1363 -70 
C 1459 -179 1581 -384 1645 -512 
C 2362 -294 3034 19 3622 474 
C 4192 19 4890 -314 5728 -525 
C 5792 -390 5933 -186 6048 -77 
C 5242 96 4570 397 4013 806 
C 4659 1408 5158 2208 5440 3238 
L 5107 3379 
L 5011 3354 
L 1574 3354 
L 1574 4499 
L 5792 4499 
L 5792 4973 
L 1088 4973 
z
M 4800 2886 
C 4544 2176 4134 1594 3629 1126 
C 3130 1600 2752 2189 2496 2886 
L 4800 2886 
z
" transform="scale(0.015625)"/>
      <path id="NotoSansCJKjp-Regular-6ce8" d="M 3494 3034 
L 5440 3034 
L 5440 1920 
L 3494 1920 
L 3494 3034 
z
M 3494 3469 
L 3494 4544 
L 5440 4544 
L 5440 3469 
L 3494 3469 
z
M 3494 1478 
L 5440 1478 
L 5440 365 
L 3494 365 
L 3494 1478 
z
M 3027 4998 
L 3027 -467 
L 3494 -467 
L 3494 -77 
L 5440 -77 
L 5440 -448 
L 5926 -448 
L 5926 4998 
L 3027 4998 
z
M 1370 5376 
L 1370 4006 
L 333 4006 
L 333 3546 
L 1312 3546 
C 1088 2662 634 1651 186 1120 
C 262 1005 384 813 435 685 
C 781 1126 1120 1837 1370 2573 
L 1370 -506 
L 1837 -506 
L 1837 2419 
C 2080 2106 2368 1709 2490 1498 
L 2784 1888 
C 2643 2061 2061 2746 1837 2970 
L 1837 3546 
L 2752 3546 
L 2752 4006 
L 1837 4006 
L 1837 5376 
L 1370 5376 
z
" transform="scale(0.015625)"/>
     </defs>
     <use xlink:href="#NotoSansCJKjp-Regular-2c76" transform="translate(0 0.084203)"/>
     <use xlink:href="#NotoSansCJKjp-Regular-9d6d" transform="translate(99.999908 0.084203)"/>
     <use xlink:href="#NotoSansCJKjp-Regular-4231" transform="translate(199.999817 0.084203)"/>
     <use xlink:href="#NotoSansCJKjp-Regular-1" transform="translate(299.999725 0.084203)"/>
     <use xlink:href="#Cmmi10-79" transform="translate(322.399704 0.084203)"/>
     <use xlink:href="#Cmr10-29" transform="translate(395.182964 0.084203)"/>
     <use xlink:href="#Cmsy10-11" transform="translate(492.868568 0.084203)"/>
     <use xlink:href="#Cmmi10-5c" transform="translate(570.554115 0.084203)"/>
     <use xlink:href="#Cmmi10-1d" transform="translate(645.554115 0.084203)"/>
     <use xlink:href="#Cmr10-31" transform="translate(719.041016 41.373437) scale(0.7)"/>
     <use xlink:href="#Cmr10-7b" transform="translate(759.761431 0.084203)"/>
     <use xlink:href="#Cmr10-42" transform="translate(804.146197 0.084203)"/>
     <use xlink:href="#Cmr10-52" transform="translate(854.146197 0.084203)"/>
     <use xlink:href="#Cmmi10-1d" transform="translate(910.217542 0.084203)"/>
     <use xlink:href="#Cmmi10-30" transform="translate(972.424573 0.084203)"/>
     <use xlink:href="#Cmr10-29" transform="translate(1028.508614 0.084203)"/>
     <use xlink:href="#Cmsy10-11" transform="translate(1126.194219 0.084203)"/>
     <use xlink:href="#Cmmi10-1d" transform="translate(1203.879765 0.084203)"/>
     <use xlink:href="#Cmr10-31" transform="translate(1277.366666 41.373437) scale(0.7)"/>
     <use xlink:href="#Cmmi10-3f" transform="translate(1318.087081 0.084203)"/>
     <use xlink:href="#NotoSansCJKjp-Regular-e6ae" transform="translate(1375.16716 0.084203)"/>
     <use xlink:href="#NotoSansCJKjp-Regular-8241" transform="translate(1475.167068 0.084203)"/>
     <use xlink:href="#NotoSansCJKjp-Regular-1" transform="translate(1575.166976 0.084203)"/>
     <use xlink:href="#Cmmi10-3f" transform="translate(1597.566955 0.084203)"/>
     <use xlink:href="#NotoSansCJKjp-Regular-1" transform="translate(1654.647033 0.084203)"/>
     <use xlink:href="#NotoSansCJKjp-Regular-2e5a" transform="translate(1677.047012 0.084203)"/>
     <use xlink:href="#NotoSansCJKjp-Regular-6ce8" transform="translate(1777.04692 0.084203)"/>
     <use xlink:href="#NotoSansCJKjp-Regular-e6af" transform="translate(1877.046829 0.084203)"/>
    </g>
   </g>
  </g>
  <g id="text_25">
   <!-- 簡諧的位置、速度、加速度：$x$ 與 $a$ 反相，$v$ 比 $x$ 提前 $T/4$ -->
   <g style="fill: #222831" transform="translate(102.965 18.64) scale(0.13 -0.13)">
    <defs>
     <path id="NotoSansCJKjp-Regular-7668" d="M 1120 3430 
L 2490 3430 
L 2490 3072 
L 1120 3072 
L 1120 3430 
z
M 1120 2413 
L 1120 2778 
L 2490 2778 
L 2490 2413 
L 1120 2413 
z
M 678 3744 
L 678 -506 
L 1120 -506 
L 1120 2099 
L 2931 2099 
L 2931 3744 
L 678 3744 
z
M 2458 1466 
L 3968 1466 
L 3968 1050 
L 2458 1050 
L 2458 1466 
z
M 2458 320 
L 2458 749 
L 3968 749 
L 3968 320 
L 2458 320 
z
M 2022 1773 
L 2022 -218 
L 2458 -218 
L 2458 19 
L 4397 19 
L 4397 1773 
L 2022 1773 
z
M 3910 2778 
L 5344 2778 
L 5344 2413 
L 3910 2413 
L 3910 2778 
z
M 3910 3072 
L 3910 3430 
L 5344 3430 
L 5344 3072 
L 3910 3072 
z
M 5344 3744 
L 3475 3744 
L 3475 2099 
L 5344 2099 
L 5344 45 
C 5344 -51 5312 -77 5216 -83 
C 5114 -90 4774 -90 4416 -77 
C 4480 -198 4544 -384 4563 -506 
C 5043 -512 5363 -506 5555 -435 
C 5734 -358 5798 -224 5798 45 
L 5798 3744 
L 5344 3744 
z
M 1171 5408 
C 973 4909 627 4410 243 4083 
C 352 4019 550 3891 640 3814 
C 826 4000 1018 4237 1190 4499 
L 1446 4499 
C 1574 4282 1702 4026 1747 3853 
L 2176 3974 
C 2131 4115 2029 4314 1920 4499 
L 3117 4499 
L 3117 4883 
L 1421 4883 
C 1498 5018 1562 5152 1619 5286 
L 1171 5408 
z
M 3712 5408 
C 3507 4902 3130 4422 2701 4109 
C 2822 4058 3021 3936 3117 3872 
C 3322 4038 3526 4256 3712 4499 
L 4205 4499 
C 4384 4282 4563 4019 4640 3834 
L 5069 3974 
C 4998 4122 4864 4320 4723 4499 
L 6067 4499 
L 6067 4883 
L 3968 4883 
C 4045 5018 4115 5152 4173 5293 
L 3712 5408 
z
" transform="scale(0.015625)"/>
     <path id="NotoSansCJKjp-Regular-947f" d="M 518 3437 
L 518 3059 
L 2246 3059 
L 2246 3437 
L 518 3437 
z
M 557 5152 
L 557 4768 
L 2227 4768 
L 2227 5152 
L 557 5152 
z
M 518 2586 
L 518 2202 
L 2246 2202 
L 2246 2586 
L 518 2586 
z
M 243 4314 
L 243 3910 
L 2438 3910 
L 2438 4314 
L 243 4314 
z
M 3328 717 
L 5280 717 
L 5280 102 
L 3328 102 
L 3328 717 
z
M 3328 1088 
L 3328 1677 
L 5280 1677 
L 5280 1088 
L 3328 1088 
z
M 3974 2688 
C 3923 2509 3834 2272 3744 2067 
L 2874 2067 
L 2874 -512 
L 3328 -512 
L 3328 -282 
L 5280 -282 
L 5280 -486 
L 5754 -486 
L 5754 2067 
L 4205 2067 
L 4467 2579 
L 3974 2688 
z
M 2381 2893 
L 2522 2458 
C 3021 2592 3648 2758 4250 2925 
L 4205 3315 
L 3270 3091 
L 3270 4058 
L 4198 4058 
L 4198 4474 
L 3270 4474 
L 3270 5350 
L 2822 5350 
L 2822 2989 
L 2381 2893 
z
M 5702 4838 
C 5504 4653 5184 4448 4864 4269 
L 4864 5357 
L 4416 5357 
L 4416 3142 
C 4416 2669 4531 2541 4992 2541 
C 5082 2541 5536 2541 5632 2541 
C 6022 2541 6138 2739 6182 3475 
C 6061 3507 5875 3578 5779 3654 
C 5760 3046 5741 2944 5587 2944 
C 5498 2944 5126 2944 5056 2944 
C 4890 2944 4864 2970 4864 3142 
L 4864 3872 
C 5274 4051 5709 4282 6035 4525 
L 5702 4838 
z
M 512 1722 
L 512 -442 
L 922 -442 
L 922 -141 
L 2253 -141 
L 2253 1722 
L 512 1722 
z
M 922 1325 
L 1843 1325 
L 1843 256 
L 922 256 
L 922 1325 
z
" transform="scale(0.015625)"/>
     <path id="NotoSansCJKjp-Regular-6c33" d="M 3533 2707 
C 3885 2240 4320 1600 4512 1210 
L 4922 1466 
C 4710 1843 4269 2464 3904 2918 
L 3533 2707 
z
M 1536 5389 
C 1485 5082 1376 4659 1274 4346 
L 557 4346 
L 557 -346 
L 998 -346 
L 998 160 
L 2784 160 
L 2784 4346 
L 1715 4346 
C 1824 4621 1946 4979 2054 5299 
L 1536 5389 
z
M 998 3917 
L 2342 3917 
L 2342 2566 
L 998 2566 
L 998 3917 
z
M 998 595 
L 998 2144 
L 2342 2144 
L 2342 595 
L 998 595 
z
M 3827 5402 
C 3622 4518 3277 3635 2835 3066 
C 2950 3002 3149 2867 3238 2790 
C 3456 3098 3661 3488 3840 3923 
L 5478 3923 
C 5402 1357 5299 371 5094 154 
C 5018 64 4947 45 4819 45 
C 4672 45 4288 51 3866 83 
C 3955 -38 4013 -243 4026 -378 
C 4384 -397 4762 -410 4979 -390 
C 5210 -365 5350 -314 5498 -122 
C 5754 192 5843 1184 5939 4122 
C 5946 4186 5946 4365 5946 4365 
L 4013 4365 
C 4115 4666 4211 4986 4288 5299 
L 3827 5402 
z
" transform="scale(0.015625)"/>
     <path id="NotoSansCJKjp-Regular-e6c0" d="M 3200 3482 
C 3456 3482 3686 3667 3686 3962 
C 3686 4256 3456 4442 3200 4442 
C 2944 4442 2714 4256 2714 3962 
C 2714 3667 2944 3482 3200 3482 
z
M 3200 346 
C 3456 346 3686 538 3686 826 
C 3686 1120 3456 1312 3200 1312 
C 2944 1312 2714 1120 2714 826 
C 2714 538 2944 346 3200 346 
z
" transform="scale(0.015625)"/>
     <path id="NotoSansCJKjp-Regular-e6b2" d="M 1005 -685 
C 1677 -448 2112 77 2112 768 
C 2112 1216 1920 1504 1568 1504 
C 1306 1504 1082 1344 1082 1043 
C 1082 742 1299 589 1562 589 
L 1670 602 
C 1638 160 1357 -141 864 -346 
L 1005 -685 
z
" transform="scale(0.015625)"/>
     <path id="NotoSansCJKjp-Regular-5942" d="M 250 128 
L 397 -371 
C 1197 -179 2278 77 3290 326 
L 3245 787 
C 2694 659 2125 525 1600 410 
L 1600 2925 
L 3046 2925 
L 3046 3398 
L 1600 3398 
L 1600 5344 
L 1107 5344 
L 1107 301 
L 250 128 
z
M 3520 5344 
L 3520 512 
C 3520 -186 3693 -371 4320 -371 
C 4448 -371 5261 -371 5395 -371 
C 6003 -371 6138 -13 6202 1037 
C 6061 1069 5869 1152 5747 1248 
C 5709 320 5670 83 5370 83 
C 5190 83 4506 83 4371 83 
C 4064 83 4013 147 4013 499 
L 4013 2586 
C 4691 2874 5414 3219 5952 3571 
L 5594 3974 
C 5216 3674 4608 3328 4013 3046 
L 4013 5344 
L 3520 5344 
z
" transform="scale(0.015625)"/>
     <path id="NotoSansCJKjp-Regular-4b20" d="M 3059 3949 
L 5197 3949 
L 5197 3443 
L 3059 3443 
L 3059 3949 
z
M 3059 4800 
L 5197 4800 
L 5197 4294 
L 3059 4294 
L 3059 4800 
z
M 2618 5165 
L 2618 3072 
L 5658 3072 
L 5658 5165 
L 2618 5165 
z
M 2746 1901 
C 2643 954 2355 230 1786 -224 
C 1888 -288 2074 -435 2144 -512 
C 2483 -211 2739 179 2918 666 
C 3334 -237 4013 -416 4947 -416 
L 6067 -416 
C 6086 -288 6150 -90 6214 19 
C 5990 13 5126 13 4966 13 
C 4749 13 4544 19 4352 51 
L 4352 1056 
L 5696 1056 
L 5696 1453 
L 4352 1453 
L 4352 2208 
L 6010 2208 
L 6010 2611 
L 2330 2611 
L 2330 2208 
L 3898 2208 
L 3898 173 
C 3533 333 3251 621 3066 1158 
C 3117 1376 3155 1606 3187 1850 
L 2746 1901 
z
M 1050 5370 
L 1050 4083 
L 256 4083 
L 256 3635 
L 1050 3635 
L 1050 2227 
C 723 2125 422 2042 186 1978 
L 307 1504 
L 1050 1747 
L 1050 90 
C 1050 0 1018 -26 941 -26 
C 864 -32 614 -32 339 -26 
C 397 -154 461 -352 474 -467 
C 877 -474 1126 -454 1280 -378 
C 1440 -307 1498 -173 1498 90 
L 1498 1894 
L 2208 2131 
L 2144 2566 
L 1498 2368 
L 1498 3635 
L 2208 3635 
L 2208 4083 
L 1498 4083 
L 1498 5370 
L 1050 5370 
z
" transform="scale(0.015625)"/>
     <path id="NotoSansCJKjp-Regular-2be5" d="M 3866 3290 
L 3866 666 
L 4314 666 
L 4314 3290 
L 3866 3290 
z
M 5165 3482 
L 5165 90 
C 5165 -6 5133 -32 5030 -32 
C 4922 -38 4576 -38 4186 -26 
C 4256 -154 4333 -358 4358 -486 
C 4851 -493 5178 -480 5370 -403 
C 5568 -326 5638 -192 5638 83 
L 5638 3482 
L 5165 3482 
z
M 4627 5408 
C 4486 5094 4243 4672 4026 4365 
L 2106 4365 
L 2419 4480 
C 2298 4736 2022 5114 1779 5382 
L 1331 5222 
C 1562 4960 1798 4614 1920 4365 
L 339 4365 
L 339 3923 
L 6061 3923 
L 6061 4365 
L 4570 4365 
C 4755 4627 4960 4947 5139 5242 
L 4627 5408 
z
M 2618 1926 
L 2618 1280 
L 1197 1280 
L 1197 1926 
L 2618 1926 
z
M 2618 2304 
L 1197 2304 
L 1197 2938 
L 2618 2938 
L 2618 2304 
z
M 742 3347 
L 742 -480 
L 1197 -480 
L 1197 902 
L 2618 902 
L 2618 45 
C 2618 -38 2592 -64 2502 -64 
C 2419 -70 2125 -70 1798 -58 
C 1862 -179 1933 -365 1965 -486 
C 2394 -486 2682 -480 2854 -403 
C 3034 -333 3085 -205 3085 38 
L 3085 3347 
L 742 3347 
z
" transform="scale(0.015625)"/>
    </defs>
    <use xlink:href="#NotoSansCJKjp-Regular-7668" transform="translate(0 0.5)"/>
    <use xlink:href="#NotoSansCJKjp-Regular-947f" transform="translate(99.999908 0.5)"/>
    <use xlink:href="#NotoSansCJKjp-Regular-6c33" transform="translate(199.999817 0.5)"/>
    <use xlink:href="#NotoSansCJKjp-Regular-26e3" transform="translate(299.999725 0.5)"/>
    <use xlink:href="#NotoSansCJKjp-Regular-7ccb" transform="translate(399.999634 0.5)"/>
    <use xlink:href="#NotoSansCJKjp-Regular-575" transform="translate(499.999542 0.5)"/>
    <use xlink:href="#NotoSansCJKjp-Regular-9d6d" transform="translate(599.999451 0.5)"/>
    <use xlink:href="#NotoSansCJKjp-Regular-4231" transform="translate(699.999359 0.5)"/>
    <use xlink:href="#NotoSansCJKjp-Regular-575" transform="translate(799.999268 0.5)"/>
    <use xlink:href="#NotoSansCJKjp-Regular-2c76" transform="translate(899.999176 0.5)"/>
    <use xlink:href="#NotoSansCJKjp-Regular-9d6d" transform="translate(999.999084 0.5)"/>
    <use xlink:href="#NotoSansCJKjp-Regular-4231" transform="translate(1099.998993 0.5)"/>
    <use xlink:href="#NotoSansCJKjp-Regular-e6c0" transform="translate(1199.998901 0.5)"/>
    <use xlink:href="#Cmmi10-3f" transform="translate(1299.99881 0.5)"/>
    <use xlink:href="#NotoSansCJKjp-Regular-1" transform="translate(1357.078888 0.5)"/>
    <use xlink:href="#NotoSansCJKjp-Regular-8241" transform="translate(1379.478867 0.5)"/>
    <use xlink:href="#NotoSansCJKjp-Regular-1" transform="translate(1479.478775 0.5)"/>
    <use xlink:href="#Cmmi10-79" transform="translate(1501.878754 0.5)"/>
    <use xlink:href="#NotoSansCJKjp-Regular-1" transform="translate(1554.661957 0.5)"/>
    <use xlink:href="#NotoSansCJKjp-Regular-2e5a" transform="translate(1577.061935 0.5)"/>
    <use xlink:href="#NotoSansCJKjp-Regular-6ce8" transform="translate(1677.061844 0.5)"/>
    <use xlink:href="#NotoSansCJKjp-Regular-e6b2" transform="translate(1777.061752 0.5)"/>
    <use xlink:href="#Cmmi10-38" transform="translate(1877.061661 0.5)"/>
    <use xlink:href="#NotoSansCJKjp-Regular-1" transform="translate(1925.450333 0.5)"/>
    <use xlink:href="#NotoSansCJKjp-Regular-5942" transform="translate(1947.850311 0.5)"/>
    <use xlink:href="#NotoSansCJKjp-Regular-1" transform="translate(2047.85022 0.5)"/>
    <use xlink:href="#Cmmi10-3f" transform="translate(2070.250198 0.5)"/>
    <use xlink:href="#NotoSansCJKjp-Regular-1" transform="translate(2127.330276 0.5)"/>
    <use xlink:href="#NotoSansCJKjp-Regular-4b20" transform="translate(2149.730255 0.5)"/>
    <use xlink:href="#NotoSansCJKjp-Regular-2be5" transform="translate(2249.730164 0.5)"/>
    <use xlink:href="#NotoSansCJKjp-Regular-1" transform="translate(2349.730072 0.5)"/>
    <use xlink:href="#Cmmi10-78" transform="translate(2372.130051 0.5)"/>
    <use xlink:href="#Cmmi10-62" transform="translate(2430.528488 0.5)"/>
    <use xlink:href="#Cmr10-3b" transform="translate(2480.528488 0.5)"/>
   </g>
  </g>
 </g>
 <defs>
  <clipPath id="p59cfc9acbd">
   <rect x="62.24" y="74.464" width="459.28" height="94.130667"/>
  </clipPath>
  <clipPath id="pd0479d86eb">
   <rect x="62.24" y="201.854667" width="459.28" height="94.130667"/>
  </clipPath>
  <clipPath id="p71431ced11">
   <rect x="62.24" y="329.245333" width="459.28" height="94.130667"/>
  </clipPath>
 </defs>
</svg>
