<?xml version="1.0" encoding="utf-8" standalone="no"?>
<!DOCTYPE svg PUBLIC "-//W3C//DTD SVG 1.1//EN"
  "http://www.w3.org/Graphics/SVG/1.1/DTD/svg11.dtd">
<svg xmlns:xlink="http://www.w3.org/1999/xlink" width="679.68pt" height="305.215625pt" viewBox="0 0 679.68 305.215625" xmlns="http://www.w3.org/2000/svg" version="1.1">
 <metadata>
  <rdf:RDF xmlns:dc="http://purl.org/dc/elements/1.1/" xmlns:cc="http://creativecommons.org/ns#" xmlns:rdf="http://www.w3.org/1999/02/22-rdf-syntax-ns#">
   <cc:Work>
    <dc:type rdf:resource="http://purl.org/dc/dcmitype/StillImage"/>
    <dc:date>2026-06-17T18:22:50.268829</dc:date>
    <dc:format>image/svg+xml</dc:format>
    <dc:creator>
     <cc:Agent>
      <dc:title>Matplotlib v3.11.0, https://matplotlib.org/</dc:title>
     </cc:Agent>
    </dc:creator>
   </cc:Work>
  </rdf:RDF>
 </metadata>
 <defs>
  <style type="text/css">*{stroke-linejoin: round; stroke-linecap: butt}</style>
 </defs>
 <g id="figure_1">
  <g id="patch_1">
   <path d="M 0 305.215625 
L 679.68 305.215625 
L 679.68 0 
L 0 0 
z
" style="fill: #ffffff"/>
  </g>
  <g id="axes_1">
   <g id="line2d_1">
    <path d="M 48.78 174.800212 
L 48.78 160.583049 
" clip-path="url(#p8adfc1f2be)" style="fill: none; stroke: #222831; stroke-width: 1.4; stroke-linecap: square"/>
   </g>
   <g id="line2d_2">
    <path d="M 118.08 174.800212 
L 118.08 160.583049 
" clip-path="url(#p8adfc1f2be)" style="fill: none; stroke: #222831; stroke-width: 1.4; stroke-linecap: square"/>
   </g>
   <g id="line2d_3">
    <path d="M 187.38 174.800212 
L 187.38 160.583049 
" clip-path="url(#p8adfc1f2be)" style="fill: none; stroke: #222831; stroke-width: 1.4; stroke-linecap: square"/>
   </g>
   <g id="line2d_4">
    <path d="M 256.68 174.800212 
L 256.68 160.583049 
" clip-path="url(#p8adfc1f2be)" style="fill: none; stroke: #222831; stroke-width: 1.4; stroke-linecap: square"/>
   </g>
   <g id="line2d_5">
    <path d="M 325.98 174.800212 
L 325.98 160.583049 
" clip-path="url(#p8adfc1f2be)" style="fill: none; stroke: #222831; stroke-width: 1.4; stroke-linecap: square"/>
   </g>
   <g id="line2d_6">
    <path d="M 395.28 174.800212 
L 395.28 160.583049 
" clip-path="url(#p8adfc1f2be)" style="fill: none; stroke: #222831; stroke-width: 1.4; stroke-linecap: square"/>
   </g>
   <g id="line2d_7">
    <path d="M 464.58 174.800212 
L 464.58 160.583049 
" clip-path="url(#p8adfc1f2be)" style="fill: none; stroke: #222831; stroke-width: 1.4; stroke-linecap: square"/>
   </g>
   <g id="line2d_8">
    <path d="M 533.88 174.800212 
L 533.88 160.583049 
" clip-path="url(#p8adfc1f2be)" style="fill: none; stroke: #222831; stroke-width: 1.4; stroke-linecap: square"/>
   </g>
   <g id="line2d_9">
    <path d="M 603.18 174.800212 
L 603.18 160.583049 
" clip-path="url(#p8adfc1f2be)" style="fill: none; stroke: #222831; stroke-width: 1.4; stroke-linecap: square"/>
   </g>
   <g id="patch_2">
    <path d="M 9.201591 167.69163 
Q 336.375539 167.69163 661.313419 167.69163 
" style="fill: none; stroke: #222831; stroke-width: 2; stroke-linecap: round"/>
    <path d="M 656.513419 165.29163 
L 661.313419 167.69163 
L 656.513419 170.09163 
z
" style="fill: #222831; stroke: #222831; stroke-width: 2; stroke-linecap: round"/>
   </g>
   <g id="text_1">
    <!-- $10^{-15}$ -->
    <g style="fill: #222831" transform="translate(35.855 202.251666) scale(0.11 -0.11)">
     <defs>
      <path id="Cmr10-64" d="M 594 0 
L 594 225 
Q 1394 225 1394 428 
L 1394 3788 
Q 1063 3628 556 3628 
L 556 3853 
Q 1341 3853 1741 4263 
L 1831 4263 
Q 1853 4263 1873 4245 
Q 1894 4228 1894 4206 
L 1894 428 
Q 1894 225 2694 225 
L 2694 0 
L 594 0 
z
" transform="scale(0.015625)"/>
      <path id="Cmr10-28" d="M 1600 -141 
Q 816 -141 533 504 
Q 250 1150 250 2041 
Q 250 2597 351 3087 
Q 453 3578 754 3920 
Q 1056 4263 1600 4263 
Q 2022 4263 2290 4056 
Q 2559 3850 2700 3523 
Q 2841 3197 2892 2823 
Q 2944 2450 2944 2041 
Q 2944 1491 2842 1011 
Q 2741 531 2444 195 
Q 2147 -141 1600 -141 
z
M 1600 25 
Q 1956 25 2131 390 
Q 2306 756 2347 1200 
Q 2388 1644 2388 2144 
Q 2388 2625 2347 3031 
Q 2306 3438 2132 3767 
Q 1959 4097 1600 4097 
Q 1238 4097 1063 3765 
Q 888 3434 847 3029 
Q 806 2625 806 2144 
Q 806 1788 823 1472 
Q 841 1156 916 820 
Q 991 484 1158 254 
Q 1325 25 1600 25 
z
" transform="scale(0.015625)"/>
      <path id="Cmsy10-11" d="M 653 1472 
Q 600 1472 565 1512 
Q 531 1553 531 1600 
Q 531 1647 565 1687 
Q 600 1728 653 1728 
L 4325 1728 
Q 4375 1728 4408 1687 
Q 4441 1647 4441 1600 
Q 4441 1553 4408 1512 
Q 4375 1472 4325 1472 
L 653 1472 
z
" transform="scale(0.015625)"/>
      <path id="Cmr10-78" d="M 556 728 
Q 622 541 758 387 
Q 894 234 1080 148 
Q 1266 63 1466 63 
Q 1928 63 2103 422 
Q 2278 781 2278 1294 
Q 2278 1516 2270 1667 
Q 2263 1819 2228 1959 
Q 2169 2184 2020 2353 
Q 1872 2522 1656 2522 
Q 1441 2522 1286 2456 
Q 1131 2391 1034 2303 
Q 938 2216 863 2119 
Q 788 2022 769 2016 
L 697 2016 
Q 681 2016 657 2036 
Q 634 2056 634 2075 
L 634 4213 
Q 634 4228 654 4245 
Q 675 4263 697 4263 
L 716 4263 
Q 1147 4056 1631 4056 
Q 2106 4056 2547 4263 
L 2566 4263 
Q 2588 4263 2606 4247 
Q 2625 4231 2625 4213 
L 2625 4153 
Q 2625 4122 2613 4122 
Q 2394 3831 2064 3668 
Q 1734 3506 1381 3506 
Q 1125 3506 856 3578 
L 856 2369 
Q 1069 2541 1236 2614 
Q 1403 2688 1663 2688 
Q 2016 2688 2295 2484 
Q 2575 2281 2725 1954 
Q 2875 1628 2875 1288 
Q 2875 903 2686 575 
Q 2497 247 2172 53 
Q 1847 -141 1466 -141 
Q 1150 -141 886 21 
Q 622 184 470 459 
Q 319 734 319 1044 
Q 319 1188 412 1278 
Q 506 1369 647 1369 
Q 788 1369 883 1276 
Q 978 1184 978 1044 
Q 978 906 883 811 
Q 788 716 647 716 
Q 625 716 597 720 
Q 569 725 556 728 
z
" transform="scale(0.015625)"/>
     </defs>
     <use xlink:href="#Cmr10-64" transform="translate(0 0.084203)"/>
     <use xlink:href="#Cmr10-28" transform="translate(50 0.084203)"/>
     <use xlink:href="#Cmsy10-11" transform="translate(104.004291 41.373437) scale(0.7)"/>
     <use xlink:href="#Cmr10-64" transform="translate(158.384174 41.373437) scale(0.7)"/>
     <use xlink:href="#Cmr10-78" transform="translate(193.384174 41.373437) scale(0.7)"/>
    </g>
   </g>
   <g id="text_2">
    <!-- $10^{-10}$ -->
    <g style="fill: #222831" transform="translate(105.155 202.251666) scale(0.11 -0.11)">
     <use xlink:href="#Cmr10-64" transform="translate(0 0.084203)"/>
     <use xlink:href="#Cmr10-28" transform="translate(50 0.084203)"/>
     <use xlink:href="#Cmsy10-11" transform="translate(104.004291 41.373437) scale(0.7)"/>
     <use xlink:href="#Cmr10-64" transform="translate(158.384174 41.373437) scale(0.7)"/>
     <use xlink:href="#Cmr10-28" transform="translate(193.384174 41.373437) scale(0.7)"/>
    </g>
   </g>
   <g id="text_3">
    <!-- $10^{-5}$ -->
    <g style="fill: #222831" transform="translate(176.38 202.251666) scale(0.11 -0.11)">
     <use xlink:href="#Cmr10-64" transform="translate(0 0.084203)"/>
     <use xlink:href="#Cmr10-28" transform="translate(50 0.084203)"/>
     <use xlink:href="#Cmsy10-11" transform="translate(104.004291 41.373437) scale(0.7)"/>
     <use xlink:href="#Cmr10-78" transform="translate(158.384174 41.373437) scale(0.7)"/>
    </g>
   </g>
   <g id="text_4">
    <!-- $10^{0}$ -->
    <g style="fill: #222831" transform="translate(248.705 202.251666) scale(0.11 -0.11)">
     <use xlink:href="#Cmr10-64" transform="translate(0 0.084203)"/>
     <use xlink:href="#Cmr10-28" transform="translate(50 0.084203)"/>
     <use xlink:href="#Cmr10-28" transform="translate(104.004291 41.373437) scale(0.7)"/>
    </g>
   </g>
   <g id="text_5">
    <!-- $10^{5}$ -->
    <g style="fill: #222831" transform="translate(318.005 202.251666) scale(0.11 -0.11)">
     <use xlink:href="#Cmr10-64" transform="translate(0 0.084203)"/>
     <use xlink:href="#Cmr10-28" transform="translate(50 0.084203)"/>
     <use xlink:href="#Cmr10-78" transform="translate(104.004291 41.373437) scale(0.7)"/>
    </g>
   </g>
   <g id="text_6">
    <!-- $10^{10}$ -->
    <g style="fill: #222831" transform="translate(385.38 202.251666) scale(0.11 -0.11)">
     <use xlink:href="#Cmr10-64" transform="translate(0 0.084203)"/>
     <use xlink:href="#Cmr10-28" transform="translate(50 0.084203)"/>
     <use xlink:href="#Cmr10-64" transform="translate(104.004291 41.373437) scale(0.7)"/>
     <use xlink:href="#Cmr10-28" transform="translate(139.004291 41.373437) scale(0.7)"/>
    </g>
   </g>
   <g id="text_7">
    <!-- $10^{15}$ -->
    <g style="fill: #222831" transform="translate(454.68 202.251666) scale(0.11 -0.11)">
     <use xlink:href="#Cmr10-64" transform="translate(0 0.084203)"/>
     <use xlink:href="#Cmr10-28" transform="translate(50 0.084203)"/>
     <use xlink:href="#Cmr10-64" transform="translate(104.004291 41.373437) scale(0.7)"/>
     <use xlink:href="#Cmr10-78" transform="translate(139.004291 41.373437) scale(0.7)"/>
    </g>
   </g>
   <g id="text_8">
    <!-- $10^{20}$ -->
    <g style="fill: #222831" transform="translate(523.98 202.251666) scale(0.11 -0.11)">
     <defs>
      <path id="Cmr10-31" d="M 319 0 
L 319 172 
Q 319 188 331 206 
L 1325 1306 
Q 1550 1550 1690 1715 
Q 1831 1881 1968 2097 
Q 2106 2313 2186 2536 
Q 2266 2759 2266 3009 
Q 2266 3272 2169 3511 
Q 2072 3750 1880 3894 
Q 1688 4038 1416 4038 
Q 1138 4038 916 3870 
Q 694 3703 603 3438 
Q 628 3444 672 3444 
Q 816 3444 917 3347 
Q 1019 3250 1019 3097 
Q 1019 2950 917 2848 
Q 816 2747 672 2747 
Q 522 2747 420 2851 
Q 319 2956 319 3097 
Q 319 3338 409 3548 
Q 500 3759 670 3923 
Q 841 4088 1055 4175 
Q 1269 4263 1509 4263 
Q 1875 4263 2190 4108 
Q 2506 3953 2690 3670 
Q 2875 3388 2875 3009 
Q 2875 2731 2753 2481 
Q 2631 2231 2440 2026 
Q 2250 1822 1953 1562 
Q 1656 1303 1563 1216 
L 838 519 
L 1453 519 
Q 1906 519 2211 526 
Q 2516 534 2534 550 
Q 2609 631 2688 1141 
L 2875 1141 
L 2694 0 
L 319 0 
z
" transform="scale(0.015625)"/>
     </defs>
     <use xlink:href="#Cmr10-64" transform="translate(0 0.084203)"/>
     <use xlink:href="#Cmr10-28" transform="translate(50 0.084203)"/>
     <use xlink:href="#Cmr10-31" transform="translate(104.004291 41.373437) scale(0.7)"/>
     <use xlink:href="#Cmr10-28" transform="translate(139.004291 41.373437) scale(0.7)"/>
    </g>
   </g>
   <g id="text_9">
    <!-- $10^{25}$ -->
    <g style="fill: #222831" transform="translate(593.28 202.251666) scale(0.11 -0.11)">
     <use xlink:href="#Cmr10-64" transform="translate(0 0.084203)"/>
     <use xlink:href="#Cmr10-28" transform="translate(50 0.084203)"/>
     <use xlink:href="#Cmr10-31" transform="translate(104.004291 41.373437) scale(0.7)"/>
     <use xlink:href="#Cmr10-78" transform="translate(139.004291 41.373437) scale(0.7)"/>
    </g>
   </g>
   <g id="line2d_10">
    <path d="M 48.78 167.69163 
L 48.78 140.442068 
" clip-path="url(#p8adfc1f2be)" style="fill: none; stroke: #d1242f; stroke-width: 0.9; stroke-linecap: square"/>
   </g>
   <g id="text_10">
    <!-- 原子核 -->
    <g style="fill: #d1242f" transform="translate(32.28 129.643959) scale(0.11 -0.11)">
     <defs>
      <path id="NotoSansCJKjp-Regular-2e09" d="M 2362 2624 
L 5024 2624 
L 5024 2029 
L 2362 2029 
L 2362 2624 
z
M 2362 3571 
L 5024 3571 
L 5024 2989 
L 2362 2989 
L 2362 3571 
z
M 4474 1107 
C 4954 723 5510 166 5754 -211 
L 6150 51 
C 5888 435 5325 966 4838 1338 
L 4474 1107 
z
M 2374 1318 
C 2080 838 1606 352 1126 45 
C 1242 -26 1434 -160 1523 -237 
C 1990 109 2496 646 2835 1184 
L 2374 1318 
z
M 1888 3955 
L 1888 1645 
L 3450 1645 
L 3450 13 
C 3450 -64 3424 -90 3328 -96 
C 3232 -96 2899 -96 2522 -90 
C 2586 -211 2650 -390 2669 -512 
C 3168 -512 3482 -512 3674 -442 
C 3866 -371 3917 -243 3917 6 
L 3917 1645 
L 5510 1645 
L 5510 3955 
L 3750 3955 
C 3814 4147 3885 4365 3949 4576 
L 6035 4576 
L 6035 5024 
L 838 5024 
L 838 3168 
C 838 2163 787 749 224 -256 
C 339 -301 550 -422 640 -499 
C 1229 550 1312 2106 1312 3168 
L 1312 4576 
L 3386 4576 
C 3347 4390 3296 4154 3238 3955 
L 1888 3955 
z
" transform="scale(0.015625)"/>
      <path id="NotoSansCJKjp-Regular-3bf8" d="M 966 4934 
L 966 4454 
L 4595 4454 
C 4211 4134 3718 3795 3264 3546 
L 2963 3546 
L 2963 2515 
L 301 2515 
L 301 2035 
L 2963 2035 
L 2963 115 
C 2963 0 2925 -32 2790 -45 
C 2643 -45 2170 -51 1658 -32 
C 1734 -173 1830 -384 1862 -525 
C 2477 -531 2893 -518 3136 -435 
C 3379 -358 3462 -218 3462 109 
L 3462 2035 
L 6112 2035 
L 6112 2515 
L 3462 2515 
L 3462 3149 
C 4179 3539 5024 4134 5574 4685 
L 5210 4960 
L 5101 4934 
L 966 4934 
z
" transform="scale(0.015625)"/>
      <path id="NotoSansCJKjp-Regular-52ac" d="M 5114 3488 
C 4858 3053 4512 2643 4096 2272 
C 3942 2419 3744 2592 3526 2765 
C 3821 3091 4179 3558 4467 3949 
L 4442 3962 
L 6125 3962 
L 6125 4403 
L 4570 4403 
L 4570 5363 
L 4102 5363 
L 4102 4403 
L 2496 4403 
L 2496 3962 
L 3878 3962 
C 3686 3648 3430 3290 3206 3008 
L 2874 3245 
L 2592 2925 
C 2976 2656 3437 2272 3738 1971 
C 3341 1670 2906 1408 2458 1216 
C 2566 1126 2701 973 2765 864 
C 3898 1402 4922 2298 5530 3315 
L 5114 3488 
z
M 5651 2317 
C 4992 1203 3757 339 2285 -115 
C 2400 -224 2515 -390 2579 -506 
C 3373 -237 4096 141 4704 608 
C 5120 230 5568 -230 5805 -531 
L 6195 -237 
C 5939 70 5466 525 5043 890 
C 5459 1261 5805 1670 6080 2131 
L 5651 2317 
z
M 1274 5376 
L 1274 4006 
L 333 4006 
L 333 3552 
L 1222 3552 
C 1024 2675 614 1664 205 1120 
C 288 1011 403 826 454 698 
C 762 1114 1050 1798 1274 2502 
L 1274 -506 
L 1722 -506 
L 1722 2496 
C 1933 2157 2182 1741 2291 1517 
L 2560 1888 
C 2445 2074 1907 2842 1722 3066 
L 1722 3552 
L 2483 3552 
L 2483 4006 
L 1722 4006 
L 1722 5376 
L 1274 5376 
z
" transform="scale(0.015625)"/>
     </defs>
     <use xlink:href="#NotoSansCJKjp-Regular-2e09"/>
     <use xlink:href="#NotoSansCJKjp-Regular-3bf8" transform="translate(100 0)"/>
     <use xlink:href="#NotoSansCJKjp-Regular-52ac" transform="translate(200 0)"/>
    </g>
   </g>
   <g id="line2d_11">
    <path d="M 118.08 167.69163 
L 118.08 194.941193 
" clip-path="url(#p8adfc1f2be)" style="fill: none; stroke: #d1242f; stroke-width: 0.9; stroke-linecap: square"/>
   </g>
   <g id="text_11">
    <!-- 原子 -->
    <g style="fill: #d1242f" transform="translate(107.08 214.099302) scale(0.11 -0.11)">
     <use xlink:href="#NotoSansCJKjp-Regular-2e09"/>
     <use xlink:href="#NotoSansCJKjp-Regular-3bf8" transform="translate(100 0)"/>
    </g>
   </g>
   <g id="line2d_12">
    <path d="M 131.94 167.69163 
L 131.94 100.160106 
" clip-path="url(#p8adfc1f2be)" style="fill: none; stroke: #bf8700; stroke-width: 0.9; stroke-linecap: square"/>
   </g>
   <g id="text_12">
    <!-- DNA 寬度 -->
    <g style="fill: #bf8700" transform="translate(108.603672 89.361997) scale(0.11 -0.11)">
     <defs>
      <path id="NotoSansCJKjp-Regular-25" d="M 646 0 
L 1843 0 
C 3258 0 4026 877 4026 2362 
C 4026 3859 3258 4691 1818 4691 
L 646 4691 
L 646 0 
z
M 1235 486 
L 1235 4211 
L 1766 4211 
C 2874 4211 3418 3552 3418 2362 
C 3418 1178 2874 486 1766 486 
L 1235 486 
z
" transform="scale(0.015625)"/>
      <path id="NotoSansCJKjp-Regular-2f" d="M 646 0 
L 1203 0 
L 1203 2464 
C 1203 2957 1158 3456 1133 3930 
L 1158 3930 
L 1664 2963 
L 3373 0 
L 3981 0 
L 3981 4691 
L 3418 4691 
L 3418 2253 
C 3418 1766 3462 1235 3501 768 
L 3469 768 
L 2963 1734 
L 1248 4691 
L 646 4691 
L 646 0 
z
" transform="scale(0.015625)"/>
      <path id="NotoSansCJKjp-Regular-22" d="M 26 0 
L 621 0 
L 1075 1434 
L 2790 1434 
L 3238 0 
L 3866 0 
L 2272 4691 
L 1613 4691 
L 26 0 
z
M 1222 1901 
L 1453 2624 
C 1619 3155 1773 3661 1920 4211 
L 1946 4211 
C 2099 3667 2246 3155 2419 2624 
L 2643 1901 
L 1222 1901 
z
" transform="scale(0.015625)"/>
      <path id="NotoSansCJKjp-Regular-1" transform="scale(0.015625)"/>
      <path id="NotoSansCJKjp-Regular-3d36" d="M 1677 2214 
L 4768 2214 
L 4768 1862 
L 1677 1862 
L 1677 2214 
z
M 1677 1568 
L 4768 1568 
L 4768 1210 
L 1677 1210 
L 1677 1568 
z
M 1677 2854 
L 4768 2854 
L 4768 2509 
L 1677 2509 
L 1677 2854 
z
M 461 4832 
L 461 3744 
L 902 3744 
L 902 4467 
L 5498 4467 
L 5498 3744 
L 5952 3744 
L 5952 4832 
L 3437 4832 
L 3437 5382 
L 2957 5382 
L 2957 4832 
L 461 4832 
z
M 4346 698 
C 4659 525 5037 256 5222 77 
L 5555 358 
C 5382 518 5069 723 4794 883 
L 5248 883 
L 5248 3174 
L 4218 3174 
L 4218 3558 
L 5491 3558 
L 5491 3917 
L 4218 3917 
L 4218 4320 
L 3770 4320 
L 3770 3917 
L 2611 3917 
L 2611 4320 
L 2170 4320 
L 2170 3917 
L 922 3917 
L 922 3558 
L 2170 3558 
L 2170 3174 
L 1210 3174 
L 1210 883 
L 2144 883 
C 1965 314 1510 26 256 -134 
C 352 -230 461 -410 499 -525 
C 1914 -307 2445 102 2656 883 
L 3578 883 
L 3578 77 
C 3578 -352 3744 -454 4346 -454 
C 4474 -454 5306 -454 5440 -454 
C 5933 -454 6061 -282 6112 422 
C 5990 442 5811 506 5709 570 
C 5683 -6 5638 -96 5395 -96 
C 5216 -96 4531 -96 4397 -96 
C 4109 -96 4058 -70 4058 83 
L 4058 883 
L 4576 883 
L 4346 698 
z
M 2611 3558 
L 3770 3558 
L 3770 3174 
L 2611 3174 
L 2611 3558 
z
" transform="scale(0.015625)"/>
      <path id="NotoSansCJKjp-Regular-4231" d="M 2470 4141 
L 2470 3584 
L 1440 3584 
L 1440 3187 
L 2470 3187 
L 2470 2125 
L 4960 2125 
L 4960 3187 
L 5997 3187 
L 5997 3584 
L 4960 3584 
L 4960 4141 
L 4486 4141 
L 4486 3584 
L 2931 3584 
L 2931 4141 
L 2470 4141 
z
M 4486 3187 
L 4486 2509 
L 2931 2509 
L 2931 3187 
L 4486 3187 
z
M 4851 1318 
C 4582 986 4211 717 3770 506 
C 3334 723 2970 992 2720 1318 
L 4851 1318 
z
M 1530 1715 
L 1530 1318 
L 2502 1318 
L 2259 1222 
C 2515 858 2861 550 3270 301 
C 2662 90 1978 -38 1280 -109 
C 1357 -211 1453 -397 1485 -512 
C 2291 -416 3072 -243 3757 45 
C 4365 -237 5088 -422 5869 -525 
C 5933 -403 6048 -211 6150 -109 
C 5466 -38 4819 96 4269 294 
C 4813 608 5261 1024 5549 1574 
L 5248 1734 
L 5165 1715 
L 1530 1715 
z
M 774 4742 
L 774 2893 
C 774 1965 730 659 198 -256 
C 314 -307 512 -435 595 -518 
C 1152 448 1235 1901 1235 2893 
L 1235 4307 
L 6035 4307 
L 6035 4742 
L 3635 4742 
L 3635 5376 
L 3142 5376 
L 3142 4742 
L 774 4742 
z
" transform="scale(0.015625)"/>
     </defs>
     <use xlink:href="#NotoSansCJKjp-Regular-25"/>
     <use xlink:href="#NotoSansCJKjp-Regular-2f" transform="translate(68.796875 0)"/>
     <use xlink:href="#NotoSansCJKjp-Regular-22" transform="translate(141.09375 0)"/>
     <use xlink:href="#NotoSansCJKjp-Regular-1" transform="translate(201.890625 0)"/>
     <use xlink:href="#NotoSansCJKjp-Regular-3d36" transform="translate(224.296875 0)"/>
     <use xlink:href="#NotoSansCJKjp-Regular-4231" transform="translate(324.296875 0)"/>
    </g>
   </g>
   <g id="line2d_13">
    <path d="M 159.66 167.69163 
L 159.66 235.223155 
" clip-path="url(#p8adfc1f2be)" style="fill: none; stroke: #bf8700; stroke-width: 0.9; stroke-linecap: square"/>
   </g>
   <g id="text_13">
    <!-- 病毒 -->
    <g style="fill: #bf8700" transform="translate(148.66 254.381264) scale(0.11 -0.11)">
     <defs>
      <path id="NotoSansCJKjp-Regular-6aaa" d="M 294 3962 
C 512 3578 717 3072 787 2752 
L 1171 2950 
C 1101 3270 883 3757 653 4128 
L 294 3962 
z
M 2227 2541 
L 2227 -518 
L 2669 -518 
L 2669 2125 
L 3782 2125 
C 3731 1626 3520 1043 2694 666 
C 2797 589 2925 448 2982 352 
C 3539 640 3853 1005 4026 1382 
C 4390 1043 4781 640 4986 365 
L 5299 640 
C 5056 941 4563 1421 4154 1779 
C 4186 1894 4198 2010 4211 2125 
L 5427 2125 
L 5427 19 
C 5427 -58 5402 -83 5312 -90 
C 5222 -96 4915 -96 4570 -83 
C 4640 -205 4710 -390 4736 -506 
C 5184 -512 5472 -506 5651 -435 
C 5837 -358 5888 -230 5888 19 
L 5888 2541 
L 4224 2541 
L 4224 3206 
L 6086 3206 
L 6086 3622 
L 2035 3622 
L 2035 3206 
L 3795 3206 
L 3795 2541 
L 2227 2541 
z
M 198 1626 
L 365 1184 
L 1210 1670 
C 1120 1011 896 339 371 -192 
C 474 -256 653 -422 717 -512 
C 1606 371 1734 1741 1734 2739 
L 1734 4211 
L 6138 4211 
L 6138 4653 
L 3770 4653 
L 3770 5376 
L 3270 5376 
L 3270 4653 
L 1274 4653 
L 1274 2746 
C 1274 2554 1267 2355 1254 2150 
C 858 1946 480 1747 198 1626 
z
" transform="scale(0.015625)"/>
      <path id="NotoSansCJKjp-Regular-593b" d="M 4723 2138 
L 4685 1581 
L 3354 1581 
L 3430 2138 
L 4723 2138 
z
M 1408 2502 
C 1357 2221 1293 1901 1222 1581 
L 262 1581 
L 262 1203 
L 1139 1203 
C 1030 723 915 256 806 -90 
L 1280 -122 
L 1370 237 
L 4518 237 
C 4480 64 4429 -45 4378 -96 
C 4320 -160 4250 -173 4115 -173 
C 3981 -173 3622 -166 3232 -134 
C 3290 -230 3334 -384 3347 -486 
C 3725 -506 4109 -518 4314 -499 
C 4506 -486 4653 -448 4774 -314 
C 4864 -218 4934 -51 4992 237 
L 5882 237 
L 5882 614 
L 5056 614 
L 5120 1203 
L 6144 1203 
L 6144 1581 
L 5152 1581 
L 5197 2298 
C 5203 2362 5210 2502 5210 2502 
L 1408 2502 
z
M 1798 2138 
L 2989 2138 
L 2912 1581 
L 1677 1581 
L 1798 2138 
z
M 4589 614 
L 3194 614 
L 3296 1203 
L 4659 1203 
C 4634 973 4614 774 4589 614 
z
M 1459 614 
L 1594 1203 
L 2854 1203 
L 2746 614 
L 1459 614 
z
M 2944 5376 
L 2944 4851 
L 710 4851 
L 710 4486 
L 2944 4486 
L 2944 4058 
L 1082 4058 
L 1082 3693 
L 2944 3693 
L 2944 3213 
L 442 3213 
L 442 2848 
L 5971 2848 
L 5971 3213 
L 3424 3213 
L 3424 3693 
L 5376 3693 
L 5376 4058 
L 3424 4058 
L 3424 4486 
L 5779 4486 
L 5779 4851 
L 3424 4851 
L 3424 5376 
L 2944 5376 
z
" transform="scale(0.015625)"/>
     </defs>
     <use xlink:href="#NotoSansCJKjp-Regular-6aaa"/>
     <use xlink:href="#NotoSansCJKjp-Regular-593b" transform="translate(100 0)"/>
    </g>
   </g>
   <g id="line2d_14">
    <path d="M 187.38 167.69163 
L 187.38 140.442068 
" clip-path="url(#p8adfc1f2be)" style="fill: none; stroke: #bf8700; stroke-width: 0.9; stroke-linecap: square"/>
   </g>
   <g id="text_14">
    <!-- 紅血球 -->
    <g style="fill: #bf8700" transform="translate(170.88 129.643959) scale(0.11 -0.11)">
     <defs>
      <path id="NotoSansCJKjp-Regular-785e" d="M 2278 1632 
C 2477 1216 2682 678 2758 320 
L 3174 474 
C 3098 826 2886 1357 2675 1766 
L 2278 1632 
z
M 685 1728 
C 602 1165 448 589 218 205 
C 326 154 531 58 627 -6 
C 851 403 1030 1030 1133 1645 
L 685 1728 
z
M 2682 179 
L 2682 -282 
L 6150 -282 
L 6150 179 
L 4717 179 
L 4717 4237 
L 6048 4237 
L 6048 4691 
L 2944 4691 
L 2944 4237 
L 4218 4237 
L 4218 179 
L 2682 179 
z
M 237 2573 
L 288 2112 
L 1485 2189 
L 1485 -512 
L 1958 -512 
L 1958 2221 
L 2746 2272 
C 2822 2125 2893 1984 2938 1869 
L 3315 2080 
C 3168 2432 2816 2976 2496 3379 
L 2144 3200 
C 2266 3040 2387 2861 2502 2675 
L 1280 2618 
C 1754 3155 2291 3866 2694 4461 
L 2253 4678 
C 2048 4326 1773 3904 1485 3507 
C 1363 3648 1203 3802 1037 3955 
C 1306 4301 1626 4787 1875 5203 
L 1421 5382 
C 1267 5030 998 4563 755 4211 
L 499 4416 
L 262 4096 
C 595 3827 973 3450 1216 3155 
C 1056 2950 902 2758 749 2592 
L 237 2573 
z
" transform="scale(0.015625)"/>
      <path id="NotoSansCJKjp-Regular-8f51" d="M 902 4122 
L 902 307 
L 262 307 
L 262 -166 
L 6150 -166 
L 6150 307 
L 5555 307 
L 5555 4122 
L 2886 4122 
C 3053 4461 3238 4877 3398 5242 
L 2835 5382 
C 2733 5005 2547 4499 2368 4122 
L 902 4122 
z
M 1370 307 
L 1370 3661 
L 2291 3661 
L 2291 307 
L 1370 307 
z
M 2746 307 
L 2746 3661 
L 3680 3661 
L 3680 307 
L 2746 307 
z
M 4128 307 
L 4128 3661 
L 5062 3661 
L 5062 307 
L 4128 307 
z
" transform="scale(0.015625)"/>
      <path id="NotoSansCJKjp-Regular-6776" d="M 1888 582 
L 2144 154 
C 2605 454 3194 851 3725 1229 
L 3578 1626 
C 2963 1229 2317 819 1888 582 
z
M 2406 3213 
C 2694 2842 2995 2342 3117 2022 
L 3507 2214 
C 3386 2541 3072 3027 2784 3379 
L 2406 3213 
z
M 5670 3450 
C 5466 3078 5107 2554 4838 2240 
L 5178 2042 
C 5459 2342 5811 2816 6093 3219 
L 5670 3450 
z
M 4806 5056 
C 5146 4858 5542 4550 5741 4326 
L 6022 4621 
C 5824 4838 5408 5133 5069 5318 
L 4806 5056 
z
M 205 768 
L 339 307 
C 928 506 1715 774 2451 1037 
L 2387 1459 
L 1555 1190 
L 1555 2586 
L 2278 2586 
L 2278 3034 
L 1555 3034 
L 1555 4384 
L 2374 4384 
L 2374 4832 
L 294 4832 
L 294 4384 
L 1088 4384 
L 1088 3034 
L 371 3034 
L 371 2586 
L 1088 2586 
L 1088 1043 
L 205 768 
z
M 3917 5382 
L 3917 4237 
L 2253 4237 
L 2253 3795 
L 3917 3795 
L 3917 96 
C 3917 -13 3872 -45 3770 -51 
C 3667 -51 3341 -58 2970 -45 
C 3040 -173 3123 -384 3142 -506 
C 3648 -506 3942 -493 4128 -416 
C 4301 -333 4378 -192 4378 96 
L 4378 1920 
C 4698 1101 5178 486 5958 -70 
C 6022 58 6150 211 6266 301 
C 5120 1069 4634 1971 4378 3584 
L 4378 3795 
L 6176 3795 
L 6176 4237 
L 4378 4237 
L 4378 5382 
L 3917 5382 
z
" transform="scale(0.015625)"/>
     </defs>
     <use xlink:href="#NotoSansCJKjp-Regular-785e"/>
     <use xlink:href="#NotoSansCJKjp-Regular-8f51" transform="translate(100 0)"/>
     <use xlink:href="#NotoSansCJKjp-Regular-6776" transform="translate(200 0)"/>
    </g>
   </g>
   <g id="line2d_15">
    <path d="M 215.1 167.69163 
L 215.1 194.941193 
" clip-path="url(#p8adfc1f2be)" style="fill: none; stroke: #1a7f37; stroke-width: 0.9; stroke-linecap: square"/>
   </g>
   <g id="text_15">
    <!-- 螞蟻 -->
    <g style="fill: #1a7f37" transform="translate(204.1 214.099302) scale(0.11 -0.11)">
     <defs>
      <path id="NotoSansCJKjp-Regular-8e26" d="M 3526 1222 
C 3590 838 3629 352 3616 32 
L 3974 90 
C 3981 403 3936 890 3859 1274 
L 3526 1222 
z
M 4160 1306 
C 4282 986 4403 570 4448 294 
L 4774 397 
C 4730 659 4608 1075 4467 1389 
L 4160 1306 
z
M 4781 1446 
C 4941 1210 5120 883 5190 678 
L 5485 806 
C 5408 1011 5229 1325 5056 1562 
L 4781 1446 
z
M 2912 1280 
C 2861 755 2739 205 2477 -122 
L 2816 -307 
C 3110 45 3213 640 3270 1190 
L 2912 1280 
z
M 1914 1517 
C 1997 1293 2074 1043 2138 800 
L 1658 710 
L 1658 1952 
L 2509 1952 
L 2509 4250 
L 1658 4250 
L 1658 5331 
L 1242 5331 
L 1242 4250 
L 442 4250 
L 442 1677 
L 813 1677 
L 813 1952 
L 1242 1952 
L 1242 640 
C 858 570 499 512 218 474 
L 294 26 
L 2221 397 
C 2240 282 2259 166 2266 70 
L 2630 173 
C 2592 563 2445 1158 2259 1606 
L 1914 1517 
z
M 813 3853 
L 1280 3853 
L 1280 2355 
L 813 2355 
L 813 3853 
z
M 1632 3853 
L 2125 3853 
L 2125 2355 
L 1632 2355 
L 1632 3853 
z
M 4198 3712 
L 4198 3130 
L 3309 3130 
L 3309 3712 
L 4198 3712 
z
M 2874 5101 
L 2874 1715 
L 5613 1715 
C 5542 531 5466 70 5350 -58 
C 5299 -115 5248 -128 5146 -122 
C 5050 -128 4800 -122 4531 -96 
C 4595 -211 4640 -378 4646 -499 
C 4922 -518 5190 -518 5331 -506 
C 5504 -486 5613 -448 5715 -333 
C 5888 -134 5971 429 6054 1946 
C 6061 2003 6067 2144 6067 2144 
L 4634 2144 
L 4634 2739 
L 5734 2739 
L 5734 3130 
L 4634 3130 
L 4634 3712 
L 5734 3712 
L 5734 4102 
L 4634 4102 
L 4634 4678 
L 5888 4678 
L 5888 5101 
L 2874 5101 
z
M 4198 4102 
L 3309 4102 
L 3309 4678 
L 4198 4678 
L 4198 4102 
z
M 4198 2739 
L 4198 2144 
L 3309 2144 
L 3309 2739 
L 4198 2739 
z
" transform="scale(0.015625)"/>
      <path id="NotoSansCJKjp-Regular-8ec8" d="M 5114 2464 
C 5363 2291 5651 2029 5786 1837 
L 6067 2080 
C 5933 2259 5638 2509 5382 2675 
L 5114 2464 
z
M 3021 5222 
C 3155 5062 3290 4851 3366 4685 
L 2598 4685 
L 2598 4326 
L 4032 4326 
L 4032 3930 
L 2765 3930 
L 2765 3590 
L 4032 3590 
L 4032 3149 
L 2470 3149 
L 2470 2790 
L 6093 2790 
L 6093 3149 
L 4480 3149 
L 4480 3590 
L 5862 3590 
L 5862 3930 
L 4480 3930 
L 4480 4326 
L 6016 4326 
L 6016 4685 
L 5146 4685 
C 5274 4838 5421 5037 5549 5235 
L 5139 5376 
C 5043 5190 4858 4902 4723 4717 
L 4806 4685 
L 3667 4685 
L 3789 4736 
C 3725 4915 3552 5178 3386 5363 
L 3021 5222 
z
M 5600 1318 
C 5478 1107 5312 890 5114 691 
C 5050 896 4992 1133 4954 1402 
L 6157 1402 
L 6157 1754 
L 4902 1754 
C 4870 2029 4851 2336 4845 2656 
L 4435 2656 
C 4448 2342 4467 2035 4499 1754 
L 3654 1754 
L 3654 2272 
C 3891 2317 4115 2368 4301 2426 
L 4045 2714 
C 3667 2579 2989 2477 2432 2419 
C 2477 2336 2522 2214 2534 2131 
C 2758 2150 2995 2176 3238 2208 
L 3238 1754 
L 2445 1754 
L 2445 1402 
L 3238 1402 
L 3238 941 
L 2458 845 
L 2515 480 
L 3238 576 
L 3238 -70 
C 3238 -128 3219 -147 3149 -147 
C 3091 -154 2886 -154 2669 -147 
C 2720 -256 2771 -403 2790 -512 
C 3123 -512 3334 -499 3475 -442 
C 3616 -384 3654 -282 3654 -70 
L 3654 634 
L 4307 730 
L 4301 1075 
L 3654 992 
L 3654 1402 
L 4550 1402 
C 4608 1030 4691 691 4794 416 
C 4493 186 4160 -6 3827 -122 
C 3923 -205 4026 -358 4077 -454 
C 4371 -326 4672 -147 4947 70 
C 5139 -307 5389 -518 5677 -518 
C 5997 -518 6125 -339 6189 275 
C 6086 307 5965 378 5882 461 
C 5862 45 5811 -122 5702 -122 
C 5542 -122 5389 38 5248 326 
C 5517 582 5747 858 5901 1133 
L 5600 1318 
z
M 1773 1414 
C 1856 1197 1939 947 2003 704 
L 1581 627 
L 1581 1894 
L 2336 1894 
L 2336 4250 
L 1587 4250 
L 1587 5344 
L 1210 5344 
L 1210 4250 
L 461 4250 
L 461 1619 
L 813 1619 
L 813 1894 
L 1203 1894 
L 1203 563 
L 224 397 
L 307 -32 
L 2093 320 
C 2125 166 2144 26 2157 -96 
L 2515 6 
C 2470 416 2310 1030 2106 1510 
L 1773 1414 
z
M 813 3853 
L 1242 3853 
L 1242 2291 
L 813 2291 
L 813 3853 
z
M 1549 3853 
L 1978 3853 
L 1978 2291 
L 1549 2291 
L 1549 3853 
z
" transform="scale(0.015625)"/>
     </defs>
     <use xlink:href="#NotoSansCJKjp-Regular-8e26"/>
     <use xlink:href="#NotoSansCJKjp-Regular-8ec8" transform="translate(100 0)"/>
    </g>
   </g>
   <g id="line2d_16">
    <path d="M 256.68 167.69163 
L 256.68 140.442068 
" clip-path="url(#p8adfc1f2be)" style="fill: none; stroke: #1f6feb; stroke-width: 0.9; stroke-linecap: square"/>
   </g>
   <g id="text_16">
    <!-- 人 -->
    <g style="fill: #1f6feb" transform="translate(251.18 129.643959) scale(0.11 -0.11)">
     <defs>
      <path id="NotoSansCJKjp-Regular-2614" d="M 2867 5178 
C 2829 4333 2829 1254 211 -83 
C 365 -186 518 -333 602 -454 
C 2234 429 2893 1978 3174 3270 
C 3488 1978 4205 339 5856 -454 
C 5933 -326 6080 -160 6227 -51 
C 3782 1062 3443 4064 3386 4890 
L 3405 5178 
L 2867 5178 
z
" transform="scale(0.015625)"/>
     </defs>
     <use xlink:href="#NotoSansCJKjp-Regular-2614"/>
    </g>
   </g>
   <g id="line2d_17">
    <path d="M 312.12 167.69163 
L 303.804 194.941193 
" clip-path="url(#p8adfc1f2be)" style="fill: none; stroke: #1f6feb; stroke-width: 0.9; stroke-linecap: square"/>
   </g>
   <g id="text_17">
    <!-- 一座城市 -->
    <g style="fill: #1f6feb" transform="translate(281.804 214.099302) scale(0.11 -0.11)">
     <defs>
      <path id="NotoSansCJKjp-Regular-2509" d="M 282 2758 
L 282 2234 
L 6144 2234 
L 6144 2758 
L 282 2758 
z
" transform="scale(0.015625)"/>
      <path id="NotoSansCJKjp-Regular-4233" d="M 4832 3878 
C 4704 3104 4397 2496 3872 2112 
L 3872 3987 
L 3405 3987 
L 3405 1459 
L 1632 1459 
L 1632 1030 
L 3405 1030 
L 3405 77 
L 1216 77 
L 1216 -346 
L 6099 -346 
L 6099 77 
L 3872 77 
L 3872 1030 
L 5702 1030 
L 5702 1459 
L 3872 1459 
L 3872 2086 
C 3974 2016 4141 1875 4198 1805 
C 4480 2029 4710 2310 4890 2650 
C 5235 2349 5600 1997 5805 1766 
L 6106 2093 
C 5882 2349 5440 2733 5062 3040 
C 5152 3283 5222 3546 5267 3827 
L 4832 3878 
z
M 2253 3878 
C 2131 3066 1837 2413 1286 2010 
C 1389 1946 1574 1798 1645 1722 
C 1933 1958 2170 2266 2342 2630 
C 2605 2381 2867 2099 3014 1901 
L 3302 2221 
C 3136 2438 2803 2765 2509 3027 
C 2592 3277 2656 3546 2701 3840 
L 2253 3878 
z
M 717 4698 
L 717 2918 
C 717 1990 672 698 173 -224 
C 288 -275 493 -410 582 -493 
C 1107 486 1190 1933 1190 2918 
L 1190 4250 
L 6074 4250 
L 6074 4698 
L 3635 4698 
L 3635 5376 
L 3142 5376 
L 3142 4698 
L 717 4698 
z
" transform="scale(0.015625)"/>
      <path id="NotoSansCJKjp-Regular-34ae" d="M 262 826 
L 416 352 
C 928 550 1562 800 2176 1050 
L 2086 1485 
L 1466 1254 
L 1466 3366 
L 2080 3366 
L 2080 3814 
L 1466 3814 
L 1466 5299 
L 1018 5299 
L 1018 3814 
L 339 3814 
L 339 3366 
L 1018 3366 
L 1018 1088 
C 736 986 474 896 262 826 
z
M 5542 3238 
C 5402 2650 5210 2106 4960 1632 
C 4858 2266 4781 3059 4749 3949 
L 6099 3949 
L 6099 4397 
L 5632 4397 
L 5952 4621 
C 5792 4826 5459 5133 5178 5338 
L 4858 5126 
C 5126 4915 5440 4608 5594 4397 
L 4736 4397 
C 4730 4717 4730 5043 4730 5382 
L 4269 5382 
L 4288 4397 
L 2342 4397 
L 2342 2400 
C 2342 1568 2278 512 1638 -230 
C 1741 -288 1920 -442 1990 -531 
C 2688 269 2790 1491 2790 2400 
L 2790 2682 
L 3597 2682 
C 3584 1523 3558 1114 3494 1011 
C 3456 960 3405 947 3328 947 
C 3245 947 3046 947 2829 966 
C 2893 864 2931 685 2944 563 
C 3168 550 3392 550 3520 563 
C 3674 582 3763 627 3853 736 
C 3968 902 3994 1421 4013 2899 
C 4019 2957 4019 3085 4019 3085 
L 2790 3085 
L 2790 3949 
L 4301 3949 
C 4352 2835 4442 1824 4614 1056 
C 4269 570 3846 160 3334 -154 
C 3437 -230 3610 -403 3680 -486 
C 4090 -211 4448 128 4755 518 
C 4954 -90 5222 -448 5581 -448 
C 5997 -448 6138 -147 6208 819 
C 6099 864 5946 960 5850 1062 
C 5824 326 5766 13 5638 13 
C 5427 13 5235 365 5088 979 
C 5478 1594 5773 2317 5984 3155 
L 5542 3238 
z
" transform="scale(0.015625)"/>
      <path id="NotoSansCJKjp-Regular-412b" d="M 979 3149 
L 979 282 
L 1459 282 
L 1459 2682 
L 2931 2682 
L 2931 -531 
L 3430 -531 
L 3430 2682 
L 4998 2682 
L 4998 896 
C 4998 806 4973 774 4858 768 
C 4742 768 4358 768 3923 781 
C 3987 646 4064 448 4090 307 
C 4634 307 4998 314 5216 390 
C 5434 467 5491 614 5491 890 
L 5491 3149 
L 3430 3149 
L 3430 4019 
L 6086 4019 
L 6086 4486 
L 3437 4486 
L 3437 5408 
L 2925 5408 
L 2925 4486 
L 326 4486 
L 326 4019 
L 2931 4019 
L 2931 3149 
L 979 3149 
z
" transform="scale(0.015625)"/>
     </defs>
     <use xlink:href="#NotoSansCJKjp-Regular-2509"/>
     <use xlink:href="#NotoSansCJKjp-Regular-4233" transform="translate(100 0)"/>
     <use xlink:href="#NotoSansCJKjp-Regular-34ae" transform="translate(200 0)"/>
     <use xlink:href="#NotoSansCJKjp-Regular-412b" transform="translate(300 0)"/>
    </g>
   </g>
   <g id="line2d_18">
    <path d="M 339.84 167.69163 
L 339.84 100.160106 
" clip-path="url(#p8adfc1f2be)" style="fill: none; stroke: #1f6feb; stroke-width: 0.9; stroke-linecap: square"/>
   </g>
   <g id="text_18">
    <!-- 台灣南北長 -->
    <g style="fill: #1f6feb" transform="translate(312.34 89.361997) scale(0.11 -0.11)">
     <defs>
      <path id="NotoSansCJKjp-Regular-2e8f" d="M 1158 2221 
L 1158 -512 
L 1651 -512 
L 1651 -224 
L 4730 -224 
L 4730 -499 
L 5242 -499 
L 5242 2221 
L 1158 2221 
z
M 1651 237 
L 1651 1760 
L 4730 1760 
L 4730 237 
L 1651 237 
z
M 403 3411 
L 442 2925 
C 1626 2970 3475 3046 5229 3142 
C 5421 2918 5581 2707 5690 2522 
L 6106 2842 
C 5773 3373 5018 4122 4365 4640 
L 3987 4365 
C 4262 4134 4557 3859 4826 3584 
L 1939 3462 
C 2291 3994 2682 4646 2976 5216 
L 2445 5402 
C 2195 4800 1760 4013 1370 3443 
L 403 3411 
z
" transform="scale(0.015625)"/>
      <path id="NotoSansCJKjp-Regular-60f2" d="M 3226 5235 
L 3226 4960 
L 4339 4960 
L 4339 5235 
L 3226 5235 
z
M 3194 4218 
L 3194 3942 
L 4384 3942 
L 4384 4218 
L 3194 4218 
z
M 3194 3738 
L 3194 3469 
L 4384 3469 
L 4384 3738 
L 3194 3738 
z
M 3494 2970 
L 4058 2970 
L 4058 2547 
L 3494 2547 
L 3494 2970 
z
M 3174 3238 
L 3174 2285 
L 4384 2285 
L 4384 3238 
L 3174 3238 
z
M 2624 3181 
C 2688 2957 2752 2669 2771 2483 
L 3059 2554 
C 3034 2739 2957 3021 2893 3245 
L 2624 3181 
z
M 1747 3264 
C 1690 2957 1606 2650 1466 2413 
C 1542 2374 1696 2310 1760 2272 
C 1888 2509 1997 2867 2061 3194 
L 1747 3264 
z
M 5638 3187 
C 5741 2925 5850 2573 5894 2349 
L 6182 2438 
C 6138 2662 6022 3002 5914 3270 
L 5638 3187 
z
M 4710 3264 
C 4653 2970 4576 2675 4442 2438 
C 4525 2400 4666 2330 4730 2291 
C 4858 2522 4960 2867 5024 3194 
L 4710 3264 
z
M 378 4979 
C 698 4781 1088 4474 1267 4256 
L 1562 4614 
C 1370 4826 979 5114 653 5293 
L 378 4979 
z
M 230 3264 
C 563 3085 973 2790 1158 2592 
L 1440 2950 
C 1242 3155 838 3424 506 3590 
L 230 3264 
z
M 352 -179 
L 781 -435 
C 1037 160 1331 947 1542 1619 
L 1158 1862 
C 922 1146 589 314 352 -179 
z
M 2221 1408 
C 2131 1056 2016 621 1901 320 
L 2336 250 
L 2400 448 
L 5318 448 
C 5235 128 5146 -38 5050 -109 
C 4979 -154 4909 -154 4774 -154 
C 4614 -154 4192 -147 3776 -109 
C 3853 -218 3904 -371 3917 -486 
C 4320 -506 4710 -512 4902 -506 
C 5120 -506 5254 -480 5382 -384 
C 5562 -250 5683 32 5811 582 
C 5830 646 5843 774 5843 774 
L 2496 774 
L 2586 1101 
L 5562 1101 
L 5562 2054 
L 1971 2054 
L 1971 1747 
L 5107 1747 
L 5107 1408 
L 2221 1408 
z
M 5581 4890 
C 5491 4730 5370 4538 5235 4346 
C 5178 4410 5107 4486 5030 4557 
C 5158 4755 5312 5005 5446 5235 
L 5133 5382 
C 5056 5203 4928 4947 4806 4742 
L 4710 4819 
L 4544 4602 
L 4544 4736 
L 3002 4736 
L 3002 4442 
L 4544 4442 
L 4544 4563 
C 4723 4416 4915 4224 5037 4064 
L 4800 3770 
L 4493 3763 
L 4525 3430 
L 5146 3469 
L 5146 2176 
L 5485 2176 
L 5485 3488 
L 5830 3507 
L 5888 3334 
L 6157 3469 
C 6099 3661 5958 3949 5805 4160 
L 5555 4045 
L 5696 3802 
L 5171 3782 
C 5414 4064 5677 4422 5888 4730 
L 5581 4890 
z
M 2592 4864 
C 2515 4717 2419 4544 2304 4371 
C 2246 4429 2182 4493 2106 4557 
C 2240 4755 2381 5011 2509 5248 
L 2195 5389 
C 2125 5203 2003 4947 1888 4736 
L 1786 4813 
L 1606 4563 
C 1786 4429 1984 4243 2118 4083 
C 2042 3974 1958 3866 1888 3776 
L 1549 3763 
L 1587 3430 
L 2170 3469 
L 2170 2176 
L 2509 2176 
L 2509 3488 
L 2797 3507 
L 2835 3347 
L 3098 3456 
C 3053 3642 2944 3917 2822 4128 
L 2586 4032 
L 2688 3814 
L 2253 3789 
C 2470 4070 2701 4410 2899 4704 
L 2592 4864 
z
" transform="scale(0.015625)"/>
      <path id="NotoSansCJKjp-Regular-2d9f" d="M 2029 2944 
C 2189 2707 2355 2387 2413 2170 
L 2816 2310 
C 2746 2522 2579 2842 2406 3066 
L 2029 2944 
z
M 2931 5376 
L 2931 4736 
L 384 4736 
L 384 4282 
L 2931 4282 
L 2931 3603 
L 730 3603 
L 730 -506 
L 1216 -506 
L 1216 3162 
L 5197 3162 
L 5197 51 
C 5197 -51 5165 -83 5050 -90 
C 4941 -96 4544 -102 4141 -83 
C 4211 -205 4282 -384 4307 -512 
C 4832 -512 5197 -512 5408 -435 
C 5619 -365 5683 -237 5683 51 
L 5683 3603 
L 3462 3603 
L 3462 4282 
L 6022 4282 
L 6022 4736 
L 3462 4736 
L 3462 5376 
L 2931 5376 
z
M 3981 3078 
C 3885 2816 3686 2426 3539 2163 
L 1702 2163 
L 1702 1773 
L 2950 1773 
L 2950 1126 
L 1568 1126 
L 1568 723 
L 2950 723 
L 2950 -390 
L 3411 -390 
L 3411 723 
L 4851 723 
L 4851 1126 
L 3411 1126 
L 3411 1773 
L 4736 1773 
L 4736 2163 
L 3955 2163 
C 4102 2394 4256 2675 4397 2950 
L 3981 3078 
z
" transform="scale(0.015625)"/>
      <path id="NotoSansCJKjp-Regular-2d2e" d="M 218 781 
L 435 307 
C 902 499 1485 742 2061 992 
L 2061 -454 
L 2547 -454 
L 2547 5261 
L 2061 5261 
L 2061 3750 
L 410 3750 
L 410 3270 
L 2061 3270 
L 2061 1472 
C 1370 1210 685 941 218 781 
z
M 5702 4275 
C 5312 3910 4710 3482 4115 3123 
L 4115 5254 
L 3616 5254 
L 3616 512 
C 3616 -173 3795 -365 4397 -365 
C 4525 -365 5293 -365 5427 -365 
C 6054 -365 6182 51 6234 1216 
C 6099 1248 5901 1344 5779 1446 
C 5734 384 5690 102 5389 102 
C 5222 102 4582 102 4448 102 
C 4166 102 4115 166 4115 506 
L 4115 2624 
C 4794 3002 5523 3437 6061 3853 
L 5702 4275 
z
" transform="scale(0.015625)"/>
      <path id="NotoSansCJKjp-Regular-a74e" d="M 1466 5120 
L 1466 2304 
L 339 2304 
L 339 1875 
L 1466 1875 
L 1466 96 
L 646 -26 
L 762 -474 
C 1536 -339 2637 -154 3661 32 
L 3642 461 
L 1958 179 
L 1958 1875 
L 2874 1875 
C 3411 621 4397 -186 5862 -531 
C 5933 -397 6067 -205 6170 -102 
C 5440 38 4826 307 4333 685 
C 4800 915 5357 1242 5779 1555 
L 5389 1824 
C 5050 1542 4493 1197 4026 947 
C 3757 1216 3533 1523 3360 1875 
L 6067 1875 
L 6067 2304 
L 1958 2304 
L 1958 2861 
L 5242 2861 
L 5242 3251 
L 1958 3251 
L 1958 3789 
L 5242 3789 
L 5242 4173 
L 1958 4173 
L 1958 4710 
L 5440 4710 
L 5440 5120 
L 1466 5120 
z
" transform="scale(0.015625)"/>
     </defs>
     <use xlink:href="#NotoSansCJKjp-Regular-2e8f"/>
     <use xlink:href="#NotoSansCJKjp-Regular-60f2" transform="translate(100 0)"/>
     <use xlink:href="#NotoSansCJKjp-Regular-2d9f" transform="translate(200 0)"/>
     <use xlink:href="#NotoSansCJKjp-Regular-2d2e" transform="translate(300 0)"/>
     <use xlink:href="#NotoSansCJKjp-Regular-a74e" transform="translate(400 0)"/>
    </g>
   </g>
   <g id="line2d_19">
    <path d="M 367.56 167.69163 
L 367.56 235.223155 
" clip-path="url(#p8adfc1f2be)" style="fill: none; stroke: #8250df; stroke-width: 0.9; stroke-linecap: square"/>
   </g>
   <g id="text_19">
    <!-- 地球直徑 -->
    <g style="fill: #8250df" transform="translate(345.56 254.381264) scale(0.11 -0.11)">
     <defs>
      <path id="NotoSansCJKjp-Regular-33d0" d="M 2746 4781 
L 2746 3027 
L 2054 2739 
L 2234 2310 
L 2746 2528 
L 2746 506 
C 2746 -192 2957 -365 3693 -365 
C 3859 -365 5094 -365 5274 -365 
C 5939 -365 6099 -83 6170 800 
C 6042 819 5850 896 5741 979 
C 5696 243 5632 70 5254 70 
C 4998 70 3923 70 3712 70 
C 3283 70 3206 141 3206 493 
L 3206 2726 
L 4064 3091 
L 4064 915 
L 4518 915 
L 4518 3283 
L 5414 3667 
C 5414 2637 5402 1926 5370 1773 
C 5338 1626 5280 1600 5178 1600 
C 5114 1600 4902 1600 4749 1613 
C 4806 1504 4845 1318 4864 1190 
C 5043 1190 5299 1190 5466 1242 
C 5658 1286 5779 1402 5818 1664 
C 5862 1914 5875 2874 5875 4077 
L 5901 4166 
L 5562 4294 
L 5472 4224 
L 5376 4134 
L 4518 3776 
L 4518 5376 
L 4064 5376 
L 4064 3584 
L 3206 3226 
L 3206 4781 
L 2746 4781 
z
M 211 986 
L 403 506 
C 966 755 1696 1082 2381 1402 
L 2272 1830 
L 1542 1523 
L 1542 3379 
L 2298 3379 
L 2298 3834 
L 1542 3834 
L 1542 5299 
L 1088 5299 
L 1088 3834 
L 269 3834 
L 269 3379 
L 1088 3379 
L 1088 1331 
C 755 1197 454 1075 211 986 
z
" transform="scale(0.015625)"/>
      <path id="NotoSansCJKjp-Regular-6ce1" d="M 2374 2586 
L 4832 2586 
L 4832 2061 
L 2374 2061 
L 2374 2586 
z
M 2374 1715 
L 4832 1715 
L 4832 1178 
L 2374 1178 
L 2374 1715 
z
M 2374 3456 
L 4832 3456 
L 4832 2931 
L 2374 2931 
L 2374 3456 
z
M 736 3635 
L 736 -518 
L 1203 -518 
L 1203 -179 
L 6080 -179 
L 6080 269 
L 1203 269 
L 1203 3635 
L 736 3635 
z
M 3053 5395 
L 3008 4787 
L 397 4787 
L 397 4339 
L 2963 4339 
L 2899 3814 
L 1914 3814 
L 1914 813 
L 5306 813 
L 5306 3814 
L 3379 3814 
L 3469 4339 
L 6029 4339 
L 6029 4787 
L 3533 4787 
L 3603 5363 
L 3053 5395 
z
" transform="scale(0.015625)"/>
      <path id="NotoSansCJKjp-Regular-43fa" d="M 2259 5043 
L 2259 4608 
L 6080 4608 
L 6080 5043 
L 2259 5043 
z
M 2918 4378 
C 2771 4070 2477 3590 2202 3200 
C 2547 2758 2861 2259 3008 1926 
L 3430 2061 
C 3283 2368 2976 2829 2682 3206 
C 2906 3526 3168 3917 3354 4269 
L 2918 4378 
z
M 4122 4371 
C 3955 4064 3648 3584 3366 3194 
C 3731 2752 4070 2259 4230 1920 
L 4653 2067 
C 4493 2368 4166 2829 3853 3200 
C 4083 3526 4358 3910 4550 4262 
L 4122 4371 
z
M 5338 4371 
C 5165 4070 4845 3584 4550 3194 
C 4947 2752 5331 2259 5510 1920 
L 5933 2074 
C 5747 2368 5382 2842 5037 3206 
C 5286 3533 5562 3904 5766 4256 
L 5338 4371 
z
M 1562 5376 
C 1280 4922 710 4371 211 4032 
C 288 3949 416 3776 474 3680 
C 1024 4070 1619 4666 1997 5203 
L 1562 5376 
z
M 1914 90 
L 1914 -352 
L 6150 -352 
L 6150 90 
L 4320 90 
L 4320 1267 
L 5837 1267 
L 5837 1690 
L 2336 1690 
L 2336 1267 
L 3840 1267 
L 3840 90 
L 1914 90 
z
M 1715 4070 
C 1338 3392 723 2726 134 2285 
C 218 2189 358 1958 410 1862 
C 646 2054 896 2291 1133 2547 
L 1133 -506 
L 1587 -506 
L 1587 3085 
C 1798 3354 1984 3635 2144 3917 
L 1715 4070 
z
" transform="scale(0.015625)"/>
     </defs>
     <use xlink:href="#NotoSansCJKjp-Regular-33d0"/>
     <use xlink:href="#NotoSansCJKjp-Regular-6776" transform="translate(100 0)"/>
     <use xlink:href="#NotoSansCJKjp-Regular-6ce1" transform="translate(200 0)"/>
     <use xlink:href="#NotoSansCJKjp-Regular-43fa" transform="translate(300 0)"/>
    </g>
   </g>
   <g id="line2d_20">
    <path d="M 381.42 167.69163 
L 386.964 140.442068 
" clip-path="url(#p8adfc1f2be)" style="fill: none; stroke: #8250df; stroke-width: 0.9; stroke-linecap: square"/>
   </g>
   <g id="text_20">
    <!-- 太陽直徑 -->
    <g style="fill: #8250df" transform="translate(364.964 129.643959) scale(0.11 -0.11)">
     <defs>
      <path id="NotoSansCJKjp-Regular-3700" d="M 2458 928 
C 2912 544 3469 -6 3725 -365 
L 4154 -26 
C 3885 320 3315 851 2861 1210 
L 2458 928 
z
M 2893 5370 
C 2886 4883 2893 4294 2822 3674 
L 390 3674 
L 390 3187 
L 2752 3187 
C 2522 1914 1907 602 230 -115 
C 365 -218 518 -384 595 -512 
C 2285 256 2950 1613 3219 2950 
C 3706 1350 4538 102 5850 -525 
C 5926 -384 6086 -186 6208 -83 
C 4928 467 4083 1690 3642 3187 
L 6042 3187 
L 6042 3674 
L 3334 3674 
C 3398 4288 3405 4877 3411 5370 
L 2893 5370 
z
" transform="scale(0.015625)"/>
      <path id="NotoSansCJKjp-Regular-a8ca" d="M 3290 3917 
L 5165 3917 
L 5165 3405 
L 3290 3405 
L 3290 3917 
z
M 3290 4755 
L 5165 4755 
L 5165 4262 
L 3290 4262 
L 3290 4755 
z
M 2848 5120 
L 2848 3040 
L 5632 3040 
L 5632 5120 
L 2848 5120 
z
M 2285 2656 
L 2285 2259 
L 3130 2259 
C 2874 1722 2470 1267 1997 960 
C 2086 883 2246 736 2310 653 
C 2586 858 2854 1114 3085 1414 
L 3622 1414 
C 3302 806 2797 275 2246 -77 
C 2336 -147 2477 -307 2534 -390 
C 3136 38 3712 678 4064 1414 
L 4608 1414 
C 4378 749 3981 166 3488 -218 
C 3584 -282 3738 -429 3808 -493 
C 4333 -45 4774 634 5037 1414 
L 5466 1414 
C 5408 435 5325 51 5229 -58 
C 5184 -109 5133 -122 5050 -122 
C 4966 -122 4774 -115 4557 -96 
C 4614 -205 4659 -378 4672 -499 
C 4896 -518 5126 -512 5254 -499 
C 5402 -486 5504 -448 5600 -339 
C 5754 -160 5843 320 5920 1613 
C 5926 1677 5939 1805 5939 1805 
L 3347 1805 
C 3437 1952 3514 2099 3584 2259 
L 6150 2259 
L 6150 2656 
L 2285 2656 
z
M 518 5101 
L 518 -512 
L 947 -512 
L 947 4666 
L 1786 4666 
C 1651 4230 1459 3648 1274 3181 
C 1734 2682 1856 2253 1856 1901 
C 1856 1709 1818 1536 1722 1466 
C 1670 1427 1600 1414 1517 1408 
C 1414 1402 1293 1408 1146 1414 
C 1216 1293 1261 1107 1267 992 
C 1408 986 1568 992 1696 1005 
C 1830 1018 1939 1056 2029 1120 
C 2208 1242 2285 1510 2285 1856 
C 2285 2253 2176 2707 1709 3238 
C 1926 3750 2163 4403 2349 4934 
L 2035 5120 
L 1965 5101 
L 518 5101 
z
" transform="scale(0.015625)"/>
     </defs>
     <use xlink:href="#NotoSansCJKjp-Regular-3700"/>
     <use xlink:href="#NotoSansCJKjp-Regular-a8ca" transform="translate(100 0)"/>
     <use xlink:href="#NotoSansCJKjp-Regular-6ce1" transform="translate(200 0)"/>
     <use xlink:href="#NotoSansCJKjp-Regular-43fa" transform="translate(300 0)"/>
    </g>
   </g>
   <g id="line2d_21">
    <path d="M 409.14 167.69163 
L 425.772 194.941193 
" clip-path="url(#p8adfc1f2be)" style="fill: none; stroke: #8250df; stroke-width: 0.9; stroke-linecap: square"/>
   </g>
   <g id="text_21">
    <!-- 地球–太陽距離 -->
    <g style="fill: #8250df" transform="translate(389.824344 214.099302) scale(0.11 -0.11)">
     <defs>
      <path id="NotoSansCJKjp-Regular-2d1" d="M 294 1600 
L 3136 1600 
L 3136 1997 
L 294 1997 
L 294 1600 
z
" transform="scale(0.015625)"/>
      <path id="NotoSansCJKjp-Regular-9943" d="M 998 4685 
L 2246 4685 
L 2246 3558 
L 998 3558 
L 998 4685 
z
M 3155 5120 
L 3155 -506 
L 3629 -506 
L 3629 -205 
L 6157 -205 
L 6157 250 
L 3629 250 
L 3629 1331 
L 5798 1331 
L 5798 3603 
L 3629 3603 
L 3629 4672 
L 6074 4672 
L 6074 5120 
L 3155 5120 
z
M 3629 3155 
L 5331 3155 
L 5331 1779 
L 3629 1779 
L 3629 3155 
z
M 218 269 
L 307 -198 
C 1018 -26 2003 211 2931 442 
L 2886 870 
L 1888 634 
L 1888 1786 
L 2829 1786 
L 2829 2214 
L 1888 2214 
L 1888 3136 
L 2694 3136 
L 2694 5107 
L 570 5107 
L 570 3136 
L 1453 3136 
L 1453 538 
L 979 429 
L 979 2534 
L 570 2534 
L 570 339 
L 218 269 
z
" transform="scale(0.015625)"/>
      <path id="NotoSansCJKjp-Regular-a995" d="M 1587 5376 
L 1587 4826 
L 275 4826 
L 275 4429 
L 3373 4429 
L 3373 4826 
L 2054 4826 
L 2054 5376 
L 1587 5376 
z
M 5203 5312 
C 5126 4973 4979 4499 4838 4154 
L 4147 4154 
C 4288 4512 4416 4896 4518 5274 
L 4083 5376 
C 3859 4493 3501 3603 3066 3002 
L 3066 4166 
L 2688 4166 
L 2688 2739 
L 934 2739 
L 934 4166 
L 582 4166 
L 582 2387 
L 1587 2387 
L 1530 1958 
L 403 1958 
L 403 -518 
L 806 -518 
L 806 1587 
L 1466 1587 
C 1414 1286 1350 986 1293 742 
L 960 730 
L 998 378 
L 2342 480 
C 2381 371 2406 269 2426 179 
L 2720 282 
C 2675 557 2496 998 2310 1331 
L 2029 1248 
C 2099 1107 2170 954 2234 800 
L 1645 762 
C 1715 1005 1779 1293 1843 1587 
L 2822 1587 
L 2822 -45 
C 2822 -115 2803 -128 2726 -134 
C 2650 -141 2400 -141 2118 -134 
C 2170 -237 2234 -397 2253 -506 
C 2637 -506 2880 -506 3040 -442 
C 3194 -371 3238 -256 3238 -51 
L 3238 1958 
L 1920 1958 
L 2003 2387 
L 3066 2387 
L 3066 2912 
C 3168 2835 3315 2714 3379 2650 
C 3475 2784 3571 2938 3661 3098 
L 3661 -518 
L 4102 -518 
L 4102 -179 
L 6157 -179 
L 6157 262 
L 5261 262 
L 5261 1152 
L 6035 1152 
L 6035 1568 
L 5261 1568 
L 5261 2445 
L 6035 2445 
L 6035 2854 
L 5261 2854 
L 5261 3718 
L 6093 3718 
L 6093 4154 
L 5267 4154 
C 5402 4467 5542 4858 5664 5203 
L 5203 5312 
z
M 2099 4262 
C 2022 4090 1926 3917 1818 3763 
C 1645 3872 1472 3974 1306 4058 
L 1107 3834 
C 1274 3744 1453 3635 1619 3520 
C 1446 3315 1248 3142 1037 2995 
C 1120 2944 1254 2835 1306 2771 
C 1510 2925 1709 3110 1888 3328 
C 2080 3187 2246 3046 2362 2925 
L 2573 3181 
C 2458 3302 2285 3437 2086 3578 
C 2221 3770 2342 3968 2438 4179 
L 2099 4262 
z
M 4102 2445 
L 4845 2445 
L 4845 1568 
L 4102 1568 
L 4102 2445 
z
M 4102 2854 
L 4102 3718 
L 4845 3718 
L 4845 2854 
L 4102 2854 
z
M 4102 1152 
L 4845 1152 
L 4845 262 
L 4102 262 
L 4102 1152 
z
" transform="scale(0.015625)"/>
     </defs>
     <use xlink:href="#NotoSansCJKjp-Regular-33d0"/>
     <use xlink:href="#NotoSansCJKjp-Regular-6776" transform="translate(100 0)"/>
     <use xlink:href="#NotoSansCJKjp-Regular-2d1" transform="translate(200 0)"/>
     <use xlink:href="#NotoSansCJKjp-Regular-3700" transform="translate(253.59375 0)"/>
     <use xlink:href="#NotoSansCJKjp-Regular-a8ca" transform="translate(353.59375 0)"/>
     <use xlink:href="#NotoSansCJKjp-Regular-9943" transform="translate(453.59375 0)"/>
     <use xlink:href="#NotoSansCJKjp-Regular-a995" transform="translate(553.59375 0)"/>
    </g>
   </g>
   <g id="line2d_22">
    <path d="M 478.44 167.69163 
L 478.44 140.442068 
" clip-path="url(#p8adfc1f2be)" style="fill: none; stroke: #222831; stroke-width: 0.9; stroke-linecap: square"/>
   </g>
   <g id="text_22">
    <!-- 最近的恆星 -->
    <g style="fill: #222831" transform="translate(450.94 129.643959) scale(0.11 -0.11)">
     <defs>
      <path id="NotoSansCJKjp-Regular-50c3" d="M 1600 4064 
L 4813 4064 
L 4813 3610 
L 1600 3610 
L 1600 4064 
z
M 1600 4832 
L 4813 4832 
L 4813 4384 
L 1600 4384 
L 1600 4832 
z
M 1139 5171 
L 1139 3270 
L 5293 3270 
L 5293 5171 
L 1139 5171 
z
M 2534 2509 
L 2534 2074 
L 1370 2074 
L 1370 2509 
L 2534 2509 
z
M 314 282 
L 358 -147 
L 2534 115 
L 2534 -512 
L 2995 -512 
L 2995 -109 
C 3091 -198 3200 -365 3251 -474 
C 3699 -320 4141 -96 4531 205 
C 4909 -115 5363 -358 5875 -506 
C 5939 -397 6061 -218 6163 -134 
C 5664 -6 5229 205 4858 486 
C 5280 883 5613 1389 5811 2010 
L 5517 2131 
L 5434 2112 
L 3219 2112 
L 3219 1722 
L 3776 1722 
L 3501 1638 
C 3674 1216 3910 832 4205 512 
C 3840 237 3418 32 2995 -90 
L 2995 2509 
L 6016 2509 
L 6016 2912 
L 371 2912 
L 371 2509 
L 928 2509 
L 928 339 
L 314 282 
z
M 3898 1722 
L 5222 1722 
C 5056 1363 4813 1050 4531 781 
C 4262 1050 4045 1370 3898 1722 
z
M 2534 1709 
L 2534 1261 
L 1370 1261 
L 1370 1709 
L 2534 1709 
z
M 2534 902 
L 2534 518 
L 1370 384 
L 1370 902 
L 2534 902 
z
" transform="scale(0.015625)"/>
      <path id="NotoSansCJKjp-Regular-9ca3" d="M 384 4934 
C 794 4646 1274 4218 1478 3904 
L 1862 4224 
C 1632 4531 1152 4947 730 5222 
L 384 4934 
z
M 5331 5350 
C 4806 5158 3885 4986 3040 4864 
L 2656 4947 
L 2656 3456 
C 2656 2662 2573 1645 1869 890 
C 1984 826 2157 659 2221 557 
C 2886 1267 3072 2240 3110 3040 
L 4429 3040 
L 4429 390 
L 4902 390 
L 4902 3040 
L 6093 3040 
L 6093 3488 
L 3123 3488 
L 3123 4461 
C 4026 4576 5043 4755 5747 4992 
L 5331 5350 
z
M 1677 2848 
L 314 2848 
L 314 2400 
L 1210 2400 
L 1210 768 
C 890 499 518 230 230 32 
L 480 -461 
C 826 -173 1152 102 1459 378 
C 1869 -128 2445 -358 3283 -390 
C 3994 -416 5318 -403 6016 -371 
C 6035 -224 6118 6 6176 115 
C 5414 64 3981 45 3283 77 
C 2541 102 1978 326 1677 794 
L 1677 2848 
z
" transform="scale(0.015625)"/>
      <path id="NotoSansCJKjp-Regular-6c33" d="M 3533 2707 
C 3885 2240 4320 1600 4512 1210 
L 4922 1466 
C 4710 1843 4269 2464 3904 2918 
L 3533 2707 
z
M 1536 5389 
C 1485 5082 1376 4659 1274 4346 
L 557 4346 
L 557 -346 
L 998 -346 
L 998 160 
L 2784 160 
L 2784 4346 
L 1715 4346 
C 1824 4621 1946 4979 2054 5299 
L 1536 5389 
z
M 998 3917 
L 2342 3917 
L 2342 2566 
L 998 2566 
L 998 3917 
z
M 998 595 
L 998 2144 
L 2342 2144 
L 2342 595 
L 998 595 
z
M 3827 5402 
C 3622 4518 3277 3635 2835 3066 
C 2950 3002 3149 2867 3238 2790 
C 3456 3098 3661 3488 3840 3923 
L 5478 3923 
C 5402 1357 5299 371 5094 154 
C 5018 64 4947 45 4819 45 
C 4672 45 4288 51 3866 83 
C 3955 -38 4013 -243 4026 -378 
C 4384 -397 4762 -410 4979 -390 
C 5210 -365 5350 -314 5498 -122 
C 5754 192 5843 1184 5939 4122 
C 5946 4186 5946 4365 5946 4365 
L 4013 4365 
C 4115 4666 4211 4986 4288 5299 
L 3827 5402 
z
" transform="scale(0.015625)"/>
      <path id="NotoSansCJKjp-Regular-4514" d="M 3533 2515 
C 3878 2362 4301 2118 4518 1939 
L 4736 2291 
C 4518 2470 4090 2694 3744 2829 
L 3533 2515 
z
M 3277 1453 
C 3642 1254 4077 947 4288 730 
L 4538 1062 
C 4326 1274 3878 1562 3520 1754 
L 3277 1453 
z
M 1082 5376 
L 1082 -506 
L 1542 -506 
L 1542 5376 
L 1082 5376 
z
M 506 4141 
C 493 3578 390 2886 173 2496 
L 493 2342 
C 730 2784 832 3514 838 4096 
L 506 4141 
z
M 1587 4218 
C 1766 3814 1939 3290 1990 2970 
L 2310 3117 
C 2259 3424 2080 3936 1888 4333 
L 1587 4218 
z
M 1946 147 
L 1946 -301 
L 6144 -301 
L 6144 147 
L 5094 147 
C 5248 1082 5434 2566 5555 3680 
L 3526 3680 
L 3674 4538 
L 6054 4538 
L 6054 4986 
L 2163 4986 
L 2163 4538 
L 3194 4538 
C 3021 3450 2733 2003 2515 1152 
L 2989 1107 
C 3123 1658 3290 2451 3443 3245 
L 5024 3245 
C 4915 2221 4749 979 4595 147 
L 1946 147 
z
" transform="scale(0.015625)"/>
      <path id="NotoSansCJKjp-Regular-4f54" d="M 1549 3802 
L 4851 3802 
L 4851 3226 
L 1549 3226 
L 1549 3802 
z
M 1549 4730 
L 4851 4730 
L 4851 4166 
L 1549 4166 
L 1549 4730 
z
M 1082 5114 
L 1082 2842 
L 5344 2842 
L 5344 5114 
L 1082 5114 
z
M 1491 2835 
C 1235 2272 787 1715 320 1357 
C 435 1286 634 1146 723 1056 
C 947 1248 1178 1498 1389 1773 
L 2957 1773 
L 2957 1165 
L 1165 1165 
L 1165 774 
L 2957 774 
L 2957 77 
L 416 77 
L 416 -346 
L 5997 -346 
L 5997 77 
L 3456 77 
L 3456 774 
L 5325 774 
L 5325 1165 
L 3456 1165 
L 3456 1773 
L 5594 1773 
L 5594 2182 
L 3456 2182 
L 3456 2701 
L 2957 2701 
L 2957 2182 
L 1677 2182 
C 1786 2349 1882 2528 1965 2701 
L 1491 2835 
z
" transform="scale(0.015625)"/>
     </defs>
     <use xlink:href="#NotoSansCJKjp-Regular-50c3"/>
     <use xlink:href="#NotoSansCJKjp-Regular-9ca3" transform="translate(100 0)"/>
     <use xlink:href="#NotoSansCJKjp-Regular-6c33" transform="translate(200 0)"/>
     <use xlink:href="#NotoSansCJKjp-Regular-4514" transform="translate(300 0)"/>
     <use xlink:href="#NotoSansCJKjp-Regular-4f54" transform="translate(400 0)"/>
    </g>
   </g>
   <g id="line2d_23">
    <path d="M 547.74 167.69163 
L 547.74 194.941193 
" clip-path="url(#p8adfc1f2be)" style="fill: none; stroke: #222831; stroke-width: 0.9; stroke-linecap: square"/>
   </g>
   <g id="text_23">
    <!-- 銀河系直徑 -->
    <g style="fill: #222831" transform="translate(520.24 214.099302) scale(0.11 -0.11)">
     <defs>
      <path id="NotoSansCJKjp-Regular-a24f" d="M 518 1830 
C 653 1446 755 960 774 634 
L 1139 730 
C 1107 1050 998 1536 858 1914 
L 518 1830 
z
M 2368 1990 
C 2304 1645 2163 1126 2054 813 
L 2362 710 
C 2483 1011 2630 1478 2758 1875 
L 2368 1990 
z
M 5376 3539 
L 5376 2784 
L 3610 2784 
L 3610 3539 
L 5376 3539 
z
M 5376 3955 
L 3610 3955 
L 3610 4678 
L 5376 4678 
L 5376 3955 
z
M 3155 5107 
L 3155 141 
L 2611 19 
L 2758 -448 
C 3341 -301 4115 -109 4845 83 
L 4794 525 
L 3610 243 
L 3610 2355 
L 4198 2355 
C 4480 1037 5011 -13 5952 -525 
C 6022 -397 6157 -218 6266 -128 
C 5786 102 5408 506 5126 1011 
C 5434 1216 5805 1504 6099 1766 
L 5766 2093 
C 5555 1875 5229 1594 4941 1376 
C 4813 1677 4704 2010 4621 2355 
L 5837 2355 
L 5837 5107 
L 3155 5107 
z
M 1395 5376 
C 1171 4864 749 4211 141 3725 
C 237 3661 378 3514 448 3411 
L 710 3648 
L 710 3379 
L 1434 3379 
L 1434 2701 
L 384 2701 
L 384 2278 
L 1434 2278 
L 1434 320 
L 301 115 
L 416 -320 
C 1088 -186 2022 0 2899 186 
L 2867 595 
L 1862 403 
L 1862 2278 
L 2816 2278 
L 2816 2701 
L 1862 2701 
L 1862 3379 
L 2650 3379 
L 2650 3795 
L 851 3795 
C 1216 4179 1485 4589 1683 4934 
C 2061 4595 2470 4115 2682 3808 
L 3008 4179 
C 2765 4512 2246 5024 1830 5376 
L 1395 5376 
z
" transform="scale(0.015625)"/>
      <path id="NotoSansCJKjp-Regular-5a9e" d="M 205 3194 
C 595 2982 1126 2675 1389 2496 
L 1658 2893 
C 1382 3072 845 3360 467 3546 
L 205 3194 
z
M 397 -102 
L 800 -429 
C 1178 166 1626 966 1965 1645 
L 1613 1958 
C 1242 1235 742 390 397 -102 
z
M 506 4941 
C 902 4723 1434 4403 1702 4218 
L 1984 4602 
L 1984 4506 
L 5190 4506 
L 5190 192 
C 5190 51 5133 6 4992 0 
C 4832 -6 4282 -13 3718 13 
C 3795 -128 3885 -358 3910 -499 
C 4614 -499 5069 -493 5325 -410 
C 5574 -326 5664 -166 5664 186 
L 5664 4506 
L 6170 4506 
L 6170 4973 
L 1984 4973 
L 1984 4614 
C 1702 4787 1171 5082 781 5286 
L 506 4941 
z
M 2368 3616 
L 2368 838 
L 2810 838 
L 2810 1286 
L 4390 1286 
L 4390 3616 
L 2368 3616 
z
M 2810 3174 
L 3942 3174 
L 3942 1722 
L 2810 1722 
L 2810 3174 
z
" transform="scale(0.015625)"/>
      <path id="NotoSansCJKjp-Regular-784c" d="M 1715 1222 
C 1363 749 787 262 243 -51 
C 371 -128 582 -288 678 -378 
C 1197 -32 1805 512 2208 1043 
L 1715 1222 
z
M 4109 986 
C 4666 582 5350 -6 5677 -371 
L 6093 -64 
C 5741 301 5037 864 4493 1248 
L 4109 986 
z
M 5286 5286 
C 4179 5062 2208 4928 557 4883 
C 602 4768 659 4576 672 4448 
C 1235 4461 1843 4486 2445 4525 
C 2195 4198 1882 3840 1594 3565 
L 1158 3827 
L 832 3533 
C 1344 3232 1939 2790 2310 2445 
C 2125 2291 1933 2150 1760 2016 
L 358 2003 
L 403 1517 
L 2938 1581 
L 2938 -512 
L 3443 -512 
L 3443 1594 
L 5293 1645 
C 5466 1459 5613 1286 5715 1139 
L 6138 1427 
C 5811 1862 5126 2509 4563 2957 
L 4173 2707 
C 4403 2522 4646 2298 4883 2074 
L 2464 2029 
C 3226 2618 4083 3398 4730 4077 
L 4269 4326 
C 3853 3846 3270 3270 2682 2765 
C 2490 2938 2227 3136 1952 3328 
C 2317 3661 2739 4122 3072 4525 
L 3002 4563 
C 3974 4634 4915 4736 5632 4877 
L 5286 5286 
z
" transform="scale(0.015625)"/>
     </defs>
     <use xlink:href="#NotoSansCJKjp-Regular-a24f"/>
     <use xlink:href="#NotoSansCJKjp-Regular-5a9e" transform="translate(100 0)"/>
     <use xlink:href="#NotoSansCJKjp-Regular-784c" transform="translate(200 0)"/>
     <use xlink:href="#NotoSansCJKjp-Regular-6ce1" transform="translate(300 0)"/>
     <use xlink:href="#NotoSansCJKjp-Regular-43fa" transform="translate(400 0)"/>
    </g>
   </g>
   <g id="line2d_24">
    <path d="M 617.04 167.69163 
L 611.496 140.442068 
" clip-path="url(#p8adfc1f2be)" style="fill: none; stroke: #222831; stroke-width: 0.9; stroke-linecap: square"/>
   </g>
   <g id="text_24">
    <!-- 可觀測宇宙 -->
    <g style="fill: #222831" transform="translate(583.996 129.643959) scale(0.11 -0.11)">
     <defs>
      <path id="NotoSansCJKjp-Regular-2e8e" d="M 358 4922 
L 358 4442 
L 4781 4442 
L 4781 186 
C 4781 51 4736 13 4595 0 
C 4442 0 3917 -6 3405 19 
C 3482 -122 3571 -358 3603 -499 
C 4237 -499 4685 -499 4941 -416 
C 5190 -333 5280 -166 5280 179 
L 5280 4442 
L 6067 4442 
L 6067 4922 
L 358 4922 
z
M 1478 3040 
L 3162 3040 
L 3162 1568 
L 1478 1568 
L 1478 3040 
z
M 1011 3501 
L 1011 595 
L 1478 595 
L 1478 1107 
L 3635 1107 
L 3635 3501 
L 1011 3501 
z
" transform="scale(0.015625)"/>
      <path id="NotoSansCJKjp-Regular-9234" d="M 813 3718 
L 1350 3718 
L 1350 3174 
L 813 3174 
L 813 3718 
z
M 2323 3718 
L 2906 3718 
L 2906 3174 
L 2323 3174 
L 2323 3718 
z
M 4019 3674 
L 5440 3674 
L 5440 3021 
L 4019 3021 
L 4019 3674 
z
M 4019 2637 
L 5440 2637 
L 5440 1978 
L 4019 1978 
L 4019 2637 
z
M 4019 4704 
L 5440 4704 
L 5440 4058 
L 4019 4058 
L 4019 4704 
z
M 1792 1286 
L 1792 909 
L 1107 909 
L 1107 1286 
L 1792 1286 
z
M 3597 5126 
L 3597 1562 
L 4006 1562 
C 3968 819 3834 320 3322 0 
L 3322 211 
L 2202 211 
L 2202 589 
L 3168 589 
L 3168 909 
L 2202 909 
L 2202 1286 
L 3168 1286 
L 3168 1606 
L 2202 1606 
L 2202 1978 
L 3302 1978 
L 3302 2323 
L 2266 2323 
L 2483 2765 
L 2144 2854 
L 3264 2854 
L 3264 4038 
L 1990 4038 
L 1990 2854 
L 2067 2854 
C 2022 2701 1958 2496 1882 2323 
L 1178 2323 
C 1248 2477 1312 2637 1363 2797 
L 1139 2854 
L 1702 2854 
L 1702 4038 
L 467 4038 
L 467 2854 
L 979 2854 
C 794 2304 486 1779 141 1414 
C 218 1338 346 1165 397 1088 
C 506 1203 608 1338 710 1485 
L 710 -454 
L 1107 -454 
L 1107 -147 
L 3021 -147 
L 2989 -160 
C 3085 -237 3200 -403 3258 -512 
C 4141 -128 4358 518 4422 1562 
L 4845 1562 
L 4845 154 
C 4845 -275 4934 -403 5318 -403 
C 5395 -403 5645 -403 5728 -403 
C 6067 -403 6170 -192 6202 666 
C 6086 698 5914 762 5824 838 
C 5818 90 5792 -6 5677 -6 
C 5619 -6 5427 -6 5382 -6 
C 5286 -6 5267 19 5267 154 
L 5267 1562 
L 5882 1562 
L 5882 5126 
L 3597 5126 
z
M 1792 1606 
L 1107 1606 
L 1107 1978 
L 1792 1978 
L 1792 1606 
z
M 1792 589 
L 1792 211 
L 1107 211 
L 1107 589 
L 1792 589 
z
M 2285 5363 
L 2285 4947 
L 1434 4947 
L 1434 5363 
L 1011 5363 
L 1011 4947 
L 314 4947 
L 314 4582 
L 1011 4582 
L 1011 4173 
L 1434 4173 
L 1434 4582 
L 2285 4582 
L 2285 4173 
L 2701 4173 
L 2701 4582 
L 3366 4582 
L 3366 4947 
L 2701 4947 
L 2701 5363 
L 2285 5363 
z
" transform="scale(0.015625)"/>
      <path id="NotoSansCJKjp-Regular-5cee" d="M 2413 3475 
L 3437 3475 
L 3437 2682 
L 2413 2682 
L 2413 3475 
z
M 2413 2278 
L 3437 2278 
L 3437 1478 
L 2413 1478 
L 2413 2278 
z
M 2413 4666 
L 3437 4666 
L 3437 3878 
L 2413 3878 
L 2413 4666 
z
M 2003 5088 
L 2003 1056 
L 3866 1056 
L 3866 5088 
L 2003 5088 
z
M 3136 742 
C 3392 422 3712 -13 3846 -288 
L 4230 -45 
C 4083 218 3763 640 3494 941 
L 3136 742 
z
M 2266 922 
C 2074 480 1741 32 1408 -262 
C 1510 -326 1702 -461 1786 -531 
C 2131 -205 2490 307 2714 800 
L 2266 922 
z
M 5466 5376 
L 5466 90 
C 5466 -19 5421 -51 5318 -58 
C 5216 -58 4877 -64 4493 -51 
C 4557 -186 4621 -390 4640 -512 
C 5165 -512 5472 -499 5651 -416 
C 5830 -346 5907 -211 5907 90 
L 5907 5376 
L 5466 5376 
z
M 4352 4717 
L 4352 1050 
L 4774 1050 
L 4774 4717 
L 4352 4717 
z
M 518 4966 
C 883 4787 1318 4486 1530 4275 
L 1818 4659 
C 1594 4870 1158 5139 794 5306 
L 518 4966 
z
M 243 3238 
C 621 3078 1069 2810 1293 2605 
L 1568 2995 
C 1344 3200 890 3443 506 3590 
L 243 3238 
z
M 371 -173 
L 806 -429 
C 1082 160 1408 947 1645 1619 
L 1261 1869 
C 998 1152 634 320 371 -173 
z
" transform="scale(0.015625)"/>
      <path id="NotoSansCJKjp-Regular-3c62" d="M 461 2042 
L 461 1581 
L 2931 1581 
L 2931 102 
C 2931 -6 2893 -38 2765 -45 
C 2637 -51 2189 -51 1722 -38 
C 1798 -166 1894 -378 1926 -512 
C 2509 -512 2886 -506 3117 -429 
C 3354 -352 3437 -218 3437 96 
L 3437 1581 
L 5958 1581 
L 5958 2042 
L 3437 2042 
L 3437 3027 
L 5018 3027 
L 5018 3482 
L 1370 3482 
L 1370 3027 
L 2931 3027 
L 2931 2042 
L 461 2042 
z
M 480 4698 
L 480 3232 
L 954 3232 
L 954 4243 
L 5434 4243 
L 5434 3232 
L 5926 3232 
L 5926 4698 
L 3437 4698 
L 3437 5376 
L 2931 5376 
L 2931 4698 
L 480 4698 
z
" transform="scale(0.015625)"/>
      <path id="NotoSansCJKjp-Regular-3c88" d="M 2944 2515 
L 2944 1626 
L 1562 1626 
L 1562 2515 
L 2944 2515 
z
M 3424 2515 
L 4851 2515 
L 4851 1626 
L 3424 1626 
L 3424 2515 
z
M 2944 3885 
L 2944 2970 
L 1094 2970 
L 1094 -499 
L 1562 -499 
L 1562 -198 
L 4851 -198 
L 4851 -499 
L 5338 -499 
L 5338 2970 
L 3424 2970 
L 3424 3885 
L 2944 3885 
z
M 1562 1210 
L 2944 1210 
L 2944 250 
L 1562 250 
L 1562 1210 
z
M 4851 1210 
L 4851 250 
L 3424 250 
L 3424 1210 
L 4851 1210 
z
M 550 4646 
L 550 3206 
L 1024 3206 
L 1024 4198 
L 5363 4198 
L 5363 3206 
L 5856 3206 
L 5856 4646 
L 3437 4646 
L 3437 5376 
L 2931 5376 
L 2931 4646 
L 550 4646 
z
" transform="scale(0.015625)"/>
     </defs>
     <use xlink:href="#NotoSansCJKjp-Regular-2e8e"/>
     <use xlink:href="#NotoSansCJKjp-Regular-9234" transform="translate(100 0)"/>
     <use xlink:href="#NotoSansCJKjp-Regular-5cee" transform="translate(200 0)"/>
     <use xlink:href="#NotoSansCJKjp-Regular-3c62" transform="translate(300 0)"/>
     <use xlink:href="#NotoSansCJKjp-Regular-3c88" transform="translate(400 0)"/>
    </g>
   </g>
   <g id="text_25">
    <!-- 長度 (m) -->
    <g style="fill: #222831" transform="translate(612.70875 224.45741) scale(0.12 -0.12)">
     <defs>
      <path id="NotoSansCJKjp-Regular-9" d="M 1530 -1254 
L 1888 -1094 
C 1338 -186 1075 902 1075 1990 
C 1075 3072 1338 4154 1888 5069 
L 1530 5235 
C 941 4275 589 3245 589 1990 
C 589 730 941 -301 1530 -1254 
z
" transform="scale(0.015625)"/>
      <path id="NotoSansCJKjp-Regular-4e" d="M 589 0 
L 1178 0 
L 1178 2522 
C 1491 2880 1786 3053 2048 3053 
C 2490 3053 2694 2778 2694 2125 
L 2694 0 
L 3277 0 
L 3277 2522 
C 3603 2880 3885 3053 4154 3053 
C 4595 3053 4800 2778 4800 2125 
L 4800 0 
L 5382 0 
L 5382 2202 
C 5382 3085 5043 3565 4333 3565 
C 3904 3565 3546 3290 3181 2899 
C 3040 3309 2758 3565 2221 3565 
C 1805 3565 1446 3302 1139 2970 
L 1126 2970 
L 1069 3475 
L 589 3475 
L 589 0 
z
" transform="scale(0.015625)"/>
      <path id="NotoSansCJKjp-Regular-a" d="M 634 -1254 
C 1222 -301 1574 730 1574 1990 
C 1574 3245 1222 4275 634 5235 
L 269 5069 
C 819 4154 1094 3072 1094 1990 
C 1094 902 819 -186 269 -1094 
L 634 -1254 
z
" transform="scale(0.015625)"/>
     </defs>
     <use xlink:href="#NotoSansCJKjp-Regular-a74e"/>
     <use xlink:href="#NotoSansCJKjp-Regular-4231" transform="translate(100 0)"/>
     <use xlink:href="#NotoSansCJKjp-Regular-1" transform="translate(200 0)"/>
     <use xlink:href="#NotoSansCJKjp-Regular-9" transform="translate(222.40625 0)"/>
     <use xlink:href="#NotoSansCJKjp-Regular-4e" transform="translate(256.203125 0)"/>
     <use xlink:href="#NotoSansCJKjp-Regular-a" transform="translate(348.796875 0)"/>
    </g>
   </g>
   <g id="text_26">
    <!-- 大自然的長度尺度（對數軸，每格 = 10 倍） -->
    <g style="fill: #222831" transform="translate(204.479687 19.52) scale(0.14 -0.14)">
     <defs>
      <path id="NotoSansCJKjp-Regular-36fb" d="M 2950 5370 
C 2944 4864 2950 4218 2854 3539 
L 397 3539 
L 397 3046 
L 2771 3046 
C 2515 1830 1875 589 275 -102 
C 410 -205 563 -378 640 -499 
C 2202 218 2893 1446 3206 2682 
C 3706 1222 4531 90 5773 -499 
C 5856 -358 6010 -160 6131 -51 
C 4890 467 4051 1632 3603 3046 
L 6029 3046 
L 6029 3539 
L 3366 3539 
C 3456 4211 3462 4851 3469 5370 
L 2950 5370 
z
" transform="scale(0.015625)"/>
      <path id="NotoSansCJKjp-Regular-8205" d="M 1530 2630 
L 4954 2630 
L 4954 1690 
L 1530 1690 
L 1530 2630 
z
M 1530 3085 
L 1530 4038 
L 4954 4038 
L 4954 3085 
L 1530 3085 
z
M 1530 1242 
L 4954 1242 
L 4954 294 
L 1530 294 
L 1530 1242 
z
M 2912 5389 
C 2861 5133 2758 4781 2662 4499 
L 1043 4499 
L 1043 -518 
L 1530 -518 
L 1530 -160 
L 4954 -160 
L 4954 -486 
L 5459 -486 
L 5459 4499 
L 3149 4499 
C 3258 4742 3366 5037 3469 5312 
L 2912 5389 
z
" transform="scale(0.015625)"/>
      <path id="NotoSansCJKjp-Regular-6285" d="M 4934 5075 
C 5203 4800 5504 4410 5645 4160 
L 6003 4390 
C 5869 4640 5549 5011 5280 5280 
L 4934 5075 
z
M 2208 723 
C 2291 346 2336 -154 2342 -454 
L 2810 -390 
C 2803 -96 2733 390 2650 768 
L 2208 723 
z
M 3514 723 
C 3680 346 3840 -154 3904 -461 
L 4378 -358 
C 4314 -58 4134 435 3962 806 
L 3514 723 
z
M 4826 768 
C 5146 371 5510 -179 5670 -525 
L 6150 -352 
C 5978 -6 5600 531 5280 915 
L 4826 768 
z
M 1082 890 
C 934 429 646 -58 326 -333 
L 768 -518 
C 1101 -205 1376 301 1536 781 
L 1082 890 
z
M 4250 5299 
L 4250 4058 
L 4250 4019 
L 3206 4019 
L 3206 3558 
L 4224 3558 
C 4141 2822 3802 2029 2650 1427 
C 2765 1338 2918 1197 2995 1088 
C 3917 1581 4352 2202 4550 2848 
C 4826 2035 5254 1414 5894 1043 
C 5965 1178 6112 1357 6221 1446 
C 5459 1818 5011 2586 4781 3558 
L 6035 3558 
L 6035 4019 
L 4704 4019 
L 4704 4051 
L 4704 5299 
L 4250 5299 
z
M 1325 3827 
C 1683 3642 2074 3405 2323 3213 
C 2221 3027 2112 2848 1990 2688 
C 1741 2906 1344 3174 992 3379 
C 1107 3520 1222 3674 1325 3827 
z
M 1517 4128 
L 1683 4410 
L 2771 4410 
C 2694 4109 2605 3827 2490 3571 
C 2234 3750 1856 3968 1517 4128 
z
M 1632 5427 
C 1376 4640 826 3718 134 3149 
C 230 3078 384 2938 461 2842 
C 557 2925 653 3008 742 3104 
C 1101 2880 1498 2592 1734 2368 
C 1344 1926 870 1594 358 1357 
C 467 1280 634 1094 698 986 
C 1920 1594 2912 2771 3315 4698 
L 3014 4826 
L 2931 4806 
L 1882 4806 
C 1958 4973 2029 5139 2093 5306 
L 1632 5427 
z
" transform="scale(0.015625)"/>
      <path id="NotoSansCJKjp-Regular-3db8" d="M 1139 5069 
L 1139 3258 
C 1139 2208 1062 800 211 -198 
C 320 -256 525 -435 608 -538 
C 1338 314 1568 1530 1632 2554 
L 3290 2554 
C 3699 1056 4467 -13 5798 -499 
C 5869 -358 6016 -166 6131 -58 
C 4896 326 4147 1280 3782 2554 
L 5510 2554 
L 5510 5069 
L 1139 5069 
z
M 1651 4595 
L 5018 4595 
L 5018 3021 
L 1651 3021 
L 1651 3258 
L 1651 4595 
z
" transform="scale(0.015625)"/>
      <path id="NotoSansCJKjp-Regular-e6ae" d="M 4448 2432 
C 4448 1184 4954 166 5722 -614 
L 6106 -416 
C 5370 346 4915 1293 4915 2432 
C 4915 3571 5370 4518 6106 5280 
L 5722 5478 
C 4954 4698 4448 3680 4448 2432 
z
" transform="scale(0.015625)"/>
      <path id="NotoSansCJKjp-Regular-3d73" d="M 3693 2554 
C 3955 2086 4192 1472 4256 1082 
L 4691 1242 
C 4627 1632 4371 2234 4102 2694 
L 3693 2554 
z
M 339 5037 
C 531 4730 717 4320 781 4058 
L 1152 4230 
C 1088 4493 890 4890 685 5190 
L 339 5037 
z
M 3168 5222 
C 3053 4922 2829 4467 2662 4192 
L 2989 4045 
C 3174 4307 3398 4710 3590 5056 
L 3168 5222 
z
M 294 224 
L 358 -230 
C 1184 -122 2387 45 3514 205 
L 3501 627 
L 2138 448 
L 2138 1152 
L 3194 1152 
L 3194 1555 
L 2138 1555 
L 2138 2208 
L 3328 2208 
L 3328 2618 
L 2643 2618 
C 2778 2842 2925 3181 3066 3482 
L 2637 3603 
L 3494 3603 
L 3494 3206 
L 5005 3206 
L 5005 83 
C 5005 -32 4960 -64 4845 -70 
C 4749 -70 4397 -77 4006 -64 
C 4077 -192 4154 -397 4179 -518 
C 4704 -518 5011 -506 5203 -429 
C 5389 -352 5466 -218 5466 83 
L 5466 3206 
L 6150 3206 
L 6150 3654 
L 5466 3654 
L 5466 5338 
L 5005 5338 
L 5005 3654 
L 3558 3654 
L 3558 4013 
L 2554 4013 
L 2554 5344 
L 2157 5344 
L 2157 4013 
L 1670 4013 
L 1670 5344 
L 1274 5344 
L 1274 4013 
L 269 4013 
L 269 3603 
L 2618 3603 
C 2547 3334 2381 2957 2259 2714 
L 2592 2618 
L 1184 2618 
L 1542 2746 
C 1498 2976 1350 3328 1184 3597 
L 800 3469 
C 954 3200 1088 2848 1126 2618 
L 506 2618 
L 506 2208 
L 1690 2208 
L 1690 1555 
L 672 1555 
L 672 1152 
L 1690 1152 
L 1690 390 
L 294 224 
z
" transform="scale(0.015625)"/>
      <path id="NotoSansCJKjp-Regular-4e26" d="M 4352 3744 
L 5318 3744 
C 5216 2957 5062 2266 4826 1677 
C 4595 2266 4442 2944 4333 3661 
L 4352 3744 
z
M 256 4301 
L 256 3936 
L 698 3936 
L 698 3245 
L 1741 3245 
L 1741 2950 
L 538 2950 
L 538 1882 
L 1485 1882 
L 1274 1478 
L 262 1472 
L 275 1088 
L 1069 1094 
C 928 845 787 608 666 422 
L 1062 307 
L 1171 486 
C 1389 403 1606 314 1818 218 
C 1459 32 998 -83 416 -154 
C 493 -256 570 -410 602 -538 
C 1293 -416 1837 -250 2246 13 
C 2522 -128 2765 -275 2957 -410 
L 3264 -102 
C 3078 19 2848 154 2586 282 
C 2816 512 2976 794 3072 1133 
L 3750 1152 
L 3763 1510 
L 1734 1485 
L 1939 1882 
L 3424 1882 
L 3424 2419 
C 3526 2336 3648 2221 3706 2157 
C 3834 2362 3949 2592 4051 2848 
C 4179 2221 4346 1645 4563 1146 
C 4256 614 3853 192 3309 -134 
C 3392 -224 3539 -429 3584 -525 
C 4090 -198 4486 192 4794 666 
C 5075 166 5414 -237 5850 -518 
C 5920 -403 6067 -224 6176 -141 
C 5709 141 5350 582 5062 1133 
C 5421 1843 5638 2707 5779 3744 
L 6144 3744 
L 6144 4186 
L 4467 4186 
C 4550 4544 4621 4922 4678 5306 
L 4211 5376 
C 4070 4339 3827 3315 3424 2618 
L 3424 2950 
L 2163 2950 
L 2163 3245 
L 3277 3245 
L 3277 3936 
L 3731 3936 
L 3731 4301 
L 3277 4301 
L 3277 4986 
L 2163 4986 
L 2163 5376 
L 1741 5376 
L 1741 4986 
L 698 4986 
L 698 4301 
L 256 4301 
z
M 1101 4646 
L 1741 4646 
L 1741 4282 
L 1101 4282 
L 1101 4646 
z
M 1741 3578 
L 1101 3578 
L 1101 3955 
L 1741 3955 
L 1741 3578 
z
M 2163 4646 
L 2848 4646 
L 2848 4282 
L 2163 4282 
L 2163 4646 
z
M 2163 3578 
L 2163 3955 
L 2848 3955 
L 2848 3578 
L 2163 3578 
z
M 947 2624 
L 1741 2624 
L 1741 2202 
L 947 2202 
L 947 2624 
z
M 2163 2624 
L 3002 2624 
L 3002 2202 
L 2163 2202 
L 2163 2624 
z
M 1530 1107 
L 2630 1126 
C 2534 864 2387 646 2189 467 
C 1920 589 1632 704 1357 800 
L 1530 1107 
z
" transform="scale(0.015625)"/>
      <path id="NotoSansCJKjp-Regular-9b28" d="M 3597 1773 
L 4326 1773 
L 4326 282 
L 3597 282 
L 3597 1773 
z
M 3597 2202 
L 3597 3578 
L 4326 3578 
L 4326 2202 
L 3597 2202 
z
M 5530 1773 
L 5530 282 
L 4749 282 
L 4749 1773 
L 5530 1773 
z
M 5530 2202 
L 4749 2202 
L 4749 3578 
L 5530 3578 
L 5530 2202 
z
M 4314 5376 
L 4314 4013 
L 3174 4013 
L 3174 -512 
L 3597 -512 
L 3597 -154 
L 5530 -154 
L 5530 -474 
L 5965 -474 
L 5965 4013 
L 4762 4013 
L 4762 5376 
L 4314 5376 
z
M 493 3782 
L 493 1555 
L 1434 1555 
L 1434 1030 
L 250 1030 
L 250 608 
L 1434 608 
L 1434 -518 
L 1869 -518 
L 1869 608 
L 3046 608 
L 3046 1030 
L 1869 1030 
L 1869 1555 
L 2848 1555 
L 2848 3782 
L 1869 3782 
L 1869 4256 
L 2970 4256 
L 2970 4678 
L 1869 4678 
L 1869 5376 
L 1434 5376 
L 1434 4678 
L 320 4678 
L 320 4256 
L 1434 4256 
L 1434 3782 
L 493 3782 
z
M 864 2502 
L 1478 2502 
L 1478 1914 
L 864 1914 
L 864 2502 
z
M 1830 2502 
L 2470 2502 
L 2470 1914 
L 1830 1914 
L 1830 2502 
z
M 864 3424 
L 1478 3424 
L 1478 2848 
L 864 2848 
L 864 3424 
z
M 1830 3424 
L 2470 3424 
L 2470 2848 
L 1830 2848 
L 1830 3424 
z
" transform="scale(0.015625)"/>
      <path id="NotoSansCJKjp-Regular-e6b2" d="M 1005 -685 
C 1677 -448 2112 77 2112 768 
C 2112 1216 1920 1504 1568 1504 
C 1306 1504 1082 1344 1082 1043 
C 1082 742 1299 589 1562 589 
L 1670 602 
C 1638 160 1357 -141 864 -346 
L 1005 -685 
z
" transform="scale(0.015625)"/>
      <path id="NotoSansCJKjp-Regular-5936" d="M 2502 2931 
C 2906 2746 3386 2445 3635 2208 
L 1722 2208 
L 1856 3219 
L 4800 3219 
L 4762 2208 
L 3674 2208 
L 3942 2490 
C 3693 2726 3187 3021 2778 3200 
L 2502 2931 
z
M 275 2221 
L 275 1786 
L 1190 1786 
C 1094 1158 992 550 902 109 
L 1389 77 
L 1434 320 
L 4608 320 
C 4570 128 4525 13 4480 -45 
C 4422 -122 4365 -141 4250 -141 
C 4122 -141 3827 -134 3507 -109 
C 3571 -218 3616 -384 3622 -493 
C 3936 -512 4262 -518 4448 -506 
C 4646 -486 4781 -435 4902 -269 
C 4979 -173 5037 6 5088 320 
L 5914 320 
L 5914 749 
L 5139 749 
C 5171 1024 5190 1363 5216 1786 
L 6138 1786 
L 6138 2221 
L 5235 2221 
L 5280 3411 
C 5280 3475 5286 3648 5286 3648 
L 1427 3648 
C 1382 3219 1318 2720 1254 2221 
L 275 2221 
z
M 4666 749 
L 3603 749 
L 3834 998 
C 3571 1254 3059 1581 2618 1792 
L 4742 1792 
C 4717 1357 4698 1018 4666 749 
z
M 2336 1523 
C 2746 1318 3226 1005 3494 749 
L 1504 749 
L 1664 1792 
L 2598 1792 
L 2336 1523 
z
M 1734 5414 
C 1402 4602 845 3776 262 3264 
C 384 3194 608 3046 710 2963 
C 1030 3290 1363 3718 1658 4192 
L 5901 4192 
L 5901 4634 
L 1920 4634 
C 2029 4845 2138 5056 2234 5274 
L 1734 5414 
z
" transform="scale(0.015625)"/>
      <path id="NotoSansCJKjp-Regular-52b2" d="M 3680 4269 
L 5082 4269 
C 4890 3866 4627 3494 4320 3174 
C 4013 3488 3776 3821 3603 4147 
L 3680 4269 
z
M 1293 5376 
L 1293 4006 
L 333 4006 
L 333 3552 
L 1235 3552 
C 1037 2669 608 1664 179 1120 
C 262 1011 384 826 429 698 
C 749 1120 1056 1818 1293 2541 
L 1293 -506 
L 1747 -506 
L 1747 2720 
C 1946 2438 2170 2093 2272 1914 
L 2560 2278 
C 2445 2445 1920 3078 1747 3270 
L 1747 3552 
L 2477 3552 
L 2323 3424 
C 2432 3347 2618 3181 2701 3098 
C 2918 3290 3136 3520 3334 3776 
C 3507 3475 3731 3168 4006 2880 
C 3462 2413 2822 2067 2182 1862 
C 2278 1766 2400 1587 2458 1472 
C 2624 1536 2790 1600 2957 1677 
L 2957 -518 
L 3405 -518 
L 3405 -237 
L 5190 -237 
L 5190 -493 
L 5658 -493 
L 5658 1728 
L 5952 1613 
C 6022 1734 6157 1920 6253 2016 
C 5619 2208 5082 2509 4646 2874 
C 5094 3341 5459 3904 5690 4563 
L 5389 4704 
L 5299 4685 
L 3917 4685 
C 4019 4870 4109 5062 4186 5261 
L 3725 5382 
C 3475 4730 3059 4102 2579 3648 
L 2579 4006 
L 1747 4006 
L 1747 5376 
L 1293 5376 
z
M 3405 186 
L 3405 1421 
L 5190 1421 
L 5190 186 
L 3405 186 
z
M 3270 1837 
C 3648 2035 4000 2278 4326 2566 
C 4640 2291 5005 2042 5421 1837 
L 3270 1837 
z
" transform="scale(0.015625)"/>
      <path id="NotoSansCJKjp-Regular-1e" d="M 243 2912 
L 3315 2912 
L 3315 3347 
L 243 3347 
L 243 2912 
z
M 243 1376 
L 3315 1376 
L 3315 1811 
L 243 1811 
L 243 1376 
z
" transform="scale(0.015625)"/>
      <path id="NotoSansCJKjp-Regular-12" d="M 563 0 
L 3136 0 
L 3136 486 
L 2195 486 
L 2195 4691 
L 1747 4691 
C 1491 4544 1190 4435 774 4358 
L 774 3987 
L 1613 3987 
L 1613 486 
L 563 486 
L 563 0 
z
" transform="scale(0.015625)"/>
      <path id="NotoSansCJKjp-Regular-11" d="M 1779 -83 
C 2669 -83 3238 723 3238 2362 
C 3238 3987 2669 4774 1779 4774 
C 883 4774 320 3987 320 2362 
C 320 723 883 -83 1779 -83 
z
M 1779 390 
C 1248 390 883 986 883 2362 
C 883 3731 1248 4314 1779 4314 
C 2310 4314 2675 3731 2675 2362 
C 2675 986 2310 390 1779 390 
z
" transform="scale(0.015625)"/>
      <path id="NotoSansCJKjp-Regular-2818" d="M 1875 2950 
L 1875 2502 
L 6176 2502 
L 6176 2950 
L 1875 2950 
z
M 2675 4051 
C 2829 3706 2970 3264 3002 2989 
L 3450 3117 
C 3411 3386 3258 3821 3091 4154 
L 2675 4051 
z
M 4979 4160 
C 4890 3840 4730 3366 4589 3078 
L 5011 2982 
C 5152 3258 5318 3674 5459 4058 
L 4979 4160 
z
M 2144 4653 
L 2144 4211 
L 6042 4211 
L 6042 4653 
L 4307 4653 
L 4307 5376 
L 3821 5376 
L 3821 4653 
L 2144 4653 
z
M 2477 1901 
L 2477 -518 
L 2950 -518 
L 2950 -218 
L 5216 -218 
L 5216 -480 
L 5702 -480 
L 5702 1901 
L 2477 1901 
z
M 2950 230 
L 2950 1459 
L 5216 1459 
L 5216 230 
L 2950 230 
z
M 1690 5350 
C 1331 4378 736 3418 102 2797 
C 192 2688 326 2438 371 2323 
C 595 2554 813 2822 1024 3117 
L 1024 -499 
L 1485 -499 
L 1485 3840 
C 1734 4282 1965 4749 2144 5216 
L 1690 5350 
z
" transform="scale(0.015625)"/>
      <path id="NotoSansCJKjp-Regular-e6af" d="M 1952 2432 
C 1952 3680 1446 4698 678 5478 
L 294 5280 
C 1030 4518 1485 3571 1485 2432 
C 1485 1293 1030 346 294 -416 
L 678 -614 
C 1446 166 1952 1184 1952 2432 
z
" transform="scale(0.015625)"/>
     </defs>
     <use xlink:href="#NotoSansCJKjp-Regular-36fb"/>
     <use xlink:href="#NotoSansCJKjp-Regular-8205" transform="translate(100 0)"/>
     <use xlink:href="#NotoSansCJKjp-Regular-6285" transform="translate(200 0)"/>
     <use xlink:href="#NotoSansCJKjp-Regular-6c33" transform="translate(300 0)"/>
     <use xlink:href="#NotoSansCJKjp-Regular-a74e" transform="translate(400 0)"/>
     <use xlink:href="#NotoSansCJKjp-Regular-4231" transform="translate(500 0)"/>
     <use xlink:href="#NotoSansCJKjp-Regular-3db8" transform="translate(600 0)"/>
     <use xlink:href="#NotoSansCJKjp-Regular-4231" transform="translate(700 0)"/>
     <use xlink:href="#NotoSansCJKjp-Regular-e6ae" transform="translate(800 0)"/>
     <use xlink:href="#NotoSansCJKjp-Regular-3d73" transform="translate(900 0)"/>
     <use xlink:href="#NotoSansCJKjp-Regular-4e26" transform="translate(1000 0)"/>
     <use xlink:href="#NotoSansCJKjp-Regular-9b28" transform="translate(1100 0)"/>
     <use xlink:href="#NotoSansCJKjp-Regular-e6b2" transform="translate(1200 0)"/>
     <use xlink:href="#NotoSansCJKjp-Regular-5936" transform="translate(1300 0)"/>
     <use xlink:href="#NotoSansCJKjp-Regular-52b2" transform="translate(1400 0)"/>
     <use xlink:href="#NotoSansCJKjp-Regular-1" transform="translate(1500 0)"/>
     <use xlink:href="#NotoSansCJKjp-Regular-1e" transform="translate(1522.40625 0)"/>
     <use xlink:href="#NotoSansCJKjp-Regular-1" transform="translate(1577.90625 0)"/>
     <use xlink:href="#NotoSansCJKjp-Regular-12" transform="translate(1600.3125 0)"/>
     <use xlink:href="#NotoSansCJKjp-Regular-11" transform="translate(1655.8125 0)"/>
     <use xlink:href="#NotoSansCJKjp-Regular-1" transform="translate(1711.3125 0)"/>
     <use xlink:href="#NotoSansCJKjp-Regular-2818" transform="translate(1733.71875 0)"/>
     <use xlink:href="#NotoSansCJKjp-Regular-e6af" transform="translate(1833.71875 0)"/>
    </g>
   </g>
   <g id="line2d_25">
    <defs>
     <path id="m5259e46d5b" d="M 0 3.5 
C 0.928211 3.5 1.81853 3.131218 2.474874 2.474874 
C 3.131218 1.81853 3.5 0.928211 3.5 0 
C 3.5 -0.928211 3.131218 -1.81853 2.474874 -2.474874 
C 1.81853 -3.131218 0.928211 -3.5 0 -3.5 
C -0.928211 -3.5 -1.81853 -3.131218 -2.474874 -2.474874 
C -3.131218 -1.81853 -3.5 -0.928211 -3.5 0 
C -3.5 0.928211 -3.131218 1.81853 -2.474874 2.474874 
C -1.81853 3.131218 -0.928211 3.5 0 3.5 
z
" style="stroke: #d1242f"/>
    </defs>
    <g clip-path="url(#p8adfc1f2be)">
     <use xlink:href="#m5259e46d5b" x="48.78" y="167.69163" style="fill: #d1242f; stroke: #d1242f"/>
    </g>
   </g>
   <g id="line2d_26">
    <g clip-path="url(#p8adfc1f2be)">
     <use xlink:href="#m5259e46d5b" x="118.08" y="167.69163" style="fill: #d1242f; stroke: #d1242f"/>
    </g>
   </g>
   <g id="line2d_27">
    <defs>
     <path id="m7a7ae17459" d="M 0 3.5 
C 0.928211 3.5 1.81853 3.131218 2.474874 2.474874 
C 3.131218 1.81853 3.5 0.928211 3.5 0 
C 3.5 -0.928211 3.131218 -1.81853 2.474874 -2.474874 
C 1.81853 -3.131218 0.928211 -3.5 0 -3.5 
C -0.928211 -3.5 -1.81853 -3.131218 -2.474874 -2.474874 
C -3.131218 -1.81853 -3.5 -0.928211 -3.5 0 
C -3.5 0.928211 -3.131218 1.81853 -2.474874 2.474874 
C -1.81853 3.131218 -0.928211 3.5 0 3.5 
z
" style="stroke: #bf8700"/>
    </defs>
    <g clip-path="url(#p8adfc1f2be)">
     <use xlink:href="#m7a7ae17459" x="131.94" y="167.69163" style="fill: #bf8700; stroke: #bf8700"/>
    </g>
   </g>
   <g id="line2d_28">
    <g clip-path="url(#p8adfc1f2be)">
     <use xlink:href="#m7a7ae17459" x="159.66" y="167.69163" style="fill: #bf8700; stroke: #bf8700"/>
    </g>
   </g>
   <g id="line2d_29">
    <g clip-path="url(#p8adfc1f2be)">
     <use xlink:href="#m7a7ae17459" x="187.38" y="167.69163" style="fill: #bf8700; stroke: #bf8700"/>
    </g>
   </g>
   <g id="line2d_30">
    <defs>
     <path id="m1c02446ef8" d="M 0 3.5 
C 0.928211 3.5 1.81853 3.131218 2.474874 2.474874 
C 3.131218 1.81853 3.5 0.928211 3.5 0 
C 3.5 -0.928211 3.131218 -1.81853 2.474874 -2.474874 
C 1.81853 -3.131218 0.928211 -3.5 0 -3.5 
C -0.928211 -3.5 -1.81853 -3.131218 -2.474874 -2.474874 
C -3.131218 -1.81853 -3.5 -0.928211 -3.5 0 
C -3.5 0.928211 -3.131218 1.81853 -2.474874 2.474874 
C -1.81853 3.131218 -0.928211 3.5 0 3.5 
z
" style="stroke: #1a7f37"/>
    </defs>
    <g clip-path="url(#p8adfc1f2be)">
     <use xlink:href="#m1c02446ef8" x="215.1" y="167.69163" style="fill: #1a7f37; stroke: #1a7f37"/>
    </g>
   </g>
   <g id="line2d_31">
    <defs>
     <path id="m201a93eb61" d="M 0 3.5 
C 0.928211 3.5 1.81853 3.131218 2.474874 2.474874 
C 3.131218 1.81853 3.5 0.928211 3.5 0 
C 3.5 -0.928211 3.131218 -1.81853 2.474874 -2.474874 
C 1.81853 -3.131218 0.928211 -3.5 0 -3.5 
C -0.928211 -3.5 -1.81853 -3.131218 -2.474874 -2.474874 
C -3.131218 -1.81853 -3.5 -0.928211 -3.5 0 
C -3.5 0.928211 -3.131218 1.81853 -2.474874 2.474874 
C -1.81853 3.131218 -0.928211 3.5 0 3.5 
z
" style="stroke: #1f6feb"/>
    </defs>
    <g clip-path="url(#p8adfc1f2be)">
     <use xlink:href="#m201a93eb61" x="256.68" y="167.69163" style="fill: #1f6feb; stroke: #1f6feb"/>
    </g>
   </g>
   <g id="line2d_32">
    <g clip-path="url(#p8adfc1f2be)">
     <use xlink:href="#m201a93eb61" x="312.12" y="167.69163" style="fill: #1f6feb; stroke: #1f6feb"/>
    </g>
   </g>
   <g id="line2d_33">
    <g clip-path="url(#p8adfc1f2be)">
     <use xlink:href="#m201a93eb61" x="339.84" y="167.69163" style="fill: #1f6feb; stroke: #1f6feb"/>
    </g>
   </g>
   <g id="line2d_34">
    <defs>
     <path id="m4908748948" d="M 0 3.5 
C 0.928211 3.5 1.81853 3.131218 2.474874 2.474874 
C 3.131218 1.81853 3.5 0.928211 3.5 0 
C 3.5 -0.928211 3.131218 -1.81853 2.474874 -2.474874 
C 1.81853 -3.131218 0.928211 -3.5 0 -3.5 
C -0.928211 -3.5 -1.81853 -3.131218 -2.474874 -2.474874 
C -3.131218 -1.81853 -3.5 -0.928211 -3.5 0 
C -3.5 0.928211 -3.131218 1.81853 -2.474874 2.474874 
C -1.81853 3.131218 -0.928211 3.5 0 3.5 
z
" style="stroke: #8250df"/>
    </defs>
    <g clip-path="url(#p8adfc1f2be)">
     <use xlink:href="#m4908748948" x="367.56" y="167.69163" style="fill: #8250df; stroke: #8250df"/>
    </g>
   </g>
   <g id="line2d_35">
    <g clip-path="url(#p8adfc1f2be)">
     <use xlink:href="#m4908748948" x="381.42" y="167.69163" style="fill: #8250df; stroke: #8250df"/>
    </g>
   </g>
   <g id="line2d_36">
    <g clip-path="url(#p8adfc1f2be)">
     <use xlink:href="#m4908748948" x="409.14" y="167.69163" style="fill: #8250df; stroke: #8250df"/>
    </g>
   </g>
   <g id="line2d_37">
    <defs>
     <path id="mea334b1ff4" d="M 0 3.5 
C 0.928211 3.5 1.81853 3.131218 2.474874 2.474874 
C 3.131218 1.81853 3.5 0.928211 3.5 0 
C 3.5 -0.928211 3.131218 -1.81853 2.474874 -2.474874 
C 1.81853 -3.131218 0.928211 -3.5 0 -3.5 
C -0.928211 -3.5 -1.81853 -3.131218 -2.474874 -2.474874 
C -3.131218 -1.81853 -3.5 -0.928211 -3.5 0 
C -3.5 0.928211 -3.131218 1.81853 -2.474874 2.474874 
C -1.81853 3.131218 -0.928211 3.5 0 3.5 
z
" style="stroke: #222831"/>
    </defs>
    <g clip-path="url(#p8adfc1f2be)">
     <use xlink:href="#mea334b1ff4" x="478.44" y="167.69163" style="fill: #222831; stroke: #222831"/>
    </g>
   </g>
   <g id="line2d_38">
    <g clip-path="url(#p8adfc1f2be)">
     <use xlink:href="#mea334b1ff4" x="547.74" y="167.69163" style="fill: #222831; stroke: #222831"/>
    </g>
   </g>
   <g id="line2d_39">
    <g clip-path="url(#p8adfc1f2be)">
     <use xlink:href="#mea334b1ff4" x="617.04" y="167.69163" style="fill: #222831; stroke: #222831"/>
    </g>
   </g>
  </g>
 </g>
 <defs>
  <clipPath id="p8adfc1f2be">
   <rect x="7.2" y="25.52" width="665.28" height="272.495625"/>
  </clipPath>
 </defs>
</svg>
