<?xml version="1.0" encoding="utf-8" standalone="no"?>
<!DOCTYPE svg PUBLIC "-//W3C//DTD SVG 1.1//EN"
  "http://www.w3.org/Graphics/SVG/1.1/DTD/svg11.dtd">
<svg xmlns:xlink="http://www.w3.org/1999/xlink" width="398.253924pt" height="362.834375pt" viewBox="0 0 398.253924 362.834375" xmlns="http://www.w3.org/2000/svg" version="1.1">
 <metadata>
  <rdf:RDF xmlns:dc="http://purl.org/dc/elements/1.1/" xmlns:cc="http://creativecommons.org/ns#" xmlns:rdf="http://www.w3.org/1999/02/22-rdf-syntax-ns#">
   <cc:Work>
    <dc:type rdf:resource="http://purl.org/dc/dcmitype/StillImage"/>
    <dc:date>2026-06-17T18:22:50.448970</dc:date>
    <dc:format>image/svg+xml</dc:format>
    <dc:creator>
     <cc:Agent>
      <dc:title>Matplotlib v3.11.0, https://matplotlib.org/</dc:title>
     </cc:Agent>
    </dc:creator>
   </cc:Work>
  </rdf:RDF>
 </metadata>
 <defs>
  <style type="text/css">*{stroke-linejoin: round; stroke-linecap: butt}</style>
 </defs>
 <g id="figure_1">
  <g id="patch_1">
   <path d="M 0 362.834375 
L 398.253924 362.834375 
L 398.253924 0 
L 0 0 
z
" style="fill: #ffffff"/>
  </g>
  <g id="axes_1">
   <g id="patch_2">
    <path d="M 27.544258 111.503279 
L 140.397312 111.503279 
Q 144.235851 111.503279 144.235851 107.66474 
L 144.235851 89.239751 
Q 144.235851 85.401212 140.397312 85.401212 
L 27.544258 85.401212 
Q 23.705719 85.401212 23.705719 89.239751 
L 23.705719 107.66474 
Q 23.705719 111.503279 27.544258 111.503279 
z
" clip-path="url(#p806ac60550)" style="fill: #1f6feb; opacity: 0.13"/>
   </g>
   <g id="patch_3">
    <path d="M 337.314375 109.967863 
C 340.368353 109.967863 343.297658 108.754505 345.457146 106.595017 
C 347.616635 104.435529 348.829993 101.506223 348.829993 98.452246 
C 348.829993 95.398268 347.616635 92.468962 345.457146 90.309474 
C 343.297658 88.149986 340.368353 86.936628 337.314375 86.936628 
C 334.260397 86.936628 331.331092 88.149986 329.171604 90.309474 
C 327.012115 92.468962 325.798757 95.398268 325.798757 98.452246 
C 325.798757 101.506223 327.012115 104.435529 329.171604 106.595017 
C 331.331092 108.754505 334.260397 109.967863 337.314375 109.967863 
z
" clip-path="url(#p806ac60550)" style="fill: #1f6feb; opacity: 0.16; stroke: #1f6feb; stroke-width: 1.2; stroke-linejoin: miter"/>
   </g>
   <g id="patch_4">
    <path d="M 27.544258 147.969402 
L 140.397312 147.969402 
Q 144.235851 147.969402 144.235851 144.130863 
L 144.235851 125.705874 
Q 144.235851 121.867335 140.397312 121.867335 
L 27.544258 121.867335 
Q 23.705719 121.867335 23.705719 125.705874 
L 23.705719 144.130863 
Q 23.705719 147.969402 27.544258 147.969402 
z
" clip-path="url(#p806ac60550)" style="fill: #d1242f; opacity: 0.13"/>
   </g>
   <g id="patch_5">
    <path d="M 337.314375 146.433986 
C 340.368353 146.433986 343.297658 145.220628 345.457146 143.06114 
C 347.616635 140.901652 348.829993 137.972346 348.829993 134.918368 
C 348.829993 131.864391 347.616635 128.935085 345.457146 126.775597 
C 343.297658 124.616109 340.368353 123.402751 337.314375 123.402751 
C 334.260397 123.402751 331.331092 124.616109 329.171604 126.775597 
C 327.012115 128.935085 325.798757 131.864391 325.798757 134.918368 
C 325.798757 137.972346 327.012115 140.901652 329.171604 143.06114 
C 331.331092 145.220628 334.260397 146.433986 337.314375 146.433986 
z
" clip-path="url(#p806ac60550)" style="fill: #d1242f; opacity: 0.16; stroke: #d1242f; stroke-width: 1.2; stroke-linejoin: miter"/>
   </g>
   <g id="patch_6">
    <path d="M 27.544258 184.435525 
L 140.397312 184.435525 
Q 144.235851 184.435525 144.235851 180.596985 
L 144.235851 162.171997 
Q 144.235851 158.333458 140.397312 158.333458 
L 27.544258 158.333458 
Q 23.705719 158.333458 23.705719 162.171997 
L 23.705719 180.596985 
Q 23.705719 184.435525 27.544258 184.435525 
z
" clip-path="url(#p806ac60550)" style="fill: #1a7f37; opacity: 0.13"/>
   </g>
   <g id="patch_7">
    <path d="M 337.314375 182.900109 
C 340.368353 182.900109 343.297658 181.686751 345.457146 179.527263 
C 347.616635 177.367774 348.829993 174.438469 348.829993 171.384491 
C 348.829993 168.330514 347.616635 165.401208 345.457146 163.24172 
C 343.297658 161.082232 340.368353 159.868874 337.314375 159.868874 
C 334.260397 159.868874 331.331092 161.082232 329.171604 163.24172 
C 327.012115 165.401208 325.798757 168.330514 325.798757 171.384491 
C 325.798757 174.438469 327.012115 177.367774 329.171604 179.527263 
C 331.331092 181.686751 334.260397 182.900109 337.314375 182.900109 
z
" clip-path="url(#p806ac60550)" style="fill: #1a7f37; opacity: 0.16; stroke: #1a7f37; stroke-width: 1.2; stroke-linejoin: miter"/>
   </g>
   <g id="patch_8">
    <path d="M 27.544258 220.901648 
L 140.397312 220.901648 
Q 144.235851 220.901648 144.235851 217.063108 
L 144.235851 198.63812 
Q 144.235851 194.799581 140.397312 194.799581 
L 27.544258 194.799581 
Q 23.705719 194.799581 23.705719 198.63812 
L 23.705719 217.063108 
Q 23.705719 220.901648 27.544258 220.901648 
z
" clip-path="url(#p806ac60550)" style="fill: #bf8700; opacity: 0.13"/>
   </g>
   <g id="patch_9">
    <path d="M 337.314375 219.366232 
C 340.368353 219.366232 343.297658 218.152874 345.457146 215.993385 
C 347.616635 213.833897 348.829993 210.904592 348.829993 207.850614 
C 348.829993 204.796637 347.616635 201.867331 345.457146 199.707843 
C 343.297658 197.548354 340.368353 196.334996 337.314375 196.334996 
C 334.260397 196.334996 331.331092 197.548354 329.171604 199.707843 
C 327.012115 201.867331 325.798757 204.796637 325.798757 207.850614 
C 325.798757 210.904592 327.012115 213.833897 329.171604 215.993385 
C 331.331092 218.152874 334.260397 219.366232 337.314375 219.366232 
z
" clip-path="url(#p806ac60550)" style="fill: #bf8700; opacity: 0.16; stroke: #bf8700; stroke-width: 1.2; stroke-linejoin: miter"/>
   </g>
   <g id="patch_10">
    <path d="M 27.544258 257.36777 
L 140.397312 257.36777 
Q 144.235851 257.36777 144.235851 253.529231 
L 144.235851 235.104243 
Q 144.235851 231.265703 140.397312 231.265703 
L 27.544258 231.265703 
Q 23.705719 231.265703 23.705719 235.104243 
L 23.705719 253.529231 
Q 23.705719 257.36777 27.544258 257.36777 
z
" clip-path="url(#p806ac60550)" style="fill: #8250df; opacity: 0.13"/>
   </g>
   <g id="patch_11">
    <path d="M 337.314375 255.832355 
C 340.368353 255.832355 343.297658 254.618997 345.457146 252.459508 
C 347.616635 250.30002 348.829993 247.370714 348.829993 244.316737 
C 348.829993 241.262759 347.616635 238.333454 345.457146 236.173966 
C 343.297658 234.014477 340.368353 232.801119 337.314375 232.801119 
C 334.260397 232.801119 331.331092 234.014477 329.171604 236.173966 
C 327.012115 238.333454 325.798757 241.262759 325.798757 244.316737 
C 325.798757 247.370714 327.012115 250.30002 329.171604 252.459508 
C 331.331092 254.618997 334.260397 255.832355 337.314375 255.832355 
z
" clip-path="url(#p806ac60550)" style="fill: #8250df; opacity: 0.16; stroke: #8250df; stroke-width: 1.2; stroke-linejoin: miter"/>
   </g>
   <g id="patch_12">
    <path d="M 27.544258 293.833893 
L 140.397312 293.833893 
Q 144.235851 293.833893 144.235851 289.995354 
L 144.235851 271.570366 
Q 144.235851 267.731826 140.397312 267.731826 
L 27.544258 267.731826 
Q 23.705719 267.731826 23.705719 271.570366 
L 23.705719 289.995354 
Q 23.705719 293.833893 27.544258 293.833893 
z
" clip-path="url(#p806ac60550)" style="fill: #0e7490; opacity: 0.13"/>
   </g>
   <g id="patch_13">
    <path d="M 337.314375 292.298477 
C 340.368353 292.298477 343.297658 291.085119 345.457146 288.925631 
C 347.616635 286.766143 348.829993 283.836837 348.829993 280.78286 
C 348.829993 277.728882 347.616635 274.799577 345.457146 272.640088 
C 343.297658 270.4806 340.368353 269.267242 337.314375 269.267242 
C 334.260397 269.267242 331.331092 270.4806 329.171604 272.640088 
C 327.012115 274.799577 325.798757 277.728882 325.798757 280.78286 
C 325.798757 283.836837 327.012115 286.766143 329.171604 288.925631 
C 331.331092 291.085119 334.260397 292.298477 337.314375 292.298477 
z
" clip-path="url(#p806ac60550)" style="fill: #0e7490; opacity: 0.16; stroke: #0e7490; stroke-width: 1.2; stroke-linejoin: miter"/>
   </g>
   <g id="patch_14">
    <path d="M 27.544258 330.300016 
L 140.397312 330.300016 
Q 144.235851 330.300016 144.235851 326.461477 
L 144.235851 308.036488 
Q 144.235851 304.197949 140.397312 304.197949 
L 27.544258 304.197949 
Q 23.705719 304.197949 23.705719 308.036488 
L 23.705719 326.461477 
Q 23.705719 330.300016 27.544258 330.300016 
z
" clip-path="url(#p806ac60550)" style="fill: #9a6700; opacity: 0.13"/>
   </g>
   <g id="patch_15">
    <path d="M 337.314375 328.7646 
C 340.368353 328.7646 343.297658 327.551242 345.457146 325.391754 
C 347.616635 323.232266 348.829993 320.30296 348.829993 317.248983 
C 348.829993 314.195005 347.616635 311.265699 345.457146 309.106211 
C 343.297658 306.946723 340.368353 305.733365 337.314375 305.733365 
C 334.260397 305.733365 331.331092 306.946723 329.171604 309.106211 
C 327.012115 311.265699 325.798757 314.195005 325.798757 317.248983 
C 325.798757 320.30296 327.012115 323.232266 329.171604 325.391754 
C 331.331092 327.551242 334.260397 328.7646 337.314375 328.7646 
z
" clip-path="url(#p806ac60550)" style="fill: #9a6700; opacity: 0.16; stroke: #9a6700; stroke-width: 1.2; stroke-linejoin: miter"/>
   </g>
   <g id="line2d_1">
    <path d="M 18.715618 73.501741 
L 379.538307 73.501741 
" clip-path="url(#p806ac60550)" style="fill: none; stroke: #222831; stroke-width: 1.6; stroke-linecap: square"/>
   </g>
   <g id="text_1">
    <!-- 長度 -->
    <g style="fill: #1f6feb" transform="translate(34.069775 103.392246) scale(0.13 -0.13)">
     <defs>
      <path id="NotoSansCJKjp-Regular-a74e" d="M 1466 5120 
L 1466 2304 
L 339 2304 
L 339 1875 
L 1466 1875 
L 1466 96 
L 646 -26 
L 762 -474 
C 1536 -339 2637 -154 3661 32 
L 3642 461 
L 1958 179 
L 1958 1875 
L 2874 1875 
C 3411 621 4397 -186 5862 -531 
C 5933 -397 6067 -205 6170 -102 
C 5440 38 4826 307 4333 685 
C 4800 915 5357 1242 5779 1555 
L 5389 1824 
C 5050 1542 4493 1197 4026 947 
C 3757 1216 3533 1523 3360 1875 
L 6067 1875 
L 6067 2304 
L 1958 2304 
L 1958 2861 
L 5242 2861 
L 5242 3251 
L 1958 3251 
L 1958 3789 
L 5242 3789 
L 5242 4173 
L 1958 4173 
L 1958 4710 
L 5440 4710 
L 5440 5120 
L 1466 5120 
z
" transform="scale(0.015625)"/>
      <path id="NotoSansCJKjp-Regular-4231" d="M 2470 4141 
L 2470 3584 
L 1440 3584 
L 1440 3187 
L 2470 3187 
L 2470 2125 
L 4960 2125 
L 4960 3187 
L 5997 3187 
L 5997 3584 
L 4960 3584 
L 4960 4141 
L 4486 4141 
L 4486 3584 
L 2931 3584 
L 2931 4141 
L 2470 4141 
z
M 4486 3187 
L 4486 2509 
L 2931 2509 
L 2931 3187 
L 4486 3187 
z
M 4851 1318 
C 4582 986 4211 717 3770 506 
C 3334 723 2970 992 2720 1318 
L 4851 1318 
z
M 1530 1715 
L 1530 1318 
L 2502 1318 
L 2259 1222 
C 2515 858 2861 550 3270 301 
C 2662 90 1978 -38 1280 -109 
C 1357 -211 1453 -397 1485 -512 
C 2291 -416 3072 -243 3757 45 
C 4365 -237 5088 -422 5869 -525 
C 5933 -403 6048 -211 6150 -109 
C 5466 -38 4819 96 4269 294 
C 4813 608 5261 1024 5549 1574 
L 5248 1734 
L 5165 1715 
L 1530 1715 
z
M 774 4742 
L 774 2893 
C 774 1965 730 659 198 -256 
C 314 -307 512 -435 595 -518 
C 1152 448 1235 1901 1235 2893 
L 1235 4307 
L 6035 4307 
L 6035 4742 
L 3635 4742 
L 3635 5376 
L 3142 5376 
L 3142 4742 
L 774 4742 
z
" transform="scale(0.015625)"/>
     </defs>
     <use xlink:href="#NotoSansCJKjp-Regular-a74e"/>
     <use xlink:href="#NotoSansCJKjp-Regular-4231" transform="translate(100 0)"/>
    </g>
   </g>
   <g id="text_2">
    <!-- length -->
    <g style="fill: #888888" transform="translate(114.161479 101.897453) scale(0.085 -0.085)">
     <defs>
      <path id="NotoSansCJKjp-Regular-4d" d="M 1203 -83 
C 1363 -83 1459 -58 1542 -32 
L 1459 416 
C 1395 403 1370 403 1338 403 
C 1248 403 1178 474 1178 653 
L 1178 5094 
L 589 5094 
L 589 691 
C 589 198 768 -83 1203 -83 
z
" transform="scale(0.015625)"/>
      <path id="NotoSansCJKjp-Regular-46" d="M 1997 -83 
C 2464 -83 2835 70 3136 269 
L 2931 659 
C 2669 486 2400 384 2061 384 
C 1402 384 947 858 909 1600 
L 3251 1600 
C 3264 1690 3277 1805 3277 1933 
C 3277 2925 2778 3565 1888 3565 
C 1094 3565 333 2867 333 1734 
C 333 589 1069 -83 1997 -83 
z
M 902 2016 
C 973 2707 1408 3098 1901 3098 
C 2445 3098 2765 2720 2765 2016 
L 902 2016 
z
" transform="scale(0.015625)"/>
      <path id="NotoSansCJKjp-Regular-4f" d="M 589 0 
L 1178 0 
L 1178 2522 
C 1523 2874 1766 3053 2125 3053 
C 2586 3053 2784 2778 2784 2125 
L 2784 0 
L 3366 0 
L 3366 2202 
C 3366 3085 3034 3565 2304 3565 
C 1830 3565 1466 3302 1139 2970 
L 1126 2970 
L 1069 3475 
L 589 3475 
L 589 0 
z
" transform="scale(0.015625)"/>
      <path id="NotoSansCJKjp-Regular-48" d="M 1760 -1600 
C 2835 -1600 3520 -1043 3520 -397 
C 3520 179 3110 429 2310 429 
L 1626 429 
C 1158 429 1018 589 1018 806 
C 1018 998 1114 1114 1242 1222 
C 1395 1146 1587 1101 1754 1101 
C 2470 1101 3027 1568 3027 2310 
C 3027 2611 2912 2867 2746 3027 
L 3456 3027 
L 3456 3475 
L 2246 3475 
C 2125 3526 1952 3565 1754 3565 
C 1056 3565 454 3085 454 2323 
C 454 1907 678 1568 909 1389 
L 909 1363 
C 723 1235 525 1005 525 717 
C 525 442 659 256 838 147 
L 838 115 
C 512 -83 326 -371 326 -672 
C 326 -1267 915 -1600 1760 -1600 
z
M 1754 1498 
C 1357 1498 1018 1818 1018 2323 
C 1018 2835 1350 3136 1754 3136 
C 2170 3136 2496 2835 2496 2323 
C 2496 1818 2157 1498 1754 1498 
z
M 1843 -1197 
C 1210 -1197 838 -960 838 -589 
C 838 -390 941 -179 1190 0 
C 1344 -38 1510 -51 1638 -51 
L 2240 -51 
C 2701 -51 2944 -166 2944 -493 
C 2944 -851 2515 -1197 1843 -1197 
z
" transform="scale(0.015625)"/>
      <path id="NotoSansCJKjp-Regular-55" d="M 1677 -83 
C 1894 -83 2125 -19 2323 45 
L 2208 486 
C 2093 435 1939 390 1811 390 
C 1408 390 1274 634 1274 1056 
L 1274 3002 
L 2221 3002 
L 2221 3475 
L 1274 3475 
L 1274 4454 
L 787 4454 
L 723 3475 
L 173 3443 
L 173 3002 
L 691 3002 
L 691 1075 
C 691 378 941 -83 1677 -83 
z
" transform="scale(0.015625)"/>
      <path id="NotoSansCJKjp-Regular-49" d="M 589 0 
L 1178 0 
L 1178 2522 
C 1523 2874 1766 3053 2125 3053 
C 2586 3053 2784 2778 2784 2125 
L 2784 0 
L 3366 0 
L 3366 2202 
C 3366 3085 3034 3565 2304 3565 
C 1830 3565 1472 3302 1152 2982 
L 1178 3699 
L 1178 5094 
L 589 5094 
L 589 0 
z
" transform="scale(0.015625)"/>
     </defs>
     <use xlink:href="#NotoSansCJKjp-Regular-4d"/>
     <use xlink:href="#NotoSansCJKjp-Regular-46" transform="translate(28.40625 0)"/>
     <use xlink:href="#NotoSansCJKjp-Regular-4f" transform="translate(83.8125 0)"/>
     <use xlink:href="#NotoSansCJKjp-Regular-48" transform="translate(144.8125 0)"/>
     <use xlink:href="#NotoSansCJKjp-Regular-55" transform="translate(201.21875 0)"/>
     <use xlink:href="#NotoSansCJKjp-Regular-49" transform="translate(238.921875 0)"/>
    </g>
   </g>
   <g id="text_3">
    <!-- 質量 -->
    <g style="fill: #d1242f" transform="translate(34.069775 139.858368) scale(0.13 -0.13)">
     <defs>
      <path id="NotoSansCJKjp-Regular-97ec" d="M 1606 2061 
L 4851 2061 
L 4851 1613 
L 1606 1613 
L 1606 2061 
z
M 1606 1299 
L 4851 1299 
L 4851 845 
L 1606 845 
L 1606 1299 
z
M 1606 2816 
L 4851 2816 
L 4851 2374 
L 1606 2374 
L 1606 2816 
z
M 1139 3142 
L 1139 518 
L 5331 518 
L 5331 3142 
L 1139 3142 
z
M 3738 186 
C 4435 -45 5126 -320 5530 -525 
L 6067 -282 
C 5600 -70 4826 211 4128 429 
L 3738 186 
z
M 2227 448 
C 1766 198 998 -32 339 -173 
C 448 -256 621 -435 698 -531 
C 1338 -358 2150 -58 2669 250 
L 2227 448 
z
M 813 5203 
L 813 4570 
C 813 4154 736 3642 282 3226 
C 384 3162 538 3014 602 2918 
C 973 3264 1139 3693 1203 4077 
L 1990 4077 
L 1990 3270 
L 2419 3270 
L 2419 4077 
L 3174 4077 
L 3174 4448 
L 1242 4448 
L 1242 4544 
L 1242 4774 
C 1843 4832 2528 4922 3002 5062 
L 2682 5363 
C 2336 5254 1741 5158 1184 5101 
L 813 5203 
z
M 3430 5190 
L 3430 4614 
C 3430 4256 3334 3846 2816 3507 
C 2918 3437 3059 3283 3117 3181 
C 3501 3443 3693 3763 3782 4077 
L 4678 4077 
L 4678 3258 
L 5114 3258 
L 5114 4077 
L 6067 4077 
L 6067 4448 
L 3853 4448 
L 3859 4602 
L 3859 4774 
C 4506 4826 5242 4915 5747 5050 
L 5427 5350 
C 5050 5248 4397 5152 3802 5094 
L 3430 5190 
z
" transform="scale(0.015625)"/>
      <path id="NotoSansCJKjp-Regular-a108" d="M 1600 4256 
L 4781 4256 
L 4781 3904 
L 1600 3904 
L 1600 4256 
z
M 1600 4883 
L 4781 4883 
L 4781 4538 
L 1600 4538 
L 1600 4883 
z
M 1133 5171 
L 1133 3616 
L 5261 3616 
L 5261 5171 
L 1133 5171 
z
M 333 3341 
L 333 2976 
L 6074 2976 
L 6074 3341 
L 333 3341 
z
M 1472 1747 
L 2957 1747 
L 2957 1376 
L 1472 1376 
L 1472 1747 
z
M 3424 1747 
L 4973 1747 
L 4973 1376 
L 3424 1376 
L 3424 1747 
z
M 1472 2387 
L 2957 2387 
L 2957 2029 
L 1472 2029 
L 1472 2387 
z
M 3424 2387 
L 4973 2387 
L 4973 2029 
L 3424 2029 
L 3424 2387 
z
M 301 19 
L 301 -352 
L 6112 -352 
L 6112 19 
L 3424 19 
L 3424 390 
L 5587 390 
L 5587 730 
L 3424 730 
L 3424 1082 
L 5446 1082 
L 5446 2688 
L 1018 2688 
L 1018 1082 
L 2957 1082 
L 2957 730 
L 838 730 
L 838 390 
L 2957 390 
L 2957 19 
L 301 19 
z
" transform="scale(0.015625)"/>
     </defs>
     <use xlink:href="#NotoSansCJKjp-Regular-97ec"/>
     <use xlink:href="#NotoSansCJKjp-Regular-a108" transform="translate(100 0)"/>
    </g>
   </g>
   <g id="text_4">
    <!-- mass -->
    <g style="fill: #888888" transform="translate(119.018432 138.916076) scale(0.085 -0.085)">
     <defs>
      <path id="NotoSansCJKjp-Regular-4e" d="M 589 0 
L 1178 0 
L 1178 2522 
C 1491 2880 1786 3053 2048 3053 
C 2490 3053 2694 2778 2694 2125 
L 2694 0 
L 3277 0 
L 3277 2522 
C 3603 2880 3885 3053 4154 3053 
C 4595 3053 4800 2778 4800 2125 
L 4800 0 
L 5382 0 
L 5382 2202 
C 5382 3085 5043 3565 4333 3565 
C 3904 3565 3546 3290 3181 2899 
C 3040 3309 2758 3565 2221 3565 
C 1805 3565 1446 3302 1139 2970 
L 1126 2970 
L 1069 3475 
L 589 3475 
L 589 0 
z
" transform="scale(0.015625)"/>
      <path id="NotoSansCJKjp-Regular-42" d="M 1389 -83 
C 1818 -83 2208 141 2541 416 
L 2560 416 
L 2611 0 
L 3091 0 
L 3091 2138 
C 3091 3002 2739 3565 1888 3565 
C 1325 3565 838 3315 525 3110 
L 749 2707 
C 1024 2893 1389 3078 1792 3078 
C 2362 3078 2509 2650 2509 2202 
C 1030 2035 378 1658 378 902 
C 378 275 806 -83 1389 -83 
z
M 1555 390 
C 1210 390 941 544 941 941 
C 941 1389 1338 1677 2509 1811 
L 2509 845 
C 2170 544 1888 390 1555 390 
z
" transform="scale(0.015625)"/>
      <path id="NotoSansCJKjp-Regular-54" d="M 1498 -83 
C 2317 -83 2758 384 2758 947 
C 2758 1606 2208 1811 1702 2003 
C 1312 2150 954 2278 954 2605 
C 954 2880 1158 3110 1600 3110 
C 1907 3110 2150 2976 2387 2803 
L 2669 3168 
C 2406 3386 2022 3565 1594 3565 
C 832 3565 397 3130 397 2579 
C 397 1984 922 1754 1408 1574 
C 1792 1434 2202 1267 2202 915 
C 2202 614 1978 371 1517 371 
C 1101 371 794 538 486 787 
L 205 397 
C 531 122 1005 -83 1498 -83 
z
" transform="scale(0.015625)"/>
     </defs>
     <use xlink:href="#NotoSansCJKjp-Regular-4e"/>
     <use xlink:href="#NotoSansCJKjp-Regular-42" transform="translate(92.59375 0)"/>
     <use xlink:href="#NotoSansCJKjp-Regular-54" transform="translate(148.890625 0)"/>
     <use xlink:href="#NotoSansCJKjp-Regular-54" transform="translate(195.6875 0)"/>
    </g>
   </g>
   <g id="text_5">
    <!-- 時間 -->
    <g style="fill: #1a7f37" transform="translate(34.069775 176.324491) scale(0.13 -0.13)">
     <defs>
      <path id="NotoSansCJKjp-Regular-4f87" d="M 2848 1338 
C 3174 998 3520 525 3661 211 
L 4070 461 
C 3923 781 3558 1235 3232 1562 
L 2848 1338 
z
M 4038 5382 
L 4038 4614 
L 2694 4614 
L 2694 4186 
L 4038 4186 
L 4038 3373 
L 2426 3373 
L 2426 2938 
L 4883 2938 
L 4883 2214 
L 2458 2214 
L 2458 1786 
L 4883 1786 
L 4883 64 
C 4883 -32 4851 -58 4749 -58 
C 4646 -64 4282 -64 3891 -51 
C 3962 -186 4032 -378 4051 -506 
C 4570 -506 4890 -499 5094 -422 
C 5293 -352 5357 -218 5357 58 
L 5357 1786 
L 6106 1786 
L 6106 2214 
L 5357 2214 
L 5357 2938 
L 6170 2938 
L 6170 3373 
L 4512 3373 
L 4512 4186 
L 5901 4186 
L 5901 4614 
L 4512 4614 
L 4512 5382 
L 4038 5382 
z
M 1862 2662 
L 1862 1184 
L 934 1184 
L 934 2662 
L 1862 2662 
z
M 1862 3098 
L 934 3098 
L 934 4518 
L 1862 4518 
L 1862 3098 
z
M 486 4960 
L 486 224 
L 934 224 
L 934 749 
L 2317 749 
L 2317 4960 
L 486 4960 
z
" transform="scale(0.015625)"/>
      <path id="NotoSansCJKjp-Regular-a774" d="M 3936 1082 
L 3936 461 
L 2432 461 
L 2432 1082 
L 3936 1082 
z
M 3936 1453 
L 2432 1453 
L 2432 2042 
L 3936 2042 
L 3936 1453 
z
M 1997 2419 
L 1997 -243 
L 2432 -243 
L 2432 83 
L 4384 83 
L 4384 2419 
L 1997 2419 
z
M 2451 3840 
L 2451 3270 
L 1056 3270 
L 1056 3840 
L 2451 3840 
z
M 2451 4192 
L 1056 4192 
L 1056 4730 
L 2451 4730 
L 2451 4192 
z
M 5376 3840 
L 5376 3264 
L 3936 3264 
L 3936 3840 
L 5376 3840 
z
M 5376 4192 
L 3936 4192 
L 3936 4730 
L 5376 4730 
L 5376 4192 
z
M 5619 5101 
L 3482 5101 
L 3482 2893 
L 5376 2893 
L 5376 128 
C 5376 13 5338 -19 5229 -26 
C 5114 -26 4723 -32 4333 -19 
C 4403 -154 4474 -378 4499 -512 
C 5030 -512 5376 -506 5581 -422 
C 5792 -339 5862 -186 5862 122 
L 5862 5101 
L 5619 5101 
z
M 576 5101 
L 576 -518 
L 1056 -518 
L 1056 2906 
L 2899 2906 
L 2899 5101 
L 576 5101 
z
" transform="scale(0.015625)"/>
     </defs>
     <use xlink:href="#NotoSansCJKjp-Regular-4f87"/>
     <use xlink:href="#NotoSansCJKjp-Regular-a774" transform="translate(100 0)"/>
    </g>
   </g>
   <g id="text_6">
    <!-- time -->
    <g style="fill: #888888" transform="translate(121.507338 175.382199) scale(0.085 -0.085)">
     <defs>
      <path id="NotoSansCJKjp-Regular-4a" d="M 589 0 
L 1178 0 
L 1178 3475 
L 589 3475 
L 589 0 
z
M 883 4192 
C 1114 4192 1274 4346 1274 4582 
C 1274 4806 1114 4960 883 4960 
C 653 4960 499 4806 499 4582 
C 499 4346 653 4192 883 4192 
z
" transform="scale(0.015625)"/>
     </defs>
     <use xlink:href="#NotoSansCJKjp-Regular-55"/>
     <use xlink:href="#NotoSansCJKjp-Regular-4a" transform="translate(37.703125 0)"/>
     <use xlink:href="#NotoSansCJKjp-Regular-4e" transform="translate(65.203125 0)"/>
     <use xlink:href="#NotoSansCJKjp-Regular-46" transform="translate(157.796875 0)"/>
    </g>
   </g>
   <g id="text_7">
    <!-- 電流 -->
    <g style="fill: #bf8700" transform="translate(34.069775 212.790614) scale(0.13 -0.13)">
     <defs>
      <path id="NotoSansCJKjp-Regular-a9c5" d="M 1261 3635 
L 1261 3334 
L 2618 3334 
L 2618 3635 
L 1261 3635 
z
M 1133 2982 
L 1133 2675 
L 2618 2675 
L 2618 2982 
L 1133 2982 
z
M 3757 2982 
L 3757 2675 
L 5293 2675 
L 5293 2982 
L 3757 2982 
z
M 3757 3635 
L 3757 3334 
L 5133 3334 
L 5133 3635 
L 3757 3635 
z
M 4915 1184 
L 4915 742 
L 3392 742 
L 3392 1184 
L 4915 1184 
z
M 4915 1504 
L 3392 1504 
L 3392 1946 
L 4915 1946 
L 4915 1504 
z
M 2925 1184 
L 2925 742 
L 1504 742 
L 1504 1184 
L 2925 1184 
z
M 2925 1504 
L 1504 1504 
L 1504 1946 
L 2925 1946 
L 2925 1504 
z
M 1043 2298 
L 1043 58 
L 1504 58 
L 1504 390 
L 2925 390 
L 2925 192 
C 2925 -333 3130 -461 3846 -461 
C 4006 -461 5171 -461 5338 -461 
C 5939 -461 6093 -256 6157 525 
C 6029 550 5843 614 5741 685 
C 5709 38 5645 -70 5306 -70 
C 5050 -70 4064 -70 3872 -70 
C 3469 -70 3392 -26 3392 192 
L 3392 390 
L 5389 390 
L 5389 2298 
L 1043 2298 
z
M 486 4339 
L 486 3085 
L 922 3085 
L 922 3987 
L 2944 3987 
L 2944 2515 
L 3418 2515 
L 3418 3987 
L 5472 3987 
L 5472 3085 
L 5920 3085 
L 5920 4339 
L 3418 4339 
L 3418 4730 
L 5536 4730 
L 5536 5101 
L 858 5101 
L 858 4730 
L 2944 4730 
L 2944 4339 
L 486 4339 
z
" transform="scale(0.015625)"/>
      <path id="NotoSansCJKjp-Regular-5b71" d="M 3712 2310 
L 3712 -237 
L 4147 -237 
L 4147 2310 
L 3712 2310 
z
M 2592 2349 
L 2592 1683 
C 2592 1088 2509 358 1722 -186 
C 1837 -256 1997 -403 2061 -499 
C 2925 122 3027 960 3027 1670 
L 3027 2349 
L 2592 2349 
z
M 582 4973 
C 992 4787 1485 4480 1728 4243 
L 2003 4640 
C 1754 4864 1254 5146 845 5318 
L 582 4973 
z
M 243 3238 
C 659 3059 1158 2771 1408 2554 
L 1683 2957 
C 1427 3168 915 3443 506 3597 
L 243 3238 
z
M 429 -115 
L 845 -422 
C 1197 179 1619 986 1939 1664 
L 1574 1965 
C 1222 1229 755 384 429 -115 
z
M 4851 2349 
L 4851 275 
C 4851 -115 4883 -218 4973 -301 
C 5062 -378 5203 -416 5325 -416 
C 5395 -416 5568 -416 5645 -416 
C 5754 -416 5882 -390 5952 -346 
C 6035 -294 6093 -211 6125 -96 
C 6157 26 6176 358 6189 640 
C 6074 678 5933 749 5850 826 
C 5843 518 5837 282 5824 179 
C 5805 77 5786 26 5760 6 
C 5728 -19 5677 -26 5619 -26 
C 5568 -26 5478 -26 5440 -26 
C 5395 -26 5350 -13 5338 6 
C 5299 32 5299 96 5299 230 
L 5299 2349 
L 4851 2349 
z
M 2093 3053 
L 2150 2598 
C 3008 2630 4237 2694 5421 2758 
C 5549 2598 5651 2445 5728 2317 
L 6118 2547 
C 5894 2938 5376 3494 4915 3885 
L 4550 3680 
C 4723 3526 4909 3341 5082 3155 
L 3334 3091 
C 3520 3398 3725 3770 3898 4109 
L 6086 4109 
L 6086 4544 
L 4198 4544 
L 4198 5376 
L 3712 5376 
L 3712 4544 
L 2016 4544 
L 2016 4109 
L 3354 4109 
C 3213 3776 3014 3379 2835 3078 
L 2093 3053 
z
" transform="scale(0.015625)"/>
     </defs>
     <use xlink:href="#NotoSansCJKjp-Regular-a9c5"/>
     <use xlink:href="#NotoSansCJKjp-Regular-5b71" transform="translate(100 0)"/>
    </g>
   </g>
   <g id="text_8">
    <!-- electric current -->
    <g style="fill: #888888" transform="translate(79.377885 211.848322) scale(0.085 -0.085)">
     <defs>
      <path id="NotoSansCJKjp-Regular-44" d="M 1958 -83 
C 2374 -83 2771 83 3085 352 
L 2829 749 
C 2611 557 2330 403 2010 403 
C 1370 403 934 934 934 1734 
C 934 2534 1395 3072 2029 3072 
C 2298 3072 2522 2950 2720 2771 
L 3014 3155 
C 2771 3373 2458 3565 2003 3565 
C 1107 3565 333 2893 333 1734 
C 333 582 1037 -83 1958 -83 
z
" transform="scale(0.015625)"/>
      <path id="NotoSansCJKjp-Regular-53" d="M 589 0 
L 1178 0 
L 1178 2234 
C 1408 2822 1760 3040 2048 3040 
C 2195 3040 2272 3021 2387 2982 
L 2496 3488 
C 2387 3546 2278 3565 2125 3565 
C 1741 3565 1382 3283 1139 2842 
L 1126 2842 
L 1069 3475 
L 589 3475 
L 589 0 
z
" transform="scale(0.015625)"/>
      <path id="NotoSansCJKjp-Regular-1" transform="scale(0.015625)"/>
      <path id="NotoSansCJKjp-Regular-56" d="M 1606 -83 
C 2080 -83 2426 166 2752 544 
L 2771 544 
L 2816 0 
L 3302 0 
L 3302 3475 
L 2720 3475 
L 2720 1011 
C 2387 602 2138 422 1779 422 
C 1318 422 1126 698 1126 1344 
L 1126 3475 
L 538 3475 
L 538 1274 
C 538 384 870 -83 1606 -83 
z
" transform="scale(0.015625)"/>
     </defs>
     <use xlink:href="#NotoSansCJKjp-Regular-46"/>
     <use xlink:href="#NotoSansCJKjp-Regular-4d" transform="translate(55.40625 0)"/>
     <use xlink:href="#NotoSansCJKjp-Regular-46" transform="translate(83.8125 0)"/>
     <use xlink:href="#NotoSansCJKjp-Regular-44" transform="translate(139.21875 0)"/>
     <use xlink:href="#NotoSansCJKjp-Regular-55" transform="translate(189.125 0)"/>
     <use xlink:href="#NotoSansCJKjp-Regular-53" transform="translate(226.828125 0)"/>
     <use xlink:href="#NotoSansCJKjp-Regular-4a" transform="translate(265.625 0)"/>
     <use xlink:href="#NotoSansCJKjp-Regular-44" transform="translate(293.125 0)"/>
     <use xlink:href="#NotoSansCJKjp-Regular-1" transform="translate(344.125 0)"/>
     <use xlink:href="#NotoSansCJKjp-Regular-44" transform="translate(366.53125 0)"/>
     <use xlink:href="#NotoSansCJKjp-Regular-56" transform="translate(417.53125 0)"/>
     <use xlink:href="#NotoSansCJKjp-Regular-53" transform="translate(478.234375 0)"/>
     <use xlink:href="#NotoSansCJKjp-Regular-53" transform="translate(517.03125 0)"/>
     <use xlink:href="#NotoSansCJKjp-Regular-46" transform="translate(554.734375 0)"/>
     <use xlink:href="#NotoSansCJKjp-Regular-4f" transform="translate(610.140625 0)"/>
     <use xlink:href="#NotoSansCJKjp-Regular-55" transform="translate(671.140625 0)"/>
    </g>
   </g>
   <g id="text_9">
    <!-- 溫度 -->
    <g style="fill: #8250df" transform="translate(34.069775 249.256737) scale(0.13 -0.13)">
     <defs>
      <path id="NotoSansCJKjp-Regular-5dbe" d="M 570 4973 
C 960 4781 1427 4474 1658 4243 
L 1939 4640 
C 1709 4864 1229 5146 845 5318 
L 570 4973 
z
M 243 3245 
C 640 3072 1114 2784 1344 2573 
L 1619 2963 
C 1382 3174 902 3450 512 3603 
L 243 3245 
z
M 390 -134 
L 813 -429 
C 1139 166 1523 966 1811 1638 
L 1434 1926 
C 1120 1203 691 358 390 -134 
z
M 2854 4698 
L 5030 4698 
L 5030 2944 
L 2854 2944 
L 2854 4698 
z
M 2413 5075 
L 2413 2566 
L 5485 2566 
L 5485 5075 
L 2413 5075 
z
M 1606 102 
L 1606 -326 
L 6157 -326 
L 6157 102 
L 5715 102 
L 5715 2086 
L 2182 2086 
L 2182 102 
L 1606 102 
z
M 2624 102 
L 2624 1670 
L 3245 1670 
L 3245 102 
L 2624 102 
z
M 3616 102 
L 3616 1670 
L 4250 1670 
L 4250 102 
L 3616 102 
z
M 4627 102 
L 4627 1670 
L 5261 1670 
L 5261 102 
L 4627 102 
z
M 3834 4589 
C 3757 4096 3462 3590 2982 3322 
C 3046 3264 3149 3149 3200 3078 
C 3488 3238 3718 3488 3891 3770 
C 4160 3539 4448 3264 4602 3085 
L 4851 3309 
C 4672 3501 4326 3808 4032 4045 
C 4102 4205 4154 4378 4186 4544 
L 3834 4589 
z
" transform="scale(0.015625)"/>
     </defs>
     <use xlink:href="#NotoSansCJKjp-Regular-5dbe"/>
     <use xlink:href="#NotoSansCJKjp-Regular-4231" transform="translate(100 0)"/>
    </g>
   </g>
   <g id="text_10">
    <!-- temperature -->
    <g style="fill: #888888" transform="translate(89.988276 247.850929) scale(0.085 -0.085)">
     <defs>
      <path id="NotoSansCJKjp-Regular-51" d="M 589 -1466 
L 1178 -1466 
L 1178 -288 
L 1158 320 
C 1472 58 1805 -83 2118 -83 
C 2912 -83 3629 602 3629 1792 
C 3629 2867 3142 3565 2246 3565 
C 1843 3565 1453 3334 1139 3072 
L 1126 3072 
L 1069 3475 
L 589 3475 
L 589 -1466 
z
M 2022 410 
C 1792 410 1485 499 1178 768 
L 1178 2598 
C 1510 2906 1811 3072 2099 3072 
C 2765 3072 3021 2560 3021 1786 
C 3021 928 2598 410 2022 410 
z
" transform="scale(0.015625)"/>
     </defs>
     <use xlink:href="#NotoSansCJKjp-Regular-55"/>
     <use xlink:href="#NotoSansCJKjp-Regular-46" transform="translate(36.203125 0)"/>
     <use xlink:href="#NotoSansCJKjp-Regular-4e" transform="translate(91.609375 0)"/>
     <use xlink:href="#NotoSansCJKjp-Regular-51" transform="translate(184.203125 0)"/>
     <use xlink:href="#NotoSansCJKjp-Regular-46" transform="translate(246.203125 0)"/>
     <use xlink:href="#NotoSansCJKjp-Regular-53" transform="translate(301.609375 0)"/>
     <use xlink:href="#NotoSansCJKjp-Regular-42" transform="translate(337.703125 0)"/>
     <use xlink:href="#NotoSansCJKjp-Regular-55" transform="translate(392.5 0)"/>
     <use xlink:href="#NotoSansCJKjp-Regular-56" transform="translate(430.203125 0)"/>
     <use xlink:href="#NotoSansCJKjp-Regular-53" transform="translate(490.90625 0)"/>
     <use xlink:href="#NotoSansCJKjp-Regular-46" transform="translate(528.609375 0)"/>
    </g>
   </g>
   <g id="text_11">
    <!-- 物量 -->
    <g style="fill: #0e7490" transform="translate(34.069775 285.72286) scale(0.13 -0.13)">
     <defs>
      <path id="NotoSansCJKjp-Regular-64fb" d="M 3418 5376 
C 3206 4403 2822 3488 2285 2906 
C 2394 2842 2579 2707 2656 2630 
C 2938 2957 3181 3379 3392 3853 
L 3942 3853 
C 3648 2822 3078 1747 2400 1210 
C 2528 1139 2682 1024 2778 928 
C 3482 1542 4064 2746 4358 3853 
L 4883 3853 
C 4550 2234 3859 640 2803 -115 
C 2938 -179 3110 -307 3206 -403 
C 4269 442 4979 2163 5306 3853 
L 5606 3853 
C 5478 1299 5338 346 5133 115 
C 5062 32 4998 13 4890 13 
C 4768 13 4512 19 4224 45 
C 4301 -90 4346 -294 4358 -435 
C 4640 -454 4915 -454 5088 -435 
C 5280 -410 5408 -358 5536 -179 
C 5792 134 5933 1139 6074 4058 
C 6080 4122 6086 4301 6086 4301 
L 3571 4301 
C 3680 4614 3782 4954 3859 5293 
L 3418 5376 
z
M 627 5005 
C 550 4218 422 3405 186 2867 
C 288 2822 474 2707 550 2650 
C 659 2912 755 3245 832 3603 
L 1421 3603 
L 1421 2157 
C 973 2029 550 1907 224 1824 
L 352 1363 
L 1421 1696 
L 1421 -512 
L 1869 -512 
L 1869 1837 
L 2675 2093 
L 2611 2515 
L 1869 2291 
L 1869 3603 
L 2528 3603 
L 2528 4064 
L 1869 4064 
L 1869 5370 
L 1421 5370 
L 1421 4064 
L 922 4064 
C 966 4352 1011 4646 1043 4941 
L 627 5005 
z
" transform="scale(0.015625)"/>
     </defs>
     <use xlink:href="#NotoSansCJKjp-Regular-64fb"/>
     <use xlink:href="#NotoSansCJKjp-Regular-a108" transform="translate(100 0)"/>
    </g>
   </g>
   <g id="text_12">
    <!-- amount of substance -->
    <g style="fill: #888888" transform="translate(56.560698 284.780568) scale(0.085 -0.085)">
     <defs>
      <path id="NotoSansCJKjp-Regular-50" d="M 1939 -83 
C 2790 -83 3546 582 3546 1734 
C 3546 2893 2790 3565 1939 3565 
C 1088 3565 333 2893 333 1734 
C 333 582 1088 -83 1939 -83 
z
M 1939 403 
C 1338 403 934 934 934 1734 
C 934 2534 1338 3072 1939 3072 
C 2541 3072 2950 2534 2950 1734 
C 2950 934 2541 403 1939 403 
z
" transform="scale(0.015625)"/>
      <path id="NotoSansCJKjp-Regular-47" d="M 211 3002 
L 685 3002 
L 685 0 
L 1267 0 
L 1267 3002 
L 2003 3002 
L 2003 3475 
L 1267 3475 
L 1267 4026 
C 1267 4474 1427 4710 1760 4710 
C 1882 4710 2022 4678 2150 4614 
L 2278 5069 
C 2118 5133 1914 5178 1696 5178 
C 1005 5178 685 4736 685 4032 
L 685 3475 
L 211 3443 
L 211 3002 
z
" transform="scale(0.015625)"/>
      <path id="NotoSansCJKjp-Regular-43" d="M 2118 -83 
C 2912 -83 3629 602 3629 1792 
C 3629 2867 3142 3565 2246 3565 
C 1856 3565 1472 3347 1152 3078 
L 1178 3699 
L 1178 5094 
L 589 5094 
L 589 0 
L 1056 0 
L 1107 358 
L 1133 358 
C 1434 83 1798 -83 2118 -83 
z
M 2022 410 
C 1792 410 1478 499 1178 768 
L 1178 2598 
C 1504 2906 1811 3072 2099 3072 
C 2765 3072 3021 2560 3021 1786 
C 3021 928 2598 410 2022 410 
z
" transform="scale(0.015625)"/>
     </defs>
     <use xlink:href="#NotoSansCJKjp-Regular-42"/>
     <use xlink:href="#NotoSansCJKjp-Regular-4e" transform="translate(56.296875 0)"/>
     <use xlink:href="#NotoSansCJKjp-Regular-50" transform="translate(148.890625 0)"/>
     <use xlink:href="#NotoSansCJKjp-Regular-56" transform="translate(209.484375 0)"/>
     <use xlink:href="#NotoSansCJKjp-Regular-4f" transform="translate(270.1875 0)"/>
     <use xlink:href="#NotoSansCJKjp-Regular-55" transform="translate(331.1875 0)"/>
     <use xlink:href="#NotoSansCJKjp-Regular-1" transform="translate(368.890625 0)"/>
     <use xlink:href="#NotoSansCJKjp-Regular-50" transform="translate(391.296875 0)"/>
     <use xlink:href="#NotoSansCJKjp-Regular-47" transform="translate(451.890625 0)"/>
     <use xlink:href="#NotoSansCJKjp-Regular-1" transform="translate(484.390625 0)"/>
     <use xlink:href="#NotoSansCJKjp-Regular-54" transform="translate(506.796875 0)"/>
     <use xlink:href="#NotoSansCJKjp-Regular-56" transform="translate(553.59375 0)"/>
     <use xlink:href="#NotoSansCJKjp-Regular-43" transform="translate(614.296875 0)"/>
     <use xlink:href="#NotoSansCJKjp-Regular-54" transform="translate(676.09375 0)"/>
     <use xlink:href="#NotoSansCJKjp-Regular-55" transform="translate(720.6875 0)"/>
     <use xlink:href="#NotoSansCJKjp-Regular-42" transform="translate(755.984375 0)"/>
     <use xlink:href="#NotoSansCJKjp-Regular-4f" transform="translate(812.28125 0)"/>
     <use xlink:href="#NotoSansCJKjp-Regular-44" transform="translate(873.28125 0)"/>
     <use xlink:href="#NotoSansCJKjp-Regular-46" transform="translate(921.875 0)"/>
    </g>
   </g>
   <g id="text_13">
    <!-- 發光強度 -->
    <g style="fill: #9a6700" transform="translate(34.069775 322.188983) scale(0.13 -0.13)">
     <defs>
      <path id="NotoSansCJKjp-Regular-6c29" d="M 3270 3456 
L 3270 2957 
C 3270 2643 3181 2298 2669 2022 
C 2758 1965 2918 1805 2982 1722 
C 3552 2048 3680 2528 3680 2944 
L 3680 3072 
L 4550 3072 
L 4550 2490 
C 4550 2182 4582 2086 4666 2010 
C 4755 1933 4896 1907 5018 1907 
C 5088 1907 5261 1907 5338 1907 
C 5421 1907 5549 1920 5619 1946 
C 5702 1971 5773 2016 5811 2093 
C 5850 2163 5869 2349 5882 2515 
C 5766 2547 5613 2624 5530 2694 
C 5523 2534 5517 2419 5504 2362 
C 5485 2310 5459 2285 5427 2272 
C 5408 2259 5344 2259 5293 2259 
C 5235 2259 5146 2259 5101 2259 
C 5050 2259 5018 2266 4998 2278 
C 4973 2304 4966 2362 4966 2458 
L 4966 3309 
C 5254 3149 5562 3014 5888 2912 
C 5952 3034 6080 3200 6176 3296 
C 5786 3398 5421 3552 5088 3744 
C 5382 3936 5715 4198 5984 4442 
L 5632 4691 
C 5421 4467 5056 4166 4768 3949 
C 4595 4070 4442 4198 4294 4339 
C 4589 4544 4941 4826 5216 5082 
L 4864 5331 
C 4666 5114 4333 4819 4051 4602 
C 3853 4838 3680 5101 3552 5376 
L 3168 5254 
C 3507 4518 4045 3898 4730 3456 
L 3270 3456 
z
M 4947 1248 
C 4787 954 4570 710 4307 512 
C 4026 717 3802 966 3654 1248 
L 4947 1248 
z
M 3034 1600 
L 3034 1248 
L 3526 1248 
L 3264 1171 
C 3424 826 3654 525 3942 275 
C 3565 70 3130 -77 2669 -160 
C 2746 -256 2835 -416 2880 -518 
C 3398 -403 3878 -230 4288 19 
C 4685 -230 5165 -410 5715 -512 
C 5773 -390 5901 -211 5997 -109 
C 5498 -38 5043 96 4672 288 
C 5037 602 5331 998 5510 1510 
L 5242 1613 
L 5165 1600 
L 3034 1600 
z
M 717 4346 
C 960 4192 1254 3968 1434 3789 
C 1043 3520 608 3315 179 3181 
C 262 3098 384 2931 442 2822 
C 659 2899 877 2989 1088 3098 
L 1088 3046 
L 2221 3046 
L 2221 2374 
L 922 2374 
C 845 1907 717 1306 614 922 
L 1011 851 
L 1056 1030 
L 2202 1030 
C 2131 346 2061 45 1958 -51 
C 1907 -96 1843 -102 1722 -102 
C 1594 -102 1248 -102 890 -64 
C 973 -179 1024 -352 1037 -480 
C 1382 -499 1722 -499 1894 -493 
C 2086 -480 2208 -448 2317 -333 
C 2490 -173 2566 237 2650 1210 
C 2662 1274 2669 1402 2669 1402 
L 1139 1402 
L 1261 1997 
L 2221 1997 
L 2221 1894 
L 2650 1894 
L 2650 3430 
L 1658 3430 
C 2234 3821 2726 4333 3008 4973 
L 2707 5126 
L 2630 5107 
L 883 5107 
L 883 4710 
L 2374 4710 
C 2214 4467 2003 4237 1766 4038 
C 1581 4218 1261 4448 992 4602 
L 717 4346 
z
" transform="scale(0.015625)"/>
      <path id="NotoSansCJKjp-Regular-2a5e" d="M 883 4902 
C 1210 4397 1530 3725 1638 3302 
L 2106 3482 
C 1984 3917 1645 4570 1318 5062 
L 883 4902 
z
M 5088 5133 
C 4909 4627 4557 3917 4282 3482 
L 4691 3322 
C 4973 3738 5318 4397 5587 4954 
L 5088 5133 
z
M 2938 5376 
L 2938 2931 
L 352 2931 
L 352 2477 
L 2061 2477 
C 1958 1261 1715 352 218 -102 
C 326 -198 467 -390 518 -512 
C 2131 19 2451 1069 2566 2477 
L 3757 2477 
L 3757 205 
C 3757 -346 3910 -499 4486 -499 
C 4602 -499 5286 -499 5414 -499 
C 5958 -499 6086 -224 6144 826 
C 6010 864 5805 947 5696 1030 
C 5670 109 5632 -45 5376 -45 
C 5222 -45 4659 -45 4538 -45 
C 4288 -45 4237 -6 4237 205 
L 4237 2477 
L 6067 2477 
L 6067 2931 
L 3424 2931 
L 3424 5376 
L 2938 5376 
z
" transform="scale(0.015625)"/>
      <path id="NotoSansCJKjp-Regular-435a" d="M 2586 2970 
L 2586 1248 
L 3981 1248 
L 3981 192 
C 3341 147 2752 109 2304 83 
L 2368 -390 
C 3213 -326 4442 -224 5626 -122 
C 5722 -288 5792 -435 5843 -570 
L 6259 -365 
C 6099 45 5683 646 5293 1088 
L 4902 902 
C 5062 717 5222 506 5370 294 
L 4442 224 
L 4442 1248 
L 5869 1248 
L 5869 2970 
L 4442 2970 
L 4442 3674 
L 5523 3750 
C 5626 3603 5709 3469 5766 3354 
L 6189 3578 
C 5990 3942 5549 4486 5146 4877 
L 4755 4685 
C 4909 4525 5075 4339 5229 4147 
L 3450 4051 
C 3686 4416 3936 4864 4147 5261 
L 3635 5395 
C 3475 4992 3194 4435 2938 4032 
L 2394 4006 
L 2464 3546 
L 3981 3642 
L 3981 2970 
L 2586 2970 
z
M 3027 2566 
L 3981 2566 
L 3981 1658 
L 3027 1658 
L 3027 2566 
z
M 4442 2566 
L 5408 2566 
L 5408 1658 
L 4442 1658 
L 4442 2566 
z
M 486 3635 
C 454 3021 365 2208 282 1709 
L 710 1632 
L 749 1926 
L 1715 1926 
C 1651 640 1581 141 1459 19 
C 1402 -45 1344 -58 1229 -51 
C 1114 -51 806 -51 486 -26 
C 570 -154 621 -352 634 -493 
C 947 -512 1254 -512 1421 -493 
C 1613 -480 1728 -442 1843 -301 
C 2022 -90 2099 518 2176 2138 
C 2182 2202 2182 2349 2182 2349 
L 800 2349 
L 883 3194 
L 2176 3194 
L 2176 5043 
L 371 5043 
L 371 4608 
L 1715 4608 
L 1715 3635 
L 486 3635 
z
" transform="scale(0.015625)"/>
     </defs>
     <use xlink:href="#NotoSansCJKjp-Regular-6c29"/>
     <use xlink:href="#NotoSansCJKjp-Regular-2a5e" transform="translate(100 0)"/>
     <use xlink:href="#NotoSansCJKjp-Regular-435a" transform="translate(200 0)"/>
     <use xlink:href="#NotoSansCJKjp-Regular-4231" transform="translate(300 0)"/>
    </g>
   </g>
   <g id="text_14">
    <!-- luminous intensity -->
    <g style="fill: #888888" transform="translate(66.027573 320.761925) scale(0.085 -0.085)">
     <defs>
      <path id="NotoSansCJKjp-Regular-5a" d="M 646 -1498 
C 1338 -1498 1702 -973 1946 -294 
L 3251 3475 
L 2682 3475 
L 2054 1549 
C 1965 1235 1862 883 1773 563 
L 1741 563 
C 1619 890 1504 1242 1395 1549 
L 691 3475 
L 83 3475 
L 1478 -6 
L 1402 -269 
C 1254 -698 1011 -1018 621 -1018 
C 525 -1018 422 -986 352 -960 
L 237 -1427 
C 346 -1472 486 -1498 646 -1498 
z
" transform="scale(0.015625)"/>
     </defs>
     <use xlink:href="#NotoSansCJKjp-Regular-4d"/>
     <use xlink:href="#NotoSansCJKjp-Regular-56" transform="translate(28.40625 0)"/>
     <use xlink:href="#NotoSansCJKjp-Regular-4e" transform="translate(89.109375 0)"/>
     <use xlink:href="#NotoSansCJKjp-Regular-4a" transform="translate(181.703125 0)"/>
     <use xlink:href="#NotoSansCJKjp-Regular-4f" transform="translate(209.203125 0)"/>
     <use xlink:href="#NotoSansCJKjp-Regular-50" transform="translate(270.203125 0)"/>
     <use xlink:href="#NotoSansCJKjp-Regular-56" transform="translate(330.796875 0)"/>
     <use xlink:href="#NotoSansCJKjp-Regular-54" transform="translate(391.5 0)"/>
     <use xlink:href="#NotoSansCJKjp-Regular-1" transform="translate(438.296875 0)"/>
     <use xlink:href="#NotoSansCJKjp-Regular-4a" transform="translate(460.703125 0)"/>
     <use xlink:href="#NotoSansCJKjp-Regular-4f" transform="translate(488.203125 0)"/>
     <use xlink:href="#NotoSansCJKjp-Regular-55" transform="translate(549.203125 0)"/>
     <use xlink:href="#NotoSansCJKjp-Regular-46" transform="translate(585.40625 0)"/>
     <use xlink:href="#NotoSansCJKjp-Regular-4f" transform="translate(640.8125 0)"/>
     <use xlink:href="#NotoSansCJKjp-Regular-54" transform="translate(701.8125 0)"/>
     <use xlink:href="#NotoSansCJKjp-Regular-4a" transform="translate(748.609375 0)"/>
     <use xlink:href="#NotoSansCJKjp-Regular-55" transform="translate(776.109375 0)"/>
     <use xlink:href="#NotoSansCJKjp-Regular-5a" transform="translate(813.8125 0)"/>
    </g>
   </g>
   <g id="text_15">
    <!-- 基本物理量 -->
    <g style="fill: #222831" transform="translate(51.470785 60.066853) scale(0.13 -0.13)">
     <defs>
      <path id="NotoSansCJKjp-Bold-34f9" d="M 4218 5434 
L 4218 4954 
L 2202 4954 
L 2202 5440 
L 1434 5440 
L 1434 4954 
L 550 4954 
L 550 4333 
L 1434 4333 
L 1434 2413 
L 205 2413 
L 205 1786 
L 1440 1786 
C 1088 1446 621 1152 147 979 
C 307 838 531 570 640 397 
C 998 557 1350 781 1664 1056 
L 1664 646 
L 2797 646 
L 2797 230 
L 781 230 
L 781 -397 
L 5683 -397 
L 5683 230 
L 3578 230 
L 3578 646 
L 4749 646 
L 4749 1120 
C 5056 845 5408 614 5760 454 
C 5869 634 6099 909 6266 1043 
C 5811 1203 5363 1478 5011 1786 
L 6195 1786 
L 6195 2413 
L 5005 2413 
L 5005 4333 
L 5882 4333 
L 5882 4954 
L 5005 4954 
L 5005 5434 
L 4218 5434 
z
M 2202 4333 
L 4218 4333 
L 4218 4058 
L 2202 4058 
L 2202 4333 
z
M 2202 3520 
L 4218 3520 
L 4218 3238 
L 2202 3238 
L 2202 3520 
z
M 2202 2701 
L 4218 2701 
L 4218 2413 
L 2202 2413 
L 2202 2701 
z
M 2797 1658 
L 2797 1254 
L 1875 1254 
C 2048 1421 2202 1600 2330 1786 
L 4147 1786 
C 4282 1600 4435 1421 4608 1254 
L 3578 1254 
L 3578 1658 
L 2797 1658 
z
" transform="scale(0.015625)"/>
      <path id="NotoSansCJKjp-Bold-5116" d="M 2790 5434 
L 2790 4192 
L 378 4192 
L 378 3411 
L 2336 3411 
C 1837 2419 1024 1498 122 1005 
C 301 851 550 557 685 365 
C 1043 589 1376 870 1690 1190 
L 1690 512 
L 2790 512 
L 2790 -576 
L 3603 -576 
L 3603 512 
L 4666 512 
L 4666 1248 
C 4986 909 5338 621 5715 390 
C 5850 608 6118 922 6310 1082 
C 5389 1568 4570 2451 4064 3411 
L 6035 3411 
L 6035 4192 
L 3603 4192 
L 3603 5434 
L 2790 5434 
z
M 2790 1293 
L 1786 1293 
C 2163 1702 2502 2176 2790 2694 
L 2790 1293 
z
M 3603 1293 
L 3603 2707 
C 3891 2182 4237 1709 4627 1293 
L 3603 1293 
z
" transform="scale(0.015625)"/>
      <path id="NotoSansCJKjp-Bold-64fb" d="M 3302 5440 
C 3110 4493 2752 3571 2246 3014 
C 2406 2918 2701 2701 2822 2579 
C 3072 2893 3302 3283 3494 3731 
L 3821 3731 
C 3533 2797 3034 1843 2394 1344 
C 2598 1235 2842 1056 2989 915 
C 3635 1523 4179 2682 4454 3731 
L 4762 3731 
C 4429 2227 3789 762 2765 26 
C 2976 -83 3245 -275 3386 -422 
C 4422 429 5088 2106 5408 3731 
L 5434 3731 
C 5331 1421 5216 544 5050 339 
C 4973 243 4915 218 4819 218 
C 4698 218 4480 218 4243 243 
C 4365 32 4442 -288 4454 -506 
C 4736 -518 5005 -518 5184 -486 
C 5402 -442 5536 -371 5690 -154 
C 5933 173 6048 1222 6170 4096 
C 6176 4186 6182 4442 6182 4442 
L 3763 4442 
C 3853 4723 3936 5011 4000 5306 
L 3302 5440 
z
M 474 5069 
C 422 4314 314 3514 109 2995 
C 256 2918 538 2746 653 2650 
C 742 2880 826 3162 896 3469 
L 1318 3469 
L 1318 2240 
C 890 2118 486 2016 173 1946 
L 358 1210 
L 1318 1498 
L 1318 -576 
L 2022 -576 
L 2022 1709 
L 2714 1926 
L 2618 2598 
L 2022 2432 
L 2022 3469 
L 2560 3469 
L 2560 4198 
L 2022 4198 
L 2022 5434 
L 1318 5434 
L 1318 4198 
L 1024 4198 
C 1062 4454 1094 4710 1120 4966 
L 474 5069 
z
" transform="scale(0.015625)"/>
      <path id="NotoSansCJKjp-Bold-677c" d="M 3290 3373 
L 3949 3373 
L 3949 2829 
L 3290 2829 
L 3290 3373 
z
M 4595 3373 
L 5222 3373 
L 5222 2829 
L 4595 2829 
L 4595 3373 
z
M 3290 4518 
L 3949 4518 
L 3949 3981 
L 3290 3981 
L 3290 4518 
z
M 4595 4518 
L 5222 4518 
L 5222 3981 
L 4595 3981 
L 4595 4518 
z
M 2106 326 
L 2106 -371 
L 6240 -371 
L 6240 326 
L 4666 326 
L 4666 934 
L 6022 934 
L 6022 1626 
L 4666 1626 
L 4666 2176 
L 5958 2176 
L 5958 5165 
L 2592 5165 
L 2592 2176 
L 3878 2176 
L 3878 1626 
L 2554 1626 
L 2554 934 
L 3878 934 
L 3878 326 
L 2106 326 
z
M 154 794 
L 326 13 
C 941 211 1715 467 2426 710 
L 2291 1440 
L 1670 1242 
L 1670 2522 
L 2246 2522 
L 2246 3226 
L 1670 3226 
L 1670 4358 
L 2355 4358 
L 2355 5069 
L 230 5069 
L 230 4358 
L 934 4358 
L 934 3226 
L 288 3226 
L 288 2522 
L 934 2522 
L 934 1018 
L 154 794 
z
" transform="scale(0.015625)"/>
      <path id="NotoSansCJKjp-Bold-a108" d="M 1843 4262 
L 4506 4262 
L 4506 4045 
L 1843 4045 
L 1843 4262 
z
M 1843 4851 
L 4506 4851 
L 4506 4634 
L 1843 4634 
L 1843 4851 
z
M 1107 5242 
L 1107 3654 
L 5280 3654 
L 5280 5242 
L 1107 5242 
z
M 294 3462 
L 294 2912 
L 6125 2912 
L 6125 3462 
L 294 3462 
z
M 1709 1709 
L 2822 1709 
L 2822 1485 
L 1709 1485 
L 1709 1709 
z
M 3565 1709 
L 4685 1709 
L 4685 1485 
L 3565 1485 
L 3565 1709 
z
M 1709 2317 
L 2822 2317 
L 2822 2093 
L 1709 2093 
L 1709 2317 
z
M 3565 2317 
L 4685 2317 
L 4685 2093 
L 3565 2093 
L 3565 2317 
z
M 282 141 
L 282 -416 
L 6138 -416 
L 6138 141 
L 3565 141 
L 3565 378 
L 5562 378 
L 5562 864 
L 3565 864 
L 3565 1075 
L 5440 1075 
L 5440 2720 
L 992 2720 
L 992 1075 
L 2822 1075 
L 2822 864 
L 858 864 
L 858 378 
L 2822 378 
L 2822 141 
L 282 141 
z
" transform="scale(0.015625)"/>
     </defs>
     <use xlink:href="#NotoSansCJKjp-Bold-34f9"/>
     <use xlink:href="#NotoSansCJKjp-Bold-5116" transform="translate(100 0)"/>
     <use xlink:href="#NotoSansCJKjp-Bold-64fb" transform="translate(200 0)"/>
     <use xlink:href="#NotoSansCJKjp-Bold-677c" transform="translate(300 0)"/>
     <use xlink:href="#NotoSansCJKjp-Bold-a108" transform="translate(400 0)"/>
    </g>
   </g>
   <g id="text_16">
    <!-- SI 基本單位 -->
    <g style="fill: #222831" transform="translate(219.189402 60.066853) scale(0.13 -0.13)">
     <defs>
      <path id="NotoSansCJKjp-Bold-34" d="M 1997 -90 
C 3091 -90 3738 570 3738 1344 
C 3738 2029 3360 2400 2784 2637 
L 2163 2886 
C 1760 3053 1427 3174 1427 3514 
C 1427 3827 1683 4013 2099 4013 
C 2496 4013 2810 3866 3110 3622 
L 3590 4211 
C 3206 4602 2656 4826 2099 4826 
C 1146 4826 461 4224 461 3456 
C 461 2765 947 2381 1427 2189 
L 2054 1914 
C 2477 1734 2771 1626 2771 1274 
C 2771 941 2509 730 2016 730 
C 1600 730 1146 941 813 1254 
L 269 602 
C 730 154 1363 -90 1997 -90 
z
" transform="scale(0.015625)"/>
      <path id="NotoSansCJKjp-Bold-2a" d="M 582 0 
L 1530 0 
L 1530 4742 
L 582 4742 
L 582 0 
z
" transform="scale(0.015625)"/>
      <path id="NotoSansCJKjp-Bold-1" transform="scale(0.015625)"/>
      <path id="NotoSansCJKjp-Bold-3132" d="M 1395 4730 
L 2298 4730 
L 2298 4358 
L 1395 4358 
L 1395 4730 
z
M 717 5184 
L 717 3898 
L 3021 3898 
L 3021 5184 
L 717 5184 
z
M 4083 4730 
L 4998 4730 
L 4998 4358 
L 4083 4358 
L 4083 4730 
z
M 3398 5184 
L 3398 3898 
L 5722 3898 
L 5722 5184 
L 3398 5184 
z
M 1696 2163 
L 2778 2163 
L 2778 1824 
L 1696 1824 
L 1696 2163 
z
M 3571 2163 
L 4723 2163 
L 4723 1824 
L 3571 1824 
L 3571 2163 
z
M 1696 3059 
L 2778 3059 
L 2778 2714 
L 1696 2714 
L 1696 3059 
z
M 3571 3059 
L 4723 3059 
L 4723 2714 
L 3571 2714 
L 3571 3059 
z
M 339 902 
L 339 237 
L 2778 237 
L 2778 -576 
L 3571 -576 
L 3571 237 
L 6074 237 
L 6074 902 
L 3571 902 
L 3571 1235 
L 5517 1235 
L 5517 3648 
L 947 3648 
L 947 1235 
L 2778 1235 
L 2778 902 
L 339 902 
z
" transform="scale(0.015625)"/>
      <path id="NotoSansCJKjp-Bold-26e3" d="M 2650 3142 
C 2848 2317 3014 1254 3034 621 
L 3789 781 
C 3750 1414 3558 2451 3341 3258 
L 2650 3142 
z
M 2202 4282 
L 2202 3552 
L 6099 3552 
L 6099 4282 
L 4486 4282 
L 4486 5350 
L 3712 5350 
L 3712 4282 
L 2202 4282 
z
M 2074 422 
L 2074 -301 
L 6234 -301 
L 6234 422 
L 4934 422 
C 5178 1171 5446 2227 5638 3168 
L 4806 3302 
C 4691 2394 4435 1203 4186 422 
L 2074 422 
z
M 1632 5421 
C 1280 4512 685 3616 77 3046 
C 205 2854 416 2432 486 2246 
C 666 2426 838 2624 1011 2848 
L 1011 -557 
L 1741 -557 
L 1741 3942 
C 1971 4346 2182 4768 2349 5184 
L 1632 5421 
z
" transform="scale(0.015625)"/>
     </defs>
     <use xlink:href="#NotoSansCJKjp-Bold-34"/>
     <use xlink:href="#NotoSansCJKjp-Bold-2a" transform="translate(62.40625 0)"/>
     <use xlink:href="#NotoSansCJKjp-Bold-1" transform="translate(95.40625 0)"/>
     <use xlink:href="#NotoSansCJKjp-Bold-34f9" transform="translate(118.109375 0)"/>
     <use xlink:href="#NotoSansCJKjp-Bold-5116" transform="translate(218.109375 0)"/>
     <use xlink:href="#NotoSansCJKjp-Bold-3132" transform="translate(318.109375 0)"/>
     <use xlink:href="#NotoSansCJKjp-Bold-26e3" transform="translate(418.109375 0)"/>
    </g>
   </g>
   <g id="text_17">
    <!-- 符號 -->
    <g style="fill: #222831" transform="translate(324.314375 60.066853) scale(0.13 -0.13)">
     <defs>
      <path id="NotoSansCJKjp-Bold-745e" d="M 2477 1632 
C 2739 1242 3098 717 3264 403 
L 3904 794 
C 3725 1101 3354 1606 3085 1971 
L 2477 1632 
z
M 4570 3507 
L 4570 2893 
L 2278 2893 
L 2278 2195 
L 4570 2195 
L 4570 294 
C 4570 192 4531 166 4410 160 
C 4288 154 3859 160 3482 173 
C 3584 -32 3693 -352 3725 -570 
C 4282 -570 4691 -550 4966 -442 
C 5242 -326 5325 -128 5325 282 
L 5325 2195 
L 6054 2195 
L 6054 2893 
L 5325 2893 
L 5325 3507 
L 4570 3507 
z
M 3706 5472 
C 3571 5050 3354 4627 3091 4282 
L 3091 4890 
L 1683 4890 
C 1741 5018 1792 5152 1837 5280 
L 1101 5472 
C 902 4858 544 4224 141 3834 
C 326 3738 640 3533 787 3418 
C 986 3642 1184 3930 1363 4250 
L 1472 4250 
C 1606 3987 1754 3686 1843 3482 
L 1581 3571 
C 1261 2893 710 2221 166 1798 
C 314 1638 563 1293 659 1133 
C 826 1280 998 1446 1165 1632 
L 1165 -570 
L 1901 -570 
L 1901 2611 
C 2054 2848 2189 3091 2304 3328 
L 1920 3456 
L 2541 3674 
C 2470 3827 2355 4045 2234 4250 
L 3066 4250 
C 2957 4115 2848 3987 2726 3885 
C 2906 3789 3219 3578 3366 3462 
C 3571 3674 3770 3942 3955 4250 
L 4243 4250 
C 4403 4006 4589 3718 4678 3533 
L 5350 3808 
C 5280 3923 5171 4090 5056 4250 
L 6067 4250 
L 6067 4890 
L 4282 4890 
C 4339 5024 4390 5158 4435 5293 
L 3706 5472 
z
" transform="scale(0.015625)"/>
      <path id="NotoSansCJKjp-Bold-8c1b" d="M 1139 4614 
L 1734 4614 
L 1734 3923 
L 1139 3923 
L 1139 4614 
z
M 467 5222 
L 467 3309 
L 2445 3309 
L 2445 5222 
L 467 5222 
z
M 4730 1766 
L 4730 256 
C 4730 -122 4755 -230 4864 -339 
C 4966 -448 5139 -493 5306 -493 
C 5395 -493 5562 -493 5658 -493 
C 5786 -493 5933 -461 6016 -403 
C 6125 -333 6189 -243 6234 -109 
C 6278 19 6310 333 6323 640 
C 6144 698 5914 826 5792 934 
C 5792 666 5786 435 5766 346 
C 5754 282 5741 237 5715 218 
C 5696 198 5651 186 5613 186 
C 5574 186 5523 186 5491 186 
C 5453 186 5421 198 5402 224 
C 5382 243 5376 282 5376 314 
L 5376 1766 
L 4730 1766 
z
M 192 3008 
L 192 2349 
L 672 2349 
C 582 1914 474 1446 371 1114 
L 1056 998 
L 1139 1331 
L 1702 1331 
C 1651 563 1581 224 1491 128 
C 1427 70 1363 58 1267 64 
C 1152 64 902 64 640 90 
C 755 -96 838 -371 845 -570 
C 1146 -582 1427 -582 1594 -557 
C 1792 -538 1933 -480 2067 -326 
C 2246 -122 2330 416 2406 1690 
C 2413 1779 2419 1958 2419 1958 
L 1286 1958 
L 1363 2349 
L 2669 2349 
L 2669 3008 
L 192 3008 
z
M 3770 1766 
C 3744 954 3661 384 3117 19 
C 3437 819 3501 1805 3501 2541 
L 3501 3597 
L 4070 3597 
L 4070 3213 
L 3552 3168 
L 3616 2656 
L 4070 2701 
L 4070 2669 
C 4070 2131 4205 1971 4806 1971 
C 4922 1971 5299 1971 5427 1971 
C 5843 1971 6016 2112 6080 2611 
C 5901 2643 5645 2733 5517 2816 
C 5498 2547 5466 2502 5344 2502 
C 5261 2502 4973 2502 4909 2502 
C 4762 2502 4736 2522 4736 2675 
L 4736 2758 
L 5357 2816 
L 5299 3322 
L 4736 3270 
L 4736 3597 
L 5536 3597 
C 5510 3379 5478 3162 5453 3008 
L 6029 2874 
C 6112 3194 6202 3686 6272 4122 
L 5786 4224 
L 5683 4205 
L 4755 4205 
L 4755 4486 
L 5990 4486 
L 5990 5088 
L 4755 5088 
L 4755 5440 
L 4019 5440 
L 4019 4205 
L 2816 4205 
L 2816 2541 
C 2816 1715 2765 602 2227 -179 
C 2381 -256 2675 -467 2797 -595 
C 2899 -448 2989 -282 3066 -109 
C 3213 -243 3373 -461 3437 -614 
C 4230 -134 4378 672 4416 1766 
L 3770 1766 
z
" transform="scale(0.015625)"/>
     </defs>
     <use xlink:href="#NotoSansCJKjp-Bold-745e"/>
     <use xlink:href="#NotoSansCJKjp-Bold-8c1b" transform="translate(100 0)"/>
    </g>
   </g>
   <g id="text_18">
    <!-- 公尺 -->
    <g style="fill: #222831" transform="translate(240.366512 103.202246) scale(0.125 -0.125)">
     <defs>
      <path id="NotoSansCJKjp-Regular-2a9c" d="M 2029 5190 
C 1651 4243 1018 3322 320 2746 
C 448 2669 678 2496 774 2400 
C 1459 3034 2131 4013 2560 5043 
L 2029 5190 
z
M 4314 5190 
L 3846 4998 
C 4333 4096 5139 3014 5728 2400 
C 5824 2528 6003 2714 6138 2810 
C 5542 3347 4742 4358 4314 5190 
z
M 3904 1651 
C 4211 1293 4538 858 4826 442 
L 2003 320 
C 2426 1075 2893 2086 3238 2912 
L 2675 3059 
C 2394 2214 1894 1082 1459 294 
L 576 269 
L 640 -237 
C 1792 -186 3501 -102 5126 -6 
C 5248 -205 5357 -384 5440 -544 
L 5920 -282 
C 5600 301 4947 1197 4358 1869 
L 3904 1651 
z
" transform="scale(0.015625)"/>
      <path id="NotoSansCJKjp-Regular-3db8" d="M 1139 5069 
L 1139 3258 
C 1139 2208 1062 800 211 -198 
C 320 -256 525 -435 608 -538 
C 1338 314 1568 1530 1632 2554 
L 3290 2554 
C 3699 1056 4467 -13 5798 -499 
C 5869 -358 6016 -166 6131 -58 
C 4896 326 4147 1280 3782 2554 
L 5510 2554 
L 5510 5069 
L 1139 5069 
z
M 1651 4595 
L 5018 4595 
L 5018 3021 
L 1651 3021 
L 1651 3258 
L 1651 4595 
z
" transform="scale(0.015625)"/>
     </defs>
     <use xlink:href="#NotoSansCJKjp-Regular-2a9c"/>
     <use xlink:href="#NotoSansCJKjp-Regular-3db8" transform="translate(100 0)"/>
    </g>
   </g>
   <g id="text_19">
    <!-- m -->
    <g style="fill: #1f6feb" transform="translate(331.288984 103.202246) scale(0.125 -0.125)">
     <defs>
      <path id="NotoSansCJKjp-Bold-4e" d="M 506 0 
L 1446 0 
L 1446 2464 
C 1696 2739 1926 2867 2131 2867 
C 2477 2867 2637 2675 2637 2118 
L 2637 0 
L 3571 0 
L 3571 2464 
C 3827 2739 4058 2867 4262 2867 
C 4602 2867 4762 2675 4762 2118 
L 4762 0 
L 5696 0 
L 5696 2234 
C 5696 3136 5350 3674 4589 3674 
C 4128 3674 3776 3392 3443 3046 
C 3277 3443 2976 3674 2464 3674 
C 1997 3674 1664 3418 1363 3104 
L 1344 3104 
L 1274 3584 
L 506 3584 
L 506 0 
z
" transform="scale(0.015625)"/>
     </defs>
     <use xlink:href="#NotoSansCJKjp-Bold-4e"/>
    </g>
   </g>
   <g id="text_20">
    <!-- 公斤 -->
    <g style="fill: #222831" transform="translate(240.366512 139.668368) scale(0.125 -0.125)">
     <defs>
      <path id="NotoSansCJKjp-Regular-4e76" d="M 5069 5318 
C 4250 5062 2803 4858 1510 4730 
L 1114 4826 
L 1114 2963 
C 1114 1997 1030 736 198 -179 
C 320 -243 512 -410 576 -512 
C 1376 390 1562 1626 1594 2605 
L 3648 2605 
L 3648 -512 
L 4147 -512 
L 4147 2605 
L 6125 2605 
L 6125 3072 
L 1600 3072 
L 1600 4301 
C 2938 4422 4467 4627 5485 4922 
L 5069 5318 
z
" transform="scale(0.015625)"/>
     </defs>
     <use xlink:href="#NotoSansCJKjp-Regular-2a9c"/>
     <use xlink:href="#NotoSansCJKjp-Regular-4e76" transform="translate(100 0)"/>
    </g>
   </g>
   <g id="text_21">
    <!-- kg -->
    <g style="fill: #d1242f" transform="translate(329.882734 138.899814) scale(0.125 -0.125)">
     <defs>
      <path id="NotoSansCJKjp-Bold-4c" d="M 506 0 
L 1434 0 
L 1434 909 
L 1933 1491 
L 2803 0 
L 3827 0 
L 2483 2106 
L 3712 3584 
L 2682 3584 
L 1459 2048 
L 1434 2048 
L 1434 5107 
L 506 5107 
L 506 0 
z
" transform="scale(0.015625)"/>
      <path id="NotoSansCJKjp-Bold-48" d="M 1766 -1555 
C 2963 -1555 3718 -1005 3718 -282 
C 3718 346 3245 614 2381 614 
L 1766 614 
C 1350 614 1203 717 1203 902 
C 1203 1056 1267 1133 1357 1216 
C 1517 1158 1683 1133 1818 1133 
C 2592 1133 3206 1536 3206 2349 
C 3206 2573 3136 2771 3046 2893 
L 3654 2893 
L 3654 3584 
L 2368 3584 
C 2214 3635 2029 3674 1818 3674 
C 1062 3674 378 3219 378 2381 
C 378 1958 608 1619 858 1440 
L 858 1414 
C 640 1261 461 1011 461 749 
C 461 448 595 262 787 141 
L 787 109 
C 448 -77 275 -333 275 -634 
C 275 -1267 922 -1555 1766 -1555 
z
M 1818 1715 
C 1510 1715 1261 1952 1261 2381 
C 1261 2797 1504 3027 1818 3027 
C 2138 3027 2387 2797 2387 2381 
C 2387 1952 2138 1715 1818 1715 
z
M 1907 -954 
C 1389 -954 1056 -787 1056 -493 
C 1056 -339 1126 -198 1286 -70 
C 1421 -102 1568 -115 1779 -115 
L 2221 -115 
C 2605 -115 2816 -186 2816 -442 
C 2816 -717 2451 -954 1907 -954 
z
" transform="scale(0.015625)"/>
     </defs>
     <use xlink:href="#NotoSansCJKjp-Bold-4c"/>
     <use xlink:href="#NotoSansCJKjp-Bold-48" transform="translate(59.203125 0)"/>
    </g>
   </g>
   <g id="text_22">
    <!-- 秒 -->
    <g style="fill: #222831" transform="translate(246.616512 176.134491) scale(0.125 -0.125)">
     <defs>
      <path id="NotoSansCJKjp-Regular-71ae" d="M 4160 5370 
L 4160 1997 
C 4160 1920 4128 1894 4045 1888 
C 3962 1888 3693 1888 3392 1894 
C 3462 1766 3533 1562 3558 1434 
C 3987 1427 4243 1446 4410 1523 
C 4582 1606 4640 1741 4640 1990 
L 4640 5370 
L 4160 5370 
z
M 3206 4307 
C 3072 3590 2842 2880 2502 2413 
C 2624 2362 2829 2246 2918 2182 
C 3238 2675 3507 3450 3661 4224 
L 3206 4307 
z
M 5037 4205 
C 5370 3629 5664 2848 5760 2342 
L 6202 2490 
C 6093 3002 5792 3763 5446 4346 
L 5037 4205 
z
M 5331 2227 
C 4947 947 4064 243 2496 -70 
C 2598 -186 2714 -365 2765 -506 
C 4429 -109 5370 685 5792 2106 
L 5331 2227 
z
M 2310 5286 
C 1837 5069 992 4883 275 4762 
C 333 4659 397 4499 416 4397 
C 717 4435 1037 4493 1357 4557 
L 1357 3571 
L 314 3571 
L 314 3123 
L 1293 3123 
C 1037 2387 595 1555 179 1101 
C 262 986 378 794 429 659 
C 755 1056 1094 1690 1357 2336 
L 1357 -499 
L 1830 -499 
L 1830 2259 
C 2048 1990 2304 1645 2413 1466 
L 2701 1843 
C 2573 1990 2016 2566 1830 2726 
L 1830 3123 
L 2630 3123 
L 2630 3571 
L 1830 3571 
L 1830 4666 
C 2131 4736 2413 4819 2643 4915 
L 2310 5286 
z
" transform="scale(0.015625)"/>
     </defs>
     <use xlink:href="#NotoSansCJKjp-Regular-71ae"/>
    </g>
   </g>
   <g id="text_23">
    <!-- s -->
    <g style="fill: #1a7f37" transform="translate(334.220625 176.134491) scale(0.125 -0.125)">
     <defs>
      <path id="NotoSansCJKjp-Bold-54" d="M 1530 -90 
C 2458 -90 2957 410 2957 1043 
C 2957 1702 2432 1946 1958 2125 
C 1574 2266 1248 2362 1248 2624 
C 1248 2829 1402 2970 1728 2970 
C 1990 2970 2240 2842 2496 2662 
L 2918 3232 
C 2624 3462 2221 3674 1702 3674 
C 883 3674 365 3219 365 2579 
C 365 1978 870 1702 1325 1530 
C 1702 1382 2074 1261 2074 992 
C 2074 768 1914 614 1555 614 
C 1216 614 915 762 595 1005 
L 166 410 
C 525 115 1050 -90 1530 -90 
z
" transform="scale(0.015625)"/>
     </defs>
     <use xlink:href="#NotoSansCJKjp-Bold-54"/>
    </g>
   </g>
   <g id="text_24">
    <!-- 安培 -->
    <g style="fill: #222831" transform="translate(240.366512 212.600614) scale(0.125 -0.125)">
     <defs>
      <path id="NotoSansCJKjp-Regular-3c66" d="M 544 4698 
L 544 3322 
L 1030 3322 
L 1030 4250 
L 5382 4250 
L 5382 3322 
L 5888 3322 
L 5888 4698 
L 3437 4698 
L 3437 5382 
L 2931 5382 
L 2931 4698 
L 544 4698 
z
M 365 2925 
L 365 2470 
L 1939 2470 
C 1638 1901 1331 1344 1082 941 
L 1581 806 
L 1741 1088 
C 2150 960 2579 806 3002 640 
C 2368 256 1542 38 512 -90 
C 608 -198 755 -410 800 -525 
C 1920 -346 2829 -64 3520 429 
C 4256 115 4934 -224 5382 -525 
L 5741 -128 
C 5286 160 4634 480 3923 768 
C 4358 1197 4678 1747 4877 2470 
L 6048 2470 
L 6048 2925 
L 2714 2925 
L 3174 3853 
L 2682 3962 
C 2534 3648 2355 3290 2170 2925 
L 365 2925 
z
M 2483 2470 
L 4333 2470 
C 4154 1824 3859 1331 3437 960 
C 2931 1152 2419 1325 1946 1466 
L 2483 2470 
z
" transform="scale(0.015625)"/>
      <path id="NotoSansCJKjp-Regular-34f7" d="M 2118 2989 
L 2118 2554 
L 6157 2554 
L 6157 2989 
L 2118 2989 
z
M 5062 4166 
C 4986 3853 4819 3392 4698 3117 
L 5107 2995 
C 5242 3258 5402 3667 5549 4032 
L 5062 4166 
z
M 2918 4038 
C 3066 3712 3194 3283 3219 2995 
L 3674 3117 
C 3642 3398 3507 3827 3347 4141 
L 2918 4038 
z
M 3942 5363 
L 3942 4614 
L 2342 4614 
L 2342 4179 
L 6035 4179 
L 6035 4614 
L 4422 4614 
L 4422 5363 
L 3942 5363 
z
M 2707 1946 
L 2707 -506 
L 3162 -506 
L 3162 -179 
L 5254 -179 
L 5254 -486 
L 5734 -486 
L 5734 1946 
L 2707 1946 
z
M 3162 262 
L 3162 1510 
L 5254 1510 
L 5254 262 
L 3162 262 
z
M 218 986 
L 378 506 
C 966 736 1734 1043 2458 1350 
L 2362 1792 
L 1568 1485 
L 1568 3379 
L 2278 3379 
L 2278 3834 
L 1568 3834 
L 1568 5331 
L 1107 5331 
L 1107 3834 
L 333 3834 
L 333 3379 
L 1107 3379 
L 1107 1312 
L 218 986 
z
" transform="scale(0.015625)"/>
     </defs>
     <use xlink:href="#NotoSansCJKjp-Regular-3c66"/>
     <use xlink:href="#NotoSansCJKjp-Regular-34f7" transform="translate(100 0)"/>
    </g>
   </g>
   <g id="text_25">
    <!-- A -->
    <g style="fill: #bf8700" transform="translate(333.308516 212.600614) scale(0.125 -0.125)">
     <defs>
      <path id="NotoSansCJKjp-Bold-22" d="M -26 0 
L 934 0 
L 1267 1216 
L 2797 1216 
L 3130 0 
L 4128 0 
L 2611 4742 
L 1491 4742 
L -26 0 
z
M 1472 1952 
L 1613 2470 
C 1754 2963 1888 3501 2016 4019 
L 2042 4019 
C 2182 3514 2310 2963 2458 2470 
L 2598 1952 
L 1472 1952 
z
" transform="scale(0.015625)"/>
     </defs>
     <use xlink:href="#NotoSansCJKjp-Bold-22"/>
    </g>
   </g>
   <g id="text_26">
    <!-- 克耳文 -->
    <g style="fill: #222831" transform="translate(234.116512 249.066737) scale(0.125 -0.125)">
     <defs>
      <path id="NotoSansCJKjp-Regular-2a61" d="M 1619 3149 
L 4787 3149 
L 4787 2118 
L 1619 2118 
L 1619 3149 
z
M 2938 5382 
L 2938 4736 
L 448 4736 
L 448 4294 
L 2938 4294 
L 2938 3578 
L 1152 3578 
L 1152 1683 
L 2157 1683 
C 2022 781 1690 205 275 -83 
C 378 -186 512 -397 557 -525 
C 2112 -154 2522 563 2669 1683 
L 3622 1683 
L 3622 224 
C 3622 -301 3782 -448 4384 -448 
C 4512 -448 5267 -448 5402 -448 
C 5946 -448 6080 -211 6138 755 
C 6003 794 5798 870 5690 954 
C 5664 128 5626 13 5363 13 
C 5190 13 4563 13 4435 13 
C 4160 13 4115 38 4115 230 
L 4115 1683 
L 5280 1683 
L 5280 3578 
L 3424 3578 
L 3424 4294 
L 5978 4294 
L 5978 4736 
L 3424 4736 
L 3424 5382 
L 2938 5382 
z
" transform="scale(0.015625)"/>
      <path id="NotoSansCJKjp-Regular-7e70" d="M 307 659 
L 371 154 
L 4493 442 
L 4493 -506 
L 5005 -506 
L 5005 480 
L 6054 563 
L 6067 1024 
L 5005 947 
L 5005 4525 
L 6003 4525 
L 6003 5005 
L 416 5005 
L 416 4525 
L 1414 4525 
L 1414 717 
L 307 659 
z
M 1920 4525 
L 4493 4525 
L 4493 3584 
L 1920 3584 
L 1920 4525 
z
M 1920 3136 
L 4493 3136 
L 4493 2176 
L 1920 2176 
L 1920 3136 
z
M 1920 1722 
L 4493 1722 
L 4493 915 
L 1920 749 
L 1920 1722 
z
" transform="scale(0.015625)"/>
      <path id="NotoSansCJKjp-Regular-4e43" d="M 2944 5376 
L 2944 4288 
L 320 4288 
L 320 3821 
L 1274 3821 
C 1638 2797 2138 1920 2803 1216 
C 2118 653 1274 237 250 -58 
C 346 -173 499 -403 557 -518 
C 1594 -186 2458 262 3162 864 
C 3878 230 4755 -237 5824 -512 
C 5907 -378 6061 -154 6176 -45 
C 5133 198 4262 640 3558 1229 
C 4230 1914 4742 2758 5120 3821 
L 6106 3821 
L 6106 4288 
L 3437 4288 
L 3437 5376 
L 2944 5376 
z
M 3187 1574 
C 2579 2195 2118 2950 1798 3821 
L 4563 3821 
C 4230 2912 3782 2170 3187 1574 
z
" transform="scale(0.015625)"/>
     </defs>
     <use xlink:href="#NotoSansCJKjp-Regular-2a61"/>
     <use xlink:href="#NotoSansCJKjp-Regular-7e70" transform="translate(100 0)"/>
     <use xlink:href="#NotoSansCJKjp-Regular-4e43" transform="translate(200 0)"/>
    </g>
   </g>
   <g id="text_27">
    <!-- K -->
    <g style="fill: #8250df" transform="translate(333.027266 249.066737) scale(0.125 -0.125)">
     <defs>
      <path id="NotoSansCJKjp-Bold-2c" d="M 582 0 
L 1530 0 
L 1530 1331 
L 2150 2131 
L 3379 0 
L 4416 0 
L 2714 2874 
L 4160 4742 
L 3117 4742 
L 1549 2682 
L 1530 2682 
L 1530 4742 
L 582 4742 
L 582 0 
z
" transform="scale(0.015625)"/>
     </defs>
     <use xlink:href="#NotoSansCJKjp-Bold-2c"/>
    </g>
   </g>
   <g id="text_28">
    <!-- 莫耳 -->
    <g style="fill: #222831" transform="translate(240.366512 285.53286) scale(0.125 -0.125)">
     <defs>
      <path id="NotoSansCJKjp-Regular-85cb" d="M 1542 2675 
L 4896 2675 
L 4896 2144 
L 1542 2144 
L 1542 2675 
z
M 1542 3539 
L 4896 3539 
L 4896 3021 
L 1542 3021 
L 1542 3539 
z
M 1088 3904 
L 1088 1779 
L 2976 1779 
C 2944 1594 2906 1421 2848 1267 
L 365 1267 
L 365 845 
L 2637 845 
C 2291 352 1619 58 237 -96 
C 320 -192 422 -397 461 -518 
C 2086 -301 2822 128 3174 845 
L 3213 845 
C 3725 51 4621 -358 5875 -512 
C 5939 -378 6054 -186 6163 -83 
C 5056 13 4211 301 3731 845 
L 6042 845 
L 6042 1267 
L 3334 1267 
C 3379 1427 3418 1594 3443 1779 
L 5363 1779 
L 5363 3904 
L 1088 3904 
z
M 403 4947 
L 403 4512 
L 1824 4512 
L 1824 4013 
L 2291 4013 
L 2291 4512 
L 4096 4512 
L 4096 4006 
L 4563 4006 
L 4563 4512 
L 6016 4512 
L 6016 4947 
L 4563 4947 
L 4563 5370 
L 4096 5370 
L 4096 4947 
L 2291 4947 
L 2291 5376 
L 1824 5376 
L 1824 4947 
L 403 4947 
z
" transform="scale(0.015625)"/>
     </defs>
     <use xlink:href="#NotoSansCJKjp-Regular-85cb"/>
     <use xlink:href="#NotoSansCJKjp-Regular-7e70" transform="translate(100 0)"/>
    </g>
   </g>
   <g id="text_29">
    <!-- mol -->
    <g style="fill: #0e7490" transform="translate(325.408125 285.53286) scale(0.125 -0.125)">
     <defs>
      <path id="NotoSansCJKjp-Bold-50" d="M 2003 -90 
C 2899 -90 3725 602 3725 1792 
C 3725 2982 2899 3674 2003 3674 
C 1101 3674 282 2982 282 1792 
C 282 602 1101 -90 2003 -90 
z
M 2003 678 
C 1510 678 1242 1114 1242 1792 
C 1242 2464 1510 2906 2003 2906 
C 2490 2906 2765 2464 2765 1792 
C 2765 1114 2490 678 2003 678 
z
" transform="scale(0.015625)"/>
      <path id="NotoSansCJKjp-Bold-4d" d="M 1395 -90 
C 1613 -90 1766 -51 1875 -6 
L 1760 691 
C 1696 678 1670 678 1632 678 
C 1542 678 1446 749 1446 966 
L 1446 5107 
L 506 5107 
L 506 1005 
C 506 339 736 -90 1395 -90 
z
" transform="scale(0.015625)"/>
     </defs>
     <use xlink:href="#NotoSansCJKjp-Bold-4e"/>
     <use xlink:href="#NotoSansCJKjp-Bold-50" transform="translate(96.40625 0)"/>
     <use xlink:href="#NotoSansCJKjp-Bold-4d" transform="translate(159 0)"/>
    </g>
   </g>
   <g id="text_30">
    <!-- 燭光 -->
    <g style="fill: #222831" transform="translate(240.366512 321.998983) scale(0.125 -0.125)">
     <defs>
      <path id="NotoSansCJKjp-Regular-6405" d="M 4915 4819 
L 5613 4819 
L 5613 4128 
L 4915 4128 
L 4915 4819 
z
M 3878 4819 
L 4557 4819 
L 4557 4128 
L 3878 4128 
L 3878 4819 
z
M 2867 4819 
L 3526 4819 
L 3526 4128 
L 2867 4128 
L 2867 4819 
z
M 595 4064 
C 582 3475 474 2854 230 2509 
L 531 2310 
C 826 2714 922 3386 934 4013 
L 595 4064 
z
M 2054 4314 
C 1958 3910 1760 3315 1613 2950 
L 1901 2822 
C 2074 3168 2272 3712 2445 4160 
L 2054 4314 
z
M 3558 2278 
L 2502 2272 
L 2502 1101 
L 3558 1101 
L 3558 448 
L 2266 339 
L 2349 -51 
C 2989 19 3866 102 4710 198 
C 4755 115 4787 38 4806 -32 
L 4563 -13 
C 4640 -141 4685 -339 4685 -474 
C 4941 -493 5190 -493 5331 -474 
C 5504 -454 5606 -403 5709 -256 
C 5888 -26 5946 762 6016 3021 
C 6022 3085 6022 3245 6022 3245 
L 3245 3245 
C 3347 3418 3437 3597 3520 3776 
L 6029 3776 
L 6029 5165 
L 2464 5165 
L 2464 3776 
L 3034 3776 
C 2778 3232 2381 2720 1946 2381 
C 2048 2310 2227 2163 2304 2086 
L 2502 2272 
C 2669 2438 2835 2637 2989 2848 
L 5574 2848 
C 5510 909 5440 218 5318 58 
C 5267 -19 5216 -38 5120 -38 
L 4851 -32 
L 5165 83 
C 5075 333 4838 723 4614 1005 
L 4282 902 
C 4371 794 4454 659 4531 531 
L 3949 480 
L 3949 1101 
L 5024 1101 
L 5024 2278 
L 3949 2278 
L 3949 2714 
L 3558 2714 
L 3558 2278 
z
M 2874 1965 
L 3558 1965 
L 3558 1414 
L 2874 1414 
L 2874 1965 
z
M 3949 1965 
L 4640 1965 
L 4640 1414 
L 3949 1414 
L 3949 1965 
z
M 1165 5299 
L 1165 3123 
C 1165 1958 1069 755 237 -186 
C 333 -256 486 -416 557 -506 
C 1050 38 1306 659 1446 1312 
C 1670 1005 1946 614 2067 403 
L 2387 736 
C 2259 909 1722 1600 1523 1824 
C 1574 2253 1587 2688 1587 3123 
L 1587 5299 
L 1165 5299 
z
" transform="scale(0.015625)"/>
     </defs>
     <use xlink:href="#NotoSansCJKjp-Regular-6405"/>
     <use xlink:href="#NotoSansCJKjp-Regular-2a5e" transform="translate(100 0)"/>
    </g>
   </g>
   <g id="text_31">
    <!-- cd -->
    <g style="fill: #9a6700" transform="translate(330.182539 321.998983) scale(0.125 -0.125)">
     <defs>
      <path id="NotoSansCJKjp-Bold-44" d="M 2029 -90 
C 2426 -90 2861 45 3200 346 
L 2829 966 
C 2630 800 2394 678 2131 678 
C 1613 678 1242 1114 1242 1792 
C 1242 2464 1613 2906 2163 2906 
C 2362 2906 2528 2822 2707 2675 
L 3155 3270 
C 2893 3507 2554 3674 2112 3674 
C 1139 3674 282 2982 282 1792 
C 282 602 1043 -90 2029 -90 
z
" transform="scale(0.015625)"/>
      <path id="NotoSansCJKjp-Bold-45" d="M 1766 -90 
C 2138 -90 2496 109 2758 371 
L 2784 371 
L 2854 0 
L 3622 0 
L 3622 5107 
L 2682 5107 
L 2682 3846 
L 2714 3283 
C 2458 3520 2208 3674 1805 3674 
C 1037 3674 301 2957 301 1792 
C 301 614 870 -90 1766 -90 
z
M 2010 685 
C 1536 685 1267 1056 1267 1805 
C 1267 2515 1606 2899 2010 2899 
C 2240 2899 2464 2829 2682 2630 
L 2682 1056 
C 2477 787 2259 685 2010 685 
z
" transform="scale(0.015625)"/>
     </defs>
     <use xlink:href="#NotoSansCJKjp-Bold-44"/>
     <use xlink:href="#NotoSansCJKjp-Bold-45" transform="translate(49.703125 0)"/>
    </g>
   </g>
   <g id="text_32">
    <!-- 國際單位制（SI）的七個基本量與基本單位 -->
    <g style="fill: #222831" transform="translate(66.904618 19.52) scale(0.14 -0.14)">
     <defs>
      <path id="NotoSansCJKjp-Regular-339c" d="M 4000 4326 
C 4250 4205 4544 4013 4691 3866 
L 4922 4122 
C 4774 4269 4474 4448 4224 4557 
L 4000 4326 
z
M 1267 1184 
L 1338 813 
C 1869 915 2547 1050 3219 1184 
L 3200 1523 
C 2483 1389 1760 1261 1267 1184 
z
M 1901 2733 
L 2637 2733 
L 2637 2080 
L 1901 2080 
L 1901 2733 
z
M 1562 3027 
L 1562 1786 
L 2989 1786 
L 2989 3027 
L 1562 3027 
z
M 3226 4486 
L 3277 3795 
L 1331 3795 
L 1331 3437 
L 3309 3437 
C 3379 2707 3488 2042 3661 1530 
C 3392 1190 3066 909 2688 691 
C 2778 621 2918 467 2970 390 
C 3283 595 3571 838 3821 1126 
C 3994 781 4205 557 4486 499 
C 4826 378 5050 627 5139 1331 
C 5050 1370 4902 1472 4819 1555 
C 4781 1133 4717 864 4627 883 
C 4416 915 4243 1139 4102 1485 
C 4416 1926 4653 2451 4819 3059 
L 4429 3136 
C 4320 2701 4160 2304 3949 1958 
C 3846 2374 3763 2886 3712 3437 
L 5082 3437 
L 5082 3795 
L 3680 3795 
L 3635 4486 
L 3226 4486 
z
M 525 5082 
L 525 -531 
L 986 -531 
L 986 -230 
L 5402 -230 
L 5402 -531 
L 5875 -531 
L 5875 5082 
L 525 5082 
z
M 986 205 
L 986 4640 
L 5402 4640 
L 5402 205 
L 986 205 
z
" transform="scale(0.015625)"/>
      <path id="NotoSansCJKjp-Regular-a900" d="M 4826 909 
C 5146 550 5504 51 5658 -269 
L 6042 -51 
C 5888 275 5517 755 5190 1107 
L 4826 909 
z
M 2720 1088 
C 2547 666 2246 256 1920 -26 
C 2029 -83 2208 -205 2291 -275 
C 2605 38 2938 506 3142 973 
L 2720 1088 
z
M 4333 5248 
L 3949 5171 
L 4051 4762 
C 4275 3955 4608 3264 5082 2746 
L 3059 2746 
C 3507 3251 3859 3930 4051 4762 
L 3782 4864 
L 3706 4845 
L 3040 4845 
C 3104 4986 3155 5133 3206 5280 
L 2816 5363 
C 2605 4678 2208 4045 1722 3635 
C 1811 3578 1978 3456 2042 3386 
L 2234 3584 
C 2451 3430 2669 3245 2816 3091 
C 2560 2790 2272 2541 1965 2374 
C 2054 2298 2176 2150 2234 2054 
C 2490 2208 2733 2400 2957 2637 
L 2957 2342 
L 5120 2342 
L 5120 2707 
C 5350 2458 5619 2253 5920 2093 
C 5984 2208 6112 2374 6208 2458 
C 5837 2630 5517 2886 5254 3206 
C 5574 3603 5888 4192 6074 4736 
L 5798 4890 
L 5722 4870 
L 4678 4870 
L 4678 4506 
L 5530 4506 
C 5402 4173 5216 3802 5018 3526 
C 4698 4013 4474 4602 4333 5248 
z
M 2381 1798 
L 2381 1389 
L 3821 1389 
L 3821 -6 
C 3821 -70 3802 -96 3718 -96 
C 3635 -102 3354 -102 3046 -96 
C 3104 -211 3174 -384 3200 -499 
C 3622 -506 3885 -499 4058 -435 
C 4230 -365 4275 -243 4275 -6 
L 4275 1389 
L 5747 1389 
L 5747 1798 
L 2381 1798 
z
M 3558 4499 
C 3501 4307 3430 4122 3347 3942 
C 3200 4070 2976 4211 2778 4320 
L 2874 4499 
L 3558 4499 
z
M 3206 3654 
C 3142 3546 3072 3437 3002 3334 
C 2854 3482 2630 3654 2426 3802 
L 2624 4077 
C 2829 3949 3053 3789 3206 3654 
z
M 506 5101 
L 506 -512 
L 934 -512 
L 934 4666 
L 1581 4666 
C 1478 4224 1331 3629 1178 3155 
C 1549 2630 1626 2176 1626 1818 
C 1626 1619 1594 1421 1517 1357 
C 1478 1318 1421 1299 1357 1299 
C 1280 1293 1184 1293 1082 1306 
C 1146 1190 1178 1011 1178 896 
C 1293 896 1421 896 1517 909 
C 1632 922 1734 960 1811 1024 
C 1958 1139 2022 1421 2022 1766 
C 2022 2176 1939 2656 1574 3200 
C 1747 3725 1933 4410 2086 4947 
L 1786 5120 
L 1722 5101 
L 506 5101 
z
" transform="scale(0.015625)"/>
      <path id="NotoSansCJKjp-Regular-3132" d="M 1280 4800 
L 2502 4800 
L 2502 4198 
L 1280 4198 
L 1280 4800 
z
M 845 5126 
L 845 3878 
L 2957 3878 
L 2957 5126 
L 845 5126 
z
M 3904 4800 
L 5152 4800 
L 5152 4198 
L 3904 4198 
L 3904 4800 
z
M 3475 5126 
L 3475 3878 
L 5606 3878 
L 5606 5126 
L 3475 5126 
z
M 1485 2253 
L 2931 2253 
L 2931 1696 
L 1485 1696 
L 1485 2253 
z
M 3430 2253 
L 4966 2253 
L 4966 1696 
L 3430 1696 
L 3430 2253 
z
M 1485 3168 
L 2931 3168 
L 2931 2618 
L 1485 2618 
L 1485 3168 
z
M 3430 3168 
L 4966 3168 
L 4966 2618 
L 3430 2618 
L 3430 3168 
z
M 371 819 
L 371 390 
L 2931 390 
L 2931 -512 
L 3430 -512 
L 3430 390 
L 6048 390 
L 6048 819 
L 3430 819 
L 3430 1306 
L 5453 1306 
L 5453 3552 
L 1011 3552 
L 1011 1306 
L 2931 1306 
L 2931 819 
L 371 819 
z
" transform="scale(0.015625)"/>
      <path id="NotoSansCJKjp-Regular-26e3" d="M 2630 3155 
C 2867 2304 3066 1190 3110 544 
L 3578 646 
C 3526 1280 3302 2381 3059 3232 
L 2630 3155 
z
M 2106 4115 
L 2106 3661 
L 6016 3661 
L 6016 4115 
L 4250 4115 
L 4250 5299 
L 3770 5299 
L 3770 4115 
L 2106 4115 
z
M 1946 243 
L 1946 -211 
L 6176 -211 
L 6176 243 
L 4634 243 
C 4928 1043 5261 2246 5485 3194 
L 4966 3283 
C 4800 2362 4461 1056 4166 243 
L 1946 243 
z
M 1773 5357 
C 1395 4390 774 3443 128 2835 
C 211 2720 352 2470 397 2355 
C 640 2598 877 2880 1107 3194 
L 1107 -493 
L 1568 -493 
L 1568 3891 
C 1818 4314 2048 4762 2227 5216 
L 1773 5357 
z
" transform="scale(0.015625)"/>
      <path id="NotoSansCJKjp-Regular-2bc6" d="M 4326 4787 
L 4326 1242 
L 4781 1242 
L 4781 4787 
L 4326 4787 
z
M 5466 5312 
L 5466 147 
C 5466 45 5434 13 5338 13 
C 5216 6 4858 6 4480 19 
C 4544 -128 4614 -352 4640 -486 
C 5120 -486 5472 -474 5664 -397 
C 5862 -307 5939 -166 5939 154 
L 5939 5312 
L 5466 5312 
z
M 909 5222 
C 774 4602 557 3962 262 3533 
C 384 3488 595 3405 691 3354 
C 800 3539 909 3763 1011 4013 
L 1850 4013 
L 1850 3341 
L 288 3341 
L 288 2899 
L 1850 2899 
L 1850 2246 
L 582 2246 
L 582 13 
L 1018 13 
L 1018 1811 
L 1850 1811 
L 1850 -506 
L 2310 -506 
L 2310 1811 
L 3200 1811 
L 3200 499 
C 3200 429 3181 410 3110 410 
C 3040 403 2829 403 2560 416 
C 2618 294 2675 122 2694 -6 
C 3046 -6 3296 0 3443 70 
C 3603 147 3642 269 3642 486 
L 3642 2246 
L 2310 2246 
L 2310 2899 
L 3866 2899 
L 3866 3341 
L 2310 3341 
L 2310 4013 
L 3616 4013 
L 3616 4454 
L 2310 4454 
L 2310 5350 
L 1850 5350 
L 1850 4454 
L 1171 4454 
C 1242 4672 1306 4902 1357 5133 
L 909 5222 
z
" transform="scale(0.015625)"/>
      <path id="NotoSansCJKjp-Regular-e6ae" d="M 4448 2432 
C 4448 1184 4954 166 5722 -614 
L 6106 -416 
C 5370 346 4915 1293 4915 2432 
C 4915 3571 5370 4518 6106 5280 
L 5722 5478 
C 4954 4698 4448 3680 4448 2432 
z
" transform="scale(0.015625)"/>
      <path id="NotoSansCJKjp-Regular-34" d="M 1946 -83 
C 2925 -83 3539 506 3539 1248 
C 3539 1946 3117 2266 2573 2502 
L 1907 2790 
C 1542 2944 1126 3117 1126 3578 
C 1126 3994 1472 4256 2003 4256 
C 2438 4256 2784 4090 3072 3821 
L 3379 4198 
C 3053 4538 2560 4774 2003 4774 
C 1152 4774 525 4256 525 3533 
C 525 2848 1043 2515 1478 2330 
L 2150 2035 
C 2598 1837 2938 1683 2938 1197 
C 2938 742 2573 435 1952 435 
C 1466 435 992 666 659 1018 
L 307 608 
C 710 186 1280 -83 1946 -83 
z
" transform="scale(0.015625)"/>
      <path id="NotoSansCJKjp-Regular-2a" d="M 646 0 
L 1235 0 
L 1235 4691 
L 646 4691 
L 646 0 
z
" transform="scale(0.015625)"/>
      <path id="NotoSansCJKjp-Regular-e6af" d="M 1952 2432 
C 1952 3680 1446 4698 678 5478 
L 294 5280 
C 1030 4518 1485 3571 1485 2432 
C 1485 1293 1030 346 294 -416 
L 678 -614 
C 1446 166 1952 1184 1952 2432 
z
" transform="scale(0.015625)"/>
      <path id="NotoSansCJKjp-Regular-6c33" d="M 3533 2707 
C 3885 2240 4320 1600 4512 1210 
L 4922 1466 
C 4710 1843 4269 2464 3904 2918 
L 3533 2707 
z
M 1536 5389 
C 1485 5082 1376 4659 1274 4346 
L 557 4346 
L 557 -346 
L 998 -346 
L 998 160 
L 2784 160 
L 2784 4346 
L 1715 4346 
C 1824 4621 1946 4979 2054 5299 
L 1536 5389 
z
M 998 3917 
L 2342 3917 
L 2342 2566 
L 998 2566 
L 998 3917 
z
M 998 595 
L 998 2144 
L 2342 2144 
L 2342 595 
L 998 595 
z
M 3827 5402 
C 3622 4518 3277 3635 2835 3066 
C 2950 3002 3149 2867 3238 2790 
C 3456 3098 3661 3488 3840 3923 
L 5478 3923 
C 5402 1357 5299 371 5094 154 
C 5018 64 4947 45 4819 45 
C 4672 45 4288 51 3866 83 
C 3955 -38 4013 -243 4026 -378 
C 4384 -397 4762 -410 4979 -390 
C 5210 -365 5350 -314 5498 -122 
C 5754 192 5843 1184 5939 4122 
C 5946 4186 5946 4365 5946 4365 
L 4013 4365 
C 4115 4666 4211 4986 4288 5299 
L 3827 5402 
z
" transform="scale(0.015625)"/>
      <path id="NotoSansCJKjp-Regular-250d" d="M 2170 5267 
L 2170 3130 
L 314 2829 
L 397 2349 
L 2170 2630 
L 2170 691 
C 2170 -83 2406 -288 3206 -288 
C 3386 -288 4698 -288 4883 -288 
C 5670 -288 5830 83 5914 1139 
C 5773 1178 5555 1274 5421 1370 
C 5363 416 5299 192 4870 192 
C 4589 192 3450 192 3226 192 
C 2765 192 2682 282 2682 678 
L 2682 2714 
L 6106 3258 
L 6029 3750 
L 2682 3213 
L 2682 5267 
L 2170 5267 
z
" transform="scale(0.015625)"/>
      <path id="NotoSansCJKjp-Regular-2815" d="M 3533 2195 
L 4614 2195 
L 4614 1197 
L 3533 1197 
L 3533 2195 
z
M 2189 4992 
L 2189 -506 
L 2630 -506 
L 2630 -128 
L 5472 -128 
L 5472 -461 
L 5933 -461 
L 5933 4992 
L 2189 4992 
z
M 2630 307 
L 2630 4563 
L 5472 4563 
L 5472 307 
L 2630 307 
z
M 3162 2554 
L 3162 838 
L 4998 838 
L 4998 2554 
L 4256 2554 
L 4256 3258 
L 5254 3258 
L 5254 3629 
L 4256 3629 
L 4256 4358 
L 3866 4358 
L 3866 3629 
L 2899 3629 
L 2899 3258 
L 3866 3258 
L 3866 2554 
L 3162 2554 
z
M 1523 5344 
C 1203 4378 685 3411 109 2784 
C 192 2662 320 2400 365 2291 
C 582 2541 787 2829 986 3142 
L 986 -518 
L 1446 -518 
L 1446 3968 
C 1645 4371 1824 4794 1965 5216 
L 1523 5344 
z
" transform="scale(0.015625)"/>
      <path id="NotoSansCJKjp-Regular-34f9" d="M 4378 5370 
L 4378 4755 
L 2048 4755 
L 2048 5376 
L 1568 5376 
L 1568 4755 
L 589 4755 
L 589 4352 
L 1568 4352 
L 1568 2298 
L 294 2298 
L 294 1888 
L 1690 1888 
C 1318 1434 755 1030 230 819 
C 333 730 474 563 544 448 
C 1165 742 1818 1286 2214 1888 
L 4237 1888 
C 4627 1318 5254 787 5869 525 
C 5946 640 6086 813 6189 902 
C 5651 1094 5107 1466 4742 1888 
L 6112 1888 
L 6112 2298 
L 4864 2298 
L 4864 4352 
L 5830 4352 
L 5830 4755 
L 4864 4755 
L 4864 5370 
L 4378 5370 
z
M 2048 4352 
L 4378 4352 
L 4378 3923 
L 2048 3923 
L 2048 4352 
z
M 2944 1683 
L 2944 1146 
L 1632 1146 
L 1632 749 
L 2944 749 
L 2944 70 
L 794 70 
L 794 -339 
L 5645 -339 
L 5645 70 
L 3430 70 
L 3430 749 
L 4774 749 
L 4774 1146 
L 3430 1146 
L 3430 1683 
L 2944 1683 
z
M 2048 3565 
L 4378 3565 
L 4378 3117 
L 2048 3117 
L 2048 3565 
z
M 2048 2752 
L 4378 2752 
L 4378 2298 
L 2048 2298 
L 2048 2752 
z
" transform="scale(0.015625)"/>
      <path id="NotoSansCJKjp-Regular-5116" d="M 2944 5370 
L 2944 4026 
L 416 4026 
L 416 3539 
L 2643 3539 
C 2099 2438 1171 1402 198 896 
C 307 800 461 621 544 499 
C 1478 1050 2355 2016 2944 3130 
L 2944 1171 
L 1690 1171 
L 1690 685 
L 2944 685 
L 2944 -512 
L 3450 -512 
L 3450 685 
L 4672 685 
L 4672 1171 
L 3450 1171 
L 3450 3123 
C 4026 2016 4896 1043 5856 512 
C 5939 646 6106 838 6221 934 
C 5210 1427 4288 2438 3744 3539 
L 5997 3539 
L 5997 4026 
L 3450 4026 
L 3450 5370 
L 2944 5370 
z
" transform="scale(0.015625)"/>
      <path id="NotoSansCJKjp-Regular-8241" d="M 3795 563 
C 4480 218 5210 -211 5638 -531 
L 6093 -198 
C 5619 115 4845 544 4141 883 
L 3795 563 
z
M 2125 870 
C 1722 512 954 70 339 -186 
C 454 -275 621 -429 704 -525 
C 1306 -250 2067 179 2573 576 
L 2125 870 
z
M 288 1414 
L 288 966 
L 6131 966 
L 6131 1414 
L 5459 1414 
C 5517 2355 5549 3853 5555 4973 
L 4186 4973 
L 4186 4544 
L 5114 4544 
L 5107 3795 
L 4256 3795 
L 4256 3386 
L 5094 3386 
L 5069 2598 
L 4237 2598 
L 4237 2189 
L 5056 2189 
L 5011 1414 
L 3936 1414 
L 3936 3584 
L 2925 3584 
L 2925 4256 
L 4058 4256 
L 4058 4666 
L 2925 4666 
L 2925 5318 
L 2502 5318 
L 2502 3194 
L 3514 3194 
L 3514 1414 
L 2893 1414 
L 2893 2912 
L 2496 2912 
L 2496 1414 
L 1382 1414 
L 1357 2195 
L 2182 2195 
L 2182 2598 
L 1344 2598 
L 1318 3386 
L 2176 3386 
L 2176 3795 
L 1306 3795 
L 1280 4474 
C 1645 4614 2048 4800 2381 4973 
L 2003 5318 
C 1792 5171 1466 4986 1146 4832 
L 826 4928 
L 947 1414 
L 288 1414 
z
" transform="scale(0.015625)"/>
     </defs>
     <use xlink:href="#NotoSansCJKjp-Regular-339c"/>
     <use xlink:href="#NotoSansCJKjp-Regular-a900" transform="translate(100 0)"/>
     <use xlink:href="#NotoSansCJKjp-Regular-3132" transform="translate(200 0)"/>
     <use xlink:href="#NotoSansCJKjp-Regular-26e3" transform="translate(300 0)"/>
     <use xlink:href="#NotoSansCJKjp-Regular-2bc6" transform="translate(400 0)"/>
     <use xlink:href="#NotoSansCJKjp-Regular-e6ae" transform="translate(500 0)"/>
     <use xlink:href="#NotoSansCJKjp-Regular-34" transform="translate(600 0)"/>
     <use xlink:href="#NotoSansCJKjp-Regular-2a" transform="translate(659.59375 0)"/>
     <use xlink:href="#NotoSansCJKjp-Regular-e6af" transform="translate(688.890625 0)"/>
     <use xlink:href="#NotoSansCJKjp-Regular-6c33" transform="translate(788.890625 0)"/>
     <use xlink:href="#NotoSansCJKjp-Regular-250d" transform="translate(888.890625 0)"/>
     <use xlink:href="#NotoSansCJKjp-Regular-2815" transform="translate(988.890625 0)"/>
     <use xlink:href="#NotoSansCJKjp-Regular-34f9" transform="translate(1088.890625 0)"/>
     <use xlink:href="#NotoSansCJKjp-Regular-5116" transform="translate(1188.890625 0)"/>
     <use xlink:href="#NotoSansCJKjp-Regular-a108" transform="translate(1288.890625 0)"/>
     <use xlink:href="#NotoSansCJKjp-Regular-8241" transform="translate(1388.890625 0)"/>
     <use xlink:href="#NotoSansCJKjp-Regular-34f9" transform="translate(1488.890625 0)"/>
     <use xlink:href="#NotoSansCJKjp-Regular-5116" transform="translate(1588.890625 0)"/>
     <use xlink:href="#NotoSansCJKjp-Regular-3132" transform="translate(1688.890625 0)"/>
     <use xlink:href="#NotoSansCJKjp-Regular-26e3" transform="translate(1788.890625 0)"/>
    </g>
   </g>
  </g>
 </g>
 <defs>
  <clipPath id="p806ac60550">
   <rect x="7.2" y="25.52" width="383.853924" height="330.114375"/>
  </clipPath>
 </defs>
</svg>
