<?xml version="1.0" encoding="utf-8" standalone="no"?>
<!DOCTYPE svg PUBLIC "-//W3C//DTD SVG 1.1//EN"
  "http://www.w3.org/Graphics/SVG/1.1/DTD/svg11.dtd">
<svg xmlns:xlink="http://www.w3.org/1999/xlink" width="694.08pt" height="429.2pt" viewBox="0 0 694.08 429.2" xmlns="http://www.w3.org/2000/svg" version="1.1">
 <metadata>
  <rdf:RDF xmlns:dc="http://purl.org/dc/elements/1.1/" xmlns:cc="http://creativecommons.org/ns#" xmlns:rdf="http://www.w3.org/1999/02/22-rdf-syntax-ns#">
   <cc:Work>
    <dc:type rdf:resource="http://purl.org/dc/dcmitype/StillImage"/>
    <dc:date>2026-06-20T17:51:08.324127</dc:date>
    <dc:format>image/svg+xml</dc:format>
    <dc:creator>
     <cc:Agent>
      <dc:title>Matplotlib v3.11.0, https://matplotlib.org/</dc:title>
     </cc:Agent>
    </dc:creator>
   </cc:Work>
  </rdf:RDF>
 </metadata>
 <defs>
  <style type="text/css">*{stroke-linejoin: round; stroke-linecap: butt}</style>
 </defs>
 <g id="figure_1">
  <g id="patch_1">
   <path d="M 0 429.2 
L 694.08 429.2 
L 694.08 0 
L 0 0 
z
" style="fill: #ffffff"/>
  </g>
  <g id="axes_1">
   <g id="patch_2">
    <path d="M 75.168 181.28 
L 374.2272 181.28 
L 374.2272 150.128 
L 75.168 150.128 
z
" clip-path="url(#peb10bd2036)" style="fill: #1f6feb; opacity: 0.18; stroke: #1f6feb; stroke-width: 1.3; stroke-linejoin: miter"/>
   </g>
   <g id="line2d_1">
    <path d="M 374.2272 184.112 
L 374.2272 92.3552 
" clip-path="url(#peb10bd2036)" style="fill: none; stroke-dasharray: 4.44,1.92; stroke-dashoffset: 0; stroke: #d1242f; stroke-width: 1.2"/>
   </g>
   <g id="patch_3">
    <path d="M 75.168 144.464 
L 618.912 144.464 
L 618.912 116.144 
L 75.168 116.144 
z
" clip-path="url(#peb10bd2036)" style="fill: #fbf3d8; stroke: #222831; stroke-width: 1.4; stroke-linejoin: miter"/>
   </g>
   <g id="text_1">
    <!-- 11 -->
    <g style="fill: #222831" transform="translate(68.508 82.9856) scale(0.12 -0.12)">
     <defs>
      <path id="NotoSansCJKjp-Regular-12" d="M 563 0 
L 3136 0 
L 3136 486 
L 2195 486 
L 2195 4691 
L 1747 4691 
C 1491 4544 1190 4435 774 4358 
L 774 3987 
L 1613 3987 
L 1613 486 
L 563 486 
L 563 0 
z
" transform="scale(0.015625)"/>
     </defs>
     <use xlink:href="#NotoSansCJKjp-Regular-12"/>
     <use xlink:href="#NotoSansCJKjp-Regular-12" transform="translate(55.5 0)"/>
    </g>
   </g>
   <g id="text_2">
    <!-- 12 -->
    <g style="fill: #222831" transform="translate(249.756 82.9856) scale(0.12 -0.12)">
     <defs>
      <path id="NotoSansCJKjp-Regular-13" d="M 282 0 
L 3232 0 
L 3232 506 
L 1933 506 
C 1696 506 1408 480 1165 461 
C 2266 1504 3008 2458 3008 3398 
C 3008 4230 2477 4774 1638 4774 
C 1043 4774 634 4506 256 4090 
L 595 3757 
C 858 4070 1184 4301 1568 4301 
C 2150 4301 2432 3910 2432 3373 
C 2432 2566 1754 1632 282 346 
L 282 0 
z
" transform="scale(0.015625)"/>
     </defs>
     <use xlink:href="#NotoSansCJKjp-Regular-12"/>
     <use xlink:href="#NotoSansCJKjp-Regular-13" transform="translate(55.5 0)"/>
    </g>
   </g>
   <g id="text_3">
    <!-- 13 -->
    <g style="fill: #222831" transform="translate(431.004 82.9856) scale(0.12 -0.12)">
     <defs>
      <path id="NotoSansCJKjp-Regular-14" d="M 1683 -83 
C 2522 -83 3194 416 3194 1254 
C 3194 1901 2752 2310 2202 2445 
L 2202 2477 
C 2701 2650 3034 3034 3034 3603 
C 3034 4346 2458 4774 1664 4774 
C 1126 4774 710 4538 358 4218 
L 672 3846 
C 941 4115 1267 4301 1645 4301 
C 2138 4301 2438 4006 2438 3558 
C 2438 3053 2112 2662 1139 2662 
L 1139 2214 
C 2227 2214 2598 1843 2598 1274 
C 2598 736 2208 403 1645 403 
C 1114 403 762 659 486 941 
L 186 563 
C 493 224 954 -83 1683 -83 
z
" transform="scale(0.015625)"/>
     </defs>
     <use xlink:href="#NotoSansCJKjp-Regular-12"/>
     <use xlink:href="#NotoSansCJKjp-Regular-14" transform="translate(55.5 0)"/>
    </g>
   </g>
   <g id="text_4">
    <!-- 14 -->
    <g style="fill: #222831" transform="translate(612.252 82.9856) scale(0.12 -0.12)">
     <defs>
      <path id="NotoSansCJKjp-Regular-15" d="M 2176 0 
L 2726 0 
L 2726 1293 
L 3354 1293 
L 3354 1760 
L 2726 1760 
L 2726 4691 
L 2080 4691 
L 128 1677 
L 128 1293 
L 2176 1293 
L 2176 0 
z
M 2176 1760 
L 736 1760 
L 1805 3360 
C 1939 3590 2067 3827 2182 4051 
L 2208 4051 
C 2195 3814 2176 3430 2176 3200 
L 2176 1760 
z
" transform="scale(0.015625)"/>
     </defs>
     <use xlink:href="#NotoSansCJKjp-Regular-12"/>
     <use xlink:href="#NotoSansCJKjp-Regular-15" transform="translate(55.5 0)"/>
    </g>
   </g>
   <g id="line2d_2">
    <path d="M 93.2928 116.144 
L 93.2928 107.0816 
" clip-path="url(#peb10bd2036)" style="fill: none; stroke: #222831; stroke-width: 0.9; stroke-linecap: square"/>
   </g>
   <g id="line2d_3">
    <path d="M 111.4176 116.144 
L 111.4176 107.0816 
" clip-path="url(#peb10bd2036)" style="fill: none; stroke: #222831; stroke-width: 0.9; stroke-linecap: square"/>
   </g>
   <g id="line2d_4">
    <path d="M 129.5424 116.144 
L 129.5424 107.0816 
" clip-path="url(#peb10bd2036)" style="fill: none; stroke: #222831; stroke-width: 0.9; stroke-linecap: square"/>
   </g>
   <g id="line2d_5">
    <path d="M 147.6672 116.144 
L 147.6672 107.0816 
" clip-path="url(#peb10bd2036)" style="fill: none; stroke: #222831; stroke-width: 0.9; stroke-linecap: square"/>
   </g>
   <g id="line2d_6">
    <path d="M 165.792 116.144 
L 165.792 101.4176 
" clip-path="url(#peb10bd2036)" style="fill: none; stroke: #222831; stroke-width: 0.9; stroke-linecap: square"/>
   </g>
   <g id="line2d_7">
    <path d="M 183.9168 116.144 
L 183.9168 107.0816 
" clip-path="url(#peb10bd2036)" style="fill: none; stroke: #222831; stroke-width: 0.9; stroke-linecap: square"/>
   </g>
   <g id="line2d_8">
    <path d="M 202.0416 116.144 
L 202.0416 107.0816 
" clip-path="url(#peb10bd2036)" style="fill: none; stroke: #222831; stroke-width: 0.9; stroke-linecap: square"/>
   </g>
   <g id="line2d_9">
    <path d="M 220.1664 116.144 
L 220.1664 107.0816 
" clip-path="url(#peb10bd2036)" style="fill: none; stroke: #222831; stroke-width: 0.9; stroke-linecap: square"/>
   </g>
   <g id="line2d_10">
    <path d="M 238.2912 116.144 
L 238.2912 107.0816 
" clip-path="url(#peb10bd2036)" style="fill: none; stroke: #222831; stroke-width: 0.9; stroke-linecap: square"/>
   </g>
   <g id="line2d_11">
    <path d="M 274.5408 116.144 
L 274.5408 107.0816 
" clip-path="url(#peb10bd2036)" style="fill: none; stroke: #222831; stroke-width: 0.9; stroke-linecap: square"/>
   </g>
   <g id="line2d_12">
    <path d="M 292.6656 116.144 
L 292.6656 107.0816 
" clip-path="url(#peb10bd2036)" style="fill: none; stroke: #222831; stroke-width: 0.9; stroke-linecap: square"/>
   </g>
   <g id="line2d_13">
    <path d="M 310.7904 116.144 
L 310.7904 107.0816 
" clip-path="url(#peb10bd2036)" style="fill: none; stroke: #222831; stroke-width: 0.9; stroke-linecap: square"/>
   </g>
   <g id="line2d_14">
    <path d="M 328.9152 116.144 
L 328.9152 107.0816 
" clip-path="url(#peb10bd2036)" style="fill: none; stroke: #222831; stroke-width: 0.9; stroke-linecap: square"/>
   </g>
   <g id="line2d_15">
    <path d="M 347.04 116.144 
L 347.04 101.4176 
" clip-path="url(#peb10bd2036)" style="fill: none; stroke: #222831; stroke-width: 0.9; stroke-linecap: square"/>
   </g>
   <g id="line2d_16">
    <path d="M 365.1648 116.144 
L 365.1648 107.0816 
" clip-path="url(#peb10bd2036)" style="fill: none; stroke: #222831; stroke-width: 0.9; stroke-linecap: square"/>
   </g>
   <g id="line2d_17">
    <path d="M 383.2896 116.144 
L 383.2896 107.0816 
" clip-path="url(#peb10bd2036)" style="fill: none; stroke: #222831; stroke-width: 0.9; stroke-linecap: square"/>
   </g>
   <g id="line2d_18">
    <path d="M 401.4144 116.144 
L 401.4144 107.0816 
" clip-path="url(#peb10bd2036)" style="fill: none; stroke: #222831; stroke-width: 0.9; stroke-linecap: square"/>
   </g>
   <g id="line2d_19">
    <path d="M 419.5392 116.144 
L 419.5392 107.0816 
" clip-path="url(#peb10bd2036)" style="fill: none; stroke: #222831; stroke-width: 0.9; stroke-linecap: square"/>
   </g>
   <g id="line2d_20">
    <path d="M 455.7888 116.144 
L 455.7888 107.0816 
" clip-path="url(#peb10bd2036)" style="fill: none; stroke: #222831; stroke-width: 0.9; stroke-linecap: square"/>
   </g>
   <g id="line2d_21">
    <path d="M 473.9136 116.144 
L 473.9136 107.0816 
" clip-path="url(#peb10bd2036)" style="fill: none; stroke: #222831; stroke-width: 0.9; stroke-linecap: square"/>
   </g>
   <g id="line2d_22">
    <path d="M 492.0384 116.144 
L 492.0384 107.0816 
" clip-path="url(#peb10bd2036)" style="fill: none; stroke: #222831; stroke-width: 0.9; stroke-linecap: square"/>
   </g>
   <g id="line2d_23">
    <path d="M 510.1632 116.144 
L 510.1632 107.0816 
" clip-path="url(#peb10bd2036)" style="fill: none; stroke: #222831; stroke-width: 0.9; stroke-linecap: square"/>
   </g>
   <g id="line2d_24">
    <path d="M 528.288 116.144 
L 528.288 101.4176 
" clip-path="url(#peb10bd2036)" style="fill: none; stroke: #222831; stroke-width: 0.9; stroke-linecap: square"/>
   </g>
   <g id="line2d_25">
    <path d="M 546.4128 116.144 
L 546.4128 107.0816 
" clip-path="url(#peb10bd2036)" style="fill: none; stroke: #222831; stroke-width: 0.9; stroke-linecap: square"/>
   </g>
   <g id="line2d_26">
    <path d="M 564.5376 116.144 
L 564.5376 107.0816 
" clip-path="url(#peb10bd2036)" style="fill: none; stroke: #222831; stroke-width: 0.9; stroke-linecap: square"/>
   </g>
   <g id="line2d_27">
    <path d="M 582.6624 116.144 
L 582.6624 107.0816 
" clip-path="url(#peb10bd2036)" style="fill: none; stroke: #222831; stroke-width: 0.9; stroke-linecap: square"/>
   </g>
   <g id="line2d_28">
    <path d="M 600.7872 116.144 
L 600.7872 107.0816 
" clip-path="url(#peb10bd2036)" style="fill: none; stroke: #222831; stroke-width: 0.9; stroke-linecap: square"/>
   </g>
   <g id="text_5">
    <!-- cm -->
    <g style="fill: #222831" transform="translate(621.744 134.484) scale(0.11 -0.11)">
     <defs>
      <path id="NotoSansCJKjp-Regular-44" d="M 1958 -83 
C 2374 -83 2771 83 3085 352 
L 2829 749 
C 2611 557 2330 403 2010 403 
C 1370 403 934 934 934 1734 
C 934 2534 1395 3072 2029 3072 
C 2298 3072 2522 2950 2720 2771 
L 3014 3155 
C 2771 3373 2458 3565 2003 3565 
C 1107 3565 333 2893 333 1734 
C 333 582 1037 -83 1958 -83 
z
" transform="scale(0.015625)"/>
      <path id="NotoSansCJKjp-Regular-4e" d="M 589 0 
L 1178 0 
L 1178 2522 
C 1491 2880 1786 3053 2048 3053 
C 2490 3053 2694 2778 2694 2125 
L 2694 0 
L 3277 0 
L 3277 2522 
C 3603 2880 3885 3053 4154 3053 
C 4595 3053 4800 2778 4800 2125 
L 4800 0 
L 5382 0 
L 5382 2202 
C 5382 3085 5043 3565 4333 3565 
C 3904 3565 3546 3290 3181 2899 
C 3040 3309 2758 3565 2221 3565 
C 1805 3565 1446 3302 1139 2970 
L 1126 2970 
L 1069 3475 
L 589 3475 
L 589 0 
z
" transform="scale(0.015625)"/>
     </defs>
     <use xlink:href="#NotoSansCJKjp-Regular-44"/>
     <use xlink:href="#NotoSansCJKjp-Regular-4e" transform="translate(51 0)"/>
    </g>
   </g>
   <g id="text_6">
    <!-- 待測物 -->
    <g style="fill: #1f6feb" transform="translate(140.2296 170.1672) scale(0.11 -0.11)">
     <defs>
      <path id="NotoSansCJKjp-Regular-43e8" d="M 2656 1306 
C 2957 960 3283 480 3418 166 
L 3827 410 
C 3686 717 3347 1178 3053 1510 
L 2656 1306 
z
M 1632 5363 
C 1357 4909 781 4371 282 4045 
C 352 3949 480 3757 531 3648 
C 1094 4032 1709 4627 2080 5184 
L 1632 5363 
z
M 3878 5344 
L 3878 4544 
L 2470 4544 
L 2470 4109 
L 3878 4109 
L 3878 3296 
L 2093 3296 
L 2093 2854 
L 4781 2854 
L 4781 2138 
L 2170 2138 
L 2170 1696 
L 4781 1696 
L 4781 70 
C 4781 -13 4749 -45 4646 -45 
C 4544 -51 4186 -58 3802 -38 
C 3866 -173 3942 -371 3962 -499 
C 4461 -499 4787 -499 4992 -422 
C 5190 -346 5254 -211 5254 70 
L 5254 1696 
L 6112 1696 
L 6112 2138 
L 5254 2138 
L 5254 2854 
L 6157 2854 
L 6157 3296 
L 4358 3296 
L 4358 4109 
L 5824 4109 
L 5824 4544 
L 4358 4544 
L 4358 5344 
L 3878 5344 
z
M 1741 3949 
C 1376 3290 762 2630 186 2208 
C 269 2093 403 1843 442 1734 
C 685 1939 941 2182 1184 2445 
L 1184 -506 
L 1645 -506 
L 1645 2995 
C 1837 3251 2016 3520 2163 3782 
L 1741 3949 
z
" transform="scale(0.015625)"/>
      <path id="NotoSansCJKjp-Regular-5cee" d="M 2413 3475 
L 3437 3475 
L 3437 2682 
L 2413 2682 
L 2413 3475 
z
M 2413 2278 
L 3437 2278 
L 3437 1478 
L 2413 1478 
L 2413 2278 
z
M 2413 4666 
L 3437 4666 
L 3437 3878 
L 2413 3878 
L 2413 4666 
z
M 2003 5088 
L 2003 1056 
L 3866 1056 
L 3866 5088 
L 2003 5088 
z
M 3136 742 
C 3392 422 3712 -13 3846 -288 
L 4230 -45 
C 4083 218 3763 640 3494 941 
L 3136 742 
z
M 2266 922 
C 2074 480 1741 32 1408 -262 
C 1510 -326 1702 -461 1786 -531 
C 2131 -205 2490 307 2714 800 
L 2266 922 
z
M 5466 5376 
L 5466 90 
C 5466 -19 5421 -51 5318 -58 
C 5216 -58 4877 -64 4493 -51 
C 4557 -186 4621 -390 4640 -512 
C 5165 -512 5472 -499 5651 -416 
C 5830 -346 5907 -211 5907 90 
L 5907 5376 
L 5466 5376 
z
M 4352 4717 
L 4352 1050 
L 4774 1050 
L 4774 4717 
L 4352 4717 
z
M 518 4966 
C 883 4787 1318 4486 1530 4275 
L 1818 4659 
C 1594 4870 1158 5139 794 5306 
L 518 4966 
z
M 243 3238 
C 621 3078 1069 2810 1293 2605 
L 1568 2995 
C 1344 3200 890 3443 506 3590 
L 243 3238 
z
M 371 -173 
L 806 -429 
C 1082 160 1408 947 1645 1619 
L 1261 1869 
C 998 1152 634 320 371 -173 
z
" transform="scale(0.015625)"/>
      <path id="NotoSansCJKjp-Regular-64fb" d="M 3418 5376 
C 3206 4403 2822 3488 2285 2906 
C 2394 2842 2579 2707 2656 2630 
C 2938 2957 3181 3379 3392 3853 
L 3942 3853 
C 3648 2822 3078 1747 2400 1210 
C 2528 1139 2682 1024 2778 928 
C 3482 1542 4064 2746 4358 3853 
L 4883 3853 
C 4550 2234 3859 640 2803 -115 
C 2938 -179 3110 -307 3206 -403 
C 4269 442 4979 2163 5306 3853 
L 5606 3853 
C 5478 1299 5338 346 5133 115 
C 5062 32 4998 13 4890 13 
C 4768 13 4512 19 4224 45 
C 4301 -90 4346 -294 4358 -435 
C 4640 -454 4915 -454 5088 -435 
C 5280 -410 5408 -358 5536 -179 
C 5792 134 5933 1139 6074 4058 
C 6080 4122 6086 4301 6086 4301 
L 3571 4301 
C 3680 4614 3782 4954 3859 5293 
L 3418 5376 
z
M 627 5005 
C 550 4218 422 3405 186 2867 
C 288 2822 474 2707 550 2650 
C 659 2912 755 3245 832 3603 
L 1421 3603 
L 1421 2157 
C 973 2029 550 1907 224 1824 
L 352 1363 
L 1421 1696 
L 1421 -512 
L 1869 -512 
L 1869 1837 
L 2675 2093 
L 2611 2515 
L 1869 2291 
L 1869 3603 
L 2528 3603 
L 2528 4064 
L 1869 4064 
L 1869 5370 
L 1421 5370 
L 1421 4064 
L 922 4064 
C 966 4352 1011 4646 1043 4941 
L 627 5005 
z
" transform="scale(0.015625)"/>
     </defs>
     <use xlink:href="#NotoSansCJKjp-Regular-43e8"/>
     <use xlink:href="#NotoSansCJKjp-Regular-5cee" transform="translate(100 0)"/>
     <use xlink:href="#NotoSansCJKjp-Regular-64fb" transform="translate(200 0)"/>
    </g>
   </g>
   <g id="text_7">
    <!-- 邊緣落在 12.6 與 12.7 之間 -->
    <g style="fill: #d1242f" transform="translate(312.370716 49.748) scale(0.105 -0.105)">
     <defs>
      <path id="NotoSansCJKjp-Regular-9e93" d="M 531 5005 
C 902 4794 1338 4467 1530 4218 
L 1869 4544 
C 1664 4787 1222 5101 851 5299 
L 531 5005 
z
M 307 3699 
C 698 3501 1152 3174 1363 2938 
L 1683 3270 
C 1466 3514 1005 3814 621 4006 
L 307 3699 
z
M 2880 4314 
L 5043 4314 
L 5043 4045 
L 2880 4045 
L 2880 4314 
z
M 2880 3802 
L 5043 3802 
L 5043 3520 
L 2880 3520 
L 2880 3802 
z
M 2880 4819 
L 5043 4819 
L 5043 4550 
L 2880 4550 
L 2880 4819 
z
M 1542 2400 
L 275 2400 
L 275 1952 
L 1075 1952 
L 1075 717 
C 794 454 474 198 211 0 
L 461 -467 
C 774 -186 1069 90 1344 365 
C 1754 -141 2342 -365 3200 -397 
C 3923 -422 5299 -410 6016 -378 
C 6035 -237 6112 -19 6170 90 
C 5395 38 3910 19 3194 51 
C 2432 77 1856 294 1542 768 
L 1542 2400 
z
M 1946 3008 
L 1946 2355 
L 2368 2355 
L 2368 2733 
L 3213 2733 
C 3098 2419 2790 2266 2118 2176 
C 2189 2112 2285 1978 2317 1894 
C 3091 2035 3443 2266 3571 2733 
L 4115 2733 
L 4115 2496 
C 4115 2170 4205 2093 4589 2093 
C 4659 2093 5056 2093 5126 2093 
C 5382 2093 5485 2176 5517 2496 
C 5421 2522 5280 2560 5210 2611 
C 5197 2400 5171 2374 5069 2374 
C 4992 2374 4691 2374 4634 2374 
C 4499 2374 4486 2387 4486 2496 
L 4486 2733 
L 5562 2733 
L 5562 2355 
L 5997 2355 
L 5997 3008 
L 4134 3008 
L 4134 3277 
L 5510 3277 
L 5510 5062 
L 4064 5062 
C 4115 5139 4173 5229 4224 5325 
L 3731 5389 
C 3706 5299 3654 5178 3603 5062 
L 2426 5062 
L 2426 3277 
L 3686 3277 
L 3686 3008 
L 1946 3008 
z
M 1926 1843 
L 1926 1542 
L 3219 1542 
C 3091 1062 2765 762 1952 589 
C 2042 518 2150 352 2189 256 
C 2835 416 3206 659 3424 1005 
L 4922 1005 
C 4858 749 4800 614 4730 557 
C 4678 518 4627 518 4518 518 
C 4410 512 4128 518 3840 550 
C 3885 461 3923 333 3930 256 
C 4237 230 4525 224 4666 230 
C 4826 237 4934 256 5043 333 
C 5184 442 5274 666 5363 1133 
C 5382 1190 5389 1293 5389 1293 
L 3565 1293 
C 3597 1370 3622 1453 3642 1542 
L 6054 1542 
L 6054 1843 
L 4134 1843 
L 4134 2234 
L 3693 2234 
L 3693 1843 
L 1926 1843 
z
" transform="scale(0.015625)"/>
      <path id="NotoSansCJKjp-Regular-7a2a" d="M 1811 1638 
C 1958 1280 2080 806 2106 493 
L 2464 608 
C 2432 909 2304 1382 2157 1741 
L 1811 1638 
z
M 570 1715 
C 493 1158 378 582 166 192 
C 269 154 448 70 525 19 
C 723 429 877 1043 960 1651 
L 570 1715 
z
M 5805 2643 
C 5619 2438 5325 2163 5062 1952 
C 4947 2266 4851 2605 4781 2950 
L 6061 2950 
L 6061 3341 
L 5248 3341 
C 5363 3859 5478 4461 5555 4941 
L 5235 4992 
L 5158 4966 
L 3654 4966 
L 3731 5331 
L 3296 5382 
C 3181 4819 3002 4064 2861 3610 
L 3296 3546 
L 3347 3725 
L 4896 3725 
L 4813 3341 
L 2400 3341 
L 2400 2950 
L 3885 2950 
C 3514 2650 3014 2394 2541 2221 
C 2624 2144 2758 1971 2810 1888 
C 3072 2003 3347 2144 3610 2310 
C 3712 2214 3795 2125 3872 2022 
C 3533 1722 2963 1402 2515 1254 
C 2611 1171 2720 1024 2778 915 
C 3194 1101 3712 1421 4070 1728 
C 4141 1606 4192 1485 4237 1363 
C 3802 851 2944 307 2227 64 
C 2317 -19 2432 -160 2496 -275 
C 3117 -19 3846 454 4339 934 
C 4403 493 4326 122 4173 -13 
C 4083 -115 3974 -134 3846 -134 
C 3725 -134 3584 -122 3411 -102 
C 3482 -230 3514 -397 3520 -506 
C 3667 -512 3808 -518 3930 -518 
C 4160 -518 4307 -474 4467 -339 
C 4947 45 4992 1594 3917 2515 
C 4096 2643 4256 2784 4397 2931 
C 4653 1638 5133 506 5907 -77 
C 5978 38 6125 205 6227 288 
C 5805 570 5466 1037 5210 1600 
C 5491 1798 5824 2054 6118 2304 
L 5805 2643 
z
M 3571 4614 
L 5062 4614 
L 4966 4083 
L 3443 4083 
L 3571 4614 
z
M 179 2547 
L 237 2118 
L 1210 2176 
L 1210 -512 
L 1626 -512 
L 1626 2202 
L 2106 2234 
C 2157 2086 2195 1939 2214 1824 
L 2579 1978 
C 2509 2336 2272 2899 2035 3328 
L 1696 3194 
C 1786 3021 1875 2829 1952 2637 
L 1094 2592 
C 1510 3136 1978 3866 2330 4467 
L 1933 4646 
C 1766 4301 1530 3878 1280 3475 
C 1190 3603 1075 3744 947 3885 
C 1178 4243 1446 4774 1670 5216 
L 1254 5376 
C 1126 5018 896 4525 691 4154 
L 486 4352 
L 237 4051 
C 531 3776 858 3398 1043 3104 
C 915 2906 787 2726 666 2566 
L 179 2547 
z
" transform="scale(0.015625)"/>
      <path id="NotoSansCJKjp-Regular-86fd" d="M 397 -115 
L 742 -486 
C 1139 -13 1600 614 1965 1152 
L 1670 1491 
C 1267 915 749 269 397 -115 
z
M 698 3706 
C 1056 3520 1542 3219 1779 3027 
L 2067 3392 
C 1824 3584 1331 3859 973 4032 
L 698 3706 
z
M 262 2464 
C 646 2291 1120 2003 1357 1805 
L 1645 2170 
C 1408 2374 915 2643 544 2797 
L 262 2464 
z
M 3328 4166 
C 3053 3686 2547 3078 1882 2637 
C 1990 2573 2138 2438 2221 2342 
C 2483 2534 2720 2746 2931 2963 
C 3162 2739 3437 2515 3738 2317 
C 3162 2003 2509 1766 1907 1632 
C 1997 1536 2106 1357 2150 1235 
L 2579 1363 
L 2579 -512 
L 3034 -512 
L 3034 -237 
L 5062 -237 
L 5062 -512 
L 5536 -512 
L 5536 1402 
L 2701 1402 
C 3194 1568 3686 1786 4147 2061 
C 4717 1722 5344 1453 5933 1286 
C 6003 1402 6131 1581 6234 1683 
C 5677 1824 5088 2048 4550 2323 
C 5024 2656 5427 3059 5702 3520 
L 5402 3706 
L 5318 3686 
L 3539 3686 
C 3635 3814 3725 3942 3802 4070 
L 3328 4166 
z
M 3034 147 
L 3034 1018 
L 5062 1018 
L 5062 147 
L 3034 147 
z
M 5018 3309 
C 4787 3034 4486 2778 4141 2554 
C 3776 2771 3450 3021 3213 3270 
L 3245 3309 
L 5018 3309 
z
M 390 4928 
L 390 4499 
L 1843 4499 
L 1843 3955 
L 2310 3955 
L 2310 4499 
L 4051 4499 
L 4051 3955 
L 4518 3955 
L 4518 4499 
L 6022 4499 
L 6022 4928 
L 4518 4928 
L 4518 5376 
L 4051 5376 
L 4051 4928 
L 2310 4928 
L 2310 5376 
L 1843 5376 
L 1843 4928 
L 390 4928 
z
" transform="scale(0.015625)"/>
      <path id="NotoSansCJKjp-Regular-33c7" d="M 2502 5376 
C 2413 5050 2298 4710 2163 4384 
L 403 4384 
L 403 3923 
L 1952 3923 
C 1542 3104 979 2342 243 1830 
C 320 1722 442 1517 493 1389 
C 762 1581 1011 1798 1235 2035 
L 1235 -486 
L 1715 -486 
L 1715 2605 
C 2016 3014 2278 3462 2496 3923 
L 6010 3923 
L 6010 4384 
L 2694 4384 
C 2810 4672 2912 4966 3002 5254 
L 2502 5376 
z
M 3827 3590 
L 3827 2355 
L 2387 2355 
L 2387 1907 
L 3827 1907 
L 3827 90 
L 2131 90 
L 2131 -358 
L 6003 -358 
L 6003 90 
L 4307 90 
L 4307 1907 
L 5760 1907 
L 5760 2355 
L 4307 2355 
L 4307 3590 
L 3827 3590 
z
" transform="scale(0.015625)"/>
      <path id="NotoSansCJKjp-Regular-1" transform="scale(0.015625)"/>
      <path id="NotoSansCJKjp-Regular-f" d="M 890 -83 
C 1120 -83 1312 96 1312 358 
C 1312 627 1120 806 890 806 
C 653 806 467 627 467 358 
C 467 96 653 -83 890 -83 
z
" transform="scale(0.015625)"/>
      <path id="NotoSansCJKjp-Regular-17" d="M 1926 -83 
C 2656 -83 3277 531 3277 1440 
C 3277 2426 2765 2912 1971 2912 
C 1606 2912 1197 2701 909 2349 
C 934 3802 1466 4294 2118 4294 
C 2400 4294 2682 4154 2861 3936 
L 3194 4294 
C 2931 4576 2579 4774 2093 4774 
C 1184 4774 358 4077 358 2240 
C 358 691 1030 -83 1926 -83 
z
M 922 1882 
C 1229 2317 1587 2477 1875 2477 
C 2445 2477 2720 2074 2720 1440 
C 2720 800 2374 378 1926 378 
C 1338 378 986 909 922 1882 
z
" transform="scale(0.015625)"/>
      <path id="NotoSansCJKjp-Regular-8241" d="M 3795 563 
C 4480 218 5210 -211 5638 -531 
L 6093 -198 
C 5619 115 4845 544 4141 883 
L 3795 563 
z
M 2125 870 
C 1722 512 954 70 339 -186 
C 454 -275 621 -429 704 -525 
C 1306 -250 2067 179 2573 576 
L 2125 870 
z
M 288 1414 
L 288 966 
L 6131 966 
L 6131 1414 
L 5459 1414 
C 5517 2355 5549 3853 5555 4973 
L 4186 4973 
L 4186 4544 
L 5114 4544 
L 5107 3795 
L 4256 3795 
L 4256 3386 
L 5094 3386 
L 5069 2598 
L 4237 2598 
L 4237 2189 
L 5056 2189 
L 5011 1414 
L 3936 1414 
L 3936 3584 
L 2925 3584 
L 2925 4256 
L 4058 4256 
L 4058 4666 
L 2925 4666 
L 2925 5318 
L 2502 5318 
L 2502 3194 
L 3514 3194 
L 3514 1414 
L 2893 1414 
L 2893 2912 
L 2496 2912 
L 2496 1414 
L 1382 1414 
L 1357 2195 
L 2182 2195 
L 2182 2598 
L 1344 2598 
L 1318 3386 
L 2176 3386 
L 2176 3795 
L 1306 3795 
L 1280 4474 
C 1645 4614 2048 4800 2381 4973 
L 2003 5318 
C 1792 5171 1466 4986 1146 4832 
L 826 4928 
L 947 1414 
L 288 1414 
z
" transform="scale(0.015625)"/>
      <path id="NotoSansCJKjp-Regular-18" d="M 1267 0 
L 1875 0 
C 1952 1837 2150 2931 3251 4339 
L 3251 4691 
L 314 4691 
L 314 4192 
L 2592 4192 
C 1670 2912 1350 1779 1267 0 
z
" transform="scale(0.015625)"/>
      <path id="NotoSansCJKjp-Regular-256e" d="M 666 -506 
C 941 -96 1203 378 1427 819 
C 2054 -179 3066 -403 4486 -403 
L 5984 -403 
C 6003 -262 6086 -38 6163 77 
C 5862 70 4730 70 4512 70 
C 3686 70 2970 147 2438 454 
C 3693 1306 5043 2694 5792 3904 
L 5434 4134 
L 5331 4109 
L 3430 4109 
L 3430 5370 
L 2944 5370 
L 2944 4109 
L 627 4109 
L 627 3635 
L 4998 3635 
C 4320 2650 3136 1466 2048 755 
C 1894 909 1766 1088 1664 1312 
L 1862 1760 
L 1395 1946 
C 1139 1261 659 339 198 -230 
L 666 -506 
z
" transform="scale(0.015625)"/>
      <path id="NotoSansCJKjp-Regular-a774" d="M 3936 1082 
L 3936 461 
L 2432 461 
L 2432 1082 
L 3936 1082 
z
M 3936 1453 
L 2432 1453 
L 2432 2042 
L 3936 2042 
L 3936 1453 
z
M 1997 2419 
L 1997 -243 
L 2432 -243 
L 2432 83 
L 4384 83 
L 4384 2419 
L 1997 2419 
z
M 2451 3840 
L 2451 3270 
L 1056 3270 
L 1056 3840 
L 2451 3840 
z
M 2451 4192 
L 1056 4192 
L 1056 4730 
L 2451 4730 
L 2451 4192 
z
M 5376 3840 
L 5376 3264 
L 3936 3264 
L 3936 3840 
L 5376 3840 
z
M 5376 4192 
L 3936 4192 
L 3936 4730 
L 5376 4730 
L 5376 4192 
z
M 5619 5101 
L 3482 5101 
L 3482 2893 
L 5376 2893 
L 5376 128 
C 5376 13 5338 -19 5229 -26 
C 5114 -26 4723 -32 4333 -19 
C 4403 -154 4474 -378 4499 -512 
C 5030 -512 5376 -506 5581 -422 
C 5792 -339 5862 -186 5862 122 
L 5862 5101 
L 5619 5101 
z
M 576 5101 
L 576 -518 
L 1056 -518 
L 1056 2906 
L 2899 2906 
L 2899 5101 
L 576 5101 
z
" transform="scale(0.015625)"/>
     </defs>
     <use xlink:href="#NotoSansCJKjp-Regular-9e93"/>
     <use xlink:href="#NotoSansCJKjp-Regular-7a2a" transform="translate(100 0)"/>
     <use xlink:href="#NotoSansCJKjp-Regular-86fd" transform="translate(200 0)"/>
     <use xlink:href="#NotoSansCJKjp-Regular-33c7" transform="translate(300 0)"/>
     <use xlink:href="#NotoSansCJKjp-Regular-1" transform="translate(400 0)"/>
     <use xlink:href="#NotoSansCJKjp-Regular-12" transform="translate(422.40625 0)"/>
     <use xlink:href="#NotoSansCJKjp-Regular-13" transform="translate(477.90625 0)"/>
     <use xlink:href="#NotoSansCJKjp-Regular-f" transform="translate(533.40625 0)"/>
     <use xlink:href="#NotoSansCJKjp-Regular-17" transform="translate(561.203125 0)"/>
     <use xlink:href="#NotoSansCJKjp-Regular-1" transform="translate(616.703125 0)"/>
     <use xlink:href="#NotoSansCJKjp-Regular-8241" transform="translate(639.109375 0)"/>
     <use xlink:href="#NotoSansCJKjp-Regular-1" transform="translate(739.109375 0)"/>
     <use xlink:href="#NotoSansCJKjp-Regular-12" transform="translate(761.515625 0)"/>
     <use xlink:href="#NotoSansCJKjp-Regular-13" transform="translate(817.015625 0)"/>
     <use xlink:href="#NotoSansCJKjp-Regular-f" transform="translate(872.515625 0)"/>
     <use xlink:href="#NotoSansCJKjp-Regular-18" transform="translate(900.3125 0)"/>
     <use xlink:href="#NotoSansCJKjp-Regular-1" transform="translate(955.8125 0)"/>
     <use xlink:href="#NotoSansCJKjp-Regular-256e" transform="translate(978.21875 0)"/>
     <use xlink:href="#NotoSansCJKjp-Regular-a774" transform="translate(1078.21875 0)"/>
    </g>
   </g>
   <g id="text_8">
    <!-- 讀數寫成：中央值 ± 不確定度 -->
    <g style="fill: #222831" transform="translate(262.952109 225.678) scale(0.125 -0.125)">
     <defs>
      <path id="NotoSansCJKjp-Bold-95d4" d="M 2515 3834 
L 2515 2470 
L 6054 2470 
L 6054 3834 
L 2515 3834 
z
M 3398 1446 
L 5171 1446 
L 5171 1248 
L 3398 1248 
L 3398 1446 
z
M 3398 973 
L 5171 973 
L 5171 768 
L 3398 768 
L 3398 973 
z
M 3398 1914 
L 5171 1914 
L 5171 1728 
L 3398 1728 
L 3398 1914 
z
M 454 3475 
L 454 2893 
L 2157 2893 
L 2157 3475 
L 454 3475 
z
M 499 5235 
L 499 4659 
L 2144 4659 
L 2144 5235 
L 499 5235 
z
M 454 2598 
L 454 2022 
L 2157 2022 
L 2157 2598 
L 454 2598 
z
M 192 4378 
L 192 3770 
L 2323 3770 
L 2323 4378 
L 192 4378 
z
M 3866 5440 
L 3866 5152 
L 2490 5152 
L 2490 4672 
L 3866 4672 
L 3866 4454 
L 2701 4454 
L 2701 4013 
L 5920 4013 
L 5920 4454 
L 4614 4454 
L 4614 4672 
L 6086 4672 
L 6086 5152 
L 4614 5152 
L 4614 5440 
L 3866 5440 
z
M 4397 3450 
L 4397 3411 
C 4397 3085 4493 3002 4915 3002 
C 4998 3002 5299 3002 5382 3002 
L 5421 3002 
L 5421 2848 
L 3110 2848 
L 3110 3187 
C 3181 3117 3251 2995 3270 2918 
C 3853 2970 4045 3142 4096 3450 
L 4397 3450 
z
M 5421 3309 
C 5402 3283 5376 3283 5312 3283 
C 5254 3283 5030 3283 4986 3283 
C 4883 3283 4870 3296 4870 3405 
L 4870 3450 
L 5421 3450 
L 5421 3309 
z
M 3110 3450 
L 3654 3450 
C 3610 3309 3469 3251 3110 3226 
L 3110 3450 
z
M 4448 96 
C 4877 -115 5363 -390 5638 -563 
L 6278 -166 
C 6003 -19 5568 192 5165 378 
L 5882 378 
L 5882 2310 
L 2720 2310 
L 2720 378 
L 3334 378 
C 3034 186 2573 -19 2157 -122 
C 2310 -243 2528 -442 2637 -570 
C 3117 -442 3706 -160 4051 102 
L 3622 378 
L 4794 378 
L 4448 96 
z
M 435 1715 
L 435 -486 
L 1037 -486 
L 1037 -224 
L 2150 -224 
L 2150 1715 
L 435 1715 
z
M 1037 1114 
L 1536 1114 
L 1536 378 
L 1037 378 
L 1037 1114 
z
" transform="scale(0.015625)"/>
      <path id="NotoSansCJKjp-Bold-4e26" d="M 4512 3558 
L 5152 3558 
C 5088 2982 4992 2464 4845 2003 
C 4691 2470 4582 2976 4506 3514 
L 4512 3558 
z
M 192 4448 
L 192 3904 
L 602 3904 
L 602 3226 
L 1606 3226 
L 1606 3021 
L 474 3021 
L 474 1830 
L 1382 1830 
L 1248 1574 
L 211 1568 
L 237 998 
L 922 1011 
C 800 800 678 602 570 442 
L 1184 288 
L 1235 371 
L 1581 230 
C 1261 109 858 32 365 -13 
C 474 -160 589 -403 627 -602 
C 1318 -486 1856 -333 2259 -96 
C 2528 -237 2765 -378 2944 -506 
L 3379 -64 
C 3507 -230 3661 -474 3712 -602 
C 4160 -326 4518 0 4806 384 
C 5056 -6 5363 -339 5741 -589 
C 5850 -397 6074 -115 6240 26 
C 5818 275 5491 640 5235 1094 
C 5562 1773 5747 2592 5869 3558 
L 6208 3558 
L 6208 4269 
L 4691 4269 
C 4768 4614 4826 4973 4877 5338 
L 4147 5440 
C 4026 4461 3821 3507 3456 2822 
L 3456 3021 
L 2259 3021 
L 2259 3226 
L 3328 3226 
L 3328 3904 
L 3750 3904 
L 3750 4448 
L 3328 4448 
L 3328 5120 
L 2259 5120 
L 2259 5440 
L 1606 5440 
L 1606 5120 
L 602 5120 
L 602 4448 
L 192 4448 
z
M 4051 2349 
C 4154 1901 4282 1478 4435 1101 
C 4160 659 3795 301 3302 38 
C 3149 128 2963 230 2765 326 
C 2925 525 3053 762 3136 1050 
L 3731 1062 
L 3757 1606 
L 1952 1581 
L 2086 1824 
L 2061 1830 
L 3456 1830 
L 3456 2304 
C 3590 2176 3738 2022 3802 1926 
C 3891 2054 3974 2202 4051 2349 
z
M 1235 4640 
L 1606 4640 
L 1606 4410 
L 1235 4410 
L 1235 4640 
z
M 1606 3712 
L 1235 3712 
L 1235 3942 
L 1606 3942 
L 1606 3712 
z
M 2259 4640 
L 2662 4640 
L 2662 4410 
L 2259 4410 
L 2259 4640 
z
M 2259 3712 
L 2259 3942 
L 2662 3942 
L 2662 3712 
L 2259 3712 
z
M 1101 2560 
L 1606 2560 
L 1606 2291 
L 1101 2291 
L 1101 2560 
z
M 2259 2560 
L 2790 2560 
L 2790 2291 
L 2259 2291 
L 2259 2560 
z
M 1638 1018 
L 2451 1037 
C 2374 864 2278 723 2163 602 
C 1952 685 1741 768 1530 845 
L 1638 1018 
z
" transform="scale(0.015625)"/>
      <path id="NotoSansCJKjp-Bold-3d34" d="M 2080 774 
C 2189 403 2253 -77 2240 -371 
L 2848 -294 
C 2854 0 2778 474 2656 838 
L 2080 774 
z
M 2950 762 
C 3098 461 3219 64 3251 -186 
L 3821 -38 
C 3782 218 3648 602 3482 896 
L 2950 762 
z
M 3789 794 
C 3955 602 4134 333 4198 147 
L 4717 384 
C 4640 563 4454 826 4282 1005 
L 3789 794 
z
M 422 4992 
L 422 3674 
L 1120 3674 
L 1120 4339 
L 5254 4339 
L 5254 3674 
L 5978 3674 
L 5978 4992 
L 3584 4992 
L 3584 5434 
L 2810 5434 
L 2810 4992 
L 422 4992 
z
M 3443 3226 
L 3443 2720 
L 4506 2720 
L 4506 2464 
L 1882 2464 
L 1882 2720 
L 2944 2720 
L 2944 3226 
L 1882 3226 
L 1882 3456 
C 2298 3539 2752 3661 3117 3808 
L 2662 4275 
C 2406 4141 2003 4013 1619 3917 
L 1203 3994 
L 1203 1946 
L 1818 1946 
C 1427 1504 838 1158 218 941 
C 352 800 576 493 666 346 
C 845 422 1024 512 1203 614 
C 1114 314 966 26 768 -166 
L 1338 -486 
C 1651 -186 1798 288 1888 755 
L 1574 851 
L 1843 1050 
L 5018 1050 
C 4979 480 4934 230 4858 147 
C 4806 90 4749 83 4646 83 
C 4531 77 4282 83 4013 109 
C 4128 -70 4205 -352 4218 -550 
C 4538 -563 4845 -563 5018 -538 
C 5216 -518 5370 -467 5504 -314 
C 5670 -134 5741 333 5792 1389 
C 5798 1472 5805 1658 5805 1658 
L 2451 1658 
C 2528 1754 2598 1850 2662 1946 
L 5197 1946 
L 5197 3994 
L 3341 3994 
L 3341 3475 
L 4506 3475 
L 4506 3226 
L 3443 3226 
z
" transform="scale(0.015625)"/>
      <path id="NotoSansCJKjp-Bold-4857" d="M 3290 5427 
C 3290 5114 3302 4794 3315 4480 
L 691 4480 
L 691 2598 
C 691 1766 653 640 160 -128 
C 333 -218 678 -499 813 -653 
C 1344 134 1478 1389 1498 2330 
L 2336 2330 
C 2323 1523 2298 1210 2227 1120 
C 2182 1062 2118 1043 2035 1043 
C 1926 1043 1715 1050 1485 1069 
C 1594 877 1677 576 1690 352 
C 1990 346 2266 352 2438 378 
C 2624 410 2758 467 2886 627 
C 3034 819 3066 1395 3091 2746 
C 3091 2835 3091 3027 3091 3027 
L 1498 3027 
L 1498 3725 
L 3360 3725 
C 3443 2758 3584 1856 3808 1126 
C 3437 704 2995 352 2496 83 
C 2662 -64 2944 -384 3053 -550 
C 3450 -307 3808 -19 4134 320 
C 4416 -205 4781 -525 5229 -525 
C 5824 -525 6080 -243 6202 954 
C 5997 1030 5722 1210 5549 1382 
C 5517 576 5440 256 5293 256 
C 5082 256 4877 525 4698 986 
C 5165 1619 5536 2362 5805 3200 
L 5030 3386 
C 4877 2867 4672 2387 4416 1958 
C 4301 2477 4211 3078 4154 3725 
L 6144 3725 
L 6144 4480 
L 5478 4480 
L 5792 4806 
C 5555 5024 5088 5312 4736 5498 
L 4269 5037 
C 4531 4883 4858 4666 5088 4480 
L 4109 4480 
C 4096 4794 4090 5107 4096 5427 
L 3290 5427 
z
" transform="scale(0.015625)"/>
      <path id="NotoSansCJKjp-Bold-e6c0" d="M 3200 3302 
C 3539 3302 3808 3558 3808 3898 
C 3808 4250 3539 4506 3200 4506 
C 2861 4506 2592 4250 2592 3898 
C 2592 3558 2861 3302 3200 3302 
z
M 3200 250 
C 3539 250 3808 506 3808 845 
C 3808 1197 3539 1453 3200 1453 
C 2861 1453 2592 1197 2592 845 
C 2592 506 2861 250 3200 250 
z
" transform="scale(0.015625)"/>
      <path id="NotoSansCJKjp-Bold-2548" d="M 2778 5440 
L 2778 4326 
L 563 4326 
L 563 1082 
L 1331 1082 
L 1331 1434 
L 2778 1434 
L 2778 -570 
L 3590 -570 
L 3590 1434 
L 5043 1434 
L 5043 1114 
L 5850 1114 
L 5850 4326 
L 3590 4326 
L 3590 5440 
L 2778 5440 
z
M 1331 2189 
L 1331 3571 
L 2778 3571 
L 2778 2189 
L 1331 2189 
z
M 5043 2189 
L 3590 2189 
L 3590 3571 
L 5043 3571 
L 5043 2189 
z
" transform="scale(0.015625)"/>
      <path id="NotoSansCJKjp-Bold-3706" d="M 2771 5440 
L 2771 4602 
L 954 4602 
L 954 2490 
L 288 2490 
L 288 1734 
L 2470 1734 
C 2144 1069 1491 474 205 115 
C 346 -45 550 -371 627 -563 
C 2125 -128 2867 608 3232 1440 
C 3738 422 4518 -230 5798 -538 
C 5907 -326 6125 6 6298 166 
C 5120 390 4352 922 3898 1734 
L 6118 1734 
L 6118 2490 
L 5485 2490 
L 5485 4602 
L 3552 4602 
L 3552 5440 
L 2771 5440 
z
M 1728 2490 
L 1728 3853 
L 2771 3853 
L 2771 3334 
C 2771 3059 2758 2771 2707 2490 
L 1728 2490 
z
M 4672 2490 
L 3507 2490 
C 3539 2771 3552 3053 3552 3328 
L 3552 3853 
L 4672 3853 
L 4672 2490 
z
" transform="scale(0.015625)"/>
      <path id="NotoSansCJKjp-Bold-286c" d="M 3744 5427 
C 3731 5248 3718 5056 3693 4851 
L 2144 4851 
L 2144 4198 
L 3603 4198 
L 3526 3757 
L 2419 3757 
L 2419 192 
L 1862 192 
L 1862 -454 
L 6195 -454 
L 6195 192 
L 5702 192 
L 5702 3757 
L 4224 3757 
L 4333 4198 
L 6048 4198 
L 6048 4851 
L 4461 4851 
L 4557 5402 
L 3744 5427 
z
M 3091 192 
L 3091 557 
L 4998 557 
L 4998 192 
L 3091 192 
z
M 3091 2317 
L 4998 2317 
L 4998 1958 
L 3091 1958 
L 3091 2317 
z
M 3091 2842 
L 3091 3194 
L 4998 3194 
L 4998 2842 
L 3091 2842 
z
M 3091 1440 
L 4998 1440 
L 4998 1082 
L 3091 1082 
L 3091 1440 
z
M 1510 5421 
C 1203 4506 678 3597 128 3014 
C 256 2822 461 2400 531 2214 
C 653 2349 768 2496 883 2650 
L 883 -570 
L 1594 -570 
L 1594 3789 
C 1837 4243 2048 4723 2221 5190 
L 1510 5421 
z
" transform="scale(0.015625)"/>
      <path id="NotoSansCJKjp-Bold-1" transform="scale(0.015625)"/>
      <path id="NotoSansCJKjp-Bold-6f" d="M 5472 2931 
L 5472 3578 
L 3526 3578 
L 3526 5197 
L 2874 5197 
L 2874 3578 
L 928 3578 
L 928 2931 
L 2874 2931 
L 2874 1312 
L 3526 1312 
L 3526 2931 
L 5472 2931 
z
M 5523 710 
L 928 710 
L 928 58 
L 5523 58 
L 5523 710 
z
" transform="scale(0.015625)"/>
      <path id="NotoSansCJKjp-Bold-2518" d="M 416 5011 
L 416 4224 
L 2982 4224 
C 2387 3238 1382 2246 211 1690 
C 378 1517 621 1203 742 998 
C 1517 1402 2202 1952 2784 2579 
L 2784 -563 
L 3622 -563 
L 3622 2771 
C 4314 2240 5184 1510 5587 1024 
L 6240 1619 
C 5773 2125 4787 2867 4102 3360 
L 3622 2957 
L 3622 3629 
C 3757 3821 3878 4026 3994 4224 
L 5997 4224 
L 5997 5011 
L 416 5011 
z
" transform="scale(0.015625)"/>
      <path id="NotoSansCJKjp-Bold-6fac" d="M 4378 1766 
L 4378 1318 
L 3750 1318 
L 3750 1766 
L 4378 1766 
z
M 307 5056 
L 307 4358 
L 928 4358 
C 787 3315 544 2342 90 1702 
C 224 1530 429 1139 499 966 
C 576 1075 653 1184 723 1306 
L 723 -301 
L 1344 -301 
L 1344 198 
L 2515 198 
L 2515 2566 
C 2656 2419 2816 2234 2893 2125 
L 3027 2227 
L 3027 -576 
L 3750 -576 
L 3750 -326 
L 6208 -326 
L 6208 301 
L 5082 301 
L 5082 755 
L 5907 755 
L 5907 1318 
L 5082 1318 
L 5082 1766 
L 5907 1766 
L 5907 2330 
L 5082 2330 
L 5082 2758 
L 6048 2758 
L 6048 3392 
L 5235 3392 
L 5478 3891 
L 4774 4038 
C 4730 3846 4640 3610 4550 3392 
L 4038 3392 
C 4192 3642 4333 3910 4454 4198 
L 5491 4198 
L 5491 3674 
L 6170 3674 
L 6170 4838 
L 4685 4838 
C 4730 4992 4774 5146 4813 5306 
L 4083 5440 
C 4038 5235 3981 5030 3917 4838 
L 2611 4838 
L 2611 5056 
L 307 5056 
z
M 4378 2330 
L 3750 2330 
L 3750 2758 
L 4378 2758 
L 4378 2330 
z
M 4378 755 
L 4378 301 
L 3750 301 
L 3750 755 
L 4378 755 
z
M 3654 4198 
C 3373 3629 2995 3149 2515 2797 
L 2515 3174 
L 1427 3174 
C 1517 3558 1594 3955 1651 4358 
L 2560 4358 
L 2560 3674 
L 3206 3674 
L 3206 4198 
L 3654 4198 
z
M 1344 2515 
L 1869 2515 
L 1869 858 
L 1344 858 
L 1344 2515 
z
" transform="scale(0.015625)"/>
      <path id="NotoSansCJKjp-Bold-3c8a" d="M 1267 2419 
C 1152 1312 838 422 141 -90 
C 320 -205 646 -474 774 -614 
C 1139 -301 1421 109 1632 608 
C 2214 -314 3098 -512 4288 -512 
L 5894 -512 
C 5933 -275 6054 90 6170 275 
C 5734 256 4672 256 4326 256 
C 4070 256 3827 269 3597 294 
L 3597 1254 
L 5357 1254 
L 5357 1971 
L 3597 1971 
L 3597 2771 
L 4966 2771 
L 4966 3507 
L 1427 3507 
L 1427 2771 
L 2797 2771 
L 2797 518 
C 2419 698 2118 1005 1920 1517 
C 1984 1773 2029 2048 2067 2336 
L 1267 2419 
z
M 454 4781 
L 454 3174 
L 1210 3174 
L 1210 4058 
L 5165 4058 
L 5165 3174 
L 5952 3174 
L 5952 4781 
L 3603 4781 
L 3603 5427 
L 2784 5427 
L 2784 4781 
L 454 4781 
z
" transform="scale(0.015625)"/>
      <path id="NotoSansCJKjp-Bold-4231" d="M 2470 4058 
L 2470 3635 
L 1606 3635 
L 1606 3034 
L 2470 3034 
L 2470 2029 
L 5120 2029 
L 5120 3034 
L 6048 3034 
L 6048 3635 
L 5120 3635 
L 5120 4058 
L 4371 4058 
L 4371 3635 
L 3194 3635 
L 3194 4058 
L 2470 4058 
z
M 4371 3034 
L 4371 2605 
L 3194 2605 
L 3194 3034 
L 4371 3034 
z
M 4602 1171 
C 4390 960 4128 787 3834 640 
C 3533 787 3277 966 3078 1171 
L 4602 1171 
z
M 1651 1773 
L 1651 1171 
L 2611 1171 
L 2310 1062 
C 2515 787 2765 550 3046 346 
C 2541 198 1971 109 1376 58 
C 1491 -102 1638 -397 1696 -589 
C 2458 -493 3174 -339 3802 -90 
C 4365 -339 5024 -506 5760 -595 
C 5856 -397 6054 -96 6214 64 
C 5638 115 5101 205 4634 339 
C 5094 646 5472 1043 5734 1555 
L 5254 1798 
L 5120 1773 
L 1651 1773 
z
M 710 4858 
L 710 3059 
C 710 2118 666 781 134 -134 
C 307 -211 634 -429 762 -557 
C 1350 442 1446 2016 1446 3059 
L 1446 4173 
L 6086 4173 
L 6086 4858 
L 3802 4858 
L 3802 5440 
L 3002 5440 
L 3002 4858 
L 710 4858 
z
" transform="scale(0.015625)"/>
     </defs>
     <use xlink:href="#NotoSansCJKjp-Bold-95d4"/>
     <use xlink:href="#NotoSansCJKjp-Bold-4e26" transform="translate(100 0)"/>
     <use xlink:href="#NotoSansCJKjp-Bold-3d34" transform="translate(200 0)"/>
     <use xlink:href="#NotoSansCJKjp-Bold-4857" transform="translate(300 0)"/>
     <use xlink:href="#NotoSansCJKjp-Bold-e6c0" transform="translate(400 0)"/>
     <use xlink:href="#NotoSansCJKjp-Bold-2548" transform="translate(500 0)"/>
     <use xlink:href="#NotoSansCJKjp-Bold-3706" transform="translate(600 0)"/>
     <use xlink:href="#NotoSansCJKjp-Bold-286c" transform="translate(700 0)"/>
     <use xlink:href="#NotoSansCJKjp-Bold-1" transform="translate(800 0)"/>
     <use xlink:href="#NotoSansCJKjp-Bold-6f" transform="translate(822.703125 0)"/>
     <use xlink:href="#NotoSansCJKjp-Bold-1" transform="translate(922.703125 0)"/>
     <use xlink:href="#NotoSansCJKjp-Bold-2518" transform="translate(945.40625 0)"/>
     <use xlink:href="#NotoSansCJKjp-Bold-6fac" transform="translate(1045.40625 0)"/>
     <use xlink:href="#NotoSansCJKjp-Bold-3c8a" transform="translate(1145.40625 0)"/>
     <use xlink:href="#NotoSansCJKjp-Bold-4231" transform="translate(1245.40625 0)"/>
    </g>
   </g>
   <g id="text_9">
    <!-- 12.6 -->
    <g style="fill: #1a7f37" transform="translate(195.395344 319.912) scale(0.22 -0.22)">
     <use xlink:href="#NotoSansCJKjp-Regular-12"/>
     <use xlink:href="#NotoSansCJKjp-Regular-13" transform="translate(55.5 0)"/>
     <use xlink:href="#NotoSansCJKjp-Regular-f" transform="translate(111 0)"/>
     <use xlink:href="#NotoSansCJKjp-Regular-17" transform="translate(138.796875 0)"/>
    </g>
   </g>
   <g id="text_10">
    <!-- 5 -->
    <g style="fill: #bf8700" transform="translate(267.303 319.912) scale(0.22 -0.22)">
     <defs>
      <path id="NotoSansCJKjp-Regular-16" d="M 1677 -83 
C 2464 -83 3213 499 3213 1523 
C 3213 2560 2573 3021 1798 3021 
C 1517 3021 1306 2950 1094 2835 
L 1216 4192 
L 2982 4192 
L 2982 4691 
L 704 4691 
L 550 2502 
L 864 2304 
C 1133 2483 1331 2579 1645 2579 
C 2234 2579 2618 2182 2618 1510 
C 2618 826 2176 403 1619 403 
C 1075 403 730 653 467 922 
L 173 538 
C 493 224 941 -83 1677 -83 
z
" transform="scale(0.015625)"/>
     </defs>
     <use xlink:href="#NotoSansCJKjp-Regular-16"/>
    </g>
   </g>
   <g id="text_11">
    <!-- ± 0.05 -->
    <g style="fill: #222831" transform="translate(306.873687 319.152) scale(0.2 -0.2)">
     <defs>
      <path id="NotoSansCJKjp-Regular-6f" d="M 5523 2950 
L 5523 3392 
L 3418 3392 
L 3418 5146 
L 2982 5146 
L 2982 3392 
L 877 3392 
L 877 2950 
L 2982 2950 
L 2982 1190 
L 3418 1190 
L 3418 2950 
L 5523 2950 
z
M 5549 557 
L 877 557 
L 877 115 
L 5549 115 
L 5549 557 
z
" transform="scale(0.015625)"/>
      <path id="NotoSansCJKjp-Regular-11" d="M 1779 -83 
C 2669 -83 3238 723 3238 2362 
C 3238 3987 2669 4774 1779 4774 
C 883 4774 320 3987 320 2362 
C 320 723 883 -83 1779 -83 
z
M 1779 390 
C 1248 390 883 986 883 2362 
C 883 3731 1248 4314 1779 4314 
C 2310 4314 2675 3731 2675 2362 
C 2675 986 2310 390 1779 390 
z
" transform="scale(0.015625)"/>
     </defs>
     <use xlink:href="#NotoSansCJKjp-Regular-6f"/>
     <use xlink:href="#NotoSansCJKjp-Regular-1" transform="translate(100 0)"/>
     <use xlink:href="#NotoSansCJKjp-Regular-11" transform="translate(122.40625 0)"/>
     <use xlink:href="#NotoSansCJKjp-Regular-f" transform="translate(177.90625 0)"/>
     <use xlink:href="#NotoSansCJKjp-Regular-11" transform="translate(205.703125 0)"/>
     <use xlink:href="#NotoSansCJKjp-Regular-16" transform="translate(261.203125 0)"/>
    </g>
   </g>
   <g id="text_12">
    <!-- cm -->
    <g style="fill: #222831" transform="translate(421.908562 318.392) scale(0.18 -0.18)">
     <use xlink:href="#NotoSansCJKjp-Regular-44"/>
     <use xlink:href="#NotoSansCJKjp-Regular-4e" transform="translate(51 0)"/>
    </g>
   </g>
   <g id="patch_4">
    <path d="M 216.768 353.734972 
Q 216.768 345.537081 216.768 337.33919 
" style="fill: none; stroke: #1a7f37; stroke-width: 1.3; stroke-linecap: round"/>
   </g>
   <g id="text_13">
    <!-- 可確定的位數 -->
    <g style="fill: #1a7f37" transform="translate(188.268 372.0208) scale(0.095 -0.095)">
     <defs>
      <path id="NotoSansCJKjp-Regular-2e8e" d="M 358 4922 
L 358 4442 
L 4781 4442 
L 4781 186 
C 4781 51 4736 13 4595 0 
C 4442 0 3917 -6 3405 19 
C 3482 -122 3571 -358 3603 -499 
C 4237 -499 4685 -499 4941 -416 
C 5190 -333 5280 -166 5280 179 
L 5280 4442 
L 6067 4442 
L 6067 4922 
L 358 4922 
z
M 1478 3040 
L 3162 3040 
L 3162 1568 
L 1478 1568 
L 1478 3040 
z
M 1011 3501 
L 1011 595 
L 1478 595 
L 1478 1107 
L 3635 1107 
L 3635 3501 
L 1011 3501 
z
" transform="scale(0.015625)"/>
      <path id="NotoSansCJKjp-Regular-6fac" d="M 4378 1907 
L 4378 1229 
L 3507 1229 
L 3507 1907 
L 4378 1907 
z
M 339 4947 
L 339 4499 
L 1056 4499 
C 902 3379 627 2355 154 1670 
C 237 1568 378 1331 429 1222 
C 563 1408 678 1613 787 1843 
L 787 -230 
L 1190 -230 
L 1190 275 
L 2426 275 
L 2426 2541 
C 2522 2458 2650 2323 2707 2246 
C 2829 2342 2944 2445 3053 2547 
L 3053 -512 
L 3507 -512 
L 3507 -230 
L 6144 -230 
L 6144 179 
L 4826 179 
L 4826 851 
L 5843 851 
L 5843 1229 
L 4826 1229 
L 4826 1907 
L 5843 1907 
L 5843 2278 
L 4826 2278 
L 4826 2931 
L 5952 2931 
L 5952 3347 
L 4922 3347 
C 5024 3546 5133 3782 5229 4000 
L 4781 4109 
C 4717 3891 4602 3590 4493 3347 
L 3712 3347 
C 3904 3642 4077 3962 4224 4307 
L 5677 4307 
L 5677 3622 
L 6112 3622 
L 6112 4723 
L 4390 4723 
C 4454 4909 4518 5094 4570 5293 
L 4115 5382 
C 4058 5152 3987 4934 3904 4723 
L 2611 4723 
L 2611 3622 
L 3034 3622 
L 3034 4307 
L 3725 4307 
C 3405 3622 2970 3046 2426 2637 
L 2426 3078 
L 1229 3078 
C 1350 3526 1446 4006 1523 4499 
L 2598 4499 
L 2598 4947 
L 339 4947 
z
M 4378 2278 
L 3507 2278 
L 3507 2931 
L 4378 2931 
L 4378 2278 
z
M 4378 851 
L 4378 179 
L 3507 179 
L 3507 851 
L 4378 851 
z
M 1190 2650 
L 2010 2650 
L 2010 698 
L 1190 698 
L 1190 2650 
z
" transform="scale(0.015625)"/>
      <path id="NotoSansCJKjp-Regular-3c8a" d="M 1421 2413 
C 1286 1248 934 333 224 -218 
C 339 -294 538 -461 621 -544 
C 1037 -179 1350 307 1574 896 
C 2163 -198 3117 -422 4454 -422 
L 5952 -422 
C 5971 -282 6061 -51 6131 64 
C 5818 58 4717 58 4480 58 
C 4109 58 3757 77 3443 134 
L 3443 1440 
L 5350 1440 
L 5350 1888 
L 3443 1888 
L 3443 2957 
L 5088 2957 
L 5088 3418 
L 1350 3418 
L 1350 2957 
L 2944 2957 
L 2944 269 
C 2419 461 2016 832 1760 1504 
C 1824 1766 1882 2054 1920 2355 
L 1421 2413 
z
M 525 4640 
L 525 3245 
L 998 3245 
L 998 4186 
L 5382 4186 
L 5382 3245 
L 5875 3245 
L 5875 4640 
L 3443 4640 
L 3443 5376 
L 2938 5376 
L 2938 4640 
L 525 4640 
z
" transform="scale(0.015625)"/>
      <path id="NotoSansCJKjp-Regular-6c33" d="M 3533 2707 
C 3885 2240 4320 1600 4512 1210 
L 4922 1466 
C 4710 1843 4269 2464 3904 2918 
L 3533 2707 
z
M 1536 5389 
C 1485 5082 1376 4659 1274 4346 
L 557 4346 
L 557 -346 
L 998 -346 
L 998 160 
L 2784 160 
L 2784 4346 
L 1715 4346 
C 1824 4621 1946 4979 2054 5299 
L 1536 5389 
z
M 998 3917 
L 2342 3917 
L 2342 2566 
L 998 2566 
L 998 3917 
z
M 998 595 
L 998 2144 
L 2342 2144 
L 2342 595 
L 998 595 
z
M 3827 5402 
C 3622 4518 3277 3635 2835 3066 
C 2950 3002 3149 2867 3238 2790 
C 3456 3098 3661 3488 3840 3923 
L 5478 3923 
C 5402 1357 5299 371 5094 154 
C 5018 64 4947 45 4819 45 
C 4672 45 4288 51 3866 83 
C 3955 -38 4013 -243 4026 -378 
C 4384 -397 4762 -410 4979 -390 
C 5210 -365 5350 -314 5498 -122 
C 5754 192 5843 1184 5939 4122 
C 5946 4186 5946 4365 5946 4365 
L 4013 4365 
C 4115 4666 4211 4986 4288 5299 
L 3827 5402 
z
" transform="scale(0.015625)"/>
      <path id="NotoSansCJKjp-Regular-26e3" d="M 2630 3155 
C 2867 2304 3066 1190 3110 544 
L 3578 646 
C 3526 1280 3302 2381 3059 3232 
L 2630 3155 
z
M 2106 4115 
L 2106 3661 
L 6016 3661 
L 6016 4115 
L 4250 4115 
L 4250 5299 
L 3770 5299 
L 3770 4115 
L 2106 4115 
z
M 1946 243 
L 1946 -211 
L 6176 -211 
L 6176 243 
L 4634 243 
C 4928 1043 5261 2246 5485 3194 
L 4966 3283 
C 4800 2362 4461 1056 4166 243 
L 1946 243 
z
M 1773 5357 
C 1395 4390 774 3443 128 2835 
C 211 2720 352 2470 397 2355 
C 640 2598 877 2880 1107 3194 
L 1107 -493 
L 1568 -493 
L 1568 3891 
C 1818 4314 2048 4762 2227 5216 
L 1773 5357 
z
" transform="scale(0.015625)"/>
      <path id="NotoSansCJKjp-Regular-4e26" d="M 4352 3744 
L 5318 3744 
C 5216 2957 5062 2266 4826 1677 
C 4595 2266 4442 2944 4333 3661 
L 4352 3744 
z
M 256 4301 
L 256 3936 
L 698 3936 
L 698 3245 
L 1741 3245 
L 1741 2950 
L 538 2950 
L 538 1882 
L 1485 1882 
L 1274 1478 
L 262 1472 
L 275 1088 
L 1069 1094 
C 928 845 787 608 666 422 
L 1062 307 
L 1171 486 
C 1389 403 1606 314 1818 218 
C 1459 32 998 -83 416 -154 
C 493 -256 570 -410 602 -538 
C 1293 -416 1837 -250 2246 13 
C 2522 -128 2765 -275 2957 -410 
L 3264 -102 
C 3078 19 2848 154 2586 282 
C 2816 512 2976 794 3072 1133 
L 3750 1152 
L 3763 1510 
L 1734 1485 
L 1939 1882 
L 3424 1882 
L 3424 2419 
C 3526 2336 3648 2221 3706 2157 
C 3834 2362 3949 2592 4051 2848 
C 4179 2221 4346 1645 4563 1146 
C 4256 614 3853 192 3309 -134 
C 3392 -224 3539 -429 3584 -525 
C 4090 -198 4486 192 4794 666 
C 5075 166 5414 -237 5850 -518 
C 5920 -403 6067 -224 6176 -141 
C 5709 141 5350 582 5062 1133 
C 5421 1843 5638 2707 5779 3744 
L 6144 3744 
L 6144 4186 
L 4467 4186 
C 4550 4544 4621 4922 4678 5306 
L 4211 5376 
C 4070 4339 3827 3315 3424 2618 
L 3424 2950 
L 2163 2950 
L 2163 3245 
L 3277 3245 
L 3277 3936 
L 3731 3936 
L 3731 4301 
L 3277 4301 
L 3277 4986 
L 2163 4986 
L 2163 5376 
L 1741 5376 
L 1741 4986 
L 698 4986 
L 698 4301 
L 256 4301 
z
M 1101 4646 
L 1741 4646 
L 1741 4282 
L 1101 4282 
L 1101 4646 
z
M 1741 3578 
L 1101 3578 
L 1101 3955 
L 1741 3955 
L 1741 3578 
z
M 2163 4646 
L 2848 4646 
L 2848 4282 
L 2163 4282 
L 2163 4646 
z
M 2163 3578 
L 2163 3955 
L 2848 3955 
L 2848 3578 
L 2163 3578 
z
M 947 2624 
L 1741 2624 
L 1741 2202 
L 947 2202 
L 947 2624 
z
M 2163 2624 
L 3002 2624 
L 3002 2202 
L 2163 2202 
L 2163 2624 
z
M 1530 1107 
L 2630 1126 
C 2534 864 2387 646 2189 467 
C 1920 589 1632 704 1357 800 
L 1530 1107 
z
" transform="scale(0.015625)"/>
     </defs>
     <use xlink:href="#NotoSansCJKjp-Regular-2e8e"/>
     <use xlink:href="#NotoSansCJKjp-Regular-6fac" transform="translate(100 0)"/>
     <use xlink:href="#NotoSansCJKjp-Regular-3c8a" transform="translate(200 0)"/>
     <use xlink:href="#NotoSansCJKjp-Regular-6c33" transform="translate(300 0)"/>
     <use xlink:href="#NotoSansCJKjp-Regular-26e3" transform="translate(400 0)"/>
     <use xlink:href="#NotoSansCJKjp-Regular-4e26" transform="translate(500 0)"/>
    </g>
    <!-- （直接讀刻度） -->
    <g style="fill: #1a7f37" transform="translate(183.518 381.5208) scale(0.095 -0.095)">
     <defs>
      <path id="NotoSansCJKjp-Regular-e6ae" d="M 4448 2432 
C 4448 1184 4954 166 5722 -614 
L 6106 -416 
C 5370 346 4915 1293 4915 2432 
C 4915 3571 5370 4518 6106 5280 
L 5722 5478 
C 4954 4698 4448 3680 4448 2432 
z
" transform="scale(0.015625)"/>
      <path id="NotoSansCJKjp-Regular-6ce1" d="M 2374 2586 
L 4832 2586 
L 4832 2061 
L 2374 2061 
L 2374 2586 
z
M 2374 1715 
L 4832 1715 
L 4832 1178 
L 2374 1178 
L 2374 1715 
z
M 2374 3456 
L 4832 3456 
L 4832 2931 
L 2374 2931 
L 2374 3456 
z
M 736 3635 
L 736 -518 
L 1203 -518 
L 1203 -179 
L 6080 -179 
L 6080 269 
L 1203 269 
L 1203 3635 
L 736 3635 
z
M 3053 5395 
L 3008 4787 
L 397 4787 
L 397 4339 
L 2963 4339 
L 2899 3814 
L 1914 3814 
L 1914 813 
L 5306 813 
L 5306 3814 
L 3379 3814 
L 3469 4339 
L 6029 4339 
L 6029 4787 
L 3533 4787 
L 3603 5363 
L 3053 5395 
z
" transform="scale(0.015625)"/>
      <path id="NotoSansCJKjp-Regular-4ad8" d="M 1152 5370 
L 1152 4083 
L 282 4083 
L 282 3635 
L 1152 3635 
L 1152 2240 
L 173 1971 
L 288 1504 
L 1152 1766 
L 1152 70 
C 1152 -19 1120 -51 1037 -51 
C 954 -51 691 -51 397 -45 
C 461 -179 525 -384 544 -506 
C 966 -512 1222 -493 1389 -416 
C 1555 -339 1613 -198 1613 77 
L 1613 1914 
L 2176 2086 
L 2176 1722 
L 3123 1722 
C 2938 1331 2752 954 2592 672 
L 3014 531 
L 3110 704 
C 3373 621 3648 518 3923 403 
C 3475 134 2854 -26 2016 -109 
C 2093 -205 2170 -378 2208 -506 
C 3187 -378 3898 -160 4397 198 
C 4915 -32 5382 -288 5690 -518 
L 5990 -154 
C 5690 64 5242 301 4755 518 
C 5043 832 5229 1229 5344 1722 
L 6112 1722 
L 6112 2144 
L 3827 2144 
L 4115 2771 
L 6138 2771 
L 6138 3194 
L 4966 3194 
C 5101 3482 5248 3885 5376 4250 
L 5184 4275 
L 5952 4275 
L 5952 4698 
L 4397 4698 
L 4397 5376 
L 3917 5376 
L 3917 4698 
L 2394 4698 
L 2394 4275 
L 3290 4275 
L 3002 4218 
C 3123 3898 3226 3475 3258 3194 
L 2138 3194 
L 2138 2771 
L 3597 2771 
L 3322 2144 
L 2291 2144 
L 2234 2554 
L 1613 2374 
L 1613 3635 
L 2234 3635 
L 2234 4083 
L 1613 4083 
L 1613 5370 
L 1152 5370 
z
M 3430 4275 
L 4890 4275 
C 4806 3955 4659 3507 4538 3219 
L 4685 3194 
L 3526 3194 
L 3706 3238 
C 3680 3501 3558 3936 3430 4275 
z
M 3622 1722 
L 4858 1722 
C 4749 1306 4576 966 4314 704 
C 3968 845 3622 966 3296 1062 
L 3622 1722 
z
" transform="scale(0.015625)"/>
      <path id="NotoSansCJKjp-Regular-95d4" d="M 2554 3802 
L 2554 2528 
L 6003 2528 
L 6003 3802 
L 2554 3802 
z
M 3181 1498 
L 5376 1498 
L 5376 1216 
L 3181 1216 
L 3181 1498 
z
M 3181 986 
L 5376 986 
L 5376 698 
L 3181 698 
L 3181 986 
z
M 3181 2003 
L 5376 2003 
L 5376 1734 
L 3181 1734 
L 3181 2003 
z
M 506 3437 
L 506 3059 
L 2150 3059 
L 2150 3437 
L 506 3437 
z
M 550 5152 
L 550 4768 
L 2138 4768 
L 2138 5152 
L 550 5152 
z
M 506 2586 
L 506 2202 
L 2150 2202 
L 2150 2586 
L 506 2586 
z
M 243 4314 
L 243 3910 
L 2317 3910 
L 2317 4314 
L 243 4314 
z
M 3994 5376 
L 3994 5024 
L 2509 5024 
L 2509 4691 
L 3994 4691 
L 3994 4378 
L 2733 4378 
L 2733 4064 
L 5869 4064 
L 5869 4378 
L 4461 4378 
L 4461 4691 
L 6048 4691 
L 6048 5024 
L 4461 5024 
L 4461 5376 
L 3994 5376 
z
M 2944 3520 
L 3718 3520 
C 3674 3290 3501 3213 2982 3174 
C 3034 3123 3104 3014 3130 2944 
C 3763 3014 3981 3174 4026 3520 
L 4454 3520 
L 4454 3379 
C 4454 3091 4544 3034 4915 3034 
C 4979 3034 5440 3034 5510 3034 
L 5587 3034 
L 5587 2810 
L 2944 2810 
L 2944 3520 
z
M 5587 3283 
C 5574 3270 5555 3264 5453 3264 
C 5363 3264 5011 3264 4947 3264 
C 4800 3264 4781 3277 4781 3379 
L 4781 3520 
L 5587 3520 
L 5587 3283 
z
M 4557 166 
C 5018 -51 5517 -326 5818 -518 
L 6208 -256 
C 5882 -70 5350 198 4883 410 
L 5830 410 
L 5830 2298 
L 2739 2298 
L 2739 410 
L 4845 410 
L 4557 166 
z
M 3520 410 
C 3245 186 2669 -70 2182 -218 
C 2285 -294 2419 -429 2496 -518 
C 2970 -371 3552 -96 3923 179 
L 3520 410 
z
M 499 1722 
L 499 -442 
L 896 -442 
L 896 -141 
L 2144 -141 
L 2144 1722 
L 499 1722 
z
M 896 1325 
L 1747 1325 
L 1747 256 
L 896 256 
L 896 1325 
z
" transform="scale(0.015625)"/>
      <path id="NotoSansCJKjp-Regular-2bcd" d="M 3968 4666 
L 3968 1094 
L 4429 1094 
L 4429 4666 
L 3968 4666 
z
M 5382 5248 
L 5382 102 
C 5382 -13 5344 -45 5229 -45 
C 5120 -51 4762 -58 4365 -38 
C 4429 -179 4499 -390 4525 -518 
C 5062 -525 5389 -512 5581 -429 
C 5773 -352 5850 -205 5850 102 
L 5850 5248 
L 5382 5248 
z
M 2701 3616 
C 2470 3213 2150 2816 1786 2451 
C 1632 2605 1421 2778 1203 2944 
C 1504 3270 1843 3706 2125 4096 
L 2099 4109 
L 3661 4109 
L 3661 4544 
L 2240 4544 
L 2240 5338 
L 1773 5338 
L 1773 4544 
L 333 4544 
L 333 4109 
L 1555 4109 
C 1370 3808 1114 3456 877 3174 
L 595 3366 
L 320 3046 
C 704 2790 1165 2432 1446 2144 
C 1088 1837 698 1568 301 1363 
C 416 1274 550 1126 627 1018 
C 1606 1568 2547 2470 3123 3450 
L 2701 3616 
z
M 3174 2406 
C 2554 1350 1414 397 198 -134 
C 314 -237 454 -397 525 -512 
C 1139 -218 1734 173 2259 627 
C 2662 275 3117 -160 3347 -448 
L 3718 -109 
C 3475 173 3002 602 2598 947 
C 2989 1338 3328 1766 3597 2221 
L 3174 2406 
z
" transform="scale(0.015625)"/>
      <path id="NotoSansCJKjp-Regular-4231" d="M 2470 4141 
L 2470 3584 
L 1440 3584 
L 1440 3187 
L 2470 3187 
L 2470 2125 
L 4960 2125 
L 4960 3187 
L 5997 3187 
L 5997 3584 
L 4960 3584 
L 4960 4141 
L 4486 4141 
L 4486 3584 
L 2931 3584 
L 2931 4141 
L 2470 4141 
z
M 4486 3187 
L 4486 2509 
L 2931 2509 
L 2931 3187 
L 4486 3187 
z
M 4851 1318 
C 4582 986 4211 717 3770 506 
C 3334 723 2970 992 2720 1318 
L 4851 1318 
z
M 1530 1715 
L 1530 1318 
L 2502 1318 
L 2259 1222 
C 2515 858 2861 550 3270 301 
C 2662 90 1978 -38 1280 -109 
C 1357 -211 1453 -397 1485 -512 
C 2291 -416 3072 -243 3757 45 
C 4365 -237 5088 -422 5869 -525 
C 5933 -403 6048 -211 6150 -109 
C 5466 -38 4819 96 4269 294 
C 4813 608 5261 1024 5549 1574 
L 5248 1734 
L 5165 1715 
L 1530 1715 
z
M 774 4742 
L 774 2893 
C 774 1965 730 659 198 -256 
C 314 -307 512 -435 595 -518 
C 1152 448 1235 1901 1235 2893 
L 1235 4307 
L 6035 4307 
L 6035 4742 
L 3635 4742 
L 3635 5376 
L 3142 5376 
L 3142 4742 
L 774 4742 
z
" transform="scale(0.015625)"/>
      <path id="NotoSansCJKjp-Regular-e6af" d="M 1952 2432 
C 1952 3680 1446 4698 678 5478 
L 294 5280 
C 1030 4518 1485 3571 1485 2432 
C 1485 1293 1030 346 294 -416 
L 678 -614 
C 1446 166 1952 1184 1952 2432 
z
" transform="scale(0.015625)"/>
     </defs>
     <use xlink:href="#NotoSansCJKjp-Regular-e6ae"/>
     <use xlink:href="#NotoSansCJKjp-Regular-6ce1" transform="translate(100 0)"/>
     <use xlink:href="#NotoSansCJKjp-Regular-4ad8" transform="translate(200 0)"/>
     <use xlink:href="#NotoSansCJKjp-Regular-95d4" transform="translate(300 0)"/>
     <use xlink:href="#NotoSansCJKjp-Regular-2bcd" transform="translate(400 0)"/>
     <use xlink:href="#NotoSansCJKjp-Regular-4231" transform="translate(500 0)"/>
     <use xlink:href="#NotoSansCJKjp-Regular-e6af" transform="translate(600 0)"/>
    </g>
   </g>
   <g id="patch_5">
    <path d="M 273.408 269.369028 
Q 273.408 277.566919 273.408 285.76481 
" style="fill: none; stroke: #bf8700; stroke-width: 1.3; stroke-linecap: round"/>
   </g>
   <g id="text_14">
    <!-- 最後一位是估的 -->
    <g style="fill: #bf8700" transform="translate(279.072 258.3032) scale(0.095 -0.095)">
     <defs>
      <path id="NotoSansCJKjp-Regular-50c3" d="M 1600 4064 
L 4813 4064 
L 4813 3610 
L 1600 3610 
L 1600 4064 
z
M 1600 4832 
L 4813 4832 
L 4813 4384 
L 1600 4384 
L 1600 4832 
z
M 1139 5171 
L 1139 3270 
L 5293 3270 
L 5293 5171 
L 1139 5171 
z
M 2534 2509 
L 2534 2074 
L 1370 2074 
L 1370 2509 
L 2534 2509 
z
M 314 282 
L 358 -147 
L 2534 115 
L 2534 -512 
L 2995 -512 
L 2995 -109 
C 3091 -198 3200 -365 3251 -474 
C 3699 -320 4141 -96 4531 205 
C 4909 -115 5363 -358 5875 -506 
C 5939 -397 6061 -218 6163 -134 
C 5664 -6 5229 205 4858 486 
C 5280 883 5613 1389 5811 2010 
L 5517 2131 
L 5434 2112 
L 3219 2112 
L 3219 1722 
L 3776 1722 
L 3501 1638 
C 3674 1216 3910 832 4205 512 
C 3840 237 3418 32 2995 -90 
L 2995 2509 
L 6016 2509 
L 6016 2912 
L 371 2912 
L 371 2509 
L 928 2509 
L 928 339 
L 314 282 
z
M 3898 1722 
L 5222 1722 
C 5056 1363 4813 1050 4531 781 
C 4262 1050 4045 1370 3898 1722 
z
M 2534 1709 
L 2534 1261 
L 1370 1261 
L 1370 1709 
L 2534 1709 
z
M 2534 902 
L 2534 518 
L 1370 384 
L 1370 902 
L 2534 902 
z
" transform="scale(0.015625)"/>
      <path id="NotoSansCJKjp-Regular-43f2" d="M 1562 5376 
C 1280 4922 710 4371 211 4032 
C 288 3949 416 3776 474 3680 
C 1024 4070 1619 4666 1997 5203 
L 1562 5376 
z
M 1933 2944 
L 1978 2509 
L 3456 2554 
C 3072 1984 2470 1485 1862 1152 
C 1965 1069 2125 883 2189 787 
C 2451 947 2714 1139 2963 1357 
C 3168 1062 3418 794 3699 557 
C 3142 230 2490 13 1843 -115 
C 1933 -218 2035 -410 2080 -531 
C 2784 -365 3482 -109 4083 269 
C 4614 -90 5248 -358 5939 -518 
C 6003 -397 6125 -211 6234 -109 
C 5581 19 4979 243 4467 544 
C 4934 909 5318 1363 5562 1926 
L 5254 2074 
L 5171 2054 
L 3629 2054 
C 3763 2221 3885 2394 3994 2573 
L 5542 2624 
C 5664 2451 5760 2291 5824 2157 
L 6227 2394 
C 6029 2784 5568 3366 5165 3782 
L 4787 3584 
C 4947 3411 5114 3213 5261 3014 
L 3539 2976 
C 4141 3469 4794 4102 5306 4653 
L 4870 4890 
C 4570 4512 4147 4064 3712 3654 
C 3565 3808 3360 3981 3142 4154 
C 3437 4435 3776 4813 4058 5158 
L 3629 5376 
C 3430 5082 3110 4691 2822 4390 
L 2445 4653 
L 2150 4339 
C 2579 4058 3072 3661 3379 3347 
C 3226 3206 3072 3078 2931 2963 
L 1933 2944 
z
M 3258 1638 
L 3290 1670 
L 4915 1670 
C 4704 1338 4416 1043 4077 800 
C 3744 1043 3469 1325 3258 1638 
z
M 1715 4070 
C 1338 3392 723 2726 134 2285 
C 218 2189 358 1958 410 1862 
C 646 2054 896 2291 1133 2547 
L 1133 -531 
L 1587 -531 
L 1587 3085 
C 1798 3354 1984 3635 2144 3917 
L 1715 4070 
z
" transform="scale(0.015625)"/>
      <path id="NotoSansCJKjp-Regular-2509" d="M 282 2758 
L 282 2234 
L 6144 2234 
L 6144 2758 
L 282 2758 
z
" transform="scale(0.015625)"/>
      <path id="NotoSansCJKjp-Regular-4f6d" d="M 1510 3885 
L 4845 3885 
L 4845 3360 
L 1510 3360 
L 1510 3885 
z
M 1510 4749 
L 4845 4749 
L 4845 4230 
L 1510 4230 
L 1510 4749 
z
M 1050 5114 
L 1050 2995 
L 5331 2995 
L 5331 5114 
L 1050 5114 
z
M 1478 1914 
C 1312 979 902 256 224 -186 
C 333 -256 518 -435 589 -518 
C 1011 -218 1344 192 1587 698 
C 2112 -186 2938 -384 4230 -384 
L 5984 -384 
C 6010 -250 6086 -38 6163 77 
C 5830 70 4493 64 4250 70 
C 3981 70 3725 77 3494 102 
L 3494 986 
L 5619 986 
L 5619 1408 
L 3494 1408 
L 3494 2125 
L 6035 2125 
L 6035 2554 
L 378 2554 
L 378 2125 
L 3014 2125 
L 3014 186 
C 2458 326 2048 627 1798 1216 
C 1862 1414 1914 1626 1958 1850 
L 1478 1914 
z
" transform="scale(0.015625)"/>
      <path id="NotoSansCJKjp-Regular-26bd" d="M 1702 5350 
C 1344 4378 749 3418 115 2797 
C 205 2688 339 2438 390 2323 
C 608 2547 819 2810 1024 3091 
L 1024 -499 
L 1485 -499 
L 1485 3808 
C 1747 4256 1978 4736 2163 5216 
L 1702 5350 
z
M 2074 3974 
L 2074 3507 
L 3827 3507 
L 3827 2195 
L 2445 2195 
L 2445 -512 
L 2918 -512 
L 2918 -237 
L 5267 -237 
L 5267 -486 
L 5754 -486 
L 5754 2195 
L 4320 2195 
L 4320 3507 
L 6144 3507 
L 6144 3974 
L 4320 3974 
L 4320 5376 
L 3827 5376 
L 3827 3974 
L 2074 3974 
z
M 2918 224 
L 2918 1741 
L 5267 1741 
L 5267 224 
L 2918 224 
z
" transform="scale(0.015625)"/>
     </defs>
     <use xlink:href="#NotoSansCJKjp-Regular-50c3"/>
     <use xlink:href="#NotoSansCJKjp-Regular-43f2" transform="translate(100 0)"/>
     <use xlink:href="#NotoSansCJKjp-Regular-2509" transform="translate(200 0)"/>
     <use xlink:href="#NotoSansCJKjp-Regular-26e3" transform="translate(300 0)"/>
     <use xlink:href="#NotoSansCJKjp-Regular-4f6d" transform="translate(400 0)"/>
     <use xlink:href="#NotoSansCJKjp-Regular-26bd" transform="translate(500 0)"/>
     <use xlink:href="#NotoSansCJKjp-Regular-6c33" transform="translate(600 0)"/>
    </g>
   </g>
   <g id="text_15">
    <!-- 測量讀數：最後一位是估計值，並附上不確定度 -->
    <g style="fill: #222831" transform="translate(200.04 19.52) scale(0.14 -0.14)">
     <defs>
      <path id="NotoSansCJKjp-Regular-a108" d="M 1600 4256 
L 4781 4256 
L 4781 3904 
L 1600 3904 
L 1600 4256 
z
M 1600 4883 
L 4781 4883 
L 4781 4538 
L 1600 4538 
L 1600 4883 
z
M 1133 5171 
L 1133 3616 
L 5261 3616 
L 5261 5171 
L 1133 5171 
z
M 333 3341 
L 333 2976 
L 6074 2976 
L 6074 3341 
L 333 3341 
z
M 1472 1747 
L 2957 1747 
L 2957 1376 
L 1472 1376 
L 1472 1747 
z
M 3424 1747 
L 4973 1747 
L 4973 1376 
L 3424 1376 
L 3424 1747 
z
M 1472 2387 
L 2957 2387 
L 2957 2029 
L 1472 2029 
L 1472 2387 
z
M 3424 2387 
L 4973 2387 
L 4973 2029 
L 3424 2029 
L 3424 2387 
z
M 301 19 
L 301 -352 
L 6112 -352 
L 6112 19 
L 3424 19 
L 3424 390 
L 5587 390 
L 5587 730 
L 3424 730 
L 3424 1082 
L 5446 1082 
L 5446 2688 
L 1018 2688 
L 1018 1082 
L 2957 1082 
L 2957 730 
L 838 730 
L 838 390 
L 2957 390 
L 2957 19 
L 301 19 
z
" transform="scale(0.015625)"/>
      <path id="NotoSansCJKjp-Regular-e6c0" d="M 3200 3482 
C 3456 3482 3686 3667 3686 3962 
C 3686 4256 3456 4442 3200 4442 
C 2944 4442 2714 4256 2714 3962 
C 2714 3667 2944 3482 3200 3482 
z
M 3200 346 
C 3456 346 3686 538 3686 826 
C 3686 1120 3456 1312 3200 1312 
C 2944 1312 2714 1120 2714 826 
C 2714 538 2944 346 3200 346 
z
" transform="scale(0.015625)"/>
      <path id="NotoSansCJKjp-Regular-92b6" d="M 550 3437 
L 550 3059 
L 2547 3059 
L 2547 3437 
L 550 3437 
z
M 582 5152 
L 582 4768 
L 2554 4768 
L 2554 5152 
L 582 5152 
z
M 550 2586 
L 550 2202 
L 2547 2202 
L 2547 2586 
L 550 2586 
z
M 243 4314 
L 243 3910 
L 2790 3910 
L 2790 4314 
L 243 4314 
z
M 4288 5357 
L 4288 3187 
L 2784 3187 
L 2784 2714 
L 4288 2714 
L 4288 -512 
L 4768 -512 
L 4768 2714 
L 6214 2714 
L 6214 3187 
L 4768 3187 
L 4768 5357 
L 4288 5357 
z
M 538 1722 
L 538 -442 
L 966 -442 
L 966 -147 
L 2528 -147 
L 2528 1722 
L 538 1722 
z
M 966 1318 
L 2099 1318 
L 2099 250 
L 966 250 
L 966 1318 
z
" transform="scale(0.015625)"/>
      <path id="NotoSansCJKjp-Regular-286c" d="M 3834 5376 
C 3814 5184 3782 4954 3750 4723 
L 2106 4723 
L 2106 4294 
L 3674 4294 
C 3635 4077 3597 3872 3552 3699 
L 2445 3699 
L 2445 90 
L 1830 90 
L 1830 -326 
L 6131 -326 
L 6131 90 
L 5562 90 
L 5562 3699 
L 3987 3699 
C 4038 3872 4090 4077 4134 4294 
L 5939 4294 
L 5939 4723 
L 4230 4723 
L 4346 5344 
L 3834 5376 
z
M 2880 90 
L 2880 621 
L 5114 621 
L 5114 90 
L 2880 90 
z
M 2880 2426 
L 5114 2426 
L 5114 1875 
L 2880 1875 
L 2880 2426 
z
M 2880 2784 
L 2880 3322 
L 5114 3322 
L 5114 2784 
L 2880 2784 
z
M 2880 1530 
L 5114 1530 
L 5114 973 
L 2880 973 
L 2880 1530 
z
M 1690 5370 
C 1350 4397 794 3443 205 2816 
C 288 2701 422 2451 474 2342 
C 659 2547 845 2784 1018 3040 
L 1018 -512 
L 1466 -512 
L 1466 3770 
C 1722 4230 1946 4730 2131 5229 
L 1690 5370 
z
" transform="scale(0.015625)"/>
      <path id="NotoSansCJKjp-Regular-e6b2" d="M 1005 -685 
C 1677 -448 2112 77 2112 768 
C 2112 1216 1920 1504 1568 1504 
C 1306 1504 1082 1344 1082 1043 
C 1082 742 1299 589 1562 589 
L 1670 602 
C 1638 160 1357 -141 864 -346 
L 1005 -685 
z
" transform="scale(0.015625)"/>
      <path id="NotoSansCJKjp-Regular-253e" d="M 5120 3072 
C 4966 2426 4666 1530 4416 973 
L 4838 851 
C 5101 1389 5408 2240 5632 2938 
L 5120 3072 
z
M 813 2893 
C 1120 2253 1370 1408 1427 858 
L 1888 973 
C 1824 1536 1568 2362 1248 3002 
L 813 2893 
z
M 1370 5197 
C 1619 4864 1875 4403 1984 4096 
L 512 4096 
L 512 3622 
L 2266 3622 
L 2266 256 
L 346 256 
L 346 -230 
L 6061 -230 
L 6061 256 
L 4109 256 
L 4109 3622 
L 5901 3622 
L 5901 4096 
L 4416 4096 
C 4640 4403 4902 4826 5114 5222 
L 4602 5376 
C 4454 5018 4173 4506 3942 4186 
L 4192 4096 
L 2035 4096 
L 2438 4269 
C 2330 4576 2061 5024 1792 5363 
L 1370 5197 
z
M 2739 3622 
L 3622 3622 
L 3622 256 
L 2739 256 
L 2739 3622 
z
" transform="scale(0.015625)"/>
      <path id="NotoSansCJKjp-Regular-a86d" d="M 3674 2650 
C 3910 2189 4198 1568 4326 1178 
L 4723 1370 
C 4589 1760 4301 2355 4045 2816 
L 3674 2650 
z
M 5133 5299 
L 5133 3904 
L 3539 3904 
L 3539 3456 
L 5133 3456 
L 5133 102 
C 5133 0 5094 -26 4998 -32 
C 4902 -38 4602 -38 4256 -26 
C 4326 -160 4390 -378 4416 -499 
C 4890 -506 5171 -486 5350 -410 
C 5523 -326 5594 -179 5594 109 
L 5594 3456 
L 6163 3456 
L 6163 3904 
L 5594 3904 
L 5594 5299 
L 5133 5299 
z
M 3302 5370 
C 3034 4435 2566 3520 2029 2925 
C 2125 2829 2278 2624 2336 2528 
C 2496 2714 2650 2925 2797 3162 
L 2797 -480 
L 3232 -480 
L 3232 3949 
C 3430 4365 3603 4806 3744 5254 
L 3302 5370 
z
M 531 5101 
L 531 -512 
L 960 -512 
L 960 4666 
L 1747 4666 
C 1619 4218 1446 3629 1280 3155 
C 1702 2630 1798 2170 1798 1818 
C 1798 1606 1766 1421 1677 1350 
C 1632 1312 1562 1293 1491 1293 
C 1402 1286 1286 1286 1152 1299 
C 1229 1178 1261 998 1261 870 
C 1402 864 1549 864 1670 883 
C 1792 896 1901 934 1984 1005 
C 2157 1126 2227 1408 2227 1766 
C 2227 2176 2131 2656 1702 3206 
C 1901 3738 2125 4397 2291 4941 
L 1984 5126 
L 1907 5101 
L 531 5101 
z
" transform="scale(0.015625)"/>
      <path id="NotoSansCJKjp-Regular-2515" d="M 2733 5280 
L 2733 275 
L 326 275 
L 326 -205 
L 6080 -205 
L 6080 275 
L 3238 275 
L 3238 2822 
L 5638 2822 
L 5638 3302 
L 3238 3302 
L 3238 5280 
L 2733 5280 
z
" transform="scale(0.015625)"/>
      <path id="NotoSansCJKjp-Regular-2518" d="M 3578 3059 
C 4339 2547 5299 1792 5754 1299 
L 6144 1670 
C 5664 2163 4691 2880 3936 3366 
L 3578 3059 
z
M 442 4928 
L 442 4435 
L 3290 4435 
C 2656 3341 1555 2259 282 1632 
C 384 1523 531 1331 608 1210 
C 1498 1677 2291 2336 2938 3078 
L 2938 -499 
L 3456 -499 
L 3456 3738 
C 3622 3962 3770 4198 3904 4435 
L 5958 4435 
L 5958 4928 
L 442 4928 
z
" transform="scale(0.015625)"/>
     </defs>
     <use xlink:href="#NotoSansCJKjp-Regular-5cee"/>
     <use xlink:href="#NotoSansCJKjp-Regular-a108" transform="translate(100 0)"/>
     <use xlink:href="#NotoSansCJKjp-Regular-95d4" transform="translate(200 0)"/>
     <use xlink:href="#NotoSansCJKjp-Regular-4e26" transform="translate(300 0)"/>
     <use xlink:href="#NotoSansCJKjp-Regular-e6c0" transform="translate(400 0)"/>
     <use xlink:href="#NotoSansCJKjp-Regular-50c3" transform="translate(500 0)"/>
     <use xlink:href="#NotoSansCJKjp-Regular-43f2" transform="translate(600 0)"/>
     <use xlink:href="#NotoSansCJKjp-Regular-2509" transform="translate(700 0)"/>
     <use xlink:href="#NotoSansCJKjp-Regular-26e3" transform="translate(800 0)"/>
     <use xlink:href="#NotoSansCJKjp-Regular-4f6d" transform="translate(900 0)"/>
     <use xlink:href="#NotoSansCJKjp-Regular-26bd" transform="translate(1000 0)"/>
     <use xlink:href="#NotoSansCJKjp-Regular-92b6" transform="translate(1100 0)"/>
     <use xlink:href="#NotoSansCJKjp-Regular-286c" transform="translate(1200 0)"/>
     <use xlink:href="#NotoSansCJKjp-Regular-e6b2" transform="translate(1300 0)"/>
     <use xlink:href="#NotoSansCJKjp-Regular-253e" transform="translate(1400 0)"/>
     <use xlink:href="#NotoSansCJKjp-Regular-a86d" transform="translate(1500 0)"/>
     <use xlink:href="#NotoSansCJKjp-Regular-2515" transform="translate(1600 0)"/>
     <use xlink:href="#NotoSansCJKjp-Regular-2518" transform="translate(1700 0)"/>
     <use xlink:href="#NotoSansCJKjp-Regular-6fac" transform="translate(1800 0)"/>
     <use xlink:href="#NotoSansCJKjp-Regular-3c8a" transform="translate(1900 0)"/>
     <use xlink:href="#NotoSansCJKjp-Regular-4231" transform="translate(2000 0)"/>
    </g>
   </g>
   <g id="line2d_29">
    <path d="M 75.168 116.144 
L 75.168 92.3552 
" clip-path="url(#peb10bd2036)" style="fill: none; stroke: #222831; stroke-width: 1.6; stroke-linecap: square"/>
   </g>
   <g id="line2d_30">
    <path d="M 256.416 116.144 
L 256.416 92.3552 
" clip-path="url(#peb10bd2036)" style="fill: none; stroke: #222831; stroke-width: 1.6; stroke-linecap: square"/>
   </g>
   <g id="line2d_31">
    <path d="M 437.664 116.144 
L 437.664 92.3552 
" clip-path="url(#peb10bd2036)" style="fill: none; stroke: #222831; stroke-width: 1.6; stroke-linecap: square"/>
   </g>
   <g id="line2d_32">
    <path d="M 618.912 116.144 
L 618.912 92.3552 
" clip-path="url(#peb10bd2036)" style="fill: none; stroke: #222831; stroke-width: 1.6; stroke-linecap: square"/>
   </g>
   <g id="patch_6">
    <path d="M 374.2272 52.7072 
Q 374.2272 71.3984 374.2272 88.300746 
" clip-path="url(#peb10bd2036)" style="fill: none; stroke: #d1242f; stroke-width: 1.6; stroke-linecap: round"/>
    <path d="M 377.8272 81.100746 
L 374.2272 88.300746 
L 370.6272 81.100746 
z
" clip-path="url(#peb10bd2036)" style="fill: #d1242f; stroke: #d1242f; stroke-width: 1.6; stroke-linecap: round"/>
   </g>
  </g>
 </g>
 <defs>
  <clipPath id="peb10bd2036">
   <rect x="7.2" y="25.52" width="679.68" height="396.48"/>
  </clipPath>
 </defs>
</svg>
