<?xml version="1.0" encoding="utf-8" standalone="no"?>
<!DOCTYPE svg PUBLIC "-//W3C//DTD SVG 1.1//EN"
  "http://www.w3.org/Graphics/SVG/1.1/DTD/svg11.dtd">
<svg xmlns:xlink="http://www.w3.org/1999/xlink" width="780.48pt" height="295.913563pt" viewBox="0 0 780.48 295.913563" xmlns="http://www.w3.org/2000/svg" version="1.1">
 <metadata>
  <rdf:RDF xmlns:dc="http://purl.org/dc/elements/1.1/" xmlns:cc="http://creativecommons.org/ns#" xmlns:rdf="http://www.w3.org/1999/02/22-rdf-syntax-ns#">
   <cc:Work>
    <dc:type rdf:resource="http://purl.org/dc/dcmitype/StillImage"/>
    <dc:date>2026-06-19T00:29:38.182277</dc:date>
    <dc:format>image/svg+xml</dc:format>
    <dc:creator>
     <cc:Agent>
      <dc:title>Matplotlib v3.11.0, https://matplotlib.org/</dc:title>
     </cc:Agent>
    </dc:creator>
   </cc:Work>
  </rdf:RDF>
 </metadata>
 <defs>
  <style type="text/css">*{stroke-linejoin: round; stroke-linecap: butt}</style>
 </defs>
 <g id="figure_1">
  <g id="patch_1">
   <path d="M 0 295.913563 
L 780.48 295.913563 
L 780.48 0 
L 0 0 
z
" style="fill: #ffffff"/>
  </g>
  <g id="patch_2">
   <path d="M 7.2 288.713563 
L 253.92 288.713563 
L 253.92 41.993562 
L 7.2 41.993562 
z
" style="fill: #ffffff"/>
  </g>
  <g id="pane3d_1"/>
  <g id="pane3d_2"/>
  <g id="pane3d_3"/>
  <g id="axis3d_1">
   <g id="line2d_1">
    <path d="M 27.525818 232.010019 
L 159.972588 263.193851 
" style="fill: none; stroke: #222831; stroke-width: 1.1; stroke-linecap: square"/>
   </g>
  </g>
  <g id="axis3d_2">
   <g id="line2d_2">
    <path d="M 236.662801 214.978052 
L 159.972588 263.193851 
" style="fill: none; stroke: #222831; stroke-width: 1.1; stroke-linecap: square"/>
   </g>
  </g>
  <g id="axis3d_3">
   <g id="line2d_3">
    <path d="M 236.662801 214.978052 
L 239.773312 92.350747 
" style="fill: none; stroke: #222831; stroke-width: 1.1; stroke-linecap: square"/>
   </g>
  </g>
  <g id="axes_1">
   <g id="text_1">
    <!-- L1 -->
    <g style="fill: #1f6feb" transform="translate(200.765409 142.019161) scale(0.12 -0.12)">
     <defs>
      <path id="NotoSansCJKjp-Regular-2d" d="M 646 0 
L 3290 0 
L 3290 506 
L 1235 506 
L 1235 4691 
L 646 4691 
L 646 0 
z
" transform="scale(0.015625)"/>
      <path id="NotoSansCJKjp-Regular-f6b2" d="M 563 0 
L 3136 0 
L 3136 486 
L 2195 486 
L 2195 4563 
L 1747 4563 
C 1491 4410 1190 4301 774 4224 
L 774 3853 
L 1613 3853 
L 1613 486 
L 563 486 
L 563 0 
z
" transform="scale(0.015625)"/>
     </defs>
     <use xlink:href="#NotoSansCJKjp-Regular-2d"/>
     <use xlink:href="#NotoSansCJKjp-Regular-f6b2" transform="translate(54.296875 0)"/>
    </g>
   </g>
   <g id="text_2">
    <!-- L2 -->
    <g style="fill: #1a7f37" transform="translate(173.41475 182.170237) scale(0.12 -0.12)">
     <defs>
      <path id="NotoSansCJKjp-Regular-f6b3" d="M 282 0 
L 3232 0 
L 3232 506 
L 1907 506 
C 1670 506 1382 480 1139 461 
C 2221 1594 3008 2451 3008 3309 
C 3008 4115 2477 4646 1638 4646 
C 1043 4646 634 4378 256 3955 
L 595 3629 
C 858 3930 1184 4173 1568 4173 
C 2150 4173 2432 3802 2432 3283 
C 2432 2534 1658 1715 282 346 
L 282 0 
z
" transform="scale(0.015625)"/>
     </defs>
     <use xlink:href="#NotoSansCJKjp-Regular-2d"/>
     <use xlink:href="#NotoSansCJKjp-Regular-f6b3" transform="translate(54.296875 0)"/>
    </g>
   </g>
   <g id="text_3">
    <!-- 平行：方向相同、不相交（共平面） -->
    <g style="fill: #222831" transform="translate(34.56 35.993562) scale(0.12 -0.12)">
     <defs>
      <path id="NotoSansCJKjp-Regular-41d6" d="M 1114 4032 
C 1363 3558 1613 2938 1702 2554 
L 2157 2714 
C 2067 3085 1805 3699 1549 4160 
L 1114 4032 
z
M 4832 4192 
C 4672 3725 4378 3072 4134 2669 
L 4550 2534 
C 4800 2918 5101 3533 5338 4051 
L 4832 4192 
z
M 333 2227 
L 333 1747 
L 2938 1747 
L 2938 -506 
L 3437 -506 
L 3437 1747 
L 6074 1747 
L 6074 2227 
L 3437 2227 
L 3437 4467 
L 5715 4467 
L 5715 4947 
L 672 4947 
L 672 4467 
L 2938 4467 
L 2938 2227 
L 333 2227 
z
" transform="scale(0.015625)"/>
      <path id="NotoSansCJKjp-Regular-8f66" d="M 2784 4992 
L 2784 4531 
L 5933 4531 
L 5933 4992 
L 2784 4992 
z
M 1709 5382 
C 1382 4915 762 4346 224 3981 
C 307 3891 442 3706 506 3597 
C 1082 4006 1741 4634 2170 5190 
L 1709 5382 
z
M 2502 3226 
L 2502 2765 
L 4659 2765 
L 4659 109 
C 4659 6 4614 -26 4493 -32 
C 4378 -38 3942 -38 3488 -19 
C 3558 -160 3629 -358 3648 -493 
C 4275 -493 4640 -493 4858 -422 
C 5069 -339 5146 -192 5146 102 
L 5146 2765 
L 6112 2765 
L 6112 3226 
L 2502 3226 
z
M 1965 4006 
C 1523 3277 819 2534 160 2061 
C 256 1965 429 1754 499 1658 
C 736 1850 986 2080 1229 2330 
L 1229 -531 
L 1702 -531 
L 1702 2854 
C 1971 3174 2214 3507 2419 3840 
L 1965 4006 
z
" transform="scale(0.015625)"/>
      <path id="NotoSansCJKjp-Regular-e6c0" d="M 3200 3482 
C 3456 3482 3686 3667 3686 3962 
C 3686 4256 3456 4442 3200 4442 
C 2944 4442 2714 4256 2714 3962 
C 2714 3667 2944 3482 3200 3482 
z
M 3200 346 
C 3456 346 3686 538 3686 826 
C 3686 1120 3456 1312 3200 1312 
C 2944 1312 2714 1120 2714 826 
C 2714 538 2944 346 3200 346 
z
" transform="scale(0.015625)"/>
      <path id="NotoSansCJKjp-Regular-4ea0" d="M 2931 5395 
L 2931 4269 
L 339 4269 
L 339 3808 
L 2310 3808 
C 2240 2330 2054 666 269 -147 
C 397 -243 544 -416 621 -538 
C 1926 90 2438 1152 2669 2298 
L 4787 2298 
C 4685 819 4557 186 4371 19 
C 4294 -51 4211 -58 4064 -58 
C 3898 -58 3443 -51 2982 -13 
C 3078 -147 3142 -346 3155 -480 
C 3584 -506 4013 -512 4230 -499 
C 4480 -486 4634 -435 4781 -282 
C 5030 -26 5165 685 5293 2522 
C 5306 2598 5312 2758 5312 2758 
L 2746 2758 
C 2790 3110 2822 3462 2842 3808 
L 6067 3808 
L 6067 4269 
L 3424 4269 
L 3424 5395 
L 2931 5395 
z
" transform="scale(0.015625)"/>
      <path id="NotoSansCJKjp-Regular-2eb8" d="M 2803 5389 
C 2714 5062 2554 4614 2394 4269 
L 634 4269 
L 634 -512 
L 1107 -512 
L 1107 3802 
L 5325 3802 
L 5325 128 
C 5325 13 5286 -26 5158 -26 
C 5024 -32 4582 -38 4122 -13 
C 4192 -154 4262 -378 4288 -512 
C 4877 -512 5274 -506 5504 -429 
C 5728 -346 5805 -192 5805 128 
L 5805 4269 
L 2925 4269 
C 3085 4576 3258 4947 3398 5293 
L 2803 5389 
z
M 2387 2522 
L 4006 2522 
L 4006 1267 
L 2387 1267 
L 2387 2522 
z
M 1946 2950 
L 1946 371 
L 2387 371 
L 2387 832 
L 4454 832 
L 4454 2950 
L 1946 2950 
z
" transform="scale(0.015625)"/>
      <path id="NotoSansCJKjp-Regular-6ce8" d="M 3494 3034 
L 5440 3034 
L 5440 1920 
L 3494 1920 
L 3494 3034 
z
M 3494 3469 
L 3494 4544 
L 5440 4544 
L 5440 3469 
L 3494 3469 
z
M 3494 1478 
L 5440 1478 
L 5440 365 
L 3494 365 
L 3494 1478 
z
M 3027 4998 
L 3027 -467 
L 3494 -467 
L 3494 -77 
L 5440 -77 
L 5440 -448 
L 5926 -448 
L 5926 4998 
L 3027 4998 
z
M 1370 5376 
L 1370 4006 
L 333 4006 
L 333 3546 
L 1312 3546 
C 1088 2662 634 1651 186 1120 
C 262 1005 384 813 435 685 
C 781 1126 1120 1837 1370 2573 
L 1370 -506 
L 1837 -506 
L 1837 2419 
C 2080 2106 2368 1709 2490 1498 
L 2784 1888 
C 2643 2061 2061 2746 1837 2970 
L 1837 3546 
L 2752 3546 
L 2752 4006 
L 1837 4006 
L 1837 5376 
L 1370 5376 
z
" transform="scale(0.015625)"/>
      <path id="NotoSansCJKjp-Regular-2eb1" d="M 1587 3917 
L 1587 3501 
L 4838 3501 
L 4838 3917 
L 1587 3917 
z
M 2355 2419 
L 4045 2419 
L 4045 1203 
L 2355 1203 
L 2355 2419 
z
M 1914 2829 
L 1914 326 
L 2355 326 
L 2355 794 
L 4493 794 
L 4493 2829 
L 1914 2829 
z
M 563 5043 
L 563 -525 
L 1030 -525 
L 1030 4589 
L 5376 4589 
L 5376 102 
C 5376 -13 5338 -51 5222 -58 
C 5114 -58 4742 -64 4339 -51 
C 4416 -173 4486 -390 4512 -518 
C 5062 -518 5389 -506 5581 -429 
C 5779 -352 5850 -198 5850 96 
L 5850 5043 
L 563 5043 
z
" transform="scale(0.015625)"/>
      <path id="NotoSansCJKjp-Regular-575" d="M 1747 -358 
L 2182 13 
C 1786 480 1210 1062 749 1434 
L 333 1069 
C 787 698 1338 147 1747 -358 
z
" transform="scale(0.015625)"/>
      <path id="NotoSansCJKjp-Regular-2518" d="M 3578 3059 
C 4339 2547 5299 1792 5754 1299 
L 6144 1670 
C 5664 2163 4691 2880 3936 3366 
L 3578 3059 
z
M 442 4928 
L 442 4435 
L 3290 4435 
C 2656 3341 1555 2259 282 1632 
C 384 1523 531 1331 608 1210 
C 1498 1677 2291 2336 2938 3078 
L 2938 -499 
L 3456 -499 
L 3456 3738 
C 3622 3962 3770 4198 3904 4435 
L 5958 4435 
L 5958 4928 
L 442 4928 
z
" transform="scale(0.015625)"/>
      <path id="NotoSansCJKjp-Regular-25eb" d="M 2035 3878 
C 1645 3328 973 2803 346 2470 
C 461 2374 653 2189 736 2086 
C 1357 2470 2074 3078 2528 3693 
L 2035 3878 
z
M 3955 3610 
C 4570 3187 5312 2566 5651 2144 
L 6074 2483 
C 5702 2906 4954 3501 4346 3898 
L 3955 3610 
z
M 2298 2739 
L 1843 2598 
C 2093 1978 2426 1446 2842 1005 
C 2170 480 1299 141 256 -77 
C 352 -192 506 -416 563 -538 
C 1606 -275 2496 102 3200 666 
C 3885 83 4762 -307 5850 -512 
C 5920 -378 6061 -166 6170 -58 
C 5107 115 4243 474 3578 998 
C 4019 1440 4378 1978 4634 2630 
L 4128 2778 
C 3917 2195 3610 1722 3213 1325 
C 2816 1722 2509 2195 2298 2739 
z
M 2944 5382 
L 2944 4544 
L 390 4544 
L 390 4070 
L 6010 4070 
L 6010 4544 
L 3430 4544 
L 3430 5382 
L 2944 5382 
z
" transform="scale(0.015625)"/>
      <path id="NotoSansCJKjp-Regular-e6ae" d="M 4448 2432 
C 4448 1184 4954 166 5722 -614 
L 6106 -416 
C 5370 346 4915 1293 4915 2432 
C 4915 3571 5370 4518 6106 5280 
L 5722 5478 
C 4954 4698 4448 3680 4448 2432 
z
" transform="scale(0.015625)"/>
      <path id="NotoSansCJKjp-Regular-2aa6" d="M 3757 960 
C 4365 512 5146 -128 5530 -512 
L 5984 -218 
C 5568 173 4768 781 4179 1210 
L 3757 960 
z
M 2106 1197 
C 1747 717 1024 160 397 -179 
C 506 -262 678 -416 774 -518 
C 1421 -147 2144 448 2605 1005 
L 2106 1197 
z
M 570 4019 
L 570 3558 
L 1792 3558 
L 1792 2035 
L 307 2035 
L 307 1568 
L 6118 1568 
L 6118 2035 
L 4608 2035 
L 4608 3558 
L 5888 3558 
L 5888 4019 
L 4608 4019 
L 4608 5318 
L 4115 5318 
L 4115 4019 
L 2285 4019 
L 2285 5318 
L 1792 5318 
L 1792 4019 
L 570 4019 
z
M 2285 2035 
L 2285 3558 
L 4115 3558 
L 4115 2035 
L 2285 2035 
z
" transform="scale(0.015625)"/>
      <path id="NotoSansCJKjp-Regular-aaab" d="M 2490 2138 
L 3846 2138 
L 3846 1414 
L 2490 1414 
L 2490 2138 
z
M 2490 2528 
L 2490 3238 
L 3846 3238 
L 3846 2528 
L 2490 2528 
z
M 2490 1024 
L 3846 1024 
L 3846 275 
L 2490 275 
L 2490 1024 
z
M 371 4954 
L 371 4493 
L 2842 4493 
C 2797 4230 2726 3930 2662 3686 
L 666 3686 
L 666 -512 
L 1126 -512 
L 1126 -173 
L 5248 -173 
L 5248 -512 
L 5734 -512 
L 5734 3686 
L 3155 3686 
L 3405 4493 
L 6048 4493 
L 6048 4954 
L 371 4954 
z
M 1126 275 
L 1126 3238 
L 2048 3238 
L 2048 275 
L 1126 275 
z
M 5248 275 
L 4288 275 
L 4288 3238 
L 5248 3238 
L 5248 275 
z
" transform="scale(0.015625)"/>
      <path id="NotoSansCJKjp-Regular-e6af" d="M 1952 2432 
C 1952 3680 1446 4698 678 5478 
L 294 5280 
C 1030 4518 1485 3571 1485 2432 
C 1485 1293 1030 346 294 -416 
L 678 -614 
C 1446 166 1952 1184 1952 2432 
z
" transform="scale(0.015625)"/>
     </defs>
     <use xlink:href="#NotoSansCJKjp-Regular-41d6"/>
     <use xlink:href="#NotoSansCJKjp-Regular-8f66" transform="translate(100 0)"/>
     <use xlink:href="#NotoSansCJKjp-Regular-e6c0" transform="translate(200 0)"/>
     <use xlink:href="#NotoSansCJKjp-Regular-4ea0" transform="translate(300 0)"/>
     <use xlink:href="#NotoSansCJKjp-Regular-2eb8" transform="translate(400 0)"/>
     <use xlink:href="#NotoSansCJKjp-Regular-6ce8" transform="translate(500 0)"/>
     <use xlink:href="#NotoSansCJKjp-Regular-2eb1" transform="translate(600 0)"/>
     <use xlink:href="#NotoSansCJKjp-Regular-575" transform="translate(700 0)"/>
     <use xlink:href="#NotoSansCJKjp-Regular-2518" transform="translate(800 0)"/>
     <use xlink:href="#NotoSansCJKjp-Regular-6ce8" transform="translate(900 0)"/>
     <use xlink:href="#NotoSansCJKjp-Regular-25eb" transform="translate(1000 0)"/>
     <use xlink:href="#NotoSansCJKjp-Regular-e6ae" transform="translate(1100 0)"/>
     <use xlink:href="#NotoSansCJKjp-Regular-2aa6" transform="translate(1200 0)"/>
     <use xlink:href="#NotoSansCJKjp-Regular-41d6" transform="translate(1300 0)"/>
     <use xlink:href="#NotoSansCJKjp-Regular-aaab" transform="translate(1400 0)"/>
     <use xlink:href="#NotoSansCJKjp-Regular-e6af" transform="translate(1500 0)"/>
    </g>
   </g>
   <g id="line2d_4">
    <path d="M 69.074952 153.680096 
L 74.125064 152.951798 
L 79.180813 152.222687 
L 84.242209 151.492761 
L 89.309262 150.76202 
L 94.38198 150.030462 
L 99.460374 149.298085 
L 104.544453 148.564888 
L 109.634226 147.83087 
L 114.729704 147.09603 
L 119.830895 146.360366 
L 124.937809 145.623876 
L 130.050456 144.886559 
L 135.168846 144.148414 
L 140.292988 143.40944 
L 145.422892 142.669635 
L 150.558568 141.928997 
L 155.700025 141.187526 
L 160.847274 140.445219 
L 166.000323 139.702076 
L 171.159183 138.958095 
L 176.323864 138.213274 
L 181.494375 137.467613 
L 186.670727 136.721109 
L 191.852929 135.973761 
L 197.040991 135.225569 
L 202.234924 134.47653 
L 207.434736 133.726643 
L 212.640438 132.975906 
L 217.852041 132.224319 
" clip-path="url(#pd43fcd9531)" style="fill: none; stroke: #1f6feb; stroke-width: 2.6; stroke-linecap: square"/>
   </g>
   <g id="line2d_5">
    <path d="M 49.457144 196.452956 
L 54.666484 195.72473 
L 59.881836 194.995663 
L 65.103211 194.265754 
L 70.330618 193.535003 
L 75.564068 192.803406 
L 80.803571 192.070963 
L 86.049139 191.337673 
L 91.300781 190.603533 
L 96.558508 189.868543 
L 101.822331 189.1327 
L 107.092261 188.396004 
L 112.368307 187.658453 
L 117.650481 186.920045 
L 122.938794 186.180779 
L 128.233255 185.440653 
L 133.533876 184.699667 
L 138.840668 183.957818 
L 144.153641 183.215104 
L 149.472806 182.471525 
L 154.798174 181.727079 
L 160.129755 180.981765 
L 165.467562 180.23558 
L 170.811604 179.488523 
L 176.161892 178.740594 
L 181.518438 177.991789 
L 186.881252 177.242108 
L 192.250346 176.49155 
L 197.625731 175.740112 
L 203.007416 174.987793 
" clip-path="url(#pd43fcd9531)" style="fill: none; stroke: #1a7f37; stroke-width: 2.6; stroke-linecap: square"/>
   </g>
  </g>
  <g id="patch_3">
   <path d="M 266.88 288.713563 
L 513.6 288.713563 
L 513.6 41.993562 
L 266.88 41.993562 
z
" style="fill: #ffffff"/>
  </g>
  <g id="pane3d_4"/>
  <g id="pane3d_5"/>
  <g id="pane3d_6"/>
  <g id="axis3d_4">
   <g id="line2d_6">
    <path d="M 287.205818 232.010019 
L 419.652588 263.193851 
" style="fill: none; stroke: #222831; stroke-width: 1.1; stroke-linecap: square"/>
   </g>
  </g>
  <g id="axis3d_5">
   <g id="line2d_7">
    <path d="M 496.342801 214.978052 
L 419.652588 263.193851 
" style="fill: none; stroke: #222831; stroke-width: 1.1; stroke-linecap: square"/>
   </g>
  </g>
  <g id="axis3d_6">
   <g id="line2d_8">
    <path d="M 496.342801 214.978052 
L 499.453312 92.350747 
" style="fill: none; stroke: #222831; stroke-width: 1.1; stroke-linecap: square"/>
   </g>
  </g>
  <g id="axes_2">
   <g id="Path3DCollection_1">
    <defs>
     <path id="mb715b41db6" d="M 0 3.354102 
C 0.889518 3.354102 1.742724 3.000693 2.371708 2.371708 
C 3.000693 1.742724 3.354102 0.889518 3.354102 0 
C 3.354102 -0.889518 3.000693 -1.742724 2.371708 -2.371708 
C 1.742724 -3.000693 0.889518 -3.354102 0 -3.354102 
C -0.889518 -3.354102 -1.742724 -3.000693 -2.371708 -2.371708 
C -3.000693 -1.742724 -3.354102 -0.889518 -3.354102 0 
C -3.354102 0.889518 -3.000693 1.742724 -2.371708 2.371708 
C -1.742724 3.000693 -0.889518 3.354102 0 3.354102 
z
" style="stroke: #d1242f"/>
    </defs>
    <g clip-path="url(#p1406241e98)">
     <use xlink:href="#mb715b41db6" x="393.574054" y="162.019508" style="fill: #d1242f; stroke: #d1242f"/>
    </g>
   </g>
   <g id="text_4">
    <!-- 交點 -->
    <g style="fill: #d1242f" transform="translate(399.665207 178.477553) scale(0.11 -0.11)">
     <defs>
      <path id="NotoSansCJKjp-Regular-b7c4" d="M 966 4474 
C 1069 4166 1152 3757 1165 3494 
L 1421 3565 
C 1402 3821 1312 4230 1203 4538 
L 966 4474 
z
M 1178 813 
C 1267 454 1338 0 1331 -307 
L 1664 -262 
C 1664 38 1594 499 1498 851 
L 1178 813 
z
M 1792 851 
C 1939 518 2067 90 2106 -192 
L 2432 -115 
C 2387 166 2246 589 2099 915 
L 1792 851 
z
M 2406 934 
C 2618 634 2848 224 2938 -45 
L 3258 96 
C 3162 365 2931 762 2701 1056 
L 2406 934 
z
M 634 838 
C 582 390 454 -70 205 -333 
L 538 -512 
C 806 -224 915 269 973 742 
L 634 838 
z
M 2272 4557 
C 2214 4262 2086 3808 1997 3533 
L 2202 3456 
C 2317 3706 2445 4122 2554 4454 
L 2272 4557 
z
M 4314 5363 
L 4314 2330 
L 3379 2330 
L 3379 -506 
L 3827 -506 
L 3827 -211 
L 5440 -211 
L 5440 -480 
L 5901 -480 
L 5901 2330 
L 4781 2330 
L 4781 3526 
L 6150 3526 
L 6150 3974 
L 4781 3974 
L 4781 5363 
L 4314 5363 
z
M 3827 237 
L 3827 1894 
L 5440 1894 
L 5440 237 
L 3827 237 
z
M 877 4794 
L 1568 4794 
L 1568 3245 
L 877 3245 
L 877 4794 
z
M 1894 4794 
L 2637 4794 
L 2637 3245 
L 1894 3245 
L 1894 4794 
z
M 448 2451 
L 448 2067 
L 1517 2067 
L 1517 1568 
L 314 1510 
L 333 1088 
C 1075 1133 2138 1203 3155 1274 
L 3168 1658 
L 1946 1594 
L 1946 2067 
L 3072 2067 
L 3072 2451 
L 1946 2451 
L 1946 2893 
L 3027 2893 
L 3027 5146 
L 493 5146 
L 493 2893 
L 1517 2893 
L 1517 2451 
L 448 2451 
z
" transform="scale(0.015625)"/>
     </defs>
     <use xlink:href="#NotoSansCJKjp-Regular-25eb"/>
     <use xlink:href="#NotoSansCJKjp-Regular-b7c4" transform="translate(100 0)"/>
    </g>
   </g>
   <g id="text_5">
    <!-- L1 -->
    <g style="fill: #1f6feb" transform="translate(463.047132 142.484488) scale(0.12 -0.12)">
     <use xlink:href="#NotoSansCJKjp-Regular-2d"/>
     <use xlink:href="#NotoSansCJKjp-Regular-f6b2" transform="translate(54.296875 0)"/>
    </g>
   </g>
   <g id="text_6">
    <!-- L2 -->
    <g style="fill: #1a7f37" transform="translate(385.196812 126.376593) scale(0.12 -0.12)">
     <use xlink:href="#NotoSansCJKjp-Regular-2d"/>
     <use xlink:href="#NotoSansCJKjp-Regular-f6b3" transform="translate(54.296875 0)"/>
    </g>
   </g>
   <g id="text_7">
    <!-- 相交：方向不同、有交點（共平面） -->
    <g style="fill: #222831" transform="translate(294.24 35.993562) scale(0.12 -0.12)">
     <defs>
      <path id="NotoSansCJKjp-Regular-50d7" d="M 2502 5376 
C 2426 5101 2336 4819 2221 4544 
L 403 4544 
L 403 4096 
L 2022 4096 
C 1613 3251 1024 2470 256 1946 
C 346 1856 499 1683 563 1574 
C 966 1862 1325 2208 1632 2598 
L 1632 -506 
L 2106 -506 
L 2106 762 
L 4787 762 
L 4787 96 
C 4787 0 4755 -38 4646 -38 
C 4525 -45 4134 -51 3712 -32 
C 3776 -166 3846 -365 3872 -493 
C 4422 -493 4774 -493 4986 -422 
C 5197 -339 5261 -192 5261 90 
L 5261 3354 
L 2150 3354 
C 2298 3597 2426 3840 2541 4096 
L 6010 4096 
L 6010 4544 
L 2733 4544 
C 2829 4781 2912 5024 2989 5261 
L 2502 5376 
z
M 2106 1850 
L 4787 1850 
L 4787 1178 
L 2106 1178 
L 2106 1850 
z
M 2106 2259 
L 2106 2918 
L 4787 2918 
L 4787 2259 
L 2106 2259 
z
" transform="scale(0.015625)"/>
     </defs>
     <use xlink:href="#NotoSansCJKjp-Regular-6ce8"/>
     <use xlink:href="#NotoSansCJKjp-Regular-25eb" transform="translate(100 0)"/>
     <use xlink:href="#NotoSansCJKjp-Regular-e6c0" transform="translate(200 0)"/>
     <use xlink:href="#NotoSansCJKjp-Regular-4ea0" transform="translate(300 0)"/>
     <use xlink:href="#NotoSansCJKjp-Regular-2eb8" transform="translate(400 0)"/>
     <use xlink:href="#NotoSansCJKjp-Regular-2518" transform="translate(500 0)"/>
     <use xlink:href="#NotoSansCJKjp-Regular-2eb1" transform="translate(600 0)"/>
     <use xlink:href="#NotoSansCJKjp-Regular-575" transform="translate(700 0)"/>
     <use xlink:href="#NotoSansCJKjp-Regular-50d7" transform="translate(800 0)"/>
     <use xlink:href="#NotoSansCJKjp-Regular-25eb" transform="translate(900 0)"/>
     <use xlink:href="#NotoSansCJKjp-Regular-b7c4" transform="translate(1000 0)"/>
     <use xlink:href="#NotoSansCJKjp-Regular-e6ae" transform="translate(1100 0)"/>
     <use xlink:href="#NotoSansCJKjp-Regular-2aa6" transform="translate(1200 0)"/>
     <use xlink:href="#NotoSansCJKjp-Regular-41d6" transform="translate(1300 0)"/>
     <use xlink:href="#NotoSansCJKjp-Regular-aaab" transform="translate(1400 0)"/>
     <use xlink:href="#NotoSansCJKjp-Regular-e6af" transform="translate(1500 0)"/>
    </g>
   </g>
   <g id="line2d_9">
    <path d="M 319.402945 179.8369 
L 324.492473 178.614293 
L 329.585794 177.390775 
L 334.682912 176.166345 
L 339.783831 174.941001 
L 344.888555 173.714744 
L 349.997089 172.487571 
L 355.109438 171.259482 
L 360.225604 170.030476 
L 365.345593 168.800552 
L 370.469409 167.569709 
L 375.597057 166.337945 
L 380.728539 165.105259 
L 385.863862 163.871652 
L 391.003028 162.637121 
L 396.146043 161.401665 
L 401.29291 160.165284 
L 406.443635 158.927976 
L 411.598221 157.689741 
L 416.756672 156.450578 
L 421.918994 155.210484 
L 427.08519 153.96946 
L 432.255265 152.727504 
L 437.429223 151.484615 
L 442.607069 150.240793 
L 447.788806 148.996035 
L 452.97444 147.750342 
L 458.163975 146.503711 
L 463.357414 145.256143 
L 468.554764 144.007635 
" clip-path="url(#p1406241e98)" style="fill: none; stroke: #1f6feb; stroke-width: 2.6; stroke-linecap: square"/>
   </g>
   <g id="line2d_10">
    <path d="M 397.755253 199.278562 
L 397.452453 196.580281 
L 397.151891 193.901946 
L 396.853542 191.243336 
L 396.557383 188.604236 
L 396.26339 185.98443 
L 395.971538 183.383709 
L 395.681804 180.801863 
L 395.394165 178.238689 
L 395.108599 175.693985 
L 394.825084 173.167551 
L 394.543597 170.659192 
L 394.264116 168.168715 
L 393.986621 165.695928 
L 393.71109 163.240645 
L 393.437502 160.802679 
L 393.165837 158.381848 
L 392.896075 155.977973 
L 392.628196 153.590876 
L 392.362179 151.220381 
L 392.098007 148.866316 
L 391.835659 146.528511 
L 391.575118 144.206798 
L 391.316363 141.901012 
L 391.059377 139.610989 
L 390.804143 137.336567 
L 390.550641 135.077589 
L 390.298854 132.833897 
L 390.048766 130.605337 
L 389.800359 128.391756 
" clip-path="url(#p1406241e98)" style="fill: none; stroke: #1a7f37; stroke-width: 2.6; stroke-linecap: square"/>
   </g>
  </g>
  <g id="patch_4">
   <path d="M 526.56 288.713563 
L 773.28 288.713563 
L 773.28 41.993562 
L 526.56 41.993562 
z
" style="fill: #ffffff"/>
  </g>
  <g id="pane3d_7"/>
  <g id="pane3d_8"/>
  <g id="pane3d_9"/>
  <g id="axis3d_7">
   <g id="line2d_11">
    <path d="M 546.885818 232.010019 
L 679.332588 263.193851 
" style="fill: none; stroke: #222831; stroke-width: 1.1; stroke-linecap: square"/>
   </g>
  </g>
  <g id="axis3d_8">
   <g id="line2d_12">
    <path d="M 756.022801 214.978052 
L 679.332588 263.193851 
" style="fill: none; stroke: #222831; stroke-width: 1.1; stroke-linecap: square"/>
   </g>
  </g>
  <g id="axis3d_9">
   <g id="line2d_13">
    <path d="M 756.022801 214.978052 
L 759.133312 92.350747 
" style="fill: none; stroke: #222831; stroke-width: 1.1; stroke-linecap: square"/>
   </g>
  </g>
  <g id="axes_3">
   <g id="text_8">
    <!-- L1 -->
    <g style="fill: #1f6feb" transform="translate(704.106473 214.805204) scale(0.12 -0.12)">
     <use xlink:href="#NotoSansCJKjp-Regular-2d"/>
     <use xlink:href="#NotoSansCJKjp-Regular-f6b2" transform="translate(54.296875 0)"/>
    </g>
   </g>
   <g id="text_9">
    <!-- L2 -->
    <g style="fill: #1a7f37" transform="translate(683.867204 105.486552) scale(0.12 -0.12)">
     <use xlink:href="#NotoSansCJKjp-Regular-2d"/>
     <use xlink:href="#NotoSansCJKjp-Regular-f6b3" transform="translate(54.296875 0)"/>
    </g>
   </g>
   <g id="text_10">
    <!-- 歪斜：方向不同、不相交（不共平面） -->
    <g style="fill: #222831" transform="translate(547.92 35.993562) scale(0.12 -0.12)">
     <defs>
      <path id="NotoSansCJKjp-Regular-5866" d="M 3584 3802 
C 4314 3514 5216 3040 5702 2707 
L 6029 3046 
C 5536 3360 4634 3821 3910 4102 
L 3584 3802 
z
M 1331 1510 
L 1331 70 
L 301 70 
L 301 -358 
L 6118 -358 
L 6118 70 
L 3469 70 
L 3469 787 
L 5491 787 
L 5491 1203 
L 3469 1203 
L 3469 1856 
L 5856 1856 
L 5856 2278 
L 582 2278 
L 582 1856 
L 2989 1856 
L 2989 70 
L 1798 70 
L 1798 1510 
L 1331 1510 
z
M 493 5056 
L 493 4621 
L 3200 4621 
C 2490 3942 1427 3392 378 3053 
C 493 2963 659 2765 736 2669 
C 1485 2950 2272 3347 2944 3827 
L 2944 2490 
L 3437 2490 
L 3437 4218 
C 3584 4346 3725 4480 3853 4621 
L 5926 4621 
L 5926 5056 
L 493 5056 
z
" transform="scale(0.015625)"/>
      <path id="NotoSansCJKjp-Regular-4e67" d="M 2438 1606 
C 2669 1184 2899 627 2976 275 
L 3373 448 
C 3290 787 3053 1331 2816 1747 
L 2438 1606 
z
M 794 1734 
C 672 1216 454 678 186 314 
C 294 262 480 147 563 77 
C 832 467 1082 1069 1229 1638 
L 794 1734 
z
M 3379 3059 
C 3770 2816 4224 2432 4429 2163 
L 4755 2477 
C 4544 2746 4077 3110 3693 3341 
L 3379 3059 
z
M 3603 4659 
C 3974 4390 4397 3987 4589 3706 
L 4934 4006 
C 4736 4282 4307 4666 3930 4922 
L 3603 4659 
z
M 1581 5376 
C 1318 4768 813 4000 96 3430 
C 198 3360 346 3200 416 3098 
C 557 3213 691 3341 813 3462 
L 813 3232 
L 1664 3232 
L 1664 2541 
L 326 2541 
L 326 2106 
L 1664 2106 
L 1664 26 
C 1664 -58 1638 -77 1555 -83 
C 1472 -83 1210 -83 915 -77 
C 979 -205 1050 -390 1069 -518 
C 1485 -518 1741 -506 1901 -429 
C 2067 -358 2125 -230 2125 19 
L 2125 2106 
L 3283 2106 
L 3283 2541 
L 2125 2541 
L 2125 3232 
L 2957 3232 
L 2957 3661 
L 998 3661 
C 1376 4083 1664 4518 1875 4896 
C 2291 4538 2746 4026 2970 3699 
L 3334 4090 
C 3053 4461 2496 4998 2042 5376 
L 1581 5376 
z
M 3290 1331 
L 3392 883 
L 5069 1242 
L 5069 -499 
L 5542 -499 
L 5542 1344 
L 6227 1491 
L 6131 1933 
L 5542 1811 
L 5542 5370 
L 5069 5370 
L 5069 1709 
L 3290 1331 
z
" transform="scale(0.015625)"/>
     </defs>
     <use xlink:href="#NotoSansCJKjp-Regular-5866"/>
     <use xlink:href="#NotoSansCJKjp-Regular-4e67" transform="translate(100 0)"/>
     <use xlink:href="#NotoSansCJKjp-Regular-e6c0" transform="translate(200 0)"/>
     <use xlink:href="#NotoSansCJKjp-Regular-4ea0" transform="translate(300 0)"/>
     <use xlink:href="#NotoSansCJKjp-Regular-2eb8" transform="translate(400 0)"/>
     <use xlink:href="#NotoSansCJKjp-Regular-2518" transform="translate(500 0)"/>
     <use xlink:href="#NotoSansCJKjp-Regular-2eb1" transform="translate(600 0)"/>
     <use xlink:href="#NotoSansCJKjp-Regular-575" transform="translate(700 0)"/>
     <use xlink:href="#NotoSansCJKjp-Regular-2518" transform="translate(800 0)"/>
     <use xlink:href="#NotoSansCJKjp-Regular-6ce8" transform="translate(900 0)"/>
     <use xlink:href="#NotoSansCJKjp-Regular-25eb" transform="translate(1000 0)"/>
     <use xlink:href="#NotoSansCJKjp-Regular-e6ae" transform="translate(1100 0)"/>
     <use xlink:href="#NotoSansCJKjp-Regular-2518" transform="translate(1200 0)"/>
     <use xlink:href="#NotoSansCJKjp-Regular-2aa6" transform="translate(1300 0)"/>
     <use xlink:href="#NotoSansCJKjp-Regular-41d6" transform="translate(1400 0)"/>
     <use xlink:href="#NotoSansCJKjp-Regular-aaab" transform="translate(1500 0)"/>
     <use xlink:href="#NotoSansCJKjp-Regular-e6af" transform="translate(1600 0)"/>
    </g>
   </g>
   <g id="line2d_14">
    <path d="M 590.295482 182.597949 
L 594.523818 183.477882 
L 598.76858 184.361233 
L 603.029863 185.248022 
L 607.307765 186.13827 
L 611.602384 187.031996 
L 615.913816 187.929222 
L 620.242162 188.829967 
L 624.58752 189.734253 
L 628.949992 190.6421 
L 633.329678 191.55353 
L 637.726681 192.468563 
L 642.141104 193.387221 
L 646.57305 194.309526 
L 651.022624 195.235499 
L 655.489931 196.165163 
L 659.975078 197.098539 
L 664.478171 198.03565 
L 668.999319 198.976519 
L 673.53863 199.921167 
L 678.096214 200.869617 
L 682.672182 201.821894 
L 687.266645 202.778019 
L 691.879715 203.738017 
L 696.511505 204.70191 
L 701.162131 205.669723 
L 705.831706 206.641479 
L 710.520348 207.617204 
L 715.228172 208.59692 
L 719.955297 209.580653 
" clip-path="url(#p9a22c2bb58)" style="fill: none; stroke: #1f6feb; stroke-width: 2.6; stroke-linecap: square"/>
   </g>
   <g id="line2d_15">
    <path d="M 610.074284 147.443455 
L 613.188365 146.025143 
L 616.281423 144.616406 
L 619.353669 143.217148 
L 622.405312 141.827274 
L 625.436559 140.446689 
L 628.447614 139.0753 
L 631.438678 137.713016 
L 634.40995 136.359747 
L 637.361625 135.015403 
L 640.293896 133.679897 
L 643.206955 132.353141 
L 646.100989 131.03505 
L 648.976184 129.725539 
L 651.832723 128.424525 
L 654.670788 127.131924 
L 657.490558 125.847657 
L 660.292207 124.571643 
L 663.075912 123.303801 
L 665.841842 122.044055 
L 668.590169 120.792326 
L 671.321059 119.548539 
L 674.034679 118.312618 
L 676.731191 117.084488 
L 679.410756 115.864077 
L 682.073535 114.651312 
L 684.719683 113.44612 
L 687.349357 112.248432 
L 689.96271 111.058177 
L 692.559893 109.875287 
" clip-path="url(#p9a22c2bb58)" style="fill: none; stroke: #1a7f37; stroke-width: 2.6; stroke-linecap: square"/>
   </g>
  </g>
  <g id="text_11">
   <!-- 空間中兩直線的三種位置關係 -->
   <g style="fill: #222831" transform="translate(305.74 18.64) scale(0.13 -0.13)">
    <defs>
     <path id="NotoSansCJKjp-Regular-72dc" d="M 499 4710 
L 499 3418 
L 973 3418 
L 973 4269 
L 2221 4269 
C 2112 3334 1805 2803 422 2534 
C 525 2438 646 2246 685 2125 
C 2202 2470 2586 3136 2720 4269 
L 3654 4269 
L 3654 2995 
C 3654 2522 3789 2394 4358 2394 
C 4474 2394 5152 2394 5280 2394 
C 5709 2394 5843 2554 5894 3162 
C 5766 3194 5574 3258 5472 3334 
C 5453 2880 5414 2816 5229 2816 
C 5082 2816 4518 2816 4403 2816 
C 4166 2816 4128 2842 4128 2995 
L 4128 4269 
L 5427 4269 
L 5427 3558 
L 5920 3558 
L 5920 4710 
L 3430 4710 
L 3430 5376 
L 2938 5376 
L 2938 4710 
L 499 4710 
z
M 384 122 
L 384 -320 
L 6022 -320 
L 6022 122 
L 3430 122 
L 3430 1414 
L 5466 1414 
L 5466 1856 
L 1056 1856 
L 1056 1414 
L 2938 1414 
L 2938 122 
L 384 122 
z
" transform="scale(0.015625)"/>
     <path id="NotoSansCJKjp-Regular-a774" d="M 3936 1082 
L 3936 461 
L 2432 461 
L 2432 1082 
L 3936 1082 
z
M 3936 1453 
L 2432 1453 
L 2432 2042 
L 3936 2042 
L 3936 1453 
z
M 1997 2419 
L 1997 -243 
L 2432 -243 
L 2432 83 
L 4384 83 
L 4384 2419 
L 1997 2419 
z
M 2451 3840 
L 2451 3270 
L 1056 3270 
L 1056 3840 
L 2451 3840 
z
M 2451 4192 
L 1056 4192 
L 1056 4730 
L 2451 4730 
L 2451 4192 
z
M 5376 3840 
L 5376 3264 
L 3936 3264 
L 3936 3840 
L 5376 3840 
z
M 5376 4192 
L 3936 4192 
L 3936 4730 
L 5376 4730 
L 5376 4192 
z
M 5619 5101 
L 3482 5101 
L 3482 2893 
L 5376 2893 
L 5376 128 
C 5376 13 5338 -19 5229 -26 
C 5114 -26 4723 -32 4333 -19 
C 4403 -154 4474 -378 4499 -512 
C 5030 -512 5376 -506 5581 -422 
C 5792 -339 5862 -186 5862 122 
L 5862 5101 
L 5619 5101 
z
M 576 5101 
L 576 -518 
L 1056 -518 
L 1056 2906 
L 2899 2906 
L 2899 5101 
L 576 5101 
z
" transform="scale(0.015625)"/>
     <path id="NotoSansCJKjp-Regular-2548" d="M 2931 5376 
L 2931 4230 
L 614 4230 
L 614 1190 
L 1094 1190 
L 1094 1587 
L 2931 1587 
L 2931 -506 
L 3437 -506 
L 3437 1587 
L 5280 1587 
L 5280 1222 
L 5773 1222 
L 5773 4230 
L 3437 4230 
L 3437 5376 
L 2931 5376 
z
M 1094 2061 
L 1094 3763 
L 2931 3763 
L 2931 2061 
L 1094 2061 
z
M 5280 2061 
L 3437 2061 
L 3437 3763 
L 5280 3763 
L 5280 2061 
z
" transform="scale(0.015625)"/>
     <path id="NotoSansCJKjp-Regular-2a94" d="M 1568 2784 
L 1568 2445 
L 1971 2445 
C 1875 1683 1651 1050 1222 634 
C 1299 589 1440 480 1498 429 
C 1779 723 1990 1114 2138 1581 
C 2221 1171 2381 774 2662 435 
C 2720 506 2854 608 2931 653 
C 2374 1293 2330 2112 2330 2784 
L 1568 2784 
z
M 442 4992 
L 442 4518 
L 2938 4518 
L 2938 3718 
L 672 3718 
L 672 -499 
L 1133 -499 
L 1133 3264 
L 2938 3264 
L 2938 -480 
L 3398 -480 
L 3398 3264 
L 5299 3264 
L 5299 58 
C 5299 -38 5267 -70 5171 -70 
C 5069 -77 4736 -77 4384 -64 
C 4448 -186 4525 -371 4550 -499 
C 5005 -499 5325 -493 5517 -416 
C 5709 -346 5766 -211 5766 51 
L 5766 3718 
L 3398 3718 
L 3398 4518 
L 5990 4518 
L 5990 4992 
L 442 4992 
z
M 3802 2784 
L 3802 2445 
L 4218 2445 
C 4115 1709 3891 1088 3482 678 
C 3571 634 3706 525 3763 467 
C 4038 768 4243 1158 4384 1626 
C 4474 1203 4640 794 4947 454 
C 5011 518 5146 621 5229 659 
C 4640 1293 4589 2112 4589 2784 
L 3802 2784 
z
" transform="scale(0.015625)"/>
     <path id="NotoSansCJKjp-Regular-6ce1" d="M 2374 2586 
L 4832 2586 
L 4832 2061 
L 2374 2061 
L 2374 2586 
z
M 2374 1715 
L 4832 1715 
L 4832 1178 
L 2374 1178 
L 2374 1715 
z
M 2374 3456 
L 4832 3456 
L 4832 2931 
L 2374 2931 
L 2374 3456 
z
M 736 3635 
L 736 -518 
L 1203 -518 
L 1203 -179 
L 6080 -179 
L 6080 269 
L 1203 269 
L 1203 3635 
L 736 3635 
z
M 3053 5395 
L 3008 4787 
L 397 4787 
L 397 4339 
L 2963 4339 
L 2899 3814 
L 1914 3814 
L 1914 813 
L 5306 813 
L 5306 3814 
L 3379 3814 
L 3469 4339 
L 6029 4339 
L 6029 4787 
L 3533 4787 
L 3603 5363 
L 3053 5395 
z
" transform="scale(0.015625)"/>
     <path id="NotoSansCJKjp-Regular-7a17" d="M 3258 3405 
L 5414 3405 
L 5414 2848 
L 3258 2848 
L 3258 3405 
z
M 3258 4326 
L 5414 4326 
L 5414 3770 
L 3258 3770 
L 3258 4326 
z
M 1894 1632 
C 2048 1267 2182 781 2208 474 
L 2586 589 
C 2541 902 2406 1370 2246 1734 
L 1894 1632 
z
M 570 1715 
C 493 1158 378 582 166 192 
C 269 154 454 70 538 13 
C 736 422 890 1043 973 1651 
L 570 1715 
z
M 2816 4717 
L 2816 2451 
L 4109 2451 
L 4109 6 
C 4109 -64 4090 -83 4006 -90 
C 3930 -90 3674 -90 3386 -83 
C 3443 -211 3501 -384 3520 -506 
C 3917 -506 4173 -499 4339 -435 
C 4506 -358 4544 -237 4544 6 
L 4544 1325 
C 4819 717 5254 109 5952 -250 
C 6016 -128 6157 51 6246 141 
C 5754 358 5382 698 5114 1088 
C 5427 1306 5798 1613 6106 1894 
L 5715 2176 
C 5523 1946 5203 1645 4922 1408 
C 4742 1734 4627 2074 4544 2400 
L 4544 2451 
L 5875 2451 
L 5875 4717 
L 4365 4717 
C 4467 4890 4570 5088 4659 5280 
L 4128 5382 
C 4077 5190 3968 4934 3872 4717 
L 2816 4717 
z
M 2573 1901 
L 2573 1491 
L 3443 1491 
C 3219 826 2803 352 2291 77 
C 2381 13 2534 -154 2592 -250 
C 3226 115 3738 787 3962 1805 
L 3699 1914 
L 3622 1901 
L 2573 1901 
z
M 179 2547 
L 237 2118 
L 1248 2182 
L 1248 -512 
L 1670 -512 
L 1670 2208 
L 2176 2240 
C 2234 2086 2285 1946 2310 1824 
L 2694 2003 
C 2598 2349 2342 2906 2074 3322 
L 1722 3181 
C 1824 3014 1920 2829 2010 2637 
L 1088 2592 
C 1517 3136 2010 3866 2374 4454 
L 1971 4646 
C 1792 4301 1549 3878 1286 3475 
C 1190 3610 1075 3750 941 3898 
C 1178 4256 1459 4781 1677 5216 
L 1254 5376 
C 1120 5018 890 4531 685 4166 
L 486 4346 
L 237 4038 
C 525 3763 845 3398 1037 3104 
C 896 2912 762 2726 634 2566 
L 179 2547 
z
" transform="scale(0.015625)"/>
     <path id="NotoSansCJKjp-Regular-6c33" d="M 3533 2707 
C 3885 2240 4320 1600 4512 1210 
L 4922 1466 
C 4710 1843 4269 2464 3904 2918 
L 3533 2707 
z
M 1536 5389 
C 1485 5082 1376 4659 1274 4346 
L 557 4346 
L 557 -346 
L 998 -346 
L 998 160 
L 2784 160 
L 2784 4346 
L 1715 4346 
C 1824 4621 1946 4979 2054 5299 
L 1536 5389 
z
M 998 3917 
L 2342 3917 
L 2342 2566 
L 998 2566 
L 998 3917 
z
M 998 595 
L 998 2144 
L 2342 2144 
L 2342 595 
L 998 595 
z
M 3827 5402 
C 3622 4518 3277 3635 2835 3066 
C 2950 3002 3149 2867 3238 2790 
C 3456 3098 3661 3488 3840 3923 
L 5478 3923 
C 5402 1357 5299 371 5094 154 
C 5018 64 4947 45 4819 45 
C 4672 45 4288 51 3866 83 
C 3955 -38 4013 -243 4026 -378 
C 4384 -397 4762 -410 4979 -390 
C 5210 -365 5350 -314 5498 -122 
C 5754 192 5843 1184 5939 4122 
C 5946 4186 5946 4365 5946 4365 
L 4013 4365 
C 4115 4666 4211 4986 4288 5299 
L 3827 5402 
z
" transform="scale(0.015625)"/>
     <path id="NotoSansCJKjp-Regular-2514" d="M 787 4755 
L 787 4269 
L 5626 4269 
L 5626 4755 
L 787 4755 
z
M 1197 2662 
L 1197 2182 
L 5126 2182 
L 5126 2662 
L 1197 2662 
z
M 416 442 
L 416 -45 
L 5978 -45 
L 5978 442 
L 416 442 
z
" transform="scale(0.015625)"/>
     <path id="NotoSansCJKjp-Regular-724a" d="M 2771 3424 
L 2771 1370 
L 4102 1370 
L 4102 909 
L 2701 909 
L 2701 525 
L 4102 525 
L 4102 19 
L 2336 19 
L 2336 -378 
L 6176 -378 
L 6176 19 
L 4563 19 
L 4563 525 
L 5958 525 
L 5958 909 
L 4563 909 
L 4563 1370 
L 5926 1370 
L 5926 3424 
L 4563 3424 
L 4563 3853 
L 6054 3853 
L 6054 4250 
L 4563 4250 
L 4563 4723 
C 5114 4774 5638 4845 6042 4934 
L 5747 5299 
C 5024 5133 3693 5030 2618 4986 
C 2662 4883 2720 4723 2733 4614 
C 3162 4627 3635 4653 4102 4685 
L 4102 4250 
L 2502 4250 
L 2502 3853 
L 4102 3853 
L 4102 3424 
L 2771 3424 
z
M 3200 2240 
L 4102 2240 
L 4102 1728 
L 3200 1728 
L 3200 2240 
z
M 4563 2240 
L 5485 2240 
L 5485 1728 
L 4563 1728 
L 4563 2240 
z
M 3200 3066 
L 4102 3066 
L 4102 2560 
L 3200 2560 
L 3200 3066 
z
M 4563 3066 
L 5485 3066 
L 5485 2560 
L 4563 2560 
L 4563 3066 
z
M 2310 5286 
C 1837 5069 992 4883 275 4762 
C 333 4659 397 4499 416 4397 
C 717 4435 1037 4493 1357 4557 
L 1357 3571 
L 314 3571 
L 314 3123 
L 1293 3123 
C 1037 2387 595 1555 179 1101 
C 262 986 378 794 429 659 
C 755 1056 1094 1690 1357 2336 
L 1357 -499 
L 1830 -499 
L 1830 2259 
C 2048 1990 2304 1645 2413 1466 
L 2701 1843 
C 2573 1990 2016 2566 1830 2726 
L 1830 3123 
L 2630 3123 
L 2630 3571 
L 1830 3571 
L 1830 4666 
C 2131 4736 2413 4819 2643 4915 
L 2310 5286 
z
" transform="scale(0.015625)"/>
     <path id="NotoSansCJKjp-Regular-26e3" d="M 2630 3155 
C 2867 2304 3066 1190 3110 544 
L 3578 646 
C 3526 1280 3302 2381 3059 3232 
L 2630 3155 
z
M 2106 4115 
L 2106 3661 
L 6016 3661 
L 6016 4115 
L 4250 4115 
L 4250 5299 
L 3770 5299 
L 3770 4115 
L 2106 4115 
z
M 1946 243 
L 1946 -211 
L 6176 -211 
L 6176 243 
L 4634 243 
C 4928 1043 5261 2246 5485 3194 
L 4966 3283 
C 4800 2362 4461 1056 4166 243 
L 1946 243 
z
M 1773 5357 
C 1395 4390 774 3443 128 2835 
C 211 2720 352 2470 397 2355 
C 640 2598 877 2880 1107 3194 
L 1107 -493 
L 1568 -493 
L 1568 3891 
C 1818 4314 2048 4762 2227 5216 
L 1773 5357 
z
" transform="scale(0.015625)"/>
     <path id="NotoSansCJKjp-Regular-7ccb" d="M 4154 4762 
L 5235 4762 
L 5235 4186 
L 4154 4186 
L 4154 4762 
z
M 2656 4762 
L 3712 4762 
L 3712 4186 
L 2656 4186 
L 2656 4762 
z
M 1197 4762 
L 2214 4762 
L 2214 4186 
L 1197 4186 
L 1197 4762 
z
M 2374 1798 
L 4979 1798 
L 4979 1440 
L 2374 1440 
L 2374 1798 
z
M 2374 1152 
L 4979 1152 
L 4979 794 
L 2374 794 
L 2374 1152 
z
M 2374 2432 
L 4979 2432 
L 4979 2086 
L 2374 2086 
L 2374 2432 
z
M 1920 2726 
L 1920 499 
L 5440 499 
L 5440 2726 
L 3347 2726 
L 3418 3104 
L 5971 3104 
L 5971 3482 
L 3482 3482 
L 3533 3834 
L 5715 3834 
L 5715 5107 
L 736 5107 
L 736 3834 
L 3046 3834 
L 3002 3482 
L 435 3482 
L 435 3104 
L 2944 3104 
L 2880 2726 
L 1920 2726 
z
M 787 2630 
L 787 -518 
L 1274 -518 
L 1274 -243 
L 6138 -243 
L 6138 141 
L 1274 141 
L 1274 2630 
L 787 2630 
z
" transform="scale(0.015625)"/>
     <path id="NotoSansCJKjp-Regular-a7ee" d="M 557 5101 
L 557 -518 
L 1018 -518 
L 1018 3136 
L 2246 3136 
C 2150 2982 2010 2790 1888 2637 
L 1709 2771 
L 1510 2579 
C 1728 2419 1978 2189 2118 2003 
L 1843 1722 
L 1434 1702 
L 1472 1395 
L 2867 1491 
L 2931 1312 
L 3200 1414 
C 3149 1613 2989 1901 2822 2112 
L 2560 2022 
C 2618 1946 2675 1856 2726 1773 
L 2195 1741 
C 2470 1997 2778 2330 3021 2618 
L 2739 2752 
C 2630 2598 2477 2406 2310 2221 
C 2253 2298 2170 2387 2080 2470 
C 2240 2630 2419 2854 2579 3066 
L 2413 3136 
L 2906 3136 
L 2906 5101 
L 557 5101 
z
M 4371 1216 
L 4371 614 
L 3744 614 
L 3744 1306 
L 3392 1306 
L 3392 -397 
L 3744 -397 
L 3744 307 
L 4698 307 
L 4698 1216 
L 4371 1216 
z
M 5651 5101 
L 3475 5101 
L 3475 3136 
L 3827 3136 
C 3731 2982 3597 2784 3469 2630 
L 3277 2778 
L 3072 2592 
C 3290 2426 3539 2189 3686 1997 
C 3578 1894 3475 1798 3379 1715 
L 3149 1702 
L 3219 1402 
C 3635 1434 4122 1453 4627 1498 
C 4666 1421 4691 1350 4710 1286 
L 4986 1395 
C 4922 1606 4742 1920 4557 2144 
L 4288 2061 
C 4352 1971 4416 1875 4480 1773 
L 3763 1734 
C 4051 1990 4365 2317 4621 2598 
L 4333 2733 
C 4218 2586 4064 2400 3898 2221 
C 3834 2291 3750 2374 3667 2458 
C 3827 2630 4019 2861 4186 3078 
L 4051 3136 
L 5414 3136 
L 5414 96 
C 5414 6 5389 -19 5306 -26 
C 5222 -26 4954 -26 4666 -19 
C 4736 -147 4794 -365 4819 -493 
C 5216 -493 5491 -486 5658 -410 
C 5830 -326 5882 -179 5882 96 
L 5882 5101 
L 5651 5101 
z
M 2624 1306 
L 2624 742 
L 2618 614 
L 2016 614 
L 2016 1216 
L 1683 1216 
L 1683 307 
L 2541 307 
C 2445 115 2240 -58 1824 -186 
C 1901 -256 2010 -384 2054 -474 
C 2854 -186 2970 256 2970 730 
L 2970 1306 
L 2624 1306 
z
M 2451 3949 
L 2451 3488 
L 1018 3488 
L 1018 3949 
L 2451 3949 
z
M 2451 4275 
L 1018 4275 
L 1018 4749 
L 2451 4749 
L 2451 4275 
z
M 5414 3949 
L 5414 3488 
L 3936 3488 
L 3936 3949 
L 5414 3949 
z
M 5414 4275 
L 3936 4275 
L 3936 4749 
L 5414 4749 
L 5414 4275 
z
" transform="scale(0.015625)"/>
     <path id="NotoSansCJKjp-Regular-279f" d="M 4787 1088 
C 5152 691 5555 134 5722 -230 
L 6125 -13 
C 5952 352 5536 890 5165 1280 
L 4787 1088 
z
M 2726 1274 
C 2534 851 2157 339 1805 0 
C 1907 -58 2067 -166 2157 -243 
C 2534 115 2925 659 3168 1133 
L 2726 1274 
z
M 2093 3507 
C 2541 3232 3072 2835 3379 2515 
L 2963 2118 
L 1843 2093 
L 1907 1632 
L 3731 1696 
L 3731 -512 
L 4198 -512 
L 4198 1715 
L 5600 1773 
C 5696 1619 5786 1472 5843 1344 
L 6253 1542 
C 6048 1958 5587 2560 5158 2995 
L 4774 2822 
C 4954 2630 5139 2406 5306 2189 
L 3558 2131 
C 4134 2669 4774 3354 5261 3942 
L 4819 4154 
C 4525 3757 4115 3277 3699 2842 
C 3546 2995 3328 3168 3104 3334 
C 3398 3654 3750 4096 4038 4474 
L 4013 4486 
C 4685 4576 5325 4691 5818 4832 
L 5485 5210 
C 4691 4979 3258 4794 2067 4691 
C 2118 4595 2176 4416 2195 4307 
C 2586 4333 3002 4371 3424 4416 
C 3232 4128 3002 3808 2784 3558 
C 2643 3648 2502 3738 2368 3814 
L 2093 3507 
z
M 1619 5338 
C 1274 4358 704 3386 96 2752 
C 179 2643 314 2394 358 2278 
C 589 2528 819 2829 1030 3149 
L 1030 -512 
L 1498 -512 
L 1498 3942 
C 1715 4352 1901 4774 2061 5203 
L 1619 5338 
z
" transform="scale(0.015625)"/>
    </defs>
    <use xlink:href="#NotoSansCJKjp-Regular-72dc"/>
    <use xlink:href="#NotoSansCJKjp-Regular-a774" transform="translate(100 0)"/>
    <use xlink:href="#NotoSansCJKjp-Regular-2548" transform="translate(200 0)"/>
    <use xlink:href="#NotoSansCJKjp-Regular-2a94" transform="translate(300 0)"/>
    <use xlink:href="#NotoSansCJKjp-Regular-6ce1" transform="translate(400 0)"/>
    <use xlink:href="#NotoSansCJKjp-Regular-7a17" transform="translate(500 0)"/>
    <use xlink:href="#NotoSansCJKjp-Regular-6c33" transform="translate(600 0)"/>
    <use xlink:href="#NotoSansCJKjp-Regular-2514" transform="translate(700 0)"/>
    <use xlink:href="#NotoSansCJKjp-Regular-724a" transform="translate(800 0)"/>
    <use xlink:href="#NotoSansCJKjp-Regular-26e3" transform="translate(900 0)"/>
    <use xlink:href="#NotoSansCJKjp-Regular-7ccb" transform="translate(1000 0)"/>
    <use xlink:href="#NotoSansCJKjp-Regular-a7ee" transform="translate(1100 0)"/>
    <use xlink:href="#NotoSansCJKjp-Regular-279f" transform="translate(1200 0)"/>
   </g>
  </g>
 </g>
 <defs>
  <clipPath id="pd43fcd9531">
   <rect x="7.2" y="41.993562" width="246.72" height="246.72"/>
  </clipPath>
  <clipPath id="p1406241e98">
   <rect x="266.88" y="41.993562" width="246.72" height="246.72"/>
  </clipPath>
  <clipPath id="p9a22c2bb58">
   <rect x="526.56" y="41.993562" width="246.72" height="246.72"/>
  </clipPath>
 </defs>
</svg>
