<?xml version="1.0" encoding="utf-8" standalone="no"?>
<!DOCTYPE svg PUBLIC "-//W3C//DTD SVG 1.1//EN"
  "http://www.w3.org/Graphics/SVG/1.1/DTD/svg11.dtd">
<svg xmlns:xlink="http://www.w3.org/1999/xlink" width="780.48pt" height="295.913563pt" viewBox="0 0 780.48 295.913563" xmlns="http://www.w3.org/2000/svg" version="1.1">
 <metadata>
  <rdf:RDF xmlns:dc="http://purl.org/dc/elements/1.1/" xmlns:cc="http://creativecommons.org/ns#" xmlns:rdf="http://www.w3.org/1999/02/22-rdf-syntax-ns#">
   <cc:Work>
    <dc:type rdf:resource="http://purl.org/dc/dcmitype/StillImage"/>
    <dc:date>2026-06-20T18:20:35.618254</dc:date>
    <dc:format>image/svg+xml</dc:format>
    <dc:creator>
     <cc:Agent>
      <dc:title>Matplotlib v3.11.0, https://matplotlib.org/</dc:title>
     </cc:Agent>
    </dc:creator>
   </cc:Work>
  </rdf:RDF>
 </metadata>
 <defs>
  <style type="text/css">*{stroke-linejoin: round; stroke-linecap: butt}</style>
 </defs>
 <g id="figure_1">
  <g id="patch_1">
   <path d="M 0 295.913563 
L 780.48 295.913563 
L 780.48 0 
L 0 0 
z
" style="fill: #ffffff"/>
  </g>
  <g id="patch_2">
   <path d="M 7.2 288.713563 
L 253.92 288.713563 
L 253.92 41.993562 
L 7.2 41.993562 
z
" style="fill: #ffffff"/>
  </g>
  <g id="pane3d_1"/>
  <g id="pane3d_2"/>
  <g id="pane3d_3"/>
  <g id="axis3d_1">
   <g id="line2d_1">
    <path d="M 22.822824 224.934861 
L 165.508328 252.659013 
" style="fill: none; stroke: #222831; stroke-width: 1.1; stroke-linecap: square"/>
   </g>
  </g>
  <g id="axis3d_2">
   <g id="line2d_2">
    <path d="M 240.395976 206.614832 
L 165.508328 252.659013 
" style="fill: none; stroke: #222831; stroke-width: 1.1; stroke-linecap: square"/>
   </g>
  </g>
  <g id="axis3d_3">
   <g id="line2d_3">
    <path d="M 240.395976 206.614832 
L 242.854075 100.300032 
" style="fill: none; stroke: #222831; stroke-width: 1.1; stroke-linecap: square"/>
   </g>
  </g>
  <g id="axes_1">
   <g id="Poly3DCollection_1">
    <path d="M 133.894054 197.865763 
L 168.640667 179.722124 
L 109.079255 169.946137 
L 72.58714 187.194886 
z
" clip-path="url(#p92f085054b)" style="fill: #9db8e6; fill-opacity: 0.3"/>
    <path d="M 198.49739 209.110404 
L 231.262153 190.00037 
L 168.640667 179.722124 
L 133.894054 197.865763 
z
" clip-path="url(#p92f085054b)" style="fill: #9db8e6; fill-opacity: 0.3"/>
    <path d="M 95.846491 217.733059 
L 133.894054 197.865763 
L 72.58714 187.194886 
L 32.720786 206.038538 
z
" clip-path="url(#p92f085054b)" style="fill: #9db8e6; fill-opacity: 0.3"/>
    <path d="M 162.532185 230.087096 
L 198.49739 209.110404 
L 133.894054 197.865763 
L 95.846491 217.733059 
z
" clip-path="url(#p92f085054b)" style="fill: #9db8e6; fill-opacity: 0.3"/>
   </g>
   <g id="text_1">
    <!-- 相交於一點 -->
    <g style="fill: #222831" transform="translate(100.56 35.993562) scale(0.12 -0.12)">
     <defs>
      <path id="NotoSansCJKjp-Regular-6ce8" d="M 3494 3034 
L 5440 3034 
L 5440 1920 
L 3494 1920 
L 3494 3034 
z
M 3494 3469 
L 3494 4544 
L 5440 4544 
L 5440 3469 
L 3494 3469 
z
M 3494 1478 
L 5440 1478 
L 5440 365 
L 3494 365 
L 3494 1478 
z
M 3027 4998 
L 3027 -467 
L 3494 -467 
L 3494 -77 
L 5440 -77 
L 5440 -448 
L 5926 -448 
L 5926 4998 
L 3027 4998 
z
M 1370 5376 
L 1370 4006 
L 333 4006 
L 333 3546 
L 1312 3546 
C 1088 2662 634 1651 186 1120 
C 262 1005 384 813 435 685 
C 781 1126 1120 1837 1370 2573 
L 1370 -506 
L 1837 -506 
L 1837 2419 
C 2080 2106 2368 1709 2490 1498 
L 2784 1888 
C 2643 2061 2061 2746 1837 2970 
L 1837 3546 
L 2752 3546 
L 2752 4006 
L 1837 4006 
L 1837 5376 
L 1370 5376 
z
" transform="scale(0.015625)"/>
      <path id="NotoSansCJKjp-Regular-25eb" d="M 2035 3878 
C 1645 3328 973 2803 346 2470 
C 461 2374 653 2189 736 2086 
C 1357 2470 2074 3078 2528 3693 
L 2035 3878 
z
M 3955 3610 
C 4570 3187 5312 2566 5651 2144 
L 6074 2483 
C 5702 2906 4954 3501 4346 3898 
L 3955 3610 
z
M 2298 2739 
L 1843 2598 
C 2093 1978 2426 1446 2842 1005 
C 2170 480 1299 141 256 -77 
C 352 -192 506 -416 563 -538 
C 1606 -275 2496 102 3200 666 
C 3885 83 4762 -307 5850 -512 
C 5920 -378 6061 -166 6170 -58 
C 5107 115 4243 474 3578 998 
C 4019 1440 4378 1978 4634 2630 
L 4128 2778 
C 3917 2195 3610 1722 3213 1325 
C 2816 1722 2509 2195 2298 2739 
z
M 2944 5382 
L 2944 4544 
L 390 4544 
L 390 4070 
L 6010 4070 
L 6010 4544 
L 3430 4544 
L 3430 5382 
L 2944 5382 
z
" transform="scale(0.015625)"/>
      <path id="NotoSansCJKjp-Regular-4ea4" d="M 4454 4826 
C 4749 4013 5318 3130 5958 2605 
C 6029 2752 6125 2944 6214 3066 
C 5606 3507 5011 4435 4678 5370 
L 4186 5370 
C 3942 4506 3379 3533 2739 3027 
C 2822 2918 2938 2726 2982 2592 
C 3642 3130 4192 4045 4454 4826 
z
M 3757 2605 
C 4198 2323 4704 1907 4934 1606 
L 5274 1952 
C 5030 2246 4506 2643 4070 2906 
L 3757 2605 
z
M 3238 870 
C 4019 512 4960 -77 5408 -512 
L 5715 -96 
C 5261 339 4301 896 3526 1242 
L 3238 870 
z
M 1414 5363 
L 1414 4333 
L 282 4333 
L 282 3878 
L 986 3878 
C 960 2234 890 672 186 -198 
C 307 -275 474 -429 550 -538 
C 1126 186 1331 1299 1408 2554 
L 2234 2554 
C 2195 774 2144 147 2035 6 
C 1990 -70 1933 -83 1843 -83 
C 1741 -83 1504 -83 1235 -58 
C 1306 -179 1357 -371 1363 -499 
C 1632 -512 1901 -512 2061 -499 
C 2227 -480 2342 -435 2445 -288 
C 2611 -70 2650 653 2694 2778 
C 2701 2842 2701 3002 2701 3002 
L 1427 3002 
L 1453 3878 
L 3008 3878 
L 3008 4333 
L 1894 4333 
L 1894 5363 
L 1414 5363 
z
" transform="scale(0.015625)"/>
      <path id="NotoSansCJKjp-Regular-2509" d="M 282 2758 
L 282 2234 
L 6144 2234 
L 6144 2758 
L 282 2758 
z
" transform="scale(0.015625)"/>
      <path id="NotoSansCJKjp-Regular-b7c4" d="M 966 4474 
C 1069 4166 1152 3757 1165 3494 
L 1421 3565 
C 1402 3821 1312 4230 1203 4538 
L 966 4474 
z
M 1178 813 
C 1267 454 1338 0 1331 -307 
L 1664 -262 
C 1664 38 1594 499 1498 851 
L 1178 813 
z
M 1792 851 
C 1939 518 2067 90 2106 -192 
L 2432 -115 
C 2387 166 2246 589 2099 915 
L 1792 851 
z
M 2406 934 
C 2618 634 2848 224 2938 -45 
L 3258 96 
C 3162 365 2931 762 2701 1056 
L 2406 934 
z
M 634 838 
C 582 390 454 -70 205 -333 
L 538 -512 
C 806 -224 915 269 973 742 
L 634 838 
z
M 2272 4557 
C 2214 4262 2086 3808 1997 3533 
L 2202 3456 
C 2317 3706 2445 4122 2554 4454 
L 2272 4557 
z
M 4314 5363 
L 4314 2330 
L 3379 2330 
L 3379 -506 
L 3827 -506 
L 3827 -211 
L 5440 -211 
L 5440 -480 
L 5901 -480 
L 5901 2330 
L 4781 2330 
L 4781 3526 
L 6150 3526 
L 6150 3974 
L 4781 3974 
L 4781 5363 
L 4314 5363 
z
M 3827 237 
L 3827 1894 
L 5440 1894 
L 5440 237 
L 3827 237 
z
M 877 4794 
L 1568 4794 
L 1568 3245 
L 877 3245 
L 877 4794 
z
M 1894 4794 
L 2637 4794 
L 2637 3245 
L 1894 3245 
L 1894 4794 
z
M 448 2451 
L 448 2067 
L 1517 2067 
L 1517 1568 
L 314 1510 
L 333 1088 
C 1075 1133 2138 1203 3155 1274 
L 3168 1658 
L 1946 1594 
L 1946 2067 
L 3072 2067 
L 3072 2451 
L 1946 2451 
L 1946 2893 
L 3027 2893 
L 3027 5146 
L 493 5146 
L 493 2893 
L 1517 2893 
L 1517 2451 
L 448 2451 
z
" transform="scale(0.015625)"/>
     </defs>
     <use xlink:href="#NotoSansCJKjp-Regular-6ce8"/>
     <use xlink:href="#NotoSansCJKjp-Regular-25eb" transform="translate(100 0)"/>
     <use xlink:href="#NotoSansCJKjp-Regular-4ea4" transform="translate(200 0)"/>
     <use xlink:href="#NotoSansCJKjp-Regular-2509" transform="translate(300 0)"/>
     <use xlink:href="#NotoSansCJKjp-Regular-b7c4" transform="translate(400 0)"/>
    </g>
   </g>
   <g id="line2d_4">
    <path d="M 76.552177 164.418923 
L 79.099337 159.926092 
L 81.650759 155.425744 
L 84.206454 150.917861 
L 86.766432 146.402421 
L 89.330704 141.879408 
L 91.899282 137.348802 
L 94.472174 132.810583 
L 97.049394 128.264732 
L 99.630951 123.711231 
L 102.216856 119.150059 
L 104.807121 114.581198 
L 107.401757 110.004628 
L 110.000774 105.42033 
L 112.604184 100.828283 
L 115.211998 96.228468 
L 117.824227 91.620866 
L 120.440882 87.005457 
L 123.061975 82.38222 
L 125.687516 77.751136 
L 128.317518 73.112185 
L 130.951991 68.465347 
L 133.590947 63.810602 
L 136.234398 59.147929 
L 138.882354 54.477308 
L 141.534828 49.798719 
L 144.191831 45.112142 
L 146.853375 40.417556 
L 149.519471 35.71494 
L 152.190131 31.004274 
" clip-path="url(#p92f085054b)" style="fill: none; stroke: #d1242f; stroke-width: 2.6; stroke-linecap: square"/>
   </g>
  </g>
  <g id="patch_3">
   <path d="M 266.88 288.713563 
L 513.6 288.713563 
L 513.6 41.993562 
L 266.88 41.993562 
z
" style="fill: #ffffff"/>
  </g>
  <g id="pane3d_4"/>
  <g id="pane3d_5"/>
  <g id="pane3d_6"/>
  <g id="axis3d_4">
   <g id="line2d_5">
    <path d="M 282.502824 224.934861 
L 425.188328 252.659013 
" style="fill: none; stroke: #222831; stroke-width: 1.1; stroke-linecap: square"/>
   </g>
  </g>
  <g id="axis3d_5">
   <g id="line2d_6">
    <path d="M 500.075976 206.614832 
L 425.188328 252.659013 
" style="fill: none; stroke: #222831; stroke-width: 1.1; stroke-linecap: square"/>
   </g>
  </g>
  <g id="axis3d_6">
   <g id="line2d_7">
    <path d="M 500.075976 206.614832 
L 502.534075 100.300032 
" style="fill: none; stroke: #222831; stroke-width: 1.1; stroke-linecap: square"/>
   </g>
  </g>
  <g id="axes_2">
   <g id="Poly3DCollection_2">
    <path d="M 393.574054 197.865763 
L 428.320667 179.722124 
L 368.759255 169.946137 
L 332.26714 187.194886 
z
" clip-path="url(#p95a6f03bb1)" style="fill: #9db8e6; fill-opacity: 0.3"/>
    <path d="M 458.17739 209.110404 
L 490.942153 190.00037 
L 428.320667 179.722124 
L 393.574054 197.865763 
z
" clip-path="url(#p95a6f03bb1)" style="fill: #9db8e6; fill-opacity: 0.3"/>
    <path d="M 355.526491 217.733059 
L 393.574054 197.865763 
L 332.26714 187.194886 
L 292.400786 206.038538 
z
" clip-path="url(#p95a6f03bb1)" style="fill: #9db8e6; fill-opacity: 0.3"/>
    <path d="M 422.212185 230.087096 
L 458.17739 209.110404 
L 393.574054 197.865763 
L 355.526491 217.733059 
z
" clip-path="url(#p95a6f03bb1)" style="fill: #9db8e6; fill-opacity: 0.3"/>
   </g>
   <g id="text_2">
    <!-- 與平面平行 -->
    <g style="fill: #222831" transform="translate(360.24 35.993562) scale(0.12 -0.12)">
     <defs>
      <path id="NotoSansCJKjp-Regular-8241" d="M 3795 563 
C 4480 218 5210 -211 5638 -531 
L 6093 -198 
C 5619 115 4845 544 4141 883 
L 3795 563 
z
M 2125 870 
C 1722 512 954 70 339 -186 
C 454 -275 621 -429 704 -525 
C 1306 -250 2067 179 2573 576 
L 2125 870 
z
M 288 1414 
L 288 966 
L 6131 966 
L 6131 1414 
L 5459 1414 
C 5517 2355 5549 3853 5555 4973 
L 4186 4973 
L 4186 4544 
L 5114 4544 
L 5107 3795 
L 4256 3795 
L 4256 3386 
L 5094 3386 
L 5069 2598 
L 4237 2598 
L 4237 2189 
L 5056 2189 
L 5011 1414 
L 3936 1414 
L 3936 3584 
L 2925 3584 
L 2925 4256 
L 4058 4256 
L 4058 4666 
L 2925 4666 
L 2925 5318 
L 2502 5318 
L 2502 3194 
L 3514 3194 
L 3514 1414 
L 2893 1414 
L 2893 2912 
L 2496 2912 
L 2496 1414 
L 1382 1414 
L 1357 2195 
L 2182 2195 
L 2182 2598 
L 1344 2598 
L 1318 3386 
L 2176 3386 
L 2176 3795 
L 1306 3795 
L 1280 4474 
C 1645 4614 2048 4800 2381 4973 
L 2003 5318 
C 1792 5171 1466 4986 1146 4832 
L 826 4928 
L 947 1414 
L 288 1414 
z
" transform="scale(0.015625)"/>
      <path id="NotoSansCJKjp-Regular-41d6" d="M 1114 4032 
C 1363 3558 1613 2938 1702 2554 
L 2157 2714 
C 2067 3085 1805 3699 1549 4160 
L 1114 4032 
z
M 4832 4192 
C 4672 3725 4378 3072 4134 2669 
L 4550 2534 
C 4800 2918 5101 3533 5338 4051 
L 4832 4192 
z
M 333 2227 
L 333 1747 
L 2938 1747 
L 2938 -506 
L 3437 -506 
L 3437 1747 
L 6074 1747 
L 6074 2227 
L 3437 2227 
L 3437 4467 
L 5715 4467 
L 5715 4947 
L 672 4947 
L 672 4467 
L 2938 4467 
L 2938 2227 
L 333 2227 
z
" transform="scale(0.015625)"/>
      <path id="NotoSansCJKjp-Regular-aaab" d="M 2490 2138 
L 3846 2138 
L 3846 1414 
L 2490 1414 
L 2490 2138 
z
M 2490 2528 
L 2490 3238 
L 3846 3238 
L 3846 2528 
L 2490 2528 
z
M 2490 1024 
L 3846 1024 
L 3846 275 
L 2490 275 
L 2490 1024 
z
M 371 4954 
L 371 4493 
L 2842 4493 
C 2797 4230 2726 3930 2662 3686 
L 666 3686 
L 666 -512 
L 1126 -512 
L 1126 -173 
L 5248 -173 
L 5248 -512 
L 5734 -512 
L 5734 3686 
L 3155 3686 
L 3405 4493 
L 6048 4493 
L 6048 4954 
L 371 4954 
z
M 1126 275 
L 1126 3238 
L 2048 3238 
L 2048 275 
L 1126 275 
z
M 5248 275 
L 4288 275 
L 4288 3238 
L 5248 3238 
L 5248 275 
z
" transform="scale(0.015625)"/>
      <path id="NotoSansCJKjp-Regular-8f66" d="M 2784 4992 
L 2784 4531 
L 5933 4531 
L 5933 4992 
L 2784 4992 
z
M 1709 5382 
C 1382 4915 762 4346 224 3981 
C 307 3891 442 3706 506 3597 
C 1082 4006 1741 4634 2170 5190 
L 1709 5382 
z
M 2502 3226 
L 2502 2765 
L 4659 2765 
L 4659 109 
C 4659 6 4614 -26 4493 -32 
C 4378 -38 3942 -38 3488 -19 
C 3558 -160 3629 -358 3648 -493 
C 4275 -493 4640 -493 4858 -422 
C 5069 -339 5146 -192 5146 102 
L 5146 2765 
L 6112 2765 
L 6112 3226 
L 2502 3226 
z
M 1965 4006 
C 1523 3277 819 2534 160 2061 
C 256 1965 429 1754 499 1658 
C 736 1850 986 2080 1229 2330 
L 1229 -531 
L 1702 -531 
L 1702 2854 
C 1971 3174 2214 3507 2419 3840 
L 1965 4006 
z
" transform="scale(0.015625)"/>
     </defs>
     <use xlink:href="#NotoSansCJKjp-Regular-8241"/>
     <use xlink:href="#NotoSansCJKjp-Regular-41d6" transform="translate(100 0)"/>
     <use xlink:href="#NotoSansCJKjp-Regular-aaab" transform="translate(200 0)"/>
     <use xlink:href="#NotoSansCJKjp-Regular-41d6" transform="translate(300 0)"/>
     <use xlink:href="#NotoSansCJKjp-Regular-8f66" transform="translate(400 0)"/>
    </g>
   </g>
   <g id="line2d_8">
    <path d="M 316.221396 138.584496 
L 320.572979 138.748034 
L 324.928529 138.911721 
L 329.28805 139.075557 
L 333.651549 139.239542 
L 338.019032 139.403678 
L 342.390502 139.567963 
L 346.765967 139.732398 
L 351.145431 139.896984 
L 355.5289 140.06172 
L 359.916379 140.226606 
L 364.307875 140.391644 
L 368.703391 140.556833 
L 373.102935 140.722173 
L 377.506511 140.887665 
L 381.914125 141.053308 
L 386.325782 141.219104 
L 390.741489 141.385051 
L 395.161251 141.551151 
L 399.585072 141.717404 
L 404.01296 141.883809 
L 408.444919 142.050368 
L 412.880956 142.217079 
L 417.321075 142.383944 
L 421.765282 142.550963 
L 426.213584 142.718135 
L 430.665985 142.885462 
L 435.122492 143.052943 
L 439.583109 143.220578 
L 444.047844 143.388368 
" clip-path="url(#p95a6f03bb1)" style="fill: none; stroke: #1f6feb; stroke-width: 2.6; stroke-linecap: square"/>
   </g>
  </g>
  <g id="patch_4">
   <path d="M 526.56 288.713563 
L 773.28 288.713563 
L 773.28 41.993562 
L 526.56 41.993562 
z
" style="fill: #ffffff"/>
  </g>
  <g id="pane3d_7"/>
  <g id="pane3d_8"/>
  <g id="pane3d_9"/>
  <g id="axis3d_7">
   <g id="line2d_9">
    <path d="M 542.182824 224.934861 
L 684.868328 252.659013 
" style="fill: none; stroke: #222831; stroke-width: 1.1; stroke-linecap: square"/>
   </g>
  </g>
  <g id="axis3d_8">
   <g id="line2d_10">
    <path d="M 759.755976 206.614832 
L 684.868328 252.659013 
" style="fill: none; stroke: #222831; stroke-width: 1.1; stroke-linecap: square"/>
   </g>
  </g>
  <g id="axis3d_9">
   <g id="line2d_11">
    <path d="M 759.755976 206.614832 
L 762.214075 100.300032 
" style="fill: none; stroke: #222831; stroke-width: 1.1; stroke-linecap: square"/>
   </g>
  </g>
  <g id="axes_3">
   <g id="Poly3DCollection_3">
    <path d="M 653.254054 197.865763 
L 688.000667 179.722124 
L 628.439255 169.946137 
L 591.94714 187.194886 
z
" clip-path="url(#p6283251f52)" style="fill: #9db8e6; fill-opacity: 0.3"/>
    <path d="M 717.85739 209.110404 
L 750.622153 190.00037 
L 688.000667 179.722124 
L 653.254054 197.865763 
z
" clip-path="url(#p6283251f52)" style="fill: #9db8e6; fill-opacity: 0.3"/>
    <path d="M 615.206491 217.733059 
L 653.254054 197.865763 
L 591.94714 187.194886 
L 552.080786 206.038538 
z
" clip-path="url(#p6283251f52)" style="fill: #9db8e6; fill-opacity: 0.3"/>
    <path d="M 681.892185 230.087096 
L 717.85739 209.110404 
L 653.254054 197.865763 
L 615.206491 217.733059 
z
" clip-path="url(#p6283251f52)" style="fill: #9db8e6; fill-opacity: 0.3"/>
   </g>
   <g id="text_3">
    <!-- 直線在平面上 -->
    <g style="fill: #222831" transform="translate(613.92 35.993562) scale(0.12 -0.12)">
     <defs>
      <path id="NotoSansCJKjp-Regular-6ce1" d="M 2374 2586 
L 4832 2586 
L 4832 2061 
L 2374 2061 
L 2374 2586 
z
M 2374 1715 
L 4832 1715 
L 4832 1178 
L 2374 1178 
L 2374 1715 
z
M 2374 3456 
L 4832 3456 
L 4832 2931 
L 2374 2931 
L 2374 3456 
z
M 736 3635 
L 736 -518 
L 1203 -518 
L 1203 -179 
L 6080 -179 
L 6080 269 
L 1203 269 
L 1203 3635 
L 736 3635 
z
M 3053 5395 
L 3008 4787 
L 397 4787 
L 397 4339 
L 2963 4339 
L 2899 3814 
L 1914 3814 
L 1914 813 
L 5306 813 
L 5306 3814 
L 3379 3814 
L 3469 4339 
L 6029 4339 
L 6029 4787 
L 3533 4787 
L 3603 5363 
L 3053 5395 
z
" transform="scale(0.015625)"/>
      <path id="NotoSansCJKjp-Regular-7a17" d="M 3258 3405 
L 5414 3405 
L 5414 2848 
L 3258 2848 
L 3258 3405 
z
M 3258 4326 
L 5414 4326 
L 5414 3770 
L 3258 3770 
L 3258 4326 
z
M 1894 1632 
C 2048 1267 2182 781 2208 474 
L 2586 589 
C 2541 902 2406 1370 2246 1734 
L 1894 1632 
z
M 570 1715 
C 493 1158 378 582 166 192 
C 269 154 454 70 538 13 
C 736 422 890 1043 973 1651 
L 570 1715 
z
M 2816 4717 
L 2816 2451 
L 4109 2451 
L 4109 6 
C 4109 -64 4090 -83 4006 -90 
C 3930 -90 3674 -90 3386 -83 
C 3443 -211 3501 -384 3520 -506 
C 3917 -506 4173 -499 4339 -435 
C 4506 -358 4544 -237 4544 6 
L 4544 1325 
C 4819 717 5254 109 5952 -250 
C 6016 -128 6157 51 6246 141 
C 5754 358 5382 698 5114 1088 
C 5427 1306 5798 1613 6106 1894 
L 5715 2176 
C 5523 1946 5203 1645 4922 1408 
C 4742 1734 4627 2074 4544 2400 
L 4544 2451 
L 5875 2451 
L 5875 4717 
L 4365 4717 
C 4467 4890 4570 5088 4659 5280 
L 4128 5382 
C 4077 5190 3968 4934 3872 4717 
L 2816 4717 
z
M 2573 1901 
L 2573 1491 
L 3443 1491 
C 3219 826 2803 352 2291 77 
C 2381 13 2534 -154 2592 -250 
C 3226 115 3738 787 3962 1805 
L 3699 1914 
L 3622 1901 
L 2573 1901 
z
M 179 2547 
L 237 2118 
L 1248 2182 
L 1248 -512 
L 1670 -512 
L 1670 2208 
L 2176 2240 
C 2234 2086 2285 1946 2310 1824 
L 2694 2003 
C 2598 2349 2342 2906 2074 3322 
L 1722 3181 
C 1824 3014 1920 2829 2010 2637 
L 1088 2592 
C 1517 3136 2010 3866 2374 4454 
L 1971 4646 
C 1792 4301 1549 3878 1286 3475 
C 1190 3610 1075 3750 941 3898 
C 1178 4256 1459 4781 1677 5216 
L 1254 5376 
C 1120 5018 890 4531 685 4166 
L 486 4346 
L 237 4038 
C 525 3763 845 3398 1037 3104 
C 896 2912 762 2726 634 2566 
L 179 2547 
z
" transform="scale(0.015625)"/>
      <path id="NotoSansCJKjp-Regular-33c7" d="M 2502 5376 
C 2413 5050 2298 4710 2163 4384 
L 403 4384 
L 403 3923 
L 1952 3923 
C 1542 3104 979 2342 243 1830 
C 320 1722 442 1517 493 1389 
C 762 1581 1011 1798 1235 2035 
L 1235 -486 
L 1715 -486 
L 1715 2605 
C 2016 3014 2278 3462 2496 3923 
L 6010 3923 
L 6010 4384 
L 2694 4384 
C 2810 4672 2912 4966 3002 5254 
L 2502 5376 
z
M 3827 3590 
L 3827 2355 
L 2387 2355 
L 2387 1907 
L 3827 1907 
L 3827 90 
L 2131 90 
L 2131 -358 
L 6003 -358 
L 6003 90 
L 4307 90 
L 4307 1907 
L 5760 1907 
L 5760 2355 
L 4307 2355 
L 4307 3590 
L 3827 3590 
z
" transform="scale(0.015625)"/>
      <path id="NotoSansCJKjp-Regular-2515" d="M 2733 5280 
L 2733 275 
L 326 275 
L 326 -205 
L 6080 -205 
L 6080 275 
L 3238 275 
L 3238 2822 
L 5638 2822 
L 5638 3302 
L 3238 3302 
L 3238 5280 
L 2733 5280 
z
" transform="scale(0.015625)"/>
     </defs>
     <use xlink:href="#NotoSansCJKjp-Regular-6ce1"/>
     <use xlink:href="#NotoSansCJKjp-Regular-7a17" transform="translate(100 0)"/>
     <use xlink:href="#NotoSansCJKjp-Regular-33c7" transform="translate(200 0)"/>
     <use xlink:href="#NotoSansCJKjp-Regular-41d6" transform="translate(300 0)"/>
     <use xlink:href="#NotoSansCJKjp-Regular-aaab" transform="translate(400 0)"/>
     <use xlink:href="#NotoSansCJKjp-Regular-2515" transform="translate(500 0)"/>
    </g>
   </g>
   <g id="line2d_12">
    <path d="M 574.531083 198.829771 
L 578.928244 198.807441 
L 583.324936 198.785113 
L 587.72116 198.762787 
L 592.116915 198.740464 
L 596.512203 198.718143 
L 600.907022 198.695825 
L 605.301373 198.673509 
L 609.695257 198.651195 
L 614.088672 198.628884 
L 618.48162 198.606575 
L 622.8741 198.584268 
L 627.266112 198.561964 
L 631.657656 198.539662 
L 636.048733 198.517363 
L 640.439343 198.495066 
L 644.829485 198.472771 
L 649.21916 198.450479 
L 653.608368 198.428189 
L 657.997109 198.405902 
L 662.385382 198.383616 
L 666.773189 198.361334 
L 671.160528 198.339053 
L 675.547401 198.316775 
L 679.933807 198.294499 
L 684.319746 198.272226 
L 688.705219 198.249955 
L 693.090225 198.227686 
L 697.474765 198.20542 
L 701.858838 198.183156 
" clip-path="url(#p6283251f52)" style="fill: none; stroke: #1a7f37; stroke-width: 2.6; stroke-linecap: square"/>
   </g>
  </g>
  <g id="text_4">
   <!-- 直線與平面的三種位置關係 -->
   <g style="fill: #222831" transform="translate(312.24 18.64) scale(0.13 -0.13)">
    <defs>
     <path id="NotoSansCJKjp-Regular-6c33" d="M 3533 2707 
C 3885 2240 4320 1600 4512 1210 
L 4922 1466 
C 4710 1843 4269 2464 3904 2918 
L 3533 2707 
z
M 1536 5389 
C 1485 5082 1376 4659 1274 4346 
L 557 4346 
L 557 -346 
L 998 -346 
L 998 160 
L 2784 160 
L 2784 4346 
L 1715 4346 
C 1824 4621 1946 4979 2054 5299 
L 1536 5389 
z
M 998 3917 
L 2342 3917 
L 2342 2566 
L 998 2566 
L 998 3917 
z
M 998 595 
L 998 2144 
L 2342 2144 
L 2342 595 
L 998 595 
z
M 3827 5402 
C 3622 4518 3277 3635 2835 3066 
C 2950 3002 3149 2867 3238 2790 
C 3456 3098 3661 3488 3840 3923 
L 5478 3923 
C 5402 1357 5299 371 5094 154 
C 5018 64 4947 45 4819 45 
C 4672 45 4288 51 3866 83 
C 3955 -38 4013 -243 4026 -378 
C 4384 -397 4762 -410 4979 -390 
C 5210 -365 5350 -314 5498 -122 
C 5754 192 5843 1184 5939 4122 
C 5946 4186 5946 4365 5946 4365 
L 4013 4365 
C 4115 4666 4211 4986 4288 5299 
L 3827 5402 
z
" transform="scale(0.015625)"/>
     <path id="NotoSansCJKjp-Regular-2514" d="M 787 4755 
L 787 4269 
L 5626 4269 
L 5626 4755 
L 787 4755 
z
M 1197 2662 
L 1197 2182 
L 5126 2182 
L 5126 2662 
L 1197 2662 
z
M 416 442 
L 416 -45 
L 5978 -45 
L 5978 442 
L 416 442 
z
" transform="scale(0.015625)"/>
     <path id="NotoSansCJKjp-Regular-724a" d="M 2771 3424 
L 2771 1370 
L 4102 1370 
L 4102 909 
L 2701 909 
L 2701 525 
L 4102 525 
L 4102 19 
L 2336 19 
L 2336 -378 
L 6176 -378 
L 6176 19 
L 4563 19 
L 4563 525 
L 5958 525 
L 5958 909 
L 4563 909 
L 4563 1370 
L 5926 1370 
L 5926 3424 
L 4563 3424 
L 4563 3853 
L 6054 3853 
L 6054 4250 
L 4563 4250 
L 4563 4723 
C 5114 4774 5638 4845 6042 4934 
L 5747 5299 
C 5024 5133 3693 5030 2618 4986 
C 2662 4883 2720 4723 2733 4614 
C 3162 4627 3635 4653 4102 4685 
L 4102 4250 
L 2502 4250 
L 2502 3853 
L 4102 3853 
L 4102 3424 
L 2771 3424 
z
M 3200 2240 
L 4102 2240 
L 4102 1728 
L 3200 1728 
L 3200 2240 
z
M 4563 2240 
L 5485 2240 
L 5485 1728 
L 4563 1728 
L 4563 2240 
z
M 3200 3066 
L 4102 3066 
L 4102 2560 
L 3200 2560 
L 3200 3066 
z
M 4563 3066 
L 5485 3066 
L 5485 2560 
L 4563 2560 
L 4563 3066 
z
M 2310 5286 
C 1837 5069 992 4883 275 4762 
C 333 4659 397 4499 416 4397 
C 717 4435 1037 4493 1357 4557 
L 1357 3571 
L 314 3571 
L 314 3123 
L 1293 3123 
C 1037 2387 595 1555 179 1101 
C 262 986 378 794 429 659 
C 755 1056 1094 1690 1357 2336 
L 1357 -499 
L 1830 -499 
L 1830 2259 
C 2048 1990 2304 1645 2413 1466 
L 2701 1843 
C 2573 1990 2016 2566 1830 2726 
L 1830 3123 
L 2630 3123 
L 2630 3571 
L 1830 3571 
L 1830 4666 
C 2131 4736 2413 4819 2643 4915 
L 2310 5286 
z
" transform="scale(0.015625)"/>
     <path id="NotoSansCJKjp-Regular-26e3" d="M 2630 3155 
C 2867 2304 3066 1190 3110 544 
L 3578 646 
C 3526 1280 3302 2381 3059 3232 
L 2630 3155 
z
M 2106 4115 
L 2106 3661 
L 6016 3661 
L 6016 4115 
L 4250 4115 
L 4250 5299 
L 3770 5299 
L 3770 4115 
L 2106 4115 
z
M 1946 243 
L 1946 -211 
L 6176 -211 
L 6176 243 
L 4634 243 
C 4928 1043 5261 2246 5485 3194 
L 4966 3283 
C 4800 2362 4461 1056 4166 243 
L 1946 243 
z
M 1773 5357 
C 1395 4390 774 3443 128 2835 
C 211 2720 352 2470 397 2355 
C 640 2598 877 2880 1107 3194 
L 1107 -493 
L 1568 -493 
L 1568 3891 
C 1818 4314 2048 4762 2227 5216 
L 1773 5357 
z
" transform="scale(0.015625)"/>
     <path id="NotoSansCJKjp-Regular-7ccb" d="M 4154 4762 
L 5235 4762 
L 5235 4186 
L 4154 4186 
L 4154 4762 
z
M 2656 4762 
L 3712 4762 
L 3712 4186 
L 2656 4186 
L 2656 4762 
z
M 1197 4762 
L 2214 4762 
L 2214 4186 
L 1197 4186 
L 1197 4762 
z
M 2374 1798 
L 4979 1798 
L 4979 1440 
L 2374 1440 
L 2374 1798 
z
M 2374 1152 
L 4979 1152 
L 4979 794 
L 2374 794 
L 2374 1152 
z
M 2374 2432 
L 4979 2432 
L 4979 2086 
L 2374 2086 
L 2374 2432 
z
M 1920 2726 
L 1920 499 
L 5440 499 
L 5440 2726 
L 3347 2726 
L 3418 3104 
L 5971 3104 
L 5971 3482 
L 3482 3482 
L 3533 3834 
L 5715 3834 
L 5715 5107 
L 736 5107 
L 736 3834 
L 3046 3834 
L 3002 3482 
L 435 3482 
L 435 3104 
L 2944 3104 
L 2880 2726 
L 1920 2726 
z
M 787 2630 
L 787 -518 
L 1274 -518 
L 1274 -243 
L 6138 -243 
L 6138 141 
L 1274 141 
L 1274 2630 
L 787 2630 
z
" transform="scale(0.015625)"/>
     <path id="NotoSansCJKjp-Regular-a7ee" d="M 557 5101 
L 557 -518 
L 1018 -518 
L 1018 3136 
L 2246 3136 
C 2150 2982 2010 2790 1888 2637 
L 1709 2771 
L 1510 2579 
C 1728 2419 1978 2189 2118 2003 
L 1843 1722 
L 1434 1702 
L 1472 1395 
L 2867 1491 
L 2931 1312 
L 3200 1414 
C 3149 1613 2989 1901 2822 2112 
L 2560 2022 
C 2618 1946 2675 1856 2726 1773 
L 2195 1741 
C 2470 1997 2778 2330 3021 2618 
L 2739 2752 
C 2630 2598 2477 2406 2310 2221 
C 2253 2298 2170 2387 2080 2470 
C 2240 2630 2419 2854 2579 3066 
L 2413 3136 
L 2906 3136 
L 2906 5101 
L 557 5101 
z
M 4371 1216 
L 4371 614 
L 3744 614 
L 3744 1306 
L 3392 1306 
L 3392 -397 
L 3744 -397 
L 3744 307 
L 4698 307 
L 4698 1216 
L 4371 1216 
z
M 5651 5101 
L 3475 5101 
L 3475 3136 
L 3827 3136 
C 3731 2982 3597 2784 3469 2630 
L 3277 2778 
L 3072 2592 
C 3290 2426 3539 2189 3686 1997 
C 3578 1894 3475 1798 3379 1715 
L 3149 1702 
L 3219 1402 
C 3635 1434 4122 1453 4627 1498 
C 4666 1421 4691 1350 4710 1286 
L 4986 1395 
C 4922 1606 4742 1920 4557 2144 
L 4288 2061 
C 4352 1971 4416 1875 4480 1773 
L 3763 1734 
C 4051 1990 4365 2317 4621 2598 
L 4333 2733 
C 4218 2586 4064 2400 3898 2221 
C 3834 2291 3750 2374 3667 2458 
C 3827 2630 4019 2861 4186 3078 
L 4051 3136 
L 5414 3136 
L 5414 96 
C 5414 6 5389 -19 5306 -26 
C 5222 -26 4954 -26 4666 -19 
C 4736 -147 4794 -365 4819 -493 
C 5216 -493 5491 -486 5658 -410 
C 5830 -326 5882 -179 5882 96 
L 5882 5101 
L 5651 5101 
z
M 2624 1306 
L 2624 742 
L 2618 614 
L 2016 614 
L 2016 1216 
L 1683 1216 
L 1683 307 
L 2541 307 
C 2445 115 2240 -58 1824 -186 
C 1901 -256 2010 -384 2054 -474 
C 2854 -186 2970 256 2970 730 
L 2970 1306 
L 2624 1306 
z
M 2451 3949 
L 2451 3488 
L 1018 3488 
L 1018 3949 
L 2451 3949 
z
M 2451 4275 
L 1018 4275 
L 1018 4749 
L 2451 4749 
L 2451 4275 
z
M 5414 3949 
L 5414 3488 
L 3936 3488 
L 3936 3949 
L 5414 3949 
z
M 5414 4275 
L 3936 4275 
L 3936 4749 
L 5414 4749 
L 5414 4275 
z
" transform="scale(0.015625)"/>
     <path id="NotoSansCJKjp-Regular-279f" d="M 4787 1088 
C 5152 691 5555 134 5722 -230 
L 6125 -13 
C 5952 352 5536 890 5165 1280 
L 4787 1088 
z
M 2726 1274 
C 2534 851 2157 339 1805 0 
C 1907 -58 2067 -166 2157 -243 
C 2534 115 2925 659 3168 1133 
L 2726 1274 
z
M 2093 3507 
C 2541 3232 3072 2835 3379 2515 
L 2963 2118 
L 1843 2093 
L 1907 1632 
L 3731 1696 
L 3731 -512 
L 4198 -512 
L 4198 1715 
L 5600 1773 
C 5696 1619 5786 1472 5843 1344 
L 6253 1542 
C 6048 1958 5587 2560 5158 2995 
L 4774 2822 
C 4954 2630 5139 2406 5306 2189 
L 3558 2131 
C 4134 2669 4774 3354 5261 3942 
L 4819 4154 
C 4525 3757 4115 3277 3699 2842 
C 3546 2995 3328 3168 3104 3334 
C 3398 3654 3750 4096 4038 4474 
L 4013 4486 
C 4685 4576 5325 4691 5818 4832 
L 5485 5210 
C 4691 4979 3258 4794 2067 4691 
C 2118 4595 2176 4416 2195 4307 
C 2586 4333 3002 4371 3424 4416 
C 3232 4128 3002 3808 2784 3558 
C 2643 3648 2502 3738 2368 3814 
L 2093 3507 
z
M 1619 5338 
C 1274 4358 704 3386 96 2752 
C 179 2643 314 2394 358 2278 
C 589 2528 819 2829 1030 3149 
L 1030 -512 
L 1498 -512 
L 1498 3942 
C 1715 4352 1901 4774 2061 5203 
L 1619 5338 
z
" transform="scale(0.015625)"/>
    </defs>
    <use xlink:href="#NotoSansCJKjp-Regular-6ce1"/>
    <use xlink:href="#NotoSansCJKjp-Regular-7a17" transform="translate(100 0)"/>
    <use xlink:href="#NotoSansCJKjp-Regular-8241" transform="translate(200 0)"/>
    <use xlink:href="#NotoSansCJKjp-Regular-41d6" transform="translate(300 0)"/>
    <use xlink:href="#NotoSansCJKjp-Regular-aaab" transform="translate(400 0)"/>
    <use xlink:href="#NotoSansCJKjp-Regular-6c33" transform="translate(500 0)"/>
    <use xlink:href="#NotoSansCJKjp-Regular-2514" transform="translate(600 0)"/>
    <use xlink:href="#NotoSansCJKjp-Regular-724a" transform="translate(700 0)"/>
    <use xlink:href="#NotoSansCJKjp-Regular-26e3" transform="translate(800 0)"/>
    <use xlink:href="#NotoSansCJKjp-Regular-7ccb" transform="translate(900 0)"/>
    <use xlink:href="#NotoSansCJKjp-Regular-a7ee" transform="translate(1000 0)"/>
    <use xlink:href="#NotoSansCJKjp-Regular-279f" transform="translate(1100 0)"/>
   </g>
  </g>
 </g>
 <defs>
  <clipPath id="p92f085054b">
   <rect x="7.2" y="41.993562" width="246.72" height="246.72"/>
  </clipPath>
  <clipPath id="p95a6f03bb1">
   <rect x="266.88" y="41.993562" width="246.72" height="246.72"/>
  </clipPath>
  <clipPath id="p6283251f52">
   <rect x="526.56" y="41.993562" width="246.72" height="246.72"/>
  </clipPath>
 </defs>
</svg>
