<?xml version="1.0" encoding="utf-8" standalone="no"?>
<!DOCTYPE svg PUBLIC "-//W3C//DTD SVG 1.1//EN"
  "http://www.w3.org/Graphics/SVG/1.1/DTD/svg11.dtd">
<svg xmlns:xlink="http://www.w3.org/1999/xlink" width="313.776pt" height="331.216pt" viewBox="0 0 313.776 331.216" xmlns="http://www.w3.org/2000/svg" version="1.1">
 <metadata>
  <rdf:RDF xmlns:dc="http://purl.org/dc/elements/1.1/" xmlns:cc="http://creativecommons.org/ns#" xmlns:rdf="http://www.w3.org/1999/02/22-rdf-syntax-ns#">
   <cc:Work>
    <dc:type rdf:resource="http://purl.org/dc/dcmitype/StillImage"/>
    <dc:date>2026-06-20T18:20:35.420147</dc:date>
    <dc:format>image/svg+xml</dc:format>
    <dc:creator>
     <cc:Agent>
      <dc:title>Matplotlib v3.11.0, https://matplotlib.org/</dc:title>
     </cc:Agent>
    </dc:creator>
   </cc:Work>
  </rdf:RDF>
 </metadata>
 <defs>
  <style type="text/css">*{stroke-linejoin: round; stroke-linecap: butt}</style>
 </defs>
 <g id="figure_1">
  <g id="patch_1">
   <path d="M -0 331.216 
L 313.776 331.216 
L 313.776 0 
L -0 0 
z
" style="fill: #ffffff"/>
  </g>
  <g id="patch_2">
   <path d="M 7.2 324.016 
L 306.576 324.016 
L 306.576 24.64 
L 7.2 24.64 
z
" style="fill: #ffffff"/>
  </g>
  <g id="pane3d_1"/>
  <g id="pane3d_2"/>
  <g id="pane3d_3"/>
  <g id="axis3d_1">
   <g id="line2d_1">
    <path d="M 37.814791 263.984788 
L 210.424609 290.302243 
" style="fill: none; stroke: #222831; stroke-width: 1.1; stroke-linecap: square"/>
   </g>
  </g>
  <g id="axis3d_2">
   <g id="line2d_2">
    <path d="M 277.507172 234.334694 
L 210.424609 290.302243 
" style="fill: none; stroke: #222831; stroke-width: 1.1; stroke-linecap: square"/>
   </g>
  </g>
  <g id="axis3d_3">
   <g id="line2d_3">
    <path d="M 277.507172 234.334694 
L 280.750697 79.092846 
" style="fill: none; stroke: #222831; stroke-width: 1.1; stroke-linecap: square"/>
   </g>
  </g>
  <g id="axes_1">
   <g id="line2d_4">
    <path d="M 79.104777 186.071084 
L 246.464486 207.77836 
" clip-path="url(#p78f269c9d0)" style="fill: none; stroke: #222831; stroke-width: 1.6; stroke-linecap: square"/>
   </g>
   <g id="Poly3DCollection_1">
    <path d="M 160.933622 196.684638 
L 180.607192 257.856755 
L 107.992405 247.318352 
L 85.788327 186.937969 
z
" clip-path="url(#p78f269c9d0)" style="fill: #1a7f37; fill-opacity: 0.22"/>
    <path d="M 239.189399 206.83475 
L 256.106846 268.813831 
L 180.607192 257.856755 
L 160.933622 196.684638 
z
" clip-path="url(#p78f269c9d0)" style="fill: #1a7f37; fill-opacity: 0.22"/>
    <path d="M 139.575768 130.275488 
L 160.933622 196.684638 
L 85.788327 186.937969 
L 61.722687 121.495373 
z
" clip-path="url(#p78f269c9d0)" style="fill: #1a7f37; fill-opacity: 0.22"/>
    <path d="M 220.792339 139.434929 
L 239.189399 206.83475 
L 160.933622 196.684638 
L 139.575768 130.275488 
z
" clip-path="url(#p78f269c9d0)" style="fill: #1a7f37; fill-opacity: 0.22"/>
   </g>
   <g id="patch_3">
    <path d="M 161.61297 194.801903 
Q 173.059176 163.080088 183.518752 134.092604 
" clip-path="url(#p78f269c9d0)" style="fill: none; stroke: #1a7f37; stroke-width: 2.6; stroke-linecap: round"/>
    <path d="M 177.688695 139.643318 
L 183.518752 134.092604 
L 184.461289 142.087079 
z
" clip-path="url(#p78f269c9d0)" style="fill: #1a7f37; stroke: #1a7f37; stroke-width: 2.6; stroke-linecap: round"/>
   </g>
   <g id="text_1">
    <!-- n1 -->
    <g style="fill: #1f6feb" transform="translate(160.933622 103.177948) scale(0.12 -0.12)">
     <defs>
      <path id="NotoSansCJKjp-Regular-4f" d="M 589 0 
L 1178 0 
L 1178 2522 
C 1523 2874 1766 3053 2125 3053 
C 2586 3053 2784 2778 2784 2125 
L 2784 0 
L 3366 0 
L 3366 2202 
C 3366 3085 3034 3565 2304 3565 
C 1830 3565 1466 3302 1139 2970 
L 1126 2970 
L 1069 3475 
L 589 3475 
L 589 0 
z
" transform="scale(0.015625)"/>
      <path id="NotoSansCJKjp-Regular-f6b2" d="M 563 0 
L 3136 0 
L 3136 486 
L 2195 486 
L 2195 4563 
L 1747 4563 
C 1491 4410 1190 4301 774 4224 
L 774 3853 
L 1613 3853 
L 1613 486 
L 563 486 
L 563 0 
z
" transform="scale(0.015625)"/>
     </defs>
     <use xlink:href="#NotoSansCJKjp-Regular-4f"/>
     <use xlink:href="#NotoSansCJKjp-Regular-f6b2" transform="translate(61 0)"/>
    </g>
   </g>
   <g id="text_2">
    <!-- n2 -->
    <g style="fill: #1a7f37" transform="translate(186.956357 124.565686) scale(0.12 -0.12)">
     <defs>
      <path id="NotoSansCJKjp-Regular-f6b3" d="M 282 0 
L 3232 0 
L 3232 506 
L 1907 506 
C 1670 506 1382 480 1139 461 
C 2221 1594 3008 2451 3008 3309 
C 3008 4115 2477 4646 1638 4646 
C 1043 4646 634 4378 256 3955 
L 595 3629 
C 858 3930 1184 4173 1568 4173 
C 2150 4173 2432 3802 2432 3283 
C 2432 2534 1658 1715 282 346 
L 282 0 
z
" transform="scale(0.015625)"/>
     </defs>
     <use xlink:href="#NotoSansCJKjp-Regular-4f"/>
     <use xlink:href="#NotoSansCJKjp-Regular-f6b3" transform="translate(61 0)"/>
    </g>
   </g>
   <g id="text_3">
    <!-- 交線 -->
    <g style="fill: #222831" transform="translate(250.112325 208.2515) scale(0.11 -0.11)">
     <defs>
      <path id="NotoSansCJKjp-Regular-25eb" d="M 2035 3878 
C 1645 3328 973 2803 346 2470 
C 461 2374 653 2189 736 2086 
C 1357 2470 2074 3078 2528 3693 
L 2035 3878 
z
M 3955 3610 
C 4570 3187 5312 2566 5651 2144 
L 6074 2483 
C 5702 2906 4954 3501 4346 3898 
L 3955 3610 
z
M 2298 2739 
L 1843 2598 
C 2093 1978 2426 1446 2842 1005 
C 2170 480 1299 141 256 -77 
C 352 -192 506 -416 563 -538 
C 1606 -275 2496 102 3200 666 
C 3885 83 4762 -307 5850 -512 
C 5920 -378 6061 -166 6170 -58 
C 5107 115 4243 474 3578 998 
C 4019 1440 4378 1978 4634 2630 
L 4128 2778 
C 3917 2195 3610 1722 3213 1325 
C 2816 1722 2509 2195 2298 2739 
z
M 2944 5382 
L 2944 4544 
L 390 4544 
L 390 4070 
L 6010 4070 
L 6010 4544 
L 3430 4544 
L 3430 5382 
L 2944 5382 
z
" transform="scale(0.015625)"/>
      <path id="NotoSansCJKjp-Regular-7a17" d="M 3258 3405 
L 5414 3405 
L 5414 2848 
L 3258 2848 
L 3258 3405 
z
M 3258 4326 
L 5414 4326 
L 5414 3770 
L 3258 3770 
L 3258 4326 
z
M 1894 1632 
C 2048 1267 2182 781 2208 474 
L 2586 589 
C 2541 902 2406 1370 2246 1734 
L 1894 1632 
z
M 570 1715 
C 493 1158 378 582 166 192 
C 269 154 454 70 538 13 
C 736 422 890 1043 973 1651 
L 570 1715 
z
M 2816 4717 
L 2816 2451 
L 4109 2451 
L 4109 6 
C 4109 -64 4090 -83 4006 -90 
C 3930 -90 3674 -90 3386 -83 
C 3443 -211 3501 -384 3520 -506 
C 3917 -506 4173 -499 4339 -435 
C 4506 -358 4544 -237 4544 6 
L 4544 1325 
C 4819 717 5254 109 5952 -250 
C 6016 -128 6157 51 6246 141 
C 5754 358 5382 698 5114 1088 
C 5427 1306 5798 1613 6106 1894 
L 5715 2176 
C 5523 1946 5203 1645 4922 1408 
C 4742 1734 4627 2074 4544 2400 
L 4544 2451 
L 5875 2451 
L 5875 4717 
L 4365 4717 
C 4467 4890 4570 5088 4659 5280 
L 4128 5382 
C 4077 5190 3968 4934 3872 4717 
L 2816 4717 
z
M 2573 1901 
L 2573 1491 
L 3443 1491 
C 3219 826 2803 352 2291 77 
C 2381 13 2534 -154 2592 -250 
C 3226 115 3738 787 3962 1805 
L 3699 1914 
L 3622 1901 
L 2573 1901 
z
M 179 2547 
L 237 2118 
L 1248 2182 
L 1248 -512 
L 1670 -512 
L 1670 2208 
L 2176 2240 
C 2234 2086 2285 1946 2310 1824 
L 2694 2003 
C 2598 2349 2342 2906 2074 3322 
L 1722 3181 
C 1824 3014 1920 2829 2010 2637 
L 1088 2592 
C 1517 3136 2010 3866 2374 4454 
L 1971 4646 
C 1792 4301 1549 3878 1286 3475 
C 1190 3610 1075 3750 941 3898 
C 1178 4256 1459 4781 1677 5216 
L 1254 5376 
C 1120 5018 890 4531 685 4166 
L 486 4346 
L 237 4038 
C 525 3763 845 3398 1037 3104 
C 896 2912 762 2726 634 2566 
L 179 2547 
z
" transform="scale(0.015625)"/>
     </defs>
     <use xlink:href="#NotoSansCJKjp-Regular-25eb"/>
     <use xlink:href="#NotoSansCJKjp-Regular-7a17" transform="translate(100 0)"/>
    </g>
   </g>
   <g id="text_4">
    <!-- 兩平面夾角 = 兩法向量夾角 -->
    <g style="fill: #222831" transform="translate(84.503302 79.715882) scale(0.11 -0.11)">
     <defs>
      <path id="NotoSansCJKjp-Regular-2a94" d="M 1568 2784 
L 1568 2445 
L 1971 2445 
C 1875 1683 1651 1050 1222 634 
C 1299 589 1440 480 1498 429 
C 1779 723 1990 1114 2138 1581 
C 2221 1171 2381 774 2662 435 
C 2720 506 2854 608 2931 653 
C 2374 1293 2330 2112 2330 2784 
L 1568 2784 
z
M 442 4992 
L 442 4518 
L 2938 4518 
L 2938 3718 
L 672 3718 
L 672 -499 
L 1133 -499 
L 1133 3264 
L 2938 3264 
L 2938 -480 
L 3398 -480 
L 3398 3264 
L 5299 3264 
L 5299 58 
C 5299 -38 5267 -70 5171 -70 
C 5069 -77 4736 -77 4384 -64 
C 4448 -186 4525 -371 4550 -499 
C 5005 -499 5325 -493 5517 -416 
C 5709 -346 5766 -211 5766 51 
L 5766 3718 
L 3398 3718 
L 3398 4518 
L 5990 4518 
L 5990 4992 
L 442 4992 
z
M 3802 2784 
L 3802 2445 
L 4218 2445 
C 4115 1709 3891 1088 3482 678 
C 3571 634 3706 525 3763 467 
C 4038 768 4243 1158 4384 1626 
C 4474 1203 4640 794 4947 454 
C 5011 518 5146 621 5229 659 
C 4640 1293 4589 2112 4589 2784 
L 3802 2784 
z
" transform="scale(0.015625)"/>
      <path id="NotoSansCJKjp-Regular-41d6" d="M 1114 4032 
C 1363 3558 1613 2938 1702 2554 
L 2157 2714 
C 2067 3085 1805 3699 1549 4160 
L 1114 4032 
z
M 4832 4192 
C 4672 3725 4378 3072 4134 2669 
L 4550 2534 
C 4800 2918 5101 3533 5338 4051 
L 4832 4192 
z
M 333 2227 
L 333 1747 
L 2938 1747 
L 2938 -506 
L 3437 -506 
L 3437 1747 
L 6074 1747 
L 6074 2227 
L 3437 2227 
L 3437 4467 
L 5715 4467 
L 5715 4947 
L 672 4947 
L 672 4467 
L 2938 4467 
L 2938 2227 
L 333 2227 
z
" transform="scale(0.015625)"/>
      <path id="NotoSansCJKjp-Regular-aaab" d="M 2490 2138 
L 3846 2138 
L 3846 1414 
L 2490 1414 
L 2490 2138 
z
M 2490 2528 
L 2490 3238 
L 3846 3238 
L 3846 2528 
L 2490 2528 
z
M 2490 1024 
L 3846 1024 
L 3846 275 
L 2490 275 
L 2490 1024 
z
M 371 4954 
L 371 4493 
L 2842 4493 
C 2797 4230 2726 3930 2662 3686 
L 666 3686 
L 666 -512 
L 1126 -512 
L 1126 -173 
L 5248 -173 
L 5248 -512 
L 5734 -512 
L 5734 3686 
L 3155 3686 
L 3405 4493 
L 6048 4493 
L 6048 4954 
L 371 4954 
z
M 1126 275 
L 1126 3238 
L 2048 3238 
L 2048 275 
L 1126 275 
z
M 5248 275 
L 4288 275 
L 4288 3238 
L 5248 3238 
L 5248 275 
z
" transform="scale(0.015625)"/>
      <path id="NotoSansCJKjp-Regular-371a" d="M 4589 3834 
C 4448 3027 4134 2349 3622 1920 
C 3488 2240 3443 2515 3443 2714 
L 3443 4019 
L 6054 4019 
L 6054 4480 
L 3443 4480 
L 3443 5350 
L 2925 5350 
L 2925 4480 
L 358 4480 
L 358 4019 
L 2925 4019 
L 2925 2714 
C 2925 2086 2445 557 256 -115 
C 358 -224 506 -410 570 -518 
C 2394 83 3040 1350 3181 1926 
C 3334 1350 3981 70 5830 -518 
C 5894 -390 6035 -186 6138 -77 
C 4653 365 3949 1190 3642 1875 
C 3757 1811 3923 1715 3994 1651 
C 4250 1888 4467 2182 4640 2528 
C 5037 2189 5466 1779 5696 1510 
L 6003 1850 
C 5747 2138 5242 2586 4819 2931 
C 4915 3194 4992 3469 5050 3770 
L 4589 3834 
z
M 1555 3846 
C 1350 2944 941 2176 333 1702 
C 442 1632 621 1478 691 1395 
C 1037 1696 1338 2093 1568 2554 
C 1862 2298 2176 1984 2342 1786 
L 2618 2131 
C 2432 2349 2061 2682 1747 2944 
C 1850 3200 1933 3475 2003 3763 
L 1555 3846 
z
" transform="scale(0.015625)"/>
      <path id="NotoSansCJKjp-Regular-9248" d="M 1696 3482 
L 3110 3482 
L 3110 2630 
L 1696 2630 
L 1696 3482 
z
M 1696 3910 
L 1683 3910 
C 1888 4134 2074 4365 2234 4595 
L 3795 4595 
C 3667 4365 3501 4109 3341 3910 
L 1696 3910 
z
M 5101 3482 
L 5101 2630 
L 3571 2630 
L 3571 3482 
L 5101 3482 
z
M 2157 5395 
C 1837 4749 1222 3955 358 3373 
C 474 3302 627 3149 704 3034 
C 890 3168 1062 3309 1222 3450 
L 1222 2310 
C 1222 1498 1120 506 211 -198 
C 307 -269 480 -442 550 -544 
C 1062 -147 1357 371 1517 902 
L 5101 902 
L 5101 102 
C 5101 -19 5062 -58 4922 -64 
C 4774 -70 4275 -70 3757 -58 
C 3827 -186 3917 -390 3942 -525 
C 4595 -525 5011 -518 5254 -442 
C 5491 -365 5574 -218 5574 96 
L 5574 3910 
L 3872 3910 
C 4096 4192 4314 4518 4461 4813 
L 4134 5024 
L 4058 4998 
L 2502 4998 
L 2675 5299 
L 2157 5395 
z
M 1696 2214 
L 3110 2214 
L 3110 1325 
L 1613 1325 
C 1670 1632 1690 1933 1696 2214 
z
M 5101 2214 
L 5101 1325 
L 3571 1325 
L 3571 2214 
L 5101 2214 
z
" transform="scale(0.015625)"/>
      <path id="NotoSansCJKjp-Regular-1" transform="scale(0.015625)"/>
      <path id="NotoSansCJKjp-Regular-1e" d="M 243 2912 
L 3315 2912 
L 3315 3347 
L 243 3347 
L 243 2912 
z
M 243 1376 
L 3315 1376 
L 3315 1811 
L 243 1811 
L 243 1376 
z
" transform="scale(0.015625)"/>
      <path id="NotoSansCJKjp-Regular-5ace" d="M 589 4979 
C 1030 4800 1574 4499 1837 4275 
L 2118 4672 
C 1843 4896 1293 5171 851 5331 
L 589 4979 
z
M 250 3213 
C 691 3059 1242 2784 1517 2579 
L 1779 2989 
C 1491 3194 934 3443 493 3578 
L 250 3213 
z
M 467 -115 
L 883 -435 
C 1242 166 1664 960 1984 1638 
L 1626 1946 
C 1280 1222 800 378 467 -115 
z
M 4550 1363 
C 4781 1088 5018 768 5222 448 
L 3027 320 
C 3309 877 3616 1606 3846 2227 
L 6080 2227 
L 6080 2688 
L 4250 2688 
L 4250 3872 
L 5779 3872 
L 5779 4326 
L 4250 4326 
L 4250 5376 
L 3763 5376 
L 3763 4326 
L 2291 4326 
L 2291 3872 
L 3763 3872 
L 3763 2688 
L 1971 2688 
L 1971 2227 
L 3283 2227 
C 3091 1613 2784 838 2515 294 
L 1978 269 
L 2042 -218 
C 2938 -160 4230 -70 5472 26 
C 5587 -173 5677 -365 5741 -525 
L 6189 -275 
C 5978 243 5446 1011 4966 1581 
L 4550 1363 
z
" transform="scale(0.015625)"/>
      <path id="NotoSansCJKjp-Regular-2eb8" d="M 2803 5389 
C 2714 5062 2554 4614 2394 4269 
L 634 4269 
L 634 -512 
L 1107 -512 
L 1107 3802 
L 5325 3802 
L 5325 128 
C 5325 13 5286 -26 5158 -26 
C 5024 -32 4582 -38 4122 -13 
C 4192 -154 4262 -378 4288 -512 
C 4877 -512 5274 -506 5504 -429 
C 5728 -346 5805 -192 5805 128 
L 5805 4269 
L 2925 4269 
C 3085 4576 3258 4947 3398 5293 
L 2803 5389 
z
M 2387 2522 
L 4006 2522 
L 4006 1267 
L 2387 1267 
L 2387 2522 
z
M 1946 2950 
L 1946 371 
L 2387 371 
L 2387 832 
L 4454 832 
L 4454 2950 
L 1946 2950 
z
" transform="scale(0.015625)"/>
      <path id="NotoSansCJKjp-Regular-a108" d="M 1600 4256 
L 4781 4256 
L 4781 3904 
L 1600 3904 
L 1600 4256 
z
M 1600 4883 
L 4781 4883 
L 4781 4538 
L 1600 4538 
L 1600 4883 
z
M 1133 5171 
L 1133 3616 
L 5261 3616 
L 5261 5171 
L 1133 5171 
z
M 333 3341 
L 333 2976 
L 6074 2976 
L 6074 3341 
L 333 3341 
z
M 1472 1747 
L 2957 1747 
L 2957 1376 
L 1472 1376 
L 1472 1747 
z
M 3424 1747 
L 4973 1747 
L 4973 1376 
L 3424 1376 
L 3424 1747 
z
M 1472 2387 
L 2957 2387 
L 2957 2029 
L 1472 2029 
L 1472 2387 
z
M 3424 2387 
L 4973 2387 
L 4973 2029 
L 3424 2029 
L 3424 2387 
z
M 301 19 
L 301 -352 
L 6112 -352 
L 6112 19 
L 3424 19 
L 3424 390 
L 5587 390 
L 5587 730 
L 3424 730 
L 3424 1082 
L 5446 1082 
L 5446 2688 
L 1018 2688 
L 1018 1082 
L 2957 1082 
L 2957 730 
L 838 730 
L 838 390 
L 2957 390 
L 2957 19 
L 301 19 
z
" transform="scale(0.015625)"/>
     </defs>
     <use xlink:href="#NotoSansCJKjp-Regular-2a94"/>
     <use xlink:href="#NotoSansCJKjp-Regular-41d6" transform="translate(100 0)"/>
     <use xlink:href="#NotoSansCJKjp-Regular-aaab" transform="translate(200 0)"/>
     <use xlink:href="#NotoSansCJKjp-Regular-371a" transform="translate(300 0)"/>
     <use xlink:href="#NotoSansCJKjp-Regular-9248" transform="translate(400 0)"/>
     <use xlink:href="#NotoSansCJKjp-Regular-1" transform="translate(500 0)"/>
     <use xlink:href="#NotoSansCJKjp-Regular-1e" transform="translate(522.40625 0)"/>
     <use xlink:href="#NotoSansCJKjp-Regular-1" transform="translate(577.90625 0)"/>
     <use xlink:href="#NotoSansCJKjp-Regular-2a94" transform="translate(600.3125 0)"/>
     <use xlink:href="#NotoSansCJKjp-Regular-5ace" transform="translate(700.3125 0)"/>
     <use xlink:href="#NotoSansCJKjp-Regular-2eb8" transform="translate(800.3125 0)"/>
     <use xlink:href="#NotoSansCJKjp-Regular-a108" transform="translate(900.3125 0)"/>
     <use xlink:href="#NotoSansCJKjp-Regular-371a" transform="translate(1000.3125 0)"/>
     <use xlink:href="#NotoSansCJKjp-Regular-9248" transform="translate(1100.3125 0)"/>
    </g>
    <!-- （必要時取補角） -->
    <g style="fill: #222831" transform="translate(84.503302 90.715882) scale(0.11 -0.11)">
     <defs>
      <path id="NotoSansCJKjp-Regular-e6ae" d="M 4448 2432 
C 4448 1184 4954 166 5722 -614 
L 6106 -416 
C 5370 346 4915 1293 4915 2432 
C 4915 3571 5370 4518 6106 5280 
L 5722 5478 
C 4954 4698 4448 3680 4448 2432 
z
" transform="scale(0.015625)"/>
      <path id="NotoSansCJKjp-Regular-4452" d="M 1984 5018 
C 2522 4653 3219 4115 3597 3789 
L 3917 4173 
C 3546 4474 2842 4998 2298 5357 
L 1984 5018 
z
M 941 3443 
C 819 2739 563 1869 198 1318 
L 659 1133 
C 1018 1690 1254 2611 1395 3322 
L 941 3443 
z
M 4730 3027 
C 5152 2387 5587 1523 5754 954 
L 6214 1178 
C 6035 1741 5600 2586 5158 3219 
L 4730 3027 
z
M 5062 4998 
C 4480 3814 3597 2643 2470 1690 
L 2470 3821 
L 1971 3821 
L 1971 1293 
C 1427 890 838 538 205 250 
C 307 154 448 -19 518 -134 
C 1030 109 1517 397 1971 710 
L 1971 390 
C 1971 -282 2170 -454 2867 -454 
C 3021 -454 4006 -454 4166 -454 
C 4864 -454 5018 -115 5094 1037 
C 4954 1069 4742 1165 4621 1254 
C 4576 230 4512 19 4141 19 
C 3917 19 3078 19 2906 19 
C 2541 19 2470 83 2470 384 
L 2470 1082 
C 3789 2112 4819 3418 5542 4800 
L 5062 4998 
z
" transform="scale(0.015625)"/>
      <path id="NotoSansCJKjp-Regular-91d0" d="M 762 4128 
L 762 2470 
L 2458 2470 
L 2074 1882 
L 294 1882 
L 294 1478 
L 1792 1478 
C 1549 1133 1306 800 1107 550 
L 1562 390 
L 1696 563 
C 2086 486 2470 403 2848 314 
C 2214 90 1395 -32 378 -83 
C 461 -192 538 -371 570 -506 
C 1837 -416 2816 -224 3546 141 
C 4358 -70 5082 -307 5626 -525 
L 5920 -134 
C 5421 58 4768 262 4038 454 
C 4384 723 4653 1056 4838 1478 
L 6112 1478 
L 6112 1882 
L 2624 1882 
L 2982 2426 
L 2810 2470 
L 5683 2470 
L 5683 4128 
L 4141 4128 
L 4141 4672 
L 5952 4672 
L 5952 5101 
L 442 5101 
L 442 4672 
L 2189 4672 
L 2189 4128 
L 762 4128 
z
M 2355 1478 
L 4307 1478 
C 4102 1114 3821 819 3450 595 
C 2963 710 2458 819 1952 915 
L 2355 1478 
z
M 2643 4672 
L 3686 4672 
L 3686 4128 
L 2643 4128 
L 2643 4672 
z
M 1216 3731 
L 2189 3731 
L 2189 2861 
L 1216 2861 
L 1216 3731 
z
M 2643 3731 
L 3686 3731 
L 3686 2861 
L 2643 2861 
L 2643 3731 
z
M 4141 3731 
L 5210 3731 
L 5210 2861 
L 4141 2861 
L 4141 3731 
z
" transform="scale(0.015625)"/>
      <path id="NotoSansCJKjp-Regular-4f87" d="M 2848 1338 
C 3174 998 3520 525 3661 211 
L 4070 461 
C 3923 781 3558 1235 3232 1562 
L 2848 1338 
z
M 4038 5382 
L 4038 4614 
L 2694 4614 
L 2694 4186 
L 4038 4186 
L 4038 3373 
L 2426 3373 
L 2426 2938 
L 4883 2938 
L 4883 2214 
L 2458 2214 
L 2458 1786 
L 4883 1786 
L 4883 64 
C 4883 -32 4851 -58 4749 -58 
C 4646 -64 4282 -64 3891 -51 
C 3962 -186 4032 -378 4051 -506 
C 4570 -506 4890 -499 5094 -422 
C 5293 -352 5357 -218 5357 58 
L 5357 1786 
L 6106 1786 
L 6106 2214 
L 5357 2214 
L 5357 2938 
L 6170 2938 
L 6170 3373 
L 4512 3373 
L 4512 4186 
L 5901 4186 
L 5901 4614 
L 4512 4614 
L 4512 5382 
L 4038 5382 
z
M 1862 2662 
L 1862 1184 
L 934 1184 
L 934 2662 
L 1862 2662 
z
M 1862 3098 
L 934 3098 
L 934 4518 
L 1862 4518 
L 1862 3098 
z
M 486 4960 
L 486 224 
L 934 224 
L 934 749 
L 2317 749 
L 2317 4960 
L 486 4960 
z
" transform="scale(0.015625)"/>
      <path id="NotoSansCJKjp-Regular-2e66" d="M 3853 4000 
L 3392 3910 
C 3603 2854 3904 1926 4346 1165 
C 3968 634 3507 237 3002 -26 
C 3110 -122 3245 -301 3315 -422 
C 3808 -134 4256 243 4634 723 
C 4986 243 5408 -154 5920 -442 
C 5997 -320 6144 -134 6253 -45 
C 5722 230 5286 640 4928 1152 
C 5446 1971 5811 3046 5971 4429 
L 5664 4512 
L 5581 4493 
L 3270 4493 
L 3270 4026 
L 5440 4026 
C 5286 3078 5011 2272 4640 1619 
C 4275 2304 4019 3110 3853 4000 
z
M 173 787 
L 262 314 
C 870 403 1702 531 2515 666 
L 2515 -499 
L 2982 -499 
L 2982 4525 
L 3430 4525 
L 3430 4979 
L 307 4979 
L 307 4525 
L 800 4525 
L 800 870 
L 173 787 
z
M 1261 4525 
L 2515 4525 
L 2515 3674 
L 1261 3674 
L 1261 4525 
z
M 1261 3238 
L 2515 3238 
L 2515 2342 
L 1261 2342 
L 1261 3238 
z
M 1261 1907 
L 2515 1907 
L 2515 1114 
L 1261 934 
L 1261 1907 
z
" transform="scale(0.015625)"/>
      <path id="NotoSansCJKjp-Regular-9068" d="M 4838 5056 
C 5158 4890 5549 4640 5747 4454 
L 6016 4749 
C 5818 4934 5414 5171 5094 5318 
L 4838 5056 
z
M 5530 2995 
L 5530 2310 
L 4576 2310 
L 4576 2995 
L 5530 2995 
z
M 4122 5370 
L 4122 4442 
L 2541 4442 
L 2541 4013 
L 4122 4013 
L 4122 3405 
L 2739 3405 
L 2739 -512 
L 3194 -512 
L 3194 819 
L 4122 819 
L 4122 -486 
L 4576 -486 
L 4576 819 
L 5530 819 
L 5530 -6 
C 5530 -77 5510 -96 5440 -96 
C 5370 -96 5165 -96 4928 -90 
C 4998 -205 5062 -403 5088 -518 
C 5414 -518 5645 -512 5792 -435 
C 5939 -358 5984 -237 5984 -6 
L 5984 3405 
L 4576 3405 
L 4576 4013 
L 6118 4013 
L 6118 4442 
L 4576 4442 
L 4576 5370 
L 4122 5370 
z
M 5530 1920 
L 5530 1216 
L 4576 1216 
L 4576 1920 
L 5530 1920 
z
M 3194 1920 
L 4122 1920 
L 4122 1216 
L 3194 1216 
L 3194 1920 
z
M 3194 2310 
L 3194 2995 
L 4122 2995 
L 4122 2310 
L 3194 2310 
z
M 2362 2989 
C 2266 2797 2093 2528 1946 2317 
L 1715 2598 
C 1990 3040 2234 3526 2400 4026 
L 2144 4186 
L 2054 4166 
L 1606 4166 
L 1606 5357 
L 1165 5357 
L 1165 4166 
L 339 4166 
L 339 3731 
L 1843 3731 
C 1478 2861 819 1997 192 1504 
C 269 1421 390 1203 442 1088 
C 685 1293 934 1555 1178 1850 
L 1178 -518 
L 1626 -518 
L 1626 2144 
C 1856 1843 2118 1466 2240 1267 
L 2534 1594 
L 2150 2080 
C 2310 2272 2496 2534 2656 2778 
L 2362 2989 
z
" transform="scale(0.015625)"/>
      <path id="NotoSansCJKjp-Regular-e6af" d="M 1952 2432 
C 1952 3680 1446 4698 678 5478 
L 294 5280 
C 1030 4518 1485 3571 1485 2432 
C 1485 1293 1030 346 294 -416 
L 678 -614 
C 1446 166 1952 1184 1952 2432 
z
" transform="scale(0.015625)"/>
     </defs>
     <use xlink:href="#NotoSansCJKjp-Regular-e6ae"/>
     <use xlink:href="#NotoSansCJKjp-Regular-4452" transform="translate(100 0)"/>
     <use xlink:href="#NotoSansCJKjp-Regular-91d0" transform="translate(200 0)"/>
     <use xlink:href="#NotoSansCJKjp-Regular-4f87" transform="translate(300 0)"/>
     <use xlink:href="#NotoSansCJKjp-Regular-2e66" transform="translate(400 0)"/>
     <use xlink:href="#NotoSansCJKjp-Regular-9068" transform="translate(500 0)"/>
     <use xlink:href="#NotoSansCJKjp-Regular-9248" transform="translate(600 0)"/>
     <use xlink:href="#NotoSansCJKjp-Regular-e6af" transform="translate(700 0)"/>
    </g>
   </g>
   <g id="text_5">
    <!-- 兩平面的夾角 -->
    <g style="fill: #222831" transform="translate(117.888 18.64) scale(0.13 -0.13)">
     <defs>
      <path id="NotoSansCJKjp-Regular-6c33" d="M 3533 2707 
C 3885 2240 4320 1600 4512 1210 
L 4922 1466 
C 4710 1843 4269 2464 3904 2918 
L 3533 2707 
z
M 1536 5389 
C 1485 5082 1376 4659 1274 4346 
L 557 4346 
L 557 -346 
L 998 -346 
L 998 160 
L 2784 160 
L 2784 4346 
L 1715 4346 
C 1824 4621 1946 4979 2054 5299 
L 1536 5389 
z
M 998 3917 
L 2342 3917 
L 2342 2566 
L 998 2566 
L 998 3917 
z
M 998 595 
L 998 2144 
L 2342 2144 
L 2342 595 
L 998 595 
z
M 3827 5402 
C 3622 4518 3277 3635 2835 3066 
C 2950 3002 3149 2867 3238 2790 
C 3456 3098 3661 3488 3840 3923 
L 5478 3923 
C 5402 1357 5299 371 5094 154 
C 5018 64 4947 45 4819 45 
C 4672 45 4288 51 3866 83 
C 3955 -38 4013 -243 4026 -378 
C 4384 -397 4762 -410 4979 -390 
C 5210 -365 5350 -314 5498 -122 
C 5754 192 5843 1184 5939 4122 
C 5946 4186 5946 4365 5946 4365 
L 4013 4365 
C 4115 4666 4211 4986 4288 5299 
L 3827 5402 
z
" transform="scale(0.015625)"/>
     </defs>
     <use xlink:href="#NotoSansCJKjp-Regular-2a94"/>
     <use xlink:href="#NotoSansCJKjp-Regular-41d6" transform="translate(100 0)"/>
     <use xlink:href="#NotoSansCJKjp-Regular-aaab" transform="translate(200 0)"/>
     <use xlink:href="#NotoSansCJKjp-Regular-6c33" transform="translate(300 0)"/>
     <use xlink:href="#NotoSansCJKjp-Regular-371a" transform="translate(400 0)"/>
     <use xlink:href="#NotoSansCJKjp-Regular-9248" transform="translate(500 0)"/>
    </g>
   </g>
   <g id="Poly3DCollection_2">
    <path d="M 160.933622 196.684638 
L 193.581975 175.322268 
L 121.026514 166.398485 
L 85.788327 186.937969 
z
" clip-path="url(#p78f269c9d0)" style="fill: #1f6feb; fill-opacity: 0.22"/>
    <path d="M 239.189399 206.83475 
L 269.007311 184.599025 
L 193.581975 175.322268 
L 160.933622 196.684638 
z
" clip-path="url(#p78f269c9d0)" style="fill: #1f6feb; fill-opacity: 0.22"/>
    <path d="M 125.169603 220.08564 
L 160.933622 196.684638 
L 85.788327 186.937969 
L 47.257277 209.396782 
z
" clip-path="url(#p78f269c9d0)" style="fill: #1f6feb; fill-opacity: 0.22"/>
    <path d="M 206.464169 231.238511 
L 239.189399 206.83475 
L 160.933622 196.684638 
L 125.169603 220.08564 
z
" clip-path="url(#p78f269c9d0)" style="fill: #1f6feb; fill-opacity: 0.22"/>
   </g>
   <g id="patch_4">
    <path d="M 160.933622 194.68327 
Q 160.933622 152.19164 160.933622 112.606899 
" clip-path="url(#p78f269c9d0)" style="fill: none; stroke: #1f6feb; stroke-width: 2.6; stroke-linecap: round"/>
    <path d="M 157.333622 119.806899 
L 160.933622 112.606899 
L 164.533622 119.806899 
z
" clip-path="url(#p78f269c9d0)" style="fill: #1f6feb; stroke: #1f6feb; stroke-width: 2.6; stroke-linecap: round"/>
   </g>
  </g>
 </g>
 <defs>
  <clipPath id="p78f269c9d0">
   <rect x="7.2" y="24.64" width="299.376" height="299.376"/>
  </clipPath>
 </defs>
</svg>
