<?xml version="1.0" encoding="utf-8" standalone="no"?>
<!DOCTYPE svg PUBLIC "-//W3C//DTD SVG 1.1//EN"
  "http://www.w3.org/Graphics/SVG/1.1/DTD/svg11.dtd">
<svg xmlns:xlink="http://www.w3.org/1999/xlink" width="381.26pt" height="309.04pt" viewBox="0 0 381.26 309.04" xmlns="http://www.w3.org/2000/svg" version="1.1">
 <metadata>
  <rdf:RDF xmlns:dc="http://purl.org/dc/elements/1.1/" xmlns:cc="http://creativecommons.org/ns#" xmlns:rdf="http://www.w3.org/1999/02/22-rdf-syntax-ns#">
   <cc:Work>
    <dc:type rdf:resource="http://purl.org/dc/dcmitype/StillImage"/>
    <dc:date>2026-06-20T18:20:38.410308</dc:date>
    <dc:format>image/svg+xml</dc:format>
    <dc:creator>
     <cc:Agent>
      <dc:title>Matplotlib v3.11.0, https://matplotlib.org/</dc:title>
     </cc:Agent>
    </dc:creator>
   </cc:Work>
  </rdf:RDF>
 </metadata>
 <defs>
  <style type="text/css">*{stroke-linejoin: round; stroke-linecap: butt}</style>
 </defs>
 <g id="figure_1">
  <g id="patch_1">
   <path d="M 0 309.04 
L 381.26 309.04 
L 381.26 0 
L 0 0 
z
" style="fill: #ffffff"/>
  </g>
  <g id="axes_1">
   <g id="patch_2">
    <path d="M 68.662 138.292 
L 146.278 138.292 
Q 151.822 138.292 151.822 132.748 
L 151.822 82.852 
Q 151.822 77.308 146.278 77.308 
L 68.662 77.308 
Q 63.118 77.308 63.118 82.852 
L 63.118 132.748 
Q 63.118 138.292 68.662 138.292 
z
" clip-path="url(#pd86842f28c)" style="fill: #eef4ff; stroke: #1f6feb; stroke-width: 2; stroke-linejoin: miter"/>
   </g>
   <g id="text_1">
    <!-- 反應前 -->
    <g style="fill: #1f6feb" transform="translate(89.47 95.326) scale(0.12 -0.12)">
     <defs>
      <path id="NotoSansCJKjp-Regular-2e5a" d="M 1088 4973 
L 1088 3226 
C 1088 2202 1030 787 326 -218 
C 442 -269 646 -416 730 -499 
C 1389 448 1549 1830 1568 2886 
L 1990 2886 
C 2285 2048 2694 1357 3245 806 
C 2688 397 2042 102 1363 -70 
C 1459 -179 1581 -384 1645 -512 
C 2362 -294 3034 19 3622 474 
C 4192 19 4890 -314 5728 -525 
C 5792 -390 5933 -186 6048 -77 
C 5242 96 4570 397 4013 806 
C 4659 1408 5158 2208 5440 3238 
L 5107 3379 
L 5011 3354 
L 1574 3354 
L 1574 4499 
L 5792 4499 
L 5792 4973 
L 1088 4973 
z
M 4800 2886 
C 4544 2176 4134 1594 3629 1126 
C 3130 1600 2752 2189 2496 2886 
L 4800 2886 
z
" transform="scale(0.015625)"/>
      <path id="NotoSansCJKjp-Regular-47d4" d="M 2630 998 
L 2630 96 
C 2630 -346 2771 -467 3347 -467 
C 3469 -467 4262 -467 4384 -467 
C 4826 -467 4966 -314 5011 326 
C 4896 352 4710 416 4614 486 
C 4595 0 4550 -64 4339 -64 
C 4166 -64 3520 -64 3386 -64 
C 3117 -64 3072 -38 3072 102 
L 3072 998 
L 2630 998 
z
M 2976 1267 
C 3360 1082 3827 787 4058 576 
L 4352 883 
C 4115 1088 3635 1363 3251 1530 
L 2976 1267 
z
M 4813 896 
C 5184 512 5574 -19 5728 -378 
L 6138 -166 
C 5971 198 5562 710 5184 1082 
L 4813 896 
z
M 1856 1018 
C 1734 589 1478 134 1120 -122 
L 1485 -365 
C 1875 -70 2099 422 2253 877 
L 1856 1018 
z
M 4275 2899 
L 4275 2547 
L 3482 2547 
L 3482 2899 
L 4275 2899 
z
M 3411 4435 
C 3174 3878 2790 3322 2381 2950 
C 2483 2886 2650 2752 2720 2675 
C 2835 2790 2950 2925 3066 3072 
L 3066 1568 
L 5990 1568 
L 5990 1894 
L 4685 1894 
L 4685 2266 
L 5722 2266 
L 5722 2547 
L 4685 2547 
L 4685 2899 
L 5722 2899 
L 5722 3181 
L 4685 3181 
L 4685 3526 
L 5882 3526 
L 5882 3846 
L 4736 3846 
C 4819 3974 4909 4128 4992 4275 
L 4557 4397 
C 4499 4243 4390 4019 4301 3846 
L 3584 3846 
C 3667 4000 3750 4160 3821 4320 
L 3411 4435 
z
M 4275 3181 
L 3482 3181 
L 3482 3526 
L 4275 3526 
L 4275 3181 
z
M 4275 2266 
L 4275 1894 
L 3482 1894 
L 3482 2266 
L 4275 2266 
z
M 698 4877 
L 698 2950 
C 698 2010 659 698 186 -237 
C 288 -288 480 -435 557 -518 
C 1037 422 1133 1798 1139 2790 
C 1222 2714 1325 2605 1376 2547 
C 1536 2694 1702 2867 1862 3059 
L 1862 1434 
L 2278 1434 
L 2278 3610 
C 2432 3834 2566 4070 2682 4307 
L 2278 4422 
C 2010 3866 1587 3309 1139 2918 
L 1139 2950 
L 1139 4474 
L 6093 4474 
L 6093 4877 
L 3635 4877 
L 3635 5376 
L 3142 5376 
L 3142 4877 
L 698 4877 
z
" transform="scale(0.015625)"/>
      <path id="NotoSansCJKjp-Regular-2be5" d="M 3866 3290 
L 3866 666 
L 4314 666 
L 4314 3290 
L 3866 3290 
z
M 5165 3482 
L 5165 90 
C 5165 -6 5133 -32 5030 -32 
C 4922 -38 4576 -38 4186 -26 
C 4256 -154 4333 -358 4358 -486 
C 4851 -493 5178 -480 5370 -403 
C 5568 -326 5638 -192 5638 83 
L 5638 3482 
L 5165 3482 
z
M 4627 5408 
C 4486 5094 4243 4672 4026 4365 
L 2106 4365 
L 2419 4480 
C 2298 4736 2022 5114 1779 5382 
L 1331 5222 
C 1562 4960 1798 4614 1920 4365 
L 339 4365 
L 339 3923 
L 6061 3923 
L 6061 4365 
L 4570 4365 
C 4755 4627 4960 4947 5139 5242 
L 4627 5408 
z
M 2618 1926 
L 2618 1280 
L 1197 1280 
L 1197 1926 
L 2618 1926 
z
M 2618 2304 
L 1197 2304 
L 1197 2938 
L 2618 2938 
L 2618 2304 
z
M 742 3347 
L 742 -480 
L 1197 -480 
L 1197 902 
L 2618 902 
L 2618 45 
C 2618 -38 2592 -64 2502 -64 
C 2419 -70 2125 -70 1798 -58 
C 1862 -179 1933 -365 1965 -486 
C 2394 -486 2682 -480 2854 -403 
C 3034 -333 3085 -205 3085 38 
L 3085 3347 
L 742 3347 
z
" transform="scale(0.015625)"/>
     </defs>
     <use xlink:href="#NotoSansCJKjp-Regular-2e5a"/>
     <use xlink:href="#NotoSansCJKjp-Regular-47d4" transform="translate(100 0)"/>
     <use xlink:href="#NotoSansCJKjp-Regular-2be5" transform="translate(200 0)"/>
    </g>
   </g>
   <g id="text_2">
    <!-- 核子分開 -->
    <g style="fill: #555555" transform="translate(87.47 120.274) scale(0.1 -0.1)">
     <defs>
      <path id="NotoSansCJKjp-Regular-52ac" d="M 5114 3488 
C 4858 3053 4512 2643 4096 2272 
C 3942 2419 3744 2592 3526 2765 
C 3821 3091 4179 3558 4467 3949 
L 4442 3962 
L 6125 3962 
L 6125 4403 
L 4570 4403 
L 4570 5363 
L 4102 5363 
L 4102 4403 
L 2496 4403 
L 2496 3962 
L 3878 3962 
C 3686 3648 3430 3290 3206 3008 
L 2874 3245 
L 2592 2925 
C 2976 2656 3437 2272 3738 1971 
C 3341 1670 2906 1408 2458 1216 
C 2566 1126 2701 973 2765 864 
C 3898 1402 4922 2298 5530 3315 
L 5114 3488 
z
M 5651 2317 
C 4992 1203 3757 339 2285 -115 
C 2400 -224 2515 -390 2579 -506 
C 3373 -237 4096 141 4704 608 
C 5120 230 5568 -230 5805 -531 
L 6195 -237 
C 5939 70 5466 525 5043 890 
C 5459 1261 5805 1670 6080 2131 
L 5651 2317 
z
M 1274 5376 
L 1274 4006 
L 333 4006 
L 333 3552 
L 1222 3552 
C 1024 2675 614 1664 205 1120 
C 288 1011 403 826 454 698 
C 762 1114 1050 1798 1274 2502 
L 1274 -506 
L 1722 -506 
L 1722 2496 
C 1933 2157 2182 1741 2291 1517 
L 2560 1888 
C 2445 2074 1907 2842 1722 3066 
L 1722 3552 
L 2483 3552 
L 2483 4006 
L 1722 4006 
L 1722 5376 
L 1274 5376 
z
" transform="scale(0.015625)"/>
      <path id="NotoSansCJKjp-Regular-3bf8" d="M 966 4934 
L 966 4454 
L 4595 4454 
C 4211 4134 3718 3795 3264 3546 
L 2963 3546 
L 2963 2515 
L 301 2515 
L 301 2035 
L 2963 2035 
L 2963 115 
C 2963 0 2925 -32 2790 -45 
C 2643 -45 2170 -51 1658 -32 
C 1734 -173 1830 -384 1862 -525 
C 2477 -531 2893 -518 3136 -435 
C 3379 -358 3462 -218 3462 109 
L 3462 2035 
L 6112 2035 
L 6112 2515 
L 3462 2515 
L 3462 3149 
C 4179 3539 5024 4134 5574 4685 
L 5210 4960 
L 5101 4934 
L 966 4934 
z
" transform="scale(0.015625)"/>
      <path id="NotoSansCJKjp-Regular-2b86" d="M 2074 5248 
C 1677 4256 966 3373 147 2829 
C 262 2739 474 2554 563 2451 
C 1363 3059 2118 4019 2586 5101 
L 2074 5248 
z
M 4307 5261 
L 3846 5075 
C 4326 4122 5139 3085 5850 2509 
C 5939 2643 6118 2829 6253 2931 
C 5549 3424 4723 4397 4307 5261 
z
M 1197 2957 
L 1197 2490 
L 2509 2490 
C 2368 1402 2010 378 486 -122 
C 595 -224 736 -416 800 -544 
C 2445 51 2854 1216 3027 2490 
L 4685 2490 
C 4608 864 4512 224 4346 58 
C 4282 -6 4205 -26 4077 -26 
C 3923 -26 3533 -19 3110 19 
C 3200 -115 3258 -320 3270 -461 
C 3674 -486 4070 -493 4288 -474 
C 4506 -454 4653 -410 4781 -243 
C 5005 0 5094 736 5190 2726 
C 5197 2790 5197 2957 5197 2957 
L 1197 2957 
z
" transform="scale(0.015625)"/>
      <path id="NotoSansCJKjp-Regular-a767" d="M 3622 2144 
L 3622 1446 
L 2726 1446 
L 2726 2144 
L 3622 2144 
z
M 1491 1446 
L 1491 1037 
L 2291 1037 
C 2246 666 2067 134 1530 -192 
C 1632 -262 1779 -397 1850 -486 
C 2464 -70 2669 608 2714 1037 
L 3622 1037 
L 3622 -390 
L 4051 -390 
L 4051 1037 
L 4922 1037 
L 4922 1446 
L 4051 1446 
L 4051 2144 
L 4787 2144 
L 4787 2541 
L 1606 2541 
L 1606 2144 
L 2304 2144 
L 2304 1446 
L 1491 1446 
z
M 2451 3872 
L 2451 3315 
L 1043 3315 
L 1043 3872 
L 2451 3872 
z
M 2451 4211 
L 1043 4211 
L 1043 4736 
L 2451 4736 
L 2451 4211 
z
M 5389 3872 
L 5389 3309 
L 3930 3309 
L 3930 3872 
L 5389 3872 
z
M 5389 4211 
L 3930 4211 
L 3930 4736 
L 5389 4736 
L 5389 4211 
z
M 5619 5101 
L 3475 5101 
L 3475 2938 
L 5389 2938 
L 5389 115 
C 5389 13 5357 -19 5254 -26 
C 5152 -26 4813 -26 4461 -19 
C 4531 -147 4595 -371 4608 -499 
C 5101 -506 5421 -493 5613 -416 
C 5798 -333 5862 -179 5862 109 
L 5862 5101 
L 5619 5101 
z
M 570 5101 
L 570 -518 
L 1043 -518 
L 1043 2944 
L 2906 2944 
L 2906 5101 
L 570 5101 
z
" transform="scale(0.015625)"/>
     </defs>
     <use xlink:href="#NotoSansCJKjp-Regular-52ac"/>
     <use xlink:href="#NotoSansCJKjp-Regular-3bf8" transform="translate(100 0)"/>
     <use xlink:href="#NotoSansCJKjp-Regular-2b86" transform="translate(200 0)"/>
     <use xlink:href="#NotoSansCJKjp-Regular-a767" transform="translate(300 0)"/>
    </g>
   </g>
   <g id="text_3">
    <!-- 總質量 $M_{0}$ -->
    <g style="fill: #222831" transform="translate(79.81 182.644) scale(0.12 -0.12)">
     <defs>
      <path id="NotoSansCJKjp-Regular-7aeb" d="M 5133 1126 
C 5446 698 5741 115 5837 -288 
L 6227 -96 
C 6118 294 5818 870 5485 1299 
L 5133 1126 
z
M 3475 1280 
L 3475 64 
C 3475 -378 3584 -493 4058 -493 
C 4147 -493 4672 -493 4781 -493 
C 5139 -493 5261 -346 5306 282 
C 5190 314 5018 378 4928 448 
C 4909 -32 4883 -96 4723 -96 
C 4614 -96 4186 -96 4109 -96 
C 3917 -96 3891 -77 3891 70 
L 3891 1280 
L 3475 1280 
z
M 2848 1178 
C 2778 685 2611 173 2298 -128 
L 2650 -326 
C 2995 0 3149 557 3232 1088 
L 2848 1178 
z
M 1811 1638 
C 1965 1267 2086 781 2112 461 
L 2477 576 
C 2438 890 2310 1370 2157 1741 
L 1811 1638 
z
M 570 1715 
C 493 1158 378 582 166 192 
C 269 154 448 70 525 19 
C 723 429 877 1043 960 1651 
L 570 1715 
z
M 3264 3680 
L 3616 3514 
C 3501 3392 3373 3283 3226 3181 
C 3309 3142 3418 3046 3482 2970 
C 3642 3091 3782 3219 3904 3354 
C 4058 3270 4211 3181 4352 3085 
C 4090 2848 3782 2662 3475 2547 
C 3539 2496 3616 2400 3661 2323 
L 3117 2323 
L 3117 4403 
L 5485 4403 
L 5485 2323 
L 3757 2323 
C 4070 2458 4365 2650 4621 2899 
C 4787 2784 4928 2675 5037 2573 
L 5274 2816 
C 5158 2918 5011 3027 4845 3142 
C 5030 3379 5184 3661 5286 3981 
L 5069 4070 
L 5011 4051 
L 4378 4051 
L 4493 4301 
L 4160 4352 
C 4090 4160 3974 3949 3821 3750 
L 3501 3904 
L 3264 3680 
z
M 3571 1728 
C 3949 1517 4397 1190 4602 960 
L 4915 1229 
C 4710 1459 4282 1760 3910 1946 
L 5894 1946 
L 5894 4774 
L 4390 4774 
C 4474 4934 4563 5120 4646 5299 
L 4122 5389 
C 4077 5216 3994 4979 3910 4774 
L 2720 4774 
L 2720 1946 
L 3827 1946 
L 3571 1728 
z
M 4224 3776 
L 4858 3776 
C 4781 3610 4685 3462 4576 3322 
C 4422 3418 4262 3514 4102 3603 
L 4224 3776 
z
M 179 2547 
L 237 2118 
L 1210 2176 
L 1210 -512 
L 1626 -512 
L 1626 2202 
L 2106 2240 
C 2157 2086 2195 1939 2214 1824 
L 2579 1978 
C 2509 2336 2272 2899 2035 3328 
L 1696 3194 
C 1786 3021 1875 2829 1952 2637 
L 1094 2592 
C 1510 3136 1978 3866 2330 4467 
L 1933 4646 
C 1766 4301 1530 3878 1280 3475 
C 1190 3603 1075 3744 947 3885 
C 1178 4243 1446 4774 1670 5216 
L 1254 5376 
C 1126 5018 896 4525 691 4154 
L 486 4352 
L 237 4051 
C 531 3776 858 3398 1043 3104 
C 915 2906 787 2726 666 2566 
L 179 2547 
z
" transform="scale(0.015625)"/>
      <path id="NotoSansCJKjp-Regular-97ec" d="M 1606 2061 
L 4851 2061 
L 4851 1613 
L 1606 1613 
L 1606 2061 
z
M 1606 1299 
L 4851 1299 
L 4851 845 
L 1606 845 
L 1606 1299 
z
M 1606 2816 
L 4851 2816 
L 4851 2374 
L 1606 2374 
L 1606 2816 
z
M 1139 3142 
L 1139 518 
L 5331 518 
L 5331 3142 
L 1139 3142 
z
M 3738 186 
C 4435 -45 5126 -320 5530 -525 
L 6067 -282 
C 5600 -70 4826 211 4128 429 
L 3738 186 
z
M 2227 448 
C 1766 198 998 -32 339 -173 
C 448 -256 621 -435 698 -531 
C 1338 -358 2150 -58 2669 250 
L 2227 448 
z
M 813 5203 
L 813 4570 
C 813 4154 736 3642 282 3226 
C 384 3162 538 3014 602 2918 
C 973 3264 1139 3693 1203 4077 
L 1990 4077 
L 1990 3270 
L 2419 3270 
L 2419 4077 
L 3174 4077 
L 3174 4448 
L 1242 4448 
L 1242 4544 
L 1242 4774 
C 1843 4832 2528 4922 3002 5062 
L 2682 5363 
C 2336 5254 1741 5158 1184 5101 
L 813 5203 
z
M 3430 5190 
L 3430 4614 
C 3430 4256 3334 3846 2816 3507 
C 2918 3437 3059 3283 3117 3181 
C 3501 3443 3693 3763 3782 4077 
L 4678 4077 
L 4678 3258 
L 5114 3258 
L 5114 4077 
L 6067 4077 
L 6067 4448 
L 3853 4448 
L 3859 4602 
L 3859 4774 
C 4506 4826 5242 4915 5747 5050 
L 5427 5350 
C 5050 5248 4397 5152 3802 5094 
L 3430 5190 
z
" transform="scale(0.015625)"/>
      <path id="NotoSansCJKjp-Regular-a108" d="M 1600 4256 
L 4781 4256 
L 4781 3904 
L 1600 3904 
L 1600 4256 
z
M 1600 4883 
L 4781 4883 
L 4781 4538 
L 1600 4538 
L 1600 4883 
z
M 1133 5171 
L 1133 3616 
L 5261 3616 
L 5261 5171 
L 1133 5171 
z
M 333 3341 
L 333 2976 
L 6074 2976 
L 6074 3341 
L 333 3341 
z
M 1472 1747 
L 2957 1747 
L 2957 1376 
L 1472 1376 
L 1472 1747 
z
M 3424 1747 
L 4973 1747 
L 4973 1376 
L 3424 1376 
L 3424 1747 
z
M 1472 2387 
L 2957 2387 
L 2957 2029 
L 1472 2029 
L 1472 2387 
z
M 3424 2387 
L 4973 2387 
L 4973 2029 
L 3424 2029 
L 3424 2387 
z
M 301 19 
L 301 -352 
L 6112 -352 
L 6112 19 
L 3424 19 
L 3424 390 
L 5587 390 
L 5587 730 
L 3424 730 
L 3424 1082 
L 5446 1082 
L 5446 2688 
L 1018 2688 
L 1018 1082 
L 2957 1082 
L 2957 730 
L 838 730 
L 838 390 
L 2957 390 
L 2957 19 
L 301 19 
z
" transform="scale(0.015625)"/>
      <path id="NotoSansCJKjp-Regular-1" transform="scale(0.015625)"/>
      <path id="Cmmi10-2d" d="M 325 0 
Q 263 0 263 84 
Q 266 100 275 137 
Q 284 175 300 200 
Q 316 225 347 225 
Q 956 225 1056 616 
L 1888 3956 
Q 1900 4019 1900 4044 
Q 1900 4113 1825 4122 
Q 1703 4147 1363 4147 
Q 1300 4147 1300 4231 
Q 1303 4247 1312 4286 
Q 1322 4325 1339 4348 
Q 1356 4372 1381 4372 
L 2509 4372 
Q 2581 4372 2591 4300 
L 3091 634 
L 5422 4300 
Q 5466 4372 5544 4372 
L 6631 4372 
Q 6694 4372 6694 4288 
Q 6691 4272 6681 4233 
Q 6672 4194 6655 4170 
Q 6638 4147 6613 4147 
Q 6222 4147 6069 4103 
Q 5984 4075 5947 3928 
L 5069 416 
Q 5056 353 5056 325 
Q 5056 300 5064 283 
Q 5072 266 5086 261 
Q 5100 256 5131 250 
Q 5253 225 5594 225 
Q 5656 225 5656 141 
Q 5634 50 5621 25 
Q 5609 0 5550 0 
L 3878 0 
Q 3816 0 3816 84 
Q 3819 100 3828 139 
Q 3838 178 3855 201 
Q 3872 225 3897 225 
Q 4288 225 4441 269 
Q 4525 297 4563 441 
L 5484 4147 
L 2900 72 
Q 2863 0 2772 0 
Q 2691 0 2681 72 
L 2138 4097 
L 1259 588 
Q 1253 572 1250 548 
Q 1247 525 1241 494 
Q 1241 328 1386 276 
Q 1531 225 1741 225 
Q 1806 225 1806 141 
Q 1784 56 1770 28 
Q 1756 0 1697 0 
L 325 0 
z
" transform="scale(0.015625)"/>
      <path id="Cmr10-28" d="M 1600 -141 
Q 816 -141 533 504 
Q 250 1150 250 2041 
Q 250 2597 351 3087 
Q 453 3578 754 3920 
Q 1056 4263 1600 4263 
Q 2022 4263 2290 4056 
Q 2559 3850 2700 3523 
Q 2841 3197 2892 2823 
Q 2944 2450 2944 2041 
Q 2944 1491 2842 1011 
Q 2741 531 2444 195 
Q 2147 -141 1600 -141 
z
M 1600 25 
Q 1956 25 2131 390 
Q 2306 756 2347 1200 
Q 2388 1644 2388 2144 
Q 2388 2625 2347 3031 
Q 2306 3438 2132 3767 
Q 1959 4097 1600 4097 
Q 1238 4097 1063 3765 
Q 888 3434 847 3029 
Q 806 2625 806 2144 
Q 806 1788 823 1472 
Q 841 1156 916 820 
Q 991 484 1158 254 
Q 1325 25 1600 25 
z
" transform="scale(0.015625)"/>
     </defs>
     <use xlink:href="#NotoSansCJKjp-Regular-7aeb" transform="translate(0 0.796875)"/>
     <use xlink:href="#NotoSansCJKjp-Regular-97ec" transform="translate(99.999908 0.796875)"/>
     <use xlink:href="#NotoSansCJKjp-Regular-a108" transform="translate(199.999817 0.796875)"/>
     <use xlink:href="#NotoSansCJKjp-Regular-1" transform="translate(299.999725 0.796875)"/>
     <use xlink:href="#Cmmi10-2d" transform="translate(322.399704 0.796875)"/>
     <use xlink:href="#Cmr10-28" transform="translate(419.421188 -14.203087) scale(0.7)"/>
    </g>
   </g>
   <g id="text_4">
    <!-- （較重） -->
    <g style="fill: #555555" transform="translate(88.47 199.276) scale(0.095 -0.095)">
     <defs>
      <path id="NotoSansCJKjp-Regular-e6ae" d="M 4448 2432 
C 4448 1184 4954 166 5722 -614 
L 6106 -416 
C 5370 346 4915 1293 4915 2432 
C 4915 3571 5370 4518 6106 5280 
L 5722 5478 
C 4954 4698 4448 3680 4448 2432 
z
" transform="scale(0.015625)"/>
      <path id="NotoSansCJKjp-Regular-9b33" d="M 4954 3789 
C 5280 3366 5645 2803 5792 2438 
L 6202 2662 
C 6042 3021 5664 3571 5331 3981 
L 4954 3789 
z
M 3763 3955 
C 3558 3469 3238 2989 2867 2662 
C 2982 2598 3168 2464 3258 2387 
C 3616 2746 3981 3290 4211 3840 
L 3763 3955 
z
M 3014 4538 
L 3014 4102 
L 6125 4102 
L 6125 4538 
L 4806 4538 
L 4806 5382 
L 4339 5382 
L 4339 4538 
L 3014 4538 
z
M 5133 2720 
C 5018 2195 4826 1728 4557 1325 
C 4288 1741 4083 2208 3936 2707 
L 3520 2605 
C 3706 1990 3955 1427 4269 947 
C 3866 474 3341 109 2688 -166 
C 2784 -250 2931 -422 2995 -531 
C 3622 -250 4134 115 4544 570 
C 4922 96 5376 -282 5907 -531 
C 5978 -410 6118 -230 6227 -141 
C 5683 83 5216 461 4838 934 
C 5178 1408 5427 1971 5587 2624 
L 5133 2720 
z
M 461 3782 
L 461 1555 
L 1414 1555 
L 1414 1030 
L 250 1030 
L 250 608 
L 1414 608 
L 1414 -518 
L 1850 -518 
L 1850 608 
L 3046 608 
L 3046 1030 
L 1850 1030 
L 1850 1555 
L 2822 1555 
L 2822 3782 
L 1850 3782 
L 1850 4256 
L 2912 4256 
L 2912 4678 
L 1850 4678 
L 1850 5376 
L 1414 5376 
L 1414 4678 
L 320 4678 
L 320 4256 
L 1414 4256 
L 1414 3782 
L 461 3782 
z
M 832 2502 
L 1453 2502 
L 1453 1914 
L 832 1914 
L 832 2502 
z
M 1811 2502 
L 2438 2502 
L 2438 1914 
L 1811 1914 
L 1811 2502 
z
M 832 3424 
L 1453 3424 
L 1453 2848 
L 832 2848 
L 832 3424 
z
M 1811 3424 
L 2438 3424 
L 2438 2848 
L 1811 2848 
L 1811 3424 
z
" transform="scale(0.015625)"/>
      <path id="NotoSansCJKjp-Regular-a106" d="M 1018 3456 
L 1018 1466 
L 2938 1466 
L 2938 1024 
L 813 1024 
L 813 640 
L 2938 640 
L 2938 83 
L 333 83 
L 333 -307 
L 6074 -307 
L 6074 83 
L 3418 83 
L 3418 640 
L 5670 640 
L 5670 1024 
L 3418 1024 
L 3418 1466 
L 5427 1466 
L 5427 3456 
L 3418 3456 
L 3418 3846 
L 6042 3846 
L 6042 4243 
L 3418 4243 
L 3418 4736 
C 4166 4794 4870 4870 5421 4966 
L 5165 5338 
C 4154 5158 2342 5037 851 4998 
C 896 4902 947 4730 954 4621 
C 1581 4634 2266 4659 2938 4698 
L 2938 4243 
L 371 4243 
L 371 3846 
L 2938 3846 
L 2938 3456 
L 1018 3456 
z
M 1485 2304 
L 2938 2304 
L 2938 1818 
L 1485 1818 
L 1485 2304 
z
M 3418 2304 
L 4941 2304 
L 4941 1818 
L 3418 1818 
L 3418 2304 
z
M 1485 3110 
L 2938 3110 
L 2938 2630 
L 1485 2630 
L 1485 3110 
z
M 3418 3110 
L 4941 3110 
L 4941 2630 
L 3418 2630 
L 3418 3110 
z
" transform="scale(0.015625)"/>
      <path id="NotoSansCJKjp-Regular-e6af" d="M 1952 2432 
C 1952 3680 1446 4698 678 5478 
L 294 5280 
C 1030 4518 1485 3571 1485 2432 
C 1485 1293 1030 346 294 -416 
L 678 -614 
C 1446 166 1952 1184 1952 2432 
z
" transform="scale(0.015625)"/>
     </defs>
     <use xlink:href="#NotoSansCJKjp-Regular-e6ae"/>
     <use xlink:href="#NotoSansCJKjp-Regular-9b33" transform="translate(100 0)"/>
     <use xlink:href="#NotoSansCJKjp-Regular-a106" transform="translate(200 0)"/>
     <use xlink:href="#NotoSansCJKjp-Regular-e6af" transform="translate(300 0)"/>
    </g>
   </g>
   <g id="patch_3">
    <path d="M 185.086 138.292 
L 262.702 138.292 
Q 268.246 138.292 268.246 132.748 
L 268.246 82.852 
Q 268.246 77.308 262.702 77.308 
L 185.086 77.308 
Q 179.542 77.308 179.542 82.852 
L 179.542 132.748 
Q 179.542 138.292 185.086 138.292 
z
" clip-path="url(#pd86842f28c)" style="fill: #fff8ec; stroke: #bf8700; stroke-width: 2; stroke-linejoin: miter"/>
   </g>
   <g id="text_5">
    <!-- 反應後 -->
    <g style="fill: #bf8700" transform="translate(205.894 95.326) scale(0.12 -0.12)">
     <defs>
      <path id="NotoSansCJKjp-Regular-43f2" d="M 1562 5376 
C 1280 4922 710 4371 211 4032 
C 288 3949 416 3776 474 3680 
C 1024 4070 1619 4666 1997 5203 
L 1562 5376 
z
M 1933 2944 
L 1978 2509 
L 3456 2554 
C 3072 1984 2470 1485 1862 1152 
C 1965 1069 2125 883 2189 787 
C 2451 947 2714 1139 2963 1357 
C 3168 1062 3418 794 3699 557 
C 3142 230 2490 13 1843 -115 
C 1933 -218 2035 -410 2080 -531 
C 2784 -365 3482 -109 4083 269 
C 4614 -90 5248 -358 5939 -518 
C 6003 -397 6125 -211 6234 -109 
C 5581 19 4979 243 4467 544 
C 4934 909 5318 1363 5562 1926 
L 5254 2074 
L 5171 2054 
L 3629 2054 
C 3763 2221 3885 2394 3994 2573 
L 5542 2624 
C 5664 2451 5760 2291 5824 2157 
L 6227 2394 
C 6029 2784 5568 3366 5165 3782 
L 4787 3584 
C 4947 3411 5114 3213 5261 3014 
L 3539 2976 
C 4141 3469 4794 4102 5306 4653 
L 4870 4890 
C 4570 4512 4147 4064 3712 3654 
C 3565 3808 3360 3981 3142 4154 
C 3437 4435 3776 4813 4058 5158 
L 3629 5376 
C 3430 5082 3110 4691 2822 4390 
L 2445 4653 
L 2150 4339 
C 2579 4058 3072 3661 3379 3347 
C 3226 3206 3072 3078 2931 2963 
L 1933 2944 
z
M 3258 1638 
L 3290 1670 
L 4915 1670 
C 4704 1338 4416 1043 4077 800 
C 3744 1043 3469 1325 3258 1638 
z
M 1715 4070 
C 1338 3392 723 2726 134 2285 
C 218 2189 358 1958 410 1862 
C 646 2054 896 2291 1133 2547 
L 1133 -531 
L 1587 -531 
L 1587 3085 
C 1798 3354 1984 3635 2144 3917 
L 1715 4070 
z
" transform="scale(0.015625)"/>
     </defs>
     <use xlink:href="#NotoSansCJKjp-Regular-2e5a"/>
     <use xlink:href="#NotoSansCJKjp-Regular-47d4" transform="translate(100 0)"/>
     <use xlink:href="#NotoSansCJKjp-Regular-43f2" transform="translate(200 0)"/>
    </g>
   </g>
   <g id="text_6">
    <!-- 綁成原子核 -->
    <g style="fill: #555555" transform="translate(198.894 120.274) scale(0.1 -0.1)">
     <defs>
      <path id="NotoSansCJKjp-Regular-7955" d="M 1664 1638 
C 1805 1254 1946 749 1984 422 
L 2336 538 
C 2291 858 2150 1357 1997 1734 
L 1664 1638 
z
M 486 1715 
C 442 1158 358 582 179 192 
C 275 154 454 77 531 26 
C 698 435 813 1056 877 1651 
L 486 1715 
z
M 4403 4979 
L 4403 -499 
L 4832 -499 
L 4832 4563 
L 5581 4563 
C 5459 4064 5306 3475 5133 2861 
C 5536 2234 5709 1818 5709 1434 
C 5709 1203 5677 966 5581 890 
C 5542 858 5472 838 5408 838 
C 5318 832 5190 832 5062 851 
C 5133 730 5171 544 5171 435 
C 5312 422 5459 422 5568 442 
C 5690 454 5798 493 5875 557 
C 6054 704 6138 1043 6131 1421 
C 6131 1837 5952 2291 5536 2918 
C 5754 3603 5952 4275 6106 4826 
L 5792 4998 
L 5728 4979 
L 4403 4979 
z
M 3091 5318 
L 3091 4454 
L 2330 4454 
L 2330 4026 
L 3091 4026 
L 3091 3226 
L 2413 3226 
L 2413 2797 
L 3091 2797 
L 3091 2573 
C 3091 2355 3085 2150 3078 1946 
L 2323 1946 
L 2323 1517 
L 3034 1517 
C 2944 838 2707 237 2138 -250 
C 2246 -314 2419 -448 2496 -538 
C 3130 19 3373 723 3462 1517 
L 4262 1517 
L 4262 1946 
L 3501 1946 
C 3507 2150 3514 2362 3514 2573 
L 3514 2797 
L 4186 2797 
L 4186 3226 
L 3514 3226 
L 3514 4026 
L 4256 4026 
L 4256 4454 
L 3514 4454 
L 3514 5318 
L 3091 5318 
z
M 186 2547 
L 230 2112 
L 1088 2176 
L 1088 -512 
L 1498 -512 
L 1498 2208 
L 1882 2240 
C 1926 2099 1965 1971 1984 1862 
L 2342 2016 
C 2278 2355 2048 2893 1818 3296 
L 1472 3174 
C 1568 3002 1658 2810 1734 2618 
L 986 2579 
C 1370 3130 1798 3872 2118 4467 
L 1728 4634 
C 1587 4314 1395 3930 1184 3552 
C 1107 3674 1005 3802 890 3936 
C 1088 4288 1306 4800 1498 5229 
L 1075 5370 
C 979 5037 806 4576 640 4224 
L 467 4397 
L 250 4077 
C 506 3814 794 3456 960 3168 
C 832 2950 704 2739 582 2566 
L 186 2547 
z
" transform="scale(0.015625)"/>
      <path id="NotoSansCJKjp-Regular-4857" d="M 3482 5370 
C 3482 5005 3494 4640 3514 4288 
L 819 4288 
L 819 2490 
C 819 1658 762 550 230 -237 
C 346 -294 550 -461 634 -557 
C 1222 288 1318 1581 1318 2483 
L 1318 2528 
L 2490 2528 
C 2464 1427 2432 1018 2349 922 
C 2298 864 2240 851 2144 851 
C 2035 851 1760 851 1466 883 
C 1542 762 1594 570 1600 435 
C 1914 416 2208 416 2374 429 
C 2547 448 2656 493 2758 614 
C 2893 787 2925 1331 2957 2771 
C 2957 2835 2963 2976 2963 2976 
L 1318 2976 
L 1318 3821 
L 3546 3821 
C 3622 2784 3776 1837 4019 1101 
C 3597 614 3104 218 2534 -83 
C 2637 -179 2810 -378 2886 -480 
C 3379 -186 3821 166 4211 589 
C 4506 -70 4890 -467 5382 -467 
C 5875 -467 6054 -147 6138 947 
C 6010 992 5830 1101 5722 1210 
C 5683 358 5606 26 5421 26 
C 5094 26 4806 390 4570 1018 
C 5043 1632 5421 2362 5696 3200 
L 5216 3322 
C 5011 2675 4736 2093 4390 1581 
C 4224 2202 4102 2963 4032 3821 
L 6086 3821 
L 6086 4288 
L 4006 4288 
C 3987 4640 3981 4998 3981 5370 
L 3482 5370 
z
M 4294 5056 
C 4704 4845 5197 4518 5440 4288 
L 5741 4621 
C 5491 4838 4986 5152 4582 5350 
L 4294 5056 
z
" transform="scale(0.015625)"/>
      <path id="NotoSansCJKjp-Regular-2e09" d="M 2362 2624 
L 5024 2624 
L 5024 2029 
L 2362 2029 
L 2362 2624 
z
M 2362 3571 
L 5024 3571 
L 5024 2989 
L 2362 2989 
L 2362 3571 
z
M 4474 1107 
C 4954 723 5510 166 5754 -211 
L 6150 51 
C 5888 435 5325 966 4838 1338 
L 4474 1107 
z
M 2374 1318 
C 2080 838 1606 352 1126 45 
C 1242 -26 1434 -160 1523 -237 
C 1990 109 2496 646 2835 1184 
L 2374 1318 
z
M 1888 3955 
L 1888 1645 
L 3450 1645 
L 3450 13 
C 3450 -64 3424 -90 3328 -96 
C 3232 -96 2899 -96 2522 -90 
C 2586 -211 2650 -390 2669 -512 
C 3168 -512 3482 -512 3674 -442 
C 3866 -371 3917 -243 3917 6 
L 3917 1645 
L 5510 1645 
L 5510 3955 
L 3750 3955 
C 3814 4147 3885 4365 3949 4576 
L 6035 4576 
L 6035 5024 
L 838 5024 
L 838 3168 
C 838 2163 787 749 224 -256 
C 339 -301 550 -422 640 -499 
C 1229 550 1312 2106 1312 3168 
L 1312 4576 
L 3386 4576 
C 3347 4390 3296 4154 3238 3955 
L 1888 3955 
z
" transform="scale(0.015625)"/>
     </defs>
     <use xlink:href="#NotoSansCJKjp-Regular-7955"/>
     <use xlink:href="#NotoSansCJKjp-Regular-4857" transform="translate(100 0)"/>
     <use xlink:href="#NotoSansCJKjp-Regular-2e09" transform="translate(200 0)"/>
     <use xlink:href="#NotoSansCJKjp-Regular-3bf8" transform="translate(300 0)"/>
     <use xlink:href="#NotoSansCJKjp-Regular-52ac" transform="translate(400 0)"/>
    </g>
   </g>
   <g id="text_7">
    <!-- 總質量 $M_{0}-\Delta m$ -->
    <g style="fill: #222831" transform="translate(178.954 182.644) scale(0.12 -0.12)">
     <defs>
      <path id="Cmsy10-11" d="M 653 1472 
Q 600 1472 565 1512 
Q 531 1553 531 1600 
Q 531 1647 565 1687 
Q 600 1728 653 1728 
L 4325 1728 
Q 4375 1728 4408 1687 
Q 4441 1647 4441 1600 
Q 4441 1553 4408 1512 
Q 4375 1472 4325 1472 
L 653 1472 
z
" transform="scale(0.015625)"/>
      <path id="Cmr10-6" d="M 347 0 
Q 294 0 294 50 
Q 297 56 298 59 
Q 300 63 300 72 
L 2503 4513 
Q 2531 4581 2619 4581 
L 2706 4581 
Q 2794 4581 2822 4513 
L 5025 72 
Q 5028 66 5029 61 
Q 5031 56 5031 50 
Q 5031 0 4978 0 
L 347 0 
z
M 769 513 
L 4141 513 
L 2456 3909 
L 769 513 
z
" transform="scale(0.015625)"/>
      <path id="Cmmi10-45" d="M 494 109 
Q 494 147 500 166 
L 978 2075 
Q 1025 2253 1025 2388 
Q 1025 2663 838 2663 
Q 638 2663 541 2423 
Q 444 2184 353 1819 
Q 353 1800 334 1789 
Q 316 1778 300 1778 
L 225 1778 
Q 203 1778 187 1801 
Q 172 1825 172 1844 
Q 241 2122 305 2315 
Q 369 2509 505 2668 
Q 641 2828 844 2828 
Q 1084 2828 1268 2676 
Q 1453 2525 1453 2291 
Q 1644 2541 1900 2684 
Q 2156 2828 2444 2828 
Q 2747 2828 2967 2673 
Q 3188 2519 3188 2234 
Q 3384 2513 3648 2670 
Q 3913 2828 4225 2828 
Q 4556 2828 4757 2648 
Q 4959 2469 4959 2138 
Q 4959 1875 4842 1503 
Q 4725 1131 4550 672 
Q 4459 450 4459 288 
Q 4459 97 4609 97 
Q 4859 97 5025 365 
Q 5191 634 5259 941 
Q 5278 978 5313 978 
L 5388 978 
Q 5413 978 5430 961 
Q 5447 944 5447 922 
Q 5447 916 5441 903 
Q 5353 541 5136 234 
Q 4919 -72 4594 -72 
Q 4369 -72 4209 83 
Q 4050 238 4050 459 
Q 4050 572 4103 709 
Q 4284 1191 4404 1569 
Q 4525 1947 4525 2234 
Q 4525 2413 4453 2538 
Q 4381 2663 4213 2663 
Q 3863 2663 3606 2448 
Q 3350 2234 3163 1881 
Q 3150 1819 3144 1784 
L 2731 141 
Q 2709 53 2632 -9 
Q 2556 -72 2463 -72 
Q 2388 -72 2330 -22 
Q 2272 28 2272 109 
Q 2272 147 2278 166 
L 2688 1797 
Q 2753 2059 2753 2234 
Q 2753 2413 2679 2538 
Q 2606 2663 2431 2663 
Q 2197 2663 2000 2559 
Q 1803 2456 1656 2286 
Q 1509 2116 1388 1881 
L 953 141 
Q 931 53 854 -9 
Q 778 -72 684 -72 
Q 606 -72 550 -22 
Q 494 28 494 109 
z
" transform="scale(0.015625)"/>
     </defs>
     <use xlink:href="#NotoSansCJKjp-Regular-7aeb" transform="translate(0 0.796875)"/>
     <use xlink:href="#NotoSansCJKjp-Regular-97ec" transform="translate(99.999908 0.796875)"/>
     <use xlink:href="#NotoSansCJKjp-Regular-a108" transform="translate(199.999817 0.796875)"/>
     <use xlink:href="#NotoSansCJKjp-Regular-1" transform="translate(299.999725 0.796875)"/>
     <use xlink:href="#Cmmi10-2d" transform="translate(322.399704 0.796875)"/>
     <use xlink:href="#Cmr10-28" transform="translate(419.421188 -14.203087) scale(0.7)"/>
     <use xlink:href="#Cmsy10-11" transform="translate(480.141661 0.796875)"/>
     <use xlink:href="#Cmr10-6" transform="translate(577.827265 0.796875)"/>
     <use xlink:href="#Cmmi10-45" transform="translate(661.128046 0.796875)"/>
    </g>
   </g>
   <g id="text_8">
    <!-- （較輕） -->
    <g style="fill: #555555" transform="translate(204.894 199.276) scale(0.095 -0.095)">
     <defs>
      <path id="NotoSansCJKjp-Regular-9b4c" d="M 2893 5062 
L 2893 4646 
L 6074 4646 
L 6074 5062 
L 2893 5062 
z
M 3405 4435 
C 3277 4122 3014 3629 2784 3238 
C 3085 2784 3354 2278 3488 1939 
L 3878 2106 
C 3750 2400 3488 2861 3226 3245 
C 3424 3578 3648 3994 3808 4333 
L 3405 4435 
z
M 4448 4435 
C 4314 4122 4051 3635 3808 3245 
C 4128 2790 4422 2291 4557 1952 
L 4947 2118 
C 4813 2413 4531 2867 4256 3251 
C 4454 3584 4698 3994 4858 4333 
L 4448 4435 
z
M 5542 4435 
C 5395 4122 5120 3629 4858 3238 
C 5203 2784 5517 2278 5670 1939 
L 6054 2112 
C 5907 2406 5606 2867 5318 3245 
C 5530 3578 5779 3987 5958 4326 
L 5542 4435 
z
M 2650 64 
L 2650 -352 
L 6157 -352 
L 6157 64 
L 4672 64 
L 4672 1318 
L 5952 1318 
L 5952 1734 
L 3008 1734 
L 3008 1318 
L 4192 1318 
L 4192 64 
L 2650 64 
z
M 448 3782 
L 448 1555 
L 1331 1555 
L 1331 1030 
L 243 1030 
L 243 608 
L 1331 608 
L 1331 -518 
L 1741 -518 
L 1741 608 
L 2784 608 
L 2784 1030 
L 1741 1030 
L 1741 1555 
L 2643 1555 
L 2643 3782 
L 1734 3782 
L 1734 4256 
L 2726 4256 
L 2726 4678 
L 1734 4678 
L 1734 5376 
L 1325 5376 
L 1325 4678 
L 333 4678 
L 333 4256 
L 1325 4256 
L 1325 3782 
L 448 3782 
z
M 806 2502 
L 1363 2502 
L 1363 1914 
L 806 1914 
L 806 2502 
z
M 1702 2502 
L 2272 2502 
L 2272 1914 
L 1702 1914 
L 1702 2502 
z
M 806 3424 
L 1363 3424 
L 1363 2848 
L 806 2848 
L 806 3424 
z
M 1702 3424 
L 2272 3424 
L 2272 2848 
L 1702 2848 
L 1702 3424 
z
" transform="scale(0.015625)"/>
     </defs>
     <use xlink:href="#NotoSansCJKjp-Regular-e6ae"/>
     <use xlink:href="#NotoSansCJKjp-Regular-9b33" transform="translate(100 0)"/>
     <use xlink:href="#NotoSansCJKjp-Regular-9b4c" transform="translate(200 0)"/>
     <use xlink:href="#NotoSansCJKjp-Regular-e6af" transform="translate(300 0)"/>
    </g>
   </g>
   <g id="text_9">
    <!-- 綁在一起 -->
    <g style="fill: #222831" transform="translate(145.682 141.25) scale(0.1 -0.1)">
     <defs>
      <path id="NotoSansCJKjp-Regular-33c7" d="M 2502 5376 
C 2413 5050 2298 4710 2163 4384 
L 403 4384 
L 403 3923 
L 1952 3923 
C 1542 3104 979 2342 243 1830 
C 320 1722 442 1517 493 1389 
C 762 1581 1011 1798 1235 2035 
L 1235 -486 
L 1715 -486 
L 1715 2605 
C 2016 3014 2278 3462 2496 3923 
L 6010 3923 
L 6010 4384 
L 2694 4384 
C 2810 4672 2912 4966 3002 5254 
L 2502 5376 
z
M 3827 3590 
L 3827 2355 
L 2387 2355 
L 2387 1907 
L 3827 1907 
L 3827 90 
L 2131 90 
L 2131 -358 
L 6003 -358 
L 6003 90 
L 4307 90 
L 4307 1907 
L 5760 1907 
L 5760 2355 
L 4307 2355 
L 4307 3590 
L 3827 3590 
z
" transform="scale(0.015625)"/>
      <path id="NotoSansCJKjp-Regular-2509" d="M 282 2758 
L 282 2234 
L 6144 2234 
L 6144 2758 
L 282 2758 
z
" transform="scale(0.015625)"/>
      <path id="NotoSansCJKjp-Regular-98af" d="M 634 2477 
C 614 1338 544 307 166 -339 
C 282 -390 493 -506 576 -563 
C 762 -211 883 237 960 742 
C 1421 -134 2189 -346 3552 -346 
L 6016 -346 
C 6048 -205 6131 19 6214 128 
C 5811 109 3859 109 3546 115 
C 2944 115 2470 160 2099 301 
L 2099 1606 
L 3142 1606 
L 3142 2029 
L 2099 2029 
L 2099 2982 
L 3206 2982 
L 3206 3418 
L 1997 3418 
L 1997 4224 
L 3046 4224 
L 3046 4653 
L 1997 4653 
L 1997 5370 
L 1542 5370 
L 1542 4653 
L 474 4653 
L 474 4224 
L 1542 4224 
L 1542 3418 
L 307 3418 
L 307 2982 
L 1658 2982 
L 1658 544 
C 1382 762 1190 1088 1043 1562 
C 1062 1843 1082 2138 1088 2445 
L 634 2477 
z
M 3507 3302 
L 3507 1210 
C 3507 666 3686 525 4288 525 
C 4416 525 5274 525 5414 525 
C 5958 525 6099 762 6157 1670 
C 6029 1702 5830 1779 5728 1862 
C 5696 1088 5658 960 5382 960 
C 5184 960 4474 960 4333 960 
C 4026 960 3968 998 3968 1210 
L 3968 2874 
L 5331 2874 
L 5331 2714 
L 5792 2714 
L 5792 5069 
L 3443 5069 
L 3443 4646 
L 5331 4646 
L 5331 3302 
L 3507 3302 
z
" transform="scale(0.015625)"/>
     </defs>
     <use xlink:href="#NotoSansCJKjp-Regular-7955"/>
     <use xlink:href="#NotoSansCJKjp-Regular-33c7" transform="translate(100 0)"/>
     <use xlink:href="#NotoSansCJKjp-Regular-2509" transform="translate(200 0)"/>
     <use xlink:href="#NotoSansCJKjp-Regular-98af" transform="translate(300 0)"/>
    </g>
    <!-- （放能） -->
    <g style="fill: #222831" transform="translate(145.682 151.25) scale(0.1 -0.1)">
     <defs>
      <path id="NotoSansCJKjp-Regular-4dd1" d="M 1453 5363 
L 1453 4339 
L 282 4339 
L 282 3891 
L 1037 3891 
L 1037 2560 
C 1037 1651 941 640 160 -192 
C 275 -275 435 -403 518 -506 
C 1370 403 1498 1491 1498 2554 
L 1498 2592 
L 2374 2592 
C 2330 800 2285 166 2176 26 
C 2125 -51 2074 -64 1978 -64 
C 1882 -64 1638 -58 1370 -38 
C 1446 -160 1491 -352 1498 -486 
C 1773 -493 2042 -493 2195 -480 
C 2368 -461 2477 -410 2579 -269 
C 2752 -51 2784 678 2829 2816 
C 2835 2886 2835 3040 2835 3040 
L 1498 3040 
L 1498 3891 
L 3123 3891 
L 3123 4339 
L 1926 4339 
L 1926 5363 
L 1453 5363 
z
M 3974 3731 
L 5203 3731 
C 5069 2912 4870 2214 4570 1638 
C 4282 2221 4077 2899 3942 3635 
L 3974 3731 
z
M 3872 5382 
C 3686 4275 3354 3200 2848 2528 
C 2963 2451 3174 2298 3258 2214 
C 3405 2419 3533 2662 3654 2918 
C 3814 2272 4019 1683 4282 1171 
C 3898 627 3379 205 2688 -102 
C 2778 -205 2918 -416 2963 -525 
C 3629 -198 4141 218 4544 730 
C 4890 205 5325 -211 5869 -499 
C 5939 -371 6093 -186 6202 -90 
C 5632 179 5184 608 4832 1158 
C 5248 1850 5510 2694 5683 3731 
L 6157 3731 
L 6157 4179 
L 4109 4179 
C 4211 4538 4294 4922 4365 5306 
L 3872 5382 
z
" transform="scale(0.015625)"/>
      <path id="NotoSansCJKjp-Regular-8006" d="M 2131 4774 
C 2278 4576 2432 4339 2560 4109 
L 1248 4058 
C 1446 4422 1651 4864 1824 5261 
L 1331 5382 
C 1197 4979 966 4442 742 4038 
L 256 4019 
L 294 3552 
C 960 3590 1882 3635 2784 3693 
C 2854 3552 2912 3424 2950 3309 
L 3366 3494 
C 3226 3891 2867 4486 2528 4928 
L 2131 4774 
z
M 2451 2688 
L 2451 2138 
L 1088 2138 
L 1088 2688 
L 2451 2688 
z
M 640 3098 
L 640 -506 
L 1088 -506 
L 1088 800 
L 2451 800 
L 2451 51 
C 2451 -32 2432 -58 2349 -58 
C 2253 -64 1984 -64 1683 -51 
C 1747 -179 1818 -365 1843 -493 
C 2246 -493 2522 -486 2701 -416 
C 2874 -339 2925 -205 2925 45 
L 2925 3098 
L 640 3098 
z
M 1088 1760 
L 2451 1760 
L 2451 1178 
L 1088 1178 
L 1088 1760 
z
M 5491 4896 
C 5126 4704 4550 4474 4006 4288 
L 4006 5363 
L 3526 5363 
L 3526 3238 
C 3526 2707 3686 2566 4307 2566 
C 4429 2566 5267 2566 5408 2566 
C 5920 2566 6061 2771 6118 3558 
C 5984 3590 5786 3661 5683 3744 
C 5658 3110 5613 3002 5363 3002 
C 5184 3002 4480 3002 4352 3002 
C 4058 3002 4006 3040 4006 3245 
L 4006 3904 
C 4621 4083 5306 4307 5811 4538 
L 5491 4896 
z
M 5568 2042 
C 5197 1805 4582 1555 4000 1363 
L 4000 2387 
L 3526 2387 
L 3526 224 
C 3526 -314 3693 -454 4320 -454 
C 4454 -454 5318 -454 5459 -454 
C 5997 -454 6138 -224 6195 634 
C 6061 666 5875 742 5760 819 
C 5734 96 5690 -26 5421 -26 
C 5229 -26 4506 -26 4365 -26 
C 4058 -26 4000 13 4000 224 
L 4000 966 
C 4646 1146 5382 1395 5882 1683 
L 5568 2042 
z
" transform="scale(0.015625)"/>
     </defs>
     <use xlink:href="#NotoSansCJKjp-Regular-e6ae"/>
     <use xlink:href="#NotoSansCJKjp-Regular-4dd1" transform="translate(100 0)"/>
     <use xlink:href="#NotoSansCJKjp-Regular-8006" transform="translate(200 0)"/>
     <use xlink:href="#NotoSansCJKjp-Regular-e6af" transform="translate(300 0)"/>
    </g>
   </g>
   <g id="patch_4">
    <path d="M 140.734 281.05 
L 240.526 281.05 
Q 248.842 281.05 248.842 272.734 
L 248.842 239.47 
Q 248.842 231.154 240.526 231.154 
L 140.734 231.154 
Q 132.418 231.154 132.418 239.47 
L 132.418 272.734 
Q 132.418 281.05 140.734 281.05 
z
" clip-path="url(#pd86842f28c)" style="fill: #fdecec; stroke: #d1242f; stroke-width: 2.2; stroke-linejoin: miter"/>
   </g>
   <g id="text_10">
    <!-- 釋出能量 -->
    <g style="fill: #d1242f" transform="translate(166.63 247.786) scale(0.12 -0.12)">
     <defs>
      <path id="NotoSansCJKjp-Regular-a103" d="M 429 4307 
C 550 3955 678 3488 710 3187 
L 1075 3309 
C 1030 3610 902 4064 774 4416 
L 429 4307 
z
M 2298 4550 
C 2221 4173 2067 3622 1933 3283 
L 2246 3149 
C 2387 3462 2554 3974 2707 4384 
L 2298 4550 
z
M 4979 4794 
L 5523 4794 
L 5523 4083 
L 4979 4083 
L 4979 4794 
z
M 4109 4794 
L 4640 4794 
L 4640 4083 
L 4109 4083 
L 4109 4794 
z
M 3258 4794 
L 3770 4794 
L 3770 4083 
L 3258 4083 
L 3258 4794 
z
M 2355 5357 
C 1875 5184 998 5024 262 4941 
C 314 4845 371 4691 390 4595 
C 691 4627 1011 4666 1325 4717 
L 1325 3021 
L 262 3021 
L 262 2618 
L 1184 2618 
C 966 1920 563 1094 211 640 
C 288 531 403 346 448 218 
C 755 634 1082 1325 1325 1997 
L 1325 -518 
L 1741 -518 
L 1741 1830 
C 1978 1587 2266 1280 2394 1114 
L 2656 1459 
C 2509 1600 1952 2118 1741 2291 
L 1741 2618 
L 2720 2618 
L 2720 3021 
L 1741 3021 
L 1741 4794 
C 2086 4858 2413 4941 2682 5037 
L 2355 5357 
z
M 2861 5139 
L 2861 3731 
L 4154 3731 
L 4154 3360 
L 3059 3360 
L 3059 3002 
L 4154 3002 
L 4154 2579 
L 2656 2579 
L 2656 2234 
L 3539 2234 
L 3315 2138 
C 3424 1939 3533 1683 3590 1485 
L 2778 1485 
L 2778 1126 
L 4154 1126 
L 4154 691 
L 2912 691 
L 2912 333 
L 4154 333 
L 4154 -531 
L 4602 -531 
L 4602 333 
L 5888 333 
L 5888 691 
L 4602 691 
L 4602 1126 
L 6022 1126 
L 6022 1485 
L 5101 1485 
C 5222 1677 5350 1914 5478 2144 
L 5261 2234 
L 6138 2234 
L 6138 2579 
L 4602 2579 
L 4602 3002 
L 5741 3002 
L 5741 3360 
L 4602 3360 
L 4602 3731 
L 5939 3731 
L 5939 5139 
L 2861 5139 
z
M 3667 2234 
L 5069 2234 
C 4986 2022 4858 1734 4755 1549 
L 4890 1485 
L 3821 1485 
L 3968 1555 
C 3923 1741 3802 2016 3667 2234 
z
" transform="scale(0.015625)"/>
      <path id="NotoSansCJKjp-Regular-2b73" d="M 966 4768 
L 966 2560 
L 2918 2560 
L 2918 365 
L 1203 365 
L 1203 2144 
L 723 2144 
L 723 -512 
L 1203 -512 
L 1203 -109 
L 5222 -109 
L 5222 -499 
L 5715 -499 
L 5715 2144 
L 5222 2144 
L 5222 365 
L 3418 365 
L 3418 2560 
L 5459 2560 
L 5459 4768 
L 4960 4768 
L 4960 3021 
L 3418 3021 
L 3418 5344 
L 2918 5344 
L 2918 3021 
L 1446 3021 
L 1446 4768 
L 966 4768 
z
" transform="scale(0.015625)"/>
     </defs>
     <use xlink:href="#NotoSansCJKjp-Regular-a103"/>
     <use xlink:href="#NotoSansCJKjp-Regular-2b73" transform="translate(100 0)"/>
     <use xlink:href="#NotoSansCJKjp-Regular-8006" transform="translate(200 0)"/>
     <use xlink:href="#NotoSansCJKjp-Regular-a108" transform="translate(300 0)"/>
    </g>
   </g>
   <g id="text_11">
    <!-- $E=\Delta m\,c^{2}$ -->
    <g style="fill: #d1242f" transform="translate(157.38 265.804) scale(0.14 -0.14)">
     <defs>
      <path id="Cmmi10-6f" d="M 300 0 
Q 238 0 238 84 
Q 241 100 250 139 
Q 259 178 276 201 
Q 294 225 319 225 
Q 709 225 863 269 
Q 947 297 984 441 
L 1863 3956 
Q 1875 4019 1875 4044 
Q 1875 4113 1797 4122 
Q 1678 4147 1338 4147 
Q 1275 4147 1275 4231 
Q 1278 4247 1287 4286 
Q 1297 4325 1314 4348 
Q 1331 4372 1356 4372 
L 4825 4372 
Q 4891 4372 4891 4288 
L 4738 2963 
Q 4738 2947 4714 2926 
Q 4691 2906 4672 2906 
L 4616 2906 
Q 4550 2906 4550 2988 
Q 4588 3300 4588 3450 
Q 4588 3706 4500 3848 
Q 4413 3991 4267 4053 
Q 4122 4116 3945 4131 
Q 3769 4147 3481 4147 
L 2753 4147 
Q 2578 4147 2522 4117 
Q 2466 4088 2419 3928 
L 2034 2381 
L 2534 2381 
Q 2859 2381 3025 2426 
Q 3191 2472 3287 2615 
Q 3384 2759 3463 3072 
Q 3469 3094 3486 3111 
Q 3503 3128 3525 3128 
L 3584 3128 
Q 3647 3128 3647 3047 
L 3250 1466 
Q 3238 1409 3188 1409 
L 3128 1409 
Q 3066 1409 3066 1491 
Q 3128 1747 3128 1869 
Q 3128 2056 2959 2106 
Q 2791 2156 2509 2156 
L 1978 2156 
L 1544 416 
Q 1516 338 1516 275 
Q 1516 225 1734 225 
L 2509 225 
Q 2972 225 3259 297 
Q 3547 369 3736 526 
Q 3925 684 4062 928 
Q 4200 1172 4397 1638 
Q 4409 1678 4453 1678 
L 4513 1678 
Q 4538 1678 4556 1656 
Q 4575 1634 4575 1606 
Q 4575 1594 4569 1581 
L 3909 38 
Q 3897 0 3859 0 
L 300 0 
z
" transform="scale(0.015625)"/>
      <path id="Cmr10-29" d="M 481 850 
Q 428 850 393 890 
Q 359 931 359 978 
Q 359 1031 393 1068 
Q 428 1106 481 1106 
L 4500 1106 
Q 4547 1106 4581 1068 
Q 4616 1031 4616 978 
Q 4616 931 4581 890 
Q 4547 850 4500 850 
L 481 850 
z
M 481 2094 
Q 428 2094 393 2131 
Q 359 2169 359 2222 
Q 359 2269 393 2309 
Q 428 2350 481 2350 
L 4500 2350 
Q 4547 2350 4581 2309 
Q 4616 2269 4616 2222 
Q 4616 2169 4581 2131 
Q 4547 2094 4500 2094 
L 481 2094 
z
" transform="scale(0.015625)"/>
      <path id="Cmmi10-7f" d="M 750 763 
Q 750 484 892 290 
Q 1034 97 1300 97 
Q 1681 97 2032 272 
Q 2384 447 2606 756 
Q 2625 775 2656 775 
Q 2688 775 2720 739 
Q 2753 703 2753 672 
Q 2753 647 2741 634 
Q 2506 306 2109 117 
Q 1713 -72 1288 -72 
Q 981 -72 747 73 
Q 513 219 384 462 
Q 256 706 256 1013 
Q 256 1444 497 1869 
Q 738 2294 1138 2561 
Q 1538 2828 1978 2828 
Q 2266 2828 2495 2689 
Q 2725 2550 2725 2278 
Q 2725 2103 2623 1979 
Q 2522 1856 2350 1856 
Q 2247 1856 2176 1920 
Q 2106 1984 2106 2088 
Q 2106 2238 2215 2344 
Q 2325 2450 2472 2450 
L 2484 2450 
Q 2409 2559 2267 2611 
Q 2125 2663 1972 2663 
Q 1597 2663 1315 2342 
Q 1034 2022 892 1576 
Q 750 1131 750 763 
z
" transform="scale(0.015625)"/>
      <path id="Cmr10-31" d="M 319 0 
L 319 172 
Q 319 188 331 206 
L 1325 1306 
Q 1550 1550 1690 1715 
Q 1831 1881 1968 2097 
Q 2106 2313 2186 2536 
Q 2266 2759 2266 3009 
Q 2266 3272 2169 3511 
Q 2072 3750 1880 3894 
Q 1688 4038 1416 4038 
Q 1138 4038 916 3870 
Q 694 3703 603 3438 
Q 628 3444 672 3444 
Q 816 3444 917 3347 
Q 1019 3250 1019 3097 
Q 1019 2950 917 2848 
Q 816 2747 672 2747 
Q 522 2747 420 2851 
Q 319 2956 319 3097 
Q 319 3338 409 3548 
Q 500 3759 670 3923 
Q 841 4088 1055 4175 
Q 1269 4263 1509 4263 
Q 1875 4263 2190 4108 
Q 2506 3953 2690 3670 
Q 2875 3388 2875 3009 
Q 2875 2731 2753 2481 
Q 2631 2231 2440 2026 
Q 2250 1822 1953 1562 
Q 1656 1303 1563 1216 
L 838 519 
L 1453 519 
Q 1906 519 2211 526 
Q 2516 534 2534 550 
Q 2609 631 2688 1141 
L 2875 1141 
L 2694 0 
L 319 0 
z
" transform="scale(0.015625)"/>
     </defs>
     <use xlink:href="#Cmmi10-6f" transform="translate(0 0.084203)"/>
     <use xlink:href="#Cmr10-29" transform="translate(93.779354 0.084203)"/>
     <use xlink:href="#Cmr10-6" transform="translate(191.464958 0.084203)"/>
     <use xlink:href="#Cmmi10-45" transform="translate(274.765739 0.084203)"/>
     <use xlink:href="#Cmmi10-7f" transform="translate(379.225756 0.084203)"/>
     <use xlink:href="#Cmr10-31" transform="translate(433.698828 41.373437) scale(0.7)"/>
    </g>
   </g>
   <g id="text_12">
    <!-- 虧損的質量 -->
    <g style="fill: #d1242f" transform="translate(248.79 217.48) scale(0.1 -0.1)">
     <defs>
      <path id="NotoSansCJKjp-Regular-8c2f" d="M 2496 2534 
C 2451 2400 2368 2202 2291 2035 
L 1760 2035 
C 1818 2182 1875 2323 1926 2470 
L 1555 2566 
C 1427 2150 1222 1728 986 1395 
C 1011 1722 1018 2035 1018 2310 
L 1018 3878 
L 1779 3878 
L 1779 3488 
L 1139 3437 
L 1171 3123 
L 1779 3174 
L 1779 2989 
C 1779 2630 1888 2547 2298 2547 
C 2387 2547 2822 2547 2906 2547 
C 3200 2547 3309 2656 3341 3046 
C 3238 3072 3091 3117 3008 3168 
C 2995 2893 2970 2854 2848 2854 
C 2758 2854 2413 2854 2342 2854 
C 2195 2854 2176 2874 2176 2989 
L 2176 3213 
L 2957 3277 
L 2918 3584 
L 2176 3520 
L 2176 3878 
L 3258 3878 
L 3149 3328 
L 3488 3245 
C 3571 3488 3661 3872 3731 4205 
L 3450 4275 
L 3379 4262 
L 2227 4262 
L 2227 4627 
L 3398 4627 
L 3398 4992 
L 2227 4992 
L 2227 5376 
L 1779 5376 
L 1779 4262 
L 595 4262 
L 595 2310 
C 595 1542 563 512 186 -230 
C 275 -288 454 -448 512 -538 
C 762 -77 890 512 954 1088 
C 1024 1037 1088 973 1120 934 
C 1190 1024 1261 1120 1331 1229 
L 1331 -512 
L 1715 -512 
L 1715 -205 
L 3648 -205 
L 3648 141 
L 2675 141 
L 2675 448 
L 3450 448 
L 3450 755 
L 2675 755 
L 2675 1088 
L 3430 1088 
L 3430 1395 
L 2675 1395 
L 2675 1709 
L 3539 1709 
L 3539 2035 
L 2656 2035 
L 2854 2426 
L 2496 2534 
z
M 2310 1088 
L 2310 755 
L 1715 755 
L 1715 1088 
L 2310 1088 
z
M 2310 1395 
L 1715 1395 
L 1715 1709 
L 2310 1709 
L 2310 1395 
z
M 2310 448 
L 2310 141 
L 1715 141 
L 1715 448 
L 2310 448 
z
M 3616 3603 
L 3616 3162 
L 4134 3162 
C 4051 2605 3962 2074 3878 1677 
L 4339 1600 
L 4397 1939 
L 5498 1939 
C 5408 653 5312 134 5165 -6 
C 5114 -70 5043 -83 4941 -83 
C 4813 -83 4525 -77 4211 -51 
C 4294 -173 4346 -358 4358 -486 
C 4666 -512 4960 -512 5126 -493 
C 5318 -480 5446 -442 5562 -307 
C 5766 -83 5875 531 5978 2157 
C 5984 2227 5990 2374 5990 2374 
L 4467 2374 
L 4589 3162 
L 6144 3162 
L 6144 3603 
L 4653 3603 
L 4787 4608 
L 6067 4608 
L 6067 5043 
L 3699 5043 
L 3699 4608 
L 4333 4608 
L 4198 3603 
L 3616 3603 
z
" transform="scale(0.015625)"/>
      <path id="NotoSansCJKjp-Regular-4b87" d="M 3315 4794 
L 5242 4794 
L 5242 4128 
L 3315 4128 
L 3315 4794 
z
M 2874 5152 
L 2874 3776 
L 5709 3776 
L 5709 5152 
L 2874 5152 
z
M 4595 314 
C 5018 64 5472 -269 5728 -518 
L 6202 -269 
C 5907 -13 5408 320 4954 576 
L 4595 314 
z
M 3155 2253 
L 5395 2253 
L 5395 1773 
L 3155 1773 
L 3155 2253 
z
M 3155 1427 
L 5395 1427 
L 5395 947 
L 3155 947 
L 3155 1427 
z
M 3155 3066 
L 5395 3066 
L 5395 2598 
L 3155 2598 
L 3155 3066 
z
M 2701 3430 
L 2701 589 
L 3418 589 
C 3130 320 2528 0 2035 -173 
C 2138 -269 2285 -422 2355 -518 
C 2867 -326 3488 0 3859 326 
L 3437 589 
L 5869 589 
L 5869 3430 
L 2701 3430 
z
M 1197 5376 
L 1197 4083 
L 282 4083 
L 282 3629 
L 1197 3629 
L 1197 2259 
L 179 1984 
L 320 1517 
L 1197 1779 
L 1197 51 
C 1197 -38 1158 -64 1075 -70 
C 992 -70 723 -70 435 -64 
C 499 -192 563 -390 582 -506 
C 1011 -512 1267 -493 1440 -422 
C 1600 -346 1664 -218 1664 58 
L 1664 1920 
L 2477 2170 
L 2419 2618 
L 1664 2394 
L 1664 3629 
L 2406 3629 
L 2406 4083 
L 1664 4083 
L 1664 5376 
L 1197 5376 
z
" transform="scale(0.015625)"/>
      <path id="NotoSansCJKjp-Regular-6c33" d="M 3533 2707 
C 3885 2240 4320 1600 4512 1210 
L 4922 1466 
C 4710 1843 4269 2464 3904 2918 
L 3533 2707 
z
M 1536 5389 
C 1485 5082 1376 4659 1274 4346 
L 557 4346 
L 557 -346 
L 998 -346 
L 998 160 
L 2784 160 
L 2784 4346 
L 1715 4346 
C 1824 4621 1946 4979 2054 5299 
L 1536 5389 
z
M 998 3917 
L 2342 3917 
L 2342 2566 
L 998 2566 
L 998 3917 
z
M 998 595 
L 998 2144 
L 2342 2144 
L 2342 595 
L 998 595 
z
M 3827 5402 
C 3622 4518 3277 3635 2835 3066 
C 2950 3002 3149 2867 3238 2790 
C 3456 3098 3661 3488 3840 3923 
L 5478 3923 
C 5402 1357 5299 371 5094 154 
C 5018 64 4947 45 4819 45 
C 4672 45 4288 51 3866 83 
C 3955 -38 4013 -243 4026 -378 
C 4384 -397 4762 -410 4979 -390 
C 5210 -365 5350 -314 5498 -122 
C 5754 192 5843 1184 5939 4122 
C 5946 4186 5946 4365 5946 4365 
L 4013 4365 
C 4115 4666 4211 4986 4288 5299 
L 3827 5402 
z
" transform="scale(0.015625)"/>
     </defs>
     <use xlink:href="#NotoSansCJKjp-Regular-8c2f"/>
     <use xlink:href="#NotoSansCJKjp-Regular-4b87" transform="translate(100 0)"/>
     <use xlink:href="#NotoSansCJKjp-Regular-6c33" transform="translate(200 0)"/>
     <use xlink:href="#NotoSansCJKjp-Regular-97ec" transform="translate(300 0)"/>
     <use xlink:href="#NotoSansCJKjp-Regular-a108" transform="translate(400 0)"/>
    </g>
    <!-- $\Delta m$ -->
    <g style="fill: #d1242f" transform="translate(265.19 227.48) scale(0.1 -0.1)">
     <use xlink:href="#Cmr10-6" transform="translate(0 0.421875)"/>
     <use xlink:href="#Cmmi10-45" transform="translate(83.300781 0.421875)"/>
    </g>
   </g>
   <g id="text_13">
    <!-- 質量虧損：綁好的核比散開的核子輕，差額 $\Delta m$ 化為能量 $\Delta m\,c^{2}$ -->
    <g style="fill: #222831" transform="translate(7.2 18.64) scale(0.13 -0.13)">
     <defs>
      <path id="NotoSansCJKjp-Regular-e6c0" d="M 3200 3482 
C 3456 3482 3686 3667 3686 3962 
C 3686 4256 3456 4442 3200 4442 
C 2944 4442 2714 4256 2714 3962 
C 2714 3667 2944 3482 3200 3482 
z
M 3200 346 
C 3456 346 3686 538 3686 826 
C 3686 1120 3456 1312 3200 1312 
C 2944 1312 2714 1120 2714 826 
C 2714 538 2944 346 3200 346 
z
" transform="scale(0.015625)"/>
      <path id="NotoSansCJKjp-Regular-3790" d="M 4160 3648 
L 4160 2797 
L 2643 2797 
L 2643 2342 
L 4160 2342 
L 4160 96 
C 4160 0 4122 -26 4013 -32 
C 3898 -38 3546 -38 3136 -26 
C 3206 -160 3290 -365 3315 -499 
C 3821 -499 4160 -486 4365 -416 
C 4570 -333 4634 -198 4634 96 
L 4634 2342 
L 6163 2342 
L 6163 2797 
L 4634 2797 
L 4634 3360 
C 5126 3750 5677 4326 6035 4845 
L 5715 5075 
L 5619 5050 
L 2861 5050 
L 2861 4602 
L 5267 4602 
C 5005 4269 4666 3904 4346 3648 
L 4160 3648 
z
M 1242 5376 
C 1171 4979 1082 4525 986 4058 
L 275 4058 
L 275 3603 
L 883 3603 
C 710 2803 518 2016 365 1466 
L 762 1248 
L 832 1517 
C 1056 1382 1280 1222 1498 1062 
C 1190 506 800 109 333 -141 
C 435 -237 563 -410 627 -525 
C 1126 -224 1542 198 1869 768 
C 2138 544 2368 320 2522 122 
L 2816 512 
C 2643 723 2381 960 2080 1197 
C 2394 1920 2592 2842 2675 4013 
L 2387 4070 
L 2304 4058 
L 1440 4058 
C 1536 4499 1626 4934 1702 5325 
L 1242 5376 
z
M 1338 3603 
L 2195 3603 
C 2106 2765 1939 2054 1696 1478 
C 1446 1651 1190 1818 947 1958 
C 1075 2458 1210 3034 1338 3603 
z
" transform="scale(0.015625)"/>
      <path id="NotoSansCJKjp-Regular-5942" d="M 250 128 
L 397 -371 
C 1197 -179 2278 77 3290 326 
L 3245 787 
C 2694 659 2125 525 1600 410 
L 1600 2925 
L 3046 2925 
L 3046 3398 
L 1600 3398 
L 1600 5344 
L 1107 5344 
L 1107 301 
L 250 128 
z
M 3520 5344 
L 3520 512 
C 3520 -186 3693 -371 4320 -371 
C 4448 -371 5261 -371 5395 -371 
C 6003 -371 6138 -13 6202 1037 
C 6061 1069 5869 1152 5747 1248 
C 5709 320 5670 83 5370 83 
C 5190 83 4506 83 4371 83 
C 4064 83 4013 147 4013 499 
L 4013 2586 
C 4691 2874 5414 3219 5952 3571 
L 5594 3974 
C 5216 3674 4608 3328 4013 3046 
L 4013 5344 
L 3520 5344 
z
" transform="scale(0.015625)"/>
      <path id="NotoSansCJKjp-Regular-4e06" d="M 2272 5325 
L 2272 4602 
L 1446 4602 
L 1446 5325 
L 1005 5325 
L 1005 4602 
L 358 4602 
L 358 4198 
L 1005 4198 
L 1005 3437 
L 256 3437 
L 256 3021 
L 3386 3021 
L 3386 3437 
L 2720 3437 
L 2720 4198 
L 3373 4198 
L 3373 4602 
L 2720 4602 
L 2720 5325 
L 2272 5325 
z
M 1446 4198 
L 2272 4198 
L 2272 3437 
L 1446 3437 
L 1446 4198 
z
M 1158 1395 
L 2560 1395 
L 2560 941 
L 1158 941 
L 1158 1395 
z
M 1158 1766 
L 1158 2214 
L 2560 2214 
L 2560 1766 
L 1158 1766 
z
M 710 2592 
L 710 -512 
L 1158 -512 
L 1158 570 
L 2560 570 
L 2560 -6 
C 2560 -77 2541 -102 2464 -102 
C 2387 -109 2138 -109 1862 -96 
C 1920 -211 1984 -384 2003 -499 
C 2394 -499 2650 -499 2810 -435 
C 2970 -358 3014 -237 3014 -13 
L 3014 2592 
L 710 2592 
z
M 4154 3738 
L 5242 3738 
C 5133 2938 4966 2246 4704 1670 
C 4448 2266 4262 2950 4141 3686 
L 4154 3738 
z
M 4026 5376 
C 3872 4294 3590 3232 3130 2547 
C 3232 2458 3398 2253 3462 2150 
C 3616 2381 3757 2650 3878 2944 
C 4019 2298 4205 1696 4442 1178 
C 4109 634 3654 211 3040 -109 
C 3130 -211 3277 -416 3322 -525 
C 3898 -198 4346 205 4691 704 
C 4998 192 5376 -230 5856 -518 
C 5933 -384 6086 -198 6195 -109 
C 5683 166 5280 602 4966 1152 
C 5344 1850 5568 2701 5722 3738 
L 6150 3738 
L 6150 4186 
L 4275 4186 
C 4365 4550 4442 4922 4499 5306 
L 4026 5376 
z
" transform="scale(0.015625)"/>
      <path id="NotoSansCJKjp-Regular-e6b2" d="M 1005 -685 
C 1677 -448 2112 77 2112 768 
C 2112 1216 1920 1504 1568 1504 
C 1306 1504 1082 1344 1082 1043 
C 1082 742 1299 589 1562 589 
L 1670 602 
C 1638 160 1357 -141 864 -346 
L 1005 -685 
z
" transform="scale(0.015625)"/>
      <path id="NotoSansCJKjp-Regular-4110" d="M 4422 5389 
C 4320 5133 4115 4768 3949 4538 
L 4019 4512 
L 2349 4512 
L 2451 4557 
C 2362 4787 2144 5114 1933 5357 
L 1523 5190 
C 1683 4992 1850 4723 1952 4512 
L 646 4512 
L 646 4090 
L 2944 4090 
L 2944 3526 
L 960 3526 
L 960 3117 
L 2944 3117 
L 2944 2541 
L 358 2541 
L 358 2106 
L 1658 2106 
C 1421 1114 954 314 250 -179 
C 365 -256 563 -429 653 -518 
C 1382 64 1901 960 2182 2106 
L 6042 2106 
L 6042 2541 
L 3437 2541 
L 3437 3117 
L 5478 3117 
L 5478 3526 
L 3437 3526 
L 3437 4090 
L 5798 4090 
L 5798 4512 
L 4442 4512 
C 4595 4717 4774 4986 4928 5235 
L 4422 5389 
z
M 2163 1619 
L 2163 1197 
L 3462 1197 
L 3462 70 
L 1549 70 
L 1549 -352 
L 5914 -352 
L 5914 70 
L 3949 70 
L 3949 1197 
L 5485 1197 
L 5485 1619 
L 2163 1619 
z
" transform="scale(0.015625)"/>
      <path id="NotoSansCJKjp-Regular-ac2e" d="M 3757 2688 
L 5434 2688 
L 5434 2074 
L 3757 2074 
L 3757 2688 
z
M 3757 1715 
L 5434 1715 
L 5434 1088 
L 3757 1088 
L 3757 1715 
z
M 3757 3667 
L 5434 3667 
L 5434 3053 
L 3757 3053 
L 3757 3667 
z
M 3859 582 
C 3610 307 3085 -6 2618 -186 
C 2720 -269 2861 -410 2931 -499 
C 3405 -320 3942 13 4275 339 
L 3859 582 
z
M 4794 326 
C 5171 77 5645 -288 5869 -525 
L 6246 -269 
C 6003 -26 5523 320 5152 557 
L 4794 326 
z
M 2208 3418 
C 2099 3181 1952 2957 1786 2752 
L 1171 3181 
L 1350 3418 
L 2208 3418 
z
M 1357 4243 
C 1114 3680 672 3149 179 2810 
C 275 2746 442 2598 506 2522 
C 646 2630 781 2752 909 2886 
L 1510 2458 
C 1114 2061 634 1760 154 1581 
C 237 1491 352 1331 410 1229 
L 717 1376 
L 717 -403 
L 1126 -403 
L 1126 -96 
L 2624 -96 
L 2624 1555 
L 2790 1395 
L 3078 1734 
C 2848 1952 2496 2234 2112 2515 
C 2381 2842 2598 3226 2752 3654 
L 2470 3789 
L 2394 3770 
L 1574 3770 
C 1645 3891 1702 4013 1760 4141 
L 1357 4243 
z
M 358 4794 
L 358 3872 
L 762 3872 
L 762 4403 
L 2586 4403 
L 2586 3872 
L 3002 3872 
L 3002 4794 
L 1907 4794 
L 1907 5370 
L 1453 5370 
L 1453 4794 
L 358 4794 
z
M 1126 1203 
L 2202 1203 
L 2202 288 
L 1126 288 
L 1126 1203 
z
M 1126 1587 
L 1082 1587 
C 1350 1760 1606 1965 1843 2208 
C 2118 1990 2381 1773 2586 1587 
L 1126 1587 
z
M 3322 4045 
L 3322 710 
L 5894 710 
L 5894 4045 
L 4621 4045 
L 4813 4659 
L 6054 4659 
L 6054 5075 
L 3078 5075 
L 3078 4659 
L 4294 4659 
C 4262 4461 4211 4237 4160 4045 
L 3322 4045 
z
" transform="scale(0.015625)"/>
      <path id="NotoSansCJKjp-Regular-2d2b" d="M 5517 4160 
C 5050 3725 4314 3232 3597 2829 
L 3597 5222 
L 3110 5222 
L 3110 480 
C 3110 -230 3315 -416 3987 -416 
C 4134 -416 5146 -416 5306 -416 
C 5978 -416 6112 -51 6189 998 
C 6048 1024 5856 1114 5734 1203 
C 5690 269 5638 32 5280 32 
C 5069 32 4192 32 4026 32 
C 3667 32 3597 109 3597 467 
L 3597 2342 
C 4390 2758 5254 3251 5862 3750 
L 5517 4160 
z
M 2003 5280 
C 1581 4262 870 3290 134 2675 
C 224 2560 371 2310 422 2189 
C 710 2451 998 2758 1267 3104 
L 1267 -499 
L 1747 -499 
L 1747 3776 
C 2022 4205 2272 4659 2470 5120 
L 2003 5280 
z
" transform="scale(0.015625)"/>
      <path id="NotoSansCJKjp-Regular-61a1" d="M 4083 1197 
C 4275 934 4474 563 4550 326 
L 4902 474 
C 4826 704 4621 1069 4416 1325 
L 4083 1197 
z
M 1312 5184 
C 1562 4915 1830 4544 1946 4294 
L 2387 4499 
C 2259 4742 1978 5107 1734 5357 
L 1312 5184 
z
M 2182 1043 
C 2298 627 2368 96 2349 -250 
L 2771 -186 
C 2771 160 2707 685 2579 1094 
L 2182 1043 
z
M 3130 1101 
C 3283 742 3437 275 3482 -26 
L 3885 83 
C 3827 378 3674 838 3501 1184 
L 3130 1101 
z
M 1363 1184 
C 1242 691 992 122 640 -218 
L 1011 -474 
C 1395 -90 1619 525 1766 1056 
L 1363 1184 
z
M 3251 5382 
C 3142 5011 3008 4640 2848 4282 
L 525 4282 
L 525 3840 
L 2637 3840 
C 2086 2765 1280 1798 192 1178 
C 275 1075 397 890 454 774 
C 832 998 1178 1254 1491 1542 
L 5472 1542 
C 5370 525 5267 96 5126 -32 
C 5069 -90 5005 -96 4890 -96 
C 4768 -102 4461 -96 4134 -64 
C 4211 -192 4269 -378 4275 -506 
C 4608 -525 4922 -525 5088 -512 
C 5280 -499 5402 -461 5523 -333 
C 5728 -128 5843 410 5965 1760 
C 5971 1824 5984 1965 5984 1965 
L 5286 1965 
C 5370 2298 5459 2746 5530 3123 
L 4800 3123 
C 4883 3456 4979 3898 5050 4282 
L 3373 4282 
C 3507 4602 3629 4928 3738 5261 
L 3251 5382 
z
M 1914 1965 
C 2125 2195 2323 2445 2502 2701 
L 5005 2701 
C 4960 2445 4896 2182 4838 1965 
L 1914 1965 
z
M 3168 3840 
L 4518 3840 
C 4467 3584 4410 3328 4352 3123 
L 2778 3123 
C 2918 3354 3046 3597 3168 3840 
z
" transform="scale(0.015625)"/>
     </defs>
     <use xlink:href="#NotoSansCJKjp-Regular-97ec" transform="translate(0 0.084203)"/>
     <use xlink:href="#NotoSansCJKjp-Regular-a108" transform="translate(99.999908 0.084203)"/>
     <use xlink:href="#NotoSansCJKjp-Regular-8c2f" transform="translate(199.999817 0.084203)"/>
     <use xlink:href="#NotoSansCJKjp-Regular-4b87" transform="translate(299.999725 0.084203)"/>
     <use xlink:href="#NotoSansCJKjp-Regular-e6c0" transform="translate(399.999634 0.084203)"/>
     <use xlink:href="#NotoSansCJKjp-Regular-7955" transform="translate(499.999542 0.084203)"/>
     <use xlink:href="#NotoSansCJKjp-Regular-3790" transform="translate(599.999451 0.084203)"/>
     <use xlink:href="#NotoSansCJKjp-Regular-6c33" transform="translate(699.999359 0.084203)"/>
     <use xlink:href="#NotoSansCJKjp-Regular-52ac" transform="translate(799.999268 0.084203)"/>
     <use xlink:href="#NotoSansCJKjp-Regular-5942" transform="translate(899.999176 0.084203)"/>
     <use xlink:href="#NotoSansCJKjp-Regular-4e06" transform="translate(999.999084 0.084203)"/>
     <use xlink:href="#NotoSansCJKjp-Regular-a767" transform="translate(1099.998993 0.084203)"/>
     <use xlink:href="#NotoSansCJKjp-Regular-6c33" transform="translate(1199.998901 0.084203)"/>
     <use xlink:href="#NotoSansCJKjp-Regular-52ac" transform="translate(1299.99881 0.084203)"/>
     <use xlink:href="#NotoSansCJKjp-Regular-3bf8" transform="translate(1399.998718 0.084203)"/>
     <use xlink:href="#NotoSansCJKjp-Regular-9b4c" transform="translate(1499.998627 0.084203)"/>
     <use xlink:href="#NotoSansCJKjp-Regular-e6b2" transform="translate(1599.998535 0.084203)"/>
     <use xlink:href="#NotoSansCJKjp-Regular-4110" transform="translate(1699.998444 0.084203)"/>
     <use xlink:href="#NotoSansCJKjp-Regular-ac2e" transform="translate(1799.998352 0.084203)"/>
     <use xlink:href="#NotoSansCJKjp-Regular-1" transform="translate(1899.99826 0.084203)"/>
     <use xlink:href="#Cmr10-6" transform="translate(1922.398239 0.084203)"/>
     <use xlink:href="#Cmmi10-45" transform="translate(2005.69902 0.084203)"/>
     <use xlink:href="#NotoSansCJKjp-Regular-1" transform="translate(2093.491989 0.084203)"/>
     <use xlink:href="#NotoSansCJKjp-Regular-2d2b" transform="translate(2115.891968 0.084203)"/>
     <use xlink:href="#NotoSansCJKjp-Regular-61a1" transform="translate(2215.891876 0.084203)"/>
     <use xlink:href="#NotoSansCJKjp-Regular-8006" transform="translate(2315.891785 0.084203)"/>
     <use xlink:href="#NotoSansCJKjp-Regular-a108" transform="translate(2415.891693 0.084203)"/>
     <use xlink:href="#NotoSansCJKjp-Regular-1" transform="translate(2515.891602 0.084203)"/>
     <use xlink:href="#Cmr10-6" transform="translate(2538.29158 0.084203)"/>
     <use xlink:href="#Cmmi10-45" transform="translate(2621.592361 0.084203)"/>
     <use xlink:href="#Cmmi10-7f" transform="translate(2726.052378 0.084203)"/>
     <use xlink:href="#Cmr10-31" transform="translate(2780.52545 41.373437) scale(0.7)"/>
    </g>
   </g>
   <g id="patch_5">
    <path d="M 83.908 169.3384 
C 85.525315 169.3384 87.076606 168.695834 88.22022 167.55222 
C 89.363834 166.408606 90.0064 164.857315 90.0064 163.24 
C 90.0064 161.622685 89.363834 160.071394 88.22022 158.92778 
C 87.076606 157.784166 85.525315 157.1416 83.908 157.1416 
C 82.290685 157.1416 80.739394 157.784166 79.59578 158.92778 
C 78.452166 160.071394 77.8096 161.622685 77.8096 163.24 
C 77.8096 164.857315 78.452166 166.408606 79.59578 167.55222 
C 80.739394 168.695834 82.290685 169.3384 83.908 169.3384 
z
" clip-path="url(#pd86842f28c)" style="fill: #1f6feb; stroke: #1f6feb; stroke-linejoin: miter"/>
   </g>
   <g id="patch_6">
    <path d="M 99.154 161.0224 
C 100.771315 161.0224 102.322606 160.379834 103.46622 159.23622 
C 104.609834 158.092606 105.2524 156.541315 105.2524 154.924 
C 105.2524 153.306685 104.609834 151.755394 103.46622 150.61178 
C 102.322606 149.468166 100.771315 148.8256 99.154 148.8256 
C 97.536685 148.8256 95.985394 149.468166 94.84178 150.61178 
C 93.698166 151.755394 93.0556 153.306685 93.0556 154.924 
C 93.0556 156.541315 93.698166 158.092606 94.84178 159.23622 
C 95.985394 160.379834 97.536685 161.0224 99.154 161.0224 
z
" clip-path="url(#pd86842f28c)" style="fill: #1f6feb; stroke: #1f6feb; stroke-linejoin: miter"/>
   </g>
   <g id="patch_7">
    <path d="M 115.786 172.1104 
C 117.403315 172.1104 118.954606 171.467834 120.09822 170.32422 
C 121.241834 169.180606 121.8844 167.629315 121.8844 166.012 
C 121.8844 164.394685 121.241834 162.843394 120.09822 161.69978 
C 118.954606 160.556166 117.403315 159.9136 115.786 159.9136 
C 114.168685 159.9136 112.617394 160.556166 111.47378 161.69978 
C 110.330166 162.843394 109.6876 164.394685 109.6876 166.012 
C 109.6876 167.629315 110.330166 169.180606 111.47378 170.32422 
C 112.617394 171.467834 114.168685 172.1104 115.786 172.1104 
z
" clip-path="url(#pd86842f28c)" style="fill: #1f6feb; stroke: #1f6feb; stroke-linejoin: miter"/>
   </g>
   <g id="patch_8">
    <path d="M 131.032 163.7944 
C 132.649315 163.7944 134.200606 163.151834 135.34422 162.00822 
C 136.487834 160.864606 137.1304 159.313315 137.1304 157.696 
C 137.1304 156.078685 136.487834 154.527394 135.34422 153.38378 
C 134.200606 152.240166 132.649315 151.5976 131.032 151.5976 
C 129.414685 151.5976 127.863394 152.240166 126.71978 153.38378 
C 125.576166 154.527394 124.9336 156.078685 124.9336 157.696 
C 124.9336 159.313315 125.576166 160.864606 126.71978 162.00822 
C 127.863394 163.151834 129.414685 163.7944 131.032 163.7944 
z
" clip-path="url(#pd86842f28c)" style="fill: #1f6feb; stroke: #1f6feb; stroke-linejoin: miter"/>
   </g>
   <g id="patch_9">
    <path d="M 216.964 165.1804 
C 218.581315 165.1804 220.132606 164.537834 221.27622 163.39422 
C 222.419834 162.250606 223.0624 160.699315 223.0624 159.082 
C 223.0624 157.464685 222.419834 155.913394 221.27622 154.76978 
C 220.132606 153.626166 218.581315 152.9836 216.964 152.9836 
C 215.346685 152.9836 213.795394 153.626166 212.65178 154.76978 
C 211.508166 155.913394 210.8656 157.464685 210.8656 159.082 
C 210.8656 160.699315 211.508166 162.250606 212.65178 163.39422 
C 213.795394 164.537834 215.346685 165.1804 216.964 165.1804 
z
" clip-path="url(#pd86842f28c)" style="fill: #bf8700; stroke: #bf8700; stroke-linejoin: miter"/>
   </g>
   <g id="patch_10">
    <path d="M 230.824 165.1804 
C 232.441315 165.1804 233.992606 164.537834 235.13622 163.39422 
C 236.279834 162.250606 236.9224 160.699315 236.9224 159.082 
C 236.9224 157.464685 236.279834 155.913394 235.13622 154.76978 
C 233.992606 153.626166 232.441315 152.9836 230.824 152.9836 
C 229.206685 152.9836 227.655394 153.626166 226.51178 154.76978 
C 225.368166 155.913394 224.7256 157.464685 224.7256 159.082 
C 224.7256 160.699315 225.368166 162.250606 226.51178 163.39422 
C 227.655394 164.537834 229.206685 165.1804 230.824 165.1804 
z
" clip-path="url(#pd86842f28c)" style="fill: #bf8700; stroke: #bf8700; stroke-linejoin: miter"/>
   </g>
   <g id="patch_11">
    <path d="M 223.894 176.2684 
C 225.511315 176.2684 227.062606 175.625834 228.20622 174.48222 
C 229.349834 173.338606 229.9924 171.787315 229.9924 170.17 
C 229.9924 168.552685 229.349834 167.001394 228.20622 165.85778 
C 227.062606 164.714166 225.511315 164.0716 223.894 164.0716 
C 222.276685 164.0716 220.725394 164.714166 219.58178 165.85778 
C 218.438166 167.001394 217.7956 168.552685 217.7956 170.17 
C 217.7956 171.787315 218.438166 173.338606 219.58178 174.48222 
C 220.725394 175.625834 222.276685 176.2684 223.894 176.2684 
z
" clip-path="url(#pd86842f28c)" style="fill: #bf8700; stroke: #bf8700; stroke-linejoin: miter"/>
   </g>
   <g id="patch_12">
    <path d="M 223.894 154.0924 
C 225.511315 154.0924 227.062606 153.449834 228.20622 152.30622 
C 229.349834 151.162606 229.9924 149.611315 229.9924 147.994 
C 229.9924 146.376685 229.349834 144.825394 228.20622 143.68178 
C 227.062606 142.538166 225.511315 141.8956 223.894 141.8956 
C 222.276685 141.8956 220.725394 142.538166 219.58178 143.68178 
C 218.438166 144.825394 217.7956 146.376685 217.7956 147.994 
C 217.7956 149.611315 218.438166 151.162606 219.58178 152.30622 
C 220.725394 153.449834 222.276685 154.0924 223.894 154.0924 
z
" clip-path="url(#pd86842f28c)" style="fill: #bf8700; stroke: #bf8700; stroke-linejoin: miter"/>
   </g>
   <g id="patch_13">
    <path d="M 157.366 163.24 
Q 165.682 163.24 171.314718 163.24 
" clip-path="url(#pd86842f28c)" style="fill: none; stroke: #222831; stroke-width: 2.4; stroke-linecap: round"/>
    <path d="M 164.114718 159.64 
L 171.314718 163.24 
L 164.114718 166.84 
z
" clip-path="url(#pd86842f28c)" style="fill: #222831; stroke: #222831; stroke-width: 2.4; stroke-linecap: round"/>
   </g>
   <g id="patch_14">
    <path d="M 223.894 206.206 
Q 218.35 218.68 213.714153 229.110655 
" clip-path="url(#pd86842f28c)" style="fill: none; stroke: #d1242f; stroke-width: 2; stroke-linecap: round"/>
    <path d="M 218.547201 225.130498 
L 213.714153 229.110655 
L 213.429856 222.856123 
z
" clip-path="url(#pd86842f28c)" style="fill: #d1242f; stroke: #d1242f; stroke-width: 2; stroke-linecap: round"/>
   </g>
  </g>
 </g>
 <defs>
  <clipPath id="pd86842f28c">
   <rect x="52.03" y="24.64" width="277.2" height="277.2"/>
  </clipPath>
 </defs>
</svg>
