<?xml version="1.0" encoding="utf-8" standalone="no"?>
<!DOCTYPE svg PUBLIC "-//W3C//DTD SVG 1.1//EN"
  "http://www.w3.org/Graphics/SVG/1.1/DTD/svg11.dtd">
<svg xmlns:xlink="http://www.w3.org/1999/xlink" width="468.14pt" height="333.832pt" viewBox="0 0 468.14 333.832" xmlns="http://www.w3.org/2000/svg" version="1.1">
 <metadata>
  <rdf:RDF xmlns:dc="http://purl.org/dc/elements/1.1/" xmlns:cc="http://creativecommons.org/ns#" xmlns:rdf="http://www.w3.org/1999/02/22-rdf-syntax-ns#">
   <cc:Work>
    <dc:type rdf:resource="http://purl.org/dc/dcmitype/StillImage"/>
    <dc:date>2026-06-17T18:15:41.117659</dc:date>
    <dc:format>image/svg+xml</dc:format>
    <dc:creator>
     <cc:Agent>
      <dc:title>Matplotlib v3.11.0, https://matplotlib.org/</dc:title>
     </cc:Agent>
    </dc:creator>
   </cc:Work>
  </rdf:RDF>
 </metadata>
 <defs>
  <style type="text/css">*{stroke-linejoin: round; stroke-linecap: butt}</style>
 </defs>
 <g id="figure_1">
  <g id="patch_1">
   <path d="M 0 333.832 
L 468.14 333.832 
L 468.14 0 
L 0 0 
z
" style="fill: #ffffff"/>
  </g>
  <g id="axes_1">
   <g id="patch_2">
    <path d="M 36.86 291.632 
L 460.94 291.632 
L 460.94 25.52 
L 36.86 25.52 
z
" style="fill: #ffffff"/>
   </g>
   <g id="matplotlib.axis_1">
    <g id="xtick_1">
     <g id="line2d_1">
      <path d="M 36.86 291.632 
L 36.86 25.52 
" clip-path="url(#pea24bf1f36)" style="fill: none; stroke: #d8dde3; stroke-width: 0.9; stroke-linecap: square"/>
     </g>
     <g id="line2d_2">
      <defs>
       <path id="m2860f3ca38" d="M 0 0 
L 0 3.5 
" style="stroke: #222831; stroke-width: 0.8"/>
      </defs>
      <g>
       <use xlink:href="#m2860f3ca38" x="36.86" y="291.632" style="fill: #222831; stroke: #222831; stroke-width: 0.8"/>
      </g>
     </g>
     <g id="text_1">
      <!-- 0 -->
      <g style="fill: #222831" transform="translate(33.53 309.192) scale(0.12 -0.12)">
       <defs>
        <path id="NotoSansCJKjp-Regular-11" d="M 1779 -83 
C 2669 -83 3238 723 3238 2362 
C 3238 3987 2669 4774 1779 4774 
C 883 4774 320 3987 320 2362 
C 320 723 883 -83 1779 -83 
z
M 1779 390 
C 1248 390 883 986 883 2362 
C 883 3731 1248 4314 1779 4314 
C 2310 4314 2675 3731 2675 2362 
C 2675 986 2310 390 1779 390 
z
" transform="scale(0.015625)"/>
       </defs>
       <use xlink:href="#NotoSansCJKjp-Regular-11"/>
      </g>
     </g>
    </g>
    <g id="xtick_2">
     <g id="line2d_3">
      <path d="M 123.406939 291.632 
L 123.406939 25.52 
" clip-path="url(#pea24bf1f36)" style="fill: none; stroke: #d8dde3; stroke-width: 0.9; stroke-linecap: square"/>
     </g>
     <g id="line2d_4">
      <g>
       <use xlink:href="#m2860f3ca38" x="123.406939" y="291.632" style="fill: #222831; stroke: #222831; stroke-width: 0.8"/>
      </g>
     </g>
     <g id="text_2">
      <!-- 50 -->
      <g style="fill: #222831" transform="translate(116.746939 309.192) scale(0.12 -0.12)">
       <defs>
        <path id="NotoSansCJKjp-Regular-16" d="M 1677 -83 
C 2464 -83 3213 499 3213 1523 
C 3213 2560 2573 3021 1798 3021 
C 1517 3021 1306 2950 1094 2835 
L 1216 4192 
L 2982 4192 
L 2982 4691 
L 704 4691 
L 550 2502 
L 864 2304 
C 1133 2483 1331 2579 1645 2579 
C 2234 2579 2618 2182 2618 1510 
C 2618 826 2176 403 1619 403 
C 1075 403 730 653 467 922 
L 173 538 
C 493 224 941 -83 1677 -83 
z
" transform="scale(0.015625)"/>
       </defs>
       <use xlink:href="#NotoSansCJKjp-Regular-16"/>
       <use xlink:href="#NotoSansCJKjp-Regular-11" transform="translate(55.5 0)"/>
      </g>
     </g>
    </g>
    <g id="xtick_3">
     <g id="line2d_5">
      <path d="M 209.953878 291.632 
L 209.953878 25.52 
" clip-path="url(#pea24bf1f36)" style="fill: none; stroke: #d8dde3; stroke-width: 0.9; stroke-linecap: square"/>
     </g>
     <g id="line2d_6">
      <g>
       <use xlink:href="#m2860f3ca38" x="209.953878" y="291.632" style="fill: #222831; stroke: #222831; stroke-width: 0.8"/>
      </g>
     </g>
     <g id="text_3">
      <!-- 100 -->
      <g style="fill: #222831" transform="translate(199.963878 309.192) scale(0.12 -0.12)">
       <defs>
        <path id="NotoSansCJKjp-Regular-12" d="M 563 0 
L 3136 0 
L 3136 486 
L 2195 486 
L 2195 4691 
L 1747 4691 
C 1491 4544 1190 4435 774 4358 
L 774 3987 
L 1613 3987 
L 1613 486 
L 563 486 
L 563 0 
z
" transform="scale(0.015625)"/>
       </defs>
       <use xlink:href="#NotoSansCJKjp-Regular-12"/>
       <use xlink:href="#NotoSansCJKjp-Regular-11" transform="translate(55.5 0)"/>
       <use xlink:href="#NotoSansCJKjp-Regular-11" transform="translate(111 0)"/>
      </g>
     </g>
    </g>
    <g id="xtick_4">
     <g id="line2d_7">
      <path d="M 296.500816 291.632 
L 296.500816 25.52 
" clip-path="url(#pea24bf1f36)" style="fill: none; stroke: #d8dde3; stroke-width: 0.9; stroke-linecap: square"/>
     </g>
     <g id="line2d_8">
      <g>
       <use xlink:href="#m2860f3ca38" x="296.500816" y="291.632" style="fill: #222831; stroke: #222831; stroke-width: 0.8"/>
      </g>
     </g>
     <g id="text_4">
      <!-- 150 -->
      <g style="fill: #222831" transform="translate(286.510816 309.192) scale(0.12 -0.12)">
       <use xlink:href="#NotoSansCJKjp-Regular-12"/>
       <use xlink:href="#NotoSansCJKjp-Regular-16" transform="translate(55.5 0)"/>
       <use xlink:href="#NotoSansCJKjp-Regular-11" transform="translate(111 0)"/>
      </g>
     </g>
    </g>
    <g id="xtick_5">
     <g id="line2d_9">
      <path d="M 383.047755 291.632 
L 383.047755 25.52 
" clip-path="url(#pea24bf1f36)" style="fill: none; stroke: #d8dde3; stroke-width: 0.9; stroke-linecap: square"/>
     </g>
     <g id="line2d_10">
      <g>
       <use xlink:href="#m2860f3ca38" x="383.047755" y="291.632" style="fill: #222831; stroke: #222831; stroke-width: 0.8"/>
      </g>
     </g>
     <g id="text_5">
      <!-- 200 -->
      <g style="fill: #222831" transform="translate(373.057755 309.192) scale(0.12 -0.12)">
       <defs>
        <path id="NotoSansCJKjp-Regular-13" d="M 282 0 
L 3232 0 
L 3232 506 
L 1933 506 
C 1696 506 1408 480 1165 461 
C 2266 1504 3008 2458 3008 3398 
C 3008 4230 2477 4774 1638 4774 
C 1043 4774 634 4506 256 4090 
L 595 3757 
C 858 4070 1184 4301 1568 4301 
C 2150 4301 2432 3910 2432 3373 
C 2432 2566 1754 1632 282 346 
L 282 0 
z
" transform="scale(0.015625)"/>
       </defs>
       <use xlink:href="#NotoSansCJKjp-Regular-13"/>
       <use xlink:href="#NotoSansCJKjp-Regular-11" transform="translate(55.5 0)"/>
       <use xlink:href="#NotoSansCJKjp-Regular-11" transform="translate(111 0)"/>
      </g>
     </g>
    </g>
    <g id="text_6">
     <!-- 質量數 $A$（核子數） -->
     <g style="fill: #222831" transform="translate(195.02 325.192) scale(0.12 -0.12)">
      <defs>
       <path id="NotoSansCJKjp-Regular-97ec" d="M 1606 2061 
L 4851 2061 
L 4851 1613 
L 1606 1613 
L 1606 2061 
z
M 1606 1299 
L 4851 1299 
L 4851 845 
L 1606 845 
L 1606 1299 
z
M 1606 2816 
L 4851 2816 
L 4851 2374 
L 1606 2374 
L 1606 2816 
z
M 1139 3142 
L 1139 518 
L 5331 518 
L 5331 3142 
L 1139 3142 
z
M 3738 186 
C 4435 -45 5126 -320 5530 -525 
L 6067 -282 
C 5600 -70 4826 211 4128 429 
L 3738 186 
z
M 2227 448 
C 1766 198 998 -32 339 -173 
C 448 -256 621 -435 698 -531 
C 1338 -358 2150 -58 2669 250 
L 2227 448 
z
M 813 5203 
L 813 4570 
C 813 4154 736 3642 282 3226 
C 384 3162 538 3014 602 2918 
C 973 3264 1139 3693 1203 4077 
L 1990 4077 
L 1990 3270 
L 2419 3270 
L 2419 4077 
L 3174 4077 
L 3174 4448 
L 1242 4448 
L 1242 4544 
L 1242 4774 
C 1843 4832 2528 4922 3002 5062 
L 2682 5363 
C 2336 5254 1741 5158 1184 5101 
L 813 5203 
z
M 3430 5190 
L 3430 4614 
C 3430 4256 3334 3846 2816 3507 
C 2918 3437 3059 3283 3117 3181 
C 3501 3443 3693 3763 3782 4077 
L 4678 4077 
L 4678 3258 
L 5114 3258 
L 5114 4077 
L 6067 4077 
L 6067 4448 
L 3853 4448 
L 3859 4602 
L 3859 4774 
C 4506 4826 5242 4915 5747 5050 
L 5427 5350 
C 5050 5248 4397 5152 3802 5094 
L 3430 5190 
z
" transform="scale(0.015625)"/>
       <path id="NotoSansCJKjp-Regular-a108" d="M 1600 4256 
L 4781 4256 
L 4781 3904 
L 1600 3904 
L 1600 4256 
z
M 1600 4883 
L 4781 4883 
L 4781 4538 
L 1600 4538 
L 1600 4883 
z
M 1133 5171 
L 1133 3616 
L 5261 3616 
L 5261 5171 
L 1133 5171 
z
M 333 3341 
L 333 2976 
L 6074 2976 
L 6074 3341 
L 333 3341 
z
M 1472 1747 
L 2957 1747 
L 2957 1376 
L 1472 1376 
L 1472 1747 
z
M 3424 1747 
L 4973 1747 
L 4973 1376 
L 3424 1376 
L 3424 1747 
z
M 1472 2387 
L 2957 2387 
L 2957 2029 
L 1472 2029 
L 1472 2387 
z
M 3424 2387 
L 4973 2387 
L 4973 2029 
L 3424 2029 
L 3424 2387 
z
M 301 19 
L 301 -352 
L 6112 -352 
L 6112 19 
L 3424 19 
L 3424 390 
L 5587 390 
L 5587 730 
L 3424 730 
L 3424 1082 
L 5446 1082 
L 5446 2688 
L 1018 2688 
L 1018 1082 
L 2957 1082 
L 2957 730 
L 838 730 
L 838 390 
L 2957 390 
L 2957 19 
L 301 19 
z
" transform="scale(0.015625)"/>
       <path id="NotoSansCJKjp-Regular-4e26" d="M 4352 3744 
L 5318 3744 
C 5216 2957 5062 2266 4826 1677 
C 4595 2266 4442 2944 4333 3661 
L 4352 3744 
z
M 256 4301 
L 256 3936 
L 698 3936 
L 698 3245 
L 1741 3245 
L 1741 2950 
L 538 2950 
L 538 1882 
L 1485 1882 
L 1274 1478 
L 262 1472 
L 275 1088 
L 1069 1094 
C 928 845 787 608 666 422 
L 1062 307 
L 1171 486 
C 1389 403 1606 314 1818 218 
C 1459 32 998 -83 416 -154 
C 493 -256 570 -410 602 -538 
C 1293 -416 1837 -250 2246 13 
C 2522 -128 2765 -275 2957 -410 
L 3264 -102 
C 3078 19 2848 154 2586 282 
C 2816 512 2976 794 3072 1133 
L 3750 1152 
L 3763 1510 
L 1734 1485 
L 1939 1882 
L 3424 1882 
L 3424 2419 
C 3526 2336 3648 2221 3706 2157 
C 3834 2362 3949 2592 4051 2848 
C 4179 2221 4346 1645 4563 1146 
C 4256 614 3853 192 3309 -134 
C 3392 -224 3539 -429 3584 -525 
C 4090 -198 4486 192 4794 666 
C 5075 166 5414 -237 5850 -518 
C 5920 -403 6067 -224 6176 -141 
C 5709 141 5350 582 5062 1133 
C 5421 1843 5638 2707 5779 3744 
L 6144 3744 
L 6144 4186 
L 4467 4186 
C 4550 4544 4621 4922 4678 5306 
L 4211 5376 
C 4070 4339 3827 3315 3424 2618 
L 3424 2950 
L 2163 2950 
L 2163 3245 
L 3277 3245 
L 3277 3936 
L 3731 3936 
L 3731 4301 
L 3277 4301 
L 3277 4986 
L 2163 4986 
L 2163 5376 
L 1741 5376 
L 1741 4986 
L 698 4986 
L 698 4301 
L 256 4301 
z
M 1101 4646 
L 1741 4646 
L 1741 4282 
L 1101 4282 
L 1101 4646 
z
M 1741 3578 
L 1101 3578 
L 1101 3955 
L 1741 3955 
L 1741 3578 
z
M 2163 4646 
L 2848 4646 
L 2848 4282 
L 2163 4282 
L 2163 4646 
z
M 2163 3578 
L 2163 3955 
L 2848 3955 
L 2848 3578 
L 2163 3578 
z
M 947 2624 
L 1741 2624 
L 1741 2202 
L 947 2202 
L 947 2624 
z
M 2163 2624 
L 3002 2624 
L 3002 2202 
L 2163 2202 
L 2163 2624 
z
M 1530 1107 
L 2630 1126 
C 2534 864 2387 646 2189 467 
C 1920 589 1632 704 1357 800 
L 1530 1107 
z
" transform="scale(0.015625)"/>
       <path id="NotoSansCJKjp-Regular-1" transform="scale(0.015625)"/>
       <path id="Cmmi10-5c" d="M 288 0 
Q 225 0 225 84 
Q 250 225 306 225 
Q 566 225 755 328 
Q 944 431 1081 647 
Q 1094 659 1094 659 
L 3378 4513 
Q 3428 4581 3500 4581 
L 3584 4581 
Q 3603 4581 3622 4573 
Q 3641 4566 3655 4548 
Q 3669 4531 3669 4513 
L 4056 378 
Q 4056 350 4084 294 
Q 4147 225 4563 225 
Q 4628 225 4628 141 
Q 4606 56 4592 28 
Q 4578 0 4519 0 
L 2919 0 
Q 2859 0 2859 84 
Q 2894 225 2944 225 
Q 3450 225 3481 397 
L 3384 1453 
L 1806 1453 
L 1294 594 
Q 1247 525 1247 434 
Q 1247 322 1355 273 
Q 1463 225 1594 225 
Q 1656 225 1656 141 
Q 1634 50 1621 25 
Q 1609 0 1550 0 
L 288 0 
z
M 1931 1678 
L 3359 1678 
L 3169 3750 
L 1931 1678 
z
" transform="scale(0.015625)"/>
       <path id="NotoSansCJKjp-Regular-e6ae" d="M 4448 2432 
C 4448 1184 4954 166 5722 -614 
L 6106 -416 
C 5370 346 4915 1293 4915 2432 
C 4915 3571 5370 4518 6106 5280 
L 5722 5478 
C 4954 4698 4448 3680 4448 2432 
z
" transform="scale(0.015625)"/>
       <path id="NotoSansCJKjp-Regular-52ac" d="M 5114 3488 
C 4858 3053 4512 2643 4096 2272 
C 3942 2419 3744 2592 3526 2765 
C 3821 3091 4179 3558 4467 3949 
L 4442 3962 
L 6125 3962 
L 6125 4403 
L 4570 4403 
L 4570 5363 
L 4102 5363 
L 4102 4403 
L 2496 4403 
L 2496 3962 
L 3878 3962 
C 3686 3648 3430 3290 3206 3008 
L 2874 3245 
L 2592 2925 
C 2976 2656 3437 2272 3738 1971 
C 3341 1670 2906 1408 2458 1216 
C 2566 1126 2701 973 2765 864 
C 3898 1402 4922 2298 5530 3315 
L 5114 3488 
z
M 5651 2317 
C 4992 1203 3757 339 2285 -115 
C 2400 -224 2515 -390 2579 -506 
C 3373 -237 4096 141 4704 608 
C 5120 230 5568 -230 5805 -531 
L 6195 -237 
C 5939 70 5466 525 5043 890 
C 5459 1261 5805 1670 6080 2131 
L 5651 2317 
z
M 1274 5376 
L 1274 4006 
L 333 4006 
L 333 3552 
L 1222 3552 
C 1024 2675 614 1664 205 1120 
C 288 1011 403 826 454 698 
C 762 1114 1050 1798 1274 2502 
L 1274 -506 
L 1722 -506 
L 1722 2496 
C 1933 2157 2182 1741 2291 1517 
L 2560 1888 
C 2445 2074 1907 2842 1722 3066 
L 1722 3552 
L 2483 3552 
L 2483 4006 
L 1722 4006 
L 1722 5376 
L 1274 5376 
z
" transform="scale(0.015625)"/>
       <path id="NotoSansCJKjp-Regular-3bf8" d="M 966 4934 
L 966 4454 
L 4595 4454 
C 4211 4134 3718 3795 3264 3546 
L 2963 3546 
L 2963 2515 
L 301 2515 
L 301 2035 
L 2963 2035 
L 2963 115 
C 2963 0 2925 -32 2790 -45 
C 2643 -45 2170 -51 1658 -32 
C 1734 -173 1830 -384 1862 -525 
C 2477 -531 2893 -518 3136 -435 
C 3379 -358 3462 -218 3462 109 
L 3462 2035 
L 6112 2035 
L 6112 2515 
L 3462 2515 
L 3462 3149 
C 4179 3539 5024 4134 5574 4685 
L 5210 4960 
L 5101 4934 
L 966 4934 
z
" transform="scale(0.015625)"/>
       <path id="NotoSansCJKjp-Regular-e6af" d="M 1952 2432 
C 1952 3680 1446 4698 678 5478 
L 294 5280 
C 1030 4518 1485 3571 1485 2432 
C 1485 1293 1030 346 294 -416 
L 678 -614 
C 1446 166 1952 1184 1952 2432 
z
" transform="scale(0.015625)"/>
      </defs>
      <use xlink:href="#NotoSansCJKjp-Regular-97ec" transform="translate(0 0.40625)"/>
      <use xlink:href="#NotoSansCJKjp-Regular-a108" transform="translate(99.999908 0.40625)"/>
      <use xlink:href="#NotoSansCJKjp-Regular-4e26" transform="translate(199.999817 0.40625)"/>
      <use xlink:href="#NotoSansCJKjp-Regular-1" transform="translate(299.999725 0.40625)"/>
      <use xlink:href="#Cmmi10-5c" transform="translate(322.399704 0.40625)"/>
      <use xlink:href="#NotoSansCJKjp-Regular-e6ae" transform="translate(397.399704 0.40625)"/>
      <use xlink:href="#NotoSansCJKjp-Regular-52ac" transform="translate(497.399612 0.40625)"/>
      <use xlink:href="#NotoSansCJKjp-Regular-3bf8" transform="translate(597.399521 0.40625)"/>
      <use xlink:href="#NotoSansCJKjp-Regular-4e26" transform="translate(697.399429 0.40625)"/>
      <use xlink:href="#NotoSansCJKjp-Regular-e6af" transform="translate(797.399338 0.40625)"/>
     </g>
    </g>
   </g>
   <g id="matplotlib.axis_2">
    <g id="ytick_1">
     <g id="line2d_11">
      <path d="M 36.86 291.632 
L 460.94 291.632 
" clip-path="url(#pea24bf1f36)" style="fill: none; stroke: #d8dde3; stroke-width: 0.9; stroke-linecap: square"/>
     </g>
     <g id="line2d_12">
      <defs>
       <path id="md8bd5e7886" d="M 0 0 
L -3.5 0 
" style="stroke: #222831; stroke-width: 0.8"/>
      </defs>
      <g>
       <use xlink:href="#md8bd5e7886" x="36.86" y="291.632" style="fill: #222831; stroke: #222831; stroke-width: 0.8"/>
      </g>
     </g>
     <g id="text_7">
      <!-- 0 -->
      <g style="fill: #222831" transform="translate(23.2 296.912) scale(0.12 -0.12)">
       <use xlink:href="#NotoSansCJKjp-Regular-11"/>
      </g>
     </g>
    </g>
    <g id="ytick_2">
     <g id="line2d_13">
      <path d="M 36.86 236.192 
L 460.94 236.192 
" clip-path="url(#pea24bf1f36)" style="fill: none; stroke: #d8dde3; stroke-width: 0.9; stroke-linecap: square"/>
     </g>
     <g id="line2d_14">
      <g>
       <use xlink:href="#md8bd5e7886" x="36.86" y="236.192" style="fill: #222831; stroke: #222831; stroke-width: 0.8"/>
      </g>
     </g>
     <g id="text_8">
      <!-- 2 -->
      <g style="fill: #222831" transform="translate(23.2 241.472) scale(0.12 -0.12)">
       <use xlink:href="#NotoSansCJKjp-Regular-13"/>
      </g>
     </g>
    </g>
    <g id="ytick_3">
     <g id="line2d_15">
      <path d="M 36.86 180.752 
L 460.94 180.752 
" clip-path="url(#pea24bf1f36)" style="fill: none; stroke: #d8dde3; stroke-width: 0.9; stroke-linecap: square"/>
     </g>
     <g id="line2d_16">
      <g>
       <use xlink:href="#md8bd5e7886" x="36.86" y="180.752" style="fill: #222831; stroke: #222831; stroke-width: 0.8"/>
      </g>
     </g>
     <g id="text_9">
      <!-- 4 -->
      <g style="fill: #222831" transform="translate(23.2 186.032) scale(0.12 -0.12)">
       <defs>
        <path id="NotoSansCJKjp-Regular-15" d="M 2176 0 
L 2726 0 
L 2726 1293 
L 3354 1293 
L 3354 1760 
L 2726 1760 
L 2726 4691 
L 2080 4691 
L 128 1677 
L 128 1293 
L 2176 1293 
L 2176 0 
z
M 2176 1760 
L 736 1760 
L 1805 3360 
C 1939 3590 2067 3827 2182 4051 
L 2208 4051 
C 2195 3814 2176 3430 2176 3200 
L 2176 1760 
z
" transform="scale(0.015625)"/>
       </defs>
       <use xlink:href="#NotoSansCJKjp-Regular-15"/>
      </g>
     </g>
    </g>
    <g id="ytick_4">
     <g id="line2d_17">
      <path d="M 36.86 125.312 
L 460.94 125.312 
" clip-path="url(#pea24bf1f36)" style="fill: none; stroke: #d8dde3; stroke-width: 0.9; stroke-linecap: square"/>
     </g>
     <g id="line2d_18">
      <g>
       <use xlink:href="#md8bd5e7886" x="36.86" y="125.312" style="fill: #222831; stroke: #222831; stroke-width: 0.8"/>
      </g>
     </g>
     <g id="text_10">
      <!-- 6 -->
      <g style="fill: #222831" transform="translate(23.2 130.592) scale(0.12 -0.12)">
       <defs>
        <path id="NotoSansCJKjp-Regular-17" d="M 1926 -83 
C 2656 -83 3277 531 3277 1440 
C 3277 2426 2765 2912 1971 2912 
C 1606 2912 1197 2701 909 2349 
C 934 3802 1466 4294 2118 4294 
C 2400 4294 2682 4154 2861 3936 
L 3194 4294 
C 2931 4576 2579 4774 2093 4774 
C 1184 4774 358 4077 358 2240 
C 358 691 1030 -83 1926 -83 
z
M 922 1882 
C 1229 2317 1587 2477 1875 2477 
C 2445 2477 2720 2074 2720 1440 
C 2720 800 2374 378 1926 378 
C 1338 378 986 909 922 1882 
z
" transform="scale(0.015625)"/>
       </defs>
       <use xlink:href="#NotoSansCJKjp-Regular-17"/>
      </g>
     </g>
    </g>
    <g id="ytick_5">
     <g id="line2d_19">
      <path d="M 36.86 69.872 
L 460.94 69.872 
" clip-path="url(#pea24bf1f36)" style="fill: none; stroke: #d8dde3; stroke-width: 0.9; stroke-linecap: square"/>
     </g>
     <g id="line2d_20">
      <g>
       <use xlink:href="#md8bd5e7886" x="36.86" y="69.872" style="fill: #222831; stroke: #222831; stroke-width: 0.8"/>
      </g>
     </g>
     <g id="text_11">
      <!-- 8 -->
      <g style="fill: #222831" transform="translate(23.2 75.152) scale(0.12 -0.12)">
       <defs>
        <path id="NotoSansCJKjp-Regular-19" d="M 1792 -83 
C 2669 -83 3258 448 3258 1126 
C 3258 1773 2880 2125 2470 2362 
L 2470 2394 
C 2746 2611 3091 3034 3091 3526 
C 3091 4250 2605 4762 1805 4762 
C 1075 4762 518 4282 518 3571 
C 518 3078 813 2726 1152 2490 
L 1152 2464 
C 723 2234 294 1792 294 1165 
C 294 442 922 -83 1792 -83 
z
M 2112 2547 
C 1555 2765 1050 3014 1050 3571 
C 1050 4026 1363 4326 1798 4326 
C 2298 4326 2592 3962 2592 3494 
C 2592 3149 2426 2829 2112 2547 
z
M 1798 352 
C 1235 352 813 717 813 1216 
C 813 1664 1082 2035 1459 2278 
C 2125 2010 2701 1779 2701 1146 
C 2701 678 2342 352 1798 352 
z
" transform="scale(0.015625)"/>
       </defs>
       <use xlink:href="#NotoSansCJKjp-Regular-19"/>
      </g>
     </g>
    </g>
    <g id="text_12">
     <!-- 每核子平均束縛能（MeV） -->
     <g style="fill: #222831" transform="translate(17.76 230.11475) rotate(-90) scale(0.12 -0.12)">
      <defs>
       <path id="NotoSansCJKjp-Regular-5936" d="M 2502 2931 
C 2906 2746 3386 2445 3635 2208 
L 1722 2208 
L 1856 3219 
L 4800 3219 
L 4762 2208 
L 3674 2208 
L 3942 2490 
C 3693 2726 3187 3021 2778 3200 
L 2502 2931 
z
M 275 2221 
L 275 1786 
L 1190 1786 
C 1094 1158 992 550 902 109 
L 1389 77 
L 1434 320 
L 4608 320 
C 4570 128 4525 13 4480 -45 
C 4422 -122 4365 -141 4250 -141 
C 4122 -141 3827 -134 3507 -109 
C 3571 -218 3616 -384 3622 -493 
C 3936 -512 4262 -518 4448 -506 
C 4646 -486 4781 -435 4902 -269 
C 4979 -173 5037 6 5088 320 
L 5914 320 
L 5914 749 
L 5139 749 
C 5171 1024 5190 1363 5216 1786 
L 6138 1786 
L 6138 2221 
L 5235 2221 
L 5280 3411 
C 5280 3475 5286 3648 5286 3648 
L 1427 3648 
C 1382 3219 1318 2720 1254 2221 
L 275 2221 
z
M 4666 749 
L 3603 749 
L 3834 998 
C 3571 1254 3059 1581 2618 1792 
L 4742 1792 
C 4717 1357 4698 1018 4666 749 
z
M 2336 1523 
C 2746 1318 3226 1005 3494 749 
L 1504 749 
L 1664 1792 
L 2598 1792 
L 2336 1523 
z
M 1734 5414 
C 1402 4602 845 3776 262 3264 
C 384 3194 608 3046 710 2963 
C 1030 3290 1363 3718 1658 4192 
L 5901 4192 
L 5901 4634 
L 1920 4634 
C 2029 4845 2138 5056 2234 5274 
L 1734 5414 
z
" transform="scale(0.015625)"/>
       <path id="NotoSansCJKjp-Regular-41d6" d="M 1114 4032 
C 1363 3558 1613 2938 1702 2554 
L 2157 2714 
C 2067 3085 1805 3699 1549 4160 
L 1114 4032 
z
M 4832 4192 
C 4672 3725 4378 3072 4134 2669 
L 4550 2534 
C 4800 2918 5101 3533 5338 4051 
L 4832 4192 
z
M 333 2227 
L 333 1747 
L 2938 1747 
L 2938 -506 
L 3437 -506 
L 3437 1747 
L 6074 1747 
L 6074 2227 
L 3437 2227 
L 3437 4467 
L 5715 4467 
L 5715 4947 
L 672 4947 
L 672 4467 
L 2938 4467 
L 2938 2227 
L 333 2227 
z
" transform="scale(0.015625)"/>
       <path id="NotoSansCJKjp-Regular-33ef" d="M 2803 3021 
L 2803 2579 
L 4794 2579 
L 4794 3021 
L 2803 3021 
z
M 2509 954 
L 2707 506 
C 3334 742 4173 1075 4954 1389 
L 4870 1805 
C 4000 1478 3091 1146 2509 954 
z
M 3245 5376 
C 3002 4480 2586 3610 2054 3053 
C 2176 2982 2381 2835 2477 2746 
C 2726 3046 2970 3430 3181 3853 
L 5542 3853 
C 5459 1254 5357 269 5152 51 
C 5075 -32 5005 -58 4877 -51 
C 4723 -51 4326 -51 3898 -13 
C 3981 -154 4045 -358 4058 -499 
C 4442 -518 4838 -531 5062 -506 
C 5293 -486 5440 -429 5587 -237 
C 5843 77 5939 1101 6029 4058 
C 6035 4128 6035 4314 6035 4314 
L 3392 4314 
C 3526 4621 3635 4941 3731 5267 
L 3245 5376 
z
M 218 1030 
L 390 550 
C 986 794 1773 1126 2509 1440 
L 2406 1894 
L 1606 1568 
L 1606 3430 
L 2362 3430 
L 2362 3885 
L 1606 3885 
L 1606 5338 
L 1139 5338 
L 1139 3885 
L 333 3885 
L 333 3430 
L 1139 3430 
L 1139 1382 
C 794 1248 474 1120 218 1030 
z
" transform="scale(0.015625)"/>
       <path id="NotoSansCJKjp-Regular-5160" d="M 928 3546 
L 928 1702 
L 2688 1702 
C 2093 1024 1139 410 256 102 
C 365 6 512 -179 589 -294 
C 1421 32 2310 640 2944 1338 
L 2944 -512 
L 3437 -512 
L 3437 1370 
C 4070 653 4979 32 5837 -307 
C 5914 -179 6067 13 6182 109 
C 5280 410 4307 1024 3712 1702 
L 5498 1702 
L 5498 3546 
L 3437 3546 
L 3437 4243 
L 5933 4243 
L 5933 4698 
L 3437 4698 
L 3437 5370 
L 2944 5370 
L 2944 4698 
L 486 4698 
L 486 4243 
L 2944 4243 
L 2944 3546 
L 928 3546 
z
M 1389 3117 
L 2944 3117 
L 2944 2131 
L 1389 2131 
L 1389 3117 
z
M 3437 3117 
L 5005 3117 
L 5005 2131 
L 3437 2131 
L 3437 3117 
z
" transform="scale(0.015625)"/>
       <path id="NotoSansCJKjp-Regular-7a9c" d="M 3008 787 
C 3277 531 3565 154 3693 -90 
L 4064 173 
C 3923 410 3629 755 3354 1005 
L 3008 787 
z
M 1811 1638 
C 1965 1267 2086 781 2112 461 
L 2477 576 
C 2438 890 2310 1370 2157 1741 
L 1811 1638 
z
M 570 1715 
C 493 1158 378 582 166 192 
C 269 154 448 70 525 19 
C 723 429 877 1043 960 1651 
L 570 1715 
z
M 2746 3936 
L 2746 1914 
L 4749 1914 
L 4749 1459 
L 2496 1459 
L 2496 1050 
L 4749 1050 
L 4749 6 
C 4749 -70 4730 -90 4640 -96 
C 4550 -96 4275 -96 3949 -90 
C 4006 -211 4070 -384 4096 -512 
C 4525 -512 4806 -506 4979 -442 
C 5165 -371 5210 -243 5210 -6 
L 5210 1050 
L 6157 1050 
L 6157 1459 
L 5210 1459 
L 5210 1914 
L 5933 1914 
L 5933 3936 
L 4531 3936 
L 4531 4339 
L 6080 4339 
L 6080 4723 
L 5626 4723 
L 5818 4928 
C 5632 5062 5280 5261 4998 5363 
L 4749 5133 
C 4992 5037 5274 4864 5472 4723 
L 4531 4723 
L 4531 5363 
L 4083 5363 
L 4083 4723 
L 2534 4723 
L 2534 4339 
L 4083 4339 
L 4083 3936 
L 2746 3936 
z
M 3187 2758 
L 4083 2758 
L 4083 2259 
L 3187 2259 
L 3187 2758 
z
M 4531 2758 
L 5478 2758 
L 5478 2259 
L 4531 2259 
L 4531 2758 
z
M 3187 3584 
L 4083 3584 
L 4083 3098 
L 3187 3098 
L 3187 3584 
z
M 4531 3584 
L 5478 3584 
L 5478 3098 
L 4531 3098 
L 4531 3584 
z
M 179 2547 
L 224 2118 
L 1210 2176 
L 1210 -512 
L 1626 -512 
L 1626 2202 
L 2106 2240 
C 2157 2086 2195 1939 2214 1824 
L 2579 1978 
C 2509 2336 2272 2899 2035 3328 
L 1696 3194 
C 1786 3021 1875 2829 1952 2637 
L 1094 2592 
C 1510 3136 1978 3866 2330 4467 
L 1933 4646 
C 1766 4301 1530 3878 1280 3475 
C 1190 3603 1075 3744 947 3885 
C 1178 4243 1446 4774 1670 5216 
L 1254 5376 
C 1126 5018 896 4525 691 4154 
L 486 4352 
L 237 4051 
C 531 3776 858 3398 1043 3104 
C 915 2906 787 2726 666 2566 
L 179 2547 
z
" transform="scale(0.015625)"/>
       <path id="NotoSansCJKjp-Regular-8006" d="M 2131 4774 
C 2278 4576 2432 4339 2560 4109 
L 1248 4058 
C 1446 4422 1651 4864 1824 5261 
L 1331 5382 
C 1197 4979 966 4442 742 4038 
L 256 4019 
L 294 3552 
C 960 3590 1882 3635 2784 3693 
C 2854 3552 2912 3424 2950 3309 
L 3366 3494 
C 3226 3891 2867 4486 2528 4928 
L 2131 4774 
z
M 2451 2688 
L 2451 2138 
L 1088 2138 
L 1088 2688 
L 2451 2688 
z
M 640 3098 
L 640 -506 
L 1088 -506 
L 1088 800 
L 2451 800 
L 2451 51 
C 2451 -32 2432 -58 2349 -58 
C 2253 -64 1984 -64 1683 -51 
C 1747 -179 1818 -365 1843 -493 
C 2246 -493 2522 -486 2701 -416 
C 2874 -339 2925 -205 2925 45 
L 2925 3098 
L 640 3098 
z
M 1088 1760 
L 2451 1760 
L 2451 1178 
L 1088 1178 
L 1088 1760 
z
M 5491 4896 
C 5126 4704 4550 4474 4006 4288 
L 4006 5363 
L 3526 5363 
L 3526 3238 
C 3526 2707 3686 2566 4307 2566 
C 4429 2566 5267 2566 5408 2566 
C 5920 2566 6061 2771 6118 3558 
C 5984 3590 5786 3661 5683 3744 
C 5658 3110 5613 3002 5363 3002 
C 5184 3002 4480 3002 4352 3002 
C 4058 3002 4006 3040 4006 3245 
L 4006 3904 
C 4621 4083 5306 4307 5811 4538 
L 5491 4896 
z
M 5568 2042 
C 5197 1805 4582 1555 4000 1363 
L 4000 2387 
L 3526 2387 
L 3526 224 
C 3526 -314 3693 -454 4320 -454 
C 4454 -454 5318 -454 5459 -454 
C 5997 -454 6138 -224 6195 634 
C 6061 666 5875 742 5760 819 
C 5734 96 5690 -26 5421 -26 
C 5229 -26 4506 -26 4365 -26 
C 4058 -26 4000 13 4000 224 
L 4000 966 
C 4646 1146 5382 1395 5882 1683 
L 5568 2042 
z
" transform="scale(0.015625)"/>
       <path id="NotoSansCJKjp-Regular-2e" d="M 646 0 
L 1178 0 
L 1178 2598 
C 1178 3002 1139 3571 1101 3981 
L 1126 3981 
L 1504 2912 
L 2394 474 
L 2790 474 
L 3674 2912 
L 4051 3981 
L 4077 3981 
C 4045 3571 4000 3002 4000 2598 
L 4000 0 
L 4550 0 
L 4550 4691 
L 3840 4691 
L 2944 2182 
C 2835 1862 2739 1530 2618 1203 
L 2592 1203 
C 2477 1530 2374 1862 2253 2182 
L 1357 4691 
L 646 4691 
L 646 0 
z
" transform="scale(0.015625)"/>
       <path id="NotoSansCJKjp-Regular-46" d="M 1997 -83 
C 2464 -83 2835 70 3136 269 
L 2931 659 
C 2669 486 2400 384 2061 384 
C 1402 384 947 858 909 1600 
L 3251 1600 
C 3264 1690 3277 1805 3277 1933 
C 3277 2925 2778 3565 1888 3565 
C 1094 3565 333 2867 333 1734 
C 333 589 1069 -83 1997 -83 
z
M 902 2016 
C 973 2707 1408 3098 1901 3098 
C 2445 3098 2765 2720 2765 2016 
L 902 2016 
z
" transform="scale(0.015625)"/>
       <path id="NotoSansCJKjp-Regular-37" d="M 1504 0 
L 2189 0 
L 3680 4691 
L 3078 4691 
L 2323 2150 
C 2163 1600 2048 1152 1869 602 
L 1843 602 
C 1670 1152 1549 1600 1389 2150 
L 627 4691 
L 6 4691 
L 1504 0 
z
" transform="scale(0.015625)"/>
      </defs>
      <use xlink:href="#NotoSansCJKjp-Regular-5936"/>
      <use xlink:href="#NotoSansCJKjp-Regular-52ac" transform="translate(100 0)"/>
      <use xlink:href="#NotoSansCJKjp-Regular-3bf8" transform="translate(200 0)"/>
      <use xlink:href="#NotoSansCJKjp-Regular-41d6" transform="translate(300 0)"/>
      <use xlink:href="#NotoSansCJKjp-Regular-33ef" transform="translate(400 0)"/>
      <use xlink:href="#NotoSansCJKjp-Regular-5160" transform="translate(500 0)"/>
      <use xlink:href="#NotoSansCJKjp-Regular-7a9c" transform="translate(600 0)"/>
      <use xlink:href="#NotoSansCJKjp-Regular-8006" transform="translate(700 0)"/>
      <use xlink:href="#NotoSansCJKjp-Regular-e6ae" transform="translate(800 0)"/>
      <use xlink:href="#NotoSansCJKjp-Regular-2e" transform="translate(900 0)"/>
      <use xlink:href="#NotoSansCJKjp-Regular-46" transform="translate(981.203125 0)"/>
      <use xlink:href="#NotoSansCJKjp-Regular-37" transform="translate(1034.8125 0)"/>
      <use xlink:href="#NotoSansCJKjp-Regular-e6af" transform="translate(1092.3125 0)"/>
     </g>
    </g>
   </g>
   <g id="patch_3">
    <path d="M 36.86 291.632 
L 36.86 25.52 
" style="fill: none; stroke: #222831; stroke-width: 1.1; stroke-linejoin: miter; stroke-linecap: square"/>
   </g>
   <g id="patch_4">
    <path d="M 36.86 291.632 
L 460.94 291.632 
" style="fill: none; stroke: #222831; stroke-width: 1.1; stroke-linejoin: miter; stroke-linecap: square"/>
   </g>
   <g id="line2d_21">
    <path d="M 38.590939 291.632 
L 40.235157 262.404343 
L 41.879376 217.961795 
L 42.701485 169.139042 
L 43.523594 113.316851 
L 44.345703 103.480972 
L 46.812031 137.843218 
L 47.63414 142.142317 
L 48.456249 138.455946 
L 49.278358 134.068798 
L 55.033123 95.662895 
L 57.49945 79.60085 
L 58.32156 77.9133 
L 64.076324 71.001354 
L 64.898433 70.357656 
L 71.475307 69.041094 
L 83.806945 60.667054 
L 109.29233 53.858562 
L 133.955606 47.985567 
L 168.484192 50.699093 
L 211.23387 56.099118 
L 280.291043 60.86968 
L 350.992434 70.112651 
L 400.318986 74.827446 
L 448.823429 81.7916 
L 448.823429 81.7916 
" clip-path="url(#pea24bf1f36)" style="fill: none; stroke: #222831; stroke-width: 2.6; stroke-linecap: square"/>
   </g>
   <g id="patch_5">
    <path d="M 167.512512 64.335276 
Q 151.551932 56.590653 137.200745 49.626963 
" style="fill: none; stroke: #d1242f; stroke-width: 1.6; stroke-linecap: round"/>
    <path d="M 140.198907 53.527095 
L 137.200745 49.626963 
L 142.119747 49.568512 
" style="fill: none; stroke: #d1242f; stroke-width: 1.6; stroke-linecap: round"/>
   </g>
   <g id="text_13">
    <!-- $^{56}$Fe（鐵） -->
    <g style="fill: #d1242f" transform="translate(169.101367 76.89) scale(0.11 -0.11)">
     <defs>
      <path id="Cmr10-78" d="M 556 728 
Q 622 541 758 387 
Q 894 234 1080 148 
Q 1266 63 1466 63 
Q 1928 63 2103 422 
Q 2278 781 2278 1294 
Q 2278 1516 2270 1667 
Q 2263 1819 2228 1959 
Q 2169 2184 2020 2353 
Q 1872 2522 1656 2522 
Q 1441 2522 1286 2456 
Q 1131 2391 1034 2303 
Q 938 2216 863 2119 
Q 788 2022 769 2016 
L 697 2016 
Q 681 2016 657 2036 
Q 634 2056 634 2075 
L 634 4213 
Q 634 4228 654 4245 
Q 675 4263 697 4263 
L 716 4263 
Q 1147 4056 1631 4056 
Q 2106 4056 2547 4263 
L 2566 4263 
Q 2588 4263 2606 4247 
Q 2625 4231 2625 4213 
L 2625 4153 
Q 2625 4122 2613 4122 
Q 2394 3831 2064 3668 
Q 1734 3506 1381 3506 
Q 1125 3506 856 3578 
L 856 2369 
Q 1069 2541 1236 2614 
Q 1403 2688 1663 2688 
Q 2016 2688 2295 2484 
Q 2575 2281 2725 1954 
Q 2875 1628 2875 1288 
Q 2875 903 2686 575 
Q 2497 247 2172 53 
Q 1847 -141 1466 -141 
Q 1150 -141 886 21 
Q 622 184 470 459 
Q 319 734 319 1044 
Q 319 1188 412 1278 
Q 506 1369 647 1369 
Q 788 1369 883 1276 
Q 978 1184 978 1044 
Q 978 906 883 811 
Q 788 716 647 716 
Q 625 716 597 720 
Q 569 725 556 728 
z
" transform="scale(0.015625)"/>
      <path id="Cmr10-45" d="M 1600 -141 
Q 1203 -141 937 70 
Q 672 281 526 617 
Q 381 953 325 1322 
Q 269 1691 269 2069 
Q 269 2575 466 3084 
Q 663 3594 1045 3928 
Q 1428 4263 1953 4263 
Q 2172 4263 2361 4180 
Q 2550 4097 2658 3936 
Q 2766 3775 2766 3547 
Q 2766 3416 2677 3327 
Q 2588 3238 2456 3238 
Q 2331 3238 2240 3328 
Q 2150 3419 2150 3547 
Q 2150 3672 2240 3762 
Q 2331 3853 2456 3853 
L 2491 3853 
Q 2409 3969 2261 4023 
Q 2113 4078 1953 4078 
Q 1759 4078 1595 3993 
Q 1431 3909 1300 3765 
Q 1169 3622 1081 3448 
Q 994 3275 945 3053 
Q 897 2831 884 2637 
Q 872 2444 872 2150 
Q 984 2413 1190 2580 
Q 1397 2747 1656 2747 
Q 1941 2747 2175 2631 
Q 2409 2516 2578 2311 
Q 2747 2106 2836 1843 
Q 2925 1581 2925 1313 
Q 2925 938 2758 598 
Q 2591 259 2287 59 
Q 1984 -141 1600 -141 
z
M 1600 63 
Q 1847 63 1997 175 
Q 2147 288 2217 473 
Q 2288 659 2305 848 
Q 2322 1038 2322 1313 
Q 2322 1675 2287 1931 
Q 2253 2188 2100 2383 
Q 1947 2578 1631 2578 
Q 1372 2578 1205 2403 
Q 1038 2228 961 1961 
Q 884 1694 884 1447 
Q 884 1363 891 1319 
Q 891 1309 889 1303 
Q 888 1297 884 1288 
Q 884 1013 940 731 
Q 997 450 1156 256 
Q 1316 63 1600 63 
z
" transform="scale(0.015625)"/>
      <path id="NotoSansCJKjp-Regular-27" d="M 646 0 
L 1235 0 
L 1235 2106 
L 3027 2106 
L 3027 2605 
L 1235 2605 
L 1235 4192 
L 3347 4192 
L 3347 4691 
L 646 4691 
L 646 0 
z
" transform="scale(0.015625)"/>
      <path id="NotoSansCJKjp-Regular-a5b8" d="M 2912 2848 
L 3974 2848 
L 3974 2317 
L 2912 2317 
L 2912 2848 
z
M 2541 3174 
L 2541 1997 
L 4358 1997 
L 4358 3174 
L 2541 3174 
z
M 5197 5088 
C 5434 4768 5670 4339 5766 4058 
L 6144 4243 
C 6042 4518 5792 4941 5549 5248 
L 5197 5088 
z
M 422 1862 
C 538 1472 627 973 634 640 
L 966 717 
C 947 1043 858 1542 736 1933 
L 422 1862 
z
M 2003 2003 
C 1958 1670 1850 1158 1760 845 
L 2054 774 
C 2150 1075 2240 1536 2330 1926 
L 2003 2003 
z
M 1242 5376 
C 1037 4858 659 4205 109 3712 
C 198 3648 339 3514 403 3418 
L 576 3584 
L 576 3379 
L 1203 3379 
L 1203 2707 
L 320 2707 
L 320 2291 
L 1203 2291 
L 1203 288 
L 250 109 
L 352 -314 
L 2285 83 
L 2330 -205 
C 2778 -166 3328 -109 3904 -45 
L 3686 -205 
C 3782 -282 3949 -442 4013 -518 
C 4346 -269 4646 26 4915 365 
C 5075 -218 5306 -518 5632 -518 
C 6003 -512 6157 -333 6221 646 
C 6112 685 5971 787 5882 877 
C 5850 141 5792 -64 5670 -64 
C 5504 -64 5350 230 5242 832 
C 5587 1395 5856 2048 6048 2778 
L 5632 2867 
C 5510 2381 5344 1926 5139 1517 
C 5082 2035 5043 2682 5018 3469 
L 6150 3469 
L 6150 3866 
L 5011 3866 
C 5005 4326 4998 4832 5005 5376 
L 4544 5376 
L 4570 3866 
L 3674 3866 
L 3674 4416 
L 4358 4416 
L 4358 4800 
L 3674 4800 
L 3674 5376 
L 3238 5376 
L 3238 4800 
L 2534 4800 
L 2534 4416 
L 3238 4416 
L 3238 3866 
L 2298 3866 
L 2298 3469 
L 4582 3469 
C 4621 2413 4685 1562 4794 922 
C 4653 717 4506 525 4339 352 
L 3654 288 
L 3654 698 
L 4346 698 
L 4346 1011 
L 3654 1011 
L 3654 1370 
L 4422 1370 
L 4422 1702 
L 2464 1702 
L 2464 1370 
L 3238 1370 
L 3238 1011 
L 2566 1011 
L 2566 698 
L 3238 698 
L 3238 256 
L 2464 186 
L 2438 538 
L 1600 365 
L 1600 2291 
L 2362 2291 
L 2362 2707 
L 1600 2707 
L 1600 3379 
L 2240 3379 
L 2240 3782 
L 755 3782 
C 1082 4166 1331 4570 1510 4915 
C 1798 4589 2106 4141 2259 3866 
L 2579 4211 
C 2387 4538 1978 5024 1638 5376 
L 1242 5376 
z
" transform="scale(0.015625)"/>
     </defs>
     <use xlink:href="#Cmr10-78" transform="translate(4.004291 41.373437) scale(0.7)"/>
     <use xlink:href="#Cmr10-45" transform="translate(39.004291 41.373437) scale(0.7)"/>
     <use xlink:href="#NotoSansCJKjp-Regular-27" transform="translate(79.724706 0.084203)"/>
     <use xlink:href="#NotoSansCJKjp-Regular-46" transform="translate(134.924657 0.084203)"/>
     <use xlink:href="#NotoSansCJKjp-Regular-e6ae" transform="translate(190.324606 0.084203)"/>
     <use xlink:href="#NotoSansCJKjp-Regular-a5b8" transform="translate(290.324514 0.084203)"/>
     <use xlink:href="#NotoSansCJKjp-Regular-e6af" transform="translate(390.324423 0.084203)"/>
    </g>
    <!-- 最穩定·峰頂 -->
    <g style="fill: #d1242f" transform="translate(165.521211 87.89) scale(0.11 -0.11)">
     <defs>
      <path id="NotoSansCJKjp-Regular-50c3" d="M 1600 4064 
L 4813 4064 
L 4813 3610 
L 1600 3610 
L 1600 4064 
z
M 1600 4832 
L 4813 4832 
L 4813 4384 
L 1600 4384 
L 1600 4832 
z
M 1139 5171 
L 1139 3270 
L 5293 3270 
L 5293 5171 
L 1139 5171 
z
M 2534 2509 
L 2534 2074 
L 1370 2074 
L 1370 2509 
L 2534 2509 
z
M 314 282 
L 358 -147 
L 2534 115 
L 2534 -512 
L 2995 -512 
L 2995 -109 
C 3091 -198 3200 -365 3251 -474 
C 3699 -320 4141 -96 4531 205 
C 4909 -115 5363 -358 5875 -506 
C 5939 -397 6061 -218 6163 -134 
C 5664 -6 5229 205 4858 486 
C 5280 883 5613 1389 5811 2010 
L 5517 2131 
L 5434 2112 
L 3219 2112 
L 3219 1722 
L 3776 1722 
L 3501 1638 
C 3674 1216 3910 832 4205 512 
C 3840 237 3418 32 2995 -90 
L 2995 2509 
L 6016 2509 
L 6016 2912 
L 371 2912 
L 371 2509 
L 928 2509 
L 928 339 
L 314 282 
z
M 3898 1722 
L 5222 1722 
C 5056 1363 4813 1050 4531 781 
C 4262 1050 4045 1370 3898 1722 
z
M 2534 1709 
L 2534 1261 
L 1370 1261 
L 1370 1709 
L 2534 1709 
z
M 2534 902 
L 2534 518 
L 1370 384 
L 1370 902 
L 2534 902 
z
" transform="scale(0.015625)"/>
      <path id="NotoSansCJKjp-Regular-72b7" d="M 3232 806 
L 3232 26 
C 3232 -390 3354 -493 3878 -493 
C 3987 -493 4672 -493 4781 -493 
C 5158 -493 5280 -371 5325 109 
C 5210 134 5037 198 4947 256 
C 4928 -83 4896 -128 4730 -128 
C 4582 -128 4032 -128 3923 -128 
C 3693 -128 3654 -102 3654 26 
L 3654 806 
L 3232 806 
z
M 2643 781 
C 2547 429 2355 -13 2125 -269 
L 2496 -454 
C 2739 -173 2899 275 3014 640 
L 2643 781 
z
M 5056 678 
C 5376 352 5702 -109 5830 -422 
L 6214 -224 
C 6067 90 5741 538 5408 851 
L 5056 678 
z
M 3840 4672 
C 3910 4480 3968 4224 3981 4058 
L 4378 4147 
C 4358 4314 4288 4563 4211 4749 
L 3840 4672 
z
M 5011 4774 
C 5299 4486 5613 4064 5747 3789 
L 6099 3994 
C 5952 4269 5645 4659 5338 4954 
L 5011 4774 
z
M 2522 3328 
L 2522 2995 
L 5997 2995 
L 5997 3328 
L 4435 3328 
L 4435 3699 
L 5440 3699 
L 5440 4026 
L 2989 4026 
L 2989 3699 
L 3981 3699 
L 3981 3328 
L 2522 3328 
z
M 3654 941 
C 3930 800 4256 544 4416 358 
L 4691 621 
C 4550 768 4294 960 4058 1101 
L 5606 1101 
L 5606 1754 
L 6118 1754 
L 6118 2099 
L 5606 2099 
L 5606 2714 
L 2771 2714 
L 2771 2394 
L 5178 2394 
L 5178 2067 
L 2419 2067 
L 2419 1773 
L 5178 1773 
L 5178 1414 
L 2746 1414 
L 2746 1101 
L 3834 1101 
L 3654 941 
z
M 2810 5133 
C 2675 4691 2458 4243 2189 3930 
C 2291 3885 2477 3770 2560 3706 
C 2771 3968 2976 4339 3123 4730 
C 4013 4774 5030 4883 5734 5043 
L 5389 5338 
C 4870 5222 3962 5114 3142 5050 
L 2810 5133 
z
M 2010 5254 
C 1613 5062 890 4896 262 4800 
C 320 4698 384 4544 403 4448 
C 646 4480 902 4518 1152 4570 
L 1152 3539 
L 294 3539 
L 294 3098 
L 1094 3098 
C 883 2374 506 1530 160 1062 
C 237 947 352 762 403 627 
C 672 998 934 1594 1152 2195 
L 1152 -512 
L 1600 -512 
L 1600 2406 
C 1792 2138 2016 1792 2106 1606 
L 2381 1965 
C 2266 2118 1754 2726 1600 2899 
L 1600 3098 
L 2304 3098 
L 2304 3539 
L 1600 3539 
L 1600 4666 
C 1875 4736 2131 4819 2349 4909 
L 2010 5254 
z
" transform="scale(0.015625)"/>
      <path id="NotoSansCJKjp-Regular-3c8a" d="M 1421 2413 
C 1286 1248 934 333 224 -218 
C 339 -294 538 -461 621 -544 
C 1037 -179 1350 307 1574 896 
C 2163 -198 3117 -422 4454 -422 
L 5952 -422 
C 5971 -282 6061 -51 6131 64 
C 5818 58 4717 58 4480 58 
C 4109 58 3757 77 3443 134 
L 3443 1440 
L 5350 1440 
L 5350 1888 
L 3443 1888 
L 3443 2957 
L 5088 2957 
L 5088 3418 
L 1350 3418 
L 1350 2957 
L 2944 2957 
L 2944 269 
C 2419 461 2016 832 1760 1504 
C 1824 1766 1882 2054 1920 2355 
L 1421 2413 
z
M 525 4640 
L 525 3245 
L 998 3245 
L 998 4186 
L 5382 4186 
L 5382 3245 
L 5875 3245 
L 5875 4640 
L 3443 4640 
L 3443 5376 
L 2938 5376 
L 2938 4640 
L 525 4640 
z
" transform="scale(0.015625)"/>
      <path id="NotoSansCJKjp-Regular-75" d="M 1766 1875 
C 1997 1875 2195 2067 2195 2323 
C 2195 2592 1997 2778 1766 2778 
C 1536 2778 1350 2592 1350 2323 
C 1350 2067 1536 1875 1766 1875 
z
" transform="scale(0.015625)"/>
      <path id="NotoSansCJKjp-Regular-3f08" d="M 1210 5306 
L 1210 1222 
L 819 1222 
L 819 4096 
L 454 4096 
L 454 173 
L 819 173 
L 819 819 
L 2016 819 
L 2016 429 
L 2362 429 
L 2362 4096 
L 2016 4096 
L 2016 1222 
L 1606 1222 
L 1606 5306 
L 1210 5306 
z
M 2957 1491 
L 2957 1126 
L 4102 1126 
L 4102 666 
L 2605 666 
L 2605 282 
L 4102 282 
L 4102 -512 
L 4531 -512 
L 4531 282 
L 6054 282 
L 6054 666 
L 4531 666 
L 4531 1126 
L 5696 1126 
L 5696 1491 
L 4531 1491 
L 4531 1901 
L 5773 1901 
L 5773 2278 
L 4531 2278 
L 4531 2810 
L 4102 2810 
L 4102 2278 
L 2899 2278 
L 2899 1901 
L 4102 1901 
L 4102 1491 
L 2957 1491 
z
M 3795 5376 
C 3514 4781 3014 4237 2470 3878 
C 2566 3808 2733 3674 2797 3603 
C 3027 3770 3251 3974 3462 4205 
C 3622 3955 3821 3725 4045 3514 
C 3558 3174 2982 2925 2419 2778 
C 2496 2688 2605 2528 2662 2419 
C 3251 2598 3853 2867 4371 3245 
C 4826 2899 5363 2637 5946 2483 
C 6010 2598 6138 2771 6234 2867 
C 5670 2989 5139 3213 4698 3507 
C 5082 3846 5402 4256 5613 4736 
L 5325 4877 
L 5248 4858 
L 3968 4858 
C 4051 4992 4128 5133 4198 5274 
L 3795 5376 
z
M 4365 3757 
C 4102 3974 3885 4224 3725 4486 
L 5005 4486 
C 4838 4218 4614 3974 4365 3757 
z
" transform="scale(0.015625)"/>
      <path id="NotoSansCJKjp-Regular-abbc" d="M 3302 2694 
L 5434 2694 
L 5434 2074 
L 3302 2074 
L 3302 2694 
z
M 3302 1715 
L 5434 1715 
L 5434 1082 
L 3302 1082 
L 3302 1715 
z
M 3302 3667 
L 5434 3667 
L 5434 3053 
L 3302 3053 
L 3302 3667 
z
M 3552 602 
C 3232 326 2579 13 2035 -166 
C 2131 -256 2266 -410 2336 -506 
C 2893 -320 3558 13 3968 339 
L 3552 602 
z
M 4602 314 
C 5043 77 5600 -282 5869 -525 
L 6253 -230 
C 5958 13 5395 358 4966 576 
L 4602 314 
z
M 250 4960 
L 250 4506 
L 1280 4506 
L 1280 294 
C 1280 198 1242 166 1139 160 
C 1037 154 691 154 320 166 
C 390 32 454 -173 474 -301 
C 979 -307 1299 -294 1491 -218 
C 1677 -134 1747 0 1747 294 
L 1747 4506 
L 2534 4506 
L 2534 4960 
L 250 4960 
z
M 2848 4038 
L 2848 710 
L 5907 710 
L 5907 4038 
L 4390 4038 
L 4602 4659 
L 6138 4659 
L 6138 5075 
L 2637 5075 
L 2637 4659 
L 4058 4659 
C 4019 4454 3962 4230 3910 4038 
L 2848 4038 
z
" transform="scale(0.015625)"/>
     </defs>
     <use xlink:href="#NotoSansCJKjp-Regular-50c3"/>
     <use xlink:href="#NotoSansCJKjp-Regular-72b7" transform="translate(100 0)"/>
     <use xlink:href="#NotoSansCJKjp-Regular-3c8a" transform="translate(200 0)"/>
     <use xlink:href="#NotoSansCJKjp-Regular-75" transform="translate(300 0)"/>
     <use xlink:href="#NotoSansCJKjp-Regular-3f08" transform="translate(356.09375 0)"/>
     <use xlink:href="#NotoSansCJKjp-Regular-abbc" transform="translate(456.09375 0)"/>
    </g>
   </g>
   <g id="text_14">
    <!-- 輕核融合 -->
    <g style="fill: #1f6feb" transform="translate(41.187347 196.064) scale(0.11 -0.11)">
     <defs>
      <path id="NotoSansCJKjp-Regular-9b4c" d="M 2893 5062 
L 2893 4646 
L 6074 4646 
L 6074 5062 
L 2893 5062 
z
M 3405 4435 
C 3277 4122 3014 3629 2784 3238 
C 3085 2784 3354 2278 3488 1939 
L 3878 2106 
C 3750 2400 3488 2861 3226 3245 
C 3424 3578 3648 3994 3808 4333 
L 3405 4435 
z
M 4448 4435 
C 4314 4122 4051 3635 3808 3245 
C 4128 2790 4422 2291 4557 1952 
L 4947 2118 
C 4813 2413 4531 2867 4256 3251 
C 4454 3584 4698 3994 4858 4333 
L 4448 4435 
z
M 5542 4435 
C 5395 4122 5120 3629 4858 3238 
C 5203 2784 5517 2278 5670 1939 
L 6054 2112 
C 5907 2406 5606 2867 5318 3245 
C 5530 3578 5779 3987 5958 4326 
L 5542 4435 
z
M 2650 64 
L 2650 -352 
L 6157 -352 
L 6157 64 
L 4672 64 
L 4672 1318 
L 5952 1318 
L 5952 1734 
L 3008 1734 
L 3008 1318 
L 4192 1318 
L 4192 64 
L 2650 64 
z
M 448 3782 
L 448 1555 
L 1331 1555 
L 1331 1030 
L 243 1030 
L 243 608 
L 1331 608 
L 1331 -518 
L 1741 -518 
L 1741 608 
L 2784 608 
L 2784 1030 
L 1741 1030 
L 1741 1555 
L 2643 1555 
L 2643 3782 
L 1734 3782 
L 1734 4256 
L 2726 4256 
L 2726 4678 
L 1734 4678 
L 1734 5376 
L 1325 5376 
L 1325 4678 
L 333 4678 
L 333 4256 
L 1325 4256 
L 1325 3782 
L 448 3782 
z
M 806 2502 
L 1363 2502 
L 1363 1914 
L 806 1914 
L 806 2502 
z
M 1702 2502 
L 2272 2502 
L 2272 1914 
L 1702 1914 
L 1702 2502 
z
M 806 3424 
L 1363 3424 
L 1363 2848 
L 806 2848 
L 806 3424 
z
M 1702 3424 
L 2272 3424 
L 2272 2848 
L 1702 2848 
L 1702 3424 
z
" transform="scale(0.015625)"/>
      <path id="NotoSansCJKjp-Regular-8e04" d="M 1139 3974 
L 2624 3974 
L 2624 3360 
L 1139 3360 
L 1139 3974 
z
M 723 4320 
L 723 3014 
L 3066 3014 
L 3066 4320 
L 723 4320 
z
M 384 5094 
L 384 4685 
L 3398 4685 
L 3398 5094 
L 384 5094 
z
M 3603 4102 
L 3603 1677 
L 4518 1677 
L 4518 224 
L 3430 58 
L 3546 -403 
L 5683 -13 
C 5728 -198 5760 -371 5779 -518 
L 6182 -403 
C 6118 51 5875 781 5606 1331 
L 5235 1235 
C 5357 979 5472 678 5562 390 
L 4947 288 
L 4947 1677 
L 5926 1677 
L 5926 4102 
L 4947 4102 
L 4947 5331 
L 4518 5331 
L 4518 4102 
L 3603 4102 
z
M 1120 1146 
L 1120 800 
L 1683 800 
L 1683 -333 
L 2048 -333 
L 2048 800 
L 2650 800 
L 2650 1146 
L 1120 1146 
z
M 3994 3686 
L 4544 3686 
L 4544 2106 
L 3994 2106 
L 3994 3686 
z
M 4922 3686 
L 5510 3686 
L 5510 2106 
L 4922 2106 
L 4922 3686 
z
M 2912 2285 
L 2912 1728 
C 2893 1702 2880 1696 2797 1696 
C 2739 1696 2528 1696 2490 1696 
C 2394 1696 2381 1702 2381 1798 
L 2381 2285 
L 2912 2285 
z
M 454 2650 
L 454 -499 
L 838 -499 
L 838 2285 
L 1363 2285 
L 1363 2266 
C 1363 2003 1312 1626 845 1389 
C 922 1344 1043 1242 1101 1171 
C 1606 1472 1670 1901 1670 2253 
L 1670 2285 
L 2067 2285 
L 2067 1792 
C 2067 1466 2144 1395 2458 1395 
C 2509 1395 2797 1395 2861 1395 
L 2912 1395 
L 2912 -45 
C 2912 -109 2893 -128 2829 -128 
C 2758 -134 2547 -134 2298 -128 
C 2349 -237 2400 -397 2413 -499 
C 2765 -499 2989 -493 3130 -435 
C 3277 -365 3309 -256 3309 -45 
L 3309 2650 
L 454 2650 
z
" transform="scale(0.015625)"/>
      <path id="NotoSansCJKjp-Regular-2eac" d="M 1587 3283 
L 1587 2854 
L 4819 2854 
L 4819 3283 
L 1587 3283 
z
M 3187 4890 
C 3789 4070 4915 3168 5914 2637 
C 5997 2778 6118 2944 6234 3066 
C 5216 3520 4090 4410 3405 5363 
L 2912 5363 
C 2413 4531 1338 3552 218 2982 
C 320 2880 454 2714 518 2605 
C 1613 3194 2656 4109 3187 4890 
z
M 1254 2048 
L 1254 -518 
L 1728 -518 
L 1728 -250 
L 4685 -250 
L 4685 -518 
L 5171 -518 
L 5171 2048 
L 1254 2048 
z
M 1728 179 
L 1728 1613 
L 4685 1613 
L 4685 179 
L 1728 179 
z
" transform="scale(0.015625)"/>
     </defs>
     <use xlink:href="#NotoSansCJKjp-Regular-9b4c"/>
     <use xlink:href="#NotoSansCJKjp-Regular-52ac" transform="translate(100 0)"/>
     <use xlink:href="#NotoSansCJKjp-Regular-8e04" transform="translate(200 0)"/>
     <use xlink:href="#NotoSansCJKjp-Regular-2eac" transform="translate(300 0)"/>
    </g>
    <!-- （往峰頂爬→釋能） -->
    <g style="fill: #1f6feb" transform="translate(41.187347 207.064) scale(0.11 -0.11)">
     <defs>
      <path id="NotoSansCJKjp-Regular-43e1" d="M 3162 5056 
C 3667 4800 4282 4384 4576 4090 
L 4934 4442 
C 4621 4742 3994 5133 3494 5376 
L 3162 5056 
z
M 1651 5370 
C 1357 4902 762 4352 230 4006 
C 307 3910 435 3718 486 3616 
C 1082 4000 1715 4621 2106 5190 
L 1651 5370 
z
M 2086 160 
L 2086 -301 
L 6150 -301 
L 6150 160 
L 4403 160 
L 4403 1715 
L 5811 1715 
L 5811 2170 
L 4403 2170 
L 4403 3616 
L 5926 3616 
L 5926 4070 
L 2426 4070 
L 2426 3616 
L 3898 3616 
L 3898 2170 
L 2522 2170 
L 2522 1715 
L 3898 1715 
L 3898 160 
L 2086 160 
z
M 1862 4070 
C 1453 3379 781 2688 147 2246 
C 230 2150 371 1914 422 1805 
C 678 1997 934 2234 1190 2490 
L 1190 -512 
L 1658 -512 
L 1658 3002 
C 1901 3290 2118 3597 2298 3898 
L 1862 4070 
z
" transform="scale(0.015625)"/>
      <path id="NotoSansCJKjp-Regular-648b" d="M 1664 4365 
L 1664 -269 
L 2054 -269 
L 2054 4365 
L 1664 4365 
z
M 691 4883 
L 691 2643 
C 691 1766 653 621 237 -237 
C 352 -288 518 -435 576 -531 
C 1050 416 1114 1722 1114 2637 
L 1114 4422 
C 1587 4518 2093 4634 2560 4774 
C 2528 1344 2854 -141 5952 -525 
C 5990 -397 6099 -192 6189 -90 
C 3162 211 2938 1638 2976 4902 
C 3117 4954 3251 5005 3379 5056 
L 3008 5357 
C 2560 5152 1779 4934 1056 4768 
L 691 4883 
z
M 4538 4454 
L 4538 3091 
L 3942 3091 
L 3942 4454 
L 4538 4454 
z
M 4909 4454 
L 5510 4454 
L 5510 3091 
L 4909 3091 
L 4909 4454 
z
M 3520 4858 
L 3520 1581 
C 3520 1011 3686 870 4269 870 
C 4397 870 5293 870 5427 870 
C 5933 870 6067 1101 6125 1856 
C 6003 1882 5824 1952 5722 2029 
C 5696 1414 5651 1293 5402 1293 
C 5210 1293 4448 1293 4307 1293 
C 3994 1293 3942 1344 3942 1587 
L 3942 2688 
L 5926 2688 
L 5926 4858 
L 3520 4858 
z
" transform="scale(0.015625)"/>
      <path id="NotoSansCJKjp-Regular-31c" d="M 5190 2650 
L 256 2650 
L 256 2214 
L 5190 2214 
C 4864 1965 4442 1562 4154 1165 
L 4538 941 
C 4966 1504 5606 2067 6176 2432 
C 5606 2797 4966 3360 4538 3923 
L 4154 3699 
C 4442 3302 4864 2899 5190 2650 
z
" transform="scale(0.015625)"/>
      <path id="NotoSansCJKjp-Regular-a103" d="M 429 4307 
C 550 3955 678 3488 710 3187 
L 1075 3309 
C 1030 3610 902 4064 774 4416 
L 429 4307 
z
M 2298 4550 
C 2221 4173 2067 3622 1933 3283 
L 2246 3149 
C 2387 3462 2554 3974 2707 4384 
L 2298 4550 
z
M 4979 4794 
L 5523 4794 
L 5523 4083 
L 4979 4083 
L 4979 4794 
z
M 4109 4794 
L 4640 4794 
L 4640 4083 
L 4109 4083 
L 4109 4794 
z
M 3258 4794 
L 3770 4794 
L 3770 4083 
L 3258 4083 
L 3258 4794 
z
M 2355 5357 
C 1875 5184 998 5024 262 4941 
C 314 4845 371 4691 390 4595 
C 691 4627 1011 4666 1325 4717 
L 1325 3021 
L 262 3021 
L 262 2618 
L 1184 2618 
C 966 1920 563 1094 211 640 
C 288 531 403 346 448 218 
C 755 634 1082 1325 1325 1997 
L 1325 -518 
L 1741 -518 
L 1741 1830 
C 1978 1587 2266 1280 2394 1114 
L 2656 1459 
C 2509 1600 1952 2118 1741 2291 
L 1741 2618 
L 2720 2618 
L 2720 3021 
L 1741 3021 
L 1741 4794 
C 2086 4858 2413 4941 2682 5037 
L 2355 5357 
z
M 2861 5139 
L 2861 3731 
L 4154 3731 
L 4154 3360 
L 3059 3360 
L 3059 3002 
L 4154 3002 
L 4154 2579 
L 2656 2579 
L 2656 2234 
L 3539 2234 
L 3315 2138 
C 3424 1939 3533 1683 3590 1485 
L 2778 1485 
L 2778 1126 
L 4154 1126 
L 4154 691 
L 2912 691 
L 2912 333 
L 4154 333 
L 4154 -531 
L 4602 -531 
L 4602 333 
L 5888 333 
L 5888 691 
L 4602 691 
L 4602 1126 
L 6022 1126 
L 6022 1485 
L 5101 1485 
C 5222 1677 5350 1914 5478 2144 
L 5261 2234 
L 6138 2234 
L 6138 2579 
L 4602 2579 
L 4602 3002 
L 5741 3002 
L 5741 3360 
L 4602 3360 
L 4602 3731 
L 5939 3731 
L 5939 5139 
L 2861 5139 
z
M 3667 2234 
L 5069 2234 
C 4986 2022 4858 1734 4755 1549 
L 4890 1485 
L 3821 1485 
L 3968 1555 
C 3923 1741 3802 2016 3667 2234 
z
" transform="scale(0.015625)"/>
     </defs>
     <use xlink:href="#NotoSansCJKjp-Regular-e6ae"/>
     <use xlink:href="#NotoSansCJKjp-Regular-43e1" transform="translate(100 0)"/>
     <use xlink:href="#NotoSansCJKjp-Regular-3f08" transform="translate(200 0)"/>
     <use xlink:href="#NotoSansCJKjp-Regular-abbc" transform="translate(300 0)"/>
     <use xlink:href="#NotoSansCJKjp-Regular-648b" transform="translate(400 0)"/>
     <use xlink:href="#NotoSansCJKjp-Regular-31c" transform="translate(500 0)"/>
     <use xlink:href="#NotoSansCJKjp-Regular-a103" transform="translate(600 0)"/>
     <use xlink:href="#NotoSansCJKjp-Regular-8006" transform="translate(700 0)"/>
     <use xlink:href="#NotoSansCJKjp-Regular-e6af" transform="translate(800 0)"/>
    </g>
   </g>
   <g id="text_15">
    <!-- 重核分裂 -->
    <g style="fill: #1a7f37" transform="translate(319.505224 108.746) scale(0.11 -0.11)">
     <defs>
      <path id="NotoSansCJKjp-Regular-a106" d="M 1018 3456 
L 1018 1466 
L 2938 1466 
L 2938 1024 
L 813 1024 
L 813 640 
L 2938 640 
L 2938 83 
L 333 83 
L 333 -307 
L 6074 -307 
L 6074 83 
L 3418 83 
L 3418 640 
L 5670 640 
L 5670 1024 
L 3418 1024 
L 3418 1466 
L 5427 1466 
L 5427 3456 
L 3418 3456 
L 3418 3846 
L 6042 3846 
L 6042 4243 
L 3418 4243 
L 3418 4736 
C 4166 4794 4870 4870 5421 4966 
L 5165 5338 
C 4154 5158 2342 5037 851 4998 
C 896 4902 947 4730 954 4621 
C 1581 4634 2266 4659 2938 4698 
L 2938 4243 
L 371 4243 
L 371 3846 
L 2938 3846 
L 2938 3456 
L 1018 3456 
z
M 1485 2304 
L 2938 2304 
L 2938 1818 
L 1485 1818 
L 1485 2304 
z
M 3418 2304 
L 4941 2304 
L 4941 1818 
L 3418 1818 
L 3418 2304 
z
M 1485 3110 
L 2938 3110 
L 2938 2630 
L 1485 2630 
L 1485 3110 
z
M 3418 3110 
L 4941 3110 
L 4941 2630 
L 3418 2630 
L 3418 3110 
z
" transform="scale(0.015625)"/>
      <path id="NotoSansCJKjp-Regular-2b86" d="M 2074 5248 
C 1677 4256 966 3373 147 2829 
C 262 2739 474 2554 563 2451 
C 1363 3059 2118 4019 2586 5101 
L 2074 5248 
z
M 4307 5261 
L 3846 5075 
C 4326 4122 5139 3085 5850 2509 
C 5939 2643 6118 2829 6253 2931 
C 5549 3424 4723 4397 4307 5261 
z
M 1197 2957 
L 1197 2490 
L 2509 2490 
C 2368 1402 2010 378 486 -122 
C 595 -224 736 -416 800 -544 
C 2445 51 2854 1216 3027 2490 
L 4685 2490 
C 4608 864 4512 224 4346 58 
C 4282 -6 4205 -26 4077 -26 
C 3923 -26 3533 -19 3110 19 
C 3200 -115 3258 -320 3270 -461 
C 3674 -486 4070 -493 4288 -474 
C 4506 -454 4653 -410 4781 -243 
C 5005 0 5094 736 5190 2726 
C 5197 2790 5197 2957 5197 2957 
L 1197 2957 
z
" transform="scale(0.015625)"/>
      <path id="NotoSansCJKjp-Regular-9030" d="M 3853 5082 
L 3853 3142 
L 4294 3142 
L 4294 5082 
L 3853 5082 
z
M 5363 5350 
L 5363 2867 
C 5363 2784 5338 2758 5242 2752 
C 5146 2752 4826 2746 4467 2758 
C 4531 2637 4602 2458 4627 2336 
C 5082 2336 5382 2342 5568 2413 
C 5760 2483 5818 2605 5818 2861 
L 5818 5350 
L 5363 5350 
z
M 333 2118 
L 333 1702 
L 2534 1702 
C 1926 1306 1037 986 224 832 
C 320 742 435 576 499 461 
C 909 557 1338 691 1747 864 
L 1747 90 
L 960 -32 
L 1037 -467 
C 1773 -339 2822 -160 3821 13 
L 3802 422 
L 2208 160 
L 2208 1075 
C 2566 1261 2886 1466 3142 1696 
C 3667 576 4589 -186 5875 -518 
C 5939 -390 6067 -198 6176 -102 
C 5530 38 4973 294 4518 646 
C 4915 826 5376 1094 5741 1344 
L 5370 1619 
C 5082 1402 4614 1101 4218 902 
C 3981 1139 3776 1408 3616 1702 
L 6074 1702 
L 6074 2118 
L 3430 2118 
L 3430 2810 
L 2944 2810 
L 2944 2118 
L 333 2118 
z
M 384 5184 
L 384 4819 
L 1523 4819 
C 1203 4365 698 4000 160 3750 
C 256 3686 410 3539 480 3462 
C 640 3546 800 3642 954 3750 
C 1248 3558 1581 3322 1798 3136 
C 1357 2854 832 2662 294 2560 
C 378 2470 480 2304 518 2195 
C 1734 2477 2829 3104 3277 4307 
L 2995 4429 
L 2912 4410 
L 1702 4410 
C 1818 4538 1920 4678 2010 4819 
L 3494 4819 
L 3494 5184 
L 384 5184 
z
M 2118 3373 
C 1888 3558 1549 3795 1248 3968 
L 1389 4090 
L 2707 4090 
C 2560 3814 2355 3571 2118 3373 
z
" transform="scale(0.015625)"/>
     </defs>
     <use xlink:href="#NotoSansCJKjp-Regular-a106"/>
     <use xlink:href="#NotoSansCJKjp-Regular-52ac" transform="translate(100 0)"/>
     <use xlink:href="#NotoSansCJKjp-Regular-2b86" transform="translate(200 0)"/>
     <use xlink:href="#NotoSansCJKjp-Regular-9030" transform="translate(300 0)"/>
    </g>
    <!-- （往峰頂爬→釋能） -->
    <g style="fill: #1a7f37" transform="translate(292.005224 119.746) scale(0.11 -0.11)">
     <use xlink:href="#NotoSansCJKjp-Regular-e6ae"/>
     <use xlink:href="#NotoSansCJKjp-Regular-43e1" transform="translate(100 0)"/>
     <use xlink:href="#NotoSansCJKjp-Regular-3f08" transform="translate(200 0)"/>
     <use xlink:href="#NotoSansCJKjp-Regular-abbc" transform="translate(300 0)"/>
     <use xlink:href="#NotoSansCJKjp-Regular-648b" transform="translate(400 0)"/>
     <use xlink:href="#NotoSansCJKjp-Regular-31c" transform="translate(500 0)"/>
     <use xlink:href="#NotoSansCJKjp-Regular-a103" transform="translate(600 0)"/>
     <use xlink:href="#NotoSansCJKjp-Regular-8006" transform="translate(700 0)"/>
     <use xlink:href="#NotoSansCJKjp-Regular-e6af" transform="translate(800 0)"/>
    </g>
   </g>
   <g id="text_16">
    <!-- 束縛能曲線：往「鐵峰」靠攏就會釋放能量 -->
    <g style="fill: #222831" transform="translate(115.9 19.52) scale(0.14 -0.14)">
     <defs>
      <path id="NotoSansCJKjp-Regular-50aa" d="M 3718 5312 
L 3718 4096 
L 2637 4096 
L 2637 5312 
L 2163 5312 
L 2163 4096 
L 627 4096 
L 627 -512 
L 1082 -512 
L 1082 -102 
L 5331 -102 
L 5331 -486 
L 5798 -486 
L 5798 4096 
L 4186 4096 
L 4186 5312 
L 3718 5312 
z
M 1082 365 
L 1082 1779 
L 2163 1779 
L 2163 365 
L 1082 365 
z
M 5331 365 
L 4186 365 
L 4186 1779 
L 5331 1779 
L 5331 365 
z
M 2637 365 
L 2637 1779 
L 3718 1779 
L 3718 365 
L 2637 365 
z
M 1082 2240 
L 1082 3629 
L 2163 3629 
L 2163 2240 
L 1082 2240 
z
M 5331 2240 
L 4186 2240 
L 4186 3629 
L 5331 3629 
L 5331 2240 
z
M 2637 2240 
L 2637 3629 
L 3718 3629 
L 3718 2240 
L 2637 2240 
z
" transform="scale(0.015625)"/>
      <path id="NotoSansCJKjp-Regular-7a17" d="M 3258 3405 
L 5414 3405 
L 5414 2848 
L 3258 2848 
L 3258 3405 
z
M 3258 4326 
L 5414 4326 
L 5414 3770 
L 3258 3770 
L 3258 4326 
z
M 1894 1632 
C 2048 1267 2182 781 2208 474 
L 2586 589 
C 2541 902 2406 1370 2246 1734 
L 1894 1632 
z
M 570 1715 
C 493 1158 378 582 166 192 
C 269 154 454 70 538 13 
C 736 422 890 1043 973 1651 
L 570 1715 
z
M 2816 4717 
L 2816 2451 
L 4109 2451 
L 4109 6 
C 4109 -64 4090 -83 4006 -90 
C 3930 -90 3674 -90 3386 -83 
C 3443 -211 3501 -384 3520 -506 
C 3917 -506 4173 -499 4339 -435 
C 4506 -358 4544 -237 4544 6 
L 4544 1325 
C 4819 717 5254 109 5952 -250 
C 6016 -128 6157 51 6246 141 
C 5754 358 5382 698 5114 1088 
C 5427 1306 5798 1613 6106 1894 
L 5715 2176 
C 5523 1946 5203 1645 4922 1408 
C 4742 1734 4627 2074 4544 2400 
L 4544 2451 
L 5875 2451 
L 5875 4717 
L 4365 4717 
C 4467 4890 4570 5088 4659 5280 
L 4128 5382 
C 4077 5190 3968 4934 3872 4717 
L 2816 4717 
z
M 2573 1901 
L 2573 1491 
L 3443 1491 
C 3219 826 2803 352 2291 77 
C 2381 13 2534 -154 2592 -250 
C 3226 115 3738 787 3962 1805 
L 3699 1914 
L 3622 1901 
L 2573 1901 
z
M 179 2547 
L 237 2118 
L 1248 2182 
L 1248 -512 
L 1670 -512 
L 1670 2208 
L 2176 2240 
C 2234 2086 2285 1946 2310 1824 
L 2694 2003 
C 2598 2349 2342 2906 2074 3322 
L 1722 3181 
C 1824 3014 1920 2829 2010 2637 
L 1088 2592 
C 1517 3136 2010 3866 2374 4454 
L 1971 4646 
C 1792 4301 1549 3878 1286 3475 
C 1190 3610 1075 3750 941 3898 
C 1178 4256 1459 4781 1677 5216 
L 1254 5376 
C 1120 5018 890 4531 685 4166 
L 486 4346 
L 237 4038 
C 525 3763 845 3398 1037 3104 
C 896 2912 762 2726 634 2566 
L 179 2547 
z
" transform="scale(0.015625)"/>
      <path id="NotoSansCJKjp-Regular-e6c0" d="M 3200 3482 
C 3456 3482 3686 3667 3686 3962 
C 3686 4256 3456 4442 3200 4442 
C 2944 4442 2714 4256 2714 3962 
C 2714 3667 2944 3482 3200 3482 
z
M 3200 346 
C 3456 346 3686 538 3686 826 
C 3686 1120 3456 1312 3200 1312 
C 2944 1312 2714 1120 2714 826 
C 2714 538 2944 346 3200 346 
z
" transform="scale(0.015625)"/>
      <path id="NotoSansCJKjp-Regular-580" d="M 4160 5414 
L 4160 1274 
L 4634 1274 
L 4634 4973 
L 6182 4973 
L 6182 5414 
L 4160 5414 
z
" transform="scale(0.015625)"/>
      <path id="NotoSansCJKjp-Regular-581" d="M 2240 -550 
L 2240 3590 
L 1766 3590 
L 1766 -109 
L 218 -109 
L 218 -550 
L 2240 -550 
z
" transform="scale(0.015625)"/>
      <path id="NotoSansCJKjp-Regular-aaa1" d="M 1562 3213 
L 4928 3213 
L 4928 2733 
L 1562 2733 
L 1562 3213 
z
M 2950 5376 
L 2950 4960 
L 1766 4960 
L 1920 5274 
L 1472 5338 
C 1344 5024 1101 4659 755 4371 
C 832 4339 934 4288 1018 4224 
L 429 4224 
L 429 3872 
L 2950 3872 
L 2950 3680 
L 3424 3680 
L 3424 3872 
L 5978 3872 
L 5978 4224 
L 3424 4224 
L 3424 4621 
L 5504 4621 
L 5504 4960 
L 3424 4960 
L 3424 5376 
L 2950 5376 
z
M 1235 4224 
C 1357 4352 1466 4480 1562 4621 
L 2950 4621 
L 2950 4224 
L 1235 4224 
z
M 294 602 
L 326 256 
L 2003 378 
C 1798 141 1414 -70 704 -198 
C 794 -282 922 -461 973 -557 
C 2406 -205 2694 448 2694 1114 
L 2694 2400 
L 3706 2400 
L 3706 -506 
L 4179 -506 
L 4179 326 
L 6131 326 
L 6131 666 
L 4179 666 
L 4179 1056 
L 5811 1056 
L 5811 1376 
L 4179 1376 
L 4179 1754 
L 5946 1754 
L 5946 2086 
L 4179 2086 
L 4179 2400 
L 5414 2400 
L 5414 3546 
L 1094 3546 
L 1094 2400 
L 2227 2400 
L 2227 2080 
L 474 2080 
L 474 1754 
L 2227 1754 
L 2227 1376 
L 621 1376 
L 621 1056 
L 2227 1056 
C 2221 934 2208 813 2176 691 
C 1466 659 787 621 294 602 
z
" transform="scale(0.015625)"/>
      <path id="NotoSansCJKjp-Regular-4d74" d="M 2342 4294 
C 2426 4026 2490 3680 2496 3456 
L 1997 3456 
L 1997 3053 
L 4147 3053 
L 4147 3456 
L 3597 3456 
C 3686 3686 3776 4013 3866 4314 
L 3539 4390 
L 4064 4390 
L 4064 4781 
L 3277 4781 
L 3277 5376 
L 2861 5376 
L 2861 4781 
L 2086 4781 
L 2086 4390 
L 3488 4390 
C 3443 4134 3347 3757 3270 3520 
L 3501 3456 
L 2528 3456 
L 2854 3526 
C 2842 3750 2771 4102 2682 4365 
L 2342 4294 
z
M 4282 3987 
L 4282 3622 
L 5555 3622 
L 5555 3021 
L 4282 3021 
L 4282 147 
C 4282 -365 4410 -486 4883 -486 
C 4986 -486 5549 -486 5651 -486 
C 6016 -486 6144 -326 6195 237 
C 6074 262 5894 339 5805 410 
C 5786 6 5760 -70 5606 -70 
C 5498 -70 5030 -70 4941 -70 
C 4749 -70 4717 -38 4717 147 
L 4717 512 
L 6003 512 
L 6003 851 
L 4717 851 
L 4717 1235 
L 5862 1235 
L 5862 1562 
L 4717 1562 
L 4717 1952 
L 5933 1952 
L 5933 2272 
L 4717 2272 
L 4717 2650 
L 5984 2650 
L 5984 3987 
L 4717 3987 
L 4717 4454 
L 6150 4454 
L 6150 4851 
L 4717 4851 
L 4717 5376 
L 4282 5376 
L 4282 3987 
z
M 2650 1485 
L 3526 1485 
L 3526 1018 
L 2650 1018 
L 2650 1485 
z
M 2650 1837 
L 2650 2304 
L 3526 2304 
L 3526 1837 
L 2650 1837 
z
M 2253 2669 
L 2253 -512 
L 2650 -512 
L 2650 678 
L 3526 678 
L 3526 -64 
C 3526 -128 3507 -147 3443 -147 
C 3386 -147 3194 -147 2970 -141 
C 3027 -250 3091 -416 3110 -531 
C 3424 -531 3622 -525 3757 -454 
C 3891 -384 3930 -262 3930 -70 
L 3930 2669 
L 2253 2669 
z
M 1018 5376 
L 1018 4083 
L 269 4083 
L 269 3635 
L 1018 3635 
L 1018 2355 
C 698 2253 410 2163 173 2093 
L 301 1626 
L 1018 1875 
L 1018 26 
C 1018 -64 986 -90 909 -90 
C 832 -96 589 -96 320 -90 
C 378 -211 435 -403 461 -512 
C 845 -512 1082 -499 1229 -429 
C 1382 -352 1440 -230 1440 26 
L 1440 2022 
L 2074 2240 
L 2003 2682 
L 1440 2496 
L 1440 3635 
L 1971 3635 
L 1971 4083 
L 1440 4083 
L 1440 5376 
L 1018 5376 
z
" transform="scale(0.015625)"/>
      <path id="NotoSansCJKjp-Regular-3da8" d="M 1126 3206 
L 2624 3206 
L 2624 2349 
L 1126 2349 
L 1126 3206 
z
M 800 1594 
C 685 1088 480 582 211 237 
C 314 179 499 38 576 -38 
C 864 346 1107 928 1248 1504 
L 800 1594 
z
M 2451 1510 
C 2630 1171 2822 717 2899 416 
L 3296 570 
C 3219 864 3034 1312 2835 1651 
L 2451 1510 
z
M 4928 4998 
C 5242 4685 5542 4243 5664 3930 
L 6067 4134 
C 5933 4442 5632 4877 5306 5184 
L 4928 4998 
z
M 339 4557 
L 339 4122 
L 3386 4122 
L 3386 4557 
L 2125 4557 
L 2125 5376 
L 1638 5376 
L 1638 4557 
L 339 4557 
z
M 4269 5382 
L 4269 4032 
L 4262 3686 
L 3334 3686 
L 3334 3226 
L 4243 3226 
C 4173 2093 3878 755 2778 -243 
C 2906 -301 3098 -435 3187 -525 
C 4000 237 4390 1184 4576 2118 
L 4576 166 
C 4576 -160 4602 -269 4717 -358 
C 4832 -442 4986 -474 5133 -474 
C 5216 -474 5446 -474 5542 -474 
C 5677 -474 5830 -448 5926 -397 
C 6029 -339 6099 -243 6138 -102 
C 6170 38 6195 429 6208 768 
C 6086 806 5920 890 5830 973 
C 5837 614 5824 307 5805 186 
C 5792 109 5754 51 5709 26 
C 5670 -6 5581 -13 5510 -13 
C 5427 -13 5306 -13 5242 -13 
C 5171 -13 5120 0 5075 26 
C 5037 45 5018 90 5018 147 
L 5018 2912 
L 4691 2912 
L 4717 3226 
L 6118 3226 
L 6118 3686 
L 4730 3686 
L 4736 4038 
L 4736 5382 
L 4269 5382 
z
M 685 3616 
L 685 1939 
L 1658 1939 
L 1658 38 
C 1658 -26 1638 -51 1562 -58 
C 1478 -58 1235 -58 941 -51 
C 1005 -173 1075 -358 1094 -493 
C 1478 -493 1741 -486 1907 -416 
C 2080 -333 2125 -205 2125 32 
L 2125 1939 
L 3091 1939 
L 3091 3616 
L 685 3616 
z
" transform="scale(0.015625)"/>
      <path id="NotoSansCJKjp-Regular-50cc" d="M 1043 3520 
L 1043 1894 
L 5402 1894 
L 5402 3520 
L 1043 3520 
z
M 1843 3002 
C 2003 2765 2157 2458 2208 2253 
L 2573 2387 
C 2515 2592 2355 2893 2195 3117 
L 1843 3002 
z
M 4147 3142 
C 4070 2918 3904 2579 3789 2368 
L 4122 2253 
C 4250 2445 4410 2733 4557 3008 
L 4147 3142 
z
M 1459 3187 
L 2976 3187 
L 2976 2227 
L 1459 2227 
L 1459 3187 
z
M 3379 3187 
L 4973 3187 
L 4973 2227 
L 3379 2227 
L 3379 3187 
z
M 2093 4154 
L 2093 3866 
L 4326 3866 
L 4326 4147 
C 4845 3840 5414 3578 5920 3398 
C 5990 3520 6099 3693 6202 3802 
C 5210 4090 4090 4678 3366 5376 
L 2918 5376 
C 2381 4762 1306 4109 218 3738 
C 301 3635 416 3462 467 3354 
C 1030 3565 1600 3846 2093 4154 
z
M 3168 4992 
C 3443 4723 3814 4454 4218 4211 
L 2176 4211 
C 2573 4467 2918 4736 3168 4992 
z
M 1894 474 
L 4557 474 
L 4557 32 
L 1894 32 
L 1894 474 
z
M 1894 819 
L 1894 1248 
L 4557 1248 
L 4557 819 
L 1894 819 
z
M 1421 1594 
L 1421 -512 
L 1894 -512 
L 1894 -307 
L 4557 -307 
L 4557 -499 
L 5043 -499 
L 5043 1594 
L 1421 1594 
z
" transform="scale(0.015625)"/>
      <path id="NotoSansCJKjp-Regular-4dd1" d="M 1453 5363 
L 1453 4339 
L 282 4339 
L 282 3891 
L 1037 3891 
L 1037 2560 
C 1037 1651 941 640 160 -192 
C 275 -275 435 -403 518 -506 
C 1370 403 1498 1491 1498 2554 
L 1498 2592 
L 2374 2592 
C 2330 800 2285 166 2176 26 
C 2125 -51 2074 -64 1978 -64 
C 1882 -64 1638 -58 1370 -38 
C 1446 -160 1491 -352 1498 -486 
C 1773 -493 2042 -493 2195 -480 
C 2368 -461 2477 -410 2579 -269 
C 2752 -51 2784 678 2829 2816 
C 2835 2886 2835 3040 2835 3040 
L 1498 3040 
L 1498 3891 
L 3123 3891 
L 3123 4339 
L 1926 4339 
L 1926 5363 
L 1453 5363 
z
M 3974 3731 
L 5203 3731 
C 5069 2912 4870 2214 4570 1638 
C 4282 2221 4077 2899 3942 3635 
L 3974 3731 
z
M 3872 5382 
C 3686 4275 3354 3200 2848 2528 
C 2963 2451 3174 2298 3258 2214 
C 3405 2419 3533 2662 3654 2918 
C 3814 2272 4019 1683 4282 1171 
C 3898 627 3379 205 2688 -102 
C 2778 -205 2918 -416 2963 -525 
C 3629 -198 4141 218 4544 730 
C 4890 205 5325 -211 5869 -499 
C 5939 -371 6093 -186 6202 -90 
C 5632 179 5184 608 4832 1158 
C 5248 1850 5510 2694 5683 3731 
L 6157 3731 
L 6157 4179 
L 4109 4179 
C 4211 4538 4294 4922 4365 5306 
L 3872 5382 
z
" transform="scale(0.015625)"/>
     </defs>
     <use xlink:href="#NotoSansCJKjp-Regular-5160"/>
     <use xlink:href="#NotoSansCJKjp-Regular-7a9c" transform="translate(100 0)"/>
     <use xlink:href="#NotoSansCJKjp-Regular-8006" transform="translate(200 0)"/>
     <use xlink:href="#NotoSansCJKjp-Regular-50aa" transform="translate(300 0)"/>
     <use xlink:href="#NotoSansCJKjp-Regular-7a17" transform="translate(400 0)"/>
     <use xlink:href="#NotoSansCJKjp-Regular-e6c0" transform="translate(500 0)"/>
     <use xlink:href="#NotoSansCJKjp-Regular-43e1" transform="translate(600 0)"/>
     <use xlink:href="#NotoSansCJKjp-Regular-580" transform="translate(700 0)"/>
     <use xlink:href="#NotoSansCJKjp-Regular-a5b8" transform="translate(800 0)"/>
     <use xlink:href="#NotoSansCJKjp-Regular-3f08" transform="translate(900 0)"/>
     <use xlink:href="#NotoSansCJKjp-Regular-581" transform="translate(1000 0)"/>
     <use xlink:href="#NotoSansCJKjp-Regular-aaa1" transform="translate(1100 0)"/>
     <use xlink:href="#NotoSansCJKjp-Regular-4d74" transform="translate(1200 0)"/>
     <use xlink:href="#NotoSansCJKjp-Regular-3da8" transform="translate(1300 0)"/>
     <use xlink:href="#NotoSansCJKjp-Regular-50cc" transform="translate(1400 0)"/>
     <use xlink:href="#NotoSansCJKjp-Regular-a103" transform="translate(1500 0)"/>
     <use xlink:href="#NotoSansCJKjp-Regular-4dd1" transform="translate(1600 0)"/>
     <use xlink:href="#NotoSansCJKjp-Regular-8006" transform="translate(1700 0)"/>
     <use xlink:href="#NotoSansCJKjp-Regular-a108" transform="translate(1800 0)"/>
    </g>
   </g>
   <g id="PathCollection_1">
    <defs>
     <path id="m6c07115e51" d="M 0 2 
C 0.530406 2 1.03916 1.789267 1.414214 1.414214 
C 1.789267 1.03916 2 0.530406 2 0 
C 2 -0.530406 1.789267 -1.03916 1.414214 -1.414214 
C 1.03916 -1.789267 0.530406 -2 0 -2 
C -0.530406 -2 -1.03916 -1.789267 -1.414214 -1.414214 
C -1.789267 -1.03916 -2 -0.530406 -2 0 
C -2 0.530406 -1.789267 1.03916 -1.414214 1.414214 
C -1.03916 1.789267 -0.530406 2 0 2 
z
" style="stroke: #222831"/>
    </defs>
    <g clip-path="url(#pea24bf1f36)">
     <use xlink:href="#m6c07115e51" x="38.590939" y="291.632" style="fill: #222831; stroke: #222831"/>
     <use xlink:href="#m6c07115e51" x="40.321878" y="260.8628" style="fill: #222831; stroke: #222831"/>
     <use xlink:href="#m6c07115e51" x="42.052816" y="213.1844" style="fill: #222831; stroke: #222831"/>
     <use xlink:href="#m6c07115e51" x="43.783755" y="95.6516" style="fill: #222831; stroke: #222831"/>
     <use xlink:href="#m6c07115e51" x="47.245633" y="143.8844" style="fill: #222831; stroke: #222831"/>
     <use xlink:href="#m6c07115e51" x="48.976571" y="136.1228" style="fill: #222831; stroke: #222831"/>
     <use xlink:href="#m6c07115e51" x="52.438449" y="112.5608" style="fill: #222831; stroke: #222831"/>
     <use xlink:href="#m6c07115e51" x="57.631265" y="78.7424" style="fill: #222831; stroke: #222831"/>
     <use xlink:href="#m6c07115e51" x="64.55502" y="70.4264" style="fill: #222831; stroke: #222831"/>
     <use xlink:href="#m6c07115e51" x="71.478776" y="69.0404" style="fill: #222831; stroke: #222831"/>
     <use xlink:href="#m6c07115e51" x="83.595347" y="60.7244" style="fill: #222831; stroke: #222831"/>
     <use xlink:href="#m6c07115e51" x="106.097551" y="54.626" style="fill: #222831; stroke: #222831"/>
     <use xlink:href="#m6c07115e51" x="133.792571" y="47.9732" style="fill: #222831; stroke: #222831"/>
     <use xlink:href="#m6c07115e51" x="166.680408" y="50.468" style="fill: #222831; stroke: #222831"/>
     <use xlink:href="#m6c07115e51" x="209.953878" y="56.012" style="fill: #222831; stroke: #222831"/>
     <use xlink:href="#m6c07115e51" x="279.191429" y="60.7244" style="fill: #222831; stroke: #222831"/>
     <use xlink:href="#m6c07115e51" x="348.42898" y="69.872" style="fill: #222831; stroke: #222831"/>
     <use xlink:href="#m6c07115e51" x="398.626204" y="74.5844" style="fill: #222831; stroke: #222831"/>
     <use xlink:href="#m6c07115e51" x="448.823429" y="81.7916" style="fill: #222831; stroke: #222831"/>
    </g>
   </g>
   <g id="patch_6">
    <path d="M 42.052816 219.56 
Q 48.111102 166.892 53.88831 116.667562 
" clip-path="url(#pea24bf1f36)" style="fill: none; stroke: #1f6feb; stroke-width: 2.2; stroke-linecap: round"/>
    <path d="M 49.977917 122.659959 
L 53.88831 116.667562 
L 56.335992 123.391315 
z
" clip-path="url(#pea24bf1f36)" style="fill: #1f6feb; stroke: #1f6feb; stroke-width: 2.2; stroke-linecap: round"/>
   </g>
   <g id="patch_7">
    <path d="M 443.630612 97.592 
Q 352.756327 80.267 264.298198 63.402635 
" clip-path="url(#pea24bf1f36)" style="fill: none; stroke: #1a7f37; stroke-width: 2.2; stroke-linecap: round"/>
    <path d="M 269.985686 67.744579 
L 264.298198 63.402635 
L 271.184246 61.457811 
z
" clip-path="url(#pea24bf1f36)" style="fill: #1a7f37; stroke: #1a7f37; stroke-width: 2.2; stroke-linecap: round"/>
   </g>
   <g id="PathCollection_2">
    <defs>
     <path id="mbcf1a825be" d="M 0 4.743416 
C 1.257969 4.743416 2.464584 4.24362 3.354102 3.354102 
C 4.24362 2.464584 4.743416 1.257969 4.743416 0 
C 4.743416 -1.257969 4.24362 -2.464584 3.354102 -3.354102 
C 2.464584 -4.24362 1.257969 -4.743416 0 -4.743416 
C -1.257969 -4.743416 -2.464584 -4.24362 -3.354102 -3.354102 
C -4.24362 -2.464584 -4.743416 -1.257969 -4.743416 0 
C -4.743416 1.257969 -4.24362 2.464584 -3.354102 3.354102 
C -2.464584 4.24362 -1.257969 4.743416 0 4.743416 
z
" style="stroke: #ffffff; stroke-width: 1.5"/>
    </defs>
    <g clip-path="url(#pea24bf1f36)">
     <use xlink:href="#mbcf1a825be" x="133.792571" y="47.9732" style="fill: #d1242f; stroke: #ffffff; stroke-width: 1.5"/>
    </g>
   </g>
   <g id="text_17">
    <!-- $^{1}$H -->
    <g style="fill: #444444" transform="translate(39.614694 285.73) scale(0.1 -0.1)">
     <defs>
      <path id="Cmr10-64" d="M 594 0 
L 594 225 
Q 1394 225 1394 428 
L 1394 3788 
Q 1063 3628 556 3628 
L 556 3853 
Q 1341 3853 1741 4263 
L 1831 4263 
Q 1853 4263 1873 4245 
Q 1894 4228 1894 4206 
L 1894 428 
Q 1894 225 2694 225 
L 2694 0 
L 594 0 
z
" transform="scale(0.015625)"/>
      <path id="NotoSansCJKjp-Regular-29" d="M 646 0 
L 1235 0 
L 1235 2214 
L 3424 2214 
L 3424 0 
L 4019 0 
L 4019 4691 
L 3424 4691 
L 3424 2726 
L 1235 2726 
L 1235 4691 
L 646 4691 
L 646 0 
z
" transform="scale(0.015625)"/>
     </defs>
     <use xlink:href="#Cmr10-64" transform="translate(4.004291 41.373437) scale(0.7)"/>
     <use xlink:href="#NotoSansCJKjp-Regular-29" transform="translate(44.724706 0.084203)"/>
    </g>
   </g>
   <g id="text_18">
    <!-- $^{2}$H -->
    <g style="fill: #444444" transform="translate(41.345633 279.9088) scale(0.1 -0.1)">
     <defs>
      <path id="Cmr10-31" d="M 319 0 
L 319 172 
Q 319 188 331 206 
L 1325 1306 
Q 1550 1550 1690 1715 
Q 1831 1881 1968 2097 
Q 2106 2313 2186 2536 
Q 2266 2759 2266 3009 
Q 2266 3272 2169 3511 
Q 2072 3750 1880 3894 
Q 1688 4038 1416 4038 
Q 1138 4038 916 3870 
Q 694 3703 603 3438 
Q 628 3444 672 3444 
Q 816 3444 917 3347 
Q 1019 3250 1019 3097 
Q 1019 2950 917 2848 
Q 816 2747 672 2747 
Q 522 2747 420 2851 
Q 319 2956 319 3097 
Q 319 3338 409 3548 
Q 500 3759 670 3923 
Q 841 4088 1055 4175 
Q 1269 4263 1509 4263 
Q 1875 4263 2190 4108 
Q 2506 3953 2690 3670 
Q 2875 3388 2875 3009 
Q 2875 2731 2753 2481 
Q 2631 2231 2440 2026 
Q 2250 1822 1953 1562 
Q 1656 1303 1563 1216 
L 838 519 
L 1453 519 
Q 1906 519 2211 526 
Q 2516 534 2534 550 
Q 2609 631 2688 1141 
L 2875 1141 
L 2694 0 
L 319 0 
z
" transform="scale(0.015625)"/>
     </defs>
     <use xlink:href="#Cmr10-31" transform="translate(4.004291 41.373437) scale(0.7)"/>
     <use xlink:href="#NotoSansCJKjp-Regular-29" transform="translate(44.724706 0.084203)"/>
    </g>
   </g>
   <g id="text_19">
    <!-- $^{4}$He -->
    <g style="fill: #444444" transform="translate(29.940939 84.2056) scale(0.1 -0.1)">
     <defs>
      <path id="Cmr10-3b" d="M 178 1056 
L 178 1281 
L 2156 4231 
Q 2178 4263 2222 4263 
L 2316 4263 
Q 2388 4263 2388 4191 
L 2388 1281 
L 3016 1281 
L 3016 1056 
L 2388 1056 
L 2388 428 
Q 2388 297 2575 261 
Q 2763 225 3009 225 
L 3009 0 
L 1247 0 
L 1247 225 
Q 1494 225 1681 261 
Q 1869 297 1869 428 
L 1869 1056 
L 178 1056 
z
M 391 1281 
L 1906 1281 
L 1906 3547 
L 391 1281 
z
" transform="scale(0.015625)"/>
     </defs>
     <use xlink:href="#Cmr10-3b" transform="translate(4.004291 41.373437) scale(0.7)"/>
     <use xlink:href="#NotoSansCJKjp-Regular-29" transform="translate(44.724706 0.084203)"/>
     <use xlink:href="#NotoSansCJKjp-Regular-46" transform="translate(117.524633 0.084203)"/>
    </g>
   </g>
   <g id="text_20">
    <!-- $^{235}$U -->
    <g style="fill: #444444" transform="translate(434.280612 104.4412) scale(0.1 -0.1)">
     <defs>
      <path id="Cmr10-6e" d="M 609 494 
Q 759 275 1012 169 
Q 1266 63 1556 63 
Q 1928 63 2084 380 
Q 2241 697 2241 1100 
Q 2241 1281 2208 1462 
Q 2175 1644 2097 1800 
Q 2019 1956 1883 2050 
Q 1747 2144 1550 2144 
L 1125 2144 
Q 1069 2144 1069 2203 
L 1069 2259 
Q 1069 2309 1125 2309 
L 1478 2338 
Q 1703 2338 1851 2506 
Q 2000 2675 2069 2917 
Q 2138 3159 2138 3378 
Q 2138 3684 1994 3881 
Q 1850 4078 1556 4078 
Q 1313 4078 1091 3986 
Q 869 3894 738 3706 
Q 750 3709 759 3711 
Q 769 3713 781 3713 
Q 925 3713 1022 3613 
Q 1119 3513 1119 3372 
Q 1119 3234 1022 3134 
Q 925 3034 781 3034 
Q 641 3034 541 3134 
Q 441 3234 441 3372 
Q 441 3647 606 3850 
Q 772 4053 1033 4158 
Q 1294 4263 1556 4263 
Q 1750 4263 1965 4205 
Q 2181 4147 2356 4039 
Q 2531 3931 2642 3762 
Q 2753 3594 2753 3378 
Q 2753 3109 2633 2881 
Q 2513 2653 2303 2487 
Q 2094 2322 1844 2241 
Q 2122 2188 2372 2031 
Q 2622 1875 2773 1631 
Q 2925 1388 2925 1106 
Q 2925 753 2731 467 
Q 2538 181 2222 20 
Q 1906 -141 1556 -141 
Q 1256 -141 954 -26 
Q 653 88 461 316 
Q 269 544 269 863 
Q 269 1022 375 1128 
Q 481 1234 641 1234 
Q 744 1234 830 1186 
Q 916 1138 964 1050 
Q 1013 963 1013 863 
Q 1013 706 903 600 
Q 794 494 641 494 
L 609 494 
z
" transform="scale(0.015625)"/>
      <path id="NotoSansCJKjp-Regular-36" d="M 2310 -83 
C 3264 -83 3994 429 3994 1933 
L 3994 4691 
L 3424 4691 
L 3424 1920 
C 3424 794 2931 435 2310 435 
C 1696 435 1216 794 1216 1920 
L 1216 4691 
L 627 4691 
L 627 1933 
C 627 429 1350 -83 2310 -83 
z
" transform="scale(0.015625)"/>
     </defs>
     <use xlink:href="#Cmr10-31" transform="translate(4.004291 41.373437) scale(0.7)"/>
     <use xlink:href="#Cmr10-6e" transform="translate(39.004291 41.373437) scale(0.7)"/>
     <use xlink:href="#Cmr10-78" transform="translate(74.004291 41.373437) scale(0.7)"/>
     <use xlink:href="#NotoSansCJKjp-Regular-36" transform="translate(114.724706 0.084203)"/>
    </g>
   </g>
  </g>
 </g>
 <defs>
  <clipPath id="pea24bf1f36">
   <rect x="36.86" y="25.52" width="424.08" height="266.112"/>
  </clipPath>
 </defs>
</svg>
