<?xml version="1.0" encoding="utf-8" standalone="no"?>
<!DOCTYPE svg PUBLIC "-//W3C//DTD SVG 1.1//EN"
  "http://www.w3.org/Graphics/SVG/1.1/DTD/svg11.dtd">
<svg xmlns:xlink="http://www.w3.org/1999/xlink" width="500.944375pt" height="331.32pt" viewBox="0 0 500.944375 331.32" xmlns="http://www.w3.org/2000/svg" version="1.1">
 <metadata>
  <rdf:RDF xmlns:dc="http://purl.org/dc/elements/1.1/" xmlns:cc="http://creativecommons.org/ns#" xmlns:rdf="http://www.w3.org/1999/02/22-rdf-syntax-ns#">
   <cc:Work>
    <dc:type rdf:resource="http://purl.org/dc/dcmitype/StillImage"/>
    <dc:date>2026-06-18T09:41:55.424767</dc:date>
    <dc:format>image/svg+xml</dc:format>
    <dc:creator>
     <cc:Agent>
      <dc:title>Matplotlib v3.11.0, https://matplotlib.org/</dc:title>
     </cc:Agent>
    </dc:creator>
   </cc:Work>
  </rdf:RDF>
 </metadata>
 <defs>
  <style type="text/css">*{stroke-linejoin: round; stroke-linecap: butt}</style>
 </defs>
 <g id="figure_1">
  <g id="patch_1">
   <path d="M -0 331.32 
L 500.944375 331.32 
L 500.944375 0 
L -0 0 
z
" style="fill: #ffffff"/>
  </g>
  <g id="axes_1">
   <g id="patch_2">
    <path d="M 25.024375 302.72 
L 493.744375 302.72 
L 493.744375 25.52 
L 25.024375 25.52 
z
" style="fill: #ffffff"/>
   </g>
   <g id="matplotlib.axis_1">
    <g id="xtick_1">
     <g id="line2d_1">
      <path d="M 32.254154 302.72 
L 32.254154 25.52 
" clip-path="url(#p63152b8c48)" style="fill: none; stroke: #d8dde3; stroke-width: 0.9; stroke-linecap: square"/>
     </g>
     <g id="line2d_2">
      <defs>
       <path id="mcfa76cfd12" d="M 0 0 
L 0 3.5 
" style="stroke: #222831; stroke-width: 0.8"/>
      </defs>
      <g>
       <use xlink:href="#mcfa76cfd12" x="32.254154" y="302.72" style="fill: #222831; stroke: #222831; stroke-width: 0.8"/>
      </g>
     </g>
     <g id="text_1">
      <!-- $0$ -->
      <g style="fill: #222831" transform="translate(29.254154 320.28) scale(0.12 -0.12)">
       <defs>
        <path id="Cmr10-28" d="M 1600 -141 
Q 816 -141 533 504 
Q 250 1150 250 2041 
Q 250 2597 351 3087 
Q 453 3578 754 3920 
Q 1056 4263 1600 4263 
Q 2022 4263 2290 4056 
Q 2559 3850 2700 3523 
Q 2841 3197 2892 2823 
Q 2944 2450 2944 2041 
Q 2944 1491 2842 1011 
Q 2741 531 2444 195 
Q 2147 -141 1600 -141 
z
M 1600 25 
Q 1956 25 2131 390 
Q 2306 756 2347 1200 
Q 2388 1644 2388 2144 
Q 2388 2625 2347 3031 
Q 2306 3438 2132 3767 
Q 1959 4097 1600 4097 
Q 1238 4097 1063 3765 
Q 888 3434 847 3029 
Q 806 2625 806 2144 
Q 806 1788 823 1472 
Q 841 1156 916 820 
Q 991 484 1158 254 
Q 1325 25 1600 25 
z
" transform="scale(0.015625)"/>
       </defs>
       <use xlink:href="#Cmr10-28" transform="translate(0 0.390625)"/>
      </g>
     </g>
    </g>
    <g id="xtick_2">
     <g id="line2d_3">
      <path d="M 145.819265 302.72 
L 145.819265 25.52 
" clip-path="url(#p63152b8c48)" style="fill: none; stroke: #d8dde3; stroke-width: 0.9; stroke-linecap: square"/>
     </g>
     <g id="line2d_4">
      <g>
       <use xlink:href="#mcfa76cfd12" x="145.819265" y="302.72" style="fill: #222831; stroke: #222831; stroke-width: 0.8"/>
      </g>
     </g>
     <g id="text_2">
      <!-- $\frac{\pi}{2}$ -->
      <g style="fill: #222831" transform="translate(142.639265 320.28) scale(0.12 -0.12)">
       <defs>
        <path id="Cmmi10-24" d="M 647 109 
Q 647 144 672 213 
Q 850 584 1004 942 
Q 1159 1300 1282 1639 
Q 1406 1978 1509 2363 
L 1100 2363 
Q 866 2363 662 2216 
Q 459 2069 325 1844 
Q 313 1819 288 1819 
L 213 1819 
Q 153 1819 153 1881 
Q 153 1894 166 1919 
Q 375 2275 614 2517 
Q 853 2759 1153 2759 
L 3475 2759 
Q 3541 2759 3587 2715 
Q 3634 2672 3634 2597 
Q 3634 2503 3567 2433 
Q 3500 2363 3406 2363 
L 2591 2363 
Q 2488 1859 2478 1381 
Q 2478 766 2694 269 
Q 2713 231 2713 191 
Q 2713 122 2672 62 
Q 2631 3 2567 -34 
Q 2503 -72 2431 -72 
Q 2263 -72 2200 203 
Q 2138 478 2138 738 
Q 2138 1103 2200 1442 
Q 2263 1781 2400 2363 
L 1703 2363 
Q 1197 313 1094 103 
Q 1003 -72 844 -72 
Q 766 -72 706 -20 
Q 647 31 647 109 
z
" transform="scale(0.015625)"/>
        <path id="Cmr10-31" d="M 319 0 
L 319 172 
Q 319 188 331 206 
L 1325 1306 
Q 1550 1550 1690 1715 
Q 1831 1881 1968 2097 
Q 2106 2313 2186 2536 
Q 2266 2759 2266 3009 
Q 2266 3272 2169 3511 
Q 2072 3750 1880 3894 
Q 1688 4038 1416 4038 
Q 1138 4038 916 3870 
Q 694 3703 603 3438 
Q 628 3444 672 3444 
Q 816 3444 917 3347 
Q 1019 3250 1019 3097 
Q 1019 2950 917 2848 
Q 816 2747 672 2747 
Q 522 2747 420 2851 
Q 319 2956 319 3097 
Q 319 3338 409 3548 
Q 500 3759 670 3923 
Q 841 4088 1055 4175 
Q 1269 4263 1509 4263 
Q 1875 4263 2190 4108 
Q 2506 3953 2690 3670 
Q 2875 3388 2875 3009 
Q 2875 2731 2753 2481 
Q 2631 2231 2440 2026 
Q 2250 1822 1953 1562 
Q 1656 1303 1563 1216 
L 838 519 
L 1453 519 
Q 1906 519 2211 526 
Q 2516 534 2534 550 
Q 2609 631 2688 1141 
L 2875 1141 
L 2694 0 
L 319 0 
z
" transform="scale(0.015625)"/>
       </defs>
       <use xlink:href="#Cmmi10-24" transform="translate(6.25 35.823437) scale(0.7)"/>
       <use xlink:href="#Cmr10-31" transform="translate(8.25 -30.340625) scale(0.7)"/>
       <path d="M 6.25 22.535937 
L 6.25 28.785937 
L 46.137695 28.785937 
L 46.137695 22.535937 
L 6.25 22.535937 
z
"/>
      </g>
     </g>
    </g>
    <g id="xtick_3">
     <g id="line2d_5">
      <path d="M 259.384375 302.72 
L 259.384375 25.52 
" clip-path="url(#p63152b8c48)" style="fill: none; stroke: #d8dde3; stroke-width: 0.9; stroke-linecap: square"/>
     </g>
     <g id="line2d_6">
      <g>
       <use xlink:href="#mcfa76cfd12" x="259.384375" y="302.72" style="fill: #222831; stroke: #222831; stroke-width: 0.8"/>
      </g>
     </g>
     <g id="text_3">
      <!-- $\pi$ -->
      <g style="fill: #222831" transform="translate(255.964375 320.28) scale(0.12 -0.12)">
       <use xlink:href="#Cmmi10-24" transform="translate(0 0.890625)"/>
      </g>
     </g>
    </g>
   </g>
   <g id="matplotlib.axis_2">
    <g id="ytick_1">
     <g id="line2d_7">
      <path d="M 25.024375 284.542951 
L 493.744375 284.542951 
" clip-path="url(#p63152b8c48)" style="fill: none; stroke: #d8dde3; stroke-width: 0.9; stroke-linecap: square"/>
     </g>
     <g id="line2d_8">
      <defs>
       <path id="mca9228a463" d="M 0 0 
L -3.5 0 
" style="stroke: #222831; stroke-width: 0.8"/>
      </defs>
      <g>
       <use xlink:href="#mca9228a463" x="25.024375" y="284.542951" style="fill: #222831; stroke: #222831; stroke-width: 0.8"/>
      </g>
     </g>
     <g id="text_4">
      <!-- -5 -->
      <g style="fill: #222831" transform="translate(7.2 289.822951) scale(0.12 -0.12)">
       <defs>
        <path id="NotoSansCJKjp-Regular-e" d="M 294 1568 
L 1933 1568 
L 1933 2016 
L 294 2016 
L 294 1568 
z
" transform="scale(0.015625)"/>
        <path id="NotoSansCJKjp-Regular-16" d="M 1677 -83 
C 2464 -83 3213 499 3213 1523 
C 3213 2560 2573 3021 1798 3021 
C 1517 3021 1306 2950 1094 2835 
L 1216 4192 
L 2982 4192 
L 2982 4691 
L 704 4691 
L 550 2502 
L 864 2304 
C 1133 2483 1331 2579 1645 2579 
C 2234 2579 2618 2182 2618 1510 
C 2618 826 2176 403 1619 403 
C 1075 403 730 653 467 922 
L 173 538 
C 493 224 941 -83 1677 -83 
z
" transform="scale(0.015625)"/>
       </defs>
       <use xlink:href="#NotoSansCJKjp-Regular-e"/>
       <use xlink:href="#NotoSansCJKjp-Regular-16" transform="translate(34.703125 0)"/>
      </g>
     </g>
    </g>
    <g id="ytick_2">
     <g id="line2d_9">
      <path d="M 25.024375 170.936393 
L 493.744375 170.936393 
" clip-path="url(#p63152b8c48)" style="fill: none; stroke: #d8dde3; stroke-width: 0.9; stroke-linecap: square"/>
     </g>
     <g id="line2d_10">
      <g>
       <use xlink:href="#mca9228a463" x="25.024375" y="170.936393" style="fill: #222831; stroke: #222831; stroke-width: 0.8"/>
      </g>
     </g>
     <g id="text_5">
      <!-- 0 -->
      <g style="fill: #222831" transform="translate(11.364375 176.216393) scale(0.12 -0.12)">
       <defs>
        <path id="NotoSansCJKjp-Regular-11" d="M 1779 -83 
C 2669 -83 3238 723 3238 2362 
C 3238 3987 2669 4774 1779 4774 
C 883 4774 320 3987 320 2362 
C 320 723 883 -83 1779 -83 
z
M 1779 390 
C 1248 390 883 986 883 2362 
C 883 3731 1248 4314 1779 4314 
C 2310 4314 2675 3731 2675 2362 
C 2675 986 2310 390 1779 390 
z
" transform="scale(0.015625)"/>
       </defs>
       <use xlink:href="#NotoSansCJKjp-Regular-11"/>
      </g>
     </g>
    </g>
    <g id="ytick_3">
     <g id="line2d_11">
      <path d="M 25.024375 57.329836 
L 493.744375 57.329836 
" clip-path="url(#p63152b8c48)" style="fill: none; stroke: #d8dde3; stroke-width: 0.9; stroke-linecap: square"/>
     </g>
     <g id="line2d_12">
      <g>
       <use xlink:href="#mca9228a463" x="25.024375" y="57.329836" style="fill: #222831; stroke: #222831; stroke-width: 0.8"/>
      </g>
     </g>
     <g id="text_6">
      <!-- 5 -->
      <g style="fill: #222831" transform="translate(11.364375 62.609836) scale(0.12 -0.12)">
       <use xlink:href="#NotoSansCJKjp-Regular-16"/>
      </g>
     </g>
    </g>
   </g>
   <g id="line2d_13">
    <path d="M 32.254154 170.936393 
L 49.297443 155.016027 
L 58.387196 146.830634 
L 66.113487 140.167326 
L 72.930802 134.577097 
L 79.066386 129.82074 
L 84.974726 125.519868 
L 90.428578 121.818277 
L 95.655187 118.53282 
L 100.654551 115.646149 
L 105.426672 113.137038 
L 110.198792 110.879658 
L 114.743669 108.972817 
L 119.288546 107.310762 
L 123.606179 105.964535 
L 127.923812 104.849961 
L 132.241445 103.971013 
L 136.331834 103.358528 
L 140.422223 102.962298 
L 144.512613 102.783591 
L 148.603002 102.822981 
L 152.693391 103.08034 
L 156.78378 103.554845 
L 160.874169 104.244977 
L 165.191802 105.204929 
L 169.509435 106.399242 
L 173.827068 107.823658 
L 178.371945 109.566036 
L 182.916822 111.550857 
L 187.688943 113.887256 
L 192.461063 116.47212 
L 197.460428 119.434286 
L 202.687036 122.794058 
L 208.140889 126.567755 
L 213.821985 130.76671 
L 219.957568 135.579219 
L 226.54764 141.030688 
L 234.046687 147.533498 
L 242.681953 155.32869 
L 254.271389 166.119776 
L 278.131992 188.414628 
L 286.994502 196.339668 
L 294.493549 202.752303 
L 301.08362 208.107539 
L 307.219204 212.816895 
L 312.9003 216.909341 
L 318.354152 220.571464 
L 323.58076 223.816336 
L 328.580125 226.661854 
L 333.352246 229.12974 
L 338.124366 231.344178 
L 342.669243 233.208698 
L 347.21412 234.827213 
L 351.531753 236.131103 
L 355.849386 237.202546 
L 360.167019 238.037722 
L 364.257408 238.60829 
L 368.347797 238.962301 
L 372.438187 239.098623 
L 376.528576 239.016819 
L 380.618965 238.717151 
L 384.709354 238.200578 
L 388.799743 237.468753 
L 393.117376 236.465347 
L 397.435009 235.228302 
L 401.752642 233.762029 
L 406.297519 231.976699 
L 410.842396 229.95023 
L 415.614517 227.571684 
L 420.386637 224.946475 
L 425.386002 221.944168 
L 430.61261 218.544959 
L 436.066463 214.733087 
L 441.974802 210.32316 
L 448.110386 205.465777 
L 454.927701 199.778772 
L 462.426748 193.229099 
L 471.289258 185.185305 
L 483.560426 173.720874 
L 486.514596 170.936393 
L 486.514596 170.936393 
" clip-path="url(#p63152b8c48)" style="fill: none; stroke-dasharray: 6.66,2.88; stroke-dashoffset: 0; stroke: #1f6feb; stroke-width: 1.8"/>
   </g>
   <g id="line2d_14">
    <path d="M 32.254154 80.051148 
L 35.890056 80.166054 
L 39.525957 80.510484 
L 43.161859 81.083567 
L 46.79776 81.883852 
L 50.433662 82.909317 
L 54.069563 84.157369 
L 57.932709 85.723772 
L 61.795854 87.533415 
L 65.658999 89.58113 
L 69.749388 92.002284 
L 73.839778 94.676035 
L 78.157411 97.762897 
L 82.702287 101.293858 
L 87.474408 105.297201 
L 92.473773 109.797487 
L 97.700381 114.814421 
L 103.154233 120.361637 
L 109.062573 126.694711 
L 115.425401 133.843941 
L 122.697204 142.362726 
L 131.105226 152.566866 
L 142.921906 167.295111 
L 162.69212 191.955166 
L 171.327386 202.341394 
L 178.599189 210.746479 
L 184.962017 217.77364 
L 190.870356 223.975353 
L 196.324209 229.386691 
L 201.550817 234.260972 
L 206.550182 238.614112 
L 211.322302 242.467898 
L 215.867179 245.848764 
L 220.184812 248.786665 
L 224.275201 251.314056 
L 228.365591 253.58423 
L 232.228736 255.485548 
L 236.091881 257.145521 
L 239.955026 258.559411 
L 243.590928 259.661711 
L 247.226829 260.539659 
L 250.862731 261.191035 
L 254.498632 261.614191 
L 258.134534 261.808059 
L 261.770435 261.772147 
L 265.406337 261.506547 
L 269.042238 261.011929 
L 272.67814 260.289546 
L 276.314041 259.341222 
L 279.949943 258.169357 
L 283.813088 256.68264 
L 287.676233 254.95116 
L 291.539379 252.979861 
L 295.629768 250.637473 
L 299.720157 248.040034 
L 304.03779 245.03079 
L 308.582667 241.577981 
L 313.127544 237.846103 
L 317.899664 233.643429 
L 322.899029 228.948032 
L 328.352881 223.510353 
L 334.033977 217.528597 
L 340.169561 210.746479 
L 346.986876 202.876912 
L 354.940411 193.342127 
L 364.93914 180.985574 
L 394.026352 144.81447 
L 401.979886 135.415203 
L 408.797201 127.696327 
L 414.932785 121.075931 
L 420.613881 115.264921 
L 425.84049 110.221429 
L 430.839854 105.693666 
L 435.611975 101.662325 
L 440.156852 98.103206 
L 444.701729 94.831815 
L 449.019362 92.002284 
L 453.109751 89.58113 
L 457.20014 87.420321 
L 461.063285 85.624851 
L 464.926431 84.072901 
L 468.789576 82.768903 
L 472.425477 81.771455 
L 476.061379 80.999471 
L 479.69728 80.454903 
L 483.333182 80.139127 
L 486.514596 80.051148 
L 486.514596 80.051148 
" clip-path="url(#p63152b8c48)" style="fill: none; stroke-dasharray: 6.66,2.88; stroke-dashoffset: 0; stroke: #1a7f37; stroke-width: 1.8"/>
   </g>
   <g id="line2d_15">
    <path d="M 32.254154 80.051148 
L 36.344544 76.342118 
L 40.434933 72.935799 
L 44.298078 70.006508 
L 47.93398 67.51257 
L 51.569881 65.280152 
L 55.205783 63.314897 
L 58.61444 61.719538 
L 62.023098 60.366911 
L 65.431755 59.260022 
L 68.613169 58.450813 
L 71.794583 57.859383 
L 74.975997 57.486879 
L 78.157411 57.33402 
L 81.338824 57.401102 
L 84.520238 57.687997 
L 87.701652 58.194147 
L 90.883066 58.918575 
L 94.06448 59.859876 
L 97.473137 61.106997 
L 100.881795 62.598211 
L 104.290453 64.330204 
L 107.926354 66.438708 
L 111.562255 68.811445 
L 115.198157 71.442418 
L 119.061302 74.513322 
L 123.151691 78.064668 
L 127.242081 81.913213 
L 131.559714 86.284367 
L 136.10459 91.211337 
L 140.876711 96.723259 
L 145.876076 102.843897 
L 151.102684 109.590246 
L 156.78378 117.285514 
L 163.146608 126.294971 
L 170.191167 136.669797 
L 178.599189 149.469666 
L 190.415869 167.908555 
L 208.595376 196.26037 
L 217.003398 208.939979 
L 224.047957 219.175089 
L 230.410785 228.028976 
L 236.091881 235.56279 
L 241.31849 242.142695 
L 246.317854 248.088893 
L 251.089975 253.421184 
L 255.634852 258.165892 
L 259.952485 262.354454 
L 264.042874 266.022129 
L 268.133263 269.38552 
L 271.996408 272.272948 
L 275.63231 274.726422 
L 279.268211 276.917451 
L 282.904113 278.840495 
L 286.31277 280.395631 
L 289.721428 281.707496 
L 293.130086 282.773175 
L 296.311499 283.543597 
L 299.492913 284.096005 
L 302.674327 284.429328 
L 305.855741 284.542921 
L 309.037155 284.436565 
L 312.218568 284.110464 
L 315.399982 283.565251 
L 318.581396 282.801982 
L 321.76281 281.822133 
L 325.171467 280.534122 
L 328.580125 279.002533 
L 331.988783 277.230771 
L 335.624684 275.080612 
L 339.260586 272.667113 
L 343.123731 269.821065 
L 346.986876 266.692751 
L 351.077265 263.082696 
L 355.167655 259.177764 
L 359.485288 254.749807 
L 364.030164 249.766279 
L 368.802285 244.198781 
L 373.80165 238.024366 
L 379.255502 230.923984 
L 385.163842 222.848181 
L 391.526669 213.765253 
L 398.798472 202.983045 
L 407.660982 189.415279 
L 421.522857 167.716051 
L 435.611975 145.786498 
L 444.019997 133.101111 
L 451.064556 122.859404 
L 457.427384 113.998239 
L 463.10848 106.456916 
L 468.335088 99.869299 
L 473.334453 93.915044 
L 478.106573 88.574476 
L 482.65145 83.821388 
L 486.514596 80.051148 
L 486.514596 80.051148 
" clip-path="url(#p63152b8c48)" style="fill: none; stroke: #d1242f; stroke-width: 3; stroke-linecap: square"/>
   </g>
   <g id="line2d_16">
    <path d="M 25.024375 57.329836 
L 493.744375 57.329836 
" clip-path="url(#p63152b8c48)" style="fill: none; stroke-dasharray: 1,1.65; stroke-dashoffset: 0; stroke: #9aa0a6"/>
   </g>
   <g id="line2d_17">
    <path d="M 25.024375 284.542951 
L 493.744375 284.542951 
" clip-path="url(#p63152b8c48)" style="fill: none; stroke-dasharray: 1,1.65; stroke-dashoffset: 0; stroke: #9aa0a6"/>
   </g>
   <g id="line2d_18">
    <path d="M 25.024375 170.936393 
L 493.744375 170.936393 
" clip-path="url(#p63152b8c48)" style="fill: none; stroke: #222831; stroke-linecap: square"/>
   </g>
   <g id="line2d_19">
    <path d="M 32.254154 302.72 
L 32.254154 25.52 
" clip-path="url(#p63152b8c48)" style="fill: none; stroke: #222831; stroke-linecap: square"/>
   </g>
   <g id="patch_3">
    <path d="M 25.024375 302.72 
L 25.024375 25.52 
" style="fill: none; stroke: #222831; stroke-width: 1.1; stroke-linejoin: miter; stroke-linecap: square"/>
   </g>
   <g id="patch_4">
    <path d="M 25.024375 302.72 
L 493.744375 302.72 
" style="fill: none; stroke: #222831; stroke-width: 1.1; stroke-linejoin: miter; stroke-linecap: square"/>
   </g>
   <g id="text_7">
    <!-- $R=5$ -->
    <g style="fill: #d1242f" transform="translate(450.004816 53.163279) scale(0.12 -0.12)">
     <defs>
      <path id="Cmmi10-70" d="M 313 0 
Q 250 0 250 84 
Q 253 100 262 139 
Q 272 178 289 201 
Q 306 225 331 225 
Q 722 225 878 269 
Q 959 297 997 441 
L 1875 3956 
Q 1888 4019 1888 4044 
Q 1888 4113 1813 4122 
Q 1691 4147 1350 4147 
Q 1288 4147 1288 4231 
Q 1291 4247 1300 4286 
Q 1309 4325 1326 4348 
Q 1344 4372 1369 4372 
L 3309 4372 
Q 3541 4372 3791 4319 
Q 4041 4266 4250 4152 
Q 4459 4038 4593 3848 
Q 4728 3659 4728 3406 
Q 4728 3084 4515 2831 
Q 4303 2578 3978 2408 
Q 3653 2238 3347 2169 
Q 3597 2078 3756 1879 
Q 3916 1681 3916 1422 
Q 3916 1388 3914 1370 
Q 3913 1353 3909 1331 
L 3859 763 
Q 3853 638 3847 550 
Q 3841 463 3841 409 
Q 3841 234 3892 129 
Q 3944 25 4097 25 
Q 4297 25 4448 211 
Q 4600 397 4647 616 
Q 4675 672 4709 672 
L 4769 672 
Q 4831 672 4831 588 
Q 4784 403 4682 237 
Q 4581 72 4426 -34 
Q 4272 -141 4091 -141 
Q 3716 -141 3452 26 
Q 3188 194 3188 550 
Q 3188 684 3213 788 
L 3353 1356 
Q 3378 1434 3378 1538 
Q 3378 1803 3198 1954 
Q 3019 2106 2747 2106 
L 1959 2106 
L 1538 416 
Q 1522 363 1522 325 
Q 1522 259 1600 250 
Q 1722 225 2059 225 
Q 2125 225 2125 141 
Q 2103 50 2090 25 
Q 2078 0 2016 0 
L 313 0 
z
M 1997 2272 
L 2706 2272 
Q 3403 2272 3756 2625 
Q 3919 2788 4014 3039 
Q 4109 3291 4109 3541 
Q 4109 3778 3970 3912 
Q 3831 4047 3626 4097 
Q 3422 4147 3175 4147 
L 2747 4147 
Q 2572 4147 2515 4117 
Q 2459 4088 2413 3928 
L 1997 2272 
z
" transform="scale(0.015625)"/>
      <path id="Cmr10-29" d="M 481 850 
Q 428 850 393 890 
Q 359 931 359 978 
Q 359 1031 393 1068 
Q 428 1106 481 1106 
L 4500 1106 
Q 4547 1106 4581 1068 
Q 4616 1031 4616 978 
Q 4616 931 4581 890 
Q 4547 850 4500 850 
L 481 850 
z
M 481 2094 
Q 428 2094 393 2131 
Q 359 2169 359 2222 
Q 359 2269 393 2309 
Q 428 2350 481 2350 
L 4500 2350 
Q 4547 2350 4581 2309 
Q 4616 2269 4616 2222 
Q 4616 2169 4581 2131 
Q 4547 2094 4500 2094 
L 481 2094 
z
" transform="scale(0.015625)"/>
      <path id="Cmr10-78" d="M 556 728 
Q 622 541 758 387 
Q 894 234 1080 148 
Q 1266 63 1466 63 
Q 1928 63 2103 422 
Q 2278 781 2278 1294 
Q 2278 1516 2270 1667 
Q 2263 1819 2228 1959 
Q 2169 2184 2020 2353 
Q 1872 2522 1656 2522 
Q 1441 2522 1286 2456 
Q 1131 2391 1034 2303 
Q 938 2216 863 2119 
Q 788 2022 769 2016 
L 697 2016 
Q 681 2016 657 2036 
Q 634 2056 634 2075 
L 634 4213 
Q 634 4228 654 4245 
Q 675 4263 697 4263 
L 716 4263 
Q 1147 4056 1631 4056 
Q 2106 4056 2547 4263 
L 2566 4263 
Q 2588 4263 2606 4247 
Q 2625 4231 2625 4213 
L 2625 4153 
Q 2625 4122 2613 4122 
Q 2394 3831 2064 3668 
Q 1734 3506 1381 3506 
Q 1125 3506 856 3578 
L 856 2369 
Q 1069 2541 1236 2614 
Q 1403 2688 1663 2688 
Q 2016 2688 2295 2484 
Q 2575 2281 2725 1954 
Q 2875 1628 2875 1288 
Q 2875 903 2686 575 
Q 2497 247 2172 53 
Q 1847 -141 1466 -141 
Q 1150 -141 886 21 
Q 622 184 470 459 
Q 319 734 319 1044 
Q 319 1188 412 1278 
Q 506 1369 647 1369 
Q 788 1369 883 1276 
Q 978 1184 978 1044 
Q 978 906 883 811 
Q 788 716 647 716 
Q 625 716 597 720 
Q 569 725 556 728 
z
" transform="scale(0.015625)"/>
     </defs>
     <use xlink:href="#Cmmi10-70" transform="translate(0 0.6875)"/>
     <use xlink:href="#Cmr10-29" transform="translate(95.878963 0.6875)"/>
     <use xlink:href="#Cmr10-78" transform="translate(193.564568 0.6875)"/>
    </g>
   </g>
   <g id="text_8">
    <!-- 正餘弦的疊合：兩同頻波合成單一正弦波 -->
    <g style="fill: #222831" transform="translate(133.384375 19.52) scale(0.14 -0.14)">
     <defs>
      <path id="NotoSansCJKjp-Regular-585c" d="M 1203 3264 
L 1203 243 
L 333 243 
L 333 -224 
L 6080 -224 
L 6080 243 
L 3616 243 
L 3616 2259 
L 5619 2259 
L 5619 2726 
L 3616 2726 
L 3616 4435 
L 5869 4435 
L 5869 4909 
L 576 4909 
L 576 4435 
L 3110 4435 
L 3110 243 
L 1696 243 
L 1696 3264 
L 1203 3264 
z
" transform="scale(0.015625)"/>
      <path id="NotoSansCJKjp-Regular-ad9e" d="M 4416 4890 
C 4762 4282 5376 3546 5958 3085 
C 6029 3226 6138 3398 6234 3520 
C 5645 3917 5018 4666 4627 5370 
L 4173 5370 
C 3891 4710 3277 3917 2650 3469 
C 2746 3360 2854 3187 2906 3059 
C 3533 3546 4109 4282 4416 4890 
z
M 5101 1453 
C 5370 992 5638 371 5728 -6 
L 6150 154 
C 6048 538 5766 1139 5491 1594 
L 5101 1453 
z
M 2880 2298 
L 2880 1882 
L 4218 1882 
L 4218 6 
C 4218 -70 4192 -96 4115 -96 
C 4038 -102 3795 -102 3514 -96 
C 3578 -211 3642 -390 3667 -512 
C 4058 -512 4307 -506 4461 -435 
C 4621 -358 4672 -237 4672 0 
L 4672 1882 
L 6042 1882 
L 6042 2298 
L 4672 2298 
L 4672 3008 
L 5562 3008 
L 5562 3424 
L 3341 3424 
L 3341 3008 
L 4218 3008 
L 4218 2298 
L 2880 2298 
z
M 640 3501 
L 640 -506 
L 1056 -506 
L 1056 0 
L 2746 0 
L 2746 192 
C 2848 134 2982 45 3046 -6 
C 3328 358 3578 909 3731 1453 
L 3315 1542 
C 3200 1094 3002 640 2746 301 
L 2746 384 
L 1056 384 
L 1056 819 
L 2650 819 
L 2650 1203 
L 1056 1203 
L 1056 1632 
L 2618 1632 
L 2618 3501 
L 640 3501 
z
M 1056 2406 
L 2214 2406 
L 2214 1971 
L 1056 1971 
L 1056 2406 
z
M 1056 2739 
L 1056 3162 
L 2214 3162 
L 2214 2739 
L 1056 2739 
z
M 1344 5376 
C 1126 4883 704 4269 115 3808 
C 218 3750 352 3616 422 3520 
C 666 3718 877 3936 1062 4154 
L 1062 3872 
L 2310 3872 
L 2310 4218 
L 1114 4218 
C 1338 4486 1517 4755 1651 4992 
C 2003 4672 2381 4192 2579 3904 
L 2880 4230 
C 2662 4557 2202 5037 1824 5376 
L 1344 5376 
z
" transform="scale(0.015625)"/>
      <path id="NotoSansCJKjp-Regular-4338" d="M 5056 3322 
C 4826 2886 4518 2387 4192 1894 
C 3994 2093 3738 2310 3462 2522 
C 3763 2938 4109 3482 4384 3942 
L 4358 3955 
L 6144 3955 
L 6144 4410 
L 4410 4410 
L 4410 5376 
L 3942 5376 
L 3942 4410 
L 2406 4410 
L 2406 3955 
L 3814 3955 
C 3629 3571 3373 3123 3130 2771 
L 2790 3008 
L 2509 2662 
C 2989 2323 3565 1850 3910 1478 
C 3603 1043 3283 621 2995 275 
L 2374 250 
L 2432 -230 
C 3245 -186 4410 -115 5542 -38 
C 5626 -218 5696 -390 5741 -531 
L 6182 -320 
C 6022 160 5581 890 5152 1434 
L 4742 1254 
C 4941 992 5146 691 5312 390 
L 3539 301 
C 4205 1114 4960 2202 5517 3098 
L 5056 3322 
z
M 538 3654 
C 486 3040 397 2221 301 1715 
L 749 1645 
L 787 1901 
L 1747 1901 
C 1683 634 1606 134 1485 6 
C 1427 -51 1376 -70 1261 -64 
C 1139 -64 826 -64 506 -32 
C 582 -160 640 -358 653 -493 
C 973 -512 1286 -512 1459 -499 
C 1651 -480 1773 -442 1888 -301 
C 2074 -90 2150 506 2227 2112 
C 2234 2182 2240 2330 2240 2330 
L 845 2330 
L 941 3200 
L 2234 3200 
L 2234 5126 
L 371 5126 
L 371 4678 
L 1773 4678 
L 1773 3654 
L 538 3654 
z
" transform="scale(0.015625)"/>
      <path id="NotoSansCJKjp-Regular-6c33" d="M 3533 2707 
C 3885 2240 4320 1600 4512 1210 
L 4922 1466 
C 4710 1843 4269 2464 3904 2918 
L 3533 2707 
z
M 1536 5389 
C 1485 5082 1376 4659 1274 4346 
L 557 4346 
L 557 -346 
L 998 -346 
L 998 160 
L 2784 160 
L 2784 4346 
L 1715 4346 
C 1824 4621 1946 4979 2054 5299 
L 1536 5389 
z
M 998 3917 
L 2342 3917 
L 2342 2566 
L 998 2566 
L 998 3917 
z
M 998 595 
L 998 2144 
L 2342 2144 
L 2342 595 
L 998 595 
z
M 3827 5402 
C 3622 4518 3277 3635 2835 3066 
C 2950 3002 3149 2867 3238 2790 
C 3456 3098 3661 3488 3840 3923 
L 5478 3923 
C 5402 1357 5299 371 5094 154 
C 5018 64 4947 45 4819 45 
C 4672 45 4288 51 3866 83 
C 3955 -38 4013 -243 4026 -378 
C 4384 -397 4762 -410 4979 -390 
C 5210 -365 5350 -314 5498 -122 
C 5754 192 5843 1184 5939 4122 
C 5946 4186 5946 4365 5946 4365 
L 4013 4365 
C 4115 4666 4211 4986 4288 5299 
L 3827 5402 
z
" transform="scale(0.015625)"/>
      <path id="NotoSansCJKjp-Regular-6a44" d="M 602 2125 
L 602 1254 
L 1030 1254 
L 1030 1811 
L 5357 1811 
L 5357 1254 
L 5798 1254 
L 5798 2125 
L 602 2125 
z
M 525 3629 
L 525 2362 
L 2989 2362 
L 2989 3629 
L 525 3629 
z
M 3411 3629 
L 3411 2362 
L 5894 2362 
L 5894 3629 
L 3411 3629 
z
M 1293 5184 
L 1293 3866 
L 5126 3866 
L 5126 5184 
L 1293 5184 
z
M 1491 1549 
L 1491 -26 
L 358 -26 
L 358 -365 
L 6042 -365 
L 6042 -26 
L 4915 -26 
L 4915 1549 
L 1491 1549 
z
M 1939 -26 
L 1939 237 
L 4454 237 
L 4454 -26 
L 1939 -26 
z
M 1939 749 
L 4454 749 
L 4454 493 
L 1939 493 
L 1939 749 
z
M 1939 998 
L 1939 1261 
L 4454 1261 
L 4454 998 
L 1939 998 
z
M 890 2874 
L 1549 2874 
L 1549 2611 
L 890 2611 
L 890 2874 
z
M 1901 2874 
L 2611 2874 
L 2611 2611 
L 1901 2611 
L 1901 2874 
z
M 890 3373 
L 1549 3373 
L 1549 3123 
L 890 3123 
L 890 3373 
z
M 1901 3373 
L 2611 3373 
L 2611 3123 
L 1901 3123 
L 1901 3373 
z
M 1715 4397 
L 2970 4397 
L 2970 4128 
L 1715 4128 
L 1715 4397 
z
M 3398 4397 
L 4691 4397 
L 4691 4128 
L 3398 4128 
L 3398 4397 
z
M 1715 4915 
L 2970 4915 
L 2970 4659 
L 1715 4659 
L 1715 4915 
z
M 3398 4915 
L 4691 4915 
L 4691 4659 
L 3398 4659 
L 3398 4915 
z
M 3782 2874 
L 4448 2874 
L 4448 2611 
L 3782 2611 
L 3782 2874 
z
M 4800 2874 
L 5517 2874 
L 5517 2611 
L 4800 2611 
L 4800 2874 
z
M 3782 3373 
L 4448 3373 
L 4448 3123 
L 3782 3123 
L 3782 3373 
z
M 4800 3373 
L 5517 3373 
L 5517 3123 
L 4800 3123 
L 4800 3373 
z
" transform="scale(0.015625)"/>
      <path id="NotoSansCJKjp-Regular-2eac" d="M 1587 3283 
L 1587 2854 
L 4819 2854 
L 4819 3283 
L 1587 3283 
z
M 3187 4890 
C 3789 4070 4915 3168 5914 2637 
C 5997 2778 6118 2944 6234 3066 
C 5216 3520 4090 4410 3405 5363 
L 2912 5363 
C 2413 4531 1338 3552 218 2982 
C 320 2880 454 2714 518 2605 
C 1613 3194 2656 4109 3187 4890 
z
M 1254 2048 
L 1254 -518 
L 1728 -518 
L 1728 -250 
L 4685 -250 
L 4685 -518 
L 5171 -518 
L 5171 2048 
L 1254 2048 
z
M 1728 179 
L 1728 1613 
L 4685 1613 
L 4685 179 
L 1728 179 
z
" transform="scale(0.015625)"/>
      <path id="NotoSansCJKjp-Regular-e6c0" d="M 3200 3482 
C 3456 3482 3686 3667 3686 3962 
C 3686 4256 3456 4442 3200 4442 
C 2944 4442 2714 4256 2714 3962 
C 2714 3667 2944 3482 3200 3482 
z
M 3200 346 
C 3456 346 3686 538 3686 826 
C 3686 1120 3456 1312 3200 1312 
C 2944 1312 2714 1120 2714 826 
C 2714 538 2944 346 3200 346 
z
" transform="scale(0.015625)"/>
      <path id="NotoSansCJKjp-Regular-2a94" d="M 1568 2784 
L 1568 2445 
L 1971 2445 
C 1875 1683 1651 1050 1222 634 
C 1299 589 1440 480 1498 429 
C 1779 723 1990 1114 2138 1581 
C 2221 1171 2381 774 2662 435 
C 2720 506 2854 608 2931 653 
C 2374 1293 2330 2112 2330 2784 
L 1568 2784 
z
M 442 4992 
L 442 4518 
L 2938 4518 
L 2938 3718 
L 672 3718 
L 672 -499 
L 1133 -499 
L 1133 3264 
L 2938 3264 
L 2938 -480 
L 3398 -480 
L 3398 3264 
L 5299 3264 
L 5299 58 
C 5299 -38 5267 -70 5171 -70 
C 5069 -77 4736 -77 4384 -64 
C 4448 -186 4525 -371 4550 -499 
C 5005 -499 5325 -493 5517 -416 
C 5709 -346 5766 -211 5766 51 
L 5766 3718 
L 3398 3718 
L 3398 4518 
L 5990 4518 
L 5990 4992 
L 442 4992 
z
M 3802 2784 
L 3802 2445 
L 4218 2445 
C 4115 1709 3891 1088 3482 678 
C 3571 634 3706 525 3763 467 
C 4038 768 4243 1158 4384 1626 
C 4474 1203 4640 794 4947 454 
C 5011 518 5146 621 5229 659 
C 4640 1293 4589 2112 4589 2784 
L 3802 2784 
z
" transform="scale(0.015625)"/>
      <path id="NotoSansCJKjp-Regular-2eb1" d="M 1587 3917 
L 1587 3501 
L 4838 3501 
L 4838 3917 
L 1587 3917 
z
M 2355 2419 
L 4045 2419 
L 4045 1203 
L 2355 1203 
L 2355 2419 
z
M 1914 2829 
L 1914 326 
L 2355 326 
L 2355 794 
L 4493 794 
L 4493 2829 
L 1914 2829 
z
M 563 5043 
L 563 -525 
L 1030 -525 
L 1030 4589 
L 5376 4589 
L 5376 102 
C 5376 -13 5338 -51 5222 -58 
C 5114 -58 4742 -64 4339 -51 
C 4416 -173 4486 -390 4512 -518 
C 5062 -518 5389 -506 5581 -429 
C 5779 -352 5850 -198 5850 96 
L 5850 5043 
L 563 5043 
z
" transform="scale(0.015625)"/>
      <path id="NotoSansCJKjp-Regular-ac12" d="M 826 2752 
C 704 2298 493 1830 230 1523 
C 333 1472 525 1370 608 1299 
C 864 1638 1107 2157 1248 2656 
L 826 2752 
z
M 3821 2688 
L 5523 2688 
L 5523 2067 
L 3821 2067 
L 3821 2688 
z
M 3821 1709 
L 5523 1709 
L 5523 1082 
L 3821 1082 
L 3821 1709 
z
M 3821 3667 
L 5523 3667 
L 5523 3053 
L 3821 3053 
L 3821 3667 
z
M 3974 595 
C 3725 314 3206 -26 2746 -211 
C 2848 -301 2995 -435 3072 -525 
C 3526 -333 4070 19 4390 346 
L 3974 595 
z
M 4870 326 
C 5222 77 5658 -288 5869 -518 
L 6246 -256 
C 6022 -19 5581 326 5229 563 
L 4870 326 
z
M 717 4870 
L 717 3450 
L 262 3450 
L 262 3014 
L 1638 3014 
L 1638 1472 
C 1638 1408 1619 1395 1562 1395 
C 1498 1382 1306 1389 1088 1395 
C 1139 1280 1190 1120 1203 998 
C 1530 998 1741 1005 1888 1069 
C 2035 1133 2067 1248 2067 1466 
L 2067 3014 
L 3251 3014 
L 3251 3450 
L 2067 3450 
L 2067 4160 
L 3085 4160 
L 3085 4576 
L 2067 4576 
L 2067 5344 
L 1638 5344 
L 1638 3450 
L 1114 3450 
L 1114 4870 
L 717 4870 
z
M 2419 2643 
C 2611 2336 2790 1939 2874 1658 
L 2592 1747 
C 2253 774 1498 160 339 -147 
C 442 -250 563 -410 608 -538 
C 1843 -154 2637 531 3008 1619 
L 2982 1626 
L 3290 1747 
C 3206 2022 2995 2451 2790 2771 
L 2419 2643 
z
M 3398 4045 
L 3398 704 
L 5958 704 
L 5958 4045 
L 4723 4045 
L 4902 4659 
L 6106 4659 
L 6106 5075 
L 3194 5075 
L 3194 4659 
L 4403 4659 
C 4371 4461 4326 4237 4282 4045 
L 3398 4045 
z
" transform="scale(0.015625)"/>
      <path id="NotoSansCJKjp-Regular-5ae7" d="M 589 4973 
C 966 4768 1453 4454 1696 4237 
L 1978 4621 
C 1734 4832 1242 5126 864 5312 
L 589 4973 
z
M 243 3238 
C 634 3053 1133 2758 1376 2547 
L 1651 2944 
C 1402 3142 896 3424 512 3597 
L 243 3238 
z
M 397 -134 
L 819 -429 
C 1152 166 1536 966 1824 1638 
L 1446 1926 
C 1133 1203 704 358 397 -134 
z
M 3821 4000 
L 3821 2867 
L 2726 2867 
L 2726 4000 
L 3821 4000 
z
M 2266 4448 
L 2266 2829 
C 2266 1901 2195 627 1498 -269 
C 1613 -314 1811 -429 1894 -506 
C 2528 314 2688 1491 2720 2438 
L 2886 2438 
C 3130 1773 3469 1197 3910 717 
C 3462 339 2931 64 2355 -128 
C 2458 -211 2605 -410 2669 -525 
C 3245 -320 3776 -19 4243 384 
C 4698 -13 5242 -320 5875 -512 
C 5946 -384 6080 -198 6189 -102 
C 5568 64 5030 346 4576 717 
C 5062 1242 5446 1914 5670 2752 
L 5370 2886 
L 5280 2867 
L 4288 2867 
L 4288 4000 
L 5498 4000 
C 5395 3706 5274 3411 5165 3206 
L 5581 3072 
C 5760 3398 5965 3917 6125 4378 
L 5779 4467 
L 5696 4448 
L 4288 4448 
L 4288 5382 
L 3821 5382 
L 3821 4448 
L 2266 4448 
z
M 3341 2438 
L 5075 2438 
C 4883 1882 4595 1414 4237 1030 
C 3853 1427 3552 1907 3341 2438 
z
" transform="scale(0.015625)"/>
      <path id="NotoSansCJKjp-Regular-4857" d="M 3482 5370 
C 3482 5005 3494 4640 3514 4288 
L 819 4288 
L 819 2490 
C 819 1658 762 550 230 -237 
C 346 -294 550 -461 634 -557 
C 1222 288 1318 1581 1318 2483 
L 1318 2528 
L 2490 2528 
C 2464 1427 2432 1018 2349 922 
C 2298 864 2240 851 2144 851 
C 2035 851 1760 851 1466 883 
C 1542 762 1594 570 1600 435 
C 1914 416 2208 416 2374 429 
C 2547 448 2656 493 2758 614 
C 2893 787 2925 1331 2957 2771 
C 2957 2835 2963 2976 2963 2976 
L 1318 2976 
L 1318 3821 
L 3546 3821 
C 3622 2784 3776 1837 4019 1101 
C 3597 614 3104 218 2534 -83 
C 2637 -179 2810 -378 2886 -480 
C 3379 -186 3821 166 4211 589 
C 4506 -70 4890 -467 5382 -467 
C 5875 -467 6054 -147 6138 947 
C 6010 992 5830 1101 5722 1210 
C 5683 358 5606 26 5421 26 
C 5094 26 4806 390 4570 1018 
C 5043 1632 5421 2362 5696 3200 
L 5216 3322 
C 5011 2675 4736 2093 4390 1581 
C 4224 2202 4102 2963 4032 3821 
L 6086 3821 
L 6086 4288 
L 4006 4288 
C 3987 4640 3981 4998 3981 5370 
L 3482 5370 
z
M 4294 5056 
C 4704 4845 5197 4518 5440 4288 
L 5741 4621 
C 5491 4838 4986 5152 4582 5350 
L 4294 5056 
z
" transform="scale(0.015625)"/>
      <path id="NotoSansCJKjp-Regular-3132" d="M 1280 4800 
L 2502 4800 
L 2502 4198 
L 1280 4198 
L 1280 4800 
z
M 845 5126 
L 845 3878 
L 2957 3878 
L 2957 5126 
L 845 5126 
z
M 3904 4800 
L 5152 4800 
L 5152 4198 
L 3904 4198 
L 3904 4800 
z
M 3475 5126 
L 3475 3878 
L 5606 3878 
L 5606 5126 
L 3475 5126 
z
M 1485 2253 
L 2931 2253 
L 2931 1696 
L 1485 1696 
L 1485 2253 
z
M 3430 2253 
L 4966 2253 
L 4966 1696 
L 3430 1696 
L 3430 2253 
z
M 1485 3168 
L 2931 3168 
L 2931 2618 
L 1485 2618 
L 1485 3168 
z
M 3430 3168 
L 4966 3168 
L 4966 2618 
L 3430 2618 
L 3430 3168 
z
M 371 819 
L 371 390 
L 2931 390 
L 2931 -512 
L 3430 -512 
L 3430 390 
L 6048 390 
L 6048 819 
L 3430 819 
L 3430 1306 
L 5453 1306 
L 5453 3552 
L 1011 3552 
L 1011 1306 
L 2931 1306 
L 2931 819 
L 371 819 
z
" transform="scale(0.015625)"/>
      <path id="NotoSansCJKjp-Regular-2509" d="M 282 2758 
L 282 2234 
L 6144 2234 
L 6144 2758 
L 282 2758 
z
" transform="scale(0.015625)"/>
     </defs>
     <use xlink:href="#NotoSansCJKjp-Regular-585c"/>
     <use xlink:href="#NotoSansCJKjp-Regular-ad9e" transform="translate(100 0)"/>
     <use xlink:href="#NotoSansCJKjp-Regular-4338" transform="translate(200 0)"/>
     <use xlink:href="#NotoSansCJKjp-Regular-6c33" transform="translate(300 0)"/>
     <use xlink:href="#NotoSansCJKjp-Regular-6a44" transform="translate(400 0)"/>
     <use xlink:href="#NotoSansCJKjp-Regular-2eac" transform="translate(500 0)"/>
     <use xlink:href="#NotoSansCJKjp-Regular-e6c0" transform="translate(600 0)"/>
     <use xlink:href="#NotoSansCJKjp-Regular-2a94" transform="translate(700 0)"/>
     <use xlink:href="#NotoSansCJKjp-Regular-2eb1" transform="translate(800 0)"/>
     <use xlink:href="#NotoSansCJKjp-Regular-ac12" transform="translate(900 0)"/>
     <use xlink:href="#NotoSansCJKjp-Regular-5ae7" transform="translate(1000 0)"/>
     <use xlink:href="#NotoSansCJKjp-Regular-2eac" transform="translate(1100 0)"/>
     <use xlink:href="#NotoSansCJKjp-Regular-4857" transform="translate(1200 0)"/>
     <use xlink:href="#NotoSansCJKjp-Regular-3132" transform="translate(1300 0)"/>
     <use xlink:href="#NotoSansCJKjp-Regular-2509" transform="translate(1400 0)"/>
     <use xlink:href="#NotoSansCJKjp-Regular-585c" transform="translate(1500 0)"/>
     <use xlink:href="#NotoSansCJKjp-Regular-4338" transform="translate(1600 0)"/>
     <use xlink:href="#NotoSansCJKjp-Regular-5ae7" transform="translate(1700 0)"/>
    </g>
   </g>
   <g id="legend_1">
    <g id="patch_5">
     <path d="M 315.544375 85.25 
L 486.044375 85.25 
Q 488.244375 85.25 488.244375 83.05 
L 488.244375 33.22 
Q 488.244375 31.02 486.044375 31.02 
L 315.544375 31.02 
Q 313.344375 31.02 313.344375 33.22 
L 313.344375 83.05 
Q 313.344375 85.25 315.544375 85.25 
z
" style="fill: #ffffff; opacity: 0.95; stroke: #cccccc; stroke-linejoin: miter"/>
    </g>
    <g id="line2d_20">
     <path d="M 317.744375 41.25 
L 328.744375 41.25 
L 339.744375 41.25 
" style="fill: none; stroke-dasharray: 6.66,2.88; stroke-dashoffset: 0; stroke: #1f6feb; stroke-width: 1.8"/>
    </g>
    <g id="text_9">
     <!-- $3\sin x$ -->
     <g style="fill: #222831" transform="translate(348.544375 45.1) scale(0.11 -0.11)">
      <defs>
       <path id="Cmr10-6e" d="M 609 494 
Q 759 275 1012 169 
Q 1266 63 1556 63 
Q 1928 63 2084 380 
Q 2241 697 2241 1100 
Q 2241 1281 2208 1462 
Q 2175 1644 2097 1800 
Q 2019 1956 1883 2050 
Q 1747 2144 1550 2144 
L 1125 2144 
Q 1069 2144 1069 2203 
L 1069 2259 
Q 1069 2309 1125 2309 
L 1478 2338 
Q 1703 2338 1851 2506 
Q 2000 2675 2069 2917 
Q 2138 3159 2138 3378 
Q 2138 3684 1994 3881 
Q 1850 4078 1556 4078 
Q 1313 4078 1091 3986 
Q 869 3894 738 3706 
Q 750 3709 759 3711 
Q 769 3713 781 3713 
Q 925 3713 1022 3613 
Q 1119 3513 1119 3372 
Q 1119 3234 1022 3134 
Q 925 3034 781 3034 
Q 641 3034 541 3134 
Q 441 3234 441 3372 
Q 441 3647 606 3850 
Q 772 4053 1033 4158 
Q 1294 4263 1556 4263 
Q 1750 4263 1965 4205 
Q 2181 4147 2356 4039 
Q 2531 3931 2642 3762 
Q 2753 3594 2753 3378 
Q 2753 3109 2633 2881 
Q 2513 2653 2303 2487 
Q 2094 2322 1844 2241 
Q 2122 2188 2372 2031 
Q 2622 1875 2773 1631 
Q 2925 1388 2925 1106 
Q 2925 753 2731 467 
Q 2538 181 2222 20 
Q 1906 -141 1556 -141 
Q 1256 -141 954 -26 
Q 653 88 461 316 
Q 269 544 269 863 
Q 269 1022 375 1128 
Q 481 1234 641 1234 
Q 744 1234 830 1186 
Q 916 1138 964 1050 
Q 1013 963 1013 863 
Q 1013 706 903 600 
Q 794 494 641 494 
L 609 494 
z
" transform="scale(0.015625)"/>
       <path id="Cmr10-52" d="M 213 -19 
L 213 1025 
Q 213 1075 269 1075 
L 347 1075 
Q 384 1075 397 1025 
Q 575 97 1259 97 
Q 1563 97 1767 234 
Q 1972 372 1972 659 
Q 1972 866 1812 1011 
Q 1653 1156 1434 1209 
L 1006 1294 
Q 791 1341 614 1437 
Q 438 1534 325 1695 
Q 213 1856 213 2069 
Q 213 2350 361 2529 
Q 509 2709 746 2789 
Q 984 2869 1259 2869 
Q 1588 2869 1831 2694 
L 2016 2853 
Q 2016 2869 2047 2869 
L 2094 2869 
Q 2113 2869 2128 2851 
Q 2144 2834 2144 2816 
L 2144 1978 
Q 2144 1919 2094 1919 
L 2016 1919 
Q 1959 1919 1959 1978 
Q 1959 2313 1773 2516 
Q 1588 2719 1253 2719 
Q 966 2719 755 2612 
Q 544 2506 544 2247 
Q 544 2069 695 1955 
Q 847 1841 1050 1791 
L 1484 1709 
Q 1703 1659 1892 1540 
Q 2081 1422 2192 1240 
Q 2303 1059 2303 831 
Q 2303 600 2223 429 
Q 2144 259 2001 146 
Q 1859 34 1665 -19 
Q 1472 -72 1259 -72 
Q 859 -72 575 197 
L 341 -56 
Q 341 -72 306 -72 
L 269 -72 
Q 213 -72 213 -19 
z
" transform="scale(0.015625)"/>
       <path id="Cmr10-24" d="M 197 0 
L 197 225 
Q 416 225 556 259 
Q 697 294 697 428 
L 697 2175 
Q 697 2422 601 2478 
Q 506 2534 225 2534 
L 225 2759 
L 1147 2828 
L 1147 428 
Q 1147 294 1269 259 
Q 1391 225 1594 225 
L 1594 0 
L 197 0 
z
M 469 3928 
Q 469 4069 575 4175 
Q 681 4281 819 4281 
Q 909 4281 993 4234 
Q 1078 4188 1125 4103 
Q 1172 4019 1172 3928 
Q 1172 3791 1065 3684 
Q 959 3578 819 3578 
Q 681 3578 575 3684 
Q 469 3791 469 3928 
z
" transform="scale(0.015625)"/>
       <path id="Cmr10-74" d="M 191 0 
L 191 225 
Q 409 225 550 259 
Q 691 294 691 428 
L 691 2175 
Q 691 2347 639 2423 
Q 588 2500 491 2517 
Q 394 2534 191 2534 
L 191 2759 
L 1119 2828 
L 1119 2203 
Q 1247 2478 1498 2653 
Q 1750 2828 2047 2828 
Q 2491 2828 2714 2615 
Q 2938 2403 2938 1966 
L 2938 428 
Q 2938 294 3078 259 
Q 3219 225 3438 225 
L 3438 0 
L 1972 0 
L 1972 225 
Q 2191 225 2331 259 
Q 2472 294 2472 428 
L 2472 1947 
Q 2472 2259 2381 2461 
Q 2291 2663 2009 2663 
Q 1638 2663 1398 2366 
Q 1159 2069 1159 1691 
L 1159 428 
Q 1159 294 1300 259 
Q 1441 225 1656 225 
L 1656 0 
L 191 0 
z
" transform="scale(0.015625)"/>
       <path id="Cmmi10-3f" d="M 500 184 
Q 613 97 819 97 
Q 1019 97 1172 289 
Q 1325 481 1381 709 
L 1672 1844 
Q 1741 2153 1741 2266 
Q 1741 2425 1652 2544 
Q 1563 2663 1403 2663 
Q 1200 2663 1022 2536 
Q 844 2409 722 2214 
Q 600 2019 550 1819 
Q 538 1778 500 1778 
L 422 1778 
Q 372 1778 372 1838 
L 372 1856 
Q 434 2094 584 2320 
Q 734 2547 951 2687 
Q 1169 2828 1416 2828 
Q 1650 2828 1839 2703 
Q 2028 2578 2106 2363 
Q 2216 2559 2386 2693 
Q 2556 2828 2759 2828 
Q 2897 2828 3040 2779 
Q 3184 2731 3275 2631 
Q 3366 2531 3366 2381 
Q 3366 2219 3261 2101 
Q 3156 1984 2994 1984 
Q 2891 1984 2822 2050 
Q 2753 2116 2753 2216 
Q 2753 2350 2845 2451 
Q 2938 2553 3066 2572 
Q 2950 2663 2747 2663 
Q 2541 2663 2389 2472 
Q 2238 2281 2175 2047 
L 1894 916 
Q 1825 659 1825 494 
Q 1825 331 1917 214 
Q 2009 97 2163 97 
Q 2463 97 2698 361 
Q 2934 625 3009 941 
Q 3022 978 3059 978 
L 3138 978 
Q 3163 978 3178 961 
Q 3194 944 3194 922 
Q 3194 916 3188 903 
Q 3097 522 2806 225 
Q 2516 -72 2150 -72 
Q 1916 -72 1727 54 
Q 1538 181 1459 397 
Q 1359 209 1182 68 
Q 1006 -72 806 -72 
Q 669 -72 523 -23 
Q 378 25 287 125 
Q 197 225 197 378 
Q 197 528 301 651 
Q 406 775 563 775 
Q 669 775 741 711 
Q 813 647 813 544 
Q 813 409 723 309 
Q 634 209 500 184 
z
" transform="scale(0.015625)"/>
      </defs>
      <use xlink:href="#Cmr10-6e" transform="translate(0 0.109375)"/>
      <use xlink:href="#Cmr10-52" transform="translate(50 0.109375)"/>
      <use xlink:href="#Cmr10-24" transform="translate(89.404297 0.109375)"/>
      <use xlink:href="#Cmr10-74" transform="translate(117.089844 0.109375)"/>
      <use xlink:href="#Cmmi10-3f" transform="translate(189.27447 0.109375)"/>
     </g>
    </g>
    <g id="line2d_21">
     <path d="M 317.744375 57.75 
L 328.744375 57.75 
L 339.744375 57.75 
" style="fill: none; stroke-dasharray: 6.66,2.88; stroke-dashoffset: 0; stroke: #1a7f37; stroke-width: 1.8"/>
    </g>
    <g id="text_10">
     <!-- $4\cos x$ -->
     <g style="fill: #222831" transform="translate(348.544375 61.6) scale(0.11 -0.11)">
      <defs>
       <path id="Cmr10-3b" d="M 178 1056 
L 178 1281 
L 2156 4231 
Q 2178 4263 2222 4263 
L 2316 4263 
Q 2388 4263 2388 4191 
L 2388 1281 
L 3016 1281 
L 3016 1056 
L 2388 1056 
L 2388 428 
Q 2388 297 2575 261 
Q 2763 225 3009 225 
L 3009 0 
L 1247 0 
L 1247 225 
Q 1494 225 1681 261 
Q 1869 297 1869 428 
L 1869 1056 
L 178 1056 
z
M 391 1281 
L 1906 1281 
L 1906 3547 
L 391 1281 
z
" transform="scale(0.015625)"/>
       <path id="Cmr10-7b" d="M 1594 -72 
Q 1206 -72 890 129 
Q 575 331 394 667 
Q 213 1003 213 1381 
Q 213 1759 392 2106 
Q 572 2453 889 2661 
Q 1206 2869 1594 2869 
Q 1969 2869 2276 2722 
Q 2584 2575 2584 2241 
Q 2584 2116 2495 2023 
Q 2406 1931 2278 1931 
Q 2150 1931 2061 2023 
Q 1972 2116 1972 2241 
Q 1972 2353 2044 2436 
Q 2116 2519 2222 2541 
Q 2000 2681 1600 2681 
Q 1294 2681 1106 2478 
Q 919 2275 844 1975 
Q 769 1675 769 1381 
Q 769 1072 861 783 
Q 953 494 1158 305 
Q 1363 116 1672 116 
Q 1975 116 2187 302 
Q 2400 488 2478 788 
Q 2478 825 2528 825 
L 2606 825 
Q 2625 825 2640 808 
Q 2656 791 2656 769 
L 2656 750 
Q 2559 372 2271 150 
Q 1984 -72 1594 -72 
z
" transform="scale(0.015625)"/>
       <path id="Cmr10-42" d="M 1600 -72 
Q 1216 -72 887 123 
Q 559 319 368 647 
Q 178 975 178 1363 
Q 178 1656 283 1928 
Q 388 2200 583 2414 
Q 778 2628 1037 2748 
Q 1297 2869 1600 2869 
Q 1994 2869 2317 2661 
Q 2641 2453 2828 2104 
Q 3016 1756 3016 1363 
Q 3016 978 2825 648 
Q 2634 319 2307 123 
Q 1981 -72 1600 -72 
z
M 1600 116 
Q 2113 116 2284 487 
Q 2456 859 2456 1434 
Q 2456 1756 2422 1967 
Q 2388 2178 2272 2350 
Q 2200 2456 2089 2536 
Q 1978 2616 1854 2658 
Q 1731 2700 1600 2700 
Q 1400 2700 1220 2609 
Q 1041 2519 922 2350 
Q 803 2169 770 1951 
Q 738 1734 738 1434 
Q 738 1075 800 789 
Q 863 503 1052 309 
Q 1241 116 1600 116 
z
" transform="scale(0.015625)"/>
      </defs>
      <use xlink:href="#Cmr10-3b" transform="translate(0 0.390625)"/>
      <use xlink:href="#Cmr10-7b" transform="translate(50 0.390625)"/>
      <use xlink:href="#Cmr10-42" transform="translate(94.384766 0.390625)"/>
      <use xlink:href="#Cmr10-52" transform="translate(144.384766 0.390625)"/>
      <use xlink:href="#Cmmi10-3f" transform="translate(200.45611 0.390625)"/>
     </g>
    </g>
    <g id="line2d_22">
     <path d="M 317.744375 74.25 
L 328.744375 74.25 
L 339.744375 74.25 
" style="fill: none; stroke: #d1242f; stroke-width: 3; stroke-linecap: square"/>
    </g>
    <g id="text_11">
     <!-- $3\sin x+4\cos x=5\sin(x+\varphi)$ -->
     <g style="fill: #222831" transform="translate(348.544375 78.1) scale(0.11 -0.11)">
      <defs>
       <path id="Cmr10-4c" d="M 481 1472 
Q 428 1472 393 1512 
Q 359 1553 359 1600 
Q 359 1647 393 1687 
Q 428 1728 481 1728 
L 2363 1728 
L 2363 3616 
Q 2363 3666 2400 3698 
Q 2438 3731 2491 3731 
Q 2538 3731 2578 3698 
Q 2619 3666 2619 3616 
L 2619 1728 
L 4500 1728 
Q 4547 1728 4581 1687 
Q 4616 1647 4616 1600 
Q 4616 1553 4581 1512 
Q 4547 1472 4500 1472 
L 2619 1472 
L 2619 -416 
Q 2619 -466 2578 -498 
Q 2538 -531 2491 -531 
Q 2438 -531 2400 -498 
Q 2363 -466 2363 -416 
L 2363 1472 
L 481 1472 
z
" transform="scale(0.015625)"/>
       <path id="Cmr10-77" d="M 1984 -1588 
Q 1628 -1306 1370 -942 
Q 1113 -578 948 -165 
Q 784 247 703 697 
Q 622 1147 622 1600 
Q 622 2059 703 2509 
Q 784 2959 951 3375 
Q 1119 3791 1378 4153 
Q 1638 4516 1984 4788 
Q 1984 4800 2016 4800 
L 2075 4800 
Q 2094 4800 2109 4783 
Q 2125 4766 2125 4744 
Q 2125 4716 2113 4703 
Q 1800 4397 1592 4047 
Q 1384 3697 1257 3301 
Q 1131 2906 1075 2482 
Q 1019 2059 1019 1600 
Q 1019 -434 2106 -1491 
Q 2125 -1509 2125 -1544 
Q 2125 -1559 2108 -1579 
Q 2091 -1600 2075 -1600 
L 2016 -1600 
Q 1984 -1600 1984 -1588 
z
" transform="scale(0.015625)"/>
       <path id="Cmmi10-6" d="M 1044 -1216 
Q 1044 -1191 1056 -1141 
L 1416 -13 
Q 938 106 628 428 
Q 319 750 319 1216 
Q 319 1450 406 1744 
Q 494 2038 631 2302 
Q 769 2566 928 2741 
Q 966 2759 972 2759 
L 1050 2759 
Q 1069 2759 1084 2740 
Q 1100 2722 1100 2700 
Q 1100 2675 1088 2663 
Q 981 2547 879 2380 
Q 778 2213 698 2028 
Q 619 1844 566 1641 
Q 513 1438 513 1288 
Q 513 909 814 676 
Q 1116 444 1528 366 
L 1709 941 
Q 1828 1313 1945 1605 
Q 2063 1897 2239 2176 
Q 2416 2456 2666 2642 
Q 2916 2828 3225 2828 
Q 3469 2828 3633 2706 
Q 3797 2584 3876 2381 
Q 3956 2178 3956 1947 
Q 3956 1566 3787 1202 
Q 3619 838 3325 548 
Q 3031 259 2662 93 
Q 2294 -72 1919 -72 
Q 1869 -69 1811 -66 
Q 1753 -63 1716 -63 
L 1503 -1178 
Q 1484 -1272 1407 -1333 
Q 1331 -1394 1234 -1394 
Q 1156 -1394 1100 -1345 
Q 1044 -1297 1044 -1216 
z
M 1784 331 
Q 1856 325 1991 325 
Q 2388 325 2798 520 
Q 3209 716 3479 1056 
Q 3750 1397 3750 1797 
Q 3750 1978 3676 2122 
Q 3603 2266 3470 2348 
Q 3338 2431 3163 2431 
Q 2666 2431 2331 1950 
Q 1997 1469 1894 916 
L 1784 331 
z
" transform="scale(0.015625)"/>
       <path id="Cmr10-44" d="M 416 -1600 
Q 359 -1600 359 -1544 
Q 359 -1516 372 -1503 
Q 1466 -434 1466 1600 
Q 1466 3634 384 4691 
Q 359 4706 359 4744 
Q 359 4766 376 4783 
Q 394 4800 416 4800 
L 475 4800 
Q 494 4800 506 4788 
Q 966 4425 1272 3906 
Q 1578 3388 1720 2800 
Q 1863 2213 1863 1600 
Q 1863 1147 1786 708 
Q 1709 269 1542 -157 
Q 1375 -584 1119 -945 
Q 863 -1306 506 -1588 
Q 494 -1600 475 -1600 
L 416 -1600 
z
" transform="scale(0.015625)"/>
      </defs>
      <use xlink:href="#Cmr10-6e"/>
      <use xlink:href="#Cmr10-52" transform="translate(50 0)"/>
      <use xlink:href="#Cmr10-24" transform="translate(89.404297 0)"/>
      <use xlink:href="#Cmr10-74" transform="translate(117.089844 0)"/>
      <use xlink:href="#Cmmi10-3f" transform="translate(189.27447 0)"/>
      <use xlink:href="#Cmr10-4c" transform="translate(266.354605 0)"/>
      <use xlink:href="#Cmr10-3b" transform="translate(364.040209 0)"/>
      <use xlink:href="#Cmr10-7b" transform="translate(414.040209 0)"/>
      <use xlink:href="#Cmr10-42" transform="translate(458.424975 0)"/>
      <use xlink:href="#Cmr10-52" transform="translate(508.424975 0)"/>
      <use xlink:href="#Cmmi10-3f" transform="translate(564.496319 0)"/>
      <use xlink:href="#Cmr10-29" transform="translate(641.576455 0)"/>
      <use xlink:href="#Cmr10-78" transform="translate(739.262059 0)"/>
      <use xlink:href="#Cmr10-52" transform="translate(789.262059 0)"/>
      <use xlink:href="#Cmr10-24" transform="translate(828.666356 0)"/>
      <use xlink:href="#Cmr10-74" transform="translate(856.351902 0)"/>
      <use xlink:href="#Cmr10-77" transform="translate(911.869481 0)"/>
      <use xlink:href="#Cmmi10-3f" transform="translate(950.68784 0)"/>
      <use xlink:href="#Cmr10-4c" transform="translate(1027.767975 0)"/>
      <use xlink:href="#Cmmi10-6" transform="translate(1125.453579 0)"/>
      <use xlink:href="#Cmr10-44" transform="translate(1190.834439 0)"/>
     </g>
    </g>
   </g>
  </g>
 </g>
 <defs>
  <clipPath id="p63152b8c48">
   <rect x="25.024375" y="25.52" width="468.72" height="277.2"/>
  </clipPath>
 </defs>
</svg>
