<?xml version="1.0" encoding="utf-8" standalone="no"?>
<!DOCTYPE svg PUBLIC "-//W3C//DTD SVG 1.1//EN"
  "http://www.w3.org/Graphics/SVG/1.1/DTD/svg11.dtd">
<svg xmlns:xlink="http://www.w3.org/1999/xlink" width="438.208pt" height="343.184pt" viewBox="0 0 438.208 343.184" xmlns="http://www.w3.org/2000/svg" version="1.1">
 <metadata>
  <rdf:RDF xmlns:dc="http://purl.org/dc/elements/1.1/" xmlns:cc="http://creativecommons.org/ns#" xmlns:rdf="http://www.w3.org/1999/02/22-rdf-syntax-ns#">
   <cc:Work>
    <dc:type rdf:resource="http://purl.org/dc/dcmitype/StillImage"/>
    <dc:date>2026-06-17T18:14:18.645260</dc:date>
    <dc:format>image/svg+xml</dc:format>
    <dc:creator>
     <cc:Agent>
      <dc:title>Matplotlib v3.11.0, https://matplotlib.org/</dc:title>
     </cc:Agent>
    </dc:creator>
   </cc:Work>
  </rdf:RDF>
 </metadata>
 <defs>
  <style type="text/css">*{stroke-linejoin: round; stroke-linecap: butt}</style>
 </defs>
 <g id="figure_1">
  <g id="patch_1">
   <path d="M 0 343.184 
L 438.208 343.184 
L 438.208 0 
L 0 0 
z
" style="fill: #ffffff"/>
  </g>
  <g id="axes_1">
   <g id="patch_2">
    <path d="M 31.84 91.5552 
L 238.816 91.5552 
Q 244.7296 91.5552 244.7296 85.6416 
L 244.7296 63.9584 
Q 244.7296 58.0448 238.816 58.0448 
L 31.84 58.0448 
Q 25.9264 58.0448 25.9264 63.9584 
L 25.9264 85.6416 
Q 25.9264 91.5552 31.84 91.5552 
z
" clip-path="url(#pd1c6053b89)" style="fill: #dbe7ff; stroke: #222831; stroke-width: 1.4; stroke-linejoin: miter"/>
   </g>
   <g id="patch_3">
    <path d="M 31.84 136.8928 
L 238.816 136.8928 
Q 244.7296 136.8928 244.7296 130.9792 
L 244.7296 109.296 
Q 244.7296 103.3824 238.816 103.3824 
L 31.84 103.3824 
Q 25.9264 103.3824 25.9264 109.296 
L 25.9264 130.9792 
Q 25.9264 136.8928 31.84 136.8928 
z
" clip-path="url(#pd1c6053b89)" style="fill: #dbe7ff; stroke: #222831; stroke-width: 1.4; stroke-linejoin: miter"/>
   </g>
   <g id="patch_4">
    <path d="M 31.84 182.2304 
L 238.816 182.2304 
Q 244.7296 182.2304 244.7296 176.3168 
L 244.7296 154.6336 
Q 244.7296 148.72 238.816 148.72 
L 31.84 148.72 
Q 25.9264 148.72 25.9264 154.6336 
L 25.9264 176.3168 
Q 25.9264 182.2304 31.84 182.2304 
z
" clip-path="url(#pd1c6053b89)" style="fill: #cfe8d8; stroke: #222831; stroke-width: 1.4; stroke-linejoin: miter"/>
   </g>
   <g id="patch_5">
    <path d="M 31.84 227.568 
L 238.816 227.568 
Q 244.7296 227.568 244.7296 221.6544 
L 244.7296 199.9712 
Q 244.7296 194.0576 238.816 194.0576 
L 31.84 194.0576 
Q 25.9264 194.0576 25.9264 199.9712 
L 25.9264 221.6544 
Q 25.9264 227.568 31.84 227.568 
z
" clip-path="url(#pd1c6053b89)" style="fill: #ffe2c2; stroke: #222831; stroke-width: 1.4; stroke-linejoin: miter"/>
   </g>
   <g id="patch_6">
    <path d="M 31.84 272.9056 
L 238.816 272.9056 
Q 244.7296 272.9056 244.7296 266.992 
L 244.7296 245.3088 
Q 244.7296 239.3952 238.816 239.3952 
L 31.84 239.3952 
Q 25.9264 239.3952 25.9264 245.3088 
L 25.9264 266.992 
Q 25.9264 272.9056 31.84 272.9056 
z
" clip-path="url(#pd1c6053b89)" style="fill: #ffe2c2; stroke: #222831; stroke-width: 1.4; stroke-linejoin: miter"/>
   </g>
   <g id="patch_7">
    <path d="M 31.84 318.2432 
L 238.816 318.2432 
Q 244.7296 318.2432 244.7296 312.3296 
L 244.7296 290.6464 
Q 244.7296 284.7328 238.816 284.7328 
L 31.84 284.7328 
Q 25.9264 284.7328 25.9264 290.6464 
L 25.9264 312.3296 
Q 25.9264 318.2432 31.84 318.2432 
z
" clip-path="url(#pd1c6053b89)" style="fill: #f3d6f0; stroke: #222831; stroke-width: 1.4; stroke-linejoin: miter"/>
   </g>
   <g id="text_1">
    <!-- 「放大來看」一層一層拆開 -->
    <g style="fill: #222831" transform="translate(63.328 44.2464) scale(0.12 -0.12)">
     <defs>
      <path id="NotoSansCJKjp-Regular-580" d="M 4160 5414 
L 4160 1274 
L 4634 1274 
L 4634 4973 
L 6182 4973 
L 6182 5414 
L 4160 5414 
z
" transform="scale(0.015625)"/>
      <path id="NotoSansCJKjp-Regular-4dd1" d="M 1453 5363 
L 1453 4339 
L 282 4339 
L 282 3891 
L 1037 3891 
L 1037 2560 
C 1037 1651 941 640 160 -192 
C 275 -275 435 -403 518 -506 
C 1370 403 1498 1491 1498 2554 
L 1498 2592 
L 2374 2592 
C 2330 800 2285 166 2176 26 
C 2125 -51 2074 -64 1978 -64 
C 1882 -64 1638 -58 1370 -38 
C 1446 -160 1491 -352 1498 -486 
C 1773 -493 2042 -493 2195 -480 
C 2368 -461 2477 -410 2579 -269 
C 2752 -51 2784 678 2829 2816 
C 2835 2886 2835 3040 2835 3040 
L 1498 3040 
L 1498 3891 
L 3123 3891 
L 3123 4339 
L 1926 4339 
L 1926 5363 
L 1453 5363 
z
M 3974 3731 
L 5203 3731 
C 5069 2912 4870 2214 4570 1638 
C 4282 2221 4077 2899 3942 3635 
L 3974 3731 
z
M 3872 5382 
C 3686 4275 3354 3200 2848 2528 
C 2963 2451 3174 2298 3258 2214 
C 3405 2419 3533 2662 3654 2918 
C 3814 2272 4019 1683 4282 1171 
C 3898 627 3379 205 2688 -102 
C 2778 -205 2918 -416 2963 -525 
C 3629 -198 4141 218 4544 730 
C 4890 205 5325 -211 5869 -499 
C 5939 -371 6093 -186 6202 -90 
C 5632 179 5184 608 4832 1158 
C 5248 1850 5510 2694 5683 3731 
L 6157 3731 
L 6157 4179 
L 4109 4179 
C 4211 4538 4294 4922 4365 5306 
L 3872 5382 
z
" transform="scale(0.015625)"/>
      <path id="NotoSansCJKjp-Regular-36fb" d="M 2950 5370 
C 2944 4864 2950 4218 2854 3539 
L 397 3539 
L 397 3046 
L 2771 3046 
C 2515 1830 1875 589 275 -102 
C 410 -205 563 -378 640 -499 
C 2202 218 2893 1446 3206 2682 
C 3706 1222 4531 90 5773 -499 
C 5856 -358 6010 -160 6131 -51 
C 4890 467 4051 1632 3603 3046 
L 6029 3046 
L 6029 3539 
L 3366 3539 
C 3456 4211 3462 4851 3469 5370 
L 2950 5370 
z
" transform="scale(0.015625)"/>
      <path id="NotoSansCJKjp-Regular-273f" d="M 2931 5370 
L 2931 4480 
L 461 4480 
L 461 4013 
L 2931 4013 
L 2931 2438 
C 2349 1504 1280 614 237 186 
C 346 90 499 -96 576 -218 
C 1427 179 2298 877 2931 1696 
L 2931 -512 
L 3430 -512 
L 3430 1709 
C 4058 877 4934 160 5818 -237 
C 5894 -102 6048 90 6170 198 
C 5082 608 3994 1517 3430 2483 
L 3430 4013 
L 5984 4013 
L 5984 4480 
L 3430 4480 
L 3430 5370 
L 2931 5370 
z
M 1581 3866 
C 1389 3034 992 2336 410 1901 
C 518 1830 704 1677 787 1587 
C 1101 1850 1376 2195 1600 2598 
C 1830 2381 2067 2144 2202 1978 
L 2528 2310 
C 2368 2496 2067 2771 1798 3014 
C 1901 3251 1990 3507 2054 3776 
L 1581 3866 
z
M 4614 3866 
C 4474 3142 4166 2522 3706 2125 
C 3821 2067 4019 1939 4109 1862 
C 4326 2067 4512 2330 4672 2624 
C 5050 2304 5459 1946 5677 1702 
L 6016 2035 
C 5760 2291 5267 2707 4858 3027 
C 4954 3264 5024 3514 5082 3782 
L 4614 3866 
z
" transform="scale(0.015625)"/>
      <path id="NotoSansCJKjp-Regular-6d07" d="M 2125 1370 
L 4915 1370 
L 4915 922 
L 2125 922 
L 2125 1370 
z
M 2125 1709 
L 2125 2144 
L 4915 2144 
L 4915 1709 
L 2125 1709 
z
M 2125 589 
L 4915 589 
L 4915 115 
L 2125 115 
L 2125 589 
z
M 5286 5325 
C 4262 5120 2317 5024 755 5011 
C 800 4909 845 4749 851 4640 
C 1408 4640 2010 4653 2611 4678 
C 2566 4531 2522 4384 2470 4237 
L 845 4237 
L 845 3853 
L 2330 3853 
C 2266 3693 2195 3533 2112 3373 
L 378 3373 
L 378 2976 
L 1894 2976 
C 1491 2298 941 1709 211 1293 
C 314 1197 454 1024 518 915 
C 960 1178 1338 1498 1664 1862 
L 1664 -525 
L 2125 -525 
L 2125 -269 
L 4915 -269 
L 4915 -525 
L 5395 -525 
L 5395 2528 
L 2176 2528 
C 2272 2675 2362 2822 2445 2976 
L 6022 2976 
L 6022 3373 
L 2643 3373 
C 2720 3533 2790 3693 2854 3853 
L 5651 3853 
L 5651 4237 
L 2995 4237 
L 3142 4704 
C 4064 4762 4947 4851 5594 4979 
L 5286 5325 
z
" transform="scale(0.015625)"/>
      <path id="NotoSansCJKjp-Regular-581" d="M 2240 -550 
L 2240 3590 
L 1766 3590 
L 1766 -109 
L 218 -109 
L 218 -550 
L 2240 -550 
z
" transform="scale(0.015625)"/>
      <path id="NotoSansCJKjp-Regular-2509" d="M 282 2758 
L 282 2234 
L 6144 2234 
L 6144 2758 
L 282 2758 
z
" transform="scale(0.015625)"/>
      <path id="NotoSansCJKjp-Regular-3dfa" d="M 1382 4691 
L 5203 4691 
L 5203 4154 
L 1382 4154 
L 1382 4691 
z
M 1702 3334 
L 1702 1658 
L 5670 1658 
L 5670 3334 
L 4685 3334 
C 4794 3450 4909 3584 5018 3718 
L 4858 3770 
L 5683 3770 
L 5683 5075 
L 902 5075 
L 902 3206 
C 902 2182 845 768 211 -237 
C 333 -288 538 -403 627 -486 
C 1293 563 1382 2125 1382 3206 
L 1382 3770 
L 2432 3770 
L 2266 3706 
C 2374 3603 2477 3462 2554 3334 
L 1702 3334 
z
M 2707 3770 
L 4550 3770 
C 4454 3629 4326 3462 4218 3334 
L 3014 3334 
C 2963 3469 2842 3635 2707 3770 
z
M 2458 390 
L 4941 390 
L 4941 13 
L 2458 13 
L 2458 390 
z
M 2458 685 
L 2458 1043 
L 4941 1043 
L 4941 685 
L 2458 685 
z
M 1990 1376 
L 1990 -512 
L 2458 -512 
L 2458 -314 
L 4941 -314 
L 4941 -499 
L 5427 -499 
L 5427 1376 
L 1990 1376 
z
M 2157 2355 
L 3430 2355 
L 3430 1958 
L 2157 1958 
L 2157 2355 
z
M 3878 2355 
L 5203 2355 
L 5203 1958 
L 3878 1958 
L 3878 2355 
z
M 2157 3034 
L 3430 3034 
L 3430 2650 
L 2157 2650 
L 2157 3034 
z
M 3878 3034 
L 5203 3034 
L 5203 2650 
L 3878 2650 
L 3878 3034 
z
" transform="scale(0.015625)"/>
      <path id="NotoSansCJKjp-Regular-4976" d="M 3482 1754 
C 3821 1632 4198 1485 4563 1325 
L 4563 -506 
L 5024 -506 
L 5024 1120 
C 5389 947 5722 774 5952 627 
L 6163 1043 
C 5888 1210 5472 1414 5024 1606 
L 5024 2816 
L 6157 2816 
L 6157 3264 
L 3309 3264 
L 3309 4371 
C 4186 4493 5178 4678 5862 4915 
L 5498 5286 
C 4979 5088 4122 4902 3309 4768 
L 2842 4851 
L 2842 2733 
C 2842 1837 2771 691 2106 -141 
C 2227 -198 2394 -358 2458 -461 
C 3213 448 3309 1779 3309 2726 
L 3309 2816 
L 4563 2816 
L 4563 1792 
C 4256 1914 3955 2029 3680 2118 
L 3482 1754 
z
M 1197 5376 
L 1197 4083 
L 282 4083 
L 282 3629 
L 1197 3629 
L 1197 2259 
L 179 1984 
L 320 1517 
L 1197 1779 
L 1197 51 
C 1197 -38 1158 -64 1075 -70 
C 992 -70 723 -70 435 -64 
C 499 -192 563 -390 582 -506 
C 1011 -512 1267 -493 1440 -422 
C 1600 -346 1664 -218 1664 58 
L 1664 1920 
L 2477 2170 
L 2419 2618 
L 1664 2394 
L 1664 3629 
L 2406 3629 
L 2406 4083 
L 1664 4083 
L 1664 5376 
L 1197 5376 
z
" transform="scale(0.015625)"/>
      <path id="NotoSansCJKjp-Regular-a767" d="M 3622 2144 
L 3622 1446 
L 2726 1446 
L 2726 2144 
L 3622 2144 
z
M 1491 1446 
L 1491 1037 
L 2291 1037 
C 2246 666 2067 134 1530 -192 
C 1632 -262 1779 -397 1850 -486 
C 2464 -70 2669 608 2714 1037 
L 3622 1037 
L 3622 -390 
L 4051 -390 
L 4051 1037 
L 4922 1037 
L 4922 1446 
L 4051 1446 
L 4051 2144 
L 4787 2144 
L 4787 2541 
L 1606 2541 
L 1606 2144 
L 2304 2144 
L 2304 1446 
L 1491 1446 
z
M 2451 3872 
L 2451 3315 
L 1043 3315 
L 1043 3872 
L 2451 3872 
z
M 2451 4211 
L 1043 4211 
L 1043 4736 
L 2451 4736 
L 2451 4211 
z
M 5389 3872 
L 5389 3309 
L 3930 3309 
L 3930 3872 
L 5389 3872 
z
M 5389 4211 
L 3930 4211 
L 3930 4736 
L 5389 4736 
L 5389 4211 
z
M 5619 5101 
L 3475 5101 
L 3475 2938 
L 5389 2938 
L 5389 115 
C 5389 13 5357 -19 5254 -26 
C 5152 -26 4813 -26 4461 -19 
C 4531 -147 4595 -371 4608 -499 
C 5101 -506 5421 -493 5613 -416 
C 5798 -333 5862 -179 5862 109 
L 5862 5101 
L 5619 5101 
z
M 570 5101 
L 570 -518 
L 1043 -518 
L 1043 2944 
L 2906 2944 
L 2906 5101 
L 570 5101 
z
" transform="scale(0.015625)"/>
     </defs>
     <use xlink:href="#NotoSansCJKjp-Regular-580"/>
     <use xlink:href="#NotoSansCJKjp-Regular-4dd1" transform="translate(100 0)"/>
     <use xlink:href="#NotoSansCJKjp-Regular-36fb" transform="translate(200 0)"/>
     <use xlink:href="#NotoSansCJKjp-Regular-273f" transform="translate(300 0)"/>
     <use xlink:href="#NotoSansCJKjp-Regular-6d07" transform="translate(400 0)"/>
     <use xlink:href="#NotoSansCJKjp-Regular-581" transform="translate(500 0)"/>
     <use xlink:href="#NotoSansCJKjp-Regular-2509" transform="translate(600 0)"/>
     <use xlink:href="#NotoSansCJKjp-Regular-3dfa" transform="translate(700 0)"/>
     <use xlink:href="#NotoSansCJKjp-Regular-2509" transform="translate(800 0)"/>
     <use xlink:href="#NotoSansCJKjp-Regular-3dfa" transform="translate(900 0)"/>
     <use xlink:href="#NotoSansCJKjp-Regular-4976" transform="translate(1000 0)"/>
     <use xlink:href="#NotoSansCJKjp-Regular-a767" transform="translate(1100 0)"/>
    </g>
   </g>
   <g id="text_2">
    <!-- 尺度 -->
    <g style="fill: #d1242f" transform="translate(395.688 44.2464) scale(0.115 -0.115)">
     <defs>
      <path id="NotoSansCJKjp-Regular-3db8" d="M 1139 5069 
L 1139 3258 
C 1139 2208 1062 800 211 -198 
C 320 -256 525 -435 608 -538 
C 1338 314 1568 1530 1632 2554 
L 3290 2554 
C 3699 1056 4467 -13 5798 -499 
C 5869 -358 6016 -166 6131 -58 
C 4896 326 4147 1280 3782 2554 
L 5510 2554 
L 5510 5069 
L 1139 5069 
z
M 1651 4595 
L 5018 4595 
L 5018 3021 
L 1651 3021 
L 1651 3258 
L 1651 4595 
z
" transform="scale(0.015625)"/>
      <path id="NotoSansCJKjp-Regular-4231" d="M 2470 4141 
L 2470 3584 
L 1440 3584 
L 1440 3187 
L 2470 3187 
L 2470 2125 
L 4960 2125 
L 4960 3187 
L 5997 3187 
L 5997 3584 
L 4960 3584 
L 4960 4141 
L 4486 4141 
L 4486 3584 
L 2931 3584 
L 2931 4141 
L 2470 4141 
z
M 4486 3187 
L 4486 2509 
L 2931 2509 
L 2931 3187 
L 4486 3187 
z
M 4851 1318 
C 4582 986 4211 717 3770 506 
C 3334 723 2970 992 2720 1318 
L 4851 1318 
z
M 1530 1715 
L 1530 1318 
L 2502 1318 
L 2259 1222 
C 2515 858 2861 550 3270 301 
C 2662 90 1978 -38 1280 -109 
C 1357 -211 1453 -397 1485 -512 
C 2291 -416 3072 -243 3757 45 
C 4365 -237 5088 -422 5869 -525 
C 5933 -403 6048 -211 6150 -109 
C 5466 -38 4819 96 4269 294 
C 4813 608 5261 1024 5549 1574 
L 5248 1734 
L 5165 1715 
L 1530 1715 
z
M 774 4742 
L 774 2893 
C 774 1965 730 659 198 -256 
C 314 -307 512 -435 595 -518 
C 1152 448 1235 1901 1235 2893 
L 1235 4307 
L 6035 4307 
L 6035 4742 
L 3635 4742 
L 3635 5376 
L 3142 5376 
L 3142 4742 
L 774 4742 
z
" transform="scale(0.015625)"/>
     </defs>
     <use xlink:href="#NotoSansCJKjp-Regular-3db8"/>
     <use xlink:href="#NotoSansCJKjp-Regular-4231" transform="translate(100 0)"/>
    </g>
   </g>
   <g id="text_3">
    <!-- 物質的組成階層 -->
    <g style="fill: #222831" transform="translate(170.104 19.52) scale(0.14 -0.14)">
     <defs>
      <path id="NotoSansCJKjp-Regular-64fb" d="M 3418 5376 
C 3206 4403 2822 3488 2285 2906 
C 2394 2842 2579 2707 2656 2630 
C 2938 2957 3181 3379 3392 3853 
L 3942 3853 
C 3648 2822 3078 1747 2400 1210 
C 2528 1139 2682 1024 2778 928 
C 3482 1542 4064 2746 4358 3853 
L 4883 3853 
C 4550 2234 3859 640 2803 -115 
C 2938 -179 3110 -307 3206 -403 
C 4269 442 4979 2163 5306 3853 
L 5606 3853 
C 5478 1299 5338 346 5133 115 
C 5062 32 4998 13 4890 13 
C 4768 13 4512 19 4224 45 
C 4301 -90 4346 -294 4358 -435 
C 4640 -454 4915 -454 5088 -435 
C 5280 -410 5408 -358 5536 -179 
C 5792 134 5933 1139 6074 4058 
C 6080 4122 6086 4301 6086 4301 
L 3571 4301 
C 3680 4614 3782 4954 3859 5293 
L 3418 5376 
z
M 627 5005 
C 550 4218 422 3405 186 2867 
C 288 2822 474 2707 550 2650 
C 659 2912 755 3245 832 3603 
L 1421 3603 
L 1421 2157 
C 973 2029 550 1907 224 1824 
L 352 1363 
L 1421 1696 
L 1421 -512 
L 1869 -512 
L 1869 1837 
L 2675 2093 
L 2611 2515 
L 1869 2291 
L 1869 3603 
L 2528 3603 
L 2528 4064 
L 1869 4064 
L 1869 5370 
L 1421 5370 
L 1421 4064 
L 922 4064 
C 966 4352 1011 4646 1043 4941 
L 627 5005 
z
" transform="scale(0.015625)"/>
      <path id="NotoSansCJKjp-Regular-97ec" d="M 1606 2061 
L 4851 2061 
L 4851 1613 
L 1606 1613 
L 1606 2061 
z
M 1606 1299 
L 4851 1299 
L 4851 845 
L 1606 845 
L 1606 1299 
z
M 1606 2816 
L 4851 2816 
L 4851 2374 
L 1606 2374 
L 1606 2816 
z
M 1139 3142 
L 1139 518 
L 5331 518 
L 5331 3142 
L 1139 3142 
z
M 3738 186 
C 4435 -45 5126 -320 5530 -525 
L 6067 -282 
C 5600 -70 4826 211 4128 429 
L 3738 186 
z
M 2227 448 
C 1766 198 998 -32 339 -173 
C 448 -256 621 -435 698 -531 
C 1338 -358 2150 -58 2669 250 
L 2227 448 
z
M 813 5203 
L 813 4570 
C 813 4154 736 3642 282 3226 
C 384 3162 538 3014 602 2918 
C 973 3264 1139 3693 1203 4077 
L 1990 4077 
L 1990 3270 
L 2419 3270 
L 2419 4077 
L 3174 4077 
L 3174 4448 
L 1242 4448 
L 1242 4544 
L 1242 4774 
C 1843 4832 2528 4922 3002 5062 
L 2682 5363 
C 2336 5254 1741 5158 1184 5101 
L 813 5203 
z
M 3430 5190 
L 3430 4614 
C 3430 4256 3334 3846 2816 3507 
C 2918 3437 3059 3283 3117 3181 
C 3501 3443 3693 3763 3782 4077 
L 4678 4077 
L 4678 3258 
L 5114 3258 
L 5114 4077 
L 6067 4077 
L 6067 4448 
L 3853 4448 
L 3859 4602 
L 3859 4774 
C 4506 4826 5242 4915 5747 5050 
L 5427 5350 
C 5050 5248 4397 5152 3802 5094 
L 3430 5190 
z
" transform="scale(0.015625)"/>
      <path id="NotoSansCJKjp-Regular-6c33" d="M 3533 2707 
C 3885 2240 4320 1600 4512 1210 
L 4922 1466 
C 4710 1843 4269 2464 3904 2918 
L 3533 2707 
z
M 1536 5389 
C 1485 5082 1376 4659 1274 4346 
L 557 4346 
L 557 -346 
L 998 -346 
L 998 160 
L 2784 160 
L 2784 4346 
L 1715 4346 
C 1824 4621 1946 4979 2054 5299 
L 1536 5389 
z
M 998 3917 
L 2342 3917 
L 2342 2566 
L 998 2566 
L 998 3917 
z
M 998 595 
L 998 2144 
L 2342 2144 
L 2342 595 
L 998 595 
z
M 3827 5402 
C 3622 4518 3277 3635 2835 3066 
C 2950 3002 3149 2867 3238 2790 
C 3456 3098 3661 3488 3840 3923 
L 5478 3923 
C 5402 1357 5299 371 5094 154 
C 5018 64 4947 45 4819 45 
C 4672 45 4288 51 3866 83 
C 3955 -38 4013 -243 4026 -378 
C 4384 -397 4762 -410 4979 -390 
C 5210 -365 5350 -314 5498 -122 
C 5754 192 5843 1184 5939 4122 
C 5946 4186 5946 4365 5946 4365 
L 4013 4365 
C 4115 4666 4211 4986 4288 5299 
L 3827 5402 
z
" transform="scale(0.015625)"/>
      <path id="NotoSansCJKjp-Regular-78dd" d="M 1984 1626 
C 2157 1235 2330 717 2387 378 
L 2784 512 
C 2714 845 2528 1357 2342 1747 
L 1984 1626 
z
M 582 1715 
C 506 1152 378 582 160 192 
C 269 154 454 64 544 6 
C 749 416 909 1037 992 1645 
L 582 1715 
z
M 3578 2957 
L 5216 2957 
L 5216 1779 
L 3578 1779 
L 3578 2957 
z
M 3578 3398 
L 3578 4576 
L 5216 4576 
L 5216 3398 
L 3578 3398 
z
M 3578 1338 
L 5216 1338 
L 5216 109 
L 3578 109 
L 3578 1338 
z
M 2438 109 
L 2438 -326 
L 6189 -326 
L 6189 109 
L 5696 109 
L 5696 5018 
L 3117 5018 
L 3117 109 
L 2438 109 
z
M 230 2515 
L 269 2080 
L 1318 2138 
L 1318 -525 
L 1754 -525 
L 1754 2163 
L 2310 2195 
C 2362 2061 2406 1933 2438 1824 
L 2816 2003 
C 2720 2355 2445 2899 2176 3315 
L 1818 3162 
C 1926 2989 2035 2784 2131 2586 
L 1107 2547 
C 1555 3098 2061 3853 2445 4467 
L 2022 4646 
C 1843 4301 1600 3878 1331 3469 
C 1235 3603 1094 3763 947 3910 
C 1184 4269 1459 4781 1677 5210 
L 1248 5376 
C 1114 5018 883 4538 678 4173 
L 480 4346 
L 243 4026 
C 544 3757 883 3392 1082 3098 
C 941 2893 794 2694 653 2528 
L 230 2515 
z
" transform="scale(0.015625)"/>
      <path id="NotoSansCJKjp-Regular-4857" d="M 3482 5370 
C 3482 5005 3494 4640 3514 4288 
L 819 4288 
L 819 2490 
C 819 1658 762 550 230 -237 
C 346 -294 550 -461 634 -557 
C 1222 288 1318 1581 1318 2483 
L 1318 2528 
L 2490 2528 
C 2464 1427 2432 1018 2349 922 
C 2298 864 2240 851 2144 851 
C 2035 851 1760 851 1466 883 
C 1542 762 1594 570 1600 435 
C 1914 416 2208 416 2374 429 
C 2547 448 2656 493 2758 614 
C 2893 787 2925 1331 2957 2771 
C 2957 2835 2963 2976 2963 2976 
L 1318 2976 
L 1318 3821 
L 3546 3821 
C 3622 2784 3776 1837 4019 1101 
C 3597 614 3104 218 2534 -83 
C 2637 -179 2810 -378 2886 -480 
C 3379 -186 3821 166 4211 589 
C 4506 -70 4890 -467 5382 -467 
C 5875 -467 6054 -147 6138 947 
C 6010 992 5830 1101 5722 1210 
C 5683 358 5606 26 5421 26 
C 5094 26 4806 390 4570 1018 
C 5043 1632 5421 2362 5696 3200 
L 5216 3322 
C 5011 2675 4736 2093 4390 1581 
C 4224 2202 4102 2963 4032 3821 
L 6086 3821 
L 6086 4288 
L 4006 4288 
C 3987 4640 3981 4998 3981 5370 
L 3482 5370 
z
M 4294 5056 
C 4704 4845 5197 4518 5440 4288 
L 5741 4621 
C 5491 4838 4986 5152 4582 5350 
L 4294 5056 
z
" transform="scale(0.015625)"/>
      <path id="NotoSansCJKjp-Regular-a8ea" d="M 2176 3002 
L 2304 2592 
C 2822 2720 3488 2886 4122 3053 
L 4083 3424 
L 3027 3181 
L 3027 4128 
L 4026 4128 
L 4026 4518 
L 3027 4518 
L 3027 5299 
L 2592 5299 
L 2592 3085 
L 2176 3002 
z
M 3155 787 
L 5350 787 
L 5350 147 
L 3155 147 
L 3155 787 
z
M 3155 1178 
L 3155 1779 
L 5350 1779 
L 5350 1178 
L 3155 1178 
z
M 2707 2189 
L 2707 -499 
L 3155 -499 
L 3155 -262 
L 5350 -262 
L 5350 -474 
L 5818 -474 
L 5818 2189 
L 4141 2189 
L 4352 2733 
L 3866 2835 
C 3834 2650 3750 2400 3667 2189 
L 2707 2189 
z
M 5702 4896 
C 5485 4717 5107 4518 4742 4352 
L 4742 5299 
L 4301 5299 
L 4301 3296 
C 4301 2822 4416 2694 4896 2694 
C 4992 2694 5523 2694 5619 2694 
C 6003 2694 6131 2867 6176 3539 
C 6048 3571 5869 3635 5773 3712 
C 5760 3187 5734 3104 5574 3104 
C 5466 3104 5037 3104 4947 3104 
C 4768 3104 4742 3130 4742 3296 
L 4742 3962 
C 5190 4134 5677 4346 6042 4576 
L 5702 4896 
z
M 531 5101 
L 531 -512 
L 960 -512 
L 960 4666 
L 1734 4666 
C 1606 4224 1434 3648 1267 3187 
C 1696 2682 1792 2253 1798 1907 
C 1798 1715 1760 1536 1677 1466 
C 1626 1427 1562 1414 1478 1414 
C 1395 1408 1280 1408 1146 1421 
C 1216 1299 1254 1114 1261 998 
C 1402 992 1549 992 1664 1005 
C 1792 1024 1894 1056 1978 1120 
C 2150 1242 2227 1517 2221 1856 
C 2221 2253 2125 2707 1690 3238 
C 1894 3757 2118 4410 2285 4934 
L 1971 5126 
L 1901 5101 
L 531 5101 
z
" transform="scale(0.015625)"/>
     </defs>
     <use xlink:href="#NotoSansCJKjp-Regular-64fb"/>
     <use xlink:href="#NotoSansCJKjp-Regular-97ec" transform="translate(100 0)"/>
     <use xlink:href="#NotoSansCJKjp-Regular-6c33" transform="translate(200 0)"/>
     <use xlink:href="#NotoSansCJKjp-Regular-78dd" transform="translate(300 0)"/>
     <use xlink:href="#NotoSansCJKjp-Regular-4857" transform="translate(400 0)"/>
     <use xlink:href="#NotoSansCJKjp-Regular-a8ea" transform="translate(500 0)"/>
     <use xlink:href="#NotoSansCJKjp-Regular-3dfa" transform="translate(600 0)"/>
    </g>
   </g>
   <g id="text_4">
    <!-- 巨觀物質 -->
    <g style="fill: #222831" transform="translate(41.696 79.74) scale(0.13 -0.13)">
     <defs>
      <path id="NotoSansCJKjp-Regular-4108" d="M 838 5024 
L 838 -499 
L 1338 -499 
L 1338 -166 
L 5920 -166 
L 5920 294 
L 1338 294 
L 1338 1382 
L 4896 1382 
L 4896 1056 
L 5389 1056 
L 5389 3558 
L 1338 3558 
L 1338 4563 
L 5786 4563 
L 5786 5024 
L 838 5024 
z
M 1338 3104 
L 4896 3104 
L 4896 1843 
L 1338 1843 
L 1338 3104 
z
" transform="scale(0.015625)"/>
      <path id="NotoSansCJKjp-Regular-9234" d="M 813 3718 
L 1350 3718 
L 1350 3174 
L 813 3174 
L 813 3718 
z
M 2323 3718 
L 2906 3718 
L 2906 3174 
L 2323 3174 
L 2323 3718 
z
M 4019 3674 
L 5440 3674 
L 5440 3021 
L 4019 3021 
L 4019 3674 
z
M 4019 2637 
L 5440 2637 
L 5440 1978 
L 4019 1978 
L 4019 2637 
z
M 4019 4704 
L 5440 4704 
L 5440 4058 
L 4019 4058 
L 4019 4704 
z
M 1792 1286 
L 1792 909 
L 1107 909 
L 1107 1286 
L 1792 1286 
z
M 3597 5126 
L 3597 1562 
L 4006 1562 
C 3968 819 3834 320 3322 0 
L 3322 211 
L 2202 211 
L 2202 589 
L 3168 589 
L 3168 909 
L 2202 909 
L 2202 1286 
L 3168 1286 
L 3168 1606 
L 2202 1606 
L 2202 1978 
L 3302 1978 
L 3302 2323 
L 2266 2323 
L 2483 2765 
L 2144 2854 
L 3264 2854 
L 3264 4038 
L 1990 4038 
L 1990 2854 
L 2067 2854 
C 2022 2701 1958 2496 1882 2323 
L 1178 2323 
C 1248 2477 1312 2637 1363 2797 
L 1139 2854 
L 1702 2854 
L 1702 4038 
L 467 4038 
L 467 2854 
L 979 2854 
C 794 2304 486 1779 141 1414 
C 218 1338 346 1165 397 1088 
C 506 1203 608 1338 710 1485 
L 710 -454 
L 1107 -454 
L 1107 -147 
L 3021 -147 
L 2989 -160 
C 3085 -237 3200 -403 3258 -512 
C 4141 -128 4358 518 4422 1562 
L 4845 1562 
L 4845 154 
C 4845 -275 4934 -403 5318 -403 
C 5395 -403 5645 -403 5728 -403 
C 6067 -403 6170 -192 6202 666 
C 6086 698 5914 762 5824 838 
C 5818 90 5792 -6 5677 -6 
C 5619 -6 5427 -6 5382 -6 
C 5286 -6 5267 19 5267 154 
L 5267 1562 
L 5882 1562 
L 5882 5126 
L 3597 5126 
z
M 1792 1606 
L 1107 1606 
L 1107 1978 
L 1792 1978 
L 1792 1606 
z
M 1792 589 
L 1792 211 
L 1107 211 
L 1107 589 
L 1792 589 
z
M 2285 5363 
L 2285 4947 
L 1434 4947 
L 1434 5363 
L 1011 5363 
L 1011 4947 
L 314 4947 
L 314 4582 
L 1011 4582 
L 1011 4173 
L 1434 4173 
L 1434 4582 
L 2285 4582 
L 2285 4173 
L 2701 4173 
L 2701 4582 
L 3366 4582 
L 3366 4947 
L 2701 4947 
L 2701 5363 
L 2285 5363 
z
" transform="scale(0.015625)"/>
     </defs>
     <use xlink:href="#NotoSansCJKjp-Regular-4108"/>
     <use xlink:href="#NotoSansCJKjp-Regular-9234" transform="translate(100 0)"/>
     <use xlink:href="#NotoSansCJKjp-Regular-64fb" transform="translate(200 0)"/>
     <use xlink:href="#NotoSansCJKjp-Regular-97ec" transform="translate(300 0)"/>
    </g>
   </g>
   <g id="text_5">
    <!-- 一塊冰、一滴水 -->
    <g style="fill: #555555" transform="translate(249.6576 78.79) scale(0.105 -0.105)">
     <defs>
      <path id="NotoSansCJKjp-Regular-3574" d="M 2400 4723 
L 2400 2093 
L 3059 2093 
C 2989 902 2790 230 1606 -141 
C 1709 -230 1837 -416 1888 -538 
C 3187 -90 3456 723 3526 2093 
L 3994 2093 
L 3994 198 
C 3994 -294 4134 -422 4672 -422 
C 4787 -422 5453 -422 5574 -422 
C 5990 -422 6125 -262 6176 339 
C 6048 371 5862 435 5766 512 
C 5747 70 5715 6 5530 6 
C 5389 6 4826 6 4723 6 
C 4480 6 4448 38 4448 205 
L 4448 2093 
L 5862 2093 
L 5862 4723 
L 4128 4723 
C 4224 4902 4333 5114 4429 5325 
L 3872 5382 
C 3821 5190 3725 4934 3635 4723 
L 2400 4723 
z
M 2854 3219 
L 3872 3219 
L 3872 2502 
L 2854 2502 
L 2854 3219 
z
M 4326 3219 
L 5389 3219 
L 5389 2502 
L 4326 2502 
L 4326 3219 
z
M 2854 4307 
L 3872 4307 
L 3872 3603 
L 2854 3603 
L 2854 4307 
z
M 4326 4307 
L 5389 4307 
L 5389 3603 
L 4326 3603 
L 4326 4307 
z
M 5414 1517 
C 5485 1382 5562 1235 5626 1088 
L 5037 1024 
C 5126 1293 5222 1638 5306 1939 
L 4934 1997 
C 4896 1709 4787 1293 4704 992 
L 4506 973 
L 4582 614 
L 5747 787 
L 5818 576 
L 6112 710 
C 6048 947 5869 1331 5696 1626 
L 5414 1517 
z
M 218 1171 
L 378 685 
C 941 915 1683 1216 2374 1510 
L 2278 1958 
L 1549 1670 
L 1549 3494 
L 2221 3494 
L 2221 3949 
L 1549 3949 
L 1549 5357 
L 1094 5357 
L 1094 3949 
L 333 3949 
L 333 3494 
L 1094 3494 
L 1094 1491 
C 762 1363 461 1254 218 1171 
z
" transform="scale(0.015625)"/>
      <path id="NotoSansCJKjp-Regular-2afc" d="M 256 4570 
C 659 4320 1152 3949 1395 3699 
L 1696 4090 
C 1446 4333 941 4685 544 4915 
L 256 4570 
z
M 256 563 
L 672 262 
C 1018 826 1427 1581 1734 2227 
L 1370 2522 
C 1037 1837 570 1030 256 563 
z
M 1786 3718 
L 1786 3245 
L 2938 3245 
C 2694 2061 2144 1062 1478 602 
C 1587 506 1728 320 1792 211 
C 2611 845 3226 2048 3456 3654 
L 3174 3731 
L 3091 3718 
L 1786 3718 
z
M 5613 4109 
C 5338 3731 4909 3270 4531 2912 
C 4378 3328 4256 3776 4160 4237 
L 4160 5370 
L 3667 5370 
L 3667 134 
C 3667 26 3629 0 3533 -6 
C 3430 -13 3098 -13 2733 0 
C 2810 -134 2899 -365 2925 -499 
C 3398 -499 3712 -486 3898 -397 
C 4083 -314 4160 -166 4160 134 
L 4160 2906 
C 4525 1734 5075 774 5907 237 
C 5984 371 6138 557 6246 646 
C 5568 1018 5062 1677 4698 2496 
C 5120 2861 5638 3379 6022 3846 
L 5613 4109 
z
" transform="scale(0.015625)"/>
      <path id="NotoSansCJKjp-Regular-575" d="M 1747 -358 
L 2182 13 
C 1786 480 1210 1062 749 1434 
L 333 1069 
C 787 698 1338 147 1747 -358 
z
" transform="scale(0.015625)"/>
      <path id="NotoSansCJKjp-Regular-5e4d" d="M 544 4973 
C 941 4787 1414 4480 1651 4250 
L 1933 4640 
C 1696 4864 1216 5146 819 5318 
L 544 4973 
z
M 243 3238 
C 640 3072 1120 2784 1357 2566 
L 1638 2957 
C 1395 3168 909 3437 506 3590 
L 243 3238 
z
M 410 -154 
L 832 -429 
C 1158 173 1549 986 1837 1670 
L 1459 1939 
C 1139 1203 710 352 410 -154 
z
M 2720 4320 
C 2848 4096 2970 3795 3034 3565 
L 2106 3565 
L 2106 -499 
L 2554 -499 
L 2554 3162 
L 3789 3162 
L 3789 2598 
L 2842 2598 
L 2842 2246 
L 3789 2246 
L 3789 1683 
L 3066 1683 
L 3066 102 
L 3443 102 
L 3443 320 
L 4954 320 
L 4954 1683 
L 4173 1683 
L 4173 2246 
L 5152 2246 
L 5152 2598 
L 4173 2598 
L 4173 3162 
L 5466 3162 
L 5466 13 
C 5466 -70 5440 -96 5357 -96 
C 5274 -102 4986 -109 4685 -96 
C 4742 -211 4800 -390 4826 -506 
C 5248 -506 5530 -499 5696 -435 
C 5869 -365 5920 -237 5920 13 
L 5920 3565 
L 4883 3565 
C 5011 3770 5146 4051 5280 4320 
L 5075 4365 
L 6067 4365 
L 6067 4781 
L 4211 4781 
L 4211 5370 
L 3738 5370 
L 3738 4781 
L 2010 4781 
L 2010 4365 
L 2874 4365 
L 2720 4320 
z
M 3187 4365 
L 4768 4365 
C 4685 4134 4538 3814 4429 3603 
L 4582 3565 
L 3373 3565 
L 3507 3610 
C 3456 3821 3328 4122 3187 4365 
z
M 3443 1338 
L 4570 1338 
L 4570 659 
L 3443 659 
L 3443 1338 
z
" transform="scale(0.015625)"/>
      <path id="NotoSansCJKjp-Regular-59e1" d="M 352 3738 
L 352 3251 
L 2029 3251 
C 1709 1971 1030 1011 186 486 
C 307 416 493 224 576 109 
C 1517 742 2298 1946 2624 3629 
L 2298 3757 
L 2208 3738 
L 352 3738 
z
M 5523 4339 
C 5146 3827 4525 3187 4000 2739 
C 3782 3194 3603 3686 3462 4192 
L 3462 5363 
L 2957 5363 
L 2957 166 
C 2957 45 2912 6 2784 0 
C 2656 -6 2246 -6 1779 6 
C 1856 -134 1952 -378 1978 -518 
C 2573 -518 2938 -499 3155 -416 
C 3373 -326 3462 -173 3462 166 
L 3462 2925 
C 3974 1606 4742 525 5850 -19 
C 5939 122 6099 320 6221 416 
C 5370 787 4704 1485 4205 2349 
C 4762 2790 5453 3462 5965 4026 
L 5523 4339 
z
" transform="scale(0.015625)"/>
     </defs>
     <use xlink:href="#NotoSansCJKjp-Regular-2509"/>
     <use xlink:href="#NotoSansCJKjp-Regular-3574" transform="translate(100 0)"/>
     <use xlink:href="#NotoSansCJKjp-Regular-2afc" transform="translate(200 0)"/>
     <use xlink:href="#NotoSansCJKjp-Regular-575" transform="translate(300 0)"/>
     <use xlink:href="#NotoSansCJKjp-Regular-2509" transform="translate(400 0)"/>
     <use xlink:href="#NotoSansCJKjp-Regular-5e4d" transform="translate(500 0)"/>
     <use xlink:href="#NotoSansCJKjp-Regular-59e1" transform="translate(600 0)"/>
    </g>
   </g>
   <g id="text_6">
    <!-- $\sim 10^{-2}$ m -->
    <g style="fill: #d1242f" transform="translate(369.008 79.17) scale(0.115 -0.115)">
     <defs>
      <path id="Cmsy10-1b" d="M 447 850 
Q 378 850 359 1013 
L 359 1050 
Q 359 1544 654 1947 
Q 950 2350 1422 2350 
Q 1716 2350 1955 2204 
Q 2194 2059 2516 1768 
Q 2838 1478 3055 1343 
Q 3272 1209 3553 1209 
Q 3806 1209 4006 1346 
Q 4206 1484 4320 1712 
Q 4434 1941 4434 2188 
Q 4453 2350 4525 2350 
Q 4597 2350 4616 2188 
L 4616 2150 
Q 4616 1841 4486 1537 
Q 4356 1234 4115 1042 
Q 3875 850 3553 850 
Q 3259 850 3031 989 
Q 2803 1128 2481 1417 
Q 2159 1706 1931 1848 
Q 1703 1991 1422 1991 
Q 1172 1991 969 1853 
Q 766 1716 652 1487 
Q 538 1259 538 1013 
Q 519 850 447 850 
z
" transform="scale(0.015625)"/>
      <path id="Cmr10-64" d="M 594 0 
L 594 225 
Q 1394 225 1394 428 
L 1394 3788 
Q 1063 3628 556 3628 
L 556 3853 
Q 1341 3853 1741 4263 
L 1831 4263 
Q 1853 4263 1873 4245 
Q 1894 4228 1894 4206 
L 1894 428 
Q 1894 225 2694 225 
L 2694 0 
L 594 0 
z
" transform="scale(0.015625)"/>
      <path id="Cmr10-28" d="M 1600 -141 
Q 816 -141 533 504 
Q 250 1150 250 2041 
Q 250 2597 351 3087 
Q 453 3578 754 3920 
Q 1056 4263 1600 4263 
Q 2022 4263 2290 4056 
Q 2559 3850 2700 3523 
Q 2841 3197 2892 2823 
Q 2944 2450 2944 2041 
Q 2944 1491 2842 1011 
Q 2741 531 2444 195 
Q 2147 -141 1600 -141 
z
M 1600 25 
Q 1956 25 2131 390 
Q 2306 756 2347 1200 
Q 2388 1644 2388 2144 
Q 2388 2625 2347 3031 
Q 2306 3438 2132 3767 
Q 1959 4097 1600 4097 
Q 1238 4097 1063 3765 
Q 888 3434 847 3029 
Q 806 2625 806 2144 
Q 806 1788 823 1472 
Q 841 1156 916 820 
Q 991 484 1158 254 
Q 1325 25 1600 25 
z
" transform="scale(0.015625)"/>
      <path id="Cmsy10-11" d="M 653 1472 
Q 600 1472 565 1512 
Q 531 1553 531 1600 
Q 531 1647 565 1687 
Q 600 1728 653 1728 
L 4325 1728 
Q 4375 1728 4408 1687 
Q 4441 1647 4441 1600 
Q 4441 1553 4408 1512 
Q 4375 1472 4325 1472 
L 653 1472 
z
" transform="scale(0.015625)"/>
      <path id="Cmr10-31" d="M 319 0 
L 319 172 
Q 319 188 331 206 
L 1325 1306 
Q 1550 1550 1690 1715 
Q 1831 1881 1968 2097 
Q 2106 2313 2186 2536 
Q 2266 2759 2266 3009 
Q 2266 3272 2169 3511 
Q 2072 3750 1880 3894 
Q 1688 4038 1416 4038 
Q 1138 4038 916 3870 
Q 694 3703 603 3438 
Q 628 3444 672 3444 
Q 816 3444 917 3347 
Q 1019 3250 1019 3097 
Q 1019 2950 917 2848 
Q 816 2747 672 2747 
Q 522 2747 420 2851 
Q 319 2956 319 3097 
Q 319 3338 409 3548 
Q 500 3759 670 3923 
Q 841 4088 1055 4175 
Q 1269 4263 1509 4263 
Q 1875 4263 2190 4108 
Q 2506 3953 2690 3670 
Q 2875 3388 2875 3009 
Q 2875 2731 2753 2481 
Q 2631 2231 2440 2026 
Q 2250 1822 1953 1562 
Q 1656 1303 1563 1216 
L 838 519 
L 1453 519 
Q 1906 519 2211 526 
Q 2516 534 2534 550 
Q 2609 631 2688 1141 
L 2875 1141 
L 2694 0 
L 319 0 
z
" transform="scale(0.015625)"/>
      <path id="NotoSansCJKjp-Regular-1" transform="scale(0.015625)"/>
      <path id="NotoSansCJKjp-Regular-4e" d="M 589 0 
L 1178 0 
L 1178 2522 
C 1491 2880 1786 3053 2048 3053 
C 2490 3053 2694 2778 2694 2125 
L 2694 0 
L 3277 0 
L 3277 2522 
C 3603 2880 3885 3053 4154 3053 
C 4595 3053 4800 2778 4800 2125 
L 4800 0 
L 5382 0 
L 5382 2202 
C 5382 3085 5043 3565 4333 3565 
C 3904 3565 3546 3290 3181 2899 
C 3040 3309 2758 3565 2221 3565 
C 1805 3565 1446 3302 1139 2970 
L 1126 2970 
L 1069 3475 
L 589 3475 
L 589 0 
z
" transform="scale(0.015625)"/>
     </defs>
     <use xlink:href="#Cmsy10-1b" transform="translate(20.000057 0.084203)"/>
     <use xlink:href="#Cmr10-64" transform="translate(117.685661 0.084203)"/>
     <use xlink:href="#Cmr10-28" transform="translate(167.685661 0.084203)"/>
     <use xlink:href="#Cmsy10-11" transform="translate(221.689952 41.373437) scale(0.7)"/>
     <use xlink:href="#Cmr10-31" transform="translate(276.069835 41.373437) scale(0.7)"/>
     <use xlink:href="#NotoSansCJKjp-Regular-1" transform="translate(316.79025 0.084203)"/>
     <use xlink:href="#NotoSansCJKjp-Regular-4e" transform="translate(339.190229 0.084203)"/>
    </g>
   </g>
   <g id="patch_8">
    <path d="M 135.328 91.0624 
Q 135.328 97.4688 135.328 101.862739 
" clip-path="url(#pd1c6053b89)" style="fill: none; stroke: #6b7280; stroke-width: 1.8; stroke-linecap: round"/>
    <path d="M 138.128 96.262739 
L 135.328 101.862739 
L 132.528 96.262739 
z
" clip-path="url(#pd1c6053b89)" style="fill: #6b7280; stroke: #6b7280; stroke-width: 1.8; stroke-linecap: round"/>
   </g>
   <g id="text_7">
    <!-- 分子 -->
    <g style="fill: #222831" transform="translate(41.696 125.0776) scale(0.13 -0.13)">
     <defs>
      <path id="NotoSansCJKjp-Regular-2b86" d="M 2074 5248 
C 1677 4256 966 3373 147 2829 
C 262 2739 474 2554 563 2451 
C 1363 3059 2118 4019 2586 5101 
L 2074 5248 
z
M 4307 5261 
L 3846 5075 
C 4326 4122 5139 3085 5850 2509 
C 5939 2643 6118 2829 6253 2931 
C 5549 3424 4723 4397 4307 5261 
z
M 1197 2957 
L 1197 2490 
L 2509 2490 
C 2368 1402 2010 378 486 -122 
C 595 -224 736 -416 800 -544 
C 2445 51 2854 1216 3027 2490 
L 4685 2490 
C 4608 864 4512 224 4346 58 
C 4282 -6 4205 -26 4077 -26 
C 3923 -26 3533 -19 3110 19 
C 3200 -115 3258 -320 3270 -461 
C 3674 -486 4070 -493 4288 -474 
C 4506 -454 4653 -410 4781 -243 
C 5005 0 5094 736 5190 2726 
C 5197 2790 5197 2957 5197 2957 
L 1197 2957 
z
" transform="scale(0.015625)"/>
      <path id="NotoSansCJKjp-Regular-3bf8" d="M 966 4934 
L 966 4454 
L 4595 4454 
C 4211 4134 3718 3795 3264 3546 
L 2963 3546 
L 2963 2515 
L 301 2515 
L 301 2035 
L 2963 2035 
L 2963 115 
C 2963 0 2925 -32 2790 -45 
C 2643 -45 2170 -51 1658 -32 
C 1734 -173 1830 -384 1862 -525 
C 2477 -531 2893 -518 3136 -435 
C 3379 -358 3462 -218 3462 109 
L 3462 2035 
L 6112 2035 
L 6112 2515 
L 3462 2515 
L 3462 3149 
C 4179 3539 5024 4134 5574 4685 
L 5210 4960 
L 5101 4934 
L 966 4934 
z
" transform="scale(0.015625)"/>
     </defs>
     <use xlink:href="#NotoSansCJKjp-Regular-2b86"/>
     <use xlink:href="#NotoSansCJKjp-Regular-3bf8" transform="translate(100 0)"/>
    </g>
   </g>
   <g id="text_8">
    <!-- 水分子 H$_2$O -->
    <g style="fill: #555555" transform="translate(249.6576 123.9701) scale(0.105 -0.105)">
     <defs>
      <path id="NotoSansCJKjp-Regular-29" d="M 646 0 
L 1235 0 
L 1235 2214 
L 3424 2214 
L 3424 0 
L 4019 0 
L 4019 4691 
L 3424 4691 
L 3424 2726 
L 1235 2726 
L 1235 4691 
L 646 4691 
L 646 0 
z
" transform="scale(0.015625)"/>
      <path id="NotoSansCJKjp-Regular-30" d="M 2374 -83 
C 3552 -83 4378 858 4378 2362 
C 4378 3866 3552 4774 2374 4774 
C 1197 4774 371 3866 371 2362 
C 371 858 1197 -83 2374 -83 
z
M 2374 435 
C 1530 435 979 1190 979 2362 
C 979 3533 1530 4256 2374 4256 
C 3219 4256 3770 3533 3770 2362 
C 3770 1190 3219 435 2374 435 
z
" transform="scale(0.015625)"/>
     </defs>
     <use xlink:href="#NotoSansCJKjp-Regular-59e1" transform="translate(0 0.203125)"/>
     <use xlink:href="#NotoSansCJKjp-Regular-2b86" transform="translate(99.999908 0.203125)"/>
     <use xlink:href="#NotoSansCJKjp-Regular-3bf8" transform="translate(199.999817 0.203125)"/>
     <use xlink:href="#NotoSansCJKjp-Regular-1" transform="translate(299.999725 0.203125)"/>
     <use xlink:href="#NotoSansCJKjp-Regular-29" transform="translate(322.399704 0.203125)"/>
     <use xlink:href="#Cmr10-31" transform="translate(399.203922 -14.796837) scale(0.7)"/>
     <use xlink:href="#NotoSansCJKjp-Regular-30" transform="translate(439.924337 0.203125)"/>
    </g>
   </g>
   <g id="text_9">
    <!-- $\sim 10^{-9}$ m -->
    <g style="fill: #d1242f" transform="translate(369.008 124.5076) scale(0.115 -0.115)">
     <defs>
      <path id="Cmr10-16" d="M 722 269 
Q 897 63 1331 63 
Q 1575 63 1786 228 
Q 1997 394 2113 634 
Q 2247 906 2284 1214 
Q 2322 1522 2322 1978 
Q 2213 1719 2008 1553 
Q 1803 1388 1538 1388 
Q 1166 1388 873 1589 
Q 581 1791 425 2120 
Q 269 2450 269 2822 
Q 269 3206 444 3539 
Q 619 3872 928 4067 
Q 1238 4263 1631 4263 
Q 2019 4263 2280 4052 
Q 2541 3841 2678 3508 
Q 2816 3175 2870 2803 
Q 2925 2431 2925 2069 
Q 2925 1575 2744 1061 
Q 2563 547 2202 203 
Q 1841 -141 1331 -141 
Q 953 -141 690 37 
Q 428 216 428 575 
Q 428 706 517 795 
Q 606 884 738 884 
Q 866 884 955 795 
Q 1044 706 1044 575 
Q 1044 450 953 359 
Q 863 269 738 269 
L 722 269 
z
M 1563 1556 
Q 1825 1556 1992 1732 
Q 2159 1909 2234 2171 
Q 2309 2434 2309 2694 
L 2309 2816 
L 2309 2841 
Q 2309 3322 2168 3700 
Q 2028 4078 1631 4078 
Q 1378 4078 1220 3967 
Q 1063 3856 988 3672 
Q 913 3488 892 3278 
Q 872 3069 872 2822 
Q 872 2459 906 2203 
Q 941 1947 1094 1751 
Q 1247 1556 1563 1556 
z
" transform="scale(0.015625)"/>
     </defs>
     <use xlink:href="#Cmsy10-1b" transform="translate(20.000057 0.084203)"/>
     <use xlink:href="#Cmr10-64" transform="translate(117.685661 0.084203)"/>
     <use xlink:href="#Cmr10-28" transform="translate(167.685661 0.084203)"/>
     <use xlink:href="#Cmsy10-11" transform="translate(221.689952 41.373437) scale(0.7)"/>
     <use xlink:href="#Cmr10-16" transform="translate(276.069835 41.373437) scale(0.7)"/>
     <use xlink:href="#NotoSansCJKjp-Regular-1" transform="translate(316.79025 0.084203)"/>
     <use xlink:href="#NotoSansCJKjp-Regular-4e" transform="translate(339.190229 0.084203)"/>
    </g>
   </g>
   <g id="patch_9">
    <path d="M 135.328 136.4 
Q 135.328 142.8064 135.328 147.200339 
" clip-path="url(#pd1c6053b89)" style="fill: none; stroke: #6b7280; stroke-width: 1.8; stroke-linecap: round"/>
    <path d="M 138.128 141.600339 
L 135.328 147.200339 
L 132.528 141.600339 
z
" clip-path="url(#pd1c6053b89)" style="fill: #6b7280; stroke: #6b7280; stroke-width: 1.8; stroke-linecap: round"/>
   </g>
   <g id="text_10">
    <!-- 原子 -->
    <g style="fill: #222831" transform="translate(41.696 170.4152) scale(0.13 -0.13)">
     <defs>
      <path id="NotoSansCJKjp-Regular-2e09" d="M 2362 2624 
L 5024 2624 
L 5024 2029 
L 2362 2029 
L 2362 2624 
z
M 2362 3571 
L 5024 3571 
L 5024 2989 
L 2362 2989 
L 2362 3571 
z
M 4474 1107 
C 4954 723 5510 166 5754 -211 
L 6150 51 
C 5888 435 5325 966 4838 1338 
L 4474 1107 
z
M 2374 1318 
C 2080 838 1606 352 1126 45 
C 1242 -26 1434 -160 1523 -237 
C 1990 109 2496 646 2835 1184 
L 2374 1318 
z
M 1888 3955 
L 1888 1645 
L 3450 1645 
L 3450 13 
C 3450 -64 3424 -90 3328 -96 
C 3232 -96 2899 -96 2522 -90 
C 2586 -211 2650 -390 2669 -512 
C 3168 -512 3482 -512 3674 -442 
C 3866 -371 3917 -243 3917 6 
L 3917 1645 
L 5510 1645 
L 5510 3955 
L 3750 3955 
C 3814 4147 3885 4365 3949 4576 
L 6035 4576 
L 6035 5024 
L 838 5024 
L 838 3168 
C 838 2163 787 749 224 -256 
C 339 -301 550 -422 640 -499 
C 1229 550 1312 2106 1312 3168 
L 1312 4576 
L 3386 4576 
C 3347 4390 3296 4154 3238 3955 
L 1888 3955 
z
" transform="scale(0.015625)"/>
     </defs>
     <use xlink:href="#NotoSansCJKjp-Regular-2e09"/>
     <use xlink:href="#NotoSansCJKjp-Regular-3bf8" transform="translate(100 0)"/>
    </g>
   </g>
   <g id="text_11">
    <!-- 氫、氧、碳… -->
    <g style="fill: #555555" transform="translate(249.6576 169.4652) scale(0.105 -0.105)">
     <defs>
      <path id="NotoSansCJKjp-Regular-59d4" d="M 1715 4147 
L 1715 3840 
L 5478 3840 
L 5478 4147 
L 1715 4147 
z
M 890 2784 
L 890 2445 
L 4224 2445 
L 4224 2784 
L 890 2784 
z
M 1312 2342 
C 1222 2157 1069 1901 909 1664 
C 1120 1408 1293 1152 1389 954 
L 1754 1101 
C 1664 1261 1510 1478 1338 1670 
C 1459 1843 1581 2042 1696 2253 
L 1312 2342 
z
M 2490 2342 
C 2394 2157 2234 1894 2067 1664 
C 2285 1414 2470 1152 2573 954 
L 2925 1101 
C 2829 1261 2669 1478 2496 1670 
C 2618 1843 2752 2042 2867 2253 
L 2490 2342 
z
M 3642 2342 
C 3546 2157 3379 1894 3213 1664 
C 3443 1414 3629 1152 3731 954 
L 4090 1101 
C 3994 1261 3827 1478 3648 1677 
C 3776 1843 3910 2042 4026 2253 
L 3642 2342 
z
M 1626 5376 
C 1331 4627 819 3910 250 3450 
C 371 3386 576 3245 672 3162 
C 774 3258 877 3360 979 3469 
L 979 3130 
L 4595 3130 
C 4653 1050 4813 -518 5690 -518 
C 6067 -518 6170 -198 6214 653 
C 6112 704 5984 819 5888 922 
C 5875 333 5837 -58 5722 -58 
C 5210 -58 5082 1664 5050 3488 
L 998 3488 
C 1254 3776 1498 4115 1715 4480 
L 5958 4480 
L 5958 4819 
L 1901 4819 
C 1971 4960 2035 5107 2099 5254 
L 1626 5376 
z
M 595 -19 
L 595 -358 
L 4550 -358 
L 4550 -19 
L 2784 -19 
L 2784 531 
L 4205 531 
L 4205 864 
L 954 864 
L 954 531 
L 2323 531 
L 2323 -19 
L 595 -19 
z
" transform="scale(0.015625)"/>
      <path id="NotoSansCJKjp-Regular-59cc" d="M 1626 4077 
L 1626 3712 
L 5459 3712 
L 5459 4077 
L 1626 4077 
z
M 1613 5376 
C 1318 4621 806 3885 230 3424 
C 352 3360 563 3213 653 3130 
C 1024 3469 1395 3923 1696 4442 
L 5965 4442 
L 5965 4819 
L 1901 4819 
C 1971 4960 2042 5107 2099 5254 
L 1613 5376 
z
M 941 3341 
L 941 2957 
L 4589 2957 
C 4646 973 4800 -512 5645 -512 
C 6022 -512 6125 -198 6170 621 
C 6067 685 5933 800 5843 909 
C 5830 339 5792 -38 5677 -38 
C 5203 -45 5082 1600 5056 3341 
L 941 3341 
z
M 3245 2957 
C 3155 2771 2970 2483 2835 2298 
L 2989 2246 
L 1869 2246 
L 2022 2298 
C 1965 2470 1818 2733 1670 2925 
L 1274 2803 
C 1389 2637 1504 2413 1568 2246 
L 627 2246 
L 627 1888 
L 2227 1888 
L 2227 1504 
L 851 1504 
L 851 1152 
L 2227 1152 
L 2227 742 
L 410 742 
L 410 365 
L 2227 365 
L 2227 -512 
L 2694 -512 
L 2694 365 
L 4442 365 
L 4442 742 
L 2694 742 
L 2694 1152 
L 4115 1152 
L 4115 1504 
L 2694 1504 
L 2694 1888 
L 4269 1888 
L 4269 2246 
L 3277 2246 
C 3411 2406 3558 2611 3706 2822 
L 3245 2957 
z
" transform="scale(0.015625)"/>
      <path id="NotoSansCJKjp-Regular-6f9f" d="M 3584 2330 
C 3539 1875 3398 1414 3174 1152 
L 3494 966 
C 3750 1274 3878 1798 3936 2272 
L 3584 2330 
z
M 5581 2419 
C 5446 2054 5197 1530 4992 1210 
L 5318 1069 
C 5530 1382 5786 1856 5997 2266 
L 5581 2419 
z
M 269 4992 
L 269 4563 
L 1018 4563 
C 954 4038 864 3533 736 3059 
C 602 2547 422 2086 186 1722 
C 269 1626 410 1414 467 1312 
C 563 1459 653 1626 736 1805 
L 736 -192 
L 1146 -192 
L 1146 339 
L 2259 339 
L 2259 3066 
L 1171 3066 
C 1293 3539 1389 4045 1466 4563 
L 2470 4563 
L 2470 4992 
L 269 4992 
z
M 1146 2637 
L 1850 2637 
L 1850 762 
L 1146 762 
L 1146 2637 
z
M 4090 5376 
L 4090 4269 
L 3213 4269 
L 3213 5178 
L 2803 5178 
L 2803 3872 
L 5875 3872 
L 5875 5178 
L 5446 5178 
L 5446 4269 
L 4518 4269 
L 4518 5376 
L 4090 5376 
z
M 2790 3693 
L 2790 3354 
L 2419 3354 
L 2419 2938 
L 2790 2938 
L 2790 2624 
C 2790 1728 2726 666 2093 -205 
C 2208 -256 2374 -378 2458 -461 
C 3136 474 3206 1626 3206 2624 
L 3206 2938 
L 6138 2938 
L 6138 3354 
L 3206 3354 
L 3206 3693 
L 2790 3693 
z
M 4365 2816 
C 4320 1210 4173 301 2906 -186 
C 2995 -262 3110 -416 3162 -512 
C 4013 -173 4410 352 4595 1126 
C 4781 429 5158 -166 5952 -512 
C 6016 -403 6138 -243 6240 -154 
C 5011 333 4819 1357 4762 2496 
L 4774 2816 
L 4365 2816 
z
" transform="scale(0.015625)"/>
      <path id="NotoSansCJKjp-Regular-2df" d="M 1069 2854 
C 832 2854 646 2669 646 2432 
C 646 2195 832 2010 1069 2010 
C 1306 2010 1491 2195 1491 2432 
C 1491 2669 1306 2854 1069 2854 
z
M 3200 2854 
C 2963 2854 2778 2669 2778 2432 
C 2778 2195 2963 2010 3200 2010 
C 3437 2010 3622 2195 3622 2432 
C 3622 2669 3437 2854 3200 2854 
z
M 5331 2854 
C 5094 2854 4909 2669 4909 2432 
C 4909 2195 5094 2010 5331 2010 
C 5568 2010 5754 2195 5754 2432 
C 5754 2669 5568 2854 5331 2854 
z
" transform="scale(0.015625)"/>
     </defs>
     <use xlink:href="#NotoSansCJKjp-Regular-59d4"/>
     <use xlink:href="#NotoSansCJKjp-Regular-575" transform="translate(100 0)"/>
     <use xlink:href="#NotoSansCJKjp-Regular-59cc" transform="translate(200 0)"/>
     <use xlink:href="#NotoSansCJKjp-Regular-575" transform="translate(300 0)"/>
     <use xlink:href="#NotoSansCJKjp-Regular-6f9f" transform="translate(400 0)"/>
     <use xlink:href="#NotoSansCJKjp-Regular-2df" transform="translate(500 0)"/>
    </g>
   </g>
   <g id="text_12">
    <!-- $\sim 10^{-10}$ m -->
    <g style="fill: #d1242f" transform="translate(364.983 169.8452) scale(0.115 -0.115)">
     <use xlink:href="#Cmsy10-1b" transform="translate(20.000057 0.084203)"/>
     <use xlink:href="#Cmr10-64" transform="translate(117.685661 0.084203)"/>
     <use xlink:href="#Cmr10-28" transform="translate(167.685661 0.084203)"/>
     <use xlink:href="#Cmsy10-11" transform="translate(221.689952 41.373437) scale(0.7)"/>
     <use xlink:href="#Cmr10-64" transform="translate(276.069835 41.373437) scale(0.7)"/>
     <use xlink:href="#Cmr10-28" transform="translate(311.069835 41.373437) scale(0.7)"/>
     <use xlink:href="#NotoSansCJKjp-Regular-1" transform="translate(351.79025 0.084203)"/>
     <use xlink:href="#NotoSansCJKjp-Regular-4e" transform="translate(374.190229 0.084203)"/>
    </g>
   </g>
   <g id="patch_10">
    <path d="M 135.328 181.7376 
Q 135.328 188.144 135.328 192.537939 
" clip-path="url(#pd1c6053b89)" style="fill: none; stroke: #6b7280; stroke-width: 1.8; stroke-linecap: round"/>
    <path d="M 138.128 186.937939 
L 135.328 192.537939 
L 132.528 186.937939 
z
" clip-path="url(#pd1c6053b89)" style="fill: #6b7280; stroke: #6b7280; stroke-width: 1.8; stroke-linecap: round"/>
   </g>
   <g id="text_13">
    <!-- 原子核 ＋ 電子 -->
    <g style="fill: #222831" transform="translate(41.696 215.7528) scale(0.13 -0.13)">
     <defs>
      <path id="NotoSansCJKjp-Regular-52ac" d="M 5114 3488 
C 4858 3053 4512 2643 4096 2272 
C 3942 2419 3744 2592 3526 2765 
C 3821 3091 4179 3558 4467 3949 
L 4442 3962 
L 6125 3962 
L 6125 4403 
L 4570 4403 
L 4570 5363 
L 4102 5363 
L 4102 4403 
L 2496 4403 
L 2496 3962 
L 3878 3962 
C 3686 3648 3430 3290 3206 3008 
L 2874 3245 
L 2592 2925 
C 2976 2656 3437 2272 3738 1971 
C 3341 1670 2906 1408 2458 1216 
C 2566 1126 2701 973 2765 864 
C 3898 1402 4922 2298 5530 3315 
L 5114 3488 
z
M 5651 2317 
C 4992 1203 3757 339 2285 -115 
C 2400 -224 2515 -390 2579 -506 
C 3373 -237 4096 141 4704 608 
C 5120 230 5568 -230 5805 -531 
L 6195 -237 
C 5939 70 5466 525 5043 890 
C 5459 1261 5805 1670 6080 2131 
L 5651 2317 
z
M 1274 5376 
L 1274 4006 
L 333 4006 
L 333 3552 
L 1222 3552 
C 1024 2675 614 1664 205 1120 
C 288 1011 403 826 454 698 
C 762 1114 1050 1798 1274 2502 
L 1274 -506 
L 1722 -506 
L 1722 2496 
C 1933 2157 2182 1741 2291 1517 
L 2560 1888 
C 2445 2074 1907 2842 1722 3066 
L 1722 3552 
L 2483 3552 
L 2483 4006 
L 1722 4006 
L 1722 5376 
L 1274 5376 
z
" transform="scale(0.015625)"/>
      <path id="NotoSansCJKjp-Regular-e6b1" d="M 5523 2182 
L 5523 2624 
L 3418 2624 
L 3418 4730 
L 2982 4730 
L 2982 2624 
L 877 2624 
L 877 2182 
L 2982 2182 
L 2982 77 
L 3418 77 
L 3418 2182 
L 5523 2182 
z
" transform="scale(0.015625)"/>
      <path id="NotoSansCJKjp-Regular-a9c5" d="M 1261 3635 
L 1261 3334 
L 2618 3334 
L 2618 3635 
L 1261 3635 
z
M 1133 2982 
L 1133 2675 
L 2618 2675 
L 2618 2982 
L 1133 2982 
z
M 3757 2982 
L 3757 2675 
L 5293 2675 
L 5293 2982 
L 3757 2982 
z
M 3757 3635 
L 3757 3334 
L 5133 3334 
L 5133 3635 
L 3757 3635 
z
M 4915 1184 
L 4915 742 
L 3392 742 
L 3392 1184 
L 4915 1184 
z
M 4915 1504 
L 3392 1504 
L 3392 1946 
L 4915 1946 
L 4915 1504 
z
M 2925 1184 
L 2925 742 
L 1504 742 
L 1504 1184 
L 2925 1184 
z
M 2925 1504 
L 1504 1504 
L 1504 1946 
L 2925 1946 
L 2925 1504 
z
M 1043 2298 
L 1043 58 
L 1504 58 
L 1504 390 
L 2925 390 
L 2925 192 
C 2925 -333 3130 -461 3846 -461 
C 4006 -461 5171 -461 5338 -461 
C 5939 -461 6093 -256 6157 525 
C 6029 550 5843 614 5741 685 
C 5709 38 5645 -70 5306 -70 
C 5050 -70 4064 -70 3872 -70 
C 3469 -70 3392 -26 3392 192 
L 3392 390 
L 5389 390 
L 5389 2298 
L 1043 2298 
z
M 486 4339 
L 486 3085 
L 922 3085 
L 922 3987 
L 2944 3987 
L 2944 2515 
L 3418 2515 
L 3418 3987 
L 5472 3987 
L 5472 3085 
L 5920 3085 
L 5920 4339 
L 3418 4339 
L 3418 4730 
L 5536 4730 
L 5536 5101 
L 858 5101 
L 858 4730 
L 2944 4730 
L 2944 4339 
L 486 4339 
z
" transform="scale(0.015625)"/>
     </defs>
     <use xlink:href="#NotoSansCJKjp-Regular-2e09"/>
     <use xlink:href="#NotoSansCJKjp-Regular-3bf8" transform="translate(100 0)"/>
     <use xlink:href="#NotoSansCJKjp-Regular-52ac" transform="translate(200 0)"/>
     <use xlink:href="#NotoSansCJKjp-Regular-1" transform="translate(300 0)"/>
     <use xlink:href="#NotoSansCJKjp-Regular-e6b1" transform="translate(322.40625 0)"/>
     <use xlink:href="#NotoSansCJKjp-Regular-1" transform="translate(422.40625 0)"/>
     <use xlink:href="#NotoSansCJKjp-Regular-a9c5" transform="translate(444.8125 0)"/>
     <use xlink:href="#NotoSansCJKjp-Regular-3bf8" transform="translate(544.8125 0)"/>
    </g>
   </g>
   <g id="text_14">
    <!-- 核居中，電子在外 -->
    <g style="fill: #555555" transform="translate(249.6576 214.8028) scale(0.105 -0.105)">
     <defs>
      <path id="NotoSansCJKjp-Regular-3dc8" d="M 1408 4602 
L 5165 4602 
L 5165 3891 
L 1408 3891 
L 1408 4602 
z
M 1920 1562 
L 1920 -512 
L 2381 -512 
L 2381 -288 
L 5082 -288 
L 5082 -499 
L 5562 -499 
L 5562 1562 
L 3930 1562 
L 3930 2317 
L 6035 2317 
L 6035 2752 
L 3930 2752 
L 3930 3469 
L 5645 3469 
L 5645 5030 
L 928 5030 
L 928 3168 
C 928 2144 864 730 211 -269 
C 333 -320 544 -442 634 -518 
C 1312 518 1408 2086 1408 3168 
L 1408 3469 
L 3450 3469 
L 3450 2752 
L 1555 2752 
L 1555 2317 
L 3450 2317 
L 3450 1562 
L 1920 1562 
z
M 2381 141 
L 2381 1133 
L 5082 1133 
L 5082 141 
L 2381 141 
z
" transform="scale(0.015625)"/>
      <path id="NotoSansCJKjp-Regular-2548" d="M 2931 5376 
L 2931 4230 
L 614 4230 
L 614 1190 
L 1094 1190 
L 1094 1587 
L 2931 1587 
L 2931 -506 
L 3437 -506 
L 3437 1587 
L 5280 1587 
L 5280 1222 
L 5773 1222 
L 5773 4230 
L 3437 4230 
L 3437 5376 
L 2931 5376 
z
M 1094 2061 
L 1094 3763 
L 2931 3763 
L 2931 2061 
L 1094 2061 
z
M 5280 2061 
L 3437 2061 
L 3437 3763 
L 5280 3763 
L 5280 2061 
z
" transform="scale(0.015625)"/>
      <path id="NotoSansCJKjp-Regular-e6b2" d="M 1005 -685 
C 1677 -448 2112 77 2112 768 
C 2112 1216 1920 1504 1568 1504 
C 1306 1504 1082 1344 1082 1043 
C 1082 742 1299 589 1562 589 
L 1670 602 
C 1638 160 1357 -141 864 -346 
L 1005 -685 
z
" transform="scale(0.015625)"/>
      <path id="NotoSansCJKjp-Regular-33c7" d="M 2502 5376 
C 2413 5050 2298 4710 2163 4384 
L 403 4384 
L 403 3923 
L 1952 3923 
C 1542 3104 979 2342 243 1830 
C 320 1722 442 1517 493 1389 
C 762 1581 1011 1798 1235 2035 
L 1235 -486 
L 1715 -486 
L 1715 2605 
C 2016 3014 2278 3462 2496 3923 
L 6010 3923 
L 6010 4384 
L 2694 4384 
C 2810 4672 2912 4966 3002 5254 
L 2502 5376 
z
M 3827 3590 
L 3827 2355 
L 2387 2355 
L 2387 1907 
L 3827 1907 
L 3827 90 
L 2131 90 
L 2131 -358 
L 6003 -358 
L 6003 90 
L 4307 90 
L 4307 1907 
L 5760 1907 
L 5760 2355 
L 4307 2355 
L 4307 3590 
L 3827 3590 
z
" transform="scale(0.015625)"/>
      <path id="NotoSansCJKjp-Regular-36d9" d="M 1715 3942 
L 2963 3942 
C 2848 3290 2669 2714 2438 2208 
C 2131 2477 1664 2803 1242 3046 
C 1414 3322 1574 3622 1715 3942 
z
M 3661 3859 
L 3418 3763 
C 3450 3942 3488 4122 3514 4307 
L 3200 4416 
L 3110 4397 
L 1901 4397 
C 2010 4678 2106 4979 2189 5280 
L 1715 5382 
C 1414 4224 883 3162 166 2502 
C 288 2432 493 2278 576 2195 
C 723 2342 864 2509 992 2688 
C 1440 2413 1926 2054 2221 1766 
C 1734 902 1082 282 320 -122 
C 435 -192 614 -371 698 -480 
C 1914 205 2893 1491 3360 3520 
C 3622 3078 3955 2650 4320 2259 
L 4320 -499 
L 4813 -499 
L 4813 1786 
C 5184 1459 5574 1184 5965 986 
C 6042 1114 6189 1299 6304 1395 
C 5792 1626 5274 1984 4813 2413 
L 4813 5370 
L 4320 5370 
L 4320 2925 
C 4058 3219 3834 3539 3661 3859 
z
" transform="scale(0.015625)"/>
     </defs>
     <use xlink:href="#NotoSansCJKjp-Regular-52ac"/>
     <use xlink:href="#NotoSansCJKjp-Regular-3dc8" transform="translate(100 0)"/>
     <use xlink:href="#NotoSansCJKjp-Regular-2548" transform="translate(200 0)"/>
     <use xlink:href="#NotoSansCJKjp-Regular-e6b2" transform="translate(300 0)"/>
     <use xlink:href="#NotoSansCJKjp-Regular-a9c5" transform="translate(400 0)"/>
     <use xlink:href="#NotoSansCJKjp-Regular-3bf8" transform="translate(500 0)"/>
     <use xlink:href="#NotoSansCJKjp-Regular-33c7" transform="translate(600 0)"/>
     <use xlink:href="#NotoSansCJKjp-Regular-36d9" transform="translate(700 0)"/>
    </g>
   </g>
   <g id="text_15">
    <!-- 核 $\sim 10^{-15}$ m -->
    <g style="fill: #d1242f" transform="translate(350.838 215.1828) scale(0.115 -0.115)">
     <defs>
      <path id="Cmr10-78" d="M 556 728 
Q 622 541 758 387 
Q 894 234 1080 148 
Q 1266 63 1466 63 
Q 1928 63 2103 422 
Q 2278 781 2278 1294 
Q 2278 1516 2270 1667 
Q 2263 1819 2228 1959 
Q 2169 2184 2020 2353 
Q 1872 2522 1656 2522 
Q 1441 2522 1286 2456 
Q 1131 2391 1034 2303 
Q 938 2216 863 2119 
Q 788 2022 769 2016 
L 697 2016 
Q 681 2016 657 2036 
Q 634 2056 634 2075 
L 634 4213 
Q 634 4228 654 4245 
Q 675 4263 697 4263 
L 716 4263 
Q 1147 4056 1631 4056 
Q 2106 4056 2547 4263 
L 2566 4263 
Q 2588 4263 2606 4247 
Q 2625 4231 2625 4213 
L 2625 4153 
Q 2625 4122 2613 4122 
Q 2394 3831 2064 3668 
Q 1734 3506 1381 3506 
Q 1125 3506 856 3578 
L 856 2369 
Q 1069 2541 1236 2614 
Q 1403 2688 1663 2688 
Q 2016 2688 2295 2484 
Q 2575 2281 2725 1954 
Q 2875 1628 2875 1288 
Q 2875 903 2686 575 
Q 2497 247 2172 53 
Q 1847 -141 1466 -141 
Q 1150 -141 886 21 
Q 622 184 470 459 
Q 319 734 319 1044 
Q 319 1188 412 1278 
Q 506 1369 647 1369 
Q 788 1369 883 1276 
Q 978 1184 978 1044 
Q 978 906 883 811 
Q 788 716 647 716 
Q 625 716 597 720 
Q 569 725 556 728 
z
" transform="scale(0.015625)"/>
     </defs>
     <use xlink:href="#NotoSansCJKjp-Regular-52ac" transform="translate(0 0.084203)"/>
     <use xlink:href="#NotoSansCJKjp-Regular-1" transform="translate(99.999908 0.084203)"/>
     <use xlink:href="#Cmsy10-1b" transform="translate(142.399944 0.084203)"/>
     <use xlink:href="#Cmr10-64" transform="translate(240.085548 0.084203)"/>
     <use xlink:href="#Cmr10-28" transform="translate(290.085548 0.084203)"/>
     <use xlink:href="#Cmsy10-11" transform="translate(344.089839 41.373437) scale(0.7)"/>
     <use xlink:href="#Cmr10-64" transform="translate(398.469722 41.373437) scale(0.7)"/>
     <use xlink:href="#Cmr10-78" transform="translate(433.469722 41.373437) scale(0.7)"/>
     <use xlink:href="#NotoSansCJKjp-Regular-1" transform="translate(474.190138 0.084203)"/>
     <use xlink:href="#NotoSansCJKjp-Regular-4e" transform="translate(496.590116 0.084203)"/>
    </g>
   </g>
   <g id="patch_11">
    <path d="M 135.328 227.0752 
Q 135.328 233.4816 135.328 237.875539 
" clip-path="url(#pd1c6053b89)" style="fill: none; stroke: #6b7280; stroke-width: 1.8; stroke-linecap: round"/>
    <path d="M 138.128 232.275539 
L 135.328 237.875539 
L 132.528 232.275539 
z
" clip-path="url(#pd1c6053b89)" style="fill: #6b7280; stroke: #6b7280; stroke-width: 1.8; stroke-linecap: round"/>
   </g>
   <g id="text_16">
    <!-- 質子 ＋ 中子 -->
    <g style="fill: #222831" transform="translate(41.696 261.0904) scale(0.13 -0.13)">
     <use xlink:href="#NotoSansCJKjp-Regular-97ec"/>
     <use xlink:href="#NotoSansCJKjp-Regular-3bf8" transform="translate(100 0)"/>
     <use xlink:href="#NotoSansCJKjp-Regular-1" transform="translate(200 0)"/>
     <use xlink:href="#NotoSansCJKjp-Regular-e6b1" transform="translate(222.40625 0)"/>
     <use xlink:href="#NotoSansCJKjp-Regular-1" transform="translate(322.40625 0)"/>
     <use xlink:href="#NotoSansCJKjp-Regular-2548" transform="translate(344.8125 0)"/>
     <use xlink:href="#NotoSansCJKjp-Regular-3bf8" transform="translate(444.8125 0)"/>
    </g>
   </g>
   <g id="text_17">
    <!-- 組成原子核的核子 -->
    <g style="fill: #555555" transform="translate(249.6576 260.1404) scale(0.105 -0.105)">
     <use xlink:href="#NotoSansCJKjp-Regular-78dd"/>
     <use xlink:href="#NotoSansCJKjp-Regular-4857" transform="translate(100 0)"/>
     <use xlink:href="#NotoSansCJKjp-Regular-2e09" transform="translate(200 0)"/>
     <use xlink:href="#NotoSansCJKjp-Regular-3bf8" transform="translate(300 0)"/>
     <use xlink:href="#NotoSansCJKjp-Regular-52ac" transform="translate(400 0)"/>
     <use xlink:href="#NotoSansCJKjp-Regular-6c33" transform="translate(500 0)"/>
     <use xlink:href="#NotoSansCJKjp-Regular-52ac" transform="translate(600 0)"/>
     <use xlink:href="#NotoSansCJKjp-Regular-3bf8" transform="translate(700 0)"/>
    </g>
   </g>
   <g id="text_18">
    <!-- $\sim 10^{-15}$ m -->
    <g style="fill: #d1242f" transform="translate(364.983 260.5204) scale(0.115 -0.115)">
     <use xlink:href="#Cmsy10-1b" transform="translate(20.000057 0.084203)"/>
     <use xlink:href="#Cmr10-64" transform="translate(117.685661 0.084203)"/>
     <use xlink:href="#Cmr10-28" transform="translate(167.685661 0.084203)"/>
     <use xlink:href="#Cmsy10-11" transform="translate(221.689952 41.373437) scale(0.7)"/>
     <use xlink:href="#Cmr10-64" transform="translate(276.069835 41.373437) scale(0.7)"/>
     <use xlink:href="#Cmr10-78" transform="translate(311.069835 41.373437) scale(0.7)"/>
     <use xlink:href="#NotoSansCJKjp-Regular-1" transform="translate(351.79025 0.084203)"/>
     <use xlink:href="#NotoSansCJKjp-Regular-4e" transform="translate(374.190229 0.084203)"/>
    </g>
   </g>
   <g id="patch_12">
    <path d="M 135.328 272.4128 
Q 135.328 278.8192 135.328 283.213139 
" clip-path="url(#pd1c6053b89)" style="fill: none; stroke: #6b7280; stroke-width: 1.8; stroke-linecap: round"/>
    <path d="M 138.128 277.613139 
L 135.328 283.213139 
L 132.528 277.613139 
z
" clip-path="url(#pd1c6053b89)" style="fill: #6b7280; stroke: #6b7280; stroke-width: 1.8; stroke-linecap: round"/>
   </g>
   <g id="text_19">
    <!-- 夸克 -->
    <g style="fill: #222831" transform="translate(41.696 306.428) scale(0.13 -0.13)">
     <defs>
      <path id="NotoSansCJKjp-Regular-3712" d="M 2688 5376 
C 2605 5114 2490 4845 2330 4576 
L 397 4576 
L 397 4147 
L 2042 4147 
C 1619 3603 1030 3104 230 2739 
C 333 2656 480 2483 544 2368 
C 1075 2630 1530 2950 1901 3302 
L 1901 2918 
L 4512 2918 
L 4512 3296 
C 4909 2912 5382 2598 5869 2400 
C 5946 2528 6086 2707 6202 2803 
C 5478 3053 4768 3558 4326 4147 
L 6022 4147 
L 6022 4576 
L 2880 4576 
C 3008 4813 3117 5056 3200 5299 
L 2688 5376 
z
M 4486 3322 
L 1920 3322 
C 2195 3584 2426 3859 2624 4147 
L 3821 4147 
C 4000 3853 4230 3571 4486 3322 
z
M 813 2310 
L 813 1901 
L 1811 1901 
C 1683 1510 1517 1082 1370 774 
L 1850 691 
L 1939 896 
L 4493 896 
C 4378 326 4262 51 4128 -51 
C 4058 -102 3987 -109 3846 -109 
C 3706 -109 3315 -96 2931 -64 
C 3008 -186 3059 -371 3072 -493 
C 3462 -525 3834 -525 4013 -512 
C 4230 -506 4358 -474 4499 -358 
C 4704 -186 4864 218 5011 1082 
C 5037 1152 5050 1299 5050 1299 
L 2093 1299 
L 2317 1901 
L 5562 1901 
L 5562 2310 
L 813 2310 
z
" transform="scale(0.015625)"/>
      <path id="NotoSansCJKjp-Regular-2a61" d="M 1619 3149 
L 4787 3149 
L 4787 2118 
L 1619 2118 
L 1619 3149 
z
M 2938 5382 
L 2938 4736 
L 448 4736 
L 448 4294 
L 2938 4294 
L 2938 3578 
L 1152 3578 
L 1152 1683 
L 2157 1683 
C 2022 781 1690 205 275 -83 
C 378 -186 512 -397 557 -525 
C 2112 -154 2522 563 2669 1683 
L 3622 1683 
L 3622 224 
C 3622 -301 3782 -448 4384 -448 
C 4512 -448 5267 -448 5402 -448 
C 5946 -448 6080 -211 6138 755 
C 6003 794 5798 870 5690 954 
C 5664 128 5626 13 5363 13 
C 5190 13 4563 13 4435 13 
C 4160 13 4115 38 4115 230 
L 4115 1683 
L 5280 1683 
L 5280 3578 
L 3424 3578 
L 3424 4294 
L 5978 4294 
L 5978 4736 
L 3424 4736 
L 3424 5382 
L 2938 5382 
z
" transform="scale(0.015625)"/>
     </defs>
     <use xlink:href="#NotoSansCJKjp-Regular-3712"/>
     <use xlink:href="#NotoSansCJKjp-Regular-2a61" transform="translate(100 0)"/>
    </g>
   </g>
   <g id="text_20">
    <!-- u、d 夸克（看不到單獨的） -->
    <g style="fill: #555555" transform="translate(249.6576 305.478) scale(0.105 -0.105)">
     <defs>
      <path id="NotoSansCJKjp-Regular-56" d="M 1606 -83 
C 2080 -83 2426 166 2752 544 
L 2771 544 
L 2816 0 
L 3302 0 
L 3302 3475 
L 2720 3475 
L 2720 1011 
C 2387 602 2138 422 1779 422 
C 1318 422 1126 698 1126 1344 
L 1126 3475 
L 538 3475 
L 538 1274 
C 538 384 870 -83 1606 -83 
z
" transform="scale(0.015625)"/>
      <path id="NotoSansCJKjp-Regular-45" d="M 1773 -83 
C 2189 -83 2560 141 2829 410 
L 2848 410 
L 2899 0 
L 3379 0 
L 3379 5094 
L 2790 5094 
L 2790 3757 
L 2822 3162 
C 2515 3411 2253 3565 1843 3565 
C 1050 3565 339 2861 339 1734 
C 339 576 902 -83 1773 -83 
z
M 1901 410 
C 1293 410 941 902 941 1741 
C 941 2534 1389 3072 1946 3072 
C 2234 3072 2502 2970 2790 2707 
L 2790 883 
C 2502 563 2221 410 1901 410 
z
" transform="scale(0.015625)"/>
      <path id="NotoSansCJKjp-Regular-e6ae" d="M 4448 2432 
C 4448 1184 4954 166 5722 -614 
L 6106 -416 
C 5370 346 4915 1293 4915 2432 
C 4915 3571 5370 4518 6106 5280 
L 5722 5478 
C 4954 4698 4448 3680 4448 2432 
z
" transform="scale(0.015625)"/>
      <path id="NotoSansCJKjp-Regular-2518" d="M 3578 3059 
C 4339 2547 5299 1792 5754 1299 
L 6144 1670 
C 5664 2163 4691 2880 3936 3366 
L 3578 3059 
z
M 442 4928 
L 442 4435 
L 3290 4435 
C 2656 3341 1555 2259 282 1632 
C 384 1523 531 1331 608 1210 
C 1498 1677 2291 2336 2938 3078 
L 2938 -499 
L 3456 -499 
L 3456 3738 
C 3622 3962 3770 4198 3904 4435 
L 5958 4435 
L 5958 4928 
L 442 4928 
z
" transform="scale(0.015625)"/>
      <path id="NotoSansCJKjp-Regular-2bbc" d="M 3885 4608 
L 3885 1056 
L 4352 1056 
L 4352 4608 
L 3885 4608 
z
M 5402 5197 
L 5402 134 
C 5402 19 5370 -13 5254 -19 
C 5126 -19 4723 -26 4294 -13 
C 4371 -154 4442 -378 4467 -512 
C 4986 -512 5370 -499 5587 -422 
C 5792 -346 5869 -198 5869 134 
L 5869 5197 
L 5402 5197 
z
M 2349 3994 
C 2522 3795 2701 3565 2861 3334 
L 1382 3264 
C 1562 3648 1747 4115 1914 4518 
L 3610 4518 
L 3610 4960 
L 326 4960 
L 326 4518 
L 1370 4518 
C 1248 4115 1069 3622 896 3245 
L 307 3219 
L 346 2765 
L 3136 2925 
C 3226 2778 3296 2643 3354 2528 
L 3731 2758 
C 3546 3149 3098 3750 2714 4192 
L 2349 3994 
z
M 256 160 
L 326 -320 
C 1184 -205 2445 -19 3635 147 
L 3622 595 
L 2208 410 
L 2208 1472 
L 3424 1472 
L 3424 1907 
L 2208 1907 
L 2208 2675 
L 1734 2675 
L 1734 1907 
L 512 1907 
L 512 1472 
L 1734 1472 
L 1734 346 
L 256 160 
z
" transform="scale(0.015625)"/>
      <path id="NotoSansCJKjp-Regular-3132" d="M 1280 4800 
L 2502 4800 
L 2502 4198 
L 1280 4198 
L 1280 4800 
z
M 845 5126 
L 845 3878 
L 2957 3878 
L 2957 5126 
L 845 5126 
z
M 3904 4800 
L 5152 4800 
L 5152 4198 
L 3904 4198 
L 3904 4800 
z
M 3475 5126 
L 3475 3878 
L 5606 3878 
L 5606 5126 
L 3475 5126 
z
M 1485 2253 
L 2931 2253 
L 2931 1696 
L 1485 1696 
L 1485 2253 
z
M 3430 2253 
L 4966 2253 
L 4966 1696 
L 3430 1696 
L 3430 2253 
z
M 1485 3168 
L 2931 3168 
L 2931 2618 
L 1485 2618 
L 1485 3168 
z
M 3430 3168 
L 4966 3168 
L 4966 2618 
L 3430 2618 
L 3430 3168 
z
M 371 819 
L 371 390 
L 2931 390 
L 2931 -512 
L 3430 -512 
L 3430 390 
L 6048 390 
L 6048 819 
L 3430 819 
L 3430 1306 
L 5453 1306 
L 5453 3552 
L 1011 3552 
L 1011 1306 
L 2931 1306 
L 2931 819 
L 371 819 
z
" transform="scale(0.015625)"/>
      <path id="NotoSansCJKjp-Regular-6690" d="M 4781 4730 
L 5459 4730 
L 5459 3962 
L 4781 3962 
L 4781 4730 
z
M 3750 4730 
L 4416 4730 
L 4416 3962 
L 3750 3962 
L 3750 4730 
z
M 2739 4730 
L 3386 4730 
L 3386 3962 
L 2739 3962 
L 2739 4730 
z
M 4339 819 
C 4403 723 4467 614 4525 506 
L 3910 454 
L 3910 992 
L 4979 992 
L 4979 2246 
L 3910 2246 
L 3910 2624 
L 3533 2624 
L 3533 2246 
L 2458 2246 
L 2458 992 
L 3533 992 
L 3533 422 
C 3014 378 2541 339 2176 320 
L 2227 -90 
L 4698 147 
L 4781 -83 
L 4608 -70 
C 4678 -186 4717 -371 4730 -499 
C 4979 -512 5210 -512 5350 -493 
C 5523 -474 5626 -429 5728 -288 
C 5907 -58 5958 698 6029 2931 
C 6029 3002 6035 3149 6035 3149 
L 3104 3149 
C 3194 3290 3270 3437 3341 3584 
L 5901 3584 
L 5901 5107 
L 2323 5107 
L 2323 3584 
L 2848 3584 
C 2618 3123 2272 2701 1888 2406 
C 1862 3014 1773 3597 1510 4154 
C 1766 4474 1997 4800 2176 5133 
L 1760 5338 
C 1632 5094 1466 4832 1274 4582 
C 1114 4832 909 5082 646 5325 
L 314 5075 
C 602 4800 819 4512 979 4218 
C 736 3936 467 3680 192 3462 
C 301 3392 448 3258 525 3162 
C 749 3347 973 3552 1184 3782 
C 1286 3501 1350 3213 1389 2918 
C 1114 2362 621 1760 179 1446 
C 288 1350 429 1190 499 1075 
C 819 1344 1165 1760 1440 2182 
L 1440 1926 
C 1440 1088 1382 256 1229 58 
C 1184 -6 1120 -38 1037 -45 
C 902 -64 685 -64 416 -45 
C 499 -179 544 -358 544 -506 
C 781 -518 1024 -512 1229 -474 
C 1376 -454 1498 -384 1581 -269 
C 1837 77 1894 986 1894 1920 
L 1888 2362 
C 1997 2291 2150 2163 2221 2099 
C 2432 2278 2643 2502 2835 2752 
L 5581 2752 
C 5517 832 5453 154 5338 -6 
C 5286 -83 5229 -96 5146 -96 
L 4890 -90 
L 5146 6 
C 5069 262 4877 646 4666 934 
L 4339 819 
z
M 2835 1920 
L 3533 1920 
L 3533 1318 
L 2835 1318 
L 2835 1920 
z
M 3910 1920 
L 4589 1920 
L 4589 1318 
L 3910 1318 
L 3910 1920 
z
" transform="scale(0.015625)"/>
      <path id="NotoSansCJKjp-Regular-e6af" d="M 1952 2432 
C 1952 3680 1446 4698 678 5478 
L 294 5280 
C 1030 4518 1485 3571 1485 2432 
C 1485 1293 1030 346 294 -416 
L 678 -614 
C 1446 166 1952 1184 1952 2432 
z
" transform="scale(0.015625)"/>
     </defs>
     <use xlink:href="#NotoSansCJKjp-Regular-56"/>
     <use xlink:href="#NotoSansCJKjp-Regular-575" transform="translate(60.703125 0)"/>
     <use xlink:href="#NotoSansCJKjp-Regular-45" transform="translate(160.703125 0)"/>
     <use xlink:href="#NotoSansCJKjp-Regular-1" transform="translate(222.703125 0)"/>
     <use xlink:href="#NotoSansCJKjp-Regular-3712" transform="translate(245.109375 0)"/>
     <use xlink:href="#NotoSansCJKjp-Regular-2a61" transform="translate(345.109375 0)"/>
     <use xlink:href="#NotoSansCJKjp-Regular-e6ae" transform="translate(445.109375 0)"/>
     <use xlink:href="#NotoSansCJKjp-Regular-6d07" transform="translate(545.109375 0)"/>
     <use xlink:href="#NotoSansCJKjp-Regular-2518" transform="translate(645.109375 0)"/>
     <use xlink:href="#NotoSansCJKjp-Regular-2bbc" transform="translate(745.109375 0)"/>
     <use xlink:href="#NotoSansCJKjp-Regular-3132" transform="translate(845.109375 0)"/>
     <use xlink:href="#NotoSansCJKjp-Regular-6690" transform="translate(945.109375 0)"/>
     <use xlink:href="#NotoSansCJKjp-Regular-6c33" transform="translate(1045.109375 0)"/>
     <use xlink:href="#NotoSansCJKjp-Regular-e6af" transform="translate(1145.109375 0)"/>
    </g>
   </g>
   <g id="text_21">
    <!-- $&lt; 10^{-18}$ m -->
    <g style="fill: #d1242f" transform="translate(364.983 305.858) scale(0.115 -0.115)">
     <defs>
      <path id="Cmmi10-63" d="M 594 1491 
Q 531 1519 531 1600 
Q 531 1681 616 1722 
L 4269 3444 
Q 4294 3456 4313 3456 
Q 4369 3456 4405 3417 
Q 4441 3378 4441 3328 
Q 4441 3250 4366 3206 
L 959 1600 
L 4384 -19 
Q 4441 -38 4441 -128 
Q 4441 -178 4405 -217 
Q 4369 -256 4313 -256 
Q 4294 -256 4269 -244 
L 594 1491 
z
" transform="scale(0.015625)"/>
      <path id="Cmr10-4d" d="M 269 972 
Q 269 1356 522 1651 
Q 775 1947 1172 2144 
L 934 2297 
Q 716 2441 578 2680 
Q 441 2919 441 3181 
Q 441 3488 602 3734 
Q 763 3981 1030 4122 
Q 1297 4263 1600 4263 
Q 1884 4263 2148 4147 
Q 2413 4031 2583 3815 
Q 2753 3600 2753 3303 
Q 2753 3088 2651 2903 
Q 2550 2719 2373 2572 
Q 2197 2425 1997 2322 
L 2363 2088 
Q 2616 1922 2770 1653 
Q 2925 1384 2925 1088 
Q 2925 741 2739 456 
Q 2553 172 2247 15 
Q 1941 -141 1600 -141 
Q 1269 -141 961 -6 
Q 653 128 461 383 
Q 269 638 269 972 
z
M 616 972 
Q 616 719 755 509 
Q 894 300 1122 181 
Q 1350 63 1600 63 
Q 1972 63 2275 280 
Q 2578 497 2578 856 
Q 2578 978 2529 1098 
Q 2481 1219 2395 1317 
Q 2309 1416 2203 1478 
L 1344 2034 
Q 1144 1928 976 1765 
Q 809 1603 712 1400 
Q 616 1197 616 972 
z
M 1056 2925 
L 1831 2425 
Q 2100 2581 2272 2803 
Q 2444 3025 2444 3303 
Q 2444 3519 2323 3698 
Q 2203 3878 2009 3978 
Q 1816 4078 1594 4078 
Q 1400 4078 1203 4003 
Q 1006 3928 878 3779 
Q 750 3631 750 3431 
Q 750 3131 1056 2925 
z
" transform="scale(0.015625)"/>
     </defs>
     <use xlink:href="#Cmmi10-63" transform="translate(20.000057 0.084203)"/>
     <use xlink:href="#Cmr10-64" transform="translate(117.685661 0.084203)"/>
     <use xlink:href="#Cmr10-28" transform="translate(167.685661 0.084203)"/>
     <use xlink:href="#Cmsy10-11" transform="translate(221.689952 41.373437) scale(0.7)"/>
     <use xlink:href="#Cmr10-64" transform="translate(276.069835 41.373437) scale(0.7)"/>
     <use xlink:href="#Cmr10-4d" transform="translate(311.069835 41.373437) scale(0.7)"/>
     <use xlink:href="#NotoSansCJKjp-Regular-1" transform="translate(351.79025 0.084203)"/>
     <use xlink:href="#NotoSansCJKjp-Regular-4e" transform="translate(374.190229 0.084203)"/>
    </g>
   </g>
  </g>
 </g>
 <defs>
  <clipPath id="pd1c6053b89">
   <rect x="7.2" y="25.52" width="423.808" height="310.464"/>
  </clipPath>
 </defs>
</svg>
