<?xml version="1.0" encoding="utf-8" standalone="no"?>
<!DOCTYPE svg PUBLIC "-//W3C//DTD SVG 1.1//EN"
  "http://www.w3.org/Graphics/SVG/1.1/DTD/svg11.dtd">
<svg xmlns:xlink="http://www.w3.org/1999/xlink" width="505.44pt" height="292.137358pt" viewBox="0 0 505.44 292.137358" xmlns="http://www.w3.org/2000/svg" version="1.1">
 <metadata>
  <rdf:RDF xmlns:dc="http://purl.org/dc/elements/1.1/" xmlns:cc="http://creativecommons.org/ns#" xmlns:rdf="http://www.w3.org/1999/02/22-rdf-syntax-ns#">
   <cc:Work>
    <dc:type rdf:resource="http://purl.org/dc/dcmitype/StillImage"/>
    <dc:date>2026-06-19T00:13:25.328055</dc:date>
    <dc:format>image/svg+xml</dc:format>
    <dc:creator>
     <cc:Agent>
      <dc:title>Matplotlib v3.11.0, https://matplotlib.org/</dc:title>
     </cc:Agent>
    </dc:creator>
   </cc:Work>
  </rdf:RDF>
 </metadata>
 <defs>
  <style type="text/css">*{stroke-linejoin: round; stroke-linecap: butt}</style>
 </defs>
 <g id="figure_1">
  <g id="patch_1">
   <path d="M 0 292.137358 
L 505.44 292.137358 
L 505.44 0 
L 0 0 
z
" style="fill: #ffffff"/>
  </g>
  <g id="axes_1">
   <g id="text_1">
    <!-- 母核（衰變前） -->
    <g style="fill: #222831" transform="translate(92.026226 67.212075) scale(0.115 -0.115)">
     <defs>
      <path id="NotoSansCJKjp-Regular-5933" d="M 2515 4083 
C 2970 3853 3514 3501 3770 3245 
L 4064 3571 
C 3789 3827 3245 4166 2803 4371 
L 2515 4083 
z
M 2278 2080 
C 2778 1824 3354 1421 3629 1120 
L 3949 1440 
C 3661 1741 3072 2125 2579 2368 
L 2278 2080 
z
M 4934 4621 
L 4864 3059 
L 1677 3059 
L 1894 4621 
L 4934 4621 
z
M 1453 5062 
C 1389 4461 1299 3757 1197 3059 
L 243 3059 
L 243 2605 
L 1126 2605 
C 986 1677 832 787 698 141 
L 1203 96 
L 1286 557 
L 4621 557 
C 4563 275 4499 109 4422 26 
C 4352 -70 4269 -96 4147 -96 
C 3994 -96 3667 -90 3290 -58 
C 3360 -179 3411 -371 3418 -499 
C 3770 -512 4128 -518 4346 -499 
C 4570 -474 4717 -416 4864 -211 
C 4966 -83 5050 147 5120 557 
L 5997 557 
L 5997 1005 
L 5184 1005 
C 5235 1408 5280 1933 5318 2605 
L 6163 2605 
L 6163 3059 
L 5344 3059 
L 5421 4794 
C 5427 4864 5434 5062 5434 5062 
L 1453 5062 
z
M 4698 1005 
L 1363 1005 
C 1446 1491 1530 2042 1613 2605 
L 4838 2605 
C 4794 1920 4749 1395 4698 1005 
z
" transform="scale(0.015625)"/>
      <path id="NotoSansCJKjp-Regular-52ac" d="M 5114 3488 
C 4858 3053 4512 2643 4096 2272 
C 3942 2419 3744 2592 3526 2765 
C 3821 3091 4179 3558 4467 3949 
L 4442 3962 
L 6125 3962 
L 6125 4403 
L 4570 4403 
L 4570 5363 
L 4102 5363 
L 4102 4403 
L 2496 4403 
L 2496 3962 
L 3878 3962 
C 3686 3648 3430 3290 3206 3008 
L 2874 3245 
L 2592 2925 
C 2976 2656 3437 2272 3738 1971 
C 3341 1670 2906 1408 2458 1216 
C 2566 1126 2701 973 2765 864 
C 3898 1402 4922 2298 5530 3315 
L 5114 3488 
z
M 5651 2317 
C 4992 1203 3757 339 2285 -115 
C 2400 -224 2515 -390 2579 -506 
C 3373 -237 4096 141 4704 608 
C 5120 230 5568 -230 5805 -531 
L 6195 -237 
C 5939 70 5466 525 5043 890 
C 5459 1261 5805 1670 6080 2131 
L 5651 2317 
z
M 1274 5376 
L 1274 4006 
L 333 4006 
L 333 3552 
L 1222 3552 
C 1024 2675 614 1664 205 1120 
C 288 1011 403 826 454 698 
C 762 1114 1050 1798 1274 2502 
L 1274 -506 
L 1722 -506 
L 1722 2496 
C 1933 2157 2182 1741 2291 1517 
L 2560 1888 
C 2445 2074 1907 2842 1722 3066 
L 1722 3552 
L 2483 3552 
L 2483 4006 
L 1722 4006 
L 1722 5376 
L 1274 5376 
z
" transform="scale(0.015625)"/>
      <path id="NotoSansCJKjp-Regular-e6ae" d="M 4448 2432 
C 4448 1184 4954 166 5722 -614 
L 6106 -416 
C 5370 346 4915 1293 4915 2432 
C 4915 3571 5370 4518 6106 5280 
L 5722 5478 
C 4954 4698 4448 3680 4448 2432 
z
" transform="scale(0.015625)"/>
      <path id="NotoSansCJKjp-Regular-8fa0" d="M 429 4774 
L 429 4384 
L 5920 4384 
L 5920 4774 
L 3424 4774 
L 3424 5376 
L 2950 5376 
L 2950 4774 
L 429 4774 
z
M 4678 2682 
L 4678 2221 
L 1798 2221 
L 1798 2682 
L 4678 2682 
z
M 1798 3520 
L 4678 3520 
L 4678 3078 
L 1798 3078 
L 1798 3520 
z
M 333 3078 
L 333 2682 
L 1344 2682 
L 1344 1843 
L 2522 1843 
C 1914 1414 1024 1050 237 864 
C 333 768 461 602 531 486 
C 941 595 1376 755 1792 954 
L 1792 102 
L 966 -6 
L 1037 -448 
C 1766 -339 2810 -179 3814 -26 
L 3789 384 
L 2253 166 
L 2253 1197 
C 2598 1389 2912 1613 3162 1843 
L 3200 1843 
C 3674 621 4544 -173 5875 -525 
C 5939 -397 6067 -211 6176 -115 
C 5517 32 4960 301 4525 678 
C 4928 890 5408 1178 5786 1466 
L 5402 1734 
C 5126 1491 4653 1165 4256 934 
C 4019 1197 3821 1504 3674 1843 
L 5158 1843 
L 5158 2682 
L 6074 2682 
L 6074 3078 
L 5158 3078 
L 5158 3898 
L 1344 3898 
L 1344 3078 
L 333 3078 
z
" transform="scale(0.015625)"/>
      <path id="NotoSansCJKjp-Regular-95ec" d="M 1664 2874 
C 1798 2650 1933 2342 1984 2150 
L 2291 2285 
C 2240 2470 2099 2765 1965 2982 
L 1664 2874 
z
M 640 2970 
C 563 2624 442 2259 262 2003 
C 358 1958 512 1869 582 1818 
C 755 2093 909 2502 998 2886 
L 640 2970 
z
M 5376 2848 
C 5568 2560 5760 2170 5830 1926 
L 6150 2080 
C 6067 2317 5869 2694 5677 2976 
L 5376 2848 
z
M 4275 2963 
C 4198 2630 4077 2298 3898 2048 
C 3987 2010 4141 1926 4211 1882 
C 4384 2138 4538 2522 4627 2886 
L 4275 2963 
z
M 2477 5203 
L 2477 4922 
L 3853 4922 
L 3853 5203 
L 2477 5203 
z
M 2464 4077 
L 2464 3802 
L 3866 3802 
L 3866 4077 
L 2464 4077 
z
M 2464 3533 
L 2464 3251 
L 3866 3251 
L 3866 3533 
L 2464 3533 
z
M 2803 2688 
L 3520 2688 
L 3520 2214 
L 2803 2214 
L 2803 2688 
z
M 1709 4832 
C 1587 4653 1427 4435 1254 4218 
C 1184 4294 1094 4384 998 4474 
C 1178 4691 1376 4973 1542 5242 
L 1197 5382 
C 1094 5178 928 4896 774 4672 
L 614 4800 
L 390 4550 
C 608 4371 858 4134 1018 3942 
C 902 3808 787 3680 678 3571 
L 307 3571 
L 346 3200 
L 1152 3232 
L 1152 1728 
L 1530 1728 
L 1530 3251 
L 2029 3270 
L 2125 3085 
L 2406 3251 
C 2304 3469 2067 3795 1856 4038 
L 1581 3891 
C 1658 3802 1741 3699 1818 3590 
L 1094 3578 
C 1414 3904 1773 4307 2054 4659 
L 1709 4832 
z
M 2208 4659 
L 2208 4352 
L 4064 4352 
L 4064 4474 
C 4269 4320 4499 4109 4653 3936 
C 4531 3802 4416 3680 4301 3571 
L 3942 3571 
L 3987 3200 
L 4813 3232 
L 4813 1728 
L 5190 1728 
L 5190 3251 
L 5734 3277 
C 5792 3187 5843 3110 5875 3040 
L 6163 3226 
C 6042 3462 5754 3814 5504 4077 
L 5235 3917 
C 5325 3821 5421 3706 5510 3590 
L 4730 3578 
C 5075 3910 5459 4339 5766 4704 
L 5421 4883 
C 5286 4685 5094 4442 4896 4211 
C 4819 4288 4723 4378 4621 4461 
C 4800 4678 5018 4966 5190 5242 
L 4838 5382 
C 4736 5171 4550 4877 4390 4653 
L 4250 4755 
L 4064 4538 
L 4064 4659 
L 2208 4659 
z
M 4269 1171 
C 3987 902 3622 685 3194 506 
C 2707 691 2278 909 1965 1171 
L 4269 1171 
z
M 2451 2963 
L 2451 2054 
L 2189 2131 
C 1824 1549 1120 1069 397 781 
C 499 704 666 531 736 448 
C 1030 589 1331 755 1606 960 
C 1901 710 2253 493 2650 307 
C 1933 90 1101 -45 256 -122 
C 339 -224 461 -422 499 -538 
C 1453 -416 2400 -237 3206 77 
C 4026 -230 4966 -422 5914 -525 
C 5971 -403 6080 -218 6176 -115 
C 5338 -45 4493 102 3757 320 
C 4198 544 4582 826 4870 1171 
L 5920 1171 
L 5920 1562 
L 2291 1562 
C 2394 1683 2496 1805 2579 1939 
L 3878 1939 
L 3878 2963 
L 2451 2963 
z
" transform="scale(0.015625)"/>
      <path id="NotoSansCJKjp-Regular-2be5" d="M 3866 3290 
L 3866 666 
L 4314 666 
L 4314 3290 
L 3866 3290 
z
M 5165 3482 
L 5165 90 
C 5165 -6 5133 -32 5030 -32 
C 4922 -38 4576 -38 4186 -26 
C 4256 -154 4333 -358 4358 -486 
C 4851 -493 5178 -480 5370 -403 
C 5568 -326 5638 -192 5638 83 
L 5638 3482 
L 5165 3482 
z
M 4627 5408 
C 4486 5094 4243 4672 4026 4365 
L 2106 4365 
L 2419 4480 
C 2298 4736 2022 5114 1779 5382 
L 1331 5222 
C 1562 4960 1798 4614 1920 4365 
L 339 4365 
L 339 3923 
L 6061 3923 
L 6061 4365 
L 4570 4365 
C 4755 4627 4960 4947 5139 5242 
L 4627 5408 
z
M 2618 1926 
L 2618 1280 
L 1197 1280 
L 1197 1926 
L 2618 1926 
z
M 2618 2304 
L 1197 2304 
L 1197 2938 
L 2618 2938 
L 2618 2304 
z
M 742 3347 
L 742 -480 
L 1197 -480 
L 1197 902 
L 2618 902 
L 2618 45 
C 2618 -38 2592 -64 2502 -64 
C 2419 -70 2125 -70 1798 -58 
C 1862 -179 1933 -365 1965 -486 
C 2394 -486 2682 -480 2854 -403 
C 3034 -333 3085 -205 3085 38 
L 3085 3347 
L 742 3347 
z
" transform="scale(0.015625)"/>
      <path id="NotoSansCJKjp-Regular-e6af" d="M 1952 2432 
C 1952 3680 1446 4698 678 5478 
L 294 5280 
C 1030 4518 1485 3571 1485 2432 
C 1485 1293 1030 346 294 -416 
L 678 -614 
C 1446 166 1952 1184 1952 2432 
z
" transform="scale(0.015625)"/>
     </defs>
     <use xlink:href="#NotoSansCJKjp-Regular-5933"/>
     <use xlink:href="#NotoSansCJKjp-Regular-52ac" transform="translate(100 0)"/>
     <use xlink:href="#NotoSansCJKjp-Regular-e6ae" transform="translate(200 0)"/>
     <use xlink:href="#NotoSansCJKjp-Regular-8fa0" transform="translate(300 0)"/>
     <use xlink:href="#NotoSansCJKjp-Regular-95ec" transform="translate(400 0)"/>
     <use xlink:href="#NotoSansCJKjp-Regular-2be5" transform="translate(500 0)"/>
     <use xlink:href="#NotoSansCJKjp-Regular-e6af" transform="translate(600 0)"/>
    </g>
   </g>
   <g id="text_2">
    <!-- 原子序 $Z$、質量數 $A$ -->
    <g style="fill: #555555" transform="translate(85.603726 203.869434) scale(0.105 -0.105)">
     <defs>
      <path id="NotoSansCJKjp-Regular-2e09" d="M 2362 2624 
L 5024 2624 
L 5024 2029 
L 2362 2029 
L 2362 2624 
z
M 2362 3571 
L 5024 3571 
L 5024 2989 
L 2362 2989 
L 2362 3571 
z
M 4474 1107 
C 4954 723 5510 166 5754 -211 
L 6150 51 
C 5888 435 5325 966 4838 1338 
L 4474 1107 
z
M 2374 1318 
C 2080 838 1606 352 1126 45 
C 1242 -26 1434 -160 1523 -237 
C 1990 109 2496 646 2835 1184 
L 2374 1318 
z
M 1888 3955 
L 1888 1645 
L 3450 1645 
L 3450 13 
C 3450 -64 3424 -90 3328 -96 
C 3232 -96 2899 -96 2522 -90 
C 2586 -211 2650 -390 2669 -512 
C 3168 -512 3482 -512 3674 -442 
C 3866 -371 3917 -243 3917 6 
L 3917 1645 
L 5510 1645 
L 5510 3955 
L 3750 3955 
C 3814 4147 3885 4365 3949 4576 
L 6035 4576 
L 6035 5024 
L 838 5024 
L 838 3168 
C 838 2163 787 749 224 -256 
C 339 -301 550 -422 640 -499 
C 1229 550 1312 2106 1312 3168 
L 1312 4576 
L 3386 4576 
C 3347 4390 3296 4154 3238 3955 
L 1888 3955 
z
" transform="scale(0.015625)"/>
      <path id="NotoSansCJKjp-Regular-3bf8" d="M 966 4934 
L 966 4454 
L 4595 4454 
C 4211 4134 3718 3795 3264 3546 
L 2963 3546 
L 2963 2515 
L 301 2515 
L 301 2035 
L 2963 2035 
L 2963 115 
C 2963 0 2925 -32 2790 -45 
C 2643 -45 2170 -51 1658 -32 
C 1734 -173 1830 -384 1862 -525 
C 2477 -531 2893 -518 3136 -435 
C 3379 -358 3462 -218 3462 109 
L 3462 2035 
L 6112 2035 
L 6112 2515 
L 3462 2515 
L 3462 3149 
C 4179 3539 5024 4134 5574 4685 
L 5210 4960 
L 5101 4934 
L 966 4934 
z
" transform="scale(0.015625)"/>
      <path id="NotoSansCJKjp-Regular-420b" d="M 2374 2810 
C 2822 2624 3360 2374 3789 2150 
L 1472 2150 
L 1472 1734 
L 3469 1734 
L 3469 38 
C 3469 -51 3437 -77 3309 -83 
C 3187 -90 2758 -90 2285 -77 
C 2349 -211 2426 -390 2451 -525 
C 3027 -525 3411 -531 3642 -454 
C 3878 -384 3949 -256 3949 38 
L 3949 1734 
L 5331 1734 
C 5101 1408 4826 1082 4602 858 
L 4986 666 
C 5338 1005 5728 1536 6080 2022 
L 5728 2176 
L 5645 2150 
L 4576 2150 
L 4608 2182 
C 4461 2272 4275 2368 4064 2477 
C 4589 2765 5120 3155 5491 3539 
L 5171 3782 
L 5069 3757 
L 1843 3757 
L 1843 3360 
L 4634 3360 
C 4352 3117 3987 2861 3642 2675 
C 3309 2829 2963 2976 2662 3091 
L 2374 2810 
z
M 774 4659 
L 774 2880 
C 774 1952 730 653 198 -262 
C 314 -314 525 -448 602 -531 
C 1152 442 1242 1888 1242 2880 
L 1242 4211 
L 6086 4211 
L 6086 4659 
L 3635 4659 
L 3635 5376 
L 3142 5376 
L 3142 4659 
L 774 4659 
z
" transform="scale(0.015625)"/>
      <path id="NotoSansCJKjp-Regular-1" transform="scale(0.015625)"/>
      <path id="Cmmi10-2e" d="M 372 50 
Q 372 144 416 197 
L 3938 4147 
L 2994 4147 
Q 2525 4147 2217 4036 
Q 1909 3925 1707 3667 
Q 1506 3409 1369 2963 
Q 1356 2906 1306 2906 
L 1247 2906 
Q 1184 2906 1184 2988 
L 1588 4313 
Q 1600 4372 1650 4372 
L 4569 4372 
Q 4622 4372 4622 4319 
Q 4622 4225 4581 4184 
L 1075 244 
L 2047 244 
Q 2613 244 2936 383 
Q 3259 522 3448 822 
Q 3638 1122 3816 1678 
Q 3822 1700 3839 1717 
Q 3856 1734 3878 1734 
L 3938 1734 
Q 4000 1734 4000 1650 
L 3494 56 
Q 3466 0 3431 0 
L 428 0 
Q 372 0 372 50 
z
" transform="scale(0.015625)"/>
      <path id="NotoSansCJKjp-Regular-575" d="M 1747 -358 
L 2182 13 
C 1786 480 1210 1062 749 1434 
L 333 1069 
C 787 698 1338 147 1747 -358 
z
" transform="scale(0.015625)"/>
      <path id="NotoSansCJKjp-Regular-97ec" d="M 1606 2061 
L 4851 2061 
L 4851 1613 
L 1606 1613 
L 1606 2061 
z
M 1606 1299 
L 4851 1299 
L 4851 845 
L 1606 845 
L 1606 1299 
z
M 1606 2816 
L 4851 2816 
L 4851 2374 
L 1606 2374 
L 1606 2816 
z
M 1139 3142 
L 1139 518 
L 5331 518 
L 5331 3142 
L 1139 3142 
z
M 3738 186 
C 4435 -45 5126 -320 5530 -525 
L 6067 -282 
C 5600 -70 4826 211 4128 429 
L 3738 186 
z
M 2227 448 
C 1766 198 998 -32 339 -173 
C 448 -256 621 -435 698 -531 
C 1338 -358 2150 -58 2669 250 
L 2227 448 
z
M 813 5203 
L 813 4570 
C 813 4154 736 3642 282 3226 
C 384 3162 538 3014 602 2918 
C 973 3264 1139 3693 1203 4077 
L 1990 4077 
L 1990 3270 
L 2419 3270 
L 2419 4077 
L 3174 4077 
L 3174 4448 
L 1242 4448 
L 1242 4544 
L 1242 4774 
C 1843 4832 2528 4922 3002 5062 
L 2682 5363 
C 2336 5254 1741 5158 1184 5101 
L 813 5203 
z
M 3430 5190 
L 3430 4614 
C 3430 4256 3334 3846 2816 3507 
C 2918 3437 3059 3283 3117 3181 
C 3501 3443 3693 3763 3782 4077 
L 4678 4077 
L 4678 3258 
L 5114 3258 
L 5114 4077 
L 6067 4077 
L 6067 4448 
L 3853 4448 
L 3859 4602 
L 3859 4774 
C 4506 4826 5242 4915 5747 5050 
L 5427 5350 
C 5050 5248 4397 5152 3802 5094 
L 3430 5190 
z
" transform="scale(0.015625)"/>
      <path id="NotoSansCJKjp-Regular-a108" d="M 1600 4256 
L 4781 4256 
L 4781 3904 
L 1600 3904 
L 1600 4256 
z
M 1600 4883 
L 4781 4883 
L 4781 4538 
L 1600 4538 
L 1600 4883 
z
M 1133 5171 
L 1133 3616 
L 5261 3616 
L 5261 5171 
L 1133 5171 
z
M 333 3341 
L 333 2976 
L 6074 2976 
L 6074 3341 
L 333 3341 
z
M 1472 1747 
L 2957 1747 
L 2957 1376 
L 1472 1376 
L 1472 1747 
z
M 3424 1747 
L 4973 1747 
L 4973 1376 
L 3424 1376 
L 3424 1747 
z
M 1472 2387 
L 2957 2387 
L 2957 2029 
L 1472 2029 
L 1472 2387 
z
M 3424 2387 
L 4973 2387 
L 4973 2029 
L 3424 2029 
L 3424 2387 
z
M 301 19 
L 301 -352 
L 6112 -352 
L 6112 19 
L 3424 19 
L 3424 390 
L 5587 390 
L 5587 730 
L 3424 730 
L 3424 1082 
L 5446 1082 
L 5446 2688 
L 1018 2688 
L 1018 1082 
L 2957 1082 
L 2957 730 
L 838 730 
L 838 390 
L 2957 390 
L 2957 19 
L 301 19 
z
" transform="scale(0.015625)"/>
      <path id="NotoSansCJKjp-Regular-4e26" d="M 4352 3744 
L 5318 3744 
C 5216 2957 5062 2266 4826 1677 
C 4595 2266 4442 2944 4333 3661 
L 4352 3744 
z
M 256 4301 
L 256 3936 
L 698 3936 
L 698 3245 
L 1741 3245 
L 1741 2950 
L 538 2950 
L 538 1882 
L 1485 1882 
L 1274 1478 
L 262 1472 
L 275 1088 
L 1069 1094 
C 928 845 787 608 666 422 
L 1062 307 
L 1171 486 
C 1389 403 1606 314 1818 218 
C 1459 32 998 -83 416 -154 
C 493 -256 570 -410 602 -538 
C 1293 -416 1837 -250 2246 13 
C 2522 -128 2765 -275 2957 -410 
L 3264 -102 
C 3078 19 2848 154 2586 282 
C 2816 512 2976 794 3072 1133 
L 3750 1152 
L 3763 1510 
L 1734 1485 
L 1939 1882 
L 3424 1882 
L 3424 2419 
C 3526 2336 3648 2221 3706 2157 
C 3834 2362 3949 2592 4051 2848 
C 4179 2221 4346 1645 4563 1146 
C 4256 614 3853 192 3309 -134 
C 3392 -224 3539 -429 3584 -525 
C 4090 -198 4486 192 4794 666 
C 5075 166 5414 -237 5850 -518 
C 5920 -403 6067 -224 6176 -141 
C 5709 141 5350 582 5062 1133 
C 5421 1843 5638 2707 5779 3744 
L 6144 3744 
L 6144 4186 
L 4467 4186 
C 4550 4544 4621 4922 4678 5306 
L 4211 5376 
C 4070 4339 3827 3315 3424 2618 
L 3424 2950 
L 2163 2950 
L 2163 3245 
L 3277 3245 
L 3277 3936 
L 3731 3936 
L 3731 4301 
L 3277 4301 
L 3277 4986 
L 2163 4986 
L 2163 5376 
L 1741 5376 
L 1741 4986 
L 698 4986 
L 698 4301 
L 256 4301 
z
M 1101 4646 
L 1741 4646 
L 1741 4282 
L 1101 4282 
L 1101 4646 
z
M 1741 3578 
L 1101 3578 
L 1101 3955 
L 1741 3955 
L 1741 3578 
z
M 2163 4646 
L 2848 4646 
L 2848 4282 
L 2163 4282 
L 2163 4646 
z
M 2163 3578 
L 2163 3955 
L 2848 3955 
L 2848 3578 
L 2163 3578 
z
M 947 2624 
L 1741 2624 
L 1741 2202 
L 947 2202 
L 947 2624 
z
M 2163 2624 
L 3002 2624 
L 3002 2202 
L 2163 2202 
L 2163 2624 
z
M 1530 1107 
L 2630 1126 
C 2534 864 2387 646 2189 467 
C 1920 589 1632 704 1357 800 
L 1530 1107 
z
" transform="scale(0.015625)"/>
      <path id="Cmmi10-5c" d="M 288 0 
Q 225 0 225 84 
Q 250 225 306 225 
Q 566 225 755 328 
Q 944 431 1081 647 
Q 1094 659 1094 659 
L 3378 4513 
Q 3428 4581 3500 4581 
L 3584 4581 
Q 3603 4581 3622 4573 
Q 3641 4566 3655 4548 
Q 3669 4531 3669 4513 
L 4056 378 
Q 4056 350 4084 294 
Q 4147 225 4563 225 
Q 4628 225 4628 141 
Q 4606 56 4592 28 
Q 4578 0 4519 0 
L 2919 0 
Q 2859 0 2859 84 
Q 2894 225 2944 225 
Q 3450 225 3481 397 
L 3384 1453 
L 1806 1453 
L 1294 594 
Q 1247 525 1247 434 
Q 1247 322 1355 273 
Q 1463 225 1594 225 
Q 1656 225 1656 141 
Q 1634 50 1621 25 
Q 1609 0 1550 0 
L 288 0 
z
M 1931 1678 
L 3359 1678 
L 3169 3750 
L 1931 1678 
z
" transform="scale(0.015625)"/>
     </defs>
     <use xlink:href="#NotoSansCJKjp-Regular-2e09"/>
     <use xlink:href="#NotoSansCJKjp-Regular-3bf8" transform="translate(99.999908 0)"/>
     <use xlink:href="#NotoSansCJKjp-Regular-420b" transform="translate(199.999817 0)"/>
     <use xlink:href="#NotoSansCJKjp-Regular-1" transform="translate(299.999725 0)"/>
     <use xlink:href="#Cmmi10-2e" transform="translate(322.399704 0)"/>
     <use xlink:href="#NotoSansCJKjp-Regular-575" transform="translate(390.612595 0)"/>
     <use xlink:href="#NotoSansCJKjp-Regular-97ec" transform="translate(490.612503 0)"/>
     <use xlink:href="#NotoSansCJKjp-Regular-a108" transform="translate(590.612411 0)"/>
     <use xlink:href="#NotoSansCJKjp-Regular-4e26" transform="translate(690.61232 0)"/>
     <use xlink:href="#NotoSansCJKjp-Regular-1" transform="translate(790.612228 0)"/>
     <use xlink:href="#Cmmi10-5c" transform="translate(813.012207 0)"/>
    </g>
   </g>
   <g id="text_3">
    <!-- 中子過多、 -->
    <g style="fill: #bf8700" transform="translate(17.60566 137.875094) scale(0.095 -0.095)">
     <defs>
      <path id="NotoSansCJKjp-Regular-2548" d="M 2931 5376 
L 2931 4230 
L 614 4230 
L 614 1190 
L 1094 1190 
L 1094 1587 
L 2931 1587 
L 2931 -506 
L 3437 -506 
L 3437 1587 
L 5280 1587 
L 5280 1222 
L 5773 1222 
L 5773 4230 
L 3437 4230 
L 3437 5376 
L 2931 5376 
z
M 1094 2061 
L 1094 3763 
L 2931 3763 
L 2931 2061 
L 1094 2061 
z
M 5280 2061 
L 3437 2061 
L 3437 3763 
L 5280 3763 
L 5280 2061 
z
" transform="scale(0.015625)"/>
      <path id="NotoSansCJKjp-Regular-9de8" d="M 358 4947 
C 749 4640 1184 4186 1370 3866 
L 1760 4166 
C 1568 4480 1114 4922 723 5216 
L 358 4947 
z
M 1574 2848 
L 294 2848 
L 294 2400 
L 1107 2400 
L 1107 742 
C 819 474 499 205 230 13 
L 480 -461 
C 794 -179 1088 96 1370 371 
C 1773 -134 2355 -358 3200 -390 
C 3917 -416 5286 -403 6003 -378 
C 6022 -230 6099 -13 6157 96 
C 5382 45 3904 26 3194 58 
C 2438 90 1875 307 1574 781 
L 1574 2848 
z
M 3744 4250 
L 3744 3174 
L 3117 3174 
L 3117 4781 
L 4890 4781 
L 4890 4250 
L 3744 4250 
z
M 4102 3174 
L 4102 3917 
L 4890 3917 
L 4890 3174 
L 4102 3174 
z
M 2688 5152 
L 2688 3174 
L 2189 3174 
L 2189 390 
L 2618 390 
L 2618 2790 
L 5382 2790 
L 5382 870 
C 5382 800 5357 781 5286 781 
C 5216 774 4979 774 4710 787 
C 4762 672 4819 506 4838 390 
C 5216 390 5472 397 5626 461 
C 5786 531 5824 646 5824 870 
L 5824 3174 
L 5331 3174 
L 5331 5152 
L 2688 5152 
z
M 3155 2374 
L 3155 762 
L 3533 762 
L 3533 1018 
L 4826 1018 
L 4826 2374 
L 3155 2374 
z
M 3533 2035 
L 4448 2035 
L 4448 1350 
L 3533 1350 
L 3533 2035 
z
" transform="scale(0.015625)"/>
      <path id="NotoSansCJKjp-Regular-36e1" d="M 2899 5389 
C 2458 4845 1619 4243 461 3840 
C 570 3763 723 3597 794 3482 
C 1120 3610 1427 3757 1709 3910 
C 2106 3706 2554 3424 2835 3187 
C 2086 2778 1222 2483 416 2336 
C 499 2227 602 2035 640 1907 
C 2336 2278 4224 3181 5056 4672 
L 4749 4858 
L 4666 4838 
L 3014 4838 
C 3174 4979 3315 5126 3443 5274 
L 2899 5389 
z
M 3251 3437 
C 2989 3661 2528 3942 2118 4154 
C 2259 4243 2394 4333 2522 4429 
L 4352 4429 
C 4070 4058 3686 3725 3251 3437 
z
M 3936 3194 
C 3443 2586 2464 1920 1114 1498 
C 1216 1414 1350 1242 1408 1126 
C 1798 1267 2157 1421 2490 1587 
C 2925 1344 3418 998 3712 723 
C 2893 288 1901 32 896 -90 
C 979 -198 1069 -390 1107 -525 
C 3194 -224 5190 582 6003 2445 
L 5690 2618 
L 5600 2598 
L 4006 2598 
C 4179 2752 4333 2912 4474 3072 
L 3936 3194 
z
M 4147 973 
C 3853 1242 3360 1574 2925 1818 
C 3123 1933 3309 2054 3488 2182 
L 5325 2182 
C 5043 1696 4634 1293 4147 973 
z
" transform="scale(0.015625)"/>
     </defs>
     <use xlink:href="#NotoSansCJKjp-Regular-2548"/>
     <use xlink:href="#NotoSansCJKjp-Regular-3bf8" transform="translate(100 0)"/>
     <use xlink:href="#NotoSansCJKjp-Regular-9de8" transform="translate(200 0)"/>
     <use xlink:href="#NotoSansCJKjp-Regular-36e1" transform="translate(300 0)"/>
     <use xlink:href="#NotoSansCJKjp-Regular-575" transform="translate(400 0)"/>
    </g>
    <!-- 不夠穩定 -->
    <g style="fill: #bf8700" transform="translate(27.10566 147.375094) scale(0.095 -0.095)">
     <defs>
      <path id="NotoSansCJKjp-Regular-2518" d="M 3578 3059 
C 4339 2547 5299 1792 5754 1299 
L 6144 1670 
C 5664 2163 4691 2880 3936 3366 
L 3578 3059 
z
M 442 4928 
L 442 4435 
L 3290 4435 
C 2656 3341 1555 2259 282 1632 
C 384 1523 531 1331 608 1210 
C 1498 1677 2291 2336 2938 3078 
L 2938 -499 
L 3456 -499 
L 3456 3738 
C 3622 3962 3770 4198 3904 4435 
L 5958 4435 
L 5958 4928 
L 442 4928 
z
" transform="scale(0.015625)"/>
      <path id="NotoSansCJKjp-Regular-36ec" d="M 1146 1242 
C 1357 1094 1606 890 1766 723 
C 1338 326 819 38 275 -122 
C 358 -218 461 -403 506 -512 
C 1702 -102 2752 762 3168 2330 
L 2893 2470 
L 2810 2451 
L 2010 2451 
C 2112 2605 2208 2765 2285 2918 
L 1869 3008 
C 2330 3424 2707 3962 2925 4634 
L 2656 4781 
L 2579 4762 
L 1664 4762 
C 1779 4941 1875 5120 1965 5299 
L 1536 5389 
C 1325 4896 883 4307 262 3878 
C 358 3814 486 3674 550 3571 
C 870 3808 1146 4077 1370 4358 
L 2374 4358 
C 2221 4032 2016 3738 1766 3482 
C 1606 3629 1402 3782 1216 3898 
L 909 3661 
C 1101 3539 1318 3366 1478 3213 
C 1139 2925 755 2707 365 2566 
C 448 2483 550 2317 602 2208 
C 1037 2387 1466 2643 1843 2982 
C 1574 2438 1050 1830 262 1402 
C 358 1331 480 1178 538 1069 
C 1005 1350 1389 1683 1696 2035 
L 2624 2035 
C 2483 1651 2285 1312 2048 1024 
C 1882 1184 1658 1350 1459 1472 
L 1146 1242 
z
M 3840 5357 
C 3616 4525 3226 3712 2739 3187 
C 2842 3117 3034 2963 3104 2886 
C 3360 3187 3597 3571 3802 4000 
L 5517 4000 
C 5466 1293 5402 320 5248 109 
C 5190 26 5133 6 5030 6 
C 4902 6 4614 6 4294 32 
C 4378 -90 4429 -288 4435 -429 
C 4723 -442 5018 -448 5210 -422 
C 5395 -403 5530 -346 5645 -166 
C 5856 128 5907 1114 5958 4179 
C 5958 4250 5965 4422 5965 4422 
L 3994 4422 
C 4102 4691 4198 4973 4282 5254 
L 3840 5357 
z
M 3488 3283 
L 3488 531 
L 3885 531 
L 3885 1024 
L 5018 1024 
L 5018 3283 
L 3488 3283 
z
M 3885 2886 
L 4621 2886 
L 4621 1414 
L 3885 1414 
L 3885 2886 
z
" transform="scale(0.015625)"/>
      <path id="NotoSansCJKjp-Regular-72b7" d="M 3232 806 
L 3232 26 
C 3232 -390 3354 -493 3878 -493 
C 3987 -493 4672 -493 4781 -493 
C 5158 -493 5280 -371 5325 109 
C 5210 134 5037 198 4947 256 
C 4928 -83 4896 -128 4730 -128 
C 4582 -128 4032 -128 3923 -128 
C 3693 -128 3654 -102 3654 26 
L 3654 806 
L 3232 806 
z
M 2643 781 
C 2547 429 2355 -13 2125 -269 
L 2496 -454 
C 2739 -173 2899 275 3014 640 
L 2643 781 
z
M 5056 678 
C 5376 352 5702 -109 5830 -422 
L 6214 -224 
C 6067 90 5741 538 5408 851 
L 5056 678 
z
M 3840 4672 
C 3910 4480 3968 4224 3981 4058 
L 4378 4147 
C 4358 4314 4288 4563 4211 4749 
L 3840 4672 
z
M 5011 4774 
C 5299 4486 5613 4064 5747 3789 
L 6099 3994 
C 5952 4269 5645 4659 5338 4954 
L 5011 4774 
z
M 2522 3328 
L 2522 2995 
L 5997 2995 
L 5997 3328 
L 4435 3328 
L 4435 3699 
L 5440 3699 
L 5440 4026 
L 2989 4026 
L 2989 3699 
L 3981 3699 
L 3981 3328 
L 2522 3328 
z
M 3654 941 
C 3930 800 4256 544 4416 358 
L 4691 621 
C 4550 768 4294 960 4058 1101 
L 5606 1101 
L 5606 1754 
L 6118 1754 
L 6118 2099 
L 5606 2099 
L 5606 2714 
L 2771 2714 
L 2771 2394 
L 5178 2394 
L 5178 2067 
L 2419 2067 
L 2419 1773 
L 5178 1773 
L 5178 1414 
L 2746 1414 
L 2746 1101 
L 3834 1101 
L 3654 941 
z
M 2810 5133 
C 2675 4691 2458 4243 2189 3930 
C 2291 3885 2477 3770 2560 3706 
C 2771 3968 2976 4339 3123 4730 
C 4013 4774 5030 4883 5734 5043 
L 5389 5338 
C 4870 5222 3962 5114 3142 5050 
L 2810 5133 
z
M 2010 5254 
C 1613 5062 890 4896 262 4800 
C 320 4698 384 4544 403 4448 
C 646 4480 902 4518 1152 4570 
L 1152 3539 
L 294 3539 
L 294 3098 
L 1094 3098 
C 883 2374 506 1530 160 1062 
C 237 947 352 762 403 627 
C 672 998 934 1594 1152 2195 
L 1152 -512 
L 1600 -512 
L 1600 2406 
C 1792 2138 2016 1792 2106 1606 
L 2381 1965 
C 2266 2118 1754 2726 1600 2899 
L 1600 3098 
L 2304 3098 
L 2304 3539 
L 1600 3539 
L 1600 4666 
C 1875 4736 2131 4819 2349 4909 
L 2010 5254 
z
" transform="scale(0.015625)"/>
      <path id="NotoSansCJKjp-Regular-3c8a" d="M 1421 2413 
C 1286 1248 934 333 224 -218 
C 339 -294 538 -461 621 -544 
C 1037 -179 1350 307 1574 896 
C 2163 -198 3117 -422 4454 -422 
L 5952 -422 
C 5971 -282 6061 -51 6131 64 
C 5818 58 4717 58 4480 58 
C 4109 58 3757 77 3443 134 
L 3443 1440 
L 5350 1440 
L 5350 1888 
L 3443 1888 
L 3443 2957 
L 5088 2957 
L 5088 3418 
L 1350 3418 
L 1350 2957 
L 2944 2957 
L 2944 269 
C 2419 461 2016 832 1760 1504 
C 1824 1766 1882 2054 1920 2355 
L 1421 2413 
z
M 525 4640 
L 525 3245 
L 998 3245 
L 998 4186 
L 5382 4186 
L 5382 3245 
L 5875 3245 
L 5875 4640 
L 3443 4640 
L 3443 5376 
L 2938 5376 
L 2938 4640 
L 525 4640 
z
" transform="scale(0.015625)"/>
     </defs>
     <use xlink:href="#NotoSansCJKjp-Regular-2518"/>
     <use xlink:href="#NotoSansCJKjp-Regular-36ec" transform="translate(100 0)"/>
     <use xlink:href="#NotoSansCJKjp-Regular-72b7" transform="translate(200 0)"/>
     <use xlink:href="#NotoSansCJKjp-Regular-3c8a" transform="translate(300 0)"/>
    </g>
   </g>
   <g id="text_4">
    <!-- 子核（衰變後） -->
    <g style="fill: #222831" transform="translate(360.708491 67.212075) scale(0.115 -0.115)">
     <defs>
      <path id="NotoSansCJKjp-Regular-43f2" d="M 1562 5376 
C 1280 4922 710 4371 211 4032 
C 288 3949 416 3776 474 3680 
C 1024 4070 1619 4666 1997 5203 
L 1562 5376 
z
M 1933 2944 
L 1978 2509 
L 3456 2554 
C 3072 1984 2470 1485 1862 1152 
C 1965 1069 2125 883 2189 787 
C 2451 947 2714 1139 2963 1357 
C 3168 1062 3418 794 3699 557 
C 3142 230 2490 13 1843 -115 
C 1933 -218 2035 -410 2080 -531 
C 2784 -365 3482 -109 4083 269 
C 4614 -90 5248 -358 5939 -518 
C 6003 -397 6125 -211 6234 -109 
C 5581 19 4979 243 4467 544 
C 4934 909 5318 1363 5562 1926 
L 5254 2074 
L 5171 2054 
L 3629 2054 
C 3763 2221 3885 2394 3994 2573 
L 5542 2624 
C 5664 2451 5760 2291 5824 2157 
L 6227 2394 
C 6029 2784 5568 3366 5165 3782 
L 4787 3584 
C 4947 3411 5114 3213 5261 3014 
L 3539 2976 
C 4141 3469 4794 4102 5306 4653 
L 4870 4890 
C 4570 4512 4147 4064 3712 3654 
C 3565 3808 3360 3981 3142 4154 
C 3437 4435 3776 4813 4058 5158 
L 3629 5376 
C 3430 5082 3110 4691 2822 4390 
L 2445 4653 
L 2150 4339 
C 2579 4058 3072 3661 3379 3347 
C 3226 3206 3072 3078 2931 2963 
L 1933 2944 
z
M 3258 1638 
L 3290 1670 
L 4915 1670 
C 4704 1338 4416 1043 4077 800 
C 3744 1043 3469 1325 3258 1638 
z
M 1715 4070 
C 1338 3392 723 2726 134 2285 
C 218 2189 358 1958 410 1862 
C 646 2054 896 2291 1133 2547 
L 1133 -531 
L 1587 -531 
L 1587 3085 
C 1798 3354 1984 3635 2144 3917 
L 1715 4070 
z
" transform="scale(0.015625)"/>
     </defs>
     <use xlink:href="#NotoSansCJKjp-Regular-3bf8"/>
     <use xlink:href="#NotoSansCJKjp-Regular-52ac" transform="translate(100 0)"/>
     <use xlink:href="#NotoSansCJKjp-Regular-e6ae" transform="translate(200 0)"/>
     <use xlink:href="#NotoSansCJKjp-Regular-8fa0" transform="translate(300 0)"/>
     <use xlink:href="#NotoSansCJKjp-Regular-95ec" transform="translate(400 0)"/>
     <use xlink:href="#NotoSansCJKjp-Regular-43f2" transform="translate(500 0)"/>
     <use xlink:href="#NotoSansCJKjp-Regular-e6af" transform="translate(600 0)"/>
    </g>
   </g>
   <g id="text_5">
    <!-- 原子序 $Z+1$、質量數 $A$ 不變 -->
    <g style="fill: #1a7f37" transform="translate(333.810991 203.869434) scale(0.105 -0.105)">
     <defs>
      <path id="Cmr10-4c" d="M 481 1472 
Q 428 1472 393 1512 
Q 359 1553 359 1600 
Q 359 1647 393 1687 
Q 428 1728 481 1728 
L 2363 1728 
L 2363 3616 
Q 2363 3666 2400 3698 
Q 2438 3731 2491 3731 
Q 2538 3731 2578 3698 
Q 2619 3666 2619 3616 
L 2619 1728 
L 4500 1728 
Q 4547 1728 4581 1687 
Q 4616 1647 4616 1600 
Q 4616 1553 4581 1512 
Q 4547 1472 4500 1472 
L 2619 1472 
L 2619 -416 
Q 2619 -466 2578 -498 
Q 2538 -531 2491 -531 
Q 2438 -531 2400 -498 
Q 2363 -466 2363 -416 
L 2363 1472 
L 481 1472 
z
" transform="scale(0.015625)"/>
      <path id="Cmr10-64" d="M 594 0 
L 594 225 
Q 1394 225 1394 428 
L 1394 3788 
Q 1063 3628 556 3628 
L 556 3853 
Q 1341 3853 1741 4263 
L 1831 4263 
Q 1853 4263 1873 4245 
Q 1894 4228 1894 4206 
L 1894 428 
Q 1894 225 2694 225 
L 2694 0 
L 594 0 
z
" transform="scale(0.015625)"/>
     </defs>
     <use xlink:href="#NotoSansCJKjp-Regular-2e09" transform="translate(0 0.90625)"/>
     <use xlink:href="#NotoSansCJKjp-Regular-3bf8" transform="translate(99.999908 0.90625)"/>
     <use xlink:href="#NotoSansCJKjp-Regular-420b" transform="translate(199.999817 0.90625)"/>
     <use xlink:href="#NotoSansCJKjp-Regular-1" transform="translate(299.999725 0.90625)"/>
     <use xlink:href="#Cmmi10-2e" transform="translate(322.399704 0.90625)"/>
     <use xlink:href="#Cmr10-4c" transform="translate(410.612652 0.90625)"/>
     <use xlink:href="#Cmr10-64" transform="translate(508.298256 0.90625)"/>
     <use xlink:href="#NotoSansCJKjp-Regular-575" transform="translate(558.298256 0.90625)"/>
     <use xlink:href="#NotoSansCJKjp-Regular-97ec" transform="translate(658.298164 0.90625)"/>
     <use xlink:href="#NotoSansCJKjp-Regular-a108" transform="translate(758.298073 0.90625)"/>
     <use xlink:href="#NotoSansCJKjp-Regular-4e26" transform="translate(858.297981 0.90625)"/>
     <use xlink:href="#NotoSansCJKjp-Regular-1" transform="translate(958.29789 0.90625)"/>
     <use xlink:href="#Cmmi10-5c" transform="translate(980.697868 0.90625)"/>
     <use xlink:href="#NotoSansCJKjp-Regular-1" transform="translate(1055.697868 0.90625)"/>
     <use xlink:href="#NotoSansCJKjp-Regular-2518" transform="translate(1078.097847 0.90625)"/>
     <use xlink:href="#NotoSansCJKjp-Regular-95ec" transform="translate(1178.097755 0.90625)"/>
    </g>
   </g>
   <g id="text_6">
    <!-- 弱力作用：一個中子變質子 -->
    <g style="fill: #8250df" transform="translate(200.617358 112.610113) scale(0.11 -0.11)">
     <defs>
      <path id="NotoSansCJKjp-Regular-434f" d="M 800 1824 
C 1056 1613 1331 1299 1453 1088 
L 1786 1350 
C 1658 1562 1376 1850 1107 2054 
L 800 1824 
z
M 3629 1850 
C 3898 1632 4186 1312 4320 1094 
L 4659 1370 
C 4518 1581 4224 1875 3949 2086 
L 3629 1850 
z
M 301 531 
L 474 115 
C 947 282 1555 499 2131 710 
L 2061 1088 
C 1408 877 749 659 301 531 
z
M 3136 550 
L 3315 134 
C 3808 314 4448 550 5056 787 
L 4986 1152 
C 4301 922 3603 685 3136 550 
z
M 742 3795 
C 666 3226 525 2483 410 2010 
L 877 1933 
L 941 2227 
L 2470 2227 
C 2387 717 2285 141 2144 -13 
C 2080 -83 2016 -96 1920 -96 
C 1805 -96 1536 -90 1242 -64 
C 1312 -179 1363 -365 1370 -493 
C 1677 -512 1965 -512 2131 -493 
C 2317 -480 2438 -435 2547 -301 
C 2746 -70 2848 602 2957 2426 
C 2963 2496 2970 2643 2970 2643 
L 1024 2643 
L 1146 3360 
L 2874 3360 
L 2874 5133 
L 544 5133 
L 544 4698 
L 2394 4698 
L 2394 3795 
L 742 3795 
z
M 3558 3795 
C 3469 3226 3322 2490 3200 2022 
L 3667 1946 
L 3731 2227 
L 5421 2227 
C 5344 710 5267 122 5120 -32 
C 5062 -90 4986 -109 4870 -109 
C 4736 -109 4384 -102 4013 -70 
C 4083 -186 4134 -365 4147 -493 
C 4525 -518 4877 -525 5069 -506 
C 5274 -486 5408 -442 5536 -301 
C 5728 -70 5818 595 5901 2426 
C 5907 2496 5907 2643 5907 2643 
L 3821 2643 
L 3962 3360 
L 5811 3360 
L 5811 5133 
L 3398 5133 
L 3398 4698 
L 5325 4698 
L 5325 3795 
L 3558 3795 
z
" transform="scale(0.015625)"/>
      <path id="NotoSansCJKjp-Regular-2c71" d="M 2624 5363 
L 2624 4256 
L 2624 3981 
L 531 3981 
L 531 3488 
L 2598 3488 
C 2502 2285 2080 877 339 -160 
C 461 -243 634 -422 710 -538 
C 2573 595 3008 2157 3098 3488 
L 5293 3488 
C 5165 1229 5024 320 4794 102 
C 4717 19 4634 0 4499 0 
C 4339 0 3930 6 3488 45 
C 3584 -96 3642 -307 3654 -448 
C 4051 -467 4461 -480 4678 -461 
C 4928 -435 5075 -390 5229 -198 
C 5517 115 5645 1075 5792 3725 
C 5798 3795 5805 3981 5805 3981 
L 3123 3981 
L 3123 4256 
L 3123 5363 
L 2624 5363 
z
" transform="scale(0.015625)"/>
      <path id="NotoSansCJKjp-Regular-26fc" d="M 3366 5299 
C 3046 4358 2528 3430 1952 2829 
C 2061 2752 2246 2586 2323 2502 
C 2650 2861 2963 3328 3238 3846 
L 3680 3846 
L 3680 -506 
L 4166 -506 
L 4166 1050 
L 6093 1050 
L 6093 1504 
L 4166 1504 
L 4166 2477 
L 6010 2477 
L 6010 2918 
L 4166 2918 
L 4166 3846 
L 6157 3846 
L 6157 4307 
L 3469 4307 
C 3603 4589 3725 4883 3827 5178 
L 3366 5299 
z
M 1824 5350 
C 1466 4378 864 3418 230 2797 
C 320 2688 461 2426 512 2317 
C 730 2541 941 2797 1146 3078 
L 1146 -499 
L 1626 -499 
L 1626 3834 
C 1875 4269 2106 4742 2285 5210 
L 1824 5350 
z
" transform="scale(0.015625)"/>
      <path id="NotoSansCJKjp-Regular-69ab" d="M 979 4928 
L 979 2605 
C 979 1702 915 570 205 -230 
C 314 -288 506 -448 576 -544 
C 1069 0 1286 736 1382 1453 
L 2989 1453 
L 2989 -454 
L 3475 -454 
L 3475 1453 
L 5203 1453 
L 5203 141 
C 5203 26 5158 -13 5030 -19 
C 4909 -26 4474 -32 4026 -13 
C 4090 -141 4166 -352 4192 -474 
C 4794 -480 5165 -474 5382 -397 
C 5600 -320 5677 -173 5677 141 
L 5677 4928 
L 979 4928 
z
M 1453 4467 
L 2989 4467 
L 2989 3437 
L 1453 3437 
L 1453 4467 
z
M 5203 4467 
L 5203 3437 
L 3475 3437 
L 3475 4467 
L 5203 4467 
z
M 1453 2982 
L 2989 2982 
L 2989 1907 
L 1427 1907 
C 1446 2150 1453 2387 1453 2605 
L 1453 2982 
z
M 5203 2982 
L 5203 1907 
L 3475 1907 
L 3475 2982 
L 5203 2982 
z
" transform="scale(0.015625)"/>
      <path id="NotoSansCJKjp-Regular-e6c0" d="M 3200 3482 
C 3456 3482 3686 3667 3686 3962 
C 3686 4256 3456 4442 3200 4442 
C 2944 4442 2714 4256 2714 3962 
C 2714 3667 2944 3482 3200 3482 
z
M 3200 346 
C 3456 346 3686 538 3686 826 
C 3686 1120 3456 1312 3200 1312 
C 2944 1312 2714 1120 2714 826 
C 2714 538 2944 346 3200 346 
z
" transform="scale(0.015625)"/>
      <path id="NotoSansCJKjp-Regular-2509" d="M 282 2758 
L 282 2234 
L 6144 2234 
L 6144 2758 
L 282 2758 
z
" transform="scale(0.015625)"/>
      <path id="NotoSansCJKjp-Regular-2815" d="M 3533 2195 
L 4614 2195 
L 4614 1197 
L 3533 1197 
L 3533 2195 
z
M 2189 4992 
L 2189 -506 
L 2630 -506 
L 2630 -128 
L 5472 -128 
L 5472 -461 
L 5933 -461 
L 5933 4992 
L 2189 4992 
z
M 2630 307 
L 2630 4563 
L 5472 4563 
L 5472 307 
L 2630 307 
z
M 3162 2554 
L 3162 838 
L 4998 838 
L 4998 2554 
L 4256 2554 
L 4256 3258 
L 5254 3258 
L 5254 3629 
L 4256 3629 
L 4256 4358 
L 3866 4358 
L 3866 3629 
L 2899 3629 
L 2899 3258 
L 3866 3258 
L 3866 2554 
L 3162 2554 
z
M 1523 5344 
C 1203 4378 685 3411 109 2784 
C 192 2662 320 2400 365 2291 
C 582 2541 787 2829 986 3142 
L 986 -518 
L 1446 -518 
L 1446 3968 
C 1645 4371 1824 4794 1965 5216 
L 1523 5344 
z
" transform="scale(0.015625)"/>
     </defs>
     <use xlink:href="#NotoSansCJKjp-Regular-434f"/>
     <use xlink:href="#NotoSansCJKjp-Regular-2c71" transform="translate(100 0)"/>
     <use xlink:href="#NotoSansCJKjp-Regular-26fc" transform="translate(200 0)"/>
     <use xlink:href="#NotoSansCJKjp-Regular-69ab" transform="translate(300 0)"/>
     <use xlink:href="#NotoSansCJKjp-Regular-e6c0" transform="translate(400 0)"/>
     <use xlink:href="#NotoSansCJKjp-Regular-2509" transform="translate(500 0)"/>
     <use xlink:href="#NotoSansCJKjp-Regular-2815" transform="translate(600 0)"/>
     <use xlink:href="#NotoSansCJKjp-Regular-2548" transform="translate(700 0)"/>
     <use xlink:href="#NotoSansCJKjp-Regular-3bf8" transform="translate(800 0)"/>
     <use xlink:href="#NotoSansCJKjp-Regular-95ec" transform="translate(900 0)"/>
     <use xlink:href="#NotoSansCJKjp-Regular-97ec" transform="translate(1000 0)"/>
     <use xlink:href="#NotoSansCJKjp-Regular-3bf8" transform="translate(1100 0)"/>
    </g>
   </g>
   <g id="text_7">
    <!-- 電子 $e^-$ -->
    <g style="fill: #1f6feb" transform="translate(345.369057 253.226415) scale(0.1 -0.1)">
     <defs>
      <path id="NotoSansCJKjp-Regular-a9c5" d="M 1261 3635 
L 1261 3334 
L 2618 3334 
L 2618 3635 
L 1261 3635 
z
M 1133 2982 
L 1133 2675 
L 2618 2675 
L 2618 2982 
L 1133 2982 
z
M 3757 2982 
L 3757 2675 
L 5293 2675 
L 5293 2982 
L 3757 2982 
z
M 3757 3635 
L 3757 3334 
L 5133 3334 
L 5133 3635 
L 3757 3635 
z
M 4915 1184 
L 4915 742 
L 3392 742 
L 3392 1184 
L 4915 1184 
z
M 4915 1504 
L 3392 1504 
L 3392 1946 
L 4915 1946 
L 4915 1504 
z
M 2925 1184 
L 2925 742 
L 1504 742 
L 1504 1184 
L 2925 1184 
z
M 2925 1504 
L 1504 1504 
L 1504 1946 
L 2925 1946 
L 2925 1504 
z
M 1043 2298 
L 1043 58 
L 1504 58 
L 1504 390 
L 2925 390 
L 2925 192 
C 2925 -333 3130 -461 3846 -461 
C 4006 -461 5171 -461 5338 -461 
C 5939 -461 6093 -256 6157 525 
C 6029 550 5843 614 5741 685 
C 5709 38 5645 -70 5306 -70 
C 5050 -70 4064 -70 3872 -70 
C 3469 -70 3392 -26 3392 192 
L 3392 390 
L 5389 390 
L 5389 2298 
L 1043 2298 
z
M 486 4339 
L 486 3085 
L 922 3085 
L 922 3987 
L 2944 3987 
L 2944 2515 
L 3418 2515 
L 3418 3987 
L 5472 3987 
L 5472 3085 
L 5920 3085 
L 5920 4339 
L 3418 4339 
L 3418 4730 
L 5536 4730 
L 5536 5101 
L 858 5101 
L 858 4730 
L 2944 4730 
L 2944 4339 
L 486 4339 
z
" transform="scale(0.015625)"/>
      <path id="Cmmi10-3" d="M 1288 -72 
Q 981 -72 751 87 
Q 522 247 401 517 
Q 281 788 281 1088 
Q 281 1544 511 1945 
Q 741 2347 1134 2587 
Q 1528 2828 1978 2828 
Q 2253 2828 2458 2686 
Q 2663 2544 2663 2278 
Q 2663 1909 2369 1729 
Q 2075 1550 1706 1508 
Q 1338 1466 891 1466 
L 872 1466 
Q 769 1084 769 813 
Q 769 528 900 312 
Q 1031 97 1300 97 
Q 1681 97 2032 272 
Q 2384 447 2606 756 
Q 2625 775 2656 775 
Q 2688 775 2720 739 
Q 2753 703 2753 672 
Q 2753 647 2741 634 
Q 2506 306 2109 117 
Q 1713 -72 1288 -72 
z
M 909 1631 
Q 1281 1631 1597 1665 
Q 1913 1700 2169 1839 
Q 2425 1978 2425 2272 
Q 2425 2391 2359 2480 
Q 2294 2569 2189 2616 
Q 2084 2663 1972 2663 
Q 1700 2663 1483 2516 
Q 1266 2369 1125 2133 
Q 984 1897 909 1631 
z
" transform="scale(0.015625)"/>
      <path id="Cmsy10-11" d="M 653 1472 
Q 600 1472 565 1512 
Q 531 1553 531 1600 
Q 531 1647 565 1687 
Q 600 1728 653 1728 
L 4325 1728 
Q 4375 1728 4408 1687 
Q 4441 1647 4441 1600 
Q 4441 1553 4408 1512 
Q 4375 1472 4325 1472 
L 653 1472 
z
" transform="scale(0.015625)"/>
     </defs>
     <use xlink:href="#NotoSansCJKjp-Regular-a9c5" transform="translate(0 0.296875)"/>
     <use xlink:href="#NotoSansCJKjp-Regular-3bf8" transform="translate(99.999908 0.296875)"/>
     <use xlink:href="#NotoSansCJKjp-Regular-1" transform="translate(199.999817 0.296875)"/>
     <use xlink:href="#Cmmi10-3" transform="translate(222.399796 0.296875)"/>
     <use xlink:href="#Cmsy10-11" transform="translate(294.144392 41.586109) scale(0.7)"/>
    </g>
    <!-- （β 射線） -->
    <g style="fill: #1f6feb" transform="translate(345.369057 263.226415) scale(0.1 -0.1)">
     <defs>
      <path id="NotoSansCJKjp-Regular-11a" d="M 570 -1280 
L 1158 -1280 
C 1146 -691 1139 -141 1120 448 
C 1478 51 1926 -83 2362 -83 
C 3066 -83 3725 448 3725 1382 
C 3725 2112 3296 2630 2611 2726 
L 2611 2758 
C 3046 3027 3302 3430 3302 3949 
C 3302 4781 2669 5178 1997 5178 
C 1024 5178 570 4474 570 3514 
L 570 -1280 
z
M 2227 410 
C 1862 410 1459 518 1120 941 
C 1120 1786 1126 2605 1139 3437 
C 1146 4262 1466 4710 2010 4710 
C 2394 4710 2733 4442 2733 3904 
C 2733 3443 2451 2944 1715 2797 
L 1805 2342 
C 1920 2381 2042 2394 2163 2394 
C 2822 2394 3142 1971 3142 1414 
C 3142 774 2733 410 2227 410 
z
" transform="scale(0.015625)"/>
      <path id="NotoSansCJKjp-Regular-3d63" d="M 3494 2528 
C 3776 2061 4038 1440 4122 1050 
L 4563 1229 
C 4474 1626 4192 2227 3898 2688 
L 3494 2528 
z
M 1222 3366 
L 2496 3366 
L 2496 2816 
L 1222 2816 
L 1222 3366 
z
M 1222 3731 
L 1222 4275 
L 2496 4275 
L 2496 3731 
L 1222 3731 
z
M 1222 2451 
L 2496 2451 
L 2496 2189 
L 2349 1984 
L 1222 1843 
L 1222 2451 
z
M 250 1728 
L 320 1293 
C 787 1357 1363 1440 1958 1530 
C 1440 986 813 531 147 205 
C 243 122 410 -58 474 -154 
C 1216 250 1920 806 2496 1485 
L 2496 51 
C 2496 -45 2464 -70 2368 -77 
C 2272 -83 1971 -90 1638 -77 
C 1702 -192 1773 -390 1792 -512 
C 2246 -512 2534 -506 2714 -429 
C 2880 -352 2944 -218 2944 45 
L 2944 2074 
C 3053 2234 3155 2406 3251 2579 
L 2944 2682 
L 2944 4659 
L 1914 4659 
C 2010 4851 2106 5082 2195 5299 
L 1651 5382 
C 1606 5171 1510 4883 1421 4659 
L 787 4659 
L 787 1792 
L 250 1728 
z
M 4973 5344 
L 4973 3802 
L 3187 3802 
L 3187 3354 
L 4973 3354 
L 4973 102 
C 4973 -13 4928 -45 4813 -51 
C 4710 -51 4352 -58 3949 -45 
C 4019 -173 4102 -384 4128 -506 
C 4666 -512 4979 -499 5178 -416 
C 5370 -339 5446 -198 5446 102 
L 5446 3354 
L 6144 3354 
L 6144 3802 
L 5446 3802 
L 5446 5344 
L 4973 5344 
z
" transform="scale(0.015625)"/>
      <path id="NotoSansCJKjp-Regular-7a17" d="M 3258 3405 
L 5414 3405 
L 5414 2848 
L 3258 2848 
L 3258 3405 
z
M 3258 4326 
L 5414 4326 
L 5414 3770 
L 3258 3770 
L 3258 4326 
z
M 1894 1632 
C 2048 1267 2182 781 2208 474 
L 2586 589 
C 2541 902 2406 1370 2246 1734 
L 1894 1632 
z
M 570 1715 
C 493 1158 378 582 166 192 
C 269 154 454 70 538 13 
C 736 422 890 1043 973 1651 
L 570 1715 
z
M 2816 4717 
L 2816 2451 
L 4109 2451 
L 4109 6 
C 4109 -64 4090 -83 4006 -90 
C 3930 -90 3674 -90 3386 -83 
C 3443 -211 3501 -384 3520 -506 
C 3917 -506 4173 -499 4339 -435 
C 4506 -358 4544 -237 4544 6 
L 4544 1325 
C 4819 717 5254 109 5952 -250 
C 6016 -128 6157 51 6246 141 
C 5754 358 5382 698 5114 1088 
C 5427 1306 5798 1613 6106 1894 
L 5715 2176 
C 5523 1946 5203 1645 4922 1408 
C 4742 1734 4627 2074 4544 2400 
L 4544 2451 
L 5875 2451 
L 5875 4717 
L 4365 4717 
C 4467 4890 4570 5088 4659 5280 
L 4128 5382 
C 4077 5190 3968 4934 3872 4717 
L 2816 4717 
z
M 2573 1901 
L 2573 1491 
L 3443 1491 
C 3219 826 2803 352 2291 77 
C 2381 13 2534 -154 2592 -250 
C 3226 115 3738 787 3962 1805 
L 3699 1914 
L 3622 1901 
L 2573 1901 
z
M 179 2547 
L 237 2118 
L 1248 2182 
L 1248 -512 
L 1670 -512 
L 1670 2208 
L 2176 2240 
C 2234 2086 2285 1946 2310 1824 
L 2694 2003 
C 2598 2349 2342 2906 2074 3322 
L 1722 3181 
C 1824 3014 1920 2829 2010 2637 
L 1088 2592 
C 1517 3136 2010 3866 2374 4454 
L 1971 4646 
C 1792 4301 1549 3878 1286 3475 
C 1190 3610 1075 3750 941 3898 
C 1178 4256 1459 4781 1677 5216 
L 1254 5376 
C 1120 5018 890 4531 685 4166 
L 486 4346 
L 237 4038 
C 525 3763 845 3398 1037 3104 
C 896 2912 762 2726 634 2566 
L 179 2547 
z
" transform="scale(0.015625)"/>
     </defs>
     <use xlink:href="#NotoSansCJKjp-Regular-e6ae"/>
     <use xlink:href="#NotoSansCJKjp-Regular-11a" transform="translate(100 0)"/>
     <use xlink:href="#NotoSansCJKjp-Regular-1" transform="translate(163.09375 0)"/>
     <use xlink:href="#NotoSansCJKjp-Regular-3d63" transform="translate(185.5 0)"/>
     <use xlink:href="#NotoSansCJKjp-Regular-7a17" transform="translate(285.5 0)"/>
     <use xlink:href="#NotoSansCJKjp-Regular-e6af" transform="translate(385.5 0)"/>
    </g>
   </g>
   <g id="text_8">
    <!-- 反微中子 -->
    <g style="fill: #888888" transform="translate(149.86566 253.686415) scale(0.095 -0.095)">
     <defs>
      <path id="NotoSansCJKjp-Regular-2e5a" d="M 1088 4973 
L 1088 3226 
C 1088 2202 1030 787 326 -218 
C 442 -269 646 -416 730 -499 
C 1389 448 1549 1830 1568 2886 
L 1990 2886 
C 2285 2048 2694 1357 3245 806 
C 2688 397 2042 102 1363 -70 
C 1459 -179 1581 -384 1645 -512 
C 2362 -294 3034 19 3622 474 
C 4192 19 4890 -314 5728 -525 
C 5792 -390 5933 -186 6048 -77 
C 5242 96 4570 397 4013 806 
C 4659 1408 5158 2208 5440 3238 
L 5107 3379 
L 5011 3354 
L 1574 3354 
L 1574 4499 
L 5792 4499 
L 5792 4973 
L 1088 4973 
z
M 4800 2886 
C 4544 2176 4134 1594 3629 1126 
C 3130 1600 2752 2189 2496 2886 
L 4800 2886 
z
" transform="scale(0.015625)"/>
      <path id="NotoSansCJKjp-Regular-442c" d="M 1267 5376 
C 1037 4954 582 4435 179 4102 
C 256 4019 378 3840 435 3738 
C 896 4122 1389 4698 1709 5216 
L 1267 5376 
z
M 4621 3718 
L 5440 3718 
C 5363 2931 5242 2240 5030 1651 
C 4826 2246 4691 2931 4595 3648 
L 4621 3718 
z
M 2906 614 
L 3040 205 
C 3405 346 3827 506 4243 672 
L 4179 1030 
L 3565 826 
L 3565 2118 
L 3987 2118 
L 3987 2451 
L 4019 2413 
C 4134 2586 4243 2778 4339 2995 
C 4454 2310 4602 1670 4806 1120 
C 4538 595 4173 173 3667 -154 
C 3757 -237 3891 -422 3936 -512 
C 4390 -192 4742 186 5018 640 
C 5254 154 5568 -243 5958 -512 
C 6022 -390 6170 -218 6272 -134 
C 5843 122 5510 557 5254 1101 
C 5574 1811 5754 2675 5869 3718 
L 6150 3718 
L 6150 4134 
L 4742 4134 
C 4838 4506 4915 4902 4979 5306 
L 4538 5382 
C 4390 4358 4141 3398 3693 2771 
C 3757 2720 3853 2618 3923 2534 
L 1747 2534 
L 1747 2118 
L 2195 2118 
L 2195 1792 
C 2195 1267 2150 570 1574 -13 
C 1670 -90 1792 -237 1856 -339 
C 2528 320 2598 1190 2598 1786 
L 2598 2118 
L 3155 2118 
L 3155 691 
L 2906 614 
z
M 1869 4826 
L 1869 3181 
L 3904 3181 
L 3904 4826 
L 3558 4826 
L 3558 3584 
L 3053 3584 
L 3053 5376 
L 2688 5376 
L 2688 3584 
L 2214 3584 
L 2214 4826 
L 1869 4826 
z
M 1402 4096 
C 1088 3418 589 2739 109 2278 
C 192 2176 333 1958 384 1862 
C 570 2048 755 2266 941 2509 
L 941 -499 
L 1382 -499 
L 1382 3149 
C 1549 3411 1702 3680 1830 3949 
L 1402 4096 
z
" transform="scale(0.015625)"/>
     </defs>
     <use xlink:href="#NotoSansCJKjp-Regular-2e5a"/>
     <use xlink:href="#NotoSansCJKjp-Regular-442c" transform="translate(100 0)"/>
     <use xlink:href="#NotoSansCJKjp-Regular-2548" transform="translate(200 0)"/>
     <use xlink:href="#NotoSansCJKjp-Regular-3bf8" transform="translate(300 0)"/>
    </g>
    <!-- （幾乎不帶能量痕跡） -->
    <g style="fill: #888888" transform="translate(92.86566 263.186415) scale(0.095 -0.095)">
     <defs>
      <path id="NotoSansCJKjp-Regular-41eb" d="M 5062 1658 
C 4845 1325 4538 1024 4179 762 
C 4013 1030 3872 1357 3757 1734 
L 6080 1734 
L 6080 2144 
L 5299 2144 
L 5408 2240 
C 5242 2419 4915 2650 4627 2810 
L 5594 2886 
C 5651 2765 5696 2650 5728 2554 
L 6099 2720 
C 5990 3027 5715 3507 5446 3866 
L 5094 3731 
C 5203 3578 5318 3398 5414 3226 
L 4410 3168 
C 4806 3597 5248 4160 5587 4627 
L 5210 4813 
C 5056 4563 4851 4262 4634 3968 
C 4531 4070 4390 4186 4250 4301 
C 4448 4557 4666 4896 4851 5190 
L 4467 5363 
C 4358 5114 4160 4774 3981 4499 
L 3763 4653 
L 3539 4358 
C 3827 4160 4166 3878 4390 3654 
C 4243 3469 4096 3296 3962 3149 
L 3629 3136 
L 3712 2739 
L 4602 2803 
L 4326 2573 
C 4525 2458 4749 2291 4922 2144 
L 3642 2144 
C 3411 3046 3296 4160 3302 5370 
L 2829 5370 
C 2835 4198 2938 3085 3162 2144 
L 339 2144 
L 339 1734 
L 1427 1734 
C 1312 1024 1050 237 275 -186 
C 378 -262 518 -416 582 -518 
C 1210 -160 1549 403 1741 1011 
C 2086 762 2496 442 2701 224 
L 3034 531 
C 2790 755 2317 1107 1958 1344 
L 1805 1216 
C 1850 1389 1882 1562 1914 1734 
L 3270 1734 
C 3405 1261 3578 845 3782 506 
C 3322 237 2797 19 2240 -134 
C 2349 -243 2464 -403 2528 -525 
C 3072 -358 3584 -134 4045 141 
C 4397 -269 4826 -506 5350 -506 
C 5875 -506 6054 -262 6157 621 
C 6035 659 5875 755 5773 851 
C 5715 141 5632 -58 5370 -58 
C 5018 -58 4704 109 4442 403 
C 4858 710 5216 1069 5485 1472 
L 5062 1658 
z
M 2138 4755 
C 1984 4493 1766 4179 1542 3872 
C 1440 3981 1318 4096 1184 4211 
C 1376 4474 1606 4838 1811 5152 
L 1421 5331 
C 1312 5069 1114 4698 934 4416 
L 685 4602 
L 442 4320 
C 736 4102 1075 3808 1299 3558 
C 1146 3366 998 3187 858 3040 
L 403 3027 
L 486 2618 
L 2426 2739 
C 2470 2637 2509 2541 2534 2458 
L 2893 2618 
C 2784 2906 2541 3373 2317 3725 
L 1984 3597 
C 2074 3443 2176 3270 2259 3098 
L 1306 3053 
C 1715 3494 2163 4083 2515 4570 
L 2138 4755 
z
" transform="scale(0.015625)"/>
      <path id="NotoSansCJKjp-Regular-2572" d="M 1056 4013 
C 1306 3558 1568 2963 1658 2592 
L 2106 2765 
C 2003 3130 1734 3718 1472 4154 
L 1056 4013 
z
M 5005 4269 
C 4845 3808 4550 3162 4307 2765 
L 4704 2605 
C 4954 2982 5267 3590 5517 4096 
L 5005 4269 
z
M 346 2355 
L 346 1862 
L 3002 1862 
L 3002 141 
C 3002 6 2950 -32 2803 -38 
C 2656 -45 2157 -51 1619 -26 
C 1702 -166 1792 -384 1824 -518 
C 2502 -518 2925 -512 3162 -435 
C 3411 -358 3514 -211 3514 141 
L 3514 1862 
L 6067 1862 
L 6067 2355 
L 3514 2355 
L 3514 4531 
C 4256 4608 4954 4710 5491 4851 
L 5242 5286 
C 4192 5011 2304 4851 762 4794 
C 806 4678 864 4493 870 4365 
C 1542 4384 2285 4416 3002 4480 
L 3002 2355 
L 346 2355 
z
" transform="scale(0.015625)"/>
      <path id="NotoSansCJKjp-Regular-4177" d="M 1133 1798 
L 1133 -141 
L 1600 -141 
L 1600 1402 
L 2944 1402 
L 2944 -506 
L 3418 -506 
L 3418 1402 
L 4858 1402 
L 4858 371 
C 4858 301 4832 282 4736 275 
C 4646 275 4307 275 3942 282 
C 4006 160 4077 -13 4102 -134 
C 4589 -134 4896 -134 5088 -64 
C 5280 6 5331 134 5331 371 
L 5331 1798 
L 3418 1798 
L 3418 2458 
L 5478 2458 
L 5478 1626 
L 5946 1626 
L 5946 2861 
L 499 2861 
L 499 1626 
L 954 1626 
L 954 2458 
L 2944 2458 
L 2944 1798 
L 1133 1798 
z
M 1389 5286 
L 1389 4602 
L 378 4602 
L 378 4211 
L 1370 4211 
C 1318 3866 1114 3488 416 3258 
C 512 3174 634 3040 685 2938 
C 1510 3258 1760 3750 1818 4211 
L 2355 4211 
L 2355 3187 
L 4058 3187 
L 4058 4211 
L 4614 4211 
L 4614 3642 
C 4614 3219 4717 3104 5120 3104 
C 5203 3104 5523 3104 5606 3104 
C 5933 3104 6042 3270 6086 3878 
C 5965 3904 5798 3974 5702 4038 
C 5690 3558 5670 3488 5555 3488 
C 5491 3488 5242 3488 5190 3488 
C 5075 3488 5056 3507 5056 3642 
L 5056 4211 
L 6035 4211 
L 6035 4602 
L 5056 4602 
L 5056 5286 
L 4614 5286 
L 4614 4602 
L 4058 4602 
L 4058 5274 
L 3616 5274 
L 3616 4602 
L 2784 4602 
L 2784 5274 
L 2355 5274 
L 2355 4602 
L 1830 4602 
L 1830 5286 
L 1389 5286 
z
M 3616 4211 
L 3616 3565 
L 2784 3565 
L 2784 4211 
L 3616 4211 
z
" transform="scale(0.015625)"/>
      <path id="NotoSansCJKjp-Regular-8006" d="M 2131 4774 
C 2278 4576 2432 4339 2560 4109 
L 1248 4058 
C 1446 4422 1651 4864 1824 5261 
L 1331 5382 
C 1197 4979 966 4442 742 4038 
L 256 4019 
L 294 3552 
C 960 3590 1882 3635 2784 3693 
C 2854 3552 2912 3424 2950 3309 
L 3366 3494 
C 3226 3891 2867 4486 2528 4928 
L 2131 4774 
z
M 2451 2688 
L 2451 2138 
L 1088 2138 
L 1088 2688 
L 2451 2688 
z
M 640 3098 
L 640 -506 
L 1088 -506 
L 1088 800 
L 2451 800 
L 2451 51 
C 2451 -32 2432 -58 2349 -58 
C 2253 -64 1984 -64 1683 -51 
C 1747 -179 1818 -365 1843 -493 
C 2246 -493 2522 -486 2701 -416 
C 2874 -339 2925 -205 2925 45 
L 2925 3098 
L 640 3098 
z
M 1088 1760 
L 2451 1760 
L 2451 1178 
L 1088 1178 
L 1088 1760 
z
M 5491 4896 
C 5126 4704 4550 4474 4006 4288 
L 4006 5363 
L 3526 5363 
L 3526 3238 
C 3526 2707 3686 2566 4307 2566 
C 4429 2566 5267 2566 5408 2566 
C 5920 2566 6061 2771 6118 3558 
C 5984 3590 5786 3661 5683 3744 
C 5658 3110 5613 3002 5363 3002 
C 5184 3002 4480 3002 4352 3002 
C 4058 3002 4006 3040 4006 3245 
L 4006 3904 
C 4621 4083 5306 4307 5811 4538 
L 5491 4896 
z
M 5568 2042 
C 5197 1805 4582 1555 4000 1363 
L 4000 2387 
L 3526 2387 
L 3526 224 
C 3526 -314 3693 -454 4320 -454 
C 4454 -454 5318 -454 5459 -454 
C 5997 -454 6138 -224 6195 634 
C 6061 666 5875 742 5760 819 
C 5734 96 5690 -26 5421 -26 
C 5229 -26 4506 -26 4365 -26 
C 4058 -26 4000 13 4000 224 
L 4000 966 
C 4646 1146 5382 1395 5882 1683 
L 5568 2042 
z
" transform="scale(0.015625)"/>
      <path id="NotoSansCJKjp-Regular-6aca" d="M 243 3987 
C 461 3610 672 3104 736 2784 
L 1120 2982 
C 1050 3302 832 3789 608 4160 
L 243 3987 
z
M 4941 2470 
L 4941 1907 
L 2816 1907 
L 2816 2470 
L 4941 2470 
z
M 4941 2822 
L 2816 2822 
L 2816 3360 
L 4941 3360 
L 4941 2822 
z
M 2368 3744 
L 2368 96 
L 1779 6 
L 1856 -442 
C 2483 -333 3341 -179 4160 -32 
L 4128 384 
L 2816 166 
L 2816 1517 
L 3622 1517 
C 4000 442 4730 -230 5914 -518 
C 5971 -397 6099 -218 6202 -122 
C 5626 -6 5152 205 4787 506 
C 5178 730 5638 1024 5984 1299 
L 5658 1574 
C 5376 1318 4909 992 4525 762 
C 4326 979 4173 1229 4058 1517 
L 5402 1517 
L 5402 3744 
L 2368 3744 
z
M 147 1658 
L 314 1216 
L 1158 1702 
C 1069 1037 845 358 320 -179 
C 422 -243 602 -410 672 -499 
C 1555 384 1683 1766 1683 2758 
L 1683 4243 
L 6086 4243 
L 6086 4685 
L 3770 4685 
L 3770 5376 
L 3270 5376 
L 3270 4685 
L 1222 4685 
L 1222 2765 
C 1222 2579 1216 2387 1210 2182 
C 806 1978 429 1779 147 1658 
z
" transform="scale(0.015625)"/>
      <path id="NotoSansCJKjp-Regular-9949" d="M 954 4698 
L 2035 4698 
L 2035 3526 
L 954 3526 
L 954 4698 
z
M 2976 3066 
C 2874 2374 2675 1690 2362 1242 
C 2458 1190 2643 1075 2720 1011 
C 3034 1498 3264 2234 3398 2995 
L 2976 3066 
z
M 5210 2950 
C 5485 2362 5741 1574 5811 1069 
L 6221 1229 
C 6138 1741 5888 2509 5594 3104 
L 5210 2950 
z
M 192 294 
L 282 -154 
C 922 13 1798 243 2624 467 
L 2579 883 
L 1754 672 
L 1754 1798 
L 2560 1798 
L 2560 2221 
L 1754 2221 
L 1754 3110 
L 2464 3110 
L 2464 5107 
L 538 5107 
L 538 3110 
L 1338 3110 
L 1338 570 
L 934 467 
L 934 2522 
L 538 2522 
L 538 371 
L 192 294 
z
M 2662 4314 
L 2662 3853 
L 3693 3853 
L 3693 2842 
C 3693 1882 3552 691 2323 -211 
C 2445 -294 2586 -422 2662 -518 
C 3949 448 4109 1728 4109 2835 
L 4109 3853 
L 4659 3853 
L 4659 58 
C 4659 -32 4627 -58 4538 -64 
C 4454 -64 4173 -64 3853 -58 
C 3917 -192 3981 -390 3994 -512 
C 4442 -512 4710 -506 4883 -429 
C 5050 -352 5107 -211 5107 51 
L 5107 3853 
L 6138 3853 
L 6138 4314 
L 4608 4314 
L 4608 5350 
L 4134 5350 
L 4134 4314 
L 2662 4314 
z
" transform="scale(0.015625)"/>
     </defs>
     <use xlink:href="#NotoSansCJKjp-Regular-e6ae"/>
     <use xlink:href="#NotoSansCJKjp-Regular-41eb" transform="translate(100 0)"/>
     <use xlink:href="#NotoSansCJKjp-Regular-2572" transform="translate(200 0)"/>
     <use xlink:href="#NotoSansCJKjp-Regular-2518" transform="translate(300 0)"/>
     <use xlink:href="#NotoSansCJKjp-Regular-4177" transform="translate(400 0)"/>
     <use xlink:href="#NotoSansCJKjp-Regular-8006" transform="translate(500 0)"/>
     <use xlink:href="#NotoSansCJKjp-Regular-a108" transform="translate(600 0)"/>
     <use xlink:href="#NotoSansCJKjp-Regular-6aca" transform="translate(700 0)"/>
     <use xlink:href="#NotoSansCJKjp-Regular-9949" transform="translate(800 0)"/>
     <use xlink:href="#NotoSansCJKjp-Regular-e6af" transform="translate(900 0)"/>
    </g>
   </g>
   <g id="text_9">
    <!-- 中子 → 質子 ＋ 電子 ＋ 反微中子 -->
    <g style="fill: #222831" transform="translate(180.551108 46.366038) scale(0.12 -0.12)">
     <defs>
      <path id="NotoSansCJKjp-Regular-31c" d="M 5190 2650 
L 256 2650 
L 256 2214 
L 5190 2214 
C 4864 1965 4442 1562 4154 1165 
L 4538 941 
C 4966 1504 5606 2067 6176 2432 
C 5606 2797 4966 3360 4538 3923 
L 4154 3699 
C 4442 3302 4864 2899 5190 2650 
z
" transform="scale(0.015625)"/>
      <path id="NotoSansCJKjp-Regular-e6b1" d="M 5523 2182 
L 5523 2624 
L 3418 2624 
L 3418 4730 
L 2982 4730 
L 2982 2624 
L 877 2624 
L 877 2182 
L 2982 2182 
L 2982 77 
L 3418 77 
L 3418 2182 
L 5523 2182 
z
" transform="scale(0.015625)"/>
     </defs>
     <use xlink:href="#NotoSansCJKjp-Regular-2548"/>
     <use xlink:href="#NotoSansCJKjp-Regular-3bf8" transform="translate(100 0)"/>
     <use xlink:href="#NotoSansCJKjp-Regular-1" transform="translate(200 0)"/>
     <use xlink:href="#NotoSansCJKjp-Regular-31c" transform="translate(222.40625 0)"/>
     <use xlink:href="#NotoSansCJKjp-Regular-1" transform="translate(322.40625 0)"/>
     <use xlink:href="#NotoSansCJKjp-Regular-97ec" transform="translate(344.8125 0)"/>
     <use xlink:href="#NotoSansCJKjp-Regular-3bf8" transform="translate(444.8125 0)"/>
     <use xlink:href="#NotoSansCJKjp-Regular-1" transform="translate(544.8125 0)"/>
     <use xlink:href="#NotoSansCJKjp-Regular-e6b1" transform="translate(567.21875 0)"/>
     <use xlink:href="#NotoSansCJKjp-Regular-1" transform="translate(667.21875 0)"/>
     <use xlink:href="#NotoSansCJKjp-Regular-a9c5" transform="translate(689.625 0)"/>
     <use xlink:href="#NotoSansCJKjp-Regular-3bf8" transform="translate(789.625 0)"/>
     <use xlink:href="#NotoSansCJKjp-Regular-1" transform="translate(889.625 0)"/>
     <use xlink:href="#NotoSansCJKjp-Regular-e6b1" transform="translate(912.03125 0)"/>
     <use xlink:href="#NotoSansCJKjp-Regular-1" transform="translate(1012.03125 0)"/>
     <use xlink:href="#NotoSansCJKjp-Regular-2e5a" transform="translate(1034.4375 0)"/>
     <use xlink:href="#NotoSansCJKjp-Regular-442c" transform="translate(1134.4375 0)"/>
     <use xlink:href="#NotoSansCJKjp-Regular-2548" transform="translate(1234.4375 0)"/>
     <use xlink:href="#NotoSansCJKjp-Regular-3bf8" transform="translate(1334.4375 0)"/>
    </g>
   </g>
   <g id="text_10">
    <!-- β 衰變：中子變質子，原子核變成另一種元素 -->
    <g style="fill: #222831" transform="translate(113.735 19.52) scale(0.14 -0.14)">
     <defs>
      <path id="NotoSansCJKjp-Regular-e6b2" d="M 1005 -685 
C 1677 -448 2112 77 2112 768 
C 2112 1216 1920 1504 1568 1504 
C 1306 1504 1082 1344 1082 1043 
C 1082 742 1299 589 1562 589 
L 1670 602 
C 1638 160 1357 -141 864 -346 
L 1005 -685 
z
" transform="scale(0.015625)"/>
      <path id="NotoSansCJKjp-Regular-4857" d="M 3482 5370 
C 3482 5005 3494 4640 3514 4288 
L 819 4288 
L 819 2490 
C 819 1658 762 550 230 -237 
C 346 -294 550 -461 634 -557 
C 1222 288 1318 1581 1318 2483 
L 1318 2528 
L 2490 2528 
C 2464 1427 2432 1018 2349 922 
C 2298 864 2240 851 2144 851 
C 2035 851 1760 851 1466 883 
C 1542 762 1594 570 1600 435 
C 1914 416 2208 416 2374 429 
C 2547 448 2656 493 2758 614 
C 2893 787 2925 1331 2957 2771 
C 2957 2835 2963 2976 2963 2976 
L 1318 2976 
L 1318 3821 
L 3546 3821 
C 3622 2784 3776 1837 4019 1101 
C 3597 614 3104 218 2534 -83 
C 2637 -179 2810 -378 2886 -480 
C 3379 -186 3821 166 4211 589 
C 4506 -70 4890 -467 5382 -467 
C 5875 -467 6054 -147 6138 947 
C 6010 992 5830 1101 5722 1210 
C 5683 358 5606 26 5421 26 
C 5094 26 4806 390 4570 1018 
C 5043 1632 5421 2362 5696 3200 
L 5216 3322 
C 5011 2675 4736 2093 4390 1581 
C 4224 2202 4102 2963 4032 3821 
L 6086 3821 
L 6086 4288 
L 4006 4288 
C 3987 4640 3981 4998 3981 5370 
L 3482 5370 
z
M 4294 5056 
C 4704 4845 5197 4518 5440 4288 
L 5741 4621 
C 5491 4838 4986 5152 4582 5350 
L 4294 5056 
z
" transform="scale(0.015625)"/>
      <path id="NotoSansCJKjp-Regular-2e81" d="M 1517 4621 
L 4896 4621 
L 4896 3226 
L 1517 3226 
L 1517 4621 
z
M 1043 5075 
L 1043 2765 
L 2842 2765 
C 2822 2541 2790 2323 2752 2118 
L 461 2118 
L 461 1677 
L 2637 1677 
C 2368 864 1786 243 320 -90 
C 422 -192 544 -390 595 -512 
C 2240 -109 2874 666 3162 1677 
L 5120 1677 
C 5043 595 4960 141 4819 13 
C 4755 -51 4685 -58 4550 -58 
C 4403 -58 4000 -51 3590 -19 
C 3680 -147 3744 -346 3757 -486 
C 4154 -512 4550 -512 4749 -499 
C 4973 -486 5114 -442 5248 -307 
C 5446 -96 5542 474 5638 1894 
C 5645 1965 5658 2118 5658 2118 
L 3258 2118 
C 3296 2323 3328 2541 3347 2765 
L 5395 2765 
L 5395 5075 
L 1043 5075 
z
" transform="scale(0.015625)"/>
      <path id="NotoSansCJKjp-Regular-724a" d="M 2771 3424 
L 2771 1370 
L 4102 1370 
L 4102 909 
L 2701 909 
L 2701 525 
L 4102 525 
L 4102 19 
L 2336 19 
L 2336 -378 
L 6176 -378 
L 6176 19 
L 4563 19 
L 4563 525 
L 5958 525 
L 5958 909 
L 4563 909 
L 4563 1370 
L 5926 1370 
L 5926 3424 
L 4563 3424 
L 4563 3853 
L 6054 3853 
L 6054 4250 
L 4563 4250 
L 4563 4723 
C 5114 4774 5638 4845 6042 4934 
L 5747 5299 
C 5024 5133 3693 5030 2618 4986 
C 2662 4883 2720 4723 2733 4614 
C 3162 4627 3635 4653 4102 4685 
L 4102 4250 
L 2502 4250 
L 2502 3853 
L 4102 3853 
L 4102 3424 
L 2771 3424 
z
M 3200 2240 
L 4102 2240 
L 4102 1728 
L 3200 1728 
L 3200 2240 
z
M 4563 2240 
L 5485 2240 
L 5485 1728 
L 4563 1728 
L 4563 2240 
z
M 3200 3066 
L 4102 3066 
L 4102 2560 
L 3200 2560 
L 3200 3066 
z
M 4563 3066 
L 5485 3066 
L 5485 2560 
L 4563 2560 
L 4563 3066 
z
M 2310 5286 
C 1837 5069 992 4883 275 4762 
C 333 4659 397 4499 416 4397 
C 717 4435 1037 4493 1357 4557 
L 1357 3571 
L 314 3571 
L 314 3123 
L 1293 3123 
C 1037 2387 595 1555 179 1101 
C 262 986 378 794 429 659 
C 755 1056 1094 1690 1357 2336 
L 1357 -499 
L 1830 -499 
L 1830 2259 
C 2048 1990 2304 1645 2413 1466 
L 2701 1843 
C 2573 1990 2016 2566 1830 2726 
L 1830 3123 
L 2630 3123 
L 2630 3571 
L 1830 3571 
L 1830 4666 
C 2131 4736 2413 4819 2643 4915 
L 2310 5286 
z
" transform="scale(0.015625)"/>
      <path id="NotoSansCJKjp-Regular-2a55" d="M 941 4877 
L 941 4416 
L 5485 4416 
L 5485 4877 
L 941 4877 
z
M 378 3085 
L 378 2611 
L 2010 2611 
C 1914 1414 1677 397 307 -122 
C 416 -211 557 -384 608 -493 
C 2099 102 2406 1235 2522 2611 
L 3731 2611 
L 3731 320 
C 3731 -237 3885 -397 4461 -397 
C 4582 -397 5261 -397 5389 -397 
C 5946 -397 6074 -96 6131 1005 
C 5997 1037 5792 1126 5677 1216 
C 5658 230 5613 58 5350 58 
C 5197 58 4634 58 4518 58 
C 4269 58 4218 96 4218 326 
L 4218 2611 
L 6029 2611 
L 6029 3085 
L 378 3085 
z
" transform="scale(0.015625)"/>
      <path id="NotoSansCJKjp-Regular-789b" d="M 4058 582 
C 4608 320 5293 -83 5626 -371 
L 6003 -83 
C 5645 211 4954 595 4416 838 
L 4058 582 
z
M 1862 832 
C 1472 486 851 141 282 -77 
C 390 -154 570 -314 653 -403 
C 1203 -154 1869 256 2304 666 
L 1862 832 
z
M 397 3347 
L 397 2963 
L 2419 2963 
C 2208 2752 1946 2515 1715 2336 
L 1299 2547 
L 986 2272 
C 1389 2074 1875 1792 2195 1549 
L 1920 1376 
L 416 1363 
L 454 960 
L 2950 1011 
L 2950 -506 
L 3424 -506 
L 3424 1018 
L 5350 1069 
C 5498 947 5626 832 5722 730 
L 6074 1011 
C 5741 1357 5069 1824 4512 2125 
L 4179 1869 
C 4397 1741 4634 1594 4864 1434 
L 2624 1389 
C 3219 1754 3872 2214 4378 2624 
L 3949 2861 
C 3597 2541 3091 2150 2592 1805 
C 2438 1914 2253 2035 2054 2150 
C 2368 2368 2739 2675 3053 2963 
L 6022 2963 
L 6022 3347 
L 3430 3347 
L 3430 3763 
L 5357 3763 
L 5357 4128 
L 3430 4128 
L 3430 4538 
L 5734 4538 
L 5734 4909 
L 3430 4909 
L 3430 5382 
L 2950 5382 
L 2950 4909 
L 736 4909 
L 736 4538 
L 2950 4538 
L 2950 4128 
L 1088 4128 
L 1088 3763 
L 2950 3763 
L 2950 3347 
L 397 3347 
z
" transform="scale(0.015625)"/>
     </defs>
     <use xlink:href="#NotoSansCJKjp-Regular-11a"/>
     <use xlink:href="#NotoSansCJKjp-Regular-1" transform="translate(63.09375 0)"/>
     <use xlink:href="#NotoSansCJKjp-Regular-8fa0" transform="translate(85.5 0)"/>
     <use xlink:href="#NotoSansCJKjp-Regular-95ec" transform="translate(185.5 0)"/>
     <use xlink:href="#NotoSansCJKjp-Regular-e6c0" transform="translate(285.5 0)"/>
     <use xlink:href="#NotoSansCJKjp-Regular-2548" transform="translate(385.5 0)"/>
     <use xlink:href="#NotoSansCJKjp-Regular-3bf8" transform="translate(485.5 0)"/>
     <use xlink:href="#NotoSansCJKjp-Regular-95ec" transform="translate(585.5 0)"/>
     <use xlink:href="#NotoSansCJKjp-Regular-97ec" transform="translate(685.5 0)"/>
     <use xlink:href="#NotoSansCJKjp-Regular-3bf8" transform="translate(785.5 0)"/>
     <use xlink:href="#NotoSansCJKjp-Regular-e6b2" transform="translate(885.5 0)"/>
     <use xlink:href="#NotoSansCJKjp-Regular-2e09" transform="translate(985.5 0)"/>
     <use xlink:href="#NotoSansCJKjp-Regular-3bf8" transform="translate(1085.5 0)"/>
     <use xlink:href="#NotoSansCJKjp-Regular-52ac" transform="translate(1185.5 0)"/>
     <use xlink:href="#NotoSansCJKjp-Regular-95ec" transform="translate(1285.5 0)"/>
     <use xlink:href="#NotoSansCJKjp-Regular-4857" transform="translate(1385.5 0)"/>
     <use xlink:href="#NotoSansCJKjp-Regular-2e81" transform="translate(1485.5 0)"/>
     <use xlink:href="#NotoSansCJKjp-Regular-2509" transform="translate(1585.5 0)"/>
     <use xlink:href="#NotoSansCJKjp-Regular-724a" transform="translate(1685.5 0)"/>
     <use xlink:href="#NotoSansCJKjp-Regular-2a55" transform="translate(1785.5 0)"/>
     <use xlink:href="#NotoSansCJKjp-Regular-789b" transform="translate(1885.5 0)"/>
    </g>
   </g>
   <g id="patch_2">
    <path d="M 116.525887 138.551849 
C 120.211509 138.551849 123.746675 137.087536 126.352803 134.481407 
C 128.958932 131.875278 130.423245 128.340113 130.423245 124.654491 
C 130.423245 120.968868 128.958932 117.433703 126.352803 114.827574 
C 123.746675 112.221445 120.211509 110.757132 116.525887 110.757132 
C 112.840264 110.757132 109.305099 112.221445 106.69897 114.827574 
C 104.092842 117.433703 102.628528 120.968868 102.628528 124.654491 
C 102.628528 128.340113 104.092842 131.875278 106.69897 134.481407 
C 109.305099 137.087536 112.840264 138.551849 116.525887 138.551849 
z
" clip-path="url(#pd8752572c7)" style="fill: #ffd9d9; stroke: #d1242f; stroke-width: 1.8; stroke-linejoin: miter"/>
   </g>
   <g id="patch_3">
    <path d="M 148.026566 138.551849 
C 151.712189 138.551849 155.247354 137.087536 157.853482 134.481407 
C 160.459611 131.875278 161.923925 128.340113 161.923925 124.654491 
C 161.923925 120.968868 160.459611 117.433703 157.853482 114.827574 
C 155.247354 112.221445 151.712189 110.757132 148.026566 110.757132 
C 144.340943 110.757132 140.805778 112.221445 138.19965 114.827574 
C 135.593521 117.433703 134.129208 120.968868 134.129208 124.654491 
C 134.129208 128.340113 135.593521 131.875278 138.19965 134.481407 
C 140.805778 137.087536 144.340943 138.551849 148.026566 138.551849 
z
" clip-path="url(#pd8752572c7)" style="fill: #ffd9d9; stroke: #d1242f; stroke-width: 1.8; stroke-linejoin: miter"/>
   </g>
   <g id="patch_4">
    <path d="M 116.525887 169.126038 
C 120.211509 169.126038 123.746675 167.661724 126.352803 165.055596 
C 128.958932 162.449467 130.423245 158.914302 130.423245 155.228679 
C 130.423245 151.543057 128.958932 148.007892 126.352803 145.401763 
C 123.746675 142.795634 120.211509 141.331321 116.525887 141.331321 
C 112.840264 141.331321 109.305099 142.795634 106.69897 145.401763 
C 104.092842 148.007892 102.628528 151.543057 102.628528 155.228679 
C 102.628528 158.914302 104.092842 162.449467 106.69897 165.055596 
C 109.305099 167.661724 112.840264 169.126038 116.525887 169.126038 
z
" clip-path="url(#pd8752572c7)" style="fill: #fff0c2; stroke: #bf8700; stroke-width: 1.8; stroke-linejoin: miter"/>
   </g>
   <g id="patch_5">
    <path d="M 148.026566 169.126038 
C 151.712189 169.126038 155.247354 167.661724 157.853482 165.055596 
C 160.459611 162.449467 161.923925 158.914302 161.923925 155.228679 
C 161.923925 151.543057 160.459611 148.007892 157.853482 145.401763 
C 155.247354 142.795634 151.712189 141.331321 148.026566 141.331321 
C 144.340943 141.331321 140.805778 142.795634 138.19965 145.401763 
C 135.593521 148.007892 134.129208 151.543057 134.129208 155.228679 
C 134.129208 158.914302 135.593521 162.449467 138.19965 165.055596 
C 140.805778 167.661724 144.340943 169.126038 148.026566 169.126038 
z
" clip-path="url(#pd8752572c7)" style="fill: #e7e7e7; stroke: #555555; stroke-width: 1.8; stroke-linejoin: miter"/>
   </g>
   <g id="patch_6">
    <path d="M 132.276226 112.610113 
C 135.961849 112.610113 139.497014 111.1458 142.103143 108.539671 
C 144.709272 105.933542 146.173585 102.398377 146.173585 98.712755 
C 146.173585 95.027132 144.709272 91.491967 142.103143 88.885838 
C 139.497014 86.27971 135.961849 84.815396 132.276226 84.815396 
C 128.590604 84.815396 125.055439 86.27971 122.44931 88.885838 
C 119.843181 91.491967 118.378868 95.027132 118.378868 98.712755 
C 118.378868 102.398377 119.843181 105.933542 122.44931 108.539671 
C 125.055439 111.1458 128.590604 112.610113 132.276226 112.610113 
z
" clip-path="url(#pd8752572c7)" style="fill: #e7e7e7; stroke: #555555; stroke-width: 1.8; stroke-linejoin: miter"/>
   </g>
   <g id="patch_7">
    <path d="M 385.208151 138.551849 
C 388.893773 138.551849 392.428939 137.087536 395.035067 134.481407 
C 397.641196 131.875278 399.105509 128.340113 399.105509 124.654491 
C 399.105509 120.968868 397.641196 117.433703 395.035067 114.827574 
C 392.428939 112.221445 388.893773 110.757132 385.208151 110.757132 
C 381.522528 110.757132 377.987363 112.221445 375.381235 114.827574 
C 372.775106 117.433703 371.310792 120.968868 371.310792 124.654491 
C 371.310792 128.340113 372.775106 131.875278 375.381235 134.481407 
C 377.987363 137.087536 381.522528 138.551849 385.208151 138.551849 
z
" clip-path="url(#pd8752572c7)" style="fill: #ffd9d9; stroke: #d1242f; stroke-width: 1.8; stroke-linejoin: miter"/>
   </g>
   <g id="patch_8">
    <path d="M 416.70883 138.551849 
C 420.394453 138.551849 423.929618 137.087536 426.535747 134.481407 
C 429.141875 131.875278 430.606189 128.340113 430.606189 124.654491 
C 430.606189 120.968868 429.141875 117.433703 426.535747 114.827574 
C 423.929618 112.221445 420.394453 110.757132 416.70883 110.757132 
C 413.023208 110.757132 409.488042 112.221445 406.881914 114.827574 
C 404.275785 117.433703 402.811472 120.968868 402.811472 124.654491 
C 402.811472 128.340113 404.275785 131.875278 406.881914 134.481407 
C 409.488042 137.087536 413.023208 138.551849 416.70883 138.551849 
z
" clip-path="url(#pd8752572c7)" style="fill: #ffd9d9; stroke: #d1242f; stroke-width: 1.8; stroke-linejoin: miter"/>
   </g>
   <g id="patch_9">
    <path d="M 400.958491 169.126038 
C 404.644113 169.126038 408.179278 167.661724 410.785407 165.055596 
C 413.391536 162.449467 414.855849 158.914302 414.855849 155.228679 
C 414.855849 151.543057 413.391536 148.007892 410.785407 145.401763 
C 408.179278 142.795634 404.644113 141.331321 400.958491 141.331321 
C 397.272868 141.331321 393.737703 142.795634 391.131574 145.401763 
C 388.525445 148.007892 387.061132 151.543057 387.061132 155.228679 
C 387.061132 158.914302 388.525445 162.449467 391.131574 165.055596 
C 393.737703 167.661724 397.272868 169.126038 400.958491 169.126038 
z
" clip-path="url(#pd8752572c7)" style="fill: #fff0c2; stroke: #bf8700; stroke-width: 1.8; stroke-linejoin: miter"/>
   </g>
   <g id="patch_10">
    <path d="M 385.208151 169.126038 
C 388.893773 169.126038 392.428939 167.661724 395.035067 165.055596 
C 397.641196 162.449467 399.105509 158.914302 399.105509 155.228679 
C 399.105509 151.543057 397.641196 148.007892 395.035067 145.401763 
C 392.428939 142.795634 388.893773 141.331321 385.208151 141.331321 
C 381.522528 141.331321 377.987363 142.795634 375.381235 145.401763 
C 372.775106 148.007892 371.310792 151.543057 371.310792 155.228679 
C 371.310792 158.914302 372.775106 162.449467 375.381235 165.055596 
C 377.987363 167.661724 381.522528 169.126038 385.208151 169.126038 
z
" clip-path="url(#pd8752572c7)" style="fill: #e7e7e7; stroke: #555555; stroke-width: 1.8; stroke-linejoin: miter"/>
   </g>
   <g id="patch_11">
    <path d="M 400.958491 112.610113 
C 404.644113 112.610113 408.179278 111.1458 410.785407 108.539671 
C 413.391536 105.933542 414.855849 102.398377 414.855849 98.712755 
C 414.855849 95.027132 413.391536 91.491967 410.785407 88.885838 
C 408.179278 86.27971 404.644113 84.815396 400.958491 84.815396 
C 397.272868 84.815396 393.737703 86.27971 391.131574 88.885838 
C 388.525445 91.491967 387.061132 95.027132 387.061132 98.712755 
C 387.061132 102.398377 388.525445 105.933542 391.131574 108.539671 
C 393.737703 111.1458 397.272868 112.610113 400.958491 112.610113 
z
" clip-path="url(#pd8752572c7)" style="fill: #e7e7e7; stroke: #555555; stroke-width: 1.8; stroke-linejoin: miter"/>
   </g>
   <g id="patch_12">
    <path d="M 185.549434 132.066415 
Q 266.617358 132.066415 345.002001 132.066415 
" clip-path="url(#pd8752572c7)" style="fill: none; stroke: #222831; stroke-width: 2.4; stroke-linecap: round"/>
    <path d="M 337.802001 128.466415 
L 345.002001 132.066415 
L 337.802001 135.666415 
z
" clip-path="url(#pd8752572c7)" style="fill: #222831; stroke: #222831; stroke-width: 2.4; stroke-linecap: round"/>
   </g>
   <g id="patch_13">
    <path d="M 266.617358 148.28 
Q 302.518868 201.553208 337.170743 252.972119 
" clip-path="url(#pd8752572c7)" style="fill: none; stroke: #1f6feb; stroke-width: 2; stroke-linecap: round"/>
    <path d="M 336.305422 246.31996 
L 337.170743 252.972119 
L 331.329823 249.673081 
z
" clip-path="url(#pd8752572c7)" style="fill: #1f6feb; stroke: #1f6feb; stroke-width: 2; stroke-linecap: round"/>
   </g>
   <g id="patch_14">
    <path d="M 266.617358 148.28 
Q 230.715849 201.553208 195.814047 253.342978 
" clip-path="url(#pd8752572c7)" style="fill: none; stroke-dasharray: 5.92,2.56; stroke-dashoffset: 0; stroke: #888888; stroke-width: 1.6; stroke-linecap: round"/>
    <path d="M 200.876178 250.483812 
L 195.814047 253.342978 
L 196.563992 247.577774 
z
" clip-path="url(#pd8752572c7)" style="fill: #888888; stroke-dasharray: 5.92,2.56; stroke-dashoffset: 0; stroke: #888888; stroke-width: 1.6; stroke-linecap: round"/>
   </g>
   <g id="text_11">
    <!-- $p$ -->
    <g style="fill: #d1242f" transform="translate(113.720887 128.394491) scale(0.11 -0.11)">
     <defs>
      <path id="Cmmi10-80" d="M -159 -1241 
Q -219 -1241 -219 -1159 
Q -197 -1019 -134 -1019 
Q 66 -1019 145 -983 
Q 225 -947 269 -800 
L 991 2081 
Q 1038 2200 1038 2388 
Q 1038 2663 850 2663 
Q 650 2663 553 2423 
Q 456 2184 366 1819 
Q 366 1778 313 1778 
L 238 1778 
Q 222 1778 203 1801 
Q 184 1825 184 1844 
Q 253 2122 317 2315 
Q 381 2509 517 2668 
Q 653 2828 856 2828 
Q 1075 2828 1240 2704 
Q 1406 2581 1453 2369 
Q 1628 2572 1840 2700 
Q 2053 2828 2278 2828 
Q 2547 2828 2745 2684 
Q 2944 2541 3044 2308 
Q 3144 2075 3144 1806 
Q 3144 1394 2933 953 
Q 2722 513 2361 220 
Q 2000 -72 1588 -72 
Q 1400 -72 1248 34 
Q 1097 141 1013 313 
L 722 -825 
Q 706 -919 703 -934 
Q 703 -1019 1125 -1019 
Q 1191 -1019 1191 -1100 
Q 1169 -1184 1155 -1212 
Q 1141 -1241 1081 -1241 
L -159 -1241 
z
M 1594 97 
Q 1816 97 2006 280 
Q 2197 463 2316 691 
Q 2403 863 2479 1111 
Q 2556 1359 2612 1640 
Q 2669 1922 2669 2088 
Q 2669 2234 2630 2362 
Q 2591 2491 2502 2577 
Q 2413 2663 2266 2663 
Q 2031 2663 1823 2495 
Q 1616 2328 1447 2081 
L 1447 2059 
L 1094 647 
Q 1138 419 1263 258 
Q 1388 97 1594 97 
z
" transform="scale(0.015625)"/>
     </defs>
     <use xlink:href="#Cmmi10-80" transform="translate(0 0.8125)"/>
    </g>
   </g>
   <g id="text_12">
    <!-- $p$ -->
    <g style="fill: #d1242f" transform="translate(145.221566 128.394491) scale(0.11 -0.11)">
     <use xlink:href="#Cmmi10-80" transform="translate(0 0.8125)"/>
    </g>
   </g>
   <g id="text_13">
    <!-- $n$ -->
    <g style="fill: #bf8700" transform="translate(113.170887 159.408679) scale(0.11 -0.11)">
     <defs>
      <path id="Cmmi10-7a" d="M 494 109 
Q 494 147 500 166 
L 978 2075 
Q 1025 2253 1025 2388 
Q 1025 2663 838 2663 
Q 638 2663 541 2423 
Q 444 2184 353 1819 
Q 353 1800 334 1789 
Q 316 1778 300 1778 
L 225 1778 
Q 203 1778 187 1801 
Q 172 1825 172 1844 
Q 241 2122 305 2315 
Q 369 2509 505 2668 
Q 641 2828 844 2828 
Q 1084 2828 1268 2676 
Q 1453 2525 1453 2291 
Q 1644 2541 1900 2684 
Q 2156 2828 2444 2828 
Q 2672 2828 2837 2750 
Q 3003 2672 3095 2514 
Q 3188 2356 3188 2138 
Q 3188 1875 3070 1503 
Q 2953 1131 2778 672 
Q 2688 463 2688 288 
Q 2688 97 2834 97 
Q 3084 97 3251 365 
Q 3419 634 3488 941 
Q 3500 978 3541 978 
L 3616 978 
Q 3641 978 3658 962 
Q 3675 947 3675 922 
Q 3675 916 3669 903 
Q 3581 541 3364 234 
Q 3147 -72 2822 -72 
Q 2597 -72 2437 83 
Q 2278 238 2278 459 
Q 2278 578 2328 709 
Q 2409 919 2514 1209 
Q 2619 1500 2686 1765 
Q 2753 2031 2753 2234 
Q 2753 2413 2679 2538 
Q 2606 2663 2431 2663 
Q 2197 2663 2000 2559 
Q 1803 2456 1656 2286 
Q 1509 2116 1388 1881 
L 953 141 
Q 931 53 854 -9 
Q 778 -72 684 -72 
Q 606 -72 550 -22 
Q 494 28 494 109 
z
" transform="scale(0.015625)"/>
     </defs>
     <use xlink:href="#Cmmi10-7a" transform="translate(0 0.8125)"/>
    </g>
   </g>
   <g id="text_14">
    <!-- $n$ -->
    <g style="fill: #555555" transform="translate(144.671566 159.408679) scale(0.11 -0.11)">
     <use xlink:href="#Cmmi10-7a" transform="translate(0 0.8125)"/>
    </g>
   </g>
   <g id="text_15">
    <!-- $n$ -->
    <g style="fill: #555555" transform="translate(128.921226 102.892755) scale(0.11 -0.11)">
     <use xlink:href="#Cmmi10-7a" transform="translate(0 0.8125)"/>
    </g>
   </g>
   <g id="patch_15">
    <path d="M 69.367042 141.780203 
Q 85.486556 145.500091 100.189847 148.893158 
" style="fill: none; stroke: #bf8700; stroke-width: 1.3; stroke-linecap: round"/>
    <path d="M 96.052432 145.475293 
L 100.189847 148.893158 
L 94.973107 150.152371 
" style="fill: none; stroke: #bf8700; stroke-width: 1.3; stroke-linecap: round"/>
   </g>
   <g id="text_16">
    <!-- $p$ -->
    <g style="fill: #d1242f" transform="translate(382.403151 128.394491) scale(0.11 -0.11)">
     <use xlink:href="#Cmmi10-80" transform="translate(0 0.8125)"/>
    </g>
   </g>
   <g id="text_17">
    <!-- $p$ -->
    <g style="fill: #d1242f" transform="translate(413.90383 128.394491) scale(0.11 -0.11)">
     <use xlink:href="#Cmmi10-80" transform="translate(0 0.8125)"/>
    </g>
   </g>
   <g id="text_18">
    <!-- $p$ -->
    <g style="fill: #bf8700" transform="translate(398.153491 158.968679) scale(0.11 -0.11)">
     <use xlink:href="#Cmmi10-80" transform="translate(0 0.8125)"/>
    </g>
   </g>
   <g id="text_19">
    <!-- $n$ -->
    <g style="fill: #555555" transform="translate(381.853151 159.408679) scale(0.11 -0.11)">
     <use xlink:href="#Cmmi10-7a" transform="translate(0 0.8125)"/>
    </g>
   </g>
   <g id="text_20">
    <!-- $n$ -->
    <g style="fill: #555555" transform="translate(397.603491 102.892755) scale(0.11 -0.11)">
     <use xlink:href="#Cmmi10-7a" transform="translate(0 0.8125)"/>
    </g>
   </g>
  </g>
 </g>
 <defs>
  <clipPath id="pd8752572c7">
   <rect x="7.2" y="25.52" width="491.04" height="259.417358"/>
  </clipPath>
 </defs>
</svg>
