<?xml version="1.0" encoding="utf-8" standalone="no"?>
<!DOCTYPE svg PUBLIC "-//W3C//DTD SVG 1.1//EN"
  "http://www.w3.org/Graphics/SVG/1.1/DTD/svg11.dtd">
<svg xmlns:xlink="http://www.w3.org/1999/xlink" width="650.353125pt" height="261.48pt" viewBox="0 0 650.353125 261.48" xmlns="http://www.w3.org/2000/svg" version="1.1">
 <metadata>
  <rdf:RDF xmlns:dc="http://purl.org/dc/elements/1.1/" xmlns:cc="http://creativecommons.org/ns#" xmlns:rdf="http://www.w3.org/1999/02/22-rdf-syntax-ns#">
   <cc:Work>
    <dc:type rdf:resource="http://purl.org/dc/dcmitype/StillImage"/>
    <dc:date>2026-06-20T00:09:18.824454</dc:date>
    <dc:format>image/svg+xml</dc:format>
    <dc:creator>
     <cc:Agent>
      <dc:title>Matplotlib v3.11.0, https://matplotlib.org/</dc:title>
     </cc:Agent>
    </dc:creator>
   </cc:Work>
  </rdf:RDF>
 </metadata>
 <defs>
  <style type="text/css">*{stroke-linejoin: round; stroke-linecap: butt}</style>
 </defs>
 <g id="figure_1">
  <g id="patch_1">
   <path d="M 0 261.48 
L 650.353125 261.48 
L 650.353125 0 
L 0 0 
z
" style="fill: #ffffff"/>
  </g>
  <g id="axes_1">
   <g id="patch_2">
    <path d="M 37.44875 218.68 
L 315.10875 218.68 
L 315.10875 25.24 
L 37.44875 25.24 
z
" style="fill: #ffffff"/>
   </g>
   <g id="matplotlib.axis_1">
    <g id="xtick_1">
     <g id="line2d_1">
      <path d="M 37.44875 218.68 
L 37.44875 25.24 
" clip-path="url(#p97aaa3d153)" style="fill: none; stroke: #d8dde3; stroke-width: 0.9; stroke-linecap: square"/>
     </g>
     <g id="line2d_2">
      <defs>
       <path id="mf1da97b1d8" d="M 0 0 
L 0 3.5 
" style="stroke: #222831; stroke-width: 0.8"/>
      </defs>
      <g>
       <use xlink:href="#mf1da97b1d8" x="37.44875" y="218.68" style="fill: #222831; stroke: #222831; stroke-width: 0.8"/>
      </g>
     </g>
     <g id="text_1">
      <!-- 0 -->
      <g style="fill: #222831" transform="translate(34.124375 236) scale(0.12 -0.12)">
       <defs>
        <path id="STHeitiTC-Medium-12" d="M 1747 5184 
Q 2502 5184 2944 4547 
Q 3386 3910 3386 2723 
Q 3386 1536 2938 902 
Q 2490 269 1738 269 
Q 986 269 573 893 
Q 160 1517 160 2729 
Q 160 3942 573 4563 
Q 986 5184 1747 5184 
z
M 1760 774 
Q 2285 774 2576 1283 
Q 2867 1792 2867 2726 
Q 2867 3661 2566 4160 
Q 2266 4659 1757 4659 
Q 1248 4659 966 4160 
Q 685 3661 685 2714 
Q 685 774 1760 774 
z
" transform="scale(0.015625)"/>
       </defs>
       <use xlink:href="#STHeitiTC-Medium-12"/>
      </g>
     </g>
    </g>
    <g id="xtick_2">
     <g id="line2d_3">
      <path d="M 92.98075 218.68 
L 92.98075 25.24 
" clip-path="url(#p97aaa3d153)" style="fill: none; stroke: #d8dde3; stroke-width: 0.9; stroke-linecap: square"/>
     </g>
     <g id="line2d_4">
      <g>
       <use xlink:href="#mf1da97b1d8" x="92.98075" y="218.68" style="fill: #222831; stroke: #222831; stroke-width: 0.8"/>
      </g>
     </g>
     <g id="text_2">
      <!-- 1 -->
      <g style="fill: #222831" transform="translate(89.656375 236) scale(0.12 -0.12)">
       <defs>
        <path id="STHeitiTC-Medium-13" d="M 2131 384 
L 1587 384 
L 1587 4531 
L 826 4531 
L 1158 5069 
L 2131 5069 
L 2131 384 
z
" transform="scale(0.015625)"/>
       </defs>
       <use xlink:href="#STHeitiTC-Medium-13"/>
      </g>
     </g>
    </g>
    <g id="xtick_3">
     <g id="line2d_5">
      <path d="M 148.51275 218.68 
L 148.51275 25.24 
" clip-path="url(#p97aaa3d153)" style="fill: none; stroke: #d8dde3; stroke-width: 0.9; stroke-linecap: square"/>
     </g>
     <g id="line2d_6">
      <g>
       <use xlink:href="#mf1da97b1d8" x="148.51275" y="218.68" style="fill: #222831; stroke: #222831; stroke-width: 0.8"/>
      </g>
     </g>
     <g id="text_3">
      <!-- 2 -->
      <g style="fill: #222831" transform="translate(145.188375 236) scale(0.12 -0.12)">
       <defs>
        <path id="STHeitiTC-Medium-14" d="M 3360 384 
L 90 384 
L 1914 2355 
Q 2374 2842 2566 3123 
Q 2758 3405 2758 3763 
Q 2758 4122 2480 4390 
Q 2202 4659 1789 4659 
Q 1376 4659 1101 4368 
Q 826 4077 787 3539 
L 256 3539 
Q 288 4294 736 4739 
Q 1184 5184 1821 5184 
Q 2458 5184 2877 4771 
Q 3296 4358 3296 3763 
Q 3296 3328 3065 2950 
Q 2835 2573 2368 2074 
L 1293 915 
L 3360 915 
L 3360 384 
z
" transform="scale(0.015625)"/>
       </defs>
       <use xlink:href="#STHeitiTC-Medium-14"/>
      </g>
     </g>
    </g>
    <g id="xtick_4">
     <g id="line2d_7">
      <path d="M 204.04475 218.68 
L 204.04475 25.24 
" clip-path="url(#p97aaa3d153)" style="fill: none; stroke: #d8dde3; stroke-width: 0.9; stroke-linecap: square"/>
     </g>
     <g id="line2d_8">
      <g>
       <use xlink:href="#mf1da97b1d8" x="204.04475" y="218.68" style="fill: #222831; stroke: #222831; stroke-width: 0.8"/>
      </g>
     </g>
     <g id="text_4">
      <!-- 3 -->
      <g style="fill: #222831" transform="translate(200.720375 236) scale(0.12 -0.12)">
       <defs>
        <path id="STHeitiTC-Medium-15" d="M 2554 3021 
Q 2931 2835 3139 2508 
Q 3347 2182 3347 1798 
Q 3347 1171 2889 720 
Q 2432 269 1734 269 
Q 1107 269 707 630 
Q 307 992 166 1702 
L 710 1702 
Q 832 1248 1072 1027 
Q 1312 806 1757 806 
Q 2202 806 2502 1084 
Q 2803 1363 2803 1785 
Q 2803 2208 2460 2457 
Q 2118 2707 1453 2720 
L 1453 3232 
Q 1933 3232 2227 3437 
Q 2522 3642 2522 3946 
Q 2522 4250 2294 4451 
Q 2067 4653 1744 4653 
Q 1421 4653 1219 4470 
Q 1018 4288 877 3917 
L 320 3917 
Q 461 4531 832 4857 
Q 1203 5184 1747 5184 
Q 2291 5184 2691 4825 
Q 3091 4467 3091 3955 
Q 3091 3366 2554 3021 
z
" transform="scale(0.015625)"/>
       </defs>
       <use xlink:href="#STHeitiTC-Medium-15"/>
      </g>
     </g>
    </g>
    <g id="xtick_5">
     <g id="line2d_9">
      <path d="M 259.57675 218.68 
L 259.57675 25.24 
" clip-path="url(#p97aaa3d153)" style="fill: none; stroke: #d8dde3; stroke-width: 0.9; stroke-linecap: square"/>
     </g>
     <g id="line2d_10">
      <g>
       <use xlink:href="#mf1da97b1d8" x="259.57675" y="218.68" style="fill: #222831; stroke: #222831; stroke-width: 0.8"/>
      </g>
     </g>
     <g id="text_5">
      <!-- 4 -->
      <g style="fill: #222831" transform="translate(256.252375 236) scale(0.12 -0.12)">
       <defs>
        <path id="STHeitiTC-Medium-16" d="M 3418 1453 
L 2861 1453 
L 2861 384 
L 2317 384 
L 2317 1453 
L 70 1453 
L 2701 5184 
L 2861 5184 
L 2861 1984 
L 3418 1984 
L 3418 1453 
z
M 2317 1984 
L 2317 3712 
L 1094 1984 
L 2317 1984 
z
" transform="scale(0.015625)"/>
       </defs>
       <use xlink:href="#STHeitiTC-Medium-16"/>
      </g>
     </g>
    </g>
    <g id="xtick_6">
     <g id="line2d_11">
      <path d="M 315.10875 218.68 
L 315.10875 25.24 
" clip-path="url(#p97aaa3d153)" style="fill: none; stroke: #d8dde3; stroke-width: 0.9; stroke-linecap: square"/>
     </g>
     <g id="line2d_12">
      <g>
       <use xlink:href="#mf1da97b1d8" x="315.10875" y="218.68" style="fill: #222831; stroke: #222831; stroke-width: 0.8"/>
      </g>
     </g>
     <g id="text_6">
      <!-- 5 -->
      <g style="fill: #222831" transform="translate(311.784375 236) scale(0.12 -0.12)">
       <defs>
        <path id="STHeitiTC-Medium-17" d="M 3194 4544 
L 1549 4544 
L 1338 3398 
Q 1613 3469 1856 3469 
Q 2477 3469 2893 3030 
Q 3309 2592 3309 1913 
Q 3309 1235 2861 752 
Q 2413 269 1664 269 
Q 1088 269 691 621 
Q 294 973 211 1587 
L 768 1587 
Q 851 1203 1107 998 
Q 1363 794 1690 794 
Q 2125 794 2438 1123 
Q 2752 1453 2752 1939 
Q 2752 2374 2480 2656 
Q 2208 2938 1747 2938 
Q 1286 2938 672 2675 
L 1120 5069 
L 3194 5069 
L 3194 4544 
z
" transform="scale(0.015625)"/>
       </defs>
       <use xlink:href="#STHeitiTC-Medium-17"/>
      </g>
     </g>
    </g>
    <g id="text_7">
     <!-- 時間 $t$ (s) -->
     <g style="fill: #222831" transform="translate(152.33875 252.6) scale(0.12 -0.12)">
      <defs>
       <path id="STHeitiTC-Medium-132" d="M 4096 262 
Q 3994 358 3830 470 
Q 3667 582 3491 691 
Q 3315 800 3152 883 
Q 2989 966 2893 1005 
L 3219 1382 
Q 3494 1248 3820 1062 
Q 4147 877 4435 704 
L 4096 262 
z
M 5261 2016 
Q 5376 2016 5507 2022 
Q 5638 2029 5760 2038 
Q 5882 2048 5978 2061 
Q 6074 2074 6118 2086 
L 6118 1555 
Q 6067 1562 5977 1568 
Q 5888 1574 5773 1580 
Q 5658 1587 5526 1590 
Q 5395 1594 5261 1594 
L 5261 -83 
Q 5261 -230 5232 -326 
Q 5203 -422 5100 -496 
Q 4998 -570 4800 -624 
Q 4602 -678 4262 -736 
Q 4230 -531 4179 -406 
Q 4128 -282 4000 -128 
Q 4256 -154 4413 -154 
Q 4570 -154 4650 -125 
Q 4730 -96 4755 -32 
Q 4781 32 4781 128 
L 4781 1600 
L 3770 1600 
Q 3578 1600 3392 1593 
Q 3206 1587 3049 1580 
Q 2893 1574 2768 1561 
Q 2643 1549 2573 1542 
L 2573 2086 
Q 2643 2067 2768 2054 
Q 2893 2042 3049 2032 
Q 3206 2022 3392 2016 
Q 3578 2010 3770 2010 
L 4781 2010 
Q 4781 2131 4777 2217 
Q 4774 2304 4768 2371 
Q 4762 2438 4752 2492 
Q 4742 2547 4730 2611 
Q 4883 2586 4992 2579 
Q 5101 2573 5242 2586 
Q 5434 2605 5306 2483 
Q 5261 2438 5261 2246 
L 5261 2016 
z
M 4006 3949 
Q 3642 3949 3293 3933 
Q 2944 3917 2707 3891 
L 2707 4429 
Q 2950 4403 3267 4387 
Q 3584 4371 4006 4371 
Q 4006 4762 4000 4934 
Q 3994 5107 3981 5197 
Q 4122 5178 4256 5168 
Q 4390 5158 4557 5158 
Q 4634 5158 4643 5139 
Q 4653 5120 4582 5056 
Q 4550 5024 4524 4963 
Q 4499 4902 4499 4832 
L 4499 4371 
Q 4928 4371 5261 4387 
Q 5594 4403 5837 4429 
L 5837 3891 
Q 5594 3917 5264 3933 
Q 4934 3949 4499 3949 
L 4499 3149 
Q 4762 3149 4973 3152 
Q 5184 3155 5363 3161 
Q 5542 3168 5692 3181 
Q 5843 3194 5990 3206 
L 5990 2669 
Q 5837 2682 5667 2694 
Q 5498 2707 5296 2713 
Q 5094 2720 4854 2723 
Q 4614 2726 4320 2726 
Q 4026 2726 3782 2723 
Q 3539 2720 3337 2713 
Q 3136 2707 2963 2694 
Q 2790 2682 2637 2669 
L 2637 3206 
Q 2918 3181 3235 3165 
Q 3552 3149 4006 3149 
L 4006 3949 
z
M 1920 2694 
L 1920 4173 
L 1050 4173 
L 1050 2694 
L 1920 2694 
z
M 1050 390 
L 1050 -282 
L 518 -282 
Q 544 -64 553 144 
Q 563 352 563 582 
L 563 4006 
Q 563 4173 560 4339 
Q 557 4506 544 4634 
Q 608 4621 675 4614 
Q 742 4608 844 4601 
Q 947 4595 1097 4595 
Q 1248 4595 1485 4595 
Q 1722 4595 1872 4595 
Q 2022 4595 2121 4601 
Q 2221 4608 2288 4614 
Q 2355 4621 2419 4634 
Q 2406 4506 2403 4339 
Q 2400 4173 2400 4006 
L 2400 723 
Q 2400 288 2438 -141 
L 1920 -141 
L 1920 390 
L 1050 390 
z
M 1920 826 
L 1920 2259 
L 1050 2259 
L 1050 826 
L 1920 826 
z
" transform="scale(0.015625)"/>
       <path id="STHeitiTC-Medium-1cd" d="M 2970 2637 
Q 2669 2656 2374 2656 
L 1274 2656 
L 1274 589 
Q 1274 410 1277 256 
Q 1280 102 1286 -48 
Q 1293 -198 1302 -345 
Q 1312 -493 1325 -659 
L 755 -659 
Q 768 -486 777 -339 
Q 787 -192 793 -45 
Q 800 102 803 256 
Q 806 410 806 589 
L 806 4198 
Q 806 4365 803 4505 
Q 800 4646 794 4762 
Q 1088 4742 1389 4742 
L 2374 4742 
Q 2669 4742 2970 4762 
Q 2931 4531 2931 4198 
L 2931 3213 
Q 2931 3046 2940 2896 
Q 2950 2746 2970 2637 
z
M 5645 4749 
Q 5638 4634 5635 4493 
Q 5632 4352 5632 4192 
L 5632 32 
Q 5632 -147 5603 -268 
Q 5574 -390 5484 -470 
Q 5395 -550 5222 -608 
Q 5050 -666 4762 -717 
Q 4774 -557 4745 -435 
Q 4717 -314 4646 -147 
Q 4819 -147 4915 -134 
Q 5011 -122 5062 -93 
Q 5114 -64 5126 -13 
Q 5139 38 5139 122 
L 5139 2624 
L 4019 2624 
Q 3725 2624 3450 2605 
Q 3462 2720 3468 2861 
Q 3475 3002 3475 3168 
L 3475 4192 
Q 3475 4358 3468 4496 
Q 3462 4634 3450 4749 
Q 3725 4730 4019 4730 
L 5075 4730 
Q 5363 4730 5645 4749 
z
M 4403 134 
Q 4307 141 4208 147 
Q 4109 154 3974 157 
Q 3840 160 3654 160 
Q 3469 160 3194 160 
Q 2918 160 2729 160 
Q 2541 160 2406 157 
Q 2272 154 2176 147 
Q 2080 141 1984 134 
Q 1997 186 2006 294 
Q 2016 403 2016 506 
L 2016 1843 
Q 2016 1952 2006 2061 
Q 1997 2170 1984 2214 
Q 2080 2208 2176 2201 
Q 2272 2195 2406 2192 
Q 2541 2189 2729 2189 
Q 2918 2189 3194 2189 
Q 3469 2189 3654 2189 
Q 3840 2189 3974 2192 
Q 4109 2195 4208 2201 
Q 4307 2208 4403 2214 
Q 4390 2170 4377 2061 
Q 4365 1952 4365 1843 
L 4365 506 
Q 4365 403 4374 294 
Q 4384 186 4403 134 
z
M 2483 4339 
L 1274 4339 
L 1274 3904 
L 2483 3904 
L 2483 4339 
z
M 5139 4326 
L 3923 4326 
L 3923 3872 
L 5139 3872 
L 5139 4326 
z
M 2483 3520 
L 1274 3520 
L 1274 3085 
L 2483 3085 
L 2483 3520 
z
M 5139 3501 
L 3923 3501 
L 3923 3046 
L 5139 3046 
L 5139 3501 
z
M 3904 1773 
L 2445 1773 
L 2445 1370 
L 3904 1370 
L 3904 1773 
z
M 3904 998 
L 2445 998 
L 2445 557 
L 3904 557 
L 3904 998 
z
" transform="scale(0.015625)"/>
       <path id="STHeitiTC-Medium-3" transform="scale(0.015625)"/>
       <path id="Cmmi10-30" d="M 397 519 
Q 397 613 416 697 
L 878 2534 
L 206 2534 
Q 141 2534 141 2619 
Q 166 2759 225 2759 
L 934 2759 
L 1191 3803 
Q 1216 3888 1291 3947 
Q 1366 4006 1459 4006 
Q 1541 4006 1595 3957 
Q 1650 3909 1650 3828 
Q 1650 3809 1648 3798 
Q 1647 3788 1644 3775 
L 1388 2759 
L 2047 2759 
Q 2113 2759 2113 2675 
Q 2109 2659 2100 2621 
Q 2091 2584 2075 2559 
Q 2059 2534 2028 2534 
L 1331 2534 
L 872 684 
Q 825 503 825 372 
Q 825 97 1013 97 
Q 1294 97 1511 361 
Q 1728 625 1844 941 
Q 1869 978 1894 978 
L 1972 978 
Q 1997 978 2012 961 
Q 2028 944 2028 922 
Q 2028 909 2022 903 
Q 1881 516 1612 222 
Q 1344 -72 997 -72 
Q 744 -72 570 93 
Q 397 259 397 519 
z
" transform="scale(0.015625)"/>
       <path id="STHeitiTC-Medium-a" d="M 2048 5779 
Q 1709 5082 1526 4237 
Q 1344 3392 1344 2541 
Q 1344 877 1888 -442 
L 1312 -442 
Q 787 819 787 2483 
Q 787 4275 1440 5779 
L 2048 5779 
z
" transform="scale(0.015625)"/>
       <path id="STHeitiTC-Medium-55" d="M 2259 3462 
L 1920 3110 
Q 1542 3462 1229 3462 
Q 1030 3462 896 3337 
Q 762 3213 762 3030 
Q 762 2848 912 2710 
Q 1062 2573 1446 2371 
Q 1830 2170 2038 1926 
Q 2246 1683 2246 1331 
Q 2246 883 1936 576 
Q 1626 269 1171 269 
Q 538 269 115 806 
L 448 1178 
Q 794 774 1152 774 
Q 1395 774 1568 934 
Q 1741 1094 1741 1308 
Q 1741 1523 1584 1667 
Q 1427 1811 1046 2003 
Q 666 2195 470 2428 
Q 275 2662 275 3043 
Q 275 3424 553 3693 
Q 832 3962 1289 3962 
Q 1747 3962 2259 3462 
z
" transform="scale(0.015625)"/>
       <path id="STHeitiTC-Medium-b" d="M 922 5779 
Q 1574 4275 1574 2483 
Q 1574 819 1050 -442 
L 474 -442 
Q 1018 877 1018 2541 
Q 1018 3392 835 4237 
Q 653 5082 314 5779 
L 922 5779 
z
" transform="scale(0.015625)"/>
      </defs>
      <use xlink:href="#STHeitiTC-Medium-132" transform="translate(0 0.703125)"/>
      <use xlink:href="#STHeitiTC-Medium-1cd" transform="translate(99.999908 0.703125)"/>
      <use xlink:href="#STHeitiTC-Medium-3" transform="translate(199.999817 0.703125)"/>
      <use xlink:href="#Cmmi10-30" transform="translate(224.999786 0.703125)"/>
      <use xlink:href="#STHeitiTC-Medium-3" transform="translate(261.083771 0.703125)"/>
      <use xlink:href="#STHeitiTC-Medium-a" transform="translate(286.08374 0.703125)"/>
      <use xlink:href="#STHeitiTC-Medium-55" transform="translate(322.983704 0.703125)"/>
      <use xlink:href="#STHeitiTC-Medium-b" transform="translate(361.783661 0.703125)"/>
     </g>
    </g>
   </g>
   <g id="matplotlib.axis_2">
    <g id="ytick_1">
     <g id="line2d_13">
      <path d="M 37.44875 218.68 
L 315.10875 218.68 
" clip-path="url(#p97aaa3d153)" style="fill: none; stroke: #d8dde3; stroke-width: 0.9; stroke-linecap: square"/>
     </g>
     <g id="line2d_14">
      <defs>
       <path id="m5bae5eb4d1" d="M 0 0 
L -3.5 0 
" style="stroke: #222831; stroke-width: 0.8"/>
      </defs>
      <g>
       <use xlink:href="#m5bae5eb4d1" x="37.44875" y="218.68" style="fill: #222831; stroke: #222831; stroke-width: 0.8"/>
      </g>
     </g>
     <g id="text_8">
      <!-- 0 -->
      <g style="fill: #222831" transform="translate(23.8 223.84) scale(0.12 -0.12)">
       <use xlink:href="#STHeitiTC-Medium-12"/>
      </g>
     </g>
    </g>
    <g id="ytick_2">
     <g id="line2d_15">
      <path d="M 37.44875 186.44 
L 315.10875 186.44 
" clip-path="url(#p97aaa3d153)" style="fill: none; stroke: #d8dde3; stroke-width: 0.9; stroke-linecap: square"/>
     </g>
     <g id="line2d_16">
      <g>
       <use xlink:href="#m5bae5eb4d1" x="37.44875" y="186.44" style="fill: #222831; stroke: #222831; stroke-width: 0.8"/>
      </g>
     </g>
     <g id="text_9">
      <!-- 1 -->
      <g style="fill: #222831" transform="translate(23.8 191.6) scale(0.12 -0.12)">
       <use xlink:href="#STHeitiTC-Medium-13"/>
      </g>
     </g>
    </g>
    <g id="ytick_3">
     <g id="line2d_17">
      <path d="M 37.44875 154.2 
L 315.10875 154.2 
" clip-path="url(#p97aaa3d153)" style="fill: none; stroke: #d8dde3; stroke-width: 0.9; stroke-linecap: square"/>
     </g>
     <g id="line2d_18">
      <g>
       <use xlink:href="#m5bae5eb4d1" x="37.44875" y="154.2" style="fill: #222831; stroke: #222831; stroke-width: 0.8"/>
      </g>
     </g>
     <g id="text_10">
      <!-- 2 -->
      <g style="fill: #222831" transform="translate(23.8 159.36) scale(0.12 -0.12)">
       <use xlink:href="#STHeitiTC-Medium-14"/>
      </g>
     </g>
    </g>
    <g id="ytick_4">
     <g id="line2d_19">
      <path d="M 37.44875 121.96 
L 315.10875 121.96 
" clip-path="url(#p97aaa3d153)" style="fill: none; stroke: #d8dde3; stroke-width: 0.9; stroke-linecap: square"/>
     </g>
     <g id="line2d_20">
      <g>
       <use xlink:href="#m5bae5eb4d1" x="37.44875" y="121.96" style="fill: #222831; stroke: #222831; stroke-width: 0.8"/>
      </g>
     </g>
     <g id="text_11">
      <!-- 3 -->
      <g style="fill: #222831" transform="translate(23.8 127.12) scale(0.12 -0.12)">
       <use xlink:href="#STHeitiTC-Medium-15"/>
      </g>
     </g>
    </g>
    <g id="ytick_5">
     <g id="line2d_21">
      <path d="M 37.44875 89.72 
L 315.10875 89.72 
" clip-path="url(#p97aaa3d153)" style="fill: none; stroke: #d8dde3; stroke-width: 0.9; stroke-linecap: square"/>
     </g>
     <g id="line2d_22">
      <g>
       <use xlink:href="#m5bae5eb4d1" x="37.44875" y="89.72" style="fill: #222831; stroke: #222831; stroke-width: 0.8"/>
      </g>
     </g>
     <g id="text_12">
      <!-- 4 -->
      <g style="fill: #222831" transform="translate(23.8 94.88) scale(0.12 -0.12)">
       <use xlink:href="#STHeitiTC-Medium-16"/>
      </g>
     </g>
    </g>
    <g id="ytick_6">
     <g id="line2d_23">
      <path d="M 37.44875 57.48 
L 315.10875 57.48 
" clip-path="url(#p97aaa3d153)" style="fill: none; stroke: #d8dde3; stroke-width: 0.9; stroke-linecap: square"/>
     </g>
     <g id="line2d_24">
      <g>
       <use xlink:href="#m5bae5eb4d1" x="37.44875" y="57.48" style="fill: #222831; stroke: #222831; stroke-width: 0.8"/>
      </g>
     </g>
     <g id="text_13">
      <!-- 5 -->
      <g style="fill: #222831" transform="translate(23.8 62.64) scale(0.12 -0.12)">
       <use xlink:href="#STHeitiTC-Medium-17"/>
      </g>
     </g>
    </g>
    <g id="ytick_7">
     <g id="line2d_25">
      <path d="M 37.44875 25.24 
L 315.10875 25.24 
" clip-path="url(#p97aaa3d153)" style="fill: none; stroke: #d8dde3; stroke-width: 0.9; stroke-linecap: square"/>
     </g>
     <g id="line2d_26">
      <g>
       <use xlink:href="#m5bae5eb4d1" x="37.44875" y="25.24" style="fill: #222831; stroke: #222831; stroke-width: 0.8"/>
      </g>
     </g>
     <g id="text_14">
      <!-- 6 -->
      <g style="fill: #222831" transform="translate(23.8 30.4) scale(0.12 -0.12)">
       <defs>
        <path id="STHeitiTC-Medium-18" d="M 1594 3098 
Q 1798 3155 1984 3155 
Q 2515 3155 2912 2732 
Q 3309 2310 3309 1708 
Q 3309 1107 2880 688 
Q 2451 269 1830 269 
Q 1210 269 797 691 
Q 384 1114 384 1722 
Q 384 2016 499 2326 
Q 614 2637 915 3085 
L 2336 5203 
L 2797 4915 
L 1594 3098 
z
M 1843 806 
Q 2221 806 2493 1075 
Q 2765 1344 2765 1728 
Q 2765 2112 2496 2381 
Q 2227 2650 1843 2650 
Q 1459 2650 1190 2381 
Q 922 2112 922 1728 
Q 922 1344 1194 1075 
Q 1466 806 1843 806 
z
" transform="scale(0.015625)"/>
       </defs>
       <use xlink:href="#STHeitiTC-Medium-18"/>
      </g>
     </g>
    </g>
    <g id="text_15">
     <!-- 位置 $x$ (m) -->
     <g style="fill: #222831" transform="translate(18.12 150.46) rotate(-90) scale(0.12 -0.12)">
      <defs>
       <path id="STHeitiTC-Medium-29e" d="M 3155 742 
Q 3066 1210 2931 1741 
Q 2797 2272 2611 2803 
L 3174 2950 
Q 3334 2445 3484 1913 
Q 3635 1382 3757 890 
L 3155 742 
z
M 6029 3450 
Q 5907 3469 5756 3481 
Q 5606 3494 5392 3504 
Q 5178 3514 4883 3517 
Q 4589 3520 4186 3520 
Q 3776 3520 3481 3517 
Q 3187 3514 2976 3504 
Q 2765 3494 2614 3481 
Q 2464 3469 2349 3450 
L 2349 4051 
Q 2470 4038 2620 4025 
Q 2771 4013 2982 4006 
Q 3194 4000 3488 3997 
Q 3782 3994 4186 3994 
Q 4589 3994 4883 3997 
Q 5178 4000 5392 4006 
Q 5606 4013 5756 4025 
Q 5907 4038 6029 4051 
L 6029 3450 
z
M 3942 4102 
Q 3878 4320 3779 4541 
Q 3680 4762 3552 4966 
L 4173 5197 
Q 4250 5024 4365 4797 
Q 4480 4570 4595 4352 
L 3942 4102 
z
M 1152 2643 
Q 922 2246 627 1888 
Q 557 2035 461 2172 
Q 365 2310 237 2406 
Q 358 2515 496 2672 
Q 634 2829 768 3024 
Q 902 3219 1027 3446 
Q 1152 3674 1248 3923 
Q 1363 4230 1459 4556 
Q 1555 4883 1606 5139 
Q 1760 5069 1939 5008 
Q 2118 4947 2246 4922 
Q 2349 4902 2352 4857 
Q 2355 4813 2253 4755 
Q 2234 4742 2195 4688 
Q 2157 4634 2096 4515 
Q 2035 4397 1939 4195 
Q 1843 3994 1702 3693 
L 1702 -685 
L 1082 -685 
Q 1107 -410 1129 -32 
Q 1152 346 1152 691 
L 1152 2643 
z
M 4109 230 
Q 4211 608 4307 995 
Q 4403 1382 4480 1753 
Q 4557 2125 4617 2461 
Q 4678 2797 4717 3066 
Q 4794 3040 4899 3011 
Q 5005 2982 5104 2960 
Q 5203 2938 5289 2922 
Q 5376 2906 5421 2906 
Q 5485 2906 5488 2877 
Q 5491 2848 5434 2803 
Q 5408 2784 5382 2739 
Q 5357 2694 5318 2595 
Q 5280 2496 5225 2323 
Q 5171 2150 5094 1872 
Q 5018 1594 4912 1190 
Q 4806 787 4666 230 
Q 4954 230 5178 233 
Q 5402 237 5578 243 
Q 5754 250 5894 262 
Q 6035 275 6163 288 
L 6163 -346 
Q 6029 -333 5869 -320 
Q 5709 -307 5475 -297 
Q 5242 -288 4909 -281 
Q 4576 -275 4090 -275 
Q 3610 -275 3280 -278 
Q 2950 -282 2720 -291 
Q 2490 -301 2333 -313 
Q 2176 -326 2042 -346 
L 2042 288 
Q 2176 275 2317 262 
Q 2458 250 2640 243 
Q 2822 237 3052 233 
Q 3283 230 3590 230 
L 4109 230 
z
" transform="scale(0.015625)"/>
       <path id="STHeitiTC-Medium-65d" d="M 2336 4448 
L 1427 4448 
L 1427 3974 
L 2336 3974 
L 2336 4448 
z
M 3744 4448 
L 2765 4448 
L 2765 3974 
L 3744 3974 
L 3744 4448 
z
M 5120 4448 
L 4173 4448 
L 4173 3974 
L 5120 3974 
L 5120 4448 
z
M 1363 1837 
Q 1363 2086 1356 2262 
Q 1350 2438 1338 2566 
Q 1408 2560 1565 2553 
Q 1722 2547 1936 2544 
Q 2150 2541 2403 2541 
Q 2656 2541 2925 2541 
L 2963 2874 
Q 2189 2874 1568 2861 
Q 947 2848 512 2816 
L 512 3270 
Q 954 3245 1581 3229 
Q 2208 3213 3002 3206 
L 3040 3622 
Q 2445 3616 1913 3606 
Q 1382 3597 902 3571 
Q 915 3731 921 3910 
Q 928 4090 928 4259 
Q 928 4429 921 4585 
Q 915 4742 902 4870 
Q 1427 4845 2022 4832 
Q 2618 4819 3283 4819 
Q 3949 4819 4544 4832 
Q 5139 4845 5670 4870 
Q 5651 4749 5641 4576 
Q 5632 4403 5632 4220 
Q 5632 4038 5641 3865 
Q 5651 3693 5670 3571 
Q 5184 3597 4643 3609 
Q 4102 3622 3501 3622 
L 3462 3206 
Q 4250 3213 4877 3229 
Q 5504 3245 5939 3270 
L 5939 2816 
Q 5498 2842 4864 2858 
Q 4230 2874 3430 2874 
L 3392 2541 
Q 3680 2541 3961 2541 
Q 4243 2541 4476 2544 
Q 4710 2547 4886 2553 
Q 5062 2560 5139 2566 
Q 5120 2458 5113 2272 
Q 5107 2086 5107 1837 
L 5107 -38 
Q 5350 -32 5574 -19 
Q 5798 -6 6042 13 
L 6042 -486 
Q 5875 -474 5692 -464 
Q 5510 -454 5206 -448 
Q 4902 -442 4425 -438 
Q 3949 -435 3200 -435 
Q 2445 -435 1968 -438 
Q 1491 -442 1187 -448 
Q 883 -454 700 -464 
Q 518 -474 352 -486 
L 352 13 
Q 621 -13 857 -22 
Q 1094 -32 1363 -38 
L 1363 1837 
z
M 4621 2182 
L 1850 2182 
L 1850 1869 
L 4621 1869 
L 4621 2182 
z
M 4621 1562 
L 1850 1562 
L 1850 1248 
L 4621 1248 
L 4621 1562 
z
M 4621 934 
L 1850 934 
L 1850 621 
L 4621 621 
L 4621 934 
z
M 1850 -38 
L 4621 -38 
L 4621 307 
L 1850 307 
L 1850 -38 
z
" transform="scale(0.015625)"/>
       <path id="Cmmi10-3f" d="M 500 184 
Q 613 97 819 97 
Q 1019 97 1172 289 
Q 1325 481 1381 709 
L 1672 1844 
Q 1741 2153 1741 2266 
Q 1741 2425 1652 2544 
Q 1563 2663 1403 2663 
Q 1200 2663 1022 2536 
Q 844 2409 722 2214 
Q 600 2019 550 1819 
Q 538 1778 500 1778 
L 422 1778 
Q 372 1778 372 1838 
L 372 1856 
Q 434 2094 584 2320 
Q 734 2547 951 2687 
Q 1169 2828 1416 2828 
Q 1650 2828 1839 2703 
Q 2028 2578 2106 2363 
Q 2216 2559 2386 2693 
Q 2556 2828 2759 2828 
Q 2897 2828 3040 2779 
Q 3184 2731 3275 2631 
Q 3366 2531 3366 2381 
Q 3366 2219 3261 2101 
Q 3156 1984 2994 1984 
Q 2891 1984 2822 2050 
Q 2753 2116 2753 2216 
Q 2753 2350 2845 2451 
Q 2938 2553 3066 2572 
Q 2950 2663 2747 2663 
Q 2541 2663 2389 2472 
Q 2238 2281 2175 2047 
L 1894 916 
Q 1825 659 1825 494 
Q 1825 331 1917 214 
Q 2009 97 2163 97 
Q 2463 97 2698 361 
Q 2934 625 3009 941 
Q 3022 978 3059 978 
L 3138 978 
Q 3163 978 3178 961 
Q 3194 944 3194 922 
Q 3194 916 3188 903 
Q 3097 522 2806 225 
Q 2516 -72 2150 -72 
Q 1916 -72 1727 54 
Q 1538 181 1459 397 
Q 1359 209 1182 68 
Q 1006 -72 806 -72 
Q 669 -72 523 -23 
Q 378 25 287 125 
Q 197 225 197 378 
Q 197 528 301 651 
Q 406 775 563 775 
Q 669 775 741 711 
Q 813 647 813 544 
Q 813 409 723 309 
Q 634 209 500 184 
z
" transform="scale(0.015625)"/>
       <path id="STHeitiTC-Medium-4f" d="M 5613 384 
L 5075 384 
L 5075 2285 
Q 5075 2739 5020 2950 
Q 4966 3162 4784 3306 
Q 4602 3450 4304 3450 
Q 4006 3450 3744 3258 
Q 3482 3066 3379 2736 
Q 3277 2406 3277 1760 
L 3277 384 
L 2758 384 
L 2758 2170 
Q 2758 2694 2704 2924 
Q 2650 3155 2464 3302 
Q 2278 3450 1996 3450 
Q 1715 3450 1462 3274 
Q 1210 3098 1088 2813 
Q 966 2528 966 1869 
L 966 384 
L 442 384 
L 442 3872 
L 966 3872 
L 966 3379 
Q 1414 3962 2086 3962 
Q 2451 3962 2748 3766 
Q 3046 3571 3174 3213 
Q 3392 3578 3718 3770 
Q 4045 3962 4410 3962 
Q 4909 3962 5261 3610 
Q 5613 3258 5613 2285 
L 5613 384 
z
" transform="scale(0.015625)"/>
      </defs>
      <use xlink:href="#STHeitiTC-Medium-29e" transform="translate(0 0.703125)"/>
      <use xlink:href="#STHeitiTC-Medium-65d" transform="translate(99.999908 0.703125)"/>
      <use xlink:href="#STHeitiTC-Medium-3" transform="translate(199.999817 0.703125)"/>
      <use xlink:href="#Cmmi10-3f" transform="translate(224.999786 0.703125)"/>
      <use xlink:href="#STHeitiTC-Medium-3" transform="translate(282.079865 0.703125)"/>
      <use xlink:href="#STHeitiTC-Medium-a" transform="translate(307.079834 0.703125)"/>
      <use xlink:href="#STHeitiTC-Medium-4f" transform="translate(343.979797 0.703125)"/>
      <use xlink:href="#STHeitiTC-Medium-b" transform="translate(437.779709 0.703125)"/>
     </g>
    </g>
   </g>
   <g id="line2d_27">
    <path d="M 37.44875 218.68 
L 40.253396 216.726061 
L 43.058043 214.772121 
L 45.862689 212.818182 
L 48.667336 210.864242 
L 51.471982 208.910303 
L 54.276629 206.956364 
L 57.081275 205.002424 
L 59.885922 203.048485 
L 62.690568 201.094545 
L 65.495215 199.140606 
L 68.299861 197.186667 
L 71.104508 195.232727 
L 73.909154 193.278788 
L 76.713801 191.324848 
L 79.518447 189.370909 
L 82.323093 187.41697 
L 85.12774 185.46303 
L 87.932386 183.509091 
L 90.737033 181.555152 
L 93.541679 179.601212 
L 96.346326 177.647273 
L 99.150972 175.693333 
L 101.955619 173.739394 
L 104.760265 171.785455 
L 107.564912 169.831515 
L 110.369558 167.877576 
L 113.174205 165.923636 
L 115.978851 163.969697 
L 118.783497 162.015758 
L 121.588144 160.061818 
L 124.39279 158.107879 
L 127.197437 156.153939 
L 130.002083 154.2 
L 132.80673 152.246061 
L 135.611376 150.292121 
L 138.416023 148.338182 
L 141.220669 146.384242 
L 144.025316 144.430303 
L 146.829962 142.476364 
L 149.634609 140.522424 
L 152.439255 138.568485 
L 155.243902 136.614545 
L 158.048548 134.660606 
L 160.853194 132.706667 
L 163.657841 130.752727 
L 166.462487 128.798788 
L 169.267134 126.844848 
L 172.07178 124.890909 
L 174.876427 122.93697 
L 177.681073 120.98303 
L 180.48572 119.029091 
L 183.290366 117.075152 
L 186.095013 115.121212 
L 188.899659 113.167273 
L 191.704306 111.213333 
L 194.508952 109.259394 
L 197.313598 107.305455 
L 200.118245 105.351515 
L 202.922891 103.397576 
L 205.727538 101.443636 
L 208.532184 99.489697 
L 211.336831 97.535758 
L 214.141477 95.581818 
L 216.946124 93.627879 
L 219.75077 91.673939 
L 222.555417 89.72 
L 225.360063 87.766061 
L 228.16471 85.812121 
L 230.969356 83.858182 
L 233.774003 81.904242 
L 236.578649 79.950303 
L 239.383295 77.996364 
L 242.187942 76.042424 
L 244.992588 74.088485 
L 247.797235 72.134545 
L 250.601881 70.180606 
L 253.406528 68.226667 
L 256.211174 66.272727 
L 259.015821 64.318788 
L 261.820467 62.364848 
L 264.625114 60.410909 
L 267.42976 58.45697 
L 270.234407 56.50303 
L 273.039053 54.549091 
L 275.843699 52.595152 
L 278.648346 50.641212 
L 281.452992 48.687273 
L 284.257639 46.733333 
L 287.062285 44.779394 
L 289.866932 42.825455 
L 292.671578 40.871515 
L 295.476225 38.917576 
L 298.280871 36.963636 
L 301.085518 35.009697 
L 303.890164 33.055758 
L 306.694811 31.101818 
L 309.499457 29.147879 
L 312.304104 27.193939 
L 315.10875 25.24 
" clip-path="url(#p97aaa3d153)" style="fill: none; stroke: #1f6feb; stroke-width: 2.6; stroke-linecap: square"/>
   </g>
   <g id="line2d_28">
    <path d="M 148.51275 141.304 
L 259.57675 141.304 
L 259.57675 63.928 
" clip-path="url(#p97aaa3d153)" style="fill: none; stroke-dasharray: 4.44,1.92; stroke-dashoffset: 0; stroke: #222831; stroke-width: 1.2"/>
   </g>
   <g id="patch_3">
    <path d="M 37.44875 218.68 
L 37.44875 25.24 
" style="fill: none; stroke: #222831; stroke-width: 1.1; stroke-linejoin: miter; stroke-linecap: square"/>
   </g>
   <g id="patch_4">
    <path d="M 37.44875 218.68 
L 315.10875 218.68 
" style="fill: none; stroke: #222831; stroke-width: 1.1; stroke-linejoin: miter; stroke-linecap: square"/>
   </g>
   <g id="text_16">
    <!-- $\Delta t$ -->
    <g style="fill: #222831" transform="translate(196.84475 154.2) scale(0.12 -0.12)">
     <defs>
      <path id="Cmr10-6" d="M 347 0 
Q 294 0 294 50 
Q 297 56 298 59 
Q 300 63 300 72 
L 2503 4513 
Q 2531 4581 2619 4581 
L 2706 4581 
Q 2794 4581 2822 4513 
L 5025 72 
Q 5028 66 5029 61 
Q 5031 56 5031 50 
Q 5031 0 4978 0 
L 347 0 
z
M 769 513 
L 4141 513 
L 2456 3909 
L 769 513 
z
" transform="scale(0.015625)"/>
     </defs>
     <use xlink:href="#Cmr10-6" transform="translate(0 0.421875)"/>
     <use xlink:href="#Cmmi10-30" transform="translate(83.300781 0.421875)"/>
    </g>
   </g>
   <g id="text_17">
    <!-- $\Delta x$ -->
    <g style="fill: #222831" transform="translate(269.57251 106.936) scale(0.12 -0.12)">
     <use xlink:href="#Cmr10-6" transform="translate(0 0.421875)"/>
     <use xlink:href="#Cmmi10-3f" transform="translate(83.300781 0.421875)"/>
    </g>
   </g>
   <g id="text_18">
    <!-- 斜率 = 速度 -->
    <g style="fill: #1f6feb" transform="translate(120.74675 76.824) scale(0.12 -0.12)">
     <defs>
      <path id="STHeitiTC-Medium-102d" d="M 4851 1043 
Q 4403 986 4028 928 
Q 3654 870 3430 826 
Q 3437 954 3411 1088 
Q 3386 1222 3347 1318 
Q 3450 1325 3613 1341 
Q 3776 1357 3974 1379 
Q 4173 1402 4397 1427 
Q 4621 1453 4851 1478 
L 4851 3718 
Q 4851 4198 4844 4515 
Q 4838 4832 4826 4960 
Q 4960 4928 5117 4915 
Q 5274 4902 5421 4902 
Q 5504 4902 5510 4867 
Q 5517 4832 5446 4787 
Q 5395 4755 5369 4694 
Q 5344 4634 5344 4518 
L 5344 1536 
Q 5568 1568 5728 1593 
Q 5888 1619 6093 1670 
Q 6074 1549 6077 1405 
Q 6080 1261 6106 1146 
Q 5926 1139 5731 1129 
Q 5536 1120 5344 1101 
Q 5344 627 5363 153 
Q 5382 -320 5414 -742 
L 4794 -742 
Q 4826 -339 4838 93 
Q 4851 525 4851 1043 
z
M 2266 4608 
Q 2541 4442 2854 4250 
Q 3168 4058 3456 3853 
L 3085 3430 
Q 2842 3654 2570 3878 
Q 2298 4102 2022 4301 
Q 1818 4038 1616 3795 
Q 1414 3552 1229 3341 
Q 1389 3322 1603 3312 
Q 1818 3302 2061 3302 
Q 2374 3302 2588 3315 
Q 2803 3328 2976 3354 
L 2976 2842 
Q 2848 2867 2675 2880 
Q 2502 2893 2240 2899 
L 2240 2176 
Q 2880 2189 3226 2234 
L 3226 1690 
Q 3059 1715 2809 1731 
Q 2560 1747 2240 1754 
L 2240 134 
Q 2240 -70 2224 -188 
Q 2208 -307 2121 -380 
Q 2035 -454 1859 -502 
Q 1683 -550 1363 -608 
Q 1344 -461 1283 -294 
Q 1222 -128 1133 19 
Q 1357 -19 1481 -28 
Q 1606 -38 1670 0 
Q 1734 38 1747 131 
Q 1760 224 1760 397 
L 1760 1754 
Q 1376 1747 1085 1731 
Q 794 1715 602 1690 
L 602 2234 
Q 794 2214 1091 2198 
Q 1389 2182 1760 2176 
L 1760 2893 
Q 1370 2880 1146 2842 
L 1146 3238 
Q 1018 3098 902 2973 
Q 787 2848 685 2739 
Q 589 2880 502 2969 
Q 416 3059 288 3149 
Q 550 3322 790 3558 
Q 1030 3795 1232 4057 
Q 1434 4320 1584 4598 
Q 1734 4877 1818 5133 
Q 1984 5037 2128 4973 
Q 2272 4909 2470 4858 
Q 2522 4845 2525 4809 
Q 2528 4774 2464 4749 
Q 2374 4717 2266 4608 
z
M 1408 1171 
Q 1376 1152 1312 1043 
Q 1248 934 1216 838 
Q 1056 403 870 19 
Q 627 115 371 134 
Q 550 403 672 739 
Q 794 1075 845 1421 
Q 1030 1350 1152 1324 
Q 1274 1299 1357 1293 
Q 1568 1286 1408 1171 
z
M 2944 179 
Q 2854 461 2726 710 
Q 2598 960 2470 1146 
L 2886 1382 
Q 3021 1165 3149 934 
Q 3277 704 3424 410 
L 2944 179 
z
M 4013 1786 
Q 3885 2003 3718 2211 
Q 3552 2419 3347 2605 
L 3686 2925 
Q 3853 2765 4051 2544 
Q 4250 2323 4422 2112 
L 4013 1786 
z
M 4198 3290 
Q 4013 3578 3853 3789 
Q 3693 4000 3488 4198 
L 3853 4525 
Q 4064 4320 4240 4121 
Q 4416 3923 4621 3654 
L 4198 3290 
z
" transform="scale(0.015625)"/>
      <path id="STHeitiTC-Medium-7c0" d="M 2138 3002 
Q 2221 3117 2297 3225 
Q 2374 3334 2451 3456 
Q 2528 3578 2611 3725 
Q 2694 3872 2790 4064 
Q 2918 3981 3030 3923 
Q 3142 3866 3226 3840 
Q 3341 3808 3331 3760 
Q 3322 3712 3194 3693 
Q 3130 3680 3046 3606 
Q 2963 3533 2886 3430 
Q 2810 3328 2717 3222 
Q 2624 3117 2534 3027 
L 3322 3078 
Q 3469 3245 3597 3411 
Q 3725 3578 3808 3706 
Q 3923 3584 4044 3501 
Q 4166 3418 4256 3379 
Q 4346 3341 4336 3289 
Q 4326 3238 4198 3226 
Q 4166 3226 4086 3178 
Q 4006 3130 3900 3056 
Q 3795 2982 3680 2883 
Q 3565 2784 3462 2682 
Q 3283 2496 3062 2297 
Q 2842 2099 2611 1914 
L 3757 1971 
Q 3686 2080 3622 2179 
Q 3558 2278 3501 2349 
L 3885 2586 
Q 4032 2342 4198 2076 
Q 4365 1811 4544 1536 
L 4090 1325 
Q 4058 1395 4022 1468 
Q 3987 1542 3949 1619 
L 3405 1587 
L 3405 954 
Q 4179 954 4848 966 
Q 5517 979 5939 1011 
L 5939 454 
Q 5728 467 5453 480 
Q 5178 493 4851 499 
Q 4525 506 4157 509 
Q 3789 512 3405 512 
Q 3405 378 3411 208 
Q 3418 38 3427 -134 
Q 3437 -307 3446 -470 
Q 3456 -634 3469 -755 
L 2835 -755 
Q 2848 -634 2857 -474 
Q 2867 -314 2876 -141 
Q 2886 32 2889 205 
Q 2893 378 2893 512 
Q 2150 512 1507 496 
Q 864 480 454 454 
L 454 1011 
Q 659 998 960 988 
Q 1261 979 1597 969 
Q 1933 960 2272 957 
Q 2611 954 2899 954 
L 2899 1549 
Q 2630 1530 2400 1498 
Q 2170 1466 2016 1427 
Q 1978 1664 1862 1875 
L 2138 1888 
Q 2285 2022 2486 2217 
Q 2688 2413 2995 2726 
Q 2739 2694 2579 2672 
Q 2419 2650 2320 2634 
Q 2221 2618 2163 2605 
Q 2106 2592 2054 2573 
Q 2042 2662 2010 2787 
Q 1978 2912 1939 2989 
L 2138 3002 
z
M 3014 4557 
Q 2970 4704 2922 4835 
Q 2874 4966 2816 5088 
L 3475 5190 
Q 3488 5030 3507 4873 
Q 3526 4717 3565 4557 
Q 4256 4557 4797 4573 
Q 5338 4589 5786 4621 
L 5786 4051 
Q 5536 4070 5273 4080 
Q 5011 4090 4707 4099 
Q 4403 4109 4035 4112 
Q 3667 4115 3206 4115 
Q 2746 4115 2384 4112 
Q 2022 4109 1718 4099 
Q 1414 4090 1152 4080 
Q 890 4070 627 4051 
L 627 4621 
Q 877 4602 1123 4592 
Q 1370 4582 1651 4572 
Q 1933 4563 2265 4560 
Q 2598 4557 3014 4557 
z
M 5658 3411 
Q 5715 3379 5696 3334 
Q 5677 3290 5574 3296 
Q 5517 3302 5443 3280 
Q 5370 3258 5270 3197 
Q 5171 3136 5033 3024 
Q 4896 2912 4704 2739 
Q 4544 2938 4333 3053 
Q 4582 3219 4822 3433 
Q 5062 3648 5197 3834 
Q 5299 3699 5417 3590 
Q 5536 3482 5658 3411 
z
M 1536 2784 
Q 1350 2995 1187 3145 
Q 1024 3296 826 3443 
L 1171 3795 
Q 1363 3603 1523 3468 
Q 1683 3334 1907 3174 
L 1536 2784 
z
M 5363 1421 
Q 5158 1651 4905 1859 
Q 4653 2067 4410 2227 
L 4774 2611 
Q 4986 2426 5248 2230 
Q 5510 2035 5760 1869 
L 5363 1421 
z
M 1952 2106 
Q 1901 2080 1827 2029 
Q 1754 1978 1642 1885 
Q 1530 1792 1366 1645 
Q 1203 1498 973 1286 
Q 838 1581 653 1824 
Q 800 1882 928 1952 
Q 1056 2022 1181 2112 
Q 1306 2202 1443 2320 
Q 1581 2438 1747 2598 
Q 1766 2464 1814 2349 
Q 1862 2234 1952 2106 
z
" transform="scale(0.015625)"/>
      <path id="STHeitiTC-Medium-1f" d="M 3565 3475 
L 314 3475 
L 314 3994 
L 3565 3994 
L 3565 3475 
z
M 3565 2099 
L 314 2099 
L 314 2618 
L 3565 2618 
L 3565 2099 
z
" transform="scale(0.015625)"/>
      <path id="STHeitiTC-Medium-44d" d="M 3744 3258 
L 2893 3258 
L 2893 2534 
L 3744 2534 
L 3744 3258 
z
M 3744 2022 
Q 3616 1773 3497 1574 
Q 3379 1376 3228 1200 
Q 3078 1024 2883 845 
Q 2688 666 2413 454 
Q 2330 589 2198 704 
Q 2067 819 1894 883 
Q 2144 986 2352 1101 
Q 2560 1216 2736 1363 
Q 2912 1510 3072 1696 
Q 3232 1882 3392 2125 
Q 3219 2125 3078 2121 
Q 2938 2118 2816 2115 
Q 2694 2112 2588 2105 
Q 2483 2099 2368 2093 
Q 2394 2266 2406 2470 
Q 2419 2675 2419 2918 
Q 2419 3162 2406 3370 
Q 2394 3578 2368 3731 
Q 2522 3718 2662 3708 
Q 2803 3699 2960 3692 
Q 3117 3686 3305 3683 
Q 3494 3680 3744 3680 
L 3744 4154 
Q 3315 4154 2880 4138 
Q 2445 4122 2118 4090 
L 2118 4646 
Q 2464 4614 2867 4598 
Q 3270 4582 3744 4582 
Q 3744 4742 3731 4918 
Q 3718 5094 3699 5229 
Q 3834 5197 3997 5184 
Q 4160 5171 4262 5178 
Q 4390 5184 4412 5145 
Q 4435 5107 4326 5030 
Q 4275 4992 4249 4921 
Q 4224 4851 4224 4774 
L 4224 4582 
Q 4512 4582 4749 4585 
Q 4986 4589 5181 4595 
Q 5376 4602 5545 4611 
Q 5715 4621 5882 4634 
L 5882 4090 
Q 5555 4115 5139 4134 
Q 4723 4154 4224 4154 
L 4224 3680 
Q 4640 3680 5001 3693 
Q 5363 3706 5658 3731 
Q 5632 3565 5622 3366 
Q 5613 3168 5613 2925 
Q 5613 2682 5622 2454 
Q 5632 2227 5658 2080 
Q 5370 2099 5018 2112 
Q 4666 2125 4224 2125 
L 4224 1581 
Q 4224 1408 4227 1264 
Q 4230 1120 4236 979 
Q 4243 838 4252 694 
Q 4262 550 4275 378 
L 3699 378 
Q 3712 550 3721 684 
Q 3731 819 3734 988 
Q 3738 1158 3741 1398 
Q 3744 1638 3744 2022 
z
M 4224 2534 
L 5133 2534 
L 5133 3258 
L 4224 3258 
L 4224 2534 
z
M 1222 3776 
Q 1133 3949 1065 4080 
Q 998 4211 934 4316 
Q 870 4422 812 4512 
Q 755 4602 685 4698 
L 1126 4960 
Q 1280 4736 1417 4521 
Q 1555 4307 1702 4051 
L 1222 3776 
z
M 1523 525 
Q 1805 352 2176 233 
Q 2547 115 3078 60 
Q 3610 6 4339 19 
Q 5069 32 6067 122 
Q 5978 -45 5939 -173 
Q 5901 -301 5882 -467 
Q 4787 -499 4032 -480 
Q 3277 -461 2761 -384 
Q 2246 -307 1916 -179 
Q 1587 -51 1331 134 
Q 1242 -32 1120 -192 
Q 998 -352 806 -563 
Q 730 -467 624 -384 
Q 518 -301 333 -198 
Q 557 -19 726 166 
Q 896 352 1021 560 
Q 1146 768 1229 995 
Q 1312 1222 1363 1485 
Q 1210 1485 1107 1478 
Q 1005 1472 928 1459 
Q 851 1446 790 1424 
Q 730 1402 666 1370 
Q 659 1498 620 1651 
Q 582 1805 512 1920 
Q 640 1952 720 2019 
Q 800 2086 877 2221 
L 1171 2886 
L 890 2886 
Q 794 2886 653 2873 
Q 512 2861 422 2842 
L 422 3347 
Q 576 3334 752 3328 
Q 928 3322 1107 3322 
Q 1414 3322 1577 3331 
Q 1741 3341 1869 3360 
L 1171 1882 
L 1485 1882 
Q 1574 1882 1689 1888 
Q 1805 1894 1894 1907 
Q 1843 1632 1795 1427 
Q 1747 1222 1705 1062 
Q 1664 902 1619 774 
Q 1574 646 1523 525 
z
M 5530 634 
Q 5331 877 5046 1104 
Q 4762 1331 4352 1555 
L 4710 1920 
Q 5037 1715 5331 1513 
Q 5626 1312 5914 1107 
L 5530 634 
z
" transform="scale(0.015625)"/>
      <path id="STHeitiTC-Medium-287" d="M 2982 2458 
L 4269 2458 
L 4269 3008 
L 2982 3008 
L 2982 2458 
z
M 2522 3366 
Q 2515 3552 2505 3693 
Q 2496 3834 2464 3923 
Q 2592 3891 2758 3872 
Q 2925 3853 3040 3866 
Q 3142 3878 3059 3782 
Q 2989 3706 2982 3366 
L 4269 3366 
Q 4269 3603 4262 3737 
Q 4256 3872 4230 3981 
Q 4397 3930 4557 3917 
Q 4717 3904 4806 3917 
Q 4922 3936 4838 3846 
Q 4774 3776 4768 3366 
Q 5190 3373 5446 3385 
Q 5702 3398 5888 3418 
L 5888 2950 
Q 5702 2970 5436 2986 
Q 5171 3002 4768 3008 
L 4768 2682 
Q 4768 2483 4774 2339 
Q 4781 2195 4813 2022 
Q 4736 2035 4649 2044 
Q 4563 2054 4435 2060 
Q 4307 2067 4115 2070 
Q 3923 2074 3648 2074 
Q 3379 2074 3193 2070 
Q 3008 2067 2873 2060 
Q 2739 2054 2646 2044 
Q 2554 2035 2477 2022 
Q 2490 2106 2499 2176 
Q 2509 2246 2512 2316 
Q 2515 2387 2518 2464 
Q 2522 2541 2522 2643 
L 2522 3002 
Q 2253 2995 2080 2982 
Q 1907 2970 1773 2950 
L 1773 3418 
Q 1914 3398 2083 3385 
Q 2253 3373 2522 3366 
z
M 3661 4493 
Q 4134 4493 4483 4499 
Q 4832 4506 5081 4512 
Q 5331 4518 5497 4528 
Q 5664 4538 5779 4550 
L 5779 4026 
Q 5504 4051 5145 4067 
Q 4787 4083 4275 4083 
L 1510 4083 
Q 1555 3130 1532 2406 
Q 1510 1683 1424 1123 
Q 1338 563 1194 140 
Q 1050 -282 858 -621 
Q 730 -493 602 -393 
Q 474 -294 326 -224 
Q 544 90 701 502 
Q 858 915 938 1481 
Q 1018 2048 1018 2800 
Q 1018 3552 934 4550 
Q 1069 4538 1241 4528 
Q 1414 4518 1657 4512 
Q 1901 4506 2243 4499 
Q 2586 4493 3059 4493 
Q 3027 4634 2976 4765 
Q 2925 4896 2854 5037 
L 3437 5146 
Q 3482 5005 3539 4832 
Q 3597 4659 3661 4493 
z
M 2880 1325 
Q 3008 1082 3200 874 
Q 3392 666 3622 518 
Q 3878 685 4080 883 
Q 4282 1082 4435 1325 
L 2880 1325 
z
M 2336 1318 
Q 2214 1306 2086 1299 
Q 1958 1293 1843 1280 
L 1843 1760 
Q 2010 1747 2224 1734 
Q 2438 1722 2675 1715 
Q 2912 1709 3161 1705 
Q 3411 1702 3642 1702 
Q 4102 1702 4521 1715 
Q 4941 1728 5267 1760 
Q 5139 1510 5014 1305 
Q 4890 1101 4749 925 
Q 4608 749 4448 595 
Q 4288 442 4090 301 
Q 4525 134 4992 67 
Q 5459 0 6067 26 
Q 5952 -109 5878 -265 
Q 5805 -422 5779 -621 
Q 5178 -557 4643 -413 
Q 4109 -269 3629 0 
Q 3328 -173 2877 -342 
Q 2426 -512 1869 -646 
Q 1830 -538 1728 -390 
Q 1626 -243 1459 -90 
Q 1664 -83 1891 -48 
Q 2118 -13 2345 38 
Q 2573 90 2784 157 
Q 2995 224 3168 294 
Q 3066 371 2950 489 
Q 2835 608 2723 745 
Q 2611 883 2508 1033 
Q 2406 1184 2336 1318 
z
" transform="scale(0.015625)"/>
     </defs>
     <use xlink:href="#STHeitiTC-Medium-102d"/>
     <use xlink:href="#STHeitiTC-Medium-7c0" transform="translate(100 0)"/>
     <use xlink:href="#STHeitiTC-Medium-3" transform="translate(200 0)"/>
     <use xlink:href="#STHeitiTC-Medium-1f" transform="translate(225 0)"/>
     <use xlink:href="#STHeitiTC-Medium-3" transform="translate(285.59375 0)"/>
     <use xlink:href="#STHeitiTC-Medium-44d" transform="translate(310.59375 0)"/>
     <use xlink:href="#STHeitiTC-Medium-287" transform="translate(410.59375 0)"/>
    </g>
   </g>
   <g id="text_19">
    <!-- 位置–時間圖（x–t） -->
    <g style="fill: #222831" transform="translate(114.545312 19.24) scale(0.14 -0.14)">
     <defs>
      <path id="STHeitiTC-Medium-74" d="M 3200 2144 
L 0 2144 
L 0 2624 
L 3200 2624 
L 3200 2144 
z
" transform="scale(0.015625)"/>
      <path id="STHeitiTC-Medium-28d" d="M 2816 1107 
L 3546 1107 
L 3546 1421 
L 2816 1421 
L 2816 1107 
z
M 3174 2202 
Q 3654 2202 4073 2205 
Q 4493 2208 4736 2221 
Q 4723 2118 4723 2000 
Q 4723 1882 4723 1754 
L 4723 691 
Q 4723 538 4723 432 
Q 4723 326 4736 224 
Q 4493 237 4073 240 
Q 3654 243 3174 243 
Q 2605 243 2249 240 
Q 1894 237 1658 230 
Q 1670 326 1670 444 
Q 1670 563 1670 691 
L 1670 1754 
Q 1670 1888 1670 2003 
Q 1670 2118 1658 2214 
Q 1779 2208 1894 2205 
Q 2010 2202 2176 2202 
Q 2342 2202 2579 2202 
Q 2816 2202 3174 2202 
z
M 4256 1894 
L 2118 1894 
L 2118 557 
L 4256 557 
L 4256 1894 
z
M 3213 819 
Q 2944 819 2739 812 
Q 2534 806 2406 794 
Q 2426 947 2426 1235 
Q 2426 1370 2422 1498 
Q 2419 1626 2406 1696 
Q 2477 1690 2550 1686 
Q 2624 1683 2713 1683 
Q 2803 1683 2918 1683 
Q 3034 1683 3200 1683 
Q 3366 1683 3475 1683 
Q 3584 1683 3667 1683 
Q 3750 1683 3817 1686 
Q 3885 1690 3968 1696 
Q 3962 1626 3958 1494 
Q 3955 1363 3955 1235 
Q 3955 1088 3958 979 
Q 3962 870 3968 794 
Q 3827 806 3667 812 
Q 3507 819 3213 819 
z
M 2317 3392 
L 4096 3392 
L 4096 3750 
L 2317 3750 
L 2317 3392 
z
M 3226 3078 
Q 2746 3078 2378 3072 
Q 2010 3066 1811 3053 
Q 1824 3149 1830 3280 
Q 1837 3411 1837 3571 
Q 1837 3744 1830 3885 
Q 1824 4026 1811 4109 
Q 1946 4102 2083 4099 
Q 2221 4096 2387 4093 
Q 2554 4090 2755 4090 
Q 2957 4090 3213 4090 
Q 3475 4090 3670 4090 
Q 3866 4090 4026 4093 
Q 4186 4096 4317 4099 
Q 4448 4102 4582 4109 
Q 4570 4019 4566 3872 
Q 4563 3725 4570 3571 
Q 4570 3418 4573 3280 
Q 4576 3142 4582 3053 
Q 4358 3066 4022 3072 
Q 3686 3078 3226 3078 
z
M 3462 2720 
Q 3693 2720 3923 2723 
Q 4154 2726 4358 2732 
Q 4563 2739 4736 2745 
Q 4909 2752 5030 2758 
L 5030 2374 
Q 4883 2381 4675 2390 
Q 4467 2400 4217 2403 
Q 3968 2406 3696 2409 
Q 3424 2413 3155 2413 
Q 2464 2413 2016 2403 
Q 1568 2394 1280 2374 
L 1280 2758 
Q 1542 2739 1984 2729 
Q 2426 2720 2912 2720 
Q 2906 2810 2902 2880 
Q 2899 2950 2886 3040 
Q 2995 3014 3180 3008 
Q 3366 3002 3494 3021 
Q 3584 3034 3603 2986 
Q 3622 2938 3533 2886 
Q 3469 2854 3462 2720 
z
M 1190 -698 
L 659 -698 
Q 685 -429 697 -179 
Q 710 70 710 358 
L 710 4211 
Q 710 4403 704 4528 
Q 698 4653 678 4781 
Q 768 4768 918 4765 
Q 1069 4762 1350 4755 
Q 1632 4749 2077 4749 
Q 2522 4749 3206 4749 
Q 3891 4749 4336 4749 
Q 4781 4749 5062 4755 
Q 5344 4762 5494 4765 
Q 5645 4768 5734 4781 
Q 5715 4653 5708 4525 
Q 5702 4397 5702 4211 
L 5702 397 
Q 5702 115 5712 -137 
Q 5722 -390 5741 -659 
L 5210 -659 
L 5210 -371 
L 1190 -371 
L 1190 -698 
z
M 5210 4333 
L 1190 4333 
L 1190 0 
L 5210 0 
L 5210 4333 
z
" transform="scale(0.015625)"/>
      <path id="STHeitiTC-Medium-c86d" d="M 5651 -749 
L 5274 -749 
Q 4646 173 4409 835 
Q 4173 1498 4173 2266 
Q 4173 3034 4432 3750 
Q 4691 4467 5254 5267 
L 5645 5267 
Q 5082 4237 4928 3606 
Q 4774 2976 4774 2093 
Q 4774 1472 4953 861 
Q 5133 250 5651 -749 
z
" transform="scale(0.015625)"/>
      <path id="STHeitiTC-Medium-5a" d="M 3078 384 
L 2432 384 
L 1530 1766 
L 634 384 
L 0 384 
L 1210 2221 
L 122 3872 
L 762 3872 
L 1530 2682 
L 2291 3872 
L 2931 3872 
L 1850 2227 
L 3078 384 
z
" transform="scale(0.015625)"/>
      <path id="STHeitiTC-Medium-56" d="M 2048 3411 
L 1357 3411 
L 1357 966 
Q 1357 832 1395 803 
Q 1434 774 1587 774 
L 1894 774 
L 1894 320 
Q 1587 269 1427 269 
Q 1120 269 973 419 
Q 826 570 826 896 
L 826 3411 
L 224 3411 
L 224 3872 
L 826 3872 
L 826 5184 
L 1357 5184 
L 1357 3872 
L 2048 3872 
L 2048 3411 
z
" transform="scale(0.015625)"/>
      <path id="STHeitiTC-Medium-c86e" d="M 1120 5267 
Q 1747 4346 1984 3683 
Q 2221 3021 2221 2253 
Q 2221 1485 1961 768 
Q 1702 51 1139 -749 
L 749 -749 
Q 1312 282 1465 912 
Q 1619 1542 1619 2426 
Q 1619 3046 1440 3657 
Q 1261 4269 742 5267 
L 1120 5267 
z
" transform="scale(0.015625)"/>
     </defs>
     <use xlink:href="#STHeitiTC-Medium-29e"/>
     <use xlink:href="#STHeitiTC-Medium-65d" transform="translate(100 0)"/>
     <use xlink:href="#STHeitiTC-Medium-74" transform="translate(200 0)"/>
     <use xlink:href="#STHeitiTC-Medium-132" transform="translate(250 0)"/>
     <use xlink:href="#STHeitiTC-Medium-1cd" transform="translate(350 0)"/>
     <use xlink:href="#STHeitiTC-Medium-28d" transform="translate(450 0)"/>
     <use xlink:href="#STHeitiTC-Medium-c86d" transform="translate(550 0)"/>
     <use xlink:href="#STHeitiTC-Medium-5a" transform="translate(650 0)"/>
     <use xlink:href="#STHeitiTC-Medium-74" transform="translate(698 0)"/>
     <use xlink:href="#STHeitiTC-Medium-56" transform="translate(748 0)"/>
     <use xlink:href="#STHeitiTC-Medium-c86e" transform="translate(781.90625 0)"/>
    </g>
   </g>
  </g>
  <g id="axes_2">
   <g id="patch_5">
    <path d="M 362.16875 218.68 
L 639.82875 218.68 
L 639.82875 25.24 
L 362.16875 25.24 
z
" style="fill: #ffffff"/>
   </g>
   <g id="matplotlib.axis_3">
    <g id="xtick_7">
     <g id="line2d_29">
      <path d="M 362.16875 218.68 
L 362.16875 25.24 
" clip-path="url(#p53226ae871)" style="fill: none; stroke: #d8dde3; stroke-width: 0.9; stroke-linecap: square"/>
     </g>
     <g id="line2d_30">
      <g>
       <use xlink:href="#mf1da97b1d8" x="362.16875" y="218.68" style="fill: #222831; stroke: #222831; stroke-width: 0.8"/>
      </g>
     </g>
     <g id="text_20">
      <!-- 0 -->
      <g style="fill: #222831" transform="translate(358.844375 236) scale(0.12 -0.12)">
       <use xlink:href="#STHeitiTC-Medium-12"/>
      </g>
     </g>
    </g>
    <g id="xtick_8">
     <g id="line2d_31">
      <path d="M 417.70075 218.68 
L 417.70075 25.24 
" clip-path="url(#p53226ae871)" style="fill: none; stroke: #d8dde3; stroke-width: 0.9; stroke-linecap: square"/>
     </g>
     <g id="line2d_32">
      <g>
       <use xlink:href="#mf1da97b1d8" x="417.70075" y="218.68" style="fill: #222831; stroke: #222831; stroke-width: 0.8"/>
      </g>
     </g>
     <g id="text_21">
      <!-- 1 -->
      <g style="fill: #222831" transform="translate(414.376375 236) scale(0.12 -0.12)">
       <use xlink:href="#STHeitiTC-Medium-13"/>
      </g>
     </g>
    </g>
    <g id="xtick_9">
     <g id="line2d_33">
      <path d="M 473.23275 218.68 
L 473.23275 25.24 
" clip-path="url(#p53226ae871)" style="fill: none; stroke: #d8dde3; stroke-width: 0.9; stroke-linecap: square"/>
     </g>
     <g id="line2d_34">
      <g>
       <use xlink:href="#mf1da97b1d8" x="473.23275" y="218.68" style="fill: #222831; stroke: #222831; stroke-width: 0.8"/>
      </g>
     </g>
     <g id="text_22">
      <!-- 2 -->
      <g style="fill: #222831" transform="translate(469.908375 236) scale(0.12 -0.12)">
       <use xlink:href="#STHeitiTC-Medium-14"/>
      </g>
     </g>
    </g>
    <g id="xtick_10">
     <g id="line2d_35">
      <path d="M 528.76475 218.68 
L 528.76475 25.24 
" clip-path="url(#p53226ae871)" style="fill: none; stroke: #d8dde3; stroke-width: 0.9; stroke-linecap: square"/>
     </g>
     <g id="line2d_36">
      <g>
       <use xlink:href="#mf1da97b1d8" x="528.76475" y="218.68" style="fill: #222831; stroke: #222831; stroke-width: 0.8"/>
      </g>
     </g>
     <g id="text_23">
      <!-- 3 -->
      <g style="fill: #222831" transform="translate(525.440375 236) scale(0.12 -0.12)">
       <use xlink:href="#STHeitiTC-Medium-15"/>
      </g>
     </g>
    </g>
    <g id="xtick_11">
     <g id="line2d_37">
      <path d="M 584.29675 218.68 
L 584.29675 25.24 
" clip-path="url(#p53226ae871)" style="fill: none; stroke: #d8dde3; stroke-width: 0.9; stroke-linecap: square"/>
     </g>
     <g id="line2d_38">
      <g>
       <use xlink:href="#mf1da97b1d8" x="584.29675" y="218.68" style="fill: #222831; stroke: #222831; stroke-width: 0.8"/>
      </g>
     </g>
     <g id="text_24">
      <!-- 4 -->
      <g style="fill: #222831" transform="translate(580.972375 236) scale(0.12 -0.12)">
       <use xlink:href="#STHeitiTC-Medium-16"/>
      </g>
     </g>
    </g>
    <g id="xtick_12">
     <g id="line2d_39">
      <path d="M 639.82875 218.68 
L 639.82875 25.24 
" clip-path="url(#p53226ae871)" style="fill: none; stroke: #d8dde3; stroke-width: 0.9; stroke-linecap: square"/>
     </g>
     <g id="line2d_40">
      <g>
       <use xlink:href="#mf1da97b1d8" x="639.82875" y="218.68" style="fill: #222831; stroke: #222831; stroke-width: 0.8"/>
      </g>
     </g>
     <g id="text_25">
      <!-- 5 -->
      <g style="fill: #222831" transform="translate(636.504375 236) scale(0.12 -0.12)">
       <use xlink:href="#STHeitiTC-Medium-17"/>
      </g>
     </g>
    </g>
    <g id="text_26">
     <!-- 時間 $t$ (s) -->
     <g style="fill: #222831" transform="translate(477.05875 252.6) scale(0.12 -0.12)">
      <use xlink:href="#STHeitiTC-Medium-132" transform="translate(0 0.703125)"/>
      <use xlink:href="#STHeitiTC-Medium-1cd" transform="translate(99.999908 0.703125)"/>
      <use xlink:href="#STHeitiTC-Medium-3" transform="translate(199.999817 0.703125)"/>
      <use xlink:href="#Cmmi10-30" transform="translate(224.999786 0.703125)"/>
      <use xlink:href="#STHeitiTC-Medium-3" transform="translate(261.083771 0.703125)"/>
      <use xlink:href="#STHeitiTC-Medium-a" transform="translate(286.08374 0.703125)"/>
      <use xlink:href="#STHeitiTC-Medium-55" transform="translate(322.983704 0.703125)"/>
      <use xlink:href="#STHeitiTC-Medium-b" transform="translate(361.783661 0.703125)"/>
     </g>
    </g>
   </g>
   <g id="matplotlib.axis_4">
    <g id="ytick_8">
     <g id="line2d_41">
      <path d="M 362.16875 218.68 
L 639.82875 218.68 
" clip-path="url(#p53226ae871)" style="fill: none; stroke: #d8dde3; stroke-width: 0.9; stroke-linecap: square"/>
     </g>
     <g id="line2d_42">
      <g>
       <use xlink:href="#m5bae5eb4d1" x="362.16875" y="218.68" style="fill: #222831; stroke: #222831; stroke-width: 0.8"/>
      </g>
     </g>
     <g id="text_27">
      <!-- 0 -->
      <g style="fill: #222831" transform="translate(348.52 223.84) scale(0.12 -0.12)">
       <use xlink:href="#STHeitiTC-Medium-12"/>
      </g>
     </g>
    </g>
    <g id="ytick_9">
     <g id="line2d_43">
      <path d="M 362.16875 175.693333 
L 639.82875 175.693333 
" clip-path="url(#p53226ae871)" style="fill: none; stroke: #d8dde3; stroke-width: 0.9; stroke-linecap: square"/>
     </g>
     <g id="line2d_44">
      <g>
       <use xlink:href="#m5bae5eb4d1" x="362.16875" y="175.693333" style="fill: #222831; stroke: #222831; stroke-width: 0.8"/>
      </g>
     </g>
     <g id="text_28">
      <!-- 2 -->
      <g style="fill: #222831" transform="translate(348.52 180.853333) scale(0.12 -0.12)">
       <use xlink:href="#STHeitiTC-Medium-14"/>
      </g>
     </g>
    </g>
    <g id="ytick_10">
     <g id="line2d_45">
      <path d="M 362.16875 132.706667 
L 639.82875 132.706667 
" clip-path="url(#p53226ae871)" style="fill: none; stroke: #d8dde3; stroke-width: 0.9; stroke-linecap: square"/>
     </g>
     <g id="line2d_46">
      <g>
       <use xlink:href="#m5bae5eb4d1" x="362.16875" y="132.706667" style="fill: #222831; stroke: #222831; stroke-width: 0.8"/>
      </g>
     </g>
     <g id="text_29">
      <!-- 4 -->
      <g style="fill: #222831" transform="translate(348.52 137.866667) scale(0.12 -0.12)">
       <use xlink:href="#STHeitiTC-Medium-16"/>
      </g>
     </g>
    </g>
    <g id="ytick_11">
     <g id="line2d_47">
      <path d="M 362.16875 89.72 
L 639.82875 89.72 
" clip-path="url(#p53226ae871)" style="fill: none; stroke: #d8dde3; stroke-width: 0.9; stroke-linecap: square"/>
     </g>
     <g id="line2d_48">
      <g>
       <use xlink:href="#m5bae5eb4d1" x="362.16875" y="89.72" style="fill: #222831; stroke: #222831; stroke-width: 0.8"/>
      </g>
     </g>
     <g id="text_30">
      <!-- 6 -->
      <g style="fill: #222831" transform="translate(348.52 94.88) scale(0.12 -0.12)">
       <use xlink:href="#STHeitiTC-Medium-18"/>
      </g>
     </g>
    </g>
    <g id="ytick_12">
     <g id="line2d_49">
      <path d="M 362.16875 46.733333 
L 639.82875 46.733333 
" clip-path="url(#p53226ae871)" style="fill: none; stroke: #d8dde3; stroke-width: 0.9; stroke-linecap: square"/>
     </g>
     <g id="line2d_50">
      <g>
       <use xlink:href="#m5bae5eb4d1" x="362.16875" y="46.733333" style="fill: #222831; stroke: #222831; stroke-width: 0.8"/>
      </g>
     </g>
     <g id="text_31">
      <!-- 8 -->
      <g style="fill: #222831" transform="translate(348.52 51.893333) scale(0.12 -0.12)">
       <defs>
        <path id="STHeitiTC-Medium-1a" d="M 2547 2950 
Q 3373 2522 3373 1747 
Q 3373 1114 2928 691 
Q 2483 269 1763 269 
Q 1043 269 608 691 
Q 173 1114 173 1709 
Q 173 2515 1018 2950 
Q 390 3315 390 3942 
Q 390 4435 800 4809 
Q 1210 5184 1782 5184 
Q 2355 5184 2758 4819 
Q 3162 4454 3162 3930 
Q 3162 3322 2547 2950 
z
M 1792 3181 
Q 2118 3181 2364 3411 
Q 2611 3642 2611 3939 
Q 2611 4237 2380 4445 
Q 2150 4653 1785 4653 
Q 1421 4653 1184 4445 
Q 947 4237 947 3939 
Q 947 3642 1203 3411 
Q 1459 3181 1792 3181 
z
M 1773 794 
Q 2234 794 2528 1069 
Q 2822 1344 2822 1728 
Q 2822 2112 2518 2393 
Q 2214 2675 1782 2675 
Q 1350 2675 1036 2384 
Q 723 2093 723 1699 
Q 723 1306 1014 1050 
Q 1306 794 1773 794 
z
" transform="scale(0.015625)"/>
       </defs>
       <use xlink:href="#STHeitiTC-Medium-1a"/>
      </g>
     </g>
    </g>
    <g id="text_32">
     <!-- 速度 $v$ (m/s) -->
     <g style="fill: #222831" transform="translate(342.84 154.9) rotate(-90) scale(0.12 -0.12)">
      <defs>
       <path id="Cmmi10-38" d="M 684 722 
Q 684 866 718 1037 
Q 753 1209 787 1320 
Q 822 1431 944 1753 
Q 1066 2075 1069 2088 
Q 1153 2322 1153 2472 
Q 1153 2663 1013 2663 
Q 759 2663 595 2402 
Q 431 2141 353 1819 
Q 341 1778 300 1778 
L 225 1778 
Q 172 1778 172 1838 
L 172 1856 
Q 275 2238 487 2533 
Q 700 2828 1025 2828 
Q 1253 2828 1411 2678 
Q 1569 2528 1569 2297 
Q 1569 2178 1516 2047 
Q 1391 1722 1319 1526 
Q 1247 1331 1186 1089 
Q 1125 847 1125 641 
Q 1125 400 1236 248 
Q 1347 97 1581 97 
Q 2025 97 2381 781 
Q 2494 1003 2594 1303 
Q 2694 1603 2694 1791 
Q 2694 1984 2631 2092 
Q 2569 2200 2469 2317 
Q 2369 2434 2369 2503 
Q 2369 2628 2472 2731 
Q 2575 2834 2700 2834 
Q 2853 2834 2920 2693 
Q 2988 2553 2988 2375 
Q 2988 2163 2927 1869 
Q 2866 1575 2758 1259 
Q 2650 944 2559 763 
Q 2138 -72 1575 -72 
Q 1172 -72 928 129 
Q 684 331 684 722 
z
" transform="scale(0.015625)"/>
       <path id="STHeitiTC-Medium-11" d="M 2675 5504 
L 736 77 
L 160 77 
L 2099 5504 
L 2675 5504 
z
" transform="scale(0.015625)"/>
      </defs>
      <use xlink:href="#STHeitiTC-Medium-44d" transform="translate(0 0.703125)"/>
      <use xlink:href="#STHeitiTC-Medium-287" transform="translate(99.999908 0.703125)"/>
      <use xlink:href="#STHeitiTC-Medium-3" transform="translate(199.999817 0.703125)"/>
      <use xlink:href="#Cmmi10-38" transform="translate(224.999786 0.703125)"/>
      <use xlink:href="#STHeitiTC-Medium-3" transform="translate(273.388458 0.703125)"/>
      <use xlink:href="#STHeitiTC-Medium-a" transform="translate(298.388428 0.703125)"/>
      <use xlink:href="#STHeitiTC-Medium-4f" transform="translate(335.288391 0.703125)"/>
      <use xlink:href="#STHeitiTC-Medium-11" transform="translate(429.088303 0.703125)"/>
      <use xlink:href="#STHeitiTC-Medium-55" transform="translate(472.788254 0.703125)"/>
      <use xlink:href="#STHeitiTC-Medium-b" transform="translate(511.588211 0.703125)"/>
     </g>
    </g>
   </g>
   <g id="FillBetweenPolyCollection_1">
    <defs>
     <path id="mdde02d53b7" d="M 362.16875 -85.786667 
L 362.16875 -42.8 
L 364.973396 -42.8 
L 367.778043 -42.8 
L 370.582689 -42.8 
L 373.387336 -42.8 
L 376.191982 -42.8 
L 378.996629 -42.8 
L 381.801275 -42.8 
L 384.605922 -42.8 
L 387.410568 -42.8 
L 390.215215 -42.8 
L 393.019861 -42.8 
L 395.824508 -42.8 
L 398.629154 -42.8 
L 401.433801 -42.8 
L 404.238447 -42.8 
L 407.043093 -42.8 
L 409.84774 -42.8 
L 412.652386 -42.8 
L 415.457033 -42.8 
L 418.261679 -42.8 
L 421.066326 -42.8 
L 423.870972 -42.8 
L 426.675619 -42.8 
L 429.480265 -42.8 
L 432.284912 -42.8 
L 435.089558 -42.8 
L 437.894205 -42.8 
L 440.698851 -42.8 
L 443.503497 -42.8 
L 446.308144 -42.8 
L 449.11279 -42.8 
L 451.917437 -42.8 
L 454.722083 -42.8 
L 457.52673 -42.8 
L 460.331376 -42.8 
L 463.136023 -42.8 
L 465.940669 -42.8 
L 468.745316 -42.8 
L 471.549962 -42.8 
L 474.354609 -42.8 
L 477.159255 -42.8 
L 479.963902 -42.8 
L 482.768548 -42.8 
L 485.573194 -42.8 
L 488.377841 -42.8 
L 491.182487 -42.8 
L 493.987134 -42.8 
L 496.79178 -42.8 
L 499.596427 -42.8 
L 502.401073 -42.8 
L 505.20572 -42.8 
L 508.010366 -42.8 
L 510.815013 -42.8 
L 513.619659 -42.8 
L 516.424306 -42.8 
L 519.228952 -42.8 
L 522.033598 -42.8 
L 524.838245 -42.8 
L 527.642891 -42.8 
L 530.447538 -42.8 
L 533.252184 -42.8 
L 536.056831 -42.8 
L 538.861477 -42.8 
L 541.666124 -42.8 
L 544.47077 -42.8 
L 547.275417 -42.8 
L 550.080063 -42.8 
L 552.88471 -42.8 
L 555.689356 -42.8 
L 558.494003 -42.8 
L 561.298649 -42.8 
L 564.103295 -42.8 
L 566.907942 -42.8 
L 569.712588 -42.8 
L 572.517235 -42.8 
L 575.321881 -42.8 
L 578.126528 -42.8 
L 580.931174 -42.8 
L 583.735821 -42.8 
L 586.540467 -42.8 
L 589.345114 -42.8 
L 592.14976 -42.8 
L 594.954407 -42.8 
L 597.759053 -42.8 
L 600.563699 -42.8 
L 603.368346 -42.8 
L 606.172992 -42.8 
L 608.977639 -42.8 
L 611.782285 -42.8 
L 614.586932 -42.8 
L 617.391578 -42.8 
L 620.196225 -42.8 
L 623.000871 -42.8 
L 625.805518 -42.8 
L 628.610164 -42.8 
L 631.414811 -42.8 
L 634.219457 -42.8 
L 637.024104 -42.8 
L 639.82875 -42.8 
L 639.82875 -214.746667 
L 639.82875 -214.746667 
L 637.024104 -213.44404 
L 634.219457 -212.141414 
L 631.414811 -210.838788 
L 628.610164 -209.536162 
L 625.805518 -208.233535 
L 623.000871 -206.930909 
L 620.196225 -205.628283 
L 617.391578 -204.325657 
L 614.586932 -203.02303 
L 611.782285 -201.720404 
L 608.977639 -200.417778 
L 606.172992 -199.115152 
L 603.368346 -197.812525 
L 600.563699 -196.509899 
L 597.759053 -195.207273 
L 594.954407 -193.904646 
L 592.14976 -192.60202 
L 589.345114 -191.299394 
L 586.540467 -189.996768 
L 583.735821 -188.694141 
L 580.931174 -187.391515 
L 578.126528 -186.088889 
L 575.321881 -184.786263 
L 572.517235 -183.483636 
L 569.712588 -182.18101 
L 566.907942 -180.878384 
L 564.103295 -179.575758 
L 561.298649 -178.273131 
L 558.494003 -176.970505 
L 555.689356 -175.667879 
L 552.88471 -174.365253 
L 550.080063 -173.062626 
L 547.275417 -171.76 
L 544.47077 -170.457374 
L 541.666124 -169.154747 
L 538.861477 -167.852121 
L 536.056831 -166.549495 
L 533.252184 -165.246869 
L 530.447538 -163.944242 
L 527.642891 -162.641616 
L 524.838245 -161.33899 
L 522.033598 -160.036364 
L 519.228952 -158.733737 
L 516.424306 -157.431111 
L 513.619659 -156.128485 
L 510.815013 -154.825859 
L 508.010366 -153.523232 
L 505.20572 -152.220606 
L 502.401073 -150.91798 
L 499.596427 -149.615354 
L 496.79178 -148.312727 
L 493.987134 -147.010101 
L 491.182487 -145.707475 
L 488.377841 -144.404848 
L 485.573194 -143.102222 
L 482.768548 -141.799596 
L 479.963902 -140.49697 
L 477.159255 -139.194343 
L 474.354609 -137.891717 
L 471.549962 -136.589091 
L 468.745316 -135.286465 
L 465.940669 -133.983838 
L 463.136023 -132.681212 
L 460.331376 -131.378586 
L 457.52673 -130.07596 
L 454.722083 -128.773333 
L 451.917437 -127.470707 
L 449.11279 -126.168081 
L 446.308144 -124.865455 
L 443.503497 -123.562828 
L 440.698851 -122.260202 
L 437.894205 -120.957576 
L 435.089558 -119.654949 
L 432.284912 -118.352323 
L 429.480265 -117.049697 
L 426.675619 -115.747071 
L 423.870972 -114.444444 
L 421.066326 -113.141818 
L 418.261679 -111.839192 
L 415.457033 -110.536566 
L 412.652386 -109.233939 
L 409.84774 -107.931313 
L 407.043093 -106.628687 
L 404.238447 -105.326061 
L 401.433801 -104.023434 
L 398.629154 -102.720808 
L 395.824508 -101.418182 
L 393.019861 -100.115556 
L 390.215215 -98.812929 
L 387.410568 -97.510303 
L 384.605922 -96.207677 
L 381.801275 -94.905051 
L 378.996629 -93.602424 
L 376.191982 -92.299798 
L 373.387336 -90.997172 
L 370.582689 -89.694545 
L 367.778043 -88.391919 
L 364.973396 -87.089293 
L 362.16875 -85.786667 
z
" style="stroke: #1f6feb; stroke-opacity: 0.12"/>
    </defs>
    <g clip-path="url(#p53226ae871)">
     <use xlink:href="#mdde02d53b7" x="0" y="261.48" style="fill: #1f6feb; fill-opacity: 0.12; stroke: #1f6feb; stroke-opacity: 0.12"/>
    </g>
   </g>
   <g id="line2d_51">
    <path d="M 362.16875 175.693333 
L 364.973396 174.390707 
L 367.778043 173.088081 
L 370.582689 171.785455 
L 373.387336 170.482828 
L 376.191982 169.180202 
L 378.996629 167.877576 
L 381.801275 166.574949 
L 384.605922 165.272323 
L 387.410568 163.969697 
L 390.215215 162.667071 
L 393.019861 161.364444 
L 395.824508 160.061818 
L 398.629154 158.759192 
L 401.433801 157.456566 
L 404.238447 156.153939 
L 407.043093 154.851313 
L 409.84774 153.548687 
L 412.652386 152.246061 
L 415.457033 150.943434 
L 418.261679 149.640808 
L 421.066326 148.338182 
L 423.870972 147.035556 
L 426.675619 145.732929 
L 429.480265 144.430303 
L 432.284912 143.127677 
L 435.089558 141.825051 
L 437.894205 140.522424 
L 440.698851 139.219798 
L 443.503497 137.917172 
L 446.308144 136.614545 
L 449.11279 135.311919 
L 451.917437 134.009293 
L 454.722083 132.706667 
L 457.52673 131.40404 
L 460.331376 130.101414 
L 463.136023 128.798788 
L 465.940669 127.496162 
L 468.745316 126.193535 
L 471.549962 124.890909 
L 474.354609 123.588283 
L 477.159255 122.285657 
L 479.963902 120.98303 
L 482.768548 119.680404 
L 485.573194 118.377778 
L 488.377841 117.075152 
L 491.182487 115.772525 
L 493.987134 114.469899 
L 496.79178 113.167273 
L 499.596427 111.864646 
L 502.401073 110.56202 
L 505.20572 109.259394 
L 508.010366 107.956768 
L 510.815013 106.654141 
L 513.619659 105.351515 
L 516.424306 104.048889 
L 519.228952 102.746263 
L 522.033598 101.443636 
L 524.838245 100.14101 
L 527.642891 98.838384 
L 530.447538 97.535758 
L 533.252184 96.233131 
L 536.056831 94.930505 
L 538.861477 93.627879 
L 541.666124 92.325253 
L 544.47077 91.022626 
L 547.275417 89.72 
L 550.080063 88.417374 
L 552.88471 87.114747 
L 555.689356 85.812121 
L 558.494003 84.509495 
L 561.298649 83.206869 
L 564.103295 81.904242 
L 566.907942 80.601616 
L 569.712588 79.29899 
L 572.517235 77.996364 
L 575.321881 76.693737 
L 578.126528 75.391111 
L 580.931174 74.088485 
L 583.735821 72.785859 
L 586.540467 71.483232 
L 589.345114 70.180606 
L 592.14976 68.87798 
L 594.954407 67.575354 
L 597.759053 66.272727 
L 600.563699 64.970101 
L 603.368346 63.667475 
L 606.172992 62.364848 
L 608.977639 61.062222 
L 611.782285 59.759596 
L 614.586932 58.45697 
L 617.391578 57.154343 
L 620.196225 55.851717 
L 623.000871 54.549091 
L 625.805518 53.246465 
L 628.610164 51.943838 
L 631.414811 50.641212 
L 634.219457 49.338586 
L 637.024104 48.03596 
L 639.82875 46.733333 
" clip-path="url(#p53226ae871)" style="fill: none; stroke: #d1242f; stroke-width: 2.6; stroke-linecap: square"/>
   </g>
   <g id="patch_6">
    <path d="M 362.16875 218.68 
L 362.16875 25.24 
" style="fill: none; stroke: #222831; stroke-width: 1.1; stroke-linejoin: miter; stroke-linecap: square"/>
   </g>
   <g id="patch_7">
    <path d="M 362.16875 218.68 
L 639.82875 218.68 
" style="fill: none; stroke: #222831; stroke-width: 1.1; stroke-linejoin: miter; stroke-linecap: square"/>
   </g>
   <g id="text_33">
    <!-- 面積 = 位移 -->
    <g style="fill: #1f6feb" transform="translate(470.363125 154.2) scale(0.12 -0.12)">
     <defs>
      <path id="STHeitiTC-Medium-1da" d="M 2637 1363 
L 3699 1363 
L 3699 1984 
L 2637 1984 
L 2637 1363 
z
M 3699 243 
L 3699 947 
L 2637 947 
L 2637 243 
L 3699 243 
z
M 4973 3008 
L 4186 3008 
L 4186 243 
L 4973 243 
L 4973 3008 
z
M 1402 3008 
L 1402 243 
L 2170 243 
L 2170 3008 
L 1402 3008 
z
M 2637 3008 
L 2637 2394 
L 3699 2394 
L 3699 3008 
L 2637 3008 
z
M 2886 4288 
Q 2067 4288 1472 4272 
Q 877 4256 416 4224 
L 416 4749 
Q 922 4710 1594 4697 
Q 2266 4685 3206 4685 
Q 4147 4685 4809 4697 
Q 5472 4710 5978 4749 
L 5978 4224 
Q 5747 4243 5488 4252 
Q 5229 4262 4925 4272 
Q 4621 4282 4269 4285 
Q 3917 4288 3501 4288 
Q 3456 4070 3405 3862 
Q 3354 3654 3290 3437 
Q 3712 3437 4045 3440 
Q 4378 3443 4646 3449 
Q 4915 3456 5129 3469 
Q 5344 3482 5530 3494 
Q 5510 3341 5497 3133 
Q 5485 2925 5485 2739 
L 5485 454 
Q 5485 346 5488 218 
Q 5491 90 5497 -44 
Q 5504 -179 5517 -307 
Q 5530 -435 5542 -538 
L 4973 -538 
L 4973 -211 
L 1402 -211 
L 1402 -608 
L 858 -608 
Q 890 -384 902 -141 
Q 915 102 915 320 
L 915 2726 
Q 915 2989 902 3174 
Q 890 3360 864 3501 
Q 1082 3488 1296 3475 
Q 1510 3462 1737 3456 
Q 1965 3450 2221 3443 
Q 2477 3437 2784 3437 
Q 2829 3661 2851 3875 
Q 2874 4090 2886 4288 
z
" transform="scale(0.015625)"/>
      <path id="STHeitiTC-Medium-3d5" d="M 5216 1011 
L 3290 1011 
L 3290 762 
L 5216 762 
L 5216 1011 
z
M 5709 352 
Q 5594 365 5475 371 
Q 5357 378 5193 381 
Q 5030 384 4806 384 
Q 4582 384 4250 384 
Q 3923 384 3699 384 
Q 3475 384 3315 381 
Q 3155 378 3040 371 
Q 2925 365 2810 352 
Q 2822 422 2828 572 
Q 2835 723 2835 864 
L 2835 2170 
Q 2835 2317 2828 2467 
Q 2822 2618 2810 2688 
Q 2925 2675 3040 2668 
Q 3155 2662 3315 2656 
Q 3475 2650 3699 2650 
Q 3923 2650 4250 2650 
Q 4582 2650 4806 2650 
Q 5030 2650 5193 2656 
Q 5357 2662 5475 2668 
Q 5594 2675 5709 2688 
Q 5696 2618 5689 2467 
Q 5683 2317 5683 2170 
L 5683 864 
Q 5683 723 5689 572 
Q 5696 422 5709 352 
z
M 5216 1632 
L 3290 1632 
L 3290 1382 
L 5216 1382 
L 5216 1632 
z
M 5216 2253 
L 3290 2253 
L 3290 1997 
L 5216 1997 
L 5216 2253 
z
M 5766 -736 
Q 5357 -397 4442 -32 
L 4774 358 
Q 4966 282 5132 208 
Q 5299 134 5456 57 
Q 5613 -19 5776 -102 
Q 5939 -186 6131 -288 
L 5766 -736 
z
M 4038 0 
Q 4090 -38 4077 -70 
Q 4064 -102 4006 -90 
Q 3974 -83 3894 -96 
Q 3814 -109 3725 -141 
Q 3501 -237 3225 -371 
Q 2950 -506 2611 -685 
Q 2554 -582 2461 -464 
Q 2368 -346 2253 -237 
Q 2362 -218 2474 -189 
Q 2586 -160 2739 -93 
Q 2893 -26 3107 80 
Q 3322 186 3642 358 
Q 3725 262 3830 169 
Q 3936 77 4038 0 
z
M 4000 4250 
Q 3507 4250 3187 4237 
Q 2867 4224 2624 4192 
L 2624 4653 
Q 2752 4640 2889 4630 
Q 3027 4621 3190 4614 
Q 3354 4608 3552 4605 
Q 3750 4602 4000 4602 
Q 3994 4819 3981 4940 
Q 3968 5062 3949 5152 
Q 4090 5133 4234 5123 
Q 4378 5114 4518 5120 
Q 4614 5126 4624 5091 
Q 4634 5056 4582 5018 
Q 4518 4973 4499 4928 
Q 4480 4883 4480 4787 
L 4480 4602 
Q 4762 4602 4982 4608 
Q 5203 4614 5376 4620 
Q 5549 4627 5686 4633 
Q 5824 4640 5946 4653 
L 5946 4192 
Q 5818 4205 5680 4214 
Q 5542 4224 5369 4230 
Q 5197 4237 4979 4243 
Q 4762 4250 4480 4250 
L 4480 3936 
Q 4890 3936 5194 3942 
Q 5498 3949 5702 3962 
L 5702 3552 
Q 5498 3565 5197 3571 
Q 4896 3578 4480 3578 
L 4480 3296 
Q 4806 3296 5033 3296 
Q 5261 3296 5433 3302 
Q 5606 3309 5750 3315 
Q 5894 3322 6054 3334 
L 6054 2886 
Q 5888 2893 5731 2899 
Q 5574 2906 5382 2912 
Q 5190 2918 4940 2918 
Q 4691 2918 4326 2918 
Q 3962 2918 3712 2918 
Q 3462 2918 3273 2912 
Q 3085 2906 2928 2899 
Q 2771 2893 2598 2886 
L 2598 3334 
Q 2752 3322 2893 3315 
Q 3034 3309 3190 3305 
Q 3347 3302 3539 3299 
Q 3731 3296 4000 3296 
L 4000 3578 
Q 3635 3578 3347 3571 
Q 3059 3565 2822 3552 
L 2822 3962 
Q 3059 3949 3340 3942 
Q 3622 3936 4000 3936 
L 4000 4250 
z
M 1254 2093 
Q 1184 1875 1117 1689 
Q 1050 1504 973 1334 
Q 896 1165 816 1005 
Q 736 845 640 685 
Q 499 973 269 1171 
Q 390 1318 521 1529 
Q 653 1741 774 1987 
Q 896 2234 995 2496 
Q 1094 2758 1152 3008 
Q 915 3002 742 2992 
Q 570 2982 435 2963 
L 435 3456 
Q 589 3437 784 3427 
Q 979 3418 1254 3418 
L 1254 4224 
Q 1043 4166 915 4131 
Q 787 4096 653 4064 
Q 595 4192 528 4301 
Q 461 4410 365 4518 
Q 646 4544 918 4598 
Q 1190 4653 1420 4723 
Q 1651 4794 1833 4867 
Q 2016 4941 2112 4998 
Q 2202 4851 2275 4729 
Q 2349 4608 2419 4531 
Q 2483 4461 2464 4432 
Q 2445 4403 2368 4422 
Q 2298 4442 2147 4426 
Q 1997 4410 1696 4339 
L 1696 3418 
Q 2144 3430 2394 3456 
L 2394 2963 
Q 2144 2989 1696 3002 
L 1696 2291 
L 2029 2522 
Q 2176 2298 2313 2115 
Q 2451 1933 2598 1754 
L 2157 1459 
Q 2080 1619 1974 1772 
Q 1869 1926 1696 2150 
L 1696 410 
Q 1696 173 1709 -115 
Q 1722 -403 1747 -691 
L 1203 -691 
Q 1229 -403 1241 -115 
Q 1254 173 1254 410 
L 1254 2093 
z
" transform="scale(0.015625)"/>
      <path id="STHeitiTC-Medium-861" d="M 2317 2266 
Q 2458 2093 2592 1933 
Q 2726 1773 2861 1619 
L 2470 1357 
Q 2381 1523 2259 1686 
Q 2138 1850 1990 2016 
L 2317 2266 
z
M 1472 2022 
Q 1395 1805 1312 1613 
Q 1229 1421 1129 1245 
Q 1030 1069 915 896 
Q 800 723 666 538 
Q 582 685 499 797 
Q 416 909 288 1018 
Q 435 1171 598 1369 
Q 762 1568 915 1798 
Q 1069 2029 1200 2288 
Q 1331 2547 1427 2816 
Q 1120 2810 861 2797 
Q 602 2784 435 2765 
L 435 3309 
Q 614 3283 883 3270 
Q 1152 3258 1472 3258 
L 1472 4128 
Q 1254 4077 1062 4045 
Q 870 4013 749 3987 
Q 723 4102 688 4195 
Q 653 4288 563 4448 
Q 794 4461 1091 4505 
Q 1389 4550 1632 4621 
Q 1856 4691 2064 4771 
Q 2272 4851 2458 4941 
Q 2509 4794 2595 4662 
Q 2682 4531 2739 4480 
Q 2822 4410 2812 4384 
Q 2803 4358 2726 4371 
Q 2669 4378 2605 4378 
Q 2541 4378 2451 4365 
Q 2362 4352 2237 4320 
Q 2112 4288 1939 4243 
L 1939 3258 
Q 2189 3264 2374 3273 
Q 2560 3283 2714 3309 
L 2714 2765 
Q 2560 2784 2374 2797 
Q 2189 2810 1939 2810 
L 1939 486 
Q 1939 250 1952 -38 
Q 1965 -326 1990 -614 
L 1421 -614 
Q 1446 -326 1459 -38 
Q 1472 250 1472 486 
L 1472 2022 
z
M 3802 4096 
Q 3731 4000 3641 3885 
Q 3552 3770 3456 3654 
Q 3360 3539 3264 3433 
Q 3168 3328 3091 3251 
Q 2931 3430 2675 3520 
Q 3072 3846 3363 4291 
Q 3654 4736 3789 5222 
Q 3949 5146 4115 5088 
Q 4282 5030 4410 5011 
Q 4499 4998 4505 4960 
Q 4512 4922 4435 4890 
Q 4365 4858 4285 4778 
Q 4205 4698 4083 4518 
L 5107 4518 
Q 5318 4518 5526 4524 
Q 5734 4531 5824 4544 
Q 5709 4198 5568 3923 
Q 5427 3648 5251 3417 
Q 5075 3187 4860 2995 
Q 4646 2803 4384 2630 
Q 4493 2579 4627 2550 
Q 4762 2522 4832 2515 
Q 4883 2509 4892 2477 
Q 4902 2445 4845 2400 
Q 4774 2349 4710 2294 
Q 4646 2240 4550 2131 
L 5510 2131 
Q 5690 2131 5859 2137 
Q 6029 2144 6112 2157 
Q 5952 1478 5638 915 
Q 5325 352 4870 26 
Q 4493 -243 3990 -409 
Q 3488 -576 2822 -678 
Q 2810 -582 2742 -464 
Q 2675 -346 2502 -160 
Q 3040 -128 3517 -13 
Q 3994 102 4352 294 
Q 4230 461 4073 643 
Q 3917 826 3770 960 
L 4128 1261 
Q 4256 1114 4419 931 
Q 4582 749 4749 576 
Q 4966 781 5145 1075 
Q 5325 1370 5414 1696 
L 4179 1696 
Q 4083 1594 3958 1469 
Q 3834 1344 3699 1213 
Q 3565 1082 3433 963 
Q 3302 845 3200 755 
Q 3110 858 3017 922 
Q 2925 986 2726 1082 
Q 2944 1190 3155 1350 
Q 3366 1510 3561 1702 
Q 3757 1894 3926 2108 
Q 4096 2323 4230 2534 
Q 3994 2400 3664 2256 
Q 3334 2112 2970 1997 
Q 2938 2099 2854 2204 
Q 2771 2310 2618 2458 
Q 3059 2528 3408 2646 
Q 3757 2765 4000 2912 
Q 3910 3040 3792 3177 
Q 3674 3315 3552 3437 
L 3878 3750 
Q 3987 3622 4118 3472 
Q 4250 3322 4371 3194 
Q 4646 3430 4832 3664 
Q 5018 3898 5094 4096 
L 3802 4096 
z
" transform="scale(0.015625)"/>
     </defs>
     <use xlink:href="#STHeitiTC-Medium-1da"/>
     <use xlink:href="#STHeitiTC-Medium-3d5" transform="translate(100 0)"/>
     <use xlink:href="#STHeitiTC-Medium-3" transform="translate(200 0)"/>
     <use xlink:href="#STHeitiTC-Medium-1f" transform="translate(225 0)"/>
     <use xlink:href="#STHeitiTC-Medium-3" transform="translate(285.59375 0)"/>
     <use xlink:href="#STHeitiTC-Medium-29e" transform="translate(310.59375 0)"/>
     <use xlink:href="#STHeitiTC-Medium-861" transform="translate(410.59375 0)"/>
    </g>
   </g>
   <g id="text_34">
    <!-- 斜率 = 加速度 -->
    <g style="fill: #d1242f" transform="translate(428.80715 76.824) scale(0.12 -0.12)">
     <defs>
      <path id="STHeitiTC-Medium-200" d="M 4410 262 
L 4410 -461 
L 3827 -461 
Q 3846 -301 3856 -182 
Q 3866 -64 3869 35 
Q 3872 134 3875 230 
Q 3878 326 3878 442 
L 3878 3654 
Q 3878 3840 3872 3968 
Q 3866 4096 3840 4205 
Q 4134 4179 4393 4169 
Q 4653 4160 4909 4160 
Q 5165 4160 5430 4169 
Q 5696 4179 5971 4205 
Q 5946 4115 5939 3987 
Q 5933 3859 5933 3654 
L 5933 544 
Q 5933 307 5939 105 
Q 5946 -96 5978 -371 
L 5389 -371 
L 5389 262 
L 4410 262 
z
M 5389 717 
L 5389 3680 
L 4410 3680 
L 4410 717 
L 5389 717 
z
M 2099 3443 
Q 2061 2598 1981 1980 
Q 1901 1363 1760 896 
Q 1619 429 1411 83 
Q 1203 -262 915 -563 
Q 800 -448 688 -368 
Q 576 -288 422 -218 
Q 723 45 934 374 
Q 1146 704 1280 1142 
Q 1414 1581 1484 2147 
Q 1555 2714 1574 3443 
Q 1402 3443 1274 3436 
Q 1146 3430 1040 3424 
Q 934 3418 841 3408 
Q 749 3398 646 3386 
L 646 3987 
Q 742 3974 835 3964 
Q 928 3955 1033 3948 
Q 1139 3942 1270 3936 
Q 1402 3930 1581 3930 
Q 1587 4333 1587 4569 
Q 1587 4806 1584 4940 
Q 1581 5075 1565 5139 
Q 1549 5203 1530 5261 
Q 1824 5197 2246 5178 
Q 2304 5171 2310 5145 
Q 2317 5120 2266 5050 
Q 2202 4960 2163 4707 
Q 2125 4454 2118 3930 
Q 2387 3930 2576 3933 
Q 2765 3936 2905 3942 
Q 3046 3949 3158 3958 
Q 3270 3968 3386 3987 
L 3213 627 
Q 3194 282 3152 70 
Q 3110 -141 3001 -265 
Q 2893 -390 2694 -457 
Q 2496 -525 2170 -570 
Q 2157 -371 2105 -224 
Q 2054 -77 1933 90 
Q 2176 70 2323 86 
Q 2470 102 2553 188 
Q 2637 275 2669 451 
Q 2701 627 2714 928 
L 2835 3443 
L 2099 3443 
z
" transform="scale(0.015625)"/>
     </defs>
     <use xlink:href="#STHeitiTC-Medium-102d"/>
     <use xlink:href="#STHeitiTC-Medium-7c0" transform="translate(100 0)"/>
     <use xlink:href="#STHeitiTC-Medium-3" transform="translate(200 0)"/>
     <use xlink:href="#STHeitiTC-Medium-1f" transform="translate(225 0)"/>
     <use xlink:href="#STHeitiTC-Medium-3" transform="translate(285.59375 0)"/>
     <use xlink:href="#STHeitiTC-Medium-200" transform="translate(310.59375 0)"/>
     <use xlink:href="#STHeitiTC-Medium-44d" transform="translate(410.59375 0)"/>
     <use xlink:href="#STHeitiTC-Medium-287" transform="translate(510.59375 0)"/>
    </g>
   </g>
   <g id="text_35">
    <!-- 速度–時間圖（v–t） -->
    <g style="fill: #222831" transform="translate(438.746875 19.24) scale(0.14 -0.14)">
     <defs>
      <path id="STHeitiTC-Medium-58" d="M 3430 3872 
L 1837 269 
L 1709 269 
L 102 3872 
L 659 3872 
L 1766 1350 
L 2874 3872 
L 3430 3872 
z
" transform="scale(0.015625)"/>
     </defs>
     <use xlink:href="#STHeitiTC-Medium-44d"/>
     <use xlink:href="#STHeitiTC-Medium-287" transform="translate(100 0)"/>
     <use xlink:href="#STHeitiTC-Medium-74" transform="translate(200 0)"/>
     <use xlink:href="#STHeitiTC-Medium-132" transform="translate(250 0)"/>
     <use xlink:href="#STHeitiTC-Medium-1cd" transform="translate(350 0)"/>
     <use xlink:href="#STHeitiTC-Medium-28d" transform="translate(450 0)"/>
     <use xlink:href="#STHeitiTC-Medium-c86d" transform="translate(550 0)"/>
     <use xlink:href="#STHeitiTC-Medium-58" transform="translate(650 0)"/>
     <use xlink:href="#STHeitiTC-Medium-74" transform="translate(705.40625 0)"/>
     <use xlink:href="#STHeitiTC-Medium-56" transform="translate(755.40625 0)"/>
     <use xlink:href="#STHeitiTC-Medium-c86e" transform="translate(789.3125 0)"/>
    </g>
   </g>
  </g>
 </g>
 <defs>
  <clipPath id="p97aaa3d153">
   <rect x="37.44875" y="25.24" width="277.66" height="193.44"/>
  </clipPath>
  <clipPath id="p53226ae871">
   <rect x="362.16875" y="25.24" width="277.66" height="193.44"/>
  </clipPath>
 </defs>
</svg>
