<?xml version="1.0" encoding="utf-8" standalone="no"?>
<!DOCTYPE svg PUBLIC "-//W3C//DTD SVG 1.1//EN"
  "http://www.w3.org/Graphics/SVG/1.1/DTD/svg11.dtd">
<svg xmlns:xlink="http://www.w3.org/1999/xlink" width="315.72pt" height="305.146301pt" viewBox="0 0 315.72 305.146301" xmlns="http://www.w3.org/2000/svg" version="1.1">
 <metadata>
  <rdf:RDF xmlns:dc="http://purl.org/dc/elements/1.1/" xmlns:cc="http://creativecommons.org/ns#" xmlns:rdf="http://www.w3.org/1999/02/22-rdf-syntax-ns#">
   <cc:Work>
    <dc:type rdf:resource="http://purl.org/dc/dcmitype/StillImage"/>
    <dc:date>2026-06-20T18:00:49.069731</dc:date>
    <dc:format>image/svg+xml</dc:format>
    <dc:creator>
     <cc:Agent>
      <dc:title>Matplotlib v3.11.0, https://matplotlib.org/</dc:title>
     </cc:Agent>
    </dc:creator>
   </cc:Work>
  </rdf:RDF>
 </metadata>
 <defs>
  <style type="text/css">*{stroke-linejoin: round; stroke-linecap: butt}</style>
 </defs>
 <g id="figure_1">
  <g id="patch_1">
   <path d="M 0 305.146301 
L 315.72 305.146301 
L 315.72 0 
L 0 0 
z
" style="fill: #ffffff"/>
  </g>
  <g id="axes_1">
   <g id="line2d_1">
    <path d="M 225.966575 174.116164 
L 225.860655 169.632846 
L 225.543131 165.159531 
L 225.014711 160.706202 
L 224.276576 156.282796 
L 223.33037 151.899184 
L 222.178207 147.565146 
L 220.822657 143.290353 
L 219.266745 139.084345 
L 217.513942 134.956507 
L 215.56816 130.91605 
L 213.433741 126.971988 
L 211.115447 123.133124 
L 208.618452 119.408023 
L 205.948326 115.804997 
L 203.111029 112.332086 
L 200.112891 108.99704 
L 196.960603 105.8073 
L 193.661198 102.769983 
L 190.222038 99.891868 
L 186.650798 97.179376 
L 182.955447 94.638561 
L 179.14423 92.275091 
L 175.225652 90.09424 
L 171.208456 88.100875 
L 167.101607 86.299444 
L 162.914268 84.693966 
L 158.655783 83.288024 
L 154.335655 82.084756 
L 149.963523 81.086845 
L 145.549143 80.296519 
L 141.102365 79.715542 
L 136.633113 79.345209 
L 132.151358 79.186347 
L 127.667101 79.239311 
L 123.190348 79.503982 
L 118.731089 79.97977 
L 114.299274 80.665613 
L 109.904792 81.559981 
L 105.557449 82.660878 
L 101.266946 83.965847 
L 97.042855 85.471977 
L 92.894604 87.175906 
L 88.831448 89.073834 
L 84.862454 91.161524 
L 80.996478 93.434318 
L 77.242146 95.887145 
L 73.607837 98.514532 
L 70.101659 101.310616 
L 66.731437 104.269157 
L 63.50469 107.383554 
L 60.428619 110.646857 
L 57.510087 114.051786 
L 54.755607 117.590741 
L 52.171326 121.255827 
L 49.763009 125.038865 
L 47.536031 128.931414 
L 45.495362 132.924788 
L 43.645553 137.010075 
L 41.990734 141.178161 
L 40.534597 145.419744 
L 39.28039 149.72536 
L 38.230913 154.085402 
L 37.388508 158.49014 
L 36.755053 162.929746 
L 36.331964 167.394313 
L 36.120182 171.87388 
L 36.120182 176.358449 
L 36.331964 180.838015 
L 36.755053 185.302583 
L 37.388508 189.742189 
L 38.230913 194.146927 
L 39.28039 198.506968 
L 40.534597 202.812585 
L 41.990734 207.054168 
L 43.645553 211.222254 
L 45.495362 215.307541 
L 47.536031 219.300915 
L 49.763009 223.193463 
L 52.171326 226.976501 
L 54.755607 230.641587 
L 57.510087 234.180543 
L 60.428619 237.585471 
L 63.50469 240.848775 
L 66.731437 243.963172 
L 70.101659 246.921713 
L 73.607837 249.717797 
L 77.242146 252.345183 
L 80.996478 254.79801 
L 84.862454 257.070805 
L 88.831448 259.158495 
L 92.894604 261.056422 
L 97.042855 262.760352 
L 101.266946 264.266482 
L 105.557449 265.571451 
L 109.904792 266.672348 
L 114.299274 267.566716 
L 118.731089 268.252559 
L 123.190348 268.728347 
L 127.667101 268.993018 
L 132.151358 269.045982 
L 136.633113 268.88712 
L 141.102365 268.516787 
L 145.549143 267.935809 
L 149.963523 267.145484 
L 154.335655 266.147573 
L 158.655783 264.944304 
L 162.914268 263.538362 
L 167.101607 261.932885 
L 171.208456 260.131454 
L 175.225652 258.138089 
L 179.14423 255.957238 
L 182.955447 253.593768 
L 186.650798 251.052952 
L 190.222038 248.340461 
L 193.661198 245.462346 
L 196.960603 242.425029 
L 200.112891 239.235289 
L 203.111029 235.900243 
L 205.948326 232.427332 
L 208.618452 228.824306 
L 211.115447 225.099205 
L 213.433741 221.260341 
L 215.56816 217.316279 
L 217.513942 213.275822 
L 219.266745 209.147983 
L 220.822657 204.941976 
L 222.178207 200.667183 
L 223.33037 196.333145 
L 224.276576 191.949532 
L 225.014711 187.526126 
L 225.543131 183.072798 
L 225.860655 178.599483 
L 225.966575 174.116164 
L 225.966575 174.116164 
" clip-path="url(#p243e835bde)" style="fill: none; stroke-dasharray: 6.66,2.88; stroke-dashoffset: 0; stroke: #222831; stroke-width: 1.8"/>
   </g>
   <g id="line2d_2">
    <path d="M 131.030137 174.116164 
L 203.755668 113.092198 
" clip-path="url(#p243e835bde)" style="fill: none; stroke-dasharray: 1.2,1.98; stroke-dashoffset: 0; stroke: #6b7280; stroke-width: 1.2"/>
   </g>
   <g id="text_1">
    <!-- 圓軌道：萬有引力扮演向心力 -->
    <g style="fill: #222831" transform="translate(66.86 19.52) scale(0.14 -0.14)">
     <defs>
      <path id="NotoSansCJKjp-Regular-33a8" d="M 2330 4013 
L 4051 4013 
L 4051 3648 
L 2330 3648 
L 2330 4013 
z
M 1926 4282 
L 1926 3373 
L 4474 3373 
L 4474 4282 
L 1926 4282 
z
M 2061 2304 
L 4301 2304 
L 4301 2003 
L 2061 2003 
L 2061 2304 
z
M 2061 1741 
L 4301 1741 
L 4301 1427 
L 2061 1427 
L 2061 1741 
z
M 2061 2861 
L 4301 2861 
L 4301 2566 
L 2061 2566 
L 2061 2861 
z
M 3482 966 
C 3923 800 4390 570 4653 390 
L 5050 582 
C 4749 768 4237 992 3782 1158 
L 4730 1158 
L 4730 3130 
L 1651 3130 
L 1651 1158 
L 2509 1158 
C 2221 966 1760 800 1338 678 
C 1421 608 1568 467 1632 397 
C 2048 544 2560 800 2886 1043 
L 2541 1158 
L 3757 1158 
L 3482 966 
z
M 525 5082 
L 525 -531 
L 986 -531 
L 986 -230 
L 5402 -230 
L 5402 -531 
L 5875 -531 
L 5875 5082 
L 525 5082 
z
M 986 205 
L 986 4640 
L 5402 4640 
L 5402 205 
L 986 205 
z
" transform="scale(0.015625)"/>
      <path id="NotoSansCJKjp-Regular-9aec" d="M 3840 5363 
L 3840 3987 
L 3142 3987 
L 3142 3552 
L 3840 3552 
L 3840 3354 
C 3840 2112 3738 787 2637 -243 
C 2758 -307 2925 -448 3008 -538 
C 4166 563 4288 2003 4288 3354 
L 4288 3552 
L 4966 3552 
L 4966 192 
C 4966 -141 4992 -250 5082 -346 
C 5171 -442 5306 -467 5434 -467 
C 5498 -467 5638 -467 5722 -467 
C 5830 -467 5946 -442 6029 -384 
C 6112 -320 6170 -224 6202 -70 
C 6227 70 6246 480 6253 813 
C 6138 851 5990 928 5894 1005 
C 5901 646 5888 339 5882 211 
C 5869 134 5843 70 5818 38 
C 5792 6 5741 0 5696 0 
C 5645 0 5587 0 5555 0 
C 5510 0 5472 19 5446 38 
C 5427 64 5414 109 5414 154 
L 5414 3987 
L 4288 3987 
L 4288 5363 
L 3840 5363 
z
M 499 3776 
L 499 1549 
L 1504 1549 
L 1504 1030 
L 256 1030 
L 256 602 
L 1504 602 
L 1504 -512 
L 1952 -512 
L 1952 602 
L 3168 602 
L 3168 1030 
L 1952 1030 
L 1952 1549 
L 2995 1549 
L 2995 3776 
L 1952 3776 
L 1952 4262 
L 3091 4262 
L 3091 4685 
L 1952 4685 
L 1952 5376 
L 1504 5376 
L 1504 4685 
L 352 4685 
L 352 4262 
L 1504 4262 
L 1504 3776 
L 499 3776 
z
M 890 2496 
L 1536 2496 
L 1536 1907 
L 890 1907 
L 890 2496 
z
M 1914 2496 
L 2592 2496 
L 2592 1907 
L 1914 1907 
L 1914 2496 
z
M 890 3418 
L 1536 3418 
L 1536 2835 
L 890 2835 
L 890 3418 
z
M 1914 3418 
L 2592 3418 
L 2592 2835 
L 1914 2835 
L 1914 3418 
z
" transform="scale(0.015625)"/>
      <path id="NotoSansCJKjp-Regular-9df9" d="M 384 4934 
C 794 4646 1274 4218 1478 3904 
L 1862 4224 
C 1632 4531 1152 4947 730 5222 
L 384 4934 
z
M 2957 2400 
L 5088 2400 
L 5088 1869 
L 2957 1869 
L 2957 2400 
z
M 2957 1517 
L 5088 1517 
L 5088 979 
L 2957 979 
L 2957 1517 
z
M 2957 3277 
L 5088 3277 
L 5088 2752 
L 2957 2752 
L 2957 3277 
z
M 2502 3648 
L 2502 602 
L 5562 602 
L 5562 3648 
L 4045 3648 
L 4224 4160 
L 6061 4160 
L 6061 4563 
L 4896 4563 
C 5037 4762 5197 5018 5344 5261 
L 4851 5376 
C 4755 5146 4563 4794 4416 4563 
L 3341 4563 
L 3520 4640 
C 3450 4845 3251 5152 3046 5363 
L 2669 5216 
C 2842 5024 3002 4762 3085 4563 
L 1990 4563 
L 1990 4160 
L 3706 4160 
C 3674 3994 3635 3808 3597 3648 
L 2502 3648 
z
M 1677 2848 
L 314 2848 
L 314 2400 
L 1210 2400 
L 1210 768 
C 890 499 518 230 230 32 
L 480 -461 
C 826 -173 1152 102 1459 378 
C 1869 -128 2445 -358 3283 -390 
C 3994 -416 5318 -403 6016 -371 
C 6035 -224 6118 6 6176 115 
C 5414 64 3981 45 3283 77 
C 2541 102 1978 326 1677 794 
L 1677 2848 
z
" transform="scale(0.015625)"/>
      <path id="NotoSansCJKjp-Regular-e6c0" d="M 3200 3482 
C 3456 3482 3686 3667 3686 3962 
C 3686 4256 3456 4442 3200 4442 
C 2944 4442 2714 4256 2714 3962 
C 2714 3667 2944 3482 3200 3482 
z
M 3200 346 
C 3456 346 3686 538 3686 826 
C 3686 1120 3456 1312 3200 1312 
C 2944 1312 2714 1120 2714 826 
C 2714 538 2944 346 3200 346 
z
" transform="scale(0.015625)"/>
      <path id="NotoSansCJKjp-Regular-86d2" d="M 1574 2944 
L 2957 2944 
L 2957 2477 
L 1574 2477 
L 1574 2944 
z
M 3418 2944 
L 4838 2944 
L 4838 2477 
L 3418 2477 
L 3418 2944 
z
M 1574 3738 
L 2957 3738 
L 2957 3277 
L 1574 3277 
L 1574 3738 
z
M 3418 3738 
L 4838 3738 
L 4838 3277 
L 3418 3277 
L 3418 3738 
z
M 3936 1114 
C 4032 986 4134 845 4224 698 
L 3418 659 
L 3418 1331 
L 5286 1331 
L 5286 -13 
C 5286 -83 5267 -102 5184 -109 
C 5107 -109 4858 -109 4563 -102 
C 4621 -218 4685 -384 4704 -499 
C 5120 -499 5389 -499 5549 -429 
C 5715 -358 5754 -243 5754 -19 
L 5754 1747 
L 3418 1747 
L 3418 2131 
L 5312 2131 
L 5312 4077 
L 1107 4077 
L 1107 2131 
L 2957 2131 
L 2957 1747 
L 704 1747 
L 704 -512 
L 1165 -512 
L 1165 1331 
L 2957 1331 
L 2957 640 
L 1562 582 
L 1600 160 
C 2336 198 3398 250 4429 320 
C 4499 186 4550 51 4582 -58 
L 4960 77 
C 4870 403 4582 877 4294 1229 
L 3936 1114 
z
M 435 4986 
L 435 4570 
L 1824 4570 
L 1824 4173 
L 2291 4173 
L 2291 4570 
L 4070 4570 
L 4070 4173 
L 4538 4173 
L 4538 4570 
L 5971 4570 
L 5971 4986 
L 4538 4986 
L 4538 5376 
L 4070 5376 
L 4070 4986 
L 2291 4986 
L 2291 5376 
L 1824 5376 
L 1824 4986 
L 435 4986 
z
" transform="scale(0.015625)"/>
      <path id="NotoSansCJKjp-Regular-50d7" d="M 2502 5376 
C 2426 5101 2336 4819 2221 4544 
L 403 4544 
L 403 4096 
L 2022 4096 
C 1613 3251 1024 2470 256 1946 
C 346 1856 499 1683 563 1574 
C 966 1862 1325 2208 1632 2598 
L 1632 -506 
L 2106 -506 
L 2106 762 
L 4787 762 
L 4787 96 
C 4787 0 4755 -38 4646 -38 
C 4525 -45 4134 -51 3712 -32 
C 3776 -166 3846 -365 3872 -493 
C 4422 -493 4774 -493 4986 -422 
C 5197 -339 5261 -192 5261 90 
L 5261 3354 
L 2150 3354 
C 2298 3597 2426 3840 2541 4096 
L 6010 4096 
L 6010 4544 
L 2733 4544 
C 2829 4781 2912 5024 2989 5261 
L 2502 5376 
z
M 2106 1850 
L 4787 1850 
L 4787 1178 
L 2106 1178 
L 2106 1850 
z
M 2106 2259 
L 2106 2918 
L 4787 2918 
L 4787 2259 
L 2106 2259 
z
" transform="scale(0.015625)"/>
      <path id="NotoSansCJKjp-Regular-4315" d="M 4954 5312 
L 4954 -512 
L 5434 -512 
L 5434 5312 
L 4954 5312 
z
M 838 3635 
C 749 2989 595 2131 461 1600 
L 941 1523 
L 1005 1830 
L 2707 1830 
C 2611 672 2502 179 2349 38 
C 2278 -19 2208 -32 2067 -32 
C 1914 -32 1485 -26 1056 13 
C 1152 -122 1216 -333 1229 -486 
C 1638 -499 2042 -512 2246 -493 
C 2483 -474 2624 -435 2765 -288 
C 2982 -58 3098 544 3213 2054 
C 3219 2125 3226 2278 3226 2278 
L 1094 2278 
L 1254 3187 
L 3194 3187 
L 3194 5107 
L 621 5107 
L 621 4659 
L 2726 4659 
L 2726 3635 
L 838 3635 
z
" transform="scale(0.015625)"/>
      <path id="NotoSansCJKjp-Regular-2c71" d="M 2624 5363 
L 2624 4256 
L 2624 3981 
L 531 3981 
L 531 3488 
L 2598 3488 
C 2502 2285 2080 877 339 -160 
C 461 -243 634 -422 710 -538 
C 2573 595 3008 2157 3098 3488 
L 5293 3488 
C 5165 1229 5024 320 4794 102 
C 4717 19 4634 0 4499 0 
C 4339 0 3930 6 3488 45 
C 3584 -96 3642 -307 3654 -448 
C 4051 -467 4461 -480 4678 -461 
C 4928 -435 5075 -390 5229 -198 
C 5517 115 5645 1075 5792 3725 
C 5798 3795 5805 3981 5805 3981 
L 3123 3981 
L 3123 4256 
L 3123 5363 
L 2624 5363 
z
" transform="scale(0.015625)"/>
      <path id="NotoSansCJKjp-Regular-48f8" d="M 3123 4544 
C 2931 3904 2573 3322 2106 2950 
C 2214 2880 2394 2714 2470 2637 
C 2944 3059 3360 3712 3584 4442 
L 3123 4544 
z
M 3462 5120 
L 3462 4672 
L 4787 4672 
C 5024 3878 5434 3123 5926 2656 
C 6016 2778 6189 2950 6310 3040 
C 5792 3469 5350 4275 5146 5120 
L 3462 5120 
z
M 2714 2720 
L 2714 2272 
L 3520 2272 
C 3437 1165 3194 307 2074 -154 
C 2170 -237 2304 -403 2362 -512 
C 3584 26 3885 1005 3994 2272 
L 5229 2272 
C 5152 749 5056 160 4922 13 
C 4864 -58 4800 -70 4698 -70 
C 4576 -70 4282 -70 3968 -38 
C 4045 -166 4096 -358 4102 -493 
C 4416 -512 4730 -512 4902 -493 
C 5088 -474 5216 -435 5325 -288 
C 5530 -64 5619 621 5709 2496 
C 5722 2566 5722 2720 5722 2720 
L 2714 2720 
z
M 1158 5376 
L 1158 4090 
L 269 4090 
L 269 3635 
L 1158 3635 
L 1158 2240 
L 179 1971 
L 314 1504 
L 1158 1766 
L 1158 45 
C 1158 -51 1120 -77 1037 -77 
C 954 -83 691 -83 397 -77 
C 461 -205 525 -397 544 -512 
C 966 -512 1229 -499 1395 -429 
C 1562 -352 1619 -224 1619 45 
L 1619 1907 
L 2406 2157 
L 2342 2586 
L 1619 2374 
L 1619 3635 
L 2336 3635 
L 2336 4090 
L 1619 4090 
L 1619 5376 
L 1158 5376 
z
" transform="scale(0.015625)"/>
      <path id="NotoSansCJKjp-Regular-5e8b" d="M 4416 397 
C 4870 128 5466 -269 5754 -525 
L 6131 -237 
C 5818 19 5222 397 4774 646 
L 4416 397 
z
M 3206 608 
C 2861 301 2272 6 1754 -179 
C 1856 -262 2042 -442 2118 -531 
C 2630 -301 3258 70 3661 435 
L 3206 608 
z
M 563 4973 
C 960 4794 1446 4486 1690 4256 
L 1965 4653 
C 1722 4870 1229 5158 832 5325 
L 563 4973 
z
M 243 3238 
C 646 3072 1133 2784 1376 2573 
L 1658 2976 
C 1408 3181 909 3450 506 3603 
L 243 3238 
z
M 422 -134 
L 845 -429 
C 1184 166 1587 979 1888 1664 
L 1517 1952 
C 1184 1216 736 365 422 -134 
z
M 3789 5376 
L 3789 4768 
L 2067 4768 
L 2067 3725 
L 2509 3725 
L 2509 4358 
L 5594 4358 
L 5594 3725 
L 6048 3725 
L 6048 4768 
L 4269 4768 
L 4269 5376 
L 3789 5376 
z
M 2797 1632 
L 3802 1632 
L 3802 1088 
L 2797 1088 
L 2797 1632 
z
M 4256 1632 
L 5299 1632 
L 5299 1088 
L 4256 1088 
L 4256 1632 
z
M 2797 2534 
L 3802 2534 
L 3802 1990 
L 2797 1990 
L 2797 2534 
z
M 4256 2534 
L 5299 2534 
L 5299 1990 
L 4256 1990 
L 4256 2534 
z
M 2560 3782 
L 2560 3386 
L 3802 3386 
L 3802 2906 
L 2368 2906 
L 2368 710 
L 5747 710 
L 5747 2906 
L 4256 2906 
L 4256 3386 
L 5562 3386 
L 5562 3782 
L 2560 3782 
z
" transform="scale(0.015625)"/>
      <path id="NotoSansCJKjp-Regular-2eb8" d="M 2803 5389 
C 2714 5062 2554 4614 2394 4269 
L 634 4269 
L 634 -512 
L 1107 -512 
L 1107 3802 
L 5325 3802 
L 5325 128 
C 5325 13 5286 -26 5158 -26 
C 5024 -32 4582 -38 4122 -13 
C 4192 -154 4262 -378 4288 -512 
C 4877 -512 5274 -506 5504 -429 
C 5728 -346 5805 -192 5805 128 
L 5805 4269 
L 2925 4269 
C 3085 4576 3258 4947 3398 5293 
L 2803 5389 
z
M 2387 2522 
L 4006 2522 
L 4006 1267 
L 2387 1267 
L 2387 2522 
z
M 1946 2950 
L 1946 371 
L 2387 371 
L 2387 832 
L 4454 832 
L 4454 2950 
L 1946 2950 
z
" transform="scale(0.015625)"/>
      <path id="NotoSansCJKjp-Regular-444f" d="M 1952 3590 
L 1952 378 
C 1952 -250 2144 -429 2829 -429 
C 2970 -429 3923 -429 4077 -429 
C 4774 -429 4928 -70 4998 1139 
C 4858 1178 4659 1267 4544 1357 
C 4493 250 4435 19 4051 19 
C 3834 19 3034 19 2867 19 
C 2515 19 2445 70 2445 371 
L 2445 3590 
L 1952 3590 
z
M 2003 4979 
C 2771 4704 3706 4224 4198 3859 
L 4512 4282 
C 4006 4621 3072 5088 2304 5350 
L 2003 4979 
z
M 883 3072 
C 787 2240 582 1306 154 742 
L 589 486 
C 1043 1101 1248 2118 1344 2976 
L 883 3072 
z
M 4614 3072 
C 5152 2349 5632 1350 5779 678 
L 6253 902 
C 6099 1581 5619 2554 5043 3283 
L 4614 3072 
z
" transform="scale(0.015625)"/>
     </defs>
     <use xlink:href="#NotoSansCJKjp-Regular-33a8"/>
     <use xlink:href="#NotoSansCJKjp-Regular-9aec" transform="translate(100 0)"/>
     <use xlink:href="#NotoSansCJKjp-Regular-9df9" transform="translate(200 0)"/>
     <use xlink:href="#NotoSansCJKjp-Regular-e6c0" transform="translate(300 0)"/>
     <use xlink:href="#NotoSansCJKjp-Regular-86d2" transform="translate(400 0)"/>
     <use xlink:href="#NotoSansCJKjp-Regular-50d7" transform="translate(500 0)"/>
     <use xlink:href="#NotoSansCJKjp-Regular-4315" transform="translate(600 0)"/>
     <use xlink:href="#NotoSansCJKjp-Regular-2c71" transform="translate(700 0)"/>
     <use xlink:href="#NotoSansCJKjp-Regular-48f8" transform="translate(800 0)"/>
     <use xlink:href="#NotoSansCJKjp-Regular-5e8b" transform="translate(900 0)"/>
     <use xlink:href="#NotoSansCJKjp-Regular-2eb8" transform="translate(1000 0)"/>
     <use xlink:href="#NotoSansCJKjp-Regular-444f" transform="translate(1100 0)"/>
     <use xlink:href="#NotoSansCJKjp-Regular-2c71" transform="translate(1200 0)"/>
    </g>
   </g>
   <g id="patch_2">
    <path d="M 131.030137 185.673644 
C 134.095216 185.673644 137.035171 184.455875 139.202509 182.288536 
C 141.369847 180.121198 142.587616 177.181244 142.587616 174.116164 
C 142.587616 171.051085 141.369847 168.111131 139.202509 165.943792 
C 137.035171 163.776454 134.095216 162.558685 131.030137 162.558685 
C 127.965058 162.558685 125.025103 163.776454 122.857765 165.943792 
C 120.690426 168.111131 119.472658 171.051085 119.472658 174.116164 
C 119.472658 177.181244 120.690426 180.121198 122.857765 182.288536 
C 125.025103 184.455875 127.965058 185.673644 131.030137 185.673644 
z
" clip-path="url(#p243e835bde)" style="fill: #f0a202; stroke: #f0a202; stroke-linejoin: miter"/>
   </g>
   <g id="patch_3">
    <path d="M 131.030137 185.673644 
C 134.095216 185.673644 137.035171 184.455875 139.202509 182.288536 
C 141.369847 180.121198 142.587616 177.181244 142.587616 174.116164 
C 142.587616 171.051085 141.369847 168.111131 139.202509 165.943792 
C 137.035171 163.776454 134.095216 162.558685 131.030137 162.558685 
C 127.965058 162.558685 125.025103 163.776454 122.857765 165.943792 
C 120.690426 168.111131 119.472658 171.051085 119.472658 174.116164 
C 119.472658 177.181244 120.690426 180.121198 122.857765 182.288536 
C 125.025103 184.455875 127.965058 185.673644 131.030137 185.673644 
L 131.030137 185.673644 
z
" clip-path="url(#p243e835bde)" style="fill: none; stroke: #9a6700; stroke-width: 1.2; stroke-linejoin: miter"/>
   </g>
   <g id="text_2">
    <!-- 太陽 $M$ -->
    <g style="fill: #9a6700" transform="translate(111.830137 204.267726) scale(0.12 -0.12)">
     <defs>
      <path id="NotoSansCJKjp-Regular-3700" d="M 2458 928 
C 2912 544 3469 -6 3725 -365 
L 4154 -26 
C 3885 320 3315 851 2861 1210 
L 2458 928 
z
M 2893 5370 
C 2886 4883 2893 4294 2822 3674 
L 390 3674 
L 390 3187 
L 2752 3187 
C 2522 1914 1907 602 230 -115 
C 365 -218 518 -384 595 -512 
C 2285 256 2950 1613 3219 2950 
C 3706 1350 4538 102 5850 -525 
C 5926 -384 6086 -186 6208 -83 
C 4928 467 4083 1690 3642 3187 
L 6042 3187 
L 6042 3674 
L 3334 3674 
C 3398 4288 3405 4877 3411 5370 
L 2893 5370 
z
" transform="scale(0.015625)"/>
      <path id="NotoSansCJKjp-Regular-a8ca" d="M 3290 3917 
L 5165 3917 
L 5165 3405 
L 3290 3405 
L 3290 3917 
z
M 3290 4755 
L 5165 4755 
L 5165 4262 
L 3290 4262 
L 3290 4755 
z
M 2848 5120 
L 2848 3040 
L 5632 3040 
L 5632 5120 
L 2848 5120 
z
M 2285 2656 
L 2285 2259 
L 3130 2259 
C 2874 1722 2470 1267 1997 960 
C 2086 883 2246 736 2310 653 
C 2586 858 2854 1114 3085 1414 
L 3622 1414 
C 3302 806 2797 275 2246 -77 
C 2336 -147 2477 -307 2534 -390 
C 3136 38 3712 678 4064 1414 
L 4608 1414 
C 4378 749 3981 166 3488 -218 
C 3584 -282 3738 -429 3808 -493 
C 4333 -45 4774 634 5037 1414 
L 5466 1414 
C 5408 435 5325 51 5229 -58 
C 5184 -109 5133 -122 5050 -122 
C 4966 -122 4774 -115 4557 -96 
C 4614 -205 4659 -378 4672 -499 
C 4896 -518 5126 -512 5254 -499 
C 5402 -486 5504 -448 5600 -339 
C 5754 -160 5843 320 5920 1613 
C 5926 1677 5939 1805 5939 1805 
L 3347 1805 
C 3437 1952 3514 2099 3584 2259 
L 6150 2259 
L 6150 2656 
L 2285 2656 
z
M 518 5101 
L 518 -512 
L 947 -512 
L 947 4666 
L 1786 4666 
C 1651 4230 1459 3648 1274 3181 
C 1734 2682 1856 2253 1856 1901 
C 1856 1709 1818 1536 1722 1466 
C 1670 1427 1600 1414 1517 1408 
C 1414 1402 1293 1408 1146 1414 
C 1216 1293 1261 1107 1267 992 
C 1408 986 1568 992 1696 1005 
C 1830 1018 1939 1056 2029 1120 
C 2208 1242 2285 1510 2285 1856 
C 2285 2253 2176 2707 1709 3238 
C 1926 3750 2163 4403 2349 4934 
L 2035 5120 
L 1965 5101 
L 518 5101 
z
" transform="scale(0.015625)"/>
      <path id="NotoSansCJKjp-Regular-1" transform="scale(0.015625)"/>
      <path id="Cmmi10-2d" d="M 325 0 
Q 263 0 263 84 
Q 266 100 275 137 
Q 284 175 300 200 
Q 316 225 347 225 
Q 956 225 1056 616 
L 1888 3956 
Q 1900 4019 1900 4044 
Q 1900 4113 1825 4122 
Q 1703 4147 1363 4147 
Q 1300 4147 1300 4231 
Q 1303 4247 1312 4286 
Q 1322 4325 1339 4348 
Q 1356 4372 1381 4372 
L 2509 4372 
Q 2581 4372 2591 4300 
L 3091 634 
L 5422 4300 
Q 5466 4372 5544 4372 
L 6631 4372 
Q 6694 4372 6694 4288 
Q 6691 4272 6681 4233 
Q 6672 4194 6655 4170 
Q 6638 4147 6613 4147 
Q 6222 4147 6069 4103 
Q 5984 4075 5947 3928 
L 5069 416 
Q 5056 353 5056 325 
Q 5056 300 5064 283 
Q 5072 266 5086 261 
Q 5100 256 5131 250 
Q 5253 225 5594 225 
Q 5656 225 5656 141 
Q 5634 50 5621 25 
Q 5609 0 5550 0 
L 3878 0 
Q 3816 0 3816 84 
Q 3819 100 3828 139 
Q 3838 178 3855 201 
Q 3872 225 3897 225 
Q 4288 225 4441 269 
Q 4525 297 4563 441 
L 5484 4147 
L 2900 72 
Q 2863 0 2772 0 
Q 2691 0 2681 72 
L 2138 4097 
L 1259 588 
Q 1253 572 1250 548 
Q 1247 525 1241 494 
Q 1241 328 1386 276 
Q 1531 225 1741 225 
Q 1806 225 1806 141 
Q 1784 56 1770 28 
Q 1756 0 1697 0 
L 325 0 
z
" transform="scale(0.015625)"/>
     </defs>
     <use xlink:href="#NotoSansCJKjp-Regular-3700" transform="translate(0 0.09375)"/>
     <use xlink:href="#NotoSansCJKjp-Regular-a8ca" transform="translate(99.999908 0.09375)"/>
     <use xlink:href="#NotoSansCJKjp-Regular-1" transform="translate(199.999817 0.09375)"/>
     <use xlink:href="#Cmmi10-2d" transform="translate(222.399796 0.09375)"/>
    </g>
   </g>
   <g id="patch_4">
    <path d="M 203.755668 120.522006 
C 205.726076 120.522006 207.616047 119.739155 209.009336 118.345866 
C 210.402625 116.952577 211.185476 115.062606 211.185476 113.092198 
C 211.185476 111.12179 210.402625 109.231819 209.009336 107.83853 
C 207.616047 106.445241 205.726076 105.66239 203.755668 105.66239 
C 201.78526 105.66239 199.895289 106.445241 198.502 107.83853 
C 197.108711 109.231819 196.32586 111.12179 196.32586 113.092198 
C 196.32586 115.062606 197.108711 116.952577 198.502 118.345866 
C 199.895289 119.739155 201.78526 120.522006 203.755668 120.522006 
z
" clip-path="url(#p243e835bde)" style="fill: #1f6feb; stroke: #1f6feb; stroke-linejoin: miter"/>
   </g>
   <g id="text_3">
    <!-- 行星 $m$ -->
    <g style="fill: #1f6feb" transform="translate(221.091887 108.571321) scale(0.12 -0.12)">
     <defs>
      <path id="NotoSansCJKjp-Regular-8f66" d="M 2784 4992 
L 2784 4531 
L 5933 4531 
L 5933 4992 
L 2784 4992 
z
M 1709 5382 
C 1382 4915 762 4346 224 3981 
C 307 3891 442 3706 506 3597 
C 1082 4006 1741 4634 2170 5190 
L 1709 5382 
z
M 2502 3226 
L 2502 2765 
L 4659 2765 
L 4659 109 
C 4659 6 4614 -26 4493 -32 
C 4378 -38 3942 -38 3488 -19 
C 3558 -160 3629 -358 3648 -493 
C 4275 -493 4640 -493 4858 -422 
C 5069 -339 5146 -192 5146 102 
L 5146 2765 
L 6112 2765 
L 6112 3226 
L 2502 3226 
z
M 1965 4006 
C 1523 3277 819 2534 160 2061 
C 256 1965 429 1754 499 1658 
C 736 1850 986 2080 1229 2330 
L 1229 -531 
L 1702 -531 
L 1702 2854 
C 1971 3174 2214 3507 2419 3840 
L 1965 4006 
z
" transform="scale(0.015625)"/>
      <path id="NotoSansCJKjp-Regular-4f54" d="M 1549 3802 
L 4851 3802 
L 4851 3226 
L 1549 3226 
L 1549 3802 
z
M 1549 4730 
L 4851 4730 
L 4851 4166 
L 1549 4166 
L 1549 4730 
z
M 1082 5114 
L 1082 2842 
L 5344 2842 
L 5344 5114 
L 1082 5114 
z
M 1491 2835 
C 1235 2272 787 1715 320 1357 
C 435 1286 634 1146 723 1056 
C 947 1248 1178 1498 1389 1773 
L 2957 1773 
L 2957 1165 
L 1165 1165 
L 1165 774 
L 2957 774 
L 2957 77 
L 416 77 
L 416 -346 
L 5997 -346 
L 5997 77 
L 3456 77 
L 3456 774 
L 5325 774 
L 5325 1165 
L 3456 1165 
L 3456 1773 
L 5594 1773 
L 5594 2182 
L 3456 2182 
L 3456 2701 
L 2957 2701 
L 2957 2182 
L 1677 2182 
C 1786 2349 1882 2528 1965 2701 
L 1491 2835 
z
" transform="scale(0.015625)"/>
      <path id="Cmmi10-45" d="M 494 109 
Q 494 147 500 166 
L 978 2075 
Q 1025 2253 1025 2388 
Q 1025 2663 838 2663 
Q 638 2663 541 2423 
Q 444 2184 353 1819 
Q 353 1800 334 1789 
Q 316 1778 300 1778 
L 225 1778 
Q 203 1778 187 1801 
Q 172 1825 172 1844 
Q 241 2122 305 2315 
Q 369 2509 505 2668 
Q 641 2828 844 2828 
Q 1084 2828 1268 2676 
Q 1453 2525 1453 2291 
Q 1644 2541 1900 2684 
Q 2156 2828 2444 2828 
Q 2747 2828 2967 2673 
Q 3188 2519 3188 2234 
Q 3384 2513 3648 2670 
Q 3913 2828 4225 2828 
Q 4556 2828 4757 2648 
Q 4959 2469 4959 2138 
Q 4959 1875 4842 1503 
Q 4725 1131 4550 672 
Q 4459 450 4459 288 
Q 4459 97 4609 97 
Q 4859 97 5025 365 
Q 5191 634 5259 941 
Q 5278 978 5313 978 
L 5388 978 
Q 5413 978 5430 961 
Q 5447 944 5447 922 
Q 5447 916 5441 903 
Q 5353 541 5136 234 
Q 4919 -72 4594 -72 
Q 4369 -72 4209 83 
Q 4050 238 4050 459 
Q 4050 572 4103 709 
Q 4284 1191 4404 1569 
Q 4525 1947 4525 2234 
Q 4525 2413 4453 2538 
Q 4381 2663 4213 2663 
Q 3863 2663 3606 2448 
Q 3350 2234 3163 1881 
Q 3150 1819 3144 1784 
L 2731 141 
Q 2709 53 2632 -9 
Q 2556 -72 2463 -72 
Q 2388 -72 2330 -22 
Q 2272 28 2272 109 
Q 2272 147 2278 166 
L 2688 1797 
Q 2753 2059 2753 2234 
Q 2753 2413 2679 2538 
Q 2606 2663 2431 2663 
Q 2197 2663 2000 2559 
Q 1803 2456 1656 2286 
Q 1509 2116 1388 1881 
L 953 141 
Q 931 53 854 -9 
Q 778 -72 684 -72 
Q 606 -72 550 -22 
Q 494 28 494 109 
z
" transform="scale(0.015625)"/>
     </defs>
     <use xlink:href="#NotoSansCJKjp-Regular-8f66" transform="translate(0 0.90625)"/>
     <use xlink:href="#NotoSansCJKjp-Regular-4f54" transform="translate(99.999908 0.90625)"/>
     <use xlink:href="#NotoSansCJKjp-Regular-1" transform="translate(199.999817 0.90625)"/>
     <use xlink:href="#Cmmi10-45" transform="translate(222.399796 0.90625)"/>
    </g>
   </g>
   <g id="text_4">
    <!-- $r$ -->
    <g style="fill: #6b7280" transform="translate(152.845423 136.161168) scale(0.13 -0.13)">
     <defs>
      <path id="Cmmi10-84" d="M 494 109 
Q 494 147 500 166 
L 978 2075 
Q 1025 2253 1025 2388 
Q 1025 2663 838 2663 
Q 638 2663 541 2423 
Q 444 2184 353 1819 
Q 353 1800 334 1789 
Q 316 1778 300 1778 
L 225 1778 
Q 203 1778 187 1801 
Q 172 1825 172 1844 
Q 241 2122 305 2315 
Q 369 2509 505 2668 
Q 641 2828 844 2828 
Q 1066 2828 1233 2700 
Q 1400 2572 1441 2363 
Q 1603 2575 1811 2701 
Q 2019 2828 2266 2828 
Q 2469 2828 2623 2709 
Q 2778 2591 2778 2388 
Q 2778 2225 2676 2104 
Q 2575 1984 2406 1984 
Q 2303 1984 2233 2048 
Q 2163 2113 2163 2216 
Q 2163 2356 2266 2467 
Q 2369 2578 2503 2578 
Q 2400 2663 2253 2663 
Q 1978 2663 1775 2467 
Q 1572 2272 1409 1972 
L 953 141 
Q 931 53 854 -9 
Q 778 -72 684 -72 
Q 606 -72 550 -22 
Q 494 28 494 109 
z
" transform="scale(0.015625)"/>
     </defs>
     <use xlink:href="#Cmmi10-84" transform="translate(0 0.8125)"/>
    </g>
   </g>
   <g id="text_5">
    <!-- $F=\frac{GMm}{r^2}$ -->
    <g style="fill: #d1242f" transform="translate(178.265005 166.258616) scale(0.13 -0.13)">
     <defs>
      <path id="Cmmi10-42" d="M 300 0 
Q 238 0 238 84 
Q 241 100 250 139 
Q 259 178 276 201 
Q 294 225 319 225 
Q 709 225 863 269 
Q 947 297 984 441 
L 1863 3956 
Q 1875 4019 1875 4044 
Q 1875 4113 1797 4122 
Q 1678 4147 1338 4147 
Q 1275 4147 1275 4231 
Q 1278 4247 1287 4286 
Q 1297 4325 1314 4348 
Q 1331 4372 1356 4372 
L 4738 4372 
Q 4800 4372 4800 4288 
L 4647 2963 
Q 4647 2944 4625 2925 
Q 4603 2906 4581 2906 
L 4525 2906 
Q 4459 2906 4459 2988 
Q 4500 3278 4500 3463 
Q 4500 3781 4362 3931 
Q 4225 4081 4015 4114 
Q 3806 4147 3438 4147 
L 2753 4147 
Q 2578 4147 2522 4117 
Q 2466 4088 2419 3928 
L 2009 2297 
L 2491 2297 
Q 2728 2297 2875 2322 
Q 3022 2347 3119 2419 
Q 3216 2491 3280 2627 
Q 3344 2763 3397 2988 
Q 3416 3047 3463 3047 
L 3519 3047 
Q 3584 3047 3584 2963 
L 3194 1381 
Q 3166 1325 3128 1325 
L 3072 1325 
Q 3009 1325 3009 1409 
Q 3025 1475 3034 1519 
Q 3044 1563 3058 1645 
Q 3072 1728 3072 1791 
Q 3072 1975 2909 2025 
Q 2747 2075 2484 2075 
L 1959 2075 
L 1544 416 
Q 1528 353 1528 353 
Q 1528 278 1575 269 
Q 1741 225 2228 225 
Q 2291 225 2291 141 
Q 2269 50 2256 25 
Q 2244 0 2181 0 
L 300 0 
z
" transform="scale(0.015625)"/>
      <path id="Cmr10-29" d="M 481 850 
Q 428 850 393 890 
Q 359 931 359 978 
Q 359 1031 393 1068 
Q 428 1106 481 1106 
L 4500 1106 
Q 4547 1106 4581 1068 
Q 4616 1031 4616 978 
Q 4616 931 4581 890 
Q 4547 850 4500 850 
L 481 850 
z
M 481 2094 
Q 428 2094 393 2131 
Q 359 2169 359 2222 
Q 359 2269 393 2309 
Q 428 2350 481 2350 
L 4500 2350 
Q 4547 2350 4581 2309 
Q 4616 2269 4616 2222 
Q 4616 2169 4581 2131 
Q 4547 2094 4500 2094 
L 481 2094 
z
" transform="scale(0.015625)"/>
      <path id="Cmmi10-74" d="M 934 1403 
Q 934 1006 1092 707 
Q 1250 409 1547 246 
Q 1844 84 2234 84 
Q 2616 84 2959 264 
Q 3303 444 3391 781 
L 3531 1331 
Q 3534 1350 3537 1370 
Q 3541 1391 3541 1403 
Q 3541 1469 3500 1478 
Q 3341 1522 2859 1522 
Q 2797 1522 2797 1606 
Q 2816 1684 2831 1715 
Q 2847 1747 2906 1747 
L 4556 1747 
Q 4622 1747 4622 1663 
Q 4619 1647 4609 1609 
Q 4600 1572 4584 1547 
Q 4569 1522 4538 1522 
Q 4325 1522 4226 1487 
Q 4128 1453 4091 1306 
L 3950 756 
L 3769 44 
Q 3759 0 3713 0 
Q 3659 0 3559 144 
Q 3459 288 3419 384 
Q 3197 122 2825 -9 
Q 2453 -141 2059 -141 
Q 1563 -141 1164 84 
Q 766 309 545 709 
Q 325 1109 325 1613 
Q 325 2150 564 2673 
Q 803 3197 1212 3611 
Q 1622 4025 2142 4269 
Q 2663 4513 3194 4513 
Q 3406 4513 3601 4447 
Q 3797 4381 3964 4251 
Q 4131 4122 4238 3950 
L 4744 4500 
Q 4744 4513 4775 4513 
L 4813 4513 
Q 4838 4513 4855 4492 
Q 4872 4472 4872 4447 
L 4434 2719 
Q 4434 2675 4384 2675 
L 4269 2675 
Q 4219 2675 4219 2747 
Q 4244 2888 4244 3078 
Q 4244 3394 4137 3672 
Q 4031 3950 3806 4119 
Q 3581 4288 3256 4288 
Q 2741 4288 2303 4027 
Q 1866 3766 1562 3337 
Q 1259 2909 1096 2396 
Q 934 1884 934 1403 
z
" transform="scale(0.015625)"/>
      <path id="Cmr10-31" d="M 319 0 
L 319 172 
Q 319 188 331 206 
L 1325 1306 
Q 1550 1550 1690 1715 
Q 1831 1881 1968 2097 
Q 2106 2313 2186 2536 
Q 2266 2759 2266 3009 
Q 2266 3272 2169 3511 
Q 2072 3750 1880 3894 
Q 1688 4038 1416 4038 
Q 1138 4038 916 3870 
Q 694 3703 603 3438 
Q 628 3444 672 3444 
Q 816 3444 917 3347 
Q 1019 3250 1019 3097 
Q 1019 2950 917 2848 
Q 816 2747 672 2747 
Q 522 2747 420 2851 
Q 319 2956 319 3097 
Q 319 3338 409 3548 
Q 500 3759 670 3923 
Q 841 4088 1055 4175 
Q 1269 4263 1509 4263 
Q 1875 4263 2190 4108 
Q 2506 3953 2690 3670 
Q 2875 3388 2875 3009 
Q 2875 2731 2753 2481 
Q 2631 2231 2440 2026 
Q 2250 1822 1953 1562 
Q 1656 1303 1563 1216 
L 838 519 
L 1453 519 
Q 1906 519 2211 526 
Q 2516 534 2534 550 
Q 2609 631 2688 1141 
L 2875 1141 
L 2694 0 
L 319 0 
z
" transform="scale(0.015625)"/>
     </defs>
     <use xlink:href="#Cmmi10-42" transform="translate(0 0.721875)"/>
     <use xlink:href="#Cmr10-29" transform="translate(84.306698 0.721875)"/>
     <use xlink:href="#Cmmi10-74" transform="translate(188.242302 36.639063) scale(0.7)"/>
     <use xlink:href="#Cmmi10-2d" transform="translate(243.271599 36.639063) scale(0.7)"/>
     <use xlink:href="#Cmmi10-45" transform="translate(311.186638 36.639063) scale(0.7)"/>
     <use xlink:href="#Cmmi10-84" transform="translate(246.242302 -45.194183) scale(0.7)"/>
     <use xlink:href="#Cmr10-31" transform="translate(285.70646 -16.291719) scale(0.49)"/>
     <path d="M 188.242302 22.596875 
L 188.242302 28.846875 
L 372.641716 28.846875 
L 372.641716 22.596875 
L 188.242302 22.596875 
z
"/>
    </g>
   </g>
   <g id="text_6">
    <!-- $v$（切線方向） -->
    <g style="fill: #1a7f37" transform="translate(131.061089 62.58246) scale(0.12 -0.12)">
     <defs>
      <path id="Cmmi10-38" d="M 684 722 
Q 684 866 718 1037 
Q 753 1209 787 1320 
Q 822 1431 944 1753 
Q 1066 2075 1069 2088 
Q 1153 2322 1153 2472 
Q 1153 2663 1013 2663 
Q 759 2663 595 2402 
Q 431 2141 353 1819 
Q 341 1778 300 1778 
L 225 1778 
Q 172 1778 172 1838 
L 172 1856 
Q 275 2238 487 2533 
Q 700 2828 1025 2828 
Q 1253 2828 1411 2678 
Q 1569 2528 1569 2297 
Q 1569 2178 1516 2047 
Q 1391 1722 1319 1526 
Q 1247 1331 1186 1089 
Q 1125 847 1125 641 
Q 1125 400 1236 248 
Q 1347 97 1581 97 
Q 2025 97 2381 781 
Q 2494 1003 2594 1303 
Q 2694 1603 2694 1791 
Q 2694 1984 2631 2092 
Q 2569 2200 2469 2317 
Q 2369 2434 2369 2503 
Q 2369 2628 2472 2731 
Q 2575 2834 2700 2834 
Q 2853 2834 2920 2693 
Q 2988 2553 2988 2375 
Q 2988 2163 2927 1869 
Q 2866 1575 2758 1259 
Q 2650 944 2559 763 
Q 2138 -72 1575 -72 
Q 1172 -72 928 129 
Q 684 331 684 722 
z
" transform="scale(0.015625)"/>
      <path id="NotoSansCJKjp-Regular-e6ae" d="M 4448 2432 
C 4448 1184 4954 166 5722 -614 
L 6106 -416 
C 5370 346 4915 1293 4915 2432 
C 4915 3571 5370 4518 6106 5280 
L 5722 5478 
C 4954 4698 4448 3680 4448 2432 
z
" transform="scale(0.015625)"/>
      <path id="NotoSansCJKjp-Regular-2b89" d="M 2566 4813 
L 2566 4352 
L 3693 4352 
C 3661 2490 3558 730 1971 -160 
C 2099 -243 2253 -410 2323 -538 
C 3987 448 4128 2349 4173 4352 
L 5523 4352 
C 5446 1440 5357 371 5165 134 
C 5094 45 5030 19 4909 19 
C 4762 19 4429 19 4051 51 
C 4141 -83 4198 -301 4205 -442 
C 4544 -461 4902 -467 5114 -442 
C 5325 -416 5472 -358 5613 -154 
C 5862 166 5933 1261 6016 4544 
C 6016 4614 6016 4813 6016 4813 
L 2566 4813 
z
M 960 5197 
L 960 3482 
L 186 3315 
L 269 2880 
L 960 3027 
L 960 1440 
C 960 864 1088 710 1568 710 
C 1664 710 2144 710 2246 710 
C 2688 710 2797 986 2848 1875 
C 2720 1907 2528 1990 2419 2080 
C 2400 1331 2374 1165 2208 1165 
C 2106 1165 1715 1165 1638 1165 
C 1466 1165 1434 1203 1434 1434 
L 1434 3130 
L 2970 3456 
L 2886 3885 
L 1434 3578 
L 1434 5197 
L 960 5197 
z
" transform="scale(0.015625)"/>
      <path id="NotoSansCJKjp-Regular-7a17" d="M 3258 3405 
L 5414 3405 
L 5414 2848 
L 3258 2848 
L 3258 3405 
z
M 3258 4326 
L 5414 4326 
L 5414 3770 
L 3258 3770 
L 3258 4326 
z
M 1894 1632 
C 2048 1267 2182 781 2208 474 
L 2586 589 
C 2541 902 2406 1370 2246 1734 
L 1894 1632 
z
M 570 1715 
C 493 1158 378 582 166 192 
C 269 154 454 70 538 13 
C 736 422 890 1043 973 1651 
L 570 1715 
z
M 2816 4717 
L 2816 2451 
L 4109 2451 
L 4109 6 
C 4109 -64 4090 -83 4006 -90 
C 3930 -90 3674 -90 3386 -83 
C 3443 -211 3501 -384 3520 -506 
C 3917 -506 4173 -499 4339 -435 
C 4506 -358 4544 -237 4544 6 
L 4544 1325 
C 4819 717 5254 109 5952 -250 
C 6016 -128 6157 51 6246 141 
C 5754 358 5382 698 5114 1088 
C 5427 1306 5798 1613 6106 1894 
L 5715 2176 
C 5523 1946 5203 1645 4922 1408 
C 4742 1734 4627 2074 4544 2400 
L 4544 2451 
L 5875 2451 
L 5875 4717 
L 4365 4717 
C 4467 4890 4570 5088 4659 5280 
L 4128 5382 
C 4077 5190 3968 4934 3872 4717 
L 2816 4717 
z
M 2573 1901 
L 2573 1491 
L 3443 1491 
C 3219 826 2803 352 2291 77 
C 2381 13 2534 -154 2592 -250 
C 3226 115 3738 787 3962 1805 
L 3699 1914 
L 3622 1901 
L 2573 1901 
z
M 179 2547 
L 237 2118 
L 1248 2182 
L 1248 -512 
L 1670 -512 
L 1670 2208 
L 2176 2240 
C 2234 2086 2285 1946 2310 1824 
L 2694 2003 
C 2598 2349 2342 2906 2074 3322 
L 1722 3181 
C 1824 3014 1920 2829 2010 2637 
L 1088 2592 
C 1517 3136 2010 3866 2374 4454 
L 1971 4646 
C 1792 4301 1549 3878 1286 3475 
C 1190 3610 1075 3750 941 3898 
C 1178 4256 1459 4781 1677 5216 
L 1254 5376 
C 1120 5018 890 4531 685 4166 
L 486 4346 
L 237 4038 
C 525 3763 845 3398 1037 3104 
C 896 2912 762 2726 634 2566 
L 179 2547 
z
" transform="scale(0.015625)"/>
      <path id="NotoSansCJKjp-Regular-4ea0" d="M 2931 5395 
L 2931 4269 
L 339 4269 
L 339 3808 
L 2310 3808 
C 2240 2330 2054 666 269 -147 
C 397 -243 544 -416 621 -538 
C 1926 90 2438 1152 2669 2298 
L 4787 2298 
C 4685 819 4557 186 4371 19 
C 4294 -51 4211 -58 4064 -58 
C 3898 -58 3443 -51 2982 -13 
C 3078 -147 3142 -346 3155 -480 
C 3584 -506 4013 -512 4230 -499 
C 4480 -486 4634 -435 4781 -282 
C 5030 -26 5165 685 5293 2522 
C 5306 2598 5312 2758 5312 2758 
L 2746 2758 
C 2790 3110 2822 3462 2842 3808 
L 6067 3808 
L 6067 4269 
L 3424 4269 
L 3424 5395 
L 2931 5395 
z
" transform="scale(0.015625)"/>
      <path id="NotoSansCJKjp-Regular-e6af" d="M 1952 2432 
C 1952 3680 1446 4698 678 5478 
L 294 5280 
C 1030 4518 1485 3571 1485 2432 
C 1485 1293 1030 346 294 -416 
L 678 -614 
C 1446 166 1952 1184 1952 2432 
z
" transform="scale(0.015625)"/>
     </defs>
     <use xlink:href="#Cmmi10-38" transform="translate(0 0.40625)"/>
     <use xlink:href="#NotoSansCJKjp-Regular-e6ae" transform="translate(48.388672 0.40625)"/>
     <use xlink:href="#NotoSansCJKjp-Regular-2b89" transform="translate(148.38858 0.40625)"/>
     <use xlink:href="#NotoSansCJKjp-Regular-7a17" transform="translate(248.388489 0.40625)"/>
     <use xlink:href="#NotoSansCJKjp-Regular-4ea0" transform="translate(348.388397 0.40625)"/>
     <use xlink:href="#NotoSansCJKjp-Regular-2eb8" transform="translate(448.388306 0.40625)"/>
     <use xlink:href="#NotoSansCJKjp-Regular-e6af" transform="translate(548.388214 0.40625)"/>
    </g>
   </g>
   <g id="patch_5">
    <path d="M 203.755668 113.092198 
Q 183.993295 129.674798 166.286436 144.532617 
" clip-path="url(#p243e835bde)" style="fill: none; stroke: #d1242f; stroke-width: 2.4; stroke-linecap: round"/>
    <path d="M 174.115991 142.662306 
L 166.286436 144.532617 
L 169.48792 137.146786 
z
" clip-path="url(#p243e835bde)" style="fill: #d1242f; stroke: #d1242f; stroke-width: 2.4; stroke-linecap: round"/>
   </g>
   <g id="patch_6">
    <path d="M 203.755668 113.092198 
Q 185.846461 91.748836 169.662033 72.460986 
" clip-path="url(#p243e835bde)" style="fill: none; stroke: #1a7f37; stroke-width: 2.4; stroke-linecap: round"/>
    <path d="M 171.532344 80.290542 
L 169.662033 72.460986 
L 177.047864 75.662471 
z
" clip-path="url(#p243e835bde)" style="fill: #1a7f37; stroke: #1a7f37; stroke-width: 2.4; stroke-linecap: round"/>
   </g>
  </g>
 </g>
 <defs>
  <clipPath id="p243e835bde">
   <rect x="7.2" y="25.52" width="301.32" height="272.426301"/>
  </clipPath>
 </defs>
</svg>
