<?xml version="1.0" encoding="utf-8" standalone="no"?>
<!DOCTYPE svg PUBLIC "-//W3C//DTD SVG 1.1//EN"
  "http://www.w3.org/Graphics/SVG/1.1/DTD/svg11.dtd">
<svg xmlns:xlink="http://www.w3.org/1999/xlink" width="286.518438pt" height="298.832pt" viewBox="0 0 286.518438 298.832" xmlns="http://www.w3.org/2000/svg" version="1.1">
 <metadata>
  <rdf:RDF xmlns:dc="http://purl.org/dc/elements/1.1/" xmlns:cc="http://creativecommons.org/ns#" xmlns:rdf="http://www.w3.org/1999/02/22-rdf-syntax-ns#">
   <cc:Work>
    <dc:type rdf:resource="http://purl.org/dc/dcmitype/StillImage"/>
    <dc:date>2026-06-17T23:22:27.274270</dc:date>
    <dc:format>image/svg+xml</dc:format>
    <dc:creator>
     <cc:Agent>
      <dc:title>Matplotlib v3.11.0, https://matplotlib.org/</dc:title>
     </cc:Agent>
    </dc:creator>
   </cc:Work>
  </rdf:RDF>
 </metadata>
 <defs>
  <style type="text/css">*{stroke-linejoin: round; stroke-linecap: butt}</style>
 </defs>
 <g id="figure_1">
  <g id="patch_1">
   <path d="M 0 298.832 
L 286.518438 298.832 
L 286.518438 0 
L 0 0 
z
" style="fill: #ffffff"/>
  </g>
  <g id="axes_1">
   <g id="patch_2">
    <path d="M 40.35817 252.131 
L 237.844268 252.131 
L 237.844268 239.657 
L 40.35817 239.657 
z
" clip-path="url(#p52b863a505)" style="fill: url(#ha88a8a32c7); stroke: #222831; stroke-linejoin: miter"/>
   </g>
   <g id="line2d_1">
    <path d="M 81.93817 69.92744 
L 104.803389 69.92744 
" clip-path="url(#p52b863a505)" style="fill: none; stroke-dasharray: 0.8,1.32; stroke-dashoffset: 0; stroke: #9aa0a6; stroke-width: 0.8"/>
   </g>
   <g id="line2d_2">
    <path d="M 81.93817 90.88376 
L 127.668609 90.88376 
" clip-path="url(#p52b863a505)" style="fill: none; stroke-dasharray: 0.8,1.32; stroke-dashoffset: 0; stroke: #9aa0a6; stroke-width: 0.8"/>
   </g>
   <g id="line2d_3">
    <path d="M 81.93817 125.81096 
L 150.533829 125.81096 
" clip-path="url(#p52b863a505)" style="fill: none; stroke-dasharray: 0.8,1.32; stroke-dashoffset: 0; stroke: #9aa0a6; stroke-width: 0.8"/>
   </g>
   <g id="line2d_4">
    <path d="M 81.93817 174.70904 
L 173.399048 174.70904 
" clip-path="url(#p52b863a505)" style="fill: none; stroke-dasharray: 0.8,1.32; stroke-dashoffset: 0; stroke: #9aa0a6; stroke-width: 0.8"/>
   </g>
   <g id="line2d_5">
    <path d="M 81.93817 237.578 
L 196.264268 237.578 
" clip-path="url(#p52b863a505)" style="fill: none; stroke-dasharray: 0.8,1.32; stroke-dashoffset: 0; stroke: #9aa0a6; stroke-width: 0.8"/>
   </g>
   <g id="line2d_6">
    <path d="M 81.93817 62.942 
L 83.092979 62.959818 
L 84.247788 63.013273 
L 85.402597 63.102364 
L 86.557406 63.227091 
L 87.712215 63.387455 
L 88.867024 63.583455 
L 90.021833 63.815091 
L 91.176642 64.082364 
L 92.331451 64.385273 
L 93.48626 64.723818 
L 94.641069 65.098 
L 95.795878 65.507818 
L 96.950688 65.953273 
L 98.105497 66.434364 
L 99.260306 66.951091 
L 100.415115 67.503455 
L 101.569924 68.091455 
L 102.724733 68.715091 
L 103.879542 69.374364 
L 105.034351 70.069273 
L 106.18916 70.799818 
L 107.343969 71.566 
L 108.498778 72.367818 
L 109.653587 73.205273 
L 110.808396 74.078364 
L 111.963205 74.987091 
L 113.118015 75.931455 
L 114.272824 76.911455 
L 115.427633 77.927091 
L 116.582442 78.978364 
L 117.737251 80.065273 
L 118.89206 81.187818 
L 120.046869 82.346 
L 121.201678 83.539818 
L 122.356487 84.769273 
L 123.511296 86.034364 
L 124.666105 87.335091 
L 125.820914 88.671455 
L 126.975723 90.043455 
L 128.130533 91.451091 
L 129.285342 92.894364 
L 130.440151 94.373273 
L 131.59496 95.887818 
L 132.749769 97.438 
L 133.904578 99.023818 
L 135.059387 100.645273 
L 136.214196 102.302364 
L 137.369005 103.995091 
L 138.523814 105.723455 
L 139.678623 107.487455 
L 140.833432 109.287091 
L 141.988241 111.122364 
L 143.143051 112.993273 
L 144.29786 114.899818 
L 145.452669 116.842 
L 146.607478 118.819818 
L 147.762287 120.833273 
L 148.917096 122.882364 
L 150.071905 124.967091 
L 151.226714 127.087455 
L 152.381523 129.243455 
L 153.536332 131.435091 
L 154.691141 133.662364 
L 155.84595 135.925273 
L 157.000759 138.223818 
L 158.155568 140.558 
L 159.310378 142.927818 
L 160.465187 145.333273 
L 161.619996 147.774364 
L 162.774805 150.251091 
L 163.929614 152.763455 
L 165.084423 155.311455 
L 166.239232 157.895091 
L 167.394041 160.514364 
L 168.54885 163.169273 
L 169.703659 165.859818 
L 170.858468 168.586 
L 172.013277 171.347818 
L 173.168086 174.145273 
L 174.322896 176.978364 
L 175.477705 179.847091 
L 176.632514 182.751455 
L 177.787323 185.691455 
L 178.942132 188.667091 
L 180.096941 191.678364 
L 181.25175 194.725273 
L 182.406559 197.807818 
L 183.561368 200.926 
L 184.716177 204.079818 
L 185.870986 207.269273 
L 187.025795 210.494364 
L 188.180604 213.755091 
L 189.335414 217.051455 
L 190.490223 220.383455 
L 191.645032 223.751091 
L 192.799841 227.154364 
L 193.95465 230.593273 
L 195.109459 234.067818 
L 196.264268 237.578 
" clip-path="url(#p52b863a505)" style="fill: none; stroke-dasharray: 4.81,2.08; stroke-dashoffset: 0; stroke: #1f6feb; stroke-width: 1.3"/>
   </g>
   <g id="line2d_7">
    <path d="M 81.93817 62.942 
L 81.93817 237.578 
" clip-path="url(#p52b863a505)" style="fill: none; stroke-dasharray: 4.81,2.08; stroke-dashoffset: 0; stroke: #d1242f; stroke-width: 1.3"/>
   </g>
   <g id="line2d_8">
    <path d="M 40.35817 239.657 
L 237.844268 239.657 
" clip-path="url(#p52b863a505)" style="fill: none; stroke: #222831; stroke-width: 1.4; stroke-linecap: square"/>
   </g>
   <g id="text_1">
    <!-- 自由落下 -->
    <g style="fill: #d1242f" transform="translate(43.38517 52.547) scale(0.12 -0.12)">
     <defs>
      <path id="NotoSansCJKjp-Regular-8205" d="M 1530 2630 
L 4954 2630 
L 4954 1690 
L 1530 1690 
L 1530 2630 
z
M 1530 3085 
L 1530 4038 
L 4954 4038 
L 4954 3085 
L 1530 3085 
z
M 1530 1242 
L 4954 1242 
L 4954 294 
L 1530 294 
L 1530 1242 
z
M 2912 5389 
C 2861 5133 2758 4781 2662 4499 
L 1043 4499 
L 1043 -518 
L 1530 -518 
L 1530 -160 
L 4954 -160 
L 4954 -486 
L 5459 -486 
L 5459 4499 
L 3149 4499 
C 3258 4742 3366 5037 3469 5312 
L 2912 5389 
z
" transform="scale(0.015625)"/>
      <path id="NotoSansCJKjp-Regular-69ba" d="M 1210 1786 
L 2938 1786 
L 2938 365 
L 1210 365 
L 1210 1786 
z
M 5184 1786 
L 5184 365 
L 3424 365 
L 3424 1786 
L 5184 1786 
z
M 1210 2259 
L 1210 3654 
L 2938 3654 
L 2938 2259 
L 1210 2259 
z
M 5184 2259 
L 3424 2259 
L 3424 3654 
L 5184 3654 
L 5184 2259 
z
M 2938 5376 
L 2938 4134 
L 730 4134 
L 730 -512 
L 1210 -512 
L 1210 -115 
L 5184 -115 
L 5184 -486 
L 5683 -486 
L 5683 4134 
L 3424 4134 
L 3424 5376 
L 2938 5376 
z
" transform="scale(0.015625)"/>
      <path id="NotoSansCJKjp-Regular-86fd" d="M 397 -115 
L 742 -486 
C 1139 -13 1600 614 1965 1152 
L 1670 1491 
C 1267 915 749 269 397 -115 
z
M 698 3706 
C 1056 3520 1542 3219 1779 3027 
L 2067 3392 
C 1824 3584 1331 3859 973 4032 
L 698 3706 
z
M 262 2464 
C 646 2291 1120 2003 1357 1805 
L 1645 2170 
C 1408 2374 915 2643 544 2797 
L 262 2464 
z
M 3328 4166 
C 3053 3686 2547 3078 1882 2637 
C 1990 2573 2138 2438 2221 2342 
C 2483 2534 2720 2746 2931 2963 
C 3162 2739 3437 2515 3738 2317 
C 3162 2003 2509 1766 1907 1632 
C 1997 1536 2106 1357 2150 1235 
L 2579 1363 
L 2579 -512 
L 3034 -512 
L 3034 -237 
L 5062 -237 
L 5062 -512 
L 5536 -512 
L 5536 1402 
L 2701 1402 
C 3194 1568 3686 1786 4147 2061 
C 4717 1722 5344 1453 5933 1286 
C 6003 1402 6131 1581 6234 1683 
C 5677 1824 5088 2048 4550 2323 
C 5024 2656 5427 3059 5702 3520 
L 5402 3706 
L 5318 3686 
L 3539 3686 
C 3635 3814 3725 3942 3802 4070 
L 3328 4166 
z
M 3034 147 
L 3034 1018 
L 5062 1018 
L 5062 147 
L 3034 147 
z
M 5018 3309 
C 4787 3034 4486 2778 4141 2554 
C 3776 2771 3450 3021 3213 3270 
L 3245 3309 
L 5018 3309 
z
M 390 4928 
L 390 4499 
L 1843 4499 
L 1843 3955 
L 2310 3955 
L 2310 4499 
L 4051 4499 
L 4051 3955 
L 4518 3955 
L 4518 4499 
L 6022 4499 
L 6022 4928 
L 4518 4928 
L 4518 5376 
L 4051 5376 
L 4051 4928 
L 2310 4928 
L 2310 5376 
L 1843 5376 
L 1843 4928 
L 390 4928 
z
" transform="scale(0.015625)"/>
      <path id="NotoSansCJKjp-Regular-2516" d="M 352 4902 
L 352 4422 
L 2822 4422 
L 2822 -506 
L 3328 -506 
L 3328 2886 
C 4064 2490 4922 1958 5370 1600 
L 5709 2035 
C 5197 2426 4179 3002 3418 3373 
L 3328 3270 
L 3328 4422 
L 6054 4422 
L 6054 4902 
L 352 4902 
z
" transform="scale(0.015625)"/>
     </defs>
     <use xlink:href="#NotoSansCJKjp-Regular-8205"/>
     <use xlink:href="#NotoSansCJKjp-Regular-69ba" transform="translate(100 0)"/>
     <use xlink:href="#NotoSansCJKjp-Regular-86fd" transform="translate(200 0)"/>
     <use xlink:href="#NotoSansCJKjp-Regular-2516" transform="translate(300 0)"/>
    </g>
   </g>
   <g id="text_2">
    <!-- 水平拋出 -->
    <g style="fill: #1f6feb" transform="translate(95.36017 52.547) scale(0.12 -0.12)">
     <defs>
      <path id="NotoSansCJKjp-Regular-59e1" d="M 352 3738 
L 352 3251 
L 2029 3251 
C 1709 1971 1030 1011 186 486 
C 307 416 493 224 576 109 
C 1517 742 2298 1946 2624 3629 
L 2298 3757 
L 2208 3738 
L 352 3738 
z
M 5523 4339 
C 5146 3827 4525 3187 4000 2739 
C 3782 3194 3603 3686 3462 4192 
L 3462 5363 
L 2957 5363 
L 2957 166 
C 2957 45 2912 6 2784 0 
C 2656 -6 2246 -6 1779 6 
C 1856 -134 1952 -378 1978 -518 
C 2573 -518 2938 -499 3155 -416 
C 3373 -326 3462 -173 3462 166 
L 3462 2925 
C 3974 1606 4742 525 5850 -19 
C 5939 122 6099 320 6221 416 
C 5370 787 4704 1485 4205 2349 
C 4762 2790 5453 3462 5965 4026 
L 5523 4339 
z
" transform="scale(0.015625)"/>
      <path id="NotoSansCJKjp-Regular-41d6" d="M 1114 4032 
C 1363 3558 1613 2938 1702 2554 
L 2157 2714 
C 2067 3085 1805 3699 1549 4160 
L 1114 4032 
z
M 4832 4192 
C 4672 3725 4378 3072 4134 2669 
L 4550 2534 
C 4800 2918 5101 3533 5338 4051 
L 4832 4192 
z
M 333 2227 
L 333 1747 
L 2938 1747 
L 2938 -506 
L 3437 -506 
L 3437 1747 
L 6074 1747 
L 6074 2227 
L 3437 2227 
L 3437 4467 
L 5715 4467 
L 5715 4947 
L 672 4947 
L 672 4467 
L 2938 4467 
L 2938 2227 
L 333 2227 
z
" transform="scale(0.015625)"/>
      <path id="NotoSansCJKjp-Regular-497f" d="M 3078 3149 
L 3078 326 
C 3078 -51 3187 -160 3386 -243 
C 3565 -314 3834 -339 4077 -339 
C 4218 -339 4806 -339 4947 -339 
C 5178 -339 5478 -320 5638 -288 
C 5830 -243 5958 -173 6029 -45 
C 6099 83 6138 403 6150 691 
C 6035 723 5894 794 5805 864 
C 5805 582 5786 352 5754 262 
C 5715 186 5600 147 5491 128 
C 5382 115 5158 109 4966 109 
C 4717 109 4301 109 4115 109 
C 3930 109 3789 115 3680 147 
C 3558 166 3507 218 3507 326 
L 3507 3149 
L 3078 3149 
z
M 934 5376 
L 934 4083 
L 307 4083 
L 307 3635 
L 934 3635 
L 934 2221 
L 250 1978 
L 378 1517 
L 934 1734 
L 934 70 
C 934 -13 909 -32 832 -32 
C 762 -38 544 -38 294 -32 
C 352 -154 403 -346 422 -461 
C 781 -461 1005 -448 1152 -371 
C 1286 -294 1344 -173 1344 77 
L 1344 1901 
L 1888 2118 
L 1805 2554 
L 1344 2374 
L 1344 3635 
L 1805 3635 
L 1805 4083 
L 1344 4083 
L 1344 5376 
L 934 5376 
z
M 2560 5389 
L 2560 4154 
L 1997 4154 
L 1997 3738 
L 2560 3738 
L 2560 3680 
C 2560 2394 2464 922 1408 -256 
C 1523 -307 1690 -429 1779 -506 
C 2874 736 2982 2310 2982 3686 
L 2982 3738 
L 3706 3738 
L 3706 4154 
L 2982 4154 
L 2982 5389 
L 2560 5389 
z
M 4518 5370 
C 4512 4954 4506 4550 4493 4154 
L 3910 4154 
L 3910 3725 
L 4467 3725 
C 4397 2560 4192 1542 3603 896 
C 3712 832 3859 691 3923 595 
C 4570 1325 4794 2438 4877 3725 
L 5459 3725 
C 5421 1926 5370 1286 5267 1133 
C 5216 1062 5178 1050 5094 1050 
C 4998 1050 4800 1050 4582 1075 
C 4640 960 4685 787 4685 659 
C 4909 646 5133 653 5267 666 
C 5421 685 5530 730 5626 864 
C 5779 1088 5824 1792 5875 3942 
C 5875 4006 5875 4154 5875 4154 
L 4902 4154 
C 4922 4550 4928 4954 4934 5370 
L 4518 5370 
z
" transform="scale(0.015625)"/>
      <path id="NotoSansCJKjp-Regular-2b73" d="M 966 4768 
L 966 2560 
L 2918 2560 
L 2918 365 
L 1203 365 
L 1203 2144 
L 723 2144 
L 723 -512 
L 1203 -512 
L 1203 -109 
L 5222 -109 
L 5222 -499 
L 5715 -499 
L 5715 2144 
L 5222 2144 
L 5222 365 
L 3418 365 
L 3418 2560 
L 5459 2560 
L 5459 4768 
L 4960 4768 
L 4960 3021 
L 3418 3021 
L 3418 5344 
L 2918 5344 
L 2918 3021 
L 1446 3021 
L 1446 4768 
L 966 4768 
z
" transform="scale(0.015625)"/>
     </defs>
     <use xlink:href="#NotoSansCJKjp-Regular-59e1"/>
     <use xlink:href="#NotoSansCJKjp-Regular-41d6" transform="translate(100 0)"/>
     <use xlink:href="#NotoSansCJKjp-Regular-497f" transform="translate(200 0)"/>
     <use xlink:href="#NotoSansCJKjp-Regular-2b73" transform="translate(300 0)"/>
    </g>
   </g>
   <g id="text_3">
    <!-- 兩球的鉛直運動完全相同 → 同時落地 -->
    <g style="fill: #222831" transform="translate(36.300438 275) scale(0.125 -0.125)">
     <defs>
      <path id="NotoSansCJKjp-Regular-2a94" d="M 1568 2784 
L 1568 2445 
L 1971 2445 
C 1875 1683 1651 1050 1222 634 
C 1299 589 1440 480 1498 429 
C 1779 723 1990 1114 2138 1581 
C 2221 1171 2381 774 2662 435 
C 2720 506 2854 608 2931 653 
C 2374 1293 2330 2112 2330 2784 
L 1568 2784 
z
M 442 4992 
L 442 4518 
L 2938 4518 
L 2938 3718 
L 672 3718 
L 672 -499 
L 1133 -499 
L 1133 3264 
L 2938 3264 
L 2938 -480 
L 3398 -480 
L 3398 3264 
L 5299 3264 
L 5299 58 
C 5299 -38 5267 -70 5171 -70 
C 5069 -77 4736 -77 4384 -64 
C 4448 -186 4525 -371 4550 -499 
C 5005 -499 5325 -493 5517 -416 
C 5709 -346 5766 -211 5766 51 
L 5766 3718 
L 3398 3718 
L 3398 4518 
L 5990 4518 
L 5990 4992 
L 442 4992 
z
M 3802 2784 
L 3802 2445 
L 4218 2445 
C 4115 1709 3891 1088 3482 678 
C 3571 634 3706 525 3763 467 
C 4038 768 4243 1158 4384 1626 
C 4474 1203 4640 794 4947 454 
C 5011 518 5146 621 5229 659 
C 4640 1293 4589 2112 4589 2784 
L 3802 2784 
z
" transform="scale(0.015625)"/>
      <path id="NotoSansCJKjp-Regular-6776" d="M 1888 582 
L 2144 154 
C 2605 454 3194 851 3725 1229 
L 3578 1626 
C 2963 1229 2317 819 1888 582 
z
M 2406 3213 
C 2694 2842 2995 2342 3117 2022 
L 3507 2214 
C 3386 2541 3072 3027 2784 3379 
L 2406 3213 
z
M 5670 3450 
C 5466 3078 5107 2554 4838 2240 
L 5178 2042 
C 5459 2342 5811 2816 6093 3219 
L 5670 3450 
z
M 4806 5056 
C 5146 4858 5542 4550 5741 4326 
L 6022 4621 
C 5824 4838 5408 5133 5069 5318 
L 4806 5056 
z
M 205 768 
L 339 307 
C 928 506 1715 774 2451 1037 
L 2387 1459 
L 1555 1190 
L 1555 2586 
L 2278 2586 
L 2278 3034 
L 1555 3034 
L 1555 4384 
L 2374 4384 
L 2374 4832 
L 294 4832 
L 294 4384 
L 1088 4384 
L 1088 3034 
L 371 3034 
L 371 2586 
L 1088 2586 
L 1088 1043 
L 205 768 
z
M 3917 5382 
L 3917 4237 
L 2253 4237 
L 2253 3795 
L 3917 3795 
L 3917 96 
C 3917 -13 3872 -45 3770 -51 
C 3667 -51 3341 -58 2970 -45 
C 3040 -173 3123 -384 3142 -506 
C 3648 -506 3942 -493 4128 -416 
C 4301 -333 4378 -192 4378 96 
L 4378 1920 
C 4698 1101 5178 486 5958 -70 
C 6022 58 6150 211 6266 301 
C 5120 1069 4634 1971 4378 3584 
L 4378 3795 
L 6176 3795 
L 6176 4237 
L 4378 4237 
L 4378 5382 
L 3917 5382 
z
" transform="scale(0.015625)"/>
      <path id="NotoSansCJKjp-Regular-6c33" d="M 3533 2707 
C 3885 2240 4320 1600 4512 1210 
L 4922 1466 
C 4710 1843 4269 2464 3904 2918 
L 3533 2707 
z
M 1536 5389 
C 1485 5082 1376 4659 1274 4346 
L 557 4346 
L 557 -346 
L 998 -346 
L 998 160 
L 2784 160 
L 2784 4346 
L 1715 4346 
C 1824 4621 1946 4979 2054 5299 
L 1536 5389 
z
M 998 3917 
L 2342 3917 
L 2342 2566 
L 998 2566 
L 998 3917 
z
M 998 595 
L 998 2144 
L 2342 2144 
L 2342 595 
L 998 595 
z
M 3827 5402 
C 3622 4518 3277 3635 2835 3066 
C 2950 3002 3149 2867 3238 2790 
C 3456 3098 3661 3488 3840 3923 
L 5478 3923 
C 5402 1357 5299 371 5094 154 
C 5018 64 4947 45 4819 45 
C 4672 45 4288 51 3866 83 
C 3955 -38 4013 -243 4026 -378 
C 4384 -397 4762 -410 4979 -390 
C 5210 -365 5350 -314 5498 -122 
C 5754 192 5843 1184 5939 4122 
C 5946 4186 5946 4365 5946 4365 
L 4013 4365 
C 4115 4666 4211 4986 4288 5299 
L 3827 5402 
z
" transform="scale(0.015625)"/>
      <path id="NotoSansCJKjp-Regular-a209" d="M 3738 5280 
C 3590 4275 3296 3379 2771 2810 
C 2886 2739 3091 2598 3168 2522 
C 3699 3149 4032 4109 4205 5216 
L 3738 5280 
z
M 5184 5312 
L 4768 5222 
C 4979 4160 5363 3098 5888 2534 
C 5971 2656 6131 2835 6246 2918 
C 5760 3398 5376 4378 5184 5312 
z
M 518 1830 
C 653 1446 755 960 774 634 
L 1139 730 
C 1107 1050 998 1536 858 1914 
L 518 1830 
z
M 2381 1990 
C 2317 1645 2189 1126 2080 813 
L 2394 717 
C 2509 1018 2650 1491 2771 1882 
L 2381 1990 
z
M 3213 2272 
L 3213 -506 
L 3654 -506 
L 3654 -134 
L 5389 -134 
L 5389 -480 
L 5850 -480 
L 5850 2272 
L 3213 2272 
z
M 3654 307 
L 3654 1830 
L 5389 1830 
L 5389 307 
L 3654 307 
z
M 1395 5376 
C 1171 4864 749 4211 141 3725 
C 237 3661 378 3514 448 3411 
L 710 3648 
L 710 3379 
L 1434 3379 
L 1434 2701 
L 384 2701 
L 384 2278 
L 1434 2278 
L 1434 326 
L 282 115 
L 397 -320 
C 1075 -186 2029 6 2918 192 
L 2893 602 
L 1862 403 
L 1862 2278 
L 2816 2278 
L 2816 2701 
L 1862 2701 
L 1862 3379 
L 2650 3379 
L 2650 3795 
L 851 3795 
C 1216 4179 1485 4589 1683 4934 
C 2061 4595 2470 4115 2682 3808 
L 3008 4179 
C 2765 4512 2246 5024 1830 5376 
L 1395 5376 
z
" transform="scale(0.015625)"/>
      <path id="NotoSansCJKjp-Regular-6ce1" d="M 2374 2586 
L 4832 2586 
L 4832 2061 
L 2374 2061 
L 2374 2586 
z
M 2374 1715 
L 4832 1715 
L 4832 1178 
L 2374 1178 
L 2374 1715 
z
M 2374 3456 
L 4832 3456 
L 4832 2931 
L 2374 2931 
L 2374 3456 
z
M 736 3635 
L 736 -518 
L 1203 -518 
L 1203 -179 
L 6080 -179 
L 6080 269 
L 1203 269 
L 1203 3635 
L 736 3635 
z
M 3053 5395 
L 3008 4787 
L 397 4787 
L 397 4339 
L 2963 4339 
L 2899 3814 
L 1914 3814 
L 1914 813 
L 5306 813 
L 5306 3814 
L 3379 3814 
L 3469 4339 
L 6029 4339 
L 6029 4787 
L 3533 4787 
L 3603 5363 
L 3053 5395 
z
" transform="scale(0.015625)"/>
      <path id="NotoSansCJKjp-Regular-9dde" d="M 358 4947 
C 749 4640 1184 4186 1370 3866 
L 1760 4166 
C 1568 4480 1114 4922 723 5216 
L 358 4947 
z
M 1984 5152 
L 1984 4320 
L 2419 4320 
L 2419 4787 
L 5504 4787 
L 5504 4320 
L 5958 4320 
L 5958 5152 
L 1984 5152 
z
M 1574 2848 
L 294 2848 
L 294 2400 
L 1107 2400 
L 1107 742 
C 819 474 499 205 230 13 
L 480 -461 
C 794 -179 1088 96 1370 371 
C 1773 -134 2355 -358 3200 -390 
C 3917 -416 5286 -403 6003 -378 
C 6022 -230 6099 -13 6157 96 
C 5382 45 3904 26 3194 58 
C 2438 90 1875 307 1574 781 
L 1574 2848 
z
M 2746 2368 
L 3718 2368 
L 3718 1933 
L 2746 1933 
L 2746 2368 
z
M 4186 2368 
L 5178 2368 
L 5178 1933 
L 4186 1933 
L 4186 2368 
z
M 2746 3104 
L 3718 3104 
L 3718 2682 
L 2746 2682 
L 2746 3104 
z
M 4186 3104 
L 5178 3104 
L 5178 2682 
L 4186 2682 
L 4186 3104 
z
M 1882 1216 
L 1882 845 
L 3718 845 
L 3718 237 
L 4186 237 
L 4186 845 
L 6067 845 
L 6067 1216 
L 4186 1216 
L 4186 1606 
L 5619 1606 
L 5619 3430 
L 4186 3430 
L 4186 3821 
L 5798 3821 
L 5798 4179 
L 4186 4179 
L 4186 4627 
L 3718 4627 
L 3718 4179 
L 2125 4179 
L 2125 3821 
L 3718 3821 
L 3718 3430 
L 2323 3430 
L 2323 1606 
L 3718 1606 
L 3718 1216 
L 1882 1216 
z
" transform="scale(0.015625)"/>
      <path id="NotoSansCJKjp-Regular-2cc2" d="M 4192 5293 
C 4192 4806 4192 4333 4179 3878 
L 3418 3878 
L 3418 3437 
L 4166 3437 
C 4109 2227 3942 1184 3386 422 
L 3386 448 
L 2099 314 
L 2099 826 
L 3360 826 
L 3360 1197 
L 2099 1197 
L 2099 1587 
L 3347 1587 
L 3347 3501 
L 2099 3501 
L 2099 3904 
L 3469 3904 
L 3469 4282 
L 2099 4282 
L 2099 4755 
C 2566 4806 3008 4864 3354 4941 
L 3117 5312 
C 2451 5158 1286 5043 339 4998 
C 384 4896 435 4742 454 4640 
C 832 4653 1248 4678 1658 4710 
L 1658 4282 
L 269 4282 
L 269 3904 
L 1658 3904 
L 1658 3501 
L 461 3501 
L 461 1587 
L 1658 1587 
L 1658 1197 
L 442 1197 
L 442 826 
L 1658 826 
L 1658 269 
L 269 141 
L 333 -282 
C 1056 -205 2054 -90 3034 26 
C 2950 -51 2854 -128 2758 -198 
C 2874 -275 3040 -435 3110 -544 
C 4256 307 4544 1722 4627 3437 
L 5536 3437 
C 5472 1094 5395 243 5242 51 
C 5184 -32 5120 -45 5018 -45 
C 4896 -45 4608 -45 4294 -19 
C 4371 -147 4422 -346 4435 -480 
C 4736 -493 5037 -499 5222 -474 
C 5414 -454 5542 -403 5651 -230 
C 5869 38 5933 934 6003 3642 
C 6003 3699 6003 3878 6003 3878 
L 4640 3878 
C 4653 4333 4659 4806 4659 5293 
L 4192 5293 
z
M 858 2387 
L 1658 2387 
L 1658 1920 
L 858 1920 
L 858 2387 
z
M 2099 2387 
L 2938 2387 
L 2938 1920 
L 2099 1920 
L 2099 2387 
z
M 858 3168 
L 1658 3168 
L 1658 2707 
L 858 2707 
L 858 3168 
z
M 2099 3168 
L 2938 3168 
L 2938 2707 
L 2099 2707 
L 2099 3168 
z
" transform="scale(0.015625)"/>
      <path id="NotoSansCJKjp-Regular-3c6d" d="M 1459 3520 
L 1459 3078 
L 4941 3078 
L 4941 3520 
L 1459 3520 
z
M 358 2342 
L 358 1888 
L 2022 1888 
C 1907 915 1594 230 218 -115 
C 326 -211 454 -403 506 -525 
C 2010 -109 2394 717 2541 1888 
L 3661 1888 
L 3661 256 
C 3661 -256 3814 -397 4410 -397 
C 4531 -397 5274 -397 5395 -397 
C 5914 -397 6048 -179 6106 704 
C 5978 736 5773 813 5670 896 
C 5645 154 5606 45 5357 45 
C 5197 45 4582 45 4454 45 
C 4192 45 4147 77 4147 262 
L 4147 1888 
L 6035 1888 
L 6035 2342 
L 358 2342 
z
M 512 4691 
L 512 3334 
L 998 3334 
L 998 4230 
L 5382 4230 
L 5382 3334 
L 5894 3334 
L 5894 4691 
L 3437 4691 
L 3437 5376 
L 2931 5376 
L 2931 4691 
L 512 4691 
z
" transform="scale(0.015625)"/>
      <path id="NotoSansCJKjp-Regular-2a92" d="M 3174 4909 
C 3750 4102 4877 3155 5862 2579 
C 5952 2720 6067 2880 6182 3002 
C 5184 3501 4064 4442 3392 5389 
L 2906 5389 
C 2413 4550 1344 3533 237 2925 
C 346 2829 480 2656 544 2547 
C 1619 3174 2656 4128 3174 4909 
z
M 486 102 
L 486 -333 
L 5946 -333 
L 5946 102 
L 3430 102 
L 3430 1158 
L 5376 1158 
L 5376 1587 
L 3430 1587 
L 3430 2586 
L 5133 2586 
L 5133 3014 
L 1299 3014 
L 1299 2586 
L 2931 2586 
L 2931 1587 
L 1011 1587 
L 1011 1158 
L 2931 1158 
L 2931 102 
L 486 102 
z
" transform="scale(0.015625)"/>
      <path id="NotoSansCJKjp-Regular-6ce8" d="M 3494 3034 
L 5440 3034 
L 5440 1920 
L 3494 1920 
L 3494 3034 
z
M 3494 3469 
L 3494 4544 
L 5440 4544 
L 5440 3469 
L 3494 3469 
z
M 3494 1478 
L 5440 1478 
L 5440 365 
L 3494 365 
L 3494 1478 
z
M 3027 4998 
L 3027 -467 
L 3494 -467 
L 3494 -77 
L 5440 -77 
L 5440 -448 
L 5926 -448 
L 5926 4998 
L 3027 4998 
z
M 1370 5376 
L 1370 4006 
L 333 4006 
L 333 3546 
L 1312 3546 
C 1088 2662 634 1651 186 1120 
C 262 1005 384 813 435 685 
C 781 1126 1120 1837 1370 2573 
L 1370 -506 
L 1837 -506 
L 1837 2419 
C 2080 2106 2368 1709 2490 1498 
L 2784 1888 
C 2643 2061 2061 2746 1837 2970 
L 1837 3546 
L 2752 3546 
L 2752 4006 
L 1837 4006 
L 1837 5376 
L 1370 5376 
z
" transform="scale(0.015625)"/>
      <path id="NotoSansCJKjp-Regular-2eb1" d="M 1587 3917 
L 1587 3501 
L 4838 3501 
L 4838 3917 
L 1587 3917 
z
M 2355 2419 
L 4045 2419 
L 4045 1203 
L 2355 1203 
L 2355 2419 
z
M 1914 2829 
L 1914 326 
L 2355 326 
L 2355 794 
L 4493 794 
L 4493 2829 
L 1914 2829 
z
M 563 5043 
L 563 -525 
L 1030 -525 
L 1030 4589 
L 5376 4589 
L 5376 102 
C 5376 -13 5338 -51 5222 -58 
C 5114 -58 4742 -64 4339 -51 
C 4416 -173 4486 -390 4512 -518 
C 5062 -518 5389 -506 5581 -429 
C 5779 -352 5850 -198 5850 96 
L 5850 5043 
L 563 5043 
z
" transform="scale(0.015625)"/>
      <path id="NotoSansCJKjp-Regular-1" transform="scale(0.015625)"/>
      <path id="NotoSansCJKjp-Regular-31c" d="M 5190 2650 
L 256 2650 
L 256 2214 
L 5190 2214 
C 4864 1965 4442 1562 4154 1165 
L 4538 941 
C 4966 1504 5606 2067 6176 2432 
C 5606 2797 4966 3360 4538 3923 
L 4154 3699 
C 4442 3302 4864 2899 5190 2650 
z
" transform="scale(0.015625)"/>
      <path id="NotoSansCJKjp-Regular-4f87" d="M 2848 1338 
C 3174 998 3520 525 3661 211 
L 4070 461 
C 3923 781 3558 1235 3232 1562 
L 2848 1338 
z
M 4038 5382 
L 4038 4614 
L 2694 4614 
L 2694 4186 
L 4038 4186 
L 4038 3373 
L 2426 3373 
L 2426 2938 
L 4883 2938 
L 4883 2214 
L 2458 2214 
L 2458 1786 
L 4883 1786 
L 4883 64 
C 4883 -32 4851 -58 4749 -58 
C 4646 -64 4282 -64 3891 -51 
C 3962 -186 4032 -378 4051 -506 
C 4570 -506 4890 -499 5094 -422 
C 5293 -352 5357 -218 5357 58 
L 5357 1786 
L 6106 1786 
L 6106 2214 
L 5357 2214 
L 5357 2938 
L 6170 2938 
L 6170 3373 
L 4512 3373 
L 4512 4186 
L 5901 4186 
L 5901 4614 
L 4512 4614 
L 4512 5382 
L 4038 5382 
z
M 1862 2662 
L 1862 1184 
L 934 1184 
L 934 2662 
L 1862 2662 
z
M 1862 3098 
L 934 3098 
L 934 4518 
L 1862 4518 
L 1862 3098 
z
M 486 4960 
L 486 224 
L 934 224 
L 934 749 
L 2317 749 
L 2317 4960 
L 486 4960 
z
" transform="scale(0.015625)"/>
      <path id="NotoSansCJKjp-Regular-33d0" d="M 2746 4781 
L 2746 3027 
L 2054 2739 
L 2234 2310 
L 2746 2528 
L 2746 506 
C 2746 -192 2957 -365 3693 -365 
C 3859 -365 5094 -365 5274 -365 
C 5939 -365 6099 -83 6170 800 
C 6042 819 5850 896 5741 979 
C 5696 243 5632 70 5254 70 
C 4998 70 3923 70 3712 70 
C 3283 70 3206 141 3206 493 
L 3206 2726 
L 4064 3091 
L 4064 915 
L 4518 915 
L 4518 3283 
L 5414 3667 
C 5414 2637 5402 1926 5370 1773 
C 5338 1626 5280 1600 5178 1600 
C 5114 1600 4902 1600 4749 1613 
C 4806 1504 4845 1318 4864 1190 
C 5043 1190 5299 1190 5466 1242 
C 5658 1286 5779 1402 5818 1664 
C 5862 1914 5875 2874 5875 4077 
L 5901 4166 
L 5562 4294 
L 5472 4224 
L 5376 4134 
L 4518 3776 
L 4518 5376 
L 4064 5376 
L 4064 3584 
L 3206 3226 
L 3206 4781 
L 2746 4781 
z
M 211 986 
L 403 506 
C 966 755 1696 1082 2381 1402 
L 2272 1830 
L 1542 1523 
L 1542 3379 
L 2298 3379 
L 2298 3834 
L 1542 3834 
L 1542 5299 
L 1088 5299 
L 1088 3834 
L 269 3834 
L 269 3379 
L 1088 3379 
L 1088 1331 
C 755 1197 454 1075 211 986 
z
" transform="scale(0.015625)"/>
     </defs>
     <use xlink:href="#NotoSansCJKjp-Regular-2a94"/>
     <use xlink:href="#NotoSansCJKjp-Regular-6776" transform="translate(100 0)"/>
     <use xlink:href="#NotoSansCJKjp-Regular-6c33" transform="translate(200 0)"/>
     <use xlink:href="#NotoSansCJKjp-Regular-a209" transform="translate(300 0)"/>
     <use xlink:href="#NotoSansCJKjp-Regular-6ce1" transform="translate(400 0)"/>
     <use xlink:href="#NotoSansCJKjp-Regular-9dde" transform="translate(500 0)"/>
     <use xlink:href="#NotoSansCJKjp-Regular-2cc2" transform="translate(600 0)"/>
     <use xlink:href="#NotoSansCJKjp-Regular-3c6d" transform="translate(700 0)"/>
     <use xlink:href="#NotoSansCJKjp-Regular-2a92" transform="translate(800 0)"/>
     <use xlink:href="#NotoSansCJKjp-Regular-6ce8" transform="translate(900 0)"/>
     <use xlink:href="#NotoSansCJKjp-Regular-2eb1" transform="translate(1000 0)"/>
     <use xlink:href="#NotoSansCJKjp-Regular-1" transform="translate(1100 0)"/>
     <use xlink:href="#NotoSansCJKjp-Regular-31c" transform="translate(1122.40625 0)"/>
     <use xlink:href="#NotoSansCJKjp-Regular-1" transform="translate(1222.40625 0)"/>
     <use xlink:href="#NotoSansCJKjp-Regular-2eb1" transform="translate(1244.8125 0)"/>
     <use xlink:href="#NotoSansCJKjp-Regular-4f87" transform="translate(1344.8125 0)"/>
     <use xlink:href="#NotoSansCJKjp-Regular-86fd" transform="translate(1444.8125 0)"/>
     <use xlink:href="#NotoSansCJKjp-Regular-33d0" transform="translate(1544.8125 0)"/>
    </g>
   </g>
   <g id="text_4">
    <!-- 平拋 vs 自由落體：哪個先落地？（同時！） -->
    <g style="fill: #222831" transform="translate(7.2 19.52) scale(0.14 -0.14)">
     <defs>
      <path id="NotoSansCJKjp-Regular-57" d="M 1338 0 
L 2022 0 
L 3251 3475 
L 2675 3475 
L 2016 1498 
C 1914 1158 1798 806 1696 474 
L 1664 474 
C 1562 806 1453 1158 1344 1498 
L 691 3475 
L 83 3475 
L 1338 0 
z
" transform="scale(0.015625)"/>
      <path id="NotoSansCJKjp-Regular-54" d="M 1498 -83 
C 2317 -83 2758 384 2758 947 
C 2758 1606 2208 1811 1702 2003 
C 1312 2150 954 2278 954 2605 
C 954 2880 1158 3110 1600 3110 
C 1907 3110 2150 2976 2387 2803 
L 2669 3168 
C 2406 3386 2022 3565 1594 3565 
C 832 3565 397 3130 397 2579 
C 397 1984 922 1754 1408 1574 
C 1792 1434 2202 1267 2202 915 
C 2202 614 1978 371 1517 371 
C 1101 371 794 538 486 787 
L 205 397 
C 531 122 1005 -83 1498 -83 
z
" transform="scale(0.015625)"/>
      <path id="NotoSansCJKjp-Regular-b0c7" d="M 2963 2598 
L 2963 2246 
L 6112 2246 
L 6112 2598 
L 2963 2598 
z
M 3686 1619 
L 5363 1619 
L 5363 1062 
L 3686 1062 
L 3686 1619 
z
M 5075 742 
C 5011 525 4883 198 4774 -13 
L 4832 -32 
L 4128 -32 
L 4218 0 
C 4179 205 4070 512 3930 730 
L 3584 614 
C 3693 422 3789 166 3834 -32 
L 2848 -32 
L 2848 -390 
L 6157 -390 
L 6157 -32 
L 5146 -32 
L 5478 627 
L 5075 742 
z
M 3162 4787 
L 3162 2918 
L 5901 2918 
L 5901 4787 
L 5101 4787 
L 5101 5376 
L 4742 5376 
L 4742 4787 
L 4282 4787 
L 4282 5376 
L 3923 5376 
L 3923 4787 
L 3162 4787 
z
M 3283 1939 
L 3283 742 
L 5779 742 
L 5779 1939 
L 3283 1939 
z
M 3533 3693 
L 3981 3693 
L 3981 3251 
L 3533 3251 
L 3533 3693 
z
M 4282 3693 
L 4742 3693 
L 4742 3251 
L 4282 3251 
L 4282 3693 
z
M 5043 3693 
L 5510 3693 
L 5510 3251 
L 5043 3251 
L 5043 3693 
z
M 3533 4454 
L 3981 4454 
L 3981 4019 
L 3533 4019 
L 3533 4454 
z
M 4282 4454 
L 4742 4454 
L 4742 4019 
L 4282 4019 
L 4282 4454 
z
M 5043 4454 
L 5510 4454 
L 5510 4019 
L 5043 4019 
L 5043 4454 
z
M 1178 1440 
L 2138 1440 
L 2138 973 
L 1178 973 
L 1178 1440 
z
M 1178 1792 
L 1178 2246 
L 2138 2246 
L 2138 1792 
L 1178 1792 
z
M 390 3373 
L 390 2445 
L 762 2445 
L 762 -512 
L 1178 -512 
L 1178 621 
L 2138 621 
L 2138 -51 
C 2138 -115 2118 -134 2048 -141 
C 1990 -141 1792 -141 1562 -134 
C 1619 -243 1677 -403 1690 -512 
C 2035 -512 2240 -506 2381 -442 
C 2522 -378 2554 -262 2554 -58 
L 2554 2592 
L 762 2592 
L 762 3021 
L 2560 3021 
L 2560 2445 
L 2944 2445 
L 2944 3373 
L 2566 3373 
L 2566 5152 
L 762 5152 
L 762 3373 
L 390 3373 
z
M 1466 4371 
L 1466 3373 
L 1126 3373 
L 1126 4787 
L 2182 4787 
L 2182 4371 
L 1466 4371 
z
M 2182 3373 
L 1766 3373 
L 1766 4064 
L 2182 4064 
L 2182 3373 
z
" transform="scale(0.015625)"/>
      <path id="NotoSansCJKjp-Regular-e6c0" d="M 3200 3482 
C 3456 3482 3686 3667 3686 3962 
C 3686 4256 3456 4442 3200 4442 
C 2944 4442 2714 4256 2714 3962 
C 2714 3667 2944 3482 3200 3482 
z
M 3200 346 
C 3456 346 3686 538 3686 826 
C 3686 1120 3456 1312 3200 1312 
C 2944 1312 2714 1120 2714 826 
C 2714 538 2944 346 3200 346 
z
" transform="scale(0.015625)"/>
      <path id="NotoSansCJKjp-Regular-2ff4" d="M 461 4934 
L 461 589 
L 851 589 
L 851 1107 
L 1882 1107 
L 1882 4934 
L 461 4934 
z
M 851 4493 
L 1485 4493 
L 1485 1549 
L 851 1549 
L 851 4493 
z
M 3578 4646 
L 3571 3546 
L 3040 3546 
L 3040 4646 
L 3578 4646 
z
M 2106 2016 
L 2106 1600 
L 2522 1600 
C 2400 954 2163 307 1702 -224 
C 1792 -282 1939 -442 1997 -525 
C 2522 70 2790 845 2918 1600 
L 3552 1600 
C 3533 595 3494 166 3430 45 
C 3379 -58 3334 -77 3251 -77 
C 3149 -77 2950 -77 2720 -58 
C 2784 -179 2822 -365 2835 -493 
C 3066 -506 3277 -506 3430 -480 
C 3597 -461 3706 -410 3802 -230 
C 3898 -64 3936 422 3955 1600 
L 4198 1600 
L 4198 2016 
L 3962 2016 
L 3974 3136 
L 4192 3136 
L 4192 3546 
L 3974 3546 
L 3981 4819 
C 3981 4883 3981 5062 3981 5062 
L 2080 5062 
L 2080 4646 
L 2637 4646 
L 2637 3546 
L 2150 3546 
L 2150 3136 
L 2637 3136 
C 2637 2790 2624 2406 2579 2016 
L 2106 2016 
z
M 3571 3136 
L 3558 2016 
L 2982 2016 
C 3027 2413 3040 2797 3040 3136 
L 3571 3136 
z
M 4410 5062 
L 4410 -512 
L 4819 -512 
L 4819 4659 
L 5581 4659 
C 5453 4154 5267 3430 5082 2874 
C 5517 2291 5613 1798 5613 1395 
C 5613 1165 5587 954 5498 877 
C 5440 832 5382 813 5306 806 
C 5216 806 5107 806 4986 813 
C 5056 691 5088 512 5088 403 
C 5222 397 5357 397 5466 410 
C 5587 429 5702 467 5779 531 
C 5952 666 6022 966 6022 1344 
C 6016 1792 5920 2317 5472 2912 
C 5683 3501 5914 4294 6086 4909 
L 5792 5082 
L 5728 5062 
L 4410 5062 
z
" transform="scale(0.015625)"/>
      <path id="NotoSansCJKjp-Regular-2815" d="M 3533 2195 
L 4614 2195 
L 4614 1197 
L 3533 1197 
L 3533 2195 
z
M 2189 4992 
L 2189 -506 
L 2630 -506 
L 2630 -128 
L 5472 -128 
L 5472 -461 
L 5933 -461 
L 5933 4992 
L 2189 4992 
z
M 2630 307 
L 2630 4563 
L 5472 4563 
L 5472 307 
L 2630 307 
z
M 3162 2554 
L 3162 838 
L 4998 838 
L 4998 2554 
L 4256 2554 
L 4256 3258 
L 5254 3258 
L 5254 3629 
L 4256 3629 
L 4256 4358 
L 3866 4358 
L 3866 3629 
L 2899 3629 
L 2899 3258 
L 3866 3258 
L 3866 2554 
L 3162 2554 
z
M 1523 5344 
C 1203 4378 685 3411 109 2784 
C 192 2662 320 2400 365 2291 
C 582 2541 787 2829 986 3142 
L 986 -518 
L 1446 -518 
L 1446 3968 
C 1645 4371 1824 4794 1965 5216 
L 1523 5344 
z
" transform="scale(0.015625)"/>
      <path id="NotoSansCJKjp-Regular-2a5d" d="M 2957 5376 
L 2957 4378 
L 1824 4378 
C 1914 4634 1997 4890 2061 5126 
L 1574 5229 
C 1414 4557 1094 3706 653 3162 
C 774 3117 960 3008 1069 2938 
C 1286 3206 1478 3552 1638 3917 
L 2957 3917 
L 2957 2624 
L 390 2624 
L 390 2157 
L 2061 2157 
C 1952 1101 1664 282 301 -141 
C 416 -237 550 -422 608 -544 
C 2067 -38 2426 902 2560 2157 
L 3782 2157 
L 3782 275 
C 3782 -256 3923 -410 4499 -410 
C 4614 -410 5280 -410 5402 -410 
C 5920 -410 6054 -160 6106 813 
C 5971 851 5766 928 5664 1011 
C 5638 179 5600 51 5363 51 
C 5216 51 4666 51 4550 51 
C 4307 51 4262 83 4262 275 
L 4262 2157 
L 6016 2157 
L 6016 2624 
L 3443 2624 
L 3443 3917 
L 5555 3917 
L 5555 4378 
L 3443 4378 
L 3443 5376 
L 2957 5376 
z
" transform="scale(0.015625)"/>
      <path id="NotoSansCJKjp-Regular-e6c5" d="M 2848 1549 
L 3373 1549 
C 3200 2509 4730 2707 4730 3674 
C 4730 4410 4154 4870 3251 4870 
C 2554 4870 2054 4576 1632 4128 
L 1978 3808 
C 2349 4198 2752 4390 3187 4390 
C 3840 4390 4160 4070 4160 3622 
C 4160 2899 2650 2611 2848 1549 
z
M 3123 -32 
C 3347 -32 3533 134 3533 390 
C 3533 646 3347 819 3123 819 
C 2893 819 2707 646 2707 390 
C 2707 134 2893 -32 3123 -32 
z
" transform="scale(0.015625)"/>
      <path id="NotoSansCJKjp-Regular-e6ae" d="M 4448 2432 
C 4448 1184 4954 166 5722 -614 
L 6106 -416 
C 5370 346 4915 1293 4915 2432 
C 4915 3571 5370 4518 6106 5280 
L 5722 5478 
C 4954 4698 4448 3680 4448 2432 
z
" transform="scale(0.015625)"/>
      <path id="NotoSansCJKjp-Regular-e6a7" d="M 2989 1549 
L 3411 1549 
L 3539 4032 
L 3552 4787 
L 2848 4787 
L 2861 4032 
L 2989 1549 
z
M 3200 -32 
C 3424 -32 3610 134 3610 390 
C 3610 646 3424 819 3200 819 
C 2976 819 2790 646 2790 390 
C 2790 134 2970 -32 3200 -32 
z
" transform="scale(0.015625)"/>
      <path id="NotoSansCJKjp-Regular-e6af" d="M 1952 2432 
C 1952 3680 1446 4698 678 5478 
L 294 5280 
C 1030 4518 1485 3571 1485 2432 
C 1485 1293 1030 346 294 -416 
L 678 -614 
C 1446 166 1952 1184 1952 2432 
z
" transform="scale(0.015625)"/>
     </defs>
     <use xlink:href="#NotoSansCJKjp-Regular-41d6"/>
     <use xlink:href="#NotoSansCJKjp-Regular-497f" transform="translate(100 0)"/>
     <use xlink:href="#NotoSansCJKjp-Regular-1" transform="translate(200 0)"/>
     <use xlink:href="#NotoSansCJKjp-Regular-57" transform="translate(222.40625 0)"/>
     <use xlink:href="#NotoSansCJKjp-Regular-54" transform="translate(274.5 0)"/>
     <use xlink:href="#NotoSansCJKjp-Regular-1" transform="translate(321.296875 0)"/>
     <use xlink:href="#NotoSansCJKjp-Regular-8205" transform="translate(343.703125 0)"/>
     <use xlink:href="#NotoSansCJKjp-Regular-69ba" transform="translate(443.703125 0)"/>
     <use xlink:href="#NotoSansCJKjp-Regular-86fd" transform="translate(543.703125 0)"/>
     <use xlink:href="#NotoSansCJKjp-Regular-b0c7" transform="translate(643.703125 0)"/>
     <use xlink:href="#NotoSansCJKjp-Regular-e6c0" transform="translate(743.703125 0)"/>
     <use xlink:href="#NotoSansCJKjp-Regular-2ff4" transform="translate(843.703125 0)"/>
     <use xlink:href="#NotoSansCJKjp-Regular-2815" transform="translate(943.703125 0)"/>
     <use xlink:href="#NotoSansCJKjp-Regular-2a5d" transform="translate(1043.703125 0)"/>
     <use xlink:href="#NotoSansCJKjp-Regular-86fd" transform="translate(1143.703125 0)"/>
     <use xlink:href="#NotoSansCJKjp-Regular-33d0" transform="translate(1243.703125 0)"/>
     <use xlink:href="#NotoSansCJKjp-Regular-e6c5" transform="translate(1343.703125 0)"/>
     <use xlink:href="#NotoSansCJKjp-Regular-e6ae" transform="translate(1443.703125 0)"/>
     <use xlink:href="#NotoSansCJKjp-Regular-2eb1" transform="translate(1543.703125 0)"/>
     <use xlink:href="#NotoSansCJKjp-Regular-4f87" transform="translate(1643.703125 0)"/>
     <use xlink:href="#NotoSansCJKjp-Regular-e6a7" transform="translate(1743.703125 0)"/>
     <use xlink:href="#NotoSansCJKjp-Regular-e6af" transform="translate(1843.703125 0)"/>
    </g>
   </g>
   <g id="patch_3">
    <path d="M 81.93817 68.3474 
C 83.371698 68.3474 84.746707 67.777853 85.760365 66.764195 
C 86.774022 65.750537 87.34357 64.375529 87.34357 62.942 
C 87.34357 61.508471 86.774022 60.133463 85.760365 59.119805 
C 84.746707 58.106147 83.371698 57.5366 81.93817 57.5366 
C 80.504641 57.5366 79.129632 58.106147 78.115975 59.119805 
C 77.102317 60.133463 76.53277 61.508471 76.53277 62.942 
C 76.53277 64.375529 77.102317 65.750537 78.115975 66.764195 
C 79.129632 67.777853 80.504641 68.3474 81.93817 68.3474 
z
" clip-path="url(#p52b863a505)" style="fill: #d1242f; stroke: #d1242f; stroke-linejoin: miter"/>
   </g>
   <g id="patch_4">
    <path d="M 81.93817 68.3474 
C 83.371698 68.3474 84.746707 67.777853 85.760365 66.764195 
C 86.774022 65.750537 87.34357 64.375529 87.34357 62.942 
C 87.34357 61.508471 86.774022 60.133463 85.760365 59.119805 
C 84.746707 58.106147 83.371698 57.5366 81.93817 57.5366 
C 80.504641 57.5366 79.129632 58.106147 78.115975 59.119805 
C 77.102317 60.133463 76.53277 61.508471 76.53277 62.942 
C 76.53277 64.375529 77.102317 65.750537 78.115975 66.764195 
C 79.129632 67.777853 80.504641 68.3474 81.93817 68.3474 
z
" clip-path="url(#p52b863a505)" style="fill: #1f6feb; stroke: #1f6feb; stroke-linejoin: miter"/>
   </g>
   <g id="patch_5">
    <path d="M 81.93817 75.33284 
C 83.371698 75.33284 84.746707 74.763293 85.760365 73.749635 
C 86.774022 72.735977 87.34357 71.360969 87.34357 69.92744 
C 87.34357 68.493911 86.774022 67.118903 85.760365 66.105245 
C 84.746707 65.091587 83.371698 64.52204 81.93817 64.52204 
C 80.504641 64.52204 79.129632 65.091587 78.115975 66.105245 
C 77.102317 67.118903 76.53277 68.493911 76.53277 69.92744 
C 76.53277 71.360969 77.102317 72.735977 78.115975 73.749635 
C 79.129632 74.763293 80.504641 75.33284 81.93817 75.33284 
z
" clip-path="url(#p52b863a505)" style="fill: #d1242f; stroke: #d1242f; stroke-linejoin: miter"/>
   </g>
   <g id="patch_6">
    <path d="M 104.803389 75.33284 
C 106.236918 75.33284 107.611926 74.763293 108.625584 73.749635 
C 109.639242 72.735977 110.208789 71.360969 110.208789 69.92744 
C 110.208789 68.493911 109.639242 67.118903 108.625584 66.105245 
C 107.611926 65.091587 106.236918 64.52204 104.803389 64.52204 
C 103.36986 64.52204 101.994852 65.091587 100.981194 66.105245 
C 99.967536 67.118903 99.397989 68.493911 99.397989 69.92744 
C 99.397989 71.360969 99.967536 72.735977 100.981194 73.749635 
C 101.994852 74.763293 103.36986 75.33284 104.803389 75.33284 
z
" clip-path="url(#p52b863a505)" style="fill: #1f6feb; stroke: #1f6feb; stroke-linejoin: miter"/>
   </g>
   <g id="patch_7">
    <path d="M 81.93817 96.28916 
C 83.371698 96.28916 84.746707 95.719613 85.760365 94.705955 
C 86.774022 93.692297 87.34357 92.317289 87.34357 90.88376 
C 87.34357 89.450231 86.774022 88.075223 85.760365 87.061565 
C 84.746707 86.047907 83.371698 85.47836 81.93817 85.47836 
C 80.504641 85.47836 79.129632 86.047907 78.115975 87.061565 
C 77.102317 88.075223 76.53277 89.450231 76.53277 90.88376 
C 76.53277 92.317289 77.102317 93.692297 78.115975 94.705955 
C 79.129632 95.719613 80.504641 96.28916 81.93817 96.28916 
z
" clip-path="url(#p52b863a505)" style="fill: #d1242f; stroke: #d1242f; stroke-linejoin: miter"/>
   </g>
   <g id="patch_8">
    <path d="M 127.668609 96.28916 
C 129.102138 96.28916 130.477146 95.719613 131.490804 94.705955 
C 132.504462 93.692297 133.074009 92.317289 133.074009 90.88376 
C 133.074009 89.450231 132.504462 88.075223 131.490804 87.061565 
C 130.477146 86.047907 129.102138 85.47836 127.668609 85.47836 
C 126.23508 85.47836 124.860072 86.047907 123.846414 87.061565 
C 122.832756 88.075223 122.263209 89.450231 122.263209 90.88376 
C 122.263209 92.317289 122.832756 93.692297 123.846414 94.705955 
C 124.860072 95.719613 126.23508 96.28916 127.668609 96.28916 
z
" clip-path="url(#p52b863a505)" style="fill: #1f6feb; stroke: #1f6feb; stroke-linejoin: miter"/>
   </g>
   <g id="patch_9">
    <path d="M 81.93817 131.21636 
C 83.371698 131.21636 84.746707 130.646813 85.760365 129.633155 
C 86.774022 128.619497 87.34357 127.244489 87.34357 125.81096 
C 87.34357 124.377431 86.774022 123.002423 85.760365 121.988765 
C 84.746707 120.975107 83.371698 120.40556 81.93817 120.40556 
C 80.504641 120.40556 79.129632 120.975107 78.115975 121.988765 
C 77.102317 123.002423 76.53277 124.377431 76.53277 125.81096 
C 76.53277 127.244489 77.102317 128.619497 78.115975 129.633155 
C 79.129632 130.646813 80.504641 131.21636 81.93817 131.21636 
z
" clip-path="url(#p52b863a505)" style="fill: #d1242f; stroke: #d1242f; stroke-linejoin: miter"/>
   </g>
   <g id="patch_10">
    <path d="M 150.533829 131.21636 
C 151.967357 131.21636 153.342366 130.646813 154.356024 129.633155 
C 155.369682 128.619497 155.939229 127.244489 155.939229 125.81096 
C 155.939229 124.377431 155.369682 123.002423 154.356024 121.988765 
C 153.342366 120.975107 151.967357 120.40556 150.533829 120.40556 
C 149.1003 120.40556 147.725292 120.975107 146.711634 121.988765 
C 145.697976 123.002423 145.128429 124.377431 145.128429 125.81096 
C 145.128429 127.244489 145.697976 128.619497 146.711634 129.633155 
C 147.725292 130.646813 149.1003 131.21636 150.533829 131.21636 
z
" clip-path="url(#p52b863a505)" style="fill: #1f6feb; stroke: #1f6feb; stroke-linejoin: miter"/>
   </g>
   <g id="patch_11">
    <path d="M 81.93817 180.11444 
C 83.371698 180.11444 84.746707 179.544893 85.760365 178.531235 
C 86.774022 177.517577 87.34357 176.142569 87.34357 174.70904 
C 87.34357 173.275511 86.774022 171.900503 85.760365 170.886845 
C 84.746707 169.873187 83.371698 169.30364 81.93817 169.30364 
C 80.504641 169.30364 79.129632 169.873187 78.115975 170.886845 
C 77.102317 171.900503 76.53277 173.275511 76.53277 174.70904 
C 76.53277 176.142569 77.102317 177.517577 78.115975 178.531235 
C 79.129632 179.544893 80.504641 180.11444 81.93817 180.11444 
z
" clip-path="url(#p52b863a505)" style="fill: #d1242f; stroke: #d1242f; stroke-linejoin: miter"/>
   </g>
   <g id="patch_12">
    <path d="M 173.399048 180.11444 
C 174.832577 180.11444 176.207585 179.544893 177.221243 178.531235 
C 178.234901 177.517577 178.804448 176.142569 178.804448 174.70904 
C 178.804448 173.275511 178.234901 171.900503 177.221243 170.886845 
C 176.207585 169.873187 174.832577 169.30364 173.399048 169.30364 
C 171.965519 169.30364 170.590511 169.873187 169.576853 170.886845 
C 168.563195 171.900503 167.993648 173.275511 167.993648 174.70904 
C 167.993648 176.142569 168.563195 177.517577 169.576853 178.531235 
C 170.590511 179.544893 171.965519 180.11444 173.399048 180.11444 
z
" clip-path="url(#p52b863a505)" style="fill: #1f6feb; stroke: #1f6feb; stroke-linejoin: miter"/>
   </g>
   <g id="patch_13">
    <path d="M 81.93817 242.9834 
C 83.371698 242.9834 84.746707 242.413853 85.760365 241.400195 
C 86.774022 240.386537 87.34357 239.011529 87.34357 237.578 
C 87.34357 236.144471 86.774022 234.769463 85.760365 233.755805 
C 84.746707 232.742147 83.371698 232.1726 81.93817 232.1726 
C 80.504641 232.1726 79.129632 232.742147 78.115975 233.755805 
C 77.102317 234.769463 76.53277 236.144471 76.53277 237.578 
C 76.53277 239.011529 77.102317 240.386537 78.115975 241.400195 
C 79.129632 242.413853 80.504641 242.9834 81.93817 242.9834 
z
" clip-path="url(#p52b863a505)" style="fill: #d1242f; stroke: #d1242f; stroke-linejoin: miter"/>
   </g>
   <g id="patch_14">
    <path d="M 196.264268 242.9834 
C 197.697797 242.9834 199.072805 242.413853 200.086463 241.400195 
C 201.100121 240.386537 201.669668 239.011529 201.669668 237.578 
C 201.669668 236.144471 201.100121 234.769463 200.086463 233.755805 
C 199.072805 232.742147 197.697797 232.1726 196.264268 232.1726 
C 194.830739 232.1726 193.455731 232.742147 192.442073 233.755805 
C 191.428415 234.769463 190.858868 236.144471 190.858868 237.578 
C 190.858868 239.011529 191.428415 240.386537 192.442073 241.400195 
C 193.455731 242.413853 194.830739 242.9834 196.264268 242.9834 
z
" clip-path="url(#p52b863a505)" style="fill: #1f6feb; stroke: #1f6feb; stroke-linejoin: miter"/>
   </g>
  </g>
 </g>
 <defs>
  <clipPath id="p52b863a505">
   <rect x="23.72617" y="25.52" width="239.066098" height="266.112"/>
  </clipPath>
 </defs>
 <defs>
  <pattern id="ha88a8a32c7" patternUnits="userSpaceOnUse" x="0" y="0" width="72" height="72">
   <rect x="0" y="0" width="73" height="73" fill="#eef1f5"/>
   <path d="M -36 36 
L 36 -36 
M -33 39 
L 39 -33 
M -30 42 
L 42 -30 
M -27 45 
L 45 -27 
M -24 48 
L 48 -24 
M -21 51 
L 51 -21 
M -18 54 
L 54 -18 
M -15 57 
L 57 -15 
M -12 60 
L 60 -12 
M -9 63 
L 63 -9 
M -6 66 
L 66 -6 
M -3 69 
L 69 -3 
M 0 72 
L 72 0 
M 3 75 
L 75 3 
M 6 78 
L 78 6 
M 9 81 
L 81 9 
M 12 84 
L 84 12 
M 15 87 
L 87 15 
M 18 90 
L 90 18 
M 21 93 
L 93 21 
M 24 96 
L 96 24 
M 27 99 
L 99 27 
M 30 102 
L 102 30 
M 33 105 
L 105 33 
M 36 108 
L 108 36 
" style="fill: #222831; stroke: #222831; stroke-width: 1.0; stroke-linecap: butt; stroke-linejoin: miter"/>
  </pattern>
 </defs>
</svg>
