<?xml version="1.0" encoding="utf-8" standalone="no"?>
<!DOCTYPE svg PUBLIC "-//W3C//DTD SVG 1.1//EN"
  "http://www.w3.org/Graphics/SVG/1.1/DTD/svg11.dtd">
<svg xmlns:xlink="http://www.w3.org/1999/xlink" width="358.594799pt" height="321.008pt" viewBox="0 0 358.594799 321.008" xmlns="http://www.w3.org/2000/svg" version="1.1">
 <metadata>
  <rdf:RDF xmlns:dc="http://purl.org/dc/elements/1.1/" xmlns:cc="http://creativecommons.org/ns#" xmlns:rdf="http://www.w3.org/1999/02/22-rdf-syntax-ns#">
   <cc:Work>
    <dc:type rdf:resource="http://purl.org/dc/dcmitype/StillImage"/>
    <dc:date>2026-06-17T23:22:27.184035</dc:date>
    <dc:format>image/svg+xml</dc:format>
    <dc:creator>
     <cc:Agent>
      <dc:title>Matplotlib v3.11.0, https://matplotlib.org/</dc:title>
     </cc:Agent>
    </dc:creator>
   </cc:Work>
  </rdf:RDF>
 </metadata>
 <defs>
  <style type="text/css">*{stroke-linejoin: round; stroke-linecap: butt}</style>
 </defs>
 <g id="figure_1">
  <g id="patch_1">
   <path d="M 0 321.008 
L 358.594799 321.008 
L 358.594799 0 
L 0 0 
z
" style="fill: #ffffff"/>
  </g>
  <g id="axes_1">
   <g id="patch_2">
    <path d="M 41.812905 299.59662 
L 212.349468 299.59662 
L 212.349468 287.415437 
L 41.812905 287.415437 
z
" clip-path="url(#p9f71904705)" style="fill: url(#hffa7072e43); stroke: #222831; stroke-linejoin: miter"/>
   </g>
   <g id="line2d_1">
    <path d="M 62.114877 78.305127 
L 62.114877 287.415437 
" clip-path="url(#p9f71904705)" style="fill: none; stroke-dasharray: 0.9,1.485; stroke-dashoffset: 0; stroke: #d1242f; stroke-width: 0.9"/>
   </g>
   <g id="line2d_2">
    <path d="M 62.114877 78.305127 
L 62.114877 60.033352 
" clip-path="url(#p9f71904705)" style="fill: none; stroke-dasharray: 0.9,1.485; stroke-dashoffset: 0; stroke: #1f6feb; stroke-width: 0.9"/>
   </g>
   <g id="line2d_3">
    <path d="M 81.60477 86.425915 
L 81.60477 287.415437 
" clip-path="url(#p9f71904705)" style="fill: none; stroke-dasharray: 0.9,1.485; stroke-dashoffset: 0; stroke: #d1242f; stroke-width: 0.9"/>
   </g>
   <g id="line2d_4">
    <path d="M 81.60477 86.425915 
L 81.60477 60.033352 
" clip-path="url(#p9f71904705)" style="fill: none; stroke-dasharray: 0.9,1.485; stroke-dashoffset: 0; stroke: #1f6feb; stroke-width: 0.9"/>
   </g>
   <g id="line2d_5">
    <path d="M 101.094663 110.788282 
L 101.094663 287.415437 
" clip-path="url(#p9f71904705)" style="fill: none; stroke-dasharray: 0.9,1.485; stroke-dashoffset: 0; stroke: #d1242f; stroke-width: 0.9"/>
   </g>
   <g id="line2d_6">
    <path d="M 101.094663 110.788282 
L 101.094663 60.033352 
" clip-path="url(#p9f71904705)" style="fill: none; stroke-dasharray: 0.9,1.485; stroke-dashoffset: 0; stroke: #1f6feb; stroke-width: 0.9"/>
   </g>
   <g id="line2d_7">
    <path d="M 120.584556 151.392225 
L 120.584556 287.415437 
" clip-path="url(#p9f71904705)" style="fill: none; stroke-dasharray: 0.9,1.485; stroke-dashoffset: 0; stroke: #d1242f; stroke-width: 0.9"/>
   </g>
   <g id="line2d_8">
    <path d="M 120.584556 151.392225 
L 120.584556 60.033352 
" clip-path="url(#p9f71904705)" style="fill: none; stroke-dasharray: 0.9,1.485; stroke-dashoffset: 0; stroke: #1f6feb; stroke-width: 0.9"/>
   </g>
   <g id="line2d_9">
    <path d="M 140.074449 208.237746 
L 140.074449 287.415437 
" clip-path="url(#p9f71904705)" style="fill: none; stroke-dasharray: 0.9,1.485; stroke-dashoffset: 0; stroke: #d1242f; stroke-width: 0.9"/>
   </g>
   <g id="line2d_10">
    <path d="M 140.074449 208.237746 
L 140.074449 60.033352 
" clip-path="url(#p9f71904705)" style="fill: none; stroke-dasharray: 0.9,1.485; stroke-dashoffset: 0; stroke: #1f6feb; stroke-width: 0.9"/>
   </g>
   <g id="line2d_11">
    <path d="M 159.564342 281.324845 
L 159.564342 287.415437 
" clip-path="url(#p9f71904705)" style="fill: none; stroke-dasharray: 0.9,1.485; stroke-dashoffset: 0; stroke: #d1242f; stroke-width: 0.9"/>
   </g>
   <g id="line2d_12">
    <path d="M 159.564342 281.324845 
L 159.564342 60.033352 
" clip-path="url(#p9f71904705)" style="fill: none; stroke-dasharray: 0.9,1.485; stroke-dashoffset: 0; stroke: #1f6feb; stroke-width: 0.9"/>
   </g>
   <g id="line2d_13">
    <path d="M 62.114877 78.305127 
L 64.563356 78.433293 
L 67.011835 78.81779 
L 69.460314 79.458619 
L 71.908793 80.355779 
L 74.357272 81.509271 
L 76.805751 82.919095 
L 79.25423 84.58525 
L 81.702709 86.507737 
L 84.151188 88.686555 
L 86.599667 91.121705 
L 89.537842 94.382242 
L 92.476017 98.011897 
L 95.414191 102.010669 
L 98.352366 106.378559 
L 101.290541 111.115566 
L 104.718412 117.108598 
L 108.146282 123.604039 
L 111.574153 130.601891 
L 115.002023 138.102152 
L 118.429894 146.104823 
L 122.347461 155.865929 
L 126.265027 166.283243 
L 130.182593 177.356766 
L 134.10016 189.086498 
L 138.017726 201.472439 
L 142.424988 216.190997 
L 146.832251 231.740069 
L 151.239513 248.119655 
L 155.646775 265.329756 
L 159.564342 281.324845 
L 159.564342 281.324845 
" clip-path="url(#p9f71904705)" style="fill: none; stroke-dasharray: 5.18,2.24; stroke-dashoffset: 0; stroke: #222831; stroke-width: 1.4"/>
   </g>
   <g id="line2d_14">
    <path d="M 62.114877 60.033352 
L 159.564342 60.033352 
" clip-path="url(#p9f71904705)" style="fill: none; stroke: #1f6feb; stroke-width: 1.6; stroke-linecap: square"/>
   </g>
   <g id="line2d_15">
    <path d="M 62.114877 62.063549 
L 62.114877 58.003155 
" clip-path="url(#p9f71904705)" style="fill: none; stroke: #1f6feb; stroke-width: 1.6; stroke-linecap: square"/>
   </g>
   <g id="line2d_16">
    <path d="M 81.60477 62.063549 
L 81.60477 58.003155 
" clip-path="url(#p9f71904705)" style="fill: none; stroke: #1f6feb; stroke-width: 1.6; stroke-linecap: square"/>
   </g>
   <g id="line2d_17">
    <path d="M 101.094663 62.063549 
L 101.094663 58.003155 
" clip-path="url(#p9f71904705)" style="fill: none; stroke: #1f6feb; stroke-width: 1.6; stroke-linecap: square"/>
   </g>
   <g id="line2d_18">
    <path d="M 120.584556 62.063549 
L 120.584556 58.003155 
" clip-path="url(#p9f71904705)" style="fill: none; stroke: #1f6feb; stroke-width: 1.6; stroke-linecap: square"/>
   </g>
   <g id="line2d_19">
    <path d="M 140.074449 62.063549 
L 140.074449 58.003155 
" clip-path="url(#p9f71904705)" style="fill: none; stroke: #1f6feb; stroke-width: 1.6; stroke-linecap: square"/>
   </g>
   <g id="line2d_20">
    <path d="M 159.564342 62.063549 
L 159.564342 58.003155 
" clip-path="url(#p9f71904705)" style="fill: none; stroke: #1f6feb; stroke-width: 1.6; stroke-linecap: square"/>
   </g>
   <g id="line2d_21">
    <path d="M 181.896511 78.305127 
L 181.896511 287.415437 
" clip-path="url(#p9f71904705)" style="fill: none; stroke: #d1242f; stroke-width: 1.6; stroke-linecap: square"/>
   </g>
   <g id="line2d_22">
    <path d="M 179.866313 78.305127 
L 183.926708 78.305127 
" clip-path="url(#p9f71904705)" style="fill: none; stroke: #d1242f; stroke-width: 1.6; stroke-linecap: square"/>
   </g>
   <g id="line2d_23">
    <path d="M 179.866313 86.425915 
L 183.926708 86.425915 
" clip-path="url(#p9f71904705)" style="fill: none; stroke: #d1242f; stroke-width: 1.6; stroke-linecap: square"/>
   </g>
   <g id="line2d_24">
    <path d="M 179.866313 110.788282 
L 183.926708 110.788282 
" clip-path="url(#p9f71904705)" style="fill: none; stroke: #d1242f; stroke-width: 1.6; stroke-linecap: square"/>
   </g>
   <g id="line2d_25">
    <path d="M 179.866313 151.392225 
L 183.926708 151.392225 
" clip-path="url(#p9f71904705)" style="fill: none; stroke: #d1242f; stroke-width: 1.6; stroke-linecap: square"/>
   </g>
   <g id="line2d_26">
    <path d="M 179.866313 208.237746 
L 183.926708 208.237746 
" clip-path="url(#p9f71904705)" style="fill: none; stroke: #d1242f; stroke-width: 1.6; stroke-linecap: square"/>
   </g>
   <g id="line2d_27">
    <path d="M 179.866313 281.324845 
L 183.926708 281.324845 
" clip-path="url(#p9f71904705)" style="fill: none; stroke: #d1242f; stroke-width: 1.6; stroke-linecap: square"/>
   </g>
   <g id="line2d_28">
    <path d="M 179.866313 287.415437 
L 183.926708 287.415437 
" clip-path="url(#p9f71904705)" style="fill: none; stroke: #d1242f; stroke-width: 1.6; stroke-linecap: square"/>
   </g>
   <g id="line2d_29">
    <path d="M 41.812905 287.415437 
L 212.349468 287.415437 
" clip-path="url(#p9f71904705)" style="fill: none; stroke: #222831; stroke-width: 1.4; stroke-linecap: square"/>
   </g>
   <g id="text_1">
    <!-- 鉛直：等時間 → 落差越來越大 -->
    <g style="fill: #d1242f" transform="translate(190.017299 182.43538) scale(0.12 -0.12)">
     <defs>
      <path id="NotoSansCJKjp-Regular-a209" d="M 3738 5280 
C 3590 4275 3296 3379 2771 2810 
C 2886 2739 3091 2598 3168 2522 
C 3699 3149 4032 4109 4205 5216 
L 3738 5280 
z
M 5184 5312 
L 4768 5222 
C 4979 4160 5363 3098 5888 2534 
C 5971 2656 6131 2835 6246 2918 
C 5760 3398 5376 4378 5184 5312 
z
M 518 1830 
C 653 1446 755 960 774 634 
L 1139 730 
C 1107 1050 998 1536 858 1914 
L 518 1830 
z
M 2381 1990 
C 2317 1645 2189 1126 2080 813 
L 2394 717 
C 2509 1018 2650 1491 2771 1882 
L 2381 1990 
z
M 3213 2272 
L 3213 -506 
L 3654 -506 
L 3654 -134 
L 5389 -134 
L 5389 -480 
L 5850 -480 
L 5850 2272 
L 3213 2272 
z
M 3654 307 
L 3654 1830 
L 5389 1830 
L 5389 307 
L 3654 307 
z
M 1395 5376 
C 1171 4864 749 4211 141 3725 
C 237 3661 378 3514 448 3411 
L 710 3648 
L 710 3379 
L 1434 3379 
L 1434 2701 
L 384 2701 
L 384 2278 
L 1434 2278 
L 1434 326 
L 282 115 
L 397 -320 
C 1075 -186 2029 6 2918 192 
L 2893 602 
L 1862 403 
L 1862 2278 
L 2816 2278 
L 2816 2701 
L 1862 2701 
L 1862 3379 
L 2650 3379 
L 2650 3795 
L 851 3795 
C 1216 4179 1485 4589 1683 4934 
C 2061 4595 2470 4115 2682 3808 
L 3008 4179 
C 2765 4512 2246 5024 1830 5376 
L 1395 5376 
z
" transform="scale(0.015625)"/>
      <path id="NotoSansCJKjp-Regular-6ce1" d="M 2374 2586 
L 4832 2586 
L 4832 2061 
L 2374 2061 
L 2374 2586 
z
M 2374 1715 
L 4832 1715 
L 4832 1178 
L 2374 1178 
L 2374 1715 
z
M 2374 3456 
L 4832 3456 
L 4832 2931 
L 2374 2931 
L 2374 3456 
z
M 736 3635 
L 736 -518 
L 1203 -518 
L 1203 -179 
L 6080 -179 
L 6080 269 
L 1203 269 
L 1203 3635 
L 736 3635 
z
M 3053 5395 
L 3008 4787 
L 397 4787 
L 397 4339 
L 2963 4339 
L 2899 3814 
L 1914 3814 
L 1914 813 
L 5306 813 
L 5306 3814 
L 3379 3814 
L 3469 4339 
L 6029 4339 
L 6029 4787 
L 3533 4787 
L 3603 5363 
L 3053 5395 
z
" transform="scale(0.015625)"/>
      <path id="NotoSansCJKjp-Regular-e6c0" d="M 3200 3482 
C 3456 3482 3686 3667 3686 3962 
C 3686 4256 3456 4442 3200 4442 
C 2944 4442 2714 4256 2714 3962 
C 2714 3667 2944 3482 3200 3482 
z
M 3200 346 
C 3456 346 3686 538 3686 826 
C 3686 1120 3456 1312 3200 1312 
C 2944 1312 2714 1120 2714 826 
C 2714 538 2944 346 3200 346 
z
" transform="scale(0.015625)"/>
      <path id="NotoSansCJKjp-Regular-74a1" d="M 3699 5408 
C 3514 4864 3168 4352 2771 4019 
L 2944 3910 
L 2944 3469 
L 941 3469 
L 941 3066 
L 2944 3066 
L 2944 2490 
L 307 2490 
L 307 2067 
L 4256 2067 
L 4256 1504 
L 512 1504 
L 512 1082 
L 4256 1082 
L 4256 64 
C 4256 -26 4224 -51 4109 -58 
C 3994 -64 3616 -64 3181 -51 
C 3251 -179 3334 -371 3360 -506 
C 3885 -506 4243 -499 4461 -435 
C 4678 -358 4742 -224 4742 58 
L 4742 1082 
L 5946 1082 
L 5946 1504 
L 4742 1504 
L 4742 2067 
L 6118 2067 
L 6118 2490 
L 3437 2490 
L 3437 3066 
L 5510 3066 
L 5510 3469 
L 3437 3469 
L 3437 3910 
L 3334 3910 
C 3475 4064 3610 4237 3731 4429 
L 4166 4429 
C 4358 4179 4544 3878 4621 3667 
L 5037 3846 
C 4966 4013 4832 4224 4685 4429 
L 6048 4429 
L 6048 4838 
L 3962 4838 
C 4038 4986 4102 5139 4160 5299 
L 3699 5408 
z
M 1427 806 
C 1843 531 2304 122 2515 -179 
L 2886 122 
C 2669 422 2195 819 1779 1082 
L 1427 806 
z
M 1190 5408 
C 973 4838 614 4282 211 3904 
C 326 3846 525 3712 614 3635 
C 826 3846 1030 4122 1222 4429 
L 1478 4429 
C 1600 4179 1715 3891 1754 3699 
L 2182 3859 
C 2144 4006 2054 4224 1958 4429 
L 3123 4429 
L 3123 4838 
L 1446 4838 
C 1517 4986 1587 5133 1645 5286 
L 1190 5408 
z
" transform="scale(0.015625)"/>
      <path id="NotoSansCJKjp-Regular-4f87" d="M 2848 1338 
C 3174 998 3520 525 3661 211 
L 4070 461 
C 3923 781 3558 1235 3232 1562 
L 2848 1338 
z
M 4038 5382 
L 4038 4614 
L 2694 4614 
L 2694 4186 
L 4038 4186 
L 4038 3373 
L 2426 3373 
L 2426 2938 
L 4883 2938 
L 4883 2214 
L 2458 2214 
L 2458 1786 
L 4883 1786 
L 4883 64 
C 4883 -32 4851 -58 4749 -58 
C 4646 -64 4282 -64 3891 -51 
C 3962 -186 4032 -378 4051 -506 
C 4570 -506 4890 -499 5094 -422 
C 5293 -352 5357 -218 5357 58 
L 5357 1786 
L 6106 1786 
L 6106 2214 
L 5357 2214 
L 5357 2938 
L 6170 2938 
L 6170 3373 
L 4512 3373 
L 4512 4186 
L 5901 4186 
L 5901 4614 
L 4512 4614 
L 4512 5382 
L 4038 5382 
z
M 1862 2662 
L 1862 1184 
L 934 1184 
L 934 2662 
L 1862 2662 
z
M 1862 3098 
L 934 3098 
L 934 4518 
L 1862 4518 
L 1862 3098 
z
M 486 4960 
L 486 224 
L 934 224 
L 934 749 
L 2317 749 
L 2317 4960 
L 486 4960 
z
" transform="scale(0.015625)"/>
      <path id="NotoSansCJKjp-Regular-a774" d="M 3936 1082 
L 3936 461 
L 2432 461 
L 2432 1082 
L 3936 1082 
z
M 3936 1453 
L 2432 1453 
L 2432 2042 
L 3936 2042 
L 3936 1453 
z
M 1997 2419 
L 1997 -243 
L 2432 -243 
L 2432 83 
L 4384 83 
L 4384 2419 
L 1997 2419 
z
M 2451 3840 
L 2451 3270 
L 1056 3270 
L 1056 3840 
L 2451 3840 
z
M 2451 4192 
L 1056 4192 
L 1056 4730 
L 2451 4730 
L 2451 4192 
z
M 5376 3840 
L 5376 3264 
L 3936 3264 
L 3936 3840 
L 5376 3840 
z
M 5376 4192 
L 3936 4192 
L 3936 4730 
L 5376 4730 
L 5376 4192 
z
M 5619 5101 
L 3482 5101 
L 3482 2893 
L 5376 2893 
L 5376 128 
C 5376 13 5338 -19 5229 -26 
C 5114 -26 4723 -32 4333 -19 
C 4403 -154 4474 -378 4499 -512 
C 5030 -512 5376 -506 5581 -422 
C 5792 -339 5862 -186 5862 122 
L 5862 5101 
L 5619 5101 
z
M 576 5101 
L 576 -518 
L 1056 -518 
L 1056 2906 
L 2899 2906 
L 2899 5101 
L 576 5101 
z
" transform="scale(0.015625)"/>
      <path id="NotoSansCJKjp-Regular-1" transform="scale(0.015625)"/>
      <path id="NotoSansCJKjp-Regular-31c" d="M 5190 2650 
L 256 2650 
L 256 2214 
L 5190 2214 
C 4864 1965 4442 1562 4154 1165 
L 4538 941 
C 4966 1504 5606 2067 6176 2432 
C 5606 2797 4966 3360 4538 3923 
L 4154 3699 
C 4442 3302 4864 2899 5190 2650 
z
" transform="scale(0.015625)"/>
      <path id="NotoSansCJKjp-Regular-86fd" d="M 397 -115 
L 742 -486 
C 1139 -13 1600 614 1965 1152 
L 1670 1491 
C 1267 915 749 269 397 -115 
z
M 698 3706 
C 1056 3520 1542 3219 1779 3027 
L 2067 3392 
C 1824 3584 1331 3859 973 4032 
L 698 3706 
z
M 262 2464 
C 646 2291 1120 2003 1357 1805 
L 1645 2170 
C 1408 2374 915 2643 544 2797 
L 262 2464 
z
M 3328 4166 
C 3053 3686 2547 3078 1882 2637 
C 1990 2573 2138 2438 2221 2342 
C 2483 2534 2720 2746 2931 2963 
C 3162 2739 3437 2515 3738 2317 
C 3162 2003 2509 1766 1907 1632 
C 1997 1536 2106 1357 2150 1235 
L 2579 1363 
L 2579 -512 
L 3034 -512 
L 3034 -237 
L 5062 -237 
L 5062 -512 
L 5536 -512 
L 5536 1402 
L 2701 1402 
C 3194 1568 3686 1786 4147 2061 
C 4717 1722 5344 1453 5933 1286 
C 6003 1402 6131 1581 6234 1683 
C 5677 1824 5088 2048 4550 2323 
C 5024 2656 5427 3059 5702 3520 
L 5402 3706 
L 5318 3686 
L 3539 3686 
C 3635 3814 3725 3942 3802 4070 
L 3328 4166 
z
M 3034 147 
L 3034 1018 
L 5062 1018 
L 5062 147 
L 3034 147 
z
M 5018 3309 
C 4787 3034 4486 2778 4141 2554 
C 3776 2771 3450 3021 3213 3270 
L 3245 3309 
L 5018 3309 
z
M 390 4928 
L 390 4499 
L 1843 4499 
L 1843 3955 
L 2310 3955 
L 2310 4499 
L 4051 4499 
L 4051 3955 
L 4518 3955 
L 4518 4499 
L 6022 4499 
L 6022 4928 
L 4518 4928 
L 4518 5376 
L 4051 5376 
L 4051 4928 
L 2310 4928 
L 2310 5376 
L 1843 5376 
L 1843 4928 
L 390 4928 
z
" transform="scale(0.015625)"/>
      <path id="NotoSansCJKjp-Regular-4110" d="M 4422 5389 
C 4320 5133 4115 4768 3949 4538 
L 4019 4512 
L 2349 4512 
L 2451 4557 
C 2362 4787 2144 5114 1933 5357 
L 1523 5190 
C 1683 4992 1850 4723 1952 4512 
L 646 4512 
L 646 4090 
L 2944 4090 
L 2944 3526 
L 960 3526 
L 960 3117 
L 2944 3117 
L 2944 2541 
L 358 2541 
L 358 2106 
L 1658 2106 
C 1421 1114 954 314 250 -179 
C 365 -256 563 -429 653 -518 
C 1382 64 1901 960 2182 2106 
L 6042 2106 
L 6042 2541 
L 3437 2541 
L 3437 3117 
L 5478 3117 
L 5478 3526 
L 3437 3526 
L 3437 4090 
L 5798 4090 
L 5798 4512 
L 4442 4512 
C 4595 4717 4774 4986 4928 5235 
L 4422 5389 
z
M 2163 1619 
L 2163 1197 
L 3462 1197 
L 3462 70 
L 1549 70 
L 1549 -352 
L 5914 -352 
L 5914 70 
L 3949 70 
L 3949 1197 
L 5485 1197 
L 5485 1619 
L 2163 1619 
z
" transform="scale(0.015625)"/>
      <path id="NotoSansCJKjp-Regular-98c8" d="M 5050 5139 
C 5280 4902 5549 4570 5670 4346 
L 6016 4557 
C 5894 4768 5619 5088 5382 5318 
L 5050 5139 
z
M 5632 3443 
C 5491 2963 5293 2496 5050 2074 
C 4947 2554 4870 3162 4826 3853 
L 6144 3853 
L 6144 4262 
L 4800 4262 
C 4787 4614 4781 4986 4781 5376 
L 4326 5376 
C 4333 4992 4346 4621 4358 4262 
L 3200 4262 
L 3200 1414 
L 2643 1114 
L 2854 730 
C 3328 1005 3936 1370 4499 1715 
L 4371 2074 
L 3635 1658 
L 3635 3853 
L 4384 3853 
C 4448 2963 4550 2182 4723 1594 
C 4422 1203 4077 883 3699 666 
C 3789 589 3923 435 3994 326 
C 4320 538 4614 806 4883 1126 
C 5075 691 5318 435 5632 435 
C 6022 435 6170 710 6240 1600 
C 6131 1651 5984 1734 5888 1830 
C 5869 1158 5805 883 5683 883 
C 5498 883 5325 1120 5190 1536 
C 5542 2061 5818 2675 6010 3341 
L 5632 3443 
z
M 646 2483 
C 659 1626 602 557 134 -211 
C 237 -256 390 -397 461 -493 
C 704 -96 851 365 941 838 
C 1434 -122 2234 -346 3648 -346 
L 6010 -346 
C 6035 -205 6125 19 6202 128 
C 5824 115 3936 115 3642 115 
C 2976 115 2451 166 2042 352 
L 2042 1600 
L 2963 1600 
L 2963 2029 
L 2042 2029 
L 2042 2918 
L 3040 2918 
L 3040 3347 
L 1952 3347 
L 1952 4160 
L 2925 4160 
L 2925 4582 
L 1952 4582 
L 1952 5376 
L 1510 5376 
L 1510 4582 
L 525 4582 
L 525 4160 
L 1510 4160 
L 1510 3347 
L 282 3347 
L 282 2918 
L 1606 2918 
L 1606 634 
C 1357 864 1171 1184 1030 1632 
C 1050 1920 1056 2195 1050 2458 
L 646 2483 
z
" transform="scale(0.015625)"/>
      <path id="NotoSansCJKjp-Regular-273f" d="M 2931 5370 
L 2931 4480 
L 461 4480 
L 461 4013 
L 2931 4013 
L 2931 2438 
C 2349 1504 1280 614 237 186 
C 346 90 499 -96 576 -218 
C 1427 179 2298 877 2931 1696 
L 2931 -512 
L 3430 -512 
L 3430 1709 
C 4058 877 4934 160 5818 -237 
C 5894 -102 6048 90 6170 198 
C 5082 608 3994 1517 3430 2483 
L 3430 4013 
L 5984 4013 
L 5984 4480 
L 3430 4480 
L 3430 5370 
L 2931 5370 
z
M 1581 3866 
C 1389 3034 992 2336 410 1901 
C 518 1830 704 1677 787 1587 
C 1101 1850 1376 2195 1600 2598 
C 1830 2381 2067 2144 2202 1978 
L 2528 2310 
C 2368 2496 2067 2771 1798 3014 
C 1901 3251 1990 3507 2054 3776 
L 1581 3866 
z
M 4614 3866 
C 4474 3142 4166 2522 3706 2125 
C 3821 2067 4019 1939 4109 1862 
C 4326 2067 4512 2330 4672 2624 
C 5050 2304 5459 1946 5677 1702 
L 6016 2035 
C 5760 2291 5267 2707 4858 3027 
C 4954 3264 5024 3514 5082 3782 
L 4614 3866 
z
" transform="scale(0.015625)"/>
      <path id="NotoSansCJKjp-Regular-36fb" d="M 2950 5370 
C 2944 4864 2950 4218 2854 3539 
L 397 3539 
L 397 3046 
L 2771 3046 
C 2515 1830 1875 589 275 -102 
C 410 -205 563 -378 640 -499 
C 2202 218 2893 1446 3206 2682 
C 3706 1222 4531 90 5773 -499 
C 5856 -358 6010 -160 6131 -51 
C 4890 467 4051 1632 3603 3046 
L 6029 3046 
L 6029 3539 
L 3366 3539 
C 3456 4211 3462 4851 3469 5370 
L 2950 5370 
z
" transform="scale(0.015625)"/>
     </defs>
     <use xlink:href="#NotoSansCJKjp-Regular-a209"/>
     <use xlink:href="#NotoSansCJKjp-Regular-6ce1" transform="translate(100 0)"/>
     <use xlink:href="#NotoSansCJKjp-Regular-e6c0" transform="translate(200 0)"/>
     <use xlink:href="#NotoSansCJKjp-Regular-74a1" transform="translate(300 0)"/>
     <use xlink:href="#NotoSansCJKjp-Regular-4f87" transform="translate(400 0)"/>
     <use xlink:href="#NotoSansCJKjp-Regular-a774" transform="translate(500 0)"/>
     <use xlink:href="#NotoSansCJKjp-Regular-1" transform="translate(600 0)"/>
     <use xlink:href="#NotoSansCJKjp-Regular-31c" transform="translate(622.40625 0)"/>
     <use xlink:href="#NotoSansCJKjp-Regular-1" transform="translate(722.40625 0)"/>
     <use xlink:href="#NotoSansCJKjp-Regular-86fd" transform="translate(744.8125 0)"/>
     <use xlink:href="#NotoSansCJKjp-Regular-4110" transform="translate(844.8125 0)"/>
     <use xlink:href="#NotoSansCJKjp-Regular-98c8" transform="translate(944.8125 0)"/>
     <use xlink:href="#NotoSansCJKjp-Regular-273f" transform="translate(1044.8125 0)"/>
     <use xlink:href="#NotoSansCJKjp-Regular-98c8" transform="translate(1144.8125 0)"/>
     <use xlink:href="#NotoSansCJKjp-Regular-36fb" transform="translate(1244.8125 0)"/>
    </g>
    <!-- （等加速度，自由落體） -->
    <g style="fill: #d1242f" transform="translate(190.017299 194.43538) scale(0.12 -0.12)">
     <defs>
      <path id="NotoSansCJKjp-Regular-e6ae" d="M 4448 2432 
C 4448 1184 4954 166 5722 -614 
L 6106 -416 
C 5370 346 4915 1293 4915 2432 
C 4915 3571 5370 4518 6106 5280 
L 5722 5478 
C 4954 4698 4448 3680 4448 2432 
z
" transform="scale(0.015625)"/>
      <path id="NotoSansCJKjp-Regular-2c76" d="M 3661 4582 
L 3661 -416 
L 4122 -416 
L 4122 58 
L 5363 58 
L 5363 -365 
L 5843 -365 
L 5843 4582 
L 3661 4582 
z
M 4122 518 
L 4122 4115 
L 5363 4115 
L 5363 518 
L 4122 518 
z
M 1248 5293 
L 1242 4160 
L 339 4160 
L 339 3693 
L 1229 3693 
C 1184 2080 986 659 179 -186 
C 301 -262 474 -410 550 -518 
C 1414 422 1638 1958 1696 3693 
L 2669 3693 
C 2618 1229 2560 352 2426 166 
C 2368 83 2304 58 2208 64 
C 2093 64 1818 64 1517 90 
C 1600 -45 1645 -250 1658 -390 
C 1946 -410 2240 -416 2419 -390 
C 2605 -365 2726 -307 2842 -141 
C 3040 134 3085 1069 3136 3917 
C 3136 3987 3136 4160 3136 4160 
L 1709 4160 
L 1722 5293 
L 1248 5293 
z
" transform="scale(0.015625)"/>
      <path id="NotoSansCJKjp-Regular-9d6d" d="M 384 4934 
C 794 4646 1274 4218 1478 3904 
L 1862 4224 
C 1632 4531 1152 4947 730 5222 
L 384 4934 
z
M 1677 2848 
L 314 2848 
L 314 2400 
L 1210 2400 
L 1210 768 
C 890 499 518 230 230 32 
L 480 -461 
C 826 -173 1152 102 1459 378 
C 1869 -128 2445 -358 3283 -390 
C 3994 -416 5318 -403 6016 -371 
C 6035 -224 6118 6 6176 115 
C 5414 64 3981 45 3283 77 
C 2541 102 1978 326 1677 794 
L 1677 2848 
z
M 2752 3379 
L 3757 3379 
L 3757 2560 
L 2752 2560 
L 2752 3379 
z
M 4224 3379 
L 5286 3379 
L 5286 2560 
L 4224 2560 
L 4224 3379 
z
M 3757 5370 
L 3757 4710 
L 2035 4710 
L 2035 4294 
L 3757 4294 
L 3757 3763 
L 2304 3763 
L 2304 2176 
L 3501 2176 
C 3130 1638 2502 1120 1920 870 
C 2022 781 2163 621 2227 506 
C 2778 787 3360 1306 3757 1875 
L 3757 314 
L 4224 314 
L 4224 1850 
C 4640 1318 5235 800 5754 525 
C 5824 640 5971 806 6080 896 
C 5510 1146 4845 1658 4442 2176 
L 5754 2176 
L 5754 3763 
L 4224 3763 
L 4224 4294 
L 6048 4294 
L 6048 4710 
L 4224 4710 
L 4224 5370 
L 3757 5370 
z
" transform="scale(0.015625)"/>
      <path id="NotoSansCJKjp-Regular-4231" d="M 2470 4141 
L 2470 3584 
L 1440 3584 
L 1440 3187 
L 2470 3187 
L 2470 2125 
L 4960 2125 
L 4960 3187 
L 5997 3187 
L 5997 3584 
L 4960 3584 
L 4960 4141 
L 4486 4141 
L 4486 3584 
L 2931 3584 
L 2931 4141 
L 2470 4141 
z
M 4486 3187 
L 4486 2509 
L 2931 2509 
L 2931 3187 
L 4486 3187 
z
M 4851 1318 
C 4582 986 4211 717 3770 506 
C 3334 723 2970 992 2720 1318 
L 4851 1318 
z
M 1530 1715 
L 1530 1318 
L 2502 1318 
L 2259 1222 
C 2515 858 2861 550 3270 301 
C 2662 90 1978 -38 1280 -109 
C 1357 -211 1453 -397 1485 -512 
C 2291 -416 3072 -243 3757 45 
C 4365 -237 5088 -422 5869 -525 
C 5933 -403 6048 -211 6150 -109 
C 5466 -38 4819 96 4269 294 
C 4813 608 5261 1024 5549 1574 
L 5248 1734 
L 5165 1715 
L 1530 1715 
z
M 774 4742 
L 774 2893 
C 774 1965 730 659 198 -256 
C 314 -307 512 -435 595 -518 
C 1152 448 1235 1901 1235 2893 
L 1235 4307 
L 6035 4307 
L 6035 4742 
L 3635 4742 
L 3635 5376 
L 3142 5376 
L 3142 4742 
L 774 4742 
z
" transform="scale(0.015625)"/>
      <path id="NotoSansCJKjp-Regular-e6b2" d="M 1005 -685 
C 1677 -448 2112 77 2112 768 
C 2112 1216 1920 1504 1568 1504 
C 1306 1504 1082 1344 1082 1043 
C 1082 742 1299 589 1562 589 
L 1670 602 
C 1638 160 1357 -141 864 -346 
L 1005 -685 
z
" transform="scale(0.015625)"/>
      <path id="NotoSansCJKjp-Regular-8205" d="M 1530 2630 
L 4954 2630 
L 4954 1690 
L 1530 1690 
L 1530 2630 
z
M 1530 3085 
L 1530 4038 
L 4954 4038 
L 4954 3085 
L 1530 3085 
z
M 1530 1242 
L 4954 1242 
L 4954 294 
L 1530 294 
L 1530 1242 
z
M 2912 5389 
C 2861 5133 2758 4781 2662 4499 
L 1043 4499 
L 1043 -518 
L 1530 -518 
L 1530 -160 
L 4954 -160 
L 4954 -486 
L 5459 -486 
L 5459 4499 
L 3149 4499 
C 3258 4742 3366 5037 3469 5312 
L 2912 5389 
z
" transform="scale(0.015625)"/>
      <path id="NotoSansCJKjp-Regular-69ba" d="M 1210 1786 
L 2938 1786 
L 2938 365 
L 1210 365 
L 1210 1786 
z
M 5184 1786 
L 5184 365 
L 3424 365 
L 3424 1786 
L 5184 1786 
z
M 1210 2259 
L 1210 3654 
L 2938 3654 
L 2938 2259 
L 1210 2259 
z
M 5184 2259 
L 3424 2259 
L 3424 3654 
L 5184 3654 
L 5184 2259 
z
M 2938 5376 
L 2938 4134 
L 730 4134 
L 730 -512 
L 1210 -512 
L 1210 -115 
L 5184 -115 
L 5184 -486 
L 5683 -486 
L 5683 4134 
L 3424 4134 
L 3424 5376 
L 2938 5376 
z
" transform="scale(0.015625)"/>
      <path id="NotoSansCJKjp-Regular-b0c7" d="M 2963 2598 
L 2963 2246 
L 6112 2246 
L 6112 2598 
L 2963 2598 
z
M 3686 1619 
L 5363 1619 
L 5363 1062 
L 3686 1062 
L 3686 1619 
z
M 5075 742 
C 5011 525 4883 198 4774 -13 
L 4832 -32 
L 4128 -32 
L 4218 0 
C 4179 205 4070 512 3930 730 
L 3584 614 
C 3693 422 3789 166 3834 -32 
L 2848 -32 
L 2848 -390 
L 6157 -390 
L 6157 -32 
L 5146 -32 
L 5478 627 
L 5075 742 
z
M 3162 4787 
L 3162 2918 
L 5901 2918 
L 5901 4787 
L 5101 4787 
L 5101 5376 
L 4742 5376 
L 4742 4787 
L 4282 4787 
L 4282 5376 
L 3923 5376 
L 3923 4787 
L 3162 4787 
z
M 3283 1939 
L 3283 742 
L 5779 742 
L 5779 1939 
L 3283 1939 
z
M 3533 3693 
L 3981 3693 
L 3981 3251 
L 3533 3251 
L 3533 3693 
z
M 4282 3693 
L 4742 3693 
L 4742 3251 
L 4282 3251 
L 4282 3693 
z
M 5043 3693 
L 5510 3693 
L 5510 3251 
L 5043 3251 
L 5043 3693 
z
M 3533 4454 
L 3981 4454 
L 3981 4019 
L 3533 4019 
L 3533 4454 
z
M 4282 4454 
L 4742 4454 
L 4742 4019 
L 4282 4019 
L 4282 4454 
z
M 5043 4454 
L 5510 4454 
L 5510 4019 
L 5043 4019 
L 5043 4454 
z
M 1178 1440 
L 2138 1440 
L 2138 973 
L 1178 973 
L 1178 1440 
z
M 1178 1792 
L 1178 2246 
L 2138 2246 
L 2138 1792 
L 1178 1792 
z
M 390 3373 
L 390 2445 
L 762 2445 
L 762 -512 
L 1178 -512 
L 1178 621 
L 2138 621 
L 2138 -51 
C 2138 -115 2118 -134 2048 -141 
C 1990 -141 1792 -141 1562 -134 
C 1619 -243 1677 -403 1690 -512 
C 2035 -512 2240 -506 2381 -442 
C 2522 -378 2554 -262 2554 -58 
L 2554 2592 
L 762 2592 
L 762 3021 
L 2560 3021 
L 2560 2445 
L 2944 2445 
L 2944 3373 
L 2566 3373 
L 2566 5152 
L 762 5152 
L 762 3373 
L 390 3373 
z
M 1466 4371 
L 1466 3373 
L 1126 3373 
L 1126 4787 
L 2182 4787 
L 2182 4371 
L 1466 4371 
z
M 2182 3373 
L 1766 3373 
L 1766 4064 
L 2182 4064 
L 2182 3373 
z
" transform="scale(0.015625)"/>
      <path id="NotoSansCJKjp-Regular-e6af" d="M 1952 2432 
C 1952 3680 1446 4698 678 5478 
L 294 5280 
C 1030 4518 1485 3571 1485 2432 
C 1485 1293 1030 346 294 -416 
L 678 -614 
C 1446 166 1952 1184 1952 2432 
z
" transform="scale(0.015625)"/>
     </defs>
     <use xlink:href="#NotoSansCJKjp-Regular-e6ae"/>
     <use xlink:href="#NotoSansCJKjp-Regular-74a1" transform="translate(100 0)"/>
     <use xlink:href="#NotoSansCJKjp-Regular-2c76" transform="translate(200 0)"/>
     <use xlink:href="#NotoSansCJKjp-Regular-9d6d" transform="translate(300 0)"/>
     <use xlink:href="#NotoSansCJKjp-Regular-4231" transform="translate(400 0)"/>
     <use xlink:href="#NotoSansCJKjp-Regular-e6b2" transform="translate(500 0)"/>
     <use xlink:href="#NotoSansCJKjp-Regular-8205" transform="translate(600 0)"/>
     <use xlink:href="#NotoSansCJKjp-Regular-69ba" transform="translate(700 0)"/>
     <use xlink:href="#NotoSansCJKjp-Regular-86fd" transform="translate(800 0)"/>
     <use xlink:href="#NotoSansCJKjp-Regular-b0c7" transform="translate(900 0)"/>
     <use xlink:href="#NotoSansCJKjp-Regular-e6af" transform="translate(1000 0)"/>
    </g>
   </g>
   <g id="text_2">
    <!-- 運動獨立性：水平等速 ＋ 鉛直等加速 ＝ 拋物線 -->
    <g style="fill: #222831" transform="translate(7.2 19.52) scale(0.14 -0.14)">
     <defs>
      <path id="NotoSansCJKjp-Regular-9dde" d="M 358 4947 
C 749 4640 1184 4186 1370 3866 
L 1760 4166 
C 1568 4480 1114 4922 723 5216 
L 358 4947 
z
M 1984 5152 
L 1984 4320 
L 2419 4320 
L 2419 4787 
L 5504 4787 
L 5504 4320 
L 5958 4320 
L 5958 5152 
L 1984 5152 
z
M 1574 2848 
L 294 2848 
L 294 2400 
L 1107 2400 
L 1107 742 
C 819 474 499 205 230 13 
L 480 -461 
C 794 -179 1088 96 1370 371 
C 1773 -134 2355 -358 3200 -390 
C 3917 -416 5286 -403 6003 -378 
C 6022 -230 6099 -13 6157 96 
C 5382 45 3904 26 3194 58 
C 2438 90 1875 307 1574 781 
L 1574 2848 
z
M 2746 2368 
L 3718 2368 
L 3718 1933 
L 2746 1933 
L 2746 2368 
z
M 4186 2368 
L 5178 2368 
L 5178 1933 
L 4186 1933 
L 4186 2368 
z
M 2746 3104 
L 3718 3104 
L 3718 2682 
L 2746 2682 
L 2746 3104 
z
M 4186 3104 
L 5178 3104 
L 5178 2682 
L 4186 2682 
L 4186 3104 
z
M 1882 1216 
L 1882 845 
L 3718 845 
L 3718 237 
L 4186 237 
L 4186 845 
L 6067 845 
L 6067 1216 
L 4186 1216 
L 4186 1606 
L 5619 1606 
L 5619 3430 
L 4186 3430 
L 4186 3821 
L 5798 3821 
L 5798 4179 
L 4186 4179 
L 4186 4627 
L 3718 4627 
L 3718 4179 
L 2125 4179 
L 2125 3821 
L 3718 3821 
L 3718 3430 
L 2323 3430 
L 2323 1606 
L 3718 1606 
L 3718 1216 
L 1882 1216 
z
" transform="scale(0.015625)"/>
      <path id="NotoSansCJKjp-Regular-2cc2" d="M 4192 5293 
C 4192 4806 4192 4333 4179 3878 
L 3418 3878 
L 3418 3437 
L 4166 3437 
C 4109 2227 3942 1184 3386 422 
L 3386 448 
L 2099 314 
L 2099 826 
L 3360 826 
L 3360 1197 
L 2099 1197 
L 2099 1587 
L 3347 1587 
L 3347 3501 
L 2099 3501 
L 2099 3904 
L 3469 3904 
L 3469 4282 
L 2099 4282 
L 2099 4755 
C 2566 4806 3008 4864 3354 4941 
L 3117 5312 
C 2451 5158 1286 5043 339 4998 
C 384 4896 435 4742 454 4640 
C 832 4653 1248 4678 1658 4710 
L 1658 4282 
L 269 4282 
L 269 3904 
L 1658 3904 
L 1658 3501 
L 461 3501 
L 461 1587 
L 1658 1587 
L 1658 1197 
L 442 1197 
L 442 826 
L 1658 826 
L 1658 269 
L 269 141 
L 333 -282 
C 1056 -205 2054 -90 3034 26 
C 2950 -51 2854 -128 2758 -198 
C 2874 -275 3040 -435 3110 -544 
C 4256 307 4544 1722 4627 3437 
L 5536 3437 
C 5472 1094 5395 243 5242 51 
C 5184 -32 5120 -45 5018 -45 
C 4896 -45 4608 -45 4294 -19 
C 4371 -147 4422 -346 4435 -480 
C 4736 -493 5037 -499 5222 -474 
C 5414 -454 5542 -403 5651 -230 
C 5869 38 5933 934 6003 3642 
C 6003 3699 6003 3878 6003 3878 
L 4640 3878 
C 4653 4333 4659 4806 4659 5293 
L 4192 5293 
z
M 858 2387 
L 1658 2387 
L 1658 1920 
L 858 1920 
L 858 2387 
z
M 2099 2387 
L 2938 2387 
L 2938 1920 
L 2099 1920 
L 2099 2387 
z
M 858 3168 
L 1658 3168 
L 1658 2707 
L 858 2707 
L 858 3168 
z
M 2099 3168 
L 2938 3168 
L 2938 2707 
L 2099 2707 
L 2099 3168 
z
" transform="scale(0.015625)"/>
      <path id="NotoSansCJKjp-Regular-6690" d="M 4781 4730 
L 5459 4730 
L 5459 3962 
L 4781 3962 
L 4781 4730 
z
M 3750 4730 
L 4416 4730 
L 4416 3962 
L 3750 3962 
L 3750 4730 
z
M 2739 4730 
L 3386 4730 
L 3386 3962 
L 2739 3962 
L 2739 4730 
z
M 4339 819 
C 4403 723 4467 614 4525 506 
L 3910 454 
L 3910 992 
L 4979 992 
L 4979 2246 
L 3910 2246 
L 3910 2624 
L 3533 2624 
L 3533 2246 
L 2458 2246 
L 2458 992 
L 3533 992 
L 3533 422 
C 3014 378 2541 339 2176 320 
L 2227 -90 
L 4698 147 
L 4781 -83 
L 4608 -70 
C 4678 -186 4717 -371 4730 -499 
C 4979 -512 5210 -512 5350 -493 
C 5523 -474 5626 -429 5728 -288 
C 5907 -58 5958 698 6029 2931 
C 6029 3002 6035 3149 6035 3149 
L 3104 3149 
C 3194 3290 3270 3437 3341 3584 
L 5901 3584 
L 5901 5107 
L 2323 5107 
L 2323 3584 
L 2848 3584 
C 2618 3123 2272 2701 1888 2406 
C 1862 3014 1773 3597 1510 4154 
C 1766 4474 1997 4800 2176 5133 
L 1760 5338 
C 1632 5094 1466 4832 1274 4582 
C 1114 4832 909 5082 646 5325 
L 314 5075 
C 602 4800 819 4512 979 4218 
C 736 3936 467 3680 192 3462 
C 301 3392 448 3258 525 3162 
C 749 3347 973 3552 1184 3782 
C 1286 3501 1350 3213 1389 2918 
C 1114 2362 621 1760 179 1446 
C 288 1350 429 1190 499 1075 
C 819 1344 1165 1760 1440 2182 
L 1440 1926 
C 1440 1088 1382 256 1229 58 
C 1184 -6 1120 -38 1037 -45 
C 902 -64 685 -64 416 -45 
C 499 -179 544 -358 544 -506 
C 781 -518 1024 -512 1229 -474 
C 1376 -454 1498 -384 1581 -269 
C 1837 77 1894 986 1894 1920 
L 1888 2362 
C 1997 2291 2150 2163 2221 2099 
C 2432 2278 2643 2502 2835 2752 
L 5581 2752 
C 5517 832 5453 154 5338 -6 
C 5286 -83 5229 -96 5146 -96 
L 4890 -90 
L 5146 6 
C 5069 262 4877 646 4666 934 
L 4339 819 
z
M 2835 1920 
L 3533 1920 
L 3533 1318 
L 2835 1318 
L 2835 1920 
z
M 3910 1920 
L 4589 1920 
L 4589 1318 
L 3910 1318 
L 3910 1920 
z
" transform="scale(0.015625)"/>
      <path id="NotoSansCJKjp-Regular-73ae" d="M 1408 3194 
C 1728 2362 1971 1267 2003 563 
L 2496 685 
C 2445 1395 2202 2464 1862 3309 
L 1408 3194 
z
M 2938 5376 
L 2938 4115 
L 550 4115 
L 550 3642 
L 5894 3642 
L 5894 4115 
L 3437 4115 
L 3437 5376 
L 2938 5376 
z
M 4461 3347 
C 4275 2400 3910 1069 3590 243 
L 333 243 
L 333 -230 
L 6074 -230 
L 6074 243 
L 4096 243 
C 4403 1062 4762 2272 5011 3245 
L 4461 3347 
z
" transform="scale(0.015625)"/>
      <path id="NotoSansCJKjp-Regular-44ea" d="M 1101 5376 
L 1101 -506 
L 1581 -506 
L 1581 5376 
L 1101 5376 
z
M 512 4160 
C 467 3642 352 2938 179 2509 
L 557 2381 
C 723 2848 838 3584 877 4109 
L 512 4160 
z
M 1626 4198 
C 1811 3846 2003 3379 2067 3091 
L 2426 3277 
C 2355 3546 2157 4000 1965 4346 
L 1626 4198 
z
M 2138 173 
L 2138 -282 
L 6074 -282 
L 6074 173 
L 4461 173 
L 4461 1779 
L 5779 1779 
L 5779 2227 
L 4461 2227 
L 4461 3558 
L 5920 3558 
L 5920 4019 
L 4461 4019 
L 4461 5350 
L 3974 5350 
L 3974 4019 
L 3181 4019 
C 3264 4333 3341 4672 3405 5005 
L 2938 5082 
C 2790 4211 2534 3341 2163 2784 
C 2278 2733 2496 2624 2592 2560 
C 2758 2835 2906 3174 3034 3558 
L 3974 3558 
L 3974 2227 
L 2618 2227 
L 2618 1779 
L 3974 1779 
L 3974 173 
L 2138 173 
z
" transform="scale(0.015625)"/>
      <path id="NotoSansCJKjp-Regular-59e1" d="M 352 3738 
L 352 3251 
L 2029 3251 
C 1709 1971 1030 1011 186 486 
C 307 416 493 224 576 109 
C 1517 742 2298 1946 2624 3629 
L 2298 3757 
L 2208 3738 
L 352 3738 
z
M 5523 4339 
C 5146 3827 4525 3187 4000 2739 
C 3782 3194 3603 3686 3462 4192 
L 3462 5363 
L 2957 5363 
L 2957 166 
C 2957 45 2912 6 2784 0 
C 2656 -6 2246 -6 1779 6 
C 1856 -134 1952 -378 1978 -518 
C 2573 -518 2938 -499 3155 -416 
C 3373 -326 3462 -173 3462 166 
L 3462 2925 
C 3974 1606 4742 525 5850 -19 
C 5939 122 6099 320 6221 416 
C 5370 787 4704 1485 4205 2349 
C 4762 2790 5453 3462 5965 4026 
L 5523 4339 
z
" transform="scale(0.015625)"/>
      <path id="NotoSansCJKjp-Regular-41d6" d="M 1114 4032 
C 1363 3558 1613 2938 1702 2554 
L 2157 2714 
C 2067 3085 1805 3699 1549 4160 
L 1114 4032 
z
M 4832 4192 
C 4672 3725 4378 3072 4134 2669 
L 4550 2534 
C 4800 2918 5101 3533 5338 4051 
L 4832 4192 
z
M 333 2227 
L 333 1747 
L 2938 1747 
L 2938 -506 
L 3437 -506 
L 3437 1747 
L 6074 1747 
L 6074 2227 
L 3437 2227 
L 3437 4467 
L 5715 4467 
L 5715 4947 
L 672 4947 
L 672 4467 
L 2938 4467 
L 2938 2227 
L 333 2227 
z
" transform="scale(0.015625)"/>
      <path id="NotoSansCJKjp-Regular-e6b1" d="M 5523 2182 
L 5523 2624 
L 3418 2624 
L 3418 4730 
L 2982 4730 
L 2982 2624 
L 877 2624 
L 877 2182 
L 2982 2182 
L 2982 77 
L 3418 77 
L 3418 2182 
L 5523 2182 
z
" transform="scale(0.015625)"/>
      <path id="NotoSansCJKjp-Regular-e6c3" d="M 5523 3386 
L 877 3386 
L 877 2944 
L 5523 2944 
L 5523 3386 
z
M 877 1939 
L 877 1498 
L 5523 1498 
L 5523 1939 
L 877 1939 
z
" transform="scale(0.015625)"/>
      <path id="NotoSansCJKjp-Regular-497f" d="M 3078 3149 
L 3078 326 
C 3078 -51 3187 -160 3386 -243 
C 3565 -314 3834 -339 4077 -339 
C 4218 -339 4806 -339 4947 -339 
C 5178 -339 5478 -320 5638 -288 
C 5830 -243 5958 -173 6029 -45 
C 6099 83 6138 403 6150 691 
C 6035 723 5894 794 5805 864 
C 5805 582 5786 352 5754 262 
C 5715 186 5600 147 5491 128 
C 5382 115 5158 109 4966 109 
C 4717 109 4301 109 4115 109 
C 3930 109 3789 115 3680 147 
C 3558 166 3507 218 3507 326 
L 3507 3149 
L 3078 3149 
z
M 934 5376 
L 934 4083 
L 307 4083 
L 307 3635 
L 934 3635 
L 934 2221 
L 250 1978 
L 378 1517 
L 934 1734 
L 934 70 
C 934 -13 909 -32 832 -32 
C 762 -38 544 -38 294 -32 
C 352 -154 403 -346 422 -461 
C 781 -461 1005 -448 1152 -371 
C 1286 -294 1344 -173 1344 77 
L 1344 1901 
L 1888 2118 
L 1805 2554 
L 1344 2374 
L 1344 3635 
L 1805 3635 
L 1805 4083 
L 1344 4083 
L 1344 5376 
L 934 5376 
z
M 2560 5389 
L 2560 4154 
L 1997 4154 
L 1997 3738 
L 2560 3738 
L 2560 3680 
C 2560 2394 2464 922 1408 -256 
C 1523 -307 1690 -429 1779 -506 
C 2874 736 2982 2310 2982 3686 
L 2982 3738 
L 3706 3738 
L 3706 4154 
L 2982 4154 
L 2982 5389 
L 2560 5389 
z
M 4518 5370 
C 4512 4954 4506 4550 4493 4154 
L 3910 4154 
L 3910 3725 
L 4467 3725 
C 4397 2560 4192 1542 3603 896 
C 3712 832 3859 691 3923 595 
C 4570 1325 4794 2438 4877 3725 
L 5459 3725 
C 5421 1926 5370 1286 5267 1133 
C 5216 1062 5178 1050 5094 1050 
C 4998 1050 4800 1050 4582 1075 
C 4640 960 4685 787 4685 659 
C 4909 646 5133 653 5267 666 
C 5421 685 5530 730 5626 864 
C 5779 1088 5824 1792 5875 3942 
C 5875 4006 5875 4154 5875 4154 
L 4902 4154 
C 4922 4550 4928 4954 4934 5370 
L 4518 5370 
z
" transform="scale(0.015625)"/>
      <path id="NotoSansCJKjp-Regular-64fb" d="M 3418 5376 
C 3206 4403 2822 3488 2285 2906 
C 2394 2842 2579 2707 2656 2630 
C 2938 2957 3181 3379 3392 3853 
L 3942 3853 
C 3648 2822 3078 1747 2400 1210 
C 2528 1139 2682 1024 2778 928 
C 3482 1542 4064 2746 4358 3853 
L 4883 3853 
C 4550 2234 3859 640 2803 -115 
C 2938 -179 3110 -307 3206 -403 
C 4269 442 4979 2163 5306 3853 
L 5606 3853 
C 5478 1299 5338 346 5133 115 
C 5062 32 4998 13 4890 13 
C 4768 13 4512 19 4224 45 
C 4301 -90 4346 -294 4358 -435 
C 4640 -454 4915 -454 5088 -435 
C 5280 -410 5408 -358 5536 -179 
C 5792 134 5933 1139 6074 4058 
C 6080 4122 6086 4301 6086 4301 
L 3571 4301 
C 3680 4614 3782 4954 3859 5293 
L 3418 5376 
z
M 627 5005 
C 550 4218 422 3405 186 2867 
C 288 2822 474 2707 550 2650 
C 659 2912 755 3245 832 3603 
L 1421 3603 
L 1421 2157 
C 973 2029 550 1907 224 1824 
L 352 1363 
L 1421 1696 
L 1421 -512 
L 1869 -512 
L 1869 1837 
L 2675 2093 
L 2611 2515 
L 1869 2291 
L 1869 3603 
L 2528 3603 
L 2528 4064 
L 1869 4064 
L 1869 5370 
L 1421 5370 
L 1421 4064 
L 922 4064 
C 966 4352 1011 4646 1043 4941 
L 627 5005 
z
" transform="scale(0.015625)"/>
      <path id="NotoSansCJKjp-Regular-7a17" d="M 3258 3405 
L 5414 3405 
L 5414 2848 
L 3258 2848 
L 3258 3405 
z
M 3258 4326 
L 5414 4326 
L 5414 3770 
L 3258 3770 
L 3258 4326 
z
M 1894 1632 
C 2048 1267 2182 781 2208 474 
L 2586 589 
C 2541 902 2406 1370 2246 1734 
L 1894 1632 
z
M 570 1715 
C 493 1158 378 582 166 192 
C 269 154 454 70 538 13 
C 736 422 890 1043 973 1651 
L 570 1715 
z
M 2816 4717 
L 2816 2451 
L 4109 2451 
L 4109 6 
C 4109 -64 4090 -83 4006 -90 
C 3930 -90 3674 -90 3386 -83 
C 3443 -211 3501 -384 3520 -506 
C 3917 -506 4173 -499 4339 -435 
C 4506 -358 4544 -237 4544 6 
L 4544 1325 
C 4819 717 5254 109 5952 -250 
C 6016 -128 6157 51 6246 141 
C 5754 358 5382 698 5114 1088 
C 5427 1306 5798 1613 6106 1894 
L 5715 2176 
C 5523 1946 5203 1645 4922 1408 
C 4742 1734 4627 2074 4544 2400 
L 4544 2451 
L 5875 2451 
L 5875 4717 
L 4365 4717 
C 4467 4890 4570 5088 4659 5280 
L 4128 5382 
C 4077 5190 3968 4934 3872 4717 
L 2816 4717 
z
M 2573 1901 
L 2573 1491 
L 3443 1491 
C 3219 826 2803 352 2291 77 
C 2381 13 2534 -154 2592 -250 
C 3226 115 3738 787 3962 1805 
L 3699 1914 
L 3622 1901 
L 2573 1901 
z
M 179 2547 
L 237 2118 
L 1248 2182 
L 1248 -512 
L 1670 -512 
L 1670 2208 
L 2176 2240 
C 2234 2086 2285 1946 2310 1824 
L 2694 2003 
C 2598 2349 2342 2906 2074 3322 
L 1722 3181 
C 1824 3014 1920 2829 2010 2637 
L 1088 2592 
C 1517 3136 2010 3866 2374 4454 
L 1971 4646 
C 1792 4301 1549 3878 1286 3475 
C 1190 3610 1075 3750 941 3898 
C 1178 4256 1459 4781 1677 5216 
L 1254 5376 
C 1120 5018 890 4531 685 4166 
L 486 4346 
L 237 4038 
C 525 3763 845 3398 1037 3104 
C 896 2912 762 2726 634 2566 
L 179 2547 
z
" transform="scale(0.015625)"/>
     </defs>
     <use xlink:href="#NotoSansCJKjp-Regular-9dde"/>
     <use xlink:href="#NotoSansCJKjp-Regular-2cc2" transform="translate(100 0)"/>
     <use xlink:href="#NotoSansCJKjp-Regular-6690" transform="translate(200 0)"/>
     <use xlink:href="#NotoSansCJKjp-Regular-73ae" transform="translate(300 0)"/>
     <use xlink:href="#NotoSansCJKjp-Regular-44ea" transform="translate(400 0)"/>
     <use xlink:href="#NotoSansCJKjp-Regular-e6c0" transform="translate(500 0)"/>
     <use xlink:href="#NotoSansCJKjp-Regular-59e1" transform="translate(600 0)"/>
     <use xlink:href="#NotoSansCJKjp-Regular-41d6" transform="translate(700 0)"/>
     <use xlink:href="#NotoSansCJKjp-Regular-74a1" transform="translate(800 0)"/>
     <use xlink:href="#NotoSansCJKjp-Regular-9d6d" transform="translate(900 0)"/>
     <use xlink:href="#NotoSansCJKjp-Regular-1" transform="translate(1000 0)"/>
     <use xlink:href="#NotoSansCJKjp-Regular-e6b1" transform="translate(1022.40625 0)"/>
     <use xlink:href="#NotoSansCJKjp-Regular-1" transform="translate(1122.40625 0)"/>
     <use xlink:href="#NotoSansCJKjp-Regular-a209" transform="translate(1144.8125 0)"/>
     <use xlink:href="#NotoSansCJKjp-Regular-6ce1" transform="translate(1244.8125 0)"/>
     <use xlink:href="#NotoSansCJKjp-Regular-74a1" transform="translate(1344.8125 0)"/>
     <use xlink:href="#NotoSansCJKjp-Regular-2c76" transform="translate(1444.8125 0)"/>
     <use xlink:href="#NotoSansCJKjp-Regular-9d6d" transform="translate(1544.8125 0)"/>
     <use xlink:href="#NotoSansCJKjp-Regular-1" transform="translate(1644.8125 0)"/>
     <use xlink:href="#NotoSansCJKjp-Regular-e6c3" transform="translate(1667.21875 0)"/>
     <use xlink:href="#NotoSansCJKjp-Regular-1" transform="translate(1767.21875 0)"/>
     <use xlink:href="#NotoSansCJKjp-Regular-497f" transform="translate(1789.625 0)"/>
     <use xlink:href="#NotoSansCJKjp-Regular-64fb" transform="translate(1889.625 0)"/>
     <use xlink:href="#NotoSansCJKjp-Regular-7a17" transform="translate(1989.625 0)"/>
    </g>
   </g>
   <g id="patch_3">
    <path d="M 62.114877 83.1776 
C 63.407072 83.1776 64.646516 82.664205 65.560236 81.750486 
C 66.473955 80.836766 66.98735 79.597322 66.98735 78.305127 
C 66.98735 77.012932 66.473955 75.773488 65.560236 74.859768 
C 64.646516 73.946048 63.407072 73.432654 62.114877 73.432654 
C 60.822682 73.432654 59.583238 73.946048 58.669518 74.859768 
C 57.755798 75.773488 57.242404 77.012932 57.242404 78.305127 
C 57.242404 79.597322 57.755798 80.836766 58.669518 81.750486 
C 59.583238 82.664205 60.822682 83.1776 62.114877 83.1776 
z
" clip-path="url(#p9f71904705)" style="fill: #1f6feb; stroke: #1f6feb; stroke-linejoin: miter"/>
   </g>
   <g id="patch_4">
    <path d="M 81.60477 91.298389 
C 82.896965 91.298389 84.136409 90.784994 85.050129 89.871274 
C 85.963848 88.957555 86.477243 87.718111 86.477243 86.425915 
C 86.477243 85.13372 85.963848 83.894276 85.050129 82.980557 
C 84.136409 82.066837 82.896965 81.553442 81.60477 81.553442 
C 80.312575 81.553442 79.073131 82.066837 78.159411 82.980557 
C 77.245691 83.894276 76.732296 85.13372 76.732296 86.425915 
C 76.732296 87.718111 77.245691 88.957555 78.159411 89.871274 
C 79.073131 90.784994 80.312575 91.298389 81.60477 91.298389 
z
" clip-path="url(#p9f71904705)" style="fill: #1f6feb; stroke: #1f6feb; stroke-linejoin: miter"/>
   </g>
   <g id="patch_5">
    <path d="M 101.094663 115.660755 
C 102.386858 115.660755 103.626302 115.14736 104.540022 114.233641 
C 105.453741 113.319921 105.967136 112.080477 105.967136 110.788282 
C 105.967136 109.496087 105.453741 108.256643 104.540022 107.342923 
C 103.626302 106.429203 102.386858 105.915808 101.094663 105.915808 
C 99.802468 105.915808 98.563024 106.429203 97.649304 107.342923 
C 96.735584 108.256643 96.222189 109.496087 96.222189 110.788282 
C 96.222189 112.080477 96.735584 113.319921 97.649304 114.233641 
C 98.563024 115.14736 99.802468 115.660755 101.094663 115.660755 
z
" clip-path="url(#p9f71904705)" style="fill: #1f6feb; stroke: #1f6feb; stroke-linejoin: miter"/>
   </g>
   <g id="patch_6">
    <path d="M 120.584556 156.264699 
C 121.876751 156.264699 123.116195 155.751304 124.029915 154.837584 
C 124.943634 153.923864 125.457029 152.68442 125.457029 151.392225 
C 125.457029 150.10003 124.943634 148.860586 124.029915 147.946866 
C 123.116195 147.033147 121.876751 146.519752 120.584556 146.519752 
C 119.292361 146.519752 118.052917 147.033147 117.139197 147.946866 
C 116.225477 148.860586 115.712082 150.10003 115.712082 151.392225 
C 115.712082 152.68442 116.225477 153.923864 117.139197 154.837584 
C 118.052917 155.751304 119.292361 156.264699 120.584556 156.264699 
z
" clip-path="url(#p9f71904705)" style="fill: #1f6feb; stroke: #1f6feb; stroke-linejoin: miter"/>
   </g>
   <g id="patch_7">
    <path d="M 140.074449 213.11022 
C 141.366644 213.11022 142.606088 212.596825 143.519807 211.683105 
C 144.433527 210.769385 144.946922 209.529941 144.946922 208.237746 
C 144.946922 206.945551 144.433527 205.706107 143.519807 204.792388 
C 142.606088 203.878668 141.366644 203.365273 140.074449 203.365273 
C 138.782254 203.365273 137.54281 203.878668 136.62909 204.792388 
C 135.71537 205.706107 135.201975 206.945551 135.201975 208.237746 
C 135.201975 209.529941 135.71537 210.769385 136.62909 211.683105 
C 137.54281 212.596825 138.782254 213.11022 140.074449 213.11022 
z
" clip-path="url(#p9f71904705)" style="fill: #1f6feb; stroke: #1f6feb; stroke-linejoin: miter"/>
   </g>
   <g id="patch_8">
    <path d="M 159.564342 286.197318 
C 160.856537 286.197318 162.095981 285.683924 163.0097 284.770204 
C 163.92342 283.856484 164.436815 282.61704 164.436815 281.324845 
C 164.436815 280.03265 163.92342 278.793206 163.0097 277.879486 
C 162.095981 276.965766 160.856537 276.452372 159.564342 276.452372 
C 158.272147 276.452372 157.032703 276.965766 156.118983 277.879486 
C 155.205263 278.793206 154.691868 280.03265 154.691868 281.324845 
C 154.691868 282.61704 155.205263 283.856484 156.118983 284.770204 
C 157.032703 285.683924 158.272147 286.197318 159.564342 286.197318 
z
" clip-path="url(#p9f71904705)" style="fill: #1f6feb; stroke: #1f6feb; stroke-linejoin: miter"/>
   </g>
   <g id="text_3">
    <!-- 水平：等時間 → 等間距（等速度） -->
    <g style="fill: #1f6feb" transform="translate(18.150859 48.351775) scale(0.12 -0.12)">
     <defs>
      <path id="NotoSansCJKjp-Regular-9943" d="M 998 4685 
L 2246 4685 
L 2246 3558 
L 998 3558 
L 998 4685 
z
M 3155 5120 
L 3155 -506 
L 3629 -506 
L 3629 -205 
L 6157 -205 
L 6157 250 
L 3629 250 
L 3629 1331 
L 5798 1331 
L 5798 3603 
L 3629 3603 
L 3629 4672 
L 6074 4672 
L 6074 5120 
L 3155 5120 
z
M 3629 3155 
L 5331 3155 
L 5331 1779 
L 3629 1779 
L 3629 3155 
z
M 218 269 
L 307 -198 
C 1018 -26 2003 211 2931 442 
L 2886 870 
L 1888 634 
L 1888 1786 
L 2829 1786 
L 2829 2214 
L 1888 2214 
L 1888 3136 
L 2694 3136 
L 2694 5107 
L 570 5107 
L 570 3136 
L 1453 3136 
L 1453 538 
L 979 429 
L 979 2534 
L 570 2534 
L 570 339 
L 218 269 
z
" transform="scale(0.015625)"/>
     </defs>
     <use xlink:href="#NotoSansCJKjp-Regular-59e1"/>
     <use xlink:href="#NotoSansCJKjp-Regular-41d6" transform="translate(100 0)"/>
     <use xlink:href="#NotoSansCJKjp-Regular-e6c0" transform="translate(200 0)"/>
     <use xlink:href="#NotoSansCJKjp-Regular-74a1" transform="translate(300 0)"/>
     <use xlink:href="#NotoSansCJKjp-Regular-4f87" transform="translate(400 0)"/>
     <use xlink:href="#NotoSansCJKjp-Regular-a774" transform="translate(500 0)"/>
     <use xlink:href="#NotoSansCJKjp-Regular-1" transform="translate(600 0)"/>
     <use xlink:href="#NotoSansCJKjp-Regular-31c" transform="translate(622.40625 0)"/>
     <use xlink:href="#NotoSansCJKjp-Regular-1" transform="translate(722.40625 0)"/>
     <use xlink:href="#NotoSansCJKjp-Regular-74a1" transform="translate(744.8125 0)"/>
     <use xlink:href="#NotoSansCJKjp-Regular-a774" transform="translate(844.8125 0)"/>
     <use xlink:href="#NotoSansCJKjp-Regular-9943" transform="translate(944.8125 0)"/>
     <use xlink:href="#NotoSansCJKjp-Regular-e6ae" transform="translate(1044.8125 0)"/>
     <use xlink:href="#NotoSansCJKjp-Regular-74a1" transform="translate(1144.8125 0)"/>
     <use xlink:href="#NotoSansCJKjp-Regular-9d6d" transform="translate(1244.8125 0)"/>
     <use xlink:href="#NotoSansCJKjp-Regular-4231" transform="translate(1344.8125 0)"/>
     <use xlink:href="#NotoSansCJKjp-Regular-e6af" transform="translate(1444.8125 0)"/>
    </g>
   </g>
  </g>
 </g>
 <defs>
  <clipPath id="p9f71904705">
   <rect x="13.390144" y="25.52" width="280.167211" height="288.288"/>
  </clipPath>
 </defs>
 <defs>
  <pattern id="hffa7072e43" patternUnits="userSpaceOnUse" x="0" y="0" width="72" height="72">
   <rect x="0" y="0" width="73" height="73" fill="#eef1f5"/>
   <path d="M -36 36 
L 36 -36 
M -33 39 
L 39 -33 
M -30 42 
L 42 -30 
M -27 45 
L 45 -27 
M -24 48 
L 48 -24 
M -21 51 
L 51 -21 
M -18 54 
L 54 -18 
M -15 57 
L 57 -15 
M -12 60 
L 60 -12 
M -9 63 
L 63 -9 
M -6 66 
L 66 -6 
M -3 69 
L 69 -3 
M 0 72 
L 72 0 
M 3 75 
L 75 3 
M 6 78 
L 78 6 
M 9 81 
L 81 9 
M 12 84 
L 84 12 
M 15 87 
L 87 15 
M 18 90 
L 90 18 
M 21 93 
L 93 21 
M 24 96 
L 96 24 
M 27 99 
L 99 27 
M 30 102 
L 102 30 
M 33 105 
L 105 33 
M 36 108 
L 108 36 
" style="fill: #222831; stroke: #222831; stroke-width: 1.0; stroke-linecap: butt; stroke-linejoin: miter"/>
  </pattern>
 </defs>
</svg>
