<?xml version="1.0" encoding="utf-8" standalone="no"?>
<!DOCTYPE svg PUBLIC "-//W3C//DTD SVG 1.1//EN"
  "http://www.w3.org/Graphics/SVG/1.1/DTD/svg11.dtd">
<svg xmlns:xlink="http://www.w3.org/1999/xlink" width="809.28pt" height="322.776pt" viewBox="0 0 809.28 322.776" xmlns="http://www.w3.org/2000/svg" version="1.1">
 <metadata>
  <rdf:RDF xmlns:dc="http://purl.org/dc/elements/1.1/" xmlns:cc="http://creativecommons.org/ns#" xmlns:rdf="http://www.w3.org/1999/02/22-rdf-syntax-ns#">
   <cc:Work>
    <dc:type rdf:resource="http://purl.org/dc/dcmitype/StillImage"/>
    <dc:date>2026-06-19T00:23:41.913166</dc:date>
    <dc:format>image/svg+xml</dc:format>
    <dc:creator>
     <cc:Agent>
      <dc:title>Matplotlib v3.11.0, https://matplotlib.org/</dc:title>
     </cc:Agent>
    </dc:creator>
   </cc:Work>
  </rdf:RDF>
 </metadata>
 <defs>
  <style type="text/css">*{stroke-linejoin: round; stroke-linecap: butt}</style>
 </defs>
 <g id="figure_1">
  <g id="patch_1">
   <path d="M 0 322.776 
L 809.28 322.776 
L 809.28 0 
L 0 0 
z
" style="fill: #ffffff"/>
  </g>
  <g id="axes_1">
   <g id="line2d_1">
    <path d="M 7.2 187.416 
L 263.52 187.416 
" clip-path="url(#p9eaf2b377a)" style="fill: none; stroke: #d8dde3; stroke-linecap: square"/>
   </g>
   <g id="line2d_2">
    <path d="M 135.36 315.576 
L 135.36 59.256 
" clip-path="url(#p9eaf2b377a)" style="fill: none; stroke: #d8dde3; stroke-linecap: square"/>
   </g>
   <g id="line2d_3">
    <path d="M 135.36 187.416 
L 214.227692 187.416 
" clip-path="url(#p9eaf2b377a)" style="fill: none; stroke-dasharray: 5.92,2.56; stroke-dashoffset: 0; stroke: #1f6feb; stroke-width: 1.6"/>
   </g>
   <g id="text_1">
    <!-- 右邊常數 $&gt;0$：圓 -->
    <g style="fill: #1f6feb" transform="translate(83.945 53.256) scale(0.13 -0.13)">
     <defs>
      <path id="NotoSansCJKjp-Regular-2e93" d="M 2637 5376 
C 2554 4979 2445 4576 2310 4179 
L 416 4179 
L 416 3712 
L 2138 3712 
C 1728 2688 1114 1754 198 1133 
C 301 1037 448 864 525 749 
C 992 1082 1382 1485 1715 1939 
L 1715 -518 
L 2195 -518 
L 2195 -160 
L 5043 -160 
L 5043 -486 
L 5542 -486 
L 5542 2470 
L 2067 2470 
C 2298 2861 2496 3277 2662 3712 
L 6010 3712 
L 6010 4179 
L 2829 4179 
C 2944 4544 3046 4909 3136 5280 
L 2637 5376 
z
M 2195 307 
L 2195 2003 
L 5043 2003 
L 5043 307 
L 2195 307 
z
" transform="scale(0.015625)"/>
      <path id="NotoSansCJKjp-Regular-9e93" d="M 531 5005 
C 902 4794 1338 4467 1530 4218 
L 1869 4544 
C 1664 4787 1222 5101 851 5299 
L 531 5005 
z
M 307 3699 
C 698 3501 1152 3174 1363 2938 
L 1683 3270 
C 1466 3514 1005 3814 621 4006 
L 307 3699 
z
M 2880 4314 
L 5043 4314 
L 5043 4045 
L 2880 4045 
L 2880 4314 
z
M 2880 3802 
L 5043 3802 
L 5043 3520 
L 2880 3520 
L 2880 3802 
z
M 2880 4819 
L 5043 4819 
L 5043 4550 
L 2880 4550 
L 2880 4819 
z
M 1542 2400 
L 275 2400 
L 275 1952 
L 1075 1952 
L 1075 717 
C 794 454 474 198 211 0 
L 461 -467 
C 774 -186 1069 90 1344 365 
C 1754 -141 2342 -365 3200 -397 
C 3923 -422 5299 -410 6016 -378 
C 6035 -237 6112 -19 6170 90 
C 5395 38 3910 19 3194 51 
C 2432 77 1856 294 1542 768 
L 1542 2400 
z
M 1946 3008 
L 1946 2355 
L 2368 2355 
L 2368 2733 
L 3213 2733 
C 3098 2419 2790 2266 2118 2176 
C 2189 2112 2285 1978 2317 1894 
C 3091 2035 3443 2266 3571 2733 
L 4115 2733 
L 4115 2496 
C 4115 2170 4205 2093 4589 2093 
C 4659 2093 5056 2093 5126 2093 
C 5382 2093 5485 2176 5517 2496 
C 5421 2522 5280 2560 5210 2611 
C 5197 2400 5171 2374 5069 2374 
C 4992 2374 4691 2374 4634 2374 
C 4499 2374 4486 2387 4486 2496 
L 4486 2733 
L 5562 2733 
L 5562 2355 
L 5997 2355 
L 5997 3008 
L 4134 3008 
L 4134 3277 
L 5510 3277 
L 5510 5062 
L 4064 5062 
C 4115 5139 4173 5229 4224 5325 
L 3731 5389 
C 3706 5299 3654 5178 3603 5062 
L 2426 5062 
L 2426 3277 
L 3686 3277 
L 3686 3008 
L 1946 3008 
z
M 1926 1843 
L 1926 1542 
L 3219 1542 
C 3091 1062 2765 762 1952 589 
C 2042 518 2150 352 2189 256 
C 2835 416 3206 659 3424 1005 
L 4922 1005 
C 4858 749 4800 614 4730 557 
C 4678 518 4627 518 4518 518 
C 4410 512 4128 518 3840 550 
C 3885 461 3923 333 3930 256 
C 4237 230 4525 224 4666 230 
C 4826 237 4934 256 5043 333 
C 5184 442 5274 666 5363 1133 
C 5382 1190 5389 1293 5389 1293 
L 3565 1293 
C 3597 1370 3622 1453 3642 1542 
L 6054 1542 
L 6054 1843 
L 4134 1843 
L 4134 2234 
L 3693 2234 
L 3693 1843 
L 1926 1843 
z
" transform="scale(0.015625)"/>
      <path id="NotoSansCJKjp-Regular-417b" d="M 2003 3142 
L 4429 3142 
L 4429 2515 
L 2003 2515 
L 2003 3142 
z
M 973 1619 
L 973 -224 
L 1453 -224 
L 1453 1184 
L 3034 1184 
L 3034 -512 
L 3526 -512 
L 3526 1184 
L 5018 1184 
L 5018 282 
C 5018 205 4992 186 4890 173 
C 4787 173 4448 173 4064 186 
C 4128 58 4205 -122 4230 -250 
C 4730 -250 5050 -250 5254 -179 
C 5453 -109 5504 26 5504 275 
L 5504 1619 
L 3526 1619 
L 3526 2150 
L 4915 2150 
L 4915 3507 
L 1542 3507 
L 1542 2150 
L 3034 2150 
L 3034 1619 
L 973 1619 
z
M 1075 5139 
C 1267 4922 1478 4602 1581 4384 
L 550 4384 
L 550 3008 
L 1011 3008 
L 1011 3962 
L 5421 3962 
L 5421 3008 
L 5894 3008 
L 5894 4384 
L 3482 4384 
L 3482 5382 
L 2995 5382 
L 2995 4384 
L 1658 4384 
L 2048 4570 
C 1939 4774 1715 5088 1510 5318 
L 1075 5139 
z
M 4883 5325 
C 4755 5094 4518 4755 4339 4544 
L 4736 4384 
C 4922 4576 5165 4870 5382 5152 
L 4883 5325 
z
" transform="scale(0.015625)"/>
      <path id="NotoSansCJKjp-Regular-4e26" d="M 4352 3744 
L 5318 3744 
C 5216 2957 5062 2266 4826 1677 
C 4595 2266 4442 2944 4333 3661 
L 4352 3744 
z
M 256 4301 
L 256 3936 
L 698 3936 
L 698 3245 
L 1741 3245 
L 1741 2950 
L 538 2950 
L 538 1882 
L 1485 1882 
L 1274 1478 
L 262 1472 
L 275 1088 
L 1069 1094 
C 928 845 787 608 666 422 
L 1062 307 
L 1171 486 
C 1389 403 1606 314 1818 218 
C 1459 32 998 -83 416 -154 
C 493 -256 570 -410 602 -538 
C 1293 -416 1837 -250 2246 13 
C 2522 -128 2765 -275 2957 -410 
L 3264 -102 
C 3078 19 2848 154 2586 282 
C 2816 512 2976 794 3072 1133 
L 3750 1152 
L 3763 1510 
L 1734 1485 
L 1939 1882 
L 3424 1882 
L 3424 2419 
C 3526 2336 3648 2221 3706 2157 
C 3834 2362 3949 2592 4051 2848 
C 4179 2221 4346 1645 4563 1146 
C 4256 614 3853 192 3309 -134 
C 3392 -224 3539 -429 3584 -525 
C 4090 -198 4486 192 4794 666 
C 5075 166 5414 -237 5850 -518 
C 5920 -403 6067 -224 6176 -141 
C 5709 141 5350 582 5062 1133 
C 5421 1843 5638 2707 5779 3744 
L 6144 3744 
L 6144 4186 
L 4467 4186 
C 4550 4544 4621 4922 4678 5306 
L 4211 5376 
C 4070 4339 3827 3315 3424 2618 
L 3424 2950 
L 2163 2950 
L 2163 3245 
L 3277 3245 
L 3277 3936 
L 3731 3936 
L 3731 4301 
L 3277 4301 
L 3277 4986 
L 2163 4986 
L 2163 5376 
L 1741 5376 
L 1741 4986 
L 698 4986 
L 698 4301 
L 256 4301 
z
M 1101 4646 
L 1741 4646 
L 1741 4282 
L 1101 4282 
L 1101 4646 
z
M 1741 3578 
L 1101 3578 
L 1101 3955 
L 1741 3955 
L 1741 3578 
z
M 2163 4646 
L 2848 4646 
L 2848 4282 
L 2163 4282 
L 2163 4646 
z
M 2163 3578 
L 2163 3955 
L 2848 3955 
L 2848 3578 
L 2163 3578 
z
M 947 2624 
L 1741 2624 
L 1741 2202 
L 947 2202 
L 947 2624 
z
M 2163 2624 
L 3002 2624 
L 3002 2202 
L 2163 2202 
L 2163 2624 
z
M 1530 1107 
L 2630 1126 
C 2534 864 2387 646 2189 467 
C 1920 589 1632 704 1357 800 
L 1530 1107 
z
" transform="scale(0.015625)"/>
      <path id="NotoSansCJKjp-Regular-1" transform="scale(0.015625)"/>
      <path id="Cmmi10-6b" d="M 531 -128 
Q 531 -47 616 -6 
L 4013 1600 
L 594 3219 
Q 531 3238 531 3328 
Q 531 3372 567 3414 
Q 603 3456 659 3456 
Q 672 3456 709 3444 
L 4384 1709 
Q 4441 1681 4441 1600 
Q 4441 1516 4366 1484 
L 709 -244 
Q 672 -256 659 -256 
Q 603 -256 567 -214 
Q 531 -172 531 -128 
z
" transform="scale(0.015625)"/>
      <path id="Cmr10-28" d="M 1600 -141 
Q 816 -141 533 504 
Q 250 1150 250 2041 
Q 250 2597 351 3087 
Q 453 3578 754 3920 
Q 1056 4263 1600 4263 
Q 2022 4263 2290 4056 
Q 2559 3850 2700 3523 
Q 2841 3197 2892 2823 
Q 2944 2450 2944 2041 
Q 2944 1491 2842 1011 
Q 2741 531 2444 195 
Q 2147 -141 1600 -141 
z
M 1600 25 
Q 1956 25 2131 390 
Q 2306 756 2347 1200 
Q 2388 1644 2388 2144 
Q 2388 2625 2347 3031 
Q 2306 3438 2132 3767 
Q 1959 4097 1600 4097 
Q 1238 4097 1063 3765 
Q 888 3434 847 3029 
Q 806 2625 806 2144 
Q 806 1788 823 1472 
Q 841 1156 916 820 
Q 991 484 1158 254 
Q 1325 25 1600 25 
z
" transform="scale(0.015625)"/>
      <path id="NotoSansCJKjp-Regular-e6c0" d="M 3200 3482 
C 3456 3482 3686 3667 3686 3962 
C 3686 4256 3456 4442 3200 4442 
C 2944 4442 2714 4256 2714 3962 
C 2714 3667 2944 3482 3200 3482 
z
M 3200 346 
C 3456 346 3686 538 3686 826 
C 3686 1120 3456 1312 3200 1312 
C 2944 1312 2714 1120 2714 826 
C 2714 538 2944 346 3200 346 
z
" transform="scale(0.015625)"/>
      <path id="NotoSansCJKjp-Regular-33a8" d="M 2330 4013 
L 4051 4013 
L 4051 3648 
L 2330 3648 
L 2330 4013 
z
M 1926 4282 
L 1926 3373 
L 4474 3373 
L 4474 4282 
L 1926 4282 
z
M 2061 2304 
L 4301 2304 
L 4301 2003 
L 2061 2003 
L 2061 2304 
z
M 2061 1741 
L 4301 1741 
L 4301 1427 
L 2061 1427 
L 2061 1741 
z
M 2061 2861 
L 4301 2861 
L 4301 2566 
L 2061 2566 
L 2061 2861 
z
M 3482 966 
C 3923 800 4390 570 4653 390 
L 5050 582 
C 4749 768 4237 992 3782 1158 
L 4730 1158 
L 4730 3130 
L 1651 3130 
L 1651 1158 
L 2509 1158 
C 2221 966 1760 800 1338 678 
C 1421 608 1568 467 1632 397 
C 2048 544 2560 800 2886 1043 
L 2541 1158 
L 3757 1158 
L 3482 966 
z
M 525 5082 
L 525 -531 
L 986 -531 
L 986 -230 
L 5402 -230 
L 5402 -531 
L 5875 -531 
L 5875 5082 
L 525 5082 
z
M 986 205 
L 986 4640 
L 5402 4640 
L 5402 205 
L 986 205 
z
" transform="scale(0.015625)"/>
     </defs>
     <use xlink:href="#NotoSansCJKjp-Regular-2e93" transform="translate(0 0.796875)"/>
     <use xlink:href="#NotoSansCJKjp-Regular-9e93" transform="translate(99.999908 0.796875)"/>
     <use xlink:href="#NotoSansCJKjp-Regular-417b" transform="translate(199.999817 0.796875)"/>
     <use xlink:href="#NotoSansCJKjp-Regular-4e26" transform="translate(299.999725 0.796875)"/>
     <use xlink:href="#NotoSansCJKjp-Regular-1" transform="translate(399.999634 0.796875)"/>
     <use xlink:href="#Cmmi10-6b" transform="translate(442.39967 0.796875)"/>
     <use xlink:href="#Cmr10-28" transform="translate(540.085274 0.796875)"/>
     <use xlink:href="#NotoSansCJKjp-Regular-e6c0" transform="translate(590.085274 0.796875)"/>
     <use xlink:href="#NotoSansCJKjp-Regular-33a8" transform="translate(690.085182 0.796875)"/>
    </g>
   </g>
   <g id="line2d_4">
    <path d="M 214.227692 187.416 
L 214.1397 183.691519 
L 213.875919 179.975348 
L 213.436939 176.27578 
L 212.823738 172.601071 
L 212.037686 168.95942 
L 211.080536 165.358952 
L 209.954423 161.807702 
L 208.661861 158.313595 
L 207.205735 154.884426 
L 205.589292 151.527848 
L 203.81614 148.25135 
L 201.890236 145.062244 
L 199.815876 141.967646 
L 197.597691 138.974461 
L 195.240629 136.089368 
L 192.74995 133.318804 
L 190.131211 130.668953 
L 187.390256 128.145727 
L 184.533202 125.754755 
L 181.566423 123.501374 
L 178.496539 121.390612 
L 175.330401 119.427178 
L 172.075073 117.615453 
L 168.73782 115.959481 
L 165.326087 114.462957 
L 161.847489 113.129219 
L 158.309786 111.961244 
L 154.720874 110.961638 
L 151.08876 110.132632 
L 147.421549 109.476075 
L 143.727424 108.993432 
L 140.014628 108.685781 
L 136.291445 108.553808 
L 132.566184 108.597807 
L 128.847158 108.817681 
L 125.142664 109.212938 
L 121.460968 109.782697 
L 117.810287 110.525685 
L 114.198767 111.440247 
L 110.634465 112.52434 
L 107.125336 113.775545 
L 103.679209 115.191071 
L 100.303774 116.767759 
L 97.006564 118.502091 
L 93.794935 120.390197 
L 90.676054 122.427864 
L 87.65688 124.610544 
L 84.744151 126.933368 
L 81.944365 129.391153 
L 79.263771 131.978414 
L 76.708349 134.689377 
L 74.283802 137.517995 
L 71.99554 140.457954 
L 69.848669 143.502695 
L 67.847979 146.645424 
L 65.997935 149.879127 
L 64.302665 153.196591 
L 62.765951 156.590411 
L 61.391223 160.053015 
L 60.181549 163.576677 
L 59.139627 167.153533 
L 58.267782 170.775603 
L 57.56796 174.434804 
L 57.041723 178.122972 
L 56.690244 181.831876 
L 56.514309 185.55324 
L 56.514309 189.27876 
L 56.690244 193.000124 
L 57.041723 196.709028 
L 57.56796 200.397196 
L 58.267782 204.056397 
L 59.139627 207.678467 
L 60.181549 211.255323 
L 61.391223 214.778985 
L 62.765951 218.241589 
L 64.302665 221.635409 
L 65.997935 224.952873 
L 67.847979 228.186576 
L 69.848669 231.329305 
L 71.99554 234.374046 
L 74.283802 237.314005 
L 76.708349 240.142623 
L 79.263771 242.853586 
L 81.944365 245.440847 
L 84.744151 247.898632 
L 87.65688 250.221456 
L 90.676054 252.404136 
L 93.794935 254.441803 
L 97.006564 256.329909 
L 100.303774 258.064241 
L 103.679209 259.640929 
L 107.125336 261.056455 
L 110.634465 262.30766 
L 114.198767 263.391753 
L 117.810287 264.306315 
L 121.460968 265.049303 
L 125.142664 265.619062 
L 128.847158 266.014319 
L 132.566184 266.234193 
L 136.291445 266.278192 
L 140.014628 266.146219 
L 143.727424 265.838568 
L 147.421549 265.355925 
L 151.08876 264.699368 
L 154.720874 263.870362 
L 158.309786 262.870756 
L 161.847489 261.702781 
L 165.326087 260.369043 
L 168.73782 258.872519 
L 172.075073 257.216547 
L 175.330401 255.404822 
L 178.496539 253.441388 
L 181.566423 251.330626 
L 184.533202 249.077245 
L 187.390256 246.686273 
L 190.131211 244.163047 
L 192.74995 241.513196 
L 195.240629 238.742632 
L 197.597691 235.857539 
L 199.815876 232.864354 
L 201.890236 229.769756 
L 203.81614 226.58065 
L 205.589292 223.304152 
L 207.205735 219.947574 
L 208.661861 216.518405 
L 209.954423 213.024298 
L 211.080536 209.473048 
L 212.037686 205.87258 
L 212.823738 202.230929 
L 213.436939 198.55622 
L 213.875919 194.856652 
L 214.1397 191.140481 
L 214.227692 187.416 
L 214.227692 187.416 
" clip-path="url(#p9eaf2b377a)" style="fill: none; stroke: #1f6feb; stroke-width: 2.6; stroke-linecap: square"/>
   </g>
   <g id="patch_2">
    <path d="M 135.36 190.866462 
C 136.275073 190.866462 137.15279 190.502899 137.799845 189.855845 
C 138.446899 189.20879 138.810462 188.331073 138.810462 187.416 
C 138.810462 186.500927 138.446899 185.62321 137.799845 184.976155 
C 137.15279 184.329101 136.275073 183.965538 135.36 183.965538 
C 134.444927 183.965538 133.56721 184.329101 132.920155 184.976155 
C 132.273101 185.62321 131.909538 186.500927 131.909538 187.416 
C 131.909538 188.331073 132.273101 189.20879 132.920155 189.855845 
C 133.56721 190.502899 134.444927 190.866462 135.36 190.866462 
z
" clip-path="url(#p9eaf2b377a)" style="fill: #222831; stroke: #222831; stroke-linejoin: miter"/>
   </g>
   <g id="text_2">
    <!-- $(h,\,k)$ -->
    <g style="fill: #222831" transform="translate(143.246769 204.876923) scale(0.12 -0.12)">
     <defs>
      <path id="Cmr10-77" d="M 1984 -1588 
Q 1628 -1306 1370 -942 
Q 1113 -578 948 -165 
Q 784 247 703 697 
Q 622 1147 622 1600 
Q 622 2059 703 2509 
Q 784 2959 951 3375 
Q 1119 3791 1378 4153 
Q 1638 4516 1984 4788 
Q 1984 4800 2016 4800 
L 2075 4800 
Q 2094 4800 2109 4783 
Q 2125 4766 2125 4744 
Q 2125 4716 2113 4703 
Q 1800 4397 1592 4047 
Q 1384 3697 1257 3301 
Q 1131 2906 1075 2482 
Q 1019 2059 1019 1600 
Q 1019 -434 2106 -1491 
Q 2125 -1509 2125 -1544 
Q 2125 -1559 2108 -1579 
Q 2091 -1600 2075 -1600 
L 2016 -1600 
Q 1984 -1600 1984 -1588 
z
" transform="scale(0.015625)"/>
      <path id="Cmmi10-5f" d="M 341 116 
Q 341 153 347 172 
L 1275 3872 
Q 1300 3981 1306 4044 
Q 1306 4147 891 4147 
Q 825 4147 825 4231 
Q 828 4247 839 4287 
Q 850 4328 867 4350 
Q 884 4372 916 4372 
L 1778 4441 
L 1797 4441 
Q 1797 4434 1819 4423 
Q 1841 4413 1844 4409 
Q 1856 4378 1856 4359 
L 1356 2363 
Q 1750 2828 2291 2828 
Q 2516 2828 2680 2750 
Q 2844 2672 2936 2514 
Q 3028 2356 3028 2138 
Q 3028 1875 2911 1503 
Q 2794 1131 2619 672 
Q 2528 463 2528 288 
Q 2528 97 2675 97 
Q 2925 97 3092 364 
Q 3259 631 3328 941 
Q 3341 978 3378 978 
L 3456 978 
Q 3481 978 3497 961 
Q 3513 944 3513 922 
Q 3513 916 3506 903 
Q 3450 672 3339 448 
Q 3228 225 3059 76 
Q 2891 -72 2663 -72 
Q 2438 -72 2278 83 
Q 2119 238 2119 459 
Q 2119 578 2169 709 
Q 2350 1191 2470 1569 
Q 2591 1947 2591 2234 
Q 2591 2419 2519 2541 
Q 2447 2663 2278 2663 
Q 1934 2663 1678 2452 
Q 1422 2241 1234 1894 
L 800 147 
Q 775 50 703 -11 
Q 631 -72 538 -72 
Q 456 -72 398 -17 
Q 341 38 341 116 
z
" transform="scale(0.015625)"/>
      <path id="Cmmi10-2c" d="M 634 -1153 
Q 634 -1125 659 -1100 
Q 891 -878 1019 -587 
Q 1147 -297 1147 25 
L 1147 103 
Q 1044 0 891 0 
Q 744 0 641 103 
Q 538 206 538 353 
Q 538 503 641 603 
Q 744 703 891 703 
Q 1119 703 1216 492 
Q 1313 281 1313 25 
Q 1313 -331 1170 -651 
Q 1028 -972 769 -1228 
Q 744 -1241 728 -1241 
Q 697 -1241 665 -1212 
Q 634 -1184 634 -1153 
z
" transform="scale(0.015625)"/>
      <path id="Cmmi10-3e" d="M 341 116 
Q 341 153 347 172 
L 1275 3872 
Q 1300 3981 1306 4044 
Q 1306 4147 891 4147 
Q 825 4147 825 4231 
Q 828 4247 839 4287 
Q 850 4328 867 4350 
Q 884 4372 916 4372 
L 1778 4441 
L 1797 4441 
Q 1797 4434 1819 4423 
Q 1841 4413 1844 4409 
Q 1856 4378 1856 4359 
L 1184 1684 
Q 1416 1781 1767 2145 
Q 2119 2509 2317 2668 
Q 2516 2828 2816 2828 
Q 2994 2828 3119 2706 
Q 3244 2584 3244 2406 
Q 3244 2294 3197 2198 
Q 3150 2103 3065 2043 
Q 2981 1984 2869 1984 
Q 2766 1984 2695 2048 
Q 2625 2113 2625 2216 
Q 2625 2369 2733 2473 
Q 2841 2578 2994 2578 
Q 2931 2663 2803 2663 
Q 2613 2663 2436 2553 
Q 2259 2444 2054 2239 
Q 1850 2034 1681 1864 
Q 1513 1694 1369 1606 
Q 1747 1563 2025 1408 
Q 2303 1253 2303 934 
Q 2303 869 2278 769 
Q 2222 528 2222 384 
Q 2222 97 2419 97 
Q 2650 97 2770 350 
Q 2891 603 2969 941 
Q 2981 978 3022 978 
L 3097 978 
Q 3122 978 3139 962 
Q 3156 947 3156 922 
Q 3156 916 3150 903 
Q 2909 -72 2406 -72 
Q 2225 -72 2086 12 
Q 1947 97 1872 242 
Q 1797 388 1797 569 
Q 1797 672 1825 781 
Q 1844 856 1844 922 
Q 1844 1169 1625 1297 
Q 1406 1425 1125 1453 
L 800 147 
Q 775 50 703 -11 
Q 631 -72 538 -72 
Q 456 -72 398 -17 
Q 341 38 341 116 
z
" transform="scale(0.015625)"/>
      <path id="Cmr10-44" d="M 416 -1600 
Q 359 -1600 359 -1544 
Q 359 -1516 372 -1503 
Q 1466 -434 1466 1600 
Q 1466 3634 384 4691 
Q 359 4706 359 4744 
Q 359 4766 376 4783 
Q 394 4800 416 4800 
L 475 4800 
Q 494 4800 506 4788 
Q 966 4425 1272 3906 
Q 1578 3388 1720 2800 
Q 1863 2213 1863 1600 
Q 1863 1147 1786 708 
Q 1709 269 1542 -157 
Q 1375 -584 1119 -945 
Q 863 -1306 506 -1588 
Q 494 -1600 475 -1600 
L 416 -1600 
z
" transform="scale(0.015625)"/>
     </defs>
     <use xlink:href="#Cmr10-77"/>
     <use xlink:href="#Cmmi10-5f" transform="translate(38.818359 0)"/>
     <use xlink:href="#Cmmi10-2c" transform="translate(96.435547 0)"/>
     <use xlink:href="#Cmmi10-3e" transform="translate(160.788199 0)"/>
     <use xlink:href="#Cmr10-44" transform="translate(212.790152 0)"/>
    </g>
   </g>
   <g id="text_3">
    <!-- $r=\sqrt{k_0}$ -->
    <g style="fill: #1f6feb" transform="translate(152.053846 177.557538) scale(0.12 -0.12)">
     <defs>
      <path id="Cmmi10-84" d="M 494 109 
Q 494 147 500 166 
L 978 2075 
Q 1025 2253 1025 2388 
Q 1025 2663 838 2663 
Q 638 2663 541 2423 
Q 444 2184 353 1819 
Q 353 1800 334 1789 
Q 316 1778 300 1778 
L 225 1778 
Q 203 1778 187 1801 
Q 172 1825 172 1844 
Q 241 2122 305 2315 
Q 369 2509 505 2668 
Q 641 2828 844 2828 
Q 1066 2828 1233 2700 
Q 1400 2572 1441 2363 
Q 1603 2575 1811 2701 
Q 2019 2828 2266 2828 
Q 2469 2828 2623 2709 
Q 2778 2591 2778 2388 
Q 2778 2225 2676 2104 
Q 2575 1984 2406 1984 
Q 2303 1984 2233 2048 
Q 2163 2113 2163 2216 
Q 2163 2356 2266 2467 
Q 2369 2578 2503 2578 
Q 2400 2663 2253 2663 
Q 1978 2663 1775 2467 
Q 1572 2272 1409 1972 
L 953 141 
Q 931 53 854 -9 
Q 778 -72 684 -72 
Q 606 -72 550 -22 
Q 494 28 494 109 
z
" transform="scale(0.015625)"/>
      <path id="Cmr10-29" d="M 481 850 
Q 428 850 393 890 
Q 359 931 359 978 
Q 359 1031 393 1068 
Q 428 1106 481 1106 
L 4500 1106 
Q 4547 1106 4581 1068 
Q 4616 1031 4616 978 
Q 4616 931 4581 890 
Q 4547 850 4500 850 
L 481 850 
z
M 481 2094 
Q 428 2094 393 2131 
Q 359 2169 359 2222 
Q 359 2269 393 2309 
Q 428 2350 481 2350 
L 4500 2350 
Q 4547 2350 4581 2309 
Q 4616 2269 4616 2222 
Q 4616 2169 4581 2131 
Q 4547 2094 4500 2094 
L 481 2094 
z
" transform="scale(0.015625)"/>
      <path id="Cmex10-30" d="M 2713 -7425 
L 1269 -4063 
L 819 -4409 
L 703 -4294 
L 1619 -3584 
L 2969 -6725 
L 6291 197 
Q 6322 256 6400 256 
Q 6453 256 6490 218 
Q 6528 181 6528 128 
Q 6528 97 6522 84 
L 2950 -7366 
Q 2925 -7425 2853 -7425 
L 2713 -7425 
z
" transform="scale(0.015625)"/>
     </defs>
     <use xlink:href="#Cmmi10-84" transform="translate(0 0.370274)"/>
     <use xlink:href="#Cmr10-29" transform="translate(65.117245 0.370274)"/>
     <use xlink:href="#Cmex10-30" transform="translate(162.802849 97.09375) scale(0.976396)"/>
     <use xlink:href="#Cmmi10-3e" transform="translate(272.927849 0.359375)"/>
     <use xlink:href="#Cmr10-28" transform="translate(324.929802 -14.640587) scale(0.7)"/>
     <path d="M 260.427849 100.75 
L 260.427849 107 
L 378.150217 107 
L 378.150217 100.75 
L 260.427849 100.75 
z
"/>
    </g>
   </g>
   <g id="text_4">
    <!-- $(x-h)^2+(y-k)^2=k_0&gt;0$ -->
    <g style="fill: #1f6feb" transform="translate(60.86 79.128615) scale(0.125 -0.125)">
     <defs>
      <path id="Cmmi10-3f" d="M 500 184 
Q 613 97 819 97 
Q 1019 97 1172 289 
Q 1325 481 1381 709 
L 1672 1844 
Q 1741 2153 1741 2266 
Q 1741 2425 1652 2544 
Q 1563 2663 1403 2663 
Q 1200 2663 1022 2536 
Q 844 2409 722 2214 
Q 600 2019 550 1819 
Q 538 1778 500 1778 
L 422 1778 
Q 372 1778 372 1838 
L 372 1856 
Q 434 2094 584 2320 
Q 734 2547 951 2687 
Q 1169 2828 1416 2828 
Q 1650 2828 1839 2703 
Q 2028 2578 2106 2363 
Q 2216 2559 2386 2693 
Q 2556 2828 2759 2828 
Q 2897 2828 3040 2779 
Q 3184 2731 3275 2631 
Q 3366 2531 3366 2381 
Q 3366 2219 3261 2101 
Q 3156 1984 2994 1984 
Q 2891 1984 2822 2050 
Q 2753 2116 2753 2216 
Q 2753 2350 2845 2451 
Q 2938 2553 3066 2572 
Q 2950 2663 2747 2663 
Q 2541 2663 2389 2472 
Q 2238 2281 2175 2047 
L 1894 916 
Q 1825 659 1825 494 
Q 1825 331 1917 214 
Q 2009 97 2163 97 
Q 2463 97 2698 361 
Q 2934 625 3009 941 
Q 3022 978 3059 978 
L 3138 978 
Q 3163 978 3178 961 
Q 3194 944 3194 922 
Q 3194 916 3188 903 
Q 3097 522 2806 225 
Q 2516 -72 2150 -72 
Q 1916 -72 1727 54 
Q 1538 181 1459 397 
Q 1359 209 1182 68 
Q 1006 -72 806 -72 
Q 669 -72 523 -23 
Q 378 25 287 125 
Q 197 225 197 378 
Q 197 528 301 651 
Q 406 775 563 775 
Q 669 775 741 711 
Q 813 647 813 544 
Q 813 409 723 309 
Q 634 209 500 184 
z
" transform="scale(0.015625)"/>
      <path id="Cmsy10-11" d="M 653 1472 
Q 600 1472 565 1512 
Q 531 1553 531 1600 
Q 531 1647 565 1687 
Q 600 1728 653 1728 
L 4325 1728 
Q 4375 1728 4408 1687 
Q 4441 1647 4441 1600 
Q 4441 1553 4408 1512 
Q 4375 1472 4325 1472 
L 653 1472 
z
" transform="scale(0.015625)"/>
      <path id="Cmr10-31" d="M 319 0 
L 319 172 
Q 319 188 331 206 
L 1325 1306 
Q 1550 1550 1690 1715 
Q 1831 1881 1968 2097 
Q 2106 2313 2186 2536 
Q 2266 2759 2266 3009 
Q 2266 3272 2169 3511 
Q 2072 3750 1880 3894 
Q 1688 4038 1416 4038 
Q 1138 4038 916 3870 
Q 694 3703 603 3438 
Q 628 3444 672 3444 
Q 816 3444 917 3347 
Q 1019 3250 1019 3097 
Q 1019 2950 917 2848 
Q 816 2747 672 2747 
Q 522 2747 420 2851 
Q 319 2956 319 3097 
Q 319 3338 409 3548 
Q 500 3759 670 3923 
Q 841 4088 1055 4175 
Q 1269 4263 1509 4263 
Q 1875 4263 2190 4108 
Q 2506 3953 2690 3670 
Q 2875 3388 2875 3009 
Q 2875 2731 2753 2481 
Q 2631 2231 2440 2026 
Q 2250 1822 1953 1562 
Q 1656 1303 1563 1216 
L 838 519 
L 1453 519 
Q 1906 519 2211 526 
Q 2516 534 2534 550 
Q 2609 631 2688 1141 
L 2875 1141 
L 2694 0 
L 319 0 
z
" transform="scale(0.015625)"/>
      <path id="Cmr10-4c" d="M 481 1472 
Q 428 1472 393 1512 
Q 359 1553 359 1600 
Q 359 1647 393 1687 
Q 428 1728 481 1728 
L 2363 1728 
L 2363 3616 
Q 2363 3666 2400 3698 
Q 2438 3731 2491 3731 
Q 2538 3731 2578 3698 
Q 2619 3666 2619 3616 
L 2619 1728 
L 4500 1728 
Q 4547 1728 4581 1687 
Q 4616 1647 4616 1600 
Q 4616 1553 4581 1512 
Q 4547 1472 4500 1472 
L 2619 1472 
L 2619 -416 
Q 2619 -466 2578 -498 
Q 2538 -531 2491 -531 
Q 2438 -531 2400 -498 
Q 2363 -466 2363 -416 
L 2363 1472 
L 481 1472 
z
" transform="scale(0.015625)"/>
      <path id="Cmmi10-72" d="M 538 -916 
Q 672 -1147 1006 -1147 
Q 1309 -1147 1531 -934 
Q 1753 -722 1889 -420 
Q 2025 -119 2100 197 
Q 1816 -72 1484 -72 
Q 1231 -72 1053 15 
Q 875 103 776 276 
Q 678 450 678 697 
Q 678 906 734 1126 
Q 791 1347 892 1617 
Q 994 1888 1069 2088 
Q 1153 2322 1153 2472 
Q 1153 2663 1013 2663 
Q 759 2663 595 2402 
Q 431 2141 353 1819 
Q 341 1778 300 1778 
L 225 1778 
Q 172 1778 172 1838 
L 172 1856 
Q 275 2238 487 2533 
Q 700 2828 1025 2828 
Q 1253 2828 1411 2678 
Q 1569 2528 1569 2297 
Q 1569 2178 1516 2047 
Q 1488 1969 1388 1706 
Q 1288 1444 1234 1272 
Q 1181 1100 1147 934 
Q 1113 769 1113 603 
Q 1113 391 1203 244 
Q 1294 97 1491 97 
Q 1888 97 2203 581 
L 2688 2553 
Q 2709 2638 2787 2698 
Q 2866 2759 2956 2759 
Q 3034 2759 3092 2709 
Q 3150 2659 3150 2578 
Q 3150 2541 3144 2528 
L 2509 -19 
Q 2425 -347 2200 -647 
Q 1975 -947 1658 -1130 
Q 1341 -1313 997 -1313 
Q 831 -1313 668 -1248 
Q 506 -1184 406 -1056 
Q 306 -928 306 -756 
Q 306 -581 409 -453 
Q 513 -325 684 -325 
Q 788 -325 858 -389 
Q 928 -453 928 -556 
Q 928 -703 818 -812 
Q 709 -922 563 -922 
Q 556 -919 550 -917 
Q 544 -916 538 -916 
z
" transform="scale(0.015625)"/>
     </defs>
     <use xlink:href="#Cmr10-77" transform="translate(0 0.084203)"/>
     <use xlink:href="#Cmmi10-3f" transform="translate(38.818359 0.084203)"/>
     <use xlink:href="#Cmsy10-11" transform="translate(115.898495 0.084203)"/>
     <use xlink:href="#Cmmi10-5f" transform="translate(213.584099 0.084203)"/>
     <use xlink:href="#Cmr10-44" transform="translate(271.201286 0.084203)"/>
     <use xlink:href="#Cmr10-31" transform="translate(314.023937 41.373437) scale(0.7)"/>
     <use xlink:href="#Cmr10-4c" transform="translate(374.744409 0.084203)"/>
     <use xlink:href="#Cmr10-77" transform="translate(472.430013 0.084203)"/>
     <use xlink:href="#Cmmi10-72" transform="translate(511.248373 0.084203)"/>
     <use xlink:href="#Cmsy10-11" transform="translate(580.271867 0.084203)"/>
     <use xlink:href="#Cmmi10-3e" transform="translate(677.957472 0.084203)"/>
     <use xlink:href="#Cmr10-44" transform="translate(729.959425 0.084203)"/>
     <use xlink:href="#Cmr10-31" transform="translate(772.782075 41.373437) scale(0.7)"/>
     <use xlink:href="#Cmr10-29" transform="translate(833.502548 0.084203)"/>
     <use xlink:href="#Cmmi10-3e" transform="translate(931.188152 0.084203)"/>
     <use xlink:href="#Cmr10-28" transform="translate(983.190105 -14.915759) scale(0.7)"/>
     <use xlink:href="#Cmmi10-6b" transform="translate(1043.910577 0.084203)"/>
     <use xlink:href="#Cmr10-28" transform="translate(1141.596182 0.084203)"/>
    </g>
   </g>
   <g id="text_5">
    <!-- 整圈的點：到圓心距離平方等於正數 -->
    <g style="fill: #4b5563" transform="translate(51.36 306.429231) scale(0.105 -0.105)">
     <defs>
      <path id="NotoSansCJKjp-Regular-4e1d" d="M 1357 1139 
L 1357 32 
L 301 32 
L 301 -371 
L 6118 -371 
L 6118 32 
L 3430 32 
L 3430 563 
L 5274 563 
L 5274 934 
L 3430 934 
L 3430 1427 
L 5696 1427 
L 5696 1824 
L 730 1824 
L 730 1427 
L 2957 1427 
L 2957 32 
L 1818 32 
L 1818 1139 
L 1357 1139 
z
M 4109 5376 
C 3930 4742 3597 4154 3162 3770 
L 3162 4282 
L 2054 4282 
L 2054 4608 
L 3315 4608 
L 3315 4960 
L 2054 4960 
L 2054 5376 
L 1626 5376 
L 1626 4960 
L 365 4960 
L 365 4608 
L 1626 4608 
L 1626 4282 
L 550 4282 
L 550 3110 
L 1440 3110 
C 1126 2790 646 2470 256 2304 
C 346 2234 474 2093 538 1997 
C 883 2176 1306 2496 1626 2822 
L 1626 1997 
L 2054 1997 
L 2054 2784 
C 2368 2611 2790 2362 2970 2227 
L 3206 2547 
C 3027 2650 2349 2989 2086 3110 
L 3162 3110 
L 3162 3725 
C 3264 3642 3411 3494 3462 3411 
C 3603 3546 3744 3699 3866 3878 
C 4000 3590 4186 3296 4416 3021 
C 4064 2714 3629 2490 3104 2330 
C 3200 2253 3341 2074 3392 1978 
C 3904 2163 4339 2400 4704 2714 
C 5030 2406 5434 2138 5926 1958 
C 5990 2067 6112 2246 6202 2336 
C 5715 2483 5318 2720 4998 3002 
C 5299 3347 5530 3757 5677 4269 
L 6093 4269 
L 6093 4659 
L 4314 4659 
C 4403 4858 4480 5069 4544 5280 
L 4109 5376 
z
M 947 3962 
L 1626 3962 
L 1626 3430 
L 947 3430 
L 947 3962 
z
M 2054 3962 
L 2752 3962 
L 2752 3430 
L 2054 3430 
L 2054 3962 
z
M 4122 4269 
L 5216 4269 
C 5101 3891 4928 3571 4698 3302 
C 4435 3603 4243 3930 4109 4250 
L 4122 4269 
z
" transform="scale(0.015625)"/>
      <path id="NotoSansCJKjp-Regular-3394" d="M 3942 4211 
C 4109 4058 4288 3872 4435 3693 
L 3136 3693 
C 3206 3917 3264 4154 3309 4403 
L 2918 4448 
C 2874 4179 2816 3930 2739 3693 
L 2022 3693 
C 2176 3885 2317 4096 2419 4307 
L 2067 4397 
C 1901 4058 1626 3725 1318 3488 
C 1408 3437 1555 3328 1613 3270 
C 1728 3373 1850 3494 1965 3629 
L 1965 3379 
L 2624 3379 
C 2560 3213 2483 3053 2400 2906 
L 1312 2906 
L 1312 2586 
L 2189 2586 
C 1926 2240 1600 1958 1203 1741 
C 1280 1670 1408 1517 1453 1440 
C 1702 1587 1926 1760 2125 1952 
L 2125 960 
C 2125 544 2291 448 2867 448 
C 2989 448 3930 448 4064 448 
C 4499 448 4621 589 4659 1152 
C 4557 1171 4410 1222 4320 1280 
C 4294 838 4250 768 4019 768 
C 3821 768 3040 768 2893 768 
C 2579 768 2522 800 2522 966 
L 2522 1882 
L 3693 1882 
C 3680 1626 3661 1517 3629 1478 
C 3597 1440 3552 1434 3488 1440 
C 3424 1440 3238 1440 3027 1459 
C 3078 1382 3110 1254 3117 1171 
C 3315 1158 3533 1158 3629 1165 
C 3770 1171 3859 1197 3923 1274 
C 4000 1363 4026 1568 4051 2042 
C 4051 2093 4051 2182 4051 2182 
L 2342 2182 
C 2451 2310 2554 2445 2643 2586 
L 3808 2586 
C 4096 2125 4474 1754 4922 1530 
C 4979 1632 5094 1773 5178 1843 
C 4813 1997 4493 2259 4237 2586 
L 5094 2586 
L 5094 2906 
L 4019 2906 
C 3923 3053 3846 3213 3782 3379 
L 4454 3379 
L 4454 3674 
C 4589 3514 4698 3366 4768 3238 
L 5088 3430 
C 4915 3706 4550 4109 4237 4384 
L 3942 4211 
z
M 3629 2906 
L 2822 2906 
C 2899 3053 2970 3213 3034 3379 
L 3430 3379 
C 3488 3219 3552 3059 3629 2906 
z
M 525 5094 
L 525 -512 
L 979 -512 
L 979 -243 
L 5402 -243 
L 5402 -512 
L 5875 -512 
L 5875 5094 
L 525 5094 
z
M 979 192 
L 979 4659 
L 5402 4659 
L 5402 192 
L 979 192 
z
" transform="scale(0.015625)"/>
      <path id="NotoSansCJKjp-Regular-6c33" d="M 3533 2707 
C 3885 2240 4320 1600 4512 1210 
L 4922 1466 
C 4710 1843 4269 2464 3904 2918 
L 3533 2707 
z
M 1536 5389 
C 1485 5082 1376 4659 1274 4346 
L 557 4346 
L 557 -346 
L 998 -346 
L 998 160 
L 2784 160 
L 2784 4346 
L 1715 4346 
C 1824 4621 1946 4979 2054 5299 
L 1536 5389 
z
M 998 3917 
L 2342 3917 
L 2342 2566 
L 998 2566 
L 998 3917 
z
M 998 595 
L 998 2144 
L 2342 2144 
L 2342 595 
L 998 595 
z
M 3827 5402 
C 3622 4518 3277 3635 2835 3066 
C 2950 3002 3149 2867 3238 2790 
C 3456 3098 3661 3488 3840 3923 
L 5478 3923 
C 5402 1357 5299 371 5094 154 
C 5018 64 4947 45 4819 45 
C 4672 45 4288 51 3866 83 
C 3955 -38 4013 -243 4026 -378 
C 4384 -397 4762 -410 4979 -390 
C 5210 -365 5350 -314 5498 -122 
C 5754 192 5843 1184 5939 4122 
C 5946 4186 5946 4365 5946 4365 
L 4013 4365 
C 4115 4666 4211 4986 4288 5299 
L 3827 5402 
z
" transform="scale(0.015625)"/>
      <path id="NotoSansCJKjp-Regular-b7c4" d="M 966 4474 
C 1069 4166 1152 3757 1165 3494 
L 1421 3565 
C 1402 3821 1312 4230 1203 4538 
L 966 4474 
z
M 1178 813 
C 1267 454 1338 0 1331 -307 
L 1664 -262 
C 1664 38 1594 499 1498 851 
L 1178 813 
z
M 1792 851 
C 1939 518 2067 90 2106 -192 
L 2432 -115 
C 2387 166 2246 589 2099 915 
L 1792 851 
z
M 2406 934 
C 2618 634 2848 224 2938 -45 
L 3258 96 
C 3162 365 2931 762 2701 1056 
L 2406 934 
z
M 634 838 
C 582 390 454 -70 205 -333 
L 538 -512 
C 806 -224 915 269 973 742 
L 634 838 
z
M 2272 4557 
C 2214 4262 2086 3808 1997 3533 
L 2202 3456 
C 2317 3706 2445 4122 2554 4454 
L 2272 4557 
z
M 4314 5363 
L 4314 2330 
L 3379 2330 
L 3379 -506 
L 3827 -506 
L 3827 -211 
L 5440 -211 
L 5440 -480 
L 5901 -480 
L 5901 2330 
L 4781 2330 
L 4781 3526 
L 6150 3526 
L 6150 3974 
L 4781 3974 
L 4781 5363 
L 4314 5363 
z
M 3827 237 
L 3827 1894 
L 5440 1894 
L 5440 237 
L 3827 237 
z
M 877 4794 
L 1568 4794 
L 1568 3245 
L 877 3245 
L 877 4794 
z
M 1894 4794 
L 2637 4794 
L 2637 3245 
L 1894 3245 
L 1894 4794 
z
M 448 2451 
L 448 2067 
L 1517 2067 
L 1517 1568 
L 314 1510 
L 333 1088 
C 1075 1133 2138 1203 3155 1274 
L 3168 1658 
L 1946 1594 
L 1946 2067 
L 3072 2067 
L 3072 2451 
L 1946 2451 
L 1946 2893 
L 3027 2893 
L 3027 5146 
L 493 5146 
L 493 2893 
L 1517 2893 
L 1517 2451 
L 448 2451 
z
" transform="scale(0.015625)"/>
      <path id="NotoSansCJKjp-Regular-2bbc" d="M 3885 4608 
L 3885 1056 
L 4352 1056 
L 4352 4608 
L 3885 4608 
z
M 5402 5197 
L 5402 134 
C 5402 19 5370 -13 5254 -19 
C 5126 -19 4723 -26 4294 -13 
C 4371 -154 4442 -378 4467 -512 
C 4986 -512 5370 -499 5587 -422 
C 5792 -346 5869 -198 5869 134 
L 5869 5197 
L 5402 5197 
z
M 2349 3994 
C 2522 3795 2701 3565 2861 3334 
L 1382 3264 
C 1562 3648 1747 4115 1914 4518 
L 3610 4518 
L 3610 4960 
L 326 4960 
L 326 4518 
L 1370 4518 
C 1248 4115 1069 3622 896 3245 
L 307 3219 
L 346 2765 
L 3136 2925 
C 3226 2778 3296 2643 3354 2528 
L 3731 2758 
C 3546 3149 3098 3750 2714 4192 
L 2349 3994 
z
M 256 160 
L 326 -320 
C 1184 -205 2445 -19 3635 147 
L 3622 595 
L 2208 410 
L 2208 1472 
L 3424 1472 
L 3424 1907 
L 2208 1907 
L 2208 2675 
L 1734 2675 
L 1734 1907 
L 512 1907 
L 512 1472 
L 1734 1472 
L 1734 346 
L 256 160 
z
" transform="scale(0.015625)"/>
      <path id="NotoSansCJKjp-Regular-444f" d="M 1952 3590 
L 1952 378 
C 1952 -250 2144 -429 2829 -429 
C 2970 -429 3923 -429 4077 -429 
C 4774 -429 4928 -70 4998 1139 
C 4858 1178 4659 1267 4544 1357 
C 4493 250 4435 19 4051 19 
C 3834 19 3034 19 2867 19 
C 2515 19 2445 70 2445 371 
L 2445 3590 
L 1952 3590 
z
M 2003 4979 
C 2771 4704 3706 4224 4198 3859 
L 4512 4282 
C 4006 4621 3072 5088 2304 5350 
L 2003 4979 
z
M 883 3072 
C 787 2240 582 1306 154 742 
L 589 486 
C 1043 1101 1248 2118 1344 2976 
L 883 3072 
z
M 4614 3072 
C 5152 2349 5632 1350 5779 678 
L 6253 902 
C 6099 1581 5619 2554 5043 3283 
L 4614 3072 
z
" transform="scale(0.015625)"/>
      <path id="NotoSansCJKjp-Regular-9943" d="M 998 4685 
L 2246 4685 
L 2246 3558 
L 998 3558 
L 998 4685 
z
M 3155 5120 
L 3155 -506 
L 3629 -506 
L 3629 -205 
L 6157 -205 
L 6157 250 
L 3629 250 
L 3629 1331 
L 5798 1331 
L 5798 3603 
L 3629 3603 
L 3629 4672 
L 6074 4672 
L 6074 5120 
L 3155 5120 
z
M 3629 3155 
L 5331 3155 
L 5331 1779 
L 3629 1779 
L 3629 3155 
z
M 218 269 
L 307 -198 
C 1018 -26 2003 211 2931 442 
L 2886 870 
L 1888 634 
L 1888 1786 
L 2829 1786 
L 2829 2214 
L 1888 2214 
L 1888 3136 
L 2694 3136 
L 2694 5107 
L 570 5107 
L 570 3136 
L 1453 3136 
L 1453 538 
L 979 429 
L 979 2534 
L 570 2534 
L 570 339 
L 218 269 
z
" transform="scale(0.015625)"/>
      <path id="NotoSansCJKjp-Regular-a995" d="M 1587 5376 
L 1587 4826 
L 275 4826 
L 275 4429 
L 3373 4429 
L 3373 4826 
L 2054 4826 
L 2054 5376 
L 1587 5376 
z
M 5203 5312 
C 5126 4973 4979 4499 4838 4154 
L 4147 4154 
C 4288 4512 4416 4896 4518 5274 
L 4083 5376 
C 3859 4493 3501 3603 3066 3002 
L 3066 4166 
L 2688 4166 
L 2688 2739 
L 934 2739 
L 934 4166 
L 582 4166 
L 582 2387 
L 1587 2387 
L 1530 1958 
L 403 1958 
L 403 -518 
L 806 -518 
L 806 1587 
L 1466 1587 
C 1414 1286 1350 986 1293 742 
L 960 730 
L 998 378 
L 2342 480 
C 2381 371 2406 269 2426 179 
L 2720 282 
C 2675 557 2496 998 2310 1331 
L 2029 1248 
C 2099 1107 2170 954 2234 800 
L 1645 762 
C 1715 1005 1779 1293 1843 1587 
L 2822 1587 
L 2822 -45 
C 2822 -115 2803 -128 2726 -134 
C 2650 -141 2400 -141 2118 -134 
C 2170 -237 2234 -397 2253 -506 
C 2637 -506 2880 -506 3040 -442 
C 3194 -371 3238 -256 3238 -51 
L 3238 1958 
L 1920 1958 
L 2003 2387 
L 3066 2387 
L 3066 2912 
C 3168 2835 3315 2714 3379 2650 
C 3475 2784 3571 2938 3661 3098 
L 3661 -518 
L 4102 -518 
L 4102 -179 
L 6157 -179 
L 6157 262 
L 5261 262 
L 5261 1152 
L 6035 1152 
L 6035 1568 
L 5261 1568 
L 5261 2445 
L 6035 2445 
L 6035 2854 
L 5261 2854 
L 5261 3718 
L 6093 3718 
L 6093 4154 
L 5267 4154 
C 5402 4467 5542 4858 5664 5203 
L 5203 5312 
z
M 2099 4262 
C 2022 4090 1926 3917 1818 3763 
C 1645 3872 1472 3974 1306 4058 
L 1107 3834 
C 1274 3744 1453 3635 1619 3520 
C 1446 3315 1248 3142 1037 2995 
C 1120 2944 1254 2835 1306 2771 
C 1510 2925 1709 3110 1888 3328 
C 2080 3187 2246 3046 2362 2925 
L 2573 3181 
C 2458 3302 2285 3437 2086 3578 
C 2221 3770 2342 3968 2438 4179 
L 2099 4262 
z
M 4102 2445 
L 4845 2445 
L 4845 1568 
L 4102 1568 
L 4102 2445 
z
M 4102 2854 
L 4102 3718 
L 4845 3718 
L 4845 2854 
L 4102 2854 
z
M 4102 1152 
L 4845 1152 
L 4845 262 
L 4102 262 
L 4102 1152 
z
" transform="scale(0.015625)"/>
      <path id="NotoSansCJKjp-Regular-41d6" d="M 1114 4032 
C 1363 3558 1613 2938 1702 2554 
L 2157 2714 
C 2067 3085 1805 3699 1549 4160 
L 1114 4032 
z
M 4832 4192 
C 4672 3725 4378 3072 4134 2669 
L 4550 2534 
C 4800 2918 5101 3533 5338 4051 
L 4832 4192 
z
M 333 2227 
L 333 1747 
L 2938 1747 
L 2938 -506 
L 3437 -506 
L 3437 1747 
L 6074 1747 
L 6074 2227 
L 3437 2227 
L 3437 4467 
L 5715 4467 
L 5715 4947 
L 672 4947 
L 672 4467 
L 2938 4467 
L 2938 2227 
L 333 2227 
z
" transform="scale(0.015625)"/>
      <path id="NotoSansCJKjp-Regular-4ea0" d="M 2931 5395 
L 2931 4269 
L 339 4269 
L 339 3808 
L 2310 3808 
C 2240 2330 2054 666 269 -147 
C 397 -243 544 -416 621 -538 
C 1926 90 2438 1152 2669 2298 
L 4787 2298 
C 4685 819 4557 186 4371 19 
C 4294 -51 4211 -58 4064 -58 
C 3898 -58 3443 -51 2982 -13 
C 3078 -147 3142 -346 3155 -480 
C 3584 -506 4013 -512 4230 -499 
C 4480 -486 4634 -435 4781 -282 
C 5030 -26 5165 685 5293 2522 
C 5306 2598 5312 2758 5312 2758 
L 2746 2758 
C 2790 3110 2822 3462 2842 3808 
L 6067 3808 
L 6067 4269 
L 3424 4269 
L 3424 5395 
L 2931 5395 
z
" transform="scale(0.015625)"/>
      <path id="NotoSansCJKjp-Regular-74a1" d="M 3699 5408 
C 3514 4864 3168 4352 2771 4019 
L 2944 3910 
L 2944 3469 
L 941 3469 
L 941 3066 
L 2944 3066 
L 2944 2490 
L 307 2490 
L 307 2067 
L 4256 2067 
L 4256 1504 
L 512 1504 
L 512 1082 
L 4256 1082 
L 4256 64 
C 4256 -26 4224 -51 4109 -58 
C 3994 -64 3616 -64 3181 -51 
C 3251 -179 3334 -371 3360 -506 
C 3885 -506 4243 -499 4461 -435 
C 4678 -358 4742 -224 4742 58 
L 4742 1082 
L 5946 1082 
L 5946 1504 
L 4742 1504 
L 4742 2067 
L 6118 2067 
L 6118 2490 
L 3437 2490 
L 3437 3066 
L 5510 3066 
L 5510 3469 
L 3437 3469 
L 3437 3910 
L 3334 3910 
C 3475 4064 3610 4237 3731 4429 
L 4166 4429 
C 4358 4179 4544 3878 4621 3667 
L 5037 3846 
C 4966 4013 4832 4224 4685 4429 
L 6048 4429 
L 6048 4838 
L 3962 4838 
C 4038 4986 4102 5139 4160 5299 
L 3699 5408 
z
M 1427 806 
C 1843 531 2304 122 2515 -179 
L 2886 122 
C 2669 422 2195 819 1779 1082 
L 1427 806 
z
M 1190 5408 
C 973 4838 614 4282 211 3904 
C 326 3846 525 3712 614 3635 
C 826 3846 1030 4122 1222 4429 
L 1478 4429 
C 1600 4179 1715 3891 1754 3699 
L 2182 3859 
C 2144 4006 2054 4224 1958 4429 
L 3123 4429 
L 3123 4838 
L 1446 4838 
C 1517 4986 1587 5133 1645 5286 
L 1190 5408 
z
" transform="scale(0.015625)"/>
      <path id="NotoSansCJKjp-Regular-4ea4" d="M 4454 4826 
C 4749 4013 5318 3130 5958 2605 
C 6029 2752 6125 2944 6214 3066 
C 5606 3507 5011 4435 4678 5370 
L 4186 5370 
C 3942 4506 3379 3533 2739 3027 
C 2822 2918 2938 2726 2982 2592 
C 3642 3130 4192 4045 4454 4826 
z
M 3757 2605 
C 4198 2323 4704 1907 4934 1606 
L 5274 1952 
C 5030 2246 4506 2643 4070 2906 
L 3757 2605 
z
M 3238 870 
C 4019 512 4960 -77 5408 -512 
L 5715 -96 
C 5261 339 4301 896 3526 1242 
L 3238 870 
z
M 1414 5363 
L 1414 4333 
L 282 4333 
L 282 3878 
L 986 3878 
C 960 2234 890 672 186 -198 
C 307 -275 474 -429 550 -538 
C 1126 186 1331 1299 1408 2554 
L 2234 2554 
C 2195 774 2144 147 2035 6 
C 1990 -70 1933 -83 1843 -83 
C 1741 -83 1504 -83 1235 -58 
C 1306 -179 1357 -371 1363 -499 
C 1632 -512 1901 -512 2061 -499 
C 2227 -480 2342 -435 2445 -288 
C 2611 -70 2650 653 2694 2778 
C 2701 2842 2701 3002 2701 3002 
L 1427 3002 
L 1453 3878 
L 3008 3878 
L 3008 4333 
L 1894 4333 
L 1894 5363 
L 1414 5363 
z
" transform="scale(0.015625)"/>
      <path id="NotoSansCJKjp-Regular-585c" d="M 1203 3264 
L 1203 243 
L 333 243 
L 333 -224 
L 6080 -224 
L 6080 243 
L 3616 243 
L 3616 2259 
L 5619 2259 
L 5619 2726 
L 3616 2726 
L 3616 4435 
L 5869 4435 
L 5869 4909 
L 576 4909 
L 576 4435 
L 3110 4435 
L 3110 243 
L 1696 243 
L 1696 3264 
L 1203 3264 
z
" transform="scale(0.015625)"/>
     </defs>
     <use xlink:href="#NotoSansCJKjp-Regular-4e1d"/>
     <use xlink:href="#NotoSansCJKjp-Regular-3394" transform="translate(100 0)"/>
     <use xlink:href="#NotoSansCJKjp-Regular-6c33" transform="translate(200 0)"/>
     <use xlink:href="#NotoSansCJKjp-Regular-b7c4" transform="translate(300 0)"/>
     <use xlink:href="#NotoSansCJKjp-Regular-e6c0" transform="translate(400 0)"/>
     <use xlink:href="#NotoSansCJKjp-Regular-2bbc" transform="translate(500 0)"/>
     <use xlink:href="#NotoSansCJKjp-Regular-33a8" transform="translate(600 0)"/>
     <use xlink:href="#NotoSansCJKjp-Regular-444f" transform="translate(700 0)"/>
     <use xlink:href="#NotoSansCJKjp-Regular-9943" transform="translate(800 0)"/>
     <use xlink:href="#NotoSansCJKjp-Regular-a995" transform="translate(900 0)"/>
     <use xlink:href="#NotoSansCJKjp-Regular-41d6" transform="translate(1000 0)"/>
     <use xlink:href="#NotoSansCJKjp-Regular-4ea0" transform="translate(1100 0)"/>
     <use xlink:href="#NotoSansCJKjp-Regular-74a1" transform="translate(1200 0)"/>
     <use xlink:href="#NotoSansCJKjp-Regular-4ea4" transform="translate(1300 0)"/>
     <use xlink:href="#NotoSansCJKjp-Regular-585c" transform="translate(1400 0)"/>
     <use xlink:href="#NotoSansCJKjp-Regular-4e26" transform="translate(1500 0)"/>
    </g>
   </g>
  </g>
  <g id="axes_2">
   <g id="line2d_5">
    <path d="M 276.48 187.416 
L 532.8 187.416 
" clip-path="url(#p6c477eefed)" style="fill: none; stroke: #d8dde3; stroke-linecap: square"/>
   </g>
   <g id="line2d_6">
    <path d="M 404.64 315.576 
L 404.64 59.256 
" clip-path="url(#p6c477eefed)" style="fill: none; stroke: #d8dde3; stroke-linecap: square"/>
   </g>
   <g id="line2d_7">
    <path d="M 404.64 187.416 
L 404.64 187.416 
" clip-path="url(#p6c477eefed)" style="fill: none"/>
   </g>
   <g id="text_6">
    <!-- 右邊常數 $=0$：一點 -->
    <g style="fill: #1a7f37" transform="translate(346.725 53.256) scale(0.13 -0.13)">
     <defs>
      <path id="NotoSansCJKjp-Regular-2509" d="M 282 2758 
L 282 2234 
L 6144 2234 
L 6144 2758 
L 282 2758 
z
" transform="scale(0.015625)"/>
     </defs>
     <use xlink:href="#NotoSansCJKjp-Regular-2e93" transform="translate(0 0.796875)"/>
     <use xlink:href="#NotoSansCJKjp-Regular-9e93" transform="translate(99.999908 0.796875)"/>
     <use xlink:href="#NotoSansCJKjp-Regular-417b" transform="translate(199.999817 0.796875)"/>
     <use xlink:href="#NotoSansCJKjp-Regular-4e26" transform="translate(299.999725 0.796875)"/>
     <use xlink:href="#NotoSansCJKjp-Regular-1" transform="translate(399.999634 0.796875)"/>
     <use xlink:href="#Cmr10-29" transform="translate(442.39967 0.796875)"/>
     <use xlink:href="#Cmr10-28" transform="translate(540.085274 0.796875)"/>
     <use xlink:href="#NotoSansCJKjp-Regular-e6c0" transform="translate(590.085274 0.796875)"/>
     <use xlink:href="#NotoSansCJKjp-Regular-2509" transform="translate(690.085182 0.796875)"/>
     <use xlink:href="#NotoSansCJKjp-Regular-b7c4" transform="translate(790.085091 0.796875)"/>
    </g>
   </g>
   <g id="patch_3">
    <path d="M 404.64 190.866462 
C 405.555073 190.866462 406.43279 190.502899 407.079845 189.855845 
C 407.726899 189.20879 408.090462 188.331073 408.090462 187.416 
C 408.090462 186.500927 407.726899 185.62321 407.079845 184.976155 
C 406.43279 184.329101 405.555073 183.965538 404.64 183.965538 
C 403.724927 183.965538 402.84721 184.329101 402.200155 184.976155 
C 401.553101 185.62321 401.189538 186.500927 401.189538 187.416 
C 401.189538 188.331073 401.553101 189.20879 402.200155 189.855845 
C 402.84721 190.502899 403.724927 190.866462 404.64 190.866462 
z
" clip-path="url(#p6c477eefed)" style="fill: #222831; stroke: #222831; stroke-linejoin: miter"/>
   </g>
   <g id="text_7">
    <!-- $(h,\,k)$ -->
    <g style="fill: #222831" transform="translate(412.526769 204.876923) scale(0.12 -0.12)">
     <use xlink:href="#Cmr10-77"/>
     <use xlink:href="#Cmmi10-5f" transform="translate(38.818359 0)"/>
     <use xlink:href="#Cmmi10-2c" transform="translate(96.435547 0)"/>
     <use xlink:href="#Cmmi10-3e" transform="translate(160.788199 0)"/>
     <use xlink:href="#Cmr10-44" transform="translate(212.790152 0)"/>
    </g>
   </g>
   <g id="patch_4">
    <path d="M 404.64 193.824 
C 406.339421 193.824 407.969468 193.148813 409.17114 191.94714 
C 410.372813 190.745468 411.048 189.115421 411.048 187.416 
C 411.048 185.716579 410.372813 184.086532 409.17114 182.88486 
C 407.969468 181.683187 406.339421 181.008 404.64 181.008 
C 402.940579 181.008 401.310532 181.683187 400.10886 182.88486 
C 398.907187 184.086532 398.232 185.716579 398.232 187.416 
C 398.232 189.115421 398.907187 190.745468 400.10886 191.94714 
C 401.310532 193.148813 402.940579 193.824 404.64 193.824 
z
" clip-path="url(#p6c477eefed)" style="fill: #1a7f37; stroke: #1a7f37; stroke-linejoin: miter"/>
   </g>
   <g id="text_8">
    <!-- $(x-h)^2+(y-k)^2=0$ -->
    <g style="fill: #1a7f37" transform="translate(343.265 79.128615) scale(0.125 -0.125)">
     <use xlink:href="#Cmr10-77" transform="translate(0 0.084203)"/>
     <use xlink:href="#Cmmi10-3f" transform="translate(38.818359 0.084203)"/>
     <use xlink:href="#Cmsy10-11" transform="translate(115.898495 0.084203)"/>
     <use xlink:href="#Cmmi10-5f" transform="translate(213.584099 0.084203)"/>
     <use xlink:href="#Cmr10-44" transform="translate(271.201286 0.084203)"/>
     <use xlink:href="#Cmr10-31" transform="translate(314.023937 41.373437) scale(0.7)"/>
     <use xlink:href="#Cmr10-4c" transform="translate(374.744409 0.084203)"/>
     <use xlink:href="#Cmr10-77" transform="translate(472.430013 0.084203)"/>
     <use xlink:href="#Cmmi10-72" transform="translate(511.248373 0.084203)"/>
     <use xlink:href="#Cmsy10-11" transform="translate(580.271867 0.084203)"/>
     <use xlink:href="#Cmmi10-3e" transform="translate(677.957472 0.084203)"/>
     <use xlink:href="#Cmr10-44" transform="translate(729.959425 0.084203)"/>
     <use xlink:href="#Cmr10-31" transform="translate(772.782075 41.373437) scale(0.7)"/>
     <use xlink:href="#Cmr10-29" transform="translate(833.502548 0.084203)"/>
     <use xlink:href="#Cmr10-28" transform="translate(931.188152 0.084203)"/>
    </g>
   </g>
   <g id="text_9">
    <!-- 只有圓心一點：距離平方等於零 -->
    <g style="fill: #4b5563" transform="translate(331.14 306.429231) scale(0.105 -0.105)">
     <defs>
      <path id="NotoSansCJKjp-Regular-2e85" d="M 3776 1011 
C 4410 557 5184 -102 5549 -531 
L 5971 -230 
C 5581 205 4787 838 4160 1267 
L 3776 1011 
z
M 2163 1280 
C 1792 768 1043 186 371 -179 
C 486 -262 659 -416 755 -518 
C 1440 -134 2195 493 2675 1082 
L 2163 1280 
z
M 1062 4941 
L 1062 1491 
L 1542 1491 
L 1542 1722 
L 4973 1722 
L 4973 1523 
L 5472 1523 
L 5472 4941 
L 1062 4941 
z
M 1542 2182 
L 1542 4474 
L 4973 4474 
L 4973 2182 
L 1542 2182 
z
" transform="scale(0.015625)"/>
      <path id="NotoSansCJKjp-Regular-50d7" d="M 2502 5376 
C 2426 5101 2336 4819 2221 4544 
L 403 4544 
L 403 4096 
L 2022 4096 
C 1613 3251 1024 2470 256 1946 
C 346 1856 499 1683 563 1574 
C 966 1862 1325 2208 1632 2598 
L 1632 -506 
L 2106 -506 
L 2106 762 
L 4787 762 
L 4787 96 
C 4787 0 4755 -38 4646 -38 
C 4525 -45 4134 -51 3712 -32 
C 3776 -166 3846 -365 3872 -493 
C 4422 -493 4774 -493 4986 -422 
C 5197 -339 5261 -192 5261 90 
L 5261 3354 
L 2150 3354 
C 2298 3597 2426 3840 2541 4096 
L 6010 4096 
L 6010 4544 
L 2733 4544 
C 2829 4781 2912 5024 2989 5261 
L 2502 5376 
z
M 2106 1850 
L 4787 1850 
L 4787 1178 
L 2106 1178 
L 2106 1850 
z
M 2106 2259 
L 2106 2918 
L 4787 2918 
L 4787 2259 
L 2106 2259 
z
" transform="scale(0.015625)"/>
      <path id="NotoSansCJKjp-Regular-a9ba" d="M 1235 3718 
L 1235 3418 
L 2624 3418 
L 2624 3718 
L 1235 3718 
z
M 1094 3078 
L 1094 2765 
L 2630 2765 
L 2630 3078 
L 1094 3078 
z
M 3738 3078 
L 3738 2765 
L 5318 2765 
L 5318 3078 
L 3738 3078 
z
M 3738 3718 
L 3738 3418 
L 5158 3418 
L 5158 3718 
L 3738 3718 
z
M 486 4390 
L 486 3270 
L 922 3270 
L 922 4058 
L 2944 4058 
L 2944 3066 
L 3418 3066 
L 3418 4058 
L 5472 4058 
L 5472 3270 
L 5920 3270 
L 5920 4390 
L 3418 4390 
L 3418 4755 
L 5536 4755 
L 5536 5120 
L 858 5120 
L 858 4755 
L 2944 4755 
L 2944 4390 
L 486 4390 
z
M 2035 1843 
L 2035 1568 
L 4378 1568 
L 4378 1843 
C 4890 1600 5453 1402 5946 1286 
C 6003 1395 6099 1568 6195 1677 
C 5203 1875 4096 2323 3366 2950 
L 2931 2950 
C 2381 2400 1325 1882 237 1600 
C 314 1510 410 1344 454 1229 
C 998 1389 1549 1600 2035 1843 
z
M 3174 2592 
C 3456 2349 3834 2112 4250 1907 
L 2157 1907 
C 2566 2125 2918 2355 3174 2592 
z
M 966 1165 
L 966 819 
L 2515 819 
L 2515 -512 
L 2976 -512 
L 2976 819 
L 4749 819 
L 4749 288 
C 4749 211 4723 192 4634 186 
C 4544 186 4256 179 3891 192 
C 3955 77 4032 -70 4058 -192 
C 4506 -192 4794 -192 4979 -128 
C 5171 -64 5216 51 5216 282 
L 5216 1165 
L 966 1165 
z
" transform="scale(0.015625)"/>
     </defs>
     <use xlink:href="#NotoSansCJKjp-Regular-2e85"/>
     <use xlink:href="#NotoSansCJKjp-Regular-50d7" transform="translate(100 0)"/>
     <use xlink:href="#NotoSansCJKjp-Regular-33a8" transform="translate(200 0)"/>
     <use xlink:href="#NotoSansCJKjp-Regular-444f" transform="translate(300 0)"/>
     <use xlink:href="#NotoSansCJKjp-Regular-2509" transform="translate(400 0)"/>
     <use xlink:href="#NotoSansCJKjp-Regular-b7c4" transform="translate(500 0)"/>
     <use xlink:href="#NotoSansCJKjp-Regular-e6c0" transform="translate(600 0)"/>
     <use xlink:href="#NotoSansCJKjp-Regular-9943" transform="translate(700 0)"/>
     <use xlink:href="#NotoSansCJKjp-Regular-a995" transform="translate(800 0)"/>
     <use xlink:href="#NotoSansCJKjp-Regular-41d6" transform="translate(900 0)"/>
     <use xlink:href="#NotoSansCJKjp-Regular-4ea0" transform="translate(1000 0)"/>
     <use xlink:href="#NotoSansCJKjp-Regular-74a1" transform="translate(1100 0)"/>
     <use xlink:href="#NotoSansCJKjp-Regular-4ea4" transform="translate(1200 0)"/>
     <use xlink:href="#NotoSansCJKjp-Regular-a9ba" transform="translate(1300 0)"/>
    </g>
   </g>
  </g>
  <g id="axes_3">
   <g id="line2d_8">
    <path d="M 545.76 187.416 
L 802.08 187.416 
" clip-path="url(#p03abe0f756)" style="fill: none; stroke: #d8dde3; stroke-linecap: square"/>
   </g>
   <g id="line2d_9">
    <path d="M 673.92 315.576 
L 673.92 59.256 
" clip-path="url(#p03abe0f756)" style="fill: none; stroke: #d8dde3; stroke-linecap: square"/>
   </g>
   <g id="line2d_10">
    <path d="M 752.787692 187.416 
L 752.6997 183.691519 
L 752.435919 179.975348 
L 751.996939 176.27578 
L 751.383738 172.601071 
L 750.597686 168.95942 
L 749.640536 165.358952 
L 748.514423 161.807702 
L 747.221861 158.313595 
L 745.765735 154.884426 
L 744.149292 151.527848 
L 742.37614 148.25135 
L 740.450236 145.062244 
L 738.375876 141.967646 
L 736.157691 138.974461 
L 733.800629 136.089368 
L 731.30995 133.318804 
L 728.691211 130.668953 
L 725.950256 128.145727 
L 723.093202 125.754755 
L 720.126423 123.501374 
L 717.056539 121.390612 
L 713.890401 119.427178 
L 710.635073 117.615453 
L 707.29782 115.959481 
L 703.886087 114.462957 
L 700.407489 113.129219 
L 696.869786 111.961244 
L 693.280874 110.961638 
L 689.64876 110.132632 
L 685.981549 109.476075 
L 682.287424 108.993432 
L 678.574628 108.685781 
L 674.851445 108.553808 
L 671.126184 108.597807 
L 667.407158 108.817681 
L 663.702664 109.212938 
L 660.020968 109.782697 
L 656.370287 110.525685 
L 652.758767 111.440247 
L 649.194465 112.52434 
L 645.685336 113.775545 
L 642.239209 115.191071 
L 638.863774 116.767759 
L 635.566564 118.502091 
L 632.354935 120.390197 
L 629.236054 122.427864 
L 626.21688 124.610544 
L 623.304151 126.933368 
L 620.504365 129.391153 
L 617.823771 131.978414 
L 615.268349 134.689377 
L 612.843802 137.517995 
L 610.55554 140.457954 
L 608.408669 143.502695 
L 606.407979 146.645424 
L 604.557935 149.879127 
L 602.862665 153.196591 
L 601.325951 156.590411 
L 599.951223 160.053015 
L 598.741549 163.576677 
L 597.699627 167.153533 
L 596.827782 170.775603 
L 596.12796 174.434804 
L 595.601723 178.122972 
L 595.250244 181.831876 
L 595.074309 185.55324 
L 595.074309 189.27876 
L 595.250244 193.000124 
L 595.601723 196.709028 
L 596.12796 200.397196 
L 596.827782 204.056397 
L 597.699627 207.678467 
L 598.741549 211.255323 
L 599.951223 214.778985 
L 601.325951 218.241589 
L 602.862665 221.635409 
L 604.557935 224.952873 
L 606.407979 228.186576 
L 608.408669 231.329305 
L 610.55554 234.374046 
L 612.843802 237.314005 
L 615.268349 240.142623 
L 617.823771 242.853586 
L 620.504365 245.440847 
L 623.304151 247.898632 
L 626.21688 250.221456 
L 629.236054 252.404136 
L 632.354935 254.441803 
L 635.566564 256.329909 
L 638.863774 258.064241 
L 642.239209 259.640929 
L 645.685336 261.056455 
L 649.194465 262.30766 
L 652.758767 263.391753 
L 656.370287 264.306315 
L 660.020968 265.049303 
L 663.702664 265.619062 
L 667.407158 266.014319 
L 671.126184 266.234193 
L 674.851445 266.278192 
L 678.574628 266.146219 
L 682.287424 265.838568 
L 685.981549 265.355925 
L 689.64876 264.699368 
L 693.280874 263.870362 
L 696.869786 262.870756 
L 700.407489 261.702781 
L 703.886087 260.369043 
L 707.29782 258.872519 
L 710.635073 257.216547 
L 713.890401 255.404822 
L 717.056539 253.441388 
L 720.126423 251.330626 
L 723.093202 249.077245 
L 725.950256 246.686273 
L 728.691211 244.163047 
L 731.30995 241.513196 
L 733.800629 238.742632 
L 736.157691 235.857539 
L 738.375876 232.864354 
L 740.450236 229.769756 
L 742.37614 226.58065 
L 744.149292 223.304152 
L 745.765735 219.947574 
L 747.221861 216.518405 
L 748.514423 213.024298 
L 749.640536 209.473048 
L 750.597686 205.87258 
L 751.383738 202.230929 
L 751.996939 198.55622 
L 752.435919 194.856652 
L 752.6997 191.140481 
L 752.787692 187.416 
L 752.787692 187.416 
" clip-path="url(#p03abe0f756)" style="fill: none; stroke-dasharray: 6.4,6.4; stroke-dashoffset: 0; stroke: #d1242f; stroke-opacity: 0.45; stroke-width: 1.6"/>
   </g>
   <g id="text_10">
    <!-- 右邊常數 $&lt;0$：空集合 -->
    <g style="fill: #d1242f" transform="translate(609.505 53.256) scale(0.13 -0.13)">
     <defs>
      <path id="Cmmi10-63" d="M 594 1491 
Q 531 1519 531 1600 
Q 531 1681 616 1722 
L 4269 3444 
Q 4294 3456 4313 3456 
Q 4369 3456 4405 3417 
Q 4441 3378 4441 3328 
Q 4441 3250 4366 3206 
L 959 1600 
L 4384 -19 
Q 4441 -38 4441 -128 
Q 4441 -178 4405 -217 
Q 4369 -256 4313 -256 
Q 4294 -256 4269 -244 
L 594 1491 
z
" transform="scale(0.015625)"/>
      <path id="NotoSansCJKjp-Regular-72dc" d="M 499 4710 
L 499 3418 
L 973 3418 
L 973 4269 
L 2221 4269 
C 2112 3334 1805 2803 422 2534 
C 525 2438 646 2246 685 2125 
C 2202 2470 2586 3136 2720 4269 
L 3654 4269 
L 3654 2995 
C 3654 2522 3789 2394 4358 2394 
C 4474 2394 5152 2394 5280 2394 
C 5709 2394 5843 2554 5894 3162 
C 5766 3194 5574 3258 5472 3334 
C 5453 2880 5414 2816 5229 2816 
C 5082 2816 4518 2816 4403 2816 
C 4166 2816 4128 2842 4128 2995 
L 4128 4269 
L 5427 4269 
L 5427 3558 
L 5920 3558 
L 5920 4710 
L 3430 4710 
L 3430 5376 
L 2938 5376 
L 2938 4710 
L 499 4710 
z
M 384 122 
L 384 -320 
L 6022 -320 
L 6022 122 
L 3430 122 
L 3430 1414 
L 5466 1414 
L 5466 1856 
L 1056 1856 
L 1056 1414 
L 2938 1414 
L 2938 122 
L 384 122 
z
" transform="scale(0.015625)"/>
      <path id="NotoSansCJKjp-Regular-a957" d="M 1696 5389 
C 1414 4800 890 4058 173 3494 
C 282 3424 442 3283 518 3174 
C 736 3354 934 3546 1114 3744 
L 1114 1856 
L 2944 1856 
L 2944 1459 
L 346 1459 
L 346 1056 
L 2541 1056 
C 1926 589 992 166 186 -38 
C 294 -141 429 -320 506 -442 
C 1325 -186 2285 301 2944 864 
L 2944 -506 
L 3424 -506 
L 3424 883 
C 4077 333 5050 -147 5888 -390 
C 5958 -269 6093 -96 6195 6 
C 5389 198 4461 602 3846 1056 
L 6061 1056 
L 6061 1459 
L 3424 1459 
L 3424 1856 
L 5888 1856 
L 5888 2240 
L 3533 2240 
L 3533 2682 
L 5395 2682 
L 5395 3027 
L 3533 3027 
L 3533 3456 
L 5376 3456 
L 5376 3802 
L 3533 3802 
L 3533 4224 
L 5638 4224 
L 5638 4621 
L 3526 4621 
C 3654 4826 3789 5069 3904 5306 
L 3366 5376 
C 3296 5158 3162 4864 3034 4621 
L 1798 4621 
C 1946 4851 2080 5075 2195 5293 
L 1696 5389 
z
M 3072 3456 
L 3072 3027 
L 1574 3027 
L 1574 3456 
L 3072 3456 
z
M 3072 3802 
L 1574 3802 
L 1574 4224 
L 3072 4224 
L 3072 3802 
z
M 3072 2682 
L 3072 2240 
L 1574 2240 
L 1574 2682 
L 3072 2682 
z
" transform="scale(0.015625)"/>
      <path id="NotoSansCJKjp-Regular-2eac" d="M 1587 3283 
L 1587 2854 
L 4819 2854 
L 4819 3283 
L 1587 3283 
z
M 3187 4890 
C 3789 4070 4915 3168 5914 2637 
C 5997 2778 6118 2944 6234 3066 
C 5216 3520 4090 4410 3405 5363 
L 2912 5363 
C 2413 4531 1338 3552 218 2982 
C 320 2880 454 2714 518 2605 
C 1613 3194 2656 4109 3187 4890 
z
M 1254 2048 
L 1254 -518 
L 1728 -518 
L 1728 -250 
L 4685 -250 
L 4685 -518 
L 5171 -518 
L 5171 2048 
L 1254 2048 
z
M 1728 179 
L 1728 1613 
L 4685 1613 
L 4685 179 
L 1728 179 
z
" transform="scale(0.015625)"/>
     </defs>
     <use xlink:href="#NotoSansCJKjp-Regular-2e93" transform="translate(0 0.796875)"/>
     <use xlink:href="#NotoSansCJKjp-Regular-9e93" transform="translate(99.999908 0.796875)"/>
     <use xlink:href="#NotoSansCJKjp-Regular-417b" transform="translate(199.999817 0.796875)"/>
     <use xlink:href="#NotoSansCJKjp-Regular-4e26" transform="translate(299.999725 0.796875)"/>
     <use xlink:href="#NotoSansCJKjp-Regular-1" transform="translate(399.999634 0.796875)"/>
     <use xlink:href="#Cmmi10-63" transform="translate(442.39967 0.796875)"/>
     <use xlink:href="#Cmr10-28" transform="translate(540.085274 0.796875)"/>
     <use xlink:href="#NotoSansCJKjp-Regular-e6c0" transform="translate(590.085274 0.796875)"/>
     <use xlink:href="#NotoSansCJKjp-Regular-72dc" transform="translate(690.085182 0.796875)"/>
     <use xlink:href="#NotoSansCJKjp-Regular-a957" transform="translate(790.085091 0.796875)"/>
     <use xlink:href="#NotoSansCJKjp-Regular-2eac" transform="translate(890.084999 0.796875)"/>
    </g>
   </g>
   <g id="text_11">
    <!-- $(x-h)^2+(y-k)^2&lt;0$ -->
    <g style="fill: #d1242f" transform="translate(612.545 79.128615) scale(0.125 -0.125)">
     <use xlink:href="#Cmr10-77" transform="translate(0 0.084203)"/>
     <use xlink:href="#Cmmi10-3f" transform="translate(38.818359 0.084203)"/>
     <use xlink:href="#Cmsy10-11" transform="translate(115.898495 0.084203)"/>
     <use xlink:href="#Cmmi10-5f" transform="translate(213.584099 0.084203)"/>
     <use xlink:href="#Cmr10-44" transform="translate(271.201286 0.084203)"/>
     <use xlink:href="#Cmr10-31" transform="translate(314.023937 41.373437) scale(0.7)"/>
     <use xlink:href="#Cmr10-4c" transform="translate(374.744409 0.084203)"/>
     <use xlink:href="#Cmr10-77" transform="translate(472.430013 0.084203)"/>
     <use xlink:href="#Cmmi10-72" transform="translate(511.248373 0.084203)"/>
     <use xlink:href="#Cmsy10-11" transform="translate(580.271867 0.084203)"/>
     <use xlink:href="#Cmmi10-3e" transform="translate(677.957472 0.084203)"/>
     <use xlink:href="#Cmr10-44" transform="translate(729.959425 0.084203)"/>
     <use xlink:href="#Cmr10-31" transform="translate(772.782075 41.373437) scale(0.7)"/>
     <use xlink:href="#Cmmi10-63" transform="translate(833.502548 0.084203)"/>
     <use xlink:href="#Cmr10-28" transform="translate(931.188152 0.084203)"/>
    </g>
   </g>
   <g id="text_12">
    <!-- 沒有任何實點：距離平方不可能為負 -->
    <g style="fill: #4b5563" transform="translate(589.92 306.429231) scale(0.105 -0.105)">
     <defs>
      <path id="NotoSansCJKjp-Regular-5a6f" d="M 589 4979 
C 1005 4787 1504 4474 1747 4230 
L 2029 4627 
C 1779 4858 1267 5146 858 5325 
L 589 4979 
z
M 243 3245 
C 666 3066 1178 2765 1427 2547 
L 1696 2944 
C 1440 3155 915 3443 499 3603 
L 243 3245 
z
M 454 -109 
L 864 -422 
C 1216 166 1645 973 1958 1651 
L 1600 1958 
C 1248 1229 781 390 454 -109 
z
M 3123 5376 
C 2989 4256 2650 3366 1965 2835 
C 2086 2765 2291 2605 2374 2528 
C 2867 2970 3206 3578 3424 4352 
L 5235 4352 
C 5171 3571 5101 3251 4998 3149 
C 4941 3098 4883 3091 4774 3091 
C 4653 3091 4333 3098 4013 3130 
C 4090 3002 4147 2816 4160 2682 
C 4493 2662 4806 2662 4973 2675 
C 5165 2688 5286 2726 5402 2842 
C 5568 3021 5651 3469 5728 4589 
C 5741 4653 5747 4787 5747 4787 
L 3520 4787 
C 3558 4960 3584 5133 3610 5318 
L 3123 5376 
z
M 5101 1939 
C 4870 1504 4538 1139 4134 838 
C 3744 1152 3424 1523 3206 1939 
L 5101 1939 
z
M 2317 2381 
L 2317 1939 
L 3053 1939 
L 2752 1837 
C 3002 1357 3328 934 3731 576 
C 3181 256 2534 45 1869 -77 
C 1958 -186 2074 -378 2112 -506 
C 2829 -346 3520 -96 4115 275 
C 4621 -83 5203 -346 5856 -512 
C 5933 -378 6067 -186 6176 -83 
C 5568 51 5005 269 4531 570 
C 5069 992 5498 1549 5760 2266 
L 5453 2400 
L 5363 2381 
L 2317 2381 
z
" transform="scale(0.015625)"/>
      <path id="NotoSansCJKjp-Regular-2673" d="M 2195 198 
L 2195 -262 
L 6042 -262 
L 6042 198 
L 4333 198 
L 4333 2176 
L 6144 2176 
L 6144 2637 
L 4333 2637 
L 4333 4422 
C 4909 4531 5453 4666 5888 4813 
L 5530 5216 
C 4742 4928 3347 4678 2157 4518 
C 2208 4410 2278 4230 2298 4115 
C 2797 4173 3328 4243 3846 4333 
L 3846 2637 
L 1946 2637 
L 1946 2176 
L 3846 2176 
L 3846 198 
L 2195 198 
z
M 1888 5376 
C 1485 4371 832 3386 141 2758 
C 230 2643 384 2394 435 2278 
C 691 2528 947 2822 1190 3149 
L 1190 -512 
L 1664 -512 
L 1664 3859 
C 1926 4294 2163 4762 2349 5229 
L 1888 5376 
z
" transform="scale(0.015625)"/>
      <path id="NotoSansCJKjp-Regular-26f0" d="M 2176 4755 
L 2176 4294 
L 5210 4294 
L 5210 154 
C 5210 26 5171 -13 5037 -13 
C 4896 -26 4422 -26 3910 -6 
C 3987 -154 4064 -365 4083 -506 
C 4710 -506 5139 -493 5370 -422 
C 5606 -339 5690 -192 5690 147 
L 5690 4294 
L 6163 4294 
L 6163 4755 
L 2176 4755 
z
M 2816 2963 
L 3923 2963 
L 3923 1600 
L 2816 1600 
L 2816 2963 
z
M 2362 3392 
L 2362 730 
L 2816 730 
L 2816 1178 
L 4371 1178 
L 4371 3392 
L 2362 3392 
z
M 1709 5370 
C 1376 4416 826 3456 237 2842 
C 326 2733 467 2477 512 2368 
C 717 2592 915 2854 1107 3136 
L 1107 -506 
L 1581 -506 
L 1581 3930 
C 1805 4352 1997 4794 2157 5235 
L 1709 5370 
z
" transform="scale(0.015625)"/>
      <path id="NotoSansCJKjp-Regular-3d27" d="M 1626 1594 
L 4806 1594 
L 4806 1299 
L 1626 1299 
L 1626 1594 
z
M 1626 1011 
L 4806 1011 
L 4806 717 
L 1626 717 
L 1626 1011 
z
M 1626 2163 
L 4806 2163 
L 4806 1875 
L 1626 1875 
L 1626 2163 
z
M 518 4909 
L 518 3885 
L 960 3885 
L 960 4518 
L 5434 4518 
L 5434 3885 
L 5894 3885 
L 5894 4909 
L 3430 4909 
L 3430 5382 
L 2950 5382 
L 2950 4909 
L 518 4909 
z
M 1850 3930 
L 2982 3930 
L 2957 3629 
L 1811 3629 
L 1850 3930 
z
M 2886 3021 
L 1728 3021 
L 1773 3334 
L 2925 3334 
L 2886 3021 
z
M 3386 3930 
L 4646 3930 
L 4621 3629 
L 3360 3629 
L 3386 3930 
z
M 3296 3021 
L 3334 3334 
L 4602 3334 
L 4576 3021 
L 3296 3021 
z
M 3616 147 
C 4410 -77 5190 -339 5658 -518 
L 6067 -237 
C 5549 -45 4710 211 3936 422 
L 3616 147 
z
M 1158 2458 
L 1158 422 
L 2336 422 
C 1946 166 1043 -83 301 -198 
C 397 -288 525 -435 595 -525 
C 1350 -403 2253 -141 2752 173 
L 2362 422 
L 5293 422 
L 5293 2458 
L 1158 2458 
z
M 371 3667 
L 371 3296 
L 1331 3296 
L 1261 2733 
L 4992 2733 
L 5043 3296 
L 6048 3296 
L 6048 3667 
L 5075 3667 
L 5126 4218 
L 1453 4218 
L 1382 3667 
L 371 3667 
z
" transform="scale(0.015625)"/>
      <path id="NotoSansCJKjp-Regular-2518" d="M 3578 3059 
C 4339 2547 5299 1792 5754 1299 
L 6144 1670 
C 5664 2163 4691 2880 3936 3366 
L 3578 3059 
z
M 442 4928 
L 442 4435 
L 3290 4435 
C 2656 3341 1555 2259 282 1632 
C 384 1523 531 1331 608 1210 
C 1498 1677 2291 2336 2938 3078 
L 2938 -499 
L 3456 -499 
L 3456 3738 
C 3622 3962 3770 4198 3904 4435 
L 5958 4435 
L 5958 4928 
L 442 4928 
z
" transform="scale(0.015625)"/>
      <path id="NotoSansCJKjp-Regular-2e8e" d="M 358 4922 
L 358 4442 
L 4781 4442 
L 4781 186 
C 4781 51 4736 13 4595 0 
C 4442 0 3917 -6 3405 19 
C 3482 -122 3571 -358 3603 -499 
C 4237 -499 4685 -499 4941 -416 
C 5190 -333 5280 -166 5280 179 
L 5280 4442 
L 6067 4442 
L 6067 4922 
L 358 4922 
z
M 1478 3040 
L 3162 3040 
L 3162 1568 
L 1478 1568 
L 1478 3040 
z
M 1011 3501 
L 1011 595 
L 1478 595 
L 1478 1107 
L 3635 1107 
L 3635 3501 
L 1011 3501 
z
" transform="scale(0.015625)"/>
      <path id="NotoSansCJKjp-Regular-8006" d="M 2131 4774 
C 2278 4576 2432 4339 2560 4109 
L 1248 4058 
C 1446 4422 1651 4864 1824 5261 
L 1331 5382 
C 1197 4979 966 4442 742 4038 
L 256 4019 
L 294 3552 
C 960 3590 1882 3635 2784 3693 
C 2854 3552 2912 3424 2950 3309 
L 3366 3494 
C 3226 3891 2867 4486 2528 4928 
L 2131 4774 
z
M 2451 2688 
L 2451 2138 
L 1088 2138 
L 1088 2688 
L 2451 2688 
z
M 640 3098 
L 640 -506 
L 1088 -506 
L 1088 800 
L 2451 800 
L 2451 51 
C 2451 -32 2432 -58 2349 -58 
C 2253 -64 1984 -64 1683 -51 
C 1747 -179 1818 -365 1843 -493 
C 2246 -493 2522 -486 2701 -416 
C 2874 -339 2925 -205 2925 45 
L 2925 3098 
L 640 3098 
z
M 1088 1760 
L 2451 1760 
L 2451 1178 
L 1088 1178 
L 1088 1760 
z
M 5491 4896 
C 5126 4704 4550 4474 4006 4288 
L 4006 5363 
L 3526 5363 
L 3526 3238 
C 3526 2707 3686 2566 4307 2566 
C 4429 2566 5267 2566 5408 2566 
C 5920 2566 6061 2771 6118 3558 
C 5984 3590 5786 3661 5683 3744 
C 5658 3110 5613 3002 5363 3002 
C 5184 3002 4480 3002 4352 3002 
C 4058 3002 4006 3040 4006 3245 
L 4006 3904 
C 4621 4083 5306 4307 5811 4538 
L 5491 4896 
z
M 5568 2042 
C 5197 1805 4582 1555 4000 1363 
L 4000 2387 
L 3526 2387 
L 3526 224 
C 3526 -314 3693 -454 4320 -454 
C 4454 -454 5318 -454 5459 -454 
C 5997 -454 6138 -224 6195 634 
C 6061 666 5875 742 5760 819 
C 5734 96 5690 -26 5421 -26 
C 5229 -26 4506 -26 4365 -26 
C 4058 -26 4000 13 4000 224 
L 4000 966 
C 4646 1146 5382 1395 5882 1683 
L 5568 2042 
z
" transform="scale(0.015625)"/>
      <path id="NotoSansCJKjp-Regular-61a1" d="M 4083 1197 
C 4275 934 4474 563 4550 326 
L 4902 474 
C 4826 704 4621 1069 4416 1325 
L 4083 1197 
z
M 1312 5184 
C 1562 4915 1830 4544 1946 4294 
L 2387 4499 
C 2259 4742 1978 5107 1734 5357 
L 1312 5184 
z
M 2182 1043 
C 2298 627 2368 96 2349 -250 
L 2771 -186 
C 2771 160 2707 685 2579 1094 
L 2182 1043 
z
M 3130 1101 
C 3283 742 3437 275 3482 -26 
L 3885 83 
C 3827 378 3674 838 3501 1184 
L 3130 1101 
z
M 1363 1184 
C 1242 691 992 122 640 -218 
L 1011 -474 
C 1395 -90 1619 525 1766 1056 
L 1363 1184 
z
M 3251 5382 
C 3142 5011 3008 4640 2848 4282 
L 525 4282 
L 525 3840 
L 2637 3840 
C 2086 2765 1280 1798 192 1178 
C 275 1075 397 890 454 774 
C 832 998 1178 1254 1491 1542 
L 5472 1542 
C 5370 525 5267 96 5126 -32 
C 5069 -90 5005 -96 4890 -96 
C 4768 -102 4461 -96 4134 -64 
C 4211 -192 4269 -378 4275 -506 
C 4608 -525 4922 -525 5088 -512 
C 5280 -499 5402 -461 5523 -333 
C 5728 -128 5843 410 5965 1760 
C 5971 1824 5984 1965 5984 1965 
L 5286 1965 
C 5370 2298 5459 2746 5530 3123 
L 4800 3123 
C 4883 3456 4979 3898 5050 4282 
L 3373 4282 
C 3507 4602 3629 4928 3738 5261 
L 3251 5382 
z
M 1914 1965 
C 2125 2195 2323 2445 2502 2701 
L 5005 2701 
C 4960 2445 4896 2182 4838 1965 
L 1914 1965 
z
M 3168 3840 
L 4518 3840 
C 4467 3584 4410 3328 4352 3123 
L 2778 3123 
C 2918 3354 3046 3597 3168 3840 
z
" transform="scale(0.015625)"/>
      <path id="NotoSansCJKjp-Regular-9777" d="M 1606 2560 
L 4883 2560 
L 4883 1958 
L 1606 1958 
L 1606 2560 
z
M 1606 1594 
L 4883 1594 
L 4883 992 
L 1606 992 
L 1606 1594 
z
M 1606 3514 
L 4883 3514 
L 4883 2925 
L 1606 2925 
L 1606 3514 
z
M 3776 237 
C 4448 -6 5133 -301 5530 -525 
L 6035 -256 
C 5581 -32 4832 275 4147 506 
L 3776 237 
z
M 2214 512 
C 1760 250 1005 0 365 -154 
C 480 -243 653 -435 730 -538 
C 1357 -346 2163 -26 2669 301 
L 2214 512 
z
M 2074 4512 
L 3635 4512 
C 3507 4307 3341 4083 3168 3910 
L 1510 3910 
C 1715 4102 1907 4307 2074 4512 
z
M 2080 5370 
C 1760 4794 1152 4096 314 3584 
C 435 3514 595 3360 672 3245 
C 832 3347 986 3462 1126 3578 
L 1126 595 
L 5376 595 
L 5376 3910 
L 3744 3910 
C 3955 4160 4166 4448 4314 4710 
L 3987 4922 
L 3910 4902 
L 2368 4902 
C 2451 5024 2534 5146 2605 5267 
L 2080 5370 
z
" transform="scale(0.015625)"/>
     </defs>
     <use xlink:href="#NotoSansCJKjp-Regular-5a6f"/>
     <use xlink:href="#NotoSansCJKjp-Regular-50d7" transform="translate(100 0)"/>
     <use xlink:href="#NotoSansCJKjp-Regular-2673" transform="translate(200 0)"/>
     <use xlink:href="#NotoSansCJKjp-Regular-26f0" transform="translate(300 0)"/>
     <use xlink:href="#NotoSansCJKjp-Regular-3d27" transform="translate(400 0)"/>
     <use xlink:href="#NotoSansCJKjp-Regular-b7c4" transform="translate(500 0)"/>
     <use xlink:href="#NotoSansCJKjp-Regular-e6c0" transform="translate(600 0)"/>
     <use xlink:href="#NotoSansCJKjp-Regular-9943" transform="translate(700 0)"/>
     <use xlink:href="#NotoSansCJKjp-Regular-a995" transform="translate(800 0)"/>
     <use xlink:href="#NotoSansCJKjp-Regular-41d6" transform="translate(900 0)"/>
     <use xlink:href="#NotoSansCJKjp-Regular-4ea0" transform="translate(1000 0)"/>
     <use xlink:href="#NotoSansCJKjp-Regular-2518" transform="translate(1100 0)"/>
     <use xlink:href="#NotoSansCJKjp-Regular-2e8e" transform="translate(1200 0)"/>
     <use xlink:href="#NotoSansCJKjp-Regular-8006" transform="translate(1300 0)"/>
     <use xlink:href="#NotoSansCJKjp-Regular-61a1" transform="translate(1400 0)"/>
     <use xlink:href="#NotoSansCJKjp-Regular-9777" transform="translate(1500 0)"/>
    </g>
   </g>
   <g id="line2d_11">
    <path d="M 646.809231 214.526769 
L 701.030769 160.305231 
" clip-path="url(#p03abe0f756)" style="fill: none; stroke: #d1242f; stroke-width: 2.6; stroke-linecap: square"/>
   </g>
   <g id="line2d_12">
    <path d="M 646.809231 160.305231 
L 701.030769 214.526769 
" clip-path="url(#p03abe0f756)" style="fill: none; stroke: #d1242f; stroke-width: 2.6; stroke-linecap: square"/>
   </g>
   <g id="text_13">
    <!-- $(h,\,k)$ -->
    <g style="fill: #222831" transform="translate(708.424615 149.911385) scale(0.12 -0.12)">
     <use xlink:href="#Cmr10-77"/>
     <use xlink:href="#Cmmi10-5f" transform="translate(38.818359 0)"/>
     <use xlink:href="#Cmmi10-2c" transform="translate(96.435547 0)"/>
     <use xlink:href="#Cmmi10-3e" transform="translate(160.788199 0)"/>
     <use xlink:href="#Cmr10-44" transform="translate(212.790152 0)"/>
    </g>
   </g>
  </g>
  <g id="text_14">
   <!-- 圓的一般式配方後：同一圓心，右邊常數 $k_0=\frac{D^2+E^2}{4}-F$ 的三種情況 -->
   <g style="fill: #222831" transform="translate(200.655 20.97) scale(0.135 -0.135)">
    <defs>
     <path id="NotoSansCJKjp-Regular-8297" d="M 1472 1990 
L 1472 480 
L 1792 480 
L 1792 1990 
L 1472 1990 
z
M 1318 3718 
C 1478 3450 1619 3085 1664 2848 
L 1990 2982 
C 1939 3219 1798 3578 1619 3840 
L 1318 3718 
z
M 3450 5120 
L 3450 4294 
C 3450 3885 3386 3398 2912 3034 
C 3014 2976 3187 2829 3258 2746 
C 3776 3162 3878 3782 3878 4282 
L 3878 4698 
L 4870 4698 
L 4870 3674 
C 4870 3322 4902 3219 4992 3136 
C 5082 3059 5216 3027 5344 3027 
C 5408 3027 5581 3027 5664 3027 
C 5760 3027 5888 3046 5958 3085 
C 6042 3117 6106 3187 6138 3290 
C 6176 3386 6195 3661 6208 3898 
C 6086 3930 5933 4006 5850 4083 
C 5843 3834 5837 3648 5824 3558 
C 5811 3488 5786 3443 5760 3430 
C 5734 3411 5677 3405 5619 3405 
C 5568 3405 5485 3405 5440 3405 
C 5402 3405 5363 3411 5338 3430 
C 5312 3450 5312 3520 5312 3642 
L 5312 5120 
L 3450 5120 
z
M 5267 2144 
C 5094 1664 4826 1254 4499 909 
C 4173 1267 3917 1683 3744 2144 
L 5267 2144 
z
M 3104 2579 
L 3104 2144 
L 3686 2144 
L 3347 2061 
C 3546 1510 3821 1018 4179 614 
C 3770 275 3290 26 2790 -122 
C 2886 -218 3002 -403 3059 -525 
C 3584 -339 4077 -77 4506 282 
C 4909 -70 5382 -346 5939 -512 
C 6010 -390 6138 -205 6240 -115 
C 5696 26 5229 269 4838 595 
C 5293 1082 5651 1702 5850 2490 
L 5549 2592 
L 5459 2579 
L 3104 2579 
z
M 2240 4102 
L 2240 2656 
L 1088 2534 
L 1088 4102 
L 2240 4102 
z
M 1491 5376 
C 1446 5126 1350 4762 1254 4493 
L 698 4493 
L 698 2496 
L 230 2451 
L 282 2042 
L 698 2093 
C 698 1331 646 378 218 -288 
C 320 -333 493 -442 563 -512 
C 1018 205 1088 1306 1088 2138 
L 2240 2266 
L 2240 -19 
C 2240 -96 2214 -122 2138 -122 
C 2067 -128 1837 -128 1574 -122 
C 1626 -230 1690 -403 1709 -512 
C 2080 -512 2304 -506 2458 -442 
C 2598 -371 2643 -243 2643 -19 
L 2643 2310 
L 2944 2342 
L 2938 2733 
L 2643 2701 
L 2643 4493 
L 1702 4493 
C 1792 4723 1907 5005 2003 5274 
L 1491 5376 
z
" transform="scale(0.015625)"/>
     <path id="NotoSansCJKjp-Regular-430b" d="M 4538 5062 
C 4870 4832 5267 4486 5459 4256 
L 5792 4557 
C 5600 4781 5190 5107 4864 5331 
L 4538 5062 
z
M 3616 5350 
C 3616 4954 3629 4563 3648 4179 
L 352 4179 
L 352 3712 
L 3680 3712 
C 3846 1331 4384 -525 5434 -525 
C 5926 -525 6106 -198 6189 922 
C 6054 973 5875 1082 5766 1190 
C 5722 333 5651 -26 5472 -26 
C 4838 -26 4339 1542 4179 3712 
L 6061 3712 
L 6061 4179 
L 4154 4179 
C 4134 4557 4128 4947 4128 5350 
L 3616 5350 
z
M 378 154 
L 531 -320 
C 1350 -141 2528 128 3616 384 
L 3578 819 
L 2208 525 
L 2208 2291 
L 3405 2291 
L 3405 2758 
L 576 2758 
L 576 2291 
L 1728 2291 
L 1728 429 
L 378 154 
z
" transform="scale(0.015625)"/>
     <path id="NotoSansCJKjp-Regular-9fe5" d="M 3546 5088 
L 3546 4627 
L 5491 4627 
L 5491 3072 
L 3565 3072 
L 3565 294 
C 3565 -294 3744 -448 4339 -448 
C 4461 -448 5280 -448 5414 -448 
C 5997 -448 6138 -154 6195 890 
C 6061 922 5862 1011 5747 1094 
C 5715 173 5670 6 5382 6 
C 5203 6 4525 6 4390 6 
C 4096 6 4038 51 4038 294 
L 4038 2611 
L 5491 2611 
L 5491 2176 
L 5952 2176 
L 5952 5088 
L 3546 5088 
z
M 915 1011 
L 2688 1011 
L 2688 346 
L 915 346 
L 915 1011 
z
M 915 1370 
L 915 3539 
L 1350 3539 
L 1350 3034 
C 1350 2688 1286 2272 915 1946 
C 979 1907 1082 1811 1126 1754 
C 1530 2125 1619 2637 1619 3027 
L 1619 3539 
L 1978 3539 
L 1978 2330 
C 1978 2022 2054 1965 2310 1965 
C 2355 1965 2573 1965 2624 1965 
L 2688 1965 
L 2688 1370 
L 915 1370 
z
M 365 5126 
L 365 4698 
L 1286 4698 
L 1286 3955 
L 525 3955 
L 525 -486 
L 915 -486 
L 915 -45 
L 2688 -45 
L 2688 -397 
L 3085 -397 
L 3085 3955 
L 2362 3955 
L 2362 4698 
L 3232 4698 
L 3232 5126 
L 365 5126 
z
M 1632 3955 
L 1632 4698 
L 2010 4698 
L 2010 3955 
L 1632 3955 
z
M 2253 3539 
L 2688 3539 
L 2688 2246 
L 2669 2259 
C 2656 2246 2643 2240 2573 2240 
C 2528 2240 2368 2240 2336 2240 
C 2259 2240 2253 2253 2253 2336 
L 2253 3539 
z
" transform="scale(0.015625)"/>
     <path id="NotoSansCJKjp-Regular-43f2" d="M 1562 5376 
C 1280 4922 710 4371 211 4032 
C 288 3949 416 3776 474 3680 
C 1024 4070 1619 4666 1997 5203 
L 1562 5376 
z
M 1933 2944 
L 1978 2509 
L 3456 2554 
C 3072 1984 2470 1485 1862 1152 
C 1965 1069 2125 883 2189 787 
C 2451 947 2714 1139 2963 1357 
C 3168 1062 3418 794 3699 557 
C 3142 230 2490 13 1843 -115 
C 1933 -218 2035 -410 2080 -531 
C 2784 -365 3482 -109 4083 269 
C 4614 -90 5248 -358 5939 -518 
C 6003 -397 6125 -211 6234 -109 
C 5581 19 4979 243 4467 544 
C 4934 909 5318 1363 5562 1926 
L 5254 2074 
L 5171 2054 
L 3629 2054 
C 3763 2221 3885 2394 3994 2573 
L 5542 2624 
C 5664 2451 5760 2291 5824 2157 
L 6227 2394 
C 6029 2784 5568 3366 5165 3782 
L 4787 3584 
C 4947 3411 5114 3213 5261 3014 
L 3539 2976 
C 4141 3469 4794 4102 5306 4653 
L 4870 4890 
C 4570 4512 4147 4064 3712 3654 
C 3565 3808 3360 3981 3142 4154 
C 3437 4435 3776 4813 4058 5158 
L 3629 5376 
C 3430 5082 3110 4691 2822 4390 
L 2445 4653 
L 2150 4339 
C 2579 4058 3072 3661 3379 3347 
C 3226 3206 3072 3078 2931 2963 
L 1933 2944 
z
M 3258 1638 
L 3290 1670 
L 4915 1670 
C 4704 1338 4416 1043 4077 800 
C 3744 1043 3469 1325 3258 1638 
z
M 1715 4070 
C 1338 3392 723 2726 134 2285 
C 218 2189 358 1958 410 1862 
C 646 2054 896 2291 1133 2547 
L 1133 -531 
L 1587 -531 
L 1587 3085 
C 1798 3354 1984 3635 2144 3917 
L 1715 4070 
z
" transform="scale(0.015625)"/>
     <path id="NotoSansCJKjp-Regular-2eb1" d="M 1587 3917 
L 1587 3501 
L 4838 3501 
L 4838 3917 
L 1587 3917 
z
M 2355 2419 
L 4045 2419 
L 4045 1203 
L 2355 1203 
L 2355 2419 
z
M 1914 2829 
L 1914 326 
L 2355 326 
L 2355 794 
L 4493 794 
L 4493 2829 
L 1914 2829 
z
M 563 5043 
L 563 -525 
L 1030 -525 
L 1030 4589 
L 5376 4589 
L 5376 102 
C 5376 -13 5338 -51 5222 -58 
C 5114 -58 4742 -64 4339 -51 
C 4416 -173 4486 -390 4512 -518 
C 5062 -518 5389 -506 5581 -429 
C 5779 -352 5850 -198 5850 96 
L 5850 5043 
L 563 5043 
z
" transform="scale(0.015625)"/>
     <path id="NotoSansCJKjp-Regular-e6b2" d="M 1005 -685 
C 1677 -448 2112 77 2112 768 
C 2112 1216 1920 1504 1568 1504 
C 1306 1504 1082 1344 1082 1043 
C 1082 742 1299 589 1562 589 
L 1670 602 
C 1638 160 1357 -141 864 -346 
L 1005 -685 
z
" transform="scale(0.015625)"/>
     <path id="Cmmi10-3b" d="M 313 0 
Q 250 0 250 84 
Q 253 100 262 139 
Q 272 178 289 201 
Q 306 225 331 225 
Q 722 225 878 269 
Q 959 297 997 441 
L 1875 3956 
Q 1888 4019 1888 4044 
Q 1888 4113 1813 4122 
Q 1691 4147 1350 4147 
Q 1288 4147 1288 4231 
Q 1291 4247 1300 4286 
Q 1309 4325 1326 4348 
Q 1344 4372 1369 4372 
L 3669 4372 
Q 4116 4372 4450 4155 
Q 4784 3938 4962 3570 
Q 5141 3203 5141 2759 
Q 5141 2269 4937 1778 
Q 4734 1288 4368 881 
Q 4003 475 3534 237 
Q 3066 0 2572 0 
L 313 0 
z
M 1509 275 
Q 1509 225 1728 225 
L 2472 225 
Q 2828 225 3159 372 
Q 3491 519 3750 775 
Q 3991 1016 4175 1406 
Q 4359 1797 4461 2222 
Q 4563 2647 4563 3003 
Q 4563 3263 4486 3472 
Q 4409 3681 4270 3831 
Q 4131 3981 3922 4064 
Q 3713 4147 3450 4147 
L 2747 4147 
Q 2572 4147 2515 4117 
Q 2459 4088 2413 3928 
L 1538 416 
Q 1509 338 1509 275 
z
" transform="scale(0.015625)"/>
     <path id="Cmmi10-6f" d="M 300 0 
Q 238 0 238 84 
Q 241 100 250 139 
Q 259 178 276 201 
Q 294 225 319 225 
Q 709 225 863 269 
Q 947 297 984 441 
L 1863 3956 
Q 1875 4019 1875 4044 
Q 1875 4113 1797 4122 
Q 1678 4147 1338 4147 
Q 1275 4147 1275 4231 
Q 1278 4247 1287 4286 
Q 1297 4325 1314 4348 
Q 1331 4372 1356 4372 
L 4825 4372 
Q 4891 4372 4891 4288 
L 4738 2963 
Q 4738 2947 4714 2926 
Q 4691 2906 4672 2906 
L 4616 2906 
Q 4550 2906 4550 2988 
Q 4588 3300 4588 3450 
Q 4588 3706 4500 3848 
Q 4413 3991 4267 4053 
Q 4122 4116 3945 4131 
Q 3769 4147 3481 4147 
L 2753 4147 
Q 2578 4147 2522 4117 
Q 2466 4088 2419 3928 
L 2034 2381 
L 2534 2381 
Q 2859 2381 3025 2426 
Q 3191 2472 3287 2615 
Q 3384 2759 3463 3072 
Q 3469 3094 3486 3111 
Q 3503 3128 3525 3128 
L 3584 3128 
Q 3647 3128 3647 3047 
L 3250 1466 
Q 3238 1409 3188 1409 
L 3128 1409 
Q 3066 1409 3066 1491 
Q 3128 1747 3128 1869 
Q 3128 2056 2959 2106 
Q 2791 2156 2509 2156 
L 1978 2156 
L 1544 416 
Q 1516 338 1516 275 
Q 1516 225 1734 225 
L 2509 225 
Q 2972 225 3259 297 
Q 3547 369 3736 526 
Q 3925 684 4062 928 
Q 4200 1172 4397 1638 
Q 4409 1678 4453 1678 
L 4513 1678 
Q 4538 1678 4556 1656 
Q 4575 1634 4575 1606 
Q 4575 1594 4569 1581 
L 3909 38 
Q 3897 0 3859 0 
L 300 0 
z
" transform="scale(0.015625)"/>
     <path id="Cmr10-3b" d="M 178 1056 
L 178 1281 
L 2156 4231 
Q 2178 4263 2222 4263 
L 2316 4263 
Q 2388 4263 2388 4191 
L 2388 1281 
L 3016 1281 
L 3016 1056 
L 2388 1056 
L 2388 428 
Q 2388 297 2575 261 
Q 2763 225 3009 225 
L 3009 0 
L 1247 0 
L 1247 225 
Q 1494 225 1681 261 
Q 1869 297 1869 428 
L 1869 1056 
L 178 1056 
z
M 391 1281 
L 1906 1281 
L 1906 3547 
L 391 1281 
z
" transform="scale(0.015625)"/>
     <path id="Cmmi10-42" d="M 300 0 
Q 238 0 238 84 
Q 241 100 250 139 
Q 259 178 276 201 
Q 294 225 319 225 
Q 709 225 863 269 
Q 947 297 984 441 
L 1863 3956 
Q 1875 4019 1875 4044 
Q 1875 4113 1797 4122 
Q 1678 4147 1338 4147 
Q 1275 4147 1275 4231 
Q 1278 4247 1287 4286 
Q 1297 4325 1314 4348 
Q 1331 4372 1356 4372 
L 4738 4372 
Q 4800 4372 4800 4288 
L 4647 2963 
Q 4647 2944 4625 2925 
Q 4603 2906 4581 2906 
L 4525 2906 
Q 4459 2906 4459 2988 
Q 4500 3278 4500 3463 
Q 4500 3781 4362 3931 
Q 4225 4081 4015 4114 
Q 3806 4147 3438 4147 
L 2753 4147 
Q 2578 4147 2522 4117 
Q 2466 4088 2419 3928 
L 2009 2297 
L 2491 2297 
Q 2728 2297 2875 2322 
Q 3022 2347 3119 2419 
Q 3216 2491 3280 2627 
Q 3344 2763 3397 2988 
Q 3416 3047 3463 3047 
L 3519 3047 
Q 3584 3047 3584 2963 
L 3194 1381 
Q 3166 1325 3128 1325 
L 3072 1325 
Q 3009 1325 3009 1409 
Q 3025 1475 3034 1519 
Q 3044 1563 3058 1645 
Q 3072 1728 3072 1791 
Q 3072 1975 2909 2025 
Q 2747 2075 2484 2075 
L 1959 2075 
L 1544 416 
Q 1528 353 1528 353 
Q 1528 278 1575 269 
Q 1741 225 2228 225 
Q 2291 225 2291 141 
Q 2269 50 2256 25 
Q 2244 0 2181 0 
L 300 0 
z
" transform="scale(0.015625)"/>
     <path id="NotoSansCJKjp-Regular-2514" d="M 787 4755 
L 787 4269 
L 5626 4269 
L 5626 4755 
L 787 4755 
z
M 1197 2662 
L 1197 2182 
L 5126 2182 
L 5126 2662 
L 1197 2662 
z
M 416 442 
L 416 -45 
L 5978 -45 
L 5978 442 
L 416 442 
z
" transform="scale(0.015625)"/>
     <path id="NotoSansCJKjp-Regular-724a" d="M 2771 3424 
L 2771 1370 
L 4102 1370 
L 4102 909 
L 2701 909 
L 2701 525 
L 4102 525 
L 4102 19 
L 2336 19 
L 2336 -378 
L 6176 -378 
L 6176 19 
L 4563 19 
L 4563 525 
L 5958 525 
L 5958 909 
L 4563 909 
L 4563 1370 
L 5926 1370 
L 5926 3424 
L 4563 3424 
L 4563 3853 
L 6054 3853 
L 6054 4250 
L 4563 4250 
L 4563 4723 
C 5114 4774 5638 4845 6042 4934 
L 5747 5299 
C 5024 5133 3693 5030 2618 4986 
C 2662 4883 2720 4723 2733 4614 
C 3162 4627 3635 4653 4102 4685 
L 4102 4250 
L 2502 4250 
L 2502 3853 
L 4102 3853 
L 4102 3424 
L 2771 3424 
z
M 3200 2240 
L 4102 2240 
L 4102 1728 
L 3200 1728 
L 3200 2240 
z
M 4563 2240 
L 5485 2240 
L 5485 1728 
L 4563 1728 
L 4563 2240 
z
M 3200 3066 
L 4102 3066 
L 4102 2560 
L 3200 2560 
L 3200 3066 
z
M 4563 3066 
L 5485 3066 
L 5485 2560 
L 4563 2560 
L 4563 3066 
z
M 2310 5286 
C 1837 5069 992 4883 275 4762 
C 333 4659 397 4499 416 4397 
C 717 4435 1037 4493 1357 4557 
L 1357 3571 
L 314 3571 
L 314 3123 
L 1293 3123 
C 1037 2387 595 1555 179 1101 
C 262 986 378 794 429 659 
C 755 1056 1094 1690 1357 2336 
L 1357 -499 
L 1830 -499 
L 1830 2259 
C 2048 1990 2304 1645 2413 1466 
L 2701 1843 
C 2573 1990 2016 2566 1830 2726 
L 1830 3123 
L 2630 3123 
L 2630 3571 
L 1830 3571 
L 1830 4666 
C 2131 4736 2413 4819 2643 4915 
L 2310 5286 
z
" transform="scale(0.015625)"/>
     <path id="NotoSansCJKjp-Regular-45ef" d="M 973 5376 
L 973 -506 
L 1408 -506 
L 1408 5376 
L 973 5376 
z
M 467 4141 
C 429 3642 326 2931 173 2496 
L 550 2368 
C 698 2848 800 3590 826 4096 
L 467 4141 
z
M 1466 4314 
C 1600 4013 1747 3610 1805 3366 
L 2144 3533 
C 2080 3763 1926 4147 1786 4442 
L 1466 4314 
z
M 2854 1344 
L 5171 1344 
L 5171 858 
L 2854 858 
L 2854 1344 
z
M 2854 1709 
L 2854 2189 
L 5171 2189 
L 5171 1709 
L 2854 1709 
z
M 3776 5376 
L 3776 4877 
L 2138 4877 
L 2138 4506 
L 3776 4506 
L 3776 4096 
L 2291 4096 
L 2291 3744 
L 3776 3744 
L 3776 3302 
L 1946 3302 
L 1946 2931 
L 6131 2931 
L 6131 3302 
L 4250 3302 
L 4250 3744 
L 5779 3744 
L 5779 4096 
L 4250 4096 
L 4250 4506 
L 5939 4506 
L 5939 4877 
L 4250 4877 
L 4250 5376 
L 3776 5376 
z
M 2406 2560 
L 2406 -506 
L 2854 -506 
L 2854 493 
L 5171 493 
L 5171 32 
C 5171 -45 5139 -70 5056 -77 
C 4966 -83 4659 -83 4333 -70 
C 4390 -186 4454 -365 4474 -486 
C 4928 -486 5216 -486 5395 -410 
C 5574 -339 5626 -211 5626 26 
L 5626 2560 
L 2406 2560 
z
" transform="scale(0.015625)"/>
     <path id="NotoSansCJKjp-Regular-5ab2" d="M 653 4979 
C 1082 4806 1594 4531 1843 4314 
L 2125 4710 
C 1862 4928 1331 5184 922 5331 
L 653 4979 
z
M 250 3194 
C 704 3034 1261 2771 1536 2560 
L 1798 2976 
C 1510 3174 941 3424 499 3558 
L 250 3194 
z
M 493 -134 
L 902 -442 
C 1306 173 1786 1005 2157 1702 
L 1805 2003 
C 1408 1248 864 371 493 -134 
z
M 2925 4634 
L 5299 4634 
L 5299 2918 
L 2925 2918 
L 2925 4634 
z
M 2451 5082 
L 2451 2464 
L 3136 2464 
C 3072 1146 2893 320 1709 -128 
C 1811 -218 1952 -403 2003 -518 
C 3296 13 3533 973 3610 2464 
L 4352 2464 
L 4352 198 
C 4352 -301 4474 -454 4954 -454 
C 5043 -454 5478 -454 5581 -454 
C 6010 -454 6131 -198 6176 749 
C 6042 781 5850 864 5747 941 
C 5728 115 5702 -26 5536 -26 
C 5446 -26 5094 -26 5024 -26 
C 4858 -26 4832 6 4832 205 
L 4832 2464 
L 5786 2464 
L 5786 5082 
L 2451 5082 
z
" transform="scale(0.015625)"/>
    </defs>
    <use xlink:href="#NotoSansCJKjp-Regular-33a8" transform="translate(0 0.27613)"/>
    <use xlink:href="#NotoSansCJKjp-Regular-6c33" transform="translate(99.999908 0.27613)"/>
    <use xlink:href="#NotoSansCJKjp-Regular-2509" transform="translate(199.999817 0.27613)"/>
    <use xlink:href="#NotoSansCJKjp-Regular-8297" transform="translate(299.999725 0.27613)"/>
    <use xlink:href="#NotoSansCJKjp-Regular-430b" transform="translate(399.999634 0.27613)"/>
    <use xlink:href="#NotoSansCJKjp-Regular-9fe5" transform="translate(499.999542 0.27613)"/>
    <use xlink:href="#NotoSansCJKjp-Regular-4ea0" transform="translate(599.999451 0.27613)"/>
    <use xlink:href="#NotoSansCJKjp-Regular-43f2" transform="translate(699.999359 0.27613)"/>
    <use xlink:href="#NotoSansCJKjp-Regular-e6c0" transform="translate(799.999268 0.27613)"/>
    <use xlink:href="#NotoSansCJKjp-Regular-2eb1" transform="translate(899.999176 0.27613)"/>
    <use xlink:href="#NotoSansCJKjp-Regular-2509" transform="translate(999.999084 0.27613)"/>
    <use xlink:href="#NotoSansCJKjp-Regular-33a8" transform="translate(1099.998993 0.27613)"/>
    <use xlink:href="#NotoSansCJKjp-Regular-444f" transform="translate(1199.998901 0.27613)"/>
    <use xlink:href="#NotoSansCJKjp-Regular-e6b2" transform="translate(1299.99881 0.27613)"/>
    <use xlink:href="#NotoSansCJKjp-Regular-2e93" transform="translate(1399.998718 0.27613)"/>
    <use xlink:href="#NotoSansCJKjp-Regular-9e93" transform="translate(1499.998627 0.27613)"/>
    <use xlink:href="#NotoSansCJKjp-Regular-417b" transform="translate(1599.998535 0.27613)"/>
    <use xlink:href="#NotoSansCJKjp-Regular-4e26" transform="translate(1699.998444 0.27613)"/>
    <use xlink:href="#NotoSansCJKjp-Regular-1" transform="translate(1799.998352 0.27613)"/>
    <use xlink:href="#Cmmi10-3e" transform="translate(1822.398331 0.27613)"/>
    <use xlink:href="#Cmr10-28" transform="translate(1874.400284 -14.723832) scale(0.7)"/>
    <use xlink:href="#Cmr10-29" transform="translate(1935.120757 0.27613)"/>
    <use xlink:href="#Cmmi10-3b" transform="translate(2039.056361 40.458942) scale(0.7)"/>
    <use xlink:href="#Cmr10-31" transform="translate(2108.385254 69.361406) scale(0.49)"/>
    <use xlink:href="#Cmr10-4c" transform="translate(2150.889584 40.458942) scale(0.7)"/>
    <use xlink:href="#Cmmi10-6f" transform="translate(2219.269507 40.458942) scale(0.7)"/>
    <use xlink:href="#Cmr10-31" transform="translate(2282.343517 69.361406) scale(0.49)"/>
    <use xlink:href="#Cmr10-3b" transform="translate(2157.056361 -30.725433) scale(0.7)"/>
    <use xlink:href="#Cmsy10-11" transform="translate(2337.097865 0.27613)"/>
    <use xlink:href="#Cmmi10-42" transform="translate(2434.78347 0.27613)"/>
    <use xlink:href="#NotoSansCJKjp-Regular-1" transform="translate(2499.09011 0.27613)"/>
    <use xlink:href="#NotoSansCJKjp-Regular-6c33" transform="translate(2521.490089 0.27613)"/>
    <use xlink:href="#NotoSansCJKjp-Regular-2514" transform="translate(2621.489997 0.27613)"/>
    <use xlink:href="#NotoSansCJKjp-Regular-724a" transform="translate(2721.489906 0.27613)"/>
    <use xlink:href="#NotoSansCJKjp-Regular-45ef" transform="translate(2821.489814 0.27613)"/>
    <use xlink:href="#NotoSansCJKjp-Regular-5ab2" transform="translate(2921.489723 0.27613)"/>
    <path d="M 2039.056361 22.15113 
L 2039.056361 28.40113 
L 2310.847808 28.40113 
L 2310.847808 22.15113 
L 2039.056361 22.15113 
z
"/>
   </g>
  </g>
 </g>
 <defs>
  <clipPath id="p9eaf2b377a">
   <rect x="7.2" y="59.256" width="256.32" height="256.32"/>
  </clipPath>
  <clipPath id="p6c477eefed">
   <rect x="276.48" y="59.256" width="256.32" height="256.32"/>
  </clipPath>
  <clipPath id="p03abe0f756">
   <rect x="545.76" y="59.256" width="256.32" height="256.32"/>
  </clipPath>
 </defs>
</svg>
