<?xml version="1.0" encoding="utf-8" standalone="no"?>
<!DOCTYPE svg PUBLIC "-//W3C//DTD SVG 1.1//EN"
  "http://www.w3.org/Graphics/SVG/1.1/DTD/svg11.dtd">
<svg xmlns:xlink="http://www.w3.org/1999/xlink" width="447.05pt" height="365.36pt" viewBox="0 0 447.05 365.36" xmlns="http://www.w3.org/2000/svg" version="1.1">
 <metadata>
  <rdf:RDF xmlns:dc="http://purl.org/dc/elements/1.1/" xmlns:cc="http://creativecommons.org/ns#" xmlns:rdf="http://www.w3.org/1999/02/22-rdf-syntax-ns#">
   <cc:Work>
    <dc:type rdf:resource="http://purl.org/dc/dcmitype/StillImage"/>
    <dc:date>2026-06-18T00:34:15.848612</dc:date>
    <dc:format>image/svg+xml</dc:format>
    <dc:creator>
     <cc:Agent>
      <dc:title>Matplotlib v3.11.0, https://matplotlib.org/</dc:title>
     </cc:Agent>
    </dc:creator>
   </cc:Work>
  </rdf:RDF>
 </metadata>
 <defs>
  <style type="text/css">*{stroke-linejoin: round; stroke-linecap: butt}</style>
 </defs>
 <g id="figure_1">
  <g id="patch_1">
   <path d="M -0 365.36 
L 447.05 365.36 
L 447.05 -0 
L -0 -0 
z
" style="fill: #ffffff"/>
  </g>
  <g id="axes_1">
   <g id="line2d_1">
    <path d="M 61.575 358.16 
L 394.215 25.52 
" clip-path="url(#p420ba31e9e)" style="fill: none; stroke-dasharray: 5.92,2.56; stroke-dashoffset: 0; stroke: #d8dde3; stroke-width: 1.6"/>
   </g>
   <g id="line2d_2">
    <path d="M 352.635 108.68 
L 352.635 275 
" clip-path="url(#p420ba31e9e)" style="fill: none; stroke-dasharray: 1.1,1.815; stroke-dashoffset: 0; stroke: #d1242f; stroke-width: 1.1"/>
   </g>
   <g id="line2d_3">
    <path d="M 352.635 108.68 
L 103.155 108.68 
" clip-path="url(#p420ba31e9e)" style="fill: none; stroke-dasharray: 1.1,1.815; stroke-dashoffset: 0; stroke: #1f6feb; stroke-width: 1.1"/>
   </g>
   <g id="line2d_4">
    <path d="M 352.635 108.68 
L 311.055 67.1 
" clip-path="url(#p420ba31e9e)" style="fill: none; stroke-dasharray: 1.1,1.815; stroke-dashoffset: 0; stroke: #1a7f37; stroke-width: 1.1"/>
   </g>
   <g id="line2d_5">
    <path d="M 352.635 108.68 
L 103.155 275 
" clip-path="url(#p420ba31e9e)" style="fill: none; stroke-dasharray: 1.1,1.815; stroke-dashoffset: 0; stroke: #8250df; stroke-width: 1.1"/>
   </g>
   <g id="patch_2">
    <path d="M 63.577357 191.84 
Q 227.895982 191.84 390.537555 191.84 
" style="fill: none; stroke: #222831; stroke-width: 1.5; stroke-linecap: round"/>
    <path d="M 385.737555 189.44 
L 390.537555 191.84 
L 385.737555 194.24 
z
" style="fill: #222831; stroke: #222831; stroke-width: 1.5; stroke-linecap: round"/>
   </g>
   <g id="patch_3">
    <path d="M 227.895 356.157643 
Q 227.895 191.839018 227.895 29.197445 
" style="fill: none; stroke: #222831; stroke-width: 1.5; stroke-linecap: round"/>
    <path d="M 225.495 33.997445 
L 227.895 29.197445 
L 230.295 33.997445 
z
" style="fill: #222831; stroke: #222831; stroke-width: 1.5; stroke-linecap: round"/>
   </g>
   <g id="text_1">
    <!-- $x$ -->
    <g style="fill: #222831" transform="translate(381.018 206.393) scale(0.12 -0.12)">
     <defs>
      <path id="Cmmi10-3f" d="M 500 184 
Q 613 97 819 97 
Q 1019 97 1172 289 
Q 1325 481 1381 709 
L 1672 1844 
Q 1741 2153 1741 2266 
Q 1741 2425 1652 2544 
Q 1563 2663 1403 2663 
Q 1200 2663 1022 2536 
Q 844 2409 722 2214 
Q 600 2019 550 1819 
Q 538 1778 500 1778 
L 422 1778 
Q 372 1778 372 1838 
L 372 1856 
Q 434 2094 584 2320 
Q 734 2547 951 2687 
Q 1169 2828 1416 2828 
Q 1650 2828 1839 2703 
Q 2028 2578 2106 2363 
Q 2216 2559 2386 2693 
Q 2556 2828 2759 2828 
Q 2897 2828 3040 2779 
Q 3184 2731 3275 2631 
Q 3366 2531 3366 2381 
Q 3366 2219 3261 2101 
Q 3156 1984 2994 1984 
Q 2891 1984 2822 2050 
Q 2753 2116 2753 2216 
Q 2753 2350 2845 2451 
Q 2938 2553 3066 2572 
Q 2950 2663 2747 2663 
Q 2541 2663 2389 2472 
Q 2238 2281 2175 2047 
L 1894 916 
Q 1825 659 1825 494 
Q 1825 331 1917 214 
Q 2009 97 2163 97 
Q 2463 97 2698 361 
Q 2934 625 3009 941 
Q 3022 978 3059 978 
L 3138 978 
Q 3163 978 3178 961 
Q 3194 944 3194 922 
Q 3194 916 3188 903 
Q 3097 522 2806 225 
Q 2516 -72 2150 -72 
Q 1916 -72 1727 54 
Q 1538 181 1459 397 
Q 1359 209 1182 68 
Q 1006 -72 806 -72 
Q 669 -72 523 -23 
Q 378 25 287 125 
Q 197 225 197 378 
Q 197 528 301 651 
Q 406 775 563 775 
Q 669 775 741 711 
Q 813 647 813 544 
Q 813 409 723 309 
Q 634 209 500 184 
z
" transform="scale(0.015625)"/>
     </defs>
     <use xlink:href="#Cmmi10-3f" transform="translate(0 0.8125)"/>
    </g>
   </g>
   <g id="text_2">
    <!-- $y$ -->
    <g style="fill: #222831" transform="translate(235.3794 42.317) scale(0.12 -0.12)">
     <defs>
      <path id="Cmmi10-72" d="M 538 -916 
Q 672 -1147 1006 -1147 
Q 1309 -1147 1531 -934 
Q 1753 -722 1889 -420 
Q 2025 -119 2100 197 
Q 1816 -72 1484 -72 
Q 1231 -72 1053 15 
Q 875 103 776 276 
Q 678 450 678 697 
Q 678 906 734 1126 
Q 791 1347 892 1617 
Q 994 1888 1069 2088 
Q 1153 2322 1153 2472 
Q 1153 2663 1013 2663 
Q 759 2663 595 2402 
Q 431 2141 353 1819 
Q 341 1778 300 1778 
L 225 1778 
Q 172 1778 172 1838 
L 172 1856 
Q 275 2238 487 2533 
Q 700 2828 1025 2828 
Q 1253 2828 1411 2678 
Q 1569 2528 1569 2297 
Q 1569 2178 1516 2047 
Q 1488 1969 1388 1706 
Q 1288 1444 1234 1272 
Q 1181 1100 1147 934 
Q 1113 769 1113 603 
Q 1113 391 1203 244 
Q 1294 97 1491 97 
Q 1888 97 2203 581 
L 2688 2553 
Q 2709 2638 2787 2698 
Q 2866 2759 2956 2759 
Q 3034 2759 3092 2709 
Q 3150 2659 3150 2578 
Q 3150 2541 3144 2528 
L 2509 -19 
Q 2425 -347 2200 -647 
Q 1975 -947 1658 -1130 
Q 1341 -1313 997 -1313 
Q 831 -1313 668 -1248 
Q 506 -1184 406 -1056 
Q 306 -928 306 -756 
Q 306 -581 409 -453 
Q 513 -325 684 -325 
Q 788 -325 858 -389 
Q 928 -453 928 -556 
Q 928 -703 818 -812 
Q 709 -922 563 -922 
Q 556 -919 550 -917 
Q 544 -916 538 -916 
z
" transform="scale(0.015625)"/>
     </defs>
     <use xlink:href="#Cmmi10-72" transform="translate(0 0.8125)"/>
    </g>
   </g>
   <g id="text_3">
    <!-- $y=x$ -->
    <g style="fill: #9aa0a6" transform="translate(365.109 44.231) scale(0.11 -0.11)">
     <defs>
      <path id="Cmr10-29" d="M 481 850 
Q 428 850 393 890 
Q 359 931 359 978 
Q 359 1031 393 1068 
Q 428 1106 481 1106 
L 4500 1106 
Q 4547 1106 4581 1068 
Q 4616 1031 4616 978 
Q 4616 931 4581 890 
Q 4547 850 4500 850 
L 481 850 
z
M 481 2094 
Q 428 2094 393 2131 
Q 359 2169 359 2222 
Q 359 2269 393 2309 
Q 428 2350 481 2350 
L 4500 2350 
Q 4547 2350 4581 2309 
Q 4616 2269 4616 2222 
Q 4616 2169 4581 2131 
Q 4547 2094 4500 2094 
L 481 2094 
z
" transform="scale(0.015625)"/>
     </defs>
     <use xlink:href="#Cmmi10-72" transform="translate(0 0.8125)"/>
     <use xlink:href="#Cmr10-29" transform="translate(69.023495 0.8125)"/>
     <use xlink:href="#Cmmi10-3f" transform="translate(166.709099 0.8125)"/>
    </g>
   </g>
   <g id="text_4">
    <!-- 一點對各軸／原點／直線 $y=x$ 的對稱 -->
    <g style="fill: #222831" transform="translate(111.065 19.52) scale(0.14 -0.14)">
     <defs>
      <path id="NotoSansCJKjp-Regular-2509" d="M 282 2758 
L 282 2234 
L 6144 2234 
L 6144 2758 
L 282 2758 
z
" transform="scale(0.015625)"/>
      <path id="NotoSansCJKjp-Regular-b7c4" d="M 966 4474 
C 1069 4166 1152 3757 1165 3494 
L 1421 3565 
C 1402 3821 1312 4230 1203 4538 
L 966 4474 
z
M 1178 813 
C 1267 454 1338 0 1331 -307 
L 1664 -262 
C 1664 38 1594 499 1498 851 
L 1178 813 
z
M 1792 851 
C 1939 518 2067 90 2106 -192 
L 2432 -115 
C 2387 166 2246 589 2099 915 
L 1792 851 
z
M 2406 934 
C 2618 634 2848 224 2938 -45 
L 3258 96 
C 3162 365 2931 762 2701 1056 
L 2406 934 
z
M 634 838 
C 582 390 454 -70 205 -333 
L 538 -512 
C 806 -224 915 269 973 742 
L 634 838 
z
M 2272 4557 
C 2214 4262 2086 3808 1997 3533 
L 2202 3456 
C 2317 3706 2445 4122 2554 4454 
L 2272 4557 
z
M 4314 5363 
L 4314 2330 
L 3379 2330 
L 3379 -506 
L 3827 -506 
L 3827 -211 
L 5440 -211 
L 5440 -480 
L 5901 -480 
L 5901 2330 
L 4781 2330 
L 4781 3526 
L 6150 3526 
L 6150 3974 
L 4781 3974 
L 4781 5363 
L 4314 5363 
z
M 3827 237 
L 3827 1894 
L 5440 1894 
L 5440 237 
L 3827 237 
z
M 877 4794 
L 1568 4794 
L 1568 3245 
L 877 3245 
L 877 4794 
z
M 1894 4794 
L 2637 4794 
L 2637 3245 
L 1894 3245 
L 1894 4794 
z
M 448 2451 
L 448 2067 
L 1517 2067 
L 1517 1568 
L 314 1510 
L 333 1088 
C 1075 1133 2138 1203 3155 1274 
L 3168 1658 
L 1946 1594 
L 1946 2067 
L 3072 2067 
L 3072 2451 
L 1946 2451 
L 1946 2893 
L 3027 2893 
L 3027 5146 
L 493 5146 
L 493 2893 
L 1517 2893 
L 1517 2451 
L 448 2451 
z
" transform="scale(0.015625)"/>
      <path id="NotoSansCJKjp-Regular-3d73" d="M 3693 2554 
C 3955 2086 4192 1472 4256 1082 
L 4691 1242 
C 4627 1632 4371 2234 4102 2694 
L 3693 2554 
z
M 339 5037 
C 531 4730 717 4320 781 4058 
L 1152 4230 
C 1088 4493 890 4890 685 5190 
L 339 5037 
z
M 3168 5222 
C 3053 4922 2829 4467 2662 4192 
L 2989 4045 
C 3174 4307 3398 4710 3590 5056 
L 3168 5222 
z
M 294 224 
L 358 -230 
C 1184 -122 2387 45 3514 205 
L 3501 627 
L 2138 448 
L 2138 1152 
L 3194 1152 
L 3194 1555 
L 2138 1555 
L 2138 2208 
L 3328 2208 
L 3328 2618 
L 2643 2618 
C 2778 2842 2925 3181 3066 3482 
L 2637 3603 
L 3494 3603 
L 3494 3206 
L 5005 3206 
L 5005 83 
C 5005 -32 4960 -64 4845 -70 
C 4749 -70 4397 -77 4006 -64 
C 4077 -192 4154 -397 4179 -518 
C 4704 -518 5011 -506 5203 -429 
C 5389 -352 5466 -218 5466 83 
L 5466 3206 
L 6150 3206 
L 6150 3654 
L 5466 3654 
L 5466 5338 
L 5005 5338 
L 5005 3654 
L 3558 3654 
L 3558 4013 
L 2554 4013 
L 2554 5344 
L 2157 5344 
L 2157 4013 
L 1670 4013 
L 1670 5344 
L 1274 5344 
L 1274 4013 
L 269 4013 
L 269 3603 
L 2618 3603 
C 2547 3334 2381 2957 2259 2714 
L 2592 2618 
L 1184 2618 
L 1542 2746 
C 1498 2976 1350 3328 1184 3597 
L 800 3469 
C 954 3200 1088 2848 1126 2618 
L 506 2618 
L 506 2208 
L 1690 2208 
L 1690 1555 
L 672 1555 
L 672 1152 
L 1690 1152 
L 1690 390 
L 294 224 
z
" transform="scale(0.015625)"/>
      <path id="NotoSansCJKjp-Regular-2ea8" d="M 1299 1779 
L 1299 -538 
L 1779 -538 
L 1779 -237 
L 4589 -237 
L 4589 -518 
L 5094 -518 
L 5094 1779 
L 1299 1779 
z
M 1779 192 
L 1779 1338 
L 4589 1338 
L 4589 192 
L 1779 192 
z
M 2394 5427 
C 1939 4640 1165 3923 358 3475 
C 467 3398 646 3213 723 3123 
C 1069 3341 1421 3610 1747 3923 
C 2048 3578 2406 3264 2797 2982 
C 1978 2541 1037 2214 186 2042 
C 269 1939 378 1741 422 1613 
C 1350 1824 2355 2189 3238 2694 
C 4032 2208 4947 1850 5888 1638 
C 5958 1766 6093 1971 6202 2074 
C 5312 2246 4435 2560 3680 2970 
C 4326 3398 4877 3917 5254 4512 
L 4922 4730 
L 4838 4704 
L 2464 4704 
C 2605 4883 2739 5075 2854 5267 
L 2394 5427 
z
M 2054 4224 
L 2106 4282 
L 4480 4282 
C 4160 3891 3725 3546 3232 3238 
C 2771 3533 2368 3866 2054 4224 
z
" transform="scale(0.015625)"/>
      <path id="NotoSansCJKjp-Regular-9b28" d="M 3597 1773 
L 4326 1773 
L 4326 282 
L 3597 282 
L 3597 1773 
z
M 3597 2202 
L 3597 3578 
L 4326 3578 
L 4326 2202 
L 3597 2202 
z
M 5530 1773 
L 5530 282 
L 4749 282 
L 4749 1773 
L 5530 1773 
z
M 5530 2202 
L 4749 2202 
L 4749 3578 
L 5530 3578 
L 5530 2202 
z
M 4314 5376 
L 4314 4013 
L 3174 4013 
L 3174 -512 
L 3597 -512 
L 3597 -154 
L 5530 -154 
L 5530 -474 
L 5965 -474 
L 5965 4013 
L 4762 4013 
L 4762 5376 
L 4314 5376 
z
M 493 3782 
L 493 1555 
L 1434 1555 
L 1434 1030 
L 250 1030 
L 250 608 
L 1434 608 
L 1434 -518 
L 1869 -518 
L 1869 608 
L 3046 608 
L 3046 1030 
L 1869 1030 
L 1869 1555 
L 2848 1555 
L 2848 3782 
L 1869 3782 
L 1869 4256 
L 2970 4256 
L 2970 4678 
L 1869 4678 
L 1869 5376 
L 1434 5376 
L 1434 4678 
L 320 4678 
L 320 4256 
L 1434 4256 
L 1434 3782 
L 493 3782 
z
M 864 2502 
L 1478 2502 
L 1478 1914 
L 864 1914 
L 864 2502 
z
M 1830 2502 
L 2470 2502 
L 2470 1914 
L 1830 1914 
L 1830 2502 
z
M 864 3424 
L 1478 3424 
L 1478 2848 
L 864 2848 
L 864 3424 
z
M 1830 3424 
L 2470 3424 
L 2470 2848 
L 1830 2848 
L 1830 3424 
z
" transform="scale(0.015625)"/>
      <path id="NotoSansCJKjp-Regular-e6b5" d="M 5990 5414 
L 218 -358 
L 410 -550 
L 6182 5222 
L 5990 5414 
z
" transform="scale(0.015625)"/>
      <path id="NotoSansCJKjp-Regular-2e09" d="M 2362 2624 
L 5024 2624 
L 5024 2029 
L 2362 2029 
L 2362 2624 
z
M 2362 3571 
L 5024 3571 
L 5024 2989 
L 2362 2989 
L 2362 3571 
z
M 4474 1107 
C 4954 723 5510 166 5754 -211 
L 6150 51 
C 5888 435 5325 966 4838 1338 
L 4474 1107 
z
M 2374 1318 
C 2080 838 1606 352 1126 45 
C 1242 -26 1434 -160 1523 -237 
C 1990 109 2496 646 2835 1184 
L 2374 1318 
z
M 1888 3955 
L 1888 1645 
L 3450 1645 
L 3450 13 
C 3450 -64 3424 -90 3328 -96 
C 3232 -96 2899 -96 2522 -90 
C 2586 -211 2650 -390 2669 -512 
C 3168 -512 3482 -512 3674 -442 
C 3866 -371 3917 -243 3917 6 
L 3917 1645 
L 5510 1645 
L 5510 3955 
L 3750 3955 
C 3814 4147 3885 4365 3949 4576 
L 6035 4576 
L 6035 5024 
L 838 5024 
L 838 3168 
C 838 2163 787 749 224 -256 
C 339 -301 550 -422 640 -499 
C 1229 550 1312 2106 1312 3168 
L 1312 4576 
L 3386 4576 
C 3347 4390 3296 4154 3238 3955 
L 1888 3955 
z
" transform="scale(0.015625)"/>
      <path id="NotoSansCJKjp-Regular-6ce1" d="M 2374 2586 
L 4832 2586 
L 4832 2061 
L 2374 2061 
L 2374 2586 
z
M 2374 1715 
L 4832 1715 
L 4832 1178 
L 2374 1178 
L 2374 1715 
z
M 2374 3456 
L 4832 3456 
L 4832 2931 
L 2374 2931 
L 2374 3456 
z
M 736 3635 
L 736 -518 
L 1203 -518 
L 1203 -179 
L 6080 -179 
L 6080 269 
L 1203 269 
L 1203 3635 
L 736 3635 
z
M 3053 5395 
L 3008 4787 
L 397 4787 
L 397 4339 
L 2963 4339 
L 2899 3814 
L 1914 3814 
L 1914 813 
L 5306 813 
L 5306 3814 
L 3379 3814 
L 3469 4339 
L 6029 4339 
L 6029 4787 
L 3533 4787 
L 3603 5363 
L 3053 5395 
z
" transform="scale(0.015625)"/>
      <path id="NotoSansCJKjp-Regular-7a17" d="M 3258 3405 
L 5414 3405 
L 5414 2848 
L 3258 2848 
L 3258 3405 
z
M 3258 4326 
L 5414 4326 
L 5414 3770 
L 3258 3770 
L 3258 4326 
z
M 1894 1632 
C 2048 1267 2182 781 2208 474 
L 2586 589 
C 2541 902 2406 1370 2246 1734 
L 1894 1632 
z
M 570 1715 
C 493 1158 378 582 166 192 
C 269 154 454 70 538 13 
C 736 422 890 1043 973 1651 
L 570 1715 
z
M 2816 4717 
L 2816 2451 
L 4109 2451 
L 4109 6 
C 4109 -64 4090 -83 4006 -90 
C 3930 -90 3674 -90 3386 -83 
C 3443 -211 3501 -384 3520 -506 
C 3917 -506 4173 -499 4339 -435 
C 4506 -358 4544 -237 4544 6 
L 4544 1325 
C 4819 717 5254 109 5952 -250 
C 6016 -128 6157 51 6246 141 
C 5754 358 5382 698 5114 1088 
C 5427 1306 5798 1613 6106 1894 
L 5715 2176 
C 5523 1946 5203 1645 4922 1408 
C 4742 1734 4627 2074 4544 2400 
L 4544 2451 
L 5875 2451 
L 5875 4717 
L 4365 4717 
C 4467 4890 4570 5088 4659 5280 
L 4128 5382 
C 4077 5190 3968 4934 3872 4717 
L 2816 4717 
z
M 2573 1901 
L 2573 1491 
L 3443 1491 
C 3219 826 2803 352 2291 77 
C 2381 13 2534 -154 2592 -250 
C 3226 115 3738 787 3962 1805 
L 3699 1914 
L 3622 1901 
L 2573 1901 
z
M 179 2547 
L 237 2118 
L 1248 2182 
L 1248 -512 
L 1670 -512 
L 1670 2208 
L 2176 2240 
C 2234 2086 2285 1946 2310 1824 
L 2694 2003 
C 2598 2349 2342 2906 2074 3322 
L 1722 3181 
C 1824 3014 1920 2829 2010 2637 
L 1088 2592 
C 1517 3136 2010 3866 2374 4454 
L 1971 4646 
C 1792 4301 1549 3878 1286 3475 
C 1190 3610 1075 3750 941 3898 
C 1178 4256 1459 4781 1677 5216 
L 1254 5376 
C 1120 5018 890 4531 685 4166 
L 486 4346 
L 237 4038 
C 525 3763 845 3398 1037 3104 
C 896 2912 762 2726 634 2566 
L 179 2547 
z
" transform="scale(0.015625)"/>
      <path id="NotoSansCJKjp-Regular-1" transform="scale(0.015625)"/>
      <path id="NotoSansCJKjp-Regular-6c33" d="M 3533 2707 
C 3885 2240 4320 1600 4512 1210 
L 4922 1466 
C 4710 1843 4269 2464 3904 2918 
L 3533 2707 
z
M 1536 5389 
C 1485 5082 1376 4659 1274 4346 
L 557 4346 
L 557 -346 
L 998 -346 
L 998 160 
L 2784 160 
L 2784 4346 
L 1715 4346 
C 1824 4621 1946 4979 2054 5299 
L 1536 5389 
z
M 998 3917 
L 2342 3917 
L 2342 2566 
L 998 2566 
L 998 3917 
z
M 998 595 
L 998 2144 
L 2342 2144 
L 2342 595 
L 998 595 
z
M 3827 5402 
C 3622 4518 3277 3635 2835 3066 
C 2950 3002 3149 2867 3238 2790 
C 3456 3098 3661 3488 3840 3923 
L 5478 3923 
C 5402 1357 5299 371 5094 154 
C 5018 64 4947 45 4819 45 
C 4672 45 4288 51 3866 83 
C 3955 -38 4013 -243 4026 -378 
C 4384 -397 4762 -410 4979 -390 
C 5210 -365 5350 -314 5498 -122 
C 5754 192 5843 1184 5939 4122 
C 5946 4186 5946 4365 5946 4365 
L 4013 4365 
C 4115 4666 4211 4986 4288 5299 
L 3827 5402 
z
" transform="scale(0.015625)"/>
      <path id="NotoSansCJKjp-Regular-7251" d="M 3885 4454 
C 4019 4173 4134 3795 4160 3558 
L 4582 3674 
C 4550 3923 4435 4282 4288 4557 
L 3885 4454 
z
M 5088 4582 
C 5350 4205 5626 3686 5741 3347 
L 6157 3533 
C 6035 3866 5754 4365 5478 4742 
L 5088 4582 
z
M 4058 1760 
L 4058 1152 
L 3219 1152 
L 3219 1760 
L 4058 1760 
z
M 4058 2138 
L 3219 2138 
L 3219 2733 
L 4058 2733 
L 4058 2138 
z
M 4499 1760 
L 5402 1760 
L 5402 1152 
L 4499 1152 
L 4499 1760 
z
M 4499 2138 
L 4499 2733 
L 5402 2733 
L 5402 2138 
L 4499 2138 
z
M 2771 3123 
L 2771 1152 
L 2317 1152 
L 2317 742 
L 2771 742 
L 2771 -506 
L 3219 -506 
L 3219 742 
L 5402 742 
L 5402 13 
C 5402 -64 5370 -90 5293 -96 
C 5210 -96 4934 -96 4634 -83 
C 4698 -205 4774 -390 4800 -512 
C 5203 -512 5466 -506 5632 -429 
C 5798 -358 5850 -230 5850 6 
L 5850 742 
L 6208 742 
L 6208 1152 
L 5850 1152 
L 5850 3123 
L 4499 3123 
L 4499 3539 
L 4058 3539 
L 4058 3123 
L 2771 3123 
z
M 2112 5235 
C 1690 5030 922 4851 256 4730 
C 307 4640 371 4480 397 4378 
C 659 4416 941 4467 1222 4525 
L 1222 3526 
L 288 3526 
L 288 3085 
L 1152 3085 
C 934 2355 563 1517 211 1050 
C 288 934 403 749 454 614 
C 730 998 1005 1613 1222 2234 
L 1222 -525 
L 1677 -525 
L 1677 2304 
C 1882 2042 2125 1709 2227 1536 
L 2509 1901 
C 2387 2048 1850 2611 1677 2765 
L 1677 3085 
L 2464 3085 
L 2464 3469 
C 2579 3411 2707 3334 2778 3290 
C 3008 3616 3226 4090 3386 4589 
C 4179 4659 5075 4781 5715 4941 
L 5357 5286 
C 4890 5158 4115 5043 3392 4966 
L 3021 5037 
C 2886 4474 2656 3910 2355 3526 
L 1677 3526 
L 1677 4634 
C 1971 4710 2246 4800 2477 4896 
L 2112 5235 
z
" transform="scale(0.015625)"/>
     </defs>
     <use xlink:href="#NotoSansCJKjp-Regular-2509" transform="translate(0 0.203125)"/>
     <use xlink:href="#NotoSansCJKjp-Regular-b7c4" transform="translate(99.999908 0.203125)"/>
     <use xlink:href="#NotoSansCJKjp-Regular-3d73" transform="translate(199.999817 0.203125)"/>
     <use xlink:href="#NotoSansCJKjp-Regular-2ea8" transform="translate(299.999725 0.203125)"/>
     <use xlink:href="#NotoSansCJKjp-Regular-9b28" transform="translate(399.999634 0.203125)"/>
     <use xlink:href="#NotoSansCJKjp-Regular-e6b5" transform="translate(499.999542 0.203125)"/>
     <use xlink:href="#NotoSansCJKjp-Regular-2e09" transform="translate(599.999451 0.203125)"/>
     <use xlink:href="#NotoSansCJKjp-Regular-b7c4" transform="translate(699.999359 0.203125)"/>
     <use xlink:href="#NotoSansCJKjp-Regular-e6b5" transform="translate(799.999268 0.203125)"/>
     <use xlink:href="#NotoSansCJKjp-Regular-6ce1" transform="translate(899.999176 0.203125)"/>
     <use xlink:href="#NotoSansCJKjp-Regular-7a17" transform="translate(999.999084 0.203125)"/>
     <use xlink:href="#NotoSansCJKjp-Regular-1" transform="translate(1099.998993 0.203125)"/>
     <use xlink:href="#Cmmi10-72" transform="translate(1122.398972 0.203125)"/>
     <use xlink:href="#Cmr10-29" transform="translate(1191.422466 0.203125)"/>
     <use xlink:href="#Cmmi10-3f" transform="translate(1289.10807 0.203125)"/>
     <use xlink:href="#NotoSansCJKjp-Regular-1" transform="translate(1346.188148 0.203125)"/>
     <use xlink:href="#NotoSansCJKjp-Regular-6c33" transform="translate(1368.588127 0.203125)"/>
     <use xlink:href="#NotoSansCJKjp-Regular-3d73" transform="translate(1468.588036 0.203125)"/>
     <use xlink:href="#NotoSansCJKjp-Regular-7251" transform="translate(1568.587944 0.203125)"/>
    </g>
   </g>
   <g id="patch_4">
    <path d="M 352.635 112.838 
C 353.737714 112.838 354.795413 112.399887 355.57515 111.62015 
C 356.354887 110.840413 356.793 109.782714 356.793 108.68 
C 356.793 107.577286 356.354887 106.519587 355.57515 105.73985 
C 354.795413 104.960113 353.737714 104.522 352.635 104.522 
C 351.532286 104.522 350.474587 104.960113 349.69485 105.73985 
C 348.915113 106.519587 348.477 107.577286 348.477 108.68 
C 348.477 109.782714 348.915113 110.840413 349.69485 111.62015 
C 350.474587 112.399887 351.532286 112.838 352.635 112.838 
z
" clip-path="url(#p420ba31e9e)" style="fill: #222831; stroke: #222831; stroke-linejoin: miter"/>
   </g>
   <g id="patch_5">
    <path d="M 352.635 279.158 
C 353.737714 279.158 354.795413 278.719887 355.57515 277.94015 
C 356.354887 277.160413 356.793 276.102714 356.793 275 
C 356.793 273.897286 356.354887 272.839587 355.57515 272.05985 
C 354.795413 271.280113 353.737714 270.842 352.635 270.842 
C 351.532286 270.842 350.474587 271.280113 349.69485 272.05985 
C 348.915113 272.839587 348.477 273.897286 348.477 275 
C 348.477 276.102714 348.915113 277.160413 349.69485 277.94015 
C 350.474587 278.719887 351.532286 279.158 352.635 279.158 
z
" clip-path="url(#p420ba31e9e)" style="fill: #d1242f; stroke: #d1242f; stroke-linejoin: miter"/>
   </g>
   <g id="patch_6">
    <path d="M 103.155 112.838 
C 104.257714 112.838 105.315413 112.399887 106.09515 111.62015 
C 106.874887 110.840413 107.313 109.782714 107.313 108.68 
C 107.313 107.577286 106.874887 106.519587 106.09515 105.73985 
C 105.315413 104.960113 104.257714 104.522 103.155 104.522 
C 102.052286 104.522 100.994587 104.960113 100.21485 105.73985 
C 99.435113 106.519587 98.997 107.577286 98.997 108.68 
C 98.997 109.782714 99.435113 110.840413 100.21485 111.62015 
C 100.994587 112.399887 102.052286 112.838 103.155 112.838 
z
" clip-path="url(#p420ba31e9e)" style="fill: #1f6feb; stroke: #1f6feb; stroke-linejoin: miter"/>
   </g>
   <g id="patch_7">
    <path d="M 103.155 279.158 
C 104.257714 279.158 105.315413 278.719887 106.09515 277.94015 
C 106.874887 277.160413 107.313 276.102714 107.313 275 
C 107.313 273.897286 106.874887 272.839587 106.09515 272.05985 
C 105.315413 271.280113 104.257714 270.842 103.155 270.842 
C 102.052286 270.842 100.994587 271.280113 100.21485 272.05985 
C 99.435113 272.839587 98.997 273.897286 98.997 275 
C 98.997 276.102714 99.435113 277.160413 100.21485 277.94015 
C 100.994587 278.719887 102.052286 279.158 103.155 279.158 
z
" clip-path="url(#p420ba31e9e)" style="fill: #8250df; stroke: #8250df; stroke-linejoin: miter"/>
   </g>
   <g id="patch_8">
    <path d="M 311.055 71.258 
C 312.157714 71.258 313.215413 70.819887 313.99515 70.04015 
C 314.774887 69.260413 315.213 68.202714 315.213 67.1 
C 315.213 65.997286 314.774887 64.939587 313.99515 64.15985 
C 313.215413 63.380113 312.157714 62.942 311.055 62.942 
C 309.952286 62.942 308.894587 63.380113 308.11485 64.15985 
C 307.335113 64.939587 306.897 65.997286 306.897 67.1 
C 306.897 68.202714 307.335113 69.260413 308.11485 70.04015 
C 308.894587 70.819887 309.952286 71.258 311.055 71.258 
z
" clip-path="url(#p420ba31e9e)" style="fill: #1a7f37; stroke: #1a7f37; stroke-linejoin: miter"/>
   </g>
   <g id="patch_9">
    <path d="M 227.895 194.7506 
C 228.6669 194.7506 229.407289 194.443921 229.953105 193.898105 
C 230.498921 193.352289 230.8056 192.6119 230.8056 191.84 
C 230.8056 191.0681 230.498921 190.327711 229.953105 189.781895 
C 229.407289 189.236079 228.6669 188.9294 227.895 188.9294 
C 227.1231 188.9294 226.382711 189.236079 225.836895 189.781895 
C 225.291079 190.327711 224.9844 191.0681 224.9844 191.84 
C 224.9844 192.6119 225.291079 193.352289 225.836895 193.898105 
C 226.382711 194.443921 227.1231 194.7506 227.895 194.7506 
z
" clip-path="url(#p420ba31e9e)" style="fill: #222831; stroke: #222831; stroke-linejoin: miter"/>
   </g>
   <g id="text_5">
    <!-- $P(3,\,2)$ -->
    <g style="fill: #222831" transform="translate(363.03 100.6601) scale(0.115 -0.115)">
     <defs>
      <path id="Cmmi10-68" d="M 313 0 
Q 250 0 250 84 
Q 253 100 262 139 
Q 272 178 289 201 
Q 306 225 331 225 
Q 722 225 878 269 
Q 959 297 997 441 
L 1875 3956 
Q 1888 4019 1888 4044 
Q 1888 4113 1813 4122 
Q 1691 4147 1350 4147 
Q 1288 4147 1288 4231 
Q 1291 4247 1300 4286 
Q 1309 4325 1326 4348 
Q 1344 4372 1369 4372 
L 3578 4372 
Q 3881 4372 4165 4264 
Q 4450 4156 4631 3934 
Q 4813 3713 4813 3397 
Q 4813 2991 4527 2672 
Q 4241 2353 3814 2175 
Q 3388 1997 2988 1997 
L 1947 1997 
L 1556 416 
Q 1544 353 1544 325 
Q 1544 300 1551 283 
Q 1559 266 1573 261 
Q 1588 256 1619 250 
Q 1741 225 2081 225 
Q 2144 225 2144 141 
Q 2122 50 2109 25 
Q 2097 0 2034 0 
L 313 0 
z
M 1978 2188 
L 2875 2188 
Q 3497 2188 3822 2522 
Q 3988 2688 4092 3000 
Q 4197 3313 4197 3566 
Q 4197 3881 3956 4014 
Q 3716 4147 3359 4147 
L 2747 4147 
Q 2572 4147 2515 4117 
Q 2459 4088 2413 3928 
L 1978 2188 
z
" transform="scale(0.015625)"/>
      <path id="Cmr10-77" d="M 1984 -1588 
Q 1628 -1306 1370 -942 
Q 1113 -578 948 -165 
Q 784 247 703 697 
Q 622 1147 622 1600 
Q 622 2059 703 2509 
Q 784 2959 951 3375 
Q 1119 3791 1378 4153 
Q 1638 4516 1984 4788 
Q 1984 4800 2016 4800 
L 2075 4800 
Q 2094 4800 2109 4783 
Q 2125 4766 2125 4744 
Q 2125 4716 2113 4703 
Q 1800 4397 1592 4047 
Q 1384 3697 1257 3301 
Q 1131 2906 1075 2482 
Q 1019 2059 1019 1600 
Q 1019 -434 2106 -1491 
Q 2125 -1509 2125 -1544 
Q 2125 -1559 2108 -1579 
Q 2091 -1600 2075 -1600 
L 2016 -1600 
Q 1984 -1600 1984 -1588 
z
" transform="scale(0.015625)"/>
      <path id="Cmr10-6e" d="M 609 494 
Q 759 275 1012 169 
Q 1266 63 1556 63 
Q 1928 63 2084 380 
Q 2241 697 2241 1100 
Q 2241 1281 2208 1462 
Q 2175 1644 2097 1800 
Q 2019 1956 1883 2050 
Q 1747 2144 1550 2144 
L 1125 2144 
Q 1069 2144 1069 2203 
L 1069 2259 
Q 1069 2309 1125 2309 
L 1478 2338 
Q 1703 2338 1851 2506 
Q 2000 2675 2069 2917 
Q 2138 3159 2138 3378 
Q 2138 3684 1994 3881 
Q 1850 4078 1556 4078 
Q 1313 4078 1091 3986 
Q 869 3894 738 3706 
Q 750 3709 759 3711 
Q 769 3713 781 3713 
Q 925 3713 1022 3613 
Q 1119 3513 1119 3372 
Q 1119 3234 1022 3134 
Q 925 3034 781 3034 
Q 641 3034 541 3134 
Q 441 3234 441 3372 
Q 441 3647 606 3850 
Q 772 4053 1033 4158 
Q 1294 4263 1556 4263 
Q 1750 4263 1965 4205 
Q 2181 4147 2356 4039 
Q 2531 3931 2642 3762 
Q 2753 3594 2753 3378 
Q 2753 3109 2633 2881 
Q 2513 2653 2303 2487 
Q 2094 2322 1844 2241 
Q 2122 2188 2372 2031 
Q 2622 1875 2773 1631 
Q 2925 1388 2925 1106 
Q 2925 753 2731 467 
Q 2538 181 2222 20 
Q 1906 -141 1556 -141 
Q 1256 -141 954 -26 
Q 653 88 461 316 
Q 269 544 269 863 
Q 269 1022 375 1128 
Q 481 1234 641 1234 
Q 744 1234 830 1186 
Q 916 1138 964 1050 
Q 1013 963 1013 863 
Q 1013 706 903 600 
Q 794 494 641 494 
L 609 494 
z
" transform="scale(0.015625)"/>
      <path id="Cmmi10-2c" d="M 634 -1153 
Q 634 -1125 659 -1100 
Q 891 -878 1019 -587 
Q 1147 -297 1147 25 
L 1147 103 
Q 1044 0 891 0 
Q 744 0 641 103 
Q 538 206 538 353 
Q 538 503 641 603 
Q 744 703 891 703 
Q 1119 703 1216 492 
Q 1313 281 1313 25 
Q 1313 -331 1170 -651 
Q 1028 -972 769 -1228 
Q 744 -1241 728 -1241 
Q 697 -1241 665 -1212 
Q 634 -1184 634 -1153 
z
" transform="scale(0.015625)"/>
      <path id="Cmr10-31" d="M 319 0 
L 319 172 
Q 319 188 331 206 
L 1325 1306 
Q 1550 1550 1690 1715 
Q 1831 1881 1968 2097 
Q 2106 2313 2186 2536 
Q 2266 2759 2266 3009 
Q 2266 3272 2169 3511 
Q 2072 3750 1880 3894 
Q 1688 4038 1416 4038 
Q 1138 4038 916 3870 
Q 694 3703 603 3438 
Q 628 3444 672 3444 
Q 816 3444 917 3347 
Q 1019 3250 1019 3097 
Q 1019 2950 917 2848 
Q 816 2747 672 2747 
Q 522 2747 420 2851 
Q 319 2956 319 3097 
Q 319 3338 409 3548 
Q 500 3759 670 3923 
Q 841 4088 1055 4175 
Q 1269 4263 1509 4263 
Q 1875 4263 2190 4108 
Q 2506 3953 2690 3670 
Q 2875 3388 2875 3009 
Q 2875 2731 2753 2481 
Q 2631 2231 2440 2026 
Q 2250 1822 1953 1562 
Q 1656 1303 1563 1216 
L 838 519 
L 1453 519 
Q 1906 519 2211 526 
Q 2516 534 2534 550 
Q 2609 631 2688 1141 
L 2875 1141 
L 2694 0 
L 319 0 
z
" transform="scale(0.015625)"/>
      <path id="Cmr10-44" d="M 416 -1600 
Q 359 -1600 359 -1544 
Q 359 -1516 372 -1503 
Q 1466 -434 1466 1600 
Q 1466 3634 384 4691 
Q 359 4706 359 4744 
Q 359 4766 376 4783 
Q 394 4800 416 4800 
L 475 4800 
Q 494 4800 506 4788 
Q 966 4425 1272 3906 
Q 1578 3388 1720 2800 
Q 1863 2213 1863 1600 
Q 1863 1147 1786 708 
Q 1709 269 1542 -157 
Q 1375 -584 1119 -945 
Q 863 -1306 506 -1588 
Q 494 -1600 475 -1600 
L 416 -1600 
z
" transform="scale(0.015625)"/>
     </defs>
     <use xlink:href="#Cmmi10-68"/>
     <use xlink:href="#Cmr10-77" transform="translate(64.208984 0)"/>
     <use xlink:href="#Cmr10-6e" transform="translate(103.027344 0)"/>
     <use xlink:href="#Cmmi10-2c" transform="translate(153.027344 0)"/>
     <use xlink:href="#Cmr10-31" transform="translate(217.379996 0)"/>
     <use xlink:href="#Cmr10-44" transform="translate(267.379996 0)"/>
    </g>
   </g>
   <g id="text_6">
    <!-- 對 $x$ 軸 $(3,-2)$ -->
    <g style="fill: #d1242f" transform="translate(363.03 297.3335) scale(0.115 -0.115)">
     <defs>
      <path id="Cmsy10-11" d="M 653 1472 
Q 600 1472 565 1512 
Q 531 1553 531 1600 
Q 531 1647 565 1687 
Q 600 1728 653 1728 
L 4325 1728 
Q 4375 1728 4408 1687 
Q 4441 1647 4441 1600 
Q 4441 1553 4408 1512 
Q 4375 1472 4325 1472 
L 653 1472 
z
" transform="scale(0.015625)"/>
     </defs>
     <use xlink:href="#NotoSansCJKjp-Regular-3d73"/>
     <use xlink:href="#NotoSansCJKjp-Regular-1" transform="translate(99.999908 0)"/>
     <use xlink:href="#Cmmi10-3f" transform="translate(122.399887 0)"/>
     <use xlink:href="#NotoSansCJKjp-Regular-1" transform="translate(179.479965 0)"/>
     <use xlink:href="#NotoSansCJKjp-Regular-9b28" transform="translate(201.879944 0)"/>
     <use xlink:href="#NotoSansCJKjp-Regular-1" transform="translate(301.879852 0)"/>
     <use xlink:href="#Cmr10-77" transform="translate(324.279831 0)"/>
     <use xlink:href="#Cmr10-6e" transform="translate(363.09819 0)"/>
     <use xlink:href="#Cmmi10-2c" transform="translate(413.09819 0)"/>
     <use xlink:href="#Cmsy10-11" transform="translate(480.783852 0)"/>
     <use xlink:href="#Cmr10-31" transform="translate(578.469456 0)"/>
     <use xlink:href="#Cmr10-44" transform="translate(628.469456 0)"/>
    </g>
   </g>
   <g id="text_7">
    <!-- 對 $y$ 軸 $(-3,2)$ -->
    <g style="fill: #1f6feb" transform="translate(21.46 100.6601) scale(0.115 -0.115)">
     <use xlink:href="#NotoSansCJKjp-Regular-3d73"/>
     <use xlink:href="#NotoSansCJKjp-Regular-1" transform="translate(99.999908 0)"/>
     <use xlink:href="#Cmmi10-72" transform="translate(122.399887 0)"/>
     <use xlink:href="#NotoSansCJKjp-Regular-1" transform="translate(171.423325 0)"/>
     <use xlink:href="#NotoSansCJKjp-Regular-9b28" transform="translate(193.823303 0)"/>
     <use xlink:href="#NotoSansCJKjp-Regular-1" transform="translate(293.823212 0)"/>
     <use xlink:href="#Cmr10-77" transform="translate(316.22319 0)"/>
     <use xlink:href="#Cmsy10-11" transform="translate(355.04155 0)"/>
     <use xlink:href="#Cmr10-6e" transform="translate(432.727097 0)"/>
     <use xlink:href="#Cmmi10-2c" transform="translate(482.727097 0)"/>
     <use xlink:href="#Cmr10-31" transform="translate(530.412701 0)"/>
     <use xlink:href="#Cmr10-44" transform="translate(580.412701 0)"/>
    </g>
   </g>
   <g id="text_8">
    <!-- 對原點 $(-3,-2)$ -->
    <g style="fill: #8250df" transform="translate(7.2 297.3335) scale(0.115 -0.115)">
     <use xlink:href="#NotoSansCJKjp-Regular-3d73" transform="translate(0 0.203125)"/>
     <use xlink:href="#NotoSansCJKjp-Regular-2e09" transform="translate(99.999908 0.203125)"/>
     <use xlink:href="#NotoSansCJKjp-Regular-b7c4" transform="translate(199.999817 0.203125)"/>
     <use xlink:href="#NotoSansCJKjp-Regular-1" transform="translate(299.999725 0.203125)"/>
     <use xlink:href="#Cmr10-77" transform="translate(322.399704 0.203125)"/>
     <use xlink:href="#Cmsy10-11" transform="translate(361.218063 0.203125)"/>
     <use xlink:href="#Cmr10-6e" transform="translate(438.90361 0.203125)"/>
     <use xlink:href="#Cmmi10-2c" transform="translate(488.90361 0.203125)"/>
     <use xlink:href="#Cmsy10-11" transform="translate(556.589272 0.203125)"/>
     <use xlink:href="#Cmr10-31" transform="translate(654.274876 0.203125)"/>
     <use xlink:href="#Cmr10-44" transform="translate(704.274876 0.203125)"/>
    </g>
   </g>
   <g id="text_9">
    <!-- 對 $y=x$ $(2,3)$ -->
    <g style="fill: #1a7f37" transform="translate(232.35 58.2485) scale(0.115 -0.115)">
     <use xlink:href="#NotoSansCJKjp-Regular-3d73" transform="translate(0 0.5)"/>
     <use xlink:href="#NotoSansCJKjp-Regular-1" transform="translate(99.999908 0.5)"/>
     <use xlink:href="#Cmmi10-72" transform="translate(122.399887 0.5)"/>
     <use xlink:href="#Cmr10-29" transform="translate(191.423382 0.5)"/>
     <use xlink:href="#Cmmi10-3f" transform="translate(289.108986 0.5)"/>
     <use xlink:href="#NotoSansCJKjp-Regular-1" transform="translate(346.189064 0.5)"/>
     <use xlink:href="#Cmr10-77" transform="translate(368.589043 0.5)"/>
     <use xlink:href="#Cmr10-31" transform="translate(407.407402 0.5)"/>
     <use xlink:href="#Cmmi10-2c" transform="translate(457.407402 0.5)"/>
     <use xlink:href="#Cmr10-6e" transform="translate(505.093006 0.5)"/>
     <use xlink:href="#Cmr10-44" transform="translate(555.093006 0.5)"/>
    </g>
   </g>
  </g>
 </g>
 <defs>
  <clipPath id="p420ba31e9e">
   <rect x="61.575" y="25.52" width="332.64" height="332.64"/>
  </clipPath>
 </defs>
</svg>
